<?xml version="1.0" encoding="UTF-8" standalone="no"?>
<!DOCTYPE svg PUBLIC "-//W3C//DTD SVG 1.1//EN"
 "http://www.w3.org/Graphics/SVG/1.1/DTD/svg11.dtd">
<!-- Generated by graphviz version 13.1.2 (20250808.2320)
 -->
<!-- Title: ActorPickRequestPacket Pages: 1 -->
<svg width="509pt" height="152pt"
 viewBox="0.00 0.00 509.00 152.00" xmlns="http://www.w3.org/2000/svg" xmlns:xlink="http://www.w3.org/1999/xlink">
<g id="graph0" class="graph" transform="scale(1 1) rotate(0) translate(4 148)">
<title>ActorPickRequestPacket</title>
<polygon fill="white" stroke="none" points="-4,4 -4,-148 504.9,-148 504.9,4 -4,4"/>
<!-- 0 -->
<!-- name: &quot;ActorPickRequestPacket&quot;, typeName: &quot;&quot;, id: 0, branchId: 0, recurseId: &#45;1, attributes: 0, notes: &quot;Player clicks on an actor in the world, eg a chicken.&quot; -->
<g id="node1" class="node">
<title>0</title>
<ellipse fill="none" stroke="black" cx="102.53" cy="-72" rx="102.53" ry="18"/>
<text xml:space="preserve" text-anchor="middle" x="102.53" y="-66.95" font-family="Times New Roman,serif" font-size="14.00">ActorPickRequestPacket</text>
</g>
<!-- 1 -->
<!-- name: &quot;Actor ID&quot;, typeName: &quot;&quot;, id: 1, branchId: 0, recurseId: &#45;1, attributes: 0, notes: &quot;Target Actor ID&quot; -->
<g id="node2" class="node">
<title>1</title>
<ellipse fill="none" stroke="black" cx="290.37" cy="-126" rx="44.19" ry="18"/>
<text xml:space="preserve" text-anchor="middle" x="290.37" y="-120.95" font-family="Times New Roman,serif" font-size="14.00">Actor ID</text>
</g>
<!-- 0&#45;&gt;1 -->
<g id="edge1" class="edge">
<title>0&#45;&gt;1</title>
<path fill="none" stroke="black" d="M157.28,-87.62C184.39,-95.5 216.94,-104.95 242.95,-112.51"/>
<polygon fill="black" stroke="black" points="241.62,-115.77 252.2,-115.2 243.58,-109.05 241.62,-115.77"/>
</g>
<!-- 3 -->
<!-- name: &quot;Max Slots&quot;, typeName: &quot;&quot;, id: 3, branchId: 0, recurseId: &#45;1, attributes: 0, notes: &quot;number of empty hotbar slots (to decide whether to overwrite a slot or add it to an empty one)&quot; -->
<g id="node4" class="node">
<title>3</title>
<ellipse fill="none" stroke="black" cx="290.37" cy="-72" rx="49.3" ry="18"/>
<text xml:space="preserve" text-anchor="middle" x="290.37" y="-66.95" font-family="Times New Roman,serif" font-size="14.00">Max Slots</text>
</g>
<!-- 0&#45;&gt;3 -->
<g id="edge3" class="edge">
<title>0&#45;&gt;3</title>
<path fill="none" stroke="black" d="M205.42,-72C213.62,-72 221.72,-72 229.47,-72"/>
<polygon fill="black" stroke="black" points="229.41,-75.5 239.41,-72 229.41,-68.5 229.41,-75.5"/>
</g>
<!-- 5 -->
<!-- name: &quot;With Data&quot;, typeName: &quot;&quot;, id: 5, branchId: 0, recurseId: &#45;1, attributes: 0, notes: &quot;whether we want to store the NBT data along with the item&quot; -->
<g id="node6" class="node">
<title>5</title>
<ellipse fill="none" stroke="black" cx="290.37" cy="-18" rx="49.3" ry="18"/>
<text xml:space="preserve" text-anchor="middle" x="290.37" y="-12.95" font-family="Times New Roman,serif" font-size="14.00">With Data</text>
</g>
<!-- 0&#45;&gt;5 -->
<g id="edge5" class="edge">
<title>0&#45;&gt;5</title>
<path fill="none" stroke="black" d="M157.28,-56.38C183.34,-48.81 214.42,-39.78 239.88,-32.38"/>
<polygon fill="black" stroke="black" points="240.7,-35.79 249.33,-29.63 238.75,-29.06 240.7,-35.79"/>
</g>
<!-- 2 -->
<!-- name: &quot;int64&quot;, typeName: &quot;&quot;, id: 2, branchId: 0, recurseId: &#45;1, attributes: 512, notes: &quot;Target Actor ID&quot; -->
<g id="node3" class="node">
<title>2</title>
<ellipse fill="none" stroke="black" cx="438.28" cy="-126" rx="29.86" ry="18"/>
<text xml:space="preserve" text-anchor="middle" x="438.28" y="-120.95" font-family="Times New Roman,serif" font-size="14.00">int64</text>
</g>
<!-- 1&#45;&gt;2 -->
<g id="edge2" class="edge">
<title>1&#45;&gt;2</title>
<path fill="none" stroke="black" d="M334.75,-126C354.37,-126 377.42,-126 396.7,-126"/>
<polygon fill="black" stroke="black" points="396.63,-129.5 406.63,-126 396.63,-122.5 396.63,-129.5"/>
</g>
<!-- 4 -->
<!-- name: &quot;unsigned byte&quot;, typeName: &quot;&quot;, id: 4, branchId: 0, recurseId: &#45;1, attributes: 512, notes: &quot;number of empty hotbar slots (to decide whether to overwrite a slot or add it to an empty one)&quot; -->
<g id="node5" class="node">
<title>4</title>
<ellipse fill="none" stroke="black" cx="438.28" cy="-72" rx="62.61" ry="18"/>
<text xml:space="preserve" text-anchor="middle" x="438.28" y="-66.95" font-family="Times New Roman,serif" font-size="14.00">unsigned byte</text>
</g>
<!-- 3&#45;&gt;4 -->
<g id="edge4" class="edge">
<title>3&#45;&gt;4</title>
<path fill="none" stroke="black" d="M339.96,-72C347.68,-72 355.81,-72 363.94,-72"/>
<polygon fill="black" stroke="black" points="363.9,-75.5 373.9,-72 363.9,-68.5 363.9,-75.5"/>
</g>
<!-- 6 -->
<!-- name: &quot;bool&quot;, typeName: &quot;&quot;, id: 6, branchId: 0, recurseId: &#45;1, attributes: 512, notes: &quot;whether we want to store the NBT data along with the item&quot; -->
<g id="node7" class="node">
<title>6</title>
<ellipse fill="none" stroke="black" cx="438.28" cy="-18" rx="27.3" ry="18"/>
<text xml:space="preserve" text-anchor="middle" x="438.28" y="-12.95" font-family="Times New Roman,serif" font-size="14.00">bool</text>
</g>
<!-- 5&#45;&gt;6 -->
<g id="edge6" class="edge">
<title>5&#45;&gt;6</title>
<path fill="none" stroke="black" d="M339.96,-18C359.27,-18 381.16,-18 399.28,-18"/>
<polygon fill="black" stroke="black" points="399.07,-21.5 409.07,-18 399.07,-14.5 399.07,-21.5"/>
</g>
</g>
</svg>
