<?xml version="1.0" encoding="UTF-8" standalone="no"?>
<!DOCTYPE svg PUBLIC "-//W3C//DTD SVG 1.1//EN"
 "http://www.w3.org/Graphics/SVG/1.1/DTD/svg11.dtd">
<!-- Generated by graphviz version 11.0.0 (20240428.1522)
 -->
<!-- Title: ActorDataFlagComponent Pages: 1 -->
<svg width="626pt" height="44pt"
 viewBox="0.00 0.00 625.90 44.00" xmlns="http://www.w3.org/2000/svg" xmlns:xlink="http://www.w3.org/1999/xlink">
<g id="graph0" class="graph" transform="scale(1 1) rotate(0) translate(4 40)">
<title>ActorDataFlagComponent</title>
<polygon fill="white" stroke="none" points="-4,4 -4,-40 621.9,-40 621.9,4 -4,4"/>
<!-- 2 -->
<!-- name: &quot;ActorDataFlagComponent&quot;, typeName: &quot;&quot;, id: 2, branchId: 0, recurseId: &#45;1, attributes: 0, notes: &quot;&quot; -->
<g id="node1" class="node">
<title>2</title>
<ellipse fill="none" stroke="black" cx="108.95" cy="-18" rx="108.95" ry="18"/>
<text text-anchor="middle" x="108.95" y="-12.57" font-family="Times New Roman,serif" font-size="14.00">ActorDataFlagComponent</text>
</g>
<!-- 3 -->
<!-- name: &quot;Actor Flag Bitset Data&quot;, typeName: &quot;std::bitset&lt;124&gt;&quot;, id: 3, branchId: 0, recurseId: &#45;1, attributes: 256, notes: &quot;Bitset where the bits are indexed by ActorFlags, see ActorFlagsBitset&quot; -->
<g id="node2" class="node">
<title>3</title>
<ellipse fill="none" stroke="black" cx="347.37" cy="-18" rx="93.48" ry="18"/>
<text text-anchor="middle" x="347.37" y="-12.57" font-family="Times New Roman,serif" font-size="14.00">Actor Flag Bitset Data</text>
</g>
<!-- 2&#45;&gt;3 -->
<g id="edge1" class="edge">
<title>2&#45;&gt;3</title>
<path fill="none" stroke="black" d="M218.13,-18C226.05,-18 234.04,-18 241.94,-18"/>
<polygon fill="black" stroke="black" points="241.93,-21.5 251.92,-18 241.92,-14.5 241.93,-21.5"/>
</g>
<!-- 7 -->
<!-- name: &quot;std::bitset&lt;124&gt;&quot;, typeName: &quot;&quot;, id: 7, branchId: 0, recurseId: &#45;1, attributes: 512, notes: &quot;&quot; -->
<g id="node3" class="node">
<title>7</title>
<ellipse fill="none" stroke="black" cx="547.38" cy="-18" rx="70.52" ry="18"/>
<text text-anchor="middle" x="547.38" y="-12.57" font-family="Times New Roman,serif" font-size="14.00">std::bitset&lt;124&gt;</text>
</g>
<!-- 3&#45;&gt;7 -->
<g id="edge2" class="edge">
<title>3&#45;&gt;7</title>
<path fill="none" stroke="black" d="M441.29,-18C449.25,-18 457.27,-18 465.14,-18"/>
<polygon fill="black" stroke="black" points="465.01,-21.5 475.01,-18 465.01,-14.5 465.01,-21.5"/>
</g>
</g>
</svg>
