<?xml version="1.0" encoding="UTF-8" standalone="no"?>
<!DOCTYPE svg PUBLIC "-//W3C//DTD SVG 1.1//EN"
 "http://www.w3.org/Graphics/SVG/1.1/DTD/svg11.dtd">
<!-- Generated by graphviz version 12.2.0 (20241103.1931)
 -->
<!-- Title: ActorEventPacket Pages: 1 -->
<svg width="547pt" height="152pt"
 viewBox="0.00 0.00 546.77 152.00" xmlns="http://www.w3.org/2000/svg" xmlns:xlink="http://www.w3.org/1999/xlink">
<g id="graph0" class="graph" transform="scale(1 1) rotate(0) translate(4 148)">
<title>ActorEventPacket</title>
<polygon fill="white" stroke="none" points="-4,4 -4,-148 542.77,-148 542.77,4 -4,4"/>
<!-- 0 -->
<!-- name: &quot;ActorEventPacket&quot;, typeName: &quot;&quot;, id: 0, branchId: 27, recurseId: &#45;1, attributes: 0, notes: &quot;&quot; -->
<g id="node1" class="node">
<title>0</title>
<ellipse fill="none" stroke="black" cx="77.97" cy="-72" rx="77.97" ry="18"/>
<text text-anchor="middle" x="77.97" y="-66.95" font-family="Times New Roman,serif" font-size="14.00">ActorEventPacket</text>
</g>
<!-- 1 -->
<!-- name: &quot;Target Runtime ID&quot;, typeName: &quot;ActorRuntimeID&quot;, id: 1, branchId: 0, recurseId: &#45;1, attributes: 256, notes: &quot;&quot; -->
<g id="node2" class="node">
<title>1</title>
<ellipse fill="none" stroke="black" cx="273.48" cy="-126" rx="81.55" ry="18"/>
<text text-anchor="middle" x="273.48" y="-120.95" font-family="Times New Roman,serif" font-size="14.00">Target Runtime ID</text>
</g>
<!-- 0&#45;&gt;1 -->
<g id="edge1" class="edge">
<title>0&#45;&gt;1</title>
<path fill="none" stroke="black" d="M129.05,-85.98C153.94,-92.92 184.25,-101.38 210.58,-108.73"/>
<polygon fill="black" stroke="black" points="209.56,-112.08 220.14,-111.39 211.44,-105.33 209.56,-112.08"/>
</g>
<!-- 3 -->
<!-- name: &quot;Event ID&quot;, typeName: &quot;&quot;, id: 3, branchId: 0, recurseId: &#45;1, attributes: 0, notes: &quot;&quot; -->
<g id="node4" class="node">
<title>3</title>
<ellipse fill="none" stroke="black" cx="273.48" cy="-72" rx="44.7" ry="18"/>
<text text-anchor="middle" x="273.48" y="-66.95" font-family="Times New Roman,serif" font-size="14.00">Event ID</text>
</g>
<!-- 0&#45;&gt;3 -->
<g id="edge3" class="edge">
<title>0&#45;&gt;3</title>
<path fill="none" stroke="black" d="M156.28,-72C176.59,-72 198.1,-72 217.01,-72"/>
<polygon fill="black" stroke="black" points="216.91,-75.5 226.91,-72 216.91,-68.5 216.91,-75.5"/>
</g>
<!-- 5 -->
<!-- name: &quot;Data&quot;, typeName: &quot;&quot;, id: 5, branchId: 0, recurseId: &#45;1, attributes: 0, notes: &quot;&quot; -->
<g id="node6" class="node">
<title>5</title>
<ellipse fill="none" stroke="black" cx="273.48" cy="-18" rx="28.32" ry="18"/>
<text text-anchor="middle" x="273.48" y="-12.95" font-family="Times New Roman,serif" font-size="14.00">Data</text>
</g>
<!-- 0&#45;&gt;5 -->
<g id="edge5" class="edge">
<title>0&#45;&gt;5</title>
<path fill="none" stroke="black" d="M129.05,-58.02C162.52,-48.69 205.77,-36.61 236,-28.18"/>
<polygon fill="black" stroke="black" points="236.74,-31.61 245.43,-25.55 234.86,-24.86 236.74,-31.61"/>
</g>
<!-- 2 -->
<!-- name: &quot;ActorRuntimeID&quot;, typeName: &quot;&quot;, id: 2, branchId: 0, recurseId: &#45;1, attributes: 512, notes: &quot;&quot; -->
<g id="node3" class="node">
<title>2</title>
<ellipse fill="none" stroke="black" cx="464.9" cy="-126" rx="73.87" ry="18"/>
<text text-anchor="middle" x="464.9" y="-120.95" font-family="Times New Roman,serif" font-size="14.00">ActorRuntimeID</text>
</g>
<!-- 1&#45;&gt;2 -->
<g id="edge2" class="edge">
<title>1&#45;&gt;2</title>
<path fill="none" stroke="black" d="M355.36,-126C363.36,-126 371.49,-126 379.52,-126"/>
<polygon fill="black" stroke="black" points="379.27,-129.5 389.27,-126 379.27,-122.5 379.27,-129.5"/>
</g>
<!-- 4 -->
<!-- name: &quot;byte&quot;, typeName: &quot;&quot;, id: 4, branchId: 0, recurseId: &#45;1, attributes: 512, notes: &quot;&quot; -->
<g id="node5" class="node">
<title>4</title>
<ellipse fill="none" stroke="black" cx="464.9" cy="-72" rx="27" ry="18"/>
<text text-anchor="middle" x="464.9" y="-66.95" font-family="Times New Roman,serif" font-size="14.00">byte</text>
</g>
<!-- 3&#45;&gt;4 -->
<g id="edge4" class="edge">
<title>3&#45;&gt;4</title>
<path fill="none" stroke="black" d="M318.41,-72C351.07,-72 395.16,-72 426.22,-72"/>
<polygon fill="black" stroke="black" points="425.92,-75.5 435.92,-72 425.92,-68.5 425.92,-75.5"/>
</g>
<!-- 6 -->
<!-- name: &quot;varint&quot;, typeName: &quot;&quot;, id: 6, branchId: 0, recurseId: &#45;1, attributes: 512, notes: &quot;&quot; -->
<g id="node7" class="node">
<title>6</title>
<ellipse fill="none" stroke="black" cx="464.9" cy="-18" rx="32.41" ry="18"/>
<text text-anchor="middle" x="464.9" y="-12.95" font-family="Times New Roman,serif" font-size="14.00">varint</text>
</g>
<!-- 5&#45;&gt;6 -->
<g id="edge6" class="edge">
<title>5&#45;&gt;6</title>
<path fill="none" stroke="black" d="M302.02,-18C333.22,-18 384.46,-18 420.93,-18"/>
<polygon fill="black" stroke="black" points="420.7,-21.5 430.7,-18 420.7,-14.5 420.7,-21.5"/>
</g>
</g>
</svg>
