<?xml version="1.0" encoding="UTF-8" standalone="no"?>
<!DOCTYPE svg PUBLIC "-//W3C//DTD SVG 1.1//EN"
 "http://www.w3.org/Graphics/SVG/1.1/DTD/svg11.dtd">
<!-- Generated by graphviz version 2.46.1 (20210213.1702)
 -->
<!-- Title: ActorPickRequestPacket Pages: 1 -->
<svg width="437pt" height="152pt"
 viewBox="0.00 0.00 437.47 152.00" xmlns="http://www.w3.org/2000/svg" xmlns:xlink="http://www.w3.org/1999/xlink">
<g id="graph0" class="graph" transform="scale(1 1) rotate(0) translate(4 148)">
<title>ActorPickRequestPacket</title>
<polygon fill="white" stroke="transparent" points="-4,4 -4,-148 433.47,-148 433.47,4 -4,4"/>
<!-- 0 -->
<!-- name: &quot;ActorPickRequestPacket&quot;, typeName: &quot;&quot;, id: 0, branchId: 35, recurseId: &#45;1, attributes: 0, notes: &quot;&quot; -->
<g id="node1" class="node">
<title>0</title>
<ellipse fill="none" stroke="black" cx="102.04" cy="-72" rx="102.08" ry="18"/>
<text text-anchor="middle" x="102.04" y="-68.3" font-family="Times New Roman,serif" font-size="14.00">ActorPickRequestPacket</text>
</g>
<!-- 1 -->
<!-- name: &quot;Actor ID&quot;, typeName: &quot;&quot;, id: 1, branchId: 0, recurseId: &#45;1, attributes: 0, notes: &quot;Target Actor ID&quot; -->
<g id="node2" class="node">
<title>1</title>
<ellipse fill="none" stroke="black" cx="288.18" cy="-126" rx="43.59" ry="18"/>
<text text-anchor="middle" x="288.18" y="-122.3" font-family="Times New Roman,serif" font-size="14.00">Actor ID</text>
</g>
<!-- 0&#45;&gt;1 -->
<g id="edge1" class="edge">
<title>0&#45;&gt;1</title>
<path fill="none" stroke="black" d="M155.81,-87.47C183.23,-95.52 216.38,-105.24 242.52,-112.9"/>
<polygon fill="black" stroke="black" points="241.58,-116.28 252.16,-115.73 243.55,-109.56 241.58,-116.28"/>
</g>
<!-- 3 -->
<!-- name: &quot;Max Slots&quot;, typeName: &quot;&quot;, id: 3, branchId: 0, recurseId: &#45;1, attributes: 0, notes: &quot;number of empty hotbar slots (to decide whether to overwrite a slot or add it to an empty one)&quot; -->
<g id="node4" class="node">
<title>3</title>
<ellipse fill="none" stroke="black" cx="288.18" cy="-72" rx="48.19" ry="18"/>
<text text-anchor="middle" x="288.18" y="-68.3" font-family="Times New Roman,serif" font-size="14.00">Max Slots</text>
</g>
<!-- 0&#45;&gt;3 -->
<g id="edge3" class="edge">
<title>0&#45;&gt;3</title>
<path fill="none" stroke="black" d="M204.27,-72C212.96,-72 221.55,-72 229.71,-72"/>
<polygon fill="black" stroke="black" points="229.8,-75.5 239.8,-72 229.8,-68.5 229.8,-75.5"/>
</g>
<!-- 5 -->
<!-- name: &quot;With Data&quot;, typeName: &quot;&quot;, id: 5, branchId: 0, recurseId: &#45;1, attributes: 0, notes: &quot;whether we want to store the NBT data along with the item&quot; -->
<g id="node6" class="node">
<title>5</title>
<ellipse fill="none" stroke="black" cx="288.18" cy="-18" rx="47.39" ry="18"/>
<text text-anchor="middle" x="288.18" y="-14.3" font-family="Times New Roman,serif" font-size="14.00">With Data</text>
</g>
<!-- 0&#45;&gt;5 -->
<g id="edge5" class="edge">
<title>0&#45;&gt;5</title>
<path fill="none" stroke="black" d="M155.81,-56.53C182.45,-48.71 214.5,-39.31 240.28,-31.75"/>
<polygon fill="black" stroke="black" points="241.57,-35.02 250.18,-28.85 239.6,-28.31 241.57,-35.02"/>
</g>
<!-- 2 -->
<!-- name: &quot;int64&quot;, typeName: &quot;&quot;, id: 2, branchId: 0, recurseId: &#45;1, attributes: 512, notes: &quot;&quot; -->
<g id="node3" class="node">
<title>2</title>
<ellipse fill="none" stroke="black" cx="400.87" cy="-126" rx="28.7" ry="18"/>
<text text-anchor="middle" x="400.87" y="-122.3" font-family="Times New Roman,serif" font-size="14.00">int64</text>
</g>
<!-- 1&#45;&gt;2 -->
<g id="edge2" class="edge">
<title>1&#45;&gt;2</title>
<path fill="none" stroke="black" d="M331.97,-126C341.89,-126 352.38,-126 362.07,-126"/>
<polygon fill="black" stroke="black" points="362.2,-129.5 372.2,-126 362.2,-122.5 362.2,-129.5"/>
</g>
<!-- 4 -->
<!-- name: &quot;byte&quot;, typeName: &quot;&quot;, id: 4, branchId: 0, recurseId: &#45;1, attributes: 512, notes: &quot;&quot; -->
<g id="node5" class="node">
<title>4</title>
<ellipse fill="none" stroke="black" cx="400.87" cy="-72" rx="27" ry="18"/>
<text text-anchor="middle" x="400.87" y="-68.3" font-family="Times New Roman,serif" font-size="14.00">byte</text>
</g>
<!-- 3&#45;&gt;4 -->
<g id="edge4" class="edge">
<title>3&#45;&gt;4</title>
<path fill="none" stroke="black" d="M336.44,-72C345.55,-72 354.96,-72 363.64,-72"/>
<polygon fill="black" stroke="black" points="363.82,-75.5 373.82,-72 363.82,-68.5 363.82,-75.5"/>
</g>
<!-- 6 -->
<!-- name: &quot;bool&quot;, typeName: &quot;&quot;, id: 6, branchId: 0, recurseId: &#45;1, attributes: 512, notes: &quot;&quot; -->
<g id="node7" class="node">
<title>6</title>
<ellipse fill="none" stroke="black" cx="400.87" cy="-18" rx="27.1" ry="18"/>
<text text-anchor="middle" x="400.87" y="-14.3" font-family="Times New Roman,serif" font-size="14.00">bool</text>
</g>
<!-- 5&#45;&gt;6 -->
<g id="edge6" class="edge">
<title>5&#45;&gt;6</title>
<path fill="none" stroke="black" d="M335.8,-18C344.96,-18 354.44,-18 363.22,-18"/>
<polygon fill="black" stroke="black" points="363.5,-21.5 373.5,-18 363.5,-14.5 363.5,-21.5"/>
</g>
</g>
</svg>
