<?xml version="1.0" encoding="UTF-8" standalone="no"?>
<!DOCTYPE svg PUBLIC "-//W3C//DTD SVG 1.1//EN"
 "http://www.w3.org/Graphics/SVG/1.1/DTD/svg11.dtd">
<!-- Generated by graphviz version 11.0.0 (20240428.1522)
 -->
<!-- Title: ActorDataBoundingBoxComponent Pages: 1 -->
<svg width="695pt" height="152pt"
 viewBox="0.00 0.00 694.76 152.00" xmlns="http://www.w3.org/2000/svg" xmlns:xlink="http://www.w3.org/1999/xlink">
<g id="graph0" class="graph" transform="scale(1 1) rotate(0) translate(4 148)">
<title>ActorDataBoundingBoxComponent</title>
<polygon fill="white" stroke="none" points="-4,4 -4,-148 690.76,-148 690.76,4 -4,4"/>
<!-- 10 -->
<!-- name: &quot;ActorDataBoundingBoxComponent&quot;, typeName: &quot;&quot;, id: 10, branchId: 0, recurseId: &#45;1, attributes: 0, notes: &quot;&quot; -->
<g id="node1" class="node">
<title>10</title>
<ellipse fill="none" stroke="black" cx="144.38" cy="-72" rx="144.38" ry="18"/>
<text text-anchor="middle" x="144.38" y="-66.58" font-family="Times New Roman,serif" font-size="14.00">ActorDataBoundingBoxComponent</text>
</g>
<!-- 11 -->
<!-- name: &quot;Actor Data Bounding Box::Scale&quot;, typeName: &quot;&quot;, id: 11, branchId: 0, recurseId: &#45;1, attributes: 0, notes: &quot;Array where the elements stores the bounding box of scale&quot; -->
<g id="node2" class="node">
<title>11</title>
<ellipse fill="none" stroke="black" cx="460.65" cy="-126" rx="131.9" ry="18"/>
<text text-anchor="middle" x="460.65" y="-120.58" font-family="Times New Roman,serif" font-size="14.00">Actor Data Bounding Box::Scale</text>
</g>
<!-- 10&#45;&gt;11 -->
<g id="edge1" class="edge">
<title>10&#45;&gt;11</title>
<path fill="none" stroke="black" d="M231.25,-86.76C272.79,-93.89 322.76,-102.48 365.36,-109.8"/>
<polygon fill="black" stroke="black" points="364.65,-113.23 375.09,-111.47 365.83,-106.33 364.65,-113.23"/>
</g>
<!-- 13 -->
<!-- name: &quot;Actor Data Bounding Box::Width&quot;, typeName: &quot;&quot;, id: 13, branchId: 0, recurseId: &#45;1, attributes: 0, notes: &quot;Array where the elements stores the bounding box of width&quot; -->
<g id="node4" class="node">
<title>13</title>
<ellipse fill="none" stroke="black" cx="460.65" cy="-72" rx="134.9" ry="18"/>
<text text-anchor="middle" x="460.65" y="-66.58" font-family="Times New Roman,serif" font-size="14.00">Actor Data Bounding Box::Width</text>
</g>
<!-- 10&#45;&gt;13 -->
<g id="edge3" class="edge">
<title>10&#45;&gt;13</title>
<path fill="none" stroke="black" d="M289.17,-72C297.51,-72 305.89,-72 314.23,-72"/>
<polygon fill="black" stroke="black" points="314.05,-75.5 324.05,-72 314.05,-68.5 314.05,-75.5"/>
</g>
<!-- 15 -->
<!-- name: &quot;Actor Data Bounding Box::Heigth&quot;, typeName: &quot;&quot;, id: 15, branchId: 0, recurseId: &#45;1, attributes: 0, notes: &quot;Array where the elements stores the bounding box of height&quot; -->
<g id="node6" class="node">
<title>15</title>
<ellipse fill="none" stroke="black" cx="460.65" cy="-18" rx="135.89" ry="18"/>
<text text-anchor="middle" x="460.65" y="-12.57" font-family="Times New Roman,serif" font-size="14.00">Actor Data Bounding Box::Heigth</text>
</g>
<!-- 10&#45;&gt;15 -->
<g id="edge5" class="edge">
<title>10&#45;&gt;15</title>
<path fill="none" stroke="black" d="M231.25,-57.24C272.54,-50.15 322.16,-41.62 364.59,-34.33"/>
<polygon fill="black" stroke="black" points="365.02,-37.81 374.28,-32.67 363.84,-30.91 365.02,-37.81"/>
</g>
<!-- 12 -->
<!-- name: &quot;float&quot;, typeName: &quot;&quot;, id: 12, branchId: 0, recurseId: &#45;1, attributes: 512, notes: &quot;&quot; -->
<g id="node3" class="node">
<title>12</title>
<ellipse fill="none" stroke="black" cx="659.65" cy="-126" rx="27.11" ry="18"/>
<text text-anchor="middle" x="659.65" y="-120.58" font-family="Times New Roman,serif" font-size="14.00">float</text>
</g>
<!-- 11&#45;&gt;12 -->
<g id="edge2" class="edge">
<title>11&#45;&gt;12</title>
<path fill="none" stroke="black" d="M592.78,-126C602.79,-126 612.3,-126 620.81,-126"/>
<polygon fill="black" stroke="black" points="620.63,-129.5 630.63,-126 620.63,-122.5 620.63,-129.5"/>
</g>
<!-- 14 -->
<!-- name: &quot;float&quot;, typeName: &quot;&quot;, id: 14, branchId: 0, recurseId: &#45;1, attributes: 512, notes: &quot;&quot; -->
<g id="node5" class="node">
<title>14</title>
<ellipse fill="none" stroke="black" cx="659.65" cy="-72" rx="27.11" ry="18"/>
<text text-anchor="middle" x="659.65" y="-66.58" font-family="Times New Roman,serif" font-size="14.00">float</text>
</g>
<!-- 13&#45;&gt;14 -->
<g id="edge4" class="edge">
<title>13&#45;&gt;14</title>
<path fill="none" stroke="black" d="M595.78,-72C604.72,-72 613.21,-72 620.89,-72"/>
<polygon fill="black" stroke="black" points="620.73,-75.5 630.73,-72 620.73,-68.5 620.73,-75.5"/>
</g>
<!-- 16 -->
<!-- name: &quot;float&quot;, typeName: &quot;&quot;, id: 16, branchId: 0, recurseId: &#45;1, attributes: 512, notes: &quot;&quot; -->
<g id="node7" class="node">
<title>16</title>
<ellipse fill="none" stroke="black" cx="659.65" cy="-18" rx="27.11" ry="18"/>
<text text-anchor="middle" x="659.65" y="-12.57" font-family="Times New Roman,serif" font-size="14.00">float</text>
</g>
<!-- 15&#45;&gt;16 -->
<g id="edge6" class="edge">
<title>15&#45;&gt;16</title>
<path fill="none" stroke="black" d="M596.86,-18C605.39,-18 613.5,-18 620.86,-18"/>
<polygon fill="black" stroke="black" points="620.62,-21.5 630.62,-18 620.62,-14.5 620.62,-21.5"/>
</g>
</g>
</svg>
