<?xml version="1.0" encoding="UTF-8" standalone="no"?>
<!DOCTYPE svg PUBLIC "-//W3C//DTD SVG 1.1//EN"
 "http://www.w3.org/Graphics/SVG/1.1/DTD/svg11.dtd">
<!-- Generated by graphviz version 2.46.1 (20210213.1702)
 -->
<!-- Title: ActorEventPacket Pages: 1 -->
<svg width="534pt" height="152pt"
 viewBox="0.00 0.00 533.66 152.00" xmlns="http://www.w3.org/2000/svg" xmlns:xlink="http://www.w3.org/1999/xlink">
<g id="graph0" class="graph" transform="scale(1 1) rotate(0) translate(4 148)">
<title>ActorEventPacket</title>
<polygon fill="white" stroke="transparent" points="-4,4 -4,-148 529.66,-148 529.66,4 -4,4"/>
<!-- 0 -->
<!-- name: &quot;ActorEventPacket&quot;, typeName: &quot;&quot;, id: 0, branchId: 27, recurseId: &#45;1, attributes: 0, notes: &quot;&quot; -->
<g id="node1" class="node">
<title>0</title>
<ellipse fill="none" stroke="black" cx="76.69" cy="-72" rx="76.89" ry="18"/>
<text text-anchor="middle" x="76.69" y="-68.3" font-family="Times New Roman,serif" font-size="14.00">ActorEventPacket</text>
</g>
<!-- 1 -->
<!-- name: &quot;Target Runtime ID&quot;, typeName: &quot;ActorRuntimeID&quot;, id: 1, branchId: 0, recurseId: &#45;1, attributes: 256, notes: &quot;&quot; -->
<g id="node2" class="node">
<title>1</title>
<ellipse fill="none" stroke="black" cx="268.03" cy="-126" rx="78.79" ry="18"/>
<text text-anchor="middle" x="268.03" y="-122.3" font-family="Times New Roman,serif" font-size="14.00">Target Runtime ID</text>
</g>
<!-- 0&#45;&gt;1 -->
<g id="edge1" class="edge">
<title>0&#45;&gt;1</title>
<path fill="none" stroke="black" d="M126.45,-85.91C151.42,-93.03 182.01,-101.75 208.27,-109.24"/>
<polygon fill="black" stroke="black" points="207.53,-112.67 218.11,-112.05 209.45,-105.94 207.53,-112.67"/>
</g>
<!-- 3 -->
<!-- name: &quot;Event ID&quot;, typeName: &quot;&quot;, id: 3, branchId: 0, recurseId: &#45;1, attributes: 0, notes: &quot;enumeration: ActorEvent&quot; -->
<g id="node4" class="node">
<title>3</title>
<ellipse fill="none" stroke="black" cx="268.03" cy="-72" rx="42.79" ry="18"/>
<text text-anchor="middle" x="268.03" y="-68.3" font-family="Times New Roman,serif" font-size="14.00">Event ID</text>
</g>
<!-- 0&#45;&gt;3 -->
<g id="edge3" class="edge">
<title>0&#45;&gt;3</title>
<path fill="none" stroke="black" d="M153.61,-72C174.19,-72 195.99,-72 214.92,-72"/>
<polygon fill="black" stroke="black" points="215.12,-75.5 225.12,-72 215.12,-68.5 215.12,-75.5"/>
</g>
<!-- 5 -->
<!-- name: &quot;Data&quot;, typeName: &quot;&quot;, id: 5, branchId: 0, recurseId: &#45;1, attributes: 0, notes: &quot;&quot; -->
<g id="node6" class="node">
<title>5</title>
<ellipse fill="none" stroke="black" cx="268.03" cy="-18" rx="27.1" ry="18"/>
<text text-anchor="middle" x="268.03" y="-14.3" font-family="Times New Roman,serif" font-size="14.00">Data</text>
</g>
<!-- 0&#45;&gt;5 -->
<g id="edge5" class="edge">
<title>0&#45;&gt;5</title>
<path fill="none" stroke="black" d="M126.45,-58.09C159.78,-48.59 203.11,-36.23 232.81,-27.76"/>
<polygon fill="black" stroke="black" points="234.05,-31.05 242.71,-24.94 232.13,-24.31 234.05,-31.05"/>
</g>
<!-- 2 -->
<!-- name: &quot;ActorRuntimeID&quot;, typeName: &quot;&quot;, id: 2, branchId: 0, recurseId: &#45;1, attributes: 512, notes: &quot;&quot; -->
<g id="node3" class="node">
<title>2</title>
<ellipse fill="none" stroke="black" cx="454.17" cy="-126" rx="71.49" ry="18"/>
<text text-anchor="middle" x="454.17" y="-122.3" font-family="Times New Roman,serif" font-size="14.00">ActorRuntimeID</text>
</g>
<!-- 1&#45;&gt;2 -->
<g id="edge2" class="edge">
<title>1&#45;&gt;2</title>
<path fill="none" stroke="black" d="M346.85,-126C355.3,-126 363.9,-126 372.38,-126"/>
<polygon fill="black" stroke="black" points="372.64,-129.5 382.64,-126 372.64,-122.5 372.64,-129.5"/>
</g>
<!-- 4 -->
<!-- name: &quot;byte&quot;, typeName: &quot;&quot;, id: 4, branchId: 0, recurseId: &#45;1, attributes: 512, notes: &quot;&quot; -->
<g id="node5" class="node">
<title>4</title>
<ellipse fill="none" stroke="black" cx="454.17" cy="-72" rx="27" ry="18"/>
<text text-anchor="middle" x="454.17" y="-68.3" font-family="Times New Roman,serif" font-size="14.00">byte</text>
</g>
<!-- 3&#45;&gt;4 -->
<g id="edge4" class="edge">
<title>3&#45;&gt;4</title>
<path fill="none" stroke="black" d="M311.27,-72C343.19,-72 386.53,-72 416.88,-72"/>
<polygon fill="black" stroke="black" points="417.04,-75.5 427.04,-72 417.04,-68.5 417.04,-75.5"/>
</g>
<!-- 6 -->
<!-- name: &quot;varint&quot;, typeName: &quot;&quot;, id: 6, branchId: 0, recurseId: &#45;1, attributes: 512, notes: &quot;&quot; -->
<g id="node7" class="node">
<title>6</title>
<ellipse fill="none" stroke="black" cx="454.17" cy="-18" rx="30.59" ry="18"/>
<text text-anchor="middle" x="454.17" y="-14.3" font-family="Times New Roman,serif" font-size="14.00">varint</text>
</g>
<!-- 5&#45;&gt;6 -->
<g id="edge6" class="edge">
<title>5&#45;&gt;6</title>
<path fill="none" stroke="black" d="M295.41,-18C326.28,-18 377.69,-18 413.4,-18"/>
<polygon fill="black" stroke="black" points="413.48,-21.5 423.48,-18 413.48,-14.5 413.48,-21.5"/>
</g>
</g>
</svg>
