<?xml version="1.0" encoding="UTF-8" standalone="no"?>
<!DOCTYPE svg PUBLIC "-//W3C//DTD SVG 1.1//EN"
 "http://www.w3.org/Graphics/SVG/1.1/DTD/svg11.dtd">
<!-- Generated by graphviz version 11.0.0 (20240428.1522)
 -->
<!-- Title: ActorLink Pages: 1 -->
<svg width="519pt" height="314pt"
 viewBox="0.00 0.00 519.12 314.00" xmlns="http://www.w3.org/2000/svg" xmlns:xlink="http://www.w3.org/1999/xlink">
<g id="graph0" class="graph" transform="scale(1 1) rotate(0) translate(4 310)">
<title>ActorLink</title>
<polygon fill="white" stroke="none" points="-4,4 -4,-310 515.12,-310 515.12,4 -4,4"/>
<!-- 112 -->
<!-- name: &quot;ActorLink&quot;, typeName: &quot;&quot;, id: 112, branchId: 0, recurseId: &#45;1, attributes: 0, notes: &quot;&quot; -->
<g id="node1" class="node">
<title>112</title>
<ellipse fill="none" stroke="black" cx="48.57" cy="-153" rx="48.57" ry="18"/>
<text text-anchor="middle" x="48.57" y="-147.57" font-family="Times New Roman,serif" font-size="14.00">ActorLink</text>
</g>
<!-- 113 -->
<!-- name: &quot;Target A&quot;, typeName: &quot;ActorUniqueID&quot;, id: 113, branchId: 0, recurseId: &#45;1, attributes: 256, notes: &quot;&quot; -->
<g id="node2" class="node">
<title>113</title>
<ellipse fill="none" stroke="black" cx="236.1" cy="-288" rx="43.58" ry="18"/>
<text text-anchor="middle" x="236.1" y="-282.57" font-family="Times New Roman,serif" font-size="14.00">Target A</text>
</g>
<!-- 112&#45;&gt;113 -->
<g id="edge1" class="edge">
<title>112&#45;&gt;113</title>
<path fill="none" stroke="black" d="M58.54,-170.88C71.6,-195.06 98.17,-237.81 133.14,-261 147.85,-270.75 165.93,-276.99 182.77,-280.98"/>
<polygon fill="black" stroke="black" points="181.61,-284.31 192.12,-282.97 183.07,-277.46 181.61,-284.31"/>
</g>
<!-- 115 -->
<!-- name: &quot;Target B&quot;, typeName: &quot;ActorUniqueID&quot;, id: 115, branchId: 0, recurseId: &#45;1, attributes: 256, notes: &quot;&quot; -->
<g id="node4" class="node">
<title>115</title>
<ellipse fill="none" stroke="black" cx="236.1" cy="-234" rx="43.08" ry="18"/>
<text text-anchor="middle" x="236.1" y="-228.57" font-family="Times New Roman,serif" font-size="14.00">Target B</text>
</g>
<!-- 112&#45;&gt;115 -->
<g id="edge3" class="edge">
<title>112&#45;&gt;115</title>
<path fill="none" stroke="black" d="M70.84,-169.44C87.12,-181.33 110.55,-197.01 133.14,-207 149.62,-214.29 168.51,-219.96 185.51,-224.19"/>
<polygon fill="black" stroke="black" points="184.35,-227.51 194.89,-226.41 185.96,-220.7 184.35,-227.51"/>
</g>
<!-- 117 -->
<!-- name: &quot;Type&quot;, typeName: &quot;&quot;, id: 117, branchId: 0, recurseId: &#45;1, attributes: 0, notes: &quot;&quot; -->
<g id="node6" class="node">
<title>117</title>
<ellipse fill="none" stroke="black" cx="236.1" cy="-180" rx="30.11" ry="18"/>
<text text-anchor="middle" x="236.1" y="-174.57" font-family="Times New Roman,serif" font-size="14.00">Type</text>
</g>
<!-- 112&#45;&gt;117 -->
<g id="edge5" class="edge">
<title>112&#45;&gt;117</title>
<path fill="none" stroke="black" d="M94.01,-159.47C124.77,-163.94 165.36,-169.85 195.1,-174.18"/>
<polygon fill="black" stroke="black" points="194.43,-177.62 204.83,-175.59 195.44,-170.69 194.43,-177.62"/>
</g>
<!-- 119 -->
<!-- name: &quot;Immediate&quot;, typeName: &quot;&quot;, id: 119, branchId: 0, recurseId: &#45;1, attributes: 0, notes: &quot;&quot; -->
<g id="node8" class="node">
<title>119</title>
<ellipse fill="none" stroke="black" cx="236.1" cy="-126" rx="49.07" ry="18"/>
<text text-anchor="middle" x="236.1" y="-120.58" font-family="Times New Roman,serif" font-size="14.00">Immediate</text>
</g>
<!-- 112&#45;&gt;119 -->
<g id="edge7" class="edge">
<title>112&#45;&gt;119</title>
<path fill="none" stroke="black" d="M94.01,-146.53C119.43,-142.83 151.56,-138.16 178.74,-134.2"/>
<polygon fill="black" stroke="black" points="179.17,-137.68 188.56,-132.77 178.16,-130.75 179.17,-137.68"/>
</g>
<!-- 121 -->
<!-- name: &quot;Passenger Initiated&quot;, typeName: &quot;&quot;, id: 121, branchId: 0, recurseId: &#45;1, attributes: 0, notes: &quot;Whether the link was changed by the passenger&quot; -->
<g id="node10" class="node">
<title>121</title>
<ellipse fill="none" stroke="black" cx="236.1" cy="-72" rx="80.01" ry="18"/>
<text text-anchor="middle" x="236.1" y="-66.58" font-family="Times New Roman,serif" font-size="14.00">Passenger Initiated</text>
</g>
<!-- 112&#45;&gt;121 -->
<g id="edge9" class="edge">
<title>112&#45;&gt;121</title>
<path fill="none" stroke="black" d="M70.84,-136.56C87.12,-124.67 110.55,-108.99 133.14,-99 143.25,-94.53 154.26,-90.67 165.19,-87.37"/>
<polygon fill="black" stroke="black" points="165.94,-90.8 174.6,-84.68 164.02,-84.07 165.94,-90.8"/>
</g>
<!-- 123 -->
<!-- name: &quot;Vehicle Angular Velocity&quot;, typeName: &quot;&quot;, id: 123, branchId: 0, recurseId: &#45;1, attributes: 0, notes: &quot;&quot; -->
<g id="node12" class="node">
<title>123</title>
<ellipse fill="none" stroke="black" cx="236.1" cy="-18" rx="102.96" ry="18"/>
<text text-anchor="middle" x="236.1" y="-12.57" font-family="Times New Roman,serif" font-size="14.00">Vehicle Angular Velocity</text>
</g>
<!-- 112&#45;&gt;123 -->
<g id="edge11" class="edge">
<title>112&#45;&gt;123</title>
<path fill="none" stroke="black" d="M58.54,-135.12C71.6,-110.94 98.17,-68.19 133.14,-45 138.95,-41.15 145.28,-37.84 151.86,-35.01"/>
<polygon fill="black" stroke="black" points="152.89,-38.37 160.94,-31.48 150.35,-31.84 152.89,-38.37"/>
</g>
<!-- 114 -->
<!-- name: &quot;ActorUniqueID&quot;, typeName: &quot;&quot;, id: 114, branchId: 0, recurseId: &#45;1, attributes: 512, notes: &quot;&quot; -->
<g id="node3" class="node">
<title>114</title>
<ellipse fill="none" stroke="black" cx="443.09" cy="-288" rx="68.03" ry="18"/>
<text text-anchor="middle" x="443.09" y="-282.57" font-family="Times New Roman,serif" font-size="14.00">ActorUniqueID</text>
</g>
<!-- 113&#45;&gt;114 -->
<g id="edge2" class="edge">
<title>113&#45;&gt;114</title>
<path fill="none" stroke="black" d="M280.07,-288C304.11,-288 334.84,-288 363.06,-288"/>
<polygon fill="black" stroke="black" points="363.04,-291.5 373.04,-288 363.04,-284.5 363.04,-291.5"/>
</g>
<!-- 116 -->
<!-- name: &quot;ActorUniqueID&quot;, typeName: &quot;&quot;, id: 116, branchId: 0, recurseId: &#45;1, attributes: 512, notes: &quot;&quot; -->
<g id="node5" class="node">
<title>116</title>
<ellipse fill="none" stroke="black" cx="443.09" cy="-234" rx="68.03" ry="18"/>
<text text-anchor="middle" x="443.09" y="-228.57" font-family="Times New Roman,serif" font-size="14.00">ActorUniqueID</text>
</g>
<!-- 115&#45;&gt;116 -->
<g id="edge4" class="edge">
<title>115&#45;&gt;116</title>
<path fill="none" stroke="black" d="M279.57,-234C303.8,-234 334.93,-234 363.45,-234"/>
<polygon fill="black" stroke="black" points="363.14,-237.5 373.14,-234 363.14,-230.5 363.14,-237.5"/>
</g>
<!-- 118 -->
<!-- name: &quot;byte&quot;, typeName: &quot;&quot;, id: 118, branchId: 0, recurseId: &#45;1, attributes: 512, notes: &quot;&quot; -->
<g id="node7" class="node">
<title>118</title>
<ellipse fill="none" stroke="black" cx="443.09" cy="-180" rx="27" ry="18"/>
<text text-anchor="middle" x="443.09" y="-174.57" font-family="Times New Roman,serif" font-size="14.00">byte</text>
</g>
<!-- 117&#45;&gt;118 -->
<g id="edge6" class="edge">
<title>117&#45;&gt;118</title>
<path fill="none" stroke="black" d="M266.47,-180C302.76,-180 364.59,-180 404.36,-180"/>
<polygon fill="black" stroke="black" points="404.19,-183.5 414.19,-180 404.19,-176.5 404.19,-183.5"/>
</g>
<!-- 120 -->
<!-- name: &quot;bool&quot;, typeName: &quot;&quot;, id: 120, branchId: 0, recurseId: &#45;1, attributes: 512, notes: &quot;&quot; -->
<g id="node9" class="node">
<title>120</title>
<ellipse fill="none" stroke="black" cx="443.09" cy="-126" rx="27.61" ry="18"/>
<text text-anchor="middle" x="443.09" y="-120.58" font-family="Times New Roman,serif" font-size="14.00">bool</text>
</g>
<!-- 119&#45;&gt;120 -->
<g id="edge8" class="edge">
<title>119&#45;&gt;120</title>
<path fill="none" stroke="black" d="M285.42,-126C321.63,-126 370.5,-126 403.98,-126"/>
<polygon fill="black" stroke="black" points="403.62,-129.5 413.62,-126 403.62,-122.5 403.62,-129.5"/>
</g>
<!-- 122 -->
<!-- name: &quot;bool&quot;, typeName: &quot;&quot;, id: 122, branchId: 0, recurseId: &#45;1, attributes: 512, notes: &quot;&quot; -->
<g id="node11" class="node">
<title>122</title>
<ellipse fill="none" stroke="black" cx="443.09" cy="-72" rx="27.61" ry="18"/>
<text text-anchor="middle" x="443.09" y="-66.58" font-family="Times New Roman,serif" font-size="14.00">bool</text>
</g>
<!-- 121&#45;&gt;122 -->
<g id="edge10" class="edge">
<title>121&#45;&gt;122</title>
<path fill="none" stroke="black" d="M316.35,-72C346.37,-72 379.19,-72 403.77,-72"/>
<polygon fill="black" stroke="black" points="403.61,-75.5 413.61,-72 403.61,-68.5 403.61,-75.5"/>
</g>
<!-- 124 -->
<!-- name: &quot;float&quot;, typeName: &quot;&quot;, id: 124, branchId: 0, recurseId: &#45;1, attributes: 512, notes: &quot;&quot; -->
<g id="node13" class="node">
<title>124</title>
<ellipse fill="none" stroke="black" cx="443.09" cy="-18" rx="27.11" ry="18"/>
<text text-anchor="middle" x="443.09" y="-12.57" font-family="Times New Roman,serif" font-size="14.00">float</text>
</g>
<!-- 123&#45;&gt;124 -->
<g id="edge12" class="edge">
<title>123&#45;&gt;124</title>
<path fill="none" stroke="black" d="M339.29,-18C362.49,-18 385.71,-18 404.2,-18"/>
<polygon fill="black" stroke="black" points="404.1,-21.5 414.1,-18 404.1,-14.5 404.1,-21.5"/>
</g>
</g>
</svg>
