<?xml version="1.0" encoding="UTF-8" standalone="no"?>
<!DOCTYPE svg PUBLIC "-//W3C//DTD SVG 1.1//EN"
 "http://www.w3.org/Graphics/SVG/1.1/DTD/svg11.dtd">
<!-- Generated by graphviz version 12.2.1 (20241206.2353)
 -->
<!-- Title: AddActorPacket Pages: 1 -->
<svg width="2283pt" height="908pt"
 viewBox="0.00 0.00 2282.83 908.00" xmlns="http://www.w3.org/2000/svg" xmlns:xlink="http://www.w3.org/1999/xlink">
<g id="graph0" class="graph" transform="scale(1 1) rotate(0) translate(4 904)">
<title>AddActorPacket</title>
<polygon fill="white" stroke="none" points="-4,4 -4,-904 2278.83,-904 2278.83,4 -4,4"/>
<!-- 0 -->
<!-- name: &quot;AddActorPacket&quot;, typeName: &quot;&quot;, id: 0, branchId: 13, recurseId: &#45;1, attributes: 0, notes: &quot;&quot; -->
<g id="node1" class="node">
<title>0</title>
<ellipse fill="none" stroke="black" cx="72.34" cy="-585" rx="72.34" ry="18"/>
<text text-anchor="middle" x="72.34" y="-579.95" font-family="Times New Roman,serif" font-size="14.00">AddActorPacket</text>
</g>
<!-- 1 -->
<!-- name: &quot;Target Actor ID&quot;, typeName: &quot;ActorUniqueID&quot;, id: 1, branchId: 0, recurseId: &#45;1, attributes: 256, notes: &quot;&quot; -->
<g id="node2" class="node">
<title>1</title>
<ellipse fill="none" stroke="black" cx="463.36" cy="-875" rx="69.78" ry="18"/>
<text text-anchor="middle" x="463.36" y="-869.95" font-family="Times New Roman,serif" font-size="14.00">Target Actor ID</text>
</g>
<!-- 0&#45;&gt;1 -->
<g id="edge1" class="edge">
<title>0&#45;&gt;1</title>
<path fill="none" stroke="black" d="M76.27,-603.24C84.32,-647 110.97,-758.45 180.67,-814 237.68,-859.43 321.03,-872.91 382.28,-876.09"/>
<polygon fill="black" stroke="black" points="381.79,-879.57 391.93,-876.5 382.09,-872.58 381.79,-879.57"/>
</g>
<!-- 3 -->
<!-- name: &quot;Target Runtime ID&quot;, typeName: &quot;ActorRuntimeID&quot;, id: 3, branchId: 0, recurseId: &#45;1, attributes: 256, notes: &quot;&quot; -->
<g id="node4" class="node">
<title>3</title>
<ellipse fill="none" stroke="black" cx="463.36" cy="-817" rx="81.55" ry="18"/>
<text text-anchor="middle" x="463.36" y="-811.95" font-family="Times New Roman,serif" font-size="14.00">Target Runtime ID</text>
</g>
<!-- 0&#45;&gt;3 -->
<g id="edge3" class="edge">
<title>0&#45;&gt;3</title>
<path fill="none" stroke="black" d="M77.69,-603.22C88.05,-642.31 118.15,-734.13 180.67,-777 237.5,-815.97 316.05,-824.34 375.77,-823.9"/>
<polygon fill="black" stroke="black" points="375.61,-827.4 385.55,-823.73 375.5,-820.4 375.61,-827.4"/>
</g>
<!-- 5 -->
<!-- name: &quot;Actor Type&quot;, typeName: &quot;&quot;, id: 5, branchId: 0, recurseId: &#45;1, attributes: 0, notes: &quot;&quot; -->
<g id="node6" class="node">
<title>5</title>
<ellipse fill="none" stroke="black" cx="650.18" cy="-770" rx="52.38" ry="18"/>
<text text-anchor="middle" x="650.18" y="-764.95" font-family="Times New Roman,serif" font-size="14.00">Actor Type</text>
</g>
<!-- 0&#45;&gt;5 -->
<g id="edge5" class="edge">
<title>0&#45;&gt;5</title>
<path fill="none" stroke="black" d="M83.56,-602.85C100.16,-630.02 135.67,-681.19 180.67,-706 311.79,-778.3 493.89,-780.06 587.77,-775.1"/>
<polygon fill="black" stroke="black" points="587.76,-778.61 597.54,-774.54 587.35,-771.62 587.76,-778.61"/>
</g>
<!-- 7 -->
<!-- name: &quot;Position&quot;, typeName: &quot;Vec3&quot;, id: 7, branchId: 0, recurseId: &#45;1, attributes: 256, notes: &quot;&quot; -->
<g id="node8" class="node">
<title>7</title>
<ellipse fill="none" stroke="black" cx="463.36" cy="-712" rx="41.12" ry="18"/>
<text text-anchor="middle" x="463.36" y="-706.95" font-family="Times New Roman,serif" font-size="14.00">Position</text>
</g>
<!-- 0&#45;&gt;7 -->
<g id="edge7" class="edge">
<title>0&#45;&gt;7</title>
<path fill="none" stroke="black" d="M88.78,-602.79C108.02,-623.65 142.98,-657.48 180.67,-674 255.93,-707 352.48,-713.14 410.77,-713.41"/>
<polygon fill="black" stroke="black" points="410.74,-716.91 420.74,-713.39 410.73,-709.91 410.74,-716.91"/>
</g>
<!-- 9 -->
<!-- name: &quot;Velocity&quot;, typeName: &quot;Vec3&quot;, id: 9, branchId: 0, recurseId: &#45;1, attributes: 256, notes: &quot;&quot; -->
<g id="node10" class="node">
<title>9</title>
<ellipse fill="none" stroke="black" cx="650.18" cy="-662" rx="41.63" ry="18"/>
<text text-anchor="middle" x="650.18" y="-656.95" font-family="Times New Roman,serif" font-size="14.00">Velocity</text>
</g>
<!-- 0&#45;&gt;9 -->
<g id="edge9" class="edge">
<title>0&#45;&gt;9</title>
<path fill="none" stroke="black" d="M99.44,-602.04C120.45,-614.77 151.22,-631.24 180.67,-639 327.86,-677.78 509.86,-672.19 597.38,-666.35"/>
<polygon fill="black" stroke="black" points="597.6,-669.84 607.33,-665.65 597.11,-662.86 597.6,-669.84"/>
</g>
<!-- 11 -->
<!-- name: &quot;Rotation&quot;, typeName: &quot;Vec2&quot;, id: 11, branchId: 0, recurseId: &#45;1, attributes: 256, notes: &quot;&quot; -->
<g id="node12" class="node">
<title>11</title>
<ellipse fill="none" stroke="black" cx="263.24" cy="-612" rx="42.65" ry="18"/>
<text text-anchor="middle" x="263.24" y="-606.95" font-family="Times New Roman,serif" font-size="14.00">Rotation</text>
</g>
<!-- 0&#45;&gt;11 -->
<g id="edge11" class="edge">
<title>0&#45;&gt;11</title>
<path fill="none" stroke="black" d="M135.98,-593.95C160.32,-597.43 187.87,-601.37 211,-604.68"/>
<polygon fill="black" stroke="black" points="210.42,-608.13 220.81,-606.08 211.41,-601.2 210.42,-608.13"/>
</g>
<!-- 13 -->
<!-- name: &quot;Y Head Rotation&quot;, typeName: &quot;&quot;, id: 13, branchId: 0, recurseId: &#45;1, attributes: 0, notes: &quot;&quot; -->
<g id="node14" class="node">
<title>13</title>
<ellipse fill="none" stroke="black" cx="263.24" cy="-558" rx="73.87" ry="18"/>
<text text-anchor="middle" x="263.24" y="-552.95" font-family="Times New Roman,serif" font-size="14.00">Y Head Rotation</text>
</g>
<!-- 0&#45;&gt;13 -->
<g id="edge13" class="edge">
<title>0&#45;&gt;13</title>
<path fill="none" stroke="black" d="M135.98,-576.05C152.54,-573.68 170.58,-571.1 187.71,-568.65"/>
<polygon fill="black" stroke="black" points="187.9,-572.16 197.31,-567.28 186.91,-565.23 187.9,-572.16"/>
</g>
<!-- 15 -->
<!-- name: &quot;Y Body Rotation&quot;, typeName: &quot;&quot;, id: 15, branchId: 0, recurseId: &#45;1, attributes: 0, notes: &quot;&quot; -->
<g id="node16" class="node">
<title>15</title>
<ellipse fill="none" stroke="black" cx="263.24" cy="-504" rx="74.38" ry="18"/>
<text text-anchor="middle" x="263.24" y="-498.95" font-family="Times New Roman,serif" font-size="14.00">Y Body Rotation</text>
</g>
<!-- 0&#45;&gt;15 -->
<g id="edge15" class="edge">
<title>0&#45;&gt;15</title>
<path fill="none" stroke="black" d="M103.32,-568.43C124.54,-557.07 153.88,-542.1 180.67,-531 188.43,-527.78 196.73,-524.68 204.94,-521.78"/>
<polygon fill="black" stroke="black" points="205.89,-525.16 214.22,-518.61 203.62,-518.54 205.89,-525.16"/>
</g>
<!-- 17 -->
<!-- name: &quot;Attributes List&quot;, typeName: &quot;&quot;, id: 17, branchId: 0, recurseId: &#45;1, attributes: 8, notes: &quot;&quot; -->
<g id="node18" class="node">
<title>17</title>
<ellipse fill="none" stroke="black" cx="263.24" cy="-450" rx="64.66" ry="18"/>
<text text-anchor="middle" x="263.24" y="-444.95" font-family="Times New Roman,serif" font-size="14.00">Attributes List</text>
</g>
<!-- 0&#45;&gt;17 -->
<g id="edge17" class="edge">
<title>0&#45;&gt;17</title>
<path fill="none" stroke="black" d="M86.64,-567.12C105.21,-543.35 141.11,-501.48 180.67,-477 187.65,-472.68 195.39,-468.97 203.25,-465.81"/>
<polygon fill="black" stroke="black" points="204.4,-469.12 212.56,-462.36 201.97,-462.56 204.4,-469.12"/>
</g>
<!-- 29 -->
<!-- name: &quot;Actor Data&quot;, typeName: &quot;std::vector&lt;class std::unique_ptr&lt;class DataItem,struct std::default_delete&lt;class DataItem&gt; &gt;,class std::allocator&lt;class std::unique_ptr&lt;class DataItem,struct std::default_delete&lt;class DataItem&gt; &gt; &gt; &gt;&quot;, id: 29, branchId: 0, recurseId: &#45;1, attributes: 256, notes: &quot;&quot; -->
<g id="node30" class="node">
<title>29</title>
<ellipse fill="none" stroke="black" cx="263.24" cy="-342" rx="51.86" ry="18"/>
<text text-anchor="middle" x="263.24" y="-336.95" font-family="Times New Roman,serif" font-size="14.00">Actor Data</text>
</g>
<!-- 0&#45;&gt;29 -->
<g id="edge29" class="edge">
<title>0&#45;&gt;29</title>
<path fill="none" stroke="black" d="M83.52,-567.16C101.41,-536.42 140.44,-472.04 180.67,-423 197.27,-402.77 218.27,-382.01 234.8,-366.57"/>
<polygon fill="black" stroke="black" points="236.91,-369.39 241.88,-360.04 232.16,-364.25 236.91,-369.39"/>
</g>
<!-- 31 -->
<!-- name: &quot;Synched Properties&quot;, typeName: &quot;PropertySyncData&quot;, id: 31, branchId: 0, recurseId: &#45;1, attributes: 256, notes: &quot;&quot; -->
<g id="node32" class="node">
<title>31</title>
<ellipse fill="none" stroke="black" cx="263.24" cy="-180" rx="82.57" ry="18"/>
<text text-anchor="middle" x="263.24" y="-174.95" font-family="Times New Roman,serif" font-size="14.00">Synched Properties</text>
</g>
<!-- 0&#45;&gt;31 -->
<g id="edge31" class="edge">
<title>0&#45;&gt;31</title>
<path fill="none" stroke="black" d="M79.38,-566.87C94.32,-522.75 135.12,-406.71 180.67,-315 199.79,-276.51 226.12,-234.47 243.64,-207.7"/>
<polygon fill="black" stroke="black" points="246.47,-209.77 249.06,-199.5 240.63,-205.91 246.47,-209.77"/>
</g>
<!-- 33 -->
<!-- name: &quot;Actor Links&quot;, typeName: &quot;&quot;, id: 33, branchId: 0, recurseId: &#45;1, attributes: 8, notes: &quot;&quot; -->
<g id="node34" class="node">
<title>33</title>
<ellipse fill="none" stroke="black" cx="263.24" cy="-72" rx="55.45" ry="18"/>
<text text-anchor="middle" x="263.24" y="-66.95" font-family="Times New Roman,serif" font-size="14.00">Actor Links</text>
</g>
<!-- 0&#45;&gt;33 -->
<g id="edge33" class="edge">
<title>0&#45;&gt;33</title>
<path fill="none" stroke="black" d="M74.37,-566.86C78.6,-504.95 98.47,-297.84 180.67,-153 193.34,-130.68 213.86,-110.35 231.15,-95.64"/>
<polygon fill="black" stroke="black" points="233.18,-98.5 238.67,-89.44 228.73,-93.1 233.18,-98.5"/>
</g>
<!-- 2 -->
<!-- name: &quot;ActorUniqueID&quot;, typeName: &quot;&quot;, id: 2, branchId: 0, recurseId: &#45;1, attributes: 512, notes: &quot;&quot; -->
<g id="node3" class="node">
<title>2</title>
<ellipse fill="none" stroke="black" cx="1515.13" cy="-882" rx="68.75" ry="18"/>
<text text-anchor="middle" x="1515.13" y="-876.95" font-family="Times New Roman,serif" font-size="14.00">ActorUniqueID</text>
</g>
<!-- 1&#45;&gt;2 -->
<g id="edge2" class="edge">
<title>1&#45;&gt;2</title>
<path fill="none" stroke="black" d="M533.24,-875.46C720.07,-876.71 1235.72,-880.14 1434.53,-881.47"/>
<polygon fill="black" stroke="black" points="1434.49,-884.97 1444.51,-881.54 1434.54,-877.97 1434.49,-884.97"/>
</g>
<!-- 4 -->
<!-- name: &quot;ActorRuntimeID&quot;, typeName: &quot;&quot;, id: 4, branchId: 0, recurseId: &#45;1, attributes: 512, notes: &quot;&quot; -->
<g id="node5" class="node">
<title>4</title>
<ellipse fill="none" stroke="black" cx="1515.13" cy="-828" rx="73.87" ry="18"/>
<text text-anchor="middle" x="1515.13" y="-822.95" font-family="Times New Roman,serif" font-size="14.00">ActorRuntimeID</text>
</g>
<!-- 3&#45;&gt;4 -->
<g id="edge4" class="edge">
<title>3&#45;&gt;4</title>
<path fill="none" stroke="black" d="M544.99,-817.84C739.17,-819.88 1231.31,-825.04 1429.51,-827.11"/>
<polygon fill="black" stroke="black" points="1429.45,-830.61 1439.48,-827.22 1429.52,-823.61 1429.45,-830.61"/>
</g>
<!-- 6 -->
<!-- name: &quot;string&quot;, typeName: &quot;&quot;, id: 6, branchId: 0, recurseId: &#45;1, attributes: 512, notes: &quot;&quot; -->
<g id="node7" class="node">
<title>6</title>
<ellipse fill="none" stroke="black" cx="1515.13" cy="-774" rx="31.9" ry="18"/>
<text text-anchor="middle" x="1515.13" y="-768.95" font-family="Times New Roman,serif" font-size="14.00">string</text>
</g>
<!-- 5&#45;&gt;6 -->
<g id="edge6" class="edge">
<title>5&#45;&gt;6</title>
<path fill="none" stroke="black" d="M702.89,-770.24C859.75,-770.97 1328.15,-773.14 1471.79,-773.8"/>
<polygon fill="black" stroke="black" points="1471.59,-777.3 1481.6,-773.85 1471.62,-770.3 1471.59,-777.3"/>
</g>
<!-- 8 -->
<!-- name: &quot;Vec3&quot;, typeName: &quot;&quot;, id: 8, branchId: 0, recurseId: &#45;1, attributes: 512, notes: &quot;&quot; -->
<g id="node9" class="node">
<title>8</title>
<ellipse fill="none" stroke="black" cx="1515.13" cy="-720" rx="29.34" ry="18"/>
<text text-anchor="middle" x="1515.13" y="-714.95" font-family="Times New Roman,serif" font-size="14.00">Vec3</text>
</g>
<!-- 7&#45;&gt;8 -->
<g id="edge8" class="edge">
<title>7&#45;&gt;8</title>
<path fill="none" stroke="black" d="M504.87,-712.31C672.22,-713.58 1308.62,-718.43 1474.44,-719.7"/>
<polygon fill="black" stroke="black" points="1474.23,-723.2 1484.25,-719.77 1474.28,-716.2 1474.23,-723.2"/>
</g>
<!-- 10 -->
<!-- name: &quot;Vec3&quot;, typeName: &quot;&quot;, id: 10, branchId: 0, recurseId: &#45;1, attributes: 512, notes: &quot;&quot; -->
<g id="node11" class="node">
<title>10</title>
<ellipse fill="none" stroke="black" cx="1515.13" cy="-666" rx="29.34" ry="18"/>
<text text-anchor="middle" x="1515.13" y="-660.95" font-family="Times New Roman,serif" font-size="14.00">Vec3</text>
</g>
<!-- 9&#45;&gt;10 -->
<g id="edge10" class="edge">
<title>9&#45;&gt;10</title>
<path fill="none" stroke="black" d="M692.22,-662.19C838.01,-662.87 1329.93,-665.15 1474.11,-665.81"/>
<polygon fill="black" stroke="black" points="1473.9,-669.31 1483.91,-665.86 1473.93,-662.31 1473.9,-669.31"/>
</g>
<!-- 12 -->
<!-- name: &quot;Vec2&quot;, typeName: &quot;&quot;, id: 12, branchId: 0, recurseId: &#45;1, attributes: 512, notes: &quot;&quot; -->
<g id="node13" class="node">
<title>12</title>
<ellipse fill="none" stroke="black" cx="1515.13" cy="-612" rx="29.34" ry="18"/>
<text text-anchor="middle" x="1515.13" y="-606.95" font-family="Times New Roman,serif" font-size="14.00">Vec2</text>
</g>
<!-- 11&#45;&gt;12 -->
<g id="edge12" class="edge">
<title>11&#45;&gt;12</title>
<path fill="none" stroke="black" d="M306.19,-612C497.49,-612 1286.03,-612 1473.85,-612"/>
<polygon fill="black" stroke="black" points="1473.82,-615.5 1483.82,-612 1473.82,-608.5 1473.82,-615.5"/>
</g>
<!-- 14 -->
<!-- name: &quot;float&quot;, typeName: &quot;&quot;, id: 14, branchId: 0, recurseId: &#45;1, attributes: 512, notes: &quot;&quot; -->
<g id="node15" class="node">
<title>14</title>
<ellipse fill="none" stroke="black" cx="1515.13" cy="-558" rx="27.81" ry="18"/>
<text text-anchor="middle" x="1515.13" y="-552.95" font-family="Times New Roman,serif" font-size="14.00">float</text>
</g>
<!-- 13&#45;&gt;14 -->
<g id="edge14" class="edge">
<title>13&#45;&gt;14</title>
<path fill="none" stroke="black" d="M337.3,-558C571.6,-558 1299.1,-558 1475.37,-558"/>
<polygon fill="black" stroke="black" points="1475.36,-561.5 1485.36,-558 1475.36,-554.5 1475.36,-561.5"/>
</g>
<!-- 16 -->
<!-- name: &quot;float&quot;, typeName: &quot;&quot;, id: 16, branchId: 0, recurseId: &#45;1, attributes: 512, notes: &quot;&quot; -->
<g id="node17" class="node">
<title>16</title>
<ellipse fill="none" stroke="black" cx="1515.13" cy="-504" rx="27.81" ry="18"/>
<text text-anchor="middle" x="1515.13" y="-498.95" font-family="Times New Roman,serif" font-size="14.00">float</text>
</g>
<!-- 15&#45;&gt;16 -->
<g id="edge16" class="edge">
<title>15&#45;&gt;16</title>
<path fill="none" stroke="black" d="M337.76,-504C572.57,-504 1299.33,-504 1475.42,-504"/>
<polygon fill="black" stroke="black" points="1475.39,-507.5 1485.39,-504 1475.39,-500.5 1475.39,-507.5"/>
</g>
<!-- 18 -->
<!-- name: &quot;List Size&quot;, typeName: &quot;&quot;, id: 18, branchId: 0, recurseId: &#45;1, attributes: 0, notes: &quot;&quot; -->
<g id="node19" class="node">
<title>18</title>
<ellipse fill="none" stroke="black" cx="463.36" cy="-450" rx="43.67" ry="18"/>
<text text-anchor="middle" x="463.36" y="-444.95" font-family="Times New Roman,serif" font-size="14.00">List Size</text>
</g>
<!-- 17&#45;&gt;18 -->
<g id="edge18" class="edge">
<title>17&#45;&gt;18</title>
<path fill="none" stroke="black" d="M328.29,-450C354.06,-450 383.45,-450 408.14,-450"/>
<polygon fill="black" stroke="black" points="407.96,-453.5 417.96,-450 407.96,-446.5 407.96,-453.5"/>
</g>
<!-- 20 -->
<!-- name: &quot;example element&quot;, typeName: &quot;&quot;, id: 20, branchId: 0, recurseId: &#45;1, attributes: 16, notes: &quot;&quot; -->
<g id="node21" class="node">
<title>20</title>
<ellipse fill="none" stroke="black" stroke-dasharray="1,5" cx="463.36" cy="-342" rx="74.89" ry="18"/>
<text text-anchor="middle" x="463.36" y="-336.95" font-family="Times New Roman,serif" font-size="14.00">example element</text>
</g>
<!-- 17&#45;&gt;20 -->
<g id="edge20" class="edge">
<title>17&#45;&gt;20</title>
<path fill="none" stroke="black" d="M293.9,-433.83C327.99,-415.25 384.11,-384.66 422.12,-363.94"/>
<polygon fill="black" stroke="black" points="423.41,-367.22 430.52,-359.36 420.06,-361.07 423.41,-367.22"/>
</g>
<!-- 19 -->
<!-- name: &quot;unsigned varint&quot;, typeName: &quot;&quot;, id: 19, branchId: 0, recurseId: &#45;1, attributes: 512, notes: &quot;&quot; -->
<g id="node20" class="node">
<title>19</title>
<ellipse fill="none" stroke="black" cx="1515.13" cy="-450" rx="68.24" ry="18"/>
<text text-anchor="middle" x="1515.13" y="-444.95" font-family="Times New Roman,serif" font-size="14.00">unsigned varint</text>
</g>
<!-- 18&#45;&gt;19 -->
<g id="edge19" class="edge">
<title>18&#45;&gt;19</title>
<path fill="none" stroke="black" d="M507.47,-450C667.17,-450 1226.59,-450 1435.05,-450"/>
<polygon fill="black" stroke="black" points="1434.98,-453.5 1444.98,-450 1434.98,-446.5 1434.98,-453.5"/>
</g>
<!-- 21 -->
<!-- name: &quot;Attribute Name&quot;, typeName: &quot;&quot;, id: 21, branchId: 0, recurseId: &#45;1, attributes: 0, notes: &quot;&quot; -->
<g id="node22" class="node">
<title>21</title>
<ellipse fill="none" stroke="black" cx="650.18" cy="-396" rx="69.26" ry="18"/>
<text text-anchor="middle" x="650.18" y="-390.95" font-family="Times New Roman,serif" font-size="14.00">Attribute Name</text>
</g>
<!-- 20&#45;&gt;21 -->
<g id="edge21" class="edge">
<title>20&#45;&gt;21</title>
<path fill="none" stroke="black" d="M511.96,-355.91C536.47,-363.07 566.55,-371.86 592.28,-379.38"/>
<polygon fill="black" stroke="black" points="590.99,-382.64 601.57,-382.09 592.95,-375.93 590.99,-382.64"/>
</g>
<!-- 23 -->
<!-- name: &quot;Min Value&quot;, typeName: &quot;&quot;, id: 23, branchId: 0, recurseId: &#45;1, attributes: 0, notes: &quot;&quot; -->
<g id="node24" class="node">
<title>23</title>
<ellipse fill="none" stroke="black" cx="650.18" cy="-342" rx="49.82" ry="18"/>
<text text-anchor="middle" x="650.18" y="-336.95" font-family="Times New Roman,serif" font-size="14.00">Min Value</text>
</g>
<!-- 20&#45;&gt;23 -->
<g id="edge23" class="edge">
<title>20&#45;&gt;23</title>
<path fill="none" stroke="black" d="M538.73,-342C555.36,-342 572.8,-342 588.78,-342"/>
<polygon fill="black" stroke="black" points="588.61,-345.5 598.61,-342 588.61,-338.5 588.61,-345.5"/>
</g>
<!-- 25 -->
<!-- name: &quot;Current Value&quot;, typeName: &quot;&quot;, id: 25, branchId: 0, recurseId: &#45;1, attributes: 0, notes: &quot;&quot; -->
<g id="node26" class="node">
<title>25</title>
<ellipse fill="none" stroke="black" cx="650.18" cy="-288" rx="62.1" ry="18"/>
<text text-anchor="middle" x="650.18" y="-282.95" font-family="Times New Roman,serif" font-size="14.00">Current Value</text>
</g>
<!-- 20&#45;&gt;25 -->
<g id="edge25" class="edge">
<title>20&#45;&gt;25</title>
<path fill="none" stroke="black" d="M511.96,-328.09C537.13,-320.74 568.16,-311.67 594.34,-304.02"/>
<polygon fill="black" stroke="black" points="595.16,-307.43 603.78,-301.27 593.2,-300.71 595.16,-307.43"/>
</g>
<!-- 27 -->
<!-- name: &quot;Max Value&quot;, typeName: &quot;&quot;, id: 27, branchId: 0, recurseId: &#45;1, attributes: 0, notes: &quot;&quot; -->
<g id="node28" class="node">
<title>27</title>
<ellipse fill="none" stroke="black" cx="650.18" cy="-234" rx="51.35" ry="18"/>
<text text-anchor="middle" x="650.18" y="-228.95" font-family="Times New Roman,serif" font-size="14.00">Max Value</text>
</g>
<!-- 20&#45;&gt;27 -->
<g id="edge27" class="edge">
<title>20&#45;&gt;27</title>
<path fill="none" stroke="black" d="M486.15,-324.56C508.86,-306.95 545.94,-279.74 580.91,-261 587.63,-257.4 594.93,-254.01 602.18,-250.92"/>
<polygon fill="black" stroke="black" points="603.35,-254.23 611.29,-247.21 600.71,-247.75 603.35,-254.23"/>
</g>
<!-- 22 -->
<!-- name: &quot;string&quot;, typeName: &quot;&quot;, id: 22, branchId: 0, recurseId: &#45;1, attributes: 512, notes: &quot;&quot; -->
<g id="node23" class="node">
<title>22</title>
<ellipse fill="none" stroke="black" cx="1515.13" cy="-396" rx="31.9" ry="18"/>
<text text-anchor="middle" x="1515.13" y="-390.95" font-family="Times New Roman,serif" font-size="14.00">string</text>
</g>
<!-- 21&#45;&gt;22 -->
<g id="edge22" class="edge">
<title>21&#45;&gt;22</title>
<path fill="none" stroke="black" d="M719.61,-396C890.63,-396 1332.86,-396 1471.74,-396"/>
<polygon fill="black" stroke="black" points="1471.59,-399.5 1481.59,-396 1471.59,-392.5 1471.59,-399.5"/>
</g>
<!-- 24 -->
<!-- name: &quot;float&quot;, typeName: &quot;&quot;, id: 24, branchId: 0, recurseId: &#45;1, attributes: 512, notes: &quot;&quot; -->
<g id="node25" class="node">
<title>24</title>
<ellipse fill="none" stroke="black" cx="1515.13" cy="-342" rx="27.81" ry="18"/>
<text text-anchor="middle" x="1515.13" y="-336.95" font-family="Times New Roman,serif" font-size="14.00">float</text>
</g>
<!-- 23&#45;&gt;24 -->
<g id="edge24" class="edge">
<title>23&#45;&gt;24</title>
<path fill="none" stroke="black" d="M700.36,-342C856.09,-342 1336.28,-342 1475.77,-342"/>
<polygon fill="black" stroke="black" points="1475.57,-345.5 1485.57,-342 1475.57,-338.5 1475.57,-345.5"/>
</g>
<!-- 26 -->
<!-- name: &quot;float&quot;, typeName: &quot;&quot;, id: 26, branchId: 0, recurseId: &#45;1, attributes: 512, notes: &quot;&quot; -->
<g id="node27" class="node">
<title>26</title>
<ellipse fill="none" stroke="black" cx="1515.13" cy="-288" rx="27.81" ry="18"/>
<text text-anchor="middle" x="1515.13" y="-282.95" font-family="Times New Roman,serif" font-size="14.00">float</text>
</g>
<!-- 25&#45;&gt;26 -->
<g id="edge26" class="edge">
<title>25&#45;&gt;26</title>
<path fill="none" stroke="black" d="M712.55,-288C879.62,-288 1339.22,-288 1475.54,-288"/>
<polygon fill="black" stroke="black" points="1475.47,-291.5 1485.47,-288 1475.47,-284.5 1475.47,-291.5"/>
</g>
<!-- 28 -->
<!-- name: &quot;float&quot;, typeName: &quot;&quot;, id: 28, branchId: 0, recurseId: &#45;1, attributes: 512, notes: &quot;&quot; -->
<g id="node29" class="node">
<title>28</title>
<ellipse fill="none" stroke="black" cx="1515.13" cy="-234" rx="27.81" ry="18"/>
<text text-anchor="middle" x="1515.13" y="-228.95" font-family="Times New Roman,serif" font-size="14.00">float</text>
</g>
<!-- 27&#45;&gt;28 -->
<g id="edge28" class="edge">
<title>27&#45;&gt;28</title>
<path fill="none" stroke="black" d="M701.94,-234C859.39,-234 1337.23,-234 1475.98,-234"/>
<polygon fill="black" stroke="black" points="1475.72,-237.5 1485.72,-234 1475.72,-230.5 1475.72,-237.5"/>
</g>
<!-- 30 -->
<!-- name: &quot;std::vector&lt;class std::unique_ptr&lt;class DataItem,struct std::default_delete&lt;class DataItem&gt; &gt;,class std::allocator&lt;class std::unique_ptr&lt;class DataItem,struct std::default_delete&lt;class DataItem&gt; &gt; &gt; &gt;&quot;, typeName: &quot;&quot;, id: 30, branchId: 0, recurseId: &#45;1, attributes: 512, notes: &quot;&quot; -->
<g id="node31" class="node">
<title>30</title>
<ellipse fill="none" stroke="black" cx="1515.13" cy="-180" rx="759.69" ry="18"/>
<text text-anchor="middle" x="1515.13" y="-174.95" font-family="Times New Roman,serif" font-size="14.00">std::vector&lt;class std::unique_ptr&lt;class DataItem,struct std::default_delete&lt;class DataItem&gt; &gt;,class std::allocator&lt;class std::unique_ptr&lt;class DataItem,struct std::default_delete&lt;class DataItem&gt; &gt; &gt; &gt;</text>
</g>
<!-- 29&#45;&gt;30 -->
<g id="edge30" class="edge">
<title>29&#45;&gt;30</title>
<path fill="none" stroke="black" d="M291.04,-326.45C344.2,-296.56 467.66,-231.84 580.91,-207 806.57,-157.5 1070.25,-154.75 1259.65,-162.04"/>
<polygon fill="black" stroke="black" points="1259.24,-165.52 1269.37,-162.42 1259.52,-158.53 1259.24,-165.52"/>
</g>
<!-- 32 -->
<!-- name: &quot;PropertySyncData&quot;, typeName: &quot;&quot;, id: 32, branchId: 0, recurseId: &#45;1, attributes: 512, notes: &quot;&quot; -->
<g id="node33" class="node">
<title>32</title>
<ellipse fill="none" stroke="black" cx="1515.13" cy="-126" rx="78.48" ry="18"/>
<text text-anchor="middle" x="1515.13" y="-120.95" font-family="Times New Roman,serif" font-size="14.00">PropertySyncData</text>
</g>
<!-- 31&#45;&gt;32 -->
<g id="edge32" class="edge">
<title>31&#45;&gt;32</title>
<path fill="none" stroke="black" d="M334.71,-170.64C350.21,-168.85 366.55,-167.18 381.81,-166 769.57,-136.12 1233.78,-128.53 1425.07,-126.63"/>
<polygon fill="black" stroke="black" points="1424.96,-130.13 1434.93,-126.53 1424.9,-123.13 1424.96,-130.13"/>
</g>
<!-- 34 -->
<!-- name: &quot;List Size&quot;, typeName: &quot;&quot;, id: 34, branchId: 0, recurseId: &#45;1, attributes: 0, notes: &quot;&quot; -->
<g id="node35" class="node">
<title>34</title>
<ellipse fill="none" stroke="black" cx="463.36" cy="-72" rx="43.67" ry="18"/>
<text text-anchor="middle" x="463.36" y="-66.95" font-family="Times New Roman,serif" font-size="14.00">List Size</text>
</g>
<!-- 33&#45;&gt;34 -->
<g id="edge34" class="edge">
<title>33&#45;&gt;34</title>
<path fill="none" stroke="black" d="M319.17,-72C346.82,-72 380.25,-72 407.85,-72"/>
<polygon fill="black" stroke="black" points="407.77,-75.5 417.77,-72 407.77,-68.5 407.77,-75.5"/>
</g>
<!-- 36 -->
<!-- name: &quot;example element&quot;, typeName: &quot;&quot;, id: 36, branchId: 0, recurseId: &#45;1, attributes: 16, notes: &quot;&quot; -->
<g id="node37" class="node">
<title>36</title>
<ellipse fill="none" stroke="black" stroke-dasharray="1,5" cx="463.36" cy="-18" rx="74.89" ry="18"/>
<text text-anchor="middle" x="463.36" y="-12.95" font-family="Times New Roman,serif" font-size="14.00">example element</text>
</g>
<!-- 33&#45;&gt;36 -->
<g id="edge36" class="edge">
<title>33&#45;&gt;36</title>
<path fill="none" stroke="black" d="M306.74,-60.42C334.39,-52.88 370.87,-42.94 401.56,-34.57"/>
<polygon fill="black" stroke="black" points="402.4,-37.97 411.12,-31.97 400.55,-31.22 402.4,-37.97"/>
</g>
<!-- 35 -->
<!-- name: &quot;unsigned varint&quot;, typeName: &quot;&quot;, id: 35, branchId: 0, recurseId: &#45;1, attributes: 512, notes: &quot;&quot; -->
<g id="node36" class="node">
<title>35</title>
<ellipse fill="none" stroke="black" cx="1515.13" cy="-72" rx="68.24" ry="18"/>
<text text-anchor="middle" x="1515.13" y="-66.95" font-family="Times New Roman,serif" font-size="14.00">unsigned varint</text>
</g>
<!-- 34&#45;&gt;35 -->
<g id="edge35" class="edge">
<title>34&#45;&gt;35</title>
<path fill="none" stroke="black" d="M507.47,-72C667.17,-72 1226.59,-72 1435.05,-72"/>
<polygon fill="black" stroke="black" points="1434.98,-75.5 1444.98,-72 1434.98,-68.5 1434.98,-75.5"/>
</g>
<!-- 37 -->
<!-- name: &quot;Link&quot;, typeName: &quot;ActorLink&quot;, id: 37, branchId: 0, recurseId: &#45;1, attributes: 256, notes: &quot;&quot; -->
<g id="node38" class="node">
<title>37</title>
<ellipse fill="none" stroke="black" cx="650.18" cy="-18" rx="28.32" ry="18"/>
<text text-anchor="middle" x="650.18" y="-12.95" font-family="Times New Roman,serif" font-size="14.00">Link</text>
</g>
<!-- 36&#45;&gt;37 -->
<g id="edge37" class="edge">
<title>36&#45;&gt;37</title>
<path fill="none" stroke="black" d="M538.73,-18C563.33,-18 589.7,-18 610.51,-18"/>
<polygon fill="black" stroke="black" points="610.24,-21.5 620.24,-18 610.24,-14.5 610.24,-21.5"/>
</g>
<!-- 38 -->
<!-- name: &quot;ActorLink&quot;, typeName: &quot;&quot;, id: 38, branchId: 0, recurseId: &#45;1, attributes: 512, notes: &quot;&quot; -->
<g id="node39" class="node">
<title>38</title>
<ellipse fill="none" stroke="black" cx="1515.13" cy="-18" rx="49.3" ry="18"/>
<text text-anchor="middle" x="1515.13" y="-12.95" font-family="Times New Roman,serif" font-size="14.00">ActorLink</text>
</g>
<!-- 37&#45;&gt;38 -->
<g id="edge38" class="edge">
<title>37&#45;&gt;38</title>
<path fill="none" stroke="black" d="M678.91,-18C799.9,-18 1283.1,-18 1453.93,-18"/>
<polygon fill="black" stroke="black" points="1453.93,-21.5 1463.93,-18 1453.93,-14.5 1453.93,-21.5"/>
</g>
</g>
</svg>
