<?xml version="1.0" encoding="UTF-8" standalone="no"?>
<!DOCTYPE svg PUBLIC "-//W3C//DTD SVG 1.1//EN"
 "http://www.w3.org/Graphics/SVG/1.1/DTD/svg11.dtd">
<!-- Generated by graphviz version 2.46.1 (20210213.1702)
 -->
<!-- Title: AddActorPacket Pages: 1 -->
<svg width="2219pt" height="908pt"
 viewBox="0.00 0.00 2218.82 908.00" xmlns="http://www.w3.org/2000/svg" xmlns:xlink="http://www.w3.org/1999/xlink">
<g id="graph0" class="graph" transform="scale(1 1) rotate(0) translate(4 904)">
<title>AddActorPacket</title>
<polygon fill="white" stroke="transparent" points="-4,4 -4,-904 2214.82,-904 2214.82,4 -4,4"/>
<!-- 0 -->
<!-- name: &quot;AddActorPacket&quot;, typeName: &quot;&quot;, id: 0, branchId: 13, recurseId: &#45;1, attributes: 0, notes: &quot;&quot; -->
<g id="node1" class="node">
<title>0</title>
<ellipse fill="none" stroke="black" cx="72.14" cy="-585" rx="72.29" ry="18"/>
<text text-anchor="middle" x="72.14" y="-581.3" font-family="Times New Roman,serif" font-size="14.00">AddActorPacket</text>
</g>
<!-- 1 -->
<!-- name: &quot;Target Actor ID&quot;, typeName: &quot;ActorUniqueID&quot;, id: 1, branchId: 0, recurseId: &#45;1, attributes: 256, notes: &quot;&quot; -->
<g id="node2" class="node">
<title>1</title>
<ellipse fill="none" stroke="black" cx="458.72" cy="-875" rx="69.59" ry="18"/>
<text text-anchor="middle" x="458.72" y="-871.3" font-family="Times New Roman,serif" font-size="14.00">Target Actor ID</text>
</g>
<!-- 0&#45;&gt;1 -->
<g id="edge1" class="edge">
<title>0&#45;&gt;1</title>
<path fill="none" stroke="black" d="M76.07,-603.22C84.11,-646.96 110.71,-758.33 180.29,-814 236.44,-858.92 318.63,-872.46 378.98,-875.79"/>
<polygon fill="black" stroke="black" points="379.07,-879.3 389.22,-876.27 379.4,-872.31 379.07,-879.3"/>
</g>
<!-- 3 -->
<!-- name: &quot;Target Runtime ID&quot;, typeName: &quot;ActorRuntimeID&quot;, id: 3, branchId: 0, recurseId: &#45;1, attributes: 256, notes: &quot;&quot; -->
<g id="node4" class="node">
<title>3</title>
<ellipse fill="none" stroke="black" cx="458.72" cy="-817" rx="78.79" ry="18"/>
<text text-anchor="middle" x="458.72" y="-813.3" font-family="Times New Roman,serif" font-size="14.00">Target Runtime ID</text>
</g>
<!-- 0&#45;&gt;3 -->
<g id="edge3" class="edge">
<title>0&#45;&gt;3</title>
<path fill="none" stroke="black" d="M77.48,-603.21C87.82,-642.27 117.86,-734.06 180.29,-777 237.04,-816.04 315.86,-824.13 374.99,-823.57"/>
<polygon fill="black" stroke="black" points="375.11,-827.07 385.04,-823.39 374.98,-820.07 375.11,-827.07"/>
</g>
<!-- 5 -->
<!-- name: &quot;Actor Type&quot;, typeName: &quot;&quot;, id: 5, branchId: 0, recurseId: &#45;1, attributes: 0, notes: &quot;&quot; -->
<g id="node6" class="node">
<title>5</title>
<ellipse fill="none" stroke="black" cx="639" cy="-770" rx="53.09" ry="18"/>
<text text-anchor="middle" x="639" y="-766.3" font-family="Times New Roman,serif" font-size="14.00">Actor Type</text>
</g>
<!-- 0&#45;&gt;5 -->
<g id="edge5" class="edge">
<title>0&#45;&gt;5</title>
<path fill="none" stroke="black" d="M83.35,-602.85C99.91,-630 135.35,-681.16 180.29,-706 307.75,-776.44 484.56,-779.17 576.66,-774.79"/>
<polygon fill="black" stroke="black" points="577.12,-778.27 586.93,-774.26 576.76,-771.28 577.12,-778.27"/>
</g>
<!-- 7 -->
<!-- name: &quot;Position&quot;, typeName: &quot;Vec3&quot;, id: 7, branchId: 0, recurseId: &#45;1, attributes: 256, notes: &quot;&quot; -->
<g id="node8" class="node">
<title>7</title>
<ellipse fill="none" stroke="black" cx="458.72" cy="-712" rx="40.09" ry="18"/>
<text text-anchor="middle" x="458.72" y="-708.3" font-family="Times New Roman,serif" font-size="14.00">Position</text>
</g>
<!-- 0&#45;&gt;7 -->
<g id="edge7" class="edge">
<title>0&#45;&gt;7</title>
<path fill="none" stroke="black" d="M88.56,-602.78C107.76,-623.63 142.66,-657.44 180.29,-674 254.85,-706.82 350.67,-712.95 407.97,-713.28"/>
<polygon fill="black" stroke="black" points="408.2,-716.78 418.2,-713.28 408.2,-709.78 408.2,-716.78"/>
</g>
<!-- 9 -->
<!-- name: &quot;Velocity&quot;, typeName: &quot;Vec3&quot;, id: 9, branchId: 0, recurseId: &#45;1, attributes: 256, notes: &quot;&quot; -->
<g id="node10" class="node">
<title>9</title>
<ellipse fill="none" stroke="black" cx="639" cy="-662" rx="40.89" ry="18"/>
<text text-anchor="middle" x="639" y="-658.3" font-family="Times New Roman,serif" font-size="14.00">Velocity</text>
</g>
<!-- 0&#45;&gt;9 -->
<g id="edge9" class="edge">
<title>0&#45;&gt;9</title>
<path fill="none" stroke="black" d="M98.77,-601.77C119.75,-614.53 150.68,-631.17 180.29,-639 324.65,-677.17 503.34,-671.74 588.44,-666.12"/>
<polygon fill="black" stroke="black" points="588.86,-669.6 598.59,-665.42 588.37,-662.61 588.86,-669.6"/>
</g>
<!-- 11 -->
<!-- name: &quot;Rotation&quot;, typeName: &quot;Vec2&quot;, id: 11, branchId: 0, recurseId: &#45;1, attributes: 256, notes: &quot;&quot; -->
<g id="node12" class="node">
<title>11</title>
<ellipse fill="none" stroke="black" cx="262.18" cy="-612" rx="42.49" ry="18"/>
<text text-anchor="middle" x="262.18" y="-608.3" font-family="Times New Roman,serif" font-size="14.00">Rotation</text>
</g>
<!-- 0&#45;&gt;11 -->
<g id="edge11" class="edge">
<title>0&#45;&gt;11</title>
<path fill="none" stroke="black" d="M134.97,-593.88C159.87,-597.45 188.19,-601.52 211.69,-604.89"/>
<polygon fill="black" stroke="black" points="211.38,-608.38 221.77,-606.34 212.37,-601.46 211.38,-608.38"/>
</g>
<!-- 13 -->
<!-- name: &quot;Y Head Rotation&quot;, typeName: &quot;&quot;, id: 13, branchId: 0, recurseId: &#45;1, attributes: 0, notes: &quot;&quot; -->
<g id="node14" class="node">
<title>13</title>
<ellipse fill="none" stroke="black" cx="262.18" cy="-558" rx="72.29" ry="18"/>
<text text-anchor="middle" x="262.18" y="-554.3" font-family="Times New Roman,serif" font-size="14.00">Y Head Rotation</text>
</g>
<!-- 0&#45;&gt;13 -->
<g id="edge13" class="edge">
<title>0&#45;&gt;13</title>
<path fill="none" stroke="black" d="M134.97,-576.12C152.24,-573.64 171.16,-570.93 188.97,-568.37"/>
<polygon fill="black" stroke="black" points="189.91,-571.77 199.31,-566.88 188.92,-564.84 189.91,-571.77"/>
</g>
<!-- 15 -->
<!-- name: &quot;Y Body Rotation&quot;, typeName: &quot;&quot;, id: 15, branchId: 0, recurseId: &#45;1, attributes: 0, notes: &quot;&quot; -->
<g id="node16" class="node">
<title>15</title>
<ellipse fill="none" stroke="black" cx="262.18" cy="-504" rx="73.39" ry="18"/>
<text text-anchor="middle" x="262.18" y="-500.3" font-family="Times New Roman,serif" font-size="14.00">Y Body Rotation</text>
</g>
<!-- 0&#45;&gt;15 -->
<g id="edge15" class="edge">
<title>0&#45;&gt;15</title>
<path fill="none" stroke="black" d="M103.08,-568.45C124.27,-557.09 153.56,-542.13 180.29,-531 188.43,-527.61 197.16,-524.34 205.77,-521.31"/>
<polygon fill="black" stroke="black" points="207.08,-524.56 215.4,-518 204.81,-517.94 207.08,-524.56"/>
</g>
<!-- 17 -->
<!-- name: &quot;Attributes List&quot;, typeName: &quot;&quot;, id: 17, branchId: 0, recurseId: &#45;1, attributes: 8, notes: &quot;&quot; -->
<g id="node18" class="node">
<title>17</title>
<ellipse fill="none" stroke="black" cx="262.18" cy="-450" rx="62.29" ry="18"/>
<text text-anchor="middle" x="262.18" y="-446.3" font-family="Times New Roman,serif" font-size="14.00">Attributes List</text>
</g>
<!-- 0&#45;&gt;17 -->
<g id="edge17" class="edge">
<title>0&#45;&gt;17</title>
<path fill="none" stroke="black" d="M86.42,-567.14C104.96,-543.37 140.8,-501.52 180.29,-477 187.78,-472.35 196.17,-468.4 204.63,-465.07"/>
<polygon fill="black" stroke="black" points="205.97,-468.31 214.16,-461.59 203.57,-461.73 205.97,-468.31"/>
</g>
<!-- 29 -->
<!-- name: &quot;Actor Data&quot;, typeName: &quot;std::vector&lt;class std::unique_ptr&lt;class DataItem,struct std::default_delete&lt;class DataItem&gt; &gt;,class std::allocator&lt;class std::unique_ptr&lt;class DataItem,struct std::default_delete&lt;class DataItem&gt; &gt; &gt; &gt;&quot;, id: 29, branchId: 0, recurseId: &#45;1, attributes: 256, notes: &quot;&quot; -->
<g id="node30" class="node">
<title>29</title>
<ellipse fill="none" stroke="black" cx="262.18" cy="-342" rx="50.89" ry="18"/>
<text text-anchor="middle" x="262.18" y="-338.3" font-family="Times New Roman,serif" font-size="14.00">Actor Data</text>
</g>
<!-- 0&#45;&gt;29 -->
<g id="edge29" class="edge">
<title>0&#45;&gt;29</title>
<path fill="none" stroke="black" d="M83.32,-567.18C101.21,-536.46 140.2,-472.11 180.29,-423 197.03,-402.49 218.25,-381.39 234.75,-365.88"/>
<polygon fill="black" stroke="black" points="237.5,-368.1 242.44,-358.73 232.73,-362.98 237.5,-368.1"/>
</g>
<!-- 31 -->
<!-- name: &quot;Synched Properties&quot;, typeName: &quot;PropertySyncData&quot;, id: 31, branchId: 0, recurseId: &#45;1, attributes: 256, notes: &quot;&quot; -->
<g id="node32" class="node">
<title>31</title>
<ellipse fill="none" stroke="black" cx="262.18" cy="-180" rx="81.79" ry="18"/>
<text text-anchor="middle" x="262.18" y="-176.3" font-family="Times New Roman,serif" font-size="14.00">Synched Properties</text>
</g>
<!-- 0&#45;&gt;31 -->
<g id="edge31" class="edge">
<title>0&#45;&gt;31</title>
<path fill="none" stroke="black" d="M79.19,-566.88C94.14,-522.78 134.95,-406.79 180.29,-315 199.64,-275.82 226.38,-232.91 243.73,-206.22"/>
<polygon fill="black" stroke="black" points="246.68,-208.1 249.23,-197.82 240.82,-204.27 246.68,-208.1"/>
</g>
<!-- 33 -->
<!-- name: &quot;Actor Links&quot;, typeName: &quot;&quot;, id: 33, branchId: 0, recurseId: &#45;1, attributes: 8, notes: &quot;&quot; -->
<g id="node34" class="node">
<title>33</title>
<ellipse fill="none" stroke="black" cx="262.18" cy="-72" rx="53.89" ry="18"/>
<text text-anchor="middle" x="262.18" y="-68.3" font-family="Times New Roman,serif" font-size="14.00">Actor Links</text>
</g>
<!-- 0&#45;&gt;33 -->
<g id="edge33" class="edge">
<title>0&#45;&gt;33</title>
<path fill="none" stroke="black" d="M74.19,-566.87C78.46,-505.01 98.43,-298.01 180.29,-153 192.97,-130.54 213.58,-110.04 230.82,-95.28"/>
<polygon fill="black" stroke="black" points="233.51,-97.6 238.96,-88.51 229.04,-92.21 233.51,-97.6"/>
</g>
<!-- 2 -->
<!-- name: &quot;ActorUniqueID&quot;, typeName: &quot;&quot;, id: 2, branchId: 0, recurseId: &#45;1, attributes: 512, notes: &quot;&quot; -->
<g id="node3" class="node">
<title>2</title>
<ellipse fill="none" stroke="black" cx="1475.73" cy="-882" rx="66.89" ry="18"/>
<text text-anchor="middle" x="1475.73" y="-878.3" font-family="Times New Roman,serif" font-size="14.00">ActorUniqueID</text>
</g>
<!-- 1&#45;&gt;2 -->
<g id="edge2" class="edge">
<title>1&#45;&gt;2</title>
<path fill="none" stroke="black" d="M528.29,-875.47C710.75,-876.73 1207.25,-880.16 1398.35,-881.47"/>
<polygon fill="black" stroke="black" points="1398.56,-884.97 1408.58,-881.54 1398.61,-877.97 1398.56,-884.97"/>
</g>
<!-- 4 -->
<!-- name: &quot;ActorRuntimeID&quot;, typeName: &quot;&quot;, id: 4, branchId: 0, recurseId: &#45;1, attributes: 512, notes: &quot;&quot; -->
<g id="node5" class="node">
<title>4</title>
<ellipse fill="none" stroke="black" cx="1475.73" cy="-828" rx="71.49" ry="18"/>
<text text-anchor="middle" x="1475.73" y="-824.3" font-family="Times New Roman,serif" font-size="14.00">ActorRuntimeID</text>
</g>
<!-- 3&#45;&gt;4 -->
<g id="edge4" class="edge">
<title>3&#45;&gt;4</title>
<path fill="none" stroke="black" d="M537.68,-817.84C725.71,-819.88 1202.69,-825.05 1393.76,-827.12"/>
<polygon fill="black" stroke="black" points="1393.98,-830.62 1404.01,-827.23 1394.05,-823.63 1393.98,-830.62"/>
</g>
<!-- 6 -->
<!-- name: &quot;string&quot;, typeName: &quot;&quot;, id: 6, branchId: 0, recurseId: &#45;1, attributes: 512, notes: &quot;&quot; -->
<g id="node7" class="node">
<title>6</title>
<ellipse fill="none" stroke="black" cx="1475.73" cy="-774" rx="30.59" ry="18"/>
<text text-anchor="middle" x="1475.73" y="-770.3" font-family="Times New Roman,serif" font-size="14.00">string</text>
</g>
<!-- 5&#45;&gt;6 -->
<g id="edge6" class="edge">
<title>5&#45;&gt;6</title>
<path fill="none" stroke="black" d="M692.54,-770.25C847.13,-770.99 1298.17,-773.15 1434.95,-773.81"/>
<polygon fill="black" stroke="black" points="1434.98,-777.31 1444.99,-773.86 1435.01,-770.31 1434.98,-777.31"/>
</g>
<!-- 8 -->
<!-- name: &quot;Vec3&quot;, typeName: &quot;&quot;, id: 8, branchId: 0, recurseId: &#45;1, attributes: 512, notes: &quot;&quot; -->
<g id="node9" class="node">
<title>8</title>
<ellipse fill="none" stroke="black" cx="1475.73" cy="-720" rx="29.8" ry="18"/>
<text text-anchor="middle" x="1475.73" y="-716.3" font-family="Times New Roman,serif" font-size="14.00">Vec3</text>
</g>
<!-- 7&#45;&gt;8 -->
<g id="edge8" class="edge">
<title>7&#45;&gt;8</title>
<path fill="none" stroke="black" d="M499.19,-712.31C661.02,-713.59 1272.66,-718.41 1434.98,-719.69"/>
<polygon fill="black" stroke="black" points="1435.42,-723.19 1445.45,-719.77 1435.48,-716.19 1435.42,-723.19"/>
</g>
<!-- 10 -->
<!-- name: &quot;Vec3&quot;, typeName: &quot;&quot;, id: 10, branchId: 0, recurseId: &#45;1, attributes: 512, notes: &quot;&quot; -->
<g id="node11" class="node">
<title>10</title>
<ellipse fill="none" stroke="black" cx="1475.73" cy="-666" rx="29.8" ry="18"/>
<text text-anchor="middle" x="1475.73" y="-662.3" font-family="Times New Roman,serif" font-size="14.00">Vec3</text>
</g>
<!-- 9&#45;&gt;10 -->
<g id="edge10" class="edge">
<title>9&#45;&gt;10</title>
<path fill="none" stroke="black" d="M679.98,-662.19C821.18,-662.87 1295.45,-665.14 1435.49,-665.81"/>
<polygon fill="black" stroke="black" points="1435.72,-669.31 1445.74,-665.86 1435.76,-662.31 1435.72,-669.31"/>
</g>
<!-- 12 -->
<!-- name: &quot;Vec2&quot;, typeName: &quot;&quot;, id: 12, branchId: 0, recurseId: &#45;1, attributes: 512, notes: &quot;&quot; -->
<g id="node13" class="node">
<title>12</title>
<ellipse fill="none" stroke="black" cx="1475.73" cy="-612" rx="29.8" ry="18"/>
<text text-anchor="middle" x="1475.73" y="-608.3" font-family="Times New Roman,serif" font-size="14.00">Vec2</text>
</g>
<!-- 11&#45;&gt;12 -->
<g id="edge12" class="edge">
<title>11&#45;&gt;12</title>
<path fill="none" stroke="black" d="M304.53,-612C491.17,-612 1253.8,-612 1435.66,-612"/>
<polygon fill="black" stroke="black" points="1435.83,-615.5 1445.83,-612 1435.83,-608.5 1435.83,-615.5"/>
</g>
<!-- 14 -->
<!-- name: &quot;float&quot;, typeName: &quot;&quot;, id: 14, branchId: 0, recurseId: &#45;1, attributes: 512, notes: &quot;&quot; -->
<g id="node15" class="node">
<title>14</title>
<ellipse fill="none" stroke="black" cx="1475.73" cy="-558" rx="27" ry="18"/>
<text text-anchor="middle" x="1475.73" y="-554.3" font-family="Times New Roman,serif" font-size="14.00">float</text>
</g>
<!-- 13&#45;&gt;14 -->
<g id="edge14" class="edge">
<title>13&#45;&gt;14</title>
<path fill="none" stroke="black" d="M334.44,-558C562.62,-558 1270.11,-558 1438.49,-558"/>
<polygon fill="black" stroke="black" points="1438.57,-561.5 1448.57,-558 1438.57,-554.5 1438.57,-561.5"/>
</g>
<!-- 16 -->
<!-- name: &quot;float&quot;, typeName: &quot;&quot;, id: 16, branchId: 0, recurseId: &#45;1, attributes: 512, notes: &quot;&quot; -->
<g id="node17" class="node">
<title>16</title>
<ellipse fill="none" stroke="black" cx="1475.73" cy="-504" rx="27" ry="18"/>
<text text-anchor="middle" x="1475.73" y="-500.3" font-family="Times New Roman,serif" font-size="14.00">float</text>
</g>
<!-- 15&#45;&gt;16 -->
<g id="edge16" class="edge">
<title>15&#45;&gt;16</title>
<path fill="none" stroke="black" d="M335.79,-504C565.44,-504 1270.77,-504 1438.61,-504"/>
<polygon fill="black" stroke="black" points="1438.66,-507.5 1448.66,-504 1438.66,-500.5 1438.66,-507.5"/>
</g>
<!-- 18 -->
<!-- name: &quot;Array Size&quot;, typeName: &quot;&quot;, id: 18, branchId: 0, recurseId: &#45;1, attributes: 0, notes: &quot;&quot; -->
<g id="node19" class="node">
<title>18</title>
<ellipse fill="none" stroke="black" cx="458.72" cy="-450" rx="48.99" ry="18"/>
<text text-anchor="middle" x="458.72" y="-446.3" font-family="Times New Roman,serif" font-size="14.00">Array Size</text>
</g>
<!-- 17&#45;&gt;18 -->
<g id="edge18" class="edge">
<title>17&#45;&gt;18</title>
<path fill="none" stroke="black" d="M324.73,-450C348.68,-450 375.99,-450 399.6,-450"/>
<polygon fill="black" stroke="black" points="399.82,-453.5 409.82,-450 399.82,-446.5 399.82,-453.5"/>
</g>
<!-- 20 -->
<!-- name: &quot;example element&quot;, typeName: &quot;&quot;, id: 20, branchId: 0, recurseId: &#45;1, attributes: 16, notes: &quot;&quot; -->
<g id="node21" class="node">
<title>20</title>
<ellipse fill="none" stroke="black" stroke-dasharray="1,5" cx="458.72" cy="-342" rx="70.39" ry="18"/>
<text text-anchor="middle" x="458.72" y="-338.3" font-family="Times New Roman,serif" font-size="14.00">example element</text>
</g>
<!-- 17&#45;&gt;20 -->
<g id="edge20" class="edge">
<title>17&#45;&gt;20</title>
<path fill="none" stroke="black" d="M291.88,-434.06C325.6,-415.35 381.67,-384.22 419.15,-363.41"/>
<polygon fill="black" stroke="black" points="421.21,-366.27 428.26,-358.36 417.81,-360.15 421.21,-366.27"/>
</g>
<!-- 19 -->
<!-- name: &quot;unsigned varint&quot;, typeName: &quot;&quot;, id: 19, branchId: 0, recurseId: &#45;1, attributes: 512, notes: &quot;&quot; -->
<g id="node20" class="node">
<title>19</title>
<ellipse fill="none" stroke="black" cx="1475.73" cy="-450" rx="65.79" ry="18"/>
<text text-anchor="middle" x="1475.73" y="-446.3" font-family="Times New Roman,serif" font-size="14.00">unsigned varint</text>
</g>
<!-- 18&#45;&gt;19 -->
<g id="edge19" class="edge">
<title>18&#45;&gt;19</title>
<path fill="none" stroke="black" d="M507.65,-450C670.27,-450 1201.83,-450 1399.66,-450"/>
<polygon fill="black" stroke="black" points="1399.96,-453.5 1409.96,-450 1399.96,-446.5 1399.96,-453.5"/>
</g>
<!-- 21 -->
<!-- name: &quot;Attribute Name&quot;, typeName: &quot;&quot;, id: 21, branchId: 0, recurseId: &#45;1, attributes: 0, notes: &quot;&quot; -->
<g id="node22" class="node">
<title>21</title>
<ellipse fill="none" stroke="black" cx="639" cy="-396" rx="65.79" ry="18"/>
<text text-anchor="middle" x="639" y="-392.3" font-family="Times New Roman,serif" font-size="14.00">Attribute Name</text>
</g>
<!-- 20&#45;&gt;21 -->
<g id="edge21" class="edge">
<title>20&#45;&gt;21</title>
<path fill="none" stroke="black" d="M504.71,-355.63C528.93,-362.96 558.97,-372.06 584.4,-379.77"/>
<polygon fill="black" stroke="black" points="583.68,-383.2 594.26,-382.75 585.7,-376.5 583.68,-383.2"/>
</g>
<!-- 23 -->
<!-- name: &quot;Min Value&quot;, typeName: &quot;&quot;, id: 23, branchId: 0, recurseId: &#45;1, attributes: 0, notes: &quot;&quot; -->
<g id="node24" class="node">
<title>23</title>
<ellipse fill="none" stroke="black" cx="639" cy="-342" rx="48.19" ry="18"/>
<text text-anchor="middle" x="639" y="-338.3" font-family="Times New Roman,serif" font-size="14.00">Min Value</text>
</g>
<!-- 20&#45;&gt;23 -->
<g id="edge23" class="edge">
<title>20&#45;&gt;23</title>
<path fill="none" stroke="black" d="M529.16,-342C546.08,-342 564,-342 580.31,-342"/>
<polygon fill="black" stroke="black" points="580.77,-345.5 590.77,-342 580.77,-338.5 580.77,-345.5"/>
</g>
<!-- 25 -->
<!-- name: &quot;Current Value&quot;, typeName: &quot;&quot;, id: 25, branchId: 0, recurseId: &#45;1, attributes: 0, notes: &quot;&quot; -->
<g id="node26" class="node">
<title>25</title>
<ellipse fill="none" stroke="black" cx="639" cy="-288" rx="61.19" ry="18"/>
<text text-anchor="middle" x="639" y="-284.3" font-family="Times New Roman,serif" font-size="14.00">Current Value</text>
</g>
<!-- 20&#45;&gt;25 -->
<g id="edge25" class="edge">
<title>20&#45;&gt;25</title>
<path fill="none" stroke="black" d="M504.71,-328.37C529.49,-320.87 560.38,-311.51 586.17,-303.7"/>
<polygon fill="black" stroke="black" points="587.23,-307.04 595.79,-300.79 585.2,-300.34 587.23,-307.04"/>
</g>
<!-- 27 -->
<!-- name: &quot;Max Value&quot;, typeName: &quot;&quot;, id: 27, branchId: 0, recurseId: &#45;1, attributes: 0, notes: &quot;&quot; -->
<g id="node28" class="node">
<title>27</title>
<ellipse fill="none" stroke="black" cx="639" cy="-234" rx="50.09" ry="18"/>
<text text-anchor="middle" x="639" y="-230.3" font-family="Times New Roman,serif" font-size="14.00">Max Value</text>
</g>
<!-- 20&#45;&gt;27 -->
<g id="edge27" class="edge">
<title>20&#45;&gt;27</title>
<path fill="none" stroke="black" d="M480.97,-324.65C503.11,-307.11 539.27,-279.96 573.36,-261 579.86,-257.38 586.95,-253.95 593.97,-250.83"/>
<polygon fill="black" stroke="black" points="595.63,-253.92 603.44,-246.76 592.87,-247.49 595.63,-253.92"/>
</g>
<!-- 22 -->
<!-- name: &quot;string&quot;, typeName: &quot;&quot;, id: 22, branchId: 0, recurseId: &#45;1, attributes: 512, notes: &quot;&quot; -->
<g id="node23" class="node">
<title>22</title>
<ellipse fill="none" stroke="black" cx="1475.73" cy="-396" rx="30.59" ry="18"/>
<text text-anchor="middle" x="1475.73" y="-392.3" font-family="Times New Roman,serif" font-size="14.00">string</text>
</g>
<!-- 21&#45;&gt;22 -->
<g id="edge22" class="edge">
<title>21&#45;&gt;22</title>
<path fill="none" stroke="black" d="M704.81,-396C869.65,-396 1301.32,-396 1434.81,-396"/>
<polygon fill="black" stroke="black" points="1434.99,-399.5 1444.99,-396 1434.99,-392.5 1434.99,-399.5"/>
</g>
<!-- 24 -->
<!-- name: &quot;float&quot;, typeName: &quot;&quot;, id: 24, branchId: 0, recurseId: &#45;1, attributes: 512, notes: &quot;&quot; -->
<g id="node25" class="node">
<title>24</title>
<ellipse fill="none" stroke="black" cx="1475.73" cy="-342" rx="27" ry="18"/>
<text text-anchor="middle" x="1475.73" y="-338.3" font-family="Times New Roman,serif" font-size="14.00">float</text>
</g>
<!-- 23&#45;&gt;24 -->
<g id="edge24" class="edge">
<title>23&#45;&gt;24</title>
<path fill="none" stroke="black" d="M687.27,-342C837.88,-342 1304.39,-342 1438.39,-342"/>
<polygon fill="black" stroke="black" points="1438.54,-345.5 1448.54,-342 1438.54,-338.5 1438.54,-345.5"/>
</g>
<!-- 26 -->
<!-- name: &quot;float&quot;, typeName: &quot;&quot;, id: 26, branchId: 0, recurseId: &#45;1, attributes: 512, notes: &quot;&quot; -->
<g id="node27" class="node">
<title>26</title>
<ellipse fill="none" stroke="black" cx="1475.73" cy="-288" rx="27" ry="18"/>
<text text-anchor="middle" x="1475.73" y="-284.3" font-family="Times New Roman,serif" font-size="14.00">float</text>
</g>
<!-- 25&#45;&gt;26 -->
<g id="edge26" class="edge">
<title>25&#45;&gt;26</title>
<path fill="none" stroke="black" d="M700.37,-288C863.19,-288 1307.88,-288 1438.31,-288"/>
<polygon fill="black" stroke="black" points="1438.55,-291.5 1448.55,-288 1438.55,-284.5 1438.55,-291.5"/>
</g>
<!-- 28 -->
<!-- name: &quot;float&quot;, typeName: &quot;&quot;, id: 28, branchId: 0, recurseId: &#45;1, attributes: 512, notes: &quot;&quot; -->
<g id="node29" class="node">
<title>28</title>
<ellipse fill="none" stroke="black" cx="1475.73" cy="-234" rx="27" ry="18"/>
<text text-anchor="middle" x="1475.73" y="-230.3" font-family="Times New Roman,serif" font-size="14.00">float</text>
</g>
<!-- 27&#45;&gt;28 -->
<g id="edge28" class="edge">
<title>27&#45;&gt;28</title>
<path fill="none" stroke="black" d="M689.1,-234C841.71,-234 1305.47,-234 1438.63,-234"/>
<polygon fill="black" stroke="black" points="1438.71,-237.5 1448.71,-234 1438.71,-230.5 1438.71,-237.5"/>
</g>
<!-- 30 -->
<!-- name: &quot;std::vector&lt;class std::unique_ptr&lt;class DataItem,struct std::default_delete&lt;class DataItem&gt; &gt;,class std::allocator&lt;class std::unique_ptr&lt;class DataItem,struct std::default_delete&lt;class DataItem&gt; &gt; &gt; &gt;&quot;, typeName: &quot;&quot;, id: 30, branchId: 0, recurseId: &#45;1, attributes: 512, notes: &quot;&quot; -->
<g id="node31" class="node">
<title>30</title>
<ellipse fill="none" stroke="black" cx="1475.73" cy="-180" rx="735.17" ry="18"/>
<text text-anchor="middle" x="1475.73" y="-176.3" font-family="Times New Roman,serif" font-size="14.00">std::vector&lt;class std::unique_ptr&lt;class DataItem,struct std::default_delete&lt;class DataItem&gt; &gt;,class std::allocator&lt;class std::unique_ptr&lt;class DataItem,struct std::default_delete&lt;class DataItem&gt; &gt; &gt; &gt;</text>
</g>
<!-- 29&#45;&gt;30 -->
<g id="edge30" class="edge">
<title>29&#45;&gt;30</title>
<path fill="none" stroke="black" d="M288.98,-326.69C340.75,-296.92 461.89,-231.95 573.36,-207 791.63,-158.14 1047.02,-155.41 1230.11,-162.53"/>
<polygon fill="black" stroke="black" points="1230.01,-166.03 1240.14,-162.94 1230.29,-159.04 1230.01,-166.03"/>
</g>
<!-- 32 -->
<!-- name: &quot;PropertySyncData&quot;, typeName: &quot;&quot;, id: 32, branchId: 0, recurseId: &#45;1, attributes: 512, notes: &quot;&quot; -->
<g id="node33" class="node">
<title>32</title>
<ellipse fill="none" stroke="black" cx="1475.73" cy="-126" rx="77.19" ry="18"/>
<text text-anchor="middle" x="1475.73" y="-122.3" font-family="Times New Roman,serif" font-size="14.00">PropertySyncData</text>
</g>
<!-- 31&#45;&gt;32 -->
<g id="edge32" class="edge">
<title>31&#45;&gt;32</title>
<path fill="none" stroke="black" d="M332.62,-170.73C348.21,-168.91 364.69,-167.2 380.07,-166 754.55,-136.78 1202.81,-128.84 1388.08,-126.73"/>
<polygon fill="black" stroke="black" points="1388.34,-130.23 1398.3,-126.62 1388.26,-123.23 1388.34,-130.23"/>
</g>
<!-- 34 -->
<!-- name: &quot;Array Size&quot;, typeName: &quot;&quot;, id: 34, branchId: 0, recurseId: &#45;1, attributes: 0, notes: &quot;&quot; -->
<g id="node35" class="node">
<title>34</title>
<ellipse fill="none" stroke="black" cx="458.72" cy="-72" rx="48.99" ry="18"/>
<text text-anchor="middle" x="458.72" y="-68.3" font-family="Times New Roman,serif" font-size="14.00">Array Size</text>
</g>
<!-- 33&#45;&gt;34 -->
<g id="edge34" class="edge">
<title>33&#45;&gt;34</title>
<path fill="none" stroke="black" d="M316.34,-72C342.16,-72 373.24,-72 399.68,-72"/>
<polygon fill="black" stroke="black" points="399.94,-75.5 409.94,-72 399.94,-68.5 399.94,-75.5"/>
</g>
<!-- 36 -->
<!-- name: &quot;example element&quot;, typeName: &quot;&quot;, id: 36, branchId: 0, recurseId: &#45;1, attributes: 16, notes: &quot;&quot; -->
<g id="node37" class="node">
<title>36</title>
<ellipse fill="none" stroke="black" stroke-dasharray="1,5" cx="458.72" cy="-18" rx="70.39" ry="18"/>
<text text-anchor="middle" x="458.72" y="-14.3" font-family="Times New Roman,serif" font-size="14.00">example element</text>
</g>
<!-- 33&#45;&gt;36 -->
<g id="edge36" class="edge">
<title>33&#45;&gt;36</title>
<path fill="none" stroke="black" d="M304.44,-60.55C332.41,-52.78 369.77,-42.41 400.6,-33.85"/>
<polygon fill="black" stroke="black" points="401.66,-37.19 410.36,-31.15 399.79,-30.45 401.66,-37.19"/>
</g>
<!-- 35 -->
<!-- name: &quot;unsigned varint&quot;, typeName: &quot;&quot;, id: 35, branchId: 0, recurseId: &#45;1, attributes: 512, notes: &quot;&quot; -->
<g id="node36" class="node">
<title>35</title>
<ellipse fill="none" stroke="black" cx="1475.73" cy="-72" rx="65.79" ry="18"/>
<text text-anchor="middle" x="1475.73" y="-68.3" font-family="Times New Roman,serif" font-size="14.00">unsigned varint</text>
</g>
<!-- 34&#45;&gt;35 -->
<g id="edge35" class="edge">
<title>34&#45;&gt;35</title>
<path fill="none" stroke="black" d="M507.65,-72C670.27,-72 1201.83,-72 1399.66,-72"/>
<polygon fill="black" stroke="black" points="1399.96,-75.5 1409.96,-72 1399.96,-68.5 1399.96,-75.5"/>
</g>
<!-- 37 -->
<!-- name: &quot;Link&quot;, typeName: &quot;ActorLink&quot;, id: 37, branchId: 0, recurseId: &#45;1, attributes: 256, notes: &quot;&quot; -->
<g id="node38" class="node">
<title>37</title>
<ellipse fill="none" stroke="black" cx="639" cy="-18" rx="27" ry="18"/>
<text text-anchor="middle" x="639" y="-14.3" font-family="Times New Roman,serif" font-size="14.00">Link</text>
</g>
<!-- 36&#45;&gt;37 -->
<g id="edge37" class="edge">
<title>36&#45;&gt;37</title>
<path fill="none" stroke="black" d="M529.16,-18C553.91,-18 580.81,-18 601.67,-18"/>
<polygon fill="black" stroke="black" points="601.68,-21.5 611.68,-18 601.68,-14.5 601.68,-21.5"/>
</g>
<!-- 38 -->
<!-- name: &quot;ActorLink&quot;, typeName: &quot;&quot;, id: 38, branchId: 0, recurseId: &#45;1, attributes: 512, notes: &quot;&quot; -->
<g id="node39" class="node">
<title>38</title>
<ellipse fill="none" stroke="black" cx="1475.73" cy="-18" rx="48.19" ry="18"/>
<text text-anchor="middle" x="1475.73" y="-14.3" font-family="Times New Roman,serif" font-size="14.00">ActorLink</text>
</g>
<!-- 37&#45;&gt;38 -->
<g id="edge38" class="edge">
<title>37&#45;&gt;38</title>
<path fill="none" stroke="black" d="M666.36,-18C782.76,-18 1252.22,-18 1417.12,-18"/>
<polygon fill="black" stroke="black" points="1417.53,-21.5 1427.53,-18 1417.53,-14.5 1417.53,-21.5"/>
</g>
</g>
</svg>
