<?xml version="1.0" encoding="UTF-8" standalone="no"?>
<!DOCTYPE svg PUBLIC "-//W3C//DTD SVG 1.1//EN"
 "http://www.w3.org/Graphics/SVG/1.1/DTD/svg11.dtd">
<!-- Generated by graphviz version 10.0.1 (20240210.2158)
 -->
<!-- Title: AddBehaviorTreePacket Pages: 1 -->
<svg width="607pt" height="44pt"
 viewBox="0.00 0.00 606.94 44.00" xmlns="http://www.w3.org/2000/svg" xmlns:xlink="http://www.w3.org/1999/xlink">
<g id="graph0" class="graph" transform="scale(1 1) rotate(0) translate(4 40)">
<title>AddBehaviorTreePacket</title>
<polygon fill="white" stroke="none" points="-4,4 -4,-40 602.94,-40 602.94,4 -4,4"/>
<!-- 0 -->
<!-- name: &quot;AddBehaviorTreePacket&quot;, typeName: &quot;&quot;, id: 0, branchId: 89, recurseId: &#45;1, attributes: 0, notes: &quot;&quot; -->
<g id="node1" class="node">
<title>0</title>
<ellipse fill="none" stroke="black" cx="101.96" cy="-18" rx="101.96" ry="18"/>
<text text-anchor="middle" x="101.96" y="-12.57" font-family="Times New Roman,serif" font-size="14.00">AddBehaviorTreePacket</text>
</g>
<!-- 1 -->
<!-- name: &quot;Behavior Tree Structure (JSON)&quot;, typeName: &quot;&quot;, id: 1, branchId: 0, recurseId: &#45;1, attributes: 0, notes: &quot;&quot; -->
<g id="node2" class="node">
<title>1</title>
<ellipse fill="none" stroke="black" cx="370.33" cy="-18" rx="130.4" ry="18"/>
<text text-anchor="middle" x="370.33" y="-12.57" font-family="Times New Roman,serif" font-size="14.00">Behavior Tree Structure (JSON)</text>
</g>
<!-- 0&#45;&gt;1 -->
<g id="edge1" class="edge">
<title>0&#45;&gt;1</title>
<path fill="none" stroke="black" d="M204.42,-18C212.22,-18 220.17,-18 228.15,-18"/>
<polygon fill="black" stroke="black" points="227.94,-21.5 237.94,-18 227.94,-14.5 227.94,-21.5"/>
</g>
<!-- 2 -->
<!-- name: &quot;string&quot;, typeName: &quot;&quot;, id: 2, branchId: 0, recurseId: &#45;1, attributes: 512, notes: &quot;&quot; -->
<g id="node3" class="node">
<title>2</title>
<ellipse fill="none" stroke="black" cx="567.84" cy="-18" rx="31.1" ry="18"/>
<text text-anchor="middle" x="567.84" y="-12.57" font-family="Times New Roman,serif" font-size="14.00">string</text>
</g>
<!-- 1&#45;&gt;2 -->
<g id="edge2" class="edge">
<title>1&#45;&gt;2</title>
<path fill="none" stroke="black" d="M501.19,-18C509.61,-18 517.66,-18 525.07,-18"/>
<polygon fill="black" stroke="black" points="524.99,-21.5 534.99,-18 524.99,-14.5 524.99,-21.5"/>
</g>
</g>
</svg>
