<?xml version="1.0" encoding="UTF-8" standalone="no"?>
<!DOCTYPE svg PUBLIC "-//W3C//DTD SVG 1.1//EN"
 "http://www.w3.org/Graphics/SVG/1.1/DTD/svg11.dtd">
<!-- Generated by graphviz version 10.0.1 (20240210.2158)
 -->
<!-- Title: AddItemActorPacket Pages: 1 -->
<svg width="1924pt" height="368pt"
 viewBox="0.00 0.00 1924.29 368.00" xmlns="http://www.w3.org/2000/svg" xmlns:xlink="http://www.w3.org/1999/xlink">
<g id="graph0" class="graph" transform="scale(1 1) rotate(0) translate(4 364)">
<title>AddItemActorPacket</title>
<polygon fill="white" stroke="none" points="-4,4 -4,-364 1920.29,-364 1920.29,4 -4,4"/>
<!-- 0 -->
<!-- name: &quot;AddItemActorPacket&quot;, typeName: &quot;&quot;, id: 0, branchId: 15, recurseId: &#45;1, attributes: 0, notes: &quot;&quot; -->
<g id="node1" class="node">
<title>0</title>
<ellipse fill="none" stroke="black" cx="89.99" cy="-180" rx="89.99" ry="18"/>
<text text-anchor="middle" x="89.99" y="-174.57" font-family="Times New Roman,serif" font-size="14.00">AddItemActorPacket</text>
</g>
<!-- 1 -->
<!-- name: &quot;Target Actor ID&quot;, typeName: &quot;ActorUniqueID&quot;, id: 1, branchId: 0, recurseId: &#45;1, attributes: 256, notes: &quot;&quot; -->
<g id="node2" class="node">
<title>1</title>
<ellipse fill="none" stroke="black" cx="295.98" cy="-342" rx="70.52" ry="18"/>
<text text-anchor="middle" x="295.98" y="-336.57" font-family="Times New Roman,serif" font-size="14.00">Target Actor ID</text>
</g>
<!-- 0&#45;&gt;1 -->
<g id="edge1" class="edge">
<title>0&#45;&gt;1</title>
<path fill="none" stroke="black" d="M103.06,-197.96C123.22,-226.63 166.44,-282.79 215.97,-315 221.79,-318.79 228.2,-322.1 234.78,-324.99"/>
<polygon fill="black" stroke="black" points="233.19,-328.12 243.77,-328.61 235.81,-321.63 233.19,-328.12"/>
</g>
<!-- 3 -->
<!-- name: &quot;Target Runtime ID&quot;, typeName: &quot;ActorRuntimeID&quot;, id: 3, branchId: 0, recurseId: &#45;1, attributes: 256, notes: &quot;&quot; -->
<g id="node4" class="node">
<title>3</title>
<ellipse fill="none" stroke="black" cx="295.98" cy="-288" rx="80.01" ry="18"/>
<text text-anchor="middle" x="295.98" y="-282.57" font-family="Times New Roman,serif" font-size="14.00">Target Runtime ID</text>
</g>
<!-- 0&#45;&gt;3 -->
<g id="edge3" class="edge">
<title>0&#45;&gt;3</title>
<path fill="none" stroke="black" d="M114.38,-197.67C138.74,-215.46 178.52,-242.81 215.97,-261 222.3,-264.08 229.08,-266.96 235.89,-269.6"/>
<polygon fill="black" stroke="black" points="234.58,-272.85 245.17,-273.04 237.01,-266.29 234.58,-272.85"/>
</g>
<!-- 5 -->
<!-- name: &quot;Item&quot;, typeName: &quot;NetworkItemStackDescriptor&quot;, id: 5, branchId: 0, recurseId: &#45;1, attributes: 256, notes: &quot;&quot; -->
<g id="node6" class="node">
<title>5</title>
<ellipse fill="none" stroke="black" cx="295.98" cy="-234" rx="27.11" ry="18"/>
<text text-anchor="middle" x="295.98" y="-228.57" font-family="Times New Roman,serif" font-size="14.00">Item</text>
</g>
<!-- 0&#45;&gt;5 -->
<g id="edge5" class="edge">
<title>0&#45;&gt;5</title>
<path fill="none" stroke="black" d="M145.65,-194.47C181.81,-204.04 228.16,-216.31 259.56,-224.63"/>
<polygon fill="black" stroke="black" points="258.38,-227.93 268.95,-227.11 260.17,-221.17 258.38,-227.93"/>
</g>
<!-- 7 -->
<!-- name: &quot;Position&quot;, typeName: &quot;Vec3&quot;, id: 7, branchId: 0, recurseId: &#45;1, attributes: 256, notes: &quot;&quot; -->
<g id="node8" class="node">
<title>7</title>
<ellipse fill="none" stroke="black" cx="295.98" cy="-180" rx="41.08" ry="18"/>
<text text-anchor="middle" x="295.98" y="-174.57" font-family="Times New Roman,serif" font-size="14.00">Position</text>
</g>
<!-- 0&#45;&gt;7 -->
<g id="edge7" class="edge">
<title>0&#45;&gt;7</title>
<path fill="none" stroke="black" d="M180.46,-180C201.91,-180 224.12,-180 243.2,-180"/>
<polygon fill="black" stroke="black" points="243.12,-183.5 253.12,-180 243.12,-176.5 243.12,-183.5"/>
</g>
<!-- 9 -->
<!-- name: &quot;Velocity&quot;, typeName: &quot;Vec3&quot;, id: 9, branchId: 0, recurseId: &#45;1, attributes: 256, notes: &quot;&quot; -->
<g id="node10" class="node">
<title>9</title>
<ellipse fill="none" stroke="black" cx="295.98" cy="-126" rx="41.58" ry="18"/>
<text text-anchor="middle" x="295.98" y="-120.58" font-family="Times New Roman,serif" font-size="14.00">Velocity</text>
</g>
<!-- 0&#45;&gt;9 -->
<g id="edge9" class="edge">
<title>0&#45;&gt;9</title>
<path fill="none" stroke="black" d="M145.65,-165.53C177.92,-156.99 218.31,-146.3 248.94,-138.19"/>
<polygon fill="black" stroke="black" points="249.52,-141.65 258.29,-135.71 247.73,-134.89 249.52,-141.65"/>
</g>
<!-- 11 -->
<!-- name: &quot;Entity Data&quot;, typeName: &quot;std::vector&lt;class std::unique_ptr&lt;class DataItem,struct std::default_delete&lt;class DataItem&gt; &gt;,class std::allocator&lt;class std::unique_ptr&lt;class DataItem,struct std::default_delete&lt;class DataItem&gt; &gt; &gt; &gt;&quot;, id: 11, branchId: 0, recurseId: &#45;1, attributes: 256, notes: &quot;&quot; -->
<g id="node12" class="node">
<title>11</title>
<ellipse fill="none" stroke="black" cx="295.98" cy="-72" rx="51.56" ry="18"/>
<text text-anchor="middle" x="295.98" y="-66.58" font-family="Times New Roman,serif" font-size="14.00">Entity Data</text>
</g>
<!-- 0&#45;&gt;11 -->
<g id="edge11" class="edge">
<title>0&#45;&gt;11</title>
<path fill="none" stroke="black" d="M114.38,-162.33C138.74,-144.54 178.52,-117.19 215.97,-99 224.97,-94.63 234.86,-90.65 244.51,-87.17"/>
<polygon fill="black" stroke="black" points="245.5,-90.54 253.8,-83.96 243.21,-83.92 245.5,-90.54"/>
</g>
<!-- 13 -->
<!-- name: &quot;From Fishing?&quot;, typeName: &quot;&quot;, id: 13, branchId: 0, recurseId: &#45;1, attributes: 0, notes: &quot;&quot; -->
<g id="node14" class="node">
<title>13</title>
<ellipse fill="none" stroke="black" cx="295.98" cy="-18" rx="64.54" ry="18"/>
<text text-anchor="middle" x="295.98" y="-12.57" font-family="Times New Roman,serif" font-size="14.00">From Fishing?</text>
</g>
<!-- 0&#45;&gt;13 -->
<g id="edge13" class="edge">
<title>0&#45;&gt;13</title>
<path fill="none" stroke="black" d="M103.06,-162.04C123.22,-133.37 166.44,-77.21 215.97,-45 222.34,-40.86 229.41,-37.28 236.63,-34.21"/>
<polygon fill="black" stroke="black" points="237.8,-37.51 245.84,-30.62 235.25,-30.99 237.8,-37.51"/>
</g>
<!-- 2 -->
<!-- name: &quot;ActorUniqueID&quot;, typeName: &quot;&quot;, id: 2, branchId: 0, recurseId: &#45;1, attributes: 512, notes: &quot;&quot; -->
<g id="node3" class="node">
<title>2</title>
<ellipse fill="none" stroke="black" cx="1164.14" cy="-342" rx="68.03" ry="18"/>
<text text-anchor="middle" x="1164.14" y="-336.57" font-family="Times New Roman,serif" font-size="14.00">ActorUniqueID</text>
</g>
<!-- 1&#45;&gt;2 -->
<g id="edge2" class="edge">
<title>1&#45;&gt;2</title>
<path fill="none" stroke="black" d="M366.76,-342C526.26,-342 916.65,-342 1084.41,-342"/>
<polygon fill="black" stroke="black" points="1084.34,-345.5 1094.34,-342 1084.34,-338.5 1084.34,-345.5"/>
</g>
<!-- 4 -->
<!-- name: &quot;ActorRuntimeID&quot;, typeName: &quot;&quot;, id: 4, branchId: 0, recurseId: &#45;1, attributes: 512, notes: &quot;&quot; -->
<g id="node5" class="node">
<title>4</title>
<ellipse fill="none" stroke="black" cx="1164.14" cy="-288" rx="72.52" ry="18"/>
<text text-anchor="middle" x="1164.14" y="-282.57" font-family="Times New Roman,serif" font-size="14.00">ActorRuntimeID</text>
</g>
<!-- 3&#45;&gt;4 -->
<g id="edge4" class="edge">
<title>3&#45;&gt;4</title>
<path fill="none" stroke="black" d="M376.14,-288C539.64,-288 913.25,-288 1080.05,-288"/>
<polygon fill="black" stroke="black" points="1079.7,-291.5 1089.7,-288 1079.7,-284.5 1079.7,-291.5"/>
</g>
<!-- 6 -->
<!-- name: &quot;NetworkItemStackDescriptor&quot;, typeName: &quot;&quot;, id: 6, branchId: 0, recurseId: &#45;1, attributes: 512, notes: &quot;&quot; -->
<g id="node7" class="node">
<title>6</title>
<ellipse fill="none" stroke="black" cx="1164.14" cy="-234" rx="119.43" ry="18"/>
<text text-anchor="middle" x="1164.14" y="-228.57" font-family="Times New Roman,serif" font-size="14.00">NetworkItemStackDescriptor</text>
</g>
<!-- 5&#45;&gt;6 -->
<g id="edge6" class="edge">
<title>5&#45;&gt;6</title>
<path fill="none" stroke="black" d="M323.37,-234C428.88,-234 824.68,-234 1033.02,-234"/>
<polygon fill="black" stroke="black" points="1032.82,-237.5 1042.82,-234 1032.82,-230.5 1032.82,-237.5"/>
</g>
<!-- 8 -->
<!-- name: &quot;Vec3&quot;, typeName: &quot;&quot;, id: 8, branchId: 0, recurseId: &#45;1, attributes: 512, notes: &quot;&quot; -->
<g id="node9" class="node">
<title>8</title>
<ellipse fill="none" stroke="black" cx="1164.14" cy="-180" rx="30.11" ry="18"/>
<text text-anchor="middle" x="1164.14" y="-174.57" font-family="Times New Roman,serif" font-size="14.00">Vec3</text>
</g>
<!-- 7&#45;&gt;8 -->
<g id="edge8" class="edge">
<title>7&#45;&gt;8</title>
<path fill="none" stroke="black" d="M337.3,-180C482.34,-180 976.56,-180 1122.34,-180"/>
<polygon fill="black" stroke="black" points="1122.28,-183.5 1132.28,-180 1122.28,-176.5 1122.28,-183.5"/>
</g>
<!-- 10 -->
<!-- name: &quot;Vec3&quot;, typeName: &quot;&quot;, id: 10, branchId: 0, recurseId: &#45;1, attributes: 512, notes: &quot;&quot; -->
<g id="node11" class="node">
<title>10</title>
<ellipse fill="none" stroke="black" cx="1164.14" cy="-126" rx="30.11" ry="18"/>
<text text-anchor="middle" x="1164.14" y="-120.58" font-family="Times New Roman,serif" font-size="14.00">Vec3</text>
</g>
<!-- 9&#45;&gt;10 -->
<g id="edge10" class="edge">
<title>9&#45;&gt;10</title>
<path fill="none" stroke="black" d="M337.88,-126C483.67,-126 976.95,-126 1122.43,-126"/>
<polygon fill="black" stroke="black" points="1122.34,-129.5 1132.34,-126 1122.34,-122.5 1122.34,-129.5"/>
</g>
<!-- 12 -->
<!-- name: &quot;std::vector&lt;class std::unique_ptr&lt;class DataItem,struct std::default_delete&lt;class DataItem&gt; &gt;,class std::allocator&lt;class std::unique_ptr&lt;class DataItem,struct std::default_delete&lt;class DataItem&gt; &gt; &gt; &gt;&quot;, typeName: &quot;&quot;, id: 12, branchId: 0, recurseId: &#45;1, attributes: 512, notes: &quot;&quot; -->
<g id="node13" class="node">
<title>12</title>
<ellipse fill="none" stroke="black" cx="1164.14" cy="-72" rx="752.15" ry="18"/>
<text text-anchor="middle" x="1164.14" y="-66.58" font-family="Times New Roman,serif" font-size="14.00">std::vector&lt;class std::unique_ptr&lt;class DataItem,struct std::default_delete&lt;class DataItem&gt; &gt;,class std::allocator&lt;class std::unique_ptr&lt;class DataItem,struct std::default_delete&lt;class DataItem&gt; &gt; &gt; &gt;</text>
</g>
<!-- 11&#45;&gt;12 -->
<g id="edge12" class="edge">
<title>11&#45;&gt;12</title>
<path fill="none" stroke="black" d="M347.93,-72C362.76,-72 380.44,-72 400.4,-72"/>
<polygon fill="black" stroke="black" points="400.21,-75.5 410.21,-72 400.21,-68.5 400.21,-75.5"/>
</g>
<!-- 14 -->
<!-- name: &quot;bool&quot;, typeName: &quot;&quot;, id: 14, branchId: 0, recurseId: &#45;1, attributes: 512, notes: &quot;&quot; -->
<g id="node15" class="node">
<title>14</title>
<ellipse fill="none" stroke="black" cx="1164.14" cy="-18" rx="27.61" ry="18"/>
<text text-anchor="middle" x="1164.14" y="-12.57" font-family="Times New Roman,serif" font-size="14.00">bool</text>
</g>
<!-- 13&#45;&gt;14 -->
<g id="edge14" class="edge">
<title>13&#45;&gt;14</title>
<path fill="none" stroke="black" d="M360.67,-18C530.19,-18 988.72,-18 1124.65,-18"/>
<polygon fill="black" stroke="black" points="1124.55,-21.5 1134.55,-18 1124.55,-14.5 1124.55,-21.5"/>
</g>
</g>
</svg>
