<?xml version="1.0" encoding="UTF-8" standalone="no"?>
<!DOCTYPE svg PUBLIC "-//W3C//DTD SVG 1.1//EN"
 "http://www.w3.org/Graphics/SVG/1.1/DTD/svg11.dtd">
<!-- Generated by graphviz version 2.46.1 (20210213.1702)
 -->
<!-- Title: AddItemActorPacket Pages: 1 -->
<svg width="1884pt" height="368pt"
 viewBox="0.00 0.00 1884.24 368.00" xmlns="http://www.w3.org/2000/svg" xmlns:xlink="http://www.w3.org/1999/xlink">
<g id="graph0" class="graph" transform="scale(1 1) rotate(0) translate(4 364)">
<title>AddItemActorPacket</title>
<polygon fill="white" stroke="transparent" points="-4,4 -4,-364 1880.24,-364 1880.24,4 -4,4"/>
<!-- 0 -->
<!-- name: &quot;AddItemActorPacket&quot;, typeName: &quot;&quot;, id: 0, branchId: 15, recurseId: &#45;1, attributes: 0, notes: &quot;&quot; -->
<g id="node1" class="node">
<title>0</title>
<ellipse fill="none" stroke="black" cx="88.39" cy="-180" rx="88.28" ry="18"/>
<text text-anchor="middle" x="88.39" y="-176.3" font-family="Times New Roman,serif" font-size="14.00">AddItemActorPacket</text>
</g>
<!-- 1 -->
<!-- name: &quot;Target Actor ID&quot;, typeName: &quot;ActorUniqueID&quot;, id: 1, branchId: 0, recurseId: &#45;1, attributes: 256, notes: &quot;&quot; -->
<g id="node2" class="node">
<title>1</title>
<ellipse fill="none" stroke="black" cx="291.43" cy="-342" rx="69.59" ry="18"/>
<text text-anchor="middle" x="291.43" y="-338.3" font-family="Times New Roman,serif" font-size="14.00">Target Actor ID</text>
</g>
<!-- 0&#45;&gt;1 -->
<g id="edge1" class="edge">
<title>0&#45;&gt;1</title>
<path fill="none" stroke="black" d="M101.28,-197.94C121.13,-226.57 163.73,-282.69 212.78,-315 218.85,-318.99 225.57,-322.47 232.44,-325.47"/>
<polygon fill="black" stroke="black" points="231.29,-328.78 241.87,-329.27 233.91,-322.28 231.29,-328.78"/>
</g>
<!-- 3 -->
<!-- name: &quot;Target Runtime ID&quot;, typeName: &quot;ActorRuntimeID&quot;, id: 3, branchId: 0, recurseId: &#45;1, attributes: 256, notes: &quot;&quot; -->
<g id="node4" class="node">
<title>3</title>
<ellipse fill="none" stroke="black" cx="291.43" cy="-288" rx="78.79" ry="18"/>
<text text-anchor="middle" x="291.43" y="-284.3" font-family="Times New Roman,serif" font-size="14.00">Target Runtime ID</text>
</g>
<!-- 0&#45;&gt;3 -->
<g id="edge3" class="edge">
<title>0&#45;&gt;3</title>
<path fill="none" stroke="black" d="M112.47,-197.65C136.51,-215.43 175.78,-242.77 212.78,-261 219.39,-264.25 226.48,-267.29 233.59,-270.07"/>
<polygon fill="black" stroke="black" points="232.68,-273.46 243.27,-273.69 235.13,-266.91 232.68,-273.46"/>
</g>
<!-- 5 -->
<!-- name: &quot;Item&quot;, typeName: &quot;NetworkItemStackDescriptor&quot;, id: 5, branchId: 0, recurseId: &#45;1, attributes: 256, notes: &quot;&quot; -->
<g id="node6" class="node">
<title>5</title>
<ellipse fill="none" stroke="black" cx="291.43" cy="-234" rx="27" ry="18"/>
<text text-anchor="middle" x="291.43" y="-230.3" font-family="Times New Roman,serif" font-size="14.00">Item</text>
</g>
<!-- 0&#45;&gt;5 -->
<g id="edge5" class="edge">
<title>0&#45;&gt;5</title>
<path fill="none" stroke="black" d="M142.47,-194.26C178.43,-203.92 224.89,-216.4 256.07,-224.77"/>
<polygon fill="black" stroke="black" points="255.45,-228.23 266.02,-227.44 257.27,-221.47 255.45,-228.23"/>
</g>
<!-- 7 -->
<!-- name: &quot;Position&quot;, typeName: &quot;Vec3&quot;, id: 7, branchId: 0, recurseId: &#45;1, attributes: 256, notes: &quot;&quot; -->
<g id="node8" class="node">
<title>7</title>
<ellipse fill="none" stroke="black" cx="291.43" cy="-180" rx="40.09" ry="18"/>
<text text-anchor="middle" x="291.43" y="-176.3" font-family="Times New Roman,serif" font-size="14.00">Position</text>
</g>
<!-- 0&#45;&gt;7 -->
<g id="edge7" class="edge">
<title>0&#45;&gt;7</title>
<path fill="none" stroke="black" d="M176.98,-180C198.87,-180 221.58,-180 240.89,-180"/>
<polygon fill="black" stroke="black" points="240.94,-183.5 250.94,-180 240.94,-176.5 240.94,-183.5"/>
</g>
<!-- 9 -->
<!-- name: &quot;Velocity&quot;, typeName: &quot;Vec3&quot;, id: 9, branchId: 0, recurseId: &#45;1, attributes: 256, notes: &quot;&quot; -->
<g id="node10" class="node">
<title>9</title>
<ellipse fill="none" stroke="black" cx="291.43" cy="-126" rx="40.89" ry="18"/>
<text text-anchor="middle" x="291.43" y="-122.3" font-family="Times New Roman,serif" font-size="14.00">Velocity</text>
</g>
<!-- 0&#45;&gt;9 -->
<g id="edge9" class="edge">
<title>0&#45;&gt;9</title>
<path fill="none" stroke="black" d="M142.47,-165.74C174.77,-157.07 215.54,-146.12 246.1,-137.91"/>
<polygon fill="black" stroke="black" points="247.3,-141.21 256.05,-135.23 245.48,-134.45 247.3,-141.21"/>
</g>
<!-- 11 -->
<!-- name: &quot;Entity Data&quot;, typeName: &quot;std::vector&lt;class std::unique_ptr&lt;class DataItem,struct std::default_delete&lt;class DataItem&gt; &gt;,class std::allocator&lt;class std::unique_ptr&lt;class DataItem,struct std::default_delete&lt;class DataItem&gt; &gt; &gt; &gt;&quot;, id: 11, branchId: 0, recurseId: &#45;1, attributes: 256, notes: &quot;&quot; -->
<g id="node12" class="node">
<title>11</title>
<ellipse fill="none" stroke="black" cx="291.43" cy="-72" rx="50.89" ry="18"/>
<text text-anchor="middle" x="291.43" y="-68.3" font-family="Times New Roman,serif" font-size="14.00">Entity Data</text>
</g>
<!-- 0&#45;&gt;11 -->
<g id="edge11" class="edge">
<title>0&#45;&gt;11</title>
<path fill="none" stroke="black" d="M112.47,-162.35C136.51,-144.57 175.78,-117.23 212.78,-99 222,-94.46 232.18,-90.34 242.04,-86.76"/>
<polygon fill="black" stroke="black" points="243.47,-89.96 251.75,-83.36 241.16,-83.36 243.47,-89.96"/>
</g>
<!-- 13 -->
<!-- name: &quot;From Fishing?&quot;, typeName: &quot;&quot;, id: 13, branchId: 0, recurseId: &#45;1, attributes: 0, notes: &quot;&quot; -->
<g id="node14" class="node">
<title>13</title>
<ellipse fill="none" stroke="black" cx="291.43" cy="-18" rx="63.89" ry="18"/>
<text text-anchor="middle" x="291.43" y="-14.3" font-family="Times New Roman,serif" font-size="14.00">From Fishing?</text>
</g>
<!-- 0&#45;&gt;13 -->
<g id="edge13" class="edge">
<title>0&#45;&gt;13</title>
<path fill="none" stroke="black" d="M101.28,-162.06C121.13,-133.43 163.73,-77.31 212.78,-45 219.32,-40.69 226.62,-36.99 234.06,-33.84"/>
<polygon fill="black" stroke="black" points="235.47,-37.04 243.5,-30.13 232.91,-30.53 235.47,-37.04"/>
</g>
<!-- 2 -->
<!-- name: &quot;ActorUniqueID&quot;, typeName: &quot;&quot;, id: 2, branchId: 0, recurseId: &#45;1, attributes: 512, notes: &quot;&quot; -->
<g id="node3" class="node">
<title>2</title>
<ellipse fill="none" stroke="black" cx="1141.16" cy="-342" rx="66.89" ry="18"/>
<text text-anchor="middle" x="1141.16" y="-338.3" font-family="Times New Roman,serif" font-size="14.00">ActorUniqueID</text>
</g>
<!-- 1&#45;&gt;2 -->
<g id="edge2" class="edge">
<title>1&#45;&gt;2</title>
<path fill="none" stroke="black" d="M361.08,-342C517.58,-342 899.84,-342 1063.62,-342"/>
<polygon fill="black" stroke="black" points="1064.09,-345.5 1074.09,-342 1064.09,-338.5 1064.09,-345.5"/>
</g>
<!-- 4 -->
<!-- name: &quot;ActorRuntimeID&quot;, typeName: &quot;&quot;, id: 4, branchId: 0, recurseId: &#45;1, attributes: 512, notes: &quot;&quot; -->
<g id="node5" class="node">
<title>4</title>
<ellipse fill="none" stroke="black" cx="1141.16" cy="-288" rx="71.49" ry="18"/>
<text text-anchor="middle" x="1141.16" y="-284.3" font-family="Times New Roman,serif" font-size="14.00">ActorRuntimeID</text>
</g>
<!-- 3&#45;&gt;4 -->
<g id="edge4" class="edge">
<title>3&#45;&gt;4</title>
<path fill="none" stroke="black" d="M370.28,-288C530.59,-288 896.13,-288 1059.11,-288"/>
<polygon fill="black" stroke="black" points="1059.55,-291.5 1069.55,-288 1059.55,-284.5 1059.55,-291.5"/>
</g>
<!-- 6 -->
<!-- name: &quot;NetworkItemStackDescriptor&quot;, typeName: &quot;&quot;, id: 6, branchId: 0, recurseId: &#45;1, attributes: 512, notes: &quot;&quot; -->
<g id="node7" class="node">
<title>6</title>
<ellipse fill="none" stroke="black" cx="1141.16" cy="-234" rx="116.98" ry="18"/>
<text text-anchor="middle" x="1141.16" y="-230.3" font-family="Times New Roman,serif" font-size="14.00">NetworkItemStackDescriptor</text>
</g>
<!-- 5&#45;&gt;6 -->
<g id="edge6" class="edge">
<title>5&#45;&gt;6</title>
<path fill="none" stroke="black" d="M318.73,-234C422.89,-234 810.68,-234 1013.97,-234"/>
<polygon fill="black" stroke="black" points="1014.11,-237.5 1024.11,-234 1014.11,-230.5 1014.11,-237.5"/>
</g>
<!-- 8 -->
<!-- name: &quot;Vec3&quot;, typeName: &quot;&quot;, id: 8, branchId: 0, recurseId: &#45;1, attributes: 512, notes: &quot;&quot; -->
<g id="node9" class="node">
<title>8</title>
<ellipse fill="none" stroke="black" cx="1141.16" cy="-180" rx="29.8" ry="18"/>
<text text-anchor="middle" x="1141.16" y="-176.3" font-family="Times New Roman,serif" font-size="14.00">Vec3</text>
</g>
<!-- 7&#45;&gt;8 -->
<g id="edge8" class="edge">
<title>7&#45;&gt;8</title>
<path fill="none" stroke="black" d="M331.9,-180C473.97,-180 958.41,-180 1100.61,-180"/>
<polygon fill="black" stroke="black" points="1101.01,-183.5 1111.01,-180 1101.01,-176.5 1101.01,-183.5"/>
</g>
<!-- 10 -->
<!-- name: &quot;Vec3&quot;, typeName: &quot;&quot;, id: 10, branchId: 0, recurseId: &#45;1, attributes: 512, notes: &quot;&quot; -->
<g id="node11" class="node">
<title>10</title>
<ellipse fill="none" stroke="black" cx="1141.16" cy="-126" rx="29.8" ry="18"/>
<text text-anchor="middle" x="1141.16" y="-122.3" font-family="Times New Roman,serif" font-size="14.00">Vec3</text>
</g>
<!-- 9&#45;&gt;10 -->
<g id="edge10" class="edge">
<title>9&#45;&gt;10</title>
<path fill="none" stroke="black" d="M332.46,-126C475.28,-126 958.79,-126 1100.69,-126"/>
<polygon fill="black" stroke="black" points="1101.08,-129.5 1111.08,-126 1101.08,-122.5 1101.08,-129.5"/>
</g>
<!-- 12 -->
<!-- name: &quot;std::vector&lt;class std::unique_ptr&lt;class DataItem,struct std::default_delete&lt;class DataItem&gt; &gt;,class std::allocator&lt;class std::unique_ptr&lt;class DataItem,struct std::default_delete&lt;class DataItem&gt; &gt; &gt; &gt;&quot;, typeName: &quot;&quot;, id: 12, branchId: 0, recurseId: &#45;1, attributes: 512, notes: &quot;&quot; -->
<g id="node13" class="node">
<title>12</title>
<ellipse fill="none" stroke="black" cx="1141.16" cy="-72" rx="735.17" ry="18"/>
<text text-anchor="middle" x="1141.16" y="-68.3" font-family="Times New Roman,serif" font-size="14.00">std::vector&lt;class std::unique_ptr&lt;class DataItem,struct std::default_delete&lt;class DataItem&gt; &gt;,class std::allocator&lt;class std::unique_ptr&lt;class DataItem,struct std::default_delete&lt;class DataItem&gt; &gt; &gt; &gt;</text>
</g>
<!-- 11&#45;&gt;12 -->
<g id="edge12" class="edge">
<title>11&#45;&gt;12</title>
<path fill="none" stroke="black" d="M342.29,-72C357.31,-72 375.3,-72 395.67,-72"/>
<polygon fill="black" stroke="black" points="395.85,-75.5 405.85,-72 395.85,-68.5 395.85,-75.5"/>
</g>
<!-- 14 -->
<!-- name: &quot;bool&quot;, typeName: &quot;&quot;, id: 14, branchId: 0, recurseId: &#45;1, attributes: 512, notes: &quot;&quot; -->
<g id="node15" class="node">
<title>14</title>
<ellipse fill="none" stroke="black" cx="1141.16" cy="-18" rx="27.1" ry="18"/>
<text text-anchor="middle" x="1141.16" y="-14.3" font-family="Times New Roman,serif" font-size="14.00">bool</text>
</g>
<!-- 13&#45;&gt;14 -->
<g id="edge14" class="edge">
<title>13&#45;&gt;14</title>
<path fill="none" stroke="black" d="M355.45,-18C522.28,-18 971.62,-18 1103.37,-18"/>
<polygon fill="black" stroke="black" points="1103.72,-21.5 1113.72,-18 1103.72,-14.5 1103.72,-21.5"/>
</g>
</g>
</svg>
