<?xml version="1.0" encoding="UTF-8" standalone="no"?>
<!DOCTYPE svg PUBLIC "-//W3C//DTD SVG 1.1//EN"
 "http://www.w3.org/Graphics/SVG/1.1/DTD/svg11.dtd">
<!-- Generated by graphviz version 10.0.1 (20240210.2158)
 -->
<!-- Title: AddPaintingPacket Pages: 1 -->
<svg width="548pt" height="260pt"
 viewBox="0.00 0.00 548.06 260.00" xmlns="http://www.w3.org/2000/svg" xmlns:xlink="http://www.w3.org/1999/xlink">
<g id="graph0" class="graph" transform="scale(1 1) rotate(0) translate(4 256)">
<title>AddPaintingPacket</title>
<polygon fill="white" stroke="none" points="-4,4 -4,-256 544.06,-256 544.06,4 -4,4"/>
<!-- 0 -->
<!-- name: &quot;AddPaintingPacket&quot;, typeName: &quot;&quot;, id: 0, branchId: 22, recurseId: &#45;1, attributes: 0, notes: &quot;&quot; -->
<g id="node1" class="node">
<title>0</title>
<ellipse fill="none" stroke="black" cx="81.5" cy="-126" rx="81.5" ry="18"/>
<text text-anchor="middle" x="81.5" y="-120.58" font-family="Times New Roman,serif" font-size="14.00">AddPaintingPacket</text>
</g>
<!-- 1 -->
<!-- name: &quot;Target Actor ID&quot;, typeName: &quot;ActorUniqueID&quot;, id: 1, branchId: 0, recurseId: &#45;1, attributes: 256, notes: &quot;&quot; -->
<g id="node2" class="node">
<title>1</title>
<ellipse fill="none" stroke="black" cx="279.01" cy="-234" rx="70.52" ry="18"/>
<text text-anchor="middle" x="279.01" y="-228.57" font-family="Times New Roman,serif" font-size="14.00">Target Actor ID</text>
</g>
<!-- 0&#45;&gt;1 -->
<g id="edge1" class="edge">
<title>0&#45;&gt;1</title>
<path fill="none" stroke="black" d="M103.69,-143.46C126.2,-161.33 163.4,-188.98 199.01,-207 205.78,-210.43 213.1,-213.59 220.44,-216.44"/>
<polygon fill="black" stroke="black" points="219.16,-219.69 229.75,-219.87 221.58,-213.13 219.16,-219.69"/>
</g>
<!-- 3 -->
<!-- name: &quot;Target Runtime ID&quot;, typeName: &quot;ActorRuntimeID&quot;, id: 3, branchId: 0, recurseId: &#45;1, attributes: 256, notes: &quot;&quot; -->
<g id="node4" class="node">
<title>3</title>
<ellipse fill="none" stroke="black" cx="279.01" cy="-180" rx="80.01" ry="18"/>
<text text-anchor="middle" x="279.01" y="-174.57" font-family="Times New Roman,serif" font-size="14.00">Target Runtime ID</text>
</g>
<!-- 0&#45;&gt;3 -->
<g id="edge3" class="edge">
<title>0&#45;&gt;3</title>
<path fill="none" stroke="black" d="M133.87,-140.19C159.01,-147.13 189.49,-155.55 215.93,-162.85"/>
<polygon fill="black" stroke="black" points="214.96,-166.22 225.53,-165.5 216.82,-159.47 214.96,-166.22"/>
</g>
<!-- 5 -->
<!-- name: &quot;Position&quot;, typeName: &quot;Vec3&quot;, id: 5, branchId: 0, recurseId: &#45;1, attributes: 256, notes: &quot;&quot; -->
<g id="node6" class="node">
<title>5</title>
<ellipse fill="none" stroke="black" cx="279.01" cy="-126" rx="41.08" ry="18"/>
<text text-anchor="middle" x="279.01" y="-120.58" font-family="Times New Roman,serif" font-size="14.00">Position</text>
</g>
<!-- 0&#45;&gt;5 -->
<g id="edge5" class="edge">
<title>0&#45;&gt;5</title>
<path fill="none" stroke="black" d="M163.43,-126C184.67,-126 207.01,-126 226.26,-126"/>
<polygon fill="black" stroke="black" points="225.99,-129.5 235.99,-126 225.99,-122.5 225.99,-129.5"/>
</g>
<!-- 7 -->
<!-- name: &quot;Direction&quot;, typeName: &quot;&quot;, id: 7, branchId: 0, recurseId: &#45;1, attributes: 0, notes: &quot;&quot; -->
<g id="node8" class="node">
<title>7</title>
<ellipse fill="none" stroke="black" cx="279.01" cy="-72" rx="44.58" ry="18"/>
<text text-anchor="middle" x="279.01" y="-66.58" font-family="Times New Roman,serif" font-size="14.00">Direction</text>
</g>
<!-- 0&#45;&gt;7 -->
<g id="edge7" class="edge">
<title>0&#45;&gt;7</title>
<path fill="none" stroke="black" d="M133.87,-111.81C163.87,-103.53 201.45,-93.15 230.71,-85.06"/>
<polygon fill="black" stroke="black" points="231.33,-88.53 240.03,-82.49 229.46,-81.78 231.33,-88.53"/>
</g>
<!-- 9 -->
<!-- name: &quot;Motif&quot;, typeName: &quot;&quot;, id: 9, branchId: 0, recurseId: &#45;1, attributes: 0, notes: &quot;&quot; -->
<g id="node10" class="node">
<title>9</title>
<ellipse fill="none" stroke="black" cx="279.01" cy="-18" rx="31.1" ry="18"/>
<text text-anchor="middle" x="279.01" y="-12.57" font-family="Times New Roman,serif" font-size="14.00">Motif</text>
</g>
<!-- 0&#45;&gt;9 -->
<g id="edge9" class="edge">
<title>0&#45;&gt;9</title>
<path fill="none" stroke="black" d="M103.69,-108.54C126.2,-90.67 163.4,-63.02 199.01,-45 211.74,-38.56 226.36,-33.08 239.53,-28.77"/>
<polygon fill="black" stroke="black" points="240.25,-32.22 248.75,-25.89 238.16,-25.54 240.25,-32.22"/>
</g>
<!-- 2 -->
<!-- name: &quot;ActorUniqueID&quot;, typeName: &quot;&quot;, id: 2, branchId: 0, recurseId: &#45;1, attributes: 512, notes: &quot;&quot; -->
<g id="node3" class="node">
<title>2</title>
<ellipse fill="none" stroke="black" cx="467.54" cy="-234" rx="68.03" ry="18"/>
<text text-anchor="middle" x="467.54" y="-228.57" font-family="Times New Roman,serif" font-size="14.00">ActorUniqueID</text>
</g>
<!-- 1&#45;&gt;2 -->
<g id="edge2" class="edge">
<title>1&#45;&gt;2</title>
<path fill="none" stroke="black" d="M350,-234C362.34,-234 375.27,-234 387.84,-234"/>
<polygon fill="black" stroke="black" points="387.74,-237.5 397.74,-234 387.74,-230.5 387.74,-237.5"/>
</g>
<!-- 4 -->
<!-- name: &quot;ActorRuntimeID&quot;, typeName: &quot;&quot;, id: 4, branchId: 0, recurseId: &#45;1, attributes: 512, notes: &quot;&quot; -->
<g id="node5" class="node">
<title>4</title>
<ellipse fill="none" stroke="black" cx="467.54" cy="-180" rx="72.52" ry="18"/>
<text text-anchor="middle" x="467.54" y="-174.57" font-family="Times New Roman,serif" font-size="14.00">ActorRuntimeID</text>
</g>
<!-- 3&#45;&gt;4 -->
<g id="edge4" class="edge">
<title>3&#45;&gt;4</title>
<path fill="none" stroke="black" d="M359.39,-180C367.25,-180 375.24,-180 383.14,-180"/>
<polygon fill="black" stroke="black" points="383.11,-183.5 393.11,-180 383.11,-176.5 383.11,-183.5"/>
</g>
<!-- 6 -->
<!-- name: &quot;Vec3&quot;, typeName: &quot;&quot;, id: 6, branchId: 0, recurseId: &#45;1, attributes: 512, notes: &quot;&quot; -->
<g id="node7" class="node">
<title>6</title>
<ellipse fill="none" stroke="black" cx="467.54" cy="-126" rx="30.11" ry="18"/>
<text text-anchor="middle" x="467.54" y="-120.58" font-family="Times New Roman,serif" font-size="14.00">Vec3</text>
</g>
<!-- 5&#45;&gt;6 -->
<g id="edge6" class="edge">
<title>5&#45;&gt;6</title>
<path fill="none" stroke="black" d="M320.48,-126C351.65,-126 394.53,-126 425.77,-126"/>
<polygon fill="black" stroke="black" points="425.61,-129.5 435.61,-126 425.61,-122.5 425.61,-129.5"/>
</g>
<!-- 8 -->
<!-- name: &quot;varint&quot;, typeName: &quot;&quot;, id: 8, branchId: 0, recurseId: &#45;1, attributes: 512, notes: &quot;&quot; -->
<g id="node9" class="node">
<title>8</title>
<ellipse fill="none" stroke="black" cx="467.54" cy="-72" rx="31.1" ry="18"/>
<text text-anchor="middle" x="467.54" y="-66.58" font-family="Times New Roman,serif" font-size="14.00">varint</text>
</g>
<!-- 7&#45;&gt;8 -->
<g id="edge8" class="edge">
<title>7&#45;&gt;8</title>
<path fill="none" stroke="black" d="M323.74,-72C354.26,-72 394.74,-72 424.8,-72"/>
<polygon fill="black" stroke="black" points="424.67,-75.5 434.67,-72 424.67,-68.5 424.67,-75.5"/>
</g>
<!-- 10 -->
<!-- name: &quot;string&quot;, typeName: &quot;&quot;, id: 10, branchId: 0, recurseId: &#45;1, attributes: 512, notes: &quot;&quot; -->
<g id="node11" class="node">
<title>10</title>
<ellipse fill="none" stroke="black" cx="467.54" cy="-18" rx="31.1" ry="18"/>
<text text-anchor="middle" x="467.54" y="-12.57" font-family="Times New Roman,serif" font-size="14.00">string</text>
</g>
<!-- 9&#45;&gt;10 -->
<g id="edge10" class="edge">
<title>9&#45;&gt;10</title>
<path fill="none" stroke="black" d="M310.39,-18C341.56,-18 390.25,-18 424.97,-18"/>
<polygon fill="black" stroke="black" points="424.65,-21.5 434.65,-18 424.65,-14.5 424.65,-21.5"/>
</g>
</g>
</svg>
