<?xml version="1.0" encoding="UTF-8" standalone="no"?>
<!DOCTYPE svg PUBLIC "-//W3C//DTD SVG 1.1//EN"
 "http://www.w3.org/Graphics/SVG/1.1/DTD/svg11.dtd">
<!-- Generated by graphviz version 2.46.1 (20210213.1702)
 -->
<!-- Title: AddPlayerPacket Pages: 1 -->
<svg width="2427pt" height="981pt"
 viewBox="0.00 0.00 2426.83 980.54" xmlns="http://www.w3.org/2000/svg" xmlns:xlink="http://www.w3.org/1999/xlink">
<g id="graph0" class="graph" transform="scale(1 1) rotate(0) translate(4 976.54)">
<title>AddPlayerPacket</title>
<polygon fill="white" stroke="transparent" points="-4,4 -4,-976.54 2422.83,-976.54 2422.83,4 -4,4"/>
<!-- 0 -->
<!-- name: &quot;AddPlayerPacket&quot;, typeName: &quot;&quot;, id: 0, branchId: 12, recurseId: &#45;1, attributes: 0, notes: &quot;&quot; -->
<g id="node1" class="node">
<title>0</title>
<ellipse fill="none" stroke="black" cx="73.44" cy="-530" rx="73.39" ry="18"/>
<text text-anchor="middle" x="73.44" y="-526.3" font-family="Times New Roman,serif" font-size="14.00">AddPlayerPacket</text>
</g>
<!-- 1 -->
<!-- name: &quot;UUID&quot;, typeName: &quot;mce::UUID&quot;, id: 1, branchId: 0, recurseId: &#45;1, attributes: 256, notes: &quot;&quot; -->
<g id="node2" class="node">
<title>1</title>
<ellipse fill="none" stroke="black" cx="831.42" cy="-934" rx="32.49" ry="18"/>
<text text-anchor="middle" x="831.42" y="-930.3" font-family="Times New Roman,serif" font-size="14.00">UUID</text>
</g>
<!-- 0&#45;&gt;1 -->
<g id="edge1" class="edge">
<title>0&#45;&gt;1</title>
<path fill="none" stroke="black" d="M73.89,-548.18C73.22,-606.14 79.75,-787.61 182.89,-871 366.46,-1019.43 681.9,-967.49 791.53,-943.42"/>
<polygon fill="black" stroke="black" points="792.49,-946.79 801.48,-941.18 790.96,-939.96 792.49,-946.79"/>
</g>
<!-- 3 -->
<!-- name: &quot;Player Name&quot;, typeName: &quot;&quot;, id: 3, branchId: 0, recurseId: &#45;1, attributes: 0, notes: &quot;&quot; -->
<g id="node4" class="node">
<title>3</title>
<ellipse fill="none" stroke="black" cx="831.42" cy="-878" rx="56.59" ry="18"/>
<text text-anchor="middle" x="831.42" y="-874.3" font-family="Times New Roman,serif" font-size="14.00">Player Name</text>
</g>
<!-- 0&#45;&gt;3 -->
<g id="edge3" class="edge">
<title>0&#45;&gt;3</title>
<path fill="none" stroke="black" d="M74.73,-548.32C76.65,-601.86 90.3,-758.73 182.89,-829 273,-897.39 619.76,-888.67 765.4,-881.7"/>
<polygon fill="black" stroke="black" points="765.72,-885.19 775.54,-881.21 765.38,-878.2 765.72,-885.19"/>
</g>
<!-- 5 -->
<!-- name: &quot;Target Runtime ID&quot;, typeName: &quot;ActorRuntimeID&quot;, id: 5, branchId: 0, recurseId: &#45;1, attributes: 256, notes: &quot;&quot; -->
<g id="node6" class="node">
<title>5</title>
<ellipse fill="none" stroke="black" cx="635.53" cy="-823" rx="78.79" ry="18"/>
<text text-anchor="middle" x="635.53" y="-819.3" font-family="Times New Roman,serif" font-size="14.00">Target Runtime ID</text>
</g>
<!-- 0&#45;&gt;5 -->
<g id="edge5" class="edge">
<title>0&#45;&gt;5</title>
<path fill="none" stroke="black" d="M76.08,-548.22C81.42,-595.99 102.98,-725.09 182.89,-783 296.81,-865.56 471.82,-852.33 567.08,-836.83"/>
<polygon fill="black" stroke="black" points="567.89,-840.24 577.17,-835.13 566.72,-833.34 567.89,-840.24"/>
</g>
<!-- 7 -->
<!-- name: &quot;Platform Chat Id&quot;, typeName: &quot;&quot;, id: 7, branchId: 0, recurseId: &#45;1, attributes: 0, notes: &quot;&quot; -->
<g id="node8" class="node">
<title>7</title>
<ellipse fill="none" stroke="black" cx="831.42" cy="-772" rx="71.49" ry="18"/>
<text text-anchor="middle" x="831.42" y="-768.3" font-family="Times New Roman,serif" font-size="14.00">Platform Chat Id</text>
</g>
<!-- 0&#45;&gt;7 -->
<g id="edge7" class="edge">
<title>0&#45;&gt;7</title>
<path fill="none" stroke="black" d="M78.88,-548.03C89.42,-586.65 119.97,-677.11 182.89,-717 275.1,-775.46 598.03,-776.96 750.08,-774.21"/>
<polygon fill="black" stroke="black" points="750.36,-777.71 760.29,-774.02 750.22,-770.71 750.36,-777.71"/>
</g>
<!-- 9 -->
<!-- name: &quot;Position&quot;, typeName: &quot;Vec3&quot;, id: 9, branchId: 0, recurseId: &#45;1, attributes: 256, notes: &quot;&quot; -->
<g id="node10" class="node">
<title>9</title>
<ellipse fill="none" stroke="black" cx="635.53" cy="-715" rx="40.09" ry="18"/>
<text text-anchor="middle" x="635.53" y="-711.3" font-family="Times New Roman,serif" font-size="14.00">Position</text>
</g>
<!-- 0&#45;&gt;9 -->
<g id="edge9" class="edge">
<title>0&#45;&gt;9</title>
<path fill="none" stroke="black" d="M81.84,-547.89C96.07,-579.79 130.58,-645.84 182.89,-675 314.37,-748.29 501.43,-734.41 587.67,-722.69"/>
<polygon fill="black" stroke="black" points="588.27,-726.14 597.68,-721.28 587.29,-719.21 588.27,-726.14"/>
</g>
<!-- 11 -->
<!-- name: &quot;Velocity&quot;, typeName: &quot;Vec3&quot;, id: 11, branchId: 0, recurseId: &#45;1, attributes: 256, notes: &quot;&quot; -->
<g id="node12" class="node">
<title>11</title>
<ellipse fill="none" stroke="black" cx="831.42" cy="-664" rx="40.89" ry="18"/>
<text text-anchor="middle" x="831.42" y="-660.3" font-family="Times New Roman,serif" font-size="14.00">Velocity</text>
</g>
<!-- 0&#45;&gt;11 -->
<g id="edge11" class="edge">
<title>0&#45;&gt;11</title>
<path fill="none" stroke="black" d="M95.3,-547.52C116.07,-563.88 149.57,-587.46 182.89,-599 395.69,-672.69 669.66,-671.03 780.54,-666.69"/>
<polygon fill="black" stroke="black" points="780.91,-670.18 790.75,-666.26 780.62,-663.18 780.91,-670.18"/>
</g>
<!-- 13 -->
<!-- name: &quot;Rotation&quot;, typeName: &quot;Vec2&quot;, id: 13, branchId: 0, recurseId: &#45;1, attributes: 256, notes: &quot;&quot; -->
<g id="node14" class="node">
<title>13</title>
<ellipse fill="none" stroke="black" cx="635.53" cy="-607" rx="42.49" ry="18"/>
<text text-anchor="middle" x="635.53" y="-603.3" font-family="Times New Roman,serif" font-size="14.00">Rotation</text>
</g>
<!-- 0&#45;&gt;13 -->
<g id="edge13" class="edge">
<title>0&#45;&gt;13</title>
<path fill="none" stroke="black" d="M112.21,-545.39C132.77,-553.12 158.85,-561.91 182.89,-567 325.75,-597.24 498.73,-604.66 583.16,-606.45"/>
<polygon fill="black" stroke="black" points="583.18,-609.95 593.25,-606.65 583.32,-602.95 583.18,-609.95"/>
</g>
<!-- 15 -->
<!-- name: &quot;Y&#45;Head Rotation&quot;, typeName: &quot;&quot;, id: 15, branchId: 0, recurseId: &#45;1, attributes: 0, notes: &quot;&quot; -->
<g id="node16" class="node">
<title>15</title>
<ellipse fill="none" stroke="black" cx="831.42" cy="-554" rx="72.59" ry="18"/>
<text text-anchor="middle" x="831.42" y="-550.3" font-family="Times New Roman,serif" font-size="14.00">Y&#45;Head Rotation</text>
</g>
<!-- 0&#45;&gt;15 -->
<g id="edge15" class="edge">
<title>0&#45;&gt;15</title>
<path fill="none" stroke="black" d="M146.19,-532.71C158.43,-533.15 171.02,-533.6 182.89,-534 386.52,-540.9 626.21,-548.05 748.96,-551.64"/>
<polygon fill="black" stroke="black" points="748.93,-555.14 759.03,-551.93 749.13,-548.14 748.93,-555.14"/>
</g>
<!-- 17 -->
<!-- name: &quot;Carried Item&quot;, typeName: &quot;NetworkItemStackDescriptor&quot;, id: 17, branchId: 0, recurseId: &#45;1, attributes: 256, notes: &quot;&quot; -->
<g id="node18" class="node">
<title>17</title>
<ellipse fill="none" stroke="black" cx="351.89" cy="-507" rx="55.79" ry="18"/>
<text text-anchor="middle" x="351.89" y="-503.3" font-family="Times New Roman,serif" font-size="14.00">Carried Item</text>
</g>
<!-- 0&#45;&gt;17 -->
<g id="edge17" class="edge">
<title>0&#45;&gt;17</title>
<path fill="none" stroke="black" d="M143.13,-524.29C187.25,-520.61 244.14,-515.88 287.23,-512.3"/>
<polygon fill="black" stroke="black" points="287.64,-515.77 297.32,-511.46 287.06,-508.8 287.64,-515.77"/>
</g>
<!-- 46 -->
<!-- name: &quot;Player Game Type&quot;, typeName: &quot;&quot;, id: 46, branchId: 0, recurseId: &#45;1, attributes: 0, notes: &quot;enumeration: GameType&quot; -->
<g id="node20" class="node">
<title>46</title>
<ellipse fill="none" stroke="black" cx="351.89" cy="-452" rx="78.79" ry="18"/>
<text text-anchor="middle" x="351.89" y="-448.3" font-family="Times New Roman,serif" font-size="14.00">Player Game Type</text>
</g>
<!-- 0&#45;&gt;46 -->
<g id="edge19" class="edge">
<title>0&#45;&gt;46</title>
<path fill="none" stroke="black" d="M104.43,-513.53C125.74,-502.49 155.34,-488.48 182.89,-480 210.7,-471.44 241.96,-465.32 269.9,-461.04"/>
<polygon fill="black" stroke="black" points="270.65,-464.46 280.03,-459.54 269.63,-457.54 270.65,-464.46"/>
</g>
<!-- 48 -->
<!-- name: &quot;Dependency on &#39;SynchedActorDataEntityWrapper exist?&#39;&quot;, typeName: &quot;&quot;, id: 48, branchId: 0, recurseId: &#45;1, attributes: 2, notes: &quot;&quot; -->
<g id="node22" class="node">
<title>48</title>
<polygon fill="none" stroke="black" points="514.89,-414 182.89,-414 182.89,-378 520.89,-378 520.89,-408 514.89,-414"/>
<polyline fill="none" stroke="black" points="514.89,-414 514.89,-408 "/>
<polyline fill="none" stroke="black" points="520.89,-408 514.89,-408 "/>
<text text-anchor="middle" x="351.89" y="-392.3" font-family="Times New Roman,serif" font-size="14.00">Dependency on &#39;SynchedActorDataEntityWrapper exist?&#39;</text>
</g>
<!-- 0&#45;&gt;48 -->
<g id="edge21" class="edge">
<title>0&#45;&gt;48</title>
<path fill="none" stroke="black" d="M87.24,-512.18C105.52,-488.16 141.53,-446.01 182.89,-425 188.21,-422.29 193.74,-419.84 199.41,-417.6"/>
<polygon fill="black" stroke="black" points="200.89,-420.78 209.07,-414.05 198.48,-414.21 200.89,-420.78"/>
</g>
<!-- 60 -->
<!-- name: &quot;Synched Properties&quot;, typeName: &quot;PropertySyncData&quot;, id: 60, branchId: 0, recurseId: &#45;1, attributes: 256, notes: &quot;&quot; -->
<g id="node29" class="node">
<title>60</title>
<ellipse fill="none" stroke="black" cx="351.89" cy="-329" rx="81.79" ry="18"/>
<text text-anchor="middle" x="351.89" y="-325.3" font-family="Times New Roman,serif" font-size="14.00">Synched Properties</text>
</g>
<!-- 0&#45;&gt;60 -->
<g id="edge28" class="edge">
<title>0&#45;&gt;60</title>
<path fill="none" stroke="black" d="M81.31,-512.02C95.11,-478.36 129.56,-405.95 182.89,-369 206.7,-352.5 236.48,-342.76 264.32,-337.02"/>
<polygon fill="black" stroke="black" points="265.3,-340.4 274.47,-335.08 263.99,-333.52 265.3,-340.4"/>
</g>
<!-- 79 -->
<!-- name: &quot;AbilitiesData&quot;, typeName: &quot;SerializedAbilitiesData&quot;, id: 79, branchId: 0, recurseId: &#45;1, attributes: 256, notes: &quot;&quot; -->
<g id="node31" class="node">
<title>79</title>
<ellipse fill="none" stroke="black" cx="351.89" cy="-248" rx="56.59" ry="18"/>
<text text-anchor="middle" x="351.89" y="-244.3" font-family="Times New Roman,serif" font-size="14.00">AbilitiesData</text>
</g>
<!-- 0&#45;&gt;79 -->
<g id="edge30" class="edge">
<title>0&#45;&gt;79</title>
<path fill="none" stroke="black" d="M77.92,-511.95C87.12,-469.09 116.09,-360.46 182.89,-302 212.16,-276.38 253.72,-262.89 288.18,-255.8"/>
<polygon fill="black" stroke="black" points="289,-259.21 298.16,-253.88 287.68,-252.34 289,-259.21"/>
</g>
<!-- 105 -->
<!-- name: &quot;Actor Links&quot;, typeName: &quot;&quot;, id: 105, branchId: 0, recurseId: &#45;1, attributes: 8, notes: &quot;&quot; -->
<g id="node33" class="node">
<title>105</title>
<ellipse fill="none" stroke="black" cx="351.89" cy="-180" rx="53.89" ry="18"/>
<text text-anchor="middle" x="351.89" y="-176.3" font-family="Times New Roman,serif" font-size="14.00">Actor Links</text>
</g>
<!-- 0&#45;&gt;105 -->
<g id="edge32" class="edge">
<title>0&#45;&gt;105</title>
<path fill="none" stroke="black" d="M75.1,-511.8C78.05,-458.49 94.21,-301.37 182.89,-221 211.23,-195.31 252.98,-185.04 287.77,-181.2"/>
<polygon fill="black" stroke="black" points="288.22,-184.67 297.85,-180.24 287.56,-177.7 288.22,-184.67"/>
</g>
<!-- 122 -->
<!-- name: &quot;Device Id&quot;, typeName: &quot;&quot;, id: 122, branchId: 0, recurseId: &#45;1, attributes: 0, notes: &quot;A unique device id obtained from the connection request.&quot; -->
<g id="node39" class="node">
<title>122</title>
<ellipse fill="none" stroke="black" cx="635.53" cy="-72" rx="46.29" ry="18"/>
<text text-anchor="middle" x="635.53" y="-68.3" font-family="Times New Roman,serif" font-size="14.00">Device Id</text>
</g>
<!-- 0&#45;&gt;122 -->
<g id="edge38" class="edge">
<title>0&#45;&gt;122</title>
<path fill="none" stroke="black" d="M77.11,-511.78C87.52,-443.34 127.52,-202.96 182.89,-153 240.48,-101.03 471.86,-81.25 579.25,-74.77"/>
<polygon fill="black" stroke="black" points="579.78,-78.24 589.56,-74.16 579.37,-71.25 579.78,-78.24"/>
</g>
<!-- 124 -->
<!-- name: &quot;Build Platform&quot;, typeName: &quot;&quot;, id: 124, branchId: 0, recurseId: &#45;1, attributes: 0, notes: &quot;enumeration: BuildPlatform&quot; -->
<g id="node41" class="node">
<title>124</title>
<ellipse fill="none" stroke="black" cx="351.89" cy="-36" rx="63.89" ry="18"/>
<text text-anchor="middle" x="351.89" y="-32.3" font-family="Times New Roman,serif" font-size="14.00">Build Platform</text>
</g>
<!-- 0&#45;&gt;124 -->
<g id="edge40" class="edge">
<title>0&#45;&gt;124</title>
<path fill="none" stroke="black" d="M76.85,-511.8C86.83,-438.6 127.16,-166.54 182.89,-103 209.19,-73.01 250.77,-56.28 285.98,-47.04"/>
<polygon fill="black" stroke="black" points="286.86,-50.43 295.72,-44.63 285.18,-43.64 286.86,-50.43"/>
</g>
<!-- 2 -->
<!-- name: &quot;mce::UUID&quot;, typeName: &quot;&quot;, id: 2, branchId: 0, recurseId: &#45;1, attributes: 512, notes: &quot;&quot; -->
<g id="node3" class="node">
<title>2</title>
<ellipse fill="none" stroke="black" cx="1683.74" cy="-936" rx="51.99" ry="18"/>
<text text-anchor="middle" x="1683.74" y="-932.3" font-family="Times New Roman,serif" font-size="14.00">mce::UUID</text>
</g>
<!-- 1&#45;&gt;2 -->
<g id="edge2" class="edge">
<title>1&#45;&gt;2</title>
<path fill="none" stroke="black" d="M863.94,-934.07C989.21,-934.37 1453.09,-935.46 1621.31,-935.86"/>
<polygon fill="black" stroke="black" points="1621.47,-939.36 1631.48,-935.88 1621.49,-932.36 1621.47,-939.36"/>
</g>
<!-- 4 -->
<!-- name: &quot;string&quot;, typeName: &quot;&quot;, id: 4, branchId: 0, recurseId: &#45;1, attributes: 512, notes: &quot;&quot; -->
<g id="node5" class="node">
<title>4</title>
<ellipse fill="none" stroke="black" cx="1683.74" cy="-882" rx="30.59" ry="18"/>
<text text-anchor="middle" x="1683.74" y="-878.3" font-family="Times New Roman,serif" font-size="14.00">string</text>
</g>
<!-- 3&#45;&gt;4 -->
<g id="edge4" class="edge">
<title>3&#45;&gt;4</title>
<path fill="none" stroke="black" d="M888.21,-878.26C1048.09,-879.01 1505.26,-881.17 1643,-881.81"/>
<polygon fill="black" stroke="black" points="1643.09,-885.31 1653.1,-881.86 1643.12,-878.31 1643.09,-885.31"/>
</g>
<!-- 6 -->
<!-- name: &quot;ActorRuntimeID&quot;, typeName: &quot;&quot;, id: 6, branchId: 0, recurseId: &#45;1, attributes: 512, notes: &quot;&quot; -->
<g id="node7" class="node">
<title>6</title>
<ellipse fill="none" stroke="black" cx="1683.74" cy="-828" rx="71.49" ry="18"/>
<text text-anchor="middle" x="1683.74" y="-824.3" font-family="Times New Roman,serif" font-size="14.00">ActorRuntimeID</text>
</g>
<!-- 5&#45;&gt;6 -->
<g id="edge6" class="edge">
<title>5&#45;&gt;6</title>
<path fill="none" stroke="black" d="M714.31,-823.37C907.15,-824.29 1405.84,-826.68 1601.89,-827.61"/>
<polygon fill="black" stroke="black" points="1602.1,-831.11 1612.12,-827.66 1602.13,-824.11 1602.1,-831.11"/>
</g>
<!-- 8 -->
<!-- name: &quot;string&quot;, typeName: &quot;&quot;, id: 8, branchId: 0, recurseId: &#45;1, attributes: 512, notes: &quot;&quot; -->
<g id="node9" class="node">
<title>8</title>
<ellipse fill="none" stroke="black" cx="1683.74" cy="-774" rx="30.59" ry="18"/>
<text text-anchor="middle" x="1683.74" y="-770.3" font-family="Times New Roman,serif" font-size="14.00">string</text>
</g>
<!-- 7&#45;&gt;8 -->
<g id="edge8" class="edge">
<title>7&#45;&gt;8</title>
<path fill="none" stroke="black" d="M903.09,-772.17C1074.59,-772.57 1508.6,-773.59 1642.67,-773.91"/>
<polygon fill="black" stroke="black" points="1642.88,-777.41 1652.89,-773.93 1642.89,-770.41 1642.88,-777.41"/>
</g>
<!-- 10 -->
<!-- name: &quot;Vec3&quot;, typeName: &quot;&quot;, id: 10, branchId: 0, recurseId: &#45;1, attributes: 512, notes: &quot;&quot; -->
<g id="node11" class="node">
<title>10</title>
<ellipse fill="none" stroke="black" cx="1683.74" cy="-720" rx="29.8" ry="18"/>
<text text-anchor="middle" x="1683.74" y="-716.3" font-family="Times New Roman,serif" font-size="14.00">Vec3</text>
</g>
<!-- 9&#45;&gt;10 -->
<g id="edge10" class="edge">
<title>9&#45;&gt;10</title>
<path fill="none" stroke="black" d="M675.95,-715.19C841.25,-715.98 1477.66,-719.02 1643.2,-719.81"/>
<polygon fill="black" stroke="black" points="1643.4,-723.31 1653.41,-719.86 1643.43,-716.31 1643.4,-723.31"/>
</g>
<!-- 12 -->
<!-- name: &quot;Vec3&quot;, typeName: &quot;&quot;, id: 12, branchId: 0, recurseId: &#45;1, attributes: 512, notes: &quot;&quot; -->
<g id="node13" class="node">
<title>12</title>
<ellipse fill="none" stroke="black" cx="1683.74" cy="-666" rx="29.8" ry="18"/>
<text text-anchor="middle" x="1683.74" y="-662.3" font-family="Times New Roman,serif" font-size="14.00">Vec3</text>
</g>
<!-- 11&#45;&gt;12 -->
<g id="edge12" class="edge">
<title>11&#45;&gt;12</title>
<path fill="none" stroke="black" d="M872.57,-664.09C1015.83,-664.43 1500.82,-665.57 1643.16,-665.91"/>
<polygon fill="black" stroke="black" points="1643.57,-669.41 1653.57,-665.93 1643.58,-662.41 1643.57,-669.41"/>
</g>
<!-- 14 -->
<!-- name: &quot;Vec2&quot;, typeName: &quot;&quot;, id: 14, branchId: 0, recurseId: &#45;1, attributes: 512, notes: &quot;&quot; -->
<g id="node15" class="node">
<title>14</title>
<ellipse fill="none" stroke="black" cx="1683.74" cy="-612" rx="29.8" ry="18"/>
<text text-anchor="middle" x="1683.74" y="-608.3" font-family="Times New Roman,serif" font-size="14.00">Vec2</text>
</g>
<!-- 13&#45;&gt;14 -->
<g id="edge14" class="edge">
<title>13&#45;&gt;14</title>
<path fill="none" stroke="black" d="M677.87,-607.2C846.2,-608 1478.94,-611.03 1643.45,-611.81"/>
<polygon fill="black" stroke="black" points="1643.59,-615.31 1653.6,-611.86 1643.62,-608.31 1643.59,-615.31"/>
</g>
<!-- 16 -->
<!-- name: &quot;float&quot;, typeName: &quot;&quot;, id: 16, branchId: 0, recurseId: &#45;1, attributes: 512, notes: &quot;&quot; -->
<g id="node17" class="node">
<title>16</title>
<ellipse fill="none" stroke="black" cx="1683.74" cy="-558" rx="27" ry="18"/>
<text text-anchor="middle" x="1683.74" y="-554.3" font-family="Times New Roman,serif" font-size="14.00">float</text>
</g>
<!-- 15&#45;&gt;16 -->
<g id="edge16" class="edge">
<title>15&#45;&gt;16</title>
<path fill="none" stroke="black" d="M904.55,-554.34C1078.7,-555.16 1517.31,-557.22 1646.44,-557.83"/>
<polygon fill="black" stroke="black" points="1646.57,-561.33 1656.59,-557.88 1646.6,-554.33 1646.57,-561.33"/>
</g>
<!-- 45 -->
<!-- name: &quot;NetworkItemStackDescriptor&quot;, typeName: &quot;&quot;, id: 45, branchId: 0, recurseId: &#45;1, attributes: 512, notes: &quot;&quot; -->
<g id="node19" class="node">
<title>45</title>
<ellipse fill="none" stroke="black" cx="1683.74" cy="-504" rx="116.98" ry="18"/>
<text text-anchor="middle" x="1683.74" y="-500.3" font-family="Times New Roman,serif" font-size="14.00">NetworkItemStackDescriptor</text>
</g>
<!-- 17&#45;&gt;45 -->
<g id="edge18" class="edge">
<title>17&#45;&gt;45</title>
<path fill="none" stroke="black" d="M407.92,-506.88C604.37,-506.43 1274.45,-504.92 1556.26,-504.29"/>
<polygon fill="black" stroke="black" points="1556.53,-507.78 1566.52,-504.26 1556.52,-500.78 1556.53,-507.78"/>
</g>
<!-- 47 -->
<!-- name: &quot;varint&quot;, typeName: &quot;&quot;, id: 47, branchId: 0, recurseId: &#45;1, attributes: 512, notes: &quot;&quot; -->
<g id="node21" class="node">
<title>47</title>
<ellipse fill="none" stroke="black" cx="1683.74" cy="-450" rx="30.59" ry="18"/>
<text text-anchor="middle" x="1683.74" y="-446.3" font-family="Times New Roman,serif" font-size="14.00">varint</text>
</g>
<!-- 46&#45;&gt;47 -->
<g id="edge20" class="edge">
<title>46&#45;&gt;47</title>
<path fill="none" stroke="black" d="M430.62,-451.88C680.49,-451.51 1457.6,-450.34 1642.82,-450.06"/>
<polygon fill="black" stroke="black" points="1642.94,-453.56 1652.93,-450.04 1642.92,-446.56 1642.94,-453.56"/>
</g>
<!-- 49 -->
<!-- name: &quot;if (0)&quot;, typeName: &quot;&quot;, id: 49, branchId: 0, recurseId: &#45;1, attributes: 4, notes: &quot;&quot; -->
<g id="node23" class="node">
<title>49</title>
<polygon fill="none" stroke="black" points="635.53,-414 595.14,-396 635.53,-378 675.92,-396 635.53,-414"/>
<text text-anchor="middle" x="635.53" y="-392.3" font-family="Times New Roman,serif" font-size="14.00">if (0)</text>
</g>
<!-- 48&#45;&gt;49 -->
<g id="edge22" class="edge">
<title>48&#45;&gt;49</title>
<path fill="none" stroke="black" d="M521.19,-396C544.28,-396 566.34,-396 584.76,-396"/>
<polygon fill="black" stroke="black" points="584.89,-399.5 594.89,-396 584.89,-392.5 584.89,-399.5"/>
</g>
<!-- 57 -->
<!-- name: &quot;if (1)&quot;, typeName: &quot;&quot;, id: 57, branchId: 1, recurseId: &#45;1, attributes: 4, notes: &quot;&quot; -->
<g id="node26" class="node">
<title>57</title>
<polygon fill="none" stroke="black" points="635.53,-360 595.14,-342 635.53,-324 675.92,-342 635.53,-360"/>
<text text-anchor="middle" x="635.53" y="-338.3" font-family="Times New Roman,serif" font-size="14.00">if (1)</text>
</g>
<!-- 48&#45;&gt;57 -->
<g id="edge25" class="edge">
<title>48&#45;&gt;57</title>
<path fill="none" stroke="black" d="M447.06,-377.94C498.22,-368.13 558.64,-356.55 596.77,-349.24"/>
<polygon fill="black" stroke="black" points="597.75,-352.62 606.91,-347.3 596.43,-345.74 597.75,-352.62"/>
</g>
<!-- 50 -->
<!-- name: &quot;Unpack&quot;, typeName: &quot;std::vector&lt;class std::unique_ptr&lt;class DataItem,struct std::default_delete&lt;class DataItem&gt; &gt;,class std::allocator&lt;class std::unique_ptr&lt;class DataItem,struct std::default_delete&lt;class DataItem&gt; &gt; &gt; &gt;&quot;, id: 50, branchId: 0, recurseId: &#45;1, attributes: 256, notes: &quot;std::vector&lt;std::unique_ptr&lt;DataItem&gt;&gt;&quot; -->
<g id="node24" class="node">
<title>50</title>
<ellipse fill="none" stroke="black" cx="831.42" cy="-396" rx="38.99" ry="18"/>
<text text-anchor="middle" x="831.42" y="-392.3" font-family="Times New Roman,serif" font-size="14.00">Unpack</text>
</g>
<!-- 49&#45;&gt;50 -->
<g id="edge23" class="edge">
<title>49&#45;&gt;50</title>
<path fill="none" stroke="black" d="M676.23,-396C706.92,-396 749.54,-396 782.19,-396"/>
<polygon fill="black" stroke="black" points="782.41,-399.5 792.41,-396 782.41,-392.5 782.41,-399.5"/>
</g>
<!-- 56 -->
<!-- name: &quot;std::vector&lt;class std::unique_ptr&lt;class DataItem,struct std::default_delete&lt;class DataItem&gt; &gt;,class std::allocator&lt;class std::unique_ptr&lt;class DataItem,struct std::default_delete&lt;class DataItem&gt; &gt; &gt; &gt;&quot;, typeName: &quot;&quot;, id: 56, branchId: 0, recurseId: &#45;1, attributes: 512, notes: &quot;&quot; -->
<g id="node25" class="node">
<title>56</title>
<ellipse fill="none" stroke="black" cx="1683.74" cy="-396" rx="735.17" ry="18"/>
<text text-anchor="middle" x="1683.74" y="-392.3" font-family="Times New Roman,serif" font-size="14.00">std::vector&lt;class std::unique_ptr&lt;class DataItem,struct std::default_delete&lt;class DataItem&gt; &gt;,class std::allocator&lt;class std::unique_ptr&lt;class DataItem,struct std::default_delete&lt;class DataItem&gt; &gt; &gt; &gt;</text>
</g>
<!-- 50&#45;&gt;56 -->
<g id="edge24" class="edge">
<title>50&#45;&gt;56</title>
<path fill="none" stroke="black" d="M870.6,-396C888.16,-396 911.14,-396 938.18,-396"/>
<polygon fill="black" stroke="black" points="938.33,-399.5 948.33,-396 938.33,-392.5 938.33,-399.5"/>
</g>
<!-- 58 -->
<!-- name: &quot;Entity Data PackAll&quot;, typeName: &quot;std::vector&lt;class std::unique_ptr&lt;class DataItem,struct std::default_delete&lt;class DataItem&gt; &gt;,class std::allocator&lt;class std::unique_ptr&lt;class DataItem,struct std::default_delete&lt;class DataItem&gt; &gt; &gt; &gt;&quot;, id: 58, branchId: 0, recurseId: &#45;1, attributes: 256, notes: &quot;std::vector&lt;std::unique_ptr&lt;DataItem&gt;&gt;&quot; -->
<g id="node27" class="node">
<title>58</title>
<ellipse fill="none" stroke="black" cx="831.42" cy="-342" rx="81.49" ry="18"/>
<text text-anchor="middle" x="831.42" y="-338.3" font-family="Times New Roman,serif" font-size="14.00">Entity Data PackAll</text>
</g>
<!-- 57&#45;&gt;58 -->
<g id="edge26" class="edge">
<title>57&#45;&gt;58</title>
<path fill="none" stroke="black" d="M676.23,-342C694.68,-342 717.43,-342 739.74,-342"/>
<polygon fill="black" stroke="black" points="739.95,-345.5 749.95,-342 739.95,-338.5 739.95,-345.5"/>
</g>
<!-- 59 -->
<!-- name: &quot;std::vector&lt;class std::unique_ptr&lt;class DataItem,struct std::default_delete&lt;class DataItem&gt; &gt;,class std::allocator&lt;class std::unique_ptr&lt;class DataItem,struct std::default_delete&lt;class DataItem&gt; &gt; &gt; &gt;&quot;, typeName: &quot;&quot;, id: 59, branchId: 0, recurseId: &#45;1, attributes: 512, notes: &quot;&quot; -->
<g id="node28" class="node">
<title>59</title>
<ellipse fill="none" stroke="black" cx="1683.74" cy="-342" rx="735.17" ry="18"/>
<text text-anchor="middle" x="1683.74" y="-338.3" font-family="Times New Roman,serif" font-size="14.00">std::vector&lt;class std::unique_ptr&lt;class DataItem,struct std::default_delete&lt;class DataItem&gt; &gt;,class std::allocator&lt;class std::unique_ptr&lt;class DataItem,struct std::default_delete&lt;class DataItem&gt; &gt; &gt; &gt;</text>
</g>
<!-- 58&#45;&gt;59 -->
<g id="edge27" class="edge">
<title>58&#45;&gt;59</title>
<path fill="none" stroke="black" d="M912.8,-342C920.77,-342 929.23,-342 938.13,-342"/>
<polygon fill="black" stroke="black" points="938.36,-345.5 948.36,-342 938.36,-338.5 938.36,-345.5"/>
</g>
<!-- 78 -->
<!-- name: &quot;PropertySyncData&quot;, typeName: &quot;&quot;, id: 78, branchId: 0, recurseId: &#45;1, attributes: 512, notes: &quot;&quot; -->
<g id="node30" class="node">
<title>78</title>
<ellipse fill="none" stroke="black" cx="1683.74" cy="-288" rx="77.19" ry="18"/>
<text text-anchor="middle" x="1683.74" y="-284.3" font-family="Times New Roman,serif" font-size="14.00">PropertySyncData</text>
</g>
<!-- 60&#45;&gt;78 -->
<g id="edge29" class="edge">
<title>60&#45;&gt;78</title>
<path fill="none" stroke="black" d="M429.37,-322.94C467.64,-320.12 514.69,-316.95 556.89,-315 944.28,-297.07 1407.25,-290.72 1596.11,-288.76"/>
<polygon fill="black" stroke="black" points="1596.29,-292.26 1606.26,-288.66 1596.22,-285.26 1596.29,-292.26"/>
</g>
<!-- 104 -->
<!-- name: &quot;SerializedAbilitiesData&quot;, typeName: &quot;&quot;, id: 104, branchId: 0, recurseId: &#45;1, attributes: 512, notes: &quot;&quot; -->
<g id="node32" class="node">
<title>104</title>
<ellipse fill="none" stroke="black" cx="1683.74" cy="-234" rx="90.98" ry="18"/>
<text text-anchor="middle" x="1683.74" y="-230.3" font-family="Times New Roman,serif" font-size="14.00">SerializedAbilitiesData</text>
</g>
<!-- 79&#45;&gt;104 -->
<g id="edge31" class="edge">
<title>79&#45;&gt;104</title>
<path fill="none" stroke="black" d="M408.76,-247.41C612.71,-245.26 1318.9,-237.83 1582.49,-235.06"/>
<polygon fill="black" stroke="black" points="1582.85,-238.55 1592.82,-234.95 1582.78,-231.55 1582.85,-238.55"/>
</g>
<!-- 106 -->
<!-- name: &quot;Array Size&quot;, typeName: &quot;&quot;, id: 106, branchId: 0, recurseId: &#45;1, attributes: 0, notes: &quot;&quot; -->
<g id="node34" class="node">
<title>106</title>
<ellipse fill="none" stroke="black" cx="635.53" cy="-180" rx="48.99" ry="18"/>
<text text-anchor="middle" x="635.53" y="-176.3" font-family="Times New Roman,serif" font-size="14.00">Array Size</text>
</g>
<!-- 105&#45;&gt;106 -->
<g id="edge33" class="edge">
<title>105&#45;&gt;106</title>
<path fill="none" stroke="black" d="M405.86,-180C454.46,-180 526.3,-180 576.45,-180"/>
<polygon fill="black" stroke="black" points="576.49,-183.5 586.49,-180 576.49,-176.5 576.49,-183.5"/>
</g>
<!-- 108 -->
<!-- name: &quot;example element&quot;, typeName: &quot;&quot;, id: 108, branchId: 0, recurseId: &#45;1, attributes: 16, notes: &quot;&quot; -->
<g id="node36" class="node">
<title>108</title>
<ellipse fill="none" stroke="black" stroke-dasharray="1,5" cx="635.53" cy="-126" rx="70.39" ry="18"/>
<text text-anchor="middle" x="635.53" y="-122.3" font-family="Times New Roman,serif" font-size="14.00">example element</text>
</g>
<!-- 105&#45;&gt;108 -->
<g id="edge35" class="edge">
<title>105&#45;&gt;108</title>
<path fill="none" stroke="black" d="M399.08,-171.14C445.24,-162.29 516.64,-148.6 568.72,-138.62"/>
<polygon fill="black" stroke="black" points="569.7,-141.99 578.87,-136.67 568.38,-135.12 569.7,-141.99"/>
</g>
<!-- 107 -->
<!-- name: &quot;unsigned varint&quot;, typeName: &quot;&quot;, id: 107, branchId: 0, recurseId: &#45;1, attributes: 512, notes: &quot;&quot; -->
<g id="node35" class="node">
<title>107</title>
<ellipse fill="none" stroke="black" cx="1683.74" cy="-180" rx="65.79" ry="18"/>
<text text-anchor="middle" x="1683.74" y="-176.3" font-family="Times New Roman,serif" font-size="14.00">unsigned varint</text>
</g>
<!-- 106&#45;&gt;107 -->
<g id="edge34" class="edge">
<title>106&#45;&gt;107</title>
<path fill="none" stroke="black" d="M684.55,-180C851.09,-180 1404.77,-180 1607.52,-180"/>
<polygon fill="black" stroke="black" points="1607.77,-183.5 1617.77,-180 1607.77,-176.5 1607.77,-183.5"/>
</g>
<!-- 109 -->
<!-- name: &quot;Link&quot;, typeName: &quot;ActorLink&quot;, id: 109, branchId: 0, recurseId: &#45;1, attributes: 256, notes: &quot;&quot; -->
<g id="node37" class="node">
<title>109</title>
<ellipse fill="none" stroke="black" cx="831.42" cy="-126" rx="27" ry="18"/>
<text text-anchor="middle" x="831.42" y="-122.3" font-family="Times New Roman,serif" font-size="14.00">Link</text>
</g>
<!-- 108&#45;&gt;109 -->
<g id="edge36" class="edge">
<title>108&#45;&gt;109</title>
<path fill="none" stroke="black" d="M705.98,-126C735.83,-126 769.48,-126 794.25,-126"/>
<polygon fill="black" stroke="black" points="794.29,-129.5 804.29,-126 794.29,-122.5 794.29,-129.5"/>
</g>
<!-- 121 -->
<!-- name: &quot;ActorLink&quot;, typeName: &quot;&quot;, id: 121, branchId: 0, recurseId: &#45;1, attributes: 512, notes: &quot;&quot; -->
<g id="node38" class="node">
<title>121</title>
<ellipse fill="none" stroke="black" cx="1683.74" cy="-126" rx="48.19" ry="18"/>
<text text-anchor="middle" x="1683.74" y="-122.3" font-family="Times New Roman,serif" font-size="14.00">ActorLink</text>
</g>
<!-- 109&#45;&gt;121 -->
<g id="edge37" class="edge">
<title>109&#45;&gt;121</title>
<path fill="none" stroke="black" d="M858.8,-126C976.86,-126 1458.25,-126 1625.31,-126"/>
<polygon fill="black" stroke="black" points="1625.39,-129.5 1635.39,-126 1625.39,-122.5 1625.39,-129.5"/>
</g>
<!-- 123 -->
<!-- name: &quot;string&quot;, typeName: &quot;&quot;, id: 123, branchId: 0, recurseId: &#45;1, attributes: 512, notes: &quot;&quot; -->
<g id="node40" class="node">
<title>123</title>
<ellipse fill="none" stroke="black" cx="1683.74" cy="-72" rx="30.59" ry="18"/>
<text text-anchor="middle" x="1683.74" y="-68.3" font-family="Times New Roman,serif" font-size="14.00">string</text>
</g>
<!-- 122&#45;&gt;123 -->
<g id="edge39" class="edge">
<title>122&#45;&gt;123</title>
<path fill="none" stroke="black" d="M681.82,-72C855.67,-72 1478.72,-72 1642.87,-72"/>
<polygon fill="black" stroke="black" points="1643.01,-75.5 1653.01,-72 1643.01,-68.5 1643.01,-75.5"/>
</g>
<!-- 125 -->
<!-- name: &quot;int&quot;, typeName: &quot;&quot;, id: 125, branchId: 0, recurseId: &#45;1, attributes: 512, notes: &quot;&quot; -->
<g id="node42" class="node">
<title>125</title>
<ellipse fill="none" stroke="black" cx="1683.74" cy="-18" rx="27" ry="18"/>
<text text-anchor="middle" x="1683.74" y="-14.3" font-family="Times New Roman,serif" font-size="14.00">int</text>
</g>
<!-- 124&#45;&gt;125 -->
<g id="edge41" class="edge">
<title>124&#45;&gt;125</title>
<path fill="none" stroke="black" d="M415.69,-35.15C649.41,-31.99 1464.74,-20.95 1646.6,-18.49"/>
<polygon fill="black" stroke="black" points="1646.75,-21.99 1656.7,-18.35 1646.65,-14.99 1646.75,-21.99"/>
</g>
</g>
</svg>
