<?xml version="1.0" encoding="UTF-8" standalone="no"?>
<!DOCTYPE svg PUBLIC "-//W3C//DTD SVG 1.1//EN"
 "http://www.w3.org/Graphics/SVG/1.1/DTD/svg11.dtd">
<!-- Generated by graphviz version 2.46.1 (20210213.1702)
 -->
<!-- Title: AddPaintingPacket Pages: 1 -->
<svg width="540pt" height="260pt"
 viewBox="0.00 0.00 540.16 260.00" xmlns="http://www.w3.org/2000/svg" xmlns:xlink="http://www.w3.org/1999/xlink">
<g id="graph0" class="graph" transform="scale(1 1) rotate(0) translate(4 256)">
<title>AddPaintingPacket</title>
<polygon fill="white" stroke="transparent" points="-4,4 -4,-256 536.16,-256 536.16,4 -4,4"/>
<!-- 0 -->
<!-- name: &quot;AddPaintingPacket&quot;, typeName: &quot;&quot;, id: 0, branchId: 22, recurseId: &#45;1, attributes: 0, notes: &quot;&quot; -->
<g id="node1" class="node">
<title>0</title>
<ellipse fill="none" stroke="black" cx="79.94" cy="-126" rx="79.89" ry="18"/>
<text text-anchor="middle" x="79.94" y="-122.3" font-family="Times New Roman,serif" font-size="14.00">AddPaintingPacket</text>
</g>
<!-- 1 -->
<!-- name: &quot;Target Actor ID&quot;, typeName: &quot;ActorUniqueID&quot;, id: 1, branchId: 0, recurseId: &#45;1, attributes: 256, notes: &quot;&quot; -->
<g id="node2" class="node">
<title>1</title>
<ellipse fill="none" stroke="black" cx="274.53" cy="-234" rx="69.59" ry="18"/>
<text text-anchor="middle" x="274.53" y="-230.3" font-family="Times New Roman,serif" font-size="14.00">Target Actor ID</text>
</g>
<!-- 0&#45;&gt;1 -->
<g id="edge1" class="edge">
<title>0&#45;&gt;1</title>
<path fill="none" stroke="black" d="M101.82,-143.44C124.02,-161.3 160.7,-188.94 195.89,-207 203.02,-210.66 210.76,-214.01 218.49,-217.02"/>
<polygon fill="black" stroke="black" points="217.3,-220.31 227.89,-220.51 219.73,-213.75 217.3,-220.31"/>
</g>
<!-- 3 -->
<!-- name: &quot;Target Runtime ID&quot;, typeName: &quot;ActorRuntimeID&quot;, id: 3, branchId: 0, recurseId: &#45;1, attributes: 256, notes: &quot;&quot; -->
<g id="node4" class="node">
<title>3</title>
<ellipse fill="none" stroke="black" cx="274.53" cy="-180" rx="78.79" ry="18"/>
<text text-anchor="middle" x="274.53" y="-176.3" font-family="Times New Roman,serif" font-size="14.00">Target Runtime ID</text>
</g>
<!-- 0&#45;&gt;3 -->
<g id="edge3" class="edge">
<title>0&#45;&gt;3</title>
<path fill="none" stroke="black" d="M130.79,-139.98C156.19,-147.1 187.25,-155.81 213.91,-163.28"/>
<polygon fill="black" stroke="black" points="213.32,-166.75 223.89,-166.08 215.21,-160.01 213.32,-166.75"/>
</g>
<!-- 5 -->
<!-- name: &quot;Position&quot;, typeName: &quot;Vec3&quot;, id: 5, branchId: 0, recurseId: &#45;1, attributes: 256, notes: &quot;&quot; -->
<g id="node6" class="node">
<title>5</title>
<ellipse fill="none" stroke="black" cx="274.53" cy="-126" rx="40.09" ry="18"/>
<text text-anchor="middle" x="274.53" y="-122.3" font-family="Times New Roman,serif" font-size="14.00">Position</text>
</g>
<!-- 0&#45;&gt;5 -->
<g id="edge5" class="edge">
<title>0&#45;&gt;5</title>
<path fill="none" stroke="black" d="M160.11,-126C181.74,-126 204.57,-126 224.03,-126"/>
<polygon fill="black" stroke="black" points="224.16,-129.5 234.16,-126 224.16,-122.5 224.16,-129.5"/>
</g>
<!-- 7 -->
<!-- name: &quot;Direction&quot;, typeName: &quot;&quot;, id: 7, branchId: 0, recurseId: &#45;1, attributes: 0, notes: &quot;&quot; -->
<g id="node8" class="node">
<title>7</title>
<ellipse fill="none" stroke="black" cx="274.53" cy="-72" rx="44.39" ry="18"/>
<text text-anchor="middle" x="274.53" y="-68.3" font-family="Times New Roman,serif" font-size="14.00">Direction</text>
</g>
<!-- 0&#45;&gt;7 -->
<g id="edge7" class="edge">
<title>0&#45;&gt;7</title>
<path fill="none" stroke="black" d="M130.79,-112.02C160.7,-103.64 198.47,-93.05 227.64,-84.87"/>
<polygon fill="black" stroke="black" points="228.89,-88.15 237.57,-82.08 227,-81.41 228.89,-88.15"/>
</g>
<!-- 9 -->
<!-- name: &quot;Motif&quot;, typeName: &quot;&quot;, id: 9, branchId: 0, recurseId: &#45;1, attributes: 0, notes: &quot;&quot; -->
<g id="node10" class="node">
<title>9</title>
<ellipse fill="none" stroke="black" cx="274.53" cy="-18" rx="30.59" ry="18"/>
<text text-anchor="middle" x="274.53" y="-14.3" font-family="Times New Roman,serif" font-size="14.00">Motif</text>
</g>
<!-- 0&#45;&gt;9 -->
<g id="edge9" class="edge">
<title>0&#45;&gt;9</title>
<path fill="none" stroke="black" d="M101.82,-108.56C124.02,-90.7 160.7,-63.06 195.89,-45 208.73,-38.4 223.56,-32.8 236.79,-28.44"/>
<polygon fill="black" stroke="black" points="238.06,-31.71 246.54,-25.35 235.95,-25.04 238.06,-31.71"/>
</g>
<!-- 2 -->
<!-- name: &quot;ActorUniqueID&quot;, typeName: &quot;&quot;, id: 2, branchId: 0, recurseId: &#45;1, attributes: 512, notes: &quot;&quot; -->
<g id="node3" class="node">
<title>2</title>
<ellipse fill="none" stroke="black" cx="460.67" cy="-234" rx="66.89" ry="18"/>
<text text-anchor="middle" x="460.67" y="-230.3" font-family="Times New Roman,serif" font-size="14.00">ActorUniqueID</text>
</g>
<!-- 1&#45;&gt;2 -->
<g id="edge2" class="edge">
<title>1&#45;&gt;2</title>
<path fill="none" stroke="black" d="M344.09,-234C356.84,-234 370.23,-234 383.2,-234"/>
<polygon fill="black" stroke="black" points="383.49,-237.5 393.49,-234 383.49,-230.5 383.49,-237.5"/>
</g>
<!-- 4 -->
<!-- name: &quot;ActorRuntimeID&quot;, typeName: &quot;&quot;, id: 4, branchId: 0, recurseId: &#45;1, attributes: 512, notes: &quot;&quot; -->
<g id="node5" class="node">
<title>4</title>
<ellipse fill="none" stroke="black" cx="460.67" cy="-180" rx="71.49" ry="18"/>
<text text-anchor="middle" x="460.67" y="-176.3" font-family="Times New Roman,serif" font-size="14.00">ActorRuntimeID</text>
</g>
<!-- 3&#45;&gt;4 -->
<g id="edge4" class="edge">
<title>3&#45;&gt;4</title>
<path fill="none" stroke="black" d="M353.35,-180C361.8,-180 370.4,-180 378.88,-180"/>
<polygon fill="black" stroke="black" points="379.14,-183.5 389.14,-180 379.14,-176.5 379.14,-183.5"/>
</g>
<!-- 6 -->
<!-- name: &quot;Vec3&quot;, typeName: &quot;&quot;, id: 6, branchId: 0, recurseId: &#45;1, attributes: 512, notes: &quot;&quot; -->
<g id="node7" class="node">
<title>6</title>
<ellipse fill="none" stroke="black" cx="460.67" cy="-126" rx="29.8" ry="18"/>
<text text-anchor="middle" x="460.67" y="-122.3" font-family="Times New Roman,serif" font-size="14.00">Vec3</text>
</g>
<!-- 5&#45;&gt;6 -->
<g id="edge6" class="edge">
<title>5&#45;&gt;6</title>
<path fill="none" stroke="black" d="M315.03,-126C346.27,-126 389.64,-126 420.73,-126"/>
<polygon fill="black" stroke="black" points="420.77,-129.5 430.77,-126 420.77,-122.5 420.77,-129.5"/>
</g>
<!-- 8 -->
<!-- name: &quot;varint&quot;, typeName: &quot;&quot;, id: 8, branchId: 0, recurseId: &#45;1, attributes: 512, notes: &quot;&quot; -->
<g id="node9" class="node">
<title>8</title>
<ellipse fill="none" stroke="black" cx="460.67" cy="-72" rx="30.59" ry="18"/>
<text text-anchor="middle" x="460.67" y="-68.3" font-family="Times New Roman,serif" font-size="14.00">varint</text>
</g>
<!-- 7&#45;&gt;8 -->
<g id="edge8" class="edge">
<title>7&#45;&gt;8</title>
<path fill="none" stroke="black" d="M319.17,-72C349.7,-72 390.18,-72 419.84,-72"/>
<polygon fill="black" stroke="black" points="419.85,-75.5 429.85,-72 419.85,-68.5 419.85,-75.5"/>
</g>
<!-- 10 -->
<!-- name: &quot;string&quot;, typeName: &quot;&quot;, id: 10, branchId: 0, recurseId: &#45;1, attributes: 512, notes: &quot;&quot; -->
<g id="node11" class="node">
<title>10</title>
<ellipse fill="none" stroke="black" cx="460.67" cy="-18" rx="30.59" ry="18"/>
<text text-anchor="middle" x="460.67" y="-14.3" font-family="Times New Roman,serif" font-size="14.00">string</text>
</g>
<!-- 9&#45;&gt;10 -->
<g id="edge10" class="edge">
<title>9&#45;&gt;10</title>
<path fill="none" stroke="black" d="M305.11,-18C336.16,-18 385.16,-18 419.65,-18"/>
<polygon fill="black" stroke="black" points="419.85,-21.5 429.85,-18 419.85,-14.5 419.85,-21.5"/>
</g>
</g>
</svg>
