<?xml version="1.0" encoding="UTF-8" standalone="no"?>
<!DOCTYPE svg PUBLIC "-//W3C//DTD SVG 1.1//EN"
 "http://www.w3.org/Graphics/SVG/1.1/DTD/svg11.dtd">
<!-- Generated by graphviz version 12.2.1 (20241206.2353)
 -->
<!-- Title: AdventureSettings Pages: 1 -->
<svg width="447pt" height="260pt"
 viewBox="0.00 0.00 447.48 260.00" xmlns="http://www.w3.org/2000/svg" xmlns:xlink="http://www.w3.org/1999/xlink">
<g id="graph0" class="graph" transform="scale(1 1) rotate(0) translate(4 256)">
<title>AdventureSettings</title>
<polygon fill="white" stroke="none" points="-4,4 -4,-256 443.48,-256 443.48,4 -4,4"/>
<!-- 2 -->
<!-- name: &quot;AdventureSettings&quot;, typeName: &quot;&quot;, id: 2, branchId: 0, recurseId: &#45;1, attributes: 0, notes: &quot;&quot; -->
<g id="node1" class="node">
<title>2</title>
<ellipse fill="none" stroke="black" cx="79.5" cy="-126" rx="79.5" ry="18"/>
<text text-anchor="middle" x="79.5" y="-120.95" font-family="Times New Roman,serif" font-size="14.00">AdventureSettings</text>
</g>
<!-- 3 -->
<!-- name: &quot;no PvM&quot;, typeName: &quot;&quot;, id: 3, branchId: 0, recurseId: &#45;1, attributes: 0, notes: &quot;&quot; -->
<g id="node2" class="node">
<title>3</title>
<ellipse fill="none" stroke="black" cx="271.94" cy="-234" rx="41.12" ry="18"/>
<text text-anchor="middle" x="271.94" y="-228.95" font-family="Times New Roman,serif" font-size="14.00">no PvM</text>
</g>
<!-- 2&#45;&gt;3 -->
<g id="edge1" class="edge">
<title>2&#45;&gt;3</title>
<path fill="none" stroke="black" d="M101.73,-143.73C123.89,-161.56 160.2,-188.94 195,-207 204.77,-212.07 215.71,-216.57 226.17,-220.38"/>
<polygon fill="black" stroke="black" points="224.82,-223.61 235.41,-223.59 227.11,-217 224.82,-223.61"/>
</g>
<!-- 5 -->
<!-- name: &quot;no MvP&quot;, typeName: &quot;&quot;, id: 5, branchId: 0, recurseId: &#45;1, attributes: 0, notes: &quot;&quot; -->
<g id="node4" class="node">
<title>5</title>
<ellipse fill="none" stroke="black" cx="271.94" cy="-180" rx="41.12" ry="18"/>
<text text-anchor="middle" x="271.94" y="-174.95" font-family="Times New Roman,serif" font-size="14.00">no MvP</text>
</g>
<!-- 2&#45;&gt;5 -->
<g id="edge3" class="edge">
<title>2&#45;&gt;5</title>
<path fill="none" stroke="black" d="M130.54,-140.19C160.11,-148.57 197.26,-159.11 225.92,-167.23"/>
<polygon fill="black" stroke="black" points="224.81,-170.56 235.39,-169.92 226.72,-163.82 224.81,-170.56"/>
</g>
<!-- 7 -->
<!-- name: &quot;Immutable World&quot;, typeName: &quot;&quot;, id: 7, branchId: 0, recurseId: &#45;1, attributes: 0, notes: &quot;&quot; -->
<g id="node6" class="node">
<title>7</title>
<ellipse fill="none" stroke="black" cx="271.94" cy="-126" rx="76.94" ry="18"/>
<text text-anchor="middle" x="271.94" y="-120.95" font-family="Times New Roman,serif" font-size="14.00">Immutable World</text>
</g>
<!-- 2&#45;&gt;7 -->
<g id="edge5" class="edge">
<title>2&#45;&gt;7</title>
<path fill="none" stroke="black" d="M159.34,-126C167.26,-126 175.35,-126 183.36,-126"/>
<polygon fill="black" stroke="black" points="183.1,-129.5 193.1,-126 183.1,-122.5 183.1,-129.5"/>
</g>
<!-- 9 -->
<!-- name: &quot;Show Name Tags&quot;, typeName: &quot;&quot;, id: 9, branchId: 0, recurseId: &#45;1, attributes: 0, notes: &quot;&quot; -->
<g id="node8" class="node">
<title>9</title>
<ellipse fill="none" stroke="black" cx="271.94" cy="-72" rx="76.43" ry="18"/>
<text text-anchor="middle" x="271.94" y="-66.95" font-family="Times New Roman,serif" font-size="14.00">Show Name Tags</text>
</g>
<!-- 2&#45;&gt;9 -->
<g id="edge7" class="edge">
<title>2&#45;&gt;9</title>
<path fill="none" stroke="black" d="M130.54,-111.81C155.22,-104.81 185.18,-96.32 211.08,-88.97"/>
<polygon fill="black" stroke="black" points="211.78,-92.41 220.44,-86.32 209.87,-85.68 211.78,-92.41"/>
</g>
<!-- 11 -->
<!-- name: &quot;Auto Jump&quot;, typeName: &quot;&quot;, id: 11, branchId: 0, recurseId: &#45;1, attributes: 0, notes: &quot;&quot; -->
<g id="node10" class="node">
<title>11</title>
<ellipse fill="none" stroke="black" cx="271.94" cy="-18" rx="52.38" ry="18"/>
<text text-anchor="middle" x="271.94" y="-12.95" font-family="Times New Roman,serif" font-size="14.00">Auto Jump</text>
</g>
<!-- 2&#45;&gt;11 -->
<g id="edge9" class="edge">
<title>2&#45;&gt;11</title>
<path fill="none" stroke="black" d="M101.73,-108.27C123.89,-90.44 160.2,-63.06 195,-45 203.13,-40.78 212.06,-36.96 220.85,-33.6"/>
<polygon fill="black" stroke="black" points="221.82,-36.97 230.02,-30.26 219.43,-30.4 221.82,-36.97"/>
</g>
<!-- 4 -->
<!-- name: &quot;bool&quot;, typeName: &quot;&quot;, id: 4, branchId: 0, recurseId: &#45;1, attributes: 512, notes: &quot;&quot; -->
<g id="node3" class="node">
<title>4</title>
<ellipse fill="none" stroke="black" cx="412.18" cy="-234" rx="27.3" ry="18"/>
<text text-anchor="middle" x="412.18" y="-228.95" font-family="Times New Roman,serif" font-size="14.00">bool</text>
</g>
<!-- 3&#45;&gt;4 -->
<g id="edge2" class="edge">
<title>3&#45;&gt;4</title>
<path fill="none" stroke="black" d="M313.3,-234C332.22,-234 354.63,-234 373.24,-234"/>
<polygon fill="black" stroke="black" points="373.04,-237.5 383.03,-234 373.03,-230.5 373.04,-237.5"/>
</g>
<!-- 6 -->
<!-- name: &quot;bool&quot;, typeName: &quot;&quot;, id: 6, branchId: 0, recurseId: &#45;1, attributes: 512, notes: &quot;&quot; -->
<g id="node5" class="node">
<title>6</title>
<ellipse fill="none" stroke="black" cx="412.18" cy="-180" rx="27.3" ry="18"/>
<text text-anchor="middle" x="412.18" y="-174.95" font-family="Times New Roman,serif" font-size="14.00">bool</text>
</g>
<!-- 5&#45;&gt;6 -->
<g id="edge4" class="edge">
<title>5&#45;&gt;6</title>
<path fill="none" stroke="black" d="M313.3,-180C332.22,-180 354.63,-180 373.24,-180"/>
<polygon fill="black" stroke="black" points="373.04,-183.5 383.03,-180 373.03,-176.5 373.04,-183.5"/>
</g>
<!-- 8 -->
<!-- name: &quot;bool&quot;, typeName: &quot;&quot;, id: 8, branchId: 0, recurseId: &#45;1, attributes: 512, notes: &quot;&quot; -->
<g id="node7" class="node">
<title>8</title>
<ellipse fill="none" stroke="black" cx="412.18" cy="-126" rx="27.3" ry="18"/>
<text text-anchor="middle" x="412.18" y="-120.95" font-family="Times New Roman,serif" font-size="14.00">bool</text>
</g>
<!-- 7&#45;&gt;8 -->
<g id="edge6" class="edge">
<title>7&#45;&gt;8</title>
<path fill="none" stroke="black" d="M349.34,-126C357.52,-126 365.56,-126 373,-126"/>
<polygon fill="black" stroke="black" points="372.98,-129.5 382.98,-126 372.98,-122.5 372.98,-129.5"/>
</g>
<!-- 10 -->
<!-- name: &quot;bool&quot;, typeName: &quot;&quot;, id: 10, branchId: 0, recurseId: &#45;1, attributes: 512, notes: &quot;&quot; -->
<g id="node9" class="node">
<title>10</title>
<ellipse fill="none" stroke="black" cx="412.18" cy="-72" rx="27.3" ry="18"/>
<text text-anchor="middle" x="412.18" y="-66.95" font-family="Times New Roman,serif" font-size="14.00">bool</text>
</g>
<!-- 9&#45;&gt;10 -->
<g id="edge8" class="edge">
<title>9&#45;&gt;10</title>
<path fill="none" stroke="black" d="M348.53,-72C356.97,-72 365.28,-72 372.95,-72"/>
<polygon fill="black" stroke="black" points="372.89,-75.5 382.89,-72 372.89,-68.5 372.89,-75.5"/>
</g>
<!-- 12 -->
<!-- name: &quot;bool&quot;, typeName: &quot;&quot;, id: 12, branchId: 0, recurseId: &#45;1, attributes: 512, notes: &quot;&quot; -->
<g id="node11" class="node">
<title>12</title>
<ellipse fill="none" stroke="black" cx="412.18" cy="-18" rx="27.3" ry="18"/>
<text text-anchor="middle" x="412.18" y="-12.95" font-family="Times New Roman,serif" font-size="14.00">bool</text>
</g>
<!-- 11&#45;&gt;12 -->
<g id="edge10" class="edge">
<title>11&#45;&gt;12</title>
<path fill="none" stroke="black" d="M324.81,-18C340.89,-18 358.3,-18 373.25,-18"/>
<polygon fill="black" stroke="black" points="373.13,-21.5 383.13,-18 373.13,-14.5 373.13,-21.5"/>
</g>
</g>
</svg>
