<?xml version="1.0" encoding="UTF-8" standalone="no"?>
<!DOCTYPE svg PUBLIC "-//W3C//DTD SVG 1.1//EN"
 "http://www.w3.org/Graphics/SVG/1.1/DTD/svg11.dtd">
<!-- Generated by graphviz version 14.1.1 (20251213.1925)
 -->
<!-- Title: AimAssistActorPriorityData Pages: 1 -->
<svg width="504pt" height="206pt"
 viewBox="0.00 0.00 504.00 206.00" xmlns="http://www.w3.org/2000/svg" xmlns:xlink="http://www.w3.org/1999/xlink">
<g id="graph0" class="graph" transform="scale(1 1) rotate(0) translate(4 202)">
<title>AimAssistActorPriorityData</title>
<polygon fill="white" stroke="none" points="-4,4 -4,-202 500.21,-202 500.21,4 -4,4"/>
<!-- 0 -->
<!-- name: &quot;AimAssistActorPriorityData&quot;, typeName: &quot;&quot;, id: 0, branchId: 0, recurseId: &#45;1, attributes: 0, notes: &quot;&quot; -->
<g id="node1" class="node">
<title>0</title>
<ellipse fill="none" stroke="black" cx="116.86" cy="-99" rx="116.86" ry="18"/>
<text xml:space="preserve" text-anchor="middle" x="116.86" y="-93.95" font-family="Times New Roman,serif" font-size="14.00">AimAssistActorPriorityData</text>
</g>
<!-- 1 -->
<!-- name: &quot;Preset Index&quot;, typeName: &quot;&quot;, id: 1, branchId: 0, recurseId: &#45;1, attributes: 0, notes: &quot;&quot; -->
<g id="node2" class="node">
<title>1</title>
<ellipse fill="none" stroke="black" cx="337.97" cy="-180" rx="56.98" ry="18"/>
<text xml:space="preserve" text-anchor="middle" x="337.97" y="-174.95" font-family="Times New Roman,serif" font-size="14.00">Preset Index</text>
</g>
<!-- 0&#45;&gt;1 -->
<g id="edge1" class="edge">
<title>0&#45;&gt;1</title>
<path fill="none" stroke="black" d="M163.53,-115.88C200.28,-129.47 251.79,-148.51 289.11,-162.31"/>
<polygon fill="black" stroke="black" points="287.71,-165.52 298.3,-165.71 290.14,-158.96 287.71,-165.52"/>
</g>
<!-- 3 -->
<!-- name: &quot;Category Index&quot;, typeName: &quot;&quot;, id: 3, branchId: 0, recurseId: &#45;1, attributes: 0, notes: &quot;&quot; -->
<g id="node4" class="node">
<title>3</title>
<ellipse fill="none" stroke="black" cx="337.97" cy="-126" rx="68.24" ry="18"/>
<text xml:space="preserve" text-anchor="middle" x="337.97" y="-120.95" font-family="Times New Roman,serif" font-size="14.00">Category Index</text>
</g>
<!-- 0&#45;&gt;3 -->
<g id="edge3" class="edge">
<title>0&#45;&gt;3</title>
<path fill="none" stroke="black" d="M209.51,-110.29C227.79,-112.55 246.75,-114.88 264.28,-117.04"/>
<polygon fill="black" stroke="black" points="263.72,-120.5 274.08,-118.25 264.58,-113.55 263.72,-120.5"/>
</g>
<!-- 5 -->
<!-- name: &quot;Actor Index&quot;, typeName: &quot;&quot;, id: 5, branchId: 0, recurseId: &#45;1, attributes: 0, notes: &quot;&quot; -->
<g id="node6" class="node">
<title>5</title>
<ellipse fill="none" stroke="black" cx="337.97" cy="-72" rx="55.45" ry="18"/>
<text xml:space="preserve" text-anchor="middle" x="337.97" y="-66.95" font-family="Times New Roman,serif" font-size="14.00">Actor Index</text>
</g>
<!-- 0&#45;&gt;5 -->
<g id="edge5" class="edge">
<title>0&#45;&gt;5</title>
<path fill="none" stroke="black" d="M209.51,-87.71C231.38,-85.01 254.22,-82.2 274.43,-79.71"/>
<polygon fill="black" stroke="black" points="274.68,-83.2 284.17,-78.51 273.82,-76.26 274.68,-83.2"/>
</g>
<!-- 7 -->
<!-- name: &quot;Priority Value&quot;, typeName: &quot;&quot;, id: 7, branchId: 0, recurseId: &#45;1, attributes: 0, notes: &quot;&quot; -->
<g id="node8" class="node">
<title>7</title>
<ellipse fill="none" stroke="black" cx="337.97" cy="-18" rx="62.1" ry="18"/>
<text xml:space="preserve" text-anchor="middle" x="337.97" y="-12.95" font-family="Times New Roman,serif" font-size="14.00">Priority Value</text>
</g>
<!-- 0&#45;&gt;7 -->
<g id="edge7" class="edge">
<title>0&#45;&gt;7</title>
<path fill="none" stroke="black" d="M163.53,-82.12C199.83,-68.7 250.51,-49.96 287.72,-36.21"/>
<polygon fill="black" stroke="black" points="288.73,-39.57 296.89,-32.81 286.3,-33 288.73,-39.57"/>
</g>
<!-- 2 -->
<!-- name: &quot;int&quot;, typeName: &quot;&quot;, id: 2, branchId: 0, recurseId: &#45;1, attributes: 512, notes: &quot;&quot; -->
<g id="node3" class="node">
<title>2</title>
<ellipse fill="none" stroke="black" cx="469.21" cy="-180" rx="27" ry="18"/>
<text xml:space="preserve" text-anchor="middle" x="469.21" y="-174.95" font-family="Times New Roman,serif" font-size="14.00">int</text>
</g>
<!-- 1&#45;&gt;2 -->
<g id="edge2" class="edge">
<title>1&#45;&gt;2</title>
<path fill="none" stroke="black" d="M395.28,-180C407.17,-180 419.44,-180 430.44,-180"/>
<polygon fill="black" stroke="black" points="430.3,-183.5 440.3,-180 430.3,-176.5 430.3,-183.5"/>
</g>
<!-- 4 -->
<!-- name: &quot;int&quot;, typeName: &quot;&quot;, id: 4, branchId: 0, recurseId: &#45;1, attributes: 512, notes: &quot;&quot; -->
<g id="node5" class="node">
<title>4</title>
<ellipse fill="none" stroke="black" cx="469.21" cy="-126" rx="27" ry="18"/>
<text xml:space="preserve" text-anchor="middle" x="469.21" y="-120.95" font-family="Times New Roman,serif" font-size="14.00">int</text>
</g>
<!-- 3&#45;&gt;4 -->
<g id="edge4" class="edge">
<title>3&#45;&gt;4</title>
<path fill="none" stroke="black" d="M406.62,-126C414.87,-126 423.06,-126 430.65,-126"/>
<polygon fill="black" stroke="black" points="430.47,-129.5 440.47,-126 430.47,-122.5 430.47,-129.5"/>
</g>
<!-- 6 -->
<!-- name: &quot;int&quot;, typeName: &quot;&quot;, id: 6, branchId: 0, recurseId: &#45;1, attributes: 512, notes: &quot;&quot; -->
<g id="node7" class="node">
<title>6</title>
<ellipse fill="none" stroke="black" cx="469.21" cy="-72" rx="27" ry="18"/>
<text xml:space="preserve" text-anchor="middle" x="469.21" y="-66.95" font-family="Times New Roman,serif" font-size="14.00">int</text>
</g>
<!-- 5&#45;&gt;6 -->
<g id="edge6" class="edge">
<title>5&#45;&gt;6</title>
<path fill="none" stroke="black" d="M393.78,-72C406.13,-72 418.98,-72 430.45,-72"/>
<polygon fill="black" stroke="black" points="430.32,-75.5 440.32,-72 430.32,-68.5 430.32,-75.5"/>
</g>
<!-- 8 -->
<!-- name: &quot;int&quot;, typeName: &quot;&quot;, id: 8, branchId: 0, recurseId: &#45;1, attributes: 512, notes: &quot;&quot; -->
<g id="node9" class="node">
<title>8</title>
<ellipse fill="none" stroke="black" cx="469.21" cy="-18" rx="27" ry="18"/>
<text xml:space="preserve" text-anchor="middle" x="469.21" y="-12.95" font-family="Times New Roman,serif" font-size="14.00">int</text>
</g>
<!-- 7&#45;&gt;8 -->
<g id="edge8" class="edge">
<title>7&#45;&gt;8</title>
<path fill="none" stroke="black" d="M400.56,-18C410.8,-18 421.14,-18 430.55,-18"/>
<polygon fill="black" stroke="black" points="430.38,-21.5 440.38,-18 430.38,-14.5 430.38,-21.5"/>
</g>
</g>
</svg>
