<?xml version="1.0" encoding="UTF-8" standalone="no"?>
<!DOCTYPE svg PUBLIC "-//W3C//DTD SVG 1.1//EN"
 "http://www.w3.org/Graphics/SVG/1.1/DTD/svg11.dtd">
<!-- Generated by graphviz version 12.2.1 (20241206.2353)
 -->
<!-- Title: AnimateEntityPacket Pages: 1 -->
<svg width="1042pt" height="422pt"
 viewBox="0.00 0.00 1042.20 422.00" xmlns="http://www.w3.org/2000/svg" xmlns:xlink="http://www.w3.org/1999/xlink">
<g id="graph0" class="graph" transform="scale(1 1) rotate(0) translate(4 418)">
<title>AnimateEntityPacket</title>
<polygon fill="white" stroke="none" points="-4,4 -4,-418 1038.2,-418 1038.2,4 -4,4"/>
<!-- 0 -->
<!-- name: &quot;AnimateEntityPacket&quot;, typeName: &quot;&quot;, id: 0, branchId: 158, recurseId: &#45;1, attributes: 0, notes: &quot;&quot; -->
<g id="node1" class="node">
<title>0</title>
<ellipse fill="none" stroke="black" cx="90.25" cy="-234" rx="90.25" ry="18"/>
<text text-anchor="middle" x="90.25" y="-228.95" font-family="Times New Roman,serif" font-size="14.00">AnimateEntityPacket</text>
</g>
<!-- 1 -->
<!-- name: &quot;mAnimation&quot;, typeName: &quot;&quot;, id: 1, branchId: 0, recurseId: &#45;1, attributes: 0, notes: &quot;The name of the animation that the specified entities are to play.&quot; -->
<g id="node2" class="node">
<title>1</title>
<ellipse fill="none" stroke="black" cx="774.03" cy="-392" rx="58.52" ry="18"/>
<text text-anchor="middle" x="774.03" y="-386.95" font-family="Times New Roman,serif" font-size="14.00">mAnimation</text>
</g>
<!-- 0&#45;&gt;1 -->
<g id="edge1" class="edge">
<title>0&#45;&gt;1</title>
<path fill="none" stroke="black" d="M110.45,-251.83C133.74,-272.43 175.05,-305.84 216.5,-324 380.59,-395.9 596.38,-399.56 704.73,-395.94"/>
<polygon fill="black" stroke="black" points="704.77,-399.44 714.63,-395.58 704.51,-392.45 704.77,-399.44"/>
</g>
<!-- 3 -->
<!-- name: &quot;mNextState&quot;, typeName: &quot;&quot;, id: 3, branchId: 0, recurseId: &#45;1, attributes: 0, notes: &quot;The next state to transition to once the specified animation is finished playing.&quot; -->
<g id="node4" class="node">
<title>3</title>
<ellipse fill="none" stroke="black" cx="531.43" cy="-335" rx="54.93" ry="18"/>
<text text-anchor="middle" x="531.43" y="-329.95" font-family="Times New Roman,serif" font-size="14.00">mNextState</text>
</g>
<!-- 0&#45;&gt;3 -->
<g id="edge3" class="edge">
<title>0&#45;&gt;3</title>
<path fill="none" stroke="black" d="M119.47,-251.42C144.14,-265.79 181.41,-285.47 216.5,-296 299.99,-321.06 400.63,-330.04 465.06,-333.24"/>
<polygon fill="black" stroke="black" points="464.6,-336.72 474.75,-333.69 464.92,-329.73 464.6,-336.72"/>
</g>
<!-- 5 -->
<!-- name: &quot;mStopExpression&quot;, typeName: &quot;&quot;, id: 5, branchId: 0, recurseId: &#45;1, attributes: 0, notes: &quot;The stop expression, the the condition that determines when to transition to the next state.&quot; -->
<g id="node6" class="node">
<title>5</title>
<ellipse fill="none" stroke="black" cx="774.03" cy="-284" rx="76.43" ry="18"/>
<text text-anchor="middle" x="774.03" y="-278.95" font-family="Times New Roman,serif" font-size="14.00">mStopExpression</text>
</g>
<!-- 0&#45;&gt;5 -->
<g id="edge5" class="edge">
<title>0&#45;&gt;5</title>
<path fill="none" stroke="black" d="M168.7,-243.16C184.5,-244.89 201.03,-246.59 216.5,-248 382.96,-263.15 578.01,-274.24 687.39,-279.85"/>
<polygon fill="black" stroke="black" points="686.99,-283.34 697.16,-280.35 687.35,-276.35 686.99,-283.34"/>
</g>
<!-- 7 -->
<!-- name: &quot;Stop expression molang version&quot;, typeName: &quot;&quot;, id: 7, branchId: 0, recurseId: &#45;1, attributes: 0, notes: &quot;&quot; -->
<g id="node8" class="node">
<title>7</title>
<ellipse fill="none" stroke="black" cx="531.43" cy="-234" rx="130.17" ry="18"/>
<text text-anchor="middle" x="531.43" y="-228.95" font-family="Times New Roman,serif" font-size="14.00">Stop expression molang version</text>
</g>
<!-- 0&#45;&gt;7 -->
<g id="edge7" class="edge">
<title>0&#45;&gt;7</title>
<path fill="none" stroke="black" d="M180.92,-234C240.93,-234 321.14,-234 389.59,-234"/>
<polygon fill="black" stroke="black" points="389.4,-237.5 399.4,-234 389.4,-230.5 389.4,-237.5"/>
</g>
<!-- 9 -->
<!-- name: &quot;mController&quot;, typeName: &quot;&quot;, id: 9, branchId: 0, recurseId: &#45;1, attributes: 0, notes: &quot;The name of an animation controller&quot; -->
<g id="node10" class="node">
<title>9</title>
<ellipse fill="none" stroke="black" cx="290.88" cy="-186" rx="56.47" ry="18"/>
<text text-anchor="middle" x="290.88" y="-180.95" font-family="Times New Roman,serif" font-size="14.00">mController</text>
</g>
<!-- 0&#45;&gt;9 -->
<g id="edge9" class="edge">
<title>0&#45;&gt;9</title>
<path fill="none" stroke="black" d="M149.24,-219.99C175.99,-213.52 207.61,-205.88 234.09,-199.48"/>
<polygon fill="black" stroke="black" points="234.72,-202.93 243.62,-197.18 233.08,-196.13 234.72,-202.93"/>
</g>
<!-- 11 -->
<!-- name: &quot;mBlendOutTime&quot;, typeName: &quot;&quot;, id: 11, branchId: 0, recurseId: &#45;1, attributes: 0, notes: &quot;The amount of time to blend out of this animation&quot; -->
<g id="node12" class="node">
<title>11</title>
<ellipse fill="none" stroke="black" cx="290.88" cy="-130" rx="74.38" ry="18"/>
<text text-anchor="middle" x="290.88" y="-124.95" font-family="Times New Roman,serif" font-size="14.00">mBlendOutTime</text>
</g>
<!-- 0&#45;&gt;11 -->
<g id="edge11" class="edge">
<title>0&#45;&gt;11</title>
<path fill="none" stroke="black" d="M117.42,-216.61C142.28,-200.51 181.03,-176.48 216.5,-159 223.27,-155.66 230.52,-152.42 237.74,-149.38"/>
<polygon fill="black" stroke="black" points="238.89,-152.69 246.82,-145.67 236.24,-146.21 238.89,-152.69"/>
</g>
<!-- 13 -->
<!-- name: &quot;mRuntimeIds&quot;, typeName: &quot;&quot;, id: 13, branchId: 0, recurseId: &#45;1, attributes: 8, notes: &quot;ActorRuntimeIDs of the entities that will play the specified animation&quot; -->
<g id="node14" class="node">
<title>13</title>
<ellipse fill="none" stroke="black" cx="290.88" cy="-72" rx="62.1" ry="18"/>
<text text-anchor="middle" x="290.88" y="-66.95" font-family="Times New Roman,serif" font-size="14.00">mRuntimeIds</text>
</g>
<!-- 0&#45;&gt;13 -->
<g id="edge13" class="edge">
<title>0&#45;&gt;13</title>
<path fill="none" stroke="black" d="M104.43,-216.09C125.46,-188.59 169.1,-135.69 216.5,-103 223.31,-98.3 230.94,-94.11 238.64,-90.44"/>
<polygon fill="black" stroke="black" points="240.03,-93.65 247.73,-86.38 237.17,-87.26 240.03,-93.65"/>
</g>
<!-- 2 -->
<!-- name: &quot;string&quot;, typeName: &quot;&quot;, id: 2, branchId: 0, recurseId: &#45;1, attributes: 512, notes: &quot;&quot; -->
<g id="node3" class="node">
<title>2</title>
<ellipse fill="none" stroke="black" cx="960.33" cy="-396" rx="31.9" ry="18"/>
<text text-anchor="middle" x="960.33" y="-390.95" font-family="Times New Roman,serif" font-size="14.00">string</text>
</g>
<!-- 1&#45;&gt;2 -->
<g id="edge2" class="edge">
<title>1&#45;&gt;2</title>
<path fill="none" stroke="black" d="M832.84,-393.25C860,-393.84 891.8,-394.53 916.72,-395.08"/>
<polygon fill="black" stroke="black" points="916.41,-398.57 926.49,-395.29 916.56,-391.57 916.41,-398.57"/>
</g>
<!-- 4 -->
<!-- name: &quot;string&quot;, typeName: &quot;&quot;, id: 4, branchId: 0, recurseId: &#45;1, attributes: 512, notes: &quot;&quot; -->
<g id="node5" class="node">
<title>4</title>
<ellipse fill="none" stroke="black" cx="960.33" cy="-342" rx="31.9" ry="18"/>
<text text-anchor="middle" x="960.33" y="-336.95" font-family="Times New Roman,serif" font-size="14.00">string</text>
</g>
<!-- 3&#45;&gt;4 -->
<g id="edge4" class="edge">
<title>3&#45;&gt;4</title>
<path fill="none" stroke="black" d="M586.5,-335.89C672.5,-337.3 838.71,-340.02 916.82,-341.3"/>
<polygon fill="black" stroke="black" points="916.56,-344.8 926.62,-341.46 916.67,-337.8 916.56,-344.8"/>
</g>
<!-- 6 -->
<!-- name: &quot;string&quot;, typeName: &quot;&quot;, id: 6, branchId: 0, recurseId: &#45;1, attributes: 512, notes: &quot;&quot; -->
<g id="node7" class="node">
<title>6</title>
<ellipse fill="none" stroke="black" cx="960.33" cy="-288" rx="31.9" ry="18"/>
<text text-anchor="middle" x="960.33" y="-282.95" font-family="Times New Roman,serif" font-size="14.00">string</text>
</g>
<!-- 5&#45;&gt;6 -->
<g id="edge6" class="edge">
<title>5&#45;&gt;6</title>
<path fill="none" stroke="black" d="M850.53,-285.64C873.19,-286.13 897.24,-286.65 916.96,-287.08"/>
<polygon fill="black" stroke="black" points="916.73,-290.58 926.8,-287.29 916.88,-283.58 916.73,-290.58"/>
</g>
<!-- 8 -->
<!-- name: &quot;int&quot;, typeName: &quot;&quot;, id: 8, branchId: 0, recurseId: &#45;1, attributes: 512, notes: &quot;&quot; -->
<g id="node9" class="node">
<title>8</title>
<ellipse fill="none" stroke="black" cx="960.33" cy="-234" rx="27" ry="18"/>
<text text-anchor="middle" x="960.33" y="-228.95" font-family="Times New Roman,serif" font-size="14.00">int</text>
</g>
<!-- 7&#45;&gt;8 -->
<g id="edge8" class="edge">
<title>7&#45;&gt;8</title>
<path fill="none" stroke="black" d="M661.97,-234C751.3,-234 863.96,-234 921.59,-234"/>
<polygon fill="black" stroke="black" points="921.51,-237.5 931.51,-234 921.51,-230.5 921.51,-237.5"/>
</g>
<!-- 10 -->
<!-- name: &quot;string&quot;, typeName: &quot;&quot;, id: 10, branchId: 0, recurseId: &#45;1, attributes: 512, notes: &quot;&quot; -->
<g id="node11" class="node">
<title>10</title>
<ellipse fill="none" stroke="black" cx="960.33" cy="-180" rx="31.9" ry="18"/>
<text text-anchor="middle" x="960.33" y="-174.95" font-family="Times New Roman,serif" font-size="14.00">string</text>
</g>
<!-- 9&#45;&gt;10 -->
<g id="edge10" class="edge">
<title>9&#45;&gt;10</title>
<path fill="none" stroke="black" d="M347.64,-185.5C478.04,-184.33 800.65,-181.43 916.8,-180.38"/>
<polygon fill="black" stroke="black" points="916.54,-183.88 926.51,-180.3 916.48,-176.89 916.54,-183.88"/>
</g>
<!-- 12 -->
<!-- name: &quot;float&quot;, typeName: &quot;&quot;, id: 12, branchId: 0, recurseId: &#45;1, attributes: 512, notes: &quot;&quot; -->
<g id="node13" class="node">
<title>12</title>
<ellipse fill="none" stroke="black" cx="960.33" cy="-126" rx="27.81" ry="18"/>
<text text-anchor="middle" x="960.33" y="-120.95" font-family="Times New Roman,serif" font-size="14.00">float</text>
</g>
<!-- 11&#45;&gt;12 -->
<g id="edge12" class="edge">
<title>11&#45;&gt;12</title>
<path fill="none" stroke="black" d="M365.54,-129.56C507.2,-128.71 813.11,-126.88 920.84,-126.23"/>
<polygon fill="black" stroke="black" points="920.61,-129.73 930.59,-126.17 920.57,-122.73 920.61,-129.73"/>
</g>
<!-- 14 -->
<!-- name: &quot;List Size&quot;, typeName: &quot;&quot;, id: 14, branchId: 0, recurseId: &#45;1, attributes: 0, notes: &quot;&quot; -->
<g id="node15" class="node">
<title>14</title>
<ellipse fill="none" stroke="black" cx="774.03" cy="-72" rx="43.67" ry="18"/>
<text text-anchor="middle" x="774.03" y="-66.95" font-family="Times New Roman,serif" font-size="14.00">List Size</text>
</g>
<!-- 13&#45;&gt;14 -->
<g id="edge14" class="edge">
<title>13&#45;&gt;14</title>
<path fill="none" stroke="black" d="M353.31,-72C448.08,-72 628.44,-72 718.72,-72"/>
<polygon fill="black" stroke="black" points="718.54,-75.5 728.54,-72 718.54,-68.5 718.54,-75.5"/>
</g>
<!-- 16 -->
<!-- name: &quot;example element&quot;, typeName: &quot;&quot;, id: 16, branchId: 0, recurseId: &#45;1, attributes: 16, notes: &quot;&quot; -->
<g id="node17" class="node">
<title>16</title>
<ellipse fill="none" stroke="black" stroke-dasharray="1,5" cx="531.43" cy="-22" rx="74.89" ry="18"/>
<text text-anchor="middle" x="531.43" y="-16.95" font-family="Times New Roman,serif" font-size="14.00">example element</text>
</g>
<!-- 13&#45;&gt;16 -->
<g id="edge16" class="edge">
<title>13&#45;&gt;16</title>
<path fill="none" stroke="black" d="M342.18,-61.46C377.26,-54.1 424.48,-44.21 462.85,-36.17"/>
<polygon fill="black" stroke="black" points="463.38,-39.63 472.45,-34.15 461.95,-32.78 463.38,-39.63"/>
</g>
<!-- 15 -->
<!-- name: &quot;unsigned varint&quot;, typeName: &quot;&quot;, id: 15, branchId: 0, recurseId: &#45;1, attributes: 512, notes: &quot;&quot; -->
<g id="node16" class="node">
<title>15</title>
<ellipse fill="none" stroke="black" cx="960.33" cy="-72" rx="68.24" ry="18"/>
<text text-anchor="middle" x="960.33" y="-66.95" font-family="Times New Roman,serif" font-size="14.00">unsigned varint</text>
</g>
<!-- 14&#45;&gt;15 -->
<g id="edge15" class="edge">
<title>14&#45;&gt;15</title>
<path fill="none" stroke="black" d="M817.78,-72C836.44,-72 858.93,-72 880.44,-72"/>
<polygon fill="black" stroke="black" points="880.4,-75.5 890.4,-72 880.4,-68.5 880.4,-75.5"/>
</g>
<!-- 17 -->
<!-- name: &quot;runtimeId&quot;, typeName: &quot;ActorRuntimeID&quot;, id: 17, branchId: 0, recurseId: &#45;1, attributes: 256, notes: &quot;&quot; -->
<g id="node18" class="node">
<title>17</title>
<ellipse fill="none" stroke="black" cx="774.03" cy="-18" rx="47.77" ry="18"/>
<text text-anchor="middle" x="774.03" y="-12.95" font-family="Times New Roman,serif" font-size="14.00">runtimeId</text>
</g>
<!-- 16&#45;&gt;17 -->
<g id="edge17" class="edge">
<title>16&#45;&gt;17</title>
<path fill="none" stroke="black" d="M606.58,-20.77C641.41,-20.19 682.33,-19.51 714.88,-18.97"/>
<polygon fill="black" stroke="black" points="714.56,-22.47 724.5,-18.81 714.45,-15.47 714.56,-22.47"/>
</g>
<!-- 18 -->
<!-- name: &quot;ActorRuntimeID&quot;, typeName: &quot;&quot;, id: 18, branchId: 0, recurseId: &#45;1, attributes: 512, notes: &quot;&quot; -->
<g id="node19" class="node">
<title>18</title>
<ellipse fill="none" stroke="black" cx="960.33" cy="-18" rx="73.87" ry="18"/>
<text text-anchor="middle" x="960.33" y="-12.95" font-family="Times New Roman,serif" font-size="14.00">ActorRuntimeID</text>
</g>
<!-- 17&#45;&gt;18 -->
<g id="edge18" class="edge">
<title>17&#45;&gt;18</title>
<path fill="none" stroke="black" d="M822.02,-18C838.18,-18 856.8,-18 875.02,-18"/>
<polygon fill="black" stroke="black" points="874.77,-21.5 884.77,-18 874.77,-14.5 874.77,-21.5"/>
</g>
</g>
</svg>
