<?xml version="1.0" encoding="UTF-8" standalone="no"?>
<!DOCTYPE svg PUBLIC "-//W3C//DTD SVG 1.1//EN"
 "http://www.w3.org/Graphics/SVG/1.1/DTD/svg11.dtd">
<!-- Generated by graphviz version 14.1.5 (20260411.2331)
 -->
<!-- Title: AnimatedImageData Pages: 1 -->
<svg width="1082pt" height="368pt"
 viewBox="0.00 0.00 1082.00 368.00" xmlns="http://www.w3.org/2000/svg" xmlns:xlink="http://www.w3.org/1999/xlink">
<g id="graph0" class="graph" transform="scale(1 1) rotate(0) translate(4 364)">
<title>AnimatedImageData</title>
<polygon fill="white" stroke="none" points="-4,4 -4,-364 1078.13,-364 1078.13,4 -4,4"/>
<!-- 0 -->
<!-- name: &quot;AnimatedImageData&quot;, typeName: &quot;&quot;, id: 0, branchId: 0, recurseId: &#45;1, attributes: 0, notes: &quot;&quot; -->
<g id="node1" class="node">
<title>0</title>
<ellipse fill="none" stroke="black" cx="88.71" cy="-104" rx="88.71" ry="18"/>
<text xml:space="preserve" text-anchor="middle" x="88.71" y="-98.95" font-family="Times New Roman,serif" font-size="14.00">AnimatedImageData</text>
</g>
<!-- 1 -->
<!-- name: &quot;SkinImage&quot;, typeName: &quot;&quot;, id: 1, branchId: 0, recurseId: &#45;1, attributes: 0, notes: &quot;&quot; -->
<g id="node2" class="node">
<title>1</title>
<ellipse fill="none" stroke="black" cx="307.77" cy="-261" rx="51.35" ry="18"/>
<text xml:space="preserve" text-anchor="middle" x="307.77" y="-255.95" font-family="Times New Roman,serif" font-size="14.00">SkinImage</text>
</g>
<!-- 0&#45;&gt;1 -->
<g id="edge1" class="edge">
<title>0&#45;&gt;1</title>
<path fill="none" stroke="black" d="M114.19,-121.7C153.67,-150.26 231.38,-206.47 275.05,-238.06"/>
<polygon fill="black" stroke="black" points="272.96,-240.87 283.12,-243.89 277.06,-235.19 272.96,-240.87"/>
</g>
<!-- 11 -->
<!-- name: &quot;AnimatedTextureType&quot;, typeName: &quot;&quot;, id: 11, branchId: 0, recurseId: &#45;1, attributes: 0, notes: &quot;&quot; -->
<g id="node12" class="node">
<title>11</title>
<ellipse fill="none" stroke="black" cx="307.77" cy="-124" rx="94.34" ry="18"/>
<text xml:space="preserve" text-anchor="middle" x="307.77" y="-118.95" font-family="Times New Roman,serif" font-size="14.00">AnimatedTextureType</text>
</g>
<!-- 0&#45;&gt;11 -->
<g id="edge11" class="edge">
<title>0&#45;&gt;11</title>
<path fill="none" stroke="black" d="M170.23,-111.42C183.42,-112.63 197.21,-113.91 210.74,-115.15"/>
<polygon fill="black" stroke="black" points="210.24,-118.62 220.52,-116.05 210.88,-111.65 210.24,-118.62"/>
</g>
<!-- 13 -->
<!-- name: &quot;Frames&quot;, typeName: &quot;&quot;, id: 13, branchId: 0, recurseId: &#45;1, attributes: 0, notes: &quot;&quot; -->
<g id="node14" class="node">
<title>13</title>
<ellipse fill="none" stroke="black" cx="659.9" cy="-73" rx="38.56" ry="18"/>
<text xml:space="preserve" text-anchor="middle" x="659.9" y="-67.95" font-family="Times New Roman,serif" font-size="14.00">Frames</text>
</g>
<!-- 0&#45;&gt;13 -->
<g id="edge13" class="edge">
<title>0&#45;&gt;13</title>
<path fill="none" stroke="black" d="M174.56,-99.17C187.58,-98.44 200.86,-97.69 213.43,-97 357.53,-89.04 527.87,-79.95 609.9,-75.6"/>
<polygon fill="black" stroke="black" points="610.04,-79.09 619.84,-75.07 609.67,-72.1 610.04,-79.09"/>
</g>
<!-- 15 -->
<!-- name: &quot;AnimationExpression&quot;, typeName: &quot;&quot;, id: 15, branchId: 0, recurseId: &#45;1, attributes: 0, notes: &quot;&quot; -->
<g id="node16" class="node">
<title>15</title>
<ellipse fill="none" stroke="black" cx="307.77" cy="-27" rx="91.78" ry="18"/>
<text xml:space="preserve" text-anchor="middle" x="307.77" y="-21.95" font-family="Times New Roman,serif" font-size="14.00">AnimationExpression</text>
</g>
<!-- 0&#45;&gt;15 -->
<g id="edge15" class="edge">
<title>0&#45;&gt;15</title>
<path fill="none" stroke="black" d="M134.42,-88.14C168.31,-76.12 215.07,-59.53 251.33,-46.67"/>
<polygon fill="black" stroke="black" points="252.06,-50.12 260.32,-43.48 249.72,-43.52 252.06,-50.12"/>
</g>
<!-- 2 -->
<!-- name: &quot;Width&quot;, typeName: &quot;&quot;, id: 2, branchId: 0, recurseId: &#45;1, attributes: 0, notes: &quot;&quot; -->
<g id="node3" class="node">
<title>2</title>
<ellipse fill="none" stroke="black" cx="493.56" cy="-342" rx="33.95" ry="18"/>
<text xml:space="preserve" text-anchor="middle" x="493.56" y="-336.95" font-family="Times New Roman,serif" font-size="14.00">Width</text>
</g>
<!-- 1&#45;&gt;2 -->
<g id="edge2" class="edge">
<title>1&#45;&gt;2</title>
<path fill="none" stroke="black" d="M340.78,-275.11C372.99,-289.3 422.56,-311.15 456.22,-325.99"/>
<polygon fill="black" stroke="black" points="454.6,-329.1 465.16,-329.93 457.43,-322.69 454.6,-329.1"/>
</g>
<!-- 4 -->
<!-- name: &quot;Height&quot;, typeName: &quot;&quot;, id: 4, branchId: 0, recurseId: &#45;1, attributes: 0, notes: &quot;&quot; -->
<g id="node5" class="node">
<title>4</title>
<ellipse fill="none" stroke="black" cx="493.56" cy="-288" rx="36" ry="18"/>
<text xml:space="preserve" text-anchor="middle" x="493.56" y="-282.95" font-family="Times New Roman,serif" font-size="14.00">Height</text>
</g>
<!-- 1&#45;&gt;4 -->
<g id="edge4" class="edge">
<title>1&#45;&gt;4</title>
<path fill="none" stroke="black" d="M355.62,-267.88C383.85,-272.03 419.61,-277.28 447.51,-281.38"/>
<polygon fill="black" stroke="black" points="446.66,-284.79 457.06,-282.78 447.67,-277.87 446.66,-284.79"/>
</g>
<!-- 6 -->
<!-- name: &quot;ImageBytes&quot;, typeName: &quot;&quot;, id: 6, branchId: 0, recurseId: &#45;1, attributes: 0, notes: &quot;&quot; -->
<g id="node7" class="node">
<title>6</title>
<ellipse fill="none" stroke="black" cx="493.56" cy="-234" rx="55.45" ry="18"/>
<text xml:space="preserve" text-anchor="middle" x="493.56" y="-228.95" font-family="Times New Roman,serif" font-size="14.00">ImageBytes</text>
</g>
<!-- 1&#45;&gt;6 -->
<g id="edge6" class="edge">
<title>1&#45;&gt;6</title>
<path fill="none" stroke="black" d="M355.62,-254.12C378.68,-250.73 406.76,-246.6 431.48,-242.97"/>
<polygon fill="black" stroke="black" points="431.69,-246.48 441.07,-241.56 430.67,-239.55 431.69,-246.48"/>
</g>
<!-- 3 -->
<!-- name: &quot;unsigned int&quot;, typeName: &quot;&quot;, id: 3, branchId: 0, recurseId: &#45;1, attributes: 512, notes: &quot;&quot; -->
<g id="node4" class="node">
<title>3</title>
<ellipse fill="none" stroke="black" cx="922.46" cy="-342" rx="56.47" ry="18"/>
<text xml:space="preserve" text-anchor="middle" x="922.46" y="-336.95" font-family="Times New Roman,serif" font-size="14.00">unsigned int</text>
</g>
<!-- 2&#45;&gt;3 -->
<g id="edge3" class="edge">
<title>2&#45;&gt;3</title>
<path fill="none" stroke="black" d="M527.7,-342C597.59,-342 761.25,-342 854.08,-342"/>
<polygon fill="black" stroke="black" points="854.07,-345.5 864.07,-342 854.07,-338.5 854.07,-345.5"/>
</g>
<!-- 5 -->
<!-- name: &quot;unsigned int&quot;, typeName: &quot;&quot;, id: 5, branchId: 0, recurseId: &#45;1, attributes: 512, notes: &quot;&quot; -->
<g id="node6" class="node">
<title>5</title>
<ellipse fill="none" stroke="black" cx="922.46" cy="-288" rx="56.47" ry="18"/>
<text xml:space="preserve" text-anchor="middle" x="922.46" y="-282.95" font-family="Times New Roman,serif" font-size="14.00">unsigned int</text>
</g>
<!-- 4&#45;&gt;5 -->
<g id="edge5" class="edge">
<title>4&#45;&gt;5</title>
<path fill="none" stroke="black" d="M529.86,-288C600.93,-288 762.32,-288 854.19,-288"/>
<polygon fill="black" stroke="black" points="854.07,-291.5 864.07,-288 854.07,-284.5 854.07,-291.5"/>
</g>
<!-- 7 -->
<!-- name: &quot;List Size&quot;, typeName: &quot;&quot;, id: 7, branchId: 0, recurseId: &#45;1, attributes: 0, notes: &quot;&quot; -->
<g id="node8" class="node">
<title>7</title>
<ellipse fill="none" stroke="black" cx="659.9" cy="-234" rx="43.67" ry="18"/>
<text xml:space="preserve" text-anchor="middle" x="659.9" y="-228.95" font-family="Times New Roman,serif" font-size="14.00">List Size</text>
</g>
<!-- 6&#45;&gt;7 -->
<g id="edge7" class="edge">
<title>6&#45;&gt;7</title>
<path fill="none" stroke="black" d="M549.28,-234C567.05,-234 586.76,-234 604.5,-234"/>
<polygon fill="black" stroke="black" points="604.33,-237.5 614.33,-234 604.33,-230.5 604.33,-237.5"/>
</g>
<!-- 9 -->
<!-- name: &quot;example element&quot;, typeName: &quot;&quot;, id: 9, branchId: 0, recurseId: &#45;1, attributes: 16, notes: &quot;&quot; -->
<g id="node10" class="node">
<title>9</title>
<ellipse fill="none" stroke="black" stroke-dasharray="1,5" cx="659.9" cy="-180" rx="74.89" ry="18"/>
<text xml:space="preserve" text-anchor="middle" x="659.9" y="-174.95" font-family="Times New Roman,serif" font-size="14.00">example element</text>
</g>
<!-- 6&#45;&gt;9 -->
<g id="edge9" class="edge">
<title>6&#45;&gt;9</title>
<path fill="none" stroke="black" d="M533.51,-221.2C554.48,-214.31 580.71,-205.69 603.75,-198.12"/>
<polygon fill="black" stroke="black" points="604.58,-201.53 612.99,-195.09 602.4,-194.88 604.58,-201.53"/>
</g>
<!-- 8 -->
<!-- name: &quot;unsigned varint&quot;, typeName: &quot;&quot;, id: 8, branchId: 0, recurseId: &#45;1, attributes: 0, notes: &quot;&quot; -->
<g id="node9" class="node">
<title>8</title>
<ellipse fill="none" stroke="black" cx="922.46" cy="-234" rx="68.24" ry="18"/>
<text xml:space="preserve" text-anchor="middle" x="922.46" y="-228.95" font-family="Times New Roman,serif" font-size="14.00">unsigned varint</text>
</g>
<!-- 7&#45;&gt;8 -->
<g id="edge8" class="edge">
<title>7&#45;&gt;8</title>
<path fill="none" stroke="black" d="M703.93,-234C741.5,-234 797,-234 842.54,-234"/>
<polygon fill="black" stroke="black" points="842.37,-237.5 852.37,-234 842.37,-230.5 842.37,-237.5"/>
</g>
<!-- 10 -->
<!-- name: &quot;unsigned byte&quot;, typeName: &quot;&quot;, id: 10, branchId: 0, recurseId: &#45;1, attributes: 512, notes: &quot;&quot; -->
<g id="node11" class="node">
<title>10</title>
<ellipse fill="none" stroke="black" cx="922.46" cy="-180" rx="62.61" ry="18"/>
<text xml:space="preserve" text-anchor="middle" x="922.46" y="-174.95" font-family="Times New Roman,serif" font-size="14.00">unsigned byte</text>
</g>
<!-- 9&#45;&gt;10 -->
<g id="edge10" class="edge">
<title>9&#45;&gt;10</title>
<path fill="none" stroke="black" d="M735.22,-180C770.64,-180 812.88,-180 848.18,-180"/>
<polygon fill="black" stroke="black" points="847.86,-183.5 857.86,-180 847.86,-176.5 847.86,-183.5"/>
</g>
<!-- 12 -->
<!-- name: &quot;enum persona::AnimatedTextureType&quot;, typeName: &quot;&quot;, id: 12, branchId: 0, recurseId: &#45;1, attributes: 512, notes: &quot;&quot; -->
<g id="node13" class="node">
<title>12</title>
<ellipse fill="none" stroke="black" cx="922.46" cy="-126" rx="151.67" ry="18"/>
<text xml:space="preserve" text-anchor="middle" x="922.46" y="-120.95" font-family="Times New Roman,serif" font-size="14.00">enum persona::AnimatedTextureType</text>
</g>
<!-- 11&#45;&gt;12 -->
<g id="edge12" class="edge">
<title>11&#45;&gt;12</title>
<path fill="none" stroke="black" d="M402.49,-124.31C497.22,-124.62 645.48,-125.1 759.31,-125.47"/>
<polygon fill="black" stroke="black" points="759.04,-128.97 769.05,-125.5 759.07,-121.97 759.04,-128.97"/>
</g>
<!-- 14 -->
<!-- name: &quot;float&quot;, typeName: &quot;&quot;, id: 14, branchId: 0, recurseId: &#45;1, attributes: 512, notes: &quot;&quot; -->
<g id="node15" class="node">
<title>14</title>
<ellipse fill="none" stroke="black" cx="922.46" cy="-72" rx="27.81" ry="18"/>
<text xml:space="preserve" text-anchor="middle" x="922.46" y="-66.95" font-family="Times New Roman,serif" font-size="14.00">float</text>
</g>
<!-- 13&#45;&gt;14 -->
<g id="edge14" class="edge">
<title>13&#45;&gt;14</title>
<path fill="none" stroke="black" d="M698.79,-72.85C747.95,-72.67 833.26,-72.34 882.8,-72.15"/>
<polygon fill="black" stroke="black" points="882.78,-75.65 892.77,-72.11 882.75,-68.65 882.78,-75.65"/>
</g>
<!-- 16 -->
<!-- name: &quot;enum persona::AnimationExpression&quot;, typeName: &quot;&quot;, id: 16, branchId: 0, recurseId: &#45;1, attributes: 512, notes: &quot;&quot; -->
<g id="node17" class="node">
<title>16</title>
<ellipse fill="none" stroke="black" cx="922.46" cy="-18" rx="149.11" ry="18"/>
<text xml:space="preserve" text-anchor="middle" x="922.46" y="-12.95" font-family="Times New Roman,serif" font-size="14.00">enum persona::AnimationExpression</text>
</g>
<!-- 15&#45;&gt;16 -->
<g id="edge16" class="edge">
<title>15&#45;&gt;16</title>
<path fill="none" stroke="black" d="M399.5,-25.67C495.01,-24.26 647.22,-22.03 762.68,-20.33"/>
<polygon fill="black" stroke="black" points="762.63,-23.83 772.58,-20.19 762.53,-16.83 762.63,-23.83"/>
</g>
</g>
</svg>
