<?xml version="1.0" encoding="UTF-8" standalone="no"?>
<!DOCTYPE svg PUBLIC "-//W3C//DTD SVG 1.1//EN"
 "http://www.w3.org/Graphics/SVG/1.1/DTD/svg11.dtd">
<!-- Generated by graphviz version 12.2.0 (20241103.1931)
 -->
<!-- Title: AnimatePacket Pages: 1 -->
<svg width="977pt" height="206pt"
 viewBox="0.00 0.00 976.80 206.00" xmlns="http://www.w3.org/2000/svg" xmlns:xlink="http://www.w3.org/1999/xlink">
<g id="graph0" class="graph" transform="scale(1 1) rotate(0) translate(4 202)">
<title>AnimatePacket</title>
<polygon fill="white" stroke="none" points="-4,4 -4,-202 972.8,-202 972.8,4 -4,4"/>
<!-- 0 -->
<!-- name: &quot;AnimatePacket&quot;, typeName: &quot;&quot;, id: 0, branchId: 44, recurseId: &#45;1, attributes: 0, notes: &quot;&quot; -->
<g id="node1" class="node">
<title>0</title>
<ellipse fill="none" stroke="black" cx="67.73" cy="-126" rx="67.73" ry="18"/>
<text text-anchor="middle" x="67.73" y="-120.95" font-family="Times New Roman,serif" font-size="14.00">AnimatePacket</text>
</g>
<!-- 1 -->
<!-- name: &quot;Action&quot;, typeName: &quot;&quot;, id: 1, branchId: 0, recurseId: &#45;1, attributes: 0, notes: &quot;&quot; -->
<g id="node2" class="node">
<title>1</title>
<ellipse fill="none" stroke="black" cx="305.46" cy="-176" rx="36" ry="18"/>
<text text-anchor="middle" x="305.46" y="-170.95" font-family="Times New Roman,serif" font-size="14.00">Action</text>
</g>
<!-- 0&#45;&gt;1 -->
<g id="edge1" class="edge">
<title>0&#45;&gt;1</title>
<path fill="none" stroke="black" d="M121.63,-137.22C163.51,-146.1 221.31,-158.36 260.63,-166.7"/>
<polygon fill="black" stroke="black" points="259.72,-170.09 270.22,-168.74 261.17,-163.24 259.72,-170.09"/>
</g>
<!-- 3 -->
<!-- name: &quot;Target Runtime ID&quot;, typeName: &quot;ActorRuntimeID&quot;, id: 3, branchId: 0, recurseId: &#45;1, attributes: 256, notes: &quot;&quot; -->
<g id="node4" class="node">
<title>3</title>
<ellipse fill="none" stroke="black" cx="703.51" cy="-126" rx="81.55" ry="18"/>
<text text-anchor="middle" x="703.51" y="-120.95" font-family="Times New Roman,serif" font-size="14.00">Target Runtime ID</text>
</g>
<!-- 0&#45;&gt;3 -->
<g id="edge3" class="edge">
<title>0&#45;&gt;3</title>
<path fill="none" stroke="black" d="M135.95,-126C249.91,-126 481.17,-126 610.21,-126"/>
<polygon fill="black" stroke="black" points="610.09,-129.5 620.09,-126 610.09,-122.5 610.09,-129.5"/>
</g>
<!-- 5 -->
<!-- name: &quot;Dependency on &#39;Action &amp; 0x80 (i.e. Rowing)&#39;&quot;, typeName: &quot;&quot;, id: 5, branchId: 0, recurseId: &#45;1, attributes: 2, notes: &quot;&quot; -->
<g id="node6" class="node">
<title>5</title>
<polygon fill="none" stroke="black" points="433.46,-90 171.46,-90 171.46,-54 439.46,-54 439.46,-84 433.46,-90"/>
<polyline fill="none" stroke="black" points="433.46,-90 433.46,-84"/>
<polyline fill="none" stroke="black" points="439.46,-84 433.46,-84"/>
<text text-anchor="middle" x="305.46" y="-66.95" font-family="Times New Roman,serif" font-size="14.00">Dependency on &#39;Action &amp; 0x80 (i.e. Rowing)&#39;</text>
</g>
<!-- 0&#45;&gt;5 -->
<g id="edge5" class="edge">
<title>0&#45;&gt;5</title>
<path fill="none" stroke="black" d="M120.17,-114.22C147.31,-108 181.44,-100.18 212.92,-92.97"/>
<polygon fill="black" stroke="black" points="213.49,-96.43 222.46,-90.78 211.93,-89.61 213.49,-96.43"/>
</g>
<!-- 2 -->
<!-- name: &quot;varint&quot;, typeName: &quot;&quot;, id: 2, branchId: 0, recurseId: &#45;1, attributes: 512, notes: &quot;&quot; -->
<g id="node3" class="node">
<title>2</title>
<ellipse fill="none" stroke="black" cx="894.93" cy="-180" rx="32.41" ry="18"/>
<text text-anchor="middle" x="894.93" y="-174.95" font-family="Times New Roman,serif" font-size="14.00">varint</text>
</g>
<!-- 1&#45;&gt;2 -->
<g id="edge2" class="edge">
<title>1&#45;&gt;2</title>
<path fill="none" stroke="black" d="M341.88,-176.24C444.09,-176.94 739.25,-178.95 850.66,-179.71"/>
<polygon fill="black" stroke="black" points="850.55,-183.2 860.58,-179.77 850.6,-176.2 850.55,-183.2"/>
</g>
<!-- 4 -->
<!-- name: &quot;ActorRuntimeID&quot;, typeName: &quot;&quot;, id: 4, branchId: 0, recurseId: &#45;1, attributes: 512, notes: &quot;&quot; -->
<g id="node5" class="node">
<title>4</title>
<ellipse fill="none" stroke="black" cx="894.93" cy="-126" rx="73.87" ry="18"/>
<text text-anchor="middle" x="894.93" y="-120.95" font-family="Times New Roman,serif" font-size="14.00">ActorRuntimeID</text>
</g>
<!-- 3&#45;&gt;4 -->
<g id="edge4" class="edge">
<title>3&#45;&gt;4</title>
<path fill="none" stroke="black" d="M785.39,-126C793.38,-126 801.52,-126 809.55,-126"/>
<polygon fill="black" stroke="black" points="809.29,-129.5 819.29,-126 809.29,-122.5 809.29,-129.5"/>
</g>
<!-- 6 -->
<!-- name: &quot;If False&quot;, typeName: &quot;&quot;, id: 6, branchId: 0, recurseId: &#45;1, attributes: 4, notes: &quot;&quot; -->
<g id="node7" class="node">
<title>6</title>
<polygon fill="none" stroke="black" points="530.71,-90 475.46,-72 530.71,-54 585.96,-72 530.71,-90"/>
<text text-anchor="middle" x="530.71" y="-66.95" font-family="Times New Roman,serif" font-size="14.00">If False</text>
</g>
<!-- 5&#45;&gt;6 -->
<g id="edge6" class="edge">
<title>5&#45;&gt;6</title>
<path fill="none" stroke="black" d="M439.87,-72C447.69,-72 455.37,-72 462.73,-72"/>
<polygon fill="black" stroke="black" points="462.51,-75.5 472.51,-72 462.51,-68.5 462.51,-75.5"/>
</g>
<!-- 8 -->
<!-- name: &quot;If True&quot;, typeName: &quot;&quot;, id: 8, branchId: 1, recurseId: &#45;1, attributes: 4, notes: &quot;&quot; -->
<g id="node9" class="node">
<title>8</title>
<polygon fill="none" stroke="black" points="530.71,-36 479.08,-18 530.71,0 582.34,-18 530.71,-36"/>
<text text-anchor="middle" x="530.71" y="-12.95" font-family="Times New Roman,serif" font-size="14.00">If True</text>
</g>
<!-- 5&#45;&gt;8 -->
<g id="edge8" class="edge">
<title>5&#45;&gt;8</title>
<path fill="none" stroke="black" d="M382.66,-53.57C417.9,-45.04 458.39,-35.25 487.95,-28.1"/>
<polygon fill="black" stroke="black" points="488.74,-31.51 497.64,-25.76 487.1,-24.71 488.74,-31.51"/>
</g>
<!-- 7 -->
<!-- name: &quot;[No Data]&quot;, typeName: &quot;&quot;, id: 7, branchId: 0, recurseId: &#45;1, attributes: 512, notes: &quot;&quot; -->
<g id="node8" class="node">
<title>7</title>
<ellipse fill="none" stroke="black" cx="894.93" cy="-72" rx="48.28" ry="18"/>
<text text-anchor="middle" x="894.93" y="-66.95" font-family="Times New Roman,serif" font-size="14.00">[No Data]</text>
</g>
<!-- 6&#45;&gt;7 -->
<g id="edge7" class="edge">
<title>6&#45;&gt;7</title>
<path fill="none" stroke="black" d="M587.51,-72C654.48,-72 766.29,-72 834.74,-72"/>
<polygon fill="black" stroke="black" points="834.65,-75.5 844.65,-72 834.65,-68.5 834.65,-75.5"/>
</g>
<!-- 9 -->
<!-- name: &quot;Rowing Time&quot;, typeName: &quot;&quot;, id: 9, branchId: 0, recurseId: &#45;1, attributes: 0, notes: &quot;&quot; -->
<g id="node10" class="node">
<title>9</title>
<ellipse fill="none" stroke="black" cx="703.51" cy="-18" rx="62.1" ry="18"/>
<text text-anchor="middle" x="703.51" y="-12.95" font-family="Times New Roman,serif" font-size="14.00">Rowing Time</text>
</g>
<!-- 8&#45;&gt;9 -->
<g id="edge9" class="edge">
<title>8&#45;&gt;9</title>
<path fill="none" stroke="black" d="M583.42,-18C598.03,-18 614.22,-18 629.82,-18"/>
<polygon fill="black" stroke="black" points="629.54,-21.5 639.54,-18 629.54,-14.5 629.54,-21.5"/>
</g>
<!-- 10 -->
<!-- name: &quot;float&quot;, typeName: &quot;&quot;, id: 10, branchId: 0, recurseId: &#45;1, attributes: 512, notes: &quot;&quot; -->
<g id="node11" class="node">
<title>10</title>
<ellipse fill="none" stroke="black" cx="894.93" cy="-18" rx="27.81" ry="18"/>
<text text-anchor="middle" x="894.93" y="-12.95" font-family="Times New Roman,serif" font-size="14.00">float</text>
</g>
<!-- 9&#45;&gt;10 -->
<g id="edge10" class="edge">
<title>9&#45;&gt;10</title>
<path fill="none" stroke="black" d="M766.01,-18C795.48,-18 829.86,-18 855.55,-18"/>
<polygon fill="black" stroke="black" points="855.53,-21.5 865.53,-18 855.53,-14.5 855.53,-21.5"/>
</g>
</g>
</svg>
