<?xml version="1.0" encoding="UTF-8" standalone="no"?>
<!DOCTYPE svg PUBLIC "-//W3C//DTD SVG 1.1//EN"
 "http://www.w3.org/Graphics/SVG/1.1/DTD/svg11.dtd">
<!-- Generated by graphviz version 11.0.0 (20240428.1522)
 -->
<!-- Title: AnimatePacket Pages: 1 -->
<svg width="972pt" height="206pt"
 viewBox="0.00 0.00 971.52 206.00" xmlns="http://www.w3.org/2000/svg" xmlns:xlink="http://www.w3.org/1999/xlink">
<g id="graph0" class="graph" transform="scale(1 1) rotate(0) translate(4 202)">
<title>AnimatePacket</title>
<polygon fill="white" stroke="none" points="-4,4 -4,-202 967.52,-202 967.52,4 -4,4"/>
<!-- 0 -->
<!-- name: &quot;AnimatePacket&quot;, typeName: &quot;&quot;, id: 0, branchId: 44, recurseId: &#45;1, attributes: 0, notes: &quot;&quot; -->
<g id="node1" class="node">
<title>0</title>
<ellipse fill="none" stroke="black" cx="66.03" cy="-126" rx="66.03" ry="18"/>
<text text-anchor="middle" x="66.03" y="-120.58" font-family="Times New Roman,serif" font-size="14.00">AnimatePacket</text>
</g>
<!-- 1 -->
<!-- name: &quot;Action&quot;, typeName: &quot;&quot;, id: 1, branchId: 0, recurseId: &#45;1, attributes: 0, notes: &quot;&quot; -->
<g id="node2" class="node">
<title>1</title>
<ellipse fill="none" stroke="black" cx="304.69" cy="-176" rx="35.6" ry="18"/>
<text text-anchor="middle" x="304.69" y="-170.57" font-family="Times New Roman,serif" font-size="14.00">Action</text>
</g>
<!-- 0&#45;&gt;1 -->
<g id="edge1" class="edge">
<title>0&#45;&gt;1</title>
<path fill="none" stroke="black" d="M119.26,-137.03C161.51,-145.96 220.31,-158.38 260.07,-166.78"/>
<polygon fill="black" stroke="black" points="259.26,-170.19 269.77,-168.83 260.71,-163.34 259.26,-170.19"/>
</g>
<!-- 3 -->
<!-- name: &quot;Target Runtime ID&quot;, typeName: &quot;ActorRuntimeID&quot;, id: 3, branchId: 0, recurseId: &#45;1, attributes: 256, notes: &quot;&quot; -->
<g id="node4" class="node">
<title>3</title>
<ellipse fill="none" stroke="black" cx="702.47" cy="-126" rx="80.01" ry="18"/>
<text text-anchor="middle" x="702.47" y="-120.58" font-family="Times New Roman,serif" font-size="14.00">Target Runtime ID</text>
</g>
<!-- 0&#45;&gt;3 -->
<g id="edge3" class="edge">
<title>0&#45;&gt;3</title>
<path fill="none" stroke="black" d="M132.54,-126C246.4,-126 481.02,-126 610.57,-126"/>
<polygon fill="black" stroke="black" points="610.49,-129.5 620.49,-126 610.49,-122.5 610.49,-129.5"/>
</g>
<!-- 5 -->
<!-- name: &quot;Dependency on &#39;Action &amp; 0x80 (i.e. Rowing)&#39;&quot;, typeName: &quot;&quot;, id: 5, branchId: 0, recurseId: &#45;1, attributes: 2, notes: &quot;&quot; -->
<g id="node6" class="node">
<title>5</title>
<polygon fill="none" stroke="black" points="435.32,-90 168.07,-90 168.07,-54 441.32,-54 441.32,-84 435.32,-90"/>
<polyline fill="none" stroke="black" points="435.32,-90 435.32,-84"/>
<polyline fill="none" stroke="black" points="441.32,-84 435.32,-84"/>
<text text-anchor="middle" x="304.69" y="-66.58" font-family="Times New Roman,serif" font-size="14.00">Dependency on &#39;Action &amp; 0x80 (i.e. Rowing)&#39;</text>
</g>
<!-- 0&#45;&gt;5 -->
<g id="edge5" class="edge">
<title>0&#45;&gt;5</title>
<path fill="none" stroke="black" d="M117.8,-114.42C145.14,-108.18 179.71,-100.29 211.6,-93.01"/>
<polygon fill="black" stroke="black" points="212.31,-96.44 221.28,-90.81 210.75,-89.62 212.31,-96.44"/>
</g>
<!-- 2 -->
<!-- name: &quot;varint&quot;, typeName: &quot;&quot;, id: 2, branchId: 0, recurseId: &#45;1, attributes: 512, notes: &quot;&quot; -->
<g id="node3" class="node">
<title>2</title>
<ellipse fill="none" stroke="black" cx="891" cy="-180" rx="31.1" ry="18"/>
<text text-anchor="middle" x="891" y="-174.57" font-family="Times New Roman,serif" font-size="14.00">varint</text>
</g>
<!-- 1&#45;&gt;2 -->
<g id="edge2" class="edge">
<title>1&#45;&gt;2</title>
<path fill="none" stroke="black" d="M340.49,-176.24C442.19,-176.93 738.59,-178.96 848.42,-179.72"/>
<polygon fill="black" stroke="black" points="848.13,-183.21 858.15,-179.78 848.18,-176.21 848.13,-183.21"/>
</g>
<!-- 4 -->
<!-- name: &quot;ActorRuntimeID&quot;, typeName: &quot;&quot;, id: 4, branchId: 0, recurseId: &#45;1, attributes: 512, notes: &quot;&quot; -->
<g id="node5" class="node">
<title>4</title>
<ellipse fill="none" stroke="black" cx="891" cy="-126" rx="72.52" ry="18"/>
<text text-anchor="middle" x="891" y="-120.58" font-family="Times New Roman,serif" font-size="14.00">ActorRuntimeID</text>
</g>
<!-- 3&#45;&gt;4 -->
<g id="edge4" class="edge">
<title>3&#45;&gt;4</title>
<path fill="none" stroke="black" d="M782.84,-126C790.7,-126 798.7,-126 806.6,-126"/>
<polygon fill="black" stroke="black" points="806.57,-129.5 816.57,-126 806.57,-122.5 806.57,-129.5"/>
</g>
<!-- 6 -->
<!-- name: &quot;If False&quot;, typeName: &quot;&quot;, id: 6, branchId: 0, recurseId: &#45;1, attributes: 4, notes: &quot;&quot; -->
<g id="node7" class="node">
<title>6</title>
<polygon fill="none" stroke="black" points="531.89,-90 477.32,-72 531.89,-54 586.46,-72 531.89,-90"/>
<text text-anchor="middle" x="531.89" y="-66.58" font-family="Times New Roman,serif" font-size="14.00">If False</text>
</g>
<!-- 5&#45;&gt;6 -->
<g id="edge6" class="edge">
<title>5&#45;&gt;6</title>
<path fill="none" stroke="black" d="M441.56,-72C449.49,-72 457.25,-72 464.69,-72"/>
<polygon fill="black" stroke="black" points="464.57,-75.5 474.57,-72 464.57,-68.5 464.57,-75.5"/>
</g>
<!-- 8 -->
<!-- name: &quot;If True&quot;, typeName: &quot;&quot;, id: 8, branchId: 1, recurseId: &#45;1, attributes: 4, notes: &quot;&quot; -->
<g id="node9" class="node">
<title>8</title>
<polygon fill="none" stroke="black" points="531.89,-36 480.14,-18 531.89,0 583.64,-18 531.89,-36"/>
<text text-anchor="middle" x="531.89" y="-12.58" font-family="Times New Roman,serif" font-size="14.00">If True</text>
</g>
<!-- 5&#45;&gt;8 -->
<g id="edge8" class="edge">
<title>5&#45;&gt;8</title>
<path fill="none" stroke="black" d="M382.56,-53.57C418.27,-45.01 459.32,-35.16 489.17,-28"/>
<polygon fill="black" stroke="black" points="489.64,-31.49 498.55,-25.75 488.01,-24.68 489.64,-31.49"/>
</g>
<!-- 7 -->
<!-- name: &quot;[No Data]&quot;, typeName: &quot;&quot;, id: 7, branchId: 0, recurseId: &#45;1, attributes: 512, notes: &quot;&quot; -->
<g id="node8" class="node">
<title>7</title>
<ellipse fill="none" stroke="black" cx="891" cy="-72" rx="47.57" ry="18"/>
<text text-anchor="middle" x="891" y="-66.58" font-family="Times New Roman,serif" font-size="14.00">[No Data]</text>
</g>
<!-- 6&#45;&gt;7 -->
<g id="edge7" class="edge">
<title>6&#45;&gt;7</title>
<path fill="none" stroke="black" d="M587.91,-72C654.02,-72 764.47,-72 831.92,-72"/>
<polygon fill="black" stroke="black" points="831.67,-75.5 841.67,-72 831.67,-68.5 831.67,-75.5"/>
</g>
<!-- 9 -->
<!-- name: &quot;Rowing Time&quot;, typeName: &quot;&quot;, id: 9, branchId: 0, recurseId: &#45;1, attributes: 0, notes: &quot;&quot; -->
<g id="node10" class="node">
<title>9</title>
<ellipse fill="none" stroke="black" cx="702.47" cy="-18" rx="61.04" ry="18"/>
<text text-anchor="middle" x="702.47" y="-12.58" font-family="Times New Roman,serif" font-size="14.00">Rowing Time</text>
</g>
<!-- 8&#45;&gt;9 -->
<g id="edge9" class="edge">
<title>8&#45;&gt;9</title>
<path fill="none" stroke="black" d="M584.85,-18C599.03,-18 614.66,-18 629.73,-18"/>
<polygon fill="black" stroke="black" points="629.61,-21.5 639.61,-18 629.61,-14.5 629.61,-21.5"/>
</g>
<!-- 10 -->
<!-- name: &quot;float&quot;, typeName: &quot;&quot;, id: 10, branchId: 0, recurseId: &#45;1, attributes: 512, notes: &quot;&quot; -->
<g id="node11" class="node">
<title>10</title>
<ellipse fill="none" stroke="black" cx="891" cy="-18" rx="27.11" ry="18"/>
<text text-anchor="middle" x="891" y="-12.58" font-family="Times New Roman,serif" font-size="14.00">float</text>
</g>
<!-- 9&#45;&gt;10 -->
<g id="edge10" class="edge">
<title>9&#45;&gt;10</title>
<path fill="none" stroke="black" d="M763.77,-18C792.81,-18 826.74,-18 852.1,-18"/>
<polygon fill="black" stroke="black" points="851.94,-21.5 861.94,-18 851.94,-14.5 851.94,-21.5"/>
</g>
</g>
</svg>
