<?xml version="1.0" encoding="UTF-8" standalone="no"?>
<!DOCTYPE svg PUBLIC "-//W3C//DTD SVG 1.1//EN"
 "http://www.w3.org/Graphics/SVG/1.1/DTD/svg11.dtd">
<!-- Generated by graphviz version 2.46.1 (20210213.1702)
 -->
<!-- Title: AnimatePacket Pages: 1 -->
<svg width="839pt" height="476pt"
 viewBox="0.00 0.00 839.05 476.00" xmlns="http://www.w3.org/2000/svg" xmlns:xlink="http://www.w3.org/1999/xlink">
<g id="graph0" class="graph" transform="scale(1 1) rotate(0) translate(4 472)">
<title>AnimatePacket</title>
<polygon fill="white" stroke="transparent" points="-4,4 -4,-472 835.05,-472 835.05,4 -4,4"/>
<!-- 0 -->
<!-- name: &quot;AnimatePacket&quot;, typeName: &quot;&quot;, id: 0, branchId: 44, recurseId: &#45;1, attributes: 0, notes: &quot;&quot; -->
<g id="node1" class="node">
<title>0</title>
<ellipse fill="none" stroke="black" cx="64.99" cy="-396" rx="64.99" ry="18"/>
<text text-anchor="middle" x="64.99" y="-392.3" font-family="Times New Roman,serif" font-size="14.00">AnimatePacket</text>
</g>
<!-- 1 -->
<!-- name: &quot;Action&quot;, typeName: &quot;&quot;, id: 1, branchId: 0, recurseId: &#45;1, attributes: 0, notes: &quot;enumeration: AnimatePacket::Action&quot; -->
<g id="node2" class="node">
<title>1</title>
<ellipse fill="none" stroke="black" cx="241.99" cy="-446" rx="35.19" ry="18"/>
<text text-anchor="middle" x="241.99" y="-442.3" font-family="Times New Roman,serif" font-size="14.00">Action</text>
</g>
<!-- 0&#45;&gt;1 -->
<g id="edge1" class="edge">
<title>0&#45;&gt;1</title>
<path fill="none" stroke="black" d="M111.06,-408.88C138.9,-416.83 174.29,-426.94 201.11,-434.61"/>
<polygon fill="black" stroke="black" points="200.36,-438.03 210.93,-437.41 202.28,-431.3 200.36,-438.03"/>
</g>
<!-- 3 -->
<!-- name: &quot;Target Runtime ID&quot;, typeName: &quot;ActorRuntimeID&quot;, id: 3, branchId: 0, recurseId: &#45;1, attributes: 256, notes: &quot;&quot; -->
<g id="node4" class="node">
<title>3</title>
<ellipse fill="none" stroke="black" cx="573.42" cy="-396" rx="78.79" ry="18"/>
<text text-anchor="middle" x="573.42" y="-392.3" font-family="Times New Roman,serif" font-size="14.00">Target Runtime ID</text>
</g>
<!-- 0&#45;&gt;3 -->
<g id="edge3" class="edge">
<title>0&#45;&gt;3</title>
<path fill="none" stroke="black" d="M130.13,-396C219.94,-396 383.46,-396 484.53,-396"/>
<polygon fill="black" stroke="black" points="484.72,-399.5 494.72,-396 484.72,-392.5 484.72,-399.5"/>
</g>
<!-- 5 -->
<!-- name: &quot;Dependency on &#39;Action&#39;&quot;, typeName: &quot;&quot;, id: 5, branchId: 0, recurseId: &#45;1, attributes: 2, notes: &quot;&quot; -->
<g id="node6" class="node">
<title>5</title>
<polygon fill="none" stroke="black" points="311.99,-225 165.99,-225 165.99,-189 317.99,-189 317.99,-219 311.99,-225"/>
<polyline fill="none" stroke="black" points="311.99,-225 311.99,-219 "/>
<polyline fill="none" stroke="black" points="317.99,-219 311.99,-219 "/>
<text text-anchor="middle" x="241.99" y="-203.3" font-family="Times New Roman,serif" font-size="14.00">Dependency on &#39;Action&#39;</text>
</g>
<!-- 0&#45;&gt;5 -->
<g id="edge5" class="edge">
<title>0&#45;&gt;5</title>
<path fill="none" stroke="black" d="M82.14,-378.56C113.03,-345.2 180.62,-272.2 216.87,-233.05"/>
<polygon fill="black" stroke="black" points="219.88,-234.95 224.11,-225.23 214.75,-230.19 219.88,-234.95"/>
</g>
<!-- 2 -->
<!-- name: &quot;varint&quot;, typeName: &quot;&quot;, id: 2, branchId: 0, recurseId: &#45;1, attributes: 512, notes: &quot;&quot; -->
<g id="node3" class="node">
<title>2</title>
<ellipse fill="none" stroke="black" cx="759.55" cy="-450" rx="30.59" ry="18"/>
<text text-anchor="middle" x="759.55" y="-446.3" font-family="Times New Roman,serif" font-size="14.00">varint</text>
</g>
<!-- 1&#45;&gt;2 -->
<g id="edge2" class="edge">
<title>1&#45;&gt;2</title>
<path fill="none" stroke="black" d="M277.22,-446.27C369.11,-446.98 620.9,-448.93 718.84,-449.69"/>
<polygon fill="black" stroke="black" points="718.89,-453.19 728.92,-449.77 718.94,-446.19 718.89,-453.19"/>
</g>
<!-- 4 -->
<!-- name: &quot;ActorRuntimeID&quot;, typeName: &quot;&quot;, id: 4, branchId: 0, recurseId: &#45;1, attributes: 512, notes: &quot;&quot; -->
<g id="node5" class="node">
<title>4</title>
<ellipse fill="none" stroke="black" cx="759.55" cy="-396" rx="71.49" ry="18"/>
<text text-anchor="middle" x="759.55" y="-392.3" font-family="Times New Roman,serif" font-size="14.00">ActorRuntimeID</text>
</g>
<!-- 3&#45;&gt;4 -->
<g id="edge4" class="edge">
<title>3&#45;&gt;4</title>
<path fill="none" stroke="black" d="M652.24,-396C660.68,-396 669.29,-396 677.77,-396"/>
<polygon fill="black" stroke="black" points="678.02,-399.5 688.02,-396 678.02,-392.5 678.02,-399.5"/>
</g>
<!-- 6 -->
<!-- name: &quot;if (0)&quot;, typeName: &quot;&quot;, id: 6, branchId: 0, recurseId: &#45;1, attributes: 4, notes: &quot;&quot; -->
<g id="node7" class="node">
<title>6</title>
<polygon fill="none" stroke="black" points="573.42,-358 533.03,-340 573.42,-322 613.8,-340 573.42,-358"/>
<text text-anchor="middle" x="573.42" y="-336.3" font-family="Times New Roman,serif" font-size="14.00">if (0)</text>
</g>
<!-- 5&#45;&gt;6 -->
<g id="edge6" class="edge">
<title>5&#45;&gt;6</title>
<path fill="none" stroke="black" d="M264.57,-225.15C286,-242.33 320.41,-267.69 353.99,-283 413.37,-310.08 487.92,-326.05 532.78,-333.9"/>
<polygon fill="black" stroke="black" points="532.26,-337.36 542.7,-335.59 533.43,-330.46 532.26,-337.36"/>
</g>
<!-- 8 -->
<!-- name: &quot;if (1)&quot;, typeName: &quot;&quot;, id: 8, branchId: 1, recurseId: &#45;1, attributes: 4, notes: &quot;&quot; -->
<g id="node9" class="node">
<title>8</title>
<polygon fill="none" stroke="black" points="573.42,-300 533.03,-282 573.42,-264 613.8,-282 573.42,-300"/>
<text text-anchor="middle" x="573.42" y="-278.3" font-family="Times New Roman,serif" font-size="14.00">if (1)</text>
</g>
<!-- 5&#45;&gt;8 -->
<g id="edge8" class="edge">
<title>5&#45;&gt;8</title>
<path fill="none" stroke="black" d="M272.92,-225.21C294.62,-237.48 325.11,-252.87 353.99,-261 410.8,-276.99 478.85,-281.32 523.73,-282.24"/>
<polygon fill="black" stroke="black" points="523.72,-285.74 533.78,-282.4 523.83,-278.74 523.72,-285.74"/>
</g>
<!-- 10 -->
<!-- name: &quot;if (3)&quot;, typeName: &quot;&quot;, id: 10, branchId: 3, recurseId: &#45;1, attributes: 4, notes: &quot;&quot; -->
<g id="node11" class="node">
<title>10</title>
<polygon fill="none" stroke="black" points="406.38,-252 365.99,-234 406.38,-216 446.77,-234 406.38,-252"/>
<text text-anchor="middle" x="406.38" y="-230.3" font-family="Times New Roman,serif" font-size="14.00">if (3)</text>
</g>
<!-- 5&#45;&gt;10 -->
<g id="edge10" class="edge">
<title>5&#45;&gt;10</title>
<path fill="none" stroke="black" d="M318,-219.47C334.72,-222.25 351.79,-225.09 366.36,-227.51"/>
<polygon fill="black" stroke="black" points="366.04,-231.01 376.48,-229.19 367.19,-224.1 366.04,-231.01"/>
</g>
<!-- 12 -->
<!-- name: &quot;if (4)&quot;, typeName: &quot;&quot;, id: 12, branchId: 4, recurseId: &#45;1, attributes: 4, notes: &quot;&quot; -->
<g id="node13" class="node">
<title>12</title>
<polygon fill="none" stroke="black" points="406.38,-198 365.99,-180 406.38,-162 446.77,-180 406.38,-198"/>
<text text-anchor="middle" x="406.38" y="-176.3" font-family="Times New Roman,serif" font-size="14.00">if (4)</text>
</g>
<!-- 5&#45;&gt;12 -->
<g id="edge12" class="edge">
<title>5&#45;&gt;12</title>
<path fill="none" stroke="black" d="M318,-194.53C334.72,-191.75 351.79,-188.91 366.36,-186.49"/>
<polygon fill="black" stroke="black" points="367.19,-189.9 376.48,-184.81 366.04,-182.99 367.19,-189.9"/>
</g>
<!-- 14 -->
<!-- name: &quot;if (5)&quot;, typeName: &quot;&quot;, id: 14, branchId: 5, recurseId: &#45;1, attributes: 4, notes: &quot;&quot; -->
<g id="node15" class="node">
<title>14</title>
<polygon fill="none" stroke="black" points="406.38,-144 365.99,-126 406.38,-108 446.77,-126 406.38,-144"/>
<text text-anchor="middle" x="406.38" y="-122.3" font-family="Times New Roman,serif" font-size="14.00">if (5)</text>
</g>
<!-- 5&#45;&gt;14 -->
<g id="edge14" class="edge">
<title>5&#45;&gt;14</title>
<path fill="none" stroke="black" d="M279.43,-188.82C309.08,-174.03 350.31,-153.47 377.4,-139.95"/>
<polygon fill="black" stroke="black" points="379.31,-142.91 386.7,-135.32 376.19,-136.65 379.31,-142.91"/>
</g>
<!-- 16 -->
<!-- name: &quot;if (128)&quot;, typeName: &quot;&quot;, id: 16, branchId: 128, recurseId: &#45;1, attributes: 4, notes: &quot;&quot; -->
<g id="node17" class="node">
<title>16</title>
<polygon fill="none" stroke="black" points="406.38,-90 354.1,-72 406.38,-54 458.66,-72 406.38,-90"/>
<text text-anchor="middle" x="406.38" y="-68.3" font-family="Times New Roman,serif" font-size="14.00">if (128)</text>
</g>
<!-- 5&#45;&gt;16 -->
<g id="edge16" class="edge">
<title>5&#45;&gt;16</title>
<path fill="none" stroke="black" d="M258.55,-188.92C278.88,-166.04 316.34,-126.32 353.99,-99 360.16,-94.52 367.17,-90.34 373.98,-86.66"/>
<polygon fill="black" stroke="black" points="375.77,-89.67 383.06,-81.98 372.56,-83.45 375.77,-89.67"/>
</g>
<!-- 19 -->
<!-- name: &quot;if (129)&quot;, typeName: &quot;&quot;, id: 19, branchId: 129, recurseId: &#45;1, attributes: 4, notes: &quot;&quot; -->
<g id="node20" class="node">
<title>19</title>
<polygon fill="none" stroke="black" points="406.38,-36 354.1,-18 406.38,0 458.66,-18 406.38,-36"/>
<text text-anchor="middle" x="406.38" y="-14.3" font-family="Times New Roman,serif" font-size="14.00">if (129)</text>
</g>
<!-- 5&#45;&gt;19 -->
<g id="edge19" class="edge">
<title>5&#45;&gt;19</title>
<path fill="none" stroke="black" d="M251.67,-188.83C267.89,-156.43 305.58,-88.05 353.99,-45 359.4,-40.18 365.83,-35.94 372.27,-32.34"/>
<polygon fill="black" stroke="black" points="374.33,-35.21 381.61,-27.51 371.12,-28.99 374.33,-35.21"/>
</g>
<!-- 7 -->
<!-- name: &quot;[No Data]&quot;, typeName: &quot;&quot;, id: 7, branchId: 0, recurseId: &#45;1, attributes: 512, notes: &quot;&quot; -->
<g id="node8" class="node">
<title>7</title>
<ellipse fill="none" stroke="black" cx="759.55" cy="-342" rx="46.59" ry="18"/>
<text text-anchor="middle" x="759.55" y="-338.3" font-family="Times New Roman,serif" font-size="14.00">[No Data]</text>
</g>
<!-- 6&#45;&gt;7 -->
<g id="edge7" class="edge">
<title>6&#45;&gt;7</title>
<path fill="none" stroke="black" d="M613.02,-340.42C638.85,-340.7 673.27,-341.07 702.15,-341.39"/>
<polygon fill="black" stroke="black" points="702.48,-344.89 712.51,-341.5 702.55,-337.89 702.48,-344.89"/>
</g>
<!-- 9 -->
<!-- name: &quot;[No Data]&quot;, typeName: &quot;&quot;, id: 9, branchId: 0, recurseId: &#45;1, attributes: 512, notes: &quot;&quot; -->
<g id="node10" class="node">
<title>9</title>
<ellipse fill="none" stroke="black" cx="759.55" cy="-288" rx="46.59" ry="18"/>
<text text-anchor="middle" x="759.55" y="-284.3" font-family="Times New Roman,serif" font-size="14.00">[No Data]</text>
</g>
<!-- 8&#45;&gt;9 -->
<g id="edge9" class="edge">
<title>8&#45;&gt;9</title>
<path fill="none" stroke="black" d="M611.24,-283.2C637.34,-284.05 672.83,-285.21 702.45,-286.17"/>
<polygon fill="black" stroke="black" points="702.54,-289.68 712.65,-286.5 702.77,-282.68 702.54,-289.68"/>
</g>
<!-- 11 -->
<!-- name: &quot;[No Data]&quot;, typeName: &quot;&quot;, id: 11, branchId: 0, recurseId: &#45;1, attributes: 512, notes: &quot;&quot; -->
<g id="node12" class="node">
<title>11</title>
<ellipse fill="none" stroke="black" cx="759.55" cy="-234" rx="46.59" ry="18"/>
<text text-anchor="middle" x="759.55" y="-230.3" font-family="Times New Roman,serif" font-size="14.00">[No Data]</text>
</g>
<!-- 10&#45;&gt;11 -->
<g id="edge11" class="edge">
<title>10&#45;&gt;11</title>
<path fill="none" stroke="black" d="M446.98,-234C509.47,-234 631.17,-234 702.57,-234"/>
<polygon fill="black" stroke="black" points="702.73,-237.5 712.73,-234 702.73,-230.5 702.73,-237.5"/>
</g>
<!-- 13 -->
<!-- name: &quot;[No Data]&quot;, typeName: &quot;&quot;, id: 13, branchId: 0, recurseId: &#45;1, attributes: 512, notes: &quot;&quot; -->
<g id="node14" class="node">
<title>13</title>
<ellipse fill="none" stroke="black" cx="759.55" cy="-180" rx="46.59" ry="18"/>
<text text-anchor="middle" x="759.55" y="-176.3" font-family="Times New Roman,serif" font-size="14.00">[No Data]</text>
</g>
<!-- 12&#45;&gt;13 -->
<g id="edge13" class="edge">
<title>12&#45;&gt;13</title>
<path fill="none" stroke="black" d="M446.98,-180C509.47,-180 631.17,-180 702.57,-180"/>
<polygon fill="black" stroke="black" points="702.73,-183.5 712.73,-180 702.73,-176.5 702.73,-183.5"/>
</g>
<!-- 15 -->
<!-- name: &quot;[No Data]&quot;, typeName: &quot;&quot;, id: 15, branchId: 0, recurseId: &#45;1, attributes: 512, notes: &quot;&quot; -->
<g id="node16" class="node">
<title>15</title>
<ellipse fill="none" stroke="black" cx="759.55" cy="-126" rx="46.59" ry="18"/>
<text text-anchor="middle" x="759.55" y="-122.3" font-family="Times New Roman,serif" font-size="14.00">[No Data]</text>
</g>
<!-- 14&#45;&gt;15 -->
<g id="edge15" class="edge">
<title>14&#45;&gt;15</title>
<path fill="none" stroke="black" d="M446.98,-126C509.47,-126 631.17,-126 702.57,-126"/>
<polygon fill="black" stroke="black" points="702.73,-129.5 712.73,-126 702.73,-122.5 702.73,-129.5"/>
</g>
<!-- 17 -->
<!-- name: &quot;Rowing Time&quot;, typeName: &quot;&quot;, id: 17, branchId: 0, recurseId: &#45;1, attributes: 0, notes: &quot;&quot; -->
<g id="node18" class="node">
<title>17</title>
<ellipse fill="none" stroke="black" cx="573.42" cy="-72" rx="59.59" ry="18"/>
<text text-anchor="middle" x="573.42" y="-68.3" font-family="Times New Roman,serif" font-size="14.00">Rowing Time</text>
</g>
<!-- 16&#45;&gt;17 -->
<g id="edge17" class="edge">
<title>16&#45;&gt;17</title>
<path fill="none" stroke="black" d="M458.69,-72C472.76,-72 488.25,-72 503.15,-72"/>
<polygon fill="black" stroke="black" points="503.34,-75.5 513.34,-72 503.34,-68.5 503.34,-75.5"/>
</g>
<!-- 18 -->
<!-- name: &quot;float&quot;, typeName: &quot;&quot;, id: 18, branchId: 0, recurseId: &#45;1, attributes: 512, notes: &quot;&quot; -->
<g id="node19" class="node">
<title>18</title>
<ellipse fill="none" stroke="black" cx="759.55" cy="-72" rx="27" ry="18"/>
<text text-anchor="middle" x="759.55" y="-68.3" font-family="Times New Roman,serif" font-size="14.00">float</text>
</g>
<!-- 17&#45;&gt;18 -->
<g id="edge18" class="edge">
<title>17&#45;&gt;18</title>
<path fill="none" stroke="black" d="M633.44,-72C662.52,-72 696.68,-72 721.95,-72"/>
<polygon fill="black" stroke="black" points="722.2,-75.5 732.2,-72 722.2,-68.5 722.2,-75.5"/>
</g>
<!-- 20 -->
<!-- name: &quot;Rowing Time&quot;, typeName: &quot;&quot;, id: 20, branchId: 0, recurseId: &#45;1, attributes: 0, notes: &quot;&quot; -->
<g id="node21" class="node">
<title>20</title>
<ellipse fill="none" stroke="black" cx="573.42" cy="-18" rx="59.59" ry="18"/>
<text text-anchor="middle" x="573.42" y="-14.3" font-family="Times New Roman,serif" font-size="14.00">Rowing Time</text>
</g>
<!-- 19&#45;&gt;20 -->
<g id="edge20" class="edge">
<title>19&#45;&gt;20</title>
<path fill="none" stroke="black" d="M458.69,-18C472.76,-18 488.25,-18 503.15,-18"/>
<polygon fill="black" stroke="black" points="503.34,-21.5 513.34,-18 503.34,-14.5 503.34,-21.5"/>
</g>
<!-- 21 -->
<!-- name: &quot;float&quot;, typeName: &quot;&quot;, id: 21, branchId: 0, recurseId: &#45;1, attributes: 512, notes: &quot;&quot; -->
<g id="node22" class="node">
<title>21</title>
<ellipse fill="none" stroke="black" cx="759.55" cy="-18" rx="27" ry="18"/>
<text text-anchor="middle" x="759.55" y="-14.3" font-family="Times New Roman,serif" font-size="14.00">float</text>
</g>
<!-- 20&#45;&gt;21 -->
<g id="edge21" class="edge">
<title>20&#45;&gt;21</title>
<path fill="none" stroke="black" d="M633.44,-18C662.52,-18 696.68,-18 721.95,-18"/>
<polygon fill="black" stroke="black" points="722.2,-21.5 732.2,-18 722.2,-14.5 722.2,-21.5"/>
</g>
</g>
</svg>
