<?xml version="1.0" encoding="UTF-8" standalone="no"?>
<!DOCTYPE svg PUBLIC "-//W3C//DTD SVG 1.1//EN"
 "http://www.w3.org/Graphics/SVG/1.1/DTD/svg11.dtd">
<!-- Generated by graphviz version 14.1.5 (20260411.2331)
 -->
<!-- Title: ArrowDataPayload Pages: 1 -->
<svg width="751pt" height="314pt"
 viewBox="0.00 0.00 751.00 314.00" xmlns="http://www.w3.org/2000/svg" xmlns:xlink="http://www.w3.org/1999/xlink">
<g id="graph0" class="graph" transform="scale(1 1) rotate(0) translate(4 310)">
<title>ArrowDataPayload</title>
<polygon fill="white" stroke="none" points="-4,4 -4,-310 746.98,-310 746.98,4 -4,4"/>
<!-- 0 -->
<!-- name: &quot;ArrowDataPayload&quot;, typeName: &quot;&quot;, id: 0, branchId: 0, recurseId: &#45;1, attributes: 0, notes: &quot;&quot; -->
<g id="node1" class="node">
<title>0</title>
<ellipse fill="none" stroke="black" cx="82.06" cy="-99" rx="82.06" ry="18"/>
<text xml:space="preserve" text-anchor="middle" x="82.06" y="-93.95" font-family="Times New Roman,serif" font-size="14.00">ArrowDataPayload</text>
</g>
<!-- 1 -->
<!-- name: &quot;Arrow End Location&quot;, typeName: &quot;&quot;, id: 1, branchId: 0, recurseId: &#45;1, attributes: 0, notes: &quot;Vec3 end location of the debug arrow.&quot; -->
<g id="node2" class="node">
<title>1</title>
<ellipse fill="none" stroke="black" cx="287.81" cy="-207" rx="87.69" ry="18"/>
<text xml:space="preserve" text-anchor="middle" x="287.81" y="-201.95" font-family="Times New Roman,serif" font-size="14.00">Arrow End Location</text>
</g>
<!-- 0&#45;&gt;1 -->
<g id="edge1" class="edge">
<title>0&#45;&gt;1</title>
<path fill="none" stroke="black" d="M114.9,-115.88C149.83,-134.39 206.05,-164.19 244.63,-184.64"/>
<polygon fill="black" stroke="black" points="242.71,-187.59 253.19,-189.18 245.99,-181.4 242.71,-187.59"/>
</g>
<!-- 8 -->
<!-- name: &quot;Arrow Head Length&quot;, typeName: &quot;&quot;, id: 8, branchId: 0, recurseId: &#45;1, attributes: 0, notes: &quot;Length of the head of the debug arrow.&quot; -->
<g id="node9" class="node">
<title>8</title>
<ellipse fill="none" stroke="black" cx="287.81" cy="-126" rx="85.64" ry="18"/>
<text xml:space="preserve" text-anchor="middle" x="287.81" y="-120.95" font-family="Times New Roman,serif" font-size="14.00">Arrow Head Length</text>
</g>
<!-- 0&#45;&gt;8 -->
<g id="edge8" class="edge">
<title>0&#45;&gt;8</title>
<path fill="none" stroke="black" d="M153.18,-108.29C169.27,-110.42 186.53,-112.71 203.12,-114.91"/>
<polygon fill="black" stroke="black" points="202.61,-118.37 212.98,-116.22 203.53,-111.43 202.61,-118.37"/>
</g>
<!-- 10 -->
<!-- name: &quot;Arrow Head Radius&quot;, typeName: &quot;&quot;, id: 10, branchId: 0, recurseId: &#45;1, attributes: 0, notes: &quot;Radius of the head of the debug arrow.&quot; -->
<g id="node11" class="node">
<title>10</title>
<ellipse fill="none" stroke="black" cx="496.63" cy="-76" rx="85.13" ry="18"/>
<text xml:space="preserve" text-anchor="middle" x="496.63" y="-70.95" font-family="Times New Roman,serif" font-size="14.00">Arrow Head Radius</text>
</g>
<!-- 0&#45;&gt;10 -->
<g id="edge10" class="edge">
<title>0&#45;&gt;10</title>
<path fill="none" stroke="black" d="M162.12,-94.59C230.64,-90.77 329.87,-85.24 402.28,-81.2"/>
<polygon fill="black" stroke="black" points="402.36,-84.71 412.15,-80.65 401.97,-77.72 402.36,-84.71"/>
</g>
<!-- 12 -->
<!-- name: &quot;Num Segments&quot;, typeName: &quot;&quot;, id: 12, branchId: 0, recurseId: &#45;1, attributes: 0, notes: &quot;Integer number of segments used for the debug arrow&#39;s head.&quot; -->
<g id="node13" class="node">
<title>12</title>
<ellipse fill="none" stroke="black" cx="287.81" cy="-22" rx="68.75" ry="18"/>
<text xml:space="preserve" text-anchor="middle" x="287.81" y="-16.95" font-family="Times New Roman,serif" font-size="14.00">Num Segments</text>
</g>
<!-- 0&#45;&gt;12 -->
<g id="edge12" class="edge">
<title>0&#45;&gt;12</title>
<path fill="none" stroke="black" d="M124.78,-83.23C157.14,-71 202.11,-54.01 236.47,-41.03"/>
<polygon fill="black" stroke="black" points="237.69,-44.31 245.8,-37.5 235.21,-37.76 237.69,-44.31"/>
</g>
<!-- 2 -->
<!-- name: &quot;X&quot;, typeName: &quot;&quot;, id: 2, branchId: 0, recurseId: &#45;1, attributes: 0, notes: &quot;&quot; -->
<g id="node3" class="node">
<title>2</title>
<ellipse fill="none" stroke="black" cx="496.63" cy="-288" rx="27" ry="18"/>
<text xml:space="preserve" text-anchor="middle" x="496.63" y="-282.95" font-family="Times New Roman,serif" font-size="14.00">X</text>
</g>
<!-- 1&#45;&gt;2 -->
<g id="edge2" class="edge">
<title>1&#45;&gt;2</title>
<path fill="none" stroke="black" d="M324.37,-223.83C348.65,-235.02 381.69,-249.69 411.5,-261 427.39,-267.03 445.28,-272.89 460.46,-277.61"/>
<polygon fill="black" stroke="black" points="459.43,-280.95 470.02,-280.53 461.48,-274.26 459.43,-280.95"/>
</g>
<!-- 4 -->
<!-- name: &quot;Y&quot;, typeName: &quot;&quot;, id: 4, branchId: 0, recurseId: &#45;1, attributes: 0, notes: &quot;&quot; -->
<g id="node5" class="node">
<title>4</title>
<ellipse fill="none" stroke="black" cx="496.63" cy="-234" rx="27" ry="18"/>
<text xml:space="preserve" text-anchor="middle" x="496.63" y="-228.95" font-family="Times New Roman,serif" font-size="14.00">Y</text>
</g>
<!-- 1&#45;&gt;4 -->
<g id="edge4" class="edge">
<title>1&#45;&gt;4</title>
<path fill="none" stroke="black" d="M362.89,-216.67C395.4,-220.92 432.13,-225.71 458.7,-229.18"/>
<polygon fill="black" stroke="black" points="457.91,-232.61 468.28,-230.43 458.81,-225.66 457.91,-232.61"/>
</g>
<!-- 6 -->
<!-- name: &quot;Z&quot;, typeName: &quot;&quot;, id: 6, branchId: 0, recurseId: &#45;1, attributes: 0, notes: &quot;&quot; -->
<g id="node7" class="node">
<title>6</title>
<ellipse fill="none" stroke="black" cx="496.63" cy="-180" rx="27" ry="18"/>
<text xml:space="preserve" text-anchor="middle" x="496.63" y="-174.95" font-family="Times New Roman,serif" font-size="14.00">Z</text>
</g>
<!-- 1&#45;&gt;6 -->
<g id="edge6" class="edge">
<title>1&#45;&gt;6</title>
<path fill="none" stroke="black" d="M362.89,-197.33C395.4,-193.08 432.13,-188.29 458.7,-184.82"/>
<polygon fill="black" stroke="black" points="458.81,-188.34 468.28,-183.57 457.91,-181.39 458.81,-188.34"/>
</g>
<!-- 3 -->
<!-- name: &quot;float&quot;, typeName: &quot;&quot;, id: 3, branchId: 0, recurseId: &#45;1, attributes: 512, notes: &quot;&quot; -->
<g id="node4" class="node">
<title>3</title>
<ellipse fill="none" stroke="black" cx="680.37" cy="-288" rx="27.81" ry="18"/>
<text xml:space="preserve" text-anchor="middle" x="680.37" y="-282.95" font-family="Times New Roman,serif" font-size="14.00">float</text>
</g>
<!-- 2&#45;&gt;3 -->
<g id="edge3" class="edge">
<title>2&#45;&gt;3</title>
<path fill="none" stroke="black" d="M524.06,-288C554.84,-288 605.94,-288 641.07,-288"/>
<polygon fill="black" stroke="black" points="640.81,-291.5 650.81,-288 640.81,-284.5 640.81,-291.5"/>
</g>
<!-- 5 -->
<!-- name: &quot;float&quot;, typeName: &quot;&quot;, id: 5, branchId: 0, recurseId: &#45;1, attributes: 512, notes: &quot;&quot; -->
<g id="node6" class="node">
<title>5</title>
<ellipse fill="none" stroke="black" cx="680.37" cy="-234" rx="27.81" ry="18"/>
<text xml:space="preserve" text-anchor="middle" x="680.37" y="-228.95" font-family="Times New Roman,serif" font-size="14.00">float</text>
</g>
<!-- 4&#45;&gt;5 -->
<g id="edge5" class="edge">
<title>4&#45;&gt;5</title>
<path fill="none" stroke="black" d="M524.06,-234C554.84,-234 605.94,-234 641.07,-234"/>
<polygon fill="black" stroke="black" points="640.81,-237.5 650.81,-234 640.81,-230.5 640.81,-237.5"/>
</g>
<!-- 7 -->
<!-- name: &quot;float&quot;, typeName: &quot;&quot;, id: 7, branchId: 0, recurseId: &#45;1, attributes: 512, notes: &quot;&quot; -->
<g id="node8" class="node">
<title>7</title>
<ellipse fill="none" stroke="black" cx="680.37" cy="-180" rx="27.81" ry="18"/>
<text xml:space="preserve" text-anchor="middle" x="680.37" y="-174.95" font-family="Times New Roman,serif" font-size="14.00">float</text>
</g>
<!-- 6&#45;&gt;7 -->
<g id="edge7" class="edge">
<title>6&#45;&gt;7</title>
<path fill="none" stroke="black" d="M524.06,-180C554.84,-180 605.94,-180 641.07,-180"/>
<polygon fill="black" stroke="black" points="640.81,-183.5 650.81,-180 640.81,-176.5 640.81,-183.5"/>
</g>
<!-- 9 -->
<!-- name: &quot;float&quot;, typeName: &quot;&quot;, id: 9, branchId: 0, recurseId: &#45;1, attributes: 512, notes: &quot;Length of the head of the debug arrow.&quot; -->
<g id="node10" class="node">
<title>9</title>
<ellipse fill="none" stroke="black" cx="680.37" cy="-126" rx="27.81" ry="18"/>
<text xml:space="preserve" text-anchor="middle" x="680.37" y="-120.95" font-family="Times New Roman,serif" font-size="14.00">float</text>
</g>
<!-- 8&#45;&gt;9 -->
<g id="edge9" class="edge">
<title>8&#45;&gt;9</title>
<path fill="none" stroke="black" d="M373.56,-126C456.6,-126 579.4,-126 641.08,-126"/>
<polygon fill="black" stroke="black" points="640.7,-129.5 650.7,-126 640.7,-122.5 640.7,-129.5"/>
</g>
<!-- 11 -->
<!-- name: &quot;float&quot;, typeName: &quot;&quot;, id: 11, branchId: 0, recurseId: &#45;1, attributes: 512, notes: &quot;Radius of the head of the debug arrow.&quot; -->
<g id="node12" class="node">
<title>11</title>
<ellipse fill="none" stroke="black" cx="680.37" cy="-72" rx="27.81" ry="18"/>
<text xml:space="preserve" text-anchor="middle" x="680.37" y="-66.95" font-family="Times New Roman,serif" font-size="14.00">float</text>
</g>
<!-- 10&#45;&gt;11 -->
<g id="edge11" class="edge">
<title>10&#45;&gt;11</title>
<path fill="none" stroke="black" d="M581.59,-74.15C602.29,-73.7 623.48,-73.23 640.81,-72.85"/>
<polygon fill="black" stroke="black" points="640.71,-76.35 650.63,-72.63 640.56,-69.35 640.71,-76.35"/>
</g>
<!-- 13 -->
<!-- name: &quot;unsigned byte&quot;, typeName: &quot;&quot;, id: 13, branchId: 0, recurseId: &#45;1, attributes: 512, notes: &quot;Integer number of segments used for the debug arrow&#39;s head.&quot; -->
<g id="node14" class="node">
<title>13</title>
<ellipse fill="none" stroke="black" cx="680.37" cy="-18" rx="62.61" ry="18"/>
<text xml:space="preserve" text-anchor="middle" x="680.37" y="-12.95" font-family="Times New Roman,serif" font-size="14.00">unsigned byte</text>
</g>
<!-- 12&#45;&gt;13 -->
<g id="edge13" class="edge">
<title>12&#45;&gt;13</title>
<path fill="none" stroke="black" d="M356.84,-21.3C426.65,-20.59 534.88,-19.48 606.43,-18.75"/>
<polygon fill="black" stroke="black" points="606.11,-22.25 616.07,-18.65 606.04,-15.25 606.11,-22.25"/>
</g>
</g>
</svg>
