<?xml version="1.0" encoding="UTF-8" standalone="no"?>
<!DOCTYPE svg PUBLIC "-//W3C//DTD SVG 1.1//EN"
 "http://www.w3.org/Graphics/SVG/1.1/DTD/svg11.dtd">
<!-- Generated by graphviz version 14.1.5 (20260411.2331)
 -->
<!-- Title: AttributeLayerData Pages: 1 -->
<svg width="953pt" height="746pt"
 viewBox="0.00 0.00 953.00 746.00" xmlns="http://www.w3.org/2000/svg" xmlns:xlink="http://www.w3.org/1999/xlink">
<g id="graph0" class="graph" transform="scale(1 1) rotate(0) translate(4 742)">
<title>AttributeLayerData</title>
<polygon fill="white" stroke="none" points="-4,4 -4,-742 949.15,-742 949.15,4 -4,4"/>
<!-- 0 -->
<!-- name: &quot;AttributeLayerData&quot;, typeName: &quot;&quot;, id: 0, branchId: 0, recurseId: &#45;1, attributes: 0, notes: &quot;&quot; -->
<g id="node1" class="node">
<title>0</title>
<ellipse fill="none" stroke="black" cx="83.08" cy="-612" rx="83.08" ry="18"/>
<text xml:space="preserve" text-anchor="middle" x="83.08" y="-606.95" font-family="Times New Roman,serif" font-size="14.00">AttributeLayerData</text>
</g>
<!-- 1 -->
<!-- name: &quot;Name&quot;, typeName: &quot;&quot;, id: 1, branchId: 0, recurseId: &#45;1, attributes: 0, notes: &quot;&quot; -->
<g id="node2" class="node">
<title>1</title>
<ellipse fill="none" stroke="black" cx="254.03" cy="-712" rx="33.44" ry="18"/>
<text xml:space="preserve" text-anchor="middle" x="254.03" y="-706.95" font-family="Times New Roman,serif" font-size="14.00">Name</text>
</g>
<!-- 0&#45;&gt;1 -->
<g id="edge1" class="edge">
<title>0&#45;&gt;1</title>
<path fill="none" stroke="black" d="M113.13,-629.19C143.05,-646.9 189.58,-674.44 220.67,-692.84"/>
<polygon fill="black" stroke="black" points="218.88,-695.85 229.27,-697.93 222.44,-689.83 218.88,-695.85"/>
</g>
<!-- 3 -->
<!-- name: &quot;Dimension&quot;, typeName: &quot;&quot;, id: 3, branchId: 0, recurseId: &#45;1, attributes: 0, notes: &quot;&quot; -->
<g id="node4" class="node">
<title>3</title>
<ellipse fill="none" stroke="black" cx="254.03" cy="-650" rx="51.86" ry="18"/>
<text xml:space="preserve" text-anchor="middle" x="254.03" y="-644.95" font-family="Times New Roman,serif" font-size="14.00">Dimension</text>
</g>
<!-- 0&#45;&gt;3 -->
<g id="edge3" class="edge">
<title>0&#45;&gt;3</title>
<path fill="none" stroke="black" d="M141.75,-624.97C160.2,-629.12 180.54,-633.7 198.74,-637.79"/>
<polygon fill="black" stroke="black" points="197.75,-641.15 208.28,-639.93 199.29,-634.32 197.75,-641.15"/>
</g>
<!-- 6 -->
<!-- name: &quot;Settings&quot;, typeName: &quot;&quot;, id: 6, branchId: 0, recurseId: &#45;1, attributes: 0, notes: &quot;&quot; -->
<g id="node7" class="node">
<title>6</title>
<ellipse fill="none" stroke="black" cx="416.79" cy="-558" rx="40.6" ry="18"/>
<text xml:space="preserve" text-anchor="middle" x="416.79" y="-552.95" font-family="Times New Roman,serif" font-size="14.00">Settings</text>
</g>
<!-- 0&#45;&gt;6 -->
<g id="edge6" class="edge">
<title>0&#45;&gt;6</title>
<path fill="none" stroke="black" d="M150.41,-601.2C214.44,-590.78 309.87,-575.24 367.15,-565.92"/>
<polygon fill="black" stroke="black" points="367.62,-569.39 376.93,-564.33 366.5,-562.48 367.62,-569.39"/>
</g>
<!-- 15 -->
<!-- name: &quot;Attributes&quot;, typeName: &quot;&quot;, id: 15, branchId: 0, recurseId: &#45;1, attributes: 0, notes: &quot;&quot; -->
<g id="node16" class="node">
<title>15</title>
<ellipse fill="none" stroke="black" cx="254.03" cy="-396" rx="47.77" ry="18"/>
<text xml:space="preserve" text-anchor="middle" x="254.03" y="-390.95" font-family="Times New Roman,serif" font-size="14.00">Attributes</text>
</g>
<!-- 0&#45;&gt;15 -->
<g id="edge15" class="edge">
<title>0&#45;&gt;15</title>
<path fill="none" stroke="black" d="M98.2,-593.96C127.97,-555.89 197.34,-467.2 232.22,-422.61"/>
<polygon fill="black" stroke="black" points="234.97,-424.76 238.38,-414.73 229.46,-420.45 234.97,-424.76"/>
</g>
<!-- 2 -->
<!-- name: &quot;string&quot;, typeName: &quot;&quot;, id: 2, branchId: 0, recurseId: &#45;1, attributes: 512, notes: &quot;&quot; -->
<g id="node3" class="node">
<title>2</title>
<ellipse fill="none" stroke="black" cx="851.83" cy="-720" rx="31.9" ry="18"/>
<text xml:space="preserve" text-anchor="middle" x="851.83" y="-714.95" font-family="Times New Roman,serif" font-size="14.00">string</text>
</g>
<!-- 1&#45;&gt;2 -->
<g id="edge2" class="edge">
<title>1&#45;&gt;2</title>
<path fill="none" stroke="black" d="M287.91,-712.44C388.99,-713.8 695.12,-717.91 808.23,-719.43"/>
<polygon fill="black" stroke="black" points="807.94,-722.92 817.98,-719.56 808.03,-715.92 807.94,-722.92"/>
</g>
<!-- 4 -->
<!-- name: &quot;value&quot;, typeName: &quot;&quot;, id: 4, branchId: 0, recurseId: &#45;1, attributes: 0, notes: &quot;&quot; -->
<g id="node5" class="node">
<title>4</title>
<ellipse fill="none" stroke="black" cx="416.79" cy="-658" rx="30.88" ry="18"/>
<text xml:space="preserve" text-anchor="middle" x="416.79" y="-652.95" font-family="Times New Roman,serif" font-size="14.00">value</text>
</g>
<!-- 3&#45;&gt;4 -->
<g id="edge4" class="edge">
<title>3&#45;&gt;4</title>
<path fill="none" stroke="black" d="M305.9,-652.53C327.99,-653.63 353.54,-654.9 374.44,-655.94"/>
<polygon fill="black" stroke="black" points="374.16,-659.43 384.32,-656.43 374.51,-652.44 374.16,-659.43"/>
</g>
<!-- 5 -->
<!-- name: &quot;varint&quot;, typeName: &quot;&quot;, id: 5, branchId: 0, recurseId: &#45;1, attributes: 512, notes: &quot;&quot; -->
<g id="node6" class="node">
<title>5</title>
<ellipse fill="none" stroke="black" cx="851.83" cy="-666" rx="32.41" ry="18"/>
<text xml:space="preserve" text-anchor="middle" x="851.83" y="-660.95" font-family="Times New Roman,serif" font-size="14.00">varint</text>
</g>
<!-- 4&#45;&gt;5 -->
<g id="edge5" class="edge">
<title>4&#45;&gt;5</title>
<path fill="none" stroke="black" d="M447.89,-658.56C523.26,-659.95 720.27,-663.59 807.82,-665.21"/>
<polygon fill="black" stroke="black" points="807.6,-668.7 817.67,-665.39 807.73,-661.7 807.6,-668.7"/>
</g>
<!-- 7 -->
<!-- name: &quot;Priority&quot;, typeName: &quot;&quot;, id: 7, branchId: 0, recurseId: &#45;1, attributes: 0, notes: &quot;&quot; -->
<g id="node8" class="node">
<title>7</title>
<ellipse fill="none" stroke="black" cx="625.1" cy="-612" rx="39.07" ry="18"/>
<text xml:space="preserve" text-anchor="middle" x="625.1" y="-606.95" font-family="Times New Roman,serif" font-size="14.00">Priority</text>
</g>
<!-- 6&#45;&gt;7 -->
<g id="edge7" class="edge">
<title>6&#45;&gt;7</title>
<path fill="none" stroke="black" d="M452.32,-567.04C487.29,-576.19 541.53,-590.39 579.69,-600.38"/>
<polygon fill="black" stroke="black" points="578.46,-603.67 589.02,-602.82 580.23,-596.9 578.46,-603.67"/>
</g>
<!-- 9 -->
<!-- name: &quot;Weight&quot;, typeName: &quot;&quot;, id: 9, branchId: 0, recurseId: &#45;1, attributes: 0, notes: &quot;&quot; -->
<g id="node10" class="node">
<title>9</title>
<ellipse fill="none" stroke="black" cx="625.1" cy="-558" rx="37.53" ry="18"/>
<text xml:space="preserve" text-anchor="middle" x="625.1" y="-552.95" font-family="Times New Roman,serif" font-size="14.00">Weight</text>
</g>
<!-- 6&#45;&gt;9 -->
<g id="edge9" class="edge">
<title>6&#45;&gt;9</title>
<path fill="none" stroke="black" d="M457.57,-558C491.38,-558 540.02,-558 576.01,-558"/>
<polygon fill="black" stroke="black" points="575.7,-561.5 585.7,-558 575.7,-554.5 575.7,-561.5"/>
</g>
<!-- 11 -->
<!-- name: &quot;Enabled&quot;, typeName: &quot;&quot;, id: 11, branchId: 0, recurseId: &#45;1, attributes: 0, notes: &quot;&quot; -->
<g id="node12" class="node">
<title>11</title>
<ellipse fill="none" stroke="black" cx="625.1" cy="-504" rx="41.12" ry="18"/>
<text xml:space="preserve" text-anchor="middle" x="625.1" y="-498.95" font-family="Times New Roman,serif" font-size="14.00">Enabled</text>
</g>
<!-- 6&#45;&gt;11 -->
<g id="edge11" class="edge">
<title>6&#45;&gt;11</title>
<path fill="none" stroke="black" d="M452.32,-548.96C486.88,-539.92 540.24,-525.95 578.31,-515.98"/>
<polygon fill="black" stroke="black" points="578.86,-519.46 587.64,-513.54 577.08,-512.69 578.86,-519.46"/>
</g>
<!-- 13 -->
<!-- name: &quot;TransitionsPaused&quot;, typeName: &quot;&quot;, id: 13, branchId: 0, recurseId: &#45;1, attributes: 0, notes: &quot;&quot; -->
<g id="node14" class="node">
<title>13</title>
<ellipse fill="none" stroke="black" cx="625.1" cy="-450" rx="78.48" ry="18"/>
<text xml:space="preserve" text-anchor="middle" x="625.1" y="-444.95" font-family="Times New Roman,serif" font-size="14.00">TransitionsPaused</text>
</g>
<!-- 6&#45;&gt;13 -->
<g id="edge13" class="edge">
<title>6&#45;&gt;13</title>
<path fill="none" stroke="black" d="M435.5,-541.73C456.18,-523.54 492.11,-494.36 527.68,-477 536.54,-472.68 546.19,-468.95 555.87,-465.76"/>
<polygon fill="black" stroke="black" points="556.79,-469.13 565.31,-462.83 554.72,-462.45 556.79,-469.13"/>
</g>
<!-- 8 -->
<!-- name: &quot;int&quot;, typeName: &quot;&quot;, id: 8, branchId: 0, recurseId: &#45;1, attributes: 512, notes: &quot;&quot; -->
<g id="node9" class="node">
<title>8</title>
<ellipse fill="none" stroke="black" cx="851.83" cy="-612" rx="27" ry="18"/>
<text xml:space="preserve" text-anchor="middle" x="851.83" y="-606.95" font-family="Times New Roman,serif" font-size="14.00">int</text>
</g>
<!-- 7&#45;&gt;8 -->
<g id="edge8" class="edge">
<title>7&#45;&gt;8</title>
<path fill="none" stroke="black" d="M664.47,-612C706.01,-612 771.82,-612 813.1,-612"/>
<polygon fill="black" stroke="black" points="813.04,-615.5 823.04,-612 813.04,-608.5 813.04,-615.5"/>
</g>
<!-- 10 -->
<!-- name: &quot;float&quot;, typeName: &quot;&quot;, id: 10, branchId: 0, recurseId: &#45;1, attributes: 512, notes: &quot;&quot; -->
<g id="node11" class="node">
<title>10</title>
<ellipse fill="none" stroke="black" cx="851.83" cy="-558" rx="27.81" ry="18"/>
<text xml:space="preserve" text-anchor="middle" x="851.83" y="-552.95" font-family="Times New Roman,serif" font-size="14.00">float</text>
</g>
<!-- 9&#45;&gt;10 -->
<g id="edge10" class="edge">
<title>9&#45;&gt;10</title>
<path fill="none" stroke="black" d="M662.96,-558C704.18,-558 770.66,-558 812.48,-558"/>
<polygon fill="black" stroke="black" points="812.33,-561.5 822.33,-558 812.33,-554.5 812.33,-561.5"/>
</g>
<!-- 12 -->
<!-- name: &quot;bool&quot;, typeName: &quot;&quot;, id: 12, branchId: 0, recurseId: &#45;1, attributes: 512, notes: &quot;&quot; -->
<g id="node13" class="node">
<title>12</title>
<ellipse fill="none" stroke="black" cx="851.83" cy="-504" rx="27.3" ry="18"/>
<text xml:space="preserve" text-anchor="middle" x="851.83" y="-498.95" font-family="Times New Roman,serif" font-size="14.00">bool</text>
</g>
<!-- 11&#45;&gt;12 -->
<g id="edge12" class="edge">
<title>11&#45;&gt;12</title>
<path fill="none" stroke="black" d="M666.53,-504C708.06,-504 772.18,-504 812.8,-504"/>
<polygon fill="black" stroke="black" points="812.59,-507.5 822.59,-504 812.59,-500.5 812.59,-507.5"/>
</g>
<!-- 14 -->
<!-- name: &quot;bool&quot;, typeName: &quot;&quot;, id: 14, branchId: 0, recurseId: &#45;1, attributes: 512, notes: &quot;&quot; -->
<g id="node15" class="node">
<title>14</title>
<ellipse fill="none" stroke="black" cx="851.83" cy="-450" rx="27.3" ry="18"/>
<text xml:space="preserve" text-anchor="middle" x="851.83" y="-444.95" font-family="Times New Roman,serif" font-size="14.00">bool</text>
</g>
<!-- 13&#45;&gt;14 -->
<g id="edge14" class="edge">
<title>13&#45;&gt;14</title>
<path fill="none" stroke="black" d="M704.07,-450C740.84,-450 783.04,-450 812.73,-450"/>
<polygon fill="black" stroke="black" points="812.73,-453.5 822.73,-450 812.73,-446.5 812.73,-453.5"/>
</g>
<!-- 16 -->
<!-- name: &quot;List Size&quot;, typeName: &quot;&quot;, id: 16, branchId: 0, recurseId: &#45;1, attributes: 0, notes: &quot;&quot; -->
<g id="node17" class="node">
<title>16</title>
<ellipse fill="none" stroke="black" cx="416.79" cy="-396" rx="43.67" ry="18"/>
<text xml:space="preserve" text-anchor="middle" x="416.79" y="-390.95" font-family="Times New Roman,serif" font-size="14.00">List Size</text>
</g>
<!-- 15&#45;&gt;16 -->
<g id="edge16" class="edge">
<title>15&#45;&gt;16</title>
<path fill="none" stroke="black" d="M301.96,-396C320.54,-396 342.03,-396 361.3,-396"/>
<polygon fill="black" stroke="black" points="361.14,-399.5 371.14,-396 361.14,-392.5 361.14,-399.5"/>
</g>
<!-- 18 -->
<!-- name: &quot;example element&quot;, typeName: &quot;&quot;, id: 18, branchId: 0, recurseId: &#45;1, attributes: 16, notes: &quot;&quot; -->
<g id="node19" class="node">
<title>18</title>
<ellipse fill="none" stroke="black" stroke-dasharray="1,5" cx="416.79" cy="-207" rx="74.89" ry="18"/>
<text xml:space="preserve" text-anchor="middle" x="416.79" y="-201.95" font-family="Times New Roman,serif" font-size="14.00">example element</text>
</g>
<!-- 15&#45;&gt;18 -->
<g id="edge18" class="edge">
<title>15&#45;&gt;18</title>
<path fill="none" stroke="black" d="M269.87,-378.56C298.19,-345.25 360.13,-272.44 393.47,-233.24"/>
<polygon fill="black" stroke="black" points="395.73,-235.99 399.54,-226.1 390.39,-231.45 395.73,-235.99"/>
</g>
<!-- 17 -->
<!-- name: &quot;unsigned varint&quot;, typeName: &quot;&quot;, id: 17, branchId: 0, recurseId: &#45;1, attributes: 0, notes: &quot;&quot; -->
<g id="node18" class="node">
<title>17</title>
<ellipse fill="none" stroke="black" cx="625.1" cy="-396" rx="68.24" ry="18"/>
<text xml:space="preserve" text-anchor="middle" x="625.1" y="-390.95" font-family="Times New Roman,serif" font-size="14.00">unsigned varint</text>
</g>
<!-- 16&#45;&gt;17 -->
<g id="edge17" class="edge">
<title>16&#45;&gt;17</title>
<path fill="none" stroke="black" d="M460.79,-396C485.18,-396 516.48,-396 545.13,-396"/>
<polygon fill="black" stroke="black" points="544.87,-399.5 554.87,-396 544.87,-392.5 544.87,-399.5"/>
</g>
<!-- 19 -->
<!-- name: &quot;AttributeName&quot;, typeName: &quot;&quot;, id: 19, branchId: 0, recurseId: &#45;1, attributes: 0, notes: &quot;&quot; -->
<g id="node20" class="node">
<title>19</title>
<ellipse fill="none" stroke="black" cx="625.1" cy="-342" rx="66.71" ry="18"/>
<text xml:space="preserve" text-anchor="middle" x="625.1" y="-336.95" font-family="Times New Roman,serif" font-size="14.00">AttributeName</text>
</g>
<!-- 18&#45;&gt;19 -->
<g id="edge19" class="edge">
<title>18&#45;&gt;19</title>
<path fill="none" stroke="black" d="M431.34,-225.14C450.28,-249.21 486.94,-291.41 527.68,-315 537.22,-320.52 547.94,-324.96 558.68,-328.52"/>
<polygon fill="black" stroke="black" points="557.34,-331.77 567.93,-331.35 559.39,-325.08 557.34,-331.77"/>
</g>
<!-- 21 -->
<!-- name: &quot;FromAttribute&quot;, typeName: &quot;&quot;, id: 21, branchId: 0, recurseId: &#45;1, attributes: 0, notes: &quot;&quot; -->
<g id="node22" class="node">
<title>21</title>
<ellipse fill="none" stroke="black" cx="625.1" cy="-288" rx="64.66" ry="18"/>
<text xml:space="preserve" text-anchor="middle" x="625.1" y="-282.95" font-family="Times New Roman,serif" font-size="14.00">FromAttribute</text>
</g>
<!-- 18&#45;&gt;21 -->
<g id="edge21" class="edge">
<title>18&#45;&gt;21</title>
<path fill="none" stroke="black" d="M447.91,-223.67C469.62,-235.23 499.88,-250.38 527.68,-261 539.49,-265.51 552.36,-269.64 564.75,-273.23"/>
<polygon fill="black" stroke="black" points="563.44,-276.5 574.01,-275.84 565.34,-269.76 563.44,-276.5"/>
</g>
<!-- 23 -->
<!-- name: &quot;Attribute&quot;, typeName: &quot;&quot;, id: 23, branchId: 0, recurseId: &#45;1, attributes: 0, notes: &quot;&quot; -->
<g id="node24" class="node">
<title>23</title>
<ellipse fill="none" stroke="black" cx="625.1" cy="-234" rx="44.19" ry="18"/>
<text xml:space="preserve" text-anchor="middle" x="625.1" y="-228.95" font-family="Times New Roman,serif" font-size="14.00">Attribute</text>
</g>
<!-- 18&#45;&gt;23 -->
<g id="edge23" class="edge">
<title>18&#45;&gt;23</title>
<path fill="none" stroke="black" d="M483.35,-215.58C511.74,-219.3 544.53,-223.59 571.32,-227.09"/>
<polygon fill="black" stroke="black" points="570.53,-230.52 580.9,-228.35 571.44,-223.58 570.53,-230.52"/>
</g>
<!-- 25 -->
<!-- name: &quot;ToAttribute&quot;, typeName: &quot;&quot;, id: 25, branchId: 0, recurseId: &#45;1, attributes: 0, notes: &quot;&quot; -->
<g id="node26" class="node">
<title>25</title>
<ellipse fill="none" stroke="black" cx="625.1" cy="-180" rx="53.91" ry="18"/>
<text xml:space="preserve" text-anchor="middle" x="625.1" y="-174.95" font-family="Times New Roman,serif" font-size="14.00">ToAttribute</text>
</g>
<!-- 18&#45;&gt;25 -->
<g id="edge25" class="edge">
<title>18&#45;&gt;25</title>
<path fill="none" stroke="black" d="M483.35,-198.42C508.93,-195.07 538.08,-191.26 563.19,-187.97"/>
<polygon fill="black" stroke="black" points="563.46,-191.47 572.92,-186.7 562.55,-184.52 563.46,-191.47"/>
</g>
<!-- 27 -->
<!-- name: &quot;CurrentTransitionTicks&quot;, typeName: &quot;&quot;, id: 27, branchId: 0, recurseId: &#45;1, attributes: 0, notes: &quot;&quot; -->
<g id="node28" class="node">
<title>27</title>
<ellipse fill="none" stroke="black" cx="625.1" cy="-126" rx="97.41" ry="18"/>
<text xml:space="preserve" text-anchor="middle" x="625.1" y="-120.95" font-family="Times New Roman,serif" font-size="14.00">CurrentTransitionTicks</text>
</g>
<!-- 18&#45;&gt;27 -->
<g id="edge27" class="edge">
<title>18&#45;&gt;27</title>
<path fill="none" stroke="black" d="M447.91,-190.33C469.62,-178.77 499.88,-163.62 527.68,-153 536.23,-149.74 545.33,-146.67 554.4,-143.87"/>
<polygon fill="black" stroke="black" points="555.39,-147.23 563.96,-141.01 553.38,-140.52 555.39,-147.23"/>
</g>
<!-- 29 -->
<!-- name: &quot;TotalTransitionTicks&quot;, typeName: &quot;&quot;, id: 29, branchId: 0, recurseId: &#45;1, attributes: 0, notes: &quot;&quot; -->
<g id="node30" class="node">
<title>29</title>
<ellipse fill="none" stroke="black" cx="625.1" cy="-72" rx="88.2" ry="18"/>
<text xml:space="preserve" text-anchor="middle" x="625.1" y="-66.95" font-family="Times New Roman,serif" font-size="14.00">TotalTransitionTicks</text>
</g>
<!-- 18&#45;&gt;29 -->
<g id="edge29" class="edge">
<title>18&#45;&gt;29</title>
<path fill="none" stroke="black" d="M431.34,-188.86C450.28,-164.79 486.94,-122.59 527.68,-99 534.72,-94.93 542.39,-91.44 550.25,-88.47"/>
<polygon fill="black" stroke="black" points="551.3,-91.8 559.6,-85.21 549,-85.19 551.3,-91.8"/>
</g>
<!-- 31 -->
<!-- name: &quot;Easing&quot;, typeName: &quot;&quot;, id: 31, branchId: 0, recurseId: &#45;1, attributes: 0, notes: &quot;&quot; -->
<g id="node32" class="node">
<title>31</title>
<ellipse fill="none" stroke="black" cx="625.1" cy="-18" rx="36" ry="18"/>
<text xml:space="preserve" text-anchor="middle" x="625.1" y="-12.95" font-family="Times New Roman,serif" font-size="14.00">Easing</text>
</g>
<!-- 18&#45;&gt;31 -->
<g id="edge31" class="edge">
<title>18&#45;&gt;31</title>
<path fill="none" stroke="black" d="M425.03,-188.84C439.39,-155.19 474.72,-83.12 527.68,-45 542.5,-34.34 561.38,-27.88 578.5,-23.97"/>
<polygon fill="black" stroke="black" points="578.85,-27.47 587.95,-22.05 577.45,-20.61 578.85,-27.47"/>
</g>
<!-- 20 -->
<!-- name: &quot;string&quot;, typeName: &quot;&quot;, id: 20, branchId: 0, recurseId: &#45;1, attributes: 512, notes: &quot;&quot; -->
<g id="node21" class="node">
<title>20</title>
<ellipse fill="none" stroke="black" cx="851.83" cy="-342" rx="31.9" ry="18"/>
<text xml:space="preserve" text-anchor="middle" x="851.83" y="-336.95" font-family="Times New Roman,serif" font-size="14.00">string</text>
</g>
<!-- 19&#45;&gt;20 -->
<g id="edge20" class="edge">
<title>19&#45;&gt;20</title>
<path fill="none" stroke="black" d="M692.01,-342C729.49,-342 775.36,-342 808.14,-342"/>
<polygon fill="black" stroke="black" points="808.08,-345.5 818.08,-342 808.08,-338.5 808.08,-345.5"/>
</g>
<!-- 22 -->
<!-- name: &quot;&quot;, typeName: &quot;&quot;, id: 22, branchId: 0, recurseId: &#45;1, attributes: 512, notes: &quot;&quot; -->
<g id="node23" class="node">
<title>22</title>
<ellipse fill="none" stroke="black" cx="851.83" cy="-288" rx="27" ry="18"/>
</g>
<!-- 21&#45;&gt;22 -->
<g id="edge22" class="edge">
<title>21&#45;&gt;22</title>
<path fill="none" stroke="black" d="M690.2,-288C730,-288 779.79,-288 813.29,-288"/>
<polygon fill="black" stroke="black" points="812.91,-291.5 822.91,-288 812.91,-284.5 812.91,-291.5"/>
</g>
<!-- 24 -->
<!-- name: &quot;&quot;, typeName: &quot;&quot;, id: 24, branchId: 0, recurseId: &#45;1, attributes: 512, notes: &quot;&quot; -->
<g id="node25" class="node">
<title>24</title>
<ellipse fill="none" stroke="black" cx="851.83" cy="-234" rx="27" ry="18"/>
</g>
<!-- 23&#45;&gt;24 -->
<g id="edge24" class="edge">
<title>23&#45;&gt;24</title>
<path fill="none" stroke="black" d="M669.69,-234C711.43,-234 773.73,-234 813.31,-234"/>
<polygon fill="black" stroke="black" points="813.05,-237.5 823.05,-234 813.05,-230.5 813.05,-237.5"/>
</g>
<!-- 26 -->
<!-- name: &quot;&quot;, typeName: &quot;&quot;, id: 26, branchId: 0, recurseId: &#45;1, attributes: 512, notes: &quot;&quot; -->
<g id="node27" class="node">
<title>26</title>
<ellipse fill="none" stroke="black" cx="851.83" cy="-180" rx="27" ry="18"/>
</g>
<!-- 25&#45;&gt;26 -->
<g id="edge26" class="edge">
<title>25&#45;&gt;26</title>
<path fill="none" stroke="black" d="M679.36,-180C720.58,-180 776.65,-180 813.28,-180"/>
<polygon fill="black" stroke="black" points="812.93,-183.5 822.93,-180 812.93,-176.5 812.93,-183.5"/>
</g>
<!-- 28 -->
<!-- name: &quot;unsigned int&quot;, typeName: &quot;&quot;, id: 28, branchId: 0, recurseId: &#45;1, attributes: 512, notes: &quot;&quot; -->
<g id="node29" class="node">
<title>28</title>
<ellipse fill="none" stroke="black" cx="851.83" cy="-126" rx="56.47" ry="18"/>
<text xml:space="preserve" text-anchor="middle" x="851.83" y="-120.95" font-family="Times New Roman,serif" font-size="14.00">unsigned int</text>
</g>
<!-- 27&#45;&gt;28 -->
<g id="edge28" class="edge">
<title>27&#45;&gt;28</title>
<path fill="none" stroke="black" d="M722.71,-126C743.3,-126 764.61,-126 783.79,-126"/>
<polygon fill="black" stroke="black" points="783.62,-129.5 793.62,-126 783.62,-122.5 783.62,-129.5"/>
</g>
<!-- 30 -->
<!-- name: &quot;unsigned int&quot;, typeName: &quot;&quot;, id: 30, branchId: 0, recurseId: &#45;1, attributes: 512, notes: &quot;&quot; -->
<g id="node31" class="node">
<title>30</title>
<ellipse fill="none" stroke="black" cx="851.83" cy="-72" rx="56.47" ry="18"/>
<text xml:space="preserve" text-anchor="middle" x="851.83" y="-66.95" font-family="Times New Roman,serif" font-size="14.00">unsigned int</text>
</g>
<!-- 29&#45;&gt;30 -->
<g id="edge30" class="edge">
<title>29&#45;&gt;30</title>
<path fill="none" stroke="black" d="M713.63,-72C736.93,-72 761.73,-72 783.74,-72"/>
<polygon fill="black" stroke="black" points="783.46,-75.5 793.46,-72 783.46,-68.5 783.46,-75.5"/>
</g>
<!-- 32 -->
<!-- name: &quot;enum easing_function&quot;, typeName: &quot;&quot;, id: 32, branchId: 0, recurseId: &#45;1, attributes: 512, notes: &quot;&quot; -->
<g id="node33" class="node">
<title>32</title>
<ellipse fill="none" stroke="black" cx="851.83" cy="-18" rx="93.32" ry="18"/>
<text xml:space="preserve" text-anchor="middle" x="851.83" y="-12.95" font-family="Times New Roman,serif" font-size="14.00">enum easing_function</text>
</g>
<!-- 31&#45;&gt;32 -->
<g id="edge32" class="edge">
<title>31&#45;&gt;32</title>
<path fill="none" stroke="black" d="M661.21,-18C684.41,-18 716.12,-18 746.98,-18"/>
<polygon fill="black" stroke="black" points="746.77,-21.5 756.77,-18 746.77,-14.5 746.77,-21.5"/>
</g>
</g>
</svg>
