<?xml version="1.0" encoding="UTF-8" standalone="no"?>
<!DOCTYPE svg PUBLIC "-//W3C//DTD SVG 1.1//EN"
 "http://www.w3.org/Graphics/SVG/1.1/DTD/svg11.dtd">
<!-- Generated by graphviz version 14.1.5 (20260411.2331)
 -->
<!-- Title: AttributeLayerSettings Pages: 1 -->
<svg width="483pt" height="206pt"
 viewBox="0.00 0.00 483.00 206.00" xmlns="http://www.w3.org/2000/svg" xmlns:xlink="http://www.w3.org/1999/xlink">
<g id="graph0" class="graph" transform="scale(1 1) rotate(0) translate(4 202)">
<title>AttributeLayerSettings</title>
<polygon fill="white" stroke="none" points="-4,4 -4,-202 479.3,-202 479.3,4 -4,4"/>
<!-- 0 -->
<!-- name: &quot;AttributeLayerSettings&quot;, typeName: &quot;&quot;, id: 0, branchId: 0, recurseId: &#45;1, attributes: 0, notes: &quot;&quot; -->
<g id="node1" class="node">
<title>0</title>
<ellipse fill="none" stroke="black" cx="95.37" cy="-99" rx="95.37" ry="18"/>
<text xml:space="preserve" text-anchor="middle" x="95.37" y="-93.95" font-family="Times New Roman,serif" font-size="14.00">AttributeLayerSettings</text>
</g>
<!-- 1 -->
<!-- name: &quot;Priority&quot;, typeName: &quot;&quot;, id: 1, branchId: 0, recurseId: &#45;1, attributes: 0, notes: &quot;&quot; -->
<g id="node2" class="node">
<title>1</title>
<ellipse fill="none" stroke="black" cx="305.21" cy="-180" rx="39.07" ry="18"/>
<text xml:space="preserve" text-anchor="middle" x="305.21" y="-174.95" font-family="Times New Roman,serif" font-size="14.00">Priority</text>
</g>
<!-- 0&#45;&gt;1 -->
<g id="edge1" class="edge">
<title>0&#45;&gt;1</title>
<path fill="none" stroke="black" d="M135.21,-115.77C161.01,-126.75 195.71,-141.18 226.73,-153 238.13,-157.34 250.57,-161.8 262.09,-165.81"/>
<polygon fill="black" stroke="black" points="260.75,-169.05 271.34,-169.01 263.03,-162.44 260.75,-169.05"/>
</g>
<!-- 3 -->
<!-- name: &quot;Weight&quot;, typeName: &quot;&quot;, id: 3, branchId: 0, recurseId: &#45;1, attributes: 0, notes: &quot;&quot; -->
<g id="node4" class="node">
<title>3</title>
<ellipse fill="none" stroke="black" cx="305.21" cy="-126" rx="37.53" ry="18"/>
<text xml:space="preserve" text-anchor="middle" x="305.21" y="-120.95" font-family="Times New Roman,serif" font-size="14.00">Weight</text>
</g>
<!-- 0&#45;&gt;3 -->
<g id="edge3" class="edge">
<title>0&#45;&gt;3</title>
<path fill="none" stroke="black" d="M174.94,-109.21C202.61,-112.8 232.82,-116.73 257.07,-119.88"/>
<polygon fill="black" stroke="black" points="256.6,-123.34 266.97,-121.16 257.5,-116.4 256.6,-123.34"/>
</g>
<!-- 5 -->
<!-- name: &quot;Enabled&quot;, typeName: &quot;&quot;, id: 5, branchId: 0, recurseId: &#45;1, attributes: 0, notes: &quot;&quot; -->
<g id="node6" class="node">
<title>5</title>
<ellipse fill="none" stroke="black" cx="305.21" cy="-72" rx="41.12" ry="18"/>
<text xml:space="preserve" text-anchor="middle" x="305.21" y="-66.95" font-family="Times New Roman,serif" font-size="14.00">Enabled</text>
</g>
<!-- 0&#45;&gt;5 -->
<g id="edge5" class="edge">
<title>0&#45;&gt;5</title>
<path fill="none" stroke="black" d="M174.94,-88.79C201.52,-85.34 230.45,-81.58 254.19,-78.5"/>
<polygon fill="black" stroke="black" points="254.43,-82 263.89,-77.24 253.52,-75.06 254.43,-82"/>
</g>
<!-- 7 -->
<!-- name: &quot;TransitionsPaused&quot;, typeName: &quot;&quot;, id: 7, branchId: 0, recurseId: &#45;1, attributes: 0, notes: &quot;&quot; -->
<g id="node8" class="node">
<title>7</title>
<ellipse fill="none" stroke="black" cx="305.21" cy="-18" rx="78.48" ry="18"/>
<text xml:space="preserve" text-anchor="middle" x="305.21" y="-12.95" font-family="Times New Roman,serif" font-size="14.00">TransitionsPaused</text>
</g>
<!-- 0&#45;&gt;7 -->
<g id="edge7" class="edge">
<title>0&#45;&gt;7</title>
<path fill="none" stroke="black" d="M135.21,-82.23C161.01,-71.25 195.71,-56.82 226.73,-45 233.97,-42.24 241.63,-39.44 249.2,-36.73"/>
<polygon fill="black" stroke="black" points="250.11,-40.12 258.38,-33.49 247.78,-33.52 250.11,-40.12"/>
</g>
<!-- 2 -->
<!-- name: &quot;int&quot;, typeName: &quot;&quot;, id: 2, branchId: 0, recurseId: &#45;1, attributes: 512, notes: &quot;&quot; -->
<g id="node3" class="node">
<title>2</title>
<ellipse fill="none" stroke="black" cx="447.5" cy="-180" rx="27" ry="18"/>
<text xml:space="preserve" text-anchor="middle" x="447.5" y="-174.95" font-family="Times New Roman,serif" font-size="14.00">int</text>
</g>
<!-- 1&#45;&gt;2 -->
<g id="edge2" class="edge">
<title>1&#45;&gt;2</title>
<path fill="none" stroke="black" d="M344.54,-180C364.52,-180 388.87,-180 408.76,-180"/>
<polygon fill="black" stroke="black" points="408.68,-183.5 418.68,-180 408.68,-176.5 408.68,-183.5"/>
</g>
<!-- 4 -->
<!-- name: &quot;float&quot;, typeName: &quot;&quot;, id: 4, branchId: 0, recurseId: &#45;1, attributes: 512, notes: &quot;&quot; -->
<g id="node5" class="node">
<title>4</title>
<ellipse fill="none" stroke="black" cx="447.5" cy="-126" rx="27.81" ry="18"/>
<text xml:space="preserve" text-anchor="middle" x="447.5" y="-120.95" font-family="Times New Roman,serif" font-size="14.00">float</text>
</g>
<!-- 3&#45;&gt;4 -->
<g id="edge4" class="edge">
<title>3&#45;&gt;4</title>
<path fill="none" stroke="black" d="M343.07,-126C363.02,-126 387.65,-126 407.87,-126"/>
<polygon fill="black" stroke="black" points="407.68,-129.5 417.68,-126 407.68,-122.5 407.68,-129.5"/>
</g>
<!-- 6 -->
<!-- name: &quot;bool&quot;, typeName: &quot;&quot;, id: 6, branchId: 0, recurseId: &#45;1, attributes: 512, notes: &quot;&quot; -->
<g id="node7" class="node">
<title>6</title>
<ellipse fill="none" stroke="black" cx="447.5" cy="-72" rx="27.3" ry="18"/>
<text xml:space="preserve" text-anchor="middle" x="447.5" y="-66.95" font-family="Times New Roman,serif" font-size="14.00">bool</text>
</g>
<!-- 5&#45;&gt;6 -->
<g id="edge6" class="edge">
<title>5&#45;&gt;6</title>
<path fill="none" stroke="black" d="M346.79,-72C366.22,-72 389.36,-72 408.45,-72"/>
<polygon fill="black" stroke="black" points="408.24,-75.5 418.24,-72 408.24,-68.5 408.24,-75.5"/>
</g>
<!-- 8 -->
<!-- name: &quot;bool&quot;, typeName: &quot;&quot;, id: 8, branchId: 0, recurseId: &#45;1, attributes: 512, notes: &quot;&quot; -->
<g id="node9" class="node">
<title>8</title>
<ellipse fill="none" stroke="black" cx="447.5" cy="-18" rx="27.3" ry="18"/>
<text xml:space="preserve" text-anchor="middle" x="447.5" y="-12.95" font-family="Times New Roman,serif" font-size="14.00">bool</text>
</g>
<!-- 7&#45;&gt;8 -->
<g id="edge8" class="edge">
<title>7&#45;&gt;8</title>
<path fill="none" stroke="black" d="M384.15,-18C392.59,-18 400.88,-18 408.52,-18"/>
<polygon fill="black" stroke="black" points="408.41,-21.5 418.41,-18 408.41,-14.5 408.41,-21.5"/>
</g>
</g>
</svg>
