<?xml version="1.0" encoding="UTF-8" standalone="no"?>
<!DOCTYPE svg PUBLIC "-//W3C//DTD SVG 1.1//EN"
 "http://www.w3.org/Graphics/SVG/1.1/DTD/svg11.dtd">
<!-- Generated by graphviz version 14.1.5 (20260411.2331)
 -->
<!-- Title: AttributeModifier Pages: 1 -->
<svg width="434pt" height="314pt"
 viewBox="0.00 0.00 434.00 314.00" xmlns="http://www.w3.org/2000/svg" xmlns:xlink="http://www.w3.org/1999/xlink">
<g id="graph0" class="graph" transform="scale(1 1) rotate(0) translate(4 310)">
<title>AttributeModifier</title>
<polygon fill="white" stroke="none" points="-4,4 -4,-310 430.17,-310 430.17,4 -4,4"/>
<!-- 0 -->
<!-- name: &quot;AttributeModifier&quot;, typeName: &quot;&quot;, id: 0, branchId: 0, recurseId: &#45;1, attributes: 0, notes: &quot;&quot; -->
<g id="node1" class="node">
<title>0</title>
<ellipse fill="none" stroke="black" cx="77.45" cy="-153" rx="77.45" ry="18"/>
<text xml:space="preserve" text-anchor="middle" x="77.45" y="-147.95" font-family="Times New Roman,serif" font-size="14.00">AttributeModifier</text>
</g>
<!-- 1 -->
<!-- name: &quot;Id&quot;, typeName: &quot;&quot;, id: 1, branchId: 0, recurseId: &#45;1, attributes: 0, notes: &quot;&quot; -->
<g id="node2" class="node">
<title>1</title>
<ellipse fill="none" stroke="black" cx="258.64" cy="-288" rx="27" ry="18"/>
<text xml:space="preserve" text-anchor="middle" x="258.64" y="-282.95" font-family="Times New Roman,serif" font-size="14.00">Id</text>
</g>
<!-- 0&#45;&gt;1 -->
<g id="edge1" class="edge">
<title>0&#45;&gt;1</title>
<path fill="none" stroke="black" d="M93.16,-170.86C113.2,-194.23 151.15,-235.24 190.91,-261 200.64,-267.3 212.08,-272.58 222.71,-276.76"/>
<polygon fill="black" stroke="black" points="221.39,-280 231.98,-280.17 223.81,-273.43 221.39,-280"/>
</g>
<!-- 3 -->
<!-- name: &quot;Name&quot;, typeName: &quot;&quot;, id: 3, branchId: 0, recurseId: &#45;1, attributes: 0, notes: &quot;&quot; -->
<g id="node4" class="node">
<title>3</title>
<ellipse fill="none" stroke="black" cx="258.64" cy="-234" rx="33.44" ry="18"/>
<text xml:space="preserve" text-anchor="middle" x="258.64" y="-228.95" font-family="Times New Roman,serif" font-size="14.00">Name</text>
</g>
<!-- 0&#45;&gt;3 -->
<g id="edge3" class="edge">
<title>0&#45;&gt;3</title>
<path fill="none" stroke="black" d="M111.17,-169.38C133.47,-180.39 163.77,-195.01 190.91,-207 200.38,-211.18 210.7,-215.49 220.34,-219.39"/>
<polygon fill="black" stroke="black" points="218.86,-222.57 229.44,-223.05 221.47,-216.07 218.86,-222.57"/>
</g>
<!-- 5 -->
<!-- name: &quot;Amount&quot;, typeName: &quot;&quot;, id: 5, branchId: 0, recurseId: &#45;1, attributes: 0, notes: &quot;&quot; -->
<g id="node6" class="node">
<title>5</title>
<ellipse fill="none" stroke="black" cx="258.64" cy="-180" rx="41.63" ry="18"/>
<text xml:space="preserve" text-anchor="middle" x="258.64" y="-174.95" font-family="Times New Roman,serif" font-size="14.00">Amount</text>
</g>
<!-- 0&#45;&gt;5 -->
<g id="edge5" class="edge">
<title>0&#45;&gt;5</title>
<path fill="none" stroke="black" d="M143.4,-162.79C164.49,-165.96 187.57,-169.44 207.42,-172.43"/>
<polygon fill="black" stroke="black" points="206.8,-175.88 217.21,-173.91 207.84,-168.96 206.8,-175.88"/>
</g>
<!-- 7 -->
<!-- name: &quot;Operation&quot;, typeName: &quot;&quot;, id: 7, branchId: 0, recurseId: &#45;1, attributes: 0, notes: &quot;&quot; -->
<g id="node8" class="node">
<title>7</title>
<ellipse fill="none" stroke="black" cx="258.64" cy="-126" rx="47.77" ry="18"/>
<text xml:space="preserve" text-anchor="middle" x="258.64" y="-120.95" font-family="Times New Roman,serif" font-size="14.00">Operation</text>
</g>
<!-- 0&#45;&gt;7 -->
<g id="edge7" class="edge">
<title>0&#45;&gt;7</title>
<path fill="none" stroke="black" d="M143.4,-143.21C162.72,-140.3 183.71,-137.14 202.35,-134.33"/>
<polygon fill="black" stroke="black" points="202.76,-137.81 212.13,-132.86 201.72,-130.89 202.76,-137.81"/>
</g>
<!-- 9 -->
<!-- name: &quot;Operand&quot;, typeName: &quot;&quot;, id: 9, branchId: 0, recurseId: &#45;1, attributes: 0, notes: &quot;&quot; -->
<g id="node10" class="node">
<title>9</title>
<ellipse fill="none" stroke="black" cx="258.64" cy="-72" rx="42.65" ry="18"/>
<text xml:space="preserve" text-anchor="middle" x="258.64" y="-66.95" font-family="Times New Roman,serif" font-size="14.00">Operand</text>
</g>
<!-- 0&#45;&gt;9 -->
<g id="edge9" class="edge">
<title>0&#45;&gt;9</title>
<path fill="none" stroke="black" d="M111.17,-136.62C133.47,-125.61 163.77,-110.99 190.91,-99 198.93,-95.45 207.58,-91.82 215.9,-88.42"/>
<polygon fill="black" stroke="black" points="217.21,-91.66 225.17,-84.67 214.58,-85.17 217.21,-91.66"/>
</g>
<!-- 11 -->
<!-- name: &quot;Is Serializable?&quot;, typeName: &quot;&quot;, id: 11, branchId: 0, recurseId: &#45;1, attributes: 0, notes: &quot;&quot; -->
<g id="node12" class="node">
<title>11</title>
<ellipse fill="none" stroke="black" cx="258.64" cy="-18" rx="67.73" ry="18"/>
<text xml:space="preserve" text-anchor="middle" x="258.64" y="-12.95" font-family="Times New Roman,serif" font-size="14.00">Is Serializable?</text>
</g>
<!-- 0&#45;&gt;11 -->
<g id="edge11" class="edge">
<title>0&#45;&gt;11</title>
<path fill="none" stroke="black" d="M93.16,-135.14C113.2,-111.77 151.15,-70.76 190.91,-45 195.39,-42.1 200.24,-39.41 205.2,-36.95"/>
<polygon fill="black" stroke="black" points="206.48,-40.21 214.1,-32.85 203.56,-33.85 206.48,-40.21"/>
</g>
<!-- 2 -->
<!-- name: &quot;string&quot;, typeName: &quot;&quot;, id: 2, branchId: 0, recurseId: &#45;1, attributes: 512, notes: &quot;&quot; -->
<g id="node3" class="node">
<title>2</title>
<ellipse fill="none" stroke="black" cx="394.27" cy="-288" rx="31.9" ry="18"/>
<text xml:space="preserve" text-anchor="middle" x="394.27" y="-282.95" font-family="Times New Roman,serif" font-size="14.00">string</text>
</g>
<!-- 1&#45;&gt;2 -->
<g id="edge2" class="edge">
<title>1&#45;&gt;2</title>
<path fill="none" stroke="black" d="M286.04,-288C304.52,-288 329.61,-288 350.88,-288"/>
<polygon fill="black" stroke="black" points="350.72,-291.5 360.72,-288 350.72,-284.5 350.72,-291.5"/>
</g>
<!-- 4 -->
<!-- name: &quot;string&quot;, typeName: &quot;&quot;, id: 4, branchId: 0, recurseId: &#45;1, attributes: 512, notes: &quot;&quot; -->
<g id="node5" class="node">
<title>4</title>
<ellipse fill="none" stroke="black" cx="394.27" cy="-234" rx="31.9" ry="18"/>
<text xml:space="preserve" text-anchor="middle" x="394.27" y="-228.95" font-family="Times New Roman,serif" font-size="14.00">string</text>
</g>
<!-- 3&#45;&gt;4 -->
<g id="edge4" class="edge">
<title>3&#45;&gt;4</title>
<path fill="none" stroke="black" d="M292.33,-234C309.99,-234 332,-234 350.95,-234"/>
<polygon fill="black" stroke="black" points="350.78,-237.5 360.78,-234 350.78,-230.5 350.78,-237.5"/>
</g>
<!-- 6 -->
<!-- name: &quot;float&quot;, typeName: &quot;&quot;, id: 6, branchId: 0, recurseId: &#45;1, attributes: 512, notes: &quot;&quot; -->
<g id="node7" class="node">
<title>6</title>
<ellipse fill="none" stroke="black" cx="394.27" cy="-180" rx="27.81" ry="18"/>
<text xml:space="preserve" text-anchor="middle" x="394.27" y="-174.95" font-family="Times New Roman,serif" font-size="14.00">float</text>
</g>
<!-- 5&#45;&gt;6 -->
<g id="edge6" class="edge">
<title>5&#45;&gt;6</title>
<path fill="none" stroke="black" d="M300.46,-180C317.79,-180 337.9,-180 354.95,-180"/>
<polygon fill="black" stroke="black" points="354.69,-183.5 364.69,-180 354.69,-176.5 354.69,-183.5"/>
</g>
<!-- 8 -->
<!-- name: &quot;int&quot;, typeName: &quot;&quot;, id: 8, branchId: 0, recurseId: &#45;1, attributes: 512, notes: &quot;&quot; -->
<g id="node9" class="node">
<title>8</title>
<ellipse fill="none" stroke="black" cx="394.27" cy="-126" rx="27" ry="18"/>
<text xml:space="preserve" text-anchor="middle" x="394.27" y="-120.95" font-family="Times New Roman,serif" font-size="14.00">int</text>
</g>
<!-- 7&#45;&gt;8 -->
<g id="edge8" class="edge">
<title>7&#45;&gt;8</title>
<path fill="none" stroke="black" d="M306.75,-126C322.64,-126 340.16,-126 355.26,-126"/>
<polygon fill="black" stroke="black" points="355.26,-129.5 365.26,-126 355.26,-122.5 355.26,-129.5"/>
</g>
<!-- 10 -->
<!-- name: &quot;int&quot;, typeName: &quot;&quot;, id: 10, branchId: 0, recurseId: &#45;1, attributes: 512, notes: &quot;&quot; -->
<g id="node11" class="node">
<title>10</title>
<ellipse fill="none" stroke="black" cx="394.27" cy="-72" rx="27" ry="18"/>
<text xml:space="preserve" text-anchor="middle" x="394.27" y="-66.95" font-family="Times New Roman,serif" font-size="14.00">int</text>
</g>
<!-- 9&#45;&gt;10 -->
<g id="edge10" class="edge">
<title>9&#45;&gt;10</title>
<path fill="none" stroke="black" d="M301.55,-72C318.97,-72 339.01,-72 355.91,-72"/>
<polygon fill="black" stroke="black" points="355.53,-75.5 365.53,-72 355.53,-68.5 355.53,-75.5"/>
</g>
<!-- 12 -->
<!-- name: &quot;bool&quot;, typeName: &quot;&quot;, id: 12, branchId: 0, recurseId: &#45;1, attributes: 512, notes: &quot;&quot; -->
<g id="node13" class="node">
<title>12</title>
<ellipse fill="none" stroke="black" cx="394.27" cy="-18" rx="27.3" ry="18"/>
<text xml:space="preserve" text-anchor="middle" x="394.27" y="-12.95" font-family="Times New Roman,serif" font-size="14.00">bool</text>
</g>
<!-- 11&#45;&gt;12 -->
<g id="edge12" class="edge">
<title>11&#45;&gt;12</title>
<path fill="none" stroke="black" d="M326.84,-18C336.7,-18 346.54,-18 355.51,-18"/>
<polygon fill="black" stroke="black" points="355.22,-21.5 365.22,-18 355.22,-14.5 355.22,-21.5"/>
</g>
</g>
</svg>
