<?xml version="1.0" encoding="UTF-8" standalone="no"?>
<!DOCTYPE svg PUBLIC "-//W3C//DTD SVG 1.1//EN"
 "http://www.w3.org/Graphics/SVG/1.1/DTD/svg11.dtd">
<!-- Generated by graphviz version 2.46.1 (20210213.1702)
 -->
<!-- Title: AutomationClientConnectPacket Pages: 1 -->
<svg width="679pt" height="44pt"
 viewBox="0.00 0.00 679.25 44.00" xmlns="http://www.w3.org/2000/svg" xmlns:xlink="http://www.w3.org/1999/xlink">
<g id="graph0" class="graph" transform="scale(1 1) rotate(0) translate(4 40)">
<title>AutomationClientConnectPacket</title>
<polygon fill="white" stroke="transparent" points="-4,4 -4,-40 675.25,-40 675.25,4 -4,4"/>
<!-- 0 -->
<!-- name: &quot;AutomationClientConnectPacket&quot;, typeName: &quot;&quot;, id: 0, branchId: 95, recurseId: &#45;1, attributes: 0, notes: &quot;&quot; -->
<g id="node1" class="node">
<title>0</title>
<ellipse fill="none" stroke="black" cx="129.34" cy="-18" rx="129.18" ry="18"/>
<text text-anchor="middle" x="129.34" y="-14.3" font-family="Times New Roman,serif" font-size="14.00">AutomationClientConnectPacket</text>
</g>
<!-- 1 -->
<!-- name: &quot;Web Socket Data&quot;, typeName: &quot;WebSocketPacketData&quot;, id: 1, branchId: 0, recurseId: &#45;1, attributes: 256, notes: &quot;&quot; -->
<g id="node2" class="node">
<title>1</title>
<ellipse fill="none" stroke="black" cx="370.07" cy="-18" rx="75.29" ry="18"/>
<text text-anchor="middle" x="370.07" y="-14.3" font-family="Times New Roman,serif" font-size="14.00">Web Socket Data</text>
</g>
<!-- 0&#45;&gt;1 -->
<g id="edge1" class="edge">
<title>0&#45;&gt;1</title>
<path fill="none" stroke="black" d="M258.79,-18C267.5,-18 276.14,-18 284.54,-18"/>
<polygon fill="black" stroke="black" points="284.63,-21.5 294.63,-18 284.63,-14.5 284.63,-21.5"/>
</g>
<!-- 5 -->
<!-- name: &quot;WebSocketPacketData&quot;, typeName: &quot;&quot;, id: 5, branchId: 0, recurseId: &#45;1, attributes: 512, notes: &quot;&quot; -->
<g id="node3" class="node">
<title>5</title>
<ellipse fill="none" stroke="black" cx="576.36" cy="-18" rx="94.78" ry="18"/>
<text text-anchor="middle" x="576.36" y="-14.3" font-family="Times New Roman,serif" font-size="14.00">WebSocketPacketData</text>
</g>
<!-- 1&#45;&gt;5 -->
<g id="edge2" class="edge">
<title>1&#45;&gt;5</title>
<path fill="none" stroke="black" d="M445.69,-18C454.05,-18 462.67,-18 471.31,-18"/>
<polygon fill="black" stroke="black" points="471.44,-21.5 481.44,-18 471.44,-14.5 471.44,-21.5"/>
</g>
</g>
</svg>
