<?xml version="1.0" encoding="UTF-8" standalone="no"?>
<!DOCTYPE svg PUBLIC "-//W3C//DTD SVG 1.1//EN"
 "http://www.w3.org/Graphics/SVG/1.1/DTD/svg11.dtd">
<!-- Generated by graphviz version 13.1.2 (20250808.2320)
 -->
<!-- Title: AutomationClientConnectPacket Pages: 1 -->
<svg width="790pt" height="44pt"
 viewBox="0.00 0.00 790.00 44.00" xmlns="http://www.w3.org/2000/svg" xmlns:xlink="http://www.w3.org/1999/xlink">
<g id="graph0" class="graph" transform="scale(1 1) rotate(0) translate(4 40)">
<title>AutomationClientConnectPacket</title>
<polygon fill="white" stroke="none" points="-4,4 -4,-40 785.88,-40 785.88,4 -4,4"/>
<!-- 0 -->
<!-- name: &quot;AutomationClientConnectPacket&quot;, typeName: &quot;&quot;, id: 0, branchId: 0, recurseId: &#45;1, attributes: 0, notes: &quot;Initiates websocket connection&quot; -->
<g id="node1" class="node">
<title>0</title>
<ellipse fill="none" stroke="black" cx="133.24" cy="-18" rx="133.24" ry="18"/>
<text xml:space="preserve" text-anchor="middle" x="133.24" y="-12.95" font-family="Times New Roman,serif" font-size="14.00">AutomationClientConnectPacket</text>
</g>
<!-- 1 -->
<!-- name: &quot;Web Socket Data&quot;, typeName: &quot;&quot;, id: 1, branchId: 0, recurseId: &#45;1, attributes: 0, notes: &quot;&quot; -->
<g id="node2" class="node">
<title>1</title>
<ellipse fill="none" stroke="black" cx="377.89" cy="-18" rx="75.41" ry="18"/>
<text xml:space="preserve" text-anchor="middle" x="377.89" y="-12.95" font-family="Times New Roman,serif" font-size="14.00">Web Socket Data</text>
</g>
<!-- 0&#45;&gt;1 -->
<g id="edge1" class="edge">
<title>0&#45;&gt;1</title>
<path fill="none" stroke="black" d="M266.92,-18C275.03,-18 283.06,-18 290.88,-18"/>
<polygon fill="black" stroke="black" points="290.65,-21.5 300.65,-18 290.65,-14.5 290.65,-21.5"/>
</g>
<!-- 2 -->
<!-- name: &quot;Websocket Server URI&quot;, typeName: &quot;&quot;, id: 2, branchId: 0, recurseId: &#45;1, attributes: 0, notes: &quot;&quot; -->
<g id="node3" class="node">
<title>2</title>
<ellipse fill="none" stroke="black" cx="585.68" cy="-18" rx="96.39" ry="18"/>
<text xml:space="preserve" text-anchor="middle" x="585.68" y="-12.95" font-family="Times New Roman,serif" font-size="14.00">Websocket Server URI</text>
</g>
<!-- 1&#45;&gt;2 -->
<g id="edge2" class="edge">
<title>1&#45;&gt;2</title>
<path fill="none" stroke="black" d="M453.77,-18C461.58,-18 469.62,-18 477.7,-18"/>
<polygon fill="black" stroke="black" points="477.61,-21.5 487.61,-18 477.61,-14.5 477.61,-21.5"/>
</g>
<!-- 3 -->
<!-- name: &quot;string&quot;, typeName: &quot;&quot;, id: 3, branchId: 0, recurseId: &#45;1, attributes: 512, notes: &quot;&quot; -->
<g id="node4" class="node">
<title>3</title>
<ellipse fill="none" stroke="black" cx="749.98" cy="-18" rx="31.9" ry="18"/>
<text xml:space="preserve" text-anchor="middle" x="749.98" y="-12.95" font-family="Times New Roman,serif" font-size="14.00">string</text>
</g>
<!-- 2&#45;&gt;3 -->
<g id="edge3" class="edge">
<title>2&#45;&gt;3</title>
<path fill="none" stroke="black" d="M682.5,-18C690.79,-18 698.86,-18 706.36,-18"/>
<polygon fill="black" stroke="black" points="706.12,-21.5 716.12,-18 706.12,-14.5 706.12,-21.5"/>
</g>
</g>
</svg>
