<?xml version="1.0" encoding="UTF-8" standalone="no"?>
<!DOCTYPE svg PUBLIC "-//W3C//DTD SVG 1.1//EN"
 "http://www.w3.org/Graphics/SVG/1.1/DTD/svg11.dtd">
<!-- Generated by graphviz version 14.1.1 (20251213.1925)
 -->
<!-- Title: AvailableCommandsPacketConstrainedValueData Pages: 1 -->
<svg width="972pt" height="206pt"
 viewBox="0.00 0.00 972.00 206.00" xmlns="http://www.w3.org/2000/svg" xmlns:xlink="http://www.w3.org/1999/xlink">
<g id="graph0" class="graph" transform="scale(1 1) rotate(0) translate(4 202)">
<title>AvailableCommandsPacketConstrainedValueData</title>
<polygon fill="white" stroke="none" points="-4,4 -4,-202 968.08,-202 968.08,4 -4,4"/>
<!-- 0 -->
<!-- name: &quot;AvailableCommandsPacketConstrainedValueData&quot;, typeName: &quot;&quot;, id: 0, branchId: 0, recurseId: &#45;1, attributes: 0, notes: &quot;&quot; -->
<g id="node1" class="node">
<title>0</title>
<ellipse fill="none" stroke="black" cx="196.7" cy="-126" rx="196.7" ry="18"/>
<text xml:space="preserve" text-anchor="middle" x="196.7" y="-120.95" font-family="Times New Roman,serif" font-size="14.00">AvailableCommandsPacketConstrainedValueData</text>
</g>
<!-- 1 -->
<!-- name: &quot;Enum Value Symbol&quot;, typeName: &quot;&quot;, id: 1, branchId: 0, recurseId: &#45;1, attributes: 0, notes: &quot;The enum value symbol.&quot; -->
<g id="node2" class="node">
<title>1</title>
<ellipse fill="none" stroke="black" cx="517.61" cy="-176" rx="88.2" ry="18"/>
<text xml:space="preserve" text-anchor="middle" x="517.61" y="-170.95" font-family="Times New Roman,serif" font-size="14.00">Enum Value Symbol</text>
</g>
<!-- 0&#45;&gt;1 -->
<g id="edge1" class="edge">
<title>0&#45;&gt;1</title>
<path fill="none" stroke="black" d="M298.61,-141.82C342.74,-148.74 393.81,-156.75 435.43,-163.27"/>
<polygon fill="black" stroke="black" points="434.71,-166.7 445.13,-164.79 435.79,-159.79 434.71,-166.7"/>
</g>
<!-- 3 -->
<!-- name: &quot;Enum Symbol&quot;, typeName: &quot;&quot;, id: 3, branchId: 0, recurseId: &#45;1, attributes: 0, notes: &quot;The enum symbol.&quot; -->
<g id="node4" class="node">
<title>3</title>
<ellipse fill="none" stroke="black" cx="716.71" cy="-126" rx="65.17" ry="18"/>
<text xml:space="preserve" text-anchor="middle" x="716.71" y="-120.95" font-family="Times New Roman,serif" font-size="14.00">Enum Symbol</text>
</g>
<!-- 0&#45;&gt;3 -->
<g id="edge3" class="edge">
<title>0&#45;&gt;3</title>
<path fill="none" stroke="black" d="M393.91,-126C479.81,-126 575.52,-126 640.06,-126"/>
<polygon fill="black" stroke="black" points="639.82,-129.5 649.82,-126 639.82,-122.5 639.82,-129.5"/>
</g>
<!-- 5 -->
<!-- name: &quot;Constraint Indices&quot;, typeName: &quot;&quot;, id: 5, branchId: 0, recurseId: &#45;1, attributes: 0, notes: &quot;The constraint indices.&quot; -->
<g id="node6" class="node">
<title>5</title>
<ellipse fill="none" stroke="black" cx="517.61" cy="-72" rx="78.48" ry="18"/>
<text xml:space="preserve" text-anchor="middle" x="517.61" y="-66.95" font-family="Times New Roman,serif" font-size="14.00">Constraint Indices</text>
</g>
<!-- 0&#45;&gt;5 -->
<g id="edge5" class="edge">
<title>0&#45;&gt;5</title>
<path fill="none" stroke="black" d="M292.96,-109.87C340.74,-101.78 397.75,-92.13 442.26,-84.59"/>
<polygon fill="black" stroke="black" points="442.81,-88.05 452.09,-82.93 441.64,-81.14 442.81,-88.05"/>
</g>
<!-- 2 -->
<!-- name: &quot;unsigned int&quot;, typeName: &quot;&quot;, id: 2, branchId: 0, recurseId: &#45;1, attributes: 512, notes: &quot;The enum value symbol.&quot; -->
<g id="node3" class="node">
<title>2</title>
<ellipse fill="none" stroke="black" cx="895.84" cy="-180" rx="56.47" ry="18"/>
<text xml:space="preserve" text-anchor="middle" x="895.84" y="-174.95" font-family="Times New Roman,serif" font-size="14.00">unsigned int</text>
</g>
<!-- 1&#45;&gt;2 -->
<g id="edge2" class="edge">
<title>1&#45;&gt;2</title>
<path fill="none" stroke="black" d="M605.87,-176.93C673.51,-177.65 765.86,-178.63 827.78,-179.29"/>
<polygon fill="black" stroke="black" points="827.42,-182.78 837.46,-179.39 827.5,-175.78 827.42,-182.78"/>
</g>
<!-- 4 -->
<!-- name: &quot;unsigned int&quot;, typeName: &quot;&quot;, id: 4, branchId: 0, recurseId: &#45;1, attributes: 512, notes: &quot;The enum symbol.&quot; -->
<g id="node5" class="node">
<title>4</title>
<ellipse fill="none" stroke="black" cx="895.84" cy="-126" rx="56.47" ry="18"/>
<text xml:space="preserve" text-anchor="middle" x="895.84" y="-120.95" font-family="Times New Roman,serif" font-size="14.00">unsigned int</text>
</g>
<!-- 3&#45;&gt;4 -->
<g id="edge4" class="edge">
<title>3&#45;&gt;4</title>
<path fill="none" stroke="black" d="M782.16,-126C796.98,-126 812.77,-126 827.7,-126"/>
<polygon fill="black" stroke="black" points="827.41,-129.5 837.41,-126 827.41,-122.5 827.41,-129.5"/>
</g>
<!-- 6 -->
<!-- name: &quot;List Size&quot;, typeName: &quot;&quot;, id: 6, branchId: 0, recurseId: &#45;1, attributes: 0, notes: &quot;&quot; -->
<g id="node7" class="node">
<title>6</title>
<ellipse fill="none" stroke="black" cx="716.71" cy="-72" rx="43.67" ry="18"/>
<text xml:space="preserve" text-anchor="middle" x="716.71" y="-66.95" font-family="Times New Roman,serif" font-size="14.00">List Size</text>
</g>
<!-- 5&#45;&gt;6 -->
<g id="edge6" class="edge">
<title>5&#45;&gt;6</title>
<path fill="none" stroke="black" d="M596.51,-72C618.19,-72 641.26,-72 661.27,-72"/>
<polygon fill="black" stroke="black" points="661.16,-75.5 671.16,-72 661.16,-68.5 661.16,-75.5"/>
</g>
<!-- 8 -->
<!-- name: &quot;example element&quot;, typeName: &quot;&quot;, id: 8, branchId: 0, recurseId: &#45;1, attributes: 16, notes: &quot;&quot; -->
<g id="node9" class="node">
<title>8</title>
<ellipse fill="none" stroke="black" stroke-dasharray="1,5" cx="716.71" cy="-18" rx="74.89" ry="18"/>
<text xml:space="preserve" text-anchor="middle" x="716.71" y="-12.95" font-family="Times New Roman,serif" font-size="14.00">example element</text>
</g>
<!-- 5&#45;&gt;8 -->
<g id="edge8" class="edge">
<title>5&#45;&gt;8</title>
<path fill="none" stroke="black" d="M569.37,-58.09C595.53,-50.93 627.63,-42.13 655.09,-34.61"/>
<polygon fill="black" stroke="black" points="655.97,-38 664.69,-31.98 654.12,-31.25 655.97,-38"/>
</g>
<!-- 7 -->
<!-- name: &quot;unsigned varint&quot;, typeName: &quot;&quot;, id: 7, branchId: 0, recurseId: &#45;1, attributes: 0, notes: &quot;&quot; -->
<g id="node8" class="node">
<title>7</title>
<ellipse fill="none" stroke="black" cx="895.84" cy="-72" rx="68.24" ry="18"/>
<text xml:space="preserve" text-anchor="middle" x="895.84" y="-66.95" font-family="Times New Roman,serif" font-size="14.00">unsigned varint</text>
</g>
<!-- 6&#45;&gt;7 -->
<g id="edge7" class="edge">
<title>6&#45;&gt;7</title>
<path fill="none" stroke="black" d="M760.59,-72C777.2,-72 796.77,-72 815.74,-72"/>
<polygon fill="black" stroke="black" points="815.62,-75.5 825.62,-72 815.62,-68.5 815.62,-75.5"/>
</g>
<!-- 9 -->
<!-- name: &quot;unsigned byte&quot;, typeName: &quot;&quot;, id: 9, branchId: 0, recurseId: &#45;1, attributes: 512, notes: &quot;&quot; -->
<g id="node10" class="node">
<title>9</title>
<ellipse fill="none" stroke="black" cx="895.84" cy="-18" rx="62.61" ry="18"/>
<text xml:space="preserve" text-anchor="middle" x="895.84" y="-12.95" font-family="Times New Roman,serif" font-size="14.00">unsigned byte</text>
</g>
<!-- 8&#45;&gt;9 -->
<g id="edge9" class="edge">
<title>8&#45;&gt;9</title>
<path fill="none" stroke="black" d="M792.06,-18C801.86,-18 811.9,-18 821.68,-18"/>
<polygon fill="black" stroke="black" points="821.49,-21.5 831.49,-18 821.49,-14.5 821.49,-21.5"/>
</g>
</g>
</svg>
