<?xml version="1.0" encoding="UTF-8" standalone="no"?>
<!DOCTYPE svg PUBLIC "-//W3C//DTD SVG 1.1//EN"
 "http://www.w3.org/Graphics/SVG/1.1/DTD/svg11.dtd">
<!-- Generated by graphviz version 14.1.1 (20251213.1925)
 -->
<!-- Title: AvailableCommandsPacketChainedSubcommandRelationship Pages: 1 -->
<svg width="937pt" height="98pt"
 viewBox="0.00 0.00 937.00 98.00" xmlns="http://www.w3.org/2000/svg" xmlns:xlink="http://www.w3.org/1999/xlink">
<g id="graph0" class="graph" transform="scale(1 1) rotate(0) translate(4 94)">
<title>AvailableCommandsPacketChainedSubcommandRelationship</title>
<polygon fill="white" stroke="none" points="-4,4 -4,-94 932.77,-94 932.77,4 -4,4"/>
<!-- 0 -->
<!-- name: &quot;AvailableCommandsPacketChainedSubcommandRelationship&quot;, typeName: &quot;&quot;, id: 0, branchId: 0, recurseId: &#45;1, attributes: 0, notes: &quot;&quot; -->
<g id="node1" class="node">
<title>0</title>
<ellipse fill="none" stroke="black" cx="242.77" cy="-45" rx="242.77" ry="18"/>
<text xml:space="preserve" text-anchor="middle" x="242.77" y="-39.95" font-family="Times New Roman,serif" font-size="14.00">AvailableCommandsPacketChainedSubcommandRelationship</text>
</g>
<!-- 1 -->
<!-- name: &quot;SubCommand First Value&quot;, typeName: &quot;&quot;, id: 1, branchId: 0, recurseId: &#45;1, attributes: 0, notes: &quot;The first value, the sub command value id.&quot; -->
<g id="node2" class="node">
<title>1</title>
<ellipse fill="none" stroke="black" cx="638.91" cy="-72" rx="107.14" ry="18"/>
<text xml:space="preserve" text-anchor="middle" x="638.91" y="-66.95" font-family="Times New Roman,serif" font-size="14.00">SubCommand First Value</text>
</g>
<!-- 0&#45;&gt;1 -->
<g id="edge1" class="edge">
<title>0&#45;&gt;1</title>
<path fill="none" stroke="black" d="M423.83,-57.33C459.21,-59.76 495.34,-62.23 527.59,-64.44"/>
<polygon fill="black" stroke="black" points="527.1,-67.92 537.32,-65.11 527.58,-60.93 527.1,-67.92"/>
</g>
<!-- 3 -->
<!-- name: &quot;SubCommand Second Value&quot;, typeName: &quot;&quot;, id: 3, branchId: 0, recurseId: &#45;1, attributes: 0, notes: &quot;The second value, the enum id.&quot; -->
<g id="node4" class="node">
<title>3</title>
<ellipse fill="none" stroke="black" cx="638.91" cy="-18" rx="117.37" ry="18"/>
<text xml:space="preserve" text-anchor="middle" x="638.91" y="-12.95" font-family="Times New Roman,serif" font-size="14.00">SubCommand Second Value</text>
</g>
<!-- 0&#45;&gt;3 -->
<g id="edge3" class="edge">
<title>0&#45;&gt;3</title>
<path fill="none" stroke="black" d="M423.83,-32.67C456.29,-30.44 489.38,-28.17 519.53,-26.11"/>
<polygon fill="black" stroke="black" points="519.69,-29.61 529.43,-25.43 519.21,-22.62 519.69,-29.61"/>
</g>
<!-- 2 -->
<!-- name: &quot;unsigned varint&quot;, typeName: &quot;&quot;, id: 2, branchId: 0, recurseId: &#45;1, attributes: 512, notes: &quot;The first value, the sub command value id.&quot; -->
<g id="node3" class="node">
<title>2</title>
<ellipse fill="none" stroke="black" cx="860.53" cy="-72" rx="68.24" ry="18"/>
<text xml:space="preserve" text-anchor="middle" x="860.53" y="-66.95" font-family="Times New Roman,serif" font-size="14.00">unsigned varint</text>
</g>
<!-- 1&#45;&gt;2 -->
<g id="edge2" class="edge">
<title>1&#45;&gt;2</title>
<path fill="none" stroke="black" d="M746.5,-72C758.02,-72 769.58,-72 780.69,-72"/>
<polygon fill="black" stroke="black" points="780.56,-75.5 790.56,-72 780.56,-68.5 780.56,-75.5"/>
</g>
<!-- 4 -->
<!-- name: &quot;unsigned varint&quot;, typeName: &quot;&quot;, id: 4, branchId: 0, recurseId: &#45;1, attributes: 512, notes: &quot;The second value, the enum id.&quot; -->
<g id="node5" class="node">
<title>4</title>
<ellipse fill="none" stroke="black" cx="860.53" cy="-18" rx="68.24" ry="18"/>
<text xml:space="preserve" text-anchor="middle" x="860.53" y="-12.95" font-family="Times New Roman,serif" font-size="14.00">unsigned varint</text>
</g>
<!-- 3&#45;&gt;4 -->
<g id="edge4" class="edge">
<title>3&#45;&gt;4</title>
<path fill="none" stroke="black" d="M756.47,-18C764.61,-18 772.7,-18 780.56,-18"/>
<polygon fill="black" stroke="black" points="780.38,-21.5 790.38,-18 780.38,-14.5 780.38,-21.5"/>
</g>
</g>
</svg>
