<?xml version="1.0" encoding="UTF-8" standalone="no"?>
<!DOCTYPE svg PUBLIC "-//W3C//DTD SVG 1.1//EN"
 "http://www.w3.org/Graphics/SVG/1.1/DTD/svg11.dtd">
<!-- Generated by graphviz version 9.0.0 (20230911.1827)
 -->
<!-- Title: AvailableActorIdentifiersPacket Pages: 1 -->
<svg width="604pt" height="44pt"
 viewBox="0.00 0.00 603.95 44.00" xmlns="http://www.w3.org/2000/svg" xmlns:xlink="http://www.w3.org/1999/xlink">
<g id="graph0" class="graph" transform="scale(1 1) rotate(0) translate(4 40)">
<title>AvailableActorIdentifiersPacket</title>
<polygon fill="white" stroke="none" points="-4,4 -4,-40 599.95,-40 599.95,4 -4,4"/>
<!-- 0 -->
<!-- name: &quot;AvailableActorIdentifiersPacket&quot;, typeName: &quot;&quot;, id: 0, branchId: 119, recurseId: &#45;1, attributes: 0, notes: &quot;&quot; -->
<g id="node1" class="node">
<title>0</title>
<ellipse fill="none" stroke="black" cx="127.91" cy="-18" rx="127.91" ry="18"/>
<text text-anchor="middle" x="127.91" y="-12.57" font-family="Times New Roman,serif" font-size="14.00">AvailableActorIdentifiersPacket</text>
</g>
<!-- 1 -->
<!-- name: &quot;Actor Info List&quot;, typeName: &quot;CompoundTag&quot;, id: 1, branchId: 0, recurseId: &#45;1, attributes: 256, notes: &quot;CompoundTag containing a list of ActorInfo:rid (RuntimeId &#45; Int),id (string),bid (BaseId &#45; string),hasspawnegg (bool),summonable (bool)&quot; -->
<g id="node2" class="node">
<title>1</title>
<ellipse fill="none" stroke="black" cx="358.35" cy="-18" rx="66.53" ry="18"/>
<text text-anchor="middle" x="358.35" y="-12.57" font-family="Times New Roman,serif" font-size="14.00">Actor Info List</text>
</g>
<!-- 0&#45;&gt;1 -->
<g id="edge1" class="edge">
<title>0&#45;&gt;1</title>
<path fill="none" stroke="black" d="M256.16,-18C264.35,-18 272.45,-18 280.29,-18"/>
<polygon fill="black" stroke="black" points="280.05,-21.5 290.05,-18 280.05,-14.5 280.05,-21.5"/>
</g>
<!-- 2 -->
<!-- name: &quot;CompoundTag&quot;, typeName: &quot;&quot;, id: 2, branchId: 0, recurseId: &#45;1, attributes: 512, notes: &quot;&quot; -->
<g id="node3" class="node">
<title>2</title>
<ellipse fill="none" stroke="black" cx="528.41" cy="-18" rx="67.53" ry="18"/>
<text text-anchor="middle" x="528.41" y="-12.57" font-family="Times New Roman,serif" font-size="14.00">CompoundTag</text>
</g>
<!-- 1&#45;&gt;2 -->
<g id="edge2" class="edge">
<title>1&#45;&gt;2</title>
<path fill="none" stroke="black" d="M425.29,-18C433.17,-18 441.27,-18 449.29,-18"/>
<polygon fill="black" stroke="black" points="449.05,-21.5 459.05,-18 449.05,-14.5 449.05,-21.5"/>
</g>
</g>
</svg>
