<?xml version="1.0" encoding="UTF-8" standalone="no"?>
<!DOCTYPE svg PUBLIC "-//W3C//DTD SVG 1.1//EN"
 "http://www.w3.org/Graphics/SVG/1.1/DTD/svg11.dtd">
<!-- Generated by graphviz version 14.1.1 (20251213.1925)
 -->
<!-- Title: AvailableCommandsPacketOverloadData Pages: 1 -->
<svg width="1032pt" height="308pt"
 viewBox="0.00 0.00 1032.00 308.00" xmlns="http://www.w3.org/2000/svg" xmlns:xlink="http://www.w3.org/1999/xlink">
<g id="graph0" class="graph" transform="scale(1 1) rotate(0) translate(4 304)">
<title>AvailableCommandsPacketOverloadData</title>
<polygon fill="white" stroke="none" points="-4,4 -4,-304 1027.97,-304 1027.97,4 -4,4"/>
<!-- 0 -->
<!-- name: &quot;AvailableCommandsPacketOverloadData&quot;, typeName: &quot;&quot;, id: 0, branchId: 0, recurseId: &#45;1, attributes: 0, notes: &quot;&quot; -->
<g id="node1" class="node">
<title>0</title>
<ellipse fill="none" stroke="black" cx="165.48" cy="-255" rx="165.48" ry="18"/>
<text xml:space="preserve" text-anchor="middle" x="165.48" y="-249.95" font-family="Times New Roman,serif" font-size="14.00">AvailableCommandsPacketOverloadData</text>
</g>
<!-- 1 -->
<!-- name: &quot;isChaining&quot;, typeName: &quot;&quot;, id: 1, branchId: 0, recurseId: &#45;1, attributes: 0, notes: &quot;The is chaining command flag, true for chaining.&quot; -->
<g id="node2" class="node">
<title>1</title>
<ellipse fill="none" stroke="black" cx="435.72" cy="-282" rx="50.84" ry="18"/>
<text xml:space="preserve" text-anchor="middle" x="435.72" y="-276.95" font-family="Times New Roman,serif" font-size="14.00">isChaining</text>
</g>
<!-- 0&#45;&gt;1 -->
<g id="edge1" class="edge">
<title>0&#45;&gt;1</title>
<path fill="none" stroke="black" d="M288.83,-267.31C318.78,-270.33 349.53,-273.42 375.02,-275.99"/>
<polygon fill="black" stroke="black" points="374.54,-279.46 384.84,-276.98 375.24,-272.5 374.54,-279.46"/>
</g>
<!-- 3 -->
<!-- name: &quot;Parameter Data&quot;, typeName: &quot;&quot;, id: 3, branchId: 0, recurseId: &#45;1, attributes: 0, notes: &quot;The parameters data.&quot; -->
<g id="node4" class="node">
<title>3</title>
<ellipse fill="none" stroke="black" cx="435.72" cy="-228" rx="68.75" ry="18"/>
<text xml:space="preserve" text-anchor="middle" x="435.72" y="-222.95" font-family="Times New Roman,serif" font-size="14.00">Parameter Data</text>
</g>
<!-- 0&#45;&gt;3 -->
<g id="edge3" class="edge">
<title>0&#45;&gt;3</title>
<path fill="none" stroke="black" d="M288.83,-242.69C312.95,-240.26 337.58,-237.78 359.57,-235.56"/>
<polygon fill="black" stroke="black" points="359.71,-239.07 369.31,-234.58 359.01,-232.1 359.71,-239.07"/>
</g>
<!-- 2 -->
<!-- name: &quot;bool&quot;, typeName: &quot;&quot;, id: 2, branchId: 0, recurseId: &#45;1, attributes: 512, notes: &quot;The is chaining command flag, true for chaining.&quot; -->
<g id="node3" class="node">
<title>2</title>
<ellipse fill="none" stroke="black" cx="961.36" cy="-282" rx="27.3" ry="18"/>
<text xml:space="preserve" text-anchor="middle" x="961.36" y="-276.95" font-family="Times New Roman,serif" font-size="14.00">bool</text>
</g>
<!-- 1&#45;&gt;2 -->
<g id="edge2" class="edge">
<title>1&#45;&gt;2</title>
<path fill="none" stroke="black" d="M486.93,-282C591.28,-282 829.56,-282 922.37,-282"/>
<polygon fill="black" stroke="black" points="922.2,-285.5 932.2,-282 922.2,-278.5 922.2,-285.5"/>
</g>
<!-- 4 -->
<!-- name: &quot;List Size&quot;, typeName: &quot;&quot;, id: 4, branchId: 0, recurseId: &#45;1, attributes: 0, notes: &quot;&quot; -->
<g id="node5" class="node">
<title>4</title>
<ellipse fill="none" stroke="black" cx="615.37" cy="-230" rx="43.67" ry="18"/>
<text xml:space="preserve" text-anchor="middle" x="615.37" y="-224.95" font-family="Times New Roman,serif" font-size="14.00">List Size</text>
</g>
<!-- 3&#45;&gt;4 -->
<g id="edge4" class="edge">
<title>3&#45;&gt;4</title>
<path fill="none" stroke="black" d="M504.9,-228.77C523.2,-228.97 542.74,-229.19 560.17,-229.39"/>
<polygon fill="black" stroke="black" points="559.73,-232.88 569.77,-229.5 559.81,-225.89 559.73,-232.88"/>
</g>
<!-- 6 -->
<!-- name: &quot;example element&quot;, typeName: &quot;&quot;, id: 6, branchId: 0, recurseId: &#45;1, attributes: 16, notes: &quot;&quot; -->
<g id="node7" class="node">
<title>6</title>
<ellipse fill="none" stroke="black" stroke-dasharray="1,5" cx="615.37" cy="-126" rx="74.89" ry="18"/>
<text xml:space="preserve" text-anchor="middle" x="615.37" y="-120.95" font-family="Times New Roman,serif" font-size="14.00">example element</text>
</g>
<!-- 3&#45;&gt;6 -->
<g id="edge6" class="edge">
<title>3&#45;&gt;6</title>
<path fill="none" stroke="black" d="M465.66,-211.38C495.51,-194.25 542.25,-167.41 575.35,-148.41"/>
<polygon fill="black" stroke="black" points="576.91,-151.55 583.84,-143.53 573.42,-145.48 576.91,-151.55"/>
</g>
<!-- 5 -->
<!-- name: &quot;unsigned varint&quot;, typeName: &quot;&quot;, id: 5, branchId: 0, recurseId: &#45;1, attributes: 0, notes: &quot;&quot; -->
<g id="node6" class="node">
<title>5</title>
<ellipse fill="none" stroke="black" cx="794.51" cy="-234" rx="68.24" ry="18"/>
<text xml:space="preserve" text-anchor="middle" x="794.51" y="-228.95" font-family="Times New Roman,serif" font-size="14.00">unsigned varint</text>
</g>
<!-- 4&#45;&gt;5 -->
<g id="edge5" class="edge">
<title>4&#45;&gt;5</title>
<path fill="none" stroke="black" d="M659.25,-230.97C675.95,-231.35 695.63,-231.79 714.7,-232.22"/>
<polygon fill="black" stroke="black" points="714.55,-235.72 724.63,-232.44 714.71,-228.72 714.55,-235.72"/>
</g>
<!-- 7 -->
<!-- name: &quot;Name&quot;, typeName: &quot;&quot;, id: 7, branchId: 0, recurseId: &#45;1, attributes: 0, notes: &quot;The parameter name.&quot; -->
<g id="node8" class="node">
<title>7</title>
<ellipse fill="none" stroke="black" cx="794.51" cy="-180" rx="33.44" ry="18"/>
<text xml:space="preserve" text-anchor="middle" x="794.51" y="-174.95" font-family="Times New Roman,serif" font-size="14.00">Name</text>
</g>
<!-- 6&#45;&gt;7 -->
<g id="edge7" class="edge">
<title>6&#45;&gt;7</title>
<path fill="none" stroke="black" d="M662.91,-140.19C691.16,-148.8 726.84,-159.68 753.77,-167.89"/>
<polygon fill="black" stroke="black" points="752.69,-171.22 763.27,-170.78 754.73,-164.52 752.69,-171.22"/>
</g>
<!-- 9 -->
<!-- name: &quot;Parse Symbol&quot;, typeName: &quot;&quot;, id: 9, branchId: 0, recurseId: &#45;1, attributes: 0, notes: &quot;The parameter parse symbol.&quot; -->
<g id="node10" class="node">
<title>9</title>
<ellipse fill="none" stroke="black" cx="794.51" cy="-126" rx="62.61" ry="18"/>
<text xml:space="preserve" text-anchor="middle" x="794.51" y="-120.95" font-family="Times New Roman,serif" font-size="14.00">Parse Symbol</text>
</g>
<!-- 6&#45;&gt;9 -->
<g id="edge9" class="edge">
<title>6&#45;&gt;9</title>
<path fill="none" stroke="black" d="M690.72,-126C700.52,-126 710.56,-126 720.34,-126"/>
<polygon fill="black" stroke="black" points="720.15,-129.5 730.15,-126 720.15,-122.5 720.15,-129.5"/>
</g>
<!-- 11 -->
<!-- name: &quot;Is Optional?&quot;, typeName: &quot;&quot;, id: 11, branchId: 0, recurseId: &#45;1, attributes: 0, notes: &quot;The parameter optional flag. True for an optional parameter.&quot; -->
<g id="node12" class="node">
<title>11</title>
<ellipse fill="none" stroke="black" cx="794.51" cy="-72" rx="56.47" ry="18"/>
<text xml:space="preserve" text-anchor="middle" x="794.51" y="-66.95" font-family="Times New Roman,serif" font-size="14.00">Is Optional?</text>
</g>
<!-- 6&#45;&gt;11 -->
<g id="edge11" class="edge">
<title>6&#45;&gt;11</title>
<path fill="none" stroke="black" d="M662.91,-111.81C687.2,-104.41 716.97,-95.33 741.96,-87.71"/>
<polygon fill="black" stroke="black" points="742.71,-91.14 751.25,-84.88 740.67,-84.45 742.71,-91.14"/>
</g>
<!-- 13 -->
<!-- name: &quot;Options&quot;, typeName: &quot;&quot;, id: 13, branchId: 0, recurseId: &#45;1, attributes: 0, notes: &quot;The parameter options.&quot; -->
<g id="node14" class="node">
<title>13</title>
<ellipse fill="none" stroke="black" cx="794.51" cy="-18" rx="40.09" ry="18"/>
<text xml:space="preserve" text-anchor="middle" x="794.51" y="-12.95" font-family="Times New Roman,serif" font-size="14.00">Options</text>
</g>
<!-- 6&#45;&gt;13 -->
<g id="edge13" class="edge">
<title>6&#45;&gt;13</title>
<path fill="none" stroke="black" d="M636.77,-108.49C658.06,-90.83 692.93,-63.58 726.26,-45 734.14,-40.61 742.89,-36.56 751.39,-33"/>
<polygon fill="black" stroke="black" points="752.56,-36.3 760.54,-29.34 749.96,-29.8 752.56,-36.3"/>
</g>
<!-- 8 -->
<!-- name: &quot;string&quot;, typeName: &quot;&quot;, id: 8, branchId: 0, recurseId: &#45;1, attributes: 512, notes: &quot;The parameter name.&quot; -->
<g id="node9" class="node">
<title>8</title>
<ellipse fill="none" stroke="black" cx="961.36" cy="-180" rx="31.9" ry="18"/>
<text xml:space="preserve" text-anchor="middle" x="961.36" y="-174.95" font-family="Times New Roman,serif" font-size="14.00">string</text>
</g>
<!-- 7&#45;&gt;8 -->
<g id="edge8" class="edge">
<title>7&#45;&gt;8</title>
<path fill="none" stroke="black" d="M828.07,-180C853.69,-180 889.6,-180 917.54,-180"/>
<polygon fill="black" stroke="black" points="917.46,-183.5 927.46,-180 917.46,-176.5 917.46,-183.5"/>
</g>
<!-- 10 -->
<!-- name: &quot;unsigned int&quot;, typeName: &quot;&quot;, id: 10, branchId: 0, recurseId: &#45;1, attributes: 512, notes: &quot;The parameter parse symbol.&quot; -->
<g id="node11" class="node">
<title>10</title>
<ellipse fill="none" stroke="black" cx="961.36" cy="-126" rx="56.47" ry="18"/>
<text xml:space="preserve" text-anchor="middle" x="961.36" y="-120.95" font-family="Times New Roman,serif" font-size="14.00">unsigned int</text>
</g>
<!-- 9&#45;&gt;10 -->
<g id="edge10" class="edge">
<title>9&#45;&gt;10</title>
<path fill="none" stroke="black" d="M857.36,-126C869.06,-126 881.35,-126 893.21,-126"/>
<polygon fill="black" stroke="black" points="892.89,-129.5 902.89,-126 892.89,-122.5 892.89,-129.5"/>
</g>
<!-- 12 -->
<!-- name: &quot;bool&quot;, typeName: &quot;&quot;, id: 12, branchId: 0, recurseId: &#45;1, attributes: 512, notes: &quot;The parameter optional flag. True for an optional parameter.&quot; -->
<g id="node13" class="node">
<title>12</title>
<ellipse fill="none" stroke="black" cx="961.36" cy="-72" rx="27.3" ry="18"/>
<text xml:space="preserve" text-anchor="middle" x="961.36" y="-66.95" font-family="Times New Roman,serif" font-size="14.00">bool</text>
</g>
<!-- 11&#45;&gt;12 -->
<g id="edge12" class="edge">
<title>11&#45;&gt;12</title>
<path fill="none" stroke="black" d="M851.32,-72C874.69,-72 901.27,-72 922.33,-72"/>
<polygon fill="black" stroke="black" points="922.21,-75.5 932.21,-72 922.21,-68.5 922.21,-75.5"/>
</g>
<!-- 14 -->
<!-- name: &quot;unsigned byte&quot;, typeName: &quot;&quot;, id: 14, branchId: 0, recurseId: &#45;1, attributes: 512, notes: &quot;The parameter options.&quot; -->
<g id="node15" class="node">
<title>14</title>
<ellipse fill="none" stroke="black" cx="961.36" cy="-18" rx="62.61" ry="18"/>
<text xml:space="preserve" text-anchor="middle" x="961.36" y="-12.95" font-family="Times New Roman,serif" font-size="14.00">unsigned byte</text>
</g>
<!-- 13&#45;&gt;14 -->
<g id="edge14" class="edge">
<title>13&#45;&gt;14</title>
<path fill="none" stroke="black" d="M834.99,-18C850.62,-18 869.09,-18 887,-18"/>
<polygon fill="black" stroke="black" points="886.82,-21.5 896.82,-18 886.82,-14.5 886.82,-21.5"/>
</g>
</g>
</svg>
