<?xml version="1.0" encoding="UTF-8" standalone="no"?>
<!DOCTYPE svg PUBLIC "-//W3C//DTD SVG 1.1//EN"
 "http://www.w3.org/Graphics/SVG/1.1/DTD/svg11.dtd">
<!-- Generated by graphviz version 9.0.0 (20230911.1827)
 -->
<!-- Title: BaseDescription Pages: 1 -->
<svg width="722pt" height="368pt"
 viewBox="0.00 0.00 722.11 368.00" xmlns="http://www.w3.org/2000/svg" xmlns:xlink="http://www.w3.org/1999/xlink">
<g id="graph0" class="graph" transform="scale(1 1) rotate(0) translate(4 364)">
<title>BaseDescription</title>
<polygon fill="white" stroke="none" points="-4,4 -4,-364 718.11,-364 718.11,4 -4,4"/>
<!-- 1 -->
<!-- name: &quot;BaseDescription&quot;, typeName: &quot;&quot;, id: 1, branchId: 0, recurseId: &#45;1, attributes: 0, notes: &quot;&quot; -->
<g id="node1" class="node">
<title>1</title>
<ellipse fill="none" stroke="black" cx="71.52" cy="-153" rx="71.52" ry="18"/>
<text text-anchor="middle" x="71.52" y="-147.57" font-family="Times New Roman,serif" font-size="14.00">BaseDescription</text>
</g>
<!-- 2 -->
<!-- name: &quot;Internal ItemDescriptor&quot;, typeName: &quot;&quot;, id: 2, branchId: 0, recurseId: &#45;1, attributes: 0, notes: &quot;&quot; -->
<g id="node2" class="node">
<title>2</title>
<ellipse fill="none" stroke="black" cx="275.52" cy="-288" rx="96.47" ry="18"/>
<text text-anchor="middle" x="275.52" y="-282.57" font-family="Times New Roman,serif" font-size="14.00">Internal ItemDescriptor</text>
</g>
<!-- 1&#45;&gt;2 -->
<g id="edge1" class="edge">
<title>1&#45;&gt;2</title>
<path fill="none" stroke="black" d="M98.11,-170.1C133.71,-193.89 198.35,-237.1 238.72,-264.08"/>
<polygon fill="black" stroke="black" points="236.67,-266.91 246.93,-269.56 240.56,-261.09 236.67,-266.91"/>
</g>
<!-- 7 -->
<!-- name: &quot;Molang Descriptor&quot;, typeName: &quot;&quot;, id: 7, branchId: 0, recurseId: &#45;1, attributes: 0, notes: &quot;&quot; -->
<g id="node7" class="node">
<title>7</title>
<ellipse fill="none" stroke="black" cx="275.52" cy="-180" rx="80.5" ry="18"/>
<text text-anchor="middle" x="275.52" y="-174.57" font-family="Times New Roman,serif" font-size="14.00">Molang Descriptor</text>
</g>
<!-- 1&#45;&gt;7 -->
<g id="edge6" class="edge">
<title>1&#45;&gt;7</title>
<path fill="none" stroke="black" d="M135.6,-161.43C154.18,-163.92 174.76,-166.67 194.27,-169.27"/>
<polygon fill="black" stroke="black" points="193.73,-172.73 204.1,-170.59 194.65,-165.79 193.73,-172.73"/>
</g>
<!-- 12 -->
<!-- name: &quot;ItemTag Descriptor&quot;, typeName: &quot;&quot;, id: 12, branchId: 0, recurseId: &#45;1, attributes: 0, notes: &quot;&quot; -->
<g id="node12" class="node">
<title>12</title>
<ellipse fill="none" stroke="black" cx="275.52" cy="-126" rx="83.5" ry="18"/>
<text text-anchor="middle" x="275.52" y="-120.58" font-family="Times New Roman,serif" font-size="14.00">ItemTag Descriptor</text>
</g>
<!-- 1&#45;&gt;12 -->
<g id="edge11" class="edge">
<title>1&#45;&gt;12</title>
<path fill="none" stroke="black" d="M135.6,-144.57C153.52,-142.17 173.29,-139.53 192.17,-137.01"/>
<polygon fill="black" stroke="black" points="192.52,-140.49 201.97,-135.7 191.59,-133.55 192.52,-140.49"/>
</g>
<!-- 15 -->
<!-- name: &quot;Deferred Descriptor&quot;, typeName: &quot;&quot;, id: 15, branchId: 0, recurseId: &#45;1, attributes: 0, notes: &quot;&quot; -->
<g id="node15" class="node">
<title>15</title>
<ellipse fill="none" stroke="black" cx="275.52" cy="-72" rx="85" ry="18"/>
<text text-anchor="middle" x="275.52" y="-66.58" font-family="Times New Roman,serif" font-size="14.00">Deferred Descriptor</text>
</g>
<!-- 1&#45;&gt;15 -->
<g id="edge14" class="edge">
<title>1&#45;&gt;15</title>
<path fill="none" stroke="black" d="M101.66,-136.29C122.68,-124.72 152.01,-109.56 179.05,-99 188.25,-95.4 198.13,-92.06 207.92,-89.04"/>
<polygon fill="black" stroke="black" points="208.85,-92.42 217.44,-86.2 206.85,-85.71 208.85,-92.42"/>
</g>
<!-- 3 -->
<!-- name: &quot;Full Name&quot;, typeName: &quot;&quot;, id: 3, branchId: 0, recurseId: &#45;1, attributes: 0, notes: &quot;&quot; -->
<g id="node3" class="node">
<title>3</title>
<ellipse fill="none" stroke="black" cx="478.02" cy="-342" rx="48.57" ry="18"/>
<text text-anchor="middle" x="478.02" y="-336.57" font-family="Times New Roman,serif" font-size="14.00">Full Name</text>
</g>
<!-- 2&#45;&gt;3 -->
<g id="edge2" class="edge">
<title>2&#45;&gt;3</title>
<path fill="none" stroke="black" d="M332.1,-302.97C361.77,-310.96 398,-320.72 426.82,-328.48"/>
<polygon fill="black" stroke="black" points="425.84,-331.84 436.4,-331.06 427.66,-325.08 425.84,-331.84"/>
</g>
<!-- 5 -->
<!-- name: &quot;Aux Value&quot;, typeName: &quot;&quot;, id: 5, branchId: 0, recurseId: &#45;1, attributes: 0, notes: &quot;&quot; -->
<g id="node5" class="node">
<title>5</title>
<ellipse fill="none" stroke="black" cx="478.02" cy="-288" rx="49.57" ry="18"/>
<text text-anchor="middle" x="478.02" y="-282.57" font-family="Times New Roman,serif" font-size="14.00">Aux Value</text>
</g>
<!-- 2&#45;&gt;5 -->
<g id="edge4" class="edge">
<title>2&#45;&gt;5</title>
<path fill="none" stroke="black" d="M372.36,-288C387.46,-288 402.7,-288 416.7,-288"/>
<polygon fill="black" stroke="black" points="416.62,-291.5 426.62,-288 416.62,-284.5 416.62,-291.5"/>
</g>
<!-- 4 -->
<!-- name: &quot;string&quot;, typeName: &quot;&quot;, id: 4, branchId: 0, recurseId: &#45;1, attributes: 512, notes: &quot;&quot; -->
<g id="node4" class="node">
<title>4</title>
<ellipse fill="none" stroke="black" cx="649.08" cy="-342" rx="31.1" ry="18"/>
<text text-anchor="middle" x="649.08" y="-336.57" font-family="Times New Roman,serif" font-size="14.00">string</text>
</g>
<!-- 3&#45;&gt;4 -->
<g id="edge3" class="edge">
<title>3&#45;&gt;4</title>
<path fill="none" stroke="black" d="M527.01,-342C552.01,-342 582.29,-342 606.31,-342"/>
<polygon fill="black" stroke="black" points="606.04,-345.5 616.04,-342 606.04,-338.5 606.04,-345.5"/>
</g>
<!-- 6 -->
<!-- name: &quot;unsigned short&quot;, typeName: &quot;&quot;, id: 6, branchId: 0, recurseId: &#45;1, attributes: 512, notes: &quot;&quot; -->
<g id="node6" class="node">
<title>6</title>
<ellipse fill="none" stroke="black" cx="649.08" cy="-288" rx="65.04" ry="18"/>
<text text-anchor="middle" x="649.08" y="-282.57" font-family="Times New Roman,serif" font-size="14.00">unsigned short</text>
</g>
<!-- 5&#45;&gt;6 -->
<g id="edge5" class="edge">
<title>5&#45;&gt;6</title>
<path fill="none" stroke="black" d="M527.92,-288C541.75,-288 557.14,-288 572.16,-288"/>
<polygon fill="black" stroke="black" points="572.03,-291.5 582.03,-288 572.03,-284.5 572.03,-291.5"/>
</g>
<!-- 8 -->
<!-- name: &quot;Full Name&quot;, typeName: &quot;&quot;, id: 8, branchId: 0, recurseId: &#45;1, attributes: 0, notes: &quot;&quot; -->
<g id="node8" class="node">
<title>8</title>
<ellipse fill="none" stroke="black" cx="478.02" cy="-234" rx="48.57" ry="18"/>
<text text-anchor="middle" x="478.02" y="-228.57" font-family="Times New Roman,serif" font-size="14.00">Full Name</text>
</g>
<!-- 7&#45;&gt;8 -->
<g id="edge7" class="edge">
<title>7&#45;&gt;8</title>
<path fill="none" stroke="black" d="M328.41,-193.98C358.76,-202.15 396.89,-212.42 426.93,-220.51"/>
<polygon fill="black" stroke="black" points="425.98,-223.88 436.55,-223.1 427.8,-217.12 425.98,-223.88"/>
</g>
<!-- 10 -->
<!-- name: &quot;Molang Version&quot;, typeName: &quot;&quot;, id: 10, branchId: 0, recurseId: &#45;1, attributes: 0, notes: &quot;enumeration: MolangVersion&quot; -->
<g id="node10" class="node">
<title>10</title>
<ellipse fill="none" stroke="black" cx="478.02" cy="-180" rx="70.03" ry="18"/>
<text text-anchor="middle" x="478.02" y="-174.57" font-family="Times New Roman,serif" font-size="14.00">Molang Version</text>
</g>
<!-- 7&#45;&gt;10 -->
<g id="edge9" class="edge">
<title>7&#45;&gt;10</title>
<path fill="none" stroke="black" d="M356.34,-180C369.43,-180 383.01,-180 396.12,-180"/>
<polygon fill="black" stroke="black" points="395.99,-183.5 405.99,-180 395.99,-176.5 395.99,-183.5"/>
</g>
<!-- 9 -->
<!-- name: &quot;string&quot;, typeName: &quot;&quot;, id: 9, branchId: 0, recurseId: &#45;1, attributes: 512, notes: &quot;&quot; -->
<g id="node9" class="node">
<title>9</title>
<ellipse fill="none" stroke="black" cx="649.08" cy="-234" rx="31.1" ry="18"/>
<text text-anchor="middle" x="649.08" y="-228.57" font-family="Times New Roman,serif" font-size="14.00">string</text>
</g>
<!-- 8&#45;&gt;9 -->
<g id="edge8" class="edge">
<title>8&#45;&gt;9</title>
<path fill="none" stroke="black" d="M527.01,-234C552.01,-234 582.29,-234 606.31,-234"/>
<polygon fill="black" stroke="black" points="606.04,-237.5 616.04,-234 606.04,-230.5 606.04,-237.5"/>
</g>
<!-- 11 -->
<!-- name: &quot;byte&quot;, typeName: &quot;&quot;, id: 11, branchId: 0, recurseId: &#45;1, attributes: 512, notes: &quot;&quot; -->
<g id="node11" class="node">
<title>11</title>
<ellipse fill="none" stroke="black" cx="649.08" cy="-180" rx="27" ry="18"/>
<text text-anchor="middle" x="649.08" y="-174.57" font-family="Times New Roman,serif" font-size="14.00">byte</text>
</g>
<!-- 10&#45;&gt;11 -->
<g id="edge10" class="edge">
<title>10&#45;&gt;11</title>
<path fill="none" stroke="black" d="M548.27,-180C569.51,-180 592.09,-180 610.39,-180"/>
<polygon fill="black" stroke="black" points="610.22,-183.5 620.22,-180 610.22,-176.5 610.22,-183.5"/>
</g>
<!-- 13 -->
<!-- name: &quot;Item Tag&quot;, typeName: &quot;&quot;, id: 13, branchId: 0, recurseId: &#45;1, attributes: 0, notes: &quot;&quot; -->
<g id="node13" class="node">
<title>13</title>
<ellipse fill="none" stroke="black" cx="478.02" cy="-126" rx="44.08" ry="18"/>
<text text-anchor="middle" x="478.02" y="-120.58" font-family="Times New Roman,serif" font-size="14.00">Item Tag</text>
</g>
<!-- 12&#45;&gt;13 -->
<g id="edge12" class="edge">
<title>12&#45;&gt;13</title>
<path fill="none" stroke="black" d="M359.52,-126C380.67,-126 402.88,-126 422.23,-126"/>
<polygon fill="black" stroke="black" points="422.05,-129.5 432.05,-126 422.05,-122.5 422.05,-129.5"/>
</g>
<!-- 14 -->
<!-- name: &quot;string&quot;, typeName: &quot;&quot;, id: 14, branchId: 0, recurseId: &#45;1, attributes: 512, notes: &quot;&quot; -->
<g id="node14" class="node">
<title>14</title>
<ellipse fill="none" stroke="black" cx="649.08" cy="-126" rx="31.1" ry="18"/>
<text text-anchor="middle" x="649.08" y="-120.58" font-family="Times New Roman,serif" font-size="14.00">string</text>
</g>
<!-- 13&#45;&gt;14 -->
<g id="edge13" class="edge">
<title>13&#45;&gt;14</title>
<path fill="none" stroke="black" d="M522.55,-126C548.23,-126 580.56,-126 605.98,-126"/>
<polygon fill="black" stroke="black" points="605.97,-129.5 615.97,-126 605.97,-122.5 605.97,-129.5"/>
</g>
<!-- 16 -->
<!-- name: &quot;Full Name&quot;, typeName: &quot;&quot;, id: 16, branchId: 0, recurseId: &#45;1, attributes: 0, notes: &quot;&quot; -->
<g id="node16" class="node">
<title>16</title>
<ellipse fill="none" stroke="black" cx="478.02" cy="-72" rx="48.57" ry="18"/>
<text text-anchor="middle" x="478.02" y="-66.58" font-family="Times New Roman,serif" font-size="14.00">Full Name</text>
</g>
<!-- 15&#45;&gt;16 -->
<g id="edge15" class="edge">
<title>15&#45;&gt;16</title>
<path fill="none" stroke="black" d="M360.97,-72C380.02,-72 399.85,-72 417.61,-72"/>
<polygon fill="black" stroke="black" points="417.45,-75.5 427.45,-72 417.45,-68.5 417.45,-75.5"/>
</g>
<!-- 18 -->
<!-- name: &quot;Aux Value&quot;, typeName: &quot;&quot;, id: 18, branchId: 0, recurseId: &#45;1, attributes: 0, notes: &quot;&quot; -->
<g id="node18" class="node">
<title>18</title>
<ellipse fill="none" stroke="black" cx="478.02" cy="-18" rx="49.57" ry="18"/>
<text text-anchor="middle" x="478.02" y="-12.57" font-family="Times New Roman,serif" font-size="14.00">Aux Value</text>
</g>
<!-- 15&#45;&gt;18 -->
<g id="edge17" class="edge">
<title>15&#45;&gt;18</title>
<path fill="none" stroke="black" d="M329.46,-57.74C359.5,-49.65 396.89,-39.58 426.52,-31.6"/>
<polygon fill="black" stroke="black" points="427.25,-35.03 436,-29.05 425.43,-28.27 427.25,-35.03"/>
</g>
<!-- 17 -->
<!-- name: &quot;string&quot;, typeName: &quot;&quot;, id: 17, branchId: 0, recurseId: &#45;1, attributes: 512, notes: &quot;&quot; -->
<g id="node17" class="node">
<title>17</title>
<ellipse fill="none" stroke="black" cx="649.08" cy="-72" rx="31.1" ry="18"/>
<text text-anchor="middle" x="649.08" y="-66.58" font-family="Times New Roman,serif" font-size="14.00">string</text>
</g>
<!-- 16&#45;&gt;17 -->
<g id="edge16" class="edge">
<title>16&#45;&gt;17</title>
<path fill="none" stroke="black" d="M527.01,-72C552.01,-72 582.29,-72 606.31,-72"/>
<polygon fill="black" stroke="black" points="606.04,-75.5 616.04,-72 606.04,-68.5 606.04,-75.5"/>
</g>
<!-- 19 -->
<!-- name: &quot;unsigned short&quot;, typeName: &quot;&quot;, id: 19, branchId: 0, recurseId: &#45;1, attributes: 512, notes: &quot;&quot; -->
<g id="node19" class="node">
<title>19</title>
<ellipse fill="none" stroke="black" cx="649.08" cy="-18" rx="65.04" ry="18"/>
<text text-anchor="middle" x="649.08" y="-12.57" font-family="Times New Roman,serif" font-size="14.00">unsigned short</text>
</g>
<!-- 18&#45;&gt;19 -->
<g id="edge18" class="edge">
<title>18&#45;&gt;19</title>
<path fill="none" stroke="black" d="M527.92,-18C541.75,-18 557.14,-18 572.16,-18"/>
<polygon fill="black" stroke="black" points="572.03,-21.5 582.03,-18 572.03,-14.5 572.03,-21.5"/>
</g>
</g>
</svg>
