<?xml version="1.0" encoding="UTF-8" standalone="no"?>
<!DOCTYPE svg PUBLIC "-//W3C//DTD SVG 1.1//EN"
 "http://www.w3.org/Graphics/SVG/1.1/DTD/svg11.dtd">
<!-- Generated by graphviz version 2.46.1 (20210213.1702)
 -->
<!-- Title: BaseGameVersion Pages: 1 -->
<svg width="463pt" height="44pt"
 viewBox="0.00 0.00 463.47 44.00" xmlns="http://www.w3.org/2000/svg" xmlns:xlink="http://www.w3.org/1999/xlink">
<g id="graph0" class="graph" transform="scale(1 1) rotate(0) translate(4 40)">
<title>BaseGameVersion</title>
<polygon fill="white" stroke="transparent" points="-4,4 -4,-40 459.47,-40 459.47,4 -4,4"/>
<!-- 24 -->
<!-- name: &quot;BaseGameVersion&quot;, typeName: &quot;&quot;, id: 24, branchId: 0, recurseId: &#45;1, attributes: 0, notes: &quot;&quot; -->
<g id="node1" class="node">
<title>24</title>
<ellipse fill="none" stroke="black" cx="77.99" cy="-18" rx="77.99" ry="18"/>
<text text-anchor="middle" x="77.99" y="-14.3" font-family="Times New Roman,serif" font-size="14.00">BaseGameVersion</text>
</g>
<!-- 25 -->
<!-- name: &quot;Base Game Version&quot;, typeName: &quot;&quot;, id: 25, branchId: 0, recurseId: &#45;1, attributes: 0, notes: &quot;Format: 0.0.0 (i.e. Major.Minor.Patch)&quot; -->
<g id="node2" class="node">
<title>25</title>
<ellipse fill="none" stroke="black" cx="275.18" cy="-18" rx="83.39" ry="18"/>
<text text-anchor="middle" x="275.18" y="-14.3" font-family="Times New Roman,serif" font-size="14.00">Base Game Version</text>
</g>
<!-- 24&#45;&gt;25 -->
<g id="edge1" class="edge">
<title>24&#45;&gt;25</title>
<path fill="none" stroke="black" d="M156.14,-18C164.56,-18 173.2,-18 181.78,-18"/>
<polygon fill="black" stroke="black" points="181.82,-21.5 191.82,-18 181.82,-14.5 181.82,-21.5"/>
</g>
<!-- 26 -->
<!-- name: &quot;string&quot;, typeName: &quot;&quot;, id: 26, branchId: 0, recurseId: &#45;1, attributes: 512, notes: &quot;&quot; -->
<g id="node3" class="node">
<title>26</title>
<ellipse fill="none" stroke="black" cx="424.92" cy="-18" rx="30.59" ry="18"/>
<text text-anchor="middle" x="424.92" y="-14.3" font-family="Times New Roman,serif" font-size="14.00">string</text>
</g>
<!-- 25&#45;&gt;26 -->
<g id="edge2" class="edge">
<title>25&#45;&gt;26</title>
<path fill="none" stroke="black" d="M358.69,-18C367.51,-18 376.17,-18 384.15,-18"/>
<polygon fill="black" stroke="black" points="384.2,-21.5 394.2,-18 384.2,-14.5 384.2,-21.5"/>
</g>
</g>
</svg>
