<?xml version="1.0" encoding="UTF-8" standalone="no"?>
<!DOCTYPE svg PUBLIC "-//W3C//DTD SVG 1.1//EN"
 "http://www.w3.org/Graphics/SVG/1.1/DTD/svg11.dtd">
<!-- Generated by graphviz version 14.1.1 (20251213.1925)
 -->
<!-- Title: BellUsed Pages: 1 -->
<svg width="306pt" height="44pt"
 viewBox="0.00 0.00 306.00 44.00" xmlns="http://www.w3.org/2000/svg" xmlns:xlink="http://www.w3.org/1999/xlink">
<g id="graph0" class="graph" transform="scale(1 1) rotate(0) translate(4 40)">
<title>BellUsed</title>
<polygon fill="white" stroke="none" points="-4,4 -4,-40 302.22,-40 302.22,4 -4,4"/>
<!-- 0 -->
<!-- name: &quot;BellUsed&quot;, typeName: &quot;&quot;, id: 0, branchId: 0, recurseId: &#45;1, attributes: 0, notes: &quot;&quot; -->
<g id="node1" class="node">
<title>0</title>
<ellipse fill="none" stroke="black" cx="45.21" cy="-18" rx="45.21" ry="18"/>
<text xml:space="preserve" text-anchor="middle" x="45.21" y="-12.95" font-family="Times New Roman,serif" font-size="14.00">BellUsed</text>
</g>
<!-- 1 -->
<!-- name: &quot;Item Id&quot;, typeName: &quot;&quot;, id: 1, branchId: 0, recurseId: &#45;1, attributes: 0, notes: &quot;Id of the relevant item used in the interaction.&quot; -->
<g id="node2" class="node">
<title>1</title>
<ellipse fill="none" stroke="black" cx="164.98" cy="-18" rx="38.56" ry="18"/>
<text xml:space="preserve" text-anchor="middle" x="164.98" y="-12.95" font-family="Times New Roman,serif" font-size="14.00">Item Id</text>
</g>
<!-- 0&#45;&gt;1 -->
<g id="edge1" class="edge">
<title>0&#45;&gt;1</title>
<path fill="none" stroke="black" d="M90.73,-18C98.52,-18 106.67,-18 114.58,-18"/>
<polygon fill="black" stroke="black" points="114.42,-21.5 124.42,-18 114.42,-14.5 114.42,-21.5"/>
</g>
<!-- 2 -->
<!-- name: &quot;short&quot;, typeName: &quot;&quot;, id: 2, branchId: 0, recurseId: &#45;1, attributes: 512, notes: &quot;Id of the relevant item used in the interaction.&quot; -->
<g id="node3" class="node">
<title>2</title>
<ellipse fill="none" stroke="black" cx="268.88" cy="-18" rx="29.34" ry="18"/>
<text xml:space="preserve" text-anchor="middle" x="268.88" y="-12.95" font-family="Times New Roman,serif" font-size="14.00">short</text>
</g>
<!-- 1&#45;&gt;2 -->
<g id="edge2" class="edge">
<title>1&#45;&gt;2</title>
<path fill="none" stroke="black" d="M203.92,-18C211.66,-18 219.83,-18 227.65,-18"/>
<polygon fill="black" stroke="black" points="227.63,-21.5 237.63,-18 227.63,-14.5 227.63,-21.5"/>
</g>
</g>
</svg>
