<?xml version="1.0" encoding="UTF-8" standalone="no"?>
<!DOCTYPE svg PUBLIC "-//W3C//DTD SVG 1.1//EN"
 "http://www.w3.org/Graphics/SVG/1.1/DTD/svg11.dtd">
<!-- Generated by graphviz version 12.2.1 (20241206.2353)
 -->
<!-- Title: BiomeConsolidatedFeaturesData Pages: 1 -->
<svg width="988pt" height="98pt"
 viewBox="0.00 0.00 987.95 98.00" xmlns="http://www.w3.org/2000/svg" xmlns:xlink="http://www.w3.org/1999/xlink">
<g id="graph0" class="graph" transform="scale(1 1) rotate(0) translate(4 94)">
<title>BiomeConsolidatedFeaturesData</title>
<polygon fill="white" stroke="none" points="-4,4 -4,-94 983.95,-94 983.95,4 -4,4"/>
<!-- 88 -->
<!-- name: &quot;BiomeConsolidatedFeaturesData&quot;, typeName: &quot;&quot;, id: 88, branchId: 0, recurseId: &#45;1, attributes: 0, notes: &quot;&quot; -->
<g id="node1" class="node">
<title>88</title>
<ellipse fill="none" stroke="black" cx="133.24" cy="-45" rx="133.24" ry="18"/>
<text text-anchor="middle" x="133.24" y="-39.95" font-family="Times New Roman,serif" font-size="14.00">BiomeConsolidatedFeaturesData</text>
</g>
<!-- 89 -->
<!-- name: &quot;feature&quot;, typeName: &quot;&quot;, id: 89, branchId: 0, recurseId: &#45;1, attributes: 8, notes: &quot;&quot; -->
<g id="node2" class="node">
<title>89</title>
<ellipse fill="none" stroke="black" cx="338.99" cy="-45" rx="36.51" ry="18"/>
<text text-anchor="middle" x="338.99" y="-39.95" font-family="Times New Roman,serif" font-size="14.00">feature</text>
</g>
<!-- 88&#45;&gt;89 -->
<g id="edge1" class="edge">
<title>88&#45;&gt;89</title>
<path fill="none" stroke="black" d="M266.73,-45C275.11,-45 283.18,-45 290.7,-45"/>
<polygon fill="black" stroke="black" points="290.49,-48.5 300.49,-45 290.49,-41.5 290.49,-48.5"/>
</g>
<!-- 90 -->
<!-- name: &quot;List Size&quot;, typeName: &quot;&quot;, id: 90, branchId: 0, recurseId: &#45;1, attributes: 0, notes: &quot;&quot; -->
<g id="node3" class="node">
<title>90</title>
<ellipse fill="none" stroke="black" cx="640.96" cy="-72" rx="43.67" ry="18"/>
<text text-anchor="middle" x="640.96" y="-66.95" font-family="Times New Roman,serif" font-size="14.00">List Size</text>
</g>
<!-- 89&#45;&gt;90 -->
<g id="edge2" class="edge">
<title>89&#45;&gt;90</title>
<path fill="none" stroke="black" d="M375.28,-48.18C427.52,-52.88 525.78,-61.72 586.77,-67.21"/>
<polygon fill="black" stroke="black" points="586.3,-70.68 596.57,-68.09 586.92,-63.71 586.3,-70.68"/>
</g>
<!-- 92 -->
<!-- name: &quot;example element&quot;, typeName: &quot;&quot;, id: 92, branchId: 0, recurseId: &#45;1, attributes: 16, notes: &quot;&quot; -->
<g id="node5" class="node">
<title>92</title>
<ellipse fill="none" stroke="black" stroke-dasharray="1,5" cx="486.39" cy="-22" rx="74.89" ry="18"/>
<text text-anchor="middle" x="486.39" y="-16.95" font-family="Times New Roman,serif" font-size="14.00">example element</text>
</g>
<!-- 89&#45;&gt;92 -->
<g id="edge4" class="edge">
<title>89&#45;&gt;92</title>
<path fill="none" stroke="black" d="M374.08,-39.61C385.49,-37.8 398.69,-35.71 411.92,-33.62"/>
<polygon fill="black" stroke="black" points="412.18,-37.12 421.51,-32.1 411.09,-30.21 412.18,-37.12"/>
</g>
<!-- 91 -->
<!-- name: &quot;unsigned varint&quot;, typeName: &quot;&quot;, id: 91, branchId: 0, recurseId: &#45;1, attributes: 512, notes: &quot;&quot; -->
<g id="node4" class="node">
<title>91</title>
<ellipse fill="none" stroke="black" cx="850.3" cy="-72" rx="68.24" ry="18"/>
<text text-anchor="middle" x="850.3" y="-66.95" font-family="Times New Roman,serif" font-size="14.00">unsigned varint</text>
</g>
<!-- 90&#45;&gt;91 -->
<g id="edge3" class="edge">
<title>90&#45;&gt;91</title>
<path fill="none" stroke="black" d="M684.92,-72C709.63,-72 741.45,-72 770.5,-72"/>
<polygon fill="black" stroke="black" points="770.39,-75.5 780.39,-72 770.39,-68.5 770.39,-75.5"/>
</g>
<!-- 93 -->
<!-- name: &quot;features&quot;, typeName: &quot;BiomeConsolidatedFeatureData&quot;, id: 93, branchId: 0, recurseId: &#45;1, attributes: 256, notes: &quot;&quot; -->
<g id="node6" class="node">
<title>93</title>
<ellipse fill="none" stroke="black" cx="640.96" cy="-18" rx="40.09" ry="18"/>
<text text-anchor="middle" x="640.96" y="-12.95" font-family="Times New Roman,serif" font-size="14.00">features</text>
</g>
<!-- 92&#45;&gt;93 -->
<g id="edge5" class="edge">
<title>92&#45;&gt;93</title>
<path fill="none" stroke="black" d="M561,-20.07C570.64,-19.82 580.34,-19.56 589.48,-19.32"/>
<polygon fill="black" stroke="black" points="589.3,-22.83 599.2,-19.07 589.11,-15.83 589.3,-22.83"/>
</g>
<!-- 141 -->
<!-- name: &quot;BiomeConsolidatedFeatureData&quot;, typeName: &quot;&quot;, id: 141, branchId: 0, recurseId: &#45;1, attributes: 512, notes: &quot;&quot; -->
<g id="node7" class="node">
<title>141</title>
<ellipse fill="none" stroke="black" cx="850.3" cy="-18" rx="129.66" ry="18"/>
<text text-anchor="middle" x="850.3" y="-12.95" font-family="Times New Roman,serif" font-size="14.00">BiomeConsolidatedFeatureData</text>
</g>
<!-- 93&#45;&gt;141 -->
<g id="edge6" class="edge">
<title>93&#45;&gt;141</title>
<path fill="none" stroke="black" d="M681.45,-18C689.9,-18 699.29,-18 709.19,-18"/>
<polygon fill="black" stroke="black" points="709.04,-21.5 719.04,-18 709.04,-14.5 709.04,-21.5"/>
</g>
</g>
</svg>
