<?xml version="1.0" encoding="UTF-8" standalone="no"?>
<!DOCTYPE svg PUBLIC "-//W3C//DTD SVG 1.1//EN"
 "http://www.w3.org/Graphics/SVG/1.1/DTD/svg11.dtd">
<!-- Generated by graphviz version 14.1.1 (20251213.1925)
 -->
<!-- Title: BiomeSurfaceMaterialAdjustmentData Pages: 1 -->
<svg width="999pt" height="98pt"
 viewBox="0.00 0.00 999.00 98.00" xmlns="http://www.w3.org/2000/svg" xmlns:xlink="http://www.w3.org/1999/xlink">
<g id="graph0" class="graph" transform="scale(1 1) rotate(0) translate(4 94)">
<title>BiomeSurfaceMaterialAdjustmentData</title>
<polygon fill="white" stroke="none" points="-4,4 -4,-94 995.21,-94 995.21,4 -4,4"/>
<!-- 156 -->
<!-- name: &quot;BiomeSurfaceMaterialAdjustmentData&quot;, typeName: &quot;&quot;, id: 156, branchId: 0, recurseId: &#45;1, attributes: 0, notes: &quot;&quot; -->
<g id="node1" class="node">
<title>156</title>
<ellipse fill="none" stroke="black" cx="156.78" cy="-45" rx="156.78" ry="18"/>
<text xml:space="preserve" text-anchor="middle" x="156.78" y="-39.95" font-family="Times New Roman,serif" font-size="14.00">BiomeSurfaceMaterialAdjustmentData</text>
</g>
<!-- 157 -->
<!-- name: &quot;adjustment&quot;, typeName: &quot;&quot;, id: 157, branchId: 0, recurseId: &#45;1, attributes: 8, notes: &quot;&quot; -->
<g id="node2" class="node">
<title>157</title>
<ellipse fill="none" stroke="black" cx="401.43" cy="-45" rx="51.86" ry="18"/>
<text xml:space="preserve" text-anchor="middle" x="401.43" y="-39.95" font-family="Times New Roman,serif" font-size="14.00">adjustment</text>
</g>
<!-- 156&#45;&gt;157 -->
<g id="edge1" class="edge">
<title>156&#45;&gt;157</title>
<path fill="none" stroke="black" d="M313.86,-45C322.17,-45 330.24,-45 337.9,-45"/>
<polygon fill="black" stroke="black" points="337.67,-48.5 347.67,-45 337.67,-41.5 337.67,-48.5"/>
</g>
<!-- 158 -->
<!-- name: &quot;List Size&quot;, typeName: &quot;&quot;, id: 158, branchId: 0, recurseId: &#45;1, attributes: 0, notes: &quot;&quot; -->
<g id="node3" class="node">
<title>158</title>
<ellipse fill="none" stroke="black" cx="730.53" cy="-72" rx="43.67" ry="18"/>
<text xml:space="preserve" text-anchor="middle" x="730.53" y="-66.95" font-family="Times New Roman,serif" font-size="14.00">List Size</text>
</g>
<!-- 157&#45;&gt;158 -->
<g id="edge2" class="edge">
<title>157&#45;&gt;158</title>
<path fill="none" stroke="black" d="M452.47,-49.13C512.82,-54.11 613.88,-62.45 675.83,-67.57"/>
<polygon fill="black" stroke="black" points="675.54,-71.06 685.8,-68.39 676.12,-64.08 675.54,-71.06"/>
</g>
<!-- 160 -->
<!-- name: &quot;example element&quot;, typeName: &quot;&quot;, id: 160, branchId: 0, recurseId: &#45;1, attributes: 16, notes: &quot;&quot; -->
<g id="node5" class="node">
<title>160</title>
<ellipse fill="none" stroke="black" stroke-dasharray="1,5" cx="564.19" cy="-22" rx="74.89" ry="18"/>
<text xml:space="preserve" text-anchor="middle" x="564.19" y="-16.95" font-family="Times New Roman,serif" font-size="14.00">example element</text>
</g>
<!-- 157&#45;&gt;160 -->
<g id="edge4" class="edge">
<title>157&#45;&gt;160</title>
<path fill="none" stroke="black" d="M449.79,-38.22C461.69,-36.52 474.74,-34.65 487.63,-32.81"/>
<polygon fill="black" stroke="black" points="487.99,-36.3 497.39,-31.41 486.99,-29.37 487.99,-36.3"/>
</g>
<!-- 159 -->
<!-- name: &quot;unsigned varint&quot;, typeName: &quot;&quot;, id: 159, branchId: 0, recurseId: &#45;1, attributes: 512, notes: &quot;&quot; -->
<g id="node4" class="node">
<title>159</title>
<ellipse fill="none" stroke="black" cx="906.59" cy="-72" rx="68.24" ry="18"/>
<text xml:space="preserve" text-anchor="middle" x="906.59" y="-66.95" font-family="Times New Roman,serif" font-size="14.00">unsigned varint</text>
</g>
<!-- 158&#45;&gt;159 -->
<g id="edge3" class="edge">
<title>158&#45;&gt;159</title>
<path fill="none" stroke="black" d="M774.56,-72C790.32,-72 808.7,-72 826.62,-72"/>
<polygon fill="black" stroke="black" points="826.48,-75.5 836.48,-72 826.48,-68.5 826.48,-75.5"/>
</g>
<!-- 161 -->
<!-- name: &quot;adjustments&quot;, typeName: &quot;BiomeElementData&quot;, id: 161, branchId: 0, recurseId: &#45;1, attributes: 256, notes: &quot;&quot; -->
<g id="node6" class="node">
<title>161</title>
<ellipse fill="none" stroke="black" cx="730.53" cy="-18" rx="55.45" ry="18"/>
<text xml:space="preserve" text-anchor="middle" x="730.53" y="-12.95" font-family="Times New Roman,serif" font-size="14.00">adjustments</text>
</g>
<!-- 160&#45;&gt;161 -->
<g id="edge5" class="edge">
<title>160&#45;&gt;161</title>
<path fill="none" stroke="black" d="M639.19,-20.2C647.41,-20 655.74,-19.8 663.85,-19.6"/>
<polygon fill="black" stroke="black" points="663.71,-23.1 673.62,-19.36 663.54,-16.11 663.71,-23.1"/>
</g>
<!-- 192 -->
<!-- name: &quot;BiomeElementData&quot;, typeName: &quot;&quot;, id: 192, branchId: 0, recurseId: &#45;1, attributes: 512, notes: &quot;&quot; -->
<g id="node7" class="node">
<title>192</title>
<ellipse fill="none" stroke="black" cx="906.59" cy="-18" rx="84.62" ry="18"/>
<text xml:space="preserve" text-anchor="middle" x="906.59" y="-12.95" font-family="Times New Roman,serif" font-size="14.00">BiomeElementData</text>
</g>
<!-- 161&#45;&gt;192 -->
<g id="edge6" class="edge">
<title>161&#45;&gt;192</title>
<path fill="none" stroke="black" d="M786.13,-18C793.87,-18 802.02,-18 810.26,-18"/>
<polygon fill="black" stroke="black" points="810.03,-21.5 820.03,-18 810.03,-14.5 810.03,-21.5"/>
</g>
</g>
</svg>
