<?xml version="1.0" encoding="UTF-8" standalone="no"?>
<!DOCTYPE svg PUBLIC "-//W3C//DTD SVG 1.1//EN"
 "http://www.w3.org/Graphics/SVG/1.1/DTD/svg11.dtd">
<!-- Generated by graphviz version 14.1.5 (20260411.2331)
 -->
<!-- Title: BiomeMountainParamsData Pages: 1 -->
<svg width="575pt" height="314pt"
 viewBox="0.00 0.00 575.00 314.00" xmlns="http://www.w3.org/2000/svg" xmlns:xlink="http://www.w3.org/1999/xlink">
<g id="graph0" class="graph" transform="scale(1 1) rotate(0) translate(4 310)">
<title>BiomeMountainParamsData</title>
<polygon fill="white" stroke="none" points="-4,4 -4,-310 571.43,-310 571.43,4 -4,4"/>
<!-- 0 -->
<!-- name: &quot;BiomeMountainParamsData&quot;, typeName: &quot;&quot;, id: 0, branchId: 0, recurseId: &#45;1, attributes: 0, notes: &quot;&quot; -->
<g id="node1" class="node">
<title>0</title>
<ellipse fill="none" stroke="black" cx="117.37" cy="-153" rx="117.37" ry="18"/>
<text xml:space="preserve" text-anchor="middle" x="117.37" y="-147.95" font-family="Times New Roman,serif" font-size="14.00">BiomeMountainParamsData</text>
</g>
<!-- 1 -->
<!-- name: &quot;steep block&quot;, typeName: &quot;&quot;, id: 1, branchId: 0, recurseId: &#45;1, attributes: 0, notes: &quot;&quot; -->
<g id="node2" class="node">
<title>1</title>
<ellipse fill="none" stroke="black" cx="344.62" cy="-288" rx="52.89" ry="18"/>
<text xml:space="preserve" text-anchor="middle" x="344.62" y="-282.95" font-family="Times New Roman,serif" font-size="14.00">steep block</text>
</g>
<!-- 0&#45;&gt;1 -->
<g id="edge1" class="edge">
<title>0&#45;&gt;1</title>
<path fill="none" stroke="black" d="M139.9,-171.04C168.39,-194.23 220.86,-234.66 270.75,-261 278.22,-264.94 286.39,-268.57 294.47,-271.8"/>
<polygon fill="black" stroke="black" points="292.98,-274.98 303.57,-275.28 295.47,-268.44 292.98,-274.98"/>
</g>
<!-- 3 -->
<!-- name: &quot;north slopes&quot;, typeName: &quot;&quot;, id: 3, branchId: 0, recurseId: &#45;1, attributes: 0, notes: &quot;&quot; -->
<g id="node4" class="node">
<title>3</title>
<ellipse fill="none" stroke="black" cx="344.62" cy="-234" rx="55.96" ry="18"/>
<text xml:space="preserve" text-anchor="middle" x="344.62" y="-228.95" font-family="Times New Roman,serif" font-size="14.00">north slopes</text>
</g>
<!-- 0&#45;&gt;3 -->
<g id="edge3" class="edge">
<title>0&#45;&gt;3</title>
<path fill="none" stroke="black" d="M165.32,-169.88C203.5,-183.61 257.17,-202.91 295.63,-216.74"/>
<polygon fill="black" stroke="black" points="294.03,-219.89 304.63,-219.98 296.4,-213.3 294.03,-219.89"/>
</g>
<!-- 5 -->
<!-- name: &quot;south slopes&quot;, typeName: &quot;&quot;, id: 5, branchId: 0, recurseId: &#45;1, attributes: 0, notes: &quot;&quot; -->
<g id="node6" class="node">
<title>5</title>
<ellipse fill="none" stroke="black" cx="344.62" cy="-180" rx="56.47" ry="18"/>
<text xml:space="preserve" text-anchor="middle" x="344.62" y="-174.95" font-family="Times New Roman,serif" font-size="14.00">south slopes</text>
</g>
<!-- 0&#45;&gt;5 -->
<g id="edge5" class="edge">
<title>0&#45;&gt;5</title>
<path fill="none" stroke="black" d="M211.29,-164.14C234.4,-166.91 258.66,-169.82 280,-172.37"/>
<polygon fill="black" stroke="black" points="279.35,-175.82 289.7,-173.54 280.18,-168.87 279.35,-175.82"/>
</g>
<!-- 7 -->
<!-- name: &quot;west slopes&quot;, typeName: &quot;&quot;, id: 7, branchId: 0, recurseId: &#45;1, attributes: 0, notes: &quot;&quot; -->
<g id="node8" class="node">
<title>7</title>
<ellipse fill="none" stroke="black" cx="344.62" cy="-126" rx="53.4" ry="18"/>
<text xml:space="preserve" text-anchor="middle" x="344.62" y="-120.95" font-family="Times New Roman,serif" font-size="14.00">west slopes</text>
</g>
<!-- 0&#45;&gt;7 -->
<g id="edge7" class="edge">
<title>0&#45;&gt;7</title>
<path fill="none" stroke="black" d="M211.29,-141.86C235.34,-138.98 260.62,-135.95 282.57,-133.32"/>
<polygon fill="black" stroke="black" points="282.7,-136.83 292.21,-132.16 281.87,-129.88 282.7,-136.83"/>
</g>
<!-- 9 -->
<!-- name: &quot;east slopes&quot;, typeName: &quot;&quot;, id: 9, branchId: 0, recurseId: &#45;1, attributes: 0, notes: &quot;&quot; -->
<g id="node10" class="node">
<title>9</title>
<ellipse fill="none" stroke="black" cx="344.62" cy="-72" rx="50.84" ry="18"/>
<text xml:space="preserve" text-anchor="middle" x="344.62" y="-66.95" font-family="Times New Roman,serif" font-size="14.00">east slopes</text>
</g>
<!-- 0&#45;&gt;9 -->
<g id="edge9" class="edge">
<title>0&#45;&gt;9</title>
<path fill="none" stroke="black" d="M165.32,-136.12C204.09,-122.18 258.83,-102.49 297.4,-88.62"/>
<polygon fill="black" stroke="black" points="298.18,-92.06 306.4,-85.38 295.81,-85.47 298.18,-92.06"/>
</g>
<!-- 11 -->
<!-- name: &quot;top slide enabled&quot;, typeName: &quot;&quot;, id: 11, branchId: 0, recurseId: &#45;1, attributes: 0, notes: &quot;&quot; -->
<g id="node12" class="node">
<title>11</title>
<ellipse fill="none" stroke="black" cx="344.62" cy="-18" rx="73.87" ry="18"/>
<text xml:space="preserve" text-anchor="middle" x="344.62" y="-12.95" font-family="Times New Roman,serif" font-size="14.00">top slide enabled</text>
</g>
<!-- 0&#45;&gt;11 -->
<g id="edge11" class="edge">
<title>0&#45;&gt;11</title>
<path fill="none" stroke="black" d="M139.9,-134.96C168.39,-111.77 220.86,-71.34 270.75,-45 276.41,-42.01 282.47,-39.21 288.59,-36.62"/>
<polygon fill="black" stroke="black" points="289.51,-40.02 297.48,-33.03 286.9,-33.53 289.51,-40.02"/>
</g>
<!-- 2 -->
<!-- name: &quot;unsigned int&quot;, typeName: &quot;&quot;, id: 2, branchId: 0, recurseId: &#45;1, attributes: 512, notes: &quot;&quot; -->
<g id="node3" class="node">
<title>2</title>
<ellipse fill="none" stroke="black" cx="510.96" cy="-288" rx="56.47" ry="18"/>
<text xml:space="preserve" text-anchor="middle" x="510.96" y="-282.95" font-family="Times New Roman,serif" font-size="14.00">unsigned int</text>
</g>
<!-- 1&#45;&gt;2 -->
<g id="edge2" class="edge">
<title>1&#45;&gt;2</title>
<path fill="none" stroke="black" d="M397.62,-288C411.93,-288 427.66,-288 442.7,-288"/>
<polygon fill="black" stroke="black" points="442.52,-291.5 452.52,-288 442.52,-284.5 442.52,-291.5"/>
</g>
<!-- 4 -->
<!-- name: &quot;bool&quot;, typeName: &quot;&quot;, id: 4, branchId: 0, recurseId: &#45;1, attributes: 512, notes: &quot;&quot; -->
<g id="node5" class="node">
<title>4</title>
<ellipse fill="none" stroke="black" cx="510.96" cy="-234" rx="27.3" ry="18"/>
<text xml:space="preserve" text-anchor="middle" x="510.96" y="-228.95" font-family="Times New Roman,serif" font-size="14.00">bool</text>
</g>
<!-- 3&#45;&gt;4 -->
<g id="edge4" class="edge">
<title>3&#45;&gt;4</title>
<path fill="none" stroke="black" d="M400.8,-234C424.14,-234 450.74,-234 471.84,-234"/>
<polygon fill="black" stroke="black" points="471.74,-237.5 481.74,-234 471.74,-230.5 471.74,-237.5"/>
</g>
<!-- 6 -->
<!-- name: &quot;bool&quot;, typeName: &quot;&quot;, id: 6, branchId: 0, recurseId: &#45;1, attributes: 512, notes: &quot;&quot; -->
<g id="node7" class="node">
<title>6</title>
<ellipse fill="none" stroke="black" cx="510.96" cy="-180" rx="27.3" ry="18"/>
<text xml:space="preserve" text-anchor="middle" x="510.96" y="-174.95" font-family="Times New Roman,serif" font-size="14.00">bool</text>
</g>
<!-- 5&#45;&gt;6 -->
<g id="edge6" class="edge">
<title>5&#45;&gt;6</title>
<path fill="none" stroke="black" d="M401.26,-180C424.56,-180 451.06,-180 472.06,-180"/>
<polygon fill="black" stroke="black" points="471.89,-183.5 481.89,-180 471.89,-176.5 471.89,-183.5"/>
</g>
<!-- 8 -->
<!-- name: &quot;bool&quot;, typeName: &quot;&quot;, id: 8, branchId: 0, recurseId: &#45;1, attributes: 512, notes: &quot;&quot; -->
<g id="node9" class="node">
<title>8</title>
<ellipse fill="none" stroke="black" cx="510.96" cy="-126" rx="27.3" ry="18"/>
<text xml:space="preserve" text-anchor="middle" x="510.96" y="-120.95" font-family="Times New Roman,serif" font-size="14.00">bool</text>
</g>
<!-- 7&#45;&gt;8 -->
<g id="edge8" class="edge">
<title>7&#45;&gt;8</title>
<path fill="none" stroke="black" d="M398.07,-126C422.01,-126 449.83,-126 471.75,-126"/>
<polygon fill="black" stroke="black" points="471.74,-129.5 481.74,-126 471.74,-122.5 471.74,-129.5"/>
</g>
<!-- 10 -->
<!-- name: &quot;bool&quot;, typeName: &quot;&quot;, id: 10, branchId: 0, recurseId: &#45;1, attributes: 512, notes: &quot;&quot; -->
<g id="node11" class="node">
<title>10</title>
<ellipse fill="none" stroke="black" cx="510.96" cy="-72" rx="27.3" ry="18"/>
<text xml:space="preserve" text-anchor="middle" x="510.96" y="-66.95" font-family="Times New Roman,serif" font-size="14.00">bool</text>
</g>
<!-- 9&#45;&gt;10 -->
<g id="edge10" class="edge">
<title>9&#45;&gt;10</title>
<path fill="none" stroke="black" d="M395.82,-72C420.42,-72 449.54,-72 472.22,-72"/>
<polygon fill="black" stroke="black" points="471.91,-75.5 481.91,-72 471.91,-68.5 471.91,-75.5"/>
</g>
<!-- 12 -->
<!-- name: &quot;bool&quot;, typeName: &quot;&quot;, id: 12, branchId: 0, recurseId: &#45;1, attributes: 512, notes: &quot;&quot; -->
<g id="node13" class="node">
<title>12</title>
<ellipse fill="none" stroke="black" cx="510.96" cy="-18" rx="27.3" ry="18"/>
<text xml:space="preserve" text-anchor="middle" x="510.96" y="-12.95" font-family="Times New Roman,serif" font-size="14.00">bool</text>
</g>
<!-- 11&#45;&gt;12 -->
<g id="edge12" class="edge">
<title>11&#45;&gt;12</title>
<path fill="none" stroke="black" d="M418.66,-18C436.97,-18 455.89,-18 471.72,-18"/>
<polygon fill="black" stroke="black" points="471.66,-21.5 481.66,-18 471.66,-14.5 471.66,-21.5"/>
</g>
</g>
</svg>
