<?xml version="1.0" encoding="UTF-8" standalone="no"?>
<!DOCTYPE svg PUBLIC "-//W3C//DTD SVG 1.1//EN"
 "http://www.w3.org/Graphics/SVG/1.1/DTD/svg11.dtd">
<!-- Generated by graphviz version 14.1.1 (20251213.1925)
 -->
<!-- Title: BiomeClimateData Pages: 1 -->
<svg width="506pt" height="206pt"
 viewBox="0.00 0.00 506.00 206.00" xmlns="http://www.w3.org/2000/svg" xmlns:xlink="http://www.w3.org/1999/xlink">
<g id="graph0" class="graph" transform="scale(1 1) rotate(0) translate(4 202)">
<title>BiomeClimateData</title>
<polygon fill="white" stroke="none" points="-4,4 -4,-202 501.82,-202 501.82,4 -4,4"/>
<!-- 56 -->
<!-- name: &quot;BiomeClimateData&quot;, typeName: &quot;&quot;, id: 56, branchId: 0, recurseId: &#45;1, attributes: 0, notes: &quot;&quot; -->
<g id="node1" class="node">
<title>56</title>
<ellipse fill="none" stroke="black" cx="83.08" cy="-99" rx="83.08" ry="18"/>
<text xml:space="preserve" text-anchor="middle" x="83.08" y="-93.95" font-family="Times New Roman,serif" font-size="14.00">BiomeClimateData</text>
</g>
<!-- 57 -->
<!-- name: &quot;temperature&quot;, typeName: &quot;&quot;, id: 57, branchId: 0, recurseId: &#45;1, attributes: 0, notes: &quot;&quot; -->
<g id="node2" class="node">
<title>57</title>
<ellipse fill="none" stroke="black" cx="304.19" cy="-180" rx="55.45" ry="18"/>
<text xml:space="preserve" text-anchor="middle" x="304.19" y="-174.95" font-family="Times New Roman,serif" font-size="14.00">temperature</text>
</g>
<!-- 56&#45;&gt;57 -->
<g id="edge1" class="edge">
<title>56&#45;&gt;57</title>
<path fill="none" stroke="black" d="M117.06,-115.89C140.4,-127.39 172.68,-142.4 202.17,-153 216.46,-158.14 232.2,-162.8 246.92,-166.75"/>
<polygon fill="black" stroke="black" points="245.91,-170.1 256.47,-169.25 247.68,-163.33 245.91,-170.1"/>
</g>
<!-- 59 -->
<!-- name: &quot;downfall&quot;, typeName: &quot;&quot;, id: 59, branchId: 0, recurseId: &#45;1, attributes: 0, notes: &quot;&quot; -->
<g id="node4" class="node">
<title>59</title>
<ellipse fill="none" stroke="black" cx="304.19" cy="-126" rx="43.67" ry="18"/>
<text xml:space="preserve" text-anchor="middle" x="304.19" y="-120.95" font-family="Times New Roman,serif" font-size="14.00">downfall</text>
</g>
<!-- 56&#45;&gt;59 -->
<g id="edge3" class="edge">
<title>56&#45;&gt;59</title>
<path fill="none" stroke="black" d="M156.13,-107.88C186.93,-111.67 222.24,-116.02 250.53,-119.51"/>
<polygon fill="black" stroke="black" points="249.94,-122.97 260.3,-120.71 250.8,-116.02 249.94,-122.97"/>
</g>
<!-- 61 -->
<!-- name: &quot;snow accumulation min&quot;, typeName: &quot;&quot;, id: 61, branchId: 0, recurseId: &#45;1, attributes: 0, notes: &quot;&quot; -->
<g id="node6" class="node">
<title>61</title>
<ellipse fill="none" stroke="black" cx="304.19" cy="-72" rx="100.48" ry="18"/>
<text xml:space="preserve" text-anchor="middle" x="304.19" y="-66.95" font-family="Times New Roman,serif" font-size="14.00">snow accumulation min</text>
</g>
<!-- 56&#45;&gt;61 -->
<g id="edge5" class="edge">
<title>56&#45;&gt;61</title>
<path fill="none" stroke="black" d="M156.13,-90.12C173.09,-88.03 191.42,-85.77 209.19,-83.58"/>
<polygon fill="black" stroke="black" points="209.46,-87.08 218.96,-82.38 208.61,-80.13 209.46,-87.08"/>
</g>
<!-- 63 -->
<!-- name: &quot;snow accumulation max&quot;, typeName: &quot;&quot;, id: 63, branchId: 0, recurseId: &#45;1, attributes: 0, notes: &quot;&quot; -->
<g id="node8" class="node">
<title>63</title>
<ellipse fill="none" stroke="black" cx="304.19" cy="-18" rx="102.02" ry="18"/>
<text xml:space="preserve" text-anchor="middle" x="304.19" y="-12.95" font-family="Times New Roman,serif" font-size="14.00">snow accumulation max</text>
</g>
<!-- 56&#45;&gt;63 -->
<g id="edge7" class="edge">
<title>56&#45;&gt;63</title>
<path fill="none" stroke="black" d="M117.06,-82.11C140.4,-70.61 172.68,-55.6 202.17,-45 211.35,-41.7 221.14,-38.59 230.86,-35.75"/>
<polygon fill="black" stroke="black" points="231.66,-39.16 240.32,-33.06 229.75,-32.42 231.66,-39.16"/>
</g>
<!-- 58 -->
<!-- name: &quot;float&quot;, typeName: &quot;&quot;, id: 58, branchId: 0, recurseId: &#45;1, attributes: 512, notes: &quot;&quot; -->
<g id="node3" class="node">
<title>58</title>
<ellipse fill="none" stroke="black" cx="470.02" cy="-180" rx="27.81" ry="18"/>
<text xml:space="preserve" text-anchor="middle" x="470.02" y="-174.95" font-family="Times New Roman,serif" font-size="14.00">float</text>
</g>
<!-- 57&#45;&gt;58 -->
<g id="edge2" class="edge">
<title>57&#45;&gt;58</title>
<path fill="none" stroke="black" d="M359.74,-180C382.88,-180 409.31,-180 430.38,-180"/>
<polygon fill="black" stroke="black" points="430.28,-183.5 440.28,-180 430.28,-176.5 430.28,-183.5"/>
</g>
<!-- 60 -->
<!-- name: &quot;float&quot;, typeName: &quot;&quot;, id: 60, branchId: 0, recurseId: &#45;1, attributes: 512, notes: &quot;&quot; -->
<g id="node5" class="node">
<title>60</title>
<ellipse fill="none" stroke="black" cx="470.02" cy="-126" rx="27.81" ry="18"/>
<text xml:space="preserve" text-anchor="middle" x="470.02" y="-120.95" font-family="Times New Roman,serif" font-size="14.00">float</text>
</g>
<!-- 59&#45;&gt;60 -->
<g id="edge4" class="edge">
<title>59&#45;&gt;60</title>
<path fill="none" stroke="black" d="M348.23,-126C373.81,-126 405.98,-126 430.69,-126"/>
<polygon fill="black" stroke="black" points="430.64,-129.5 440.64,-126 430.64,-122.5 430.64,-129.5"/>
</g>
<!-- 62 -->
<!-- name: &quot;float&quot;, typeName: &quot;&quot;, id: 62, branchId: 0, recurseId: &#45;1, attributes: 512, notes: &quot;&quot; -->
<g id="node7" class="node">
<title>62</title>
<ellipse fill="none" stroke="black" cx="470.02" cy="-72" rx="27.81" ry="18"/>
<text xml:space="preserve" text-anchor="middle" x="470.02" y="-66.95" font-family="Times New Roman,serif" font-size="14.00">float</text>
</g>
<!-- 61&#45;&gt;62 -->
<g id="edge6" class="edge">
<title>61&#45;&gt;62</title>
<path fill="none" stroke="black" d="M404.74,-72C413.72,-72 422.42,-72 430.35,-72"/>
<polygon fill="black" stroke="black" points="430.23,-75.5 440.23,-72 430.23,-68.5 430.23,-75.5"/>
</g>
<!-- 64 -->
<!-- name: &quot;float&quot;, typeName: &quot;&quot;, id: 64, branchId: 0, recurseId: &#45;1, attributes: 512, notes: &quot;&quot; -->
<g id="node9" class="node">
<title>64</title>
<ellipse fill="none" stroke="black" cx="470.02" cy="-18" rx="27.81" ry="18"/>
<text xml:space="preserve" text-anchor="middle" x="470.02" y="-12.95" font-family="Times New Roman,serif" font-size="14.00">float</text>
</g>
<!-- 63&#45;&gt;64 -->
<g id="edge8" class="edge">
<title>63&#45;&gt;64</title>
<path fill="none" stroke="black" d="M406.61,-18C415.02,-18 423.13,-18 430.57,-18"/>
<polygon fill="black" stroke="black" points="430.5,-21.5 440.5,-18 430.5,-14.5 430.5,-21.5"/>
</g>
</g>
</svg>
