<?xml version="1.0" encoding="UTF-8" standalone="no"?>
<!DOCTYPE svg PUBLIC "-//W3C//DTD SVG 1.1//EN"
 "http://www.w3.org/Graphics/SVG/1.1/DTD/svg11.dtd">
<!-- Generated by graphviz version 11.0.0 (20240428.1522)
 -->
<!-- Title: BiomeSurfaceMaterialAdjustmentData Pages: 1 -->
<svg width="971pt" height="98pt"
 viewBox="0.00 0.00 971.02 98.00" xmlns="http://www.w3.org/2000/svg" xmlns:xlink="http://www.w3.org/1999/xlink">
<g id="graph0" class="graph" transform="scale(1 1) rotate(0) translate(4 94)">
<title>BiomeSurfaceMaterialAdjustmentData</title>
<polygon fill="white" stroke="none" points="-4,4 -4,-94 967.02,-94 967.02,4 -4,4"/>
<!-- 172 -->
<!-- name: &quot;BiomeSurfaceMaterialAdjustmentData&quot;, typeName: &quot;&quot;, id: 172, branchId: 0, recurseId: &#45;1, attributes: 0, notes: &quot;&quot; -->
<g id="node1" class="node">
<title>172</title>
<ellipse fill="none" stroke="black" cx="151.86" cy="-45" rx="151.86" ry="18"/>
<text text-anchor="middle" x="151.86" y="-39.58" font-family="Times New Roman,serif" font-size="14.00">BiomeSurfaceMaterialAdjustmentData</text>
</g>
<!-- 173 -->
<!-- name: &quot;adjustment&quot;, typeName: &quot;&quot;, id: 173, branchId: 0, recurseId: &#45;1, attributes: 8, notes: &quot;&quot; -->
<g id="node2" class="node">
<title>173</title>
<ellipse fill="none" stroke="black" cx="390.29" cy="-45" rx="50.56" ry="18"/>
<text text-anchor="middle" x="390.29" y="-39.58" font-family="Times New Roman,serif" font-size="14.00">adjustment</text>
</g>
<!-- 172&#45;&gt;173 -->
<g id="edge1" class="edge">
<title>172&#45;&gt;173</title>
<path fill="none" stroke="black" d="M303.93,-45C312.35,-45 320.52,-45 328.26,-45"/>
<polygon fill="black" stroke="black" points="328.14,-48.5 338.14,-45 328.14,-41.5 328.14,-48.5"/>
</g>
<!-- 174 -->
<!-- name: &quot;List Size&quot;, typeName: &quot;&quot;, id: 174, branchId: 0, recurseId: &#45;1, attributes: 0, notes: &quot;&quot; -->
<g id="node3" class="node">
<title>174</title>
<ellipse fill="none" stroke="black" cx="710.45" cy="-72" rx="42.58" ry="18"/>
<text text-anchor="middle" x="710.45" y="-66.58" font-family="Times New Roman,serif" font-size="14.00">List Size</text>
</g>
<!-- 173&#45;&gt;174 -->
<g id="edge2" class="edge">
<title>173&#45;&gt;174</title>
<path fill="none" stroke="black" d="M439.96,-49.13C498.67,-54.11 596.97,-62.45 657.23,-67.57"/>
<polygon fill="black" stroke="black" points="656.61,-71.03 666.87,-68.39 657.21,-64.05 656.61,-71.03"/>
</g>
<!-- 176 -->
<!-- name: &quot;example element&quot;, typeName: &quot;&quot;, id: 176, branchId: 0, recurseId: &#45;1, attributes: 16, notes: &quot;&quot; -->
<g id="node5" class="node">
<title>176</title>
<ellipse fill="none" stroke="black" stroke-dasharray="1,5" cx="548.37" cy="-22" rx="71.52" ry="18"/>
<text text-anchor="middle" x="548.37" y="-16.57" font-family="Times New Roman,serif" font-size="14.00">example element</text>
</g>
<!-- 173&#45;&gt;176 -->
<g id="edge4" class="edge">
<title>173&#45;&gt;176</title>
<path fill="none" stroke="black" d="M437.7,-38.16C449.37,-36.44 462.19,-34.55 474.81,-32.69"/>
<polygon fill="black" stroke="black" points="474.94,-36.21 484.32,-31.29 473.92,-29.29 474.94,-36.21"/>
</g>
<!-- 175 -->
<!-- name: &quot;unsigned varint&quot;, typeName: &quot;&quot;, id: 175, branchId: 0, recurseId: &#45;1, attributes: 512, notes: &quot;&quot; -->
<g id="node4" class="node">
<title>175</title>
<ellipse fill="none" stroke="black" cx="882.01" cy="-72" rx="66.53" ry="18"/>
<text text-anchor="middle" x="882.01" y="-66.58" font-family="Times New Roman,serif" font-size="14.00">unsigned varint</text>
</g>
<!-- 174&#45;&gt;175 -->
<g id="edge3" class="edge">
<title>174&#45;&gt;175</title>
<path fill="none" stroke="black" d="M753.37,-72C768.65,-72 786.46,-72 803.84,-72"/>
<polygon fill="black" stroke="black" points="803.65,-75.5 813.65,-72 803.65,-68.5 803.65,-75.5"/>
</g>
<!-- 177 -->
<!-- name: &quot;adjustments&quot;, typeName: &quot;BiomeElementData&quot;, id: 177, branchId: 0, recurseId: &#45;1, attributes: 256, notes: &quot;&quot; -->
<g id="node6" class="node">
<title>177</title>
<ellipse fill="none" stroke="black" cx="710.45" cy="-18" rx="54.56" ry="18"/>
<text text-anchor="middle" x="710.45" y="-12.57" font-family="Times New Roman,serif" font-size="14.00">adjustments</text>
</g>
<!-- 176&#45;&gt;177 -->
<g id="edge5" class="edge">
<title>176&#45;&gt;177</title>
<path fill="none" stroke="black" d="M620.05,-20.23C628.25,-20.03 636.58,-19.82 644.69,-19.62"/>
<polygon fill="black" stroke="black" points="644.56,-23.12 654.47,-19.37 644.39,-16.12 644.56,-23.12"/>
</g>
<!-- 208 -->
<!-- name: &quot;BiomeElementData&quot;, typeName: &quot;&quot;, id: 208, branchId: 0, recurseId: &#45;1, attributes: 512, notes: &quot;&quot; -->
<g id="node7" class="node">
<title>208</title>
<ellipse fill="none" stroke="black" cx="882.01" cy="-18" rx="81" ry="18"/>
<text text-anchor="middle" x="882.01" y="-12.57" font-family="Times New Roman,serif" font-size="14.00">BiomeElementData</text>
</g>
<!-- 177&#45;&gt;208 -->
<g id="edge6" class="edge">
<title>177&#45;&gt;208</title>
<path fill="none" stroke="black" d="M765.1,-18C772.91,-18 781.12,-18 789.42,-18"/>
<polygon fill="black" stroke="black" points="789.25,-21.5 799.25,-18 789.25,-14.5 789.25,-21.5"/>
</g>
</g>
</svg>
