<?xml version="1.0" encoding="UTF-8" standalone="no"?>
<!DOCTYPE svg PUBLIC "-//W3C//DTD SVG 1.1//EN"
 "http://www.w3.org/Graphics/SVG/1.1/DTD/svg11.dtd">
<!-- Generated by graphviz version 14.1.5 (20260411.2331)
 -->
<!-- Title: BiomeSurfaceMaterialAdjustmentData Pages: 1 -->
<svg width="1211pt" height="714pt"
 viewBox="0.00 0.00 1211.00 714.00" xmlns="http://www.w3.org/2000/svg" xmlns:xlink="http://www.w3.org/1999/xlink">
<g id="graph0" class="graph" transform="scale(1 1) rotate(0) translate(4 710)">
<title>BiomeSurfaceMaterialAdjustmentData</title>
<polygon fill="white" stroke="none" points="-4,4 -4,-710 1206.59,-710 1206.59,4 -4,4"/>
<!-- 0 -->
<!-- name: &quot;BiomeSurfaceMaterialAdjustmentData&quot;, typeName: &quot;&quot;, id: 0, branchId: 0, recurseId: &#45;1, attributes: 0, notes: &quot;&quot; -->
<g id="node1" class="node">
<title>0</title>
<ellipse fill="none" stroke="black" cx="156.78" cy="-531" rx="156.78" ry="18"/>
<text xml:space="preserve" text-anchor="middle" x="156.78" y="-525.95" font-family="Times New Roman,serif" font-size="14.00">BiomeSurfaceMaterialAdjustmentData</text>
</g>
<!-- 1 -->
<!-- name: &quot;adjustments&quot;, typeName: &quot;&quot;, id: 1, branchId: 0, recurseId: &#45;1, attributes: 0, notes: &quot;&quot; -->
<g id="node2" class="node">
<title>1</title>
<ellipse fill="none" stroke="black" cx="405.01" cy="-531" rx="55.45" ry="18"/>
<text xml:space="preserve" text-anchor="middle" x="405.01" y="-525.95" font-family="Times New Roman,serif" font-size="14.00">adjustments</text>
</g>
<!-- 0&#45;&gt;1 -->
<g id="edge1" class="edge">
<title>0&#45;&gt;1</title>
<path fill="none" stroke="black" d="M313.72,-531C322.03,-531 330.12,-531 337.82,-531"/>
<polygon fill="black" stroke="black" points="337.69,-534.5 347.69,-531 337.69,-527.5 337.69,-534.5"/>
</g>
<!-- 2 -->
<!-- name: &quot;List Size&quot;, typeName: &quot;&quot;, id: 2, branchId: 0, recurseId: &#45;1, attributes: 0, notes: &quot;&quot; -->
<g id="node3" class="node">
<title>2</title>
<ellipse fill="none" stroke="black" cx="571.35" cy="-623" rx="43.67" ry="18"/>
<text xml:space="preserve" text-anchor="middle" x="571.35" y="-617.95" font-family="Times New Roman,serif" font-size="14.00">List Size</text>
</g>
<!-- 1&#45;&gt;2 -->
<g id="edge2" class="edge">
<title>1&#45;&gt;2</title>
<path fill="none" stroke="black" d="M433.89,-546.61C461.7,-562.17 504.53,-586.15 534.77,-603.08"/>
<polygon fill="black" stroke="black" points="532.75,-605.96 543.19,-607.79 536.17,-599.85 532.75,-605.96"/>
</g>
<!-- 4 -->
<!-- name: &quot;example element&quot;, typeName: &quot;&quot;, id: 4, branchId: 0, recurseId: &#45;1, attributes: 16, notes: &quot;&quot; -->
<g id="node5" class="node">
<title>4</title>
<ellipse fill="none" stroke="black" stroke-dasharray="1,5" cx="571.35" cy="-504" rx="74.89" ry="18"/>
<text xml:space="preserve" text-anchor="middle" x="571.35" y="-498.95" font-family="Times New Roman,serif" font-size="14.00">example element</text>
</g>
<!-- 1&#45;&gt;4 -->
<g id="edge4" class="edge">
<title>1&#45;&gt;4</title>
<path fill="none" stroke="black" d="M454.88,-522.97C468.3,-520.77 483.14,-518.33 497.6,-515.95"/>
<polygon fill="black" stroke="black" points="497.75,-519.48 507.05,-514.4 496.62,-512.57 497.75,-519.48"/>
</g>
<!-- 3 -->
<!-- name: &quot;unsigned varint&quot;, typeName: &quot;&quot;, id: 3, branchId: 0, recurseId: &#45;1, attributes: 0, notes: &quot;&quot; -->
<g id="node4" class="node">
<title>3</title>
<ellipse fill="none" stroke="black" cx="761.75" cy="-688" rx="68.24" ry="18"/>
<text xml:space="preserve" text-anchor="middle" x="761.75" y="-682.95" font-family="Times New Roman,serif" font-size="14.00">unsigned varint</text>
</g>
<!-- 2&#45;&gt;3 -->
<g id="edge3" class="edge">
<title>2&#45;&gt;3</title>
<path fill="none" stroke="black" d="M605.6,-634.47C633.98,-644.26 675.29,-658.51 708.15,-669.85"/>
<polygon fill="black" stroke="black" points="706.91,-673.13 717.5,-673.08 709.19,-666.51 706.91,-673.13"/>
</g>
<!-- 5 -->
<!-- name: &quot;noise freq scale&quot;, typeName: &quot;&quot;, id: 5, branchId: 0, recurseId: &#45;1, attributes: 0, notes: &quot;&quot; -->
<g id="node6" class="node">
<title>5</title>
<ellipse fill="none" stroke="black" cx="956.75" cy="-664" rx="68.75" ry="18"/>
<text xml:space="preserve" text-anchor="middle" x="956.75" y="-658.95" font-family="Times New Roman,serif" font-size="14.00">noise freq scale</text>
</g>
<!-- 4&#45;&gt;5 -->
<g id="edge5" class="edge">
<title>4&#45;&gt;5</title>
<path fill="none" stroke="black" d="M584.99,-521.82C603.41,-546.33 640.06,-589.92 682.25,-612 742.74,-643.67 819.75,-656.22 876.64,-661.11"/>
<polygon fill="black" stroke="black" points="876.34,-664.6 886.59,-661.9 876.89,-657.62 876.34,-664.6"/>
</g>
<!-- 7 -->
<!-- name: &quot;noise lower bound&quot;, typeName: &quot;&quot;, id: 7, branchId: 0, recurseId: &#45;1, attributes: 0, notes: &quot;&quot; -->
<g id="node8" class="node">
<title>7</title>
<ellipse fill="none" stroke="black" cx="956.75" cy="-608" rx="79.5" ry="18"/>
<text xml:space="preserve" text-anchor="middle" x="956.75" y="-602.95" font-family="Times New Roman,serif" font-size="14.00">noise lower bound</text>
</g>
<!-- 4&#45;&gt;7 -->
<g id="edge7" class="edge">
<title>4&#45;&gt;7</title>
<path fill="none" stroke="black" d="M589.9,-521.86C610.15,-541.21 645.42,-571.16 682.25,-585 741.48,-607.27 812.87,-612.62 867.85,-612.62"/>
<polygon fill="black" stroke="black" points="867.83,-616.12 877.81,-612.55 867.79,-609.12 867.83,-616.12"/>
</g>
<!-- 9 -->
<!-- name: &quot;noise upper bound&quot;, typeName: &quot;&quot;, id: 9, branchId: 0, recurseId: &#45;1, attributes: 0, notes: &quot;&quot; -->
<g id="node10" class="node">
<title>9</title>
<ellipse fill="none" stroke="black" cx="761.75" cy="-558" rx="79.5" ry="18"/>
<text xml:space="preserve" text-anchor="middle" x="761.75" y="-552.95" font-family="Times New Roman,serif" font-size="14.00">noise upper bound</text>
</g>
<!-- 4&#45;&gt;9 -->
<g id="edge9" class="edge">
<title>4&#45;&gt;9</title>
<path fill="none" stroke="black" d="M620.87,-517.91C645.1,-524.85 674.65,-533.32 700.34,-540.68"/>
<polygon fill="black" stroke="black" points="699.05,-543.96 709.63,-543.35 700.98,-537.23 699.05,-543.96"/>
</g>
<!-- 11 -->
<!-- name: &quot;height min type&quot;, typeName: &quot;&quot;, id: 11, branchId: 0, recurseId: &#45;1, attributes: 0, notes: &quot;&quot; -->
<g id="node12" class="node">
<title>11</title>
<ellipse fill="none" stroke="black" cx="761.75" cy="-504" rx="69.78" ry="18"/>
<text xml:space="preserve" text-anchor="middle" x="761.75" y="-498.95" font-family="Times New Roman,serif" font-size="14.00">height min type</text>
</g>
<!-- 4&#45;&gt;11 -->
<g id="edge11" class="edge">
<title>4&#45;&gt;11</title>
<path fill="none" stroke="black" d="M646.54,-504C657.55,-504 668.93,-504 680.06,-504"/>
<polygon fill="black" stroke="black" points="680.03,-507.5 690.03,-504 680.03,-500.5 680.03,-507.5"/>
</g>
<!-- 13 -->
<!-- name: &quot;height min&quot;, typeName: &quot;&quot;, id: 13, branchId: 0, recurseId: &#45;1, attributes: 0, notes: &quot;&quot; -->
<g id="node14" class="node">
<title>13</title>
<ellipse fill="none" stroke="black" cx="761.75" cy="-450" rx="51.35" ry="18"/>
<text xml:space="preserve" text-anchor="middle" x="761.75" y="-444.95" font-family="Times New Roman,serif" font-size="14.00">height min</text>
</g>
<!-- 4&#45;&gt;13 -->
<g id="edge13" class="edge">
<title>4&#45;&gt;13</title>
<path fill="none" stroke="black" d="M620.87,-490.09C648.18,-482.27 682.25,-472.5 709.93,-464.57"/>
<polygon fill="black" stroke="black" points="710.86,-467.94 719.51,-461.82 708.93,-461.21 710.86,-467.94"/>
</g>
<!-- 15 -->
<!-- name: &quot;height max type&quot;, typeName: &quot;&quot;, id: 15, branchId: 0, recurseId: &#45;1, attributes: 0, notes: &quot;&quot; -->
<g id="node16" class="node">
<title>15</title>
<ellipse fill="none" stroke="black" cx="761.75" cy="-396" rx="71.31" ry="18"/>
<text xml:space="preserve" text-anchor="middle" x="761.75" y="-390.95" font-family="Times New Roman,serif" font-size="14.00">height max type</text>
</g>
<!-- 4&#45;&gt;15 -->
<g id="edge15" class="edge">
<title>4&#45;&gt;15</title>
<path fill="none" stroke="black" d="M592.17,-486.47C613.27,-468.54 648.25,-440.84 682.25,-423 688.77,-419.58 695.82,-416.44 702.93,-413.62"/>
<polygon fill="black" stroke="black" points="704.15,-416.9 712.28,-410.11 701.69,-410.35 704.15,-416.9"/>
</g>
<!-- 17 -->
<!-- name: &quot;height max&quot;, typeName: &quot;&quot;, id: 17, branchId: 0, recurseId: &#45;1, attributes: 0, notes: &quot;&quot; -->
<g id="node18" class="node">
<title>17</title>
<ellipse fill="none" stroke="black" cx="761.75" cy="-342" rx="52.89" ry="18"/>
<text xml:space="preserve" text-anchor="middle" x="761.75" y="-336.95" font-family="Times New Roman,serif" font-size="14.00">height max</text>
</g>
<!-- 4&#45;&gt;17 -->
<g id="edge17" class="edge">
<title>4&#45;&gt;17</title>
<path fill="none" stroke="black" d="M582.45,-485.99C599.43,-457.25 636.4,-401 682.25,-369 689.73,-363.78 698.3,-359.49 706.98,-355.99"/>
<polygon fill="black" stroke="black" points="707.95,-359.37 716.12,-352.63 705.53,-352.8 707.95,-359.37"/>
</g>
<!-- 19 -->
<!-- name: &quot;adjusted materials&quot;, typeName: &quot;&quot;, id: 19, branchId: 0, recurseId: &#45;1, attributes: 0, notes: &quot;&quot; -->
<g id="node20" class="node">
<title>19</title>
<ellipse fill="none" stroke="black" cx="761.75" cy="-180" rx="78.48" ry="18"/>
<text xml:space="preserve" text-anchor="middle" x="761.75" y="-174.95" font-family="Times New Roman,serif" font-size="14.00">adjusted materials</text>
</g>
<!-- 4&#45;&gt;19 -->
<g id="edge19" class="edge">
<title>4&#45;&gt;19</title>
<path fill="none" stroke="black" d="M582.75,-486.12C613.94,-432.47 706.89,-272.62 744.59,-207.78"/>
<polygon fill="black" stroke="black" points="747.39,-209.94 749.39,-199.53 741.34,-206.42 747.39,-209.94"/>
</g>
<!-- 6 -->
<!-- name: &quot;float&quot;, typeName: &quot;&quot;, id: 6, branchId: 0, recurseId: &#45;1, attributes: 512, notes: &quot;&quot; -->
<g id="node7" class="node">
<title>6</title>
<ellipse fill="none" stroke="black" cx="1137.42" cy="-666" rx="27.81" ry="18"/>
<text xml:space="preserve" text-anchor="middle" x="1137.42" y="-660.95" font-family="Times New Roman,serif" font-size="14.00">float</text>
</g>
<!-- 5&#45;&gt;6 -->
<g id="edge6" class="edge">
<title>5&#45;&gt;6</title>
<path fill="none" stroke="black" d="M1025.81,-664.76C1050.32,-665.04 1077.11,-665.34 1098.18,-665.57"/>
<polygon fill="black" stroke="black" points="1098.01,-669.07 1108.05,-665.68 1098.09,-662.07 1098.01,-669.07"/>
</g>
<!-- 8 -->
<!-- name: &quot;float&quot;, typeName: &quot;&quot;, id: 8, branchId: 0, recurseId: &#45;1, attributes: 512, notes: &quot;&quot; -->
<g id="node9" class="node">
<title>8</title>
<ellipse fill="none" stroke="black" cx="1137.42" cy="-612" rx="27.81" ry="18"/>
<text xml:space="preserve" text-anchor="middle" x="1137.42" y="-606.95" font-family="Times New Roman,serif" font-size="14.00">float</text>
</g>
<!-- 7&#45;&gt;8 -->
<g id="edge8" class="edge">
<title>7&#45;&gt;8</title>
<path fill="none" stroke="black" d="M1036.38,-609.76C1057.63,-610.24 1079.7,-610.73 1097.68,-611.13"/>
<polygon fill="black" stroke="black" points="1097.55,-614.63 1107.63,-611.36 1097.71,-607.63 1097.55,-614.63"/>
</g>
<!-- 10 -->
<!-- name: &quot;float&quot;, typeName: &quot;&quot;, id: 10, branchId: 0, recurseId: &#45;1, attributes: 512, notes: &quot;&quot; -->
<g id="node11" class="node">
<title>10</title>
<ellipse fill="none" stroke="black" cx="1137.42" cy="-558" rx="27.81" ry="18"/>
<text xml:space="preserve" text-anchor="middle" x="1137.42" y="-552.95" font-family="Times New Roman,serif" font-size="14.00">float</text>
</g>
<!-- 9&#45;&gt;10 -->
<g id="edge10" class="edge">
<title>9&#45;&gt;10</title>
<path fill="none" stroke="black" d="M841.54,-558C920.23,-558 1037.88,-558 1098.02,-558"/>
<polygon fill="black" stroke="black" points="1097.74,-561.5 1107.74,-558 1097.74,-554.5 1097.74,-561.5"/>
</g>
<!-- 12 -->
<!-- name: &quot;varint&quot;, typeName: &quot;&quot;, id: 12, branchId: 0, recurseId: &#45;1, attributes: 512, notes: &quot;&quot; -->
<g id="node13" class="node">
<title>12</title>
<ellipse fill="none" stroke="black" cx="1137.42" cy="-504" rx="32.41" ry="18"/>
<text xml:space="preserve" text-anchor="middle" x="1137.42" y="-498.95" font-family="Times New Roman,serif" font-size="14.00">varint</text>
</g>
<!-- 11&#45;&gt;12 -->
<g id="edge12" class="edge">
<title>11&#45;&gt;12</title>
<path fill="none" stroke="black" d="M831.72,-504C908.35,-504 1029.69,-504 1093.68,-504"/>
<polygon fill="black" stroke="black" points="1093.42,-507.5 1103.42,-504 1093.42,-500.5 1093.42,-507.5"/>
</g>
<!-- 14 -->
<!-- name: &quot;unsigned short&quot;, typeName: &quot;&quot;, id: 14, branchId: 0, recurseId: &#45;1, attributes: 512, notes: &quot;&quot; -->
<g id="node15" class="node">
<title>14</title>
<ellipse fill="none" stroke="black" cx="1137.42" cy="-450" rx="65.17" ry="18"/>
<text xml:space="preserve" text-anchor="middle" x="1137.42" y="-444.95" font-family="Times New Roman,serif" font-size="14.00">unsigned short</text>
</g>
<!-- 13&#45;&gt;14 -->
<g id="edge14" class="edge">
<title>13&#45;&gt;14</title>
<path fill="none" stroke="black" d="M813.53,-450C877.18,-450 986.82,-450 1060.46,-450"/>
<polygon fill="black" stroke="black" points="1060.45,-453.5 1070.45,-450 1060.45,-446.5 1060.45,-453.5"/>
</g>
<!-- 16 -->
<!-- name: &quot;varint&quot;, typeName: &quot;&quot;, id: 16, branchId: 0, recurseId: &#45;1, attributes: 512, notes: &quot;&quot; -->
<g id="node17" class="node">
<title>16</title>
<ellipse fill="none" stroke="black" cx="1137.42" cy="-396" rx="32.41" ry="18"/>
<text xml:space="preserve" text-anchor="middle" x="1137.42" y="-390.95" font-family="Times New Roman,serif" font-size="14.00">varint</text>
</g>
<!-- 15&#45;&gt;16 -->
<g id="edge16" class="edge">
<title>15&#45;&gt;16</title>
<path fill="none" stroke="black" d="M833.47,-396C910.16,-396 1030.09,-396 1093.61,-396"/>
<polygon fill="black" stroke="black" points="1093.27,-399.5 1103.27,-396 1093.27,-392.5 1093.27,-399.5"/>
</g>
<!-- 18 -->
<!-- name: &quot;unsigned short&quot;, typeName: &quot;&quot;, id: 18, branchId: 0, recurseId: &#45;1, attributes: 512, notes: &quot;&quot; -->
<g id="node19" class="node">
<title>18</title>
<ellipse fill="none" stroke="black" cx="1137.42" cy="-342" rx="65.17" ry="18"/>
<text xml:space="preserve" text-anchor="middle" x="1137.42" y="-336.95" font-family="Times New Roman,serif" font-size="14.00">unsigned short</text>
</g>
<!-- 17&#45;&gt;18 -->
<g id="edge18" class="edge">
<title>17&#45;&gt;18</title>
<path fill="none" stroke="black" d="M815.1,-342C878.97,-342 987.45,-342 1060.49,-342"/>
<polygon fill="black" stroke="black" points="1060.38,-345.5 1070.38,-342 1060.38,-338.5 1060.38,-345.5"/>
</g>
<!-- 20 -->
<!-- name: &quot;top block&quot;, typeName: &quot;&quot;, id: 20, branchId: 0, recurseId: &#45;1, attributes: 0, notes: &quot;&quot; -->
<g id="node21" class="node">
<title>20</title>
<ellipse fill="none" stroke="black" cx="956.75" cy="-288" rx="45.72" ry="18"/>
<text xml:space="preserve" text-anchor="middle" x="956.75" y="-282.95" font-family="Times New Roman,serif" font-size="14.00">top block</text>
</g>
<!-- 19&#45;&gt;20 -->
<g id="edge20" class="edge">
<title>19&#45;&gt;20</title>
<path fill="none" stroke="black" d="M783.53,-197.47C805.62,-215.35 842.14,-243.01 877.25,-261 886.96,-265.98 897.79,-270.37 908.23,-274.09"/>
<polygon fill="black" stroke="black" points="906.88,-277.33 917.48,-277.23 909.14,-270.7 906.88,-277.33"/>
</g>
<!-- 22 -->
<!-- name: &quot;mid block&quot;, typeName: &quot;&quot;, id: 22, branchId: 0, recurseId: &#45;1, attributes: 0, notes: &quot;&quot; -->
<g id="node23" class="node">
<title>22</title>
<ellipse fill="none" stroke="black" cx="956.75" cy="-234" rx="48.79" ry="18"/>
<text xml:space="preserve" text-anchor="middle" x="956.75" y="-228.95" font-family="Times New Roman,serif" font-size="14.00">mid block</text>
</g>
<!-- 19&#45;&gt;22 -->
<g id="edge22" class="edge">
<title>19&#45;&gt;22</title>
<path fill="none" stroke="black" d="M812.95,-194.05C841.65,-202.07 877.5,-212.11 906.1,-220.11"/>
<polygon fill="black" stroke="black" points="905.04,-223.45 915.61,-222.77 906.93,-216.7 905.04,-223.45"/>
</g>
<!-- 24 -->
<!-- name: &quot;sea floor block&quot;, typeName: &quot;&quot;, id: 24, branchId: 0, recurseId: &#45;1, attributes: 0, notes: &quot;&quot; -->
<g id="node25" class="node">
<title>24</title>
<ellipse fill="none" stroke="black" cx="956.75" cy="-180" rx="66.19" ry="18"/>
<text xml:space="preserve" text-anchor="middle" x="956.75" y="-174.95" font-family="Times New Roman,serif" font-size="14.00">sea floor block</text>
</g>
<!-- 19&#45;&gt;24 -->
<g id="edge24" class="edge">
<title>19&#45;&gt;24</title>
<path fill="none" stroke="black" d="M840.69,-180C853.27,-180 866.28,-180 878.83,-180"/>
<polygon fill="black" stroke="black" points="878.69,-183.5 888.69,-180 878.69,-176.5 878.69,-183.5"/>
</g>
<!-- 26 -->
<!-- name: &quot;foundation block&quot;, typeName: &quot;&quot;, id: 26, branchId: 0, recurseId: &#45;1, attributes: 0, notes: &quot;&quot; -->
<g id="node27" class="node">
<title>26</title>
<ellipse fill="none" stroke="black" cx="956.75" cy="-126" rx="73.87" ry="18"/>
<text xml:space="preserve" text-anchor="middle" x="956.75" y="-120.95" font-family="Times New Roman,serif" font-size="14.00">foundation block</text>
</g>
<!-- 19&#45;&gt;26 -->
<g id="edge26" class="edge">
<title>19&#45;&gt;26</title>
<path fill="none" stroke="black" d="M812.95,-165.95C838.38,-158.84 869.42,-150.15 896.06,-142.7"/>
<polygon fill="black" stroke="black" points="896.65,-146.17 905.34,-140.1 894.77,-139.43 896.65,-146.17"/>
</g>
<!-- 28 -->
<!-- name: &quot;sea block&quot;, typeName: &quot;&quot;, id: 28, branchId: 0, recurseId: &#45;1, attributes: 0, notes: &quot;&quot; -->
<g id="node29" class="node">
<title>28</title>
<ellipse fill="none" stroke="black" cx="956.75" cy="-72" rx="45.72" ry="18"/>
<text xml:space="preserve" text-anchor="middle" x="956.75" y="-66.95" font-family="Times New Roman,serif" font-size="14.00">sea block</text>
</g>
<!-- 19&#45;&gt;28 -->
<g id="edge28" class="edge">
<title>19&#45;&gt;28</title>
<path fill="none" stroke="black" d="M783.53,-162.53C805.62,-144.65 842.14,-116.99 877.25,-99 886.96,-94.02 897.79,-89.63 908.23,-85.91"/>
<polygon fill="black" stroke="black" points="909.14,-89.3 917.48,-82.77 906.88,-82.67 909.14,-89.3"/>
</g>
<!-- 30 -->
<!-- name: &quot;sea floor depth&quot;, typeName: &quot;&quot;, id: 30, branchId: 0, recurseId: &#45;1, attributes: 0, notes: &quot;&quot; -->
<g id="node31" class="node">
<title>30</title>
<ellipse fill="none" stroke="black" cx="956.75" cy="-18" rx="66.19" ry="18"/>
<text xml:space="preserve" text-anchor="middle" x="956.75" y="-12.95" font-family="Times New Roman,serif" font-size="14.00">sea floor depth</text>
</g>
<!-- 19&#45;&gt;30 -->
<g id="edge30" class="edge">
<title>19&#45;&gt;30</title>
<path fill="none" stroke="black" d="M773.45,-162.01C791.41,-133.29 830.3,-77.07 877.25,-45 883.11,-41 889.61,-37.54 896.3,-34.56"/>
<polygon fill="black" stroke="black" points="897.55,-37.83 905.5,-30.83 894.92,-31.34 897.55,-37.83"/>
</g>
<!-- 21 -->
<!-- name: &quot;unsigned int&quot;, typeName: &quot;&quot;, id: 21, branchId: 0, recurseId: &#45;1, attributes: 512, notes: &quot;&quot; -->
<g id="node22" class="node">
<title>21</title>
<ellipse fill="none" stroke="black" cx="1137.42" cy="-288" rx="56.47" ry="18"/>
<text xml:space="preserve" text-anchor="middle" x="1137.42" y="-282.95" font-family="Times New Roman,serif" font-size="14.00">unsigned int</text>
</g>
<!-- 20&#45;&gt;21 -->
<g id="edge21" class="edge">
<title>20&#45;&gt;21</title>
<path fill="none" stroke="black" d="M1002.84,-288C1022.91,-288 1046.97,-288 1069.1,-288"/>
<polygon fill="black" stroke="black" points="1068.96,-291.5 1078.96,-288 1068.96,-284.5 1068.96,-291.5"/>
</g>
<!-- 23 -->
<!-- name: &quot;unsigned int&quot;, typeName: &quot;&quot;, id: 23, branchId: 0, recurseId: &#45;1, attributes: 512, notes: &quot;&quot; -->
<g id="node24" class="node">
<title>23</title>
<ellipse fill="none" stroke="black" cx="1137.42" cy="-234" rx="56.47" ry="18"/>
<text xml:space="preserve" text-anchor="middle" x="1137.42" y="-228.95" font-family="Times New Roman,serif" font-size="14.00">unsigned int</text>
</g>
<!-- 22&#45;&gt;23 -->
<g id="edge23" class="edge">
<title>22&#45;&gt;23</title>
<path fill="none" stroke="black" d="M1005.63,-234C1025.08,-234 1047.9,-234 1068.98,-234"/>
<polygon fill="black" stroke="black" points="1068.97,-237.5 1078.97,-234 1068.97,-230.5 1068.97,-237.5"/>
</g>
<!-- 25 -->
<!-- name: &quot;unsigned int&quot;, typeName: &quot;&quot;, id: 25, branchId: 0, recurseId: &#45;1, attributes: 512, notes: &quot;&quot; -->
<g id="node26" class="node">
<title>25</title>
<ellipse fill="none" stroke="black" cx="1137.42" cy="-180" rx="56.47" ry="18"/>
<text xml:space="preserve" text-anchor="middle" x="1137.42" y="-174.95" font-family="Times New Roman,serif" font-size="14.00">unsigned int</text>
</g>
<!-- 24&#45;&gt;25 -->
<g id="edge25" class="edge">
<title>24&#45;&gt;25</title>
<path fill="none" stroke="black" d="M1023.27,-180C1038.27,-180 1054.23,-180 1069.3,-180"/>
<polygon fill="black" stroke="black" points="1069.1,-183.5 1079.1,-180 1069.1,-176.5 1069.1,-183.5"/>
</g>
<!-- 27 -->
<!-- name: &quot;unsigned int&quot;, typeName: &quot;&quot;, id: 27, branchId: 0, recurseId: &#45;1, attributes: 512, notes: &quot;&quot; -->
<g id="node28" class="node">
<title>27</title>
<ellipse fill="none" stroke="black" cx="1137.42" cy="-126" rx="56.47" ry="18"/>
<text xml:space="preserve" text-anchor="middle" x="1137.42" y="-120.95" font-family="Times New Roman,serif" font-size="14.00">unsigned int</text>
</g>
<!-- 26&#45;&gt;27 -->
<g id="edge27" class="edge">
<title>26&#45;&gt;27</title>
<path fill="none" stroke="black" d="M1030.94,-126C1043.63,-126 1056.77,-126 1069.29,-126"/>
<polygon fill="black" stroke="black" points="1069.07,-129.5 1079.07,-126 1069.07,-122.5 1069.07,-129.5"/>
</g>
<!-- 29 -->
<!-- name: &quot;unsigned int&quot;, typeName: &quot;&quot;, id: 29, branchId: 0, recurseId: &#45;1, attributes: 512, notes: &quot;&quot; -->
<g id="node30" class="node">
<title>29</title>
<ellipse fill="none" stroke="black" cx="1137.42" cy="-72" rx="56.47" ry="18"/>
<text xml:space="preserve" text-anchor="middle" x="1137.42" y="-66.95" font-family="Times New Roman,serif" font-size="14.00">unsigned int</text>
</g>
<!-- 28&#45;&gt;29 -->
<g id="edge29" class="edge">
<title>28&#45;&gt;29</title>
<path fill="none" stroke="black" d="M1002.84,-72C1022.91,-72 1046.97,-72 1069.1,-72"/>
<polygon fill="black" stroke="black" points="1068.96,-75.5 1078.96,-72 1068.96,-68.5 1068.96,-75.5"/>
</g>
<!-- 31 -->
<!-- name: &quot;int&quot;, typeName: &quot;&quot;, id: 31, branchId: 0, recurseId: &#45;1, attributes: 512, notes: &quot;&quot; -->
<g id="node32" class="node">
<title>31</title>
<ellipse fill="none" stroke="black" cx="1137.42" cy="-18" rx="27" ry="18"/>
<text xml:space="preserve" text-anchor="middle" x="1137.42" y="-12.95" font-family="Times New Roman,serif" font-size="14.00">int</text>
</g>
<!-- 30&#45;&gt;31 -->
<g id="edge31" class="edge">
<title>30&#45;&gt;31</title>
<path fill="none" stroke="black" d="M1023.27,-18C1048.65,-18 1076.79,-18 1098.66,-18"/>
<polygon fill="black" stroke="black" points="1098.6,-21.5 1108.6,-18 1098.6,-14.5 1098.6,-21.5"/>
</g>
</g>
</svg>
