<?xml version="1.0" encoding="UTF-8" standalone="no"?>
<!DOCTYPE svg PUBLIC "-//W3C//DTD SVG 1.1//EN"
 "http://www.w3.org/Graphics/SVG/1.1/DTD/svg11.dtd">
<!-- Generated by graphviz version 14.1.5 (20260411.2331)
 -->
<!-- Title: BiomeConsolidatedFeatureData Pages: 1 -->
<svg width="1394pt" height="1016pt"
 viewBox="0.00 0.00 1394.00 1016.00" xmlns="http://www.w3.org/2000/svg" xmlns:xlink="http://www.w3.org/1999/xlink">
<g id="graph0" class="graph" transform="scale(1 1) rotate(0) translate(4 1012)">
<title>BiomeConsolidatedFeatureData</title>
<polygon fill="white" stroke="none" points="-4,4 -4,-1012 1389.82,-1012 1389.82,4 -4,4"/>
<!-- 0 -->
<!-- name: &quot;BiomeConsolidatedFeatureData&quot;, typeName: &quot;&quot;, id: 0, branchId: 0, recurseId: &#45;1, attributes: 0, notes: &quot;&quot; -->
<g id="node1" class="node">
<title>0</title>
<ellipse fill="none" stroke="black" cx="129.66" cy="-126" rx="129.66" ry="18"/>
<text xml:space="preserve" text-anchor="middle" x="129.66" y="-120.95" font-family="Times New Roman,serif" font-size="14.00">BiomeConsolidatedFeatureData</text>
</g>
<!-- 1 -->
<!-- name: &quot;scatter&quot;, typeName: &quot;&quot;, id: 1, branchId: 0, recurseId: &#45;1, attributes: 0, notes: &quot;&quot; -->
<g id="node2" class="node">
<title>1</title>
<ellipse fill="none" stroke="black" cx="392.73" cy="-396" rx="34.97" ry="18"/>
<text xml:space="preserve" text-anchor="middle" x="392.73" y="-390.95" font-family="Times New Roman,serif" font-size="14.00">scatter</text>
</g>
<!-- 0&#45;&gt;1 -->
<g id="edge1" class="edge">
<title>0&#45;&gt;1</title>
<path fill="none" stroke="black" d="M148.19,-144.13C193.9,-191.4 316.69,-318.39 368.33,-371.8"/>
<polygon fill="black" stroke="black" points="365.75,-374.17 375.22,-378.93 370.79,-369.3 365.75,-374.17"/>
</g>
<!-- 34 -->
<!-- name: &quot;feature&quot;, typeName: &quot;&quot;, id: 34, branchId: 0, recurseId: &#45;1, attributes: 0, notes: &quot;&quot; -->
<g id="node35" class="node">
<title>34</title>
<ellipse fill="none" stroke="black" cx="392.73" cy="-176" rx="36.51" ry="18"/>
<text xml:space="preserve" text-anchor="middle" x="392.73" y="-170.95" font-family="Times New Roman,serif" font-size="14.00">feature</text>
</g>
<!-- 0&#45;&gt;34 -->
<g id="edge34" class="edge">
<title>0&#45;&gt;34</title>
<path fill="none" stroke="black" d="M207.58,-140.73C252.97,-149.42 308.83,-160.12 347.05,-167.44"/>
<polygon fill="black" stroke="black" points="346.34,-170.87 356.82,-169.31 347.66,-164 346.34,-170.87"/>
</g>
<!-- 36 -->
<!-- name: &quot;identifier&quot;, typeName: &quot;&quot;, id: 36, branchId: 0, recurseId: &#45;1, attributes: 0, notes: &quot;&quot; -->
<g id="node37" class="node">
<title>36</title>
<ellipse fill="none" stroke="black" cx="819.07" cy="-126" rx="44.7" ry="18"/>
<text xml:space="preserve" text-anchor="middle" x="819.07" y="-120.95" font-family="Times New Roman,serif" font-size="14.00">identifier</text>
</g>
<!-- 0&#45;&gt;36 -->
<g id="edge36" class="edge">
<title>0&#45;&gt;36</title>
<path fill="none" stroke="black" d="M259.55,-126C410.71,-126 654.4,-126 762.9,-126"/>
<polygon fill="black" stroke="black" points="762.7,-129.5 772.7,-126 762.7,-122.5 762.7,-129.5"/>
</g>
<!-- 38 -->
<!-- name: &quot;pass&quot;, typeName: &quot;&quot;, id: 38, branchId: 0, recurseId: &#45;1, attributes: 0, notes: &quot;&quot; -->
<g id="node39" class="node">
<title>38</title>
<ellipse fill="none" stroke="black" cx="819.07" cy="-72" rx="27" ry="18"/>
<text xml:space="preserve" text-anchor="middle" x="819.07" y="-66.95" font-family="Times New Roman,serif" font-size="14.00">pass</text>
</g>
<!-- 0&#45;&gt;38 -->
<g id="edge38" class="edge">
<title>0&#45;&gt;38</title>
<path fill="none" stroke="black" d="M243.79,-117.11C401.63,-104.71 679.89,-82.85 780.47,-74.95"/>
<polygon fill="black" stroke="black" points="780.63,-78.45 790.32,-74.18 780.08,-71.47 780.63,-78.45"/>
</g>
<!-- 40 -->
<!-- name: &quot;can use internal feature&quot;, typeName: &quot;&quot;, id: 40, branchId: 0, recurseId: &#45;1, attributes: 0, notes: &quot;&quot; -->
<g id="node41" class="node">
<title>40</title>
<ellipse fill="none" stroke="black" cx="392.73" cy="-24" rx="97.41" ry="18"/>
<text xml:space="preserve" text-anchor="middle" x="392.73" y="-18.95" font-family="Times New Roman,serif" font-size="14.00">can use internal feature</text>
</g>
<!-- 0&#45;&gt;40 -->
<g id="edge40" class="edge">
<title>0&#45;&gt;40</title>
<path fill="none" stroke="black" d="M174.95,-108.7C220.25,-91 290.66,-63.49 338.86,-44.66"/>
<polygon fill="black" stroke="black" points="339.94,-47.99 347.98,-41.09 337.39,-41.47 339.94,-47.99"/>
</g>
<!-- 2 -->
<!-- name: &quot;coordinates&quot;, typeName: &quot;&quot;, id: 2, branchId: 0, recurseId: &#45;1, attributes: 0, notes: &quot;&quot; -->
<g id="node3" class="node">
<title>2</title>
<ellipse fill="none" stroke="black" cx="612.3" cy="-774" rx="53.4" ry="18"/>
<text xml:space="preserve" text-anchor="middle" x="612.3" y="-768.95" font-family="Times New Roman,serif" font-size="14.00">coordinates</text>
</g>
<!-- 1&#45;&gt;2 -->
<g id="edge2" class="edge">
<title>1&#45;&gt;2</title>
<path fill="none" stroke="black" d="M403.79,-413.47C438.44,-473.67 553.05,-672.79 595.39,-746.36"/>
<polygon fill="black" stroke="black" points="592.32,-748.04 600.34,-754.96 598.39,-744.55 592.32,-748.04"/>
</g>
<!-- 20 -->
<!-- name: &quot;eval order&quot;, typeName: &quot;&quot;, id: 20, branchId: 0, recurseId: &#45;1, attributes: 0, notes: &quot;&quot; -->
<g id="node21" class="node">
<title>20</title>
<ellipse fill="none" stroke="black" cx="612.3" cy="-551" rx="48.28" ry="18"/>
<text xml:space="preserve" text-anchor="middle" x="612.3" y="-545.95" font-family="Times New Roman,serif" font-size="14.00">eval order</text>
</g>
<!-- 1&#45;&gt;20 -->
<g id="edge20" class="edge">
<title>1&#45;&gt;20</title>
<path fill="none" stroke="black" d="M409.21,-412.3C432.74,-436.4 479.71,-481.94 526.14,-512 538.75,-520.16 553.33,-527.5 566.84,-533.56"/>
<polygon fill="black" stroke="black" points="565.42,-536.76 575.98,-537.53 568.2,-530.34 565.42,-536.76"/>
</g>
<!-- 22 -->
<!-- name: &quot;chance percent type&quot;, typeName: &quot;&quot;, id: 22, branchId: 0, recurseId: &#45;1, attributes: 0, notes: &quot;&quot; -->
<g id="node23" class="node">
<title>22</title>
<ellipse fill="none" stroke="black" cx="819.07" cy="-500" rx="84.62" ry="18"/>
<text xml:space="preserve" text-anchor="middle" x="819.07" y="-494.95" font-family="Times New Roman,serif" font-size="14.00">chance percent type</text>
</g>
<!-- 1&#45;&gt;22 -->
<g id="edge22" class="edge">
<title>1&#45;&gt;22</title>
<path fill="none" stroke="black" d="M412.06,-411.15C436.4,-430.31 481.54,-462.53 526.14,-477 590.18,-497.78 666.08,-503.22 724.43,-503.62"/>
<polygon fill="black" stroke="black" points="724.34,-507.12 734.35,-503.64 724.35,-500.12 724.34,-507.12"/>
</g>
<!-- 24 -->
<!-- name: &quot;chance percent&quot;, typeName: &quot;&quot;, id: 24, branchId: 0, recurseId: &#45;1, attributes: 0, notes: &quot;&quot; -->
<g id="node25" class="node">
<title>24</title>
<ellipse fill="none" stroke="black" cx="612.3" cy="-450" rx="66.19" ry="18"/>
<text xml:space="preserve" text-anchor="middle" x="612.3" y="-444.95" font-family="Times New Roman,serif" font-size="14.00">chance percent</text>
</g>
<!-- 1&#45;&gt;24 -->
<g id="edge24" class="edge">
<title>1&#45;&gt;24</title>
<path fill="none" stroke="black" d="M424.9,-403.74C457.84,-411.91 510.58,-425 551.57,-435.17"/>
<polygon fill="black" stroke="black" points="550.5,-438.52 561.05,-437.53 552.19,-431.72 550.5,-438.52"/>
</g>
<!-- 26 -->
<!-- name: &quot;chance numerator&quot;, typeName: &quot;&quot;, id: 26, branchId: 0, recurseId: &#45;1, attributes: 0, notes: &quot;&quot; -->
<g id="node27" class="node">
<title>26</title>
<ellipse fill="none" stroke="black" cx="612.3" cy="-396" rx="77.45" ry="18"/>
<text xml:space="preserve" text-anchor="middle" x="612.3" y="-390.95" font-family="Times New Roman,serif" font-size="14.00">chance numerator</text>
</g>
<!-- 1&#45;&gt;26 -->
<g id="edge26" class="edge">
<title>1&#45;&gt;26</title>
<path fill="none" stroke="black" d="M427.73,-396C453.39,-396 489.81,-396 523.46,-396"/>
<polygon fill="black" stroke="black" points="523.23,-399.5 533.23,-396 523.23,-392.5 523.23,-399.5"/>
</g>
<!-- 28 -->
<!-- name: &quot;chance denominator&quot;, typeName: &quot;&quot;, id: 28, branchId: 0, recurseId: &#45;1, attributes: 0, notes: &quot;&quot; -->
<g id="node29" class="node">
<title>28</title>
<ellipse fill="none" stroke="black" cx="612.3" cy="-342" rx="86.15" ry="18"/>
<text xml:space="preserve" text-anchor="middle" x="612.3" y="-336.95" font-family="Times New Roman,serif" font-size="14.00">chance denominator</text>
</g>
<!-- 1&#45;&gt;28 -->
<g id="edge28" class="edge">
<title>1&#45;&gt;28</title>
<path fill="none" stroke="black" d="M424.9,-388.26C455.94,-380.56 504.57,-368.49 544.38,-358.61"/>
<polygon fill="black" stroke="black" points="545.02,-362.06 553.88,-356.25 543.33,-355.26 545.02,-362.06"/>
</g>
<!-- 30 -->
<!-- name: &quot;iterations type&quot;, typeName: &quot;&quot;, id: 30, branchId: 0, recurseId: &#45;1, attributes: 0, notes: &quot;&quot; -->
<g id="node31" class="node">
<title>30</title>
<ellipse fill="none" stroke="black" cx="612.3" cy="-288" rx="63.63" ry="18"/>
<text xml:space="preserve" text-anchor="middle" x="612.3" y="-282.95" font-family="Times New Roman,serif" font-size="14.00">iterations type</text>
</g>
<!-- 1&#45;&gt;30 -->
<g id="edge30" class="edge">
<title>1&#45;&gt;30</title>
<path fill="none" stroke="black" d="M413.96,-381.47C439.22,-363.84 484.22,-334.13 526.14,-315 535.06,-310.93 544.77,-307.23 554.33,-303.95"/>
<polygon fill="black" stroke="black" points="555.17,-307.36 563.58,-300.91 552.98,-300.71 555.17,-307.36"/>
</g>
<!-- 32 -->
<!-- name: &quot;iterations&quot;, typeName: &quot;&quot;, id: 32, branchId: 0, recurseId: &#45;1, attributes: 0, notes: &quot;&quot; -->
<g id="node33" class="node">
<title>32</title>
<ellipse fill="none" stroke="black" cx="819.07" cy="-238" rx="45.21" ry="18"/>
<text xml:space="preserve" text-anchor="middle" x="819.07" y="-232.95" font-family="Times New Roman,serif" font-size="14.00">iterations</text>
</g>
<!-- 1&#45;&gt;32 -->
<g id="edge32" class="edge">
<title>1&#45;&gt;32</title>
<path fill="none" stroke="black" d="M404.33,-378.97C424.06,-348.97 469.63,-287.39 526.14,-261 602.96,-225.13 703.57,-226.23 764.38,-231.36"/>
<polygon fill="black" stroke="black" points="763.84,-234.82 774.12,-232.25 764.48,-227.85 763.84,-234.82"/>
</g>
<!-- 3 -->
<!-- name: &quot;List Size&quot;, typeName: &quot;&quot;, id: 3, branchId: 0, recurseId: &#45;1, attributes: 0, notes: &quot;&quot; -->
<g id="node4" class="node">
<title>3</title>
<ellipse fill="none" stroke="black" cx="819.07" cy="-909" rx="43.67" ry="18"/>
<text xml:space="preserve" text-anchor="middle" x="819.07" y="-903.95" font-family="Times New Roman,serif" font-size="14.00">List Size</text>
</g>
<!-- 2&#45;&gt;3 -->
<g id="edge3" class="edge">
<title>2&#45;&gt;3</title>
<path fill="none" stroke="black" d="M637.59,-790.02C674.3,-814.21 743.96,-860.14 785.17,-887.31"/>
<polygon fill="black" stroke="black" points="783.22,-890.21 793.49,-892.79 787.07,-884.37 783.22,-890.21"/>
</g>
<!-- 5 -->
<!-- name: &quot;example element&quot;, typeName: &quot;&quot;, id: 5, branchId: 0, recurseId: &#45;1, attributes: 16, notes: &quot;&quot; -->
<g id="node6" class="node">
<title>5</title>
<ellipse fill="none" stroke="black" stroke-dasharray="1,5" cx="819.07" cy="-774" rx="74.89" ry="18"/>
<text xml:space="preserve" text-anchor="middle" x="819.07" y="-768.95" font-family="Times New Roman,serif" font-size="14.00">example element</text>
</g>
<!-- 2&#45;&gt;5 -->
<g id="edge5" class="edge">
<title>2&#45;&gt;5</title>
<path fill="none" stroke="black" d="M666.03,-774C686.31,-774 710.01,-774 732.59,-774"/>
<polygon fill="black" stroke="black" points="732.4,-777.5 742.4,-774 732.4,-770.5 732.4,-777.5"/>
</g>
<!-- 4 -->
<!-- name: &quot;unsigned varint&quot;, typeName: &quot;&quot;, id: 4, branchId: 0, recurseId: &#45;1, attributes: 0, notes: &quot;&quot; -->
<g id="node5" class="node">
<title>4</title>
<ellipse fill="none" stroke="black" cx="1007.93" cy="-990" rx="68.24" ry="18"/>
<text xml:space="preserve" text-anchor="middle" x="1007.93" y="-984.95" font-family="Times New Roman,serif" font-size="14.00">unsigned varint</text>
</g>
<!-- 3&#45;&gt;4 -->
<g id="edge4" class="edge">
<title>3&#45;&gt;4</title>
<path fill="none" stroke="black" d="M848.93,-922.44C873.06,-933.58 908.46,-949.69 939.69,-963 945.7,-965.56 952.03,-968.19 958.31,-970.76"/>
<polygon fill="black" stroke="black" points="956.78,-973.92 967.36,-974.43 959.41,-967.43 956.78,-973.92"/>
</g>
<!-- 6 -->
<!-- name: &quot;min value type&quot;, typeName: &quot;&quot;, id: 6, branchId: 0, recurseId: &#45;1, attributes: 0, notes: &quot;&quot; -->
<g id="node7" class="node">
<title>6</title>
<ellipse fill="none" stroke="black" cx="1007.93" cy="-936" rx="66.71" ry="18"/>
<text xml:space="preserve" text-anchor="middle" x="1007.93" y="-930.95" font-family="Times New Roman,serif" font-size="14.00">min value type</text>
</g>
<!-- 5&#45;&gt;6 -->
<g id="edge6" class="edge">
<title>5&#45;&gt;6</title>
<path fill="none" stroke="black" d="M831.96,-792.15C851.4,-820.59 892.59,-875.81 939.69,-909 944.03,-912.05 948.76,-914.84 953.64,-917.35"/>
<polygon fill="black" stroke="black" points="951.87,-920.39 962.41,-921.49 954.86,-914.06 951.87,-920.39"/>
</g>
<!-- 8 -->
<!-- name: &quot;min value&quot;, typeName: &quot;&quot;, id: 8, branchId: 0, recurseId: &#45;1, attributes: 0, notes: &quot;&quot; -->
<g id="node9" class="node">
<title>8</title>
<ellipse fill="none" stroke="black" cx="1007.93" cy="-882" rx="48.28" ry="18"/>
<text xml:space="preserve" text-anchor="middle" x="1007.93" y="-876.95" font-family="Times New Roman,serif" font-size="14.00">min value</text>
</g>
<!-- 5&#45;&gt;8 -->
<g id="edge8" class="edge">
<title>5&#45;&gt;8</title>
<path fill="none" stroke="black" d="M842.53,-791.36C865.92,-808.9 904.03,-836.05 939.69,-855 946.64,-858.69 954.2,-862.19 961.67,-865.37"/>
<polygon fill="black" stroke="black" points="960.1,-868.51 970.68,-869.07 962.76,-862.04 960.1,-868.51"/>
</g>
<!-- 10 -->
<!-- name: &quot;max value type&quot;, typeName: &quot;&quot;, id: 10, branchId: 0, recurseId: &#45;1, attributes: 0, notes: &quot;&quot; -->
<g id="node11" class="node">
<title>10</title>
<ellipse fill="none" stroke="black" cx="1007.93" cy="-828" rx="68.24" ry="18"/>
<text xml:space="preserve" text-anchor="middle" x="1007.93" y="-822.95" font-family="Times New Roman,serif" font-size="14.00">max value type</text>
</g>
<!-- 5&#45;&gt;10 -->
<g id="edge10" class="edge">
<title>5&#45;&gt;10</title>
<path fill="none" stroke="black" d="M868.19,-787.91C893.08,-795.1 923.62,-803.92 949.71,-811.46"/>
<polygon fill="black" stroke="black" points="948.55,-814.77 959.13,-814.19 950.5,-808.05 948.55,-814.77"/>
</g>
<!-- 12 -->
<!-- name: &quot;max value&quot;, typeName: &quot;&quot;, id: 12, branchId: 0, recurseId: &#45;1, attributes: 0, notes: &quot;&quot; -->
<g id="node13" class="node">
<title>12</title>
<ellipse fill="none" stroke="black" cx="1007.93" cy="-774" rx="49.82" ry="18"/>
<text xml:space="preserve" text-anchor="middle" x="1007.93" y="-768.95" font-family="Times New Roman,serif" font-size="14.00">max value</text>
</g>
<!-- 5&#45;&gt;12 -->
<g id="edge12" class="edge">
<title>5&#45;&gt;12</title>
<path fill="none" stroke="black" d="M894.46,-774C911.74,-774 929.93,-774 946.53,-774"/>
<polygon fill="black" stroke="black" points="946.22,-777.5 956.22,-774 946.22,-770.5 946.22,-777.5"/>
</g>
<!-- 14 -->
<!-- name: &quot;grid offset&quot;, typeName: &quot;&quot;, id: 14, branchId: 0, recurseId: &#45;1, attributes: 0, notes: &quot;&quot; -->
<g id="node15" class="node">
<title>14</title>
<ellipse fill="none" stroke="black" cx="1007.93" cy="-720" rx="49.3" ry="18"/>
<text xml:space="preserve" text-anchor="middle" x="1007.93" y="-714.95" font-family="Times New Roman,serif" font-size="14.00">grid offset</text>
</g>
<!-- 5&#45;&gt;14 -->
<g id="edge14" class="edge">
<title>5&#45;&gt;14</title>
<path fill="none" stroke="black" d="M868.19,-760.09C895.56,-752.18 929.78,-742.3 957.39,-734.32"/>
<polygon fill="black" stroke="black" points="958.3,-737.7 966.93,-731.56 956.35,-730.97 958.3,-737.7"/>
</g>
<!-- 16 -->
<!-- name: &quot;grid step size&quot;, typeName: &quot;&quot;, id: 16, branchId: 0, recurseId: &#45;1, attributes: 0, notes: &quot;&quot; -->
<g id="node17" class="node">
<title>16</title>
<ellipse fill="none" stroke="black" cx="1007.93" cy="-666" rx="60.05" ry="18"/>
<text xml:space="preserve" text-anchor="middle" x="1007.93" y="-660.95" font-family="Times New Roman,serif" font-size="14.00">grid step size</text>
</g>
<!-- 5&#45;&gt;16 -->
<g id="edge16" class="edge">
<title>5&#45;&gt;16</title>
<path fill="none" stroke="black" d="M842.53,-756.64C865.92,-739.1 904.03,-711.95 939.69,-693 945.46,-689.94 951.65,-687.01 957.85,-684.28"/>
<polygon fill="black" stroke="black" points="958.99,-687.6 966.85,-680.49 956.27,-681.15 958.99,-687.6"/>
</g>
<!-- 18 -->
<!-- name: &quot;distribution&quot;, typeName: &quot;&quot;, id: 18, branchId: 0, recurseId: &#45;1, attributes: 0, notes: &quot;&quot; -->
<g id="node19" class="node">
<title>18</title>
<ellipse fill="none" stroke="black" cx="1007.93" cy="-612" rx="53.4" ry="18"/>
<text xml:space="preserve" text-anchor="middle" x="1007.93" y="-606.95" font-family="Times New Roman,serif" font-size="14.00">distribution</text>
</g>
<!-- 5&#45;&gt;18 -->
<g id="edge18" class="edge">
<title>5&#45;&gt;18</title>
<path fill="none" stroke="black" d="M831.96,-755.85C851.4,-727.41 892.59,-672.19 939.69,-639 945.09,-635.19 951.11,-631.81 957.26,-628.84"/>
<polygon fill="black" stroke="black" points="958.55,-632.1 966.27,-624.84 955.71,-625.7 958.55,-632.1"/>
</g>
<!-- 7 -->
<!-- name: &quot;varint&quot;, typeName: &quot;&quot;, id: 7, branchId: 0, recurseId: &#45;1, attributes: 512, notes: &quot;&quot; -->
<g id="node8" class="node">
<title>7</title>
<ellipse fill="none" stroke="black" cx="1249" cy="-936" rx="32.41" ry="18"/>
<text xml:space="preserve" text-anchor="middle" x="1249" y="-930.95" font-family="Times New Roman,serif" font-size="14.00">varint</text>
</g>
<!-- 6&#45;&gt;7 -->
<g id="edge7" class="edge">
<title>6&#45;&gt;7</title>
<path fill="none" stroke="black" d="M1074.89,-936C1116.42,-936 1168.82,-936 1205.04,-936"/>
<polygon fill="black" stroke="black" points="1204.68,-939.5 1214.68,-936 1204.68,-932.5 1204.68,-939.5"/>
</g>
<!-- 9 -->
<!-- name: &quot;unsigned short&quot;, typeName: &quot;&quot;, id: 9, branchId: 0, recurseId: &#45;1, attributes: 512, notes: &quot;&quot; -->
<g id="node10" class="node">
<title>9</title>
<ellipse fill="none" stroke="black" cx="1249" cy="-882" rx="65.17" ry="18"/>
<text xml:space="preserve" text-anchor="middle" x="1249" y="-876.95" font-family="Times New Roman,serif" font-size="14.00">unsigned short</text>
</g>
<!-- 8&#45;&gt;9 -->
<g id="edge9" class="edge">
<title>8&#45;&gt;9</title>
<path fill="none" stroke="black" d="M1056.45,-882C1089.54,-882 1134.37,-882 1172.34,-882"/>
<polygon fill="black" stroke="black" points="1171.85,-885.5 1181.85,-882 1171.85,-878.5 1171.85,-885.5"/>
</g>
<!-- 11 -->
<!-- name: &quot;varint&quot;, typeName: &quot;&quot;, id: 11, branchId: 0, recurseId: &#45;1, attributes: 512, notes: &quot;&quot; -->
<g id="node12" class="node">
<title>11</title>
<ellipse fill="none" stroke="black" cx="1249" cy="-828" rx="32.41" ry="18"/>
<text xml:space="preserve" text-anchor="middle" x="1249" y="-822.95" font-family="Times New Roman,serif" font-size="14.00">varint</text>
</g>
<!-- 10&#45;&gt;11 -->
<g id="edge11" class="edge">
<title>10&#45;&gt;11</title>
<path fill="none" stroke="black" d="M1076.48,-828C1117.66,-828 1169.08,-828 1204.82,-828"/>
<polygon fill="black" stroke="black" points="1204.79,-831.5 1214.79,-828 1204.79,-824.5 1204.79,-831.5"/>
</g>
<!-- 13 -->
<!-- name: &quot;unsigned short&quot;, typeName: &quot;&quot;, id: 13, branchId: 0, recurseId: &#45;1, attributes: 512, notes: &quot;&quot; -->
<g id="node14" class="node">
<title>13</title>
<ellipse fill="none" stroke="black" cx="1249" cy="-774" rx="65.17" ry="18"/>
<text xml:space="preserve" text-anchor="middle" x="1249" y="-768.95" font-family="Times New Roman,serif" font-size="14.00">unsigned short</text>
</g>
<!-- 12&#45;&gt;13 -->
<g id="edge13" class="edge">
<title>12&#45;&gt;13</title>
<path fill="none" stroke="black" d="M1058.18,-774C1091,-774 1134.8,-774 1172.05,-774"/>
<polygon fill="black" stroke="black" points="1171.87,-777.5 1181.87,-774 1171.87,-770.5 1171.87,-777.5"/>
</g>
<!-- 15 -->
<!-- name: &quot;unsigned int&quot;, typeName: &quot;&quot;, id: 15, branchId: 0, recurseId: &#45;1, attributes: 512, notes: &quot;&quot; -->
<g id="node16" class="node">
<title>15</title>
<ellipse fill="none" stroke="black" cx="1249" cy="-720" rx="56.47" ry="18"/>
<text xml:space="preserve" text-anchor="middle" x="1249" y="-714.95" font-family="Times New Roman,serif" font-size="14.00">unsigned int</text>
</g>
<!-- 14&#45;&gt;15 -->
<g id="edge15" class="edge">
<title>14&#45;&gt;15</title>
<path fill="none" stroke="black" d="M1057.6,-720C1093.14,-720 1141.75,-720 1180.96,-720"/>
<polygon fill="black" stroke="black" points="1180.76,-723.5 1190.76,-720 1180.76,-716.5 1180.76,-723.5"/>
</g>
<!-- 17 -->
<!-- name: &quot;unsigned int&quot;, typeName: &quot;&quot;, id: 17, branchId: 0, recurseId: &#45;1, attributes: 512, notes: &quot;&quot; -->
<g id="node18" class="node">
<title>17</title>
<ellipse fill="none" stroke="black" cx="1249" cy="-666" rx="56.47" ry="18"/>
<text xml:space="preserve" text-anchor="middle" x="1249" y="-660.95" font-family="Times New Roman,serif" font-size="14.00">unsigned int</text>
</g>
<!-- 16&#45;&gt;17 -->
<g id="edge17" class="edge">
<title>16&#45;&gt;17</title>
<path fill="none" stroke="black" d="M1068.33,-666C1102.52,-666 1145.59,-666 1180.98,-666"/>
<polygon fill="black" stroke="black" points="1180.67,-669.5 1190.67,-666 1180.67,-662.5 1180.67,-669.5"/>
</g>
<!-- 19 -->
<!-- name: &quot;enum RandomDistributionType&quot;, typeName: &quot;&quot;, id: 19, branchId: 0, recurseId: &#45;1, attributes: 512, notes: &quot;&quot; -->
<g id="node20" class="node">
<title>19</title>
<ellipse fill="none" stroke="black" cx="1249" cy="-612" rx="129.15" ry="18"/>
<text xml:space="preserve" text-anchor="middle" x="1249" y="-606.95" font-family="Times New Roman,serif" font-size="14.00">enum RandomDistributionType</text>
</g>
<!-- 18&#45;&gt;19 -->
<g id="edge19" class="edge">
<title>18&#45;&gt;19</title>
<path fill="none" stroke="black" d="M1061.69,-612C1075.77,-612 1091.66,-612 1108.09,-612"/>
<polygon fill="black" stroke="black" points="1108.02,-615.5 1118.02,-612 1108.02,-608.5 1108.02,-615.5"/>
</g>
<!-- 21 -->
<!-- name: &quot;enum CoordinateEvaluationOrder&quot;, typeName: &quot;&quot;, id: 21, branchId: 0, recurseId: &#45;1, attributes: 512, notes: &quot;&quot; -->
<g id="node22" class="node">
<title>21</title>
<ellipse fill="none" stroke="black" cx="1249" cy="-558" rx="136.82" ry="18"/>
<text xml:space="preserve" text-anchor="middle" x="1249" y="-552.95" font-family="Times New Roman,serif" font-size="14.00">enum CoordinateEvaluationOrder</text>
</g>
<!-- 20&#45;&gt;21 -->
<g id="edge21" class="edge">
<title>20&#45;&gt;21</title>
<path fill="none" stroke="black" d="M661,-551.53C753.21,-552.54 959.28,-554.82 1100.97,-556.38"/>
<polygon fill="black" stroke="black" points="1100.79,-559.88 1110.83,-556.49 1100.87,-552.88 1100.79,-559.88"/>
</g>
<!-- 23 -->
<!-- name: &quot;varint&quot;, typeName: &quot;&quot;, id: 23, branchId: 0, recurseId: &#45;1, attributes: 512, notes: &quot;&quot; -->
<g id="node24" class="node">
<title>23</title>
<ellipse fill="none" stroke="black" cx="1249" cy="-504" rx="32.41" ry="18"/>
<text xml:space="preserve" text-anchor="middle" x="1249" y="-498.95" font-family="Times New Roman,serif" font-size="14.00">varint</text>
</g>
<!-- 22&#45;&gt;23 -->
<g id="edge23" class="edge">
<title>22&#45;&gt;23</title>
<path fill="none" stroke="black" d="M904.11,-500.79C994.53,-501.63 1134.79,-502.94 1204.95,-503.6"/>
<polygon fill="black" stroke="black" points="1204.86,-507.1 1214.89,-503.69 1204.92,-500.1 1204.86,-507.1"/>
</g>
<!-- 25 -->
<!-- name: &quot;unsigned short&quot;, typeName: &quot;&quot;, id: 25, branchId: 0, recurseId: &#45;1, attributes: 512, notes: &quot;&quot; -->
<g id="node26" class="node">
<title>25</title>
<ellipse fill="none" stroke="black" cx="1249" cy="-450" rx="65.17" ry="18"/>
<text xml:space="preserve" text-anchor="middle" x="1249" y="-444.95" font-family="Times New Roman,serif" font-size="14.00">unsigned short</text>
</g>
<!-- 24&#45;&gt;25 -->
<g id="edge25" class="edge">
<title>24&#45;&gt;25</title>
<path fill="none" stroke="black" d="M678.83,-450C797.39,-450 1046.8,-450 1172.37,-450"/>
<polygon fill="black" stroke="black" points="1172.25,-453.5 1182.25,-450 1172.25,-446.5 1172.25,-453.5"/>
</g>
<!-- 27 -->
<!-- name: &quot;int&quot;, typeName: &quot;&quot;, id: 27, branchId: 0, recurseId: &#45;1, attributes: 512, notes: &quot;&quot; -->
<g id="node28" class="node">
<title>27</title>
<ellipse fill="none" stroke="black" cx="1249" cy="-396" rx="27" ry="18"/>
<text xml:space="preserve" text-anchor="middle" x="1249" y="-390.95" font-family="Times New Roman,serif" font-size="14.00">int</text>
</g>
<!-- 26&#45;&gt;27 -->
<g id="edge27" class="edge">
<title>26&#45;&gt;27</title>
<path fill="none" stroke="black" d="M690.17,-396C827.16,-396 1108.64,-396 1210.31,-396"/>
<polygon fill="black" stroke="black" points="1210.01,-399.5 1220.01,-396 1210.01,-392.5 1210.01,-399.5"/>
</g>
<!-- 29 -->
<!-- name: &quot;int&quot;, typeName: &quot;&quot;, id: 29, branchId: 0, recurseId: &#45;1, attributes: 512, notes: &quot;&quot; -->
<g id="node30" class="node">
<title>29</title>
<ellipse fill="none" stroke="black" cx="1249" cy="-342" rx="27" ry="18"/>
<text xml:space="preserve" text-anchor="middle" x="1249" y="-336.95" font-family="Times New Roman,serif" font-size="14.00">int</text>
</g>
<!-- 28&#45;&gt;29 -->
<g id="edge29" class="edge">
<title>28&#45;&gt;29</title>
<path fill="none" stroke="black" d="M698.9,-342C838.87,-342 1111.12,-342 1210.52,-342"/>
<polygon fill="black" stroke="black" points="1210.25,-345.5 1220.25,-342 1210.25,-338.5 1210.25,-345.5"/>
</g>
<!-- 31 -->
<!-- name: &quot;varint&quot;, typeName: &quot;&quot;, id: 31, branchId: 0, recurseId: &#45;1, attributes: 512, notes: &quot;&quot; -->
<g id="node32" class="node">
<title>31</title>
<ellipse fill="none" stroke="black" cx="1249" cy="-288" rx="32.41" ry="18"/>
<text xml:space="preserve" text-anchor="middle" x="1249" y="-282.95" font-family="Times New Roman,serif" font-size="14.00">varint</text>
</g>
<!-- 30&#45;&gt;31 -->
<g id="edge31" class="edge">
<title>30&#45;&gt;31</title>
<path fill="none" stroke="black" d="M676.18,-288C804.9,-288 1095.46,-288 1205.07,-288"/>
<polygon fill="black" stroke="black" points="1204.8,-291.5 1214.8,-288 1204.8,-284.5 1204.8,-291.5"/>
</g>
<!-- 33 -->
<!-- name: &quot;unsigned short&quot;, typeName: &quot;&quot;, id: 33, branchId: 0, recurseId: &#45;1, attributes: 512, notes: &quot;&quot; -->
<g id="node34" class="node">
<title>33</title>
<ellipse fill="none" stroke="black" cx="1249" cy="-234" rx="65.17" ry="18"/>
<text xml:space="preserve" text-anchor="middle" x="1249" y="-228.95" font-family="Times New Roman,serif" font-size="14.00">unsigned short</text>
</g>
<!-- 32&#45;&gt;33 -->
<g id="edge33" class="edge">
<title>32&#45;&gt;33</title>
<path fill="none" stroke="black" d="M864.66,-237.58C937.46,-236.9 1082.68,-235.55 1171.99,-234.71"/>
<polygon fill="black" stroke="black" points="1171.92,-238.21 1181.89,-234.62 1171.86,-231.21 1171.92,-238.21"/>
</g>
<!-- 35 -->
<!-- name: &quot;unsigned short&quot;, typeName: &quot;&quot;, id: 35, branchId: 0, recurseId: &#45;1, attributes: 512, notes: &quot;&quot; -->
<g id="node36" class="node">
<title>35</title>
<ellipse fill="none" stroke="black" cx="1249" cy="-180" rx="65.17" ry="18"/>
<text xml:space="preserve" text-anchor="middle" x="1249" y="-174.95" font-family="Times New Roman,serif" font-size="14.00">unsigned short</text>
</g>
<!-- 34&#45;&gt;35 -->
<g id="edge35" class="edge">
<title>34&#45;&gt;35</title>
<path fill="none" stroke="black" d="M429.62,-176.17C557.83,-176.77 994.99,-178.82 1172.33,-179.65"/>
<polygon fill="black" stroke="black" points="1172.1,-183.14 1182.12,-179.69 1172.13,-176.14 1172.1,-183.14"/>
</g>
<!-- 37 -->
<!-- name: &quot;unsigned short&quot;, typeName: &quot;&quot;, id: 37, branchId: 0, recurseId: &#45;1, attributes: 512, notes: &quot;&quot; -->
<g id="node38" class="node">
<title>37</title>
<ellipse fill="none" stroke="black" cx="1249" cy="-126" rx="65.17" ry="18"/>
<text xml:space="preserve" text-anchor="middle" x="1249" y="-120.95" font-family="Times New Roman,serif" font-size="14.00">unsigned short</text>
</g>
<!-- 36&#45;&gt;37 -->
<g id="edge37" class="edge">
<title>36&#45;&gt;37</title>
<path fill="none" stroke="black" d="M864.26,-126C936.98,-126 1082.75,-126 1172.21,-126"/>
<polygon fill="black" stroke="black" points="1172.12,-129.5 1182.12,-126 1172.12,-122.5 1172.12,-129.5"/>
</g>
<!-- 39 -->
<!-- name: &quot;unsigned short&quot;, typeName: &quot;&quot;, id: 39, branchId: 0, recurseId: &#45;1, attributes: 512, notes: &quot;&quot; -->
<g id="node40" class="node">
<title>39</title>
<ellipse fill="none" stroke="black" cx="1249" cy="-72" rx="65.17" ry="18"/>
<text xml:space="preserve" text-anchor="middle" x="1249" y="-66.95" font-family="Times New Roman,serif" font-size="14.00">unsigned short</text>
</g>
<!-- 38&#45;&gt;39 -->
<g id="edge39" class="edge">
<title>38&#45;&gt;39</title>
<path fill="none" stroke="black" d="M846.52,-72C910.32,-72 1074.62,-72 1172.12,-72"/>
<polygon fill="black" stroke="black" points="1171.86,-75.5 1181.86,-72 1171.86,-68.5 1171.86,-75.5"/>
</g>
<!-- 41 -->
<!-- name: &quot;bool&quot;, typeName: &quot;&quot;, id: 41, branchId: 0, recurseId: &#45;1, attributes: 512, notes: &quot;&quot; -->
<g id="node42" class="node">
<title>41</title>
<ellipse fill="none" stroke="black" cx="1249" cy="-18" rx="27.3" ry="18"/>
<text xml:space="preserve" text-anchor="middle" x="1249" y="-12.95" font-family="Times New Roman,serif" font-size="14.00">bool</text>
</g>
<!-- 40&#45;&gt;41 -->
<g id="edge41" class="edge">
<title>40&#45;&gt;41</title>
<path fill="none" stroke="black" d="M490.48,-23.32C678.16,-22 1084.27,-19.15 1210.07,-18.27"/>
<polygon fill="black" stroke="black" points="1209.86,-21.77 1219.84,-18.2 1209.81,-14.77 1209.86,-21.77"/>
</g>
</g>
</svg>
