<?xml version="1.0" encoding="UTF-8" standalone="no"?>
<!DOCTYPE svg PUBLIC "-//W3C//DTD SVG 1.1//EN"
 "http://www.w3.org/Graphics/SVG/1.1/DTD/svg11.dtd">
<!-- Generated by graphviz version 14.1.5 (20260411.2331)
 -->
<!-- Title: BiomeLegacyWorldGenRulesData Pages: 1 -->
<svg width="1440pt" height="260pt"
 viewBox="0.00 0.00 1440.00 260.00" xmlns="http://www.w3.org/2000/svg" xmlns:xlink="http://www.w3.org/1999/xlink">
<g id="graph0" class="graph" transform="scale(1 1) rotate(0) translate(4 256)">
<title>BiomeLegacyWorldGenRulesData</title>
<polygon fill="white" stroke="none" points="-4,4 -4,-256 1436.4,-256 1436.4,4 -4,4"/>
<!-- 0 -->
<!-- name: &quot;BiomeLegacyWorldGenRulesData&quot;, typeName: &quot;&quot;, id: 0, branchId: 0, recurseId: &#45;1, attributes: 0, notes: &quot;&quot; -->
<g id="node1" class="node">
<title>0</title>
<ellipse fill="none" stroke="black" cx="139.89" cy="-126" rx="139.89" ry="18"/>
<text xml:space="preserve" text-anchor="middle" x="139.89" y="-120.95" font-family="Times New Roman,serif" font-size="14.00">BiomeLegacyWorldGenRulesData</text>
</g>
<!-- 1 -->
<!-- name: &quot;legacy pre hills edge&quot;, typeName: &quot;&quot;, id: 1, branchId: 0, recurseId: &#45;1, attributes: 0, notes: &quot;&quot; -->
<g id="node2" class="node">
<title>1</title>
<ellipse fill="none" stroke="black" cx="403.48" cy="-126" rx="87.69" ry="18"/>
<text xml:space="preserve" text-anchor="middle" x="403.48" y="-120.95" font-family="Times New Roman,serif" font-size="14.00">legacy pre hills edge</text>
</g>
<!-- 0&#45;&gt;1 -->
<g id="edge1" class="edge">
<title>0&#45;&gt;1</title>
<path fill="none" stroke="black" d="M280.11,-126C288.14,-126 296.14,-126 303.96,-126"/>
<polygon fill="black" stroke="black" points="303.78,-129.5 313.78,-126 303.78,-122.5 303.78,-129.5"/>
</g>
<!-- 2 -->
<!-- name: &quot;List Size&quot;, typeName: &quot;&quot;, id: 2, branchId: 0, recurseId: &#45;1, attributes: 0, notes: &quot;&quot; -->
<g id="node3" class="node">
<title>2</title>
<ellipse fill="none" stroke="black" cx="602.06" cy="-164" rx="43.67" ry="18"/>
<text xml:space="preserve" text-anchor="middle" x="602.06" y="-158.95" font-family="Times New Roman,serif" font-size="14.00">List Size</text>
</g>
<!-- 1&#45;&gt;2 -->
<g id="edge2" class="edge">
<title>1&#45;&gt;2</title>
<path fill="none" stroke="black" d="M468.58,-138.39C495.3,-143.56 525.87,-149.46 550.91,-154.3"/>
<polygon fill="black" stroke="black" points="550.02,-157.7 560.5,-156.16 551.35,-150.82 550.02,-157.7"/>
</g>
<!-- 4 -->
<!-- name: &quot;example element&quot;, typeName: &quot;&quot;, id: 4, branchId: 0, recurseId: &#45;1, attributes: 16, notes: &quot;&quot; -->
<g id="node5" class="node">
<title>4</title>
<ellipse fill="none" stroke="black" stroke-dasharray="1,5" cx="602.06" cy="-99" rx="74.89" ry="18"/>
<text xml:space="preserve" text-anchor="middle" x="602.06" y="-93.95" font-family="Times New Roman,serif" font-size="14.00">example element</text>
</g>
<!-- 1&#45;&gt;4 -->
<g id="edge4" class="edge">
<title>1&#45;&gt;4</title>
<path fill="none" stroke="black" d="M477.4,-115.98C492.87,-113.86 509.25,-111.61 524.85,-109.47"/>
<polygon fill="black" stroke="black" points="525.11,-112.97 534.54,-108.14 524.16,-106.03 525.11,-112.97"/>
</g>
<!-- 3 -->
<!-- name: &quot;unsigned varint&quot;, typeName: &quot;&quot;, id: 3, branchId: 0, recurseId: &#45;1, attributes: 0, notes: &quot;&quot; -->
<g id="node4" class="node">
<title>3</title>
<ellipse fill="none" stroke="black" cx="807.81" cy="-178" rx="68.24" ry="18"/>
<text xml:space="preserve" text-anchor="middle" x="807.81" y="-172.95" font-family="Times New Roman,serif" font-size="14.00">unsigned varint</text>
</g>
<!-- 2&#45;&gt;3 -->
<g id="edge3" class="edge">
<title>2&#45;&gt;3</title>
<path fill="none" stroke="black" d="M645.28,-166.9C669.77,-168.58 701.36,-170.75 730.1,-172.73"/>
<polygon fill="black" stroke="black" points="729.65,-176.21 739.87,-173.4 730.13,-169.22 729.65,-176.21"/>
</g>
<!-- 5 -->
<!-- name: &quot;transforms into&quot;, typeName: &quot;&quot;, id: 5, branchId: 0, recurseId: &#45;1, attributes: 0, notes: &quot;&quot; -->
<g id="node6" class="node">
<title>5</title>
<ellipse fill="none" stroke="black" cx="807.81" cy="-124" rx="67.73" ry="18"/>
<text xml:space="preserve" text-anchor="middle" x="807.81" y="-118.95" font-family="Times New Roman,serif" font-size="14.00">transforms into</text>
</g>
<!-- 4&#45;&gt;5 -->
<g id="edge5" class="edge">
<title>4&#45;&gt;5</title>
<path fill="none" stroke="black" d="M669.5,-107.15C690.27,-109.7 713.28,-112.52 734.44,-115.12"/>
<polygon fill="black" stroke="black" points="733.79,-118.57 744.14,-116.31 734.64,-111.62 733.79,-118.57"/>
</g>
<!-- 13 -->
<!-- name: &quot;condition json&quot;, typeName: &quot;&quot;, id: 13, branchId: 0, recurseId: &#45;1, attributes: 0, notes: &quot;&quot; -->
<g id="node14" class="node">
<title>13</title>
<ellipse fill="none" stroke="black" cx="1013.56" cy="-72" rx="63.63" ry="18"/>
<text xml:space="preserve" text-anchor="middle" x="1013.56" y="-66.95" font-family="Times New Roman,serif" font-size="14.00">condition json</text>
</g>
<!-- 4&#45;&gt;13 -->
<g id="edge13" class="edge">
<title>4&#45;&gt;13</title>
<path fill="none" stroke="black" d="M674.86,-94.27C749.37,-89.35 865.26,-81.71 940.04,-76.78"/>
<polygon fill="black" stroke="black" points="939.96,-80.29 949.71,-76.14 939.5,-73.31 939.96,-80.29"/>
</g>
<!-- 15 -->
<!-- name: &quot;min passing neighbors&quot;, typeName: &quot;&quot;, id: 15, branchId: 0, recurseId: &#45;1, attributes: 0, notes: &quot;&quot; -->
<g id="node16" class="node">
<title>15</title>
<ellipse fill="none" stroke="black" cx="807.81" cy="-26" rx="94.86" ry="18"/>
<text xml:space="preserve" text-anchor="middle" x="807.81" y="-20.95" font-family="Times New Roman,serif" font-size="14.00">min passing neighbors</text>
</g>
<!-- 4&#45;&gt;15 -->
<g id="edge15" class="edge">
<title>4&#45;&gt;15</title>
<path fill="none" stroke="black" d="M645.28,-83.87C675.99,-72.87 717.87,-57.87 751.29,-45.89"/>
<polygon fill="black" stroke="black" points="752.16,-49.3 760.4,-42.63 749.8,-42.71 752.16,-49.3"/>
</g>
<!-- 6 -->
<!-- name: &quot;List Size&quot;, typeName: &quot;&quot;, id: 6, branchId: 0, recurseId: &#45;1, attributes: 0, notes: &quot;&quot; -->
<g id="node7" class="node">
<title>6</title>
<ellipse fill="none" stroke="black" cx="1013.56" cy="-207" rx="43.67" ry="18"/>
<text xml:space="preserve" text-anchor="middle" x="1013.56" y="-201.95" font-family="Times New Roman,serif" font-size="14.00">List Size</text>
</g>
<!-- 5&#45;&gt;6 -->
<g id="edge6" class="edge">
<title>5&#45;&gt;6</title>
<path fill="none" stroke="black" d="M858.12,-136.27C872.66,-140.4 888.47,-145.4 902.67,-151 928.52,-161.2 956.4,-175.44 977.61,-187.02"/>
<polygon fill="black" stroke="black" points="975.68,-189.95 986.12,-191.72 979.06,-183.82 975.68,-189.95"/>
</g>
<!-- 8 -->
<!-- name: &quot;example element&quot;, typeName: &quot;&quot;, id: 8, branchId: 0, recurseId: &#45;1, attributes: 16, notes: &quot;&quot; -->
<g id="node9" class="node">
<title>8</title>
<ellipse fill="none" stroke="black" stroke-dasharray="1,5" cx="1013.56" cy="-126" rx="74.89" ry="18"/>
<text xml:space="preserve" text-anchor="middle" x="1013.56" y="-120.95" font-family="Times New Roman,serif" font-size="14.00">example element</text>
</g>
<!-- 5&#45;&gt;8 -->
<g id="edge8" class="edge">
<title>5&#45;&gt;8</title>
<path fill="none" stroke="black" d="M875.81,-124.66C892.27,-124.82 910.11,-124.99 927.3,-125.16"/>
<polygon fill="black" stroke="black" points="926.94,-128.66 936.97,-125.26 927.01,-121.66 926.94,-128.66"/>
</g>
<!-- 7 -->
<!-- name: &quot;unsigned varint&quot;, typeName: &quot;&quot;, id: 7, branchId: 0, recurseId: &#45;1, attributes: 0, notes: &quot;&quot; -->
<g id="node8" class="node">
<title>7</title>
<ellipse fill="none" stroke="black" cx="1195.26" cy="-234" rx="68.24" ry="18"/>
<text xml:space="preserve" text-anchor="middle" x="1195.26" y="-228.95" font-family="Times New Roman,serif" font-size="14.00">unsigned varint</text>
</g>
<!-- 6&#45;&gt;7 -->
<g id="edge7" class="edge">
<title>6&#45;&gt;7</title>
<path fill="none" stroke="black" d="M1054.89,-213.06C1075.25,-216.12 1100.55,-219.92 1123.98,-223.44"/>
<polygon fill="black" stroke="black" points="1123.4,-226.89 1133.81,-224.92 1124.44,-219.97 1123.4,-226.89"/>
</g>
<!-- 9 -->
<!-- name: &quot;biome identifier&quot;, typeName: &quot;&quot;, id: 9, branchId: 0, recurseId: &#45;1, attributes: 0, notes: &quot;&quot; -->
<g id="node10" class="node">
<title>9</title>
<ellipse fill="none" stroke="black" cx="1195.26" cy="-180" rx="70.8" ry="18"/>
<text xml:space="preserve" text-anchor="middle" x="1195.26" y="-174.95" font-family="Times New Roman,serif" font-size="14.00">biome identifier</text>
</g>
<!-- 8&#45;&gt;9 -->
<g id="edge9" class="edge">
<title>8&#45;&gt;9</title>
<path fill="none" stroke="black" d="M1061.77,-140.19C1084.95,-147.15 1113.05,-155.6 1137.4,-162.91"/>
<polygon fill="black" stroke="black" points="1136.26,-166.23 1146.84,-165.75 1138.27,-159.52 1136.26,-166.23"/>
</g>
<!-- 11 -->
<!-- name: &quot;weight&quot;, typeName: &quot;&quot;, id: 11, branchId: 0, recurseId: &#45;1, attributes: 0, notes: &quot;&quot; -->
<g id="node12" class="node">
<title>11</title>
<ellipse fill="none" stroke="black" cx="1195.26" cy="-126" rx="36" ry="18"/>
<text xml:space="preserve" text-anchor="middle" x="1195.26" y="-120.95" font-family="Times New Roman,serif" font-size="14.00">weight</text>
</g>
<!-- 8&#45;&gt;11 -->
<g id="edge11" class="edge">
<title>8&#45;&gt;11</title>
<path fill="none" stroke="black" d="M1088.95,-126C1108.91,-126 1129.92,-126 1147.87,-126"/>
<polygon fill="black" stroke="black" points="1147.68,-129.5 1157.68,-126 1147.68,-122.5 1147.68,-129.5"/>
</g>
<!-- 10 -->
<!-- name: &quot;unsigned short&quot;, typeName: &quot;&quot;, id: 10, branchId: 0, recurseId: &#45;1, attributes: 512, notes: &quot;&quot; -->
<g id="node11" class="node">
<title>10</title>
<ellipse fill="none" stroke="black" cx="1367.23" cy="-180" rx="65.17" ry="18"/>
<text xml:space="preserve" text-anchor="middle" x="1367.23" y="-174.95" font-family="Times New Roman,serif" font-size="14.00">unsigned short</text>
</g>
<!-- 9&#45;&gt;10 -->
<g id="edge10" class="edge">
<title>9&#45;&gt;10</title>
<path fill="none" stroke="black" d="M1266.37,-180C1274.33,-180 1282.46,-180 1290.49,-180"/>
<polygon fill="black" stroke="black" points="1290.21,-183.5 1300.21,-180 1290.21,-176.5 1290.21,-183.5"/>
</g>
<!-- 12 -->
<!-- name: &quot;unsigned int&quot;, typeName: &quot;&quot;, id: 12, branchId: 0, recurseId: &#45;1, attributes: 512, notes: &quot;&quot; -->
<g id="node13" class="node">
<title>12</title>
<ellipse fill="none" stroke="black" cx="1367.23" cy="-126" rx="56.47" ry="18"/>
<text xml:space="preserve" text-anchor="middle" x="1367.23" y="-120.95" font-family="Times New Roman,serif" font-size="14.00">unsigned int</text>
</g>
<!-- 11&#45;&gt;12 -->
<g id="edge12" class="edge">
<title>11&#45;&gt;12</title>
<path fill="none" stroke="black" d="M1231.47,-126C1250.94,-126 1275.78,-126 1298.82,-126"/>
<polygon fill="black" stroke="black" points="1298.8,-129.5 1308.8,-126 1298.8,-122.5 1298.8,-129.5"/>
</g>
<!-- 14 -->
<!-- name: &quot;unsigned short&quot;, typeName: &quot;&quot;, id: 14, branchId: 0, recurseId: &#45;1, attributes: 512, notes: &quot;&quot; -->
<g id="node15" class="node">
<title>14</title>
<ellipse fill="none" stroke="black" cx="1367.23" cy="-72" rx="65.17" ry="18"/>
<text xml:space="preserve" text-anchor="middle" x="1367.23" y="-66.95" font-family="Times New Roman,serif" font-size="14.00">unsigned short</text>
</g>
<!-- 13&#45;&gt;14 -->
<g id="edge14" class="edge">
<title>13&#45;&gt;14</title>
<path fill="none" stroke="black" d="M1077.43,-72C1137.16,-72 1227.06,-72 1290.66,-72"/>
<polygon fill="black" stroke="black" points="1290.31,-75.5 1300.31,-72 1290.31,-68.5 1290.31,-75.5"/>
</g>
<!-- 16 -->
<!-- name: &quot;unsigned int&quot;, typeName: &quot;&quot;, id: 16, branchId: 0, recurseId: &#45;1, attributes: 512, notes: &quot;&quot; -->
<g id="node17" class="node">
<title>16</title>
<ellipse fill="none" stroke="black" cx="1367.23" cy="-18" rx="56.47" ry="18"/>
<text xml:space="preserve" text-anchor="middle" x="1367.23" y="-12.95" font-family="Times New Roman,serif" font-size="14.00">unsigned int</text>
</g>
<!-- 15&#45;&gt;16 -->
<g id="edge16" class="edge">
<title>15&#45;&gt;16</title>
<path fill="none" stroke="black" d="M902.74,-24.65C1015.11,-23.04 1200.41,-20.38 1299.24,-18.96"/>
<polygon fill="black" stroke="black" points="1299.11,-22.46 1309.05,-18.82 1299.01,-15.46 1299.11,-22.46"/>
</g>
</g>
</svg>
