<?xml version="1.0" encoding="UTF-8" standalone="no"?>
<!DOCTYPE svg PUBLIC "-//W3C//DTD SVG 1.1//EN"
 "http://www.w3.org/Graphics/SVG/1.1/DTD/svg11.dtd">
<!-- Generated by graphviz version 14.1.5 (20260411.2331)
 -->
<!-- Title: BiomeCoordinateData Pages: 1 -->
<svg width="663pt" height="368pt"
 viewBox="0.00 0.00 663.00 368.00" xmlns="http://www.w3.org/2000/svg" xmlns:xlink="http://www.w3.org/1999/xlink">
<g id="graph0" class="graph" transform="scale(1 1) rotate(0) translate(4 364)">
<title>BiomeCoordinateData</title>
<polygon fill="white" stroke="none" points="-4,4 -4,-364 659.46,-364 659.46,4 -4,4"/>
<!-- 0 -->
<!-- name: &quot;BiomeCoordinateData&quot;, typeName: &quot;&quot;, id: 0, branchId: 0, recurseId: &#45;1, attributes: 0, notes: &quot;&quot; -->
<g id="node1" class="node">
<title>0</title>
<ellipse fill="none" stroke="black" cx="94.34" cy="-180" rx="94.34" ry="18"/>
<text xml:space="preserve" text-anchor="middle" x="94.34" y="-174.95" font-family="Times New Roman,serif" font-size="14.00">BiomeCoordinateData</text>
</g>
<!-- 1 -->
<!-- name: &quot;min value type&quot;, typeName: &quot;&quot;, id: 1, branchId: 0, recurseId: &#45;1, attributes: 0, notes: &quot;&quot; -->
<g id="node2" class="node">
<title>1</title>
<ellipse fill="none" stroke="black" cx="292.93" cy="-342" rx="66.71" ry="18"/>
<text xml:space="preserve" text-anchor="middle" x="292.93" y="-336.95" font-family="Times New Roman,serif" font-size="14.00">min value type</text>
</g>
<!-- 0&#45;&gt;1 -->
<g id="edge1" class="edge">
<title>0&#45;&gt;1</title>
<path fill="none" stroke="black" d="M108.54,-198.09C130.03,-226.45 175.2,-281.56 224.69,-315 229.14,-318.01 233.99,-320.77 238.96,-323.28"/>
<polygon fill="black" stroke="black" points="237.36,-326.39 247.91,-327.43 240.31,-320.04 237.36,-326.39"/>
</g>
<!-- 3 -->
<!-- name: &quot;min value&quot;, typeName: &quot;&quot;, id: 3, branchId: 0, recurseId: &#45;1, attributes: 0, notes: &quot;&quot; -->
<g id="node4" class="node">
<title>3</title>
<ellipse fill="none" stroke="black" cx="292.93" cy="-288" rx="48.28" ry="18"/>
<text xml:space="preserve" text-anchor="middle" x="292.93" y="-282.95" font-family="Times New Roman,serif" font-size="14.00">min value</text>
</g>
<!-- 0&#45;&gt;3 -->
<g id="edge3" class="edge">
<title>0&#45;&gt;3</title>
<path fill="none" stroke="black" d="M120.33,-197.52C145.82,-214.94 186.9,-241.78 224.69,-261 231.7,-264.57 239.3,-268 246.78,-271.16"/>
<polygon fill="black" stroke="black" points="245.22,-274.3 255.8,-274.84 247.86,-267.82 245.22,-274.3"/>
</g>
<!-- 5 -->
<!-- name: &quot;max value type&quot;, typeName: &quot;&quot;, id: 5, branchId: 0, recurseId: &#45;1, attributes: 0, notes: &quot;&quot; -->
<g id="node6" class="node">
<title>5</title>
<ellipse fill="none" stroke="black" cx="292.93" cy="-234" rx="68.24" ry="18"/>
<text xml:space="preserve" text-anchor="middle" x="292.93" y="-228.95" font-family="Times New Roman,serif" font-size="14.00">max value type</text>
</g>
<!-- 0&#45;&gt;5 -->
<g id="edge5" class="edge">
<title>0&#45;&gt;5</title>
<path fill="none" stroke="black" d="M149.84,-194.97C175.79,-202.1 206.86,-210.63 233.32,-217.9"/>
<polygon fill="black" stroke="black" points="232.32,-221.26 242.89,-220.53 234.17,-214.51 232.32,-221.26"/>
</g>
<!-- 7 -->
<!-- name: &quot;max value&quot;, typeName: &quot;&quot;, id: 7, branchId: 0, recurseId: &#45;1, attributes: 0, notes: &quot;&quot; -->
<g id="node8" class="node">
<title>7</title>
<ellipse fill="none" stroke="black" cx="292.93" cy="-180" rx="49.82" ry="18"/>
<text xml:space="preserve" text-anchor="middle" x="292.93" y="-174.95" font-family="Times New Roman,serif" font-size="14.00">max value</text>
</g>
<!-- 0&#45;&gt;7 -->
<g id="edge7" class="edge">
<title>0&#45;&gt;7</title>
<path fill="none" stroke="black" d="M189.03,-180C203.41,-180 217.92,-180 231.33,-180"/>
<polygon fill="black" stroke="black" points="231.28,-183.5 241.28,-180 231.28,-176.5 231.28,-183.5"/>
</g>
<!-- 9 -->
<!-- name: &quot;grid offset&quot;, typeName: &quot;&quot;, id: 9, branchId: 0, recurseId: &#45;1, attributes: 0, notes: &quot;&quot; -->
<g id="node10" class="node">
<title>9</title>
<ellipse fill="none" stroke="black" cx="292.93" cy="-126" rx="49.3" ry="18"/>
<text xml:space="preserve" text-anchor="middle" x="292.93" y="-120.95" font-family="Times New Roman,serif" font-size="14.00">grid offset</text>
</g>
<!-- 0&#45;&gt;9 -->
<g id="edge9" class="edge">
<title>0&#45;&gt;9</title>
<path fill="none" stroke="black" d="M149.84,-165.03C178.63,-157.12 213.72,-147.48 241.83,-139.76"/>
<polygon fill="black" stroke="black" points="242.44,-143.22 251.16,-137.2 240.59,-136.47 242.44,-143.22"/>
</g>
<!-- 11 -->
<!-- name: &quot;grid step size&quot;, typeName: &quot;&quot;, id: 11, branchId: 0, recurseId: &#45;1, attributes: 0, notes: &quot;&quot; -->
<g id="node12" class="node">
<title>11</title>
<ellipse fill="none" stroke="black" cx="292.93" cy="-72" rx="60.05" ry="18"/>
<text xml:space="preserve" text-anchor="middle" x="292.93" y="-66.95" font-family="Times New Roman,serif" font-size="14.00">grid step size</text>
</g>
<!-- 0&#45;&gt;11 -->
<g id="edge11" class="edge">
<title>0&#45;&gt;11</title>
<path fill="none" stroke="black" d="M120.33,-162.48C145.82,-145.06 186.9,-118.22 224.69,-99 230.58,-96 236.88,-93.1 243.18,-90.38"/>
<polygon fill="black" stroke="black" points="244.43,-93.65 252.31,-86.56 241.73,-87.19 244.43,-93.65"/>
</g>
<!-- 13 -->
<!-- name: &quot;distribution&quot;, typeName: &quot;&quot;, id: 13, branchId: 0, recurseId: &#45;1, attributes: 0, notes: &quot;&quot; -->
<g id="node14" class="node">
<title>13</title>
<ellipse fill="none" stroke="black" cx="292.93" cy="-18" rx="53.4" ry="18"/>
<text xml:space="preserve" text-anchor="middle" x="292.93" y="-12.95" font-family="Times New Roman,serif" font-size="14.00">distribution</text>
</g>
<!-- 0&#45;&gt;13 -->
<g id="edge13" class="edge">
<title>0&#45;&gt;13</title>
<path fill="none" stroke="black" d="M108.54,-161.91C130.03,-133.55 175.2,-78.44 224.69,-45 230.23,-41.25 236.37,-37.9 242.62,-34.94"/>
<polygon fill="black" stroke="black" points="244.02,-38.14 251.77,-30.92 241.21,-31.73 244.02,-38.14"/>
</g>
<!-- 2 -->
<!-- name: &quot;varint&quot;, typeName: &quot;&quot;, id: 2, branchId: 0, recurseId: &#45;1, attributes: 512, notes: &quot;&quot; -->
<g id="node3" class="node">
<title>2</title>
<ellipse fill="none" stroke="black" cx="526.31" cy="-342" rx="32.41" ry="18"/>
<text xml:space="preserve" text-anchor="middle" x="526.31" y="-336.95" font-family="Times New Roman,serif" font-size="14.00">varint</text>
</g>
<!-- 1&#45;&gt;2 -->
<g id="edge2" class="edge">
<title>1&#45;&gt;2</title>
<path fill="none" stroke="black" d="M359.92,-342C399.29,-342 448.13,-342 482.5,-342"/>
<polygon fill="black" stroke="black" points="482.05,-345.5 492.05,-342 482.05,-338.5 482.05,-345.5"/>
</g>
<!-- 4 -->
<!-- name: &quot;unsigned short&quot;, typeName: &quot;&quot;, id: 4, branchId: 0, recurseId: &#45;1, attributes: 512, notes: &quot;&quot; -->
<g id="node5" class="node">
<title>4</title>
<ellipse fill="none" stroke="black" cx="526.31" cy="-288" rx="65.17" ry="18"/>
<text xml:space="preserve" text-anchor="middle" x="526.31" y="-282.95" font-family="Times New Roman,serif" font-size="14.00">unsigned short</text>
</g>
<!-- 3&#45;&gt;4 -->
<g id="edge4" class="edge">
<title>3&#45;&gt;4</title>
<path fill="none" stroke="black" d="M341.59,-288C372.75,-288 414.11,-288 449.71,-288"/>
<polygon fill="black" stroke="black" points="449.53,-291.5 459.53,-288 449.53,-284.5 449.53,-291.5"/>
</g>
<!-- 6 -->
<!-- name: &quot;varint&quot;, typeName: &quot;&quot;, id: 6, branchId: 0, recurseId: &#45;1, attributes: 512, notes: &quot;&quot; -->
<g id="node7" class="node">
<title>6</title>
<ellipse fill="none" stroke="black" cx="526.31" cy="-234" rx="32.41" ry="18"/>
<text xml:space="preserve" text-anchor="middle" x="526.31" y="-228.95" font-family="Times New Roman,serif" font-size="14.00">varint</text>
</g>
<!-- 5&#45;&gt;6 -->
<g id="edge6" class="edge">
<title>5&#45;&gt;6</title>
<path fill="none" stroke="black" d="M361.48,-234C400.5,-234 448.41,-234 482.31,-234"/>
<polygon fill="black" stroke="black" points="482.17,-237.5 492.17,-234 482.17,-230.5 482.17,-237.5"/>
</g>
<!-- 8 -->
<!-- name: &quot;unsigned short&quot;, typeName: &quot;&quot;, id: 8, branchId: 0, recurseId: &#45;1, attributes: 512, notes: &quot;&quot; -->
<g id="node9" class="node">
<title>8</title>
<ellipse fill="none" stroke="black" cx="526.31" cy="-180" rx="65.17" ry="18"/>
<text xml:space="preserve" text-anchor="middle" x="526.31" y="-174.95" font-family="Times New Roman,serif" font-size="14.00">unsigned short</text>
</g>
<!-- 7&#45;&gt;8 -->
<g id="edge8" class="edge">
<title>7&#45;&gt;8</title>
<path fill="none" stroke="black" d="M343,-180C374,-180 414.69,-180 449.76,-180"/>
<polygon fill="black" stroke="black" points="449.41,-183.5 459.41,-180 449.41,-176.5 449.41,-183.5"/>
</g>
<!-- 10 -->
<!-- name: &quot;unsigned int&quot;, typeName: &quot;&quot;, id: 10, branchId: 0, recurseId: &#45;1, attributes: 512, notes: &quot;&quot; -->
<g id="node11" class="node">
<title>10</title>
<ellipse fill="none" stroke="black" cx="526.31" cy="-126" rx="56.47" ry="18"/>
<text xml:space="preserve" text-anchor="middle" x="526.31" y="-120.95" font-family="Times New Roman,serif" font-size="14.00">unsigned int</text>
</g>
<!-- 9&#45;&gt;10 -->
<g id="edge10" class="edge">
<title>9&#45;&gt;10</title>
<path fill="none" stroke="black" d="M342.72,-126C376.36,-126 421.51,-126 458.49,-126"/>
<polygon fill="black" stroke="black" points="458.17,-129.5 468.17,-126 458.17,-122.5 458.17,-129.5"/>
</g>
<!-- 12 -->
<!-- name: &quot;unsigned int&quot;, typeName: &quot;&quot;, id: 12, branchId: 0, recurseId: &#45;1, attributes: 512, notes: &quot;&quot; -->
<g id="node13" class="node">
<title>12</title>
<ellipse fill="none" stroke="black" cx="526.31" cy="-72" rx="56.47" ry="18"/>
<text xml:space="preserve" text-anchor="middle" x="526.31" y="-66.95" font-family="Times New Roman,serif" font-size="14.00">unsigned int</text>
</g>
<!-- 11&#45;&gt;12 -->
<g id="edge12" class="edge">
<title>11&#45;&gt;12</title>
<path fill="none" stroke="black" d="M353.22,-72C385.2,-72 424.79,-72 457.93,-72"/>
<polygon fill="black" stroke="black" points="457.85,-75.5 467.85,-72 457.85,-68.5 457.85,-75.5"/>
</g>
<!-- 14 -->
<!-- name: &quot;enum RandomDistributionType&quot;, typeName: &quot;&quot;, id: 14, branchId: 0, recurseId: &#45;1, attributes: 512, notes: &quot;&quot; -->
<g id="node15" class="node">
<title>14</title>
<ellipse fill="none" stroke="black" cx="526.31" cy="-18" rx="129.15" ry="18"/>
<text xml:space="preserve" text-anchor="middle" x="526.31" y="-12.95" font-family="Times New Roman,serif" font-size="14.00">enum RandomDistributionType</text>
</g>
<!-- 13&#45;&gt;14 -->
<g id="edge14" class="edge">
<title>13&#45;&gt;14</title>
<path fill="none" stroke="black" d="M346.72,-18C358.72,-18 372.02,-18 385.78,-18"/>
<polygon fill="black" stroke="black" points="385.39,-21.5 395.39,-18 385.39,-14.5 385.39,-21.5"/>
</g>
</g>
</svg>
