<?xml version="1.0" encoding="UTF-8" standalone="no"?>
<!DOCTYPE svg PUBLIC "-//W3C//DTD SVG 1.1//EN"
 "http://www.w3.org/Graphics/SVG/1.1/DTD/svg11.dtd">
<!-- Generated by graphviz version 12.2.1 (20241206.2353)
 -->
<!-- Title: BiomeLegacyWorldGenRulesData Pages: 1 -->
<svg width="1246pt" height="98pt"
 viewBox="0.00 0.00 1245.90 98.00" xmlns="http://www.w3.org/2000/svg" xmlns:xlink="http://www.w3.org/1999/xlink">
<g id="graph0" class="graph" transform="scale(1 1) rotate(0) translate(4 94)">
<title>BiomeLegacyWorldGenRulesData</title>
<polygon fill="white" stroke="none" points="-4,4 -4,-94 1241.9,-94 1241.9,4 -4,4"/>
<!-- 360 -->
<!-- name: &quot;BiomeLegacyWorldGenRulesData&quot;, typeName: &quot;&quot;, id: 360, branchId: 0, recurseId: &#45;1, attributes: 0, notes: &quot;&quot; -->
<g id="node1" class="node">
<title>360</title>
<ellipse fill="none" stroke="black" cx="139.89" cy="-45" rx="139.89" ry="18"/>
<text text-anchor="middle" x="139.89" y="-39.95" font-family="Times New Roman,serif" font-size="14.00">BiomeLegacyWorldGenRulesData</text>
</g>
<!-- 361 -->
<!-- name: &quot;conditional transformation&quot;, typeName: &quot;&quot;, id: 361, branchId: 0, recurseId: &#45;1, attributes: 8, notes: &quot;&quot; -->
<g id="node2" class="node">
<title>361</title>
<ellipse fill="none" stroke="black" cx="425.49" cy="-45" rx="109.7" ry="18"/>
<text text-anchor="middle" x="425.49" y="-39.95" font-family="Times New Roman,serif" font-size="14.00">conditional transformation</text>
</g>
<!-- 360&#45;&gt;361 -->
<g id="edge1" class="edge">
<title>360&#45;&gt;361</title>
<path fill="none" stroke="black" d="M280.2,-45C288.29,-45 296.39,-45 304.4,-45"/>
<polygon fill="black" stroke="black" points="304.14,-48.5 314.14,-45 304.14,-41.5 304.14,-48.5"/>
</g>
<!-- 362 -->
<!-- name: &quot;List Size&quot;, typeName: &quot;&quot;, id: 362, branchId: 0, recurseId: &#45;1, attributes: 0, notes: &quot;&quot; -->
<g id="node3" class="node">
<title>362</title>
<ellipse fill="none" stroke="black" cx="824.7" cy="-72" rx="43.67" ry="18"/>
<text text-anchor="middle" x="824.7" y="-66.95" font-family="Times New Roman,serif" font-size="14.00">List Size</text>
</g>
<!-- 361&#45;&gt;362 -->
<g id="edge2" class="edge">
<title>361&#45;&gt;362</title>
<path fill="none" stroke="black" d="M527.75,-51.88C604.84,-57.12 707.92,-64.13 769.87,-68.34"/>
<polygon fill="black" stroke="black" points="769.59,-71.83 779.8,-69.02 770.07,-64.85 769.59,-71.83"/>
</g>
<!-- 364 -->
<!-- name: &quot;example element&quot;, typeName: &quot;&quot;, id: 364, branchId: 0, recurseId: &#45;1, attributes: 16, notes: &quot;&quot; -->
<g id="node5" class="node">
<title>364</title>
<ellipse fill="none" stroke="black" stroke-dasharray="1,5" cx="646.08" cy="-22" rx="74.89" ry="18"/>
<text text-anchor="middle" x="646.08" y="-16.95" font-family="Times New Roman,serif" font-size="14.00">example element</text>
</g>
<!-- 361&#45;&gt;364 -->
<g id="edge4" class="edge">
<title>361&#45;&gt;364</title>
<path fill="none" stroke="black" d="M518.87,-35.28C534.38,-33.65 550.35,-31.97 565.5,-30.37"/>
<polygon fill="black" stroke="black" points="565.82,-33.86 575.39,-29.33 565.08,-26.9 565.82,-33.86"/>
</g>
<!-- 363 -->
<!-- name: &quot;unsigned varint&quot;, typeName: &quot;&quot;, id: 363, branchId: 0, recurseId: &#45;1, attributes: 512, notes: &quot;&quot; -->
<g id="node4" class="node">
<title>363</title>
<ellipse fill="none" stroke="black" cx="1083.17" cy="-72" rx="68.24" ry="18"/>
<text text-anchor="middle" x="1083.17" y="-66.95" font-family="Times New Roman,serif" font-size="14.00">unsigned varint</text>
</g>
<!-- 362&#45;&gt;363 -->
<g id="edge3" class="edge">
<title>362&#45;&gt;363</title>
<path fill="none" stroke="black" d="M868.63,-72C905.23,-72 958.79,-72 1003.12,-72"/>
<polygon fill="black" stroke="black" points="1002.95,-75.5 1012.95,-72 1002.95,-68.5 1002.95,-75.5"/>
</g>
<!-- 365 -->
<!-- name: &quot;legacy pre hills&quot;, typeName: &quot;BiomeConditionalTransformationData&quot;, id: 365, branchId: 0, recurseId: &#45;1, attributes: 256, notes: &quot;&quot; -->
<g id="node6" class="node">
<title>365</title>
<ellipse fill="none" stroke="black" cx="824.7" cy="-18" rx="67.73" ry="18"/>
<text text-anchor="middle" x="824.7" y="-12.95" font-family="Times New Roman,serif" font-size="14.00">legacy pre hills</text>
</g>
<!-- 364&#45;&gt;365 -->
<g id="edge5" class="edge">
<title>364&#45;&gt;365</title>
<path fill="none" stroke="black" d="M720.96,-20.33C729.05,-20.14 737.32,-19.96 745.46,-19.77"/>
<polygon fill="black" stroke="black" points="745.44,-23.27 755.36,-19.55 745.28,-16.28 745.44,-23.27"/>
</g>
<!-- 366 -->
<!-- name: &quot;BiomeConditionalTransformationData&quot;, typeName: &quot;&quot;, id: 366, branchId: 0, recurseId: &#45;1, attributes: 512, notes: &quot;&quot; -->
<g id="node7" class="node">
<title>366</title>
<ellipse fill="none" stroke="black" cx="1083.17" cy="-18" rx="154.74" ry="18"/>
<text text-anchor="middle" x="1083.17" y="-12.95" font-family="Times New Roman,serif" font-size="14.00">BiomeConditionalTransformationData</text>
</g>
<!-- 365&#45;&gt;366 -->
<g id="edge6" class="edge">
<title>365&#45;&gt;366</title>
<path fill="none" stroke="black" d="M892.75,-18C900.4,-18 908.44,-18 916.69,-18"/>
<polygon fill="black" stroke="black" points="916.57,-21.5 926.57,-18 916.57,-14.5 916.57,-21.5"/>
</g>
</g>
</svg>
