<?xml version="1.0" encoding="UTF-8" standalone="no"?>
<!DOCTYPE svg PUBLIC "-//W3C//DTD SVG 1.1//EN"
 "http://www.w3.org/Graphics/SVG/1.1/DTD/svg11.dtd">
<!-- Generated by graphviz version 14.1.5 (20260411.2331)
 -->
<!-- Title: BiomeNoiseGradientSurfaceData Pages: 1 -->
<svg width="866pt" height="422pt"
 viewBox="0.00 0.00 866.00 422.00" xmlns="http://www.w3.org/2000/svg" xmlns:xlink="http://www.w3.org/1999/xlink">
<g id="graph0" class="graph" transform="scale(1 1) rotate(0) translate(4 418)">
<title>BiomeNoiseGradientSurfaceData</title>
<polygon fill="white" stroke="none" points="-4,4 -4,-418 861.63,-418 861.63,4 -4,4"/>
<!-- 0 -->
<!-- name: &quot;BiomeNoiseGradientSurfaceData&quot;, typeName: &quot;&quot;, id: 0, branchId: 0, recurseId: &#45;1, attributes: 0, notes: &quot;&quot; -->
<g id="node1" class="node">
<title>0</title>
<ellipse fill="none" stroke="black" cx="135.29" cy="-180" rx="135.29" ry="18"/>
<text xml:space="preserve" text-anchor="middle" x="135.29" y="-174.95" font-family="Times New Roman,serif" font-size="14.00">BiomeNoiseGradientSurfaceData</text>
</g>
<!-- 1 -->
<!-- name: &quot;non&#45;replaceable blocks&quot;, typeName: &quot;&quot;, id: 1, branchId: 0, recurseId: &#45;1, attributes: 0, notes: &quot;&quot; -->
<g id="node2" class="node">
<title>1</title>
<ellipse fill="none" stroke="black" cx="402.97" cy="-342" rx="96.39" ry="18"/>
<text xml:space="preserve" text-anchor="middle" x="402.97" y="-336.95" font-family="Times New Roman,serif" font-size="14.00">non&#45;replaceable blocks</text>
</g>
<!-- 0&#45;&gt;1 -->
<g id="edge1" class="edge">
<title>0&#45;&gt;1</title>
<path fill="none" stroke="black" d="M165.74,-197.96C213.97,-227.36 309.78,-285.79 363.38,-318.47"/>
<polygon fill="black" stroke="black" points="361.54,-321.45 371.9,-323.67 365.19,-315.47 361.54,-321.45"/>
</g>
<!-- 6 -->
<!-- name: &quot;gradient blocks&quot;, typeName: &quot;&quot;, id: 6, branchId: 0, recurseId: &#45;1, attributes: 0, notes: &quot;&quot; -->
<g id="node7" class="node">
<title>6</title>
<ellipse fill="none" stroke="black" cx="402.97" cy="-234" rx="67.73" ry="18"/>
<text xml:space="preserve" text-anchor="middle" x="402.97" y="-228.95" font-family="Times New Roman,serif" font-size="14.00">gradient blocks</text>
</g>
<!-- 0&#45;&gt;6 -->
<g id="edge6" class="edge">
<title>0&#45;&gt;6</title>
<path fill="none" stroke="black" d="M211.36,-195.26C251.02,-203.32 299.22,-213.12 337.22,-220.84"/>
<polygon fill="black" stroke="black" points="336.18,-224.2 346.68,-222.76 337.57,-217.34 336.18,-224.2"/>
</g>
<!-- 11 -->
<!-- name: &quot;noise seed string&quot;, typeName: &quot;&quot;, id: 11, branchId: 0, recurseId: &#45;1, attributes: 0, notes: &quot;&quot; -->
<g id="node12" class="node">
<title>11</title>
<ellipse fill="none" stroke="black" cx="402.97" cy="-180" rx="72.85" ry="18"/>
<text xml:space="preserve" text-anchor="middle" x="402.97" y="-174.95" font-family="Times New Roman,serif" font-size="14.00">noise seed string</text>
</g>
<!-- 0&#45;&gt;11 -->
<g id="edge11" class="edge">
<title>0&#45;&gt;11</title>
<path fill="none" stroke="black" d="M271.07,-180C287.25,-180 303.38,-180 318.52,-180"/>
<polygon fill="black" stroke="black" points="318.37,-183.5 328.37,-180 318.37,-176.5 318.37,-183.5"/>
</g>
<!-- 13 -->
<!-- name: &quot;first octave&quot;, typeName: &quot;&quot;, id: 13, branchId: 0, recurseId: &#45;1, attributes: 0, notes: &quot;&quot; -->
<g id="node14" class="node">
<title>13</title>
<ellipse fill="none" stroke="black" cx="402.97" cy="-126" rx="52.38" ry="18"/>
<text xml:space="preserve" text-anchor="middle" x="402.97" y="-120.95" font-family="Times New Roman,serif" font-size="14.00">first octave</text>
</g>
<!-- 0&#45;&gt;13 -->
<g id="edge13" class="edge">
<title>0&#45;&gt;13</title>
<path fill="none" stroke="black" d="M211.36,-164.74C254.09,-156.06 306.73,-145.36 345.86,-137.4"/>
<polygon fill="black" stroke="black" points="346.44,-140.86 355.55,-135.43 345.05,-134 346.44,-140.86"/>
</g>
<!-- 15 -->
<!-- name: &quot;amplitudes&quot;, typeName: &quot;&quot;, id: 15, branchId: 0, recurseId: &#45;1, attributes: 0, notes: &quot;&quot; -->
<g id="node16" class="node">
<title>15</title>
<ellipse fill="none" stroke="black" cx="402.97" cy="-72" rx="51.86" ry="18"/>
<text xml:space="preserve" text-anchor="middle" x="402.97" y="-66.95" font-family="Times New Roman,serif" font-size="14.00">amplitudes</text>
</g>
<!-- 0&#45;&gt;15 -->
<g id="edge15" class="edge">
<title>0&#45;&gt;15</title>
<path fill="none" stroke="black" d="M169.49,-162.15C203.29,-144.48 257.55,-117.45 306.58,-99 320.05,-93.93 334.9,-89.29 348.79,-85.34"/>
<polygon fill="black" stroke="black" points="349.52,-88.77 358.22,-82.73 347.65,-82.03 349.52,-88.77"/>
</g>
<!-- 2 -->
<!-- name: &quot;List Size&quot;, typeName: &quot;&quot;, id: 2, branchId: 0, recurseId: &#45;1, attributes: 0, notes: &quot;&quot; -->
<g id="node3" class="node">
<title>2</title>
<ellipse fill="none" stroke="black" cx="610.25" cy="-396" rx="43.67" ry="18"/>
<text xml:space="preserve" text-anchor="middle" x="610.25" y="-390.95" font-family="Times New Roman,serif" font-size="14.00">List Size</text>
</g>
<!-- 1&#45;&gt;2 -->
<g id="edge2" class="edge">
<title>1&#45;&gt;2</title>
<path fill="none" stroke="black" d="M460.33,-356.83C492.12,-365.19 531.39,-375.52 561.63,-383.47"/>
<polygon fill="black" stroke="black" points="560.71,-386.85 571.27,-386.01 562.49,-380.08 560.71,-386.85"/>
</g>
<!-- 4 -->
<!-- name: &quot;example element&quot;, typeName: &quot;&quot;, id: 4, branchId: 0, recurseId: &#45;1, attributes: 16, notes: &quot;&quot; -->
<g id="node5" class="node">
<title>4</title>
<ellipse fill="none" stroke="black" stroke-dasharray="1,5" cx="610.25" cy="-342" rx="74.89" ry="18"/>
<text xml:space="preserve" text-anchor="middle" x="610.25" y="-336.95" font-family="Times New Roman,serif" font-size="14.00">example element</text>
</g>
<!-- 1&#45;&gt;4 -->
<g id="edge4" class="edge">
<title>1&#45;&gt;4</title>
<path fill="none" stroke="black" d="M499.7,-342C507.63,-342 515.62,-342 523.48,-342"/>
<polygon fill="black" stroke="black" points="523.36,-345.5 533.36,-342 523.36,-338.5 523.36,-345.5"/>
</g>
<!-- 3 -->
<!-- name: &quot;unsigned varint&quot;, typeName: &quot;&quot;, id: 3, branchId: 0, recurseId: &#45;1, attributes: 0, notes: &quot;&quot; -->
<g id="node4" class="node">
<title>3</title>
<ellipse fill="none" stroke="black" cx="789.39" cy="-396" rx="68.24" ry="18"/>
<text xml:space="preserve" text-anchor="middle" x="789.39" y="-390.95" font-family="Times New Roman,serif" font-size="14.00">unsigned varint</text>
</g>
<!-- 2&#45;&gt;3 -->
<g id="edge3" class="edge">
<title>2&#45;&gt;3</title>
<path fill="none" stroke="black" d="M654.13,-396C670.74,-396 690.31,-396 709.29,-396"/>
<polygon fill="black" stroke="black" points="709.17,-399.5 719.17,-396 709.17,-392.5 709.17,-399.5"/>
</g>
<!-- 5 -->
<!-- name: &quot;unsigned int&quot;, typeName: &quot;&quot;, id: 5, branchId: 0, recurseId: &#45;1, attributes: 512, notes: &quot;&quot; -->
<g id="node6" class="node">
<title>5</title>
<ellipse fill="none" stroke="black" cx="789.39" cy="-342" rx="56.47" ry="18"/>
<text xml:space="preserve" text-anchor="middle" x="789.39" y="-336.95" font-family="Times New Roman,serif" font-size="14.00">unsigned int</text>
</g>
<!-- 4&#45;&gt;5 -->
<g id="edge5" class="edge">
<title>4&#45;&gt;5</title>
<path fill="none" stroke="black" d="M685.6,-342C697.39,-342 709.52,-342 721.14,-342"/>
<polygon fill="black" stroke="black" points="721.03,-345.5 731.03,-342 721.03,-338.5 721.03,-345.5"/>
</g>
<!-- 7 -->
<!-- name: &quot;List Size&quot;, typeName: &quot;&quot;, id: 7, branchId: 0, recurseId: &#45;1, attributes: 0, notes: &quot;&quot; -->
<g id="node8" class="node">
<title>7</title>
<ellipse fill="none" stroke="black" cx="610.25" cy="-288" rx="43.67" ry="18"/>
<text xml:space="preserve" text-anchor="middle" x="610.25" y="-282.95" font-family="Times New Roman,serif" font-size="14.00">List Size</text>
</g>
<!-- 6&#45;&gt;7 -->
<g id="edge7" class="edge">
<title>6&#45;&gt;7</title>
<path fill="none" stroke="black" d="M452.36,-246.73C485.33,-255.4 528.8,-266.84 561.61,-275.47"/>
<polygon fill="black" stroke="black" points="560.72,-278.85 571.28,-278.01 562.5,-272.08 560.72,-278.85"/>
</g>
<!-- 9 -->
<!-- name: &quot;example element&quot;, typeName: &quot;&quot;, id: 9, branchId: 0, recurseId: &#45;1, attributes: 16, notes: &quot;&quot; -->
<g id="node10" class="node">
<title>9</title>
<ellipse fill="none" stroke="black" stroke-dasharray="1,5" cx="610.25" cy="-234" rx="74.89" ry="18"/>
<text xml:space="preserve" text-anchor="middle" x="610.25" y="-228.95" font-family="Times New Roman,serif" font-size="14.00">example element</text>
</g>
<!-- 6&#45;&gt;9 -->
<g id="edge9" class="edge">
<title>6&#45;&gt;9</title>
<path fill="none" stroke="black" d="M471.18,-234C487.97,-234 506.2,-234 523.74,-234"/>
<polygon fill="black" stroke="black" points="523.63,-237.5 533.63,-234 523.63,-230.5 523.63,-237.5"/>
</g>
<!-- 8 -->
<!-- name: &quot;unsigned varint&quot;, typeName: &quot;&quot;, id: 8, branchId: 0, recurseId: &#45;1, attributes: 0, notes: &quot;&quot; -->
<g id="node9" class="node">
<title>8</title>
<ellipse fill="none" stroke="black" cx="789.39" cy="-288" rx="68.24" ry="18"/>
<text xml:space="preserve" text-anchor="middle" x="789.39" y="-282.95" font-family="Times New Roman,serif" font-size="14.00">unsigned varint</text>
</g>
<!-- 7&#45;&gt;8 -->
<g id="edge8" class="edge">
<title>7&#45;&gt;8</title>
<path fill="none" stroke="black" d="M654.13,-288C670.74,-288 690.31,-288 709.29,-288"/>
<polygon fill="black" stroke="black" points="709.17,-291.5 719.17,-288 709.17,-284.5 709.17,-291.5"/>
</g>
<!-- 10 -->
<!-- name: &quot;unsigned int&quot;, typeName: &quot;&quot;, id: 10, branchId: 0, recurseId: &#45;1, attributes: 512, notes: &quot;&quot; -->
<g id="node11" class="node">
<title>10</title>
<ellipse fill="none" stroke="black" cx="789.39" cy="-234" rx="56.47" ry="18"/>
<text xml:space="preserve" text-anchor="middle" x="789.39" y="-228.95" font-family="Times New Roman,serif" font-size="14.00">unsigned int</text>
</g>
<!-- 9&#45;&gt;10 -->
<g id="edge10" class="edge">
<title>9&#45;&gt;10</title>
<path fill="none" stroke="black" d="M685.6,-234C697.39,-234 709.52,-234 721.14,-234"/>
<polygon fill="black" stroke="black" points="721.03,-237.5 731.03,-234 721.03,-230.5 721.03,-237.5"/>
</g>
<!-- 12 -->
<!-- name: &quot;string&quot;, typeName: &quot;&quot;, id: 12, branchId: 0, recurseId: &#45;1, attributes: 512, notes: &quot;&quot; -->
<g id="node13" class="node">
<title>12</title>
<ellipse fill="none" stroke="black" cx="789.39" cy="-180" rx="31.9" ry="18"/>
<text xml:space="preserve" text-anchor="middle" x="789.39" y="-174.95" font-family="Times New Roman,serif" font-size="14.00">string</text>
</g>
<!-- 11&#45;&gt;12 -->
<g id="edge12" class="edge">
<title>11&#45;&gt;12</title>
<path fill="none" stroke="black" d="M476.27,-180C555.72,-180 680.66,-180 745.75,-180"/>
<polygon fill="black" stroke="black" points="745.67,-183.5 755.67,-180 745.67,-176.5 745.67,-183.5"/>
</g>
<!-- 14 -->
<!-- name: &quot;int&quot;, typeName: &quot;&quot;, id: 14, branchId: 0, recurseId: &#45;1, attributes: 512, notes: &quot;&quot; -->
<g id="node15" class="node">
<title>14</title>
<ellipse fill="none" stroke="black" cx="789.39" cy="-126" rx="27" ry="18"/>
<text xml:space="preserve" text-anchor="middle" x="789.39" y="-120.95" font-family="Times New Roman,serif" font-size="14.00">int</text>
</g>
<!-- 13&#45;&gt;14 -->
<g id="edge14" class="edge">
<title>13&#45;&gt;14</title>
<path fill="none" stroke="black" d="M455.81,-126C534.47,-126 682.08,-126 751.07,-126"/>
<polygon fill="black" stroke="black" points="750.71,-129.5 760.71,-126 750.71,-122.5 750.71,-129.5"/>
</g>
<!-- 16 -->
<!-- name: &quot;List Size&quot;, typeName: &quot;&quot;, id: 16, branchId: 0, recurseId: &#45;1, attributes: 0, notes: &quot;&quot; -->
<g id="node17" class="node">
<title>16</title>
<ellipse fill="none" stroke="black" cx="610.25" cy="-72" rx="43.67" ry="18"/>
<text xml:space="preserve" text-anchor="middle" x="610.25" y="-66.95" font-family="Times New Roman,serif" font-size="14.00">List Size</text>
</g>
<!-- 15&#45;&gt;16 -->
<g id="edge16" class="edge">
<title>15&#45;&gt;16</title>
<path fill="none" stroke="black" d="M455.24,-72C485.57,-72 523.96,-72 554.82,-72"/>
<polygon fill="black" stroke="black" points="554.73,-75.5 564.73,-72 554.73,-68.5 554.73,-75.5"/>
</g>
<!-- 18 -->
<!-- name: &quot;example element&quot;, typeName: &quot;&quot;, id: 18, branchId: 0, recurseId: &#45;1, attributes: 16, notes: &quot;&quot; -->
<g id="node19" class="node">
<title>18</title>
<ellipse fill="none" stroke="black" stroke-dasharray="1,5" cx="610.25" cy="-18" rx="74.89" ry="18"/>
<text xml:space="preserve" text-anchor="middle" x="610.25" y="-12.95" font-family="Times New Roman,serif" font-size="14.00">example element</text>
</g>
<!-- 15&#45;&gt;18 -->
<g id="edge18" class="edge">
<title>15&#45;&gt;18</title>
<path fill="none" stroke="black" d="M445.02,-61.2C474.34,-53.49 514.32,-42.97 547.49,-34.25"/>
<polygon fill="black" stroke="black" points="548.21,-37.68 556.99,-31.75 546.43,-30.91 548.21,-37.68"/>
</g>
<!-- 17 -->
<!-- name: &quot;unsigned varint&quot;, typeName: &quot;&quot;, id: 17, branchId: 0, recurseId: &#45;1, attributes: 0, notes: &quot;&quot; -->
<g id="node18" class="node">
<title>17</title>
<ellipse fill="none" stroke="black" cx="789.39" cy="-72" rx="68.24" ry="18"/>
<text xml:space="preserve" text-anchor="middle" x="789.39" y="-66.95" font-family="Times New Roman,serif" font-size="14.00">unsigned varint</text>
</g>
<!-- 16&#45;&gt;17 -->
<g id="edge17" class="edge">
<title>16&#45;&gt;17</title>
<path fill="none" stroke="black" d="M654.13,-72C670.74,-72 690.31,-72 709.29,-72"/>
<polygon fill="black" stroke="black" points="709.17,-75.5 719.17,-72 709.17,-68.5 709.17,-75.5"/>
</g>
<!-- 19 -->
<!-- name: &quot;float&quot;, typeName: &quot;&quot;, id: 19, branchId: 0, recurseId: &#45;1, attributes: 512, notes: &quot;&quot; -->
<g id="node20" class="node">
<title>19</title>
<ellipse fill="none" stroke="black" cx="789.39" cy="-18" rx="27.81" ry="18"/>
<text xml:space="preserve" text-anchor="middle" x="789.39" y="-12.95" font-family="Times New Roman,serif" font-size="14.00">float</text>
</g>
<!-- 18&#45;&gt;19 -->
<g id="edge19" class="edge">
<title>18&#45;&gt;19</title>
<path fill="none" stroke="black" d="M685.6,-18C707.77,-18 731.15,-18 750,-18"/>
<polygon fill="black" stroke="black" points="749.88,-21.5 759.88,-18 749.88,-14.5 749.88,-21.5"/>
</g>
</g>
</svg>
