<?xml version="1.0" encoding="UTF-8" standalone="no"?>
<!DOCTYPE svg PUBLIC "-//W3C//DTD SVG 1.1//EN"
 "http://www.w3.org/Graphics/SVG/1.1/DTD/svg11.dtd">
<!-- Generated by graphviz version 12.2.1 (20241206.2353)
 -->
<!-- Title: BiomeMountainParamsData Pages: 1 -->
<svg width="517pt" height="314pt"
 viewBox="0.00 0.00 517.08 314.00" xmlns="http://www.w3.org/2000/svg" xmlns:xlink="http://www.w3.org/1999/xlink">
<g id="graph0" class="graph" transform="scale(1 1) rotate(0) translate(4 310)">
<title>BiomeMountainParamsData</title>
<polygon fill="white" stroke="none" points="-4,4 -4,-310 513.08,-310 513.08,4 -4,4"/>
<!-- 149 -->
<!-- name: &quot;BiomeMountainParamsData&quot;, typeName: &quot;&quot;, id: 149, branchId: 0, recurseId: &#45;1, attributes: 0, notes: &quot;&quot; -->
<g id="node1" class="node">
<title>149</title>
<ellipse fill="none" stroke="black" cx="117.37" cy="-153" rx="117.37" ry="18"/>
<text text-anchor="middle" x="117.37" y="-147.95" font-family="Times New Roman,serif" font-size="14.00">BiomeMountainParamsData</text>
</g>
<!-- 150 -->
<!-- name: &quot;steep block&quot;, typeName: &quot;int&quot;, id: 150, branchId: 0, recurseId: &#45;1, attributes: 256, notes: &quot;&quot; -->
<g id="node2" class="node">
<title>150</title>
<ellipse fill="none" stroke="black" cx="344.62" cy="-288" rx="52.89" ry="18"/>
<text text-anchor="middle" x="344.62" y="-282.95" font-family="Times New Roman,serif" font-size="14.00">steep block</text>
</g>
<!-- 149&#45;&gt;150 -->
<g id="edge1" class="edge">
<title>149&#45;&gt;150</title>
<path fill="none" stroke="black" d="M139.9,-171.04C168.39,-194.23 220.86,-234.66 270.75,-261 278.22,-264.94 286.39,-268.57 294.47,-271.8"/>
<polygon fill="black" stroke="black" points="292.98,-274.98 303.57,-275.28 295.47,-268.44 292.98,-274.98"/>
</g>
<!-- 155 -->
<!-- name: &quot;north slopes&quot;, typeName: &quot;&quot;, id: 155, branchId: 0, recurseId: &#45;1, attributes: 0, notes: &quot;&quot; -->
<g id="node4" class="node">
<title>155</title>
<ellipse fill="none" stroke="black" cx="344.62" cy="-234" rx="55.96" ry="18"/>
<text text-anchor="middle" x="344.62" y="-228.95" font-family="Times New Roman,serif" font-size="14.00">north slopes</text>
</g>
<!-- 149&#45;&gt;155 -->
<g id="edge3" class="edge">
<title>149&#45;&gt;155</title>
<path fill="none" stroke="black" d="M165.32,-169.88C203.5,-183.61 257.17,-202.91 295.63,-216.74"/>
<polygon fill="black" stroke="black" points="294.03,-219.89 304.63,-219.98 296.4,-213.3 294.03,-219.89"/>
</g>
<!-- 157 -->
<!-- name: &quot;south slopes&quot;, typeName: &quot;&quot;, id: 157, branchId: 0, recurseId: &#45;1, attributes: 0, notes: &quot;&quot; -->
<g id="node6" class="node">
<title>157</title>
<ellipse fill="none" stroke="black" cx="344.62" cy="-180" rx="56.47" ry="18"/>
<text text-anchor="middle" x="344.62" y="-174.95" font-family="Times New Roman,serif" font-size="14.00">south slopes</text>
</g>
<!-- 149&#45;&gt;157 -->
<g id="edge5" class="edge">
<title>149&#45;&gt;157</title>
<path fill="none" stroke="black" d="M211.29,-164.14C234.4,-166.91 258.66,-169.82 280,-172.37"/>
<polygon fill="black" stroke="black" points="279.35,-175.82 289.7,-173.54 280.18,-168.87 279.35,-175.82"/>
</g>
<!-- 159 -->
<!-- name: &quot;west slopes&quot;, typeName: &quot;&quot;, id: 159, branchId: 0, recurseId: &#45;1, attributes: 0, notes: &quot;&quot; -->
<g id="node8" class="node">
<title>159</title>
<ellipse fill="none" stroke="black" cx="344.62" cy="-126" rx="53.4" ry="18"/>
<text text-anchor="middle" x="344.62" y="-120.95" font-family="Times New Roman,serif" font-size="14.00">west slopes</text>
</g>
<!-- 149&#45;&gt;159 -->
<g id="edge7" class="edge">
<title>149&#45;&gt;159</title>
<path fill="none" stroke="black" d="M211.29,-141.86C235.34,-138.98 260.62,-135.95 282.57,-133.32"/>
<polygon fill="black" stroke="black" points="282.7,-136.83 292.21,-132.16 281.87,-129.88 282.7,-136.83"/>
</g>
<!-- 161 -->
<!-- name: &quot;east slopes&quot;, typeName: &quot;&quot;, id: 161, branchId: 0, recurseId: &#45;1, attributes: 0, notes: &quot;&quot; -->
<g id="node10" class="node">
<title>161</title>
<ellipse fill="none" stroke="black" cx="344.62" cy="-72" rx="50.84" ry="18"/>
<text text-anchor="middle" x="344.62" y="-66.95" font-family="Times New Roman,serif" font-size="14.00">east slopes</text>
</g>
<!-- 149&#45;&gt;161 -->
<g id="edge9" class="edge">
<title>149&#45;&gt;161</title>
<path fill="none" stroke="black" d="M165.32,-136.12C204.09,-122.18 258.83,-102.49 297.4,-88.62"/>
<polygon fill="black" stroke="black" points="298.18,-92.06 306.4,-85.38 295.81,-85.47 298.18,-92.06"/>
</g>
<!-- 163 -->
<!-- name: &quot;top slide enabled&quot;, typeName: &quot;&quot;, id: 163, branchId: 0, recurseId: &#45;1, attributes: 0, notes: &quot;&quot; -->
<g id="node12" class="node">
<title>163</title>
<ellipse fill="none" stroke="black" cx="344.62" cy="-18" rx="73.87" ry="18"/>
<text text-anchor="middle" x="344.62" y="-12.95" font-family="Times New Roman,serif" font-size="14.00">top slide enabled</text>
</g>
<!-- 149&#45;&gt;163 -->
<g id="edge11" class="edge">
<title>149&#45;&gt;163</title>
<path fill="none" stroke="black" d="M139.9,-134.96C168.39,-111.77 220.86,-71.34 270.75,-45 276.41,-42.01 282.47,-39.21 288.59,-36.62"/>
<polygon fill="black" stroke="black" points="289.51,-40.02 297.48,-33.03 286.9,-33.53 289.51,-40.02"/>
</g>
<!-- 154 -->
<!-- name: &quot;int&quot;, typeName: &quot;&quot;, id: 154, branchId: 0, recurseId: &#45;1, attributes: 512, notes: &quot;&quot; -->
<g id="node3" class="node">
<title>154</title>
<ellipse fill="none" stroke="black" cx="481.79" cy="-288" rx="27" ry="18"/>
<text text-anchor="middle" x="481.79" y="-282.95" font-family="Times New Roman,serif" font-size="14.00">int</text>
</g>
<!-- 150&#45;&gt;154 -->
<g id="edge2" class="edge">
<title>150&#45;&gt;154</title>
<path fill="none" stroke="black" d="M397.88,-288C412.97,-288 429.14,-288 443.15,-288"/>
<polygon fill="black" stroke="black" points="442.83,-291.5 452.83,-288 442.83,-284.5 442.83,-291.5"/>
</g>
<!-- 156 -->
<!-- name: &quot;bool&quot;, typeName: &quot;&quot;, id: 156, branchId: 0, recurseId: &#45;1, attributes: 512, notes: &quot;&quot; -->
<g id="node5" class="node">
<title>156</title>
<ellipse fill="none" stroke="black" cx="481.79" cy="-234" rx="27.3" ry="18"/>
<text text-anchor="middle" x="481.79" y="-228.95" font-family="Times New Roman,serif" font-size="14.00">bool</text>
</g>
<!-- 155&#45;&gt;156 -->
<g id="edge4" class="edge">
<title>155&#45;&gt;156</title>
<path fill="none" stroke="black" d="M400.99,-234C415.05,-234 429.85,-234 442.83,-234"/>
<polygon fill="black" stroke="black" points="442.65,-237.5 452.65,-234 442.65,-230.5 442.65,-237.5"/>
</g>
<!-- 158 -->
<!-- name: &quot;bool&quot;, typeName: &quot;&quot;, id: 158, branchId: 0, recurseId: &#45;1, attributes: 512, notes: &quot;&quot; -->
<g id="node7" class="node">
<title>158</title>
<ellipse fill="none" stroke="black" cx="481.79" cy="-180" rx="27.3" ry="18"/>
<text text-anchor="middle" x="481.79" y="-174.95" font-family="Times New Roman,serif" font-size="14.00">bool</text>
</g>
<!-- 157&#45;&gt;158 -->
<g id="edge6" class="edge">
<title>157&#45;&gt;158</title>
<path fill="none" stroke="black" d="M401.38,-180C415.41,-180 430.14,-180 443.05,-180"/>
<polygon fill="black" stroke="black" points="442.82,-183.5 452.82,-180 442.82,-176.5 442.82,-183.5"/>
</g>
<!-- 160 -->
<!-- name: &quot;bool&quot;, typeName: &quot;&quot;, id: 160, branchId: 0, recurseId: &#45;1, attributes: 512, notes: &quot;&quot; -->
<g id="node9" class="node">
<title>160</title>
<ellipse fill="none" stroke="black" cx="481.79" cy="-126" rx="27.3" ry="18"/>
<text text-anchor="middle" x="481.79" y="-120.95" font-family="Times New Roman,serif" font-size="14.00">bool</text>
</g>
<!-- 159&#45;&gt;160 -->
<g id="edge8" class="edge">
<title>159&#45;&gt;160</title>
<path fill="none" stroke="black" d="M398.27,-126C413.06,-126 428.85,-126 442.63,-126"/>
<polygon fill="black" stroke="black" points="442.62,-129.5 452.62,-126 442.62,-122.5 442.62,-129.5"/>
</g>
<!-- 162 -->
<!-- name: &quot;bool&quot;, typeName: &quot;&quot;, id: 162, branchId: 0, recurseId: &#45;1, attributes: 512, notes: &quot;&quot; -->
<g id="node11" class="node">
<title>162</title>
<ellipse fill="none" stroke="black" cx="481.79" cy="-72" rx="27.3" ry="18"/>
<text text-anchor="middle" x="481.79" y="-66.95" font-family="Times New Roman,serif" font-size="14.00">bool</text>
</g>
<!-- 161&#45;&gt;162 -->
<g id="edge10" class="edge">
<title>161&#45;&gt;162</title>
<path fill="none" stroke="black" d="M395.95,-72C411.59,-72 428.54,-72 443.16,-72"/>
<polygon fill="black" stroke="black" points="442.79,-75.5 452.79,-72 442.79,-68.5 442.79,-75.5"/>
</g>
<!-- 164 -->
<!-- name: &quot;bool&quot;, typeName: &quot;&quot;, id: 164, branchId: 0, recurseId: &#45;1, attributes: 512, notes: &quot;&quot; -->
<g id="node13" class="node">
<title>164</title>
<ellipse fill="none" stroke="black" cx="481.79" cy="-18" rx="27.3" ry="18"/>
<text text-anchor="middle" x="481.79" y="-12.95" font-family="Times New Roman,serif" font-size="14.00">bool</text>
</g>
<!-- 163&#45;&gt;164 -->
<g id="edge12" class="edge">
<title>163&#45;&gt;164</title>
<path fill="none" stroke="black" d="M418.74,-18C427.07,-18 435.28,-18 442.88,-18"/>
<polygon fill="black" stroke="black" points="442.71,-21.5 452.71,-18 442.71,-14.5 442.71,-21.5"/>
</g>
</g>
</svg>
