<?xml version="1.0" encoding="UTF-8" standalone="no"?>
<!DOCTYPE svg PUBLIC "-//W3C//DTD SVG 1.1//EN"
 "http://www.w3.org/Graphics/SVG/1.1/DTD/svg11.dtd">
<!-- Generated by graphviz version 14.1.1 (20251213.1925)
 -->
<!-- Title: BiomeCappedSurfaceData Pages: 1 -->
<svg width="1007pt" height="368pt"
 viewBox="0.00 0.00 1007.00 368.00" xmlns="http://www.w3.org/2000/svg" xmlns:xlink="http://www.w3.org/1999/xlink">
<g id="graph0" class="graph" transform="scale(1 1) rotate(0) translate(4 364)">
<title>BiomeCappedSurfaceData</title>
<polygon fill="white" stroke="none" points="-4,4 -4,-364 1003.4,-364 1003.4,4 -4,4"/>
<!-- 231 -->
<!-- name: &quot;BiomeCappedSurfaceData&quot;, typeName: &quot;&quot;, id: 231, branchId: 0, recurseId: &#45;1, attributes: 0, notes: &quot;&quot; -->
<g id="node1" class="node">
<title>231</title>
<ellipse fill="none" stroke="black" cx="109.7" cy="-126" rx="109.7" ry="18"/>
<text xml:space="preserve" text-anchor="middle" x="109.7" y="-120.95" font-family="Times New Roman,serif" font-size="14.00">BiomeCappedSurfaceData</text>
</g>
<!-- 232 -->
<!-- name: &quot;block&quot;, typeName: &quot;&quot;, id: 232, branchId: 0, recurseId: &#45;1, attributes: 8, notes: &quot;&quot; -->
<g id="node2" class="node">
<title>232</title>
<ellipse fill="none" stroke="black" cx="310.84" cy="-288" rx="31.39" ry="18"/>
<text xml:space="preserve" text-anchor="middle" x="310.84" y="-282.95" font-family="Times New Roman,serif" font-size="14.00">block</text>
</g>
<!-- 231&#45;&gt;232 -->
<g id="edge1" class="edge">
<title>231&#45;&gt;232</title>
<path fill="none" stroke="black" d="M132.77,-143.96C169.52,-173.85 243.13,-233.74 282.89,-266.08"/>
<polygon fill="black" stroke="black" points="280.62,-268.74 290.59,-272.34 285.04,-263.31 280.62,-268.74"/>
</g>
<!-- 238 -->
<!-- name: &quot;block&quot;, typeName: &quot;&quot;, id: 238, branchId: 0, recurseId: &#45;1, attributes: 8, notes: &quot;&quot; -->
<g id="node8" class="node">
<title>238</title>
<ellipse fill="none" stroke="black" cx="310.84" cy="-180" rx="31.39" ry="18"/>
<text xml:space="preserve" text-anchor="middle" x="310.84" y="-174.95" font-family="Times New Roman,serif" font-size="14.00">block</text>
</g>
<!-- 231&#45;&gt;238 -->
<g id="edge7" class="edge">
<title>231&#45;&gt;238</title>
<path fill="none" stroke="black" d="M168.3,-141.62C201.26,-150.56 241.72,-161.53 270.94,-169.45"/>
<polygon fill="black" stroke="black" points="269.9,-172.8 280.47,-172.04 271.73,-166.04 269.9,-172.8"/>
</g>
<!-- 244 -->
<!-- name: &quot;sea block&quot;, typeName: &quot;std::optional&lt;unsigned int&gt;&quot;, id: 244, branchId: 0, recurseId: &#45;1, attributes: 256, notes: &quot;&quot; -->
<g id="node14" class="node">
<title>244</title>
<ellipse fill="none" stroke="black" cx="661.95" cy="-126" rx="45.72" ry="18"/>
<text xml:space="preserve" text-anchor="middle" x="661.95" y="-120.95" font-family="Times New Roman,serif" font-size="14.00">sea block</text>
</g>
<!-- 231&#45;&gt;244 -->
<g id="edge13" class="edge">
<title>231&#45;&gt;244</title>
<path fill="none" stroke="black" d="M219.74,-126C335.6,-126 514.25,-126 604.56,-126"/>
<polygon fill="black" stroke="black" points="604.4,-129.5 614.4,-126 604.4,-122.5 604.4,-129.5"/>
</g>
<!-- 246 -->
<!-- name: &quot;foundation block&quot;, typeName: &quot;std::optional&lt;unsigned int&gt;&quot;, id: 246, branchId: 0, recurseId: &#45;1, attributes: 256, notes: &quot;&quot; -->
<g id="node16" class="node">
<title>246</title>
<ellipse fill="none" stroke="black" cx="661.95" cy="-72" rx="73.87" ry="18"/>
<text xml:space="preserve" text-anchor="middle" x="661.95" y="-66.95" font-family="Times New Roman,serif" font-size="14.00">foundation block</text>
</g>
<!-- 231&#45;&gt;246 -->
<g id="edge15" class="edge">
<title>231&#45;&gt;246</title>
<path fill="none" stroke="black" d="M204.98,-116.75C311.14,-106.33 481.79,-89.58 581.47,-79.8"/>
<polygon fill="black" stroke="black" points="581.55,-83.31 591.16,-78.85 580.87,-76.34 581.55,-83.31"/>
</g>
<!-- 248 -->
<!-- name: &quot;beach block&quot;, typeName: &quot;std::optional&lt;unsigned int&gt;&quot;, id: 248, branchId: 0, recurseId: &#45;1, attributes: 256, notes: &quot;&quot; -->
<g id="node18" class="node">
<title>248</title>
<ellipse fill="none" stroke="black" cx="310.84" cy="-24" rx="55.45" ry="18"/>
<text xml:space="preserve" text-anchor="middle" x="310.84" y="-18.95" font-family="Times New Roman,serif" font-size="14.00">beach block</text>
</g>
<!-- 231&#45;&gt;248 -->
<g id="edge17" class="edge">
<title>231&#45;&gt;248</title>
<path fill="none" stroke="black" d="M144.48,-108.7C179.17,-90.93 233.14,-63.28 269.92,-44.45"/>
<polygon fill="black" stroke="black" points="271.16,-47.75 278.46,-40.07 267.97,-41.52 271.16,-47.75"/>
</g>
<!-- 233 -->
<!-- name: &quot;List Size&quot;, typeName: &quot;&quot;, id: 233, branchId: 0, recurseId: &#45;1, attributes: 0, notes: &quot;&quot; -->
<g id="node3" class="node">
<title>233</title>
<ellipse fill="none" stroke="black" cx="477.18" cy="-342" rx="43.67" ry="18"/>
<text xml:space="preserve" text-anchor="middle" x="477.18" y="-336.95" font-family="Times New Roman,serif" font-size="14.00">List Size</text>
</g>
<!-- 232&#45;&gt;233 -->
<g id="edge2" class="edge">
<title>232&#45;&gt;233</title>
<path fill="none" stroke="black" d="M338.61,-296.8C363.69,-305.04 401.67,-317.52 431.37,-327.27"/>
<polygon fill="black" stroke="black" points="430.27,-330.6 440.86,-330.39 432.45,-323.95 430.27,-330.6"/>
</g>
<!-- 235 -->
<!-- name: &quot;example element&quot;, typeName: &quot;&quot;, id: 235, branchId: 0, recurseId: &#45;1, attributes: 16, notes: &quot;&quot; -->
<g id="node5" class="node">
<title>235</title>
<ellipse fill="none" stroke="black" stroke-dasharray="1,5" cx="477.18" cy="-288" rx="74.89" ry="18"/>
<text xml:space="preserve" text-anchor="middle" x="477.18" y="-282.95" font-family="Times New Roman,serif" font-size="14.00">example element</text>
</g>
<!-- 232&#45;&gt;235 -->
<g id="edge4" class="edge">
<title>232&#45;&gt;235</title>
<path fill="none" stroke="black" d="M342.37,-288C356.23,-288 373.38,-288 390.73,-288"/>
<polygon fill="black" stroke="black" points="390.61,-291.5 400.61,-288 390.61,-284.5 390.61,-291.5"/>
</g>
<!-- 234 -->
<!-- name: &quot;unsigned varint&quot;, typeName: &quot;&quot;, id: 234, branchId: 0, recurseId: &#45;1, attributes: 512, notes: &quot;&quot; -->
<g id="node4" class="node">
<title>234</title>
<ellipse fill="none" stroke="black" cx="885.61" cy="-342" rx="68.24" ry="18"/>
<text xml:space="preserve" text-anchor="middle" x="885.61" y="-336.95" font-family="Times New Roman,serif" font-size="14.00">unsigned varint</text>
</g>
<!-- 233&#45;&gt;234 -->
<g id="edge3" class="edge">
<title>233&#45;&gt;234</title>
<path fill="none" stroke="black" d="M521.29,-342C588.87,-342 720.78,-342 805.69,-342"/>
<polygon fill="black" stroke="black" points="805.58,-345.5 815.58,-342 805.58,-338.5 805.58,-345.5"/>
</g>
<!-- 236 -->
<!-- name: &quot;floor blocks&quot;, typeName: &quot;int&quot;, id: 236, branchId: 0, recurseId: &#45;1, attributes: 256, notes: &quot;&quot; -->
<g id="node6" class="node">
<title>236</title>
<ellipse fill="none" stroke="black" cx="661.95" cy="-288" rx="55.45" ry="18"/>
<text xml:space="preserve" text-anchor="middle" x="661.95" y="-282.95" font-family="Times New Roman,serif" font-size="14.00">floor blocks</text>
</g>
<!-- 235&#45;&gt;236 -->
<g id="edge5" class="edge">
<title>235&#45;&gt;236</title>
<path fill="none" stroke="black" d="M552.52,-288C566.49,-288 581.02,-288 594.73,-288"/>
<polygon fill="black" stroke="black" points="594.5,-291.5 604.5,-288 594.5,-284.5 594.5,-291.5"/>
</g>
<!-- 237 -->
<!-- name: &quot;int&quot;, typeName: &quot;&quot;, id: 237, branchId: 0, recurseId: &#45;1, attributes: 512, notes: &quot;&quot; -->
<g id="node7" class="node">
<title>237</title>
<ellipse fill="none" stroke="black" cx="885.61" cy="-288" rx="27" ry="18"/>
<text xml:space="preserve" text-anchor="middle" x="885.61" y="-282.95" font-family="Times New Roman,serif" font-size="14.00">int</text>
</g>
<!-- 236&#45;&gt;237 -->
<g id="edge6" class="edge">
<title>236&#45;&gt;237</title>
<path fill="none" stroke="black" d="M717.74,-288C757.94,-288 811.49,-288 846.95,-288"/>
<polygon fill="black" stroke="black" points="846.73,-291.5 856.73,-288 846.73,-284.5 846.73,-291.5"/>
</g>
<!-- 239 -->
<!-- name: &quot;List Size&quot;, typeName: &quot;&quot;, id: 239, branchId: 0, recurseId: &#45;1, attributes: 0, notes: &quot;&quot; -->
<g id="node9" class="node">
<title>239</title>
<ellipse fill="none" stroke="black" cx="477.18" cy="-234" rx="43.67" ry="18"/>
<text xml:space="preserve" text-anchor="middle" x="477.18" y="-228.95" font-family="Times New Roman,serif" font-size="14.00">List Size</text>
</g>
<!-- 238&#45;&gt;239 -->
<g id="edge8" class="edge">
<title>238&#45;&gt;239</title>
<path fill="none" stroke="black" d="M338.61,-188.8C363.69,-197.04 401.67,-209.52 431.37,-219.27"/>
<polygon fill="black" stroke="black" points="430.27,-222.6 440.86,-222.39 432.45,-215.95 430.27,-222.6"/>
</g>
<!-- 241 -->
<!-- name: &quot;example element&quot;, typeName: &quot;&quot;, id: 241, branchId: 0, recurseId: &#45;1, attributes: 16, notes: &quot;&quot; -->
<g id="node11" class="node">
<title>241</title>
<ellipse fill="none" stroke="black" stroke-dasharray="1,5" cx="477.18" cy="-180" rx="74.89" ry="18"/>
<text xml:space="preserve" text-anchor="middle" x="477.18" y="-174.95" font-family="Times New Roman,serif" font-size="14.00">example element</text>
</g>
<!-- 238&#45;&gt;241 -->
<g id="edge10" class="edge">
<title>238&#45;&gt;241</title>
<path fill="none" stroke="black" d="M342.37,-180C356.23,-180 373.38,-180 390.73,-180"/>
<polygon fill="black" stroke="black" points="390.61,-183.5 400.61,-180 390.61,-176.5 390.61,-183.5"/>
</g>
<!-- 240 -->
<!-- name: &quot;unsigned varint&quot;, typeName: &quot;&quot;, id: 240, branchId: 0, recurseId: &#45;1, attributes: 512, notes: &quot;&quot; -->
<g id="node10" class="node">
<title>240</title>
<ellipse fill="none" stroke="black" cx="885.61" cy="-234" rx="68.24" ry="18"/>
<text xml:space="preserve" text-anchor="middle" x="885.61" y="-228.95" font-family="Times New Roman,serif" font-size="14.00">unsigned varint</text>
</g>
<!-- 239&#45;&gt;240 -->
<g id="edge9" class="edge">
<title>239&#45;&gt;240</title>
<path fill="none" stroke="black" d="M521.29,-234C588.87,-234 720.78,-234 805.69,-234"/>
<polygon fill="black" stroke="black" points="805.58,-237.5 815.58,-234 805.58,-230.5 805.58,-237.5"/>
</g>
<!-- 242 -->
<!-- name: &quot;ceiling blocks&quot;, typeName: &quot;int&quot;, id: 242, branchId: 0, recurseId: &#45;1, attributes: 256, notes: &quot;&quot; -->
<g id="node12" class="node">
<title>242</title>
<ellipse fill="none" stroke="black" cx="661.95" cy="-180" rx="62.61" ry="18"/>
<text xml:space="preserve" text-anchor="middle" x="661.95" y="-174.95" font-family="Times New Roman,serif" font-size="14.00">ceiling blocks</text>
</g>
<!-- 241&#45;&gt;242 -->
<g id="edge11" class="edge">
<title>241&#45;&gt;242</title>
<path fill="none" stroke="black" d="M552.52,-180C564.08,-180 576.02,-180 587.56,-180"/>
<polygon fill="black" stroke="black" points="587.43,-183.5 597.43,-180 587.43,-176.5 587.43,-183.5"/>
</g>
<!-- 243 -->
<!-- name: &quot;int&quot;, typeName: &quot;&quot;, id: 243, branchId: 0, recurseId: &#45;1, attributes: 512, notes: &quot;&quot; -->
<g id="node13" class="node">
<title>243</title>
<ellipse fill="none" stroke="black" cx="885.61" cy="-180" rx="27" ry="18"/>
<text xml:space="preserve" text-anchor="middle" x="885.61" y="-174.95" font-family="Times New Roman,serif" font-size="14.00">int</text>
</g>
<!-- 242&#45;&gt;243 -->
<g id="edge12" class="edge">
<title>242&#45;&gt;243</title>
<path fill="none" stroke="black" d="M724.99,-180C764.28,-180 813.81,-180 847.19,-180"/>
<polygon fill="black" stroke="black" points="846.76,-183.5 856.76,-180 846.76,-176.5 846.76,-183.5"/>
</g>
<!-- 245 -->
<!-- name: &quot;std::optional&lt;unsigned int&gt;&quot;, typeName: &quot;&quot;, id: 245, branchId: 0, recurseId: &#45;1, attributes: 512, notes: &quot;&quot; -->
<g id="node15" class="node">
<title>245</title>
<ellipse fill="none" stroke="black" cx="885.61" cy="-126" rx="113.79" ry="18"/>
<text xml:space="preserve" text-anchor="middle" x="885.61" y="-120.95" font-family="Times New Roman,serif" font-size="14.00">std::optional&lt;unsigned int&gt;</text>
</g>
<!-- 244&#45;&gt;245 -->
<g id="edge14" class="edge">
<title>244&#45;&gt;245</title>
<path fill="none" stroke="black" d="M708.07,-126C723.55,-126 741.71,-126 760.39,-126"/>
<polygon fill="black" stroke="black" points="760.23,-129.5 770.23,-126 760.23,-122.5 760.23,-129.5"/>
</g>
<!-- 247 -->
<!-- name: &quot;std::optional&lt;unsigned int&gt;&quot;, typeName: &quot;&quot;, id: 247, branchId: 0, recurseId: &#45;1, attributes: 512, notes: &quot;&quot; -->
<g id="node17" class="node">
<title>247</title>
<ellipse fill="none" stroke="black" cx="885.61" cy="-72" rx="113.79" ry="18"/>
<text xml:space="preserve" text-anchor="middle" x="885.61" y="-66.95" font-family="Times New Roman,serif" font-size="14.00">std::optional&lt;unsigned int&gt;</text>
</g>
<!-- 246&#45;&gt;247 -->
<g id="edge16" class="edge">
<title>246&#45;&gt;247</title>
<path fill="none" stroke="black" d="M736.14,-72C743.86,-72 751.85,-72 759.94,-72"/>
<polygon fill="black" stroke="black" points="759.91,-75.5 769.91,-72 759.91,-68.5 759.91,-75.5"/>
</g>
<!-- 249 -->
<!-- name: &quot;std::optional&lt;unsigned int&gt;&quot;, typeName: &quot;&quot;, id: 249, branchId: 0, recurseId: &#45;1, attributes: 512, notes: &quot;&quot; -->
<g id="node19" class="node">
<title>249</title>
<ellipse fill="none" stroke="black" cx="885.61" cy="-18" rx="113.79" ry="18"/>
<text xml:space="preserve" text-anchor="middle" x="885.61" y="-12.95" font-family="Times New Roman,serif" font-size="14.00">std::optional&lt;unsigned int&gt;</text>
</g>
<!-- 248&#45;&gt;249 -->
<g id="edge18" class="edge">
<title>248&#45;&gt;249</title>
<path fill="none" stroke="black" d="M366.5,-23.43C456.46,-22.49 637.92,-20.58 760.38,-19.3"/>
<polygon fill="black" stroke="black" points="760.2,-22.8 770.16,-19.2 760.12,-15.8 760.2,-22.8"/>
</g>
</g>
</svg>
