<?xml version="1.0" encoding="UTF-8" standalone="no"?>
<!DOCTYPE svg PUBLIC "-//W3C//DTD SVG 1.1//EN"
 "http://www.w3.org/Graphics/SVG/1.1/DTD/svg11.dtd">
<!-- Generated by graphviz version 11.0.0 (20240428.1522)
 -->
<!-- Title: BiomeClimateData Pages: 1 -->
<svg width="493pt" height="422pt"
 viewBox="0.00 0.00 493.17 422.00" xmlns="http://www.w3.org/2000/svg" xmlns:xlink="http://www.w3.org/1999/xlink">
<g id="graph0" class="graph" transform="scale(1 1) rotate(0) translate(4 418)">
<title>BiomeClimateData</title>
<polygon fill="white" stroke="none" points="-4,4 -4,-418 489.17,-418 489.17,4 -4,4"/>
<!-- 64 -->
<!-- name: &quot;BiomeClimateData&quot;, typeName: &quot;&quot;, id: 64, branchId: 0, recurseId: &#45;1, attributes: 0, notes: &quot;&quot; -->
<g id="node1" class="node">
<title>64</title>
<ellipse fill="none" stroke="black" cx="79.51" cy="-207" rx="79.51" ry="18"/>
<text text-anchor="middle" x="79.51" y="-201.57" font-family="Times New Roman,serif" font-size="14.00">BiomeClimateData</text>
</g>
<!-- 65 -->
<!-- name: &quot;temperature&quot;, typeName: &quot;&quot;, id: 65, branchId: 0, recurseId: &#45;1, attributes: 0, notes: &quot;&quot; -->
<g id="node2" class="node">
<title>65</title>
<ellipse fill="none" stroke="black" cx="294.98" cy="-396" rx="54.06" ry="18"/>
<text text-anchor="middle" x="294.98" y="-390.57" font-family="Times New Roman,serif" font-size="14.00">temperature</text>
</g>
<!-- 64&#45;&gt;65 -->
<g id="edge1" class="edge">
<title>64&#45;&gt;65</title>
<path fill="none" stroke="black" d="M88.24,-225.2C103.52,-258.91 140.85,-331.07 195.01,-369 206.3,-376.9 219.79,-382.49 233.14,-386.45"/>
<polygon fill="black" stroke="black" points="232.24,-389.83 242.8,-389.01 234.03,-383.06 232.24,-389.83"/>
</g>
<!-- 67 -->
<!-- name: &quot;downfall&quot;, typeName: &quot;&quot;, id: 67, branchId: 0, recurseId: &#45;1, attributes: 0, notes: &quot;&quot; -->
<g id="node4" class="node">
<title>67</title>
<ellipse fill="none" stroke="black" cx="294.98" cy="-342" rx="42.58" ry="18"/>
<text text-anchor="middle" x="294.98" y="-336.57" font-family="Times New Roman,serif" font-size="14.00">downfall</text>
</g>
<!-- 64&#45;&gt;67 -->
<g id="edge3" class="edge">
<title>64&#45;&gt;67</title>
<path fill="none" stroke="black" d="M94.78,-225.15C114.68,-249.25 153.07,-291.47 195.01,-315 209.9,-323.35 227.52,-329.24 243.74,-333.33"/>
<polygon fill="black" stroke="black" points="242.68,-336.68 253.21,-335.54 244.27,-329.86 242.68,-336.68"/>
</g>
<!-- 69 -->
<!-- name: &quot;red spore density&quot;, typeName: &quot;&quot;, id: 69, branchId: 0, recurseId: &#45;1, attributes: 0, notes: &quot;&quot; -->
<g id="node6" class="node">
<title>69</title>
<ellipse fill="none" stroke="black" cx="294.98" cy="-288" rx="75.02" ry="18"/>
<text text-anchor="middle" x="294.98" y="-282.57" font-family="Times New Roman,serif" font-size="14.00">red spore density</text>
</g>
<!-- 64&#45;&gt;69 -->
<g id="edge5" class="edge">
<title>64&#45;&gt;69</title>
<path fill="none" stroke="black" d="M111.95,-223.65C134.61,-235.2 166.14,-250.35 195.01,-261 206.03,-265.06 217.93,-268.83 229.54,-272.17"/>
<polygon fill="black" stroke="black" points="228.51,-275.52 239.08,-274.84 230.39,-268.78 228.51,-275.52"/>
</g>
<!-- 71 -->
<!-- name: &quot;blue spore density&quot;, typeName: &quot;&quot;, id: 71, branchId: 0, recurseId: &#45;1, attributes: 0, notes: &quot;&quot; -->
<g id="node8" class="node">
<title>71</title>
<ellipse fill="none" stroke="black" cx="294.98" cy="-234" rx="78.51" ry="18"/>
<text text-anchor="middle" x="294.98" y="-228.57" font-family="Times New Roman,serif" font-size="14.00">blue spore density</text>
</g>
<!-- 64&#45;&gt;71 -->
<g id="edge7" class="edge">
<title>64&#45;&gt;71</title>
<path fill="none" stroke="black" d="M149.81,-215.77C170.35,-218.36 193,-221.23 214.15,-223.9"/>
<polygon fill="black" stroke="black" points="213.52,-227.35 223.88,-225.13 214.4,-220.41 213.52,-227.35"/>
</g>
<!-- 73 -->
<!-- name: &quot;ash density&quot;, typeName: &quot;&quot;, id: 73, branchId: 0, recurseId: &#45;1, attributes: 0, notes: &quot;&quot; -->
<g id="node10" class="node">
<title>73</title>
<ellipse fill="none" stroke="black" cx="294.98" cy="-180" rx="52.06" ry="18"/>
<text text-anchor="middle" x="294.98" y="-174.57" font-family="Times New Roman,serif" font-size="14.00">ash density</text>
</g>
<!-- 64&#45;&gt;73 -->
<g id="edge9" class="edge">
<title>64&#45;&gt;73</title>
<path fill="none" stroke="black" d="M149.81,-198.23C177.07,-194.79 208.05,-190.87 234.29,-187.55"/>
<polygon fill="black" stroke="black" points="234.62,-191.04 244.1,-186.31 233.74,-184.09 234.62,-191.04"/>
</g>
<!-- 75 -->
<!-- name: &quot;white ash density&quot;, typeName: &quot;&quot;, id: 75, branchId: 0, recurseId: &#45;1, attributes: 0, notes: &quot;&quot; -->
<g id="node12" class="node">
<title>75</title>
<ellipse fill="none" stroke="black" cx="294.98" cy="-126" rx="74.02" ry="18"/>
<text text-anchor="middle" x="294.98" y="-120.58" font-family="Times New Roman,serif" font-size="14.00">white ash density</text>
</g>
<!-- 64&#45;&gt;75 -->
<g id="edge11" class="edge">
<title>64&#45;&gt;75</title>
<path fill="none" stroke="black" d="M111.95,-190.35C134.61,-178.8 166.14,-163.65 195.01,-153 206.09,-148.91 218.07,-145.13 229.74,-141.77"/>
<polygon fill="black" stroke="black" points="230.65,-145.15 239.34,-139.09 228.77,-138.41 230.65,-145.15"/>
</g>
<!-- 77 -->
<!-- name: &quot;snow accumulation min&quot;, typeName: &quot;&quot;, id: 77, branchId: 0, recurseId: &#45;1, attributes: 0, notes: &quot;&quot; -->
<g id="node14" class="node">
<title>77</title>
<ellipse fill="none" stroke="black" cx="294.98" cy="-72" rx="97.97" ry="18"/>
<text text-anchor="middle" x="294.98" y="-66.58" font-family="Times New Roman,serif" font-size="14.00">snow accumulation min</text>
</g>
<!-- 64&#45;&gt;77 -->
<g id="edge13" class="edge">
<title>64&#45;&gt;77</title>
<path fill="none" stroke="black" d="M94.78,-188.85C114.68,-164.75 153.07,-122.53 195.01,-99 201.77,-95.21 209.09,-91.93 216.58,-89.09"/>
<polygon fill="black" stroke="black" points="217.53,-92.47 225.82,-85.87 215.23,-85.86 217.53,-92.47"/>
</g>
<!-- 79 -->
<!-- name: &quot;snow accumulation max&quot;, typeName: &quot;&quot;, id: 79, branchId: 0, recurseId: &#45;1, attributes: 0, notes: &quot;&quot; -->
<g id="node16" class="node">
<title>79</title>
<ellipse fill="none" stroke="black" cx="294.98" cy="-18" rx="99.97" ry="18"/>
<text text-anchor="middle" x="294.98" y="-12.57" font-family="Times New Roman,serif" font-size="14.00">snow accumulation max</text>
</g>
<!-- 64&#45;&gt;79 -->
<g id="edge15" class="edge">
<title>64&#45;&gt;79</title>
<path fill="none" stroke="black" d="M88.24,-188.8C103.52,-155.09 140.85,-82.93 195.01,-45 200.43,-41.2 206.37,-37.94 212.55,-35.14"/>
<polygon fill="black" stroke="black" points="213.78,-38.41 221.73,-31.41 211.15,-31.93 213.78,-38.41"/>
</g>
<!-- 66 -->
<!-- name: &quot;float&quot;, typeName: &quot;&quot;, id: 66, branchId: 0, recurseId: &#45;1, attributes: 512, notes: &quot;&quot; -->
<g id="node3" class="node">
<title>66</title>
<ellipse fill="none" stroke="black" cx="458.06" cy="-396" rx="27.11" ry="18"/>
<text text-anchor="middle" x="458.06" y="-390.57" font-family="Times New Roman,serif" font-size="14.00">float</text>
</g>
<!-- 65&#45;&gt;66 -->
<g id="edge2" class="edge">
<title>65&#45;&gt;66</title>
<path fill="none" stroke="black" d="M349.17,-396C372.1,-396 398.39,-396 419.28,-396"/>
<polygon fill="black" stroke="black" points="419.07,-399.5 429.07,-396 419.07,-392.5 419.07,-399.5"/>
</g>
<!-- 68 -->
<!-- name: &quot;float&quot;, typeName: &quot;&quot;, id: 68, branchId: 0, recurseId: &#45;1, attributes: 512, notes: &quot;&quot; -->
<g id="node5" class="node">
<title>68</title>
<ellipse fill="none" stroke="black" cx="458.06" cy="-342" rx="27.11" ry="18"/>
<text text-anchor="middle" x="458.06" y="-336.57" font-family="Times New Roman,serif" font-size="14.00">float</text>
</g>
<!-- 67&#45;&gt;68 -->
<g id="edge4" class="edge">
<title>67&#45;&gt;68</title>
<path fill="none" stroke="black" d="M337.88,-342C363.03,-342 394.78,-342 419.18,-342"/>
<polygon fill="black" stroke="black" points="418.99,-345.5 428.99,-342 418.99,-338.5 418.99,-345.5"/>
</g>
<!-- 70 -->
<!-- name: &quot;float&quot;, typeName: &quot;&quot;, id: 70, branchId: 0, recurseId: &#45;1, attributes: 512, notes: &quot;&quot; -->
<g id="node7" class="node">
<title>70</title>
<ellipse fill="none" stroke="black" cx="458.06" cy="-288" rx="27.11" ry="18"/>
<text text-anchor="middle" x="458.06" y="-282.57" font-family="Times New Roman,serif" font-size="14.00">float</text>
</g>
<!-- 69&#45;&gt;70 -->
<g id="edge6" class="edge">
<title>69&#45;&gt;70</title>
<path fill="none" stroke="black" d="M370.39,-288C387.43,-288 404.84,-288 419.54,-288"/>
<polygon fill="black" stroke="black" points="419.18,-291.5 429.18,-288 419.18,-284.5 419.18,-291.5"/>
</g>
<!-- 72 -->
<!-- name: &quot;float&quot;, typeName: &quot;&quot;, id: 72, branchId: 0, recurseId: &#45;1, attributes: 512, notes: &quot;&quot; -->
<g id="node9" class="node">
<title>72</title>
<ellipse fill="none" stroke="black" cx="458.06" cy="-234" rx="27.11" ry="18"/>
<text text-anchor="middle" x="458.06" y="-228.57" font-family="Times New Roman,serif" font-size="14.00">float</text>
</g>
<!-- 71&#45;&gt;72 -->
<g id="edge8" class="edge">
<title>71&#45;&gt;72</title>
<path fill="none" stroke="black" d="M373.69,-234C389.49,-234 405.44,-234 419.1,-234"/>
<polygon fill="black" stroke="black" points="418.94,-237.5 428.94,-234 418.94,-230.5 418.94,-237.5"/>
</g>
<!-- 74 -->
<!-- name: &quot;float&quot;, typeName: &quot;&quot;, id: 74, branchId: 0, recurseId: &#45;1, attributes: 512, notes: &quot;&quot; -->
<g id="node11" class="node">
<title>74</title>
<ellipse fill="none" stroke="black" cx="458.06" cy="-180" rx="27.11" ry="18"/>
<text text-anchor="middle" x="458.06" y="-174.57" font-family="Times New Roman,serif" font-size="14.00">float</text>
</g>
<!-- 73&#45;&gt;74 -->
<g id="edge10" class="edge">
<title>73&#45;&gt;74</title>
<path fill="none" stroke="black" d="M347.39,-180C370.85,-180 398.12,-180 419.6,-180"/>
<polygon fill="black" stroke="black" points="419.36,-183.5 429.36,-180 419.36,-176.5 419.36,-183.5"/>
</g>
<!-- 76 -->
<!-- name: &quot;float&quot;, typeName: &quot;&quot;, id: 76, branchId: 0, recurseId: &#45;1, attributes: 512, notes: &quot;&quot; -->
<g id="node13" class="node">
<title>76</title>
<ellipse fill="none" stroke="black" cx="458.06" cy="-126" rx="27.11" ry="18"/>
<text text-anchor="middle" x="458.06" y="-120.58" font-family="Times New Roman,serif" font-size="14.00">float</text>
</g>
<!-- 75&#45;&gt;76 -->
<g id="edge12" class="edge">
<title>75&#45;&gt;76</title>
<path fill="none" stroke="black" d="M369.45,-126C386.73,-126 404.45,-126 419.4,-126"/>
<polygon fill="black" stroke="black" points="419.21,-129.5 429.21,-126 419.21,-122.5 419.21,-129.5"/>
</g>
<!-- 78 -->
<!-- name: &quot;float&quot;, typeName: &quot;&quot;, id: 78, branchId: 0, recurseId: &#45;1, attributes: 512, notes: &quot;&quot; -->
<g id="node15" class="node">
<title>78</title>
<ellipse fill="none" stroke="black" cx="458.06" cy="-72" rx="27.11" ry="18"/>
<text text-anchor="middle" x="458.06" y="-66.58" font-family="Times New Roman,serif" font-size="14.00">float</text>
</g>
<!-- 77&#45;&gt;78 -->
<g id="edge14" class="edge">
<title>77&#45;&gt;78</title>
<path fill="none" stroke="black" d="M393.39,-72C402.46,-72 411.22,-72 419.2,-72"/>
<polygon fill="black" stroke="black" points="419.13,-75.5 429.13,-72 419.13,-68.5 419.13,-75.5"/>
</g>
<!-- 80 -->
<!-- name: &quot;float&quot;, typeName: &quot;&quot;, id: 80, branchId: 0, recurseId: &#45;1, attributes: 512, notes: &quot;&quot; -->
<g id="node17" class="node">
<title>80</title>
<ellipse fill="none" stroke="black" cx="458.06" cy="-18" rx="27.11" ry="18"/>
<text text-anchor="middle" x="458.06" y="-12.57" font-family="Times New Roman,serif" font-size="14.00">float</text>
</g>
<!-- 79&#45;&gt;80 -->
<g id="edge16" class="edge">
<title>79&#45;&gt;80</title>
<path fill="none" stroke="black" d="M395.24,-18C403.64,-18 411.75,-18 419.17,-18"/>
<polygon fill="black" stroke="black" points="419.08,-21.5 429.08,-18 419.08,-14.5 419.08,-21.5"/>
</g>
</g>
</svg>
