<?xml version="1.0" encoding="UTF-8" standalone="no"?>
<!DOCTYPE svg PUBLIC "-//W3C//DTD SVG 1.1//EN"
 "http://www.w3.org/Graphics/SVG/1.1/DTD/svg11.dtd">
<!-- Generated by graphviz version 12.2.1 (20241206.2353)
 -->
<!-- Title: BiomeDefinitionListPacket Pages: 1 -->
<svg width="1186pt" height="206pt"
 viewBox="0.00 0.00 1185.51 206.00" xmlns="http://www.w3.org/2000/svg" xmlns:xlink="http://www.w3.org/1999/xlink">
<g id="graph0" class="graph" transform="scale(1 1) rotate(0) translate(4 202)">
<title>BiomeDefinitionListPacket</title>
<polygon fill="white" stroke="none" points="-4,4 -4,-202 1181.51,-202 1181.51,4 -4,4"/>
<!-- 0 -->
<!-- name: &quot;BiomeDefinitionListPacket&quot;, typeName: &quot;&quot;, id: 0, branchId: 122, recurseId: &#45;1, attributes: 0, notes: &quot;&quot; -->
<g id="node1" class="node">
<title>0</title>
<ellipse fill="none" stroke="black" cx="112.77" cy="-72" rx="112.77" ry="18"/>
<text text-anchor="middle" x="112.77" y="-66.95" font-family="Times New Roman,serif" font-size="14.00">BiomeDefinitionListPacket</text>
</g>
<!-- 1 -->
<!-- name: &quot;Map of Biome names to data&quot;, typeName: &quot;&quot;, id: 1, branchId: 0, recurseId: &#45;1, attributes: 8, notes: &quot;&quot; -->
<g id="node2" class="node">
<title>1</title>
<ellipse fill="none" stroke="black" cx="381.98" cy="-99" rx="120.45" ry="18"/>
<text text-anchor="middle" x="381.98" y="-93.95" font-family="Times New Roman,serif" font-size="14.00">Map of Biome names to data</text>
</g>
<!-- 0&#45;&gt;1 -->
<g id="edge1" class="edge">
<title>0&#45;&gt;1</title>
<path fill="none" stroke="black" d="M209.11,-81.63C228.74,-83.62 249.59,-85.72 269.73,-87.76"/>
<polygon fill="black" stroke="black" points="269.36,-91.24 279.66,-88.76 270.06,-84.27 269.36,-91.24"/>
</g>
<!-- 372 -->
<!-- name: &quot;String list&quot;, typeName: &quot;BiomeStringList&quot;, id: 372, branchId: 0, recurseId: &#45;1, attributes: 256, notes: &quot;&quot; -->
<g id="node10" class="node">
<title>372</title>
<ellipse fill="none" stroke="black" cx="381.98" cy="-45" rx="47.26" ry="18"/>
<text text-anchor="middle" x="381.98" y="-39.95" font-family="Times New Roman,serif" font-size="14.00">String list</text>
</g>
<!-- 0&#45;&gt;372 -->
<g id="edge9" class="edge">
<title>0&#45;&gt;372</title>
<path fill="none" stroke="black" d="M209.11,-62.37C247.72,-58.47 290.99,-54.09 324.46,-50.71"/>
<polygon fill="black" stroke="black" points="324.76,-54.2 334.36,-49.71 324.05,-47.23 324.76,-54.2"/>
</g>
<!-- 2 -->
<!-- name: &quot;Map Size&quot;, typeName: &quot;&quot;, id: 2, branchId: 0, recurseId: &#45;1, attributes: 0, notes: &quot;&quot; -->
<g id="node3" class="node">
<title>2</title>
<ellipse fill="none" stroke="black" cx="613.32" cy="-166" rx="46.75" ry="18"/>
<text text-anchor="middle" x="613.32" y="-160.95" font-family="Times New Roman,serif" font-size="14.00">Map Size</text>
</g>
<!-- 1&#45;&gt;2 -->
<g id="edge2" class="edge">
<title>1&#45;&gt;2</title>
<path fill="none" stroke="black" d="M438.79,-115.3C477.24,-126.54 527.81,-141.31 564.43,-152.01"/>
<polygon fill="black" stroke="black" points="563.28,-155.32 573.86,-154.76 565.25,-148.6 563.28,-155.32"/>
</g>
<!-- 4 -->
<!-- name: &quot;example element&quot;, typeName: &quot;&quot;, id: 4, branchId: 0, recurseId: &#45;1, attributes: 16, notes: &quot;&quot; -->
<g id="node5" class="node">
<title>4</title>
<ellipse fill="none" stroke="black" stroke-dasharray="1,5" cx="613.32" cy="-99" rx="74.89" ry="18"/>
<text text-anchor="middle" x="613.32" y="-93.95" font-family="Times New Roman,serif" font-size="14.00">example element</text>
</g>
<!-- 1&#45;&gt;4 -->
<g id="edge4" class="edge">
<title>1&#45;&gt;4</title>
<path fill="none" stroke="black" d="M502.69,-99C510.79,-99 518.86,-99 526.73,-99"/>
<polygon fill="black" stroke="black" points="526.59,-102.5 536.59,-99 526.59,-95.5 526.59,-102.5"/>
</g>
<!-- 3 -->
<!-- name: &quot;unsigned varint&quot;, typeName: &quot;&quot;, id: 3, branchId: 0, recurseId: &#45;1, attributes: 512, notes: &quot;&quot; -->
<g id="node4" class="node">
<title>3</title>
<ellipse fill="none" stroke="black" cx="1086.24" cy="-180" rx="68.24" ry="18"/>
<text text-anchor="middle" x="1086.24" y="-174.95" font-family="Times New Roman,serif" font-size="14.00">unsigned varint</text>
</g>
<!-- 2&#45;&gt;3 -->
<g id="edge3" class="edge">
<title>2&#45;&gt;3</title>
<path fill="none" stroke="black" d="M660.33,-167.37C740.7,-169.76 907.5,-174.72 1006.53,-177.66"/>
<polygon fill="black" stroke="black" points="1006.35,-181.16 1016.45,-177.96 1006.56,-174.16 1006.35,-181.16"/>
</g>
<!-- 5 -->
<!-- name: &quot;String Index to Biome name&quot;, typeName: &quot;short&quot;, id: 5, branchId: 0, recurseId: &#45;1, attributes: 256, notes: &quot;&quot; -->
<g id="node6" class="node">
<title>5</title>
<ellipse fill="none" stroke="black" cx="841.59" cy="-126" rx="117.37" ry="18"/>
<text text-anchor="middle" x="841.59" y="-120.95" font-family="Times New Roman,serif" font-size="14.00">String Index to Biome name</text>
</g>
<!-- 4&#45;&gt;5 -->
<g id="edge5" class="edge">
<title>4&#45;&gt;5</title>
<path fill="none" stroke="black" d="M681.29,-106.99C698.64,-109.06 717.74,-111.34 736.5,-113.58"/>
<polygon fill="black" stroke="black" points="735.96,-117.04 746.3,-114.75 736.79,-110.09 735.96,-117.04"/>
</g>
<!-- 10 -->
<!-- name: &quot;Biome Definition Data&quot;, typeName: &quot;BiomeDefinitionData&quot;, id: 10, branchId: 0, recurseId: &#45;1, attributes: 256, notes: &quot;&quot; -->
<g id="node8" class="node">
<title>10</title>
<ellipse fill="none" stroke="black" cx="841.59" cy="-72" rx="96.39" ry="18"/>
<text text-anchor="middle" x="841.59" y="-66.95" font-family="Times New Roman,serif" font-size="14.00">Biome Definition Data</text>
</g>
<!-- 4&#45;&gt;10 -->
<g id="edge7" class="edge">
<title>4&#45;&gt;10</title>
<path fill="none" stroke="black" d="M681.29,-91.01C702.25,-88.51 725.76,-85.7 748.15,-83.03"/>
<polygon fill="black" stroke="black" points="748.37,-86.53 757.88,-81.87 747.54,-79.58 748.37,-86.53"/>
</g>
<!-- 9 -->
<!-- name: &quot;short&quot;, typeName: &quot;&quot;, id: 9, branchId: 0, recurseId: &#45;1, attributes: 512, notes: &quot;&quot; -->
<g id="node7" class="node">
<title>9</title>
<ellipse fill="none" stroke="black" cx="1086.24" cy="-126" rx="29.34" ry="18"/>
<text text-anchor="middle" x="1086.24" y="-120.95" font-family="Times New Roman,serif" font-size="14.00">short</text>
</g>
<!-- 5&#45;&gt;9 -->
<g id="edge6" class="edge">
<title>5&#45;&gt;9</title>
<path fill="none" stroke="black" d="M959.3,-126C990.25,-126 1021.6,-126 1045.28,-126"/>
<polygon fill="black" stroke="black" points="1045.07,-129.5 1055.07,-126 1045.07,-122.5 1045.07,-129.5"/>
</g>
<!-- 371 -->
<!-- name: &quot;BiomeDefinitionData&quot;, typeName: &quot;&quot;, id: 371, branchId: 0, recurseId: &#45;1, attributes: 512, notes: &quot;&quot; -->
<g id="node9" class="node">
<title>371</title>
<ellipse fill="none" stroke="black" cx="1086.24" cy="-72" rx="91.27" ry="18"/>
<text text-anchor="middle" x="1086.24" y="-66.95" font-family="Times New Roman,serif" font-size="14.00">BiomeDefinitionData</text>
</g>
<!-- 10&#45;&gt;371 -->
<g id="edge8" class="edge">
<title>10&#45;&gt;371</title>
<path fill="none" stroke="black" d="M938.14,-72C952.94,-72 968.27,-72 983.2,-72"/>
<polygon fill="black" stroke="black" points="983.01,-75.5 993.01,-72 983.01,-68.5 983.01,-75.5"/>
</g>
<!-- 383 -->
<!-- name: &quot;BiomeStringList&quot;, typeName: &quot;&quot;, id: 383, branchId: 0, recurseId: &#45;1, attributes: 512, notes: &quot;&quot; -->
<g id="node11" class="node">
<title>383</title>
<ellipse fill="none" stroke="black" cx="1086.24" cy="-18" rx="72.85" ry="18"/>
<text text-anchor="middle" x="1086.24" y="-12.95" font-family="Times New Roman,serif" font-size="14.00">BiomeStringList</text>
</g>
<!-- 372&#45;&gt;383 -->
<g id="edge10" class="edge">
<title>372&#45;&gt;383</title>
<path fill="none" stroke="black" d="M429.33,-43.22C546.14,-38.73 853.83,-26.9 1002.5,-21.18"/>
<polygon fill="black" stroke="black" points="1002.42,-24.69 1012.28,-20.81 1002.15,-17.69 1002.42,-24.69"/>
</g>
</g>
</svg>
