<?xml version="1.0" encoding="UTF-8" standalone="no"?>
<!DOCTYPE svg PUBLIC "-//W3C//DTD SVG 1.1//EN"
 "http://www.w3.org/Graphics/SVG/1.1/DTD/svg11.dtd">
<!-- Generated by graphviz version 12.2.1 (20241206.2353)
 -->
<!-- Title: BiomeDefinitionData Pages: 1 -->
<svg width="885pt" height="692pt"
 viewBox="0.00 0.00 884.56 692.00" xmlns="http://www.w3.org/2000/svg" xmlns:xlink="http://www.w3.org/1999/xlink">
<g id="graph0" class="graph" transform="scale(1 1) rotate(0) translate(4 688)">
<title>BiomeDefinitionData</title>
<polygon fill="white" stroke="none" points="-4,4 -4,-688 880.56,-688 880.56,4 -4,4"/>
<!-- 11 -->
<!-- name: &quot;BiomeDefinitionData&quot;, typeName: &quot;&quot;, id: 11, branchId: 0, recurseId: &#45;1, attributes: 0, notes: &quot;&quot; -->
<g id="node1" class="node">
<title>11</title>
<ellipse fill="none" stroke="black" cx="91.27" cy="-342" rx="91.27" ry="18"/>
<text text-anchor="middle" x="91.27" y="-336.95" font-family="Times New Roman,serif" font-size="14.00">BiomeDefinitionData</text>
</g>
<!-- 12 -->
<!-- name: &quot;id&quot;, typeName: &quot;std::optional&lt;unsigned short&gt;&quot;, id: 12, branchId: 0, recurseId: &#45;1, attributes: 256, notes: &quot;&quot; -->
<g id="node2" class="node">
<title>12</title>
<ellipse fill="none" stroke="black" cx="318.01" cy="-666" rx="27" ry="18"/>
<text text-anchor="middle" x="318.01" y="-660.95" font-family="Times New Roman,serif" font-size="14.00">id</text>
</g>
<!-- 11&#45;&gt;12 -->
<g id="edge1" class="edge">
<title>11&#45;&gt;12</title>
<path fill="none" stroke="black" d="M94.51,-360.19C101.87,-412.04 130.16,-561.76 218.54,-639 235.28,-653.63 259.24,-660.4 279.34,-663.51"/>
<polygon fill="black" stroke="black" points="278.78,-666.96 289.14,-664.75 279.66,-660.02 278.78,-666.96"/>
</g>
<!-- 19 -->
<!-- name: &quot;temperature&quot;, typeName: &quot;&quot;, id: 19, branchId: 0, recurseId: &#45;1, attributes: 0, notes: &quot;&quot; -->
<g id="node4" class="node">
<title>19</title>
<ellipse fill="none" stroke="black" cx="318.01" cy="-612" rx="55.45" ry="18"/>
<text text-anchor="middle" x="318.01" y="-606.95" font-family="Times New Roman,serif" font-size="14.00">temperature</text>
</g>
<!-- 11&#45;&gt;19 -->
<g id="edge3" class="edge">
<title>11&#45;&gt;19</title>
<path fill="none" stroke="black" d="M96.45,-360.46C107.71,-405.93 143.1,-524.04 218.54,-585 228.89,-593.35 241.62,-599.13 254.45,-603.12"/>
<polygon fill="black" stroke="black" points="253.18,-606.4 263.75,-605.67 255.03,-599.65 253.18,-606.4"/>
</g>
<!-- 21 -->
<!-- name: &quot;downfall&quot;, typeName: &quot;&quot;, id: 21, branchId: 0, recurseId: &#45;1, attributes: 0, notes: &quot;&quot; -->
<g id="node6" class="node">
<title>21</title>
<ellipse fill="none" stroke="black" cx="318.01" cy="-558" rx="43.67" ry="18"/>
<text text-anchor="middle" x="318.01" y="-552.95" font-family="Times New Roman,serif" font-size="14.00">downfall</text>
</g>
<!-- 11&#45;&gt;21 -->
<g id="edge5" class="edge">
<title>11&#45;&gt;21</title>
<path fill="none" stroke="black" d="M99.25,-360.24C114.7,-398.12 155.49,-485.53 218.54,-531 231.98,-540.69 248.72,-546.9 264.57,-550.88"/>
<polygon fill="black" stroke="black" points="263.35,-554.2 273.87,-552.97 264.88,-547.37 263.35,-554.2"/>
</g>
<!-- 23 -->
<!-- name: &quot;red spore desnity&quot;, typeName: &quot;&quot;, id: 23, branchId: 0, recurseId: &#45;1, attributes: 0, notes: &quot;&quot; -->
<g id="node8" class="node">
<title>23</title>
<ellipse fill="none" stroke="black" cx="318.01" cy="-504" rx="74.38" ry="18"/>
<text text-anchor="middle" x="318.01" y="-498.95" font-family="Times New Roman,serif" font-size="14.00">red spore desnity</text>
</g>
<!-- 11&#45;&gt;23 -->
<g id="edge7" class="edge">
<title>11&#45;&gt;23</title>
<path fill="none" stroke="black" d="M104.3,-360.31C124.41,-389.48 167.72,-446.31 218.54,-477 227.18,-482.21 236.84,-486.44 246.65,-489.87"/>
<polygon fill="black" stroke="black" points="245.27,-493.1 255.86,-492.82 247.41,-486.44 245.27,-493.1"/>
</g>
<!-- 25 -->
<!-- name: &quot;blue spore density&quot;, typeName: &quot;&quot;, id: 25, branchId: 0, recurseId: &#45;1, attributes: 0, notes: &quot;&quot; -->
<g id="node10" class="node">
<title>25</title>
<ellipse fill="none" stroke="black" cx="318.01" cy="-450" rx="78.48" ry="18"/>
<text text-anchor="middle" x="318.01" y="-444.95" font-family="Times New Roman,serif" font-size="14.00">blue spore density</text>
</g>
<!-- 11&#45;&gt;25 -->
<g id="edge9" class="edge">
<title>11&#45;&gt;25</title>
<path fill="none" stroke="black" d="M115.25,-359.8C139.67,-377.96 180,-405.83 218.54,-423 228.22,-427.31 238.74,-431.08 249.19,-434.32"/>
<polygon fill="black" stroke="black" points="247.97,-437.61 258.56,-437.09 249.96,-430.9 247.97,-437.61"/>
</g>
<!-- 27 -->
<!-- name: &quot;ash density&quot;, typeName: &quot;&quot;, id: 27, branchId: 0, recurseId: &#45;1, attributes: 0, notes: &quot;&quot; -->
<g id="node12" class="node">
<title>27</title>
<ellipse fill="none" stroke="black" cx="318.01" cy="-396" rx="52.38" ry="18"/>
<text text-anchor="middle" x="318.01" y="-390.95" font-family="Times New Roman,serif" font-size="14.00">ash density</text>
</g>
<!-- 11&#45;&gt;27 -->
<g id="edge11" class="edge">
<title>11&#45;&gt;27</title>
<path fill="none" stroke="black" d="M150.73,-356.05C185.44,-364.39 229.13,-374.88 263.02,-383.03"/>
<polygon fill="black" stroke="black" points="262.09,-386.4 272.63,-385.34 263.73,-379.6 262.09,-386.4"/>
</g>
<!-- 29 -->
<!-- name: &quot;white ash density&quot;, typeName: &quot;&quot;, id: 29, branchId: 0, recurseId: &#45;1, attributes: 0, notes: &quot;&quot; -->
<g id="node14" class="node">
<title>29</title>
<ellipse fill="none" stroke="black" cx="318.01" cy="-342" rx="75.41" ry="18"/>
<text text-anchor="middle" x="318.01" y="-336.95" font-family="Times New Roman,serif" font-size="14.00">white ash density</text>
</g>
<!-- 11&#45;&gt;29 -->
<g id="edge13" class="edge">
<title>11&#45;&gt;29</title>
<path fill="none" stroke="black" d="M183.03,-342C198.91,-342 215.39,-342 231.13,-342"/>
<polygon fill="black" stroke="black" points="230.94,-345.5 240.94,-342 230.94,-338.5 230.94,-345.5"/>
</g>
<!-- 31 -->
<!-- name: &quot;depth&quot;, typeName: &quot;&quot;, id: 31, branchId: 0, recurseId: &#45;1, attributes: 0, notes: &quot;&quot; -->
<g id="node16" class="node">
<title>31</title>
<ellipse fill="none" stroke="black" cx="318.01" cy="-288" rx="31.39" ry="18"/>
<text text-anchor="middle" x="318.01" y="-282.95" font-family="Times New Roman,serif" font-size="14.00">depth</text>
</g>
<!-- 11&#45;&gt;31 -->
<g id="edge15" class="edge">
<title>11&#45;&gt;31</title>
<path fill="none" stroke="black" d="M150.73,-327.95C190.75,-318.34 242.72,-305.85 277.83,-297.41"/>
<polygon fill="black" stroke="black" points="278.22,-300.92 287.12,-295.18 276.58,-294.11 278.22,-300.92"/>
</g>
<!-- 33 -->
<!-- name: &quot;scale&quot;, typeName: &quot;&quot;, id: 33, branchId: 0, recurseId: &#45;1, attributes: 0, notes: &quot;&quot; -->
<g id="node18" class="node">
<title>33</title>
<ellipse fill="none" stroke="black" cx="318.01" cy="-234" rx="29.34" ry="18"/>
<text text-anchor="middle" x="318.01" y="-228.95" font-family="Times New Roman,serif" font-size="14.00">scale</text>
</g>
<!-- 11&#45;&gt;33 -->
<g id="edge17" class="edge">
<title>11&#45;&gt;33</title>
<path fill="none" stroke="black" d="M115.25,-324.2C139.67,-306.04 180,-278.17 218.54,-261 237.59,-252.52 259.91,-246.13 278.48,-241.71"/>
<polygon fill="black" stroke="black" points="279.05,-245.17 288.02,-239.54 277.5,-238.34 279.05,-245.17"/>
</g>
<!-- 35 -->
<!-- name: &quot;map water color ARGB&quot;, typeName: &quot;&quot;, id: 35, branchId: 0, recurseId: &#45;1, attributes: 0, notes: &quot;&quot; -->
<g id="node20" class="node">
<title>35</title>
<ellipse fill="none" stroke="black" cx="318.01" cy="-180" rx="99.46" ry="18"/>
<text text-anchor="middle" x="318.01" y="-174.95" font-family="Times New Roman,serif" font-size="14.00">map water color ARGB</text>
</g>
<!-- 11&#45;&gt;35 -->
<g id="edge19" class="edge">
<title>11&#45;&gt;35</title>
<path fill="none" stroke="black" d="M104.3,-323.69C124.41,-294.52 167.72,-237.69 218.54,-207 224.81,-203.21 231.63,-199.95 238.64,-197.13"/>
<polygon fill="black" stroke="black" points="239.42,-200.57 247.6,-193.84 237.01,-194 239.42,-200.57"/>
</g>
<!-- 37 -->
<!-- name: &quot;rain&quot;, typeName: &quot;&quot;, id: 37, branchId: 0, recurseId: &#45;1, attributes: 0, notes: &quot;&quot; -->
<g id="node22" class="node">
<title>37</title>
<ellipse fill="none" stroke="black" cx="318.01" cy="-126" rx="27" ry="18"/>
<text text-anchor="middle" x="318.01" y="-120.95" font-family="Times New Roman,serif" font-size="14.00">rain</text>
</g>
<!-- 11&#45;&gt;37 -->
<g id="edge21" class="edge">
<title>11&#45;&gt;37</title>
<path fill="none" stroke="black" d="M99.25,-323.76C114.7,-285.88 155.49,-198.47 218.54,-153 236.37,-140.15 260.02,-133.41 279.68,-129.88"/>
<polygon fill="black" stroke="black" points="280.17,-133.35 289.51,-128.35 279.09,-126.43 280.17,-133.35"/>
</g>
<!-- 39 -->
<!-- name: &quot;tags&quot;, typeName: &quot;std::optional&lt;struct BiomeTagsData&gt;&quot;, id: 39, branchId: 0, recurseId: &#45;1, attributes: 256, notes: &quot;&quot; -->
<g id="node24" class="node">
<title>39</title>
<ellipse fill="none" stroke="black" cx="318.01" cy="-72" rx="27" ry="18"/>
<text text-anchor="middle" x="318.01" y="-66.95" font-family="Times New Roman,serif" font-size="14.00">tags</text>
</g>
<!-- 11&#45;&gt;39 -->
<g id="edge23" class="edge">
<title>11&#45;&gt;39</title>
<path fill="none" stroke="black" d="M96.45,-323.54C107.71,-278.07 143.1,-159.96 218.54,-99 235.83,-85.03 259.81,-78.27 279.77,-75"/>
<polygon fill="black" stroke="black" points="280.05,-78.5 289.48,-73.67 279.1,-71.56 280.05,-78.5"/>
</g>
<!-- 53 -->
<!-- name: &quot;chunk gen data&quot;, typeName: &quot;std::optional&lt;struct BiomeDefinitionChunkGenData&gt;&quot;, id: 53, branchId: 0, recurseId: &#45;1, attributes: 256, notes: &quot;Only used with client&#45;side chunk generation&quot; -->
<g id="node26" class="node">
<title>53</title>
<ellipse fill="none" stroke="black" cx="318.01" cy="-18" rx="67.22" ry="18"/>
<text text-anchor="middle" x="318.01" y="-12.95" font-family="Times New Roman,serif" font-size="14.00">chunk gen data</text>
</g>
<!-- 11&#45;&gt;53 -->
<g id="edge25" class="edge">
<title>11&#45;&gt;53</title>
<path fill="none" stroke="black" d="M94.51,-323.81C101.87,-271.96 130.16,-122.24 218.54,-45 226.34,-38.19 235.7,-33.08 245.5,-29.25"/>
<polygon fill="black" stroke="black" points="246.5,-32.61 254.83,-26.07 244.24,-25.99 246.5,-32.61"/>
</g>
<!-- 18 -->
<!-- name: &quot;std::optional&lt;unsigned short&gt;&quot;, typeName: &quot;&quot;, id: 18, branchId: 0, recurseId: &#45;1, attributes: 512, notes: &quot;&quot; -->
<g id="node3" class="node">
<title>18</title>
<ellipse fill="none" stroke="black" cx="665.01" cy="-666" rx="122.49" ry="18"/>
<text text-anchor="middle" x="665.01" y="-660.95" font-family="Times New Roman,serif" font-size="14.00">std::optional&lt;unsigned short&gt;</text>
</g>
<!-- 12&#45;&gt;18 -->
<g id="edge2" class="edge">
<title>12&#45;&gt;18</title>
<path fill="none" stroke="black" d="M345.51,-666C385.11,-666 462.45,-666 530.99,-666"/>
<polygon fill="black" stroke="black" points="530.84,-669.5 540.84,-666 530.84,-662.5 530.84,-669.5"/>
</g>
<!-- 20 -->
<!-- name: &quot;float&quot;, typeName: &quot;&quot;, id: 20, branchId: 0, recurseId: &#45;1, attributes: 512, notes: &quot;&quot; -->
<g id="node5" class="node">
<title>20</title>
<ellipse fill="none" stroke="black" cx="665.01" cy="-612" rx="27.81" ry="18"/>
<text text-anchor="middle" x="665.01" y="-606.95" font-family="Times New Roman,serif" font-size="14.00">float</text>
</g>
<!-- 19&#45;&gt;20 -->
<g id="edge4" class="edge">
<title>19&#45;&gt;20</title>
<path fill="none" stroke="black" d="M373.67,-612C443.86,-612 563.89,-612 625.32,-612"/>
<polygon fill="black" stroke="black" points="625.27,-615.5 635.27,-612 625.27,-608.5 625.27,-615.5"/>
</g>
<!-- 22 -->
<!-- name: &quot;float&quot;, typeName: &quot;&quot;, id: 22, branchId: 0, recurseId: &#45;1, attributes: 512, notes: &quot;&quot; -->
<g id="node7" class="node">
<title>22</title>
<ellipse fill="none" stroke="black" cx="665.01" cy="-558" rx="27.81" ry="18"/>
<text text-anchor="middle" x="665.01" y="-552.95" font-family="Times New Roman,serif" font-size="14.00">float</text>
</g>
<!-- 21&#45;&gt;22 -->
<g id="edge6" class="edge">
<title>21&#45;&gt;22</title>
<path fill="none" stroke="black" d="M362,-558C429.85,-558 560.7,-558 625.59,-558"/>
<polygon fill="black" stroke="black" points="625.39,-561.5 635.39,-558 625.39,-554.5 625.39,-561.5"/>
</g>
<!-- 24 -->
<!-- name: &quot;float&quot;, typeName: &quot;&quot;, id: 24, branchId: 0, recurseId: &#45;1, attributes: 512, notes: &quot;&quot; -->
<g id="node9" class="node">
<title>24</title>
<ellipse fill="none" stroke="black" cx="665.01" cy="-504" rx="27.81" ry="18"/>
<text text-anchor="middle" x="665.01" y="-498.95" font-family="Times New Roman,serif" font-size="14.00">float</text>
</g>
<!-- 23&#45;&gt;24 -->
<g id="edge8" class="edge">
<title>23&#45;&gt;24</title>
<path fill="none" stroke="black" d="M392.6,-504C464.1,-504 569.84,-504 625.9,-504"/>
<polygon fill="black" stroke="black" points="625.56,-507.5 635.56,-504 625.56,-500.5 625.56,-507.5"/>
</g>
<!-- 26 -->
<!-- name: &quot;float&quot;, typeName: &quot;&quot;, id: 26, branchId: 0, recurseId: &#45;1, attributes: 512, notes: &quot;&quot; -->
<g id="node11" class="node">
<title>26</title>
<ellipse fill="none" stroke="black" cx="665.01" cy="-450" rx="27.81" ry="18"/>
<text text-anchor="middle" x="665.01" y="-444.95" font-family="Times New Roman,serif" font-size="14.00">float</text>
</g>
<!-- 25&#45;&gt;26 -->
<g id="edge10" class="edge">
<title>25&#45;&gt;26</title>
<path fill="none" stroke="black" d="M396.86,-450C468.15,-450 570.67,-450 625.67,-450"/>
<polygon fill="black" stroke="black" points="625.47,-453.5 635.47,-450 625.47,-446.5 625.47,-453.5"/>
</g>
<!-- 28 -->
<!-- name: &quot;float&quot;, typeName: &quot;&quot;, id: 28, branchId: 0, recurseId: &#45;1, attributes: 512, notes: &quot;&quot; -->
<g id="node13" class="node">
<title>28</title>
<ellipse fill="none" stroke="black" cx="665.01" cy="-396" rx="27.81" ry="18"/>
<text text-anchor="middle" x="665.01" y="-390.95" font-family="Times New Roman,serif" font-size="14.00">float</text>
</g>
<!-- 27&#45;&gt;28 -->
<g id="edge12" class="edge">
<title>27&#45;&gt;28</title>
<path fill="none" stroke="black" d="M370.66,-396C440.59,-396 563.78,-396 625.91,-396"/>
<polygon fill="black" stroke="black" points="625.61,-399.5 635.61,-396 625.61,-392.5 625.61,-399.5"/>
</g>
<!-- 30 -->
<!-- name: &quot;float&quot;, typeName: &quot;&quot;, id: 30, branchId: 0, recurseId: &#45;1, attributes: 512, notes: &quot;&quot; -->
<g id="node15" class="node">
<title>30</title>
<ellipse fill="none" stroke="black" cx="665.01" cy="-342" rx="27.81" ry="18"/>
<text text-anchor="middle" x="665.01" y="-336.95" font-family="Times New Roman,serif" font-size="14.00">float</text>
</g>
<!-- 29&#45;&gt;30 -->
<g id="edge14" class="edge">
<title>29&#45;&gt;30</title>
<path fill="none" stroke="black" d="M393.87,-342C465.14,-342 569.56,-342 625.41,-342"/>
<polygon fill="black" stroke="black" points="625.37,-345.5 635.37,-342 625.37,-338.5 625.37,-345.5"/>
</g>
<!-- 32 -->
<!-- name: &quot;float&quot;, typeName: &quot;&quot;, id: 32, branchId: 0, recurseId: &#45;1, attributes: 512, notes: &quot;&quot; -->
<g id="node17" class="node">
<title>32</title>
<ellipse fill="none" stroke="black" cx="665.01" cy="-288" rx="27.81" ry="18"/>
<text text-anchor="middle" x="665.01" y="-282.95" font-family="Times New Roman,serif" font-size="14.00">float</text>
</g>
<!-- 31&#45;&gt;32 -->
<g id="edge16" class="edge">
<title>31&#45;&gt;32</title>
<path fill="none" stroke="black" d="M349.62,-288C412.61,-288 556.55,-288 625.64,-288"/>
<polygon fill="black" stroke="black" points="625.33,-291.5 635.33,-288 625.33,-284.5 625.33,-291.5"/>
</g>
<!-- 34 -->
<!-- name: &quot;float&quot;, typeName: &quot;&quot;, id: 34, branchId: 0, recurseId: &#45;1, attributes: 512, notes: &quot;&quot; -->
<g id="node19" class="node">
<title>34</title>
<ellipse fill="none" stroke="black" cx="665.01" cy="-234" rx="27.81" ry="18"/>
<text text-anchor="middle" x="665.01" y="-228.95" font-family="Times New Roman,serif" font-size="14.00">float</text>
</g>
<!-- 33&#45;&gt;34 -->
<g id="edge18" class="edge">
<title>33&#45;&gt;34</title>
<path fill="none" stroke="black" d="M347.83,-234C409.83,-234 555.9,-234 625.65,-234"/>
<polygon fill="black" stroke="black" points="625.44,-237.5 635.44,-234 625.44,-230.5 625.44,-237.5"/>
</g>
<!-- 36 -->
<!-- name: &quot;int&quot;, typeName: &quot;&quot;, id: 36, branchId: 0, recurseId: &#45;1, attributes: 512, notes: &quot;&quot; -->
<g id="node21" class="node">
<title>36</title>
<ellipse fill="none" stroke="black" cx="665.01" cy="-180" rx="27" ry="18"/>
<text text-anchor="middle" x="665.01" y="-174.95" font-family="Times New Roman,serif" font-size="14.00">int</text>
</g>
<!-- 35&#45;&gt;36 -->
<g id="edge20" class="edge">
<title>35&#45;&gt;36</title>
<path fill="none" stroke="black" d="M417.87,-180C487.41,-180 576.59,-180 626.28,-180"/>
<polygon fill="black" stroke="black" points="626.21,-183.5 636.21,-180 626.21,-176.5 626.21,-183.5"/>
</g>
<!-- 38 -->
<!-- name: &quot;bool&quot;, typeName: &quot;&quot;, id: 38, branchId: 0, recurseId: &#45;1, attributes: 512, notes: &quot;&quot; -->
<g id="node23" class="node">
<title>38</title>
<ellipse fill="none" stroke="black" cx="665.01" cy="-126" rx="27.3" ry="18"/>
<text text-anchor="middle" x="665.01" y="-120.95" font-family="Times New Roman,serif" font-size="14.00">bool</text>
</g>
<!-- 37&#45;&gt;38 -->
<g id="edge22" class="edge">
<title>37&#45;&gt;38</title>
<path fill="none" stroke="black" d="M345.51,-126C406.21,-126 555.54,-126 626.02,-126"/>
<polygon fill="black" stroke="black" points="625.91,-129.5 635.91,-126 625.91,-122.5 625.91,-129.5"/>
</g>
<!-- 52 -->
<!-- name: &quot;std::optional&lt;struct BiomeTagsData&gt;&quot;, typeName: &quot;&quot;, id: 52, branchId: 0, recurseId: &#45;1, attributes: 512, notes: &quot;&quot; -->
<g id="node25" class="node">
<title>52</title>
<ellipse fill="none" stroke="black" cx="665.01" cy="-72" rx="151.15" ry="18"/>
<text text-anchor="middle" x="665.01" y="-66.95" font-family="Times New Roman,serif" font-size="14.00">std::optional&lt;struct BiomeTagsData&gt;</text>
</g>
<!-- 39&#45;&gt;52 -->
<g id="edge24" class="edge">
<title>39&#45;&gt;52</title>
<path fill="none" stroke="black" d="M345.51,-72C379.67,-72 441.9,-72 502.35,-72"/>
<polygon fill="black" stroke="black" points="502.1,-75.5 512.1,-72 502.1,-68.5 502.1,-75.5"/>
</g>
<!-- 370 -->
<!-- name: &quot;std::optional&lt;struct BiomeDefinitionChunkGenData&gt;&quot;, typeName: &quot;&quot;, id: 370, branchId: 0, recurseId: &#45;1, attributes: 512, notes: &quot;&quot; -->
<g id="node27" class="node">
<title>370</title>
<ellipse fill="none" stroke="black" cx="665.01" cy="-18" rx="211.55" ry="18"/>
<text text-anchor="middle" x="665.01" y="-12.95" font-family="Times New Roman,serif" font-size="14.00">std::optional&lt;struct BiomeDefinitionChunkGenData&gt;</text>
</g>
<!-- 53&#45;&gt;370 -->
<g id="edge26" class="edge">
<title>53&#45;&gt;370</title>
<path fill="none" stroke="black" d="M385.53,-18C402.46,-18 421.62,-18 441.77,-18"/>
<polygon fill="black" stroke="black" points="441.55,-21.5 451.55,-18 441.55,-14.5 441.55,-21.5"/>
</g>
</g>
</svg>
