<?xml version="1.0" encoding="UTF-8" standalone="no"?>
<!DOCTYPE svg PUBLIC "-//W3C//DTD SVG 1.1//EN"
 "http://www.w3.org/Graphics/SVG/1.1/DTD/svg11.dtd">
<!-- Generated by graphviz version 11.0.0 (20240428.1522)
 -->
<!-- Title: BiomeConsolidatedFeatureData Pages: 1 -->
<svg width="674pt" height="260pt"
 viewBox="0.00 0.00 673.80 260.00" xmlns="http://www.w3.org/2000/svg" xmlns:xlink="http://www.w3.org/1999/xlink">
<g id="graph0" class="graph" transform="scale(1 1) rotate(0) translate(4 256)">
<title>BiomeConsolidatedFeatureData</title>
<polygon fill="white" stroke="none" points="-4,4 -4,-256 669.8,-256 669.8,4 -4,4"/>
<!-- 94 -->
<!-- name: &quot;BiomeConsolidatedFeatureData&quot;, typeName: &quot;&quot;, id: 94, branchId: 0, recurseId: &#45;1, attributes: 0, notes: &quot;&quot; -->
<g id="node1" class="node">
<title>94</title>
<ellipse fill="none" stroke="black" cx="128.41" cy="-126" rx="128.41" ry="18"/>
<text text-anchor="middle" x="128.41" y="-120.58" font-family="Times New Roman,serif" font-size="14.00">BiomeConsolidatedFeatureData</text>
</g>
<!-- 95 -->
<!-- name: &quot;scatter&quot;, typeName: &quot;BiomeScatterParamData&quot;, id: 95, branchId: 0, recurseId: &#45;1, attributes: 256, notes: &quot;&quot; -->
<g id="node2" class="node">
<title>95</title>
<ellipse fill="none" stroke="black" cx="360.35" cy="-234" rx="35.1" ry="18"/>
<text text-anchor="middle" x="360.35" y="-228.57" font-family="Times New Roman,serif" font-size="14.00">scatter</text>
</g>
<!-- 94&#45;&gt;95 -->
<g id="edge1" class="edge">
<title>94&#45;&gt;95</title>
<path fill="none" stroke="black" d="M163.17,-143.66C195.97,-160.59 247.34,-186.53 292.82,-207 301.89,-211.08 311.76,-215.24 321.07,-219.03"/>
<polygon fill="black" stroke="black" points="319.65,-222.24 330.23,-222.73 322.27,-215.74 319.65,-222.24"/>
</g>
<!-- 133 -->
<!-- name: &quot;feature&quot;, typeName: &quot;short&quot;, id: 133, branchId: 0, recurseId: &#45;1, attributes: 256, notes: &quot;&quot; -->
<g id="node4" class="node">
<title>133</title>
<ellipse fill="none" stroke="black" cx="360.35" cy="-180" rx="35.6" ry="18"/>
<text text-anchor="middle" x="360.35" y="-174.57" font-family="Times New Roman,serif" font-size="14.00">feature</text>
</g>
<!-- 94&#45;&gt;133 -->
<g id="edge3" class="edge">
<title>94&#45;&gt;133</title>
<path fill="none" stroke="black" d="M196.22,-141.69C235.06,-150.81 282.85,-162.03 316.63,-169.97"/>
<polygon fill="black" stroke="black" points="315.51,-173.3 326.05,-172.18 317.11,-166.49 315.51,-173.3"/>
</g>
<!-- 135 -->
<!-- name: &quot;identifier&quot;, typeName: &quot;short&quot;, id: 135, branchId: 0, recurseId: &#45;1, attributes: 256, notes: &quot;&quot; -->
<g id="node6" class="node">
<title>135</title>
<ellipse fill="none" stroke="black" cx="360.35" cy="-126" rx="42.58" ry="18"/>
<text text-anchor="middle" x="360.35" y="-120.58" font-family="Times New Roman,serif" font-size="14.00">identifier</text>
</g>
<!-- 94&#45;&gt;135 -->
<g id="edge5" class="edge">
<title>94&#45;&gt;135</title>
<path fill="none" stroke="black" d="M257.15,-126C274.28,-126 291.03,-126 305.84,-126"/>
<polygon fill="black" stroke="black" points="305.77,-129.5 315.77,-126 305.77,-122.5 305.77,-129.5"/>
</g>
<!-- 137 -->
<!-- name: &quot;pass&quot;, typeName: &quot;short&quot;, id: 137, branchId: 0, recurseId: &#45;1, attributes: 256, notes: &quot;&quot; -->
<g id="node8" class="node">
<title>137</title>
<ellipse fill="none" stroke="black" cx="360.35" cy="-72" rx="27.61" ry="18"/>
<text text-anchor="middle" x="360.35" y="-66.58" font-family="Times New Roman,serif" font-size="14.00">pass</text>
</g>
<!-- 94&#45;&gt;137 -->
<g id="edge7" class="edge">
<title>94&#45;&gt;137</title>
<path fill="none" stroke="black" d="M196.22,-110.31C237.56,-100.6 289.04,-88.51 322.98,-80.54"/>
<polygon fill="black" stroke="black" points="323.37,-84.04 332.31,-78.35 321.77,-77.23 323.37,-84.04"/>
</g>
<!-- 139 -->
<!-- name: &quot;can use internal&quot;, typeName: &quot;&quot;, id: 139, branchId: 0, recurseId: &#45;1, attributes: 0, notes: &quot;&quot; -->
<g id="node10" class="node">
<title>139</title>
<ellipse fill="none" stroke="black" cx="360.35" cy="-18" rx="67.53" ry="18"/>
<text text-anchor="middle" x="360.35" y="-12.57" font-family="Times New Roman,serif" font-size="14.00">can use internal</text>
</g>
<!-- 94&#45;&gt;139 -->
<g id="edge9" class="edge">
<title>94&#45;&gt;139</title>
<path fill="none" stroke="black" d="M163.17,-108.34C195.97,-91.41 247.34,-65.47 292.82,-45 298.64,-42.38 304.8,-39.72 310.93,-37.16"/>
<polygon fill="black" stroke="black" points="311.84,-40.57 319.74,-33.51 309.16,-34.1 311.84,-40.57"/>
</g>
<!-- 132 -->
<!-- name: &quot;BiomeScatterParamData&quot;, typeName: &quot;&quot;, id: 132, branchId: 0, recurseId: &#45;1, attributes: 512, notes: &quot;&quot; -->
<g id="node3" class="node">
<title>132</title>
<ellipse fill="none" stroke="black" cx="564.84" cy="-234" rx="100.96" ry="18"/>
<text text-anchor="middle" x="564.84" y="-228.57" font-family="Times New Roman,serif" font-size="14.00">BiomeScatterParamData</text>
</g>
<!-- 95&#45;&gt;132 -->
<g id="edge2" class="edge">
<title>95&#45;&gt;132</title>
<path fill="none" stroke="black" d="M395.7,-234C411.69,-234 431.72,-234 452.32,-234"/>
<polygon fill="black" stroke="black" points="452.29,-237.5 462.29,-234 452.29,-230.5 452.29,-237.5"/>
</g>
<!-- 134 -->
<!-- name: &quot;short&quot;, typeName: &quot;&quot;, id: 134, branchId: 0, recurseId: &#45;1, attributes: 512, notes: &quot;&quot; -->
<g id="node5" class="node">
<title>134</title>
<ellipse fill="none" stroke="black" cx="564.84" cy="-180" rx="29.61" ry="18"/>
<text text-anchor="middle" x="564.84" y="-174.57" font-family="Times New Roman,serif" font-size="14.00">short</text>
</g>
<!-- 133&#45;&gt;134 -->
<g id="edge4" class="edge">
<title>133&#45;&gt;134</title>
<path fill="none" stroke="black" d="M396.16,-180C431.56,-180 486.38,-180 523.62,-180"/>
<polygon fill="black" stroke="black" points="523.53,-183.5 533.53,-180 523.53,-176.5 523.53,-183.5"/>
</g>
<!-- 136 -->
<!-- name: &quot;short&quot;, typeName: &quot;&quot;, id: 136, branchId: 0, recurseId: &#45;1, attributes: 512, notes: &quot;&quot; -->
<g id="node7" class="node">
<title>136</title>
<ellipse fill="none" stroke="black" cx="564.84" cy="-126" rx="29.61" ry="18"/>
<text text-anchor="middle" x="564.84" y="-120.58" font-family="Times New Roman,serif" font-size="14.00">short</text>
</g>
<!-- 135&#45;&gt;136 -->
<g id="edge6" class="edge">
<title>135&#45;&gt;136</title>
<path fill="none" stroke="black" d="M403.3,-126C438.69,-126 489,-126 523.82,-126"/>
<polygon fill="black" stroke="black" points="523.48,-129.5 533.48,-126 523.48,-122.5 523.48,-129.5"/>
</g>
<!-- 138 -->
<!-- name: &quot;short&quot;, typeName: &quot;&quot;, id: 138, branchId: 0, recurseId: &#45;1, attributes: 512, notes: &quot;&quot; -->
<g id="node9" class="node">
<title>138</title>
<ellipse fill="none" stroke="black" cx="564.84" cy="-72" rx="29.61" ry="18"/>
<text text-anchor="middle" x="564.84" y="-66.58" font-family="Times New Roman,serif" font-size="14.00">short</text>
</g>
<!-- 137&#45;&gt;138 -->
<g id="edge8" class="edge">
<title>137&#45;&gt;138</title>
<path fill="none" stroke="black" d="M388.24,-72C422.83,-72 483.22,-72 523.37,-72"/>
<polygon fill="black" stroke="black" points="523.36,-75.5 533.36,-72 523.36,-68.5 523.36,-75.5"/>
</g>
<!-- 140 -->
<!-- name: &quot;bool&quot;, typeName: &quot;&quot;, id: 140, branchId: 0, recurseId: &#45;1, attributes: 512, notes: &quot;&quot; -->
<g id="node11" class="node">
<title>140</title>
<ellipse fill="none" stroke="black" cx="564.84" cy="-18" rx="27.61" ry="18"/>
<text text-anchor="middle" x="564.84" y="-12.57" font-family="Times New Roman,serif" font-size="14.00">bool</text>
</g>
<!-- 139&#45;&gt;140 -->
<g id="edge10" class="edge">
<title>139&#45;&gt;140</title>
<path fill="none" stroke="black" d="M428.21,-18C460.42,-18 497.91,-18 525.29,-18"/>
<polygon fill="black" stroke="black" points="525.22,-21.5 535.22,-18 525.22,-14.5 525.22,-21.5"/>
</g>
</g>
</svg>
