<?xml version="1.0" encoding="UTF-8" standalone="no"?>
<!DOCTYPE svg PUBLIC "-//W3C//DTD SVG 1.1//EN"
 "http://www.w3.org/Graphics/SVG/1.1/DTD/svg11.dtd">
<!-- Generated by graphviz version 11.0.0 (20240428.1522)
 -->
<!-- Title: BiomeStringList Pages: 1 -->
<svg width="1251pt" height="98pt"
 viewBox="0.00 0.00 1251.45 98.00" xmlns="http://www.w3.org/2000/svg" xmlns:xlink="http://www.w3.org/1999/xlink">
<g id="graph0" class="graph" transform="scale(1 1) rotate(0) translate(4 94)">
<title>BiomeStringList</title>
<polygon fill="white" stroke="none" points="-4,4 -4,-94 1247.45,-94 1247.45,4 -4,4"/>
<!-- 373 -->
<!-- name: &quot;BiomeStringList&quot;, typeName: &quot;&quot;, id: 373, branchId: 0, recurseId: &#45;1, attributes: 0, notes: &quot;&quot; -->
<g id="node1" class="node">
<title>373</title>
<ellipse fill="none" stroke="black" cx="70.52" cy="-45" rx="70.52" ry="18"/>
<text text-anchor="middle" x="70.52" y="-39.58" font-family="Times New Roman,serif" font-size="14.00">BiomeStringList</text>
</g>
<!-- 374 -->
<!-- name: &quot;string&quot;, typeName: &quot;&quot;, id: 374, branchId: 0, recurseId: &#45;1, attributes: 8, notes: &quot;&quot; -->
<g id="node2" class="node">
<title>374</title>
<ellipse fill="none" stroke="black" cx="208.15" cy="-45" rx="31.1" ry="18"/>
<text text-anchor="middle" x="208.15" y="-39.58" font-family="Times New Roman,serif" font-size="14.00">string</text>
</g>
<!-- 373&#45;&gt;374 -->
<g id="edge1" class="edge">
<title>373&#45;&gt;374</title>
<path fill="none" stroke="black" d="M141.33,-45C149.5,-45 157.64,-45 165.27,-45"/>
<polygon fill="black" stroke="black" points="165.24,-48.5 175.24,-45 165.24,-41.5 165.24,-48.5"/>
</g>
<!-- 375 -->
<!-- name: &quot;List Size&quot;, typeName: &quot;&quot;, id: 375, branchId: 0, recurseId: &#45;1, attributes: 0, notes: &quot;&quot; -->
<g id="node3" class="node">
<title>375</title>
<ellipse fill="none" stroke="black" cx="525.33" cy="-72" rx="42.58" ry="18"/>
<text text-anchor="middle" x="525.33" y="-66.58" font-family="Times New Roman,serif" font-size="14.00">List Size</text>
</g>
<!-- 374&#45;&gt;375 -->
<g id="edge2" class="edge">
<title>374&#45;&gt;375</title>
<path fill="none" stroke="black" d="M239.37,-47.59C292.93,-52.18 405.12,-61.79 471.64,-67.49"/>
<polygon fill="black" stroke="black" points="471.33,-70.97 481.59,-68.34 471.93,-64 471.33,-70.97"/>
</g>
<!-- 377 -->
<!-- name: &quot;example element&quot;, typeName: &quot;&quot;, id: 377, branchId: 0, recurseId: &#45;1, attributes: 16, notes: &quot;&quot; -->
<g id="node5" class="node">
<title>377</title>
<ellipse fill="none" stroke="black" stroke-dasharray="1,5" cx="346.78" cy="-22" rx="71.52" ry="18"/>
<text text-anchor="middle" x="346.78" y="-16.57" font-family="Times New Roman,serif" font-size="14.00">example element</text>
</g>
<!-- 374&#45;&gt;377 -->
<g id="edge4" class="edge">
<title>374&#45;&gt;377</title>
<path fill="none" stroke="black" d="M238.46,-40.07C249.43,-38.22 262.41,-36.03 275.49,-33.83"/>
<polygon fill="black" stroke="black" points="275.68,-37.35 284.96,-32.24 274.52,-30.45 275.68,-37.35"/>
</g>
<!-- 376 -->
<!-- name: &quot;unsigned varint&quot;, typeName: &quot;&quot;, id: 376, branchId: 0, recurseId: &#45;1, attributes: 512, notes: &quot;&quot; -->
<g id="node4" class="node">
<title>376</title>
<ellipse fill="none" stroke="black" cx="937.9" cy="-72" rx="66.53" ry="18"/>
<text text-anchor="middle" x="937.9" y="-66.58" font-family="Times New Roman,serif" font-size="14.00">unsigned varint</text>
</g>
<!-- 375&#45;&gt;376 -->
<g id="edge3" class="edge">
<title>375&#45;&gt;376</title>
<path fill="none" stroke="black" d="M568.34,-72C636.79,-72 773.43,-72 859.73,-72"/>
<polygon fill="black" stroke="black" points="859.53,-75.5 869.53,-72 859.53,-68.5 859.53,-75.5"/>
</g>
<!-- 378 -->
<!-- name: &quot;all biome strings&quot;, typeName: &quot;std::basic_string&lt;char,struct std::char_traits&lt;char&gt;,class std::allocator&lt;char&gt; &gt;&quot;, id: 378, branchId: 0, recurseId: &#45;1, attributes: 256, notes: &quot;List of strings referenced wherever a string index is used under BiomeDefinitionData&quot; -->
<g id="node6" class="node">
<title>378</title>
<ellipse fill="none" stroke="black" cx="525.33" cy="-18" rx="71.02" ry="18"/>
<text text-anchor="middle" x="525.33" y="-12.57" font-family="Times New Roman,serif" font-size="14.00">all biome strings</text>
</g>
<!-- 377&#45;&gt;378 -->
<g id="edge5" class="edge">
<title>377&#45;&gt;378</title>
<path fill="none" stroke="black" d="M418.32,-20.4C426.35,-20.22 434.58,-20.03 442.74,-19.85"/>
<polygon fill="black" stroke="black" points="442.76,-23.35 452.68,-19.62 442.6,-16.35 442.76,-23.35"/>
</g>
<!-- 382 -->
<!-- name: &quot;std::basic_string&lt;char,struct std::char_traits&lt;char&gt;,class std::allocator&lt;char&gt; &gt;&quot;, typeName: &quot;&quot;, id: 382, branchId: 0, recurseId: &#45;1, attributes: 512, notes: &quot;&quot; -->
<g id="node7" class="node">
<title>382</title>
<ellipse fill="none" stroke="black" cx="937.9" cy="-18" rx="305.55" ry="18"/>
<text text-anchor="middle" x="937.9" y="-12.57" font-family="Times New Roman,serif" font-size="14.00">std::basic_string&lt;char,struct std::char_traits&lt;char&gt;,class std::allocator&lt;char&gt; &gt;</text>
</g>
<!-- 378&#45;&gt;382 -->
<g id="edge6" class="edge">
<title>378&#45;&gt;382</title>
<path fill="none" stroke="black" d="M596.44,-18C604.08,-18 612.18,-18 620.63,-18"/>
<polygon fill="black" stroke="black" points="620.43,-21.5 630.43,-18 620.43,-14.5 620.43,-21.5"/>
</g>
</g>
</svg>
