<?xml version="1.0" encoding="UTF-8" standalone="no"?>
<!DOCTYPE svg PUBLIC "-//W3C//DTD SVG 1.1//EN"
 "http://www.w3.org/Graphics/SVG/1.1/DTD/svg11.dtd">
<!-- Generated by graphviz version 11.0.0 (20240428.1522)
 -->
<!-- Title: BiomeTagsData Pages: 1 -->
<svg width="707pt" height="98pt"
 viewBox="0.00 0.00 707.32 98.00" xmlns="http://www.w3.org/2000/svg" xmlns:xlink="http://www.w3.org/1999/xlink">
<g id="graph0" class="graph" transform="scale(1 1) rotate(0) translate(4 94)">
<title>BiomeTagsData</title>
<polygon fill="white" stroke="none" points="-4,4 -4,-94 703.32,-94 703.32,4 -4,4"/>
<!-- 44 -->
<!-- name: &quot;BiomeTagsData&quot;, typeName: &quot;&quot;, id: 44, branchId: 0, recurseId: &#45;1, attributes: 0, notes: &quot;&quot; -->
<g id="node1" class="node">
<title>44</title>
<ellipse fill="none" stroke="black" cx="70.03" cy="-45" rx="70.03" ry="18"/>
<text text-anchor="middle" x="70.03" y="-39.58" font-family="Times New Roman,serif" font-size="14.00">BiomeTagsData</text>
</g>
<!-- 45 -->
<!-- name: &quot;tag&quot;, typeName: &quot;&quot;, id: 45, branchId: 0, recurseId: &#45;1, attributes: 8, notes: &quot;&quot; -->
<g id="node2" class="node">
<title>45</title>
<ellipse fill="none" stroke="black" cx="203.05" cy="-45" rx="27" ry="18"/>
<text text-anchor="middle" x="203.05" y="-39.58" font-family="Times New Roman,serif" font-size="14.00">tag</text>
</g>
<!-- 44&#45;&gt;45 -->
<g id="edge1" class="edge">
<title>44&#45;&gt;45</title>
<path fill="none" stroke="black" d="M140.38,-45C148.67,-45 156.89,-45 164.49,-45"/>
<polygon fill="black" stroke="black" points="164.33,-48.5 174.33,-45 164.33,-41.5 164.33,-48.5"/>
</g>
<!-- 46 -->
<!-- name: &quot;List Size&quot;, typeName: &quot;&quot;, id: 46, branchId: 0, recurseId: &#45;1, attributes: 0, notes: &quot;&quot; -->
<g id="node3" class="node">
<title>46</title>
<ellipse fill="none" stroke="black" cx="487.68" cy="-72" rx="42.58" ry="18"/>
<text text-anchor="middle" x="487.68" y="-66.58" font-family="Times New Roman,serif" font-size="14.00">List Size</text>
</g>
<!-- 45&#45;&gt;46 -->
<g id="edge2" class="edge">
<title>45&#45;&gt;46</title>
<path fill="none" stroke="black" d="M230.13,-47.49C276.48,-51.92 373.99,-61.23 434.55,-67.02"/>
<polygon fill="black" stroke="black" points="433.98,-70.48 444.26,-67.95 434.64,-63.51 433.98,-70.48"/>
</g>
<!-- 48 -->
<!-- name: &quot;example element&quot;, typeName: &quot;&quot;, id: 48, branchId: 0, recurseId: &#45;1, attributes: 16, notes: &quot;&quot; -->
<g id="node5" class="node">
<title>48</title>
<ellipse fill="none" stroke="black" stroke-dasharray="1,5" cx="337.57" cy="-22" rx="71.52" ry="18"/>
<text text-anchor="middle" x="337.57" y="-16.57" font-family="Times New Roman,serif" font-size="14.00">example element</text>
</g>
<!-- 45&#45;&gt;48 -->
<g id="edge4" class="edge">
<title>45&#45;&gt;48</title>
<path fill="none" stroke="black" d="M229.6,-40.57C240.3,-38.71 253.3,-36.45 266.51,-34.16"/>
<polygon fill="black" stroke="black" points="266.86,-37.65 276.11,-32.49 265.66,-30.76 266.86,-37.65"/>
</g>
<!-- 47 -->
<!-- name: &quot;unsigned varint&quot;, typeName: &quot;&quot;, id: 47, branchId: 0, recurseId: &#45;1, attributes: 512, notes: &quot;&quot; -->
<g id="node4" class="node">
<title>47</title>
<ellipse fill="none" stroke="black" cx="632.79" cy="-72" rx="66.53" ry="18"/>
<text text-anchor="middle" x="632.79" y="-66.58" font-family="Times New Roman,serif" font-size="14.00">unsigned varint</text>
</g>
<!-- 46&#45;&gt;47 -->
<g id="edge3" class="edge">
<title>46&#45;&gt;47</title>
<path fill="none" stroke="black" d="M530.46,-72C538.11,-72 546.33,-72 554.64,-72"/>
<polygon fill="black" stroke="black" points="554.48,-75.5 564.48,-72 554.48,-68.5 554.48,-75.5"/>
</g>
<!-- 49 -->
<!-- name: &quot;tags&quot;, typeName: &quot;short&quot;, id: 49, branchId: 0, recurseId: &#45;1, attributes: 256, notes: &quot;&quot; -->
<g id="node6" class="node">
<title>49</title>
<ellipse fill="none" stroke="black" cx="487.68" cy="-18" rx="27" ry="18"/>
<text text-anchor="middle" x="487.68" y="-12.57" font-family="Times New Roman,serif" font-size="14.00">tags</text>
</g>
<!-- 48&#45;&gt;49 -->
<g id="edge5" class="edge">
<title>48&#45;&gt;49</title>
<path fill="none" stroke="black" d="M409.16,-20.09C423.04,-19.72 437.1,-19.34 449.35,-19.01"/>
<polygon fill="black" stroke="black" points="449.07,-22.52 458.97,-18.75 448.88,-15.52 449.07,-22.52"/>
</g>
<!-- 50 -->
<!-- name: &quot;short&quot;, typeName: &quot;&quot;, id: 50, branchId: 0, recurseId: &#45;1, attributes: 512, notes: &quot;&quot; -->
<g id="node7" class="node">
<title>50</title>
<ellipse fill="none" stroke="black" cx="632.79" cy="-18" rx="29.61" ry="18"/>
<text text-anchor="middle" x="632.79" y="-12.57" font-family="Times New Roman,serif" font-size="14.00">short</text>
</g>
<!-- 49&#45;&gt;50 -->
<g id="edge6" class="edge">
<title>49&#45;&gt;50</title>
<path fill="none" stroke="black" d="M514.93,-18C536.29,-18 566.79,-18 591.28,-18"/>
<polygon fill="black" stroke="black" points="591.24,-21.5 601.24,-18 591.24,-14.5 591.24,-21.5"/>
</g>
</g>
</svg>
