<?xml version="1.0" encoding="UTF-8" standalone="no"?>
<!DOCTYPE svg PUBLIC "-//W3C//DTD SVG 1.1//EN"
 "http://www.w3.org/Graphics/SVG/1.1/DTD/svg11.dtd">
<!-- Generated by graphviz version 12.2.1 (20241206.2353)
 -->
<!-- Title: BiomeStringList Pages: 1 -->
<svg width="1270pt" height="98pt"
 viewBox="0.00 0.00 1270.47 98.00" xmlns="http://www.w3.org/2000/svg" xmlns:xlink="http://www.w3.org/1999/xlink">
<g id="graph0" class="graph" transform="scale(1 1) rotate(0) translate(4 94)">
<title>BiomeStringList</title>
<polygon fill="white" stroke="none" points="-4,4 -4,-94 1266.47,-94 1266.47,4 -4,4"/>
<!-- 373 -->
<!-- name: &quot;BiomeStringList&quot;, typeName: &quot;&quot;, id: 373, branchId: 0, recurseId: &#45;1, attributes: 0, notes: &quot;&quot; -->
<g id="node1" class="node">
<title>373</title>
<ellipse fill="none" stroke="black" cx="72.85" cy="-45" rx="72.85" ry="18"/>
<text text-anchor="middle" x="72.85" y="-39.95" font-family="Times New Roman,serif" font-size="14.00">BiomeStringList</text>
</g>
<!-- 374 -->
<!-- name: &quot;string&quot;, typeName: &quot;&quot;, id: 374, branchId: 0, recurseId: &#45;1, attributes: 8, notes: &quot;&quot; -->
<g id="node2" class="node">
<title>374</title>
<ellipse fill="none" stroke="black" cx="213.6" cy="-45" rx="31.9" ry="18"/>
<text text-anchor="middle" x="213.6" y="-39.95" font-family="Times New Roman,serif" font-size="14.00">string</text>
</g>
<!-- 373&#45;&gt;374 -->
<g id="edge1" class="edge">
<title>373&#45;&gt;374</title>
<path fill="none" stroke="black" d="M146.07,-45C154.19,-45 162.26,-45 169.84,-45"/>
<polygon fill="black" stroke="black" points="169.75,-48.5 179.75,-45 169.75,-41.5 169.75,-48.5"/>
</g>
<!-- 375 -->
<!-- name: &quot;List Size&quot;, typeName: &quot;&quot;, id: 375, branchId: 0, recurseId: &#45;1, attributes: 0, notes: &quot;&quot; -->
<g id="node3" class="node">
<title>375</title>
<ellipse fill="none" stroke="black" cx="540.65" cy="-72" rx="43.67" ry="18"/>
<text text-anchor="middle" x="540.65" y="-66.95" font-family="Times New Roman,serif" font-size="14.00">List Size</text>
</g>
<!-- 374&#45;&gt;375 -->
<g id="edge2" class="edge">
<title>374&#45;&gt;375</title>
<path fill="none" stroke="black" d="M245.47,-47.56C300.75,-52.16 417.25,-61.83 485.9,-67.54"/>
<polygon fill="black" stroke="black" points="485.54,-71.02 495.8,-68.36 486.12,-64.04 485.54,-71.02"/>
</g>
<!-- 377 -->
<!-- name: &quot;example element&quot;, typeName: &quot;&quot;, id: 377, branchId: 0, recurseId: &#45;1, attributes: 16, notes: &quot;&quot; -->
<g id="node5" class="node">
<title>377</title>
<ellipse fill="none" stroke="black" stroke-dasharray="1,5" cx="356.39" cy="-22" rx="74.89" ry="18"/>
<text text-anchor="middle" x="356.39" y="-16.95" font-family="Times New Roman,serif" font-size="14.00">example element</text>
</g>
<!-- 374&#45;&gt;377 -->
<g id="edge4" class="edge">
<title>374&#45;&gt;377</title>
<path fill="none" stroke="black" d="M244.8,-40.07C255.91,-38.25 269.03,-36.11 282.28,-33.94"/>
<polygon fill="black" stroke="black" points="282.6,-37.44 291.9,-32.37 281.47,-30.53 282.6,-37.44"/>
</g>
<!-- 376 -->
<!-- name: &quot;unsigned varint&quot;, typeName: &quot;&quot;, id: 376, branchId: 0, recurseId: &#45;1, attributes: 512, notes: &quot;&quot; -->
<g id="node4" class="node">
<title>376</title>
<ellipse fill="none" stroke="black" cx="956.24" cy="-72" rx="68.24" ry="18"/>
<text text-anchor="middle" x="956.24" y="-66.95" font-family="Times New Roman,serif" font-size="14.00">unsigned varint</text>
</g>
<!-- 375&#45;&gt;376 -->
<g id="edge3" class="edge">
<title>375&#45;&gt;376</title>
<path fill="none" stroke="black" d="M584.74,-72C653.65,-72 789.68,-72 876.35,-72"/>
<polygon fill="black" stroke="black" points="876.2,-75.5 886.2,-72 876.2,-68.5 876.2,-75.5"/>
</g>
<!-- 378 -->
<!-- name: &quot;all biome strings&quot;, typeName: &quot;std::basic_string&lt;char,struct std::char_traits&lt;char&gt;,class std::allocator&lt;char&gt; &gt;&quot;, id: 378, branchId: 0, recurseId: &#45;1, attributes: 256, notes: &quot;List of strings referenced wherever a string index is used under BiomeDefinitionData&quot; -->
<g id="node6" class="node">
<title>378</title>
<ellipse fill="none" stroke="black" cx="540.65" cy="-18" rx="73.36" ry="18"/>
<text text-anchor="middle" x="540.65" y="-12.95" font-family="Times New Roman,serif" font-size="14.00">all biome strings</text>
</g>
<!-- 377&#45;&gt;378 -->
<g id="edge5" class="edge">
<title>377&#45;&gt;378</title>
<path fill="none" stroke="black" d="M431.26,-20.38C439.31,-20.2 447.54,-20.02 455.7,-19.84"/>
<polygon fill="black" stroke="black" points="455.72,-23.34 465.64,-19.62 455.57,-16.34 455.72,-23.34"/>
</g>
<!-- 382 -->
<!-- name: &quot;std::basic_string&lt;char,struct std::char_traits&lt;char&gt;,class std::allocator&lt;char&gt; &gt;&quot;, typeName: &quot;&quot;, id: 382, branchId: 0, recurseId: &#45;1, attributes: 512, notes: &quot;&quot; -->
<g id="node7" class="node">
<title>382</title>
<ellipse fill="none" stroke="black" cx="956.24" cy="-18" rx="306.23" ry="18"/>
<text text-anchor="middle" x="956.24" y="-12.95" font-family="Times New Roman,serif" font-size="14.00">std::basic_string&lt;char,struct std::char_traits&lt;char&gt;,class std::allocator&lt;char&gt; &gt;</text>
</g>
<!-- 378&#45;&gt;382 -->
<g id="edge6" class="edge">
<title>378&#45;&gt;382</title>
<path fill="none" stroke="black" d="M614.16,-18C621.82,-18 629.9,-18 638.33,-18"/>
<polygon fill="black" stroke="black" points="638.08,-21.5 648.08,-18 638.08,-14.5 638.08,-21.5"/>
</g>
</g>
</svg>
