<?xml version="1.0" encoding="UTF-8" standalone="no"?>
<!DOCTYPE svg PUBLIC "-//W3C//DTD SVG 1.1//EN"
 "http://www.w3.org/Graphics/SVG/1.1/DTD/svg11.dtd">
<!-- Generated by graphviz version 14.1.5 (20260411.2331)
 -->
<!-- Title: BiomeScatterParamData Pages: 1 -->
<svg width="1110pt" height="800pt"
 viewBox="0.00 0.00 1110.00 800.00" xmlns="http://www.w3.org/2000/svg" xmlns:xlink="http://www.w3.org/1999/xlink">
<g id="graph0" class="graph" transform="scale(1 1) rotate(0) translate(4 796)">
<title>BiomeScatterParamData</title>
<polygon fill="white" stroke="none" points="-4,4 -4,-796 1105.76,-796 1105.76,4 -4,4"/>
<!-- 0 -->
<!-- name: &quot;BiomeScatterParamData&quot;, typeName: &quot;&quot;, id: 0, branchId: 0, recurseId: &#45;1, attributes: 0, notes: &quot;&quot; -->
<g id="node1" class="node">
<title>0</title>
<ellipse fill="none" stroke="black" cx="103.04" cy="-204" rx="103.04" ry="18"/>
<text xml:space="preserve" text-anchor="middle" x="103.04" y="-198.95" font-family="Times New Roman,serif" font-size="14.00">BiomeScatterParamData</text>
</g>
<!-- 1 -->
<!-- name: &quot;coordinates&quot;, typeName: &quot;&quot;, id: 1, branchId: 0, recurseId: &#45;1, attributes: 0, notes: &quot;&quot; -->
<g id="node2" class="node">
<title>1</title>
<ellipse fill="none" stroke="black" cx="326.71" cy="-558" rx="53.4" ry="18"/>
<text xml:space="preserve" text-anchor="middle" x="326.71" y="-552.95" font-family="Times New Roman,serif" font-size="14.00">coordinates</text>
</g>
<!-- 0&#45;&gt;1 -->
<g id="edge1" class="edge">
<title>0&#45;&gt;1</title>
<path fill="none" stroke="black" d="M115.34,-222.04C151.58,-279.92 265.09,-461.19 308.55,-530.6"/>
<polygon fill="black" stroke="black" points="305.36,-532.09 313.63,-538.71 311.29,-528.38 305.36,-532.09"/>
</g>
<!-- 19 -->
<!-- name: &quot;eval order&quot;, typeName: &quot;&quot;, id: 19, branchId: 0, recurseId: &#45;1, attributes: 0, notes: &quot;&quot; -->
<g id="node20" class="node">
<title>19</title>
<ellipse fill="none" stroke="black" cx="326.71" cy="-342" rx="48.28" ry="18"/>
<text xml:space="preserve" text-anchor="middle" x="326.71" y="-336.95" font-family="Times New Roman,serif" font-size="14.00">eval order</text>
</g>
<!-- 0&#45;&gt;19 -->
<g id="edge19" class="edge">
<title>0&#45;&gt;19</title>
<path fill="none" stroke="black" d="M122.18,-221.97C147.23,-245.91 194.7,-288.24 242.09,-314 252.48,-319.65 264.23,-324.44 275.55,-328.38"/>
<polygon fill="black" stroke="black" points="274.2,-331.62 284.79,-331.42 276.38,-324.97 274.2,-331.62"/>
</g>
<!-- 21 -->
<!-- name: &quot;chance percent type&quot;, typeName: &quot;&quot;, id: 21, branchId: 0, recurseId: &#45;1, attributes: 0, notes: &quot;&quot; -->
<g id="node22" class="node">
<title>21</title>
<ellipse fill="none" stroke="black" cx="326.71" cy="-287" rx="84.62" ry="18"/>
<text xml:space="preserve" text-anchor="middle" x="326.71" y="-281.95" font-family="Times New Roman,serif" font-size="14.00">chance percent type</text>
</g>
<!-- 0&#45;&gt;21 -->
<g id="edge21" class="edge">
<title>0&#45;&gt;21</title>
<path fill="none" stroke="black" d="M147.85,-220.57C174.98,-230.81 210.54,-244.21 242.09,-256 251.89,-259.66 262.34,-263.55 272.41,-267.29"/>
<polygon fill="black" stroke="black" points="271.14,-270.55 281.73,-270.75 273.57,-263.99 271.14,-270.55"/>
</g>
<!-- 23 -->
<!-- name: &quot;chance percent&quot;, typeName: &quot;&quot;, id: 23, branchId: 0, recurseId: &#45;1, attributes: 0, notes: &quot;&quot; -->
<g id="node24" class="node">
<title>23</title>
<ellipse fill="none" stroke="black" cx="326.71" cy="-229" rx="66.19" ry="18"/>
<text xml:space="preserve" text-anchor="middle" x="326.71" y="-223.95" font-family="Times New Roman,serif" font-size="14.00">chance percent</text>
</g>
<!-- 0&#45;&gt;23 -->
<g id="edge23" class="edge">
<title>0&#45;&gt;23</title>
<path fill="none" stroke="black" d="M190.7,-213.77C211.5,-216.12 233.5,-218.6 253.56,-220.86"/>
<polygon fill="black" stroke="black" points="252.98,-224.32 263.31,-221.96 253.76,-217.36 252.98,-224.32"/>
</g>
<!-- 25 -->
<!-- name: &quot;chance numerator&quot;, typeName: &quot;&quot;, id: 25, branchId: 0, recurseId: &#45;1, attributes: 0, notes: &quot;&quot; -->
<g id="node26" class="node">
<title>25</title>
<ellipse fill="none" stroke="black" cx="533.48" cy="-180" rx="77.45" ry="18"/>
<text xml:space="preserve" text-anchor="middle" x="533.48" y="-174.95" font-family="Times New Roman,serif" font-size="14.00">chance numerator</text>
</g>
<!-- 0&#45;&gt;25 -->
<g id="edge25" class="edge">
<title>0&#45;&gt;25</title>
<path fill="none" stroke="black" d="M201.8,-198.52C275.64,-194.39 376.02,-188.76 446.75,-184.8"/>
<polygon fill="black" stroke="black" points="446.54,-188.32 456.33,-184.27 446.15,-181.33 446.54,-188.32"/>
</g>
<!-- 27 -->
<!-- name: &quot;chance denominator&quot;, typeName: &quot;&quot;, id: 27, branchId: 0, recurseId: &#45;1, attributes: 0, notes: &quot;&quot; -->
<g id="node28" class="node">
<title>27</title>
<ellipse fill="none" stroke="black" cx="533.48" cy="-126" rx="86.15" ry="18"/>
<text xml:space="preserve" text-anchor="middle" x="533.48" y="-120.95" font-family="Times New Roman,serif" font-size="14.00">chance denominator</text>
</g>
<!-- 0&#45;&gt;27 -->
<g id="edge27" class="edge">
<title>0&#45;&gt;27</title>
<path fill="none" stroke="black" d="M175.75,-190.94C253.45,-176.8 376.92,-154.32 456.31,-139.87"/>
<polygon fill="black" stroke="black" points="456.51,-143.39 465.73,-138.15 455.26,-136.5 456.51,-143.39"/>
</g>
<!-- 29 -->
<!-- name: &quot;iterations type&quot;, typeName: &quot;&quot;, id: 29, branchId: 0, recurseId: &#45;1, attributes: 0, notes: &quot;&quot; -->
<g id="node30" class="node">
<title>29</title>
<ellipse fill="none" stroke="black" cx="533.48" cy="-72" rx="63.63" ry="18"/>
<text xml:space="preserve" text-anchor="middle" x="533.48" y="-66.95" font-family="Times New Roman,serif" font-size="14.00">iterations type</text>
</g>
<!-- 0&#45;&gt;29 -->
<g id="edge29" class="edge">
<title>0&#45;&gt;29</title>
<path fill="none" stroke="black" d="M140.06,-186.75C167.56,-174.04 206.65,-156.95 242.09,-145 319.03,-119.07 410.17,-97.61 469.55,-84.81"/>
<polygon fill="black" stroke="black" points="470.1,-88.28 479.15,-82.76 468.64,-81.43 470.1,-88.28"/>
</g>
<!-- 31 -->
<!-- name: &quot;iterations&quot;, typeName: &quot;&quot;, id: 31, branchId: 0, recurseId: &#45;1, attributes: 0, notes: &quot;&quot; -->
<g id="node32" class="node">
<title>31</title>
<ellipse fill="none" stroke="black" cx="326.71" cy="-30" rx="45.21" ry="18"/>
<text xml:space="preserve" text-anchor="middle" x="326.71" y="-24.95" font-family="Times New Roman,serif" font-size="14.00">iterations</text>
</g>
<!-- 0&#45;&gt;31 -->
<g id="edge31" class="edge">
<title>0&#45;&gt;31</title>
<path fill="none" stroke="black" d="M118.04,-186.16C141.22,-157.59 190.2,-101.19 242.09,-66 253.84,-58.03 267.64,-51.22 280.61,-45.74"/>
<polygon fill="black" stroke="black" points="281.87,-49 289.84,-42.02 279.25,-42.51 281.87,-49"/>
</g>
<!-- 2 -->
<!-- name: &quot;List Size&quot;, typeName: &quot;&quot;, id: 2, branchId: 0, recurseId: &#45;1, attributes: 0, notes: &quot;&quot; -->
<g id="node3" class="node">
<title>2</title>
<ellipse fill="none" stroke="black" cx="533.48" cy="-693" rx="43.67" ry="18"/>
<text xml:space="preserve" text-anchor="middle" x="533.48" y="-687.95" font-family="Times New Roman,serif" font-size="14.00">List Size</text>
</g>
<!-- 1&#45;&gt;2 -->
<g id="edge2" class="edge">
<title>1&#45;&gt;2</title>
<path fill="none" stroke="black" d="M352,-574.02C388.7,-598.21 458.37,-644.14 499.58,-671.31"/>
<polygon fill="black" stroke="black" points="497.62,-674.21 507.9,-676.79 501.48,-668.37 497.62,-674.21"/>
</g>
<!-- 4 -->
<!-- name: &quot;example element&quot;, typeName: &quot;&quot;, id: 4, branchId: 0, recurseId: &#45;1, attributes: 16, notes: &quot;&quot; -->
<g id="node5" class="node">
<title>4</title>
<ellipse fill="none" stroke="black" stroke-dasharray="1,5" cx="533.48" cy="-558" rx="74.89" ry="18"/>
<text xml:space="preserve" text-anchor="middle" x="533.48" y="-552.95" font-family="Times New Roman,serif" font-size="14.00">example element</text>
</g>
<!-- 1&#45;&gt;4 -->
<g id="edge4" class="edge">
<title>1&#45;&gt;4</title>
<path fill="none" stroke="black" d="M380.44,-558C400.72,-558 424.42,-558 446.99,-558"/>
<polygon fill="black" stroke="black" points="446.8,-561.5 456.8,-558 446.8,-554.5 446.8,-561.5"/>
</g>
<!-- 3 -->
<!-- name: &quot;unsigned varint&quot;, typeName: &quot;&quot;, id: 3, branchId: 0, recurseId: &#45;1, attributes: 0, notes: &quot;&quot; -->
<g id="node4" class="node">
<title>3</title>
<ellipse fill="none" stroke="black" cx="723.88" cy="-774" rx="68.24" ry="18"/>
<text xml:space="preserve" text-anchor="middle" x="723.88" y="-768.95" font-family="Times New Roman,serif" font-size="14.00">unsigned varint</text>
</g>
<!-- 2&#45;&gt;3 -->
<g id="edge3" class="edge">
<title>2&#45;&gt;3</title>
<path fill="none" stroke="black" d="M563.72,-706.4C588.18,-717.52 624.04,-733.62 655.63,-747 661.65,-749.55 667.98,-752.17 674.27,-754.73"/>
<polygon fill="black" stroke="black" points="672.74,-757.89 683.32,-758.4 675.37,-751.4 672.74,-757.89"/>
</g>
<!-- 5 -->
<!-- name: &quot;min value type&quot;, typeName: &quot;&quot;, id: 5, branchId: 0, recurseId: &#45;1, attributes: 0, notes: &quot;&quot; -->
<g id="node6" class="node">
<title>5</title>
<ellipse fill="none" stroke="black" cx="723.88" cy="-720" rx="66.71" ry="18"/>
<text xml:space="preserve" text-anchor="middle" x="723.88" y="-714.95" font-family="Times New Roman,serif" font-size="14.00">min value type</text>
</g>
<!-- 4&#45;&gt;5 -->
<g id="edge5" class="edge">
<title>4&#45;&gt;5</title>
<path fill="none" stroke="black" d="M546.57,-576.15C566.34,-604.57 608.16,-659.78 655.63,-693 659.98,-696.04 664.72,-698.81 669.6,-701.32"/>
<polygon fill="black" stroke="black" points="667.84,-704.36 678.38,-705.46 670.82,-698.03 667.84,-704.36"/>
</g>
<!-- 7 -->
<!-- name: &quot;min value&quot;, typeName: &quot;&quot;, id: 7, branchId: 0, recurseId: &#45;1, attributes: 0, notes: &quot;&quot; -->
<g id="node8" class="node">
<title>7</title>
<ellipse fill="none" stroke="black" cx="723.88" cy="-666" rx="48.28" ry="18"/>
<text xml:space="preserve" text-anchor="middle" x="723.88" y="-660.95" font-family="Times New Roman,serif" font-size="14.00">min value</text>
</g>
<!-- 4&#45;&gt;7 -->
<g id="edge7" class="edge">
<title>4&#45;&gt;7</title>
<path fill="none" stroke="black" d="M557.27,-575.33C580.98,-592.85 619.61,-619.99 655.63,-639 662.59,-642.67 670.16,-646.16 677.63,-649.34"/>
<polygon fill="black" stroke="black" points="676.07,-652.48 686.65,-653.03 678.72,-646 676.07,-652.48"/>
</g>
<!-- 9 -->
<!-- name: &quot;max value type&quot;, typeName: &quot;&quot;, id: 9, branchId: 0, recurseId: &#45;1, attributes: 0, notes: &quot;&quot; -->
<g id="node10" class="node">
<title>9</title>
<ellipse fill="none" stroke="black" cx="723.88" cy="-612" rx="68.24" ry="18"/>
<text xml:space="preserve" text-anchor="middle" x="723.88" y="-606.95" font-family="Times New Roman,serif" font-size="14.00">max value type</text>
</g>
<!-- 4&#45;&gt;9 -->
<g id="edge9" class="edge">
<title>4&#45;&gt;9</title>
<path fill="none" stroke="black" d="M583,-571.91C608.18,-579.13 639.11,-587.99 665.48,-595.55"/>
<polygon fill="black" stroke="black" points="664.44,-598.89 675.02,-598.28 666.37,-592.16 664.44,-598.89"/>
</g>
<!-- 11 -->
<!-- name: &quot;max value&quot;, typeName: &quot;&quot;, id: 11, branchId: 0, recurseId: &#45;1, attributes: 0, notes: &quot;&quot; -->
<g id="node12" class="node">
<title>11</title>
<ellipse fill="none" stroke="black" cx="723.88" cy="-558" rx="49.82" ry="18"/>
<text xml:space="preserve" text-anchor="middle" x="723.88" y="-552.95" font-family="Times New Roman,serif" font-size="14.00">max value</text>
</g>
<!-- 4&#45;&gt;11 -->
<g id="edge11" class="edge">
<title>4&#45;&gt;11</title>
<path fill="none" stroke="black" d="M608.67,-558C626.41,-558 645.13,-558 662.18,-558"/>
<polygon fill="black" stroke="black" points="662.17,-561.5 672.17,-558 662.17,-554.5 662.17,-561.5"/>
</g>
<!-- 13 -->
<!-- name: &quot;grid offset&quot;, typeName: &quot;&quot;, id: 13, branchId: 0, recurseId: &#45;1, attributes: 0, notes: &quot;&quot; -->
<g id="node14" class="node">
<title>13</title>
<ellipse fill="none" stroke="black" cx="723.88" cy="-504" rx="49.3" ry="18"/>
<text xml:space="preserve" text-anchor="middle" x="723.88" y="-498.95" font-family="Times New Roman,serif" font-size="14.00">grid offset</text>
</g>
<!-- 4&#45;&gt;13 -->
<g id="edge13" class="edge">
<title>4&#45;&gt;13</title>
<path fill="none" stroke="black" d="M583,-544.09C610.81,-536.12 645.64,-526.14 673.58,-518.13"/>
<polygon fill="black" stroke="black" points="674.21,-521.59 682.86,-515.47 672.28,-514.86 674.21,-521.59"/>
</g>
<!-- 15 -->
<!-- name: &quot;grid step size&quot;, typeName: &quot;&quot;, id: 15, branchId: 0, recurseId: &#45;1, attributes: 0, notes: &quot;&quot; -->
<g id="node16" class="node">
<title>15</title>
<ellipse fill="none" stroke="black" cx="723.88" cy="-450" rx="60.05" ry="18"/>
<text xml:space="preserve" text-anchor="middle" x="723.88" y="-444.95" font-family="Times New Roman,serif" font-size="14.00">grid step size</text>
</g>
<!-- 4&#45;&gt;15 -->
<g id="edge15" class="edge">
<title>4&#45;&gt;15</title>
<path fill="none" stroke="black" d="M557.27,-540.67C580.98,-523.15 619.61,-496.01 655.63,-477 661.41,-473.95 667.6,-471.03 673.81,-468.31"/>
<polygon fill="black" stroke="black" points="674.95,-471.63 682.81,-464.52 672.23,-465.18 674.95,-471.63"/>
</g>
<!-- 17 -->
<!-- name: &quot;distribution&quot;, typeName: &quot;&quot;, id: 17, branchId: 0, recurseId: &#45;1, attributes: 0, notes: &quot;&quot; -->
<g id="node18" class="node">
<title>17</title>
<ellipse fill="none" stroke="black" cx="723.88" cy="-396" rx="53.4" ry="18"/>
<text xml:space="preserve" text-anchor="middle" x="723.88" y="-390.95" font-family="Times New Roman,serif" font-size="14.00">distribution</text>
</g>
<!-- 4&#45;&gt;17 -->
<g id="edge17" class="edge">
<title>4&#45;&gt;17</title>
<path fill="none" stroke="black" d="M546.57,-539.85C566.34,-511.43 608.16,-456.22 655.63,-423 661.05,-419.21 667.07,-415.84 673.23,-412.88"/>
<polygon fill="black" stroke="black" points="674.52,-416.13 682.24,-408.88 671.68,-409.73 674.52,-416.13"/>
</g>
<!-- 6 -->
<!-- name: &quot;varint&quot;, typeName: &quot;&quot;, id: 6, branchId: 0, recurseId: &#45;1, attributes: 512, notes: &quot;&quot; -->
<g id="node7" class="node">
<title>6</title>
<ellipse fill="none" stroke="black" cx="964.94" cy="-720" rx="32.41" ry="18"/>
<text xml:space="preserve" text-anchor="middle" x="964.94" y="-714.95" font-family="Times New Roman,serif" font-size="14.00">varint</text>
</g>
<!-- 5&#45;&gt;6 -->
<g id="edge6" class="edge">
<title>5&#45;&gt;6</title>
<path fill="none" stroke="black" d="M790.83,-720C832.36,-720 884.77,-720 920.98,-720"/>
<polygon fill="black" stroke="black" points="920.62,-723.5 930.62,-720 920.62,-716.5 920.62,-723.5"/>
</g>
<!-- 8 -->
<!-- name: &quot;unsigned short&quot;, typeName: &quot;&quot;, id: 8, branchId: 0, recurseId: &#45;1, attributes: 512, notes: &quot;&quot; -->
<g id="node9" class="node">
<title>8</title>
<ellipse fill="none" stroke="black" cx="964.94" cy="-666" rx="65.17" ry="18"/>
<text xml:space="preserve" text-anchor="middle" x="964.94" y="-660.95" font-family="Times New Roman,serif" font-size="14.00">unsigned short</text>
</g>
<!-- 7&#45;&gt;8 -->
<g id="edge8" class="edge">
<title>7&#45;&gt;8</title>
<path fill="none" stroke="black" d="M772.39,-666C805.48,-666 850.31,-666 888.28,-666"/>
<polygon fill="black" stroke="black" points="887.8,-669.5 897.8,-666 887.8,-662.5 887.8,-669.5"/>
</g>
<!-- 10 -->
<!-- name: &quot;varint&quot;, typeName: &quot;&quot;, id: 10, branchId: 0, recurseId: &#45;1, attributes: 512, notes: &quot;&quot; -->
<g id="node11" class="node">
<title>10</title>
<ellipse fill="none" stroke="black" cx="964.94" cy="-612" rx="32.41" ry="18"/>
<text xml:space="preserve" text-anchor="middle" x="964.94" y="-606.95" font-family="Times New Roman,serif" font-size="14.00">varint</text>
</g>
<!-- 9&#45;&gt;10 -->
<g id="edge10" class="edge">
<title>9&#45;&gt;10</title>
<path fill="none" stroke="black" d="M792.42,-612C833.61,-612 885.02,-612 920.76,-612"/>
<polygon fill="black" stroke="black" points="920.73,-615.5 930.73,-612 920.73,-608.5 920.73,-615.5"/>
</g>
<!-- 12 -->
<!-- name: &quot;unsigned short&quot;, typeName: &quot;&quot;, id: 12, branchId: 0, recurseId: &#45;1, attributes: 512, notes: &quot;&quot; -->
<g id="node13" class="node">
<title>12</title>
<ellipse fill="none" stroke="black" cx="964.94" cy="-558" rx="65.17" ry="18"/>
<text xml:space="preserve" text-anchor="middle" x="964.94" y="-552.95" font-family="Times New Roman,serif" font-size="14.00">unsigned short</text>
</g>
<!-- 11&#45;&gt;12 -->
<g id="edge12" class="edge">
<title>11&#45;&gt;12</title>
<path fill="none" stroke="black" d="M774.12,-558C806.95,-558 850.74,-558 887.99,-558"/>
<polygon fill="black" stroke="black" points="887.81,-561.5 897.81,-558 887.81,-554.5 887.81,-561.5"/>
</g>
<!-- 14 -->
<!-- name: &quot;unsigned int&quot;, typeName: &quot;&quot;, id: 14, branchId: 0, recurseId: &#45;1, attributes: 512, notes: &quot;&quot; -->
<g id="node15" class="node">
<title>14</title>
<ellipse fill="none" stroke="black" cx="964.94" cy="-504" rx="56.47" ry="18"/>
<text xml:space="preserve" text-anchor="middle" x="964.94" y="-498.95" font-family="Times New Roman,serif" font-size="14.00">unsigned int</text>
</g>
<!-- 13&#45;&gt;14 -->
<g id="edge14" class="edge">
<title>13&#45;&gt;14</title>
<path fill="none" stroke="black" d="M773.54,-504C809.08,-504 857.7,-504 896.91,-504"/>
<polygon fill="black" stroke="black" points="896.71,-507.5 906.71,-504 896.71,-500.5 896.71,-507.5"/>
</g>
<!-- 16 -->
<!-- name: &quot;unsigned int&quot;, typeName: &quot;&quot;, id: 16, branchId: 0, recurseId: &#45;1, attributes: 512, notes: &quot;&quot; -->
<g id="node17" class="node">
<title>16</title>
<ellipse fill="none" stroke="black" cx="964.94" cy="-450" rx="56.47" ry="18"/>
<text xml:space="preserve" text-anchor="middle" x="964.94" y="-444.95" font-family="Times New Roman,serif" font-size="14.00">unsigned int</text>
</g>
<!-- 15&#45;&gt;16 -->
<g id="edge16" class="edge">
<title>15&#45;&gt;16</title>
<path fill="none" stroke="black" d="M784.28,-450C818.47,-450 861.53,-450 896.93,-450"/>
<polygon fill="black" stroke="black" points="896.62,-453.5 906.62,-450 896.62,-446.5 896.62,-453.5"/>
</g>
<!-- 18 -->
<!-- name: &quot;enum RandomDistributionType&quot;, typeName: &quot;&quot;, id: 18, branchId: 0, recurseId: &#45;1, attributes: 512, notes: &quot;&quot; -->
<g id="node19" class="node">
<title>18</title>
<ellipse fill="none" stroke="black" cx="964.94" cy="-396" rx="129.15" ry="18"/>
<text xml:space="preserve" text-anchor="middle" x="964.94" y="-390.95" font-family="Times New Roman,serif" font-size="14.00">enum RandomDistributionType</text>
</g>
<!-- 17&#45;&gt;18 -->
<g id="edge18" class="edge">
<title>17&#45;&gt;18</title>
<path fill="none" stroke="black" d="M777.64,-396C791.71,-396 807.61,-396 824.03,-396"/>
<polygon fill="black" stroke="black" points="823.96,-399.5 833.96,-396 823.96,-392.5 823.96,-399.5"/>
</g>
<!-- 20 -->
<!-- name: &quot;enum CoordinateEvaluationOrder&quot;, typeName: &quot;&quot;, id: 20, branchId: 0, recurseId: &#45;1, attributes: 512, notes: &quot;&quot; -->
<g id="node21" class="node">
<title>20</title>
<ellipse fill="none" stroke="black" cx="964.94" cy="-342" rx="136.82" ry="18"/>
<text xml:space="preserve" text-anchor="middle" x="964.94" y="-336.95" font-family="Times New Roman,serif" font-size="14.00">enum CoordinateEvaluationOrder</text>
</g>
<!-- 19&#45;&gt;20 -->
<g id="edge20" class="edge">
<title>19&#45;&gt;20</title>
<path fill="none" stroke="black" d="M375.27,-342C467.54,-342 674.25,-342 816.41,-342"/>
<polygon fill="black" stroke="black" points="816.3,-345.5 826.3,-342 816.3,-338.5 816.3,-345.5"/>
</g>
<!-- 22 -->
<!-- name: &quot;varint&quot;, typeName: &quot;&quot;, id: 22, branchId: 0, recurseId: &#45;1, attributes: 512, notes: &quot;&quot; -->
<g id="node23" class="node">
<title>22</title>
<ellipse fill="none" stroke="black" cx="964.94" cy="-288" rx="32.41" ry="18"/>
<text xml:space="preserve" text-anchor="middle" x="964.94" y="-282.95" font-family="Times New Roman,serif" font-size="14.00">varint</text>
</g>
<!-- 21&#45;&gt;22 -->
<g id="edge22" class="edge">
<title>21&#45;&gt;22</title>
<path fill="none" stroke="black" d="M411.54,-287.13C548.81,-287.35 816.69,-287.77 920.96,-287.93"/>
<polygon fill="black" stroke="black" points="920.75,-291.43 930.76,-287.95 920.76,-284.43 920.75,-291.43"/>
</g>
<!-- 24 -->
<!-- name: &quot;unsigned short&quot;, typeName: &quot;&quot;, id: 24, branchId: 0, recurseId: &#45;1, attributes: 512, notes: &quot;&quot; -->
<g id="node25" class="node">
<title>24</title>
<ellipse fill="none" stroke="black" cx="964.94" cy="-234" rx="65.17" ry="18"/>
<text xml:space="preserve" text-anchor="middle" x="964.94" y="-228.95" font-family="Times New Roman,serif" font-size="14.00">unsigned short</text>
</g>
<!-- 23&#45;&gt;24 -->
<g id="edge24" class="edge">
<title>23&#45;&gt;24</title>
<path fill="none" stroke="black" d="M393.1,-229.51C511.8,-230.45 762.04,-232.41 888.05,-233.4"/>
<polygon fill="black" stroke="black" points="887.94,-236.9 897.97,-233.48 888,-229.9 887.94,-236.9"/>
</g>
<!-- 26 -->
<!-- name: &quot;int&quot;, typeName: &quot;&quot;, id: 26, branchId: 0, recurseId: &#45;1, attributes: 512, notes: &quot;&quot; -->
<g id="node27" class="node">
<title>26</title>
<ellipse fill="none" stroke="black" cx="964.94" cy="-180" rx="27" ry="18"/>
<text xml:space="preserve" text-anchor="middle" x="964.94" y="-174.95" font-family="Times New Roman,serif" font-size="14.00">int</text>
</g>
<!-- 25&#45;&gt;26 -->
<g id="edge26" class="edge">
<title>25&#45;&gt;26</title>
<path fill="none" stroke="black" d="M611.26,-180C703.86,-180 855.8,-180 926.09,-180"/>
<polygon fill="black" stroke="black" points="925.93,-183.5 935.93,-180 925.93,-176.5 925.93,-183.5"/>
</g>
<!-- 28 -->
<!-- name: &quot;int&quot;, typeName: &quot;&quot;, id: 28, branchId: 0, recurseId: &#45;1, attributes: 512, notes: &quot;&quot; -->
<g id="node29" class="node">
<title>28</title>
<ellipse fill="none" stroke="black" cx="964.94" cy="-126" rx="27" ry="18"/>
<text xml:space="preserve" text-anchor="middle" x="964.94" y="-120.95" font-family="Times New Roman,serif" font-size="14.00">int</text>
</g>
<!-- 27&#45;&gt;28 -->
<g id="edge28" class="edge">
<title>27&#45;&gt;28</title>
<path fill="none" stroke="black" d="M620.1,-126C713.36,-126 858.3,-126 926.3,-126"/>
<polygon fill="black" stroke="black" points="926.18,-129.5 936.18,-126 926.18,-122.5 926.18,-129.5"/>
</g>
<!-- 30 -->
<!-- name: &quot;varint&quot;, typeName: &quot;&quot;, id: 30, branchId: 0, recurseId: &#45;1, attributes: 512, notes: &quot;&quot; -->
<g id="node31" class="node">
<title>30</title>
<ellipse fill="none" stroke="black" cx="964.94" cy="-72" rx="32.41" ry="18"/>
<text xml:space="preserve" text-anchor="middle" x="964.94" y="-66.95" font-family="Times New Roman,serif" font-size="14.00">varint</text>
</g>
<!-- 29&#45;&gt;30 -->
<g id="edge30" class="edge">
<title>29&#45;&gt;30</title>
<path fill="none" stroke="black" d="M597.39,-72C685.92,-72 844.94,-72 921.06,-72"/>
<polygon fill="black" stroke="black" points="920.59,-75.5 930.59,-72 920.59,-68.5 920.59,-75.5"/>
</g>
<!-- 32 -->
<!-- name: &quot;unsigned short&quot;, typeName: &quot;&quot;, id: 32, branchId: 0, recurseId: &#45;1, attributes: 512, notes: &quot;&quot; -->
<g id="node33" class="node">
<title>32</title>
<ellipse fill="none" stroke="black" cx="964.94" cy="-18" rx="65.17" ry="18"/>
<text xml:space="preserve" text-anchor="middle" x="964.94" y="-12.95" font-family="Times New Roman,serif" font-size="14.00">unsigned short</text>
</g>
<!-- 31&#45;&gt;32 -->
<g id="edge32" class="edge">
<title>31&#45;&gt;32</title>
<path fill="none" stroke="black" d="M372.19,-29.16C479.73,-27.13 754.77,-21.95 888.57,-19.42"/>
<polygon fill="black" stroke="black" points="888.45,-22.92 898.39,-19.24 888.32,-15.93 888.45,-22.92"/>
</g>
</g>
</svg>
