<?xml version="1.0" encoding="UTF-8" standalone="no"?>
<!DOCTYPE svg PUBLIC "-//W3C//DTD SVG 1.1//EN"
 "http://www.w3.org/Graphics/SVG/1.1/DTD/svg11.dtd">
<!-- Generated by graphviz version 14.1.1 (20251213.1925)
 -->
<!-- Title: BiomeCoordinateData Pages: 1 -->
<svg width="518pt" height="368pt"
 viewBox="0.00 0.00 518.00 368.00" xmlns="http://www.w3.org/2000/svg" xmlns:xlink="http://www.w3.org/1999/xlink">
<g id="graph0" class="graph" transform="scale(1 1) rotate(0) translate(4 364)">
<title>BiomeCoordinateData</title>
<polygon fill="white" stroke="none" points="-4,4 -4,-364 514.11,-364 514.11,4 -4,4"/>
<!-- 86 -->
<!-- name: &quot;BiomeCoordinateData&quot;, typeName: &quot;&quot;, id: 86, branchId: 0, recurseId: &#45;1, attributes: 0, notes: &quot;&quot; -->
<g id="node1" class="node">
<title>86</title>
<ellipse fill="none" stroke="black" cx="94.34" cy="-180" rx="94.34" ry="18"/>
<text xml:space="preserve" text-anchor="middle" x="94.34" y="-174.95" font-family="Times New Roman,serif" font-size="14.00">BiomeCoordinateData</text>
</g>
<!-- 87 -->
<!-- name: &quot;min value type&quot;, typeName: &quot;&quot;, id: 87, branchId: 0, recurseId: &#45;1, attributes: 0, notes: &quot;&quot; -->
<g id="node2" class="node">
<title>87</title>
<ellipse fill="none" stroke="black" cx="292.93" cy="-342" rx="66.71" ry="18"/>
<text xml:space="preserve" text-anchor="middle" x="292.93" y="-336.95" font-family="Times New Roman,serif" font-size="14.00">min value type</text>
</g>
<!-- 86&#45;&gt;87 -->
<g id="edge1" class="edge">
<title>86&#45;&gt;87</title>
<path fill="none" stroke="black" d="M108.54,-198.09C130.03,-226.45 175.2,-281.56 224.69,-315 229.14,-318.01 233.99,-320.77 238.96,-323.28"/>
<polygon fill="black" stroke="black" points="237.36,-326.39 247.91,-327.43 240.31,-320.04 237.36,-326.39"/>
</g>
<!-- 89 -->
<!-- name: &quot;min value&quot;, typeName: &quot;short&quot;, id: 89, branchId: 0, recurseId: &#45;1, attributes: 256, notes: &quot;&quot; -->
<g id="node4" class="node">
<title>89</title>
<ellipse fill="none" stroke="black" cx="292.93" cy="-288" rx="48.28" ry="18"/>
<text xml:space="preserve" text-anchor="middle" x="292.93" y="-282.95" font-family="Times New Roman,serif" font-size="14.00">min value</text>
</g>
<!-- 86&#45;&gt;89 -->
<g id="edge3" class="edge">
<title>86&#45;&gt;89</title>
<path fill="none" stroke="black" d="M120.33,-197.52C145.82,-214.94 186.9,-241.78 224.69,-261 231.7,-264.57 239.3,-268 246.78,-271.16"/>
<polygon fill="black" stroke="black" points="245.22,-274.3 255.8,-274.84 247.86,-267.82 245.22,-274.3"/>
</g>
<!-- 91 -->
<!-- name: &quot;max value type&quot;, typeName: &quot;&quot;, id: 91, branchId: 0, recurseId: &#45;1, attributes: 0, notes: &quot;&quot; -->
<g id="node6" class="node">
<title>91</title>
<ellipse fill="none" stroke="black" cx="292.93" cy="-234" rx="68.24" ry="18"/>
<text xml:space="preserve" text-anchor="middle" x="292.93" y="-228.95" font-family="Times New Roman,serif" font-size="14.00">max value type</text>
</g>
<!-- 86&#45;&gt;91 -->
<g id="edge5" class="edge">
<title>86&#45;&gt;91</title>
<path fill="none" stroke="black" d="M149.84,-194.97C175.79,-202.1 206.86,-210.63 233.32,-217.9"/>
<polygon fill="black" stroke="black" points="232.32,-221.26 242.89,-220.53 234.17,-214.51 232.32,-221.26"/>
</g>
<!-- 93 -->
<!-- name: &quot;max value&quot;, typeName: &quot;short&quot;, id: 93, branchId: 0, recurseId: &#45;1, attributes: 256, notes: &quot;&quot; -->
<g id="node8" class="node">
<title>93</title>
<ellipse fill="none" stroke="black" cx="292.93" cy="-180" rx="49.82" ry="18"/>
<text xml:space="preserve" text-anchor="middle" x="292.93" y="-174.95" font-family="Times New Roman,serif" font-size="14.00">max value</text>
</g>
<!-- 86&#45;&gt;93 -->
<g id="edge7" class="edge">
<title>86&#45;&gt;93</title>
<path fill="none" stroke="black" d="M189.03,-180C203.41,-180 217.92,-180 231.33,-180"/>
<polygon fill="black" stroke="black" points="231.28,-183.5 241.28,-180 231.28,-176.5 231.28,-183.5"/>
</g>
<!-- 95 -->
<!-- name: &quot;grid offset&quot;, typeName: &quot;&quot;, id: 95, branchId: 0, recurseId: &#45;1, attributes: 0, notes: &quot;&quot; -->
<g id="node10" class="node">
<title>95</title>
<ellipse fill="none" stroke="black" cx="292.93" cy="-126" rx="49.3" ry="18"/>
<text xml:space="preserve" text-anchor="middle" x="292.93" y="-120.95" font-family="Times New Roman,serif" font-size="14.00">grid offset</text>
</g>
<!-- 86&#45;&gt;95 -->
<g id="edge9" class="edge">
<title>86&#45;&gt;95</title>
<path fill="none" stroke="black" d="M149.84,-165.03C178.63,-157.12 213.72,-147.48 241.83,-139.76"/>
<polygon fill="black" stroke="black" points="242.44,-143.22 251.16,-137.2 240.59,-136.47 242.44,-143.22"/>
</g>
<!-- 97 -->
<!-- name: &quot;grid step size&quot;, typeName: &quot;&quot;, id: 97, branchId: 0, recurseId: &#45;1, attributes: 0, notes: &quot;&quot; -->
<g id="node12" class="node">
<title>97</title>
<ellipse fill="none" stroke="black" cx="292.93" cy="-72" rx="60.05" ry="18"/>
<text xml:space="preserve" text-anchor="middle" x="292.93" y="-66.95" font-family="Times New Roman,serif" font-size="14.00">grid step size</text>
</g>
<!-- 86&#45;&gt;97 -->
<g id="edge11" class="edge">
<title>86&#45;&gt;97</title>
<path fill="none" stroke="black" d="M120.33,-162.48C145.82,-145.06 186.9,-118.22 224.69,-99 230.58,-96 236.88,-93.1 243.18,-90.38"/>
<polygon fill="black" stroke="black" points="244.43,-93.65 252.31,-86.56 241.73,-87.19 244.43,-93.65"/>
</g>
<!-- 99 -->
<!-- name: &quot;distribution&quot;, typeName: &quot;&quot;, id: 99, branchId: 0, recurseId: &#45;1, attributes: 0, notes: &quot;&quot; -->
<g id="node14" class="node">
<title>99</title>
<ellipse fill="none" stroke="black" cx="292.93" cy="-18" rx="53.4" ry="18"/>
<text xml:space="preserve" text-anchor="middle" x="292.93" y="-12.95" font-family="Times New Roman,serif" font-size="14.00">distribution</text>
</g>
<!-- 86&#45;&gt;99 -->
<g id="edge13" class="edge">
<title>86&#45;&gt;99</title>
<path fill="none" stroke="black" d="M108.54,-161.91C130.03,-133.55 175.2,-78.44 224.69,-45 230.23,-41.25 236.37,-37.9 242.62,-34.94"/>
<polygon fill="black" stroke="black" points="244.02,-38.14 251.77,-30.92 241.21,-31.73 244.02,-38.14"/>
</g>
<!-- 88 -->
<!-- name: &quot;varint&quot;, typeName: &quot;&quot;, id: 88, branchId: 0, recurseId: &#45;1, attributes: 512, notes: &quot;&quot; -->
<g id="node3" class="node">
<title>88</title>
<ellipse fill="none" stroke="black" cx="453.64" cy="-342" rx="32.41" ry="18"/>
<text xml:space="preserve" text-anchor="middle" x="453.64" y="-336.95" font-family="Times New Roman,serif" font-size="14.00">varint</text>
</g>
<!-- 87&#45;&gt;88 -->
<g id="edge2" class="edge">
<title>87&#45;&gt;88</title>
<path fill="none" stroke="black" d="M359.86,-342C376.69,-342 394.35,-342 409.69,-342"/>
<polygon fill="black" stroke="black" points="409.41,-345.5 419.41,-342 409.41,-338.5 409.41,-345.5"/>
</g>
<!-- 90 -->
<!-- name: &quot;short&quot;, typeName: &quot;&quot;, id: 90, branchId: 0, recurseId: &#45;1, attributes: 512, notes: &quot;&quot; -->
<g id="node5" class="node">
<title>90</title>
<ellipse fill="none" stroke="black" cx="453.64" cy="-288" rx="29.34" ry="18"/>
<text xml:space="preserve" text-anchor="middle" x="453.64" y="-282.95" font-family="Times New Roman,serif" font-size="14.00">short</text>
</g>
<!-- 89&#45;&gt;90 -->
<g id="edge4" class="edge">
<title>89&#45;&gt;90</title>
<path fill="none" stroke="black" d="M341.55,-288C364.2,-288 390.98,-288 412.57,-288"/>
<polygon fill="black" stroke="black" points="412.46,-291.5 422.46,-288 412.46,-284.5 412.46,-291.5"/>
</g>
<!-- 92 -->
<!-- name: &quot;varint&quot;, typeName: &quot;&quot;, id: 92, branchId: 0, recurseId: &#45;1, attributes: 512, notes: &quot;&quot; -->
<g id="node7" class="node">
<title>92</title>
<ellipse fill="none" stroke="black" cx="453.64" cy="-234" rx="32.41" ry="18"/>
<text xml:space="preserve" text-anchor="middle" x="453.64" y="-228.95" font-family="Times New Roman,serif" font-size="14.00">varint</text>
</g>
<!-- 91&#45;&gt;92 -->
<g id="edge6" class="edge">
<title>91&#45;&gt;92</title>
<path fill="none" stroke="black" d="M361.24,-234C377.63,-234 394.74,-234 409.65,-234"/>
<polygon fill="black" stroke="black" points="409.58,-237.5 419.58,-234 409.58,-230.5 409.58,-237.5"/>
</g>
<!-- 94 -->
<!-- name: &quot;short&quot;, typeName: &quot;&quot;, id: 94, branchId: 0, recurseId: &#45;1, attributes: 512, notes: &quot;&quot; -->
<g id="node9" class="node">
<title>94</title>
<ellipse fill="none" stroke="black" cx="453.64" cy="-180" rx="29.34" ry="18"/>
<text xml:space="preserve" text-anchor="middle" x="453.64" y="-174.95" font-family="Times New Roman,serif" font-size="14.00">short</text>
</g>
<!-- 93&#45;&gt;94 -->
<g id="edge8" class="edge">
<title>93&#45;&gt;94</title>
<path fill="none" stroke="black" d="M342.84,-180C365.18,-180 391.31,-180 412.47,-180"/>
<polygon fill="black" stroke="black" points="412.46,-183.5 422.46,-180 412.46,-176.5 412.46,-183.5"/>
</g>
<!-- 96 -->
<!-- name: &quot;unsigned int&quot;, typeName: &quot;&quot;, id: 96, branchId: 0, recurseId: &#45;1, attributes: 512, notes: &quot;&quot; -->
<g id="node11" class="node">
<title>96</title>
<ellipse fill="none" stroke="black" cx="453.64" cy="-126" rx="56.47" ry="18"/>
<text xml:space="preserve" text-anchor="middle" x="453.64" y="-120.95" font-family="Times New Roman,serif" font-size="14.00">unsigned int</text>
</g>
<!-- 95&#45;&gt;96 -->
<g id="edge10" class="edge">
<title>95&#45;&gt;96</title>
<path fill="none" stroke="black" d="M342.41,-126C355.93,-126 370.87,-126 385.27,-126"/>
<polygon fill="black" stroke="black" points="385.16,-129.5 395.16,-126 385.16,-122.5 385.16,-129.5"/>
</g>
<!-- 98 -->
<!-- name: &quot;unsigned int&quot;, typeName: &quot;&quot;, id: 98, branchId: 0, recurseId: &#45;1, attributes: 512, notes: &quot;&quot; -->
<g id="node13" class="node">
<title>98</title>
<ellipse fill="none" stroke="black" cx="453.64" cy="-72" rx="56.47" ry="18"/>
<text xml:space="preserve" text-anchor="middle" x="453.64" y="-66.95" font-family="Times New Roman,serif" font-size="14.00">unsigned int</text>
</g>
<!-- 97&#45;&gt;98 -->
<g id="edge12" class="edge">
<title>97&#45;&gt;98</title>
<path fill="none" stroke="black" d="M353.48,-72C363.88,-72 374.76,-72 385.35,-72"/>
<polygon fill="black" stroke="black" points="385.18,-75.5 395.18,-72 385.18,-68.5 385.18,-75.5"/>
</g>
<!-- 100 -->
<!-- name: &quot;varint&quot;, typeName: &quot;&quot;, id: 100, branchId: 0, recurseId: &#45;1, attributes: 512, notes: &quot;&quot; -->
<g id="node15" class="node">
<title>100</title>
<ellipse fill="none" stroke="black" cx="453.64" cy="-18" rx="32.41" ry="18"/>
<text xml:space="preserve" text-anchor="middle" x="453.64" y="-12.95" font-family="Times New Roman,serif" font-size="14.00">varint</text>
</g>
<!-- 99&#45;&gt;100 -->
<g id="edge14" class="edge">
<title>99&#45;&gt;100</title>
<path fill="none" stroke="black" d="M346.78,-18C367.09,-18 390.02,-18 409.33,-18"/>
<polygon fill="black" stroke="black" points="409.32,-21.5 419.32,-18 409.32,-14.5 409.32,-21.5"/>
</g>
</g>
</svg>
