<?xml version="1.0" encoding="UTF-8" standalone="no"?>
<!DOCTYPE svg PUBLIC "-//W3C//DTD SVG 1.1//EN"
 "http://www.w3.org/Graphics/SVG/1.1/DTD/svg11.dtd">
<!-- Generated by graphviz version 14.1.5 (20260411.2331)
 -->
<!-- Title: BiomeElementData Pages: 1 -->
<svg width="722pt" height="692pt"
 viewBox="0.00 0.00 722.00 692.00" xmlns="http://www.w3.org/2000/svg" xmlns:xlink="http://www.w3.org/1999/xlink">
<g id="graph0" class="graph" transform="scale(1 1) rotate(0) translate(4 688)">
<title>BiomeElementData</title>
<polygon fill="white" stroke="none" points="-4,4 -4,-688 718.32,-688 718.32,4 -4,4"/>
<!-- 0 -->
<!-- name: &quot;BiomeElementData&quot;, typeName: &quot;&quot;, id: 0, branchId: 0, recurseId: &#45;1, attributes: 0, notes: &quot;&quot; -->
<g id="node1" class="node">
<title>0</title>
<ellipse fill="none" stroke="black" cx="84.62" cy="-477" rx="84.62" ry="18"/>
<text xml:space="preserve" text-anchor="middle" x="84.62" y="-471.95" font-family="Times New Roman,serif" font-size="14.00">BiomeElementData</text>
</g>
<!-- 1 -->
<!-- name: &quot;noise freq scale&quot;, typeName: &quot;&quot;, id: 1, branchId: 0, recurseId: &#45;1, attributes: 0, notes: &quot;&quot; -->
<g id="node2" class="node">
<title>1</title>
<ellipse fill="none" stroke="black" cx="474.11" cy="-662" rx="68.75" ry="18"/>
<text xml:space="preserve" text-anchor="middle" x="474.11" y="-656.95" font-family="Times New Roman,serif" font-size="14.00">noise freq scale</text>
</g>
<!-- 0&#45;&gt;1 -->
<g id="edge1" class="edge">
<title>0&#45;&gt;1</title>
<path fill="none" stroke="black" d="M92.97,-495.35C108.07,-530.31 146.2,-605.96 205.24,-639 265.07,-672.48 344.42,-675.11 401.2,-671.28"/>
<polygon fill="black" stroke="black" points="401.39,-674.77 411.09,-670.51 400.86,-667.79 401.39,-674.77"/>
</g>
<!-- 3 -->
<!-- name: &quot;noise lower bound&quot;, typeName: &quot;&quot;, id: 3, branchId: 0, recurseId: &#45;1, attributes: 0, notes: &quot;&quot; -->
<g id="node4" class="node">
<title>3</title>
<ellipse fill="none" stroke="black" cx="284.74" cy="-612" rx="79.5" ry="18"/>
<text xml:space="preserve" text-anchor="middle" x="284.74" y="-606.95" font-family="Times New Roman,serif" font-size="14.00">noise lower bound</text>
</g>
<!-- 0&#45;&gt;3 -->
<g id="edge3" class="edge">
<title>0&#45;&gt;3</title>
<path fill="none" stroke="black" d="M101.3,-495.12C122.65,-518.79 163.06,-560.13 205.24,-585 210.73,-588.24 216.66,-591.16 222.72,-593.78"/>
<polygon fill="black" stroke="black" points="221,-596.86 231.58,-597.35 223.61,-590.37 221,-596.86"/>
</g>
<!-- 5 -->
<!-- name: &quot;noise upper bound&quot;, typeName: &quot;&quot;, id: 5, branchId: 0, recurseId: &#45;1, attributes: 0, notes: &quot;&quot; -->
<g id="node6" class="node">
<title>5</title>
<ellipse fill="none" stroke="black" cx="284.74" cy="-558" rx="79.5" ry="18"/>
<text xml:space="preserve" text-anchor="middle" x="284.74" y="-552.95" font-family="Times New Roman,serif" font-size="14.00">noise upper bound</text>
</g>
<!-- 0&#45;&gt;5 -->
<g id="edge5" class="edge">
<title>0&#45;&gt;5</title>
<path fill="none" stroke="black" d="M120.32,-493.7C144,-504.83 176.22,-519.49 205.24,-531 212.43,-533.85 220.06,-536.7 227.63,-539.41"/>
<polygon fill="black" stroke="black" points="226.21,-542.62 236.8,-542.64 228.53,-536.02 226.21,-542.62"/>
</g>
<!-- 7 -->
<!-- name: &quot;height min type&quot;, typeName: &quot;&quot;, id: 7, branchId: 0, recurseId: &#45;1, attributes: 0, notes: &quot;&quot; -->
<g id="node8" class="node">
<title>7</title>
<ellipse fill="none" stroke="black" cx="284.74" cy="-504" rx="69.78" ry="18"/>
<text xml:space="preserve" text-anchor="middle" x="284.74" y="-498.95" font-family="Times New Roman,serif" font-size="14.00">height min type</text>
</g>
<!-- 0&#45;&gt;7 -->
<g id="edge7" class="edge">
<title>0&#45;&gt;7</title>
<path fill="none" stroke="black" d="M156.86,-486.71C174.43,-489.1 193.26,-491.67 210.9,-494.07"/>
<polygon fill="black" stroke="black" points="210.41,-497.54 220.79,-495.42 211.36,-490.6 210.41,-497.54"/>
</g>
<!-- 9 -->
<!-- name: &quot;height min&quot;, typeName: &quot;&quot;, id: 9, branchId: 0, recurseId: &#45;1, attributes: 0, notes: &quot;&quot; -->
<g id="node10" class="node">
<title>9</title>
<ellipse fill="none" stroke="black" cx="284.74" cy="-450" rx="51.35" ry="18"/>
<text xml:space="preserve" text-anchor="middle" x="284.74" y="-444.95" font-family="Times New Roman,serif" font-size="14.00">height min</text>
</g>
<!-- 0&#45;&gt;9 -->
<g id="edge9" class="edge">
<title>0&#45;&gt;9</title>
<path fill="none" stroke="black" d="M156.86,-467.29C179.25,-464.24 203.69,-460.91 225.09,-457.99"/>
<polygon fill="black" stroke="black" points="225.37,-461.49 234.81,-456.67 224.43,-454.55 225.37,-461.49"/>
</g>
<!-- 11 -->
<!-- name: &quot;height max type&quot;, typeName: &quot;&quot;, id: 11, branchId: 0, recurseId: &#45;1, attributes: 0, notes: &quot;&quot; -->
<g id="node12" class="node">
<title>11</title>
<ellipse fill="none" stroke="black" cx="284.74" cy="-396" rx="71.31" ry="18"/>
<text xml:space="preserve" text-anchor="middle" x="284.74" y="-390.95" font-family="Times New Roman,serif" font-size="14.00">height max type</text>
</g>
<!-- 0&#45;&gt;11 -->
<g id="edge11" class="edge">
<title>0&#45;&gt;11</title>
<path fill="none" stroke="black" d="M120.32,-460.3C144,-449.17 176.22,-434.51 205.24,-423 212.88,-419.97 221.02,-416.95 229.05,-414.08"/>
<polygon fill="black" stroke="black" points="230.17,-417.4 238.45,-410.78 227.85,-410.79 230.17,-417.4"/>
</g>
<!-- 13 -->
<!-- name: &quot;height max&quot;, typeName: &quot;&quot;, id: 13, branchId: 0, recurseId: &#45;1, attributes: 0, notes: &quot;&quot; -->
<g id="node14" class="node">
<title>13</title>
<ellipse fill="none" stroke="black" cx="284.74" cy="-342" rx="52.89" ry="18"/>
<text xml:space="preserve" text-anchor="middle" x="284.74" y="-336.95" font-family="Times New Roman,serif" font-size="14.00">height max</text>
</g>
<!-- 0&#45;&gt;13 -->
<g id="edge13" class="edge">
<title>0&#45;&gt;13</title>
<path fill="none" stroke="black" d="M101.3,-458.88C122.65,-435.21 163.06,-393.87 205.24,-369 213.27,-364.26 222.25,-360.2 231.2,-356.76"/>
<polygon fill="black" stroke="black" points="232.36,-360.06 240.6,-353.4 230,-353.47 232.36,-360.06"/>
</g>
<!-- 15 -->
<!-- name: &quot;adjusted materials&quot;, typeName: &quot;&quot;, id: 15, branchId: 0, recurseId: &#45;1, attributes: 0, notes: &quot;&quot; -->
<g id="node16" class="node">
<title>15</title>
<ellipse fill="none" stroke="black" cx="284.74" cy="-180" rx="78.48" ry="18"/>
<text xml:space="preserve" text-anchor="middle" x="284.74" y="-174.95" font-family="Times New Roman,serif" font-size="14.00">adjusted materials</text>
</g>
<!-- 0&#45;&gt;15 -->
<g id="edge15" class="edge">
<title>0&#45;&gt;15</title>
<path fill="none" stroke="black" d="M97.71,-458.87C131.23,-408.63 225.45,-267.38 265.43,-207.45"/>
<polygon fill="black" stroke="black" points="268.32,-209.41 270.96,-199.15 262.5,-205.53 268.32,-209.41"/>
</g>
<!-- 2 -->
<!-- name: &quot;float&quot;, typeName: &quot;&quot;, id: 2, branchId: 0, recurseId: &#45;1, attributes: 512, notes: &quot;&quot; -->
<g id="node3" class="node">
<title>2</title>
<ellipse fill="none" stroke="black" cx="649.15" cy="-666" rx="27.81" ry="18"/>
<text xml:space="preserve" text-anchor="middle" x="649.15" y="-660.95" font-family="Times New Roman,serif" font-size="14.00">float</text>
</g>
<!-- 1&#45;&gt;2 -->
<g id="edge2" class="edge">
<title>1&#45;&gt;2</title>
<path fill="none" stroke="black" d="M543,-663.57C565.69,-664.09 590.18,-664.66 609.8,-665.11"/>
<polygon fill="black" stroke="black" points="609.45,-668.61 619.53,-665.34 609.61,-661.61 609.45,-668.61"/>
</g>
<!-- 4 -->
<!-- name: &quot;float&quot;, typeName: &quot;&quot;, id: 4, branchId: 0, recurseId: &#45;1, attributes: 512, notes: &quot;&quot; -->
<g id="node5" class="node">
<title>4</title>
<ellipse fill="none" stroke="black" cx="649.15" cy="-612" rx="27.81" ry="18"/>
<text xml:space="preserve" text-anchor="middle" x="649.15" y="-606.95" font-family="Times New Roman,serif" font-size="14.00">float</text>
</g>
<!-- 3&#45;&gt;4 -->
<g id="edge4" class="edge">
<title>3&#45;&gt;4</title>
<path fill="none" stroke="black" d="M364.38,-612C440.14,-612 551.57,-612 609.69,-612"/>
<polygon fill="black" stroke="black" points="609.4,-615.5 619.4,-612 609.4,-608.5 609.4,-615.5"/>
</g>
<!-- 6 -->
<!-- name: &quot;float&quot;, typeName: &quot;&quot;, id: 6, branchId: 0, recurseId: &#45;1, attributes: 512, notes: &quot;&quot; -->
<g id="node7" class="node">
<title>6</title>
<ellipse fill="none" stroke="black" cx="649.15" cy="-558" rx="27.81" ry="18"/>
<text xml:space="preserve" text-anchor="middle" x="649.15" y="-552.95" font-family="Times New Roman,serif" font-size="14.00">float</text>
</g>
<!-- 5&#45;&gt;6 -->
<g id="edge6" class="edge">
<title>5&#45;&gt;6</title>
<path fill="none" stroke="black" d="M364.38,-558C440.14,-558 551.57,-558 609.69,-558"/>
<polygon fill="black" stroke="black" points="609.4,-561.5 619.4,-558 609.4,-554.5 609.4,-561.5"/>
</g>
<!-- 8 -->
<!-- name: &quot;varint&quot;, typeName: &quot;&quot;, id: 8, branchId: 0, recurseId: &#45;1, attributes: 512, notes: &quot;&quot; -->
<g id="node9" class="node">
<title>8</title>
<ellipse fill="none" stroke="black" cx="649.15" cy="-504" rx="32.41" ry="18"/>
<text xml:space="preserve" text-anchor="middle" x="649.15" y="-498.95" font-family="Times New Roman,serif" font-size="14.00">varint</text>
</g>
<!-- 7&#45;&gt;8 -->
<g id="edge8" class="edge">
<title>7&#45;&gt;8</title>
<path fill="none" stroke="black" d="M354.76,-504C428.65,-504 543.59,-504 605.38,-504"/>
<polygon fill="black" stroke="black" points="605.13,-507.5 615.13,-504 605.13,-500.5 605.13,-507.5"/>
</g>
<!-- 10 -->
<!-- name: &quot;unsigned short&quot;, typeName: &quot;&quot;, id: 10, branchId: 0, recurseId: &#45;1, attributes: 512, notes: &quot;&quot; -->
<g id="node11" class="node">
<title>10</title>
<ellipse fill="none" stroke="black" cx="649.15" cy="-450" rx="65.17" ry="18"/>
<text xml:space="preserve" text-anchor="middle" x="649.15" y="-444.95" font-family="Times New Roman,serif" font-size="14.00">unsigned short</text>
</g>
<!-- 9&#45;&gt;10 -->
<g id="edge10" class="edge">
<title>9&#45;&gt;10</title>
<path fill="none" stroke="black" d="M336.51,-450C397.78,-450 501.36,-450 572.16,-450"/>
<polygon fill="black" stroke="black" points="572.15,-453.5 582.15,-450 572.15,-446.5 572.15,-453.5"/>
</g>
<!-- 12 -->
<!-- name: &quot;varint&quot;, typeName: &quot;&quot;, id: 12, branchId: 0, recurseId: &#45;1, attributes: 512, notes: &quot;&quot; -->
<g id="node13" class="node">
<title>12</title>
<ellipse fill="none" stroke="black" cx="649.15" cy="-396" rx="32.41" ry="18"/>
<text xml:space="preserve" text-anchor="middle" x="649.15" y="-390.95" font-family="Times New Roman,serif" font-size="14.00">varint</text>
</g>
<!-- 11&#45;&gt;12 -->
<g id="edge12" class="edge">
<title>11&#45;&gt;12</title>
<path fill="none" stroke="black" d="M356.48,-396C430.4,-396 543.99,-396 605.33,-396"/>
<polygon fill="black" stroke="black" points="604.99,-399.5 614.99,-396 604.99,-392.5 604.99,-399.5"/>
</g>
<!-- 14 -->
<!-- name: &quot;unsigned short&quot;, typeName: &quot;&quot;, id: 14, branchId: 0, recurseId: &#45;1, attributes: 512, notes: &quot;&quot; -->
<g id="node15" class="node">
<title>14</title>
<ellipse fill="none" stroke="black" cx="649.15" cy="-342" rx="65.17" ry="18"/>
<text xml:space="preserve" text-anchor="middle" x="649.15" y="-336.95" font-family="Times New Roman,serif" font-size="14.00">unsigned short</text>
</g>
<!-- 13&#45;&gt;14 -->
<g id="edge14" class="edge">
<title>13&#45;&gt;14</title>
<path fill="none" stroke="black" d="M338.05,-342C399.51,-342 501.99,-342 572.2,-342"/>
<polygon fill="black" stroke="black" points="572.1,-345.5 582.1,-342 572.1,-338.5 572.1,-345.5"/>
</g>
<!-- 16 -->
<!-- name: &quot;top block&quot;, typeName: &quot;&quot;, id: 16, branchId: 0, recurseId: &#45;1, attributes: 0, notes: &quot;&quot; -->
<g id="node17" class="node">
<title>16</title>
<ellipse fill="none" stroke="black" cx="474.11" cy="-288" rx="45.72" ry="18"/>
<text xml:space="preserve" text-anchor="middle" x="474.11" y="-282.95" font-family="Times New Roman,serif" font-size="14.00">top block</text>
</g>
<!-- 15&#45;&gt;16 -->
<g id="edge16" class="edge">
<title>15&#45;&gt;16</title>
<path fill="none" stroke="black" d="M307.01,-197.63C329.21,-215.39 365.56,-242.71 400.24,-261 408.55,-265.38 417.74,-269.38 426.71,-272.88"/>
<polygon fill="black" stroke="black" points="425.45,-276.15 436.05,-276.36 427.9,-269.59 425.45,-276.15"/>
</g>
<!-- 18 -->
<!-- name: &quot;mid block&quot;, typeName: &quot;&quot;, id: 18, branchId: 0, recurseId: &#45;1, attributes: 0, notes: &quot;&quot; -->
<g id="node19" class="node">
<title>18</title>
<ellipse fill="none" stroke="black" cx="474.11" cy="-234" rx="48.79" ry="18"/>
<text xml:space="preserve" text-anchor="middle" x="474.11" y="-228.95" font-family="Times New Roman,serif" font-size="14.00">mid block</text>
</g>
<!-- 15&#45;&gt;18 -->
<g id="edge18" class="edge">
<title>15&#45;&gt;18</title>
<path fill="none" stroke="black" d="M334.97,-194.19C362.41,-202.1 396.49,-211.92 423.93,-219.82"/>
<polygon fill="black" stroke="black" points="422.82,-223.15 433.4,-222.56 424.76,-216.42 422.82,-223.15"/>
</g>
<!-- 20 -->
<!-- name: &quot;sea floor block&quot;, typeName: &quot;&quot;, id: 20, branchId: 0, recurseId: &#45;1, attributes: 0, notes: &quot;&quot; -->
<g id="node21" class="node">
<title>20</title>
<ellipse fill="none" stroke="black" cx="474.11" cy="-180" rx="66.19" ry="18"/>
<text xml:space="preserve" text-anchor="middle" x="474.11" y="-174.95" font-family="Times New Roman,serif" font-size="14.00">sea floor block</text>
</g>
<!-- 15&#45;&gt;20 -->
<g id="edge20" class="edge">
<title>15&#45;&gt;20</title>
<path fill="none" stroke="black" d="M363.57,-180C374.28,-180 385.27,-180 395.97,-180"/>
<polygon fill="black" stroke="black" points="395.91,-183.5 405.91,-180 395.91,-176.5 395.91,-183.5"/>
</g>
<!-- 22 -->
<!-- name: &quot;foundation block&quot;, typeName: &quot;&quot;, id: 22, branchId: 0, recurseId: &#45;1, attributes: 0, notes: &quot;&quot; -->
<g id="node23" class="node">
<title>22</title>
<ellipse fill="none" stroke="black" cx="474.11" cy="-126" rx="73.87" ry="18"/>
<text xml:space="preserve" text-anchor="middle" x="474.11" y="-120.95" font-family="Times New Roman,serif" font-size="14.00">foundation block</text>
</g>
<!-- 15&#45;&gt;22 -->
<g id="edge22" class="edge">
<title>15&#45;&gt;22</title>
<path fill="none" stroke="black" d="M334.97,-165.81C359.24,-158.82 388.7,-150.33 414.17,-142.99"/>
<polygon fill="black" stroke="black" points="415.09,-146.36 423.73,-140.23 413.15,-139.64 415.09,-146.36"/>
</g>
<!-- 24 -->
<!-- name: &quot;sea block&quot;, typeName: &quot;&quot;, id: 24, branchId: 0, recurseId: &#45;1, attributes: 0, notes: &quot;&quot; -->
<g id="node25" class="node">
<title>24</title>
<ellipse fill="none" stroke="black" cx="474.11" cy="-72" rx="45.72" ry="18"/>
<text xml:space="preserve" text-anchor="middle" x="474.11" y="-66.95" font-family="Times New Roman,serif" font-size="14.00">sea block</text>
</g>
<!-- 15&#45;&gt;24 -->
<g id="edge24" class="edge">
<title>15&#45;&gt;24</title>
<path fill="none" stroke="black" d="M307.01,-162.37C329.21,-144.61 365.56,-117.29 400.24,-99 408.55,-94.62 417.74,-90.62 426.71,-87.12"/>
<polygon fill="black" stroke="black" points="427.9,-90.41 436.05,-83.64 425.45,-83.85 427.9,-90.41"/>
</g>
<!-- 26 -->
<!-- name: &quot;sea floor depth&quot;, typeName: &quot;&quot;, id: 26, branchId: 0, recurseId: &#45;1, attributes: 0, notes: &quot;&quot; -->
<g id="node27" class="node">
<title>26</title>
<ellipse fill="none" stroke="black" cx="474.11" cy="-18" rx="66.19" ry="18"/>
<text xml:space="preserve" text-anchor="middle" x="474.11" y="-12.95" font-family="Times New Roman,serif" font-size="14.00">sea floor depth</text>
</g>
<!-- 15&#45;&gt;26 -->
<g id="edge26" class="edge">
<title>15&#45;&gt;26</title>
<path fill="none" stroke="black" d="M296.53,-162.14C314.61,-133.6 353.67,-77.62 400.24,-45 405.28,-41.47 410.84,-38.34 416.57,-35.58"/>
<polygon fill="black" stroke="black" points="417.86,-38.83 425.62,-31.61 415.05,-32.42 417.86,-38.83"/>
</g>
<!-- 17 -->
<!-- name: &quot;unsigned int&quot;, typeName: &quot;&quot;, id: 17, branchId: 0, recurseId: &#45;1, attributes: 512, notes: &quot;&quot; -->
<g id="node18" class="node">
<title>17</title>
<ellipse fill="none" stroke="black" cx="649.15" cy="-288" rx="56.47" ry="18"/>
<text xml:space="preserve" text-anchor="middle" x="649.15" y="-282.95" font-family="Times New Roman,serif" font-size="14.00">unsigned int</text>
</g>
<!-- 16&#45;&gt;17 -->
<g id="edge17" class="edge">
<title>16&#45;&gt;17</title>
<path fill="none" stroke="black" d="M520.12,-288C538.63,-288 560.45,-288 580.78,-288"/>
<polygon fill="black" stroke="black" points="580.71,-291.5 590.71,-288 580.71,-284.5 580.71,-291.5"/>
</g>
<!-- 19 -->
<!-- name: &quot;unsigned int&quot;, typeName: &quot;&quot;, id: 19, branchId: 0, recurseId: &#45;1, attributes: 512, notes: &quot;&quot; -->
<g id="node20" class="node">
<title>19</title>
<ellipse fill="none" stroke="black" cx="649.15" cy="-234" rx="56.47" ry="18"/>
<text xml:space="preserve" text-anchor="middle" x="649.15" y="-228.95" font-family="Times New Roman,serif" font-size="14.00">unsigned int</text>
</g>
<!-- 18&#45;&gt;19 -->
<g id="edge19" class="edge">
<title>18&#45;&gt;19</title>
<path fill="none" stroke="black" d="M523.31,-234C541.12,-234 561.64,-234 580.83,-234"/>
<polygon fill="black" stroke="black" points="580.74,-237.5 590.74,-234 580.74,-230.5 580.74,-237.5"/>
</g>
<!-- 21 -->
<!-- name: &quot;unsigned int&quot;, typeName: &quot;&quot;, id: 21, branchId: 0, recurseId: &#45;1, attributes: 512, notes: &quot;&quot; -->
<g id="node22" class="node">
<title>21</title>
<ellipse fill="none" stroke="black" cx="649.15" cy="-180" rx="56.47" ry="18"/>
<text xml:space="preserve" text-anchor="middle" x="649.15" y="-174.95" font-family="Times New Roman,serif" font-size="14.00">unsigned int</text>
</g>
<!-- 20&#45;&gt;21 -->
<g id="edge21" class="edge">
<title>20&#45;&gt;21</title>
<path fill="none" stroke="black" d="M540.53,-180C553.71,-180 567.58,-180 580.82,-180"/>
<polygon fill="black" stroke="black" points="580.74,-183.5 590.74,-180 580.74,-176.5 580.74,-183.5"/>
</g>
<!-- 23 -->
<!-- name: &quot;unsigned int&quot;, typeName: &quot;&quot;, id: 23, branchId: 0, recurseId: &#45;1, attributes: 512, notes: &quot;&quot; -->
<g id="node24" class="node">
<title>23</title>
<ellipse fill="none" stroke="black" cx="649.15" cy="-126" rx="56.47" ry="18"/>
<text xml:space="preserve" text-anchor="middle" x="649.15" y="-120.95" font-family="Times New Roman,serif" font-size="14.00">unsigned int</text>
</g>
<!-- 22&#45;&gt;23 -->
<g id="edge23" class="edge">
<title>22&#45;&gt;23</title>
<path fill="none" stroke="black" d="M548.24,-126C559.08,-126 570.21,-126 580.92,-126"/>
<polygon fill="black" stroke="black" points="580.83,-129.5 590.83,-126 580.83,-122.5 580.83,-129.5"/>
</g>
<!-- 25 -->
<!-- name: &quot;unsigned int&quot;, typeName: &quot;&quot;, id: 25, branchId: 0, recurseId: &#45;1, attributes: 512, notes: &quot;&quot; -->
<g id="node26" class="node">
<title>25</title>
<ellipse fill="none" stroke="black" cx="649.15" cy="-72" rx="56.47" ry="18"/>
<text xml:space="preserve" text-anchor="middle" x="649.15" y="-66.95" font-family="Times New Roman,serif" font-size="14.00">unsigned int</text>
</g>
<!-- 24&#45;&gt;25 -->
<g id="edge25" class="edge">
<title>24&#45;&gt;25</title>
<path fill="none" stroke="black" d="M520.12,-72C538.63,-72 560.45,-72 580.78,-72"/>
<polygon fill="black" stroke="black" points="580.71,-75.5 590.71,-72 580.71,-68.5 580.71,-75.5"/>
</g>
<!-- 27 -->
<!-- name: &quot;int&quot;, typeName: &quot;&quot;, id: 27, branchId: 0, recurseId: &#45;1, attributes: 512, notes: &quot;&quot; -->
<g id="node28" class="node">
<title>27</title>
<ellipse fill="none" stroke="black" cx="649.15" cy="-18" rx="27" ry="18"/>
<text xml:space="preserve" text-anchor="middle" x="649.15" y="-12.95" font-family="Times New Roman,serif" font-size="14.00">int</text>
</g>
<!-- 26&#45;&gt;27 -->
<g id="edge27" class="edge">
<title>26&#45;&gt;27</title>
<path fill="none" stroke="black" d="M540.53,-18C564.21,-18 590.14,-18 610.61,-18"/>
<polygon fill="black" stroke="black" points="610.46,-21.5 620.46,-18 610.46,-14.5 610.46,-21.5"/>
</g>
</g>
</svg>
