<?xml version="1.0" encoding="UTF-8" standalone="no"?>
<!DOCTYPE svg PUBLIC "-//W3C//DTD SVG 1.1//EN"
 "http://www.w3.org/Graphics/SVG/1.1/DTD/svg11.dtd">
<!-- Generated by graphviz version 12.2.1 (20241206.2353)
 -->
<!-- Title: BiomeMultinoiseGenRulesData Pages: 1 -->
<svg width="507pt" height="260pt"
 viewBox="0.00 0.00 506.85 260.00" xmlns="http://www.w3.org/2000/svg" xmlns:xlink="http://www.w3.org/1999/xlink">
<g id="graph0" class="graph" transform="scale(1 1) rotate(0) translate(4 256)">
<title>BiomeMultinoiseGenRulesData</title>
<polygon fill="white" stroke="none" points="-4,4 -4,-256 502.85,-256 502.85,4 -4,4"/>
<!-- 342 -->
<!-- name: &quot;BiomeMultinoiseGenRulesData&quot;, typeName: &quot;&quot;, id: 342, branchId: 0, recurseId: &#45;1, attributes: 0, notes: &quot;&quot; -->
<g id="node1" class="node">
<title>342</title>
<ellipse fill="none" stroke="black" cx="130.17" cy="-126" rx="130.17" ry="18"/>
<text text-anchor="middle" x="130.17" y="-120.95" font-family="Times New Roman,serif" font-size="14.00">BiomeMultinoiseGenRulesData</text>
</g>
<!-- 343 -->
<!-- name: &quot;temperature&quot;, typeName: &quot;&quot;, id: 343, branchId: 0, recurseId: &#45;1, attributes: 0, notes: &quot;&quot; -->
<g id="node2" class="node">
<title>343</title>
<ellipse fill="none" stroke="black" cx="351.79" cy="-234" rx="55.45" ry="18"/>
<text text-anchor="middle" x="351.79" y="-228.95" font-family="Times New Roman,serif" font-size="14.00">temperature</text>
</g>
<!-- 342&#45;&gt;343 -->
<g id="edge1" class="edge">
<title>342&#45;&gt;343</title>
<path fill="none" stroke="black" d="M166.94,-143.59C206.08,-162.84 268.69,-193.63 309.78,-213.84"/>
<polygon fill="black" stroke="black" points="308.12,-216.92 318.64,-218.19 311.21,-210.64 308.12,-216.92"/>
</g>
<!-- 345 -->
<!-- name: &quot;humidity&quot;, typeName: &quot;&quot;, id: 345, branchId: 0, recurseId: &#45;1, attributes: 0, notes: &quot;&quot; -->
<g id="node4" class="node">
<title>345</title>
<ellipse fill="none" stroke="black" cx="351.79" cy="-180" rx="44.7" ry="18"/>
<text text-anchor="middle" x="351.79" y="-174.95" font-family="Times New Roman,serif" font-size="14.00">humidity</text>
</g>
<!-- 342&#45;&gt;345 -->
<g id="edge3" class="edge">
<title>342&#45;&gt;345</title>
<path fill="none" stroke="black" d="M195.87,-141.91C229.79,-150.25 270.66,-160.3 301.9,-167.98"/>
<polygon fill="black" stroke="black" points="300.93,-171.35 311.48,-170.33 302.6,-164.55 300.93,-171.35"/>
</g>
<!-- 347 -->
<!-- name: &quot;altitude&quot;, typeName: &quot;&quot;, id: 347, branchId: 0, recurseId: &#45;1, attributes: 0, notes: &quot;&quot; -->
<g id="node6" class="node">
<title>347</title>
<ellipse fill="none" stroke="black" cx="351.79" cy="-126" rx="38.56" ry="18"/>
<text text-anchor="middle" x="351.79" y="-120.95" font-family="Times New Roman,serif" font-size="14.00">altitude</text>
</g>
<!-- 342&#45;&gt;347 -->
<g id="edge5" class="edge">
<title>342&#45;&gt;347</title>
<path fill="none" stroke="black" d="M260.83,-126C275.18,-126 289.07,-126 301.46,-126"/>
<polygon fill="black" stroke="black" points="301.34,-129.5 311.34,-126 301.34,-122.5 301.34,-129.5"/>
</g>
<!-- 349 -->
<!-- name: &quot;weirdness&quot;, typeName: &quot;&quot;, id: 349, branchId: 0, recurseId: &#45;1, attributes: 0, notes: &quot;&quot; -->
<g id="node8" class="node">
<title>349</title>
<ellipse fill="none" stroke="black" cx="351.79" cy="-72" rx="47.77" ry="18"/>
<text text-anchor="middle" x="351.79" y="-66.95" font-family="Times New Roman,serif" font-size="14.00">weirdness</text>
</g>
<!-- 342&#45;&gt;349 -->
<g id="edge7" class="edge">
<title>342&#45;&gt;349</title>
<path fill="none" stroke="black" d="M195.87,-110.09C229.12,-101.92 269.03,-92.1 300.02,-84.48"/>
<polygon fill="black" stroke="black" points="300.66,-87.93 309.54,-82.14 298.99,-81.13 300.66,-87.93"/>
</g>
<!-- 351 -->
<!-- name: &quot;weight&quot;, typeName: &quot;&quot;, id: 351, branchId: 0, recurseId: &#45;1, attributes: 0, notes: &quot;&quot; -->
<g id="node10" class="node">
<title>351</title>
<ellipse fill="none" stroke="black" cx="351.79" cy="-18" rx="36" ry="18"/>
<text text-anchor="middle" x="351.79" y="-12.95" font-family="Times New Roman,serif" font-size="14.00">weight</text>
</g>
<!-- 342&#45;&gt;351 -->
<g id="edge9" class="edge">
<title>342&#45;&gt;351</title>
<path fill="none" stroke="black" d="M166.94,-108.41C207.78,-88.33 274.19,-55.67 315.02,-35.59"/>
<polygon fill="black" stroke="black" points="316.53,-38.75 323.96,-31.19 313.44,-32.47 316.53,-38.75"/>
</g>
<!-- 344 -->
<!-- name: &quot;float&quot;, typeName: &quot;&quot;, id: 344, branchId: 0, recurseId: &#45;1, attributes: 512, notes: &quot;&quot; -->
<g id="node3" class="node">
<title>344</title>
<ellipse fill="none" stroke="black" cx="471.04" cy="-234" rx="27.81" ry="18"/>
<text text-anchor="middle" x="471.04" y="-228.95" font-family="Times New Roman,serif" font-size="14.00">float</text>
</g>
<!-- 343&#45;&gt;344 -->
<g id="edge2" class="edge">
<title>343&#45;&gt;344</title>
<path fill="none" stroke="black" d="M407.64,-234C415.69,-234 423.85,-234 431.48,-234"/>
<polygon fill="black" stroke="black" points="431.46,-237.5 441.46,-234 431.46,-230.5 431.46,-237.5"/>
</g>
<!-- 346 -->
<!-- name: &quot;float&quot;, typeName: &quot;&quot;, id: 346, branchId: 0, recurseId: &#45;1, attributes: 512, notes: &quot;&quot; -->
<g id="node5" class="node">
<title>346</title>
<ellipse fill="none" stroke="black" cx="471.04" cy="-180" rx="27.81" ry="18"/>
<text text-anchor="middle" x="471.04" y="-174.95" font-family="Times New Roman,serif" font-size="14.00">float</text>
</g>
<!-- 345&#45;&gt;346 -->
<g id="edge4" class="edge">
<title>345&#45;&gt;346</title>
<path fill="none" stroke="black" d="M396.78,-180C408.14,-180 420.28,-180 431.34,-180"/>
<polygon fill="black" stroke="black" points="431.33,-183.5 441.33,-180 431.33,-176.5 431.33,-183.5"/>
</g>
<!-- 348 -->
<!-- name: &quot;float&quot;, typeName: &quot;&quot;, id: 348, branchId: 0, recurseId: &#45;1, attributes: 512, notes: &quot;&quot; -->
<g id="node7" class="node">
<title>348</title>
<ellipse fill="none" stroke="black" cx="471.04" cy="-126" rx="27.81" ry="18"/>
<text text-anchor="middle" x="471.04" y="-120.95" font-family="Times New Roman,serif" font-size="14.00">float</text>
</g>
<!-- 347&#45;&gt;348 -->
<g id="edge6" class="edge">
<title>347&#45;&gt;348</title>
<path fill="none" stroke="black" d="M390.53,-126C403.68,-126 418.45,-126 431.65,-126"/>
<polygon fill="black" stroke="black" points="431.26,-129.5 441.26,-126 431.26,-122.5 431.26,-129.5"/>
</g>
<!-- 350 -->
<!-- name: &quot;float&quot;, typeName: &quot;&quot;, id: 350, branchId: 0, recurseId: &#45;1, attributes: 512, notes: &quot;&quot; -->
<g id="node9" class="node">
<title>350</title>
<ellipse fill="none" stroke="black" cx="471.04" cy="-72" rx="27.81" ry="18"/>
<text text-anchor="middle" x="471.04" y="-66.95" font-family="Times New Roman,serif" font-size="14.00">float</text>
</g>
<!-- 349&#45;&gt;350 -->
<g id="edge8" class="edge">
<title>349&#45;&gt;350</title>
<path fill="none" stroke="black" d="M399.8,-72C410.33,-72 421.39,-72 431.53,-72"/>
<polygon fill="black" stroke="black" points="431.41,-75.5 441.41,-72 431.41,-68.5 431.41,-75.5"/>
</g>
<!-- 352 -->
<!-- name: &quot;float&quot;, typeName: &quot;&quot;, id: 352, branchId: 0, recurseId: &#45;1, attributes: 512, notes: &quot;&quot; -->
<g id="node11" class="node">
<title>352</title>
<ellipse fill="none" stroke="black" cx="471.04" cy="-18" rx="27.81" ry="18"/>
<text text-anchor="middle" x="471.04" y="-12.95" font-family="Times New Roman,serif" font-size="14.00">float</text>
</g>
<!-- 351&#45;&gt;352 -->
<g id="edge10" class="edge">
<title>351&#45;&gt;352</title>
<path fill="none" stroke="black" d="M387.97,-18C401.77,-18 417.66,-18 431.75,-18"/>
<polygon fill="black" stroke="black" points="431.57,-21.5 441.57,-18 431.57,-14.5 431.57,-21.5"/>
</g>
</g>
</svg>
