<?xml version="1.0" encoding="UTF-8" standalone="no"?>
<!DOCTYPE svg PUBLIC "-//W3C//DTD SVG 1.1//EN"
 "http://www.w3.org/Graphics/SVG/1.1/DTD/svg11.dtd">
<!-- Generated by graphviz version 14.1.1 (20251213.1925)
 -->
<!-- Title: BiomeReplacementsData Pages: 1 -->
<svg width="1054pt" height="98pt"
 viewBox="0.00 0.00 1054.00 98.00" xmlns="http://www.w3.org/2000/svg" xmlns:xlink="http://www.w3.org/1999/xlink">
<g id="graph0" class="graph" transform="scale(1 1) rotate(0) translate(4 94)">
<title>BiomeReplacementsData</title>
<polygon fill="white" stroke="none" points="-4,4 -4,-94 1050.49,-94 1050.49,4 -4,4"/>
<!-- 360 -->
<!-- name: &quot;BiomeReplacementsData&quot;, typeName: &quot;&quot;, id: 360, branchId: 0, recurseId: &#45;1, attributes: 0, notes: &quot;&quot; -->
<g id="node1" class="node">
<title>360</title>
<ellipse fill="none" stroke="black" cx="105.6" cy="-45" rx="105.6" ry="18"/>
<text xml:space="preserve" text-anchor="middle" x="105.6" y="-39.95" font-family="Times New Roman,serif" font-size="14.00">BiomeReplacementsData</text>
</g>
<!-- 361 -->
<!-- name: &quot;biome replacement&quot;, typeName: &quot;&quot;, id: 361, branchId: 0, recurseId: &#45;1, attributes: 8, notes: &quot;&quot; -->
<g id="node2" class="node">
<title>361</title>
<ellipse fill="none" stroke="black" cx="329.78" cy="-45" rx="82.57" ry="18"/>
<text xml:space="preserve" text-anchor="middle" x="329.78" y="-39.95" font-family="Times New Roman,serif" font-size="14.00">biome replacement</text>
</g>
<!-- 360&#45;&gt;361 -->
<g id="edge1" class="edge">
<title>360&#45;&gt;361</title>
<path fill="none" stroke="black" d="M211.51,-45C219.51,-45 227.56,-45 235.48,-45"/>
<polygon fill="black" stroke="black" points="235.46,-48.5 245.46,-45 235.46,-41.5 235.46,-48.5"/>
</g>
<!-- 362 -->
<!-- name: &quot;List Size&quot;, typeName: &quot;&quot;, id: 362, branchId: 0, recurseId: &#45;1, attributes: 0, notes: &quot;&quot; -->
<g id="node3" class="node">
<title>362</title>
<ellipse fill="none" stroke="black" cx="720.29" cy="-72" rx="43.67" ry="18"/>
<text xml:space="preserve" text-anchor="middle" x="720.29" y="-66.95" font-family="Times New Roman,serif" font-size="14.00">List Size</text>
</g>
<!-- 361&#45;&gt;362 -->
<g id="edge2" class="edge">
<title>361&#45;&gt;362</title>
<path fill="none" stroke="black" d="M408.93,-50.43C485.02,-55.72 598.65,-63.62 665.24,-68.24"/>
<polygon fill="black" stroke="black" points="664.98,-71.73 675.2,-68.94 665.46,-64.75 664.98,-71.73"/>
</g>
<!-- 364 -->
<!-- name: &quot;example element&quot;, typeName: &quot;&quot;, id: 364, branchId: 0, recurseId: &#45;1, attributes: 16, notes: &quot;&quot; -->
<g id="node5" class="node">
<title>364</title>
<ellipse fill="none" stroke="black" stroke-dasharray="1,5" cx="523.24" cy="-22" rx="74.89" ry="18"/>
<text xml:space="preserve" text-anchor="middle" x="523.24" y="-16.95" font-family="Times New Roman,serif" font-size="14.00">example element</text>
</g>
<!-- 361&#45;&gt;364 -->
<g id="edge4" class="edge">
<title>361&#45;&gt;364</title>
<path fill="none" stroke="black" d="M402.89,-36.34C416.39,-34.72 430.56,-33.01 444.23,-31.37"/>
<polygon fill="black" stroke="black" points="444.55,-34.86 454.06,-30.19 443.71,-27.91 444.55,-34.86"/>
</g>
<!-- 363 -->
<!-- name: &quot;unsigned varint&quot;, typeName: &quot;&quot;, id: 363, branchId: 0, recurseId: &#45;1, attributes: 512, notes: &quot;&quot; -->
<g id="node4" class="node">
<title>363</title>
<ellipse fill="none" stroke="black" cx="944.47" cy="-72" rx="68.24" ry="18"/>
<text xml:space="preserve" text-anchor="middle" x="944.47" y="-66.95" font-family="Times New Roman,serif" font-size="14.00">unsigned varint</text>
</g>
<!-- 362&#45;&gt;363 -->
<g id="edge3" class="edge">
<title>362&#45;&gt;363</title>
<path fill="none" stroke="black" d="M764.39,-72C792.85,-72 830.98,-72 864.74,-72"/>
<polygon fill="black" stroke="black" points="864.49,-75.5 874.49,-72 864.49,-68.5 864.49,-75.5"/>
</g>
<!-- 365 -->
<!-- name: &quot;biome replacements&quot;, typeName: &quot;BiomeReplacementData&quot;, id: 365, branchId: 0, recurseId: &#45;1, attributes: 256, notes: &quot;&quot; -->
<g id="node6" class="node">
<title>365</title>
<ellipse fill="none" stroke="black" cx="720.29" cy="-18" rx="86.15" ry="18"/>
<text xml:space="preserve" text-anchor="middle" x="720.29" y="-12.95" font-family="Times New Roman,serif" font-size="14.00">biome replacements</text>
</g>
<!-- 364&#45;&gt;365 -->
<g id="edge5" class="edge">
<title>364&#45;&gt;365</title>
<path fill="none" stroke="black" d="M598.26,-20.48C606.34,-20.32 614.64,-20.15 622.94,-19.98"/>
<polygon fill="black" stroke="black" points="622.78,-23.48 632.7,-19.78 622.63,-16.48 622.78,-23.48"/>
</g>
<!-- 383 -->
<!-- name: &quot;BiomeReplacementData&quot;, typeName: &quot;&quot;, id: 383, branchId: 0, recurseId: &#45;1, attributes: 512, notes: &quot;&quot; -->
<g id="node7" class="node">
<title>383</title>
<ellipse fill="none" stroke="black" cx="944.47" cy="-18" rx="102.02" ry="18"/>
<text xml:space="preserve" text-anchor="middle" x="944.47" y="-12.95" font-family="Times New Roman,serif" font-size="14.00">BiomeReplacementData</text>
</g>
<!-- 365&#45;&gt;383 -->
<g id="edge6" class="edge">
<title>365&#45;&gt;383</title>
<path fill="none" stroke="black" d="M806.87,-18C814.68,-18 822.67,-18 830.67,-18"/>
<polygon fill="black" stroke="black" points="830.46,-21.5 840.46,-18 830.46,-14.5 830.46,-21.5"/>
</g>
</g>
</svg>
