<?xml version="1.0" encoding="UTF-8" standalone="no"?>
<!DOCTYPE svg PUBLIC "-//W3C//DTD SVG 1.1//EN"
 "http://www.w3.org/Graphics/SVG/1.1/DTD/svg11.dtd">
<!-- Generated by graphviz version 2.46.1 (20210213.1702)
 -->
<!-- Title: BlockPickRequestPacket Pages: 1 -->
<svg width="480pt" height="152pt"
 viewBox="0.00 0.00 480.36 152.00" xmlns="http://www.w3.org/2000/svg" xmlns:xlink="http://www.w3.org/1999/xlink">
<g id="graph0" class="graph" transform="scale(1 1) rotate(0) translate(4 148)">
<title>BlockPickRequestPacket</title>
<polygon fill="white" stroke="transparent" points="-4,4 -4,-148 476.36,-148 476.36,4 -4,4"/>
<!-- 0 -->
<!-- name: &quot;BlockPickRequestPacket&quot;, typeName: &quot;&quot;, id: 0, branchId: 34, recurseId: &#45;1, attributes: 0, notes: &quot;&quot; -->
<g id="node1" class="node">
<title>0</title>
<ellipse fill="none" stroke="black" cx="102.69" cy="-72" rx="102.88" ry="18"/>
<text text-anchor="middle" x="102.69" y="-68.3" font-family="Times New Roman,serif" font-size="14.00">BlockPickRequestPacket</text>
</g>
<!-- 1 -->
<!-- name: &quot;Position&quot;, typeName: &quot;BlockPos&quot;, id: 1, branchId: 0, recurseId: &#45;1, attributes: 256, notes: &quot;&quot; -->
<g id="node2" class="node">
<title>1</title>
<ellipse fill="none" stroke="black" cx="292.73" cy="-126" rx="40.09" ry="18"/>
<text text-anchor="middle" x="292.73" y="-122.3" font-family="Times New Roman,serif" font-size="14.00">Position</text>
</g>
<!-- 0&#45;&gt;1 -->
<g id="edge1" class="edge">
<title>0&#45;&gt;1</title>
<path fill="none" stroke="black" d="M157.07,-87.33C186.08,-95.66 221.48,-105.83 248.71,-113.65"/>
<polygon fill="black" stroke="black" points="247.76,-117.02 258.34,-116.41 249.69,-110.29 247.76,-117.02"/>
</g>
<!-- 3 -->
<!-- name: &quot;With Data?&quot;, typeName: &quot;&quot;, id: 3, branchId: 0, recurseId: &#45;1, attributes: 0, notes: &quot;&quot; -->
<g id="node4" class="node">
<title>3</title>
<ellipse fill="none" stroke="black" cx="292.73" cy="-72" rx="51.19" ry="18"/>
<text text-anchor="middle" x="292.73" y="-68.3" font-family="Times New Roman,serif" font-size="14.00">With Data?</text>
</g>
<!-- 0&#45;&gt;3 -->
<g id="edge3" class="edge">
<title>0&#45;&gt;3</title>
<path fill="none" stroke="black" d="M205.41,-72C214.18,-72 222.85,-72 231.12,-72"/>
<polygon fill="black" stroke="black" points="231.37,-75.5 241.37,-72 231.37,-68.5 231.37,-75.5"/>
</g>
<!-- 5 -->
<!-- name: &quot;Max Slots&quot;, typeName: &quot;&quot;, id: 5, branchId: 0, recurseId: &#45;1, attributes: 0, notes: &quot;&quot; -->
<g id="node6" class="node">
<title>5</title>
<ellipse fill="none" stroke="black" cx="292.73" cy="-18" rx="48.19" ry="18"/>
<text text-anchor="middle" x="292.73" y="-14.3" font-family="Times New Roman,serif" font-size="14.00">Max Slots</text>
</g>
<!-- 0&#45;&gt;5 -->
<g id="edge5" class="edge">
<title>0&#45;&gt;5</title>
<path fill="none" stroke="black" d="M157.07,-56.67C184.51,-48.79 217.67,-39.27 244.21,-31.64"/>
<polygon fill="black" stroke="black" points="245.39,-34.95 254.04,-28.82 243.46,-28.22 245.39,-34.95"/>
</g>
<!-- 2 -->
<!-- name: &quot;BlockPos&quot;, typeName: &quot;&quot;, id: 2, branchId: 0, recurseId: &#45;1, attributes: 512, notes: &quot;&quot; -->
<g id="node3" class="node">
<title>2</title>
<ellipse fill="none" stroke="black" cx="426.22" cy="-126" rx="46.29" ry="18"/>
<text text-anchor="middle" x="426.22" y="-122.3" font-family="Times New Roman,serif" font-size="14.00">BlockPos</text>
</g>
<!-- 1&#45;&gt;2 -->
<g id="edge2" class="edge">
<title>1&#45;&gt;2</title>
<path fill="none" stroke="black" d="M333.18,-126C344.64,-126 357.39,-126 369.65,-126"/>
<polygon fill="black" stroke="black" points="369.79,-129.5 379.79,-126 369.79,-122.5 369.79,-129.5"/>
</g>
<!-- 4 -->
<!-- name: &quot;bool&quot;, typeName: &quot;&quot;, id: 4, branchId: 0, recurseId: &#45;1, attributes: 512, notes: &quot;&quot; -->
<g id="node5" class="node">
<title>4</title>
<ellipse fill="none" stroke="black" cx="426.22" cy="-72" rx="27.1" ry="18"/>
<text text-anchor="middle" x="426.22" y="-68.3" font-family="Times New Roman,serif" font-size="14.00">bool</text>
</g>
<!-- 3&#45;&gt;4 -->
<g id="edge4" class="edge">
<title>3&#45;&gt;4</title>
<path fill="none" stroke="black" d="M344.19,-72C358.96,-72 374.83,-72 388.57,-72"/>
<polygon fill="black" stroke="black" points="388.61,-75.5 398.61,-72 388.61,-68.5 388.61,-75.5"/>
</g>
<!-- 6 -->
<!-- name: &quot;byte&quot;, typeName: &quot;&quot;, id: 6, branchId: 0, recurseId: &#45;1, attributes: 512, notes: &quot;&quot; -->
<g id="node7" class="node">
<title>6</title>
<ellipse fill="none" stroke="black" cx="426.22" cy="-18" rx="27" ry="18"/>
<text text-anchor="middle" x="426.22" y="-14.3" font-family="Times New Roman,serif" font-size="14.00">byte</text>
</g>
<!-- 5&#45;&gt;6 -->
<g id="edge6" class="edge">
<title>5&#45;&gt;6</title>
<path fill="none" stroke="black" d="M340.83,-18C356.6,-18 373.94,-18 388.77,-18"/>
<polygon fill="black" stroke="black" points="389.07,-21.5 399.07,-18 389.07,-14.5 389.07,-21.5"/>
</g>
</g>
</svg>
