<?xml version="1.0" encoding="UTF-8" standalone="no"?>
<!DOCTYPE svg PUBLIC "-//W3C//DTD SVG 1.1//EN"
 "http://www.w3.org/Graphics/SVG/1.1/DTD/svg11.dtd">
<!-- Generated by graphviz version 14.1.5 (20260411.2331)
 -->
<!-- Title: BlockCommandData Pages: 1 -->
<svg width="770pt" height="314pt"
 viewBox="0.00 0.00 770.00 314.00" xmlns="http://www.w3.org/2000/svg" xmlns:xlink="http://www.w3.org/1999/xlink">
<g id="graph0" class="graph" transform="scale(1 1) rotate(0) translate(4 310)">
<title>BlockCommandData</title>
<polygon fill="white" stroke="none" points="-4,4 -4,-310 766.43,-310 766.43,4 -4,4"/>
<!-- 0 -->
<!-- name: &quot;BlockCommandData&quot;, typeName: &quot;&quot;, id: 0, branchId: 0, recurseId: &#45;1, attributes: 0, notes: &quot;&quot; -->
<g id="node1" class="node">
<title>0</title>
<ellipse fill="none" stroke="black" cx="89.74" cy="-99" rx="89.74" ry="18"/>
<text xml:space="preserve" text-anchor="middle" x="89.74" y="-93.95" font-family="Times New Roman,serif" font-size="14.00">BlockCommandData</text>
</g>
<!-- 1 -->
<!-- name: &quot;Block Position&quot;, typeName: &quot;&quot;, id: 1, branchId: 0, recurseId: &#45;1, attributes: 0, notes: &quot;&quot; -->
<g id="node2" class="node">
<title>1</title>
<ellipse fill="none" stroke="black" cx="314.94" cy="-207" rx="65.68" ry="18"/>
<text xml:space="preserve" text-anchor="middle" x="314.94" y="-201.95" font-family="Times New Roman,serif" font-size="14.00">Block Position</text>
</g>
<!-- 0&#45;&gt;1 -->
<g id="edge1" class="edge">
<title>0&#45;&gt;1</title>
<path fill="none" stroke="black" d="M125.61,-115.88C164.83,-134.85 228.56,-165.69 270.86,-186.16"/>
<polygon fill="black" stroke="black" points="269.23,-189.26 279.76,-190.46 272.28,-182.96 269.23,-189.26"/>
</g>
<!-- 8 -->
<!-- name: &quot;Command Block Mode&quot;, typeName: &quot;&quot;, id: 8, branchId: 0, recurseId: &#45;1, attributes: 0, notes: &quot;&quot; -->
<g id="node9" class="node">
<title>8</title>
<ellipse fill="none" stroke="black" cx="314.94" cy="-126" rx="99.46" ry="18"/>
<text xml:space="preserve" text-anchor="middle" x="314.94" y="-120.95" font-family="Times New Roman,serif" font-size="14.00">Command Block Mode</text>
</g>
<!-- 0&#45;&gt;8 -->
<g id="edge8" class="edge">
<title>0&#45;&gt;8</title>
<path fill="none" stroke="black" d="M167.55,-108.29C184.41,-110.33 202.45,-112.51 219.9,-114.62"/>
<polygon fill="black" stroke="black" points="219.41,-118.09 229.76,-115.82 220.25,-111.14 219.41,-118.09"/>
</g>
<!-- 10 -->
<!-- name: &quot;Redstone Mode&quot;, typeName: &quot;&quot;, id: 10, branchId: 0, recurseId: &#45;1, attributes: 0, notes: &quot;&quot; -->
<g id="node11" class="node">
<title>10</title>
<ellipse fill="none" stroke="black" cx="520.17" cy="-76" rx="69.78" ry="18"/>
<text xml:space="preserve" text-anchor="middle" x="520.17" y="-70.95" font-family="Times New Roman,serif" font-size="14.00">Redstone Mode</text>
</g>
<!-- 0&#45;&gt;10 -->
<g id="edge10" class="edge">
<title>0&#45;&gt;10</title>
<path fill="none" stroke="black" d="M176.92,-94.37C253.85,-90.24 365.59,-84.25 440.23,-80.24"/>
<polygon fill="black" stroke="black" points="440.11,-83.75 449.91,-79.72 439.74,-76.76 440.11,-83.75"/>
</g>
<!-- 12 -->
<!-- name: &quot;Is Conditional&quot;, typeName: &quot;&quot;, id: 12, branchId: 0, recurseId: &#45;1, attributes: 0, notes: &quot;&quot; -->
<g id="node13" class="node">
<title>12</title>
<ellipse fill="none" stroke="black" cx="314.94" cy="-22" rx="63.63" ry="18"/>
<text xml:space="preserve" text-anchor="middle" x="314.94" y="-16.95" font-family="Times New Roman,serif" font-size="14.00">Is Conditional</text>
</g>
<!-- 0&#45;&gt;12 -->
<g id="edge12" class="edge">
<title>0&#45;&gt;12</title>
<path fill="none" stroke="black" d="M136.44,-83.23C173.12,-70.58 224.6,-52.82 262.68,-39.68"/>
<polygon fill="black" stroke="black" points="263.79,-43 272.11,-36.43 261.51,-36.38 263.79,-43"/>
</g>
<!-- 2 -->
<!-- name: &quot;X&quot;, typeName: &quot;&quot;, id: 2, branchId: 0, recurseId: &#45;1, attributes: 0, notes: &quot;&quot; -->
<g id="node3" class="node">
<title>2</title>
<ellipse fill="none" stroke="black" cx="520.17" cy="-288" rx="27" ry="18"/>
<text xml:space="preserve" text-anchor="middle" x="520.17" y="-282.95" font-family="Times New Roman,serif" font-size="14.00">X</text>
</g>
<!-- 1&#45;&gt;2 -->
<g id="edge2" class="edge">
<title>1&#45;&gt;2</title>
<path fill="none" stroke="black" d="M353,-221.98C379.99,-232.86 417.43,-247.91 450.4,-261 461.84,-265.54 474.37,-270.48 485.57,-274.87"/>
<polygon fill="black" stroke="black" points="484.23,-278.1 494.82,-278.49 486.79,-271.59 484.23,-278.1"/>
</g>
<!-- 4 -->
<!-- name: &quot;Y&quot;, typeName: &quot;&quot;, id: 4, branchId: 0, recurseId: &#45;1, attributes: 0, notes: &quot;&quot; -->
<g id="node5" class="node">
<title>4</title>
<ellipse fill="none" stroke="black" cx="520.17" cy="-234" rx="27" ry="18"/>
<text xml:space="preserve" text-anchor="middle" x="520.17" y="-228.95" font-family="Times New Roman,serif" font-size="14.00">Y</text>
</g>
<!-- 1&#45;&gt;4 -->
<g id="edge4" class="edge">
<title>1&#45;&gt;4</title>
<path fill="none" stroke="black" d="M374.72,-214.81C409.39,-219.42 452.21,-225.1 482.19,-229.09"/>
<polygon fill="black" stroke="black" points="481.53,-232.53 491.9,-230.38 482.45,-225.59 481.53,-232.53"/>
</g>
<!-- 6 -->
<!-- name: &quot;Z&quot;, typeName: &quot;&quot;, id: 6, branchId: 0, recurseId: &#45;1, attributes: 0, notes: &quot;&quot; -->
<g id="node7" class="node">
<title>6</title>
<ellipse fill="none" stroke="black" cx="520.17" cy="-180" rx="27" ry="18"/>
<text xml:space="preserve" text-anchor="middle" x="520.17" y="-174.95" font-family="Times New Roman,serif" font-size="14.00">Z</text>
</g>
<!-- 1&#45;&gt;6 -->
<g id="edge6" class="edge">
<title>1&#45;&gt;6</title>
<path fill="none" stroke="black" d="M374.72,-199.19C409.39,-194.58 452.21,-188.9 482.19,-184.91"/>
<polygon fill="black" stroke="black" points="482.45,-188.41 491.9,-183.62 481.53,-181.47 482.45,-188.41"/>
</g>
<!-- 3 -->
<!-- name: &quot;varint&quot;, typeName: &quot;&quot;, id: 3, branchId: 0, recurseId: &#45;1, attributes: 512, notes: &quot;&quot; -->
<g id="node4" class="node">
<title>3</title>
<ellipse fill="none" stroke="black" cx="694.19" cy="-288" rx="32.41" ry="18"/>
<text xml:space="preserve" text-anchor="middle" x="694.19" y="-282.95" font-family="Times New Roman,serif" font-size="14.00">varint</text>
</g>
<!-- 2&#45;&gt;3 -->
<g id="edge3" class="edge">
<title>2&#45;&gt;3</title>
<path fill="none" stroke="black" d="M547.3,-288C574.59,-288 617.84,-288 650.18,-288"/>
<polygon fill="black" stroke="black" points="650.04,-291.5 660.04,-288 650.04,-284.5 650.04,-291.5"/>
</g>
<!-- 5 -->
<!-- name: &quot;varint&quot;, typeName: &quot;&quot;, id: 5, branchId: 0, recurseId: &#45;1, attributes: 512, notes: &quot;&quot; -->
<g id="node6" class="node">
<title>5</title>
<ellipse fill="none" stroke="black" cx="694.19" cy="-234" rx="32.41" ry="18"/>
<text xml:space="preserve" text-anchor="middle" x="694.19" y="-228.95" font-family="Times New Roman,serif" font-size="14.00">varint</text>
</g>
<!-- 4&#45;&gt;5 -->
<g id="edge5" class="edge">
<title>4&#45;&gt;5</title>
<path fill="none" stroke="black" d="M547.3,-234C574.59,-234 617.84,-234 650.18,-234"/>
<polygon fill="black" stroke="black" points="650.04,-237.5 660.04,-234 650.04,-230.5 650.04,-237.5"/>
</g>
<!-- 7 -->
<!-- name: &quot;varint&quot;, typeName: &quot;&quot;, id: 7, branchId: 0, recurseId: &#45;1, attributes: 512, notes: &quot;&quot; -->
<g id="node8" class="node">
<title>7</title>
<ellipse fill="none" stroke="black" cx="694.19" cy="-180" rx="32.41" ry="18"/>
<text xml:space="preserve" text-anchor="middle" x="694.19" y="-174.95" font-family="Times New Roman,serif" font-size="14.00">varint</text>
</g>
<!-- 6&#45;&gt;7 -->
<g id="edge7" class="edge">
<title>6&#45;&gt;7</title>
<path fill="none" stroke="black" d="M547.3,-180C574.59,-180 617.84,-180 650.18,-180"/>
<polygon fill="black" stroke="black" points="650.04,-183.5 660.04,-180 650.04,-176.5 650.04,-183.5"/>
</g>
<!-- 9 -->
<!-- name: &quot;unsigned varint&quot;, typeName: &quot;&quot;, id: 9, branchId: 0, recurseId: &#45;1, attributes: 512, notes: &quot;&quot; -->
<g id="node10" class="node">
<title>9</title>
<ellipse fill="none" stroke="black" cx="694.19" cy="-126" rx="68.24" ry="18"/>
<text xml:space="preserve" text-anchor="middle" x="694.19" y="-120.95" font-family="Times New Roman,serif" font-size="14.00">unsigned varint</text>
</g>
<!-- 8&#45;&gt;9 -->
<g id="edge9" class="edge">
<title>8&#45;&gt;9</title>
<path fill="none" stroke="black" d="M414.56,-126C476.78,-126 556.07,-126 614.14,-126"/>
<polygon fill="black" stroke="black" points="613.95,-129.5 623.95,-126 613.95,-122.5 613.95,-129.5"/>
</g>
<!-- 11 -->
<!-- name: &quot;bool&quot;, typeName: &quot;&quot;, id: 11, branchId: 0, recurseId: &#45;1, attributes: 512, notes: &quot;&quot; -->
<g id="node12" class="node">
<title>11</title>
<ellipse fill="none" stroke="black" cx="694.19" cy="-72" rx="27.3" ry="18"/>
<text xml:space="preserve" text-anchor="middle" x="694.19" y="-66.95" font-family="Times New Roman,serif" font-size="14.00">bool</text>
</g>
<!-- 10&#45;&gt;11 -->
<g id="edge11" class="edge">
<title>10&#45;&gt;11</title>
<path fill="none" stroke="black" d="M590.15,-74.4C612.44,-73.88 636.32,-73.32 655.48,-72.88"/>
<polygon fill="black" stroke="black" points="655.31,-76.38 665.22,-72.65 655.15,-69.38 655.31,-76.38"/>
</g>
<!-- 13 -->
<!-- name: &quot;bool&quot;, typeName: &quot;&quot;, id: 13, branchId: 0, recurseId: &#45;1, attributes: 512, notes: &quot;&quot; -->
<g id="node14" class="node">
<title>13</title>
<ellipse fill="none" stroke="black" cx="694.19" cy="-18" rx="27.3" ry="18"/>
<text xml:space="preserve" text-anchor="middle" x="694.19" y="-12.95" font-family="Times New Roman,serif" font-size="14.00">bool</text>
</g>
<!-- 12&#45;&gt;13 -->
<g id="edge13" class="edge">
<title>12&#45;&gt;13</title>
<path fill="none" stroke="black" d="M378.65,-21.33C457.55,-20.5 590.54,-19.09 655.37,-18.4"/>
<polygon fill="black" stroke="black" points="655.18,-21.9 665.14,-18.3 655.1,-14.9 655.18,-21.9"/>
</g>
</g>
</svg>
