<?xml version="1.0" encoding="UTF-8" standalone="no"?>
<!DOCTYPE svg PUBLIC "-//W3C//DTD SVG 1.1//EN"
 "http://www.w3.org/Graphics/SVG/1.1/DTD/svg11.dtd">
<!-- Generated by graphviz version 13.1.2 (20250808.2320)
 -->
<!-- Title: BlockActorDataPacket Pages: 1 -->
<svg width="641pt" height="206pt"
 viewBox="0.00 0.00 641.00 206.00" xmlns="http://www.w3.org/2000/svg" xmlns:xlink="http://www.w3.org/1999/xlink">
<g id="graph0" class="graph" transform="scale(1 1) rotate(0) translate(4 202)">
<title>BlockActorDataPacket</title>
<polygon fill="white" stroke="none" points="-4,4 -4,-202 636.86,-202 636.86,4 -4,4"/>
<!-- 0 -->
<!-- name: &quot;BlockActorDataPacket&quot;, typeName: &quot;&quot;, id: 0, branchId: 0, recurseId: &#45;1, attributes: 0, notes: &quot;Sends the entire user data compound tag and the block position to the client.&quot; -->
<g id="node1" class="node">
<title>0</title>
<ellipse fill="none" stroke="black" cx="95.88" cy="-72" rx="95.88" ry="18"/>
<text xml:space="preserve" text-anchor="middle" x="95.88" y="-66.95" font-family="Times New Roman,serif" font-size="14.00">BlockActorDataPacket</text>
</g>
<!-- 1 -->
<!-- name: &quot;Block Position&quot;, typeName: &quot;&quot;, id: 1, branchId: 0, recurseId: &#45;1, attributes: 0, notes: &quot;&quot; -->
<g id="node2" class="node">
<title>1</title>
<ellipse fill="none" stroke="black" cx="299.07" cy="-112" rx="65.68" ry="18"/>
<text xml:space="preserve" text-anchor="middle" x="299.07" y="-106.95" font-family="Times New Roman,serif" font-size="14.00">Block Position</text>
</g>
<!-- 0&#45;&gt;1 -->
<g id="edge1" class="edge">
<title>0&#45;&gt;1</title>
<path fill="none" stroke="black" d="M163.31,-85.21C186.03,-89.72 211.38,-94.77 233.92,-99.25"/>
<polygon fill="black" stroke="black" points="233.09,-102.65 243.58,-101.17 234.46,-95.78 233.09,-102.65"/>
</g>
<!-- 8 -->
<!-- name: &quot;Actor Data Tags&quot;, typeName: &quot;&quot;, id: 8, branchId: 0, recurseId: &#45;1, attributes: 0, notes: &quot;&quot; -->
<g id="node9" class="node">
<title>8</title>
<ellipse fill="none" stroke="black" cx="299.07" cy="-45" rx="71.31" ry="18"/>
<text xml:space="preserve" text-anchor="middle" x="299.07" y="-39.95" font-family="Times New Roman,serif" font-size="14.00">Actor Data Tags</text>
</g>
<!-- 0&#45;&gt;8 -->
<g id="edge8" class="edge">
<title>0&#45;&gt;8</title>
<path fill="none" stroke="black" d="M174.95,-61.52C191.2,-59.34 208.27,-57.05 224.35,-54.89"/>
<polygon fill="black" stroke="black" points="224.35,-58.42 233.8,-53.63 223.42,-51.49 224.35,-58.42"/>
</g>
<!-- 2 -->
<!-- name: &quot;X&quot;, typeName: &quot;&quot;, id: 2, branchId: 0, recurseId: &#45;1, attributes: 0, notes: &quot;&quot; -->
<g id="node3" class="node">
<title>2</title>
<ellipse fill="none" stroke="black" cx="433.38" cy="-180" rx="27" ry="18"/>
<text xml:space="preserve" text-anchor="middle" x="433.38" y="-174.95" font-family="Times New Roman,serif" font-size="14.00">X</text>
</g>
<!-- 1&#45;&gt;2 -->
<g id="edge2" class="edge">
<title>1&#45;&gt;2</title>
<path fill="none" stroke="black" d="M331.43,-128.12C352.61,-139 380.44,-153.31 401.52,-164.14"/>
<polygon fill="black" stroke="black" points="399.72,-167.15 410.21,-168.61 402.92,-160.92 399.72,-167.15"/>
</g>
<!-- 4 -->
<!-- name: &quot;Y&quot;, typeName: &quot;&quot;, id: 4, branchId: 0, recurseId: &#45;1, attributes: 0, notes: &quot;&quot; -->
<g id="node5" class="node">
<title>4</title>
<ellipse fill="none" stroke="black" cx="433.38" cy="-126" rx="27" ry="18"/>
<text xml:space="preserve" text-anchor="middle" x="433.38" y="-120.95" font-family="Times New Roman,serif" font-size="14.00">Y</text>
</g>
<!-- 1&#45;&gt;4 -->
<g id="edge4" class="edge">
<title>1&#45;&gt;4</title>
<path fill="none" stroke="black" d="M360.8,-118.43C372.45,-119.66 384.33,-120.92 394.97,-122.04"/>
<polygon fill="black" stroke="black" points="394.57,-125.52 404.88,-123.09 395.3,-118.56 394.57,-125.52"/>
</g>
<!-- 6 -->
<!-- name: &quot;Z&quot;, typeName: &quot;&quot;, id: 6, branchId: 0, recurseId: &#45;1, attributes: 0, notes: &quot;&quot; -->
<g id="node7" class="node">
<title>6</title>
<ellipse fill="none" stroke="black" cx="433.38" cy="-72" rx="27" ry="18"/>
<text xml:space="preserve" text-anchor="middle" x="433.38" y="-66.95" font-family="Times New Roman,serif" font-size="14.00">Z</text>
</g>
<!-- 1&#45;&gt;6 -->
<g id="edge6" class="edge">
<title>1&#45;&gt;6</title>
<path fill="none" stroke="black" d="M344.5,-98.57C361.82,-93.33 381.38,-87.42 397.64,-82.5"/>
<polygon fill="black" stroke="black" points="398.3,-85.96 406.85,-79.72 396.27,-79.26 398.3,-85.96"/>
</g>
<!-- 3 -->
<!-- name: &quot;varint&quot;, typeName: &quot;&quot;, id: 3, branchId: 0, recurseId: &#45;1, attributes: 512, notes: &quot;&quot; -->
<g id="node4" class="node">
<title>3</title>
<ellipse fill="none" stroke="black" cx="564.62" cy="-180" rx="32.41" ry="18"/>
<text xml:space="preserve" text-anchor="middle" x="564.62" y="-174.95" font-family="Times New Roman,serif" font-size="14.00">varint</text>
</g>
<!-- 2&#45;&gt;3 -->
<g id="edge3" class="edge">
<title>2&#45;&gt;3</title>
<path fill="none" stroke="black" d="M460.85,-180C478.13,-180 501.09,-180 520.93,-180"/>
<polygon fill="black" stroke="black" points="520.66,-183.5 530.66,-180 520.66,-176.5 520.66,-183.5"/>
</g>
<!-- 5 -->
<!-- name: &quot;unsigned varint&quot;, typeName: &quot;&quot;, id: 5, branchId: 0, recurseId: &#45;1, attributes: 512, notes: &quot;&quot; -->
<g id="node6" class="node">
<title>5</title>
<ellipse fill="none" stroke="black" cx="564.62" cy="-126" rx="68.24" ry="18"/>
<text xml:space="preserve" text-anchor="middle" x="564.62" y="-120.95" font-family="Times New Roman,serif" font-size="14.00">unsigned varint</text>
</g>
<!-- 4&#45;&gt;5 -->
<g id="edge5" class="edge">
<title>4&#45;&gt;5</title>
<path fill="none" stroke="black" d="M460.85,-126C468.04,-126 476.21,-126 484.72,-126"/>
<polygon fill="black" stroke="black" points="484.56,-129.5 494.56,-126 484.56,-122.5 484.56,-129.5"/>
</g>
<!-- 7 -->
<!-- name: &quot;varint&quot;, typeName: &quot;&quot;, id: 7, branchId: 0, recurseId: &#45;1, attributes: 512, notes: &quot;&quot; -->
<g id="node8" class="node">
<title>7</title>
<ellipse fill="none" stroke="black" cx="564.62" cy="-72" rx="32.41" ry="18"/>
<text xml:space="preserve" text-anchor="middle" x="564.62" y="-66.95" font-family="Times New Roman,serif" font-size="14.00">varint</text>
</g>
<!-- 6&#45;&gt;7 -->
<g id="edge7" class="edge">
<title>6&#45;&gt;7</title>
<path fill="none" stroke="black" d="M460.85,-72C478.13,-72 501.09,-72 520.93,-72"/>
<polygon fill="black" stroke="black" points="520.66,-75.5 530.66,-72 520.66,-68.5 520.66,-75.5"/>
</g>
<!-- 9 -->
<!-- name: &quot;&quot;, typeName: &quot;&quot;, id: 9, branchId: 0, recurseId: &#45;1, attributes: 512, notes: &quot;&quot; -->
<g id="node10" class="node">
<title>9</title>
<ellipse fill="none" stroke="black" cx="564.62" cy="-18" rx="27" ry="18"/>
</g>
<!-- 8&#45;&gt;9 -->
<g id="edge9" class="edge">
<title>8&#45;&gt;9</title>
<path fill="none" stroke="black" d="M365.9,-38.26C416.51,-33.07 484.63,-26.09 526.26,-21.83"/>
<polygon fill="black" stroke="black" points="526.42,-25.33 536.02,-20.83 525.71,-18.37 526.42,-25.33"/>
</g>
</g>
</svg>
