<?xml version="1.0" encoding="UTF-8" standalone="no"?>
<!DOCTYPE svg PUBLIC "-//W3C//DTD SVG 1.1//EN"
 "http://www.w3.org/Graphics/SVG/1.1/DTD/svg11.dtd">
<!-- Generated by graphviz version 12.2.1 (20241206.2353)
 -->
<!-- Title: BlockEventPacket Pages: 1 -->
<svg width="560pt" height="152pt"
 viewBox="0.00 0.00 560.08 152.00" xmlns="http://www.w3.org/2000/svg" xmlns:xlink="http://www.w3.org/1999/xlink">
<g id="graph0" class="graph" transform="scale(1 1) rotate(0) translate(4 148)">
<title>BlockEventPacket</title>
<polygon fill="white" stroke="none" points="-4,4 -4,-148 556.08,-148 556.08,4 -4,4"/>
<!-- 0 -->
<!-- name: &quot;BlockEventPacket&quot;, typeName: &quot;&quot;, id: 0, branchId: 26, recurseId: &#45;1, attributes: 0, notes: &quot;&quot; -->
<g id="node1" class="node">
<title>0</title>
<ellipse fill="none" stroke="black" cx="78.99" cy="-72" rx="78.99" ry="18"/>
<text text-anchor="middle" x="78.99" y="-66.95" font-family="Times New Roman,serif" font-size="14.00">BlockEventPacket</text>
</g>
<!-- 1 -->
<!-- name: &quot;Block Position&quot;, typeName: &quot;NetworkBlockPosition&quot;, id: 1, branchId: 0, recurseId: &#45;1, attributes: 256, notes: &quot;&quot; -->
<g id="node2" class="node">
<title>1</title>
<ellipse fill="none" stroke="black" cx="259.66" cy="-126" rx="65.68" ry="18"/>
<text text-anchor="middle" x="259.66" y="-120.95" font-family="Times New Roman,serif" font-size="14.00">Block Position</text>
</g>
<!-- 0&#45;&gt;1 -->
<g id="edge1" class="edge">
<title>0&#45;&gt;1</title>
<path fill="none" stroke="black" d="M127.87,-86.47C151.18,-93.51 179.32,-102.02 203.52,-109.33"/>
<polygon fill="black" stroke="black" points="202.3,-112.62 212.88,-112.16 204.32,-105.92 202.3,-112.62"/>
</g>
<!-- 3 -->
<!-- name: &quot;Event Type&quot;, typeName: &quot;&quot;, id: 3, branchId: 0, recurseId: &#45;1, attributes: 0, notes: &quot;&quot; -->
<g id="node4" class="node">
<title>3</title>
<ellipse fill="none" stroke="black" cx="259.66" cy="-72" rx="52.89" ry="18"/>
<text text-anchor="middle" x="259.66" y="-66.95" font-family="Times New Roman,serif" font-size="14.00">Event Type</text>
</g>
<!-- 0&#45;&gt;3 -->
<g id="edge3" class="edge">
<title>0&#45;&gt;3</title>
<path fill="none" stroke="black" d="M158.36,-72C170.65,-72 183.22,-72 195.13,-72"/>
<polygon fill="black" stroke="black" points="194.79,-75.5 204.79,-72 194.79,-68.5 194.79,-75.5"/>
</g>
<!-- 5 -->
<!-- name: &quot;Event Value&quot;, typeName: &quot;&quot;, id: 5, branchId: 0, recurseId: &#45;1, attributes: 0, notes: &quot;&quot; -->
<g id="node6" class="node">
<title>5</title>
<ellipse fill="none" stroke="black" cx="259.66" cy="-18" rx="55.45" ry="18"/>
<text text-anchor="middle" x="259.66" y="-12.95" font-family="Times New Roman,serif" font-size="14.00">Event Value</text>
</g>
<!-- 0&#45;&gt;5 -->
<g id="edge5" class="edge">
<title>0&#45;&gt;5</title>
<path fill="none" stroke="black" d="M127.87,-57.53C152.36,-50.13 182.19,-41.11 207.18,-33.56"/>
<polygon fill="black" stroke="black" points="207.91,-36.99 216.47,-30.75 205.89,-30.29 207.91,-36.99"/>
</g>
<!-- 2 -->
<!-- name: &quot;NetworkBlockPosition&quot;, typeName: &quot;&quot;, id: 2, branchId: 0, recurseId: &#45;1, attributes: 512, notes: &quot;&quot; -->
<g id="node3" class="node">
<title>2</title>
<ellipse fill="none" stroke="black" cx="456.71" cy="-126" rx="95.37" ry="18"/>
<text text-anchor="middle" x="456.71" y="-120.95" font-family="Times New Roman,serif" font-size="14.00">NetworkBlockPosition</text>
</g>
<!-- 1&#45;&gt;2 -->
<g id="edge2" class="edge">
<title>1&#45;&gt;2</title>
<path fill="none" stroke="black" d="M325.61,-126C333.46,-126 341.62,-126 349.87,-126"/>
<polygon fill="black" stroke="black" points="349.62,-129.5 359.62,-126 349.62,-122.5 349.62,-129.5"/>
</g>
<!-- 4 -->
<!-- name: &quot;varint&quot;, typeName: &quot;&quot;, id: 4, branchId: 0, recurseId: &#45;1, attributes: 512, notes: &quot;&quot; -->
<g id="node5" class="node">
<title>4</title>
<ellipse fill="none" stroke="black" cx="456.71" cy="-72" rx="32.41" ry="18"/>
<text text-anchor="middle" x="456.71" y="-66.95" font-family="Times New Roman,serif" font-size="14.00">varint</text>
</g>
<!-- 3&#45;&gt;4 -->
<g id="edge4" class="edge">
<title>3&#45;&gt;4</title>
<path fill="none" stroke="black" d="M312.93,-72C344.21,-72 383.47,-72 412.9,-72"/>
<polygon fill="black" stroke="black" points="412.55,-75.5 422.55,-72 412.55,-68.5 412.55,-75.5"/>
</g>
<!-- 6 -->
<!-- name: &quot;varint&quot;, typeName: &quot;&quot;, id: 6, branchId: 0, recurseId: &#45;1, attributes: 512, notes: &quot;&quot; -->
<g id="node7" class="node">
<title>6</title>
<ellipse fill="none" stroke="black" cx="456.71" cy="-18" rx="32.41" ry="18"/>
<text text-anchor="middle" x="456.71" y="-12.95" font-family="Times New Roman,serif" font-size="14.00">varint</text>
</g>
<!-- 5&#45;&gt;6 -->
<g id="edge6" class="edge">
<title>5&#45;&gt;6</title>
<path fill="none" stroke="black" d="M315.51,-18C346.31,-18 384.18,-18 412.8,-18"/>
<polygon fill="black" stroke="black" points="412.54,-21.5 422.54,-18 412.54,-14.5 412.54,-21.5"/>
</g>
</g>
</svg>
