<?xml version="1.0" encoding="UTF-8" standalone="no"?>
<!DOCTYPE svg PUBLIC "-//W3C//DTD SVG 1.1//EN"
 "http://www.w3.org/Graphics/SVG/1.1/DTD/svg11.dtd">
<!-- Generated by graphviz version 11.0.0 (20240428.1522)
 -->
<!-- Title: BlockEventPacket Pages: 1 -->
<svg width="558pt" height="152pt"
 viewBox="0.00 0.00 558.04 152.00" xmlns="http://www.w3.org/2000/svg" xmlns:xlink="http://www.w3.org/1999/xlink">
<g id="graph0" class="graph" transform="scale(1 1) rotate(0) translate(4 148)">
<title>BlockEventPacket</title>
<polygon fill="white" stroke="none" points="-4,4 -4,-148 554.04,-148 554.04,4 -4,4"/>
<!-- 0 -->
<!-- name: &quot;BlockEventPacket&quot;, typeName: &quot;&quot;, id: 0, branchId: 26, recurseId: &#45;1, attributes: 0, notes: &quot;&quot; -->
<g id="node1" class="node">
<title>0</title>
<ellipse fill="none" stroke="black" cx="78.51" cy="-72" rx="78.51" ry="18"/>
<text text-anchor="middle" x="78.51" y="-66.58" font-family="Times New Roman,serif" font-size="14.00">BlockEventPacket</text>
</g>
<!-- 1 -->
<!-- name: &quot;Block Position&quot;, typeName: &quot;NetworkBlockPosition&quot;, id: 1, branchId: 0, recurseId: &#45;1, attributes: 256, notes: &quot;&quot; -->
<g id="node2" class="node">
<title>1</title>
<ellipse fill="none" stroke="black" cx="258.55" cy="-126" rx="65.53" ry="18"/>
<text text-anchor="middle" x="258.55" y="-120.58" font-family="Times New Roman,serif" font-size="14.00">Block Position</text>
</g>
<!-- 0&#45;&gt;1 -->
<g id="edge1" class="edge">
<title>0&#45;&gt;1</title>
<path fill="none" stroke="black" d="M127.22,-86.47C150.45,-93.51 178.49,-102.02 202.6,-109.33"/>
<polygon fill="black" stroke="black" points="201.34,-112.61 211.93,-112.16 203.37,-105.91 201.34,-112.61"/>
</g>
<!-- 3 -->
<!-- name: &quot;Event Type&quot;, typeName: &quot;&quot;, id: 3, branchId: 0, recurseId: &#45;1, attributes: 0, notes: &quot;&quot; -->
<g id="node4" class="node">
<title>3</title>
<ellipse fill="none" stroke="black" cx="258.55" cy="-72" rx="53.56" ry="18"/>
<text text-anchor="middle" x="258.55" y="-66.58" font-family="Times New Roman,serif" font-size="14.00">Event Type</text>
</g>
<!-- 0&#45;&gt;3 -->
<g id="edge3" class="edge">
<title>0&#45;&gt;3</title>
<path fill="none" stroke="black" d="M157.34,-72C169.34,-72 181.62,-72 193.28,-72"/>
<polygon fill="black" stroke="black" points="193.19,-75.5 203.19,-72 193.19,-68.5 193.19,-75.5"/>
</g>
<!-- 5 -->
<!-- name: &quot;Event Value&quot;, typeName: &quot;&quot;, id: 5, branchId: 0, recurseId: &#45;1, attributes: 0, notes: &quot;&quot; -->
<g id="node6" class="node">
<title>5</title>
<ellipse fill="none" stroke="black" cx="258.55" cy="-18" rx="55.06" ry="18"/>
<text text-anchor="middle" x="258.55" y="-12.57" font-family="Times New Roman,serif" font-size="14.00">Event Value</text>
</g>
<!-- 0&#45;&gt;5 -->
<g id="edge5" class="edge">
<title>0&#45;&gt;5</title>
<path fill="none" stroke="black" d="M127.22,-57.53C151.72,-50.1 181.57,-41.04 206.53,-33.48"/>
<polygon fill="black" stroke="black" points="207.25,-36.91 215.8,-30.66 205.22,-30.22 207.25,-36.91"/>
</g>
<!-- 2 -->
<!-- name: &quot;NetworkBlockPosition&quot;, typeName: &quot;&quot;, id: 2, branchId: 0, recurseId: &#45;1, attributes: 512, notes: &quot;&quot; -->
<g id="node3" class="node">
<title>2</title>
<ellipse fill="none" stroke="black" cx="455.06" cy="-126" rx="94.98" ry="18"/>
<text text-anchor="middle" x="455.06" y="-120.58" font-family="Times New Roman,serif" font-size="14.00">NetworkBlockPosition</text>
</g>
<!-- 1&#45;&gt;2 -->
<g id="edge2" class="edge">
<title>1&#45;&gt;2</title>
<path fill="none" stroke="black" d="M324.32,-126C332.15,-126 340.29,-126 348.51,-126"/>
<polygon fill="black" stroke="black" points="348.24,-129.5 358.24,-126 348.24,-122.5 348.24,-129.5"/>
</g>
<!-- 4 -->
<!-- name: &quot;varint&quot;, typeName: &quot;&quot;, id: 4, branchId: 0, recurseId: &#45;1, attributes: 512, notes: &quot;&quot; -->
<g id="node5" class="node">
<title>4</title>
<ellipse fill="none" stroke="black" cx="455.06" cy="-72" rx="31.1" ry="18"/>
<text text-anchor="middle" x="455.06" y="-66.58" font-family="Times New Roman,serif" font-size="14.00">varint</text>
</g>
<!-- 3&#45;&gt;4 -->
<g id="edge4" class="edge">
<title>3&#45;&gt;4</title>
<path fill="none" stroke="black" d="M312.45,-72C343.79,-72 382.96,-72 412.15,-72"/>
<polygon fill="black" stroke="black" points="412.09,-75.5 422.09,-72 412.09,-68.5 412.09,-75.5"/>
</g>
<!-- 6 -->
<!-- name: &quot;varint&quot;, typeName: &quot;&quot;, id: 6, branchId: 0, recurseId: &#45;1, attributes: 512, notes: &quot;&quot; -->
<g id="node7" class="node">
<title>6</title>
<ellipse fill="none" stroke="black" cx="455.06" cy="-18" rx="31.1" ry="18"/>
<text text-anchor="middle" x="455.06" y="-12.57" font-family="Times New Roman,serif" font-size="14.00">varint</text>
</g>
<!-- 5&#45;&gt;6 -->
<g id="edge6" class="edge">
<title>5&#45;&gt;6</title>
<path fill="none" stroke="black" d="M313.99,-18C345.11,-18 383.53,-18 412.26,-18"/>
<polygon fill="black" stroke="black" points="412.02,-21.5 422.02,-18 412.02,-14.5 412.02,-21.5"/>
</g>
</g>
</svg>
