<?xml version="1.0" encoding="UTF-8" standalone="no"?>
<!DOCTYPE svg PUBLIC "-//W3C//DTD SVG 1.1//EN"
 "http://www.w3.org/Graphics/SVG/1.1/DTD/svg11.dtd">
<!-- Generated by graphviz version 12.2.1 (20241206.2353)
 -->
<!-- Title: BlockPos Pages: 1 -->
<svg width="291pt" height="152pt"
 viewBox="0.00 0.00 291.30 152.00" xmlns="http://www.w3.org/2000/svg" xmlns:xlink="http://www.w3.org/1999/xlink">
<g id="graph0" class="graph" transform="scale(1 1) rotate(0) translate(4 148)">
<title>BlockPos</title>
<polygon fill="white" stroke="none" points="-4,4 -4,-148 287.3,-148 287.3,4 -4,4"/>
<!-- 8 -->
<!-- name: &quot;BlockPos&quot;, typeName: &quot;&quot;, id: 8, branchId: 0, recurseId: &#45;1, attributes: 0, notes: &quot;&quot; -->
<g id="node1" class="node">
<title>8</title>
<ellipse fill="none" stroke="black" cx="46.23" cy="-72" rx="46.23" ry="18"/>
<text text-anchor="middle" x="46.23" y="-66.95" font-family="Times New Roman,serif" font-size="14.00">BlockPos</text>
</g>
<!-- 9 -->
<!-- name: &quot;X&quot;, typeName: &quot;&quot;, id: 9, branchId: 0, recurseId: &#45;1, attributes: 0, notes: &quot;&quot; -->
<g id="node2" class="node">
<title>9</title>
<ellipse fill="none" stroke="black" cx="155.47" cy="-126" rx="27" ry="18"/>
<text text-anchor="middle" x="155.47" y="-120.95" font-family="Times New Roman,serif" font-size="14.00">X</text>
</g>
<!-- 8&#45;&gt;9 -->
<g id="edge1" class="edge">
<title>8&#45;&gt;9</title>
<path fill="none" stroke="black" d="M75.69,-86.33C90.41,-93.74 108.4,-102.8 123.47,-110.39"/>
<polygon fill="black" stroke="black" points="121.51,-113.32 132.01,-114.69 124.66,-107.07 121.51,-113.32"/>
</g>
<!-- 11 -->
<!-- name: &quot;Y&quot;, typeName: &quot;&quot;, id: 11, branchId: 0, recurseId: &#45;1, attributes: 0, notes: &quot;&quot; -->
<g id="node4" class="node">
<title>11</title>
<ellipse fill="none" stroke="black" cx="155.47" cy="-72" rx="27" ry="18"/>
<text text-anchor="middle" x="155.47" y="-66.95" font-family="Times New Roman,serif" font-size="14.00">Y</text>
</g>
<!-- 8&#45;&gt;11 -->
<g id="edge3" class="edge">
<title>8&#45;&gt;11</title>
<path fill="none" stroke="black" d="M92.71,-72C100.75,-72 109.03,-72 116.82,-72"/>
<polygon fill="black" stroke="black" points="116.66,-75.5 126.66,-72 116.66,-68.5 116.66,-75.5"/>
</g>
<!-- 13 -->
<!-- name: &quot;Z&quot;, typeName: &quot;&quot;, id: 13, branchId: 0, recurseId: &#45;1, attributes: 0, notes: &quot;&quot; -->
<g id="node6" class="node">
<title>13</title>
<ellipse fill="none" stroke="black" cx="155.47" cy="-18" rx="27" ry="18"/>
<text text-anchor="middle" x="155.47" y="-12.95" font-family="Times New Roman,serif" font-size="14.00">Z</text>
</g>
<!-- 8&#45;&gt;13 -->
<g id="edge5" class="edge">
<title>8&#45;&gt;13</title>
<path fill="none" stroke="black" d="M75.69,-57.67C90.41,-50.26 108.4,-41.2 123.47,-33.61"/>
<polygon fill="black" stroke="black" points="124.66,-36.93 132.01,-29.31 121.51,-30.68 124.66,-36.93"/>
</g>
<!-- 10 -->
<!-- name: &quot;varint&quot;, typeName: &quot;&quot;, id: 10, branchId: 0, recurseId: &#45;1, attributes: 512, notes: &quot;&quot; -->
<g id="node3" class="node">
<title>10</title>
<ellipse fill="none" stroke="black" cx="250.88" cy="-126" rx="32.41" ry="18"/>
<text text-anchor="middle" x="250.88" y="-120.95" font-family="Times New Roman,serif" font-size="14.00">varint</text>
</g>
<!-- 9&#45;&gt;10 -->
<g id="edge2" class="edge">
<title>9&#45;&gt;10</title>
<path fill="none" stroke="black" d="M182.49,-126C189.97,-126 198.35,-126 206.58,-126"/>
<polygon fill="black" stroke="black" points="206.5,-129.5 216.5,-126 206.5,-122.5 206.5,-129.5"/>
</g>
<!-- 12 -->
<!-- name: &quot;varint&quot;, typeName: &quot;&quot;, id: 12, branchId: 0, recurseId: &#45;1, attributes: 512, notes: &quot;&quot; -->
<g id="node5" class="node">
<title>12</title>
<ellipse fill="none" stroke="black" cx="250.88" cy="-72" rx="32.41" ry="18"/>
<text text-anchor="middle" x="250.88" y="-66.95" font-family="Times New Roman,serif" font-size="14.00">varint</text>
</g>
<!-- 11&#45;&gt;12 -->
<g id="edge4" class="edge">
<title>11&#45;&gt;12</title>
<path fill="none" stroke="black" d="M182.49,-72C189.97,-72 198.35,-72 206.58,-72"/>
<polygon fill="black" stroke="black" points="206.5,-75.5 216.5,-72 206.5,-68.5 206.5,-75.5"/>
</g>
<!-- 14 -->
<!-- name: &quot;varint&quot;, typeName: &quot;&quot;, id: 14, branchId: 0, recurseId: &#45;1, attributes: 512, notes: &quot;&quot; -->
<g id="node7" class="node">
<title>14</title>
<ellipse fill="none" stroke="black" cx="250.88" cy="-18" rx="32.41" ry="18"/>
<text text-anchor="middle" x="250.88" y="-12.95" font-family="Times New Roman,serif" font-size="14.00">varint</text>
</g>
<!-- 13&#45;&gt;14 -->
<g id="edge6" class="edge">
<title>13&#45;&gt;14</title>
<path fill="none" stroke="black" d="M182.49,-18C189.97,-18 198.35,-18 206.58,-18"/>
<polygon fill="black" stroke="black" points="206.5,-21.5 216.5,-18 206.5,-14.5 206.5,-21.5"/>
</g>
</g>
</svg>
