<?xml version="1.0" encoding="UTF-8" standalone="no"?>
<!DOCTYPE svg PUBLIC "-//W3C//DTD SVG 1.1//EN"
 "http://www.w3.org/Graphics/SVG/1.1/DTD/svg11.dtd">
<!-- Generated by graphviz version 13.1.2 (20250808.2320)
 -->
<!-- Title: BlockPickRequestPacket Pages: 1 -->
<svg width="609pt" height="260pt"
 viewBox="0.00 0.00 609.00 260.00" xmlns="http://www.w3.org/2000/svg" xmlns:xlink="http://www.w3.org/1999/xlink">
<g id="graph0" class="graph" transform="scale(1 1) rotate(0) translate(4 256)">
<title>BlockPickRequestPacket</title>
<polygon fill="white" stroke="none" points="-4,4 -4,-256 605.13,-256 605.13,4 -4,4"/>
<!-- 0 -->
<!-- name: &quot;BlockPickRequestPacket&quot;, typeName: &quot;&quot;, id: 0, branchId: 0, recurseId: &#45;1, attributes: 0, notes: &quot;Player picks up a block in the world; client to server.&quot; -->
<g id="node1" class="node">
<title>0</title>
<ellipse fill="none" stroke="black" cx="103.56" cy="-72" rx="103.56" ry="18"/>
<text xml:space="preserve" text-anchor="middle" x="103.56" y="-66.95" font-family="Times New Roman,serif" font-size="14.00">BlockPickRequestPacket</text>
</g>
<!-- 1 -->
<!-- name: &quot;Position&quot;, typeName: &quot;&quot;, id: 1, branchId: 0, recurseId: &#45;1, attributes: 0, notes: &quot;&quot; -->
<g id="node2" class="node">
<title>1</title>
<ellipse fill="none" stroke="black" cx="296.51" cy="-153" rx="41.12" ry="18"/>
<text xml:space="preserve" text-anchor="middle" x="296.51" y="-147.95" font-family="Times New Roman,serif" font-size="14.00">Position</text>
</g>
<!-- 0&#45;&gt;1 -->
<g id="edge1" class="edge">
<title>0&#45;&gt;1</title>
<path fill="none" stroke="black" d="M144.59,-88.98C177.21,-102.82 223.04,-122.26 255.62,-136.08"/>
<polygon fill="black" stroke="black" points="254.16,-139.26 264.73,-139.95 256.9,-132.82 254.16,-139.26"/>
</g>
<!-- 8 -->
<!-- name: &quot;With Data?&quot;, typeName: &quot;&quot;, id: 8, branchId: 0, recurseId: &#45;1, attributes: 0, notes: &quot;&quot; -->
<g id="node9" class="node">
<title>8</title>
<ellipse fill="none" stroke="black" cx="296.51" cy="-72" rx="53.4" ry="18"/>
<text xml:space="preserve" text-anchor="middle" x="296.51" y="-66.95" font-family="Times New Roman,serif" font-size="14.00">With Data?</text>
</g>
<!-- 0&#45;&gt;8 -->
<g id="edge8" class="edge">
<title>0&#45;&gt;8</title>
<path fill="none" stroke="black" d="M207.58,-72C215.65,-72 223.65,-72 231.34,-72"/>
<polygon fill="black" stroke="black" points="231.24,-75.5 241.24,-72 231.24,-68.5 231.24,-75.5"/>
</g>
<!-- 10 -->
<!-- name: &quot;Max Slots&quot;, typeName: &quot;&quot;, id: 10, branchId: 0, recurseId: &#45;1, attributes: 0, notes: &quot;&quot; -->
<g id="node11" class="node">
<title>10</title>
<ellipse fill="none" stroke="black" cx="296.51" cy="-18" rx="49.3" ry="18"/>
<text xml:space="preserve" text-anchor="middle" x="296.51" y="-12.95" font-family="Times New Roman,serif" font-size="14.00">Max Slots</text>
</g>
<!-- 0&#45;&gt;10 -->
<g id="edge10" class="edge">
<title>0&#45;&gt;10</title>
<path fill="none" stroke="black" d="M159.53,-56.45C186.72,-48.77 219.28,-39.56 245.73,-32.08"/>
<polygon fill="black" stroke="black" points="246.53,-35.49 255.2,-29.4 244.62,-28.75 246.53,-35.49"/>
</g>
<!-- 2 -->
<!-- name: &quot;X&quot;, typeName: &quot;&quot;, id: 2, branchId: 0, recurseId: &#45;1, attributes: 0, notes: &quot;&quot; -->
<g id="node3" class="node">
<title>2</title>
<ellipse fill="none" stroke="black" cx="412.91" cy="-234" rx="27" ry="18"/>
<text xml:space="preserve" text-anchor="middle" x="412.91" y="-228.95" font-family="Times New Roman,serif" font-size="14.00">X</text>
</g>
<!-- 1&#45;&gt;2 -->
<g id="edge2" class="edge">
<title>1&#45;&gt;2</title>
<path fill="none" stroke="black" d="M319.3,-168.43C337.79,-181.52 364.43,-200.39 384.4,-214.52"/>
<polygon fill="black" stroke="black" points="382.18,-217.24 392.36,-220.16 386.22,-211.53 382.18,-217.24"/>
</g>
<!-- 4 -->
<!-- name: &quot;Y&quot;, typeName: &quot;&quot;, id: 4, branchId: 0, recurseId: &#45;1, attributes: 0, notes: &quot;&quot; -->
<g id="node5" class="node">
<title>4</title>
<ellipse fill="none" stroke="black" cx="412.91" cy="-180" rx="27" ry="18"/>
<text xml:space="preserve" text-anchor="middle" x="412.91" y="-174.95" font-family="Times New Roman,serif" font-size="14.00">Y</text>
</g>
<!-- 1&#45;&gt;4 -->
<g id="edge4" class="edge">
<title>1&#45;&gt;4</title>
<path fill="none" stroke="black" d="M333.39,-161.47C347.01,-164.68 362.51,-168.34 376.12,-171.55"/>
<polygon fill="black" stroke="black" points="375.01,-174.89 385.55,-173.78 376.62,-168.07 375.01,-174.89"/>
</g>
<!-- 6 -->
<!-- name: &quot;Z&quot;, typeName: &quot;&quot;, id: 6, branchId: 0, recurseId: &#45;1, attributes: 0, notes: &quot;&quot; -->
<g id="node7" class="node">
<title>6</title>
<ellipse fill="none" stroke="black" cx="412.91" cy="-126" rx="27" ry="18"/>
<text xml:space="preserve" text-anchor="middle" x="412.91" y="-120.95" font-family="Times New Roman,serif" font-size="14.00">Z</text>
</g>
<!-- 1&#45;&gt;6 -->
<g id="edge6" class="edge">
<title>1&#45;&gt;6</title>
<path fill="none" stroke="black" d="M333.39,-144.53C347.01,-141.32 362.51,-137.66 376.12,-134.45"/>
<polygon fill="black" stroke="black" points="376.62,-137.93 385.55,-132.22 375.01,-131.11 376.62,-137.93"/>
</g>
<!-- 3 -->
<!-- name: &quot;varint&quot;, typeName: &quot;&quot;, id: 3, branchId: 0, recurseId: &#45;1, attributes: 512, notes: &quot;&quot; -->
<g id="node4" class="node">
<title>3</title>
<ellipse fill="none" stroke="black" cx="538.52" cy="-234" rx="32.41" ry="18"/>
<text xml:space="preserve" text-anchor="middle" x="538.52" y="-228.95" font-family="Times New Roman,serif" font-size="14.00">varint</text>
</g>
<!-- 2&#45;&gt;3 -->
<g id="edge3" class="edge">
<title>2&#45;&gt;3</title>
<path fill="none" stroke="black" d="M440.12,-234C455.82,-234 476.16,-234 494.19,-234"/>
<polygon fill="black" stroke="black" points="494.12,-237.5 504.12,-234 494.12,-230.5 494.12,-237.5"/>
</g>
<!-- 5 -->
<!-- name: &quot;varint&quot;, typeName: &quot;&quot;, id: 5, branchId: 0, recurseId: &#45;1, attributes: 512, notes: &quot;&quot; -->
<g id="node6" class="node">
<title>5</title>
<ellipse fill="none" stroke="black" cx="538.52" cy="-180" rx="32.41" ry="18"/>
<text xml:space="preserve" text-anchor="middle" x="538.52" y="-174.95" font-family="Times New Roman,serif" font-size="14.00">varint</text>
</g>
<!-- 4&#45;&gt;5 -->
<g id="edge5" class="edge">
<title>4&#45;&gt;5</title>
<path fill="none" stroke="black" d="M440.12,-180C455.82,-180 476.16,-180 494.19,-180"/>
<polygon fill="black" stroke="black" points="494.12,-183.5 504.12,-180 494.12,-176.5 494.12,-183.5"/>
</g>
<!-- 7 -->
<!-- name: &quot;varint&quot;, typeName: &quot;&quot;, id: 7, branchId: 0, recurseId: &#45;1, attributes: 512, notes: &quot;&quot; -->
<g id="node8" class="node">
<title>7</title>
<ellipse fill="none" stroke="black" cx="538.52" cy="-126" rx="32.41" ry="18"/>
<text xml:space="preserve" text-anchor="middle" x="538.52" y="-120.95" font-family="Times New Roman,serif" font-size="14.00">varint</text>
</g>
<!-- 6&#45;&gt;7 -->
<g id="edge7" class="edge">
<title>6&#45;&gt;7</title>
<path fill="none" stroke="black" d="M440.12,-126C455.82,-126 476.16,-126 494.19,-126"/>
<polygon fill="black" stroke="black" points="494.12,-129.5 504.12,-126 494.12,-122.5 494.12,-129.5"/>
</g>
<!-- 9 -->
<!-- name: &quot;bool&quot;, typeName: &quot;&quot;, id: 9, branchId: 0, recurseId: &#45;1, attributes: 512, notes: &quot;&quot; -->
<g id="node10" class="node">
<title>9</title>
<ellipse fill="none" stroke="black" cx="538.52" cy="-72" rx="27.3" ry="18"/>
<text xml:space="preserve" text-anchor="middle" x="538.52" y="-66.95" font-family="Times New Roman,serif" font-size="14.00">bool</text>
</g>
<!-- 8&#45;&gt;9 -->
<g id="edge9" class="edge">
<title>8&#45;&gt;9</title>
<path fill="none" stroke="black" d="M350.18,-72C395.3,-72 459.19,-72 499.48,-72"/>
<polygon fill="black" stroke="black" points="499.41,-75.5 509.41,-72 499.41,-68.5 499.41,-75.5"/>
</g>
<!-- 11 -->
<!-- name: &quot;unsigned byte&quot;, typeName: &quot;&quot;, id: 11, branchId: 0, recurseId: &#45;1, attributes: 512, notes: &quot;&quot; -->
<g id="node12" class="node">
<title>11</title>
<ellipse fill="none" stroke="black" cx="538.52" cy="-18" rx="62.61" ry="18"/>
<text xml:space="preserve" text-anchor="middle" x="538.52" y="-12.95" font-family="Times New Roman,serif" font-size="14.00">unsigned byte</text>
</g>
<!-- 10&#45;&gt;11 -->
<g id="edge11" class="edge">
<title>10&#45;&gt;11</title>
<path fill="none" stroke="black" d="M346.08,-18C380.11,-18 426.2,-18 464.63,-18"/>
<polygon fill="black" stroke="black" points="464.25,-21.5 474.25,-18 464.25,-14.5 464.25,-21.5"/>
</g>
</g>
</svg>
