<?xml version="1.0" encoding="UTF-8" standalone="no"?>
<!DOCTYPE svg PUBLIC "-//W3C//DTD SVG 1.1//EN"
 "http://www.w3.org/Graphics/SVG/1.1/DTD/svg11.dtd">
<!-- Generated by graphviz version 14.1.1 (20251213.1925)
 -->
<!-- Title: BookEditAction::DeletePage Pages: 1 -->
<svg width="486pt" height="44pt"
 viewBox="0.00 0.00 486.00 44.00" xmlns="http://www.w3.org/2000/svg" xmlns:xlink="http://www.w3.org/1999/xlink">
<g id="graph0" class="graph" transform="scale(1 1) rotate(0) translate(4 40)">
<title>BookEditAction::DeletePage</title>
<polygon fill="white" stroke="none" points="-4,4 -4,-40 482.38,-40 482.38,4 -4,4"/>
<!-- 0 -->
<!-- name: &quot;BookEditAction::DeletePage&quot;, typeName: &quot;&quot;, id: 0, branchId: 0, recurseId: &#45;1, attributes: 0, notes: &quot;&quot; -->
<g id="node1" class="node">
<title>0</title>
<ellipse fill="none" stroke="black" cx="118.4" cy="-18" rx="118.4" ry="18"/>
<text xml:space="preserve" text-anchor="middle" x="118.4" y="-12.95" font-family="Times New Roman,serif" font-size="14.00">BookEditAction::DeletePage</text>
</g>
<!-- 1 -->
<!-- name: &quot;Page Index&quot;, typeName: &quot;&quot;, id: 1, branchId: 0, recurseId: &#45;1, attributes: 0, notes: &quot;&quot; -->
<g id="node2" class="node">
<title>1</title>
<ellipse fill="none" stroke="black" cx="325.17" cy="-18" rx="52.38" ry="18"/>
<text xml:space="preserve" text-anchor="middle" x="325.17" y="-12.95" font-family="Times New Roman,serif" font-size="14.00">Page Index</text>
</g>
<!-- 0&#45;&gt;1 -->
<g id="edge1" class="edge">
<title>0&#45;&gt;1</title>
<path fill="none" stroke="black" d="M237.03,-18C245.2,-18 253.24,-18 260.93,-18"/>
<polygon fill="black" stroke="black" points="260.79,-21.5 270.79,-18 260.79,-14.5 260.79,-21.5"/>
</g>
<!-- 2 -->
<!-- name: &quot;varint&quot;, typeName: &quot;&quot;, id: 2, branchId: 0, recurseId: &#45;1, attributes: 512, notes: &quot;&quot; -->
<g id="node3" class="node">
<title>2</title>
<ellipse fill="none" stroke="black" cx="445.96" cy="-18" rx="32.41" ry="18"/>
<text xml:space="preserve" text-anchor="middle" x="445.96" y="-12.95" font-family="Times New Roman,serif" font-size="14.00">varint</text>
</g>
<!-- 1&#45;&gt;2 -->
<g id="edge2" class="edge">
<title>1&#45;&gt;2</title>
<path fill="none" stroke="black" d="M377.93,-18C385.9,-18 394.06,-18 401.82,-18"/>
<polygon fill="black" stroke="black" points="401.69,-21.5 411.69,-18 401.69,-14.5 401.69,-21.5"/>
</g>
</g>
</svg>
