<?xml version="1.0" encoding="UTF-8" standalone="no"?>
<!DOCTYPE svg PUBLIC "-//W3C//DTD SVG 1.1//EN"
 "http://www.w3.org/Graphics/SVG/1.1/DTD/svg11.dtd">
<!-- Generated by graphviz version 14.1.1 (20251213.1925)
 -->
<!-- Title: BookEditAction::Finalize Pages: 1 -->
<svg width="430pt" height="152pt"
 viewBox="0.00 0.00 430.00 152.00" xmlns="http://www.w3.org/2000/svg" xmlns:xlink="http://www.w3.org/1999/xlink">
<g id="graph0" class="graph" transform="scale(1 1) rotate(0) translate(4 148)">
<title>BookEditAction::Finalize</title>
<polygon fill="white" stroke="none" points="-4,4 -4,-148 426.08,-148 426.08,4 -4,4"/>
<!-- 0 -->
<!-- name: &quot;BookEditAction::Finalize&quot;, typeName: &quot;&quot;, id: 0, branchId: 0, recurseId: &#45;1, attributes: 0, notes: &quot;&quot; -->
<g id="node1" class="node">
<title>0</title>
<ellipse fill="none" stroke="black" cx="106.11" cy="-72" rx="106.11" ry="18"/>
<text xml:space="preserve" text-anchor="middle" x="106.11" y="-66.95" font-family="Times New Roman,serif" font-size="14.00">BookEditAction::Finalize</text>
</g>
<!-- 1 -->
<!-- name: &quot;Title&quot;, typeName: &quot;&quot;, id: 1, branchId: 0, recurseId: &#45;1, attributes: 0, notes: &quot;&quot; -->
<g id="node2" class="node">
<title>1</title>
<ellipse fill="none" stroke="black" cx="285.25" cy="-126" rx="28.32" ry="18"/>
<text xml:space="preserve" text-anchor="middle" x="285.25" y="-120.95" font-family="Times New Roman,serif" font-size="14.00">Title</text>
</g>
<!-- 0&#45;&gt;1 -->
<g id="edge1" class="edge">
<title>0&#45;&gt;1</title>
<path fill="none" stroke="black" d="M159.3,-87.91C188.11,-96.69 223.12,-107.36 248.75,-115.18"/>
<polygon fill="black" stroke="black" points="247.42,-118.43 258.01,-118 249.46,-111.74 247.42,-118.43"/>
</g>
<!-- 3 -->
<!-- name: &quot;Author&quot;, typeName: &quot;&quot;, id: 3, branchId: 0, recurseId: &#45;1, attributes: 0, notes: &quot;&quot; -->
<g id="node4" class="node">
<title>3</title>
<ellipse fill="none" stroke="black" cx="285.25" cy="-72" rx="37.02" ry="18"/>
<text xml:space="preserve" text-anchor="middle" x="285.25" y="-66.95" font-family="Times New Roman,serif" font-size="14.00">Author</text>
</g>
<!-- 0&#45;&gt;3 -->
<g id="edge3" class="edge">
<title>0&#45;&gt;3</title>
<path fill="none" stroke="black" d="M212.71,-72C220.98,-72 229.04,-72 236.59,-72"/>
<polygon fill="black" stroke="black" points="236.48,-75.5 246.48,-72 236.48,-68.5 236.48,-75.5"/>
</g>
<!-- 5 -->
<!-- name: &quot;XUID&quot;, typeName: &quot;&quot;, id: 5, branchId: 0, recurseId: &#45;1, attributes: 0, notes: &quot;&quot; -->
<g id="node6" class="node">
<title>5</title>
<ellipse fill="none" stroke="black" cx="285.25" cy="-18" rx="33.95" ry="18"/>
<text xml:space="preserve" text-anchor="middle" x="285.25" y="-12.95" font-family="Times New Roman,serif" font-size="14.00">XUID</text>
</g>
<!-- 0&#45;&gt;5 -->
<g id="edge5" class="edge">
<title>0&#45;&gt;5</title>
<path fill="none" stroke="black" d="M159.3,-56.09C186.47,-47.81 219.17,-37.84 244.3,-30.18"/>
<polygon fill="black" stroke="black" points="245.27,-33.54 253.82,-27.28 243.23,-26.85 245.27,-33.54"/>
</g>
<!-- 2 -->
<!-- name: &quot;string&quot;, typeName: &quot;&quot;, id: 2, branchId: 0, recurseId: &#45;1, attributes: 512, notes: &quot;&quot; -->
<g id="node3" class="node">
<title>2</title>
<ellipse fill="none" stroke="black" cx="390.17" cy="-126" rx="31.9" ry="18"/>
<text xml:space="preserve" text-anchor="middle" x="390.17" y="-120.95" font-family="Times New Roman,serif" font-size="14.00">string</text>
</g>
<!-- 1&#45;&gt;2 -->
<g id="edge2" class="edge">
<title>1&#45;&gt;2</title>
<path fill="none" stroke="black" d="M313.83,-126C323.91,-126 335.55,-126 346.63,-126"/>
<polygon fill="black" stroke="black" points="346.37,-129.5 356.37,-126 346.37,-122.5 346.37,-129.5"/>
</g>
<!-- 4 -->
<!-- name: &quot;string&quot;, typeName: &quot;&quot;, id: 4, branchId: 0, recurseId: &#45;1, attributes: 512, notes: &quot;&quot; -->
<g id="node5" class="node">
<title>4</title>
<ellipse fill="none" stroke="black" cx="390.17" cy="-72" rx="31.9" ry="18"/>
<text xml:space="preserve" text-anchor="middle" x="390.17" y="-66.95" font-family="Times New Roman,serif" font-size="14.00">string</text>
</g>
<!-- 3&#45;&gt;4 -->
<g id="edge4" class="edge">
<title>3&#45;&gt;4</title>
<path fill="none" stroke="black" d="M322.54,-72C330.31,-72 338.6,-72 346.59,-72"/>
<polygon fill="black" stroke="black" points="346.48,-75.5 356.48,-72 346.48,-68.5 346.48,-75.5"/>
</g>
<!-- 6 -->
<!-- name: &quot;string&quot;, typeName: &quot;&quot;, id: 6, branchId: 0, recurseId: &#45;1, attributes: 512, notes: &quot;&quot; -->
<g id="node7" class="node">
<title>6</title>
<ellipse fill="none" stroke="black" cx="390.17" cy="-18" rx="31.9" ry="18"/>
<text xml:space="preserve" text-anchor="middle" x="390.17" y="-12.95" font-family="Times New Roman,serif" font-size="14.00">string</text>
</g>
<!-- 5&#45;&gt;6 -->
<g id="edge6" class="edge">
<title>5&#45;&gt;6</title>
<path fill="none" stroke="black" d="M319.67,-18C328.24,-18 337.57,-18 346.54,-18"/>
<polygon fill="black" stroke="black" points="346.51,-21.5 356.51,-18 346.51,-14.5 346.51,-21.5"/>
</g>
</g>
</svg>
