<?xml version="1.0" encoding="UTF-8" standalone="no"?>
<!DOCTYPE svg PUBLIC "-//W3C//DTD SVG 1.1//EN"
 "http://www.w3.org/Graphics/SVG/1.1/DTD/svg11.dtd">
<!-- Generated by graphviz version 14.1.1 (20251213.1925)
 -->
<!-- Title: BookEditAction::AddPage Pages: 1 -->
<svg width="480pt" height="152pt"
 viewBox="0.00 0.00 480.00 152.00" xmlns="http://www.w3.org/2000/svg" xmlns:xlink="http://www.w3.org/1999/xlink">
<g id="graph0" class="graph" transform="scale(1 1) rotate(0) translate(4 148)">
<title>BookEditAction::AddPage</title>
<polygon fill="white" stroke="none" points="-4,4 -4,-148 476.23,-148 476.23,4 -4,4"/>
<!-- 0 -->
<!-- name: &quot;BookEditAction::AddPage&quot;, typeName: &quot;&quot;, id: 0, branchId: 0, recurseId: &#45;1, attributes: 0, notes: &quot;&quot; -->
<g id="node1" class="node">
<title>0</title>
<ellipse fill="none" stroke="black" cx="110.21" cy="-72" rx="110.21" ry="18"/>
<text xml:space="preserve" text-anchor="middle" x="110.21" y="-66.95" font-family="Times New Roman,serif" font-size="14.00">BookEditAction::AddPage</text>
</g>
<!-- 1 -->
<!-- name: &quot;Page Index&quot;, typeName: &quot;&quot;, id: 1, branchId: 0, recurseId: &#45;1, attributes: 0, notes: &quot;&quot; -->
<g id="node2" class="node">
<title>1</title>
<ellipse fill="none" stroke="black" cx="313.91" cy="-126" rx="52.38" ry="18"/>
<text xml:space="preserve" text-anchor="middle" x="313.91" y="-120.95" font-family="Times New Roman,serif" font-size="14.00">Page Index</text>
</g>
<!-- 0&#45;&gt;1 -->
<g id="edge1" class="edge">
<title>0&#45;&gt;1</title>
<path fill="none" stroke="black" d="M169.28,-87.55C198.25,-95.3 233.01,-104.61 261.07,-112.12"/>
<polygon fill="black" stroke="black" points="259.84,-115.41 270.41,-114.62 261.65,-108.65 259.84,-115.41"/>
</g>
<!-- 3 -->
<!-- name: &quot;Page Text&quot;, typeName: &quot;&quot;, id: 3, branchId: 0, recurseId: &#45;1, attributes: 0, notes: &quot;&quot; -->
<g id="node4" class="node">
<title>3</title>
<ellipse fill="none" stroke="black" cx="313.91" cy="-72" rx="47.26" ry="18"/>
<text xml:space="preserve" text-anchor="middle" x="313.91" y="-66.95" font-family="Times New Roman,serif" font-size="14.00">Page Text</text>
</g>
<!-- 0&#45;&gt;3 -->
<g id="edge3" class="edge">
<title>0&#45;&gt;3</title>
<path fill="none" stroke="black" d="M220.91,-72C232.72,-72 244.36,-72 255.19,-72"/>
<polygon fill="black" stroke="black" points="255.07,-75.5 265.07,-72 255.07,-68.5 255.07,-75.5"/>
</g>
<!-- 5 -->
<!-- name: &quot;Photo Name&quot;, typeName: &quot;&quot;, id: 5, branchId: 0, recurseId: &#45;1, attributes: 0, notes: &quot;&quot; -->
<g id="node6" class="node">
<title>5</title>
<ellipse fill="none" stroke="black" cx="313.91" cy="-18" rx="57.49" ry="18"/>
<text xml:space="preserve" text-anchor="middle" x="313.91" y="-12.95" font-family="Times New Roman,serif" font-size="14.00">Photo Name</text>
</g>
<!-- 0&#45;&gt;5 -->
<g id="edge5" class="edge">
<title>0&#45;&gt;5</title>
<path fill="none" stroke="black" d="M169.28,-56.45C197.31,-48.95 230.74,-40 258.3,-32.62"/>
<polygon fill="black" stroke="black" points="259.11,-36.03 267.87,-30.06 257.3,-29.26 259.11,-36.03"/>
</g>
<!-- 2 -->
<!-- name: &quot;varint&quot;, typeName: &quot;&quot;, id: 2, branchId: 0, recurseId: &#45;1, attributes: 512, notes: &quot;&quot; -->
<g id="node3" class="node">
<title>2</title>
<ellipse fill="none" stroke="black" cx="439.82" cy="-126" rx="32.41" ry="18"/>
<text xml:space="preserve" text-anchor="middle" x="439.82" y="-120.95" font-family="Times New Roman,serif" font-size="14.00">varint</text>
</g>
<!-- 1&#45;&gt;2 -->
<g id="edge2" class="edge">
<title>1&#45;&gt;2</title>
<path fill="none" stroke="black" d="M366.74,-126C376.35,-126 386.29,-126 395.6,-126"/>
<polygon fill="black" stroke="black" points="395.48,-129.5 405.48,-126 395.48,-122.5 395.48,-129.5"/>
</g>
<!-- 4 -->
<!-- name: &quot;string&quot;, typeName: &quot;&quot;, id: 4, branchId: 0, recurseId: &#45;1, attributes: 512, notes: &quot;&quot; -->
<g id="node5" class="node">
<title>4</title>
<ellipse fill="none" stroke="black" cx="439.82" cy="-72" rx="31.9" ry="18"/>
<text xml:space="preserve" text-anchor="middle" x="439.82" y="-66.95" font-family="Times New Roman,serif" font-size="14.00">string</text>
</g>
<!-- 3&#45;&gt;4 -->
<g id="edge4" class="edge">
<title>3&#45;&gt;4</title>
<path fill="none" stroke="black" d="M361.4,-72C372.82,-72 384.98,-72 396.21,-72"/>
<polygon fill="black" stroke="black" points="395.98,-75.5 405.98,-72 395.98,-68.5 395.98,-75.5"/>
</g>
<!-- 6 -->
<!-- name: &quot;string&quot;, typeName: &quot;&quot;, id: 6, branchId: 0, recurseId: &#45;1, attributes: 512, notes: &quot;&quot; -->
<g id="node7" class="node">
<title>6</title>
<ellipse fill="none" stroke="black" cx="439.82" cy="-18" rx="31.9" ry="18"/>
<text xml:space="preserve" text-anchor="middle" x="439.82" y="-12.95" font-family="Times New Roman,serif" font-size="14.00">string</text>
</g>
<!-- 5&#45;&gt;6 -->
<g id="edge6" class="edge">
<title>5&#45;&gt;6</title>
<path fill="none" stroke="black" d="M371.79,-18C379.98,-18 388.3,-18 396.16,-18"/>
<polygon fill="black" stroke="black" points="396.14,-21.5 406.14,-18 396.14,-14.5 396.14,-21.5"/>
</g>
</g>
</svg>
