<?xml version="1.0" encoding="UTF-8" standalone="no"?>
<!DOCTYPE svg PUBLIC "-//W3C//DTD SVG 1.1//EN"
 "http://www.w3.org/Graphics/SVG/1.1/DTD/svg11.dtd">
<!-- Generated by graphviz version 14.1.1 (20251213.1925)
 -->
<!-- Title: BookEditAction::ReplacePage Pages: 1 -->
<svg width="508pt" height="152pt"
 viewBox="0.00 0.00 508.00 152.00" xmlns="http://www.w3.org/2000/svg" xmlns:xlink="http://www.w3.org/1999/xlink">
<g id="graph0" class="graph" transform="scale(1 1) rotate(0) translate(4 148)">
<title>BookEditAction::ReplacePage</title>
<polygon fill="white" stroke="none" points="-4,4 -4,-148 503.87,-148 503.87,4 -4,4"/>
<!-- 0 -->
<!-- name: &quot;BookEditAction::ReplacePage&quot;, typeName: &quot;&quot;, id: 0, branchId: 0, recurseId: &#45;1, attributes: 0, notes: &quot;&quot; -->
<g id="node1" class="node">
<title>0</title>
<ellipse fill="none" stroke="black" cx="124.03" cy="-72" rx="124.03" ry="18"/>
<text xml:space="preserve" text-anchor="middle" x="124.03" y="-66.95" font-family="Times New Roman,serif" font-size="14.00">BookEditAction::ReplacePage</text>
</g>
<!-- 1 -->
<!-- name: &quot;Page Index&quot;, typeName: &quot;&quot;, id: 1, branchId: 0, recurseId: &#45;1, attributes: 0, notes: &quot;&quot; -->
<g id="node2" class="node">
<title>1</title>
<ellipse fill="none" stroke="black" cx="341.55" cy="-126" rx="52.38" ry="18"/>
<text xml:space="preserve" text-anchor="middle" x="341.55" y="-120.95" font-family="Times New Roman,serif" font-size="14.00">Page Index</text>
</g>
<!-- 0&#45;&gt;1 -->
<g id="edge1" class="edge">
<title>0&#45;&gt;1</title>
<path fill="none" stroke="black" d="M188.24,-87.84C219.73,-95.73 257.4,-105.17 287.39,-112.68"/>
<polygon fill="black" stroke="black" points="286.46,-116.06 297.01,-115.09 288.16,-109.27 286.46,-116.06"/>
</g>
<!-- 3 -->
<!-- name: &quot;Page Text&quot;, typeName: &quot;&quot;, id: 3, branchId: 0, recurseId: &#45;1, attributes: 0, notes: &quot;&quot; -->
<g id="node4" class="node">
<title>3</title>
<ellipse fill="none" stroke="black" cx="341.55" cy="-72" rx="47.26" ry="18"/>
<text xml:space="preserve" text-anchor="middle" x="341.55" y="-66.95" font-family="Times New Roman,serif" font-size="14.00">Page Text</text>
</g>
<!-- 0&#45;&gt;3 -->
<g id="edge3" class="edge">
<title>0&#45;&gt;3</title>
<path fill="none" stroke="black" d="M248.52,-72C260.4,-72 272.02,-72 282.79,-72"/>
<polygon fill="black" stroke="black" points="282.59,-75.5 292.59,-72 282.59,-68.5 282.59,-75.5"/>
</g>
<!-- 5 -->
<!-- name: &quot;Photo Name&quot;, typeName: &quot;&quot;, id: 5, branchId: 0, recurseId: &#45;1, attributes: 0, notes: &quot;&quot; -->
<g id="node6" class="node">
<title>5</title>
<ellipse fill="none" stroke="black" cx="341.55" cy="-18" rx="57.49" ry="18"/>
<text xml:space="preserve" text-anchor="middle" x="341.55" y="-12.95" font-family="Times New Roman,serif" font-size="14.00">Photo Name</text>
</g>
<!-- 0&#45;&gt;5 -->
<g id="edge5" class="edge">
<title>0&#45;&gt;5</title>
<path fill="none" stroke="black" d="M188.24,-56.16C218.85,-48.49 255.3,-39.36 284.86,-31.95"/>
<polygon fill="black" stroke="black" points="285.51,-35.4 294.35,-29.57 283.8,-28.61 285.51,-35.4"/>
</g>
<!-- 2 -->
<!-- name: &quot;varint&quot;, typeName: &quot;&quot;, id: 2, branchId: 0, recurseId: &#45;1, attributes: 512, notes: &quot;&quot; -->
<g id="node3" class="node">
<title>2</title>
<ellipse fill="none" stroke="black" cx="467.46" cy="-126" rx="32.41" ry="18"/>
<text xml:space="preserve" text-anchor="middle" x="467.46" y="-120.95" font-family="Times New Roman,serif" font-size="14.00">varint</text>
</g>
<!-- 1&#45;&gt;2 -->
<g id="edge2" class="edge">
<title>1&#45;&gt;2</title>
<path fill="none" stroke="black" d="M394.38,-126C403.98,-126 413.92,-126 423.24,-126"/>
<polygon fill="black" stroke="black" points="423.12,-129.5 433.12,-126 423.12,-122.5 423.12,-129.5"/>
</g>
<!-- 4 -->
<!-- name: &quot;string&quot;, typeName: &quot;&quot;, id: 4, branchId: 0, recurseId: &#45;1, attributes: 512, notes: &quot;&quot; -->
<g id="node5" class="node">
<title>4</title>
<ellipse fill="none" stroke="black" cx="467.46" cy="-72" rx="31.9" ry="18"/>
<text xml:space="preserve" text-anchor="middle" x="467.46" y="-66.95" font-family="Times New Roman,serif" font-size="14.00">string</text>
</g>
<!-- 3&#45;&gt;4 -->
<g id="edge4" class="edge">
<title>3&#45;&gt;4</title>
<path fill="none" stroke="black" d="M389.04,-72C400.46,-72 412.62,-72 423.85,-72"/>
<polygon fill="black" stroke="black" points="423.62,-75.5 433.62,-72 423.62,-68.5 423.62,-75.5"/>
</g>
<!-- 6 -->
<!-- name: &quot;string&quot;, typeName: &quot;&quot;, id: 6, branchId: 0, recurseId: &#45;1, attributes: 512, notes: &quot;&quot; -->
<g id="node7" class="node">
<title>6</title>
<ellipse fill="none" stroke="black" cx="467.46" cy="-18" rx="31.9" ry="18"/>
<text xml:space="preserve" text-anchor="middle" x="467.46" y="-12.95" font-family="Times New Roman,serif" font-size="14.00">string</text>
</g>
<!-- 5&#45;&gt;6 -->
<g id="edge6" class="edge">
<title>5&#45;&gt;6</title>
<path fill="none" stroke="black" d="M399.43,-18C407.62,-18 415.94,-18 423.79,-18"/>
<polygon fill="black" stroke="black" points="423.77,-21.5 433.77,-18 423.77,-14.5 423.77,-21.5"/>
</g>
</g>
</svg>
