<?xml version="1.0" encoding="UTF-8" standalone="no"?>
<!DOCTYPE svg PUBLIC "-//W3C//DTD SVG 1.1//EN"
 "http://www.w3.org/Graphics/SVG/1.1/DTD/svg11.dtd">
<!-- Generated by graphviz version 2.46.1 (20210213.1702)
 -->
<!-- Title: BookEditPacket Pages: 1 -->
<svg width="705pt" height="746pt"
 viewBox="0.00 0.00 704.66 746.00" xmlns="http://www.w3.org/2000/svg" xmlns:xlink="http://www.w3.org/1999/xlink">
<g id="graph0" class="graph" transform="scale(1 1) rotate(0) translate(4 742)">
<title>BookEditPacket</title>
<polygon fill="white" stroke="transparent" points="-4,4 -4,-742 700.66,-742 700.66,4 -4,4"/>
<!-- 0 -->
<!-- name: &quot;BookEditPacket&quot;, typeName: &quot;&quot;, id: 0, branchId: 97, recurseId: &#45;1, attributes: 0, notes: &quot;&quot; -->
<g id="node1" class="node">
<title>0</title>
<ellipse fill="none" stroke="black" cx="69.54" cy="-666" rx="69.59" ry="18"/>
<text text-anchor="middle" x="69.54" y="-662.3" font-family="Times New Roman,serif" font-size="14.00">BookEditPacket</text>
</g>
<!-- 1 -->
<!-- name: &quot;Action&quot;, typeName: &quot;&quot;, id: 1, branchId: 0, recurseId: &#45;1, attributes: 0, notes: &quot;enumeration: BookEditAction&quot; -->
<g id="node2" class="node">
<title>1</title>
<ellipse fill="none" stroke="black" cx="251.09" cy="-720" rx="35.19" ry="18"/>
<text text-anchor="middle" x="251.09" y="-716.3" font-family="Times New Roman,serif" font-size="14.00">Action</text>
</g>
<!-- 0&#45;&gt;1 -->
<g id="edge1" class="edge">
<title>0&#45;&gt;1</title>
<path fill="none" stroke="black" d="M115.85,-679.63C144.99,-688.39 182.5,-699.67 210.46,-708.08"/>
<polygon fill="black" stroke="black" points="209.71,-711.51 220.29,-711.04 211.73,-704.81 209.71,-711.51"/>
</g>
<!-- 3 -->
<!-- name: &quot;Book Slot&quot;, typeName: &quot;&quot;, id: 3, branchId: 0, recurseId: &#45;1, attributes: 0, notes: &quot;&quot; -->
<g id="node4" class="node">
<title>3</title>
<ellipse fill="none" stroke="black" cx="251.09" cy="-666" rx="48.19" ry="18"/>
<text text-anchor="middle" x="251.09" y="-662.3" font-family="Times New Roman,serif" font-size="14.00">Book Slot</text>
</g>
<!-- 0&#45;&gt;3 -->
<g id="edge3" class="edge">
<title>0&#45;&gt;3</title>
<path fill="none" stroke="black" d="M139.19,-666C156.82,-666 175.59,-666 192.59,-666"/>
<polygon fill="black" stroke="black" points="192.92,-669.5 202.92,-666 192.92,-662.5 192.92,-669.5"/>
</g>
<!-- 5 -->
<!-- name: &quot;Dependency on &#39;Action&#39;&quot;, typeName: &quot;&quot;, id: 5, branchId: 0, recurseId: &#45;1, attributes: 2, notes: &quot;&quot; -->
<g id="node6" class="node">
<title>5</title>
<polygon fill="none" stroke="black" points="321.09,-347 175.09,-347 175.09,-311 327.09,-311 327.09,-341 321.09,-347"/>
<polyline fill="none" stroke="black" points="321.09,-347 321.09,-341 "/>
<polyline fill="none" stroke="black" points="327.09,-341 321.09,-341 "/>
<text text-anchor="middle" x="251.09" y="-325.3" font-family="Times New Roman,serif" font-size="14.00">Dependency on &#39;Action&#39;</text>
</g>
<!-- 0&#45;&gt;5 -->
<g id="edge5" class="edge">
<title>0&#45;&gt;5</title>
<path fill="none" stroke="black" d="M80.2,-647.88C109.91,-592.11 200.12,-422.78 235.57,-356.25"/>
<polygon fill="black" stroke="black" points="238.77,-357.68 240.39,-347.21 232.6,-354.39 238.77,-357.68"/>
</g>
<!-- 2 -->
<!-- name: &quot;byte&quot;, typeName: &quot;&quot;, id: 2, branchId: 0, recurseId: &#45;1, attributes: 512, notes: &quot;&quot; -->
<g id="node3" class="node">
<title>2</title>
<ellipse fill="none" stroke="black" cx="666.11" cy="-720" rx="27" ry="18"/>
<text text-anchor="middle" x="666.11" y="-716.3" font-family="Times New Roman,serif" font-size="14.00">byte</text>
</g>
<!-- 1&#45;&gt;2 -->
<g id="edge2" class="edge">
<title>1&#45;&gt;2</title>
<path fill="none" stroke="black" d="M286.24,-720C363.12,-720 549.23,-720 628.44,-720"/>
<polygon fill="black" stroke="black" points="628.89,-723.5 638.89,-720 628.89,-716.5 628.89,-723.5"/>
</g>
<!-- 4 -->
<!-- name: &quot;byte&quot;, typeName: &quot;&quot;, id: 4, branchId: 0, recurseId: &#45;1, attributes: 512, notes: &quot;&quot; -->
<g id="node5" class="node">
<title>4</title>
<ellipse fill="none" stroke="black" cx="666.11" cy="-666" rx="27" ry="18"/>
<text text-anchor="middle" x="666.11" y="-662.3" font-family="Times New Roman,serif" font-size="14.00">byte</text>
</g>
<!-- 3&#45;&gt;4 -->
<g id="edge4" class="edge">
<title>3&#45;&gt;4</title>
<path fill="none" stroke="black" d="M299.47,-666C382.67,-666 553.33,-666 628.35,-666"/>
<polygon fill="black" stroke="black" points="628.7,-669.5 638.7,-666 628.7,-662.5 628.7,-669.5"/>
</g>
<!-- 6 -->
<!-- name: &quot;if (0)&quot;, typeName: &quot;&quot;, id: 6, branchId: 0, recurseId: &#45;1, attributes: 4, notes: &quot;&quot; -->
<g id="node7" class="node">
<title>6</title>
<polygon fill="none" stroke="black" points="403.53,-549 363.14,-531 403.53,-513 443.92,-531 403.53,-549"/>
<text text-anchor="middle" x="403.53" y="-527.3" font-family="Times New Roman,serif" font-size="14.00">if (0)</text>
</g>
<!-- 5&#45;&gt;6 -->
<g id="edge6" class="edge">
<title>5&#45;&gt;6</title>
<path fill="none" stroke="black" d="M265.7,-347.28C293.54,-384.66 356.85,-469.66 386.57,-509.56"/>
<polygon fill="black" stroke="black" points="383.92,-511.87 392.7,-517.8 389.54,-507.69 383.92,-511.87"/>
</g>
<!-- 13 -->
<!-- name: &quot;if (1)&quot;, typeName: &quot;&quot;, id: 13, branchId: 1, recurseId: &#45;1, attributes: 4, notes: &quot;&quot; -->
<g id="node14" class="node">
<title>13</title>
<polygon fill="none" stroke="black" points="403.53,-401 363.14,-383 403.53,-365 443.92,-383 403.53,-401"/>
<text text-anchor="middle" x="403.53" y="-379.3" font-family="Times New Roman,serif" font-size="14.00">if (1)</text>
</g>
<!-- 5&#45;&gt;13 -->
<g id="edge13" class="edge">
<title>5&#45;&gt;13</title>
<path fill="none" stroke="black" d="M302.6,-347.13C325.24,-355.26 351.24,-364.59 371.04,-371.7"/>
<polygon fill="black" stroke="black" points="369.9,-375.01 380.5,-375.09 372.27,-368.42 369.9,-375.01"/>
</g>
<!-- 20 -->
<!-- name: &quot;if (2)&quot;, typeName: &quot;&quot;, id: 20, branchId: 2, recurseId: &#45;1, attributes: 4, notes: &quot;&quot; -->
<g id="node21" class="node">
<title>20</title>
<polygon fill="none" stroke="black" points="403.53,-333 363.14,-315 403.53,-297 443.92,-315 403.53,-333"/>
<text text-anchor="middle" x="403.53" y="-311.3" font-family="Times New Roman,serif" font-size="14.00">if (2)</text>
</g>
<!-- 5&#45;&gt;20 -->
<g id="edge20" class="edge">
<title>5&#45;&gt;20</title>
<path fill="none" stroke="black" d="M327.31,-322C338.43,-320.96 349.55,-319.93 359.7,-318.99"/>
<polygon fill="black" stroke="black" points="360.25,-322.45 369.89,-318.04 359.61,-315.48 360.25,-322.45"/>
</g>
<!-- 23 -->
<!-- name: &quot;if (3)&quot;, typeName: &quot;&quot;, id: 23, branchId: 3, recurseId: &#45;1, attributes: 4, notes: &quot;&quot; -->
<g id="node24" class="node">
<title>23</title>
<polygon fill="none" stroke="black" points="403.53,-252 363.14,-234 403.53,-216 443.92,-234 403.53,-252"/>
<text text-anchor="middle" x="403.53" y="-230.3" font-family="Times New Roman,serif" font-size="14.00">if (3)</text>
</g>
<!-- 5&#45;&gt;23 -->
<g id="edge23" class="edge">
<title>5&#45;&gt;23</title>
<path fill="none" stroke="black" d="M280.74,-310.91C308.65,-293.28 350.67,-266.75 377.34,-249.91"/>
<polygon fill="black" stroke="black" points="379.49,-252.69 386.08,-244.39 375.76,-246.77 379.49,-252.69"/>
</g>
<!-- 28 -->
<!-- name: &quot;if (4)&quot;, typeName: &quot;&quot;, id: 28, branchId: 4, recurseId: &#45;1, attributes: 4, notes: &quot;&quot; -->
<g id="node29" class="node">
<title>28</title>
<polygon fill="none" stroke="black" points="403.53,-117 363.14,-99 403.53,-81 443.92,-99 403.53,-117"/>
<text text-anchor="middle" x="403.53" y="-95.3" font-family="Times New Roman,serif" font-size="14.00">if (4)</text>
</g>
<!-- 5&#45;&gt;28 -->
<g id="edge28" class="edge">
<title>5&#45;&gt;28</title>
<path fill="none" stroke="black" d="M263.89,-310.95C291.11,-269.34 358.21,-166.77 387.94,-121.31"/>
<polygon fill="black" stroke="black" points="390.98,-123.05 393.53,-112.76 385.13,-119.22 390.98,-123.05"/>
</g>
<!-- 7 -->
<!-- name: &quot;Page Index&quot;, typeName: &quot;&quot;, id: 7, branchId: 0, recurseId: &#45;1, attributes: 0, notes: &quot;&quot; -->
<g id="node8" class="node">
<title>7</title>
<ellipse fill="none" stroke="black" cx="539.77" cy="-612" rx="51.19" ry="18"/>
<text text-anchor="middle" x="539.77" y="-608.3" font-family="Times New Roman,serif" font-size="14.00">Page Index</text>
</g>
<!-- 6&#45;&gt;7 -->
<g id="edge7" class="edge">
<title>6&#45;&gt;7</title>
<path fill="none" stroke="black" d="M418.72,-542.41C433.49,-553.98 457.54,-571.98 479.97,-585 485.39,-588.15 491.24,-591.2 497.08,-594.06"/>
<polygon fill="black" stroke="black" points="495.63,-597.25 506.17,-598.37 498.63,-590.92 495.63,-597.25"/>
</g>
<!-- 9 -->
<!-- name: &quot;Text A&quot;, typeName: &quot;&quot;, id: 9, branchId: 0, recurseId: &#45;1, attributes: 0, notes: &quot;&quot; -->
<g id="node10" class="node">
<title>9</title>
<ellipse fill="none" stroke="black" cx="539.77" cy="-558" rx="36.29" ry="18"/>
<text text-anchor="middle" x="539.77" y="-554.3" font-family="Times New Roman,serif" font-size="14.00">Text A</text>
</g>
<!-- 6&#45;&gt;9 -->
<g id="edge9" class="edge">
<title>6&#45;&gt;9</title>
<path fill="none" stroke="black" d="M431.7,-536.46C450,-540.15 474.53,-545.08 495.5,-549.3"/>
<polygon fill="black" stroke="black" points="494.97,-552.76 505.46,-551.3 496.35,-545.9 494.97,-552.76"/>
</g>
<!-- 11 -->
<!-- name: &quot;Text B&quot;, typeName: &quot;&quot;, id: 11, branchId: 0, recurseId: &#45;1, attributes: 0, notes: &quot;&quot; -->
<g id="node12" class="node">
<title>11</title>
<ellipse fill="none" stroke="black" cx="539.77" cy="-504" rx="36" ry="18"/>
<text text-anchor="middle" x="539.77" y="-500.3" font-family="Times New Roman,serif" font-size="14.00">Text B</text>
</g>
<!-- 6&#45;&gt;11 -->
<g id="edge11" class="edge">
<title>6&#45;&gt;11</title>
<path fill="none" stroke="black" d="M431.7,-525.54C450.13,-521.83 474.89,-516.85 495.95,-512.61"/>
<polygon fill="black" stroke="black" points="496.84,-516 505.95,-510.6 495.46,-509.14 496.84,-516"/>
</g>
<!-- 8 -->
<!-- name: &quot;byte&quot;, typeName: &quot;&quot;, id: 8, branchId: 0, recurseId: &#45;1, attributes: 512, notes: &quot;&quot; -->
<g id="node9" class="node">
<title>8</title>
<ellipse fill="none" stroke="black" cx="666.11" cy="-612" rx="27" ry="18"/>
<text text-anchor="middle" x="666.11" y="-608.3" font-family="Times New Roman,serif" font-size="14.00">byte</text>
</g>
<!-- 7&#45;&gt;8 -->
<g id="edge8" class="edge">
<title>7&#45;&gt;8</title>
<path fill="none" stroke="black" d="M591.34,-612C603.8,-612 616.9,-612 628.55,-612"/>
<polygon fill="black" stroke="black" points="628.78,-615.5 638.78,-612 628.78,-608.5 628.78,-615.5"/>
</g>
<!-- 10 -->
<!-- name: &quot;string&quot;, typeName: &quot;&quot;, id: 10, branchId: 0, recurseId: &#45;1, attributes: 512, notes: &quot;&quot; -->
<g id="node11" class="node">
<title>10</title>
<ellipse fill="none" stroke="black" cx="666.11" cy="-558" rx="30.59" ry="18"/>
<text text-anchor="middle" x="666.11" y="-554.3" font-family="Times New Roman,serif" font-size="14.00">string</text>
</g>
<!-- 9&#45;&gt;10 -->
<g id="edge10" class="edge">
<title>9&#45;&gt;10</title>
<path fill="none" stroke="black" d="M576.4,-558C591.56,-558 609.31,-558 624.94,-558"/>
<polygon fill="black" stroke="black" points="625.35,-561.5 635.35,-558 625.35,-554.5 625.35,-561.5"/>
</g>
<!-- 12 -->
<!-- name: &quot;string&quot;, typeName: &quot;&quot;, id: 12, branchId: 0, recurseId: &#45;1, attributes: 512, notes: &quot;&quot; -->
<g id="node13" class="node">
<title>12</title>
<ellipse fill="none" stroke="black" cx="666.11" cy="-504" rx="30.59" ry="18"/>
<text text-anchor="middle" x="666.11" y="-500.3" font-family="Times New Roman,serif" font-size="14.00">string</text>
</g>
<!-- 11&#45;&gt;12 -->
<g id="edge12" class="edge">
<title>11&#45;&gt;12</title>
<path fill="none" stroke="black" d="M575.74,-504C591.17,-504 609.4,-504 625.35,-504"/>
<polygon fill="black" stroke="black" points="625.45,-507.5 635.45,-504 625.45,-500.5 625.45,-507.5"/>
</g>
<!-- 14 -->
<!-- name: &quot;Page Index&quot;, typeName: &quot;&quot;, id: 14, branchId: 0, recurseId: &#45;1, attributes: 0, notes: &quot;&quot; -->
<g id="node15" class="node">
<title>14</title>
<ellipse fill="none" stroke="black" cx="539.77" cy="-450" rx="51.19" ry="18"/>
<text text-anchor="middle" x="539.77" y="-446.3" font-family="Times New Roman,serif" font-size="14.00">Page Index</text>
</g>
<!-- 13&#45;&gt;14 -->
<g id="edge14" class="edge">
<title>13&#45;&gt;14</title>
<path fill="none" stroke="black" d="M422.37,-392.83C437.56,-401.11 460.04,-413.15 479.97,-423 485.72,-425.84 491.83,-428.76 497.85,-431.58"/>
<polygon fill="black" stroke="black" points="496.64,-434.87 507.18,-435.9 499.58,-428.52 496.64,-434.87"/>
</g>
<!-- 16 -->
<!-- name: &quot;Text A&quot;, typeName: &quot;&quot;, id: 16, branchId: 0, recurseId: &#45;1, attributes: 0, notes: &quot;&quot; -->
<g id="node17" class="node">
<title>16</title>
<ellipse fill="none" stroke="black" cx="539.77" cy="-396" rx="36.29" ry="18"/>
<text text-anchor="middle" x="539.77" y="-392.3" font-family="Times New Roman,serif" font-size="14.00">Text A</text>
</g>
<!-- 13&#45;&gt;16 -->
<g id="edge16" class="edge">
<title>13&#45;&gt;16</title>
<path fill="none" stroke="black" d="M437.03,-386.15C454.05,-387.8 475.16,-389.84 493.74,-391.64"/>
<polygon fill="black" stroke="black" points="493.46,-395.13 503.75,-392.61 494.13,-388.16 493.46,-395.13"/>
</g>
<!-- 18 -->
<!-- name: &quot;Text B&quot;, typeName: &quot;&quot;, id: 18, branchId: 0, recurseId: &#45;1, attributes: 0, notes: &quot;&quot; -->
<g id="node19" class="node">
<title>18</title>
<ellipse fill="none" stroke="black" cx="539.77" cy="-342" rx="36" ry="18"/>
<text text-anchor="middle" x="539.77" y="-338.3" font-family="Times New Roman,serif" font-size="14.00">Text B</text>
</g>
<!-- 13&#45;&gt;18 -->
<g id="edge18" class="edge">
<title>13&#45;&gt;18</title>
<path fill="none" stroke="black" d="M427.91,-375.86C447.41,-369.9 475.63,-361.28 498.72,-354.23"/>
<polygon fill="black" stroke="black" points="500.05,-357.49 508.59,-351.22 498,-350.79 500.05,-357.49"/>
</g>
<!-- 15 -->
<!-- name: &quot;byte&quot;, typeName: &quot;&quot;, id: 15, branchId: 0, recurseId: &#45;1, attributes: 512, notes: &quot;&quot; -->
<g id="node16" class="node">
<title>15</title>
<ellipse fill="none" stroke="black" cx="666.11" cy="-450" rx="27" ry="18"/>
<text text-anchor="middle" x="666.11" y="-446.3" font-family="Times New Roman,serif" font-size="14.00">byte</text>
</g>
<!-- 14&#45;&gt;15 -->
<g id="edge15" class="edge">
<title>14&#45;&gt;15</title>
<path fill="none" stroke="black" d="M591.34,-450C603.8,-450 616.9,-450 628.55,-450"/>
<polygon fill="black" stroke="black" points="628.78,-453.5 638.78,-450 628.78,-446.5 628.78,-453.5"/>
</g>
<!-- 17 -->
<!-- name: &quot;string&quot;, typeName: &quot;&quot;, id: 17, branchId: 0, recurseId: &#45;1, attributes: 512, notes: &quot;&quot; -->
<g id="node18" class="node">
<title>17</title>
<ellipse fill="none" stroke="black" cx="666.11" cy="-396" rx="30.59" ry="18"/>
<text text-anchor="middle" x="666.11" y="-392.3" font-family="Times New Roman,serif" font-size="14.00">string</text>
</g>
<!-- 16&#45;&gt;17 -->
<g id="edge17" class="edge">
<title>16&#45;&gt;17</title>
<path fill="none" stroke="black" d="M576.4,-396C591.56,-396 609.31,-396 624.94,-396"/>
<polygon fill="black" stroke="black" points="625.35,-399.5 635.35,-396 625.35,-392.5 625.35,-399.5"/>
</g>
<!-- 19 -->
<!-- name: &quot;string&quot;, typeName: &quot;&quot;, id: 19, branchId: 0, recurseId: &#45;1, attributes: 512, notes: &quot;&quot; -->
<g id="node20" class="node">
<title>19</title>
<ellipse fill="none" stroke="black" cx="666.11" cy="-342" rx="30.59" ry="18"/>
<text text-anchor="middle" x="666.11" y="-338.3" font-family="Times New Roman,serif" font-size="14.00">string</text>
</g>
<!-- 18&#45;&gt;19 -->
<g id="edge19" class="edge">
<title>18&#45;&gt;19</title>
<path fill="none" stroke="black" d="M575.74,-342C591.17,-342 609.4,-342 625.35,-342"/>
<polygon fill="black" stroke="black" points="625.45,-345.5 635.45,-342 625.45,-338.5 625.45,-345.5"/>
</g>
<!-- 21 -->
<!-- name: &quot;Page Index&quot;, typeName: &quot;&quot;, id: 21, branchId: 0, recurseId: &#45;1, attributes: 0, notes: &quot;&quot; -->
<g id="node22" class="node">
<title>21</title>
<ellipse fill="none" stroke="black" cx="539.77" cy="-288" rx="51.19" ry="18"/>
<text text-anchor="middle" x="539.77" y="-284.3" font-family="Times New Roman,serif" font-size="14.00">Page Index</text>
</g>
<!-- 20&#45;&gt;21 -->
<g id="edge21" class="edge">
<title>20&#45;&gt;21</title>
<path fill="none" stroke="black" d="M431.7,-309.54C446.95,-306.47 466.54,-302.53 484.77,-298.86"/>
<polygon fill="black" stroke="black" points="485.62,-302.26 494.73,-296.86 484.24,-295.4 485.62,-302.26"/>
</g>
<!-- 22 -->
<!-- name: &quot;byte&quot;, typeName: &quot;&quot;, id: 22, branchId: 0, recurseId: &#45;1, attributes: 512, notes: &quot;&quot; -->
<g id="node23" class="node">
<title>22</title>
<ellipse fill="none" stroke="black" cx="666.11" cy="-288" rx="27" ry="18"/>
<text text-anchor="middle" x="666.11" y="-284.3" font-family="Times New Roman,serif" font-size="14.00">byte</text>
</g>
<!-- 21&#45;&gt;22 -->
<g id="edge22" class="edge">
<title>21&#45;&gt;22</title>
<path fill="none" stroke="black" d="M591.34,-288C603.8,-288 616.9,-288 628.55,-288"/>
<polygon fill="black" stroke="black" points="628.78,-291.5 638.78,-288 628.78,-284.5 628.78,-291.5"/>
</g>
<!-- 24 -->
<!-- name: &quot;Page Index A&quot;, typeName: &quot;&quot;, id: 24, branchId: 0, recurseId: &#45;1, attributes: 0, notes: &quot;&quot; -->
<g id="node25" class="node">
<title>24</title>
<ellipse fill="none" stroke="black" cx="539.77" cy="-234" rx="59.59" ry="18"/>
<text text-anchor="middle" x="539.77" y="-230.3" font-family="Times New Roman,serif" font-size="14.00">Page Index A</text>
</g>
<!-- 23&#45;&gt;24 -->
<g id="edge24" class="edge">
<title>23&#45;&gt;24</title>
<path fill="none" stroke="black" d="M444.08,-234C452.14,-234 460.84,-234 469.59,-234"/>
<polygon fill="black" stroke="black" points="469.85,-237.5 479.85,-234 469.85,-230.5 469.85,-237.5"/>
</g>
<!-- 26 -->
<!-- name: &quot;Page Index B&quot;, typeName: &quot;&quot;, id: 26, branchId: 0, recurseId: &#45;1, attributes: 0, notes: &quot;&quot; -->
<g id="node27" class="node">
<title>26</title>
<ellipse fill="none" stroke="black" cx="539.77" cy="-180" rx="59.59" ry="18"/>
<text text-anchor="middle" x="539.77" y="-176.3" font-family="Times New Roman,serif" font-size="14.00">Page Index B</text>
</g>
<!-- 23&#45;&gt;26 -->
<g id="edge26" class="edge">
<title>23&#45;&gt;26</title>
<path fill="none" stroke="black" d="M425.51,-225.56C443.72,-218.24 470.71,-207.38 493.78,-198.1"/>
<polygon fill="black" stroke="black" points="495.09,-201.34 503.06,-194.36 492.48,-194.85 495.09,-201.34"/>
</g>
<!-- 25 -->
<!-- name: &quot;byte&quot;, typeName: &quot;&quot;, id: 25, branchId: 0, recurseId: &#45;1, attributes: 512, notes: &quot;&quot; -->
<g id="node26" class="node">
<title>25</title>
<ellipse fill="none" stroke="black" cx="666.11" cy="-234" rx="27" ry="18"/>
<text text-anchor="middle" x="666.11" y="-230.3" font-family="Times New Roman,serif" font-size="14.00">byte</text>
</g>
<!-- 24&#45;&gt;25 -->
<g id="edge25" class="edge">
<title>24&#45;&gt;25</title>
<path fill="none" stroke="black" d="M599.66,-234C609.59,-234 619.62,-234 628.76,-234"/>
<polygon fill="black" stroke="black" points="629,-237.5 639,-234 629,-230.5 629,-237.5"/>
</g>
<!-- 27 -->
<!-- name: &quot;byte&quot;, typeName: &quot;&quot;, id: 27, branchId: 0, recurseId: &#45;1, attributes: 512, notes: &quot;&quot; -->
<g id="node28" class="node">
<title>27</title>
<ellipse fill="none" stroke="black" cx="666.11" cy="-180" rx="27" ry="18"/>
<text text-anchor="middle" x="666.11" y="-176.3" font-family="Times New Roman,serif" font-size="14.00">byte</text>
</g>
<!-- 26&#45;&gt;27 -->
<g id="edge27" class="edge">
<title>26&#45;&gt;27</title>
<path fill="none" stroke="black" d="M599.66,-180C609.59,-180 619.62,-180 628.76,-180"/>
<polygon fill="black" stroke="black" points="629,-183.5 639,-180 629,-176.5 629,-183.5"/>
</g>
<!-- 29 -->
<!-- name: &quot;Text A&quot;, typeName: &quot;&quot;, id: 29, branchId: 0, recurseId: &#45;1, attributes: 0, notes: &quot;&quot; -->
<g id="node30" class="node">
<title>29</title>
<ellipse fill="none" stroke="black" cx="539.77" cy="-126" rx="36.29" ry="18"/>
<text text-anchor="middle" x="539.77" y="-122.3" font-family="Times New Roman,serif" font-size="14.00">Text A</text>
</g>
<!-- 28&#45;&gt;29 -->
<g id="edge29" class="edge">
<title>28&#45;&gt;29</title>
<path fill="none" stroke="black" d="M431.7,-104.46C450,-108.15 474.53,-113.08 495.5,-117.3"/>
<polygon fill="black" stroke="black" points="494.97,-120.76 505.46,-119.3 496.35,-113.9 494.97,-120.76"/>
</g>
<!-- 31 -->
<!-- name: &quot;Text B&quot;, typeName: &quot;&quot;, id: 31, branchId: 0, recurseId: &#45;1, attributes: 0, notes: &quot;&quot; -->
<g id="node32" class="node">
<title>31</title>
<ellipse fill="none" stroke="black" cx="539.77" cy="-72" rx="36" ry="18"/>
<text text-anchor="middle" x="539.77" y="-68.3" font-family="Times New Roman,serif" font-size="14.00">Text B</text>
</g>
<!-- 28&#45;&gt;31 -->
<g id="edge31" class="edge">
<title>28&#45;&gt;31</title>
<path fill="none" stroke="black" d="M431.7,-93.54C450.13,-89.83 474.89,-84.85 495.95,-80.61"/>
<polygon fill="black" stroke="black" points="496.84,-84 505.95,-78.6 495.46,-77.14 496.84,-84"/>
</g>
<!-- 33 -->
<!-- name: &quot;XUID&quot;, typeName: &quot;&quot;, id: 33, branchId: 0, recurseId: &#45;1, attributes: 0, notes: &quot;&quot; -->
<g id="node34" class="node">
<title>33</title>
<ellipse fill="none" stroke="black" cx="539.77" cy="-18" rx="32.49" ry="18"/>
<text text-anchor="middle" x="539.77" y="-14.3" font-family="Times New Roman,serif" font-size="14.00">XUID</text>
</g>
<!-- 28&#45;&gt;33 -->
<g id="edge33" class="edge">
<title>28&#45;&gt;33</title>
<path fill="none" stroke="black" d="M418.72,-87.59C433.49,-76.02 457.54,-58.02 479.97,-45 487.51,-40.62 495.89,-36.42 503.9,-32.68"/>
<polygon fill="black" stroke="black" points="505.39,-35.85 513.06,-28.53 502.5,-29.47 505.39,-35.85"/>
</g>
<!-- 30 -->
<!-- name: &quot;string&quot;, typeName: &quot;&quot;, id: 30, branchId: 0, recurseId: &#45;1, attributes: 512, notes: &quot;&quot; -->
<g id="node31" class="node">
<title>30</title>
<ellipse fill="none" stroke="black" cx="666.11" cy="-126" rx="30.59" ry="18"/>
<text text-anchor="middle" x="666.11" y="-122.3" font-family="Times New Roman,serif" font-size="14.00">string</text>
</g>
<!-- 29&#45;&gt;30 -->
<g id="edge30" class="edge">
<title>29&#45;&gt;30</title>
<path fill="none" stroke="black" d="M576.4,-126C591.56,-126 609.31,-126 624.94,-126"/>
<polygon fill="black" stroke="black" points="625.35,-129.5 635.35,-126 625.35,-122.5 625.35,-129.5"/>
</g>
<!-- 32 -->
<!-- name: &quot;string&quot;, typeName: &quot;&quot;, id: 32, branchId: 0, recurseId: &#45;1, attributes: 512, notes: &quot;&quot; -->
<g id="node33" class="node">
<title>32</title>
<ellipse fill="none" stroke="black" cx="666.11" cy="-72" rx="30.59" ry="18"/>
<text text-anchor="middle" x="666.11" y="-68.3" font-family="Times New Roman,serif" font-size="14.00">string</text>
</g>
<!-- 31&#45;&gt;32 -->
<g id="edge32" class="edge">
<title>31&#45;&gt;32</title>
<path fill="none" stroke="black" d="M575.74,-72C591.17,-72 609.4,-72 625.35,-72"/>
<polygon fill="black" stroke="black" points="625.45,-75.5 635.45,-72 625.45,-68.5 625.45,-75.5"/>
</g>
<!-- 34 -->
<!-- name: &quot;string&quot;, typeName: &quot;&quot;, id: 34, branchId: 0, recurseId: &#45;1, attributes: 512, notes: &quot;&quot; -->
<g id="node35" class="node">
<title>34</title>
<ellipse fill="none" stroke="black" cx="666.11" cy="-18" rx="30.59" ry="18"/>
<text text-anchor="middle" x="666.11" y="-14.3" font-family="Times New Roman,serif" font-size="14.00">string</text>
</g>
<!-- 33&#45;&gt;34 -->
<g id="edge34" class="edge">
<title>33&#45;&gt;34</title>
<path fill="none" stroke="black" d="M572.47,-18C588.44,-18 607.97,-18 624.97,-18"/>
<polygon fill="black" stroke="black" points="625.18,-21.5 635.18,-18 625.18,-14.5 625.18,-21.5"/>
</g>
</g>
</svg>
