<?xml version="1.0" encoding="UTF-8" standalone="no"?>
<!DOCTYPE svg PUBLIC "-//W3C//DTD SVG 1.1//EN"
 "http://www.w3.org/Graphics/SVG/1.1/DTD/svg11.dtd">
<!-- Generated by graphviz version 14.1.5 (20260411.2331)
 -->
<!-- Title: BoolAttributeData Pages: 1 -->
<svg width="575pt" height="98pt"
 viewBox="0.00 0.00 575.00 98.00" xmlns="http://www.w3.org/2000/svg" xmlns:xlink="http://www.w3.org/1999/xlink">
<g id="graph0" class="graph" transform="scale(1 1) rotate(0) translate(4 94)">
<title>BoolAttributeData</title>
<polygon fill="white" stroke="none" points="-4,4 -4,-94 571.43,-94 571.43,4 -4,4"/>
<!-- 0 -->
<!-- name: &quot;BoolAttributeData&quot;, typeName: &quot;&quot;, id: 0, branchId: 0, recurseId: &#45;1, attributes: 0, notes: &quot;&quot; -->
<g id="node1" class="node">
<title>0</title>
<ellipse fill="none" stroke="black" cx="79.5" cy="-45" rx="79.5" ry="18"/>
<text xml:space="preserve" text-anchor="middle" x="79.5" y="-39.95" font-family="Times New Roman,serif" font-size="14.00">BoolAttributeData</text>
</g>
<!-- 1 -->
<!-- name: &quot;value&quot;, typeName: &quot;&quot;, id: 1, branchId: 0, recurseId: &#45;1, attributes: 0, notes: &quot;&quot; -->
<g id="node2" class="node">
<title>1</title>
<ellipse fill="none" stroke="black" cx="240.72" cy="-72" rx="30.88" ry="18"/>
<text xml:space="preserve" text-anchor="middle" x="240.72" y="-66.95" font-family="Times New Roman,serif" font-size="14.00">value</text>
</g>
<!-- 0&#45;&gt;1 -->
<g id="edge1" class="edge">
<title>0&#45;&gt;1</title>
<path fill="none" stroke="black" d="M144.35,-55.83C163.04,-59 182.95,-62.37 199.72,-65.22"/>
<polygon fill="black" stroke="black" points="198.83,-68.62 209.27,-66.84 200,-61.71 198.83,-68.62"/>
</g>
<!-- 3 -->
<!-- name: &quot;operation&quot;, typeName: &quot;&quot;, id: 3, branchId: 0, recurseId: &#45;1, attributes: 0, notes: &quot;&quot; -->
<g id="node4" class="node">
<title>3</title>
<ellipse fill="none" stroke="black" cx="240.72" cy="-18" rx="45.72" ry="18"/>
<text xml:space="preserve" text-anchor="middle" x="240.72" y="-12.95" font-family="Times New Roman,serif" font-size="14.00">operation</text>
</g>
<!-- 0&#45;&gt;3 -->
<g id="edge3" class="edge">
<title>0&#45;&gt;3</title>
<path fill="none" stroke="black" d="M144.35,-34.17C158.54,-31.77 173.43,-29.24 187.11,-26.92"/>
<polygon fill="black" stroke="black" points="187.52,-30.4 196.79,-25.28 186.35,-23.5 187.52,-30.4"/>
</g>
<!-- 2 -->
<!-- name: &quot;bool&quot;, typeName: &quot;&quot;, id: 2, branchId: 0, recurseId: &#45;1, attributes: 512, notes: &quot;&quot; -->
<g id="node3" class="node">
<title>2</title>
<ellipse fill="none" stroke="black" cx="444.94" cy="-72" rx="27.3" ry="18"/>
<text xml:space="preserve" text-anchor="middle" x="444.94" y="-66.95" font-family="Times New Roman,serif" font-size="14.00">bool</text>
</g>
<!-- 1&#45;&gt;2 -->
<g id="edge2" class="edge">
<title>1&#45;&gt;2</title>
<path fill="none" stroke="black" d="M272,-72C307.74,-72 367.23,-72 406.01,-72"/>
<polygon fill="black" stroke="black" points="405.82,-75.5 415.82,-72 405.82,-68.5 405.82,-75.5"/>
</g>
<!-- 4 -->
<!-- name: &quot;enum BoolAttributeOperation&quot;, typeName: &quot;&quot;, id: 4, branchId: 0, recurseId: &#45;1, attributes: 512, notes: &quot;&quot; -->
<g id="node5" class="node">
<title>4</title>
<ellipse fill="none" stroke="black" cx="444.94" cy="-18" rx="122.49" ry="18"/>
<text xml:space="preserve" text-anchor="middle" x="444.94" y="-12.95" font-family="Times New Roman,serif" font-size="14.00">enum BoolAttributeOperation</text>
</g>
<!-- 3&#45;&gt;4 -->
<g id="edge4" class="edge">
<title>3&#45;&gt;4</title>
<path fill="none" stroke="black" d="M286.85,-18C294.38,-18 302.51,-18 310.97,-18"/>
<polygon fill="black" stroke="black" points="310.75,-21.5 320.75,-18 310.75,-14.5 310.75,-21.5"/>
</g>
</g>
</svg>
