<?xml version="1.0" encoding="UTF-8" standalone="no"?>
<!DOCTYPE svg PUBLIC "-//W3C//DTD SVG 1.1//EN"
 "http://www.w3.org/Graphics/SVG/1.1/DTD/svg11.dtd">
<!-- Generated by graphviz version 2.46.1 (20210213.1702)
 -->
<!-- Title: BossEventPacket Pages: 1 -->
<svg width="821pt" height="962pt"
 viewBox="0.00 0.00 821.35 962.00" xmlns="http://www.w3.org/2000/svg" xmlns:xlink="http://www.w3.org/1999/xlink">
<g id="graph0" class="graph" transform="scale(1 1) rotate(0) translate(4 958)">
<title>BossEventPacket</title>
<polygon fill="white" stroke="transparent" points="-4,4 -4,-958 817.35,-958 817.35,4 -4,4"/>
<!-- 0 -->
<!-- name: &quot;BossEventPacket&quot;, typeName: &quot;&quot;, id: 0, branchId: 74, recurseId: &#45;1, attributes: 0, notes: &quot;&quot; -->
<g id="node1" class="node">
<title>0</title>
<ellipse fill="none" stroke="black" cx="74.09" cy="-882" rx="74.19" ry="18"/>
<text text-anchor="middle" x="74.09" y="-878.3" font-family="Times New Roman,serif" font-size="14.00">BossEventPacket</text>
</g>
<!-- 1 -->
<!-- name: &quot;Target Actor ID&quot;, typeName: &quot;ActorUniqueID&quot;, id: 1, branchId: 0, recurseId: &#45;1, attributes: 256, notes: &quot;&quot; -->
<g id="node2" class="node">
<title>1</title>
<ellipse fill="none" stroke="black" cx="273.69" cy="-936" rx="69.59" ry="18"/>
<text text-anchor="middle" x="273.69" y="-932.3" font-family="Times New Roman,serif" font-size="14.00">Target Actor ID</text>
</g>
<!-- 0&#45;&gt;1 -->
<g id="edge1" class="edge">
<title>0&#45;&gt;1</title>
<path fill="none" stroke="black" d="M123.94,-895.35C151.54,-902.89 186.2,-912.36 215.12,-920.27"/>
<polygon fill="black" stroke="black" points="214.52,-923.73 225.09,-922.99 216.36,-916.98 214.52,-923.73"/>
</g>
<!-- 3 -->
<!-- name: &quot;Event Type&quot;, typeName: &quot;&quot;, id: 3, branchId: 0, recurseId: &#45;1, attributes: 0, notes: &quot;enumeration: BossEventUpdateType&quot; -->
<g id="node4" class="node">
<title>3</title>
<ellipse fill="none" stroke="black" cx="273.69" cy="-882" rx="52.79" ry="18"/>
<text text-anchor="middle" x="273.69" y="-878.3" font-family="Times New Roman,serif" font-size="14.00">Event Type</text>
</g>
<!-- 0&#45;&gt;3 -->
<g id="edge3" class="edge">
<title>0&#45;&gt;3</title>
<path fill="none" stroke="black" d="M148.39,-882C168.87,-882 190.92,-882 210.68,-882"/>
<polygon fill="black" stroke="black" points="210.79,-885.5 220.79,-882 210.79,-878.5 210.79,-885.5"/>
</g>
<!-- 5 -->
<!-- name: &quot;Dependency on &#39;Event Type&#39;&quot;, typeName: &quot;&quot;, id: 5, branchId: 0, recurseId: &#45;1, attributes: 2, notes: &quot;&quot; -->
<g id="node6" class="node">
<title>5</title>
<polygon fill="none" stroke="black" points="357.19,-441 184.19,-441 184.19,-405 363.19,-405 363.19,-435 357.19,-441"/>
<polyline fill="none" stroke="black" points="357.19,-441 357.19,-435 "/>
<polyline fill="none" stroke="black" points="363.19,-435 357.19,-435 "/>
<text text-anchor="middle" x="273.69" y="-419.3" font-family="Times New Roman,serif" font-size="14.00">Dependency on &#39;Event Type&#39;</text>
</g>
<!-- 0&#45;&gt;5 -->
<g id="edge5" class="edge">
<title>0&#45;&gt;5</title>
<path fill="none" stroke="black" d="M82.84,-864.01C113.18,-793.54 224.04,-536 260.77,-450.67"/>
<polygon fill="black" stroke="black" points="264.04,-451.94 264.78,-441.37 257.61,-449.17 264.04,-451.94"/>
</g>
<!-- 2 -->
<!-- name: &quot;ActorUniqueID&quot;, typeName: &quot;&quot;, id: 2, branchId: 0, recurseId: &#45;1, attributes: 512, notes: &quot;&quot; -->
<g id="node3" class="node">
<title>2</title>
<ellipse fill="none" stroke="black" cx="746.41" cy="-936" rx="66.89" ry="18"/>
<text text-anchor="middle" x="746.41" y="-932.3" font-family="Times New Roman,serif" font-size="14.00">ActorUniqueID</text>
</g>
<!-- 1&#45;&gt;2 -->
<g id="edge2" class="edge">
<title>1&#45;&gt;2</title>
<path fill="none" stroke="black" d="M343.39,-936C430.12,-936 578.87,-936 669.07,-936"/>
<polygon fill="black" stroke="black" points="669.23,-939.5 679.23,-936 669.23,-932.5 669.23,-939.5"/>
</g>
<!-- 4 -->
<!-- name: &quot;int&quot;, typeName: &quot;&quot;, id: 4, branchId: 0, recurseId: &#45;1, attributes: 512, notes: &quot;&quot; -->
<g id="node5" class="node">
<title>4</title>
<ellipse fill="none" stroke="black" cx="746.41" cy="-882" rx="27" ry="18"/>
<text text-anchor="middle" x="746.41" y="-878.3" font-family="Times New Roman,serif" font-size="14.00">int</text>
</g>
<!-- 3&#45;&gt;4 -->
<g id="edge4" class="edge">
<title>3&#45;&gt;4</title>
<path fill="none" stroke="black" d="M326.41,-882C422.5,-882 626.33,-882 709.22,-882"/>
<polygon fill="black" stroke="black" points="709.4,-885.5 719.4,-882 709.4,-878.5 709.4,-885.5"/>
</g>
<!-- 6 -->
<!-- name: &quot;if (0)&quot;, typeName: &quot;&quot;, id: 6, branchId: 0, recurseId: &#45;1, attributes: 4, notes: &quot;&quot; -->
<g id="node7" class="node">
<title>6</title>
<polygon fill="none" stroke="black" points="439.63,-711 399.24,-693 439.63,-675 480.02,-693 439.63,-711"/>
<text text-anchor="middle" x="439.63" y="-689.3" font-family="Times New Roman,serif" font-size="14.00">if (0)</text>
</g>
<!-- 5&#45;&gt;6 -->
<g id="edge6" class="edge">
<title>5&#45;&gt;6</title>
<path fill="none" stroke="black" d="M285.7,-441.13C314.69,-488.87 393.06,-617.95 424.9,-670.39"/>
<polygon fill="black" stroke="black" points="421.93,-672.24 430.11,-678.97 427.91,-668.61 421.93,-672.24"/>
</g>
<!-- 17 -->
<!-- name: &quot;if (1)&quot;, typeName: &quot;&quot;, id: 17, branchId: 1, recurseId: &#45;1, attributes: 4, notes: &quot;&quot; -->
<g id="node18" class="node">
<title>17</title>
<polygon fill="none" stroke="black" points="439.63,-576 399.24,-558 439.63,-540 480.02,-558 439.63,-576"/>
<text text-anchor="middle" x="439.63" y="-554.3" font-family="Times New Roman,serif" font-size="14.00">if (1)</text>
</g>
<!-- 5&#45;&gt;17 -->
<g id="edge17" class="edge">
<title>5&#45;&gt;17</title>
<path fill="none" stroke="black" d="M294.36,-441.31C318.41,-463.4 360.68,-501.28 399.19,-531 403.79,-534.55 408.82,-538.18 413.7,-541.57"/>
<polygon fill="black" stroke="black" points="411.98,-544.63 422.21,-547.37 415.92,-538.85 411.98,-544.63"/>
</g>
<!-- 20 -->
<!-- name: &quot;if (2)&quot;, typeName: &quot;&quot;, id: 20, branchId: 2, recurseId: &#45;1, attributes: 4, notes: &quot;&quot; -->
<g id="node21" class="node">
<title>20</title>
<polygon fill="none" stroke="black" points="439.63,-522 399.24,-504 439.63,-486 480.02,-504 439.63,-522"/>
<text text-anchor="middle" x="439.63" y="-500.3" font-family="Times New Roman,serif" font-size="14.00">if (2)</text>
</g>
<!-- 5&#45;&gt;20 -->
<g id="edge20" class="edge">
<title>5&#45;&gt;20</title>
<path fill="none" stroke="black" d="M311.48,-441.18C341.54,-456.03 383.4,-476.71 410.75,-490.22"/>
<polygon fill="black" stroke="black" points="409.26,-493.39 419.77,-494.68 412.36,-487.11 409.26,-493.39"/>
</g>
<!-- 22 -->
<!-- name: &quot;if (3)&quot;, typeName: &quot;&quot;, id: 22, branchId: 3, recurseId: &#45;1, attributes: 4, notes: &quot;&quot; -->
<g id="node23" class="node">
<title>22</title>
<polygon fill="none" stroke="black" points="439.63,-468 399.24,-450 439.63,-432 480.02,-450 439.63,-468"/>
<text text-anchor="middle" x="439.63" y="-446.3" font-family="Times New Roman,serif" font-size="14.00">if (3)</text>
</g>
<!-- 5&#45;&gt;22 -->
<g id="edge22" class="edge">
<title>5&#45;&gt;22</title>
<path fill="none" stroke="black" d="M363.38,-437.61C376.07,-439.7 388.54,-441.75 399.58,-443.57"/>
<polygon fill="black" stroke="black" points="399.24,-447.06 409.67,-445.23 400.37,-440.15 399.24,-447.06"/>
</g>
<!-- 25 -->
<!-- name: &quot;if (4)&quot;, typeName: &quot;&quot;, id: 25, branchId: 4, recurseId: &#45;1, attributes: 4, notes: &quot;&quot; -->
<g id="node26" class="node">
<title>25</title>
<polygon fill="none" stroke="black" points="439.63,-414 399.24,-396 439.63,-378 480.02,-396 439.63,-414"/>
<text text-anchor="middle" x="439.63" y="-392.3" font-family="Times New Roman,serif" font-size="14.00">if (4)</text>
</g>
<!-- 5&#45;&gt;25 -->
<g id="edge25" class="edge">
<title>5&#45;&gt;25</title>
<path fill="none" stroke="black" d="M363.38,-408.39C376.07,-406.3 388.54,-404.25 399.58,-402.43"/>
<polygon fill="black" stroke="black" points="400.37,-405.85 409.67,-400.77 399.24,-398.94 400.37,-405.85"/>
</g>
<!-- 28 -->
<!-- name: &quot;if (5)&quot;, typeName: &quot;&quot;, id: 28, branchId: 5, recurseId: &#45;1, attributes: 4, notes: &quot;&quot; -->
<g id="node29" class="node">
<title>28</title>
<polygon fill="none" stroke="black" points="439.63,-360 399.24,-342 439.63,-324 480.02,-342 439.63,-360"/>
<text text-anchor="middle" x="439.63" y="-338.3" font-family="Times New Roman,serif" font-size="14.00">if (5)</text>
</g>
<!-- 5&#45;&gt;28 -->
<g id="edge28" class="edge">
<title>5&#45;&gt;28</title>
<path fill="none" stroke="black" d="M311.48,-404.82C341.54,-389.97 383.4,-369.29 410.75,-355.78"/>
<polygon fill="black" stroke="black" points="412.36,-358.89 419.77,-351.32 409.26,-352.61 412.36,-358.89"/>
</g>
<!-- 31 -->
<!-- name: &quot;if (6)&quot;, typeName: &quot;&quot;, id: 31, branchId: 6, recurseId: &#45;1, attributes: 4, notes: &quot;&quot; -->
<g id="node32" class="node">
<title>31</title>
<polygon fill="none" stroke="black" points="439.63,-279 399.24,-261 439.63,-243 480.02,-261 439.63,-279"/>
<text text-anchor="middle" x="439.63" y="-257.3" font-family="Times New Roman,serif" font-size="14.00">if (6)</text>
</g>
<!-- 5&#45;&gt;31 -->
<g id="edge31" class="edge">
<title>5&#45;&gt;31</title>
<path fill="none" stroke="black" d="M293.17,-404.73C324.21,-374.07 386.52,-312.49 418.57,-280.82"/>
<polygon fill="black" stroke="black" points="421.38,-282.96 426.03,-273.45 416.46,-277.99 421.38,-282.96"/>
</g>
<!-- 38 -->
<!-- name: &quot;if (7)&quot;, typeName: &quot;&quot;, id: 38, branchId: 7, recurseId: &#45;1, attributes: 4, notes: &quot;&quot; -->
<g id="node39" class="node">
<title>38</title>
<polygon fill="none" stroke="black" points="439.63,-144 399.24,-126 439.63,-108 480.02,-126 439.63,-144"/>
<text text-anchor="middle" x="439.63" y="-122.3" font-family="Times New Roman,serif" font-size="14.00">if (7)</text>
</g>
<!-- 5&#45;&gt;38 -->
<g id="edge38" class="edge">
<title>5&#45;&gt;38</title>
<path fill="none" stroke="black" d="M284.7,-404.87C313.09,-353.44 394.12,-206.64 425.75,-149.33"/>
<polygon fill="black" stroke="black" points="428.96,-150.76 430.73,-140.31 422.83,-147.38 428.96,-150.76"/>
</g>
<!-- 43 -->
<!-- name: &quot;if (8)&quot;, typeName: &quot;&quot;, id: 43, branchId: 8, recurseId: &#45;1, attributes: 4, notes: &quot;&quot; -->
<g id="node44" class="node">
<title>43</title>
<polygon fill="none" stroke="black" points="439.63,-63 399.24,-45 439.63,-27 480.02,-45 439.63,-63"/>
<text text-anchor="middle" x="439.63" y="-41.3" font-family="Times New Roman,serif" font-size="14.00">if (8)</text>
</g>
<!-- 5&#45;&gt;43 -->
<g id="edge43" class="edge">
<title>5&#45;&gt;43</title>
<path fill="none" stroke="black" d="M279.85,-404.71C294.51,-354.17 339.22,-209.07 399.19,-99 405.46,-87.49 413.87,-75.63 421.32,-65.96"/>
<polygon fill="black" stroke="black" points="424.08,-68.11 427.53,-58.1 418.59,-63.77 424.08,-68.11"/>
</g>
<!-- 7 -->
<!-- name: &quot;Name&quot;, typeName: &quot;&quot;, id: 7, branchId: 0, recurseId: &#45;1, attributes: 0, notes: &quot;Name of the boss to add&quot; -->
<g id="node8" class="node">
<title>7</title>
<ellipse fill="none" stroke="black" cx="579.77" cy="-828" rx="31.7" ry="18"/>
<text text-anchor="middle" x="579.77" y="-824.3" font-family="Times New Roman,serif" font-size="14.00">Name</text>
</g>
<!-- 6&#45;&gt;7 -->
<g id="edge7" class="edge">
<title>6&#45;&gt;7</title>
<path fill="none" stroke="black" d="M447.62,-707.89C459.02,-730.73 483.63,-774.56 516.07,-801 523.56,-807.1 532.64,-812.06 541.53,-815.98"/>
<polygon fill="black" stroke="black" points="540.44,-819.31 551.03,-819.83 543.07,-812.82 540.44,-819.31"/>
</g>
<!-- 9 -->
<!-- name: &quot;Health Percent&quot;, typeName: &quot;&quot;, id: 9, branchId: 0, recurseId: &#45;1, attributes: 0, notes: &quot;Health value of the boss&quot; -->
<g id="node10" class="node">
<title>9</title>
<ellipse fill="none" stroke="black" cx="579.77" cy="-774" rx="63.89" ry="18"/>
<text text-anchor="middle" x="579.77" y="-770.3" font-family="Times New Roman,serif" font-size="14.00">Health Percent</text>
</g>
<!-- 6&#45;&gt;9 -->
<g id="edge9" class="edge">
<title>6&#45;&gt;9</title>
<path fill="none" stroke="black" d="M454.76,-704.52C469.47,-716.18 493.49,-734.25 516.07,-747 521.16,-749.87 526.62,-752.64 532.11,-755.24"/>
<polygon fill="black" stroke="black" points="530.78,-758.48 541.33,-759.44 533.68,-752.11 530.78,-758.48"/>
</g>
<!-- 11 -->
<!-- name: &quot;Darken Screen&quot;, typeName: &quot;&quot;, id: 11, branchId: 0, recurseId: &#45;1, attributes: 0, notes: &quot;A boolean value for whether or not we should darken the screen (has a 0 or 1 value)&quot; -->
<g id="node12" class="node">
<title>11</title>
<ellipse fill="none" stroke="black" cx="579.77" cy="-720" rx="63.89" ry="18"/>
<text text-anchor="middle" x="579.77" y="-716.3" font-family="Times New Roman,serif" font-size="14.00">Darken Screen</text>
</g>
<!-- 6&#45;&gt;11 -->
<g id="edge11" class="edge">
<title>6&#45;&gt;11</title>
<path fill="none" stroke="black" d="M468.25,-698.4C482.27,-701.14 499.9,-704.59 516.94,-707.92"/>
<polygon fill="black" stroke="black" points="516.39,-711.37 526.88,-709.86 517.73,-704.5 516.39,-711.37"/>
</g>
<!-- 13 -->
<!-- name: &quot;Color&quot;, typeName: &quot;&quot;, id: 13, branchId: 0, recurseId: &#45;1, attributes: 0, notes: &quot;color for the boss bar, listed in an enumeration&quot; -->
<g id="node14" class="node">
<title>13</title>
<ellipse fill="none" stroke="black" cx="579.77" cy="-666" rx="31.7" ry="18"/>
<text text-anchor="middle" x="579.77" y="-662.3" font-family="Times New Roman,serif" font-size="14.00">Color</text>
</g>
<!-- 6&#45;&gt;13 -->
<g id="edge13" class="edge">
<title>6&#45;&gt;13</title>
<path fill="none" stroke="black" d="M468.25,-687.6C488.6,-683.62 516.56,-678.16 539.27,-673.72"/>
<polygon fill="black" stroke="black" points="540.14,-677.12 549.28,-671.76 538.8,-670.25 540.14,-677.12"/>
</g>
<!-- 15 -->
<!-- name: &quot;Overlay&quot;, typeName: &quot;&quot;, id: 15, branchId: 0, recurseId: &#45;1, attributes: 0, notes: &quot;overlay for the boss bar, listed in an enumeration&quot; -->
<g id="node16" class="node">
<title>15</title>
<ellipse fill="none" stroke="black" cx="579.77" cy="-612" rx="38.99" ry="18"/>
<text text-anchor="middle" x="579.77" y="-608.3" font-family="Times New Roman,serif" font-size="14.00">Overlay</text>
</g>
<!-- 6&#45;&gt;15 -->
<g id="edge15" class="edge">
<title>6&#45;&gt;15</title>
<path fill="none" stroke="black" d="M454.76,-681.48C469.47,-669.82 493.49,-651.75 516.07,-639 523.56,-634.77 531.85,-630.77 539.87,-627.21"/>
<polygon fill="black" stroke="black" points="541.31,-630.4 549.11,-623.24 538.54,-623.97 541.31,-630.4"/>
</g>
<!-- 8 -->
<!-- name: &quot;string&quot;, typeName: &quot;&quot;, id: 8, branchId: 0, recurseId: &#45;1, attributes: 512, notes: &quot;&quot; -->
<g id="node9" class="node">
<title>8</title>
<ellipse fill="none" stroke="black" cx="746.41" cy="-828" rx="30.59" ry="18"/>
<text text-anchor="middle" x="746.41" y="-824.3" font-family="Times New Roman,serif" font-size="14.00">string</text>
</g>
<!-- 7&#45;&gt;8 -->
<g id="edge8" class="edge">
<title>7&#45;&gt;8</title>
<path fill="none" stroke="black" d="M611.73,-828C638.28,-828 676.69,-828 705.53,-828"/>
<polygon fill="black" stroke="black" points="705.69,-831.5 715.69,-828 705.69,-824.5 705.69,-831.5"/>
</g>
<!-- 10 -->
<!-- name: &quot;float&quot;, typeName: &quot;&quot;, id: 10, branchId: 0, recurseId: &#45;1, attributes: 512, notes: &quot;&quot; -->
<g id="node11" class="node">
<title>10</title>
<ellipse fill="none" stroke="black" cx="746.41" cy="-774" rx="27" ry="18"/>
<text text-anchor="middle" x="746.41" y="-770.3" font-family="Times New Roman,serif" font-size="14.00">float</text>
</g>
<!-- 9&#45;&gt;10 -->
<g id="edge10" class="edge">
<title>9&#45;&gt;10</title>
<path fill="none" stroke="black" d="M643.48,-774C665.71,-774 689.98,-774 709.25,-774"/>
<polygon fill="black" stroke="black" points="709.4,-777.5 719.4,-774 709.4,-770.5 709.4,-777.5"/>
</g>
<!-- 12 -->
<!-- name: &quot;unsigned short&quot;, typeName: &quot;&quot;, id: 12, branchId: 0, recurseId: &#45;1, attributes: 512, notes: &quot;&quot; -->
<g id="node13" class="node">
<title>12</title>
<ellipse fill="none" stroke="black" cx="746.41" cy="-720" rx="63.89" ry="18"/>
<text text-anchor="middle" x="746.41" y="-716.3" font-family="Times New Roman,serif" font-size="14.00">unsigned short</text>
</g>
<!-- 11&#45;&gt;12 -->
<g id="edge12" class="edge">
<title>11&#45;&gt;12</title>
<path fill="none" stroke="black" d="M643.48,-720C652.99,-720 662.87,-720 672.57,-720"/>
<polygon fill="black" stroke="black" points="672.59,-723.5 682.59,-720 672.59,-716.5 672.59,-723.5"/>
</g>
<!-- 14 -->
<!-- name: &quot;unsigned varint&quot;, typeName: &quot;&quot;, id: 14, branchId: 0, recurseId: &#45;1, attributes: 512, notes: &quot;&quot; -->
<g id="node15" class="node">
<title>14</title>
<ellipse fill="none" stroke="black" cx="746.41" cy="-666" rx="65.79" ry="18"/>
<text text-anchor="middle" x="746.41" y="-662.3" font-family="Times New Roman,serif" font-size="14.00">unsigned varint</text>
</g>
<!-- 13&#45;&gt;14 -->
<g id="edge14" class="edge">
<title>13&#45;&gt;14</title>
<path fill="none" stroke="black" d="M611.73,-666C628.38,-666 649.7,-666 670.4,-666"/>
<polygon fill="black" stroke="black" points="670.48,-669.5 680.48,-666 670.48,-662.5 670.48,-669.5"/>
</g>
<!-- 16 -->
<!-- name: &quot;unsigned varint&quot;, typeName: &quot;&quot;, id: 16, branchId: 0, recurseId: &#45;1, attributes: 512, notes: &quot;&quot; -->
<g id="node17" class="node">
<title>16</title>
<ellipse fill="none" stroke="black" cx="746.41" cy="-612" rx="65.79" ry="18"/>
<text text-anchor="middle" x="746.41" y="-608.3" font-family="Times New Roman,serif" font-size="14.00">unsigned varint</text>
</g>
<!-- 15&#45;&gt;16 -->
<g id="edge16" class="edge">
<title>15&#45;&gt;16</title>
<path fill="none" stroke="black" d="M618.95,-612C634.28,-612 652.5,-612 670.27,-612"/>
<polygon fill="black" stroke="black" points="670.66,-615.5 680.66,-612 670.66,-608.5 670.66,-615.5"/>
</g>
<!-- 18 -->
<!-- name: &quot;Player ID&quot;, typeName: &quot;ActorUniqueID&quot;, id: 18, branchId: 0, recurseId: &#45;1, attributes: 256, notes: &quot;&quot; -->
<g id="node19" class="node">
<title>18</title>
<ellipse fill="none" stroke="black" cx="579.77" cy="-558" rx="44.69" ry="18"/>
<text text-anchor="middle" x="579.77" y="-554.3" font-family="Times New Roman,serif" font-size="14.00">Player ID</text>
</g>
<!-- 17&#45;&gt;18 -->
<g id="edge18" class="edge">
<title>17&#45;&gt;18</title>
<path fill="none" stroke="black" d="M480.21,-558C494.08,-558 509.89,-558 524.73,-558"/>
<polygon fill="black" stroke="black" points="524.81,-561.5 534.81,-558 524.81,-554.5 524.81,-561.5"/>
</g>
<!-- 19 -->
<!-- name: &quot;ActorUniqueID&quot;, typeName: &quot;&quot;, id: 19, branchId: 0, recurseId: &#45;1, attributes: 512, notes: &quot;&quot; -->
<g id="node20" class="node">
<title>19</title>
<ellipse fill="none" stroke="black" cx="746.41" cy="-558" rx="66.89" ry="18"/>
<text text-anchor="middle" x="746.41" y="-554.3" font-family="Times New Roman,serif" font-size="14.00">ActorUniqueID</text>
</g>
<!-- 18&#45;&gt;19 -->
<g id="edge19" class="edge">
<title>18&#45;&gt;19</title>
<path fill="none" stroke="black" d="M624.89,-558C638.43,-558 653.75,-558 668.81,-558"/>
<polygon fill="black" stroke="black" points="669.17,-561.5 679.17,-558 669.17,-554.5 669.17,-561.5"/>
</g>
<!-- 21 -->
<!-- name: &quot;[No Data]&quot;, typeName: &quot;&quot;, id: 21, branchId: 0, recurseId: &#45;1, attributes: 512, notes: &quot;&quot; -->
<g id="node22" class="node">
<title>21</title>
<ellipse fill="none" stroke="black" cx="746.41" cy="-504" rx="46.59" ry="18"/>
<text text-anchor="middle" x="746.41" y="-500.3" font-family="Times New Roman,serif" font-size="14.00">[No Data]</text>
</g>
<!-- 20&#45;&gt;21 -->
<g id="edge21" class="edge">
<title>20&#45;&gt;21</title>
<path fill="none" stroke="black" d="M480.16,-504C533.45,-504 628.63,-504 689.31,-504"/>
<polygon fill="black" stroke="black" points="689.48,-507.5 699.48,-504 689.48,-500.5 689.48,-507.5"/>
</g>
<!-- 23 -->
<!-- name: &quot;Player ID&quot;, typeName: &quot;ActorUniqueID&quot;, id: 23, branchId: 0, recurseId: &#45;1, attributes: 256, notes: &quot;&quot; -->
<g id="node24" class="node">
<title>23</title>
<ellipse fill="none" stroke="black" cx="579.77" cy="-450" rx="44.69" ry="18"/>
<text text-anchor="middle" x="579.77" y="-446.3" font-family="Times New Roman,serif" font-size="14.00">Player ID</text>
</g>
<!-- 22&#45;&gt;23 -->
<g id="edge23" class="edge">
<title>22&#45;&gt;23</title>
<path fill="none" stroke="black" d="M480.21,-450C494.08,-450 509.89,-450 524.73,-450"/>
<polygon fill="black" stroke="black" points="524.81,-453.5 534.81,-450 524.81,-446.5 524.81,-453.5"/>
</g>
<!-- 24 -->
<!-- name: &quot;ActorUniqueID&quot;, typeName: &quot;&quot;, id: 24, branchId: 0, recurseId: &#45;1, attributes: 512, notes: &quot;&quot; -->
<g id="node25" class="node">
<title>24</title>
<ellipse fill="none" stroke="black" cx="746.41" cy="-450" rx="66.89" ry="18"/>
<text text-anchor="middle" x="746.41" y="-446.3" font-family="Times New Roman,serif" font-size="14.00">ActorUniqueID</text>
</g>
<!-- 23&#45;&gt;24 -->
<g id="edge24" class="edge">
<title>23&#45;&gt;24</title>
<path fill="none" stroke="black" d="M624.89,-450C638.43,-450 653.75,-450 668.81,-450"/>
<polygon fill="black" stroke="black" points="669.17,-453.5 679.17,-450 669.17,-446.5 669.17,-453.5"/>
</g>
<!-- 26 -->
<!-- name: &quot;Health Percent&quot;, typeName: &quot;&quot;, id: 26, branchId: 0, recurseId: &#45;1, attributes: 0, notes: &quot;&quot; -->
<g id="node27" class="node">
<title>26</title>
<ellipse fill="none" stroke="black" cx="579.77" cy="-396" rx="63.89" ry="18"/>
<text text-anchor="middle" x="579.77" y="-392.3" font-family="Times New Roman,serif" font-size="14.00">Health Percent</text>
</g>
<!-- 25&#45;&gt;26 -->
<g id="edge26" class="edge">
<title>25&#45;&gt;26</title>
<path fill="none" stroke="black" d="M480.21,-396C488.32,-396 497.1,-396 505.96,-396"/>
<polygon fill="black" stroke="black" points="505.97,-399.5 515.97,-396 505.97,-392.5 505.97,-399.5"/>
</g>
<!-- 27 -->
<!-- name: &quot;float&quot;, typeName: &quot;&quot;, id: 27, branchId: 0, recurseId: &#45;1, attributes: 512, notes: &quot;&quot; -->
<g id="node28" class="node">
<title>27</title>
<ellipse fill="none" stroke="black" cx="746.41" cy="-396" rx="27" ry="18"/>
<text text-anchor="middle" x="746.41" y="-392.3" font-family="Times New Roman,serif" font-size="14.00">float</text>
</g>
<!-- 26&#45;&gt;27 -->
<g id="edge27" class="edge">
<title>26&#45;&gt;27</title>
<path fill="none" stroke="black" d="M643.48,-396C665.71,-396 689.98,-396 709.25,-396"/>
<polygon fill="black" stroke="black" points="709.4,-399.5 719.4,-396 709.4,-392.5 709.4,-399.5"/>
</g>
<!-- 29 -->
<!-- name: &quot;Name&quot;, typeName: &quot;&quot;, id: 29, branchId: 0, recurseId: &#45;1, attributes: 0, notes: &quot;&quot; -->
<g id="node30" class="node">
<title>29</title>
<ellipse fill="none" stroke="black" cx="579.77" cy="-342" rx="31.7" ry="18"/>
<text text-anchor="middle" x="579.77" y="-338.3" font-family="Times New Roman,serif" font-size="14.00">Name</text>
</g>
<!-- 28&#45;&gt;29 -->
<g id="edge29" class="edge">
<title>28&#45;&gt;29</title>
<path fill="none" stroke="black" d="M480.21,-342C498.08,-342 519.17,-342 537.26,-342"/>
<polygon fill="black" stroke="black" points="537.51,-345.5 547.51,-342 537.51,-338.5 537.51,-345.5"/>
</g>
<!-- 30 -->
<!-- name: &quot;string&quot;, typeName: &quot;&quot;, id: 30, branchId: 0, recurseId: &#45;1, attributes: 512, notes: &quot;&quot; -->
<g id="node31" class="node">
<title>30</title>
<ellipse fill="none" stroke="black" cx="746.41" cy="-342" rx="30.59" ry="18"/>
<text text-anchor="middle" x="746.41" y="-338.3" font-family="Times New Roman,serif" font-size="14.00">string</text>
</g>
<!-- 29&#45;&gt;30 -->
<g id="edge30" class="edge">
<title>29&#45;&gt;30</title>
<path fill="none" stroke="black" d="M611.73,-342C638.28,-342 676.69,-342 705.53,-342"/>
<polygon fill="black" stroke="black" points="705.69,-345.5 715.69,-342 705.69,-338.5 705.69,-345.5"/>
</g>
<!-- 32 -->
<!-- name: &quot;Darken Screen&quot;, typeName: &quot;&quot;, id: 32, branchId: 0, recurseId: &#45;1, attributes: 0, notes: &quot;&quot; -->
<g id="node33" class="node">
<title>32</title>
<ellipse fill="none" stroke="black" cx="579.77" cy="-288" rx="63.89" ry="18"/>
<text text-anchor="middle" x="579.77" y="-284.3" font-family="Times New Roman,serif" font-size="14.00">Darken Screen</text>
</g>
<!-- 31&#45;&gt;32 -->
<g id="edge32" class="edge">
<title>31&#45;&gt;32</title>
<path fill="none" stroke="black" d="M468.25,-266.4C482.27,-269.14 499.9,-272.59 516.94,-275.92"/>
<polygon fill="black" stroke="black" points="516.39,-279.37 526.88,-277.86 517.73,-272.5 516.39,-279.37"/>
</g>
<!-- 34 -->
<!-- name: &quot;Color&quot;, typeName: &quot;&quot;, id: 34, branchId: 0, recurseId: &#45;1, attributes: 0, notes: &quot;&quot; -->
<g id="node35" class="node">
<title>34</title>
<ellipse fill="none" stroke="black" cx="579.77" cy="-234" rx="31.7" ry="18"/>
<text text-anchor="middle" x="579.77" y="-230.3" font-family="Times New Roman,serif" font-size="14.00">Color</text>
</g>
<!-- 31&#45;&gt;34 -->
<g id="edge34" class="edge">
<title>31&#45;&gt;34</title>
<path fill="none" stroke="black" d="M468.25,-255.6C488.6,-251.62 516.56,-246.16 539.27,-241.72"/>
<polygon fill="black" stroke="black" points="540.14,-245.12 549.28,-239.76 538.8,-238.25 540.14,-245.12"/>
</g>
<!-- 36 -->
<!-- name: &quot;Overlay&quot;, typeName: &quot;&quot;, id: 36, branchId: 0, recurseId: &#45;1, attributes: 0, notes: &quot;&quot; -->
<g id="node37" class="node">
<title>36</title>
<ellipse fill="none" stroke="black" cx="579.77" cy="-180" rx="38.99" ry="18"/>
<text text-anchor="middle" x="579.77" y="-176.3" font-family="Times New Roman,serif" font-size="14.00">Overlay</text>
</g>
<!-- 31&#45;&gt;36 -->
<g id="edge36" class="edge">
<title>31&#45;&gt;36</title>
<path fill="none" stroke="black" d="M454.76,-249.48C469.47,-237.82 493.49,-219.75 516.07,-207 523.56,-202.77 531.85,-198.77 539.87,-195.21"/>
<polygon fill="black" stroke="black" points="541.31,-198.4 549.11,-191.24 538.54,-191.97 541.31,-198.4"/>
</g>
<!-- 33 -->
<!-- name: &quot;unsigned short&quot;, typeName: &quot;&quot;, id: 33, branchId: 0, recurseId: &#45;1, attributes: 512, notes: &quot;&quot; -->
<g id="node34" class="node">
<title>33</title>
<ellipse fill="none" stroke="black" cx="746.41" cy="-288" rx="63.89" ry="18"/>
<text text-anchor="middle" x="746.41" y="-284.3" font-family="Times New Roman,serif" font-size="14.00">unsigned short</text>
</g>
<!-- 32&#45;&gt;33 -->
<g id="edge33" class="edge">
<title>32&#45;&gt;33</title>
<path fill="none" stroke="black" d="M643.48,-288C652.99,-288 662.87,-288 672.57,-288"/>
<polygon fill="black" stroke="black" points="672.59,-291.5 682.59,-288 672.59,-284.5 672.59,-291.5"/>
</g>
<!-- 35 -->
<!-- name: &quot;unsigned varint&quot;, typeName: &quot;&quot;, id: 35, branchId: 0, recurseId: &#45;1, attributes: 512, notes: &quot;&quot; -->
<g id="node36" class="node">
<title>35</title>
<ellipse fill="none" stroke="black" cx="746.41" cy="-234" rx="65.79" ry="18"/>
<text text-anchor="middle" x="746.41" y="-230.3" font-family="Times New Roman,serif" font-size="14.00">unsigned varint</text>
</g>
<!-- 34&#45;&gt;35 -->
<g id="edge35" class="edge">
<title>34&#45;&gt;35</title>
<path fill="none" stroke="black" d="M611.73,-234C628.38,-234 649.7,-234 670.4,-234"/>
<polygon fill="black" stroke="black" points="670.48,-237.5 680.48,-234 670.48,-230.5 670.48,-237.5"/>
</g>
<!-- 37 -->
<!-- name: &quot;unsigned varint&quot;, typeName: &quot;&quot;, id: 37, branchId: 0, recurseId: &#45;1, attributes: 512, notes: &quot;&quot; -->
<g id="node38" class="node">
<title>37</title>
<ellipse fill="none" stroke="black" cx="746.41" cy="-180" rx="65.79" ry="18"/>
<text text-anchor="middle" x="746.41" y="-176.3" font-family="Times New Roman,serif" font-size="14.00">unsigned varint</text>
</g>
<!-- 36&#45;&gt;37 -->
<g id="edge37" class="edge">
<title>36&#45;&gt;37</title>
<path fill="none" stroke="black" d="M618.95,-180C634.28,-180 652.5,-180 670.27,-180"/>
<polygon fill="black" stroke="black" points="670.66,-183.5 680.66,-180 670.66,-176.5 670.66,-183.5"/>
</g>
<!-- 39 -->
<!-- name: &quot;Color&quot;, typeName: &quot;&quot;, id: 39, branchId: 0, recurseId: &#45;1, attributes: 0, notes: &quot;&quot; -->
<g id="node40" class="node">
<title>39</title>
<ellipse fill="none" stroke="black" cx="579.77" cy="-126" rx="31.7" ry="18"/>
<text text-anchor="middle" x="579.77" y="-122.3" font-family="Times New Roman,serif" font-size="14.00">Color</text>
</g>
<!-- 38&#45;&gt;39 -->
<g id="edge39" class="edge">
<title>38&#45;&gt;39</title>
<path fill="none" stroke="black" d="M480.21,-126C498.08,-126 519.17,-126 537.26,-126"/>
<polygon fill="black" stroke="black" points="537.51,-129.5 547.51,-126 537.51,-122.5 537.51,-129.5"/>
</g>
<!-- 41 -->
<!-- name: &quot;Overlay&quot;, typeName: &quot;&quot;, id: 41, branchId: 0, recurseId: &#45;1, attributes: 0, notes: &quot;&quot; -->
<g id="node42" class="node">
<title>41</title>
<ellipse fill="none" stroke="black" cx="579.77" cy="-72" rx="38.99" ry="18"/>
<text text-anchor="middle" x="579.77" y="-68.3" font-family="Times New Roman,serif" font-size="14.00">Overlay</text>
</g>
<!-- 38&#45;&gt;41 -->
<g id="edge41" class="edge">
<title>38&#45;&gt;41</title>
<path fill="none" stroke="black" d="M461.91,-117.68C482.71,-109.55 514.86,-96.98 540.18,-87.09"/>
<polygon fill="black" stroke="black" points="541.47,-90.34 549.51,-83.44 538.92,-83.82 541.47,-90.34"/>
</g>
<!-- 40 -->
<!-- name: &quot;unsigned varint&quot;, typeName: &quot;&quot;, id: 40, branchId: 0, recurseId: &#45;1, attributes: 512, notes: &quot;&quot; -->
<g id="node41" class="node">
<title>40</title>
<ellipse fill="none" stroke="black" cx="746.41" cy="-126" rx="65.79" ry="18"/>
<text text-anchor="middle" x="746.41" y="-122.3" font-family="Times New Roman,serif" font-size="14.00">unsigned varint</text>
</g>
<!-- 39&#45;&gt;40 -->
<g id="edge40" class="edge">
<title>39&#45;&gt;40</title>
<path fill="none" stroke="black" d="M611.73,-126C628.38,-126 649.7,-126 670.4,-126"/>
<polygon fill="black" stroke="black" points="670.48,-129.5 680.48,-126 670.48,-122.5 670.48,-129.5"/>
</g>
<!-- 42 -->
<!-- name: &quot;unsigned varint&quot;, typeName: &quot;&quot;, id: 42, branchId: 0, recurseId: &#45;1, attributes: 512, notes: &quot;&quot; -->
<g id="node43" class="node">
<title>42</title>
<ellipse fill="none" stroke="black" cx="746.41" cy="-72" rx="65.79" ry="18"/>
<text text-anchor="middle" x="746.41" y="-68.3" font-family="Times New Roman,serif" font-size="14.00">unsigned varint</text>
</g>
<!-- 41&#45;&gt;42 -->
<g id="edge42" class="edge">
<title>41&#45;&gt;42</title>
<path fill="none" stroke="black" d="M618.95,-72C634.28,-72 652.5,-72 670.27,-72"/>
<polygon fill="black" stroke="black" points="670.66,-75.5 680.66,-72 670.66,-68.5 670.66,-75.5"/>
</g>
<!-- 44 -->
<!-- name: &quot;Player ID&quot;, typeName: &quot;ActorUniqueID&quot;, id: 44, branchId: 0, recurseId: &#45;1, attributes: 256, notes: &quot;&quot; -->
<g id="node45" class="node">
<title>44</title>
<ellipse fill="none" stroke="black" cx="579.77" cy="-18" rx="44.69" ry="18"/>
<text text-anchor="middle" x="579.77" y="-14.3" font-family="Times New Roman,serif" font-size="14.00">Player ID</text>
</g>
<!-- 43&#45;&gt;44 -->
<g id="edge44" class="edge">
<title>43&#45;&gt;44</title>
<path fill="none" stroke="black" d="M468.25,-39.6C485.71,-36.19 508.77,-31.68 529.31,-27.67"/>
<polygon fill="black" stroke="black" points="530.01,-31.1 539.15,-25.74 528.67,-24.23 530.01,-31.1"/>
</g>
<!-- 45 -->
<!-- name: &quot;ActorUniqueID&quot;, typeName: &quot;&quot;, id: 45, branchId: 0, recurseId: &#45;1, attributes: 512, notes: &quot;&quot; -->
<g id="node46" class="node">
<title>45</title>
<ellipse fill="none" stroke="black" cx="746.41" cy="-18" rx="66.89" ry="18"/>
<text text-anchor="middle" x="746.41" y="-14.3" font-family="Times New Roman,serif" font-size="14.00">ActorUniqueID</text>
</g>
<!-- 44&#45;&gt;45 -->
<g id="edge45" class="edge">
<title>44&#45;&gt;45</title>
<path fill="none" stroke="black" d="M624.89,-18C638.43,-18 653.75,-18 668.81,-18"/>
<polygon fill="black" stroke="black" points="669.17,-21.5 679.17,-18 669.17,-14.5 669.17,-21.5"/>
</g>
</g>
</svg>
