<?xml version="1.0" encoding="UTF-8" standalone="no"?>
<!DOCTYPE svg PUBLIC "-//W3C//DTD SVG 1.1//EN"
 "http://www.w3.org/Graphics/SVG/1.1/DTD/svg11.dtd">
<!-- Generated by graphviz version 14.1.1 (20251213.1925)
 -->
<!-- Title: CameraInstruction::SplineInstruction Pages: 1 -->
<svg width="1356pt" height="792pt"
 viewBox="0.00 0.00 1356.00 792.00" xmlns="http://www.w3.org/2000/svg" xmlns:xlink="http://www.w3.org/1999/xlink">
<g id="graph0" class="graph" transform="scale(1 1) rotate(0) translate(4 788)">
<title>CameraInstruction::SplineInstruction</title>
<polygon fill="white" stroke="none" points="-4,4 -4,-788 1351.95,-788 1351.95,4 -4,4"/>
<!-- 0 -->
<!-- name: &quot;CameraInstruction::SplineInstruction&quot;, typeName: &quot;&quot;, id: 0, branchId: 0, recurseId: &#45;1, attributes: 0, notes: &quot;&quot; -->
<g id="node1" class="node">
<title>0</title>
<ellipse fill="none" stroke="black" cx="148.59" cy="-578" rx="148.59" ry="18"/>
<text xml:space="preserve" text-anchor="middle" x="148.59" y="-572.95" font-family="Times New Roman,serif" font-size="14.00">CameraInstruction::SplineInstruction</text>
</g>
<!-- 1 -->
<!-- name: &quot;totalTime&quot;, typeName: &quot;&quot;, id: 1, branchId: 0, recurseId: &#45;1, attributes: 0, notes: &quot;&quot; -->
<g id="node2" class="node">
<title>1</title>
<ellipse fill="none" stroke="black" cx="398.36" cy="-759" rx="47.26" ry="18"/>
<text xml:space="preserve" text-anchor="middle" x="398.36" y="-753.95" font-family="Times New Roman,serif" font-size="14.00">totalTime</text>
</g>
<!-- 0&#45;&gt;1 -->
<g id="edge1" class="edge">
<title>0&#45;&gt;1</title>
<path fill="none" stroke="black" d="M174.26,-596.02C219.68,-629.2 316.45,-699.9 366.28,-736.3"/>
<polygon fill="black" stroke="black" points="363.95,-738.92 374.09,-742 368.08,-733.27 363.95,-738.92"/>
</g>
<!-- 3 -->
<!-- name: &quot;type&quot;, typeName: &quot;&quot;, id: 3, branchId: 0, recurseId: &#45;1, attributes: 0, notes: &quot;&quot; -->
<g id="node4" class="node">
<title>3</title>
<ellipse fill="none" stroke="black" cx="398.36" cy="-678" rx="27" ry="18"/>
<text xml:space="preserve" text-anchor="middle" x="398.36" y="-672.95" font-family="Times New Roman,serif" font-size="14.00">type</text>
</g>
<!-- 0&#45;&gt;3 -->
<g id="edge3" class="edge">
<title>0&#45;&gt;3</title>
<path fill="none" stroke="black" d="M193.32,-595.65C242.11,-615.34 319.98,-646.77 364.07,-664.57"/>
<polygon fill="black" stroke="black" points="362.53,-667.72 373.11,-668.21 365.15,-661.23 362.53,-667.72"/>
</g>
<!-- 5 -->
<!-- name: &quot;curve&quot;, typeName: &quot;&quot;, id: 5, branchId: 0, recurseId: &#45;1, attributes: 0, notes: &quot;&quot; -->
<g id="node6" class="node">
<title>5</title>
<ellipse fill="none" stroke="black" cx="584.66" cy="-578" rx="31.39" ry="18"/>
<text xml:space="preserve" text-anchor="middle" x="584.66" y="-572.95" font-family="Times New Roman,serif" font-size="14.00">curve</text>
</g>
<!-- 0&#45;&gt;5 -->
<g id="edge5" class="edge">
<title>0&#45;&gt;5</title>
<path fill="none" stroke="black" d="M297.46,-578C383.47,-578 485.67,-578 541.71,-578"/>
<polygon fill="black" stroke="black" points="541.43,-581.5 551.43,-578 541.43,-574.5 541.43,-581.5"/>
</g>
<!-- 15 -->
<!-- name: &quot;progressKeyFrames&quot;, typeName: &quot;&quot;, id: 15, branchId: 0, recurseId: &#45;1, attributes: 0, notes: &quot;&quot; -->
<g id="node16" class="node">
<title>15</title>
<ellipse fill="none" stroke="black" cx="584.66" cy="-450" rx="85.13" ry="18"/>
<text xml:space="preserve" text-anchor="middle" x="584.66" y="-444.95" font-family="Times New Roman,serif" font-size="14.00">progressKeyFrames</text>
</g>
<!-- 0&#45;&gt;15 -->
<g id="edge15" class="edge">
<title>0&#45;&gt;15</title>
<path fill="none" stroke="black" d="M207.24,-561C289.23,-536.82 438.86,-492.7 522.66,-467.99"/>
<polygon fill="black" stroke="black" points="523.48,-471.4 532.08,-465.21 521.5,-464.68 523.48,-471.4"/>
</g>
<!-- 25 -->
<!-- name: &quot;rotationOption&quot;, typeName: &quot;&quot;, id: 25, branchId: 0, recurseId: &#45;1, attributes: 0, notes: &quot;&quot; -->
<g id="node26" class="node">
<title>25</title>
<ellipse fill="none" stroke="black" cx="398.36" cy="-261" rx="65.17" ry="18"/>
<text xml:space="preserve" text-anchor="middle" x="398.36" y="-255.95" font-family="Times New Roman,serif" font-size="14.00">rotationOption</text>
</g>
<!-- 0&#45;&gt;25 -->
<g id="edge25" class="edge">
<title>0&#45;&gt;25</title>
<path fill="none" stroke="black" d="M163.63,-560.05C205.11,-506.98 327.32,-350.61 376.51,-287.68"/>
<polygon fill="black" stroke="black" points="379.15,-289.98 382.55,-279.95 373.64,-285.67 379.15,-289.98"/>
</g>
<!-- 2 -->
<!-- name: &quot;float&quot;, typeName: &quot;&quot;, id: 2, branchId: 0, recurseId: &#45;1, attributes: 512, notes: &quot;&quot; -->
<g id="node3" class="node">
<title>2</title>
<ellipse fill="none" stroke="black" cx="1254.63" cy="-766" rx="27.81" ry="18"/>
<text xml:space="preserve" text-anchor="middle" x="1254.63" y="-760.95" font-family="Times New Roman,serif" font-size="14.00">float</text>
</g>
<!-- 1&#45;&gt;2 -->
<g id="edge2" class="edge">
<title>1&#45;&gt;2</title>
<path fill="none" stroke="black" d="M445.9,-759.38C597.63,-760.62 1076.25,-764.55 1215.36,-765.69"/>
<polygon fill="black" stroke="black" points="1215.1,-769.18 1225.13,-765.77 1215.16,-762.18 1215.1,-769.18"/>
</g>
<!-- 4 -->
<!-- name: &quot;unsigned byte&quot;, typeName: &quot;&quot;, id: 4, branchId: 0, recurseId: &#45;1, attributes: 512, notes: &quot;&quot; -->
<g id="node5" class="node">
<title>4</title>
<ellipse fill="none" stroke="black" cx="1254.63" cy="-712" rx="62.61" ry="18"/>
<text xml:space="preserve" text-anchor="middle" x="1254.63" y="-706.95" font-family="Times New Roman,serif" font-size="14.00">unsigned byte</text>
</g>
<!-- 3&#45;&gt;4 -->
<g id="edge4" class="edge">
<title>3&#45;&gt;4</title>
<path fill="none" stroke="black" d="M425.39,-679.04C539.83,-683.59 1000.52,-701.93 1180.79,-709.1"/>
<polygon fill="black" stroke="black" points="1180.61,-712.6 1190.74,-709.5 1180.89,-705.6 1180.61,-712.6"/>
</g>
<!-- 6 -->
<!-- name: &quot;List Size&quot;, typeName: &quot;&quot;, id: 6, branchId: 0, recurseId: &#45;1, attributes: 0, notes: &quot;&quot; -->
<g id="node7" class="node">
<title>6</title>
<ellipse fill="none" stroke="black" cx="801.67" cy="-643" rx="43.67" ry="18"/>
<text xml:space="preserve" text-anchor="middle" x="801.67" y="-637.95" font-family="Times New Roman,serif" font-size="14.00">List Size</text>
</g>
<!-- 5&#45;&gt;6 -->
<g id="edge6" class="edge">
<title>5&#45;&gt;6</title>
<path fill="none" stroke="black" d="M612.89,-586.23C648.65,-597.04 711.94,-616.18 755.07,-629.21"/>
<polygon fill="black" stroke="black" points="753.81,-632.49 764.39,-632.03 755.83,-625.79 753.81,-632.49"/>
</g>
<!-- 8 -->
<!-- name: &quot;example element&quot;, typeName: &quot;&quot;, id: 8, branchId: 0, recurseId: &#45;1, attributes: 16, notes: &quot;&quot; -->
<g id="node9" class="node">
<title>8</title>
<ellipse fill="none" stroke="black" stroke-dasharray="1,5" cx="801.67" cy="-565" rx="74.89" ry="18"/>
<text xml:space="preserve" text-anchor="middle" x="801.67" y="-559.95" font-family="Times New Roman,serif" font-size="14.00">example element</text>
</g>
<!-- 5&#45;&gt;8 -->
<g id="edge8" class="edge">
<title>5&#45;&gt;8</title>
<path fill="none" stroke="black" d="M616.01,-576.16C642.33,-574.57 681.7,-572.19 717.33,-570.04"/>
<polygon fill="black" stroke="black" points="717.46,-573.54 727.23,-569.44 717.04,-566.55 717.46,-573.54"/>
</g>
<!-- 7 -->
<!-- name: &quot;unsigned varint&quot;, typeName: &quot;&quot;, id: 7, branchId: 0, recurseId: &#45;1, attributes: 0, notes: &quot;&quot; -->
<g id="node8" class="node">
<title>7</title>
<ellipse fill="none" stroke="black" cx="1029.43" cy="-666" rx="68.24" ry="18"/>
<text xml:space="preserve" text-anchor="middle" x="1029.43" y="-660.95" font-family="Times New Roman,serif" font-size="14.00">unsigned varint</text>
</g>
<!-- 6&#45;&gt;7 -->
<g id="edge7" class="edge">
<title>6&#45;&gt;7</title>
<path fill="none" stroke="black" d="M844.6,-647.27C875.34,-650.4 917.89,-654.74 954.3,-658.45"/>
<polygon fill="black" stroke="black" points="953.58,-661.89 963.88,-659.42 954.29,-654.93 953.58,-661.89"/>
</g>
<!-- 9 -->
<!-- name: &quot;X&quot;, typeName: &quot;&quot;, id: 9, branchId: 0, recurseId: &#45;1, attributes: 0, notes: &quot;&quot; -->
<g id="node10" class="node">
<title>9</title>
<ellipse fill="none" stroke="black" cx="1029.43" cy="-612" rx="27" ry="18"/>
<text xml:space="preserve" text-anchor="middle" x="1029.43" y="-606.95" font-family="Times New Roman,serif" font-size="14.00">X</text>
</g>
<!-- 8&#45;&gt;9 -->
<g id="edge9" class="edge">
<title>8&#45;&gt;9</title>
<path fill="none" stroke="black" d="M859.35,-576.8C901.07,-585.49 956.54,-597.03 992.37,-604.49"/>
<polygon fill="black" stroke="black" points="991.29,-607.84 1001.79,-606.45 992.71,-600.99 991.29,-607.84"/>
</g>
<!-- 11 -->
<!-- name: &quot;Y&quot;, typeName: &quot;&quot;, id: 11, branchId: 0, recurseId: &#45;1, attributes: 0, notes: &quot;&quot; -->
<g id="node12" class="node">
<title>11</title>
<ellipse fill="none" stroke="black" cx="1029.43" cy="-558" rx="27" ry="18"/>
<text xml:space="preserve" text-anchor="middle" x="1029.43" y="-552.95" font-family="Times New Roman,serif" font-size="14.00">Y</text>
</g>
<!-- 8&#45;&gt;11 -->
<g id="edge11" class="edge">
<title>8&#45;&gt;11</title>
<path fill="none" stroke="black" d="M876.28,-562.72C914.62,-561.53 959.86,-560.13 990.98,-559.16"/>
<polygon fill="black" stroke="black" points="990.78,-562.67 1000.67,-558.86 990.56,-555.67 990.78,-562.67"/>
</g>
<!-- 13 -->
<!-- name: &quot;Z&quot;, typeName: &quot;&quot;, id: 13, branchId: 0, recurseId: &#45;1, attributes: 0, notes: &quot;&quot; -->
<g id="node14" class="node">
<title>13</title>
<ellipse fill="none" stroke="black" cx="1029.43" cy="-504" rx="27" ry="18"/>
<text xml:space="preserve" text-anchor="middle" x="1029.43" y="-498.95" font-family="Times New Roman,serif" font-size="14.00">Z</text>
</g>
<!-- 8&#45;&gt;13 -->
<g id="edge13" class="edge">
<title>8&#45;&gt;13</title>
<path fill="none" stroke="black" d="M852.77,-551.46C895.27,-539.98 955.18,-523.79 992.89,-513.6"/>
<polygon fill="black" stroke="black" points="993.64,-517.03 1002.38,-511.04 991.81,-510.27 993.64,-517.03"/>
</g>
<!-- 10 -->
<!-- name: &quot;float&quot;, typeName: &quot;&quot;, id: 10, branchId: 0, recurseId: &#45;1, attributes: 512, notes: &quot;&quot; -->
<g id="node11" class="node">
<title>10</title>
<ellipse fill="none" stroke="black" cx="1254.63" cy="-612" rx="27.81" ry="18"/>
<text xml:space="preserve" text-anchor="middle" x="1254.63" y="-606.95" font-family="Times New Roman,serif" font-size="14.00">float</text>
</g>
<!-- 9&#45;&gt;10 -->
<g id="edge10" class="edge">
<title>9&#45;&gt;10</title>
<path fill="none" stroke="black" d="M1056.91,-612C1096.13,-612 1169.88,-612 1215.09,-612"/>
<polygon fill="black" stroke="black" points="1214.97,-615.5 1224.97,-612 1214.97,-608.5 1214.97,-615.5"/>
</g>
<!-- 12 -->
<!-- name: &quot;float&quot;, typeName: &quot;&quot;, id: 12, branchId: 0, recurseId: &#45;1, attributes: 512, notes: &quot;&quot; -->
<g id="node13" class="node">
<title>12</title>
<ellipse fill="none" stroke="black" cx="1254.63" cy="-558" rx="27.81" ry="18"/>
<text xml:space="preserve" text-anchor="middle" x="1254.63" y="-552.95" font-family="Times New Roman,serif" font-size="14.00">float</text>
</g>
<!-- 11&#45;&gt;12 -->
<g id="edge12" class="edge">
<title>11&#45;&gt;12</title>
<path fill="none" stroke="black" d="M1056.91,-558C1096.13,-558 1169.88,-558 1215.09,-558"/>
<polygon fill="black" stroke="black" points="1214.97,-561.5 1224.97,-558 1214.97,-554.5 1214.97,-561.5"/>
</g>
<!-- 14 -->
<!-- name: &quot;float&quot;, typeName: &quot;&quot;, id: 14, branchId: 0, recurseId: &#45;1, attributes: 512, notes: &quot;&quot; -->
<g id="node15" class="node">
<title>14</title>
<ellipse fill="none" stroke="black" cx="1254.63" cy="-504" rx="27.81" ry="18"/>
<text xml:space="preserve" text-anchor="middle" x="1254.63" y="-498.95" font-family="Times New Roman,serif" font-size="14.00">float</text>
</g>
<!-- 13&#45;&gt;14 -->
<g id="edge14" class="edge">
<title>13&#45;&gt;14</title>
<path fill="none" stroke="black" d="M1056.91,-504C1096.13,-504 1169.88,-504 1215.09,-504"/>
<polygon fill="black" stroke="black" points="1214.97,-507.5 1224.97,-504 1214.97,-500.5 1214.97,-507.5"/>
</g>
<!-- 16 -->
<!-- name: &quot;List Size&quot;, typeName: &quot;&quot;, id: 16, branchId: 0, recurseId: &#45;1, attributes: 0, notes: &quot;&quot; -->
<g id="node17" class="node">
<title>16</title>
<ellipse fill="none" stroke="black" cx="801.67" cy="-450" rx="43.67" ry="18"/>
<text xml:space="preserve" text-anchor="middle" x="801.67" y="-444.95" font-family="Times New Roman,serif" font-size="14.00">List Size</text>
</g>
<!-- 15&#45;&gt;16 -->
<g id="edge16" class="edge">
<title>15&#45;&gt;16</title>
<path fill="none" stroke="black" d="M670.02,-450C695.69,-450 723.2,-450 746.32,-450"/>
<polygon fill="black" stroke="black" points="746.13,-453.5 756.13,-450 746.13,-446.5 746.13,-453.5"/>
</g>
<!-- 18 -->
<!-- name: &quot;example element&quot;, typeName: &quot;&quot;, id: 18, branchId: 0, recurseId: &#45;1, attributes: 16, notes: &quot;&quot; -->
<g id="node19" class="node">
<title>18</title>
<ellipse fill="none" stroke="black" stroke-dasharray="1,5" cx="801.67" cy="-369" rx="74.89" ry="18"/>
<text xml:space="preserve" text-anchor="middle" x="801.67" y="-363.95" font-family="Times New Roman,serif" font-size="14.00">example element</text>
</g>
<!-- 15&#45;&gt;18 -->
<g id="edge18" class="edge">
<title>15&#45;&gt;18</title>
<path fill="none" stroke="black" d="M627.88,-434.09C662.72,-420.97 712.29,-402.3 749.4,-388.31"/>
<polygon fill="black" stroke="black" points="750.46,-391.66 758.59,-384.85 747.99,-385.1 750.46,-391.66"/>
</g>
<!-- 17 -->
<!-- name: &quot;unsigned varint&quot;, typeName: &quot;&quot;, id: 17, branchId: 0, recurseId: &#45;1, attributes: 0, notes: &quot;&quot; -->
<g id="node18" class="node">
<title>17</title>
<ellipse fill="none" stroke="black" cx="1029.43" cy="-450" rx="68.24" ry="18"/>
<text xml:space="preserve" text-anchor="middle" x="1029.43" y="-444.95" font-family="Times New Roman,serif" font-size="14.00">unsigned varint</text>
</g>
<!-- 16&#45;&gt;17 -->
<g id="edge17" class="edge">
<title>16&#45;&gt;17</title>
<path fill="none" stroke="black" d="M845.67,-450C874.99,-450 914.68,-450 949.58,-450"/>
<polygon fill="black" stroke="black" points="949.22,-453.5 959.22,-450 949.22,-446.5 949.22,-453.5"/>
</g>
<!-- 19 -->
<!-- name: &quot;Key frame value&quot;, typeName: &quot;&quot;, id: 19, branchId: 0, recurseId: &#45;1, attributes: 0, notes: &quot;&quot; -->
<g id="node20" class="node">
<title>19</title>
<ellipse fill="none" stroke="black" cx="1029.43" cy="-396" rx="73.36" ry="18"/>
<text xml:space="preserve" text-anchor="middle" x="1029.43" y="-390.95" font-family="Times New Roman,serif" font-size="14.00">Key frame value</text>
</g>
<!-- 18&#45;&gt;19 -->
<g id="edge19" class="edge">
<title>18&#45;&gt;19</title>
<path fill="none" stroke="black" d="M869.49,-376.99C895.31,-380.08 925.02,-383.63 951.71,-386.83"/>
<polygon fill="black" stroke="black" points="951.1,-390.28 961.44,-387.99 951.93,-383.33 951.1,-390.28"/>
</g>
<!-- 21 -->
<!-- name: &quot;Key frame time&quot;, typeName: &quot;&quot;, id: 21, branchId: 0, recurseId: &#45;1, attributes: 0, notes: &quot;&quot; -->
<g id="node22" class="node">
<title>21</title>
<ellipse fill="none" stroke="black" cx="1029.43" cy="-342" rx="70.29" ry="18"/>
<text xml:space="preserve" text-anchor="middle" x="1029.43" y="-336.95" font-family="Times New Roman,serif" font-size="14.00">Key frame time</text>
</g>
<!-- 18&#45;&gt;21 -->
<g id="edge21" class="edge">
<title>18&#45;&gt;21</title>
<path fill="none" stroke="black" d="M869.49,-361.01C896.12,-357.82 926.87,-354.15 954.19,-350.88"/>
<polygon fill="black" stroke="black" points="954.25,-354.4 963.76,-349.73 953.42,-347.45 954.25,-354.4"/>
</g>
<!-- 23 -->
<!-- name: &quot;Key frame easing func&quot;, typeName: &quot;&quot;, id: 23, branchId: 0, recurseId: &#45;1, attributes: 0, notes: &quot;&quot; -->
<g id="node24" class="node">
<title>23</title>
<ellipse fill="none" stroke="black" cx="1029.43" cy="-288" rx="95.88" ry="18"/>
<text xml:space="preserve" text-anchor="middle" x="1029.43" y="-282.95" font-family="Times New Roman,serif" font-size="14.00">Key frame easing func</text>
</g>
<!-- 18&#45;&gt;23 -->
<g id="edge23" class="edge">
<title>18&#45;&gt;23</title>
<path fill="none" stroke="black" d="M838.35,-352.98C864.43,-341.6 900.81,-326.37 933.55,-315 942.44,-311.91 951.9,-308.9 961.25,-306.08"/>
<polygon fill="black" stroke="black" points="962.1,-309.48 970.71,-303.3 960.12,-302.77 962.1,-309.48"/>
</g>
<!-- 20 -->
<!-- name: &quot;float&quot;, typeName: &quot;&quot;, id: 20, branchId: 0, recurseId: &#45;1, attributes: 512, notes: &quot;&quot; -->
<g id="node21" class="node">
<title>20</title>
<ellipse fill="none" stroke="black" cx="1254.63" cy="-396" rx="27.81" ry="18"/>
<text xml:space="preserve" text-anchor="middle" x="1254.63" y="-390.95" font-family="Times New Roman,serif" font-size="14.00">float</text>
</g>
<!-- 19&#45;&gt;20 -->
<g id="edge20" class="edge">
<title>19&#45;&gt;20</title>
<path fill="none" stroke="black" d="M1103.2,-396C1140.49,-396 1184.38,-396 1215.09,-396"/>
<polygon fill="black" stroke="black" points="1215.07,-399.5 1225.07,-396 1215.07,-392.5 1215.07,-399.5"/>
</g>
<!-- 22 -->
<!-- name: &quot;float&quot;, typeName: &quot;&quot;, id: 22, branchId: 0, recurseId: &#45;1, attributes: 512, notes: &quot;&quot; -->
<g id="node23" class="node">
<title>22</title>
<ellipse fill="none" stroke="black" cx="1254.63" cy="-342" rx="27.81" ry="18"/>
<text xml:space="preserve" text-anchor="middle" x="1254.63" y="-336.95" font-family="Times New Roman,serif" font-size="14.00">float</text>
</g>
<!-- 21&#45;&gt;22 -->
<g id="edge22" class="edge">
<title>21&#45;&gt;22</title>
<path fill="none" stroke="black" d="M1100.13,-342C1138.01,-342 1183.43,-342 1214.99,-342"/>
<polygon fill="black" stroke="black" points="1214.85,-345.5 1224.85,-342 1214.85,-338.5 1214.85,-345.5"/>
</g>
<!-- 24 -->
<!-- name: &quot;enum easing_function&quot;, typeName: &quot;&quot;, id: 24, branchId: 0, recurseId: &#45;1, attributes: 512, notes: &quot;&quot; -->
<g id="node25" class="node">
<title>24</title>
<ellipse fill="none" stroke="black" cx="1254.63" cy="-288" rx="93.32" ry="18"/>
<text xml:space="preserve" text-anchor="middle" x="1254.63" y="-282.95" font-family="Times New Roman,serif" font-size="14.00">enum easing_function</text>
</g>
<!-- 23&#45;&gt;24 -->
<g id="edge24" class="edge">
<title>23&#45;&gt;24</title>
<path fill="none" stroke="black" d="M1125.73,-288C1133.7,-288 1141.79,-288 1149.82,-288"/>
<polygon fill="black" stroke="black" points="1149.61,-291.5 1159.61,-288 1149.61,-284.5 1149.61,-291.5"/>
</g>
<!-- 26 -->
<!-- name: &quot;List Size&quot;, typeName: &quot;&quot;, id: 26, branchId: 0, recurseId: &#45;1, attributes: 0, notes: &quot;&quot; -->
<g id="node27" class="node">
<title>26</title>
<ellipse fill="none" stroke="black" cx="584.66" cy="-261" rx="43.67" ry="18"/>
<text xml:space="preserve" text-anchor="middle" x="584.66" y="-255.95" font-family="Times New Roman,serif" font-size="14.00">List Size</text>
</g>
<!-- 25&#45;&gt;26 -->
<g id="edge26" class="edge">
<title>25&#45;&gt;26</title>
<path fill="none" stroke="black" d="M463.82,-261C485.18,-261 508.72,-261 529.25,-261"/>
<polygon fill="black" stroke="black" points="529.12,-264.5 539.12,-261 529.12,-257.5 529.12,-264.5"/>
</g>
<!-- 28 -->
<!-- name: &quot;example element&quot;, typeName: &quot;&quot;, id: 28, branchId: 0, recurseId: &#45;1, attributes: 16, notes: &quot;&quot; -->
<g id="node29" class="node">
<title>28</title>
<ellipse fill="none" stroke="black" stroke-dasharray="1,5" cx="584.66" cy="-126" rx="74.89" ry="18"/>
<text xml:space="preserve" text-anchor="middle" x="584.66" y="-120.95" font-family="Times New Roman,serif" font-size="14.00">example element</text>
</g>
<!-- 25&#45;&gt;28 -->
<g id="edge28" class="edge">
<title>25&#45;&gt;28</title>
<path fill="none" stroke="black" d="M422.7,-243.9C455.2,-220.09 514.24,-176.85 551.07,-149.87"/>
<polygon fill="black" stroke="black" points="552.71,-153.01 558.71,-144.28 548.57,-147.37 552.71,-153.01"/>
</g>
<!-- 27 -->
<!-- name: &quot;unsigned varint&quot;, typeName: &quot;&quot;, id: 27, branchId: 0, recurseId: &#45;1, attributes: 0, notes: &quot;&quot; -->
<g id="node28" class="node">
<title>27</title>
<ellipse fill="none" stroke="black" cx="801.67" cy="-261" rx="68.24" ry="18"/>
<text xml:space="preserve" text-anchor="middle" x="801.67" y="-255.95" font-family="Times New Roman,serif" font-size="14.00">unsigned varint</text>
</g>
<!-- 26&#45;&gt;27 -->
<g id="edge27" class="edge">
<title>26&#45;&gt;27</title>
<path fill="none" stroke="black" d="M628.65,-261C655.29,-261 690.3,-261 721.78,-261"/>
<polygon fill="black" stroke="black" points="721.68,-264.5 731.68,-261 721.68,-257.5 721.68,-264.5"/>
</g>
<!-- 29 -->
<!-- name: &quot;Key frame value&quot;, typeName: &quot;&quot;, id: 29, branchId: 0, recurseId: &#45;1, attributes: 0, notes: &quot;&quot; -->
<g id="node30" class="node">
<title>29</title>
<ellipse fill="none" stroke="black" cx="801.67" cy="-153" rx="73.36" ry="18"/>
<text xml:space="preserve" text-anchor="middle" x="801.67" y="-147.95" font-family="Times New Roman,serif" font-size="14.00">Key frame value</text>
</g>
<!-- 28&#45;&gt;29 -->
<g id="edge29" class="edge">
<title>28&#45;&gt;29</title>
<path fill="none" stroke="black" d="M651.93,-134.32C674.83,-137.2 700.68,-140.44 724.32,-143.41"/>
<polygon fill="black" stroke="black" points="723.87,-146.88 734.23,-144.66 724.74,-139.94 723.87,-146.88"/>
</g>
<!-- 36 -->
<!-- name: &quot;Key frame time&quot;, typeName: &quot;&quot;, id: 36, branchId: 0, recurseId: &#45;1, attributes: 0, notes: &quot;&quot; -->
<g id="node37" class="node">
<title>36</title>
<ellipse fill="none" stroke="black" cx="801.67" cy="-92" rx="70.29" ry="18"/>
<text xml:space="preserve" text-anchor="middle" x="801.67" y="-86.95" font-family="Times New Roman,serif" font-size="14.00">Key frame time</text>
</g>
<!-- 28&#45;&gt;36 -->
<g id="edge36" class="edge">
<title>28&#45;&gt;36</title>
<path fill="none" stroke="black" d="M648.14,-116.12C673.74,-112.07 703.51,-107.36 729.91,-103.19"/>
<polygon fill="black" stroke="black" points="730.17,-106.69 739.5,-101.67 729.08,-99.78 730.17,-106.69"/>
</g>
<!-- 38 -->
<!-- name: &quot;Key frame easing func&quot;, typeName: &quot;&quot;, id: 38, branchId: 0, recurseId: &#45;1, attributes: 0, notes: &quot;&quot; -->
<g id="node39" class="node">
<title>38</title>
<ellipse fill="none" stroke="black" cx="801.67" cy="-25" rx="95.88" ry="18"/>
<text xml:space="preserve" text-anchor="middle" x="801.67" y="-19.95" font-family="Times New Roman,serif" font-size="14.00">Key frame easing func</text>
</g>
<!-- 28&#45;&gt;38 -->
<g id="edge38" class="edge">
<title>28&#45;&gt;38</title>
<path fill="none" stroke="black" d="M616.98,-109.33C641.05,-96.71 675.24,-79.18 705.79,-65 719.75,-58.52 735.04,-51.88 749.2,-45.92"/>
<polygon fill="black" stroke="black" points="750.49,-49.17 758.37,-42.09 747.79,-42.71 750.49,-49.17"/>
</g>
<!-- 30 -->
<!-- name: &quot;X&quot;, typeName: &quot;&quot;, id: 30, branchId: 0, recurseId: &#45;1, attributes: 0, notes: &quot;&quot; -->
<g id="node31" class="node">
<title>30</title>
<ellipse fill="none" stroke="black" cx="1029.43" cy="-234" rx="27" ry="18"/>
<text xml:space="preserve" text-anchor="middle" x="1029.43" y="-228.95" font-family="Times New Roman,serif" font-size="14.00">X</text>
</g>
<!-- 29&#45;&gt;30 -->
<g id="edge30" class="edge">
<title>29&#45;&gt;30</title>
<path fill="none" stroke="black" d="M838.35,-169.02C864.43,-180.4 900.81,-195.63 933.55,-207 952.79,-213.68 974.64,-219.98 992.51,-224.82"/>
<polygon fill="black" stroke="black" points="991.59,-228.19 1002.15,-227.38 993.39,-221.43 991.59,-228.19"/>
</g>
<!-- 32 -->
<!-- name: &quot;Y&quot;, typeName: &quot;&quot;, id: 32, branchId: 0, recurseId: &#45;1, attributes: 0, notes: &quot;&quot; -->
<g id="node33" class="node">
<title>32</title>
<ellipse fill="none" stroke="black" cx="1029.43" cy="-180" rx="27" ry="18"/>
<text xml:space="preserve" text-anchor="middle" x="1029.43" y="-174.95" font-family="Times New Roman,serif" font-size="14.00">Y</text>
</g>
<!-- 29&#45;&gt;32 -->
<g id="edge32" class="edge">
<title>29&#45;&gt;32</title>
<path fill="none" stroke="black" d="M868.27,-160.85C908.33,-165.64 958.09,-171.59 991.42,-175.57"/>
<polygon fill="black" stroke="black" points="990.63,-179 1000.98,-176.72 991.46,-172.05 990.63,-179"/>
</g>
<!-- 34 -->
<!-- name: &quot;Z&quot;, typeName: &quot;&quot;, id: 34, branchId: 0, recurseId: &#45;1, attributes: 0, notes: &quot;&quot; -->
<g id="node35" class="node">
<title>34</title>
<ellipse fill="none" stroke="black" cx="1029.43" cy="-126" rx="27" ry="18"/>
<text xml:space="preserve" text-anchor="middle" x="1029.43" y="-120.95" font-family="Times New Roman,serif" font-size="14.00">Z</text>
</g>
<!-- 29&#45;&gt;34 -->
<g id="edge34" class="edge">
<title>29&#45;&gt;34</title>
<path fill="none" stroke="black" d="M868.27,-145.15C908.33,-140.36 958.09,-134.41 991.42,-130.43"/>
<polygon fill="black" stroke="black" points="991.46,-133.95 1000.98,-129.28 990.63,-127 991.46,-133.95"/>
</g>
<!-- 31 -->
<!-- name: &quot;float&quot;, typeName: &quot;&quot;, id: 31, branchId: 0, recurseId: &#45;1, attributes: 512, notes: &quot;&quot; -->
<g id="node32" class="node">
<title>31</title>
<ellipse fill="none" stroke="black" cx="1254.63" cy="-234" rx="27.81" ry="18"/>
<text xml:space="preserve" text-anchor="middle" x="1254.63" y="-228.95" font-family="Times New Roman,serif" font-size="14.00">float</text>
</g>
<!-- 30&#45;&gt;31 -->
<g id="edge31" class="edge">
<title>30&#45;&gt;31</title>
<path fill="none" stroke="black" d="M1056.91,-234C1096.13,-234 1169.88,-234 1215.09,-234"/>
<polygon fill="black" stroke="black" points="1214.97,-237.5 1224.97,-234 1214.97,-230.5 1214.97,-237.5"/>
</g>
<!-- 33 -->
<!-- name: &quot;float&quot;, typeName: &quot;&quot;, id: 33, branchId: 0, recurseId: &#45;1, attributes: 512, notes: &quot;&quot; -->
<g id="node34" class="node">
<title>33</title>
<ellipse fill="none" stroke="black" cx="1254.63" cy="-180" rx="27.81" ry="18"/>
<text xml:space="preserve" text-anchor="middle" x="1254.63" y="-174.95" font-family="Times New Roman,serif" font-size="14.00">float</text>
</g>
<!-- 32&#45;&gt;33 -->
<g id="edge33" class="edge">
<title>32&#45;&gt;33</title>
<path fill="none" stroke="black" d="M1056.91,-180C1096.13,-180 1169.88,-180 1215.09,-180"/>
<polygon fill="black" stroke="black" points="1214.97,-183.5 1224.97,-180 1214.97,-176.5 1214.97,-183.5"/>
</g>
<!-- 35 -->
<!-- name: &quot;float&quot;, typeName: &quot;&quot;, id: 35, branchId: 0, recurseId: &#45;1, attributes: 512, notes: &quot;&quot; -->
<g id="node36" class="node">
<title>35</title>
<ellipse fill="none" stroke="black" cx="1254.63" cy="-126" rx="27.81" ry="18"/>
<text xml:space="preserve" text-anchor="middle" x="1254.63" y="-120.95" font-family="Times New Roman,serif" font-size="14.00">float</text>
</g>
<!-- 34&#45;&gt;35 -->
<g id="edge35" class="edge">
<title>34&#45;&gt;35</title>
<path fill="none" stroke="black" d="M1056.91,-126C1096.13,-126 1169.88,-126 1215.09,-126"/>
<polygon fill="black" stroke="black" points="1214.97,-129.5 1224.97,-126 1214.97,-122.5 1214.97,-129.5"/>
</g>
<!-- 37 -->
<!-- name: &quot;float&quot;, typeName: &quot;&quot;, id: 37, branchId: 0, recurseId: &#45;1, attributes: 512, notes: &quot;&quot; -->
<g id="node38" class="node">
<title>37</title>
<ellipse fill="none" stroke="black" cx="1254.63" cy="-72" rx="27.81" ry="18"/>
<text xml:space="preserve" text-anchor="middle" x="1254.63" y="-66.95" font-family="Times New Roman,serif" font-size="14.00">float</text>
</g>
<!-- 36&#45;&gt;37 -->
<g id="edge37" class="edge">
<title>36&#45;&gt;37</title>
<path fill="none" stroke="black" d="M871.16,-88.96C967.17,-84.7 1138.56,-77.1 1214.99,-73.71"/>
<polygon fill="black" stroke="black" points="1215.07,-77.21 1224.91,-73.27 1214.76,-70.22 1215.07,-77.21"/>
</g>
<!-- 39 -->
<!-- name: &quot;enum easing_function&quot;, typeName: &quot;&quot;, id: 39, branchId: 0, recurseId: &#45;1, attributes: 512, notes: &quot;&quot; -->
<g id="node40" class="node">
<title>39</title>
<ellipse fill="none" stroke="black" cx="1254.63" cy="-18" rx="93.32" ry="18"/>
<text xml:space="preserve" text-anchor="middle" x="1254.63" y="-12.95" font-family="Times New Roman,serif" font-size="14.00">enum easing_function</text>
</g>
<!-- 38&#45;&gt;39 -->
<g id="edge39" class="edge">
<title>38&#45;&gt;39</title>
<path fill="none" stroke="black" d="M897.48,-23.53C971.32,-22.38 1073.71,-20.79 1149.76,-19.61"/>
<polygon fill="black" stroke="black" points="1149.8,-23.11 1159.74,-19.46 1149.69,-16.11 1149.8,-23.11"/>
</g>
</g>
</svg>
