<?xml version="1.0" encoding="UTF-8" standalone="no"?>
<!DOCTYPE svg PUBLIC "-//W3C//DTD SVG 1.1//EN"
 "http://www.w3.org/Graphics/SVG/1.1/DTD/svg11.dtd">
<!-- Generated by graphviz version 14.1.1 (20251213.1925)
 -->
<!-- Title: CameraInstruction::SetInstruction Pages: 1 -->
<svg width="1120pt" height="962pt"
 viewBox="0.00 0.00 1120.00 962.00" xmlns="http://www.w3.org/2000/svg" xmlns:xlink="http://www.w3.org/1999/xlink">
<g id="graph0" class="graph" transform="scale(1 1) rotate(0) translate(4 958)">
<title>CameraInstruction::SetInstruction</title>
<polygon fill="white" stroke="none" points="-4,4 -4,-958 1116,-958 1116,4 -4,4"/>
<!-- 0 -->
<!-- name: &quot;CameraInstruction::SetInstruction&quot;, typeName: &quot;&quot;, id: 0, branchId: 0, recurseId: &#45;1, attributes: 0, notes: &quot;&quot; -->
<g id="node1" class="node">
<title>0</title>
<ellipse fill="none" stroke="black" cx="136.82" cy="-450" rx="136.82" ry="18"/>
<text xml:space="preserve" text-anchor="middle" x="136.82" y="-444.95" font-family="Times New Roman,serif" font-size="14.00">CameraInstruction::SetInstruction</text>
</g>
<!-- 1 -->
<!-- name: &quot;preset&quot;, typeName: &quot;&quot;, id: 1, branchId: 0, recurseId: &#45;1, attributes: 0, notes: &quot;&quot; -->
<g id="node2" class="node">
<title>1</title>
<ellipse fill="none" stroke="black" cx="470.01" cy="-867" rx="32.93" ry="18"/>
<text xml:space="preserve" text-anchor="middle" x="470.01" y="-861.95" font-family="Times New Roman,serif" font-size="14.00">preset</text>
</g>
<!-- 0&#45;&gt;1 -->
<g id="edge1" class="edge">
<title>0&#45;&gt;1</title>
<path fill="none" stroke="black" d="M143.89,-468.11C161.98,-519.96 219.91,-671.36 309.65,-767 345.19,-804.89 398.08,-834.29 433.05,-851.14"/>
<polygon fill="black" stroke="black" points="431.38,-854.22 441.91,-855.31 434.36,-847.88 431.38,-854.22"/>
</g>
<!-- 3 -->
<!-- name: &quot;ease&quot;, typeName: &quot;&quot;, id: 3, branchId: 0, recurseId: &#45;1, attributes: 0, notes: &quot;&quot; -->
<g id="node4" class="node">
<title>3</title>
<ellipse fill="none" stroke="black" cx="723.87" cy="-828" rx="27" ry="18"/>
<text xml:space="preserve" text-anchor="middle" x="723.87" y="-822.95" font-family="Times New Roman,serif" font-size="14.00">ease</text>
</g>
<!-- 0&#45;&gt;3 -->
<g id="edge3" class="edge">
<title>0&#45;&gt;3</title>
<path fill="none" stroke="black" d="M148.37,-468.32C172.23,-508.32 234.21,-604.35 309.65,-660 432.65,-750.74 611.61,-801.42 687.13,-819.88"/>
<polygon fill="black" stroke="black" points="685.91,-823.18 696.45,-822.11 687.54,-816.38 685.91,-823.18"/>
</g>
<!-- 8 -->
<!-- name: &quot;pos&quot;, typeName: &quot;&quot;, id: 8, branchId: 0, recurseId: &#45;1, attributes: 0, notes: &quot;&quot; -->
<g id="node9" class="node">
<title>8</title>
<ellipse fill="none" stroke="black" cx="470.01" cy="-633" rx="27" ry="18"/>
<text xml:space="preserve" text-anchor="middle" x="470.01" y="-627.95" font-family="Times New Roman,serif" font-size="14.00">pos</text>
</g>
<!-- 0&#45;&gt;8 -->
<g id="edge8" class="edge">
<title>0&#45;&gt;8</title>
<path fill="none" stroke="black" d="M170.18,-467.88C234.19,-503.25 376.16,-581.69 438.57,-616.18"/>
<polygon fill="black" stroke="black" points="436.81,-619.2 447.25,-620.98 440.19,-613.08 436.81,-619.2"/>
</g>
<!-- 16 -->
<!-- name: &quot;rot&quot;, typeName: &quot;&quot;, id: 16, branchId: 0, recurseId: &#45;1, attributes: 0, notes: &quot;&quot; -->
<g id="node17" class="node">
<title>16</title>
<ellipse fill="none" stroke="black" cx="723.87" cy="-558" rx="27" ry="18"/>
<text xml:space="preserve" text-anchor="middle" x="723.87" y="-552.95" font-family="Times New Roman,serif" font-size="14.00">rot</text>
</g>
<!-- 0&#45;&gt;16 -->
<g id="edge16" class="edge">
<title>0&#45;&gt;16</title>
<path fill="none" stroke="black" d="M218.25,-464.85C346.81,-488.58 593.54,-534.13 686.36,-551.26"/>
<polygon fill="black" stroke="black" points="685.45,-554.65 695.92,-553.02 686.72,-547.77 685.45,-554.65"/>
</g>
<!-- 21 -->
<!-- name: &quot;facing&quot;, typeName: &quot;&quot;, id: 21, branchId: 0, recurseId: &#45;1, attributes: 0, notes: &quot;&quot; -->
<g id="node22" class="node">
<title>21</title>
<ellipse fill="none" stroke="black" cx="470.01" cy="-450" rx="33.95" ry="18"/>
<text xml:space="preserve" text-anchor="middle" x="470.01" y="-444.95" font-family="Times New Roman,serif" font-size="14.00">facing</text>
</g>
<!-- 0&#45;&gt;21 -->
<g id="edge21" class="edge">
<title>0&#45;&gt;21</title>
<path fill="none" stroke="black" d="M273.96,-450C327.64,-450 385.59,-450 424.25,-450"/>
<polygon fill="black" stroke="black" points="424.09,-453.5 434.09,-450 424.09,-446.5 424.09,-453.5"/>
</g>
<!-- 29 -->
<!-- name: &quot;view_offset&quot;, typeName: &quot;&quot;, id: 29, branchId: 0, recurseId: &#45;1, attributes: 0, notes: &quot;&quot; -->
<g id="node30" class="node">
<title>29</title>
<ellipse fill="none" stroke="black" cx="723.87" cy="-342" rx="54.42" ry="18"/>
<text xml:space="preserve" text-anchor="middle" x="723.87" y="-336.95" font-family="Times New Roman,serif" font-size="14.00">view_offset</text>
</g>
<!-- 0&#45;&gt;29 -->
<g id="edge29" class="edge">
<title>0&#45;&gt;29</title>
<path fill="none" stroke="black" d="M218.25,-435.15C337.77,-413.09 559.44,-372.17 664.6,-352.76"/>
<polygon fill="black" stroke="black" points="664.94,-356.25 674.14,-351 663.67,-349.37 664.94,-356.25"/>
</g>
<!-- 34 -->
<!-- name: &quot;entity_offset&quot;, typeName: &quot;&quot;, id: 34, branchId: 0, recurseId: &#45;1, attributes: 0, notes: &quot;&quot; -->
<g id="node35" class="node">
<title>34</title>
<ellipse fill="none" stroke="black" cx="723.87" cy="-207" rx="57.49" ry="18"/>
<text xml:space="preserve" text-anchor="middle" x="723.87" y="-201.95" font-family="Times New Roman,serif" font-size="14.00">entity_offset</text>
</g>
<!-- 0&#45;&gt;34 -->
<g id="edge34" class="edge">
<title>0&#45;&gt;34</title>
<path fill="none" stroke="black" d="M167.22,-432.09C200.87,-412.02 258.03,-379.26 309.65,-356 344.03,-340.51 571.96,-260.01 673.83,-224.2"/>
<polygon fill="black" stroke="black" points="674.75,-227.59 683.02,-220.97 672.43,-220.99 674.75,-227.59"/>
</g>
<!-- 41 -->
<!-- name: &quot;default&quot;, typeName: &quot;&quot;, id: 41, branchId: 0, recurseId: &#45;1, attributes: 0, notes: &quot;&quot; -->
<g id="node42" class="node">
<title>41</title>
<ellipse fill="none" stroke="black" cx="470.01" cy="-212" rx="36.51" ry="18"/>
<text xml:space="preserve" text-anchor="middle" x="470.01" y="-206.95" font-family="Times New Roman,serif" font-size="14.00">default</text>
</g>
<!-- 0&#45;&gt;41 -->
<g id="edge41" class="edge">
<title>0&#45;&gt;41</title>
<path fill="none" stroke="black" d="M157.33,-431.81C188.33,-403.33 251.32,-347.22 309.65,-306 350.6,-277.06 400.86,-248.46 433.86,-230.55"/>
<polygon fill="black" stroke="black" points="435.46,-233.66 442.6,-225.84 432.13,-227.5 435.46,-233.66"/>
</g>
<!-- 43 -->
<!-- name: &quot;removeIgnoreStartingValuesComponent&quot;, typeName: &quot;&quot;, id: 43, branchId: 0, recurseId: &#45;1, attributes: 0, notes: &quot;&quot; -->
<g id="node44" class="node">
<title>43</title>
<ellipse fill="none" stroke="black" cx="470.01" cy="-34" rx="160.37" ry="18"/>
<text xml:space="preserve" text-anchor="middle" x="470.01" y="-28.95" font-family="Times New Roman,serif" font-size="14.00">removeIgnoreStartingValuesComponent</text>
</g>
<!-- 0&#45;&gt;43 -->
<g id="edge43" class="edge">
<title>0&#45;&gt;43</title>
<path fill="none" stroke="black" d="M147.72,-431.63C172.13,-387.07 238.47,-270.58 309.65,-185 349.81,-136.71 404.29,-88.03 438.02,-59.46"/>
<polygon fill="black" stroke="black" points="439.98,-62.39 445.39,-53.28 435.48,-57.03 439.98,-62.39"/>
</g>
<!-- 2 -->
<!-- name: &quot;unsigned int&quot;, typeName: &quot;&quot;, id: 2, branchId: 0, recurseId: &#45;1, attributes: 512, notes: &quot;&quot; -->
<g id="node3" class="node">
<title>2</title>
<ellipse fill="none" stroke="black" cx="1049.39" cy="-936" rx="56.47" ry="18"/>
<text xml:space="preserve" text-anchor="middle" x="1049.39" y="-930.95" font-family="Times New Roman,serif" font-size="14.00">unsigned int</text>
</g>
<!-- 1&#45;&gt;2 -->
<g id="edge2" class="edge">
<title>1&#45;&gt;2</title>
<path fill="none" stroke="black" d="M502.53,-870.87C563.37,-878.33 701.28,-895.18 817.37,-909 873.74,-915.71 937.87,-923.19 984.23,-928.58"/>
<polygon fill="black" stroke="black" points="983.78,-932.05 994.12,-929.72 984.59,-925.1 983.78,-932.05"/>
</g>
<!-- 4 -->
<!-- name: &quot;type&quot;, typeName: &quot;&quot;, id: 4, branchId: 0, recurseId: &#45;1, attributes: 0, notes: &quot;&quot; -->
<g id="node5" class="node">
<title>4</title>
<ellipse fill="none" stroke="black" cx="884.07" cy="-882" rx="27" ry="18"/>
<text xml:space="preserve" text-anchor="middle" x="884.07" y="-876.95" font-family="Times New Roman,serif" font-size="14.00">type</text>
</g>
<!-- 3&#45;&gt;4 -->
<g id="edge4" class="edge">
<title>3&#45;&gt;4</title>
<path fill="none" stroke="black" d="M748.56,-836.08C775.2,-845.18 818.68,-860.02 848.98,-870.36"/>
<polygon fill="black" stroke="black" points="847.46,-873.54 858.05,-873.46 849.72,-866.92 847.46,-873.54"/>
</g>
<!-- 6 -->
<!-- name: &quot;time&quot;, typeName: &quot;&quot;, id: 6, branchId: 0, recurseId: &#45;1, attributes: 0, notes: &quot;&quot; -->
<g id="node7" class="node">
<title>6</title>
<ellipse fill="none" stroke="black" cx="884.07" cy="-828" rx="27.81" ry="18"/>
<text xml:space="preserve" text-anchor="middle" x="884.07" y="-822.95" font-family="Times New Roman,serif" font-size="14.00">time</text>
</g>
<!-- 3&#45;&gt;6 -->
<g id="edge6" class="edge">
<title>3&#45;&gt;6</title>
<path fill="none" stroke="black" d="M751.35,-828C776.86,-828 815.74,-828 844.65,-828"/>
<polygon fill="black" stroke="black" points="844.46,-831.5 854.46,-828 844.46,-824.5 844.46,-831.5"/>
</g>
<!-- 5 -->
<!-- name: &quot;unsigned byte&quot;, typeName: &quot;&quot;, id: 5, branchId: 0, recurseId: &#45;1, attributes: 512, notes: &quot;&quot; -->
<g id="node6" class="node">
<title>5</title>
<ellipse fill="none" stroke="black" cx="1049.39" cy="-882" rx="62.61" ry="18"/>
<text xml:space="preserve" text-anchor="middle" x="1049.39" y="-876.95" font-family="Times New Roman,serif" font-size="14.00">unsigned byte</text>
</g>
<!-- 4&#45;&gt;5 -->
<g id="edge5" class="edge">
<title>4&#45;&gt;5</title>
<path fill="none" stroke="black" d="M911.31,-882C928.67,-882 952.35,-882 975.14,-882"/>
<polygon fill="black" stroke="black" points="975.07,-885.5 985.07,-882 975.07,-878.5 975.07,-885.5"/>
</g>
<!-- 7 -->
<!-- name: &quot;float&quot;, typeName: &quot;&quot;, id: 7, branchId: 0, recurseId: &#45;1, attributes: 512, notes: &quot;&quot; -->
<g id="node8" class="node">
<title>7</title>
<ellipse fill="none" stroke="black" cx="1049.39" cy="-828" rx="27.81" ry="18"/>
<text xml:space="preserve" text-anchor="middle" x="1049.39" y="-822.95" font-family="Times New Roman,serif" font-size="14.00">float</text>
</g>
<!-- 6&#45;&gt;7 -->
<g id="edge7" class="edge">
<title>6&#45;&gt;7</title>
<path fill="none" stroke="black" d="M912.04,-828C938.67,-828 979.67,-828 1009.76,-828"/>
<polygon fill="black" stroke="black" points="1009.59,-831.5 1019.59,-828 1009.59,-824.5 1009.59,-831.5"/>
</g>
<!-- 9 -->
<!-- name: &quot;Pos&quot;, typeName: &quot;&quot;, id: 9, branchId: 0, recurseId: &#45;1, attributes: 0, notes: &quot;&quot; -->
<g id="node10" class="node">
<title>9</title>
<ellipse fill="none" stroke="black" cx="723.87" cy="-693" rx="27" ry="18"/>
<text xml:space="preserve" text-anchor="middle" x="723.87" y="-687.95" font-family="Times New Roman,serif" font-size="14.00">Pos</text>
</g>
<!-- 8&#45;&gt;9 -->
<g id="edge9" class="edge">
<title>8&#45;&gt;9</title>
<path fill="none" stroke="black" d="M495.62,-638.86C540.39,-649.53 635.29,-672.14 687.17,-684.5"/>
<polygon fill="black" stroke="black" points="686.15,-687.85 696.69,-686.76 687.78,-681.04 686.15,-687.85"/>
</g>
<!-- 10 -->
<!-- name: &quot;X&quot;, typeName: &quot;&quot;, id: 10, branchId: 0, recurseId: &#45;1, attributes: 0, notes: &quot;&quot; -->
<g id="node11" class="node">
<title>10</title>
<ellipse fill="none" stroke="black" cx="884.07" cy="-774" rx="27" ry="18"/>
<text xml:space="preserve" text-anchor="middle" x="884.07" y="-768.95" font-family="Times New Roman,serif" font-size="14.00">X</text>
</g>
<!-- 9&#45;&gt;10 -->
<g id="edge10" class="edge">
<title>9&#45;&gt;10</title>
<path fill="none" stroke="black" d="M744.28,-705.4C762.71,-716.9 791.36,-734.14 817.37,-747 827.62,-752.07 839.07,-757.01 849.51,-761.25"/>
<polygon fill="black" stroke="black" points="847.93,-764.39 858.51,-764.83 850.51,-757.89 847.93,-764.39"/>
</g>
<!-- 12 -->
<!-- name: &quot;Y&quot;, typeName: &quot;&quot;, id: 12, branchId: 0, recurseId: &#45;1, attributes: 0, notes: &quot;&quot; -->
<g id="node13" class="node">
<title>12</title>
<ellipse fill="none" stroke="black" cx="884.07" cy="-720" rx="27" ry="18"/>
<text xml:space="preserve" text-anchor="middle" x="884.07" y="-714.95" font-family="Times New Roman,serif" font-size="14.00">Y</text>
</g>
<!-- 9&#45;&gt;12 -->
<g id="edge12" class="edge">
<title>9&#45;&gt;12</title>
<path fill="none" stroke="black" d="M750.29,-697.34C776.28,-701.77 816.89,-708.71 846.37,-713.74"/>
<polygon fill="black" stroke="black" points="845.52,-717.14 855.96,-715.37 846.69,-710.24 845.52,-717.14"/>
</g>
<!-- 14 -->
<!-- name: &quot;Z&quot;, typeName: &quot;&quot;, id: 14, branchId: 0, recurseId: &#45;1, attributes: 0, notes: &quot;&quot; -->
<g id="node15" class="node">
<title>14</title>
<ellipse fill="none" stroke="black" cx="884.07" cy="-666" rx="27" ry="18"/>
<text xml:space="preserve" text-anchor="middle" x="884.07" y="-660.95" font-family="Times New Roman,serif" font-size="14.00">Z</text>
</g>
<!-- 9&#45;&gt;14 -->
<g id="edge14" class="edge">
<title>9&#45;&gt;14</title>
<path fill="none" stroke="black" d="M750.29,-688.66C776.28,-684.23 816.89,-677.29 846.37,-672.26"/>
<polygon fill="black" stroke="black" points="846.69,-675.76 855.96,-670.63 845.52,-668.86 846.69,-675.76"/>
</g>
<!-- 11 -->
<!-- name: &quot;float&quot;, typeName: &quot;&quot;, id: 11, branchId: 0, recurseId: &#45;1, attributes: 512, notes: &quot;&quot; -->
<g id="node12" class="node">
<title>11</title>
<ellipse fill="none" stroke="black" cx="1049.39" cy="-774" rx="27.81" ry="18"/>
<text xml:space="preserve" text-anchor="middle" x="1049.39" y="-768.95" font-family="Times New Roman,serif" font-size="14.00">float</text>
</g>
<!-- 10&#45;&gt;11 -->
<g id="edge11" class="edge">
<title>10&#45;&gt;11</title>
<path fill="none" stroke="black" d="M911.31,-774C937.9,-774 979.33,-774 1009.68,-774"/>
<polygon fill="black" stroke="black" points="1009.61,-777.5 1019.61,-774 1009.61,-770.5 1009.61,-777.5"/>
</g>
<!-- 13 -->
<!-- name: &quot;float&quot;, typeName: &quot;&quot;, id: 13, branchId: 0, recurseId: &#45;1, attributes: 512, notes: &quot;&quot; -->
<g id="node14" class="node">
<title>13</title>
<ellipse fill="none" stroke="black" cx="1049.39" cy="-720" rx="27.81" ry="18"/>
<text xml:space="preserve" text-anchor="middle" x="1049.39" y="-714.95" font-family="Times New Roman,serif" font-size="14.00">float</text>
</g>
<!-- 12&#45;&gt;13 -->
<g id="edge13" class="edge">
<title>12&#45;&gt;13</title>
<path fill="none" stroke="black" d="M911.31,-720C937.9,-720 979.33,-720 1009.68,-720"/>
<polygon fill="black" stroke="black" points="1009.61,-723.5 1019.61,-720 1009.61,-716.5 1009.61,-723.5"/>
</g>
<!-- 15 -->
<!-- name: &quot;float&quot;, typeName: &quot;&quot;, id: 15, branchId: 0, recurseId: &#45;1, attributes: 512, notes: &quot;&quot; -->
<g id="node16" class="node">
<title>15</title>
<ellipse fill="none" stroke="black" cx="1049.39" cy="-666" rx="27.81" ry="18"/>
<text xml:space="preserve" text-anchor="middle" x="1049.39" y="-660.95" font-family="Times New Roman,serif" font-size="14.00">float</text>
</g>
<!-- 14&#45;&gt;15 -->
<g id="edge15" class="edge">
<title>14&#45;&gt;15</title>
<path fill="none" stroke="black" d="M911.31,-666C937.9,-666 979.33,-666 1009.68,-666"/>
<polygon fill="black" stroke="black" points="1009.61,-669.5 1019.61,-666 1009.61,-662.5 1009.61,-669.5"/>
</g>
<!-- 17 -->
<!-- name: &quot;x&quot;, typeName: &quot;&quot;, id: 17, branchId: 0, recurseId: &#45;1, attributes: 0, notes: &quot;&quot; -->
<g id="node18" class="node">
<title>17</title>
<ellipse fill="none" stroke="black" cx="884.07" cy="-612" rx="27" ry="18"/>
<text xml:space="preserve" text-anchor="middle" x="884.07" y="-606.95" font-family="Times New Roman,serif" font-size="14.00">x</text>
</g>
<!-- 16&#45;&gt;17 -->
<g id="edge17" class="edge">
<title>16&#45;&gt;17</title>
<path fill="none" stroke="black" d="M748.56,-566.08C775.2,-575.18 818.68,-590.02 848.98,-600.36"/>
<polygon fill="black" stroke="black" points="847.46,-603.54 858.05,-603.46 849.72,-596.92 847.46,-603.54"/>
</g>
<!-- 19 -->
<!-- name: &quot;y&quot;, typeName: &quot;&quot;, id: 19, branchId: 0, recurseId: &#45;1, attributes: 0, notes: &quot;&quot; -->
<g id="node20" class="node">
<title>19</title>
<ellipse fill="none" stroke="black" cx="884.07" cy="-558" rx="27" ry="18"/>
<text xml:space="preserve" text-anchor="middle" x="884.07" y="-552.95" font-family="Times New Roman,serif" font-size="14.00">y</text>
</g>
<!-- 16&#45;&gt;19 -->
<g id="edge19" class="edge">
<title>16&#45;&gt;19</title>
<path fill="none" stroke="black" d="M751.35,-558C777.1,-558 816.45,-558 845.44,-558"/>
<polygon fill="black" stroke="black" points="845.26,-561.5 855.26,-558 845.26,-554.5 845.26,-561.5"/>
</g>
<!-- 18 -->
<!-- name: &quot;float&quot;, typeName: &quot;&quot;, id: 18, branchId: 0, recurseId: &#45;1, attributes: 512, notes: &quot;&quot; -->
<g id="node19" class="node">
<title>18</title>
<ellipse fill="none" stroke="black" cx="1049.39" cy="-612" rx="27.81" ry="18"/>
<text xml:space="preserve" text-anchor="middle" x="1049.39" y="-606.95" font-family="Times New Roman,serif" font-size="14.00">float</text>
</g>
<!-- 17&#45;&gt;18 -->
<g id="edge18" class="edge">
<title>17&#45;&gt;18</title>
<path fill="none" stroke="black" d="M911.31,-612C937.9,-612 979.33,-612 1009.68,-612"/>
<polygon fill="black" stroke="black" points="1009.61,-615.5 1019.61,-612 1009.61,-608.5 1009.61,-615.5"/>
</g>
<!-- 20 -->
<!-- name: &quot;float&quot;, typeName: &quot;&quot;, id: 20, branchId: 0, recurseId: &#45;1, attributes: 512, notes: &quot;&quot; -->
<g id="node21" class="node">
<title>20</title>
<ellipse fill="none" stroke="black" cx="1049.39" cy="-558" rx="27.81" ry="18"/>
<text xml:space="preserve" text-anchor="middle" x="1049.39" y="-552.95" font-family="Times New Roman,serif" font-size="14.00">float</text>
</g>
<!-- 19&#45;&gt;20 -->
<g id="edge20" class="edge">
<title>19&#45;&gt;20</title>
<path fill="none" stroke="black" d="M911.31,-558C937.9,-558 979.33,-558 1009.68,-558"/>
<polygon fill="black" stroke="black" points="1009.61,-561.5 1019.61,-558 1009.61,-554.5 1009.61,-561.5"/>
</g>
<!-- 22 -->
<!-- name: &quot;pos&quot;, typeName: &quot;&quot;, id: 22, branchId: 0, recurseId: &#45;1, attributes: 0, notes: &quot;&quot; -->
<g id="node23" class="node">
<title>22</title>
<ellipse fill="none" stroke="black" cx="723.87" cy="-450" rx="27" ry="18"/>
<text xml:space="preserve" text-anchor="middle" x="723.87" y="-444.95" font-family="Times New Roman,serif" font-size="14.00">pos</text>
</g>
<!-- 21&#45;&gt;22 -->
<g id="edge22" class="edge">
<title>21&#45;&gt;22</title>
<path fill="none" stroke="black" d="M504.46,-450C551.31,-450 636.22,-450 685.23,-450"/>
<polygon fill="black" stroke="black" points="685.07,-453.5 695.07,-450 685.07,-446.5 685.07,-453.5"/>
</g>
<!-- 23 -->
<!-- name: &quot;X&quot;, typeName: &quot;&quot;, id: 23, branchId: 0, recurseId: &#45;1, attributes: 0, notes: &quot;&quot; -->
<g id="node24" class="node">
<title>23</title>
<ellipse fill="none" stroke="black" cx="884.07" cy="-504" rx="27" ry="18"/>
<text xml:space="preserve" text-anchor="middle" x="884.07" y="-498.95" font-family="Times New Roman,serif" font-size="14.00">X</text>
</g>
<!-- 22&#45;&gt;23 -->
<g id="edge23" class="edge">
<title>22&#45;&gt;23</title>
<path fill="none" stroke="black" d="M748.56,-458.08C775.2,-467.18 818.68,-482.02 848.98,-492.36"/>
<polygon fill="black" stroke="black" points="847.46,-495.54 858.05,-495.46 849.72,-488.92 847.46,-495.54"/>
</g>
<!-- 25 -->
<!-- name: &quot;Y&quot;, typeName: &quot;&quot;, id: 25, branchId: 0, recurseId: &#45;1, attributes: 0, notes: &quot;&quot; -->
<g id="node26" class="node">
<title>25</title>
<ellipse fill="none" stroke="black" cx="884.07" cy="-450" rx="27" ry="18"/>
<text xml:space="preserve" text-anchor="middle" x="884.07" y="-444.95" font-family="Times New Roman,serif" font-size="14.00">Y</text>
</g>
<!-- 22&#45;&gt;25 -->
<g id="edge25" class="edge">
<title>22&#45;&gt;25</title>
<path fill="none" stroke="black" d="M751.35,-450C777.1,-450 816.45,-450 845.44,-450"/>
<polygon fill="black" stroke="black" points="845.26,-453.5 855.26,-450 845.26,-446.5 845.26,-453.5"/>
</g>
<!-- 27 -->
<!-- name: &quot;Z&quot;, typeName: &quot;&quot;, id: 27, branchId: 0, recurseId: &#45;1, attributes: 0, notes: &quot;&quot; -->
<g id="node28" class="node">
<title>27</title>
<ellipse fill="none" stroke="black" cx="884.07" cy="-396" rx="27" ry="18"/>
<text xml:space="preserve" text-anchor="middle" x="884.07" y="-390.95" font-family="Times New Roman,serif" font-size="14.00">Z</text>
</g>
<!-- 22&#45;&gt;27 -->
<g id="edge27" class="edge">
<title>22&#45;&gt;27</title>
<path fill="none" stroke="black" d="M748.56,-441.92C775.2,-432.82 818.68,-417.98 848.98,-407.64"/>
<polygon fill="black" stroke="black" points="849.72,-411.08 858.05,-404.54 847.46,-404.46 849.72,-411.08"/>
</g>
<!-- 24 -->
<!-- name: &quot;float&quot;, typeName: &quot;&quot;, id: 24, branchId: 0, recurseId: &#45;1, attributes: 512, notes: &quot;&quot; -->
<g id="node25" class="node">
<title>24</title>
<ellipse fill="none" stroke="black" cx="1049.39" cy="-504" rx="27.81" ry="18"/>
<text xml:space="preserve" text-anchor="middle" x="1049.39" y="-498.95" font-family="Times New Roman,serif" font-size="14.00">float</text>
</g>
<!-- 23&#45;&gt;24 -->
<g id="edge24" class="edge">
<title>23&#45;&gt;24</title>
<path fill="none" stroke="black" d="M911.31,-504C937.9,-504 979.33,-504 1009.68,-504"/>
<polygon fill="black" stroke="black" points="1009.61,-507.5 1019.61,-504 1009.61,-500.5 1009.61,-507.5"/>
</g>
<!-- 26 -->
<!-- name: &quot;float&quot;, typeName: &quot;&quot;, id: 26, branchId: 0, recurseId: &#45;1, attributes: 512, notes: &quot;&quot; -->
<g id="node27" class="node">
<title>26</title>
<ellipse fill="none" stroke="black" cx="1049.39" cy="-450" rx="27.81" ry="18"/>
<text xml:space="preserve" text-anchor="middle" x="1049.39" y="-444.95" font-family="Times New Roman,serif" font-size="14.00">float</text>
</g>
<!-- 25&#45;&gt;26 -->
<g id="edge26" class="edge">
<title>25&#45;&gt;26</title>
<path fill="none" stroke="black" d="M911.31,-450C937.9,-450 979.33,-450 1009.68,-450"/>
<polygon fill="black" stroke="black" points="1009.61,-453.5 1019.61,-450 1009.61,-446.5 1009.61,-453.5"/>
</g>
<!-- 28 -->
<!-- name: &quot;float&quot;, typeName: &quot;&quot;, id: 28, branchId: 0, recurseId: &#45;1, attributes: 512, notes: &quot;&quot; -->
<g id="node29" class="node">
<title>28</title>
<ellipse fill="none" stroke="black" cx="1049.39" cy="-396" rx="27.81" ry="18"/>
<text xml:space="preserve" text-anchor="middle" x="1049.39" y="-390.95" font-family="Times New Roman,serif" font-size="14.00">float</text>
</g>
<!-- 27&#45;&gt;28 -->
<g id="edge28" class="edge">
<title>27&#45;&gt;28</title>
<path fill="none" stroke="black" d="M911.31,-396C937.9,-396 979.33,-396 1009.68,-396"/>
<polygon fill="black" stroke="black" points="1009.61,-399.5 1019.61,-396 1009.61,-392.5 1009.61,-399.5"/>
</g>
<!-- 30 -->
<!-- name: &quot;x&quot;, typeName: &quot;&quot;, id: 30, branchId: 0, recurseId: &#45;1, attributes: 0, notes: &quot;&quot; -->
<g id="node31" class="node">
<title>30</title>
<ellipse fill="none" stroke="black" cx="884.07" cy="-342" rx="27" ry="18"/>
<text xml:space="preserve" text-anchor="middle" x="884.07" y="-336.95" font-family="Times New Roman,serif" font-size="14.00">x</text>
</g>
<!-- 29&#45;&gt;30 -->
<g id="edge30" class="edge">
<title>29&#45;&gt;30</title>
<path fill="none" stroke="black" d="M778.43,-342C800.36,-342 825.22,-342 845.2,-342"/>
<polygon fill="black" stroke="black" points="845.13,-345.5 855.13,-342 845.13,-338.5 845.13,-345.5"/>
</g>
<!-- 32 -->
<!-- name: &quot;y&quot;, typeName: &quot;&quot;, id: 32, branchId: 0, recurseId: &#45;1, attributes: 0, notes: &quot;&quot; -->
<g id="node33" class="node">
<title>32</title>
<ellipse fill="none" stroke="black" cx="884.07" cy="-288" rx="27" ry="18"/>
<text xml:space="preserve" text-anchor="middle" x="884.07" y="-282.95" font-family="Times New Roman,serif" font-size="14.00">y</text>
</g>
<!-- 29&#45;&gt;32 -->
<g id="edge32" class="edge">
<title>29&#45;&gt;32</title>
<path fill="none" stroke="black" d="M762.77,-329.07C789.04,-320.1 823.74,-308.25 849.11,-299.59"/>
<polygon fill="black" stroke="black" points="849.94,-303.01 858.28,-296.46 847.68,-296.38 849.94,-303.01"/>
</g>
<!-- 31 -->
<!-- name: &quot;float&quot;, typeName: &quot;&quot;, id: 31, branchId: 0, recurseId: &#45;1, attributes: 512, notes: &quot;&quot; -->
<g id="node32" class="node">
<title>31</title>
<ellipse fill="none" stroke="black" cx="1049.39" cy="-342" rx="27.81" ry="18"/>
<text xml:space="preserve" text-anchor="middle" x="1049.39" y="-336.95" font-family="Times New Roman,serif" font-size="14.00">float</text>
</g>
<!-- 30&#45;&gt;31 -->
<g id="edge31" class="edge">
<title>30&#45;&gt;31</title>
<path fill="none" stroke="black" d="M911.31,-342C937.9,-342 979.33,-342 1009.68,-342"/>
<polygon fill="black" stroke="black" points="1009.61,-345.5 1019.61,-342 1009.61,-338.5 1009.61,-345.5"/>
</g>
<!-- 33 -->
<!-- name: &quot;float&quot;, typeName: &quot;&quot;, id: 33, branchId: 0, recurseId: &#45;1, attributes: 512, notes: &quot;&quot; -->
<g id="node34" class="node">
<title>33</title>
<ellipse fill="none" stroke="black" cx="1049.39" cy="-288" rx="27.81" ry="18"/>
<text xml:space="preserve" text-anchor="middle" x="1049.39" y="-282.95" font-family="Times New Roman,serif" font-size="14.00">float</text>
</g>
<!-- 32&#45;&gt;33 -->
<g id="edge33" class="edge">
<title>32&#45;&gt;33</title>
<path fill="none" stroke="black" d="M911.31,-288C937.9,-288 979.33,-288 1009.68,-288"/>
<polygon fill="black" stroke="black" points="1009.61,-291.5 1019.61,-288 1009.61,-284.5 1009.61,-291.5"/>
</g>
<!-- 35 -->
<!-- name: &quot;entity_offset_x&quot;, typeName: &quot;&quot;, id: 35, branchId: 0, recurseId: &#45;1, attributes: 0, notes: &quot;&quot; -->
<g id="node36" class="node">
<title>35</title>
<ellipse fill="none" stroke="black" cx="884.07" cy="-234" rx="66.71" ry="18"/>
<text xml:space="preserve" text-anchor="middle" x="884.07" y="-228.95" font-family="Times New Roman,serif" font-size="14.00">entity_offset_x</text>
</g>
<!-- 34&#45;&gt;35 -->
<g id="edge35" class="edge">
<title>34&#45;&gt;35</title>
<path fill="none" stroke="black" d="M774.93,-215.54C787.8,-217.74 801.86,-220.14 815.46,-222.46"/>
<polygon fill="black" stroke="black" points="814.8,-225.9 825.25,-224.13 815.98,-219 814.8,-225.9"/>
</g>
<!-- 37 -->
<!-- name: &quot;entity_offset_y&quot;, typeName: &quot;&quot;, id: 37, branchId: 0, recurseId: &#45;1, attributes: 0, notes: &quot;&quot; -->
<g id="node38" class="node">
<title>37</title>
<ellipse fill="none" stroke="black" cx="884.07" cy="-180" rx="66.71" ry="18"/>
<text xml:space="preserve" text-anchor="middle" x="884.07" y="-174.95" font-family="Times New Roman,serif" font-size="14.00">entity_offset_y</text>
</g>
<!-- 34&#45;&gt;37 -->
<g id="edge37" class="edge">
<title>34&#45;&gt;37</title>
<path fill="none" stroke="black" d="M774.93,-198.46C787.8,-196.26 801.86,-193.86 815.46,-191.54"/>
<polygon fill="black" stroke="black" points="815.98,-195 825.25,-189.87 814.8,-188.1 815.98,-195"/>
</g>
<!-- 39 -->
<!-- name: &quot;entity_offset_z&quot;, typeName: &quot;&quot;, id: 39, branchId: 0, recurseId: &#45;1, attributes: 0, notes: &quot;&quot; -->
<g id="node40" class="node">
<title>39</title>
<ellipse fill="none" stroke="black" cx="884.07" cy="-126" rx="66.19" ry="18"/>
<text xml:space="preserve" text-anchor="middle" x="884.07" y="-120.95" font-family="Times New Roman,serif" font-size="14.00">entity_offset_z</text>
</g>
<!-- 34&#45;&gt;39 -->
<g id="edge39" class="edge">
<title>34&#45;&gt;39</title>
<path fill="none" stroke="black" d="M750.65,-190.65C768.92,-179.39 794.2,-164.45 817.37,-153 822.76,-150.34 828.48,-147.71 834.2,-145.2"/>
<polygon fill="black" stroke="black" points="835.24,-148.56 843.06,-141.42 832.49,-142.12 835.24,-148.56"/>
</g>
<!-- 36 -->
<!-- name: &quot;float&quot;, typeName: &quot;&quot;, id: 36, branchId: 0, recurseId: &#45;1, attributes: 512, notes: &quot;&quot; -->
<g id="node37" class="node">
<title>36</title>
<ellipse fill="none" stroke="black" cx="1049.39" cy="-234" rx="27.81" ry="18"/>
<text xml:space="preserve" text-anchor="middle" x="1049.39" y="-228.95" font-family="Times New Roman,serif" font-size="14.00">float</text>
</g>
<!-- 35&#45;&gt;36 -->
<g id="edge36" class="edge">
<title>35&#45;&gt;36</title>
<path fill="none" stroke="black" d="M951.03,-234C971.02,-234 992.33,-234 1009.89,-234"/>
<polygon fill="black" stroke="black" points="1009.88,-237.5 1019.88,-234 1009.88,-230.5 1009.88,-237.5"/>
</g>
<!-- 38 -->
<!-- name: &quot;float&quot;, typeName: &quot;&quot;, id: 38, branchId: 0, recurseId: &#45;1, attributes: 512, notes: &quot;&quot; -->
<g id="node39" class="node">
<title>38</title>
<ellipse fill="none" stroke="black" cx="1049.39" cy="-180" rx="27.81" ry="18"/>
<text xml:space="preserve" text-anchor="middle" x="1049.39" y="-174.95" font-family="Times New Roman,serif" font-size="14.00">float</text>
</g>
<!-- 37&#45;&gt;38 -->
<g id="edge38" class="edge">
<title>37&#45;&gt;38</title>
<path fill="none" stroke="black" d="M951.03,-180C971.02,-180 992.33,-180 1009.89,-180"/>
<polygon fill="black" stroke="black" points="1009.88,-183.5 1019.88,-180 1009.88,-176.5 1009.88,-183.5"/>
</g>
<!-- 40 -->
<!-- name: &quot;float&quot;, typeName: &quot;&quot;, id: 40, branchId: 0, recurseId: &#45;1, attributes: 512, notes: &quot;&quot; -->
<g id="node41" class="node">
<title>40</title>
<ellipse fill="none" stroke="black" cx="1049.39" cy="-126" rx="27.81" ry="18"/>
<text xml:space="preserve" text-anchor="middle" x="1049.39" y="-120.95" font-family="Times New Roman,serif" font-size="14.00">float</text>
</g>
<!-- 39&#45;&gt;40 -->
<g id="edge40" class="edge">
<title>39&#45;&gt;40</title>
<path fill="none" stroke="black" d="M950.56,-126C970.7,-126 992.21,-126 1009.91,-126"/>
<polygon fill="black" stroke="black" points="1009.71,-129.5 1019.71,-126 1009.71,-122.5 1009.71,-129.5"/>
</g>
<!-- 42 -->
<!-- name: &quot;bool&quot;, typeName: &quot;&quot;, id: 42, branchId: 0, recurseId: &#45;1, attributes: 512, notes: &quot;&quot; -->
<g id="node43" class="node">
<title>42</title>
<ellipse fill="none" stroke="black" cx="1049.39" cy="-72" rx="27.3" ry="18"/>
<text xml:space="preserve" text-anchor="middle" x="1049.39" y="-66.95" font-family="Times New Roman,serif" font-size="14.00">bool</text>
</g>
<!-- 41&#45;&gt;42 -->
<g id="edge42" class="edge">
<title>41&#45;&gt;42</title>
<path fill="none" stroke="black" d="M499.22,-200.66C557.58,-177.68 696.27,-125.55 817.37,-99 884.49,-84.28 964.47,-77.2 1010.54,-74.11"/>
<polygon fill="black" stroke="black" points="1010.51,-77.62 1020.26,-73.48 1010.06,-70.63 1010.51,-77.62"/>
</g>
<!-- 44 -->
<!-- name: &quot;bool&quot;, typeName: &quot;&quot;, id: 44, branchId: 0, recurseId: &#45;1, attributes: 512, notes: &quot;&quot; -->
<g id="node45" class="node">
<title>44</title>
<ellipse fill="none" stroke="black" cx="1049.39" cy="-18" rx="27.3" ry="18"/>
<text xml:space="preserve" text-anchor="middle" x="1049.39" y="-12.95" font-family="Times New Roman,serif" font-size="14.00">bool</text>
</g>
<!-- 43&#45;&gt;44 -->
<g id="edge44" class="edge">
<title>43&#45;&gt;44</title>
<path fill="none" stroke="black" d="M626.12,-29.7C756.59,-26.09 933.75,-21.18 1010.43,-19.05"/>
<polygon fill="black" stroke="black" points="1010.44,-22.55 1020.34,-18.78 1010.25,-15.56 1010.44,-22.55"/>
</g>
</g>
</svg>
