<?xml version="1.0" encoding="UTF-8" standalone="no"?>
<!DOCTYPE svg PUBLIC "-//W3C//DTD SVG 1.1//EN"
 "http://www.w3.org/Graphics/SVG/1.1/DTD/svg11.dtd">
<!-- Generated by graphviz version 11.0.0 (20240428.1522)
 -->
<!-- Title: CameraInstruction::SetInstruction::EaseOption Pages: 1 -->
<svg width="613pt" height="98pt"
 viewBox="0.00 0.00 612.93 98.00" xmlns="http://www.w3.org/2000/svg" xmlns:xlink="http://www.w3.org/1999/xlink">
<g id="graph0" class="graph" transform="scale(1 1) rotate(0) translate(4 94)">
<title>CameraInstruction::SetInstruction::EaseOption</title>
<polygon fill="white" stroke="none" points="-4,4 -4,-94 608.93,-94 608.93,4 -4,4"/>
<!-- 16 -->
<!-- name: &quot;CameraInstruction::SetInstruction::EaseOption&quot;, typeName: &quot;&quot;, id: 16, branchId: 0, recurseId: &#45;1, attributes: 0, notes: &quot;&quot; -->
<g id="node1" class="node">
<title>16</title>
<ellipse fill="none" stroke="black" cx="182.3" cy="-45" rx="182.3" ry="18"/>
<text text-anchor="middle" x="182.3" y="-39.58" font-family="Times New Roman,serif" font-size="14.00">CameraInstruction::SetInstruction::EaseOption</text>
</g>
<!-- 17 -->
<!-- name: &quot;Easing Type&quot;, typeName: &quot;&quot;, id: 17, branchId: 0, recurseId: &#45;1, attributes: 0, notes: &quot;&quot; -->
<g id="node2" class="node">
<title>17</title>
<ellipse fill="none" stroke="black" cx="457.65" cy="-72" rx="57.05" ry="18"/>
<text text-anchor="middle" x="457.65" y="-66.58" font-family="Times New Roman,serif" font-size="14.00">Easing Type</text>
</g>
<!-- 16&#45;&gt;17 -->
<g id="edge1" class="edge">
<title>16&#45;&gt;17</title>
<path fill="none" stroke="black" d="M313.57,-57.87C340.63,-60.54 368.03,-63.25 391.51,-65.57"/>
<polygon fill="black" stroke="black" points="390.9,-69.02 401.19,-66.52 391.58,-62.06 390.9,-69.02"/>
</g>
<!-- 19 -->
<!-- name: &quot;Easing Time&quot;, typeName: &quot;&quot;, id: 19, branchId: 0, recurseId: &#45;1, attributes: 0, notes: &quot;&quot; -->
<g id="node4" class="node">
<title>19</title>
<ellipse fill="none" stroke="black" cx="457.65" cy="-18" rx="56.55" ry="18"/>
<text text-anchor="middle" x="457.65" y="-12.57" font-family="Times New Roman,serif" font-size="14.00">Easing Time</text>
</g>
<!-- 16&#45;&gt;19 -->
<g id="edge3" class="edge">
<title>16&#45;&gt;19</title>
<path fill="none" stroke="black" d="M313.57,-32.13C340.75,-29.45 368.27,-26.73 391.81,-24.4"/>
<polygon fill="black" stroke="black" points="391.92,-27.91 401.53,-23.44 391.23,-20.94 391.92,-27.91"/>
</g>
<!-- 18 -->
<!-- name: &quot;byte&quot;, typeName: &quot;&quot;, id: 18, branchId: 0, recurseId: &#45;1, attributes: 512, notes: &quot;&quot; -->
<g id="node3" class="node">
<title>18</title>
<ellipse fill="none" stroke="black" cx="577.82" cy="-72" rx="27" ry="18"/>
<text text-anchor="middle" x="577.82" y="-66.58" font-family="Times New Roman,serif" font-size="14.00">byte</text>
</g>
<!-- 17&#45;&gt;18 -->
<g id="edge2" class="edge">
<title>17&#45;&gt;18</title>
<path fill="none" stroke="black" d="M514.96,-72C523.08,-72 531.26,-72 538.9,-72"/>
<polygon fill="black" stroke="black" points="538.86,-75.5 548.86,-72 538.86,-68.5 538.86,-75.5"/>
</g>
<!-- 20 -->
<!-- name: &quot;float&quot;, typeName: &quot;&quot;, id: 20, branchId: 0, recurseId: &#45;1, attributes: 512, notes: &quot;&quot; -->
<g id="node5" class="node">
<title>20</title>
<ellipse fill="none" stroke="black" cx="577.82" cy="-18" rx="27.11" ry="18"/>
<text text-anchor="middle" x="577.82" y="-12.57" font-family="Times New Roman,serif" font-size="14.00">float</text>
</g>
<!-- 19&#45;&gt;20 -->
<g id="edge4" class="edge">
<title>19&#45;&gt;20</title>
<path fill="none" stroke="black" d="M514.62,-18C522.94,-18 531.34,-18 539.16,-18"/>
<polygon fill="black" stroke="black" points="538.99,-21.5 548.99,-18 538.99,-14.5 538.99,-21.5"/>
</g>
</g>
</svg>
