<?xml version="1.0" encoding="UTF-8" standalone="no"?>
<!DOCTYPE svg PUBLIC "-//W3C//DTD SVG 1.1//EN"
 "http://www.w3.org/Graphics/SVG/1.1/DTD/svg11.dtd">
<!-- Generated by graphviz version 13.1.2 (20250808.2320)
 -->
<!-- Title: CameraAimAssistCategoryDefinition Pages: 1 -->
<svg width="807pt" height="206pt"
 viewBox="0.00 0.00 807.00 206.00" xmlns="http://www.w3.org/2000/svg" xmlns:xlink="http://www.w3.org/1999/xlink">
<g id="graph0" class="graph" transform="scale(1 1) rotate(0) translate(4 202)">
<title>CameraAimAssistCategoryDefinition</title>
<polygon fill="white" stroke="none" points="-4,4 -4,-202 803.28,-202 803.28,4 -4,4"/>
<!-- 0 -->
<!-- name: &quot;CameraAimAssistCategoryDefinition&quot;, typeName: &quot;&quot;, id: 0, branchId: 0, recurseId: &#45;1, attributes: 0, notes: &quot;&quot; -->
<g id="node1" class="node">
<title>0</title>
<ellipse fill="none" stroke="black" cx="151.15" cy="-126" rx="151.15" ry="18"/>
<text xml:space="preserve" text-anchor="middle" x="151.15" y="-120.95" font-family="Times New Roman,serif" font-size="14.00">CameraAimAssistCategoryDefinition</text>
</g>
<!-- 1 -->
<!-- name: &quot;name&quot;, typeName: &quot;&quot;, id: 1, branchId: 0, recurseId: &#45;1, attributes: 0, notes: &quot;Name of the Aim&#45;Assist Category used during lookup.&quot; -->
<g id="node2" class="node">
<title>1</title>
<ellipse fill="none" stroke="black" cx="382.49" cy="-153" rx="31.39" ry="18"/>
<text xml:space="preserve" text-anchor="middle" x="382.49" y="-147.95" font-family="Times New Roman,serif" font-size="14.00">name</text>
</g>
<!-- 0&#45;&gt;1 -->
<g id="edge1" class="edge">
<title>0&#45;&gt;1</title>
<path fill="none" stroke="black" d="M260.44,-138.75C288.76,-142.08 317.59,-145.48 340.01,-148.12"/>
<polygon fill="black" stroke="black" points="339.59,-151.59 349.94,-149.28 340.41,-144.64 339.59,-151.59"/>
</g>
<!-- 2 -->
<!-- name: &quot;priorities&quot;, typeName: &quot;&quot;, id: 2, branchId: 0, recurseId: &#45;1, attributes: 0, notes: &quot;The set of priorities used when determining aim&#45;assist selection.&quot; -->
<g id="node3" class="node">
<title>2</title>
<ellipse fill="none" stroke="black" cx="382.49" cy="-99" rx="44.19" ry="18"/>
<text xml:space="preserve" text-anchor="middle" x="382.49" y="-93.95" font-family="Times New Roman,serif" font-size="14.00">priorities</text>
</g>
<!-- 0&#45;&gt;2 -->
<g id="edge2" class="edge">
<title>0&#45;&gt;2</title>
<path fill="none" stroke="black" d="M260.44,-113.25C284.11,-110.46 308.15,-107.64 328.49,-105.24"/>
<polygon fill="black" stroke="black" points="328.68,-108.74 338.2,-104.1 327.86,-101.79 328.68,-108.74"/>
</g>
<!-- 3 -->
<!-- name: &quot;entities&quot;, typeName: &quot;&quot;, id: 3, branchId: 0, recurseId: &#45;1, attributes: 0, notes: &quot;Optional. Map of Entity identifiers to Aim&#45;Assist targeting priority. Larger numbers have greater priority.&quot; -->
<g id="node4" class="node">
<title>3</title>
<ellipse fill="none" stroke="black" cx="524.78" cy="-180" rx="37.53" ry="18"/>
<text xml:space="preserve" text-anchor="middle" x="524.78" y="-174.95" font-family="Times New Roman,serif" font-size="14.00">entities</text>
</g>
<!-- 2&#45;&gt;3 -->
<g id="edge3" class="edge">
<title>2&#45;&gt;3</title>
<path fill="none" stroke="black" d="M408.39,-114.06C414.44,-117.86 420.85,-122 426.68,-126 443.17,-137.31 445.42,-142.89 462.68,-153 469.55,-157.02 477.13,-160.83 484.54,-164.25"/>
<polygon fill="black" stroke="black" points="482.88,-167.34 493.44,-168.19 485.71,-160.94 482.88,-167.34"/>
</g>
<!-- 5 -->
<!-- name: &quot;blocks&quot;, typeName: &quot;&quot;, id: 5, branchId: 0, recurseId: &#45;1, attributes: 0, notes: &quot;Optional. Map of Block identifiers to Aim&#45;Assist targeting priority. Larger numbers have greater priority.&quot; -->
<g id="node6" class="node">
<title>5</title>
<ellipse fill="none" stroke="black" cx="524.78" cy="-126" rx="34.97" ry="18"/>
<text xml:space="preserve" text-anchor="middle" x="524.78" y="-120.95" font-family="Times New Roman,serif" font-size="14.00">blocks</text>
</g>
<!-- 2&#45;&gt;5 -->
<g id="edge5" class="edge">
<title>2&#45;&gt;5</title>
<path fill="none" stroke="black" d="M422.94,-106.59C440.85,-110.04 462.07,-114.12 480.42,-117.65"/>
<polygon fill="black" stroke="black" points="479.73,-121.09 490.22,-119.54 481.06,-114.21 479.73,-121.09"/>
</g>
<!-- 7 -->
<!-- name: &quot;entity_default&quot;, typeName: &quot;&quot;, id: 7, branchId: 0, recurseId: &#45;1, attributes: 0, notes: &quot;Optional. Default Aim&#45;Assist targeting priority used for Entities not found in &#39;entities&#39;.&quot; -->
<g id="node8" class="node">
<title>7</title>
<ellipse fill="none" stroke="black" cx="524.78" cy="-72" rx="62.1" ry="18"/>
<text xml:space="preserve" text-anchor="middle" x="524.78" y="-66.95" font-family="Times New Roman,serif" font-size="14.00">entity_default</text>
</g>
<!-- 2&#45;&gt;7 -->
<g id="edge7" class="edge">
<title>2&#45;&gt;7</title>
<path fill="none" stroke="black" d="M422.94,-91.41C434.73,-89.14 447.95,-86.59 460.85,-84.11"/>
<polygon fill="black" stroke="black" points="461.41,-87.57 470.56,-82.24 460.08,-80.7 461.41,-87.57"/>
</g>
<!-- 9 -->
<!-- name: &quot;block_default&quot;, typeName: &quot;&quot;, id: 9, branchId: 0, recurseId: &#45;1, attributes: 0, notes: &quot;Optional. Default Aim&#45;Assist targeting priority used for Blocks not found in &#39;blocks&#39;.&quot; -->
<g id="node10" class="node">
<title>9</title>
<ellipse fill="none" stroke="black" cx="524.78" cy="-18" rx="61.59" ry="18"/>
<text xml:space="preserve" text-anchor="middle" x="524.78" y="-12.95" font-family="Times New Roman,serif" font-size="14.00">block_default</text>
</g>
<!-- 2&#45;&gt;9 -->
<g id="edge9" class="edge">
<title>2&#45;&gt;9</title>
<path fill="none" stroke="black" d="M404.66,-83C420.23,-71.62 442.17,-56.4 462.68,-45 467.37,-42.39 472.37,-39.84 477.4,-37.42"/>
<polygon fill="black" stroke="black" points="478.74,-40.66 486.33,-33.27 475.79,-34.31 478.74,-40.66"/>
</g>
<!-- 4 -->
<!-- name: &quot;map&lt;Reference,int&gt;&quot;, typeName: &quot;&quot;, id: 4, branchId: 0, recurseId: &#45;1, attributes: 512, notes: &quot;Optional. Map of Entity identifiers to Aim&#45;Assist targeting priority. Larger numbers have greater priority.&quot; -->
<g id="node5" class="node">
<title>4</title>
<ellipse fill="none" stroke="black" cx="711.08" cy="-180" rx="88.2" ry="18"/>
<text xml:space="preserve" text-anchor="middle" x="711.08" y="-174.95" font-family="Times New Roman,serif" font-size="14.00">map&lt;Reference,int&gt;</text>
</g>
<!-- 3&#45;&gt;4 -->
<g id="edge4" class="edge">
<title>3&#45;&gt;4</title>
<path fill="none" stroke="black" d="M562.63,-180C576.85,-180 593.86,-180 611.18,-180"/>
<polygon fill="black" stroke="black" points="611.07,-183.5 621.07,-180 611.07,-176.5 611.07,-183.5"/>
</g>
<!-- 6 -->
<!-- name: &quot;map&lt;Reference,int&gt;&quot;, typeName: &quot;&quot;, id: 6, branchId: 0, recurseId: &#45;1, attributes: 512, notes: &quot;Optional. Map of Block identifiers to Aim&#45;Assist targeting priority. Larger numbers have greater priority.&quot; -->
<g id="node7" class="node">
<title>6</title>
<ellipse fill="none" stroke="black" cx="711.08" cy="-126" rx="88.2" ry="18"/>
<text xml:space="preserve" text-anchor="middle" x="711.08" y="-120.95" font-family="Times New Roman,serif" font-size="14.00">map&lt;Reference,int&gt;</text>
</g>
<!-- 5&#45;&gt;6 -->
<g id="edge6" class="edge">
<title>5&#45;&gt;6</title>
<path fill="none" stroke="black" d="M560.01,-126C574.75,-126 592.82,-126 611.25,-126"/>
<polygon fill="black" stroke="black" points="611.22,-129.5 621.22,-126 611.22,-122.5 611.22,-129.5"/>
</g>
<!-- 8 -->
<!-- name: &quot;int&quot;, typeName: &quot;&quot;, id: 8, branchId: 0, recurseId: &#45;1, attributes: 512, notes: &quot;Optional. Default Aim&#45;Assist targeting priority used for Entities not found in &#39;entities&#39;.&quot; -->
<g id="node9" class="node">
<title>8</title>
<ellipse fill="none" stroke="black" cx="711.08" cy="-72" rx="27" ry="18"/>
<text xml:space="preserve" text-anchor="middle" x="711.08" y="-66.95" font-family="Times New Roman,serif" font-size="14.00">int</text>
</g>
<!-- 7&#45;&gt;8 -->
<g id="edge8" class="edge">
<title>7&#45;&gt;8</title>
<path fill="none" stroke="black" d="M587.15,-72C615.41,-72 648.02,-72 672.56,-72"/>
<polygon fill="black" stroke="black" points="672.38,-75.5 682.38,-72 672.38,-68.5 672.38,-75.5"/>
</g>
<!-- 10 -->
<!-- name: &quot;int&quot;, typeName: &quot;&quot;, id: 10, branchId: 0, recurseId: &#45;1, attributes: 512, notes: &quot;Optional. Default Aim&#45;Assist targeting priority used for Blocks not found in &#39;blocks&#39;.&quot; -->
<g id="node11" class="node">
<title>10</title>
<ellipse fill="none" stroke="black" cx="711.08" cy="-18" rx="27" ry="18"/>
<text xml:space="preserve" text-anchor="middle" x="711.08" y="-12.95" font-family="Times New Roman,serif" font-size="14.00">int</text>
</g>
<!-- 9&#45;&gt;10 -->
<g id="edge10" class="edge">
<title>9&#45;&gt;10</title>
<path fill="none" stroke="black" d="M586.64,-18C614.93,-18 647.69,-18 672.35,-18"/>
<polygon fill="black" stroke="black" points="672.23,-21.5 682.23,-18 672.23,-14.5 672.23,-21.5"/>
</g>
</g>
</svg>
