<?xml version="1.0" encoding="UTF-8" standalone="no"?>
<!DOCTYPE svg PUBLIC "-//W3C//DTD SVG 1.1//EN"
 "http://www.w3.org/Graphics/SVG/1.1/DTD/svg11.dtd">
<!-- Generated by graphviz version 12.2.1 (20241206.2353)
 -->
<!-- Title: CameraPresets Pages: 1 -->
<svg width="953pt" height="98pt"
 viewBox="0.00 0.00 953.15 98.00" xmlns="http://www.w3.org/2000/svg" xmlns:xlink="http://www.w3.org/1999/xlink">
<g id="graph0" class="graph" transform="scale(1 1) rotate(0) translate(4 94)">
<title>CameraPresets</title>
<polygon fill="white" stroke="none" points="-4,4 -4,-94 949.15,-94 949.15,4 -4,4"/>
<!-- 2 -->
<!-- name: &quot;CameraPresets&quot;, typeName: &quot;&quot;, id: 2, branchId: 0, recurseId: &#45;1, attributes: 0, notes: &quot;&quot; -->
<g id="node1" class="node">
<title>2</title>
<ellipse fill="none" stroke="black" cx="66.19" cy="-45" rx="66.19" ry="18"/>
<text text-anchor="middle" x="66.19" y="-39.95" font-family="Times New Roman,serif" font-size="14.00">CameraPresets</text>
</g>
<!-- 3 -->
<!-- name: &quot;Presets&quot;, typeName: &quot;&quot;, id: 3, branchId: 0, recurseId: &#45;1, attributes: 8, notes: &quot;&quot; -->
<g id="node2" class="node">
<title>3</title>
<ellipse fill="none" stroke="black" cx="205.41" cy="-45" rx="37.02" ry="18"/>
<text text-anchor="middle" x="205.41" y="-39.95" font-family="Times New Roman,serif" font-size="14.00">Presets</text>
</g>
<!-- 2&#45;&gt;3 -->
<g id="edge1" class="edge">
<title>2&#45;&gt;3</title>
<path fill="none" stroke="black" d="M132.59,-45C140.65,-45 148.78,-45 156.52,-45"/>
<polygon fill="black" stroke="black" points="156.39,-48.5 166.39,-45 156.39,-41.5 156.39,-48.5"/>
</g>
<!-- 4 -->
<!-- name: &quot;List Size&quot;, typeName: &quot;&quot;, id: 4, branchId: 0, recurseId: &#45;1, attributes: 0, notes: &quot;&quot; -->
<g id="node3" class="node">
<title>4</title>
<ellipse fill="none" stroke="black" cx="529.39" cy="-72" rx="43.67" ry="18"/>
<text text-anchor="middle" x="529.39" y="-66.95" font-family="Times New Roman,serif" font-size="14.00">List Size</text>
</g>
<!-- 3&#45;&gt;4 -->
<g id="edge2" class="edge">
<title>3&#45;&gt;4</title>
<path fill="none" stroke="black" d="M242.41,-48.02C298.99,-52.76 409.06,-61.99 474.91,-67.52"/>
<polygon fill="black" stroke="black" points="474.51,-70.99 484.77,-68.34 475.1,-64.02 474.51,-70.99"/>
</g>
<!-- 6 -->
<!-- name: &quot;example element&quot;, typeName: &quot;&quot;, id: 6, branchId: 0, recurseId: &#45;1, attributes: 16, notes: &quot;&quot; -->
<g id="node5" class="node">
<title>6</title>
<ellipse fill="none" stroke="black" stroke-dasharray="1,5" cx="353.32" cy="-22" rx="74.89" ry="18"/>
<text text-anchor="middle" x="353.32" y="-16.95" font-family="Times New Roman,serif" font-size="14.00">example element</text>
</g>
<!-- 3&#45;&gt;6 -->
<g id="edge4" class="edge">
<title>3&#45;&gt;6</title>
<path fill="none" stroke="black" d="M240.99,-39.55C252.38,-37.75 265.51,-35.68 278.68,-33.61"/>
<polygon fill="black" stroke="black" points="278.88,-37.12 288.21,-32.11 277.79,-30.21 278.88,-37.12"/>
</g>
<!-- 5 -->
<!-- name: &quot;unsigned varint&quot;, typeName: &quot;&quot;, id: 5, branchId: 0, recurseId: &#45;1, attributes: 512, notes: &quot;&quot; -->
<g id="node4" class="node">
<title>5</title>
<ellipse fill="none" stroke="black" cx="787.85" cy="-72" rx="68.24" ry="18"/>
<text text-anchor="middle" x="787.85" y="-66.95" font-family="Times New Roman,serif" font-size="14.00">unsigned varint</text>
</g>
<!-- 4&#45;&gt;5 -->
<g id="edge3" class="edge">
<title>4&#45;&gt;5</title>
<path fill="none" stroke="black" d="M573.32,-72C609.91,-72 663.48,-72 707.8,-72"/>
<polygon fill="black" stroke="black" points="707.64,-75.5 717.64,-72 707.64,-68.5 707.64,-75.5"/>
</g>
<!-- 7 -->
<!-- name: &quot;Camera Preset&quot;, typeName: &quot;SharedTypes::v1_21_80::CameraPreset&quot;, id: 7, branchId: 0, recurseId: &#45;1, attributes: 256, notes: &quot;&quot; -->
<g id="node6" class="node">
<title>7</title>
<ellipse fill="none" stroke="black" cx="529.39" cy="-18" rx="65.17" ry="18"/>
<text text-anchor="middle" x="529.39" y="-12.95" font-family="Times New Roman,serif" font-size="14.00">Camera Preset</text>
</g>
<!-- 6&#45;&gt;7 -->
<g id="edge5" class="edge">
<title>6&#45;&gt;7</title>
<path fill="none" stroke="black" d="M428.4,-20.3C436.45,-20.11 444.65,-19.92 452.72,-19.74"/>
<polygon fill="black" stroke="black" points="452.58,-23.24 462.49,-19.51 452.42,-16.25 452.58,-23.24"/>
</g>
<!-- 98 -->
<!-- name: &quot;SharedTypes::v1_21_80::CameraPreset&quot;, typeName: &quot;&quot;, id: 98, branchId: 0, recurseId: &#45;1, attributes: 512, notes: &quot;&quot; -->
<g id="node7" class="node">
<title>98</title>
<ellipse fill="none" stroke="black" cx="787.85" cy="-18" rx="157.3" ry="18"/>
<text text-anchor="middle" x="787.85" y="-12.95" font-family="Times New Roman,serif" font-size="14.00">SharedTypes::v1_21_80::CameraPreset</text>
</g>
<!-- 7&#45;&gt;98 -->
<g id="edge6" class="edge">
<title>7&#45;&gt;98</title>
<path fill="none" stroke="black" d="M594.77,-18C602.43,-18 610.48,-18 618.79,-18"/>
<polygon fill="black" stroke="black" points="618.74,-21.5 628.74,-18 618.74,-14.5 618.74,-21.5"/>
</g>
</g>
</svg>
