<?xml version="1.0" encoding="UTF-8" standalone="no"?>
<!DOCTYPE svg PUBLIC "-//W3C//DTD SVG 1.1//EN"
 "http://www.w3.org/Graphics/SVG/1.1/DTD/svg11.dtd">
<!-- Generated by graphviz version 11.0.0 (20240428.1522)
 -->
<!-- Title: CameraInstruction::SetInstruction::PosOption Pages: 1 -->
<svg width="553pt" height="44pt"
 viewBox="0.00 0.00 552.82 44.00" xmlns="http://www.w3.org/2000/svg" xmlns:xlink="http://www.w3.org/1999/xlink">
<g id="graph0" class="graph" transform="scale(1 1) rotate(0) translate(4 40)">
<title>CameraInstruction::SetInstruction::PosOption</title>
<polygon fill="white" stroke="none" points="-4,4 -4,-40 548.82,-40 548.82,4 -4,4"/>
<!-- 28 -->
<!-- name: &quot;CameraInstruction::SetInstruction::PosOption&quot;, typeName: &quot;&quot;, id: 28, branchId: 0, recurseId: &#45;1, attributes: 0, notes: &quot;&quot; -->
<g id="node1" class="node">
<title>28</title>
<ellipse fill="none" stroke="black" cx="179.31" cy="-18" rx="179.31" ry="18"/>
<text text-anchor="middle" x="179.31" y="-12.57" font-family="Times New Roman,serif" font-size="14.00">CameraInstruction::SetInstruction::PosOption</text>
</g>
<!-- 29 -->
<!-- name: &quot;Pos&quot;, typeName: &quot;Vec3&quot;, id: 29, branchId: 0, recurseId: &#45;1, attributes: 256, notes: &quot;&quot; -->
<g id="node2" class="node">
<title>29</title>
<ellipse fill="none" stroke="black" cx="421.61" cy="-18" rx="27" ry="18"/>
<text text-anchor="middle" x="421.61" y="-12.57" font-family="Times New Roman,serif" font-size="14.00">Pos</text>
</g>
<!-- 28&#45;&gt;29 -->
<g id="edge1" class="edge">
<title>28&#45;&gt;29</title>
<path fill="none" stroke="black" d="M359.04,-18C367.59,-18 375.62,-18 382.88,-18"/>
<polygon fill="black" stroke="black" points="382.8,-21.5 392.8,-18 382.8,-14.5 382.8,-21.5"/>
</g>
<!-- 30 -->
<!-- name: &quot;Vec3&quot;, typeName: &quot;&quot;, id: 30, branchId: 0, recurseId: &#45;1, attributes: 512, notes: &quot;&quot; -->
<g id="node3" class="node">
<title>30</title>
<ellipse fill="none" stroke="black" cx="514.72" cy="-18" rx="30.11" ry="18"/>
<text text-anchor="middle" x="514.72" y="-12.57" font-family="Times New Roman,serif" font-size="14.00">Vec3</text>
</g>
<!-- 29&#45;&gt;30 -->
<g id="edge2" class="edge">
<title>29&#45;&gt;30</title>
<path fill="none" stroke="black" d="M448.96,-18C456.46,-18 464.82,-18 472.96,-18"/>
<polygon fill="black" stroke="black" points="472.71,-21.5 482.71,-18 472.71,-14.5 472.71,-21.5"/>
</g>
</g>
</svg>
