<?xml version="1.0" encoding="UTF-8" standalone="no"?>
<!DOCTYPE svg PUBLIC "-//W3C//DTD SVG 1.1//EN"
 "http://www.w3.org/Graphics/SVG/1.1/DTD/svg11.dtd">
<!-- Generated by graphviz version 12.2.1 (20241206.2353)
 -->
<!-- Title: CameraInstructionPacket Pages: 1 -->
<svg width="614pt" height="44pt"
 viewBox="0.00 0.00 614.33 44.00" xmlns="http://www.w3.org/2000/svg" xmlns:xlink="http://www.w3.org/1999/xlink">
<g id="graph0" class="graph" transform="scale(1 1) rotate(0) translate(4 40)">
<title>CameraInstructionPacket</title>
<polygon fill="white" stroke="none" points="-4,4 -4,-40 610.33,-40 610.33,4 -4,4"/>
<!-- 0 -->
<!-- name: &quot;CameraInstructionPacket&quot;, typeName: &quot;&quot;, id: 0, branchId: 300, recurseId: &#45;1, attributes: 0, notes: &quot;&quot; -->
<g id="node1" class="node">
<title>0</title>
<ellipse fill="none" stroke="black" cx="104.58" cy="-18" rx="104.58" ry="18"/>
<text text-anchor="middle" x="104.58" y="-12.95" font-family="Times New Roman,serif" font-size="14.00">CameraInstructionPacket</text>
</g>
<!-- 1 -->
<!-- name: &quot;Camera Instruction&quot;, typeName: &quot;CameraInstruction&quot;, id: 1, branchId: 0, recurseId: &#45;1, attributes: 256, notes: &quot;&quot; -->
<g id="node2" class="node">
<title>1</title>
<ellipse fill="none" stroke="black" cx="327.73" cy="-18" rx="82.57" ry="18"/>
<text text-anchor="middle" x="327.73" y="-12.95" font-family="Times New Roman,serif" font-size="14.00">Camera Instruction</text>
</g>
<!-- 0&#45;&gt;1 -->
<g id="edge1" class="edge">
<title>0&#45;&gt;1</title>
<path fill="none" stroke="black" d="M209.36,-18C217.35,-18 225.39,-18 233.31,-18"/>
<polygon fill="black" stroke="black" points="233.29,-21.5 243.29,-18 233.29,-14.5 233.29,-21.5"/>
</g>
<!-- 140 -->
<!-- name: &quot;CameraInstruction&quot;, typeName: &quot;&quot;, id: 140, branchId: 0, recurseId: &#45;1, attributes: 512, notes: &quot;&quot; -->
<g id="node3" class="node">
<title>140</title>
<ellipse fill="none" stroke="black" cx="526.31" cy="-18" rx="80.01" ry="18"/>
<text text-anchor="middle" x="526.31" y="-12.95" font-family="Times New Roman,serif" font-size="14.00">CameraInstruction</text>
</g>
<!-- 1&#45;&gt;140 -->
<g id="edge2" class="edge">
<title>1&#45;&gt;140</title>
<path fill="none" stroke="black" d="M410.68,-18C418.62,-18 426.72,-18 434.75,-18"/>
<polygon fill="black" stroke="black" points="434.51,-21.5 444.51,-18 434.51,-14.5 434.51,-21.5"/>
</g>
</g>
</svg>
