<?xml version="1.0" encoding="UTF-8" standalone="no"?>
<!DOCTYPE svg PUBLIC "-//W3C//DTD SVG 1.1//EN"
 "http://www.w3.org/Graphics/SVG/1.1/DTD/svg11.dtd">
<!-- Generated by graphviz version 14.1.1 (20251213.1925)
 -->
<!-- Title: CameraSplineDefinition Pages: 1 -->
<svg width="1220pt" height="800pt"
 viewBox="0.00 0.00 1220.00 800.00" xmlns="http://www.w3.org/2000/svg" xmlns:xlink="http://www.w3.org/1999/xlink">
<g id="graph0" class="graph" transform="scale(1 1) rotate(0) translate(4 796)">
<title>CameraSplineDefinition</title>
<polygon fill="white" stroke="none" points="-4,4 -4,-796 1215.81,-796 1215.81,4 -4,4"/>
<!-- 0 -->
<!-- name: &quot;CameraSplineDefinition&quot;, typeName: &quot;&quot;, id: 0, branchId: 0, recurseId: &#45;1, attributes: 0, notes: &quot;&quot; -->
<g id="node1" class="node">
<title>0</title>
<ellipse fill="none" stroke="black" cx="101.51" cy="-639" rx="101.51" ry="18"/>
<text xml:space="preserve" text-anchor="middle" x="101.51" y="-633.95" font-family="Times New Roman,serif" font-size="14.00">CameraSplineDefinition</text>
</g>
<!-- 1 -->
<!-- name: &quot;name&quot;, typeName: &quot;&quot;, id: 1, branchId: 0, recurseId: &#45;1, attributes: 0, notes: &quot;The identifier for this spline, in &quot;namespace:name&quot; format.&quot; -->
<g id="node2" class="node">
<title>1</title>
<ellipse fill="none" stroke="black" cx="326.71" cy="-774" rx="31.39" ry="18"/>
<text xml:space="preserve" text-anchor="middle" x="326.71" y="-768.95" font-family="Times New Roman,serif" font-size="14.00">name</text>
</g>
<!-- 0&#45;&gt;1 -->
<g id="edge1" class="edge">
<title>0&#45;&gt;1</title>
<path fill="none" stroke="black" d="M120.39,-656.78C145.1,-680.44 191.98,-722.17 239.02,-747 253.71,-754.76 271,-760.7 286.26,-765.02"/>
<polygon fill="black" stroke="black" points="284.92,-768.28 295.49,-767.48 286.73,-761.52 284.92,-768.28"/>
</g>
<!-- 3 -->
<!-- name: &quot;total_time&quot;, typeName: &quot;&quot;, id: 3, branchId: 0, recurseId: &#45;1, attributes: 0, notes: &quot;The total time, in seconds, to play back the spline.&quot; -->
<g id="node4" class="node">
<title>3</title>
<ellipse fill="none" stroke="black" cx="326.71" cy="-720" rx="48.79" ry="18"/>
<text xml:space="preserve" text-anchor="middle" x="326.71" y="-714.95" font-family="Times New Roman,serif" font-size="14.00">total_time</text>
</g>
<!-- 0&#45;&gt;3 -->
<g id="edge3" class="edge">
<title>0&#45;&gt;3</title>
<path fill="none" stroke="black" d="M142.83,-655.87C169.85,-666.94 206.33,-681.46 239.02,-693 251.2,-697.3 264.48,-701.62 276.89,-705.5"/>
<polygon fill="black" stroke="black" points="275.49,-708.73 286.08,-708.34 277.56,-702.04 275.49,-708.73"/>
</g>
<!-- 5 -->
<!-- name: &quot;spline_type&quot;, typeName: &quot;&quot;, id: 5, branchId: 0, recurseId: &#45;1, attributes: 0, notes: &quot;The spline interpolation type: &quot;catmullrom&quot; or &quot;linear&quot;. Defaults to &quot;catmullrom&quot;.&quot; -->
<g id="node6" class="node">
<title>5</title>
<ellipse fill="none" stroke="black" cx="326.71" cy="-666" rx="53.4" ry="18"/>
<text xml:space="preserve" text-anchor="middle" x="326.71" y="-660.95" font-family="Times New Roman,serif" font-size="14.00">spline_type</text>
</g>
<!-- 0&#45;&gt;5 -->
<g id="edge5" class="edge">
<title>0&#45;&gt;5</title>
<path fill="none" stroke="black" d="M186.57,-649.17C212.6,-652.32 240.76,-655.72 264.9,-658.64"/>
<polygon fill="black" stroke="black" points="264.19,-662.08 274.53,-659.81 265.03,-655.13 264.19,-662.08"/>
</g>
<!-- 7 -->
<!-- name: &quot;control_points&quot;, typeName: &quot;&quot;, id: 7, branchId: 0, recurseId: &#45;1, attributes: 0, notes: &quot;Array of control point positions, each as [x, y, z] in world space.&quot; -->
<g id="node8" class="node">
<title>7</title>
<ellipse fill="none" stroke="black" cx="326.71" cy="-612" rx="64.15" ry="18"/>
<text xml:space="preserve" text-anchor="middle" x="326.71" y="-606.95" font-family="Times New Roman,serif" font-size="14.00">control_points</text>
</g>
<!-- 0&#45;&gt;7 -->
<g id="edge7" class="edge">
<title>0&#45;&gt;7</title>
<path fill="none" stroke="black" d="M186.57,-628.83C209.41,-626.07 233.88,-623.11 255.84,-620.45"/>
<polygon fill="black" stroke="black" points="256.06,-623.95 265.57,-619.27 255.22,-617 256.06,-623.95"/>
</g>
<!-- 18 -->
<!-- name: &quot;progress_key_frames&quot;, typeName: &quot;&quot;, id: 18, branchId: 0, recurseId: &#45;1, attributes: 0, notes: &quot;Key frames where each entry defines a progress alpha [0–1] and a time (in seconds) when the spline should reach that progress.&quot; -->
<g id="node19" class="node">
<title>18</title>
<ellipse fill="none" stroke="black" cx="540.65" cy="-450" rx="90.25" ry="18"/>
<text xml:space="preserve" text-anchor="middle" x="540.65" y="-444.95" font-family="Times New Roman,serif" font-size="14.00">progress_key_frames</text>
</g>
<!-- 0&#45;&gt;18 -->
<g id="edge18" class="edge">
<title>0&#45;&gt;18</title>
<path fill="none" stroke="black" d="M141.69,-622.06C221.65,-587.49 403.47,-508.88 490.9,-471.07"/>
<polygon fill="black" stroke="black" points="492.16,-474.34 499.95,-467.16 489.38,-467.92 492.16,-474.34"/>
</g>
<!-- 28 -->
<!-- name: &quot;rotation_key_frames&quot;, typeName: &quot;&quot;, id: 28, branchId: 0, recurseId: &#45;1, attributes: 0, notes: &quot;Array of rotation key frames, each with a rotation value and the time (in seconds) when it should be applied.&quot; -->
<g id="node29" class="node">
<title>28</title>
<ellipse fill="none" stroke="black" cx="326.71" cy="-261" rx="87.69" ry="18"/>
<text xml:space="preserve" text-anchor="middle" x="326.71" y="-255.95" font-family="Times New Roman,serif" font-size="14.00">rotation_key_frames</text>
</g>
<!-- 0&#45;&gt;28 -->
<g id="edge28" class="edge">
<title>0&#45;&gt;28</title>
<path fill="none" stroke="black" d="M113.27,-620.77C149.37,-559.64 266.25,-361.69 309.46,-288.52"/>
<polygon fill="black" stroke="black" points="312.21,-290.74 314.28,-280.35 306.18,-287.18 312.21,-290.74"/>
</g>
<!-- 2 -->
<!-- name: &quot;string&quot;, typeName: &quot;&quot;, id: 2, branchId: 0, recurseId: &#45;1, attributes: 512, notes: &quot;The identifier for this spline, in &quot;namespace:name&quot; format.&quot; -->
<g id="node3" class="node">
<title>2</title>
<ellipse fill="none" stroke="black" cx="1118.49" cy="-774" rx="31.9" ry="18"/>
<text xml:space="preserve" text-anchor="middle" x="1118.49" y="-768.95" font-family="Times New Roman,serif" font-size="14.00">string</text>
</g>
<!-- 1&#45;&gt;2 -->
<g id="edge2" class="edge">
<title>1&#45;&gt;2</title>
<path fill="none" stroke="black" d="M358.18,-774C480.19,-774 933.64,-774 1075.07,-774"/>
<polygon fill="black" stroke="black" points="1074.73,-777.5 1084.73,-774 1074.73,-770.5 1074.73,-777.5"/>
</g>
<!-- 4 -->
<!-- name: &quot;float&quot;, typeName: &quot;&quot;, id: 4, branchId: 0, recurseId: &#45;1, attributes: 512, notes: &quot;The total time, in seconds, to play back the spline.&quot; -->
<g id="node5" class="node">
<title>4</title>
<ellipse fill="none" stroke="black" cx="1118.49" cy="-720" rx="27.81" ry="18"/>
<text xml:space="preserve" text-anchor="middle" x="1118.49" y="-714.95" font-family="Times New Roman,serif" font-size="14.00">float</text>
</g>
<!-- 3&#45;&gt;4 -->
<g id="edge4" class="edge">
<title>3&#45;&gt;4</title>
<path fill="none" stroke="black" d="M375.92,-720C520.44,-720 948.13,-720 1079,-720"/>
<polygon fill="black" stroke="black" points="1078.86,-723.5 1088.86,-720 1078.86,-716.5 1078.86,-723.5"/>
</g>
<!-- 6 -->
<!-- name: &quot;string&quot;, typeName: &quot;&quot;, id: 6, branchId: 0, recurseId: &#45;1, attributes: 512, notes: &quot;The spline interpolation type: &quot;catmullrom&quot; or &quot;linear&quot;. Defaults to &quot;catmullrom&quot;.&quot; -->
<g id="node7" class="node">
<title>6</title>
<ellipse fill="none" stroke="black" cx="1118.49" cy="-666" rx="31.9" ry="18"/>
<text xml:space="preserve" text-anchor="middle" x="1118.49" y="-660.95" font-family="Times New Roman,serif" font-size="14.00">string</text>
</g>
<!-- 5&#45;&gt;6 -->
<g id="edge6" class="edge">
<title>5&#45;&gt;6</title>
<path fill="none" stroke="black" d="M380.45,-666C527.71,-666 941.29,-666 1075.12,-666"/>
<polygon fill="black" stroke="black" points="1074.95,-669.5 1084.95,-666 1074.95,-662.5 1074.95,-669.5"/>
</g>
<!-- 8 -->
<!-- name: &quot;List Size&quot;, typeName: &quot;&quot;, id: 8, branchId: 0, recurseId: &#45;1, attributes: 0, notes: &quot;&quot; -->
<g id="node9" class="node">
<title>8</title>
<ellipse fill="none" stroke="black" cx="540.65" cy="-612" rx="43.67" ry="18"/>
<text xml:space="preserve" text-anchor="middle" x="540.65" y="-606.95" font-family="Times New Roman,serif" font-size="14.00">List Size</text>
</g>
<!-- 7&#45;&gt;8 -->
<g id="edge8" class="edge">
<title>7&#45;&gt;8</title>
<path fill="none" stroke="black" d="M391.3,-612C421.19,-612 456.48,-612 485.14,-612"/>
<polygon fill="black" stroke="black" points="485.06,-615.5 495.06,-612 485.06,-608.5 485.06,-615.5"/>
</g>
<!-- 10 -->
<!-- name: &quot;example element&quot;, typeName: &quot;&quot;, id: 10, branchId: 0, recurseId: &#45;1, attributes: 16, notes: &quot;&quot; -->
<g id="node11" class="node">
<title>10</title>
<ellipse fill="none" stroke="black" stroke-dasharray="1,5" cx="540.65" cy="-558" rx="74.89" ry="18"/>
<text xml:space="preserve" text-anchor="middle" x="540.65" y="-552.95" font-family="Times New Roman,serif" font-size="14.00">example element</text>
</g>
<!-- 7&#45;&gt;10 -->
<g id="edge10" class="edge">
<title>7&#45;&gt;10</title>
<path fill="none" stroke="black" d="M375.27,-599.88C405.42,-592.2 444.75,-582.18 477.38,-573.86"/>
<polygon fill="black" stroke="black" points="477.87,-577.35 486.7,-571.49 476.14,-570.57 477.87,-577.35"/>
</g>
<!-- 9 -->
<!-- name: &quot;unsigned varint&quot;, typeName: &quot;&quot;, id: 9, branchId: 0, recurseId: &#45;1, attributes: 0, notes: &quot;&quot; -->
<g id="node10" class="node">
<title>9</title>
<ellipse fill="none" stroke="black" cx="741.79" cy="-612" rx="68.24" ry="18"/>
<text xml:space="preserve" text-anchor="middle" x="741.79" y="-606.95" font-family="Times New Roman,serif" font-size="14.00">unsigned varint</text>
</g>
<!-- 8&#45;&gt;9 -->
<g id="edge9" class="edge">
<title>8&#45;&gt;9</title>
<path fill="none" stroke="black" d="M584.37,-612C606.97,-612 635.44,-612 661.89,-612"/>
<polygon fill="black" stroke="black" points="661.56,-615.5 671.56,-612 661.56,-608.5 661.56,-615.5"/>
</g>
<!-- 11 -->
<!-- name: &quot;position&quot;, typeName: &quot;&quot;, id: 11, branchId: 0, recurseId: &#45;1, attributes: 0, notes: &quot;The [x, y, z] position of a spline node.&quot; -->
<g id="node12" class="node">
<title>11</title>
<ellipse fill="none" stroke="black" cx="741.79" cy="-558" rx="40.6" ry="18"/>
<text xml:space="preserve" text-anchor="middle" x="741.79" y="-552.95" font-family="Times New Roman,serif" font-size="14.00">position</text>
</g>
<!-- 10&#45;&gt;11 -->
<g id="edge11" class="edge">
<title>10&#45;&gt;11</title>
<path fill="none" stroke="black" d="M615.8,-558C640.38,-558 667.17,-558 689.62,-558"/>
<polygon fill="black" stroke="black" points="689.42,-561.5 699.42,-558 689.42,-554.5 689.42,-561.5"/>
</g>
<!-- 12 -->
<!-- name: &quot;X&quot;, typeName: &quot;&quot;, id: 12, branchId: 0, recurseId: &#45;1, attributes: 0, notes: &quot;&quot; -->
<g id="node13" class="node">
<title>12</title>
<ellipse fill="none" stroke="black" cx="920.92" cy="-612" rx="27" ry="18"/>
<text xml:space="preserve" text-anchor="middle" x="920.92" y="-606.95" font-family="Times New Roman,serif" font-size="14.00">X</text>
</g>
<!-- 11&#45;&gt;12 -->
<g id="edge12" class="edge">
<title>11&#45;&gt;12</title>
<path fill="none" stroke="black" d="M776.11,-568.16C807.17,-577.63 853.33,-591.7 884.92,-601.33"/>
<polygon fill="black" stroke="black" points="883.81,-604.65 894.4,-604.22 885.85,-597.95 883.81,-604.65"/>
</g>
<!-- 14 -->
<!-- name: &quot;Y&quot;, typeName: &quot;&quot;, id: 14, branchId: 0, recurseId: &#45;1, attributes: 0, notes: &quot;&quot; -->
<g id="node15" class="node">
<title>14</title>
<ellipse fill="none" stroke="black" cx="920.92" cy="-558" rx="27" ry="18"/>
<text xml:space="preserve" text-anchor="middle" x="920.92" y="-552.95" font-family="Times New Roman,serif" font-size="14.00">Y</text>
</g>
<!-- 11&#45;&gt;14 -->
<g id="edge14" class="edge">
<title>11&#45;&gt;14</title>
<path fill="none" stroke="black" d="M782.54,-558C812.31,-558 852.77,-558 882.06,-558"/>
<polygon fill="black" stroke="black" points="881.97,-561.5 891.97,-558 881.97,-554.5 881.97,-561.5"/>
</g>
<!-- 16 -->
<!-- name: &quot;Z&quot;, typeName: &quot;&quot;, id: 16, branchId: 0, recurseId: &#45;1, attributes: 0, notes: &quot;&quot; -->
<g id="node17" class="node">
<title>16</title>
<ellipse fill="none" stroke="black" cx="920.92" cy="-504" rx="27" ry="18"/>
<text xml:space="preserve" text-anchor="middle" x="920.92" y="-498.95" font-family="Times New Roman,serif" font-size="14.00">Z</text>
</g>
<!-- 11&#45;&gt;16 -->
<g id="edge16" class="edge">
<title>11&#45;&gt;16</title>
<path fill="none" stroke="black" d="M776.11,-547.84C807.17,-538.37 853.33,-524.3 884.92,-514.67"/>
<polygon fill="black" stroke="black" points="885.85,-518.05 894.4,-511.78 883.81,-511.35 885.85,-518.05"/>
</g>
<!-- 13 -->
<!-- name: &quot;float&quot;, typeName: &quot;&quot;, id: 13, branchId: 0, recurseId: &#45;1, attributes: 512, notes: &quot;&quot; -->
<g id="node14" class="node">
<title>13</title>
<ellipse fill="none" stroke="black" cx="1118.49" cy="-612" rx="27.81" ry="18"/>
<text xml:space="preserve" text-anchor="middle" x="1118.49" y="-606.95" font-family="Times New Roman,serif" font-size="14.00">float</text>
</g>
<!-- 12&#45;&gt;13 -->
<g id="edge13" class="edge">
<title>12&#45;&gt;13</title>
<path fill="none" stroke="black" d="M948.3,-612C981.93,-612 1040.36,-612 1078.98,-612"/>
<polygon fill="black" stroke="black" points="1078.76,-615.5 1088.76,-612 1078.76,-608.5 1078.76,-615.5"/>
</g>
<!-- 15 -->
<!-- name: &quot;float&quot;, typeName: &quot;&quot;, id: 15, branchId: 0, recurseId: &#45;1, attributes: 512, notes: &quot;&quot; -->
<g id="node16" class="node">
<title>15</title>
<ellipse fill="none" stroke="black" cx="1118.49" cy="-558" rx="27.81" ry="18"/>
<text xml:space="preserve" text-anchor="middle" x="1118.49" y="-552.95" font-family="Times New Roman,serif" font-size="14.00">float</text>
</g>
<!-- 14&#45;&gt;15 -->
<g id="edge15" class="edge">
<title>14&#45;&gt;15</title>
<path fill="none" stroke="black" d="M948.3,-558C981.93,-558 1040.36,-558 1078.98,-558"/>
<polygon fill="black" stroke="black" points="1078.76,-561.5 1088.76,-558 1078.76,-554.5 1078.76,-561.5"/>
</g>
<!-- 17 -->
<!-- name: &quot;float&quot;, typeName: &quot;&quot;, id: 17, branchId: 0, recurseId: &#45;1, attributes: 512, notes: &quot;&quot; -->
<g id="node18" class="node">
<title>17</title>
<ellipse fill="none" stroke="black" cx="1118.49" cy="-504" rx="27.81" ry="18"/>
<text xml:space="preserve" text-anchor="middle" x="1118.49" y="-498.95" font-family="Times New Roman,serif" font-size="14.00">float</text>
</g>
<!-- 16&#45;&gt;17 -->
<g id="edge17" class="edge">
<title>16&#45;&gt;17</title>
<path fill="none" stroke="black" d="M948.3,-504C981.93,-504 1040.36,-504 1078.98,-504"/>
<polygon fill="black" stroke="black" points="1078.76,-507.5 1088.76,-504 1078.76,-500.5 1078.76,-507.5"/>
</g>
<!-- 19 -->
<!-- name: &quot;List Size&quot;, typeName: &quot;&quot;, id: 19, branchId: 0, recurseId: &#45;1, attributes: 0, notes: &quot;&quot; -->
<g id="node20" class="node">
<title>19</title>
<ellipse fill="none" stroke="black" cx="741.79" cy="-450" rx="43.67" ry="18"/>
<text xml:space="preserve" text-anchor="middle" x="741.79" y="-444.95" font-family="Times New Roman,serif" font-size="14.00">List Size</text>
</g>
<!-- 18&#45;&gt;19 -->
<g id="edge19" class="edge">
<title>18&#45;&gt;19</title>
<path fill="none" stroke="black" d="M631.31,-450C650.1,-450 669.37,-450 686.39,-450"/>
<polygon fill="black" stroke="black" points="686.28,-453.5 696.28,-450 686.28,-446.5 686.28,-453.5"/>
</g>
<!-- 21 -->
<!-- name: &quot;example element&quot;, typeName: &quot;&quot;, id: 21, branchId: 0, recurseId: &#45;1, attributes: 16, notes: &quot;&quot; -->
<g id="node22" class="node">
<title>21</title>
<ellipse fill="none" stroke="black" stroke-dasharray="1,5" cx="741.79" cy="-369" rx="74.89" ry="18"/>
<text xml:space="preserve" text-anchor="middle" x="741.79" y="-363.95" font-family="Times New Roman,serif" font-size="14.00">example element</text>
</g>
<!-- 18&#45;&gt;21 -->
<g id="edge21" class="edge">
<title>18&#45;&gt;21</title>
<path fill="none" stroke="black" d="M581.95,-433.61C613.63,-420.72 657.92,-402.71 691.68,-388.98"/>
<polygon fill="black" stroke="black" points="692.89,-392.26 700.84,-385.25 690.26,-385.78 692.89,-392.26"/>
</g>
<!-- 20 -->
<!-- name: &quot;unsigned varint&quot;, typeName: &quot;&quot;, id: 20, branchId: 0, recurseId: &#45;1, attributes: 0, notes: &quot;&quot; -->
<g id="node21" class="node">
<title>20</title>
<ellipse fill="none" stroke="black" cx="920.92" cy="-450" rx="68.24" ry="18"/>
<text xml:space="preserve" text-anchor="middle" x="920.92" y="-444.95" font-family="Times New Roman,serif" font-size="14.00">unsigned varint</text>
</g>
<!-- 19&#45;&gt;20 -->
<g id="edge20" class="edge">
<title>19&#45;&gt;20</title>
<path fill="none" stroke="black" d="M785.67,-450C802.28,-450 821.85,-450 840.83,-450"/>
<polygon fill="black" stroke="black" points="840.71,-453.5 850.71,-450 840.71,-446.5 840.71,-453.5"/>
</g>
<!-- 22 -->
<!-- name: &quot;progress&quot;, typeName: &quot;&quot;, id: 22, branchId: 0, recurseId: &#45;1, attributes: 0, notes: &quot;Normalized progress of this frame along the spline, from 0.0 (start) to 1.0 (end).&quot; -->
<g id="node23" class="node">
<title>22</title>
<ellipse fill="none" stroke="black" cx="920.92" cy="-396" rx="42.14" ry="18"/>
<text xml:space="preserve" text-anchor="middle" x="920.92" y="-390.95" font-family="Times New Roman,serif" font-size="14.00">progress</text>
</g>
<!-- 21&#45;&gt;22 -->
<g id="edge22" class="edge">
<title>21&#45;&gt;22</title>
<path fill="none" stroke="black" d="M805.74,-378.6C826.6,-381.78 849.54,-385.27 869.35,-388.29"/>
<polygon fill="black" stroke="black" points="868.71,-391.73 879.12,-389.78 869.76,-384.81 868.71,-391.73"/>
</g>
<!-- 24 -->
<!-- name: &quot;time&quot;, typeName: &quot;&quot;, id: 24, branchId: 0, recurseId: &#45;1, attributes: 0, notes: &quot;Time (in seconds) at which this progress should be applied.&quot; -->
<g id="node25" class="node">
<title>24</title>
<ellipse fill="none" stroke="black" cx="920.92" cy="-342" rx="27.81" ry="18"/>
<text xml:space="preserve" text-anchor="middle" x="920.92" y="-336.95" font-family="Times New Roman,serif" font-size="14.00">time</text>
</g>
<!-- 21&#45;&gt;24 -->
<g id="edge24" class="edge">
<title>21&#45;&gt;24</title>
<path fill="none" stroke="black" d="M805.74,-359.4C831.36,-355.5 860.12,-351.12 882.36,-347.73"/>
<polygon fill="black" stroke="black" points="882.81,-351.2 892.17,-346.23 881.76,-344.28 882.81,-351.2"/>
</g>
<!-- 26 -->
<!-- name: &quot;easing&quot;, typeName: &quot;&quot;, id: 26, branchId: 0, recurseId: &#45;1, attributes: 0, notes: &quot;Optional easing function used to interpolate towards this progress key frame. Defaults to &quot;linear&quot; if omitted.&quot; -->
<g id="node27" class="node">
<title>26</title>
<ellipse fill="none" stroke="black" cx="920.92" cy="-288" rx="34.46" ry="18"/>
<text xml:space="preserve" text-anchor="middle" x="920.92" y="-282.95" font-family="Times New Roman,serif" font-size="14.00">easing</text>
</g>
<!-- 21&#45;&gt;26 -->
<g id="edge26" class="edge">
<title>21&#45;&gt;26</title>
<path fill="none" stroke="black" d="M774.71,-352.53C796.48,-341.49 826.08,-326.86 852.68,-315 862.03,-310.83 872.23,-306.59 881.8,-302.73"/>
<polygon fill="black" stroke="black" points="882.85,-306.08 890.84,-299.13 880.26,-299.58 882.85,-306.08"/>
</g>
<!-- 23 -->
<!-- name: &quot;float&quot;, typeName: &quot;&quot;, id: 23, branchId: 0, recurseId: &#45;1, attributes: 512, notes: &quot;Normalized progress of this frame along the spline, from 0.0 (start) to 1.0 (end).&quot; -->
<g id="node24" class="node">
<title>23</title>
<ellipse fill="none" stroke="black" cx="1118.49" cy="-396" rx="27.81" ry="18"/>
<text xml:space="preserve" text-anchor="middle" x="1118.49" y="-390.95" font-family="Times New Roman,serif" font-size="14.00">float</text>
</g>
<!-- 22&#45;&gt;23 -->
<g id="edge23" class="edge">
<title>22&#45;&gt;23</title>
<path fill="none" stroke="black" d="M963.4,-396C997.6,-396 1045.74,-396 1079.07,-396"/>
<polygon fill="black" stroke="black" points="1078.68,-399.5 1088.68,-396 1078.68,-392.5 1078.68,-399.5"/>
</g>
<!-- 25 -->
<!-- name: &quot;float&quot;, typeName: &quot;&quot;, id: 25, branchId: 0, recurseId: &#45;1, attributes: 512, notes: &quot;Time (in seconds) at which this progress should be applied.&quot; -->
<g id="node26" class="node">
<title>25</title>
<ellipse fill="none" stroke="black" cx="1118.49" cy="-342" rx="27.81" ry="18"/>
<text xml:space="preserve" text-anchor="middle" x="1118.49" y="-336.95" font-family="Times New Roman,serif" font-size="14.00">float</text>
</g>
<!-- 24&#45;&gt;25 -->
<g id="edge25" class="edge">
<title>24&#45;&gt;25</title>
<path fill="none" stroke="black" d="M949.12,-342C982.88,-342 1040.69,-342 1079,-342"/>
<polygon fill="black" stroke="black" points="1078.7,-345.5 1088.7,-342 1078.7,-338.5 1078.7,-345.5"/>
</g>
<!-- 27 -->
<!-- name: &quot;enum easing_function&quot;, typeName: &quot;&quot;, id: 27, branchId: 0, recurseId: &#45;1, attributes: 512, notes: &quot;Optional easing function used to interpolate towards this progress key frame. Defaults to &quot;linear&quot; if omitted.&quot; -->
<g id="node28" class="node">
<title>27</title>
<ellipse fill="none" stroke="black" cx="1118.49" cy="-288" rx="93.32" ry="18"/>
<text xml:space="preserve" text-anchor="middle" x="1118.49" y="-282.95" font-family="Times New Roman,serif" font-size="14.00">enum easing_function</text>
</g>
<!-- 26&#45;&gt;27 -->
<g id="edge27" class="edge">
<title>26&#45;&gt;27</title>
<path fill="none" stroke="black" d="M955.54,-288C971.93,-288 992.62,-288 1013.68,-288"/>
<polygon fill="black" stroke="black" points="1013.53,-291.5 1023.53,-288 1013.53,-284.5 1013.53,-291.5"/>
</g>
<!-- 29 -->
<!-- name: &quot;List Size&quot;, typeName: &quot;&quot;, id: 29, branchId: 0, recurseId: &#45;1, attributes: 0, notes: &quot;&quot; -->
<g id="node30" class="node">
<title>29</title>
<ellipse fill="none" stroke="black" cx="540.65" cy="-261" rx="43.67" ry="18"/>
<text xml:space="preserve" text-anchor="middle" x="540.65" y="-255.95" font-family="Times New Roman,serif" font-size="14.00">List Size</text>
</g>
<!-- 28&#45;&gt;29 -->
<g id="edge29" class="edge">
<title>28&#45;&gt;29</title>
<path fill="none" stroke="black" d="M414.83,-261C438.62,-261 463.73,-261 485.13,-261"/>
<polygon fill="black" stroke="black" points="485.1,-264.5 495.1,-261 485.1,-257.5 485.1,-264.5"/>
</g>
<!-- 31 -->
<!-- name: &quot;example element&quot;, typeName: &quot;&quot;, id: 31, branchId: 0, recurseId: &#45;1, attributes: 16, notes: &quot;&quot; -->
<g id="node32" class="node">
<title>31</title>
<ellipse fill="none" stroke="black" stroke-dasharray="1,5" cx="540.65" cy="-126" rx="74.89" ry="18"/>
<text xml:space="preserve" text-anchor="middle" x="540.65" y="-120.95" font-family="Times New Roman,serif" font-size="14.00">example element</text>
</g>
<!-- 28&#45;&gt;31 -->
<g id="edge31" class="edge">
<title>28&#45;&gt;31</title>
<path fill="none" stroke="black" d="M354.98,-243.63C392.76,-219.56 461.11,-176.03 503.22,-149.2"/>
<polygon fill="black" stroke="black" points="504.98,-152.23 511.53,-143.91 501.22,-146.33 504.98,-152.23"/>
</g>
<!-- 30 -->
<!-- name: &quot;unsigned varint&quot;, typeName: &quot;&quot;, id: 30, branchId: 0, recurseId: &#45;1, attributes: 0, notes: &quot;&quot; -->
<g id="node31" class="node">
<title>30</title>
<ellipse fill="none" stroke="black" cx="741.79" cy="-261" rx="68.24" ry="18"/>
<text xml:space="preserve" text-anchor="middle" x="741.79" y="-255.95" font-family="Times New Roman,serif" font-size="14.00">unsigned varint</text>
</g>
<!-- 29&#45;&gt;30 -->
<g id="edge30" class="edge">
<title>29&#45;&gt;30</title>
<path fill="none" stroke="black" d="M584.37,-261C606.97,-261 635.44,-261 661.89,-261"/>
<polygon fill="black" stroke="black" points="661.56,-264.5 671.56,-261 661.56,-257.5 661.56,-264.5"/>
</g>
<!-- 32 -->
<!-- name: &quot;rotation&quot;, typeName: &quot;&quot;, id: 32, branchId: 0, recurseId: &#45;1, attributes: 0, notes: &quot;Rotation [x, y, z] value.&quot; -->
<g id="node33" class="node">
<title>32</title>
<ellipse fill="none" stroke="black" cx="741.79" cy="-153" rx="39.58" ry="18"/>
<text xml:space="preserve" text-anchor="middle" x="741.79" y="-147.95" font-family="Times New Roman,serif" font-size="14.00">rotation</text>
</g>
<!-- 31&#45;&gt;32 -->
<g id="edge32" class="edge">
<title>31&#45;&gt;32</title>
<path fill="none" stroke="black" d="M606.85,-134.84C634.59,-138.6 666.39,-142.91 692.04,-146.39"/>
<polygon fill="black" stroke="black" points="691.47,-149.85 701.85,-147.72 692.41,-142.91 691.47,-149.85"/>
</g>
<!-- 39 -->
<!-- name: &quot;time&quot;, typeName: &quot;&quot;, id: 39, branchId: 0, recurseId: &#45;1, attributes: 0, notes: &quot;Time (in seconds) at which this rotation should be applied.&quot; -->
<g id="node40" class="node">
<title>39</title>
<ellipse fill="none" stroke="black" cx="741.79" cy="-92" rx="27.81" ry="18"/>
<text xml:space="preserve" text-anchor="middle" x="741.79" y="-86.95" font-family="Times New Roman,serif" font-size="14.00">time</text>
</g>
<!-- 31&#45;&gt;39 -->
<g id="edge39" class="edge">
<title>31&#45;&gt;39</title>
<path fill="none" stroke="black" d="M602.75,-115.57C635.61,-109.96 675.07,-103.22 703.37,-98.39"/>
<polygon fill="black" stroke="black" points="703.63,-101.9 712.9,-96.76 702.45,-94.99 703.63,-101.9"/>
</g>
<!-- 41 -->
<!-- name: &quot;easing&quot;, typeName: &quot;&quot;, id: 41, branchId: 0, recurseId: &#45;1, attributes: 0, notes: &quot;Optional easing function used to interpolate towards this rotation key frame. Defaults to &quot;linear&quot; if omitted.&quot; -->
<g id="node42" class="node">
<title>41</title>
<ellipse fill="none" stroke="black" cx="741.79" cy="-25" rx="34.46" ry="18"/>
<text xml:space="preserve" text-anchor="middle" x="741.79" y="-19.95" font-family="Times New Roman,serif" font-size="14.00">easing</text>
</g>
<!-- 31&#45;&gt;41 -->
<g id="edge41" class="edge">
<title>31&#45;&gt;41</title>
<path fill="none" stroke="black" d="M574.08,-109.55C610.45,-91.1 669.19,-61.32 706.35,-42.47"/>
<polygon fill="black" stroke="black" points="707.54,-45.79 714.87,-38.14 704.37,-39.54 707.54,-45.79"/>
</g>
<!-- 33 -->
<!-- name: &quot;X&quot;, typeName: &quot;&quot;, id: 33, branchId: 0, recurseId: &#45;1, attributes: 0, notes: &quot;&quot; -->
<g id="node34" class="node">
<title>33</title>
<ellipse fill="none" stroke="black" cx="920.92" cy="-234" rx="27" ry="18"/>
<text xml:space="preserve" text-anchor="middle" x="920.92" y="-228.95" font-family="Times New Roman,serif" font-size="14.00">X</text>
</g>
<!-- 32&#45;&gt;33 -->
<g id="edge33" class="edge">
<title>32&#45;&gt;33</title>
<path fill="none" stroke="black" d="M768.73,-166.43C790.84,-177.71 823.56,-194.02 852.68,-207 863.63,-211.88 875.74,-216.86 886.63,-221.2"/>
<polygon fill="black" stroke="black" points="885.03,-224.33 895.62,-224.74 887.6,-217.82 885.03,-224.33"/>
</g>
<!-- 35 -->
<!-- name: &quot;Y&quot;, typeName: &quot;&quot;, id: 35, branchId: 0, recurseId: &#45;1, attributes: 0, notes: &quot;&quot; -->
<g id="node36" class="node">
<title>35</title>
<ellipse fill="none" stroke="black" cx="920.92" cy="-180" rx="27" ry="18"/>
<text xml:space="preserve" text-anchor="middle" x="920.92" y="-174.95" font-family="Times New Roman,serif" font-size="14.00">Y</text>
</g>
<!-- 32&#45;&gt;35 -->
<g id="edge35" class="edge">
<title>32&#45;&gt;35</title>
<path fill="none" stroke="black" d="M779.92,-158.66C810.19,-163.27 852.73,-169.76 882.96,-174.37"/>
<polygon fill="black" stroke="black" points="882.38,-177.82 892.79,-175.86 883.43,-170.9 882.38,-177.82"/>
</g>
<!-- 37 -->
<!-- name: &quot;Z&quot;, typeName: &quot;&quot;, id: 37, branchId: 0, recurseId: &#45;1, attributes: 0, notes: &quot;&quot; -->
<g id="node38" class="node">
<title>37</title>
<ellipse fill="none" stroke="black" cx="920.92" cy="-126" rx="27" ry="18"/>
<text xml:space="preserve" text-anchor="middle" x="920.92" y="-120.95" font-family="Times New Roman,serif" font-size="14.00">Z</text>
</g>
<!-- 32&#45;&gt;37 -->
<g id="edge37" class="edge">
<title>32&#45;&gt;37</title>
<path fill="none" stroke="black" d="M779.92,-147.34C810.19,-142.73 852.73,-136.24 882.96,-131.63"/>
<polygon fill="black" stroke="black" points="883.43,-135.1 892.79,-130.14 882.38,-128.18 883.43,-135.1"/>
</g>
<!-- 34 -->
<!-- name: &quot;float&quot;, typeName: &quot;&quot;, id: 34, branchId: 0, recurseId: &#45;1, attributes: 512, notes: &quot;&quot; -->
<g id="node35" class="node">
<title>34</title>
<ellipse fill="none" stroke="black" cx="1118.49" cy="-234" rx="27.81" ry="18"/>
<text xml:space="preserve" text-anchor="middle" x="1118.49" y="-228.95" font-family="Times New Roman,serif" font-size="14.00">float</text>
</g>
<!-- 33&#45;&gt;34 -->
<g id="edge34" class="edge">
<title>33&#45;&gt;34</title>
<path fill="none" stroke="black" d="M948.3,-234C981.93,-234 1040.36,-234 1078.98,-234"/>
<polygon fill="black" stroke="black" points="1078.76,-237.5 1088.76,-234 1078.76,-230.5 1078.76,-237.5"/>
</g>
<!-- 36 -->
<!-- name: &quot;float&quot;, typeName: &quot;&quot;, id: 36, branchId: 0, recurseId: &#45;1, attributes: 512, notes: &quot;&quot; -->
<g id="node37" class="node">
<title>36</title>
<ellipse fill="none" stroke="black" cx="1118.49" cy="-180" rx="27.81" ry="18"/>
<text xml:space="preserve" text-anchor="middle" x="1118.49" y="-174.95" font-family="Times New Roman,serif" font-size="14.00">float</text>
</g>
<!-- 35&#45;&gt;36 -->
<g id="edge36" class="edge">
<title>35&#45;&gt;36</title>
<path fill="none" stroke="black" d="M948.3,-180C981.93,-180 1040.36,-180 1078.98,-180"/>
<polygon fill="black" stroke="black" points="1078.76,-183.5 1088.76,-180 1078.76,-176.5 1078.76,-183.5"/>
</g>
<!-- 38 -->
<!-- name: &quot;float&quot;, typeName: &quot;&quot;, id: 38, branchId: 0, recurseId: &#45;1, attributes: 512, notes: &quot;&quot; -->
<g id="node39" class="node">
<title>38</title>
<ellipse fill="none" stroke="black" cx="1118.49" cy="-126" rx="27.81" ry="18"/>
<text xml:space="preserve" text-anchor="middle" x="1118.49" y="-120.95" font-family="Times New Roman,serif" font-size="14.00">float</text>
</g>
<!-- 37&#45;&gt;38 -->
<g id="edge38" class="edge">
<title>37&#45;&gt;38</title>
<path fill="none" stroke="black" d="M948.3,-126C981.93,-126 1040.36,-126 1078.98,-126"/>
<polygon fill="black" stroke="black" points="1078.76,-129.5 1088.76,-126 1078.76,-122.5 1078.76,-129.5"/>
</g>
<!-- 40 -->
<!-- name: &quot;float&quot;, typeName: &quot;&quot;, id: 40, branchId: 0, recurseId: &#45;1, attributes: 512, notes: &quot;Time (in seconds) at which this rotation should be applied.&quot; -->
<g id="node41" class="node">
<title>40</title>
<ellipse fill="none" stroke="black" cx="1118.49" cy="-72" rx="27.81" ry="18"/>
<text xml:space="preserve" text-anchor="middle" x="1118.49" y="-66.95" font-family="Times New Roman,serif" font-size="14.00">float</text>
</g>
<!-- 39&#45;&gt;40 -->
<g id="edge40" class="edge">
<title>39&#45;&gt;40</title>
<path fill="none" stroke="black" d="M769.74,-90.56C835.2,-87.07 1002.8,-78.12 1078.88,-74.06"/>
<polygon fill="black" stroke="black" points="1078.97,-77.56 1088.77,-73.53 1078.6,-70.57 1078.97,-77.56"/>
</g>
<!-- 42 -->
<!-- name: &quot;enum easing_function&quot;, typeName: &quot;&quot;, id: 42, branchId: 0, recurseId: &#45;1, attributes: 512, notes: &quot;Optional easing function used to interpolate towards this rotation key frame. Defaults to &quot;linear&quot; if omitted.&quot; -->
<g id="node43" class="node">
<title>42</title>
<ellipse fill="none" stroke="black" cx="1118.49" cy="-18" rx="93.32" ry="18"/>
<text xml:space="preserve" text-anchor="middle" x="1118.49" y="-12.95" font-family="Times New Roman,serif" font-size="14.00">enum easing_function</text>
</g>
<!-- 41&#45;&gt;42 -->
<g id="edge42" class="edge">
<title>41&#45;&gt;42</title>
<path fill="none" stroke="black" d="M776.7,-24.37C829.78,-23.37 934.63,-21.42 1014.08,-19.93"/>
<polygon fill="black" stroke="black" points="1013.67,-23.44 1023.6,-19.75 1013.54,-16.44 1013.67,-23.44"/>
</g>
</g>
</svg>
