<?xml version="1.0" encoding="UTF-8" standalone="no"?>
<!DOCTYPE svg PUBLIC "-//W3C//DTD SVG 1.1//EN"
 "http://www.w3.org/Graphics/SVG/1.1/DTD/svg11.dtd">
<!-- Generated by graphviz version 10.0.1 (20240210.2158)
 -->
<!-- Title: CameraInstruction Pages: 1 -->
<svg width="741pt" height="152pt"
 viewBox="0.00 0.00 740.67 152.00" xmlns="http://www.w3.org/2000/svg" xmlns:xlink="http://www.w3.org/1999/xlink">
<g id="graph0" class="graph" transform="scale(1 1) rotate(0) translate(4 148)">
<title>CameraInstruction</title>
<polygon fill="white" stroke="none" points="-4,4 -4,-148 736.67,-148 736.67,4 -4,4"/>
<!-- 2 -->
<!-- name: &quot;CameraInstruction&quot;, typeName: &quot;&quot;, id: 2, branchId: 0, recurseId: &#45;1, attributes: 0, notes: &quot;&quot; -->
<g id="node1" class="node">
<title>2</title>
<ellipse fill="none" stroke="black" cx="79.01" cy="-72" rx="79.01" ry="18"/>
<text text-anchor="middle" x="79.01" y="-66.58" font-family="Times New Roman,serif" font-size="14.00">CameraInstruction</text>
</g>
<!-- 3 -->
<!-- name: &quot;Set&quot;, typeName: &quot;std::optional&lt;struct CameraInstruction::SetInstruction&gt;&quot;, id: 3, branchId: 0, recurseId: &#45;1, attributes: 256, notes: &quot;&quot; -->
<g id="node2" class="node">
<title>3</title>
<ellipse fill="none" stroke="black" cx="224.12" cy="-126" rx="27" ry="18"/>
<text text-anchor="middle" x="224.12" y="-120.58" font-family="Times New Roman,serif" font-size="14.00">Set</text>
</g>
<!-- 2&#45;&gt;3 -->
<g id="edge1" class="edge">
<title>2&#45;&gt;3</title>
<path fill="none" stroke="black" d="M121.4,-87.62C142.99,-95.77 169.07,-105.61 189.42,-113.28"/>
<polygon fill="black" stroke="black" points="188.06,-116.51 198.65,-116.77 190.53,-109.96 188.06,-116.51"/>
</g>
<!-- 8 -->
<!-- name: &quot;Clear&quot;, typeName: &quot;std::optional&lt;bool&gt;&quot;, id: 8, branchId: 0, recurseId: &#45;1, attributes: 256, notes: &quot;&quot; -->
<g id="node4" class="node">
<title>8</title>
<ellipse fill="none" stroke="black" cx="224.12" cy="-72" rx="30.11" ry="18"/>
<text text-anchor="middle" x="224.12" y="-66.58" font-family="Times New Roman,serif" font-size="14.00">Clear</text>
</g>
<!-- 2&#45;&gt;8 -->
<g id="edge3" class="edge">
<title>2&#45;&gt;8</title>
<path fill="none" stroke="black" d="M158.26,-72C166.57,-72 174.76,-72 182.37,-72"/>
<polygon fill="black" stroke="black" points="182.28,-75.5 192.28,-72 182.28,-68.5 182.28,-75.5"/>
</g>
<!-- 10 -->
<!-- name: &quot;Fade&quot;, typeName: &quot;std::optional&lt;struct CameraInstruction::FadeInstruction&gt;&quot;, id: 10, branchId: 0, recurseId: &#45;1, attributes: 256, notes: &quot;&quot; -->
<g id="node6" class="node">
<title>10</title>
<ellipse fill="none" stroke="black" cx="224.12" cy="-18" rx="29.11" ry="18"/>
<text text-anchor="middle" x="224.12" y="-12.57" font-family="Times New Roman,serif" font-size="14.00">Fade</text>
</g>
<!-- 2&#45;&gt;10 -->
<g id="edge5" class="edge">
<title>2&#45;&gt;10</title>
<path fill="none" stroke="black" d="M121.4,-56.38C142.58,-48.39 168.06,-38.77 188.23,-31.17"/>
<polygon fill="black" stroke="black" points="189.29,-34.51 197.41,-27.7 186.82,-27.96 189.29,-34.51"/>
</g>
<!-- 7 -->
<!-- name: &quot;std::optional&lt;struct CameraInstruction::SetInstruction&gt;&quot;, typeName: &quot;&quot;, id: 7, branchId: 0, recurseId: &#45;1, attributes: 512, notes: &quot;&quot; -->
<g id="node3" class="node">
<title>7</title>
<ellipse fill="none" stroke="black" cx="511.45" cy="-126" rx="214.73" ry="18"/>
<text text-anchor="middle" x="511.45" y="-120.58" font-family="Times New Roman,serif" font-size="14.00">std::optional&lt;struct CameraInstruction::SetInstruction&gt;</text>
</g>
<!-- 3&#45;&gt;7 -->
<g id="edge2" class="edge">
<title>3&#45;&gt;7</title>
<path fill="none" stroke="black" d="M251.45,-126C260.88,-126 272.41,-126 285.31,-126"/>
<polygon fill="black" stroke="black" points="284.94,-129.5 294.94,-126 284.94,-122.5 284.94,-129.5"/>
</g>
<!-- 9 -->
<!-- name: &quot;std::optional&lt;bool&gt;&quot;, typeName: &quot;&quot;, id: 9, branchId: 0, recurseId: &#45;1, attributes: 512, notes: &quot;&quot; -->
<g id="node5" class="node">
<title>9</title>
<ellipse fill="none" stroke="black" cx="511.45" cy="-72" rx="84" ry="18"/>
<text text-anchor="middle" x="511.45" y="-66.58" font-family="Times New Roman,serif" font-size="14.00">std::optional&lt;bool&gt;</text>
</g>
<!-- 8&#45;&gt;9 -->
<g id="edge4" class="edge">
<title>8&#45;&gt;9</title>
<path fill="none" stroke="black" d="M254.58,-72C292.35,-72 359.65,-72 415.75,-72"/>
<polygon fill="black" stroke="black" points="415.66,-75.5 425.66,-72 415.66,-68.5 415.66,-75.5"/>
</g>
<!-- 14 -->
<!-- name: &quot;std::optional&lt;struct CameraInstruction::FadeInstruction&gt;&quot;, typeName: &quot;&quot;, id: 14, branchId: 0, recurseId: &#45;1, attributes: 512, notes: &quot;&quot; -->
<g id="node7" class="node">
<title>14</title>
<ellipse fill="none" stroke="black" cx="511.45" cy="-18" rx="221.22" ry="18"/>
<text text-anchor="middle" x="511.45" y="-12.57" font-family="Times New Roman,serif" font-size="14.00">std::optional&lt;struct CameraInstruction::FadeInstruction&gt;</text>
</g>
<!-- 10&#45;&gt;14 -->
<g id="edge6" class="edge">
<title>10&#45;&gt;14</title>
<path fill="none" stroke="black" d="M253.52,-18C260.82,-18 269.26,-18 278.55,-18"/>
<polygon fill="black" stroke="black" points="278.31,-21.5 288.31,-18 278.31,-14.5 278.31,-21.5"/>
</g>
</g>
</svg>
