<?xml version="1.0" encoding="UTF-8" standalone="no"?>
<!DOCTYPE svg PUBLIC "-//W3C//DTD SVG 1.1//EN"
 "http://www.w3.org/Graphics/SVG/1.1/DTD/svg11.dtd">
<!-- Generated by graphviz version 12.2.1 (20241206.2353)
 -->
<!-- Title: CameraInstruction::FadeInstruction::ColorOption Pages: 1 -->
<svg width="592pt" height="152pt"
 viewBox="0.00 0.00 591.81 152.00" xmlns="http://www.w3.org/2000/svg" xmlns:xlink="http://www.w3.org/1999/xlink">
<g id="graph0" class="graph" transform="scale(1 1) rotate(0) translate(4 148)">
<title>CameraInstruction::FadeInstruction::ColorOption</title>
<polygon fill="white" stroke="none" points="-4,4 -4,-148 587.81,-148 587.81,4 -4,4"/>
<!-- 120 -->
<!-- name: &quot;CameraInstruction::FadeInstruction::ColorOption&quot;, typeName: &quot;&quot;, id: 120, branchId: 0, recurseId: &#45;1, attributes: 0, notes: &quot;&quot; -->
<g id="node1" class="node">
<title>120</title>
<ellipse fill="none" stroke="black" cx="194.66" cy="-72" rx="194.66" ry="18"/>
<text text-anchor="middle" x="194.66" y="-66.95" font-family="Times New Roman,serif" font-size="14.00">CameraInstruction::FadeInstruction::ColorOption</text>
</g>
<!-- 121 -->
<!-- name: &quot;Red&quot;, typeName: &quot;&quot;, id: 121, branchId: 0, recurseId: &#45;1, attributes: 0, notes: &quot;&quot; -->
<g id="node2" class="node">
<title>121</title>
<ellipse fill="none" stroke="black" cx="458.75" cy="-126" rx="27" ry="18"/>
<text text-anchor="middle" x="458.75" y="-120.95" font-family="Times New Roman,serif" font-size="14.00">Red</text>
</g>
<!-- 120&#45;&gt;121 -->
<g id="edge1" class="edge">
<title>120&#45;&gt;121</title>
<path fill="none" stroke="black" d="M276.79,-88.72C325.09,-98.67 384.01,-110.81 421.22,-118.47"/>
<polygon fill="black" stroke="black" points="420.52,-121.9 431.02,-120.49 421.93,-115.05 420.52,-121.9"/>
</g>
<!-- 123 -->
<!-- name: &quot;Green&quot;, typeName: &quot;&quot;, id: 123, branchId: 0, recurseId: &#45;1, attributes: 0, notes: &quot;&quot; -->
<g id="node4" class="node">
<title>123</title>
<ellipse fill="none" stroke="black" cx="458.75" cy="-72" rx="33.44" ry="18"/>
<text text-anchor="middle" x="458.75" y="-66.95" font-family="Times New Roman,serif" font-size="14.00">Green</text>
</g>
<!-- 120&#45;&gt;123 -->
<g id="edge3" class="edge">
<title>120&#45;&gt;123</title>
<path fill="none" stroke="black" d="M389.58,-72C398.16,-72 406.27,-72 413.7,-72"/>
<polygon fill="black" stroke="black" points="413.64,-75.5 423.64,-72 413.64,-68.5 413.64,-75.5"/>
</g>
<!-- 125 -->
<!-- name: &quot;Blue&quot;, typeName: &quot;&quot;, id: 125, branchId: 0, recurseId: &#45;1, attributes: 0, notes: &quot;&quot; -->
<g id="node6" class="node">
<title>125</title>
<ellipse fill="none" stroke="black" cx="458.75" cy="-18" rx="28.32" ry="18"/>
<text text-anchor="middle" x="458.75" y="-12.95" font-family="Times New Roman,serif" font-size="14.00">Blue</text>
</g>
<!-- 120&#45;&gt;125 -->
<g id="edge5" class="edge">
<title>120&#45;&gt;125</title>
<path fill="none" stroke="black" d="M276.79,-55.28C324.75,-45.4 383.2,-33.36 420.44,-25.69"/>
<polygon fill="black" stroke="black" points="420.72,-29.2 429.8,-23.76 419.3,-22.35 420.72,-29.2"/>
</g>
<!-- 122 -->
<!-- name: &quot;float&quot;, typeName: &quot;&quot;, id: 122, branchId: 0, recurseId: &#45;1, attributes: 512, notes: &quot;&quot; -->
<g id="node3" class="node">
<title>122</title>
<ellipse fill="none" stroke="black" cx="556" cy="-126" rx="27.81" ry="18"/>
<text text-anchor="middle" x="556" y="-120.95" font-family="Times New Roman,serif" font-size="14.00">float</text>
</g>
<!-- 121&#45;&gt;122 -->
<g id="edge2" class="edge">
<title>121&#45;&gt;122</title>
<path fill="none" stroke="black" d="M486.03,-126C495.47,-126 506.33,-126 516.59,-126"/>
<polygon fill="black" stroke="black" points="516.3,-129.5 526.3,-126 516.3,-122.5 516.3,-129.5"/>
</g>
<!-- 124 -->
<!-- name: &quot;float&quot;, typeName: &quot;&quot;, id: 124, branchId: 0, recurseId: &#45;1, attributes: 512, notes: &quot;&quot; -->
<g id="node5" class="node">
<title>124</title>
<ellipse fill="none" stroke="black" cx="556" cy="-72" rx="27.81" ry="18"/>
<text text-anchor="middle" x="556" y="-66.95" font-family="Times New Roman,serif" font-size="14.00">float</text>
</g>
<!-- 123&#45;&gt;124 -->
<g id="edge4" class="edge">
<title>123&#45;&gt;124</title>
<path fill="none" stroke="black" d="M492.53,-72C500.27,-72 508.59,-72 516.55,-72"/>
<polygon fill="black" stroke="black" points="516.34,-75.5 526.34,-72 516.34,-68.5 516.34,-75.5"/>
</g>
<!-- 126 -->
<!-- name: &quot;float&quot;, typeName: &quot;&quot;, id: 126, branchId: 0, recurseId: &#45;1, attributes: 512, notes: &quot;&quot; -->
<g id="node7" class="node">
<title>126</title>
<ellipse fill="none" stroke="black" cx="556" cy="-18" rx="27.81" ry="18"/>
<text text-anchor="middle" x="556" y="-12.95" font-family="Times New Roman,serif" font-size="14.00">float</text>
</g>
<!-- 125&#45;&gt;126 -->
<g id="edge6" class="edge">
<title>125&#45;&gt;126</title>
<path fill="none" stroke="black" d="M487.56,-18C496.62,-18 506.84,-18 516.53,-18"/>
<polygon fill="black" stroke="black" points="516.47,-21.5 526.47,-18 516.47,-14.5 516.47,-21.5"/>
</g>
</g>
</svg>
