<?xml version="1.0" encoding="UTF-8" standalone="no"?>
<!DOCTYPE svg PUBLIC "-//W3C//DTD SVG 1.1//EN"
 "http://www.w3.org/Graphics/SVG/1.1/DTD/svg11.dtd">
<!-- Generated by graphviz version 2.46.1 (20210213.1702)
 -->
<!-- Title: CameraPreset Pages: 1 -->
<svg width="712pt" height="476pt"
 viewBox="0.00 0.00 711.74 476.00" xmlns="http://www.w3.org/2000/svg" xmlns:xlink="http://www.w3.org/1999/xlink">
<g id="graph0" class="graph" transform="scale(1 1) rotate(0) translate(4 472)">
<title>CameraPreset</title>
<polygon fill="white" stroke="transparent" points="-4,4 -4,-472 707.74,-472 707.74,4 -4,4"/>
<!-- 8 -->
<!-- name: &quot;CameraPreset&quot;, typeName: &quot;&quot;, id: 8, branchId: 0, recurseId: &#45;1, attributes: 0, notes: &quot;&quot; -->
<g id="node1" class="node">
<title>8</title>
<ellipse fill="none" stroke="black" cx="61.09" cy="-234" rx="61.19" ry="18"/>
<text text-anchor="middle" x="61.09" y="-230.3" font-family="Times New Roman,serif" font-size="14.00">CameraPreset</text>
</g>
<!-- 9 -->
<!-- name: &quot;Name&quot;, typeName: &quot;&quot;, id: 9, branchId: 0, recurseId: &#45;1, attributes: 0, notes: &quot;&quot; -->
<g id="node2" class="node">
<title>9</title>
<ellipse fill="none" stroke="black" cx="219.93" cy="-450" rx="31.7" ry="18"/>
<text text-anchor="middle" x="219.93" y="-446.3" font-family="Times New Roman,serif" font-size="14.00">Name</text>
</g>
<!-- 8&#45;&gt;9 -->
<g id="edge1" class="edge">
<title>8&#45;&gt;9</title>
<path fill="none" stroke="black" d="M66.83,-252.09C77.33,-288.93 105.86,-373.33 158.19,-423 164.88,-429.35 173.31,-434.37 181.75,-438.26"/>
<polygon fill="black" stroke="black" points="180.6,-441.58 191.18,-442.2 183.3,-435.12 180.6,-441.58"/>
</g>
<!-- 11 -->
<!-- name: &quot;Inherit From&quot;, typeName: &quot;&quot;, id: 11, branchId: 0, recurseId: &#45;1, attributes: 0, notes: &quot;&quot; -->
<g id="node4" class="node">
<title>11</title>
<ellipse fill="none" stroke="black" cx="219.93" cy="-396" rx="55.79" ry="18"/>
<text text-anchor="middle" x="219.93" y="-392.3" font-family="Times New Roman,serif" font-size="14.00">Inherit From</text>
</g>
<!-- 8&#45;&gt;11 -->
<g id="edge3" class="edge">
<title>8&#45;&gt;11</title>
<path fill="none" stroke="black" d="M70.9,-252.08C85.49,-280.42 117.2,-335.5 158.19,-369 162.43,-372.47 167.19,-375.58 172.13,-378.35"/>
<polygon fill="black" stroke="black" points="170.65,-381.52 181.14,-382.96 173.84,-375.29 170.65,-381.52"/>
</g>
<!-- 13 -->
<!-- name: &quot;Pos X&quot;, typeName: &quot;std::optional&lt;float&gt;&quot;, id: 13, branchId: 0, recurseId: &#45;1, attributes: 256, notes: &quot;&quot; -->
<g id="node6" class="node">
<title>13</title>
<ellipse fill="none" stroke="black" cx="219.93" cy="-342" rx="33.6" ry="18"/>
<text text-anchor="middle" x="219.93" y="-338.3" font-family="Times New Roman,serif" font-size="14.00">Pos X</text>
</g>
<!-- 8&#45;&gt;13 -->
<g id="edge5" class="edge">
<title>8&#45;&gt;13</title>
<path fill="none" stroke="black" d="M79.67,-251.48C98.08,-269.13 128.41,-296.36 158.19,-315 165.71,-319.71 174.2,-324.03 182.39,-327.76"/>
<polygon fill="black" stroke="black" points="181.23,-331.07 191.79,-331.87 184.03,-324.66 181.23,-331.07"/>
</g>
<!-- 18 -->
<!-- name: &quot;Pos Y&quot;, typeName: &quot;std::optional&lt;float&gt;&quot;, id: 18, branchId: 0, recurseId: &#45;1, attributes: 256, notes: &quot;&quot; -->
<g id="node8" class="node">
<title>18</title>
<ellipse fill="none" stroke="black" cx="219.93" cy="-288" rx="33.6" ry="18"/>
<text text-anchor="middle" x="219.93" y="-284.3" font-family="Times New Roman,serif" font-size="14.00">Pos Y</text>
</g>
<!-- 8&#45;&gt;18 -->
<g id="edge7" class="edge">
<title>8&#45;&gt;18</title>
<path fill="none" stroke="black" d="M101.67,-247.63C126.24,-256.08 157.61,-266.88 181.72,-275.19"/>
<polygon fill="black" stroke="black" points="180.64,-278.52 191.23,-278.46 182.92,-271.9 180.64,-278.52"/>
</g>
<!-- 20 -->
<!-- name: &quot;Pos Z&quot;, typeName: &quot;std::optional&lt;float&gt;&quot;, id: 20, branchId: 0, recurseId: &#45;1, attributes: 256, notes: &quot;&quot; -->
<g id="node10" class="node">
<title>20</title>
<ellipse fill="none" stroke="black" cx="219.93" cy="-234" rx="32.49" ry="18"/>
<text text-anchor="middle" x="219.93" y="-230.3" font-family="Times New Roman,serif" font-size="14.00">Pos Z</text>
</g>
<!-- 8&#45;&gt;20 -->
<g id="edge9" class="edge">
<title>8&#45;&gt;20</title>
<path fill="none" stroke="black" d="M122.28,-234C140.6,-234 160.32,-234 177.14,-234"/>
<polygon fill="black" stroke="black" points="177.19,-237.5 187.19,-234 177.19,-230.5 177.19,-237.5"/>
</g>
<!-- 22 -->
<!-- name: &quot;Rot X&quot;, typeName: &quot;std::optional&lt;float&gt;&quot;, id: 22, branchId: 0, recurseId: &#45;1, attributes: 256, notes: &quot;&quot; -->
<g id="node12" class="node">
<title>22</title>
<ellipse fill="none" stroke="black" cx="219.93" cy="-180" rx="33.29" ry="18"/>
<text text-anchor="middle" x="219.93" y="-176.3" font-family="Times New Roman,serif" font-size="14.00">Rot X</text>
</g>
<!-- 8&#45;&gt;22 -->
<g id="edge11" class="edge">
<title>8&#45;&gt;22</title>
<path fill="none" stroke="black" d="M101.67,-220.37C126.24,-211.92 157.61,-201.12 181.72,-192.81"/>
<polygon fill="black" stroke="black" points="182.92,-196.1 191.23,-189.54 180.64,-189.48 182.92,-196.1"/>
</g>
<!-- 24 -->
<!-- name: &quot;Rot Y&quot;, typeName: &quot;std::optional&lt;float&gt;&quot;, id: 24, branchId: 0, recurseId: &#45;1, attributes: 256, notes: &quot;&quot; -->
<g id="node14" class="node">
<title>24</title>
<ellipse fill="none" stroke="black" cx="219.93" cy="-126" rx="33.29" ry="18"/>
<text text-anchor="middle" x="219.93" y="-122.3" font-family="Times New Roman,serif" font-size="14.00">Rot Y</text>
</g>
<!-- 8&#45;&gt;24 -->
<g id="edge13" class="edge">
<title>8&#45;&gt;24</title>
<path fill="none" stroke="black" d="M79.67,-216.52C98.08,-198.87 128.41,-171.64 158.19,-153 165.87,-148.19 174.54,-143.8 182.89,-140.01"/>
<polygon fill="black" stroke="black" points="184.32,-143.21 192.09,-136.01 181.53,-136.79 184.32,-143.21"/>
</g>
<!-- 26 -->
<!-- name: &quot;Listener&quot;, typeName: &quot;std::optional&lt;enum CameraPreset::AudioListener&gt;&quot;, id: 26, branchId: 0, recurseId: &#45;1, attributes: 256, notes: &quot;&quot; -->
<g id="node16" class="node">
<title>26</title>
<ellipse fill="none" stroke="black" cx="219.93" cy="-72" rx="39.79" ry="18"/>
<text text-anchor="middle" x="219.93" y="-68.3" font-family="Times New Roman,serif" font-size="14.00">Listener</text>
</g>
<!-- 8&#45;&gt;26 -->
<g id="edge15" class="edge">
<title>8&#45;&gt;26</title>
<path fill="none" stroke="black" d="M70.9,-215.92C85.49,-187.58 117.2,-132.5 158.19,-99 164.03,-94.23 170.84,-90.14 177.75,-86.68"/>
<polygon fill="black" stroke="black" points="179.52,-89.72 187.15,-82.37 176.6,-83.36 179.52,-89.72"/>
</g>
<!-- 31 -->
<!-- name: &quot;Player Effects&quot;, typeName: &quot;std::optional&lt;bool&gt;&quot;, id: 31, branchId: 0, recurseId: &#45;1, attributes: 256, notes: &quot;&quot; -->
<g id="node18" class="node">
<title>31</title>
<ellipse fill="none" stroke="black" cx="219.93" cy="-18" rx="61.99" ry="18"/>
<text text-anchor="middle" x="219.93" y="-14.3" font-family="Times New Roman,serif" font-size="14.00">Player Effects</text>
</g>
<!-- 8&#45;&gt;31 -->
<g id="edge17" class="edge">
<title>8&#45;&gt;31</title>
<path fill="none" stroke="black" d="M66.83,-215.91C77.33,-179.07 105.86,-94.67 158.19,-45 161.53,-41.83 165.3,-38.99 169.29,-36.46"/>
<polygon fill="black" stroke="black" points="171.3,-39.35 178.29,-31.4 167.86,-33.25 171.3,-39.35"/>
</g>
<!-- 10 -->
<!-- name: &quot;string&quot;, typeName: &quot;&quot;, id: 10, branchId: 0, recurseId: &#45;1, attributes: 512, notes: &quot;&quot; -->
<g id="node3" class="node">
<title>10</title>
<ellipse fill="none" stroke="black" cx="510.71" cy="-450" rx="30.59" ry="18"/>
<text text-anchor="middle" x="510.71" y="-446.3" font-family="Times New Roman,serif" font-size="14.00">string</text>
</g>
<!-- 9&#45;&gt;10 -->
<g id="edge2" class="edge">
<title>9&#45;&gt;10</title>
<path fill="none" stroke="black" d="M251.84,-450C304.44,-450 411.31,-450 469.6,-450"/>
<polygon fill="black" stroke="black" points="469.89,-453.5 479.89,-450 469.89,-446.5 469.89,-453.5"/>
</g>
<!-- 12 -->
<!-- name: &quot;string&quot;, typeName: &quot;&quot;, id: 12, branchId: 0, recurseId: &#45;1, attributes: 512, notes: &quot;&quot; -->
<g id="node5" class="node">
<title>12</title>
<ellipse fill="none" stroke="black" cx="510.71" cy="-396" rx="30.59" ry="18"/>
<text text-anchor="middle" x="510.71" y="-392.3" font-family="Times New Roman,serif" font-size="14.00">string</text>
</g>
<!-- 11&#45;&gt;12 -->
<g id="edge4" class="edge">
<title>11&#45;&gt;12</title>
<path fill="none" stroke="black" d="M275.93,-396C332.61,-396 419.59,-396 469.94,-396"/>
<polygon fill="black" stroke="black" points="470.1,-399.5 480.1,-396 470.1,-392.5 470.1,-399.5"/>
</g>
<!-- 17 -->
<!-- name: &quot;std::optional&lt;float&gt;&quot;, typeName: &quot;&quot;, id: 17, branchId: 0, recurseId: &#45;1, attributes: 512, notes: &quot;&quot; -->
<g id="node7" class="node">
<title>17</title>
<ellipse fill="none" stroke="black" cx="510.71" cy="-342" rx="81.79" ry="18"/>
<text text-anchor="middle" x="510.71" y="-338.3" font-family="Times New Roman,serif" font-size="14.00">std::optional&lt;float&gt;</text>
</g>
<!-- 13&#45;&gt;17 -->
<g id="edge6" class="edge">
<title>13&#45;&gt;17</title>
<path fill="none" stroke="black" d="M253.78,-342C293.51,-342 362.06,-342 418.21,-342"/>
<polygon fill="black" stroke="black" points="418.55,-345.5 428.55,-342 418.55,-338.5 418.55,-345.5"/>
</g>
<!-- 19 -->
<!-- name: &quot;std::optional&lt;float&gt;&quot;, typeName: &quot;&quot;, id: 19, branchId: 0, recurseId: &#45;1, attributes: 512, notes: &quot;&quot; -->
<g id="node9" class="node">
<title>19</title>
<ellipse fill="none" stroke="black" cx="510.71" cy="-288" rx="81.79" ry="18"/>
<text text-anchor="middle" x="510.71" y="-284.3" font-family="Times New Roman,serif" font-size="14.00">std::optional&lt;float&gt;</text>
</g>
<!-- 18&#45;&gt;19 -->
<g id="edge8" class="edge">
<title>18&#45;&gt;19</title>
<path fill="none" stroke="black" d="M253.78,-288C293.51,-288 362.06,-288 418.21,-288"/>
<polygon fill="black" stroke="black" points="418.55,-291.5 428.55,-288 418.55,-284.5 418.55,-291.5"/>
</g>
<!-- 21 -->
<!-- name: &quot;std::optional&lt;float&gt;&quot;, typeName: &quot;&quot;, id: 21, branchId: 0, recurseId: &#45;1, attributes: 512, notes: &quot;&quot; -->
<g id="node11" class="node">
<title>21</title>
<ellipse fill="none" stroke="black" cx="510.71" cy="-234" rx="81.79" ry="18"/>
<text text-anchor="middle" x="510.71" y="-230.3" font-family="Times New Roman,serif" font-size="14.00">std::optional&lt;float&gt;</text>
</g>
<!-- 20&#45;&gt;21 -->
<g id="edge10" class="edge">
<title>20&#45;&gt;21</title>
<path fill="none" stroke="black" d="M252.66,-234C292.33,-234 361.92,-234 418.7,-234"/>
<polygon fill="black" stroke="black" points="418.78,-237.5 428.78,-234 418.78,-230.5 418.78,-237.5"/>
</g>
<!-- 23 -->
<!-- name: &quot;std::optional&lt;float&gt;&quot;, typeName: &quot;&quot;, id: 23, branchId: 0, recurseId: &#45;1, attributes: 512, notes: &quot;&quot; -->
<g id="node13" class="node">
<title>23</title>
<ellipse fill="none" stroke="black" cx="510.71" cy="-180" rx="81.79" ry="18"/>
<text text-anchor="middle" x="510.71" y="-176.3" font-family="Times New Roman,serif" font-size="14.00">std::optional&lt;float&gt;</text>
</g>
<!-- 22&#45;&gt;23 -->
<g id="edge12" class="edge">
<title>22&#45;&gt;23</title>
<path fill="none" stroke="black" d="M253.22,-180C293,-180 362.25,-180 418.78,-180"/>
<polygon fill="black" stroke="black" points="418.81,-183.5 428.81,-180 418.81,-176.5 418.81,-183.5"/>
</g>
<!-- 25 -->
<!-- name: &quot;std::optional&lt;float&gt;&quot;, typeName: &quot;&quot;, id: 25, branchId: 0, recurseId: &#45;1, attributes: 512, notes: &quot;&quot; -->
<g id="node15" class="node">
<title>25</title>
<ellipse fill="none" stroke="black" cx="510.71" cy="-126" rx="81.79" ry="18"/>
<text text-anchor="middle" x="510.71" y="-122.3" font-family="Times New Roman,serif" font-size="14.00">std::optional&lt;float&gt;</text>
</g>
<!-- 24&#45;&gt;25 -->
<g id="edge14" class="edge">
<title>24&#45;&gt;25</title>
<path fill="none" stroke="black" d="M253.22,-126C293,-126 362.25,-126 418.78,-126"/>
<polygon fill="black" stroke="black" points="418.81,-129.5 428.81,-126 418.81,-122.5 418.81,-129.5"/>
</g>
<!-- 30 -->
<!-- name: &quot;std::optional&lt;enum CameraPreset::AudioListener&gt;&quot;, typeName: &quot;&quot;, id: 30, branchId: 0, recurseId: &#45;1, attributes: 512, notes: &quot;&quot; -->
<g id="node17" class="node">
<title>30</title>
<ellipse fill="none" stroke="black" cx="510.71" cy="-72" rx="193.07" ry="18"/>
<text text-anchor="middle" x="510.71" y="-68.3" font-family="Times New Roman,serif" font-size="14.00">std::optional&lt;enum CameraPreset::AudioListener&gt;</text>
</g>
<!-- 26&#45;&gt;30 -->
<g id="edge16" class="edge">
<title>26&#45;&gt;30</title>
<path fill="none" stroke="black" d="M259.88,-72C273.33,-72 289.46,-72 306.97,-72"/>
<polygon fill="black" stroke="black" points="307.43,-75.5 317.43,-72 307.43,-68.5 307.43,-75.5"/>
</g>
<!-- 35 -->
<!-- name: &quot;std::optional&lt;bool&gt;&quot;, typeName: &quot;&quot;, id: 35, branchId: 0, recurseId: &#45;1, attributes: 512, notes: &quot;&quot; -->
<g id="node19" class="node">
<title>35</title>
<ellipse fill="none" stroke="black" cx="510.71" cy="-18" rx="82.59" ry="18"/>
<text text-anchor="middle" x="510.71" y="-14.3" font-family="Times New Roman,serif" font-size="14.00">std::optional&lt;bool&gt;</text>
</g>
<!-- 31&#45;&gt;35 -->
<g id="edge18" class="edge">
<title>31&#45;&gt;35</title>
<path fill="none" stroke="black" d="M281.82,-18C321.28,-18 373.4,-18 417.85,-18"/>
<polygon fill="black" stroke="black" points="418.08,-21.5 428.08,-18 418.08,-14.5 418.08,-21.5"/>
</g>
</g>
</svg>
