<?xml version="1.0" encoding="UTF-8" standalone="no"?>
<!DOCTYPE svg PUBLIC "-//W3C//DTD SVG 1.1//EN"
 "http://www.w3.org/Graphics/SVG/1.1/DTD/svg11.dtd">
<!-- Generated by graphviz version 11.0.0 (20240428.1522)
 -->
<!-- Title: CameraInstructionPacket Pages: 1 -->
<svg width="609pt" height="44pt"
 viewBox="0.00 0.00 608.94 44.00" xmlns="http://www.w3.org/2000/svg" xmlns:xlink="http://www.w3.org/1999/xlink">
<g id="graph0" class="graph" transform="scale(1 1) rotate(0) translate(4 40)">
<title>CameraInstructionPacket</title>
<polygon fill="white" stroke="none" points="-4,4 -4,-40 604.94,-40 604.94,4 -4,4"/>
<!-- 0 -->
<!-- name: &quot;CameraInstructionPacket&quot;, typeName: &quot;&quot;, id: 0, branchId: 300, recurseId: &#45;1, attributes: 0, notes: &quot;&quot; -->
<g id="node1" class="node">
<title>0</title>
<ellipse fill="none" stroke="black" cx="103.96" cy="-18" rx="103.96" ry="18"/>
<text text-anchor="middle" x="103.96" y="-12.57" font-family="Times New Roman,serif" font-size="14.00">CameraInstructionPacket</text>
</g>
<!-- 1 -->
<!-- name: &quot;Camera Instruction&quot;, typeName: &quot;CameraInstruction&quot;, id: 1, branchId: 0, recurseId: &#45;1, attributes: 256, notes: &quot;&quot; -->
<g id="node2" class="node">
<title>1</title>
<ellipse fill="none" stroke="black" cx="325.42" cy="-18" rx="81.5" ry="18"/>
<text text-anchor="middle" x="325.42" y="-12.57" font-family="Times New Roman,serif" font-size="14.00">Camera Instruction</text>
</g>
<!-- 0&#45;&gt;1 -->
<g id="edge1" class="edge">
<title>0&#45;&gt;1</title>
<path fill="none" stroke="black" d="M208.26,-18C216.25,-18 224.29,-18 232.2,-18"/>
<polygon fill="black" stroke="black" points="232.18,-21.5 242.18,-18 232.18,-14.5 232.18,-21.5"/>
</g>
<!-- 140 -->
<!-- name: &quot;CameraInstruction&quot;, typeName: &quot;&quot;, id: 140, branchId: 0, recurseId: &#45;1, attributes: 512, notes: &quot;&quot; -->
<g id="node3" class="node">
<title>140</title>
<ellipse fill="none" stroke="black" cx="521.93" cy="-18" rx="79.01" ry="18"/>
<text text-anchor="middle" x="521.93" y="-12.57" font-family="Times New Roman,serif" font-size="14.00">CameraInstruction</text>
</g>
<!-- 1&#45;&gt;140 -->
<g id="edge2" class="edge">
<title>1&#45;&gt;140</title>
<path fill="none" stroke="black" d="M407.22,-18C415.16,-18 423.26,-18 431.29,-18"/>
<polygon fill="black" stroke="black" points="431.05,-21.5 441.05,-18 431.05,-14.5 431.05,-21.5"/>
</g>
</g>
</svg>
