<?xml version="1.0" encoding="UTF-8" standalone="no"?>
<!DOCTYPE svg PUBLIC "-//W3C//DTD SVG 1.1//EN"
 "http://www.w3.org/Graphics/SVG/1.1/DTD/svg11.dtd">
<!-- Generated by graphviz version 13.1.2 (20250808.2320)
 -->
<!-- Title: CameraShakePacket Pages: 1 -->
<svg width="598pt" height="206pt"
 viewBox="0.00 0.00 598.00 206.00" xmlns="http://www.w3.org/2000/svg" xmlns:xlink="http://www.w3.org/1999/xlink">
<g id="graph0" class="graph" transform="scale(1 1) rotate(0) translate(4 202)">
<title>CameraShakePacket</title>
<polygon fill="white" stroke="none" points="-4,4 -4,-202 593.95,-202 593.95,4 -4,4"/>
<!-- 0 -->
<!-- name: &quot;CameraShakePacket&quot;, typeName: &quot;&quot;, id: 0, branchId: 0, recurseId: &#45;1, attributes: 0, notes: &quot;Used to control trigger camera shake movements on the client&#39;s player camera&quot; -->
<g id="node1" class="node">
<title>0</title>
<ellipse fill="none" stroke="black" cx="87.18" cy="-99" rx="87.18" ry="18"/>
<text xml:space="preserve" text-anchor="middle" x="87.18" y="-93.95" font-family="Times New Roman,serif" font-size="14.00">CameraShakePacket</text>
</g>
<!-- 1 -->
<!-- name: &quot;Intensity&quot;, typeName: &quot;&quot;, id: 1, branchId: 0, recurseId: &#45;1, attributes: 0, notes: &quot;Camera shake intensity&quot; -->
<g id="node2" class="node">
<title>1</title>
<ellipse fill="none" stroke="black" cx="270.92" cy="-180" rx="43.16" ry="18"/>
<text xml:space="preserve" text-anchor="middle" x="270.92" y="-174.95" font-family="Times New Roman,serif" font-size="14.00">Intensity</text>
</g>
<!-- 0&#45;&gt;1 -->
<g id="edge1" class="edge">
<title>0&#45;&gt;1</title>
<path fill="none" stroke="black" d="M125.39,-115.59C155.86,-129.17 198.87,-148.34 230.05,-162.23"/>
<polygon fill="black" stroke="black" points="228.6,-165.41 239.15,-166.29 231.45,-159.02 228.6,-165.41"/>
</g>
<!-- 3 -->
<!-- name: &quot;Seconds&quot;, typeName: &quot;&quot;, id: 3, branchId: 0, recurseId: &#45;1, attributes: 0, notes: &quot;Camera shake duration in seconds&quot; -->
<g id="node4" class="node">
<title>3</title>
<ellipse fill="none" stroke="black" cx="270.92" cy="-126" rx="41.63" ry="18"/>
<text xml:space="preserve" text-anchor="middle" x="270.92" y="-120.95" font-family="Times New Roman,serif" font-size="14.00">Seconds</text>
</g>
<!-- 0&#45;&gt;3 -->
<g id="edge3" class="edge">
<title>0&#45;&gt;3</title>
<path fill="none" stroke="black" d="M158.96,-109.52C179.27,-112.53 200.98,-115.76 219.77,-118.55"/>
<polygon fill="black" stroke="black" points="219.14,-121.99 229.55,-120 220.17,-115.07 219.14,-121.99"/>
</g>
<!-- 5 -->
<!-- name: &quot;Shake Type&quot;, typeName: &quot;&quot;, id: 5, branchId: 0, recurseId: &#45;1, attributes: 0, notes: &quot;The type of calculation used for determining camera shake&quot; -->
<g id="node6" class="node">
<title>5</title>
<ellipse fill="none" stroke="black" cx="270.92" cy="-72" rx="53.91" ry="18"/>
<text xml:space="preserve" text-anchor="middle" x="270.92" y="-66.95" font-family="Times New Roman,serif" font-size="14.00">Shake Type</text>
</g>
<!-- 0&#45;&gt;5 -->
<g id="edge5" class="edge">
<title>0&#45;&gt;5</title>
<path fill="none" stroke="black" d="M158.96,-88.48C175.81,-85.98 193.62,-83.34 209.93,-80.91"/>
<polygon fill="black" stroke="black" points="210.07,-84.43 219.45,-79.5 209.04,-77.51 210.07,-84.43"/>
</g>
<!-- 7 -->
<!-- name: &quot;Shake Action&quot;, typeName: &quot;&quot;, id: 7, branchId: 0, recurseId: &#45;1, attributes: 0, notes: &quot;The action to perform to camera shake&quot; -->
<g id="node8" class="node">
<title>7</title>
<ellipse fill="none" stroke="black" cx="270.92" cy="-18" rx="60.56" ry="18"/>
<text xml:space="preserve" text-anchor="middle" x="270.92" y="-12.95" font-family="Times New Roman,serif" font-size="14.00">Shake Action</text>
</g>
<!-- 0&#45;&gt;7 -->
<g id="edge7" class="edge">
<title>0&#45;&gt;7</title>
<path fill="none" stroke="black" d="M125.39,-82.41C154.47,-69.45 194.97,-51.41 225.7,-37.71"/>
<polygon fill="black" stroke="black" points="227.03,-40.95 234.74,-33.68 224.18,-34.55 227.03,-40.95"/>
</g>
<!-- 2 -->
<!-- name: &quot;float&quot;, typeName: &quot;&quot;, id: 2, branchId: 0, recurseId: &#45;1, attributes: 512, notes: &quot;Camera shake intensity&quot; -->
<g id="node3" class="node">
<title>2</title>
<ellipse fill="none" stroke="black" cx="478.72" cy="-180" rx="27.81" ry="18"/>
<text xml:space="preserve" text-anchor="middle" x="478.72" y="-174.95" font-family="Times New Roman,serif" font-size="14.00">float</text>
</g>
<!-- 1&#45;&gt;2 -->
<g id="edge2" class="edge">
<title>1&#45;&gt;2</title>
<path fill="none" stroke="black" d="M314.56,-180C351.27,-180 403.76,-180 439.21,-180"/>
<polygon fill="black" stroke="black" points="439.02,-183.5 449.02,-180 439.02,-176.5 439.02,-183.5"/>
</g>
<!-- 4 -->
<!-- name: &quot;float&quot;, typeName: &quot;&quot;, id: 4, branchId: 0, recurseId: &#45;1, attributes: 512, notes: &quot;Camera shake duration in seconds&quot; -->
<g id="node5" class="node">
<title>4</title>
<ellipse fill="none" stroke="black" cx="478.72" cy="-126" rx="27.81" ry="18"/>
<text xml:space="preserve" text-anchor="middle" x="478.72" y="-120.95" font-family="Times New Roman,serif" font-size="14.00">float</text>
</g>
<!-- 3&#45;&gt;4 -->
<g id="edge4" class="edge">
<title>3&#45;&gt;4</title>
<path fill="none" stroke="black" d="M312.58,-126C349.47,-126 403.45,-126 439.55,-126"/>
<polygon fill="black" stroke="black" points="439.08,-129.5 449.08,-126 439.08,-122.5 439.08,-129.5"/>
</g>
<!-- 6 -->
<!-- name: &quot;enum CameraShakeType&quot;, typeName: &quot;&quot;, id: 6, branchId: 0, recurseId: &#45;1, attributes: 512, notes: &quot;The type of calculation used for determining camera shake&quot; -->
<g id="node7" class="node">
<title>6</title>
<ellipse fill="none" stroke="black" cx="478.72" cy="-72" rx="104.58" ry="18"/>
<text xml:space="preserve" text-anchor="middle" x="478.72" y="-66.95" font-family="Times New Roman,serif" font-size="14.00">enum CameraShakeType</text>
</g>
<!-- 5&#45;&gt;6 -->
<g id="edge6" class="edge">
<title>5&#45;&gt;6</title>
<path fill="none" stroke="black" d="M325.19,-72C336.79,-72 349.51,-72 362.49,-72"/>
<polygon fill="black" stroke="black" points="362.43,-75.5 372.43,-72 362.43,-68.5 362.43,-75.5"/>
</g>
<!-- 8 -->
<!-- name: &quot;enum CameraShakeAction&quot;, typeName: &quot;&quot;, id: 8, branchId: 0, recurseId: &#45;1, attributes: 512, notes: &quot;The action to perform to camera shake&quot; -->
<g id="node9" class="node">
<title>8</title>
<ellipse fill="none" stroke="black" cx="478.72" cy="-18" rx="111.23" ry="18"/>
<text xml:space="preserve" text-anchor="middle" x="478.72" y="-12.95" font-family="Times New Roman,serif" font-size="14.00">enum CameraShakeAction</text>
</g>
<!-- 7&#45;&gt;8 -->
<g id="edge8" class="edge">
<title>7&#45;&gt;8</title>
<path fill="none" stroke="black" d="M331.72,-18C339.47,-18 347.62,-18 355.94,-18"/>
<polygon fill="black" stroke="black" points="355.86,-21.5 365.86,-18 355.86,-14.5 355.86,-21.5"/>
</g>
</g>
</svg>
