<?xml version="1.0" encoding="UTF-8" standalone="no"?>
<!DOCTYPE svg PUBLIC "-//W3C//DTD SVG 1.1//EN"
 "http://www.w3.org/Graphics/SVG/1.1/DTD/svg11.dtd">
<!-- Generated by graphviz version 11.0.0 (20240428.1522)
 -->
<!-- Title: CameraInstruction::SetInstruction::ViewOffsetOption Pages: 1 -->
<svg width="678pt" height="98pt"
 viewBox="0.00 0.00 677.80 98.00" xmlns="http://www.w3.org/2000/svg" xmlns:xlink="http://www.w3.org/1999/xlink">
<g id="graph0" class="graph" transform="scale(1 1) rotate(0) translate(4 94)">
<title>CameraInstruction::SetInstruction::ViewOffsetOption</title>
<polygon fill="white" stroke="none" points="-4,4 -4,-94 673.8,-94 673.8,4 -4,4"/>
<!-- 60 -->
<!-- name: &quot;CameraInstruction::SetInstruction::ViewOffsetOption&quot;, typeName: &quot;&quot;, id: 60, branchId: 0, recurseId: &#45;1, attributes: 0, notes: &quot;&quot; -->
<g id="node1" class="node">
<title>60</title>
<ellipse fill="none" stroke="black" cx="207.25" cy="-45" rx="207.25" ry="18"/>
<text text-anchor="middle" x="207.25" y="-39.58" font-family="Times New Roman,serif" font-size="14.00">CameraInstruction::SetInstruction::ViewOffsetOption</text>
</g>
<!-- 61 -->
<!-- name: &quot;View Offset X&quot;, typeName: &quot;&quot;, id: 61, branchId: 0, recurseId: &#45;1, attributes: 0, notes: &quot;&quot; -->
<g id="node2" class="node">
<title>61</title>
<ellipse fill="none" stroke="black" cx="515.04" cy="-72" rx="64.54" ry="18"/>
<text text-anchor="middle" x="515.04" y="-66.58" font-family="Times New Roman,serif" font-size="14.00">View Offset X</text>
</g>
<!-- 60&#45;&gt;61 -->
<g id="edge1" class="edge">
<title>60&#45;&gt;61</title>
<path fill="none" stroke="black" d="M354.87,-57.95C385.05,-60.61 415.55,-63.3 441.67,-65.61"/>
<polygon fill="black" stroke="black" points="441.18,-69.08 451.45,-66.47 441.8,-62.11 441.18,-69.08"/>
</g>
<!-- 63 -->
<!-- name: &quot;View Offset Y&quot;, typeName: &quot;&quot;, id: 63, branchId: 0, recurseId: &#45;1, attributes: 0, notes: &quot;&quot; -->
<g id="node4" class="node">
<title>63</title>
<ellipse fill="none" stroke="black" cx="515.04" cy="-18" rx="64.54" ry="18"/>
<text text-anchor="middle" x="515.04" y="-12.57" font-family="Times New Roman,serif" font-size="14.00">View Offset Y</text>
</g>
<!-- 60&#45;&gt;63 -->
<g id="edge3" class="edge">
<title>60&#45;&gt;63</title>
<path fill="none" stroke="black" d="M354.87,-32.05C385.05,-29.39 415.55,-26.7 441.67,-24.39"/>
<polygon fill="black" stroke="black" points="441.8,-27.89 451.45,-23.53 441.18,-20.92 441.8,-27.89"/>
</g>
<!-- 62 -->
<!-- name: &quot;float&quot;, typeName: &quot;&quot;, id: 62, branchId: 0, recurseId: &#45;1, attributes: 512, notes: &quot;&quot; -->
<g id="node3" class="node">
<title>62</title>
<ellipse fill="none" stroke="black" cx="642.68" cy="-72" rx="27.11" ry="18"/>
<text text-anchor="middle" x="642.68" y="-66.58" font-family="Times New Roman,serif" font-size="14.00">float</text>
</g>
<!-- 61&#45;&gt;62 -->
<g id="edge2" class="edge">
<title>61&#45;&gt;62</title>
<path fill="none" stroke="black" d="M579.96,-72C588.16,-72 596.33,-72 603.92,-72"/>
<polygon fill="black" stroke="black" points="603.77,-75.5 613.77,-72 603.77,-68.5 603.77,-75.5"/>
</g>
<!-- 64 -->
<!-- name: &quot;float&quot;, typeName: &quot;&quot;, id: 64, branchId: 0, recurseId: &#45;1, attributes: 512, notes: &quot;&quot; -->
<g id="node5" class="node">
<title>64</title>
<ellipse fill="none" stroke="black" cx="642.68" cy="-18" rx="27.11" ry="18"/>
<text text-anchor="middle" x="642.68" y="-12.57" font-family="Times New Roman,serif" font-size="14.00">float</text>
</g>
<!-- 63&#45;&gt;64 -->
<g id="edge4" class="edge">
<title>63&#45;&gt;64</title>
<path fill="none" stroke="black" d="M579.96,-18C588.16,-18 596.33,-18 603.92,-18"/>
<polygon fill="black" stroke="black" points="603.77,-21.5 613.77,-18 603.77,-14.5 603.77,-21.5"/>
</g>
</g>
</svg>
