<?xml version="1.0" encoding="UTF-8" standalone="no"?>
<!DOCTYPE svg PUBLIC "-//W3C//DTD SVG 1.1//EN"
 "http://www.w3.org/Graphics/SVG/1.1/DTD/svg11.dtd">
<!-- Generated by graphviz version 14.1.1 (20251213.1925)
 -->
<!-- Title: CameraSplineProgressKeyFrame Pages: 1 -->
<svg width="620pt" height="152pt"
 viewBox="0.00 0.00 620.00 152.00" xmlns="http://www.w3.org/2000/svg" xmlns:xlink="http://www.w3.org/1999/xlink">
<g id="graph0" class="graph" transform="scale(1 1) rotate(0) translate(4 148)">
<title>CameraSplineProgressKeyFrame</title>
<polygon fill="white" stroke="none" points="-4,4 -4,-148 616.47,-148 616.47,4 -4,4"/>
<!-- 0 -->
<!-- name: &quot;CameraSplineProgressKeyFrame&quot;, typeName: &quot;&quot;, id: 0, branchId: 0, recurseId: &#45;1, attributes: 0, notes: &quot;&quot; -->
<g id="node1" class="node">
<title>0</title>
<ellipse fill="none" stroke="black" cx="134.78" cy="-72" rx="134.78" ry="18"/>
<text xml:space="preserve" text-anchor="middle" x="134.78" y="-66.95" font-family="Times New Roman,serif" font-size="14.00">CameraSplineProgressKeyFrame</text>
</g>
<!-- 1 -->
<!-- name: &quot;progress&quot;, typeName: &quot;&quot;, id: 1, branchId: 0, recurseId: &#45;1, attributes: 0, notes: &quot;Normalized progress of this frame along the spline, from 0.0 (start) to 1.0 (end).&quot; -->
<g id="node2" class="node">
<title>1</title>
<ellipse fill="none" stroke="black" cx="347.69" cy="-126" rx="42.14" ry="18"/>
<text xml:space="preserve" text-anchor="middle" x="347.69" y="-120.95" font-family="Times New Roman,serif" font-size="14.00">progress</text>
</g>
<!-- 0&#45;&gt;1 -->
<g id="edge1" class="edge">
<title>0&#45;&gt;1</title>
<path fill="none" stroke="black" d="M199.06,-88.2C231.44,-96.49 270.18,-106.41 299.85,-114.01"/>
<polygon fill="black" stroke="black" points="298.72,-117.33 309.28,-116.42 300.46,-110.55 298.72,-117.33"/>
</g>
<!-- 3 -->
<!-- name: &quot;time&quot;, typeName: &quot;&quot;, id: 3, branchId: 0, recurseId: &#45;1, attributes: 0, notes: &quot;Time (in seconds) at which this progress should be applied.&quot; -->
<g id="node4" class="node">
<title>3</title>
<ellipse fill="none" stroke="black" cx="347.69" cy="-72" rx="27.81" ry="18"/>
<text xml:space="preserve" text-anchor="middle" x="347.69" y="-66.95" font-family="Times New Roman,serif" font-size="14.00">time</text>
</g>
<!-- 0&#45;&gt;3 -->
<g id="edge3" class="edge">
<title>0&#45;&gt;3</title>
<path fill="none" stroke="black" d="M269.95,-72C283.82,-72 296.97,-72 308.34,-72"/>
<polygon fill="black" stroke="black" points="307.99,-75.5 317.99,-72 307.99,-68.5 307.99,-75.5"/>
</g>
<!-- 5 -->
<!-- name: &quot;easing&quot;, typeName: &quot;&quot;, id: 5, branchId: 0, recurseId: &#45;1, attributes: 0, notes: &quot;Optional easing function used to interpolate towards this progress key frame. Defaults to &quot;linear&quot; if omitted.&quot; -->
<g id="node6" class="node">
<title>5</title>
<ellipse fill="none" stroke="black" cx="347.69" cy="-18" rx="34.46" ry="18"/>
<text xml:space="preserve" text-anchor="middle" x="347.69" y="-12.95" font-family="Times New Roman,serif" font-size="14.00">easing</text>
</g>
<!-- 0&#45;&gt;5 -->
<g id="edge5" class="edge">
<title>0&#45;&gt;5</title>
<path fill="none" stroke="black" d="M199.06,-55.8C233.38,-47.01 274.84,-36.4 305.07,-28.66"/>
<polygon fill="black" stroke="black" points="305.79,-32.09 314.61,-26.21 304.05,-25.3 305.79,-32.09"/>
</g>
<!-- 2 -->
<!-- name: &quot;float&quot;, typeName: &quot;&quot;, id: 2, branchId: 0, recurseId: &#45;1, attributes: 512, notes: &quot;Normalized progress of this frame along the spline, from 0.0 (start) to 1.0 (end).&quot; -->
<g id="node3" class="node">
<title>2</title>
<ellipse fill="none" stroke="black" cx="519.15" cy="-126" rx="27.81" ry="18"/>
<text xml:space="preserve" text-anchor="middle" x="519.15" y="-120.95" font-family="Times New Roman,serif" font-size="14.00">float</text>
</g>
<!-- 1&#45;&gt;2 -->
<g id="edge2" class="edge">
<title>1&#45;&gt;2</title>
<path fill="none" stroke="black" d="M390.15,-126C417.46,-126 452.97,-126 479.66,-126"/>
<polygon fill="black" stroke="black" points="479.36,-129.5 489.36,-126 479.36,-122.5 479.36,-129.5"/>
</g>
<!-- 4 -->
<!-- name: &quot;float&quot;, typeName: &quot;&quot;, id: 4, branchId: 0, recurseId: &#45;1, attributes: 512, notes: &quot;Time (in seconds) at which this progress should be applied.&quot; -->
<g id="node5" class="node">
<title>4</title>
<ellipse fill="none" stroke="black" cx="519.15" cy="-72" rx="27.81" ry="18"/>
<text xml:space="preserve" text-anchor="middle" x="519.15" y="-66.95" font-family="Times New Roman,serif" font-size="14.00">float</text>
</g>
<!-- 3&#45;&gt;4 -->
<g id="edge4" class="edge">
<title>3&#45;&gt;4</title>
<path fill="none" stroke="black" d="M375.92,-72C403.96,-72 447.91,-72 479.53,-72"/>
<polygon fill="black" stroke="black" points="479.48,-75.5 489.48,-72 479.48,-68.5 479.48,-75.5"/>
</g>
<!-- 6 -->
<!-- name: &quot;enum easing_function&quot;, typeName: &quot;&quot;, id: 6, branchId: 0, recurseId: &#45;1, attributes: 512, notes: &quot;Optional easing function used to interpolate towards this progress key frame. Defaults to &quot;linear&quot; if omitted.&quot; -->
<g id="node7" class="node">
<title>6</title>
<ellipse fill="none" stroke="black" cx="519.15" cy="-18" rx="93.32" ry="18"/>
<text xml:space="preserve" text-anchor="middle" x="519.15" y="-12.95" font-family="Times New Roman,serif" font-size="14.00">enum easing_function</text>
</g>
<!-- 5&#45;&gt;6 -->
<g id="edge6" class="edge">
<title>5&#45;&gt;6</title>
<path fill="none" stroke="black" d="M382.58,-18C392.07,-18 402.91,-18 414.23,-18"/>
<polygon fill="black" stroke="black" points="414.17,-21.5 424.17,-18 414.17,-14.5 414.17,-21.5"/>
</g>
</g>
</svg>
