<?xml version="1.0" encoding="UTF-8" standalone="no"?>
<!DOCTYPE svg PUBLIC "-//W3C//DTD SVG 1.1//EN"
 "http://www.w3.org/Graphics/SVG/1.1/DTD/svg11.dtd">
<!-- Generated by graphviz version 14.1.1 (20251213.1925)
 -->
<!-- Title: CameraInstruction::FovInstruction Pages: 1 -->
<svg width="714pt" height="206pt"
 viewBox="0.00 0.00 714.00 206.00" xmlns="http://www.w3.org/2000/svg" xmlns:xlink="http://www.w3.org/1999/xlink">
<g id="graph0" class="graph" transform="scale(1 1) rotate(0) translate(4 202)">
<title>CameraInstruction::FovInstruction</title>
<polygon fill="white" stroke="none" points="-4,4 -4,-202 709.62,-202 709.62,4 -4,4"/>
<!-- 0 -->
<!-- name: &quot;CameraInstruction::FovInstruction&quot;, typeName: &quot;&quot;, id: 0, branchId: 0, recurseId: &#45;1, attributes: 0, notes: &quot;&quot; -->
<g id="node1" class="node">
<title>0</title>
<ellipse fill="none" stroke="black" cx="139.38" cy="-99" rx="139.38" ry="18"/>
<text xml:space="preserve" text-anchor="middle" x="139.38" y="-93.95" font-family="Times New Roman,serif" font-size="14.00">CameraInstruction::FovInstruction</text>
</g>
<!-- 1 -->
<!-- name: &quot;Field of View&quot;, typeName: &quot;&quot;, id: 1, branchId: 0, recurseId: &#45;1, attributes: 0, notes: &quot;&quot; -->
<g id="node2" class="node">
<title>1</title>
<ellipse fill="none" stroke="black" cx="398.87" cy="-180" rx="61.59" ry="18"/>
<text xml:space="preserve" text-anchor="middle" x="398.87" y="-174.95" font-family="Times New Roman,serif" font-size="14.00">Field of View</text>
</g>
<!-- 0&#45;&gt;1 -->
<g id="edge1" class="edge">
<title>0&#45;&gt;1</title>
<path fill="none" stroke="black" d="M194.36,-115.98C238.68,-129.92 301.09,-149.55 345.08,-163.39"/>
<polygon fill="black" stroke="black" points="343.81,-166.66 354.4,-166.33 345.91,-159.99 343.81,-166.66"/>
</g>
<!-- 3 -->
<!-- name: &quot;FOV Ease Time&quot;, typeName: &quot;&quot;, id: 3, branchId: 0, recurseId: &#45;1, attributes: 0, notes: &quot;&quot; -->
<g id="node4" class="node">
<title>3</title>
<ellipse fill="none" stroke="black" cx="398.87" cy="-126" rx="71.31" ry="18"/>
<text xml:space="preserve" text-anchor="middle" x="398.87" y="-120.95" font-family="Times New Roman,serif" font-size="14.00">FOV Ease Time</text>
</g>
<!-- 0&#45;&gt;3 -->
<g id="edge3" class="edge">
<title>0&#45;&gt;3</title>
<path fill="none" stroke="black" d="M249.21,-110.41C273.4,-112.95 298.55,-115.58 321.13,-117.95"/>
<polygon fill="black" stroke="black" points="320.52,-121.41 330.83,-118.97 321.25,-114.45 320.52,-121.41"/>
</g>
<!-- 5 -->
<!-- name: &quot;FOV Ease Type&quot;, typeName: &quot;&quot;, id: 5, branchId: 0, recurseId: &#45;1, attributes: 0, notes: &quot;&quot; -->
<g id="node6" class="node">
<title>5</title>
<ellipse fill="none" stroke="black" cx="398.87" cy="-72" rx="69.78" ry="18"/>
<text xml:space="preserve" text-anchor="middle" x="398.87" y="-66.95" font-family="Times New Roman,serif" font-size="14.00">FOV Ease Type</text>
</g>
<!-- 0&#45;&gt;5 -->
<g id="edge5" class="edge">
<title>0&#45;&gt;5</title>
<path fill="none" stroke="black" d="M249.21,-87.59C273.87,-85 299.52,-82.31 322.44,-79.91"/>
<polygon fill="black" stroke="black" points="322.72,-83.4 332.3,-78.88 321.99,-76.44 322.72,-83.4"/>
</g>
<!-- 7 -->
<!-- name: &quot;Field of View Clear&quot;, typeName: &quot;&quot;, id: 7, branchId: 0, recurseId: &#45;1, attributes: 0, notes: &quot;&quot; -->
<g id="node8" class="node">
<title>7</title>
<ellipse fill="none" stroke="black" cx="398.87" cy="-18" rx="84.11" ry="18"/>
<text xml:space="preserve" text-anchor="middle" x="398.87" y="-12.95" font-family="Times New Roman,serif" font-size="14.00">Field of View Clear</text>
</g>
<!-- 0&#45;&gt;7 -->
<g id="edge7" class="edge">
<title>0&#45;&gt;7</title>
<path fill="none" stroke="black" d="M194.36,-82.02C236.78,-68.68 295.76,-50.12 339.31,-36.42"/>
<polygon fill="black" stroke="black" points="340.1,-39.84 348.59,-33.5 338,-33.16 340.1,-39.84"/>
</g>
<!-- 2 -->
<!-- name: &quot;float&quot;, typeName: &quot;&quot;, id: 2, branchId: 0, recurseId: &#45;1, attributes: 512, notes: &quot;&quot; -->
<g id="node3" class="node">
<title>2</title>
<ellipse fill="none" stroke="black" cx="612.3" cy="-180" rx="27.81" ry="18"/>
<text xml:space="preserve" text-anchor="middle" x="612.3" y="-174.95" font-family="Times New Roman,serif" font-size="14.00">float</text>
</g>
<!-- 1&#45;&gt;2 -->
<g id="edge2" class="edge">
<title>1&#45;&gt;2</title>
<path fill="none" stroke="black" d="M460.74,-180C496.87,-180 541.58,-180 572.85,-180"/>
<polygon fill="black" stroke="black" points="572.62,-183.5 582.62,-180 572.62,-176.5 572.62,-183.5"/>
</g>
<!-- 4 -->
<!-- name: &quot;float&quot;, typeName: &quot;&quot;, id: 4, branchId: 0, recurseId: &#45;1, attributes: 512, notes: &quot;&quot; -->
<g id="node5" class="node">
<title>4</title>
<ellipse fill="none" stroke="black" cx="612.3" cy="-126" rx="27.81" ry="18"/>
<text xml:space="preserve" text-anchor="middle" x="612.3" y="-120.95" font-family="Times New Roman,serif" font-size="14.00">float</text>
</g>
<!-- 3&#45;&gt;4 -->
<g id="edge4" class="edge">
<title>3&#45;&gt;4</title>
<path fill="none" stroke="black" d="M470.57,-126C504.6,-126 544.09,-126 572.56,-126"/>
<polygon fill="black" stroke="black" points="572.53,-129.5 582.53,-126 572.53,-122.5 572.53,-129.5"/>
</g>
<!-- 6 -->
<!-- name: &quot;enum easing_function&quot;, typeName: &quot;&quot;, id: 6, branchId: 0, recurseId: &#45;1, attributes: 512, notes: &quot;&quot; -->
<g id="node7" class="node">
<title>6</title>
<ellipse fill="none" stroke="black" cx="612.3" cy="-72" rx="93.32" ry="18"/>
<text xml:space="preserve" text-anchor="middle" x="612.3" y="-66.95" font-family="Times New Roman,serif" font-size="14.00">enum easing_function</text>
</g>
<!-- 5&#45;&gt;6 -->
<g id="edge6" class="edge">
<title>5&#45;&gt;6</title>
<path fill="none" stroke="black" d="M469.1,-72C481.4,-72 494.44,-72 507.45,-72"/>
<polygon fill="black" stroke="black" points="507.34,-75.5 517.34,-72 507.34,-68.5 507.34,-75.5"/>
</g>
<!-- 8 -->
<!-- name: &quot;bool&quot;, typeName: &quot;&quot;, id: 8, branchId: 0, recurseId: &#45;1, attributes: 512, notes: &quot;&quot; -->
<g id="node9" class="node">
<title>8</title>
<ellipse fill="none" stroke="black" cx="612.3" cy="-18" rx="27.3" ry="18"/>
<text xml:space="preserve" text-anchor="middle" x="612.3" y="-12.95" font-family="Times New Roman,serif" font-size="14.00">bool</text>
</g>
<!-- 7&#45;&gt;8 -->
<g id="edge8" class="edge">
<title>7&#45;&gt;8</title>
<path fill="none" stroke="black" d="M483.43,-18C514.72,-18 548.72,-18 573.79,-18"/>
<polygon fill="black" stroke="black" points="573.47,-21.5 583.47,-18 573.47,-14.5 573.47,-21.5"/>
</g>
</g>
</svg>
