<?xml version="1.0" encoding="UTF-8" standalone="no"?>
<!DOCTYPE svg PUBLIC "-//W3C//DTD SVG 1.1//EN"
 "http://www.w3.org/Graphics/SVG/1.1/DTD/svg11.dtd">
<!-- Generated by graphviz version 12.2.1 (20241206.2353)
 -->
<!-- Title: CameraPacket Pages: 1 -->
<svg width="493pt" height="98pt"
 viewBox="0.00 0.00 492.52 98.00" xmlns="http://www.w3.org/2000/svg" xmlns:xlink="http://www.w3.org/1999/xlink">
<g id="graph0" class="graph" transform="scale(1 1) rotate(0) translate(4 94)">
<title>CameraPacket</title>
<polygon fill="white" stroke="none" points="-4,4 -4,-94 488.52,-94 488.52,4 -4,4"/>
<!-- 0 -->
<!-- name: &quot;CameraPacket&quot;, typeName: &quot;&quot;, id: 0, branchId: 73, recurseId: &#45;1, attributes: 0, notes: &quot;&quot; -->
<g id="node1" class="node">
<title>0</title>
<ellipse fill="none" stroke="black" cx="64.66" cy="-45" rx="64.66" ry="18"/>
<text text-anchor="middle" x="64.66" y="-39.95" font-family="Times New Roman,serif" font-size="14.00">CameraPacket</text>
</g>
<!-- 1 -->
<!-- name: &quot;Camera ID&quot;, typeName: &quot;ActorUniqueID&quot;, id: 1, branchId: 0, recurseId: &#45;1, attributes: 256, notes: &quot;&quot; -->
<g id="node2" class="node">
<title>1</title>
<ellipse fill="none" stroke="black" cx="238.16" cy="-72" rx="52.38" ry="18"/>
<text text-anchor="middle" x="238.16" y="-66.95" font-family="Times New Roman,serif" font-size="14.00">Camera ID</text>
</g>
<!-- 0&#45;&gt;1 -->
<g id="edge1" class="edge">
<title>0&#45;&gt;1</title>
<path fill="none" stroke="black" d="M121.82,-53.84C140.02,-56.71 160.25,-59.89 178.62,-62.78"/>
<polygon fill="black" stroke="black" points="177.87,-66.21 188.29,-64.31 178.96,-59.29 177.87,-66.21"/>
</g>
<!-- 3 -->
<!-- name: &quot;Target Player ID&quot;, typeName: &quot;ActorUniqueID&quot;, id: 3, branchId: 0, recurseId: &#45;1, attributes: 256, notes: &quot;&quot; -->
<g id="node4" class="node">
<title>3</title>
<ellipse fill="none" stroke="black" cx="238.16" cy="-18" rx="72.85" ry="18"/>
<text text-anchor="middle" x="238.16" y="-12.95" font-family="Times New Roman,serif" font-size="14.00">Target Player ID</text>
</g>
<!-- 0&#45;&gt;3 -->
<g id="edge3" class="edge">
<title>0&#45;&gt;3</title>
<path fill="none" stroke="black" d="M121.82,-36.16C135.46,-34.01 150.24,-31.68 164.53,-29.43"/>
<polygon fill="black" stroke="black" points="165.02,-32.9 174.35,-27.89 163.93,-25.99 165.02,-32.9"/>
</g>
<!-- 2 -->
<!-- name: &quot;ActorUniqueID&quot;, typeName: &quot;&quot;, id: 2, branchId: 0, recurseId: &#45;1, attributes: 512, notes: &quot;&quot; -->
<g id="node3" class="node">
<title>2</title>
<ellipse fill="none" stroke="black" cx="415.76" cy="-72" rx="68.75" ry="18"/>
<text text-anchor="middle" x="415.76" y="-66.95" font-family="Times New Roman,serif" font-size="14.00">ActorUniqueID</text>
</g>
<!-- 1&#45;&gt;2 -->
<g id="edge2" class="edge">
<title>1&#45;&gt;2</title>
<path fill="none" stroke="black" d="M290.9,-72C304.85,-72 320.26,-72 335.35,-72"/>
<polygon fill="black" stroke="black" points="335.27,-75.5 345.27,-72 335.27,-68.5 335.27,-75.5"/>
</g>
<!-- 4 -->
<!-- name: &quot;ActorUniqueID&quot;, typeName: &quot;&quot;, id: 4, branchId: 0, recurseId: &#45;1, attributes: 512, notes: &quot;&quot; -->
<g id="node5" class="node">
<title>4</title>
<ellipse fill="none" stroke="black" cx="415.76" cy="-18" rx="68.75" ry="18"/>
<text text-anchor="middle" x="415.76" y="-12.95" font-family="Times New Roman,serif" font-size="14.00">ActorUniqueID</text>
</g>
<!-- 3&#45;&gt;4 -->
<g id="edge4" class="edge">
<title>3&#45;&gt;4</title>
<path fill="none" stroke="black" d="M311.35,-18C319.17,-18 327.15,-18 335.05,-18"/>
<polygon fill="black" stroke="black" points="335.02,-21.5 345.02,-18 335.02,-14.5 335.02,-21.5"/>
</g>
</g>
</svg>
