<?xml version="1.0" encoding="UTF-8" standalone="no"?>
<!DOCTYPE svg PUBLIC "-//W3C//DTD SVG 1.1//EN"
 "http://www.w3.org/Graphics/SVG/1.1/DTD/svg11.dtd">
<!-- Generated by graphviz version 12.2.1 (20241206.2353)
 -->
<!-- Title: CameraInstruction::SetInstruction::EntityOffsetOption Pages: 1 -->
<svg width="698pt" height="152pt"
 viewBox="0.00 0.00 698.26 152.00" xmlns="http://www.w3.org/2000/svg" xmlns:xlink="http://www.w3.org/1999/xlink">
<g id="graph0" class="graph" transform="scale(1 1) rotate(0) translate(4 148)">
<title>CameraInstruction::SetInstruction::EntityOffsetOption</title>
<polygon fill="white" stroke="none" points="-4,4 -4,-148 694.26,-148 694.26,4 -4,4"/>
<!-- 72 -->
<!-- name: &quot;CameraInstruction::SetInstruction::EntityOffsetOption&quot;, typeName: &quot;&quot;, id: 72, branchId: 0, recurseId: &#45;1, attributes: 0, notes: &quot;&quot; -->
<g id="node1" class="node">
<title>72</title>
<ellipse fill="none" stroke="black" cx="213.08" cy="-72" rx="213.08" ry="18"/>
<text text-anchor="middle" x="213.08" y="-66.95" font-family="Times New Roman,serif" font-size="14.00">CameraInstruction::SetInstruction::EntityOffsetOption</text>
</g>
<!-- 73 -->
<!-- name: &quot;Entity Offset X&quot;, typeName: &quot;float&quot;, id: 73, branchId: 0, recurseId: &#45;1, attributes: 256, notes: &quot;&quot; -->
<g id="node2" class="node">
<title>73</title>
<ellipse fill="none" stroke="black" cx="530.41" cy="-126" rx="68.24" ry="18"/>
<text text-anchor="middle" x="530.41" y="-120.95" font-family="Times New Roman,serif" font-size="14.00">Entity Offset X</text>
</g>
<!-- 72&#45;&gt;73 -->
<g id="edge1" class="edge">
<title>72&#45;&gt;73</title>
<path fill="none" stroke="black" d="M309.97,-88.42C358.81,-96.79 417.04,-106.76 461.24,-114.33"/>
<polygon fill="black" stroke="black" points="460.51,-117.75 470.96,-115.99 461.69,-110.85 460.51,-117.75"/>
</g>
<!-- 78 -->
<!-- name: &quot;Entity Offset Y&quot;, typeName: &quot;float&quot;, id: 78, branchId: 0, recurseId: &#45;1, attributes: 256, notes: &quot;&quot; -->
<g id="node4" class="node">
<title>78</title>
<ellipse fill="none" stroke="black" cx="530.41" cy="-72" rx="67.73" ry="18"/>
<text text-anchor="middle" x="530.41" y="-66.95" font-family="Times New Roman,serif" font-size="14.00">Entity Offset Y</text>
</g>
<!-- 72&#45;&gt;78 -->
<g id="edge3" class="edge">
<title>72&#45;&gt;78</title>
<path fill="none" stroke="black" d="M426.59,-72C434.92,-72 443.02,-72 450.77,-72"/>
<polygon fill="black" stroke="black" points="450.75,-75.5 460.75,-72 450.75,-68.5 450.75,-75.5"/>
</g>
<!-- 80 -->
<!-- name: &quot;Entity Offset Z&quot;, typeName: &quot;float&quot;, id: 80, branchId: 0, recurseId: &#45;1, attributes: 256, notes: &quot;&quot; -->
<g id="node6" class="node">
<title>80</title>
<ellipse fill="none" stroke="black" cx="530.41" cy="-18" rx="67.22" ry="18"/>
<text text-anchor="middle" x="530.41" y="-12.95" font-family="Times New Roman,serif" font-size="14.00">Entity Offset Z</text>
</g>
<!-- 72&#45;&gt;80 -->
<g id="edge5" class="edge">
<title>72&#45;&gt;80</title>
<path fill="none" stroke="black" d="M309.97,-55.58C358.98,-47.19 417.44,-37.17 461.69,-29.6"/>
<polygon fill="black" stroke="black" points="462.15,-33.07 471.42,-27.93 460.97,-26.17 462.15,-33.07"/>
</g>
<!-- 77 -->
<!-- name: &quot;float&quot;, typeName: &quot;&quot;, id: 77, branchId: 0, recurseId: &#45;1, attributes: 512, notes: &quot;&quot; -->
<g id="node3" class="node">
<title>77</title>
<ellipse fill="none" stroke="black" cx="662.46" cy="-126" rx="27.81" ry="18"/>
<text text-anchor="middle" x="662.46" y="-120.95" font-family="Times New Roman,serif" font-size="14.00">float</text>
</g>
<!-- 73&#45;&gt;77 -->
<g id="edge2" class="edge">
<title>73&#45;&gt;77</title>
<path fill="none" stroke="black" d="M599.1,-126C607.28,-126 615.4,-126 622.95,-126"/>
<polygon fill="black" stroke="black" points="622.76,-129.5 632.76,-126 622.76,-122.5 622.76,-129.5"/>
</g>
<!-- 79 -->
<!-- name: &quot;float&quot;, typeName: &quot;&quot;, id: 79, branchId: 0, recurseId: &#45;1, attributes: 512, notes: &quot;&quot; -->
<g id="node5" class="node">
<title>79</title>
<ellipse fill="none" stroke="black" cx="662.46" cy="-72" rx="27.81" ry="18"/>
<text text-anchor="middle" x="662.46" y="-66.95" font-family="Times New Roman,serif" font-size="14.00">float</text>
</g>
<!-- 78&#45;&gt;79 -->
<g id="edge4" class="edge">
<title>78&#45;&gt;79</title>
<path fill="none" stroke="black" d="M598.34,-72C606.77,-72 615.16,-72 622.93,-72"/>
<polygon fill="black" stroke="black" points="622.68,-75.5 632.68,-72 622.68,-68.5 622.68,-75.5"/>
</g>
<!-- 81 -->
<!-- name: &quot;float&quot;, typeName: &quot;&quot;, id: 81, branchId: 0, recurseId: &#45;1, attributes: 512, notes: &quot;&quot; -->
<g id="node7" class="node">
<title>81</title>
<ellipse fill="none" stroke="black" cx="662.46" cy="-18" rx="27.81" ry="18"/>
<text text-anchor="middle" x="662.46" y="-12.95" font-family="Times New Roman,serif" font-size="14.00">float</text>
</g>
<!-- 80&#45;&gt;81 -->
<g id="edge6" class="edge">
<title>80&#45;&gt;81</title>
<path fill="none" stroke="black" d="M597.96,-18C606.5,-18 615.02,-18 622.9,-18"/>
<polygon fill="black" stroke="black" points="622.8,-21.5 632.8,-18 622.8,-14.5 622.8,-21.5"/>
</g>
</g>
</svg>
