<?xml version="1.0" encoding="UTF-8" standalone="no"?>
<!DOCTYPE svg PUBLIC "-//W3C//DTD SVG 1.1//EN"
 "http://www.w3.org/Graphics/SVG/1.1/DTD/svg11.dtd">
<!-- Generated by graphviz version 10.0.1 (20240210.2158)
 -->
<!-- Title: CameraShakePacket Pages: 1 -->
<svg width="423pt" height="206pt"
 viewBox="0.00 0.00 423.31 206.00" xmlns="http://www.w3.org/2000/svg" xmlns:xlink="http://www.w3.org/1999/xlink">
<g id="graph0" class="graph" transform="scale(1 1) rotate(0) translate(4 202)">
<title>CameraShakePacket</title>
<polygon fill="white" stroke="none" points="-4,4 -4,-202 419.31,-202 419.31,4 -4,4"/>
<!-- 0 -->
<!-- name: &quot;CameraShakePacket&quot;, typeName: &quot;&quot;, id: 0, branchId: 159, recurseId: &#45;1, attributes: 0, notes: &quot;&quot; -->
<g id="node1" class="node">
<title>0</title>
<ellipse fill="none" stroke="black" cx="86.49" cy="-99" rx="86.49" ry="18"/>
<text text-anchor="middle" x="86.49" y="-93.58" font-family="Times New Roman,serif" font-size="14.00">CameraShakePacket</text>
</g>
<!-- 1 -->
<!-- name: &quot;Intensity&quot;, typeName: &quot;&quot;, id: 1, branchId: 0, recurseId: &#45;1, attributes: 0, notes: &quot;Camera shake intensity&quot; -->
<g id="node2" class="node">
<title>1</title>
<ellipse fill="none" stroke="black" cx="267.03" cy="-180" rx="42.08" ry="18"/>
<text text-anchor="middle" x="267.03" y="-174.57" font-family="Times New Roman,serif" font-size="14.00">Intensity</text>
</g>
<!-- 0&#45;&gt;1 -->
<g id="edge1" class="edge">
<title>0&#45;&gt;1</title>
<path fill="none" stroke="black" d="M124.05,-115.59C153.99,-129.17 196.24,-148.34 226.86,-162.23"/>
<polygon fill="black" stroke="black" points="225.24,-165.33 235.79,-166.28 228.13,-158.96 225.24,-165.33"/>
</g>
<!-- 3 -->
<!-- name: &quot;Seconds&quot;, typeName: &quot;&quot;, id: 3, branchId: 0, recurseId: &#45;1, attributes: 0, notes: &quot;Duration&quot; -->
<g id="node4" class="node">
<title>3</title>
<ellipse fill="none" stroke="black" cx="267.03" cy="-126" rx="43.08" ry="18"/>
<text text-anchor="middle" x="267.03" y="-120.58" font-family="Times New Roman,serif" font-size="14.00">Seconds</text>
</g>
<!-- 0&#45;&gt;3 -->
<g id="edge3" class="edge">
<title>0&#45;&gt;3</title>
<path fill="none" stroke="black" d="M157.54,-109.59C176.62,-112.48 196.92,-115.55 214.74,-118.24"/>
<polygon fill="black" stroke="black" points="214.15,-121.69 224.56,-119.73 215.19,-114.77 214.15,-121.69"/>
</g>
<!-- 5 -->
<!-- name: &quot;Shake Type&quot;, typeName: &quot;&quot;, id: 5, branchId: 0, recurseId: &#45;1, attributes: 0, notes: &quot;&quot; -->
<g id="node6" class="node">
<title>5</title>
<ellipse fill="none" stroke="black" cx="267.03" cy="-72" rx="55.06" ry="18"/>
<text text-anchor="middle" x="267.03" y="-66.58" font-family="Times New Roman,serif" font-size="14.00">Shake Type</text>
</g>
<!-- 0&#45;&gt;5 -->
<g id="edge5" class="edge">
<title>0&#45;&gt;5</title>
<path fill="none" stroke="black" d="M157.54,-88.41C173.35,-86.02 189.99,-83.5 205.37,-81.17"/>
<polygon fill="black" stroke="black" points="205.45,-84.7 214.82,-79.75 204.41,-77.78 205.45,-84.7"/>
</g>
<!-- 7 -->
<!-- name: &quot;Shake action&quot;, typeName: &quot;&quot;, id: 7, branchId: 0, recurseId: &#45;1, attributes: 0, notes: &quot;&quot; -->
<g id="node8" class="node">
<title>7</title>
<ellipse fill="none" stroke="black" cx="267.03" cy="-18" rx="58.05" ry="18"/>
<text text-anchor="middle" x="267.03" y="-12.57" font-family="Times New Roman,serif" font-size="14.00">Shake action</text>
</g>
<!-- 0&#45;&gt;7 -->
<g id="edge7" class="edge">
<title>0&#45;&gt;7</title>
<path fill="none" stroke="black" d="M124.05,-82.41C152.71,-69.41 192.66,-51.29 222.88,-37.58"/>
<polygon fill="black" stroke="black" points="224.09,-40.87 231.75,-33.55 221.2,-34.5 224.09,-40.87"/>
</g>
<!-- 2 -->
<!-- name: &quot;float&quot;, typeName: &quot;&quot;, id: 2, branchId: 0, recurseId: &#45;1, attributes: 512, notes: &quot;&quot; -->
<g id="node3" class="node">
<title>2</title>
<ellipse fill="none" stroke="black" cx="388.2" cy="-180" rx="27.11" ry="18"/>
<text text-anchor="middle" x="388.2" y="-174.57" font-family="Times New Roman,serif" font-size="14.00">float</text>
</g>
<!-- 1&#45;&gt;2 -->
<g id="edge2" class="edge">
<title>1&#45;&gt;2</title>
<path fill="none" stroke="black" d="M309.38,-180C322.45,-180 336.82,-180 349.61,-180"/>
<polygon fill="black" stroke="black" points="349.32,-183.5 359.32,-180 349.32,-176.5 349.32,-183.5"/>
</g>
<!-- 4 -->
<!-- name: &quot;float&quot;, typeName: &quot;&quot;, id: 4, branchId: 0, recurseId: &#45;1, attributes: 512, notes: &quot;&quot; -->
<g id="node5" class="node">
<title>4</title>
<ellipse fill="none" stroke="black" cx="388.2" cy="-126" rx="27.11" ry="18"/>
<text text-anchor="middle" x="388.2" y="-120.58" font-family="Times New Roman,serif" font-size="14.00">float</text>
</g>
<!-- 3&#45;&gt;4 -->
<g id="edge4" class="edge">
<title>3&#45;&gt;4</title>
<path fill="none" stroke="black" d="M310.38,-126C323.16,-126 337.09,-126 349.54,-126"/>
<polygon fill="black" stroke="black" points="349.42,-129.5 359.42,-126 349.42,-122.5 349.42,-129.5"/>
</g>
<!-- 6 -->
<!-- name: &quot;byte&quot;, typeName: &quot;&quot;, id: 6, branchId: 0, recurseId: &#45;1, attributes: 512, notes: &quot;&quot; -->
<g id="node7" class="node">
<title>6</title>
<ellipse fill="none" stroke="black" cx="388.2" cy="-72" rx="27" ry="18"/>
<text text-anchor="middle" x="388.2" y="-66.58" font-family="Times New Roman,serif" font-size="14.00">byte</text>
</g>
<!-- 5&#45;&gt;6 -->
<g id="edge6" class="edge">
<title>5&#45;&gt;6</title>
<path fill="none" stroke="black" d="M322.39,-72C331.59,-72 340.95,-72 349.6,-72"/>
<polygon fill="black" stroke="black" points="349.35,-75.5 359.35,-72 349.35,-68.5 349.35,-75.5"/>
</g>
<!-- 8 -->
<!-- name: &quot;byte&quot;, typeName: &quot;&quot;, id: 8, branchId: 0, recurseId: &#45;1, attributes: 512, notes: &quot;&quot; -->
<g id="node9" class="node">
<title>8</title>
<ellipse fill="none" stroke="black" cx="388.2" cy="-18" rx="27" ry="18"/>
<text text-anchor="middle" x="388.2" y="-12.57" font-family="Times New Roman,serif" font-size="14.00">byte</text>
</g>
<!-- 7&#45;&gt;8 -->
<g id="edge8" class="edge">
<title>7&#45;&gt;8</title>
<path fill="none" stroke="black" d="M325.52,-18C333.65,-18 341.82,-18 349.44,-18"/>
<polygon fill="black" stroke="black" points="349.37,-21.5 359.37,-18 349.37,-14.5 349.37,-21.5"/>
</g>
</g>
</svg>
