<?xml version="1.0" encoding="UTF-8" standalone="no"?>
<!DOCTYPE svg PUBLIC "-//W3C//DTD SVG 1.1//EN"
 "http://www.w3.org/Graphics/SVG/1.1/DTD/svg11.dtd">
<!-- Generated by graphviz version 14.1.1 (20251213.1925)
 -->
<!-- Title: CameraInstruction::SplineInstruction::SplineRotationOption Pages: 1 -->
<svg width="1018pt" height="260pt"
 viewBox="0.00 0.00 1018.00 260.00" xmlns="http://www.w3.org/2000/svg" xmlns:xlink="http://www.w3.org/1999/xlink">
<g id="graph0" class="graph" transform="scale(1 1) rotate(0) translate(4 256)">
<title>CameraInstruction::SplineInstruction::SplineRotationOption</title>
<polygon fill="white" stroke="none" points="-4,4 -4,-256 1013.55,-256 1013.55,4 -4,4"/>
<!-- 0 -->
<!-- name: &quot;CameraInstruction::SplineInstruction::SplineRotationOption&quot;, typeName: &quot;&quot;, id: 0, branchId: 0, recurseId: &#45;1, attributes: 0, notes: &quot;&quot; -->
<g id="node1" class="node">
<title>0</title>
<ellipse fill="none" stroke="black" cx="234.58" cy="-72" rx="234.58" ry="18"/>
<text xml:space="preserve" text-anchor="middle" x="234.58" y="-66.95" font-family="Times New Roman,serif" font-size="14.00">CameraInstruction::SplineInstruction::SplineRotationOption</text>
</g>
<!-- 1 -->
<!-- name: &quot;Key frame value&quot;, typeName: &quot;&quot;, id: 1, branchId: 0, recurseId: &#45;1, attributes: 0, notes: &quot;&quot; -->
<g id="node2" class="node">
<title>1</title>
<ellipse fill="none" stroke="black" cx="601.04" cy="-153" rx="73.36" ry="18"/>
<text xml:space="preserve" text-anchor="middle" x="601.04" y="-147.95" font-family="Times New Roman,serif" font-size="14.00">Key frame value</text>
</g>
<!-- 0&#45;&gt;1 -->
<g id="edge1" class="edge">
<title>0&#45;&gt;1</title>
<path fill="none" stroke="black" d="M313.76,-89.38C379.53,-103.99 472.49,-124.65 534.43,-138.42"/>
<polygon fill="black" stroke="black" points="533.63,-141.83 544.15,-140.58 535.14,-134.99 533.63,-141.83"/>
</g>
<!-- 8 -->
<!-- name: &quot;Key frame time&quot;, typeName: &quot;&quot;, id: 8, branchId: 0, recurseId: &#45;1, attributes: 0, notes: &quot;&quot; -->
<g id="node9" class="node">
<title>8</title>
<ellipse fill="none" stroke="black" cx="601.04" cy="-72" rx="70.29" ry="18"/>
<text xml:space="preserve" text-anchor="middle" x="601.04" y="-66.95" font-family="Times New Roman,serif" font-size="14.00">Key frame time</text>
</g>
<!-- 0&#45;&gt;8 -->
<g id="edge8" class="edge">
<title>0&#45;&gt;8</title>
<path fill="none" stroke="black" d="M469.49,-72C486.94,-72 503.71,-72 519.06,-72"/>
<polygon fill="black" stroke="black" points="519.01,-75.5 529.01,-72 519.01,-68.5 519.01,-75.5"/>
</g>
<!-- 10 -->
<!-- name: &quot;Key frame easing func&quot;, typeName: &quot;&quot;, id: 10, branchId: 0, recurseId: &#45;1, attributes: 0, notes: &quot;&quot; -->
<g id="node11" class="node">
<title>10</title>
<ellipse fill="none" stroke="black" cx="601.04" cy="-18" rx="95.88" ry="18"/>
<text xml:space="preserve" text-anchor="middle" x="601.04" y="-12.95" font-family="Times New Roman,serif" font-size="14.00">Key frame easing func</text>
</g>
<!-- 0&#45;&gt;10 -->
<g id="edge10" class="edge">
<title>0&#45;&gt;10</title>
<path fill="none" stroke="black" d="M345.42,-55.72C399.2,-47.76 463.03,-38.3 513.32,-30.85"/>
<polygon fill="black" stroke="black" points="513.61,-34.34 522.99,-29.42 512.59,-27.42 513.61,-34.34"/>
</g>
<!-- 2 -->
<!-- name: &quot;X&quot;, typeName: &quot;&quot;, id: 2, branchId: 0, recurseId: &#45;1, attributes: 0, notes: &quot;&quot; -->
<g id="node3" class="node">
<title>2</title>
<ellipse fill="none" stroke="black" cx="759.91" cy="-234" rx="27" ry="18"/>
<text xml:space="preserve" text-anchor="middle" x="759.91" y="-228.95" font-family="Times New Roman,serif" font-size="14.00">X</text>
</g>
<!-- 1&#45;&gt;2 -->
<g id="edge2" class="edge">
<title>1&#45;&gt;2</title>
<path fill="none" stroke="black" d="M633.78,-169.39C661.13,-183.51 700.38,-203.78 727.6,-217.83"/>
<polygon fill="black" stroke="black" points="725.92,-220.9 736.41,-222.38 729.13,-214.68 725.92,-220.9"/>
</g>
<!-- 4 -->
<!-- name: &quot;Y&quot;, typeName: &quot;&quot;, id: 4, branchId: 0, recurseId: &#45;1, attributes: 0, notes: &quot;&quot; -->
<g id="node5" class="node">
<title>4</title>
<ellipse fill="none" stroke="black" cx="759.91" cy="-180" rx="27" ry="18"/>
<text xml:space="preserve" text-anchor="middle" x="759.91" y="-174.95" font-family="Times New Roman,serif" font-size="14.00">Y</text>
</g>
<!-- 1&#45;&gt;4 -->
<g id="edge4" class="edge">
<title>1&#45;&gt;4</title>
<path fill="none" stroke="black" d="M661.79,-163.28C682.11,-166.78 704.2,-170.58 722.17,-173.68"/>
<polygon fill="black" stroke="black" points="721.39,-177.09 731.83,-175.34 722.57,-170.19 721.39,-177.09"/>
</g>
<!-- 6 -->
<!-- name: &quot;Z&quot;, typeName: &quot;&quot;, id: 6, branchId: 0, recurseId: &#45;1, attributes: 0, notes: &quot;&quot; -->
<g id="node7" class="node">
<title>6</title>
<ellipse fill="none" stroke="black" cx="759.91" cy="-126" rx="27" ry="18"/>
<text xml:space="preserve" text-anchor="middle" x="759.91" y="-120.95" font-family="Times New Roman,serif" font-size="14.00">Z</text>
</g>
<!-- 1&#45;&gt;6 -->
<g id="edge6" class="edge">
<title>1&#45;&gt;6</title>
<path fill="none" stroke="black" d="M661.79,-142.72C682.11,-139.22 704.2,-135.42 722.17,-132.32"/>
<polygon fill="black" stroke="black" points="722.57,-135.81 731.83,-130.66 721.39,-128.91 722.57,-135.81"/>
</g>
<!-- 3 -->
<!-- name: &quot;float&quot;, typeName: &quot;&quot;, id: 3, branchId: 0, recurseId: &#45;1, attributes: 512, notes: &quot;&quot; -->
<g id="node4" class="node">
<title>3</title>
<ellipse fill="none" stroke="black" cx="916.23" cy="-234" rx="27.81" ry="18"/>
<text xml:space="preserve" text-anchor="middle" x="916.23" y="-228.95" font-family="Times New Roman,serif" font-size="14.00">float</text>
</g>
<!-- 2&#45;&gt;3 -->
<g id="edge3" class="edge">
<title>2&#45;&gt;3</title>
<path fill="none" stroke="black" d="M787.09,-234C811.7,-234 848.82,-234 876.79,-234"/>
<polygon fill="black" stroke="black" points="876.63,-237.5 886.63,-234 876.63,-230.5 876.63,-237.5"/>
</g>
<!-- 5 -->
<!-- name: &quot;float&quot;, typeName: &quot;&quot;, id: 5, branchId: 0, recurseId: &#45;1, attributes: 512, notes: &quot;&quot; -->
<g id="node6" class="node">
<title>5</title>
<ellipse fill="none" stroke="black" cx="916.23" cy="-180" rx="27.81" ry="18"/>
<text xml:space="preserve" text-anchor="middle" x="916.23" y="-174.95" font-family="Times New Roman,serif" font-size="14.00">float</text>
</g>
<!-- 4&#45;&gt;5 -->
<g id="edge5" class="edge">
<title>4&#45;&gt;5</title>
<path fill="none" stroke="black" d="M787.09,-180C811.7,-180 848.82,-180 876.79,-180"/>
<polygon fill="black" stroke="black" points="876.63,-183.5 886.63,-180 876.63,-176.5 876.63,-183.5"/>
</g>
<!-- 7 -->
<!-- name: &quot;float&quot;, typeName: &quot;&quot;, id: 7, branchId: 0, recurseId: &#45;1, attributes: 512, notes: &quot;&quot; -->
<g id="node8" class="node">
<title>7</title>
<ellipse fill="none" stroke="black" cx="916.23" cy="-126" rx="27.81" ry="18"/>
<text xml:space="preserve" text-anchor="middle" x="916.23" y="-120.95" font-family="Times New Roman,serif" font-size="14.00">float</text>
</g>
<!-- 6&#45;&gt;7 -->
<g id="edge7" class="edge">
<title>6&#45;&gt;7</title>
<path fill="none" stroke="black" d="M787.09,-126C811.7,-126 848.82,-126 876.79,-126"/>
<polygon fill="black" stroke="black" points="876.63,-129.5 886.63,-126 876.63,-122.5 876.63,-129.5"/>
</g>
<!-- 9 -->
<!-- name: &quot;float&quot;, typeName: &quot;&quot;, id: 9, branchId: 0, recurseId: &#45;1, attributes: 512, notes: &quot;&quot; -->
<g id="node10" class="node">
<title>9</title>
<ellipse fill="none" stroke="black" cx="916.23" cy="-72" rx="27.81" ry="18"/>
<text xml:space="preserve" text-anchor="middle" x="916.23" y="-66.95" font-family="Times New Roman,serif" font-size="14.00">float</text>
</g>
<!-- 8&#45;&gt;9 -->
<g id="edge9" class="edge">
<title>8&#45;&gt;9</title>
<path fill="none" stroke="black" d="M671.55,-72C734.78,-72 825.79,-72 876.81,-72"/>
<polygon fill="black" stroke="black" points="876.76,-75.5 886.76,-72 876.76,-68.5 876.76,-75.5"/>
</g>
<!-- 11 -->
<!-- name: &quot;enum easing_function&quot;, typeName: &quot;&quot;, id: 11, branchId: 0, recurseId: &#45;1, attributes: 512, notes: &quot;&quot; -->
<g id="node12" class="node">
<title>11</title>
<ellipse fill="none" stroke="black" cx="916.23" cy="-18" rx="93.32" ry="18"/>
<text xml:space="preserve" text-anchor="middle" x="916.23" y="-12.95" font-family="Times New Roman,serif" font-size="14.00">enum easing_function</text>
</g>
<!-- 10&#45;&gt;11 -->
<g id="edge11" class="edge">
<title>10&#45;&gt;11</title>
<path fill="none" stroke="black" d="M697.28,-18C733.33,-18 774.52,-18 811.32,-18"/>
<polygon fill="black" stroke="black" points="811.08,-21.5 821.08,-18 811.08,-14.5 811.08,-21.5"/>
</g>
</g>
</svg>
