<?xml version="1.0" encoding="UTF-8" standalone="no"?>
<!DOCTYPE svg PUBLIC "-//W3C//DTD SVG 1.1//EN"
 "http://www.w3.org/Graphics/SVG/1.1/DTD/svg11.dtd">
<!-- Generated by graphviz version 2.46.1 (20210213.1702)
 -->
<!-- Title: CameraPresetsPacket Pages: 1 -->
<svg width="523pt" height="44pt"
 viewBox="0.00 0.00 523.26 44.00" xmlns="http://www.w3.org/2000/svg" xmlns:xlink="http://www.w3.org/1999/xlink">
<g id="graph0" class="graph" transform="scale(1 1) rotate(0) translate(4 40)">
<title>CameraPresetsPacket</title>
<polygon fill="white" stroke="transparent" points="-4,4 -4,-40 519.26,-40 519.26,4 -4,4"/>
<!-- 0 -->
<!-- name: &quot;CameraPresetsPacket&quot;, typeName: &quot;&quot;, id: 0, branchId: 198, recurseId: &#45;1, attributes: 0, notes: &quot;&quot; -->
<g id="node1" class="node">
<title>0</title>
<ellipse fill="none" stroke="black" cx="89.04" cy="-18" rx="89.08" ry="18"/>
<text text-anchor="middle" x="89.04" y="-14.3" font-family="Times New Roman,serif" font-size="14.00">CameraPresetsPacket</text>
</g>
<!-- 1 -->
<!-- name: &quot;Camera Presets&quot;, typeName: &quot;CameraPresets&quot;, id: 1, branchId: 0, recurseId: &#45;1, attributes: 256, notes: &quot;&quot; -->
<g id="node2" class="node">
<title>1</title>
<ellipse fill="none" stroke="black" cx="281.68" cy="-18" rx="67.69" ry="18"/>
<text text-anchor="middle" x="281.68" y="-14.3" font-family="Times New Roman,serif" font-size="14.00">Camera Presets</text>
</g>
<!-- 0&#45;&gt;1 -->
<g id="edge1" class="edge">
<title>0&#45;&gt;1</title>
<path fill="none" stroke="black" d="M178.11,-18C186.71,-18 195.39,-18 203.86,-18"/>
<polygon fill="black" stroke="black" points="204.08,-21.5 214.08,-18 204.08,-14.5 204.08,-21.5"/>
</g>
<!-- 37 -->
<!-- name: &quot;CameraPresets&quot;, typeName: &quot;&quot;, id: 37, branchId: 0, recurseId: &#45;1, attributes: 512, notes: &quot;&quot; -->
<g id="node3" class="node">
<title>37</title>
<ellipse fill="none" stroke="black" cx="450.27" cy="-18" rx="64.99" ry="18"/>
<text text-anchor="middle" x="450.27" y="-14.3" font-family="Times New Roman,serif" font-size="14.00">CameraPresets</text>
</g>
<!-- 1&#45;&gt;37 -->
<g id="edge2" class="edge">
<title>1&#45;&gt;37</title>
<path fill="none" stroke="black" d="M349.48,-18C357.84,-18 366.44,-18 374.91,-18"/>
<polygon fill="black" stroke="black" points="375.16,-21.5 385.16,-18 375.16,-14.5 375.16,-21.5"/>
</g>
</g>
</svg>
