<?xml version="1.0" encoding="UTF-8" standalone="no"?>
<!DOCTYPE svg PUBLIC "-//W3C//DTD SVG 1.1//EN"
 "http://www.w3.org/Graphics/SVG/1.1/DTD/svg11.dtd">
<!-- Generated by graphviz version 13.1.2 (20250808.2320)
 -->
<!-- Title: CameraAimAssistPacket Pages: 1 -->
<svg width="998pt" height="368pt"
 viewBox="0.00 0.00 998.00 368.00" xmlns="http://www.w3.org/2000/svg" xmlns:xlink="http://www.w3.org/1999/xlink">
<g id="graph0" class="graph" transform="scale(1 1) rotate(0) translate(4 364)">
<title>CameraAimAssistPacket</title>
<polygon fill="white" stroke="none" points="-4,4 -4,-364 993.67,-364 993.67,4 -4,4"/>
<!-- 0 -->
<!-- name: &quot;CameraAimAssistPacket&quot;, typeName: &quot;&quot;, id: 0, branchId: 0, recurseId: &#45;1, attributes: 0, notes: &quot;CameraAimAssist&quot; -->
<g id="node1" class="node">
<title>0</title>
<ellipse fill="none" stroke="black" cx="104.07" cy="-153" rx="104.07" ry="18"/>
<text xml:space="preserve" text-anchor="middle" x="104.07" y="-147.95" font-family="Times New Roman,serif" font-size="14.00">CameraAimAssistPacket</text>
</g>
<!-- 1 -->
<!-- name: &quot;Preset Id&quot;, typeName: &quot;&quot;, id: 1, branchId: 0, recurseId: &#45;1, attributes: 0, notes: &quot;&quot; -->
<g id="node2" class="node">
<title>1</title>
<ellipse fill="none" stroke="black" cx="500.21" cy="-342" rx="43.67" ry="18"/>
<text xml:space="preserve" text-anchor="middle" x="500.21" y="-336.95" font-family="Times New Roman,serif" font-size="14.00">Preset Id</text>
</g>
<!-- 0&#45;&gt;1 -->
<g id="edge1" class="edge">
<title>0&#45;&gt;1</title>
<path fill="none" stroke="black" d="M123.8,-171.12C149.18,-194.78 196.78,-236.11 244.14,-261 311.19,-296.24 396.29,-319.45 449.26,-331.66"/>
<polygon fill="black" stroke="black" points="448.38,-335.04 458.9,-333.83 449.92,-328.22 448.38,-335.04"/>
</g>
<!-- 3 -->
<!-- name: &quot;View Angle&quot;, typeName: &quot;&quot;, id: 3, branchId: 0, recurseId: &#45;1, attributes: 0, notes: &quot;&quot; -->
<g id="node4" class="node">
<title>3</title>
<ellipse fill="none" stroke="black" cx="332.34" cy="-234" rx="54.93" ry="18"/>
<text xml:space="preserve" text-anchor="middle" x="332.34" y="-228.95" font-family="Times New Roman,serif" font-size="14.00">View Angle</text>
</g>
<!-- 0&#45;&gt;3 -->
<g id="edge3" class="edge">
<title>0&#45;&gt;3</title>
<path fill="none" stroke="black" d="M146.17,-169.83C173.7,-180.89 210.87,-195.41 244.14,-207 255.48,-210.95 267.74,-214.93 279.4,-218.57"/>
<polygon fill="black" stroke="black" points="278.3,-221.9 288.88,-221.5 280.36,-215.21 278.3,-221.9"/>
</g>
<!-- 8 -->
<!-- name: &quot;Distance&quot;, typeName: &quot;&quot;, id: 8, branchId: 0, recurseId: &#45;1, attributes: 0, notes: &quot;&quot; -->
<g id="node9" class="node">
<title>8</title>
<ellipse fill="none" stroke="black" cx="332.34" cy="-180" rx="43.16" ry="18"/>
<text xml:space="preserve" text-anchor="middle" x="332.34" y="-174.95" font-family="Times New Roman,serif" font-size="14.00">Distance</text>
</g>
<!-- 0&#45;&gt;8 -->
<g id="edge8" class="edge">
<title>0&#45;&gt;8</title>
<path fill="none" stroke="black" d="M190.93,-163.25C220.66,-166.79 253.07,-170.66 279.24,-173.78"/>
<polygon fill="black" stroke="black" points="278.58,-177.23 288.93,-174.94 279.41,-170.28 278.58,-177.23"/>
</g>
<!-- 10 -->
<!-- name: &quot;Target Mode&quot;, typeName: &quot;&quot;, id: 10, branchId: 0, recurseId: &#45;1, attributes: 0, notes: &quot;&quot; -->
<g id="node11" class="node">
<title>10</title>
<ellipse fill="none" stroke="black" cx="332.34" cy="-126" rx="59.03" ry="18"/>
<text xml:space="preserve" text-anchor="middle" x="332.34" y="-120.95" font-family="Times New Roman,serif" font-size="14.00">Target Mode</text>
</g>
<!-- 0&#45;&gt;10 -->
<g id="edge10" class="edge">
<title>0&#45;&gt;10</title>
<path fill="none" stroke="black" d="M190.93,-142.75C215.64,-139.81 242.2,-136.64 265.49,-133.86"/>
<polygon fill="black" stroke="black" points="265.63,-137.37 275.14,-132.71 264.8,-130.42 265.63,-137.37"/>
</g>
<!-- 12 -->
<!-- name: &quot;Action&quot;, typeName: &quot;&quot;, id: 12, branchId: 0, recurseId: &#45;1, attributes: 0, notes: &quot;&quot; -->
<g id="node13" class="node">
<title>12</title>
<ellipse fill="none" stroke="black" cx="500.21" cy="-74" rx="36" ry="18"/>
<text xml:space="preserve" text-anchor="middle" x="500.21" y="-68.95" font-family="Times New Roman,serif" font-size="14.00">Action</text>
</g>
<!-- 0&#45;&gt;12 -->
<g id="edge12" class="edge">
<title>0&#45;&gt;12</title>
<path fill="none" stroke="black" d="M141.38,-135.74C168.94,-123.43 208.11,-107.59 244.14,-99 315.61,-81.96 401.01,-76.5 452.63,-74.77"/>
<polygon fill="black" stroke="black" points="452.66,-78.27 462.55,-74.48 452.45,-71.28 452.66,-78.27"/>
</g>
<!-- 14 -->
<!-- name: &quot;Show Debug Render&quot;, typeName: &quot;&quot;, id: 14, branchId: 0, recurseId: &#45;1, attributes: 0, notes: &quot;&quot; -->
<g id="node15" class="node">
<title>14</title>
<ellipse fill="none" stroke="black" cx="332.34" cy="-24" rx="88.2" ry="18"/>
<text xml:space="preserve" text-anchor="middle" x="332.34" y="-18.95" font-family="Times New Roman,serif" font-size="14.00">Show Debug Render</text>
</g>
<!-- 0&#45;&gt;14 -->
<g id="edge14" class="edge">
<title>0&#45;&gt;14</title>
<path fill="none" stroke="black" d="M130.56,-135.16C157.96,-116.35 203.12,-86.39 244.14,-64 256.24,-57.39 269.64,-50.87 282.23,-45.08"/>
<polygon fill="black" stroke="black" points="283.52,-48.33 291.19,-41.02 280.64,-41.96 283.52,-48.33"/>
</g>
<!-- 2 -->
<!-- name: &quot;string&quot;, typeName: &quot;&quot;, id: 2, branchId: 0, recurseId: &#45;1, attributes: 512, notes: &quot;&quot; -->
<g id="node3" class="node">
<title>2</title>
<ellipse fill="none" stroke="black" cx="784.78" cy="-342" rx="31.9" ry="18"/>
<text xml:space="preserve" text-anchor="middle" x="784.78" y="-336.95" font-family="Times New Roman,serif" font-size="14.00">string</text>
</g>
<!-- 1&#45;&gt;2 -->
<g id="edge2" class="edge">
<title>1&#45;&gt;2</title>
<path fill="none" stroke="black" d="M544.13,-342C597.52,-342 688.13,-342 741.31,-342"/>
<polygon fill="black" stroke="black" points="741.19,-345.5 751.19,-342 741.19,-338.5 741.19,-345.5"/>
</g>
<!-- 4 -->
<!-- name: &quot;X&quot;, typeName: &quot;&quot;, id: 4, branchId: 0, recurseId: &#45;1, attributes: 0, notes: &quot;&quot; -->
<g id="node5" class="node">
<title>4</title>
<ellipse fill="none" stroke="black" cx="500.21" cy="-288" rx="27" ry="18"/>
<text xml:space="preserve" text-anchor="middle" x="500.21" y="-282.95" font-family="Times New Roman,serif" font-size="14.00">X</text>
</g>
<!-- 3&#45;&gt;4 -->
<g id="edge4" class="edge">
<title>3&#45;&gt;4</title>
<path fill="none" stroke="black" d="M372.23,-246.66C400.21,-255.77 437.62,-267.95 464.58,-276.73"/>
<polygon fill="black" stroke="black" points="463.41,-280.02 474,-279.79 465.57,-273.37 463.41,-280.02"/>
</g>
<!-- 6 -->
<!-- name: &quot;Y&quot;, typeName: &quot;&quot;, id: 6, branchId: 0, recurseId: &#45;1, attributes: 0, notes: &quot;&quot; -->
<g id="node7" class="node">
<title>6</title>
<ellipse fill="none" stroke="black" cx="500.21" cy="-234" rx="27" ry="18"/>
<text xml:space="preserve" text-anchor="middle" x="500.21" y="-228.95" font-family="Times New Roman,serif" font-size="14.00">Y</text>
</g>
<!-- 3&#45;&gt;6 -->
<g id="edge6" class="edge">
<title>3&#45;&gt;6</title>
<path fill="none" stroke="black" d="M387.65,-234C411.89,-234 439.84,-234 461.7,-234"/>
<polygon fill="black" stroke="black" points="461.64,-237.5 471.64,-234 461.64,-230.5 461.64,-237.5"/>
</g>
<!-- 5 -->
<!-- name: &quot;float&quot;, typeName: &quot;&quot;, id: 5, branchId: 0, recurseId: &#45;1, attributes: 512, notes: &quot;&quot; -->
<g id="node6" class="node">
<title>5</title>
<ellipse fill="none" stroke="black" cx="784.78" cy="-288" rx="27.81" ry="18"/>
<text xml:space="preserve" text-anchor="middle" x="784.78" y="-282.95" font-family="Times New Roman,serif" font-size="14.00">float</text>
</g>
<!-- 4&#45;&gt;5 -->
<g id="edge5" class="edge">
<title>4&#45;&gt;5</title>
<path fill="none" stroke="black" d="M527.54,-288C577.66,-288 686.96,-288 745.29,-288"/>
<polygon fill="black" stroke="black" points="745.07,-291.5 755.07,-288 745.07,-284.5 745.07,-291.5"/>
</g>
<!-- 7 -->
<!-- name: &quot;float&quot;, typeName: &quot;&quot;, id: 7, branchId: 0, recurseId: &#45;1, attributes: 512, notes: &quot;&quot; -->
<g id="node8" class="node">
<title>7</title>
<ellipse fill="none" stroke="black" cx="784.78" cy="-234" rx="27.81" ry="18"/>
<text xml:space="preserve" text-anchor="middle" x="784.78" y="-228.95" font-family="Times New Roman,serif" font-size="14.00">float</text>
</g>
<!-- 6&#45;&gt;7 -->
<g id="edge7" class="edge">
<title>6&#45;&gt;7</title>
<path fill="none" stroke="black" d="M527.54,-234C577.66,-234 686.96,-234 745.29,-234"/>
<polygon fill="black" stroke="black" points="745.07,-237.5 755.07,-234 745.07,-230.5 745.07,-237.5"/>
</g>
<!-- 9 -->
<!-- name: &quot;float&quot;, typeName: &quot;&quot;, id: 9, branchId: 0, recurseId: &#45;1, attributes: 512, notes: &quot;&quot; -->
<g id="node10" class="node">
<title>9</title>
<ellipse fill="none" stroke="black" cx="784.78" cy="-180" rx="27.81" ry="18"/>
<text xml:space="preserve" text-anchor="middle" x="784.78" y="-174.95" font-family="Times New Roman,serif" font-size="14.00">float</text>
</g>
<!-- 8&#45;&gt;9 -->
<g id="edge9" class="edge">
<title>8&#45;&gt;9</title>
<path fill="none" stroke="black" d="M375.71,-180C462.95,-180 661.45,-180 745.28,-180"/>
<polygon fill="black" stroke="black" points="745.04,-183.5 755.04,-180 745.04,-176.5 745.04,-183.5"/>
</g>
<!-- 11 -->
<!-- name: &quot;enum CameraAimAssistPacketPayload TargetMode&quot;, typeName: &quot;&quot;, id: 11, branchId: 0, recurseId: &#45;1, attributes: 512, notes: &quot;&quot; -->
<g id="node12" class="node">
<title>11</title>
<ellipse fill="none" stroke="black" cx="784.78" cy="-126" rx="204.89" ry="18"/>
<text xml:space="preserve" text-anchor="middle" x="784.78" y="-120.95" font-family="Times New Roman,serif" font-size="14.00">enum CameraAimAssistPacketPayload TargetMode</text>
</g>
<!-- 10&#45;&gt;11 -->
<g id="edge11" class="edge">
<title>10&#45;&gt;11</title>
<path fill="none" stroke="black" d="M391.76,-126C437.22,-126 503.3,-126 568.29,-126"/>
<polygon fill="black" stroke="black" points="568.04,-129.5 578.04,-126 568.04,-122.5 568.04,-129.5"/>
</g>
<!-- 13 -->
<!-- name: &quot;enum CameraAimAssistPacketPayload Action&quot;, typeName: &quot;&quot;, id: 13, branchId: 0, recurseId: &#45;1, attributes: 512, notes: &quot;&quot; -->
<g id="node14" class="node">
<title>13</title>
<ellipse fill="none" stroke="black" cx="784.78" cy="-72" rx="184.42" ry="18"/>
<text xml:space="preserve" text-anchor="middle" x="784.78" y="-66.95" font-family="Times New Roman,serif" font-size="14.00">enum CameraAimAssistPacketPayload Action</text>
</g>
<!-- 12&#45;&gt;13 -->
<g id="edge13" class="edge">
<title>12&#45;&gt;13</title>
<path fill="none" stroke="black" d="M536.43,-73.75C551.03,-73.65 569.19,-73.52 588.99,-73.38"/>
<polygon fill="black" stroke="black" points="589,-76.88 598.98,-73.31 588.95,-69.88 589,-76.88"/>
</g>
<!-- 15 -->
<!-- name: &quot;bool&quot;, typeName: &quot;&quot;, id: 15, branchId: 0, recurseId: &#45;1, attributes: 512, notes: &quot;&quot; -->
<g id="node16" class="node">
<title>15</title>
<ellipse fill="none" stroke="black" cx="784.78" cy="-18" rx="27.3" ry="18"/>
<text xml:space="preserve" text-anchor="middle" x="784.78" y="-12.95" font-family="Times New Roman,serif" font-size="14.00">bool</text>
</g>
<!-- 14&#45;&gt;15 -->
<g id="edge15" class="edge">
<title>14&#45;&gt;15</title>
<path fill="none" stroke="black" d="M420.72,-22.84C519.15,-21.52 674.66,-19.45 745.89,-18.5"/>
<polygon fill="black" stroke="black" points="745.91,-22 755.86,-18.37 745.81,-15.01 745.91,-22"/>
</g>
</g>
</svg>
