<?xml version="1.0" encoding="UTF-8" standalone="no"?>
<!DOCTYPE svg PUBLIC "-//W3C//DTD SVG 1.1//EN"
 "http://www.w3.org/Graphics/SVG/1.1/DTD/svg11.dtd">
<!-- Generated by graphviz version 12.2.1 (20241206.2353)
 -->
<!-- Title: CameraPresetsPacket Pages: 1 -->
<svg width="531pt" height="44pt"
 viewBox="0.00 0.00 531.41 44.00" xmlns="http://www.w3.org/2000/svg" xmlns:xlink="http://www.w3.org/1999/xlink">
<g id="graph0" class="graph" transform="scale(1 1) rotate(0) translate(4 40)">
<title>CameraPresetsPacket</title>
<polygon fill="white" stroke="none" points="-4,4 -4,-40 527.41,-40 527.41,4 -4,4"/>
<!-- 0 -->
<!-- name: &quot;CameraPresetsPacket&quot;, typeName: &quot;&quot;, id: 0, branchId: 198, recurseId: &#45;1, attributes: 0, notes: &quot;&quot; -->
<g id="node1" class="node">
<title>0</title>
<ellipse fill="none" stroke="black" cx="90.76" cy="-18" rx="90.76" ry="18"/>
<text text-anchor="middle" x="90.76" y="-12.95" font-family="Times New Roman,serif" font-size="14.00">CameraPresetsPacket</text>
</g>
<!-- 1 -->
<!-- name: &quot;Camera Presets&quot;, typeName: &quot;CameraPresets&quot;, id: 1, branchId: 0, recurseId: &#45;1, attributes: 256, notes: &quot;&quot; -->
<g id="node2" class="node">
<title>1</title>
<ellipse fill="none" stroke="black" cx="286.27" cy="-18" rx="68.75" ry="18"/>
<text text-anchor="middle" x="286.27" y="-12.95" font-family="Times New Roman,serif" font-size="14.00">Camera Presets</text>
</g>
<!-- 0&#45;&gt;1 -->
<g id="edge1" class="edge">
<title>0&#45;&gt;1</title>
<path fill="none" stroke="black" d="M182,-18C189.95,-18 197.95,-18 205.8,-18"/>
<polygon fill="black" stroke="black" points="205.64,-21.5 215.64,-18 205.64,-14.5 205.64,-21.5"/>
</g>
<!-- 99 -->
<!-- name: &quot;CameraPresets&quot;, typeName: &quot;&quot;, id: 99, branchId: 0, recurseId: &#45;1, attributes: 512, notes: &quot;&quot; -->
<g id="node3" class="node">
<title>99</title>
<ellipse fill="none" stroke="black" cx="457.22" cy="-18" rx="66.19" ry="18"/>
<text text-anchor="middle" x="457.22" y="-12.95" font-family="Times New Roman,serif" font-size="14.00">CameraPresets</text>
</g>
<!-- 1&#45;&gt;99 -->
<g id="edge2" class="edge">
<title>1&#45;&gt;99</title>
<path fill="none" stroke="black" d="M355.5,-18C363.32,-18 371.33,-18 379.24,-18"/>
<polygon fill="black" stroke="black" points="379.24,-21.5 389.24,-18 379.24,-14.5 379.24,-21.5"/>
</g>
</g>
</svg>
