<?xml version="1.0" encoding="UTF-8" standalone="no"?>
<!DOCTYPE svg PUBLIC "-//W3C//DTD SVG 1.1//EN"
 "http://www.w3.org/Graphics/SVG/1.1/DTD/svg11.dtd">
<!-- Generated by graphviz version 11.0.0 (20240428.1522)
 -->
<!-- Title: CameraInstruction Pages: 1 -->
<svg width="823pt" height="260pt"
 viewBox="0.00 0.00 822.51 260.00" xmlns="http://www.w3.org/2000/svg" xmlns:xlink="http://www.w3.org/1999/xlink">
<g id="graph0" class="graph" transform="scale(1 1) rotate(0) translate(4 256)">
<title>CameraInstruction</title>
<polygon fill="white" stroke="none" points="-4,4 -4,-256 818.51,-256 818.51,4 -4,4"/>
<!-- 2 -->
<!-- name: &quot;CameraInstruction&quot;, typeName: &quot;&quot;, id: 2, branchId: 0, recurseId: &#45;1, attributes: 0, notes: &quot;&quot; -->
<g id="node1" class="node">
<title>2</title>
<ellipse fill="none" stroke="black" cx="79.01" cy="-126" rx="79.01" ry="18"/>
<text text-anchor="middle" x="79.01" y="-120.58" font-family="Times New Roman,serif" font-size="14.00">CameraInstruction</text>
</g>
<!-- 3 -->
<!-- name: &quot;Set&quot;, typeName: &quot;std::optional&lt;struct CameraInstruction::SetInstruction&gt;&quot;, id: 3, branchId: 0, recurseId: &#45;1, attributes: 256, notes: &quot;&quot; -->
<g id="node2" class="node">
<title>3</title>
<ellipse fill="none" stroke="black" cx="259.55" cy="-234" rx="27" ry="18"/>
<text text-anchor="middle" x="259.55" y="-228.57" font-family="Times New Roman,serif" font-size="14.00">Set</text>
</g>
<!-- 2&#45;&gt;3 -->
<g id="edge1" class="edge">
<title>2&#45;&gt;3</title>
<path fill="none" stroke="black" d="M101.75,-143.67C124.01,-161.21 160.05,-188.14 194.02,-207 203.68,-212.37 214.64,-217.34 224.74,-221.51"/>
<polygon fill="black" stroke="black" points="223.28,-224.69 233.87,-225.14 225.87,-218.19 223.28,-224.69"/>
</g>
<!-- 8 -->
<!-- name: &quot;Clear&quot;, typeName: &quot;std::optional&lt;bool&gt;&quot;, id: 8, branchId: 0, recurseId: &#45;1, attributes: 256, notes: &quot;&quot; -->
<g id="node4" class="node">
<title>8</title>
<ellipse fill="none" stroke="black" cx="259.55" cy="-180" rx="30.11" ry="18"/>
<text text-anchor="middle" x="259.55" y="-174.57" font-family="Times New Roman,serif" font-size="14.00">Clear</text>
</g>
<!-- 2&#45;&gt;8 -->
<g id="edge3" class="edge">
<title>2&#45;&gt;8</title>
<path fill="none" stroke="black" d="M127.85,-140.47C157.14,-149.33 194.06,-160.5 221.19,-168.7"/>
<polygon fill="black" stroke="black" points="220.13,-172.04 230.71,-171.58 222.16,-165.34 220.13,-172.04"/>
</g>
<!-- 10 -->
<!-- name: &quot;Fade&quot;, typeName: &quot;std::optional&lt;struct CameraInstruction::FadeInstruction&gt;&quot;, id: 10, branchId: 0, recurseId: &#45;1, attributes: 256, notes: &quot;&quot; -->
<g id="node6" class="node">
<title>10</title>
<ellipse fill="none" stroke="black" cx="259.55" cy="-126" rx="29.11" ry="18"/>
<text text-anchor="middle" x="259.55" y="-120.58" font-family="Times New Roman,serif" font-size="14.00">Fade</text>
</g>
<!-- 2&#45;&gt;10 -->
<g id="edge5" class="edge">
<title>2&#45;&gt;10</title>
<path fill="none" stroke="black" d="M158.32,-126C179.28,-126 201.06,-126 218.94,-126"/>
<polygon fill="black" stroke="black" points="218.84,-129.5 228.84,-126 218.84,-122.5 218.84,-129.5"/>
</g>
<!-- 15 -->
<!-- name: &quot;Target&quot;, typeName: &quot;std::optional&lt;struct CameraInstruction::TargetInstruction&gt;&quot;, id: 15, branchId: 0, recurseId: &#45;1, attributes: 256, notes: &quot;&quot; -->
<g id="node8" class="node">
<title>15</title>
<ellipse fill="none" stroke="black" cx="259.55" cy="-72" rx="34.6" ry="18"/>
<text text-anchor="middle" x="259.55" y="-66.58" font-family="Times New Roman,serif" font-size="14.00">Target</text>
</g>
<!-- 2&#45;&gt;15 -->
<g id="edge7" class="edge">
<title>2&#45;&gt;15</title>
<path fill="none" stroke="black" d="M127.85,-111.53C156.05,-103 191.34,-92.33 218.14,-84.22"/>
<polygon fill="black" stroke="black" points="219.05,-87.6 227.61,-81.36 217.02,-80.9 219.05,-87.6"/>
</g>
<!-- 20 -->
<!-- name: &quot;RemoveTarget&quot;, typeName: &quot;std::optional&lt;bool&gt;&quot;, id: 20, branchId: 0, recurseId: &#45;1, attributes: 256, notes: &quot;&quot; -->
<g id="node10" class="node">
<title>20</title>
<ellipse fill="none" stroke="black" cx="259.55" cy="-18" rx="65.53" ry="18"/>
<text text-anchor="middle" x="259.55" y="-12.57" font-family="Times New Roman,serif" font-size="14.00">RemoveTarget</text>
</g>
<!-- 2&#45;&gt;20 -->
<g id="edge9" class="edge">
<title>2&#45;&gt;20</title>
<path fill="none" stroke="black" d="M101.75,-108.33C124.01,-90.79 160.05,-63.86 194.02,-45 198.93,-42.27 204.18,-39.64 209.48,-37.17"/>
<polygon fill="black" stroke="black" points="210.58,-40.52 218.29,-33.24 207.73,-34.12 210.58,-40.52"/>
</g>
<!-- 7 -->
<!-- name: &quot;std::optional&lt;struct CameraInstruction::SetInstruction&gt;&quot;, typeName: &quot;&quot;, id: 7, branchId: 0, recurseId: &#45;1, attributes: 512, notes: &quot;&quot; -->
<g id="node3" class="node">
<title>7</title>
<ellipse fill="none" stroke="black" cx="587.8" cy="-234" rx="214.73" ry="18"/>
<text text-anchor="middle" x="587.8" y="-228.57" font-family="Times New Roman,serif" font-size="14.00">std::optional&lt;struct CameraInstruction::SetInstruction&gt;</text>
</g>
<!-- 3&#45;&gt;7 -->
<g id="edge2" class="edge">
<title>3&#45;&gt;7</title>
<path fill="none" stroke="black" d="M286.97,-234C305.27,-234 331.57,-234 361.11,-234"/>
<polygon fill="black" stroke="black" points="361.06,-237.5 371.06,-234 361.06,-230.5 361.06,-237.5"/>
</g>
<!-- 9 -->
<!-- name: &quot;std::optional&lt;bool&gt;&quot;, typeName: &quot;&quot;, id: 9, branchId: 0, recurseId: &#45;1, attributes: 512, notes: &quot;&quot; -->
<g id="node5" class="node">
<title>9</title>
<ellipse fill="none" stroke="black" cx="587.8" cy="-180" rx="84" ry="18"/>
<text text-anchor="middle" x="587.8" y="-174.57" font-family="Times New Roman,serif" font-size="14.00">std::optional&lt;bool&gt;</text>
</g>
<!-- 8&#45;&gt;9 -->
<g id="edge4" class="edge">
<title>8&#45;&gt;9</title>
<path fill="none" stroke="black" d="M290.08,-180C335.32,-180 423.76,-180 492.36,-180"/>
<polygon fill="black" stroke="black" points="492.11,-183.5 502.11,-180 492.11,-176.5 492.11,-183.5"/>
</g>
<!-- 14 -->
<!-- name: &quot;std::optional&lt;struct CameraInstruction::FadeInstruction&gt;&quot;, typeName: &quot;&quot;, id: 14, branchId: 0, recurseId: &#45;1, attributes: 512, notes: &quot;&quot; -->
<g id="node7" class="node">
<title>14</title>
<ellipse fill="none" stroke="black" cx="587.8" cy="-126" rx="221.22" ry="18"/>
<text text-anchor="middle" x="587.8" y="-120.58" font-family="Times New Roman,serif" font-size="14.00">std::optional&lt;struct CameraInstruction::FadeInstruction&gt;</text>
</g>
<!-- 10&#45;&gt;14 -->
<g id="edge6" class="edge">
<title>10&#45;&gt;14</title>
<path fill="none" stroke="black" d="M288.93,-126C305.82,-126 329.01,-126 355.05,-126"/>
<polygon fill="black" stroke="black" points="354.86,-129.5 364.86,-126 354.86,-122.5 354.86,-129.5"/>
</g>
<!-- 19 -->
<!-- name: &quot;std::optional&lt;struct CameraInstruction::TargetInstruction&gt;&quot;, typeName: &quot;&quot;, id: 19, branchId: 0, recurseId: &#45;1, attributes: 512, notes: &quot;&quot; -->
<g id="node9" class="node">
<title>19</title>
<ellipse fill="none" stroke="black" cx="587.8" cy="-72" rx="226.71" ry="18"/>
<text text-anchor="middle" x="587.8" y="-66.58" font-family="Times New Roman,serif" font-size="14.00">std::optional&lt;struct CameraInstruction::TargetInstruction&gt;</text>
</g>
<!-- 15&#45;&gt;19 -->
<g id="edge8" class="edge">
<title>15&#45;&gt;19</title>
<path fill="none" stroke="black" d="M294.54,-72C309.41,-72 328.25,-72 349.16,-72"/>
<polygon fill="black" stroke="black" points="349.12,-75.5 359.12,-72 349.12,-68.5 349.12,-75.5"/>
</g>
<!-- 21 -->
<!-- name: &quot;std::optional&lt;bool&gt;&quot;, typeName: &quot;&quot;, id: 21, branchId: 0, recurseId: &#45;1, attributes: 512, notes: &quot;&quot; -->
<g id="node11" class="node">
<title>21</title>
<ellipse fill="none" stroke="black" cx="587.8" cy="-18" rx="84" ry="18"/>
<text text-anchor="middle" x="587.8" y="-12.57" font-family="Times New Roman,serif" font-size="14.00">std::optional&lt;bool&gt;</text>
</g>
<!-- 20&#45;&gt;21 -->
<g id="edge10" class="edge">
<title>20&#45;&gt;21</title>
<path fill="none" stroke="black" d="M325.4,-18C373.1,-18 438.69,-18 492.24,-18"/>
<polygon fill="black" stroke="black" points="491.95,-21.5 501.95,-18 491.95,-14.5 491.95,-21.5"/>
</g>
</g>
</svg>
