<?xml version="1.0" encoding="UTF-8" standalone="no"?>
<!DOCTYPE svg PUBLIC "-//W3C//DTD SVG 1.1//EN"
 "http://www.w3.org/Graphics/SVG/1.1/DTD/svg11.dtd">
<!-- Generated by graphviz version 14.1.5 (20260411.2331)
 -->
<!-- Title: cerealizer&lt;NetworkItemStackDescriptor&gt;::SerializedData Pages: 1 -->
<svg width="1063pt" height="314pt"
 viewBox="0.00 0.00 1063.00 314.00" xmlns="http://www.w3.org/2000/svg" xmlns:xlink="http://www.w3.org/1999/xlink">
<g id="graph0" class="graph" transform="scale(1 1) rotate(0) translate(4 310)">
<title>cerealizer&lt;NetworkItemStackDescriptor&gt;::SerializedData</title>
<polygon fill="white" stroke="none" points="-4,4 -4,-310 1059.19,-310 1059.19,4 -4,4"/>
<!-- 0 -->
<!-- name: &quot;cerealizer&lt;NetworkItemStackDescriptor&gt;::SerializedData&quot;, typeName: &quot;&quot;, id: 0, branchId: 0, recurseId: &#45;1, attributes: 0, notes: &quot;&quot; -->
<g id="node1" class="node">
<title>0</title>
<ellipse fill="none" stroke="black" cx="226.39" cy="-153" rx="226.39" ry="18"/>
<text xml:space="preserve" text-anchor="middle" x="226.39" y="-147.95" font-family="Times New Roman,serif" font-size="14.00">cerealizer&lt;NetworkItemStackDescriptor&gt;::SerializedData</text>
</g>
<!-- 1 -->
<!-- name: &quot;Id&quot;, typeName: &quot;&quot;, id: 1, branchId: 0, recurseId: &#45;1, attributes: 0, notes: &quot;Send fixed Id of 0 for invalid item&quot; -->
<g id="node2" class="node">
<title>1</title>
<ellipse fill="none" stroke="black" cx="778.64" cy="-287" rx="27" ry="18"/>
<text xml:space="preserve" text-anchor="middle" x="778.64" y="-281.95" font-family="Times New Roman,serif" font-size="14.00">Id</text>
</g>
<!-- 0&#45;&gt;1 -->
<g id="edge1" class="edge">
<title>0&#45;&gt;1</title>
<path fill="none" stroke="black" d="M283.62,-170.85C336.3,-187.21 417.41,-211.49 488.78,-229 578.56,-251.02 685.55,-270.86 740.7,-280.62"/>
<polygon fill="black" stroke="black" points="740.03,-284.06 750.48,-282.34 741.24,-277.16 740.03,-284.06"/>
</g>
<!-- 3 -->
<!-- name: &quot;Stack size&quot;, typeName: &quot;&quot;, id: 3, branchId: 0, recurseId: &#45;1, attributes: 0, notes: &quot;The number of items in the stack. Must be within the item&#39;s allowed stack size range.&quot; -->
<g id="node4" class="node">
<title>3</title>
<ellipse fill="none" stroke="black" cx="778.64" cy="-232" rx="48.28" ry="18"/>
<text xml:space="preserve" text-anchor="middle" x="778.64" y="-226.95" font-family="Times New Roman,serif" font-size="14.00">Stack size</text>
</g>
<!-- 0&#45;&gt;3 -->
<g id="edge3" class="edge">
<title>0&#45;&gt;3</title>
<path fill="none" stroke="black" d="M300.22,-170.44C352.43,-182.35 424.59,-197.62 488.78,-207 568.16,-218.59 660.66,-225.44 719.17,-228.96"/>
<polygon fill="black" stroke="black" points="718.71,-232.44 728.9,-229.53 719.12,-225.45 718.71,-232.44"/>
</g>
<!-- 5 -->
<!-- name: &quot;Aux value&quot;, typeName: &quot;&quot;, id: 5, branchId: 0, recurseId: &#45;1, attributes: 0, notes: &quot;Item auxiliary/metadata value. Used to distinguish item variants. Ignored for block items where aux is always 0.&quot; -->
<g id="node6" class="node">
<title>5</title>
<ellipse fill="none" stroke="black" cx="563.67" cy="-180" rx="49.3" ry="18"/>
<text xml:space="preserve" text-anchor="middle" x="563.67" y="-174.95" font-family="Times New Roman,serif" font-size="14.00">Aux value</text>
</g>
<!-- 0&#45;&gt;5 -->
<g id="edge5" class="edge">
<title>0&#45;&gt;5</title>
<path fill="none" stroke="black" d="M388.16,-165.95C429.65,-169.29 471.71,-172.67 504.13,-175.29"/>
<polygon fill="black" stroke="black" points="503.43,-178.74 513.68,-176.05 503.99,-171.76 503.43,-178.74"/>
</g>
<!-- 7 -->
<!-- name: &quot;Net Id Variant&quot;, typeName: &quot;&quot;, id: 7, branchId: 0, recurseId: &#45;1, attributes: 0, notes: &quot;Optional network ID variant used to track item stack identity across client and server.&quot; -->
<g id="node8" class="node">
<title>7</title>
<ellipse fill="none" stroke="black" cx="563.67" cy="-126" rx="63.12" ry="18"/>
<text xml:space="preserve" text-anchor="middle" x="563.67" y="-120.95" font-family="Times New Roman,serif" font-size="14.00">Net Id Variant</text>
</g>
<!-- 0&#45;&gt;7 -->
<g id="edge7" class="edge">
<title>0&#45;&gt;7</title>
<path fill="none" stroke="black" d="M388.16,-140.05C424.37,-137.14 461.01,-134.19 491.31,-131.75"/>
<polygon fill="black" stroke="black" points="491.4,-135.25 501.09,-130.96 490.84,-128.27 491.4,-135.25"/>
</g>
<!-- 10 -->
<!-- name: &quot;Block Runtime Id&quot;, typeName: &quot;&quot;, id: 10, branchId: 0, recurseId: &#45;1, attributes: 0, notes: &quot;Runtime block state ID associated with this item when it represents a block. Used to identify the exact block state placed when the item is used.&quot; -->
<g id="node11" class="node">
<title>10</title>
<ellipse fill="none" stroke="black" cx="778.64" cy="-72" rx="77.97" ry="18"/>
<text xml:space="preserve" text-anchor="middle" x="778.64" y="-66.95" font-family="Times New Roman,serif" font-size="14.00">Block Runtime Id</text>
</g>
<!-- 0&#45;&gt;10 -->
<g id="edge10" class="edge">
<title>0&#45;&gt;10</title>
<path fill="none" stroke="black" d="M300.8,-135.57C352.98,-123.74 424.85,-108.56 488.78,-99 556.61,-88.85 634.01,-81.86 691.61,-77.54"/>
<polygon fill="black" stroke="black" points="691.63,-81.05 701.34,-76.82 691.11,-74.07 691.63,-81.05"/>
</g>
<!-- 12 -->
<!-- name: &quot;User Data Buffer&quot;, typeName: &quot;&quot;, id: 12, branchId: 0, recurseId: &#45;1, attributes: 0, notes: &quot;The @ItemInstanceUserData.html#ItemInstanceUserData@ &#160;binary blob encoded as a String, so it&#39;s unsigned varint length prefixed. Get all your nbt+property bytes, calculate the length, write that length, THEN write the data.&quot; -->
<g id="node13" class="node">
<title>12</title>
<ellipse fill="none" stroke="black" cx="563.67" cy="-26" rx="74.89" ry="18"/>
<text xml:space="preserve" text-anchor="middle" x="563.67" y="-20.95" font-family="Times New Roman,serif" font-size="14.00">User Data Buffer</text>
</g>
<!-- 0&#45;&gt;12 -->
<g id="edge12" class="edge">
<title>0&#45;&gt;12</title>
<path fill="none" stroke="black" d="M275.07,-134.94C337.62,-111.25 446.97,-69.83 511.3,-45.46"/>
<polygon fill="black" stroke="black" points="512.47,-48.76 520.58,-41.94 509.99,-42.21 512.47,-48.76"/>
</g>
<!-- 2 -->
<!-- name: &quot;short&quot;, typeName: &quot;&quot;, id: 2, branchId: 0, recurseId: &#45;1, attributes: 512, notes: &quot;Send fixed Id of 0 for invalid item&quot; -->
<g id="node3" class="node">
<title>2</title>
<ellipse fill="none" stroke="black" cx="986.95" cy="-288" rx="29.34" ry="18"/>
<text xml:space="preserve" text-anchor="middle" x="986.95" y="-282.95" font-family="Times New Roman,serif" font-size="14.00">short</text>
</g>
<!-- 1&#45;&gt;2 -->
<g id="edge2" class="edge">
<title>1&#45;&gt;2</title>
<path fill="none" stroke="black" d="M805.77,-287.13C841.17,-287.3 904.7,-287.61 946.08,-287.81"/>
<polygon fill="black" stroke="black" points="945.85,-291.31 955.87,-287.85 945.89,-284.31 945.85,-291.31"/>
</g>
<!-- 4 -->
<!-- name: &quot;unsigned short&quot;, typeName: &quot;&quot;, id: 4, branchId: 0, recurseId: &#45;1, attributes: 512, notes: &quot;The number of items in the stack. Must be within the item&#39;s allowed stack size range.&quot; -->
<g id="node5" class="node">
<title>4</title>
<ellipse fill="none" stroke="black" cx="986.95" cy="-234" rx="65.17" ry="18"/>
<text xml:space="preserve" text-anchor="middle" x="986.95" y="-228.95" font-family="Times New Roman,serif" font-size="14.00">unsigned short</text>
</g>
<!-- 3&#45;&gt;4 -->
<g id="edge4" class="edge">
<title>3&#45;&gt;4</title>
<path fill="none" stroke="black" d="M827.23,-232.46C851.81,-232.7 882.38,-233 910.12,-233.26"/>
<polygon fill="black" stroke="black" points="909.85,-236.76 919.89,-233.36 909.92,-229.76 909.85,-236.76"/>
</g>
<!-- 6 -->
<!-- name: &quot;unsigned varint&quot;, typeName: &quot;&quot;, id: 6, branchId: 0, recurseId: &#45;1, attributes: 512, notes: &quot;Item auxiliary/metadata value. Used to distinguish item variants. Ignored for block items where aux is always 0.&quot; -->
<g id="node7" class="node">
<title>6</title>
<ellipse fill="none" stroke="black" cx="986.95" cy="-180" rx="68.24" ry="18"/>
<text xml:space="preserve" text-anchor="middle" x="986.95" y="-174.95" font-family="Times New Roman,serif" font-size="14.00">unsigned varint</text>
</g>
<!-- 5&#45;&gt;6 -->
<g id="edge6" class="edge">
<title>5&#45;&gt;6</title>
<path fill="none" stroke="black" d="M613.41,-180C685.34,-180 820.68,-180 906.92,-180"/>
<polygon fill="black" stroke="black" points="906.72,-183.5 916.72,-180 906.72,-176.5 906.72,-183.5"/>
</g>
<!-- 8 -->
<!-- name: &quot;Item stack net ID variant&quot;, typeName: &quot;&quot;, id: 8, branchId: 0, recurseId: &#45;1, attributes: 0, notes: &quot;&quot; -->
<g id="node9" class="node">
<title>8</title>
<ellipse fill="none" stroke="black" cx="778.64" cy="-126" rx="104.07" ry="18"/>
<text xml:space="preserve" text-anchor="middle" x="778.64" y="-120.95" font-family="Times New Roman,serif" font-size="14.00">Item stack net ID variant</text>
</g>
<!-- 7&#45;&gt;8 -->
<g id="edge8" class="edge">
<title>7&#45;&gt;8</title>
<path fill="none" stroke="black" d="M627.13,-126C638.5,-126 650.68,-126 663.01,-126"/>
<polygon fill="black" stroke="black" points="662.84,-129.5 672.84,-126 662.84,-122.5 662.84,-129.5"/>
</g>
<!-- 9 -->
<!-- name: &quot;&quot;, typeName: &quot;&quot;, id: 9, branchId: 0, recurseId: &#45;1, attributes: 512, notes: &quot;&quot; -->
<g id="node10" class="node">
<title>9</title>
<ellipse fill="none" stroke="black" cx="986.95" cy="-126" rx="27" ry="18"/>
</g>
<!-- 8&#45;&gt;9 -->
<g id="edge9" class="edge">
<title>8&#45;&gt;9</title>
<path fill="none" stroke="black" d="M883.09,-126C906.35,-126 929.59,-126 948.08,-126"/>
<polygon fill="black" stroke="black" points="947.98,-129.5 957.98,-126 947.98,-122.5 947.98,-129.5"/>
</g>
<!-- 11 -->
<!-- name: &quot;unsigned varint&quot;, typeName: &quot;&quot;, id: 11, branchId: 0, recurseId: &#45;1, attributes: 512, notes: &quot;Runtime block state ID associated with this item when it represents a block. Used to identify the exact block state placed when the item is used.&quot; -->
<g id="node12" class="node">
<title>11</title>
<ellipse fill="none" stroke="black" cx="986.95" cy="-72" rx="68.24" ry="18"/>
<text xml:space="preserve" text-anchor="middle" x="986.95" y="-66.95" font-family="Times New Roman,serif" font-size="14.00">unsigned varint</text>
</g>
<!-- 10&#45;&gt;11 -->
<g id="edge11" class="edge">
<title>10&#45;&gt;11</title>
<path fill="none" stroke="black" d="M857.05,-72C873.4,-72 890.67,-72 907.07,-72"/>
<polygon fill="black" stroke="black" points="906.75,-75.5 916.75,-72 906.75,-68.5 906.75,-75.5"/>
</g>
<!-- 13 -->
<!-- name: &quot;string&quot;, typeName: &quot;&quot;, id: 13, branchId: 0, recurseId: &#45;1, attributes: 512, notes: &quot;The @ItemInstanceUserData.html#ItemInstanceUserData@ &#160;binary blob encoded as a String, so it&#39;s unsigned varint length prefixed. Get all your nbt+property bytes, calculate the length, write that length, THEN write the data.&quot; -->
<g id="node14" class="node">
<title>13</title>
<ellipse fill="none" stroke="black" cx="986.95" cy="-18" rx="31.9" ry="18"/>
<text xml:space="preserve" text-anchor="middle" x="986.95" y="-12.95" font-family="Times New Roman,serif" font-size="14.00">string</text>
</g>
<!-- 12&#45;&gt;13 -->
<g id="edge13" class="edge">
<title>12&#45;&gt;13</title>
<path fill="none" stroke="black" d="M638.54,-24.6C726.94,-22.92 871.98,-20.16 943.44,-18.81"/>
<polygon fill="black" stroke="black" points="943.22,-22.31 953.15,-18.62 943.09,-15.31 943.22,-22.31"/>
</g>
</g>
</svg>
