<?xml version="1.0" encoding="UTF-8" standalone="no"?>
<!DOCTYPE svg PUBLIC "-//W3C//DTD SVG 1.1//EN"
 "http://www.w3.org/Graphics/SVG/1.1/DTD/svg11.dtd">
<!-- Generated by graphviz version 9.0.0 (20230911.1827)
 -->
<!-- Title: ChangeMobPropertyPacket Pages: 1 -->
<svg width="644pt" height="314pt"
 viewBox="0.00 0.00 643.87 314.00" xmlns="http://www.w3.org/2000/svg" xmlns:xlink="http://www.w3.org/1999/xlink">
<g id="graph0" class="graph" transform="scale(1 1) rotate(0) translate(4 310)">
<title>ChangeMobPropertyPacket</title>
<polygon fill="white" stroke="none" points="-4,4 -4,-310 639.87,-310 639.87,4 -4,4"/>
<!-- 0 -->
<!-- name: &quot;ChangeMobPropertyPacket&quot;, typeName: &quot;&quot;, id: 0, branchId: 182, recurseId: &#45;1, attributes: 0, notes: &quot;&quot; -->
<g id="node1" class="node">
<title>0</title>
<ellipse fill="none" stroke="black" cx="113.94" cy="-153" rx="113.94" ry="18"/>
<text text-anchor="middle" x="113.94" y="-147.57" font-family="Times New Roman,serif" font-size="14.00">ChangeMobPropertyPacket</text>
</g>
<!-- 1 -->
<!-- name: &quot;Actor Id&quot;, typeName: &quot;ActorUniqueID&quot;, id: 1, branchId: 0, recurseId: &#45;1, attributes: 256, notes: &quot;&quot; -->
<g id="node2" class="node">
<title>1</title>
<ellipse fill="none" stroke="black" cx="363.84" cy="-288" rx="42.58" ry="18"/>
<text text-anchor="middle" x="363.84" y="-282.57" font-family="Times New Roman,serif" font-size="14.00">Actor Id</text>
</g>
<!-- 0&#45;&gt;1 -->
<g id="edge1" class="edge">
<title>0&#45;&gt;1</title>
<path fill="none" stroke="black" d="M134.63,-170.93C161.79,-194.77 213.18,-236.71 263.87,-261 279.4,-268.44 297.32,-274.11 313.6,-278.29"/>
<polygon fill="black" stroke="black" points="312.55,-281.64 323.1,-280.59 314.2,-274.83 312.55,-281.64"/>
</g>
<!-- 3 -->
<!-- name: &quot;Property Name&quot;, typeName: &quot;&quot;, id: 3, branchId: 0, recurseId: &#45;1, attributes: 0, notes: &quot;&quot; -->
<g id="node4" class="node">
<title>3</title>
<ellipse fill="none" stroke="black" cx="363.84" cy="-234" rx="67.03" ry="18"/>
<text text-anchor="middle" x="363.84" y="-228.57" font-family="Times New Roman,serif" font-size="14.00">Property Name</text>
</g>
<!-- 0&#45;&gt;3 -->
<g id="edge3" class="edge">
<title>0&#45;&gt;3</title>
<path fill="none" stroke="black" d="M158.61,-169.9C188.12,-181.05 228.09,-195.65 263.87,-207 276.54,-211.02 290.23,-214.99 303.27,-218.59"/>
<polygon fill="black" stroke="black" points="302.01,-221.88 312.57,-221.13 303.85,-215.12 302.01,-221.88"/>
</g>
<!-- 5 -->
<!-- name: &quot;BoolComponent Value&quot;, typeName: &quot;&quot;, id: 5, branchId: 0, recurseId: &#45;1, attributes: 0, notes: &quot;&quot; -->
<g id="node6" class="node">
<title>5</title>
<ellipse fill="none" stroke="black" cx="363.84" cy="-180" rx="95.97" ry="18"/>
<text text-anchor="middle" x="363.84" y="-174.57" font-family="Times New Roman,serif" font-size="14.00">BoolComponent Value</text>
</g>
<!-- 0&#45;&gt;5 -->
<g id="edge5" class="edge">
<title>0&#45;&gt;5</title>
<path fill="none" stroke="black" d="M209.01,-163.25C228.48,-165.37 248.99,-167.6 268.46,-169.72"/>
<polygon fill="black" stroke="black" points="267.97,-173.19 278.29,-170.79 268.73,-166.23 267.97,-173.19"/>
</g>
<!-- 7 -->
<!-- name: &quot;StringComponent Value&quot;, typeName: &quot;&quot;, id: 7, branchId: 0, recurseId: &#45;1, attributes: 0, notes: &quot;&quot; -->
<g id="node8" class="node">
<title>7</title>
<ellipse fill="none" stroke="black" cx="363.84" cy="-126" rx="99.97" ry="18"/>
<text text-anchor="middle" x="363.84" y="-120.58" font-family="Times New Roman,serif" font-size="14.00">StringComponent Value</text>
</g>
<!-- 0&#45;&gt;7 -->
<g id="edge7" class="edge">
<title>0&#45;&gt;7</title>
<path fill="none" stroke="black" d="M209.01,-142.75C227.7,-140.72 247.36,-138.58 266.13,-136.53"/>
<polygon fill="black" stroke="black" points="266.32,-140.03 275.88,-135.47 265.56,-133.07 266.32,-140.03"/>
</g>
<!-- 9 -->
<!-- name: &quot;IntComponent Value&quot;, typeName: &quot;&quot;, id: 9, branchId: 0, recurseId: &#45;1, attributes: 0, notes: &quot;&quot; -->
<g id="node10" class="node">
<title>9</title>
<ellipse fill="none" stroke="black" cx="363.84" cy="-72" rx="87.99" ry="18"/>
<text text-anchor="middle" x="363.84" y="-66.58" font-family="Times New Roman,serif" font-size="14.00">IntComponent Value</text>
</g>
<!-- 0&#45;&gt;9 -->
<g id="edge9" class="edge">
<title>0&#45;&gt;9</title>
<path fill="none" stroke="black" d="M158.61,-136.1C188.12,-124.95 228.09,-110.35 263.87,-99 274.44,-95.65 285.72,-92.33 296.74,-89.23"/>
<polygon fill="black" stroke="black" points="297.48,-92.66 306.18,-86.61 295.61,-85.91 297.48,-92.66"/>
</g>
<!-- 11 -->
<!-- name: &quot;FloatComponent Value&quot;, typeName: &quot;&quot;, id: 11, branchId: 0, recurseId: &#45;1, attributes: 0, notes: &quot;&quot; -->
<g id="node12" class="node">
<title>11</title>
<ellipse fill="none" stroke="black" cx="363.84" cy="-18" rx="96.97" ry="18"/>
<text text-anchor="middle" x="363.84" y="-12.57" font-family="Times New Roman,serif" font-size="14.00">FloatComponent Value</text>
</g>
<!-- 0&#45;&gt;11 -->
<g id="edge11" class="edge">
<title>0&#45;&gt;11</title>
<path fill="none" stroke="black" d="M134.63,-135.07C161.79,-111.23 213.18,-69.29 263.87,-45 271.52,-41.33 279.75,-38.1 288.08,-35.26"/>
<polygon fill="black" stroke="black" points="289.15,-38.59 297.6,-32.21 287.01,-31.93 289.15,-38.59"/>
</g>
<!-- 2 -->
<!-- name: &quot;ActorUniqueID&quot;, typeName: &quot;&quot;, id: 2, branchId: 0, recurseId: &#45;1, attributes: 512, notes: &quot;&quot; -->
<g id="node3" class="node">
<title>2</title>
<ellipse fill="none" stroke="black" cx="567.84" cy="-288" rx="68.03" ry="18"/>
<text text-anchor="middle" x="567.84" y="-282.57" font-family="Times New Roman,serif" font-size="14.00">ActorUniqueID</text>
</g>
<!-- 1&#45;&gt;2 -->
<g id="edge2" class="edge">
<title>1&#45;&gt;2</title>
<path fill="none" stroke="black" d="M406.69,-288C430.26,-288 460.45,-288 488.26,-288"/>
<polygon fill="black" stroke="black" points="488.08,-291.5 498.08,-288 488.08,-284.5 488.08,-291.5"/>
</g>
<!-- 4 -->
<!-- name: &quot;string&quot;, typeName: &quot;&quot;, id: 4, branchId: 0, recurseId: &#45;1, attributes: 512, notes: &quot;&quot; -->
<g id="node5" class="node">
<title>4</title>
<ellipse fill="none" stroke="black" cx="567.84" cy="-234" rx="31.1" ry="18"/>
<text text-anchor="middle" x="567.84" y="-228.57" font-family="Times New Roman,serif" font-size="14.00">string</text>
</g>
<!-- 3&#45;&gt;4 -->
<g id="edge4" class="edge">
<title>3&#45;&gt;4</title>
<path fill="none" stroke="black" d="M431.26,-234C462.11,-234 497.86,-234 524.9,-234"/>
<polygon fill="black" stroke="black" points="524.77,-237.5 534.77,-234 524.77,-230.5 524.77,-237.5"/>
</g>
<!-- 6 -->
<!-- name: &quot;bool&quot;, typeName: &quot;&quot;, id: 6, branchId: 0, recurseId: &#45;1, attributes: 512, notes: &quot;&quot; -->
<g id="node7" class="node">
<title>6</title>
<ellipse fill="none" stroke="black" cx="567.84" cy="-180" rx="27.61" ry="18"/>
<text text-anchor="middle" x="567.84" y="-174.57" font-family="Times New Roman,serif" font-size="14.00">bool</text>
</g>
<!-- 5&#45;&gt;6 -->
<g id="edge6" class="edge">
<title>5&#45;&gt;6</title>
<path fill="none" stroke="black" d="M460.22,-180C484.41,-180 509.04,-180 528.52,-180"/>
<polygon fill="black" stroke="black" points="528.42,-183.5 538.42,-180 528.42,-176.5 528.42,-183.5"/>
</g>
<!-- 8 -->
<!-- name: &quot;string&quot;, typeName: &quot;&quot;, id: 8, branchId: 0, recurseId: &#45;1, attributes: 512, notes: &quot;&quot; -->
<g id="node9" class="node">
<title>8</title>
<ellipse fill="none" stroke="black" cx="567.84" cy="-126" rx="31.1" ry="18"/>
<text text-anchor="middle" x="567.84" y="-120.58" font-family="Times New Roman,serif" font-size="14.00">string</text>
</g>
<!-- 7&#45;&gt;8 -->
<g id="edge8" class="edge">
<title>7&#45;&gt;8</title>
<path fill="none" stroke="black" d="M464.06,-126C485.57,-126 507.18,-126 525,-126"/>
<polygon fill="black" stroke="black" points="524.88,-129.5 534.88,-126 524.88,-122.5 524.88,-129.5"/>
</g>
<!-- 10 -->
<!-- name: &quot;varint&quot;, typeName: &quot;&quot;, id: 10, branchId: 0, recurseId: &#45;1, attributes: 512, notes: &quot;&quot; -->
<g id="node11" class="node">
<title>10</title>
<ellipse fill="none" stroke="black" cx="567.84" cy="-72" rx="31.1" ry="18"/>
<text text-anchor="middle" x="567.84" y="-66.58" font-family="Times New Roman,serif" font-size="14.00">varint</text>
</g>
<!-- 9&#45;&gt;10 -->
<g id="edge10" class="edge">
<title>9&#45;&gt;10</title>
<path fill="none" stroke="black" d="M452.26,-72C477.52,-72 503.92,-72 525.01,-72"/>
<polygon fill="black" stroke="black" points="524.94,-75.5 534.94,-72 524.94,-68.5 524.94,-75.5"/>
</g>
<!-- 12 -->
<!-- name: &quot;float&quot;, typeName: &quot;&quot;, id: 12, branchId: 0, recurseId: &#45;1, attributes: 512, notes: &quot;&quot; -->
<g id="node13" class="node">
<title>12</title>
<ellipse fill="none" stroke="black" cx="567.84" cy="-18" rx="27.11" ry="18"/>
<text text-anchor="middle" x="567.84" y="-12.57" font-family="Times New Roman,serif" font-size="14.00">float</text>
</g>
<!-- 11&#45;&gt;12 -->
<g id="edge12" class="edge">
<title>11&#45;&gt;12</title>
<path fill="none" stroke="black" d="M461.11,-18C485.34,-18 509.94,-18 529.3,-18"/>
<polygon fill="black" stroke="black" points="529.12,-21.5 539.12,-18 529.12,-14.5 529.12,-21.5"/>
</g>
</g>
</svg>
