<?xml version="1.0" encoding="UTF-8" standalone="no"?>
<!DOCTYPE svg PUBLIC "-//W3C//DTD SVG 1.1//EN"
 "http://www.w3.org/Graphics/SVG/1.1/DTD/svg11.dtd">
<!-- Generated by graphviz version 12.2.1 (20241206.2353)
 -->
<!-- Title: ChangeMobPropertyPacket Pages: 1 -->
<svg width="644pt" height="314pt"
 viewBox="0.00 0.00 644.01 314.00" xmlns="http://www.w3.org/2000/svg" xmlns:xlink="http://www.w3.org/1999/xlink">
<g id="graph0" class="graph" transform="scale(1 1) rotate(0) translate(4 310)">
<title>ChangeMobPropertyPacket</title>
<polygon fill="white" stroke="none" points="-4,4 -4,-310 640.01,-310 640.01,4 -4,4"/>
<!-- 0 -->
<!-- name: &quot;ChangeMobPropertyPacket&quot;, typeName: &quot;&quot;, id: 0, branchId: 182, recurseId: &#45;1, attributes: 0, notes: &quot;&quot; -->
<g id="node1" class="node">
<title>0</title>
<ellipse fill="none" stroke="black" cx="113.28" cy="-153" rx="113.28" ry="18"/>
<text text-anchor="middle" x="113.28" y="-147.95" font-family="Times New Roman,serif" font-size="14.00">ChangeMobPropertyPacket</text>
</g>
<!-- 1 -->
<!-- name: &quot;Actor Id&quot;, typeName: &quot;ActorUniqueID&quot;, id: 1, branchId: 0, recurseId: &#45;1, attributes: 256, notes: &quot;&quot; -->
<g id="node2" class="node">
<title>1</title>
<ellipse fill="none" stroke="black" cx="362.53" cy="-288" rx="42.14" ry="18"/>
<text text-anchor="middle" x="362.53" y="-282.95" font-family="Times New Roman,serif" font-size="14.00">Actor Id</text>
</g>
<!-- 0&#45;&gt;1 -->
<g id="edge1" class="edge">
<title>0&#45;&gt;1</title>
<path fill="none" stroke="black" d="M133.87,-170.94C160.9,-194.78 212.04,-236.72 262.56,-261 278.08,-268.46 296,-274.13 312.28,-278.31"/>
<polygon fill="black" stroke="black" points="311.24,-281.66 321.78,-280.61 312.88,-274.85 311.24,-281.66"/>
</g>
<!-- 3 -->
<!-- name: &quot;Property Name&quot;, typeName: &quot;&quot;, id: 3, branchId: 0, recurseId: &#45;1, attributes: 0, notes: &quot;&quot; -->
<g id="node4" class="node">
<title>3</title>
<ellipse fill="none" stroke="black" cx="362.53" cy="-234" rx="67.73" ry="18"/>
<text text-anchor="middle" x="362.53" y="-228.95" font-family="Times New Roman,serif" font-size="14.00">Property Name</text>
</g>
<!-- 0&#45;&gt;3 -->
<g id="edge3" class="edge">
<title>0&#45;&gt;3</title>
<path fill="none" stroke="black" d="M157.75,-169.91C187.13,-181.07 226.92,-195.67 262.56,-207 275.16,-211 288.77,-214.96 301.75,-218.55"/>
<polygon fill="black" stroke="black" points="300.44,-221.82 311.01,-221.08 302.28,-215.07 300.44,-221.82"/>
</g>
<!-- 5 -->
<!-- name: &quot;BoolComponent Value&quot;, typeName: &quot;&quot;, id: 5, branchId: 0, recurseId: &#45;1, attributes: 0, notes: &quot;&quot; -->
<g id="node6" class="node">
<title>5</title>
<ellipse fill="none" stroke="black" cx="362.53" cy="-180" rx="95.37" ry="18"/>
<text text-anchor="middle" x="362.53" y="-174.95" font-family="Times New Roman,serif" font-size="14.00">BoolComponent Value</text>
</g>
<!-- 0&#45;&gt;5 -->
<g id="edge5" class="edge">
<title>0&#45;&gt;5</title>
<path fill="none" stroke="black" d="M207.76,-163.21C227.3,-165.34 247.92,-167.59 267.49,-169.73"/>
<polygon fill="black" stroke="black" points="267.05,-173.2 277.37,-170.81 267.81,-166.24 267.05,-173.2"/>
</g>
<!-- 7 -->
<!-- name: &quot;StringComponent Value&quot;, typeName: &quot;&quot;, id: 7, branchId: 0, recurseId: &#45;1, attributes: 0, notes: &quot;&quot; -->
<g id="node8" class="node">
<title>7</title>
<ellipse fill="none" stroke="black" cx="362.53" cy="-126" rx="99.97" ry="18"/>
<text text-anchor="middle" x="362.53" y="-120.95" font-family="Times New Roman,serif" font-size="14.00">StringComponent Value</text>
</g>
<!-- 0&#45;&gt;7 -->
<g id="edge7" class="edge">
<title>0&#45;&gt;7</title>
<path fill="none" stroke="black" d="M207.76,-142.79C226.42,-140.75 246.05,-138.61 264.82,-136.56"/>
<polygon fill="black" stroke="black" points="265,-140.06 274.56,-135.5 264.24,-133.1 265,-140.06"/>
</g>
<!-- 9 -->
<!-- name: &quot;IntComponent Value&quot;, typeName: &quot;&quot;, id: 9, branchId: 0, recurseId: &#45;1, attributes: 0, notes: &quot;&quot; -->
<g id="node10" class="node">
<title>9</title>
<ellipse fill="none" stroke="black" cx="362.53" cy="-72" rx="87.69" ry="18"/>
<text text-anchor="middle" x="362.53" y="-66.95" font-family="Times New Roman,serif" font-size="14.00">IntComponent Value</text>
</g>
<!-- 0&#45;&gt;9 -->
<g id="edge9" class="edge">
<title>0&#45;&gt;9</title>
<path fill="none" stroke="black" d="M157.75,-136.09C187.13,-124.93 226.92,-110.33 262.56,-99 273.13,-95.64 284.41,-92.32 295.43,-89.22"/>
<polygon fill="black" stroke="black" points="296.17,-92.64 304.87,-86.59 294.3,-85.9 296.17,-92.64"/>
</g>
<!-- 11 -->
<!-- name: &quot;FloatComponent Value&quot;, typeName: &quot;&quot;, id: 11, branchId: 0, recurseId: &#45;1, attributes: 0, notes: &quot;&quot; -->
<g id="node12" class="node">
<title>11</title>
<ellipse fill="none" stroke="black" cx="362.53" cy="-18" rx="96.39" ry="18"/>
<text text-anchor="middle" x="362.53" y="-12.95" font-family="Times New Roman,serif" font-size="14.00">FloatComponent Value</text>
</g>
<!-- 0&#45;&gt;11 -->
<g id="edge11" class="edge">
<title>0&#45;&gt;11</title>
<path fill="none" stroke="black" d="M133.87,-135.06C160.9,-111.22 212.04,-69.28 262.56,-45 270.21,-41.33 278.43,-38.08 286.76,-35.24"/>
<polygon fill="black" stroke="black" points="287.83,-38.58 296.28,-32.19 285.69,-31.91 287.83,-38.58"/>
</g>
<!-- 2 -->
<!-- name: &quot;ActorUniqueID&quot;, typeName: &quot;&quot;, id: 2, branchId: 0, recurseId: &#45;1, attributes: 512, notes: &quot;&quot; -->
<g id="node3" class="node">
<title>2</title>
<ellipse fill="none" stroke="black" cx="567.26" cy="-288" rx="68.75" ry="18"/>
<text text-anchor="middle" x="567.26" y="-282.95" font-family="Times New Roman,serif" font-size="14.00">ActorUniqueID</text>
</g>
<!-- 1&#45;&gt;2 -->
<g id="edge2" class="edge">
<title>1&#45;&gt;2</title>
<path fill="none" stroke="black" d="M405.05,-288C428.57,-288 458.78,-288 486.69,-288"/>
<polygon fill="black" stroke="black" points="486.55,-291.5 496.55,-288 486.55,-284.5 486.55,-291.5"/>
</g>
<!-- 4 -->
<!-- name: &quot;string&quot;, typeName: &quot;&quot;, id: 4, branchId: 0, recurseId: &#45;1, attributes: 512, notes: &quot;&quot; -->
<g id="node5" class="node">
<title>4</title>
<ellipse fill="none" stroke="black" cx="567.26" cy="-234" rx="31.9" ry="18"/>
<text text-anchor="middle" x="567.26" y="-228.95" font-family="Times New Roman,serif" font-size="14.00">string</text>
</g>
<!-- 3&#45;&gt;4 -->
<g id="edge4" class="edge">
<title>3&#45;&gt;4</title>
<path fill="none" stroke="black" d="M430.76,-234C461.38,-234 496.71,-234 523.61,-234"/>
<polygon fill="black" stroke="black" points="523.45,-237.5 533.45,-234 523.45,-230.5 523.45,-237.5"/>
</g>
<!-- 6 -->
<!-- name: &quot;bool&quot;, typeName: &quot;&quot;, id: 6, branchId: 0, recurseId: &#45;1, attributes: 512, notes: &quot;&quot; -->
<g id="node7" class="node">
<title>6</title>
<ellipse fill="none" stroke="black" cx="567.26" cy="-180" rx="27.3" ry="18"/>
<text text-anchor="middle" x="567.26" y="-174.95" font-family="Times New Roman,serif" font-size="14.00">bool</text>
</g>
<!-- 5&#45;&gt;6 -->
<g id="edge6" class="edge">
<title>5&#45;&gt;6</title>
<path fill="none" stroke="black" d="M458.37,-180C483.23,-180 508.62,-180 528.52,-180"/>
<polygon fill="black" stroke="black" points="528.34,-183.5 538.34,-180 528.34,-176.5 528.34,-183.5"/>
</g>
<!-- 8 -->
<!-- name: &quot;string&quot;, typeName: &quot;&quot;, id: 8, branchId: 0, recurseId: &#45;1, attributes: 512, notes: &quot;&quot; -->
<g id="node9" class="node">
<title>8</title>
<ellipse fill="none" stroke="black" cx="567.26" cy="-126" rx="31.9" ry="18"/>
<text text-anchor="middle" x="567.26" y="-120.95" font-family="Times New Roman,serif" font-size="14.00">string</text>
</g>
<!-- 7&#45;&gt;8 -->
<g id="edge8" class="edge">
<title>7&#45;&gt;8</title>
<path fill="none" stroke="black" d="M462.82,-126C484.28,-126 505.86,-126 523.72,-126"/>
<polygon fill="black" stroke="black" points="523.64,-129.5 533.64,-126 523.64,-122.5 523.64,-129.5"/>
</g>
<!-- 10 -->
<!-- name: &quot;varint&quot;, typeName: &quot;&quot;, id: 10, branchId: 0, recurseId: &#45;1, attributes: 512, notes: &quot;&quot; -->
<g id="node11" class="node">
<title>10</title>
<ellipse fill="none" stroke="black" cx="567.26" cy="-72" rx="32.41" ry="18"/>
<text text-anchor="middle" x="567.26" y="-66.95" font-family="Times New Roman,serif" font-size="14.00">varint</text>
</g>
<!-- 9&#45;&gt;10 -->
<g id="edge10" class="edge">
<title>9&#45;&gt;10</title>
<path fill="none" stroke="black" d="M450.68,-72C475.74,-72 501.98,-72 523.11,-72"/>
<polygon fill="black" stroke="black" points="523.08,-75.5 533.08,-72 523.08,-68.5 523.08,-75.5"/>
</g>
<!-- 12 -->
<!-- name: &quot;float&quot;, typeName: &quot;&quot;, id: 12, branchId: 0, recurseId: &#45;1, attributes: 512, notes: &quot;&quot; -->
<g id="node13" class="node">
<title>12</title>
<ellipse fill="none" stroke="black" cx="567.26" cy="-18" rx="27.81" ry="18"/>
<text text-anchor="middle" x="567.26" y="-12.95" font-family="Times New Roman,serif" font-size="14.00">float</text>
</g>
<!-- 11&#45;&gt;12 -->
<g id="edge12" class="edge">
<title>11&#45;&gt;12</title>
<path fill="none" stroke="black" d="M459.26,-18C483.54,-18 508.25,-18 527.8,-18"/>
<polygon fill="black" stroke="black" points="527.74,-21.5 537.74,-18 527.74,-14.5 527.74,-21.5"/>
</g>
</g>
</svg>
