<?xml version="1.0" encoding="UTF-8" standalone="no"?>
<!DOCTYPE svg PUBLIC "-//W3C//DTD SVG 1.1//EN"
 "http://www.w3.org/Graphics/SVG/1.1/DTD/svg11.dtd">
<!-- Generated by graphviz version 2.46.1 (20210213.1702)
 -->
<!-- Title: ClientCacheStatusPacket Pages: 1 -->
<svg width="506pt" height="44pt"
 viewBox="0.00 0.00 506.36 44.00" xmlns="http://www.w3.org/2000/svg" xmlns:xlink="http://www.w3.org/1999/xlink">
<g id="graph0" class="graph" transform="scale(1 1) rotate(0) translate(4 40)">
<title>ClientCacheStatusPacket</title>
<polygon fill="white" stroke="transparent" points="-4,4 -4,-40 502.36,-40 502.36,4 -4,4"/>
<!-- 0 -->
<!-- name: &quot;ClientCacheStatusPacket&quot;, typeName: &quot;&quot;, id: 0, branchId: 129, recurseId: &#45;1, attributes: 0, notes: &quot;&quot; -->
<g id="node1" class="node">
<title>0</title>
<ellipse fill="none" stroke="black" cx="101.39" cy="-18" rx="101.28" ry="18"/>
<text text-anchor="middle" x="101.39" y="-14.3" font-family="Times New Roman,serif" font-size="14.00">ClientCacheStatusPacket</text>
</g>
<!-- 1 -->
<!-- name: &quot;Is cache supported?&quot;, typeName: &quot;&quot;, id: 1, branchId: 0, recurseId: &#45;1, attributes: 0, notes: &quot;&quot; -->
<g id="node2" class="node">
<title>1</title>
<ellipse fill="none" stroke="black" cx="323.27" cy="-18" rx="84.49" ry="18"/>
<text text-anchor="middle" x="323.27" y="-14.3" font-family="Times New Roman,serif" font-size="14.00">Is cache supported?</text>
</g>
<!-- 0&#45;&gt;1 -->
<g id="edge1" class="edge">
<title>0&#45;&gt;1</title>
<path fill="none" stroke="black" d="M203,-18C211.44,-18 219.96,-18 228.35,-18"/>
<polygon fill="black" stroke="black" points="228.5,-21.5 238.5,-18 228.5,-14.5 228.5,-21.5"/>
</g>
<!-- 2 -->
<!-- name: &quot;bool&quot;, typeName: &quot;&quot;, id: 2, branchId: 0, recurseId: &#45;1, attributes: 512, notes: &quot;&quot; -->
<g id="node3" class="node">
<title>2</title>
<ellipse fill="none" stroke="black" cx="471.06" cy="-18" rx="27.1" ry="18"/>
<text text-anchor="middle" x="471.06" y="-14.3" font-family="Times New Roman,serif" font-size="14.00">bool</text>
</g>
<!-- 1&#45;&gt;2 -->
<g id="edge2" class="edge">
<title>1&#45;&gt;2</title>
<path fill="none" stroke="black" d="M407.81,-18C416.84,-18 425.64,-18 433.65,-18"/>
<polygon fill="black" stroke="black" points="433.68,-21.5 443.68,-18 433.68,-14.5 433.68,-21.5"/>
</g>
</g>
</svg>
