<?xml version="1.0" encoding="UTF-8" standalone="no"?>
<!DOCTYPE svg PUBLIC "-//W3C//DTD SVG 1.1//EN"
 "http://www.w3.org/Graphics/SVG/1.1/DTD/svg11.dtd">
<!-- Generated by graphviz version 12.2.0 (20241103.1931)
 -->
<!-- Title: ClientCacheStatusPacket Pages: 1 -->
<svg width="510pt" height="44pt"
 viewBox="0.00 0.00 509.92 44.00" xmlns="http://www.w3.org/2000/svg" xmlns:xlink="http://www.w3.org/1999/xlink">
<g id="graph0" class="graph" transform="scale(1 1) rotate(0) translate(4 40)">
<title>ClientCacheStatusPacket</title>
<polygon fill="white" stroke="none" points="-4,4 -4,-40 505.92,-40 505.92,4 -4,4"/>
<!-- 0 -->
<!-- name: &quot;ClientCacheStatusPacket&quot;, typeName: &quot;&quot;, id: 0, branchId: 129, recurseId: &#45;1, attributes: 0, notes: &quot;&quot; -->
<g id="node1" class="node">
<title>0</title>
<ellipse fill="none" stroke="black" cx="103.56" cy="-18" rx="103.56" ry="18"/>
<text text-anchor="middle" x="103.56" y="-12.95" font-family="Times New Roman,serif" font-size="14.00">ClientCacheStatusPacket</text>
</g>
<!-- 1 -->
<!-- name: &quot;Is cache supported?&quot;, typeName: &quot;&quot;, id: 1, branchId: 0, recurseId: &#45;1, attributes: 0, notes: &quot;&quot; -->
<g id="node2" class="node">
<title>1</title>
<ellipse fill="none" stroke="black" cx="327.22" cy="-18" rx="84.11" ry="18"/>
<text text-anchor="middle" x="327.22" y="-12.95" font-family="Times New Roman,serif" font-size="14.00">Is cache supported?</text>
</g>
<!-- 0&#45;&gt;1 -->
<g id="edge1" class="edge">
<title>0&#45;&gt;1</title>
<path fill="none" stroke="black" d="M207.6,-18C215.5,-18 223.45,-18 231.3,-18"/>
<polygon fill="black" stroke="black" points="231.18,-21.5 241.18,-18 231.18,-14.5 231.18,-21.5"/>
</g>
<!-- 2 -->
<!-- name: &quot;bool&quot;, typeName: &quot;&quot;, id: 2, branchId: 0, recurseId: &#45;1, attributes: 512, notes: &quot;&quot; -->
<g id="node3" class="node">
<title>2</title>
<ellipse fill="none" stroke="black" cx="474.62" cy="-18" rx="27.3" ry="18"/>
<text text-anchor="middle" x="474.62" y="-12.95" font-family="Times New Roman,serif" font-size="14.00">bool</text>
</g>
<!-- 1&#45;&gt;2 -->
<g id="edge2" class="edge">
<title>1&#45;&gt;2</title>
<path fill="none" stroke="black" d="M411.54,-18C419.95,-18 428.17,-18 435.73,-18"/>
<polygon fill="black" stroke="black" points="435.49,-21.5 445.49,-18 435.49,-14.5 435.49,-21.5"/>
</g>
</g>
</svg>
