<?xml version="1.0" encoding="UTF-8" standalone="no"?>
<!DOCTYPE svg PUBLIC "-//W3C//DTD SVG 1.1//EN"
 "http://www.w3.org/Graphics/SVG/1.1/DTD/svg11.dtd">
<!-- Generated by graphviz version 11.0.0 (20240428.1522)
 -->
<!-- Title: ClientCameraAimAssistPacket Pages: 1 -->
<svg width="540pt" height="152pt"
 viewBox="0.00 0.00 540.07 152.00" xmlns="http://www.w3.org/2000/svg" xmlns:xlink="http://www.w3.org/1999/xlink">
<g id="graph0" class="graph" transform="scale(1 1) rotate(0) translate(4 148)">
<title>ClientCameraAimAssistPacket</title>
<polygon fill="white" stroke="none" points="-4,4 -4,-148 536.07,-148 536.07,4 -4,4"/>
<!-- 0 -->
<!-- name: &quot;ClientCameraAimAssistPacket&quot;, typeName: &quot;&quot;, id: 0, branchId: 321, recurseId: &#45;1, attributes: 0, notes: &quot;&quot; -->
<g id="node1" class="node">
<title>0</title>
<ellipse fill="none" stroke="black" cx="123.92" cy="-72" rx="123.92" ry="18"/>
<text text-anchor="middle" x="123.92" y="-66.58" font-family="Times New Roman,serif" font-size="14.00">ClientCameraAimAssistPacket</text>
</g>
<!-- 1 -->
<!-- name: &quot;Camera Preset Id&quot;, typeName: &quot;&quot;, id: 1, branchId: 0, recurseId: &#45;1, attributes: 0, notes: &quot;&quot; -->
<g id="node2" class="node">
<title>1</title>
<ellipse fill="none" stroke="black" cx="358.85" cy="-126" rx="75.02" ry="18"/>
<text text-anchor="middle" x="358.85" y="-120.58" font-family="Times New Roman,serif" font-size="14.00">Camera Preset Id</text>
</g>
<!-- 0&#45;&gt;1 -->
<g id="edge1" class="edge">
<title>0&#45;&gt;1</title>
<path fill="none" stroke="black" d="M191.67,-87.47C223.41,-94.83 261.23,-103.6 292.76,-110.91"/>
<polygon fill="black" stroke="black" points="291.63,-114.24 302.16,-113.09 293.21,-107.42 291.63,-114.24"/>
</g>
<!-- 3 -->
<!-- name: &quot;Action&quot;, typeName: &quot;&quot;, id: 3, branchId: 0, recurseId: &#45;1, attributes: 0, notes: &quot;&quot; -->
<g id="node4" class="node">
<title>3</title>
<ellipse fill="none" stroke="black" cx="358.85" cy="-72" rx="35.6" ry="18"/>
<text text-anchor="middle" x="358.85" y="-66.58" font-family="Times New Roman,serif" font-size="14.00">Action</text>
</g>
<!-- 0&#45;&gt;3 -->
<g id="edge3" class="edge">
<title>0&#45;&gt;3</title>
<path fill="none" stroke="black" d="M248.2,-72C270.87,-72 293.19,-72 311.72,-72"/>
<polygon fill="black" stroke="black" points="311.5,-75.5 321.5,-72 311.5,-68.5 311.5,-75.5"/>
</g>
<!-- 5 -->
<!-- name: &quot;Allow aim assist&quot;, typeName: &quot;&quot;, id: 5, branchId: 0, recurseId: &#45;1, attributes: 0, notes: &quot;&quot; -->
<g id="node6" class="node">
<title>5</title>
<ellipse fill="none" stroke="black" cx="358.85" cy="-18" rx="71.02" ry="18"/>
<text text-anchor="middle" x="358.85" y="-12.57" font-family="Times New Roman,serif" font-size="14.00">Allow aim assist</text>
</g>
<!-- 0&#45;&gt;5 -->
<g id="edge5" class="edge">
<title>0&#45;&gt;5</title>
<path fill="none" stroke="black" d="M191.67,-56.53C224.02,-49.03 262.66,-40.07 294.55,-32.68"/>
<polygon fill="black" stroke="black" points="295.09,-36.14 304.05,-30.47 293.51,-29.32 295.09,-36.14"/>
</g>
<!-- 2 -->
<!-- name: &quot;string&quot;, typeName: &quot;&quot;, id: 2, branchId: 0, recurseId: &#45;1, attributes: 512, notes: &quot;&quot; -->
<g id="node3" class="node">
<title>2</title>
<ellipse fill="none" stroke="black" cx="500.97" cy="-126" rx="31.1" ry="18"/>
<text text-anchor="middle" x="500.97" y="-120.58" font-family="Times New Roman,serif" font-size="14.00">string</text>
</g>
<!-- 1&#45;&gt;2 -->
<g id="edge2" class="edge">
<title>1&#45;&gt;2</title>
<path fill="none" stroke="black" d="M434.01,-126C442.38,-126 450.67,-126 458.41,-126"/>
<polygon fill="black" stroke="black" points="458.14,-129.5 468.14,-126 458.14,-122.5 458.14,-129.5"/>
</g>
<!-- 4 -->
<!-- name: &quot;byte&quot;, typeName: &quot;&quot;, id: 4, branchId: 0, recurseId: &#45;1, attributes: 512, notes: &quot;&quot; -->
<g id="node5" class="node">
<title>4</title>
<ellipse fill="none" stroke="black" cx="500.97" cy="-72" rx="27" ry="18"/>
<text text-anchor="middle" x="500.97" y="-66.58" font-family="Times New Roman,serif" font-size="14.00">byte</text>
</g>
<!-- 3&#45;&gt;4 -->
<g id="edge4" class="edge">
<title>3&#45;&gt;4</title>
<path fill="none" stroke="black" d="M394.85,-72C415.41,-72 441.39,-72 462.39,-72"/>
<polygon fill="black" stroke="black" points="462.26,-75.5 472.26,-72 462.26,-68.5 462.26,-75.5"/>
</g>
<!-- 6 -->
<!-- name: &quot;bool&quot;, typeName: &quot;&quot;, id: 6, branchId: 0, recurseId: &#45;1, attributes: 512, notes: &quot;&quot; -->
<g id="node7" class="node">
<title>6</title>
<ellipse fill="none" stroke="black" cx="500.97" cy="-18" rx="27.61" ry="18"/>
<text text-anchor="middle" x="500.97" y="-12.57" font-family="Times New Roman,serif" font-size="14.00">bool</text>
</g>
<!-- 5&#45;&gt;6 -->
<g id="edge6" class="edge">
<title>5&#45;&gt;6</title>
<path fill="none" stroke="black" d="M430.32,-18C441.17,-18 452.01,-18 461.8,-18"/>
<polygon fill="black" stroke="black" points="461.63,-21.5 471.63,-18 461.63,-14.5 461.63,-21.5"/>
</g>
</g>
</svg>
