<?xml version="1.0" encoding="UTF-8" standalone="no"?>
<!DOCTYPE svg PUBLIC "-//W3C//DTD SVG 1.1//EN"
 "http://www.w3.org/Graphics/SVG/1.1/DTD/svg11.dtd">
<!-- Generated by graphviz version 10.0.1 (20240210.2158)
 -->
<!-- Title: ClientCacheMissResponsePacket Pages: 1 -->
<svg width="990pt" height="152pt"
 viewBox="0.00 0.00 989.98 152.00" xmlns="http://www.w3.org/2000/svg" xmlns:xlink="http://www.w3.org/1999/xlink">
<g id="graph0" class="graph" transform="scale(1 1) rotate(0) translate(4 148)">
<title>ClientCacheMissResponsePacket</title>
<polygon fill="white" stroke="none" points="-4,4 -4,-148 985.98,-148 985.98,4 -4,4"/>
<!-- 0 -->
<!-- name: &quot;ClientCacheMissResponsePacket&quot;, typeName: &quot;&quot;, id: 0, branchId: 136, recurseId: &#45;1, attributes: 0, notes: &quot;&quot; -->
<g id="node1" class="node">
<title>0</title>
<ellipse fill="none" stroke="black" cx="135.39" cy="-99" rx="135.39" ry="18"/>
<text text-anchor="middle" x="135.39" y="-93.58" font-family="Times New Roman,serif" font-size="14.00">ClientCacheMissResponsePacket</text>
</g>
<!-- 1 -->
<!-- name: &quot;Missing Blobs&quot;, typeName: &quot;&quot;, id: 1, branchId: 0, recurseId: &#45;1, attributes: 8, notes: &quot;&quot; -->
<g id="node2" class="node">
<title>1</title>
<ellipse fill="none" stroke="black" cx="370.83" cy="-99" rx="64.04" ry="18"/>
<text text-anchor="middle" x="370.83" y="-93.58" font-family="Times New Roman,serif" font-size="14.00">Missing Blobs</text>
</g>
<!-- 0&#45;&gt;1 -->
<g id="edge1" class="edge">
<title>0&#45;&gt;1</title>
<path fill="none" stroke="black" d="M271.17,-99C279.29,-99 287.29,-99 295.01,-99"/>
<polygon fill="black" stroke="black" points="294.98,-102.5 304.98,-99 294.98,-95.5 294.98,-102.5"/>
</g>
<!-- 2 -->
<!-- name: &quot;Number of missing blobs&quot;, typeName: &quot;&quot;, id: 2, branchId: 0, recurseId: &#45;1, attributes: 0, notes: &quot;&quot; -->
<g id="node3" class="node">
<title>2</title>
<ellipse fill="none" stroke="black" cx="575.82" cy="-126" rx="104.96" ry="18"/>
<text text-anchor="middle" x="575.82" y="-120.58" font-family="Times New Roman,serif" font-size="14.00">Number of missing blobs</text>
</g>
<!-- 1&#45;&gt;2 -->
<g id="edge2" class="edge">
<title>1&#45;&gt;2</title>
<path fill="none" stroke="black" d="M429.45,-106.66C445.32,-108.78 462.95,-111.12 480.32,-113.43"/>
<polygon fill="black" stroke="black" points="479.79,-116.89 490.16,-114.74 480.71,-109.95 479.79,-116.89"/>
</g>
<!-- 4 -->
<!-- name: &quot;example element&quot;, typeName: &quot;&quot;, id: 4, branchId: 0, recurseId: &#45;1, attributes: 16, notes: &quot;&quot; -->
<g id="node5" class="node">
<title>4</title>
<ellipse fill="none" stroke="black" stroke-dasharray="1,5" cx="575.82" cy="-72" rx="71.52" ry="18"/>
<text text-anchor="middle" x="575.82" y="-66.58" font-family="Times New Roman,serif" font-size="14.00">example element</text>
</g>
<!-- 1&#45;&gt;4 -->
<g id="edge4" class="edge">
<title>1&#45;&gt;4</title>
<path fill="none" stroke="black" d="M429.45,-91.34C451.51,-88.4 477,-85.01 500.41,-81.9"/>
<polygon fill="black" stroke="black" points="500.76,-85.38 510.21,-80.59 499.83,-78.44 500.76,-85.38"/>
</g>
<!-- 3 -->
<!-- name: &quot;unsigned varint&quot;, typeName: &quot;&quot;, id: 3, branchId: 0, recurseId: &#45;1, attributes: 512, notes: &quot;&quot; -->
<g id="node4" class="node">
<title>3</title>
<ellipse fill="none" stroke="black" cx="915.45" cy="-126" rx="66.53" ry="18"/>
<text text-anchor="middle" x="915.45" y="-120.58" font-family="Times New Roman,serif" font-size="14.00">unsigned varint</text>
</g>
<!-- 2&#45;&gt;3 -->
<g id="edge3" class="edge">
<title>2&#45;&gt;3</title>
<path fill="none" stroke="black" d="M680.87,-126C731.24,-126 790.68,-126 836.99,-126"/>
<polygon fill="black" stroke="black" points="836.96,-129.5 846.96,-126 836.96,-122.5 836.96,-129.5"/>
</g>
<!-- 5 -->
<!-- name: &quot;Blob Id&quot;, typeName: &quot;&quot;, id: 5, branchId: 0, recurseId: &#45;1, attributes: 0, notes: &quot;&quot; -->
<g id="node6" class="node">
<title>5</title>
<ellipse fill="none" stroke="black" cx="764.84" cy="-72" rx="39.09" ry="18"/>
<text text-anchor="middle" x="764.84" y="-66.58" font-family="Times New Roman,serif" font-size="14.00">Blob Id</text>
</g>
<!-- 4&#45;&gt;5 -->
<g id="edge5" class="edge">
<title>4&#45;&gt;5</title>
<path fill="none" stroke="black" d="M647.79,-72C669.82,-72 693.62,-72 713.9,-72"/>
<polygon fill="black" stroke="black" points="713.88,-75.5 723.88,-72 713.88,-68.5 713.88,-75.5"/>
</g>
<!-- 7 -->
<!-- name: &quot;Blob Data&quot;, typeName: &quot;&quot;, id: 7, branchId: 0, recurseId: &#45;1, attributes: 0, notes: &quot;Subchunk data (see https://gist.github.com/Tomcc/a96af509e275b1af483b25c543cfbf37) plus biome data&quot; -->
<g id="node8" class="node">
<title>7</title>
<ellipse fill="none" stroke="black" cx="764.84" cy="-18" rx="48.07" ry="18"/>
<text text-anchor="middle" x="764.84" y="-12.57" font-family="Times New Roman,serif" font-size="14.00">Blob Data</text>
</g>
<!-- 4&#45;&gt;7 -->
<g id="edge7" class="edge">
<title>4&#45;&gt;7</title>
<path fill="none" stroke="black" d="M624.01,-58.37C651.81,-50.35 686.92,-40.21 715,-32.1"/>
<polygon fill="black" stroke="black" points="715.69,-35.55 724.32,-29.41 713.75,-28.82 715.69,-35.55"/>
</g>
<!-- 6 -->
<!-- name: &quot;unsigned int64&quot;, typeName: &quot;&quot;, id: 6, branchId: 0, recurseId: &#45;1, attributes: 512, notes: &quot;&quot; -->
<g id="node7" class="node">
<title>6</title>
<ellipse fill="none" stroke="black" cx="915.45" cy="-72" rx="64.04" ry="18"/>
<text text-anchor="middle" x="915.45" y="-66.58" font-family="Times New Roman,serif" font-size="14.00">unsigned int64</text>
</g>
<!-- 5&#45;&gt;6 -->
<g id="edge6" class="edge">
<title>5&#45;&gt;6</title>
<path fill="none" stroke="black" d="M804.11,-72C815.04,-72 827.35,-72 839.66,-72"/>
<polygon fill="black" stroke="black" points="839.43,-75.5 849.43,-72 839.43,-68.5 839.43,-75.5"/>
</g>
<!-- 8 -->
<!-- name: &quot;string&quot;, typeName: &quot;&quot;, id: 8, branchId: 0, recurseId: &#45;1, attributes: 512, notes: &quot;&quot; -->
<g id="node9" class="node">
<title>8</title>
<ellipse fill="none" stroke="black" cx="915.45" cy="-18" rx="31.1" ry="18"/>
<text text-anchor="middle" x="915.45" y="-12.57" font-family="Times New Roman,serif" font-size="14.00">string</text>
</g>
<!-- 7&#45;&gt;8 -->
<g id="edge8" class="edge">
<title>7&#45;&gt;8</title>
<path fill="none" stroke="black" d="M813.27,-18C832.45,-18 854.4,-18 872.94,-18"/>
<polygon fill="black" stroke="black" points="872.76,-21.5 882.76,-18 872.76,-14.5 872.76,-21.5"/>
</g>
</g>
</svg>
