<?xml version="1.0" encoding="UTF-8" standalone="no"?>
<!DOCTYPE svg PUBLIC "-//W3C//DTD SVG 1.1//EN"
 "http://www.w3.org/Graphics/SVG/1.1/DTD/svg11.dtd">
<!-- Generated by graphviz version 13.1.2 (20250808.2320)
 -->
<!-- Title: ClientCameraAimAssistPacket Pages: 1 -->
<svg width="834pt" height="152pt"
 viewBox="0.00 0.00 834.00 152.00" xmlns="http://www.w3.org/2000/svg" xmlns:xlink="http://www.w3.org/1999/xlink">
<g id="graph0" class="graph" transform="scale(1 1) rotate(0) translate(4 148)">
<title>ClientCameraAimAssistPacket</title>
<polygon fill="white" stroke="none" points="-4,4 -4,-148 830.41,-148 830.41,4 -4,4"/>
<!-- 0 -->
<!-- name: &quot;ClientCameraAimAssistPacket&quot;, typeName: &quot;&quot;, id: 0, branchId: 0, recurseId: &#45;1, attributes: 0, notes: &quot;Client&#45;side activation of aim&#45;assist&quot; -->
<g id="node1" class="node">
<title>0</title>
<ellipse fill="none" stroke="black" cx="126.59" cy="-72" rx="126.59" ry="18"/>
<text xml:space="preserve" text-anchor="middle" x="126.59" y="-66.95" font-family="Times New Roman,serif" font-size="14.00">ClientCameraAimAssistPacket</text>
</g>
<!-- 1 -->
<!-- name: &quot;Camera Preset Id&quot;, typeName: &quot;&quot;, id: 1, branchId: 0, recurseId: &#45;1, attributes: 0, notes: &quot;&quot; -->
<g id="node2" class="node">
<title>1</title>
<ellipse fill="none" stroke="black" cx="364.58" cy="-126" rx="75.41" ry="18"/>
<text xml:space="preserve" text-anchor="middle" x="364.58" y="-120.95" font-family="Times New Roman,serif" font-size="14.00">Camera Preset Id</text>
</g>
<!-- 0&#45;&gt;1 -->
<g id="edge1" class="edge">
<title>0&#45;&gt;1</title>
<path fill="none" stroke="black" d="M195.21,-87.47C227.5,-94.86 265.98,-103.67 298,-110.99"/>
<polygon fill="black" stroke="black" points="297.03,-114.36 307.56,-113.18 298.59,-107.54 297.03,-114.36"/>
</g>
<!-- 3 -->
<!-- name: &quot;Action&quot;, typeName: &quot;&quot;, id: 3, branchId: 0, recurseId: &#45;1, attributes: 0, notes: &quot;&quot; -->
<g id="node4" class="node">
<title>3</title>
<ellipse fill="none" stroke="black" cx="364.58" cy="-72" rx="36" ry="18"/>
<text xml:space="preserve" text-anchor="middle" x="364.58" y="-66.95" font-family="Times New Roman,serif" font-size="14.00">Action</text>
</g>
<!-- 0&#45;&gt;3 -->
<g id="edge3" class="edge">
<title>0&#45;&gt;3</title>
<path fill="none" stroke="black" d="M253.53,-72C276.16,-72 298.4,-72 316.9,-72"/>
<polygon fill="black" stroke="black" points="316.68,-75.5 326.68,-72 316.68,-68.5 316.68,-75.5"/>
</g>
<!-- 5 -->
<!-- name: &quot;Allow aim assist&quot;, typeName: &quot;&quot;, id: 5, branchId: 0, recurseId: &#45;1, attributes: 0, notes: &quot;&quot; -->
<g id="node6" class="node">
<title>5</title>
<ellipse fill="none" stroke="black" cx="364.58" cy="-18" rx="73.36" ry="18"/>
<text xml:space="preserve" text-anchor="middle" x="364.58" y="-12.95" font-family="Times New Roman,serif" font-size="14.00">Allow aim assist</text>
</g>
<!-- 0&#45;&gt;5 -->
<g id="edge5" class="edge">
<title>0&#45;&gt;5</title>
<path fill="none" stroke="black" d="M195.21,-56.53C227.74,-49.08 266.56,-40.2 298.72,-32.84"/>
<polygon fill="black" stroke="black" points="299.36,-36.29 308.33,-30.64 297.8,-29.46 299.36,-36.29"/>
</g>
<!-- 2 -->
<!-- name: &quot;string&quot;, typeName: &quot;&quot;, id: 2, branchId: 0, recurseId: &#45;1, attributes: 512, notes: &quot;&quot; -->
<g id="node3" class="node">
<title>2</title>
<ellipse fill="none" stroke="black" cx="651.2" cy="-126" rx="31.9" ry="18"/>
<text xml:space="preserve" text-anchor="middle" x="651.2" y="-120.95" font-family="Times New Roman,serif" font-size="14.00">string</text>
</g>
<!-- 1&#45;&gt;2 -->
<g id="edge2" class="edge">
<title>1&#45;&gt;2</title>
<path fill="none" stroke="black" d="M440.36,-126C493.62,-126 563.3,-126 607.42,-126"/>
<polygon fill="black" stroke="black" points="607.36,-129.5 617.36,-126 607.36,-122.5 607.36,-129.5"/>
</g>
<!-- 4 -->
<!-- name: &quot;enum ClientCameraAimAssistPacketAction&quot;, typeName: &quot;&quot;, id: 4, branchId: 0, recurseId: &#45;1, attributes: 512, notes: &quot;&quot; -->
<g id="node5" class="node">
<title>4</title>
<ellipse fill="none" stroke="black" cx="651.2" cy="-72" rx="175.21" ry="18"/>
<text xml:space="preserve" text-anchor="middle" x="651.2" y="-66.95" font-family="Times New Roman,serif" font-size="14.00">enum ClientCameraAimAssistPacketAction</text>
</g>
<!-- 3&#45;&gt;4 -->
<g id="edge4" class="edge">
<title>3&#45;&gt;4</title>
<path fill="none" stroke="black" d="M401.05,-72C418.23,-72 440.29,-72 464.18,-72"/>
<polygon fill="black" stroke="black" points="464.14,-75.5 474.14,-72 464.14,-68.5 464.14,-75.5"/>
</g>
<!-- 6 -->
<!-- name: &quot;bool&quot;, typeName: &quot;&quot;, id: 6, branchId: 0, recurseId: &#45;1, attributes: 512, notes: &quot;&quot; -->
<g id="node7" class="node">
<title>6</title>
<ellipse fill="none" stroke="black" cx="651.2" cy="-18" rx="27.3" ry="18"/>
<text xml:space="preserve" text-anchor="middle" x="651.2" y="-12.95" font-family="Times New Roman,serif" font-size="14.00">bool</text>
</g>
<!-- 5&#45;&gt;6 -->
<g id="edge6" class="edge">
<title>5&#45;&gt;6</title>
<path fill="none" stroke="black" d="M438.14,-18C493.66,-18 567.99,-18 612.3,-18"/>
<polygon fill="black" stroke="black" points="612.18,-21.5 622.18,-18 612.18,-14.5 612.18,-21.5"/>
</g>
</g>
</svg>
