<?xml version="1.0" encoding="UTF-8" standalone="no"?>
<!DOCTYPE svg PUBLIC "-//W3C//DTD SVG 1.1//EN"
 "http://www.w3.org/Graphics/SVG/1.1/DTD/svg11.dtd">
<!-- Generated by graphviz version 11.0.0 (20240428.1522)
 -->
<!-- Title: ClientboundMapItemDataPacket Pages: 1 -->
<svg width="1920pt" height="1232pt"
 viewBox="0.00 0.00 1919.93 1232.00" xmlns="http://www.w3.org/2000/svg" xmlns:xlink="http://www.w3.org/1999/xlink">
<g id="graph0" class="graph" transform="scale(1 1) rotate(0) translate(4 1228)">
<title>ClientboundMapItemDataPacket</title>
<polygon fill="white" stroke="none" points="-4,4 -4,-1228 1915.93,-1228 1915.93,4 -4,4"/>
<!-- 0 -->
<!-- name: &quot;ClientboundMapItemDataPacket&quot;, typeName: &quot;&quot;, id: 0, branchId: 67, recurseId: &#45;1, attributes: 0, notes: &quot;&quot; -->
<g id="node1" class="node">
<title>0</title>
<ellipse fill="none" stroke="black" cx="131.4" cy="-990" rx="131.4" ry="18"/>
<text text-anchor="middle" x="131.4" y="-984.58" font-family="Times New Roman,serif" font-size="14.00">ClientboundMapItemDataPacket</text>
</g>
<!-- 1 -->
<!-- name: &quot;Map ID&quot;, typeName: &quot;ActorUniqueID&quot;, id: 1, branchId: 0, recurseId: &#45;1, attributes: 256, notes: &quot;&quot; -->
<g id="node2" class="node">
<title>1</title>
<ellipse fill="none" stroke="black" cx="655.88" cy="-1200" rx="39.59" ry="18"/>
<text text-anchor="middle" x="655.88" y="-1194.58" font-family="Times New Roman,serif" font-size="14.00">Map ID</text>
</g>
<!-- 0&#45;&gt;1 -->
<g id="edge1" class="edge">
<title>0&#45;&gt;1</title>
<path fill="none" stroke="black" d="M143.66,-1008.31C167.26,-1044.85 225.81,-1126.37 298.8,-1162 399.22,-1211.02 534.17,-1209.94 605.65,-1204.94"/>
<polygon fill="black" stroke="black" points="605.76,-1208.44 615.47,-1204.19 605.23,-1201.46 605.76,-1208.44"/>
</g>
<!-- 3 -->
<!-- name: &quot;Type Flags&quot;, typeName: &quot;&quot;, id: 3, branchId: 0, recurseId: &#45;1, attributes: 0, notes: &quot;&quot; -->
<g id="node4" class="node">
<title>3</title>
<ellipse fill="none" stroke="black" cx="1497.69" cy="-1150" rx="52.56" ry="18"/>
<text text-anchor="middle" x="1497.69" y="-1144.58" font-family="Times New Roman,serif" font-size="14.00">Type Flags</text>
</g>
<!-- 0&#45;&gt;3 -->
<g id="edge3" class="edge">
<title>0&#45;&gt;3</title>
<path fill="none" stroke="black" d="M147.6,-1008.12C174.46,-1038.65 233.68,-1099.51 298.8,-1125 446.48,-1182.8 496.29,-1148 654.88,-1148 654.88,-1148 654.88,-1148 961.33,-1148 1132.09,-1148 1333.5,-1149.03 1433.61,-1149.61"/>
<polygon fill="black" stroke="black" points="1433.48,-1153.11 1443.5,-1149.67 1433.52,-1146.11 1433.48,-1153.11"/>
</g>
<!-- 5 -->
<!-- name: &quot;Dimension&quot;, typeName: &quot;&quot;, id: 5, branchId: 0, recurseId: &#45;1, attributes: 0, notes: &quot;&quot; -->
<g id="node6" class="node">
<title>5</title>
<ellipse fill="none" stroke="black" cx="432.05" cy="-1098" rx="50.07" ry="18"/>
<text text-anchor="middle" x="432.05" y="-1092.58" font-family="Times New Roman,serif" font-size="14.00">Dimension</text>
</g>
<!-- 0&#45;&gt;5 -->
<g id="edge5" class="edge">
<title>0&#45;&gt;5</title>
<path fill="none" stroke="black" d="M162.99,-1007.81C195.64,-1026.11 249.36,-1054.22 298.8,-1071 322.83,-1079.16 350.19,-1085.24 373.77,-1089.55"/>
<polygon fill="black" stroke="black" points="373.06,-1092.98 383.52,-1091.26 374.28,-1086.09 373.06,-1092.98"/>
</g>
<!-- 7 -->
<!-- name: &quot;Is Locked Map?&quot;, typeName: &quot;&quot;, id: 7, branchId: 0, recurseId: &#45;1, attributes: 0, notes: &quot;&quot; -->
<g id="node8" class="node">
<title>7</title>
<ellipse fill="none" stroke="black" cx="432.05" cy="-1044" rx="72.02" ry="18"/>
<text text-anchor="middle" x="432.05" y="-1038.58" font-family="Times New Roman,serif" font-size="14.00">Is Locked Map?</text>
</g>
<!-- 0&#45;&gt;7 -->
<g id="edge7" class="edge">
<title>0&#45;&gt;7</title>
<path fill="none" stroke="black" d="M212.83,-1004.54C259.24,-1012.93 317.02,-1023.38 361.46,-1031.42"/>
<polygon fill="black" stroke="black" points="360.8,-1034.85 371.26,-1033.19 362.04,-1027.96 360.8,-1034.85"/>
</g>
<!-- 9 -->
<!-- name: &quot;Map Origin&quot;, typeName: &quot;BlockPos&quot;, id: 9, branchId: 0, recurseId: &#45;1, attributes: 256, notes: &quot;&quot; -->
<g id="node10" class="node">
<title>9</title>
<ellipse fill="none" stroke="black" cx="432.05" cy="-990" rx="53.06" ry="18"/>
<text text-anchor="middle" x="432.05" y="-984.58" font-family="Times New Roman,serif" font-size="14.00">Map Origin</text>
</g>
<!-- 0&#45;&gt;9 -->
<g id="edge9" class="edge">
<title>0&#45;&gt;9</title>
<path fill="none" stroke="black" d="M262.96,-990C299.15,-990 336.83,-990 367.32,-990"/>
<polygon fill="black" stroke="black" points="367.12,-993.5 377.12,-990 367.12,-986.5 367.12,-993.5"/>
</g>
<!-- 11 -->
<!-- name: &quot;Dependency on &#39;Creation Bit Field&#39;&quot;, typeName: &quot;&quot;, id: 11, branchId: 0, recurseId: &#45;1, attributes: 2, notes: &quot;&quot; -->
<g id="node12" class="node">
<title>11</title>
<polygon fill="none" stroke="black" points="531.93,-954 326.18,-954 326.18,-918 537.93,-918 537.93,-948 531.93,-954"/>
<polyline fill="none" stroke="black" points="531.93,-954 531.93,-948"/>
<polyline fill="none" stroke="black" points="537.93,-948 531.93,-948"/>
<text text-anchor="middle" x="432.05" y="-930.58" font-family="Times New Roman,serif" font-size="14.00">Dependency on &#39;Creation Bit Field&#39;</text>
</g>
<!-- 0&#45;&gt;11 -->
<g id="edge11" class="edge">
<title>0&#45;&gt;11</title>
<path fill="none" stroke="black" d="M212.83,-975.46C245.02,-969.64 282.68,-962.83 317.57,-956.52"/>
<polygon fill="black" stroke="black" points="318.09,-959.98 327.3,-954.76 316.84,-953.09 318.09,-959.98"/>
</g>
<!-- 23 -->
<!-- name: &quot;Dependency on &#39;DecorationUpdate, TextureUpdate, or Creation Bit Field&#39;&quot;, typeName: &quot;&quot;, id: 23, branchId: 0, recurseId: &#45;1, attributes: 2, notes: &quot;&quot; -->
<g id="node24" class="node">
<title>23</title>
<polygon fill="none" stroke="black" points="1168.2,-738 746.45,-738 746.45,-702 1174.2,-702 1174.2,-732 1168.2,-738"/>
<polyline fill="none" stroke="black" points="1168.2,-738 1168.2,-732"/>
<polyline fill="none" stroke="black" points="1174.2,-732 1168.2,-732"/>
<text text-anchor="middle" x="960.33" y="-714.58" font-family="Times New Roman,serif" font-size="14.00">Dependency on &#39;DecorationUpdate, TextureUpdate, or Creation Bit Field&#39;</text>
</g>
<!-- 0&#45;&gt;23 -->
<g id="edge23" class="edge">
<title>0&#45;&gt;23</title>
<path fill="none" stroke="black" d="M164.8,-972.13C197.8,-954.43 250.8,-927.39 298.8,-909 496.46,-833.28 737.47,-771.72 866.76,-741.07"/>
<polygon fill="black" stroke="black" points="867.37,-744.53 876.3,-738.82 865.76,-737.71 867.37,-744.53"/>
</g>
<!-- 29 -->
<!-- name: &quot;Dependency on &#39;DecorationUpdate Bit Field&#39;&quot;, typeName: &quot;&quot;, id: 29, branchId: 0, recurseId: &#45;1, attributes: 2, notes: &quot;&quot; -->
<g id="node30" class="node">
<title>29</title>
<polygon fill="none" stroke="black" points="559.3,-630 298.8,-630 298.8,-594 565.3,-594 565.3,-624 559.3,-630"/>
<polyline fill="none" stroke="black" points="559.3,-630 559.3,-624"/>
<polyline fill="none" stroke="black" points="565.3,-624 559.3,-624"/>
<text text-anchor="middle" x="432.05" y="-606.58" font-family="Times New Roman,serif" font-size="14.00">Dependency on &#39;DecorationUpdate Bit Field&#39;</text>
</g>
<!-- 0&#45;&gt;29 -->
<g id="edge29" class="edge">
<title>0&#45;&gt;29</title>
<path fill="none" stroke="black" d="M145.07,-971.76C172.27,-932.84 238.64,-839.11 298.8,-764 335.03,-718.78 379.75,-668.44 406.8,-638.54"/>
<polygon fill="black" stroke="black" points="409.12,-641.18 413.25,-631.43 403.94,-636.48 409.12,-641.18"/>
</g>
<!-- 70 -->
<!-- name: &quot;Dependency on &#39;TextureUpdate Bit Field&#39;&quot;, typeName: &quot;&quot;, id: 70, branchId: 0, recurseId: &#45;1, attributes: 2, notes: &quot;&quot; -->
<g id="node46" class="node">
<title>70</title>
<polygon fill="none" stroke="black" points="549.93,-360 308.18,-360 308.18,-324 555.93,-324 555.93,-354 549.93,-360"/>
<polyline fill="none" stroke="black" points="549.93,-360 549.93,-354"/>
<polyline fill="none" stroke="black" points="555.93,-354 549.93,-354"/>
<text text-anchor="middle" x="432.05" y="-336.57" font-family="Times New Roman,serif" font-size="14.00">Dependency on &#39;TextureUpdate Bit Field&#39;</text>
</g>
<!-- 0&#45;&gt;70 -->
<g id="edge45" class="edge">
<title>0&#45;&gt;70</title>
<path fill="none" stroke="black" d="M139.02,-971.93C160.24,-914.49 229.24,-731.21 298.8,-585 336.73,-505.3 388.35,-414.81 414.47,-370.08"/>
<polygon fill="black" stroke="black" points="417.43,-371.94 419.47,-361.55 411.4,-368.4 417.43,-371.94"/>
</g>
<!-- 2 -->
<!-- name: &quot;ActorUniqueID&quot;, typeName: &quot;&quot;, id: 2, branchId: 0, recurseId: &#45;1, attributes: 512, notes: &quot;&quot; -->
<g id="node3" class="node">
<title>2</title>
<ellipse fill="none" stroke="black" cx="1777.04" cy="-1206" rx="68.03" ry="18"/>
<text text-anchor="middle" x="1777.04" y="-1200.58" font-family="Times New Roman,serif" font-size="14.00">ActorUniqueID</text>
</g>
<!-- 1&#45;&gt;2 -->
<g id="edge2" class="edge">
<title>1&#45;&gt;2</title>
<path fill="none" stroke="black" d="M695.73,-1200.21C857.11,-1201.07 1476.48,-1204.39 1697.28,-1205.58"/>
<polygon fill="black" stroke="black" points="1697.21,-1209.08 1707.23,-1205.63 1697.25,-1202.08 1697.21,-1209.08"/>
</g>
<!-- 4 -->
<!-- name: &quot;unsigned varint&quot;, typeName: &quot;&quot;, id: 4, branchId: 0, recurseId: &#45;1, attributes: 512, notes: &quot;&quot; -->
<g id="node5" class="node">
<title>4</title>
<ellipse fill="none" stroke="black" cx="1777.04" cy="-1152" rx="66.53" ry="18"/>
<text text-anchor="middle" x="1777.04" y="-1146.58" font-family="Times New Roman,serif" font-size="14.00">unsigned varint</text>
</g>
<!-- 3&#45;&gt;4 -->
<g id="edge4" class="edge">
<title>3&#45;&gt;4</title>
<path fill="none" stroke="black" d="M1550.54,-1150.37C1592.25,-1150.67 1651.5,-1151.1 1698.81,-1151.44"/>
<polygon fill="black" stroke="black" points="1698.71,-1154.94 1708.73,-1151.51 1698.76,-1147.94 1698.71,-1154.94"/>
</g>
<!-- 6 -->
<!-- name: &quot;byte&quot;, typeName: &quot;&quot;, id: 6, branchId: 0, recurseId: &#45;1, attributes: 512, notes: &quot;&quot; -->
<g id="node7" class="node">
<title>6</title>
<ellipse fill="none" stroke="black" cx="1777.04" cy="-1098" rx="27" ry="18"/>
<text text-anchor="middle" x="1777.04" y="-1092.58" font-family="Times New Roman,serif" font-size="14.00">byte</text>
</g>
<!-- 5&#45;&gt;6 -->
<g id="edge6" class="edge">
<title>5&#45;&gt;6</title>
<path fill="none" stroke="black" d="M482.39,-1098C575.59,-1098 783.9,-1098 959.33,-1098 959.33,-1098 959.33,-1098 1282.72,-1098 1452.72,-1098 1655.66,-1098 1738.27,-1098"/>
<polygon fill="black" stroke="black" points="1738.05,-1101.5 1748.05,-1098 1738.05,-1094.5 1738.05,-1101.5"/>
</g>
<!-- 8 -->
<!-- name: &quot;bool&quot;, typeName: &quot;&quot;, id: 8, branchId: 0, recurseId: &#45;1, attributes: 512, notes: &quot;&quot; -->
<g id="node9" class="node">
<title>8</title>
<ellipse fill="none" stroke="black" cx="1777.04" cy="-1044" rx="27.61" ry="18"/>
<text text-anchor="middle" x="1777.04" y="-1038.58" font-family="Times New Roman,serif" font-size="14.00">bool</text>
</g>
<!-- 7&#45;&gt;8 -->
<g id="edge8" class="edge">
<title>7&#45;&gt;8</title>
<path fill="none" stroke="black" d="M504.56,-1044C605.79,-1044 796.69,-1044 959.33,-1044 959.33,-1044 959.33,-1044 1282.72,-1044 1452.31,-1044 1654.69,-1044 1737.67,-1044"/>
<polygon fill="black" stroke="black" points="1737.52,-1047.5 1747.52,-1044 1737.52,-1040.5 1737.52,-1047.5"/>
</g>
<!-- 10 -->
<!-- name: &quot;BlockPos&quot;, typeName: &quot;&quot;, id: 10, branchId: 0, recurseId: &#45;1, attributes: 512, notes: &quot;&quot; -->
<g id="node11" class="node">
<title>10</title>
<ellipse fill="none" stroke="black" cx="1777.04" cy="-990" rx="47.07" ry="18"/>
<text text-anchor="middle" x="1777.04" y="-984.58" font-family="Times New Roman,serif" font-size="14.00">BlockPos</text>
</g>
<!-- 9&#45;&gt;10 -->
<g id="edge10" class="edge">
<title>9&#45;&gt;10</title>
<path fill="none" stroke="black" d="M485.34,-990C579.92,-990 785.73,-990 959.33,-990 959.33,-990 959.33,-990 1282.72,-990 1440.42,-990 1626.47,-990 1718.51,-990"/>
<polygon fill="black" stroke="black" points="1718.28,-993.5 1728.28,-990 1718.28,-986.5 1718.28,-993.5"/>
</g>
<!-- 12 -->
<!-- name: &quot;If False&quot;, typeName: &quot;&quot;, id: 12, branchId: 0, recurseId: &#45;1, attributes: 4, notes: &quot;&quot; -->
<g id="node13" class="node">
<title>12</title>
<polygon fill="none" stroke="black" points="655.88,-954 601.3,-936 655.88,-918 710.45,-936 655.88,-954"/>
<text text-anchor="middle" x="655.88" y="-930.58" font-family="Times New Roman,serif" font-size="14.00">If False</text>
</g>
<!-- 11&#45;&gt;12 -->
<g id="edge12" class="edge">
<title>11&#45;&gt;12</title>
<path fill="none" stroke="black" d="M538.12,-936C555.33,-936 572.73,-936 588.65,-936"/>
<polygon fill="black" stroke="black" points="588.45,-939.5 598.45,-936 588.45,-932.5 588.45,-939.5"/>
</g>
<!-- 14 -->
<!-- name: &quot;If True&quot;, typeName: &quot;&quot;, id: 14, branchId: 1, recurseId: &#45;1, attributes: 4, notes: &quot;&quot; -->
<g id="node15" class="node">
<title>14</title>
<polygon fill="none" stroke="black" points="655.88,-900 604.13,-882 655.88,-864 707.63,-882 655.88,-900"/>
<text text-anchor="middle" x="655.88" y="-876.58" font-family="Times New Roman,serif" font-size="14.00">If True</text>
</g>
<!-- 11&#45;&gt;14 -->
<g id="edge14" class="edge">
<title>11&#45;&gt;14</title>
<path fill="none" stroke="black" d="M508.77,-917.57C543.68,-909.07 583.76,-899.31 613.11,-892.17"/>
<polygon fill="black" stroke="black" points="613.83,-895.59 622.72,-889.83 612.18,-888.79 613.83,-895.59"/>
</g>
<!-- 13 -->
<!-- name: &quot;[No Data]&quot;, typeName: &quot;&quot;, id: 13, branchId: 0, recurseId: &#45;1, attributes: 512, notes: &quot;&quot; -->
<g id="node14" class="node">
<title>13</title>
<ellipse fill="none" stroke="black" cx="1777.04" cy="-936" rx="47.57" ry="18"/>
<text text-anchor="middle" x="1777.04" y="-930.58" font-family="Times New Roman,serif" font-size="14.00">[No Data]</text>
</g>
<!-- 12&#45;&gt;13 -->
<g id="edge13" class="edge">
<title>12&#45;&gt;13</title>
<path fill="none" stroke="black" d="M712,-936C901.27,-936 1523.71,-936 1717.75,-936"/>
<polygon fill="black" stroke="black" points="1717.58,-939.5 1727.58,-936 1717.58,-932.5 1717.58,-939.5"/>
</g>
<!-- 15 -->
<!-- name: &quot;Map ID List&quot;, typeName: &quot;&quot;, id: 15, branchId: 0, recurseId: &#45;1, attributes: 8, notes: &quot;&quot; -->
<g id="node16" class="node">
<title>15</title>
<ellipse fill="none" stroke="black" cx="960.33" cy="-882" rx="56.05" ry="18"/>
<text text-anchor="middle" x="960.33" y="-876.58" font-family="Times New Roman,serif" font-size="14.00">Map ID List</text>
</g>
<!-- 14&#45;&gt;15 -->
<g id="edge15" class="edge">
<title>14&#45;&gt;15</title>
<path fill="none" stroke="black" d="M708.87,-882C759.64,-882 837.14,-882 892.47,-882"/>
<polygon fill="black" stroke="black" points="892.41,-885.5 902.41,-882 892.41,-878.5 892.41,-885.5"/>
</g>
<!-- 16 -->
<!-- name: &quot;List Size&quot;, typeName: &quot;&quot;, id: 16, branchId: 0, recurseId: &#45;1, attributes: 0, notes: &quot;&quot; -->
<g id="node17" class="node">
<title>16</title>
<ellipse fill="none" stroke="black" cx="1497.69" cy="-882" rx="42.58" ry="18"/>
<text text-anchor="middle" x="1497.69" y="-876.58" font-family="Times New Roman,serif" font-size="14.00">List Size</text>
</g>
<!-- 15&#45;&gt;16 -->
<g id="edge16" class="edge">
<title>15&#45;&gt;16</title>
<path fill="none" stroke="black" d="M1016.85,-882C1120.39,-882 1341.64,-882 1443.43,-882"/>
<polygon fill="black" stroke="black" points="1443.14,-885.5 1453.14,-882 1443.14,-878.5 1443.14,-885.5"/>
</g>
<!-- 18 -->
<!-- name: &quot;example element&quot;, typeName: &quot;&quot;, id: 18, branchId: 0, recurseId: &#45;1, attributes: 16, notes: &quot;&quot; -->
<g id="node19" class="node">
<title>18</title>
<ellipse fill="none" stroke="black" stroke-dasharray="1,5" cx="1281.72" cy="-828" rx="71.52" ry="18"/>
<text text-anchor="middle" x="1281.72" y="-822.58" font-family="Times New Roman,serif" font-size="14.00">example element</text>
</g>
<!-- 15&#45;&gt;18 -->
<g id="edge18" class="edge">
<title>15&#45;&gt;18</title>
<path fill="none" stroke="black" d="M1010.53,-873.68C1063.99,-864.64 1149.84,-850.13 1210.4,-839.89"/>
<polygon fill="black" stroke="black" points="1210.63,-843.4 1219.91,-838.28 1209.47,-836.5 1210.63,-843.4"/>
</g>
<!-- 17 -->
<!-- name: &quot;unsigned varint&quot;, typeName: &quot;&quot;, id: 17, branchId: 0, recurseId: &#45;1, attributes: 512, notes: &quot;&quot; -->
<g id="node18" class="node">
<title>17</title>
<ellipse fill="none" stroke="black" cx="1777.04" cy="-882" rx="66.53" ry="18"/>
<text text-anchor="middle" x="1777.04" y="-876.58" font-family="Times New Roman,serif" font-size="14.00">unsigned varint</text>
</g>
<!-- 16&#45;&gt;17 -->
<g id="edge17" class="edge">
<title>16&#45;&gt;17</title>
<path fill="none" stroke="black" d="M1540.52,-882C1582.3,-882 1647.51,-882 1698.74,-882"/>
<polygon fill="black" stroke="black" points="1698.59,-885.5 1708.59,-882 1698.59,-878.5 1698.59,-885.5"/>
</g>
<!-- 19 -->
<!-- name: &quot;Map ID entry&quot;, typeName: &quot;ActorUniqueID&quot;, id: 19, branchId: 0, recurseId: &#45;1, attributes: 256, notes: &quot;&quot; -->
<g id="node20" class="node">
<title>19</title>
<ellipse fill="none" stroke="black" cx="1497.69" cy="-828" rx="60.54" ry="18"/>
<text text-anchor="middle" x="1497.69" y="-822.58" font-family="Times New Roman,serif" font-size="14.00">Map ID entry</text>
</g>
<!-- 18&#45;&gt;19 -->
<g id="edge19" class="edge">
<title>18&#45;&gt;19</title>
<path fill="none" stroke="black" d="M1353.68,-828C1376.67,-828 1402.19,-828 1425.23,-828"/>
<polygon fill="black" stroke="black" points="1425.15,-831.5 1435.15,-828 1425.15,-824.5 1425.15,-831.5"/>
</g>
<!-- 21 -->
<!-- name: &quot;Map ID entry&quot;, typeName: &quot;ActorUniqueID&quot;, id: 21, branchId: 0, recurseId: &#45;1, attributes: 256, notes: &quot;&quot; -->
<g id="node22" class="node">
<title>21</title>
<ellipse fill="none" stroke="black" cx="1497.69" cy="-774" rx="60.54" ry="18"/>
<text text-anchor="middle" x="1497.69" y="-768.58" font-family="Times New Roman,serif" font-size="14.00">Map ID entry</text>
</g>
<!-- 18&#45;&gt;21 -->
<g id="edge21" class="edge">
<title>18&#45;&gt;21</title>
<path fill="none" stroke="black" d="M1333.38,-815.14C1351.06,-810.66 1371.03,-805.6 1389.25,-801 1405.54,-796.89 1423.22,-792.44 1439.44,-788.36"/>
<polygon fill="black" stroke="black" points="1440.1,-791.81 1448.94,-785.98 1438.39,-785.02 1440.1,-791.81"/>
</g>
<!-- 20 -->
<!-- name: &quot;ActorUniqueID&quot;, typeName: &quot;&quot;, id: 20, branchId: 0, recurseId: &#45;1, attributes: 512, notes: &quot;&quot; -->
<g id="node21" class="node">
<title>20</title>
<ellipse fill="none" stroke="black" cx="1777.04" cy="-828" rx="68.03" ry="18"/>
<text text-anchor="middle" x="1777.04" y="-822.58" font-family="Times New Roman,serif" font-size="14.00">ActorUniqueID</text>
</g>
<!-- 19&#45;&gt;20 -->
<g id="edge20" class="edge">
<title>19&#45;&gt;20</title>
<path fill="none" stroke="black" d="M1558.53,-828C1599.11,-828 1653.17,-828 1697.25,-828"/>
<polygon fill="black" stroke="black" points="1697,-831.5 1707,-828 1697,-824.5 1697,-831.5"/>
</g>
<!-- 22 -->
<!-- name: &quot;ActorUniqueID&quot;, typeName: &quot;&quot;, id: 22, branchId: 0, recurseId: &#45;1, attributes: 512, notes: &quot;&quot; -->
<g id="node23" class="node">
<title>22</title>
<ellipse fill="none" stroke="black" cx="1777.04" cy="-774" rx="68.03" ry="18"/>
<text text-anchor="middle" x="1777.04" y="-768.58" font-family="Times New Roman,serif" font-size="14.00">ActorUniqueID</text>
</g>
<!-- 21&#45;&gt;22 -->
<g id="edge22" class="edge">
<title>21&#45;&gt;22</title>
<path fill="none" stroke="black" d="M1558.53,-774C1599.11,-774 1653.17,-774 1697.25,-774"/>
<polygon fill="black" stroke="black" points="1697,-777.5 1707,-774 1697,-770.5 1697,-777.5"/>
</g>
<!-- 24 -->
<!-- name: &quot;If False&quot;, typeName: &quot;&quot;, id: 24, branchId: 0, recurseId: &#45;1, attributes: 4, notes: &quot;&quot; -->
<g id="node25" class="node">
<title>24</title>
<polygon fill="none" stroke="black" points="1281.72,-738 1227.15,-720 1281.72,-702 1336.3,-720 1281.72,-738"/>
<text text-anchor="middle" x="1281.72" y="-714.58" font-family="Times New Roman,serif" font-size="14.00">If False</text>
</g>
<!-- 23&#45;&gt;24 -->
<g id="edge24" class="edge">
<title>23&#45;&gt;24</title>
<path fill="none" stroke="black" d="M1174.37,-720C1188.42,-720 1201.84,-720 1214.14,-720"/>
<polygon fill="black" stroke="black" points="1214.05,-723.5 1224.05,-720 1214.05,-716.5 1214.05,-723.5"/>
</g>
<!-- 26 -->
<!-- name: &quot;If True&quot;, typeName: &quot;&quot;, id: 26, branchId: 1, recurseId: &#45;1, attributes: 4, notes: &quot;&quot; -->
<g id="node27" class="node">
<title>26</title>
<polygon fill="none" stroke="black" points="1281.72,-684 1229.97,-666 1281.72,-648 1333.47,-666 1281.72,-684"/>
<text text-anchor="middle" x="1281.72" y="-660.58" font-family="Times New Roman,serif" font-size="14.00">If True</text>
</g>
<!-- 23&#45;&gt;26 -->
<g id="edge26" class="edge">
<title>23&#45;&gt;26</title>
<path fill="none" stroke="black" d="M1070.35,-701.57C1126.47,-692.08 1191.9,-681.02 1234.7,-673.78"/>
<polygon fill="black" stroke="black" points="1235.11,-677.26 1244.39,-672.14 1233.95,-670.36 1235.11,-677.26"/>
</g>
<!-- 25 -->
<!-- name: &quot;[No Data]&quot;, typeName: &quot;&quot;, id: 25, branchId: 0, recurseId: &#45;1, attributes: 512, notes: &quot;&quot; -->
<g id="node26" class="node">
<title>25</title>
<ellipse fill="none" stroke="black" cx="1777.04" cy="-720" rx="47.57" ry="18"/>
<text text-anchor="middle" x="1777.04" y="-714.58" font-family="Times New Roman,serif" font-size="14.00">[No Data]</text>
</g>
<!-- 24&#45;&gt;25 -->
<g id="edge25" class="edge">
<title>24&#45;&gt;25</title>
<path fill="none" stroke="black" d="M1337.88,-720C1431.76,-720 1621.78,-720 1717.75,-720"/>
<polygon fill="black" stroke="black" points="1717.75,-723.5 1727.75,-720 1717.75,-716.5 1717.75,-723.5"/>
</g>
<!-- 27 -->
<!-- name: &quot;Scale&quot;, typeName: &quot;&quot;, id: 27, branchId: 0, recurseId: &#45;1, attributes: 0, notes: &quot;&quot; -->
<g id="node28" class="node">
<title>27</title>
<ellipse fill="none" stroke="black" cx="1497.69" cy="-666" rx="30.61" ry="18"/>
<text text-anchor="middle" x="1497.69" y="-660.58" font-family="Times New Roman,serif" font-size="14.00">Scale</text>
</g>
<!-- 26&#45;&gt;27 -->
<g id="edge27" class="edge">
<title>26&#45;&gt;27</title>
<path fill="none" stroke="black" d="M1334.79,-666C1371.86,-666 1421,-666 1455.38,-666"/>
<polygon fill="black" stroke="black" points="1455.37,-669.5 1465.37,-666 1455.37,-662.5 1455.37,-669.5"/>
</g>
<!-- 28 -->
<!-- name: &quot;byte&quot;, typeName: &quot;&quot;, id: 28, branchId: 0, recurseId: &#45;1, attributes: 512, notes: &quot;&quot; -->
<g id="node29" class="node">
<title>28</title>
<ellipse fill="none" stroke="black" cx="1777.04" cy="-666" rx="27" ry="18"/>
<text text-anchor="middle" x="1777.04" y="-660.58" font-family="Times New Roman,serif" font-size="14.00">byte</text>
</g>
<!-- 27&#45;&gt;28 -->
<g id="edge28" class="edge">
<title>27&#45;&gt;28</title>
<path fill="none" stroke="black" d="M1528.64,-666C1579.53,-666 1682.78,-666 1738.45,-666"/>
<polygon fill="black" stroke="black" points="1738.38,-669.5 1748.38,-666 1738.38,-662.5 1738.38,-669.5"/>
</g>
<!-- 30 -->
<!-- name: &quot;If False&quot;, typeName: &quot;&quot;, id: 30, branchId: 0, recurseId: &#45;1, attributes: 4, notes: &quot;&quot; -->
<g id="node31" class="node">
<title>30</title>
<polygon fill="none" stroke="black" points="655.88,-630 601.3,-612 655.88,-594 710.45,-612 655.88,-630"/>
<text text-anchor="middle" x="655.88" y="-606.58" font-family="Times New Roman,serif" font-size="14.00">If False</text>
</g>
<!-- 29&#45;&gt;30 -->
<g id="edge30" class="edge">
<title>29&#45;&gt;30</title>
<path fill="none" stroke="black" d="M565.61,-612C573.51,-612 581.25,-612 588.67,-612"/>
<polygon fill="black" stroke="black" points="588.53,-615.5 598.53,-612 588.53,-608.5 588.53,-615.5"/>
</g>
<!-- 32 -->
<!-- name: &quot;If True&quot;, typeName: &quot;&quot;, id: 32, branchId: 1, recurseId: &#45;1, attributes: 4, notes: &quot;&quot; -->
<g id="node33" class="node">
<title>32</title>
<polygon fill="none" stroke="black" points="655.88,-549 604.13,-531 655.88,-513 707.63,-531 655.88,-549"/>
<text text-anchor="middle" x="655.88" y="-525.58" font-family="Times New Roman,serif" font-size="14.00">If True</text>
</g>
<!-- 29&#45;&gt;32 -->
<g id="edge32" class="edge">
<title>29&#45;&gt;32</title>
<path fill="none" stroke="black" d="M483.67,-593.52C524.92,-578.45 582.17,-557.55 618.87,-544.15"/>
<polygon fill="black" stroke="black" points="619.94,-547.48 628.14,-540.76 617.54,-540.91 619.94,-547.48"/>
</g>
<!-- 31 -->
<!-- name: &quot;[No Data]&quot;, typeName: &quot;&quot;, id: 31, branchId: 0, recurseId: &#45;1, attributes: 512, notes: &quot;&quot; -->
<g id="node32" class="node">
<title>31</title>
<ellipse fill="none" stroke="black" cx="1777.04" cy="-612" rx="47.57" ry="18"/>
<text text-anchor="middle" x="1777.04" y="-606.58" font-family="Times New Roman,serif" font-size="14.00">[No Data]</text>
</g>
<!-- 30&#45;&gt;31 -->
<g id="edge31" class="edge">
<title>30&#45;&gt;31</title>
<path fill="none" stroke="black" d="M712,-612C901.27,-612 1523.71,-612 1717.75,-612"/>
<polygon fill="black" stroke="black" points="1717.58,-615.5 1727.58,-612 1717.58,-608.5 1717.58,-615.5"/>
</g>
<!-- 33 -->
<!-- name: &quot;Actor IDs&quot;, typeName: &quot;&quot;, id: 33, branchId: 0, recurseId: &#45;1, attributes: 8, notes: &quot;&quot; -->
<g id="node34" class="node">
<title>33</title>
<ellipse fill="none" stroke="black" cx="960.33" cy="-531" rx="48.07" ry="18"/>
<text text-anchor="middle" x="960.33" y="-525.58" font-family="Times New Roman,serif" font-size="14.00">Actor IDs</text>
</g>
<!-- 32&#45;&gt;33 -->
<g id="edge33" class="edge">
<title>32&#45;&gt;33</title>
<path fill="none" stroke="black" d="M708.87,-531C762.17,-531 844.9,-531 900.55,-531"/>
<polygon fill="black" stroke="black" points="900.47,-534.5 910.47,-531 900.47,-527.5 900.47,-534.5"/>
</g>
<!-- 51 -->
<!-- name: &quot;Decoration List&quot;, typeName: &quot;&quot;, id: 51, branchId: 0, recurseId: &#45;1, attributes: 8, notes: &quot;&quot; -->
<g id="node40" class="node">
<title>51</title>
<ellipse fill="none" stroke="black" cx="960.33" cy="-450" rx="68.03" ry="18"/>
<text text-anchor="middle" x="960.33" y="-444.57" font-family="Times New Roman,serif" font-size="14.00">Decoration List</text>
</g>
<!-- 32&#45;&gt;51 -->
<g id="edge39" class="edge">
<title>32&#45;&gt;51</title>
<path fill="none" stroke="black" d="M684.23,-522.41C701.92,-516.94 725.48,-509.82 746.45,-504 797.21,-489.92 855.18,-475.31 897.8,-464.84"/>
<polygon fill="black" stroke="black" points="898.49,-468.28 907.37,-462.5 896.82,-461.48 898.49,-468.28"/>
</g>
<!-- 34 -->
<!-- name: &quot;List Size&quot;, typeName: &quot;&quot;, id: 34, branchId: 0, recurseId: &#45;1, attributes: 0, notes: &quot;&quot; -->
<g id="node35" class="node">
<title>34</title>
<ellipse fill="none" stroke="black" cx="1281.72" cy="-558" rx="42.58" ry="18"/>
<text text-anchor="middle" x="1281.72" y="-552.58" font-family="Times New Roman,serif" font-size="14.00">List Size</text>
</g>
<!-- 33&#45;&gt;34 -->
<g id="edge34" class="edge">
<title>33&#45;&gt;34</title>
<path fill="none" stroke="black" d="M1007.77,-534.93C1066.45,-539.89 1167.15,-548.4 1228.46,-553.58"/>
<polygon fill="black" stroke="black" points="1228.03,-557.06 1238.29,-554.41 1228.62,-550.08 1228.03,-557.06"/>
</g>
<!-- 36 -->
<!-- name: &quot;example element&quot;, typeName: &quot;&quot;, id: 36, branchId: 0, recurseId: &#45;1, attributes: 16, notes: &quot;&quot; -->
<g id="node37" class="node">
<title>36</title>
<ellipse fill="none" stroke="black" stroke-dasharray="1,5" cx="1281.72" cy="-504" rx="71.52" ry="18"/>
<text text-anchor="middle" x="1281.72" y="-498.57" font-family="Times New Roman,serif" font-size="14.00">example element</text>
</g>
<!-- 33&#45;&gt;36 -->
<g id="edge36" class="edge">
<title>33&#45;&gt;36</title>
<path fill="none" stroke="black" d="M1007.77,-527.07C1058.67,-522.77 1141.19,-515.8 1202.19,-510.64"/>
<polygon fill="black" stroke="black" points="1202.14,-514.16 1211.81,-509.83 1201.55,-507.18 1202.14,-514.16"/>
</g>
<!-- 35 -->
<!-- name: &quot;unsigned varint&quot;, typeName: &quot;&quot;, id: 35, branchId: 0, recurseId: &#45;1, attributes: 512, notes: &quot;&quot; -->
<g id="node36" class="node">
<title>35</title>
<ellipse fill="none" stroke="black" cx="1777.04" cy="-558" rx="66.53" ry="18"/>
<text text-anchor="middle" x="1777.04" y="-552.58" font-family="Times New Roman,serif" font-size="14.00">unsigned varint</text>
</g>
<!-- 34&#45;&gt;35 -->
<g id="edge35" class="edge">
<title>34&#45;&gt;35</title>
<path fill="none" stroke="black" d="M1324.78,-558C1407.74,-558 1593.52,-558 1699.02,-558"/>
<polygon fill="black" stroke="black" points="1698.71,-561.5 1708.71,-558 1698.71,-554.5 1698.71,-561.5"/>
</g>
<!-- 37 -->
<!-- name: &quot;MapItemTrackedActor ID&quot;, typeName: &quot;MapItemTrackedActor::UniqueId&quot;, id: 37, branchId: 0, recurseId: &#45;1, attributes: 256, notes: &quot;&quot; -->
<g id="node38" class="node">
<title>37</title>
<ellipse fill="none" stroke="black" cx="1497.69" cy="-504" rx="108.45" ry="18"/>
<text text-anchor="middle" x="1497.69" y="-498.57" font-family="Times New Roman,serif" font-size="14.00">MapItemTrackedActor ID</text>
</g>
<!-- 36&#45;&gt;37 -->
<g id="edge37" class="edge">
<title>36&#45;&gt;37</title>
<path fill="none" stroke="black" d="M1353.68,-504C1361.36,-504 1369.34,-504 1377.4,-504"/>
<polygon fill="black" stroke="black" points="1377.33,-507.5 1387.33,-504 1377.33,-500.5 1377.33,-507.5"/>
</g>
<!-- 50 -->
<!-- name: &quot;MapItemTrackedActor::UniqueId&quot;, typeName: &quot;&quot;, id: 50, branchId: 0, recurseId: &#45;1, attributes: 512, notes: &quot;&quot; -->
<g id="node39" class="node">
<title>50</title>
<ellipse fill="none" stroke="black" cx="1777.04" cy="-504" rx="134.9" ry="18"/>
<text text-anchor="middle" x="1777.04" y="-498.57" font-family="Times New Roman,serif" font-size="14.00">MapItemTrackedActor::UniqueId</text>
</g>
<!-- 37&#45;&gt;50 -->
<g id="edge38" class="edge">
<title>37&#45;&gt;50</title>
<path fill="none" stroke="black" d="M1606.32,-504C1614.38,-504 1622.59,-504 1630.83,-504"/>
<polygon fill="black" stroke="black" points="1630.56,-507.5 1640.56,-504 1630.56,-500.5 1630.56,-507.5"/>
</g>
<!-- 52 -->
<!-- name: &quot;List Size&quot;, typeName: &quot;&quot;, id: 52, branchId: 0, recurseId: &#45;1, attributes: 0, notes: &quot;&quot; -->
<g id="node41" class="node">
<title>52</title>
<ellipse fill="none" stroke="black" cx="1281.72" cy="-450" rx="42.58" ry="18"/>
<text text-anchor="middle" x="1281.72" y="-444.57" font-family="Times New Roman,serif" font-size="14.00">List Size</text>
</g>
<!-- 51&#45;&gt;52 -->
<g id="edge40" class="edge">
<title>51&#45;&gt;52</title>
<path fill="none" stroke="black" d="M1028.67,-450C1087.84,-450 1172.78,-450 1227.35,-450"/>
<polygon fill="black" stroke="black" points="1227.34,-453.5 1237.34,-450 1227.34,-446.5 1227.34,-453.5"/>
</g>
<!-- 54 -->
<!-- name: &quot;example element&quot;, typeName: &quot;&quot;, id: 54, branchId: 0, recurseId: &#45;1, attributes: 16, notes: &quot;&quot; -->
<g id="node43" class="node">
<title>54</title>
<ellipse fill="none" stroke="black" stroke-dasharray="1,5" cx="1281.72" cy="-396" rx="71.52" ry="18"/>
<text text-anchor="middle" x="1281.72" y="-390.57" font-family="Times New Roman,serif" font-size="14.00">example element</text>
</g>
<!-- 51&#45;&gt;54 -->
<g id="edge42" class="edge">
<title>51&#45;&gt;54</title>
<path fill="none" stroke="black" d="M1018.43,-440.35C1072.09,-431.27 1152.55,-417.67 1210.2,-407.92"/>
<polygon fill="black" stroke="black" points="1210.64,-411.4 1219.92,-406.28 1209.47,-404.5 1210.64,-411.4"/>
</g>
<!-- 53 -->
<!-- name: &quot;unsigned varint&quot;, typeName: &quot;&quot;, id: 53, branchId: 0, recurseId: &#45;1, attributes: 512, notes: &quot;&quot; -->
<g id="node42" class="node">
<title>53</title>
<ellipse fill="none" stroke="black" cx="1777.04" cy="-450" rx="66.53" ry="18"/>
<text text-anchor="middle" x="1777.04" y="-444.57" font-family="Times New Roman,serif" font-size="14.00">unsigned varint</text>
</g>
<!-- 52&#45;&gt;53 -->
<g id="edge41" class="edge">
<title>52&#45;&gt;53</title>
<path fill="none" stroke="black" d="M1324.78,-450C1407.74,-450 1593.52,-450 1699.02,-450"/>
<polygon fill="black" stroke="black" points="1698.71,-453.5 1708.71,-450 1698.71,-446.5 1698.71,-453.5"/>
</g>
<!-- 55 -->
<!-- name: &quot;Map Decoration&quot;, typeName: &quot;MapDecoration&quot;, id: 55, branchId: 0, recurseId: &#45;1, attributes: 256, notes: &quot;&quot; -->
<g id="node44" class="node">
<title>55</title>
<ellipse fill="none" stroke="black" cx="1497.69" cy="-396" rx="71.02" ry="18"/>
<text text-anchor="middle" x="1497.69" y="-390.57" font-family="Times New Roman,serif" font-size="14.00">Map Decoration</text>
</g>
<!-- 54&#45;&gt;55 -->
<g id="edge43" class="edge">
<title>54&#45;&gt;55</title>
<path fill="none" stroke="black" d="M1353.68,-396C1373.29,-396 1394.74,-396 1414.92,-396"/>
<polygon fill="black" stroke="black" points="1414.79,-399.5 1424.79,-396 1414.79,-392.5 1414.79,-399.5"/>
</g>
<!-- 69 -->
<!-- name: &quot;MapDecoration&quot;, typeName: &quot;&quot;, id: 69, branchId: 0, recurseId: &#45;1, attributes: 512, notes: &quot;&quot; -->
<g id="node45" class="node">
<title>69</title>
<ellipse fill="none" stroke="black" cx="1777.04" cy="-396" rx="68.53" ry="18"/>
<text text-anchor="middle" x="1777.04" y="-390.57" font-family="Times New Roman,serif" font-size="14.00">MapDecoration</text>
</g>
<!-- 55&#45;&gt;69 -->
<g id="edge44" class="edge">
<title>55&#45;&gt;69</title>
<path fill="none" stroke="black" d="M1569.04,-396C1607.97,-396 1656.49,-396 1696.77,-396"/>
<polygon fill="black" stroke="black" points="1696.65,-399.5 1706.65,-396 1696.65,-392.5 1696.65,-399.5"/>
</g>
<!-- 71 -->
<!-- name: &quot;If False&quot;, typeName: &quot;&quot;, id: 71, branchId: 0, recurseId: &#45;1, attributes: 4, notes: &quot;&quot; -->
<g id="node47" class="node">
<title>71</title>
<polygon fill="none" stroke="black" points="655.88,-360 601.3,-342 655.88,-324 710.45,-342 655.88,-360"/>
<text text-anchor="middle" x="655.88" y="-336.57" font-family="Times New Roman,serif" font-size="14.00">If False</text>
</g>
<!-- 70&#45;&gt;71 -->
<g id="edge46" class="edge">
<title>70&#45;&gt;71</title>
<path fill="none" stroke="black" d="M556.29,-342C567.38,-342 578.3,-342 588.6,-342"/>
<polygon fill="black" stroke="black" points="588.43,-345.5 598.43,-342 588.43,-338.5 588.43,-345.5"/>
</g>
<!-- 73 -->
<!-- name: &quot;If True&quot;, typeName: &quot;&quot;, id: 73, branchId: 1, recurseId: &#45;1, attributes: 4, notes: &quot;&quot; -->
<g id="node49" class="node">
<title>73</title>
<polygon fill="none" stroke="black" points="655.88,-225 604.13,-207 655.88,-189 707.63,-207 655.88,-225"/>
<text text-anchor="middle" x="655.88" y="-201.57" font-family="Times New Roman,serif" font-size="14.00">If True</text>
</g>
<!-- 70&#45;&gt;73 -->
<g id="edge48" class="edge">
<title>70&#45;&gt;73</title>
<path fill="none" stroke="black" d="M463.43,-323.51C506.4,-297.36 584.36,-249.91 626.32,-224.38"/>
<polygon fill="black" stroke="black" points="627.91,-227.51 634.63,-219.32 624.27,-221.53 627.91,-227.51"/>
</g>
<!-- 72 -->
<!-- name: &quot;[No Data]&quot;, typeName: &quot;&quot;, id: 72, branchId: 0, recurseId: &#45;1, attributes: 512, notes: &quot;&quot; -->
<g id="node48" class="node">
<title>72</title>
<ellipse fill="none" stroke="black" cx="1777.04" cy="-342" rx="47.57" ry="18"/>
<text text-anchor="middle" x="1777.04" y="-336.57" font-family="Times New Roman,serif" font-size="14.00">[No Data]</text>
</g>
<!-- 71&#45;&gt;72 -->
<g id="edge47" class="edge">
<title>71&#45;&gt;72</title>
<path fill="none" stroke="black" d="M712,-342C901.27,-342 1523.71,-342 1717.75,-342"/>
<polygon fill="black" stroke="black" points="1717.58,-345.5 1727.58,-342 1717.58,-338.5 1717.58,-345.5"/>
</g>
<!-- 74 -->
<!-- name: &quot;Texture Width&quot;, typeName: &quot;&quot;, id: 74, branchId: 0, recurseId: &#45;1, attributes: 0, notes: &quot;&quot; -->
<g id="node50" class="node">
<title>74</title>
<ellipse fill="none" stroke="black" cx="1497.69" cy="-284" rx="64.54" ry="18"/>
<text text-anchor="middle" x="1497.69" y="-278.57" font-family="Times New Roman,serif" font-size="14.00">Texture Width</text>
</g>
<!-- 73&#45;&gt;74 -->
<g id="edge49" class="edge">
<title>73&#45;&gt;74</title>
<path fill="none" stroke="black" d="M672.2,-219.65C689.16,-232.79 717.89,-252.58 746.45,-261 988.45,-332.32 1293.52,-308.92 1427.85,-293.28"/>
<polygon fill="black" stroke="black" points="1428.13,-296.77 1437.65,-292.11 1427.31,-289.82 1428.13,-296.77"/>
</g>
<!-- 76 -->
<!-- name: &quot;Texture Height&quot;, typeName: &quot;&quot;, id: 76, branchId: 0, recurseId: &#45;1, attributes: 0, notes: &quot;&quot; -->
<g id="node52" class="node">
<title>76</title>
<ellipse fill="none" stroke="black" cx="960.33" cy="-234" rx="65.53" ry="18"/>
<text text-anchor="middle" x="960.33" y="-228.57" font-family="Times New Roman,serif" font-size="14.00">Texture Height</text>
</g>
<!-- 73&#45;&gt;76 -->
<g id="edge51" class="edge">
<title>73&#45;&gt;76</title>
<path fill="none" stroke="black" d="M698.3,-210.7C746.63,-215.01 827.43,-222.23 886.35,-227.49"/>
<polygon fill="black" stroke="black" points="885.68,-230.94 895.95,-228.34 886.3,-223.97 885.68,-230.94"/>
</g>
<!-- 78 -->
<!-- name: &quot;X&#45;TexCoordinate&quot;, typeName: &quot;&quot;, id: 78, branchId: 0, recurseId: &#45;1, attributes: 0, notes: &quot;&quot; -->
<g id="node54" class="node">
<title>78</title>
<ellipse fill="none" stroke="black" cx="960.33" cy="-180" rx="76.01" ry="18"/>
<text text-anchor="middle" x="960.33" y="-174.57" font-family="Times New Roman,serif" font-size="14.00">X&#45;TexCoordinate</text>
</g>
<!-- 73&#45;&gt;78 -->
<g id="edge53" class="edge">
<title>73&#45;&gt;78</title>
<path fill="none" stroke="black" d="M698.3,-203.3C744.18,-199.21 819.32,-192.5 877.22,-187.33"/>
<polygon fill="black" stroke="black" points="877.41,-190.83 887.05,-186.45 876.78,-183.85 877.41,-190.83"/>
</g>
<!-- 80 -->
<!-- name: &quot;Y&#45;TexCoordinate&quot;, typeName: &quot;&quot;, id: 80, branchId: 0, recurseId: &#45;1, attributes: 0, notes: &quot;&quot; -->
<g id="node56" class="node">
<title>80</title>
<ellipse fill="none" stroke="black" cx="960.33" cy="-126" rx="76.01" ry="18"/>
<text text-anchor="middle" x="960.33" y="-120.58" font-family="Times New Roman,serif" font-size="14.00">Y&#45;TexCoordinate</text>
</g>
<!-- 73&#45;&gt;80 -->
<g id="edge55" class="edge">
<title>73&#45;&gt;80</title>
<path fill="none" stroke="black" d="M672.68,-194.64C689.82,-181.95 718.49,-162.71 746.45,-153 786.81,-138.98 833.73,-132.1 873.23,-128.78"/>
<polygon fill="black" stroke="black" points="873.49,-132.27 883.19,-128.02 872.95,-125.29 873.49,-132.27"/>
</g>
<!-- 82 -->
<!-- name: &quot;Pixels&quot;, typeName: &quot;&quot;, id: 82, branchId: 0, recurseId: &#45;1, attributes: 8, notes: &quot;&quot; -->
<g id="node58" class="node">
<title>82</title>
<ellipse fill="none" stroke="black" cx="960.33" cy="-72" rx="32.6" ry="18"/>
<text text-anchor="middle" x="960.33" y="-66.58" font-family="Times New Roman,serif" font-size="14.00">Pixels</text>
</g>
<!-- 73&#45;&gt;82 -->
<g id="edge57" class="edge">
<title>73&#45;&gt;82</title>
<path fill="none" stroke="black" d="M664.61,-191.69C677.76,-167.44 706.95,-120.7 746.45,-99 799.65,-69.78 871.37,-66.82 916.48,-68.52"/>
<polygon fill="black" stroke="black" points="916.23,-72.02 926.39,-69.01 916.57,-65.03 916.23,-72.02"/>
</g>
<!-- 75 -->
<!-- name: &quot;varint&quot;, typeName: &quot;&quot;, id: 75, branchId: 0, recurseId: &#45;1, attributes: 512, notes: &quot;&quot; -->
<g id="node51" class="node">
<title>75</title>
<ellipse fill="none" stroke="black" cx="1777.04" cy="-288" rx="31.1" ry="18"/>
<text text-anchor="middle" x="1777.04" y="-282.57" font-family="Times New Roman,serif" font-size="14.00">varint</text>
</g>
<!-- 74&#45;&gt;75 -->
<g id="edge50" class="edge">
<title>74&#45;&gt;75</title>
<path fill="none" stroke="black" d="M1562.32,-284.92C1615.14,-285.68 1688.74,-286.74 1734.33,-287.4"/>
<polygon fill="black" stroke="black" points="1734.01,-290.89 1744.06,-287.54 1734.11,-283.89 1734.01,-290.89"/>
</g>
<!-- 77 -->
<!-- name: &quot;varint&quot;, typeName: &quot;&quot;, id: 77, branchId: 0, recurseId: &#45;1, attributes: 512, notes: &quot;&quot; -->
<g id="node53" class="node">
<title>77</title>
<ellipse fill="none" stroke="black" cx="1777.04" cy="-234" rx="31.1" ry="18"/>
<text text-anchor="middle" x="1777.04" y="-228.57" font-family="Times New Roman,serif" font-size="14.00">varint</text>
</g>
<!-- 76&#45;&gt;77 -->
<g id="edge52" class="edge">
<title>76&#45;&gt;77</title>
<path fill="none" stroke="black" d="M1026.28,-234C1187.29,-234 1601.42,-234 1734.32,-234"/>
<polygon fill="black" stroke="black" points="1734.05,-237.5 1744.05,-234 1734.05,-230.5 1734.05,-237.5"/>
</g>
<!-- 79 -->
<!-- name: &quot;varint&quot;, typeName: &quot;&quot;, id: 79, branchId: 0, recurseId: &#45;1, attributes: 512, notes: &quot;&quot; -->
<g id="node55" class="node">
<title>79</title>
<ellipse fill="none" stroke="black" cx="1777.04" cy="-180" rx="31.1" ry="18"/>
<text text-anchor="middle" x="1777.04" y="-174.57" font-family="Times New Roman,serif" font-size="14.00">varint</text>
</g>
<!-- 78&#45;&gt;79 -->
<g id="edge54" class="edge">
<title>78&#45;&gt;79</title>
<path fill="none" stroke="black" d="M1036.51,-180C1204.21,-180 1604.3,-180 1734.39,-180"/>
<polygon fill="black" stroke="black" points="1734.26,-183.5 1744.26,-180 1734.26,-176.5 1734.26,-183.5"/>
</g>
<!-- 81 -->
<!-- name: &quot;varint&quot;, typeName: &quot;&quot;, id: 81, branchId: 0, recurseId: &#45;1, attributes: 512, notes: &quot;&quot; -->
<g id="node57" class="node">
<title>81</title>
<ellipse fill="none" stroke="black" cx="1777.04" cy="-126" rx="31.1" ry="18"/>
<text text-anchor="middle" x="1777.04" y="-120.58" font-family="Times New Roman,serif" font-size="14.00">varint</text>
</g>
<!-- 80&#45;&gt;81 -->
<g id="edge56" class="edge">
<title>80&#45;&gt;81</title>
<path fill="none" stroke="black" d="M1036.51,-126C1204.21,-126 1604.3,-126 1734.39,-126"/>
<polygon fill="black" stroke="black" points="1734.26,-129.5 1744.26,-126 1734.26,-122.5 1734.26,-129.5"/>
</g>
<!-- 83 -->
<!-- name: &quot;List Size&quot;, typeName: &quot;&quot;, id: 83, branchId: 0, recurseId: &#45;1, attributes: 0, notes: &quot;&quot; -->
<g id="node59" class="node">
<title>83</title>
<ellipse fill="none" stroke="black" cx="1281.72" cy="-72" rx="42.58" ry="18"/>
<text text-anchor="middle" x="1281.72" y="-66.58" font-family="Times New Roman,serif" font-size="14.00">List Size</text>
</g>
<!-- 82&#45;&gt;83 -->
<g id="edge58" class="edge">
<title>82&#45;&gt;83</title>
<path fill="none" stroke="black" d="M993.41,-72C1048.37,-72 1161.02,-72 1227.77,-72"/>
<polygon fill="black" stroke="black" points="1227.36,-75.5 1237.36,-72 1227.36,-68.5 1227.36,-75.5"/>
</g>
<!-- 85 -->
<!-- name: &quot;example element&quot;, typeName: &quot;&quot;, id: 85, branchId: 0, recurseId: &#45;1, attributes: 16, notes: &quot;&quot; -->
<g id="node61" class="node">
<title>85</title>
<ellipse fill="none" stroke="black" stroke-dasharray="1,5" cx="1281.72" cy="-18" rx="71.52" ry="18"/>
<text text-anchor="middle" x="1281.72" y="-12.57" font-family="Times New Roman,serif" font-size="14.00">example element</text>
</g>
<!-- 82&#45;&gt;85 -->
<g id="edge60" class="edge">
<title>82&#45;&gt;85</title>
<path fill="none" stroke="black" d="M991.95,-66.82C1041.87,-58.38 1142.04,-41.45 1210.24,-29.92"/>
<polygon fill="black" stroke="black" points="1210.55,-33.41 1219.83,-28.3 1209.39,-26.51 1210.55,-33.41"/>
</g>
<!-- 84 -->
<!-- name: &quot;unsigned varint&quot;, typeName: &quot;&quot;, id: 84, branchId: 0, recurseId: &#45;1, attributes: 512, notes: &quot;&quot; -->
<g id="node60" class="node">
<title>84</title>
<ellipse fill="none" stroke="black" cx="1777.04" cy="-72" rx="66.53" ry="18"/>
<text text-anchor="middle" x="1777.04" y="-66.58" font-family="Times New Roman,serif" font-size="14.00">unsigned varint</text>
</g>
<!-- 83&#45;&gt;84 -->
<g id="edge59" class="edge">
<title>83&#45;&gt;84</title>
<path fill="none" stroke="black" d="M1324.78,-72C1407.74,-72 1593.52,-72 1699.02,-72"/>
<polygon fill="black" stroke="black" points="1698.71,-75.5 1708.71,-72 1698.71,-68.5 1698.71,-75.5"/>
</g>
<!-- 86 -->
<!-- name: &quot;Pixel&quot;, typeName: &quot;&quot;, id: 86, branchId: 0, recurseId: &#45;1, attributes: 0, notes: &quot;&quot; -->
<g id="node62" class="node">
<title>86</title>
<ellipse fill="none" stroke="black" cx="1497.69" cy="-18" rx="28.61" ry="18"/>
<text text-anchor="middle" x="1497.69" y="-12.57" font-family="Times New Roman,serif" font-size="14.00">Pixel</text>
</g>
<!-- 85&#45;&gt;86 -->
<g id="edge61" class="edge">
<title>85&#45;&gt;86</title>
<path fill="none" stroke="black" d="M1353.68,-18C1388.21,-18 1428.42,-18 1457.39,-18"/>
<polygon fill="black" stroke="black" points="1457.17,-21.5 1467.17,-18 1457.17,-14.5 1457.17,-21.5"/>
</g>
<!-- 87 -->
<!-- name: &quot;unsigned varint&quot;, typeName: &quot;&quot;, id: 87, branchId: 0, recurseId: &#45;1, attributes: 512, notes: &quot;&quot; -->
<g id="node63" class="node">
<title>87</title>
<ellipse fill="none" stroke="black" cx="1777.04" cy="-18" rx="66.53" ry="18"/>
<text text-anchor="middle" x="1777.04" y="-12.57" font-family="Times New Roman,serif" font-size="14.00">unsigned varint</text>
</g>
<!-- 86&#45;&gt;87 -->
<g id="edge62" class="edge">
<title>86&#45;&gt;87</title>
<path fill="none" stroke="black" d="M1526.56,-18C1566.48,-18 1641.46,-18 1698.84,-18"/>
<polygon fill="black" stroke="black" points="1698.55,-21.5 1708.55,-18 1698.55,-14.5 1698.55,-21.5"/>
</g>
</g>
</svg>
