<?xml version="1.0" encoding="UTF-8" standalone="no"?>
<!DOCTYPE svg PUBLIC "-//W3C//DTD SVG 1.1//EN"
 "http://www.w3.org/Graphics/SVG/1.1/DTD/svg11.dtd">
<!-- Generated by graphviz version 2.46.1 (20210213.1702)
 -->
<!-- Title: ClientCacheBlobStatusPacket Pages: 1 -->
<svg width="1075pt" height="206pt"
 viewBox="0.00 0.00 1074.92 206.00" xmlns="http://www.w3.org/2000/svg" xmlns:xlink="http://www.w3.org/1999/xlink">
<g id="graph0" class="graph" transform="scale(1 1) rotate(0) translate(4 202)">
<title>ClientCacheBlobStatusPacket</title>
<polygon fill="white" stroke="transparent" points="-4,4 -4,-202 1070.92,-202 1070.92,4 -4,4"/>
<!-- 0 -->
<!-- name: &quot;ClientCacheBlobStatusPacket&quot;, typeName: &quot;&quot;, id: 0, branchId: 135, recurseId: &#45;1, attributes: 0, notes: &quot;&quot; -->
<g id="node1" class="node">
<title>0</title>
<ellipse fill="none" stroke="black" cx="118.94" cy="-99" rx="118.88" ry="18"/>
<text text-anchor="middle" x="118.94" y="-95.3" font-family="Times New Roman,serif" font-size="14.00">ClientCacheBlobStatusPacket</text>
</g>
<!-- 1 -->
<!-- name: &quot;Number of missing blobs&quot;, typeName: &quot;&quot;, id: 1, branchId: 0, recurseId: &#45;1, attributes: 0, notes: &quot;&quot; -->
<g id="node2" class="node">
<title>1</title>
<ellipse fill="none" stroke="black" cx="547.76" cy="-175" rx="102.88" ry="18"/>
<text text-anchor="middle" x="547.76" y="-171.3" font-family="Times New Roman,serif" font-size="14.00">Number of missing blobs</text>
</g>
<!-- 0&#45;&gt;1 -->
<g id="edge1" class="edge">
<title>0&#45;&gt;1</title>
<path fill="none" stroke="black" d="M175.89,-114.8C204.95,-122.59 241.13,-131.65 273.88,-138 331.75,-149.22 397.18,-158.21 449.46,-164.52"/>
<polygon fill="black" stroke="black" points="449.05,-168 459.4,-165.71 449.88,-161.05 449.05,-168"/>
</g>
<!-- 3 -->
<!-- name: &quot;Number of obtained blobs&quot;, typeName: &quot;&quot;, id: 3, branchId: 0, recurseId: &#45;1, attributes: 0, notes: &quot;&quot; -->
<g id="node4" class="node">
<title>3</title>
<ellipse fill="none" stroke="black" cx="793.04" cy="-126" rx="106.68" ry="18"/>
<text text-anchor="middle" x="793.04" y="-122.3" font-family="Times New Roman,serif" font-size="14.00">Number of obtained blobs</text>
</g>
<!-- 0&#45;&gt;3 -->
<g id="edge3" class="edge">
<title>0&#45;&gt;3</title>
<path fill="none" stroke="black" d="M234.33,-103.6C358.44,-108.58 555.34,-116.49 678.94,-121.46"/>
<polygon fill="black" stroke="black" points="679.05,-124.96 689.18,-121.87 679.33,-117.97 679.05,-124.96"/>
</g>
<!-- 5 -->
<!-- name: &quot;Missing Blobs&quot;, typeName: &quot;&quot;, id: 5, branchId: 0, recurseId: &#45;1, attributes: 8, notes: &quot;&quot; -->
<g id="node6" class="node">
<title>5</title>
<ellipse fill="none" stroke="black" cx="341.47" cy="-76" rx="63.09" ry="18"/>
<text text-anchor="middle" x="341.47" y="-72.3" font-family="Times New Roman,serif" font-size="14.00">Missing Blobs</text>
</g>
<!-- 0&#45;&gt;5 -->
<g id="edge5" class="edge">
<title>0&#45;&gt;5</title>
<path fill="none" stroke="black" d="M217.31,-88.84C235.73,-86.92 254.64,-84.95 271.95,-83.15"/>
<polygon fill="black" stroke="black" points="272.35,-86.62 281.93,-82.11 271.62,-79.66 272.35,-86.62"/>
</g>
<!-- 9 -->
<!-- name: &quot;Obtained Blobs&quot;, typeName: &quot;&quot;, id: 9, branchId: 0, recurseId: &#45;1, attributes: 8, notes: &quot;&quot; -->
<g id="node10" class="node">
<title>9</title>
<ellipse fill="none" stroke="black" cx="341.47" cy="-22" rx="67.69" ry="18"/>
<text text-anchor="middle" x="341.47" y="-18.3" font-family="Times New Roman,serif" font-size="14.00">Obtained Blobs</text>
</g>
<!-- 0&#45;&gt;9 -->
<g id="edge9" class="edge">
<title>0&#45;&gt;9</title>
<path fill="none" stroke="black" d="M167.25,-82.48C203.38,-69.87 253.08,-52.51 289.98,-39.63"/>
<polygon fill="black" stroke="black" points="291.25,-42.89 299.54,-36.29 288.95,-36.28 291.25,-42.89"/>
</g>
<!-- 2 -->
<!-- name: &quot;unsigned varint&quot;, typeName: &quot;&quot;, id: 2, branchId: 0, recurseId: &#45;1, attributes: 512, notes: &quot;&quot; -->
<g id="node3" class="node">
<title>2</title>
<ellipse fill="none" stroke="black" cx="1001.27" cy="-180" rx="65.79" ry="18"/>
<text text-anchor="middle" x="1001.27" y="-176.3" font-family="Times New Roman,serif" font-size="14.00">unsigned varint</text>
</g>
<!-- 1&#45;&gt;2 -->
<g id="edge2" class="edge">
<title>1&#45;&gt;2</title>
<path fill="none" stroke="black" d="M650.37,-176.13C733.82,-177.05 850.12,-178.34 925.31,-179.17"/>
<polygon fill="black" stroke="black" points="925.6,-182.67 935.64,-179.28 925.67,-175.67 925.6,-182.67"/>
</g>
<!-- 4 -->
<!-- name: &quot;unsigned varint&quot;, typeName: &quot;&quot;, id: 4, branchId: 0, recurseId: &#45;1, attributes: 512, notes: &quot;&quot; -->
<g id="node5" class="node">
<title>4</title>
<ellipse fill="none" stroke="black" cx="1001.27" cy="-126" rx="65.79" ry="18"/>
<text text-anchor="middle" x="1001.27" y="-122.3" font-family="Times New Roman,serif" font-size="14.00">unsigned varint</text>
</g>
<!-- 3&#45;&gt;4 -->
<g id="edge4" class="edge">
<title>3&#45;&gt;4</title>
<path fill="none" stroke="black" d="M899.88,-126C908.52,-126 917.15,-126 925.5,-126"/>
<polygon fill="black" stroke="black" points="925.54,-129.5 935.54,-126 925.54,-122.5 925.54,-129.5"/>
</g>
<!-- 6 -->
<!-- name: &quot;example element&quot;, typeName: &quot;&quot;, id: 6, branchId: 0, recurseId: &#45;1, attributes: 16, notes: &quot;&quot; -->
<g id="node7" class="node">
<title>6</title>
<ellipse fill="none" stroke="black" stroke-dasharray="1,5" cx="547.76" cy="-76" rx="70.39" ry="18"/>
<text text-anchor="middle" x="547.76" y="-72.3" font-family="Times New Roman,serif" font-size="14.00">example element</text>
</g>
<!-- 5&#45;&gt;6 -->
<g id="edge6" class="edge">
<title>5&#45;&gt;6</title>
<path fill="none" stroke="black" d="M404.6,-76C424.37,-76 446.52,-76 467.34,-76"/>
<polygon fill="black" stroke="black" points="467.44,-79.5 477.44,-76 467.44,-72.5 467.44,-79.5"/>
</g>
<!-- 7 -->
<!-- name: &quot;Blob Id&quot;, typeName: &quot;&quot;, id: 7, branchId: 0, recurseId: &#45;1, attributes: 0, notes: &quot;&quot; -->
<g id="node8" class="node">
<title>7</title>
<ellipse fill="none" stroke="black" cx="793.04" cy="-72" rx="38.19" ry="18"/>
<text text-anchor="middle" x="793.04" y="-68.3" font-family="Times New Roman,serif" font-size="14.00">Blob Id</text>
</g>
<!-- 6&#45;&gt;7 -->
<g id="edge7" class="edge">
<title>6&#45;&gt;7</title>
<path fill="none" stroke="black" d="M617.82,-74.86C658.22,-74.2 708.21,-73.38 744.26,-72.79"/>
<polygon fill="black" stroke="black" points="744.57,-76.28 754.51,-72.62 744.45,-69.28 744.57,-76.28"/>
</g>
<!-- 8 -->
<!-- name: &quot;unsigned int64&quot;, typeName: &quot;&quot;, id: 8, branchId: 0, recurseId: &#45;1, attributes: 512, notes: &quot;&quot; -->
<g id="node9" class="node">
<title>8</title>
<ellipse fill="none" stroke="black" cx="1001.27" cy="-72" rx="63.09" ry="18"/>
<text text-anchor="middle" x="1001.27" y="-68.3" font-family="Times New Roman,serif" font-size="14.00">unsigned int64</text>
</g>
<!-- 7&#45;&gt;8 -->
<g id="edge8" class="edge">
<title>7&#45;&gt;8</title>
<path fill="none" stroke="black" d="M831.39,-72C858.2,-72 895.2,-72 927.73,-72"/>
<polygon fill="black" stroke="black" points="928.12,-75.5 938.12,-72 928.12,-68.5 928.12,-75.5"/>
</g>
<!-- 10 -->
<!-- name: &quot;example element&quot;, typeName: &quot;&quot;, id: 10, branchId: 0, recurseId: &#45;1, attributes: 16, notes: &quot;&quot; -->
<g id="node11" class="node">
<title>10</title>
<ellipse fill="none" stroke="black" stroke-dasharray="1,5" cx="547.76" cy="-22" rx="70.39" ry="18"/>
<text text-anchor="middle" x="547.76" y="-18.3" font-family="Times New Roman,serif" font-size="14.00">example element</text>
</g>
<!-- 9&#45;&gt;10 -->
<g id="edge10" class="edge">
<title>9&#45;&gt;10</title>
<path fill="none" stroke="black" d="M409.08,-22C427.64,-22 447.98,-22 467.2,-22"/>
<polygon fill="black" stroke="black" points="467.43,-25.5 477.43,-22 467.43,-18.5 467.43,-25.5"/>
</g>
<!-- 11 -->
<!-- name: &quot;Blob Id&quot;, typeName: &quot;&quot;, id: 11, branchId: 0, recurseId: &#45;1, attributes: 0, notes: &quot;&quot; -->
<g id="node12" class="node">
<title>11</title>
<ellipse fill="none" stroke="black" cx="793.04" cy="-18" rx="38.19" ry="18"/>
<text text-anchor="middle" x="793.04" y="-14.3" font-family="Times New Roman,serif" font-size="14.00">Blob Id</text>
</g>
<!-- 10&#45;&gt;11 -->
<g id="edge11" class="edge">
<title>10&#45;&gt;11</title>
<path fill="none" stroke="black" d="M617.82,-20.86C658.22,-20.2 708.21,-19.38 744.26,-18.79"/>
<polygon fill="black" stroke="black" points="744.57,-22.28 754.51,-18.62 744.45,-15.28 744.57,-22.28"/>
</g>
<!-- 12 -->
<!-- name: &quot;unsigned int64&quot;, typeName: &quot;&quot;, id: 12, branchId: 0, recurseId: &#45;1, attributes: 512, notes: &quot;&quot; -->
<g id="node13" class="node">
<title>12</title>
<ellipse fill="none" stroke="black" cx="1001.27" cy="-18" rx="63.09" ry="18"/>
<text text-anchor="middle" x="1001.27" y="-14.3" font-family="Times New Roman,serif" font-size="14.00">unsigned int64</text>
</g>
<!-- 11&#45;&gt;12 -->
<g id="edge12" class="edge">
<title>11&#45;&gt;12</title>
<path fill="none" stroke="black" d="M831.39,-18C858.2,-18 895.2,-18 927.73,-18"/>
<polygon fill="black" stroke="black" points="928.12,-21.5 938.12,-18 928.12,-14.5 928.12,-21.5"/>
</g>
</g>
</svg>
