<?xml version="1.0" encoding="UTF-8" standalone="no"?>
<!DOCTYPE svg PUBLIC "-//W3C//DTD SVG 1.1//EN"
 "http://www.w3.org/Graphics/SVG/1.1/DTD/svg11.dtd">
<!-- Generated by graphviz version 14.1.1 (20251213.1925)
 -->
<!-- Title: CodeBuilderRuntimeAction Pages: 1 -->
<svg width="614pt" height="44pt"
 viewBox="0.00 0.00 614.00 44.00" xmlns="http://www.w3.org/2000/svg" xmlns:xlink="http://www.w3.org/1999/xlink">
<g id="graph0" class="graph" transform="scale(1 1) rotate(0) translate(4 40)">
<title>CodeBuilderRuntimeAction</title>
<polygon fill="white" stroke="none" points="-4,4 -4,-40 610.33,-40 610.33,4 -4,4"/>
<!-- 0 -->
<!-- name: &quot;CodeBuilderRuntimeAction&quot;, typeName: &quot;&quot;, id: 0, branchId: 0, recurseId: &#45;1, attributes: 0, notes: &quot;&quot; -->
<g id="node1" class="node">
<title>0</title>
<ellipse fill="none" stroke="black" cx="115.33" cy="-18" rx="115.33" ry="18"/>
<text xml:space="preserve" text-anchor="middle" x="115.33" y="-12.95" font-family="Times New Roman,serif" font-size="14.00">CodeBuilderRuntimeAction</text>
</g>
<!-- 1 -->
<!-- name: &quot;CodeBuilder Runtime Action&quot;, typeName: &quot;&quot;, id: 1, branchId: 0, recurseId: &#45;1, attributes: 0, notes: &quot;&quot; -->
<g id="node2" class="node">
<title>1</title>
<ellipse fill="none" stroke="black" cx="386.59" cy="-18" rx="119.93" ry="18"/>
<text xml:space="preserve" text-anchor="middle" x="386.59" y="-12.95" font-family="Times New Roman,serif" font-size="14.00">CodeBuilder Runtime Action</text>
</g>
<!-- 0&#45;&gt;1 -->
<g id="edge1" class="edge">
<title>0&#45;&gt;1</title>
<path fill="none" stroke="black" d="M230.91,-18C238.89,-18 246.96,-18 255.01,-18"/>
<polygon fill="black" stroke="black" points="254.86,-21.5 264.86,-18 254.86,-14.5 254.86,-21.5"/>
</g>
<!-- 2 -->
<!-- name: &quot;string&quot;, typeName: &quot;&quot;, id: 2, branchId: 0, recurseId: &#45;1, attributes: 512, notes: &quot;&quot; -->
<g id="node3" class="node">
<title>2</title>
<ellipse fill="none" stroke="black" cx="574.42" cy="-18" rx="31.9" ry="18"/>
<text xml:space="preserve" text-anchor="middle" x="574.42" y="-12.95" font-family="Times New Roman,serif" font-size="14.00">string</text>
</g>
<!-- 1&#45;&gt;2 -->
<g id="edge2" class="edge">
<title>1&#45;&gt;2</title>
<path fill="none" stroke="black" d="M506.86,-18C515.2,-18 523.23,-18 530.66,-18"/>
<polygon fill="black" stroke="black" points="530.63,-21.5 540.63,-18 530.63,-14.5 530.63,-21.5"/>
</g>
</g>
</svg>
