<?xml version="1.0" encoding="UTF-8" standalone="no"?>
<!DOCTYPE svg PUBLIC "-//W3C//DTD SVG 1.1//EN"
 "http://www.w3.org/Graphics/SVG/1.1/DTD/svg11.dtd">
<!-- Generated by graphviz version 9.0.0 (20230911.1827)
 -->
<!-- Title: CodeBuilderPacket Pages: 1 -->
<svg width="521pt" height="98pt"
 viewBox="0.00 0.00 521.11 98.00" xmlns="http://www.w3.org/2000/svg" xmlns:xlink="http://www.w3.org/1999/xlink">
<g id="graph0" class="graph" transform="scale(1 1) rotate(0) translate(4 94)">
<title>CodeBuilderPacket</title>
<polygon fill="white" stroke="none" points="-4,4 -4,-94 517.11,-94 517.11,4 -4,4"/>
<!-- 0 -->
<!-- name: &quot;CodeBuilderPacket&quot;, typeName: &quot;&quot;, id: 0, branchId: 150, recurseId: &#45;1, attributes: 0, notes: &quot;&quot; -->
<g id="node1" class="node">
<title>0</title>
<ellipse fill="none" stroke="black" cx="82.5" cy="-45" rx="82.5" ry="18"/>
<text text-anchor="middle" x="82.5" y="-39.58" font-family="Times New Roman,serif" font-size="14.00">CodeBuilderPacket</text>
</g>
<!-- 1 -->
<!-- name: &quot;URL&quot;, typeName: &quot;&quot;, id: 1, branchId: 0, recurseId: &#45;1, attributes: 0, notes: &quot;&quot; -->
<g id="node2" class="node">
<title>1</title>
<ellipse fill="none" stroke="black" cx="307.95" cy="-72" rx="29.11" ry="18"/>
<text text-anchor="middle" x="307.95" y="-66.58" font-family="Times New Roman,serif" font-size="14.00">URL</text>
</g>
<!-- 0&#45;&gt;1 -->
<g id="edge1" class="edge">
<title>0&#45;&gt;1</title>
<path fill="none" stroke="black" d="M155.43,-53.69C192.76,-58.2 236.92,-63.54 267.9,-67.28"/>
<polygon fill="black" stroke="black" points="267.24,-70.73 277.58,-68.45 268.08,-63.78 267.24,-70.73"/>
</g>
<!-- 3 -->
<!-- name: &quot;Should open code builder&quot;, typeName: &quot;&quot;, id: 3, branchId: 0, recurseId: &#45;1, attributes: 0, notes: &quot;&quot; -->
<g id="node4" class="node">
<title>3</title>
<ellipse fill="none" stroke="black" cx="307.95" cy="-18" rx="106.95" ry="18"/>
<text text-anchor="middle" x="307.95" y="-12.57" font-family="Times New Roman,serif" font-size="14.00">Should open code builder</text>
</g>
<!-- 0&#45;&gt;3 -->
<g id="edge3" class="edge">
<title>0&#45;&gt;3</title>
<path fill="none" stroke="black" d="M155.43,-36.31C172.36,-34.26 190.69,-32.05 208.57,-29.89"/>
<polygon fill="black" stroke="black" points="208.91,-33.37 218.42,-28.7 208.07,-26.42 208.91,-33.37"/>
</g>
<!-- 2 -->
<!-- name: &quot;string&quot;, typeName: &quot;&quot;, id: 2, branchId: 0, recurseId: &#45;1, attributes: 512, notes: &quot;&quot; -->
<g id="node3" class="node">
<title>2</title>
<ellipse fill="none" stroke="black" cx="482.01" cy="-72" rx="31.1" ry="18"/>
<text text-anchor="middle" x="482.01" y="-66.58" font-family="Times New Roman,serif" font-size="14.00">string</text>
</g>
<!-- 1&#45;&gt;2 -->
<g id="edge2" class="edge">
<title>1&#45;&gt;2</title>
<path fill="none" stroke="black" d="M337.36,-72C365.16,-72 407.81,-72 439.42,-72"/>
<polygon fill="black" stroke="black" points="439.01,-75.5 449.01,-72 439.01,-68.5 439.01,-75.5"/>
</g>
<!-- 4 -->
<!-- name: &quot;bool&quot;, typeName: &quot;&quot;, id: 4, branchId: 0, recurseId: &#45;1, attributes: 512, notes: &quot;&quot; -->
<g id="node5" class="node">
<title>4</title>
<ellipse fill="none" stroke="black" cx="482.01" cy="-18" rx="27.61" ry="18"/>
<text text-anchor="middle" x="482.01" y="-12.57" font-family="Times New Roman,serif" font-size="14.00">bool</text>
</g>
<!-- 3&#45;&gt;4 -->
<g id="edge4" class="edge">
<title>3&#45;&gt;4</title>
<path fill="none" stroke="black" d="M414.98,-18C424.76,-18 434.17,-18 442.67,-18"/>
<polygon fill="black" stroke="black" points="442.52,-21.5 452.52,-18 442.52,-14.5 442.52,-21.5"/>
</g>
</g>
</svg>
