<?xml version="1.0" encoding="UTF-8" standalone="no"?>
<!DOCTYPE svg PUBLIC "-//W3C//DTD SVG 1.1//EN"
 "http://www.w3.org/Graphics/SVG/1.1/DTD/svg11.dtd">
<!-- Generated by graphviz version 12.2.1 (20241206.2353)
 -->
<!-- Title: CodeBuilderSourcePacket Pages: 1 -->
<svg width="456pt" height="152pt"
 viewBox="0.00 0.00 456.10 152.00" xmlns="http://www.w3.org/2000/svg" xmlns:xlink="http://www.w3.org/1999/xlink">
<g id="graph0" class="graph" transform="scale(1 1) rotate(0) translate(4 148)">
<title>CodeBuilderSourcePacket</title>
<polygon fill="white" stroke="none" points="-4,4 -4,-148 452.1,-148 452.1,4 -4,4"/>
<!-- 0 -->
<!-- name: &quot;CodeBuilderSourcePacket&quot;, typeName: &quot;&quot;, id: 0, branchId: 178, recurseId: &#45;1, attributes: 0, notes: &quot;&quot; -->
<g id="node1" class="node">
<title>0</title>
<ellipse fill="none" stroke="black" cx="108.16" cy="-72" rx="108.16" ry="18"/>
<text text-anchor="middle" x="108.16" y="-66.95" font-family="Times New Roman,serif" font-size="14.00">CodeBuilderSourcePacket</text>
</g>
<!-- 1 -->
<!-- name: &quot;Operation&quot;, typeName: &quot;&quot;, id: 1, branchId: 0, recurseId: &#45;1, attributes: 0, notes: &quot;&quot; -->
<g id="node2" class="node">
<title>1</title>
<ellipse fill="none" stroke="black" cx="305.21" cy="-126" rx="47.77" ry="18"/>
<text text-anchor="middle" x="305.21" y="-120.95" font-family="Times New Roman,serif" font-size="14.00">Operation</text>
</g>
<!-- 0&#45;&gt;1 -->
<g id="edge1" class="edge">
<title>0&#45;&gt;1</title>
<path fill="none" stroke="black" d="M165.58,-87.62C193.86,-95.45 227.79,-104.84 255,-112.38"/>
<polygon fill="black" stroke="black" points="253.8,-115.68 264.37,-114.97 255.67,-108.93 253.8,-115.68"/>
</g>
<!-- 3 -->
<!-- name: &quot;Category&quot;, typeName: &quot;&quot;, id: 3, branchId: 0, recurseId: &#45;1, attributes: 0, notes: &quot;&quot; -->
<g id="node4" class="node">
<title>3</title>
<ellipse fill="none" stroke="black" cx="305.21" cy="-72" rx="44.7" ry="18"/>
<text text-anchor="middle" x="305.21" y="-66.95" font-family="Times New Roman,serif" font-size="14.00">Category</text>
</g>
<!-- 0&#45;&gt;3 -->
<g id="edge3" class="edge">
<title>0&#45;&gt;3</title>
<path fill="none" stroke="black" d="M216.67,-72C227.72,-72 238.59,-72 248.71,-72"/>
<polygon fill="black" stroke="black" points="248.71,-75.5 258.71,-72 248.71,-68.5 248.71,-75.5"/>
</g>
<!-- 5 -->
<!-- name: &quot;CodeStatus&quot;, typeName: &quot;&quot;, id: 5, branchId: 0, recurseId: &#45;1, attributes: 0, notes: &quot;&quot; -->
<g id="node6" class="node">
<title>5</title>
<ellipse fill="none" stroke="black" cx="305.21" cy="-18" rx="52.89" ry="18"/>
<text text-anchor="middle" x="305.21" y="-12.95" font-family="Times New Roman,serif" font-size="14.00">CodeStatus</text>
</g>
<!-- 0&#45;&gt;5 -->
<g id="edge5" class="edge">
<title>0&#45;&gt;5</title>
<path fill="none" stroke="black" d="M165.58,-56.38C192.95,-48.8 225.6,-39.76 252.34,-32.36"/>
<polygon fill="black" stroke="black" points="253.25,-35.74 261.95,-29.7 251.38,-29 253.25,-35.74"/>
</g>
<!-- 2 -->
<!-- name: &quot;byte&quot;, typeName: &quot;&quot;, id: 2, branchId: 0, recurseId: &#45;1, attributes: 512, notes: &quot;&quot; -->
<g id="node3" class="node">
<title>2</title>
<ellipse fill="none" stroke="black" cx="421.1" cy="-126" rx="27" ry="18"/>
<text text-anchor="middle" x="421.1" y="-120.95" font-family="Times New Roman,serif" font-size="14.00">byte</text>
</g>
<!-- 1&#45;&gt;2 -->
<g id="edge2" class="edge">
<title>1&#45;&gt;2</title>
<path fill="none" stroke="black" d="M353.19,-126C362.93,-126 373.06,-126 382.42,-126"/>
<polygon fill="black" stroke="black" points="382.24,-129.5 392.24,-126 382.24,-122.5 382.24,-129.5"/>
</g>
<!-- 4 -->
<!-- name: &quot;byte&quot;, typeName: &quot;&quot;, id: 4, branchId: 0, recurseId: &#45;1, attributes: 512, notes: &quot;&quot; -->
<g id="node5" class="node">
<title>4</title>
<ellipse fill="none" stroke="black" cx="421.1" cy="-72" rx="27" ry="18"/>
<text text-anchor="middle" x="421.1" y="-66.95" font-family="Times New Roman,serif" font-size="14.00">byte</text>
</g>
<!-- 3&#45;&gt;4 -->
<g id="edge4" class="edge">
<title>3&#45;&gt;4</title>
<path fill="none" stroke="black" d="M350.24,-72C360.77,-72 371.92,-72 382.15,-72"/>
<polygon fill="black" stroke="black" points="382.12,-75.5 392.12,-72 382.12,-68.5 382.12,-75.5"/>
</g>
<!-- 6 -->
<!-- name: &quot;byte&quot;, typeName: &quot;&quot;, id: 6, branchId: 0, recurseId: &#45;1, attributes: 512, notes: &quot;&quot; -->
<g id="node7" class="node">
<title>6</title>
<ellipse fill="none" stroke="black" cx="421.1" cy="-18" rx="27" ry="18"/>
<text text-anchor="middle" x="421.1" y="-12.95" font-family="Times New Roman,serif" font-size="14.00">byte</text>
</g>
<!-- 5&#45;&gt;6 -->
<g id="edge6" class="edge">
<title>5&#45;&gt;6</title>
<path fill="none" stroke="black" d="M358.49,-18C366.55,-18 374.73,-18 382.39,-18"/>
<polygon fill="black" stroke="black" points="382.38,-21.5 392.38,-18 382.38,-14.5 382.38,-21.5"/>
</g>
</g>
</svg>
