<?xml version="1.0" encoding="UTF-8" standalone="no"?>
<!DOCTYPE svg PUBLIC "-//W3C//DTD SVG 1.1//EN"
 "http://www.w3.org/Graphics/SVG/1.1/DTD/svg11.dtd">
<!-- Generated by graphviz version 14.1.5 (20260411.2331)
 -->
<!-- Title: ColorAttributeData Pages: 1 -->
<svg width="588pt" height="98pt"
 viewBox="0.00 0.00 588.00 98.00" xmlns="http://www.w3.org/2000/svg" xmlns:xlink="http://www.w3.org/1999/xlink">
<g id="graph0" class="graph" transform="scale(1 1) rotate(0) translate(4 94)">
<title>ColorAttributeData</title>
<polygon fill="white" stroke="none" points="-4,4 -4,-94 583.71,-94 583.71,4 -4,4"/>
<!-- 0 -->
<!-- name: &quot;ColorAttributeData&quot;, typeName: &quot;&quot;, id: 0, branchId: 0, recurseId: &#45;1, attributes: 0, notes: &quot;&quot; -->
<g id="node1" class="node">
<title>0</title>
<ellipse fill="none" stroke="black" cx="82.57" cy="-45" rx="82.57" ry="18"/>
<text xml:space="preserve" text-anchor="middle" x="82.57" y="-39.95" font-family="Times New Roman,serif" font-size="14.00">ColorAttributeData</text>
</g>
<!-- 1 -->
<!-- name: &quot;value&quot;, typeName: &quot;&quot;, id: 1, branchId: 0, recurseId: &#45;1, attributes: 0, notes: &quot;&quot; -->
<g id="node2" class="node">
<title>1</title>
<ellipse fill="none" stroke="black" cx="246.86" cy="-72" rx="30.88" ry="18"/>
<text xml:space="preserve" text-anchor="middle" x="246.86" y="-66.95" font-family="Times New Roman,serif" font-size="14.00">value</text>
</g>
<!-- 0&#45;&gt;1 -->
<g id="edge1" class="edge">
<title>0&#45;&gt;1</title>
<path fill="none" stroke="black" d="M149.11,-55.9C168.27,-59.09 188.63,-62.48 205.71,-65.32"/>
<polygon fill="black" stroke="black" points="205.02,-68.75 215.46,-66.94 206.17,-61.85 205.02,-68.75"/>
</g>
<!-- 2 -->
<!-- name: &quot;operation&quot;, typeName: &quot;&quot;, id: 2, branchId: 0, recurseId: &#45;1, attributes: 0, notes: &quot;&quot; -->
<g id="node3" class="node">
<title>2</title>
<ellipse fill="none" stroke="black" cx="246.86" cy="-18" rx="45.72" ry="18"/>
<text xml:space="preserve" text-anchor="middle" x="246.86" y="-12.95" font-family="Times New Roman,serif" font-size="14.00">operation</text>
</g>
<!-- 0&#45;&gt;2 -->
<g id="edge2" class="edge">
<title>0&#45;&gt;2</title>
<path fill="none" stroke="black" d="M149.11,-34.1C163.83,-31.65 179.26,-29.08 193.36,-26.73"/>
<polygon fill="black" stroke="black" points="193.57,-30.25 202.86,-25.16 192.42,-23.34 193.57,-30.25"/>
</g>
<!-- 3 -->
<!-- name: &quot;enum ColorAttributeOperation&quot;, typeName: &quot;&quot;, id: 3, branchId: 0, recurseId: &#45;1, attributes: 512, notes: &quot;&quot; -->
<g id="node4" class="node">
<title>3</title>
<ellipse fill="none" stroke="black" cx="454.15" cy="-18" rx="125.56" ry="18"/>
<text xml:space="preserve" text-anchor="middle" x="454.15" y="-12.95" font-family="Times New Roman,serif" font-size="14.00">enum ColorAttributeOperation</text>
</g>
<!-- 2&#45;&gt;3 -->
<g id="edge3" class="edge">
<title>2&#45;&gt;3</title>
<path fill="none" stroke="black" d="M292.92,-18C300.3,-18 308.27,-18 316.58,-18"/>
<polygon fill="black" stroke="black" points="316.57,-21.5 326.57,-18 316.57,-14.5 316.57,-21.5"/>
</g>
</g>
</svg>
