<?xml version="1.0" encoding="UTF-8" standalone="no"?>
<!DOCTYPE svg PUBLIC "-//W3C//DTD SVG 1.1//EN"
 "http://www.w3.org/Graphics/SVG/1.1/DTD/svg11.dtd">
<!-- Generated by graphviz version 12.2.0 (20241103.1931)
 -->
<!-- Title: CommandOriginData Pages: 1 -->
<svg width="1052pt" height="368pt"
 viewBox="0.00 0.00 1051.94 368.00" xmlns="http://www.w3.org/2000/svg" xmlns:xlink="http://www.w3.org/1999/xlink">
<g id="graph0" class="graph" transform="scale(1 1) rotate(0) translate(4 364)">
<title>CommandOriginData</title>
<polygon fill="white" stroke="none" points="-4,4 -4,-364 1047.94,-364 1047.94,4 -4,4"/>
<!-- 4 -->
<!-- name: &quot;CommandOriginData&quot;, typeName: &quot;&quot;, id: 4, branchId: 0, recurseId: &#45;1, attributes: 0, notes: &quot;&quot; -->
<g id="node1" class="node">
<title>4</title>
<ellipse fill="none" stroke="black" cx="91.78" cy="-261" rx="91.78" ry="18"/>
<text text-anchor="middle" x="91.78" y="-255.95" font-family="Times New Roman,serif" font-size="14.00">CommandOriginData</text>
</g>
<!-- 5 -->
<!-- name: &quot;Command Type&quot;, typeName: &quot;&quot;, id: 5, branchId: 0, recurseId: &#45;1, attributes: 0, notes: &quot;&quot; -->
<g id="node2" class="node">
<title>5</title>
<ellipse fill="none" stroke="black" cx="759.75" cy="-340" rx="70.8" ry="18"/>
<text text-anchor="middle" x="759.75" y="-334.95" font-family="Times New Roman,serif" font-size="14.00">Command Type</text>
</g>
<!-- 4&#45;&gt;5 -->
<g id="edge1" class="edge">
<title>4&#45;&gt;5</title>
<path fill="none" stroke="black" d="M124.29,-278.17C149.32,-290.87 185.63,-307.25 219.57,-315 379.77,-351.58 573.49,-349.78 679.64,-345.01"/>
<polygon fill="black" stroke="black" points="679.55,-348.52 689.38,-344.55 679.22,-341.53 679.55,-348.52"/>
</g>
<!-- 7 -->
<!-- name: &quot;Command UUID&quot;, typeName: &quot;mce::UUID&quot;, id: 7, branchId: 0, recurseId: &#45;1, attributes: 256, notes: &quot;Unique UUID that represents an instantiation of a command. Each time a command is run it should be given a UUID to represent that instance.&quot; -->
<g id="node4" class="node">
<title>7</title>
<ellipse fill="none" stroke="black" cx="317.94" cy="-288" rx="75.92" ry="18"/>
<text text-anchor="middle" x="317.94" y="-282.95" font-family="Times New Roman,serif" font-size="14.00">Command UUID</text>
</g>
<!-- 4&#45;&gt;7 -->
<g id="edge3" class="edge">
<title>4&#45;&gt;7</title>
<path fill="none" stroke="black" d="M170.87,-270.41C192.71,-273.04 216.46,-275.9 238.33,-278.53"/>
<polygon fill="black" stroke="black" points="237.73,-281.98 248.07,-279.7 238.56,-275.03 237.73,-281.98"/>
</g>
<!-- 9 -->
<!-- name: &quot;Request ID&quot;, typeName: &quot;&quot;, id: 9, branchId: 0, recurseId: &#45;1, attributes: 0, notes: &quot;&quot; -->
<g id="node6" class="node">
<title>9</title>
<ellipse fill="none" stroke="black" cx="317.94" cy="-234" rx="52.89" ry="18"/>
<text text-anchor="middle" x="317.94" y="-228.95" font-family="Times New Roman,serif" font-size="14.00">Request ID</text>
</g>
<!-- 4&#45;&gt;9 -->
<g id="edge5" class="edge">
<title>4&#45;&gt;9</title>
<path fill="none" stroke="black" d="M170.87,-251.59C198.83,-248.23 229.9,-244.48 256.17,-241.32"/>
<polygon fill="black" stroke="black" points="256.49,-244.81 266,-240.14 255.65,-237.86 256.49,-244.81"/>
</g>
<!-- 11 -->
<!-- name: &quot;Dependency on &#39;Command Type&#39;&quot;, typeName: &quot;&quot;, id: 11, branchId: 0, recurseId: &#45;1, attributes: 2, notes: &quot;&quot; -->
<g id="node8" class="node">
<title>11</title>
<polygon fill="none" stroke="black" points="410.32,-144 219.57,-144 219.57,-108 416.32,-108 416.32,-138 410.32,-144"/>
<polyline fill="none" stroke="black" points="410.32,-144 410.32,-138"/>
<polyline fill="none" stroke="black" points="416.32,-138 410.32,-138"/>
<text text-anchor="middle" x="317.94" y="-120.95" font-family="Times New Roman,serif" font-size="14.00">Dependency on &#39;Command Type&#39;</text>
</g>
<!-- 4&#45;&gt;11 -->
<g id="edge7" class="edge">
<title>4&#45;&gt;11</title>
<path fill="none" stroke="black" d="M121.63,-243.63C161.1,-219.86 232.1,-177.09 276.76,-150.2"/>
<polygon fill="black" stroke="black" points="278.36,-153.32 285.12,-145.17 274.75,-147.33 278.36,-153.32"/>
</g>
<!-- 6 -->
<!-- name: &quot;unsigned varint&quot;, typeName: &quot;&quot;, id: 6, branchId: 0, recurseId: &#45;1, attributes: 512, notes: &quot;&quot; -->
<g id="node3" class="node">
<title>6</title>
<ellipse fill="none" stroke="black" cx="975.69" cy="-342" rx="68.24" ry="18"/>
<text text-anchor="middle" x="975.69" y="-336.95" font-family="Times New Roman,serif" font-size="14.00">unsigned varint</text>
</g>
<!-- 5&#45;&gt;6 -->
<g id="edge2" class="edge">
<title>5&#45;&gt;6</title>
<path fill="none" stroke="black" d="M830.8,-340.65C851.56,-340.85 874.44,-341.06 895.73,-341.26"/>
<polygon fill="black" stroke="black" points="895.49,-344.76 905.52,-341.35 895.55,-337.76 895.49,-344.76"/>
</g>
<!-- 8 -->
<!-- name: &quot;mce::UUID&quot;, typeName: &quot;&quot;, id: 8, branchId: 0, recurseId: &#45;1, attributes: 512, notes: &quot;&quot; -->
<g id="node5" class="node">
<title>8</title>
<ellipse fill="none" stroke="black" cx="975.69" cy="-288" rx="54.93" ry="18"/>
<text text-anchor="middle" x="975.69" y="-282.95" font-family="Times New Roman,serif" font-size="14.00">mce::UUID</text>
</g>
<!-- 7&#45;&gt;8 -->
<g id="edge4" class="edge">
<title>7&#45;&gt;8</title>
<path fill="none" stroke="black" d="M394.17,-288C523.71,-288 786.78,-288 909.24,-288"/>
<polygon fill="black" stroke="black" points="909.13,-291.5 919.13,-288 909.13,-284.5 909.13,-291.5"/>
</g>
<!-- 10 -->
<!-- name: &quot;string&quot;, typeName: &quot;&quot;, id: 10, branchId: 0, recurseId: &#45;1, attributes: 512, notes: &quot;&quot; -->
<g id="node7" class="node">
<title>10</title>
<ellipse fill="none" stroke="black" cx="975.69" cy="-234" rx="31.9" ry="18"/>
<text text-anchor="middle" x="975.69" y="-228.95" font-family="Times New Roman,serif" font-size="14.00">string</text>
</g>
<!-- 9&#45;&gt;10 -->
<g id="edge6" class="edge">
<title>9&#45;&gt;10</title>
<path fill="none" stroke="black" d="M371.22,-234C497.38,-234 816.61,-234 932.14,-234"/>
<polygon fill="black" stroke="black" points="932.11,-237.5 942.11,-234 932.11,-230.5 932.11,-237.5"/>
</g>
<!-- 12 -->
<!-- name: &quot;Player&quot;, typeName: &quot;&quot;, id: 12, branchId: 0, recurseId: &#45;1, attributes: 4, notes: &quot;&quot; -->
<g id="node9" class="node">
<title>12</title>
<polygon fill="none" stroke="black" points="532.18,-194 483.44,-176 532.18,-158 580.91,-176 532.18,-194"/>
<text text-anchor="middle" x="532.18" y="-170.95" font-family="Times New Roman,serif" font-size="14.00">Player</text>
</g>
<!-- 11&#45;&gt;12 -->
<g id="edge8" class="edge">
<title>11&#45;&gt;12</title>
<path fill="none" stroke="black" d="M397.37,-144.48C428.84,-151.89 463.81,-160.13 490.11,-166.32"/>
<polygon fill="black" stroke="black" points="489.16,-169.7 499.7,-168.58 490.77,-162.88 489.16,-169.7"/>
</g>
<!-- 14 -->
<!-- name: &quot;AutomationPlayer&quot;, typeName: &quot;&quot;, id: 14, branchId: 1, recurseId: &#45;1, attributes: 4, notes: &quot;&quot; -->
<g id="node11" class="node">
<title>14</title>
<polygon fill="none" stroke="black" points="759.75,-144 648.04,-126 759.75,-108 871.45,-126 759.75,-144"/>
<text text-anchor="middle" x="759.75" y="-120.95" font-family="Times New Roman,serif" font-size="14.00">AutomationPlayer</text>
</g>
<!-- 11&#45;&gt;14 -->
<g id="edge10" class="edge">
<title>11&#45;&gt;14</title>
<path fill="none" stroke="black" d="M416.55,-126C480.56,-126 564.83,-126 633.73,-126"/>
<polygon fill="black" stroke="black" points="633.57,-129.5 643.57,-126 633.57,-122.5 633.57,-129.5"/>
</g>
<!-- 16 -->
<!-- name: &quot;Test&quot;, typeName: &quot;&quot;, id: 16, branchId: 2, recurseId: &#45;1, attributes: 4, notes: &quot;&quot; -->
<g id="node13" class="node">
<title>16</title>
<polygon fill="none" stroke="black" points="532.18,-94 495.02,-76 532.18,-58 569.33,-76 532.18,-94"/>
<text text-anchor="middle" x="532.18" y="-70.95" font-family="Times New Roman,serif" font-size="14.00">Test</text>
</g>
<!-- 11&#45;&gt;16 -->
<g id="edge12" class="edge">
<title>11&#45;&gt;16</title>
<path fill="none" stroke="black" d="M397.37,-107.52C430.9,-99.62 468.4,-90.79 495.15,-84.49"/>
<polygon fill="black" stroke="black" points="495.87,-87.91 504.8,-82.21 494.26,-81.1 495.87,-87.91"/>
</g>
<!-- 19 -->
<!-- name: &quot;DevConsole&quot;, typeName: &quot;&quot;, id: 19, branchId: 3, recurseId: &#45;1, attributes: 4, notes: &quot;&quot; -->
<g id="node16" class="node">
<title>19</title>
<polygon fill="none" stroke="black" points="532.18,-38 452.32,-20 532.18,-2 612.04,-20 532.18,-38"/>
<text text-anchor="middle" x="532.18" y="-14.95" font-family="Times New Roman,serif" font-size="14.00">DevConsole</text>
</g>
<!-- 11&#45;&gt;19 -->
<g id="edge15" class="edge">
<title>11&#45;&gt;19</title>
<path fill="none" stroke="black" d="M347.57,-107.55C374.07,-90.94 414.91,-66.52 452.32,-49 463.43,-43.8 475.75,-38.88 487.29,-34.63"/>
<polygon fill="black" stroke="black" points="488.4,-37.95 496.63,-31.27 486.03,-31.36 488.4,-37.95"/>
</g>
<!-- 13 -->
<!-- name: &quot;[No Data]&quot;, typeName: &quot;&quot;, id: 13, branchId: 0, recurseId: &#45;1, attributes: 512, notes: &quot;&quot; -->
<g id="node10" class="node">
<title>13</title>
<ellipse fill="none" stroke="black" cx="975.69" cy="-180" rx="48.28" ry="18"/>
<text text-anchor="middle" x="975.69" y="-174.95" font-family="Times New Roman,serif" font-size="14.00">[No Data]</text>
</g>
<!-- 12&#45;&gt;13 -->
<g id="edge9" class="edge">
<title>12&#45;&gt;13</title>
<path fill="none" stroke="black" d="M580.85,-176.43C662.15,-177.17 827.4,-178.67 915.8,-179.47"/>
<polygon fill="black" stroke="black" points="915.68,-182.97 925.71,-179.56 915.74,-175.97 915.68,-182.97"/>
</g>
<!-- 15 -->
<!-- name: &quot;[No Data]&quot;, typeName: &quot;&quot;, id: 15, branchId: 0, recurseId: &#45;1, attributes: 512, notes: &quot;&quot; -->
<g id="node12" class="node">
<title>15</title>
<ellipse fill="none" stroke="black" cx="975.69" cy="-126" rx="48.28" ry="18"/>
<text text-anchor="middle" x="975.69" y="-120.95" font-family="Times New Roman,serif" font-size="14.00">[No Data]</text>
</g>
<!-- 14&#45;&gt;15 -->
<g id="edge11" class="edge">
<title>14&#45;&gt;15</title>
<path fill="none" stroke="black" d="M874.3,-126C888.54,-126 902.63,-126 915.54,-126"/>
<polygon fill="black" stroke="black" points="915.53,-129.5 925.53,-126 915.53,-122.5 915.53,-129.5"/>
</g>
<!-- 17 -->
<!-- name: &quot;Player ID&quot;, typeName: &quot;&quot;, id: 17, branchId: 0, recurseId: &#45;1, attributes: 0, notes: &quot;&quot; -->
<g id="node14" class="node">
<title>17</title>
<ellipse fill="none" stroke="black" cx="759.75" cy="-72" rx="46.75" ry="18"/>
<text text-anchor="middle" x="759.75" y="-66.95" font-family="Times New Roman,serif" font-size="14.00">Player ID</text>
</g>
<!-- 16&#45;&gt;17 -->
<g id="edge13" class="edge">
<title>16&#45;&gt;17</title>
<path fill="none" stroke="black" d="M568.92,-75.37C604.46,-74.74 659.56,-73.76 701.25,-73.02"/>
<polygon fill="black" stroke="black" points="701.18,-76.52 711.12,-72.84 701.06,-69.52 701.18,-76.52"/>
</g>
<!-- 18 -->
<!-- name: &quot;varint64&quot;, typeName: &quot;&quot;, id: 18, branchId: 0, recurseId: &#45;1, attributes: 512, notes: &quot;&quot; -->
<g id="node15" class="node">
<title>18</title>
<ellipse fill="none" stroke="black" cx="975.69" cy="-72" rx="41.63" ry="18"/>
<text text-anchor="middle" x="975.69" y="-66.95" font-family="Times New Roman,serif" font-size="14.00">varint64</text>
</g>
<!-- 17&#45;&gt;18 -->
<g id="edge14" class="edge">
<title>17&#45;&gt;18</title>
<path fill="none" stroke="black" d="M806.91,-72C840.94,-72 887.26,-72 922.61,-72"/>
<polygon fill="black" stroke="black" points="922.16,-75.5 932.16,-72 922.16,-68.5 922.16,-75.5"/>
</g>
<!-- 20 -->
<!-- name: &quot;Player ID&quot;, typeName: &quot;&quot;, id: 20, branchId: 0, recurseId: &#45;1, attributes: 0, notes: &quot;&quot; -->
<g id="node17" class="node">
<title>20</title>
<ellipse fill="none" stroke="black" cx="759.75" cy="-18" rx="46.75" ry="18"/>
<text text-anchor="middle" x="759.75" y="-12.95" font-family="Times New Roman,serif" font-size="14.00">Player ID</text>
</g>
<!-- 19&#45;&gt;20 -->
<g id="edge16" class="edge">
<title>19&#45;&gt;20</title>
<path fill="none" stroke="black" d="M611.12,-19.31C640.76,-19.05 673.96,-18.75 701.36,-18.51"/>
<polygon fill="black" stroke="black" points="701.23,-22.01 711.2,-18.42 701.17,-15.01 701.23,-22.01"/>
</g>
<!-- 21 -->
<!-- name: &quot;varint64&quot;, typeName: &quot;&quot;, id: 21, branchId: 0, recurseId: &#45;1, attributes: 512, notes: &quot;&quot; -->
<g id="node18" class="node">
<title>21</title>
<ellipse fill="none" stroke="black" cx="975.69" cy="-18" rx="41.63" ry="18"/>
<text text-anchor="middle" x="975.69" y="-12.95" font-family="Times New Roman,serif" font-size="14.00">varint64</text>
</g>
<!-- 20&#45;&gt;21 -->
<g id="edge17" class="edge">
<title>20&#45;&gt;21</title>
<path fill="none" stroke="black" d="M806.91,-18C840.94,-18 887.26,-18 922.61,-18"/>
<polygon fill="black" stroke="black" points="922.16,-21.5 932.16,-18 922.16,-14.5 922.16,-21.5"/>
</g>
</g>
</svg>
