<?xml version="1.0" encoding="UTF-8" standalone="no"?>
<!DOCTYPE svg PUBLIC "-//W3C//DTD SVG 1.1//EN"
 "http://www.w3.org/Graphics/SVG/1.1/DTD/svg11.dtd">
<!-- Generated by graphviz version 13.1.2 (20250808.2320)
 -->
<!-- Title: CommandOriginData Pages: 1 -->
<svg width="1192pt" height="913pt"
 viewBox="0.00 0.00 1192.00 913.00" xmlns="http://www.w3.org/2000/svg" xmlns:xlink="http://www.w3.org/1999/xlink">
<g id="graph0" class="graph" transform="scale(1 1) rotate(0) translate(4 909.4)">
<title>CommandOriginData</title>
<polygon fill="white" stroke="none" points="-4,4 -4,-909.4 1188.35,-909.4 1188.35,4 -4,4"/>
<!-- 4 -->
<!-- name: &quot;CommandOriginData&quot;, typeName: &quot;&quot;, id: 4, branchId: 0, recurseId: &#45;1, attributes: 0, notes: &quot;&quot; -->
<g id="node1" class="node">
<title>4</title>
<ellipse fill="none" stroke="black" cx="91.78" cy="-806.4" rx="91.78" ry="18"/>
<text xml:space="preserve" text-anchor="middle" x="91.78" y="-801.35" font-family="Times New Roman,serif" font-size="14.00">CommandOriginData</text>
</g>
<!-- 5 -->
<!-- name: &quot;Command Type&quot;, typeName: &quot;&quot;, id: 5, branchId: 0, recurseId: &#45;1, attributes: 0, notes: &quot;&quot; -->
<g id="node2" class="node">
<title>5</title>
<ellipse fill="none" stroke="black" cx="317.94" cy="-882.4" rx="70.8" ry="18"/>
<text xml:space="preserve" text-anchor="middle" x="317.94" y="-877.35" font-family="Times New Roman,serif" font-size="14.00">Command Type</text>
</g>
<!-- 4&#45;&gt;5 -->
<g id="edge1" class="edge">
<title>4&#45;&gt;5</title>
<path fill="none" stroke="black" d="M139.23,-822.15C175.41,-834.41 225.68,-851.46 263.53,-864.29"/>
<polygon fill="black" stroke="black" points="262.32,-867.58 272.91,-867.47 264.57,-860.95 262.32,-867.58"/>
</g>
<!-- 7 -->
<!-- name: &quot;Command UUID&quot;, typeName: &quot;mce::UUID&quot;, id: 7, branchId: 0, recurseId: &#45;1, attributes: 256, notes: &quot;Unique UUID that represents an instantiation of a command. Each time a command is run it should be given a UUID to represent that instance.&quot; -->
<g id="node4" class="node">
<title>7</title>
<ellipse fill="none" stroke="black" cx="900.16" cy="-832.4" rx="75.92" ry="18"/>
<text xml:space="preserve" text-anchor="middle" x="900.16" y="-827.35" font-family="Times New Roman,serif" font-size="14.00">Command UUID</text>
</g>
<!-- 4&#45;&gt;7 -->
<g id="edge3" class="edge">
<title>4&#45;&gt;7</title>
<path fill="none" stroke="black" d="M182.55,-809.29C339.05,-814.34 659.76,-824.68 813.4,-829.63"/>
<polygon fill="black" stroke="black" points="813,-833.12 823.11,-829.95 813.23,-826.13 813,-833.12"/>
</g>
<!-- 9 -->
<!-- name: &quot;Request ID&quot;, typeName: &quot;&quot;, id: 9, branchId: 0, recurseId: &#45;1, attributes: 0, notes: &quot;&quot; -->
<g id="node6" class="node">
<title>9</title>
<ellipse fill="none" stroke="black" cx="317.94" cy="-783.4" rx="52.89" ry="18"/>
<text xml:space="preserve" text-anchor="middle" x="317.94" y="-778.35" font-family="Times New Roman,serif" font-size="14.00">Request ID</text>
</g>
<!-- 4&#45;&gt;9 -->
<g id="edge5" class="edge">
<title>4&#45;&gt;9</title>
<path fill="none" stroke="black" d="M174.03,-798.06C200.97,-795.3 230.5,-792.27 255.68,-789.69"/>
<polygon fill="black" stroke="black" points="255.83,-793.19 265.42,-788.69 255.11,-786.23 255.83,-793.19"/>
</g>
<!-- 11 -->
<!-- name: &quot;Dependency on &#39;Command Type&#39;&quot;, typeName: &quot;&quot;, id: 11, branchId: 0, recurseId: &#45;1, attributes: 2, notes: &quot;&quot; -->
<g id="node8" class="node">
<title>11</title>
<polygon fill="none" stroke="black" points="410.32,-419.4 219.57,-419.4 219.57,-383.4 416.32,-383.4 416.32,-413.4 410.32,-419.4"/>
<polyline fill="none" stroke="black" points="410.32,-419.4 410.32,-413.4"/>
<polyline fill="none" stroke="black" points="416.32,-413.4 410.32,-413.4"/>
<text xml:space="preserve" text-anchor="middle" x="317.94" y="-396.35" font-family="Times New Roman,serif" font-size="14.00">Dependency on &#39;Command Type&#39;</text>
</g>
<!-- 4&#45;&gt;11 -->
<g id="edge7" class="edge">
<title>4&#45;&gt;11</title>
<path fill="none" stroke="black" d="M102.85,-788.21C138.41,-723.97 258.26,-507.43 301.35,-429.57"/>
<polygon fill="black" stroke="black" points="304.39,-431.31 306.17,-420.86 298.27,-427.92 304.39,-431.31"/>
</g>
<!-- 6 -->
<!-- name: &quot;unsigned varint&quot;, typeName: &quot;&quot;, id: 6, branchId: 0, recurseId: &#45;1, attributes: 512, notes: &quot;&quot; -->
<g id="node3" class="node">
<title>6</title>
<ellipse fill="none" stroke="black" cx="1116.11" cy="-887.4" rx="68.24" ry="18"/>
<text xml:space="preserve" text-anchor="middle" x="1116.11" y="-882.35" font-family="Times New Roman,serif" font-size="14.00">unsigned varint</text>
</g>
<!-- 5&#45;&gt;6 -->
<g id="edge2" class="edge">
<title>5&#45;&gt;6</title>
<path fill="none" stroke="black" d="M388.9,-882.84C536.88,-883.77 880.77,-885.93 1036.26,-886.9"/>
<polygon fill="black" stroke="black" points="1036.04,-890.4 1046.06,-886.97 1036.08,-883.4 1036.04,-890.4"/>
</g>
<!-- 8 -->
<!-- name: &quot;mce::UUID&quot;, typeName: &quot;&quot;, id: 8, branchId: 0, recurseId: &#45;1, attributes: 512, notes: &quot;&quot; -->
<g id="node5" class="node">
<title>8</title>
<ellipse fill="none" stroke="black" cx="1116.11" cy="-833.4" rx="54.93" ry="18"/>
<text xml:space="preserve" text-anchor="middle" x="1116.11" y="-828.35" font-family="Times New Roman,serif" font-size="14.00">mce::UUID</text>
</g>
<!-- 7&#45;&gt;8 -->
<g id="edge4" class="edge">
<title>7&#45;&gt;8</title>
<path fill="none" stroke="black" d="M976.29,-832.75C1000.09,-832.86 1026.19,-832.98 1049.28,-833.09"/>
<polygon fill="black" stroke="black" points="1049.17,-836.59 1059.19,-833.14 1049.2,-829.59 1049.17,-836.59"/>
</g>
<!-- 10 -->
<!-- name: &quot;string&quot;, typeName: &quot;&quot;, id: 10, branchId: 0, recurseId: &#45;1, attributes: 512, notes: &quot;&quot; -->
<g id="node7" class="node">
<title>10</title>
<ellipse fill="none" stroke="black" cx="1116.11" cy="-779.4" rx="31.9" ry="18"/>
<text xml:space="preserve" text-anchor="middle" x="1116.11" y="-774.35" font-family="Times New Roman,serif" font-size="14.00">string</text>
</g>
<!-- 9&#45;&gt;10 -->
<g id="edge6" class="edge">
<title>9&#45;&gt;10</title>
<path fill="none" stroke="black" d="M371.18,-783.14C518.77,-782.4 936.92,-780.3 1072.27,-779.62"/>
<polygon fill="black" stroke="black" points="1072.24,-783.12 1082.22,-779.57 1072.2,-776.12 1072.24,-783.12"/>
</g>
<!-- 12 -->
<!-- name: &quot;Player&quot;, typeName: &quot;&quot;, id: 12, branchId: 0, recurseId: &#45;1, attributes: 4, notes: &quot;&quot; -->
<g id="node9" class="node">
<title>12</title>
<polygon fill="none" stroke="black" points="900.16,-743.4 851.43,-725.4 900.16,-707.4 948.9,-725.4 900.16,-743.4"/>
<text xml:space="preserve" text-anchor="middle" x="900.16" y="-720.35" font-family="Times New Roman,serif" font-size="14.00">Player</text>
</g>
<!-- 11&#45;&gt;12 -->
<g id="edge8" class="edge">
<title>11&#45;&gt;12</title>
<path fill="none" stroke="black" d="M321.53,-419.56C329.82,-470.47 360.81,-615.03 452.32,-679.4 576.6,-766.82 770.54,-747.82 856.11,-733.75"/>
<polygon fill="black" stroke="black" points="856.69,-737.2 865.96,-732.06 855.51,-730.3 856.69,-737.2"/>
</g>
<!-- 14 -->
<!-- name: &quot;AutomationPlayer&quot;, typeName: &quot;&quot;, id: 14, branchId: 1, recurseId: &#45;1, attributes: 4, notes: &quot;&quot; -->
<g id="node11" class="node">
<title>14</title>
<polygon fill="none" stroke="black" points="900.16,-689.4 788.46,-671.4 900.16,-653.4 1011.87,-671.4 900.16,-689.4"/>
<text xml:space="preserve" text-anchor="middle" x="900.16" y="-666.35" font-family="Times New Roman,serif" font-size="14.00">AutomationPlayer</text>
</g>
<!-- 11&#45;&gt;14 -->
<g id="edge10" class="edge">
<title>11&#45;&gt;14</title>
<path fill="none" stroke="black" d="M323.14,-419.86C334.64,-465.73 371.36,-584.92 452.32,-636.4 571.49,-712.18 746.27,-698.1 837.92,-683.49"/>
<polygon fill="black" stroke="black" points="838.43,-686.95 847.72,-681.87 837.28,-680.05 838.43,-686.95"/>
</g>
<!-- 16 -->
<!-- name: &quot;Test&quot;, typeName: &quot;&quot;, id: 16, branchId: 2, recurseId: &#45;1, attributes: 4, notes: &quot;&quot; -->
<g id="node13" class="node">
<title>16</title>
<polygon fill="none" stroke="black" points="602.39,-627.4 565.23,-609.4 602.39,-591.4 639.54,-609.4 602.39,-627.4"/>
<text xml:space="preserve" text-anchor="middle" x="602.39" y="-604.35" font-family="Times New Roman,serif" font-size="14.00">Test</text>
</g>
<!-- 11&#45;&gt;16 -->
<g id="edge12" class="edge">
<title>11&#45;&gt;16</title>
<path fill="none" stroke="black" d="M327.31,-419.78C344.88,-456.15 389.25,-537.25 452.32,-577.4 482.91,-596.87 523.45,-604.67 554.53,-607.71"/>
<polygon fill="black" stroke="black" points="554.17,-611.19 564.43,-608.53 554.75,-604.21 554.17,-611.19"/>
</g>
<!-- 19 -->
<!-- name: &quot;DevConsole&quot;, typeName: &quot;&quot;, id: 19, branchId: 3, recurseId: &#45;1, attributes: 4, notes: &quot;&quot; -->
<g id="node16" class="node">
<title>19</title>
<polygon fill="none" stroke="black" points="602.39,-568.4 522.53,-550.4 602.39,-532.4 682.25,-550.4 602.39,-568.4"/>
<text xml:space="preserve" text-anchor="middle" x="602.39" y="-545.35" font-family="Times New Roman,serif" font-size="14.00">DevConsole</text>
</g>
<!-- 11&#45;&gt;19 -->
<g id="edge15" class="edge">
<title>11&#45;&gt;19</title>
<path fill="none" stroke="black" d="M334.63,-419.65C357.73,-445.33 403.47,-491.72 452.32,-516.4 478.02,-529.39 508.72,-537.48 535.55,-542.48"/>
<polygon fill="black" stroke="black" points="534.85,-545.91 545.3,-544.18 536.05,-539.02 534.85,-545.91"/>
</g>
<!-- 22 -->
<!-- name: &quot;Entity&quot;, typeName: &quot;&quot;, id: 22, branchId: 4, recurseId: &#45;1, attributes: 4, notes: &quot;&quot; -->
<g id="node19" class="node">
<title>22</title>
<polygon fill="none" stroke="black" points="900.16,-523.4 852.88,-505.4 900.16,-487.4 947.45,-505.4 900.16,-523.4"/>
<text xml:space="preserve" text-anchor="middle" x="900.16" y="-500.35" font-family="Times New Roman,serif" font-size="14.00">Entity</text>
</g>
<!-- 11&#45;&gt;22 -->
<g id="edge18" class="edge">
<title>11&#45;&gt;22</title>
<path fill="none" stroke="black" d="M341.33,-419.84C366.54,-439.4 409.6,-469.25 452.32,-482.4 591.86,-525.35 767.38,-517.63 850.82,-510.49"/>
<polygon fill="black" stroke="black" points="851.05,-513.99 860.7,-509.61 850.43,-507.01 851.05,-513.99"/>
</g>
<!-- 24 -->
<!-- name: &quot;CommandBlock&quot;, typeName: &quot;&quot;, id: 24, branchId: 5, recurseId: &#45;1, attributes: 4, notes: &quot;&quot; -->
<g id="node21" class="node">
<title>24</title>
<polygon fill="none" stroke="black" points="602.39,-473.4 500.09,-455.4 602.39,-437.4 704.69,-455.4 602.39,-473.4"/>
<text xml:space="preserve" text-anchor="middle" x="602.39" y="-450.35" font-family="Times New Roman,serif" font-size="14.00">CommandBlock</text>
</g>
<!-- 11&#45;&gt;24 -->
<g id="edge20" class="edge">
<title>11&#45;&gt;24</title>
<path fill="none" stroke="black" d="M408.93,-419.88C423.43,-422.78 438.28,-425.71 452.32,-428.4 480.57,-433.82 511.89,-439.53 538.5,-444.31"/>
<polygon fill="black" stroke="black" points="537.65,-447.71 548.11,-446.02 538.88,-440.82 537.65,-447.71"/>
</g>
<!-- 26 -->
<!-- name: &quot;MinecartCommandBlock&quot;, typeName: &quot;&quot;, id: 26, branchId: 6, recurseId: &#45;1, attributes: 4, notes: &quot;&quot; -->
<g id="node23" class="node">
<title>26</title>
<polygon fill="none" stroke="black" points="602.39,-419.4 452.32,-401.4 602.39,-383.4 752.46,-401.4 602.39,-419.4"/>
<text xml:space="preserve" text-anchor="middle" x="602.39" y="-396.35" font-family="Times New Roman,serif" font-size="14.00">MinecartCommandBlock</text>
</g>
<!-- 11&#45;&gt;26 -->
<g id="edge22" class="edge">
<title>11&#45;&gt;26</title>
<path fill="none" stroke="black" d="M416.54,-401.4C423.26,-401.4 430.13,-401.4 437.07,-401.4"/>
<polygon fill="black" stroke="black" points="436.91,-404.9 446.91,-401.4 436.91,-397.9 436.91,-404.9"/>
</g>
<!-- 28 -->
<!-- name: &quot;ClientAutomation&quot;, typeName: &quot;&quot;, id: 28, branchId: 7, recurseId: &#45;1, attributes: 4, notes: &quot;&quot; -->
<g id="node25" class="node">
<title>28</title>
<polygon fill="none" stroke="black" points="602.39,-365.4 492.13,-347.4 602.39,-329.4 712.65,-347.4 602.39,-365.4"/>
<text xml:space="preserve" text-anchor="middle" x="602.39" y="-342.35" font-family="Times New Roman,serif" font-size="14.00">ClientAutomation</text>
</g>
<!-- 11&#45;&gt;28 -->
<g id="edge24" class="edge">
<title>11&#45;&gt;28</title>
<path fill="none" stroke="black" d="M408.93,-382.92C423.43,-380.02 438.28,-377.09 452.32,-374.4 479.77,-369.14 510.12,-363.59 536.23,-358.9"/>
<polygon fill="black" stroke="black" points="536.8,-362.36 546.03,-357.15 535.57,-355.46 536.8,-362.36"/>
</g>
<!-- 30 -->
<!-- name: &quot;DedicatedServer&quot;, typeName: &quot;&quot;, id: 30, branchId: 8, recurseId: &#45;1, attributes: 4, notes: &quot;&quot; -->
<g id="node27" class="node">
<title>30</title>
<polygon fill="none" stroke="black" points="602.39,-311.4 500.09,-293.4 602.39,-275.4 704.69,-293.4 602.39,-311.4"/>
<text xml:space="preserve" text-anchor="middle" x="602.39" y="-288.35" font-family="Times New Roman,serif" font-size="14.00">DedicatedServer</text>
</g>
<!-- 11&#45;&gt;30 -->
<g id="edge26" class="edge">
<title>11&#45;&gt;30</title>
<path fill="none" stroke="black" d="M343.09,-382.95C368.77,-364.27 411.28,-335.96 452.32,-320.4 474.93,-311.82 500.53,-305.93 524.06,-301.89"/>
<polygon fill="black" stroke="black" points="524.61,-305.34 533.92,-300.29 523.49,-298.43 524.61,-305.34"/>
</g>
<!-- 32 -->
<!-- name: &quot;GameArgument&quot;, typeName: &quot;&quot;, id: 32, branchId: 9, recurseId: &#45;1, attributes: 4, notes: &quot;&quot; -->
<g id="node29" class="node">
<title>32</title>
<polygon fill="none" stroke="black" points="602.39,-257.4 501.54,-239.4 602.39,-221.4 703.24,-239.4 602.39,-257.4"/>
<text xml:space="preserve" text-anchor="middle" x="602.39" y="-234.35" font-family="Times New Roman,serif" font-size="14.00">GameArgument</text>
</g>
<!-- 11&#45;&gt;32 -->
<g id="edge28" class="edge">
<title>11&#45;&gt;32</title>
<path fill="none" stroke="black" d="M331.25,-383.05C352.27,-353.3 398.11,-294.99 452.32,-266.4 471.15,-256.47 492.98,-250.12 514.02,-246.08"/>
<polygon fill="black" stroke="black" points="514.53,-249.54 523.78,-244.37 513.33,-242.64 514.53,-249.54"/>
</g>
<!-- 34 -->
<!-- name: &quot;Scripting&quot;, typeName: &quot;&quot;, id: 34, branchId: 10, recurseId: &#45;1, attributes: 4, notes: &quot;&quot; -->
<g id="node31" class="node">
<title>34</title>
<polygon fill="none" stroke="black" points="602.39,-203.4 539.18,-185.4 602.39,-167.4 665.6,-185.4 602.39,-203.4"/>
<text xml:space="preserve" text-anchor="middle" x="602.39" y="-180.35" font-family="Times New Roman,serif" font-size="14.00">Scripting</text>
</g>
<!-- 11&#45;&gt;34 -->
<g id="edge30" class="edge">
<title>11&#45;&gt;34</title>
<path fill="none" stroke="black" d="M326.18,-382.98C342.37,-344.38 385.44,-255.05 452.32,-212.4 474.82,-198.05 502.91,-190.83 528.62,-187.35"/>
<polygon fill="black" stroke="black" points="528.82,-190.85 538.35,-186.21 528.01,-183.9 528.82,-190.85"/>
</g>
<!-- 36 -->
<!-- name: &quot;Virtual&quot;, typeName: &quot;&quot;, id: 36, branchId: 11, recurseId: &#45;1, attributes: 4, notes: &quot;&quot; -->
<g id="node33" class="node">
<title>36</title>
<polygon fill="none" stroke="black" points="900.16,-153.4 848.53,-135.4 900.16,-117.4 951.8,-135.4 900.16,-153.4"/>
<text xml:space="preserve" text-anchor="middle" x="900.16" y="-130.35" font-family="Times New Roman,serif" font-size="14.00">Virtual</text>
</g>
<!-- 11&#45;&gt;36 -->
<g id="edge32" class="edge">
<title>11&#45;&gt;36</title>
<path fill="none" stroke="black" d="M322.61,-383.24C333.15,-336.32 368.33,-211.07 452.32,-158.4 581.33,-77.5 774.77,-107.01 858.33,-125.28"/>
<polygon fill="black" stroke="black" points="857.37,-128.65 867.89,-127.43 858.91,-121.82 857.37,-128.65"/>
</g>
<!-- 38 -->
<!-- name: &quot;ExecuteContext&quot;, typeName: &quot;&quot;, id: 38, branchId: 12, recurseId: &#45;1, attributes: 4, notes: &quot;&quot; -->
<g id="node35" class="node">
<title>38</title>
<polygon fill="none" stroke="black" points="900.16,-98.4 801.49,-80.4 900.16,-62.4 998.84,-80.4 900.16,-98.4"/>
<text xml:space="preserve" text-anchor="middle" x="900.16" y="-75.35" font-family="Times New Roman,serif" font-size="14.00">ExecuteContext</text>
</g>
<!-- 11&#45;&gt;38 -->
<g id="edge34" class="edge">
<title>11&#45;&gt;38</title>
<path fill="none" stroke="black" d="M320.79,-382.97C327.26,-329.13 354.2,-171.7 452.32,-104.4 509.23,-65.37 702.33,-68.95 815.21,-74.8"/>
<polygon fill="black" stroke="black" points="814.86,-78.29 825.03,-75.33 815.23,-71.3 814.86,-78.29"/>
</g>
<!-- 40 -->
<!-- name: &quot;Default&quot;, typeName: &quot;&quot;, id: 40, branchId: 13, recurseId: &#45;1, attributes: 4, notes: &quot;&quot; -->
<g id="node37" class="node">
<title>40</title>
<polygon fill="none" stroke="black" points="900.16,-42.4 845.64,-24.4 900.16,-6.4 954.69,-24.4 900.16,-42.4"/>
<text xml:space="preserve" text-anchor="middle" x="900.16" y="-19.35" font-family="Times New Roman,serif" font-size="14.00">Default</text>
</g>
<!-- 11&#45;&gt;40 -->
<g id="edge36" class="edge">
<title>11&#45;&gt;40</title>
<path fill="none" stroke="black" d="M319.96,-383.05C324.24,-325.42 345.92,-147.19 452.32,-67.4 573.63,23.57 768.64,1.1 855.26,-14.92"/>
<polygon fill="black" stroke="black" points="854.54,-18.35 865.02,-16.79 855.86,-11.47 854.54,-18.35"/>
</g>
<!-- 13 -->
<!-- name: &quot;[No Data]&quot;, typeName: &quot;&quot;, id: 13, branchId: 0, recurseId: &#45;1, attributes: 512, notes: &quot;&quot; -->
<g id="node10" class="node">
<title>13</title>
<ellipse fill="none" stroke="black" cx="1116.11" cy="-725.4" rx="48.28" ry="18"/>
<text xml:space="preserve" text-anchor="middle" x="1116.11" y="-720.35" font-family="Times New Roman,serif" font-size="14.00">[No Data]</text>
</g>
<!-- 12&#45;&gt;13 -->
<g id="edge9" class="edge">
<title>12&#45;&gt;13</title>
<path fill="none" stroke="black" d="M950.25,-725.4C981.7,-725.4 1022.71,-725.4 1055.95,-725.4"/>
<polygon fill="black" stroke="black" points="1055.85,-728.9 1065.85,-725.4 1055.85,-721.9 1055.85,-728.9"/>
</g>
<!-- 15 -->
<!-- name: &quot;[No Data]&quot;, typeName: &quot;&quot;, id: 15, branchId: 0, recurseId: &#45;1, attributes: 512, notes: &quot;&quot; -->
<g id="node12" class="node">
<title>15</title>
<ellipse fill="none" stroke="black" cx="1116.11" cy="-671.4" rx="48.28" ry="18"/>
<text xml:space="preserve" text-anchor="middle" x="1116.11" y="-666.35" font-family="Times New Roman,serif" font-size="14.00">[No Data]</text>
</g>
<!-- 14&#45;&gt;15 -->
<g id="edge11" class="edge">
<title>14&#45;&gt;15</title>
<path fill="none" stroke="black" d="M1014.72,-671.4C1028.96,-671.4 1043.05,-671.4 1055.96,-671.4"/>
<polygon fill="black" stroke="black" points="1055.95,-674.9 1065.95,-671.4 1055.95,-667.9 1055.95,-674.9"/>
</g>
<!-- 17 -->
<!-- name: &quot;Player ID&quot;, typeName: &quot;&quot;, id: 17, branchId: 0, recurseId: &#45;1, attributes: 0, notes: &quot;&quot; -->
<g id="node14" class="node">
<title>17</title>
<ellipse fill="none" stroke="black" cx="900.16" cy="-616.4" rx="46.75" ry="18"/>
<text xml:space="preserve" text-anchor="middle" x="900.16" y="-611.35" font-family="Times New Roman,serif" font-size="14.00">Player ID</text>
</g>
<!-- 16&#45;&gt;17 -->
<g id="edge13" class="edge">
<title>16&#45;&gt;17</title>
<path fill="none" stroke="black" d="M638.77,-610.24C689.05,-611.43 781.71,-613.62 841.86,-615.04"/>
<polygon fill="black" stroke="black" points="841.47,-618.54 851.55,-615.27 841.64,-611.54 841.47,-618.54"/>
</g>
<!-- 18 -->
<!-- name: &quot;varint64&quot;, typeName: &quot;&quot;, id: 18, branchId: 0, recurseId: &#45;1, attributes: 512, notes: &quot;&quot; -->
<g id="node15" class="node">
<title>18</title>
<ellipse fill="none" stroke="black" cx="1116.11" cy="-617.4" rx="41.63" ry="18"/>
<text xml:space="preserve" text-anchor="middle" x="1116.11" y="-612.35" font-family="Times New Roman,serif" font-size="14.00">varint64</text>
</g>
<!-- 17&#45;&gt;18 -->
<g id="edge14" class="edge">
<title>17&#45;&gt;18</title>
<path fill="none" stroke="black" d="M947.32,-616.62C981.35,-616.77 1027.68,-616.99 1063.03,-617.16"/>
<polygon fill="black" stroke="black" points="1062.56,-620.65 1072.58,-617.2 1062.6,-613.65 1062.56,-620.65"/>
</g>
<!-- 20 -->
<!-- name: &quot;Player ID&quot;, typeName: &quot;&quot;, id: 20, branchId: 0, recurseId: &#45;1, attributes: 0, notes: &quot;&quot; -->
<g id="node17" class="node">
<title>20</title>
<ellipse fill="none" stroke="black" cx="900.16" cy="-561.4" rx="46.75" ry="18"/>
<text xml:space="preserve" text-anchor="middle" x="900.16" y="-556.35" font-family="Times New Roman,serif" font-size="14.00">Player ID</text>
</g>
<!-- 19&#45;&gt;20 -->
<g id="edge16" class="edge">
<title>19&#45;&gt;20</title>
<path fill="none" stroke="black" d="M672.73,-552.98C724.27,-554.9 793.72,-557.48 842.07,-559.28"/>
<polygon fill="black" stroke="black" points="841.63,-562.76 851.75,-559.64 841.89,-555.77 841.63,-562.76"/>
</g>
<!-- 21 -->
<!-- name: &quot;varint64&quot;, typeName: &quot;&quot;, id: 21, branchId: 0, recurseId: &#45;1, attributes: 512, notes: &quot;&quot; -->
<g id="node18" class="node">
<title>21</title>
<ellipse fill="none" stroke="black" cx="1116.11" cy="-563.4" rx="41.63" ry="18"/>
<text xml:space="preserve" text-anchor="middle" x="1116.11" y="-558.35" font-family="Times New Roman,serif" font-size="14.00">varint64</text>
</g>
<!-- 20&#45;&gt;21 -->
<g id="edge17" class="edge">
<title>20&#45;&gt;21</title>
<path fill="none" stroke="black" d="M947.32,-561.83C981.35,-562.15 1027.68,-562.58 1063.03,-562.91"/>
<polygon fill="black" stroke="black" points="1062.55,-566.41 1072.58,-563 1062.61,-559.41 1062.55,-566.41"/>
</g>
<!-- 23 -->
<!-- name: &quot;[No Data]&quot;, typeName: &quot;&quot;, id: 23, branchId: 0, recurseId: &#45;1, attributes: 512, notes: &quot;&quot; -->
<g id="node20" class="node">
<title>23</title>
<ellipse fill="none" stroke="black" cx="1116.11" cy="-509.4" rx="48.28" ry="18"/>
<text xml:space="preserve" text-anchor="middle" x="1116.11" y="-504.35" font-family="Times New Roman,serif" font-size="14.00">[No Data]</text>
</g>
<!-- 22&#45;&gt;23 -->
<g id="edge19" class="edge">
<title>22&#45;&gt;23</title>
<path fill="none" stroke="black" d="M946.54,-506.25C978.5,-506.85 1021.58,-507.65 1056.2,-508.3"/>
<polygon fill="black" stroke="black" points="1056,-511.8 1066.07,-508.48 1056.13,-504.8 1056,-511.8"/>
</g>
<!-- 25 -->
<!-- name: &quot;[No Data]&quot;, typeName: &quot;&quot;, id: 25, branchId: 0, recurseId: &#45;1, attributes: 512, notes: &quot;&quot; -->
<g id="node22" class="node">
<title>25</title>
<ellipse fill="none" stroke="black" cx="1116.11" cy="-455.4" rx="48.28" ry="18"/>
<text xml:space="preserve" text-anchor="middle" x="1116.11" y="-450.35" font-family="Times New Roman,serif" font-size="14.00">[No Data]</text>
</g>
<!-- 24&#45;&gt;25 -->
<g id="edge21" class="edge">
<title>24&#45;&gt;25</title>
<path fill="none" stroke="black" d="M707.56,-455.4C812.61,-455.4 971.05,-455.4 1056.13,-455.4"/>
<polygon fill="black" stroke="black" points="1055.87,-458.9 1065.87,-455.4 1055.87,-451.9 1055.87,-458.9"/>
</g>
<!-- 27 -->
<!-- name: &quot;[No Data]&quot;, typeName: &quot;&quot;, id: 27, branchId: 0, recurseId: &#45;1, attributes: 512, notes: &quot;&quot; -->
<g id="node24" class="node">
<title>27</title>
<ellipse fill="none" stroke="black" cx="1116.11" cy="-401.4" rx="48.28" ry="18"/>
<text xml:space="preserve" text-anchor="middle" x="1116.11" y="-396.35" font-family="Times New Roman,serif" font-size="14.00">[No Data]</text>
</g>
<!-- 26&#45;&gt;27 -->
<g id="edge23" class="edge">
<title>26&#45;&gt;27</title>
<path fill="none" stroke="black" d="M756.58,-401.4C857.34,-401.4 983.56,-401.4 1056.21,-401.4"/>
<polygon fill="black" stroke="black" points="1055.88,-404.9 1065.88,-401.4 1055.88,-397.9 1055.88,-404.9"/>
</g>
<!-- 29 -->
<!-- name: &quot;[No Data]&quot;, typeName: &quot;&quot;, id: 29, branchId: 0, recurseId: &#45;1, attributes: 512, notes: &quot;&quot; -->
<g id="node26" class="node">
<title>29</title>
<ellipse fill="none" stroke="black" cx="1116.11" cy="-347.4" rx="48.28" ry="18"/>
<text xml:space="preserve" text-anchor="middle" x="1116.11" y="-342.35" font-family="Times New Roman,serif" font-size="14.00">[No Data]</text>
</g>
<!-- 28&#45;&gt;29 -->
<g id="edge25" class="edge">
<title>28&#45;&gt;29</title>
<path fill="none" stroke="black" d="M715.69,-347.4C820.53,-347.4 972.92,-347.4 1055.89,-347.4"/>
<polygon fill="black" stroke="black" points="1055.85,-350.9 1065.85,-347.4 1055.85,-343.9 1055.85,-350.9"/>
</g>
<!-- 31 -->
<!-- name: &quot;[No Data]&quot;, typeName: &quot;&quot;, id: 31, branchId: 0, recurseId: &#45;1, attributes: 512, notes: &quot;&quot; -->
<g id="node28" class="node">
<title>31</title>
<ellipse fill="none" stroke="black" cx="1116.11" cy="-293.4" rx="48.28" ry="18"/>
<text xml:space="preserve" text-anchor="middle" x="1116.11" y="-288.35" font-family="Times New Roman,serif" font-size="14.00">[No Data]</text>
</g>
<!-- 30&#45;&gt;31 -->
<g id="edge27" class="edge">
<title>30&#45;&gt;31</title>
<path fill="none" stroke="black" d="M707.56,-293.4C812.61,-293.4 971.05,-293.4 1056.13,-293.4"/>
<polygon fill="black" stroke="black" points="1055.87,-296.9 1065.87,-293.4 1055.87,-289.9 1055.87,-296.9"/>
</g>
<!-- 33 -->
<!-- name: &quot;[No Data]&quot;, typeName: &quot;&quot;, id: 33, branchId: 0, recurseId: &#45;1, attributes: 512, notes: &quot;&quot; -->
<g id="node30" class="node">
<title>33</title>
<ellipse fill="none" stroke="black" cx="1116.11" cy="-239.4" rx="48.28" ry="18"/>
<text xml:space="preserve" text-anchor="middle" x="1116.11" y="-234.35" font-family="Times New Roman,serif" font-size="14.00">[No Data]</text>
</g>
<!-- 32&#45;&gt;33 -->
<g id="edge29" class="edge">
<title>32&#45;&gt;33</title>
<path fill="none" stroke="black" d="M706.02,-239.4C811.04,-239.4 970.59,-239.4 1056.09,-239.4"/>
<polygon fill="black" stroke="black" points="1055.89,-242.9 1065.89,-239.4 1055.89,-235.9 1055.89,-242.9"/>
</g>
<!-- 35 -->
<!-- name: &quot;[No Data]&quot;, typeName: &quot;&quot;, id: 35, branchId: 0, recurseId: &#45;1, attributes: 512, notes: &quot;&quot; -->
<g id="node32" class="node">
<title>35</title>
<ellipse fill="none" stroke="black" cx="1116.11" cy="-185.4" rx="48.28" ry="18"/>
<text xml:space="preserve" text-anchor="middle" x="1116.11" y="-180.35" font-family="Times New Roman,serif" font-size="14.00">[No Data]</text>
</g>
<!-- 34&#45;&gt;35 -->
<g id="edge31" class="edge">
<title>34&#45;&gt;35</title>
<path fill="none" stroke="black" d="M667.42,-185.4C767.41,-185.4 959.18,-185.4 1056.04,-185.4"/>
<polygon fill="black" stroke="black" points="1055.85,-188.9 1065.85,-185.4 1055.85,-181.9 1055.85,-188.9"/>
</g>
<!-- 37 -->
<!-- name: &quot;[No Data]&quot;, typeName: &quot;&quot;, id: 37, branchId: 0, recurseId: &#45;1, attributes: 512, notes: &quot;&quot; -->
<g id="node34" class="node">
<title>37</title>
<ellipse fill="none" stroke="black" cx="1116.11" cy="-131.4" rx="48.28" ry="18"/>
<text xml:space="preserve" text-anchor="middle" x="1116.11" y="-126.35" font-family="Times New Roman,serif" font-size="14.00">[No Data]</text>
</g>
<!-- 36&#45;&gt;37 -->
<g id="edge33" class="edge">
<title>36&#45;&gt;37</title>
<path fill="none" stroke="black" d="M950.52,-134.48C981.98,-133.89 1022.92,-133.12 1056.1,-132.5"/>
<polygon fill="black" stroke="black" points="1056.03,-136.01 1065.97,-132.32 1055.9,-129.01 1056.03,-136.01"/>
</g>
<!-- 39 -->
<!-- name: &quot;[No Data]&quot;, typeName: &quot;&quot;, id: 39, branchId: 0, recurseId: &#45;1, attributes: 512, notes: &quot;&quot; -->
<g id="node36" class="node">
<title>39</title>
<ellipse fill="none" stroke="black" cx="1116.11" cy="-77.4" rx="48.28" ry="18"/>
<text xml:space="preserve" text-anchor="middle" x="1116.11" y="-72.35" font-family="Times New Roman,serif" font-size="14.00">[No Data]</text>
</g>
<!-- 38&#45;&gt;39 -->
<g id="edge35" class="edge">
<title>38&#45;&gt;39</title>
<path fill="none" stroke="black" d="M994.38,-79.09C1015.27,-78.8 1036.87,-78.5 1055.93,-78.23"/>
<polygon fill="black" stroke="black" points="1055.97,-81.73 1065.92,-78.09 1055.87,-74.73 1055.97,-81.73"/>
</g>
<!-- 41 -->
<!-- name: &quot;[No Data]&quot;, typeName: &quot;&quot;, id: 41, branchId: 0, recurseId: &#45;1, attributes: 512, notes: &quot;&quot; -->
<g id="node38" class="node">
<title>41</title>
<ellipse fill="none" stroke="black" cx="1116.11" cy="-23.4" rx="48.28" ry="18"/>
<text xml:space="preserve" text-anchor="middle" x="1116.11" y="-18.35" font-family="Times New Roman,serif" font-size="14.00">[No Data]</text>
</g>
<!-- 40&#45;&gt;41 -->
<g id="edge37" class="edge">
<title>40&#45;&gt;41</title>
<path fill="none" stroke="black" d="M955.43,-24.15C986.19,-24 1024.71,-23.82 1056.2,-23.68"/>
<polygon fill="black" stroke="black" points="1055.96,-27.18 1065.95,-23.63 1055.93,-20.18 1055.96,-27.18"/>
</g>
</g>
</svg>
