<?xml version="1.0" encoding="UTF-8" standalone="no"?>
<!DOCTYPE svg PUBLIC "-//W3C//DTD SVG 1.1//EN"
 "http://www.w3.org/Graphics/SVG/1.1/DTD/svg11.dtd">
<!-- Generated by graphviz version 2.46.1 (20210213.1702)
 -->
<!-- Title: CommandOriginData Pages: 1 -->
<svg width="886pt" height="368pt"
 viewBox="0.00 0.00 886.05 368.00" xmlns="http://www.w3.org/2000/svg" xmlns:xlink="http://www.w3.org/1999/xlink">
<g id="graph0" class="graph" transform="scale(1 1) rotate(0) translate(4 364)">
<title>CommandOriginData</title>
<polygon fill="white" stroke="transparent" points="-4,4 -4,-364 882.05,-364 882.05,4 -4,4"/>
<!-- 4 -->
<!-- name: &quot;CommandOriginData&quot;, typeName: &quot;&quot;, id: 4, branchId: 0, recurseId: &#45;1, attributes: 0, notes: &quot;&quot; -->
<g id="node1" class="node">
<title>4</title>
<ellipse fill="none" stroke="black" cx="87.74" cy="-261" rx="87.99" ry="18"/>
<text text-anchor="middle" x="87.74" y="-257.3" font-family="Times New Roman,serif" font-size="14.00">CommandOriginData</text>
</g>
<!-- 5 -->
<!-- name: &quot;Command Type&quot;, typeName: &quot;&quot;, id: 5, branchId: 0, recurseId: &#45;1, attributes: 0, notes: &quot;enumeration: CommandOriginType&quot; -->
<g id="node2" class="node">
<title>5</title>
<ellipse fill="none" stroke="black" cx="640.56" cy="-340" rx="70.39" ry="18"/>
<text text-anchor="middle" x="640.56" y="-336.3" font-family="Times New Roman,serif" font-size="14.00">Command Type</text>
</g>
<!-- 4&#45;&gt;5 -->
<g id="edge1" class="edge">
<title>4&#45;&gt;5</title>
<path fill="none" stroke="black" d="M118.95,-277.93C143.16,-290.6 178.44,-307.04 211.48,-315 331.06,-343.8 474.58,-345.84 561.34,-343.67"/>
<polygon fill="black" stroke="black" points="561.48,-347.16 571.38,-343.39 561.28,-340.17 561.48,-347.16"/>
</g>
<!-- 7 -->
<!-- name: &quot;Command UUID&quot;, typeName: &quot;mce::UUID&quot;, id: 7, branchId: 0, recurseId: &#45;1, attributes: 256, notes: &quot;Unique UUID that represents an instantiation of a command. Each time a command is run it should be given a UUID to represent that instance.&quot; -->
<g id="node4" class="node">
<title>7</title>
<ellipse fill="none" stroke="black" cx="314.48" cy="-288" rx="73.39" ry="18"/>
<text text-anchor="middle" x="314.48" y="-284.3" font-family="Times New Roman,serif" font-size="14.00">Command UUID</text>
</g>
<!-- 4&#45;&gt;7 -->
<g id="edge3" class="edge">
<title>4&#45;&gt;7</title>
<path fill="none" stroke="black" d="M163.89,-270.03C187.78,-272.9 214.21,-276.07 238.12,-278.95"/>
<polygon fill="black" stroke="black" points="237.85,-282.44 248.2,-280.16 238.69,-275.49 237.85,-282.44"/>
</g>
<!-- 9 -->
<!-- name: &quot;Request ID&quot;, typeName: &quot;&quot;, id: 9, branchId: 0, recurseId: &#45;1, attributes: 0, notes: &quot;&quot; -->
<g id="node6" class="node">
<title>9</title>
<ellipse fill="none" stroke="black" cx="314.48" cy="-234" rx="51.99" ry="18"/>
<text text-anchor="middle" x="314.48" y="-230.3" font-family="Times New Roman,serif" font-size="14.00">Request ID</text>
</g>
<!-- 4&#45;&gt;9 -->
<g id="edge5" class="edge">
<title>4&#45;&gt;9</title>
<path fill="none" stroke="black" d="M163.89,-251.97C193.67,-248.39 227.37,-244.35 255.24,-241"/>
<polygon fill="black" stroke="black" points="255.72,-244.47 265.23,-239.8 254.88,-237.52 255.72,-244.47"/>
</g>
<!-- 11 -->
<!-- name: &quot;Dependency on &#39;Command Type&#39;&quot;, typeName: &quot;&quot;, id: 11, branchId: 0, recurseId: &#45;1, attributes: 2, notes: &quot;&quot; -->
<g id="node8" class="node">
<title>11</title>
<polygon fill="none" stroke="black" points="411.48,-144 211.48,-144 211.48,-108 417.48,-108 417.48,-138 411.48,-144"/>
<polyline fill="none" stroke="black" points="411.48,-144 411.48,-138 "/>
<polyline fill="none" stroke="black" points="417.48,-138 411.48,-138 "/>
<text text-anchor="middle" x="314.48" y="-122.3" font-family="Times New Roman,serif" font-size="14.00">Dependency on &#39;Command Type&#39;</text>
</g>
<!-- 4&#45;&gt;11 -->
<g id="edge7" class="edge">
<title>4&#45;&gt;11</title>
<path fill="none" stroke="black" d="M117.21,-243.9C157.18,-219.89 230.07,-176.11 274.89,-149.18"/>
<polygon fill="black" stroke="black" points="276.69,-152.18 283.46,-144.03 273.09,-146.18 276.69,-152.18"/>
</g>
<!-- 6 -->
<!-- name: &quot;unsigned varint&quot;, typeName: &quot;&quot;, id: 6, branchId: 0, recurseId: &#45;1, attributes: 512, notes: &quot;&quot; -->
<g id="node3" class="node">
<title>6</title>
<ellipse fill="none" stroke="black" cx="812.4" cy="-342" rx="65.79" ry="18"/>
<text text-anchor="middle" x="812.4" y="-338.3" font-family="Times New Roman,serif" font-size="14.00">unsigned varint</text>
</g>
<!-- 5&#45;&gt;6 -->
<g id="edge2" class="edge">
<title>5&#45;&gt;6</title>
<path fill="none" stroke="black" d="M711.13,-340.82C719.47,-340.92 728.01,-341.02 736.42,-341.12"/>
<polygon fill="black" stroke="black" points="736.55,-344.62 746.59,-341.24 736.63,-337.62 736.55,-344.62"/>
</g>
<!-- 8 -->
<!-- name: &quot;mce::UUID&quot;, typeName: &quot;&quot;, id: 8, branchId: 0, recurseId: &#45;1, attributes: 512, notes: &quot;&quot; -->
<g id="node5" class="node">
<title>8</title>
<ellipse fill="none" stroke="black" cx="812.4" cy="-288" rx="51.99" ry="18"/>
<text text-anchor="middle" x="812.4" y="-284.3" font-family="Times New Roman,serif" font-size="14.00">mce::UUID</text>
</g>
<!-- 7&#45;&gt;8 -->
<g id="edge4" class="edge">
<title>7&#45;&gt;8</title>
<path fill="none" stroke="black" d="M388.13,-288C485.92,-288 658.2,-288 749.91,-288"/>
<polygon fill="black" stroke="black" points="750.15,-291.5 760.14,-288 750.14,-284.5 750.15,-291.5"/>
</g>
<!-- 10 -->
<!-- name: &quot;string&quot;, typeName: &quot;&quot;, id: 10, branchId: 0, recurseId: &#45;1, attributes: 512, notes: &quot;&quot; -->
<g id="node7" class="node">
<title>10</title>
<ellipse fill="none" stroke="black" cx="812.4" cy="-234" rx="30.59" ry="18"/>
<text text-anchor="middle" x="812.4" y="-230.3" font-family="Times New Roman,serif" font-size="14.00">string</text>
</g>
<!-- 9&#45;&gt;10 -->
<g id="edge6" class="edge">
<title>9&#45;&gt;10</title>
<path fill="none" stroke="black" d="M366.69,-234C465.85,-234 682.2,-234 771.56,-234"/>
<polygon fill="black" stroke="black" points="771.81,-237.5 781.81,-234 771.81,-230.5 771.81,-237.5"/>
</g>
<!-- 12 -->
<!-- name: &quot;if (0)&quot;, typeName: &quot;&quot;, id: 12, branchId: 0, recurseId: &#45;1, attributes: 4, notes: &quot;&quot; -->
<g id="node9" class="node">
<title>12</title>
<polygon fill="none" stroke="black" points="493.93,-194 453.54,-176 493.93,-158 534.31,-176 493.93,-194"/>
<text text-anchor="middle" x="493.93" y="-172.3" font-family="Times New Roman,serif" font-size="14.00">if (0)</text>
</g>
<!-- 11&#45;&gt;12 -->
<g id="edge8" class="edge">
<title>11&#45;&gt;12</title>
<path fill="none" stroke="black" d="M379.55,-144.05C406.4,-151.62 436.54,-160.11 458.99,-166.44"/>
<polygon fill="black" stroke="black" points="458.14,-169.84 468.72,-169.18 460.04,-163.1 458.14,-169.84"/>
</g>
<!-- 14 -->
<!-- name: &quot;if (5)&quot;, typeName: &quot;&quot;, id: 14, branchId: 5, recurseId: &#45;1, attributes: 4, notes: &quot;&quot; -->
<g id="node11" class="node">
<title>14</title>
<polygon fill="none" stroke="black" points="640.56,-144 600.18,-126 640.56,-108 680.95,-126 640.56,-144"/>
<text text-anchor="middle" x="640.56" y="-122.3" font-family="Times New Roman,serif" font-size="14.00">if (5)</text>
</g>
<!-- 11&#45;&gt;14 -->
<g id="edge10" class="edge">
<title>11&#45;&gt;14</title>
<path fill="none" stroke="black" d="M417.58,-126C474.9,-126 543.87,-126 589.56,-126"/>
<polygon fill="black" stroke="black" points="589.79,-129.5 599.79,-126 589.79,-122.5 589.79,-129.5"/>
</g>
<!-- 16 -->
<!-- name: &quot;if (4)&quot;, typeName: &quot;&quot;, id: 16, branchId: 4, recurseId: &#45;1, attributes: 4, notes: &quot;&quot; -->
<g id="node13" class="node">
<title>16</title>
<polygon fill="none" stroke="black" points="493.93,-94 453.54,-76 493.93,-58 534.31,-76 493.93,-94"/>
<text text-anchor="middle" x="493.93" y="-72.3" font-family="Times New Roman,serif" font-size="14.00">if (4)</text>
</g>
<!-- 11&#45;&gt;16 -->
<g id="edge12" class="edge">
<title>11&#45;&gt;16</title>
<path fill="none" stroke="black" d="M379.55,-107.95C406.4,-100.38 436.54,-91.89 458.99,-85.56"/>
<polygon fill="black" stroke="black" points="460.04,-88.9 468.72,-82.82 458.14,-82.16 460.04,-88.9"/>
</g>
<!-- 19 -->
<!-- name: &quot;if (3)&quot;, typeName: &quot;&quot;, id: 19, branchId: 3, recurseId: &#45;1, attributes: 4, notes: &quot;&quot; -->
<g id="node16" class="node">
<title>19</title>
<polygon fill="none" stroke="black" points="493.93,-38 453.54,-20 493.93,-2 534.31,-20 493.93,-38"/>
<text text-anchor="middle" x="493.93" y="-16.3" font-family="Times New Roman,serif" font-size="14.00">if (3)</text>
</g>
<!-- 11&#45;&gt;19 -->
<g id="edge15" class="edge">
<title>11&#45;&gt;19</title>
<path fill="none" stroke="black" d="M345.99,-107.78C380.08,-87.41 434.7,-54.78 466.87,-35.57"/>
<polygon fill="black" stroke="black" points="468.91,-38.43 475.7,-30.29 465.32,-32.42 468.91,-38.43"/>
</g>
<!-- 13 -->
<!-- name: &quot;[No Data]&quot;, typeName: &quot;&quot;, id: 13, branchId: 0, recurseId: &#45;1, attributes: 512, notes: &quot;&quot; -->
<g id="node10" class="node">
<title>13</title>
<ellipse fill="none" stroke="black" cx="812.4" cy="-180" rx="46.59" ry="18"/>
<text text-anchor="middle" x="812.4" y="-176.3" font-family="Times New Roman,serif" font-size="14.00">[No Data]</text>
</g>
<!-- 12&#45;&gt;13 -->
<g id="edge9" class="edge">
<title>12&#45;&gt;13</title>
<path fill="none" stroke="black" d="M533.42,-176.49C588.81,-177.19 691.36,-178.48 755.22,-179.29"/>
<polygon fill="black" stroke="black" points="755.47,-182.79 765.51,-179.42 755.56,-175.79 755.47,-182.79"/>
</g>
<!-- 15 -->
<!-- name: &quot;[No Data]&quot;, typeName: &quot;&quot;, id: 15, branchId: 0, recurseId: &#45;1, attributes: 512, notes: &quot;&quot; -->
<g id="node12" class="node">
<title>15</title>
<ellipse fill="none" stroke="black" cx="812.4" cy="-126" rx="46.59" ry="18"/>
<text text-anchor="middle" x="812.4" y="-122.3" font-family="Times New Roman,serif" font-size="14.00">[No Data]</text>
</g>
<!-- 14&#45;&gt;15 -->
<g id="edge11" class="edge">
<title>14&#45;&gt;15</title>
<path fill="none" stroke="black" d="M680.96,-126C702.99,-126 730.83,-126 755.13,-126"/>
<polygon fill="black" stroke="black" points="755.3,-129.5 765.3,-126 755.3,-122.5 755.3,-129.5"/>
</g>
<!-- 17 -->
<!-- name: &quot;Player ID&quot;, typeName: &quot;&quot;, id: 17, branchId: 0, recurseId: &#45;1, attributes: 0, notes: &quot;&quot; -->
<g id="node14" class="node">
<title>17</title>
<ellipse fill="none" stroke="black" cx="640.56" cy="-72" rx="44.69" ry="18"/>
<text text-anchor="middle" x="640.56" y="-68.3" font-family="Times New Roman,serif" font-size="14.00">Player ID</text>
</g>
<!-- 16&#45;&gt;17 -->
<g id="edge13" class="edge">
<title>16&#45;&gt;17</title>
<path fill="none" stroke="black" d="M532.17,-74.97C548.41,-74.52 567.75,-73.99 585.52,-73.49"/>
<polygon fill="black" stroke="black" points="585.86,-76.99 595.76,-73.21 585.67,-69.99 585.86,-76.99"/>
</g>
<!-- 18 -->
<!-- name: &quot;varint64&quot;, typeName: &quot;&quot;, id: 18, branchId: 0, recurseId: &#45;1, attributes: 512, notes: &quot;&quot; -->
<g id="node15" class="node">
<title>18</title>
<ellipse fill="none" stroke="black" cx="812.4" cy="-72" rx="39.79" ry="18"/>
<text text-anchor="middle" x="812.4" y="-68.3" font-family="Times New Roman,serif" font-size="14.00">varint64</text>
</g>
<!-- 17&#45;&gt;18 -->
<g id="edge14" class="edge">
<title>17&#45;&gt;18</title>
<path fill="none" stroke="black" d="M685.74,-72C709.31,-72 738.36,-72 762.59,-72"/>
<polygon fill="black" stroke="black" points="762.65,-75.5 772.65,-72 762.65,-68.5 762.65,-75.5"/>
</g>
<!-- 20 -->
<!-- name: &quot;Player ID&quot;, typeName: &quot;&quot;, id: 20, branchId: 0, recurseId: &#45;1, attributes: 0, notes: &quot;&quot; -->
<g id="node17" class="node">
<title>20</title>
<ellipse fill="none" stroke="black" cx="640.56" cy="-18" rx="44.69" ry="18"/>
<text text-anchor="middle" x="640.56" y="-14.3" font-family="Times New Roman,serif" font-size="14.00">Player ID</text>
</g>
<!-- 19&#45;&gt;20 -->
<g id="edge16" class="edge">
<title>19&#45;&gt;20</title>
<path fill="none" stroke="black" d="M533.31,-19.47C549.33,-19.25 568.22,-18.99 585.6,-18.75"/>
<polygon fill="black" stroke="black" points="585.68,-22.25 595.63,-18.61 585.58,-15.25 585.68,-22.25"/>
</g>
<!-- 21 -->
<!-- name: &quot;varint64&quot;, typeName: &quot;&quot;, id: 21, branchId: 0, recurseId: &#45;1, attributes: 512, notes: &quot;&quot; -->
<g id="node18" class="node">
<title>21</title>
<ellipse fill="none" stroke="black" cx="812.4" cy="-18" rx="39.79" ry="18"/>
<text text-anchor="middle" x="812.4" y="-14.3" font-family="Times New Roman,serif" font-size="14.00">varint64</text>
</g>
<!-- 20&#45;&gt;21 -->
<g id="edge17" class="edge">
<title>20&#45;&gt;21</title>
<path fill="none" stroke="black" d="M685.74,-18C709.31,-18 738.36,-18 762.59,-18"/>
<polygon fill="black" stroke="black" points="762.65,-21.5 772.65,-18 762.65,-14.5 762.65,-21.5"/>
</g>
</g>
</svg>
