<?xml version="1.0" encoding="UTF-8" standalone="no"?>
<!DOCTYPE svg PUBLIC "-//W3C//DTD SVG 1.1//EN"
 "http://www.w3.org/Graphics/SVG/1.1/DTD/svg11.dtd">
<!-- Generated by graphviz version 2.46.1 (20210213.1702)
 -->
<!-- Title: CompressedBiomeDefinitionList Pages: 1 -->
<svg width="599pt" height="44pt"
 viewBox="0.00 0.00 598.65 44.00" xmlns="http://www.w3.org/2000/svg" xmlns:xlink="http://www.w3.org/1999/xlink">
<g id="graph0" class="graph" transform="scale(1 1) rotate(0) translate(4 40)">
<title>CompressedBiomeDefinitionList</title>
<polygon fill="white" stroke="transparent" points="-4,4 -4,-40 594.65,-40 594.65,4 -4,4"/>
<!-- 0 -->
<!-- name: &quot;CompressedBiomeDefinitionList&quot;, typeName: &quot;&quot;, id: 0, branchId: 301, recurseId: &#45;1, attributes: 0, notes: &quot;&quot; -->
<g id="node1" class="node">
<title>0</title>
<ellipse fill="none" stroke="black" cx="129.34" cy="-18" rx="129.18" ry="18"/>
<text text-anchor="middle" x="129.34" y="-14.3" font-family="Times New Roman,serif" font-size="14.00">CompressedBiomeDefinitionList</text>
</g>
<!-- 1 -->
<!-- name: &quot;Compressed BiomeData&quot;, typeName: &quot;&quot;, id: 1, branchId: 0, recurseId: &#45;1, attributes: 0, notes: &quot;&quot; -->
<g id="node2" class="node">
<title>1</title>
<ellipse fill="none" stroke="black" cx="394.12" cy="-18" rx="99.38" ry="18"/>
<text text-anchor="middle" x="394.12" y="-14.3" font-family="Times New Roman,serif" font-size="14.00">Compressed BiomeData</text>
</g>
<!-- 0&#45;&gt;1 -->
<g id="edge1" class="edge">
<title>0&#45;&gt;1</title>
<path fill="none" stroke="black" d="M259.03,-18C267.54,-18 276.06,-18 284.45,-18"/>
<polygon fill="black" stroke="black" points="284.62,-21.5 294.62,-18 284.62,-14.5 284.62,-21.5"/>
</g>
<!-- 2 -->
<!-- name: &quot;string&quot;, typeName: &quot;&quot;, id: 2, branchId: 0, recurseId: &#45;1, attributes: 512, notes: &quot;&quot; -->
<g id="node3" class="node">
<title>2</title>
<ellipse fill="none" stroke="black" cx="560.11" cy="-18" rx="30.59" ry="18"/>
<text text-anchor="middle" x="560.11" y="-14.3" font-family="Times New Roman,serif" font-size="14.00">string</text>
</g>
<!-- 1&#45;&gt;2 -->
<g id="edge2" class="edge">
<title>1&#45;&gt;2</title>
<path fill="none" stroke="black" d="M493.82,-18C502.68,-18 511.27,-18 519.15,-18"/>
<polygon fill="black" stroke="black" points="519.41,-21.5 529.41,-18 519.41,-14.5 519.41,-21.5"/>
</g>
</g>
</svg>
