<?xml version="1.0" encoding="UTF-8" standalone="no"?>
<!DOCTYPE svg PUBLIC "-//W3C//DTD SVG 1.1//EN"
 "http://www.w3.org/Graphics/SVG/1.1/DTD/svg11.dtd">
<!-- Generated by graphviz version 12.2.0 (20241103.1931)
 -->
<!-- Title: ContainerOpenPacket Pages: 1 -->
<svg width="594pt" height="206pt"
 viewBox="0.00 0.00 593.86 206.00" xmlns="http://www.w3.org/2000/svg" xmlns:xlink="http://www.w3.org/1999/xlink">
<g id="graph0" class="graph" transform="scale(1 1) rotate(0) translate(4 202)">
<title>ContainerOpenPacket</title>
<polygon fill="white" stroke="none" points="-4,4 -4,-202 589.86,-202 589.86,4 -4,4"/>
<!-- 0 -->
<!-- name: &quot;ContainerOpenPacket&quot;, typeName: &quot;&quot;, id: 0, branchId: 46, recurseId: &#45;1, attributes: 0, notes: &quot;&quot; -->
<g id="node1" class="node">
<title>0</title>
<ellipse fill="none" stroke="black" cx="91.78" cy="-99" rx="91.78" ry="18"/>
<text text-anchor="middle" x="91.78" y="-93.95" font-family="Times New Roman,serif" font-size="14.00">ContainerOpenPacket</text>
</g>
<!-- 1 -->
<!-- name: &quot;Container ID&quot;, typeName: &quot;&quot;, id: 1, branchId: 0, recurseId: &#45;1, attributes: 0, notes: &quot;&quot; -->
<g id="node2" class="node">
<title>1</title>
<ellipse fill="none" stroke="black" cx="289.35" cy="-180" rx="59.54" ry="18"/>
<text text-anchor="middle" x="289.35" y="-174.95" font-family="Times New Roman,serif" font-size="14.00">Container ID</text>
</g>
<!-- 0&#45;&gt;1 -->
<g id="edge1" class="edge">
<title>0&#45;&gt;1</title>
<path fill="none" stroke="black" d="M131.23,-115.71C156.3,-126.53 189.79,-140.81 219.57,-153 226.43,-155.81 233.69,-158.72 240.83,-161.55"/>
<polygon fill="black" stroke="black" points="239.51,-164.79 250.1,-165.21 242.08,-158.28 239.51,-164.79"/>
</g>
<!-- 3 -->
<!-- name: &quot;Container Type&quot;, typeName: &quot;&quot;, id: 3, branchId: 0, recurseId: &#45;1, attributes: 0, notes: &quot;&quot; -->
<g id="node4" class="node">
<title>3</title>
<ellipse fill="none" stroke="black" cx="289.35" cy="-126" rx="67.73" ry="18"/>
<text text-anchor="middle" x="289.35" y="-120.95" font-family="Times New Roman,serif" font-size="14.00">Container Type</text>
</g>
<!-- 0&#45;&gt;3 -->
<g id="edge3" class="edge">
<title>0&#45;&gt;3</title>
<path fill="none" stroke="black" d="M167.83,-109.36C184.11,-111.61 201.28,-113.98 217.39,-116.2"/>
<polygon fill="black" stroke="black" points="216.47,-119.61 226.86,-117.51 217.43,-112.68 216.47,-119.61"/>
</g>
<!-- 5 -->
<!-- name: &quot;Position&quot;, typeName: &quot;NetworkBlockPosition&quot;, id: 5, branchId: 0, recurseId: &#45;1, attributes: 256, notes: &quot;&quot; -->
<g id="node6" class="node">
<title>5</title>
<ellipse fill="none" stroke="black" cx="289.35" cy="-72" rx="41.12" ry="18"/>
<text text-anchor="middle" x="289.35" y="-66.95" font-family="Times New Roman,serif" font-size="14.00">Position</text>
</g>
<!-- 0&#45;&gt;5 -->
<g id="edge5" class="edge">
<title>0&#45;&gt;5</title>
<path fill="none" stroke="black" d="M167.83,-88.64C191.48,-85.37 217.01,-81.85 238.45,-78.89"/>
<polygon fill="black" stroke="black" points="238.66,-82.39 248.09,-77.56 237.7,-75.46 238.66,-82.39"/>
</g>
<!-- 7 -->
<!-- name: &quot;Target Actor ID&quot;, typeName: &quot;ActorUniqueID&quot;, id: 7, branchId: 0, recurseId: &#45;1, attributes: 256, notes: &quot;&quot; -->
<g id="node8" class="node">
<title>7</title>
<ellipse fill="none" stroke="black" cx="289.35" cy="-18" rx="69.78" ry="18"/>
<text text-anchor="middle" x="289.35" y="-12.95" font-family="Times New Roman,serif" font-size="14.00">Target Actor ID</text>
</g>
<!-- 0&#45;&gt;7 -->
<g id="edge7" class="edge">
<title>0&#45;&gt;7</title>
<path fill="none" stroke="black" d="M131.23,-82.29C156.3,-71.47 189.79,-57.19 219.57,-45 225.73,-42.48 232.22,-39.87 238.65,-37.31"/>
<polygon fill="black" stroke="black" points="239.93,-40.57 247.94,-33.64 237.35,-34.06 239.93,-40.57"/>
</g>
<!-- 2 -->
<!-- name: &quot;byte&quot;, typeName: &quot;&quot;, id: 2, branchId: 0, recurseId: &#45;1, attributes: 512, notes: &quot;&quot; -->
<g id="node3" class="node">
<title>2</title>
<ellipse fill="none" stroke="black" cx="490.49" cy="-180" rx="27" ry="18"/>
<text text-anchor="middle" x="490.49" y="-174.95" font-family="Times New Roman,serif" font-size="14.00">byte</text>
</g>
<!-- 1&#45;&gt;2 -->
<g id="edge2" class="edge">
<title>1&#45;&gt;2</title>
<path fill="none" stroke="black" d="M349.29,-180C382.45,-180 422.87,-180 451.78,-180"/>
<polygon fill="black" stroke="black" points="451.51,-183.5 461.51,-180 451.51,-176.5 451.51,-183.5"/>
</g>
<!-- 4 -->
<!-- name: &quot;byte&quot;, typeName: &quot;&quot;, id: 4, branchId: 0, recurseId: &#45;1, attributes: 512, notes: &quot;&quot; -->
<g id="node5" class="node">
<title>4</title>
<ellipse fill="none" stroke="black" cx="490.49" cy="-126" rx="27" ry="18"/>
<text text-anchor="middle" x="490.49" y="-120.95" font-family="Times New Roman,serif" font-size="14.00">byte</text>
</g>
<!-- 3&#45;&gt;4 -->
<g id="edge4" class="edge">
<title>3&#45;&gt;4</title>
<path fill="none" stroke="black" d="M357.49,-126C389.02,-126 425.42,-126 452,-126"/>
<polygon fill="black" stroke="black" points="451.95,-129.5 461.95,-126 451.95,-122.5 451.95,-129.5"/>
</g>
<!-- 6 -->
<!-- name: &quot;NetworkBlockPosition&quot;, typeName: &quot;&quot;, id: 6, branchId: 0, recurseId: &#45;1, attributes: 512, notes: &quot;&quot; -->
<g id="node7" class="node">
<title>6</title>
<ellipse fill="none" stroke="black" cx="490.49" cy="-72" rx="95.37" ry="18"/>
<text text-anchor="middle" x="490.49" y="-66.95" font-family="Times New Roman,serif" font-size="14.00">NetworkBlockPosition</text>
</g>
<!-- 5&#45;&gt;6 -->
<g id="edge6" class="edge">
<title>5&#45;&gt;6</title>
<path fill="none" stroke="black" d="M330.64,-72C346.15,-72 364.68,-72 383.51,-72"/>
<polygon fill="black" stroke="black" points="383.42,-75.5 393.42,-72 383.42,-68.5 383.42,-75.5"/>
</g>
<!-- 8 -->
<!-- name: &quot;ActorUniqueID&quot;, typeName: &quot;&quot;, id: 8, branchId: 0, recurseId: &#45;1, attributes: 512, notes: &quot;&quot; -->
<g id="node9" class="node">
<title>8</title>
<ellipse fill="none" stroke="black" cx="490.49" cy="-18" rx="68.75" ry="18"/>
<text text-anchor="middle" x="490.49" y="-12.95" font-family="Times New Roman,serif" font-size="14.00">ActorUniqueID</text>
</g>
<!-- 7&#45;&gt;8 -->
<g id="edge8" class="edge">
<title>7&#45;&gt;8</title>
<path fill="none" stroke="black" d="M359.44,-18C375.78,-18 393.33,-18 410.08,-18"/>
<polygon fill="black" stroke="black" points="410.01,-21.5 420.01,-18 410.01,-14.5 410.01,-21.5"/>
</g>
</g>
</svg>
