<?xml version="1.0" encoding="UTF-8" standalone="no"?>
<!DOCTYPE svg PUBLIC "-//W3C//DTD SVG 1.1//EN"
 "http://www.w3.org/Graphics/SVG/1.1/DTD/svg11.dtd">
<!-- Generated by graphviz version 11.0.0 (20240428.1522)
 -->
<!-- Title: ContainerMixDataEntry Pages: 1 -->
<svg width="519pt" height="152pt"
 viewBox="0.00 0.00 519.12 152.00" xmlns="http://www.w3.org/2000/svg" xmlns:xlink="http://www.w3.org/1999/xlink">
<g id="graph0" class="graph" transform="scale(1 1) rotate(0) translate(4 148)">
<title>ContainerMixDataEntry</title>
<polygon fill="white" stroke="none" points="-4,4 -4,-148 515.12,-148 515.12,4 -4,4"/>
<!-- 31 -->
<!-- name: &quot;ContainerMixDataEntry&quot;, typeName: &quot;&quot;, id: 31, branchId: 0, recurseId: &#45;1, attributes: 0, notes: &quot;&quot; -->
<g id="node1" class="node">
<title>31</title>
<ellipse fill="none" stroke="black" cx="97.97" cy="-72" rx="97.97" ry="18"/>
<text text-anchor="middle" x="97.97" y="-66.58" font-family="Times New Roman,serif" font-size="14.00">ContainerMixDataEntry</text>
</g>
<!-- 32 -->
<!-- name: &quot;From Item (Id): Input&quot;, typeName: &quot;&quot;, id: 32, branchId: 0, recurseId: &#45;1, attributes: 0, notes: &quot;&quot; -->
<g id="node2" class="node">
<title>32</title>
<ellipse fill="none" stroke="black" cx="322.42" cy="-126" rx="90.48" ry="18"/>
<text text-anchor="middle" x="322.42" y="-120.58" font-family="Times New Roman,serif" font-size="14.00">From Item (Id): Input</text>
</g>
<!-- 31&#45;&gt;32 -->
<g id="edge1" class="edge">
<title>31&#45;&gt;32</title>
<path fill="none" stroke="black" d="M158.58,-86.47C187.58,-93.51 222.6,-102.01 252.71,-109.32"/>
<polygon fill="black" stroke="black" points="251.55,-112.64 262.1,-111.6 253.21,-105.84 251.55,-112.64"/>
</g>
<!-- 34 -->
<!-- name: &quot;Re&#45;agent Item Id&quot;, typeName: &quot;&quot;, id: 34, branchId: 0, recurseId: &#45;1, attributes: 0, notes: &quot;&quot; -->
<g id="node4" class="node">
<title>34</title>
<ellipse fill="none" stroke="black" cx="322.42" cy="-72" rx="73.02" ry="18"/>
<text text-anchor="middle" x="322.42" y="-66.58" font-family="Times New Roman,serif" font-size="14.00">Re&#45;agent Item Id</text>
</g>
<!-- 31&#45;&gt;34 -->
<g id="edge3" class="edge">
<title>31&#45;&gt;34</title>
<path fill="none" stroke="black" d="M196.22,-72C210.1,-72 224.28,-72 237.87,-72"/>
<polygon fill="black" stroke="black" points="237.61,-75.5 247.61,-72 237.61,-68.5 237.61,-75.5"/>
</g>
<!-- 36 -->
<!-- name: &quot;To Item (Id): Output&quot;, typeName: &quot;&quot;, id: 36, branchId: 0, recurseId: &#45;1, attributes: 0, notes: &quot;&quot; -->
<g id="node6" class="node">
<title>36</title>
<ellipse fill="none" stroke="black" cx="322.42" cy="-18" rx="87.49" ry="18"/>
<text text-anchor="middle" x="322.42" y="-12.57" font-family="Times New Roman,serif" font-size="14.00">To Item (Id): Output</text>
</g>
<!-- 31&#45;&gt;36 -->
<g id="edge5" class="edge">
<title>31&#45;&gt;36</title>
<path fill="none" stroke="black" d="M158.58,-57.53C187.81,-50.43 223.15,-41.86 253.43,-34.51"/>
<polygon fill="black" stroke="black" points="253.97,-37.98 262.86,-32.22 252.32,-31.17 253.97,-37.98"/>
</g>
<!-- 33 -->
<!-- name: &quot;varint&quot;, typeName: &quot;&quot;, id: 33, branchId: 0, recurseId: &#45;1, attributes: 512, notes: &quot;&quot; -->
<g id="node3" class="node">
<title>33</title>
<ellipse fill="none" stroke="black" cx="480.01" cy="-126" rx="31.1" ry="18"/>
<text text-anchor="middle" x="480.01" y="-120.58" font-family="Times New Roman,serif" font-size="14.00">varint</text>
</g>
<!-- 32&#45;&gt;33 -->
<g id="edge2" class="edge">
<title>32&#45;&gt;33</title>
<path fill="none" stroke="black" d="M413.03,-126C421.36,-126 429.51,-126 437.08,-126"/>
<polygon fill="black" stroke="black" points="436.93,-129.5 446.93,-126 436.93,-122.5 436.93,-129.5"/>
</g>
<!-- 35 -->
<!-- name: &quot;varint&quot;, typeName: &quot;&quot;, id: 35, branchId: 0, recurseId: &#45;1, attributes: 512, notes: &quot;&quot; -->
<g id="node5" class="node">
<title>35</title>
<ellipse fill="none" stroke="black" cx="480.01" cy="-72" rx="31.1" ry="18"/>
<text text-anchor="middle" x="480.01" y="-66.58" font-family="Times New Roman,serif" font-size="14.00">varint</text>
</g>
<!-- 34&#45;&gt;35 -->
<g id="edge4" class="edge">
<title>34&#45;&gt;35</title>
<path fill="none" stroke="black" d="M395.75,-72C409.97,-72 424.43,-72 437.23,-72"/>
<polygon fill="black" stroke="black" points="436.94,-75.5 446.94,-72 436.94,-68.5 436.94,-75.5"/>
</g>
<!-- 37 -->
<!-- name: &quot;varint&quot;, typeName: &quot;&quot;, id: 37, branchId: 0, recurseId: &#45;1, attributes: 512, notes: &quot;&quot; -->
<g id="node7" class="node">
<title>37</title>
<ellipse fill="none" stroke="black" cx="480.01" cy="-18" rx="31.1" ry="18"/>
<text text-anchor="middle" x="480.01" y="-12.57" font-family="Times New Roman,serif" font-size="14.00">varint</text>
</g>
<!-- 36&#45;&gt;37 -->
<g id="edge6" class="edge">
<title>36&#45;&gt;37</title>
<path fill="none" stroke="black" d="M410.32,-18C419.68,-18 428.87,-18 437.33,-18"/>
<polygon fill="black" stroke="black" points="437.23,-21.5 447.23,-18 437.23,-14.5 437.23,-21.5"/>
</g>
</g>
</svg>
