<?xml version="1.0" encoding="UTF-8" standalone="no"?>
<!DOCTYPE svg PUBLIC "-//W3C//DTD SVG 1.1//EN"
 "http://www.w3.org/Graphics/SVG/1.1/DTD/svg11.dtd">
<!-- Generated by graphviz version 12.2.1 (20241206.2353)
 -->
<!-- Title: ContainerClosePacket Pages: 1 -->
<svg width="504pt" height="152pt"
 viewBox="0.00 0.00 503.78 152.00" xmlns="http://www.w3.org/2000/svg" xmlns:xlink="http://www.w3.org/1999/xlink">
<g id="graph0" class="graph" transform="scale(1 1) rotate(0) translate(4 148)">
<title>ContainerClosePacket</title>
<polygon fill="white" stroke="none" points="-4,4 -4,-148 499.78,-148 499.78,4 -4,4"/>
<!-- 0 -->
<!-- name: &quot;ContainerClosePacket&quot;, typeName: &quot;&quot;, id: 0, branchId: 47, recurseId: &#45;1, attributes: 0, notes: &quot;&quot; -->
<g id="node1" class="node">
<title>0</title>
<ellipse fill="none" stroke="black" cx="92.81" cy="-72" rx="92.81" ry="18"/>
<text text-anchor="middle" x="92.81" y="-66.95" font-family="Times New Roman,serif" font-size="14.00">ContainerClosePacket</text>
</g>
<!-- 1 -->
<!-- name: &quot;Container ID&quot;, typeName: &quot;&quot;, id: 1, branchId: 0, recurseId: &#45;1, attributes: 0, notes: &quot;&quot; -->
<g id="node2" class="node">
<title>1</title>
<ellipse fill="none" stroke="black" cx="313.4" cy="-126" rx="59.54" ry="18"/>
<text text-anchor="middle" x="313.4" y="-120.95" font-family="Times New Roman,serif" font-size="14.00">Container ID</text>
</g>
<!-- 0&#45;&gt;1 -->
<g id="edge1" class="edge">
<title>0&#45;&gt;1</title>
<path fill="none" stroke="black" d="M151.81,-86.33C183.83,-94.24 223.45,-104.03 255.32,-111.9"/>
<polygon fill="black" stroke="black" points="254.23,-115.23 264.77,-114.23 255.91,-108.44 254.23,-115.23"/>
</g>
<!-- 3 -->
<!-- name: &quot;Container Type&quot;, typeName: &quot;&quot;, id: 3, branchId: 0, recurseId: &#45;1, attributes: 0, notes: &quot;&quot; -->
<g id="node4" class="node">
<title>3</title>
<ellipse fill="none" stroke="black" cx="313.4" cy="-72" rx="67.73" ry="18"/>
<text text-anchor="middle" x="313.4" y="-66.95" font-family="Times New Roman,serif" font-size="14.00">Container Type</text>
</g>
<!-- 0&#45;&gt;3 -->
<g id="edge3" class="edge">
<title>0&#45;&gt;3</title>
<path fill="none" stroke="black" d="M185.88,-72C201.93,-72 218.5,-72 234.14,-72"/>
<polygon fill="black" stroke="black" points="233.83,-75.5 243.83,-72 233.83,-68.5 233.83,-75.5"/>
</g>
<!-- 5 -->
<!-- name: &quot;Server Initiated Close&quot;, typeName: &quot;&quot;, id: 5, branchId: 0, recurseId: &#45;1, attributes: 0, notes: &quot;True if the server initiated the closing&quot; -->
<g id="node6" class="node">
<title>5</title>
<ellipse fill="none" stroke="black" cx="313.4" cy="-18" rx="91.78" ry="18"/>
<text text-anchor="middle" x="313.4" y="-12.95" font-family="Times New Roman,serif" font-size="14.00">Server Initiated Close</text>
</g>
<!-- 0&#45;&gt;5 -->
<g id="edge5" class="edge">
<title>0&#45;&gt;5</title>
<path fill="none" stroke="black" d="M151.81,-57.67C180.08,-50.69 214.26,-42.24 243.81,-34.95"/>
<polygon fill="black" stroke="black" points="244.54,-38.37 253.41,-32.57 242.87,-31.57 244.54,-38.37"/>
</g>
<!-- 2 -->
<!-- name: &quot;byte&quot;, typeName: &quot;&quot;, id: 2, branchId: 0, recurseId: &#45;1, attributes: 512, notes: &quot;&quot; -->
<g id="node3" class="node">
<title>2</title>
<ellipse fill="none" stroke="black" cx="468.48" cy="-126" rx="27" ry="18"/>
<text text-anchor="middle" x="468.48" y="-120.95" font-family="Times New Roman,serif" font-size="14.00">byte</text>
</g>
<!-- 1&#45;&gt;2 -->
<g id="edge2" class="edge">
<title>1&#45;&gt;2</title>
<path fill="none" stroke="black" d="M373.15,-126C392.19,-126 412.79,-126 429.87,-126"/>
<polygon fill="black" stroke="black" points="429.55,-129.5 439.55,-126 429.55,-122.5 429.55,-129.5"/>
</g>
<!-- 4 -->
<!-- name: &quot;byte&quot;, typeName: &quot;&quot;, id: 4, branchId: 0, recurseId: &#45;1, attributes: 512, notes: &quot;&quot; -->
<g id="node5" class="node">
<title>4</title>
<ellipse fill="none" stroke="black" cx="468.48" cy="-72" rx="27" ry="18"/>
<text text-anchor="middle" x="468.48" y="-66.95" font-family="Times New Roman,serif" font-size="14.00">byte</text>
</g>
<!-- 3&#45;&gt;4 -->
<g id="edge4" class="edge">
<title>3&#45;&gt;4</title>
<path fill="none" stroke="black" d="M381.54,-72C398.15,-72 415.36,-72 429.97,-72"/>
<polygon fill="black" stroke="black" points="429.56,-75.5 439.56,-72 429.56,-68.5 429.56,-75.5"/>
</g>
<!-- 6 -->
<!-- name: &quot;bool&quot;, typeName: &quot;&quot;, id: 6, branchId: 0, recurseId: &#45;1, attributes: 512, notes: &quot;&quot; -->
<g id="node7" class="node">
<title>6</title>
<ellipse fill="none" stroke="black" cx="468.48" cy="-18" rx="27.3" ry="18"/>
<text text-anchor="middle" x="468.48" y="-12.95" font-family="Times New Roman,serif" font-size="14.00">bool</text>
</g>
<!-- 5&#45;&gt;6 -->
<g id="edge6" class="edge">
<title>5&#45;&gt;6</title>
<path fill="none" stroke="black" d="M405.66,-18C413.96,-18 422.03,-18 429.44,-18"/>
<polygon fill="black" stroke="black" points="429.34,-21.5 439.34,-18 429.34,-14.5 429.34,-21.5"/>
</g>
</g>
</svg>
