<?xml version="1.0" encoding="UTF-8" standalone="no"?>
<!DOCTYPE svg PUBLIC "-//W3C//DTD SVG 1.1//EN"
 "http://www.w3.org/Graphics/SVG/1.1/DTD/svg11.dtd">
<!-- Generated by graphviz version 12.2.0 (20241103.1931)
 -->
<!-- Title: ContainerRegistryCleanupPacket Pages: 1 -->
<svg width="1096pt" height="98pt"
 viewBox="0.00 0.00 1096.46 98.00" xmlns="http://www.w3.org/2000/svg" xmlns:xlink="http://www.w3.org/1999/xlink">
<g id="graph0" class="graph" transform="scale(1 1) rotate(0) translate(4 94)">
<title>ContainerRegistryCleanupPacket</title>
<polygon fill="white" stroke="none" points="-4,4 -4,-94 1092.46,-94 1092.46,4 -4,4"/>
<!-- 0 -->
<!-- name: &quot;ContainerRegistryCleanupPacket&quot;, typeName: &quot;&quot;, id: 0, branchId: 317, recurseId: &#45;1, attributes: 0, notes: &quot;&quot; -->
<g id="node1" class="node">
<title>0</title>
<ellipse fill="none" stroke="black" cx="133.75" cy="-45" rx="133.75" ry="18"/>
<text text-anchor="middle" x="133.75" y="-39.95" font-family="Times New Roman,serif" font-size="14.00">ContainerRegistryCleanupPacket</text>
</g>
<!-- 1 -->
<!-- name: &quot;Removed Containers&quot;, typeName: &quot;&quot;, id: 1, branchId: 0, recurseId: &#45;1, attributes: 8, notes: &quot;&quot; -->
<g id="node2" class="node">
<title>1</title>
<ellipse fill="none" stroke="black" cx="392.73" cy="-45" rx="89.23" ry="18"/>
<text text-anchor="middle" x="392.73" y="-39.95" font-family="Times New Roman,serif" font-size="14.00">Removed Containers</text>
</g>
<!-- 0&#45;&gt;1 -->
<g id="edge1" class="edge">
<title>0&#45;&gt;1</title>
<path fill="none" stroke="black" d="M267.76,-45C275.82,-45 283.86,-45 291.75,-45"/>
<polygon fill="black" stroke="black" points="291.67,-48.5 301.67,-45 291.67,-41.5 291.67,-48.5"/>
</g>
<!-- 2 -->
<!-- name: &quot;List Size&quot;, typeName: &quot;&quot;, id: 2, branchId: 0, recurseId: &#45;1, attributes: 0, notes: &quot;&quot; -->
<g id="node3" class="node">
<title>2</title>
<ellipse fill="none" stroke="black" cx="793.48" cy="-72" rx="43.67" ry="18"/>
<text text-anchor="middle" x="793.48" y="-66.95" font-family="Times New Roman,serif" font-size="14.00">List Size</text>
</g>
<!-- 1&#45;&gt;2 -->
<g id="edge2" class="edge">
<title>1&#45;&gt;2</title>
<path fill="none" stroke="black" d="M477.81,-50.69C556.54,-56.02 671.82,-63.83 738.8,-68.36"/>
<polygon fill="black" stroke="black" points="738.19,-71.83 748.41,-69.02 738.67,-64.85 738.19,-71.83"/>
</g>
<!-- 4 -->
<!-- name: &quot;example element&quot;, typeName: &quot;&quot;, id: 4, branchId: 0, recurseId: &#45;1, attributes: 16, notes: &quot;&quot; -->
<g id="node5" class="node">
<title>4</title>
<ellipse fill="none" stroke="black" stroke-dasharray="1,5" cx="592.85" cy="-22" rx="74.89" ry="18"/>
<text text-anchor="middle" x="592.85" y="-16.95" font-family="Times New Roman,serif" font-size="14.00">example element</text>
</g>
<!-- 1&#45;&gt;4 -->
<g id="edge4" class="edge">
<title>1&#45;&gt;4</title>
<path fill="none" stroke="black" d="M470.9,-36.04C484.87,-34.42 499.46,-32.73 513.47,-31.1"/>
<polygon fill="black" stroke="black" points="513.52,-34.62 523.05,-29.99 512.71,-27.66 513.52,-34.62"/>
</g>
<!-- 3 -->
<!-- name: &quot;unsigned varint&quot;, typeName: &quot;&quot;, id: 3, branchId: 0, recurseId: &#45;1, attributes: 512, notes: &quot;&quot; -->
<g id="node4" class="node">
<title>3</title>
<ellipse fill="none" stroke="black" cx="1003.84" cy="-72" rx="68.24" ry="18"/>
<text text-anchor="middle" x="1003.84" y="-66.95" font-family="Times New Roman,serif" font-size="14.00">unsigned varint</text>
</g>
<!-- 2&#45;&gt;3 -->
<g id="edge3" class="edge">
<title>2&#45;&gt;3</title>
<path fill="none" stroke="black" d="M837.65,-72C862.49,-72 894.46,-72 923.65,-72"/>
<polygon fill="black" stroke="black" points="923.6,-75.5 933.6,-72 923.6,-68.5 923.6,-75.5"/>
</g>
<!-- 5 -->
<!-- name: &quot;Full Container Name&quot;, typeName: &quot;FullContainerName&quot;, id: 5, branchId: 0, recurseId: &#45;1, attributes: 256, notes: &quot;&quot; -->
<g id="node6" class="node">
<title>5</title>
<ellipse fill="none" stroke="black" cx="793.48" cy="-18" rx="89.74" ry="18"/>
<text text-anchor="middle" x="793.48" y="-12.95" font-family="Times New Roman,serif" font-size="14.00">Full Container Name</text>
</g>
<!-- 4&#45;&gt;5 -->
<g id="edge5" class="edge">
<title>4&#45;&gt;5</title>
<path fill="none" stroke="black" d="M667.81,-20.51C675.85,-20.35 684.13,-20.18 692.41,-20.02"/>
<polygon fill="black" stroke="black" points="692.25,-23.52 702.17,-19.82 692.1,-16.52 692.25,-23.52"/>
</g>
<!-- 6 -->
<!-- name: &quot;FullContainerName&quot;, typeName: &quot;&quot;, id: 6, branchId: 0, recurseId: &#45;1, attributes: 512, notes: &quot;&quot; -->
<g id="node7" class="node">
<title>6</title>
<ellipse fill="none" stroke="black" cx="1003.84" cy="-18" rx="84.62" ry="18"/>
<text text-anchor="middle" x="1003.84" y="-12.95" font-family="Times New Roman,serif" font-size="14.00">FullContainerName</text>
</g>
<!-- 5&#45;&gt;6 -->
<g id="edge6" class="edge">
<title>5&#45;&gt;6</title>
<path fill="none" stroke="black" d="M883.45,-18C891.42,-18 899.51,-18 907.53,-18"/>
<polygon fill="black" stroke="black" points="907.28,-21.5 917.28,-18 907.28,-14.5 907.28,-21.5"/>
</g>
</g>
</svg>
