<?xml version="1.0" encoding="UTF-8" standalone="no"?>
<!DOCTYPE svg PUBLIC "-//W3C//DTD SVG 1.1//EN"
 "http://www.w3.org/Graphics/SVG/1.1/DTD/svg11.dtd">
<!-- Generated by graphviz version 13.1.2 (20250808.2320)
 -->
<!-- Title: ContainerSetDataPacket Pages: 1 -->
<svg width="526pt" height="152pt"
 viewBox="0.00 0.00 526.00 152.00" xmlns="http://www.w3.org/2000/svg" xmlns:xlink="http://www.w3.org/1999/xlink">
<g id="graph0" class="graph" transform="scale(1 1) rotate(0) translate(4 148)">
<title>ContainerSetDataPacket</title>
<polygon fill="white" stroke="none" points="-4,4 -4,-148 522.3,-148 522.3,4 -4,4"/>
<!-- 0 -->
<!-- name: &quot;ContainerSetDataPacket&quot;, typeName: &quot;&quot;, id: 0, branchId: 0, recurseId: &#45;1, attributes: 0, notes: &quot;This is sent from the server basically any time that the &quot;cooking&quot; state of the brewing stand or the furnace changes (i.e. the loading bar)&quot; -->
<g id="node1" class="node">
<title>0</title>
<ellipse fill="none" stroke="black" cx="101" cy="-72" rx="101" ry="18"/>
<text xml:space="preserve" text-anchor="middle" x="101" y="-66.95" font-family="Times New Roman,serif" font-size="14.00">ContainerSetDataPacket</text>
</g>
<!-- 1 -->
<!-- name: &quot;Container ID&quot;, typeName: &quot;&quot;, id: 1, branchId: 0, recurseId: &#45;1, attributes: 0, notes: &quot;&quot; -->
<g id="node2" class="node">
<title>1</title>
<ellipse fill="none" stroke="black" cx="297.53" cy="-126" rx="59.54" ry="18"/>
<text xml:space="preserve" text-anchor="middle" x="297.53" y="-120.95" font-family="Times New Roman,serif" font-size="14.00">Container ID</text>
</g>
<!-- 0&#45;&gt;1 -->
<g id="edge1" class="edge">
<title>0&#45;&gt;1</title>
<path fill="none" stroke="black" d="M157.22,-87.33C183.66,-94.67 215.24,-103.43 241.63,-110.76"/>
<polygon fill="black" stroke="black" points="240.57,-114.1 251.14,-113.4 242.44,-107.35 240.57,-114.1"/>
</g>
<!-- 3 -->
<!-- name: &quot;ID&quot;, typeName: &quot;&quot;, id: 3, branchId: 0, recurseId: &#45;1, attributes: 0, notes: &quot;&quot; -->
<g id="node4" class="node">
<title>3</title>
<ellipse fill="none" stroke="black" cx="297.53" cy="-72" rx="27" ry="18"/>
<text xml:space="preserve" text-anchor="middle" x="297.53" y="-66.95" font-family="Times New Roman,serif" font-size="14.00">ID</text>
</g>
<!-- 0&#45;&gt;3 -->
<g id="edge3" class="edge">
<title>0&#45;&gt;3</title>
<path fill="none" stroke="black" d="M202.4,-72C222.58,-72 242.59,-72 258.93,-72"/>
<polygon fill="black" stroke="black" points="258.62,-75.5 268.62,-72 258.62,-68.5 258.62,-75.5"/>
</g>
<!-- 5 -->
<!-- name: &quot;Value&quot;, typeName: &quot;&quot;, id: 5, branchId: 0, recurseId: &#45;1, attributes: 0, notes: &quot;&quot; -->
<g id="node6" class="node">
<title>5</title>
<ellipse fill="none" stroke="black" cx="297.53" cy="-18" rx="31.9" ry="18"/>
<text xml:space="preserve" text-anchor="middle" x="297.53" y="-12.95" font-family="Times New Roman,serif" font-size="14.00">Value</text>
</g>
<!-- 0&#45;&gt;5 -->
<g id="edge5" class="edge">
<title>0&#45;&gt;5</title>
<path fill="none" stroke="black" d="M157.22,-56.67C189.25,-47.78 228.82,-36.8 257.59,-28.81"/>
<polygon fill="black" stroke="black" points="258.27,-32.25 266.97,-26.21 256.4,-25.51 258.27,-32.25"/>
</g>
<!-- 2 -->
<!-- name: &quot;unsigned byte&quot;, typeName: &quot;&quot;, id: 2, branchId: 0, recurseId: &#45;1, attributes: 512, notes: &quot;&quot; -->
<g id="node3" class="node">
<title>2</title>
<ellipse fill="none" stroke="black" cx="455.69" cy="-126" rx="62.61" ry="18"/>
<text xml:space="preserve" text-anchor="middle" x="455.69" y="-120.95" font-family="Times New Roman,serif" font-size="14.00">unsigned byte</text>
</g>
<!-- 1&#45;&gt;2 -->
<g id="edge2" class="edge">
<title>1&#45;&gt;2</title>
<path fill="none" stroke="black" d="M357.57,-126C365.38,-126 373.45,-126 381.46,-126"/>
<polygon fill="black" stroke="black" points="381.19,-129.5 391.19,-126 381.19,-122.5 381.19,-129.5"/>
</g>
<!-- 4 -->
<!-- name: &quot;varint&quot;, typeName: &quot;&quot;, id: 4, branchId: 0, recurseId: &#45;1, attributes: 512, notes: &quot;&quot; -->
<g id="node5" class="node">
<title>4</title>
<ellipse fill="none" stroke="black" cx="455.69" cy="-72" rx="32.41" ry="18"/>
<text xml:space="preserve" text-anchor="middle" x="455.69" y="-66.95" font-family="Times New Roman,serif" font-size="14.00">varint</text>
</g>
<!-- 3&#45;&gt;4 -->
<g id="edge4" class="edge">
<title>3&#45;&gt;4</title>
<path fill="none" stroke="black" d="M325.02,-72C348.7,-72 383.84,-72 411.56,-72"/>
<polygon fill="black" stroke="black" points="411.42,-75.5 421.42,-72 411.42,-68.5 411.42,-75.5"/>
</g>
<!-- 6 -->
<!-- name: &quot;varint&quot;, typeName: &quot;&quot;, id: 6, branchId: 0, recurseId: &#45;1, attributes: 512, notes: &quot;&quot; -->
<g id="node7" class="node">
<title>6</title>
<ellipse fill="none" stroke="black" cx="455.69" cy="-18" rx="32.41" ry="18"/>
<text xml:space="preserve" text-anchor="middle" x="455.69" y="-12.95" font-family="Times New Roman,serif" font-size="14.00">varint</text>
</g>
<!-- 5&#45;&gt;6 -->
<g id="edge6" class="edge">
<title>5&#45;&gt;6</title>
<path fill="none" stroke="black" d="M329.76,-18C353.22,-18 385.64,-18 411.58,-18"/>
<polygon fill="black" stroke="black" points="411.47,-21.5 421.47,-18 411.47,-14.5 411.47,-21.5"/>
</g>
</g>
</svg>
