<?xml version="1.0" encoding="UTF-8" standalone="no"?>
<!DOCTYPE svg PUBLIC "-//W3C//DTD SVG 1.1//EN"
 "http://www.w3.org/Graphics/SVG/1.1/DTD/svg11.dtd">
<!-- Generated by graphviz version 13.1.2 (20250808.2320)
 -->
<!-- Title: ContainerRegistryCleanupPacket Pages: 1 -->
<svg width="1124pt" height="152pt"
 viewBox="0.00 0.00 1124.00 152.00" xmlns="http://www.w3.org/2000/svg" xmlns:xlink="http://www.w3.org/1999/xlink">
<g id="graph0" class="graph" transform="scale(1 1) rotate(0) translate(4 148)">
<title>ContainerRegistryCleanupPacket</title>
<polygon fill="white" stroke="none" points="-4,4 -4,-148 1120.09,-148 1120.09,4 -4,4"/>
<!-- 0 -->
<!-- name: &quot;ContainerRegistryCleanupPacket&quot;, typeName: &quot;&quot;, id: 0, branchId: 0, recurseId: &#45;1, attributes: 0, notes: &quot;This is used to trigger a clientside cleanup of the dynamic container registry.&quot; -->
<g id="node1" class="node">
<title>0</title>
<ellipse fill="none" stroke="black" cx="133.75" cy="-99" rx="133.75" ry="18"/>
<text xml:space="preserve" text-anchor="middle" x="133.75" y="-93.95" font-family="Times New Roman,serif" font-size="14.00">ContainerRegistryCleanupPacket</text>
</g>
<!-- 1 -->
<!-- name: &quot;Removed Containers&quot;, typeName: &quot;&quot;, id: 1, branchId: 0, recurseId: &#45;1, attributes: 0, notes: &quot;&quot; -->
<g id="node2" class="node">
<title>1</title>
<ellipse fill="none" stroke="black" cx="392.73" cy="-99" rx="89.23" ry="18"/>
<text xml:space="preserve" text-anchor="middle" x="392.73" y="-93.95" font-family="Times New Roman,serif" font-size="14.00">Removed Containers</text>
</g>
<!-- 0&#45;&gt;1 -->
<g id="edge1" class="edge">
<title>0&#45;&gt;1</title>
<path fill="none" stroke="black" d="M267.76,-99C275.82,-99 283.86,-99 291.75,-99"/>
<polygon fill="black" stroke="black" points="291.67,-102.5 301.67,-99 291.67,-95.5 291.67,-102.5"/>
</g>
<!-- 2 -->
<!-- name: &quot;List Size&quot;, typeName: &quot;&quot;, id: 2, branchId: 0, recurseId: &#45;1, attributes: 0, notes: &quot;&quot; -->
<g id="node3" class="node">
<title>2</title>
<ellipse fill="none" stroke="black" cx="592.85" cy="-126" rx="43.67" ry="18"/>
<text xml:space="preserve" text-anchor="middle" x="592.85" y="-120.95" font-family="Times New Roman,serif" font-size="14.00">List Size</text>
</g>
<!-- 1&#45;&gt;2 -->
<g id="edge2" class="edge">
<title>1&#45;&gt;2</title>
<path fill="none" stroke="black" d="M467.78,-109.09C491.74,-112.36 517.79,-115.91 539.81,-118.91"/>
<polygon fill="black" stroke="black" points="539.04,-122.34 549.42,-120.22 539.98,-115.4 539.04,-122.34"/>
</g>
<!-- 4 -->
<!-- name: &quot;example element&quot;, typeName: &quot;&quot;, id: 4, branchId: 0, recurseId: &#45;1, attributes: 16, notes: &quot;&quot; -->
<g id="node5" class="node">
<title>4</title>
<ellipse fill="none" stroke="black" stroke-dasharray="1,5" cx="592.85" cy="-72" rx="74.89" ry="18"/>
<text xml:space="preserve" text-anchor="middle" x="592.85" y="-66.95" font-family="Times New Roman,serif" font-size="14.00">example element</text>
</g>
<!-- 1&#45;&gt;4 -->
<g id="edge4" class="edge">
<title>1&#45;&gt;4</title>
<path fill="none" stroke="black" d="M467.78,-88.91C483.44,-86.77 499.98,-84.52 515.71,-82.38"/>
<polygon fill="black" stroke="black" points="516.06,-85.86 525.5,-81.04 515.12,-78.92 516.06,-85.86"/>
</g>
<!-- 3 -->
<!-- name: &quot;unsigned varint&quot;, typeName: &quot;&quot;, id: 3, branchId: 0, recurseId: &#45;1, attributes: 0, notes: &quot;&quot; -->
<g id="node4" class="node">
<title>3</title>
<ellipse fill="none" stroke="black" cx="776.08" cy="-126" rx="68.24" ry="18"/>
<text xml:space="preserve" text-anchor="middle" x="776.08" y="-120.95" font-family="Times New Roman,serif" font-size="14.00">unsigned varint</text>
</g>
<!-- 2&#45;&gt;3 -->
<g id="edge3" class="edge">
<title>2&#45;&gt;3</title>
<path fill="none" stroke="black" d="M636.8,-126C654.64,-126 675.93,-126 696.39,-126"/>
<polygon fill="black" stroke="black" points="696.13,-129.5 706.13,-126 696.13,-122.5 696.13,-129.5"/>
</g>
<!-- 5 -->
<!-- name: &quot;Container Name&quot;, typeName: &quot;&quot;, id: 5, branchId: 0, recurseId: &#45;1, attributes: 0, notes: &quot;&quot; -->
<g id="node6" class="node">
<title>5</title>
<ellipse fill="none" stroke="black" cx="776.08" cy="-72" rx="72.34" ry="18"/>
<text xml:space="preserve" text-anchor="middle" x="776.08" y="-66.95" font-family="Times New Roman,serif" font-size="14.00">Container Name</text>
</g>
<!-- 4&#45;&gt;5 -->
<g id="edge5" class="edge">
<title>4&#45;&gt;5</title>
<path fill="none" stroke="black" d="M668.09,-72C675.9,-72 683.89,-72 691.79,-72"/>
<polygon fill="black" stroke="black" points="691.79,-75.5 701.79,-72 691.79,-68.5 691.79,-75.5"/>
</g>
<!-- 7 -->
<!-- name: &quot;Dynamic ID&quot;, typeName: &quot;&quot;, id: 7, branchId: 0, recurseId: &#45;1, attributes: 0, notes: &quot;&quot; -->
<g id="node8" class="node">
<title>7</title>
<ellipse fill="none" stroke="black" cx="776.08" cy="-18" rx="57.49" ry="18"/>
<text xml:space="preserve" text-anchor="middle" x="776.08" y="-12.95" font-family="Times New Roman,serif" font-size="14.00">Dynamic ID</text>
</g>
<!-- 4&#45;&gt;7 -->
<g id="edge7" class="edge">
<title>4&#45;&gt;7</title>
<path fill="none" stroke="black" d="M640.99,-57.95C666.05,-50.49 696.91,-41.29 722.71,-33.61"/>
<polygon fill="black" stroke="black" points="723.39,-37.05 731.97,-30.84 721.39,-30.35 723.39,-37.05"/>
</g>
<!-- 6 -->
<!-- name: &quot;enum ContainerEnumName&quot;, typeName: &quot;&quot;, id: 6, branchId: 0, recurseId: &#45;1, attributes: 512, notes: &quot;&quot; -->
<g id="node7" class="node">
<title>6</title>
<ellipse fill="none" stroke="black" cx="1000.25" cy="-72" rx="115.84" ry="18"/>
<text xml:space="preserve" text-anchor="middle" x="1000.25" y="-66.95" font-family="Times New Roman,serif" font-size="14.00">enum ContainerEnumName</text>
</g>
<!-- 5&#45;&gt;6 -->
<g id="edge6" class="edge">
<title>5&#45;&gt;6</title>
<path fill="none" stroke="black" d="M848.91,-72C856.58,-72 864.53,-72 872.6,-72"/>
<polygon fill="black" stroke="black" points="872.55,-75.5 882.55,-72 872.55,-68.5 872.55,-75.5"/>
</g>
<!-- 8 -->
<!-- name: &quot;unsigned int&quot;, typeName: &quot;&quot;, id: 8, branchId: 0, recurseId: &#45;1, attributes: 512, notes: &quot;&quot; -->
<g id="node9" class="node">
<title>8</title>
<ellipse fill="none" stroke="black" cx="1000.25" cy="-18" rx="56.47" ry="18"/>
<text xml:space="preserve" text-anchor="middle" x="1000.25" y="-12.95" font-family="Times New Roman,serif" font-size="14.00">unsigned int</text>
</g>
<!-- 7&#45;&gt;8 -->
<g id="edge8" class="edge">
<title>7&#45;&gt;8</title>
<path fill="none" stroke="black" d="M834.01,-18C864.01,-18 900.99,-18 932.35,-18"/>
<polygon fill="black" stroke="black" points="932.12,-21.5 942.12,-18 932.12,-14.5 932.12,-21.5"/>
</g>
</g>
</svg>
