<?xml version="1.0" encoding="UTF-8" standalone="no"?>
<!DOCTYPE svg PUBLIC "-//W3C//DTD SVG 1.1//EN"
 "http://www.w3.org/Graphics/SVG/1.1/DTD/svg11.dtd">
<!-- Generated by graphviz version 2.46.1 (20210213.1702)
 -->
<!-- Title: ContainerOpenPacket Pages: 1 -->
<svg width="586pt" height="206pt"
 viewBox="0.00 0.00 585.66 206.00" xmlns="http://www.w3.org/2000/svg" xmlns:xlink="http://www.w3.org/1999/xlink">
<g id="graph0" class="graph" transform="scale(1 1) rotate(0) translate(4 202)">
<title>ContainerOpenPacket</title>
<polygon fill="white" stroke="transparent" points="-4,4 -4,-202 581.66,-202 581.66,4 -4,4"/>
<!-- 0 -->
<!-- name: &quot;ContainerOpenPacket&quot;, typeName: &quot;&quot;, id: 0, branchId: 46, recurseId: &#45;1, attributes: 0, notes: &quot;&quot; -->
<g id="node1" class="node">
<title>0</title>
<ellipse fill="none" stroke="black" cx="90.34" cy="-99" rx="90.18" ry="18"/>
<text text-anchor="middle" x="90.34" y="-95.3" font-family="Times New Roman,serif" font-size="14.00">ContainerOpenPacket</text>
</g>
<!-- 1 -->
<!-- name: &quot;Container ID&quot;, typeName: &quot;&quot;, id: 1, branchId: 0, recurseId: &#45;1, attributes: 0, notes: &quot;enumeration: ContainerID&quot; -->
<g id="node2" class="node">
<title>1</title>
<ellipse fill="none" stroke="black" cx="286.23" cy="-180" rx="57.69" ry="18"/>
<text text-anchor="middle" x="286.23" y="-176.3" font-family="Times New Roman,serif" font-size="14.00">Container ID</text>
</g>
<!-- 0&#45;&gt;1 -->
<g id="edge1" class="edge">
<title>0&#45;&gt;1</title>
<path fill="none" stroke="black" d="M128.51,-115.38C153.38,-126.25 186.89,-140.72 216.68,-153 224.17,-156.08 232.14,-159.29 239.9,-162.38"/>
<polygon fill="black" stroke="black" points="238.63,-165.64 249.21,-166.06 241.2,-159.13 238.63,-165.64"/>
</g>
<!-- 3 -->
<!-- name: &quot;Container Type&quot;, typeName: &quot;&quot;, id: 3, branchId: 0, recurseId: &#45;1, attributes: 0, notes: &quot;enumeration: ContainerType&quot; -->
<g id="node4" class="node">
<title>3</title>
<ellipse fill="none" stroke="black" cx="286.23" cy="-126" rx="67.69" ry="18"/>
<text text-anchor="middle" x="286.23" y="-122.3" font-family="Times New Roman,serif" font-size="14.00">Container Type</text>
</g>
<!-- 0&#45;&gt;3 -->
<g id="edge3" class="edge">
<title>0&#45;&gt;3</title>
<path fill="none" stroke="black" d="M164.92,-109.25C181.6,-111.57 199.26,-114.03 215.76,-116.33"/>
<polygon fill="black" stroke="black" points="215.48,-119.82 225.86,-117.73 216.44,-112.89 215.48,-119.82"/>
</g>
<!-- 5 -->
<!-- name: &quot;Position&quot;, typeName: &quot;NetworkBlockPosition&quot;, id: 5, branchId: 0, recurseId: &#45;1, attributes: 256, notes: &quot;&quot; -->
<g id="node6" class="node">
<title>5</title>
<ellipse fill="none" stroke="black" cx="286.23" cy="-72" rx="40.09" ry="18"/>
<text text-anchor="middle" x="286.23" y="-68.3" font-family="Times New Roman,serif" font-size="14.00">Position</text>
</g>
<!-- 0&#45;&gt;5 -->
<g id="edge5" class="edge">
<title>0&#45;&gt;5</title>
<path fill="none" stroke="black" d="M164.92,-88.75C189.24,-85.37 215.65,-81.69 237.51,-78.64"/>
<polygon fill="black" stroke="black" points="238.11,-82.1 247.53,-77.25 237.14,-75.16 238.11,-82.1"/>
</g>
<!-- 7 -->
<!-- name: &quot;Target Actor ID&quot;, typeName: &quot;ActorUniqueID&quot;, id: 7, branchId: 0, recurseId: &#45;1, attributes: 256, notes: &quot;&quot; -->
<g id="node8" class="node">
<title>7</title>
<ellipse fill="none" stroke="black" cx="286.23" cy="-18" rx="69.59" ry="18"/>
<text text-anchor="middle" x="286.23" y="-14.3" font-family="Times New Roman,serif" font-size="14.00">Target Actor ID</text>
</g>
<!-- 0&#45;&gt;7 -->
<g id="edge7" class="edge">
<title>0&#45;&gt;7</title>
<path fill="none" stroke="black" d="M128.51,-82.62C153.38,-71.75 186.89,-57.28 216.68,-45 223.35,-42.25 230.4,-39.4 237.35,-36.64"/>
<polygon fill="black" stroke="black" points="238.71,-39.86 246.71,-32.92 236.13,-33.36 238.71,-39.86"/>
</g>
<!-- 2 -->
<!-- name: &quot;byte&quot;, typeName: &quot;&quot;, id: 2, branchId: 0, recurseId: &#45;1, attributes: 512, notes: &quot;&quot; -->
<g id="node3" class="node">
<title>2</title>
<ellipse fill="none" stroke="black" cx="484.71" cy="-180" rx="27" ry="18"/>
<text text-anchor="middle" x="484.71" y="-176.3" font-family="Times New Roman,serif" font-size="14.00">byte</text>
</g>
<!-- 1&#45;&gt;2 -->
<g id="edge2" class="edge">
<title>1&#45;&gt;2</title>
<path fill="none" stroke="black" d="M344.32,-180C377.62,-180 418.63,-180 447.51,-180"/>
<polygon fill="black" stroke="black" points="447.57,-183.5 457.57,-180 447.57,-176.5 447.57,-183.5"/>
</g>
<!-- 4 -->
<!-- name: &quot;byte&quot;, typeName: &quot;&quot;, id: 4, branchId: 0, recurseId: &#45;1, attributes: 512, notes: &quot;&quot; -->
<g id="node5" class="node">
<title>4</title>
<ellipse fill="none" stroke="black" cx="484.71" cy="-126" rx="27" ry="18"/>
<text text-anchor="middle" x="484.71" y="-122.3" font-family="Times New Roman,serif" font-size="14.00">byte</text>
</g>
<!-- 3&#45;&gt;4 -->
<g id="edge4" class="edge">
<title>3&#45;&gt;4</title>
<path fill="none" stroke="black" d="M354.02,-126C385.31,-126 421.36,-126 447.5,-126"/>
<polygon fill="black" stroke="black" points="447.7,-129.5 457.7,-126 447.7,-122.5 447.7,-129.5"/>
</g>
<!-- 6 -->
<!-- name: &quot;NetworkBlockPosition&quot;, typeName: &quot;&quot;, id: 6, branchId: 0, recurseId: &#45;1, attributes: 512, notes: &quot;&quot; -->
<g id="node7" class="node">
<title>6</title>
<ellipse fill="none" stroke="black" cx="484.71" cy="-72" rx="92.88" ry="18"/>
<text text-anchor="middle" x="484.71" y="-68.3" font-family="Times New Roman,serif" font-size="14.00">NetworkBlockPosition</text>
</g>
<!-- 5&#45;&gt;6 -->
<g id="edge6" class="edge">
<title>5&#45;&gt;6</title>
<path fill="none" stroke="black" d="M326.99,-72C342.94,-72 362.12,-72 381.5,-72"/>
<polygon fill="black" stroke="black" points="381.64,-75.5 391.64,-72 381.64,-68.5 381.64,-75.5"/>
</g>
<!-- 8 -->
<!-- name: &quot;ActorUniqueID&quot;, typeName: &quot;&quot;, id: 8, branchId: 0, recurseId: &#45;1, attributes: 512, notes: &quot;&quot; -->
<g id="node9" class="node">
<title>8</title>
<ellipse fill="none" stroke="black" cx="484.71" cy="-18" rx="66.89" ry="18"/>
<text text-anchor="middle" x="484.71" y="-14.3" font-family="Times New Roman,serif" font-size="14.00">ActorUniqueID</text>
</g>
<!-- 7&#45;&gt;8 -->
<g id="edge8" class="edge">
<title>7&#45;&gt;8</title>
<path fill="none" stroke="black" d="M355.95,-18C372.54,-18 390.36,-18 407.28,-18"/>
<polygon fill="black" stroke="black" points="407.68,-21.5 417.68,-18 407.68,-14.5 407.68,-21.5"/>
</g>
</g>
</svg>
