<?xml version="1.0" encoding="UTF-8" standalone="no"?>
<!DOCTYPE svg PUBLIC "-//W3C//DTD SVG 1.1//EN"
 "http://www.w3.org/Graphics/SVG/1.1/DTD/svg11.dtd">
<!-- Generated by graphviz version 13.1.2 (20250808.2320)
 -->
<!-- Title: ContainerClosePacket Pages: 1 -->
<svg width="574pt" height="152pt"
 viewBox="0.00 0.00 574.00 152.00" xmlns="http://www.w3.org/2000/svg" xmlns:xlink="http://www.w3.org/1999/xlink">
<g id="graph0" class="graph" transform="scale(1 1) rotate(0) translate(4 148)">
<title>ContainerClosePacket</title>
<polygon fill="white" stroke="none" points="-4,4 -4,-148 570.41,-148 570.41,4 -4,4"/>
<!-- 0 -->
<!-- name: &quot;ContainerClosePacket&quot;, typeName: &quot;&quot;, id: 0, branchId: 0, recurseId: &#45;1, attributes: 0, notes: &quot;After the game deletes the container manager on the client, the client sends this packet.
	Then the server deletes its container manager, and sends a packet back to the client that closes the container screen.&quot; -->
<g id="node1" class="node">
<title>0</title>
<ellipse fill="none" stroke="black" cx="92.81" cy="-72" rx="92.81" ry="18"/>
<text xml:space="preserve" text-anchor="middle" x="92.81" y="-66.95" font-family="Times New Roman,serif" font-size="14.00">ContainerClosePacket</text>
</g>
<!-- 1 -->
<!-- name: &quot;Container Id&quot;, typeName: &quot;&quot;, id: 1, branchId: 0, recurseId: &#45;1, attributes: 0, notes: &quot;&quot; -->
<g id="node2" class="node">
<title>1</title>
<ellipse fill="none" stroke="black" cx="313.4" cy="-126" rx="57.49" ry="18"/>
<text xml:space="preserve" text-anchor="middle" x="313.4" y="-120.95" font-family="Times New Roman,serif" font-size="14.00">Container Id</text>
</g>
<!-- 0&#45;&gt;1 -->
<g id="edge1" class="edge">
<title>0&#45;&gt;1</title>
<path fill="none" stroke="black" d="M151.81,-86.33C184.17,-94.32 224.29,-104.23 256.33,-112.15"/>
<polygon fill="black" stroke="black" points="255.28,-115.5 265.83,-114.5 256.96,-108.7 255.28,-115.5"/>
</g>
<!-- 3 -->
<!-- name: &quot;Container Type&quot;, typeName: &quot;&quot;, id: 3, branchId: 0, recurseId: &#45;1, attributes: 0, notes: &quot;&quot; -->
<g id="node4" class="node">
<title>3</title>
<ellipse fill="none" stroke="black" cx="313.4" cy="-72" rx="67.73" ry="18"/>
<text xml:space="preserve" text-anchor="middle" x="313.4" y="-66.95" font-family="Times New Roman,serif" font-size="14.00">Container Type</text>
</g>
<!-- 0&#45;&gt;3 -->
<g id="edge3" class="edge">
<title>0&#45;&gt;3</title>
<path fill="none" stroke="black" d="M185.88,-72C201.93,-72 218.5,-72 234.14,-72"/>
<polygon fill="black" stroke="black" points="233.83,-75.5 243.83,-72 233.83,-68.5 233.83,-75.5"/>
</g>
<!-- 5 -->
<!-- name: &quot;Server Initiated Close&quot;, typeName: &quot;&quot;, id: 5, branchId: 0, recurseId: &#45;1, attributes: 0, notes: &quot;True if the server initiated the closing&quot; -->
<g id="node6" class="node">
<title>5</title>
<ellipse fill="none" stroke="black" cx="313.4" cy="-18" rx="91.78" ry="18"/>
<text xml:space="preserve" text-anchor="middle" x="313.4" y="-12.95" font-family="Times New Roman,serif" font-size="14.00">Server Initiated Close</text>
</g>
<!-- 0&#45;&gt;5 -->
<g id="edge5" class="edge">
<title>0&#45;&gt;5</title>
<path fill="none" stroke="black" d="M151.81,-57.67C180.08,-50.69 214.26,-42.24 243.81,-34.95"/>
<polygon fill="black" stroke="black" points="244.54,-38.37 253.41,-32.57 242.87,-31.57 244.54,-38.37"/>
</g>
<!-- 2 -->
<!-- name: &quot;unsigned byte&quot;, typeName: &quot;&quot;, id: 2, branchId: 0, recurseId: &#45;1, attributes: 512, notes: &quot;&quot; -->
<g id="node3" class="node">
<title>2</title>
<ellipse fill="none" stroke="black" cx="503.8" cy="-126" rx="62.61" ry="18"/>
<text xml:space="preserve" text-anchor="middle" x="503.8" y="-120.95" font-family="Times New Roman,serif" font-size="14.00">unsigned byte</text>
</g>
<!-- 1&#45;&gt;2 -->
<g id="edge2" class="edge">
<title>1&#45;&gt;2</title>
<path fill="none" stroke="black" d="M371.18,-126C389.57,-126 410.22,-126 429.62,-126"/>
<polygon fill="black" stroke="black" points="429.36,-129.5 439.36,-126 429.36,-122.5 429.36,-129.5"/>
</g>
<!-- 4 -->
<!-- name: &quot;unsigned byte&quot;, typeName: &quot;&quot;, id: 4, branchId: 0, recurseId: &#45;1, attributes: 512, notes: &quot;&quot; -->
<g id="node5" class="node">
<title>4</title>
<ellipse fill="none" stroke="black" cx="503.8" cy="-72" rx="62.61" ry="18"/>
<text xml:space="preserve" text-anchor="middle" x="503.8" y="-66.95" font-family="Times New Roman,serif" font-size="14.00">unsigned byte</text>
</g>
<!-- 3&#45;&gt;4 -->
<g id="edge4" class="edge">
<title>3&#45;&gt;4</title>
<path fill="none" stroke="black" d="M381.62,-72C397.18,-72 413.81,-72 429.61,-72"/>
<polygon fill="black" stroke="black" points="429.43,-75.5 439.43,-72 429.43,-68.5 429.43,-75.5"/>
</g>
<!-- 6 -->
<!-- name: &quot;bool&quot;, typeName: &quot;&quot;, id: 6, branchId: 0, recurseId: &#45;1, attributes: 512, notes: &quot;True if the server initiated the closing&quot; -->
<g id="node7" class="node">
<title>6</title>
<ellipse fill="none" stroke="black" cx="503.8" cy="-18" rx="27.3" ry="18"/>
<text xml:space="preserve" text-anchor="middle" x="503.8" y="-12.95" font-family="Times New Roman,serif" font-size="14.00">bool</text>
</g>
<!-- 5&#45;&gt;6 -->
<g id="edge6" class="edge">
<title>5&#45;&gt;6</title>
<path fill="none" stroke="black" d="M405.56,-18C426.52,-18 447.69,-18 464.89,-18"/>
<polygon fill="black" stroke="black" points="464.87,-21.5 474.87,-18 464.87,-14.5 464.87,-21.5"/>
</g>
</g>
</svg>
