<?xml version="1.0" encoding="UTF-8" standalone="no"?>
<!DOCTYPE svg PUBLIC "-//W3C//DTD SVG 1.1//EN"
 "http://www.w3.org/Graphics/SVG/1.1/DTD/svg11.dtd">
<!-- Generated by graphviz version 12.2.1 (20241206.2353)
 -->
<!-- Title: ContainerMixDataEntry Pages: 1 -->
<svg width="531pt" height="152pt"
 viewBox="0.00 0.00 531.41 152.00" xmlns="http://www.w3.org/2000/svg" xmlns:xlink="http://www.w3.org/1999/xlink">
<g id="graph0" class="graph" transform="scale(1 1) rotate(0) translate(4 148)">
<title>ContainerMixDataEntry</title>
<polygon fill="white" stroke="none" points="-4,4 -4,-148 527.41,-148 527.41,4 -4,4"/>
<!-- 31 -->
<!-- name: &quot;ContainerMixDataEntry&quot;, typeName: &quot;&quot;, id: 31, branchId: 0, recurseId: &#45;1, attributes: 0, notes: &quot;&quot; -->
<g id="node1" class="node">
<title>31</title>
<ellipse fill="none" stroke="black" cx="101" cy="-72" rx="101" ry="18"/>
<text text-anchor="middle" x="101" y="-66.95" font-family="Times New Roman,serif" font-size="14.00">ContainerMixDataEntry</text>
</g>
<!-- 32 -->
<!-- name: &quot;From Item (Id): Input&quot;, typeName: &quot;&quot;, id: 32, branchId: 0, recurseId: &#45;1, attributes: 0, notes: &quot;&quot; -->
<g id="node2" class="node">
<title>32</title>
<ellipse fill="none" stroke="black" cx="330.29" cy="-126" rx="92.3" ry="18"/>
<text text-anchor="middle" x="330.29" y="-120.95" font-family="Times New Roman,serif" font-size="14.00">From Item (Id): Input</text>
</g>
<!-- 31&#45;&gt;32 -->
<g id="edge1" class="edge">
<title>31&#45;&gt;32</title>
<path fill="none" stroke="black" d="M163.21,-86.54C192.83,-93.58 228.55,-102.07 259.26,-109.36"/>
<polygon fill="black" stroke="black" points="258.32,-112.74 268.85,-111.64 259.93,-105.92 258.32,-112.74"/>
</g>
<!-- 34 -->
<!-- name: &quot;Re&#45;agent Item Id&quot;, typeName: &quot;&quot;, id: 34, branchId: 0, recurseId: &#45;1, attributes: 0, notes: &quot;&quot; -->
<g id="node4" class="node">
<title>34</title>
<ellipse fill="none" stroke="black" cx="330.29" cy="-72" rx="74.38" ry="18"/>
<text text-anchor="middle" x="330.29" y="-66.95" font-family="Times New Roman,serif" font-size="14.00">Re&#45;agent Item Id</text>
</g>
<!-- 31&#45;&gt;34 -->
<g id="edge3" class="edge">
<title>31&#45;&gt;34</title>
<path fill="none" stroke="black" d="M202.35,-72C216.38,-72 230.68,-72 244.39,-72"/>
<polygon fill="black" stroke="black" points="244.23,-75.5 254.23,-72 244.23,-68.5 244.23,-75.5"/>
</g>
<!-- 36 -->
<!-- name: &quot;To Item (Id): Output&quot;, typeName: &quot;&quot;, id: 36, branchId: 0, recurseId: &#45;1, attributes: 0, notes: &quot;&quot; -->
<g id="node6" class="node">
<title>36</title>
<ellipse fill="none" stroke="black" cx="330.29" cy="-18" rx="87.69" ry="18"/>
<text text-anchor="middle" x="330.29" y="-12.95" font-family="Times New Roman,serif" font-size="14.00">To Item (Id): Output</text>
</g>
<!-- 31&#45;&gt;36 -->
<g id="edge5" class="edge">
<title>31&#45;&gt;36</title>
<path fill="none" stroke="black" d="M163.21,-57.46C193.18,-50.34 229.4,-41.73 260.35,-34.38"/>
<polygon fill="black" stroke="black" points="261.1,-37.8 270.02,-32.08 259.48,-30.99 261.1,-37.8"/>
</g>
<!-- 33 -->
<!-- name: &quot;varint&quot;, typeName: &quot;&quot;, id: 33, branchId: 0, recurseId: &#45;1, attributes: 512, notes: &quot;&quot; -->
<g id="node3" class="node">
<title>33</title>
<ellipse fill="none" stroke="black" cx="491" cy="-126" rx="32.41" ry="18"/>
<text text-anchor="middle" x="491" y="-120.95" font-family="Times New Roman,serif" font-size="14.00">varint</text>
</g>
<!-- 32&#45;&gt;33 -->
<g id="edge2" class="edge">
<title>32&#45;&gt;33</title>
<path fill="none" stroke="black" d="M422.69,-126C431.01,-126 439.15,-126 446.73,-126"/>
<polygon fill="black" stroke="black" points="446.62,-129.5 456.62,-126 446.62,-122.5 446.62,-129.5"/>
</g>
<!-- 35 -->
<!-- name: &quot;varint&quot;, typeName: &quot;&quot;, id: 35, branchId: 0, recurseId: &#45;1, attributes: 512, notes: &quot;&quot; -->
<g id="node5" class="node">
<title>35</title>
<ellipse fill="none" stroke="black" cx="491" cy="-72" rx="32.41" ry="18"/>
<text text-anchor="middle" x="491" y="-66.95" font-family="Times New Roman,serif" font-size="14.00">varint</text>
</g>
<!-- 34&#45;&gt;35 -->
<g id="edge4" class="edge">
<title>34&#45;&gt;35</title>
<path fill="none" stroke="black" d="M405.07,-72C419.45,-72 434.07,-72 447.04,-72"/>
<polygon fill="black" stroke="black" points="446.92,-75.5 456.92,-72 446.92,-68.5 446.92,-75.5"/>
</g>
<!-- 37 -->
<!-- name: &quot;varint&quot;, typeName: &quot;&quot;, id: 37, branchId: 0, recurseId: &#45;1, attributes: 512, notes: &quot;&quot; -->
<g id="node7" class="node">
<title>37</title>
<ellipse fill="none" stroke="black" cx="491" cy="-18" rx="32.41" ry="18"/>
<text text-anchor="middle" x="491" y="-12.95" font-family="Times New Roman,serif" font-size="14.00">varint</text>
</g>
<!-- 36&#45;&gt;37 -->
<g id="edge6" class="edge">
<title>36&#45;&gt;37</title>
<path fill="none" stroke="black" d="M418.07,-18C428.04,-18 437.84,-18 446.86,-18"/>
<polygon fill="black" stroke="black" points="446.68,-21.5 456.68,-18 446.68,-14.5 446.68,-21.5"/>
</g>
</g>
</svg>
