<?xml version="1.0" encoding="UTF-8" standalone="no"?>
<!DOCTYPE svg PUBLIC "-//W3C//DTD SVG 1.1//EN"
 "http://www.w3.org/Graphics/SVG/1.1/DTD/svg11.dtd">
<!-- Generated by graphviz version 11.0.0 (20240428.1522)
 -->
<!-- Title: CorrectPlayerMovePredictionPacket Pages: 1 -->
<svg width="649pt" height="260pt"
 viewBox="0.00 0.00 648.86 260.00" xmlns="http://www.w3.org/2000/svg" xmlns:xlink="http://www.w3.org/1999/xlink">
<g id="graph0" class="graph" transform="scale(1 1) rotate(0) translate(4 256)">
<title>CorrectPlayerMovePredictionPacket</title>
<polygon fill="white" stroke="none" points="-4,4 -4,-256 644.86,-256 644.86,4 -4,4"/>
<!-- 0 -->
<!-- name: &quot;CorrectPlayerMovePredictionPacket&quot;, typeName: &quot;&quot;, id: 0, branchId: 161, recurseId: &#45;1, attributes: 0, notes: &quot;&quot; -->
<g id="node1" class="node">
<title>0</title>
<ellipse fill="none" stroke="black" cx="146.37" cy="-126" rx="146.37" ry="18"/>
<text text-anchor="middle" x="146.37" y="-120.58" font-family="Times New Roman,serif" font-size="14.00">CorrectPlayerMovePredictionPacket</text>
</g>
<!-- 1 -->
<!-- name: &quot;PredictionType&quot;, typeName: &quot;&quot;, id: 1, branchId: 0, recurseId: &#45;1, attributes: 0, notes: &quot;Vehicle or Player Prediction&quot; -->
<g id="node2" class="node">
<title>1</title>
<ellipse fill="none" stroke="black" cx="396.77" cy="-234" rx="68.03" ry="18"/>
<text text-anchor="middle" x="396.77" y="-228.57" font-family="Times New Roman,serif" font-size="14.00">PredictionType</text>
</g>
<!-- 0&#45;&gt;1 -->
<g id="edge1" class="edge">
<title>0&#45;&gt;1</title>
<path fill="none" stroke="black" d="M186.11,-143.8C222.71,-160.5 279.22,-185.98 328.74,-207 334.74,-209.54 341.05,-212.17 347.32,-214.73"/>
<polygon fill="black" stroke="black" points="345.76,-217.87 356.34,-218.4 348.39,-211.39 345.76,-217.87"/>
</g>
<!-- 3 -->
<!-- name: &quot;Pos&quot;, typeName: &quot;Vec3&quot;, id: 3, branchId: 0, recurseId: &#45;1, attributes: 256, notes: &quot;Corrected position&quot; -->
<g id="node4" class="node">
<title>3</title>
<ellipse fill="none" stroke="black" cx="396.77" cy="-180" rx="27" ry="18"/>
<text text-anchor="middle" x="396.77" y="-174.57" font-family="Times New Roman,serif" font-size="14.00">Pos</text>
</g>
<!-- 0&#45;&gt;3 -->
<g id="edge3" class="edge">
<title>0&#45;&gt;3</title>
<path fill="none" stroke="black" d="M220.56,-141.91C266.4,-151.88 323.47,-164.28 359.77,-172.17"/>
<polygon fill="black" stroke="black" points="358.79,-175.54 369.3,-174.25 360.28,-168.7 358.79,-175.54"/>
</g>
<!-- 5 -->
<!-- name: &quot;Pos Delta&quot;, typeName: &quot;Vec3&quot;, id: 5, branchId: 0, recurseId: &#45;1, attributes: 256, notes: &quot;Corrected velocity&quot; -->
<g id="node6" class="node">
<title>5</title>
<ellipse fill="none" stroke="black" cx="396.77" cy="-126" rx="46.57" ry="18"/>
<text text-anchor="middle" x="396.77" y="-120.58" font-family="Times New Roman,serif" font-size="14.00">Pos Delta</text>
</g>
<!-- 0&#45;&gt;5 -->
<g id="edge5" class="edge">
<title>0&#45;&gt;5</title>
<path fill="none" stroke="black" d="M292.95,-126C308.99,-126 324.55,-126 338.5,-126"/>
<polygon fill="black" stroke="black" points="338.31,-129.5 348.31,-126 338.31,-122.5 338.31,-129.5"/>
</g>
<!-- 7 -->
<!-- name: &quot;On Ground&quot;, typeName: &quot;&quot;, id: 7, branchId: 0, recurseId: &#45;1, attributes: 0, notes: &quot;Is on ground&quot; -->
<g id="node8" class="node">
<title>7</title>
<ellipse fill="none" stroke="black" cx="396.77" cy="-72" rx="53.56" ry="18"/>
<text text-anchor="middle" x="396.77" y="-66.58" font-family="Times New Roman,serif" font-size="14.00">On Ground</text>
</g>
<!-- 0&#45;&gt;7 -->
<g id="edge7" class="edge">
<title>0&#45;&gt;7</title>
<path fill="none" stroke="black" d="M220.56,-110.09C258.78,-101.78 304.81,-91.78 340.09,-84.1"/>
<polygon fill="black" stroke="black" points="340.64,-87.57 349.67,-82.02 339.16,-80.73 340.64,-87.57"/>
</g>
<!-- 9 -->
<!-- name: &quot;Tick&quot;, typeName: &quot;PlayerInputTick&quot;, id: 9, branchId: 0, recurseId: &#45;1, attributes: 256, notes: &quot;Which frame we&#39;re correcting; should match the tick in the Player Auth Input packet&quot; -->
<g id="node10" class="node">
<title>9</title>
<ellipse fill="none" stroke="black" cx="396.77" cy="-18" rx="27.61" ry="18"/>
<text text-anchor="middle" x="396.77" y="-12.57" font-family="Times New Roman,serif" font-size="14.00">Tick</text>
</g>
<!-- 0&#45;&gt;9 -->
<g id="edge9" class="edge">
<title>0&#45;&gt;9</title>
<path fill="none" stroke="black" d="M186.11,-108.2C222.71,-91.5 279.22,-66.02 328.74,-45 339.46,-40.45 351.21,-35.65 361.84,-31.39"/>
<polygon fill="black" stroke="black" points="363.03,-34.68 371.02,-27.72 360.43,-28.18 363.03,-34.68"/>
</g>
<!-- 2 -->
<!-- name: &quot;byte&quot;, typeName: &quot;&quot;, id: 2, branchId: 0, recurseId: &#45;1, attributes: 512, notes: &quot;&quot; -->
<g id="node3" class="node">
<title>2</title>
<ellipse fill="none" stroke="black" cx="570.83" cy="-234" rx="27" ry="18"/>
<text text-anchor="middle" x="570.83" y="-228.57" font-family="Times New Roman,serif" font-size="14.00">byte</text>
</g>
<!-- 1&#45;&gt;2 -->
<g id="edge2" class="edge">
<title>1&#45;&gt;2</title>
<path fill="none" stroke="black" d="M465.28,-234C488.05,-234 512.63,-234 532.23,-234"/>
<polygon fill="black" stroke="black" points="532.22,-237.5 542.22,-234 532.22,-230.5 532.22,-237.5"/>
</g>
<!-- 4 -->
<!-- name: &quot;Vec3&quot;, typeName: &quot;&quot;, id: 4, branchId: 0, recurseId: &#45;1, attributes: 512, notes: &quot;&quot; -->
<g id="node5" class="node">
<title>4</title>
<ellipse fill="none" stroke="black" cx="570.83" cy="-180" rx="30.11" ry="18"/>
<text text-anchor="middle" x="570.83" y="-174.57" font-family="Times New Roman,serif" font-size="14.00">Vec3</text>
</g>
<!-- 3&#45;&gt;4 -->
<g id="edge4" class="edge">
<title>3&#45;&gt;4</title>
<path fill="none" stroke="black" d="M423.91,-180C451.79,-180 496.33,-180 528.88,-180"/>
<polygon fill="black" stroke="black" points="528.76,-183.5 538.76,-180 528.76,-176.5 528.76,-183.5"/>
</g>
<!-- 6 -->
<!-- name: &quot;Vec3&quot;, typeName: &quot;&quot;, id: 6, branchId: 0, recurseId: &#45;1, attributes: 512, notes: &quot;&quot; -->
<g id="node7" class="node">
<title>6</title>
<ellipse fill="none" stroke="black" cx="570.83" cy="-126" rx="30.11" ry="18"/>
<text text-anchor="middle" x="570.83" y="-120.58" font-family="Times New Roman,serif" font-size="14.00">Vec3</text>
</g>
<!-- 5&#45;&gt;6 -->
<g id="edge6" class="edge">
<title>5&#45;&gt;6</title>
<path fill="none" stroke="black" d="M443.43,-126C470.02,-126 503.27,-126 528.99,-126"/>
<polygon fill="black" stroke="black" points="528.71,-129.5 538.71,-126 528.71,-122.5 528.71,-129.5"/>
</g>
<!-- 8 -->
<!-- name: &quot;bool&quot;, typeName: &quot;&quot;, id: 8, branchId: 0, recurseId: &#45;1, attributes: 512, notes: &quot;&quot; -->
<g id="node9" class="node">
<title>8</title>
<ellipse fill="none" stroke="black" cx="570.83" cy="-72" rx="27.61" ry="18"/>
<text text-anchor="middle" x="570.83" y="-66.58" font-family="Times New Roman,serif" font-size="14.00">bool</text>
</g>
<!-- 7&#45;&gt;8 -->
<g id="edge8" class="edge">
<title>7&#45;&gt;8</title>
<path fill="none" stroke="black" d="M450.8,-72C476.99,-72 507.98,-72 531.77,-72"/>
<polygon fill="black" stroke="black" points="531.65,-75.5 541.65,-72 531.65,-68.5 531.65,-75.5"/>
</g>
<!-- 10 -->
<!-- name: &quot;PlayerInputTick&quot;, typeName: &quot;&quot;, id: 10, branchId: 0, recurseId: &#45;1, attributes: 512, notes: &quot;&quot; -->
<g id="node11" class="node">
<title>10</title>
<ellipse fill="none" stroke="black" cx="570.83" cy="-18" rx="70.03" ry="18"/>
<text text-anchor="middle" x="570.83" y="-12.57" font-family="Times New Roman,serif" font-size="14.00">PlayerInputTick</text>
</g>
<!-- 9&#45;&gt;10 -->
<g id="edge10" class="edge">
<title>9&#45;&gt;10</title>
<path fill="none" stroke="black" d="M424.66,-18C442.12,-18 465.88,-18 489.13,-18"/>
<polygon fill="black" stroke="black" points="488.95,-21.5 498.95,-18 488.95,-14.5 488.95,-21.5"/>
</g>
</g>
</svg>
