<?xml version="1.0" encoding="UTF-8" standalone="no"?>
<!DOCTYPE svg PUBLIC "-//W3C//DTD SVG 1.1//EN"
 "http://www.w3.org/Graphics/SVG/1.1/DTD/svg11.dtd">
<!-- Generated by graphviz version 13.1.2 (20250808.2320)
 -->
<!-- Title: CorrectPlayerMovePredictionPacket Pages: 1 -->
<svg width="912pt" height="638pt"
 viewBox="0.00 0.00 912.00 638.00" xmlns="http://www.w3.org/2000/svg" xmlns:xlink="http://www.w3.org/1999/xlink">
<g id="graph0" class="graph" transform="scale(1 1) rotate(0) translate(4 634)">
<title>CorrectPlayerMovePredictionPacket</title>
<polygon fill="white" stroke="none" points="-4,4 -4,-634 907.69,-634 907.69,4 -4,4"/>
<!-- 0 -->
<!-- name: &quot;CorrectPlayerMovePredictionPacket&quot;, typeName: &quot;&quot;, id: 0, branchId: 0, recurseId: &#45;1, attributes: 0, notes: &quot;Sent to a player when their simulation of movement mismatches enough from the server that it wants to correct the client.&quot; -->
<g id="node1" class="node">
<title>0</title>
<ellipse fill="none" stroke="black" cx="146.55" cy="-211" rx="146.55" ry="18"/>
<text xml:space="preserve" text-anchor="middle" x="146.55" y="-205.95" font-family="Times New Roman,serif" font-size="14.00">CorrectPlayerMovePredictionPacket</text>
</g>
<!-- 1 -->
<!-- name: &quot;PredictionType&quot;, typeName: &quot;&quot;, id: 1, branchId: 0, recurseId: &#45;1, attributes: 0, notes: &quot;Vehicle or Player Prediction&quot; -->
<g id="node2" class="node">
<title>1</title>
<ellipse fill="none" stroke="black" cx="428.56" cy="-571" rx="67.22" ry="18"/>
<text xml:space="preserve" text-anchor="middle" x="428.56" y="-565.95" font-family="Times New Roman,serif" font-size="14.00">PredictionType</text>
</g>
<!-- 0&#45;&gt;1 -->
<g id="edge1" class="edge">
<title>0&#45;&gt;1</title>
<path fill="none" stroke="black" d="M155.54,-229.26C177.59,-278.19 243.4,-414.56 329.1,-504 346.03,-521.67 368.35,-537.33 387.46,-549.05"/>
<polygon fill="black" stroke="black" points="385.44,-551.92 395.82,-554.04 389.02,-545.91 385.44,-551.92"/>
</g>
<!-- 3 -->
<!-- name: &quot;Pos&quot;, typeName: &quot;&quot;, id: 3, branchId: 0, recurseId: &#45;1, attributes: 0, notes: &quot;Corrected position&quot; -->
<g id="node4" class="node">
<title>3</title>
<ellipse fill="none" stroke="black" cx="428.56" cy="-477" rx="27" ry="18"/>
<text xml:space="preserve" text-anchor="middle" x="428.56" y="-471.95" font-family="Times New Roman,serif" font-size="14.00">Pos</text>
</g>
<!-- 0&#45;&gt;3 -->
<g id="edge3" class="edge">
<title>0&#45;&gt;3</title>
<path fill="none" stroke="black" d="M166.79,-229.28C216.54,-276.54 349.28,-402.64 403.74,-454.37"/>
<polygon fill="black" stroke="black" points="401.32,-456.9 410.98,-461.25 406.14,-451.83 401.32,-456.9"/>
</g>
<!-- 10 -->
<!-- name: &quot;Pos Delta&quot;, typeName: &quot;&quot;, id: 10, branchId: 0, recurseId: &#45;1, attributes: 0, notes: &quot;Corrected velocity&quot; -->
<g id="node11" class="node">
<title>10</title>
<ellipse fill="none" stroke="black" cx="428.56" cy="-315" rx="46.75" ry="18"/>
<text xml:space="preserve" text-anchor="middle" x="428.56" y="-309.95" font-family="Times New Roman,serif" font-size="14.00">Pos Delta</text>
</g>
<!-- 0&#45;&gt;10 -->
<g id="edge10" class="edge">
<title>0&#45;&gt;10</title>
<path fill="none" stroke="black" d="M194.41,-228.41C247.07,-247.96 331.88,-279.46 383.4,-298.6"/>
<polygon fill="black" stroke="black" points="382.16,-301.87 392.75,-302.07 384.6,-295.31 382.16,-301.87"/>
</g>
<!-- 17 -->
<!-- name: &quot;Rotation&quot;, typeName: &quot;&quot;, id: 17, branchId: 0, recurseId: &#45;1, attributes: 0, notes: &quot;Corrected rotation. Only sent when PredictionType is Vehicle&quot; -->
<g id="node18" class="node">
<title>17</title>
<ellipse fill="none" stroke="black" cx="428.56" cy="-211" rx="42.65" ry="18"/>
<text xml:space="preserve" text-anchor="middle" x="428.56" y="-205.95" font-family="Times New Roman,serif" font-size="14.00">Rotation</text>
</g>
<!-- 0&#45;&gt;17 -->
<g id="edge17" class="edge">
<title>0&#45;&gt;17</title>
<path fill="none" stroke="black" d="M293.29,-211C322.28,-211 350.94,-211 374.29,-211"/>
<polygon fill="black" stroke="black" points="374.13,-214.5 384.13,-211 374.13,-207.5 374.13,-214.5"/>
</g>
<!-- 22 -->
<!-- name: &quot;VehicleAngularVelocity&quot;, typeName: &quot;&quot;, id: 22, branchId: 0, recurseId: &#45;1, attributes: 0, notes: &quot;Angular Velocity for a vehicle. Only sent when PredictionType is Vehicle&quot; -->
<g id="node23" class="node">
<title>22</title>
<ellipse fill="none" stroke="black" cx="428.56" cy="-154" rx="99.46" ry="18"/>
<text xml:space="preserve" text-anchor="middle" x="428.56" y="-148.95" font-family="Times New Roman,serif" font-size="14.00">VehicleAngularVelocity</text>
</g>
<!-- 0&#45;&gt;22 -->
<g id="edge22" class="edge">
<title>0&#45;&gt;22</title>
<path fill="none" stroke="black" d="M224.43,-195.35C263.42,-187.41 310.66,-177.8 349.77,-169.83"/>
<polygon fill="black" stroke="black" points="350.25,-173.31 359.35,-167.88 348.86,-166.45 350.25,-173.31"/>
</g>
<!-- 24 -->
<!-- name: &quot;On Ground&quot;, typeName: &quot;&quot;, id: 24, branchId: 0, recurseId: &#45;1, attributes: 0, notes: &quot;Is on ground&quot; -->
<g id="node25" class="node">
<title>24</title>
<ellipse fill="none" stroke="black" cx="428.56" cy="-94" rx="52.89" ry="18"/>
<text xml:space="preserve" text-anchor="middle" x="428.56" y="-88.95" font-family="Times New Roman,serif" font-size="14.00">On Ground</text>
</g>
<!-- 0&#45;&gt;24 -->
<g id="edge24" class="edge">
<title>0&#45;&gt;24</title>
<path fill="none" stroke="black" d="M182.87,-193.25C219.09,-175.38 277.3,-147.59 329.1,-127 344.75,-120.78 362.09,-114.7 377.81,-109.49"/>
<polygon fill="black" stroke="black" points="378.53,-112.94 386.95,-106.51 376.35,-106.29 378.53,-112.94"/>
</g>
<!-- 26 -->
<!-- name: &quot;Tick&quot;, typeName: &quot;&quot;, id: 26, branchId: 0, recurseId: &#45;1, attributes: 0, notes: &quot;Which frame we&#39;re correcting; should match the tick in the Player Auth Input packet&quot; -->
<g id="node27" class="node">
<title>26</title>
<ellipse fill="none" stroke="black" cx="428.56" cy="-29" rx="27.81" ry="18"/>
<text xml:space="preserve" text-anchor="middle" x="428.56" y="-23.95" font-family="Times New Roman,serif" font-size="14.00">Tick</text>
</g>
<!-- 0&#45;&gt;26 -->
<g id="edge26" class="edge">
<title>0&#45;&gt;26</title>
<path fill="none" stroke="black" d="M166.53,-192.68C198.09,-163.01 264.31,-104.04 329.1,-67 348.91,-55.67 372.75,-46.37 392.01,-39.81"/>
<polygon fill="black" stroke="black" points="392.92,-43.19 401.32,-36.74 390.72,-36.55 392.92,-43.19"/>
</g>
<!-- 2 -->
<!-- name: &quot;enum enum RewindType&quot;, typeName: &quot;&quot;, id: 2, branchId: 0, recurseId: &#45;1, attributes: 512, notes: &quot;Vehicle or Player Prediction&quot; -->
<g id="node3" class="node">
<title>2</title>
<ellipse fill="none" stroke="black" cx="798.6" cy="-612" rx="105.09" ry="18"/>
<text xml:space="preserve" text-anchor="middle" x="798.6" y="-606.95" font-family="Times New Roman,serif" font-size="14.00">enum enum RewindType</text>
</g>
<!-- 1&#45;&gt;2 -->
<g id="edge2" class="edge">
<title>1&#45;&gt;2</title>
<path fill="none" stroke="black" d="M491.16,-577.86C547.55,-584.14 632,-593.55 697.98,-600.9"/>
<polygon fill="black" stroke="black" points="697.41,-604.36 707.73,-601.99 698.18,-597.4 697.41,-604.36"/>
</g>
<!-- 4 -->
<!-- name: &quot;X&quot;, typeName: &quot;&quot;, id: 4, branchId: 0, recurseId: &#45;1, attributes: 0, notes: &quot;&quot; -->
<g id="node5" class="node">
<title>4</title>
<ellipse fill="none" stroke="black" cx="610.76" cy="-558" rx="27" ry="18"/>
<text xml:space="preserve" text-anchor="middle" x="610.76" y="-552.95" font-family="Times New Roman,serif" font-size="14.00">X</text>
</g>
<!-- 3&#45;&gt;4 -->
<g id="edge4" class="edge">
<title>3&#45;&gt;4</title>
<path fill="none" stroke="black" d="M451.65,-486.93C483.22,-501.12 541.4,-527.27 577.7,-543.59"/>
<polygon fill="black" stroke="black" points="575.83,-546.59 586.39,-547.49 578.7,-540.2 575.83,-546.59"/>
</g>
<!-- 6 -->
<!-- name: &quot;Y&quot;, typeName: &quot;&quot;, id: 6, branchId: 0, recurseId: &#45;1, attributes: 0, notes: &quot;&quot; -->
<g id="node7" class="node">
<title>6</title>
<ellipse fill="none" stroke="black" cx="610.76" cy="-504" rx="27" ry="18"/>
<text xml:space="preserve" text-anchor="middle" x="610.76" y="-498.95" font-family="Times New Roman,serif" font-size="14.00">Y</text>
</g>
<!-- 3&#45;&gt;6 -->
<g id="edge6" class="edge">
<title>3&#45;&gt;6</title>
<path fill="none" stroke="black" d="M455.38,-480.87C486.15,-485.48 537.81,-493.22 572.81,-498.46"/>
<polygon fill="black" stroke="black" points="572.09,-501.89 582.5,-499.91 573.12,-494.97 572.09,-501.89"/>
</g>
<!-- 8 -->
<!-- name: &quot;Z&quot;, typeName: &quot;&quot;, id: 8, branchId: 0, recurseId: &#45;1, attributes: 0, notes: &quot;&quot; -->
<g id="node9" class="node">
<title>8</title>
<ellipse fill="none" stroke="black" cx="610.76" cy="-450" rx="27" ry="18"/>
<text xml:space="preserve" text-anchor="middle" x="610.76" y="-444.95" font-family="Times New Roman,serif" font-size="14.00">Z</text>
</g>
<!-- 3&#45;&gt;8 -->
<g id="edge8" class="edge">
<title>3&#45;&gt;8</title>
<path fill="none" stroke="black" d="M455.38,-473.13C486.15,-468.52 537.81,-460.78 572.81,-455.54"/>
<polygon fill="black" stroke="black" points="573.12,-459.03 582.5,-454.09 572.09,-452.11 573.12,-459.03"/>
</g>
<!-- 5 -->
<!-- name: &quot;float&quot;, typeName: &quot;&quot;, id: 5, branchId: 0, recurseId: &#45;1, attributes: 512, notes: &quot;&quot; -->
<g id="node6" class="node">
<title>5</title>
<ellipse fill="none" stroke="black" cx="798.6" cy="-558" rx="27.81" ry="18"/>
<text xml:space="preserve" text-anchor="middle" x="798.6" y="-552.95" font-family="Times New Roman,serif" font-size="14.00">float</text>
</g>
<!-- 4&#45;&gt;5 -->
<g id="edge5" class="edge">
<title>4&#45;&gt;5</title>
<path fill="none" stroke="black" d="M638,-558C669.59,-558 722.94,-558 759.18,-558"/>
<polygon fill="black" stroke="black" points="758.78,-561.5 768.78,-558 758.78,-554.5 758.78,-561.5"/>
</g>
<!-- 7 -->
<!-- name: &quot;float&quot;, typeName: &quot;&quot;, id: 7, branchId: 0, recurseId: &#45;1, attributes: 512, notes: &quot;&quot; -->
<g id="node8" class="node">
<title>7</title>
<ellipse fill="none" stroke="black" cx="798.6" cy="-504" rx="27.81" ry="18"/>
<text xml:space="preserve" text-anchor="middle" x="798.6" y="-498.95" font-family="Times New Roman,serif" font-size="14.00">float</text>
</g>
<!-- 6&#45;&gt;7 -->
<g id="edge7" class="edge">
<title>6&#45;&gt;7</title>
<path fill="none" stroke="black" d="M638,-504C669.59,-504 722.94,-504 759.18,-504"/>
<polygon fill="black" stroke="black" points="758.78,-507.5 768.78,-504 758.78,-500.5 758.78,-507.5"/>
</g>
<!-- 9 -->
<!-- name: &quot;float&quot;, typeName: &quot;&quot;, id: 9, branchId: 0, recurseId: &#45;1, attributes: 512, notes: &quot;&quot; -->
<g id="node10" class="node">
<title>9</title>
<ellipse fill="none" stroke="black" cx="798.6" cy="-450" rx="27.81" ry="18"/>
<text xml:space="preserve" text-anchor="middle" x="798.6" y="-444.95" font-family="Times New Roman,serif" font-size="14.00">float</text>
</g>
<!-- 8&#45;&gt;9 -->
<g id="edge9" class="edge">
<title>8&#45;&gt;9</title>
<path fill="none" stroke="black" d="M638,-450C669.59,-450 722.94,-450 759.18,-450"/>
<polygon fill="black" stroke="black" points="758.78,-453.5 768.78,-450 758.78,-446.5 758.78,-453.5"/>
</g>
<!-- 11 -->
<!-- name: &quot;X&quot;, typeName: &quot;&quot;, id: 11, branchId: 0, recurseId: &#45;1, attributes: 0, notes: &quot;&quot; -->
<g id="node12" class="node">
<title>11</title>
<ellipse fill="none" stroke="black" cx="610.76" cy="-396" rx="27" ry="18"/>
<text xml:space="preserve" text-anchor="middle" x="610.76" y="-390.95" font-family="Times New Roman,serif" font-size="14.00">X</text>
</g>
<!-- 10&#45;&gt;11 -->
<g id="edge11" class="edge">
<title>10&#45;&gt;11</title>
<path fill="none" stroke="black" d="M460.13,-328.74C492.84,-343.44 544.5,-366.66 577.75,-381.61"/>
<polygon fill="black" stroke="black" points="575.92,-384.62 586.47,-385.53 578.79,-378.24 575.92,-384.62"/>
</g>
<!-- 13 -->
<!-- name: &quot;Y&quot;, typeName: &quot;&quot;, id: 13, branchId: 0, recurseId: &#45;1, attributes: 0, notes: &quot;&quot; -->
<g id="node14" class="node">
<title>13</title>
<ellipse fill="none" stroke="black" cx="610.76" cy="-342" rx="27" ry="18"/>
<text xml:space="preserve" text-anchor="middle" x="610.76" y="-336.95" font-family="Times New Roman,serif" font-size="14.00">Y</text>
</g>
<!-- 10&#45;&gt;13 -->
<g id="edge13" class="edge">
<title>10&#45;&gt;13</title>
<path fill="none" stroke="black" d="M472.72,-321.47C503.2,-326.03 543.61,-332.09 572.64,-336.44"/>
<polygon fill="black" stroke="black" points="572.03,-339.89 582.44,-337.91 573.07,-332.96 572.03,-339.89"/>
</g>
<!-- 15 -->
<!-- name: &quot;Z&quot;, typeName: &quot;&quot;, id: 15, branchId: 0, recurseId: &#45;1, attributes: 0, notes: &quot;&quot; -->
<g id="node16" class="node">
<title>15</title>
<ellipse fill="none" stroke="black" cx="610.76" cy="-288" rx="27" ry="18"/>
<text xml:space="preserve" text-anchor="middle" x="610.76" y="-282.95" font-family="Times New Roman,serif" font-size="14.00">Z</text>
</g>
<!-- 10&#45;&gt;15 -->
<g id="edge15" class="edge">
<title>10&#45;&gt;15</title>
<path fill="none" stroke="black" d="M472.72,-308.53C503.2,-303.97 543.61,-297.91 572.64,-293.56"/>
<polygon fill="black" stroke="black" points="573.07,-297.04 582.44,-292.09 572.03,-290.11 573.07,-297.04"/>
</g>
<!-- 12 -->
<!-- name: &quot;float&quot;, typeName: &quot;&quot;, id: 12, branchId: 0, recurseId: &#45;1, attributes: 512, notes: &quot;&quot; -->
<g id="node13" class="node">
<title>12</title>
<ellipse fill="none" stroke="black" cx="798.6" cy="-396" rx="27.81" ry="18"/>
<text xml:space="preserve" text-anchor="middle" x="798.6" y="-390.95" font-family="Times New Roman,serif" font-size="14.00">float</text>
</g>
<!-- 11&#45;&gt;12 -->
<g id="edge12" class="edge">
<title>11&#45;&gt;12</title>
<path fill="none" stroke="black" d="M638,-396C669.59,-396 722.94,-396 759.18,-396"/>
<polygon fill="black" stroke="black" points="758.78,-399.5 768.78,-396 758.78,-392.5 758.78,-399.5"/>
</g>
<!-- 14 -->
<!-- name: &quot;float&quot;, typeName: &quot;&quot;, id: 14, branchId: 0, recurseId: &#45;1, attributes: 512, notes: &quot;&quot; -->
<g id="node15" class="node">
<title>14</title>
<ellipse fill="none" stroke="black" cx="798.6" cy="-342" rx="27.81" ry="18"/>
<text xml:space="preserve" text-anchor="middle" x="798.6" y="-336.95" font-family="Times New Roman,serif" font-size="14.00">float</text>
</g>
<!-- 13&#45;&gt;14 -->
<g id="edge14" class="edge">
<title>13&#45;&gt;14</title>
<path fill="none" stroke="black" d="M638,-342C669.59,-342 722.94,-342 759.18,-342"/>
<polygon fill="black" stroke="black" points="758.78,-345.5 768.78,-342 758.78,-338.5 758.78,-345.5"/>
</g>
<!-- 16 -->
<!-- name: &quot;float&quot;, typeName: &quot;&quot;, id: 16, branchId: 0, recurseId: &#45;1, attributes: 512, notes: &quot;&quot; -->
<g id="node17" class="node">
<title>16</title>
<ellipse fill="none" stroke="black" cx="798.6" cy="-288" rx="27.81" ry="18"/>
<text xml:space="preserve" text-anchor="middle" x="798.6" y="-282.95" font-family="Times New Roman,serif" font-size="14.00">float</text>
</g>
<!-- 15&#45;&gt;16 -->
<g id="edge16" class="edge">
<title>15&#45;&gt;16</title>
<path fill="none" stroke="black" d="M638,-288C669.59,-288 722.94,-288 759.18,-288"/>
<polygon fill="black" stroke="black" points="758.78,-291.5 768.78,-288 758.78,-284.5 758.78,-291.5"/>
</g>
<!-- 18 -->
<!-- name: &quot;X&quot;, typeName: &quot;&quot;, id: 18, branchId: 0, recurseId: &#45;1, attributes: 0, notes: &quot;&quot; -->
<g id="node19" class="node">
<title>18</title>
<ellipse fill="none" stroke="black" cx="610.76" cy="-234" rx="27" ry="18"/>
<text xml:space="preserve" text-anchor="middle" x="610.76" y="-228.95" font-family="Times New Roman,serif" font-size="14.00">X</text>
</g>
<!-- 17&#45;&gt;18 -->
<g id="edge18" class="edge">
<title>17&#45;&gt;18</title>
<path fill="none" stroke="black" d="M469.55,-216.1C500.31,-220.03 542.49,-225.41 572.53,-229.25"/>
<polygon fill="black" stroke="black" points="571.94,-232.7 582.3,-230.49 572.82,-225.76 571.94,-232.7"/>
</g>
<!-- 20 -->
<!-- name: &quot;Y&quot;, typeName: &quot;&quot;, id: 20, branchId: 0, recurseId: &#45;1, attributes: 0, notes: &quot;&quot; -->
<g id="node21" class="node">
<title>20</title>
<ellipse fill="none" stroke="black" cx="610.76" cy="-180" rx="27" ry="18"/>
<text xml:space="preserve" text-anchor="middle" x="610.76" y="-174.95" font-family="Times New Roman,serif" font-size="14.00">Y</text>
</g>
<!-- 17&#45;&gt;20 -->
<g id="edge20" class="edge">
<title>17&#45;&gt;20</title>
<path fill="none" stroke="black" d="M468.66,-204.27C499.68,-198.94 542.74,-191.53 573.11,-186.31"/>
<polygon fill="black" stroke="black" points="573.32,-189.82 582.58,-184.68 572.13,-182.92 573.32,-189.82"/>
</g>
<!-- 19 -->
<!-- name: &quot;float&quot;, typeName: &quot;&quot;, id: 19, branchId: 0, recurseId: &#45;1, attributes: 512, notes: &quot;&quot; -->
<g id="node20" class="node">
<title>19</title>
<ellipse fill="none" stroke="black" cx="798.6" cy="-234" rx="27.81" ry="18"/>
<text xml:space="preserve" text-anchor="middle" x="798.6" y="-228.95" font-family="Times New Roman,serif" font-size="14.00">float</text>
</g>
<!-- 18&#45;&gt;19 -->
<g id="edge19" class="edge">
<title>18&#45;&gt;19</title>
<path fill="none" stroke="black" d="M638,-234C669.59,-234 722.94,-234 759.18,-234"/>
<polygon fill="black" stroke="black" points="758.78,-237.5 768.78,-234 758.78,-230.5 758.78,-237.5"/>
</g>
<!-- 21 -->
<!-- name: &quot;float&quot;, typeName: &quot;&quot;, id: 21, branchId: 0, recurseId: &#45;1, attributes: 512, notes: &quot;&quot; -->
<g id="node22" class="node">
<title>21</title>
<ellipse fill="none" stroke="black" cx="798.6" cy="-180" rx="27.81" ry="18"/>
<text xml:space="preserve" text-anchor="middle" x="798.6" y="-174.95" font-family="Times New Roman,serif" font-size="14.00">float</text>
</g>
<!-- 20&#45;&gt;21 -->
<g id="edge21" class="edge">
<title>20&#45;&gt;21</title>
<path fill="none" stroke="black" d="M638,-180C669.59,-180 722.94,-180 759.18,-180"/>
<polygon fill="black" stroke="black" points="758.78,-183.5 768.78,-180 758.78,-176.5 758.78,-183.5"/>
</g>
<!-- 23 -->
<!-- name: &quot;float&quot;, typeName: &quot;&quot;, id: 23, branchId: 0, recurseId: &#45;1, attributes: 512, notes: &quot;Angular Velocity for a vehicle. Only sent when PredictionType is Vehicle&quot; -->
<g id="node24" class="node">
<title>23</title>
<ellipse fill="none" stroke="black" cx="798.6" cy="-126" rx="27.81" ry="18"/>
<text xml:space="preserve" text-anchor="middle" x="798.6" y="-120.95" font-family="Times New Roman,serif" font-size="14.00">float</text>
</g>
<!-- 22&#45;&gt;23 -->
<g id="edge23" class="edge">
<title>22&#45;&gt;23</title>
<path fill="none" stroke="black" d="M521.01,-147.04C597.73,-141.21 703.47,-133.16 759.38,-128.91"/>
<polygon fill="black" stroke="black" points="759.31,-132.42 769.01,-128.17 758.78,-125.44 759.31,-132.42"/>
</g>
<!-- 25 -->
<!-- name: &quot;bool&quot;, typeName: &quot;&quot;, id: 25, branchId: 0, recurseId: &#45;1, attributes: 512, notes: &quot;Is on ground&quot; -->
<g id="node26" class="node">
<title>25</title>
<ellipse fill="none" stroke="black" cx="798.6" cy="-72" rx="27.3" ry="18"/>
<text xml:space="preserve" text-anchor="middle" x="798.6" y="-66.95" font-family="Times New Roman,serif" font-size="14.00">bool</text>
</g>
<!-- 24&#45;&gt;25 -->
<g id="edge25" class="edge">
<title>24&#45;&gt;25</title>
<path fill="none" stroke="black" d="M481.12,-90.92C556.14,-86.43 693.65,-78.21 759.93,-74.25"/>
<polygon fill="black" stroke="black" points="759.78,-77.77 769.55,-73.68 759.36,-70.78 759.78,-77.77"/>
</g>
<!-- 27 -->
<!-- name: &quot;Input tick&quot;, typeName: &quot;&quot;, id: 27, branchId: 0, recurseId: &#45;1, attributes: 0, notes: &quot;In server authoritative movement mode the client supplies this in PlayerAuthInputPacket.
For any client&#45;bound packets containing a tick, the server should supply the tick value corresponding to the most recently processed PlayerAuthInputPacket.
This allows the client to adjust any client predictions made while the packet was in flight.
If the packet is being sent to the client but not relating to data of the player or a client&#45;predicted vehicle, it can be zero.
It is also acceptable to specify zero for players, although this may lead to minor visual flickers and less smooth application of CorrectPlayerMovePredictionPacket.&quot; -->
<g id="node28" class="node">
<title>27</title>
<ellipse fill="none" stroke="black" cx="610.76" cy="-22" rx="46.75" ry="18"/>
<text xml:space="preserve" text-anchor="middle" x="610.76" y="-16.95" font-family="Times New Roman,serif" font-size="14.00">Input tick</text>
</g>
<!-- 26&#45;&gt;27 -->
<g id="edge27" class="edge">
<title>26&#45;&gt;27</title>
<path fill="none" stroke="black" d="M456.54,-27.95C481.92,-26.97 520.73,-25.46 552.94,-24.21"/>
<polygon fill="black" stroke="black" points="552.66,-27.72 562.52,-23.84 552.39,-20.73 552.66,-27.72"/>
</g>
<!-- 28 -->
<!-- name: &quot;unsigned varint64&quot;, typeName: &quot;&quot;, id: 28, branchId: 0, recurseId: &#45;1, attributes: 512, notes: &quot;In server authoritative movement mode the client supplies this in PlayerAuthInputPacket.
For any client&#45;bound packets containing a tick, the server should supply the tick value corresponding to the most recently processed PlayerAuthInputPacket.
This allows the client to adjust any client predictions made while the packet was in flight.
If the packet is being sent to the client but not relating to data of the player or a client&#45;predicted vehicle, it can be zero.
It is also acceptable to specify zero for players, although this may lead to minor visual flickers and less smooth application of CorrectPlayerMovePredictionPacket.&quot; -->
<g id="node29" class="node">
<title>28</title>
<ellipse fill="none" stroke="black" cx="798.6" cy="-18" rx="77.45" ry="18"/>
<text xml:space="preserve" text-anchor="middle" x="798.6" y="-12.95" font-family="Times New Roman,serif" font-size="14.00">unsigned varint64</text>
</g>
<!-- 27&#45;&gt;28 -->
<g id="edge28" class="edge">
<title>27&#45;&gt;28</title>
<path fill="none" stroke="black" d="M657.7,-21.01C673.47,-20.67 691.69,-20.28 709.66,-19.89"/>
<polygon fill="black" stroke="black" points="709.66,-23.39 719.58,-19.68 709.51,-16.4 709.66,-23.39"/>
</g>
</g>
</svg>
