<?xml version="1.0" encoding="UTF-8" standalone="no"?>
<!DOCTYPE svg PUBLIC "-//W3C//DTD SVG 1.1//EN"
 "http://www.w3.org/Graphics/SVG/1.1/DTD/svg11.dtd">
<!-- Generated by graphviz version 14.1.5 (20260411.2331)
 -->
<!-- Title: CraftingDataEntry Pages: 1 -->
<svg width="1271pt" height="1016pt"
 viewBox="0.00 0.00 1271.00 1016.00" xmlns="http://www.w3.org/2000/svg" xmlns:xlink="http://www.w3.org/1999/xlink">
<g id="graph0" class="graph" transform="scale(1 1) rotate(0) translate(4 1012)">
<title>CraftingDataEntry</title>
<polygon fill="white" stroke="none" points="-4,4 -4,-1012 1267.07,-1012 1267.07,4 -4,4"/>
<!-- 1 -->
<!-- name: &quot;CraftingDataEntry&quot;, typeName: &quot;&quot;, id: 1, branchId: 0, recurseId: &#45;1, attributes: 0, notes: &quot;&quot; -->
<g id="node1" class="node">
<title>1</title>
<ellipse fill="none" stroke="black" cx="79.5" cy="-612" rx="79.5" ry="18"/>
<text xml:space="preserve" text-anchor="middle" x="79.5" y="-606.95" font-family="Times New Roman,serif" font-size="14.00">CraftingDataEntry</text>
</g>
<!-- 2 -->
<!-- name: &quot;Crafting Type&quot;, typeName: &quot;&quot;, id: 2, branchId: 0, recurseId: &#45;1, attributes: 0, notes: &quot;&quot; -->
<g id="node2" class="node">
<title>2</title>
<ellipse fill="none" stroke="black" cx="287" cy="-828" rx="62.1" ry="18"/>
<text xml:space="preserve" text-anchor="middle" x="287" y="-822.95" font-family="Times New Roman,serif" font-size="14.00">Crafting Type</text>
</g>
<!-- 1&#45;&gt;2 -->
<g id="edge1" class="edge">
<title>1&#45;&gt;2</title>
<path fill="none" stroke="black" d="M97.32,-629.68C133.53,-667.74 219.04,-757.62 261.38,-802.12"/>
<polygon fill="black" stroke="black" points="258.77,-804.45 268.2,-809.29 263.84,-799.63 258.77,-804.45"/>
</g>
<!-- 4 -->
<!-- name: &quot;Dependency on &#39;Crafting Type&#39;&quot;, typeName: &quot;&quot;, id: 4, branchId: 0, recurseId: &#45;1, attributes: 2, notes: &quot;&quot; -->
<g id="node4" class="node">
<title>4</title>
<polygon fill="none" stroke="black" points="373,-603 195,-603 195,-567 379,-567 379,-597 373,-603"/>
<polyline fill="none" stroke="black" points="373,-603 373,-597"/>
<polyline fill="none" stroke="black" points="379,-597 373,-597"/>
<text xml:space="preserve" text-anchor="middle" x="287" y="-579.95" font-family="Times New Roman,serif" font-size="14.00">Dependency on &#39;Crafting Type&#39;</text>
</g>
<!-- 1&#45;&gt;4 -->
<g id="edge3" class="edge">
<title>1&#45;&gt;4</title>
<path fill="none" stroke="black" d="M149.22,-602.97C160.27,-601.52 171.91,-599.99 183.55,-598.46"/>
<polygon fill="black" stroke="black" points="183.73,-601.97 193.19,-597.19 182.82,-595.03 183.73,-601.97"/>
</g>
<!-- 3 -->
<!-- name: &quot;varint&quot;, typeName: &quot;&quot;, id: 3, branchId: 0, recurseId: &#45;1, attributes: 512, notes: &quot;&quot; -->
<g id="node3" class="node">
<title>3</title>
<ellipse fill="none" stroke="black" cx="1034.12" cy="-990" rx="32.41" ry="18"/>
<text xml:space="preserve" text-anchor="middle" x="1034.12" y="-984.95" font-family="Times New Roman,serif" font-size="14.00">varint</text>
</g>
<!-- 2&#45;&gt;3 -->
<g id="edge2" class="edge">
<title>2&#45;&gt;3</title>
<path fill="none" stroke="black" d="M309.87,-845.19C351.09,-876.33 444.37,-940.92 535.45,-963 699.86,-1002.86 903.42,-997.58 990.43,-992.87"/>
<polygon fill="black" stroke="black" points="990.38,-996.37 1000.17,-992.31 989.99,-989.39 990.38,-996.37"/>
</g>
<!-- 5 -->
<!-- name: &quot;if (0)&quot;, typeName: &quot;&quot;, id: 5, branchId: 0, recurseId: &#45;1, attributes: 4, notes: &quot;&quot; -->
<g id="node5" class="node">
<title>5</title>
<polygon fill="none" stroke="black" points="457.22,-900 415,-882 457.22,-864 499.45,-882 457.22,-900"/>
<text xml:space="preserve" text-anchor="middle" x="457.22" y="-876.95" font-family="Times New Roman,serif" font-size="14.00">if (0)</text>
</g>
<!-- 4&#45;&gt;5 -->
<g id="edge4" class="edge">
<title>4&#45;&gt;5</title>
<path fill="none" stroke="black" d="M298.27,-603.13C327.28,-654.35 409.86,-800.15 442.61,-857.96"/>
<polygon fill="black" stroke="black" points="439.4,-859.39 447.37,-866.37 445.49,-855.94 439.4,-859.39"/>
</g>
<!-- 10 -->
<!-- name: &quot;if (1)&quot;, typeName: &quot;&quot;, id: 10, branchId: 1, recurseId: &#45;1, attributes: 4, notes: &quot;&quot; -->
<g id="node10" class="node">
<title>10</title>
<polygon fill="none" stroke="black" points="457.22,-792 415,-774 457.22,-756 499.45,-774 457.22,-792"/>
<text xml:space="preserve" text-anchor="middle" x="457.22" y="-768.95" font-family="Times New Roman,serif" font-size="14.00">if (1)</text>
</g>
<!-- 4&#45;&gt;10 -->
<g id="edge9" class="edge">
<title>4&#45;&gt;10</title>
<path fill="none" stroke="black" d="M301.05,-603.15C322.98,-633.11 369.32,-694.17 415,-740 420.33,-745.35 426.44,-750.73 432.29,-755.59"/>
<polygon fill="black" stroke="black" points="429.96,-758.21 439.95,-761.75 434.35,-752.75 429.96,-758.21"/>
</g>
<!-- 15 -->
<!-- name: &quot;if (2)&quot;, typeName: &quot;&quot;, id: 15, branchId: 2, recurseId: &#45;1, attributes: 4, notes: &quot;&quot; -->
<g id="node15" class="node">
<title>15</title>
<polygon fill="none" stroke="black" points="457.22,-731 415,-713 457.22,-695 499.45,-713 457.22,-731"/>
<text xml:space="preserve" text-anchor="middle" x="457.22" y="-707.95" font-family="Times New Roman,serif" font-size="14.00">if (2)</text>
</g>
<!-- 4&#45;&gt;15 -->
<g id="edge14" class="edge">
<title>4&#45;&gt;15</title>
<path fill="none" stroke="black" d="M312.1,-603.34C344.05,-627.65 400.09,-670.29 432.06,-694.62"/>
<polygon fill="black" stroke="black" points="429.88,-697.35 439.96,-700.62 434.12,-691.78 429.88,-697.35"/>
</g>
<!-- 17 -->
<!-- name: &quot;if (3)&quot;, typeName: &quot;&quot;, id: 17, branchId: 3, recurseId: &#45;1, attributes: 4, notes: &quot;&quot; -->
<g id="node17" class="node">
<title>17</title>
<polygon fill="none" stroke="black" points="457.22,-664 415,-646 457.22,-628 499.45,-646 457.22,-664"/>
<text xml:space="preserve" text-anchor="middle" x="457.22" y="-640.95" font-family="Times New Roman,serif" font-size="14.00">if (3)</text>
</g>
<!-- 4&#45;&gt;17 -->
<g id="edge16" class="edge">
<title>4&#45;&gt;17</title>
<path fill="none" stroke="black" d="M338.93,-603.47C366.15,-613.34 398.88,-625.21 422.84,-633.9"/>
<polygon fill="black" stroke="black" points="421.5,-637.13 432.09,-637.25 423.88,-630.55 421.5,-637.13"/>
</g>
<!-- 19 -->
<!-- name: &quot;if (4)&quot;, typeName: &quot;&quot;, id: 19, branchId: 4, recurseId: &#45;1, attributes: 4, notes: &quot;&quot; -->
<g id="node19" class="node">
<title>19</title>
<polygon fill="none" stroke="black" points="457.22,-603 415,-585 457.22,-567 499.45,-585 457.22,-603"/>
<text xml:space="preserve" text-anchor="middle" x="457.22" y="-579.95" font-family="Times New Roman,serif" font-size="14.00">if (4)</text>
</g>
<!-- 4&#45;&gt;19 -->
<g id="edge18" class="edge">
<title>4&#45;&gt;19</title>
<path fill="none" stroke="black" d="M379.5,-585C387.39,-585 395.19,-585 402.62,-585"/>
<polygon fill="black" stroke="black" points="402.45,-588.5 412.45,-585 402.45,-581.5 402.45,-588.5"/>
</g>
<!-- 24 -->
<!-- name: &quot;if (5)&quot;, typeName: &quot;&quot;, id: 24, branchId: 5, recurseId: &#45;1, attributes: 4, notes: &quot;&quot; -->
<g id="node24" class="node">
<title>24</title>
<polygon fill="none" stroke="black" points="457.22,-522 415,-504 457.22,-486 499.45,-504 457.22,-522"/>
<text xml:space="preserve" text-anchor="middle" x="457.22" y="-498.95" font-family="Times New Roman,serif" font-size="14.00">if (5)</text>
</g>
<!-- 4&#45;&gt;24 -->
<g id="edge23" class="edge">
<title>4&#45;&gt;24</title>
<path fill="none" stroke="black" d="M326.17,-566.62C356.47,-552.03 398.23,-531.92 426.18,-518.47"/>
<polygon fill="black" stroke="black" points="427.66,-521.64 435.15,-514.15 424.63,-515.33 427.66,-521.64"/>
</g>
<!-- 29 -->
<!-- name: &quot;if (6)&quot;, typeName: &quot;&quot;, id: 29, branchId: 6, recurseId: &#45;1, attributes: 4, notes: &quot;&quot; -->
<g id="node29" class="node">
<title>29</title>
<polygon fill="none" stroke="black" points="457.22,-414 415,-396 457.22,-378 499.45,-396 457.22,-414"/>
<text xml:space="preserve" text-anchor="middle" x="457.22" y="-390.95" font-family="Times New Roman,serif" font-size="14.00">if (6)</text>
</g>
<!-- 4&#45;&gt;29 -->
<g id="edge28" class="edge">
<title>4&#45;&gt;29</title>
<path fill="none" stroke="black" d="M304.44,-566.53C335.82,-531.28 404.09,-454.57 437.31,-417.25"/>
<polygon fill="black" stroke="black" points="439.55,-420 443.58,-410.2 434.32,-415.35 439.55,-420"/>
</g>
<!-- 34 -->
<!-- name: &quot;if (7)&quot;, typeName: &quot;&quot;, id: 34, branchId: 7, recurseId: &#45;1, attributes: 4, notes: &quot;&quot; -->
<g id="node34" class="node">
<title>34</title>
<polygon fill="none" stroke="black" points="457.22,-306 415,-288 457.22,-270 499.45,-288 457.22,-306"/>
<text xml:space="preserve" text-anchor="middle" x="457.22" y="-282.95" font-family="Times New Roman,serif" font-size="14.00">if (7)</text>
</g>
<!-- 4&#45;&gt;34 -->
<g id="edge33" class="edge">
<title>4&#45;&gt;34</title>
<path fill="none" stroke="black" d="M298.27,-566.87C327.28,-515.65 409.86,-369.85 442.61,-312.04"/>
<polygon fill="black" stroke="black" points="445.49,-314.06 447.37,-303.63 439.4,-310.61 445.49,-314.06"/>
</g>
<!-- 39 -->
<!-- name: &quot;if (8)&quot;, typeName: &quot;&quot;, id: 39, branchId: 8, recurseId: &#45;1, attributes: 4, notes: &quot;&quot; -->
<g id="node39" class="node">
<title>39</title>
<polygon fill="none" stroke="black" points="457.22,-198 415,-180 457.22,-162 499.45,-180 457.22,-198"/>
<text xml:space="preserve" text-anchor="middle" x="457.22" y="-174.95" font-family="Times New Roman,serif" font-size="14.00">if (8)</text>
</g>
<!-- 4&#45;&gt;39 -->
<g id="edge38" class="edge">
<title>4&#45;&gt;39</title>
<path fill="none" stroke="black" d="M294.42,-566.83C312.1,-517.19 363.64,-375.36 415,-261 423.67,-241.7 434.56,-220.4 442.98,-204.49"/>
<polygon fill="black" stroke="black" points="446.01,-206.23 447.63,-195.76 439.84,-202.94 446.01,-206.23"/>
</g>
<!-- 44 -->
<!-- name: &quot;if (9)&quot;, typeName: &quot;&quot;, id: 44, branchId: 9, recurseId: &#45;1, attributes: 4, notes: &quot;&quot; -->
<g id="node44" class="node">
<title>44</title>
<polygon fill="none" stroke="black" points="457.22,-90 415,-72 457.22,-54 499.45,-72 457.22,-90"/>
<text xml:space="preserve" text-anchor="middle" x="457.22" y="-66.95" font-family="Times New Roman,serif" font-size="14.00">if (9)</text>
</g>
<!-- 4&#45;&gt;44 -->
<g id="edge43" class="edge">
<title>4&#45;&gt;44</title>
<path fill="none" stroke="black" d="M292.05,-566.91C305.76,-506.81 353.06,-308.82 415,-153 422.82,-133.34 433.75,-112.06 442.39,-96.25"/>
<polygon fill="black" stroke="black" points="445.41,-98.02 447.21,-87.58 439.29,-94.62 445.41,-98.02"/>
</g>
<!-- 6 -->
<!-- name: &quot;Shapeless Recipe&quot;, typeName: &quot;&quot;, id: 6, branchId: 0, recurseId: &#45;1, attributes: 256, notes: &quot;&quot; -->
<g id="node6" class="node">
<title>6</title>
<ellipse fill="none" stroke="black" cx="652.31" cy="-936" rx="75.41" ry="18"/>
<text xml:space="preserve" text-anchor="middle" x="652.31" y="-930.95" font-family="Times New Roman,serif" font-size="14.00">Shapeless Recipe</text>
</g>
<!-- 5&#45;&gt;6 -->
<g id="edge5" class="edge">
<title>5&#45;&gt;6</title>
<path fill="none" stroke="black" d="M480.32,-890.44C495.65,-896.11 516.62,-903.53 535.45,-909 551,-913.52 567.89,-917.8 583.85,-921.57"/>
<polygon fill="black" stroke="black" points="582.71,-924.9 593.24,-923.75 584.29,-918.08 582.71,-924.9"/>
</g>
<!-- 8 -->
<!-- name: &quot;Net id&quot;, typeName: &quot;&quot;, id: 8, branchId: 0, recurseId: &#45;1, attributes: 256, notes: &quot;&quot; -->
<g id="node8" class="node">
<title>8</title>
<ellipse fill="none" stroke="black" cx="652.31" cy="-882" rx="33.95" ry="18"/>
<text xml:space="preserve" text-anchor="middle" x="652.31" y="-876.95" font-family="Times New Roman,serif" font-size="14.00">Net id</text>
</g>
<!-- 5&#45;&gt;8 -->
<g id="edge7" class="edge">
<title>5&#45;&gt;8</title>
<path fill="none" stroke="black" d="M500.6,-882C532.04,-882 574.81,-882 606.76,-882"/>
<polygon fill="black" stroke="black" points="606.48,-885.5 616.48,-882 606.48,-878.5 606.48,-885.5"/>
</g>
<!-- 7 -->
<!-- name: &quot;ShapelessRecipe&quot;, typeName: &quot;&quot;, id: 7, branchId: 0, recurseId: &#45;1, attributes: 512, notes: &quot;&quot; -->
<g id="node7" class="node">
<title>7</title>
<ellipse fill="none" stroke="black" cx="1034.12" cy="-936" rx="72.85" ry="18"/>
<text xml:space="preserve" text-anchor="middle" x="1034.12" y="-930.95" font-family="Times New Roman,serif" font-size="14.00">ShapelessRecipe</text>
</g>
<!-- 6&#45;&gt;7 -->
<g id="edge6" class="edge">
<title>6&#45;&gt;7</title>
<path fill="none" stroke="black" d="M727.89,-936C791.71,-936 883.5,-936 949.73,-936"/>
<polygon fill="black" stroke="black" points="949.45,-939.5 959.45,-936 949.45,-932.5 949.45,-939.5"/>
</g>
<!-- 9 -->
<!-- name: &quot;TypedServerNetId&lt;struct RecipeNetIdTag,unsigned int,0&gt;&quot;, typeName: &quot;&quot;, id: 9, branchId: 0, recurseId: &#45;1, attributes: 512, notes: &quot;&quot; -->
<g id="node9" class="node">
<title>9</title>
<ellipse fill="none" stroke="black" cx="1034.12" cy="-882" rx="228.95" ry="18"/>
<text xml:space="preserve" text-anchor="middle" x="1034.12" y="-876.95" font-family="Times New Roman,serif" font-size="14.00">TypedServerNetId&lt;struct RecipeNetIdTag,unsigned int,0&gt;</text>
</g>
<!-- 8&#45;&gt;9 -->
<g id="edge8" class="edge">
<title>8&#45;&gt;9</title>
<path fill="none" stroke="black" d="M686.68,-882C712.69,-882 751.37,-882 793.58,-882"/>
<polygon fill="black" stroke="black" points="793.46,-885.5 803.46,-882 793.46,-878.5 793.46,-885.5"/>
</g>
<!-- 11 -->
<!-- name: &quot;Shaped Recipe&quot;, typeName: &quot;&quot;, id: 11, branchId: 0, recurseId: &#45;1, attributes: 256, notes: &quot;&quot; -->
<g id="node11" class="node">
<title>11</title>
<ellipse fill="none" stroke="black" cx="652.31" cy="-828" rx="66.19" ry="18"/>
<text xml:space="preserve" text-anchor="middle" x="652.31" y="-822.95" font-family="Times New Roman,serif" font-size="14.00">Shaped Recipe</text>
</g>
<!-- 10&#45;&gt;11 -->
<g id="edge10" class="edge">
<title>10&#45;&gt;11</title>
<path fill="none" stroke="black" d="M480.32,-782.44C495.65,-788.11 516.62,-795.53 535.45,-801 552.29,-805.89 570.7,-810.51 587.79,-814.49"/>
<polygon fill="black" stroke="black" points="586.8,-817.86 597.33,-816.68 588.36,-811.03 586.8,-817.86"/>
</g>
<!-- 13 -->
<!-- name: &quot;Net id&quot;, typeName: &quot;&quot;, id: 13, branchId: 0, recurseId: &#45;1, attributes: 256, notes: &quot;&quot; -->
<g id="node13" class="node">
<title>13</title>
<ellipse fill="none" stroke="black" cx="652.31" cy="-774" rx="33.95" ry="18"/>
<text xml:space="preserve" text-anchor="middle" x="652.31" y="-768.95" font-family="Times New Roman,serif" font-size="14.00">Net id</text>
</g>
<!-- 10&#45;&gt;13 -->
<g id="edge12" class="edge">
<title>10&#45;&gt;13</title>
<path fill="none" stroke="black" d="M500.6,-774C532.04,-774 574.81,-774 606.76,-774"/>
<polygon fill="black" stroke="black" points="606.48,-777.5 616.48,-774 606.48,-770.5 606.48,-777.5"/>
</g>
<!-- 12 -->
<!-- name: &quot;ShapedRecipe&quot;, typeName: &quot;&quot;, id: 12, branchId: 0, recurseId: &#45;1, attributes: 512, notes: &quot;&quot; -->
<g id="node12" class="node">
<title>12</title>
<ellipse fill="none" stroke="black" cx="1034.12" cy="-828" rx="63.63" ry="18"/>
<text xml:space="preserve" text-anchor="middle" x="1034.12" y="-822.95" font-family="Times New Roman,serif" font-size="14.00">ShapedRecipe</text>
</g>
<!-- 11&#45;&gt;12 -->
<g id="edge11" class="edge">
<title>11&#45;&gt;12</title>
<path fill="none" stroke="black" d="M718.6,-828C785.4,-828 889.04,-828 958.91,-828"/>
<polygon fill="black" stroke="black" points="958.74,-831.5 968.74,-828 958.74,-824.5 958.74,-831.5"/>
</g>
<!-- 14 -->
<!-- name: &quot;TypedServerNetId&lt;struct RecipeNetIdTag,unsigned int,0&gt;&quot;, typeName: &quot;&quot;, id: 14, branchId: 0, recurseId: &#45;1, attributes: 512, notes: &quot;&quot; -->
<g id="node14" class="node">
<title>14</title>
<ellipse fill="none" stroke="black" cx="1034.12" cy="-774" rx="228.95" ry="18"/>
<text xml:space="preserve" text-anchor="middle" x="1034.12" y="-768.95" font-family="Times New Roman,serif" font-size="14.00">TypedServerNetId&lt;struct RecipeNetIdTag,unsigned int,0&gt;</text>
</g>
<!-- 13&#45;&gt;14 -->
<g id="edge13" class="edge">
<title>13&#45;&gt;14</title>
<path fill="none" stroke="black" d="M686.68,-774C712.69,-774 751.37,-774 793.58,-774"/>
<polygon fill="black" stroke="black" points="793.46,-777.5 803.46,-774 793.46,-770.5 793.46,-777.5"/>
</g>
<!-- 16 -->
<!-- name: &quot;[No Data]&quot;, typeName: &quot;&quot;, id: 16, branchId: 0, recurseId: &#45;1, attributes: 512, notes: &quot;&quot; -->
<g id="node16" class="node">
<title>16</title>
<ellipse fill="none" stroke="black" cx="1034.12" cy="-720" rx="48.28" ry="18"/>
<text xml:space="preserve" text-anchor="middle" x="1034.12" y="-714.95" font-family="Times New Roman,serif" font-size="14.00">[No Data]</text>
</g>
<!-- 15&#45;&gt;16 -->
<g id="edge15" class="edge">
<title>15&#45;&gt;16</title>
<path fill="none" stroke="black" d="M499.11,-713.5C599.4,-714.72 857.92,-717.87 974.53,-719.29"/>
<polygon fill="black" stroke="black" points="974.14,-722.78 984.18,-719.4 974.23,-715.78 974.14,-722.78"/>
</g>
<!-- 18 -->
<!-- name: &quot;[No Data]&quot;, typeName: &quot;&quot;, id: 18, branchId: 0, recurseId: &#45;1, attributes: 512, notes: &quot;&quot; -->
<g id="node18" class="node">
<title>18</title>
<ellipse fill="none" stroke="black" cx="1034.12" cy="-666" rx="48.28" ry="18"/>
<text xml:space="preserve" text-anchor="middle" x="1034.12" y="-660.95" font-family="Times New Roman,serif" font-size="14.00">[No Data]</text>
</g>
<!-- 17&#45;&gt;18 -->
<g id="edge17" class="edge">
<title>17&#45;&gt;18</title>
<path fill="none" stroke="black" d="M497.29,-647.36C596.22,-650.8 857.11,-659.88 974.46,-663.96"/>
<polygon fill="black" stroke="black" points="974.07,-667.45 984.18,-664.3 974.31,-660.45 974.07,-667.45"/>
</g>
<!-- 20 -->
<!-- name: &quot;Multi&#45;Recipe&quot;, typeName: &quot;&quot;, id: 20, branchId: 0, recurseId: &#45;1, attributes: 256, notes: &quot;&quot; -->
<g id="node20" class="node">
<title>20</title>
<ellipse fill="none" stroke="black" cx="652.31" cy="-612" rx="60.56" ry="18"/>
<text xml:space="preserve" text-anchor="middle" x="652.31" y="-606.95" font-family="Times New Roman,serif" font-size="14.00">Multi&#45;Recipe</text>
</g>
<!-- 19&#45;&gt;20 -->
<g id="edge19" class="edge">
<title>19&#45;&gt;20</title>
<path fill="none" stroke="black" d="M490.11,-589.46C515.98,-593.08 553.31,-598.3 585.54,-602.8"/>
<polygon fill="black" stroke="black" points="584.81,-606.23 595.2,-604.15 585.78,-599.3 584.81,-606.23"/>
</g>
<!-- 22 -->
<!-- name: &quot;Net id&quot;, typeName: &quot;&quot;, id: 22, branchId: 0, recurseId: &#45;1, attributes: 256, notes: &quot;&quot; -->
<g id="node22" class="node">
<title>22</title>
<ellipse fill="none" stroke="black" cx="652.31" cy="-558" rx="33.95" ry="18"/>
<text xml:space="preserve" text-anchor="middle" x="652.31" y="-552.95" font-family="Times New Roman,serif" font-size="14.00">Net id</text>
</g>
<!-- 19&#45;&gt;22 -->
<g id="edge21" class="edge">
<title>19&#45;&gt;22</title>
<path fill="none" stroke="black" d="M490.11,-580.54C522.29,-576.04 572.22,-569.06 607.98,-564.06"/>
<polygon fill="black" stroke="black" points="608.14,-567.57 617.56,-562.72 607.17,-560.64 608.14,-567.57"/>
</g>
<!-- 21 -->
<!-- name: &quot;mce::UUID&quot;, typeName: &quot;&quot;, id: 21, branchId: 0, recurseId: &#45;1, attributes: 512, notes: &quot;&quot; -->
<g id="node21" class="node">
<title>21</title>
<ellipse fill="none" stroke="black" cx="1034.12" cy="-612" rx="54.93" ry="18"/>
<text xml:space="preserve" text-anchor="middle" x="1034.12" y="-606.95" font-family="Times New Roman,serif" font-size="14.00">mce::UUID</text>
</g>
<!-- 20&#45;&gt;21 -->
<g id="edge20" class="edge">
<title>20&#45;&gt;21</title>
<path fill="none" stroke="black" d="M713.07,-612C782.38,-612 896.24,-612 967.82,-612"/>
<polygon fill="black" stroke="black" points="967.42,-615.5 977.42,-612 967.42,-608.5 967.42,-615.5"/>
</g>
<!-- 23 -->
<!-- name: &quot;TypedServerNetId&lt;struct RecipeNetIdTag,unsigned int,0&gt;&quot;, typeName: &quot;&quot;, id: 23, branchId: 0, recurseId: &#45;1, attributes: 512, notes: &quot;&quot; -->
<g id="node23" class="node">
<title>23</title>
<ellipse fill="none" stroke="black" cx="1034.12" cy="-558" rx="228.95" ry="18"/>
<text xml:space="preserve" text-anchor="middle" x="1034.12" y="-552.95" font-family="Times New Roman,serif" font-size="14.00">TypedServerNetId&lt;struct RecipeNetIdTag,unsigned int,0&gt;</text>
</g>
<!-- 22&#45;&gt;23 -->
<g id="edge22" class="edge">
<title>22&#45;&gt;23</title>
<path fill="none" stroke="black" d="M686.68,-558C712.69,-558 751.37,-558 793.58,-558"/>
<polygon fill="black" stroke="black" points="793.46,-561.5 803.46,-558 793.46,-554.5 793.46,-561.5"/>
</g>
<!-- 25 -->
<!-- name: &quot;User Data Shapeless Recipe&quot;, typeName: &quot;&quot;, id: 25, branchId: 0, recurseId: &#45;1, attributes: 256, notes: &quot;&quot; -->
<g id="node25" class="node">
<title>25</title>
<ellipse fill="none" stroke="black" cx="652.31" cy="-504" rx="115.33" ry="18"/>
<text xml:space="preserve" text-anchor="middle" x="652.31" y="-498.95" font-family="Times New Roman,serif" font-size="14.00">User Data Shapeless Recipe</text>
</g>
<!-- 24&#45;&gt;25 -->
<g id="edge24" class="edge">
<title>24&#45;&gt;25</title>
<path fill="none" stroke="black" d="M500.6,-504C508.32,-504 516.74,-504 525.5,-504"/>
<polygon fill="black" stroke="black" points="525.26,-507.5 535.26,-504 525.26,-500.5 525.26,-507.5"/>
</g>
<!-- 27 -->
<!-- name: &quot;Net id&quot;, typeName: &quot;&quot;, id: 27, branchId: 0, recurseId: &#45;1, attributes: 256, notes: &quot;&quot; -->
<g id="node27" class="node">
<title>27</title>
<ellipse fill="none" stroke="black" cx="652.31" cy="-450" rx="33.95" ry="18"/>
<text xml:space="preserve" text-anchor="middle" x="652.31" y="-444.95" font-family="Times New Roman,serif" font-size="14.00">Net id</text>
</g>
<!-- 24&#45;&gt;27 -->
<g id="edge26" class="edge">
<title>24&#45;&gt;27</title>
<path fill="none" stroke="black" d="M480.32,-495.56C495.65,-489.89 516.62,-482.47 535.45,-477 559.6,-469.99 586.99,-463.53 609.07,-458.7"/>
<polygon fill="black" stroke="black" points="609.58,-462.17 618.61,-456.64 608.1,-455.33 609.58,-462.17"/>
</g>
<!-- 26 -->
<!-- name: &quot;UserDataShapelessRecipe&quot;, typeName: &quot;&quot;, id: 26, branchId: 0, recurseId: &#45;1, attributes: 512, notes: &quot;&quot; -->
<g id="node26" class="node">
<title>26</title>
<ellipse fill="none" stroke="black" cx="1034.12" cy="-504" rx="107.65" ry="18"/>
<text xml:space="preserve" text-anchor="middle" x="1034.12" y="-498.95" font-family="Times New Roman,serif" font-size="14.00">UserDataShapelessRecipe</text>
</g>
<!-- 25&#45;&gt;26 -->
<g id="edge25" class="edge">
<title>25&#45;&gt;26</title>
<path fill="none" stroke="black" d="M768.04,-504C814.44,-504 867.98,-504 914.75,-504"/>
<polygon fill="black" stroke="black" points="914.65,-507.5 924.65,-504 914.65,-500.5 914.65,-507.5"/>
</g>
<!-- 28 -->
<!-- name: &quot;TypedServerNetId&lt;struct RecipeNetIdTag,unsigned int,0&gt;&quot;, typeName: &quot;&quot;, id: 28, branchId: 0, recurseId: &#45;1, attributes: 512, notes: &quot;&quot; -->
<g id="node28" class="node">
<title>28</title>
<ellipse fill="none" stroke="black" cx="1034.12" cy="-450" rx="228.95" ry="18"/>
<text xml:space="preserve" text-anchor="middle" x="1034.12" y="-444.95" font-family="Times New Roman,serif" font-size="14.00">TypedServerNetId&lt;struct RecipeNetIdTag,unsigned int,0&gt;</text>
</g>
<!-- 27&#45;&gt;28 -->
<g id="edge27" class="edge">
<title>27&#45;&gt;28</title>
<path fill="none" stroke="black" d="M686.68,-450C712.69,-450 751.37,-450 793.58,-450"/>
<polygon fill="black" stroke="black" points="793.46,-453.5 803.46,-450 793.46,-446.5 793.46,-453.5"/>
</g>
<!-- 30 -->
<!-- name: &quot;Shapeless Chemistry Recipe&quot;, typeName: &quot;&quot;, id: 30, branchId: 0, recurseId: &#45;1, attributes: 256, notes: &quot;&quot; -->
<g id="node30" class="node">
<title>30</title>
<ellipse fill="none" stroke="black" cx="652.31" cy="-396" rx="116.86" ry="18"/>
<text xml:space="preserve" text-anchor="middle" x="652.31" y="-390.95" font-family="Times New Roman,serif" font-size="14.00">Shapeless Chemistry Recipe</text>
</g>
<!-- 29&#45;&gt;30 -->
<g id="edge29" class="edge">
<title>29&#45;&gt;30</title>
<path fill="none" stroke="black" d="M500.6,-396C507.85,-396 515.7,-396 523.88,-396"/>
<polygon fill="black" stroke="black" points="523.71,-399.5 533.71,-396 523.71,-392.5 523.71,-399.5"/>
</g>
<!-- 32 -->
<!-- name: &quot;Net id&quot;, typeName: &quot;&quot;, id: 32, branchId: 0, recurseId: &#45;1, attributes: 256, notes: &quot;&quot; -->
<g id="node32" class="node">
<title>32</title>
<ellipse fill="none" stroke="black" cx="652.31" cy="-342" rx="33.95" ry="18"/>
<text xml:space="preserve" text-anchor="middle" x="652.31" y="-336.95" font-family="Times New Roman,serif" font-size="14.00">Net id</text>
</g>
<!-- 29&#45;&gt;32 -->
<g id="edge31" class="edge">
<title>29&#45;&gt;32</title>
<path fill="none" stroke="black" d="M480.32,-387.56C495.65,-381.89 516.62,-374.47 535.45,-369 559.6,-361.99 586.99,-355.53 609.07,-350.7"/>
<polygon fill="black" stroke="black" points="609.58,-354.17 618.61,-348.64 608.1,-347.33 609.58,-354.17"/>
</g>
<!-- 31 -->
<!-- name: &quot;ShapelessChemistryRecipe&quot;, typeName: &quot;&quot;, id: 31, branchId: 0, recurseId: &#45;1, attributes: 512, notes: &quot;&quot; -->
<g id="node31" class="node">
<title>31</title>
<ellipse fill="none" stroke="black" cx="1034.12" cy="-396" rx="111.74" ry="18"/>
<text xml:space="preserve" text-anchor="middle" x="1034.12" y="-390.95" font-family="Times New Roman,serif" font-size="14.00">ShapelessChemistryRecipe</text>
</g>
<!-- 30&#45;&gt;31 -->
<g id="edge30" class="edge">
<title>30&#45;&gt;31</title>
<path fill="none" stroke="black" d="M769.59,-396C814.32,-396 865.51,-396 910.8,-396"/>
<polygon fill="black" stroke="black" points="910.67,-399.5 920.67,-396 910.67,-392.5 910.67,-399.5"/>
</g>
<!-- 33 -->
<!-- name: &quot;TypedServerNetId&lt;struct RecipeNetIdTag,unsigned int,0&gt;&quot;, typeName: &quot;&quot;, id: 33, branchId: 0, recurseId: &#45;1, attributes: 512, notes: &quot;&quot; -->
<g id="node33" class="node">
<title>33</title>
<ellipse fill="none" stroke="black" cx="1034.12" cy="-342" rx="228.95" ry="18"/>
<text xml:space="preserve" text-anchor="middle" x="1034.12" y="-336.95" font-family="Times New Roman,serif" font-size="14.00">TypedServerNetId&lt;struct RecipeNetIdTag,unsigned int,0&gt;</text>
</g>
<!-- 32&#45;&gt;33 -->
<g id="edge32" class="edge">
<title>32&#45;&gt;33</title>
<path fill="none" stroke="black" d="M686.68,-342C712.69,-342 751.37,-342 793.58,-342"/>
<polygon fill="black" stroke="black" points="793.46,-345.5 803.46,-342 793.46,-338.5 793.46,-345.5"/>
</g>
<!-- 35 -->
<!-- name: &quot;Shaped Chemistry Recipe&quot;, typeName: &quot;&quot;, id: 35, branchId: 0, recurseId: &#45;1, attributes: 256, notes: &quot;&quot; -->
<g id="node35" class="node">
<title>35</title>
<ellipse fill="none" stroke="black" cx="652.31" cy="-288" rx="107.65" ry="18"/>
<text xml:space="preserve" text-anchor="middle" x="652.31" y="-282.95" font-family="Times New Roman,serif" font-size="14.00">Shaped Chemistry Recipe</text>
</g>
<!-- 34&#45;&gt;35 -->
<g id="edge34" class="edge">
<title>34&#45;&gt;35</title>
<path fill="none" stroke="black" d="M500.6,-288C510.42,-288 521.35,-288 532.71,-288"/>
<polygon fill="black" stroke="black" points="532.68,-291.5 542.68,-288 532.68,-284.5 532.68,-291.5"/>
</g>
<!-- 37 -->
<!-- name: &quot;Net id&quot;, typeName: &quot;&quot;, id: 37, branchId: 0, recurseId: &#45;1, attributes: 256, notes: &quot;&quot; -->
<g id="node37" class="node">
<title>37</title>
<ellipse fill="none" stroke="black" cx="652.31" cy="-234" rx="33.95" ry="18"/>
<text xml:space="preserve" text-anchor="middle" x="652.31" y="-228.95" font-family="Times New Roman,serif" font-size="14.00">Net id</text>
</g>
<!-- 34&#45;&gt;37 -->
<g id="edge36" class="edge">
<title>34&#45;&gt;37</title>
<path fill="none" stroke="black" d="M480.32,-279.56C495.65,-273.89 516.62,-266.47 535.45,-261 559.6,-253.99 586.99,-247.53 609.07,-242.7"/>
<polygon fill="black" stroke="black" points="609.58,-246.17 618.61,-240.64 608.1,-239.33 609.58,-246.17"/>
</g>
<!-- 36 -->
<!-- name: &quot;ShapedChemistryRecipe&quot;, typeName: &quot;&quot;, id: 36, branchId: 0, recurseId: &#45;1, attributes: 512, notes: &quot;&quot; -->
<g id="node36" class="node">
<title>36</title>
<ellipse fill="none" stroke="black" cx="1034.12" cy="-288" rx="102.53" ry="18"/>
<text xml:space="preserve" text-anchor="middle" x="1034.12" y="-282.95" font-family="Times New Roman,serif" font-size="14.00">ShapedChemistryRecipe</text>
</g>
<!-- 35&#45;&gt;36 -->
<g id="edge35" class="edge">
<title>35&#45;&gt;36</title>
<path fill="none" stroke="black" d="M760.37,-288C810.14,-288 869.35,-288 919.86,-288"/>
<polygon fill="black" stroke="black" points="919.65,-291.5 929.65,-288 919.65,-284.5 919.65,-291.5"/>
</g>
<!-- 38 -->
<!-- name: &quot;TypedServerNetId&lt;struct RecipeNetIdTag,unsigned int,0&gt;&quot;, typeName: &quot;&quot;, id: 38, branchId: 0, recurseId: &#45;1, attributes: 512, notes: &quot;&quot; -->
<g id="node38" class="node">
<title>38</title>
<ellipse fill="none" stroke="black" cx="1034.12" cy="-234" rx="228.95" ry="18"/>
<text xml:space="preserve" text-anchor="middle" x="1034.12" y="-228.95" font-family="Times New Roman,serif" font-size="14.00">TypedServerNetId&lt;struct RecipeNetIdTag,unsigned int,0&gt;</text>
</g>
<!-- 37&#45;&gt;38 -->
<g id="edge37" class="edge">
<title>37&#45;&gt;38</title>
<path fill="none" stroke="black" d="M686.68,-234C712.69,-234 751.37,-234 793.58,-234"/>
<polygon fill="black" stroke="black" points="793.46,-237.5 803.46,-234 793.46,-230.5 793.46,-237.5"/>
</g>
<!-- 40 -->
<!-- name: &quot;Smithing Transform Recipe&quot;, typeName: &quot;&quot;, id: 40, branchId: 0, recurseId: &#45;1, attributes: 256, notes: &quot;&quot; -->
<g id="node40" class="node">
<title>40</title>
<ellipse fill="none" stroke="black" cx="652.31" cy="-180" rx="114.82" ry="18"/>
<text xml:space="preserve" text-anchor="middle" x="652.31" y="-174.95" font-family="Times New Roman,serif" font-size="14.00">Smithing Transform Recipe</text>
</g>
<!-- 39&#45;&gt;40 -->
<g id="edge39" class="edge">
<title>39&#45;&gt;40</title>
<path fill="none" stroke="black" d="M500.6,-180C508.4,-180 516.91,-180 525.77,-180"/>
<polygon fill="black" stroke="black" points="525.65,-183.5 535.65,-180 525.65,-176.5 525.65,-183.5"/>
</g>
<!-- 42 -->
<!-- name: &quot;Net id&quot;, typeName: &quot;&quot;, id: 42, branchId: 0, recurseId: &#45;1, attributes: 256, notes: &quot;&quot; -->
<g id="node42" class="node">
<title>42</title>
<ellipse fill="none" stroke="black" cx="652.31" cy="-126" rx="33.95" ry="18"/>
<text xml:space="preserve" text-anchor="middle" x="652.31" y="-120.95" font-family="Times New Roman,serif" font-size="14.00">Net id</text>
</g>
<!-- 39&#45;&gt;42 -->
<g id="edge41" class="edge">
<title>39&#45;&gt;42</title>
<path fill="none" stroke="black" d="M480.32,-171.56C495.65,-165.89 516.62,-158.47 535.45,-153 559.6,-145.99 586.99,-139.53 609.07,-134.7"/>
<polygon fill="black" stroke="black" points="609.58,-138.17 618.61,-132.64 608.1,-131.33 609.58,-138.17"/>
</g>
<!-- 41 -->
<!-- name: &quot;SmithingTransformRecipe&quot;, typeName: &quot;&quot;, id: 41, branchId: 0, recurseId: &#45;1, attributes: 512, notes: &quot;&quot; -->
<g id="node41" class="node">
<title>41</title>
<ellipse fill="none" stroke="black" cx="1034.12" cy="-180" rx="110.21" ry="18"/>
<text xml:space="preserve" text-anchor="middle" x="1034.12" y="-174.95" font-family="Times New Roman,serif" font-size="14.00">SmithingTransformRecipe</text>
</g>
<!-- 40&#45;&gt;41 -->
<g id="edge40" class="edge">
<title>40&#45;&gt;41</title>
<path fill="none" stroke="black" d="M767.52,-180C813.24,-180 865.95,-180 912.3,-180"/>
<polygon fill="black" stroke="black" points="912.11,-183.5 922.11,-180 912.11,-176.5 912.11,-183.5"/>
</g>
<!-- 43 -->
<!-- name: &quot;TypedServerNetId&lt;struct RecipeNetIdTag,unsigned int,0&gt;&quot;, typeName: &quot;&quot;, id: 43, branchId: 0, recurseId: &#45;1, attributes: 512, notes: &quot;&quot; -->
<g id="node43" class="node">
<title>43</title>
<ellipse fill="none" stroke="black" cx="1034.12" cy="-126" rx="228.95" ry="18"/>
<text xml:space="preserve" text-anchor="middle" x="1034.12" y="-120.95" font-family="Times New Roman,serif" font-size="14.00">TypedServerNetId&lt;struct RecipeNetIdTag,unsigned int,0&gt;</text>
</g>
<!-- 42&#45;&gt;43 -->
<g id="edge42" class="edge">
<title>42&#45;&gt;43</title>
<path fill="none" stroke="black" d="M686.68,-126C712.69,-126 751.37,-126 793.58,-126"/>
<polygon fill="black" stroke="black" points="793.46,-129.5 803.46,-126 793.46,-122.5 793.46,-129.5"/>
</g>
<!-- 45 -->
<!-- name: &quot;Smithing Trim Recipe&quot;, typeName: &quot;&quot;, id: 45, branchId: 0, recurseId: &#45;1, attributes: 256, notes: &quot;&quot; -->
<g id="node45" class="node">
<title>45</title>
<ellipse fill="none" stroke="black" cx="652.31" cy="-72" rx="94.34" ry="18"/>
<text xml:space="preserve" text-anchor="middle" x="652.31" y="-66.95" font-family="Times New Roman,serif" font-size="14.00">Smithing Trim Recipe</text>
</g>
<!-- 44&#45;&gt;45 -->
<g id="edge44" class="edge">
<title>44&#45;&gt;45</title>
<path fill="none" stroke="black" d="M500.6,-72C514.31,-72 530.17,-72 546.35,-72"/>
<polygon fill="black" stroke="black" points="546.07,-75.5 556.07,-72 546.07,-68.5 546.07,-75.5"/>
</g>
<!-- 47 -->
<!-- name: &quot;Net id&quot;, typeName: &quot;&quot;, id: 47, branchId: 0, recurseId: &#45;1, attributes: 256, notes: &quot;&quot; -->
<g id="node47" class="node">
<title>47</title>
<ellipse fill="none" stroke="black" cx="652.31" cy="-18" rx="33.95" ry="18"/>
<text xml:space="preserve" text-anchor="middle" x="652.31" y="-12.95" font-family="Times New Roman,serif" font-size="14.00">Net id</text>
</g>
<!-- 44&#45;&gt;47 -->
<g id="edge46" class="edge">
<title>44&#45;&gt;47</title>
<path fill="none" stroke="black" d="M480.32,-63.56C495.65,-57.89 516.62,-50.47 535.45,-45 559.6,-37.99 586.99,-31.53 609.07,-26.7"/>
<polygon fill="black" stroke="black" points="609.58,-30.17 618.61,-24.64 608.1,-23.33 609.58,-30.17"/>
</g>
<!-- 46 -->
<!-- name: &quot;SmithingTrimRecipe&quot;, typeName: &quot;&quot;, id: 46, branchId: 0, recurseId: &#45;1, attributes: 512, notes: &quot;&quot; -->
<g id="node46" class="node">
<title>46</title>
<ellipse fill="none" stroke="black" cx="1034.12" cy="-72" rx="89.74" ry="18"/>
<text xml:space="preserve" text-anchor="middle" x="1034.12" y="-66.95" font-family="Times New Roman,serif" font-size="14.00">SmithingTrimRecipe</text>
</g>
<!-- 45&#45;&gt;46 -->
<g id="edge45" class="edge">
<title>45&#45;&gt;46</title>
<path fill="none" stroke="black" d="M746.71,-72C803.13,-72 875.03,-72 932.68,-72"/>
<polygon fill="black" stroke="black" points="932.49,-75.5 942.49,-72 932.49,-68.5 932.49,-75.5"/>
</g>
<!-- 48 -->
<!-- name: &quot;TypedServerNetId&lt;struct RecipeNetIdTag,unsigned int,0&gt;&quot;, typeName: &quot;&quot;, id: 48, branchId: 0, recurseId: &#45;1, attributes: 512, notes: &quot;&quot; -->
<g id="node48" class="node">
<title>48</title>
<ellipse fill="none" stroke="black" cx="1034.12" cy="-18" rx="228.95" ry="18"/>
<text xml:space="preserve" text-anchor="middle" x="1034.12" y="-12.95" font-family="Times New Roman,serif" font-size="14.00">TypedServerNetId&lt;struct RecipeNetIdTag,unsigned int,0&gt;</text>
</g>
<!-- 47&#45;&gt;48 -->
<g id="edge47" class="edge">
<title>47&#45;&gt;48</title>
<path fill="none" stroke="black" d="M686.68,-18C712.69,-18 751.37,-18 793.58,-18"/>
<polygon fill="black" stroke="black" points="793.46,-21.5 803.46,-18 793.46,-14.5 793.46,-21.5"/>
</g>
</g>
</svg>
