<?xml version="1.0" encoding="UTF-8" standalone="no"?>
<!DOCTYPE svg PUBLIC "-//W3C//DTD SVG 1.1//EN"
 "http://www.w3.org/Graphics/SVG/1.1/DTD/svg11.dtd">
<!-- Generated by graphviz version 2.46.1 (20210213.1702)
 -->
<!-- Title: CraftingDataEntry Pages: 1 -->
<svg width="1256pt" height="1286pt"
 viewBox="0.00 0.00 1255.51 1286.00" xmlns="http://www.w3.org/2000/svg" xmlns:xlink="http://www.w3.org/1999/xlink">
<g id="graph0" class="graph" transform="scale(1 1) rotate(0) translate(4 1282)">
<title>CraftingDataEntry</title>
<polygon fill="white" stroke="transparent" points="-4,4 -4,-1282 1251.51,-1282 1251.51,4 -4,4"/>
<!-- 1 -->
<!-- name: &quot;CraftingDataEntry&quot;, typeName: &quot;&quot;, id: 1, branchId: 0, recurseId: &#45;1, attributes: 0, notes: &quot;&quot; -->
<g id="node1" class="node">
<title>1</title>
<ellipse fill="none" stroke="black" cx="76.04" cy="-612" rx="76.09" ry="18"/>
<text text-anchor="middle" x="76.04" y="-608.3" font-family="Times New Roman,serif" font-size="14.00">CraftingDataEntry</text>
</g>
<!-- 2 -->
<!-- name: &quot;Crafting Type&quot;, typeName: &quot;&quot;, id: 2, branchId: 0, recurseId: &#45;1, attributes: 0, notes: &quot;enumeration: CraftingDataEntryType&quot; -->
<g id="node2" class="node">
<title>2</title>
<ellipse fill="none" stroke="black" cx="284.09" cy="-963" rx="61.99" ry="18"/>
<text text-anchor="middle" x="284.09" y="-959.3" font-family="Times New Roman,serif" font-size="14.00">Crafting Type</text>
</g>
<!-- 1&#45;&gt;2 -->
<g id="edge1" class="edge">
<title>1&#45;&gt;2</title>
<path fill="none" stroke="black" d="M87.54,-629.89C121.3,-687.4 227.17,-867.75 267.38,-936.25"/>
<polygon fill="black" stroke="black" points="264.53,-938.3 272.61,-945.15 270.56,-934.75 264.53,-938.3"/>
</g>
<!-- 4 -->
<!-- name: &quot;Dependency on &#39;Crafting Type&#39;&quot;, typeName: &quot;&quot;, id: 4, branchId: 0, recurseId: &#45;1, attributes: 2, notes: &quot;&quot; -->
<g id="node4" class="node">
<title>4</title>
<polygon fill="none" stroke="black" points="374.09,-603 188.09,-603 188.09,-567 380.09,-567 380.09,-597 374.09,-603"/>
<polyline fill="none" stroke="black" points="374.09,-603 374.09,-597 "/>
<polyline fill="none" stroke="black" points="380.09,-597 374.09,-597 "/>
<text text-anchor="middle" x="284.09" y="-581.3" font-family="Times New Roman,serif" font-size="14.00">Dependency on &#39;Crafting Type&#39;</text>
</g>
<!-- 1&#45;&gt;4 -->
<g id="edge3" class="edge">
<title>1&#45;&gt;4</title>
<path fill="none" stroke="black" d="M143.09,-603.35C154.21,-601.89 166,-600.34 177.83,-598.79"/>
<polygon fill="black" stroke="black" points="178.31,-602.26 187.77,-597.49 177.4,-595.32 178.31,-602.26"/>
</g>
<!-- 3 -->
<!-- name: &quot;varint&quot;, typeName: &quot;&quot;, id: 3, branchId: 0, recurseId: &#45;1, attributes: 512, notes: &quot;&quot; -->
<g id="node3" class="node">
<title>3</title>
<ellipse fill="none" stroke="black" cx="1022.63" cy="-1260" rx="30.59" ry="18"/>
<text text-anchor="middle" x="1022.63" y="-1256.3" font-family="Times New Roman,serif" font-size="14.00">varint</text>
</g>
<!-- 2&#45;&gt;3 -->
<g id="edge2" class="edge">
<title>2&#45;&gt;3</title>
<path fill="none" stroke="black" d="M291.76,-981.1C307.51,-1021.6 350.68,-1120.56 416.09,-1179 458.76,-1217.13 477.44,-1219.18 532.97,-1233 695.65,-1273.5 897.85,-1267.61 982.01,-1262.78"/>
<polygon fill="black" stroke="black" points="982.38,-1266.26 992.15,-1262.17 981.96,-1259.28 982.38,-1266.26"/>
</g>
<!-- 5 -->
<!-- name: &quot;if (0)&quot;, typeName: &quot;&quot;, id: 5, branchId: 0, recurseId: &#45;1, attributes: 4, notes: &quot;&quot; -->
<g id="node5" class="node">
<title>5</title>
<polygon fill="none" stroke="black" points="456.53,-1170 416.14,-1152 456.53,-1134 496.92,-1152 456.53,-1170"/>
<text text-anchor="middle" x="456.53" y="-1148.3" font-family="Times New Roman,serif" font-size="14.00">if (0)</text>
</g>
<!-- 4&#45;&gt;5 -->
<g id="edge4" class="edge">
<title>4&#45;&gt;5</title>
<path fill="none" stroke="black" d="M290.06,-603.26C304.2,-655.26 345.85,-808.58 380.09,-936 396.2,-995.97 394.39,-1012.82 416.09,-1071 423.55,-1091.03 434.29,-1112.75 442.67,-1128.65"/>
<polygon fill="black" stroke="black" points="439.73,-1130.58 447.54,-1137.74 445.9,-1127.27 439.73,-1130.58"/>
</g>
<!-- 10 -->
<!-- name: &quot;if (1)&quot;, typeName: &quot;&quot;, id: 10, branchId: 1, recurseId: &#45;1, attributes: 4, notes: &quot;&quot; -->
<g id="node10" class="node">
<title>10</title>
<polygon fill="none" stroke="black" points="456.53,-1062 416.14,-1044 456.53,-1026 496.92,-1044 456.53,-1062"/>
<text text-anchor="middle" x="456.53" y="-1040.3" font-family="Times New Roman,serif" font-size="14.00">if (1)</text>
</g>
<!-- 4&#45;&gt;10 -->
<g id="edge9" class="edge">
<title>4&#45;&gt;10</title>
<path fill="none" stroke="black" d="M291.87,-603.28C318.47,-674.91 415.66,-936.64 446.25,-1019.01"/>
<polygon fill="black" stroke="black" points="443.04,-1020.41 449.8,-1028.56 449.6,-1017.97 443.04,-1020.41"/>
</g>
<!-- 15 -->
<!-- name: &quot;if (2)&quot;, typeName: &quot;&quot;, id: 15, branchId: 2, recurseId: &#45;1, attributes: 4, notes: &quot;&quot; -->
<g id="node15" class="node">
<title>15</title>
<polygon fill="none" stroke="black" points="456.53,-927 416.14,-909 456.53,-891 496.92,-909 456.53,-927"/>
<text text-anchor="middle" x="456.53" y="-905.3" font-family="Times New Roman,serif" font-size="14.00">if (2)</text>
</g>
<!-- 4&#45;&gt;15 -->
<g id="edge14" class="edge">
<title>4&#45;&gt;15</title>
<path fill="none" stroke="black" d="M294.74,-603.35C323.88,-658.75 410.97,-824.29 443.28,-885.72"/>
<polygon fill="black" stroke="black" points="440.23,-887.43 447.98,-894.65 446.42,-884.17 440.23,-887.43"/>
</g>
<!-- 22 -->
<!-- name: &quot;if (3)&quot;, typeName: &quot;&quot;, id: 22, branchId: 3, recurseId: &#45;1, attributes: 4, notes: &quot;&quot; -->
<g id="node22" class="node">
<title>22</title>
<polygon fill="none" stroke="black" points="456.53,-738 416.14,-720 456.53,-702 496.92,-720 456.53,-738"/>
<text text-anchor="middle" x="456.53" y="-716.3" font-family="Times New Roman,serif" font-size="14.00">if (3)</text>
</g>
<!-- 4&#45;&gt;22 -->
<g id="edge21" class="edge">
<title>4&#45;&gt;22</title>
<path fill="none" stroke="black" d="M308.07,-603.21C340.77,-629.11 400.34,-676.29 432.86,-702.05"/>
<polygon fill="black" stroke="black" points="430.88,-704.94 440.9,-708.41 435.23,-699.46 430.88,-704.94"/>
</g>
<!-- 31 -->
<!-- name: &quot;if (4)&quot;, typeName: &quot;&quot;, id: 31, branchId: 4, recurseId: &#45;1, attributes: 4, notes: &quot;&quot; -->
<g id="node31" class="node">
<title>31</title>
<polygon fill="none" stroke="black" points="456.53,-603 416.14,-585 456.53,-567 496.92,-585 456.53,-603"/>
<text text-anchor="middle" x="456.53" y="-581.3" font-family="Times New Roman,serif" font-size="14.00">if (4)</text>
</g>
<!-- 4&#45;&gt;31 -->
<g id="edge30" class="edge">
<title>4&#45;&gt;31</title>
<path fill="none" stroke="black" d="M380.27,-585C388.97,-585 397.52,-585 405.57,-585"/>
<polygon fill="black" stroke="black" points="405.82,-588.5 415.82,-585 405.82,-581.5 405.82,-588.5"/>
</g>
<!-- 36 -->
<!-- name: &quot;if (5)&quot;, typeName: &quot;&quot;, id: 36, branchId: 5, recurseId: &#45;1, attributes: 4, notes: &quot;&quot; -->
<g id="node36" class="node">
<title>36</title>
<polygon fill="none" stroke="black" points="456.53,-522 416.14,-504 456.53,-486 496.92,-504 456.53,-522"/>
<text text-anchor="middle" x="456.53" y="-500.3" font-family="Times New Roman,serif" font-size="14.00">if (5)</text>
</g>
<!-- 4&#45;&gt;36 -->
<g id="edge35" class="edge">
<title>4&#45;&gt;36</title>
<path fill="none" stroke="black" d="M323.34,-566.82C354.77,-551.88 398.6,-531.06 427.02,-517.55"/>
<polygon fill="black" stroke="black" points="428.85,-520.55 436.38,-513.1 425.85,-514.23 428.85,-520.55"/>
</g>
<!-- 41 -->
<!-- name: &quot;if (6)&quot;, typeName: &quot;&quot;, id: 41, branchId: 6, recurseId: &#45;1, attributes: 4, notes: &quot;&quot; -->
<g id="node41" class="node">
<title>41</title>
<polygon fill="none" stroke="black" points="456.53,-414 416.14,-396 456.53,-378 496.92,-396 456.53,-414"/>
<text text-anchor="middle" x="456.53" y="-392.3" font-family="Times New Roman,serif" font-size="14.00">if (6)</text>
</g>
<!-- 4&#45;&gt;41 -->
<g id="edge40" class="edge">
<title>4&#45;&gt;41</title>
<path fill="none" stroke="black" d="M301.43,-566.88C333.34,-531.49 403.75,-453.41 437.2,-416.33"/>
<polygon fill="black" stroke="black" points="440.02,-418.42 444.12,-408.65 434.82,-413.74 440.02,-418.42"/>
</g>
<!-- 46 -->
<!-- name: &quot;if (7)&quot;, typeName: &quot;&quot;, id: 46, branchId: 7, recurseId: &#45;1, attributes: 4, notes: &quot;&quot; -->
<g id="node46" class="node">
<title>46</title>
<polygon fill="none" stroke="black" points="456.53,-306 416.14,-288 456.53,-270 496.92,-288 456.53,-306"/>
<text text-anchor="middle" x="456.53" y="-284.3" font-family="Times New Roman,serif" font-size="14.00">if (7)</text>
</g>
<!-- 4&#45;&gt;46 -->
<g id="edge45" class="edge">
<title>4&#45;&gt;46</title>
<path fill="none" stroke="black" d="M295.49,-566.87C325.01,-515.44 409.25,-368.64 442.14,-311.33"/>
<polygon fill="black" stroke="black" points="445.37,-312.73 447.32,-302.31 439.3,-309.24 445.37,-312.73"/>
</g>
<!-- 51 -->
<!-- name: &quot;if (8)&quot;, typeName: &quot;&quot;, id: 51, branchId: 8, recurseId: &#45;1, attributes: 4, notes: &quot;&quot; -->
<g id="node51" class="node">
<title>51</title>
<polygon fill="none" stroke="black" points="456.53,-198 416.14,-180 456.53,-162 496.92,-180 456.53,-198"/>
<text text-anchor="middle" x="456.53" y="-176.3" font-family="Times New Roman,serif" font-size="14.00">if (8)</text>
</g>
<!-- 4&#45;&gt;51 -->
<g id="edge50" class="edge">
<title>4&#45;&gt;51</title>
<path fill="none" stroke="black" d="M291.9,-566.9C310.63,-517.45 364.9,-376.02 416.09,-261 424.78,-241.47 435.43,-219.72 443.47,-203.67"/>
<polygon fill="black" stroke="black" points="446.72,-205 448.1,-194.49 440.47,-201.84 446.72,-205"/>
</g>
<!-- 56 -->
<!-- name: &quot;if (9)&quot;, typeName: &quot;&quot;, id: 56, branchId: 9, recurseId: &#45;1, attributes: 4, notes: &quot;&quot; -->
<g id="node56" class="node">
<title>56</title>
<polygon fill="none" stroke="black" points="456.53,-90 416.14,-72 456.53,-54 496.92,-72 456.53,-90"/>
<text text-anchor="middle" x="456.53" y="-68.3" font-family="Times New Roman,serif" font-size="14.00">if (9)</text>
</g>
<!-- 4&#45;&gt;56 -->
<g id="edge55" class="edge">
<title>4&#45;&gt;56</title>
<path fill="none" stroke="black" d="M289.46,-566.96C304.21,-507.03 354.7,-309.5 416.09,-153 423.89,-133.1 434.6,-111.37 442.89,-95.43"/>
<polygon fill="black" stroke="black" points="446.13,-96.8 447.69,-86.32 439.93,-93.53 446.13,-96.8"/>
</g>
<!-- 6 -->
<!-- name: &quot;Shapeless Recipe&quot;, typeName: &quot;&quot;, id: 6, branchId: 0, recurseId: &#45;1, attributes: 256, notes: &quot;&quot; -->
<g id="node6" class="node">
<title>6</title>
<ellipse fill="none" stroke="black" cx="647.36" cy="-1206" rx="74.99" ry="18"/>
<text text-anchor="middle" x="647.36" y="-1202.3" font-family="Times New Roman,serif" font-size="14.00">Shapeless Recipe</text>
</g>
<!-- 5&#45;&gt;6 -->
<g id="edge5" class="edge">
<title>5&#45;&gt;6</title>
<path fill="none" stroke="black" d="M478.78,-1160.31C493.79,-1166.01 514.44,-1173.49 532.97,-1179 548.47,-1183.6 565.35,-1187.97 581.23,-1191.79"/>
<polygon fill="black" stroke="black" points="580.42,-1195.19 590.96,-1194.09 582.04,-1188.38 580.42,-1195.19"/>
</g>
<!-- 8 -->
<!-- name: &quot;Net id&quot;, typeName: &quot;&quot;, id: 8, branchId: 0, recurseId: &#45;1, attributes: 256, notes: &quot;&quot; -->
<g id="node8" class="node">
<title>8</title>
<ellipse fill="none" stroke="black" cx="647.36" cy="-1152" rx="32.49" ry="18"/>
<text text-anchor="middle" x="647.36" y="-1148.3" font-family="Times New Roman,serif" font-size="14.00">Net id</text>
</g>
<!-- 5&#45;&gt;8 -->
<g id="edge7" class="edge">
<title>5&#45;&gt;8</title>
<path fill="none" stroke="black" d="M497.11,-1152C528.5,-1152 572.25,-1152 604.27,-1152"/>
<polygon fill="black" stroke="black" points="604.65,-1155.5 614.65,-1152 604.65,-1148.5 604.65,-1155.5"/>
</g>
<!-- 7 -->
<!-- name: &quot;ShapelessRecipe&quot;, typeName: &quot;&quot;, id: 7, branchId: 0, recurseId: &#45;1, attributes: 512, notes: &quot;&quot; -->
<g id="node7" class="node">
<title>7</title>
<ellipse fill="none" stroke="black" cx="1022.63" cy="-1206" rx="72.29" ry="18"/>
<text text-anchor="middle" x="1022.63" y="-1202.3" font-family="Times New Roman,serif" font-size="14.00">ShapelessRecipe</text>
</g>
<!-- 6&#45;&gt;7 -->
<g id="edge6" class="edge">
<title>6&#45;&gt;7</title>
<path fill="none" stroke="black" d="M722.11,-1206C784.93,-1206 875.09,-1206 940.05,-1206"/>
<polygon fill="black" stroke="black" points="940.26,-1209.5 950.26,-1206 940.26,-1202.5 940.26,-1209.5"/>
</g>
<!-- 9 -->
<!-- name: &quot;TypedServerNetId&lt;struct RecipeNetIdTag,unsigned int,0&gt;&quot;, typeName: &quot;&quot;, id: 9, branchId: 0, recurseId: &#45;1, attributes: 512, notes: &quot;&quot; -->
<g id="node9" class="node">
<title>9</title>
<ellipse fill="none" stroke="black" cx="1022.63" cy="-1152" rx="224.76" ry="18"/>
<text text-anchor="middle" x="1022.63" y="-1148.3" font-family="Times New Roman,serif" font-size="14.00">TypedServerNetId&lt;struct RecipeNetIdTag,unsigned int,0&gt;</text>
</g>
<!-- 8&#45;&gt;9 -->
<g id="edge8" class="edge">
<title>8&#45;&gt;9</title>
<path fill="none" stroke="black" d="M679.87,-1152C705.71,-1152 744.9,-1152 787.64,-1152"/>
<polygon fill="black" stroke="black" points="787.68,-1155.5 797.68,-1152 787.68,-1148.5 787.68,-1155.5"/>
</g>
<!-- 11 -->
<!-- name: &quot;Shaped Recipe&quot;, typeName: &quot;&quot;, id: 11, branchId: 0, recurseId: &#45;1, attributes: 256, notes: &quot;&quot; -->
<g id="node11" class="node">
<title>11</title>
<ellipse fill="none" stroke="black" cx="647.36" cy="-1098" rx="65.79" ry="18"/>
<text text-anchor="middle" x="647.36" y="-1094.3" font-family="Times New Roman,serif" font-size="14.00">Shaped Recipe</text>
</g>
<!-- 10&#45;&gt;11 -->
<g id="edge10" class="edge">
<title>10&#45;&gt;11</title>
<path fill="none" stroke="black" d="M478.78,-1052.31C493.79,-1058.01 514.44,-1065.49 532.97,-1071 549.76,-1075.99 568.15,-1080.68 585.14,-1084.72"/>
<polygon fill="black" stroke="black" points="584.43,-1088.15 594.96,-1087.02 586.02,-1081.33 584.43,-1088.15"/>
</g>
<!-- 13 -->
<!-- name: &quot;Net id&quot;, typeName: &quot;&quot;, id: 13, branchId: 0, recurseId: &#45;1, attributes: 256, notes: &quot;&quot; -->
<g id="node13" class="node">
<title>13</title>
<ellipse fill="none" stroke="black" cx="647.36" cy="-1044" rx="32.49" ry="18"/>
<text text-anchor="middle" x="647.36" y="-1040.3" font-family="Times New Roman,serif" font-size="14.00">Net id</text>
</g>
<!-- 10&#45;&gt;13 -->
<g id="edge12" class="edge">
<title>10&#45;&gt;13</title>
<path fill="none" stroke="black" d="M497.11,-1044C528.5,-1044 572.25,-1044 604.27,-1044"/>
<polygon fill="black" stroke="black" points="604.65,-1047.5 614.65,-1044 604.65,-1040.5 604.65,-1047.5"/>
</g>
<!-- 12 -->
<!-- name: &quot;ShapedRecipe&quot;, typeName: &quot;&quot;, id: 12, branchId: 0, recurseId: &#45;1, attributes: 512, notes: &quot;&quot; -->
<g id="node12" class="node">
<title>12</title>
<ellipse fill="none" stroke="black" cx="1022.63" cy="-1098" rx="63.89" ry="18"/>
<text text-anchor="middle" x="1022.63" y="-1094.3" font-family="Times New Roman,serif" font-size="14.00">ShapedRecipe</text>
</g>
<!-- 11&#45;&gt;12 -->
<g id="edge11" class="edge">
<title>11&#45;&gt;12</title>
<path fill="none" stroke="black" d="M713.38,-1098C779.04,-1098 880.28,-1098 948.65,-1098"/>
<polygon fill="black" stroke="black" points="948.91,-1101.5 958.91,-1098 948.91,-1094.5 948.91,-1101.5"/>
</g>
<!-- 14 -->
<!-- name: &quot;TypedServerNetId&lt;struct RecipeNetIdTag,unsigned int,0&gt;&quot;, typeName: &quot;&quot;, id: 14, branchId: 0, recurseId: &#45;1, attributes: 512, notes: &quot;&quot; -->
<g id="node14" class="node">
<title>14</title>
<ellipse fill="none" stroke="black" cx="1022.63" cy="-1044" rx="224.76" ry="18"/>
<text text-anchor="middle" x="1022.63" y="-1040.3" font-family="Times New Roman,serif" font-size="14.00">TypedServerNetId&lt;struct RecipeNetIdTag,unsigned int,0&gt;</text>
</g>
<!-- 13&#45;&gt;14 -->
<g id="edge13" class="edge">
<title>13&#45;&gt;14</title>
<path fill="none" stroke="black" d="M679.87,-1044C705.71,-1044 744.9,-1044 787.64,-1044"/>
<polygon fill="black" stroke="black" points="787.68,-1047.5 797.68,-1044 787.68,-1040.5 787.68,-1047.5"/>
</g>
<!-- 16 -->
<!-- name: &quot;Item Data&quot;, typeName: &quot;&quot;, id: 16, branchId: 0, recurseId: &#45;1, attributes: 0, notes: &quot;&quot; -->
<g id="node16" class="node">
<title>16</title>
<ellipse fill="none" stroke="black" cx="647.36" cy="-990" rx="46.29" ry="18"/>
<text text-anchor="middle" x="647.36" y="-986.3" font-family="Times New Roman,serif" font-size="14.00">Item Data</text>
</g>
<!-- 15&#45;&gt;16 -->
<g id="edge15" class="edge">
<title>15&#45;&gt;16</title>
<path fill="none" stroke="black" d="M470.71,-920.89C485.03,-933.2 509.08,-952.11 532.97,-963 552.03,-971.68 574.2,-977.75 593.86,-981.91"/>
<polygon fill="black" stroke="black" points="593.39,-985.39 603.88,-983.91 594.76,-978.52 593.39,-985.39"/>
</g>
<!-- 18 -->
<!-- name: &quot;Result Item&quot;, typeName: &quot;&quot;, id: 18, branchId: 0, recurseId: &#45;1, attributes: 256, notes: &quot;&quot; -->
<g id="node18" class="node">
<title>18</title>
<ellipse fill="none" stroke="black" cx="647.36" cy="-936" rx="51.99" ry="18"/>
<text text-anchor="middle" x="647.36" y="-932.3" font-family="Times New Roman,serif" font-size="14.00">Result Item</text>
</g>
<!-- 15&#45;&gt;18 -->
<g id="edge17" class="edge">
<title>15&#45;&gt;18</title>
<path fill="none" stroke="black" d="M487.45,-913.28C514.59,-917.16 555.36,-922.99 588.8,-927.77"/>
<polygon fill="black" stroke="black" points="588.53,-931.27 598.93,-929.22 589.52,-924.34 588.53,-931.27"/>
</g>
<!-- 20 -->
<!-- name: &quot;Recipe Tag&quot;, typeName: &quot;&quot;, id: 20, branchId: 0, recurseId: &#45;1, attributes: 0, notes: &quot;Available ones: crafting_table, cartography_table, stonecutter, furnace, blast_furnace, smoker, campfire&quot; -->
<g id="node20" class="node">
<title>20</title>
<ellipse fill="none" stroke="black" cx="647.36" cy="-882" rx="52.79" ry="18"/>
<text text-anchor="middle" x="647.36" y="-878.3" font-family="Times New Roman,serif" font-size="14.00">Recipe Tag</text>
</g>
<!-- 15&#45;&gt;20 -->
<g id="edge19" class="edge">
<title>15&#45;&gt;20</title>
<path fill="none" stroke="black" d="M487.45,-904.72C514.5,-900.85 555.08,-895.05 588.45,-890.28"/>
<polygon fill="black" stroke="black" points="589.16,-893.72 598.56,-888.83 588.17,-886.79 589.16,-893.72"/>
</g>
<!-- 17 -->
<!-- name: &quot;varint&quot;, typeName: &quot;&quot;, id: 17, branchId: 0, recurseId: &#45;1, attributes: 512, notes: &quot;&quot; -->
<g id="node17" class="node">
<title>17</title>
<ellipse fill="none" stroke="black" cx="1022.63" cy="-990" rx="30.59" ry="18"/>
<text text-anchor="middle" x="1022.63" y="-986.3" font-family="Times New Roman,serif" font-size="14.00">varint</text>
</g>
<!-- 16&#45;&gt;17 -->
<g id="edge16" class="edge">
<title>16&#45;&gt;17</title>
<path fill="none" stroke="black" d="M693.76,-990C767.31,-990 911.34,-990 981.42,-990"/>
<polygon fill="black" stroke="black" points="981.61,-993.5 991.61,-990 981.61,-986.5 981.61,-993.5"/>
</g>
<!-- 19 -->
<!-- name: &quot;NetworkItemInstanceDescriptor&quot;, typeName: &quot;&quot;, id: 19, branchId: 0, recurseId: &#45;1, attributes: 512, notes: &quot;&quot; -->
<g id="node19" class="node">
<title>19</title>
<ellipse fill="none" stroke="black" cx="1022.63" cy="-936" rx="126.98" ry="18"/>
<text text-anchor="middle" x="1022.63" y="-932.3" font-family="Times New Roman,serif" font-size="14.00">NetworkItemInstanceDescriptor</text>
</g>
<!-- 18&#45;&gt;19 -->
<g id="edge18" class="edge">
<title>18&#45;&gt;19</title>
<path fill="none" stroke="black" d="M699.48,-936C747.24,-936 820.69,-936 885.4,-936"/>
<polygon fill="black" stroke="black" points="885.71,-939.5 895.71,-936 885.71,-932.5 885.71,-939.5"/>
</g>
<!-- 21 -->
<!-- name: &quot;string&quot;, typeName: &quot;&quot;, id: 21, branchId: 0, recurseId: &#45;1, attributes: 512, notes: &quot;&quot; -->
<g id="node21" class="node">
<title>21</title>
<ellipse fill="none" stroke="black" cx="1022.63" cy="-882" rx="30.59" ry="18"/>
<text text-anchor="middle" x="1022.63" y="-878.3" font-family="Times New Roman,serif" font-size="14.00">string</text>
</g>
<!-- 20&#45;&gt;21 -->
<g id="edge20" class="edge">
<title>20&#45;&gt;21</title>
<path fill="none" stroke="black" d="M700.26,-882C775.56,-882 913.51,-882 981.54,-882"/>
<polygon fill="black" stroke="black" points="981.83,-885.5 991.83,-882 981.83,-878.5 981.83,-885.5"/>
</g>
<!-- 23 -->
<!-- name: &quot;Item Data&quot;, typeName: &quot;&quot;, id: 23, branchId: 0, recurseId: &#45;1, attributes: 0, notes: &quot;&quot; -->
<g id="node23" class="node">
<title>23</title>
<ellipse fill="none" stroke="black" cx="647.36" cy="-828" rx="46.29" ry="18"/>
<text text-anchor="middle" x="647.36" y="-824.3" font-family="Times New Roman,serif" font-size="14.00">Item Data</text>
</g>
<!-- 22&#45;&gt;23 -->
<g id="edge22" class="edge">
<title>22&#45;&gt;23</title>
<path fill="none" stroke="black" d="M466.46,-733.8C479.05,-752.08 503.74,-783.98 532.97,-801 550.92,-811.45 572.69,-817.86 592.35,-821.79"/>
<polygon fill="black" stroke="black" points="591.93,-825.27 602.4,-823.63 593.19,-818.39 591.93,-825.27"/>
</g>
<!-- 25 -->
<!-- name: &quot;Auxiliary Item Data&quot;, typeName: &quot;&quot;, id: 25, branchId: 0, recurseId: &#45;1, attributes: 0, notes: &quot;&quot; -->
<g id="node25" class="node">
<title>25</title>
<ellipse fill="none" stroke="black" cx="647.36" cy="-774" rx="80.69" ry="18"/>
<text text-anchor="middle" x="647.36" y="-770.3" font-family="Times New Roman,serif" font-size="14.00">Auxiliary Item Data</text>
</g>
<!-- 22&#45;&gt;25 -->
<g id="edge24" class="edge">
<title>22&#45;&gt;25</title>
<path fill="none" stroke="black" d="M478.78,-728.31C493.79,-734.01 514.44,-741.49 532.97,-747 547.69,-751.37 563.65,-755.52 578.81,-759.2"/>
<polygon fill="black" stroke="black" points="578.1,-762.63 588.64,-761.55 579.73,-755.82 578.1,-762.63"/>
</g>
<!-- 27 -->
<!-- name: &quot;Result Item&quot;, typeName: &quot;&quot;, id: 27, branchId: 0, recurseId: &#45;1, attributes: 256, notes: &quot;&quot; -->
<g id="node27" class="node">
<title>27</title>
<ellipse fill="none" stroke="black" cx="647.36" cy="-720" rx="51.99" ry="18"/>
<text text-anchor="middle" x="647.36" y="-716.3" font-family="Times New Roman,serif" font-size="14.00">Result Item</text>
</g>
<!-- 22&#45;&gt;27 -->
<g id="edge26" class="edge">
<title>22&#45;&gt;27</title>
<path fill="none" stroke="black" d="M497.11,-720C522.65,-720 556.39,-720 585.32,-720"/>
<polygon fill="black" stroke="black" points="585.33,-723.5 595.33,-720 585.33,-716.5 585.33,-723.5"/>
</g>
<!-- 29 -->
<!-- name: &quot;Recipe Tag&quot;, typeName: &quot;&quot;, id: 29, branchId: 0, recurseId: &#45;1, attributes: 0, notes: &quot;Available ones: crafting_table, cartography_table, stonecutter, furnace, blast_furnace, smoker, campfire&quot; -->
<g id="node29" class="node">
<title>29</title>
<ellipse fill="none" stroke="black" cx="647.36" cy="-666" rx="52.79" ry="18"/>
<text text-anchor="middle" x="647.36" y="-662.3" font-family="Times New Roman,serif" font-size="14.00">Recipe Tag</text>
</g>
<!-- 22&#45;&gt;29 -->
<g id="edge28" class="edge">
<title>22&#45;&gt;29</title>
<path fill="none" stroke="black" d="M478.78,-711.69C493.79,-705.99 514.44,-698.51 532.97,-693 552.13,-687.31 573.38,-681.99 592.26,-677.61"/>
<polygon fill="black" stroke="black" points="593.21,-680.98 602.18,-675.33 591.65,-674.15 593.21,-680.98"/>
</g>
<!-- 24 -->
<!-- name: &quot;varint&quot;, typeName: &quot;&quot;, id: 24, branchId: 0, recurseId: &#45;1, attributes: 512, notes: &quot;&quot; -->
<g id="node24" class="node">
<title>24</title>
<ellipse fill="none" stroke="black" cx="1022.63" cy="-828" rx="30.59" ry="18"/>
<text text-anchor="middle" x="1022.63" y="-824.3" font-family="Times New Roman,serif" font-size="14.00">varint</text>
</g>
<!-- 23&#45;&gt;24 -->
<g id="edge23" class="edge">
<title>23&#45;&gt;24</title>
<path fill="none" stroke="black" d="M693.76,-828C767.31,-828 911.34,-828 981.42,-828"/>
<polygon fill="black" stroke="black" points="981.61,-831.5 991.61,-828 981.61,-824.5 981.61,-831.5"/>
</g>
<!-- 26 -->
<!-- name: &quot;varint&quot;, typeName: &quot;&quot;, id: 26, branchId: 0, recurseId: &#45;1, attributes: 512, notes: &quot;&quot; -->
<g id="node26" class="node">
<title>26</title>
<ellipse fill="none" stroke="black" cx="1022.63" cy="-774" rx="30.59" ry="18"/>
<text text-anchor="middle" x="1022.63" y="-770.3" font-family="Times New Roman,serif" font-size="14.00">varint</text>
</g>
<!-- 25&#45;&gt;26 -->
<g id="edge25" class="edge">
<title>25&#45;&gt;26</title>
<path fill="none" stroke="black" d="M727.98,-774C805.95,-774 921.55,-774 981.81,-774"/>
<polygon fill="black" stroke="black" points="982.05,-777.5 992.05,-774 982.05,-770.5 982.05,-777.5"/>
</g>
<!-- 28 -->
<!-- name: &quot;NetworkItemInstanceDescriptor&quot;, typeName: &quot;&quot;, id: 28, branchId: 0, recurseId: &#45;1, attributes: 512, notes: &quot;&quot; -->
<g id="node28" class="node">
<title>28</title>
<ellipse fill="none" stroke="black" cx="1022.63" cy="-720" rx="126.98" ry="18"/>
<text text-anchor="middle" x="1022.63" y="-716.3" font-family="Times New Roman,serif" font-size="14.00">NetworkItemInstanceDescriptor</text>
</g>
<!-- 27&#45;&gt;28 -->
<g id="edge27" class="edge">
<title>27&#45;&gt;28</title>
<path fill="none" stroke="black" d="M699.48,-720C747.24,-720 820.69,-720 885.4,-720"/>
<polygon fill="black" stroke="black" points="885.71,-723.5 895.71,-720 885.71,-716.5 885.71,-723.5"/>
</g>
<!-- 30 -->
<!-- name: &quot;string&quot;, typeName: &quot;&quot;, id: 30, branchId: 0, recurseId: &#45;1, attributes: 512, notes: &quot;&quot; -->
<g id="node30" class="node">
<title>30</title>
<ellipse fill="none" stroke="black" cx="1022.63" cy="-666" rx="30.59" ry="18"/>
<text text-anchor="middle" x="1022.63" y="-662.3" font-family="Times New Roman,serif" font-size="14.00">string</text>
</g>
<!-- 29&#45;&gt;30 -->
<g id="edge29" class="edge">
<title>29&#45;&gt;30</title>
<path fill="none" stroke="black" d="M700.26,-666C775.56,-666 913.51,-666 981.54,-666"/>
<polygon fill="black" stroke="black" points="981.83,-669.5 991.83,-666 981.83,-662.5 981.83,-669.5"/>
</g>
<!-- 32 -->
<!-- name: &quot;Multi&#45;Recipe&quot;, typeName: &quot;&quot;, id: 32, branchId: 0, recurseId: &#45;1, attributes: 256, notes: &quot;&quot; -->
<g id="node32" class="node">
<title>32</title>
<ellipse fill="none" stroke="black" cx="647.36" cy="-612" rx="57.69" ry="18"/>
<text text-anchor="middle" x="647.36" y="-608.3" font-family="Times New Roman,serif" font-size="14.00">Multi&#45;Recipe</text>
</g>
<!-- 31&#45;&gt;32 -->
<g id="edge31" class="edge">
<title>31&#45;&gt;32</title>
<path fill="none" stroke="black" d="M487.45,-589.28C513.46,-593 551.98,-598.51 584.59,-603.17"/>
<polygon fill="black" stroke="black" points="584.1,-606.63 594.49,-604.58 585.09,-599.7 584.1,-606.63"/>
</g>
<!-- 34 -->
<!-- name: &quot;Net id&quot;, typeName: &quot;&quot;, id: 34, branchId: 0, recurseId: &#45;1, attributes: 256, notes: &quot;&quot; -->
<g id="node34" class="node">
<title>34</title>
<ellipse fill="none" stroke="black" cx="647.36" cy="-558" rx="32.49" ry="18"/>
<text text-anchor="middle" x="647.36" y="-554.3" font-family="Times New Roman,serif" font-size="14.00">Net id</text>
</g>
<!-- 31&#45;&gt;34 -->
<g id="edge33" class="edge">
<title>31&#45;&gt;34</title>
<path fill="none" stroke="black" d="M487.45,-580.72C519.35,-576.16 570.06,-568.91 605.59,-563.83"/>
<polygon fill="black" stroke="black" points="606.24,-567.27 615.64,-562.39 605.25,-560.34 606.24,-567.27"/>
</g>
<!-- 33 -->
<!-- name: &quot;mce::UUID&quot;, typeName: &quot;&quot;, id: 33, branchId: 0, recurseId: &#45;1, attributes: 512, notes: &quot;&quot; -->
<g id="node33" class="node">
<title>33</title>
<ellipse fill="none" stroke="black" cx="1022.63" cy="-612" rx="51.99" ry="18"/>
<text text-anchor="middle" x="1022.63" y="-608.3" font-family="Times New Roman,serif" font-size="14.00">mce::UUID</text>
</g>
<!-- 32&#45;&gt;33 -->
<g id="edge32" class="edge">
<title>32&#45;&gt;33</title>
<path fill="none" stroke="black" d="M705.46,-612C774.37,-612 889.76,-612 960.45,-612"/>
<polygon fill="black" stroke="black" points="960.54,-615.5 970.54,-612 960.54,-608.5 960.54,-615.5"/>
</g>
<!-- 35 -->
<!-- name: &quot;TypedServerNetId&lt;struct RecipeNetIdTag,unsigned int,0&gt;&quot;, typeName: &quot;&quot;, id: 35, branchId: 0, recurseId: &#45;1, attributes: 512, notes: &quot;&quot; -->
<g id="node35" class="node">
<title>35</title>
<ellipse fill="none" stroke="black" cx="1022.63" cy="-558" rx="224.76" ry="18"/>
<text text-anchor="middle" x="1022.63" y="-554.3" font-family="Times New Roman,serif" font-size="14.00">TypedServerNetId&lt;struct RecipeNetIdTag,unsigned int,0&gt;</text>
</g>
<!-- 34&#45;&gt;35 -->
<g id="edge34" class="edge">
<title>34&#45;&gt;35</title>
<path fill="none" stroke="black" d="M679.87,-558C705.71,-558 744.9,-558 787.64,-558"/>
<polygon fill="black" stroke="black" points="787.68,-561.5 797.68,-558 787.68,-554.5 787.68,-561.5"/>
</g>
<!-- 37 -->
<!-- name: &quot;Shulker Box Recipe&quot;, typeName: &quot;&quot;, id: 37, branchId: 0, recurseId: &#45;1, attributes: 256, notes: &quot;&quot; -->
<g id="node37" class="node">
<title>37</title>
<ellipse fill="none" stroke="black" cx="647.36" cy="-504" rx="83.39" ry="18"/>
<text text-anchor="middle" x="647.36" y="-500.3" font-family="Times New Roman,serif" font-size="14.00">Shulker Box Recipe</text>
</g>
<!-- 36&#45;&gt;37 -->
<g id="edge36" class="edge">
<title>36&#45;&gt;37</title>
<path fill="none" stroke="black" d="M497.11,-504C513.77,-504 533.9,-504 553.92,-504"/>
<polygon fill="black" stroke="black" points="554.04,-507.5 564.04,-504 554.04,-500.5 554.04,-507.5"/>
</g>
<!-- 39 -->
<!-- name: &quot;Net id&quot;, typeName: &quot;&quot;, id: 39, branchId: 0, recurseId: &#45;1, attributes: 256, notes: &quot;&quot; -->
<g id="node39" class="node">
<title>39</title>
<ellipse fill="none" stroke="black" cx="647.36" cy="-450" rx="32.49" ry="18"/>
<text text-anchor="middle" x="647.36" y="-446.3" font-family="Times New Roman,serif" font-size="14.00">Net id</text>
</g>
<!-- 36&#45;&gt;39 -->
<g id="edge38" class="edge">
<title>36&#45;&gt;39</title>
<path fill="none" stroke="black" d="M478.78,-495.69C493.79,-489.99 514.44,-482.51 532.97,-477 557.25,-469.79 584.9,-463.17 606.82,-458.3"/>
<polygon fill="black" stroke="black" points="607.74,-461.68 616.76,-456.11 606.24,-454.84 607.74,-461.68"/>
</g>
<!-- 38 -->
<!-- name: &quot;ShulkerBoxRecipe&quot;, typeName: &quot;&quot;, id: 38, branchId: 0, recurseId: &#45;1, attributes: 512, notes: &quot;&quot; -->
<g id="node38" class="node">
<title>38</title>
<ellipse fill="none" stroke="black" cx="1022.63" cy="-504" rx="78.79" ry="18"/>
<text text-anchor="middle" x="1022.63" y="-500.3" font-family="Times New Roman,serif" font-size="14.00">ShulkerBoxRecipe</text>
</g>
<!-- 37&#45;&gt;38 -->
<g id="edge37" class="edge">
<title>37&#45;&gt;38</title>
<path fill="none" stroke="black" d="M730.74,-504C790.94,-504 872.44,-504 933.86,-504"/>
<polygon fill="black" stroke="black" points="933.93,-507.5 943.93,-504 933.93,-500.5 933.93,-507.5"/>
</g>
<!-- 40 -->
<!-- name: &quot;TypedServerNetId&lt;struct RecipeNetIdTag,unsigned int,0&gt;&quot;, typeName: &quot;&quot;, id: 40, branchId: 0, recurseId: &#45;1, attributes: 512, notes: &quot;&quot; -->
<g id="node40" class="node">
<title>40</title>
<ellipse fill="none" stroke="black" cx="1022.63" cy="-450" rx="224.76" ry="18"/>
<text text-anchor="middle" x="1022.63" y="-446.3" font-family="Times New Roman,serif" font-size="14.00">TypedServerNetId&lt;struct RecipeNetIdTag,unsigned int,0&gt;</text>
</g>
<!-- 39&#45;&gt;40 -->
<g id="edge39" class="edge">
<title>39&#45;&gt;40</title>
<path fill="none" stroke="black" d="M679.87,-450C705.71,-450 744.9,-450 787.64,-450"/>
<polygon fill="black" stroke="black" points="787.68,-453.5 797.68,-450 787.68,-446.5 787.68,-453.5"/>
</g>
<!-- 42 -->
<!-- name: &quot;Shapeless Chemistry Recipe&quot;, typeName: &quot;&quot;, id: 42, branchId: 0, recurseId: &#45;1, attributes: 256, notes: &quot;&quot; -->
<g id="node42" class="node">
<title>42</title>
<ellipse fill="none" stroke="black" cx="647.36" cy="-396" rx="114.28" ry="18"/>
<text text-anchor="middle" x="647.36" y="-392.3" font-family="Times New Roman,serif" font-size="14.00">Shapeless Chemistry Recipe</text>
</g>
<!-- 41&#45;&gt;42 -->
<g id="edge41" class="edge">
<title>41&#45;&gt;42</title>
<path fill="none" stroke="black" d="M497.11,-396C504.89,-396 513.43,-396 522.36,-396"/>
<polygon fill="black" stroke="black" points="522.6,-399.5 532.6,-396 522.6,-392.5 522.6,-399.5"/>
</g>
<!-- 44 -->
<!-- name: &quot;Net id&quot;, typeName: &quot;&quot;, id: 44, branchId: 0, recurseId: &#45;1, attributes: 256, notes: &quot;&quot; -->
<g id="node44" class="node">
<title>44</title>
<ellipse fill="none" stroke="black" cx="647.36" cy="-342" rx="32.49" ry="18"/>
<text text-anchor="middle" x="647.36" y="-338.3" font-family="Times New Roman,serif" font-size="14.00">Net id</text>
</g>
<!-- 41&#45;&gt;44 -->
<g id="edge43" class="edge">
<title>41&#45;&gt;44</title>
<path fill="none" stroke="black" d="M478.78,-387.69C493.79,-381.99 514.44,-374.51 532.97,-369 557.25,-361.79 584.9,-355.17 606.82,-350.3"/>
<polygon fill="black" stroke="black" points="607.74,-353.68 616.76,-348.11 606.24,-346.84 607.74,-353.68"/>
</g>
<!-- 43 -->
<!-- name: &quot;ShapelessChemistryRecipe&quot;, typeName: &quot;&quot;, id: 43, branchId: 0, recurseId: &#45;1, attributes: 512, notes: &quot;&quot; -->
<g id="node43" class="node">
<title>43</title>
<ellipse fill="none" stroke="black" cx="1022.63" cy="-396" rx="109.38" ry="18"/>
<text text-anchor="middle" x="1022.63" y="-392.3" font-family="Times New Roman,serif" font-size="14.00">ShapelessChemistryRecipe</text>
</g>
<!-- 42&#45;&gt;43 -->
<g id="edge42" class="edge">
<title>42&#45;&gt;43</title>
<path fill="none" stroke="black" d="M761.88,-396C806.54,-396 857.85,-396 903,-396"/>
<polygon fill="black" stroke="black" points="903.13,-399.5 913.13,-396 903.13,-392.5 903.13,-399.5"/>
</g>
<!-- 45 -->
<!-- name: &quot;TypedServerNetId&lt;struct RecipeNetIdTag,unsigned int,0&gt;&quot;, typeName: &quot;&quot;, id: 45, branchId: 0, recurseId: &#45;1, attributes: 512, notes: &quot;&quot; -->
<g id="node45" class="node">
<title>45</title>
<ellipse fill="none" stroke="black" cx="1022.63" cy="-342" rx="224.76" ry="18"/>
<text text-anchor="middle" x="1022.63" y="-338.3" font-family="Times New Roman,serif" font-size="14.00">TypedServerNetId&lt;struct RecipeNetIdTag,unsigned int,0&gt;</text>
</g>
<!-- 44&#45;&gt;45 -->
<g id="edge44" class="edge">
<title>44&#45;&gt;45</title>
<path fill="none" stroke="black" d="M679.87,-342C705.71,-342 744.9,-342 787.64,-342"/>
<polygon fill="black" stroke="black" points="787.68,-345.5 797.68,-342 787.68,-338.5 787.68,-345.5"/>
</g>
<!-- 47 -->
<!-- name: &quot;Shaped Chemistry Recipe&quot;, typeName: &quot;&quot;, id: 47, branchId: 0, recurseId: &#45;1, attributes: 256, notes: &quot;&quot; -->
<g id="node47" class="node">
<title>47</title>
<ellipse fill="none" stroke="black" cx="647.36" cy="-288" rx="105.08" ry="18"/>
<text text-anchor="middle" x="647.36" y="-284.3" font-family="Times New Roman,serif" font-size="14.00">Shaped Chemistry Recipe</text>
</g>
<!-- 46&#45;&gt;47 -->
<g id="edge46" class="edge">
<title>46&#45;&gt;47</title>
<path fill="none" stroke="black" d="M497.11,-288C507.51,-288 519.26,-288 531.49,-288"/>
<polygon fill="black" stroke="black" points="531.85,-291.5 541.85,-288 531.85,-284.5 531.85,-291.5"/>
</g>
<!-- 49 -->
<!-- name: &quot;Net id&quot;, typeName: &quot;&quot;, id: 49, branchId: 0, recurseId: &#45;1, attributes: 256, notes: &quot;&quot; -->
<g id="node49" class="node">
<title>49</title>
<ellipse fill="none" stroke="black" cx="647.36" cy="-234" rx="32.49" ry="18"/>
<text text-anchor="middle" x="647.36" y="-230.3" font-family="Times New Roman,serif" font-size="14.00">Net id</text>
</g>
<!-- 46&#45;&gt;49 -->
<g id="edge48" class="edge">
<title>46&#45;&gt;49</title>
<path fill="none" stroke="black" d="M478.78,-279.69C493.79,-273.99 514.44,-266.51 532.97,-261 557.25,-253.79 584.9,-247.17 606.82,-242.3"/>
<polygon fill="black" stroke="black" points="607.74,-245.68 616.76,-240.11 606.24,-238.84 607.74,-245.68"/>
</g>
<!-- 48 -->
<!-- name: &quot;ShapedChemistryRecipe&quot;, typeName: &quot;&quot;, id: 48, branchId: 0, recurseId: &#45;1, attributes: 512, notes: &quot;&quot; -->
<g id="node48" class="node">
<title>48</title>
<ellipse fill="none" stroke="black" cx="1022.63" cy="-288" rx="100.98" ry="18"/>
<text text-anchor="middle" x="1022.63" y="-284.3" font-family="Times New Roman,serif" font-size="14.00">ShapedChemistryRecipe</text>
</g>
<!-- 47&#45;&gt;48 -->
<g id="edge47" class="edge">
<title>47&#45;&gt;48</title>
<path fill="none" stroke="black" d="M752.84,-288C802.27,-288 861.31,-288 911.46,-288"/>
<polygon fill="black" stroke="black" points="911.69,-291.5 921.69,-288 911.69,-284.5 911.69,-291.5"/>
</g>
<!-- 50 -->
<!-- name: &quot;TypedServerNetId&lt;struct RecipeNetIdTag,unsigned int,0&gt;&quot;, typeName: &quot;&quot;, id: 50, branchId: 0, recurseId: &#45;1, attributes: 512, notes: &quot;&quot; -->
<g id="node50" class="node">
<title>50</title>
<ellipse fill="none" stroke="black" cx="1022.63" cy="-234" rx="224.76" ry="18"/>
<text text-anchor="middle" x="1022.63" y="-230.3" font-family="Times New Roman,serif" font-size="14.00">TypedServerNetId&lt;struct RecipeNetIdTag,unsigned int,0&gt;</text>
</g>
<!-- 49&#45;&gt;50 -->
<g id="edge49" class="edge">
<title>49&#45;&gt;50</title>
<path fill="none" stroke="black" d="M679.87,-234C705.71,-234 744.9,-234 787.64,-234"/>
<polygon fill="black" stroke="black" points="787.68,-237.5 797.68,-234 787.68,-230.5 787.68,-237.5"/>
</g>
<!-- 52 -->
<!-- name: &quot;Smithing Transform Recipe&quot;, typeName: &quot;&quot;, id: 52, branchId: 0, recurseId: &#45;1, attributes: 256, notes: &quot;&quot; -->
<g id="node52" class="node">
<title>52</title>
<ellipse fill="none" stroke="black" cx="647.36" cy="-180" rx="111.28" ry="18"/>
<text text-anchor="middle" x="647.36" y="-176.3" font-family="Times New Roman,serif" font-size="14.00">Smithing Transform Recipe</text>
</g>
<!-- 51&#45;&gt;52 -->
<g id="edge51" class="edge">
<title>51&#45;&gt;52</title>
<path fill="none" stroke="black" d="M497.11,-180C505.87,-180 515.6,-180 525.76,-180"/>
<polygon fill="black" stroke="black" points="526.05,-183.5 536.05,-180 526.05,-176.5 526.05,-183.5"/>
</g>
<!-- 54 -->
<!-- name: &quot;Net id&quot;, typeName: &quot;&quot;, id: 54, branchId: 0, recurseId: &#45;1, attributes: 256, notes: &quot;&quot; -->
<g id="node54" class="node">
<title>54</title>
<ellipse fill="none" stroke="black" cx="647.36" cy="-126" rx="32.49" ry="18"/>
<text text-anchor="middle" x="647.36" y="-122.3" font-family="Times New Roman,serif" font-size="14.00">Net id</text>
</g>
<!-- 51&#45;&gt;54 -->
<g id="edge53" class="edge">
<title>51&#45;&gt;54</title>
<path fill="none" stroke="black" d="M478.78,-171.69C493.79,-165.99 514.44,-158.51 532.97,-153 557.25,-145.79 584.9,-139.17 606.82,-134.3"/>
<polygon fill="black" stroke="black" points="607.74,-137.68 616.76,-132.11 606.24,-130.84 607.74,-137.68"/>
</g>
<!-- 53 -->
<!-- name: &quot;SmithingTransformRecipe&quot;, typeName: &quot;&quot;, id: 53, branchId: 0, recurseId: &#45;1, attributes: 512, notes: &quot;&quot; -->
<g id="node53" class="node">
<title>53</title>
<ellipse fill="none" stroke="black" cx="1022.63" cy="-180" rx="106.68" ry="18"/>
<text text-anchor="middle" x="1022.63" y="-176.3" font-family="Times New Roman,serif" font-size="14.00">SmithingTransformRecipe</text>
</g>
<!-- 52&#45;&gt;53 -->
<g id="edge52" class="edge">
<title>52&#45;&gt;53</title>
<path fill="none" stroke="black" d="M758.59,-180C804.86,-180 858.71,-180 905.59,-180"/>
<polygon fill="black" stroke="black" points="905.79,-183.5 915.79,-180 905.79,-176.5 905.79,-183.5"/>
</g>
<!-- 55 -->
<!-- name: &quot;TypedServerNetId&lt;struct RecipeNetIdTag,unsigned int,0&gt;&quot;, typeName: &quot;&quot;, id: 55, branchId: 0, recurseId: &#45;1, attributes: 512, notes: &quot;&quot; -->
<g id="node55" class="node">
<title>55</title>
<ellipse fill="none" stroke="black" cx="1022.63" cy="-126" rx="224.76" ry="18"/>
<text text-anchor="middle" x="1022.63" y="-122.3" font-family="Times New Roman,serif" font-size="14.00">TypedServerNetId&lt;struct RecipeNetIdTag,unsigned int,0&gt;</text>
</g>
<!-- 54&#45;&gt;55 -->
<g id="edge54" class="edge">
<title>54&#45;&gt;55</title>
<path fill="none" stroke="black" d="M679.87,-126C705.71,-126 744.9,-126 787.64,-126"/>
<polygon fill="black" stroke="black" points="787.68,-129.5 797.68,-126 787.68,-122.5 787.68,-129.5"/>
</g>
<!-- 57 -->
<!-- name: &quot;Smithing Trim Recipe&quot;, typeName: &quot;&quot;, id: 57, branchId: 0, recurseId: &#45;1, attributes: 256, notes: &quot;&quot; -->
<g id="node57" class="node">
<title>57</title>
<ellipse fill="none" stroke="black" cx="647.36" cy="-72" rx="90.18" ry="18"/>
<text text-anchor="middle" x="647.36" y="-68.3" font-family="Times New Roman,serif" font-size="14.00">Smithing Trim Recipe</text>
</g>
<!-- 56&#45;&gt;57 -->
<g id="edge56" class="edge">
<title>56&#45;&gt;57</title>
<path fill="none" stroke="black" d="M497.11,-72C511.67,-72 528.89,-72 546.36,-72"/>
<polygon fill="black" stroke="black" points="546.66,-75.5 556.66,-72 546.66,-68.5 546.66,-75.5"/>
</g>
<!-- 59 -->
<!-- name: &quot;Net id&quot;, typeName: &quot;&quot;, id: 59, branchId: 0, recurseId: &#45;1, attributes: 256, notes: &quot;&quot; -->
<g id="node59" class="node">
<title>59</title>
<ellipse fill="none" stroke="black" cx="647.36" cy="-18" rx="32.49" ry="18"/>
<text text-anchor="middle" x="647.36" y="-14.3" font-family="Times New Roman,serif" font-size="14.00">Net id</text>
</g>
<!-- 56&#45;&gt;59 -->
<g id="edge58" class="edge">
<title>56&#45;&gt;59</title>
<path fill="none" stroke="black" d="M478.78,-63.69C493.79,-57.99 514.44,-50.51 532.97,-45 557.25,-37.79 584.9,-31.17 606.82,-26.3"/>
<polygon fill="black" stroke="black" points="607.74,-29.68 616.76,-24.11 606.24,-22.84 607.74,-29.68"/>
</g>
<!-- 58 -->
<!-- name: &quot;SmithingTrimRecipe&quot;, typeName: &quot;&quot;, id: 58, branchId: 0, recurseId: &#45;1, attributes: 512, notes: &quot;&quot; -->
<g id="node58" class="node">
<title>58</title>
<ellipse fill="none" stroke="black" cx="1022.63" cy="-72" rx="85.29" ry="18"/>
<text text-anchor="middle" x="1022.63" y="-68.3" font-family="Times New Roman,serif" font-size="14.00">SmithingTrimRecipe</text>
</g>
<!-- 57&#45;&gt;58 -->
<g id="edge57" class="edge">
<title>57&#45;&gt;58</title>
<path fill="none" stroke="black" d="M737.77,-72C794.94,-72 869.01,-72 927.14,-72"/>
<polygon fill="black" stroke="black" points="927.44,-75.5 937.44,-72 927.44,-68.5 927.44,-75.5"/>
</g>
<!-- 60 -->
<!-- name: &quot;TypedServerNetId&lt;struct RecipeNetIdTag,unsigned int,0&gt;&quot;, typeName: &quot;&quot;, id: 60, branchId: 0, recurseId: &#45;1, attributes: 512, notes: &quot;&quot; -->
<g id="node60" class="node">
<title>60</title>
<ellipse fill="none" stroke="black" cx="1022.63" cy="-18" rx="224.76" ry="18"/>
<text text-anchor="middle" x="1022.63" y="-14.3" font-family="Times New Roman,serif" font-size="14.00">TypedServerNetId&lt;struct RecipeNetIdTag,unsigned int,0&gt;</text>
</g>
<!-- 59&#45;&gt;60 -->
<g id="edge59" class="edge">
<title>59&#45;&gt;60</title>
<path fill="none" stroke="black" d="M679.87,-18C705.71,-18 744.9,-18 787.64,-18"/>
<polygon fill="black" stroke="black" points="787.68,-21.5 797.68,-18 787.68,-14.5 787.68,-21.5"/>
</g>
</g>
</svg>
