<?xml version="1.0" encoding="UTF-8" standalone="no"?>
<!DOCTYPE svg PUBLIC "-//W3C//DTD SVG 1.1//EN"
 "http://www.w3.org/Graphics/SVG/1.1/DTD/svg11.dtd">
<!-- Generated by graphviz version 12.2.1 (20241206.2353)
 -->
<!-- Title: CreativeContentPacket Pages: 1 -->
<svg width="1807pt" height="476pt"
 viewBox="0.00 0.00 1807.23 476.00" xmlns="http://www.w3.org/2000/svg" xmlns:xlink="http://www.w3.org/1999/xlink">
<g id="graph0" class="graph" transform="scale(1 1) rotate(0) translate(4 472)">
<title>CreativeContentPacket</title>
<polygon fill="white" stroke="none" points="-4,4 -4,-472 1803.23,-472 1803.23,4 -4,4"/>
<!-- 0 -->
<!-- name: &quot;CreativeContentPacket&quot;, typeName: &quot;&quot;, id: 0, branchId: 145, recurseId: &#45;1, attributes: 0, notes: &quot;&quot; -->
<g id="node1" class="node">
<title>0</title>
<ellipse fill="none" stroke="black" cx="95.88" cy="-355" rx="95.88" ry="18"/>
<text text-anchor="middle" x="95.88" y="-349.95" font-family="Times New Roman,serif" font-size="14.00">CreativeContentPacket</text>
</g>
<!-- 1 -->
<!-- name: &quot;Dependency on &#39;mCreativeItemRegistryForWrite != nullptr&#39;&quot;, typeName: &quot;&quot;, id: 1, branchId: 0, recurseId: &#45;1, attributes: 2, notes: &quot;&quot; -->
<g id="node2" class="node">
<title>1</title>
<polygon fill="none" stroke="black" points="564.76,-373 227.76,-373 227.76,-337 570.76,-337 570.76,-367 564.76,-373"/>
<polyline fill="none" stroke="black" points="564.76,-373 564.76,-367"/>
<polyline fill="none" stroke="black" points="570.76,-367 564.76,-367"/>
<text text-anchor="middle" x="399.26" y="-349.95" font-family="Times New Roman,serif" font-size="14.00">Dependency on &#39;mCreativeItemRegistryForWrite != nullptr&#39;</text>
</g>
<!-- 0&#45;&gt;1 -->
<g id="edge1" class="edge">
<title>0&#45;&gt;1</title>
<path fill="none" stroke="black" d="M192.24,-355C199.91,-355 207.81,-355 215.84,-355"/>
<polygon fill="black" stroke="black" points="215.75,-358.5 225.75,-355 215.75,-351.5 215.75,-358.5"/>
</g>
<!-- 2 -->
<!-- name: &quot;If False&quot;, typeName: &quot;&quot;, id: 2, branchId: 0, recurseId: &#45;1, attributes: 4, notes: &quot;&quot; -->
<g id="node3" class="node">
<title>2</title>
<polygon fill="none" stroke="black" points="662.01,-454 606.76,-436 662.01,-418 717.26,-436 662.01,-454"/>
<text text-anchor="middle" x="662.01" y="-430.95" font-family="Times New Roman,serif" font-size="14.00">If False</text>
</g>
<!-- 1&#45;&gt;2 -->
<g id="edge2" class="edge">
<title>1&#45;&gt;2</title>
<path fill="none" stroke="black" d="M459.75,-373.48C509.42,-388.91 578.82,-410.47 621.78,-423.81"/>
<polygon fill="black" stroke="black" points="620.6,-427.11 631.19,-426.74 622.68,-420.43 620.6,-427.11"/>
</g>
<!-- 4 -->
<!-- name: &quot;If True&quot;, typeName: &quot;&quot;, id: 4, branchId: 1, recurseId: &#45;1, attributes: 4, notes: &quot;&quot; -->
<g id="node5" class="node">
<title>4</title>
<polygon fill="none" stroke="black" points="662.01,-346 610.38,-328 662.01,-310 713.64,-328 662.01,-346"/>
<text text-anchor="middle" x="662.01" y="-322.95" font-family="Times New Roman,serif" font-size="14.00">If True</text>
</g>
<!-- 1&#45;&gt;4 -->
<g id="edge4" class="edge">
<title>1&#45;&gt;4</title>
<path fill="none" stroke="black" d="M570.91,-337.33C584.78,-335.89 597.97,-334.53 609.77,-333.31"/>
<polygon fill="black" stroke="black" points="609.99,-336.8 619.58,-332.29 609.27,-329.84 609.99,-336.8"/>
</g>
<!-- 3 -->
<!-- name: &quot;[No Data]&quot;, typeName: &quot;&quot;, id: 3, branchId: 0, recurseId: &#45;1, attributes: 512, notes: &quot;&quot; -->
<g id="node4" class="node">
<title>3</title>
<ellipse fill="none" stroke="black" cx="1547.25" cy="-450" rx="48.28" ry="18"/>
<text text-anchor="middle" x="1547.25" y="-444.95" font-family="Times New Roman,serif" font-size="14.00">[No Data]</text>
</g>
<!-- 2&#45;&gt;3 -->
<g id="edge3" class="edge">
<title>2&#45;&gt;3</title>
<path fill="none" stroke="black" d="M716.27,-436.84C871.88,-439.31 1325.05,-446.49 1487.47,-449.07"/>
<polygon fill="black" stroke="black" points="1487.09,-452.56 1497.14,-449.22 1487.2,-445.56 1487.09,-452.56"/>
</g>
<!-- 5 -->
<!-- name: &quot;Groups&quot;, typeName: &quot;&quot;, id: 5, branchId: 0, recurseId: &#45;1, attributes: 8, notes: &quot;This is a collection of all groups with and without names. Groups with names show up in the Creative Inventory/Recipe Book with a collapsible icon.&quot; -->
<g id="node6" class="node">
<title>5</title>
<ellipse fill="none" stroke="black" cx="813.82" cy="-328" rx="38.04" ry="18"/>
<text text-anchor="middle" x="813.82" y="-322.95" font-family="Times New Roman,serif" font-size="14.00">Groups</text>
</g>
<!-- 4&#45;&gt;5 -->
<g id="edge5" class="edge">
<title>4&#45;&gt;5</title>
<path fill="none" stroke="black" d="M714.99,-328C731.03,-328 748.64,-328 764.43,-328"/>
<polygon fill="black" stroke="black" points="764.06,-331.5 774.06,-328 764.06,-324.5 764.06,-331.5"/>
</g>
<!-- 15 -->
<!-- name: &quot;Write Entries&quot;, typeName: &quot;&quot;, id: 15, branchId: 0, recurseId: &#45;1, attributes: 8, notes: &quot;&quot; -->
<g id="node16" class="node">
<title>15</title>
<ellipse fill="none" stroke="black" cx="813.82" cy="-180" rx="60.56" ry="18"/>
<text text-anchor="middle" x="813.82" y="-174.95" font-family="Times New Roman,serif" font-size="14.00">Write Entries</text>
</g>
<!-- 4&#45;&gt;15 -->
<g id="edge15" class="edge">
<title>4&#45;&gt;15</title>
<path fill="none" stroke="black" d="M676.57,-314.6C701.56,-289.91 755.26,-236.87 787.28,-205.24"/>
<polygon fill="black" stroke="black" points="789.57,-207.89 794.23,-198.37 784.65,-202.91 789.57,-207.89"/>
</g>
<!-- 6 -->
<!-- name: &quot;List Size&quot;, typeName: &quot;&quot;, id: 6, branchId: 0, recurseId: &#45;1, attributes: 0, notes: &quot;&quot; -->
<g id="node7" class="node">
<title>6</title>
<ellipse fill="none" stroke="black" cx="985.28" cy="-376" rx="43.67" ry="18"/>
<text text-anchor="middle" x="985.28" y="-370.95" font-family="Times New Roman,serif" font-size="14.00">List Size</text>
</g>
<!-- 5&#45;&gt;6 -->
<g id="edge6" class="edge">
<title>5&#45;&gt;6</title>
<path fill="none" stroke="black" d="M847.1,-337.14C872.7,-344.39 908.83,-354.63 937.59,-362.78"/>
<polygon fill="black" stroke="black" points="936.58,-366.13 947.16,-365.48 938.49,-359.39 936.58,-366.13"/>
</g>
<!-- 8 -->
<!-- name: &quot;example element&quot;, typeName: &quot;&quot;, id: 8, branchId: 0, recurseId: &#45;1, attributes: 16, notes: &quot;&quot; -->
<g id="node9" class="node">
<title>8</title>
<ellipse fill="none" stroke="black" stroke-dasharray="1,5" cx="985.28" cy="-301" rx="74.89" ry="18"/>
<text text-anchor="middle" x="985.28" y="-295.95" font-family="Times New Roman,serif" font-size="14.00">example element</text>
</g>
<!-- 5&#45;&gt;8 -->
<g id="edge8" class="edge">
<title>5&#45;&gt;8</title>
<path fill="none" stroke="black" d="M850.35,-322.34C867.95,-319.53 889.89,-316.04 910.89,-312.69"/>
<polygon fill="black" stroke="black" points="911.27,-316.18 920.59,-311.15 910.17,-309.26 911.27,-316.18"/>
</g>
<!-- 7 -->
<!-- name: &quot;unsigned varint&quot;, typeName: &quot;&quot;, id: 7, branchId: 0, recurseId: &#45;1, attributes: 512, notes: &quot;&quot; -->
<g id="node8" class="node">
<title>7</title>
<ellipse fill="none" stroke="black" cx="1547.25" cy="-396" rx="68.24" ry="18"/>
<text text-anchor="middle" x="1547.25" y="-390.95" font-family="Times New Roman,serif" font-size="14.00">unsigned varint</text>
</g>
<!-- 6&#45;&gt;7 -->
<g id="edge7" class="edge">
<title>6&#45;&gt;7</title>
<path fill="none" stroke="black" d="M1029.29,-377.54C1123.32,-380.89 1348.33,-388.93 1468.12,-393.21"/>
<polygon fill="black" stroke="black" points="1467.74,-396.7 1477.86,-393.56 1467.99,-389.7 1467.74,-396.7"/>
</g>
<!-- 9 -->
<!-- name: &quot;Creative Category&quot;, typeName: &quot;&quot;, id: 9, branchId: 0, recurseId: &#45;1, attributes: 0, notes: &quot;&quot; -->
<g id="node10" class="node">
<title>9</title>
<ellipse fill="none" stroke="black" cx="1177.72" cy="-342" rx="78.48" ry="18"/>
<text text-anchor="middle" x="1177.72" y="-336.95" font-family="Times New Roman,serif" font-size="14.00">Creative Category</text>
</g>
<!-- 8&#45;&gt;9 -->
<g id="edge9" class="edge">
<title>8&#45;&gt;9</title>
<path fill="none" stroke="black" d="M1042.13,-313.02C1062.79,-317.47 1086.44,-322.56 1108.1,-327.23"/>
<polygon fill="black" stroke="black" points="1107.23,-330.62 1117.74,-329.3 1108.7,-323.78 1107.23,-330.62"/>
</g>
<!-- 11 -->
<!-- name: &quot;Name of the group&quot;, typeName: &quot;&quot;, id: 11, branchId: 0, recurseId: &#45;1, attributes: 0, notes: &quot;This is localized. Leave empty for an anonymous group (group that doesn&#39;t collapse).&quot; -->
<g id="node12" class="node">
<title>11</title>
<ellipse fill="none" stroke="black" cx="1177.72" cy="-288" rx="81.55" ry="18"/>
<text text-anchor="middle" x="1177.72" y="-282.95" font-family="Times New Roman,serif" font-size="14.00">Name of the group</text>
</g>
<!-- 8&#45;&gt;11 -->
<g id="edge11" class="edge">
<title>8&#45;&gt;11</title>
<path fill="none" stroke="black" d="M1057.74,-296.12C1067.55,-295.45 1077.73,-294.76 1087.81,-294.07"/>
<polygon fill="black" stroke="black" points="1087.88,-297.57 1097.62,-293.4 1087.4,-290.59 1087.88,-297.57"/>
</g>
<!-- 13 -->
<!-- name: &quot;Group Icon Item&quot;, typeName: &quot;NetworkItemInstanceDescriptor&quot;, id: 13, branchId: 0, recurseId: &#45;1, attributes: 256, notes: &quot;Leave empty if there is no name for this group.&quot; -->
<g id="node14" class="node">
<title>13</title>
<ellipse fill="none" stroke="black" cx="1177.72" cy="-234" rx="73.36" ry="18"/>
<text text-anchor="middle" x="1177.72" y="-228.95" font-family="Times New Roman,serif" font-size="14.00">Group Icon Item</text>
</g>
<!-- 8&#45;&gt;13 -->
<g id="edge13" class="edge">
<title>8&#45;&gt;13</title>
<path fill="none" stroke="black" d="M1027.42,-285.74C1048.02,-278.18 1073.37,-268.97 1096.18,-261 1104.5,-258.09 1113.32,-255.07 1121.96,-252.15"/>
<polygon fill="black" stroke="black" points="1122.97,-255.5 1131.33,-248.99 1120.73,-248.87 1122.97,-255.5"/>
</g>
<!-- 10 -->
<!-- name: &quot;int&quot;, typeName: &quot;&quot;, id: 10, branchId: 0, recurseId: &#45;1, attributes: 512, notes: &quot;&quot; -->
<g id="node11" class="node">
<title>10</title>
<ellipse fill="none" stroke="black" cx="1547.25" cy="-342" rx="27" ry="18"/>
<text text-anchor="middle" x="1547.25" y="-336.95" font-family="Times New Roman,serif" font-size="14.00">int</text>
</g>
<!-- 9&#45;&gt;10 -->
<g id="edge10" class="edge">
<title>9&#45;&gt;10</title>
<path fill="none" stroke="black" d="M1256.67,-342C1334.14,-342 1449.68,-342 1508.66,-342"/>
<polygon fill="black" stroke="black" points="1508.5,-345.5 1518.5,-342 1508.5,-338.5 1508.5,-345.5"/>
</g>
<!-- 12 -->
<!-- name: &quot;string&quot;, typeName: &quot;&quot;, id: 12, branchId: 0, recurseId: &#45;1, attributes: 512, notes: &quot;&quot; -->
<g id="node13" class="node">
<title>12</title>
<ellipse fill="none" stroke="black" cx="1547.25" cy="-288" rx="31.9" ry="18"/>
<text text-anchor="middle" x="1547.25" y="-282.95" font-family="Times New Roman,serif" font-size="14.00">string</text>
</g>
<!-- 11&#45;&gt;12 -->
<g id="edge12" class="edge">
<title>11&#45;&gt;12</title>
<path fill="none" stroke="black" d="M1259.38,-288C1334.66,-288 1444.06,-288 1503.66,-288"/>
<polygon fill="black" stroke="black" points="1503.38,-291.5 1513.38,-288 1503.38,-284.5 1503.38,-291.5"/>
</g>
<!-- 14 -->
<!-- name: &quot;NetworkItemInstanceDescriptor&quot;, typeName: &quot;&quot;, id: 14, branchId: 0, recurseId: &#45;1, attributes: 512, notes: &quot;&quot; -->
<g id="node15" class="node">
<title>14</title>
<ellipse fill="none" stroke="black" cx="1547.25" cy="-234" rx="130.17" ry="18"/>
<text text-anchor="middle" x="1547.25" y="-228.95" font-family="Times New Roman,serif" font-size="14.00">NetworkItemInstanceDescriptor</text>
</g>
<!-- 13&#45;&gt;14 -->
<g id="edge14" class="edge">
<title>13&#45;&gt;14</title>
<path fill="none" stroke="black" d="M1251.34,-234C1295.28,-234 1352.82,-234 1405.39,-234"/>
<polygon fill="black" stroke="black" points="1405.37,-237.5 1415.37,-234 1405.37,-230.5 1405.37,-237.5"/>
</g>
<!-- 16 -->
<!-- name: &quot;List Size&quot;, typeName: &quot;&quot;, id: 16, branchId: 0, recurseId: &#45;1, attributes: 0, notes: &quot;&quot; -->
<g id="node17" class="node">
<title>16</title>
<ellipse fill="none" stroke="black" cx="985.28" cy="-180" rx="43.67" ry="18"/>
<text text-anchor="middle" x="985.28" y="-174.95" font-family="Times New Roman,serif" font-size="14.00">List Size</text>
</g>
<!-- 15&#45;&gt;16 -->
<g id="edge16" class="edge">
<title>15&#45;&gt;16</title>
<path fill="none" stroke="black" d="M874.57,-180C892.62,-180 912.34,-180 930.02,-180"/>
<polygon fill="black" stroke="black" points="929.79,-183.5 939.79,-180 929.79,-176.5 929.79,-183.5"/>
</g>
<!-- 18 -->
<!-- name: &quot;example element&quot;, typeName: &quot;&quot;, id: 18, branchId: 0, recurseId: &#45;1, attributes: 16, notes: &quot;&quot; -->
<g id="node19" class="node">
<title>18</title>
<ellipse fill="none" stroke="black" stroke-dasharray="1,5" cx="985.28" cy="-99" rx="74.89" ry="18"/>
<text text-anchor="middle" x="985.28" y="-93.95" font-family="Times New Roman,serif" font-size="14.00">example element</text>
</g>
<!-- 15&#45;&gt;18 -->
<g id="edge18" class="edge">
<title>15&#45;&gt;18</title>
<path fill="none" stroke="black" d="M847.1,-164.57C873.35,-152.02 910.69,-134.18 939.78,-120.27"/>
<polygon fill="black" stroke="black" points="941.21,-123.46 948.73,-115.99 938.2,-117.15 941.21,-123.46"/>
</g>
<!-- 17 -->
<!-- name: &quot;unsigned varint&quot;, typeName: &quot;&quot;, id: 17, branchId: 0, recurseId: &#45;1, attributes: 512, notes: &quot;&quot; -->
<g id="node18" class="node">
<title>17</title>
<ellipse fill="none" stroke="black" cx="1547.25" cy="-180" rx="68.24" ry="18"/>
<text text-anchor="middle" x="1547.25" y="-174.95" font-family="Times New Roman,serif" font-size="14.00">unsigned varint</text>
</g>
<!-- 16&#45;&gt;17 -->
<g id="edge17" class="edge">
<title>16&#45;&gt;17</title>
<path fill="none" stroke="black" d="M1029.29,-180C1123.2,-180 1347.74,-180 1467.64,-180"/>
<polygon fill="black" stroke="black" points="1467.4,-183.5 1477.4,-180 1467.4,-176.5 1467.4,-183.5"/>
</g>
<!-- 19 -->
<!-- name: &quot;Creative Net Id&quot;, typeName: &quot;TypedServerNetId&lt;struct CreativeItemNetIdTag,unsigned int,0&gt;&quot;, id: 19, branchId: 0, recurseId: &#45;1, attributes: 256, notes: &quot;&quot; -->
<g id="node20" class="node">
<title>19</title>
<ellipse fill="none" stroke="black" cx="1177.72" cy="-126" rx="68.24" ry="18"/>
<text text-anchor="middle" x="1177.72" y="-120.95" font-family="Times New Roman,serif" font-size="14.00">Creative Net Id</text>
</g>
<!-- 18&#45;&gt;19 -->
<g id="edge19" class="edge">
<title>18&#45;&gt;19</title>
<path fill="none" stroke="black" d="M1050.76,-108.14C1068.37,-110.64 1087.55,-113.36 1105.51,-115.9"/>
<polygon fill="black" stroke="black" points="1104.92,-119.35 1115.31,-117.29 1105.9,-112.42 1104.92,-119.35"/>
</g>
<!-- 24 -->
<!-- name: &quot;Item Instance&quot;, typeName: &quot;NetworkItemInstanceDescriptor&quot;, id: 24, branchId: 0, recurseId: &#45;1, attributes: 256, notes: &quot;&quot; -->
<g id="node22" class="node">
<title>24</title>
<ellipse fill="none" stroke="black" cx="1177.72" cy="-72" rx="61.59" ry="18"/>
<text text-anchor="middle" x="1177.72" y="-66.95" font-family="Times New Roman,serif" font-size="14.00">Item Instance</text>
</g>
<!-- 18&#45;&gt;24 -->
<g id="edge21" class="edge">
<title>18&#45;&gt;24</title>
<path fill="none" stroke="black" d="M1050.76,-89.86C1069.97,-87.14 1091.05,-84.15 1110.38,-81.41"/>
<polygon fill="black" stroke="black" points="1110.63,-84.91 1120.04,-80.04 1109.64,-77.98 1110.63,-84.91"/>
</g>
<!-- 26 -->
<!-- name: &quot;Group Index&quot;, typeName: &quot;&quot;, id: 26, branchId: 0, recurseId: &#45;1, attributes: 0, notes: &quot;Group Index referring to the group in the list `Groups`.&quot; -->
<g id="node24" class="node">
<title>26</title>
<ellipse fill="none" stroke="black" cx="1177.72" cy="-18" rx="58" ry="18"/>
<text text-anchor="middle" x="1177.72" y="-12.95" font-family="Times New Roman,serif" font-size="14.00">Group Index</text>
</g>
<!-- 18&#45;&gt;26 -->
<g id="edge23" class="edge">
<title>18&#45;&gt;26</title>
<path fill="none" stroke="black" d="M1017.04,-82.51C1038.8,-71.19 1068.85,-56.24 1096.18,-45 1105.29,-41.25 1115.14,-37.62 1124.72,-34.3"/>
<polygon fill="black" stroke="black" points="1125.58,-37.7 1133.92,-31.18 1123.33,-31.07 1125.58,-37.7"/>
</g>
<!-- 23 -->
<!-- name: &quot;TypedServerNetId&lt;struct CreativeItemNetIdTag,unsigned int,0&gt;&quot;, typeName: &quot;&quot;, id: 23, branchId: 0, recurseId: &#45;1, attributes: 512, notes: &quot;&quot; -->
<g id="node21" class="node">
<title>23</title>
<ellipse fill="none" stroke="black" cx="1547.25" cy="-126" rx="251.98" ry="18"/>
<text text-anchor="middle" x="1547.25" y="-120.95" font-family="Times New Roman,serif" font-size="14.00">TypedServerNetId&lt;struct CreativeItemNetIdTag,unsigned int,0&gt;</text>
</g>
<!-- 19&#45;&gt;23 -->
<g id="edge20" class="edge">
<title>19&#45;&gt;23</title>
<path fill="none" stroke="black" d="M1246.13,-126C1257.71,-126 1270.33,-126 1283.63,-126"/>
<polygon fill="black" stroke="black" points="1283.45,-129.5 1293.45,-126 1283.45,-122.5 1283.45,-129.5"/>
</g>
<!-- 25 -->
<!-- name: &quot;NetworkItemInstanceDescriptor&quot;, typeName: &quot;&quot;, id: 25, branchId: 0, recurseId: &#45;1, attributes: 512, notes: &quot;&quot; -->
<g id="node23" class="node">
<title>25</title>
<ellipse fill="none" stroke="black" cx="1547.25" cy="-72" rx="130.17" ry="18"/>
<text text-anchor="middle" x="1547.25" y="-66.95" font-family="Times New Roman,serif" font-size="14.00">NetworkItemInstanceDescriptor</text>
</g>
<!-- 24&#45;&gt;25 -->
<g id="edge22" class="edge">
<title>24&#45;&gt;25</title>
<path fill="none" stroke="black" d="M1239.41,-72C1284.52,-72 1347.94,-72 1405.43,-72"/>
<polygon fill="black" stroke="black" points="1405.32,-75.5 1415.32,-72 1405.32,-68.5 1405.32,-75.5"/>
</g>
<!-- 27 -->
<!-- name: &quot;unsigned varint&quot;, typeName: &quot;&quot;, id: 27, branchId: 0, recurseId: &#45;1, attributes: 512, notes: &quot;&quot; -->
<g id="node25" class="node">
<title>27</title>
<ellipse fill="none" stroke="black" cx="1547.25" cy="-18" rx="68.24" ry="18"/>
<text text-anchor="middle" x="1547.25" y="-12.95" font-family="Times New Roman,serif" font-size="14.00">unsigned varint</text>
</g>
<!-- 26&#45;&gt;27 -->
<g id="edge24" class="edge">
<title>26&#45;&gt;27</title>
<path fill="none" stroke="black" d="M1236.15,-18C1298.3,-18 1397.83,-18 1467.31,-18"/>
<polygon fill="black" stroke="black" points="1467.11,-21.5 1477.11,-18 1467.11,-14.5 1467.11,-21.5"/>
</g>
</g>
</svg>
