<?xml version="1.0" encoding="UTF-8" standalone="no"?>
<!DOCTYPE svg PUBLIC "-//W3C//DTD SVG 1.1//EN"
 "http://www.w3.org/Graphics/SVG/1.1/DTD/svg11.dtd">
<!-- Generated by graphviz version 12.2.0 (20241103.1931)
 -->
<!-- Title: CreativeContentPacket Pages: 1 -->
<svg width="1255pt" height="152pt"
 viewBox="0.00 0.00 1255.12 152.00" xmlns="http://www.w3.org/2000/svg" xmlns:xlink="http://www.w3.org/1999/xlink">
<g id="graph0" class="graph" transform="scale(1 1) rotate(0) translate(4 148)">
<title>CreativeContentPacket</title>
<polygon fill="white" stroke="none" points="-4,4 -4,-148 1251.12,-148 1251.12,4 -4,4"/>
<!-- 0 -->
<!-- name: &quot;CreativeContentPacket&quot;, typeName: &quot;&quot;, id: 0, branchId: 145, recurseId: &#45;1, attributes: 0, notes: &quot;&quot; -->
<g id="node1" class="node">
<title>0</title>
<ellipse fill="none" stroke="black" cx="95.88" cy="-99" rx="95.88" ry="18"/>
<text text-anchor="middle" x="95.88" y="-93.95" font-family="Times New Roman,serif" font-size="14.00">CreativeContentPacket</text>
</g>
<!-- 1 -->
<!-- name: &quot;Write Entries&quot;, typeName: &quot;&quot;, id: 1, branchId: 0, recurseId: &#45;1, attributes: 8, notes: &quot;&quot; -->
<g id="node2" class="node">
<title>1</title>
<ellipse fill="none" stroke="black" cx="288.32" cy="-99" rx="60.56" ry="18"/>
<text text-anchor="middle" x="288.32" y="-93.95" font-family="Times New Roman,serif" font-size="14.00">Write Entries</text>
</g>
<!-- 0&#45;&gt;1 -->
<g id="edge1" class="edge">
<title>0&#45;&gt;1</title>
<path fill="none" stroke="black" d="M192.1,-99C200.16,-99 208.22,-99 216.05,-99"/>
<polygon fill="black" stroke="black" points="215.81,-102.5 225.81,-99 215.81,-95.5 215.81,-102.5"/>
</g>
<!-- 2 -->
<!-- name: &quot;List Size&quot;, typeName: &quot;&quot;, id: 2, branchId: 0, recurseId: &#45;1, attributes: 0, notes: &quot;&quot; -->
<g id="node3" class="node">
<title>2</title>
<ellipse fill="none" stroke="black" cx="459.78" cy="-126" rx="43.67" ry="18"/>
<text text-anchor="middle" x="459.78" y="-120.95" font-family="Times New Roman,serif" font-size="14.00">List Size</text>
</g>
<!-- 1&#45;&gt;2 -->
<g id="edge2" class="edge">
<title>1&#45;&gt;2</title>
<path fill="none" stroke="black" d="M342.47,-107.47C363.1,-110.75 386.64,-114.51 407.12,-117.77"/>
<polygon fill="black" stroke="black" points="406.54,-121.22 416.96,-119.34 407.64,-114.31 406.54,-121.22"/>
</g>
<!-- 4 -->
<!-- name: &quot;example element&quot;, typeName: &quot;&quot;, id: 4, branchId: 0, recurseId: &#45;1, attributes: 16, notes: &quot;&quot; -->
<g id="node5" class="node">
<title>4</title>
<ellipse fill="none" stroke="black" stroke-dasharray="1,5" cx="459.78" cy="-72" rx="74.89" ry="18"/>
<text text-anchor="middle" x="459.78" y="-66.95" font-family="Times New Roman,serif" font-size="14.00">example element</text>
</g>
<!-- 1&#45;&gt;4 -->
<g id="edge4" class="edge">
<title>1&#45;&gt;4</title>
<path fill="none" stroke="black" d="M342.47,-90.53C355.95,-88.38 370.68,-86.04 384.98,-83.76"/>
<polygon fill="black" stroke="black" points="385.51,-87.22 394.83,-82.19 384.41,-80.31 385.51,-87.22"/>
</g>
<!-- 3 -->
<!-- name: &quot;unsigned varint&quot;, typeName: &quot;&quot;, id: 3, branchId: 0, recurseId: &#45;1, attributes: 512, notes: &quot;&quot; -->
<g id="node4" class="node">
<title>3</title>
<ellipse fill="none" stroke="black" cx="995.14" cy="-126" rx="68.24" ry="18"/>
<text text-anchor="middle" x="995.14" y="-120.95" font-family="Times New Roman,serif" font-size="14.00">unsigned varint</text>
</g>
<!-- 2&#45;&gt;3 -->
<g id="edge3" class="edge">
<title>2&#45;&gt;3</title>
<path fill="none" stroke="black" d="M503.53,-126C592.91,-126 800.73,-126 915.13,-126"/>
<polygon fill="black" stroke="black" points="915.06,-129.5 925.06,-126 915.06,-122.5 915.06,-129.5"/>
</g>
<!-- 5 -->
<!-- name: &quot;Creative Net Id&quot;, typeName: &quot;TypedServerNetId&lt;struct CreativeItemNetIdTag,unsigned int,0&gt;&quot;, id: 5, branchId: 0, recurseId: &#45;1, attributes: 256, notes: &quot;&quot; -->
<g id="node6" class="node">
<title>5</title>
<ellipse fill="none" stroke="black" cx="638.92" cy="-72" rx="68.24" ry="18"/>
<text text-anchor="middle" x="638.92" y="-66.95" font-family="Times New Roman,serif" font-size="14.00">Creative Net Id</text>
</g>
<!-- 4&#45;&gt;5 -->
<g id="edge5" class="edge">
<title>4&#45;&gt;5</title>
<path fill="none" stroke="black" d="M535.13,-72C542.96,-72 550.93,-72 558.81,-72"/>
<polygon fill="black" stroke="black" points="558.73,-75.5 568.73,-72 558.73,-68.5 558.73,-75.5"/>
</g>
<!-- 10 -->
<!-- name: &quot;Item Instance&quot;, typeName: &quot;NetworkItemInstanceDescriptor&quot;, id: 10, branchId: 0, recurseId: &#45;1, attributes: 256, notes: &quot;&quot; -->
<g id="node8" class="node">
<title>10</title>
<ellipse fill="none" stroke="black" cx="638.92" cy="-18" rx="61.59" ry="18"/>
<text text-anchor="middle" x="638.92" y="-12.95" font-family="Times New Roman,serif" font-size="14.00">Item Instance</text>
</g>
<!-- 4&#45;&gt;10 -->
<g id="edge7" class="edge">
<title>4&#45;&gt;10</title>
<path fill="none" stroke="black" d="M507.32,-57.81C530.88,-50.63 559.6,-41.88 584.1,-34.41"/>
<polygon fill="black" stroke="black" points="585.03,-37.78 593.58,-31.52 582.99,-31.08 585.03,-37.78"/>
</g>
<!-- 9 -->
<!-- name: &quot;TypedServerNetId&lt;struct CreativeItemNetIdTag,unsigned int,0&gt;&quot;, typeName: &quot;&quot;, id: 9, branchId: 0, recurseId: &#45;1, attributes: 512, notes: &quot;&quot; -->
<g id="node7" class="node">
<title>9</title>
<ellipse fill="none" stroke="black" cx="995.14" cy="-72" rx="251.98" ry="18"/>
<text text-anchor="middle" x="995.14" y="-66.95" font-family="Times New Roman,serif" font-size="14.00">TypedServerNetId&lt;struct CreativeItemNetIdTag,unsigned int,0&gt;</text>
</g>
<!-- 5&#45;&gt;9 -->
<g id="edge6" class="edge">
<title>5&#45;&gt;9</title>
<path fill="none" stroke="black" d="M707.38,-72C715.05,-72 723.18,-72 731.65,-72"/>
<polygon fill="black" stroke="black" points="731.47,-75.5 741.47,-72 731.47,-68.5 731.47,-75.5"/>
</g>
<!-- 11 -->
<!-- name: &quot;NetworkItemInstanceDescriptor&quot;, typeName: &quot;&quot;, id: 11, branchId: 0, recurseId: &#45;1, attributes: 512, notes: &quot;&quot; -->
<g id="node9" class="node">
<title>11</title>
<ellipse fill="none" stroke="black" cx="995.14" cy="-18" rx="130.17" ry="18"/>
<text text-anchor="middle" x="995.14" y="-12.95" font-family="Times New Roman,serif" font-size="14.00">NetworkItemInstanceDescriptor</text>
</g>
<!-- 10&#45;&gt;11 -->
<g id="edge8" class="edge">
<title>10&#45;&gt;11</title>
<path fill="none" stroke="black" d="M700.81,-18C742.82,-18 800.45,-18 853.52,-18"/>
<polygon fill="black" stroke="black" points="853.25,-21.5 863.25,-18 853.25,-14.5 853.25,-21.5"/>
</g>
</g>
</svg>
