<?xml version="1.0" encoding="UTF-8" standalone="no"?>
<!DOCTYPE svg PUBLIC "-//W3C//DTD SVG 1.1//EN"
 "http://www.w3.org/Graphics/SVG/1.1/DTD/svg11.dtd">
<!-- Generated by graphviz version 11.0.0 (20240428.1522)
 -->
<!-- Title: CreativeContentPacket Pages: 1 -->
<svg width="1795pt" height="476pt"
 viewBox="0.00 0.00 1795.07 476.00" xmlns="http://www.w3.org/2000/svg" xmlns:xlink="http://www.w3.org/1999/xlink">
<g id="graph0" class="graph" transform="scale(1 1) rotate(0) translate(4 472)">
<title>CreativeContentPacket</title>
<polygon fill="white" stroke="none" points="-4,4 -4,-472 1791.07,-472 1791.07,4 -4,4"/>
<!-- 0 -->
<!-- name: &quot;CreativeContentPacket&quot;, typeName: &quot;&quot;, id: 0, branchId: 145, recurseId: &#45;1, attributes: 0, notes: &quot;&quot; -->
<g id="node1" class="node">
<title>0</title>
<ellipse fill="none" stroke="black" cx="95.47" cy="-355" rx="95.47" ry="18"/>
<text text-anchor="middle" x="95.47" y="-349.57" font-family="Times New Roman,serif" font-size="14.00">CreativeContentPacket</text>
</g>
<!-- 1 -->
<!-- name: &quot;Dependency on &#39;mCreativeItemRegistryForWrite != nullptr&#39;&quot;, typeName: &quot;&quot;, id: 1, branchId: 0, recurseId: &#45;1, attributes: 2, notes: &quot;&quot; -->
<g id="node2" class="node">
<title>1</title>
<polygon fill="none" stroke="black" points="568.45,-373 226.95,-373 226.95,-337 574.45,-337 574.45,-367 568.45,-373"/>
<polyline fill="none" stroke="black" points="568.45,-373 568.45,-367"/>
<polyline fill="none" stroke="black" points="574.45,-367 568.45,-367"/>
<text text-anchor="middle" x="400.7" y="-349.57" font-family="Times New Roman,serif" font-size="14.00">Dependency on &#39;mCreativeItemRegistryForWrite != nullptr&#39;</text>
</g>
<!-- 0&#45;&gt;1 -->
<g id="edge1" class="edge">
<title>0&#45;&gt;1</title>
<path fill="none" stroke="black" d="M191.17,-355C198.99,-355 207.06,-355 215.25,-355"/>
<polygon fill="black" stroke="black" points="214.99,-358.5 224.99,-355 214.99,-351.5 214.99,-358.5"/>
</g>
<!-- 2 -->
<!-- name: &quot;If False&quot;, typeName: &quot;&quot;, id: 2, branchId: 0, recurseId: &#45;1, attributes: 4, notes: &quot;&quot; -->
<g id="node3" class="node">
<title>2</title>
<polygon fill="none" stroke="black" points="665.02,-454 610.45,-436 665.02,-418 719.6,-436 665.02,-454"/>
<text text-anchor="middle" x="665.02" y="-430.57" font-family="Times New Roman,serif" font-size="14.00">If False</text>
</g>
<!-- 1&#45;&gt;2 -->
<g id="edge2" class="edge">
<title>1&#45;&gt;2</title>
<path fill="none" stroke="black" d="M461.55,-373.48C511.66,-388.95 581.72,-410.59 624.92,-423.93"/>
<polygon fill="black" stroke="black" points="623.79,-427.24 634.38,-426.85 625.85,-420.55 623.79,-427.24"/>
</g>
<!-- 4 -->
<!-- name: &quot;If True&quot;, typeName: &quot;&quot;, id: 4, branchId: 1, recurseId: &#45;1, attributes: 4, notes: &quot;&quot; -->
<g id="node5" class="node">
<title>4</title>
<polygon fill="none" stroke="black" points="665.02,-346 613.27,-328 665.02,-310 716.77,-328 665.02,-346"/>
<text text-anchor="middle" x="665.02" y="-322.57" font-family="Times New Roman,serif" font-size="14.00">If True</text>
</g>
<!-- 1&#45;&gt;4 -->
<g id="edge4" class="edge">
<title>1&#45;&gt;4</title>
<path fill="none" stroke="black" d="M574.85,-337.18C588.47,-335.78 601.42,-334.44 613.01,-333.25"/>
<polygon fill="black" stroke="black" points="613.03,-336.77 622.62,-332.26 612.31,-329.8 613.03,-336.77"/>
</g>
<!-- 3 -->
<!-- name: &quot;[No Data]&quot;, typeName: &quot;&quot;, id: 3, branchId: 0, recurseId: &#45;1, attributes: 512, notes: &quot;&quot; -->
<g id="node4" class="node">
<title>3</title>
<ellipse fill="none" stroke="black" cx="1536.41" cy="-450" rx="47.57" ry="18"/>
<text text-anchor="middle" x="1536.41" y="-444.57" font-family="Times New Roman,serif" font-size="14.00">[No Data]</text>
</g>
<!-- 2&#45;&gt;3 -->
<g id="edge3" class="edge">
<title>2&#45;&gt;3</title>
<path fill="none" stroke="black" d="M718.45,-436.84C871.47,-439.31 1316.79,-446.48 1477.07,-449.06"/>
<polygon fill="black" stroke="black" points="1476.99,-452.56 1487.04,-449.22 1477.1,-445.56 1476.99,-452.56"/>
</g>
<!-- 5 -->
<!-- name: &quot;Groups&quot;, typeName: &quot;&quot;, id: 5, branchId: 0, recurseId: &#45;1, attributes: 8, notes: &quot;This is a collection of all groups with and without names. Groups with names show up in the Creative Inventory/Recipe Book with a collapsible icon.&quot; -->
<g id="node6" class="node">
<title>5</title>
<ellipse fill="none" stroke="black" cx="814.64" cy="-328" rx="39.09" ry="18"/>
<text text-anchor="middle" x="814.64" y="-322.57" font-family="Times New Roman,serif" font-size="14.00">Groups</text>
</g>
<!-- 4&#45;&gt;5 -->
<g id="edge5" class="edge">
<title>4&#45;&gt;5</title>
<path fill="none" stroke="black" d="M718.07,-328C733,-328 749.24,-328 764.02,-328"/>
<polygon fill="black" stroke="black" points="764,-331.5 774,-328 764,-324.5 764,-331.5"/>
</g>
<!-- 15 -->
<!-- name: &quot;Write Entries&quot;, typeName: &quot;&quot;, id: 15, branchId: 0, recurseId: &#45;1, attributes: 8, notes: &quot;&quot; -->
<g id="node16" class="node">
<title>15</title>
<ellipse fill="none" stroke="black" cx="814.64" cy="-180" rx="59.05" ry="18"/>
<text text-anchor="middle" x="814.64" y="-174.57" font-family="Times New Roman,serif" font-size="14.00">Write Entries</text>
</g>
<!-- 4&#45;&gt;15 -->
<g id="edge15" class="edge">
<title>4&#45;&gt;15</title>
<path fill="none" stroke="black" d="M679.38,-314.6C704.01,-289.91 756.92,-236.87 788.47,-205.24"/>
<polygon fill="black" stroke="black" points="790.73,-207.93 795.31,-198.38 785.77,-202.99 790.73,-207.93"/>
</g>
<!-- 6 -->
<!-- name: &quot;List Size&quot;, typeName: &quot;&quot;, id: 6, branchId: 0, recurseId: &#45;1, attributes: 0, notes: &quot;&quot; -->
<g id="node7" class="node">
<title>6</title>
<ellipse fill="none" stroke="black" cx="981.21" cy="-376" rx="42.58" ry="18"/>
<text text-anchor="middle" x="981.21" y="-370.57" font-family="Times New Roman,serif" font-size="14.00">List Size</text>
</g>
<!-- 5&#45;&gt;6 -->
<g id="edge6" class="edge">
<title>5&#45;&gt;6</title>
<path fill="none" stroke="black" d="M848.16,-337.48C872.86,-344.69 907.14,-354.69 934.58,-362.69"/>
<polygon fill="black" stroke="black" points="933.46,-366.01 944.04,-365.45 935.42,-359.29 933.46,-366.01"/>
</g>
<!-- 8 -->
<!-- name: &quot;example element&quot;, typeName: &quot;&quot;, id: 8, branchId: 0, recurseId: &#45;1, attributes: 16, notes: &quot;&quot; -->
<g id="node9" class="node">
<title>8</title>
<ellipse fill="none" stroke="black" stroke-dasharray="1,5" cx="981.21" cy="-301" rx="71.52" ry="18"/>
<text text-anchor="middle" x="981.21" y="-295.57" font-family="Times New Roman,serif" font-size="14.00">example element</text>
</g>
<!-- 5&#45;&gt;8 -->
<g id="edge8" class="edge">
<title>5&#45;&gt;8</title>
<path fill="none" stroke="black" d="M851.76,-322.07C868.61,-319.31 889.27,-315.92 909.06,-312.67"/>
<polygon fill="black" stroke="black" points="909.46,-316.16 918.76,-311.08 908.32,-309.25 909.46,-316.16"/>
</g>
<!-- 7 -->
<!-- name: &quot;unsigned varint&quot;, typeName: &quot;&quot;, id: 7, branchId: 0, recurseId: &#45;1, attributes: 512, notes: &quot;&quot; -->
<g id="node8" class="node">
<title>7</title>
<ellipse fill="none" stroke="black" cx="1536.41" cy="-396" rx="66.53" ry="18"/>
<text text-anchor="middle" x="1536.41" y="-390.57" font-family="Times New Roman,serif" font-size="14.00">unsigned varint</text>
</g>
<!-- 6&#45;&gt;7 -->
<g id="edge7" class="edge">
<title>6&#45;&gt;7</title>
<path fill="none" stroke="black" d="M1023.79,-377.5C1116.2,-380.84 1339.81,-388.93 1458.47,-393.22"/>
<polygon fill="black" stroke="black" points="1458.33,-396.72 1468.45,-393.58 1458.58,-389.72 1458.33,-396.72"/>
</g>
<!-- 9 -->
<!-- name: &quot;Creative Category&quot;, typeName: &quot;&quot;, id: 9, branchId: 0, recurseId: &#45;1, attributes: 0, notes: &quot;&quot; -->
<g id="node10" class="node">
<title>9</title>
<ellipse fill="none" stroke="black" cx="1169.24" cy="-342" rx="77.51" ry="18"/>
<text text-anchor="middle" x="1169.24" y="-336.57" font-family="Times New Roman,serif" font-size="14.00">Creative Category</text>
</g>
<!-- 8&#45;&gt;9 -->
<g id="edge9" class="edge">
<title>8&#45;&gt;9</title>
<path fill="none" stroke="black" d="M1036.27,-312.91C1056.37,-317.34 1079.42,-322.42 1100.59,-327.09"/>
<polygon fill="black" stroke="black" points="1099.79,-330.5 1110.3,-329.23 1101.29,-323.66 1099.79,-330.5"/>
</g>
<!-- 11 -->
<!-- name: &quot;Name of the group&quot;, typeName: &quot;&quot;, id: 11, branchId: 0, recurseId: &#45;1, attributes: 0, notes: &quot;This is localized. Leave empty for an anonymous group (group that doesn&#39;t collapse).&quot; -->
<g id="node12" class="node">
<title>11</title>
<ellipse fill="none" stroke="black" cx="1169.24" cy="-288" rx="80.5" ry="18"/>
<text text-anchor="middle" x="1169.24" y="-282.57" font-family="Times New Roman,serif" font-size="14.00">Name of the group</text>
</g>
<!-- 8&#45;&gt;11 -->
<g id="edge11" class="edge">
<title>8&#45;&gt;11</title>
<path fill="none" stroke="black" d="M1050.69,-296.21C1060.4,-295.54 1070.49,-294.83 1080.51,-294.13"/>
<polygon fill="black" stroke="black" points="1080.51,-297.64 1090.24,-293.45 1080.02,-290.66 1080.51,-297.64"/>
</g>
<!-- 13 -->
<!-- name: &quot;Group Icon Item&quot;, typeName: &quot;NetworkItemInstanceDescriptor&quot;, id: 13, branchId: 0, recurseId: &#45;1, attributes: 256, notes: &quot;Leave empty if there is no name for this group.&quot; -->
<g id="node14" class="node">
<title>13</title>
<ellipse fill="none" stroke="black" cx="1169.24" cy="-234" rx="73.52" ry="18"/>
<text text-anchor="middle" x="1169.24" y="-228.57" font-family="Times New Roman,serif" font-size="14.00">Group Icon Item</text>
</g>
<!-- 8&#45;&gt;13 -->
<g id="edge13" class="edge">
<title>8&#45;&gt;13</title>
<path fill="none" stroke="black" d="M1021.81,-285.79C1041.82,-278.19 1066.51,-268.95 1088.74,-261 1096.75,-258.13 1105.25,-255.17 1113.59,-252.3"/>
<polygon fill="black" stroke="black" points="1114.65,-255.64 1122.98,-249.09 1112.39,-249.02 1114.65,-255.64"/>
</g>
<!-- 10 -->
<!-- name: &quot;int&quot;, typeName: &quot;&quot;, id: 10, branchId: 0, recurseId: &#45;1, attributes: 512, notes: &quot;&quot; -->
<g id="node11" class="node">
<title>10</title>
<ellipse fill="none" stroke="black" cx="1536.41" cy="-342" rx="27" ry="18"/>
<text text-anchor="middle" x="1536.41" y="-336.57" font-family="Times New Roman,serif" font-size="14.00">int</text>
</g>
<!-- 9&#45;&gt;10 -->
<g id="edge10" class="edge">
<title>9&#45;&gt;10</title>
<path fill="none" stroke="black" d="M1247.24,-342C1324.17,-342 1439.21,-342 1497.96,-342"/>
<polygon fill="black" stroke="black" points="1497.76,-345.5 1507.76,-342 1497.76,-338.5 1497.76,-345.5"/>
</g>
<!-- 12 -->
<!-- name: &quot;string&quot;, typeName: &quot;&quot;, id: 12, branchId: 0, recurseId: &#45;1, attributes: 512, notes: &quot;&quot; -->
<g id="node13" class="node">
<title>12</title>
<ellipse fill="none" stroke="black" cx="1536.41" cy="-288" rx="31.1" ry="18"/>
<text text-anchor="middle" x="1536.41" y="-282.57" font-family="Times New Roman,serif" font-size="14.00">string</text>
</g>
<!-- 11&#45;&gt;12 -->
<g id="edge12" class="edge">
<title>11&#45;&gt;12</title>
<path fill="none" stroke="black" d="M1249.93,-288C1324.93,-288 1434.31,-288 1493.54,-288"/>
<polygon fill="black" stroke="black" points="1493.53,-291.5 1503.53,-288 1493.53,-284.5 1493.53,-291.5"/>
</g>
<!-- 14 -->
<!-- name: &quot;NetworkItemInstanceDescriptor&quot;, typeName: &quot;&quot;, id: 14, branchId: 0, recurseId: &#45;1, attributes: 512, notes: &quot;&quot; -->
<g id="node15" class="node">
<title>14</title>
<ellipse fill="none" stroke="black" cx="1536.41" cy="-234" rx="129.41" ry="18"/>
<text text-anchor="middle" x="1536.41" y="-228.57" font-family="Times New Roman,serif" font-size="14.00">NetworkItemInstanceDescriptor</text>
</g>
<!-- 13&#45;&gt;14 -->
<g id="edge14" class="edge">
<title>13&#45;&gt;14</title>
<path fill="none" stroke="black" d="M1242.82,-234C1286.42,-234 1343.36,-234 1395.42,-234"/>
<polygon fill="black" stroke="black" points="1395.27,-237.5 1405.27,-234 1395.27,-230.5 1395.27,-237.5"/>
</g>
<!-- 16 -->
<!-- name: &quot;List Size&quot;, typeName: &quot;&quot;, id: 16, branchId: 0, recurseId: &#45;1, attributes: 0, notes: &quot;&quot; -->
<g id="node17" class="node">
<title>16</title>
<ellipse fill="none" stroke="black" cx="981.21" cy="-180" rx="42.58" ry="18"/>
<text text-anchor="middle" x="981.21" y="-174.57" font-family="Times New Roman,serif" font-size="14.00">List Size</text>
</g>
<!-- 15&#45;&gt;16 -->
<g id="edge16" class="edge">
<title>15&#45;&gt;16</title>
<path fill="none" stroke="black" d="M874.13,-180C891.32,-180 910.02,-180 926.87,-180"/>
<polygon fill="black" stroke="black" points="926.69,-183.5 936.69,-180 926.69,-176.5 926.69,-183.5"/>
</g>
<!-- 18 -->
<!-- name: &quot;example element&quot;, typeName: &quot;&quot;, id: 18, branchId: 0, recurseId: &#45;1, attributes: 16, notes: &quot;&quot; -->
<g id="node19" class="node">
<title>18</title>
<ellipse fill="none" stroke="black" stroke-dasharray="1,5" cx="981.21" cy="-99" rx="71.52" ry="18"/>
<text text-anchor="middle" x="981.21" y="-93.58" font-family="Times New Roman,serif" font-size="14.00">example element</text>
</g>
<!-- 15&#45;&gt;18 -->
<g id="edge18" class="edge">
<title>15&#45;&gt;18</title>
<path fill="none" stroke="black" d="M846.98,-164.57C872.57,-151.98 908.98,-134.06 937.27,-120.13"/>
<polygon fill="black" stroke="black" points="938.51,-123.43 945.94,-115.87 935.42,-117.15 938.51,-123.43"/>
</g>
<!-- 17 -->
<!-- name: &quot;unsigned varint&quot;, typeName: &quot;&quot;, id: 17, branchId: 0, recurseId: &#45;1, attributes: 512, notes: &quot;&quot; -->
<g id="node18" class="node">
<title>17</title>
<ellipse fill="none" stroke="black" cx="1536.41" cy="-180" rx="66.53" ry="18"/>
<text text-anchor="middle" x="1536.41" y="-174.57" font-family="Times New Roman,serif" font-size="14.00">unsigned varint</text>
</g>
<!-- 16&#45;&gt;17 -->
<g id="edge17" class="edge">
<title>16&#45;&gt;17</title>
<path fill="none" stroke="black" d="M1024.25,-180C1116.85,-180 1339.62,-180 1458.16,-180"/>
<polygon fill="black" stroke="black" points="1458.14,-183.5 1468.14,-180 1458.14,-176.5 1458.14,-183.5"/>
</g>
<!-- 19 -->
<!-- name: &quot;Creative Net Id&quot;, typeName: &quot;TypedServerNetId&lt;struct CreativeItemNetIdTag,unsigned int,0&gt;&quot;, id: 19, branchId: 0, recurseId: &#45;1, attributes: 256, notes: &quot;&quot; -->
<g id="node20" class="node">
<title>19</title>
<ellipse fill="none" stroke="black" cx="1169.24" cy="-126" rx="67.03" ry="18"/>
<text text-anchor="middle" x="1169.24" y="-120.58" font-family="Times New Roman,serif" font-size="14.00">Creative Net Id</text>
</g>
<!-- 18&#45;&gt;19 -->
<g id="edge19" class="edge">
<title>18&#45;&gt;19</title>
<path fill="none" stroke="black" d="M1044.16,-107.99C1061.49,-110.51 1080.46,-113.26 1098.22,-115.84"/>
<polygon fill="black" stroke="black" points="1097.51,-119.27 1107.9,-117.24 1098.51,-112.34 1097.51,-119.27"/>
</g>
<!-- 24 -->
<!-- name: &quot;Item Instance&quot;, typeName: &quot;NetworkItemInstanceDescriptor&quot;, id: 24, branchId: 0, recurseId: &#45;1, attributes: 256, notes: &quot;&quot; -->
<g id="node22" class="node">
<title>24</title>
<ellipse fill="none" stroke="black" cx="1169.24" cy="-72" rx="60.54" ry="18"/>
<text text-anchor="middle" x="1169.24" y="-66.58" font-family="Times New Roman,serif" font-size="14.00">Item Instance</text>
</g>
<!-- 18&#45;&gt;24 -->
<g id="edge21" class="edge">
<title>18&#45;&gt;24</title>
<path fill="none" stroke="black" d="M1044.16,-90.01C1062.98,-87.28 1083.71,-84.27 1102.76,-81.5"/>
<polygon fill="black" stroke="black" points="1103.16,-84.98 1112.56,-80.08 1102.16,-78.05 1103.16,-84.98"/>
</g>
<!-- 26 -->
<!-- name: &quot;Group Index&quot;, typeName: &quot;&quot;, id: 26, branchId: 0, recurseId: &#45;1, attributes: 0, notes: &quot;Group Index referring to the group in the list `Groups`.&quot; -->
<g id="node24" class="node">
<title>26</title>
<ellipse fill="none" stroke="black" cx="1169.24" cy="-18" rx="58.55" ry="18"/>
<text text-anchor="middle" x="1169.24" y="-12.57" font-family="Times New Roman,serif" font-size="14.00">Group Index</text>
</g>
<!-- 18&#45;&gt;26 -->
<g id="edge23" class="edge">
<title>18&#45;&gt;26</title>
<path fill="none" stroke="black" d="M1011.98,-82.48C1033.05,-71.14 1062.17,-56.18 1088.74,-45 1097.52,-41.3 1107.01,-37.73 1116.27,-34.46"/>
<polygon fill="black" stroke="black" points="1117.22,-37.84 1125.54,-31.27 1114.94,-31.22 1117.22,-37.84"/>
</g>
<!-- 23 -->
<!-- name: &quot;TypedServerNetId&lt;struct CreativeItemNetIdTag,unsigned int,0&gt;&quot;, typeName: &quot;&quot;, id: 23, branchId: 0, recurseId: &#45;1, attributes: 512, notes: &quot;&quot; -->
<g id="node21" class="node">
<title>23</title>
<ellipse fill="none" stroke="black" cx="1536.41" cy="-126" rx="250.66" ry="18"/>
<text text-anchor="middle" x="1536.41" y="-120.58" font-family="Times New Roman,serif" font-size="14.00">TypedServerNetId&lt;struct CreativeItemNetIdTag,unsigned int,0&gt;</text>
</g>
<!-- 19&#45;&gt;23 -->
<g id="edge20" class="edge">
<title>19&#45;&gt;23</title>
<path fill="none" stroke="black" d="M1236.37,-126C1248.01,-126 1260.74,-126 1274.16,-126"/>
<polygon fill="black" stroke="black" points="1274.09,-129.5 1284.09,-126 1274.09,-122.5 1274.09,-129.5"/>
</g>
<!-- 25 -->
<!-- name: &quot;NetworkItemInstanceDescriptor&quot;, typeName: &quot;&quot;, id: 25, branchId: 0, recurseId: &#45;1, attributes: 512, notes: &quot;&quot; -->
<g id="node23" class="node">
<title>25</title>
<ellipse fill="none" stroke="black" cx="1536.41" cy="-72" rx="129.41" ry="18"/>
<text text-anchor="middle" x="1536.41" y="-66.58" font-family="Times New Roman,serif" font-size="14.00">NetworkItemInstanceDescriptor</text>
</g>
<!-- 24&#45;&gt;25 -->
<g id="edge22" class="edge">
<title>24&#45;&gt;25</title>
<path fill="none" stroke="black" d="M1230.13,-72C1274.9,-72 1337.98,-72 1395.19,-72"/>
<polygon fill="black" stroke="black" points="1395.03,-75.5 1405.03,-72 1395.03,-68.5 1395.03,-75.5"/>
</g>
<!-- 27 -->
<!-- name: &quot;unsigned varint&quot;, typeName: &quot;&quot;, id: 27, branchId: 0, recurseId: &#45;1, attributes: 512, notes: &quot;&quot; -->
<g id="node25" class="node">
<title>27</title>
<ellipse fill="none" stroke="black" cx="1536.41" cy="-18" rx="66.53" ry="18"/>
<text text-anchor="middle" x="1536.41" y="-12.57" font-family="Times New Roman,serif" font-size="14.00">unsigned varint</text>
</g>
<!-- 26&#45;&gt;27 -->
<g id="edge24" class="edge">
<title>26&#45;&gt;27</title>
<path fill="none" stroke="black" d="M1228.1,-18C1290.3,-18 1389.49,-18 1458.28,-18"/>
<polygon fill="black" stroke="black" points="1457.97,-21.5 1467.97,-18 1457.97,-14.5 1457.97,-21.5"/>
</g>
</g>
</svg>
