<?xml version="1.0" encoding="UTF-8" standalone="no"?>
<!DOCTYPE svg PUBLIC "-//W3C//DTD SVG 1.1//EN"
 "http://www.w3.org/Graphics/SVG/1.1/DTD/svg11.dtd">
<!-- Generated by graphviz version 11.0.0 (20240428.1522)
 -->
<!-- Title: CurrentStructureFeaturePacket Pages: 1 -->
<svg width="602pt" height="44pt"
 viewBox="0.00 0.00 601.95 44.00" xmlns="http://www.w3.org/2000/svg" xmlns:xlink="http://www.w3.org/1999/xlink">
<g id="graph0" class="graph" transform="scale(1 1) rotate(0) translate(4 40)">
<title>CurrentStructureFeaturePacket</title>
<polygon fill="white" stroke="none" points="-4,4 -4,-40 597.95,-40 597.95,4 -4,4"/>
<!-- 0 -->
<!-- name: &quot;CurrentStructureFeaturePacket&quot;, typeName: &quot;&quot;, id: 0, branchId: 314, recurseId: &#45;1, attributes: 0, notes: &quot;&quot; -->
<g id="node1" class="node">
<title>0</title>
<ellipse fill="none" stroke="black" cx="124.92" cy="-18" rx="124.92" ry="18"/>
<text text-anchor="middle" x="124.92" y="-12.57" font-family="Times New Roman,serif" font-size="14.00">CurrentStructureFeaturePacket</text>
</g>
<!-- 1 -->
<!-- name: &quot;Current Structure Feature&quot;, typeName: &quot;&quot;, id: 1, branchId: 0, recurseId: &#45;1, attributes: 0, notes: &quot;The identifier of the Structure Feature that the player is currently occupying. If the player is not occupying a structure then this value is an empty string.&quot; -->
<g id="node2" class="node">
<title>1</title>
<ellipse fill="none" stroke="black" cx="390.79" cy="-18" rx="104.96" ry="18"/>
<text text-anchor="middle" x="390.79" y="-12.57" font-family="Times New Roman,serif" font-size="14.00">Current Structure Feature</text>
</g>
<!-- 0&#45;&gt;1 -->
<g id="edge1" class="edge">
<title>0&#45;&gt;1</title>
<path fill="none" stroke="black" d="M250.12,-18C258.21,-18 266.33,-18 274.38,-18"/>
<polygon fill="black" stroke="black" points="274.16,-21.5 284.16,-18 274.16,-14.5 274.16,-21.5"/>
</g>
<!-- 2 -->
<!-- name: &quot;string&quot;, typeName: &quot;&quot;, id: 2, branchId: 0, recurseId: &#45;1, attributes: 512, notes: &quot;&quot; -->
<g id="node3" class="node">
<title>2</title>
<ellipse fill="none" stroke="black" cx="562.85" cy="-18" rx="31.1" ry="18"/>
<text text-anchor="middle" x="562.85" y="-12.57" font-family="Times New Roman,serif" font-size="14.00">string</text>
</g>
<!-- 1&#45;&gt;2 -->
<g id="edge2" class="edge">
<title>1&#45;&gt;2</title>
<path fill="none" stroke="black" d="M496.1,-18C504.49,-18 512.62,-18 520.13,-18"/>
<polygon fill="black" stroke="black" points="519.86,-21.5 529.86,-18 519.86,-14.5 519.86,-21.5"/>
</g>
</g>
</svg>
