<?xml version="1.0" encoding="UTF-8" standalone="no"?>
<!DOCTYPE svg PUBLIC "-//W3C//DTD SVG 1.1//EN"
 "http://www.w3.org/Graphics/SVG/1.1/DTD/svg11.dtd">
<!-- Generated by graphviz version 12.2.0 (20241103.1931)
 -->
<!-- Title: CurrentStructureFeaturePacket Pages: 1 -->
<svg width="605pt" height="44pt"
 viewBox="0.00 0.00 605.12 44.00" xmlns="http://www.w3.org/2000/svg" xmlns:xlink="http://www.w3.org/1999/xlink">
<g id="graph0" class="graph" transform="scale(1 1) rotate(0) translate(4 40)">
<title>CurrentStructureFeaturePacket</title>
<polygon fill="white" stroke="none" points="-4,4 -4,-40 601.12,-40 601.12,4 -4,4"/>
<!-- 0 -->
<!-- name: &quot;CurrentStructureFeaturePacket&quot;, typeName: &quot;&quot;, id: 0, branchId: 314, recurseId: &#45;1, attributes: 0, notes: &quot;&quot; -->
<g id="node1" class="node">
<title>0</title>
<ellipse fill="none" stroke="black" cx="125.05" cy="-18" rx="125.05" ry="18"/>
<text text-anchor="middle" x="125.05" y="-12.95" font-family="Times New Roman,serif" font-size="14.00">CurrentStructureFeaturePacket</text>
</g>
<!-- 1 -->
<!-- name: &quot;Current Structure Feature&quot;, typeName: &quot;&quot;, id: 1, branchId: 0, recurseId: &#45;1, attributes: 0, notes: &quot;The identifier of the Structure Feature that the player is currently occupying. If the player is not occupying a structure then this value is an empty string.&quot; -->
<g id="node2" class="node">
<title>1</title>
<ellipse fill="none" stroke="black" cx="391.71" cy="-18" rx="105.6" ry="18"/>
<text text-anchor="middle" x="391.71" y="-12.95" font-family="Times New Roman,serif" font-size="14.00">Current Structure Feature</text>
</g>
<!-- 0&#45;&gt;1 -->
<g id="edge1" class="edge">
<title>0&#45;&gt;1</title>
<path fill="none" stroke="black" d="M250.24,-18C258.37,-18 266.53,-18 274.61,-18"/>
<polygon fill="black" stroke="black" points="274.46,-21.5 284.46,-18 274.46,-14.5 274.46,-21.5"/>
</g>
<!-- 2 -->
<!-- name: &quot;string&quot;, typeName: &quot;&quot;, id: 2, branchId: 0, recurseId: &#45;1, attributes: 512, notes: &quot;&quot; -->
<g id="node3" class="node">
<title>2</title>
<ellipse fill="none" stroke="black" cx="565.21" cy="-18" rx="31.9" ry="18"/>
<text text-anchor="middle" x="565.21" y="-12.95" font-family="Times New Roman,serif" font-size="14.00">string</text>
</g>
<!-- 1&#45;&gt;2 -->
<g id="edge2" class="edge">
<title>1&#45;&gt;2</title>
<path fill="none" stroke="black" d="M497.41,-18C505.83,-18 514,-18 521.56,-18"/>
<polygon fill="black" stroke="black" points="521.38,-21.5 531.38,-18 521.38,-14.5 521.38,-21.5"/>
</g>
</g>
</svg>
