<?xml version="1.0" encoding="UTF-8" standalone="no"?>
<!DOCTYPE svg PUBLIC "-//W3C//DTD SVG 1.1//EN"
 "http://www.w3.org/Graphics/SVG/1.1/DTD/svg11.dtd">
<!-- Generated by graphviz version 12.2.1 (20241206.2353)
 -->
<!-- Title: DataItem Pages: 1 -->
<svg width="664pt" height="584pt"
 viewBox="0.00 0.00 664.17 584.00" xmlns="http://www.w3.org/2000/svg" xmlns:xlink="http://www.w3.org/1999/xlink">
<g id="graph0" class="graph" transform="scale(1 1) rotate(0) translate(4 580)">
<title>DataItem</title>
<polygon fill="white" stroke="none" points="-4,4 -4,-580 660.17,-580 660.17,4 -4,4"/>
<!-- 1 -->
<!-- name: &quot;DataItem&quot;, typeName: &quot;&quot;, id: 1, branchId: 0, recurseId: &#45;1, attributes: 0, notes: &quot;&quot; -->
<g id="node1" class="node">
<title>1</title>
<ellipse fill="none" stroke="black" cx="45.72" cy="-504" rx="45.72" ry="18"/>
<text text-anchor="middle" x="45.72" y="-498.95" font-family="Times New Roman,serif" font-size="14.00">DataItem</text>
</g>
<!-- 2 -->
<!-- name: &quot;ID&quot;, typeName: &quot;&quot;, id: 2, branchId: 0, recurseId: &#45;1, attributes: 0, notes: &quot;&quot; -->
<g id="node2" class="node">
<title>2</title>
<ellipse fill="none" stroke="black" cx="195.44" cy="-558" rx="27" ry="18"/>
<text text-anchor="middle" x="195.44" y="-552.95" font-family="Times New Roman,serif" font-size="14.00">ID</text>
</g>
<!-- 1&#45;&gt;2 -->
<g id="edge1" class="edge">
<title>1&#45;&gt;2</title>
<path fill="none" stroke="black" d="M80.24,-516.25C104.2,-525.01 136.32,-536.75 160.4,-545.55"/>
<polygon fill="black" stroke="black" points="159.15,-548.83 169.74,-548.97 161.55,-542.25 159.15,-548.83"/>
</g>
<!-- 4 -->
<!-- name: &quot;Type&quot;, typeName: &quot;&quot;, id: 4, branchId: 0, recurseId: &#45;1, attributes: 0, notes: &quot;&quot; -->
<g id="node4" class="node">
<title>4</title>
<ellipse fill="none" stroke="black" cx="195.44" cy="-504" rx="29.34" ry="18"/>
<text text-anchor="middle" x="195.44" y="-498.95" font-family="Times New Roman,serif" font-size="14.00">Type</text>
</g>
<!-- 1&#45;&gt;4 -->
<g id="edge3" class="edge">
<title>1&#45;&gt;4</title>
<path fill="none" stroke="black" d="M91.85,-504C111.8,-504 135.07,-504 154.4,-504"/>
<polygon fill="black" stroke="black" points="154.35,-507.5 164.35,-504 154.35,-500.5 154.35,-507.5"/>
</g>
<!-- 6 -->
<!-- name: &quot;Dependency on &#39;Type&#39;&quot;, typeName: &quot;&quot;, id: 6, branchId: 0, recurseId: &#45;1, attributes: 2, notes: &quot;&quot; -->
<g id="node6" class="node">
<title>6</title>
<polygon fill="none" stroke="black" points="257.44,-279 127.44,-279 127.44,-243 263.44,-243 263.44,-273 257.44,-279"/>
<polyline fill="none" stroke="black" points="257.44,-279 257.44,-273"/>
<polyline fill="none" stroke="black" points="263.44,-273 257.44,-273"/>
<text text-anchor="middle" x="195.44" y="-255.95" font-family="Times New Roman,serif" font-size="14.00">Dependency on &#39;Type&#39;</text>
</g>
<!-- 1&#45;&gt;6 -->
<g id="edge5" class="edge">
<title>1&#45;&gt;6</title>
<path fill="none" stroke="black" d="M57.58,-486.13C83.08,-444.19 146.91,-339.2 177.53,-288.82"/>
<polygon fill="black" stroke="black" points="180.37,-290.88 182.58,-280.52 174.39,-287.25 180.37,-290.88"/>
</g>
<!-- 3 -->
<!-- name: &quot;unsigned varint&quot;, typeName: &quot;&quot;, id: 3, branchId: 0, recurseId: &#45;1, attributes: 512, notes: &quot;&quot; -->
<g id="node3" class="node">
<title>3</title>
<ellipse fill="none" stroke="black" cx="587.93" cy="-558" rx="68.24" ry="18"/>
<text text-anchor="middle" x="587.93" y="-552.95" font-family="Times New Roman,serif" font-size="14.00">unsigned varint</text>
</g>
<!-- 2&#45;&gt;3 -->
<g id="edge2" class="edge">
<title>2&#45;&gt;3</title>
<path fill="none" stroke="black" d="M222.67,-558C280.17,-558 419.26,-558 507.97,-558"/>
<polygon fill="black" stroke="black" points="507.82,-561.5 517.82,-558 507.82,-554.5 507.82,-561.5"/>
</g>
<!-- 5 -->
<!-- name: &quot;unsigned varint&quot;, typeName: &quot;&quot;, id: 5, branchId: 0, recurseId: &#45;1, attributes: 512, notes: &quot;&quot; -->
<g id="node5" class="node">
<title>5</title>
<ellipse fill="none" stroke="black" cx="587.93" cy="-504" rx="68.24" ry="18"/>
<text text-anchor="middle" x="587.93" y="-498.95" font-family="Times New Roman,serif" font-size="14.00">unsigned varint</text>
</g>
<!-- 4&#45;&gt;5 -->
<g id="edge4" class="edge">
<title>4&#45;&gt;5</title>
<path fill="none" stroke="black" d="M225.16,-504C284.07,-504 420.41,-504 507.87,-504"/>
<polygon fill="black" stroke="black" points="507.83,-507.5 517.83,-504 507.83,-500.5 507.83,-507.5"/>
</g>
<!-- 7 -->
<!-- name: &quot;if (0)&quot;, typeName: &quot;&quot;, id: 7, branchId: 0, recurseId: &#45;1, attributes: 4, notes: &quot;&quot; -->
<g id="node7" class="node">
<title>7</title>
<polygon fill="none" stroke="black" points="341.67,-468 299.44,-450 341.67,-432 383.89,-450 341.67,-468"/>
<text text-anchor="middle" x="341.67" y="-444.95" font-family="Times New Roman,serif" font-size="14.00">if (0)</text>
</g>
<!-- 6&#45;&gt;7 -->
<g id="edge6" class="edge">
<title>6&#45;&gt;7</title>
<path fill="none" stroke="black" d="M204.83,-279.27C220.15,-311.23 255.2,-378.16 299.44,-423 303.3,-426.91 307.8,-430.55 312.4,-433.82"/>
<polygon fill="black" stroke="black" points="310.22,-436.57 320.5,-439.13 314.06,-430.72 310.22,-436.57"/>
</g>
<!-- 10 -->
<!-- name: &quot;if (1)&quot;, typeName: &quot;&quot;, id: 10, branchId: 1, recurseId: &#45;1, attributes: 4, notes: &quot;&quot; -->
<g id="node10" class="node">
<title>10</title>
<polygon fill="none" stroke="black" points="341.67,-414 299.44,-396 341.67,-378 383.89,-396 341.67,-414"/>
<text text-anchor="middle" x="341.67" y="-390.95" font-family="Times New Roman,serif" font-size="14.00">if (1)</text>
</g>
<!-- 6&#45;&gt;10 -->
<g id="edge9" class="edge">
<title>6&#45;&gt;10</title>
<path fill="none" stroke="black" d="M211.71,-279.43C230.88,-301.98 265.4,-340.64 299.44,-369 303.74,-372.58 308.52,-376.08 313.27,-379.33"/>
<polygon fill="black" stroke="black" points="311.24,-382.18 321.52,-384.72 315.07,-376.32 311.24,-382.18"/>
</g>
<!-- 13 -->
<!-- name: &quot;if (2)&quot;, typeName: &quot;&quot;, id: 13, branchId: 2, recurseId: &#45;1, attributes: 4, notes: &quot;&quot; -->
<g id="node13" class="node">
<title>13</title>
<polygon fill="none" stroke="black" points="341.67,-360 299.44,-342 341.67,-324 383.89,-342 341.67,-360"/>
<text text-anchor="middle" x="341.67" y="-336.95" font-family="Times New Roman,serif" font-size="14.00">if (2)</text>
</g>
<!-- 6&#45;&gt;13 -->
<g id="edge12" class="edge">
<title>6&#45;&gt;13</title>
<path fill="none" stroke="black" d="M229.17,-279.38C254.36,-293.53 288.81,-312.88 312.72,-326.3"/>
<polygon fill="black" stroke="black" points="310.82,-329.25 321.26,-331.1 314.25,-323.15 310.82,-329.25"/>
</g>
<!-- 16 -->
<!-- name: &quot;if (3)&quot;, typeName: &quot;&quot;, id: 16, branchId: 3, recurseId: &#45;1, attributes: 4, notes: &quot;&quot; -->
<g id="node16" class="node">
<title>16</title>
<polygon fill="none" stroke="black" points="341.67,-306 299.44,-288 341.67,-270 383.89,-288 341.67,-306"/>
<text text-anchor="middle" x="341.67" y="-282.95" font-family="Times New Roman,serif" font-size="14.00">if (3)</text>
</g>
<!-- 6&#45;&gt;16 -->
<g id="edge15" class="edge">
<title>6&#45;&gt;16</title>
<path fill="none" stroke="black" d="M263.91,-273.63C276.31,-275.95 288.9,-278.31 300.2,-280.42"/>
<polygon fill="black" stroke="black" points="299.48,-283.85 309.96,-282.25 300.77,-276.97 299.48,-283.85"/>
</g>
<!-- 19 -->
<!-- name: &quot;if (4)&quot;, typeName: &quot;&quot;, id: 19, branchId: 4, recurseId: &#45;1, attributes: 4, notes: &quot;&quot; -->
<g id="node19" class="node">
<title>19</title>
<polygon fill="none" stroke="black" points="341.67,-252 299.44,-234 341.67,-216 383.89,-234 341.67,-252"/>
<text text-anchor="middle" x="341.67" y="-228.95" font-family="Times New Roman,serif" font-size="14.00">if (4)</text>
</g>
<!-- 6&#45;&gt;19 -->
<g id="edge18" class="edge">
<title>6&#45;&gt;19</title>
<path fill="none" stroke="black" d="M263.91,-248.37C276.31,-246.05 288.9,-243.69 300.2,-241.58"/>
<polygon fill="black" stroke="black" points="300.77,-245.03 309.96,-239.75 299.48,-238.15 300.77,-245.03"/>
</g>
<!-- 22 -->
<!-- name: &quot;if (5)&quot;, typeName: &quot;&quot;, id: 22, branchId: 5, recurseId: &#45;1, attributes: 4, notes: &quot;&quot; -->
<g id="node22" class="node">
<title>22</title>
<polygon fill="none" stroke="black" points="341.67,-198 299.44,-180 341.67,-162 383.89,-180 341.67,-198"/>
<text text-anchor="middle" x="341.67" y="-174.95" font-family="Times New Roman,serif" font-size="14.00">if (5)</text>
</g>
<!-- 6&#45;&gt;22 -->
<g id="edge21" class="edge">
<title>6&#45;&gt;22</title>
<path fill="none" stroke="black" d="M229.17,-242.62C254.36,-228.47 288.81,-209.12 312.72,-195.7"/>
<polygon fill="black" stroke="black" points="314.25,-198.85 321.26,-190.9 310.82,-192.75 314.25,-198.85"/>
</g>
<!-- 25 -->
<!-- name: &quot;if (6)&quot;, typeName: &quot;&quot;, id: 25, branchId: 6, recurseId: &#45;1, attributes: 4, notes: &quot;&quot; -->
<g id="node25" class="node">
<title>25</title>
<polygon fill="none" stroke="black" points="341.67,-144 299.44,-126 341.67,-108 383.89,-126 341.67,-144"/>
<text text-anchor="middle" x="341.67" y="-120.95" font-family="Times New Roman,serif" font-size="14.00">if (6)</text>
</g>
<!-- 6&#45;&gt;25 -->
<g id="edge24" class="edge">
<title>6&#45;&gt;25</title>
<path fill="none" stroke="black" d="M211.71,-242.57C230.88,-220.02 265.4,-181.36 299.44,-153 303.74,-149.42 308.52,-145.92 313.27,-142.67"/>
<polygon fill="black" stroke="black" points="315.07,-145.68 321.52,-137.28 311.24,-139.82 315.07,-145.68"/>
</g>
<!-- 28 -->
<!-- name: &quot;if (7)&quot;, typeName: &quot;&quot;, id: 28, branchId: 7, recurseId: &#45;1, attributes: 4, notes: &quot;&quot; -->
<g id="node28" class="node">
<title>28</title>
<polygon fill="none" stroke="black" points="341.67,-90 299.44,-72 341.67,-54 383.89,-72 341.67,-90"/>
<text text-anchor="middle" x="341.67" y="-66.95" font-family="Times New Roman,serif" font-size="14.00">if (7)</text>
</g>
<!-- 6&#45;&gt;28 -->
<g id="edge27" class="edge">
<title>6&#45;&gt;28</title>
<path fill="none" stroke="black" d="M204.83,-242.73C220.15,-210.77 255.2,-143.84 299.44,-99 303.3,-95.09 307.8,-91.45 312.4,-88.18"/>
<polygon fill="black" stroke="black" points="314.06,-91.28 320.5,-82.87 310.22,-85.43 314.06,-91.28"/>
</g>
<!-- 31 -->
<!-- name: &quot;if (8)&quot;, typeName: &quot;&quot;, id: 31, branchId: 8, recurseId: &#45;1, attributes: 4, notes: &quot;&quot; -->
<g id="node31" class="node">
<title>31</title>
<polygon fill="none" stroke="black" points="341.67,-36 299.44,-18 341.67,0 383.89,-18 341.67,-36"/>
<text text-anchor="middle" x="341.67" y="-12.95" font-family="Times New Roman,serif" font-size="14.00">if (8)</text>
</g>
<!-- 6&#45;&gt;31 -->
<g id="edge30" class="edge">
<title>6&#45;&gt;31</title>
<path fill="none" stroke="black" d="M201.49,-242.6C213.15,-202.77 245.19,-107.11 299.44,-45 303.05,-40.87 307.44,-37.11 311.99,-33.8"/>
<polygon fill="black" stroke="black" points="313.65,-36.9 320.09,-28.49 309.81,-31.05 313.65,-36.9"/>
</g>
<!-- 8 -->
<!-- name: &quot;Value&quot;, typeName: &quot;&quot;, id: 8, branchId: 0, recurseId: &#45;1, attributes: 0, notes: &quot;&quot; -->
<g id="node8" class="node">
<title>8</title>
<ellipse fill="none" stroke="black" cx="451.79" cy="-450" rx="31.9" ry="18"/>
<text text-anchor="middle" x="451.79" y="-444.95" font-family="Times New Roman,serif" font-size="14.00">Value</text>
</g>
<!-- 7&#45;&gt;8 -->
<g id="edge7" class="edge">
<title>7&#45;&gt;8</title>
<path fill="none" stroke="black" d="M385.09,-450C392.62,-450 400.47,-450 408.01,-450"/>
<polygon fill="black" stroke="black" points="408.01,-453.5 418.01,-450 408.01,-446.5 408.01,-453.5"/>
</g>
<!-- 9 -->
<!-- name: &quot;byte&quot;, typeName: &quot;&quot;, id: 9, branchId: 0, recurseId: &#45;1, attributes: 512, notes: &quot;&quot; -->
<g id="node9" class="node">
<title>9</title>
<ellipse fill="none" stroke="black" cx="587.93" cy="-450" rx="27" ry="18"/>
<text text-anchor="middle" x="587.93" y="-444.95" font-family="Times New Roman,serif" font-size="14.00">byte</text>
</g>
<!-- 8&#45;&gt;9 -->
<g id="edge8" class="edge">
<title>8&#45;&gt;9</title>
<path fill="none" stroke="black" d="M483.9,-450C503.31,-450 528.43,-450 549,-450"/>
<polygon fill="black" stroke="black" points="549,-453.5 559,-450 549,-446.5 549,-453.5"/>
</g>
<!-- 11 -->
<!-- name: &quot;Value&quot;, typeName: &quot;&quot;, id: 11, branchId: 0, recurseId: &#45;1, attributes: 0, notes: &quot;&quot; -->
<g id="node11" class="node">
<title>11</title>
<ellipse fill="none" stroke="black" cx="451.79" cy="-396" rx="31.9" ry="18"/>
<text text-anchor="middle" x="451.79" y="-390.95" font-family="Times New Roman,serif" font-size="14.00">Value</text>
</g>
<!-- 10&#45;&gt;11 -->
<g id="edge10" class="edge">
<title>10&#45;&gt;11</title>
<path fill="none" stroke="black" d="M385.09,-396C392.62,-396 400.47,-396 408.01,-396"/>
<polygon fill="black" stroke="black" points="408.01,-399.5 418.01,-396 408.01,-392.5 408.01,-399.5"/>
</g>
<!-- 12 -->
<!-- name: &quot;short&quot;, typeName: &quot;&quot;, id: 12, branchId: 0, recurseId: &#45;1, attributes: 512, notes: &quot;&quot; -->
<g id="node12" class="node">
<title>12</title>
<ellipse fill="none" stroke="black" cx="587.93" cy="-396" rx="29.34" ry="18"/>
<text text-anchor="middle" x="587.93" y="-390.95" font-family="Times New Roman,serif" font-size="14.00">short</text>
</g>
<!-- 11&#45;&gt;12 -->
<g id="edge11" class="edge">
<title>11&#45;&gt;12</title>
<path fill="none" stroke="black" d="M483.9,-396C502.67,-396 526.76,-396 546.93,-396"/>
<polygon fill="black" stroke="black" points="546.77,-399.5 556.77,-396 546.77,-392.5 546.77,-399.5"/>
</g>
<!-- 14 -->
<!-- name: &quot;Value&quot;, typeName: &quot;&quot;, id: 14, branchId: 0, recurseId: &#45;1, attributes: 0, notes: &quot;&quot; -->
<g id="node14" class="node">
<title>14</title>
<ellipse fill="none" stroke="black" cx="451.79" cy="-342" rx="31.9" ry="18"/>
<text text-anchor="middle" x="451.79" y="-336.95" font-family="Times New Roman,serif" font-size="14.00">Value</text>
</g>
<!-- 13&#45;&gt;14 -->
<g id="edge13" class="edge">
<title>13&#45;&gt;14</title>
<path fill="none" stroke="black" d="M385.09,-342C392.62,-342 400.47,-342 408.01,-342"/>
<polygon fill="black" stroke="black" points="408.01,-345.5 418.01,-342 408.01,-338.5 408.01,-345.5"/>
</g>
<!-- 15 -->
<!-- name: &quot;varint&quot;, typeName: &quot;&quot;, id: 15, branchId: 0, recurseId: &#45;1, attributes: 512, notes: &quot;&quot; -->
<g id="node15" class="node">
<title>15</title>
<ellipse fill="none" stroke="black" cx="587.93" cy="-342" rx="32.41" ry="18"/>
<text text-anchor="middle" x="587.93" y="-336.95" font-family="Times New Roman,serif" font-size="14.00">varint</text>
</g>
<!-- 14&#45;&gt;15 -->
<g id="edge14" class="edge">
<title>14&#45;&gt;15</title>
<path fill="none" stroke="black" d="M483.9,-342C501.68,-342 524.23,-342 543.71,-342"/>
<polygon fill="black" stroke="black" points="543.54,-345.5 553.54,-342 543.54,-338.5 543.54,-345.5"/>
</g>
<!-- 17 -->
<!-- name: &quot;Value&quot;, typeName: &quot;&quot;, id: 17, branchId: 0, recurseId: &#45;1, attributes: 0, notes: &quot;&quot; -->
<g id="node17" class="node">
<title>17</title>
<ellipse fill="none" stroke="black" cx="451.79" cy="-288" rx="31.9" ry="18"/>
<text text-anchor="middle" x="451.79" y="-282.95" font-family="Times New Roman,serif" font-size="14.00">Value</text>
</g>
<!-- 16&#45;&gt;17 -->
<g id="edge16" class="edge">
<title>16&#45;&gt;17</title>
<path fill="none" stroke="black" d="M385.09,-288C392.62,-288 400.47,-288 408.01,-288"/>
<polygon fill="black" stroke="black" points="408.01,-291.5 418.01,-288 408.01,-284.5 408.01,-291.5"/>
</g>
<!-- 18 -->
<!-- name: &quot;float&quot;, typeName: &quot;&quot;, id: 18, branchId: 0, recurseId: &#45;1, attributes: 512, notes: &quot;&quot; -->
<g id="node18" class="node">
<title>18</title>
<ellipse fill="none" stroke="black" cx="587.93" cy="-288" rx="27.81" ry="18"/>
<text text-anchor="middle" x="587.93" y="-282.95" font-family="Times New Roman,serif" font-size="14.00">float</text>
</g>
<!-- 17&#45;&gt;18 -->
<g id="edge17" class="edge">
<title>17&#45;&gt;18</title>
<path fill="none" stroke="black" d="M483.9,-288C503.05,-288 527.76,-288 548.17,-288"/>
<polygon fill="black" stroke="black" points="548.11,-291.5 558.11,-288 548.11,-284.5 548.11,-291.5"/>
</g>
<!-- 20 -->
<!-- name: &quot;Value&quot;, typeName: &quot;&quot;, id: 20, branchId: 0, recurseId: &#45;1, attributes: 0, notes: &quot;&quot; -->
<g id="node20" class="node">
<title>20</title>
<ellipse fill="none" stroke="black" cx="451.79" cy="-234" rx="31.9" ry="18"/>
<text text-anchor="middle" x="451.79" y="-228.95" font-family="Times New Roman,serif" font-size="14.00">Value</text>
</g>
<!-- 19&#45;&gt;20 -->
<g id="edge19" class="edge">
<title>19&#45;&gt;20</title>
<path fill="none" stroke="black" d="M385.09,-234C392.62,-234 400.47,-234 408.01,-234"/>
<polygon fill="black" stroke="black" points="408.01,-237.5 418.01,-234 408.01,-230.5 408.01,-237.5"/>
</g>
<!-- 21 -->
<!-- name: &quot;string&quot;, typeName: &quot;&quot;, id: 21, branchId: 0, recurseId: &#45;1, attributes: 512, notes: &quot;&quot; -->
<g id="node21" class="node">
<title>21</title>
<ellipse fill="none" stroke="black" cx="587.93" cy="-234" rx="31.9" ry="18"/>
<text text-anchor="middle" x="587.93" y="-228.95" font-family="Times New Roman,serif" font-size="14.00">string</text>
</g>
<!-- 20&#45;&gt;21 -->
<g id="edge20" class="edge">
<title>20&#45;&gt;21</title>
<path fill="none" stroke="black" d="M483.9,-234C501.93,-234 524.89,-234 544.55,-234"/>
<polygon fill="black" stroke="black" points="544.48,-237.5 554.48,-234 544.48,-230.5 544.48,-237.5"/>
</g>
<!-- 23 -->
<!-- name: &quot;Value&quot;, typeName: &quot;&quot;, id: 23, branchId: 0, recurseId: &#45;1, attributes: 256, notes: &quot;&quot; -->
<g id="node23" class="node">
<title>23</title>
<ellipse fill="none" stroke="black" cx="451.79" cy="-180" rx="31.9" ry="18"/>
<text text-anchor="middle" x="451.79" y="-174.95" font-family="Times New Roman,serif" font-size="14.00">Value</text>
</g>
<!-- 22&#45;&gt;23 -->
<g id="edge22" class="edge">
<title>22&#45;&gt;23</title>
<path fill="none" stroke="black" d="M385.09,-180C392.62,-180 400.47,-180 408.01,-180"/>
<polygon fill="black" stroke="black" points="408.01,-183.5 418.01,-180 408.01,-176.5 408.01,-183.5"/>
</g>
<!-- 24 -->
<!-- name: &quot;CompoundTag&quot;, typeName: &quot;&quot;, id: 24, branchId: 0, recurseId: &#45;1, attributes: 512, notes: &quot;&quot; -->
<g id="node24" class="node">
<title>24</title>
<ellipse fill="none" stroke="black" cx="587.93" cy="-180" rx="66.19" ry="18"/>
<text text-anchor="middle" x="587.93" y="-174.95" font-family="Times New Roman,serif" font-size="14.00">CompoundTag</text>
</g>
<!-- 23&#45;&gt;24 -->
<g id="edge23" class="edge">
<title>23&#45;&gt;24</title>
<path fill="none" stroke="black" d="M483.9,-180C491.88,-180 500.82,-180 510.02,-180"/>
<polygon fill="black" stroke="black" points="509.8,-183.5 519.8,-180 509.8,-176.5 509.8,-183.5"/>
</g>
<!-- 26 -->
<!-- name: &quot;Value&quot;, typeName: &quot;&quot;, id: 26, branchId: 0, recurseId: &#45;1, attributes: 256, notes: &quot;&quot; -->
<g id="node26" class="node">
<title>26</title>
<ellipse fill="none" stroke="black" cx="451.79" cy="-126" rx="31.9" ry="18"/>
<text text-anchor="middle" x="451.79" y="-120.95" font-family="Times New Roman,serif" font-size="14.00">Value</text>
</g>
<!-- 25&#45;&gt;26 -->
<g id="edge25" class="edge">
<title>25&#45;&gt;26</title>
<path fill="none" stroke="black" d="M385.09,-126C392.62,-126 400.47,-126 408.01,-126"/>
<polygon fill="black" stroke="black" points="408.01,-129.5 418.01,-126 408.01,-122.5 408.01,-129.5"/>
</g>
<!-- 27 -->
<!-- name: &quot;BlockPos&quot;, typeName: &quot;&quot;, id: 27, branchId: 0, recurseId: &#45;1, attributes: 512, notes: &quot;&quot; -->
<g id="node27" class="node">
<title>27</title>
<ellipse fill="none" stroke="black" cx="587.93" cy="-126" rx="46.23" ry="18"/>
<text text-anchor="middle" x="587.93" y="-120.95" font-family="Times New Roman,serif" font-size="14.00">BlockPos</text>
</g>
<!-- 26&#45;&gt;27 -->
<g id="edge26" class="edge">
<title>26&#45;&gt;27</title>
<path fill="none" stroke="black" d="M483.9,-126C497.6,-126 514.15,-126 529.93,-126"/>
<polygon fill="black" stroke="black" points="529.72,-129.5 539.72,-126 529.72,-122.5 529.72,-129.5"/>
</g>
<!-- 29 -->
<!-- name: &quot;Value&quot;, typeName: &quot;&quot;, id: 29, branchId: 0, recurseId: &#45;1, attributes: 0, notes: &quot;&quot; -->
<g id="node29" class="node">
<title>29</title>
<ellipse fill="none" stroke="black" cx="451.79" cy="-72" rx="31.9" ry="18"/>
<text text-anchor="middle" x="451.79" y="-66.95" font-family="Times New Roman,serif" font-size="14.00">Value</text>
</g>
<!-- 28&#45;&gt;29 -->
<g id="edge28" class="edge">
<title>28&#45;&gt;29</title>
<path fill="none" stroke="black" d="M385.09,-72C392.62,-72 400.47,-72 408.01,-72"/>
<polygon fill="black" stroke="black" points="408.01,-75.5 418.01,-72 408.01,-68.5 408.01,-75.5"/>
</g>
<!-- 30 -->
<!-- name: &quot;varint64&quot;, typeName: &quot;&quot;, id: 30, branchId: 0, recurseId: &#45;1, attributes: 512, notes: &quot;&quot; -->
<g id="node30" class="node">
<title>30</title>
<ellipse fill="none" stroke="black" cx="587.93" cy="-72" rx="41.63" ry="18"/>
<text text-anchor="middle" x="587.93" y="-66.95" font-family="Times New Roman,serif" font-size="14.00">varint64</text>
</g>
<!-- 29&#45;&gt;30 -->
<g id="edge29" class="edge">
<title>29&#45;&gt;30</title>
<path fill="none" stroke="black" d="M483.9,-72C499.01,-72 517.58,-72 534.77,-72"/>
<polygon fill="black" stroke="black" points="534.31,-75.5 544.31,-72 534.31,-68.5 534.31,-75.5"/>
</g>
<!-- 32 -->
<!-- name: &quot;Value&quot;, typeName: &quot;&quot;, id: 32, branchId: 0, recurseId: &#45;1, attributes: 256, notes: &quot;&quot; -->
<g id="node32" class="node">
<title>32</title>
<ellipse fill="none" stroke="black" cx="451.79" cy="-18" rx="31.9" ry="18"/>
<text text-anchor="middle" x="451.79" y="-12.95" font-family="Times New Roman,serif" font-size="14.00">Value</text>
</g>
<!-- 31&#45;&gt;32 -->
<g id="edge31" class="edge">
<title>31&#45;&gt;32</title>
<path fill="none" stroke="black" d="M385.09,-18C392.62,-18 400.47,-18 408.01,-18"/>
<polygon fill="black" stroke="black" points="408.01,-21.5 418.01,-18 408.01,-14.5 408.01,-21.5"/>
</g>
<!-- 33 -->
<!-- name: &quot;Vec3&quot;, typeName: &quot;&quot;, id: 33, branchId: 0, recurseId: &#45;1, attributes: 512, notes: &quot;&quot; -->
<g id="node33" class="node">
<title>33</title>
<ellipse fill="none" stroke="black" cx="587.93" cy="-18" rx="29.34" ry="18"/>
<text text-anchor="middle" x="587.93" y="-12.95" font-family="Times New Roman,serif" font-size="14.00">Vec3</text>
</g>
<!-- 32&#45;&gt;33 -->
<g id="edge32" class="edge">
<title>32&#45;&gt;33</title>
<path fill="none" stroke="black" d="M483.9,-18C502.67,-18 526.76,-18 546.93,-18"/>
<polygon fill="black" stroke="black" points="546.77,-21.5 556.77,-18 546.77,-14.5 546.77,-21.5"/>
</g>
</g>
</svg>
