<?xml version="1.0" encoding="UTF-8" standalone="no"?>
<!DOCTYPE svg PUBLIC "-//W3C//DTD SVG 1.1//EN"
 "http://www.w3.org/Graphics/SVG/1.1/DTD/svg11.dtd">
<!-- Generated by graphviz version 14.1.1 (20251213.1925)
 -->
<!-- Title: DeathCauseMessageType Pages: 1 -->
<svg width="836pt" height="152pt"
 viewBox="0.00 0.00 836.00 152.00" xmlns="http://www.w3.org/2000/svg" xmlns:xlink="http://www.w3.org/1999/xlink">
<g id="graph0" class="graph" transform="scale(1 1) rotate(0) translate(4 148)">
<title>DeathCauseMessageType</title>
<polygon fill="white" stroke="none" points="-4,4 -4,-148 831.94,-148 831.94,4 -4,4"/>
<!-- 0 -->
<!-- name: &quot;DeathCauseMessageType&quot;, typeName: &quot;&quot;, id: 0, branchId: 0, recurseId: &#45;1, attributes: 0, notes: &quot;&quot; -->
<g id="node1" class="node">
<title>0</title>
<ellipse fill="none" stroke="black" cx="106.63" cy="-99" rx="106.63" ry="18"/>
<text xml:space="preserve" text-anchor="middle" x="106.63" y="-93.95" font-family="Times New Roman,serif" font-size="14.00">DeathCauseMessageType</text>
</g>
<!-- 1 -->
<!-- name: &quot;Death Cause Attack Name&quot;, typeName: &quot;&quot;, id: 1, branchId: 0, recurseId: &#45;1, attributes: 0, notes: &quot;&quot; -->
<g id="node2" class="node">
<title>1</title>
<ellipse fill="none" stroke="black" cx="359.46" cy="-126" rx="109.7" ry="18"/>
<text xml:space="preserve" text-anchor="middle" x="359.46" y="-120.95" font-family="Times New Roman,serif" font-size="14.00">Death Cause Attack Name</text>
</g>
<!-- 0&#45;&gt;1 -->
<g id="edge1" class="edge">
<title>0&#45;&gt;1</title>
<path fill="none" stroke="black" d="M197.48,-108.67C216.28,-110.7 236.24,-112.84 255.48,-114.91"/>
<polygon fill="black" stroke="black" points="254.89,-118.37 265.2,-115.96 255.63,-111.41 254.89,-118.37"/>
</g>
<!-- 3 -->
<!-- name: &quot;Death Cause Message List&quot;, typeName: &quot;&quot;, id: 3, branchId: 0, recurseId: &#45;1, attributes: 0, notes: &quot;&quot; -->
<g id="node4" class="node">
<title>3</title>
<ellipse fill="none" stroke="black" cx="359.46" cy="-72" rx="110.21" ry="18"/>
<text xml:space="preserve" text-anchor="middle" x="359.46" y="-66.95" font-family="Times New Roman,serif" font-size="14.00">Death Cause Message List</text>
</g>
<!-- 0&#45;&gt;3 -->
<g id="edge3" class="edge">
<title>0&#45;&gt;3</title>
<path fill="none" stroke="black" d="M197.48,-89.33C216.07,-87.33 235.81,-85.2 254.85,-83.15"/>
<polygon fill="black" stroke="black" points="255.21,-86.63 264.78,-82.08 254.46,-79.67 255.21,-86.63"/>
</g>
<!-- 2 -->
<!-- name: &quot;string&quot;, typeName: &quot;&quot;, id: 2, branchId: 0, recurseId: &#45;1, attributes: 512, notes: &quot;&quot; -->
<g id="node3" class="node">
<title>2</title>
<ellipse fill="none" stroke="black" cx="759.7" cy="-126" rx="31.9" ry="18"/>
<text xml:space="preserve" text-anchor="middle" x="759.7" y="-120.95" font-family="Times New Roman,serif" font-size="14.00">string</text>
</g>
<!-- 1&#45;&gt;2 -->
<g id="edge2" class="edge">
<title>1&#45;&gt;2</title>
<path fill="none" stroke="black" d="M469.55,-126C550.98,-126 657.87,-126 716.2,-126"/>
<polygon fill="black" stroke="black" points="716.02,-129.5 726.02,-126 716.02,-122.5 716.02,-129.5"/>
</g>
<!-- 4 -->
<!-- name: &quot;List Size&quot;, typeName: &quot;&quot;, id: 4, branchId: 0, recurseId: &#45;1, attributes: 0, notes: &quot;&quot; -->
<g id="node5" class="node">
<title>4</title>
<ellipse fill="none" stroke="black" cx="580.57" cy="-72" rx="43.67" ry="18"/>
<text xml:space="preserve" text-anchor="middle" x="580.57" y="-66.95" font-family="Times New Roman,serif" font-size="14.00">List Size</text>
</g>
<!-- 3&#45;&gt;4 -->
<g id="edge4" class="edge">
<title>3&#45;&gt;4</title>
<path fill="none" stroke="black" d="M470.01,-72C489.23,-72 508.44,-72 525.28,-72"/>
<polygon fill="black" stroke="black" points="525.03,-75.5 535.03,-72 525.03,-68.5 525.03,-75.5"/>
</g>
<!-- 6 -->
<!-- name: &quot;example element&quot;, typeName: &quot;&quot;, id: 6, branchId: 0, recurseId: &#45;1, attributes: 16, notes: &quot;&quot; -->
<g id="node7" class="node">
<title>6</title>
<ellipse fill="none" stroke="black" stroke-dasharray="1,5" cx="580.57" cy="-18" rx="74.89" ry="18"/>
<text xml:space="preserve" text-anchor="middle" x="580.57" y="-12.95" font-family="Times New Roman,serif" font-size="14.00">example element</text>
</g>
<!-- 3&#45;&gt;6 -->
<g id="edge6" class="edge">
<title>3&#45;&gt;6</title>
<path fill="none" stroke="black" d="M422.08,-56.81C451.37,-49.59 486.36,-40.97 515.91,-33.69"/>
<polygon fill="black" stroke="black" points="516.61,-37.12 525.48,-31.33 514.93,-30.33 516.61,-37.12"/>
</g>
<!-- 5 -->
<!-- name: &quot;unsigned varint&quot;, typeName: &quot;&quot;, id: 5, branchId: 0, recurseId: &#45;1, attributes: 0, notes: &quot;&quot; -->
<g id="node6" class="node">
<title>5</title>
<ellipse fill="none" stroke="black" cx="759.7" cy="-72" rx="68.24" ry="18"/>
<text xml:space="preserve" text-anchor="middle" x="759.7" y="-66.95" font-family="Times New Roman,serif" font-size="14.00">unsigned varint</text>
</g>
<!-- 4&#45;&gt;5 -->
<g id="edge5" class="edge">
<title>4&#45;&gt;5</title>
<path fill="none" stroke="black" d="M624.45,-72C641.06,-72 660.62,-72 679.6,-72"/>
<polygon fill="black" stroke="black" points="679.48,-75.5 689.48,-72 679.48,-68.5 679.48,-75.5"/>
</g>
<!-- 7 -->
<!-- name: &quot;string&quot;, typeName: &quot;&quot;, id: 7, branchId: 0, recurseId: &#45;1, attributes: 512, notes: &quot;&quot; -->
<g id="node8" class="node">
<title>7</title>
<ellipse fill="none" stroke="black" cx="759.7" cy="-18" rx="31.9" ry="18"/>
<text xml:space="preserve" text-anchor="middle" x="759.7" y="-12.95" font-family="Times New Roman,serif" font-size="14.00">string</text>
</g>
<!-- 6&#45;&gt;7 -->
<g id="edge7" class="edge">
<title>6&#45;&gt;7</title>
<path fill="none" stroke="black" d="M655.92,-18C676.42,-18 697.97,-18 716.01,-18"/>
<polygon fill="black" stroke="black" points="715.8,-21.5 725.8,-18 715.8,-14.5 715.8,-21.5"/>
</g>
</g>
</svg>
