<?xml version="1.0" encoding="UTF-8" standalone="no"?>
<!DOCTYPE svg PUBLIC "-//W3C//DTD SVG 1.1//EN"
 "http://www.w3.org/Graphics/SVG/1.1/DTD/svg11.dtd">
<!-- Generated by graphviz version 11.0.0 (20240428.1522)
 -->
<!-- Title: DeathInfoPacket Pages: 1 -->
<svg width="1002pt" height="206pt"
 viewBox="0.00 0.00 1001.96 206.00" xmlns="http://www.w3.org/2000/svg" xmlns:xlink="http://www.w3.org/1999/xlink">
<g id="graph0" class="graph" transform="scale(1 1) rotate(0) translate(4 202)">
<title>DeathInfoPacket</title>
<polygon fill="white" stroke="none" points="-4,4 -4,-202 997.96,-202 997.96,4 -4,4"/>
<!-- 0 -->
<!-- name: &quot;DeathInfoPacket&quot;, typeName: &quot;&quot;, id: 0, branchId: 189, recurseId: &#45;1, attributes: 0, notes: &quot;&quot; -->
<g id="node1" class="node">
<title>0</title>
<ellipse fill="none" stroke="black" cx="72.52" cy="-153" rx="72.52" ry="18"/>
<text text-anchor="middle" x="72.52" y="-147.57" font-family="Times New Roman,serif" font-size="14.00">DeathInfoPacket</text>
</g>
<!-- 1 -->
<!-- name: &quot;Death Cause Attack Name&quot;, typeName: &quot;&quot;, id: 1, branchId: 0, recurseId: &#45;1, attributes: 0, notes: &quot;&quot; -->
<g id="node2" class="node">
<title>1</title>
<ellipse fill="none" stroke="black" cx="289.99" cy="-180" rx="108.45" ry="18"/>
<text text-anchor="middle" x="289.99" y="-174.57" font-family="Times New Roman,serif" font-size="14.00">Death Cause Attack Name</text>
</g>
<!-- 0&#45;&gt;1 -->
<g id="edge1" class="edge">
<title>0&#45;&gt;1</title>
<path fill="none" stroke="black" d="M138.17,-161.1C154.72,-163.17 172.9,-165.45 190.72,-167.69"/>
<polygon fill="black" stroke="black" points="190.2,-171.15 200.56,-168.92 191.07,-164.2 190.2,-171.15"/>
</g>
<!-- 3 -->
<!-- name: &quot;Death Cause Message List&quot;, typeName: &quot;&quot;, id: 3, branchId: 0, recurseId: &#45;1, attributes: 8, notes: &quot;&quot; -->
<g id="node4" class="node">
<title>3</title>
<ellipse fill="none" stroke="black" cx="289.99" cy="-126" rx="108.95" ry="18"/>
<text text-anchor="middle" x="289.99" y="-120.58" font-family="Times New Roman,serif" font-size="14.00">Death Cause Message List</text>
</g>
<!-- 0&#45;&gt;3 -->
<g id="edge3" class="edge">
<title>0&#45;&gt;3</title>
<path fill="none" stroke="black" d="M138.17,-144.9C154.72,-142.83 172.9,-140.55 190.72,-138.31"/>
<polygon fill="black" stroke="black" points="191.07,-141.8 200.56,-137.08 190.2,-134.85 191.07,-141.8"/>
</g>
<!-- 2 -->
<!-- name: &quot;string&quot;, typeName: &quot;&quot;, id: 2, branchId: 0, recurseId: &#45;1, attributes: 512, notes: &quot;&quot; -->
<g id="node3" class="node">
<title>2</title>
<ellipse fill="none" stroke="black" cx="927.42" cy="-180" rx="31.1" ry="18"/>
<text text-anchor="middle" x="927.42" y="-174.57" font-family="Times New Roman,serif" font-size="14.00">string</text>
</g>
<!-- 1&#45;&gt;2 -->
<g id="edge2" class="edge">
<title>1&#45;&gt;2</title>
<path fill="none" stroke="black" d="M398.78,-180C541.54,-180 786.66,-180 884.4,-180"/>
<polygon fill="black" stroke="black" points="884.33,-183.5 894.33,-180 884.33,-176.5 884.33,-183.5"/>
</g>
<!-- 4 -->
<!-- name: &quot;Array Size&quot;, typeName: &quot;&quot;, id: 4, branchId: 0, recurseId: &#45;1, attributes: 0, notes: &quot;&quot; -->
<g id="node5" class="node">
<title>4</title>
<ellipse fill="none" stroke="black" cx="506.46" cy="-126" rx="49.57" ry="18"/>
<text text-anchor="middle" x="506.46" y="-120.58" font-family="Times New Roman,serif" font-size="14.00">Array Size</text>
</g>
<!-- 3&#45;&gt;4 -->
<g id="edge4" class="edge">
<title>3&#45;&gt;4</title>
<path fill="none" stroke="black" d="M399.17,-126C415.02,-126 430.85,-126 445.26,-126"/>
<polygon fill="black" stroke="black" points="444.98,-129.5 454.98,-126 444.98,-122.5 444.98,-129.5"/>
</g>
<!-- 6 -->
<!-- name: &quot;example element&quot;, typeName: &quot;&quot;, id: 6, branchId: 0, recurseId: &#45;1, attributes: 16, notes: &quot;&quot; -->
<g id="node7" class="node">
<title>6</title>
<ellipse fill="none" stroke="black" stroke-dasharray="1,5" cx="506.46" cy="-72" rx="71.52" ry="18"/>
<text text-anchor="middle" x="506.46" y="-66.58" font-family="Times New Roman,serif" font-size="14.00">example element</text>
</g>
<!-- 3&#45;&gt;6 -->
<g id="edge6" class="edge">
<title>3&#45;&gt;6</title>
<path fill="none" stroke="black" d="M351.59,-110.74C380.47,-103.47 414.97,-94.78 443.97,-87.48"/>
<polygon fill="black" stroke="black" points="444.48,-90.96 453.33,-85.13 442.77,-84.17 444.48,-90.96"/>
</g>
<!-- 5 -->
<!-- name: &quot;unsigned varint&quot;, typeName: &quot;&quot;, id: 5, branchId: 0, recurseId: &#45;1, attributes: 512, notes: &quot;&quot; -->
<g id="node6" class="node">
<title>5</title>
<ellipse fill="none" stroke="black" cx="927.42" cy="-126" rx="66.53" ry="18"/>
<text text-anchor="middle" x="927.42" y="-120.58" font-family="Times New Roman,serif" font-size="14.00">unsigned varint</text>
</g>
<!-- 4&#45;&gt;5 -->
<g id="edge5" class="edge">
<title>4&#45;&gt;5</title>
<path fill="none" stroke="black" d="M556.34,-126C628.36,-126 763.69,-126 849.22,-126"/>
<polygon fill="black" stroke="black" points="849.17,-129.5 859.17,-126 849.17,-122.5 849.17,-129.5"/>
</g>
<!-- 7 -->
<!-- name: &quot;Death Cause Entity Name&quot;, typeName: &quot;&quot;, id: 7, branchId: 0, recurseId: &#45;1, attributes: 0, notes: &quot;&quot; -->
<g id="node8" class="node">
<title>7</title>
<ellipse fill="none" stroke="black" cx="719.44" cy="-72" rx="105.45" ry="18"/>
<text text-anchor="middle" x="719.44" y="-66.58" font-family="Times New Roman,serif" font-size="14.00">Death Cause Entity Name</text>
</g>
<!-- 6&#45;&gt;7 -->
<g id="edge7" class="edge">
<title>6&#45;&gt;7</title>
<path fill="none" stroke="black" d="M578.3,-72C586.03,-72 594.04,-72 602.13,-72"/>
<polygon fill="black" stroke="black" points="602.1,-75.5 612.1,-72 602.1,-68.5 602.1,-75.5"/>
</g>
<!-- 9 -->
<!-- name: &quot;Death Cause Entity Name&quot;, typeName: &quot;&quot;, id: 9, branchId: 0, recurseId: &#45;1, attributes: 0, notes: &quot;&quot; -->
<g id="node10" class="node">
<title>9</title>
<ellipse fill="none" stroke="black" cx="719.44" cy="-18" rx="105.45" ry="18"/>
<text text-anchor="middle" x="719.44" y="-12.57" font-family="Times New Roman,serif" font-size="14.00">Death Cause Entity Name</text>
</g>
<!-- 6&#45;&gt;9 -->
<g id="edge9" class="edge">
<title>6&#45;&gt;9</title>
<path fill="none" stroke="black" d="M557.73,-59.13C584.74,-52.22 618.49,-43.58 648.08,-36.01"/>
<polygon fill="black" stroke="black" points="648.91,-39.41 657.73,-33.54 647.17,-32.63 648.91,-39.41"/>
</g>
<!-- 8 -->
<!-- name: &quot;string&quot;, typeName: &quot;&quot;, id: 8, branchId: 0, recurseId: &#45;1, attributes: 512, notes: &quot;&quot; -->
<g id="node9" class="node">
<title>8</title>
<ellipse fill="none" stroke="black" cx="927.42" cy="-72" rx="31.1" ry="18"/>
<text text-anchor="middle" x="927.42" y="-66.58" font-family="Times New Roman,serif" font-size="14.00">string</text>
</g>
<!-- 7&#45;&gt;8 -->
<g id="edge8" class="edge">
<title>7&#45;&gt;8</title>
<path fill="none" stroke="black" d="M825.24,-72C846.4,-72 867.45,-72 884.83,-72"/>
<polygon fill="black" stroke="black" points="884.72,-75.5 894.72,-72 884.72,-68.5 884.72,-75.5"/>
</g>
<!-- 10 -->
<!-- name: &quot;string&quot;, typeName: &quot;&quot;, id: 10, branchId: 0, recurseId: &#45;1, attributes: 512, notes: &quot;&quot; -->
<g id="node11" class="node">
<title>10</title>
<ellipse fill="none" stroke="black" cx="927.42" cy="-18" rx="31.1" ry="18"/>
<text text-anchor="middle" x="927.42" y="-12.57" font-family="Times New Roman,serif" font-size="14.00">string</text>
</g>
<!-- 9&#45;&gt;10 -->
<g id="edge10" class="edge">
<title>9&#45;&gt;10</title>
<path fill="none" stroke="black" d="M825.24,-18C846.4,-18 867.45,-18 884.83,-18"/>
<polygon fill="black" stroke="black" points="884.72,-21.5 894.72,-18 884.72,-14.5 884.72,-21.5"/>
</g>
</g>
</svg>
