<?xml version="1.0" encoding="UTF-8" standalone="no"?>
<!DOCTYPE svg PUBLIC "-//W3C//DTD SVG 1.1//EN"
 "http://www.w3.org/Graphics/SVG/1.1/DTD/svg11.dtd">
<!-- Generated by graphviz version 13.1.2 (20250808.2320)
 -->
<!-- Title: DebugInfoPacket Pages: 1 -->
<svg width="582pt" height="98pt"
 viewBox="0.00 0.00 582.00 98.00" xmlns="http://www.w3.org/2000/svg" xmlns:xlink="http://www.w3.org/1999/xlink">
<g id="graph0" class="graph" transform="scale(1 1) rotate(0) translate(4 94)">
<title>DebugInfoPacket</title>
<polygon fill="white" stroke="none" points="-4,4 -4,-94 578.09,-94 578.09,4 -4,4"/>
<!-- 0 -->
<!-- name: &quot;DebugInfoPacket&quot;, typeName: &quot;&quot;, id: 0, branchId: 0, recurseId: &#45;1, attributes: 0, notes: &quot;The system sends debug information via a generic network packet. This enables rendering of any server information on the client in for instance ImGui.&quot; -->
<g id="node1" class="node">
<title>0</title>
<ellipse fill="none" stroke="black" cx="75.41" cy="-45" rx="75.41" ry="18"/>
<text xml:space="preserve" text-anchor="middle" x="75.41" y="-39.95" font-family="Times New Roman,serif" font-size="14.00">DebugInfoPacket</text>
</g>
<!-- 1 -->
<!-- name: &quot;Actor Id&quot;, typeName: &quot;&quot;, id: 1, branchId: 0, recurseId: &#45;1, attributes: 0, notes: &quot;&quot; -->
<g id="node2" class="node">
<title>1</title>
<ellipse fill="none" stroke="black" cx="228.95" cy="-70" rx="42.14" ry="18"/>
<text xml:space="preserve" text-anchor="middle" x="228.95" y="-64.95" font-family="Times New Roman,serif" font-size="14.00">Actor Id</text>
</g>
<!-- 0&#45;&gt;1 -->
<g id="edge1" class="edge">
<title>0&#45;&gt;1</title>
<path fill="none" stroke="black" d="M138.48,-55.24C151.63,-57.41 165.34,-59.67 177.96,-61.75"/>
<polygon fill="black" stroke="black" points="177.28,-65.19 187.71,-63.36 178.42,-58.28 177.28,-65.19"/>
</g>
<!-- 4 -->
<!-- name: &quot;Data&quot;, typeName: &quot;&quot;, id: 4, branchId: 0, recurseId: &#45;1, attributes: 0, notes: &quot;&quot; -->
<g id="node5" class="node">
<title>4</title>
<ellipse fill="none" stroke="black" cx="380.96" cy="-18" rx="28.32" ry="18"/>
<text xml:space="preserve" text-anchor="middle" x="380.96" y="-12.95" font-family="Times New Roman,serif" font-size="14.00">Data</text>
</g>
<!-- 0&#45;&gt;4 -->
<g id="edge4" class="edge">
<title>0&#45;&gt;4</title>
<path fill="none" stroke="black" d="M146.81,-38.74C207.33,-33.36 292.34,-25.79 341.23,-21.44"/>
<polygon fill="black" stroke="black" points="341.4,-24.94 351.05,-20.57 340.78,-17.97 341.4,-24.94"/>
</g>
<!-- 2 -->
<!-- name: &quot;Actor Unique ID&quot;, typeName: &quot;&quot;, id: 2, branchId: 0, recurseId: &#45;1, attributes: 0, notes: &quot;&quot; -->
<g id="node3" class="node">
<title>2</title>
<ellipse fill="none" stroke="black" cx="380.96" cy="-72" rx="73.87" ry="18"/>
<text xml:space="preserve" text-anchor="middle" x="380.96" y="-66.95" font-family="Times New Roman,serif" font-size="14.00">Actor Unique ID</text>
</g>
<!-- 1&#45;&gt;2 -->
<g id="edge2" class="edge">
<title>1&#45;&gt;2</title>
<path fill="none" stroke="black" d="M271.34,-70.55C278.91,-70.65 287.06,-70.76 295.37,-70.87"/>
<polygon fill="black" stroke="black" points="295.2,-74.37 305.24,-71 295.29,-67.37 295.2,-74.37"/>
</g>
<!-- 3 -->
<!-- name: &quot;varint64&quot;, typeName: &quot;&quot;, id: 3, branchId: 0, recurseId: &#45;1, attributes: 512, notes: &quot;&quot; -->
<g id="node4" class="node">
<title>3</title>
<ellipse fill="none" stroke="black" cx="532.46" cy="-72" rx="41.63" ry="18"/>
<text xml:space="preserve" text-anchor="middle" x="532.46" y="-66.95" font-family="Times New Roman,serif" font-size="14.00">varint64</text>
</g>
<!-- 2&#45;&gt;3 -->
<g id="edge3" class="edge">
<title>2&#45;&gt;3</title>
<path fill="none" stroke="black" d="M454.96,-72C463.23,-72 471.52,-72 479.44,-72"/>
<polygon fill="black" stroke="black" points="479.21,-75.5 489.21,-72 479.21,-68.5 479.21,-75.5"/>
</g>
<!-- 5 -->
<!-- name: &quot;string&quot;, typeName: &quot;&quot;, id: 5, branchId: 0, recurseId: &#45;1, attributes: 512, notes: &quot;&quot; -->
<g id="node6" class="node">
<title>5</title>
<ellipse fill="none" stroke="black" cx="532.46" cy="-18" rx="31.9" ry="18"/>
<text xml:space="preserve" text-anchor="middle" x="532.46" y="-12.95" font-family="Times New Roman,serif" font-size="14.00">string</text>
</g>
<!-- 4&#45;&gt;5 -->
<g id="edge5" class="edge">
<title>4&#45;&gt;5</title>
<path fill="none" stroke="black" d="M409.73,-18C431.99,-18 463.6,-18 489.03,-18"/>
<polygon fill="black" stroke="black" points="488.71,-21.5 498.71,-18 488.71,-14.5 488.71,-21.5"/>
</g>
</g>
</svg>
