<?xml version="1.0" encoding="UTF-8" standalone="no"?>
<!DOCTYPE svg PUBLIC "-//W3C//DTD SVG 1.1//EN"
 "http://www.w3.org/Graphics/SVG/1.1/DTD/svg11.dtd">
<!-- Generated by graphviz version 14.1.1 (20251213.1925)
 -->
<!-- Title: DebugMarkerData Pages: 1 -->
<svg width="555pt" height="314pt"
 viewBox="0.00 0.00 555.00 314.00" xmlns="http://www.w3.org/2000/svg" xmlns:xlink="http://www.w3.org/1999/xlink">
<g id="graph0" class="graph" transform="scale(1 1) rotate(0) translate(4 310)">
<title>DebugMarkerData</title>
<polygon fill="white" stroke="none" points="-4,4 -4,-310 551.47,-310 551.47,4 -4,4"/>
<!-- 0 -->
<!-- name: &quot;DebugMarkerData&quot;, typeName: &quot;&quot;, id: 0, branchId: 0, recurseId: &#45;1, attributes: 0, notes: &quot;&quot; -->
<g id="node1" class="node">
<title>0</title>
<ellipse fill="none" stroke="black" cx="80.52" cy="-112" rx="80.52" ry="18"/>
<text xml:space="preserve" text-anchor="middle" x="80.52" y="-106.95" font-family="Times New Roman,serif" font-size="14.00">DebugMarkerData</text>
</g>
<!-- 1 -->
<!-- name: &quot;Text&quot;, typeName: &quot;&quot;, id: 1, branchId: 0, recurseId: &#45;1, attributes: 0, notes: &quot;String for what text to show at the location&quot; -->
<g id="node2" class="node">
<title>1</title>
<ellipse fill="none" stroke="black" cx="238.68" cy="-260" rx="27.3" ry="18"/>
<text xml:space="preserve" text-anchor="middle" x="238.68" y="-254.95" font-family="Times New Roman,serif" font-size="14.00">Text</text>
</g>
<!-- 0&#45;&gt;1 -->
<g id="edge1" class="edge">
<title>0&#45;&gt;1</title>
<path fill="none" stroke="black" d="M100.36,-129.85C128.83,-156.84 182.8,-207.99 213.93,-237.49"/>
<polygon fill="black" stroke="black" points="211.3,-239.82 220.96,-244.16 216.11,-234.74 211.3,-239.82"/>
</g>
<!-- 3 -->
<!-- name: &quot;Position&quot;, typeName: &quot;&quot;, id: 3, branchId: 0, recurseId: &#45;1, attributes: 0, notes: &quot;Position for where the debug cube should show up&quot; -->
<g id="node4" class="node">
<title>3</title>
<ellipse fill="none" stroke="black" cx="238.68" cy="-166" rx="41.12" ry="18"/>
<text xml:space="preserve" text-anchor="middle" x="238.68" y="-160.95" font-family="Times New Roman,serif" font-size="14.00">Position</text>
</g>
<!-- 0&#45;&gt;3 -->
<g id="edge3" class="edge">
<title>0&#45;&gt;3</title>
<path fill="none" stroke="black" d="M125.85,-127.33C147.51,-134.82 173.45,-143.79 194.89,-151.2"/>
<polygon fill="black" stroke="black" points="193.62,-154.47 204.22,-154.43 195.91,-147.85 193.62,-154.47"/>
</g>
<!-- 10 -->
<!-- name: &quot;Color&quot;, typeName: &quot;&quot;, id: 10, branchId: 0, recurseId: &#45;1, attributes: 0, notes: &quot;Color of the debug cube to show&quot; -->
<g id="node11" class="node">
<title>10</title>
<ellipse fill="none" stroke="black" cx="238.68" cy="-85" rx="31.9" ry="18"/>
<text xml:space="preserve" text-anchor="middle" x="238.68" y="-79.95" font-family="Times New Roman,serif" font-size="14.00">Color</text>
</g>
<!-- 0&#45;&gt;10 -->
<g id="edge10" class="edge">
<title>0&#45;&gt;10</title>
<path fill="none" stroke="black" d="M145.04,-101.02C162.57,-97.99 181.11,-94.78 196.97,-92.04"/>
<polygon fill="black" stroke="black" points="197.23,-95.54 206.49,-90.39 196.04,-88.65 197.23,-95.54"/>
</g>
<!-- 13 -->
<!-- name: &quot;duration&quot;, typeName: &quot;&quot;, id: 13, branchId: 0, recurseId: &#45;1, attributes: 0, notes: &quot;Duration (milliseconds) of the debug cube to show&quot; -->
<g id="node14" class="node">
<title>13</title>
<ellipse fill="none" stroke="black" cx="238.68" cy="-31" rx="41.63" ry="18"/>
<text xml:space="preserve" text-anchor="middle" x="238.68" y="-25.95" font-family="Times New Roman,serif" font-size="14.00">duration</text>
</g>
<!-- 0&#45;&gt;13 -->
<g id="edge13" class="edge">
<title>0&#45;&gt;13</title>
<path fill="none" stroke="black" d="M113.88,-95.22C139.27,-82.04 174.63,-63.7 201.06,-49.99"/>
<polygon fill="black" stroke="black" points="202.46,-53.21 209.72,-45.5 199.24,-47 202.46,-53.21"/>
</g>
<!-- 2 -->
<!-- name: &quot;string&quot;, typeName: &quot;&quot;, id: 2, branchId: 0, recurseId: &#45;1, attributes: 512, notes: &quot;String for what text to show at the location&quot; -->
<g id="node3" class="node">
<title>2</title>
<ellipse fill="none" stroke="black" cx="481.79" cy="-288" rx="31.9" ry="18"/>
<text xml:space="preserve" text-anchor="middle" x="481.79" y="-282.95" font-family="Times New Roman,serif" font-size="14.00">string</text>
</g>
<!-- 1&#45;&gt;2 -->
<g id="edge2" class="edge">
<title>1&#45;&gt;2</title>
<path fill="none" stroke="black" d="M265.94,-263.05C307.52,-267.88 388.89,-277.33 438.69,-283.11"/>
<polygon fill="black" stroke="black" points="438.18,-286.58 448.52,-284.25 438.99,-279.62 438.18,-286.58"/>
</g>
<!-- 4 -->
<!-- name: &quot;X&quot;, typeName: &quot;&quot;, id: 4, branchId: 0, recurseId: &#45;1, attributes: 0, notes: &quot;&quot; -->
<g id="node5" class="node">
<title>4</title>
<ellipse fill="none" stroke="black" cx="348.21" cy="-234" rx="27" ry="18"/>
<text xml:space="preserve" text-anchor="middle" x="348.21" y="-228.95" font-family="Times New Roman,serif" font-size="14.00">X</text>
</g>
<!-- 3&#45;&gt;4 -->
<g id="edge4" class="edge">
<title>3&#45;&gt;4</title>
<path fill="none" stroke="black" d="M263.01,-180.75C279.22,-191.01 300.94,-204.74 318.26,-215.69"/>
<polygon fill="black" stroke="black" points="316.27,-218.58 326.59,-220.96 320.01,-212.66 316.27,-218.58"/>
</g>
<!-- 6 -->
<!-- name: &quot;Y&quot;, typeName: &quot;&quot;, id: 6, branchId: 0, recurseId: &#45;1, attributes: 0, notes: &quot;&quot; -->
<g id="node7" class="node">
<title>6</title>
<ellipse fill="none" stroke="black" cx="348.21" cy="-180" rx="27" ry="18"/>
<text xml:space="preserve" text-anchor="middle" x="348.21" y="-174.95" font-family="Times New Roman,serif" font-size="14.00">Y</text>
</g>
<!-- 3&#45;&gt;6 -->
<g id="edge6" class="edge">
<title>3&#45;&gt;6</title>
<path fill="none" stroke="black" d="M278.5,-171.05C288.7,-172.38 299.69,-173.81 309.81,-175.13"/>
<polygon fill="black" stroke="black" points="309.34,-178.6 319.71,-176.42 310.24,-171.66 309.34,-178.6"/>
</g>
<!-- 8 -->
<!-- name: &quot;Z&quot;, typeName: &quot;&quot;, id: 8, branchId: 0, recurseId: &#45;1, attributes: 0, notes: &quot;&quot; -->
<g id="node9" class="node">
<title>8</title>
<ellipse fill="none" stroke="black" cx="348.21" cy="-126" rx="27" ry="18"/>
<text xml:space="preserve" text-anchor="middle" x="348.21" y="-120.95" font-family="Times New Roman,serif" font-size="14.00">Z</text>
</g>
<!-- 3&#45;&gt;8 -->
<g id="edge8" class="edge">
<title>3&#45;&gt;8</title>
<path fill="none" stroke="black" d="M270.78,-154.43C284.19,-149.44 299.9,-143.6 313.58,-138.51"/>
<polygon fill="black" stroke="black" points="314.46,-141.91 322.61,-135.15 312.02,-135.35 314.46,-141.91"/>
</g>
<!-- 5 -->
<!-- name: &quot;float&quot;, typeName: &quot;&quot;, id: 5, branchId: 0, recurseId: &#45;1, attributes: 512, notes: &quot;&quot; -->
<g id="node6" class="node">
<title>5</title>
<ellipse fill="none" stroke="black" cx="481.79" cy="-234" rx="27.81" ry="18"/>
<text xml:space="preserve" text-anchor="middle" x="481.79" y="-228.95" font-family="Times New Roman,serif" font-size="14.00">float</text>
</g>
<!-- 4&#45;&gt;5 -->
<g id="edge5" class="edge">
<title>4&#45;&gt;5</title>
<path fill="none" stroke="black" d="M375.52,-234C394.63,-234 420.79,-234 442.25,-234"/>
<polygon fill="black" stroke="black" points="442.11,-237.5 452.11,-234 442.11,-230.5 442.11,-237.5"/>
</g>
<!-- 7 -->
<!-- name: &quot;float&quot;, typeName: &quot;&quot;, id: 7, branchId: 0, recurseId: &#45;1, attributes: 512, notes: &quot;&quot; -->
<g id="node8" class="node">
<title>7</title>
<ellipse fill="none" stroke="black" cx="481.79" cy="-180" rx="27.81" ry="18"/>
<text xml:space="preserve" text-anchor="middle" x="481.79" y="-174.95" font-family="Times New Roman,serif" font-size="14.00">float</text>
</g>
<!-- 6&#45;&gt;7 -->
<g id="edge7" class="edge">
<title>6&#45;&gt;7</title>
<path fill="none" stroke="black" d="M375.52,-180C394.63,-180 420.79,-180 442.25,-180"/>
<polygon fill="black" stroke="black" points="442.11,-183.5 452.11,-180 442.11,-176.5 442.11,-183.5"/>
</g>
<!-- 9 -->
<!-- name: &quot;float&quot;, typeName: &quot;&quot;, id: 9, branchId: 0, recurseId: &#45;1, attributes: 512, notes: &quot;&quot; -->
<g id="node10" class="node">
<title>9</title>
<ellipse fill="none" stroke="black" cx="481.79" cy="-126" rx="27.81" ry="18"/>
<text xml:space="preserve" text-anchor="middle" x="481.79" y="-120.95" font-family="Times New Roman,serif" font-size="14.00">float</text>
</g>
<!-- 8&#45;&gt;9 -->
<g id="edge9" class="edge">
<title>8&#45;&gt;9</title>
<path fill="none" stroke="black" d="M375.52,-126C394.63,-126 420.79,-126 442.25,-126"/>
<polygon fill="black" stroke="black" points="442.11,-129.5 452.11,-126 442.11,-122.5 442.11,-129.5"/>
</g>
<!-- 11 -->
<!-- name: &quot;Color&quot;, typeName: &quot;&quot;, id: 11, branchId: 0, recurseId: &#45;1, attributes: 0, notes: &quot;&quot; -->
<g id="node12" class="node">
<title>11</title>
<ellipse fill="none" stroke="black" cx="348.21" cy="-72" rx="31.9" ry="18"/>
<text xml:space="preserve" text-anchor="middle" x="348.21" y="-66.95" font-family="Times New Roman,serif" font-size="14.00">Color</text>
</g>
<!-- 10&#45;&gt;11 -->
<g id="edge11" class="edge">
<title>10&#45;&gt;11</title>
<path fill="none" stroke="black" d="M270.2,-81.31C281.1,-79.99 293.57,-78.48 305.26,-77.07"/>
<polygon fill="black" stroke="black" points="305.59,-80.56 315.1,-75.88 304.75,-73.61 305.59,-80.56"/>
</g>
<!-- 12 -->
<!-- name: &quot;int&quot;, typeName: &quot;&quot;, id: 12, branchId: 0, recurseId: &#45;1, attributes: 512, notes: &quot;&quot; -->
<g id="node13" class="node">
<title>12</title>
<ellipse fill="none" stroke="black" cx="481.79" cy="-72" rx="27" ry="18"/>
<text xml:space="preserve" text-anchor="middle" x="481.79" y="-66.95" font-family="Times New Roman,serif" font-size="14.00">int</text>
</g>
<!-- 11&#45;&gt;12 -->
<g id="edge12" class="edge">
<title>11&#45;&gt;12</title>
<path fill="none" stroke="black" d="M380.39,-72C399.23,-72 423.37,-72 443.26,-72"/>
<polygon fill="black" stroke="black" points="443.19,-75.5 453.19,-72 443.19,-68.5 443.19,-75.5"/>
</g>
<!-- 14 -->
<!-- name: &quot;unsigned int64&quot;, typeName: &quot;&quot;, id: 14, branchId: 0, recurseId: &#45;1, attributes: 512, notes: &quot;Duration (milliseconds) of the debug cube to show&quot; -->
<g id="node15" class="node">
<title>14</title>
<ellipse fill="none" stroke="black" cx="481.79" cy="-18" rx="65.68" ry="18"/>
<text xml:space="preserve" text-anchor="middle" x="481.79" y="-12.95" font-family="Times New Roman,serif" font-size="14.00">unsigned int64</text>
</g>
<!-- 13&#45;&gt;14 -->
<g id="edge14" class="edge">
<title>13&#45;&gt;14</title>
<path fill="none" stroke="black" d="M280.31,-28.81C314.41,-26.97 364.04,-24.29 405.39,-22.07"/>
<polygon fill="black" stroke="black" points="405.51,-25.56 415.31,-21.53 405.13,-18.57 405.51,-25.56"/>
</g>
</g>
</svg>
