<?xml version="1.0" encoding="UTF-8" standalone="no"?>
<!DOCTYPE svg PUBLIC "-//W3C//DTD SVG 1.1//EN"
 "http://www.w3.org/Graphics/SVG/1.1/DTD/svg11.dtd">
<!-- Generated by graphviz version 14.1.5 (20260411.2331)
 -->
<!-- Title: DimensionDefinitionGroup::DimensionDefinition Pages: 1 -->
<svg width="696pt" height="206pt"
 viewBox="0.00 0.00 696.00 206.00" xmlns="http://www.w3.org/2000/svg" xmlns:xlink="http://www.w3.org/1999/xlink">
<g id="graph0" class="graph" transform="scale(1 1) rotate(0) translate(4 202)">
<title>DimensionDefinitionGroup::DimensionDefinition</title>
<polygon fill="white" stroke="none" points="-4,4 -4,-202 692.22,-202 692.22,4 -4,4"/>
<!-- 10 -->
<!-- name: &quot;DimensionDefinitionGroup::DimensionDefinition&quot;, typeName: &quot;&quot;, id: 10, branchId: 0, recurseId: &#45;1, attributes: 0, notes: &quot;&quot; -->
<g id="node1" class="node">
<title>10</title>
<ellipse fill="none" stroke="black" cx="197.22" cy="-99" rx="197.22" ry="18"/>
<text xml:space="preserve" text-anchor="middle" x="197.22" y="-93.95" font-family="Times New Roman,serif" font-size="14.00">DimensionDefinitionGroup::DimensionDefinition</text>
</g>
<!-- 11 -->
<!-- name: &quot;Height Maximum&quot;, typeName: &quot;&quot;, id: 11, branchId: 0, recurseId: &#45;1, attributes: 0, notes: &quot;&quot; -->
<g id="node2" class="node">
<title>11</title>
<ellipse fill="none" stroke="black" cx="508.91" cy="-180" rx="78.48" ry="18"/>
<text xml:space="preserve" text-anchor="middle" x="508.91" y="-174.95" font-family="Times New Roman,serif" font-size="14.00">Height Maximum</text>
</g>
<!-- 10&#45;&gt;11 -->
<g id="edge1" class="edge">
<title>10&#45;&gt;11</title>
<path fill="none" stroke="black" d="M264.65,-116.38C318.08,-130.35 392.63,-149.85 445.08,-163.57"/>
<polygon fill="black" stroke="black" points="443.89,-166.87 454.46,-166.02 445.67,-160.1 443.89,-166.87"/>
</g>
<!-- 13 -->
<!-- name: &quot;Height Minimum&quot;, typeName: &quot;&quot;, id: 13, branchId: 0, recurseId: &#45;1, attributes: 0, notes: &quot;&quot; -->
<g id="node4" class="node">
<title>13</title>
<ellipse fill="none" stroke="black" cx="508.91" cy="-126" rx="76.94" ry="18"/>
<text xml:space="preserve" text-anchor="middle" x="508.91" y="-120.95" font-family="Times New Roman,serif" font-size="14.00">Height Minimum</text>
</g>
<!-- 10&#45;&gt;13 -->
<g id="edge3" class="edge">
<title>10&#45;&gt;13</title>
<path fill="none" stroke="black" d="M342.18,-111.55C370.54,-114.02 399.38,-116.54 424.89,-118.76"/>
<polygon fill="black" stroke="black" points="424.58,-122.25 434.85,-119.63 425.19,-115.27 424.58,-122.25"/>
</g>
<!-- 15 -->
<!-- name: &quot;Generator Type&quot;, typeName: &quot;&quot;, id: 15, branchId: 0, recurseId: &#45;1, attributes: 0, notes: &quot;&quot; -->
<g id="node6" class="node">
<title>15</title>
<ellipse fill="none" stroke="black" cx="508.91" cy="-72" rx="68.24" ry="18"/>
<text xml:space="preserve" text-anchor="middle" x="508.91" y="-66.95" font-family="Times New Roman,serif" font-size="14.00">Generator Type</text>
</g>
<!-- 10&#45;&gt;15 -->
<g id="edge5" class="edge">
<title>10&#45;&gt;15</title>
<path fill="none" stroke="black" d="M342.18,-86.45C373.28,-83.74 404.97,-80.97 432.19,-78.6"/>
<polygon fill="black" stroke="black" points="432.41,-82.1 442.06,-77.74 431.8,-75.12 432.41,-82.1"/>
</g>
<!-- 17 -->
<!-- name: &quot;Dimension Type&quot;, typeName: &quot;&quot;, id: 17, branchId: 0, recurseId: &#45;1, attributes: 0, notes: &quot;&quot; -->
<g id="node8" class="node">
<title>17</title>
<ellipse fill="none" stroke="black" cx="508.91" cy="-18" rx="72.34" ry="18"/>
<text xml:space="preserve" text-anchor="middle" x="508.91" y="-12.95" font-family="Times New Roman,serif" font-size="14.00">Dimension Type</text>
</g>
<!-- 10&#45;&gt;17 -->
<g id="edge7" class="edge">
<title>10&#45;&gt;17</title>
<path fill="none" stroke="black" d="M264.65,-81.62C318.75,-67.48 394.49,-47.67 447.02,-33.93"/>
<polygon fill="black" stroke="black" points="447.61,-37.39 456.4,-31.47 445.84,-30.62 447.61,-37.39"/>
</g>
<!-- 12 -->
<!-- name: &quot;varint&quot;, typeName: &quot;&quot;, id: 12, branchId: 0, recurseId: &#45;1, attributes: 512, notes: &quot;&quot; -->
<g id="node3" class="node">
<title>12</title>
<ellipse fill="none" stroke="black" cx="655.8" cy="-180" rx="32.41" ry="18"/>
<text xml:space="preserve" text-anchor="middle" x="655.8" y="-174.95" font-family="Times New Roman,serif" font-size="14.00">varint</text>
</g>
<!-- 11&#45;&gt;12 -->
<g id="edge2" class="edge">
<title>11&#45;&gt;12</title>
<path fill="none" stroke="black" d="M587.87,-180C596.05,-180 604.13,-180 611.7,-180"/>
<polygon fill="black" stroke="black" points="611.59,-183.5 621.59,-180 611.59,-176.5 611.59,-183.5"/>
</g>
<!-- 14 -->
<!-- name: &quot;varint&quot;, typeName: &quot;&quot;, id: 14, branchId: 0, recurseId: &#45;1, attributes: 512, notes: &quot;&quot; -->
<g id="node5" class="node">
<title>14</title>
<ellipse fill="none" stroke="black" cx="655.8" cy="-126" rx="32.41" ry="18"/>
<text xml:space="preserve" text-anchor="middle" x="655.8" y="-120.95" font-family="Times New Roman,serif" font-size="14.00">varint</text>
</g>
<!-- 13&#45;&gt;14 -->
<g id="edge4" class="edge">
<title>13&#45;&gt;14</title>
<path fill="none" stroke="black" d="M586.18,-126C594.97,-126 603.69,-126 611.81,-126"/>
<polygon fill="black" stroke="black" points="611.72,-129.5 621.72,-126 611.72,-122.5 611.72,-129.5"/>
</g>
<!-- 16 -->
<!-- name: &quot;varint&quot;, typeName: &quot;&quot;, id: 16, branchId: 0, recurseId: &#45;1, attributes: 512, notes: &quot;&quot; -->
<g id="node7" class="node">
<title>16</title>
<ellipse fill="none" stroke="black" cx="655.8" cy="-72" rx="32.41" ry="18"/>
<text xml:space="preserve" text-anchor="middle" x="655.8" y="-66.95" font-family="Times New Roman,serif" font-size="14.00">varint</text>
</g>
<!-- 15&#45;&gt;16 -->
<g id="edge6" class="edge">
<title>15&#45;&gt;16</title>
<path fill="none" stroke="black" d="M577.27,-72C588.99,-72 600.89,-72 611.73,-72"/>
<polygon fill="black" stroke="black" points="611.51,-75.5 621.51,-72 611.51,-68.5 611.51,-75.5"/>
</g>
<!-- 18 -->
<!-- name: &quot;varint&quot;, typeName: &quot;&quot;, id: 18, branchId: 0, recurseId: &#45;1, attributes: 512, notes: &quot;&quot; -->
<g id="node9" class="node">
<title>18</title>
<ellipse fill="none" stroke="black" cx="655.8" cy="-18" rx="32.41" ry="18"/>
<text xml:space="preserve" text-anchor="middle" x="655.8" y="-12.95" font-family="Times New Roman,serif" font-size="14.00">varint</text>
</g>
<!-- 17&#45;&gt;18 -->
<g id="edge8" class="edge">
<title>17&#45;&gt;18</title>
<path fill="none" stroke="black" d="M581.51,-18C591.73,-18 601.98,-18 611.44,-18"/>
<polygon fill="black" stroke="black" points="611.42,-21.5 621.42,-18 611.42,-14.5 611.42,-21.5"/>
</g>
</g>
</svg>
