<?xml version="1.0" encoding="UTF-8" standalone="no"?>
<!DOCTYPE svg PUBLIC "-//W3C//DTD SVG 1.1//EN"
 "http://www.w3.org/Graphics/SVG/1.1/DTD/svg11.dtd">
<!-- Generated by graphviz version 2.46.1 (20210213.1702)
 -->
<!-- Title: DimensionDefinitionGroup Pages: 1 -->
<svg width="1156pt" height="152pt"
 viewBox="0.00 0.00 1155.51 152.00" xmlns="http://www.w3.org/2000/svg" xmlns:xlink="http://www.w3.org/1999/xlink">
<g id="graph0" class="graph" transform="scale(1 1) rotate(0) translate(4 148)">
<title>DimensionDefinitionGroup</title>
<polygon fill="white" stroke="transparent" points="-4,4 -4,-148 1151.51,-148 1151.51,4 -4,4"/>
<!-- 2 -->
<!-- name: &quot;DimensionDefinitionGroup&quot;, typeName: &quot;&quot;, id: 2, branchId: 0, recurseId: &#45;1, attributes: 0, notes: &quot;&quot; -->
<g id="node1" class="node">
<title>2</title>
<ellipse fill="none" stroke="black" cx="108.54" cy="-99" rx="108.58" ry="18"/>
<text text-anchor="middle" x="108.54" y="-95.3" font-family="Times New Roman,serif" font-size="14.00">DimensionDefinitionGroup</text>
</g>
<!-- 3 -->
<!-- name: &quot;Definitions&quot;, typeName: &quot;&quot;, id: 3, branchId: 0, recurseId: &#45;1, attributes: 8, notes: &quot;&quot; -->
<g id="node2" class="node">
<title>3</title>
<ellipse fill="none" stroke="black" cx="303.13" cy="-99" rx="50.09" ry="18"/>
<text text-anchor="middle" x="303.13" y="-95.3" font-family="Times New Roman,serif" font-size="14.00">Definitions</text>
</g>
<!-- 2&#45;&gt;3 -->
<g id="edge1" class="edge">
<title>2&#45;&gt;3</title>
<path fill="none" stroke="black" d="M217.09,-99C225.82,-99 234.42,-99 242.6,-99"/>
<polygon fill="black" stroke="black" points="242.72,-102.5 252.72,-99 242.72,-95.5 242.72,-102.5"/>
</g>
<!-- 4 -->
<!-- name: &quot;Array Size&quot;, typeName: &quot;&quot;, id: 4, branchId: 0, recurseId: &#45;1, attributes: 0, notes: &quot;&quot; -->
<g id="node3" class="node">
<title>4</title>
<ellipse fill="none" stroke="black" cx="459.37" cy="-126" rx="48.99" ry="18"/>
<text text-anchor="middle" x="459.37" y="-122.3" font-family="Times New Roman,serif" font-size="14.00">Array Size</text>
</g>
<!-- 3&#45;&gt;4 -->
<g id="edge2" class="edge">
<title>3&#45;&gt;4</title>
<path fill="none" stroke="black" d="M348.33,-106.74C365.98,-109.83 386.46,-113.41 404.93,-116.65"/>
<polygon fill="black" stroke="black" points="404.51,-120.12 414.96,-118.4 405.71,-113.23 404.51,-120.12"/>
</g>
<!-- 6 -->
<!-- name: &quot;example element&quot;, typeName: &quot;&quot;, id: 6, branchId: 0, recurseId: &#45;1, attributes: 16, notes: &quot;&quot; -->
<g id="node5" class="node">
<title>6</title>
<ellipse fill="none" stroke="black" stroke-dasharray="1,5" cx="459.37" cy="-72" rx="70.39" ry="18"/>
<text text-anchor="middle" x="459.37" y="-68.3" font-family="Times New Roman,serif" font-size="14.00">example element</text>
</g>
<!-- 3&#45;&gt;6 -->
<g id="edge4" class="edge">
<title>3&#45;&gt;6</title>
<path fill="none" stroke="black" d="M348.33,-91.26C361.63,-88.93 376.55,-86.32 391.01,-83.79"/>
<polygon fill="black" stroke="black" points="391.67,-87.23 400.91,-82.06 390.46,-80.33 391.67,-87.23"/>
</g>
<!-- 5 -->
<!-- name: &quot;unsigned varint&quot;, typeName: &quot;&quot;, id: 5, branchId: 0, recurseId: &#45;1, attributes: 512, notes: &quot;&quot; -->
<g id="node4" class="node">
<title>5</title>
<ellipse fill="none" stroke="black" cx="961.63" cy="-126" rx="65.79" ry="18"/>
<text text-anchor="middle" x="961.63" y="-122.3" font-family="Times New Roman,serif" font-size="14.00">unsigned varint</text>
</g>
<!-- 4&#45;&gt;5 -->
<g id="edge3" class="edge">
<title>4&#45;&gt;5</title>
<path fill="none" stroke="black" d="M508.33,-126C595.67,-126 781.2,-126 885.47,-126"/>
<polygon fill="black" stroke="black" points="885.61,-129.5 895.61,-126 885.61,-122.5 885.61,-129.5"/>
</g>
<!-- 7 -->
<!-- name: &quot;Name String&quot;, typeName: &quot;&quot;, id: 7, branchId: 0, recurseId: &#45;1, attributes: 0, notes: &quot;&quot; -->
<g id="node6" class="node">
<title>7</title>
<ellipse fill="none" stroke="black" cx="652.65" cy="-72" rx="55.79" ry="18"/>
<text text-anchor="middle" x="652.65" y="-68.3" font-family="Times New Roman,serif" font-size="14.00">Name String</text>
</g>
<!-- 6&#45;&gt;7 -->
<g id="edge5" class="edge">
<title>6&#45;&gt;7</title>
<path fill="none" stroke="black" d="M529.69,-72C548.19,-72 568.11,-72 586.39,-72"/>
<polygon fill="black" stroke="black" points="586.64,-75.5 596.64,-72 586.64,-68.5 586.64,-75.5"/>
</g>
<!-- 9 -->
<!-- name: &quot;Dimension Definition&quot;, typeName: &quot;DimensionDefinitionGroup::DimensionDefinition&quot;, id: 9, branchId: 0, recurseId: &#45;1, attributes: 256, notes: &quot;&quot; -->
<g id="node8" class="node">
<title>9</title>
<ellipse fill="none" stroke="black" cx="652.65" cy="-18" rx="87.18" ry="18"/>
<text text-anchor="middle" x="652.65" y="-14.3" font-family="Times New Roman,serif" font-size="14.00">Dimension Definition</text>
</g>
<!-- 6&#45;&gt;9 -->
<g id="edge7" class="edge">
<title>6&#45;&gt;9</title>
<path fill="none" stroke="black" d="M507.16,-58.79C532.28,-51.7 563.54,-42.87 590.56,-35.25"/>
<polygon fill="black" stroke="black" points="591.63,-38.58 600.3,-32.5 589.73,-31.84 591.63,-38.58"/>
</g>
<!-- 8 -->
<!-- name: &quot;string&quot;, typeName: &quot;&quot;, id: 8, branchId: 0, recurseId: &#45;1, attributes: 512, notes: &quot;&quot; -->
<g id="node7" class="node">
<title>8</title>
<ellipse fill="none" stroke="black" cx="961.63" cy="-72" rx="30.59" ry="18"/>
<text text-anchor="middle" x="961.63" y="-68.3" font-family="Times New Roman,serif" font-size="14.00">string</text>
</g>
<!-- 7&#45;&gt;8 -->
<g id="edge6" class="edge">
<title>7&#45;&gt;8</title>
<path fill="none" stroke="black" d="M708.89,-72C769.9,-72 866.64,-72 920.7,-72"/>
<polygon fill="black" stroke="black" points="920.92,-75.5 930.92,-72 920.92,-68.5 920.92,-75.5"/>
</g>
<!-- 17 -->
<!-- name: &quot;DimensionDefinitionGroup::DimensionDefinition&quot;, typeName: &quot;&quot;, id: 17, branchId: 0, recurseId: &#45;1, attributes: 512, notes: &quot;&quot; -->
<g id="node9" class="node">
<title>17</title>
<ellipse fill="none" stroke="black" cx="961.63" cy="-18" rx="185.77" ry="18"/>
<text text-anchor="middle" x="961.63" y="-14.3" font-family="Times New Roman,serif" font-size="14.00">DimensionDefinitionGroup::DimensionDefinition</text>
</g>
<!-- 9&#45;&gt;17 -->
<g id="edge8" class="edge">
<title>9&#45;&gt;17</title>
<path fill="none" stroke="black" d="M739.98,-18C748.14,-18 756.61,-18 765.27,-18"/>
<polygon fill="black" stroke="black" points="765.53,-21.5 775.53,-18 765.53,-14.5 765.53,-21.5"/>
</g>
</g>
</svg>
