<?xml version="1.0" encoding="UTF-8" standalone="no"?>
<!DOCTYPE svg PUBLIC "-//W3C//DTD SVG 1.1//EN"
 "http://www.w3.org/Graphics/SVG/1.1/DTD/svg11.dtd">
<!-- Generated by graphviz version 14.1.1 (20251213.1925)
 -->
<!-- Title: DimensionType Pages: 1 -->
<svg width="347pt" height="44pt"
 viewBox="0.00 0.00 347.00 44.00" xmlns="http://www.w3.org/2000/svg" xmlns:xlink="http://www.w3.org/1999/xlink">
<g id="graph0" class="graph" transform="scale(1 1) rotate(0) translate(4 40)">
<title>DimensionType</title>
<polygon fill="white" stroke="none" points="-4,4 -4,-40 343.16,-40 343.16,4 -4,4"/>
<!-- 0 -->
<!-- name: &quot;DimensionType&quot;, typeName: &quot;&quot;, id: 0, branchId: 0, recurseId: &#45;1, attributes: 0, notes: &quot;&quot; -->
<g id="node1" class="node">
<title>0</title>
<ellipse fill="none" stroke="black" cx="70.29" cy="-18" rx="70.29" ry="18"/>
<text xml:space="preserve" text-anchor="middle" x="70.29" y="-12.95" font-family="Times New Roman,serif" font-size="14.00">DimensionType</text>
</g>
<!-- 1 -->
<!-- name: &quot;value&quot;, typeName: &quot;&quot;, id: 1, branchId: 0, recurseId: &#45;1, attributes: 0, notes: &quot;&quot; -->
<g id="node2" class="node">
<title>1</title>
<ellipse fill="none" stroke="black" cx="207.46" cy="-18" rx="30.88" ry="18"/>
<text xml:space="preserve" text-anchor="middle" x="207.46" y="-12.95" font-family="Times New Roman,serif" font-size="14.00">value</text>
</g>
<!-- 0&#45;&gt;1 -->
<g id="edge1" class="edge">
<title>0&#45;&gt;1</title>
<path fill="none" stroke="black" d="M140.85,-18C149,-18 157.11,-18 164.71,-18"/>
<polygon fill="black" stroke="black" points="164.65,-21.5 174.65,-18 164.65,-14.5 164.65,-21.5"/>
</g>
<!-- 2 -->
<!-- name: &quot;varint&quot;, typeName: &quot;&quot;, id: 2, branchId: 0, recurseId: &#45;1, attributes: 512, notes: &quot;&quot; -->
<g id="node3" class="node">
<title>2</title>
<ellipse fill="none" stroke="black" cx="306.75" cy="-18" rx="32.41" ry="18"/>
<text xml:space="preserve" text-anchor="middle" x="306.75" y="-12.95" font-family="Times New Roman,serif" font-size="14.00">varint</text>
</g>
<!-- 1&#45;&gt;2 -->
<g id="edge2" class="edge">
<title>1&#45;&gt;2</title>
<path fill="none" stroke="black" d="M238.71,-18C246.37,-18 254.74,-18 262.89,-18"/>
<polygon fill="black" stroke="black" points="262.66,-21.5 272.66,-18 262.66,-14.5 262.66,-21.5"/>
</g>
</g>
</svg>
