<?xml version="1.0" encoding="UTF-8" standalone="no"?>
<!DOCTYPE svg PUBLIC "-//W3C//DTD SVG 1.1//EN"
 "http://www.w3.org/Graphics/SVG/1.1/DTD/svg11.dtd">
<!-- Generated by graphviz version 12.2.1 (20241206.2353)
 -->
<!-- Title: DimensionDataPacket Pages: 1 -->
<svg width="731pt" height="44pt"
 viewBox="0.00 0.00 731.02 44.00" xmlns="http://www.w3.org/2000/svg" xmlns:xlink="http://www.w3.org/1999/xlink">
<g id="graph0" class="graph" transform="scale(1 1) rotate(0) translate(4 40)">
<title>DimensionDataPacket</title>
<polygon fill="white" stroke="none" points="-4,4 -4,-40 727.02,-40 727.02,4 -4,4"/>
<!-- 0 -->
<!-- name: &quot;DimensionDataPacket&quot;, typeName: &quot;&quot;, id: 0, branchId: 180, recurseId: &#45;1, attributes: 0, notes: &quot;&quot; -->
<g id="node1" class="node">
<title>0</title>
<ellipse fill="none" stroke="black" cx="93.83" cy="-18" rx="93.83" ry="18"/>
<text text-anchor="middle" x="93.83" y="-12.95" font-family="Times New Roman,serif" font-size="14.00">DimensionDataPacket</text>
</g>
<!-- 1 -->
<!-- name: &quot;Dimension Definition Group&quot;, typeName: &quot;DimensionDefinitionGroup&quot;, id: 1, branchId: 0, recurseId: &#45;1, attributes: 256, notes: &quot;&quot; -->
<g id="node2" class="node">
<title>1</title>
<ellipse fill="none" stroke="black" cx="342.06" cy="-18" rx="118.4" ry="18"/>
<text text-anchor="middle" x="342.06" y="-12.95" font-family="Times New Roman,serif" font-size="14.00">Dimension Definition Group</text>
</g>
<!-- 0&#45;&gt;1 -->
<g id="edge1" class="edge">
<title>0&#45;&gt;1</title>
<path fill="none" stroke="black" d="M187.92,-18C195.79,-18 203.83,-18 211.91,-18"/>
<polygon fill="black" stroke="black" points="211.82,-21.5 221.82,-18 211.82,-14.5 211.82,-21.5"/>
</g>
<!-- 18 -->
<!-- name: &quot;DimensionDefinitionGroup&quot;, typeName: &quot;&quot;, id: 18, branchId: 0, recurseId: &#45;1, attributes: 512, notes: &quot;&quot; -->
<g id="node3" class="node">
<title>18</title>
<ellipse fill="none" stroke="black" cx="609.74" cy="-18" rx="113.28" ry="18"/>
<text text-anchor="middle" x="609.74" y="-12.95" font-family="Times New Roman,serif" font-size="14.00">DimensionDefinitionGroup</text>
</g>
<!-- 1&#45;&gt;18 -->
<g id="edge2" class="edge">
<title>1&#45;&gt;18</title>
<path fill="none" stroke="black" d="M460.75,-18C468.77,-18 476.86,-18 484.91,-18"/>
<polygon fill="black" stroke="black" points="484.74,-21.5 494.74,-18 484.74,-14.5 484.74,-21.5"/>
</g>
</g>
</svg>
