<?xml version="1.0" encoding="UTF-8" standalone="no"?>
<!DOCTYPE svg PUBLIC "-//W3C//DTD SVG 1.1//EN"
 "http://www.w3.org/Graphics/SVG/1.1/DTD/svg11.dtd">
<!-- Generated by graphviz version 14.1.5 (20260411.2331)
 -->
<!-- Title: DisconnectPacketMessages Pages: 1 -->
<svg width="520pt" height="98pt"
 viewBox="0.00 0.00 520.00 98.00" xmlns="http://www.w3.org/2000/svg" xmlns:xlink="http://www.w3.org/1999/xlink">
<g id="graph0" class="graph" transform="scale(1 1) rotate(0) translate(4 94)">
<title>DisconnectPacketMessages</title>
<polygon fill="white" stroke="none" points="-4,4 -4,-94 516.15,-94 516.15,4 -4,4"/>
<!-- 0 -->
<!-- name: &quot;DisconnectPacketMessages&quot;, typeName: &quot;&quot;, id: 0, branchId: 0, recurseId: &#45;1, attributes: 0, notes: &quot;&quot; -->
<g id="node1" class="node">
<title>0</title>
<ellipse fill="none" stroke="black" cx="113.28" cy="-45" rx="113.28" ry="18"/>
<text xml:space="preserve" text-anchor="middle" x="113.28" y="-39.95" font-family="Times New Roman,serif" font-size="14.00">DisconnectPacketMessages</text>
</g>
<!-- 1 -->
<!-- name: &quot;Message&quot;, typeName: &quot;&quot;, id: 1, branchId: 0, recurseId: &#45;1, attributes: 0, notes: &quot;&quot; -->
<g id="node2" class="node">
<title>1</title>
<ellipse fill="none" stroke="black" cx="337.45" cy="-72" rx="43.67" ry="18"/>
<text xml:space="preserve" text-anchor="middle" x="337.45" y="-66.95" font-family="Times New Roman,serif" font-size="14.00">Message</text>
</g>
<!-- 0&#45;&gt;1 -->
<g id="edge1" class="edge">
<title>0&#45;&gt;1</title>
<path fill="none" stroke="black" d="M204.65,-55.98C231.59,-59.26 260.23,-62.74 283.9,-65.61"/>
<polygon fill="black" stroke="black" points="283.24,-69.06 293.59,-66.79 284.08,-62.11 283.24,-69.06"/>
</g>
<!-- 3 -->
<!-- name: &quot;Filtered Message&quot;, typeName: &quot;&quot;, id: 3, branchId: 0, recurseId: &#45;1, attributes: 0, notes: &quot;&quot; -->
<g id="node4" class="node">
<title>3</title>
<ellipse fill="none" stroke="black" cx="337.45" cy="-18" rx="74.89" ry="18"/>
<text xml:space="preserve" text-anchor="middle" x="337.45" y="-12.95" font-family="Times New Roman,serif" font-size="14.00">Filtered Message</text>
</g>
<!-- 0&#45;&gt;3 -->
<g id="edge3" class="edge">
<title>0&#45;&gt;3</title>
<path fill="none" stroke="black" d="M204.65,-34.02C222.58,-31.84 241.27,-29.57 258.74,-27.44"/>
<polygon fill="black" stroke="black" points="259.01,-30.94 268.52,-26.26 258.17,-23.99 259.01,-30.94"/>
</g>
<!-- 2 -->
<!-- name: &quot;string&quot;, typeName: &quot;&quot;, id: 2, branchId: 0, recurseId: &#45;1, attributes: 512, notes: &quot;&quot; -->
<g id="node3" class="node">
<title>2</title>
<ellipse fill="none" stroke="black" cx="480.25" cy="-72" rx="31.9" ry="18"/>
<text xml:space="preserve" text-anchor="middle" x="480.25" y="-66.95" font-family="Times New Roman,serif" font-size="14.00">string</text>
</g>
<!-- 1&#45;&gt;2 -->
<g id="edge2" class="edge">
<title>1&#45;&gt;2</title>
<path fill="none" stroke="black" d="M381.46,-72C399.03,-72 419.28,-72 436.79,-72"/>
<polygon fill="black" stroke="black" points="436.61,-75.5 446.61,-72 436.61,-68.5 436.61,-75.5"/>
</g>
<!-- 4 -->
<!-- name: &quot;string&quot;, typeName: &quot;&quot;, id: 4, branchId: 0, recurseId: &#45;1, attributes: 512, notes: &quot;&quot; -->
<g id="node5" class="node">
<title>4</title>
<ellipse fill="none" stroke="black" cx="480.25" cy="-18" rx="31.9" ry="18"/>
<text xml:space="preserve" text-anchor="middle" x="480.25" y="-12.95" font-family="Times New Roman,serif" font-size="14.00">string</text>
</g>
<!-- 3&#45;&gt;4 -->
<g id="edge4" class="edge">
<title>3&#45;&gt;4</title>
<path fill="none" stroke="black" d="M412.56,-18C420.74,-18 428.84,-18 436.44,-18"/>
<polygon fill="black" stroke="black" points="436.38,-21.5 446.38,-18 436.38,-14.5 436.38,-21.5"/>
</g>
</g>
</svg>
