<?xml version="1.0" encoding="UTF-8" standalone="no"?>
<!DOCTYPE svg PUBLIC "-//W3C//DTD SVG 1.1//EN"
 "http://www.w3.org/Graphics/SVG/1.1/DTD/svg11.dtd">
<!-- Generated by graphviz version 10.0.1 (20240210.2158)
 -->
<!-- Title: EditorNetworkPacket Pages: 1 -->
<svg width="530pt" height="44pt"
 viewBox="0.00 0.00 530.09 44.00" xmlns="http://www.w3.org/2000/svg" xmlns:xlink="http://www.w3.org/1999/xlink">
<g id="graph0" class="graph" transform="scale(1 1) rotate(0) translate(4 40)">
<title>EditorNetworkPacket</title>
<polygon fill="white" stroke="none" points="-4,4 -4,-40 526.09,-40 526.09,4 -4,4"/>
<!-- 0 -->
<!-- name: &quot;EditorNetworkPacket&quot;, typeName: &quot;&quot;, id: 0, branchId: 190, recurseId: &#45;1, attributes: 0, notes: &quot;&quot; -->
<g id="node1" class="node">
<title>0</title>
<ellipse fill="none" stroke="black" cx="90.48" cy="-18" rx="90.48" ry="18"/>
<text text-anchor="middle" x="90.48" y="-12.57" font-family="Times New Roman,serif" font-size="14.00">EditorNetworkPacket</text>
</g>
<!-- 1 -->
<!-- name: &quot;Binary Payload&quot;, typeName: &quot;CompoundTag&quot;, id: 1, branchId: 0, recurseId: &#45;1, attributes: 256, notes: &quot;&quot; -->
<g id="node2" class="node">
<title>1</title>
<ellipse fill="none" stroke="black" cx="284" cy="-18" rx="67.03" ry="18"/>
<text text-anchor="middle" x="284" y="-12.57" font-family="Times New Roman,serif" font-size="14.00">Binary Payload</text>
</g>
<!-- 0&#45;&gt;1 -->
<g id="edge1" class="edge">
<title>0&#45;&gt;1</title>
<path fill="none" stroke="black" d="M181.35,-18C189.32,-18 197.34,-18 205.2,-18"/>
<polygon fill="black" stroke="black" points="205.04,-21.5 215.04,-18 205.04,-14.5 205.04,-21.5"/>
</g>
<!-- 2 -->
<!-- name: &quot;CompoundTag&quot;, typeName: &quot;&quot;, id: 2, branchId: 0, recurseId: &#45;1, attributes: 512, notes: &quot;&quot; -->
<g id="node3" class="node">
<title>2</title>
<ellipse fill="none" stroke="black" cx="454.56" cy="-18" rx="67.53" ry="18"/>
<text text-anchor="middle" x="454.56" y="-12.57" font-family="Times New Roman,serif" font-size="14.00">CompoundTag</text>
</g>
<!-- 1&#45;&gt;2 -->
<g id="edge2" class="edge">
<title>1&#45;&gt;2</title>
<path fill="none" stroke="black" d="M351.14,-18C359.1,-18 367.29,-18 375.4,-18"/>
<polygon fill="black" stroke="black" points="375.27,-21.5 385.27,-18 375.27,-14.5 375.27,-21.5"/>
</g>
</g>
</svg>
