<?xml version="1.0" encoding="UTF-8" standalone="no"?>
<!DOCTYPE svg PUBLIC "-//W3C//DTD SVG 1.1//EN"
 "http://www.w3.org/Graphics/SVG/1.1/DTD/svg11.dtd">
<!-- Generated by graphviz version 12.2.0 (20241103.1931)
 -->
<!-- Title: EducationSettingsPacket Pages: 1 -->
<svg width="691pt" height="44pt"
 viewBox="0.00 0.00 691.10 44.00" xmlns="http://www.w3.org/2000/svg" xmlns:xlink="http://www.w3.org/1999/xlink">
<g id="graph0" class="graph" transform="scale(1 1) rotate(0) translate(4 40)">
<title>EducationSettingsPacket</title>
<polygon fill="white" stroke="none" points="-4,4 -4,-40 687.1,-40 687.1,4 -4,4"/>
<!-- 0 -->
<!-- name: &quot;EducationSettingsPacket&quot;, typeName: &quot;&quot;, id: 0, branchId: 137, recurseId: &#45;1, attributes: 0, notes: &quot;&quot; -->
<g id="node1" class="node">
<title>0</title>
<ellipse fill="none" stroke="black" cx="102.53" cy="-18" rx="102.53" ry="18"/>
<text text-anchor="middle" x="102.53" y="-12.95" font-family="Times New Roman,serif" font-size="14.00">EducationSettingsPacket</text>
</g>
<!-- 1 -->
<!-- name: &quot;Education Level Settings&quot;, typeName: &quot;EducationLevelSettings&quot;, id: 1, branchId: 0, recurseId: &#45;1, attributes: 256, notes: &quot;&quot; -->
<g id="node2" class="node">
<title>1</title>
<ellipse fill="none" stroke="black" cx="345.13" cy="-18" rx="104.07" ry="18"/>
<text text-anchor="middle" x="345.13" y="-12.95" font-family="Times New Roman,serif" font-size="14.00">Education Level Settings</text>
</g>
<!-- 0&#45;&gt;1 -->
<g id="edge1" class="edge">
<title>0&#45;&gt;1</title>
<path fill="none" stroke="black" d="M205.22,-18C213.24,-18 221.37,-18 229.47,-18"/>
<polygon fill="black" stroke="black" points="229.37,-21.5 239.37,-18 229.37,-14.5 229.37,-21.5"/>
</g>
<!-- 32 -->
<!-- name: &quot;EducationLevelSettings&quot;, typeName: &quot;&quot;, id: 32, branchId: 0, recurseId: &#45;1, attributes: 512, notes: &quot;&quot; -->
<g id="node3" class="node">
<title>32</title>
<ellipse fill="none" stroke="black" cx="584.15" cy="-18" rx="98.95" ry="18"/>
<text text-anchor="middle" x="584.15" y="-12.95" font-family="Times New Roman,serif" font-size="14.00">EducationLevelSettings</text>
</g>
<!-- 1&#45;&gt;32 -->
<g id="edge2" class="edge">
<title>1&#45;&gt;32</title>
<path fill="none" stroke="black" d="M449.4,-18C457.37,-18 465.44,-18 473.45,-18"/>
<polygon fill="black" stroke="black" points="473.21,-21.5 483.21,-18 473.2,-14.5 473.21,-21.5"/>
</g>
</g>
</svg>
