<?xml version="1.0" encoding="UTF-8" standalone="no"?>
<!DOCTYPE svg PUBLIC "-//W3C//DTD SVG 1.1//EN"
 "http://www.w3.org/Graphics/SVG/1.1/DTD/svg11.dtd">
<!-- Generated by graphviz version 14.1.1 (20251213.1925)
 -->
<!-- Title: EducationLevelSettings Pages: 1 -->
<svg width="870pt" height="584pt"
 viewBox="0.00 0.00 870.00 584.00" xmlns="http://www.w3.org/2000/svg" xmlns:xlink="http://www.w3.org/1999/xlink">
<g id="graph0" class="graph" transform="scale(1 1) rotate(0) translate(4 580)">
<title>EducationLevelSettings</title>
<polygon fill="white" stroke="none" points="-4,4 -4,-580 865.72,-580 865.72,4 -4,4"/>
<!-- 0 -->
<!-- name: &quot;EducationLevelSettings&quot;, typeName: &quot;&quot;, id: 0, branchId: 0, recurseId: &#45;1, attributes: 0, notes: &quot;&quot; -->
<g id="node1" class="node">
<title>0</title>
<ellipse fill="none" stroke="black" cx="98.95" cy="-315" rx="98.95" ry="18"/>
<text xml:space="preserve" text-anchor="middle" x="98.95" y="-309.95" font-family="Times New Roman,serif" font-size="14.00">EducationLevelSettings</text>
</g>
<!-- 1 -->
<!-- name: &quot;Code Builder Default URI&quot;, typeName: &quot;&quot;, id: 1, branchId: 0, recurseId: &#45;1, attributes: 0, notes: &quot;&quot; -->
<g id="node2" class="node">
<title>1</title>
<ellipse fill="none" stroke="black" cx="651.2" cy="-557" rx="109.19" ry="18"/>
<text xml:space="preserve" text-anchor="middle" x="651.2" y="-551.95" font-family="Times New Roman,serif" font-size="14.00">Code Builder Default URI</text>
</g>
<!-- 0&#45;&gt;1 -->
<g id="edge1" class="edge">
<title>0&#45;&gt;1</title>
<path fill="none" stroke="black" d="M107.45,-333.22C124.02,-370.92 167.6,-457.28 233.9,-497 325.71,-552 448.86,-563.69 537.36,-563.63"/>
<polygon fill="black" stroke="black" points="537.31,-567.13 547.28,-563.57 537.26,-560.13 537.31,-567.13"/>
</g>
<!-- 3 -->
<!-- name: &quot;Code Builder Title&quot;, typeName: &quot;&quot;, id: 3, branchId: 0, recurseId: &#45;1, attributes: 0, notes: &quot;&quot; -->
<g id="node4" class="node">
<title>3</title>
<ellipse fill="none" stroke="black" cx="651.2" cy="-503" rx="80.01" ry="18"/>
<text xml:space="preserve" text-anchor="middle" x="651.2" y="-497.95" font-family="Times New Roman,serif" font-size="14.00">Code Builder Title</text>
</g>
<!-- 0&#45;&gt;3 -->
<g id="edge3" class="edge">
<title>0&#45;&gt;3</title>
<path fill="none" stroke="black" d="M110.93,-333.08C130.98,-364.27 176.77,-427.57 233.9,-456 338.91,-508.25 476.81,-513.32 564.5,-509.92"/>
<polygon fill="black" stroke="black" points="564.65,-513.42 574.48,-509.48 564.34,-506.43 564.65,-513.42"/>
</g>
<!-- 5 -->
<!-- name: &quot;Can resize Code Builder&quot;, typeName: &quot;&quot;, id: 5, branchId: 0, recurseId: &#45;1, attributes: 0, notes: &quot;&quot; -->
<g id="node6" class="node">
<title>5</title>
<ellipse fill="none" stroke="black" cx="651.2" cy="-448" rx="102.02" ry="18"/>
<text xml:space="preserve" text-anchor="middle" x="651.2" y="-442.95" font-family="Times New Roman,serif" font-size="14.00">Can resize Code Builder</text>
</g>
<!-- 0&#45;&gt;5 -->
<g id="edge5" class="edge">
<title>0&#45;&gt;5</title>
<path fill="none" stroke="black" d="M115.48,-333.2C138.41,-358.59 184.03,-403.7 233.9,-423 337.29,-463.02 465.94,-464.11 552.64,-458.52"/>
<polygon fill="black" stroke="black" points="552.81,-462.02 562.55,-457.83 552.33,-455.03 552.81,-462.02"/>
</g>
<!-- 7 -->
<!-- name: &quot;Disable legacy title bar&quot;, typeName: &quot;&quot;, id: 7, branchId: 0, recurseId: &#45;1, attributes: 0, notes: &quot;&quot; -->
<g id="node8" class="node">
<title>7</title>
<ellipse fill="none" stroke="black" cx="369.19" cy="-396" rx="96.9" ry="18"/>
<text xml:space="preserve" text-anchor="middle" x="369.19" y="-390.95" font-family="Times New Roman,serif" font-size="14.00">Disable legacy title bar</text>
</g>
<!-- 0&#45;&gt;7 -->
<g id="edge7" class="edge">
<title>0&#45;&gt;7</title>
<path fill="none" stroke="black" d="M136.82,-332.01C163.36,-343.73 200.27,-358.93 233.9,-369 250.06,-373.84 267.59,-378.07 284.47,-381.66"/>
<polygon fill="black" stroke="black" points="283.47,-385.02 293.97,-383.62 284.88,-378.17 283.47,-385.02"/>
</g>
<!-- 9 -->
<!-- name: &quot;Post Process Filter&quot;, typeName: &quot;&quot;, id: 9, branchId: 0, recurseId: &#45;1, attributes: 0, notes: &quot;&quot; -->
<g id="node10" class="node">
<title>9</title>
<ellipse fill="none" stroke="black" cx="369.19" cy="-342" rx="80.01" ry="18"/>
<text xml:space="preserve" text-anchor="middle" x="369.19" y="-336.95" font-family="Times New Roman,serif" font-size="14.00">Post Process Filter</text>
</g>
<!-- 0&#45;&gt;9 -->
<g id="edge9" class="edge">
<title>0&#45;&gt;9</title>
<path fill="none" stroke="black" d="M186.3,-323.69C217.67,-326.85 253.05,-330.41 284.22,-333.55"/>
<polygon fill="black" stroke="black" points="283.69,-337.01 293.99,-334.53 284.39,-330.05 283.69,-337.01"/>
</g>
<!-- 11 -->
<!-- name: &quot;Screenshot Border Resource Path&quot;, typeName: &quot;&quot;, id: 11, branchId: 0, recurseId: &#45;1, attributes: 0, notes: &quot;&quot; -->
<g id="node12" class="node">
<title>11</title>
<ellipse fill="none" stroke="black" cx="369.19" cy="-288" rx="135.29" ry="18"/>
<text xml:space="preserve" text-anchor="middle" x="369.19" y="-282.95" font-family="Times New Roman,serif" font-size="14.00">Screenshot Border Resource Path</text>
</g>
<!-- 0&#45;&gt;11 -->
<g id="edge11" class="edge">
<title>0&#45;&gt;11</title>
<path fill="none" stroke="black" d="M186.3,-306.31C206.16,-304.31 227.63,-302.15 248.62,-300.04"/>
<polygon fill="black" stroke="black" points="248.77,-303.54 258.37,-299.05 248.07,-296.57 248.77,-303.54"/>
</g>
<!-- 13 -->
<!-- name: &quot;Agent Capabilities&quot;, typeName: &quot;&quot;, id: 13, branchId: 0, recurseId: &#45;1, attributes: 0, notes: &quot;&quot; -->
<g id="node14" class="node">
<title>13</title>
<ellipse fill="none" stroke="black" cx="369.19" cy="-234" rx="80.01" ry="18"/>
<text xml:space="preserve" text-anchor="middle" x="369.19" y="-228.95" font-family="Times New Roman,serif" font-size="14.00">Agent Capabilities</text>
</g>
<!-- 0&#45;&gt;13 -->
<g id="edge13" class="edge">
<title>0&#45;&gt;13</title>
<path fill="none" stroke="black" d="M136.82,-297.99C163.36,-286.27 200.27,-271.07 233.9,-261 252.56,-255.41 273.03,-250.64 292.24,-246.73"/>
<polygon fill="black" stroke="black" points="292.77,-250.19 301.9,-244.82 291.41,-243.32 292.77,-250.19"/>
</g>
<!-- 16 -->
<!-- name: &quot;Local Settings&quot;, typeName: &quot;&quot;, id: 16, branchId: 0, recurseId: &#45;1, attributes: 0, notes: &quot;&quot; -->
<g id="node17" class="node">
<title>16</title>
<ellipse fill="none" stroke="black" cx="369.19" cy="-180" rx="64.15" ry="18"/>
<text xml:space="preserve" text-anchor="middle" x="369.19" y="-174.95" font-family="Times New Roman,serif" font-size="14.00">Local Settings</text>
</g>
<!-- 0&#45;&gt;16 -->
<g id="edge16" class="edge">
<title>0&#45;&gt;16</title>
<path fill="none" stroke="black" d="M116.67,-296.91C140.32,-272.48 186.03,-229.45 233.9,-207 253.43,-197.84 275.97,-191.78 296.95,-187.78"/>
<polygon fill="black" stroke="black" points="297.35,-191.26 306.59,-186.08 296.13,-184.37 297.35,-191.26"/>
</g>
<!-- 19 -->
<!-- name: &quot;(Deprecated) Always False&quot;, typeName: &quot;&quot;, id: 19, branchId: 0, recurseId: &#45;1, attributes: 0, notes: &quot;&quot; -->
<g id="node20" class="node">
<title>19</title>
<ellipse fill="none" stroke="black" cx="369.19" cy="-126" rx="111.23" ry="18"/>
<text xml:space="preserve" text-anchor="middle" x="369.19" y="-120.95" font-family="Times New Roman,serif" font-size="14.00">(Deprecated) Always False</text>
</g>
<!-- 0&#45;&gt;19 -->
<g id="edge19" class="edge">
<title>0&#45;&gt;19</title>
<path fill="none" stroke="black" d="M109.46,-296.7C128.25,-262.49 173.61,-189.07 233.9,-153 243.39,-147.32 253.86,-142.82 264.65,-139.24"/>
<polygon fill="black" stroke="black" points="265.5,-142.64 274.06,-136.41 263.48,-135.94 265.5,-142.64"/>
</g>
<!-- 21 -->
<!-- name: &quot;External Link Settings&quot;, typeName: &quot;&quot;, id: 21, branchId: 0, recurseId: &#45;1, attributes: 0, notes: &quot;&quot; -->
<g id="node22" class="node">
<title>21</title>
<ellipse fill="none" stroke="black" cx="369.19" cy="-72" rx="94.34" ry="18"/>
<text xml:space="preserve" text-anchor="middle" x="369.19" y="-66.95" font-family="Times New Roman,serif" font-size="14.00">External Link Settings</text>
</g>
<!-- 0&#45;&gt;21 -->
<g id="edge21" class="edge">
<title>0&#45;&gt;21</title>
<path fill="none" stroke="black" d="M105.65,-296.7C119.82,-254.42 160.87,-149.72 233.9,-99 244.81,-91.42 257.35,-85.87 270.3,-81.81"/>
<polygon fill="black" stroke="black" points="271.09,-85.22 279.78,-79.15 269.2,-78.48 271.09,-85.22"/>
</g>
<!-- 2 -->
<!-- name: &quot;string&quot;, typeName: &quot;&quot;, id: 2, branchId: 0, recurseId: &#45;1, attributes: 512, notes: &quot;&quot; -->
<g id="node3" class="node">
<title>2</title>
<ellipse fill="none" stroke="black" cx="829.82" cy="-558" rx="31.9" ry="18"/>
<text xml:space="preserve" text-anchor="middle" x="829.82" y="-552.95" font-family="Times New Roman,serif" font-size="14.00">string</text>
</g>
<!-- 1&#45;&gt;2 -->
<g id="edge2" class="edge">
<title>1&#45;&gt;2</title>
<path fill="none" stroke="black" d="M760.79,-557.61C769.67,-557.67 778.27,-557.71 786.2,-557.76"/>
<polygon fill="black" stroke="black" points="786.12,-561.26 796.13,-557.81 786.15,-554.26 786.12,-561.26"/>
</g>
<!-- 4 -->
<!-- name: &quot;string&quot;, typeName: &quot;&quot;, id: 4, branchId: 0, recurseId: &#45;1, attributes: 512, notes: &quot;&quot; -->
<g id="node5" class="node">
<title>4</title>
<ellipse fill="none" stroke="black" cx="829.82" cy="-504" rx="31.9" ry="18"/>
<text xml:space="preserve" text-anchor="middle" x="829.82" y="-498.95" font-family="Times New Roman,serif" font-size="14.00">string</text>
</g>
<!-- 3&#45;&gt;4 -->
<g id="edge4" class="edge">
<title>3&#45;&gt;4</title>
<path fill="none" stroke="black" d="M731.47,-503.45C750.36,-503.56 769.81,-503.67 786.31,-503.76"/>
<polygon fill="black" stroke="black" points="786.22,-507.26 796.24,-503.82 786.26,-500.26 786.22,-507.26"/>
</g>
<!-- 6 -->
<!-- name: &quot;bool&quot;, typeName: &quot;&quot;, id: 6, branchId: 0, recurseId: &#45;1, attributes: 512, notes: &quot;&quot; -->
<g id="node7" class="node">
<title>6</title>
<ellipse fill="none" stroke="black" cx="829.82" cy="-450" rx="27.3" ry="18"/>
<text xml:space="preserve" text-anchor="middle" x="829.82" y="-444.95" font-family="Times New Roman,serif" font-size="14.00">bool</text>
</g>
<!-- 5&#45;&gt;6 -->
<g id="edge6" class="edge">
<title>5&#45;&gt;6</title>
<path fill="none" stroke="black" d="M753.4,-449.15C766.65,-449.3 779.5,-449.44 790.73,-449.57"/>
<polygon fill="black" stroke="black" points="790.66,-453.07 800.7,-449.68 790.74,-446.07 790.66,-453.07"/>
</g>
<!-- 8 -->
<!-- name: &quot;bool&quot;, typeName: &quot;&quot;, id: 8, branchId: 0, recurseId: &#45;1, attributes: 512, notes: &quot;&quot; -->
<g id="node9" class="node">
<title>8</title>
<ellipse fill="none" stroke="black" cx="829.82" cy="-396" rx="27.3" ry="18"/>
<text xml:space="preserve" text-anchor="middle" x="829.82" y="-390.95" font-family="Times New Roman,serif" font-size="14.00">bool</text>
</g>
<!-- 7&#45;&gt;8 -->
<g id="edge8" class="edge">
<title>7&#45;&gt;8</title>
<path fill="none" stroke="black" d="M466.33,-396C567.14,-396 720.5,-396 790.98,-396"/>
<polygon fill="black" stroke="black" points="790.84,-399.5 800.84,-396 790.84,-392.5 790.84,-399.5"/>
</g>
<!-- 10 -->
<!-- name: &quot;string&quot;, typeName: &quot;&quot;, id: 10, branchId: 0, recurseId: &#45;1, attributes: 512, notes: &quot;&quot; -->
<g id="node11" class="node">
<title>10</title>
<ellipse fill="none" stroke="black" cx="829.82" cy="-342" rx="31.9" ry="18"/>
<text xml:space="preserve" text-anchor="middle" x="829.82" y="-336.95" font-family="Times New Roman,serif" font-size="14.00">string</text>
</g>
<!-- 9&#45;&gt;10 -->
<g id="edge10" class="edge">
<title>9&#45;&gt;10</title>
<path fill="none" stroke="black" d="M449.55,-342C547.34,-342 709.91,-342 786.48,-342"/>
<polygon fill="black" stroke="black" points="786.05,-345.5 796.05,-342 786.05,-338.5 786.05,-345.5"/>
</g>
<!-- 12 -->
<!-- name: &quot;string&quot;, typeName: &quot;&quot;, id: 12, branchId: 0, recurseId: &#45;1, attributes: 512, notes: &quot;&quot; -->
<g id="node13" class="node">
<title>12</title>
<ellipse fill="none" stroke="black" cx="829.82" cy="-288" rx="31.9" ry="18"/>
<text xml:space="preserve" text-anchor="middle" x="829.82" y="-282.95" font-family="Times New Roman,serif" font-size="14.00">string</text>
</g>
<!-- 11&#45;&gt;12 -->
<g id="edge12" class="edge">
<title>11&#45;&gt;12</title>
<path fill="none" stroke="black" d="M504.69,-288C600.49,-288 723.08,-288 786.53,-288"/>
<polygon fill="black" stroke="black" points="786.16,-291.5 796.16,-288 786.16,-284.5 786.16,-291.5"/>
</g>
<!-- 14 -->
<!-- name: &quot;Can Modify Blocks&quot;, typeName: &quot;&quot;, id: 14, branchId: 0, recurseId: &#45;1, attributes: 0, notes: &quot;&quot; -->
<g id="node15" class="node">
<title>14</title>
<ellipse fill="none" stroke="black" cx="651.2" cy="-234" rx="84.62" ry="18"/>
<text xml:space="preserve" text-anchor="middle" x="651.2" y="-228.95" font-family="Times New Roman,serif" font-size="14.00">Can Modify Blocks</text>
</g>
<!-- 13&#45;&gt;14 -->
<g id="edge14" class="edge">
<title>13&#45;&gt;14</title>
<path fill="none" stroke="black" d="M449.68,-234C482.36,-234 520.49,-234 554.68,-234"/>
<polygon fill="black" stroke="black" points="554.59,-237.5 564.59,-234 554.59,-230.5 554.59,-237.5"/>
</g>
<!-- 15 -->
<!-- name: &quot;bool&quot;, typeName: &quot;&quot;, id: 15, branchId: 0, recurseId: &#45;1, attributes: 512, notes: &quot;&quot; -->
<g id="node16" class="node">
<title>15</title>
<ellipse fill="none" stroke="black" cx="829.82" cy="-234" rx="27.3" ry="18"/>
<text xml:space="preserve" text-anchor="middle" x="829.82" y="-228.95" font-family="Times New Roman,serif" font-size="14.00">bool</text>
</g>
<!-- 14&#45;&gt;15 -->
<g id="edge15" class="edge">
<title>14&#45;&gt;15</title>
<path fill="none" stroke="black" d="M736.11,-234C755.45,-234 775.07,-234 791.25,-234"/>
<polygon fill="black" stroke="black" points="790.86,-237.5 800.86,-234 790.86,-230.5 790.86,-237.5"/>
</g>
<!-- 17 -->
<!-- name: &quot;Code Builder Override Uri&quot;, typeName: &quot;&quot;, id: 17, branchId: 0, recurseId: &#45;1, attributes: 0, notes: &quot;&quot; -->
<g id="node18" class="node">
<title>17</title>
<ellipse fill="none" stroke="black" cx="651.2" cy="-180" rx="110.72" ry="18"/>
<text xml:space="preserve" text-anchor="middle" x="651.2" y="-174.95" font-family="Times New Roman,serif" font-size="14.00">Code Builder Override Uri</text>
</g>
<!-- 16&#45;&gt;17 -->
<g id="edge17" class="edge">
<title>16&#45;&gt;17</title>
<path fill="none" stroke="black" d="M433.73,-180C461.87,-180 495.97,-180 528.69,-180"/>
<polygon fill="black" stroke="black" points="528.68,-183.5 538.68,-180 528.68,-176.5 528.68,-183.5"/>
</g>
<!-- 18 -->
<!-- name: &quot;string&quot;, typeName: &quot;&quot;, id: 18, branchId: 0, recurseId: &#45;1, attributes: 512, notes: &quot;&quot; -->
<g id="node19" class="node">
<title>18</title>
<ellipse fill="none" stroke="black" cx="829.82" cy="-180" rx="31.9" ry="18"/>
<text xml:space="preserve" text-anchor="middle" x="829.82" y="-174.95" font-family="Times New Roman,serif" font-size="14.00">string</text>
</g>
<!-- 17&#45;&gt;18 -->
<g id="edge18" class="edge">
<title>17&#45;&gt;18</title>
<path fill="none" stroke="black" d="M762.3,-180C770.74,-180 778.91,-180 786.45,-180"/>
<polygon fill="black" stroke="black" points="786.23,-183.5 796.23,-180 786.23,-176.5 786.23,-183.5"/>
</g>
<!-- 20 -->
<!-- name: &quot;bool&quot;, typeName: &quot;&quot;, id: 20, branchId: 0, recurseId: &#45;1, attributes: 512, notes: &quot;&quot; -->
<g id="node21" class="node">
<title>20</title>
<ellipse fill="none" stroke="black" cx="829.82" cy="-126" rx="27.3" ry="18"/>
<text xml:space="preserve" text-anchor="middle" x="829.82" y="-120.95" font-family="Times New Roman,serif" font-size="14.00">bool</text>
</g>
<!-- 19&#45;&gt;20 -->
<g id="edge20" class="edge">
<title>19&#45;&gt;20</title>
<path fill="none" stroke="black" d="M480.92,-126C581.44,-126 723.92,-126 791.05,-126"/>
<polygon fill="black" stroke="black" points="790.79,-129.5 800.79,-126 790.79,-122.5 790.79,-129.5"/>
</g>
<!-- 22 -->
<!-- name: &quot;URL&quot;, typeName: &quot;&quot;, id: 22, branchId: 0, recurseId: &#45;1, attributes: 0, notes: &quot;&quot; -->
<g id="node23" class="node">
<title>22</title>
<ellipse fill="none" stroke="black" cx="651.2" cy="-72" rx="29.34" ry="18"/>
<text xml:space="preserve" text-anchor="middle" x="651.2" y="-66.95" font-family="Times New Roman,serif" font-size="14.00">URL</text>
</g>
<!-- 21&#45;&gt;22 -->
<g id="edge22" class="edge">
<title>21&#45;&gt;22</title>
<path fill="none" stroke="black" d="M463.82,-72C513.67,-72 572.36,-72 610.37,-72"/>
<polygon fill="black" stroke="black" points="609.96,-75.5 619.96,-72 609.96,-68.5 609.96,-75.5"/>
</g>
<!-- 24 -->
<!-- name: &quot;Display Name&quot;, typeName: &quot;&quot;, id: 24, branchId: 0, recurseId: &#45;1, attributes: 0, notes: &quot;&quot; -->
<g id="node25" class="node">
<title>24</title>
<ellipse fill="none" stroke="black" cx="651.2" cy="-18" rx="64.66" ry="18"/>
<text xml:space="preserve" text-anchor="middle" x="651.2" y="-12.95" font-family="Times New Roman,serif" font-size="14.00">Display Name</text>
</g>
<!-- 21&#45;&gt;24 -->
<g id="edge24" class="edge">
<title>21&#45;&gt;24</title>
<path fill="none" stroke="black" d="M436.9,-59.13C481.99,-50.44 541.2,-39.02 585.79,-30.42"/>
<polygon fill="black" stroke="black" points="586.45,-33.86 595.6,-28.53 585.12,-26.99 586.45,-33.86"/>
</g>
<!-- 23 -->
<!-- name: &quot;string&quot;, typeName: &quot;&quot;, id: 23, branchId: 0, recurseId: &#45;1, attributes: 512, notes: &quot;&quot; -->
<g id="node24" class="node">
<title>23</title>
<ellipse fill="none" stroke="black" cx="829.82" cy="-72" rx="31.9" ry="18"/>
<text xml:space="preserve" text-anchor="middle" x="829.82" y="-66.95" font-family="Times New Roman,serif" font-size="14.00">string</text>
</g>
<!-- 22&#45;&gt;23 -->
<g id="edge23" class="edge">
<title>22&#45;&gt;23</title>
<path fill="none" stroke="black" d="M680.97,-72C709.52,-72 753.62,-72 786.24,-72"/>
<polygon fill="black" stroke="black" points="786.17,-75.5 796.17,-72 786.17,-68.5 786.17,-75.5"/>
</g>
<!-- 25 -->
<!-- name: &quot;string&quot;, typeName: &quot;&quot;, id: 25, branchId: 0, recurseId: &#45;1, attributes: 512, notes: &quot;&quot; -->
<g id="node26" class="node">
<title>25</title>
<ellipse fill="none" stroke="black" cx="829.82" cy="-18" rx="31.9" ry="18"/>
<text xml:space="preserve" text-anchor="middle" x="829.82" y="-12.95" font-family="Times New Roman,serif" font-size="14.00">string</text>
</g>
<!-- 24&#45;&gt;25 -->
<g id="edge25" class="edge">
<title>24&#45;&gt;25</title>
<path fill="none" stroke="black" d="M716.21,-18C739.43,-18 765.07,-18 786.02,-18"/>
<polygon fill="black" stroke="black" points="785.92,-21.5 795.92,-18 785.92,-14.5 785.92,-21.5"/>
</g>
</g>
</svg>
