<?xml version="1.0" encoding="UTF-8" standalone="no"?>
<!DOCTYPE svg PUBLIC "-//W3C//DTD SVG 1.1//EN"
 "http://www.w3.org/Graphics/SVG/1.1/DTD/svg11.dtd">
<!-- Generated by graphviz version 11.0.0 (20240428.1522)
 -->
<!-- Title: EducationSettingsPacket Pages: 1 -->
<svg width="685pt" height="44pt"
 viewBox="0.00 0.00 684.78 44.00" xmlns="http://www.w3.org/2000/svg" xmlns:xlink="http://www.w3.org/1999/xlink">
<g id="graph0" class="graph" transform="scale(1 1) rotate(0) translate(4 40)">
<title>EducationSettingsPacket</title>
<polygon fill="white" stroke="none" points="-4,4 -4,-40 680.78,-40 680.78,4 -4,4"/>
<!-- 0 -->
<!-- name: &quot;EducationSettingsPacket&quot;, typeName: &quot;&quot;, id: 0, branchId: 137, recurseId: &#45;1, attributes: 0, notes: &quot;&quot; -->
<g id="node1" class="node">
<title>0</title>
<ellipse fill="none" stroke="black" cx="102.46" cy="-18" rx="102.46" ry="18"/>
<text text-anchor="middle" x="102.46" y="-12.57" font-family="Times New Roman,serif" font-size="14.00">EducationSettingsPacket</text>
</g>
<!-- 1 -->
<!-- name: &quot;Education Level Settings&quot;, typeName: &quot;EducationLevelSettings&quot;, id: 1, branchId: 0, recurseId: &#45;1, attributes: 256, notes: &quot;&quot; -->
<g id="node2" class="node">
<title>1</title>
<ellipse fill="none" stroke="black" cx="343.38" cy="-18" rx="102.46" ry="18"/>
<text text-anchor="middle" x="343.38" y="-12.57" font-family="Times New Roman,serif" font-size="14.00">Education Level Settings</text>
</g>
<!-- 0&#45;&gt;1 -->
<g id="edge1" class="edge">
<title>0&#45;&gt;1</title>
<path fill="none" stroke="black" d="M205.13,-18C213.07,-18 221.12,-18 229.13,-18"/>
<polygon fill="black" stroke="black" points="228.91,-21.5 238.91,-18 228.91,-14.5 228.91,-21.5"/>
</g>
<!-- 32 -->
<!-- name: &quot;EducationLevelSettings&quot;, typeName: &quot;&quot;, id: 32, branchId: 0, recurseId: &#45;1, attributes: 512, notes: &quot;&quot; -->
<g id="node3" class="node">
<title>32</title>
<ellipse fill="none" stroke="black" cx="579.31" cy="-18" rx="97.47" ry="18"/>
<text text-anchor="middle" x="579.31" y="-12.57" font-family="Times New Roman,serif" font-size="14.00">EducationLevelSettings</text>
</g>
<!-- 1&#45;&gt;32 -->
<g id="edge2" class="edge">
<title>1&#45;&gt;32</title>
<path fill="none" stroke="black" d="M446.31,-18C454.26,-18 462.3,-18 470.29,-18"/>
<polygon fill="black" stroke="black" points="470.02,-21.5 480.02,-18 470.02,-14.5 470.02,-21.5"/>
</g>
</g>
</svg>
