<?xml version="1.0" encoding="UTF-8" standalone="no"?>
<!DOCTYPE svg PUBLIC "-//W3C//DTD SVG 1.1//EN"
 "http://www.w3.org/Graphics/SVG/1.1/DTD/svg11.dtd">
<!-- Generated by graphviz version 2.46.1 (20210213.1702)
 -->
<!-- Title: EducationLevelSettings Pages: 1 -->
<svg width="1379pt" height="530pt"
 viewBox="0.00 0.00 1378.58 530.00" xmlns="http://www.w3.org/2000/svg" xmlns:xlink="http://www.w3.org/1999/xlink">
<g id="graph0" class="graph" transform="scale(1 1) rotate(0) translate(4 526)">
<title>EducationLevelSettings</title>
<polygon fill="white" stroke="transparent" points="-4,4 -4,-526 1374.58,-526 1374.58,4 -4,4"/>
<!-- 2 -->
<!-- name: &quot;EducationLevelSettings&quot;, typeName: &quot;&quot;, id: 2, branchId: 0, recurseId: &#45;1, attributes: 0, notes: &quot;&quot; -->
<g id="node1" class="node">
<title>2</title>
<ellipse fill="none" stroke="black" cx="95.54" cy="-261" rx="95.58" ry="18"/>
<text text-anchor="middle" x="95.54" y="-257.3" font-family="Times New Roman,serif" font-size="14.00">EducationLevelSettings</text>
</g>
<!-- 3 -->
<!-- name: &quot;Code Builder Default URI&quot;, typeName: &quot;&quot;, id: 3, branchId: 0, recurseId: &#45;1, attributes: 0, notes: &quot;&quot; -->
<g id="node2" class="node">
<title>3</title>
<ellipse fill="none" stroke="black" cx="403.87" cy="-504" rx="105.08" ry="18"/>
<text text-anchor="middle" x="403.87" y="-500.3" font-family="Times New Roman,serif" font-size="14.00">Code Builder Default URI</text>
</g>
<!-- 2&#45;&gt;3 -->
<g id="edge1" class="edge">
<title>2&#45;&gt;3</title>
<path fill="none" stroke="black" d="M101.7,-279.21C114.77,-321.75 153.53,-427.77 227.08,-477 245.22,-489.14 266.74,-496.63 288.39,-501.12"/>
<polygon fill="black" stroke="black" points="287.87,-504.58 298.34,-502.98 289.15,-497.7 287.87,-504.58"/>
</g>
<!-- 5 -->
<!-- name: &quot;Code Builder Title&quot;, typeName: &quot;&quot;, id: 5, branchId: 0, recurseId: &#45;1, attributes: 0, notes: &quot;&quot; -->
<g id="node4" class="node">
<title>5</title>
<ellipse fill="none" stroke="black" cx="403.87" cy="-450" rx="77.19" ry="18"/>
<text text-anchor="middle" x="403.87" y="-446.3" font-family="Times New Roman,serif" font-size="14.00">Code Builder Title</text>
</g>
<!-- 2&#45;&gt;5 -->
<g id="edge3" class="edge">
<title>2&#45;&gt;5</title>
<path fill="none" stroke="black" d="M105.25,-279.02C122.93,-313.42 166.52,-388.12 227.08,-423 253.77,-438.37 286.34,-445.86 316.16,-449.28"/>
<polygon fill="black" stroke="black" points="315.85,-452.76 326.15,-450.29 316.56,-445.8 315.85,-452.76"/>
</g>
<!-- 7 -->
<!-- name: &quot;Can resize Code Builder&quot;, typeName: &quot;&quot;, id: 7, branchId: 0, recurseId: &#45;1, attributes: 0, notes: &quot;&quot; -->
<g id="node6" class="node">
<title>7</title>
<ellipse fill="none" stroke="black" cx="403.87" cy="-396" rx="98.58" ry="18"/>
<text text-anchor="middle" x="403.87" y="-392.3" font-family="Times New Roman,serif" font-size="14.00">Can resize Code Builder</text>
</g>
<!-- 2&#45;&gt;7 -->
<g id="edge5" class="edge">
<title>2&#45;&gt;7</title>
<path fill="none" stroke="black" d="M112.21,-279C134.86,-303.72 179.31,-347.57 227.08,-369 249.24,-378.94 274.38,-385.33 298.57,-389.4"/>
<polygon fill="black" stroke="black" points="298.09,-392.86 308.51,-390.95 299.17,-385.95 298.09,-392.86"/>
</g>
<!-- 9 -->
<!-- name: &quot;Disable legacy title bar&quot;, typeName: &quot;&quot;, id: 9, branchId: 0, recurseId: &#45;1, attributes: 0, notes: &quot;&quot; -->
<g id="node8" class="node">
<title>9</title>
<ellipse fill="none" stroke="black" cx="403.87" cy="-342" rx="92.08" ry="18"/>
<text text-anchor="middle" x="403.87" y="-338.3" font-family="Times New Roman,serif" font-size="14.00">Disable legacy title bar</text>
</g>
<!-- 2&#45;&gt;9 -->
<g id="edge7" class="edge">
<title>2&#45;&gt;9</title>
<path fill="none" stroke="black" d="M130.65,-277.76C156.53,-289.82 193.3,-305.57 227.08,-315 254.23,-322.58 284.37,-328.19 311.91,-332.27"/>
<polygon fill="black" stroke="black" points="311.54,-335.75 321.94,-333.7 312.53,-328.82 311.54,-335.75"/>
</g>
<!-- 11 -->
<!-- name: &quot;Post Process Filter&quot;, typeName: &quot;&quot;, id: 11, branchId: 0, recurseId: &#45;1, attributes: 0, notes: &quot;&quot; -->
<g id="node10" class="node">
<title>11</title>
<ellipse fill="none" stroke="black" cx="403.87" cy="-288" rx="79.89" ry="18"/>
<text text-anchor="middle" x="403.87" y="-284.3" font-family="Times New Roman,serif" font-size="14.00">Post Process Filter</text>
</g>
<!-- 2&#45;&gt;11 -->
<g id="edge9" class="edge">
<title>2&#45;&gt;11</title>
<path fill="none" stroke="black" d="M182.28,-268.56C225.05,-272.33 276.58,-276.87 319.07,-280.61"/>
<polygon fill="black" stroke="black" points="318.84,-284.11 329.11,-281.5 319.46,-277.13 318.84,-284.11"/>
</g>
<!-- 13 -->
<!-- name: &quot;Screenshot Border Resource Path&quot;, typeName: &quot;&quot;, id: 13, branchId: 0, recurseId: &#45;1, attributes: 0, notes: &quot;&quot; -->
<g id="node12" class="node">
<title>13</title>
<ellipse fill="none" stroke="black" cx="403.87" cy="-234" rx="134.58" ry="18"/>
<text text-anchor="middle" x="403.87" y="-230.3" font-family="Times New Roman,serif" font-size="14.00">Screenshot Border Resource Path</text>
</g>
<!-- 2&#45;&gt;13 -->
<g id="edge11" class="edge">
<title>2&#45;&gt;13</title>
<path fill="none" stroke="black" d="M182.28,-253.44C212.83,-250.75 247.86,-247.66 280.88,-244.75"/>
<polygon fill="black" stroke="black" points="281.4,-248.22 291.05,-243.86 280.78,-241.25 281.4,-248.22"/>
</g>
<!-- 15 -->
<!-- name: &quot;Agent Capabilities&quot;, typeName: &quot;std::optional&lt;struct AgentCapabilities&gt;&quot;, id: 15, branchId: 0, recurseId: &#45;1, attributes: 256, notes: &quot;&quot; -->
<g id="node14" class="node">
<title>15</title>
<ellipse fill="none" stroke="black" cx="403.87" cy="-180" rx="76.89" ry="18"/>
<text text-anchor="middle" x="403.87" y="-176.3" font-family="Times New Roman,serif" font-size="14.00">Agent Capabilities</text>
</g>
<!-- 2&#45;&gt;15 -->
<g id="edge13" class="edge">
<title>2&#45;&gt;15</title>
<path fill="none" stroke="black" d="M130.65,-244.24C156.53,-232.18 193.3,-216.43 227.08,-207 257.81,-198.42 292.37,-192.37 322.66,-188.2"/>
<polygon fill="black" stroke="black" points="323.3,-191.65 332.76,-186.86 322.38,-184.71 323.3,-191.65"/>
</g>
<!-- 20 -->
<!-- name: &quot;Code Builder Override Uri&quot;, typeName: &quot;std::optional&lt;class std::basic_string&lt;char,struct std::char_traits&lt;char&gt;,class std::allocator&lt;char&gt; &gt; &gt;&quot;, id: 20, branchId: 0, recurseId: &#45;1, attributes: 256, notes: &quot;&quot; -->
<g id="node16" class="node">
<title>20</title>
<ellipse fill="none" stroke="black" cx="403.87" cy="-126" rx="106.68" ry="18"/>
<text text-anchor="middle" x="403.87" y="-122.3" font-family="Times New Roman,serif" font-size="14.00">Code Builder Override Uri</text>
</g>
<!-- 2&#45;&gt;20 -->
<g id="edge15" class="edge">
<title>2&#45;&gt;20</title>
<path fill="none" stroke="black" d="M112.21,-243C134.86,-218.28 179.31,-174.43 227.08,-153 247.57,-143.81 270.61,-137.66 293.09,-133.56"/>
<polygon fill="black" stroke="black" points="293.75,-137 303.03,-131.88 292.58,-130.1 293.75,-137"/>
</g>
<!-- 25 -->
<!-- name: &quot;Indiciates if the world has a quiz attached to it&quot;, typeName: &quot;&quot;, id: 25, branchId: 0, recurseId: &#45;1, attributes: 0, notes: &quot;hasQuiz was only used by old JD China EDU and has been removed&quot; -->
<g id="node18" class="node">
<title>25</title>
<ellipse fill="none" stroke="black" cx="403.87" cy="-72" rx="176.57" ry="18"/>
<text text-anchor="middle" x="403.87" y="-68.3" font-family="Times New Roman,serif" font-size="14.00">Indiciates if the world has a quiz attached to it</text>
</g>
<!-- 2&#45;&gt;25 -->
<g id="edge17" class="edge">
<title>2&#45;&gt;25</title>
<path fill="none" stroke="black" d="M105.25,-242.98C122.93,-208.58 166.52,-133.88 227.08,-99 235.71,-94.03 244.96,-89.89 254.53,-86.43"/>
<polygon fill="black" stroke="black" points="255.81,-89.7 264.19,-83.21 253.6,-83.06 255.81,-89.7"/>
</g>
<!-- 27 -->
<!-- name: &quot;External Link Settings&quot;, typeName: &quot;std::optional&lt;struct ExternalLinkSettings&gt;&quot;, id: 27, branchId: 0, recurseId: &#45;1, attributes: 256, notes: &quot;&quot; -->
<g id="node20" class="node">
<title>27</title>
<ellipse fill="none" stroke="black" cx="403.87" cy="-18" rx="89.88" ry="18"/>
<text text-anchor="middle" x="403.87" y="-14.3" font-family="Times New Roman,serif" font-size="14.00">External Link Settings</text>
</g>
<!-- 2&#45;&gt;27 -->
<g id="edge19" class="edge">
<title>2&#45;&gt;27</title>
<path fill="none" stroke="black" d="M101.7,-242.79C114.77,-200.25 153.53,-94.23 227.08,-45 249.61,-29.92 277.36,-22.01 304.09,-18.13"/>
<polygon fill="black" stroke="black" points="304.8,-21.56 314.28,-16.83 303.92,-14.62 304.8,-21.56"/>
</g>
<!-- 4 -->
<!-- name: &quot;string&quot;, typeName: &quot;&quot;, id: 4, branchId: 0, recurseId: &#45;1, attributes: 512, notes: &quot;&quot; -->
<g id="node3" class="node">
<title>4</title>
<ellipse fill="none" stroke="black" cx="993.62" cy="-504" rx="30.59" ry="18"/>
<text text-anchor="middle" x="993.62" y="-500.3" font-family="Times New Roman,serif" font-size="14.00">string</text>
</g>
<!-- 3&#45;&gt;4 -->
<g id="edge2" class="edge">
<title>3&#45;&gt;4</title>
<path fill="none" stroke="black" d="M509.27,-504C641.43,-504 862.71,-504 952.72,-504"/>
<polygon fill="black" stroke="black" points="952.78,-507.5 962.78,-504 952.78,-500.5 952.78,-507.5"/>
</g>
<!-- 6 -->
<!-- name: &quot;string&quot;, typeName: &quot;&quot;, id: 6, branchId: 0, recurseId: &#45;1, attributes: 512, notes: &quot;&quot; -->
<g id="node5" class="node">
<title>6</title>
<ellipse fill="none" stroke="black" cx="993.62" cy="-450" rx="30.59" ry="18"/>
<text text-anchor="middle" x="993.62" y="-446.3" font-family="Times New Roman,serif" font-size="14.00">string</text>
</g>
<!-- 5&#45;&gt;6 -->
<g id="edge4" class="edge">
<title>5&#45;&gt;6</title>
<path fill="none" stroke="black" d="M481.4,-450C607.86,-450 856.04,-450 952.72,-450"/>
<polygon fill="black" stroke="black" points="952.94,-453.5 962.94,-450 952.94,-446.5 952.94,-453.5"/>
</g>
<!-- 8 -->
<!-- name: &quot;bool&quot;, typeName: &quot;&quot;, id: 8, branchId: 0, recurseId: &#45;1, attributes: 512, notes: &quot;&quot; -->
<g id="node7" class="node">
<title>8</title>
<ellipse fill="none" stroke="black" cx="993.62" cy="-396" rx="27.1" ry="18"/>
<text text-anchor="middle" x="993.62" y="-392.3" font-family="Times New Roman,serif" font-size="14.00">bool</text>
</g>
<!-- 7&#45;&gt;8 -->
<g id="edge6" class="edge">
<title>7&#45;&gt;8</title>
<path fill="none" stroke="black" d="M502.91,-396C635.83,-396 866.83,-396 956.02,-396"/>
<polygon fill="black" stroke="black" points="956.18,-399.5 966.18,-396 956.18,-392.5 956.18,-399.5"/>
</g>
<!-- 10 -->
<!-- name: &quot;bool&quot;, typeName: &quot;&quot;, id: 10, branchId: 0, recurseId: &#45;1, attributes: 512, notes: &quot;&quot; -->
<g id="node9" class="node">
<title>10</title>
<ellipse fill="none" stroke="black" cx="993.62" cy="-342" rx="27.1" ry="18"/>
<text text-anchor="middle" x="993.62" y="-338.3" font-family="Times New Roman,serif" font-size="14.00">bool</text>
</g>
<!-- 9&#45;&gt;10 -->
<g id="edge8" class="edge">
<title>9&#45;&gt;10</title>
<path fill="none" stroke="black" d="M496.38,-342C628.13,-342 865.36,-342 956.03,-342"/>
<polygon fill="black" stroke="black" points="956.09,-345.5 966.09,-342 956.09,-338.5 956.09,-345.5"/>
</g>
<!-- 12 -->
<!-- name: &quot;string&quot;, typeName: &quot;&quot;, id: 12, branchId: 0, recurseId: &#45;1, attributes: 512, notes: &quot;&quot; -->
<g id="node11" class="node">
<title>12</title>
<ellipse fill="none" stroke="black" cx="993.62" cy="-288" rx="30.59" ry="18"/>
<text text-anchor="middle" x="993.62" y="-284.3" font-family="Times New Roman,serif" font-size="14.00">string</text>
</g>
<!-- 11&#45;&gt;12 -->
<g id="edge10" class="edge">
<title>11&#45;&gt;12</title>
<path fill="none" stroke="black" d="M483.83,-288C611.02,-288 856.71,-288 952.76,-288"/>
<polygon fill="black" stroke="black" points="952.92,-291.5 962.92,-288 952.92,-284.5 952.92,-291.5"/>
</g>
<!-- 14 -->
<!-- name: &quot;string&quot;, typeName: &quot;&quot;, id: 14, branchId: 0, recurseId: &#45;1, attributes: 512, notes: &quot;&quot; -->
<g id="node13" class="node">
<title>14</title>
<ellipse fill="none" stroke="black" cx="993.62" cy="-234" rx="30.59" ry="18"/>
<text text-anchor="middle" x="993.62" y="-230.3" font-family="Times New Roman,serif" font-size="14.00">string</text>
</g>
<!-- 13&#45;&gt;14 -->
<g id="edge12" class="edge">
<title>13&#45;&gt;14</title>
<path fill="none" stroke="black" d="M538.6,-234C672.12,-234 869.12,-234 952.75,-234"/>
<polygon fill="black" stroke="black" points="952.84,-237.5 962.84,-234 952.84,-230.5 952.84,-237.5"/>
</g>
<!-- 19 -->
<!-- name: &quot;std::optional&lt;struct AgentCapabilities&gt;&quot;, typeName: &quot;&quot;, id: 19, branchId: 0, recurseId: &#45;1, attributes: 512, notes: &quot;&quot; -->
<g id="node15" class="node">
<title>19</title>
<ellipse fill="none" stroke="black" cx="993.62" cy="-180" rx="152.17" ry="18"/>
<text text-anchor="middle" x="993.62" y="-176.3" font-family="Times New Roman,serif" font-size="14.00">std::optional&lt;struct AgentCapabilities&gt;</text>
</g>
<!-- 15&#45;&gt;19 -->
<g id="edge14" class="edge">
<title>15&#45;&gt;19</title>
<path fill="none" stroke="black" d="M480.8,-180C568.99,-180 716.95,-180 831.17,-180"/>
<polygon fill="black" stroke="black" points="831.41,-183.5 841.41,-180 831.41,-176.5 831.41,-183.5"/>
</g>
<!-- 24 -->
<!-- name: &quot;std::optional&lt;class std::basic_string&lt;char,struct std::char_traits&lt;char&gt;,class std::allocator&lt;char&gt; &gt; &gt;&quot;, typeName: &quot;&quot;, id: 24, branchId: 0, recurseId: &#45;1, attributes: 512, notes: &quot;&quot; -->
<g id="node17" class="node">
<title>24</title>
<ellipse fill="none" stroke="black" cx="993.62" cy="-126" rx="376.93" ry="18"/>
<text text-anchor="middle" x="993.62" y="-122.3" font-family="Times New Roman,serif" font-size="14.00">std::optional&lt;class std::basic_string&lt;char,struct std::char_traits&lt;char&gt;,class std::allocator&lt;char&gt; &gt; &gt;</text>
</g>
<!-- 20&#45;&gt;24 -->
<g id="edge16" class="edge">
<title>20&#45;&gt;24</title>
<path fill="none" stroke="black" d="M510.62,-126C539.13,-126 571.7,-126 606.17,-126"/>
<polygon fill="black" stroke="black" points="606.43,-129.5 616.43,-126 606.43,-122.5 606.43,-129.5"/>
</g>
<!-- 26 -->
<!-- name: &quot;bool&quot;, typeName: &quot;&quot;, id: 26, branchId: 0, recurseId: &#45;1, attributes: 512, notes: &quot;&quot; -->
<g id="node19" class="node">
<title>26</title>
<ellipse fill="none" stroke="black" cx="993.62" cy="-72" rx="27.1" ry="18"/>
<text text-anchor="middle" x="993.62" y="-68.3" font-family="Times New Roman,serif" font-size="14.00">bool</text>
</g>
<!-- 25&#45;&gt;26 -->
<g id="edge18" class="edge">
<title>25&#45;&gt;26</title>
<path fill="none" stroke="black" d="M580.81,-72C712.65,-72 882.46,-72 955.99,-72"/>
<polygon fill="black" stroke="black" points="956.12,-75.5 966.12,-72 956.12,-68.5 956.12,-75.5"/>
</g>
<!-- 31 -->
<!-- name: &quot;std::optional&lt;struct ExternalLinkSettings&gt;&quot;, typeName: &quot;&quot;, id: 31, branchId: 0, recurseId: &#45;1, attributes: 512, notes: &quot;&quot; -->
<g id="node21" class="node">
<title>31</title>
<ellipse fill="none" stroke="black" cx="993.62" cy="-18" rx="163.27" ry="18"/>
<text text-anchor="middle" x="993.62" y="-14.3" font-family="Times New Roman,serif" font-size="14.00">std::optional&lt;struct ExternalLinkSettings&gt;</text>
</g>
<!-- 27&#45;&gt;31 -->
<g id="edge20" class="edge">
<title>27&#45;&gt;31</title>
<path fill="none" stroke="black" d="M493.81,-18C580.01,-18 713.03,-18 820.04,-18"/>
<polygon fill="black" stroke="black" points="820.31,-21.5 830.31,-18 820.31,-14.5 820.31,-21.5"/>
</g>
</g>
</svg>
