<?xml version="1.0" encoding="UTF-8" standalone="no"?>
<!DOCTYPE svg PUBLIC "-//W3C//DTD SVG 1.1//EN"
 "http://www.w3.org/Graphics/SVG/1.1/DTD/svg11.dtd">
<!-- Generated by graphviz version 11.0.0 (20240428.1522)
 -->
<!-- Title: EducationLevelSettings Pages: 1 -->
<svg width="1321pt" height="530pt"
 viewBox="0.00 0.00 1320.50 530.00" xmlns="http://www.w3.org/2000/svg" xmlns:xlink="http://www.w3.org/1999/xlink">
<g id="graph0" class="graph" transform="scale(1 1) rotate(0) translate(4 526)">
<title>EducationLevelSettings</title>
<polygon fill="white" stroke="none" points="-4,4 -4,-526 1316.5,-526 1316.5,4 -4,4"/>
<!-- 2 -->
<!-- name: &quot;EducationLevelSettings&quot;, typeName: &quot;&quot;, id: 2, branchId: 0, recurseId: &#45;1, attributes: 0, notes: &quot;&quot; -->
<g id="node1" class="node">
<title>2</title>
<ellipse fill="none" stroke="black" cx="97.47" cy="-261" rx="97.47" ry="18"/>
<text text-anchor="middle" x="97.47" y="-255.57" font-family="Times New Roman,serif" font-size="14.00">EducationLevelSettings</text>
</g>
<!-- 3 -->
<!-- name: &quot;Code Builder Default URI&quot;, typeName: &quot;&quot;, id: 3, branchId: 0, recurseId: &#45;1, attributes: 0, notes: &quot;&quot; -->
<g id="node2" class="node">
<title>3</title>
<ellipse fill="none" stroke="black" cx="368.33" cy="-504" rx="107.45" ry="18"/>
<text text-anchor="middle" x="368.33" y="-498.57" font-family="Times New Roman,serif" font-size="14.00">Code Builder Default URI</text>
</g>
<!-- 2&#45;&gt;3 -->
<g id="edge1" class="edge">
<title>2&#45;&gt;3</title>
<path fill="none" stroke="black" d="M104.03,-279.32C117.89,-321.62 158.19,-426.36 230.94,-477 240.15,-483.41 250.52,-488.39 261.32,-492.23"/>
<polygon fill="black" stroke="black" points="260.2,-495.55 270.79,-495.25 262.32,-488.88 260.2,-495.55"/>
</g>
<!-- 5 -->
<!-- name: &quot;Code Builder Title&quot;, typeName: &quot;&quot;, id: 5, branchId: 0, recurseId: &#45;1, attributes: 0, notes: &quot;&quot; -->
<g id="node4" class="node">
<title>5</title>
<ellipse fill="none" stroke="black" cx="368.33" cy="-450" rx="79.01" ry="18"/>
<text text-anchor="middle" x="368.33" y="-444.57" font-family="Times New Roman,serif" font-size="14.00">Code Builder Title</text>
</g>
<!-- 2&#45;&gt;5 -->
<g id="edge3" class="edge">
<title>2&#45;&gt;5</title>
<path fill="none" stroke="black" d="M107.81,-279.32C126.29,-313.55 170.97,-387.02 230.94,-423 246.2,-432.15 263.97,-438.27 281.55,-442.35"/>
<polygon fill="black" stroke="black" points="280.47,-445.7 290.97,-444.32 281.9,-438.85 280.47,-445.7"/>
</g>
<!-- 7 -->
<!-- name: &quot;Can resize Code Builder&quot;, typeName: &quot;&quot;, id: 7, branchId: 0, recurseId: &#45;1, attributes: 0, notes: &quot;&quot; -->
<g id="node6" class="node">
<title>7</title>
<ellipse fill="none" stroke="black" cx="368.33" cy="-396" rx="100.96" ry="18"/>
<text text-anchor="middle" x="368.33" y="-390.57" font-family="Times New Roman,serif" font-size="14.00">Can resize Code Builder</text>
</g>
<!-- 2&#45;&gt;7 -->
<g id="edge5" class="edge">
<title>2&#45;&gt;7</title>
<path fill="none" stroke="black" d="M114.95,-279.12C138.28,-303.57 183.42,-346.64 230.94,-369 243.82,-375.06 258,-379.76 272.21,-383.41"/>
<polygon fill="black" stroke="black" points="271.04,-386.72 281.58,-385.64 272.66,-379.92 271.04,-386.72"/>
</g>
<!-- 9 -->
<!-- name: &quot;Disable legacy title bar&quot;, typeName: &quot;&quot;, id: 9, branchId: 0, recurseId: &#45;1, attributes: 0, notes: &quot;&quot; -->
<g id="node8" class="node">
<title>9</title>
<ellipse fill="none" stroke="black" cx="368.33" cy="-342" rx="93.98" ry="18"/>
<text text-anchor="middle" x="368.33" y="-336.57" font-family="Times New Roman,serif" font-size="14.00">Disable legacy title bar</text>
</g>
<!-- 2&#45;&gt;9 -->
<g id="edge7" class="edge">
<title>2&#45;&gt;9</title>
<path fill="none" stroke="black" d="M134.9,-278.06C161.14,-289.8 197.64,-305.02 230.94,-315 247.9,-320.08 266.34,-324.47 284.02,-328.14"/>
<polygon fill="black" stroke="black" points="283.23,-331.56 293.72,-330.1 284.61,-324.69 283.23,-331.56"/>
</g>
<!-- 11 -->
<!-- name: &quot;Post Process Filter&quot;, typeName: &quot;&quot;, id: 11, branchId: 0, recurseId: &#45;1, attributes: 0, notes: &quot;&quot; -->
<g id="node10" class="node">
<title>11</title>
<ellipse fill="none" stroke="black" cx="368.33" cy="-288" rx="81.5" ry="18"/>
<text text-anchor="middle" x="368.33" y="-282.57" font-family="Times New Roman,serif" font-size="14.00">Post Process Filter</text>
</g>
<!-- 2&#45;&gt;11 -->
<g id="edge9" class="edge">
<title>2&#45;&gt;11</title>
<path fill="none" stroke="black" d="M183.91,-269.58C215.27,-272.73 250.75,-276.29 282.09,-279.44"/>
<polygon fill="black" stroke="black" points="281.63,-282.91 291.93,-280.43 282.33,-275.95 281.63,-282.91"/>
</g>
<!-- 13 -->
<!-- name: &quot;Screenshot Border Resource Path&quot;, typeName: &quot;&quot;, id: 13, branchId: 0, recurseId: &#45;1, attributes: 0, notes: &quot;&quot; -->
<g id="node12" class="node">
<title>13</title>
<ellipse fill="none" stroke="black" cx="368.33" cy="-234" rx="137.39" ry="18"/>
<text text-anchor="middle" x="368.33" y="-228.57" font-family="Times New Roman,serif" font-size="14.00">Screenshot Border Resource Path</text>
</g>
<!-- 2&#45;&gt;13 -->
<g id="edge11" class="edge">
<title>2&#45;&gt;13</title>
<path fill="none" stroke="black" d="M183.91,-252.42C203.85,-250.42 225.46,-248.25 246.61,-246.12"/>
<polygon fill="black" stroke="black" points="246.85,-249.62 256.45,-245.14 246.15,-242.65 246.85,-249.62"/>
</g>
<!-- 15 -->
<!-- name: &quot;Agent Capabilities&quot;, typeName: &quot;std::optional&lt;struct AgentCapabilities&gt;&quot;, id: 15, branchId: 0, recurseId: &#45;1, attributes: 256, notes: &quot;&quot; -->
<g id="node14" class="node">
<title>15</title>
<ellipse fill="none" stroke="black" cx="368.33" cy="-180" rx="78.01" ry="18"/>
<text text-anchor="middle" x="368.33" y="-174.57" font-family="Times New Roman,serif" font-size="14.00">Agent Capabilities</text>
</g>
<!-- 2&#45;&gt;15 -->
<g id="edge13" class="edge">
<title>2&#45;&gt;15</title>
<path fill="none" stroke="black" d="M134.9,-243.94C161.14,-232.2 197.64,-216.98 230.94,-207 250.36,-201.18 271.72,-196.27 291.65,-192.3"/>
<polygon fill="black" stroke="black" points="292.23,-195.76 301.39,-190.42 290.91,-188.88 292.23,-195.76"/>
</g>
<!-- 20 -->
<!-- name: &quot;Code Builder Override Uri&quot;, typeName: &quot;std::optional&lt;class std::basic_string&lt;char,struct std::char_traits&lt;char&gt;,class std::allocator&lt;char&gt; &gt; &gt;&quot;, id: 20, branchId: 0, recurseId: &#45;1, attributes: 256, notes: &quot;&quot; -->
<g id="node16" class="node">
<title>20</title>
<ellipse fill="none" stroke="black" cx="368.33" cy="-126" rx="108.95" ry="18"/>
<text text-anchor="middle" x="368.33" y="-120.58" font-family="Times New Roman,serif" font-size="14.00">Code Builder Override Uri</text>
</g>
<!-- 2&#45;&gt;20 -->
<g id="edge15" class="edge">
<title>2&#45;&gt;20</title>
<path fill="none" stroke="black" d="M114.95,-242.88C138.28,-218.43 183.42,-175.36 230.94,-153 242.8,-147.42 255.76,-142.99 268.83,-139.48"/>
<polygon fill="black" stroke="black" points="269.49,-142.92 278.34,-137.11 267.79,-136.13 269.49,-142.92"/>
</g>
<!-- 25 -->
<!-- name: &quot;(Deprecated) Always False&quot;, typeName: &quot;&quot;, id: 25, branchId: 0, recurseId: &#45;1, attributes: 0, notes: &quot;&quot; -->
<g id="node18" class="node">
<title>25</title>
<ellipse fill="none" stroke="black" cx="368.33" cy="-72" rx="110.94" ry="18"/>
<text text-anchor="middle" x="368.33" y="-66.58" font-family="Times New Roman,serif" font-size="14.00">(Deprecated) Always False</text>
</g>
<!-- 2&#45;&gt;25 -->
<g id="edge17" class="edge">
<title>2&#45;&gt;25</title>
<path fill="none" stroke="black" d="M107.81,-242.68C126.29,-208.45 170.97,-134.98 230.94,-99 240.74,-93.12 251.59,-88.49 262.75,-84.85"/>
<polygon fill="black" stroke="black" points="263.49,-88.28 272.08,-82.08 261.5,-81.57 263.49,-88.28"/>
</g>
<!-- 27 -->
<!-- name: &quot;External Link Settings&quot;, typeName: &quot;std::optional&lt;struct ExternalLinkSettings&gt;&quot;, id: 27, branchId: 0, recurseId: &#45;1, attributes: 256, notes: &quot;&quot; -->
<g id="node20" class="node">
<title>27</title>
<ellipse fill="none" stroke="black" cx="368.33" cy="-18" rx="91.48" ry="18"/>
<text text-anchor="middle" x="368.33" y="-12.57" font-family="Times New Roman,serif" font-size="14.00">External Link Settings</text>
</g>
<!-- 2&#45;&gt;27 -->
<g id="edge19" class="edge">
<title>2&#45;&gt;27</title>
<path fill="none" stroke="black" d="M104.03,-242.68C117.89,-200.38 158.19,-95.64 230.94,-45 242.78,-36.76 256.53,-30.89 270.64,-26.74"/>
<polygon fill="black" stroke="black" points="271.24,-30.21 280.02,-24.28 269.46,-23.44 271.24,-30.21"/>
</g>
<!-- 4 -->
<!-- name: &quot;string&quot;, typeName: &quot;&quot;, id: 4, branchId: 0, recurseId: &#45;1, attributes: 512, notes: &quot;&quot; -->
<g id="node3" class="node">
<title>4</title>
<ellipse fill="none" stroke="black" cx="927.11" cy="-504" rx="31.1" ry="18"/>
<text text-anchor="middle" x="927.11" y="-498.57" font-family="Times New Roman,serif" font-size="14.00">string</text>
</g>
<!-- 3&#45;&gt;4 -->
<g id="edge2" class="edge">
<title>3&#45;&gt;4</title>
<path fill="none" stroke="black" d="M476.03,-504C599.97,-504 798.42,-504 884.28,-504"/>
<polygon fill="black" stroke="black" points="884.12,-507.5 894.12,-504 884.12,-500.5 884.12,-507.5"/>
</g>
<!-- 6 -->
<!-- name: &quot;string&quot;, typeName: &quot;&quot;, id: 6, branchId: 0, recurseId: &#45;1, attributes: 512, notes: &quot;&quot; -->
<g id="node5" class="node">
<title>6</title>
<ellipse fill="none" stroke="black" cx="927.11" cy="-450" rx="31.1" ry="18"/>
<text text-anchor="middle" x="927.11" y="-444.57" font-family="Times New Roman,serif" font-size="14.00">string</text>
</g>
<!-- 5&#45;&gt;6 -->
<g id="edge4" class="edge">
<title>5&#45;&gt;6</title>
<path fill="none" stroke="black" d="M447.63,-450C567.29,-450 791.52,-450 884.28,-450"/>
<polygon fill="black" stroke="black" points="884.19,-453.5 894.19,-450 884.19,-446.5 884.19,-453.5"/>
</g>
<!-- 8 -->
<!-- name: &quot;bool&quot;, typeName: &quot;&quot;, id: 8, branchId: 0, recurseId: &#45;1, attributes: 512, notes: &quot;&quot; -->
<g id="node7" class="node">
<title>8</title>
<ellipse fill="none" stroke="black" cx="927.11" cy="-396" rx="27.61" ry="18"/>
<text text-anchor="middle" x="927.11" y="-390.57" font-family="Times New Roman,serif" font-size="14.00">bool</text>
</g>
<!-- 7&#45;&gt;8 -->
<g id="edge6" class="edge">
<title>7&#45;&gt;8</title>
<path fill="none" stroke="black" d="M469.52,-396C594.53,-396 802.25,-396 887.65,-396"/>
<polygon fill="black" stroke="black" points="887.59,-399.5 897.59,-396 887.59,-392.5 887.59,-399.5"/>
</g>
<!-- 10 -->
<!-- name: &quot;bool&quot;, typeName: &quot;&quot;, id: 10, branchId: 0, recurseId: &#45;1, attributes: 512, notes: &quot;&quot; -->
<g id="node9" class="node">
<title>10</title>
<ellipse fill="none" stroke="black" cx="927.11" cy="-342" rx="27.61" ry="18"/>
<text text-anchor="middle" x="927.11" y="-336.57" font-family="Times New Roman,serif" font-size="14.00">bool</text>
</g>
<!-- 9&#45;&gt;10 -->
<g id="edge8" class="edge">
<title>9&#45;&gt;10</title>
<path fill="none" stroke="black" d="M462.52,-342C586.7,-342 800.86,-342 887.78,-342"/>
<polygon fill="black" stroke="black" points="887.67,-345.5 897.67,-342 887.67,-338.5 887.67,-345.5"/>
</g>
<!-- 12 -->
<!-- name: &quot;string&quot;, typeName: &quot;&quot;, id: 12, branchId: 0, recurseId: &#45;1, attributes: 512, notes: &quot;&quot; -->
<g id="node11" class="node">
<title>12</title>
<ellipse fill="none" stroke="black" cx="927.11" cy="-288" rx="31.1" ry="18"/>
<text text-anchor="middle" x="927.11" y="-282.57" font-family="Times New Roman,serif" font-size="14.00">string</text>
</g>
<!-- 11&#45;&gt;12 -->
<g id="edge10" class="edge">
<title>11&#45;&gt;12</title>
<path fill="none" stroke="black" d="M450.29,-288C570.64,-288 792.39,-288 884.4,-288"/>
<polygon fill="black" stroke="black" points="884.22,-291.5 894.22,-288 884.22,-284.5 884.22,-291.5"/>
</g>
<!-- 14 -->
<!-- name: &quot;string&quot;, typeName: &quot;&quot;, id: 14, branchId: 0, recurseId: &#45;1, attributes: 512, notes: &quot;&quot; -->
<g id="node13" class="node">
<title>14</title>
<ellipse fill="none" stroke="black" cx="927.11" cy="-234" rx="31.1" ry="18"/>
<text text-anchor="middle" x="927.11" y="-228.57" font-family="Times New Roman,serif" font-size="14.00">string</text>
</g>
<!-- 13&#45;&gt;14 -->
<g id="edge12" class="edge">
<title>13&#45;&gt;14</title>
<path fill="none" stroke="black" d="M505.89,-234C629.77,-234 804.76,-234 884.1,-234"/>
<polygon fill="black" stroke="black" points="884.03,-237.5 894.03,-234 884.03,-230.5 884.03,-237.5"/>
</g>
<!-- 19 -->
<!-- name: &quot;std::optional&lt;struct AgentCapabilities&gt;&quot;, typeName: &quot;&quot;, id: 19, branchId: 0, recurseId: &#45;1, attributes: 512, notes: &quot;&quot; -->
<g id="node15" class="node">
<title>19</title>
<ellipse fill="none" stroke="black" cx="927.11" cy="-180" rx="155.35" ry="18"/>
<text text-anchor="middle" x="927.11" y="-174.57" font-family="Times New Roman,serif" font-size="14.00">std::optional&lt;struct AgentCapabilities&gt;</text>
</g>
<!-- 15&#45;&gt;19 -->
<g id="edge14" class="edge">
<title>15&#45;&gt;19</title>
<path fill="none" stroke="black" d="M446.75,-180C527.4,-180 656.24,-180 760.05,-180"/>
<polygon fill="black" stroke="black" points="759.78,-183.5 769.78,-180 759.78,-176.5 759.78,-183.5"/>
</g>
<!-- 24 -->
<!-- name: &quot;std::optional&lt;class std::basic_string&lt;char,struct std::char_traits&lt;char&gt;,class std::allocator&lt;char&gt; &gt; &gt;&quot;, typeName: &quot;&quot;, id: 24, branchId: 0, recurseId: &#45;1, attributes: 512, notes: &quot;&quot; -->
<g id="node17" class="node">
<title>24</title>
<ellipse fill="none" stroke="black" cx="927.11" cy="-126" rx="385.39" ry="18"/>
<text text-anchor="middle" x="927.11" y="-120.58" font-family="Times New Roman,serif" font-size="14.00">std::optional&lt;class std::basic_string&lt;char,struct std::char_traits&lt;char&gt;,class std::allocator&lt;char&gt; &gt; &gt;</text>
</g>
<!-- 20&#45;&gt;24 -->
<g id="edge16" class="edge">
<title>20&#45;&gt;24</title>
<path fill="none" stroke="black" d="M477.67,-126C493.99,-126 511.58,-126 530,-126"/>
<polygon fill="black" stroke="black" points="529.75,-129.5 539.75,-126 529.75,-122.5 529.75,-129.5"/>
</g>
<!-- 26 -->
<!-- name: &quot;bool&quot;, typeName: &quot;&quot;, id: 26, branchId: 0, recurseId: &#45;1, attributes: 512, notes: &quot;&quot; -->
<g id="node19" class="node">
<title>26</title>
<ellipse fill="none" stroke="black" cx="927.11" cy="-72" rx="27.61" ry="18"/>
<text text-anchor="middle" x="927.11" y="-66.58" font-family="Times New Roman,serif" font-size="14.00">bool</text>
</g>
<!-- 25&#45;&gt;26 -->
<g id="edge18" class="edge">
<title>25&#45;&gt;26</title>
<path fill="none" stroke="black" d="M479.67,-72C605.52,-72 804.6,-72 887.7,-72"/>
<polygon fill="black" stroke="black" points="887.58,-75.5 897.58,-72 887.58,-68.5 887.58,-75.5"/>
</g>
<!-- 31 -->
<!-- name: &quot;std::optional&lt;struct ExternalLinkSettings&gt;&quot;, typeName: &quot;&quot;, id: 31, branchId: 0, recurseId: &#45;1, attributes: 512, notes: &quot;&quot; -->
<g id="node21" class="node">
<title>31</title>
<ellipse fill="none" stroke="black" cx="927.11" cy="-18" rx="166.33" ry="18"/>
<text text-anchor="middle" x="927.11" y="-12.57" font-family="Times New Roman,serif" font-size="14.00">std::optional&lt;struct ExternalLinkSettings&gt;</text>
</g>
<!-- 27&#45;&gt;31 -->
<g id="edge20" class="edge">
<title>27&#45;&gt;31</title>
<path fill="none" stroke="black" d="M460.03,-18C538.06,-18 652.91,-18 749.08,-18"/>
<polygon fill="black" stroke="black" points="748.9,-21.5 758.9,-18 748.9,-14.5 748.9,-21.5"/>
</g>
</g>
</svg>
