<?xml version="1.0" encoding="UTF-8" standalone="no"?>
<!DOCTYPE svg PUBLIC "-//W3C//DTD SVG 1.1//EN"
 "http://www.w3.org/Graphics/SVG/1.1/DTD/svg11.dtd">
<!-- Generated by graphviz version 10.0.1 (20240210.2158)
 -->
<!-- Title: EduSharedUriResource Pages: 1 -->
<svg width="458pt" height="98pt"
 viewBox="0.00 0.00 458.24 98.00" xmlns="http://www.w3.org/2000/svg" xmlns:xlink="http://www.w3.org/1999/xlink">
<g id="graph0" class="graph" transform="scale(1 1) rotate(0) translate(4 94)">
<title>EduSharedUriResource</title>
<polygon fill="white" stroke="none" points="-4,4 -4,-94 454.24,-94 454.24,4 -4,4"/>
<!-- 127 -->
<!-- name: &quot;EduSharedUriResource&quot;, typeName: &quot;&quot;, id: 127, branchId: 0, recurseId: &#45;1, attributes: 0, notes: &quot;&quot; -->
<g id="node1" class="node">
<title>127</title>
<ellipse fill="none" stroke="black" cx="98.47" cy="-45" rx="98.47" ry="18"/>
<text text-anchor="middle" x="98.47" y="-39.58" font-family="Times New Roman,serif" font-size="14.00">EduSharedUriResource</text>
</g>
<!-- 128 -->
<!-- name: &quot;Button Name&quot;, typeName: &quot;&quot;, id: 128, branchId: 0, recurseId: &#45;1, attributes: 0, notes: &quot;&quot; -->
<g id="node2" class="node">
<title>128</title>
<ellipse fill="none" stroke="black" cx="292.48" cy="-72" rx="59.55" ry="18"/>
<text text-anchor="middle" x="292.48" y="-66.58" font-family="Times New Roman,serif" font-size="14.00">Button Name</text>
</g>
<!-- 127&#45;&gt;128 -->
<g id="edge1" class="edge">
<title>127&#45;&gt;128</title>
<path fill="none" stroke="black" d="M177.85,-56.02C194.03,-58.3 210.91,-60.67 226.56,-62.87"/>
<polygon fill="black" stroke="black" points="225.82,-66.3 236.21,-64.23 226.79,-59.37 225.82,-66.3"/>
</g>
<!-- 130 -->
<!-- name: &quot;Link Uri&quot;, typeName: &quot;&quot;, id: 130, branchId: 0, recurseId: &#45;1, attributes: 0, notes: &quot;&quot; -->
<g id="node4" class="node">
<title>130</title>
<ellipse fill="none" stroke="black" cx="292.48" cy="-18" rx="41.08" ry="18"/>
<text text-anchor="middle" x="292.48" y="-12.57" font-family="Times New Roman,serif" font-size="14.00">Link Uri</text>
</g>
<!-- 127&#45;&gt;130 -->
<g id="edge3" class="edge">
<title>127&#45;&gt;130</title>
<path fill="none" stroke="black" d="M177.85,-33.98C199.33,-30.96 222.03,-27.77 241.45,-25.04"/>
<polygon fill="black" stroke="black" points="241.86,-28.51 251.28,-23.65 240.89,-21.58 241.86,-28.51"/>
</g>
<!-- 129 -->
<!-- name: &quot;string&quot;, typeName: &quot;&quot;, id: 129, branchId: 0, recurseId: &#45;1, attributes: 512, notes: &quot;&quot; -->
<g id="node3" class="node">
<title>129</title>
<ellipse fill="none" stroke="black" cx="419.13" cy="-72" rx="31.1" ry="18"/>
<text text-anchor="middle" x="419.13" y="-66.58" font-family="Times New Roman,serif" font-size="14.00">string</text>
</g>
<!-- 128&#45;&gt;129 -->
<g id="edge2" class="edge">
<title>128&#45;&gt;129</title>
<path fill="none" stroke="black" d="M352.52,-72C360.63,-72 368.81,-72 376.52,-72"/>
<polygon fill="black" stroke="black" points="376.26,-75.5 386.26,-72 376.26,-68.5 376.26,-75.5"/>
</g>
<!-- 131 -->
<!-- name: &quot;string&quot;, typeName: &quot;&quot;, id: 131, branchId: 0, recurseId: &#45;1, attributes: 512, notes: &quot;&quot; -->
<g id="node5" class="node">
<title>131</title>
<ellipse fill="none" stroke="black" cx="419.13" cy="-18" rx="31.1" ry="18"/>
<text text-anchor="middle" x="419.13" y="-12.57" font-family="Times New Roman,serif" font-size="14.00">string</text>
</g>
<!-- 130&#45;&gt;131 -->
<g id="edge4" class="edge">
<title>130&#45;&gt;131</title>
<path fill="none" stroke="black" d="M333.95,-18C347.62,-18 362.88,-18 376.62,-18"/>
<polygon fill="black" stroke="black" points="376.23,-21.5 386.23,-18 376.23,-14.5 376.23,-21.5"/>
</g>
</g>
</svg>
