<?xml version="1.0" encoding="UTF-8" standalone="no"?>
<!DOCTYPE svg PUBLIC "-//W3C//DTD SVG 1.1//EN"
 "http://www.w3.org/Graphics/SVG/1.1/DTD/svg11.dtd">
<!-- Generated by graphviz version 12.2.0 (20241103.1931)
 -->
<!-- Title: EduSharedUriResource Pages: 1 -->
<svg width="462pt" height="98pt"
 viewBox="0.00 0.00 461.81 98.00" xmlns="http://www.w3.org/2000/svg" xmlns:xlink="http://www.w3.org/1999/xlink">
<g id="graph0" class="graph" transform="scale(1 1) rotate(0) translate(4 94)">
<title>EduSharedUriResource</title>
<polygon fill="white" stroke="none" points="-4,4 -4,-94 457.81,-94 457.81,4 -4,4"/>
<!-- 127 -->
<!-- name: &quot;EduSharedUriResource&quot;, typeName: &quot;&quot;, id: 127, branchId: 0, recurseId: &#45;1, attributes: 0, notes: &quot;&quot; -->
<g id="node1" class="node">
<title>127</title>
<ellipse fill="none" stroke="black" cx="97.93" cy="-45" rx="97.93" ry="18"/>
<text text-anchor="middle" x="97.93" y="-39.95" font-family="Times New Roman,serif" font-size="14.00">EduSharedUriResource</text>
</g>
<!-- 128 -->
<!-- name: &quot;Button Name&quot;, typeName: &quot;&quot;, id: 128, branchId: 0, recurseId: &#45;1, attributes: 0, notes: &quot;&quot; -->
<g id="node2" class="node">
<title>128</title>
<ellipse fill="none" stroke="black" cx="292.93" cy="-72" rx="61.08" ry="18"/>
<text text-anchor="middle" x="292.93" y="-66.95" font-family="Times New Roman,serif" font-size="14.00">Button Name</text>
</g>
<!-- 127&#45;&gt;128 -->
<g id="edge1" class="edge">
<title>127&#45;&gt;128</title>
<path fill="none" stroke="black" d="M177.15,-55.94C193.29,-58.2 210.15,-60.56 225.81,-62.75"/>
<polygon fill="black" stroke="black" points="225.09,-66.18 235.48,-64.1 226.06,-59.25 225.09,-66.18"/>
</g>
<!-- 130 -->
<!-- name: &quot;Link Uri&quot;, typeName: &quot;&quot;, id: 130, branchId: 0, recurseId: &#45;1, attributes: 0, notes: &quot;&quot; -->
<g id="node4" class="node">
<title>130</title>
<ellipse fill="none" stroke="black" cx="292.93" cy="-18" rx="43.16" ry="18"/>
<text text-anchor="middle" x="292.93" y="-12.95" font-family="Times New Roman,serif" font-size="14.00">Link Uri</text>
</g>
<!-- 127&#45;&gt;130 -->
<g id="edge3" class="edge">
<title>127&#45;&gt;130</title>
<path fill="none" stroke="black" d="M177.15,-34.06C198.36,-31.09 220.8,-27.95 240.15,-25.24"/>
<polygon fill="black" stroke="black" points="240.55,-28.72 249.96,-23.87 239.58,-21.79 240.55,-28.72"/>
</g>
<!-- 129 -->
<!-- name: &quot;string&quot;, typeName: &quot;&quot;, id: 129, branchId: 0, recurseId: &#45;1, attributes: 512, notes: &quot;&quot; -->
<g id="node3" class="node">
<title>129</title>
<ellipse fill="none" stroke="black" cx="421.91" cy="-72" rx="31.9" ry="18"/>
<text text-anchor="middle" x="421.91" y="-66.95" font-family="Times New Roman,serif" font-size="14.00">string</text>
</g>
<!-- 128&#45;&gt;129 -->
<g id="edge2" class="edge">
<title>128&#45;&gt;129</title>
<path fill="none" stroke="black" d="M354.44,-72C362.41,-72 370.43,-72 378.02,-72"/>
<polygon fill="black" stroke="black" points="377.99,-75.5 387.99,-72 377.99,-68.5 377.99,-75.5"/>
</g>
<!-- 131 -->
<!-- name: &quot;string&quot;, typeName: &quot;&quot;, id: 131, branchId: 0, recurseId: &#45;1, attributes: 512, notes: &quot;&quot; -->
<g id="node5" class="node">
<title>131</title>
<ellipse fill="none" stroke="black" cx="421.91" cy="-18" rx="31.9" ry="18"/>
<text text-anchor="middle" x="421.91" y="-12.95" font-family="Times New Roman,serif" font-size="14.00">string</text>
</g>
<!-- 130&#45;&gt;131 -->
<g id="edge4" class="edge">
<title>130&#45;&gt;131</title>
<path fill="none" stroke="black" d="M336.56,-18C350.05,-18 364.95,-18 378.42,-18"/>
<polygon fill="black" stroke="black" points="378.31,-21.5 388.31,-18 378.31,-14.5 378.31,-21.5"/>
</g>
</g>
</svg>
