<?xml version="1.0" encoding="UTF-8" standalone="no"?>
<!DOCTYPE svg PUBLIC "-//W3C//DTD SVG 1.1//EN"
 "http://www.w3.org/Graphics/SVG/1.1/DTD/svg11.dtd">
<!-- Generated by graphviz version 13.1.2 (20250808.2320)
 -->
<!-- Title: EduUriResourcePacket Pages: 1 -->
<svg width="714pt" height="98pt"
 viewBox="0.00 0.00 714.00 98.00" xmlns="http://www.w3.org/2000/svg" xmlns:xlink="http://www.w3.org/1999/xlink">
<g id="graph0" class="graph" transform="scale(1 1) rotate(0) translate(4 94)">
<title>EduUriResourcePacket</title>
<polygon fill="white" stroke="none" points="-4,4 -4,-94 710.13,-94 710.13,4 -4,4"/>
<!-- 0 -->
<!-- name: &quot;EduUriResourcePacket&quot;, typeName: &quot;&quot;, id: 0, branchId: 0, recurseId: &#45;1, attributes: 0, notes: &quot;Transmits Edu Shared Uri Resource settings to all clients.&quot; -->
<g id="node1" class="node">
<title>0</title>
<ellipse fill="none" stroke="black" cx="96.9" cy="-45" rx="96.9" ry="18"/>
<text xml:space="preserve" text-anchor="middle" x="96.9" y="-39.95" font-family="Times New Roman,serif" font-size="14.00">EduUriResourcePacket</text>
</g>
<!-- 1 -->
<!-- name: &quot;Edu Shared URI Resource&quot;, typeName: &quot;&quot;, id: 1, branchId: 0, recurseId: &#45;1, attributes: 0, notes: &quot;&quot; -->
<g id="node2" class="node">
<title>1</title>
<ellipse fill="none" stroke="black" cx="338.99" cy="-45" rx="109.19" ry="18"/>
<text xml:space="preserve" text-anchor="middle" x="338.99" y="-39.95" font-family="Times New Roman,serif" font-size="14.00">Edu Shared URI Resource</text>
</g>
<!-- 0&#45;&gt;1 -->
<g id="edge1" class="edge">
<title>0&#45;&gt;1</title>
<path fill="none" stroke="black" d="M194.17,-45C202.06,-45 210.1,-45 218.13,-45"/>
<polygon fill="black" stroke="black" points="217.96,-48.5 227.96,-45 217.96,-41.5 217.96,-48.5"/>
</g>
<!-- 2 -->
<!-- name: &quot;Button Name&quot;, typeName: &quot;&quot;, id: 2, branchId: 0, recurseId: &#45;1, attributes: 0, notes: &quot;&quot; -->
<g id="node3" class="node">
<title>2</title>
<ellipse fill="none" stroke="black" cx="545.25" cy="-72" rx="61.08" ry="18"/>
<text xml:space="preserve" text-anchor="middle" x="545.25" y="-66.95" font-family="Times New Roman,serif" font-size="14.00">Button Name</text>
</g>
<!-- 1&#45;&gt;2 -->
<g id="edge2" class="edge">
<title>1&#45;&gt;2</title>
<path fill="none" stroke="black" d="M425.43,-56.29C442.84,-58.6 460.92,-60.98 477.56,-63.18"/>
<polygon fill="black" stroke="black" points="476.95,-66.63 487.32,-64.48 477.87,-59.69 476.95,-66.63"/>
</g>
<!-- 4 -->
<!-- name: &quot;Link Uri&quot;, typeName: &quot;&quot;, id: 4, branchId: 0, recurseId: &#45;1, attributes: 0, notes: &quot;&quot; -->
<g id="node5" class="node">
<title>4</title>
<ellipse fill="none" stroke="black" cx="545.25" cy="-18" rx="43.16" ry="18"/>
<text xml:space="preserve" text-anchor="middle" x="545.25" y="-12.95" font-family="Times New Roman,serif" font-size="14.00">Link Uri</text>
</g>
<!-- 1&#45;&gt;4 -->
<g id="edge4" class="edge">
<title>1&#45;&gt;4</title>
<path fill="none" stroke="black" d="M425.43,-33.71C448.2,-30.7 472.11,-27.54 492.46,-24.85"/>
<polygon fill="black" stroke="black" points="492.73,-28.34 502.18,-23.56 491.81,-21.4 492.73,-28.34"/>
</g>
<!-- 3 -->
<!-- name: &quot;string&quot;, typeName: &quot;&quot;, id: 3, branchId: 0, recurseId: &#45;1, attributes: 512, notes: &quot;&quot; -->
<g id="node4" class="node">
<title>3</title>
<ellipse fill="none" stroke="black" cx="674.23" cy="-72" rx="31.9" ry="18"/>
<text xml:space="preserve" text-anchor="middle" x="674.23" y="-66.95" font-family="Times New Roman,serif" font-size="14.00">string</text>
</g>
<!-- 2&#45;&gt;3 -->
<g id="edge3" class="edge">
<title>2&#45;&gt;3</title>
<path fill="none" stroke="black" d="M606.77,-72C614.73,-72 622.76,-72 630.34,-72"/>
<polygon fill="black" stroke="black" points="630.32,-75.5 640.32,-72 630.32,-68.5 630.32,-75.5"/>
</g>
<!-- 5 -->
<!-- name: &quot;string&quot;, typeName: &quot;&quot;, id: 5, branchId: 0, recurseId: &#45;1, attributes: 512, notes: &quot;&quot; -->
<g id="node6" class="node">
<title>5</title>
<ellipse fill="none" stroke="black" cx="674.23" cy="-18" rx="31.9" ry="18"/>
<text xml:space="preserve" text-anchor="middle" x="674.23" y="-12.95" font-family="Times New Roman,serif" font-size="14.00">string</text>
</g>
<!-- 4&#45;&gt;5 -->
<g id="edge5" class="edge">
<title>4&#45;&gt;5</title>
<path fill="none" stroke="black" d="M588.89,-18C602.37,-18 617.27,-18 630.74,-18"/>
<polygon fill="black" stroke="black" points="630.64,-21.5 640.64,-18 630.64,-14.5 630.64,-21.5"/>
</g>
</g>
</svg>
