<?xml version="1.0" encoding="UTF-8" standalone="no"?>
<!DOCTYPE svg PUBLIC "-//W3C//DTD SVG 1.1//EN"
 "http://www.w3.org/Graphics/SVG/1.1/DTD/svg11.dtd">
<!-- Generated by graphviz version 13.1.2 (20250808.2320)
 -->
<!-- Title: EmoteListPacket Pages: 1 -->
<svg width="938pt" height="206pt"
 viewBox="0.00 0.00 938.00 206.00" xmlns="http://www.w3.org/2000/svg" xmlns:xlink="http://www.w3.org/1999/xlink">
<g id="graph0" class="graph" transform="scale(1 1) rotate(0) translate(4 202)">
<title>EmoteListPacket</title>
<polygon fill="white" stroke="none" points="-4,4 -4,-202 933.8,-202 933.8,4 -4,4"/>
<!-- 0 -->
<!-- name: &quot;EmoteListPacket&quot;, typeName: &quot;&quot;, id: 0, branchId: 0, recurseId: &#45;1, attributes: 0, notes: &quot;Allows clients to download emotes that other clients have equipped.&quot; -->
<g id="node1" class="node">
<title>0</title>
<ellipse fill="none" stroke="black" cx="74.38" cy="-153" rx="74.38" ry="18"/>
<text xml:space="preserve" text-anchor="middle" x="74.38" y="-147.95" font-family="Times New Roman,serif" font-size="14.00">EmoteListPacket</text>
</g>
<!-- 1 -->
<!-- name: &quot;Runtime id&quot;, typeName: &quot;&quot;, id: 1, branchId: 0, recurseId: &#45;1, attributes: 0, notes: &quot;&quot; -->
<g id="node2" class="node">
<title>1</title>
<ellipse fill="none" stroke="black" cx="255.57" cy="-180" rx="52.89" ry="18"/>
<text xml:space="preserve" text-anchor="middle" x="255.57" y="-174.95" font-family="Times New Roman,serif" font-size="14.00">Runtime id</text>
</g>
<!-- 0&#45;&gt;1 -->
<g id="edge1" class="edge">
<title>0&#45;&gt;1</title>
<path fill="none" stroke="black" d="M138.56,-162.52C156.99,-165.3 177.07,-168.32 195.26,-171.06"/>
<polygon fill="black" stroke="black" points="194.69,-174.52 205.1,-172.55 195.74,-167.6 194.69,-174.52"/>
</g>
<!-- 4 -->
<!-- name: &quot;Emote piece ids&quot;, typeName: &quot;&quot;, id: 4, branchId: 0, recurseId: &#45;1, attributes: 0, notes: &quot;&quot; -->
<g id="node5" class="node">
<title>4</title>
<ellipse fill="none" stroke="black" cx="255.57" cy="-126" rx="70.8" ry="18"/>
<text xml:space="preserve" text-anchor="middle" x="255.57" y="-120.95" font-family="Times New Roman,serif" font-size="14.00">Emote piece ids</text>
</g>
<!-- 0&#45;&gt;4 -->
<g id="edge4" class="edge">
<title>0&#45;&gt;4</title>
<path fill="none" stroke="black" d="M138.56,-143.48C152.85,-141.33 168.12,-139.03 182.74,-136.82"/>
<polygon fill="black" stroke="black" points="182.9,-140.34 192.27,-135.39 181.86,-133.42 182.9,-140.34"/>
</g>
<!-- 2 -->
<!-- name: &quot;Actor Runtime ID&quot;, typeName: &quot;&quot;, id: 2, branchId: 0, recurseId: &#45;1, attributes: 0, notes: &quot;&quot; -->
<g id="node3" class="node">
<title>2</title>
<ellipse fill="none" stroke="black" cx="441.35" cy="-180" rx="78.99" ry="18"/>
<text xml:space="preserve" text-anchor="middle" x="441.35" y="-174.95" font-family="Times New Roman,serif" font-size="14.00">Actor Runtime ID</text>
</g>
<!-- 1&#45;&gt;2 -->
<g id="edge2" class="edge">
<title>1&#45;&gt;2</title>
<path fill="none" stroke="black" d="M308.74,-180C321.8,-180 336.19,-180 350.52,-180"/>
<polygon fill="black" stroke="black" points="350.45,-183.5 360.45,-180 350.45,-176.5 350.45,-183.5"/>
</g>
<!-- 3 -->
<!-- name: &quot;unsigned varint64&quot;, typeName: &quot;&quot;, id: 3, branchId: 0, recurseId: &#45;1, attributes: 512, notes: &quot;&quot; -->
<g id="node4" class="node">
<title>3</title>
<ellipse fill="none" stroke="black" cx="852.34" cy="-180" rx="77.45" ry="18"/>
<text xml:space="preserve" text-anchor="middle" x="852.34" y="-174.95" font-family="Times New Roman,serif" font-size="14.00">unsigned varint64</text>
</g>
<!-- 2&#45;&gt;3 -->
<g id="edge3" class="edge">
<title>2&#45;&gt;3</title>
<path fill="none" stroke="black" d="M520.73,-180C590.08,-180 691.19,-180 763.3,-180"/>
<polygon fill="black" stroke="black" points="763.11,-183.5 773.11,-180 763.11,-176.5 763.11,-183.5"/>
</g>
<!-- 5 -->
<!-- name: &quot;List Size&quot;, typeName: &quot;&quot;, id: 5, branchId: 0, recurseId: &#45;1, attributes: 0, notes: &quot;&quot; -->
<g id="node6" class="node">
<title>5</title>
<ellipse fill="none" stroke="black" cx="441.35" cy="-126" rx="43.67" ry="18"/>
<text xml:space="preserve" text-anchor="middle" x="441.35" y="-120.95" font-family="Times New Roman,serif" font-size="14.00">List Size</text>
</g>
<!-- 4&#45;&gt;5 -->
<g id="edge5" class="edge">
<title>4&#45;&gt;5</title>
<path fill="none" stroke="black" d="M326.84,-126C346.38,-126 367.31,-126 385.8,-126"/>
<polygon fill="black" stroke="black" points="385.76,-129.5 395.76,-126 385.76,-122.5 385.76,-129.5"/>
</g>
<!-- 7 -->
<!-- name: &quot;example element&quot;, typeName: &quot;&quot;, id: 7, branchId: 0, recurseId: &#45;1, attributes: 16, notes: &quot;&quot; -->
<g id="node8" class="node">
<title>7</title>
<ellipse fill="none" stroke="black" stroke-dasharray="1,5" cx="441.35" cy="-72" rx="74.89" ry="18"/>
<text xml:space="preserve" text-anchor="middle" x="441.35" y="-66.95" font-family="Times New Roman,serif" font-size="14.00">example element</text>
</g>
<!-- 4&#45;&gt;7 -->
<g id="edge7" class="edge">
<title>4&#45;&gt;7</title>
<path fill="none" stroke="black" d="M302.94,-112.37C326.84,-105.35 356.24,-96.72 381.7,-89.23"/>
<polygon fill="black" stroke="black" points="382.65,-92.6 391.26,-86.43 380.68,-85.89 382.65,-92.6"/>
</g>
<!-- 6 -->
<!-- name: &quot;unsigned varint&quot;, typeName: &quot;&quot;, id: 6, branchId: 0, recurseId: &#45;1, attributes: 0, notes: &quot;&quot; -->
<g id="node7" class="node">
<title>6</title>
<ellipse fill="none" stroke="black" cx="647.62" cy="-126" rx="68.24" ry="18"/>
<text xml:space="preserve" text-anchor="middle" x="647.62" y="-120.95" font-family="Times New Roman,serif" font-size="14.00">unsigned varint</text>
</g>
<!-- 5&#45;&gt;6 -->
<g id="edge6" class="edge">
<title>5&#45;&gt;6</title>
<path fill="none" stroke="black" d="M485.17,-126C509.03,-126 539.49,-126 567.51,-126"/>
<polygon fill="black" stroke="black" points="567.41,-129.5 577.41,-126 567.41,-122.5 567.41,-129.5"/>
</g>
<!-- 8 -->
<!-- name: &quot;Most Significant Bits&quot;, typeName: &quot;&quot;, id: 8, branchId: 0, recurseId: &#45;1, attributes: 0, notes: &quot;&quot; -->
<g id="node9" class="node">
<title>8</title>
<ellipse fill="none" stroke="black" cx="647.62" cy="-72" rx="90.76" ry="18"/>
<text xml:space="preserve" text-anchor="middle" x="647.62" y="-66.95" font-family="Times New Roman,serif" font-size="14.00">Most Significant Bits</text>
</g>
<!-- 7&#45;&gt;8 -->
<g id="edge8" class="edge">
<title>7&#45;&gt;8</title>
<path fill="none" stroke="black" d="M516.68,-72C526.02,-72 535.71,-72 545.38,-72"/>
<polygon fill="black" stroke="black" points="545.19,-75.5 555.19,-72 545.19,-68.5 545.19,-75.5"/>
</g>
<!-- 10 -->
<!-- name: &quot;Least Significant Bits&quot;, typeName: &quot;&quot;, id: 10, branchId: 0, recurseId: &#45;1, attributes: 0, notes: &quot;&quot; -->
<g id="node11" class="node">
<title>10</title>
<ellipse fill="none" stroke="black" cx="647.62" cy="-18" rx="91.27" ry="18"/>
<text xml:space="preserve" text-anchor="middle" x="647.62" y="-12.95" font-family="Times New Roman,serif" font-size="14.00">Least Significant Bits</text>
</g>
<!-- 7&#45;&gt;10 -->
<g id="edge10" class="edge">
<title>7&#45;&gt;10</title>
<path fill="none" stroke="black" d="M493.11,-58.58C519.5,-51.61 552.08,-42.99 580.42,-35.5"/>
<polygon fill="black" stroke="black" points="581.23,-38.91 590,-32.97 579.44,-32.14 581.23,-38.91"/>
</g>
<!-- 9 -->
<!-- name: &quot;unsigned int64&quot;, typeName: &quot;&quot;, id: 9, branchId: 0, recurseId: &#45;1, attributes: 512, notes: &quot;&quot; -->
<g id="node10" class="node">
<title>9</title>
<ellipse fill="none" stroke="black" cx="852.34" cy="-72" rx="65.68" ry="18"/>
<text xml:space="preserve" text-anchor="middle" x="852.34" y="-66.95" font-family="Times New Roman,serif" font-size="14.00">unsigned int64</text>
</g>
<!-- 8&#45;&gt;9 -->
<g id="edge9" class="edge">
<title>8&#45;&gt;9</title>
<path fill="none" stroke="black" d="M738.72,-72C750.9,-72 763.3,-72 775.2,-72"/>
<polygon fill="black" stroke="black" points="774.93,-75.5 784.93,-72 774.93,-68.5 774.93,-75.5"/>
</g>
<!-- 11 -->
<!-- name: &quot;unsigned int64&quot;, typeName: &quot;&quot;, id: 11, branchId: 0, recurseId: &#45;1, attributes: 512, notes: &quot;&quot; -->
<g id="node12" class="node">
<title>11</title>
<ellipse fill="none" stroke="black" cx="852.34" cy="-18" rx="65.68" ry="18"/>
<text xml:space="preserve" text-anchor="middle" x="852.34" y="-12.95" font-family="Times New Roman,serif" font-size="14.00">unsigned int64</text>
</g>
<!-- 10&#45;&gt;11 -->
<g id="edge11" class="edge">
<title>10&#45;&gt;11</title>
<path fill="none" stroke="black" d="M739.31,-18C751.17,-18 763.22,-18 774.82,-18"/>
<polygon fill="black" stroke="black" points="774.72,-21.5 784.72,-18 774.72,-14.5 774.72,-21.5"/>
</g>
</g>
</svg>
