<?xml version="1.0" encoding="UTF-8" standalone="no"?>
<!DOCTYPE svg PUBLIC "-//W3C//DTD SVG 1.1//EN"
 "http://www.w3.org/Graphics/SVG/1.1/DTD/svg11.dtd">
<!-- Generated by graphviz version 2.46.1 (20210213.1702)
 -->
<!-- Title: EmoteListPacket Pages: 1 -->
<svg width="818pt" height="152pt"
 viewBox="0.00 0.00 817.54 152.00" xmlns="http://www.w3.org/2000/svg" xmlns:xlink="http://www.w3.org/1999/xlink">
<g id="graph0" class="graph" transform="scale(1 1) rotate(0) translate(4 148)">
<title>EmoteListPacket</title>
<polygon fill="white" stroke="transparent" points="-4,4 -4,-148 813.54,-148 813.54,4 -4,4"/>
<!-- 0 -->
<!-- name: &quot;EmoteListPacket&quot;, typeName: &quot;&quot;, id: 0, branchId: 152, recurseId: &#45;1, attributes: 0, notes: &quot;&quot; -->
<g id="node1" class="node">
<title>0</title>
<ellipse fill="none" stroke="black" cx="72.14" cy="-95" rx="72.29" ry="18"/>
<text text-anchor="middle" x="72.14" y="-91.3" font-family="Times New Roman,serif" font-size="14.00">EmoteListPacket</text>
</g>
<!-- 1 -->
<!-- name: &quot;Runtime id&quot;, typeName: &quot;ActorRuntimeID&quot;, id: 1, branchId: 0, recurseId: &#45;1, attributes: 256, notes: &quot;&quot; -->
<g id="node2" class="node">
<title>1</title>
<ellipse fill="none" stroke="black" cx="580.51" cy="-124" rx="50.09" ry="18"/>
<text text-anchor="middle" x="580.51" y="-120.3" font-family="Times New Roman,serif" font-size="14.00">Runtime id</text>
</g>
<!-- 0&#45;&gt;1 -->
<g id="edge1" class="edge">
<title>0&#45;&gt;1</title>
<path fill="none" stroke="black" d="M142.75,-98.99C243.09,-104.73 426.6,-115.24 520.6,-120.63"/>
<polygon fill="black" stroke="black" points="520.6,-124.13 530.78,-121.21 521,-117.14 520.6,-124.13"/>
</g>
<!-- 3 -->
<!-- name: &quot;Emote piece ids&quot;, typeName: &quot;&quot;, id: 3, branchId: 0, recurseId: &#45;1, attributes: 8, notes: &quot;&quot; -->
<g id="node4" class="node">
<title>3</title>
<ellipse fill="none" stroke="black" cx="249.18" cy="-72" rx="68.79" ry="18"/>
<text text-anchor="middle" x="249.18" y="-68.3" font-family="Times New Roman,serif" font-size="14.00">Emote piece ids</text>
</g>
<!-- 0&#45;&gt;3 -->
<g id="edge3" class="edge">
<title>0&#45;&gt;3</title>
<path fill="none" stroke="black" d="M136.34,-86.7C149.6,-84.95 163.68,-83.1 177.21,-81.33"/>
<polygon fill="black" stroke="black" points="177.96,-84.76 187.42,-79.98 177.05,-77.82 177.96,-84.76"/>
</g>
<!-- 2 -->
<!-- name: &quot;ActorRuntimeID&quot;, typeName: &quot;&quot;, id: 2, branchId: 0, recurseId: &#45;1, attributes: 512, notes: &quot;&quot; -->
<g id="node3" class="node">
<title>2</title>
<ellipse fill="none" stroke="black" cx="738.05" cy="-126" rx="71.49" ry="18"/>
<text text-anchor="middle" x="738.05" y="-122.3" font-family="Times New Roman,serif" font-size="14.00">ActorRuntimeID</text>
</g>
<!-- 1&#45;&gt;2 -->
<g id="edge2" class="edge">
<title>1&#45;&gt;2</title>
<path fill="none" stroke="black" d="M630.72,-124.63C638.91,-124.74 647.59,-124.85 656.32,-124.96"/>
<polygon fill="black" stroke="black" points="656.51,-128.46 666.56,-125.09 656.6,-121.47 656.51,-128.46"/>
</g>
<!-- 4 -->
<!-- name: &quot;Array Size&quot;, typeName: &quot;&quot;, id: 4, branchId: 0, recurseId: &#45;1, attributes: 0, notes: &quot;&quot; -->
<g id="node5" class="node">
<title>4</title>
<ellipse fill="none" stroke="black" cx="424.27" cy="-72" rx="48.99" ry="18"/>
<text text-anchor="middle" x="424.27" y="-68.3" font-family="Times New Roman,serif" font-size="14.00">Array Size</text>
</g>
<!-- 3&#45;&gt;4 -->
<g id="edge4" class="edge">
<title>3&#45;&gt;4</title>
<path fill="none" stroke="black" d="M318.09,-72C333.64,-72 350.02,-72 365.11,-72"/>
<polygon fill="black" stroke="black" points="365.33,-75.5 375.33,-72 365.33,-68.5 365.33,-75.5"/>
</g>
<!-- 6 -->
<!-- name: &quot;example element&quot;, typeName: &quot;&quot;, id: 6, branchId: 0, recurseId: &#45;1, attributes: 16, notes: &quot;&quot; -->
<g id="node7" class="node">
<title>6</title>
<ellipse fill="none" stroke="black" stroke-dasharray="1,5" cx="424.27" cy="-18" rx="70.39" ry="18"/>
<text text-anchor="middle" x="424.27" y="-14.3" font-family="Times New Roman,serif" font-size="14.00">example element</text>
</g>
<!-- 3&#45;&gt;6 -->
<g id="edge6" class="edge">
<title>3&#45;&gt;6</title>
<path fill="none" stroke="black" d="M294.31,-58.23C317.11,-51.12 345.12,-42.38 369.21,-34.86"/>
<polygon fill="black" stroke="black" points="370.42,-38.15 378.92,-31.83 368.33,-31.47 370.42,-38.15"/>
</g>
<!-- 5 -->
<!-- name: &quot;unsigned varint&quot;, typeName: &quot;&quot;, id: 5, branchId: 0, recurseId: &#45;1, attributes: 512, notes: &quot;&quot; -->
<g id="node6" class="node">
<title>5</title>
<ellipse fill="none" stroke="black" cx="738.05" cy="-72" rx="65.79" ry="18"/>
<text text-anchor="middle" x="738.05" y="-68.3" font-family="Times New Roman,serif" font-size="14.00">unsigned varint</text>
</g>
<!-- 4&#45;&gt;5 -->
<g id="edge5" class="edge">
<title>4&#45;&gt;5</title>
<path fill="none" stroke="black" d="M473.3,-72C523.58,-72 603.21,-72 661.83,-72"/>
<polygon fill="black" stroke="black" points="662.15,-75.5 672.15,-72 662.15,-68.5 662.15,-75.5"/>
</g>
<!-- 7 -->
<!-- name: &quot;Piece id&quot;, typeName: &quot;mce::UUID&quot;, id: 7, branchId: 0, recurseId: &#45;1, attributes: 256, notes: &quot;&quot; -->
<g id="node8" class="node">
<title>7</title>
<ellipse fill="none" stroke="black" cx="580.51" cy="-18" rx="39.79" ry="18"/>
<text text-anchor="middle" x="580.51" y="-14.3" font-family="Times New Roman,serif" font-size="14.00">Piece id</text>
</g>
<!-- 6&#45;&gt;7 -->
<g id="edge7" class="edge">
<title>6&#45;&gt;7</title>
<path fill="none" stroke="black" d="M494.72,-18C506.84,-18 519.22,-18 530.63,-18"/>
<polygon fill="black" stroke="black" points="530.82,-21.5 540.82,-18 530.82,-14.5 530.82,-21.5"/>
</g>
<!-- 8 -->
<!-- name: &quot;mce::UUID&quot;, typeName: &quot;&quot;, id: 8, branchId: 0, recurseId: &#45;1, attributes: 512, notes: &quot;&quot; -->
<g id="node9" class="node">
<title>8</title>
<ellipse fill="none" stroke="black" cx="738.05" cy="-18" rx="51.99" ry="18"/>
<text text-anchor="middle" x="738.05" y="-14.3" font-family="Times New Roman,serif" font-size="14.00">mce::UUID</text>
</g>
<!-- 7&#45;&gt;8 -->
<g id="edge8" class="edge">
<title>7&#45;&gt;8</title>
<path fill="none" stroke="black" d="M620.36,-18C637.06,-18 656.99,-18 675.61,-18"/>
<polygon fill="black" stroke="black" points="675.79,-21.5 685.79,-18 675.79,-14.5 675.79,-21.5"/>
</g>
</g>
</svg>
