<?xml version="1.0" encoding="UTF-8" standalone="no"?>
<!DOCTYPE svg PUBLIC "-//W3C//DTD SVG 1.1//EN"
 "http://www.w3.org/Graphics/SVG/1.1/DTD/svg11.dtd">
<!-- Generated by graphviz version 14.1.5 (20260411.2331)
 -->
<!-- Title: EnchantmentInstance Pages: 1 -->
<svg width="567pt" height="98pt"
 viewBox="0.00 0.00 567.00 98.00" xmlns="http://www.w3.org/2000/svg" xmlns:xlink="http://www.w3.org/1999/xlink">
<g id="graph0" class="graph" transform="scale(1 1) rotate(0) translate(4 94)">
<title>EnchantmentInstance</title>
<polygon fill="white" stroke="none" points="-4,4 -4,-94 563.24,-94 563.24,4 -4,4"/>
<!-- 0 -->
<!-- name: &quot;EnchantmentInstance&quot;, typeName: &quot;&quot;, id: 0, branchId: 0, recurseId: &#45;1, attributes: 0, notes: &quot;&quot; -->
<g id="node1" class="node">
<title>0</title>
<ellipse fill="none" stroke="black" cx="90.76" cy="-45" rx="90.76" ry="18"/>
<text xml:space="preserve" text-anchor="middle" x="90.76" y="-39.95" font-family="Times New Roman,serif" font-size="14.00">EnchantmentInstance</text>
</g>
<!-- 1 -->
<!-- name: &quot;Enchant Type&quot;, typeName: &quot;&quot;, id: 1, branchId: 0, recurseId: &#45;1, attributes: 0, notes: &quot;&quot; -->
<g id="node2" class="node">
<title>1</title>
<ellipse fill="none" stroke="black" cx="282.18" cy="-72" rx="61.59" ry="18"/>
<text xml:space="preserve" text-anchor="middle" x="282.18" y="-66.95" font-family="Times New Roman,serif" font-size="14.00">Enchant Type</text>
</g>
<!-- 0&#45;&gt;1 -->
<g id="edge1" class="edge">
<title>0&#45;&gt;1</title>
<path fill="none" stroke="black" d="M165.54,-55.52C181.75,-57.83 198.83,-60.26 214.74,-62.53"/>
<polygon fill="black" stroke="black" points="214.19,-65.99 224.59,-63.93 215.18,-59.06 214.19,-65.99"/>
</g>
<!-- 3 -->
<!-- name: &quot;Enchant Level&quot;, typeName: &quot;&quot;, id: 3, branchId: 0, recurseId: &#45;1, attributes: 0, notes: &quot;&quot; -->
<g id="node4" class="node">
<title>3</title>
<ellipse fill="none" stroke="black" cx="282.18" cy="-18" rx="64.66" ry="18"/>
<text xml:space="preserve" text-anchor="middle" x="282.18" y="-12.95" font-family="Times New Roman,serif" font-size="14.00">Enchant Level</text>
</g>
<!-- 0&#45;&gt;3 -->
<g id="edge3" class="edge">
<title>0&#45;&gt;3</title>
<path fill="none" stroke="black" d="M165.54,-34.48C181.17,-32.26 197.6,-29.91 213.01,-27.72"/>
<polygon fill="black" stroke="black" points="213.12,-31.24 222.53,-26.36 212.14,-24.31 213.12,-31.24"/>
</g>
<!-- 2 -->
<!-- name: &quot;enum Enchant::Type&quot;, typeName: &quot;&quot;, id: 2, branchId: 0, recurseId: &#45;1, attributes: 512, notes: &quot;&quot; -->
<g id="node3" class="node">
<title>2</title>
<ellipse fill="none" stroke="black" cx="471.04" cy="-72" rx="88.2" ry="18"/>
<text xml:space="preserve" text-anchor="middle" x="471.04" y="-66.95" font-family="Times New Roman,serif" font-size="14.00">enum Enchant::Type</text>
</g>
<!-- 1&#45;&gt;2 -->
<g id="edge2" class="edge">
<title>1&#45;&gt;2</title>
<path fill="none" stroke="black" d="M344.11,-72C352.81,-72 361.95,-72 371.16,-72"/>
<polygon fill="black" stroke="black" points="370.89,-75.5 380.89,-72 370.89,-68.5 370.89,-75.5"/>
</g>
<!-- 4 -->
<!-- name: &quot;unsigned byte&quot;, typeName: &quot;&quot;, id: 4, branchId: 0, recurseId: &#45;1, attributes: 512, notes: &quot;&quot; -->
<g id="node5" class="node">
<title>4</title>
<ellipse fill="none" stroke="black" cx="471.04" cy="-18" rx="62.61" ry="18"/>
<text xml:space="preserve" text-anchor="middle" x="471.04" y="-12.95" font-family="Times New Roman,serif" font-size="14.00">unsigned byte</text>
</g>
<!-- 3&#45;&gt;4 -->
<g id="edge4" class="edge">
<title>3&#45;&gt;4</title>
<path fill="none" stroke="black" d="M347.22,-18C363.19,-18 380.43,-18 396.8,-18"/>
<polygon fill="black" stroke="black" points="396.46,-21.5 406.46,-18 396.46,-14.5 396.46,-21.5"/>
</g>
</g>
</svg>
