<?xml version="1.0" encoding="UTF-8" standalone="no"?>
<!DOCTYPE svg PUBLIC "-//W3C//DTD SVG 1.1//EN"
 "http://www.w3.org/Graphics/SVG/1.1/DTD/svg11.dtd">
<!-- Generated by graphviz version 14.1.1 (20251213.1925)
 -->
<!-- Title: EntityNetId Pages: 1 -->
<svg width="401pt" height="44pt"
 viewBox="0.00 0.00 401.00 44.00" xmlns="http://www.w3.org/2000/svg" xmlns:xlink="http://www.w3.org/1999/xlink">
<g id="graph0" class="graph" transform="scale(1 1) rotate(0) translate(4 40)">
<title>EntityNetId</title>
<polygon fill="white" stroke="none" points="-4,4 -4,-40 397.42,-40 397.42,4 -4,4"/>
<!-- 0 -->
<!-- name: &quot;EntityNetId&quot;, typeName: &quot;&quot;, id: 0, branchId: 0, recurseId: &#45;1, attributes: 0, notes: &quot;&quot; -->
<g id="node1" class="node">
<title>0</title>
<ellipse fill="none" stroke="black" cx="54.42" cy="-18" rx="54.42" ry="18"/>
<text xml:space="preserve" text-anchor="middle" x="54.42" y="-12.95" font-family="Times New Roman,serif" font-size="14.00">EntityNetId</text>
</g>
<!-- 1 -->
<!-- name: &quot;Raw Id&quot;, typeName: &quot;&quot;, id: 1, branchId: 0, recurseId: &#45;1, attributes: 0, notes: &quot;&quot; -->
<g id="node2" class="node">
<title>1</title>
<ellipse fill="none" stroke="black" cx="182.89" cy="-18" rx="38.04" ry="18"/>
<text xml:space="preserve" text-anchor="middle" x="182.89" y="-12.95" font-family="Times New Roman,serif" font-size="14.00">Raw Id</text>
</g>
<!-- 0&#45;&gt;1 -->
<g id="edge1" class="edge">
<title>0&#45;&gt;1</title>
<path fill="none" stroke="black" d="M109.06,-18C117.11,-18 125.37,-18 133.31,-18"/>
<polygon fill="black" stroke="black" points="133.13,-21.5 143.13,-18 133.13,-14.5 133.13,-21.5"/>
</g>
<!-- 2 -->
<!-- name: &quot;unsigned varint&quot;, typeName: &quot;&quot;, id: 2, branchId: 0, recurseId: &#45;1, attributes: 512, notes: &quot;&quot; -->
<g id="node3" class="node">
<title>2</title>
<ellipse fill="none" stroke="black" cx="325.17" cy="-18" rx="68.24" ry="18"/>
<text xml:space="preserve" text-anchor="middle" x="325.17" y="-12.95" font-family="Times New Roman,serif" font-size="14.00">unsigned varint</text>
</g>
<!-- 1&#45;&gt;2 -->
<g id="edge2" class="edge">
<title>1&#45;&gt;2</title>
<path fill="none" stroke="black" d="M221.11,-18C228.65,-18 236.84,-18 245.2,-18"/>
<polygon fill="black" stroke="black" points="245.14,-21.5 255.14,-18 245.14,-14.5 245.14,-21.5"/>
</g>
</g>
</svg>
