<?xml version="1.0" encoding="UTF-8" standalone="no"?>
<!DOCTYPE svg PUBLIC "-//W3C//DTD SVG 1.1//EN"
 "http://www.w3.org/Graphics/SVG/1.1/DTD/svg11.dtd">
<!-- Generated by graphviz version 14.1.5 (20260411.2331)
 -->
<!-- Title: EntityDiagnosticTimingInfo Pages: 1 -->
<svg width="584pt" height="206pt"
 viewBox="0.00 0.00 584.00 206.00" xmlns="http://www.w3.org/2000/svg" xmlns:xlink="http://www.w3.org/1999/xlink">
<g id="graph0" class="graph" transform="scale(1 1) rotate(0) translate(4 202)">
<title>EntityDiagnosticTimingInfo</title>
<polygon fill="white" stroke="none" points="-4,4 -4,-202 579.62,-202 579.62,4 -4,4"/>
<!-- 0 -->
<!-- name: &quot;EntityDiagnosticTimingInfo&quot;, typeName: &quot;&quot;, id: 0, branchId: 0, recurseId: &#45;1, attributes: 0, notes: &quot;&quot; -->
<g id="node1" class="node">
<title>0</title>
<ellipse fill="none" stroke="black" cx="116.35" cy="-99" rx="116.35" ry="18"/>
<text xml:space="preserve" text-anchor="middle" x="116.35" y="-93.95" font-family="Times New Roman,serif" font-size="14.00">EntityDiagnosticTimingInfo</text>
</g>
<!-- 1 -->
<!-- name: &quot;Display Name&quot;, typeName: &quot;&quot;, id: 1, branchId: 0, recurseId: &#45;1, attributes: 0, notes: &quot;&quot; -->
<g id="node2" class="node">
<title>1</title>
<ellipse fill="none" stroke="black" cx="338.48" cy="-180" rx="64.66" ry="18"/>
<text xml:space="preserve" text-anchor="middle" x="338.48" y="-174.95" font-family="Times New Roman,serif" font-size="14.00">Display Name</text>
</g>
<!-- 0&#45;&gt;1 -->
<g id="edge1" class="edge">
<title>0&#45;&gt;1</title>
<path fill="none" stroke="black" d="M163.23,-115.88C199.58,-129.26 250.3,-147.92 287.64,-161.66"/>
<polygon fill="black" stroke="black" points="286.27,-164.89 296.87,-165.06 288.69,-158.32 286.27,-164.89"/>
</g>
<!-- 3 -->
<!-- name: &quot;Entity&quot;, typeName: &quot;&quot;, id: 3, branchId: 0, recurseId: &#45;1, attributes: 0, notes: &quot;&quot; -->
<g id="node4" class="node">
<title>3</title>
<ellipse fill="none" stroke="black" cx="338.48" cy="-126" rx="33.44" ry="18"/>
<text xml:space="preserve" text-anchor="middle" x="338.48" y="-120.95" font-family="Times New Roman,serif" font-size="14.00">Entity</text>
</g>
<!-- 0&#45;&gt;3 -->
<g id="edge3" class="edge">
<title>0&#45;&gt;3</title>
<path fill="none" stroke="black" d="M208.79,-110.22C238.33,-113.84 269.72,-117.69 294.1,-120.68"/>
<polygon fill="black" stroke="black" points="293.61,-124.15 303.96,-121.89 294.46,-117.2 293.61,-124.15"/>
</g>
<!-- 5 -->
<!-- name: &quot;Time in NS&quot;, typeName: &quot;&quot;, id: 5, branchId: 0, recurseId: &#45;1, attributes: 0, notes: &quot;&quot; -->
<g id="node6" class="node">
<title>5</title>
<ellipse fill="none" stroke="black" cx="338.48" cy="-72" rx="54.93" ry="18"/>
<text xml:space="preserve" text-anchor="middle" x="338.48" y="-66.95" font-family="Times New Roman,serif" font-size="14.00">Time in NS</text>
</g>
<!-- 0&#45;&gt;5 -->
<g id="edge5" class="edge">
<title>0&#45;&gt;5</title>
<path fill="none" stroke="black" d="M208.79,-87.78C231.22,-85.03 254.71,-82.15 275.38,-79.62"/>
<polygon fill="black" stroke="black" points="275.56,-83.12 285.06,-78.43 274.7,-76.17 275.56,-83.12"/>
</g>
<!-- 7 -->
<!-- name: &quot;Percent of Total&quot;, typeName: &quot;&quot;, id: 7, branchId: 0, recurseId: &#45;1, attributes: 0, notes: &quot;&quot; -->
<g id="node8" class="node">
<title>7</title>
<ellipse fill="none" stroke="black" cx="338.48" cy="-18" rx="69.78" ry="18"/>
<text xml:space="preserve" text-anchor="middle" x="338.48" y="-12.95" font-family="Times New Roman,serif" font-size="14.00">Percent of Total</text>
</g>
<!-- 0&#45;&gt;7 -->
<g id="edge7" class="edge">
<title>0&#45;&gt;7</title>
<path fill="none" stroke="black" d="M163.23,-82.12C199.24,-68.87 249.34,-50.43 286.58,-36.73"/>
<polygon fill="black" stroke="black" points="287.61,-40.08 295.79,-33.34 285.19,-33.51 287.61,-40.08"/>
</g>
<!-- 2 -->
<!-- name: &quot;string&quot;, typeName: &quot;&quot;, id: 2, branchId: 0, recurseId: &#45;1, attributes: 512, notes: &quot;&quot; -->
<g id="node3" class="node">
<title>2</title>
<ellipse fill="none" stroke="black" cx="509.94" cy="-180" rx="31.9" ry="18"/>
<text xml:space="preserve" text-anchor="middle" x="509.94" y="-174.95" font-family="Times New Roman,serif" font-size="14.00">string</text>
</g>
<!-- 1&#45;&gt;2 -->
<g id="edge2" class="edge">
<title>1&#45;&gt;2</title>
<path fill="none" stroke="black" d="M403.54,-180C424.66,-180 447.59,-180 466.66,-180"/>
<polygon fill="black" stroke="black" points="466.47,-183.5 476.47,-180 466.47,-176.5 466.47,-183.5"/>
</g>
<!-- 4 -->
<!-- name: &quot;string&quot;, typeName: &quot;&quot;, id: 4, branchId: 0, recurseId: &#45;1, attributes: 512, notes: &quot;&quot; -->
<g id="node5" class="node">
<title>4</title>
<ellipse fill="none" stroke="black" cx="509.94" cy="-126" rx="31.9" ry="18"/>
<text xml:space="preserve" text-anchor="middle" x="509.94" y="-120.95" font-family="Times New Roman,serif" font-size="14.00">string</text>
</g>
<!-- 3&#45;&gt;4 -->
<g id="edge4" class="edge">
<title>3&#45;&gt;4</title>
<path fill="none" stroke="black" d="M372.15,-126C398.95,-126 437.09,-126 466.29,-126"/>
<polygon fill="black" stroke="black" points="466.28,-129.5 476.28,-126 466.28,-122.5 466.28,-129.5"/>
</g>
<!-- 6 -->
<!-- name: &quot;unsigned int64&quot;, typeName: &quot;&quot;, id: 6, branchId: 0, recurseId: &#45;1, attributes: 512, notes: &quot;&quot; -->
<g id="node7" class="node">
<title>6</title>
<ellipse fill="none" stroke="black" cx="509.94" cy="-72" rx="65.68" ry="18"/>
<text xml:space="preserve" text-anchor="middle" x="509.94" y="-66.95" font-family="Times New Roman,serif" font-size="14.00">unsigned int64</text>
</g>
<!-- 5&#45;&gt;6 -->
<g id="edge6" class="edge">
<title>5&#45;&gt;6</title>
<path fill="none" stroke="black" d="M393.56,-72C405.92,-72 419.29,-72 432.39,-72"/>
<polygon fill="black" stroke="black" points="432.3,-75.5 442.3,-72 432.3,-68.5 432.3,-75.5"/>
</g>
<!-- 8 -->
<!-- name: &quot;unsigned byte&quot;, typeName: &quot;&quot;, id: 8, branchId: 0, recurseId: &#45;1, attributes: 512, notes: &quot;&quot; -->
<g id="node9" class="node">
<title>8</title>
<ellipse fill="none" stroke="black" cx="509.94" cy="-18" rx="62.61" ry="18"/>
<text xml:space="preserve" text-anchor="middle" x="509.94" y="-12.95" font-family="Times New Roman,serif" font-size="14.00">unsigned byte</text>
</g>
<!-- 7&#45;&gt;8 -->
<g id="edge8" class="edge">
<title>7&#45;&gt;8</title>
<path fill="none" stroke="black" d="M408.4,-18C417.36,-18 426.56,-18 435.58,-18"/>
<polygon fill="black" stroke="black" points="435.38,-21.5 445.38,-18 435.38,-14.5 435.38,-21.5"/>
</g>
</g>
</svg>
