<?xml version="1.0" encoding="UTF-8" standalone="no"?>
<!DOCTYPE svg PUBLIC "-//W3C//DTD SVG 1.1//EN"
 "http://www.w3.org/Graphics/SVG/1.1/DTD/svg11.dtd">
<!-- Generated by graphviz version 2.46.1 (20210213.1702)
 -->
<!-- Title: EntityNetId Pages: 1 -->
<svg width="437pt" height="44pt"
 viewBox="0.00 0.00 437.47 44.00" xmlns="http://www.w3.org/2000/svg" xmlns:xlink="http://www.w3.org/1999/xlink">
<g id="graph0" class="graph" transform="scale(1 1) rotate(0) translate(4 40)">
<title>EntityNetId</title>
<polygon fill="white" stroke="transparent" points="-4,4 -4,-40 433.47,-40 433.47,4 -4,4"/>
<!-- 2 -->
<!-- name: &quot;EntityNetId&quot;, typeName: &quot;&quot;, id: 2, branchId: 0, recurseId: &#45;1, attributes: 0, notes: &quot;&quot; -->
<g id="node1" class="node">
<title>2</title>
<ellipse fill="none" stroke="black" cx="52" cy="-18" rx="51.99" ry="18"/>
<text text-anchor="middle" x="52" y="-14.3" font-family="Times New Roman,serif" font-size="14.00">EntityNetId</text>
</g>
<!-- 3 -->
<!-- name: &quot;Raw Entity Id&quot;, typeName: &quot;&quot;, id: 3, branchId: 0, recurseId: &#45;1, attributes: 0, notes: &quot;&quot; -->
<g id="node2" class="node">
<title>3</title>
<ellipse fill="none" stroke="black" cx="201.09" cy="-18" rx="61.19" ry="18"/>
<text text-anchor="middle" x="201.09" y="-14.3" font-family="Times New Roman,serif" font-size="14.00">Raw Entity Id</text>
</g>
<!-- 2&#45;&gt;3 -->
<g id="edge1" class="edge">
<title>2&#45;&gt;3</title>
<path fill="none" stroke="black" d="M104.03,-18C112.32,-18 121.03,-18 129.68,-18"/>
<polygon fill="black" stroke="black" points="129.79,-21.5 139.79,-18 129.79,-14.5 129.79,-21.5"/>
</g>
<!-- 4 -->
<!-- name: &quot;unsigned varint&quot;, typeName: &quot;&quot;, id: 4, branchId: 0, recurseId: &#45;1, attributes: 512, notes: &quot;&quot; -->
<g id="node3" class="node">
<title>4</title>
<ellipse fill="none" stroke="black" cx="363.82" cy="-18" rx="65.79" ry="18"/>
<text text-anchor="middle" x="363.82" y="-14.3" font-family="Times New Roman,serif" font-size="14.00">unsigned varint</text>
</g>
<!-- 3&#45;&gt;4 -->
<g id="edge2" class="edge">
<title>3&#45;&gt;4</title>
<path fill="none" stroke="black" d="M262.4,-18C270.78,-18 279.48,-18 288.09,-18"/>
<polygon fill="black" stroke="black" points="288.14,-21.5 298.14,-18 288.14,-14.5 288.14,-21.5"/>
</g>
</g>
</svg>
