<?xml version="1.0" encoding="UTF-8" standalone="no"?>
<!DOCTYPE svg PUBLIC "-//W3C//DTD SVG 1.1//EN"
 "http://www.w3.org/Graphics/SVG/1.1/DTD/svg11.dtd">
<!-- Generated by graphviz version 14.1.5 (20260411.2331)
 -->
<!-- Title: EnvironmentAttributeData Pages: 1 -->
<svg width="682pt" height="476pt"
 viewBox="0.00 0.00 682.00 476.00" xmlns="http://www.w3.org/2000/svg" xmlns:xlink="http://www.w3.org/1999/xlink">
<g id="graph0" class="graph" transform="scale(1 1) rotate(0) translate(4 472)">
<title>EnvironmentAttributeData</title>
<polygon fill="white" stroke="none" points="-4,4 -4,-472 677.89,-472 677.89,4 -4,4"/>
<!-- 0 -->
<!-- name: &quot;EnvironmentAttributeData&quot;, typeName: &quot;&quot;, id: 0, branchId: 0, recurseId: &#45;1, attributes: 0, notes: &quot;&quot; -->
<g id="node1" class="node">
<title>0</title>
<ellipse fill="none" stroke="black" cx="110.21" cy="-234" rx="110.21" ry="18"/>
<text xml:space="preserve" text-anchor="middle" x="110.21" y="-228.95" font-family="Times New Roman,serif" font-size="14.00">EnvironmentAttributeData</text>
</g>
<!-- 1 -->
<!-- name: &quot;AttributeName&quot;, typeName: &quot;&quot;, id: 1, branchId: 0, recurseId: &#45;1, attributes: 0, notes: &quot;&quot; -->
<g id="node2" class="node">
<title>1</title>
<ellipse fill="none" stroke="black" cx="353.83" cy="-450" rx="66.71" ry="18"/>
<text xml:space="preserve" text-anchor="middle" x="353.83" y="-444.95" font-family="Times New Roman,serif" font-size="14.00">AttributeName</text>
</g>
<!-- 0&#45;&gt;1 -->
<g id="edge1" class="edge">
<title>0&#45;&gt;1</title>
<path fill="none" stroke="black" d="M120.03,-252.22C139.3,-290.04 188.88,-377.35 256.42,-423 265.18,-428.92 275.23,-433.56 285.45,-437.18"/>
<polygon fill="black" stroke="black" points="284.09,-440.42 294.68,-440.14 286.23,-433.75 284.09,-440.42"/>
</g>
<!-- 3 -->
<!-- name: &quot;FromAttribute&quot;, typeName: &quot;&quot;, id: 3, branchId: 0, recurseId: &#45;1, attributes: 0, notes: &quot;&quot; -->
<g id="node4" class="node">
<title>3</title>
<ellipse fill="none" stroke="black" cx="353.83" cy="-396" rx="64.66" ry="18"/>
<text xml:space="preserve" text-anchor="middle" x="353.83" y="-390.95" font-family="Times New Roman,serif" font-size="14.00">FromAttribute</text>
</g>
<!-- 0&#45;&gt;3 -->
<g id="edge3" class="edge">
<title>0&#45;&gt;3</title>
<path fill="none" stroke="black" d="M125.7,-252.21C149.78,-281.22 200.87,-337.86 256.42,-369 266.31,-374.55 277.43,-379.02 288.49,-382.61"/>
<polygon fill="black" stroke="black" points="287.47,-385.95 298.05,-385.47 289.48,-379.25 287.47,-385.95"/>
</g>
<!-- 5 -->
<!-- name: &quot;Attribute&quot;, typeName: &quot;&quot;, id: 5, branchId: 0, recurseId: &#45;1, attributes: 0, notes: &quot;&quot; -->
<g id="node6" class="node">
<title>5</title>
<ellipse fill="none" stroke="black" cx="353.83" cy="-342" rx="44.19" ry="18"/>
<text xml:space="preserve" text-anchor="middle" x="353.83" y="-336.95" font-family="Times New Roman,serif" font-size="14.00">Attribute</text>
</g>
<!-- 0&#45;&gt;5 -->
<g id="edge5" class="edge">
<title>0&#45;&gt;5</title>
<path fill="none" stroke="black" d="M138.61,-251.87C167.09,-269.82 213.45,-297.29 256.42,-315 271.42,-321.18 288.3,-326.45 303.69,-330.64"/>
<polygon fill="black" stroke="black" points="302.57,-333.96 313.13,-333.12 304.35,-327.19 302.57,-333.96"/>
</g>
<!-- 7 -->
<!-- name: &quot;ToAttribute&quot;, typeName: &quot;&quot;, id: 7, branchId: 0, recurseId: &#45;1, attributes: 0, notes: &quot;&quot; -->
<g id="node8" class="node">
<title>7</title>
<ellipse fill="none" stroke="black" cx="353.83" cy="-288" rx="53.91" ry="18"/>
<text xml:space="preserve" text-anchor="middle" x="353.83" y="-282.95" font-family="Times New Roman,serif" font-size="14.00">ToAttribute</text>
</g>
<!-- 0&#45;&gt;7 -->
<g id="edge7" class="edge">
<title>0&#45;&gt;7</title>
<path fill="none" stroke="black" d="M176.91,-248.68C214.49,-257.08 261.12,-267.5 296.93,-275.51"/>
<polygon fill="black" stroke="black" points="296.15,-278.92 306.67,-277.68 297.68,-272.09 296.15,-278.92"/>
</g>
<!-- 9 -->
<!-- name: &quot;CurrentTransitionTicks&quot;, typeName: &quot;&quot;, id: 9, branchId: 0, recurseId: &#45;1, attributes: 0, notes: &quot;&quot; -->
<g id="node10" class="node">
<title>9</title>
<ellipse fill="none" stroke="black" cx="353.83" cy="-234" rx="97.41" ry="18"/>
<text xml:space="preserve" text-anchor="middle" x="353.83" y="-228.95" font-family="Times New Roman,serif" font-size="14.00">CurrentTransitionTicks</text>
</g>
<!-- 0&#45;&gt;9 -->
<g id="edge9" class="edge">
<title>0&#45;&gt;9</title>
<path fill="none" stroke="black" d="M220.71,-234C228.77,-234 236.9,-234 244.96,-234"/>
<polygon fill="black" stroke="black" points="244.76,-237.5 254.76,-234 244.76,-230.5 244.76,-237.5"/>
</g>
<!-- 11 -->
<!-- name: &quot;TotalTransitionTicks&quot;, typeName: &quot;&quot;, id: 11, branchId: 0, recurseId: &#45;1, attributes: 0, notes: &quot;&quot; -->
<g id="node12" class="node">
<title>11</title>
<ellipse fill="none" stroke="black" cx="353.83" cy="-180" rx="88.2" ry="18"/>
<text xml:space="preserve" text-anchor="middle" x="353.83" y="-174.95" font-family="Times New Roman,serif" font-size="14.00">TotalTransitionTicks</text>
</g>
<!-- 0&#45;&gt;11 -->
<g id="edge11" class="edge">
<title>0&#45;&gt;11</title>
<path fill="none" stroke="black" d="M176.91,-219.32C209.43,-212.05 248.73,-203.27 281.93,-195.85"/>
<polygon fill="black" stroke="black" points="282.46,-199.31 291.46,-193.72 280.93,-192.48 282.46,-199.31"/>
</g>
<!-- 13 -->
<!-- name: &quot;Easing&quot;, typeName: &quot;&quot;, id: 13, branchId: 0, recurseId: &#45;1, attributes: 0, notes: &quot;&quot; -->
<g id="node14" class="node">
<title>13</title>
<ellipse fill="none" stroke="black" cx="353.83" cy="-126" rx="36" ry="18"/>
<text xml:space="preserve" text-anchor="middle" x="353.83" y="-120.95" font-family="Times New Roman,serif" font-size="14.00">Easing</text>
</g>
<!-- 0&#45;&gt;13 -->
<g id="edge13" class="edge">
<title>0&#45;&gt;13</title>
<path fill="none" stroke="black" d="M138.61,-216.13C167.09,-198.18 213.45,-170.71 256.42,-153 273.43,-145.99 292.85,-140.16 309.78,-135.74"/>
<polygon fill="black" stroke="black" points="310.19,-139.24 319.03,-133.4 308.48,-132.46 310.19,-139.24"/>
</g>
<!-- 15 -->
<!-- name: &quot;LocalTransitionTicks&quot;, typeName: &quot;&quot;, id: 15, branchId: 0, recurseId: &#45;1, attributes: 0, notes: &quot;&quot; -->
<g id="node16" class="node">
<title>15</title>
<ellipse fill="none" stroke="black" cx="353.83" cy="-72" rx="90.25" ry="18"/>
<text xml:space="preserve" text-anchor="middle" x="353.83" y="-66.95" font-family="Times New Roman,serif" font-size="14.00">LocalTransitionTicks</text>
</g>
<!-- 0&#45;&gt;15 -->
<g id="edge15" class="edge">
<title>0&#45;&gt;15</title>
<path fill="none" stroke="black" d="M125.7,-215.79C149.78,-186.78 200.87,-130.14 256.42,-99 263.45,-95.05 271.11,-91.65 278.92,-88.73"/>
<polygon fill="black" stroke="black" points="279.9,-92.09 288.21,-85.52 277.61,-85.48 279.9,-92.09"/>
</g>
<!-- 17 -->
<!-- name: &quot;NoiseTransition&quot;, typeName: &quot;&quot;, id: 17, branchId: 0, recurseId: &#45;1, attributes: 0, notes: &quot;&quot; -->
<g id="node18" class="node">
<title>17</title>
<ellipse fill="none" stroke="black" cx="353.83" cy="-18" rx="70.29" ry="18"/>
<text xml:space="preserve" text-anchor="middle" x="353.83" y="-12.95" font-family="Times New Roman,serif" font-size="14.00">NoiseTransition</text>
</g>
<!-- 0&#45;&gt;17 -->
<g id="edge17" class="edge">
<title>0&#45;&gt;17</title>
<path fill="none" stroke="black" d="M120.03,-215.78C139.3,-177.96 188.88,-90.65 256.42,-45 264.63,-39.45 273.97,-35.03 283.53,-31.52"/>
<polygon fill="black" stroke="black" points="284.54,-34.87 292.92,-28.4 282.33,-28.23 284.54,-34.87"/>
</g>
<!-- 2 -->
<!-- name: &quot;string&quot;, typeName: &quot;&quot;, id: 2, branchId: 0, recurseId: &#45;1, attributes: 512, notes: &quot;&quot; -->
<g id="node3" class="node">
<title>2</title>
<ellipse fill="none" stroke="black" cx="580.57" cy="-450" rx="31.9" ry="18"/>
<text xml:space="preserve" text-anchor="middle" x="580.57" y="-444.95" font-family="Times New Roman,serif" font-size="14.00">string</text>
</g>
<!-- 1&#45;&gt;2 -->
<g id="edge2" class="edge">
<title>1&#45;&gt;2</title>
<path fill="none" stroke="black" d="M420.74,-450C458.23,-450 504.09,-450 536.88,-450"/>
<polygon fill="black" stroke="black" points="536.81,-453.5 546.81,-450 536.81,-446.5 536.81,-453.5"/>
</g>
<!-- 4 -->
<!-- name: &quot;&quot;, typeName: &quot;&quot;, id: 4, branchId: 0, recurseId: &#45;1, attributes: 512, notes: &quot;&quot; -->
<g id="node5" class="node">
<title>4</title>
<ellipse fill="none" stroke="black" cx="580.57" cy="-396" rx="27" ry="18"/>
</g>
<!-- 3&#45;&gt;4 -->
<g id="edge4" class="edge">
<title>3&#45;&gt;4</title>
<path fill="none" stroke="black" d="M418.93,-396C458.74,-396 508.52,-396 542.03,-396"/>
<polygon fill="black" stroke="black" points="541.65,-399.5 551.65,-396 541.65,-392.5 541.65,-399.5"/>
</g>
<!-- 6 -->
<!-- name: &quot;&quot;, typeName: &quot;&quot;, id: 6, branchId: 0, recurseId: &#45;1, attributes: 512, notes: &quot;&quot; -->
<g id="node7" class="node">
<title>6</title>
<ellipse fill="none" stroke="black" cx="580.57" cy="-342" rx="27" ry="18"/>
</g>
<!-- 5&#45;&gt;6 -->
<g id="edge6" class="edge">
<title>5&#45;&gt;6</title>
<path fill="none" stroke="black" d="M398.43,-342C440.16,-342 502.46,-342 542.04,-342"/>
<polygon fill="black" stroke="black" points="541.79,-345.5 551.79,-342 541.79,-338.5 541.79,-345.5"/>
</g>
<!-- 8 -->
<!-- name: &quot;&quot;, typeName: &quot;&quot;, id: 8, branchId: 0, recurseId: &#45;1, attributes: 512, notes: &quot;&quot; -->
<g id="node9" class="node">
<title>8</title>
<ellipse fill="none" stroke="black" cx="580.57" cy="-288" rx="27" ry="18"/>
</g>
<!-- 7&#45;&gt;8 -->
<g id="edge8" class="edge">
<title>7&#45;&gt;8</title>
<path fill="none" stroke="black" d="M408.09,-288C449.32,-288 505.39,-288 542.02,-288"/>
<polygon fill="black" stroke="black" points="541.67,-291.5 551.67,-288 541.67,-284.5 541.67,-291.5"/>
</g>
<!-- 10 -->
<!-- name: &quot;unsigned int&quot;, typeName: &quot;&quot;, id: 10, branchId: 0, recurseId: &#45;1, attributes: 512, notes: &quot;&quot; -->
<g id="node11" class="node">
<title>10</title>
<ellipse fill="none" stroke="black" cx="580.57" cy="-234" rx="56.47" ry="18"/>
<text xml:space="preserve" text-anchor="middle" x="580.57" y="-228.95" font-family="Times New Roman,serif" font-size="14.00">unsigned int</text>
</g>
<!-- 9&#45;&gt;10 -->
<g id="edge10" class="edge">
<title>9&#45;&gt;10</title>
<path fill="none" stroke="black" d="M451.44,-234C472.03,-234 493.34,-234 512.53,-234"/>
<polygon fill="black" stroke="black" points="512.36,-237.5 522.36,-234 512.36,-230.5 512.36,-237.5"/>
</g>
<!-- 12 -->
<!-- name: &quot;unsigned int&quot;, typeName: &quot;&quot;, id: 12, branchId: 0, recurseId: &#45;1, attributes: 512, notes: &quot;&quot; -->
<g id="node13" class="node">
<title>12</title>
<ellipse fill="none" stroke="black" cx="580.57" cy="-180" rx="56.47" ry="18"/>
<text xml:space="preserve" text-anchor="middle" x="580.57" y="-174.95" font-family="Times New Roman,serif" font-size="14.00">unsigned int</text>
</g>
<!-- 11&#45;&gt;12 -->
<g id="edge12" class="edge">
<title>11&#45;&gt;12</title>
<path fill="none" stroke="black" d="M442.36,-180C465.66,-180 490.46,-180 512.48,-180"/>
<polygon fill="black" stroke="black" points="512.2,-183.5 522.2,-180 512.2,-176.5 512.2,-183.5"/>
</g>
<!-- 14 -->
<!-- name: &quot;enum easing_function&quot;, typeName: &quot;&quot;, id: 14, branchId: 0, recurseId: &#45;1, attributes: 512, notes: &quot;&quot; -->
<g id="node15" class="node">
<title>14</title>
<ellipse fill="none" stroke="black" cx="580.57" cy="-126" rx="93.32" ry="18"/>
<text xml:space="preserve" text-anchor="middle" x="580.57" y="-120.95" font-family="Times New Roman,serif" font-size="14.00">enum easing_function</text>
</g>
<!-- 13&#45;&gt;14 -->
<g id="edge14" class="edge">
<title>13&#45;&gt;14</title>
<path fill="none" stroke="black" d="M389.95,-126C413.15,-126 444.86,-126 475.71,-126"/>
<polygon fill="black" stroke="black" points="475.51,-129.5 485.51,-126 475.51,-122.5 475.51,-129.5"/>
</g>
<!-- 16 -->
<!-- name: &quot;unsigned int&quot;, typeName: &quot;&quot;, id: 16, branchId: 0, recurseId: &#45;1, attributes: 512, notes: &quot;&quot; -->
<g id="node17" class="node">
<title>16</title>
<ellipse fill="none" stroke="black" cx="580.57" cy="-72" rx="56.47" ry="18"/>
<text xml:space="preserve" text-anchor="middle" x="580.57" y="-66.95" font-family="Times New Roman,serif" font-size="14.00">unsigned int</text>
</g>
<!-- 15&#45;&gt;16 -->
<g id="edge16" class="edge">
<title>15&#45;&gt;16</title>
<path fill="none" stroke="black" d="M444.3,-72C467.02,-72 491.05,-72 512.45,-72"/>
<polygon fill="black" stroke="black" points="512.2,-75.5 522.2,-72 512.2,-68.5 512.2,-75.5"/>
</g>
<!-- 18 -->
<!-- name: &quot;bool&quot;, typeName: &quot;&quot;, id: 18, branchId: 0, recurseId: &#45;1, attributes: 512, notes: &quot;&quot; -->
<g id="node19" class="node">
<title>18</title>
<ellipse fill="none" stroke="black" cx="580.57" cy="-18" rx="27.3" ry="18"/>
<text xml:space="preserve" text-anchor="middle" x="580.57" y="-12.95" font-family="Times New Roman,serif" font-size="14.00">bool</text>
</g>
<!-- 17&#45;&gt;18 -->
<g id="edge18" class="edge">
<title>17&#45;&gt;18</title>
<path fill="none" stroke="black" d="M424.4,-18C462.92,-18 509.33,-18 541.3,-18"/>
<polygon fill="black" stroke="black" points="541.29,-21.5 551.29,-18 541.29,-14.5 541.29,-21.5"/>
</g>
</g>
</svg>
