<?xml version="1.0" encoding="UTF-8" standalone="no"?>
<!DOCTYPE svg PUBLIC "-//W3C//DTD SVG 1.1//EN"
 "http://www.w3.org/Graphics/SVG/1.1/DTD/svg11.dtd">
<!-- Generated by graphviz version 14.1.5 (20260411.2331)
 -->
<!-- Title: Experiments Pages: 1 -->
<svg width="829pt" height="206pt"
 viewBox="0.00 0.00 829.00 206.00" xmlns="http://www.w3.org/2000/svg" xmlns:xlink="http://www.w3.org/1999/xlink">
<g id="graph0" class="graph" transform="scale(1 1) rotate(0) translate(4 202)">
<title>Experiments</title>
<polygon fill="white" stroke="none" points="-4,4 -4,-202 825.29,-202 825.29,4 -4,4"/>
<!-- 0 -->
<!-- name: &quot;Experiments&quot;, typeName: &quot;&quot;, id: 0, branchId: 0, recurseId: &#45;1, attributes: 0, notes: &quot;&quot; -->
<g id="node1" class="node">
<title>0</title>
<ellipse fill="none" stroke="black" cx="58" cy="-72" rx="58" ry="18"/>
<text xml:space="preserve" text-anchor="middle" x="58" y="-66.95" font-family="Times New Roman,serif" font-size="14.00">Experiments</text>
</g>
<!-- 1 -->
<!-- name: &quot;Toggles&quot;, typeName: &quot;&quot;, id: 1, branchId: 0, recurseId: &#45;1, attributes: 0, notes: &quot;Active experiment toggles followed by always&#45;on toggles&quot; -->
<g id="node2" class="node">
<title>1</title>
<ellipse fill="none" stroke="black" cx="257.61" cy="-112" rx="40.09" ry="18"/>
<text xml:space="preserve" text-anchor="middle" x="257.61" y="-106.95" font-family="Times New Roman,serif" font-size="14.00">Toggles</text>
</g>
<!-- 0&#45;&gt;1 -->
<g id="edge1" class="edge">
<title>0&#45;&gt;1</title>
<path fill="none" stroke="black" d="M107.35,-81.79C138.48,-88.09 178.77,-96.24 209.63,-102.49"/>
<polygon fill="black" stroke="black" points="208.57,-105.85 219.06,-104.4 209.96,-98.98 208.57,-105.85"/>
</g>
<!-- 9 -->
<!-- name: &quot;ExperimentsEverToggled&quot;, typeName: &quot;&quot;, id: 9, branchId: 0, recurseId: &#45;1, attributes: 0, notes: &quot;Whether any experiments have ever been toggled in this world&quot; -->
<g id="node10" class="node">
<title>9</title>
<ellipse fill="none" stroke="black" cx="257.61" cy="-45" rx="105.6" ry="18"/>
<text xml:space="preserve" text-anchor="middle" x="257.61" y="-39.95" font-family="Times New Roman,serif" font-size="14.00">ExperimentsEverToggled</text>
</g>
<!-- 0&#45;&gt;9 -->
<g id="edge9" class="edge">
<title>0&#45;&gt;9</title>
<path fill="none" stroke="black" d="M111.7,-64.8C127.51,-62.64 145.36,-60.2 162.98,-57.79"/>
<polygon fill="black" stroke="black" points="162.97,-61.33 172.4,-56.51 162.02,-54.39 162.97,-61.33"/>
</g>
<!-- 2 -->
<!-- name: &quot;List Size&quot;, typeName: &quot;&quot;, id: 2, branchId: 0, recurseId: &#45;1, attributes: 0, notes: &quot;&quot; -->
<g id="node3" class="node">
<title>2</title>
<ellipse fill="none" stroke="black" cx="474.11" cy="-173" rx="43.67" ry="18"/>
<text xml:space="preserve" text-anchor="middle" x="474.11" y="-167.95" font-family="Times New Roman,serif" font-size="14.00">List Size</text>
</g>
<!-- 1&#45;&gt;2 -->
<g id="edge2" class="edge">
<title>1&#45;&gt;2</title>
<path fill="none" stroke="black" d="M292.13,-121.53C328.21,-131.79 385.87,-148.19 426.39,-159.71"/>
<polygon fill="black" stroke="black" points="425.3,-163.04 435.87,-162.41 427.21,-156.31 425.3,-163.04"/>
</g>
<!-- 4 -->
<!-- name: &quot;example element&quot;, typeName: &quot;&quot;, id: 4, branchId: 0, recurseId: &#45;1, attributes: 16, notes: &quot;&quot; -->
<g id="node5" class="node">
<title>4</title>
<ellipse fill="none" stroke="black" stroke-dasharray="1,5" cx="474.11" cy="-112" rx="74.89" ry="18"/>
<text xml:space="preserve" text-anchor="middle" x="474.11" y="-106.95" font-family="Times New Roman,serif" font-size="14.00">example element</text>
</g>
<!-- 1&#45;&gt;4 -->
<g id="edge4" class="edge">
<title>1&#45;&gt;4</title>
<path fill="none" stroke="black" d="M297.96,-112C323.05,-112 356.58,-112 387.58,-112"/>
<polygon fill="black" stroke="black" points="387.35,-115.5 397.35,-112 387.35,-108.5 387.35,-115.5"/>
</g>
<!-- 3 -->
<!-- name: &quot;unsigned varint&quot;, typeName: &quot;&quot;, id: 3, branchId: 0, recurseId: &#45;1, attributes: 0, notes: &quot;&quot; -->
<g id="node4" class="node">
<title>3</title>
<ellipse fill="none" stroke="black" cx="653.25" cy="-180" rx="68.24" ry="18"/>
<text xml:space="preserve" text-anchor="middle" x="653.25" y="-174.95" font-family="Times New Roman,serif" font-size="14.00">unsigned varint</text>
</g>
<!-- 2&#45;&gt;3 -->
<g id="edge3" class="edge">
<title>2&#45;&gt;3</title>
<path fill="none" stroke="black" d="M517.99,-174.69C534.77,-175.36 554.57,-176.14 573.73,-176.9"/>
<polygon fill="black" stroke="black" points="573.58,-180.39 583.72,-177.29 573.86,-173.4 573.58,-180.39"/>
</g>
<!-- 5 -->
<!-- name: &quot;Name&quot;, typeName: &quot;&quot;, id: 5, branchId: 0, recurseId: &#45;1, attributes: 0, notes: &quot;&quot; -->
<g id="node6" class="node">
<title>5</title>
<ellipse fill="none" stroke="black" cx="653.25" cy="-126" rx="33.44" ry="18"/>
<text xml:space="preserve" text-anchor="middle" x="653.25" y="-120.95" font-family="Times New Roman,serif" font-size="14.00">Name</text>
</g>
<!-- 4&#45;&gt;5 -->
<g id="edge5" class="edge">
<title>4&#45;&gt;5</title>
<path fill="none" stroke="black" d="M545.88,-117.59C567.11,-119.27 589.76,-121.06 608.68,-122.56"/>
<polygon fill="black" stroke="black" points="608.18,-126.03 618.42,-123.33 608.73,-119.05 608.18,-126.03"/>
</g>
<!-- 7 -->
<!-- name: &quot;Enabled&quot;, typeName: &quot;&quot;, id: 7, branchId: 0, recurseId: &#45;1, attributes: 0, notes: &quot;&quot; -->
<g id="node8" class="node">
<title>7</title>
<ellipse fill="none" stroke="black" cx="653.25" cy="-72" rx="41.12" ry="18"/>
<text xml:space="preserve" text-anchor="middle" x="653.25" y="-66.95" font-family="Times New Roman,serif" font-size="14.00">Enabled</text>
</g>
<!-- 4&#45;&gt;7 -->
<g id="edge7" class="edge">
<title>4&#45;&gt;7</title>
<path fill="none" stroke="black" d="M529.7,-99.67C553.81,-94.23 581.88,-87.89 605.07,-82.65"/>
<polygon fill="black" stroke="black" points="605.56,-86.13 614.55,-80.51 604.02,-79.3 605.56,-86.13"/>
</g>
<!-- 6 -->
<!-- name: &quot;string&quot;, typeName: &quot;&quot;, id: 6, branchId: 0, recurseId: &#45;1, attributes: 512, notes: &quot;&quot; -->
<g id="node7" class="node">
<title>6</title>
<ellipse fill="none" stroke="black" cx="789.39" cy="-126" rx="31.9" ry="18"/>
<text xml:space="preserve" text-anchor="middle" x="789.39" y="-120.95" font-family="Times New Roman,serif" font-size="14.00">string</text>
</g>
<!-- 5&#45;&gt;6 -->
<g id="edge6" class="edge">
<title>5&#45;&gt;6</title>
<path fill="none" stroke="black" d="M687.06,-126C704.79,-126 726.88,-126 745.91,-126"/>
<polygon fill="black" stroke="black" points="745.78,-129.5 755.78,-126 745.78,-122.5 745.78,-129.5"/>
</g>
<!-- 8 -->
<!-- name: &quot;bool&quot;, typeName: &quot;&quot;, id: 8, branchId: 0, recurseId: &#45;1, attributes: 512, notes: &quot;&quot; -->
<g id="node9" class="node">
<title>8</title>
<ellipse fill="none" stroke="black" cx="789.39" cy="-72" rx="27.3" ry="18"/>
<text xml:space="preserve" text-anchor="middle" x="789.39" y="-66.95" font-family="Times New Roman,serif" font-size="14.00">bool</text>
</g>
<!-- 7&#45;&gt;8 -->
<g id="edge8" class="edge">
<title>7&#45;&gt;8</title>
<path fill="none" stroke="black" d="M694.86,-72C712.53,-72 733.11,-72 750.47,-72"/>
<polygon fill="black" stroke="black" points="750.38,-75.5 760.38,-72 750.38,-68.5 750.38,-75.5"/>
</g>
<!-- 10 -->
<!-- name: &quot;bool&quot;, typeName: &quot;&quot;, id: 10, branchId: 0, recurseId: &#45;1, attributes: 512, notes: &quot;Whether any experiments have ever been toggled in this world&quot; -->
<g id="node11" class="node">
<title>10</title>
<ellipse fill="none" stroke="black" cx="789.39" cy="-18" rx="27.3" ry="18"/>
<text xml:space="preserve" text-anchor="middle" x="789.39" y="-12.95" font-family="Times New Roman,serif" font-size="14.00">bool</text>
</g>
<!-- 9&#45;&gt;10 -->
<g id="edge10" class="edge">
<title>9&#45;&gt;10</title>
<path fill="none" stroke="black" d="M359.51,-39.86C478.28,-33.8 669.57,-24.06 750.39,-19.94"/>
<polygon fill="black" stroke="black" points="750.4,-23.44 760.21,-19.44 750.04,-16.45 750.4,-23.44"/>
</g>
</g>
</svg>
