<?xml version="1.0" encoding="UTF-8" standalone="no"?>
<!DOCTYPE svg PUBLIC "-//W3C//DTD SVG 1.1//EN"
 "http://www.w3.org/Graphics/SVG/1.1/DTD/svg11.dtd">
<!-- Generated by graphviz version 14.1.5 (20260411.2331)
 -->
<!-- Title: ExperimentToggle Pages: 1 -->
<svg width="386pt" height="98pt"
 viewBox="0.00 0.00 386.00 98.00" xmlns="http://www.w3.org/2000/svg" xmlns:xlink="http://www.w3.org/1999/xlink">
<g id="graph0" class="graph" transform="scale(1 1) rotate(0) translate(4 94)">
<title>ExperimentToggle</title>
<polygon fill="white" stroke="none" points="-4,4 -4,-94 382.06,-94 382.06,4 -4,4"/>
<!-- 0 -->
<!-- name: &quot;ExperimentToggle&quot;, typeName: &quot;&quot;, id: 0, branchId: 0, recurseId: &#45;1, attributes: 0, notes: &quot;&quot; -->
<g id="node1" class="node">
<title>0</title>
<ellipse fill="none" stroke="black" cx="80.01" cy="-45" rx="80.01" ry="18"/>
<text xml:space="preserve" text-anchor="middle" x="80.01" y="-39.95" font-family="Times New Roman,serif" font-size="14.00">ExperimentToggle</text>
</g>
<!-- 1 -->
<!-- name: &quot;Name&quot;, typeName: &quot;&quot;, id: 1, branchId: 0, recurseId: &#45;1, attributes: 0, notes: &quot;&quot; -->
<g id="node2" class="node">
<title>1</title>
<ellipse fill="none" stroke="black" cx="237.14" cy="-72" rx="33.44" ry="18"/>
<text xml:space="preserve" text-anchor="middle" x="237.14" y="-66.95" font-family="Times New Roman,serif" font-size="14.00">Name</text>
</g>
<!-- 0&#45;&gt;1 -->
<g id="edge1" class="edge">
<title>0&#45;&gt;1</title>
<path fill="none" stroke="black" d="M144.11,-55.98C160.82,-58.89 178.46,-61.96 193.78,-64.63"/>
<polygon fill="black" stroke="black" points="193.04,-68.05 203.49,-66.32 194.24,-61.15 193.04,-68.05"/>
</g>
<!-- 3 -->
<!-- name: &quot;Enabled&quot;, typeName: &quot;&quot;, id: 3, branchId: 0, recurseId: &#45;1, attributes: 0, notes: &quot;&quot; -->
<g id="node4" class="node">
<title>3</title>
<ellipse fill="none" stroke="black" cx="237.14" cy="-18" rx="41.12" ry="18"/>
<text xml:space="preserve" text-anchor="middle" x="237.14" y="-12.95" font-family="Times New Roman,serif" font-size="14.00">Enabled</text>
</g>
<!-- 0&#45;&gt;3 -->
<g id="edge3" class="edge">
<title>0&#45;&gt;3</title>
<path fill="none" stroke="black" d="M144.11,-34.02C158.53,-31.51 173.64,-28.88 187.35,-26.49"/>
<polygon fill="black" stroke="black" points="187.75,-29.98 197,-24.81 186.55,-23.08 187.75,-29.98"/>
</g>
<!-- 2 -->
<!-- name: &quot;string&quot;, typeName: &quot;&quot;, id: 2, branchId: 0, recurseId: &#45;1, attributes: 512, notes: &quot;&quot; -->
<g id="node3" class="node">
<title>2</title>
<ellipse fill="none" stroke="black" cx="346.16" cy="-72" rx="31.9" ry="18"/>
<text xml:space="preserve" text-anchor="middle" x="346.16" y="-66.95" font-family="Times New Roman,serif" font-size="14.00">string</text>
</g>
<!-- 1&#45;&gt;2 -->
<g id="edge2" class="edge">
<title>1&#45;&gt;2</title>
<path fill="none" stroke="black" d="M270.83,-72C280.75,-72 291.79,-72 302.27,-72"/>
<polygon fill="black" stroke="black" points="302.25,-75.5 312.25,-72 302.25,-68.5 302.25,-75.5"/>
</g>
<!-- 4 -->
<!-- name: &quot;bool&quot;, typeName: &quot;&quot;, id: 4, branchId: 0, recurseId: &#45;1, attributes: 512, notes: &quot;&quot; -->
<g id="node5" class="node">
<title>4</title>
<ellipse fill="none" stroke="black" cx="346.16" cy="-18" rx="27.3" ry="18"/>
<text xml:space="preserve" text-anchor="middle" x="346.16" y="-12.95" font-family="Times New Roman,serif" font-size="14.00">bool</text>
</g>
<!-- 3&#45;&gt;4 -->
<g id="edge4" class="edge">
<title>3&#45;&gt;4</title>
<path fill="none" stroke="black" d="M278.6,-18C288.01,-18 297.98,-18 307.27,-18"/>
<polygon fill="black" stroke="black" points="307.06,-21.5 317.06,-18 307.06,-14.5 307.06,-21.5"/>
</g>
</g>
</svg>
