<?xml version="1.0" encoding="UTF-8" standalone="no"?>
<!DOCTYPE svg PUBLIC "-//W3C//DTD SVG 1.1//EN"
 "http://www.w3.org/Graphics/SVG/1.1/DTD/svg11.dtd">
<!-- Generated by graphviz version 2.46.1 (20210213.1702)
 -->
<!-- Title: Experiments Pages: 1 -->
<svg width="1081pt" height="314pt"
 viewBox="0.00 0.00 1081.42 314.00" xmlns="http://www.w3.org/2000/svg" xmlns:xlink="http://www.w3.org/1999/xlink">
<g id="graph0" class="graph" transform="scale(1 1) rotate(0) translate(4 310)">
<title>Experiments</title>
<polygon fill="white" stroke="transparent" points="-4,4 -4,-310 1077.42,-310 1077.42,4 -4,4"/>
<!-- 29 -->
<!-- name: &quot;Experiments&quot;, typeName: &quot;&quot;, id: 29, branchId: 0, recurseId: &#45;1, attributes: 0, notes: &quot;&quot; -->
<g id="node1" class="node">
<title>29</title>
<ellipse fill="none" stroke="black" cx="55.9" cy="-99" rx="55.79" ry="18"/>
<text text-anchor="middle" x="55.9" y="-95.3" font-family="Times New Roman,serif" font-size="14.00">Experiments</text>
</g>
<!-- 30 -->
<!-- name: &quot;Experiments array&quot;, typeName: &quot;&quot;, id: 30, branchId: 0, recurseId: &#45;1, attributes: 8, notes: &quot;List of currently enabled experiments&quot; -->
<g id="node2" class="node">
<title>30</title>
<ellipse fill="none" stroke="black" cx="294.68" cy="-153" rx="76.09" ry="18"/>
<text text-anchor="middle" x="294.68" y="-149.3" font-family="Times New Roman,serif" font-size="14.00">Experiments array</text>
</g>
<!-- 29&#45;&gt;30 -->
<g id="edge1" class="edge">
<title>29&#45;&gt;30</title>
<path fill="none" stroke="black" d="M101.99,-109.28C137.99,-117.49 188.88,-129.1 229.19,-138.29"/>
<polygon fill="black" stroke="black" points="228.66,-141.76 239.19,-140.57 230.22,-134.94 228.66,-141.76"/>
</g>
<!-- 42 -->
<!-- name: &quot;Were Any Experiments Ever Toggled&quot;, typeName: &quot;&quot;, id: 42, branchId: 0, recurseId: &#45;1, attributes: 0, notes: &quot;&quot; -->
<g id="node14" class="node">
<title>42</title>
<ellipse fill="none" stroke="black" cx="294.68" cy="-72" rx="146.77" ry="18"/>
<text text-anchor="middle" x="294.68" y="-68.3" font-family="Times New Roman,serif" font-size="14.00">Were Any Experiments Ever Toggled</text>
</g>
<!-- 29&#45;&gt;42 -->
<g id="edge13" class="edge">
<title>29&#45;&gt;42</title>
<path fill="none" stroke="black" d="M108.86,-93.07C128.87,-90.79 152.63,-88.08 176.33,-85.38"/>
<polygon fill="black" stroke="black" points="176.93,-88.84 186.47,-84.22 176.14,-81.88 176.93,-88.84"/>
</g>
<!-- 31 -->
<!-- name: &quot;Streamed Experiment Names Size&quot;, typeName: &quot;&quot;, id: 31, branchId: 0, recurseId: &#45;1, attributes: 0, notes: &quot;&quot; -->
<g id="node3" class="node">
<title>31</title>
<ellipse fill="none" stroke="black" cx="610.8" cy="-247" rx="133.48" ry="18"/>
<text text-anchor="middle" x="610.8" y="-243.3" font-family="Times New Roman,serif" font-size="14.00">Streamed Experiment Names Size</text>
</g>
<!-- 30&#45;&gt;31 -->
<g id="edge2" class="edge">
<title>30&#45;&gt;31</title>
<path fill="none" stroke="black" d="M342.7,-167.07C396.53,-183.18 485.01,-209.66 545.26,-227.69"/>
<polygon fill="black" stroke="black" points="544.46,-231.1 555.05,-230.61 546.47,-224.39 544.46,-231.1"/>
</g>
<!-- 33 -->
<!-- name: &quot;example element&quot;, typeName: &quot;&quot;, id: 33, branchId: 0, recurseId: &#45;1, attributes: 16, notes: &quot;&quot; -->
<g id="node5" class="node">
<title>33</title>
<ellipse fill="none" stroke="black" stroke-dasharray="1,5" cx="610.8" cy="-153" rx="70.39" ry="18"/>
<text text-anchor="middle" x="610.8" y="-149.3" font-family="Times New Roman,serif" font-size="14.00">example element</text>
</g>
<!-- 30&#45;&gt;33 -->
<g id="edge4" class="edge">
<title>30&#45;&gt;33</title>
<path fill="none" stroke="black" d="M370.92,-153C419.04,-153 481.39,-153 530.32,-153"/>
<polygon fill="black" stroke="black" points="530.54,-156.5 540.54,-153 530.54,-149.5 530.54,-156.5"/>
</g>
<!-- 32 -->
<!-- name: &quot;unsigned int&quot;, typeName: &quot;&quot;, id: 32, branchId: 0, recurseId: &#45;1, attributes: 512, notes: &quot;&quot; -->
<g id="node4" class="node">
<title>32</title>
<ellipse fill="none" stroke="black" cx="1019.47" cy="-288" rx="53.89" ry="18"/>
<text text-anchor="middle" x="1019.47" y="-284.3" font-family="Times New Roman,serif" font-size="14.00">unsigned int</text>
</g>
<!-- 31&#45;&gt;32 -->
<g id="edge3" class="edge">
<title>31&#45;&gt;32</title>
<path fill="none" stroke="black" d="M718.12,-257.72C794.36,-265.41 894.37,-275.49 957.55,-281.86"/>
<polygon fill="black" stroke="black" points="957.44,-285.36 967.74,-282.89 958.14,-278.4 957.44,-285.36"/>
</g>
<!-- 34 -->
<!-- name: &quot;Toggle Name&quot;, typeName: &quot;&quot;, id: 34, branchId: 0, recurseId: &#45;1, attributes: 0, notes: &quot;&quot; -->
<g id="node6" class="node">
<title>34</title>
<ellipse fill="none" stroke="black" cx="854.78" cy="-234" rx="59.59" ry="18"/>
<text text-anchor="middle" x="854.78" y="-230.3" font-family="Times New Roman,serif" font-size="14.00">Toggle Name</text>
</g>
<!-- 33&#45;&gt;34 -->
<g id="edge5" class="edge">
<title>33&#45;&gt;34</title>
<path fill="none" stroke="black" d="M654.23,-167.2C696.19,-181.25 760.37,-202.73 804.55,-217.52"/>
<polygon fill="black" stroke="black" points="803.62,-220.9 814.22,-220.76 805.84,-214.26 803.62,-220.9"/>
</g>
<!-- 36 -->
<!-- name: &quot;Enabled&quot;, typeName: &quot;&quot;, id: 36, branchId: 0, recurseId: &#45;1, attributes: 0, notes: &quot;&quot; -->
<g id="node8" class="node">
<title>36</title>
<ellipse fill="none" stroke="black" cx="854.78" cy="-180" rx="40.09" ry="18"/>
<text text-anchor="middle" x="854.78" y="-176.3" font-family="Times New Roman,serif" font-size="14.00">Enabled</text>
</g>
<!-- 33&#45;&gt;36 -->
<g id="edge7" class="edge">
<title>33&#45;&gt;36</title>
<path fill="none" stroke="black" d="M675.38,-160.09C716.08,-164.64 768.07,-170.44 805.41,-174.6"/>
<polygon fill="black" stroke="black" points="805.21,-178.1 815.53,-175.73 805.98,-171.14 805.21,-178.1"/>
</g>
<!-- 38 -->
<!-- name: &quot;Always On Name&quot;, typeName: &quot;&quot;, id: 38, branchId: 0, recurseId: &#45;1, attributes: 0, notes: &quot;&quot; -->
<g id="node10" class="node">
<title>38</title>
<ellipse fill="none" stroke="black" cx="854.78" cy="-126" rx="74.99" ry="18"/>
<text text-anchor="middle" x="854.78" y="-122.3" font-family="Times New Roman,serif" font-size="14.00">Always On Name</text>
</g>
<!-- 33&#45;&gt;38 -->
<g id="edge9" class="edge">
<title>33&#45;&gt;38</title>
<path fill="none" stroke="black" d="M675.38,-145.91C706.34,-142.45 743.84,-138.27 776.45,-134.63"/>
<polygon fill="black" stroke="black" points="776.85,-138.11 786.4,-133.52 776.07,-131.15 776.85,-138.11"/>
</g>
<!-- 40 -->
<!-- name: &quot;Enabled&quot;, typeName: &quot;&quot;, id: 40, branchId: 0, recurseId: &#45;1, attributes: 0, notes: &quot;&quot; -->
<g id="node12" class="node">
<title>40</title>
<ellipse fill="none" stroke="black" cx="854.78" cy="-72" rx="40.09" ry="18"/>
<text text-anchor="middle" x="854.78" y="-68.3" font-family="Times New Roman,serif" font-size="14.00">Enabled</text>
</g>
<!-- 33&#45;&gt;40 -->
<g id="edge11" class="edge">
<title>33&#45;&gt;40</title>
<path fill="none" stroke="black" d="M654.23,-138.8C698.71,-123.91 768.16,-100.66 812.29,-85.89"/>
<polygon fill="black" stroke="black" points="813.47,-89.18 821.85,-82.69 811.25,-82.55 813.47,-89.18"/>
</g>
<!-- 35 -->
<!-- name: &quot;string&quot;, typeName: &quot;&quot;, id: 35, branchId: 0, recurseId: &#45;1, attributes: 512, notes: &quot;&quot; -->
<g id="node7" class="node">
<title>35</title>
<ellipse fill="none" stroke="black" cx="1019.47" cy="-234" rx="30.59" ry="18"/>
<text text-anchor="middle" x="1019.47" y="-230.3" font-family="Times New Roman,serif" font-size="14.00">string</text>
</g>
<!-- 34&#45;&gt;35 -->
<g id="edge6" class="edge">
<title>34&#45;&gt;35</title>
<path fill="none" stroke="black" d="M914.98,-234C936.14,-234 959.46,-234 978.6,-234"/>
<polygon fill="black" stroke="black" points="978.76,-237.5 988.76,-234 978.76,-230.5 978.76,-237.5"/>
</g>
<!-- 37 -->
<!-- name: &quot;bool&quot;, typeName: &quot;&quot;, id: 37, branchId: 0, recurseId: &#45;1, attributes: 512, notes: &quot;&quot; -->
<g id="node9" class="node">
<title>37</title>
<ellipse fill="none" stroke="black" cx="1019.47" cy="-180" rx="27.1" ry="18"/>
<text text-anchor="middle" x="1019.47" y="-176.3" font-family="Times New Roman,serif" font-size="14.00">bool</text>
</g>
<!-- 36&#45;&gt;37 -->
<g id="edge8" class="edge">
<title>36&#45;&gt;37</title>
<path fill="none" stroke="black" d="M895.17,-180C921.61,-180 956.21,-180 982.03,-180"/>
<polygon fill="black" stroke="black" points="982.15,-183.5 992.15,-180 982.15,-176.5 982.15,-183.5"/>
</g>
<!-- 39 -->
<!-- name: &quot;string&quot;, typeName: &quot;&quot;, id: 39, branchId: 0, recurseId: &#45;1, attributes: 512, notes: &quot;&quot; -->
<g id="node11" class="node">
<title>39</title>
<ellipse fill="none" stroke="black" cx="1019.47" cy="-126" rx="30.59" ry="18"/>
<text text-anchor="middle" x="1019.47" y="-122.3" font-family="Times New Roman,serif" font-size="14.00">string</text>
</g>
<!-- 38&#45;&gt;39 -->
<g id="edge10" class="edge">
<title>38&#45;&gt;39</title>
<path fill="none" stroke="black" d="M929.99,-126C946.71,-126 963.84,-126 978.52,-126"/>
<polygon fill="black" stroke="black" points="978.73,-129.5 988.73,-126 978.73,-122.5 978.73,-129.5"/>
</g>
<!-- 41 -->
<!-- name: &quot;bool&quot;, typeName: &quot;&quot;, id: 41, branchId: 0, recurseId: &#45;1, attributes: 512, notes: &quot;&quot; -->
<g id="node13" class="node">
<title>41</title>
<ellipse fill="none" stroke="black" cx="1019.47" cy="-72" rx="27.1" ry="18"/>
<text text-anchor="middle" x="1019.47" y="-68.3" font-family="Times New Roman,serif" font-size="14.00">bool</text>
</g>
<!-- 40&#45;&gt;41 -->
<g id="edge12" class="edge">
<title>40&#45;&gt;41</title>
<path fill="none" stroke="black" d="M895.17,-72C921.61,-72 956.21,-72 982.03,-72"/>
<polygon fill="black" stroke="black" points="982.15,-75.5 992.15,-72 982.15,-68.5 982.15,-75.5"/>
</g>
<!-- 43 -->
<!-- name: &quot;bool&quot;, typeName: &quot;&quot;, id: 43, branchId: 0, recurseId: &#45;1, attributes: 512, notes: &quot;&quot; -->
<g id="node15" class="node">
<title>43</title>
<ellipse fill="none" stroke="black" cx="1019.47" cy="-18" rx="27.1" ry="18"/>
<text text-anchor="middle" x="1019.47" y="-14.3" font-family="Times New Roman,serif" font-size="14.00">bool</text>
</g>
<!-- 42&#45;&gt;43 -->
<g id="edge14" class="edge">
<title>42&#45;&gt;43</title>
<path fill="none" stroke="black" d="M420.75,-62.66C589.34,-50.06 880.09,-28.34 981.95,-20.73"/>
<polygon fill="black" stroke="black" points="982.33,-24.21 992.04,-19.97 981.81,-17.23 982.33,-24.21"/>
</g>
</g>
</svg>
