<?xml version="1.0" encoding="UTF-8" standalone="no"?>
<!DOCTYPE svg PUBLIC "-//W3C//DTD SVG 1.1//EN"
 "http://www.w3.org/Graphics/SVG/1.1/DTD/svg11.dtd">
<!-- Generated by graphviz version 2.46.1 (20210213.1702)
 -->
<!-- Title: FeatureRegistryPacket Pages: 1 -->
<svg width="914pt" height="152pt"
 viewBox="0.00 0.00 913.73 152.00" xmlns="http://www.w3.org/2000/svg" xmlns:xlink="http://www.w3.org/1999/xlink">
<g id="graph0" class="graph" transform="scale(1 1) rotate(0) translate(4 148)">
<title>FeatureRegistryPacket</title>
<polygon fill="white" stroke="transparent" points="-4,4 -4,-148 909.73,-148 909.73,4 -4,4"/>
<!-- 0 -->
<!-- name: &quot;FeatureRegistryPacket&quot;, typeName: &quot;&quot;, id: 0, branchId: 191, recurseId: &#45;1, attributes: 0, notes: &quot;&quot; -->
<g id="node1" class="node">
<title>0</title>
<ellipse fill="none" stroke="black" cx="92.29" cy="-99" rx="92.08" ry="18"/>
<text text-anchor="middle" x="92.29" y="-95.3" font-family="Times New Roman,serif" font-size="14.00">FeatureRegistryPacket</text>
</g>
<!-- 1 -->
<!-- name: &quot;FeaturesDataList&quot;, typeName: &quot;&quot;, id: 1, branchId: 0, recurseId: &#45;1, attributes: 8, notes: &quot;&quot; -->
<g id="node2" class="node">
<title>1</title>
<ellipse fill="none" stroke="black" cx="292.08" cy="-99" rx="71.49" ry="18"/>
<text text-anchor="middle" x="292.08" y="-95.3" font-family="Times New Roman,serif" font-size="14.00">FeaturesDataList</text>
</g>
<!-- 0&#45;&gt;1 -->
<g id="edge1" class="edge">
<title>0&#45;&gt;1</title>
<path fill="none" stroke="black" d="M184.66,-99C193.22,-99 201.86,-99 210.32,-99"/>
<polygon fill="black" stroke="black" points="210.52,-102.5 220.52,-99 210.52,-95.5 210.52,-102.5"/>
</g>
<!-- 2 -->
<!-- name: &quot;Array Size&quot;, typeName: &quot;&quot;, id: 2, branchId: 0, recurseId: &#45;1, attributes: 0, notes: &quot;&quot; -->
<g id="node3" class="node">
<title>2</title>
<ellipse fill="none" stroke="black" cx="469.76" cy="-126" rx="48.99" ry="18"/>
<text text-anchor="middle" x="469.76" y="-122.3" font-family="Times New Roman,serif" font-size="14.00">Array Size</text>
</g>
<!-- 1&#45;&gt;2 -->
<g id="edge2" class="edge">
<title>1&#45;&gt;2</title>
<path fill="none" stroke="black" d="M353.54,-108.29C373.31,-111.33 395.14,-114.69 414.43,-117.65"/>
<polygon fill="black" stroke="black" points="414.15,-121.15 424.56,-119.21 415.21,-114.23 414.15,-121.15"/>
</g>
<!-- 4 -->
<!-- name: &quot;example element&quot;, typeName: &quot;&quot;, id: 4, branchId: 0, recurseId: &#45;1, attributes: 16, notes: &quot;&quot; -->
<g id="node5" class="node">
<title>4</title>
<ellipse fill="none" stroke="black" stroke-dasharray="1,5" cx="469.76" cy="-72" rx="70.39" ry="18"/>
<text text-anchor="middle" x="469.76" y="-68.3" font-family="Times New Roman,serif" font-size="14.00">example element</text>
</g>
<!-- 1&#45;&gt;4 -->
<g id="edge4" class="edge">
<title>1&#45;&gt;4</title>
<path fill="none" stroke="black" d="M353.54,-89.71C368.14,-87.46 383.85,-85.05 398.84,-82.75"/>
<polygon fill="black" stroke="black" points="399.73,-86.15 409.08,-81.17 398.67,-79.23 399.73,-86.15"/>
</g>
<!-- 3 -->
<!-- name: &quot;unsigned varint&quot;, typeName: &quot;&quot;, id: 3, branchId: 0, recurseId: &#45;1, attributes: 512, notes: &quot;&quot; -->
<g id="node4" class="node">
<title>3</title>
<ellipse fill="none" stroke="black" cx="840.09" cy="-126" rx="65.79" ry="18"/>
<text text-anchor="middle" x="840.09" y="-122.3" font-family="Times New Roman,serif" font-size="14.00">unsigned varint</text>
</g>
<!-- 2&#45;&gt;3 -->
<g id="edge3" class="edge">
<title>2&#45;&gt;3</title>
<path fill="none" stroke="black" d="M518.54,-126C580.91,-126 690.76,-126 764.24,-126"/>
<polygon fill="black" stroke="black" points="764.35,-129.5 774.35,-126 764.35,-122.5 764.35,-129.5"/>
</g>
<!-- 5 -->
<!-- name: &quot;feature Name&quot;, typeName: &quot;&quot;, id: 5, branchId: 0, recurseId: &#45;1, attributes: 0, notes: &quot;&quot; -->
<g id="node6" class="node">
<title>5</title>
<ellipse fill="none" stroke="black" cx="657.2" cy="-72" rx="58.49" ry="18"/>
<text text-anchor="middle" x="657.2" y="-68.3" font-family="Times New Roman,serif" font-size="14.00">feature Name</text>
</g>
<!-- 4&#45;&gt;5 -->
<g id="edge5" class="edge">
<title>4&#45;&gt;5</title>
<path fill="none" stroke="black" d="M540.08,-72C555.86,-72 572.61,-72 588.33,-72"/>
<polygon fill="black" stroke="black" points="588.49,-75.5 598.49,-72 588.49,-68.5 588.49,-75.5"/>
</g>
<!-- 7 -->
<!-- name: &quot;Binary Json Output&quot;, typeName: &quot;&quot;, id: 7, branchId: 0, recurseId: &#45;1, attributes: 0, notes: &quot;&quot; -->
<g id="node8" class="node">
<title>7</title>
<ellipse fill="none" stroke="black" cx="657.2" cy="-18" rx="81.49" ry="18"/>
<text text-anchor="middle" x="657.2" y="-14.3" font-family="Times New Roman,serif" font-size="14.00">Binary Json Output</text>
</g>
<!-- 4&#45;&gt;7 -->
<g id="edge7" class="edge">
<title>4&#45;&gt;7</title>
<path fill="none" stroke="black" d="M517.08,-58.51C541.43,-51.42 571.54,-42.65 597.51,-35.09"/>
<polygon fill="black" stroke="black" points="598.61,-38.41 607.24,-32.26 596.66,-31.69 598.61,-38.41"/>
</g>
<!-- 6 -->
<!-- name: &quot;string&quot;, typeName: &quot;&quot;, id: 6, branchId: 0, recurseId: &#45;1, attributes: 512, notes: &quot;&quot; -->
<g id="node7" class="node">
<title>6</title>
<ellipse fill="none" stroke="black" cx="840.09" cy="-72" rx="30.59" ry="18"/>
<text text-anchor="middle" x="840.09" y="-68.3" font-family="Times New Roman,serif" font-size="14.00">string</text>
</g>
<!-- 5&#45;&gt;6 -->
<g id="edge6" class="edge">
<title>5&#45;&gt;6</title>
<path fill="none" stroke="black" d="M715.93,-72C743.16,-72 774.97,-72 799.43,-72"/>
<polygon fill="black" stroke="black" points="799.44,-75.5 809.44,-72 799.44,-68.5 799.44,-75.5"/>
</g>
<!-- 8 -->
<!-- name: &quot;string&quot;, typeName: &quot;&quot;, id: 8, branchId: 0, recurseId: &#45;1, attributes: 512, notes: &quot;&quot; -->
<g id="node9" class="node">
<title>8</title>
<ellipse fill="none" stroke="black" cx="840.09" cy="-18" rx="30.59" ry="18"/>
<text text-anchor="middle" x="840.09" y="-14.3" font-family="Times New Roman,serif" font-size="14.00">string</text>
</g>
<!-- 7&#45;&gt;8 -->
<g id="edge8" class="edge">
<title>7&#45;&gt;8</title>
<path fill="none" stroke="black" d="M738.59,-18C759.58,-18 781.29,-18 799.14,-18"/>
<polygon fill="black" stroke="black" points="799.17,-21.5 809.17,-18 799.17,-14.5 799.17,-21.5"/>
</g>
</g>
</svg>
