<?xml version="1.0" encoding="UTF-8" standalone="no"?>
<!DOCTYPE svg PUBLIC "-//W3C//DTD SVG 1.1//EN"
 "http://www.w3.org/Graphics/SVG/1.1/DTD/svg11.dtd">
<!-- Generated by graphviz version 12.2.0 (20241103.1931)
 -->
<!-- Title: FeatureRegistryPacket Pages: 1 -->
<svg width="941pt" height="152pt"
 viewBox="0.00 0.00 940.87 152.00" xmlns="http://www.w3.org/2000/svg" xmlns:xlink="http://www.w3.org/1999/xlink">
<g id="graph0" class="graph" transform="scale(1 1) rotate(0) translate(4 148)">
<title>FeatureRegistryPacket</title>
<polygon fill="white" stroke="none" points="-4,4 -4,-148 936.87,-148 936.87,4 -4,4"/>
<!-- 0 -->
<!-- name: &quot;FeatureRegistryPacket&quot;, typeName: &quot;&quot;, id: 0, branchId: 191, recurseId: &#45;1, attributes: 0, notes: &quot;&quot; -->
<g id="node1" class="node">
<title>0</title>
<ellipse fill="none" stroke="black" cx="94.34" cy="-99" rx="94.34" ry="18"/>
<text text-anchor="middle" x="94.34" y="-93.95" font-family="Times New Roman,serif" font-size="14.00">FeatureRegistryPacket</text>
</g>
<!-- 1 -->
<!-- name: &quot;FeaturesDataList&quot;, typeName: &quot;&quot;, id: 1, branchId: 0, recurseId: &#45;1, attributes: 8, notes: &quot;&quot; -->
<g id="node2" class="node">
<title>1</title>
<ellipse fill="none" stroke="black" cx="298.56" cy="-99" rx="73.87" ry="18"/>
<text text-anchor="middle" x="298.56" y="-93.95" font-family="Times New Roman,serif" font-size="14.00">FeaturesDataList</text>
</g>
<!-- 0&#45;&gt;1 -->
<g id="edge1" class="edge">
<title>0&#45;&gt;1</title>
<path fill="none" stroke="black" d="M189.05,-99C197.03,-99 205.08,-99 212.98,-99"/>
<polygon fill="black" stroke="black" points="212.93,-102.5 222.93,-99 212.93,-95.5 212.93,-102.5"/>
</g>
<!-- 2 -->
<!-- name: &quot;List Size&quot;, typeName: &quot;&quot;, id: 2, branchId: 0, recurseId: &#45;1, attributes: 0, notes: &quot;&quot; -->
<g id="node3" class="node">
<title>2</title>
<ellipse fill="none" stroke="black" cx="483.32" cy="-126" rx="43.67" ry="18"/>
<text text-anchor="middle" x="483.32" y="-120.95" font-family="Times New Roman,serif" font-size="14.00">List Size</text>
</g>
<!-- 1&#45;&gt;2 -->
<g id="edge2" class="edge">
<title>1&#45;&gt;2</title>
<path fill="none" stroke="black" d="M362.71,-108.33C384.82,-111.6 409.38,-115.22 430.46,-118.34"/>
<polygon fill="black" stroke="black" points="429.88,-121.79 440.28,-119.79 430.9,-114.87 429.88,-121.79"/>
</g>
<!-- 4 -->
<!-- name: &quot;example element&quot;, typeName: &quot;&quot;, id: 4, branchId: 0, recurseId: &#45;1, attributes: 16, notes: &quot;&quot; -->
<g id="node5" class="node">
<title>4</title>
<ellipse fill="none" stroke="black" stroke-dasharray="1,5" cx="483.32" cy="-72" rx="74.89" ry="18"/>
<text text-anchor="middle" x="483.32" y="-66.95" font-family="Times New Roman,serif" font-size="14.00">example element</text>
</g>
<!-- 1&#45;&gt;4 -->
<g id="edge4" class="edge">
<title>1&#45;&gt;4</title>
<path fill="none" stroke="black" d="M362.71,-89.67C377.1,-87.54 392.52,-85.27 407.35,-83.08"/>
<polygon fill="black" stroke="black" points="407.67,-86.57 417.05,-81.64 406.65,-79.64 407.67,-86.57"/>
</g>
<!-- 3 -->
<!-- name: &quot;unsigned varint&quot;, typeName: &quot;&quot;, id: 3, branchId: 0, recurseId: &#45;1, attributes: 512, notes: &quot;&quot; -->
<g id="node4" class="node">
<title>3</title>
<ellipse fill="none" stroke="black" cx="864.63" cy="-126" rx="68.24" ry="18"/>
<text text-anchor="middle" x="864.63" y="-120.95" font-family="Times New Roman,serif" font-size="14.00">unsigned varint</text>
</g>
<!-- 2&#45;&gt;3 -->
<g id="edge3" class="edge">
<title>2&#45;&gt;3</title>
<path fill="none" stroke="black" d="M527.46,-126C589.93,-126 706.6,-126 784.7,-126"/>
<polygon fill="black" stroke="black" points="784.42,-129.5 794.42,-126 784.42,-122.5 784.42,-129.5"/>
</g>
<!-- 5 -->
<!-- name: &quot;feature Name&quot;, typeName: &quot;&quot;, id: 5, branchId: 0, recurseId: &#45;1, attributes: 0, notes: &quot;&quot; -->
<g id="node6" class="node">
<title>5</title>
<ellipse fill="none" stroke="black" cx="677.3" cy="-72" rx="61.59" ry="18"/>
<text text-anchor="middle" x="677.3" y="-66.95" font-family="Times New Roman,serif" font-size="14.00">feature Name</text>
</g>
<!-- 4&#45;&gt;5 -->
<g id="edge5" class="edge">
<title>4&#45;&gt;5</title>
<path fill="none" stroke="black" d="M558.55,-72C573.51,-72 589.22,-72 604.12,-72"/>
<polygon fill="black" stroke="black" points="603.81,-75.5 613.81,-72 603.81,-68.5 603.81,-75.5"/>
</g>
<!-- 7 -->
<!-- name: &quot;Binary Json Output&quot;, typeName: &quot;&quot;, id: 7, branchId: 0, recurseId: &#45;1, attributes: 0, notes: &quot;&quot; -->
<g id="node8" class="node">
<title>7</title>
<ellipse fill="none" stroke="black" cx="677.3" cy="-18" rx="83.08" ry="18"/>
<text text-anchor="middle" x="677.3" y="-12.95" font-family="Times New Roman,serif" font-size="14.00">Binary Json Output</text>
</g>
<!-- 4&#45;&gt;7 -->
<g id="edge7" class="edge">
<title>4&#45;&gt;7</title>
<path fill="none" stroke="black" d="M533.26,-58.23C557.86,-51.32 587.92,-42.86 614.13,-35.49"/>
<polygon fill="black" stroke="black" points="614.97,-38.89 623.64,-32.81 613.07,-32.15 614.97,-38.89"/>
</g>
<!-- 6 -->
<!-- name: &quot;string&quot;, typeName: &quot;&quot;, id: 6, branchId: 0, recurseId: &#45;1, attributes: 512, notes: &quot;&quot; -->
<g id="node7" class="node">
<title>6</title>
<ellipse fill="none" stroke="black" cx="864.63" cy="-72" rx="31.9" ry="18"/>
<text text-anchor="middle" x="864.63" y="-66.95" font-family="Times New Roman,serif" font-size="14.00">string</text>
</g>
<!-- 5&#45;&gt;6 -->
<g id="edge6" class="edge">
<title>5&#45;&gt;6</title>
<path fill="none" stroke="black" d="M739.24,-72C765.99,-72 796.74,-72 820.98,-72"/>
<polygon fill="black" stroke="black" points="820.79,-75.5 830.79,-72 820.79,-68.5 820.79,-75.5"/>
</g>
<!-- 8 -->
<!-- name: &quot;string&quot;, typeName: &quot;&quot;, id: 8, branchId: 0, recurseId: &#45;1, attributes: 512, notes: &quot;&quot; -->
<g id="node9" class="node">
<title>8</title>
<ellipse fill="none" stroke="black" cx="864.63" cy="-18" rx="31.9" ry="18"/>
<text text-anchor="middle" x="864.63" y="-12.95" font-family="Times New Roman,serif" font-size="14.00">string</text>
</g>
<!-- 7&#45;&gt;8 -->
<g id="edge8" class="edge">
<title>7&#45;&gt;8</title>
<path fill="none" stroke="black" d="M760.67,-18C781.6,-18 803.25,-18 821.26,-18"/>
<polygon fill="black" stroke="black" points="821.01,-21.5 831.01,-18 821.01,-14.5 821.01,-21.5"/>
</g>
</g>
</svg>
