<?xml version="1.0" encoding="UTF-8" standalone="no"?>
<!DOCTYPE svg PUBLIC "-//W3C//DTD SVG 1.1//EN"
 "http://www.w3.org/Graphics/SVG/1.1/DTD/svg11.dtd">
<!-- Generated by graphviz version 9.0.0 (20230911.1827)
 -->
<!-- Title: Fixed Float Pages: 1 -->
<svg width="436pt" height="44pt"
 viewBox="0.00 0.00 436.28 44.00" xmlns="http://www.w3.org/2000/svg" xmlns:xlink="http://www.w3.org/1999/xlink">
<g id="graph0" class="graph" transform="scale(1 1) rotate(0) translate(4 40)">
<title>Fixed Float</title>
<polygon fill="white" stroke="none" points="-4,4 -4,-40 432.28,-40 432.28,4 -4,4"/>
<!-- 0 -->
<!-- name: &quot;Fixed Float&quot;, typeName: &quot;&quot;, id: 0, branchId: 0, recurseId: &#45;1, attributes: 0, notes: &quot;&quot; -->
<g id="node1" class="node">
<title>0</title>
<ellipse fill="none" stroke="black" cx="53.06" cy="-18" rx="53.06" ry="18"/>
<text text-anchor="middle" x="53.06" y="-12.57" font-family="Times New Roman,serif" font-size="14.00">Fixed Float</text>
</g>
<!-- 1 -->
<!-- name: &quot;Modified float value&quot;, typeName: &quot;&quot;, id: 1, branchId: 0, recurseId: &#45;1, attributes: 0, notes: &quot;Float value multiplied by 32&quot; -->
<g id="node2" class="node">
<title>1</title>
<ellipse fill="none" stroke="black" cx="227.12" cy="-18" rx="85" ry="18"/>
<text text-anchor="middle" x="227.12" y="-12.57" font-family="Times New Roman,serif" font-size="14.00">Modified float value</text>
</g>
<!-- 0&#45;&gt;1 -->
<g id="edge1" class="edge">
<title>0&#45;&gt;1</title>
<path fill="none" stroke="black" d="M106.62,-18C114.29,-18 122.39,-18 130.61,-18"/>
<polygon fill="black" stroke="black" points="130.34,-21.5 140.34,-18 130.34,-14.5 130.34,-21.5"/>
</g>
<!-- 2 -->
<!-- name: &quot;varint64&quot;, typeName: &quot;&quot;, id: 2, branchId: 0, recurseId: &#45;1, attributes: 512, notes: &quot;&quot; -->
<g id="node3" class="node">
<title>2</title>
<ellipse fill="none" stroke="black" cx="388.2" cy="-18" rx="40.09" ry="18"/>
<text text-anchor="middle" x="388.2" y="-12.57" font-family="Times New Roman,serif" font-size="14.00">varint64</text>
</g>
<!-- 1&#45;&gt;2 -->
<g id="edge2" class="edge">
<title>1&#45;&gt;2</title>
<path fill="none" stroke="black" d="M312.31,-18C320.53,-18 328.68,-18 336.41,-18"/>
<polygon fill="black" stroke="black" points="336.26,-21.5 346.26,-18 336.26,-14.5 336.26,-21.5"/>
</g>
</g>
</svg>
