<?xml version="1.0" encoding="UTF-8" standalone="no"?>
<!DOCTYPE svg PUBLIC "-//W3C//DTD SVG 1.1//EN"
 "http://www.w3.org/Graphics/SVG/1.1/DTD/svg11.dtd">
<!-- Generated by graphviz version 11.0.0 (20240428.1522)
 -->
<!-- Title: float Pages: 1 -->
<svg width="248pt" height="44pt"
 viewBox="0.00 0.00 247.66 44.00" xmlns="http://www.w3.org/2000/svg" xmlns:xlink="http://www.w3.org/1999/xlink">
<g id="graph0" class="graph" transform="scale(1 1) rotate(0) translate(4 40)">
<title>float</title>
<polygon fill="white" stroke="none" points="-4,4 -4,-40 243.66,-40 243.66,4 -4,4"/>
<!-- 74 -->
<!-- name: &quot;float&quot;, typeName: &quot;&quot;, id: 74, branchId: 0, recurseId: &#45;1, attributes: 0, notes: &quot;&quot; -->
<g id="node1" class="node">
<title>74</title>
<ellipse fill="none" stroke="black" cx="27.11" cy="-18" rx="27.11" ry="18"/>
<text text-anchor="middle" x="27.11" y="-12.57" font-family="Times New Roman,serif" font-size="14.00">float</text>
</g>
<!-- 75 -->
<!-- name: &quot;Float&quot;, typeName: &quot;&quot;, id: 75, branchId: 0, recurseId: &#45;1, attributes: 0, notes: &quot;&quot; -->
<g id="node2" class="node">
<title>75</title>
<ellipse fill="none" stroke="black" cx="119.83" cy="-18" rx="29.61" ry="18"/>
<text text-anchor="middle" x="119.83" y="-12.57" font-family="Times New Roman,serif" font-size="14.00">Float</text>
</g>
<!-- 74&#45;&gt;75 -->
<g id="edge1" class="edge">
<title>74&#45;&gt;75</title>
<path fill="none" stroke="black" d="M54.35,-18C61.89,-18 70.3,-18 78.48,-18"/>
<polygon fill="black" stroke="black" points="78.27,-21.5 88.27,-18 78.27,-14.5 78.27,-21.5"/>
</g>
<!-- 76 -->
<!-- name: &quot;float&quot;, typeName: &quot;&quot;, id: 76, branchId: 0, recurseId: &#45;1, attributes: 512, notes: &quot;&quot; -->
<g id="node3" class="node">
<title>76</title>
<ellipse fill="none" stroke="black" cx="212.55" cy="-18" rx="27.11" ry="18"/>
<text text-anchor="middle" x="212.55" y="-12.57" font-family="Times New Roman,serif" font-size="14.00">float</text>
</g>
<!-- 75&#45;&gt;76 -->
<g id="edge2" class="edge">
<title>75&#45;&gt;76</title>
<path fill="none" stroke="black" d="M149.78,-18C157.38,-18 165.68,-18 173.67,-18"/>
<polygon fill="black" stroke="black" points="173.51,-21.5 183.51,-18 173.51,-14.5 173.51,-21.5"/>
</g>
</g>
</svg>
