<?xml version="1.0" encoding="UTF-8" standalone="no"?>
<!DOCTYPE svg PUBLIC "-//W3C//DTD SVG 1.1//EN"
 "http://www.w3.org/Graphics/SVG/1.1/DTD/svg11.dtd">
<!-- Generated by graphviz version 12.2.1 (20241206.2353)
 -->
<!-- Title: float Pages: 1 -->
<svg width="251pt" height="44pt"
 viewBox="0.00 0.00 250.94 44.00" xmlns="http://www.w3.org/2000/svg" xmlns:xlink="http://www.w3.org/1999/xlink">
<g id="graph0" class="graph" transform="scale(1 1) rotate(0) translate(4 40)">
<title>float</title>
<polygon fill="white" stroke="none" points="-4,4 -4,-40 246.94,-40 246.94,4 -4,4"/>
<!-- 74 -->
<!-- name: &quot;float&quot;, typeName: &quot;&quot;, id: 74, branchId: 0, recurseId: &#45;1, attributes: 0, notes: &quot;&quot; -->
<g id="node1" class="node">
<title>74</title>
<ellipse fill="none" stroke="black" cx="27.81" cy="-18" rx="27.81" ry="18"/>
<text text-anchor="middle" x="27.81" y="-12.95" font-family="Times New Roman,serif" font-size="14.00">float</text>
</g>
<!-- 75 -->
<!-- name: &quot;Float&quot;, typeName: &quot;&quot;, id: 75, branchId: 0, recurseId: &#45;1, attributes: 0, notes: &quot;&quot; -->
<g id="node2" class="node">
<title>75</title>
<ellipse fill="none" stroke="black" cx="121.47" cy="-18" rx="29.86" ry="18"/>
<text text-anchor="middle" x="121.47" y="-12.95" font-family="Times New Roman,serif" font-size="14.00">Float</text>
</g>
<!-- 74&#45;&gt;75 -->
<g id="edge1" class="edge">
<title>74&#45;&gt;75</title>
<path fill="none" stroke="black" d="M55.81,-18C63.42,-18 71.87,-18 80.08,-18"/>
<polygon fill="black" stroke="black" points="79.91,-21.5 89.91,-18 79.91,-14.5 79.91,-21.5"/>
</g>
<!-- 76 -->
<!-- name: &quot;float&quot;, typeName: &quot;&quot;, id: 76, branchId: 0, recurseId: &#45;1, attributes: 512, notes: &quot;&quot; -->
<g id="node3" class="node">
<title>76</title>
<ellipse fill="none" stroke="black" cx="215.14" cy="-18" rx="27.81" ry="18"/>
<text text-anchor="middle" x="215.14" y="-12.95" font-family="Times New Roman,serif" font-size="14.00">float</text>
</g>
<!-- 75&#45;&gt;76 -->
<g id="edge2" class="edge">
<title>75&#45;&gt;76</title>
<path fill="none" stroke="black" d="M151.73,-18C159.33,-18 167.64,-18 175.64,-18"/>
<polygon fill="black" stroke="black" points="175.51,-21.5 185.51,-18 175.51,-14.5 175.51,-21.5"/>
</g>
</g>
</svg>
