<?xml version="1.0" encoding="UTF-8" standalone="no"?>
<!DOCTYPE svg PUBLIC "-//W3C//DTD SVG 1.1//EN"
 "http://www.w3.org/Graphics/SVG/1.1/DTD/svg11.dtd">
<!-- Generated by graphviz version 14.1.5 (20260411.2331)
 -->
<!-- Title: FloatTag Pages: 1 -->
<svg width="277pt" height="44pt"
 viewBox="0.00 0.00 277.00 44.00" xmlns="http://www.w3.org/2000/svg" xmlns:xlink="http://www.w3.org/1999/xlink">
<g id="graph0" class="graph" transform="scale(1 1) rotate(0) translate(4 40)">
<title>FloatTag</title>
<polygon fill="white" stroke="none" points="-4,4 -4,-40 272.97,-40 272.97,4 -4,4"/>
<!-- 0 -->
<!-- name: &quot;FloatTag&quot;, typeName: &quot;&quot;, id: 0, branchId: 0, recurseId: &#45;1, attributes: 0, notes: &quot;&quot; -->
<g id="node1" class="node">
<title>0</title>
<ellipse fill="none" stroke="black" cx="43.67" cy="-18" rx="43.67" ry="18"/>
<text xml:space="preserve" text-anchor="middle" x="43.67" y="-12.95" font-family="Times New Roman,serif" font-size="14.00">FloatTag</text>
</g>
<!-- 1 -->
<!-- name: &quot;data&quot;, typeName: &quot;&quot;, id: 1, branchId: 0, recurseId: &#45;1, attributes: 0, notes: &quot;&quot; -->
<g id="node2" class="node">
<title>1</title>
<ellipse fill="none" stroke="black" cx="150.35" cy="-18" rx="27" ry="18"/>
<text xml:space="preserve" text-anchor="middle" x="150.35" y="-12.95" font-family="Times New Roman,serif" font-size="14.00">data</text>
</g>
<!-- 0&#45;&gt;1 -->
<g id="edge1" class="edge">
<title>0&#45;&gt;1</title>
<path fill="none" stroke="black" d="M87.55,-18C95.5,-18 103.75,-18 111.53,-18"/>
<polygon fill="black" stroke="black" points="111.38,-21.5 121.38,-18 111.38,-14.5 111.38,-21.5"/>
</g>
<!-- 2 -->
<!-- name: &quot;float&quot;, typeName: &quot;&quot;, id: 2, branchId: 0, recurseId: &#45;1, attributes: 512, notes: &quot;&quot; -->
<g id="node3" class="node">
<title>2</title>
<ellipse fill="none" stroke="black" cx="241.16" cy="-18" rx="27.81" ry="18"/>
<text xml:space="preserve" text-anchor="middle" x="241.16" y="-12.95" font-family="Times New Roman,serif" font-size="14.00">float</text>
</g>
<!-- 1&#45;&gt;2 -->
<g id="edge2" class="edge">
<title>1&#45;&gt;2</title>
<path fill="none" stroke="black" d="M177.51,-18C185.09,-18 193.53,-18 201.7,-18"/>
<polygon fill="black" stroke="black" points="201.43,-21.5 211.43,-18 201.43,-14.5 201.43,-21.5"/>
</g>
</g>
</svg>
