<?xml version="1.0" encoding="UTF-8" standalone="no"?>
<!DOCTYPE svg PUBLIC "-//W3C//DTD SVG 1.1//EN"
 "http://www.w3.org/Graphics/SVG/1.1/DTD/svg11.dtd">
<!-- Generated by graphviz version 11.0.0 (20240428.1522)
 -->
<!-- Title: FullContainerName Pages: 1 -->
<svg width="724pt" height="98pt"
 viewBox="0.00 0.00 723.70 98.00" xmlns="http://www.w3.org/2000/svg" xmlns:xlink="http://www.w3.org/1999/xlink">
<g id="graph0" class="graph" transform="scale(1 1) rotate(0) translate(4 94)">
<title>FullContainerName</title>
<polygon fill="white" stroke="none" points="-4,4 -4,-94 719.7,-94 719.7,4 -4,4"/>
<!-- 10 -->
<!-- name: &quot;FullContainerName&quot;, typeName: &quot;&quot;, id: 10, branchId: 0, recurseId: &#45;1, attributes: 0, notes: &quot;&quot; -->
<g id="node1" class="node">
<title>10</title>
<ellipse fill="none" stroke="black" cx="82" cy="-45" rx="82" ry="18"/>
<text text-anchor="middle" x="82" y="-39.58" font-family="Times New Roman,serif" font-size="14.00">FullContainerName</text>
</g>
<!-- 11 -->
<!-- name: &quot;Container Name&quot;, typeName: &quot;&quot;, id: 11, branchId: 0, recurseId: &#45;1, attributes: 0, notes: &quot;&quot; -->
<g id="node2" class="node">
<title>11</title>
<ellipse fill="none" stroke="black" cx="328.41" cy="-72" rx="70.52" ry="18"/>
<text text-anchor="middle" x="328.41" y="-66.58" font-family="Times New Roman,serif" font-size="14.00">Container Name</text>
</g>
<!-- 10&#45;&gt;11 -->
<g id="edge1" class="edge">
<title>10&#45;&gt;11</title>
<path fill="none" stroke="black" d="M156,-53.06C186.19,-56.4 221.18,-60.26 251.65,-63.63"/>
<polygon fill="black" stroke="black" points="251.25,-67.11 261.58,-64.73 252.02,-60.15 251.25,-67.11"/>
</g>
<!-- 13 -->
<!-- name: &quot;Optional Dynamic Container ID&quot;, typeName: &quot;std::optional&lt;unsigned int&gt;&quot;, id: 13, branchId: 0, recurseId: &#45;1, attributes: 256, notes: &quot;&quot; -->
<g id="node4" class="node">
<title>13</title>
<ellipse fill="none" stroke="black" cx="328.41" cy="-18" rx="128.41" ry="18"/>
<text text-anchor="middle" x="328.41" y="-12.57" font-family="Times New Roman,serif" font-size="14.00">Optional Dynamic Container ID</text>
</g>
<!-- 10&#45;&gt;13 -->
<g id="edge3" class="edge">
<title>10&#45;&gt;13</title>
<path fill="none" stroke="black" d="M156,-36.94C174.55,-34.89 194.91,-32.64 214.92,-30.43"/>
<polygon fill="black" stroke="black" points="215.26,-33.91 224.82,-29.33 214.49,-26.95 215.26,-33.91"/>
</g>
<!-- 12 -->
<!-- name: &quot;byte&quot;, typeName: &quot;&quot;, id: 12, branchId: 0, recurseId: &#45;1, attributes: 512, notes: &quot;&quot; -->
<g id="node3" class="node">
<title>12</title>
<ellipse fill="none" stroke="black" cx="604.26" cy="-72" rx="27" ry="18"/>
<text text-anchor="middle" x="604.26" y="-66.58" font-family="Times New Roman,serif" font-size="14.00">byte</text>
</g>
<!-- 11&#45;&gt;12 -->
<g id="edge2" class="edge">
<title>11&#45;&gt;12</title>
<path fill="none" stroke="black" d="M399.22,-72C452.09,-72 522.7,-72 565.48,-72"/>
<polygon fill="black" stroke="black" points="565.25,-75.5 575.25,-72 565.25,-68.5 565.25,-75.5"/>
</g>
<!-- 17 -->
<!-- name: &quot;std::optional&lt;unsigned int&gt;&quot;, typeName: &quot;&quot;, id: 17, branchId: 0, recurseId: &#45;1, attributes: 512, notes: &quot;&quot; -->
<g id="node5" class="node">
<title>17</title>
<ellipse fill="none" stroke="black" cx="604.26" cy="-18" rx="111.44" ry="18"/>
<text text-anchor="middle" x="604.26" y="-12.57" font-family="Times New Roman,serif" font-size="14.00">std::optional&lt;unsigned int&gt;</text>
</g>
<!-- 13&#45;&gt;17 -->
<g id="edge4" class="edge">
<title>13&#45;&gt;17</title>
<path fill="none" stroke="black" d="M457.12,-18C465.17,-18 473.27,-18 481.3,-18"/>
<polygon fill="black" stroke="black" points="481.08,-21.5 491.08,-18 481.08,-14.5 481.08,-21.5"/>
</g>
</g>
</svg>
