<?xml version="1.0" encoding="UTF-8" standalone="no"?>
<!DOCTYPE svg PUBLIC "-//W3C//DTD SVG 1.1//EN"
 "http://www.w3.org/Graphics/SVG/1.1/DTD/svg11.dtd">
<!-- Generated by graphviz version 11.0.0 (20240428.1522)
 -->
<!-- Title: GameRulesChangedPacket Pages: 1 -->
<svg width="662pt" height="44pt"
 viewBox="0.00 0.00 661.83 44.00" xmlns="http://www.w3.org/2000/svg" xmlns:xlink="http://www.w3.org/1999/xlink">
<g id="graph0" class="graph" transform="scale(1 1) rotate(0) translate(4 40)">
<title>GameRulesChangedPacket</title>
<polygon fill="white" stroke="none" points="-4,4 -4,-40 657.83,-40 657.83,4 -4,4"/>
<!-- 0 -->
<!-- name: &quot;GameRulesChangedPacket&quot;, typeName: &quot;&quot;, id: 0, branchId: 72, recurseId: &#45;1, attributes: 0, notes: &quot;&quot; -->
<g id="node1" class="node">
<title>0</title>
<ellipse fill="none" stroke="black" cx="111.44" cy="-18" rx="111.44" ry="18"/>
<text text-anchor="middle" x="111.44" y="-12.57" font-family="Times New Roman,serif" font-size="14.00">GameRulesChangedPacket</text>
</g>
<!-- 1 -->
<!-- name: &quot;Rules Data&quot;, typeName: &quot;GameRulesChangedPacketData&quot;, id: 1, branchId: 0, recurseId: &#45;1, attributes: 256, notes: &quot;&quot; -->
<g id="node2" class="node">
<title>1</title>
<ellipse fill="none" stroke="black" cx="309.95" cy="-18" rx="51.06" ry="18"/>
<text text-anchor="middle" x="309.95" y="-12.57" font-family="Times New Roman,serif" font-size="14.00">Rules Data</text>
</g>
<!-- 0&#45;&gt;1 -->
<g id="edge1" class="edge">
<title>0&#45;&gt;1</title>
<path fill="none" stroke="black" d="M223.33,-18C231.54,-18 239.63,-18 247.36,-18"/>
<polygon fill="black" stroke="black" points="247.29,-21.5 257.29,-18 247.29,-14.5 247.29,-21.5"/>
</g>
<!-- 2 -->
<!-- name: &quot;GameRulesChangedPacketData&quot;, typeName: &quot;&quot;, id: 2, branchId: 0, recurseId: &#45;1, attributes: 512, notes: &quot;&quot; -->
<g id="node3" class="node">
<title>2</title>
<ellipse fill="none" stroke="black" cx="525.42" cy="-18" rx="128.41" ry="18"/>
<text text-anchor="middle" x="525.42" y="-12.57" font-family="Times New Roman,serif" font-size="14.00">GameRulesChangedPacketData</text>
</g>
<!-- 1&#45;&gt;2 -->
<g id="edge2" class="edge">
<title>1&#45;&gt;2</title>
<path fill="none" stroke="black" d="M361.27,-18C368.9,-18 377.06,-18 385.53,-18"/>
<polygon fill="black" stroke="black" points="385.29,-21.5 395.29,-18 385.29,-14.5 385.29,-21.5"/>
</g>
</g>
</svg>
