<?xml version="1.0" encoding="UTF-8" standalone="no"?>
<!DOCTYPE svg PUBLIC "-//W3C//DTD SVG 1.1//EN"
 "http://www.w3.org/Graphics/SVG/1.1/DTD/svg11.dtd">
<!-- Generated by graphviz version 14.1.1 (20251213.1925)
 -->
<!-- Title: GameRule Pages: 1 -->
<svg width="437pt" height="152pt"
 viewBox="0.00 0.00 437.00 152.00" xmlns="http://www.w3.org/2000/svg" xmlns:xlink="http://www.w3.org/1999/xlink">
<g id="graph0" class="graph" transform="scale(1 1) rotate(0) translate(4 148)">
<title>GameRule</title>
<polygon fill="white" stroke="none" points="-4,4 -4,-148 433.24,-148 433.24,4 -4,4"/>
<!-- 0 -->
<!-- name: &quot;GameRule&quot;, typeName: &quot;&quot;, id: 0, branchId: 0, recurseId: &#45;1, attributes: 0, notes: &quot;&quot; -->
<g id="node1" class="node">
<title>0</title>
<ellipse fill="none" stroke="black" cx="50.84" cy="-72" rx="50.84" ry="18"/>
<text xml:space="preserve" text-anchor="middle" x="50.84" y="-66.95" font-family="Times New Roman,serif" font-size="14.00">GameRule</text>
</g>
<!-- 1 -->
<!-- name: &quot;Rule Name&quot;, typeName: &quot;&quot;, id: 1, branchId: 0, recurseId: &#45;1, attributes: 0, notes: &quot;&quot; -->
<g id="node2" class="node">
<title>1</title>
<ellipse fill="none" stroke="black" cx="233.56" cy="-126" rx="53.4" ry="18"/>
<text xml:space="preserve" text-anchor="middle" x="233.56" y="-120.95" font-family="Times New Roman,serif" font-size="14.00">Rule Name</text>
</g>
<!-- 0&#45;&gt;1 -->
<g id="edge1" class="edge">
<title>0&#45;&gt;1</title>
<path fill="none" stroke="black" d="M89.38,-84.05C104.37,-88.8 121.82,-94.25 137.68,-99 151.53,-103.15 166.57,-107.5 180.5,-111.46"/>
<polygon fill="black" stroke="black" points="179.36,-114.78 189.93,-114.14 181.27,-108.04 179.36,-114.78"/>
</g>
<!-- 3 -->
<!-- name: &quot;Rule Can Be Modified&quot;, typeName: &quot;&quot;, id: 3, branchId: 0, recurseId: &#45;1, attributes: 0, notes: &quot;&quot; -->
<g id="node4" class="node">
<title>3</title>
<ellipse fill="none" stroke="black" cx="233.56" cy="-72" rx="95.88" ry="18"/>
<text xml:space="preserve" text-anchor="middle" x="233.56" y="-66.95" font-family="Times New Roman,serif" font-size="14.00">Rule Can Be Modified</text>
</g>
<!-- 0&#45;&gt;3 -->
<g id="edge3" class="edge">
<title>0&#45;&gt;3</title>
<path fill="none" stroke="black" d="M101.7,-72C109.39,-72 117.56,-72 125.93,-72"/>
<polygon fill="black" stroke="black" points="125.93,-75.5 135.93,-72 125.93,-68.5 125.93,-75.5"/>
</g>
<!-- 5 -->
<!-- name: &quot;Rule Value&quot;, typeName: &quot;&quot;, id: 5, branchId: 0, recurseId: &#45;1, attributes: 0, notes: &quot;&quot; -->
<g id="node6" class="node">
<title>5</title>
<ellipse fill="none" stroke="black" cx="233.56" cy="-18" rx="51.35" ry="18"/>
<text xml:space="preserve" text-anchor="middle" x="233.56" y="-12.95" font-family="Times New Roman,serif" font-size="14.00">Rule Value</text>
</g>
<!-- 0&#45;&gt;5 -->
<g id="edge5" class="edge">
<title>0&#45;&gt;5</title>
<path fill="none" stroke="black" d="M89.38,-59.95C104.37,-55.2 121.82,-49.75 137.68,-45 151.79,-40.77 167.13,-36.34 181.28,-32.31"/>
<polygon fill="black" stroke="black" points="182.2,-35.69 190.87,-29.6 180.29,-28.96 182.2,-35.69"/>
</g>
<!-- 2 -->
<!-- name: &quot;string&quot;, typeName: &quot;&quot;, id: 2, branchId: 0, recurseId: &#45;1, attributes: 512, notes: &quot;&quot; -->
<g id="node3" class="node">
<title>2</title>
<ellipse fill="none" stroke="black" cx="397.34" cy="-126" rx="31.9" ry="18"/>
<text xml:space="preserve" text-anchor="middle" x="397.34" y="-120.95" font-family="Times New Roman,serif" font-size="14.00">string</text>
</g>
<!-- 1&#45;&gt;2 -->
<g id="edge2" class="edge">
<title>1&#45;&gt;2</title>
<path fill="none" stroke="black" d="M287.08,-126C308.68,-126 333.36,-126 353.8,-126"/>
<polygon fill="black" stroke="black" points="353.77,-129.5 363.77,-126 353.77,-122.5 353.77,-129.5"/>
</g>
<!-- 4 -->
<!-- name: &quot;bool&quot;, typeName: &quot;&quot;, id: 4, branchId: 0, recurseId: &#45;1, attributes: 512, notes: &quot;&quot; -->
<g id="node5" class="node">
<title>4</title>
<ellipse fill="none" stroke="black" cx="397.34" cy="-72" rx="27.3" ry="18"/>
<text xml:space="preserve" text-anchor="middle" x="397.34" y="-66.95" font-family="Times New Roman,serif" font-size="14.00">bool</text>
</g>
<!-- 3&#45;&gt;4 -->
<g id="edge4" class="edge">
<title>3&#45;&gt;4</title>
<path fill="none" stroke="black" d="M329.6,-72C339.72,-72 349.54,-72 358.39,-72"/>
<polygon fill="black" stroke="black" points="358.28,-75.5 368.28,-72 358.28,-68.5 358.28,-75.5"/>
</g>
<!-- 6 -->
<!-- name: &quot;&quot;, typeName: &quot;&quot;, id: 6, branchId: 0, recurseId: &#45;1, attributes: 512, notes: &quot;&quot; -->
<g id="node7" class="node">
<title>6</title>
<ellipse fill="none" stroke="black" cx="397.34" cy="-18" rx="27" ry="18"/>
</g>
<!-- 5&#45;&gt;6 -->
<g id="edge6" class="edge">
<title>5&#45;&gt;6</title>
<path fill="none" stroke="black" d="M285.3,-18C309.07,-18 336.89,-18 358.74,-18"/>
<polygon fill="black" stroke="black" points="358.69,-21.5 368.69,-18 358.69,-14.5 358.69,-21.5"/>
</g>
</g>
</svg>
