<?xml version="1.0" encoding="UTF-8" standalone="no"?>
<!DOCTYPE svg PUBLIC "-//W3C//DTD SVG 1.1//EN"
 "http://www.w3.org/Graphics/SVG/1.1/DTD/svg11.dtd">
<!-- Generated by graphviz version 13.1.2 (20250808.2320)
 -->
<!-- Title: GameRulesChangedPacket Pages: 1 -->
<svg width="1011pt" height="206pt"
 viewBox="0.00 0.00 1011.00 206.00" xmlns="http://www.w3.org/2000/svg" xmlns:xlink="http://www.w3.org/1999/xlink">
<g id="graph0" class="graph" transform="scale(1 1) rotate(0) translate(4 202)">
<title>GameRulesChangedPacket</title>
<polygon fill="white" stroke="none" points="-4,4 -4,-202 1006.99,-202 1006.99,4 -4,4"/>
<!-- 0 -->
<!-- name: &quot;GameRulesChangedPacket&quot;, typeName: &quot;&quot;, id: 0, branchId: 0, recurseId: &#45;1, attributes: 0, notes: &quot;Updates game rules.&quot; -->
<g id="node1" class="node">
<title>0</title>
<ellipse fill="none" stroke="black" cx="111.74" cy="-126" rx="111.74" ry="18"/>
<text xml:space="preserve" text-anchor="middle" x="111.74" y="-120.95" font-family="Times New Roman,serif" font-size="14.00">GameRulesChangedPacket</text>
</g>
<!-- 1 -->
<!-- name: &quot;Rule Data&quot;, typeName: &quot;&quot;, id: 1, branchId: 0, recurseId: &#45;1, attributes: 0, notes: &quot;&quot; -->
<g id="node2" class="node">
<title>1</title>
<ellipse fill="none" stroke="black" cx="307.77" cy="-126" rx="48.28" ry="18"/>
<text xml:space="preserve" text-anchor="middle" x="307.77" y="-120.95" font-family="Times New Roman,serif" font-size="14.00">Rule Data</text>
</g>
<!-- 0&#45;&gt;1 -->
<g id="edge1" class="edge">
<title>0&#45;&gt;1</title>
<path fill="none" stroke="black" d="M223.92,-126C232.13,-126 240.2,-126 247.89,-126"/>
<polygon fill="black" stroke="black" points="247.73,-129.5 257.73,-126 247.73,-122.5 247.73,-129.5"/>
</g>
<!-- 2 -->
<!-- name: &quot;Rules List&quot;, typeName: &quot;&quot;, id: 2, branchId: 0, recurseId: &#45;1, attributes: 0, notes: &quot;&quot; -->
<g id="node3" class="node">
<title>2</title>
<ellipse fill="none" stroke="black" cx="440.84" cy="-126" rx="48.79" ry="18"/>
<text xml:space="preserve" text-anchor="middle" x="440.84" y="-120.95" font-family="Times New Roman,serif" font-size="14.00">Rules List</text>
</g>
<!-- 1&#45;&gt;2 -->
<g id="edge2" class="edge">
<title>1&#45;&gt;2</title>
<path fill="none" stroke="black" d="M356.46,-126C364.32,-126 372.55,-126 380.65,-126"/>
<polygon fill="black" stroke="black" points="380.45,-129.5 390.45,-126 380.45,-122.5 380.45,-129.5"/>
</g>
<!-- 3 -->
<!-- name: &quot;List Size&quot;, typeName: &quot;&quot;, id: 3, branchId: 0, recurseId: &#45;1, attributes: 0, notes: &quot;&quot; -->
<g id="node4" class="node">
<title>3</title>
<ellipse fill="none" stroke="black" cx="600.53" cy="-166" rx="43.67" ry="18"/>
<text xml:space="preserve" text-anchor="middle" x="600.53" y="-160.95" font-family="Times New Roman,serif" font-size="14.00">List Size</text>
</g>
<!-- 2&#45;&gt;3 -->
<g id="edge3" class="edge">
<title>2&#45;&gt;3</title>
<path fill="none" stroke="black" d="M481.63,-136.09C502.94,-141.5 529.34,-148.2 551.75,-153.88"/>
<polygon fill="black" stroke="black" points="550.71,-157.23 561.26,-156.29 552.43,-150.44 550.71,-157.23"/>
</g>
<!-- 5 -->
<!-- name: &quot;example element&quot;, typeName: &quot;&quot;, id: 5, branchId: 0, recurseId: &#45;1, attributes: 16, notes: &quot;&quot; -->
<g id="node6" class="node">
<title>5</title>
<ellipse fill="none" stroke="black" stroke-dasharray="1,5" cx="600.53" cy="-99" rx="74.89" ry="18"/>
<text xml:space="preserve" text-anchor="middle" x="600.53" y="-93.95" font-family="Times New Roman,serif" font-size="14.00">example element</text>
</g>
<!-- 2&#45;&gt;5 -->
<g id="edge5" class="edge">
<title>2&#45;&gt;5</title>
<path fill="none" stroke="black" d="M485.77,-118.48C498.64,-116.28 513.07,-113.8 527.21,-111.38"/>
<polygon fill="black" stroke="black" points="527.7,-114.85 536.97,-109.71 526.52,-107.95 527.7,-114.85"/>
</g>
<!-- 4 -->
<!-- name: &quot;unsigned varint&quot;, typeName: &quot;&quot;, id: 4, branchId: 0, recurseId: &#45;1, attributes: 0, notes: &quot;&quot; -->
<g id="node5" class="node">
<title>4</title>
<ellipse fill="none" stroke="black" cx="807.3" cy="-180" rx="68.24" ry="18"/>
<text xml:space="preserve" text-anchor="middle" x="807.3" y="-174.95" font-family="Times New Roman,serif" font-size="14.00">unsigned varint</text>
</g>
<!-- 3&#45;&gt;4 -->
<g id="edge4" class="edge">
<title>3&#45;&gt;4</title>
<path fill="none" stroke="black" d="M643.96,-168.9C668.68,-170.59 700.59,-172.77 729.57,-174.75"/>
<polygon fill="black" stroke="black" points="729.21,-178.24 739.43,-175.43 729.69,-171.25 729.21,-178.24"/>
</g>
<!-- 6 -->
<!-- name: &quot;Rule Name&quot;, typeName: &quot;&quot;, id: 6, branchId: 0, recurseId: &#45;1, attributes: 0, notes: &quot;&quot; -->
<g id="node7" class="node">
<title>6</title>
<ellipse fill="none" stroke="black" cx="807.3" cy="-126" rx="53.4" ry="18"/>
<text xml:space="preserve" text-anchor="middle" x="807.3" y="-120.95" font-family="Times New Roman,serif" font-size="14.00">Rule Name</text>
</g>
<!-- 5&#45;&gt;6 -->
<g id="edge6" class="edge">
<title>5&#45;&gt;6</title>
<path fill="none" stroke="black" d="M666.88,-107.62C692.26,-110.96 721.14,-114.77 746.01,-118.05"/>
<polygon fill="black" stroke="black" points="745.26,-121.48 755.63,-119.32 746.17,-114.54 745.26,-121.48"/>
</g>
<!-- 8 -->
<!-- name: &quot;Rule Can Be Modified&quot;, typeName: &quot;&quot;, id: 8, branchId: 0, recurseId: &#45;1, attributes: 0, notes: &quot;&quot; -->
<g id="node9" class="node">
<title>8</title>
<ellipse fill="none" stroke="black" cx="807.3" cy="-72" rx="95.88" ry="18"/>
<text xml:space="preserve" text-anchor="middle" x="807.3" y="-66.95" font-family="Times New Roman,serif" font-size="14.00">Rule Can Be Modified</text>
</g>
<!-- 5&#45;&gt;8 -->
<g id="edge8" class="edge">
<title>5&#45;&gt;8</title>
<path fill="none" stroke="black" d="M666.88,-90.38C682.58,-88.31 699.61,-86.07 716.2,-83.88"/>
<polygon fill="black" stroke="black" points="716.65,-87.35 726.1,-82.57 715.73,-80.41 716.65,-87.35"/>
</g>
<!-- 10 -->
<!-- name: &quot;Rule Value&quot;, typeName: &quot;&quot;, id: 10, branchId: 0, recurseId: &#45;1, attributes: 0, notes: &quot;&quot; -->
<g id="node11" class="node">
<title>10</title>
<ellipse fill="none" stroke="black" cx="807.3" cy="-18" rx="51.35" ry="18"/>
<text xml:space="preserve" text-anchor="middle" x="807.3" y="-12.95" font-family="Times New Roman,serif" font-size="14.00">Rule Value</text>
</g>
<!-- 5&#45;&gt;10 -->
<g id="edge10" class="edge">
<title>5&#45;&gt;10</title>
<path fill="none" stroke="black" d="M631.66,-82.36C653.38,-70.83 683.65,-55.68 711.42,-45 724.8,-39.86 739.56,-35.2 753.37,-31.25"/>
<polygon fill="black" stroke="black" points="754.05,-34.69 762.75,-28.64 752.18,-27.95 754.05,-34.69"/>
</g>
<!-- 7 -->
<!-- name: &quot;string&quot;, typeName: &quot;&quot;, id: 7, branchId: 0, recurseId: &#45;1, attributes: 512, notes: &quot;&quot; -->
<g id="node8" class="node">
<title>7</title>
<ellipse fill="none" stroke="black" cx="971.08" cy="-126" rx="31.9" ry="18"/>
<text xml:space="preserve" text-anchor="middle" x="971.08" y="-120.95" font-family="Times New Roman,serif" font-size="14.00">string</text>
</g>
<!-- 6&#45;&gt;7 -->
<g id="edge7" class="edge">
<title>6&#45;&gt;7</title>
<path fill="none" stroke="black" d="M860.83,-126C882.42,-126 907.11,-126 927.54,-126"/>
<polygon fill="black" stroke="black" points="927.52,-129.5 937.52,-126 927.52,-122.5 927.52,-129.5"/>
</g>
<!-- 9 -->
<!-- name: &quot;bool&quot;, typeName: &quot;&quot;, id: 9, branchId: 0, recurseId: &#45;1, attributes: 512, notes: &quot;&quot; -->
<g id="node10" class="node">
<title>9</title>
<ellipse fill="none" stroke="black" cx="971.08" cy="-72" rx="27.3" ry="18"/>
<text xml:space="preserve" text-anchor="middle" x="971.08" y="-66.95" font-family="Times New Roman,serif" font-size="14.00">bool</text>
</g>
<!-- 8&#45;&gt;9 -->
<g id="edge9" class="edge">
<title>8&#45;&gt;9</title>
<path fill="none" stroke="black" d="M903.35,-72C913.47,-72 923.28,-72 932.13,-72"/>
<polygon fill="black" stroke="black" points="932.02,-75.5 942.02,-72 932.02,-68.5 932.02,-75.5"/>
</g>
<!-- 11 -->
<!-- name: &quot;&quot;, typeName: &quot;&quot;, id: 11, branchId: 0, recurseId: &#45;1, attributes: 512, notes: &quot;&quot; -->
<g id="node12" class="node">
<title>11</title>
<ellipse fill="none" stroke="black" cx="971.08" cy="-18" rx="27" ry="18"/>
</g>
<!-- 10&#45;&gt;11 -->
<g id="edge11" class="edge">
<title>10&#45;&gt;11</title>
<path fill="none" stroke="black" d="M859.05,-18C882.82,-18 910.64,-18 932.49,-18"/>
<polygon fill="black" stroke="black" points="932.43,-21.5 942.43,-18 932.43,-14.5 932.43,-21.5"/>
</g>
</g>
</svg>
