<?xml version="1.0" encoding="UTF-8" standalone="no"?>
<!DOCTYPE svg PUBLIC "-//W3C//DTD SVG 1.1//EN"
 "http://www.w3.org/Graphics/SVG/1.1/DTD/svg11.dtd">
<!-- Generated by graphviz version 2.46.1 (20210213.1702)
 -->
<!-- Title: GameTestResultsPacket Pages: 1 -->
<svg width="441pt" height="152pt"
 viewBox="0.00 0.00 441.37 152.00" xmlns="http://www.w3.org/2000/svg" xmlns:xlink="http://www.w3.org/1999/xlink">
<g id="graph0" class="graph" transform="scale(1 1) rotate(0) translate(4 148)">
<title>GameTestResultsPacket</title>
<polygon fill="white" stroke="transparent" points="-4,4 -4,-148 437.37,-148 437.37,4 -4,4"/>
<!-- 0 -->
<!-- name: &quot;GameTestResultsPacket&quot;, typeName: &quot;&quot;, id: 0, branchId: 195, recurseId: &#45;1, attributes: 0, notes: &quot;&quot; -->
<g id="node1" class="node">
<title>0</title>
<ellipse fill="none" stroke="black" cx="99.44" cy="-72" rx="99.38" ry="18"/>
<text text-anchor="middle" x="99.44" y="-68.3" font-family="Times New Roman,serif" font-size="14.00">GameTestResultsPacket</text>
</g>
<!-- 1 -->
<!-- name: &quot;Succeeded&quot;, typeName: &quot;&quot;, id: 1, branchId: 0, recurseId: &#45;1, attributes: 0, notes: &quot;&quot; -->
<g id="node2" class="node">
<title>1</title>
<ellipse fill="none" stroke="black" cx="285.58" cy="-126" rx="50.89" ry="18"/>
<text text-anchor="middle" x="285.58" y="-122.3" font-family="Times New Roman,serif" font-size="14.00">Succeeded</text>
</g>
<!-- 0&#45;&gt;1 -->
<g id="edge1" class="edge">
<title>0&#45;&gt;1</title>
<path fill="none" stroke="black" d="M152.71,-87.33C178.9,-95.01 210.41,-104.25 236.06,-111.77"/>
<polygon fill="black" stroke="black" points="235.36,-115.21 245.94,-114.67 237.33,-108.5 235.36,-115.21"/>
</g>
<!-- 3 -->
<!-- name: &quot;Error&quot;, typeName: &quot;&quot;, id: 3, branchId: 0, recurseId: &#45;1, attributes: 0, notes: &quot;&quot; -->
<g id="node4" class="node">
<title>3</title>
<ellipse fill="none" stroke="black" cx="285.58" cy="-72" rx="29.8" ry="18"/>
<text text-anchor="middle" x="285.58" y="-68.3" font-family="Times New Roman,serif" font-size="14.00">Error</text>
</g>
<!-- 0&#45;&gt;3 -->
<g id="edge3" class="edge">
<title>0&#45;&gt;3</title>
<path fill="none" stroke="black" d="M198.98,-72C215.47,-72 231.68,-72 245.48,-72"/>
<polygon fill="black" stroke="black" points="245.53,-75.5 255.53,-72 245.53,-68.5 245.53,-75.5"/>
</g>
<!-- 5 -->
<!-- name: &quot;TestName&quot;, typeName: &quot;&quot;, id: 5, branchId: 0, recurseId: &#45;1, attributes: 0, notes: &quot;&quot; -->
<g id="node6" class="node">
<title>5</title>
<ellipse fill="none" stroke="black" cx="285.58" cy="-18" rx="48.19" ry="18"/>
<text text-anchor="middle" x="285.58" y="-14.3" font-family="Times New Roman,serif" font-size="14.00">TestName</text>
</g>
<!-- 0&#45;&gt;5 -->
<g id="edge5" class="edge">
<title>0&#45;&gt;5</title>
<path fill="none" stroke="black" d="M152.71,-56.67C179.28,-48.88 211.32,-39.48 237.16,-31.91"/>
<polygon fill="black" stroke="black" points="238.49,-35.16 247.1,-28.99 236.52,-28.45 238.49,-35.16"/>
</g>
<!-- 2 -->
<!-- name: &quot;bool&quot;, typeName: &quot;&quot;, id: 2, branchId: 0, recurseId: &#45;1, attributes: 512, notes: &quot;&quot; -->
<g id="node3" class="node">
<title>2</title>
<ellipse fill="none" stroke="black" cx="402.82" cy="-126" rx="27.1" ry="18"/>
<text text-anchor="middle" x="402.82" y="-122.3" font-family="Times New Roman,serif" font-size="14.00">bool</text>
</g>
<!-- 1&#45;&gt;2 -->
<g id="edge2" class="edge">
<title>1&#45;&gt;2</title>
<path fill="none" stroke="black" d="M336.45,-126C346.07,-126 355.99,-126 365.09,-126"/>
<polygon fill="black" stroke="black" points="365.35,-129.5 375.35,-126 365.35,-122.5 365.35,-129.5"/>
</g>
<!-- 4 -->
<!-- name: &quot;string&quot;, typeName: &quot;&quot;, id: 4, branchId: 0, recurseId: &#45;1, attributes: 512, notes: &quot;&quot; -->
<g id="node5" class="node">
<title>4</title>
<ellipse fill="none" stroke="black" cx="402.82" cy="-72" rx="30.59" ry="18"/>
<text text-anchor="middle" x="402.82" y="-68.3" font-family="Times New Roman,serif" font-size="14.00">string</text>
</g>
<!-- 3&#45;&gt;4 -->
<g id="edge4" class="edge">
<title>3&#45;&gt;4</title>
<path fill="none" stroke="black" d="M315.66,-72C329.64,-72 346.61,-72 361.79,-72"/>
<polygon fill="black" stroke="black" points="361.95,-75.5 371.95,-72 361.95,-68.5 361.95,-75.5"/>
</g>
<!-- 6 -->
<!-- name: &quot;string&quot;, typeName: &quot;&quot;, id: 6, branchId: 0, recurseId: &#45;1, attributes: 512, notes: &quot;&quot; -->
<g id="node7" class="node">
<title>6</title>
<ellipse fill="none" stroke="black" cx="402.82" cy="-18" rx="30.59" ry="18"/>
<text text-anchor="middle" x="402.82" y="-14.3" font-family="Times New Roman,serif" font-size="14.00">string</text>
</g>
<!-- 5&#45;&gt;6 -->
<g id="edge6" class="edge">
<title>5&#45;&gt;6</title>
<path fill="none" stroke="black" d="M333.78,-18C343.08,-18 352.74,-18 361.77,-18"/>
<polygon fill="black" stroke="black" points="362.02,-21.5 372.02,-18 362.02,-14.5 362.02,-21.5"/>
</g>
</g>
</svg>
