<?xml version="1.0" encoding="UTF-8" standalone="no"?>
<!DOCTYPE svg PUBLIC "-//W3C//DTD SVG 1.1//EN"
 "http://www.w3.org/Graphics/SVG/1.1/DTD/svg11.dtd">
<!-- Generated by graphviz version 12.2.0 (20241103.1931)
 -->
<!-- Title: GameRulesChangedPacket Pages: 1 -->
<svg width="666pt" height="44pt"
 viewBox="0.00 0.00 665.51 44.00" xmlns="http://www.w3.org/2000/svg" xmlns:xlink="http://www.w3.org/1999/xlink">
<g id="graph0" class="graph" transform="scale(1 1) rotate(0) translate(4 40)">
<title>GameRulesChangedPacket</title>
<polygon fill="white" stroke="none" points="-4,4 -4,-40 661.51,-40 661.51,4 -4,4"/>
<!-- 0 -->
<!-- name: &quot;GameRulesChangedPacket&quot;, typeName: &quot;&quot;, id: 0, branchId: 72, recurseId: &#45;1, attributes: 0, notes: &quot;&quot; -->
<g id="node1" class="node">
<title>0</title>
<ellipse fill="none" stroke="black" cx="111.74" cy="-18" rx="111.74" ry="18"/>
<text text-anchor="middle" x="111.74" y="-12.95" font-family="Times New Roman,serif" font-size="14.00">GameRulesChangedPacket</text>
</g>
<!-- 1 -->
<!-- name: &quot;Rules Data&quot;, typeName: &quot;GameRulesChangedPacketData&quot;, id: 1, branchId: 0, recurseId: &#45;1, attributes: 256, notes: &quot;&quot; -->
<g id="node2" class="node">
<title>1</title>
<ellipse fill="none" stroke="black" cx="311.35" cy="-18" rx="51.86" ry="18"/>
<text text-anchor="middle" x="311.35" y="-12.95" font-family="Times New Roman,serif" font-size="14.00">Rules Data</text>
</g>
<!-- 0&#45;&gt;1 -->
<g id="edge1" class="edge">
<title>0&#45;&gt;1</title>
<path fill="none" stroke="black" d="M223.97,-18C232.13,-18 240.17,-18 247.87,-18"/>
<polygon fill="black" stroke="black" points="247.76,-21.5 257.76,-18 247.76,-14.5 247.76,-21.5"/>
</g>
<!-- 2 -->
<!-- name: &quot;GameRulesChangedPacketData&quot;, typeName: &quot;&quot;, id: 2, branchId: 0, recurseId: &#45;1, attributes: 512, notes: &quot;&quot; -->
<g id="node3" class="node">
<title>2</title>
<ellipse fill="none" stroke="black" cx="528.36" cy="-18" rx="129.15" ry="18"/>
<text text-anchor="middle" x="528.36" y="-12.95" font-family="Times New Roman,serif" font-size="14.00">GameRulesChangedPacketData</text>
</g>
<!-- 1&#45;&gt;2 -->
<g id="edge2" class="edge">
<title>1&#45;&gt;2</title>
<path fill="none" stroke="black" d="M363.58,-18C371.09,-18 379.12,-18 387.43,-18"/>
<polygon fill="black" stroke="black" points="387.41,-21.5 397.41,-18 387.41,-14.5 387.41,-21.5"/>
</g>
</g>
</svg>
