<?xml version="1.0" encoding="UTF-8" standalone="no"?>
<!DOCTYPE svg PUBLIC "-//W3C//DTD SVG 1.1//EN"
 "http://www.w3.org/Graphics/SVG/1.1/DTD/svg11.dtd">
<!-- Generated by graphviz version 10.0.1 (20240210.2158)
 -->
<!-- Title: GameTestResultsPacket Pages: 1 -->
<svg width="448pt" height="152pt"
 viewBox="0.00 0.00 448.26 152.00" xmlns="http://www.w3.org/2000/svg" xmlns:xlink="http://www.w3.org/1999/xlink">
<g id="graph0" class="graph" transform="scale(1 1) rotate(0) translate(4 148)">
<title>GameTestResultsPacket</title>
<polygon fill="white" stroke="none" points="-4,4 -4,-148 444.26,-148 444.26,4 -4,4"/>
<!-- 0 -->
<!-- name: &quot;GameTestResultsPacket&quot;, typeName: &quot;&quot;, id: 0, branchId: 195, recurseId: &#45;1, attributes: 0, notes: &quot;&quot; -->
<g id="node1" class="node">
<title>0</title>
<ellipse fill="none" stroke="black" cx="101.46" cy="-72" rx="101.46" ry="18"/>
<text text-anchor="middle" x="101.46" y="-66.58" font-family="Times New Roman,serif" font-size="14.00">GameTestResultsPacket</text>
</g>
<!-- 1 -->
<!-- name: &quot;Succeeded&quot;, typeName: &quot;&quot;, id: 1, branchId: 0, recurseId: &#45;1, attributes: 0, notes: &quot;&quot; -->
<g id="node2" class="node">
<title>1</title>
<ellipse fill="none" stroke="black" cx="290.49" cy="-126" rx="51.56" ry="18"/>
<text text-anchor="middle" x="290.49" y="-120.58" font-family="Times New Roman,serif" font-size="14.00">Succeeded</text>
</g>
<!-- 0&#45;&gt;1 -->
<g id="edge1" class="edge">
<title>0&#45;&gt;1</title>
<path fill="none" stroke="black" d="M156.31,-87.55C182.35,-95.06 213.42,-104.04 239,-111.42"/>
<polygon fill="black" stroke="black" points="237.93,-114.76 248.51,-114.17 239.87,-108.03 237.93,-114.76"/>
</g>
<!-- 3 -->
<!-- name: &quot;Error&quot;, typeName: &quot;&quot;, id: 3, branchId: 0, recurseId: &#45;1, attributes: 0, notes: &quot;&quot; -->
<g id="node4" class="node">
<title>3</title>
<ellipse fill="none" stroke="black" cx="290.49" cy="-72" rx="30.11" ry="18"/>
<text text-anchor="middle" x="290.49" y="-66.58" font-family="Times New Roman,serif" font-size="14.00">Error</text>
</g>
<!-- 0&#45;&gt;3 -->
<g id="edge3" class="edge">
<title>0&#45;&gt;3</title>
<path fill="none" stroke="black" d="M203.37,-72C219.38,-72 235.1,-72 248.64,-72"/>
<polygon fill="black" stroke="black" points="248.41,-75.5 258.41,-72 248.41,-68.5 248.41,-75.5"/>
</g>
<!-- 5 -->
<!-- name: &quot;TestName&quot;, typeName: &quot;&quot;, id: 5, branchId: 0, recurseId: &#45;1, attributes: 0, notes: &quot;&quot; -->
<g id="node6" class="node">
<title>5</title>
<ellipse fill="none" stroke="black" cx="290.49" cy="-18" rx="48.57" ry="18"/>
<text text-anchor="middle" x="290.49" y="-12.57" font-family="Times New Roman,serif" font-size="14.00">TestName</text>
</g>
<!-- 0&#45;&gt;5 -->
<g id="edge5" class="edge">
<title>0&#45;&gt;5</title>
<path fill="none" stroke="black" d="M156.31,-56.45C182.82,-48.8 214.54,-39.64 240.38,-32.18"/>
<polygon fill="black" stroke="black" points="241.34,-35.55 249.98,-29.41 239.4,-28.82 241.34,-35.55"/>
</g>
<!-- 2 -->
<!-- name: &quot;bool&quot;, typeName: &quot;&quot;, id: 2, branchId: 0, recurseId: &#45;1, attributes: 512, notes: &quot;&quot; -->
<g id="node3" class="node">
<title>2</title>
<ellipse fill="none" stroke="black" cx="409.15" cy="-126" rx="27.61" ry="18"/>
<text text-anchor="middle" x="409.15" y="-120.58" font-family="Times New Roman,serif" font-size="14.00">bool</text>
</g>
<!-- 1&#45;&gt;2 -->
<g id="edge2" class="edge">
<title>1&#45;&gt;2</title>
<path fill="none" stroke="black" d="M342.32,-126C351.52,-126 360.98,-126 369.75,-126"/>
<polygon fill="black" stroke="black" points="369.69,-129.5 379.69,-126 369.69,-122.5 369.69,-129.5"/>
</g>
<!-- 4 -->
<!-- name: &quot;string&quot;, typeName: &quot;&quot;, id: 4, branchId: 0, recurseId: &#45;1, attributes: 512, notes: &quot;&quot; -->
<g id="node5" class="node">
<title>4</title>
<ellipse fill="none" stroke="black" cx="409.15" cy="-72" rx="31.1" ry="18"/>
<text text-anchor="middle" x="409.15" y="-66.58" font-family="Times New Roman,serif" font-size="14.00">string</text>
</g>
<!-- 3&#45;&gt;4 -->
<g id="edge4" class="edge">
<title>3&#45;&gt;4</title>
<path fill="none" stroke="black" d="M320.93,-72C334.81,-72 351.6,-72 366.74,-72"/>
<polygon fill="black" stroke="black" points="366.4,-75.5 376.4,-72 366.4,-68.5 366.4,-75.5"/>
</g>
<!-- 6 -->
<!-- name: &quot;string&quot;, typeName: &quot;&quot;, id: 6, branchId: 0, recurseId: &#45;1, attributes: 512, notes: &quot;&quot; -->
<g id="node7" class="node">
<title>6</title>
<ellipse fill="none" stroke="black" cx="409.15" cy="-18" rx="31.1" ry="18"/>
<text text-anchor="middle" x="409.15" y="-12.57" font-family="Times New Roman,serif" font-size="14.00">string</text>
</g>
<!-- 5&#45;&gt;6 -->
<g id="edge6" class="edge">
<title>5&#45;&gt;6</title>
<path fill="none" stroke="black" d="M339.28,-18C348.19,-18 357.44,-18 366.16,-18"/>
<polygon fill="black" stroke="black" points="366.13,-21.5 376.13,-18 366.13,-14.5 366.13,-21.5"/>
</g>
</g>
</svg>
