<?xml version="1.0" encoding="UTF-8" standalone="no"?>
<!DOCTYPE svg PUBLIC "-//W3C//DTD SVG 1.1//EN"
 "http://www.w3.org/Graphics/SVG/1.1/DTD/svg11.dtd">
<!-- Generated by graphviz version 12.2.1 (20241206.2353)
 -->
<!-- Title: GuiDataPickItemPacket Pages: 1 -->
<svg width="502pt" height="152pt"
 viewBox="0.00 0.00 501.73 152.00" xmlns="http://www.w3.org/2000/svg" xmlns:xlink="http://www.w3.org/1999/xlink">
<g id="graph0" class="graph" transform="scale(1 1) rotate(0) translate(4 148)">
<title>GuiDataPickItemPacket</title>
<polygon fill="white" stroke="none" points="-4,4 -4,-148 497.73,-148 497.73,4 -4,4"/>
<!-- 0 -->
<!-- name: &quot;GuiDataPickItemPacket&quot;, typeName: &quot;&quot;, id: 0, branchId: 54, recurseId: &#45;1, attributes: 0, notes: &quot;&quot; -->
<g id="node1" class="node">
<title>0</title>
<ellipse fill="none" stroke="black" cx="100.48" cy="-72" rx="100.48" ry="18"/>
<text text-anchor="middle" x="100.48" y="-66.95" font-family="Times New Roman,serif" font-size="14.00">GuiDataPickItemPacket</text>
</g>
<!-- 1 -->
<!-- name: &quot;Item Name&quot;, typeName: &quot;&quot;, id: 1, branchId: 0, recurseId: &#45;1, attributes: 0, notes: &quot;&quot; -->
<g id="node2" class="node">
<title>1</title>
<ellipse fill="none" stroke="black" cx="315.45" cy="-126" rx="53.4" ry="18"/>
<text text-anchor="middle" x="315.45" y="-120.95" font-family="Times New Roman,serif" font-size="14.00">Item Name</text>
</g>
<!-- 0&#45;&gt;1 -->
<g id="edge1" class="edge">
<title>0&#45;&gt;1</title>
<path fill="none" stroke="black" d="M160.24,-86.9C191.71,-94.88 230.19,-104.64 260.84,-112.41"/>
<polygon fill="black" stroke="black" points="259.73,-115.74 270.29,-114.8 261.45,-108.95 259.73,-115.74"/>
</g>
<!-- 3 -->
<!-- name: &quot;Item Effect Name&quot;, typeName: &quot;&quot;, id: 3, branchId: 0, recurseId: &#45;1, attributes: 0, notes: &quot;&quot; -->
<g id="node4" class="node">
<title>3</title>
<ellipse fill="none" stroke="black" cx="315.45" cy="-72" rx="78.48" ry="18"/>
<text text-anchor="middle" x="315.45" y="-66.95" font-family="Times New Roman,serif" font-size="14.00">Item Effect Name</text>
</g>
<!-- 0&#45;&gt;3 -->
<g id="edge3" class="edge">
<title>0&#45;&gt;3</title>
<path fill="none" stroke="black" d="M201.42,-72C209.33,-72 217.3,-72 225.13,-72"/>
<polygon fill="black" stroke="black" points="224.99,-75.5 234.99,-72 224.99,-68.5 224.99,-75.5"/>
</g>
<!-- 5 -->
<!-- name: &quot;Slot&quot;, typeName: &quot;&quot;, id: 5, branchId: 0, recurseId: &#45;1, attributes: 0, notes: &quot;&quot; -->
<g id="node6" class="node">
<title>5</title>
<ellipse fill="none" stroke="black" cx="315.45" cy="-18" rx="27" ry="18"/>
<text text-anchor="middle" x="315.45" y="-12.95" font-family="Times New Roman,serif" font-size="14.00">Slot</text>
</g>
<!-- 0&#45;&gt;5 -->
<g id="edge5" class="edge">
<title>0&#45;&gt;5</title>
<path fill="none" stroke="black" d="M160.24,-57.1C198.18,-47.48 246.31,-35.28 278.62,-27.08"/>
<polygon fill="black" stroke="black" points="279.46,-30.48 288.3,-24.63 277.74,-23.7 279.46,-30.48"/>
</g>
<!-- 2 -->
<!-- name: &quot;string&quot;, typeName: &quot;&quot;, id: 2, branchId: 0, recurseId: &#45;1, attributes: 512, notes: &quot;&quot; -->
<g id="node3" class="node">
<title>2</title>
<ellipse fill="none" stroke="black" cx="461.83" cy="-126" rx="31.9" ry="18"/>
<text text-anchor="middle" x="461.83" y="-120.95" font-family="Times New Roman,serif" font-size="14.00">string</text>
</g>
<!-- 1&#45;&gt;2 -->
<g id="edge2" class="edge">
<title>1&#45;&gt;2</title>
<path fill="none" stroke="black" d="M368.98,-126C385.17,-126 402.79,-126 418.23,-126"/>
<polygon fill="black" stroke="black" points="418.03,-129.5 428.03,-126 418.03,-122.5 418.03,-129.5"/>
</g>
<!-- 4 -->
<!-- name: &quot;string&quot;, typeName: &quot;&quot;, id: 4, branchId: 0, recurseId: &#45;1, attributes: 512, notes: &quot;&quot; -->
<g id="node5" class="node">
<title>4</title>
<ellipse fill="none" stroke="black" cx="461.83" cy="-72" rx="31.9" ry="18"/>
<text text-anchor="middle" x="461.83" y="-66.95" font-family="Times New Roman,serif" font-size="14.00">string</text>
</g>
<!-- 3&#45;&gt;4 -->
<g id="edge4" class="edge">
<title>3&#45;&gt;4</title>
<path fill="none" stroke="black" d="M394.13,-72C402.37,-72 410.5,-72 418.12,-72"/>
<polygon fill="black" stroke="black" points="418.07,-75.5 428.07,-72 418.07,-68.5 418.07,-75.5"/>
</g>
<!-- 6 -->
<!-- name: &quot;int&quot;, typeName: &quot;&quot;, id: 6, branchId: 0, recurseId: &#45;1, attributes: 512, notes: &quot;&quot; -->
<g id="node7" class="node">
<title>6</title>
<ellipse fill="none" stroke="black" cx="461.83" cy="-18" rx="27" ry="18"/>
<text text-anchor="middle" x="461.83" y="-12.95" font-family="Times New Roman,serif" font-size="14.00">int</text>
</g>
<!-- 5&#45;&gt;6 -->
<g id="edge6" class="edge">
<title>5&#45;&gt;6</title>
<path fill="none" stroke="black" d="M342.93,-18C365.42,-18 397.96,-18 423.16,-18"/>
<polygon fill="black" stroke="black" points="423,-21.5 433,-18 423,-14.5 423,-21.5"/>
</g>
</g>
</svg>
