<?xml version="1.0" encoding="UTF-8" standalone="no"?>
<!DOCTYPE svg PUBLIC "-//W3C//DTD SVG 1.1//EN"
 "http://www.w3.org/Graphics/SVG/1.1/DTD/svg11.dtd">
<!-- Generated by graphviz version 12.2.1 (20241206.2353)
 -->
<!-- Title: HurtArmorPacket Pages: 1 -->
<svg width="504pt" height="152pt"
 viewBox="0.00 0.00 503.78 152.00" xmlns="http://www.w3.org/2000/svg" xmlns:xlink="http://www.w3.org/1999/xlink">
<g id="graph0" class="graph" transform="scale(1 1) rotate(0) translate(4 148)">
<title>HurtArmorPacket</title>
<polygon fill="white" stroke="none" points="-4,4 -4,-148 499.78,-148 499.78,4 -4,4"/>
<!-- 0 -->
<!-- name: &quot;HurtArmorPacket&quot;, typeName: &quot;&quot;, id: 0, branchId: 38, recurseId: &#45;1, attributes: 0, notes: &quot;&quot; -->
<g id="node1" class="node">
<title>0</title>
<ellipse fill="none" stroke="black" cx="77.45" cy="-72" rx="77.45" ry="18"/>
<text text-anchor="middle" x="77.45" y="-66.95" font-family="Times New Roman,serif" font-size="14.00">HurtArmorPacket</text>
</g>
<!-- 1 -->
<!-- name: &quot;Cause&quot;, typeName: &quot;&quot;, id: 1, branchId: 0, recurseId: &#45;1, attributes: 0, notes: &quot;&quot; -->
<g id="node2" class="node">
<title>1</title>
<ellipse fill="none" stroke="black" cx="247.89" cy="-126" rx="33.44" ry="18"/>
<text text-anchor="middle" x="247.89" y="-120.95" font-family="Times New Roman,serif" font-size="14.00">Cause</text>
</g>
<!-- 0&#45;&gt;1 -->
<g id="edge1" class="edge">
<title>0&#45;&gt;1</title>
<path fill="none" stroke="black" d="M124.03,-86.61C150.14,-94.98 182.57,-105.38 207.56,-113.39"/>
<polygon fill="black" stroke="black" points="206.43,-116.7 217.02,-116.42 208.57,-110.04 206.43,-116.7"/>
</g>
<!-- 3 -->
<!-- name: &quot;Damage&quot;, typeName: &quot;&quot;, id: 3, branchId: 0, recurseId: &#45;1, attributes: 0, notes: &quot;&quot; -->
<g id="node4" class="node">
<title>3</title>
<ellipse fill="none" stroke="black" cx="247.89" cy="-72" rx="42.14" ry="18"/>
<text text-anchor="middle" x="247.89" y="-66.95" font-family="Times New Roman,serif" font-size="14.00">Damage</text>
</g>
<!-- 0&#45;&gt;3 -->
<g id="edge3" class="edge">
<title>0&#45;&gt;3</title>
<path fill="none" stroke="black" d="M155.28,-72C168.43,-72 181.82,-72 194.16,-72"/>
<polygon fill="black" stroke="black" points="194.11,-75.5 204.11,-72 194.11,-68.5 194.11,-75.5"/>
</g>
<!-- 5 -->
<!-- name: &quot;Armor Slots&quot;, typeName: &quot;&quot;, id: 5, branchId: 0, recurseId: &#45;1, attributes: 0, notes: &quot;Bitset&quot; -->
<g id="node6" class="node">
<title>5</title>
<ellipse fill="none" stroke="black" cx="247.89" cy="-18" rx="56.98" ry="18"/>
<text text-anchor="middle" x="247.89" y="-12.95" font-family="Times New Roman,serif" font-size="14.00">Armor Slots</text>
</g>
<!-- 0&#45;&gt;5 -->
<g id="edge5" class="edge">
<title>0&#45;&gt;5</title>
<path fill="none" stroke="black" d="M124.03,-57.39C146.22,-50.27 172.98,-41.7 195.85,-34.36"/>
<polygon fill="black" stroke="black" points="196.83,-37.72 205.28,-31.34 194.69,-31.06 196.83,-37.72"/>
</g>
<!-- 2 -->
<!-- name: &quot;varint&quot;, typeName: &quot;&quot;, id: 2, branchId: 0, recurseId: &#45;1, attributes: 512, notes: &quot;&quot; -->
<g id="node3" class="node">
<title>2</title>
<ellipse fill="none" stroke="black" cx="418.32" cy="-126" rx="32.41" ry="18"/>
<text text-anchor="middle" x="418.32" y="-120.95" font-family="Times New Roman,serif" font-size="14.00">varint</text>
</g>
<!-- 1&#45;&gt;2 -->
<g id="edge2" class="edge">
<title>1&#45;&gt;2</title>
<path fill="none" stroke="black" d="M281.76,-126C308.19,-126 345.51,-126 374.31,-126"/>
<polygon fill="black" stroke="black" points="374.16,-129.5 384.16,-126 374.16,-122.5 374.16,-129.5"/>
</g>
<!-- 4 -->
<!-- name: &quot;varint&quot;, typeName: &quot;&quot;, id: 4, branchId: 0, recurseId: &#45;1, attributes: 512, notes: &quot;&quot; -->
<g id="node5" class="node">
<title>4</title>
<ellipse fill="none" stroke="black" cx="418.32" cy="-72" rx="32.41" ry="18"/>
<text text-anchor="middle" x="418.32" y="-66.95" font-family="Times New Roman,serif" font-size="14.00">varint</text>
</g>
<!-- 3&#45;&gt;4 -->
<g id="edge4" class="edge">
<title>3&#45;&gt;4</title>
<path fill="none" stroke="black" d="M290.52,-72C316.04,-72 348.63,-72 374.38,-72"/>
<polygon fill="black" stroke="black" points="374.16,-75.5 384.16,-72 374.16,-68.5 374.16,-75.5"/>
</g>
<!-- 6 -->
<!-- name: &quot;unsigned varint64&quot;, typeName: &quot;&quot;, id: 6, branchId: 0, recurseId: &#45;1, attributes: 512, notes: &quot;&quot; -->
<g id="node7" class="node">
<title>6</title>
<ellipse fill="none" stroke="black" cx="418.32" cy="-18" rx="77.45" ry="18"/>
<text text-anchor="middle" x="418.32" y="-12.95" font-family="Times New Roman,serif" font-size="14.00">unsigned varint64</text>
</g>
<!-- 5&#45;&gt;6 -->
<g id="edge6" class="edge">
<title>5&#45;&gt;6</title>
<path fill="none" stroke="black" d="M304.97,-18C312.8,-18 321,-18 329.25,-18"/>
<polygon fill="black" stroke="black" points="328.98,-21.5 338.98,-18 328.98,-14.5 328.98,-21.5"/>
</g>
</g>
</svg>
