<?xml version="1.0" encoding="UTF-8" standalone="no"?>
<!DOCTYPE svg PUBLIC "-//W3C//DTD SVG 1.1//EN"
 "http://www.w3.org/Graphics/SVG/1.1/DTD/svg11.dtd">
<!-- Generated by graphviz version 2.46.1 (20210213.1702)
 -->
<!-- Title: HurtArmorPacket Pages: 1 -->
<svg width="491pt" height="152pt"
 viewBox="0.00 0.00 490.76 152.00" xmlns="http://www.w3.org/2000/svg" xmlns:xlink="http://www.w3.org/1999/xlink">
<g id="graph0" class="graph" transform="scale(1 1) rotate(0) translate(4 148)">
<title>HurtArmorPacket</title>
<polygon fill="white" stroke="transparent" points="-4,4 -4,-148 486.76,-148 486.76,4 -4,4"/>
<!-- 0 -->
<!-- name: &quot;HurtArmorPacket&quot;, typeName: &quot;&quot;, id: 0, branchId: 38, recurseId: &#45;1, attributes: 0, notes: &quot;&quot; -->
<g id="node1" class="node">
<title>0</title>
<ellipse fill="none" stroke="black" cx="75.39" cy="-72" rx="75.29" ry="18"/>
<text text-anchor="middle" x="75.39" y="-68.3" font-family="Times New Roman,serif" font-size="14.00">HurtArmorPacket</text>
</g>
<!-- 1 -->
<!-- name: &quot;Cause&quot;, typeName: &quot;&quot;, id: 1, branchId: 0, recurseId: &#45;1, attributes: 0, notes: &quot;&quot; -->
<g id="node2" class="node">
<title>1</title>
<ellipse fill="none" stroke="black" cx="242.68" cy="-126" rx="33.29" ry="18"/>
<text text-anchor="middle" x="242.68" y="-122.3" font-family="Times New Roman,serif" font-size="14.00">Cause</text>
</g>
<!-- 0&#45;&gt;1 -->
<g id="edge1" class="edge">
<title>0&#45;&gt;1</title>
<path fill="none" stroke="black" d="M120.69,-86.47C146.74,-94.98 179.33,-105.63 204.12,-113.73"/>
<polygon fill="black" stroke="black" points="203.29,-117.14 213.89,-116.92 205.47,-110.49 203.29,-117.14"/>
</g>
<!-- 3 -->
<!-- name: &quot;Damage&quot;, typeName: &quot;&quot;, id: 3, branchId: 0, recurseId: &#45;1, attributes: 0, notes: &quot;&quot; -->
<g id="node4" class="node">
<title>3</title>
<ellipse fill="none" stroke="black" cx="242.68" cy="-72" rx="40.09" ry="18"/>
<text text-anchor="middle" x="242.68" y="-68.3" font-family="Times New Roman,serif" font-size="14.00">Damage</text>
</g>
<!-- 0&#45;&gt;3 -->
<g id="edge3" class="edge">
<title>0&#45;&gt;3</title>
<path fill="none" stroke="black" d="M150.82,-72C164.75,-72 178.99,-72 191.94,-72"/>
<polygon fill="black" stroke="black" points="192.02,-75.5 202.02,-72 192.02,-68.5 192.02,-75.5"/>
</g>
<!-- 5 -->
<!-- name: &quot;Armor Slots&quot;, typeName: &quot;&quot;, id: 5, branchId: 0, recurseId: &#45;1, attributes: 0, notes: &quot;Bitset&quot; -->
<g id="node6" class="node">
<title>5</title>
<ellipse fill="none" stroke="black" cx="242.68" cy="-18" rx="55.79" ry="18"/>
<text text-anchor="middle" x="242.68" y="-14.3" font-family="Times New Roman,serif" font-size="14.00">Armor Slots</text>
</g>
<!-- 0&#45;&gt;5 -->
<g id="edge5" class="edge">
<title>0&#45;&gt;5</title>
<path fill="none" stroke="black" d="M120.69,-57.53C143.11,-50.2 170.38,-41.3 193.34,-33.79"/>
<polygon fill="black" stroke="black" points="194.48,-37.1 202.9,-30.67 192.3,-30.45 194.48,-37.1"/>
</g>
<!-- 2 -->
<!-- name: &quot;varint&quot;, typeName: &quot;&quot;, id: 2, branchId: 0, recurseId: &#45;1, attributes: 512, notes: &quot;&quot; -->
<g id="node3" class="node">
<title>2</title>
<ellipse fill="none" stroke="black" cx="408.67" cy="-126" rx="30.59" ry="18"/>
<text text-anchor="middle" x="408.67" y="-122.3" font-family="Times New Roman,serif" font-size="14.00">varint</text>
</g>
<!-- 1&#45;&gt;2 -->
<g id="edge2" class="edge">
<title>1&#45;&gt;2</title>
<path fill="none" stroke="black" d="M276.08,-126C302.4,-126 339.64,-126 367.79,-126"/>
<polygon fill="black" stroke="black" points="368.09,-129.5 378.09,-126 368.09,-122.5 368.09,-129.5"/>
</g>
<!-- 4 -->
<!-- name: &quot;varint&quot;, typeName: &quot;&quot;, id: 4, branchId: 0, recurseId: &#45;1, attributes: 512, notes: &quot;&quot; -->
<g id="node5" class="node">
<title>4</title>
<ellipse fill="none" stroke="black" cx="408.67" cy="-72" rx="30.59" ry="18"/>
<text text-anchor="middle" x="408.67" y="-68.3" font-family="Times New Roman,serif" font-size="14.00">varint</text>
</g>
<!-- 3&#45;&gt;4 -->
<g id="edge4" class="edge">
<title>3&#45;&gt;4</title>
<path fill="none" stroke="black" d="M283.38,-72C309.04,-72 342.31,-72 367.97,-72"/>
<polygon fill="black" stroke="black" points="368.1,-75.5 378.1,-72 368.1,-68.5 368.1,-75.5"/>
</g>
<!-- 6 -->
<!-- name: &quot;unsigned varint64&quot;, typeName: &quot;&quot;, id: 6, branchId: 0, recurseId: &#45;1, attributes: 512, notes: &quot;&quot; -->
<g id="node7" class="node">
<title>6</title>
<ellipse fill="none" stroke="black" cx="408.67" cy="-18" rx="74.19" ry="18"/>
<text text-anchor="middle" x="408.67" y="-14.3" font-family="Times New Roman,serif" font-size="14.00">unsigned varint64</text>
</g>
<!-- 5&#45;&gt;6 -->
<g id="edge6" class="edge">
<title>5&#45;&gt;6</title>
<path fill="none" stroke="black" d="M298.74,-18C306.97,-18 315.6,-18 324.26,-18"/>
<polygon fill="black" stroke="black" points="324.4,-21.5 334.4,-18 324.4,-14.5 324.4,-21.5"/>
</g>
</g>
</svg>
