<?xml version="1.0" encoding="UTF-8" standalone="no"?>
<!DOCTYPE svg PUBLIC "-//W3C//DTD SVG 1.1//EN"
 "http://www.w3.org/Graphics/SVG/1.1/DTD/svg11.dtd">
<!-- Generated by graphviz version 10.0.1 (20240210.2158)
 -->
<!-- Title: HurtArmorPacket Pages: 1 -->
<svg width="497pt" height="152pt"
 viewBox="0.00 0.00 497.16 152.00" xmlns="http://www.w3.org/2000/svg" xmlns:xlink="http://www.w3.org/1999/xlink">
<g id="graph0" class="graph" transform="scale(1 1) rotate(0) translate(4 148)">
<title>HurtArmorPacket</title>
<polygon fill="white" stroke="none" points="-4,4 -4,-148 493.16,-148 493.16,4 -4,4"/>
<!-- 0 -->
<!-- name: &quot;HurtArmorPacket&quot;, typeName: &quot;&quot;, id: 0, branchId: 38, recurseId: &#45;1, attributes: 0, notes: &quot;&quot; -->
<g id="node1" class="node">
<title>0</title>
<ellipse fill="none" stroke="black" cx="76.51" cy="-72" rx="76.51" ry="18"/>
<text text-anchor="middle" x="76.51" y="-66.58" font-family="Times New Roman,serif" font-size="14.00">HurtArmorPacket</text>
</g>
<!-- 1 -->
<!-- name: &quot;Cause&quot;, typeName: &quot;&quot;, id: 1, branchId: 0, recurseId: &#45;1, attributes: 0, notes: &quot;&quot; -->
<g id="node2" class="node">
<title>1</title>
<ellipse fill="none" stroke="black" cx="245.58" cy="-126" rx="33.6" ry="18"/>
<text text-anchor="middle" x="245.58" y="-120.58" font-family="Times New Roman,serif" font-size="14.00">Cause</text>
</g>
<!-- 0&#45;&gt;1 -->
<g id="edge1" class="edge">
<title>0&#45;&gt;1</title>
<path fill="none" stroke="black" d="M122.72,-86.61C148.53,-94.96 180.58,-105.31 205.33,-113.31"/>
<polygon fill="black" stroke="black" points="204.1,-116.6 214.69,-116.34 206.26,-109.93 204.1,-116.6"/>
</g>
<!-- 3 -->
<!-- name: &quot;Damage&quot;, typeName: &quot;&quot;, id: 3, branchId: 0, recurseId: &#45;1, attributes: 0, notes: &quot;&quot; -->
<g id="node4" class="node">
<title>3</title>
<ellipse fill="none" stroke="black" cx="245.58" cy="-72" rx="40.58" ry="18"/>
<text text-anchor="middle" x="245.58" y="-66.58" font-family="Times New Roman,serif" font-size="14.00">Damage</text>
</g>
<!-- 0&#45;&gt;3 -->
<g id="edge3" class="edge">
<title>0&#45;&gt;3</title>
<path fill="none" stroke="black" d="M153.22,-72C166.84,-72 180.74,-72 193.45,-72"/>
<polygon fill="black" stroke="black" points="193.23,-75.5 203.23,-72 193.23,-68.5 193.23,-75.5"/>
</g>
<!-- 5 -->
<!-- name: &quot;Armor Slots&quot;, typeName: &quot;&quot;, id: 5, branchId: 0, recurseId: &#45;1, attributes: 0, notes: &quot;Bitset&quot; -->
<g id="node6" class="node">
<title>5</title>
<ellipse fill="none" stroke="black" cx="245.58" cy="-18" rx="56.55" ry="18"/>
<text text-anchor="middle" x="245.58" y="-12.57" font-family="Times New Roman,serif" font-size="14.00">Armor Slots</text>
</g>
<!-- 0&#45;&gt;5 -->
<g id="edge5" class="edge">
<title>0&#45;&gt;5</title>
<path fill="none" stroke="black" d="M122.72,-57.39C144.73,-50.27 171.27,-41.7 193.95,-34.36"/>
<polygon fill="black" stroke="black" points="194.86,-37.75 203.3,-31.34 192.71,-31.09 194.86,-37.75"/>
</g>
<!-- 2 -->
<!-- name: &quot;varint&quot;, typeName: &quot;&quot;, id: 2, branchId: 0, recurseId: &#45;1, attributes: 512, notes: &quot;&quot; -->
<g id="node3" class="node">
<title>2</title>
<ellipse fill="none" stroke="black" cx="413.65" cy="-126" rx="31.1" ry="18"/>
<text text-anchor="middle" x="413.65" y="-120.58" font-family="Times New Roman,serif" font-size="14.00">varint</text>
</g>
<!-- 1&#45;&gt;2 -->
<g id="edge2" class="edge">
<title>1&#45;&gt;2</title>
<path fill="none" stroke="black" d="M279.39,-126C305.64,-126 342.62,-126 370.97,-126"/>
<polygon fill="black" stroke="black" points="370.63,-129.5 380.63,-126 370.63,-122.5 370.63,-129.5"/>
</g>
<!-- 4 -->
<!-- name: &quot;varint&quot;, typeName: &quot;&quot;, id: 4, branchId: 0, recurseId: &#45;1, attributes: 512, notes: &quot;&quot; -->
<g id="node5" class="node">
<title>4</title>
<ellipse fill="none" stroke="black" cx="413.65" cy="-72" rx="31.1" ry="18"/>
<text text-anchor="middle" x="413.65" y="-66.58" font-family="Times New Roman,serif" font-size="14.00">varint</text>
</g>
<!-- 3&#45;&gt;4 -->
<g id="edge4" class="edge">
<title>3&#45;&gt;4</title>
<path fill="none" stroke="black" d="M286.36,-72C311.9,-72 345.03,-72 370.94,-72"/>
<polygon fill="black" stroke="black" points="370.77,-75.5 380.77,-72 370.77,-68.5 370.77,-75.5"/>
</g>
<!-- 6 -->
<!-- name: &quot;unsigned varint64&quot;, typeName: &quot;&quot;, id: 6, branchId: 0, recurseId: &#45;1, attributes: 512, notes: &quot;&quot; -->
<g id="node7" class="node">
<title>6</title>
<ellipse fill="none" stroke="black" cx="413.65" cy="-18" rx="75.51" ry="18"/>
<text text-anchor="middle" x="413.65" y="-12.57" font-family="Times New Roman,serif" font-size="14.00">unsigned varint64</text>
</g>
<!-- 5&#45;&gt;6 -->
<g id="edge6" class="edge">
<title>5&#45;&gt;6</title>
<path fill="none" stroke="black" d="M302.34,-18C310.18,-18 318.38,-18 326.62,-18"/>
<polygon fill="black" stroke="black" points="326.34,-21.5 336.34,-18 326.34,-14.5 326.34,-21.5"/>
</g>
</g>
</svg>
