<?xml version="1.0" encoding="UTF-8" standalone="no"?>
<!DOCTYPE svg PUBLIC "-//W3C//DTD SVG 1.1//EN"
 "http://www.w3.org/Graphics/SVG/1.1/DTD/svg11.dtd">
<!-- Generated by graphviz version 14.1.5 (20260411.2331)
 -->
<!-- Title: InitializeRegistryData Pages: 1 -->
<svg width="1237pt" height="492pt"
 viewBox="0.00 0.00 1237.00 492.00" xmlns="http://www.w3.org/2000/svg" xmlns:xlink="http://www.w3.org/1999/xlink">
<g id="graph0" class="graph" transform="scale(1 1) rotate(0) translate(4 488)">
<title>InitializeRegistryData</title>
<polygon fill="white" stroke="none" points="-4,4 -4,-488 1232.7,-488 1232.7,4 -4,4"/>
<!-- 0 -->
<!-- name: &quot;InitializeRegistryData&quot;, typeName: &quot;&quot;, id: 0, branchId: 0, recurseId: &#45;1, attributes: 0, notes: &quot;&quot; -->
<g id="node1" class="node">
<title>0</title>
<ellipse fill="none" stroke="black" cx="92.3" cy="-386" rx="92.3" ry="18"/>
<text xml:space="preserve" text-anchor="middle" x="92.3" y="-380.95" font-family="Times New Roman,serif" font-size="14.00">InitializeRegistryData</text>
</g>
<!-- 1 -->
<!-- name: &quot;ClockData&quot;, typeName: &quot;&quot;, id: 1, branchId: 0, recurseId: &#45;1, attributes: 0, notes: &quot;&quot; -->
<g id="node2" class="node">
<title>1</title>
<ellipse fill="none" stroke="black" cx="270.92" cy="-386" rx="50.33" ry="18"/>
<text xml:space="preserve" text-anchor="middle" x="270.92" y="-380.95" font-family="Times New Roman,serif" font-size="14.00">ClockData</text>
</g>
<!-- 0&#45;&gt;1 -->
<g id="edge1" class="edge">
<title>0&#45;&gt;1</title>
<path fill="none" stroke="black" d="M184.97,-386C193,-386 201,-386 208.69,-386"/>
<polygon fill="black" stroke="black" points="208.58,-389.5 218.58,-386 208.58,-382.5 208.58,-389.5"/>
</g>
<!-- 2 -->
<!-- name: &quot;List Size&quot;, typeName: &quot;&quot;, id: 2, branchId: 0, recurseId: &#45;1, attributes: 0, notes: &quot;&quot; -->
<g id="node3" class="node">
<title>2</title>
<ellipse fill="none" stroke="black" cx="432.14" cy="-439" rx="43.67" ry="18"/>
<text xml:space="preserve" text-anchor="middle" x="432.14" y="-433.95" font-family="Times New Roman,serif" font-size="14.00">List Size</text>
</g>
<!-- 1&#45;&gt;2 -->
<g id="edge2" class="edge">
<title>1&#45;&gt;2</title>
<path fill="none" stroke="black" d="M308.85,-398.29C332.03,-406.01 362.07,-416.01 386.57,-424.16"/>
<polygon fill="black" stroke="black" points="385.37,-427.45 395.96,-427.29 387.58,-420.81 385.37,-427.45"/>
</g>
<!-- 4 -->
<!-- name: &quot;example element&quot;, typeName: &quot;&quot;, id: 4, branchId: 0, recurseId: &#45;1, attributes: 16, notes: &quot;&quot; -->
<g id="node5" class="node">
<title>4</title>
<ellipse fill="none" stroke="black" stroke-dasharray="1,5" cx="432.14" cy="-359" rx="74.89" ry="18"/>
<text xml:space="preserve" text-anchor="middle" x="432.14" y="-353.95" font-family="Times New Roman,serif" font-size="14.00">example element</text>
</g>
<!-- 1&#45;&gt;4 -->
<g id="edge4" class="edge">
<title>1&#45;&gt;4</title>
<path fill="none" stroke="black" d="M317.12,-378.34C330.11,-376.13 344.6,-373.67 358.79,-371.27"/>
<polygon fill="black" stroke="black" points="359.3,-374.73 368.58,-369.61 358.13,-367.83 359.3,-374.73"/>
</g>
<!-- 3 -->
<!-- name: &quot;unsigned varint&quot;, typeName: &quot;&quot;, id: 3, branchId: 0, recurseId: &#45;1, attributes: 0, notes: &quot;&quot; -->
<g id="node4" class="node">
<title>3</title>
<ellipse fill="none" stroke="black" cx="611.28" cy="-466" rx="68.24" ry="18"/>
<text xml:space="preserve" text-anchor="middle" x="611.28" y="-460.95" font-family="Times New Roman,serif" font-size="14.00">unsigned varint</text>
</g>
<!-- 2&#45;&gt;3 -->
<g id="edge3" class="edge">
<title>2&#45;&gt;3</title>
<path fill="none" stroke="black" d="M473.34,-445.13C493.07,-448.13 517.43,-451.85 540.1,-455.3"/>
<polygon fill="black" stroke="black" points="539.51,-458.75 549.92,-456.8 540.57,-451.83 539.51,-458.75"/>
</g>
<!-- 5 -->
<!-- name: &quot;Id&quot;, typeName: &quot;&quot;, id: 5, branchId: 0, recurseId: &#45;1, attributes: 0, notes: &quot;&quot; -->
<g id="node6" class="node">
<title>5</title>
<ellipse fill="none" stroke="black" cx="790.41" cy="-442" rx="27" ry="18"/>
<text xml:space="preserve" text-anchor="middle" x="790.41" y="-436.95" font-family="Times New Roman,serif" font-size="14.00">Id</text>
</g>
<!-- 4&#45;&gt;5 -->
<g id="edge5" class="edge">
<title>4&#45;&gt;5</title>
<path fill="none" stroke="black" d="M484.22,-372.35C502.72,-377.1 523.79,-382.4 543.04,-387 617.46,-404.78 704.98,-423.89 753.1,-434.25"/>
<polygon fill="black" stroke="black" points="752.18,-437.63 762.69,-436.31 753.65,-430.79 752.18,-437.63"/>
</g>
<!-- 7 -->
<!-- name: &quot;Name&quot;, typeName: &quot;&quot;, id: 7, branchId: 0, recurseId: &#45;1, attributes: 0, notes: &quot;&quot; -->
<g id="node8" class="node">
<title>7</title>
<ellipse fill="none" stroke="black" cx="790.41" cy="-386" rx="33.44" ry="18"/>
<text xml:space="preserve" text-anchor="middle" x="790.41" y="-380.95" font-family="Times New Roman,serif" font-size="14.00">Name</text>
</g>
<!-- 4&#45;&gt;7 -->
<g id="edge7" class="edge">
<title>4&#45;&gt;7</title>
<path fill="none" stroke="black" d="M503.96,-364.37C576.06,-369.83 685.56,-378.13 745.83,-382.7"/>
<polygon fill="black" stroke="black" points="745.46,-386.18 755.69,-383.44 745.99,-379.2 745.46,-386.18"/>
</g>
<!-- 9 -->
<!-- name: &quot;Time&quot;, typeName: &quot;&quot;, id: 9, branchId: 0, recurseId: &#45;1, attributes: 0, notes: &quot;&quot; -->
<g id="node10" class="node">
<title>9</title>
<ellipse fill="none" stroke="black" cx="611.28" cy="-336" rx="30.88" ry="18"/>
<text xml:space="preserve" text-anchor="middle" x="611.28" y="-330.95" font-family="Times New Roman,serif" font-size="14.00">Time</text>
</g>
<!-- 4&#45;&gt;9 -->
<g id="edge9" class="edge">
<title>4&#45;&gt;9</title>
<path fill="none" stroke="black" d="M498.85,-350.47C522.5,-347.4 548.48,-344.02 569.41,-341.31"/>
<polygon fill="black" stroke="black" points="569.8,-344.78 579.27,-340.03 568.9,-337.84 569.8,-344.78"/>
</g>
<!-- 11 -->
<!-- name: &quot;IsPaused&quot;, typeName: &quot;&quot;, id: 11, branchId: 0, recurseId: &#45;1, attributes: 0, notes: &quot;&quot; -->
<g id="node12" class="node">
<title>11</title>
<ellipse fill="none" stroke="black" cx="611.28" cy="-282" rx="43.67" ry="18"/>
<text xml:space="preserve" text-anchor="middle" x="611.28" y="-276.95" font-family="Times New Roman,serif" font-size="14.00">IsPaused</text>
</g>
<!-- 4&#45;&gt;11 -->
<g id="edge11" class="edge">
<title>4&#45;&gt;11</title>
<path fill="none" stroke="black" d="M467.61,-342.83C489.18,-332.84 517.6,-319.89 543.04,-309 551.08,-305.56 559.71,-301.99 568.02,-298.63"/>
<polygon fill="black" stroke="black" points="569.31,-301.88 577.28,-294.91 566.7,-295.39 569.31,-301.88"/>
</g>
<!-- 13 -->
<!-- name: &quot;TimeMarkers&quot;, typeName: &quot;&quot;, id: 13, branchId: 0, recurseId: &#45;1, attributes: 0, notes: &quot;&quot; -->
<g id="node14" class="node">
<title>13</title>
<ellipse fill="none" stroke="black" cx="611.28" cy="-228" rx="62.1" ry="18"/>
<text xml:space="preserve" text-anchor="middle" x="611.28" y="-222.95" font-family="Times New Roman,serif" font-size="14.00">TimeMarkers</text>
</g>
<!-- 4&#45;&gt;13 -->
<g id="edge13" class="edge">
<title>4&#45;&gt;13</title>
<path fill="none" stroke="black" d="M448.24,-341.02C468.04,-318.39 504.77,-279.52 543.04,-255 548.07,-251.78 553.55,-248.82 559.13,-246.14"/>
<polygon fill="black" stroke="black" points="560.15,-249.52 567.85,-242.24 557.3,-243.13 560.15,-249.52"/>
</g>
<!-- 6 -->
<!-- name: &quot;unsigned varint64&quot;, typeName: &quot;&quot;, id: 6, branchId: 0, recurseId: &#45;1, attributes: 512, notes: &quot;&quot; -->
<g id="node7" class="node">
<title>6</title>
<ellipse fill="none" stroke="black" cx="1151.24" cy="-444" rx="77.45" ry="18"/>
<text xml:space="preserve" text-anchor="middle" x="1151.24" y="-438.95" font-family="Times New Roman,serif" font-size="14.00">unsigned varint64</text>
</g>
<!-- 5&#45;&gt;6 -->
<g id="edge6" class="edge">
<title>5&#45;&gt;6</title>
<path fill="none" stroke="black" d="M817.8,-442.15C868.66,-442.43 982.3,-443.06 1062.51,-443.51"/>
<polygon fill="black" stroke="black" points="1062.07,-447.01 1072.09,-443.56 1062.11,-440.01 1062.07,-447.01"/>
</g>
<!-- 8 -->
<!-- name: &quot;string&quot;, typeName: &quot;&quot;, id: 8, branchId: 0, recurseId: &#45;1, attributes: 512, notes: &quot;&quot; -->
<g id="node9" class="node">
<title>8</title>
<ellipse fill="none" stroke="black" cx="1151.24" cy="-390" rx="31.9" ry="18"/>
<text xml:space="preserve" text-anchor="middle" x="1151.24" y="-384.95" font-family="Times New Roman,serif" font-size="14.00">string</text>
</g>
<!-- 7&#45;&gt;8 -->
<g id="edge8" class="edge">
<title>7&#45;&gt;8</title>
<path fill="none" stroke="black" d="M824.21,-386.37C889.35,-387.09 1035.02,-388.72 1107.53,-389.52"/>
<polygon fill="black" stroke="black" points="1107.39,-393.02 1117.42,-389.63 1107.46,-386.02 1107.39,-393.02"/>
</g>
<!-- 10 -->
<!-- name: &quot;varint&quot;, typeName: &quot;&quot;, id: 10, branchId: 0, recurseId: &#45;1, attributes: 512, notes: &quot;&quot; -->
<g id="node11" class="node">
<title>10</title>
<ellipse fill="none" stroke="black" cx="1151.24" cy="-336" rx="32.41" ry="18"/>
<text xml:space="preserve" text-anchor="middle" x="1151.24" y="-330.95" font-family="Times New Roman,serif" font-size="14.00">varint</text>
</g>
<!-- 9&#45;&gt;10 -->
<g id="edge10" class="edge">
<title>9&#45;&gt;10</title>
<path fill="none" stroke="black" d="M642.35,-336C732.59,-336 1001.26,-336 1106.9,-336"/>
<polygon fill="black" stroke="black" points="1106.85,-339.5 1116.85,-336 1106.85,-332.5 1106.85,-339.5"/>
</g>
<!-- 12 -->
<!-- name: &quot;bool&quot;, typeName: &quot;&quot;, id: 12, branchId: 0, recurseId: &#45;1, attributes: 512, notes: &quot;&quot; -->
<g id="node13" class="node">
<title>12</title>
<ellipse fill="none" stroke="black" cx="1151.24" cy="-282" rx="27.3" ry="18"/>
<text xml:space="preserve" text-anchor="middle" x="1151.24" y="-276.95" font-family="Times New Roman,serif" font-size="14.00">bool</text>
</g>
<!-- 11&#45;&gt;12 -->
<g id="edge12" class="edge">
<title>11&#45;&gt;12</title>
<path fill="none" stroke="black" d="M655.39,-282C757.95,-282 1015.12,-282 1112.28,-282"/>
<polygon fill="black" stroke="black" points="1112.06,-285.5 1122.06,-282 1112.06,-278.5 1112.06,-285.5"/>
</g>
<!-- 14 -->
<!-- name: &quot;List Size&quot;, typeName: &quot;&quot;, id: 14, branchId: 0, recurseId: &#45;1, attributes: 0, notes: &quot;&quot; -->
<g id="node15" class="node">
<title>14</title>
<ellipse fill="none" stroke="black" cx="790.41" cy="-232" rx="43.67" ry="18"/>
<text xml:space="preserve" text-anchor="middle" x="790.41" y="-226.95" font-family="Times New Roman,serif" font-size="14.00">List Size</text>
</g>
<!-- 13&#45;&gt;14 -->
<g id="edge14" class="edge">
<title>13&#45;&gt;14</title>
<path fill="none" stroke="black" d="M673.24,-229.38C693.31,-229.83 715.47,-230.33 735.02,-230.77"/>
<polygon fill="black" stroke="black" points="734.91,-234.27 744.98,-231 735.07,-227.27 734.91,-234.27"/>
</g>
<!-- 16 -->
<!-- name: &quot;example element&quot;, typeName: &quot;&quot;, id: 16, branchId: 0, recurseId: &#45;1, attributes: 16, notes: &quot;&quot; -->
<g id="node17" class="node">
<title>16</title>
<ellipse fill="none" stroke="black" stroke-dasharray="1,5" cx="790.41" cy="-126" rx="74.89" ry="18"/>
<text xml:space="preserve" text-anchor="middle" x="790.41" y="-120.95" font-family="Times New Roman,serif" font-size="14.00">example element</text>
</g>
<!-- 13&#45;&gt;16 -->
<g id="edge16" class="edge">
<title>13&#45;&gt;16</title>
<path fill="none" stroke="black" d="M640.35,-211.84C670.05,-194.73 717.15,-167.61 750.44,-148.44"/>
<polygon fill="black" stroke="black" points="752.07,-151.54 758.99,-143.52 748.58,-145.48 752.07,-151.54"/>
</g>
<!-- 15 -->
<!-- name: &quot;unsigned varint&quot;, typeName: &quot;&quot;, id: 15, branchId: 0, recurseId: &#45;1, attributes: 0, notes: &quot;&quot; -->
<g id="node16" class="node">
<title>15</title>
<ellipse fill="none" stroke="black" cx="969.55" cy="-234" rx="68.24" ry="18"/>
<text xml:space="preserve" text-anchor="middle" x="969.55" y="-228.95" font-family="Times New Roman,serif" font-size="14.00">unsigned varint</text>
</g>
<!-- 14&#45;&gt;15 -->
<g id="edge15" class="edge">
<title>14&#45;&gt;15</title>
<path fill="none" stroke="black" d="M834.29,-232.48C850.99,-232.67 870.67,-232.89 889.74,-233.11"/>
<polygon fill="black" stroke="black" points="889.63,-236.61 899.67,-233.22 889.71,-229.61 889.63,-236.61"/>
</g>
<!-- 17 -->
<!-- name: &quot;Id&quot;, typeName: &quot;&quot;, id: 17, branchId: 0, recurseId: &#45;1, attributes: 0, notes: &quot;&quot; -->
<g id="node18" class="node">
<title>17</title>
<ellipse fill="none" stroke="black" cx="969.55" cy="-180" rx="27" ry="18"/>
<text xml:space="preserve" text-anchor="middle" x="969.55" y="-174.95" font-family="Times New Roman,serif" font-size="14.00">Id</text>
</g>
<!-- 16&#45;&gt;17 -->
<g id="edge17" class="edge">
<title>16&#45;&gt;17</title>
<path fill="none" stroke="black" d="M837.95,-140.19C867.91,-149.32 906.22,-161 933.58,-169.34"/>
<polygon fill="black" stroke="black" points="932.55,-172.68 943.14,-172.25 934.59,-165.99 932.55,-172.68"/>
</g>
<!-- 19 -->
<!-- name: &quot;Name&quot;, typeName: &quot;&quot;, id: 19, branchId: 0, recurseId: &#45;1, attributes: 0, notes: &quot;&quot; -->
<g id="node20" class="node">
<title>19</title>
<ellipse fill="none" stroke="black" cx="969.55" cy="-126" rx="33.44" ry="18"/>
<text xml:space="preserve" text-anchor="middle" x="969.55" y="-120.95" font-family="Times New Roman,serif" font-size="14.00">Name</text>
</g>
<!-- 16&#45;&gt;19 -->
<g id="edge19" class="edge">
<title>16&#45;&gt;19</title>
<path fill="none" stroke="black" d="M865.77,-126C885.71,-126 906.64,-126 924.37,-126"/>
<polygon fill="black" stroke="black" points="924.28,-129.5 934.28,-126 924.28,-122.5 924.28,-129.5"/>
</g>
<!-- 21 -->
<!-- name: &quot;Time&quot;, typeName: &quot;&quot;, id: 21, branchId: 0, recurseId: &#45;1, attributes: 0, notes: &quot;&quot; -->
<g id="node22" class="node">
<title>21</title>
<ellipse fill="none" stroke="black" cx="969.55" cy="-72" rx="30.88" ry="18"/>
<text xml:space="preserve" text-anchor="middle" x="969.55" y="-66.95" font-family="Times New Roman,serif" font-size="14.00">Time</text>
</g>
<!-- 16&#45;&gt;21 -->
<g id="edge21" class="edge">
<title>16&#45;&gt;21</title>
<path fill="none" stroke="black" d="M837.95,-111.81C866.83,-103.01 903.48,-91.84 930.59,-83.57"/>
<polygon fill="black" stroke="black" points="931.59,-86.93 940.13,-80.66 929.55,-80.23 931.59,-86.93"/>
</g>
<!-- 23 -->
<!-- name: &quot;Period&quot;, typeName: &quot;&quot;, id: 23, branchId: 0, recurseId: &#45;1, attributes: 0, notes: &quot;&quot; -->
<g id="node24" class="node">
<title>23</title>
<ellipse fill="none" stroke="black" cx="969.55" cy="-18" rx="34.97" ry="18"/>
<text xml:space="preserve" text-anchor="middle" x="969.55" y="-12.95" font-family="Times New Roman,serif" font-size="14.00">Period</text>
</g>
<!-- 16&#45;&gt;23 -->
<g id="edge23" class="edge">
<title>16&#45;&gt;23</title>
<path fill="none" stroke="black" d="M811.81,-108.49C833.1,-90.83 867.98,-63.58 901.31,-45 910,-40.16 919.73,-35.73 929.04,-31.93"/>
<polygon fill="black" stroke="black" points="930.24,-35.22 938.27,-28.31 927.68,-28.7 930.24,-35.22"/>
</g>
<!-- 18 -->
<!-- name: &quot;unsigned varint64&quot;, typeName: &quot;&quot;, id: 18, branchId: 0, recurseId: &#45;1, attributes: 512, notes: &quot;&quot; -->
<g id="node19" class="node">
<title>18</title>
<ellipse fill="none" stroke="black" cx="1151.24" cy="-180" rx="77.45" ry="18"/>
<text xml:space="preserve" text-anchor="middle" x="1151.24" y="-174.95" font-family="Times New Roman,serif" font-size="14.00">unsigned varint64</text>
</g>
<!-- 17&#45;&gt;18 -->
<g id="edge18" class="edge">
<title>17&#45;&gt;18</title>
<path fill="none" stroke="black" d="M996.68,-180C1014.16,-180 1038.26,-180 1062.2,-180"/>
<polygon fill="black" stroke="black" points="1062.02,-183.5 1072.02,-180 1062.02,-176.5 1062.02,-183.5"/>
</g>
<!-- 20 -->
<!-- name: &quot;string&quot;, typeName: &quot;&quot;, id: 20, branchId: 0, recurseId: &#45;1, attributes: 512, notes: &quot;&quot; -->
<g id="node21" class="node">
<title>20</title>
<ellipse fill="none" stroke="black" cx="1151.24" cy="-126" rx="31.9" ry="18"/>
<text xml:space="preserve" text-anchor="middle" x="1151.24" y="-120.95" font-family="Times New Roman,serif" font-size="14.00">string</text>
</g>
<!-- 19&#45;&gt;20 -->
<g id="edge20" class="edge">
<title>19&#45;&gt;20</title>
<path fill="none" stroke="black" d="M1003.09,-126C1032.37,-126 1075.57,-126 1107.6,-126"/>
<polygon fill="black" stroke="black" points="1107.33,-129.5 1117.33,-126 1107.33,-122.5 1107.33,-129.5"/>
</g>
<!-- 22 -->
<!-- name: &quot;varint&quot;, typeName: &quot;&quot;, id: 22, branchId: 0, recurseId: &#45;1, attributes: 512, notes: &quot;&quot; -->
<g id="node23" class="node">
<title>22</title>
<ellipse fill="none" stroke="black" cx="1151.24" cy="-72" rx="32.41" ry="18"/>
<text xml:space="preserve" text-anchor="middle" x="1151.24" y="-66.95" font-family="Times New Roman,serif" font-size="14.00">varint</text>
</g>
<!-- 21&#45;&gt;22 -->
<g id="edge22" class="edge">
<title>21&#45;&gt;22</title>
<path fill="none" stroke="black" d="M1000.63,-72C1029.85,-72 1074.52,-72 1107.44,-72"/>
<polygon fill="black" stroke="black" points="1107.04,-75.5 1117.04,-72 1107.04,-68.5 1107.04,-75.5"/>
</g>
<!-- 24 -->
<!-- name: &quot;int&quot;, typeName: &quot;&quot;, id: 24, branchId: 0, recurseId: &#45;1, attributes: 512, notes: &quot;&quot; -->
<g id="node25" class="node">
<title>24</title>
<ellipse fill="none" stroke="black" cx="1151.24" cy="-18" rx="27" ry="18"/>
<text xml:space="preserve" text-anchor="middle" x="1151.24" y="-12.95" font-family="Times New Roman,serif" font-size="14.00">int</text>
</g>
<!-- 23&#45;&gt;24 -->
<g id="edge24" class="edge">
<title>23&#45;&gt;24</title>
<path fill="none" stroke="black" d="M1004.77,-18C1035.47,-18 1080.46,-18 1112.26,-18"/>
<polygon fill="black" stroke="black" points="1112.23,-21.5 1122.23,-18 1112.23,-14.5 1112.23,-21.5"/>
</g>
</g>
</svg>
