<?xml version="1.0" encoding="UTF-8" standalone="no"?>
<!DOCTYPE svg PUBLIC "-//W3C//DTD SVG 1.1//EN"
 "http://www.w3.org/Graphics/SVG/1.1/DTD/svg11.dtd">
<!-- Generated by graphviz version 12.2.0 (20241103.1931)
 -->
<!-- Title: int Pages: 1 -->
<svg width="287pt" height="44pt"
 viewBox="0.00 0.00 286.61 44.00" xmlns="http://www.w3.org/2000/svg" xmlns:xlink="http://www.w3.org/1999/xlink">
<g id="graph0" class="graph" transform="scale(1 1) rotate(0) translate(4 40)">
<title>int</title>
<polygon fill="white" stroke="none" points="-4,4 -4,-40 282.61,-40 282.61,4 -4,4"/>
<!-- 40 -->
<!-- name: &quot;int&quot;, typeName: &quot;&quot;, id: 40, branchId: 0, recurseId: &#45;1, attributes: 0, notes: &quot;&quot; -->
<g id="node1" class="node">
<title>40</title>
<ellipse fill="none" stroke="black" cx="27" cy="-18" rx="27" ry="18"/>
<text text-anchor="middle" x="27" y="-12.95" font-family="Times New Roman,serif" font-size="14.00">int</text>
</g>
<!-- 41 -->
<!-- name: &quot;Signed Int&quot;, typeName: &quot;&quot;, id: 41, branchId: 0, recurseId: &#45;1, attributes: 0, notes: &quot;&quot; -->
<g id="node2" class="node">
<title>41</title>
<ellipse fill="none" stroke="black" cx="139.3" cy="-18" rx="49.3" ry="18"/>
<text text-anchor="middle" x="139.3" y="-12.95" font-family="Times New Roman,serif" font-size="14.00">Signed Int</text>
</g>
<!-- 40&#45;&gt;41 -->
<g id="edge1" class="edge">
<title>40&#45;&gt;41</title>
<path fill="none" stroke="black" d="M54.42,-18C61.69,-18 69.89,-18 78.24,-18"/>
<polygon fill="black" stroke="black" points="78.14,-21.5 88.14,-18 78.14,-14.5 78.14,-21.5"/>
</g>
<!-- 42 -->
<!-- name: &quot;int&quot;, typeName: &quot;&quot;, id: 42, branchId: 0, recurseId: &#45;1, attributes: 512, notes: &quot;&quot; -->
<g id="node3" class="node">
<title>42</title>
<ellipse fill="none" stroke="black" cx="251.61" cy="-18" rx="27" ry="18"/>
<text text-anchor="middle" x="251.61" y="-12.95" font-family="Times New Roman,serif" font-size="14.00">int</text>
</g>
<!-- 41&#45;&gt;42 -->
<g id="edge2" class="edge">
<title>41&#45;&gt;42</title>
<path fill="none" stroke="black" d="M189.01,-18C196.96,-18 205.09,-18 212.74,-18"/>
<polygon fill="black" stroke="black" points="212.73,-21.5 222.73,-18 212.73,-14.5 212.73,-21.5"/>
</g>
</g>
</svg>
