<?xml version="1.0" encoding="UTF-8" standalone="no"?>
<!DOCTYPE svg PUBLIC "-//W3C//DTD SVG 1.1//EN"
 "http://www.w3.org/Graphics/SVG/1.1/DTD/svg11.dtd">
<!-- Generated by graphviz version 11.0.0 (20240428.1522)
 -->
<!-- Title: InteractPacket Pages: 1 -->
<svg width="1028pt" height="314pt"
 viewBox="0.00 0.00 1028.15 314.00" xmlns="http://www.w3.org/2000/svg" xmlns:xlink="http://www.w3.org/1999/xlink">
<g id="graph0" class="graph" transform="scale(1 1) rotate(0) translate(4 310)">
<title>InteractPacket</title>
<polygon fill="white" stroke="none" points="-4,4 -4,-310 1024.15,-310 1024.15,4 -4,4"/>
<!-- 0 -->
<!-- name: &quot;InteractPacket&quot;, typeName: &quot;&quot;, id: 0, branchId: 33, recurseId: &#45;1, attributes: 0, notes: &quot;&quot; -->
<g id="node1" class="node">
<title>0</title>
<ellipse fill="none" stroke="black" cx="63.54" cy="-234" rx="63.54" ry="18"/>
<text text-anchor="middle" x="63.54" y="-228.57" font-family="Times New Roman,serif" font-size="14.00">InteractPacket</text>
</g>
<!-- 1 -->
<!-- name: &quot;Action&quot;, typeName: &quot;&quot;, id: 1, branchId: 0, recurseId: &#45;1, attributes: 0, notes: &quot;&quot; -->
<g id="node2" class="node">
<title>1</title>
<ellipse fill="none" stroke="black" cx="648.4" cy="-286" rx="35.6" ry="18"/>
<text text-anchor="middle" x="648.4" y="-280.57" font-family="Times New Roman,serif" font-size="14.00">Action</text>
</g>
<!-- 0&#45;&gt;1 -->
<g id="edge1" class="edge">
<title>0&#45;&gt;1</title>
<path fill="none" stroke="black" d="M106.3,-247.59C123.67,-252.68 144.16,-257.96 163.08,-261 322.42,-286.63 514.69,-287.9 601.23,-286.91"/>
<polygon fill="black" stroke="black" points="601.01,-290.42 610.97,-286.78 600.92,-283.42 601.01,-290.42"/>
</g>
<!-- 3 -->
<!-- name: &quot;Target Runtime ID&quot;, typeName: &quot;ActorRuntimeID&quot;, id: 3, branchId: 0, recurseId: &#45;1, attributes: 256, notes: &quot;&quot; -->
<g id="node4" class="node">
<title>3</title>
<ellipse fill="none" stroke="black" cx="360.45" cy="-234" rx="80.01" ry="18"/>
<text text-anchor="middle" x="360.45" y="-228.57" font-family="Times New Roman,serif" font-size="14.00">Target Runtime ID</text>
</g>
<!-- 0&#45;&gt;3 -->
<g id="edge3" class="edge">
<title>0&#45;&gt;3</title>
<path fill="none" stroke="black" d="M127.44,-234C168.54,-234 222.86,-234 268.61,-234"/>
<polygon fill="black" stroke="black" points="268.53,-237.5 278.53,-234 268.53,-230.5 268.53,-237.5"/>
</g>
<!-- 5 -->
<!-- name: &quot;Dependency on &#39;Action == InteractUpdate || Action == StopRiding&#39;&quot;, typeName: &quot;&quot;, id: 5, branchId: 0, recurseId: &#45;1, attributes: 2, notes: &quot;&quot; -->
<g id="node6" class="node">
<title>5</title>
<polygon fill="none" stroke="black" points="551.83,-198 163.08,-198 163.08,-162 557.83,-162 557.83,-192 551.83,-198"/>
<polyline fill="none" stroke="black" points="551.83,-198 551.83,-192"/>
<polyline fill="none" stroke="black" points="557.83,-192 551.83,-192"/>
<text text-anchor="middle" x="360.45" y="-174.57" font-family="Times New Roman,serif" font-size="14.00">Dependency on &#39;Action == InteractUpdate || Action == StopRiding&#39;</text>
</g>
<!-- 0&#45;&gt;5 -->
<g id="edge5" class="edge">
<title>0&#45;&gt;5</title>
<path fill="none" stroke="black" d="M107.9,-220.8C124.98,-215.95 144.83,-210.74 163.08,-207 174.69,-204.62 186.74,-202.39 198.89,-200.32"/>
<polygon fill="black" stroke="black" points="199.28,-203.8 208.57,-198.71 198.13,-196.9 199.28,-203.8"/>
</g>
<!-- 2 -->
<!-- name: &quot;byte&quot;, typeName: &quot;&quot;, id: 2, branchId: 0, recurseId: &#45;1, attributes: 512, notes: &quot;&quot; -->
<g id="node3" class="node">
<title>2</title>
<ellipse fill="none" stroke="black" cx="947.63" cy="-288" rx="27" ry="18"/>
<text text-anchor="middle" x="947.63" y="-282.57" font-family="Times New Roman,serif" font-size="14.00">byte</text>
</g>
<!-- 1&#45;&gt;2 -->
<g id="edge2" class="edge">
<title>1&#45;&gt;2</title>
<path fill="none" stroke="black" d="M684.37,-286.24C740.79,-286.61 851.42,-287.36 909.31,-287.75"/>
<polygon fill="black" stroke="black" points="908.95,-291.25 918.97,-287.81 908.99,-284.25 908.95,-291.25"/>
</g>
<!-- 4 -->
<!-- name: &quot;ActorRuntimeID&quot;, typeName: &quot;&quot;, id: 4, branchId: 0, recurseId: &#45;1, attributes: 512, notes: &quot;&quot; -->
<g id="node5" class="node">
<title>4</title>
<ellipse fill="none" stroke="black" cx="947.63" cy="-234" rx="72.52" ry="18"/>
<text text-anchor="middle" x="947.63" y="-228.57" font-family="Times New Roman,serif" font-size="14.00">ActorRuntimeID</text>
</g>
<!-- 3&#45;&gt;4 -->
<g id="edge4" class="edge">
<title>3&#45;&gt;4</title>
<path fill="none" stroke="black" d="M440.68,-234C551.31,-234 751.13,-234 863.71,-234"/>
<polygon fill="black" stroke="black" points="863.48,-237.5 873.48,-234 863.48,-230.5 863.48,-237.5"/>
</g>
<!-- 6 -->
<!-- name: &quot;If False&quot;, typeName: &quot;&quot;, id: 6, branchId: 0, recurseId: &#45;1, attributes: 4, notes: &quot;&quot; -->
<g id="node7" class="node">
<title>6</title>
<polygon fill="none" stroke="black" points="648.4,-198 593.83,-180 648.4,-162 702.97,-180 648.4,-198"/>
<text text-anchor="middle" x="648.4" y="-174.57" font-family="Times New Roman,serif" font-size="14.00">If False</text>
</g>
<!-- 5&#45;&gt;6 -->
<g id="edge6" class="edge">
<title>5&#45;&gt;6</title>
<path fill="none" stroke="black" d="M558.1,-180C565.97,-180 573.59,-180 580.83,-180"/>
<polygon fill="black" stroke="black" points="580.76,-183.5 590.76,-180 580.76,-176.5 580.76,-183.5"/>
</g>
<!-- 8 -->
<!-- name: &quot;If True&quot;, typeName: &quot;&quot;, id: 8, branchId: 1, recurseId: &#45;1, attributes: 4, notes: &quot;&quot; -->
<g id="node9" class="node">
<title>8</title>
<polygon fill="none" stroke="black" points="648.4,-117 596.65,-99 648.4,-81 700.15,-99 648.4,-117"/>
<text text-anchor="middle" x="648.4" y="-93.58" font-family="Times New Roman,serif" font-size="14.00">If True</text>
</g>
<!-- 5&#45;&gt;8 -->
<g id="edge8" class="edge">
<title>5&#45;&gt;8</title>
<path fill="none" stroke="black" d="M426.7,-161.52C482.58,-145.69 561.23,-123.41 607.99,-110.16"/>
<polygon fill="black" stroke="black" points="608.75,-113.59 617.42,-107.49 606.85,-106.85 608.75,-113.59"/>
</g>
<!-- 7 -->
<!-- name: &quot;[No Data]&quot;, typeName: &quot;&quot;, id: 7, branchId: 0, recurseId: &#45;1, attributes: 512, notes: &quot;&quot; -->
<g id="node8" class="node">
<title>7</title>
<ellipse fill="none" stroke="black" cx="947.63" cy="-180" rx="47.57" ry="18"/>
<text text-anchor="middle" x="947.63" y="-174.57" font-family="Times New Roman,serif" font-size="14.00">[No Data]</text>
</g>
<!-- 6&#45;&gt;7 -->
<g id="edge7" class="edge">
<title>6&#45;&gt;7</title>
<path fill="none" stroke="black" d="M704.26,-180C756.61,-180 835.2,-180 888.58,-180"/>
<polygon fill="black" stroke="black" points="888.39,-183.5 898.39,-180 888.39,-176.5 888.39,-183.5"/>
</g>
<!-- 9 -->
<!-- name: &quot;Position X&quot;, typeName: &quot;&quot;, id: 9, branchId: 0, recurseId: &#45;1, attributes: 0, notes: &quot;&quot; -->
<g id="node10" class="node">
<title>9</title>
<ellipse fill="none" stroke="black" cx="789.04" cy="-126" rx="50.07" ry="18"/>
<text text-anchor="middle" x="789.04" y="-120.58" font-family="Times New Roman,serif" font-size="14.00">Position X</text>
</g>
<!-- 8&#45;&gt;9 -->
<g id="edge9" class="edge">
<title>8&#45;&gt;9</title>
<path fill="none" stroke="black" d="M682.61,-105.47C697.79,-108.42 716.17,-112 733.31,-115.34"/>
<polygon fill="black" stroke="black" points="732.38,-118.73 742.86,-117.2 733.72,-111.85 732.38,-118.73"/>
</g>
<!-- 11 -->
<!-- name: &quot;Position Y&quot;, typeName: &quot;&quot;, id: 11, branchId: 0, recurseId: &#45;1, attributes: 0, notes: &quot;&quot; -->
<g id="node12" class="node">
<title>11</title>
<ellipse fill="none" stroke="black" cx="789.04" cy="-72" rx="50.07" ry="18"/>
<text text-anchor="middle" x="789.04" y="-66.58" font-family="Times New Roman,serif" font-size="14.00">Position Y</text>
</g>
<!-- 8&#45;&gt;11 -->
<g id="edge11" class="edge">
<title>8&#45;&gt;11</title>
<path fill="none" stroke="black" d="M682.61,-92.53C697.79,-89.58 716.17,-86 733.31,-82.66"/>
<polygon fill="black" stroke="black" points="733.72,-86.15 742.86,-80.8 732.38,-79.27 733.72,-86.15"/>
</g>
<!-- 13 -->
<!-- name: &quot;Position Z&quot;, typeName: &quot;&quot;, id: 13, branchId: 0, recurseId: &#45;1, attributes: 0, notes: &quot;&quot; -->
<g id="node14" class="node">
<title>13</title>
<ellipse fill="none" stroke="black" cx="789.04" cy="-18" rx="49.07" ry="18"/>
<text text-anchor="middle" x="789.04" y="-12.57" font-family="Times New Roman,serif" font-size="14.00">Position Z</text>
</g>
<!-- 8&#45;&gt;13 -->
<g id="edge13" class="edge">
<title>8&#45;&gt;13</title>
<path fill="none" stroke="black" d="M668.15,-87.41C686.18,-76.32 714.27,-59.23 738.97,-45 742.75,-42.82 746.71,-40.58 750.67,-38.36"/>
<polygon fill="black" stroke="black" points="752.06,-41.6 759.1,-33.68 748.66,-35.48 752.06,-41.6"/>
</g>
<!-- 10 -->
<!-- name: &quot;float&quot;, typeName: &quot;&quot;, id: 10, branchId: 0, recurseId: &#45;1, attributes: 512, notes: &quot;&quot; -->
<g id="node11" class="node">
<title>10</title>
<ellipse fill="none" stroke="black" cx="947.63" cy="-126" rx="27.11" ry="18"/>
<text text-anchor="middle" x="947.63" y="-120.58" font-family="Times New Roman,serif" font-size="14.00">float</text>
</g>
<!-- 9&#45;&gt;10 -->
<g id="edge10" class="edge">
<title>9&#45;&gt;10</title>
<path fill="none" stroke="black" d="M839.58,-126C862.01,-126 888.09,-126 908.89,-126"/>
<polygon fill="black" stroke="black" points="908.64,-129.5 918.64,-126 908.64,-122.5 908.64,-129.5"/>
</g>
<!-- 12 -->
<!-- name: &quot;float&quot;, typeName: &quot;&quot;, id: 12, branchId: 0, recurseId: &#45;1, attributes: 512, notes: &quot;&quot; -->
<g id="node13" class="node">
<title>12</title>
<ellipse fill="none" stroke="black" cx="947.63" cy="-72" rx="27.11" ry="18"/>
<text text-anchor="middle" x="947.63" y="-66.58" font-family="Times New Roman,serif" font-size="14.00">float</text>
</g>
<!-- 11&#45;&gt;12 -->
<g id="edge12" class="edge">
<title>11&#45;&gt;12</title>
<path fill="none" stroke="black" d="M839.58,-72C862.01,-72 888.09,-72 908.89,-72"/>
<polygon fill="black" stroke="black" points="908.64,-75.5 918.64,-72 908.64,-68.5 908.64,-75.5"/>
</g>
<!-- 14 -->
<!-- name: &quot;float&quot;, typeName: &quot;&quot;, id: 14, branchId: 0, recurseId: &#45;1, attributes: 512, notes: &quot;&quot; -->
<g id="node15" class="node">
<title>14</title>
<ellipse fill="none" stroke="black" cx="947.63" cy="-18" rx="27.11" ry="18"/>
<text text-anchor="middle" x="947.63" y="-12.57" font-family="Times New Roman,serif" font-size="14.00">float</text>
</g>
<!-- 13&#45;&gt;14 -->
<g id="edge14" class="edge">
<title>13&#45;&gt;14</title>
<path fill="none" stroke="black" d="M838.3,-18C860.94,-18 887.53,-18 908.7,-18"/>
<polygon fill="black" stroke="black" points="908.64,-21.5 918.64,-18 908.64,-14.5 908.64,-21.5"/>
</g>
</g>
</svg>
