<?xml version="1.0" encoding="UTF-8" standalone="no"?>
<!DOCTYPE svg PUBLIC "-//W3C//DTD SVG 1.1//EN"
 "http://www.w3.org/Graphics/SVG/1.1/DTD/svg11.dtd">
<!-- Generated by graphviz version 14.1.1 (20251213.1925)
 -->
<!-- Title: Interaction Pages: 1 -->
<svg width="770pt" height="260pt"
 viewBox="0.00 0.00 770.00 260.00" xmlns="http://www.w3.org/2000/svg" xmlns:xlink="http://www.w3.org/1999/xlink">
<g id="graph0" class="graph" transform="scale(1 1) rotate(0) translate(4 256)">
<title>Interaction</title>
<polygon fill="white" stroke="none" points="-4,4 -4,-256 765.92,-256 765.92,4 -4,4"/>
<!-- 0 -->
<!-- name: &quot;Interaction&quot;, typeName: &quot;&quot;, id: 0, branchId: 0, recurseId: &#45;1, attributes: 0, notes: &quot;&quot; -->
<g id="node1" class="node">
<title>0</title>
<ellipse fill="none" stroke="black" cx="50.84" cy="-126" rx="50.84" ry="18"/>
<text xml:space="preserve" text-anchor="middle" x="50.84" y="-120.95" font-family="Times New Roman,serif" font-size="14.00">Interaction</text>
</g>
<!-- 1 -->
<!-- name: &quot;Interacted Entity ID&quot;, typeName: &quot;&quot;, id: 1, branchId: 0, recurseId: &#45;1, attributes: 0, notes: &quot;&quot; -->
<g id="node2" class="node">
<title>1</title>
<ellipse fill="none" stroke="black" cx="240.21" cy="-234" rx="85.13" ry="18"/>
<text xml:space="preserve" text-anchor="middle" x="240.21" y="-228.95" font-family="Times New Roman,serif" font-size="14.00">Interacted Entity ID</text>
</g>
<!-- 0&#45;&gt;1 -->
<g id="edge1" class="edge">
<title>0&#45;&gt;1</title>
<path fill="none" stroke="black" d="M65.76,-143.53C81.35,-162.01 108.32,-190.65 137.68,-207 145.93,-211.59 154.99,-215.43 164.2,-218.63"/>
<polygon fill="black" stroke="black" points="163,-221.93 173.6,-221.65 165.14,-215.26 163,-221.93"/>
</g>
<!-- 3 -->
<!-- name: &quot;Interaction Type&quot;, typeName: &quot;&quot;, id: 3, branchId: 0, recurseId: &#45;1, attributes: 0, notes: &quot;&quot; -->
<g id="node4" class="node">
<title>3</title>
<ellipse fill="none" stroke="black" cx="240.21" cy="-180" rx="71.31" ry="18"/>
<text xml:space="preserve" text-anchor="middle" x="240.21" y="-174.95" font-family="Times New Roman,serif" font-size="14.00">Interaction Type</text>
</g>
<!-- 0&#45;&gt;3 -->
<g id="edge3" class="edge">
<title>0&#45;&gt;3</title>
<path fill="none" stroke="black" d="M89.33,-138.19C104.32,-142.96 121.77,-148.39 137.68,-153 150.68,-156.77 164.68,-160.63 178,-164.2"/>
<polygon fill="black" stroke="black" points="176.97,-167.54 187.53,-166.73 178.77,-160.78 176.97,-167.54"/>
</g>
<!-- 5 -->
<!-- name: &quot;Interaction Actor Type&quot;, typeName: &quot;&quot;, id: 5, branchId: 0, recurseId: &#45;1, attributes: 0, notes: &quot;&quot; -->
<g id="node6" class="node">
<title>5</title>
<ellipse fill="none" stroke="black" cx="240.21" cy="-126" rx="94.34" ry="18"/>
<text xml:space="preserve" text-anchor="middle" x="240.21" y="-120.95" font-family="Times New Roman,serif" font-size="14.00">Interaction Actor Type</text>
</g>
<!-- 0&#45;&gt;5 -->
<g id="edge5" class="edge">
<title>0&#45;&gt;5</title>
<path fill="none" stroke="black" d="M102.05,-126C112.13,-126 123.08,-126 134.24,-126"/>
<polygon fill="black" stroke="black" points="133.93,-129.5 143.93,-126 133.93,-122.5 133.93,-129.5"/>
</g>
<!-- 7 -->
<!-- name: &quot;Interaction Actor Variant&quot;, typeName: &quot;&quot;, id: 7, branchId: 0, recurseId: &#45;1, attributes: 0, notes: &quot;&quot; -->
<g id="node8" class="node">
<title>7</title>
<ellipse fill="none" stroke="black" cx="240.21" cy="-72" rx="102.53" ry="18"/>
<text xml:space="preserve" text-anchor="middle" x="240.21" y="-66.95" font-family="Times New Roman,serif" font-size="14.00">Interaction Actor Variant</text>
</g>
<!-- 0&#45;&gt;7 -->
<g id="edge7" class="edge">
<title>0&#45;&gt;7</title>
<path fill="none" stroke="black" d="M89.33,-113.81C104.32,-109.04 121.77,-103.61 137.68,-99 148.02,-96 158.98,-92.95 169.74,-90.03"/>
<polygon fill="black" stroke="black" points="170.62,-93.42 179.37,-87.44 168.8,-86.66 170.62,-93.42"/>
</g>
<!-- 9 -->
<!-- name: &quot;Interaction Actor Color&quot;, typeName: &quot;&quot;, id: 9, branchId: 0, recurseId: &#45;1, attributes: 0, notes: &quot;&quot; -->
<g id="node10" class="node">
<title>9</title>
<ellipse fill="none" stroke="black" cx="240.21" cy="-18" rx="97.41" ry="18"/>
<text xml:space="preserve" text-anchor="middle" x="240.21" y="-12.95" font-family="Times New Roman,serif" font-size="14.00">Interaction Actor Color</text>
</g>
<!-- 0&#45;&gt;9 -->
<g id="edge9" class="edge">
<title>0&#45;&gt;9</title>
<path fill="none" stroke="black" d="M65.76,-108.47C81.35,-89.99 108.32,-61.35 137.68,-45 144.8,-41.03 152.53,-37.63 160.44,-34.71"/>
<polygon fill="black" stroke="black" points="161.51,-38.04 169.86,-31.52 159.26,-31.42 161.51,-38.04"/>
</g>
<!-- 2 -->
<!-- name: &quot;varint64&quot;, typeName: &quot;&quot;, id: 2, branchId: 0, recurseId: &#45;1, attributes: 512, notes: &quot;&quot; -->
<g id="node3" class="node">
<title>2</title>
<ellipse fill="none" stroke="black" cx="570.33" cy="-234" rx="41.63" ry="18"/>
<text xml:space="preserve" text-anchor="middle" x="570.33" y="-228.95" font-family="Times New Roman,serif" font-size="14.00">varint64</text>
</g>
<!-- 1&#45;&gt;2 -->
<g id="edge2" class="edge">
<title>1&#45;&gt;2</title>
<path fill="none" stroke="black" d="M325.71,-234C386.13,-234 465.55,-234 517.02,-234"/>
<polygon fill="black" stroke="black" points="517,-237.5 527,-234 517,-230.5 517,-237.5"/>
</g>
<!-- 4 -->
<!-- name: &quot;enum enum MinecraftEventing::InteractionType&quot;, typeName: &quot;&quot;, id: 4, branchId: 0, recurseId: &#45;1, attributes: 512, notes: &quot;&quot; -->
<g id="node5" class="node">
<title>4</title>
<ellipse fill="none" stroke="black" cx="570.33" cy="-180" rx="191.59" ry="18"/>
<text xml:space="preserve" text-anchor="middle" x="570.33" y="-174.95" font-family="Times New Roman,serif" font-size="14.00">enum enum MinecraftEventing::InteractionType</text>
</g>
<!-- 3&#45;&gt;4 -->
<g id="edge4" class="edge">
<title>3&#45;&gt;4</title>
<path fill="none" stroke="black" d="M312,-180C328.86,-180 347.67,-180 367.25,-180"/>
<polygon fill="black" stroke="black" points="367.02,-183.5 377.02,-180 367.02,-176.5 367.02,-183.5"/>
</g>
<!-- 6 -->
<!-- name: &quot;varint&quot;, typeName: &quot;&quot;, id: 6, branchId: 0, recurseId: &#45;1, attributes: 512, notes: &quot;&quot; -->
<g id="node7" class="node">
<title>6</title>
<ellipse fill="none" stroke="black" cx="570.33" cy="-126" rx="32.41" ry="18"/>
<text xml:space="preserve" text-anchor="middle" x="570.33" y="-120.95" font-family="Times New Roman,serif" font-size="14.00">varint</text>
</g>
<!-- 5&#45;&gt;6 -->
<g id="edge6" class="edge">
<title>5&#45;&gt;6</title>
<path fill="none" stroke="black" d="M334.8,-126C397.8,-126 477.91,-126 526.32,-126"/>
<polygon fill="black" stroke="black" points="526.11,-129.5 536.11,-126 526.11,-122.5 526.11,-129.5"/>
</g>
<!-- 8 -->
<!-- name: &quot;varint&quot;, typeName: &quot;&quot;, id: 8, branchId: 0, recurseId: &#45;1, attributes: 512, notes: &quot;&quot; -->
<g id="node9" class="node">
<title>8</title>
<ellipse fill="none" stroke="black" cx="570.33" cy="-72" rx="32.41" ry="18"/>
<text xml:space="preserve" text-anchor="middle" x="570.33" y="-66.95" font-family="Times New Roman,serif" font-size="14.00">varint</text>
</g>
<!-- 7&#45;&gt;8 -->
<g id="edge8" class="edge">
<title>7&#45;&gt;8</title>
<path fill="none" stroke="black" d="M343.23,-72C404.67,-72 479.72,-72 526.02,-72"/>
<polygon fill="black" stroke="black" points="525.91,-75.5 535.91,-72 525.91,-68.5 525.91,-75.5"/>
</g>
<!-- 10 -->
<!-- name: &quot;unsigned byte&quot;, typeName: &quot;&quot;, id: 10, branchId: 0, recurseId: &#45;1, attributes: 512, notes: &quot;&quot; -->
<g id="node11" class="node">
<title>10</title>
<ellipse fill="none" stroke="black" cx="570.33" cy="-18" rx="62.61" ry="18"/>
<text xml:space="preserve" text-anchor="middle" x="570.33" y="-12.95" font-family="Times New Roman,serif" font-size="14.00">unsigned byte</text>
</g>
<!-- 9&#45;&gt;10 -->
<g id="edge10" class="edge">
<title>9&#45;&gt;10</title>
<path fill="none" stroke="black" d="M337.88,-18C388.53,-18 449.54,-18 496.21,-18"/>
<polygon fill="black" stroke="black" points="495.93,-21.5 505.93,-18 495.93,-14.5 495.93,-21.5"/>
</g>
</g>
</svg>
