<?xml version="1.0" encoding="UTF-8" standalone="no"?>
<!DOCTYPE svg PUBLIC "-//W3C//DTD SVG 1.1//EN"
 "http://www.w3.org/Graphics/SVG/1.1/DTD/svg11.dtd">
<!-- Generated by graphviz version 2.46.1 (20210213.1702)
 -->
<!-- Title: InteractPacket Pages: 1 -->
<svg width="994pt" height="314pt"
 viewBox="0.00 0.00 994.45 314.00" xmlns="http://www.w3.org/2000/svg" xmlns:xlink="http://www.w3.org/1999/xlink">
<g id="graph0" class="graph" transform="scale(1 1) rotate(0) translate(4 310)">
<title>InteractPacket</title>
<polygon fill="white" stroke="transparent" points="-4,4 -4,-310 990.45,-310 990.45,4 -4,4"/>
<!-- 0 -->
<!-- name: &quot;InteractPacket&quot;, typeName: &quot;&quot;, id: 0, branchId: 33, recurseId: &#45;1, attributes: 0, notes: &quot;&quot; -->
<g id="node1" class="node">
<title>0</title>
<ellipse fill="none" stroke="black" cx="62.39" cy="-234" rx="62.29" ry="18"/>
<text text-anchor="middle" x="62.39" y="-230.3" font-family="Times New Roman,serif" font-size="14.00">InteractPacket</text>
</g>
<!-- 1 -->
<!-- name: &quot;Action&quot;, typeName: &quot;&quot;, id: 1, branchId: 0, recurseId: &#45;1, attributes: 0, notes: &quot;enumeration: InteractPacket::Action&quot; -->
<g id="node2" class="node">
<title>1</title>
<ellipse fill="none" stroke="black" cx="632.23" cy="-286" rx="35.19" ry="18"/>
<text text-anchor="middle" x="632.23" y="-282.3" font-family="Times New Roman,serif" font-size="14.00">Action</text>
</g>
<!-- 0&#45;&gt;1 -->
<g id="edge1" class="edge">
<title>0&#45;&gt;1</title>
<path fill="none" stroke="black" d="M104.18,-247.44C121.45,-252.57 141.91,-257.92 160.79,-261 315.8,-286.3 502.98,-287.71 586.83,-286.84"/>
<polygon fill="black" stroke="black" points="587.06,-290.33 597.01,-286.71 586.97,-283.33 587.06,-290.33"/>
</g>
<!-- 3 -->
<!-- name: &quot;Target Runtime ID&quot;, typeName: &quot;ActorRuntimeID&quot;, id: 3, branchId: 0, recurseId: &#45;1, attributes: 256, notes: &quot;&quot; -->
<g id="node4" class="node">
<title>3</title>
<ellipse fill="none" stroke="black" cx="358.29" cy="-234" rx="78.79" ry="18"/>
<text text-anchor="middle" x="358.29" y="-230.3" font-family="Times New Roman,serif" font-size="14.00">Target Runtime ID</text>
</g>
<!-- 0&#45;&gt;3 -->
<g id="edge3" class="edge">
<title>0&#45;&gt;3</title>
<path fill="none" stroke="black" d="M125,-234C166.87,-234 222.89,-234 269.42,-234"/>
<polygon fill="black" stroke="black" points="269.5,-237.5 279.5,-234 269.5,-230.5 269.5,-237.5"/>
</g>
<!-- 5 -->
<!-- name: &quot;Dependency on &#39;Action == InteractUpdate || Action == StopRiding&#39;&quot;, typeName: &quot;&quot;, id: 5, branchId: 0, recurseId: &#45;1, attributes: 2, notes: &quot;&quot; -->
<g id="node6" class="node">
<title>5</title>
<polygon fill="none" stroke="black" points="549.79,-198 160.79,-198 160.79,-162 555.79,-162 555.79,-192 549.79,-198"/>
<polyline fill="none" stroke="black" points="549.79,-198 549.79,-192 "/>
<polyline fill="none" stroke="black" points="555.79,-192 549.79,-192 "/>
<text text-anchor="middle" x="358.29" y="-176.3" font-family="Times New Roman,serif" font-size="14.00">Dependency on &#39;Action == InteractUpdate || Action == StopRiding&#39;</text>
</g>
<!-- 0&#45;&gt;5 -->
<g id="edge5" class="edge">
<title>0&#45;&gt;5</title>
<path fill="none" stroke="black" d="M105.76,-220.93C122.74,-216.03 142.57,-210.76 160.79,-207 173.49,-204.38 186.7,-201.95 200,-199.7"/>
<polygon fill="black" stroke="black" points="200.89,-203.1 210.19,-198.02 199.75,-196.2 200.89,-203.1"/>
</g>
<!-- 2 -->
<!-- name: &quot;byte&quot;, typeName: &quot;&quot;, id: 2, branchId: 0, recurseId: &#45;1, attributes: 512, notes: &quot;&quot; -->
<g id="node3" class="node">
<title>2</title>
<ellipse fill="none" stroke="black" cx="914.96" cy="-288" rx="27" ry="18"/>
<text text-anchor="middle" x="914.96" y="-284.3" font-family="Times New Roman,serif" font-size="14.00">byte</text>
</g>
<!-- 1&#45;&gt;2 -->
<g id="edge2" class="edge">
<title>1&#45;&gt;2</title>
<path fill="none" stroke="black" d="M667.37,-286.24C720.66,-286.62 823.14,-287.35 877.7,-287.74"/>
<polygon fill="black" stroke="black" points="877.92,-291.24 887.95,-287.81 877.97,-284.24 877.92,-291.24"/>
</g>
<!-- 4 -->
<!-- name: &quot;ActorRuntimeID&quot;, typeName: &quot;&quot;, id: 4, branchId: 0, recurseId: &#45;1, attributes: 512, notes: &quot;&quot; -->
<g id="node5" class="node">
<title>4</title>
<ellipse fill="none" stroke="black" cx="914.96" cy="-234" rx="71.49" ry="18"/>
<text text-anchor="middle" x="914.96" y="-230.3" font-family="Times New Roman,serif" font-size="14.00">ActorRuntimeID</text>
</g>
<!-- 3&#45;&gt;4 -->
<g id="edge4" class="edge">
<title>3&#45;&gt;4</title>
<path fill="none" stroke="black" d="M437,-234C541.7,-234 727.15,-234 833.33,-234"/>
<polygon fill="black" stroke="black" points="833.36,-237.5 843.36,-234 833.36,-230.5 833.36,-237.5"/>
</g>
<!-- 6 -->
<!-- name: &quot;if (0)&quot;, typeName: &quot;&quot;, id: 6, branchId: 0, recurseId: &#45;1, attributes: 4, notes: &quot;&quot; -->
<g id="node7" class="node">
<title>6</title>
<polygon fill="none" stroke="black" points="632.23,-198 591.85,-180 632.23,-162 672.62,-180 632.23,-198"/>
<text text-anchor="middle" x="632.23" y="-176.3" font-family="Times New Roman,serif" font-size="14.00">if (0)</text>
</g>
<!-- 5&#45;&gt;6 -->
<g id="edge6" class="edge">
<title>5&#45;&gt;6</title>
<path fill="none" stroke="black" d="M555.84,-180C564.89,-180 573.49,-180 581.42,-180"/>
<polygon fill="black" stroke="black" points="581.45,-183.5 591.45,-180 581.45,-176.5 581.45,-183.5"/>
</g>
<!-- 8 -->
<!-- name: &quot;if (1)&quot;, typeName: &quot;&quot;, id: 8, branchId: 1, recurseId: &#45;1, attributes: 4, notes: &quot;&quot; -->
<g id="node9" class="node">
<title>8</title>
<polygon fill="none" stroke="black" points="632.23,-117 591.85,-99 632.23,-81 672.62,-99 632.23,-117"/>
<text text-anchor="middle" x="632.23" y="-95.3" font-family="Times New Roman,serif" font-size="14.00">if (1)</text>
</g>
<!-- 5&#45;&gt;8 -->
<g id="edge8" class="edge">
<title>5&#45;&gt;8</title>
<path fill="none" stroke="black" d="M419.98,-161.92C474.88,-145.57 553.68,-122.1 597.88,-108.93"/>
<polygon fill="black" stroke="black" points="598.97,-112.26 607.55,-106.05 596.97,-105.55 598.97,-112.26"/>
</g>
<!-- 7 -->
<!-- name: &quot;[No Data]&quot;, typeName: &quot;&quot;, id: 7, branchId: 0, recurseId: &#45;1, attributes: 512, notes: &quot;&quot; -->
<g id="node8" class="node">
<title>7</title>
<ellipse fill="none" stroke="black" cx="914.96" cy="-180" rx="46.59" ry="18"/>
<text text-anchor="middle" x="914.96" y="-176.3" font-family="Times New Roman,serif" font-size="14.00">[No Data]</text>
</g>
<!-- 6&#45;&gt;7 -->
<g id="edge7" class="edge">
<title>6&#45;&gt;7</title>
<path fill="none" stroke="black" d="M672.86,-180C721.13,-180 803.01,-180 857.78,-180"/>
<polygon fill="black" stroke="black" points="858.01,-183.5 868.01,-180 858.01,-176.5 858.01,-183.5"/>
</g>
<!-- 9 -->
<!-- name: &quot;Position X&quot;, typeName: &quot;&quot;, id: 9, branchId: 0, recurseId: &#45;1, attributes: 0, notes: &quot;&quot; -->
<g id="node10" class="node">
<title>9</title>
<ellipse fill="none" stroke="black" cx="758.07" cy="-126" rx="49.29" ry="18"/>
<text text-anchor="middle" x="758.07" y="-122.3" font-family="Times New Roman,serif" font-size="14.00">Position X</text>
</g>
<!-- 8&#45;&gt;9 -->
<g id="edge9" class="edge">
<title>8&#45;&gt;9</title>
<path fill="none" stroke="black" d="M659.8,-104.79C672.97,-107.66 689.36,-111.24 704.91,-114.63"/>
<polygon fill="black" stroke="black" points="704.44,-118.11 714.96,-116.82 705.93,-111.27 704.44,-118.11"/>
</g>
<!-- 11 -->
<!-- name: &quot;Position Y&quot;, typeName: &quot;&quot;, id: 11, branchId: 0, recurseId: &#45;1, attributes: 0, notes: &quot;&quot; -->
<g id="node12" class="node">
<title>11</title>
<ellipse fill="none" stroke="black" cx="758.07" cy="-72" rx="49.29" ry="18"/>
<text text-anchor="middle" x="758.07" y="-68.3" font-family="Times New Roman,serif" font-size="14.00">Position Y</text>
</g>
<!-- 8&#45;&gt;11 -->
<g id="edge11" class="edge">
<title>8&#45;&gt;11</title>
<path fill="none" stroke="black" d="M659.8,-93.21C672.97,-90.34 689.36,-86.76 704.91,-83.37"/>
<polygon fill="black" stroke="black" points="705.93,-86.73 714.96,-81.18 704.44,-79.89 705.93,-86.73"/>
</g>
<!-- 13 -->
<!-- name: &quot;Position Z&quot;, typeName: &quot;&quot;, id: 13, branchId: 0, recurseId: &#45;1, attributes: 0, notes: &quot;&quot; -->
<g id="node14" class="node">
<title>13</title>
<ellipse fill="none" stroke="black" cx="758.07" cy="-18" rx="48.19" ry="18"/>
<text text-anchor="middle" x="758.07" y="-14.3" font-family="Times New Roman,serif" font-size="14.00">Position Z</text>
</g>
<!-- 8&#45;&gt;13 -->
<g id="edge13" class="edge">
<title>8&#45;&gt;13</title>
<path fill="none" stroke="black" d="M647.92,-87.74C662.88,-76.44 686.91,-58.8 708.67,-45 712.53,-42.56 716.61,-40.09 720.71,-37.7"/>
<polygon fill="black" stroke="black" points="722.68,-40.61 729.62,-32.61 719.21,-34.53 722.68,-40.61"/>
</g>
<!-- 10 -->
<!-- name: &quot;float&quot;, typeName: &quot;&quot;, id: 10, branchId: 0, recurseId: &#45;1, attributes: 512, notes: &quot;&quot; -->
<g id="node11" class="node">
<title>10</title>
<ellipse fill="none" stroke="black" cx="914.96" cy="-126" rx="27" ry="18"/>
<text text-anchor="middle" x="914.96" y="-122.3" font-family="Times New Roman,serif" font-size="14.00">float</text>
</g>
<!-- 9&#45;&gt;10 -->
<g id="edge10" class="edge">
<title>9&#45;&gt;10</title>
<path fill="none" stroke="black" d="M807.65,-126C830.27,-126 856.72,-126 877.58,-126"/>
<polygon fill="black" stroke="black" points="877.63,-129.5 887.63,-126 877.63,-122.5 877.63,-129.5"/>
</g>
<!-- 12 -->
<!-- name: &quot;float&quot;, typeName: &quot;&quot;, id: 12, branchId: 0, recurseId: &#45;1, attributes: 512, notes: &quot;&quot; -->
<g id="node13" class="node">
<title>12</title>
<ellipse fill="none" stroke="black" cx="914.96" cy="-72" rx="27" ry="18"/>
<text text-anchor="middle" x="914.96" y="-68.3" font-family="Times New Roman,serif" font-size="14.00">float</text>
</g>
<!-- 11&#45;&gt;12 -->
<g id="edge12" class="edge">
<title>11&#45;&gt;12</title>
<path fill="none" stroke="black" d="M807.65,-72C830.27,-72 856.72,-72 877.58,-72"/>
<polygon fill="black" stroke="black" points="877.63,-75.5 887.63,-72 877.63,-68.5 877.63,-75.5"/>
</g>
<!-- 14 -->
<!-- name: &quot;float&quot;, typeName: &quot;&quot;, id: 14, branchId: 0, recurseId: &#45;1, attributes: 512, notes: &quot;&quot; -->
<g id="node15" class="node">
<title>14</title>
<ellipse fill="none" stroke="black" cx="914.96" cy="-18" rx="27" ry="18"/>
<text text-anchor="middle" x="914.96" y="-14.3" font-family="Times New Roman,serif" font-size="14.00">float</text>
</g>
<!-- 13&#45;&gt;14 -->
<g id="edge14" class="edge">
<title>13&#45;&gt;14</title>
<path fill="none" stroke="black" d="M806.38,-18C829.22,-18 856.19,-18 877.41,-18"/>
<polygon fill="black" stroke="black" points="877.63,-21.5 887.63,-18 877.63,-14.5 877.63,-21.5"/>
</g>
</g>
</svg>
