<?xml version="1.0" encoding="UTF-8" standalone="no"?>
<!DOCTYPE svg PUBLIC "-//W3C//DTD SVG 1.1//EN"
 "http://www.w3.org/Graphics/SVG/1.1/DTD/svg11.dtd">
<!-- Generated by graphviz version 11.0.0 (20240428.1522)
 -->
<!-- Title: InventorySlotPacket Pages: 1 -->
<svg width="665pt" height="260pt"
 viewBox="0.00 0.00 664.82 260.00" xmlns="http://www.w3.org/2000/svg" xmlns:xlink="http://www.w3.org/1999/xlink">
<g id="graph0" class="graph" transform="scale(1 1) rotate(0) translate(4 256)">
<title>InventorySlotPacket</title>
<polygon fill="white" stroke="none" points="-4,4 -4,-256 660.82,-256 660.82,4 -4,4"/>
<!-- 0 -->
<!-- name: &quot;InventorySlotPacket&quot;, typeName: &quot;&quot;, id: 0, branchId: 50, recurseId: &#45;1, attributes: 0, notes: &quot;&quot; -->
<g id="node1" class="node">
<title>0</title>
<ellipse fill="none" stroke="black" cx="85.99" cy="-126" rx="85.99" ry="18"/>
<text text-anchor="middle" x="85.99" y="-120.58" font-family="Times New Roman,serif" font-size="14.00">InventorySlotPacket</text>
</g>
<!-- 1 -->
<!-- name: &quot;Container ID&quot;, typeName: &quot;&quot;, id: 1, branchId: 0, recurseId: &#45;1, attributes: 0, notes: &quot;&quot; -->
<g id="node2" class="node">
<title>1</title>
<ellipse fill="none" stroke="black" cx="294.98" cy="-234" rx="58.55" ry="18"/>
<text text-anchor="middle" x="294.98" y="-228.57" font-family="Times New Roman,serif" font-size="14.00">Container ID</text>
</g>
<!-- 0&#45;&gt;1 -->
<g id="edge1" class="edge">
<title>0&#45;&gt;1</title>
<path fill="none" stroke="black" d="M109.02,-143.58C132.42,-161.56 171.06,-189.3 207.99,-207 217.42,-211.52 227.78,-215.52 237.95,-218.97"/>
<polygon fill="black" stroke="black" points="236.83,-222.28 247.42,-222.02 238.98,-215.62 236.83,-222.28"/>
</g>
<!-- 3 -->
<!-- name: &quot;Slot&quot;, typeName: &quot;&quot;, id: 3, branchId: 0, recurseId: &#45;1, attributes: 0, notes: &quot;&quot; -->
<g id="node4" class="node">
<title>3</title>
<ellipse fill="none" stroke="black" cx="294.98" cy="-180" rx="27" ry="18"/>
<text text-anchor="middle" x="294.98" y="-174.57" font-family="Times New Roman,serif" font-size="14.00">Slot</text>
</g>
<!-- 0&#45;&gt;3 -->
<g id="edge3" class="edge">
<title>0&#45;&gt;3</title>
<path fill="none" stroke="black" d="M141.38,-140.19C178.29,-149.82 226.05,-162.28 258.22,-170.67"/>
<polygon fill="black" stroke="black" points="257.3,-174.05 267.86,-173.19 259.07,-167.28 257.3,-174.05"/>
</g>
<!-- 5 -->
<!-- name: &quot;Full Container Name&quot;, typeName: &quot;FullContainerName&quot;, id: 5, branchId: 0, recurseId: &#45;1, attributes: 256, notes: &quot;Used to reference a specific container within a given screen container context&quot; -->
<g id="node6" class="node">
<title>5</title>
<ellipse fill="none" stroke="black" cx="294.98" cy="-126" rx="86.99" ry="18"/>
<text text-anchor="middle" x="294.98" y="-120.58" font-family="Times New Roman,serif" font-size="14.00">Full Container Name</text>
</g>
<!-- 0&#45;&gt;5 -->
<g id="edge5" class="edge">
<title>0&#45;&gt;5</title>
<path fill="none" stroke="black" d="M172.38,-126C180.32,-126 188.42,-126 196.47,-126"/>
<polygon fill="black" stroke="black" points="196.27,-129.5 206.27,-126 196.27,-122.5 196.27,-129.5"/>
</g>
<!-- 7 -->
<!-- name: &quot;Storage Item&quot;, typeName: &quot;NetworkItemStackDescriptor&quot;, id: 7, branchId: 0, recurseId: &#45;1, attributes: 256, notes: &quot;Optional storage item to set into. Only the item type is relevant, not any stack information.&quot; -->
<g id="node8" class="node">
<title>7</title>
<ellipse fill="none" stroke="black" cx="294.98" cy="-72" rx="58.05" ry="18"/>
<text text-anchor="middle" x="294.98" y="-66.58" font-family="Times New Roman,serif" font-size="14.00">Storage Item</text>
</g>
<!-- 0&#45;&gt;7 -->
<g id="edge7" class="edge">
<title>0&#45;&gt;7</title>
<path fill="none" stroke="black" d="M141.38,-111.81C171.46,-103.96 208.75,-94.24 238.94,-86.36"/>
<polygon fill="black" stroke="black" points="239.45,-89.84 248.25,-83.93 237.69,-83.07 239.45,-89.84"/>
</g>
<!-- 9 -->
<!-- name: &quot;Item&quot;, typeName: &quot;NetworkItemStackDescriptor&quot;, id: 9, branchId: 0, recurseId: &#45;1, attributes: 256, notes: &quot;&quot; -->
<g id="node10" class="node">
<title>9</title>
<ellipse fill="none" stroke="black" cx="294.98" cy="-18" rx="27.11" ry="18"/>
<text text-anchor="middle" x="294.98" y="-12.57" font-family="Times New Roman,serif" font-size="14.00">Item</text>
</g>
<!-- 0&#45;&gt;9 -->
<g id="edge9" class="edge">
<title>0&#45;&gt;9</title>
<path fill="none" stroke="black" d="M109.02,-108.42C132.42,-90.44 171.06,-62.7 207.99,-45 223.77,-37.43 242.18,-31.32 257.9,-26.84"/>
<polygon fill="black" stroke="black" points="258.61,-30.28 267.34,-24.27 256.77,-23.52 258.61,-30.28"/>
</g>
<!-- 2 -->
<!-- name: &quot;unsigned varint&quot;, typeName: &quot;&quot;, id: 2, branchId: 0, recurseId: &#45;1, attributes: 512, notes: &quot;&quot; -->
<g id="node3" class="node">
<title>2</title>
<ellipse fill="none" stroke="black" cx="537.4" cy="-234" rx="66.53" ry="18"/>
<text text-anchor="middle" x="537.4" y="-228.57" font-family="Times New Roman,serif" font-size="14.00">unsigned varint</text>
</g>
<!-- 1&#45;&gt;2 -->
<g id="edge2" class="edge">
<title>1&#45;&gt;2</title>
<path fill="none" stroke="black" d="M353.87,-234C385.45,-234 424.97,-234 459.15,-234"/>
<polygon fill="black" stroke="black" points="459,-237.5 469,-234 459,-230.5 459,-237.5"/>
</g>
<!-- 4 -->
<!-- name: &quot;unsigned varint&quot;, typeName: &quot;&quot;, id: 4, branchId: 0, recurseId: &#45;1, attributes: 512, notes: &quot;&quot; -->
<g id="node5" class="node">
<title>4</title>
<ellipse fill="none" stroke="black" cx="537.4" cy="-180" rx="66.53" ry="18"/>
<text text-anchor="middle" x="537.4" y="-174.57" font-family="Times New Roman,serif" font-size="14.00">unsigned varint</text>
</g>
<!-- 3&#45;&gt;4 -->
<g id="edge4" class="edge">
<title>3&#45;&gt;4</title>
<path fill="none" stroke="black" d="M322.17,-180C354.77,-180 411.91,-180 458.98,-180"/>
<polygon fill="black" stroke="black" points="458.89,-183.5 468.89,-180 458.89,-176.5 458.89,-183.5"/>
</g>
<!-- 6 -->
<!-- name: &quot;FullContainerName&quot;, typeName: &quot;&quot;, id: 6, branchId: 0, recurseId: &#45;1, attributes: 512, notes: &quot;&quot; -->
<g id="node7" class="node">
<title>6</title>
<ellipse fill="none" stroke="black" cx="537.4" cy="-126" rx="82" ry="18"/>
<text text-anchor="middle" x="537.4" y="-120.58" font-family="Times New Roman,serif" font-size="14.00">FullContainerName</text>
</g>
<!-- 5&#45;&gt;6 -->
<g id="edge6" class="edge">
<title>5&#45;&gt;6</title>
<path fill="none" stroke="black" d="M382.44,-126C402.33,-126 423.58,-126 443.73,-126"/>
<polygon fill="black" stroke="black" points="443.6,-129.5 453.6,-126 443.6,-122.5 443.6,-129.5"/>
</g>
<!-- 8 -->
<!-- name: &quot;NetworkItemStackDescriptor&quot;, typeName: &quot;&quot;, id: 8, branchId: 0, recurseId: &#45;1, attributes: 512, notes: &quot;&quot; -->
<g id="node9" class="node">
<title>8</title>
<ellipse fill="none" stroke="black" cx="537.4" cy="-72" rx="119.43" ry="18"/>
<text text-anchor="middle" x="537.4" y="-66.58" font-family="Times New Roman,serif" font-size="14.00">NetworkItemStackDescriptor</text>
</g>
<!-- 7&#45;&gt;8 -->
<g id="edge8" class="edge">
<title>7&#45;&gt;8</title>
<path fill="none" stroke="black" d="M353.26,-72C369.44,-72 387.73,-72 406.35,-72"/>
<polygon fill="black" stroke="black" points="406.13,-75.5 416.13,-72 406.13,-68.5 406.13,-75.5"/>
</g>
<!-- 10 -->
<!-- name: &quot;NetworkItemStackDescriptor&quot;, typeName: &quot;&quot;, id: 10, branchId: 0, recurseId: &#45;1, attributes: 512, notes: &quot;&quot; -->
<g id="node11" class="node">
<title>10</title>
<ellipse fill="none" stroke="black" cx="537.4" cy="-18" rx="119.43" ry="18"/>
<text text-anchor="middle" x="537.4" y="-12.57" font-family="Times New Roman,serif" font-size="14.00">NetworkItemStackDescriptor</text>
</g>
<!-- 9&#45;&gt;10 -->
<g id="edge10" class="edge">
<title>9&#45;&gt;10</title>
<path fill="none" stroke="black" d="M322.17,-18C343.12,-18 374.21,-18 406.25,-18"/>
<polygon fill="black" stroke="black" points="406.1,-21.5 416.1,-18 406.1,-14.5 406.1,-21.5"/>
</g>
</g>
</svg>
