<?xml version="1.0" encoding="UTF-8" standalone="no"?>
<!DOCTYPE svg PUBLIC "-//W3C//DTD SVG 1.1//EN"
 "http://www.w3.org/Graphics/SVG/1.1/DTD/svg11.dtd">
<!-- Generated by graphviz version 2.46.1 (20210213.1702)
 -->
<!-- Title: InventorySource Pages: 1 -->
<svg width="810pt" height="260pt"
 viewBox="0.00 0.00 809.85 260.00" xmlns="http://www.w3.org/2000/svg" xmlns:xlink="http://www.w3.org/1999/xlink">
<g id="graph0" class="graph" transform="scale(1 1) rotate(0) translate(4 256)">
<title>InventorySource</title>
<polygon fill="white" stroke="transparent" points="-4,4 -4,-256 805.85,-256 805.85,4 -4,4"/>
<!-- 30 -->
<!-- name: &quot;InventorySource&quot;, typeName: &quot;&quot;, id: 30, branchId: 0, recurseId: &#45;1, attributes: 0, notes: &quot;&quot; -->
<g id="node1" class="node">
<title>30</title>
<ellipse fill="none" stroke="black" cx="71.49" cy="-153" rx="71.49" ry="18"/>
<text text-anchor="middle" x="71.49" y="-149.3" font-family="Times New Roman,serif" font-size="14.00">InventorySource</text>
</g>
<!-- 31 -->
<!-- name: &quot;Source Type&quot;, typeName: &quot;&quot;, id: 31, branchId: 0, recurseId: &#45;1, attributes: 0, notes: &quot;enumeration: InventorySourceType&quot; -->
<g id="node2" class="node">
<title>31</title>
<ellipse fill="none" stroke="black" cx="272.49" cy="-207" rx="57.69" ry="18"/>
<text text-anchor="middle" x="272.49" y="-203.3" font-family="Times New Roman,serif" font-size="14.00">Source Type</text>
</g>
<!-- 30&#45;&gt;31 -->
<g id="edge1" class="edge">
<title>30&#45;&gt;31</title>
<path fill="none" stroke="black" d="M120.66,-166.07C150.12,-174.06 187.83,-184.3 218.18,-192.53"/>
<polygon fill="black" stroke="black" points="217.6,-196 228.17,-195.24 219.43,-189.25 217.6,-196"/>
</g>
<!-- 33 -->
<!-- name: &quot;Dependency on &#39;Source Type&#39;&quot;, typeName: &quot;&quot;, id: 33, branchId: 0, recurseId: &#45;1, attributes: 2, notes: &quot;&quot; -->
<g id="node4" class="node">
<title>33</title>
<polygon fill="none" stroke="black" points="359.99,-144 178.99,-144 178.99,-108 365.99,-108 365.99,-138 359.99,-144"/>
<polyline fill="none" stroke="black" points="359.99,-144 359.99,-138 "/>
<polyline fill="none" stroke="black" points="365.99,-138 359.99,-138 "/>
<text text-anchor="middle" x="272.49" y="-122.3" font-family="Times New Roman,serif" font-size="14.00">Dependency on &#39;Source Type&#39;</text>
</g>
<!-- 30&#45;&gt;33 -->
<g id="edge3" class="edge">
<title>30&#45;&gt;33</title>
<path fill="none" stroke="black" d="M134.91,-144.53C145.67,-143.07 157.1,-141.52 168.59,-139.96"/>
<polygon fill="black" stroke="black" points="169.24,-143.4 178.68,-138.59 168.3,-136.47 169.24,-143.4"/>
</g>
<!-- 32 -->
<!-- name: &quot;unsigned varint&quot;, typeName: &quot;&quot;, id: 32, branchId: 0, recurseId: &#45;1, attributes: 512, notes: &quot;&quot; -->
<g id="node3" class="node">
<title>32</title>
<ellipse fill="none" stroke="black" cx="736.21" cy="-234" rx="65.79" ry="18"/>
<text text-anchor="middle" x="736.21" y="-230.3" font-family="Times New Roman,serif" font-size="14.00">unsigned varint</text>
</g>
<!-- 31&#45;&gt;32 -->
<g id="edge2" class="edge">
<title>31&#45;&gt;32</title>
<path fill="none" stroke="black" d="M329.64,-210.28C412.92,-215.15 569.24,-224.29 661.59,-229.69"/>
<polygon fill="black" stroke="black" points="661.51,-233.2 671.7,-230.29 661.92,-226.21 661.51,-233.2"/>
</g>
<!-- 34 -->
<!-- name: &quot;if (0)&quot;, typeName: &quot;&quot;, id: 34, branchId: 0, recurseId: &#45;1, attributes: 4, notes: &quot;&quot; -->
<g id="node5" class="node">
<title>34</title>
<polygon fill="none" stroke="black" points="442.43,-198 402.04,-180 442.43,-162 482.82,-180 442.43,-198"/>
<text text-anchor="middle" x="442.43" y="-176.3" font-family="Times New Roman,serif" font-size="14.00">if (0)</text>
</g>
<!-- 33&#45;&gt;34 -->
<g id="edge4" class="edge">
<title>33&#45;&gt;34</title>
<path fill="none" stroke="black" d="M329.88,-144.13C355.99,-152.53 386.11,-162.21 408.46,-169.4"/>
<polygon fill="black" stroke="black" points="407.55,-172.78 418.14,-172.51 409.69,-166.12 407.55,-172.78"/>
</g>
<!-- 37 -->
<!-- name: &quot;if (1)&quot;, typeName: &quot;&quot;, id: 37, branchId: 1, recurseId: &#45;1, attributes: 4, notes: &quot;&quot; -->
<g id="node8" class="node">
<title>37</title>
<polygon fill="none" stroke="black" points="442.43,-144 402.04,-126 442.43,-108 482.82,-126 442.43,-144"/>
<text text-anchor="middle" x="442.43" y="-122.3" font-family="Times New Roman,serif" font-size="14.00">if (1)</text>
</g>
<!-- 33&#45;&gt;37 -->
<g id="edge7" class="edge">
<title>33&#45;&gt;37</title>
<path fill="none" stroke="black" d="M366.3,-126C374.95,-126 383.47,-126 391.5,-126"/>
<polygon fill="black" stroke="black" points="391.73,-129.5 401.73,-126 391.73,-122.5 391.73,-129.5"/>
</g>
<!-- 39 -->
<!-- name: &quot;if (2)&quot;, typeName: &quot;&quot;, id: 39, branchId: 2, recurseId: &#45;1, attributes: 4, notes: &quot;&quot; -->
<g id="node10" class="node">
<title>39</title>
<polygon fill="none" stroke="black" points="442.43,-90 402.04,-72 442.43,-54 482.82,-72 442.43,-90"/>
<text text-anchor="middle" x="442.43" y="-68.3" font-family="Times New Roman,serif" font-size="14.00">if (2)</text>
</g>
<!-- 33&#45;&gt;39 -->
<g id="edge9" class="edge">
<title>33&#45;&gt;39</title>
<path fill="none" stroke="black" d="M329.88,-107.87C355.99,-99.47 386.11,-89.79 408.46,-82.6"/>
<polygon fill="black" stroke="black" points="409.69,-85.88 418.14,-79.49 407.55,-79.22 409.69,-85.88"/>
</g>
<!-- 42 -->
<!-- name: &quot;if (3)&quot;, typeName: &quot;&quot;, id: 42, branchId: 3, recurseId: &#45;1, attributes: 4, notes: &quot;&quot; -->
<g id="node13" class="node">
<title>42</title>
<polygon fill="none" stroke="black" points="576.72,-36 536.33,-18 576.72,0 617.1,-18 576.72,-36"/>
<text text-anchor="middle" x="576.72" y="-14.3" font-family="Times New Roman,serif" font-size="14.00">if (3)</text>
</g>
<!-- 33&#45;&gt;42 -->
<g id="edge12" class="edge">
<title>33&#45;&gt;42</title>
<path fill="none" stroke="black" d="M296.1,-107.67C320.64,-88.79 361.73,-60.07 401.99,-45 443.35,-29.51 493.47,-22.9 529.22,-20.09"/>
<polygon fill="black" stroke="black" points="529.64,-23.57 539.37,-19.36 529.14,-16.59 529.64,-23.57"/>
</g>
<!-- 35 -->
<!-- name: &quot;Container ID&quot;, typeName: &quot;&quot;, id: 35, branchId: 0, recurseId: &#45;1, attributes: 0, notes: &quot;enumeration: ContainerID&quot; -->
<g id="node6" class="node">
<title>35</title>
<ellipse fill="none" stroke="black" cx="576.72" cy="-180" rx="57.69" ry="18"/>
<text text-anchor="middle" x="576.72" y="-176.3" font-family="Times New Roman,serif" font-size="14.00">Container ID</text>
</g>
<!-- 34&#45;&gt;35 -->
<g id="edge5" class="edge">
<title>34&#45;&gt;35</title>
<path fill="none" stroke="black" d="M483.12,-180C491.11,-180 499.71,-180 508.34,-180"/>
<polygon fill="black" stroke="black" points="508.45,-183.5 518.45,-180 508.45,-176.5 508.45,-183.5"/>
</g>
<!-- 36 -->
<!-- name: &quot;varint&quot;, typeName: &quot;&quot;, id: 36, branchId: 0, recurseId: &#45;1, attributes: 512, notes: &quot;&quot; -->
<g id="node7" class="node">
<title>36</title>
<ellipse fill="none" stroke="black" cx="736.21" cy="-180" rx="30.59" ry="18"/>
<text text-anchor="middle" x="736.21" y="-176.3" font-family="Times New Roman,serif" font-size="14.00">varint</text>
</g>
<!-- 35&#45;&gt;36 -->
<g id="edge6" class="edge">
<title>35&#45;&gt;36</title>
<path fill="none" stroke="black" d="M634.58,-180C654.7,-180 676.9,-180 695.32,-180"/>
<polygon fill="black" stroke="black" points="695.4,-183.5 705.4,-180 695.4,-176.5 695.4,-183.5"/>
</g>
<!-- 38 -->
<!-- name: &quot;[No Data]&quot;, typeName: &quot;&quot;, id: 38, branchId: 0, recurseId: &#45;1, attributes: 512, notes: &quot;&quot; -->
<g id="node9" class="node">
<title>38</title>
<ellipse fill="none" stroke="black" cx="736.21" cy="-126" rx="46.59" ry="18"/>
<text text-anchor="middle" x="736.21" y="-122.3" font-family="Times New Roman,serif" font-size="14.00">[No Data]</text>
</g>
<!-- 37&#45;&gt;38 -->
<g id="edge8" class="edge">
<title>37&#45;&gt;38</title>
<path fill="none" stroke="black" d="M483.08,-126C533.8,-126 621.91,-126 679.39,-126"/>
<polygon fill="black" stroke="black" points="679.39,-129.5 689.39,-126 679.39,-122.5 679.39,-129.5"/>
</g>
<!-- 40 -->
<!-- name: &quot;Bit Flags&quot;, typeName: &quot;&quot;, id: 40, branchId: 0, recurseId: &#45;1, attributes: 0, notes: &quot;enumeration: InventorySource::InventorySourceFlags&quot; -->
<g id="node11" class="node">
<title>40</title>
<ellipse fill="none" stroke="black" cx="576.72" cy="-72" rx="42.79" ry="18"/>
<text text-anchor="middle" x="576.72" y="-68.3" font-family="Times New Roman,serif" font-size="14.00">Bit Flags</text>
</g>
<!-- 39&#45;&gt;40 -->
<g id="edge10" class="edge">
<title>39&#45;&gt;40</title>
<path fill="none" stroke="black" d="M483.12,-72C495.86,-72 510.16,-72 523.64,-72"/>
<polygon fill="black" stroke="black" points="523.76,-75.5 533.76,-72 523.76,-68.5 523.76,-75.5"/>
</g>
<!-- 41 -->
<!-- name: &quot;unsigned varint&quot;, typeName: &quot;&quot;, id: 41, branchId: 0, recurseId: &#45;1, attributes: 512, notes: &quot;&quot; -->
<g id="node12" class="node">
<title>41</title>
<ellipse fill="none" stroke="black" cx="736.21" cy="-72" rx="65.79" ry="18"/>
<text text-anchor="middle" x="736.21" y="-68.3" font-family="Times New Roman,serif" font-size="14.00">unsigned varint</text>
</g>
<!-- 40&#45;&gt;41 -->
<g id="edge11" class="edge">
<title>40&#45;&gt;41</title>
<path fill="none" stroke="black" d="M619.92,-72C632.39,-72 646.42,-72 660.29,-72"/>
<polygon fill="black" stroke="black" points="660.34,-75.5 670.34,-72 660.34,-68.5 660.34,-75.5"/>
</g>
<!-- 43 -->
<!-- name: &quot;[No Data]&quot;, typeName: &quot;&quot;, id: 43, branchId: 0, recurseId: &#45;1, attributes: 512, notes: &quot;&quot; -->
<g id="node14" class="node">
<title>43</title>
<ellipse fill="none" stroke="black" cx="736.21" cy="-18" rx="46.59" ry="18"/>
<text text-anchor="middle" x="736.21" y="-14.3" font-family="Times New Roman,serif" font-size="14.00">[No Data]</text>
</g>
<!-- 42&#45;&gt;43 -->
<g id="edge13" class="edge">
<title>42&#45;&gt;43</title>
<path fill="none" stroke="black" d="M617.46,-18C636.17,-18 658.81,-18 679.21,-18"/>
<polygon fill="black" stroke="black" points="679.34,-21.5 689.34,-18 679.34,-14.5 679.34,-21.5"/>
</g>
</g>
</svg>
