<?xml version="1.0" encoding="UTF-8" standalone="no"?>
<!DOCTYPE svg PUBLIC "-//W3C//DTD SVG 1.1//EN"
 "http://www.w3.org/Graphics/SVG/1.1/DTD/svg11.dtd">
<!-- Generated by graphviz version 12.2.1 (20241206.2353)
 -->
<!-- Title: InventorySource Pages: 1 -->
<svg width="1197pt" height="368pt"
 viewBox="0.00 0.00 1196.90 368.00" xmlns="http://www.w3.org/2000/svg" xmlns:xlink="http://www.w3.org/1999/xlink">
<g id="graph0" class="graph" transform="scale(1 1) rotate(0) translate(4 364)">
<title>InventorySource</title>
<polygon fill="white" stroke="none" points="-4,4 -4,-364 1192.9,-364 1192.9,4 -4,4"/>
<!-- 30 -->
<!-- name: &quot;InventorySource&quot;, typeName: &quot;&quot;, id: 30, branchId: 0, recurseId: &#45;1, attributes: 0, notes: &quot;&quot; -->
<g id="node1" class="node">
<title>30</title>
<ellipse fill="none" stroke="black" cx="72.34" cy="-207" rx="72.34" ry="18"/>
<text text-anchor="middle" x="72.34" y="-201.95" font-family="Times New Roman,serif" font-size="14.00">InventorySource</text>
</g>
<!-- 31 -->
<!-- name: &quot;Source Type&quot;, typeName: &quot;&quot;, id: 31, branchId: 0, recurseId: &#45;1, attributes: 0, notes: &quot;&quot; -->
<g id="node2" class="node">
<title>31</title>
<ellipse fill="none" stroke="black" cx="268.92" cy="-288" rx="56.98" ry="18"/>
<text text-anchor="middle" x="268.92" y="-282.95" font-family="Times New Roman,serif" font-size="14.00">Source Type</text>
</g>
<!-- 30&#45;&gt;31 -->
<g id="edge1" class="edge">
<title>30&#45;&gt;31</title>
<path fill="none" stroke="black" d="M110.85,-222.62C142.84,-235.93 188.91,-255.11 222.88,-269.25"/>
<polygon fill="black" stroke="black" points="221.48,-272.46 232.06,-273.07 224.17,-266 221.48,-272.46"/>
</g>
<!-- 33 -->
<!-- name: &quot;Dependency on &#39;Source Type&#39;&quot;, typeName: &quot;&quot;, id: 33, branchId: 0, recurseId: &#45;1, attributes: 2, notes: &quot;&quot; -->
<g id="node4" class="node">
<title>33</title>
<polygon fill="none" stroke="black" points="351.17,-198 180.67,-198 180.67,-162 357.17,-162 357.17,-192 351.17,-198"/>
<polyline fill="none" stroke="black" points="351.17,-198 351.17,-192"/>
<polyline fill="none" stroke="black" points="357.17,-192 351.17,-192"/>
<text text-anchor="middle" x="268.92" y="-174.95" font-family="Times New Roman,serif" font-size="14.00">Dependency on &#39;Source Type&#39;</text>
</g>
<!-- 30&#45;&gt;33 -->
<g id="edge3" class="edge">
<title>30&#45;&gt;33</title>
<path fill="none" stroke="black" d="M136.24,-198.27C146.82,-196.8 158.02,-195.25 169.24,-193.69"/>
<polygon fill="black" stroke="black" points="169.53,-197.19 178.95,-192.35 168.56,-190.25 169.53,-197.19"/>
</g>
<!-- 32 -->
<!-- name: &quot;unsigned varint&quot;, typeName: &quot;&quot;, id: 32, branchId: 0, recurseId: &#45;1, attributes: 512, notes: &quot;&quot; -->
<g id="node3" class="node">
<title>32</title>
<ellipse fill="none" stroke="black" cx="1120.66" cy="-342" rx="68.24" ry="18"/>
<text text-anchor="middle" x="1120.66" y="-336.95" font-family="Times New Roman,serif" font-size="14.00">unsigned varint</text>
</g>
<!-- 31&#45;&gt;32 -->
<g id="edge2" class="edge">
<title>31&#45;&gt;32</title>
<path fill="none" stroke="black" d="M316.51,-298.31C339.47,-302.98 367.65,-308.09 393.17,-311 627.63,-337.74 907.03,-341.96 1040.74,-342.29"/>
<polygon fill="black" stroke="black" points="1040.54,-345.79 1050.54,-342.3 1040.55,-338.79 1040.54,-345.79"/>
</g>
<!-- 34 -->
<!-- name: &quot;ContainerInventory&quot;, typeName: &quot;&quot;, id: 34, branchId: 0, recurseId: &#45;1, attributes: 4, notes: &quot;&quot; -->
<g id="node5" class="node">
<title>34</title>
<polygon fill="none" stroke="black" points="576.54,-302 459.04,-284 576.54,-266 694.03,-284 576.54,-302"/>
<text text-anchor="middle" x="576.54" y="-278.95" font-family="Times New Roman,serif" font-size="14.00">ContainerInventory</text>
</g>
<!-- 33&#45;&gt;34 -->
<g id="edge4" class="edge">
<title>33&#45;&gt;34</title>
<path fill="none" stroke="black" d="M299.8,-198.36C324.15,-212.62 359.85,-231.93 393.17,-244 428.77,-256.89 469.84,-266.34 503.99,-272.81"/>
<polygon fill="black" stroke="black" points="503.33,-276.25 513.79,-274.62 504.59,-269.37 503.33,-276.25"/>
</g>
<!-- 37 -->
<!-- name: &quot;GlobalInventory&quot;, typeName: &quot;&quot;, id: 37, branchId: 1, recurseId: &#45;1, attributes: 4, notes: &quot;&quot; -->
<g id="node8" class="node">
<title>37</title>
<polygon fill="none" stroke="black" points="906.16,-252 804.59,-234 906.16,-216 1007.73,-234 906.16,-252"/>
<text text-anchor="middle" x="906.16" y="-228.95" font-family="Times New Roman,serif" font-size="14.00">GlobalInventory</text>
</g>
<!-- 33&#45;&gt;37 -->
<g id="edge7" class="edge">
<title>33&#45;&gt;37</title>
<path fill="none" stroke="black" d="M344.86,-198.46C360.72,-201.79 377.43,-204.88 393.17,-207 530.06,-225.48 689.12,-231.47 793.18,-233.33"/>
<polygon fill="black" stroke="black" points="793.07,-236.83 803.13,-233.5 793.19,-229.83 793.07,-236.83"/>
</g>
<!-- 39 -->
<!-- name: &quot;WorldInteraction&quot;, typeName: &quot;&quot;, id: 39, branchId: 2, recurseId: &#45;1, attributes: 4, notes: &quot;&quot; -->
<g id="node10" class="node">
<title>39</title>
<polygon fill="none" stroke="black" points="576.54,-198 472.07,-180 576.54,-162 681,-180 576.54,-198"/>
<text text-anchor="middle" x="576.54" y="-174.95" font-family="Times New Roman,serif" font-size="14.00">WorldInteraction</text>
</g>
<!-- 33&#45;&gt;39 -->
<g id="edge9" class="edge">
<title>33&#45;&gt;39</title>
<path fill="none" stroke="black" d="M357.5,-180C388.8,-180 424.59,-180 458,-180"/>
<polygon fill="black" stroke="black" points="457.72,-183.5 467.72,-180 457.72,-176.5 457.72,-183.5"/>
</g>
<!-- 42 -->
<!-- name: &quot;CreativeInventory&quot;, typeName: &quot;&quot;, id: 42, branchId: 3, recurseId: &#45;1, attributes: 4, notes: &quot;&quot; -->
<g id="node13" class="node">
<title>42</title>
<polygon fill="none" stroke="black" points="906.16,-144 795.9,-126 906.16,-108 1016.42,-126 906.16,-144"/>
<text text-anchor="middle" x="906.16" y="-120.95" font-family="Times New Roman,serif" font-size="14.00">CreativeInventory</text>
</g>
<!-- 33&#45;&gt;42 -->
<g id="edge12" class="edge">
<title>33&#45;&gt;42</title>
<path fill="none" stroke="black" d="M344.86,-161.54C360.72,-158.21 377.43,-155.12 393.17,-153 526.66,-134.98 681.23,-128.83 785.32,-126.81"/>
<polygon fill="black" stroke="black" points="785.36,-130.31 795.3,-126.63 785.23,-123.31 785.36,-130.31"/>
</g>
<!-- 44 -->
<!-- name: &quot;NonImplementedFeatureTODO&quot;, typeName: &quot;&quot;, id: 44, branchId: 4, recurseId: &#45;1, attributes: 4, notes: &quot;&quot; -->
<g id="node15" class="node">
<title>44</title>
<polygon fill="none" stroke="black" points="576.54,-100 393.17,-82 576.54,-64 759.9,-82 576.54,-100"/>
<text text-anchor="middle" x="576.54" y="-76.95" font-family="Times New Roman,serif" font-size="14.00">NonImplementedFeatureTODO</text>
</g>
<!-- 33&#45;&gt;44 -->
<g id="edge14" class="edge">
<title>33&#45;&gt;44</title>
<path fill="none" stroke="black" d="M300.56,-161.64C324.9,-147.79 360.21,-129.31 393.17,-118 422.67,-107.88 455.89,-100.27 485.82,-94.72"/>
<polygon fill="black" stroke="black" points="486.4,-98.17 495.62,-92.95 485.16,-91.28 486.4,-98.17"/>
</g>
<!-- 47 -->
<!-- name: &quot;Default&quot;, typeName: &quot;&quot;, id: 47, branchId: 5, recurseId: &#45;1, attributes: 4, notes: &quot;&quot; -->
<g id="node18" class="node">
<title>47</title>
<polygon fill="none" stroke="black" points="576.54,-38 522.01,-20 576.54,-2 631.06,-20 576.54,-38"/>
<text text-anchor="middle" x="576.54" y="-14.95" font-family="Times New Roman,serif" font-size="14.00">Default</text>
</g>
<!-- 33&#45;&gt;47 -->
<g id="edge17" class="edge">
<title>33&#45;&gt;47</title>
<path fill="none" stroke="black" d="M282.27,-161.72C302.14,-133.87 343.99,-81.3 393.17,-55 430.53,-35.02 477.58,-26.33 514.54,-22.61"/>
<polygon fill="black" stroke="black" points="514.51,-26.12 524.15,-21.74 513.88,-19.15 514.51,-26.12"/>
</g>
<!-- 35 -->
<!-- name: &quot;Container ID&quot;, typeName: &quot;&quot;, id: 35, branchId: 0, recurseId: &#45;1, attributes: 0, notes: &quot;&quot; -->
<g id="node6" class="node">
<title>35</title>
<ellipse fill="none" stroke="black" cx="906.16" cy="-288" rx="59.54" ry="18"/>
<text text-anchor="middle" x="906.16" y="-282.95" font-family="Times New Roman,serif" font-size="14.00">Container ID</text>
</g>
<!-- 34&#45;&gt;35 -->
<g id="edge5" class="edge">
<title>34&#45;&gt;35</title>
<path fill="none" stroke="black" d="M688.45,-285.35C736.92,-285.95 792.3,-286.62 834.94,-287.14"/>
<polygon fill="black" stroke="black" points="834.78,-290.64 844.82,-287.26 834.87,-283.64 834.78,-290.64"/>
</g>
<!-- 36 -->
<!-- name: &quot;varint&quot;, typeName: &quot;&quot;, id: 36, branchId: 0, recurseId: &#45;1, attributes: 512, notes: &quot;&quot; -->
<g id="node7" class="node">
<title>36</title>
<ellipse fill="none" stroke="black" cx="1120.66" cy="-288" rx="32.41" ry="18"/>
<text text-anchor="middle" x="1120.66" y="-282.95" font-family="Times New Roman,serif" font-size="14.00">varint</text>
</g>
<!-- 35&#45;&gt;36 -->
<g id="edge6" class="edge">
<title>35&#45;&gt;36</title>
<path fill="none" stroke="black" d="M966.07,-288C1001.19,-288 1044.97,-288 1076.8,-288"/>
<polygon fill="black" stroke="black" points="1076.43,-291.5 1086.43,-288 1076.43,-284.5 1076.43,-291.5"/>
</g>
<!-- 38 -->
<!-- name: &quot;[No Data]&quot;, typeName: &quot;&quot;, id: 38, branchId: 0, recurseId: &#45;1, attributes: 512, notes: &quot;&quot; -->
<g id="node9" class="node">
<title>38</title>
<ellipse fill="none" stroke="black" cx="1120.66" cy="-234" rx="48.28" ry="18"/>
<text text-anchor="middle" x="1120.66" y="-228.95" font-family="Times New Roman,serif" font-size="14.00">[No Data]</text>
</g>
<!-- 37&#45;&gt;38 -->
<g id="edge8" class="edge">
<title>37&#45;&gt;38</title>
<path fill="none" stroke="black" d="M1010.3,-234C1027.66,-234 1045.13,-234 1060.85,-234"/>
<polygon fill="black" stroke="black" points="1060.45,-237.5 1070.45,-234 1060.45,-230.5 1060.45,-237.5"/>
</g>
<!-- 40 -->
<!-- name: &quot;Bit Flags&quot;, typeName: &quot;&quot;, id: 40, branchId: 0, recurseId: &#45;1, attributes: 0, notes: &quot;&quot; -->
<g id="node11" class="node">
<title>40</title>
<ellipse fill="none" stroke="black" cx="906.16" cy="-180" rx="44.7" ry="18"/>
<text text-anchor="middle" x="906.16" y="-174.95" font-family="Times New Roman,serif" font-size="14.00">Bit Flags</text>
</g>
<!-- 39&#45;&gt;40 -->
<g id="edge10" class="edge">
<title>39&#45;&gt;40</title>
<path fill="none" stroke="black" d="M683.91,-180C739.25,-180 804.61,-180 849.88,-180"/>
<polygon fill="black" stroke="black" points="849.71,-183.5 859.71,-180 849.71,-176.5 849.71,-183.5"/>
</g>
<!-- 41 -->
<!-- name: &quot;unsigned varint&quot;, typeName: &quot;&quot;, id: 41, branchId: 0, recurseId: &#45;1, attributes: 512, notes: &quot;&quot; -->
<g id="node12" class="node">
<title>41</title>
<ellipse fill="none" stroke="black" cx="1120.66" cy="-180" rx="68.24" ry="18"/>
<text text-anchor="middle" x="1120.66" y="-174.95" font-family="Times New Roman,serif" font-size="14.00">unsigned varint</text>
</g>
<!-- 40&#45;&gt;41 -->
<g id="edge11" class="edge">
<title>40&#45;&gt;41</title>
<path fill="none" stroke="black" d="M951.19,-180C977.06,-180 1010.53,-180 1040.81,-180"/>
<polygon fill="black" stroke="black" points="1040.73,-183.5 1050.73,-180 1040.73,-176.5 1040.73,-183.5"/>
</g>
<!-- 43 -->
<!-- name: &quot;[No Data]&quot;, typeName: &quot;&quot;, id: 43, branchId: 0, recurseId: &#45;1, attributes: 512, notes: &quot;&quot; -->
<g id="node14" class="node">
<title>43</title>
<ellipse fill="none" stroke="black" cx="1120.66" cy="-126" rx="48.28" ry="18"/>
<text text-anchor="middle" x="1120.66" y="-120.95" font-family="Times New Roman,serif" font-size="14.00">[No Data]</text>
</g>
<!-- 42&#45;&gt;43 -->
<g id="edge13" class="edge">
<title>42&#45;&gt;43</title>
<path fill="none" stroke="black" d="M1019.32,-126C1033.53,-126 1047.6,-126 1060.5,-126"/>
<polygon fill="black" stroke="black" points="1060.48,-129.5 1070.48,-126 1060.48,-122.5 1060.48,-129.5"/>
</g>
<!-- 45 -->
<!-- name: &quot;Container ID&quot;, typeName: &quot;&quot;, id: 45, branchId: 0, recurseId: &#45;1, attributes: 0, notes: &quot;&quot; -->
<g id="node16" class="node">
<title>45</title>
<ellipse fill="none" stroke="black" cx="906.16" cy="-72" rx="59.54" ry="18"/>
<text text-anchor="middle" x="906.16" y="-66.95" font-family="Times New Roman,serif" font-size="14.00">Container ID</text>
</g>
<!-- 44&#45;&gt;45 -->
<g id="edge15" class="edge">
<title>44&#45;&gt;45</title>
<path fill="none" stroke="black" d="M720.28,-77.64C760.25,-76.42 801.93,-75.15 835.57,-74.12"/>
<polygon fill="black" stroke="black" points="835.25,-77.64 845.14,-73.83 835.04,-70.64 835.25,-77.64"/>
</g>
<!-- 46 -->
<!-- name: &quot;varint&quot;, typeName: &quot;&quot;, id: 46, branchId: 0, recurseId: &#45;1, attributes: 512, notes: &quot;&quot; -->
<g id="node17" class="node">
<title>46</title>
<ellipse fill="none" stroke="black" cx="1120.66" cy="-72" rx="32.41" ry="18"/>
<text text-anchor="middle" x="1120.66" y="-66.95" font-family="Times New Roman,serif" font-size="14.00">varint</text>
</g>
<!-- 45&#45;&gt;46 -->
<g id="edge16" class="edge">
<title>45&#45;&gt;46</title>
<path fill="none" stroke="black" d="M966.07,-72C1001.19,-72 1044.97,-72 1076.8,-72"/>
<polygon fill="black" stroke="black" points="1076.43,-75.5 1086.43,-72 1076.43,-68.5 1076.43,-75.5"/>
</g>
<!-- 48 -->
<!-- name: &quot;[No Data]&quot;, typeName: &quot;&quot;, id: 48, branchId: 0, recurseId: &#45;1, attributes: 512, notes: &quot;&quot; -->
<g id="node19" class="node">
<title>48</title>
<ellipse fill="none" stroke="black" cx="1120.66" cy="-18" rx="48.28" ry="18"/>
<text text-anchor="middle" x="1120.66" y="-12.95" font-family="Times New Roman,serif" font-size="14.00">[No Data]</text>
</g>
<!-- 47&#45;&gt;48 -->
<g id="edge18" class="edge">
<title>47&#45;&gt;48</title>
<path fill="none" stroke="black" d="M632,-19.8C734.36,-19.42 954.63,-18.61 1060.49,-18.22"/>
<polygon fill="black" stroke="black" points="1060.4,-21.72 1070.39,-18.18 1060.37,-14.72 1060.4,-21.72"/>
</g>
</g>
</svg>
