<?xml version="1.0" encoding="UTF-8" standalone="no"?>
<!DOCTYPE svg PUBLIC "-//W3C//DTD SVG 1.1//EN"
 "http://www.w3.org/Graphics/SVG/1.1/DTD/svg11.dtd">
<!-- Generated by graphviz version 11.0.0 (20240428.1522)
 -->
<!-- Title: InventoryTransaction Pages: 1 -->
<svg width="781pt" height="98pt"
 viewBox="0.00 0.00 781.40 98.00" xmlns="http://www.w3.org/2000/svg" xmlns:xlink="http://www.w3.org/1999/xlink">
<g id="graph0" class="graph" transform="scale(1 1) rotate(0) translate(4 94)">
<title>InventoryTransaction</title>
<polygon fill="white" stroke="none" points="-4,4 -4,-94 777.4,-94 777.4,4 -4,4"/>
<!-- 22 -->
<!-- name: &quot;InventoryTransaction&quot;, typeName: &quot;&quot;, id: 22, branchId: 0, recurseId: &#45;1, attributes: 0, notes: &quot;&quot; -->
<g id="node1" class="node">
<title>22</title>
<ellipse fill="none" stroke="black" cx="89.99" cy="-45" rx="89.99" ry="18"/>
<text text-anchor="middle" x="89.99" y="-39.58" font-family="Times New Roman,serif" font-size="14.00">InventoryTransaction</text>
</g>
<!-- 23 -->
<!-- name: &quot;Actions&quot;, typeName: &quot;&quot;, id: 23, branchId: 0, recurseId: &#45;1, attributes: 8, notes: &quot;&quot; -->
<g id="node2" class="node">
<title>23</title>
<ellipse fill="none" stroke="black" cx="255.56" cy="-45" rx="39.59" ry="18"/>
<text text-anchor="middle" x="255.56" y="-39.58" font-family="Times New Roman,serif" font-size="14.00">Actions</text>
</g>
<!-- 22&#45;&gt;23 -->
<g id="edge1" class="edge">
<title>22&#45;&gt;23</title>
<path fill="none" stroke="black" d="M180.43,-45C188.65,-45 196.77,-45 204.45,-45"/>
<polygon fill="black" stroke="black" points="204.2,-48.5 214.2,-45 204.2,-41.5 204.2,-48.5"/>
</g>
<!-- 24 -->
<!-- name: &quot;List Size&quot;, typeName: &quot;&quot;, id: 24, branchId: 0, recurseId: &#45;1, attributes: 0, notes: &quot;&quot; -->
<g id="node3" class="node">
<title>24</title>
<ellipse fill="none" stroke="black" cx="552.77" cy="-72" rx="42.58" ry="18"/>
<text text-anchor="middle" x="552.77" y="-66.58" font-family="Times New Roman,serif" font-size="14.00">List Size</text>
</g>
<!-- 23&#45;&gt;24 -->
<g id="edge2" class="edge">
<title>23&#45;&gt;24</title>
<path fill="none" stroke="black" d="M294.85,-48.5C347.06,-53.28 440.8,-61.85 499.46,-67.22"/>
<polygon fill="black" stroke="black" points="498.92,-70.68 509.19,-68.11 499.56,-63.71 498.92,-70.68"/>
</g>
<!-- 26 -->
<!-- name: &quot;example element&quot;, typeName: &quot;&quot;, id: 26, branchId: 0, recurseId: &#45;1, attributes: 16, notes: &quot;&quot; -->
<g id="node5" class="node">
<title>26</title>
<ellipse fill="none" stroke="black" stroke-dasharray="1,5" cx="402.67" cy="-22" rx="71.52" ry="18"/>
<text text-anchor="middle" x="402.67" y="-16.57" font-family="Times New Roman,serif" font-size="14.00">example element</text>
</g>
<!-- 23&#45;&gt;26 -->
<g id="edge4" class="edge">
<title>23&#45;&gt;26</title>
<path fill="none" stroke="black" d="M293.55,-39.14C304.79,-37.36 317.53,-35.34 330.23,-33.32"/>
<polygon fill="black" stroke="black" points="330.52,-36.82 339.85,-31.8 329.43,-29.91 330.52,-36.82"/>
</g>
<!-- 25 -->
<!-- name: &quot;unsigned varint&quot;, typeName: &quot;&quot;, id: 25, branchId: 0, recurseId: &#45;1, attributes: 512, notes: &quot;&quot; -->
<g id="node4" class="node">
<title>25</title>
<ellipse fill="none" stroke="black" cx="702.38" cy="-72" rx="66.53" ry="18"/>
<text text-anchor="middle" x="702.38" y="-66.58" font-family="Times New Roman,serif" font-size="14.00">unsigned varint</text>
</g>
<!-- 24&#45;&gt;25 -->
<g id="edge3" class="edge">
<title>24&#45;&gt;25</title>
<path fill="none" stroke="black" d="M595.67,-72C604.56,-72 614.2,-72 623.93,-72"/>
<polygon fill="black" stroke="black" points="623.84,-75.5 633.84,-72 623.84,-68.5 623.84,-75.5"/>
</g>
<!-- 27 -->
<!-- name: &quot;Action&quot;, typeName: &quot;InventoryAction&quot;, id: 27, branchId: 0, recurseId: &#45;1, attributes: 256, notes: &quot;&quot; -->
<g id="node6" class="node">
<title>27</title>
<ellipse fill="none" stroke="black" cx="552.77" cy="-18" rx="35.6" ry="18"/>
<text text-anchor="middle" x="552.77" y="-12.57" font-family="Times New Roman,serif" font-size="14.00">Action</text>
</g>
<!-- 26&#45;&gt;27 -->
<g id="edge5" class="edge">
<title>26&#45;&gt;27</title>
<path fill="none" stroke="black" d="M474.25,-20.09C484.96,-19.8 495.77,-19.51 505.77,-19.24"/>
<polygon fill="black" stroke="black" points="505.68,-22.75 515.58,-18.98 505.49,-15.75 505.68,-22.75"/>
</g>
<!-- 56 -->
<!-- name: &quot;InventoryAction&quot;, typeName: &quot;&quot;, id: 56, branchId: 0, recurseId: &#45;1, attributes: 512, notes: &quot;&quot; -->
<g id="node7" class="node">
<title>56</title>
<ellipse fill="none" stroke="black" cx="702.38" cy="-18" rx="71.02" ry="18"/>
<text text-anchor="middle" x="702.38" y="-12.57" font-family="Times New Roman,serif" font-size="14.00">InventoryAction</text>
</g>
<!-- 27&#45;&gt;56 -->
<g id="edge6" class="edge">
<title>27&#45;&gt;56</title>
<path fill="none" stroke="black" d="M588.75,-18C598.18,-18 608.79,-18 619.63,-18"/>
<polygon fill="black" stroke="black" points="619.46,-21.5 629.46,-18 619.46,-14.5 619.46,-21.5"/>
</g>
</g>
</svg>
