<?xml version="1.0" encoding="UTF-8" standalone="no"?>
<!DOCTYPE svg PUBLIC "-//W3C//DTD SVG 1.1//EN"
 "http://www.w3.org/Graphics/SVG/1.1/DTD/svg11.dtd">
<!-- Generated by graphviz version 11.0.0 (20240428.1522)
 -->
<!-- Title: InventoryContentPacket Pages: 1 -->
<svg width="1482pt" height="206pt"
 viewBox="0.00 0.00 1481.99 206.00" xmlns="http://www.w3.org/2000/svg" xmlns:xlink="http://www.w3.org/1999/xlink">
<g id="graph0" class="graph" transform="scale(1 1) rotate(0) translate(4 202)">
<title>InventoryContentPacket</title>
<polygon fill="white" stroke="none" points="-4,4 -4,-202 1477.99,-202 1477.99,4 -4,4"/>
<!-- 0 -->
<!-- name: &quot;InventoryContentPacket&quot;, typeName: &quot;&quot;, id: 0, branchId: 49, recurseId: &#45;1, attributes: 0, notes: &quot;&quot; -->
<g id="node1" class="node">
<title>0</title>
<ellipse fill="none" stroke="black" cx="100.46" cy="-74" rx="100.46" ry="18"/>
<text text-anchor="middle" x="100.46" y="-68.58" font-family="Times New Roman,serif" font-size="14.00">InventoryContentPacket</text>
</g>
<!-- 1 -->
<!-- name: &quot;Inventory Id&quot;, typeName: &quot;&quot;, id: 1, branchId: 0, recurseId: &#45;1, attributes: 0, notes: &quot;&quot; -->
<g id="node2" class="node">
<title>1</title>
<ellipse fill="none" stroke="black" cx="293.48" cy="-154" rx="56.55" ry="18"/>
<text text-anchor="middle" x="293.48" y="-148.57" font-family="Times New Roman,serif" font-size="14.00">Inventory Id</text>
</g>
<!-- 0&#45;&gt;1 -->
<g id="edge1" class="edge">
<title>0&#45;&gt;1</title>
<path fill="none" stroke="black" d="M141.51,-90.77C172.47,-103.74 215.33,-121.69 247.48,-135.15"/>
<polygon fill="black" stroke="black" points="245.96,-138.31 256.54,-138.95 248.67,-131.86 245.96,-138.31"/>
</g>
<!-- 3 -->
<!-- name: &quot;Slots&quot;, typeName: &quot;&quot;, id: 3, branchId: 0, recurseId: &#45;1, attributes: 8, notes: &quot;&quot; -->
<g id="node4" class="node">
<title>3</title>
<ellipse fill="none" stroke="black" cx="293.48" cy="-74" rx="29.61" ry="18"/>
<text text-anchor="middle" x="293.48" y="-68.58" font-family="Times New Roman,serif" font-size="14.00">Slots</text>
</g>
<!-- 0&#45;&gt;3 -->
<g id="edge3" class="edge">
<title>0&#45;&gt;3</title>
<path fill="none" stroke="black" d="M201.17,-74C219.16,-74 236.95,-74 251.98,-74"/>
<polygon fill="black" stroke="black" points="251.88,-77.5 261.88,-74 251.88,-70.5 251.88,-77.5"/>
</g>
<!-- 9 -->
<!-- name: &quot;ID of the particular container instance if this is a dynamic container, otherwise zero&quot;, typeName: &quot;&quot;, id: 9, branchId: 0, recurseId: &#45;1, attributes: 0, notes: &quot;&quot; -->
<g id="node10" class="node">
<title>9</title>
<ellipse fill="none" stroke="black" cx="882.11" cy="-18" rx="317.03" ry="18"/>
<text text-anchor="middle" x="882.11" y="-12.57" font-family="Times New Roman,serif" font-size="14.00">ID of the particular container instance if this is a dynamic container, otherwise zero</text>
</g>
<!-- 0&#45;&gt;9 -->
<g id="edge9" class="edge">
<title>0&#45;&gt;9</title>
<path fill="none" stroke="black" d="M163.53,-59.57C186.47,-54.79 212.77,-49.93 236.93,-47 342.41,-34.19 458.23,-26.89 562.22,-22.78"/>
<polygon fill="black" stroke="black" points="562.17,-26.28 572.03,-22.4 561.9,-19.29 562.17,-26.28"/>
</g>
<!-- 2 -->
<!-- name: &quot;unsigned varint&quot;, typeName: &quot;&quot;, id: 2, branchId: 0, recurseId: &#45;1, attributes: 512, notes: &quot;&quot; -->
<g id="node3" class="node">
<title>2</title>
<ellipse fill="none" stroke="black" cx="1354.56" cy="-180" rx="66.53" ry="18"/>
<text text-anchor="middle" x="1354.56" y="-174.57" font-family="Times New Roman,serif" font-size="14.00">unsigned varint</text>
</g>
<!-- 1&#45;&gt;2 -->
<g id="edge2" class="edge">
<title>1&#45;&gt;2</title>
<path fill="none" stroke="black" d="M350.3,-155.37C526.81,-159.7 1073.13,-173.12 1276.36,-178.1"/>
<polygon fill="black" stroke="black" points="1276.21,-181.6 1286.29,-178.35 1276.38,-174.6 1276.21,-181.6"/>
</g>
<!-- 4 -->
<!-- name: &quot;Array Size&quot;, typeName: &quot;&quot;, id: 4, branchId: 0, recurseId: &#45;1, attributes: 0, notes: &quot;&quot; -->
<g id="node5" class="node">
<title>4</title>
<ellipse fill="none" stroke="black" cx="457.56" cy="-126" rx="49.57" ry="18"/>
<text text-anchor="middle" x="457.56" y="-120.58" font-family="Times New Roman,serif" font-size="14.00">Array Size</text>
</g>
<!-- 3&#45;&gt;4 -->
<g id="edge4" class="edge">
<title>3&#45;&gt;4</title>
<path fill="none" stroke="black" d="M320.16,-82.24C343.91,-89.86 379.8,-101.37 408.8,-110.68"/>
<polygon fill="black" stroke="black" points="407.51,-113.94 418.1,-113.66 409.65,-107.27 407.51,-113.94"/>
</g>
<!-- 6 -->
<!-- name: &quot;example element&quot;, typeName: &quot;&quot;, id: 6, branchId: 0, recurseId: &#45;1, attributes: 16, notes: &quot;&quot; -->
<g id="node7" class="node">
<title>6</title>
<ellipse fill="none" stroke="black" stroke-dasharray="1,5" cx="457.56" cy="-72" rx="71.52" ry="18"/>
<text text-anchor="middle" x="457.56" y="-66.58" font-family="Times New Roman,serif" font-size="14.00">example element</text>
</g>
<!-- 3&#45;&gt;6 -->
<g id="edge6" class="edge">
<title>3&#45;&gt;6</title>
<path fill="none" stroke="black" d="M323.46,-73.64C337.86,-73.46 356.07,-73.24 374.35,-73.01"/>
<polygon fill="black" stroke="black" points="374.24,-76.52 384.2,-72.89 374.16,-69.52 374.24,-76.52"/>
</g>
<!-- 5 -->
<!-- name: &quot;unsigned varint&quot;, typeName: &quot;&quot;, id: 5, branchId: 0, recurseId: &#45;1, attributes: 512, notes: &quot;&quot; -->
<g id="node6" class="node">
<title>5</title>
<ellipse fill="none" stroke="black" cx="1354.56" cy="-126" rx="66.53" ry="18"/>
<text text-anchor="middle" x="1354.56" y="-120.58" font-family="Times New Roman,serif" font-size="14.00">unsigned varint</text>
</g>
<!-- 4&#45;&gt;5 -->
<g id="edge5" class="edge">
<title>4&#45;&gt;5</title>
<path fill="none" stroke="black" d="M507.31,-126C654.73,-126 1096.65,-126 1276.33,-126"/>
<polygon fill="black" stroke="black" points="1276.26,-129.5 1286.26,-126 1276.26,-122.5 1276.26,-129.5"/>
</g>
<!-- 7 -->
<!-- name: &quot;Item stack&quot;, typeName: &quot;NetworkItemStackDescriptor&quot;, id: 7, branchId: 0, recurseId: &#45;1, attributes: 256, notes: &quot;&quot; -->
<g id="node8" class="node">
<title>7</title>
<ellipse fill="none" stroke="black" cx="882.11" cy="-72" rx="49.07" ry="18"/>
<text text-anchor="middle" x="882.11" y="-66.58" font-family="Times New Roman,serif" font-size="14.00">Item stack</text>
</g>
<!-- 6&#45;&gt;7 -->
<g id="edge7" class="edge">
<title>6&#45;&gt;7</title>
<path fill="none" stroke="black" d="M529.28,-72C611.07,-72 744.29,-72 821.19,-72"/>
<polygon fill="black" stroke="black" points="821.06,-75.5 831.06,-72 821.06,-68.5 821.06,-75.5"/>
</g>
<!-- 8 -->
<!-- name: &quot;NetworkItemStackDescriptor&quot;, typeName: &quot;&quot;, id: 8, branchId: 0, recurseId: &#45;1, attributes: 512, notes: &quot;&quot; -->
<g id="node9" class="node">
<title>8</title>
<ellipse fill="none" stroke="black" cx="1354.56" cy="-72" rx="119.43" ry="18"/>
<text text-anchor="middle" x="1354.56" y="-66.58" font-family="Times New Roman,serif" font-size="14.00">NetworkItemStackDescriptor</text>
</g>
<!-- 7&#45;&gt;8 -->
<g id="edge8" class="edge">
<title>7&#45;&gt;8</title>
<path fill="none" stroke="black" d="M931.24,-72C999.39,-72 1126.48,-72 1223.51,-72"/>
<polygon fill="black" stroke="black" points="1223.37,-75.5 1233.37,-72 1223.37,-68.5 1223.37,-75.5"/>
</g>
<!-- 10 -->
<!-- name: &quot;unsigned varint&quot;, typeName: &quot;&quot;, id: 10, branchId: 0, recurseId: &#45;1, attributes: 512, notes: &quot;&quot; -->
<g id="node11" class="node">
<title>10</title>
<ellipse fill="none" stroke="black" cx="1354.56" cy="-18" rx="66.53" ry="18"/>
<text text-anchor="middle" x="1354.56" y="-12.57" font-family="Times New Roman,serif" font-size="14.00">unsigned varint</text>
</g>
<!-- 9&#45;&gt;10 -->
<g id="edge10" class="edge">
<title>9&#45;&gt;10</title>
<path fill="none" stroke="black" d="M1199.52,-18C1227.4,-18 1253.55,-18 1276.11,-18"/>
<polygon fill="black" stroke="black" points="1276.05,-21.5 1286.05,-18 1276.05,-14.5 1276.05,-21.5"/>
</g>
</g>
</svg>
