<?xml version="1.0" encoding="UTF-8" standalone="no"?>
<!DOCTYPE svg PUBLIC "-//W3C//DTD SVG 1.1//EN"
 "http://www.w3.org/Graphics/SVG/1.1/DTD/svg11.dtd">
<!-- Generated by graphviz version 10.0.1 (20240210.2158)
 -->
<!-- Title: InventorySlotPacket Pages: 1 -->
<svg width="608pt" height="152pt"
 viewBox="0.00 0.00 607.94 152.00" xmlns="http://www.w3.org/2000/svg" xmlns:xlink="http://www.w3.org/1999/xlink">
<g id="graph0" class="graph" transform="scale(1 1) rotate(0) translate(4 148)">
<title>InventorySlotPacket</title>
<polygon fill="white" stroke="none" points="-4,4 -4,-148 603.94,-148 603.94,4 -4,4"/>
<!-- 0 -->
<!-- name: &quot;InventorySlotPacket&quot;, typeName: &quot;&quot;, id: 0, branchId: 50, recurseId: &#45;1, attributes: 0, notes: &quot;&quot; -->
<g id="node1" class="node">
<title>0</title>
<ellipse fill="none" stroke="black" cx="85.99" cy="-72" rx="85.99" ry="18"/>
<text text-anchor="middle" x="85.99" y="-66.58" font-family="Times New Roman,serif" font-size="14.00">InventorySlotPacket</text>
</g>
<!-- 1 -->
<!-- name: &quot;Container ID&quot;, typeName: &quot;&quot;, id: 1, branchId: 0, recurseId: &#45;1, attributes: 0, notes: &quot;&quot; -->
<g id="node2" class="node">
<title>1</title>
<ellipse fill="none" stroke="black" cx="266.54" cy="-126" rx="58.55" ry="18"/>
<text text-anchor="middle" x="266.54" y="-120.58" font-family="Times New Roman,serif" font-size="14.00">Container ID</text>
</g>
<!-- 0&#45;&gt;1 -->
<g id="edge1" class="edge">
<title>0&#45;&gt;1</title>
<path fill="none" stroke="black" d="M136.25,-86.9C160.06,-94.1 188.66,-102.75 212.9,-110.08"/>
<polygon fill="black" stroke="black" points="211.66,-113.36 222.25,-112.91 213.69,-106.66 211.66,-113.36"/>
</g>
<!-- 3 -->
<!-- name: &quot;Slot&quot;, typeName: &quot;&quot;, id: 3, branchId: 0, recurseId: &#45;1, attributes: 0, notes: &quot;&quot; -->
<g id="node4" class="node">
<title>3</title>
<ellipse fill="none" stroke="black" cx="266.54" cy="-72" rx="27" ry="18"/>
<text text-anchor="middle" x="266.54" y="-66.58" font-family="Times New Roman,serif" font-size="14.00">Slot</text>
</g>
<!-- 0&#45;&gt;3 -->
<g id="edge3" class="edge">
<title>0&#45;&gt;3</title>
<path fill="none" stroke="black" d="M172.34,-72C191.97,-72 211.84,-72 228.17,-72"/>
<polygon fill="black" stroke="black" points="227.86,-75.5 237.86,-72 227.86,-68.5 227.86,-75.5"/>
</g>
<!-- 5 -->
<!-- name: &quot;Item&quot;, typeName: &quot;NetworkItemStackDescriptor&quot;, id: 5, branchId: 0, recurseId: &#45;1, attributes: 256, notes: &quot;&quot; -->
<g id="node6" class="node">
<title>5</title>
<ellipse fill="none" stroke="black" cx="266.54" cy="-18" rx="27.11" ry="18"/>
<text text-anchor="middle" x="266.54" y="-12.57" font-family="Times New Roman,serif" font-size="14.00">Item</text>
</g>
<!-- 0&#45;&gt;5 -->
<g id="edge5" class="edge">
<title>0&#45;&gt;5</title>
<path fill="none" stroke="black" d="M136.25,-57.1C166.24,-48.03 203.82,-36.67 230.72,-28.53"/>
<polygon fill="black" stroke="black" points="231.53,-31.94 240.09,-25.7 229.51,-25.24 231.53,-31.94"/>
</g>
<!-- 2 -->
<!-- name: &quot;unsigned varint&quot;, typeName: &quot;&quot;, id: 2, branchId: 0, recurseId: &#45;1, attributes: 512, notes: &quot;&quot; -->
<g id="node3" class="node">
<title>2</title>
<ellipse fill="none" stroke="black" cx="480.51" cy="-126" rx="66.53" ry="18"/>
<text text-anchor="middle" x="480.51" y="-120.58" font-family="Times New Roman,serif" font-size="14.00">unsigned varint</text>
</g>
<!-- 1&#45;&gt;2 -->
<g id="edge2" class="edge">
<title>1&#45;&gt;2</title>
<path fill="none" stroke="black" d="M325.46,-126C349.16,-126 376.94,-126 402.33,-126"/>
<polygon fill="black" stroke="black" points="402.29,-129.5 412.29,-126 402.29,-122.5 402.29,-129.5"/>
</g>
<!-- 4 -->
<!-- name: &quot;unsigned varint&quot;, typeName: &quot;&quot;, id: 4, branchId: 0, recurseId: &#45;1, attributes: 512, notes: &quot;&quot; -->
<g id="node5" class="node">
<title>4</title>
<ellipse fill="none" stroke="black" cx="480.51" cy="-72" rx="66.53" ry="18"/>
<text text-anchor="middle" x="480.51" y="-66.58" font-family="Times New Roman,serif" font-size="14.00">unsigned varint</text>
</g>
<!-- 3&#45;&gt;4 -->
<g id="edge4" class="edge">
<title>3&#45;&gt;4</title>
<path fill="none" stroke="black" d="M293.95,-72C321.03,-72 364.42,-72 402.44,-72"/>
<polygon fill="black" stroke="black" points="402,-75.5 412,-72 402,-68.5 402,-75.5"/>
</g>
<!-- 6 -->
<!-- name: &quot;NetworkItemStackDescriptor&quot;, typeName: &quot;&quot;, id: 6, branchId: 0, recurseId: &#45;1, attributes: 512, notes: &quot;&quot; -->
<g id="node7" class="node">
<title>6</title>
<ellipse fill="none" stroke="black" cx="480.51" cy="-18" rx="119.43" ry="18"/>
<text text-anchor="middle" x="480.51" y="-12.57" font-family="Times New Roman,serif" font-size="14.00">NetworkItemStackDescriptor</text>
</g>
<!-- 5&#45;&gt;6 -->
<g id="edge6" class="edge">
<title>5&#45;&gt;6</title>
<path fill="none" stroke="black" d="M293.95,-18C308.72,-18 328.35,-18 349.32,-18"/>
<polygon fill="black" stroke="black" points="349.21,-21.5 359.21,-18 349.21,-14.5 349.21,-21.5"/>
</g>
</g>
</svg>
