<?xml version="1.0" encoding="UTF-8" standalone="no"?>
<!DOCTYPE svg PUBLIC "-//W3C//DTD SVG 1.1//EN"
 "http://www.w3.org/Graphics/SVG/1.1/DTD/svg11.dtd">
<!-- Generated by graphviz version 2.46.1 (20210213.1702)
 -->
<!-- Title: InventoryContentPacket Pages: 1 -->
<svg width="894pt" height="152pt"
 viewBox="0.00 0.00 894.23 152.00" xmlns="http://www.w3.org/2000/svg" xmlns:xlink="http://www.w3.org/1999/xlink">
<g id="graph0" class="graph" transform="scale(1 1) rotate(0) translate(4 148)">
<title>InventoryContentPacket</title>
<polygon fill="white" stroke="transparent" points="-4,4 -4,-148 890.23,-148 890.23,4 -4,4"/>
<!-- 0 -->
<!-- name: &quot;InventoryContentPacket&quot;, typeName: &quot;&quot;, id: 0, branchId: 49, recurseId: &#45;1, attributes: 0, notes: &quot;&quot; -->
<g id="node1" class="node">
<title>0</title>
<ellipse fill="none" stroke="black" cx="98.79" cy="-95" rx="98.58" ry="18"/>
<text text-anchor="middle" x="98.79" y="-91.3" font-family="Times New Roman,serif" font-size="14.00">InventoryContentPacket</text>
</g>
<!-- 1 -->
<!-- name: &quot;Inventory Id&quot;, typeName: &quot;&quot;, id: 1, branchId: 0, recurseId: &#45;1, attributes: 0, notes: &quot;&quot; -->
<g id="node2" class="node">
<title>1</title>
<ellipse fill="none" stroke="black" cx="560.36" cy="-124" rx="55.79" ry="18"/>
<text text-anchor="middle" x="560.36" y="-120.3" font-family="Times New Roman,serif" font-size="14.00">Inventory Id</text>
</g>
<!-- 0&#45;&gt;1 -->
<g id="edge1" class="edge">
<title>0&#45;&gt;1</title>
<path fill="none" stroke="black" d="M192.52,-100.85C282.35,-106.52 416.22,-114.97 494.97,-119.94"/>
<polygon fill="black" stroke="black" points="495.04,-123.45 505.24,-120.58 495.48,-116.46 495.04,-123.45"/>
</g>
<!-- 3 -->
<!-- name: &quot;Slots&quot;, typeName: &quot;&quot;, id: 3, branchId: 0, recurseId: &#45;1, attributes: 8, notes: &quot;&quot; -->
<g id="node4" class="node">
<title>3</title>
<ellipse fill="none" stroke="black" cx="262.83" cy="-72" rx="29.5" ry="18"/>
<text text-anchor="middle" x="262.83" y="-68.3" font-family="Times New Roman,serif" font-size="14.00">Slots</text>
</g>
<!-- 0&#45;&gt;3 -->
<g id="edge3" class="edge">
<title>0&#45;&gt;3</title>
<path fill="none" stroke="black" d="M177.49,-83.97C193.67,-81.67 210.03,-79.35 223.98,-77.37"/>
<polygon fill="black" stroke="black" points="224.72,-80.8 234.13,-75.93 223.74,-73.87 224.72,-80.8"/>
</g>
<!-- 2 -->
<!-- name: &quot;unsigned varint&quot;, typeName: &quot;&quot;, id: 2, branchId: 0, recurseId: &#45;1, attributes: 512, notes: &quot;&quot; -->
<g id="node3" class="node">
<title>2</title>
<ellipse fill="none" stroke="black" cx="769.24" cy="-126" rx="65.79" ry="18"/>
<text text-anchor="middle" x="769.24" y="-122.3" font-family="Times New Roman,serif" font-size="14.00">unsigned varint</text>
</g>
<!-- 1&#45;&gt;2 -->
<g id="edge2" class="edge">
<title>1&#45;&gt;2</title>
<path fill="none" stroke="black" d="M616.26,-124.53C639.93,-124.76 667.99,-125.03 693.51,-125.28"/>
<polygon fill="black" stroke="black" points="693.5,-128.78 703.53,-125.37 693.56,-121.78 693.5,-128.78"/>
</g>
<!-- 4 -->
<!-- name: &quot;Array Size&quot;, typeName: &quot;&quot;, id: 4, branchId: 0, recurseId: &#45;1, attributes: 0, notes: &quot;&quot; -->
<g id="node5" class="node">
<title>4</title>
<ellipse fill="none" stroke="black" cx="398.27" cy="-72" rx="48.99" ry="18"/>
<text text-anchor="middle" x="398.27" y="-68.3" font-family="Times New Roman,serif" font-size="14.00">Array Size</text>
</g>
<!-- 3&#45;&gt;4 -->
<g id="edge4" class="edge">
<title>3&#45;&gt;4</title>
<path fill="none" stroke="black" d="M292.13,-72C305.88,-72 322.93,-72 339.27,-72"/>
<polygon fill="black" stroke="black" points="339.31,-75.5 349.31,-72 339.31,-68.5 339.31,-75.5"/>
</g>
<!-- 6 -->
<!-- name: &quot;example element&quot;, typeName: &quot;&quot;, id: 6, branchId: 0, recurseId: &#45;1, attributes: 16, notes: &quot;&quot; -->
<g id="node7" class="node">
<title>6</title>
<ellipse fill="none" stroke="black" stroke-dasharray="1,5" cx="398.27" cy="-18" rx="70.39" ry="18"/>
<text text-anchor="middle" x="398.27" y="-14.3" font-family="Times New Roman,serif" font-size="14.00">example element</text>
</g>
<!-- 3&#45;&gt;6 -->
<g id="edge6" class="edge">
<title>3&#45;&gt;6</title>
<path fill="none" stroke="black" d="M287.27,-61.98C299.41,-56.83 314.51,-50.5 328.08,-45 334.81,-42.27 341.94,-39.43 348.96,-36.67"/>
<polygon fill="black" stroke="black" points="350.38,-39.87 358.41,-32.96 347.82,-33.35 350.38,-39.87"/>
</g>
<!-- 5 -->
<!-- name: &quot;unsigned varint&quot;, typeName: &quot;&quot;, id: 5, branchId: 0, recurseId: &#45;1, attributes: 512, notes: &quot;&quot; -->
<g id="node6" class="node">
<title>5</title>
<ellipse fill="none" stroke="black" cx="769.24" cy="-72" rx="65.79" ry="18"/>
<text text-anchor="middle" x="769.24" y="-68.3" font-family="Times New Roman,serif" font-size="14.00">unsigned varint</text>
</g>
<!-- 4&#45;&gt;5 -->
<g id="edge5" class="edge">
<title>4&#45;&gt;5</title>
<path fill="none" stroke="black" d="M447.13,-72C509.61,-72 619.66,-72 693.26,-72"/>
<polygon fill="black" stroke="black" points="693.4,-75.5 703.4,-72 693.4,-68.5 693.4,-75.5"/>
</g>
<!-- 7 -->
<!-- name: &quot;Item stack&quot;, typeName: &quot;NetworkItemStackDescriptor&quot;, id: 7, branchId: 0, recurseId: &#45;1, attributes: 256, notes: &quot;&quot; -->
<g id="node8" class="node">
<title>7</title>
<ellipse fill="none" stroke="black" cx="560.36" cy="-18" rx="48.19" ry="18"/>
<text text-anchor="middle" x="560.36" y="-14.3" font-family="Times New Roman,serif" font-size="14.00">Item stack</text>
</g>
<!-- 6&#45;&gt;7 -->
<g id="edge7" class="edge">
<title>6&#45;&gt;7</title>
<path fill="none" stroke="black" d="M468.56,-18C479.7,-18 491.13,-18 501.95,-18"/>
<polygon fill="black" stroke="black" points="502.11,-21.5 512.11,-18 502.11,-14.5 502.11,-21.5"/>
</g>
<!-- 8 -->
<!-- name: &quot;NetworkItemStackDescriptor&quot;, typeName: &quot;&quot;, id: 8, branchId: 0, recurseId: &#45;1, attributes: 512, notes: &quot;&quot; -->
<g id="node9" class="node">
<title>8</title>
<ellipse fill="none" stroke="black" cx="769.24" cy="-18" rx="116.98" ry="18"/>
<text text-anchor="middle" x="769.24" y="-14.3" font-family="Times New Roman,serif" font-size="14.00">NetworkItemStackDescriptor</text>
</g>
<!-- 7&#45;&gt;8 -->
<g id="edge8" class="edge">
<title>7&#45;&gt;8</title>
<path fill="none" stroke="black" d="M608.56,-18C618.91,-18 630.33,-18 642.16,-18"/>
<polygon fill="black" stroke="black" points="642.19,-21.5 652.19,-18 642.19,-14.5 642.19,-21.5"/>
</g>
</g>
</svg>
