<?xml version="1.0" encoding="UTF-8" standalone="no"?>
<!DOCTYPE svg PUBLIC "-//W3C//DTD SVG 1.1//EN"
 "http://www.w3.org/Graphics/SVG/1.1/DTD/svg11.dtd">
<!-- Generated by graphviz version 2.46.1 (20210213.1702)
 -->
<!-- Title: InventoryTransactionPacket Pages: 1 -->
<svg width="1879pt" height="422pt"
 viewBox="0.00 0.00 1878.78 422.00" xmlns="http://www.w3.org/2000/svg" xmlns:xlink="http://www.w3.org/1999/xlink">
<g id="graph0" class="graph" transform="scale(1 1) rotate(0) translate(4 418)">
<title>InventoryTransactionPacket</title>
<polygon fill="white" stroke="transparent" points="-4,4 -4,-418 1874.78,-418 1874.78,4 -4,4"/>
<!-- 0 -->
<!-- name: &quot;InventoryTransactionPacket&quot;, typeName: &quot;&quot;, id: 0, branchId: 30, recurseId: &#45;1, attributes: 0, notes: &quot;&quot; -->
<g id="node1" class="node">
<title>0</title>
<ellipse fill="none" stroke="black" cx="112.44" cy="-180" rx="112.38" ry="18"/>
<text text-anchor="middle" x="112.44" y="-176.3" font-family="Times New Roman,serif" font-size="14.00">InventoryTransactionPacket</text>
</g>
<!-- 1 -->
<!-- name: &quot;Raw Id (32 bit signed)&quot;, typeName: &quot;&quot;, id: 1, branchId: 0, recurseId: &#45;1, attributes: 0, notes: &quot;&quot; -->
<g id="node2" class="node">
<title>1</title>
<ellipse fill="none" stroke="black" cx="851.06" cy="-392" rx="92.08" ry="18"/>
<text text-anchor="middle" x="851.06" y="-388.3" font-family="Times New Roman,serif" font-size="14.00">Raw Id (32 bit signed)</text>
</g>
<!-- 0&#45;&gt;1 -->
<g id="edge1" class="edge">
<title>0&#45;&gt;1</title>
<path fill="none" stroke="black" d="M135.49,-197.9C163.13,-219.44 212.74,-255.16 260.88,-275 426.47,-343.25 635.05,-372.58 754.42,-384.5"/>
<polygon fill="black" stroke="black" points="754.33,-388.01 764.62,-385.5 755.01,-381.04 754.33,-388.01"/>
</g>
<!-- 3 -->
<!-- name: &quot;Dependency on &#39;above ID (the legacy request ID) nonzero&#39;&quot;, typeName: &quot;&quot;, id: 3, branchId: 0, recurseId: &#45;1, attributes: 2, notes: &quot;&quot; -->
<g id="node4" class="node">
<title>3</title>
<polygon fill="none" stroke="black" points="599.88,-266 260.88,-266 260.88,-230 605.88,-230 605.88,-260 599.88,-266"/>
<polyline fill="none" stroke="black" points="599.88,-266 599.88,-260 "/>
<polyline fill="none" stroke="black" points="605.88,-260 599.88,-260 "/>
<text text-anchor="middle" x="433.38" y="-244.3" font-family="Times New Roman,serif" font-size="14.00">Dependency on &#39;above ID (the legacy request ID) nonzero&#39;</text>
</g>
<!-- 0&#45;&gt;3 -->
<g id="edge3" class="edge">
<title>0&#45;&gt;3</title>
<path fill="none" stroke="black" d="M180.69,-194.34C226.35,-204.07 287.38,-217.09 337.91,-227.86"/>
<polygon fill="black" stroke="black" points="337.36,-231.32 347.87,-229.98 338.82,-224.47 337.36,-231.32"/>
</g>
<!-- 19 -->
<!-- name: &quot;Transaction Type&quot;, typeName: &quot;&quot;, id: 19, branchId: 0, recurseId: &#45;1, attributes: 0, notes: &quot;enumeration: ComplexInventoryTransaction::Type&quot; -->
<g id="node20" class="node">
<title>19</title>
<ellipse fill="none" stroke="black" cx="1582.61" cy="-72" rx="75.29" ry="18"/>
<text text-anchor="middle" x="1582.61" y="-68.3" font-family="Times New Roman,serif" font-size="14.00">Transaction Type</text>
</g>
<!-- 0&#45;&gt;19 -->
<g id="edge19" class="edge">
<title>0&#45;&gt;19</title>
<path fill="none" stroke="black" d="M165.31,-163.98C264.5,-134.81 488.38,-76 681.32,-76 681.32,-76 681.32,-76 1226.28,-76 1318.74,-76 1424.73,-74.63 1496.72,-73.49"/>
<polygon fill="black" stroke="black" points="1497.14,-76.99 1507.09,-73.33 1497.03,-69.99 1497.14,-76.99"/>
</g>
<!-- 21 -->
<!-- name: &quot;mTransaction&#45;&gt;mTransaction&quot;, typeName: &quot;InventoryTransaction&quot;, id: 21, branchId: 0, recurseId: &#45;1, attributes: 256, notes: &quot;Our ComplexInventoryTransaction contains an InventoryTransaction within it&quot; -->
<g id="node22" class="node">
<title>21</title>
<ellipse fill="none" stroke="black" cx="433.38" cy="-22" rx="118.08" ry="18"/>
<text text-anchor="middle" x="433.38" y="-18.3" font-family="Times New Roman,serif" font-size="14.00">mTransaction&#45;&gt;mTransaction</text>
</g>
<!-- 0&#45;&gt;21 -->
<g id="edge21" class="edge">
<title>0&#45;&gt;21</title>
<path fill="none" stroke="black" d="M130.24,-162.22C155.9,-136.18 207.5,-87.92 260.88,-62 284.31,-50.62 311.14,-42.39 336.51,-36.46"/>
<polygon fill="black" stroke="black" points="337.53,-39.82 346.52,-34.23 336,-32.99 337.53,-39.82"/>
</g>
<!-- 2 -->
<!-- name: &quot;varint&quot;, typeName: &quot;&quot;, id: 2, branchId: 0, recurseId: &#45;1, attributes: 512, notes: &quot;&quot; -->
<g id="node3" class="node">
<title>2</title>
<ellipse fill="none" stroke="black" cx="1782.39" cy="-396" rx="30.59" ry="18"/>
<text text-anchor="middle" x="1782.39" y="-392.3" font-family="Times New Roman,serif" font-size="14.00">varint</text>
</g>
<!-- 1&#45;&gt;2 -->
<g id="edge2" class="edge">
<title>1&#45;&gt;2</title>
<path fill="none" stroke="black" d="M943.07,-393.52C1018.43,-394.65 1128.31,-396 1224.28,-396 1224.28,-396 1224.28,-396 1402.02,-396 1525.75,-396 1672.17,-396 1741.36,-396"/>
<polygon fill="black" stroke="black" points="1741.39,-399.5 1751.39,-396 1741.39,-392.5 1741.39,-399.5"/>
</g>
<!-- 4 -->
<!-- name: &quot;if (0)&quot;, typeName: &quot;&quot;, id: 4, branchId: 0, recurseId: &#45;1, attributes: 4, notes: &quot;&quot; -->
<g id="node5" class="node">
<title>4</title>
<polygon fill="none" stroke="black" points="682.32,-347 641.94,-329 682.32,-311 722.71,-329 682.32,-347"/>
<text text-anchor="middle" x="682.32" y="-325.3" font-family="Times New Roman,serif" font-size="14.00">if (0)</text>
</g>
<!-- 3&#45;&gt;4 -->
<g id="edge4" class="edge">
<title>3&#45;&gt;4</title>
<path fill="none" stroke="black" d="M489.49,-266.08C538.5,-282.15 608.49,-305.11 648.99,-318.39"/>
<polygon fill="black" stroke="black" points="648.02,-321.76 658.61,-321.55 650.2,-315.11 648.02,-321.76"/>
</g>
<!-- 6 -->
<!-- name: &quot;if (1)&quot;, typeName: &quot;&quot;, id: 6, branchId: 1, recurseId: &#45;1, attributes: 4, notes: &quot;&quot; -->
<g id="node7" class="node">
<title>6</title>
<polygon fill="none" stroke="black" points="682.32,-266 641.94,-248 682.32,-230 722.71,-248 682.32,-266"/>
<text text-anchor="middle" x="682.32" y="-244.3" font-family="Times New Roman,serif" font-size="14.00">if (1)</text>
</g>
<!-- 3&#45;&gt;6 -->
<g id="edge6" class="edge">
<title>3&#45;&gt;6</title>
<path fill="none" stroke="black" d="M605.89,-248C614.93,-248 623.57,-248 631.55,-248"/>
<polygon fill="black" stroke="black" points="631.66,-251.5 641.66,-248 631.66,-244.5 631.66,-251.5"/>
</g>
<!-- 5 -->
<!-- name: &quot;[No Data]&quot;, typeName: &quot;&quot;, id: 5, branchId: 0, recurseId: &#45;1, attributes: 512, notes: &quot;&quot; -->
<g id="node6" class="node">
<title>5</title>
<ellipse fill="none" stroke="black" cx="1782.39" cy="-342" rx="46.59" ry="18"/>
<text text-anchor="middle" x="1782.39" y="-338.3" font-family="Times New Roman,serif" font-size="14.00">[No Data]</text>
</g>
<!-- 4&#45;&gt;5 -->
<g id="edge5" class="edge">
<title>4&#45;&gt;5</title>
<path fill="none" stroke="black" d="M718.31,-331.07C783.33,-334.74 927.2,-342 1048.54,-342 1048.54,-342 1048.54,-342 1402.02,-342 1516.98,-342 1651.53,-342 1725.52,-342"/>
<polygon fill="black" stroke="black" points="1725.55,-345.5 1735.55,-342 1725.55,-338.5 1725.55,-345.5"/>
</g>
<!-- 7 -->
<!-- name: &quot;Legacy Set Item Slots&quot;, typeName: &quot;&quot;, id: 7, branchId: 0, recurseId: &#45;1, attributes: 8, notes: &quot;Only matters when ItemStackNetManager is enabled&quot; -->
<g id="node8" class="node">
<title>7</title>
<ellipse fill="none" stroke="black" cx="851.06" cy="-248" rx="90.98" ry="18"/>
<text text-anchor="middle" x="851.06" y="-244.3" font-family="Times New Roman,serif" font-size="14.00">Legacy Set Item Slots</text>
</g>
<!-- 6&#45;&gt;7 -->
<g id="edge7" class="edge">
<title>6&#45;&gt;7</title>
<path fill="none" stroke="black" d="M722.84,-248C731.11,-248 740.19,-248 749.57,-248"/>
<polygon fill="black" stroke="black" points="749.85,-251.5 759.85,-248 749.85,-244.5 749.85,-251.5"/>
</g>
<!-- 8 -->
<!-- name: &quot;Array Size&quot;, typeName: &quot;&quot;, id: 8, branchId: 0, recurseId: &#45;1, attributes: 0, notes: &quot;&quot; -->
<g id="node9" class="node">
<title>8</title>
<ellipse fill="none" stroke="black" cx="1049.54" cy="-288" rx="48.99" ry="18"/>
<text text-anchor="middle" x="1049.54" y="-284.3" font-family="Times New Roman,serif" font-size="14.00">Array Size</text>
</g>
<!-- 7&#45;&gt;8 -->
<g id="edge8" class="edge">
<title>7&#45;&gt;8</title>
<path fill="none" stroke="black" d="M915.04,-260.82C941.28,-266.16 971.39,-272.29 996.37,-277.38"/>
<polygon fill="black" stroke="black" points="995.88,-280.85 1006.38,-279.42 997.28,-273.99 995.88,-280.85"/>
</g>
<!-- 10 -->
<!-- name: &quot;example element&quot;, typeName: &quot;&quot;, id: 10, branchId: 0, recurseId: &#45;1, attributes: 16, notes: &quot;&quot; -->
<g id="node11" class="node">
<title>10</title>
<ellipse fill="none" stroke="black" stroke-dasharray="1,5" cx="1049.54" cy="-234" rx="70.39" ry="18"/>
<text text-anchor="middle" x="1049.54" y="-230.3" font-family="Times New Roman,serif" font-size="14.00">example element</text>
</g>
<!-- 7&#45;&gt;10 -->
<g id="edge10" class="edge">
<title>7&#45;&gt;10</title>
<path fill="none" stroke="black" d="M936.81,-241.96C948.46,-241.13 960.37,-240.28 971.86,-239.46"/>
<polygon fill="black" stroke="black" points="972.11,-242.96 981.83,-238.75 971.61,-235.97 972.11,-242.96"/>
</g>
<!-- 9 -->
<!-- name: &quot;unsigned varint&quot;, typeName: &quot;&quot;, id: 9, branchId: 0, recurseId: &#45;1, attributes: 512, notes: &quot;&quot; -->
<g id="node10" class="node">
<title>9</title>
<ellipse fill="none" stroke="black" cx="1782.39" cy="-288" rx="65.79" ry="18"/>
<text text-anchor="middle" x="1782.39" y="-284.3" font-family="Times New Roman,serif" font-size="14.00">unsigned varint</text>
</g>
<!-- 8&#45;&gt;9 -->
<g id="edge9" class="edge">
<title>8&#45;&gt;9</title>
<path fill="none" stroke="black" d="M1098.5,-288C1222.9,-288 1556.72,-288 1706.66,-288"/>
<polygon fill="black" stroke="black" points="1706.7,-291.5 1716.7,-288 1706.7,-284.5 1706.7,-291.5"/>
</g>
<!-- 11 -->
<!-- name: &quot;Container Enum&quot;, typeName: &quot;&quot;, id: 11, branchId: 0, recurseId: &#45;1, attributes: 0, notes: &quot;&quot; -->
<g id="node12" class="node">
<title>11</title>
<ellipse fill="none" stroke="black" cx="1225.28" cy="-234" rx="69.59" ry="18"/>
<text text-anchor="middle" x="1225.28" y="-230.3" font-family="Times New Roman,serif" font-size="14.00">Container Enum</text>
</g>
<!-- 10&#45;&gt;11 -->
<g id="edge11" class="edge">
<title>10&#45;&gt;11</title>
<path fill="none" stroke="black" d="M1120.21,-234C1128.53,-234 1137.07,-234 1145.51,-234"/>
<polygon fill="black" stroke="black" points="1145.73,-237.5 1155.73,-234 1145.73,-230.5 1145.73,-237.5"/>
</g>
<!-- 13 -->
<!-- name: &quot;Slot vector&quot;, typeName: &quot;&quot;, id: 13, branchId: 0, recurseId: &#45;1, attributes: 8, notes: &quot;&quot; -->
<g id="node14" class="node">
<title>13</title>
<ellipse fill="none" stroke="black" cx="1225.28" cy="-180" rx="50.89" ry="18"/>
<text text-anchor="middle" x="1225.28" y="-176.3" font-family="Times New Roman,serif" font-size="14.00">Slot vector</text>
</g>
<!-- 10&#45;&gt;13 -->
<g id="edge13" class="edge">
<title>10&#45;&gt;13</title>
<path fill="none" stroke="black" d="M1094.83,-220.23C1119.86,-212.45 1151.16,-202.73 1176.7,-194.79"/>
<polygon fill="black" stroke="black" points="1178.04,-198.04 1186.55,-191.73 1175.96,-191.35 1178.04,-198.04"/>
</g>
<!-- 12 -->
<!-- name: &quot;byte&quot;, typeName: &quot;&quot;, id: 12, branchId: 0, recurseId: &#45;1, attributes: 512, notes: &quot;&quot; -->
<g id="node13" class="node">
<title>12</title>
<ellipse fill="none" stroke="black" cx="1782.39" cy="-234" rx="27" ry="18"/>
<text text-anchor="middle" x="1782.39" y="-230.3" font-family="Times New Roman,serif" font-size="14.00">byte</text>
</g>
<!-- 11&#45;&gt;12 -->
<g id="edge12" class="edge">
<title>11&#45;&gt;12</title>
<path fill="none" stroke="black" d="M1294.91,-234C1413.77,-234 1653.99,-234 1745.17,-234"/>
<polygon fill="black" stroke="black" points="1745.28,-237.5 1755.28,-234 1745.28,-230.5 1745.28,-237.5"/>
</g>
<!-- 14 -->
<!-- name: &quot;Array Size&quot;, typeName: &quot;&quot;, id: 14, branchId: 0, recurseId: &#45;1, attributes: 0, notes: &quot;&quot; -->
<g id="node15" class="node">
<title>14</title>
<ellipse fill="none" stroke="black" cx="1401.02" cy="-180" rx="48.99" ry="18"/>
<text text-anchor="middle" x="1401.02" y="-176.3" font-family="Times New Roman,serif" font-size="14.00">Array Size</text>
</g>
<!-- 13&#45;&gt;14 -->
<g id="edge14" class="edge">
<title>13&#45;&gt;14</title>
<path fill="none" stroke="black" d="M1276.07,-180C1296.58,-180 1320.48,-180 1341.79,-180"/>
<polygon fill="black" stroke="black" points="1342.02,-183.5 1352.02,-180 1342.02,-176.5 1342.02,-183.5"/>
</g>
<!-- 16 -->
<!-- name: &quot;example element&quot;, typeName: &quot;&quot;, id: 16, branchId: 0, recurseId: &#45;1, attributes: 16, notes: &quot;&quot; -->
<g id="node17" class="node">
<title>16</title>
<ellipse fill="none" stroke="black" stroke-dasharray="1,5" cx="1401.02" cy="-126" rx="70.39" ry="18"/>
<text text-anchor="middle" x="1401.02" y="-122.3" font-family="Times New Roman,serif" font-size="14.00">example element</text>
</g>
<!-- 13&#45;&gt;16 -->
<g id="edge16" class="edge">
<title>13&#45;&gt;16</title>
<path fill="none" stroke="black" d="M1263.98,-168.28C1287.98,-160.82 1319.44,-151.04 1346.07,-142.77"/>
<polygon fill="black" stroke="black" points="1347.12,-146.11 1355.63,-139.8 1345.04,-139.42 1347.12,-146.11"/>
</g>
<!-- 15 -->
<!-- name: &quot;unsigned varint&quot;, typeName: &quot;&quot;, id: 15, branchId: 0, recurseId: &#45;1, attributes: 512, notes: &quot;&quot; -->
<g id="node16" class="node">
<title>15</title>
<ellipse fill="none" stroke="black" cx="1782.39" cy="-180" rx="65.79" ry="18"/>
<text text-anchor="middle" x="1782.39" y="-176.3" font-family="Times New Roman,serif" font-size="14.00">unsigned varint</text>
</g>
<!-- 14&#45;&gt;15 -->
<g id="edge15" class="edge">
<title>14&#45;&gt;15</title>
<path fill="none" stroke="black" d="M1450.07,-180C1514.75,-180 1630.5,-180 1706.62,-180"/>
<polygon fill="black" stroke="black" points="1706.62,-183.5 1716.62,-180 1706.62,-176.5 1706.62,-183.5"/>
</g>
<!-- 17 -->
<!-- name: &quot;Slot&quot;, typeName: &quot;&quot;, id: 17, branchId: 0, recurseId: &#45;1, attributes: 0, notes: &quot;&quot; -->
<g id="node18" class="node">
<title>17</title>
<ellipse fill="none" stroke="black" cx="1582.61" cy="-126" rx="27" ry="18"/>
<text text-anchor="middle" x="1582.61" y="-122.3" font-family="Times New Roman,serif" font-size="14.00">Slot</text>
</g>
<!-- 16&#45;&gt;17 -->
<g id="edge17" class="edge">
<title>16&#45;&gt;17</title>
<path fill="none" stroke="black" d="M1471.45,-126C1496.61,-126 1524.03,-126 1545.21,-126"/>
<polygon fill="black" stroke="black" points="1545.38,-129.5 1555.38,-126 1545.38,-122.5 1545.38,-129.5"/>
</g>
<!-- 18 -->
<!-- name: &quot;byte&quot;, typeName: &quot;&quot;, id: 18, branchId: 0, recurseId: &#45;1, attributes: 512, notes: &quot;&quot; -->
<g id="node19" class="node">
<title>18</title>
<ellipse fill="none" stroke="black" cx="1782.39" cy="-126" rx="27" ry="18"/>
<text text-anchor="middle" x="1782.39" y="-122.3" font-family="Times New Roman,serif" font-size="14.00">byte</text>
</g>
<!-- 17&#45;&gt;18 -->
<g id="edge18" class="edge">
<title>17&#45;&gt;18</title>
<path fill="none" stroke="black" d="M1609.87,-126C1644.62,-126 1706.03,-126 1745.17,-126"/>
<polygon fill="black" stroke="black" points="1745.33,-129.5 1755.33,-126 1745.33,-122.5 1745.33,-129.5"/>
</g>
<!-- 20 -->
<!-- name: &quot;unsigned varint&quot;, typeName: &quot;&quot;, id: 20, branchId: 0, recurseId: &#45;1, attributes: 512, notes: &quot;&quot; -->
<g id="node21" class="node">
<title>20</title>
<ellipse fill="none" stroke="black" cx="1782.39" cy="-72" rx="65.79" ry="18"/>
<text text-anchor="middle" x="1782.39" y="-68.3" font-family="Times New Roman,serif" font-size="14.00">unsigned varint</text>
</g>
<!-- 19&#45;&gt;20 -->
<g id="edge20" class="edge">
<title>19&#45;&gt;20</title>
<path fill="none" stroke="black" d="M1658.1,-72C1673.91,-72 1690.6,-72 1706.43,-72"/>
<polygon fill="black" stroke="black" points="1706.69,-75.5 1716.69,-72 1706.69,-68.5 1706.69,-75.5"/>
</g>
<!-- 52 -->
<!-- name: &quot;InventoryTransaction&quot;, typeName: &quot;&quot;, id: 52, branchId: 0, recurseId: &#45;1, attributes: 512, notes: &quot;&quot; -->
<g id="node23" class="node">
<title>52</title>
<ellipse fill="none" stroke="black" cx="1782.39" cy="-18" rx="88.28" ry="18"/>
<text text-anchor="middle" x="1782.39" y="-14.3" font-family="Times New Roman,serif" font-size="14.00">InventoryTransaction</text>
</g>
<!-- 21&#45;&gt;52 -->
<g id="edge22" class="edge">
<title>21&#45;&gt;52</title>
<path fill="none" stroke="black" d="M551.29,-20.27C634.58,-19.19 749.2,-18 850.06,-18 850.06,-18 850.06,-18 1402.02,-18 1497.83,-18 1607.25,-18 1683.88,-18"/>
<polygon fill="black" stroke="black" points="1684,-21.5 1694,-18 1684,-14.5 1684,-21.5"/>
</g>
</g>
</svg>
