<?xml version="1.0" encoding="UTF-8" standalone="no"?>
<!DOCTYPE svg PUBLIC "-//W3C//DTD SVG 1.1//EN"
 "http://www.w3.org/Graphics/SVG/1.1/DTD/svg11.dtd">
<!-- Generated by graphviz version 11.0.0 (20240428.1522)
 -->
<!-- Title: InventoryTransactionPacket Pages: 1 -->
<svg width="1931pt" height="422pt"
 viewBox="0.00 0.00 1931.36 422.00" xmlns="http://www.w3.org/2000/svg" xmlns:xlink="http://www.w3.org/1999/xlink">
<g id="graph0" class="graph" transform="scale(1 1) rotate(0) translate(4 418)">
<title>InventoryTransactionPacket</title>
<polygon fill="white" stroke="none" points="-4,4 -4,-418 1927.36,-418 1927.36,4 -4,4"/>
<!-- 0 -->
<!-- name: &quot;InventoryTransactionPacket&quot;, typeName: &quot;&quot;, id: 0, branchId: 30, recurseId: &#45;1, attributes: 0, notes: &quot;&quot; -->
<g id="node1" class="node">
<title>0</title>
<ellipse fill="none" stroke="black" cx="114.94" cy="-180" rx="114.94" ry="18"/>
<text text-anchor="middle" x="114.94" y="-174.57" font-family="Times New Roman,serif" font-size="14.00">InventoryTransactionPacket</text>
</g>
<!-- 1 -->
<!-- name: &quot;Raw Id (32 bit signed)&quot;, typeName: &quot;&quot;, id: 1, branchId: 0, recurseId: &#45;1, attributes: 0, notes: &quot;&quot; -->
<g id="node2" class="node">
<title>1</title>
<ellipse fill="none" stroke="black" cx="889.24" cy="-392" rx="93.98" ry="18"/>
<text text-anchor="middle" x="889.24" y="-386.57" font-family="Times New Roman,serif" font-size="14.00">Raw Id (32 bit signed)</text>
</g>
<!-- 0&#45;&gt;1 -->
<g id="edge1" class="edge">
<title>0&#45;&gt;1</title>
<path fill="none" stroke="black" d="M138.4,-197.9C166.56,-219.43 217.06,-255.15 265.87,-275 441.22,-346.31 662.23,-374.63 788.16,-385.52"/>
<polygon fill="black" stroke="black" points="787.54,-388.98 797.8,-386.33 788.12,-382 787.54,-388.98"/>
</g>
<!-- 3 -->
<!-- name: &quot;Dependency on &#39;Above ID (the legacy request ID) nonzero&#39;&quot;, typeName: &quot;&quot;, id: 3, branchId: 0, recurseId: &#45;1, attributes: 2, notes: &quot;&quot; -->
<g id="node4" class="node">
<title>3</title>
<polygon fill="none" stroke="black" points="608.12,-266 265.87,-266 265.87,-230 614.12,-230 614.12,-260 608.12,-266"/>
<polyline fill="none" stroke="black" points="608.12,-266 608.12,-260"/>
<polyline fill="none" stroke="black" points="614.12,-260 608.12,-260"/>
<text text-anchor="middle" x="440" y="-242.57" font-family="Times New Roman,serif" font-size="14.00">Dependency on &#39;Above ID (the legacy request ID) nonzero&#39;</text>
</g>
<!-- 0&#45;&gt;3 -->
<g id="edge3" class="edge">
<title>0&#45;&gt;3</title>
<path fill="none" stroke="black" d="M185.24,-194.59C230.4,-204.09 290.02,-216.64 340.13,-227.19"/>
<polygon fill="black" stroke="black" points="339.33,-230.6 349.84,-229.23 340.78,-223.75 339.33,-230.6"/>
</g>
<!-- 19 -->
<!-- name: &quot;Transaction Type&quot;, typeName: &quot;&quot;, id: 19, branchId: 0, recurseId: &#45;1, attributes: 0, notes: &quot;&quot; -->
<g id="node20" class="node">
<title>19</title>
<ellipse fill="none" stroke="black" cx="1630.87" cy="-72" rx="76.51" ry="18"/>
<text text-anchor="middle" x="1630.87" y="-66.58" font-family="Times New Roman,serif" font-size="14.00">Transaction Type</text>
</g>
<!-- 0&#45;&gt;19 -->
<g id="edge19" class="edge">
<title>0&#45;&gt;19</title>
<path fill="none" stroke="black" d="M170.06,-163.86C273,-134.65 504.47,-76 703.69,-76 703.69,-76 703.69,-76 1269.79,-76 1363.11,-76 1470.02,-74.64 1542.95,-73.51"/>
<polygon fill="black" stroke="black" points="1542.9,-77.01 1552.84,-73.35 1542.79,-70.01 1542.9,-77.01"/>
</g>
<!-- 21 -->
<!-- name: &quot;mTransaction&#45;&gt;mTransaction&quot;, typeName: &quot;InventoryTransaction&quot;, id: 21, branchId: 0, recurseId: &#45;1, attributes: 256, notes: &quot;Our ComplexInventoryTransaction contains an InventoryTransaction within it&quot; -->
<g id="node22" class="node">
<title>21</title>
<ellipse fill="none" stroke="black" cx="440" cy="-22" rx="120.92" ry="18"/>
<text text-anchor="middle" x="440" y="-16.57" font-family="Times New Roman,serif" font-size="14.00">mTransaction&#45;&gt;mTransaction</text>
</g>
<!-- 0&#45;&gt;21 -->
<g id="edge21" class="edge">
<title>0&#45;&gt;21</title>
<path fill="none" stroke="black" d="M133.52,-161.79C159.82,-135.64 212.1,-87.77 265.87,-62 288.89,-50.97 315.12,-42.89 340.08,-37"/>
<polygon fill="black" stroke="black" points="340.59,-40.48 349.58,-34.87 339.06,-33.65 340.59,-40.48"/>
</g>
<!-- 2 -->
<!-- name: &quot;varint&quot;, typeName: &quot;&quot;, id: 2, branchId: 0, recurseId: &#45;1, attributes: 512, notes: &quot;&quot; -->
<g id="node3" class="node">
<title>2</title>
<ellipse fill="none" stroke="black" cx="1833.37" cy="-396" rx="31.1" ry="18"/>
<text text-anchor="middle" x="1833.37" y="-390.57" font-family="Times New Roman,serif" font-size="14.00">varint</text>
</g>
<!-- 1&#45;&gt;2 -->
<g id="edge2" class="edge">
<title>1&#45;&gt;2</title>
<path fill="none" stroke="black" d="M983.34,-393.54C1059.75,-394.66 1170.78,-396 1267.79,-396 1267.79,-396 1267.79,-396 1447.84,-396 1572.48,-396 1719.84,-396 1790.49,-396"/>
<polygon fill="black" stroke="black" points="1790.45,-399.5 1800.45,-396 1790.45,-392.5 1790.45,-399.5"/>
</g>
<!-- 4 -->
<!-- name: &quot;If False&quot;, typeName: &quot;&quot;, id: 4, branchId: 0, recurseId: &#45;1, attributes: 4, notes: &quot;&quot; -->
<g id="node5" class="node">
<title>4</title>
<polygon fill="none" stroke="black" points="704.69,-347 650.12,-329 704.69,-311 759.27,-329 704.69,-347"/>
<text text-anchor="middle" x="704.69" y="-323.57" font-family="Times New Roman,serif" font-size="14.00">If False</text>
</g>
<!-- 3&#45;&gt;4 -->
<g id="edge4" class="edge">
<title>3&#45;&gt;4</title>
<path fill="none" stroke="black" d="M500.93,-266.48C551.12,-281.95 621.28,-303.59 664.54,-316.93"/>
<polygon fill="black" stroke="black" points="663.42,-320.24 674.01,-319.85 665.48,-313.56 663.42,-320.24"/>
</g>
<!-- 6 -->
<!-- name: &quot;If True&quot;, typeName: &quot;&quot;, id: 6, branchId: 1, recurseId: &#45;1, attributes: 4, notes: &quot;&quot; -->
<g id="node7" class="node">
<title>6</title>
<polygon fill="none" stroke="black" points="704.69,-266 652.94,-248 704.69,-230 756.44,-248 704.69,-266"/>
<text text-anchor="middle" x="704.69" y="-242.57" font-family="Times New Roman,serif" font-size="14.00">If True</text>
</g>
<!-- 3&#45;&gt;6 -->
<g id="edge6" class="edge">
<title>3&#45;&gt;6</title>
<path fill="none" stroke="black" d="M614.39,-248C623.37,-248 632.06,-248 640.26,-248"/>
<polygon fill="black" stroke="black" points="639.99,-251.5 649.99,-248 639.99,-244.5 639.99,-251.5"/>
</g>
<!-- 5 -->
<!-- name: &quot;[No Data]&quot;, typeName: &quot;&quot;, id: 5, branchId: 0, recurseId: &#45;1, attributes: 512, notes: &quot;&quot; -->
<g id="node6" class="node">
<title>5</title>
<ellipse fill="none" stroke="black" cx="1833.37" cy="-342" rx="47.57" ry="18"/>
<text text-anchor="middle" x="1833.37" y="-336.57" font-family="Times New Roman,serif" font-size="14.00">[No Data]</text>
</g>
<!-- 4&#45;&gt;5 -->
<g id="edge5" class="edge">
<title>4&#45;&gt;5</title>
<path fill="none" stroke="black" d="M752.68,-331.62C825.05,-335.41 968.16,-342 1089.74,-342 1089.74,-342 1089.74,-342 1447.84,-342 1563.57,-342 1698.89,-342 1774.2,-342"/>
<polygon fill="black" stroke="black" points="1773.8,-345.5 1783.8,-342 1773.8,-338.5 1773.8,-345.5"/>
</g>
<!-- 7 -->
<!-- name: &quot;Legacy Set Item Slots&quot;, typeName: &quot;&quot;, id: 7, branchId: 0, recurseId: &#45;1, attributes: 8, notes: &quot;Only matters when ItemStackNetManager is enabled&quot; -->
<g id="node8" class="node">
<title>7</title>
<ellipse fill="none" stroke="black" cx="889.24" cy="-248" rx="92.48" ry="18"/>
<text text-anchor="middle" x="889.24" y="-242.57" font-family="Times New Roman,serif" font-size="14.00">Legacy Set Item Slots</text>
</g>
<!-- 6&#45;&gt;7 -->
<g id="edge7" class="edge">
<title>6&#45;&gt;7</title>
<path fill="none" stroke="black" d="M757.52,-248C766.31,-248 775.7,-248 785.27,-248"/>
<polygon fill="black" stroke="black" points="785.04,-251.5 795.04,-248 785.04,-244.5 785.04,-251.5"/>
</g>
<!-- 8 -->
<!-- name: &quot;List Size&quot;, typeName: &quot;&quot;, id: 8, branchId: 0, recurseId: &#45;1, attributes: 0, notes: &quot;&quot; -->
<g id="node9" class="node">
<title>8</title>
<ellipse fill="none" stroke="black" cx="1090.74" cy="-288" rx="42.58" ry="18"/>
<text text-anchor="middle" x="1090.74" y="-282.57" font-family="Times New Roman,serif" font-size="14.00">List Size</text>
</g>
<!-- 7&#45;&gt;8 -->
<g id="edge8" class="edge">
<title>7&#45;&gt;8</title>
<path fill="none" stroke="black" d="M955.02,-260.99C982.87,-266.57 1014.88,-272.99 1040.71,-278.17"/>
<polygon fill="black" stroke="black" points="1039.76,-281.55 1050.26,-280.08 1041.14,-274.68 1039.76,-281.55"/>
</g>
<!-- 10 -->
<!-- name: &quot;example element&quot;, typeName: &quot;&quot;, id: 10, branchId: 0, recurseId: &#45;1, attributes: 16, notes: &quot;&quot; -->
<g id="node11" class="node">
<title>10</title>
<ellipse fill="none" stroke="black" stroke-dasharray="1,5" cx="1090.74" cy="-234" rx="71.52" ry="18"/>
<text text-anchor="middle" x="1090.74" y="-228.57" font-family="Times New Roman,serif" font-size="14.00">example element</text>
</g>
<!-- 7&#45;&gt;10 -->
<g id="edge10" class="edge">
<title>7&#45;&gt;10</title>
<path fill="none" stroke="black" d="M976.88,-241.92C987.96,-241.14 999.26,-240.35 1010.22,-239.58"/>
<polygon fill="black" stroke="black" points="1010.26,-243.09 1019.99,-238.89 1009.77,-236.1 1010.26,-243.09"/>
</g>
<!-- 9 -->
<!-- name: &quot;unsigned varint&quot;, typeName: &quot;&quot;, id: 9, branchId: 0, recurseId: &#45;1, attributes: 512, notes: &quot;&quot; -->
<g id="node10" class="node">
<title>9</title>
<ellipse fill="none" stroke="black" cx="1833.37" cy="-288" rx="66.53" ry="18"/>
<text text-anchor="middle" x="1833.37" y="-282.57" font-family="Times New Roman,serif" font-size="14.00">unsigned varint</text>
</g>
<!-- 8&#45;&gt;9 -->
<g id="edge9" class="edge">
<title>8&#45;&gt;9</title>
<path fill="none" stroke="black" d="M1133.69,-288C1253.7,-288 1599.8,-288 1755.21,-288"/>
<polygon fill="black" stroke="black" points="1755,-291.5 1765,-288 1755,-284.5 1755,-291.5"/>
</g>
<!-- 11 -->
<!-- name: &quot;Container Enum&quot;, typeName: &quot;&quot;, id: 11, branchId: 0, recurseId: &#45;1, attributes: 0, notes: &quot;&quot; -->
<g id="node12" class="node">
<title>11</title>
<ellipse fill="none" stroke="black" cx="1268.79" cy="-234" rx="70.52" ry="18"/>
<text text-anchor="middle" x="1268.79" y="-228.57" font-family="Times New Roman,serif" font-size="14.00">Container Enum</text>
</g>
<!-- 10&#45;&gt;11 -->
<g id="edge11" class="edge">
<title>10&#45;&gt;11</title>
<path fill="none" stroke="black" d="M1162.59,-234C1170.51,-234 1178.63,-234 1186.67,-234"/>
<polygon fill="black" stroke="black" points="1186.44,-237.5 1196.44,-234 1186.44,-230.5 1186.44,-237.5"/>
</g>
<!-- 13 -->
<!-- name: &quot;Slot vector&quot;, typeName: &quot;&quot;, id: 13, branchId: 0, recurseId: &#45;1, attributes: 8, notes: &quot;&quot; -->
<g id="node14" class="node">
<title>13</title>
<ellipse fill="none" stroke="black" cx="1268.79" cy="-180" rx="51.56" ry="18"/>
<text text-anchor="middle" x="1268.79" y="-174.57" font-family="Times New Roman,serif" font-size="14.00">Slot vector</text>
</g>
<!-- 10&#45;&gt;13 -->
<g id="edge13" class="edge">
<title>10&#45;&gt;13</title>
<path fill="none" stroke="black" d="M1137.54,-219.95C1162.3,-212.36 1192.9,-202.97 1218.22,-195.21"/>
<polygon fill="black" stroke="black" points="1219.1,-198.6 1227.63,-192.32 1217.04,-191.91 1219.1,-198.6"/>
</g>
<!-- 12 -->
<!-- name: &quot;byte&quot;, typeName: &quot;&quot;, id: 12, branchId: 0, recurseId: &#45;1, attributes: 512, notes: &quot;&quot; -->
<g id="node13" class="node">
<title>12</title>
<ellipse fill="none" stroke="black" cx="1833.37" cy="-234" rx="27" ry="18"/>
<text text-anchor="middle" x="1833.37" y="-228.57" font-family="Times New Roman,serif" font-size="14.00">byte</text>
</g>
<!-- 11&#45;&gt;12 -->
<g id="edge12" class="edge">
<title>11&#45;&gt;12</title>
<path fill="none" stroke="black" d="M1339.62,-234C1459.72,-234 1701.43,-234 1794.58,-234"/>
<polygon fill="black" stroke="black" points="1794.43,-237.5 1804.43,-234 1794.43,-230.5 1794.43,-237.5"/>
</g>
<!-- 14 -->
<!-- name: &quot;List Size&quot;, typeName: &quot;&quot;, id: 14, branchId: 0, recurseId: &#45;1, attributes: 0, notes: &quot;&quot; -->
<g id="node15" class="node">
<title>14</title>
<ellipse fill="none" stroke="black" cx="1446.84" cy="-180" rx="42.58" ry="18"/>
<text text-anchor="middle" x="1446.84" y="-174.57" font-family="Times New Roman,serif" font-size="14.00">List Size</text>
</g>
<!-- 13&#45;&gt;14 -->
<g id="edge14" class="edge">
<title>13&#45;&gt;14</title>
<path fill="none" stroke="black" d="M1320.71,-180C1343.3,-180 1369.88,-180 1392.71,-180"/>
<polygon fill="black" stroke="black" points="1392.42,-183.5 1402.42,-180 1392.42,-176.5 1392.42,-183.5"/>
</g>
<!-- 16 -->
<!-- name: &quot;example element&quot;, typeName: &quot;&quot;, id: 16, branchId: 0, recurseId: &#45;1, attributes: 16, notes: &quot;&quot; -->
<g id="node17" class="node">
<title>16</title>
<ellipse fill="none" stroke="black" stroke-dasharray="1,5" cx="1446.84" cy="-126" rx="71.52" ry="18"/>
<text text-anchor="middle" x="1446.84" y="-120.58" font-family="Times New Roman,serif" font-size="14.00">example element</text>
</g>
<!-- 13&#45;&gt;16 -->
<g id="edge16" class="edge">
<title>13&#45;&gt;16</title>
<path fill="none" stroke="black" d="M1308.43,-168.15C1332.07,-160.9 1362.75,-151.49 1389.12,-143.4"/>
<polygon fill="black" stroke="black" points="1390.14,-146.75 1398.68,-140.47 1388.09,-140.05 1390.14,-146.75"/>
</g>
<!-- 15 -->
<!-- name: &quot;unsigned varint&quot;, typeName: &quot;&quot;, id: 15, branchId: 0, recurseId: &#45;1, attributes: 512, notes: &quot;&quot; -->
<g id="node16" class="node">
<title>15</title>
<ellipse fill="none" stroke="black" cx="1833.37" cy="-180" rx="66.53" ry="18"/>
<text text-anchor="middle" x="1833.37" y="-174.57" font-family="Times New Roman,serif" font-size="14.00">unsigned varint</text>
</g>
<!-- 14&#45;&gt;15 -->
<g id="edge15" class="edge">
<title>14&#45;&gt;15</title>
<path fill="none" stroke="black" d="M1489.72,-180C1553.27,-180 1675.07,-180 1755.02,-180"/>
<polygon fill="black" stroke="black" points="1754.98,-183.5 1764.98,-180 1754.98,-176.5 1754.98,-183.5"/>
</g>
<!-- 17 -->
<!-- name: &quot;Slot&quot;, typeName: &quot;&quot;, id: 17, branchId: 0, recurseId: &#45;1, attributes: 0, notes: &quot;&quot; -->
<g id="node18" class="node">
<title>17</title>
<ellipse fill="none" stroke="black" cx="1630.87" cy="-126" rx="27" ry="18"/>
<text text-anchor="middle" x="1630.87" y="-120.58" font-family="Times New Roman,serif" font-size="14.00">Slot</text>
</g>
<!-- 16&#45;&gt;17 -->
<g id="edge17" class="edge">
<title>16&#45;&gt;17</title>
<path fill="none" stroke="black" d="M1518.74,-126C1543.72,-126 1570.84,-126 1592.03,-126"/>
<polygon fill="black" stroke="black" points="1591.94,-129.5 1601.94,-126 1591.94,-122.5 1591.94,-129.5"/>
</g>
<!-- 18 -->
<!-- name: &quot;byte&quot;, typeName: &quot;&quot;, id: 18, branchId: 0, recurseId: &#45;1, attributes: 512, notes: &quot;&quot; -->
<g id="node19" class="node">
<title>18</title>
<ellipse fill="none" stroke="black" cx="1833.37" cy="-126" rx="27" ry="18"/>
<text text-anchor="middle" x="1833.37" y="-120.58" font-family="Times New Roman,serif" font-size="14.00">byte</text>
</g>
<!-- 17&#45;&gt;18 -->
<g id="edge18" class="edge">
<title>17&#45;&gt;18</title>
<path fill="none" stroke="black" d="M1658.09,-126C1692.98,-126 1754.93,-126 1794.79,-126"/>
<polygon fill="black" stroke="black" points="1794.64,-129.5 1804.64,-126 1794.64,-122.5 1794.64,-129.5"/>
</g>
<!-- 20 -->
<!-- name: &quot;unsigned varint&quot;, typeName: &quot;&quot;, id: 20, branchId: 0, recurseId: &#45;1, attributes: 512, notes: &quot;&quot; -->
<g id="node21" class="node">
<title>20</title>
<ellipse fill="none" stroke="black" cx="1833.37" cy="-72" rx="66.53" ry="18"/>
<text text-anchor="middle" x="1833.37" y="-66.58" font-family="Times New Roman,serif" font-size="14.00">unsigned varint</text>
</g>
<!-- 19&#45;&gt;20 -->
<g id="edge20" class="edge">
<title>19&#45;&gt;20</title>
<path fill="none" stroke="black" d="M1707.67,-72C1723.29,-72 1739.75,-72 1755.41,-72"/>
<polygon fill="black" stroke="black" points="1755.13,-75.5 1765.13,-72 1755.13,-68.5 1755.13,-75.5"/>
</g>
<!-- 57 -->
<!-- name: &quot;InventoryTransaction&quot;, typeName: &quot;&quot;, id: 57, branchId: 0, recurseId: &#45;1, attributes: 512, notes: &quot;&quot; -->
<g id="node23" class="node">
<title>57</title>
<ellipse fill="none" stroke="black" cx="1833.37" cy="-18" rx="89.99" ry="18"/>
<text text-anchor="middle" x="1833.37" y="-12.57" font-family="Times New Roman,serif" font-size="14.00">InventoryTransaction</text>
</g>
<!-- 21&#45;&gt;57 -->
<g id="edge22" class="edge">
<title>21&#45;&gt;57</title>
<path fill="none" stroke="black" d="M560.59,-20.35C650.66,-19.25 777.2,-18 888.24,-18 888.24,-18 888.24,-18 1447.84,-18 1544.24,-18 1654.23,-18 1731.81,-18"/>
<polygon fill="black" stroke="black" points="1731.51,-21.5 1741.51,-18 1731.51,-14.5 1731.51,-21.5"/>
</g>
</g>
</svg>
