<?xml version="1.0" encoding="UTF-8" standalone="no"?>
<!DOCTYPE svg PUBLIC "-//W3C//DTD SVG 1.1//EN"
 "http://www.w3.org/Graphics/SVG/1.1/DTD/svg11.dtd">
<!-- Generated by graphviz version 11.0.0 (20240428.1522)
 -->
<!-- Title: InventoryContentPacket Pages: 1 -->
<svg width="1079pt" height="260pt"
 viewBox="0.00 0.00 1078.80 260.00" xmlns="http://www.w3.org/2000/svg" xmlns:xlink="http://www.w3.org/1999/xlink">
<g id="graph0" class="graph" transform="scale(1 1) rotate(0) translate(4 256)">
<title>InventoryContentPacket</title>
<polygon fill="white" stroke="none" points="-4,4 -4,-256 1074.8,-256 1074.8,4 -4,4"/>
<!-- 0 -->
<!-- name: &quot;InventoryContentPacket&quot;, typeName: &quot;&quot;, id: 0, branchId: 49, recurseId: &#45;1, attributes: 0, notes: &quot;&quot; -->
<g id="node1" class="node">
<title>0</title>
<ellipse fill="none" stroke="black" cx="100.46" cy="-99" rx="100.46" ry="18"/>
<text text-anchor="middle" x="100.46" y="-93.58" font-family="Times New Roman,serif" font-size="14.00">InventoryContentPacket</text>
</g>
<!-- 1 -->
<!-- name: &quot;Inventory Id&quot;, typeName: &quot;&quot;, id: 1, branchId: 0, recurseId: &#45;1, attributes: 0, notes: &quot;&quot; -->
<g id="node2" class="node">
<title>1</title>
<ellipse fill="none" stroke="black" cx="739.4" cy="-234" rx="56.55" ry="18"/>
<text text-anchor="middle" x="739.4" y="-228.57" font-family="Times New Roman,serif" font-size="14.00">Inventory Id</text>
</g>
<!-- 0&#45;&gt;1 -->
<g id="edge1" class="edge">
<title>0&#45;&gt;1</title>
<path fill="none" stroke="black" d="M138.08,-116.14C164.92,-128.07 202.52,-143.49 236.93,-153 390.28,-195.4 576.55,-218.27 673.17,-228.07"/>
<polygon fill="black" stroke="black" points="672.7,-231.54 683,-229.06 673.39,-224.58 672.7,-231.54"/>
</g>
<!-- 3 -->
<!-- name: &quot;Slots&quot;, typeName: &quot;&quot;, id: 3, branchId: 0, recurseId: &#45;1, attributes: 8, notes: &quot;&quot; -->
<g id="node4" class="node">
<title>3</title>
<ellipse fill="none" stroke="black" cx="336.89" cy="-126" rx="29.61" ry="18"/>
<text text-anchor="middle" x="336.89" y="-120.58" font-family="Times New Roman,serif" font-size="14.00">Slots</text>
</g>
<!-- 0&#45;&gt;3 -->
<g id="edge3" class="edge">
<title>0&#45;&gt;3</title>
<path fill="none" stroke="black" d="M186.1,-108.75C223.61,-113.07 265.96,-117.95 296.04,-121.41"/>
<polygon fill="black" stroke="black" points="295.49,-124.87 305.82,-122.54 296.29,-117.92 295.49,-124.87"/>
</g>
<!-- 9 -->
<!-- name: &quot;Full Container Name&quot;, typeName: &quot;FullContainerName&quot;, id: 9, branchId: 0, recurseId: &#45;1, attributes: 256, notes: &quot;Used to reference a specific container within a given screen container context.&quot; -->
<g id="node10" class="node">
<title>9</title>
<ellipse fill="none" stroke="black" cx="559.85" cy="-72" rx="86.99" ry="18"/>
<text text-anchor="middle" x="559.85" y="-66.58" font-family="Times New Roman,serif" font-size="14.00">Full Container Name</text>
</g>
<!-- 0&#45;&gt;9 -->
<g id="edge9" class="edge">
<title>0&#45;&gt;9</title>
<path fill="none" stroke="black" d="M196.51,-93.39C275.1,-88.75 386.11,-82.2 464.5,-77.57"/>
<polygon fill="black" stroke="black" points="464.53,-81.07 474.31,-76.99 464.12,-74.09 464.53,-81.07"/>
</g>
<!-- 19 -->
<!-- name: &quot;Dynamic Container Size&quot;, typeName: &quot;&quot;, id: 19, branchId: 0, recurseId: &#45;1, attributes: 0, notes: &quot;Size of the particular container instance if this is a dynamic container, otherwise zero.&quot; -->
<g id="node12" class="node">
<title>19</title>
<ellipse fill="none" stroke="black" cx="336.89" cy="-22" rx="99.97" ry="18"/>
<text text-anchor="middle" x="336.89" y="-16.57" font-family="Times New Roman,serif" font-size="14.00">Dynamic Container Size</text>
</g>
<!-- 0&#45;&gt;19 -->
<g id="edge11" class="edge">
<title>0&#45;&gt;19</title>
<path fill="none" stroke="black" d="M150.32,-82.95C186.92,-70.93 237.18,-54.42 276.17,-41.62"/>
<polygon fill="black" stroke="black" points="277.25,-44.95 285.66,-38.5 275.07,-38.3 277.25,-44.95"/>
</g>
<!-- 2 -->
<!-- name: &quot;unsigned varint&quot;, typeName: &quot;&quot;, id: 2, branchId: 0, recurseId: &#45;1, attributes: 512, notes: &quot;&quot; -->
<g id="node3" class="node">
<title>2</title>
<ellipse fill="none" stroke="black" cx="951.37" cy="-234" rx="66.53" ry="18"/>
<text text-anchor="middle" x="951.37" y="-228.57" font-family="Times New Roman,serif" font-size="14.00">unsigned varint</text>
</g>
<!-- 1&#45;&gt;2 -->
<g id="edge2" class="edge">
<title>1&#45;&gt;2</title>
<path fill="none" stroke="black" d="M796.39,-234C819.88,-234 847.6,-234 872.99,-234"/>
<polygon fill="black" stroke="black" points="872.96,-237.5 882.96,-234 872.96,-230.5 872.96,-237.5"/>
</g>
<!-- 4 -->
<!-- name: &quot;Array Size&quot;, typeName: &quot;&quot;, id: 4, branchId: 0, recurseId: &#45;1, attributes: 0, notes: &quot;&quot; -->
<g id="node5" class="node">
<title>4</title>
<ellipse fill="none" stroke="black" cx="739.4" cy="-180" rx="49.57" ry="18"/>
<text text-anchor="middle" x="739.4" y="-174.57" font-family="Times New Roman,serif" font-size="14.00">Array Size</text>
</g>
<!-- 3&#45;&gt;4 -->
<g id="edge4" class="edge">
<title>3&#45;&gt;4</title>
<path fill="none" stroke="black" d="M365.16,-132.26C392.32,-138.3 435.29,-147.35 472.86,-153 543.3,-163.6 624.89,-171.21 678.84,-175.59"/>
<polygon fill="black" stroke="black" points="678.5,-179.07 688.74,-176.38 679.05,-172.1 678.5,-179.07"/>
</g>
<!-- 6 -->
<!-- name: &quot;example element&quot;, typeName: &quot;&quot;, id: 6, branchId: 0, recurseId: &#45;1, attributes: 16, notes: &quot;&quot; -->
<g id="node7" class="node">
<title>6</title>
<ellipse fill="none" stroke="black" stroke-dasharray="1,5" cx="559.85" cy="-126" rx="71.52" ry="18"/>
<text text-anchor="middle" x="559.85" y="-120.58" font-family="Times New Roman,serif" font-size="14.00">example element</text>
</g>
<!-- 3&#45;&gt;6 -->
<g id="edge6" class="edge">
<title>3&#45;&gt;6</title>
<path fill="none" stroke="black" d="M366.78,-126C394.68,-126 438.25,-126 476.85,-126"/>
<polygon fill="black" stroke="black" points="476.6,-129.5 486.6,-126 476.6,-122.5 476.6,-129.5"/>
</g>
<!-- 5 -->
<!-- name: &quot;unsigned varint&quot;, typeName: &quot;&quot;, id: 5, branchId: 0, recurseId: &#45;1, attributes: 512, notes: &quot;&quot; -->
<g id="node6" class="node">
<title>5</title>
<ellipse fill="none" stroke="black" cx="951.37" cy="-180" rx="66.53" ry="18"/>
<text text-anchor="middle" x="951.37" y="-174.57" font-family="Times New Roman,serif" font-size="14.00">unsigned varint</text>
</g>
<!-- 4&#45;&gt;5 -->
<g id="edge5" class="edge">
<title>4&#45;&gt;5</title>
<path fill="none" stroke="black" d="M789.36,-180C814.29,-180 845.17,-180 873.2,-180"/>
<polygon fill="black" stroke="black" points="873.08,-183.5 883.08,-180 873.08,-176.5 873.08,-183.5"/>
</g>
<!-- 7 -->
<!-- name: &quot;Item stack&quot;, typeName: &quot;NetworkItemStackDescriptor&quot;, id: 7, branchId: 0, recurseId: &#45;1, attributes: 256, notes: &quot;&quot; -->
<g id="node8" class="node">
<title>7</title>
<ellipse fill="none" stroke="black" cx="739.4" cy="-126" rx="49.07" ry="18"/>
<text text-anchor="middle" x="739.4" y="-120.58" font-family="Times New Roman,serif" font-size="14.00">Item stack</text>
</g>
<!-- 6&#45;&gt;7 -->
<g id="edge7" class="edge">
<title>6&#45;&gt;7</title>
<path fill="none" stroke="black" d="M631.79,-126C647.33,-126 663.64,-126 678.7,-126"/>
<polygon fill="black" stroke="black" points="678.42,-129.5 688.42,-126 678.42,-122.5 678.42,-129.5"/>
</g>
<!-- 8 -->
<!-- name: &quot;NetworkItemStackDescriptor&quot;, typeName: &quot;&quot;, id: 8, branchId: 0, recurseId: &#45;1, attributes: 512, notes: &quot;&quot; -->
<g id="node9" class="node">
<title>8</title>
<ellipse fill="none" stroke="black" cx="951.37" cy="-126" rx="119.43" ry="18"/>
<text text-anchor="middle" x="951.37" y="-120.58" font-family="Times New Roman,serif" font-size="14.00">NetworkItemStackDescriptor</text>
</g>
<!-- 7&#45;&gt;8 -->
<g id="edge8" class="edge">
<title>7&#45;&gt;8</title>
<path fill="none" stroke="black" d="M788.83,-126C798.64,-126 809.39,-126 820.54,-126"/>
<polygon fill="black" stroke="black" points="820.28,-129.5 830.28,-126 820.28,-122.5 820.28,-129.5"/>
</g>
<!-- 18 -->
<!-- name: &quot;FullContainerName&quot;, typeName: &quot;&quot;, id: 18, branchId: 0, recurseId: &#45;1, attributes: 512, notes: &quot;&quot; -->
<g id="node11" class="node">
<title>18</title>
<ellipse fill="none" stroke="black" cx="951.37" cy="-72" rx="82" ry="18"/>
<text text-anchor="middle" x="951.37" y="-66.58" font-family="Times New Roman,serif" font-size="14.00">FullContainerName</text>
</g>
<!-- 9&#45;&gt;18 -->
<g id="edge10" class="edge">
<title>9&#45;&gt;18</title>
<path fill="none" stroke="black" d="M647.3,-72C709.78,-72 794.07,-72 857.89,-72"/>
<polygon fill="black" stroke="black" points="857.65,-75.5 867.65,-72 857.65,-68.5 857.65,-75.5"/>
</g>
<!-- 20 -->
<!-- name: &quot;unsigned varint&quot;, typeName: &quot;&quot;, id: 20, branchId: 0, recurseId: &#45;1, attributes: 512, notes: &quot;&quot; -->
<g id="node13" class="node">
<title>20</title>
<ellipse fill="none" stroke="black" cx="951.37" cy="-18" rx="66.53" ry="18"/>
<text text-anchor="middle" x="951.37" y="-12.57" font-family="Times New Roman,serif" font-size="14.00">unsigned varint</text>
</g>
<!-- 19&#45;&gt;20 -->
<g id="edge12" class="edge">
<title>19&#45;&gt;20</title>
<path fill="none" stroke="black" d="M436.98,-21.35C558.62,-20.56 762.35,-19.23 873.06,-18.5"/>
<polygon fill="black" stroke="black" points="872.97,-22.01 882.95,-18.44 872.92,-15.01 872.97,-22.01"/>
</g>
</g>
</svg>
