<?xml version="1.0" encoding="UTF-8" standalone="no"?>
<!DOCTYPE svg PUBLIC "-//W3C//DTD SVG 1.1//EN"
 "http://www.w3.org/Graphics/SVG/1.1/DTD/svg11.dtd">
<!-- Generated by graphviz version 12.2.1 (20241206.2353)
 -->
<!-- Title: InventoryTransaction Pages: 1 -->
<svg width="792pt" height="98pt"
 viewBox="0.00 0.00 792.44 98.00" xmlns="http://www.w3.org/2000/svg" xmlns:xlink="http://www.w3.org/1999/xlink">
<g id="graph0" class="graph" transform="scale(1 1) rotate(0) translate(4 94)">
<title>InventoryTransaction</title>
<polygon fill="white" stroke="none" points="-4,4 -4,-94 788.44,-94 788.44,4 -4,4"/>
<!-- 22 -->
<!-- name: &quot;InventoryTransaction&quot;, typeName: &quot;&quot;, id: 22, branchId: 0, recurseId: &#45;1, attributes: 0, notes: &quot;&quot; -->
<g id="node1" class="node">
<title>22</title>
<ellipse fill="none" stroke="black" cx="90.25" cy="-45" rx="90.25" ry="18"/>
<text text-anchor="middle" x="90.25" y="-39.95" font-family="Times New Roman,serif" font-size="14.00">InventoryTransaction</text>
</g>
<!-- 23 -->
<!-- name: &quot;Actions&quot;, typeName: &quot;&quot;, id: 23, branchId: 0, recurseId: &#45;1, attributes: 8, notes: &quot;&quot; -->
<g id="node2" class="node">
<title>23</title>
<ellipse fill="none" stroke="black" cx="256.08" cy="-45" rx="39.58" ry="18"/>
<text text-anchor="middle" x="256.08" y="-39.95" font-family="Times New Roman,serif" font-size="14.00">Actions</text>
</g>
<!-- 22&#45;&gt;23 -->
<g id="edge1" class="edge">
<title>22&#45;&gt;23</title>
<path fill="none" stroke="black" d="M180.83,-45C189.07,-45 197.2,-45 204.89,-45"/>
<polygon fill="black" stroke="black" points="204.66,-48.5 214.66,-45 204.66,-41.5 204.66,-48.5"/>
</g>
<!-- 24 -->
<!-- name: &quot;List Size&quot;, typeName: &quot;&quot;, id: 24, branchId: 0, recurseId: &#45;1, attributes: 0, notes: &quot;&quot; -->
<g id="node3" class="node">
<title>24</title>
<ellipse fill="none" stroke="black" cx="561.12" cy="-72" rx="43.67" ry="18"/>
<text text-anchor="middle" x="561.12" y="-66.95" font-family="Times New Roman,serif" font-size="14.00">List Size</text>
</g>
<!-- 23&#45;&gt;24 -->
<g id="edge2" class="edge">
<title>23&#45;&gt;24</title>
<path fill="none" stroke="black" d="M295.46,-48.42C349.02,-53.19 446.42,-61.87 506.95,-67.26"/>
<polygon fill="black" stroke="black" points="506.39,-70.73 516.66,-68.13 507.01,-63.75 506.39,-70.73"/>
</g>
<!-- 26 -->
<!-- name: &quot;example element&quot;, typeName: &quot;&quot;, id: 26, branchId: 0, recurseId: &#45;1, attributes: 16, notes: &quot;&quot; -->
<g id="node5" class="node">
<title>26</title>
<ellipse fill="none" stroke="black" stroke-dasharray="1,5" cx="406.55" cy="-22" rx="74.89" ry="18"/>
<text text-anchor="middle" x="406.55" y="-16.95" font-family="Times New Roman,serif" font-size="14.00">example element</text>
</g>
<!-- 23&#45;&gt;26 -->
<g id="edge4" class="edge">
<title>23&#45;&gt;26</title>
<path fill="none" stroke="black" d="M294.16,-39.26C305.52,-37.5 318.44,-35.49 331.37,-33.49"/>
<polygon fill="black" stroke="black" points="331.84,-36.96 341.19,-31.97 330.77,-30.04 331.84,-36.96"/>
</g>
<!-- 25 -->
<!-- name: &quot;unsigned varint&quot;, typeName: &quot;&quot;, id: 25, branchId: 0, recurseId: &#45;1, attributes: 512, notes: &quot;&quot; -->
<g id="node4" class="node">
<title>25</title>
<ellipse fill="none" stroke="black" cx="712.62" cy="-72" rx="68.24" ry="18"/>
<text text-anchor="middle" x="712.62" y="-66.95" font-family="Times New Roman,serif" font-size="14.00">unsigned varint</text>
</g>
<!-- 24&#45;&gt;25 -->
<g id="edge3" class="edge">
<title>24&#45;&gt;25</title>
<path fill="none" stroke="black" d="M604.96,-72C613.71,-72 623.17,-72 632.72,-72"/>
<polygon fill="black" stroke="black" points="632.42,-75.5 642.42,-72 632.42,-68.5 632.42,-75.5"/>
</g>
<!-- 27 -->
<!-- name: &quot;Action&quot;, typeName: &quot;InventoryAction&quot;, id: 27, branchId: 0, recurseId: &#45;1, attributes: 256, notes: &quot;&quot; -->
<g id="node6" class="node">
<title>27</title>
<ellipse fill="none" stroke="black" cx="561.12" cy="-18" rx="36" ry="18"/>
<text text-anchor="middle" x="561.12" y="-12.95" font-family="Times New Roman,serif" font-size="14.00">Action</text>
</g>
<!-- 26&#45;&gt;27 -->
<g id="edge5" class="edge">
<title>26&#45;&gt;27</title>
<path fill="none" stroke="black" d="M481.15,-20.07C492.23,-19.78 503.38,-19.49 513.67,-19.22"/>
<polygon fill="black" stroke="black" points="513.45,-22.72 523.35,-18.96 513.27,-15.73 513.45,-22.72"/>
</g>
<!-- 56 -->
<!-- name: &quot;InventoryAction&quot;, typeName: &quot;&quot;, id: 56, branchId: 0, recurseId: &#45;1, attributes: 512, notes: &quot;&quot; -->
<g id="node7" class="node">
<title>56</title>
<ellipse fill="none" stroke="black" cx="712.62" cy="-18" rx="71.82" ry="18"/>
<text text-anchor="middle" x="712.62" y="-12.95" font-family="Times New Roman,serif" font-size="14.00">InventoryAction</text>
</g>
<!-- 27&#45;&gt;56 -->
<g id="edge6" class="edge">
<title>27&#45;&gt;56</title>
<path fill="none" stroke="black" d="M597.55,-18C607.1,-18 617.84,-18 628.82,-18"/>
<polygon fill="black" stroke="black" points="628.8,-21.5 638.8,-18 628.8,-14.5 628.8,-21.5"/>
</g>
</g>
</svg>
