<?xml version="1.0" encoding="UTF-8" standalone="no"?>
<!DOCTYPE svg PUBLIC "-//W3C//DTD SVG 1.1//EN"
 "http://www.w3.org/Graphics/SVG/1.1/DTD/svg11.dtd">
<!-- Generated by graphviz version 14.1.5 (20260411.2331)
 -->
<!-- Title: InventoryAction Pages: 1 -->
<svg width="713pt" height="288pt"
 viewBox="0.00 0.00 713.00 288.00" xmlns="http://www.w3.org/2000/svg" xmlns:xlink="http://www.w3.org/1999/xlink">
<g id="graph0" class="graph" transform="scale(1 1) rotate(0) translate(4 284)">
<title>InventoryAction</title>
<polygon fill="white" stroke="none" points="-4,4 -4,-284 709.11,-284 709.11,4 -4,4"/>
<!-- 0 -->
<!-- name: &quot;InventoryAction&quot;, typeName: &quot;&quot;, id: 0, branchId: 0, recurseId: &#45;1, attributes: 0, notes: &quot;&quot; -->
<g id="node1" class="node">
<title>0</title>
<ellipse fill="none" stroke="black" cx="71.82" cy="-95" rx="71.82" ry="18"/>
<text xml:space="preserve" text-anchor="middle" x="71.82" y="-89.95" font-family="Times New Roman,serif" font-size="14.00">InventoryAction</text>
</g>
<!-- 1 -->
<!-- name: &quot;Source&quot;, typeName: &quot;&quot;, id: 1, branchId: 0, recurseId: &#45;1, attributes: 0, notes: &quot;The inventory source identifying which container this action targets.&quot; -->
<g id="node2" class="node">
<title>1</title>
<ellipse fill="none" stroke="black" cx="231" cy="-181" rx="36.51" ry="18"/>
<text xml:space="preserve" text-anchor="middle" x="231" y="-175.95" font-family="Times New Roman,serif" font-size="14.00">Source</text>
</g>
<!-- 0&#45;&gt;1 -->
<g id="edge1" class="edge">
<title>0&#45;&gt;1</title>
<path fill="none" stroke="black" d="M103.13,-111.58C129.71,-126.12 168.31,-147.25 195.95,-162.37"/>
<polygon fill="black" stroke="black" points="194.18,-165.39 204.63,-167.12 197.54,-159.25 194.18,-165.39"/>
</g>
<!-- 8 -->
<!-- name: &quot;Slot&quot;, typeName: &quot;&quot;, id: 8, branchId: 0, recurseId: &#45;1, attributes: 0, notes: &quot;The slot index within the source container.&quot; -->
<g id="node9" class="node">
<title>8</title>
<ellipse fill="none" stroke="black" cx="377.89" cy="-100" rx="27" ry="18"/>
<text xml:space="preserve" text-anchor="middle" x="377.89" y="-94.95" font-family="Times New Roman,serif" font-size="14.00">Slot</text>
</g>
<!-- 0&#45;&gt;8 -->
<g id="edge8" class="edge">
<title>0&#45;&gt;8</title>
<path fill="none" stroke="black" d="M143.2,-97.96C155.36,-98.38 167.87,-98.75 179.65,-99 235.03,-100.18 299.18,-100.27 338.9,-100.17"/>
<polygon fill="black" stroke="black" points="338.9,-103.67 348.89,-100.14 338.88,-96.67 338.9,-103.67"/>
</g>
<!-- 10 -->
<!-- name: &quot;From Item&quot;, typeName: &quot;&quot;, id: 10, branchId: 0, recurseId: &#45;1, attributes: 0, notes: &quot;The item descriptor representing the state of the slot before this action.&quot; -->
<g id="node11" class="node">
<title>10</title>
<ellipse fill="none" stroke="black" cx="231" cy="-72" rx="51.35" ry="18"/>
<text xml:space="preserve" text-anchor="middle" x="231" y="-66.95" font-family="Times New Roman,serif" font-size="14.00">From Item</text>
</g>
<!-- 0&#45;&gt;10 -->
<g id="edge10" class="edge">
<title>0&#45;&gt;10</title>
<path fill="none" stroke="black" d="M134.49,-85.98C146.75,-84.18 159.57,-82.31 171.71,-80.53"/>
<polygon fill="black" stroke="black" points="172.21,-83.99 181.59,-79.08 171.19,-77.07 172.21,-83.99"/>
</g>
<!-- 11 -->
<!-- name: &quot;To Item&quot;, typeName: &quot;&quot;, id: 11, branchId: 0, recurseId: &#45;1, attributes: 0, notes: &quot;The item descriptor representing the desired state of the slot after this action.&quot; -->
<g id="node12" class="node">
<title>11</title>
<ellipse fill="none" stroke="black" cx="231" cy="-18" rx="40.6" ry="18"/>
<text xml:space="preserve" text-anchor="middle" x="231" y="-12.95" font-family="Times New Roman,serif" font-size="14.00">To Item</text>
</g>
<!-- 0&#45;&gt;11 -->
<g id="edge11" class="edge">
<title>0&#45;&gt;11</title>
<path fill="none" stroke="black" d="M105.77,-78.86C131.2,-66.4 166.39,-49.16 192.82,-36.21"/>
<polygon fill="black" stroke="black" points="194.05,-39.51 201.49,-31.97 190.97,-33.22 194.05,-39.51"/>
</g>
<!-- 2 -->
<!-- name: &quot;Source Type&quot;, typeName: &quot;&quot;, id: 2, branchId: 0, recurseId: &#45;1, attributes: 0, notes: &quot;The inventory source type.&quot; -->
<g id="node3" class="node">
<title>2</title>
<ellipse fill="none" stroke="black" cx="377.89" cy="-262" rx="56.98" ry="18"/>
<text xml:space="preserve" text-anchor="middle" x="377.89" y="-256.95" font-family="Times New Roman,serif" font-size="14.00">Source Type</text>
</g>
<!-- 1&#45;&gt;2 -->
<g id="edge2" class="edge">
<title>1&#45;&gt;2</title>
<path fill="none" stroke="black" d="M253.55,-195.54C270.75,-206.89 295.64,-222.73 318.35,-235 323.03,-237.53 327.98,-240.05 332.96,-242.47"/>
<polygon fill="black" stroke="black" points="331.2,-245.51 341.73,-246.65 334.2,-239.19 331.2,-245.51"/>
</g>
<!-- 4 -->
<!-- name: &quot;Container ID&quot;, typeName: &quot;&quot;, id: 4, branchId: 0, recurseId: &#45;1, attributes: 0, notes: &quot;Container window ID. Present only for ContainerInventory and NonImplementedFeatureTODO source types.&quot; -->
<g id="node5" class="node">
<title>4</title>
<ellipse fill="none" stroke="black" cx="377.89" cy="-208" rx="59.54" ry="18"/>
<text xml:space="preserve" text-anchor="middle" x="377.89" y="-202.95" font-family="Times New Roman,serif" font-size="14.00">Container ID</text>
</g>
<!-- 1&#45;&gt;4 -->
<g id="edge4" class="edge">
<title>1&#45;&gt;4</title>
<path fill="none" stroke="black" d="M265.6,-187.26C280.42,-190.02 298.31,-193.36 315.37,-196.54"/>
<polygon fill="black" stroke="black" points="314.46,-199.93 324.93,-198.32 315.74,-193.04 314.46,-199.93"/>
</g>
<!-- 6 -->
<!-- name: &quot;Bit Flags&quot;, typeName: &quot;&quot;, id: 6, branchId: 0, recurseId: &#45;1, attributes: 0, notes: &quot;Source flags. Present only for WorldInteraction source type.&quot; -->
<g id="node7" class="node">
<title>6</title>
<ellipse fill="none" stroke="black" cx="377.89" cy="-154" rx="44.7" ry="18"/>
<text xml:space="preserve" text-anchor="middle" x="377.89" y="-148.95" font-family="Times New Roman,serif" font-size="14.00">Bit Flags</text>
</g>
<!-- 1&#45;&gt;6 -->
<g id="edge6" class="edge">
<title>1&#45;&gt;6</title>
<path fill="none" stroke="black" d="M265.6,-174.74C283.44,-171.41 305.73,-167.26 325.67,-163.55"/>
<polygon fill="black" stroke="black" points="326.09,-167.03 335.28,-161.75 324.81,-160.14 326.09,-167.03"/>
</g>
<!-- 3 -->
<!-- name: &quot;enum InventorySourceType&quot;, typeName: &quot;&quot;, id: 3, branchId: 0, recurseId: &#45;1, attributes: 512, notes: &quot;The inventory source type.&quot; -->
<g id="node4" class="node">
<title>3</title>
<ellipse fill="none" stroke="black" cx="589.27" cy="-262" rx="114.3" ry="18"/>
<text xml:space="preserve" text-anchor="middle" x="589.27" y="-256.95" font-family="Times New Roman,serif" font-size="14.00">enum InventorySourceType</text>
</g>
<!-- 2&#45;&gt;3 -->
<g id="edge3" class="edge">
<title>2&#45;&gt;3</title>
<path fill="none" stroke="black" d="M435.28,-262C444.16,-262 453.63,-262 463.34,-262"/>
<polygon fill="black" stroke="black" points="463.33,-265.5 473.33,-262 463.33,-258.5 463.33,-265.5"/>
</g>
<!-- 5 -->
<!-- name: &quot;byte&quot;, typeName: &quot;&quot;, id: 5, branchId: 0, recurseId: &#45;1, attributes: 512, notes: &quot;Container window ID. Present only for ContainerInventory and NonImplementedFeatureTODO source types.&quot; -->
<g id="node6" class="node">
<title>5</title>
<ellipse fill="none" stroke="black" cx="589.27" cy="-208" rx="27" ry="18"/>
<text xml:space="preserve" text-anchor="middle" x="589.27" y="-202.95" font-family="Times New Roman,serif" font-size="14.00">byte</text>
</g>
<!-- 4&#45;&gt;5 -->
<g id="edge5" class="edge">
<title>4&#45;&gt;5</title>
<path fill="none" stroke="black" d="M437.77,-208C473.92,-208 519.14,-208 550.52,-208"/>
<polygon fill="black" stroke="black" points="550.32,-211.5 560.32,-208 550.32,-204.5 550.32,-211.5"/>
</g>
<!-- 7 -->
<!-- name: &quot;enum InventorySourceFlags&quot;, typeName: &quot;&quot;, id: 7, branchId: 0, recurseId: &#45;1, attributes: 512, notes: &quot;Source flags. Present only for WorldInteraction source type.&quot; -->
<g id="node8" class="node">
<title>7</title>
<ellipse fill="none" stroke="black" cx="589.27" cy="-154" rx="115.84" ry="18"/>
<text xml:space="preserve" text-anchor="middle" x="589.27" y="-148.95" font-family="Times New Roman,serif" font-size="14.00">enum InventorySourceFlags</text>
</g>
<!-- 6&#45;&gt;7 -->
<g id="edge7" class="edge">
<title>6&#45;&gt;7</title>
<path fill="none" stroke="black" d="M423.04,-154C434.78,-154 448.06,-154 461.88,-154"/>
<polygon fill="black" stroke="black" points="461.54,-157.5 471.54,-154 461.54,-150.5 461.54,-157.5"/>
</g>
<!-- 9 -->
<!-- name: &quot;unsigned varint&quot;, typeName: &quot;&quot;, id: 9, branchId: 0, recurseId: &#45;1, attributes: 512, notes: &quot;The slot index within the source container.&quot; -->
<g id="node10" class="node">
<title>9</title>
<ellipse fill="none" stroke="black" cx="589.27" cy="-100" rx="68.24" ry="18"/>
<text xml:space="preserve" text-anchor="middle" x="589.27" y="-94.95" font-family="Times New Roman,serif" font-size="14.00">unsigned varint</text>
</g>
<!-- 8&#45;&gt;9 -->
<g id="edge9" class="edge">
<title>8&#45;&gt;9</title>
<path fill="none" stroke="black" d="M404.99,-100C431.11,-100 472.63,-100 509.55,-100"/>
<polygon fill="black" stroke="black" points="509.33,-103.5 519.33,-100 509.33,-96.5 509.33,-103.5"/>
</g>
</g>
</svg>
