<?xml version="1.0" encoding="UTF-8" standalone="no"?>
<!DOCTYPE svg PUBLIC "-//W3C//DTD SVG 1.1//EN"
 "http://www.w3.org/Graphics/SVG/1.1/DTD/svg11.dtd">
<!-- Generated by graphviz version 11.0.0 (20240428.1522)
 -->
<!-- Title: InventoryTransaction Pages: 1 -->
<svg width="795pt" height="98pt"
 viewBox="0.00 0.00 795.37 98.00" xmlns="http://www.w3.org/2000/svg" xmlns:xlink="http://www.w3.org/1999/xlink">
<g id="graph0" class="graph" transform="scale(1 1) rotate(0) translate(4 94)">
<title>InventoryTransaction</title>
<polygon fill="white" stroke="none" points="-4,4 -4,-94 791.37,-94 791.37,4 -4,4"/>
<!-- 22 -->
<!-- name: &quot;InventoryTransaction&quot;, typeName: &quot;&quot;, id: 22, branchId: 0, recurseId: &#45;1, attributes: 0, notes: &quot;&quot; -->
<g id="node1" class="node">
<title>22</title>
<ellipse fill="none" stroke="black" cx="89.99" cy="-45" rx="89.99" ry="18"/>
<text text-anchor="middle" x="89.99" y="-39.58" font-family="Times New Roman,serif" font-size="14.00">InventoryTransaction</text>
</g>
<!-- 23 -->
<!-- name: &quot;Actions&quot;, typeName: &quot;&quot;, id: 23, branchId: 0, recurseId: &#45;1, attributes: 8, notes: &quot;&quot; -->
<g id="node2" class="node">
<title>23</title>
<ellipse fill="none" stroke="black" cx="255.56" cy="-45" rx="39.59" ry="18"/>
<text text-anchor="middle" x="255.56" y="-39.58" font-family="Times New Roman,serif" font-size="14.00">Actions</text>
</g>
<!-- 22&#45;&gt;23 -->
<g id="edge1" class="edge">
<title>22&#45;&gt;23</title>
<path fill="none" stroke="black" d="M180.43,-45C188.65,-45 196.77,-45 204.45,-45"/>
<polygon fill="black" stroke="black" points="204.2,-48.5 214.2,-45 204.2,-41.5 204.2,-48.5"/>
</g>
<!-- 24 -->
<!-- name: &quot;Array Size&quot;, typeName: &quot;&quot;, id: 24, branchId: 0, recurseId: &#45;1, attributes: 0, notes: &quot;&quot; -->
<g id="node3" class="node">
<title>24</title>
<ellipse fill="none" stroke="black" cx="559.76" cy="-72" rx="49.57" ry="18"/>
<text text-anchor="middle" x="559.76" y="-66.58" font-family="Times New Roman,serif" font-size="14.00">Array Size</text>
</g>
<!-- 23&#45;&gt;24 -->
<g id="edge2" class="edge">
<title>23&#45;&gt;24</title>
<path fill="none" stroke="black" d="M294.83,-48.42C346.53,-53.04 439.18,-61.32 499.8,-66.73"/>
<polygon fill="black" stroke="black" points="499.33,-70.2 509.6,-67.61 499.95,-63.23 499.33,-70.2"/>
</g>
<!-- 26 -->
<!-- name: &quot;example element&quot;, typeName: &quot;&quot;, id: 26, branchId: 0, recurseId: &#45;1, attributes: 16, notes: &quot;&quot; -->
<g id="node5" class="node">
<title>26</title>
<ellipse fill="none" stroke="black" stroke-dasharray="1,5" cx="402.67" cy="-22" rx="71.52" ry="18"/>
<text text-anchor="middle" x="402.67" y="-16.57" font-family="Times New Roman,serif" font-size="14.00">example element</text>
</g>
<!-- 23&#45;&gt;26 -->
<g id="edge4" class="edge">
<title>23&#45;&gt;26</title>
<path fill="none" stroke="black" d="M293.55,-39.14C304.79,-37.36 317.53,-35.34 330.23,-33.32"/>
<polygon fill="black" stroke="black" points="330.52,-36.82 339.85,-31.8 329.43,-29.91 330.52,-36.82"/>
</g>
<!-- 25 -->
<!-- name: &quot;unsigned varint&quot;, typeName: &quot;&quot;, id: 25, branchId: 0, recurseId: &#45;1, attributes: 512, notes: &quot;&quot; -->
<g id="node4" class="node">
<title>25</title>
<ellipse fill="none" stroke="black" cx="716.35" cy="-72" rx="66.53" ry="18"/>
<text text-anchor="middle" x="716.35" y="-66.58" font-family="Times New Roman,serif" font-size="14.00">unsigned varint</text>
</g>
<!-- 24&#45;&gt;25 -->
<g id="edge3" class="edge">
<title>24&#45;&gt;25</title>
<path fill="none" stroke="black" d="M609.67,-72C618.76,-72 628.46,-72 638.16,-72"/>
<polygon fill="black" stroke="black" points="637.99,-75.5 647.99,-72 637.99,-68.5 637.99,-75.5"/>
</g>
<!-- 27 -->
<!-- name: &quot;Action&quot;, typeName: &quot;InventoryAction&quot;, id: 27, branchId: 0, recurseId: &#45;1, attributes: 256, notes: &quot;&quot; -->
<g id="node6" class="node">
<title>27</title>
<ellipse fill="none" stroke="black" cx="559.76" cy="-18" rx="35.6" ry="18"/>
<text text-anchor="middle" x="559.76" y="-12.57" font-family="Times New Roman,serif" font-size="14.00">Action</text>
</g>
<!-- 26&#45;&gt;27 -->
<g id="edge5" class="edge">
<title>26&#45;&gt;27</title>
<path fill="none" stroke="black" d="M473.95,-20.19C487.07,-19.85 500.47,-19.5 512.63,-19.19"/>
<polygon fill="black" stroke="black" points="512.44,-22.7 522.34,-18.94 512.26,-15.7 512.44,-22.7"/>
</g>
<!-- 51 -->
<!-- name: &quot;InventoryAction&quot;, typeName: &quot;&quot;, id: 51, branchId: 0, recurseId: &#45;1, attributes: 512, notes: &quot;&quot; -->
<g id="node7" class="node">
<title>51</title>
<ellipse fill="none" stroke="black" cx="716.35" cy="-18" rx="71.02" ry="18"/>
<text text-anchor="middle" x="716.35" y="-12.57" font-family="Times New Roman,serif" font-size="14.00">InventoryAction</text>
</g>
<!-- 27&#45;&gt;51 -->
<g id="edge6" class="edge">
<title>27&#45;&gt;51</title>
<path fill="none" stroke="black" d="M595.84,-18C607.25,-18 620.44,-18 633.79,-18"/>
<polygon fill="black" stroke="black" points="633.5,-21.5 643.5,-18 633.5,-14.5 633.5,-21.5"/>
</g>
</g>
</svg>
