<?xml version="1.0" encoding="UTF-8" standalone="no"?>
<!DOCTYPE svg PUBLIC "-//W3C//DTD SVG 1.1//EN"
 "http://www.w3.org/Graphics/SVG/1.1/DTD/svg11.dtd">
<!-- Generated by graphviz version 11.0.0 (20240428.1522)
 -->
<!-- Title: ItemStackRequestSlotInfo Pages: 1 -->
<svg width="660pt" height="152pt"
 viewBox="0.00 0.00 659.83 152.00" xmlns="http://www.w3.org/2000/svg" xmlns:xlink="http://www.w3.org/1999/xlink">
<g id="graph0" class="graph" transform="scale(1 1) rotate(0) translate(4 148)">
<title>ItemStackRequestSlotInfo</title>
<polygon fill="white" stroke="none" points="-4,4 -4,-148 655.83,-148 655.83,4 -4,4"/>
<!-- 104 -->
<!-- name: &quot;ItemStackRequestSlotInfo&quot;, typeName: &quot;&quot;, id: 104, branchId: 0, recurseId: &#45;1, attributes: 0, notes: &quot;&quot; -->
<g id="node1" class="node">
<title>104</title>
<ellipse fill="none" stroke="black" cx="108.95" cy="-72" rx="108.95" ry="18"/>
<text text-anchor="middle" x="108.95" y="-66.58" font-family="Times New Roman,serif" font-size="14.00">ItemStackRequestSlotInfo</text>
</g>
<!-- 105 -->
<!-- name: &quot;Full container name.&quot;, typeName: &quot;FullContainerName&quot;, id: 105, branchId: 0, recurseId: &#45;1, attributes: 256, notes: &quot;&quot; -->
<g id="node2" class="node">
<title>105</title>
<ellipse fill="none" stroke="black" cx="339.39" cy="-126" rx="85.49" ry="18"/>
<text text-anchor="middle" x="339.39" y="-120.58" font-family="Times New Roman,serif" font-size="14.00">Full container name.</text>
</g>
<!-- 104&#45;&gt;105 -->
<g id="edge1" class="edge">
<title>104&#45;&gt;105</title>
<path fill="none" stroke="black" d="M172.97,-86.9C203.09,-94.02 239.18,-102.55 269.96,-109.82"/>
<polygon fill="black" stroke="black" points="269.03,-113.2 279.57,-112.1 270.64,-106.39 269.03,-113.2"/>
</g>
<!-- 107 -->
<!-- name: &quot;Slot&quot;, typeName: &quot;&quot;, id: 107, branchId: 0, recurseId: &#45;1, attributes: 0, notes: &quot;&quot; -->
<g id="node4" class="node">
<title>107</title>
<ellipse fill="none" stroke="black" cx="339.39" cy="-72" rx="27" ry="18"/>
<text text-anchor="middle" x="339.39" y="-66.58" font-family="Times New Roman,serif" font-size="14.00">Slot</text>
</g>
<!-- 104&#45;&gt;107 -->
<g id="edge3" class="edge">
<title>104&#45;&gt;107</title>
<path fill="none" stroke="black" d="M218.15,-72C247.86,-72 278.13,-72 300.86,-72"/>
<polygon fill="black" stroke="black" points="300.82,-75.5 310.82,-72 300.82,-68.5 300.82,-75.5"/>
</g>
<!-- 109 -->
<!-- name: &quot;Net Id Variant&quot;, typeName: &quot;ItemStackNetIdVariant&quot;, id: 109, branchId: 0, recurseId: &#45;1, attributes: 256, notes: &quot;&quot; -->
<g id="node6" class="node">
<title>109</title>
<ellipse fill="none" stroke="black" cx="339.39" cy="-18" rx="63.04" ry="18"/>
<text text-anchor="middle" x="339.39" y="-12.57" font-family="Times New Roman,serif" font-size="14.00">Net Id Variant</text>
</g>
<!-- 104&#45;&gt;109 -->
<g id="edge5" class="edge">
<title>104&#45;&gt;109</title>
<path fill="none" stroke="black" d="M172.97,-57.1C205.93,-49.31 246.07,-39.82 278.55,-32.15"/>
<polygon fill="black" stroke="black" points="279.29,-35.57 288.22,-29.86 277.68,-28.75 279.29,-35.57"/>
</g>
<!-- 106 -->
<!-- name: &quot;FullContainerName&quot;, typeName: &quot;&quot;, id: 106, branchId: 0, recurseId: &#45;1, attributes: 512, notes: &quot;&quot; -->
<g id="node3" class="node">
<title>106</title>
<ellipse fill="none" stroke="black" cx="556.36" cy="-126" rx="82" ry="18"/>
<text text-anchor="middle" x="556.36" y="-120.58" font-family="Times New Roman,serif" font-size="14.00">FullContainerName</text>
</g>
<!-- 105&#45;&gt;106 -->
<g id="edge2" class="edge">
<title>105&#45;&gt;106</title>
<path fill="none" stroke="black" d="M425.35,-126C437.66,-126 450.38,-126 462.83,-126"/>
<polygon fill="black" stroke="black" points="462.66,-129.5 472.66,-126 462.66,-122.5 462.66,-129.5"/>
</g>
<!-- 108 -->
<!-- name: &quot;byte&quot;, typeName: &quot;&quot;, id: 108, branchId: 0, recurseId: &#45;1, attributes: 512, notes: &quot;&quot; -->
<g id="node5" class="node">
<title>108</title>
<ellipse fill="none" stroke="black" cx="556.36" cy="-72" rx="27" ry="18"/>
<text text-anchor="middle" x="556.36" y="-66.58" font-family="Times New Roman,serif" font-size="14.00">byte</text>
</g>
<!-- 107&#45;&gt;108 -->
<g id="edge4" class="edge">
<title>107&#45;&gt;108</title>
<path fill="none" stroke="black" d="M366.75,-72C404.56,-72 474.41,-72 517.67,-72"/>
<polygon fill="black" stroke="black" points="517.61,-75.5 527.61,-72 517.61,-68.5 517.61,-75.5"/>
</g>
<!-- 110 -->
<!-- name: &quot;ItemStackNetIdVariant&quot;, typeName: &quot;&quot;, id: 110, branchId: 0, recurseId: &#45;1, attributes: 512, notes: &quot;&quot; -->
<g id="node7" class="node">
<title>110</title>
<ellipse fill="none" stroke="black" cx="556.36" cy="-18" rx="95.47" ry="18"/>
<text text-anchor="middle" x="556.36" y="-12.57" font-family="Times New Roman,serif" font-size="14.00">ItemStackNetIdVariant</text>
</g>
<!-- 109&#45;&gt;110 -->
<g id="edge6" class="edge">
<title>109&#45;&gt;110</title>
<path fill="none" stroke="black" d="M402.86,-18C417.56,-18 433.64,-18 449.66,-18"/>
<polygon fill="black" stroke="black" points="449.22,-21.5 459.22,-18 449.22,-14.5 449.22,-21.5"/>
</g>
</g>
</svg>
