<?xml version="1.0" encoding="UTF-8" standalone="no"?>
<!DOCTYPE svg PUBLIC "-//W3C//DTD SVG 1.1//EN"
 "http://www.w3.org/Graphics/SVG/1.1/DTD/svg11.dtd">
<!-- Generated by graphviz version 2.46.1 (20210213.1702)
 -->
<!-- Title: ItemStackResponseInfo Pages: 1 -->
<svg width="1575pt" height="260pt"
 viewBox="0.00 0.00 1574.99 260.00" xmlns="http://www.w3.org/2000/svg" xmlns:xlink="http://www.w3.org/1999/xlink">
<g id="graph0" class="graph" transform="scale(1 1) rotate(0) translate(4 256)">
<title>ItemStackResponseInfo</title>
<polygon fill="white" stroke="transparent" points="-4,4 -4,-256 1570.99,-256 1570.99,4 -4,4"/>
<!-- 6 -->
<!-- name: &quot;ItemStackResponseInfo&quot;, typeName: &quot;&quot;, id: 6, branchId: 0, recurseId: &#45;1, attributes: 0, notes: &quot;&quot; -->
<g id="node1" class="node">
<title>6</title>
<ellipse fill="none" stroke="black" cx="98.79" cy="-180" rx="98.58" ry="18"/>
<text text-anchor="middle" x="98.79" y="-176.3" font-family="Times New Roman,serif" font-size="14.00">ItemStackResponseInfo</text>
</g>
<!-- 7 -->
<!-- name: &quot;Result&quot;, typeName: &quot;&quot;, id: 7, branchId: 0, recurseId: &#45;1, attributes: 0, notes: &quot;enumeration: ItemStackNetResult&quot; -->
<g id="node2" class="node">
<title>7</title>
<ellipse fill="none" stroke="black" cx="1035.74" cy="-232" rx="33.6" ry="18"/>
<text text-anchor="middle" x="1035.74" y="-228.3" font-family="Times New Roman,serif" font-size="14.00">Result</text>
</g>
<!-- 6&#45;&gt;7 -->
<g id="edge1" class="edge">
<title>6&#45;&gt;7</title>
<path fill="none" stroke="black" d="M169.85,-192.55C255.47,-206.77 404.9,-228 534.03,-228 534.03,-228 534.03,-228 686.56,-228 796.45,-228 925.83,-230.02 991.61,-231.19"/>
<polygon fill="black" stroke="black" points="991.55,-234.69 1001.61,-231.37 991.68,-227.69 991.55,-234.69"/>
</g>
<!-- 9 -->
<!-- name: &quot;Client Request Id&quot;, typeName: &quot;TypedClientNetId&lt;struct ItemStackRequestIdTag,int,0&gt;&quot;, id: 9, branchId: 0, recurseId: &#45;1, attributes: 256, notes: &quot;&quot; -->
<g id="node4" class="node">
<title>9</title>
<ellipse fill="none" stroke="black" cx="685.56" cy="-180" rx="74.19" ry="18"/>
<text text-anchor="middle" x="685.56" y="-176.3" font-family="Times New Roman,serif" font-size="14.00">Client Request Id</text>
</g>
<!-- 6&#45;&gt;9 -->
<g id="edge3" class="edge">
<title>6&#45;&gt;9</title>
<path fill="none" stroke="black" d="M197.67,-180C310.75,-180 494.85,-180 601.32,-180"/>
<polygon fill="black" stroke="black" points="601.38,-183.5 611.38,-180 601.38,-176.5 601.38,-183.5"/>
</g>
<!-- 11 -->
<!-- name: &quot;Dependency on &#39;ItemStackNetResult&#39;&quot;, typeName: &quot;&quot;, id: 11, branchId: 0, recurseId: &#45;1, attributes: 2, notes: &quot;&quot; -->
<g id="node6" class="node">
<title>11</title>
<polygon fill="none" stroke="black" points="452.58,-131 233.58,-131 233.58,-95 458.58,-95 458.58,-125 452.58,-131"/>
<polyline fill="none" stroke="black" points="452.58,-131 452.58,-125 "/>
<polyline fill="none" stroke="black" points="458.58,-125 452.58,-125 "/>
<text text-anchor="middle" x="346.08" y="-109.3" font-family="Times New Roman,serif" font-size="14.00">Dependency on &#39;ItemStackNetResult&#39;</text>
</g>
<!-- 6&#45;&gt;11 -->
<g id="edge5" class="edge">
<title>6&#45;&gt;11</title>
<path fill="none" stroke="black" d="M154.53,-165.05C188.36,-155.81 232.26,-143.82 269.39,-133.68"/>
<polygon fill="black" stroke="black" points="270.44,-137.02 279.17,-131 268.6,-130.26 270.44,-137.02"/>
</g>
<!-- 8 -->
<!-- name: &quot;byte&quot;, typeName: &quot;&quot;, id: 8, branchId: 0, recurseId: &#45;1, attributes: 512, notes: &quot;&quot; -->
<g id="node3" class="node">
<title>8</title>
<ellipse fill="none" stroke="black" cx="1351.21" cy="-234" rx="27" ry="18"/>
<text text-anchor="middle" x="1351.21" y="-230.3" font-family="Times New Roman,serif" font-size="14.00">byte</text>
</g>
<!-- 7&#45;&gt;8 -->
<g id="edge2" class="edge">
<title>7&#45;&gt;8</title>
<path fill="none" stroke="black" d="M1069.69,-232.21C1128.83,-232.59 1252.53,-233.38 1313.98,-233.77"/>
<polygon fill="black" stroke="black" points="1313.97,-237.27 1323.99,-233.83 1314.01,-230.27 1313.97,-237.27"/>
</g>
<!-- 10 -->
<!-- name: &quot;TypedClientNetId&lt;struct ItemStackRequestIdTag,int,0&gt;&quot;, typeName: &quot;&quot;, id: 10, branchId: 0, recurseId: &#45;1, attributes: 512, notes: &quot;&quot; -->
<g id="node5" class="node">
<title>10</title>
<ellipse fill="none" stroke="black" cx="1351.21" cy="-180" rx="215.56" ry="18"/>
<text text-anchor="middle" x="1351.21" y="-176.3" font-family="Times New Roman,serif" font-size="14.00">TypedClientNetId&lt;struct ItemStackRequestIdTag,int,0&gt;</text>
</g>
<!-- 9&#45;&gt;10 -->
<g id="edge4" class="edge">
<title>9&#45;&gt;10</title>
<path fill="none" stroke="black" d="M759.8,-180C847.27,-180 997.72,-180 1124.85,-180"/>
<polygon fill="black" stroke="black" points="1125.12,-183.5 1135.12,-180 1125.12,-176.5 1125.12,-183.5"/>
</g>
<!-- 12 -->
<!-- name: &quot;if (0)&quot;, typeName: &quot;&quot;, id: 12, branchId: 0, recurseId: &#45;1, attributes: 4, notes: &quot;&quot; -->
<g id="node7" class="node">
<title>12</title>
<polygon fill="none" stroke="black" points="535.03,-131 494.64,-113 535.03,-95 575.41,-113 535.03,-131"/>
<text text-anchor="middle" x="535.03" y="-109.3" font-family="Times New Roman,serif" font-size="14.00">if (0)</text>
</g>
<!-- 11&#45;&gt;12 -->
<g id="edge6" class="edge">
<title>11&#45;&gt;12</title>
<path fill="none" stroke="black" d="M458.8,-113C467.58,-113 476.14,-113 484.15,-113"/>
<polygon fill="black" stroke="black" points="484.33,-116.5 494.33,-113 484.33,-109.5 484.33,-116.5"/>
</g>
<!-- 44 -->
<!-- name: &quot;if (1)&quot;, typeName: &quot;&quot;, id: 44, branchId: 1, recurseId: &#45;1, attributes: 4, notes: &quot;&quot; -->
<g id="node14" class="node">
<title>44</title>
<polygon fill="none" stroke="black" points="535.03,-50 494.64,-32 535.03,-14 575.41,-32 535.03,-50"/>
<text text-anchor="middle" x="535.03" y="-28.3" font-family="Times New Roman,serif" font-size="14.00">if (1)</text>
</g>
<!-- 11&#45;&gt;44 -->
<g id="edge13" class="edge">
<title>11&#45;&gt;44</title>
<path fill="none" stroke="black" d="M389.04,-94.82C424.2,-79.59 473.51,-58.22 504.6,-44.75"/>
<polygon fill="black" stroke="black" points="506.23,-47.86 514.02,-40.67 503.45,-41.43 506.23,-47.86"/>
</g>
<!-- 13 -->
<!-- name: &quot;Containers&quot;, typeName: &quot;&quot;, id: 13, branchId: 0, recurseId: &#45;1, attributes: 8, notes: &quot;&quot; -->
<g id="node8" class="node">
<title>13</title>
<ellipse fill="none" stroke="black" cx="685.56" cy="-113" rx="50.09" ry="18"/>
<text text-anchor="middle" x="685.56" y="-109.3" font-family="Times New Roman,serif" font-size="14.00">Containers</text>
</g>
<!-- 12&#45;&gt;13 -->
<g id="edge7" class="edge">
<title>12&#45;&gt;13</title>
<path fill="none" stroke="black" d="M575.44,-113C590.67,-113 608.43,-113 625.15,-113"/>
<polygon fill="black" stroke="black" points="625.39,-116.5 635.39,-113 625.39,-109.5 625.39,-116.5"/>
</g>
<!-- 14 -->
<!-- name: &quot;Array Size&quot;, typeName: &quot;&quot;, id: 14, branchId: 0, recurseId: &#45;1, attributes: 0, notes: &quot;&quot; -->
<g id="node9" class="node">
<title>14</title>
<ellipse fill="none" stroke="black" cx="865.85" cy="-126" rx="48.99" ry="18"/>
<text text-anchor="middle" x="865.85" y="-122.3" font-family="Times New Roman,serif" font-size="14.00">Array Size</text>
</g>
<!-- 13&#45;&gt;14 -->
<g id="edge8" class="edge">
<title>13&#45;&gt;14</title>
<path fill="none" stroke="black" d="M734.81,-116.52C757.27,-118.16 784.15,-120.12 807.62,-121.83"/>
<polygon fill="black" stroke="black" points="807.57,-125.33 817.8,-122.57 808.08,-118.35 807.57,-125.33"/>
</g>
<!-- 16 -->
<!-- name: &quot;example element&quot;, typeName: &quot;&quot;, id: 16, branchId: 0, recurseId: &#45;1, attributes: 16, notes: &quot;&quot; -->
<g id="node11" class="node">
<title>16</title>
<ellipse fill="none" stroke="black" stroke-dasharray="1,5" cx="865.85" cy="-72" rx="70.39" ry="18"/>
<text text-anchor="middle" x="865.85" y="-68.3" font-family="Times New Roman,serif" font-size="14.00">example element</text>
</g>
<!-- 13&#45;&gt;16 -->
<g id="edge10" class="edge">
<title>13&#45;&gt;16</title>
<path fill="none" stroke="black" d="M728.36,-103.39C750.62,-98.27 778.41,-91.88 803.1,-86.2"/>
<polygon fill="black" stroke="black" points="804.15,-89.55 813.11,-83.9 802.58,-82.73 804.15,-89.55"/>
</g>
<!-- 15 -->
<!-- name: &quot;unsigned varint&quot;, typeName: &quot;&quot;, id: 15, branchId: 0, recurseId: &#45;1, attributes: 512, notes: &quot;&quot; -->
<g id="node10" class="node">
<title>15</title>
<ellipse fill="none" stroke="black" cx="1351.21" cy="-126" rx="65.79" ry="18"/>
<text text-anchor="middle" x="1351.21" y="-122.3" font-family="Times New Roman,serif" font-size="14.00">unsigned varint</text>
</g>
<!-- 14&#45;&gt;15 -->
<g id="edge9" class="edge">
<title>14&#45;&gt;15</title>
<path fill="none" stroke="black" d="M914.96,-126C999.46,-126 1175.05,-126 1275.47,-126"/>
<polygon fill="black" stroke="black" points="1275.54,-129.5 1285.54,-126 1275.54,-122.5 1275.54,-129.5"/>
</g>
<!-- 17 -->
<!-- name: &quot;Container Info&quot;, typeName: &quot;ItemStackResponseContainerInfo&quot;, id: 17, branchId: 0, recurseId: &#45;1, attributes: 256, notes: &quot;&quot; -->
<g id="node12" class="node">
<title>17</title>
<ellipse fill="none" stroke="black" cx="1035.74" cy="-72" rx="63.89" ry="18"/>
<text text-anchor="middle" x="1035.74" y="-68.3" font-family="Times New Roman,serif" font-size="14.00">Container Info</text>
</g>
<!-- 16&#45;&gt;17 -->
<g id="edge11" class="edge">
<title>16&#45;&gt;17</title>
<path fill="none" stroke="black" d="M936.1,-72C944.52,-72 953.13,-72 961.6,-72"/>
<polygon fill="black" stroke="black" points="961.83,-75.5 971.83,-72 961.83,-68.5 961.83,-75.5"/>
</g>
<!-- 43 -->
<!-- name: &quot;ItemStackResponseContainerInfo&quot;, typeName: &quot;&quot;, id: 43, branchId: 0, recurseId: &#45;1, attributes: 512, notes: &quot;&quot; -->
<g id="node13" class="node">
<title>43</title>
<ellipse fill="none" stroke="black" cx="1351.21" cy="-72" rx="133.78" ry="18"/>
<text text-anchor="middle" x="1351.21" y="-68.3" font-family="Times New Roman,serif" font-size="14.00">ItemStackResponseContainerInfo</text>
</g>
<!-- 17&#45;&gt;43 -->
<g id="edge12" class="edge">
<title>17&#45;&gt;43</title>
<path fill="none" stroke="black" d="M1099.8,-72C1130.82,-72 1169.57,-72 1207.25,-72"/>
<polygon fill="black" stroke="black" points="1207.32,-75.5 1217.32,-72 1207.32,-68.5 1207.32,-75.5"/>
</g>
<!-- 45 -->
<!-- name: &quot;[No Data]&quot;, typeName: &quot;&quot;, id: 45, branchId: 0, recurseId: &#45;1, attributes: 512, notes: &quot;&quot; -->
<g id="node15" class="node">
<title>45</title>
<ellipse fill="none" stroke="black" cx="1351.21" cy="-18" rx="46.59" ry="18"/>
<text text-anchor="middle" x="1351.21" y="-14.3" font-family="Times New Roman,serif" font-size="14.00">[No Data]</text>
</g>
<!-- 44&#45;&gt;45 -->
<g id="edge14" class="edge">
<title>44&#45;&gt;45</title>
<path fill="none" stroke="black" d="M574.2,-31.34C705.43,-29.09 1138.46,-21.64 1293.98,-18.97"/>
<polygon fill="black" stroke="black" points="1294.31,-22.46 1304.25,-18.79 1294.19,-15.46 1294.31,-22.46"/>
</g>
</g>
</svg>
