<?xml version="1.0" encoding="UTF-8" standalone="no"?>
<!DOCTYPE svg PUBLIC "-//W3C//DTD SVG 1.1//EN"
 "http://www.w3.org/Graphics/SVG/1.1/DTD/svg11.dtd">
<!-- Generated by graphviz version 14.1.5 (20260411.2331)
 -->
<!-- Title: ItemEnchants Pages: 1 -->
<svg width="1049pt" height="256pt"
 viewBox="0.00 0.00 1049.00 256.00" xmlns="http://www.w3.org/2000/svg" xmlns:xlink="http://www.w3.org/1999/xlink">
<g id="graph0" class="graph" transform="scale(1 1) rotate(0) translate(4 252)">
<title>ItemEnchants</title>
<polygon fill="white" stroke="none" points="-4,4 -4,-252 1044.86,-252 1044.86,4 -4,4"/>
<!-- 0 -->
<!-- name: &quot;ItemEnchants&quot;, typeName: &quot;&quot;, id: 0, branchId: 0, recurseId: &#45;1, attributes: 0, notes: &quot;&quot; -->
<g id="node1" class="node">
<title>0</title>
<ellipse fill="none" stroke="black" cx="62.1" cy="-203" rx="62.1" ry="18"/>
<text xml:space="preserve" text-anchor="middle" x="62.1" y="-197.95" font-family="Times New Roman,serif" font-size="14.00">ItemEnchants</text>
</g>
<!-- 1 -->
<!-- name: &quot;Slot&quot;, typeName: &quot;&quot;, id: 1, branchId: 0, recurseId: &#45;1, attributes: 0, notes: &quot;&quot; -->
<g id="node2" class="node">
<title>1</title>
<ellipse fill="none" stroke="black" cx="222.3" cy="-230" rx="27" ry="18"/>
<text xml:space="preserve" text-anchor="middle" x="222.3" y="-224.95" font-family="Times New Roman,serif" font-size="14.00">Slot</text>
</g>
<!-- 0&#45;&gt;1 -->
<g id="edge1" class="edge">
<title>0&#45;&gt;1</title>
<path fill="none" stroke="black" d="M116.22,-212.07C138.58,-215.88 164.05,-220.23 184.32,-223.69"/>
<polygon fill="black" stroke="black" points="183.65,-227.13 194.1,-225.36 184.83,-220.23 183.65,-227.13"/>
</g>
<!-- 3 -->
<!-- name: &quot;ItemEnchants&quot;, typeName: &quot;&quot;, id: 3, branchId: 0, recurseId: &#45;1, attributes: 0, notes: &quot;&quot; -->
<g id="node4" class="node">
<title>3</title>
<ellipse fill="none" stroke="black" cx="222.3" cy="-176" rx="62.1" ry="18"/>
<text xml:space="preserve" text-anchor="middle" x="222.3" y="-170.95" font-family="Times New Roman,serif" font-size="14.00">ItemEnchants</text>
</g>
<!-- 0&#45;&gt;3 -->
<g id="edge3" class="edge">
<title>0&#45;&gt;3</title>
<path fill="none" stroke="black" d="M116.22,-193.93C129.26,-191.71 143.36,-189.3 156.88,-186.99"/>
<polygon fill="black" stroke="black" points="157.29,-190.47 166.56,-185.34 156.11,-183.57 157.29,-190.47"/>
</g>
<!-- 2 -->
<!-- name: &quot;int&quot;, typeName: &quot;&quot;, id: 2, branchId: 0, recurseId: &#45;1, attributes: 512, notes: &quot;&quot; -->
<g id="node3" class="node">
<title>2</title>
<ellipse fill="none" stroke="black" cx="952.66" cy="-230" rx="27" ry="18"/>
<text xml:space="preserve" text-anchor="middle" x="952.66" y="-224.95" font-family="Times New Roman,serif" font-size="14.00">int</text>
</g>
<!-- 1&#45;&gt;2 -->
<g id="edge2" class="edge">
<title>1&#45;&gt;2</title>
<path fill="none" stroke="black" d="M249.65,-230C359.96,-230 784.83,-230 914.12,-230"/>
<polygon fill="black" stroke="black" points="913.83,-233.5 923.83,-230 913.83,-226.5 913.83,-233.5"/>
</g>
<!-- 4 -->
<!-- name: &quot;List Size&quot;, typeName: &quot;&quot;, id: 4, branchId: 0, recurseId: &#45;1, attributes: 0, notes: &quot;&quot; -->
<g id="node5" class="node">
<title>4</title>
<ellipse fill="none" stroke="black" cx="395.29" cy="-180" rx="43.67" ry="18"/>
<text xml:space="preserve" text-anchor="middle" x="395.29" y="-174.95" font-family="Times New Roman,serif" font-size="14.00">List Size</text>
</g>
<!-- 3&#45;&gt;4 -->
<g id="edge4" class="edge">
<title>3&#45;&gt;4</title>
<path fill="none" stroke="black" d="M284.55,-177.43C302.71,-177.86 322.46,-178.32 340.13,-178.73"/>
<polygon fill="black" stroke="black" points="339.82,-182.23 349.9,-178.96 339.98,-175.23 339.82,-182.23"/>
</g>
<!-- 6 -->
<!-- name: &quot;example element&quot;, typeName: &quot;&quot;, id: 6, branchId: 0, recurseId: &#45;1, attributes: 16, notes: &quot;&quot; -->
<g id="node7" class="node">
<title>6</title>
<ellipse fill="none" stroke="black" stroke-dasharray="1,5" cx="395.29" cy="-126" rx="74.89" ry="18"/>
<text xml:space="preserve" text-anchor="middle" x="395.29" y="-120.95" font-family="Times New Roman,serif" font-size="14.00">example element</text>
</g>
<!-- 3&#45;&gt;6 -->
<g id="edge6" class="edge">
<title>3&#45;&gt;6</title>
<path fill="none" stroke="black" d="M266.89,-163.25C287.72,-157.16 312.97,-149.78 335.47,-143.2"/>
<polygon fill="black" stroke="black" points="336.2,-146.63 344.81,-140.47 334.23,-139.92 336.2,-146.63"/>
</g>
<!-- 5 -->
<!-- name: &quot;unsigned varint&quot;, typeName: &quot;&quot;, id: 5, branchId: 0, recurseId: &#45;1, attributes: 0, notes: &quot;&quot; -->
<g id="node6" class="node">
<title>5</title>
<ellipse fill="none" stroke="black" cx="581.08" cy="-180" rx="68.24" ry="18"/>
<text xml:space="preserve" text-anchor="middle" x="581.08" y="-174.95" font-family="Times New Roman,serif" font-size="14.00">unsigned varint</text>
</g>
<!-- 4&#45;&gt;5 -->
<g id="edge5" class="edge">
<title>4&#45;&gt;5</title>
<path fill="none" stroke="black" d="M439.38,-180C457.82,-180 479.95,-180 501.14,-180"/>
<polygon fill="black" stroke="black" points="500.93,-183.5 510.93,-180 500.93,-176.5 500.93,-183.5"/>
</g>
<!-- 7 -->
<!-- name: &quot;List Size&quot;, typeName: &quot;&quot;, id: 7, branchId: 0, recurseId: &#45;1, attributes: 0, notes: &quot;&quot; -->
<g id="node8" class="node">
<title>7</title>
<ellipse fill="none" stroke="black" cx="581.08" cy="-126" rx="43.67" ry="18"/>
<text xml:space="preserve" text-anchor="middle" x="581.08" y="-120.95" font-family="Times New Roman,serif" font-size="14.00">List Size</text>
</g>
<!-- 6&#45;&gt;7 -->
<g id="edge7" class="edge">
<title>6&#45;&gt;7</title>
<path fill="none" stroke="black" d="M470.52,-126C489.07,-126 508.62,-126 525.99,-126"/>
<polygon fill="black" stroke="black" points="525.54,-129.5 535.54,-126 525.54,-122.5 525.54,-129.5"/>
</g>
<!-- 9 -->
<!-- name: &quot;example element&quot;, typeName: &quot;&quot;, id: 9, branchId: 0, recurseId: &#45;1, attributes: 16, notes: &quot;&quot; -->
<g id="node10" class="node">
<title>9</title>
<ellipse fill="none" stroke="black" stroke-dasharray="1,5" cx="581.08" cy="-72" rx="74.89" ry="18"/>
<text xml:space="preserve" text-anchor="middle" x="581.08" y="-66.95" font-family="Times New Roman,serif" font-size="14.00">example element</text>
</g>
<!-- 6&#45;&gt;9 -->
<g id="edge9" class="edge">
<title>6&#45;&gt;9</title>
<path fill="none" stroke="black" d="M444.1,-111.95C467.73,-105.01 496.45,-96.57 521.39,-89.24"/>
<polygon fill="black" stroke="black" points="522.13,-92.67 530.74,-86.5 520.16,-85.96 522.13,-92.67"/>
</g>
<!-- 8 -->
<!-- name: &quot;unsigned varint&quot;, typeName: &quot;&quot;, id: 8, branchId: 0, recurseId: &#45;1, attributes: 0, notes: &quot;&quot; -->
<g id="node9" class="node">
<title>8</title>
<ellipse fill="none" stroke="black" cx="760.22" cy="-126" rx="68.24" ry="18"/>
<text xml:space="preserve" text-anchor="middle" x="760.22" y="-120.95" font-family="Times New Roman,serif" font-size="14.00">unsigned varint</text>
</g>
<!-- 7&#45;&gt;8 -->
<g id="edge8" class="edge">
<title>7&#45;&gt;8</title>
<path fill="none" stroke="black" d="M624.96,-126C641.57,-126 661.14,-126 680.12,-126"/>
<polygon fill="black" stroke="black" points="680,-129.5 690,-126 680,-122.5 680,-129.5"/>
</g>
<!-- 10 -->
<!-- name: &quot;Enchant Type&quot;, typeName: &quot;&quot;, id: 10, branchId: 0, recurseId: &#45;1, attributes: 0, notes: &quot;&quot; -->
<g id="node11" class="node">
<title>10</title>
<ellipse fill="none" stroke="black" cx="760.22" cy="-72" rx="61.59" ry="18"/>
<text xml:space="preserve" text-anchor="middle" x="760.22" y="-66.95" font-family="Times New Roman,serif" font-size="14.00">Enchant Type</text>
</g>
<!-- 9&#45;&gt;10 -->
<g id="edge10" class="edge">
<title>9&#45;&gt;10</title>
<path fill="none" stroke="black" d="M656.43,-72C666.54,-72 676.91,-72 686.98,-72"/>
<polygon fill="black" stroke="black" points="686.69,-75.5 696.69,-72 686.69,-68.5 686.69,-75.5"/>
</g>
<!-- 12 -->
<!-- name: &quot;Enchant Level&quot;, typeName: &quot;&quot;, id: 12, branchId: 0, recurseId: &#45;1, attributes: 0, notes: &quot;&quot; -->
<g id="node13" class="node">
<title>12</title>
<ellipse fill="none" stroke="black" cx="760.22" cy="-18" rx="64.66" ry="18"/>
<text xml:space="preserve" text-anchor="middle" x="760.22" y="-12.95" font-family="Times New Roman,serif" font-size="14.00">Enchant Level</text>
</g>
<!-- 9&#45;&gt;12 -->
<g id="edge12" class="edge">
<title>9&#45;&gt;12</title>
<path fill="none" stroke="black" d="M628.62,-57.81C651.91,-50.71 680.25,-42.07 704.57,-34.66"/>
<polygon fill="black" stroke="black" points="705.43,-38.06 713.98,-31.79 703.39,-31.36 705.43,-38.06"/>
</g>
<!-- 11 -->
<!-- name: &quot;enum Enchant::Type&quot;, typeName: &quot;&quot;, id: 11, branchId: 0, recurseId: &#45;1, attributes: 512, notes: &quot;&quot; -->
<g id="node12" class="node">
<title>11</title>
<ellipse fill="none" stroke="black" cx="952.66" cy="-72" rx="88.2" ry="18"/>
<text xml:space="preserve" text-anchor="middle" x="952.66" y="-66.95" font-family="Times New Roman,serif" font-size="14.00">enum Enchant::Type</text>
</g>
<!-- 10&#45;&gt;11 -->
<g id="edge11" class="edge">
<title>10&#45;&gt;11</title>
<path fill="none" stroke="black" d="M822.26,-72C832.09,-72 842.47,-72 852.92,-72"/>
<polygon fill="black" stroke="black" points="852.74,-75.5 862.74,-72 852.74,-68.5 852.74,-75.5"/>
</g>
<!-- 13 -->
<!-- name: &quot;unsigned byte&quot;, typeName: &quot;&quot;, id: 13, branchId: 0, recurseId: &#45;1, attributes: 512, notes: &quot;&quot; -->
<g id="node14" class="node">
<title>13</title>
<ellipse fill="none" stroke="black" cx="952.66" cy="-18" rx="62.61" ry="18"/>
<text xml:space="preserve" text-anchor="middle" x="952.66" y="-12.95" font-family="Times New Roman,serif" font-size="14.00">unsigned byte</text>
</g>
<!-- 12&#45;&gt;13 -->
<g id="edge13" class="edge">
<title>12&#45;&gt;13</title>
<path fill="none" stroke="black" d="M825.16,-18C842.27,-18 860.89,-18 878.46,-18"/>
<polygon fill="black" stroke="black" points="878.31,-21.5 888.31,-18 878.31,-14.5 878.31,-21.5"/>
</g>
</g>
</svg>
