<?xml version="1.0" encoding="UTF-8" standalone="no"?>
<!DOCTYPE svg PUBLIC "-//W3C//DTD SVG 1.1//EN"
 "http://www.w3.org/Graphics/SVG/1.1/DTD/svg11.dtd">
<!-- Generated by graphviz version 14.1.5 (20260411.2331)
 -->
<!-- Title: ItemStackNetId Pages: 1 -->
<svg width="338pt" height="44pt"
 viewBox="0.00 0.00 338.00 44.00" xmlns="http://www.w3.org/2000/svg" xmlns:xlink="http://www.w3.org/1999/xlink">
<g id="graph0" class="graph" transform="scale(1 1) rotate(0) translate(4 40)">
<title>ItemStackNetId</title>
<polygon fill="white" stroke="none" points="-4,4 -4,-40 334.38,-40 334.38,4 -4,4"/>
<!-- 0 -->
<!-- name: &quot;ItemStackNetId&quot;, typeName: &quot;&quot;, id: 0, branchId: 0, recurseId: &#45;1, attributes: 0, notes: &quot;&quot; -->
<g id="node1" class="node">
<title>0</title>
<ellipse fill="none" stroke="black" cx="69.78" cy="-18" rx="69.78" ry="18"/>
<text xml:space="preserve" text-anchor="middle" x="69.78" y="-12.95" font-family="Times New Roman,serif" font-size="14.00">ItemStackNetId</text>
</g>
<!-- 1 -->
<!-- name: &quot;ID&quot;, typeName: &quot;&quot;, id: 1, branchId: 0, recurseId: &#45;1, attributes: 0, notes: &quot;Raw Id (32 bit signed)&quot; -->
<g id="node2" class="node">
<title>1</title>
<ellipse fill="none" stroke="black" cx="202.55" cy="-18" rx="27" ry="18"/>
<text xml:space="preserve" text-anchor="middle" x="202.55" y="-12.95" font-family="Times New Roman,serif" font-size="14.00">ID</text>
</g>
<!-- 0&#45;&gt;1 -->
<g id="edge1" class="edge">
<title>0&#45;&gt;1</title>
<path fill="none" stroke="black" d="M139.99,-18C148.2,-18 156.32,-18 163.84,-18"/>
<polygon fill="black" stroke="black" points="163.58,-21.5 173.58,-18 163.58,-14.5 163.58,-21.5"/>
</g>
<!-- 2 -->
<!-- name: &quot;varint&quot;, typeName: &quot;&quot;, id: 2, branchId: 0, recurseId: &#45;1, attributes: 512, notes: &quot;Raw Id (32 bit signed)&quot; -->
<g id="node3" class="node">
<title>2</title>
<ellipse fill="none" stroke="black" cx="297.97" cy="-18" rx="32.41" ry="18"/>
<text xml:space="preserve" text-anchor="middle" x="297.97" y="-12.95" font-family="Times New Roman,serif" font-size="14.00">varint</text>
</g>
<!-- 1&#45;&gt;2 -->
<g id="edge2" class="edge">
<title>1&#45;&gt;2</title>
<path fill="none" stroke="black" d="M229.57,-18C237.06,-18 245.43,-18 253.67,-18"/>
<polygon fill="black" stroke="black" points="253.59,-21.5 263.59,-18 253.59,-14.5 253.59,-21.5"/>
</g>
</g>
</svg>
