<?xml version="1.0" encoding="UTF-8" standalone="no"?>
<!DOCTYPE svg PUBLIC "-//W3C//DTD SVG 1.1//EN"
 "http://www.w3.org/Graphics/SVG/1.1/DTD/svg11.dtd">
<!-- Generated by graphviz version 11.0.0 (20240428.1522)
 -->
<!-- Title: ItemStackRequestSlotInfo Pages: 1 -->
<svg width="650pt" height="152pt"
 viewBox="0.00 0.00 649.85 152.00" xmlns="http://www.w3.org/2000/svg" xmlns:xlink="http://www.w3.org/1999/xlink">
<g id="graph0" class="graph" transform="scale(1 1) rotate(0) translate(4 148)">
<title>ItemStackRequestSlotInfo</title>
<polygon fill="white" stroke="none" points="-4,4 -4,-148 645.85,-148 645.85,4 -4,4"/>
<!-- 99 -->
<!-- name: &quot;ItemStackRequestSlotInfo&quot;, typeName: &quot;&quot;, id: 99, branchId: 0, recurseId: &#45;1, attributes: 0, notes: &quot;&quot; -->
<g id="node1" class="node">
<title>99</title>
<ellipse fill="none" stroke="black" cx="108.95" cy="-72" rx="108.95" ry="18"/>
<text text-anchor="middle" x="108.95" y="-66.58" font-family="Times New Roman,serif" font-size="14.00">ItemStackRequestSlotInfo</text>
</g>
<!-- 100 -->
<!-- name: &quot;Full container name.&quot;, typeName: &quot;FullContainerName&quot;, id: 100, branchId: 0, recurseId: &#45;1, attributes: 256, notes: &quot;&quot; -->
<g id="node2" class="node">
<title>100</title>
<ellipse fill="none" stroke="black" cx="347.87" cy="-126" rx="85.49" ry="18"/>
<text text-anchor="middle" x="347.87" y="-120.58" font-family="Times New Roman,serif" font-size="14.00">Full container name.</text>
</g>
<!-- 99&#45;&gt;100 -->
<g id="edge1" class="edge">
<title>99&#45;&gt;100</title>
<path fill="none" stroke="black" d="M174.69,-86.76C206.55,-94.02 245,-102.78 277.47,-110.18"/>
<polygon fill="black" stroke="black" points="276.68,-113.59 287.21,-112.4 278.24,-106.77 276.68,-113.59"/>
</g>
<!-- 107 -->
<!-- name: &quot;Slot&quot;, typeName: &quot;&quot;, id: 107, branchId: 0, recurseId: &#45;1, attributes: 0, notes: &quot;&quot; -->
<g id="node4" class="node">
<title>107</title>
<ellipse fill="none" stroke="black" cx="347.87" cy="-72" rx="27" ry="18"/>
<text text-anchor="middle" x="347.87" y="-66.58" font-family="Times New Roman,serif" font-size="14.00">Slot</text>
</g>
<!-- 99&#45;&gt;107 -->
<g id="edge3" class="edge">
<title>99&#45;&gt;107</title>
<path fill="none" stroke="black" d="M218.36,-72C251.03,-72 284.72,-72 309.41,-72"/>
<polygon fill="black" stroke="black" points="309.25,-75.5 319.25,-72 309.25,-68.5 309.25,-75.5"/>
</g>
<!-- 109 -->
<!-- name: &quot;Raw Id (32 bit signed)&quot;, typeName: &quot;&quot;, id: 109, branchId: 0, recurseId: &#45;1, attributes: 0, notes: &quot;&quot; -->
<g id="node6" class="node">
<title>109</title>
<ellipse fill="none" stroke="black" cx="347.87" cy="-18" rx="93.98" ry="18"/>
<text text-anchor="middle" x="347.87" y="-12.57" font-family="Times New Roman,serif" font-size="14.00">Raw Id (32 bit signed)</text>
</g>
<!-- 99&#45;&gt;109 -->
<g id="edge5" class="edge">
<title>99&#45;&gt;109</title>
<path fill="none" stroke="black" d="M174.69,-57.24C205.7,-50.18 242.93,-41.69 274.84,-34.42"/>
<polygon fill="black" stroke="black" points="275.43,-37.87 284.4,-32.24 273.87,-31.05 275.43,-37.87"/>
</g>
<!-- 106 -->
<!-- name: &quot;FullContainerName&quot;, typeName: &quot;&quot;, id: 106, branchId: 0, recurseId: &#45;1, attributes: 512, notes: &quot;&quot; -->
<g id="node3" class="node">
<title>106</title>
<ellipse fill="none" stroke="black" cx="559.85" cy="-126" rx="82" ry="18"/>
<text text-anchor="middle" x="559.85" y="-120.58" font-family="Times New Roman,serif" font-size="14.00">FullContainerName</text>
</g>
<!-- 100&#45;&gt;106 -->
<g id="edge2" class="edge">
<title>100&#45;&gt;106</title>
<path fill="none" stroke="black" d="M433.67,-126C444.4,-126 455.42,-126 466.27,-126"/>
<polygon fill="black" stroke="black" points="465.97,-129.5 475.97,-126 465.97,-122.5 465.97,-129.5"/>
</g>
<!-- 108 -->
<!-- name: &quot;byte&quot;, typeName: &quot;&quot;, id: 108, branchId: 0, recurseId: &#45;1, attributes: 512, notes: &quot;&quot; -->
<g id="node5" class="node">
<title>108</title>
<ellipse fill="none" stroke="black" cx="559.85" cy="-72" rx="27" ry="18"/>
<text text-anchor="middle" x="559.85" y="-66.58" font-family="Times New Roman,serif" font-size="14.00">byte</text>
</g>
<!-- 107&#45;&gt;108 -->
<g id="edge4" class="edge">
<title>107&#45;&gt;108</title>
<path fill="none" stroke="black" d="M375.04,-72C411.74,-72 478.73,-72 520.9,-72"/>
<polygon fill="black" stroke="black" points="520.84,-75.5 530.84,-72 520.84,-68.5 520.84,-75.5"/>
</g>
<!-- 110 -->
<!-- name: &quot;varint&quot;, typeName: &quot;&quot;, id: 110, branchId: 0, recurseId: &#45;1, attributes: 512, notes: &quot;&quot; -->
<g id="node7" class="node">
<title>110</title>
<ellipse fill="none" stroke="black" cx="559.85" cy="-18" rx="31.1" ry="18"/>
<text text-anchor="middle" x="559.85" y="-12.57" font-family="Times New Roman,serif" font-size="14.00">varint</text>
</g>
<!-- 109&#45;&gt;110 -->
<g id="edge6" class="edge">
<title>109&#45;&gt;110</title>
<path fill="none" stroke="black" d="M442.2,-18C468.44,-18 495.67,-18 517.22,-18"/>
<polygon fill="black" stroke="black" points="517.05,-21.5 527.05,-18 517.05,-14.5 517.05,-21.5"/>
</g>
</g>
</svg>
