<?xml version="1.0" encoding="UTF-8" standalone="no"?>
<!DOCTYPE svg PUBLIC "-//W3C//DTD SVG 1.1//EN"
 "http://www.w3.org/Graphics/SVG/1.1/DTD/svg11.dtd">
<!-- Generated by graphviz version 12.2.1 (20241206.2353)
 -->
<!-- Title: ItemData Pages: 1 -->
<svg width="493pt" height="260pt"
 viewBox="0.00 0.00 492.52 260.00" xmlns="http://www.w3.org/2000/svg" xmlns:xlink="http://www.w3.org/1999/xlink">
<g id="graph0" class="graph" transform="scale(1 1) rotate(0) translate(4 256)">
<title>ItemData</title>
<polygon fill="white" stroke="none" points="-4,4 -4,-256 488.52,-256 488.52,4 -4,4"/>
<!-- 6 -->
<!-- name: &quot;ItemData&quot;, typeName: &quot;&quot;, id: 6, branchId: 0, recurseId: &#45;1, attributes: 0, notes: &quot;&quot; -->
<g id="node1" class="node">
<title>6</title>
<ellipse fill="none" stroke="black" cx="45.72" cy="-126" rx="45.72" ry="18"/>
<text text-anchor="middle" x="45.72" y="-120.95" font-family="Times New Roman,serif" font-size="14.00">ItemData</text>
</g>
<!-- 7 -->
<!-- name: &quot;Item Name&quot;, typeName: &quot;&quot;, id: 7, branchId: 0, recurseId: &#45;1, attributes: 0, notes: &quot;&quot; -->
<g id="node2" class="node">
<title>7</title>
<ellipse fill="none" stroke="black" cx="221.79" cy="-234" rx="53.4" ry="18"/>
<text text-anchor="middle" x="221.79" y="-228.95" font-family="Times New Roman,serif" font-size="14.00">Item Name</text>
</g>
<!-- 6&#45;&gt;7 -->
<g id="edge1" class="edge">
<title>6&#45;&gt;7</title>
<path fill="none" stroke="black" d="M59.65,-143.44C74.18,-161.84 99.42,-190.42 127.44,-207 138.45,-213.51 151.12,-218.53 163.5,-222.38"/>
<polygon fill="black" stroke="black" points="162.23,-225.66 172.81,-225.05 164.16,-218.93 162.23,-225.66"/>
</g>
<!-- 9 -->
<!-- name: &quot;Item Id&quot;, typeName: &quot;&quot;, id: 9, branchId: 0, recurseId: &#45;1, attributes: 0, notes: &quot;Block id&#39;s &lt; 256 (can be negative); Item id&#39;s &gt;= 257&quot; -->
<g id="node4" class="node">
<title>9</title>
<ellipse fill="none" stroke="black" cx="221.79" cy="-180" rx="38.56" ry="18"/>
<text text-anchor="middle" x="221.79" y="-174.95" font-family="Times New Roman,serif" font-size="14.00">Item Id</text>
</g>
<!-- 6&#45;&gt;9 -->
<g id="edge3" class="edge">
<title>6&#45;&gt;9</title>
<path fill="none" stroke="black" d="M80.79,-137.74C95.15,-142.6 112.07,-148.21 127.44,-153 143.64,-158.05 161.52,-163.3 177.26,-167.81"/>
<polygon fill="black" stroke="black" points="176.26,-171.17 186.83,-170.54 178.18,-164.43 176.26,-171.17"/>
</g>
<!-- 11 -->
<!-- name: &quot;Is Component Based&quot;, typeName: &quot;&quot;, id: 11, branchId: 0, recurseId: &#45;1, attributes: 0, notes: &quot;&quot; -->
<g id="node6" class="node">
<title>11</title>
<ellipse fill="none" stroke="black" cx="221.79" cy="-126" rx="88.71" ry="18"/>
<text text-anchor="middle" x="221.79" y="-120.95" font-family="Times New Roman,serif" font-size="14.00">Is Component Based</text>
</g>
<!-- 6&#45;&gt;11 -->
<g id="edge5" class="edge">
<title>6&#45;&gt;11</title>
<path fill="none" stroke="black" d="M91.55,-126C100.87,-126 111.04,-126 121.45,-126"/>
<polygon fill="black" stroke="black" points="121.3,-129.5 131.3,-126 121.3,-122.5 121.3,-129.5"/>
</g>
<!-- 13 -->
<!-- name: &quot;Item Version&quot;, typeName: &quot;&quot;, id: 13, branchId: 0, recurseId: &#45;1, attributes: 0, notes: &quot;&quot; -->
<g id="node8" class="node">
<title>13</title>
<ellipse fill="none" stroke="black" cx="221.79" cy="-72" rx="58.52" ry="18"/>
<text text-anchor="middle" x="221.79" y="-66.95" font-family="Times New Roman,serif" font-size="14.00">Item Version</text>
</g>
<!-- 6&#45;&gt;13 -->
<g id="edge7" class="edge">
<title>6&#45;&gt;13</title>
<path fill="none" stroke="black" d="M80.79,-114.26C95.15,-109.4 112.07,-103.79 127.44,-99 140.02,-95.08 153.62,-91.04 166.44,-87.31"/>
<polygon fill="black" stroke="black" points="167.36,-90.69 176,-84.55 165.42,-83.96 167.36,-90.69"/>
</g>
<!-- 15 -->
<!-- name: &quot;Item Component Data&quot;, typeName: &quot;CompoundTag&quot;, id: 15, branchId: 0, recurseId: &#45;1, attributes: 256, notes: &quot;&quot; -->
<g id="node10" class="node">
<title>15</title>
<ellipse fill="none" stroke="black" cx="221.79" cy="-18" rx="94.34" ry="18"/>
<text text-anchor="middle" x="221.79" y="-12.95" font-family="Times New Roman,serif" font-size="14.00">Item Component Data</text>
</g>
<!-- 6&#45;&gt;15 -->
<g id="edge9" class="edge">
<title>6&#45;&gt;15</title>
<path fill="none" stroke="black" d="M59.65,-108.56C74.18,-90.16 99.42,-61.58 127.44,-45 133.54,-41.39 140.15,-38.24 146.94,-35.49"/>
<polygon fill="black" stroke="black" points="148.13,-38.79 156.29,-32.03 145.7,-32.22 148.13,-38.79"/>
</g>
<!-- 8 -->
<!-- name: &quot;string&quot;, typeName: &quot;&quot;, id: 8, branchId: 0, recurseId: &#45;1, attributes: 512, notes: &quot;&quot; -->
<g id="node3" class="node">
<title>8</title>
<ellipse fill="none" stroke="black" cx="418.32" cy="-234" rx="31.9" ry="18"/>
<text text-anchor="middle" x="418.32" y="-228.95" font-family="Times New Roman,serif" font-size="14.00">string</text>
</g>
<!-- 7&#45;&gt;8 -->
<g id="edge2" class="edge">
<title>7&#45;&gt;8</title>
<path fill="none" stroke="black" d="M275.43,-234C306.49,-234 345.29,-234 374.46,-234"/>
<polygon fill="black" stroke="black" points="374.41,-237.5 384.41,-234 374.41,-230.5 374.41,-237.5"/>
</g>
<!-- 10 -->
<!-- name: &quot;short&quot;, typeName: &quot;&quot;, id: 10, branchId: 0, recurseId: &#45;1, attributes: 512, notes: &quot;&quot; -->
<g id="node5" class="node">
<title>10</title>
<ellipse fill="none" stroke="black" cx="418.32" cy="-180" rx="29.34" ry="18"/>
<text text-anchor="middle" x="418.32" y="-174.95" font-family="Times New Roman,serif" font-size="14.00">short</text>
</g>
<!-- 9&#45;&gt;10 -->
<g id="edge4" class="edge">
<title>9&#45;&gt;10</title>
<path fill="none" stroke="black" d="M260.76,-180C294.29,-180 343.02,-180 377.19,-180"/>
<polygon fill="black" stroke="black" points="377.1,-183.5 387.1,-180 377.1,-176.5 377.1,-183.5"/>
</g>
<!-- 12 -->
<!-- name: &quot;bool&quot;, typeName: &quot;&quot;, id: 12, branchId: 0, recurseId: &#45;1, attributes: 512, notes: &quot;&quot; -->
<g id="node7" class="node">
<title>12</title>
<ellipse fill="none" stroke="black" cx="418.32" cy="-126" rx="27.3" ry="18"/>
<text text-anchor="middle" x="418.32" y="-120.95" font-family="Times New Roman,serif" font-size="14.00">bool</text>
</g>
<!-- 11&#45;&gt;12 -->
<g id="edge6" class="edge">
<title>11&#45;&gt;12</title>
<path fill="none" stroke="black" d="M310.95,-126C334.92,-126 359.65,-126 379.22,-126"/>
<polygon fill="black" stroke="black" points="379.17,-129.5 389.17,-126 379.17,-122.5 379.17,-129.5"/>
</g>
<!-- 14 -->
<!-- name: &quot;varint&quot;, typeName: &quot;&quot;, id: 14, branchId: 0, recurseId: &#45;1, attributes: 512, notes: &quot;&quot; -->
<g id="node9" class="node">
<title>14</title>
<ellipse fill="none" stroke="black" cx="418.32" cy="-72" rx="32.41" ry="18"/>
<text text-anchor="middle" x="418.32" y="-66.95" font-family="Times New Roman,serif" font-size="14.00">varint</text>
</g>
<!-- 13&#45;&gt;14 -->
<g id="edge8" class="edge">
<title>13&#45;&gt;14</title>
<path fill="none" stroke="black" d="M280.63,-72C310.71,-72 346.86,-72 374.42,-72"/>
<polygon fill="black" stroke="black" points="374.15,-75.5 384.15,-72 374.15,-68.5 374.15,-75.5"/>
</g>
<!-- 16 -->
<!-- name: &quot;CompoundTag&quot;, typeName: &quot;&quot;, id: 16, branchId: 0, recurseId: &#45;1, attributes: 512, notes: &quot;&quot; -->
<g id="node11" class="node">
<title>16</title>
<ellipse fill="none" stroke="black" cx="418.32" cy="-18" rx="66.19" ry="18"/>
<text text-anchor="middle" x="418.32" y="-12.95" font-family="Times New Roman,serif" font-size="14.00">CompoundTag</text>
</g>
<!-- 15&#45;&gt;16 -->
<g id="edge10" class="edge">
<title>15&#45;&gt;16</title>
<path fill="none" stroke="black" d="M316.35,-18C324.4,-18 332.47,-18 340.36,-18"/>
<polygon fill="black" stroke="black" points="340.25,-21.5 350.25,-18 340.25,-14.5 340.25,-21.5"/>
</g>
</g>
</svg>
