<?xml version="1.0" encoding="UTF-8" standalone="no"?>
<!DOCTYPE svg PUBLIC "-//W3C//DTD SVG 1.1//EN"
 "http://www.w3.org/Graphics/SVG/1.1/DTD/svg11.dtd">
<!-- Generated by graphviz version 12.2.1 (20241206.2353)
 -->
<!-- Title: ItemStackNetIdVariant Pages: 1 -->
<svg width="527pt" height="44pt"
 viewBox="0.00 0.00 527.32 44.00" xmlns="http://www.w3.org/2000/svg" xmlns:xlink="http://www.w3.org/1999/xlink">
<g id="graph0" class="graph" transform="scale(1 1) rotate(0) translate(4 40)">
<title>ItemStackNetIdVariant</title>
<polygon fill="white" stroke="none" points="-4,4 -4,-40 523.32,-40 523.32,4 -4,4"/>
<!-- 34 -->
<!-- name: &quot;ItemStackNetIdVariant&quot;, typeName: &quot;&quot;, id: 34, branchId: 0, recurseId: &#45;1, attributes: 0, notes: &quot;&quot; -->
<g id="node1" class="node">
<title>34</title>
<ellipse fill="none" stroke="black" cx="96.39" cy="-18" rx="96.39" ry="18"/>
<text text-anchor="middle" x="96.39" y="-12.95" font-family="Times New Roman,serif" font-size="14.00">ItemStackNetIdVariant</text>
</g>
<!-- 35 -->
<!-- name: &quot;Raw Id (32 bit signed)&quot;, typeName: &quot;&quot;, id: 35, branchId: 0, recurseId: &#45;1, attributes: 0, notes: &quot;&quot; -->
<g id="node2" class="node">
<title>35</title>
<ellipse fill="none" stroke="black" cx="323.64" cy="-18" rx="94.86" ry="18"/>
<text text-anchor="middle" x="323.64" y="-12.95" font-family="Times New Roman,serif" font-size="14.00">Raw Id (32 bit signed)</text>
</g>
<!-- 34&#45;&gt;35 -->
<g id="edge1" class="edge">
<title>34&#45;&gt;35</title>
<path fill="none" stroke="black" d="M193.24,-18C201.05,-18 208.96,-18 216.83,-18"/>
<polygon fill="black" stroke="black" points="216.79,-21.5 226.79,-18 216.79,-14.5 216.79,-21.5"/>
</g>
<!-- 36 -->
<!-- name: &quot;varint&quot;, typeName: &quot;&quot;, id: 36, branchId: 0, recurseId: &#45;1, attributes: 512, notes: &quot;&quot; -->
<g id="node3" class="node">
<title>36</title>
<ellipse fill="none" stroke="black" cx="486.91" cy="-18" rx="32.41" ry="18"/>
<text text-anchor="middle" x="486.91" y="-12.95" font-family="Times New Roman,serif" font-size="14.00">varint</text>
</g>
<!-- 35&#45;&gt;36 -->
<g id="edge2" class="edge">
<title>35&#45;&gt;36</title>
<path fill="none" stroke="black" d="M418.91,-18C427.24,-18 435.36,-18 442.92,-18"/>
<polygon fill="black" stroke="black" points="442.75,-21.5 452.75,-18 442.75,-14.5 442.75,-21.5"/>
</g>
</g>
</svg>
