<?xml version="1.0" encoding="UTF-8" standalone="no"?>
<!DOCTYPE svg PUBLIC "-//W3C//DTD SVG 1.1//EN"
 "http://www.w3.org/Graphics/SVG/1.1/DTD/svg11.dtd">
<!-- Generated by graphviz version 14.1.1 (20251213.1925)
 -->
<!-- Title: ItemUsed Pages: 1 -->
<svg width="347pt" height="206pt"
 viewBox="0.00 0.00 347.00 206.00" xmlns="http://www.w3.org/2000/svg" xmlns:xlink="http://www.w3.org/1999/xlink">
<g id="graph0" class="graph" transform="scale(1 1) rotate(0) translate(4 202)">
<title>ItemUsed</title>
<polygon fill="white" stroke="none" points="-4,4 -4,-202 343.16,-202 343.16,4 -4,4"/>
<!-- 0 -->
<!-- name: &quot;ItemUsed&quot;, typeName: &quot;&quot;, id: 0, branchId: 0, recurseId: &#45;1, attributes: 0, notes: &quot;&quot; -->
<g id="node1" class="node">
<title>0</title>
<ellipse fill="none" stroke="black" cx="47.26" cy="-99" rx="47.26" ry="18"/>
<text xml:space="preserve" text-anchor="middle" x="47.26" y="-93.95" font-family="Times New Roman,serif" font-size="14.00">ItemUsed</text>
</g>
<!-- 1 -->
<!-- name: &quot;Item Id&quot;, typeName: &quot;&quot;, id: 1, branchId: 0, recurseId: &#45;1, attributes: 0, notes: &quot;&quot; -->
<g id="node2" class="node">
<title>1</title>
<ellipse fill="none" stroke="black" cx="187.5" cy="-180" rx="38.56" ry="18"/>
<text xml:space="preserve" text-anchor="middle" x="187.5" y="-174.95" font-family="Times New Roman,serif" font-size="14.00">Item Id</text>
</g>
<!-- 0&#45;&gt;1 -->
<g id="edge1" class="edge">
<title>0&#45;&gt;1</title>
<path fill="none" stroke="black" d="M70.8,-114.96C87.05,-126.17 109.7,-141.22 130.51,-153 136.29,-156.27 142.52,-159.53 148.65,-162.59"/>
<polygon fill="black" stroke="black" points="146.91,-165.63 157.43,-166.86 149.97,-159.34 146.91,-165.63"/>
</g>
<!-- 3 -->
<!-- name: &quot;Item Aux&quot;, typeName: &quot;&quot;, id: 3, branchId: 0, recurseId: &#45;1, attributes: 0, notes: &quot;&quot; -->
<g id="node4" class="node">
<title>3</title>
<ellipse fill="none" stroke="black" cx="187.5" cy="-126" rx="46.23" ry="18"/>
<text xml:space="preserve" text-anchor="middle" x="187.5" y="-120.95" font-family="Times New Roman,serif" font-size="14.00">Item Aux</text>
</g>
<!-- 0&#45;&gt;3 -->
<g id="edge3" class="edge">
<title>0&#45;&gt;3</title>
<path fill="none" stroke="black" d="M89.73,-107.1C103.8,-109.85 119.7,-112.95 134.49,-115.84"/>
<polygon fill="black" stroke="black" points="133.55,-119.23 144.04,-117.71 134.9,-112.36 133.55,-119.23"/>
</g>
<!-- 5 -->
<!-- name: &quot;Use Method&quot;, typeName: &quot;&quot;, id: 5, branchId: 0, recurseId: &#45;1, attributes: 0, notes: &quot;&quot; -->
<g id="node6" class="node">
<title>5</title>
<ellipse fill="none" stroke="black" cx="187.5" cy="-72" rx="56.98" ry="18"/>
<text xml:space="preserve" text-anchor="middle" x="187.5" y="-66.95" font-family="Times New Roman,serif" font-size="14.00">Use Method</text>
</g>
<!-- 0&#45;&gt;5 -->
<g id="edge5" class="edge">
<title>0&#45;&gt;5</title>
<path fill="none" stroke="black" d="M89.73,-90.9C101.54,-88.59 114.64,-86.03 127.29,-83.56"/>
<polygon fill="black" stroke="black" points="127.61,-87.07 136.76,-81.71 126.27,-80.2 127.61,-87.07"/>
</g>
<!-- 7 -->
<!-- name: &quot;Count&quot;, typeName: &quot;&quot;, id: 7, branchId: 0, recurseId: &#45;1, attributes: 0, notes: &quot;&quot; -->
<g id="node8" class="node">
<title>7</title>
<ellipse fill="none" stroke="black" cx="187.5" cy="-18" rx="33.44" ry="18"/>
<text xml:space="preserve" text-anchor="middle" x="187.5" y="-12.95" font-family="Times New Roman,serif" font-size="14.00">Count</text>
</g>
<!-- 0&#45;&gt;7 -->
<g id="edge7" class="edge">
<title>0&#45;&gt;7</title>
<path fill="none" stroke="black" d="M70.8,-83.04C87.05,-71.83 109.7,-56.78 130.51,-45 137.08,-41.29 144.23,-37.59 151.15,-34.17"/>
<polygon fill="black" stroke="black" points="152.2,-37.55 159.69,-30.06 149.16,-31.25 152.2,-37.55"/>
</g>
<!-- 2 -->
<!-- name: &quot;short&quot;, typeName: &quot;&quot;, id: 2, branchId: 0, recurseId: &#45;1, attributes: 512, notes: &quot;&quot; -->
<g id="node3" class="node">
<title>2</title>
<ellipse fill="none" stroke="black" cx="309.82" cy="-180" rx="29.34" ry="18"/>
<text xml:space="preserve" text-anchor="middle" x="309.82" y="-174.95" font-family="Times New Roman,serif" font-size="14.00">short</text>
</g>
<!-- 1&#45;&gt;2 -->
<g id="edge2" class="edge">
<title>1&#45;&gt;2</title>
<path fill="none" stroke="black" d="M226.24,-180C239.67,-180 254.84,-180 268.48,-180"/>
<polygon fill="black" stroke="black" points="268.48,-183.5 278.48,-180 268.48,-176.5 268.48,-183.5"/>
</g>
<!-- 4 -->
<!-- name: &quot;int&quot;, typeName: &quot;&quot;, id: 4, branchId: 0, recurseId: &#45;1, attributes: 512, notes: &quot;&quot; -->
<g id="node5" class="node">
<title>4</title>
<ellipse fill="none" stroke="black" cx="309.82" cy="-126" rx="27" ry="18"/>
<text xml:space="preserve" text-anchor="middle" x="309.82" y="-120.95" font-family="Times New Roman,serif" font-size="14.00">int</text>
</g>
<!-- 3&#45;&gt;4 -->
<g id="edge4" class="edge">
<title>3&#45;&gt;4</title>
<path fill="none" stroke="black" d="M233.98,-126C246.26,-126 259.41,-126 271.21,-126"/>
<polygon fill="black" stroke="black" points="270.95,-129.5 280.95,-126 270.95,-122.5 270.95,-129.5"/>
</g>
<!-- 6 -->
<!-- name: &quot;int&quot;, typeName: &quot;&quot;, id: 6, branchId: 0, recurseId: &#45;1, attributes: 512, notes: &quot;&quot; -->
<g id="node7" class="node">
<title>6</title>
<ellipse fill="none" stroke="black" cx="309.82" cy="-72" rx="27" ry="18"/>
<text xml:space="preserve" text-anchor="middle" x="309.82" y="-66.95" font-family="Times New Roman,serif" font-size="14.00">int</text>
</g>
<!-- 5&#45;&gt;6 -->
<g id="edge6" class="edge">
<title>5&#45;&gt;6</title>
<path fill="none" stroke="black" d="M244.78,-72C253.76,-72 262.86,-72 271.26,-72"/>
<polygon fill="black" stroke="black" points="271.09,-75.5 281.09,-72 271.09,-68.5 271.09,-75.5"/>
</g>
<!-- 8 -->
<!-- name: &quot;int&quot;, typeName: &quot;&quot;, id: 8, branchId: 0, recurseId: &#45;1, attributes: 512, notes: &quot;&quot; -->
<g id="node9" class="node">
<title>8</title>
<ellipse fill="none" stroke="black" cx="309.82" cy="-18" rx="27" ry="18"/>
<text xml:space="preserve" text-anchor="middle" x="309.82" y="-12.95" font-family="Times New Roman,serif" font-size="14.00">int</text>
</g>
<!-- 7&#45;&gt;8 -->
<g id="edge8" class="edge">
<title>7&#45;&gt;8</title>
<path fill="none" stroke="black" d="M221.37,-18C236.83,-18 255.33,-18 271.33,-18"/>
<polygon fill="black" stroke="black" points="270.94,-21.5 280.94,-18 270.94,-14.5 270.94,-21.5"/>
</g>
</g>
</svg>
