<?xml version="1.0" encoding="UTF-8" standalone="no"?>
<!DOCTYPE svg PUBLIC "-//W3C//DTD SVG 1.1//EN"
 "http://www.w3.org/Graphics/SVG/1.1/DTD/svg11.dtd">
<!-- Generated by graphviz version 14.1.5 (20260411.2331)
 -->
<!-- Title: ItemStackNetIdVariant Pages: 1 -->
<svg width="535pt" height="44pt"
 viewBox="0.00 0.00 535.00 44.00" xmlns="http://www.w3.org/2000/svg" xmlns:xlink="http://www.w3.org/1999/xlink">
<g id="graph0" class="graph" transform="scale(1 1) rotate(0) translate(4 40)">
<title>ItemStackNetIdVariant</title>
<polygon fill="white" stroke="none" points="-4,4 -4,-40 530.92,-40 530.92,4 -4,4"/>
<!-- 0 -->
<!-- name: &quot;ItemStackNetIdVariant&quot;, typeName: &quot;&quot;, id: 0, branchId: 0, recurseId: &#45;1, attributes: 0, notes: &quot;&quot; -->
<g id="node1" class="node">
<title>0</title>
<ellipse fill="none" stroke="black" cx="96.39" cy="-18" rx="96.39" ry="18"/>
<text xml:space="preserve" text-anchor="middle" x="96.39" y="-12.95" font-family="Times New Roman,serif" font-size="14.00">ItemStackNetIdVariant</text>
</g>
<!-- 1 -->
<!-- name: &quot;Item stack net ID variant&quot;, typeName: &quot;&quot;, id: 1, branchId: 0, recurseId: &#45;1, attributes: 0, notes: &quot;&quot; -->
<g id="node2" class="node">
<title>1</title>
<ellipse fill="none" stroke="black" cx="332.85" cy="-18" rx="104.07" ry="18"/>
<text xml:space="preserve" text-anchor="middle" x="332.85" y="-12.95" font-family="Times New Roman,serif" font-size="14.00">Item stack net ID variant</text>
</g>
<!-- 0&#45;&gt;1 -->
<g id="edge1" class="edge">
<title>0&#45;&gt;1</title>
<path fill="none" stroke="black" d="M193.09,-18C201.01,-18 209.06,-18 217.1,-18"/>
<polygon fill="black" stroke="black" points="216.93,-21.5 226.93,-18 216.93,-14.5 216.93,-21.5"/>
</g>
<!-- 2 -->
<!-- name: &quot;&quot;, typeName: &quot;&quot;, id: 2, branchId: 0, recurseId: &#45;1, attributes: 512, notes: &quot;&quot; -->
<g id="node3" class="node">
<title>2</title>
<ellipse fill="none" stroke="black" cx="499.92" cy="-18" rx="27" ry="18"/>
</g>
<!-- 1&#45;&gt;2 -->
<g id="edge2" class="edge">
<title>1&#45;&gt;2</title>
<path fill="none" stroke="black" d="M436.98,-18C445.43,-18 453.58,-18 461.03,-18"/>
<polygon fill="black" stroke="black" points="460.96,-21.5 470.96,-18 460.96,-14.5 460.96,-21.5"/>
</g>
</g>
</svg>
