<?xml version="1.0" encoding="UTF-8" standalone="no"?>
<!DOCTYPE svg PUBLIC "-//W3C//DTD SVG 1.1//EN"
 "http://www.w3.org/Graphics/SVG/1.1/DTD/svg11.dtd">
<!-- Generated by graphviz version 2.46.1 (20210213.1702)
 -->
<!-- Title: ItemStackResponseContainerInfo Pages: 1 -->
<svg width="1032pt" height="152pt"
 viewBox="0.00 0.00 1032.02 152.00" xmlns="http://www.w3.org/2000/svg" xmlns:xlink="http://www.w3.org/1999/xlink">
<g id="graph0" class="graph" transform="scale(1 1) rotate(0) translate(4 148)">
<title>ItemStackResponseContainerInfo</title>
<polygon fill="white" stroke="transparent" points="-4,4 -4,-148 1028.02,-148 1028.02,4 -4,4"/>
<!-- 18 -->
<!-- name: &quot;ItemStackResponseContainerInfo&quot;, typeName: &quot;&quot;, id: 18, branchId: 0, recurseId: &#45;1, attributes: 0, notes: &quot;&quot; -->
<g id="node1" class="node">
<title>18</title>
<ellipse fill="none" stroke="black" cx="133.89" cy="-95" rx="133.78" ry="18"/>
<text text-anchor="middle" x="133.89" y="-91.3" font-family="Times New Roman,serif" font-size="14.00">ItemStackResponseContainerInfo</text>
</g>
<!-- 19 -->
<!-- name: &quot;Open Container Net Id&quot;, typeName: &quot;&quot;, id: 19, branchId: 0, recurseId: &#45;1, attributes: 0, notes: &quot;&quot; -->
<g id="node2" class="node">
<title>19</title>
<ellipse fill="none" stroke="black" cx="668.25" cy="-124" rx="93.68" ry="18"/>
<text text-anchor="middle" x="668.25" y="-120.3" font-family="Times New Roman,serif" font-size="14.00">Open Container Net Id</text>
</g>
<!-- 18&#45;&gt;19 -->
<g id="edge1" class="edge">
<title>18&#45;&gt;19</title>
<path fill="none" stroke="black" d="M258.36,-101.73C352.46,-106.85 480.35,-113.82 567.9,-118.59"/>
<polygon fill="black" stroke="black" points="567.93,-122.09 578.11,-119.14 568.31,-115.11 567.93,-122.09"/>
</g>
<!-- 21 -->
<!-- name: &quot;Slots&quot;, typeName: &quot;&quot;, id: 21, branchId: 0, recurseId: &#45;1, attributes: 8, notes: &quot;&quot; -->
<g id="node4" class="node">
<title>21</title>
<ellipse fill="none" stroke="black" cx="333.02" cy="-72" rx="29.5" ry="18"/>
<text text-anchor="middle" x="333.02" y="-68.3" font-family="Times New Roman,serif" font-size="14.00">Slots</text>
</g>
<!-- 18&#45;&gt;21 -->
<g id="edge3" class="edge">
<title>18&#45;&gt;21</title>
<path fill="none" stroke="black" d="M235.48,-83.26C256.39,-80.82 277.18,-78.4 294.08,-76.43"/>
<polygon fill="black" stroke="black" points="294.54,-79.9 304.06,-75.26 293.73,-72.94 294.54,-79.9"/>
</g>
<!-- 20 -->
<!-- name: &quot;byte&quot;, typeName: &quot;&quot;, id: 20, branchId: 0, recurseId: &#45;1, attributes: 512, notes: &quot;&quot; -->
<g id="node3" class="node">
<title>20</title>
<ellipse fill="none" stroke="black" cx="910.93" cy="-126" rx="27" ry="18"/>
<text text-anchor="middle" x="910.93" y="-122.3" font-family="Times New Roman,serif" font-size="14.00">byte</text>
</g>
<!-- 19&#45;&gt;20 -->
<g id="edge2" class="edge">
<title>19&#45;&gt;20</title>
<path fill="none" stroke="black" d="M761.96,-124.77C800.88,-125.09 843.88,-125.45 873.44,-125.7"/>
<polygon fill="black" stroke="black" points="873.67,-129.2 883.7,-125.78 873.73,-122.2 873.67,-129.2"/>
</g>
<!-- 22 -->
<!-- name: &quot;Array Size&quot;, typeName: &quot;&quot;, id: 22, branchId: 0, recurseId: &#45;1, attributes: 0, notes: &quot;&quot; -->
<g id="node5" class="node">
<title>22</title>
<ellipse fill="none" stroke="black" cx="468.46" cy="-72" rx="48.99" ry="18"/>
<text text-anchor="middle" x="468.46" y="-68.3" font-family="Times New Roman,serif" font-size="14.00">Array Size</text>
</g>
<!-- 21&#45;&gt;22 -->
<g id="edge4" class="edge">
<title>21&#45;&gt;22</title>
<path fill="none" stroke="black" d="M362.32,-72C376.07,-72 393.12,-72 409.46,-72"/>
<polygon fill="black" stroke="black" points="409.51,-75.5 419.51,-72 409.51,-68.5 409.51,-75.5"/>
</g>
<!-- 24 -->
<!-- name: &quot;example element&quot;, typeName: &quot;&quot;, id: 24, branchId: 0, recurseId: &#45;1, attributes: 16, notes: &quot;&quot; -->
<g id="node7" class="node">
<title>24</title>
<ellipse fill="none" stroke="black" stroke-dasharray="1,5" cx="468.46" cy="-18" rx="70.39" ry="18"/>
<text text-anchor="middle" x="468.46" y="-14.3" font-family="Times New Roman,serif" font-size="14.00">example element</text>
</g>
<!-- 21&#45;&gt;24 -->
<g id="edge6" class="edge">
<title>21&#45;&gt;24</title>
<path fill="none" stroke="black" d="M357.46,-61.98C369.61,-56.83 384.7,-50.5 398.27,-45 405.01,-42.27 412.13,-39.43 419.15,-36.67"/>
<polygon fill="black" stroke="black" points="420.57,-39.87 428.6,-32.96 418.02,-33.35 420.57,-39.87"/>
</g>
<!-- 23 -->
<!-- name: &quot;unsigned varint&quot;, typeName: &quot;&quot;, id: 23, branchId: 0, recurseId: &#45;1, attributes: 512, notes: &quot;&quot; -->
<g id="node6" class="node">
<title>23</title>
<ellipse fill="none" stroke="black" cx="910.93" cy="-72" rx="65.79" ry="18"/>
<text text-anchor="middle" x="910.93" y="-68.3" font-family="Times New Roman,serif" font-size="14.00">unsigned varint</text>
</g>
<!-- 22&#45;&gt;23 -->
<g id="edge5" class="edge">
<title>22&#45;&gt;23</title>
<path fill="none" stroke="black" d="M517.44,-72C593.87,-72 743.89,-72 834.7,-72"/>
<polygon fill="black" stroke="black" points="834.93,-75.5 844.93,-72 834.93,-68.5 834.93,-75.5"/>
</g>
<!-- 25 -->
<!-- name: &quot;Slot Info&quot;, typeName: &quot;ItemStackResponseSlotInfo&quot;, id: 25, branchId: 0, recurseId: &#45;1, attributes: 256, notes: &quot;&quot; -->
<g id="node8" class="node">
<title>25</title>
<ellipse fill="none" stroke="black" cx="668.25" cy="-18" rx="42.79" ry="18"/>
<text text-anchor="middle" x="668.25" y="-14.3" font-family="Times New Roman,serif" font-size="14.00">Slot Info</text>
</g>
<!-- 24&#45;&gt;25 -->
<g id="edge7" class="edge">
<title>24&#45;&gt;25</title>
<path fill="none" stroke="black" d="M538.92,-18C564.03,-18 591.93,-18 615.28,-18"/>
<polygon fill="black" stroke="black" points="615.33,-21.5 625.33,-18 615.33,-14.5 615.33,-21.5"/>
</g>
<!-- 42 -->
<!-- name: &quot;ItemStackResponseSlotInfo&quot;, typeName: &quot;&quot;, id: 42, branchId: 0, recurseId: &#45;1, attributes: 512, notes: &quot;&quot; -->
<g id="node9" class="node">
<title>42</title>
<ellipse fill="none" stroke="black" cx="910.93" cy="-18" rx="113.18" ry="18"/>
<text text-anchor="middle" x="910.93" y="-14.3" font-family="Times New Roman,serif" font-size="14.00">ItemStackResponseSlotInfo</text>
</g>
<!-- 25&#45;&gt;42 -->
<g id="edge8" class="edge">
<title>25&#45;&gt;42</title>
<path fill="none" stroke="black" d="M711.17,-18C732.65,-18 760.02,-18 787.53,-18"/>
<polygon fill="black" stroke="black" points="787.66,-21.5 797.66,-18 787.66,-14.5 787.66,-21.5"/>
</g>
</g>
</svg>
