<?xml version="1.0" encoding="UTF-8" standalone="no"?>
<!DOCTYPE svg PUBLIC "-//W3C//DTD SVG 1.1//EN"
 "http://www.w3.org/Graphics/SVG/1.1/DTD/svg11.dtd">
<!-- Generated by graphviz version 11.0.0 (20240428.1522)
 -->
<!-- Title: ItemStackResponseInfo Pages: 1 -->
<svg width="1595pt" height="260pt"
 viewBox="0.00 0.00 1595.22 260.00" xmlns="http://www.w3.org/2000/svg" xmlns:xlink="http://www.w3.org/1999/xlink">
<g id="graph0" class="graph" transform="scale(1 1) rotate(0) translate(4 256)">
<title>ItemStackResponseInfo</title>
<polygon fill="white" stroke="none" points="-4,4 -4,-256 1591.22,-256 1591.22,4 -4,4"/>
<!-- 6 -->
<!-- name: &quot;ItemStackResponseInfo&quot;, typeName: &quot;&quot;, id: 6, branchId: 0, recurseId: &#45;1, attributes: 0, notes: &quot;&quot; -->
<g id="node1" class="node">
<title>6</title>
<ellipse fill="none" stroke="black" cx="100.46" cy="-180" rx="100.46" ry="18"/>
<text text-anchor="middle" x="100.46" y="-174.57" font-family="Times New Roman,serif" font-size="14.00">ItemStackResponseInfo</text>
</g>
<!-- 7 -->
<!-- name: &quot;Result&quot;, typeName: &quot;&quot;, id: 7, branchId: 0, recurseId: &#45;1, attributes: 0, notes: &quot;&quot; -->
<g id="node2" class="node">
<title>7</title>
<ellipse fill="none" stroke="black" cx="693.14" cy="-230" rx="34.1" ry="18"/>
<text text-anchor="middle" x="693.14" y="-224.57" font-family="Times New Roman,serif" font-size="14.00">Result</text>
</g>
<!-- 6&#45;&gt;7 -->
<g id="edge1" class="edge">
<title>6&#45;&gt;7</title>
<path fill="none" stroke="black" d="M187.79,-189.24C204.11,-190.89 221.04,-192.55 236.93,-194 387.43,-207.73 566.2,-220.97 647.69,-226.84"/>
<polygon fill="black" stroke="black" points="647.25,-230.32 657.48,-227.54 647.76,-223.34 647.25,-230.32"/>
</g>
<!-- 9 -->
<!-- name: &quot;Client Request Id&quot;, typeName: &quot;TypedClientNetId&lt;struct ItemStackRequestIdTag,int,0&gt;&quot;, id: 9, branchId: 0, recurseId: &#45;1, attributes: 256, notes: &quot;&quot; -->
<g id="node4" class="node">
<title>9</title>
<ellipse fill="none" stroke="black" cx="1034.26" cy="-180" rx="75.51" ry="18"/>
<text text-anchor="middle" x="1034.26" y="-174.57" font-family="Times New Roman,serif" font-size="14.00">Client Request Id</text>
</g>
<!-- 6&#45;&gt;9 -->
<g id="edge3" class="edge">
<title>6&#45;&gt;9</title>
<path fill="none" stroke="black" d="M201.01,-180C292.1,-180 430.62,-180 551,-180 551,-180 551,-180 694.14,-180 780.31,-180 878.79,-180 947.34,-180"/>
<polygon fill="black" stroke="black" points="946.99,-183.5 956.99,-180 946.99,-176.5 946.99,-183.5"/>
</g>
<!-- 11 -->
<!-- name: &quot;Dependency on &#39;ItemStackNetResult&#39;&quot;, typeName: &quot;&quot;, id: 11, branchId: 0, recurseId: &#45;1, attributes: 2, notes: &quot;&quot; -->
<g id="node6" class="node">
<title>11</title>
<polygon fill="none" stroke="black" points="455.43,-144 236.93,-144 236.93,-108 461.43,-108 461.43,-138 455.43,-144"/>
<polyline fill="none" stroke="black" points="455.43,-144 455.43,-138"/>
<polyline fill="none" stroke="black" points="461.43,-138 455.43,-138"/>
<text text-anchor="middle" x="349.18" y="-120.58" font-family="Times New Roman,serif" font-size="14.00">Dependency on &#39;ItemStackNetResult&#39;</text>
</g>
<!-- 6&#45;&gt;11 -->
<g id="edge5" class="edge">
<title>6&#45;&gt;11</title>
<path fill="none" stroke="black" d="M165.64,-165.95C192.23,-160.13 223.62,-153.26 252.81,-146.87"/>
<polygon fill="black" stroke="black" points="253.37,-150.33 262.39,-144.78 251.87,-143.5 253.37,-150.33"/>
</g>
<!-- 8 -->
<!-- name: &quot;byte&quot;, typeName: &quot;&quot;, id: 8, branchId: 0, recurseId: &#45;1, attributes: 512, notes: &quot;&quot; -->
<g id="node3" class="node">
<title>8</title>
<ellipse fill="none" stroke="black" cx="1366.5" cy="-234" rx="27" ry="18"/>
<text text-anchor="middle" x="1366.5" y="-228.57" font-family="Times New Roman,serif" font-size="14.00">byte</text>
</g>
<!-- 7&#45;&gt;8 -->
<g id="edge2" class="edge">
<title>7&#45;&gt;8</title>
<path fill="none" stroke="black" d="M727.43,-230.2C840.37,-230.87 1208.47,-233.06 1327.79,-233.78"/>
<polygon fill="black" stroke="black" points="1327.65,-237.27 1337.67,-233.83 1327.69,-230.27 1327.65,-237.27"/>
</g>
<!-- 10 -->
<!-- name: &quot;TypedClientNetId&lt;struct ItemStackRequestIdTag,int,0&gt;&quot;, typeName: &quot;&quot;, id: 10, branchId: 0, recurseId: &#45;1, attributes: 512, notes: &quot;&quot; -->
<g id="node5" class="node">
<title>10</title>
<ellipse fill="none" stroke="black" cx="1366.5" cy="-180" rx="220.72" ry="18"/>
<text text-anchor="middle" x="1366.5" y="-174.57" font-family="Times New Roman,serif" font-size="14.00">TypedClientNetId&lt;struct ItemStackRequestIdTag,int,0&gt;</text>
</g>
<!-- 9&#45;&gt;10 -->
<g id="edge4" class="edge">
<title>9&#45;&gt;10</title>
<path fill="none" stroke="black" d="M1110.2,-180C1117.79,-180 1125.74,-180 1133.96,-180"/>
<polygon fill="black" stroke="black" points="1133.81,-183.5 1143.81,-180 1133.81,-176.5 1133.81,-183.5"/>
</g>
<!-- 12 -->
<!-- name: &quot;If False&quot;, typeName: &quot;&quot;, id: 12, branchId: 0, recurseId: &#45;1, attributes: 4, notes: &quot;&quot; -->
<g id="node7" class="node">
<title>12</title>
<polygon fill="none" stroke="black" points="552,-144 497.43,-126 552,-108 606.58,-126 552,-144"/>
<text text-anchor="middle" x="552" y="-120.58" font-family="Times New Roman,serif" font-size="14.00">If False</text>
</g>
<!-- 11&#45;&gt;12 -->
<g id="edge6" class="edge">
<title>11&#45;&gt;12</title>
<path fill="none" stroke="black" d="M461.75,-126C469.57,-126 477.3,-126 484.74,-126"/>
<polygon fill="black" stroke="black" points="484.67,-129.5 494.67,-126 484.67,-122.5 484.67,-129.5"/>
</g>
<!-- 14 -->
<!-- name: &quot;If True&quot;, typeName: &quot;&quot;, id: 14, branchId: 1, recurseId: &#45;1, attributes: 4, notes: &quot;&quot; -->
<g id="node9" class="node">
<title>14</title>
<polygon fill="none" stroke="black" points="552,-90 500.25,-72 552,-54 603.75,-72 552,-90"/>
<text text-anchor="middle" x="552" y="-66.58" font-family="Times New Roman,serif" font-size="14.00">If True</text>
</g>
<!-- 11&#45;&gt;14 -->
<g id="edge8" class="edge">
<title>11&#45;&gt;14</title>
<path fill="none" stroke="black" d="M418.73,-107.57C449.31,-99.34 484.3,-89.94 510.6,-82.86"/>
<polygon fill="black" stroke="black" points="511.46,-86.26 520.21,-80.28 509.64,-79.5 511.46,-86.26"/>
</g>
<!-- 13 -->
<!-- name: &quot;[No Data]&quot;, typeName: &quot;&quot;, id: 13, branchId: 0, recurseId: &#45;1, attributes: 512, notes: &quot;&quot; -->
<g id="node8" class="node">
<title>13</title>
<ellipse fill="none" stroke="black" cx="1366.5" cy="-126" rx="47.57" ry="18"/>
<text text-anchor="middle" x="1366.5" y="-120.58" font-family="Times New Roman,serif" font-size="14.00">[No Data]</text>
</g>
<!-- 12&#45;&gt;13 -->
<g id="edge7" class="edge">
<title>12&#45;&gt;13</title>
<path fill="none" stroke="black" d="M607.89,-126C754.86,-126 1156.34,-126 1307.18,-126"/>
<polygon fill="black" stroke="black" points="1306.94,-129.5 1316.94,-126 1306.94,-122.5 1306.94,-129.5"/>
</g>
<!-- 15 -->
<!-- name: &quot;Containers&quot;, typeName: &quot;&quot;, id: 15, branchId: 0, recurseId: &#45;1, attributes: 8, notes: &quot;&quot; -->
<g id="node10" class="node">
<title>15</title>
<ellipse fill="none" stroke="black" cx="693.14" cy="-72" rx="50.56" ry="18"/>
<text text-anchor="middle" x="693.14" y="-66.58" font-family="Times New Roman,serif" font-size="14.00">Containers</text>
</g>
<!-- 14&#45;&gt;15 -->
<g id="edge9" class="edge">
<title>14&#45;&gt;15</title>
<path fill="none" stroke="black" d="M605.21,-72C613.68,-72 622.52,-72 631.18,-72"/>
<polygon fill="black" stroke="black" points="630.89,-75.5 640.89,-72 630.89,-68.5 630.89,-75.5"/>
</g>
<!-- 16 -->
<!-- name: &quot;List Size&quot;, typeName: &quot;&quot;, id: 16, branchId: 0, recurseId: &#45;1, attributes: 0, notes: &quot;&quot; -->
<g id="node11" class="node">
<title>16</title>
<ellipse fill="none" stroke="black" cx="851.23" cy="-72" rx="42.58" ry="18"/>
<text text-anchor="middle" x="851.23" y="-66.58" font-family="Times New Roman,serif" font-size="14.00">List Size</text>
</g>
<!-- 15&#45;&gt;16 -->
<g id="edge10" class="edge">
<title>15&#45;&gt;16</title>
<path fill="none" stroke="black" d="M743.96,-72C760.77,-72 779.61,-72 796.71,-72"/>
<polygon fill="black" stroke="black" points="796.7,-75.5 806.7,-72 796.7,-68.5 796.7,-75.5"/>
</g>
<!-- 18 -->
<!-- name: &quot;example element&quot;, typeName: &quot;&quot;, id: 18, branchId: 0, recurseId: &#45;1, attributes: 16, notes: &quot;&quot; -->
<g id="node13" class="node">
<title>18</title>
<ellipse fill="none" stroke="black" stroke-dasharray="1,5" cx="851.23" cy="-18" rx="71.52" ry="18"/>
<text text-anchor="middle" x="851.23" y="-12.57" font-family="Times New Roman,serif" font-size="14.00">example element</text>
</g>
<!-- 15&#45;&gt;18 -->
<g id="edge12" class="edge">
<title>15&#45;&gt;18</title>
<path fill="none" stroke="black" d="M730.34,-59.48C750.14,-52.63 775.04,-44.01 797.01,-36.41"/>
<polygon fill="black" stroke="black" points="798.12,-39.73 806.43,-33.15 795.83,-33.11 798.12,-39.73"/>
</g>
<!-- 17 -->
<!-- name: &quot;unsigned varint&quot;, typeName: &quot;&quot;, id: 17, branchId: 0, recurseId: &#45;1, attributes: 512, notes: &quot;&quot; -->
<g id="node12" class="node">
<title>17</title>
<ellipse fill="none" stroke="black" cx="1366.5" cy="-72" rx="66.53" ry="18"/>
<text text-anchor="middle" x="1366.5" y="-66.58" font-family="Times New Roman,serif" font-size="14.00">unsigned varint</text>
</g>
<!-- 16&#45;&gt;17 -->
<g id="edge11" class="edge">
<title>16&#45;&gt;17</title>
<path fill="none" stroke="black" d="M894.23,-72C980.37,-72 1178.14,-72 1288.13,-72"/>
<polygon fill="black" stroke="black" points="1287.96,-75.5 1297.96,-72 1287.96,-68.5 1287.96,-75.5"/>
</g>
<!-- 19 -->
<!-- name: &quot;Container Info&quot;, typeName: &quot;ItemStackResponseContainerInfo&quot;, id: 19, branchId: 0, recurseId: &#45;1, attributes: 256, notes: &quot;&quot; -->
<g id="node14" class="node">
<title>19</title>
<ellipse fill="none" stroke="black" cx="1034.26" cy="-18" rx="64.54" ry="18"/>
<text text-anchor="middle" x="1034.26" y="-12.57" font-family="Times New Roman,serif" font-size="14.00">Container Info</text>
</g>
<!-- 18&#45;&gt;19 -->
<g id="edge13" class="edge">
<title>18&#45;&gt;19</title>
<path fill="none" stroke="black" d="M923,-18C934.45,-18 946.35,-18 957.91,-18"/>
<polygon fill="black" stroke="black" points="957.81,-21.5 967.81,-18 957.81,-14.5 957.81,-21.5"/>
</g>
<!-- 47 -->
<!-- name: &quot;ItemStackResponseContainerInfo&quot;, typeName: &quot;&quot;, id: 47, branchId: 0, recurseId: &#45;1, attributes: 512, notes: &quot;&quot; -->
<g id="node15" class="node">
<title>47</title>
<ellipse fill="none" stroke="black" cx="1366.5" cy="-18" rx="136.39" ry="18"/>
<text text-anchor="middle" x="1366.5" y="-12.57" font-family="Times New Roman,serif" font-size="14.00">ItemStackResponseContainerInfo</text>
</g>
<!-- 19&#45;&gt;47 -->
<g id="edge14" class="edge">
<title>19&#45;&gt;47</title>
<path fill="none" stroke="black" d="M1098.94,-18C1133.02,-18 1176.51,-18 1218.43,-18"/>
<polygon fill="black" stroke="black" points="1218.4,-21.5 1228.4,-18 1218.4,-14.5 1218.4,-21.5"/>
</g>
</g>
</svg>
