<?xml version="1.0" encoding="UTF-8" standalone="no"?>
<!DOCTYPE svg PUBLIC "-//W3C//DTD SVG 1.1//EN"
 "http://www.w3.org/Graphics/SVG/1.1/DTD/svg11.dtd">
<!-- Generated by graphviz version 2.46.1 (20210213.1702)
 -->
<!-- Title: ItemComponentPacket Pages: 1 -->
<svg width="857pt" height="152pt"
 viewBox="0.00 0.00 856.54 152.00" xmlns="http://www.w3.org/2000/svg" xmlns:xlink="http://www.w3.org/1999/xlink">
<g id="graph0" class="graph" transform="scale(1 1) rotate(0) translate(4 148)">
<title>ItemComponentPacket</title>
<polygon fill="white" stroke="transparent" points="-4,4 -4,-148 852.54,-148 852.54,4 -4,4"/>
<!-- 0 -->
<!-- name: &quot;ItemComponentPacket&quot;, typeName: &quot;&quot;, id: 0, branchId: 162, recurseId: &#45;1, attributes: 0, notes: &quot;&quot; -->
<g id="node1" class="node">
<title>0</title>
<ellipse fill="none" stroke="black" cx="94.24" cy="-99" rx="94.48" ry="18"/>
<text text-anchor="middle" x="94.24" y="-95.3" font-family="Times New Roman,serif" font-size="14.00">ItemComponentPacket</text>
</g>
<!-- 1 -->
<!-- name: &quot;Items&quot;, typeName: &quot;&quot;, id: 1, branchId: 0, recurseId: &#45;1, attributes: 8, notes: &quot;Array of component based items&quot; -->
<g id="node2" class="node">
<title>1</title>
<ellipse fill="none" stroke="black" cx="255.03" cy="-99" rx="30.59" ry="18"/>
<text text-anchor="middle" x="255.03" y="-95.3" font-family="Times New Roman,serif" font-size="14.00">Items</text>
</g>
<!-- 0&#45;&gt;1 -->
<g id="edge1" class="edge">
<title>0&#45;&gt;1</title>
<path fill="none" stroke="black" d="M188.53,-99C197.54,-99 206.31,-99 214.34,-99"/>
<polygon fill="black" stroke="black" points="214.44,-102.5 224.44,-99 214.44,-95.5 214.44,-102.5"/>
</g>
<!-- 2 -->
<!-- name: &quot;Array Size&quot;, typeName: &quot;&quot;, id: 2, branchId: 0, recurseId: &#45;1, attributes: 0, notes: &quot;&quot; -->
<g id="node3" class="node">
<title>2</title>
<ellipse fill="none" stroke="black" cx="391.77" cy="-126" rx="48.99" ry="18"/>
<text text-anchor="middle" x="391.77" y="-122.3" font-family="Times New Roman,serif" font-size="14.00">Array Size</text>
</g>
<!-- 1&#45;&gt;2 -->
<g id="edge2" class="edge">
<title>1&#45;&gt;2</title>
<path fill="none" stroke="black" d="M284.28,-104.66C299.97,-107.8 319.99,-111.82 338.44,-115.51"/>
<polygon fill="black" stroke="black" points="337.99,-118.99 348.48,-117.53 339.36,-112.13 337.99,-118.99"/>
</g>
<!-- 4 -->
<!-- name: &quot;example element&quot;, typeName: &quot;&quot;, id: 4, branchId: 0, recurseId: &#45;1, attributes: 16, notes: &quot;&quot; -->
<g id="node5" class="node">
<title>4</title>
<ellipse fill="none" stroke="black" stroke-dasharray="1,5" cx="391.77" cy="-72" rx="70.39" ry="18"/>
<text text-anchor="middle" x="391.77" y="-68.3" font-family="Times New Roman,serif" font-size="14.00">example element</text>
</g>
<!-- 1&#45;&gt;4 -->
<g id="edge4" class="edge">
<title>1&#45;&gt;4</title>
<path fill="none" stroke="black" d="M284.28,-93.34C296.44,-90.9 311.21,-87.94 325.82,-85.01"/>
<polygon fill="black" stroke="black" points="326.77,-88.4 335.88,-83 325.39,-81.53 326.77,-88.4"/>
</g>
<!-- 3 -->
<!-- name: &quot;unsigned varint&quot;, typeName: &quot;&quot;, id: 3, branchId: 0, recurseId: &#45;1, attributes: 512, notes: &quot;&quot; -->
<g id="node4" class="node">
<title>3</title>
<ellipse fill="none" stroke="black" cx="782.24" cy="-126" rx="65.79" ry="18"/>
<text text-anchor="middle" x="782.24" y="-122.3" font-family="Times New Roman,serif" font-size="14.00">unsigned varint</text>
</g>
<!-- 2&#45;&gt;3 -->
<g id="edge3" class="edge">
<title>2&#45;&gt;3</title>
<path fill="none" stroke="black" d="M440.8,-126C507.24,-126 627.86,-126 706.24,-126"/>
<polygon fill="black" stroke="black" points="706.53,-129.5 716.53,-126 706.53,-122.5 706.53,-129.5"/>
</g>
<!-- 5 -->
<!-- name: &quot;ComponentItem name&quot;, typeName: &quot;&quot;, id: 5, branchId: 0, recurseId: &#45;1, attributes: 0, notes: &quot;&quot; -->
<g id="node6" class="node">
<title>5</title>
<ellipse fill="none" stroke="black" cx="588.96" cy="-72" rx="90.98" ry="18"/>
<text text-anchor="middle" x="588.96" y="-68.3" font-family="Times New Roman,serif" font-size="14.00">ComponentItem name</text>
</g>
<!-- 4&#45;&gt;5 -->
<g id="edge5" class="edge">
<title>4&#45;&gt;5</title>
<path fill="none" stroke="black" d="M462.14,-72C470.41,-72 478.97,-72 487.57,-72"/>
<polygon fill="black" stroke="black" points="487.65,-75.5 497.65,-72 487.65,-68.5 487.65,-75.5"/>
</g>
<!-- 7 -->
<!-- name: &quot;Component data&quot;, typeName: &quot;CompoundTag&quot;, id: 7, branchId: 0, recurseId: &#45;1, attributes: 256, notes: &quot;Compound tag members &#45; itemname: string, itemid: short, itemcomponents: {[componentkey:string]: { ...component definition here... } } }&quot; -->
<g id="node8" class="node">
<title>7</title>
<ellipse fill="none" stroke="black" cx="588.96" cy="-18" rx="71.49" ry="18"/>
<text text-anchor="middle" x="588.96" y="-14.3" font-family="Times New Roman,serif" font-size="14.00">Component data</text>
</g>
<!-- 4&#45;&gt;7 -->
<g id="edge7" class="edge">
<title>4&#45;&gt;7</title>
<path fill="none" stroke="black" d="M440.27,-58.86C467.42,-51.35 501.67,-41.87 530.35,-33.94"/>
<polygon fill="black" stroke="black" points="531.54,-37.24 540.25,-31.2 529.67,-30.49 531.54,-37.24"/>
</g>
<!-- 6 -->
<!-- name: &quot;string&quot;, typeName: &quot;&quot;, id: 6, branchId: 0, recurseId: &#45;1, attributes: 512, notes: &quot;&quot; -->
<g id="node7" class="node">
<title>6</title>
<ellipse fill="none" stroke="black" cx="782.24" cy="-72" rx="30.59" ry="18"/>
<text text-anchor="middle" x="782.24" y="-68.3" font-family="Times New Roman,serif" font-size="14.00">string</text>
</g>
<!-- 5&#45;&gt;6 -->
<g id="edge6" class="edge">
<title>5&#45;&gt;6</title>
<path fill="none" stroke="black" d="M680,-72C701.55,-72 723.47,-72 741.39,-72"/>
<polygon fill="black" stroke="black" points="741.44,-75.5 751.44,-72 741.44,-68.5 741.44,-75.5"/>
</g>
<!-- 8 -->
<!-- name: &quot;CompoundTag&quot;, typeName: &quot;&quot;, id: 8, branchId: 0, recurseId: &#45;1, attributes: 512, notes: &quot;&quot; -->
<g id="node9" class="node">
<title>8</title>
<ellipse fill="none" stroke="black" cx="782.24" cy="-18" rx="66.09" ry="18"/>
<text text-anchor="middle" x="782.24" y="-14.3" font-family="Times New Roman,serif" font-size="14.00">CompoundTag</text>
</g>
<!-- 7&#45;&gt;8 -->
<g id="edge8" class="edge">
<title>7&#45;&gt;8</title>
<path fill="none" stroke="black" d="M660.64,-18C675.34,-18 690.89,-18 705.75,-18"/>
<polygon fill="black" stroke="black" points="705.92,-21.5 715.92,-18 705.92,-14.5 705.92,-21.5"/>
</g>
</g>
</svg>
