<?xml version="1.0" encoding="UTF-8" standalone="no"?>
<!DOCTYPE svg PUBLIC "-//W3C//DTD SVG 1.1//EN"
 "http://www.w3.org/Graphics/SVG/1.1/DTD/svg11.dtd">
<!-- Generated by graphviz version 12.2.0 (20241103.1931)
 -->
<!-- Title: ItemStackResponsePacket Pages: 1 -->
<svg width="946pt" height="98pt"
 viewBox="0.00 0.00 945.98 98.00" xmlns="http://www.w3.org/2000/svg" xmlns:xlink="http://www.w3.org/1999/xlink">
<g id="graph0" class="graph" transform="scale(1 1) rotate(0) translate(4 94)">
<title>ItemStackResponsePacket</title>
<polygon fill="white" stroke="none" points="-4,4 -4,-94 941.98,-94 941.98,4 -4,4"/>
<!-- 0 -->
<!-- name: &quot;ItemStackResponsePacket&quot;, typeName: &quot;&quot;, id: 0, branchId: 148, recurseId: &#45;1, attributes: 0, notes: &quot;&quot; -->
<g id="node1" class="node">
<title>0</title>
<ellipse fill="none" stroke="black" cx="108.67" cy="-45" rx="108.67" ry="18"/>
<text text-anchor="middle" x="108.67" y="-39.95" font-family="Times New Roman,serif" font-size="14.00">ItemStackResponsePacket</text>
</g>
<!-- 1 -->
<!-- name: &quot;Responses&quot;, typeName: &quot;&quot;, id: 1, branchId: 0, recurseId: &#45;1, attributes: 8, notes: &quot;&quot; -->
<g id="node2" class="node">
<title>1</title>
<ellipse fill="none" stroke="black" cx="303.16" cy="-45" rx="49.82" ry="18"/>
<text text-anchor="middle" x="303.16" y="-39.95" font-family="Times New Roman,serif" font-size="14.00">Responses</text>
</g>
<!-- 0&#45;&gt;1 -->
<g id="edge1" class="edge">
<title>0&#45;&gt;1</title>
<path fill="none" stroke="black" d="M217.73,-45C225.93,-45 234.01,-45 241.73,-45"/>
<polygon fill="black" stroke="black" points="241.63,-48.5 251.63,-45 241.63,-41.5 241.63,-48.5"/>
</g>
<!-- 2 -->
<!-- name: &quot;List Size&quot;, typeName: &quot;&quot;, id: 2, branchId: 0, recurseId: &#45;1, attributes: 0, notes: &quot;&quot; -->
<g id="node3" class="node">
<title>2</title>
<ellipse fill="none" stroke="black" cx="638.92" cy="-72" rx="43.67" ry="18"/>
<text text-anchor="middle" x="638.92" y="-66.95" font-family="Times New Roman,serif" font-size="14.00">List Size</text>
</g>
<!-- 1&#45;&gt;2 -->
<g id="edge2" class="edge">
<title>1&#45;&gt;2</title>
<path fill="none" stroke="black" d="M352.34,-48.9C413.86,-53.87 520,-62.46 584.11,-67.65"/>
<polygon fill="black" stroke="black" points="583.81,-71.13 594.06,-68.45 584.38,-64.16 583.81,-71.13"/>
</g>
<!-- 4 -->
<!-- name: &quot;example element&quot;, typeName: &quot;&quot;, id: 4, branchId: 0, recurseId: &#45;1, attributes: 16, notes: &quot;&quot; -->
<g id="node5" class="node">
<title>4</title>
<ellipse fill="none" stroke="black" stroke-dasharray="1,5" cx="463.87" cy="-22" rx="74.89" ry="18"/>
<text text-anchor="middle" x="463.87" y="-16.95" font-family="Times New Roman,serif" font-size="14.00">example element</text>
</g>
<!-- 1&#45;&gt;4 -->
<g id="edge4" class="edge">
<title>1&#45;&gt;4</title>
<path fill="none" stroke="black" d="M350.07,-38.35C361.82,-36.64 374.78,-34.77 387.59,-32.91"/>
<polygon fill="black" stroke="black" points="387.88,-36.4 397.28,-31.51 386.88,-29.48 387.88,-36.4"/>
</g>
<!-- 3 -->
<!-- name: &quot;unsigned varint&quot;, typeName: &quot;&quot;, id: 3, branchId: 0, recurseId: &#45;1, attributes: 512, notes: &quot;&quot; -->
<g id="node4" class="node">
<title>3</title>
<ellipse fill="none" stroke="black" cx="838.52" cy="-72" rx="68.24" ry="18"/>
<text text-anchor="middle" x="838.52" y="-66.95" font-family="Times New Roman,serif" font-size="14.00">unsigned varint</text>
</g>
<!-- 2&#45;&gt;3 -->
<g id="edge3" class="edge">
<title>2&#45;&gt;3</title>
<path fill="none" stroke="black" d="M682.79,-72C704.94,-72 732.68,-72 758.53,-72"/>
<polygon fill="black" stroke="black" points="758.35,-75.5 768.35,-72 758.35,-68.5 758.35,-75.5"/>
</g>
<!-- 5 -->
<!-- name: &quot;Response Info&quot;, typeName: &quot;ItemStackResponseInfo&quot;, id: 5, branchId: 0, recurseId: &#45;1, attributes: 256, notes: &quot;&quot; -->
<g id="node6" class="node">
<title>5</title>
<ellipse fill="none" stroke="black" cx="638.92" cy="-18" rx="64.15" ry="18"/>
<text text-anchor="middle" x="638.92" y="-12.95" font-family="Times New Roman,serif" font-size="14.00">Response Info</text>
</g>
<!-- 4&#45;&gt;5 -->
<g id="edge5" class="edge">
<title>4&#45;&gt;5</title>
<path fill="none" stroke="black" d="M538.76,-20.29C546.88,-20.1 555.15,-19.91 563.27,-19.73"/>
<polygon fill="black" stroke="black" points="563.2,-23.23 573.12,-19.5 563.04,-16.23 563.2,-23.23"/>
</g>
<!-- 48 -->
<!-- name: &quot;ItemStackResponseInfo&quot;, typeName: &quot;&quot;, id: 48, branchId: 0, recurseId: &#45;1, attributes: 512, notes: &quot;&quot; -->
<g id="node7" class="node">
<title>48</title>
<ellipse fill="none" stroke="black" cx="838.52" cy="-18" rx="99.46" ry="18"/>
<text text-anchor="middle" x="838.52" y="-12.95" font-family="Times New Roman,serif" font-size="14.00">ItemStackResponseInfo</text>
</g>
<!-- 5&#45;&gt;48 -->
<g id="edge6" class="edge">
<title>5&#45;&gt;48</title>
<path fill="none" stroke="black" d="M703.53,-18C711.2,-18 719.19,-18 727.29,-18"/>
<polygon fill="black" stroke="black" points="727.27,-21.5 737.27,-18 727.27,-14.5 727.27,-21.5"/>
</g>
</g>
</svg>
