<?xml version="1.0" encoding="UTF-8" standalone="no"?>
<!DOCTYPE svg PUBLIC "-//W3C//DTD SVG 1.1//EN"
 "http://www.w3.org/Graphics/SVG/1.1/DTD/svg11.dtd">
<!-- Generated by graphviz version 14.1.1 (20251213.1925)
 -->
<!-- Title: ItemData Pages: 1 -->
<svg width="520pt" height="260pt"
 viewBox="0.00 0.00 520.00 260.00" xmlns="http://www.w3.org/2000/svg" xmlns:xlink="http://www.w3.org/1999/xlink">
<g id="graph0" class="graph" transform="scale(1 1) rotate(0) translate(4 256)">
<title>ItemData</title>
<polygon fill="white" stroke="none" points="-4,4 -4,-256 516.15,-256 516.15,4 -4,4"/>
<!-- 0 -->
<!-- name: &quot;ItemData&quot;, typeName: &quot;&quot;, id: 0, branchId: 0, recurseId: &#45;1, attributes: 0, notes: &quot;&quot; -->
<g id="node1" class="node">
<title>0</title>
<ellipse fill="none" stroke="black" cx="45.72" cy="-126" rx="45.72" ry="18"/>
<text xml:space="preserve" text-anchor="middle" x="45.72" y="-120.95" font-family="Times New Roman,serif" font-size="14.00">ItemData</text>
</g>
<!-- 1 -->
<!-- name: &quot;Item Name&quot;, typeName: &quot;&quot;, id: 1, branchId: 0, recurseId: &#45;1, attributes: 0, notes: &quot;&quot; -->
<g id="node2" class="node">
<title>1</title>
<ellipse fill="none" stroke="black" cx="221.79" cy="-234" rx="53.4" ry="18"/>
<text xml:space="preserve" text-anchor="middle" x="221.79" y="-228.95" font-family="Times New Roman,serif" font-size="14.00">Item Name</text>
</g>
<!-- 0&#45;&gt;1 -->
<g id="edge1" class="edge">
<title>0&#45;&gt;1</title>
<path fill="none" stroke="black" d="M59.65,-143.44C74.18,-161.84 99.42,-190.42 127.44,-207 138.45,-213.51 151.12,-218.53 163.5,-222.38"/>
<polygon fill="black" stroke="black" points="162.23,-225.66 172.81,-225.05 164.16,-218.93 162.23,-225.66"/>
</g>
<!-- 2 -->
<!-- name: &quot;Item Id&quot;, typeName: &quot;&quot;, id: 2, branchId: 0, recurseId: &#45;1, attributes: 0, notes: &quot;Block id&#39;s &lt; 256 (can be negative); Item id&#39;s &gt;= 257&quot; -->
<g id="node3" class="node">
<title>2</title>
<ellipse fill="none" stroke="black" cx="221.79" cy="-180" rx="38.56" ry="18"/>
<text xml:space="preserve" text-anchor="middle" x="221.79" y="-174.95" font-family="Times New Roman,serif" font-size="14.00">Item Id</text>
</g>
<!-- 0&#45;&gt;2 -->
<g id="edge2" class="edge">
<title>0&#45;&gt;2</title>
<path fill="none" stroke="black" d="M80.79,-137.74C95.15,-142.6 112.07,-148.21 127.44,-153 143.64,-158.05 161.52,-163.3 177.26,-167.81"/>
<polygon fill="black" stroke="black" points="176.26,-171.17 186.83,-170.54 178.18,-164.43 176.26,-171.17"/>
</g>
<!-- 4 -->
<!-- name: &quot;Is Component Based&quot;, typeName: &quot;&quot;, id: 4, branchId: 0, recurseId: &#45;1, attributes: 0, notes: &quot;&quot; -->
<g id="node5" class="node">
<title>4</title>
<ellipse fill="none" stroke="black" cx="221.79" cy="-126" rx="88.71" ry="18"/>
<text xml:space="preserve" text-anchor="middle" x="221.79" y="-120.95" font-family="Times New Roman,serif" font-size="14.00">Is Component Based</text>
</g>
<!-- 0&#45;&gt;4 -->
<g id="edge4" class="edge">
<title>0&#45;&gt;4</title>
<path fill="none" stroke="black" d="M91.55,-126C100.87,-126 111.04,-126 121.45,-126"/>
<polygon fill="black" stroke="black" points="121.3,-129.5 131.3,-126 121.3,-122.5 121.3,-129.5"/>
</g>
<!-- 6 -->
<!-- name: &quot;Item Version&quot;, typeName: &quot;&quot;, id: 6, branchId: 0, recurseId: &#45;1, attributes: 0, notes: &quot;&quot; -->
<g id="node7" class="node">
<title>6</title>
<ellipse fill="none" stroke="black" cx="221.79" cy="-72" rx="58.52" ry="18"/>
<text xml:space="preserve" text-anchor="middle" x="221.79" y="-66.95" font-family="Times New Roman,serif" font-size="14.00">Item Version</text>
</g>
<!-- 0&#45;&gt;6 -->
<g id="edge6" class="edge">
<title>0&#45;&gt;6</title>
<path fill="none" stroke="black" d="M80.79,-114.26C95.15,-109.4 112.07,-103.79 127.44,-99 140.02,-95.08 153.62,-91.04 166.44,-87.31"/>
<polygon fill="black" stroke="black" points="167.36,-90.69 176,-84.55 165.42,-83.96 167.36,-90.69"/>
</g>
<!-- 8 -->
<!-- name: &quot;Item Component Data&quot;, typeName: &quot;&quot;, id: 8, branchId: 0, recurseId: &#45;1, attributes: 0, notes: &quot;&quot; -->
<g id="node9" class="node">
<title>8</title>
<ellipse fill="none" stroke="black" cx="221.79" cy="-18" rx="94.34" ry="18"/>
<text xml:space="preserve" text-anchor="middle" x="221.79" y="-12.95" font-family="Times New Roman,serif" font-size="14.00">Item Component Data</text>
</g>
<!-- 0&#45;&gt;8 -->
<g id="edge8" class="edge">
<title>0&#45;&gt;8</title>
<path fill="none" stroke="black" d="M59.65,-108.56C74.18,-90.16 99.42,-61.58 127.44,-45 133.54,-41.39 140.15,-38.24 146.94,-35.49"/>
<polygon fill="black" stroke="black" points="148.13,-38.79 156.29,-32.03 145.7,-32.22 148.13,-38.79"/>
</g>
<!-- 3 -->
<!-- name: &quot;short&quot;, typeName: &quot;&quot;, id: 3, branchId: 0, recurseId: &#45;1, attributes: 512, notes: &quot;Block id&#39;s &lt; 256 (can be negative); Item id&#39;s &gt;= 257&quot; -->
<g id="node4" class="node">
<title>3</title>
<ellipse fill="none" stroke="black" cx="432.14" cy="-180" rx="29.34" ry="18"/>
<text xml:space="preserve" text-anchor="middle" x="432.14" y="-174.95" font-family="Times New Roman,serif" font-size="14.00">short</text>
</g>
<!-- 2&#45;&gt;3 -->
<g id="edge3" class="edge">
<title>2&#45;&gt;3</title>
<path fill="none" stroke="black" d="M260.52,-180C297.5,-180 353.66,-180 391.34,-180"/>
<polygon fill="black" stroke="black" points="390.89,-183.5 400.89,-180 390.89,-176.5 390.89,-183.5"/>
</g>
<!-- 5 -->
<!-- name: &quot;bool&quot;, typeName: &quot;&quot;, id: 5, branchId: 0, recurseId: &#45;1, attributes: 512, notes: &quot;&quot; -->
<g id="node6" class="node">
<title>5</title>
<ellipse fill="none" stroke="black" cx="432.14" cy="-126" rx="27.3" ry="18"/>
<text xml:space="preserve" text-anchor="middle" x="432.14" y="-120.95" font-family="Times New Roman,serif" font-size="14.00">bool</text>
</g>
<!-- 4&#45;&gt;5 -->
<g id="edge5" class="edge">
<title>4&#45;&gt;5</title>
<path fill="none" stroke="black" d="M310.85,-126C339.6,-126 370.03,-126 393.09,-126"/>
<polygon fill="black" stroke="black" points="392.92,-129.5 402.92,-126 392.92,-122.5 392.92,-129.5"/>
</g>
<!-- 7 -->
<!-- name: &quot;enum ItemVersion&quot;, typeName: &quot;&quot;, id: 7, branchId: 0, recurseId: &#45;1, attributes: 512, notes: &quot;&quot; -->
<g id="node8" class="node">
<title>7</title>
<ellipse fill="none" stroke="black" cx="432.14" cy="-72" rx="80.01" ry="18"/>
<text xml:space="preserve" text-anchor="middle" x="432.14" y="-66.95" font-family="Times New Roman,serif" font-size="14.00">enum ItemVersion</text>
</g>
<!-- 6&#45;&gt;7 -->
<g id="edge7" class="edge">
<title>6&#45;&gt;7</title>
<path fill="none" stroke="black" d="M280.55,-72C299.06,-72 320.02,-72 340.31,-72"/>
<polygon fill="black" stroke="black" points="340.3,-75.5 350.3,-72 340.3,-68.5 340.3,-75.5"/>
</g>
<!-- 9 -->
<!-- name: &quot;&quot;, typeName: &quot;&quot;, id: 9, branchId: 0, recurseId: &#45;1, attributes: 512, notes: &quot;&quot; -->
<g id="node10" class="node">
<title>9</title>
<ellipse fill="none" stroke="black" cx="432.14" cy="-18" rx="27" ry="18"/>
</g>
<!-- 8&#45;&gt;9 -->
<g id="edge9" class="edge">
<title>8&#45;&gt;9</title>
<path fill="none" stroke="black" d="M316.6,-18C343.76,-18 371.87,-18 393.44,-18"/>
<polygon fill="black" stroke="black" points="393.2,-21.5 403.2,-18 393.2,-14.5 393.2,-21.5"/>
</g>
</g>
</svg>
