<?xml version="1.0" encoding="UTF-8" standalone="no"?>
<!DOCTYPE svg PUBLIC "-//W3C//DTD SVG 1.1//EN"
 "http://www.w3.org/Graphics/SVG/1.1/DTD/svg11.dtd">
<!-- Generated by graphviz version 11.0.0 (20240428.1522)
 -->
<!-- Title: ItemStackRequestSlotInfo Pages: 1 -->
<svg width="548pt" height="152pt"
 viewBox="0.00 0.00 548.06 152.00" xmlns="http://www.w3.org/2000/svg" xmlns:xlink="http://www.w3.org/1999/xlink">
<g id="graph0" class="graph" transform="scale(1 1) rotate(0) translate(4 148)">
<title>ItemStackRequestSlotInfo</title>
<polygon fill="white" stroke="none" points="-4,4 -4,-148 544.06,-148 544.06,4 -4,4"/>
<!-- 97 -->
<!-- name: &quot;ItemStackRequestSlotInfo&quot;, typeName: &quot;&quot;, id: 97, branchId: 0, recurseId: &#45;1, attributes: 0, notes: &quot;&quot; -->
<g id="node1" class="node">
<title>97</title>
<ellipse fill="none" stroke="black" cx="108.95" cy="-72" rx="108.95" ry="18"/>
<text text-anchor="middle" x="108.95" y="-66.58" font-family="Times New Roman,serif" font-size="14.00">ItemStackRequestSlotInfo</text>
</g>
<!-- 98 -->
<!-- name: &quot;Open container net id&quot;, typeName: &quot;&quot;, id: 98, branchId: 0, recurseId: &#45;1, attributes: 0, notes: &quot;&quot; -->
<g id="node2" class="node">
<title>98</title>
<ellipse fill="none" stroke="black" cx="347.87" cy="-126" rx="90.48" ry="18"/>
<text text-anchor="middle" x="347.87" y="-120.58" font-family="Times New Roman,serif" font-size="14.00">Open container net id</text>
</g>
<!-- 97&#45;&gt;98 -->
<g id="edge1" class="edge">
<title>97&#45;&gt;98</title>
<path fill="none" stroke="black" d="M174.69,-86.76C206.06,-93.91 243.82,-102.51 275.97,-109.84"/>
<polygon fill="black" stroke="black" points="275.08,-113.23 285.61,-112.04 276.64,-106.4 275.08,-113.23"/>
</g>
<!-- 100 -->
<!-- name: &quot;Slot&quot;, typeName: &quot;&quot;, id: 100, branchId: 0, recurseId: &#45;1, attributes: 0, notes: &quot;&quot; -->
<g id="node4" class="node">
<title>100</title>
<ellipse fill="none" stroke="black" cx="347.87" cy="-72" rx="27" ry="18"/>
<text text-anchor="middle" x="347.87" y="-66.58" font-family="Times New Roman,serif" font-size="14.00">Slot</text>
</g>
<!-- 97&#45;&gt;100 -->
<g id="edge3" class="edge">
<title>97&#45;&gt;100</title>
<path fill="none" stroke="black" d="M218.36,-72C251.03,-72 284.72,-72 309.41,-72"/>
<polygon fill="black" stroke="black" points="309.25,-75.5 319.25,-72 309.25,-68.5 309.25,-75.5"/>
</g>
<!-- 102 -->
<!-- name: &quot;Raw Id (32 bit signed)&quot;, typeName: &quot;&quot;, id: 102, branchId: 0, recurseId: &#45;1, attributes: 0, notes: &quot;&quot; -->
<g id="node6" class="node">
<title>102</title>
<ellipse fill="none" stroke="black" cx="347.87" cy="-18" rx="93.98" ry="18"/>
<text text-anchor="middle" x="347.87" y="-12.57" font-family="Times New Roman,serif" font-size="14.00">Raw Id (32 bit signed)</text>
</g>
<!-- 97&#45;&gt;102 -->
<g id="edge5" class="edge">
<title>97&#45;&gt;102</title>
<path fill="none" stroke="black" d="M174.69,-57.24C205.7,-50.18 242.93,-41.69 274.84,-34.42"/>
<polygon fill="black" stroke="black" points="275.43,-37.87 284.4,-32.24 273.87,-31.05 275.43,-37.87"/>
</g>
<!-- 99 -->
<!-- name: &quot;byte&quot;, typeName: &quot;&quot;, id: 99, branchId: 0, recurseId: &#45;1, attributes: 512, notes: &quot;&quot; -->
<g id="node3" class="node">
<title>99</title>
<ellipse fill="none" stroke="black" cx="508.95" cy="-126" rx="27" ry="18"/>
<text text-anchor="middle" x="508.95" y="-120.58" font-family="Times New Roman,serif" font-size="14.00">byte</text>
</g>
<!-- 98&#45;&gt;99 -->
<g id="edge2" class="edge">
<title>98&#45;&gt;99</title>
<path fill="none" stroke="black" d="M438.64,-126C449.64,-126 460.38,-126 469.99,-126"/>
<polygon fill="black" stroke="black" points="469.98,-129.5 479.98,-126 469.98,-122.5 469.98,-129.5"/>
</g>
<!-- 101 -->
<!-- name: &quot;byte&quot;, typeName: &quot;&quot;, id: 101, branchId: 0, recurseId: &#45;1, attributes: 512, notes: &quot;&quot; -->
<g id="node5" class="node">
<title>101</title>
<ellipse fill="none" stroke="black" cx="508.95" cy="-72" rx="27" ry="18"/>
<text text-anchor="middle" x="508.95" y="-66.58" font-family="Times New Roman,serif" font-size="14.00">byte</text>
</g>
<!-- 100&#45;&gt;101 -->
<g id="edge4" class="edge">
<title>100&#45;&gt;101</title>
<path fill="none" stroke="black" d="M375.14,-72C401.05,-72 440.91,-72 470.2,-72"/>
<polygon fill="black" stroke="black" points="470.13,-75.5 480.13,-72 470.13,-68.5 470.13,-75.5"/>
</g>
<!-- 103 -->
<!-- name: &quot;varint&quot;, typeName: &quot;&quot;, id: 103, branchId: 0, recurseId: &#45;1, attributes: 512, notes: &quot;&quot; -->
<g id="node7" class="node">
<title>103</title>
<ellipse fill="none" stroke="black" cx="508.95" cy="-18" rx="31.1" ry="18"/>
<text text-anchor="middle" x="508.95" y="-12.57" font-family="Times New Roman,serif" font-size="14.00">varint</text>
</g>
<!-- 102&#45;&gt;103 -->
<g id="edge6" class="edge">
<title>102&#45;&gt;103</title>
<path fill="none" stroke="black" d="M442.33,-18C450.67,-18 458.81,-18 466.35,-18"/>
<polygon fill="black" stroke="black" points="466.14,-21.5 476.14,-18 466.14,-14.5 466.14,-21.5"/>
</g>
</g>
</svg>
