<?xml version="1.0" encoding="UTF-8" standalone="no"?>
<!DOCTYPE svg PUBLIC "-//W3C//DTD SVG 1.1//EN"
 "http://www.w3.org/Graphics/SVG/1.1/DTD/svg11.dtd">
<!-- Generated by graphviz version 14.1.5 (20260411.2331)
 -->
<!-- Title: ItemUseOnActorInventoryTransaction Pages: 1 -->
<svg width="1486pt" height="756pt"
 viewBox="0.00 0.00 1486.00 756.00" xmlns="http://www.w3.org/2000/svg" xmlns:xlink="http://www.w3.org/1999/xlink">
<g id="graph0" class="graph" transform="scale(1 1) rotate(0) translate(4 752)">
<title>ItemUseOnActorInventoryTransaction</title>
<polygon fill="white" stroke="none" points="-4,4 -4,-752 1482.46,-752 1482.46,4 -4,4"/>
<!-- 0 -->
<!-- name: &quot;ItemUseOnActorInventoryTransaction&quot;, typeName: &quot;&quot;, id: 0, branchId: 0, recurseId: &#45;1, attributes: 0, notes: &quot;&quot; -->
<g id="node1" class="node">
<title>0</title>
<ellipse fill="none" stroke="black" cx="154.22" cy="-351" rx="154.22" ry="18"/>
<text xml:space="preserve" text-anchor="middle" x="154.22" y="-345.95" font-family="Times New Roman,serif" font-size="14.00">ItemUseOnActorInventoryTransaction</text>
</g>
<!-- 1 -->
<!-- name: &quot;Actions&quot;, typeName: &quot;&quot;, id: 1, branchId: 0, recurseId: &#45;1, attributes: 0, notes: &quot;Base inventory actions. Lists the inventory slot changes associated with this transaction.&quot; -->
<g id="node2" class="node">
<title>1</title>
<ellipse fill="none" stroke="black" cx="397.85" cy="-530" rx="39.58" ry="18"/>
<text xml:space="preserve" text-anchor="middle" x="397.85" y="-524.95" font-family="Times New Roman,serif" font-size="14.00">Actions</text>
</g>
<!-- 0&#45;&gt;1 -->
<g id="edge1" class="edge">
<title>0&#45;&gt;1</title>
<path fill="none" stroke="black" d="M179.72,-369.15C224.38,-402.23 318.84,-472.21 367.11,-507.97"/>
<polygon fill="black" stroke="black" points="364.78,-510.6 374.9,-513.74 368.95,-504.98 364.78,-510.6"/>
</g>
<!-- 17 -->
<!-- name: &quot;Runtime Id&quot;, typeName: &quot;&quot;, id: 17, branchId: 0, recurseId: &#45;1, attributes: 0, notes: &quot;The runtime ID of the actor being interacted with or attacked.&quot; -->
<g id="node18" class="node">
<title>17</title>
<ellipse fill="none" stroke="black" cx="397.85" cy="-439" rx="53.4" ry="18"/>
<text xml:space="preserve" text-anchor="middle" x="397.85" y="-433.95" font-family="Times New Roman,serif" font-size="14.00">Runtime Id</text>
</g>
<!-- 0&#45;&gt;17 -->
<g id="edge17" class="edge">
<title>0&#45;&gt;17</title>
<path fill="none" stroke="black" d="M203.25,-368.49C245.92,-384.03 307.89,-406.6 350.15,-421.99"/>
<polygon fill="black" stroke="black" points="348.7,-425.19 359.29,-425.32 351.09,-418.61 348.7,-425.19"/>
</g>
<!-- 20 -->
<!-- name: &quot;Action Type&quot;, typeName: &quot;&quot;, id: 20, branchId: 0, recurseId: &#45;1, attributes: 0, notes: &quot;Interact: right&#45;click on actor. Attack: left&#45;click or trident spin attack.&quot; -->
<g id="node21" class="node">
<title>20</title>
<ellipse fill="none" stroke="black" cx="756.12" cy="-395" rx="56.47" ry="18"/>
<text xml:space="preserve" text-anchor="middle" x="756.12" y="-389.95" font-family="Times New Roman,serif" font-size="14.00">Action Type</text>
</g>
<!-- 0&#45;&gt;20 -->
<g id="edge20" class="edge">
<title>0&#45;&gt;20</title>
<path fill="none" stroke="black" d="M286.13,-360.6C410.7,-369.74 593.01,-383.11 689.53,-390.19"/>
<polygon fill="black" stroke="black" points="689.13,-393.67 699.36,-390.91 689.64,-386.69 689.13,-393.67"/>
</g>
<!-- 22 -->
<!-- name: &quot;Slot&quot;, typeName: &quot;&quot;, id: 22, branchId: 0, recurseId: &#45;1, attributes: 0, notes: &quot;The inventory slot of the item being used on the actor.&quot; -->
<g id="node23" class="node">
<title>22</title>
<ellipse fill="none" stroke="black" cx="566.24" cy="-346" rx="27" ry="18"/>
<text xml:space="preserve" text-anchor="middle" x="566.24" y="-340.95" font-family="Times New Roman,serif" font-size="14.00">Slot</text>
</g>
<!-- 0&#45;&gt;22 -->
<g id="edge22" class="edge">
<title>0&#45;&gt;22</title>
<path fill="none" stroke="black" d="M307.9,-349.14C387.19,-348.17 477.69,-347.07 527.45,-346.46"/>
<polygon fill="black" stroke="black" points="527.43,-349.96 537.39,-346.34 527.35,-342.96 527.43,-349.96"/>
</g>
<!-- 24 -->
<!-- name: &quot;Item&quot;, typeName: &quot;&quot;, id: 24, branchId: 0, recurseId: &#45;1, attributes: 0, notes: &quot;The item stack descriptor of the item being used on the actor.&quot; -->
<g id="node25" class="node">
<title>24</title>
<ellipse fill="none" stroke="black" cx="397.85" cy="-305" rx="28.32" ry="18"/>
<text xml:space="preserve" text-anchor="middle" x="397.85" y="-299.95" font-family="Times New Roman,serif" font-size="14.00">Item</text>
</g>
<!-- 0&#45;&gt;24 -->
<g id="edge24" class="edge">
<title>0&#45;&gt;24</title>
<path fill="none" stroke="black" d="M237.03,-335.43C278.36,-327.56 326.52,-318.39 359.09,-312.19"/>
<polygon fill="black" stroke="black" points="359.68,-315.64 368.85,-310.33 358.37,-308.76 359.68,-315.64"/>
</g>
<!-- 25 -->
<!-- name: &quot;From Position&quot;, typeName: &quot;&quot;, id: 25, branchId: 0, recurseId: &#45;1, attributes: 0, notes: &quot;The player&#39;s position when this transaction was sent.&quot; -->
<g id="node26" class="node">
<title>25</title>
<ellipse fill="none" stroke="black" cx="935.26" cy="-239" rx="64.15" ry="18"/>
<text xml:space="preserve" text-anchor="middle" x="935.26" y="-233.95" font-family="Times New Roman,serif" font-size="14.00">From Position</text>
</g>
<!-- 0&#45;&gt;25 -->
<g id="edge25" class="edge">
<title>0&#45;&gt;25</title>
<path fill="none" stroke="black" d="M191.54,-333.19C228.9,-315.78 289.26,-290.17 344.45,-278 526.59,-237.82 747.41,-235.04 860.17,-236.8"/>
<polygon fill="black" stroke="black" points="859.82,-240.29 869.88,-236.97 859.95,-233.3 859.82,-240.29"/>
</g>
<!-- 32 -->
<!-- name: &quot;Hit Position&quot;, typeName: &quot;&quot;, id: 32, branchId: 0, recurseId: &#45;1, attributes: 0, notes: &quot;The position on the actor that was clicked.&quot; -->
<g id="node33" class="node">
<title>32</title>
<ellipse fill="none" stroke="black" cx="935.26" cy="-99" rx="55.45" ry="18"/>
<text xml:space="preserve" text-anchor="middle" x="935.26" y="-93.95" font-family="Times New Roman,serif" font-size="14.00">Hit Position</text>
</g>
<!-- 0&#45;&gt;32 -->
<g id="edge32" class="edge">
<title>0&#45;&gt;32</title>
<path fill="none" stroke="black" d="M185.78,-332.95C222.44,-311.9 286.27,-277.17 344.45,-255 533.06,-183.14 767.68,-131.82 875.31,-110.28"/>
<polygon fill="black" stroke="black" points="875.95,-113.72 885.07,-108.34 874.58,-106.86 875.95,-113.72"/>
</g>
<!-- 2 -->
<!-- name: &quot;Actions&quot;, typeName: &quot;&quot;, id: 2, branchId: 0, recurseId: &#45;1, attributes: 0, notes: &quot;List of inventory slot changes. Each action describes which container slot is changing and what the item descriptor transitions from and to.&quot; -->
<g id="node3" class="node">
<title>2</title>
<ellipse fill="none" stroke="black" cx="566.24" cy="-568" rx="39.58" ry="18"/>
<text xml:space="preserve" text-anchor="middle" x="566.24" y="-562.95" font-family="Times New Roman,serif" font-size="14.00">Actions</text>
</g>
<!-- 1&#45;&gt;2 -->
<g id="edge2" class="edge">
<title>1&#45;&gt;2</title>
<path fill="none" stroke="black" d="M433.73,-537.97C458.58,-543.64 492.22,-551.33 519.26,-557.5"/>
<polygon fill="black" stroke="black" points="518.4,-560.89 528.93,-559.71 519.96,-554.07 518.4,-560.89"/>
</g>
<!-- 3 -->
<!-- name: &quot;List Size&quot;, typeName: &quot;&quot;, id: 3, branchId: 0, recurseId: &#45;1, attributes: 0, notes: &quot;&quot; -->
<g id="node4" class="node">
<title>3</title>
<ellipse fill="none" stroke="black" cx="756.12" cy="-662" rx="43.67" ry="18"/>
<text xml:space="preserve" text-anchor="middle" x="756.12" y="-656.95" font-family="Times New Roman,serif" font-size="14.00">List Size</text>
</g>
<!-- 2&#45;&gt;3 -->
<g id="edge3" class="edge">
<title>2&#45;&gt;3</title>
<path fill="none" stroke="black" d="M593.76,-581.27C625.89,-597.34 680.26,-624.55 716.91,-642.88"/>
<polygon fill="black" stroke="black" points="715.34,-646.01 725.85,-647.36 718.47,-639.75 715.34,-646.01"/>
</g>
<!-- 5 -->
<!-- name: &quot;example element&quot;, typeName: &quot;&quot;, id: 5, branchId: 0, recurseId: &#45;1, attributes: 16, notes: &quot;&quot; -->
<g id="node6" class="node">
<title>5</title>
<ellipse fill="none" stroke="black" stroke-dasharray="1,5" cx="756.12" cy="-568" rx="74.89" ry="18"/>
<text xml:space="preserve" text-anchor="middle" x="756.12" y="-562.95" font-family="Times New Roman,serif" font-size="14.00">example element</text>
</g>
<!-- 2&#45;&gt;5 -->
<g id="edge5" class="edge">
<title>2&#45;&gt;5</title>
<path fill="none" stroke="black" d="M606.17,-568C624.56,-568 647.31,-568 669.44,-568"/>
<polygon fill="black" stroke="black" points="669.41,-571.5 679.41,-568 669.41,-564.5 669.41,-571.5"/>
</g>
<!-- 4 -->
<!-- name: &quot;unsigned varint&quot;, typeName: &quot;&quot;, id: 4, branchId: 0, recurseId: &#45;1, attributes: 0, notes: &quot;&quot; -->
<g id="node5" class="node">
<title>4</title>
<ellipse fill="none" stroke="black" cx="935.26" cy="-703" rx="68.24" ry="18"/>
<text xml:space="preserve" text-anchor="middle" x="935.26" y="-697.95" font-family="Times New Roman,serif" font-size="14.00">unsigned varint</text>
</g>
<!-- 3&#45;&gt;4 -->
<g id="edge4" class="edge">
<title>3&#45;&gt;4</title>
<path fill="none" stroke="black" d="M794.69,-670.7C817.07,-675.88 846.04,-682.58 871.78,-688.54"/>
<polygon fill="black" stroke="black" points="870.96,-691.94 881.49,-690.79 872.54,-685.12 870.96,-691.94"/>
</g>
<!-- 6 -->
<!-- name: &quot;Source&quot;, typeName: &quot;&quot;, id: 6, branchId: 0, recurseId: &#45;1, attributes: 0, notes: &quot;The inventory source identifying which container this action targets.&quot; -->
<g id="node7" class="node">
<title>6</title>
<ellipse fill="none" stroke="black" cx="935.26" cy="-649" rx="36.51" ry="18"/>
<text xml:space="preserve" text-anchor="middle" x="935.26" y="-643.95" font-family="Times New Roman,serif" font-size="14.00">Source</text>
</g>
<!-- 5&#45;&gt;6 -->
<g id="edge6" class="edge">
<title>5&#45;&gt;6</title>
<path fill="none" stroke="black" d="M789.04,-584.47C810.81,-595.51 840.41,-610.14 867.01,-622 876.02,-626.01 885.81,-630.1 895.06,-633.84"/>
<polygon fill="black" stroke="black" points="893.6,-637.02 904.19,-637.48 896.2,-630.52 893.6,-637.02"/>
</g>
<!-- 13 -->
<!-- name: &quot;Slot&quot;, typeName: &quot;&quot;, id: 13, branchId: 0, recurseId: &#45;1, attributes: 0, notes: &quot;The slot index within the source container.&quot; -->
<g id="node14" class="node">
<title>13</title>
<ellipse fill="none" stroke="black" cx="935.26" cy="-595" rx="27" ry="18"/>
<text xml:space="preserve" text-anchor="middle" x="935.26" y="-589.95" font-family="Times New Roman,serif" font-size="14.00">Slot</text>
</g>
<!-- 5&#45;&gt;13 -->
<g id="edge13" class="edge">
<title>5&#45;&gt;13</title>
<path fill="none" stroke="black" d="M820.07,-577.6C845.86,-581.53 874.83,-585.94 897.13,-589.34"/>
<polygon fill="black" stroke="black" points="896.54,-592.79 906.96,-590.84 897.6,-585.87 896.54,-592.79"/>
</g>
<!-- 15 -->
<!-- name: &quot;From Item&quot;, typeName: &quot;&quot;, id: 15, branchId: 0, recurseId: &#45;1, attributes: 0, notes: &quot;The item descriptor representing the state of the slot before this action.&quot; -->
<g id="node16" class="node">
<title>15</title>
<ellipse fill="none" stroke="black" cx="935.26" cy="-541" rx="51.35" ry="18"/>
<text xml:space="preserve" text-anchor="middle" x="935.26" y="-535.95" font-family="Times New Roman,serif" font-size="14.00">From Item</text>
</g>
<!-- 5&#45;&gt;15 -->
<g id="edge15" class="edge">
<title>5&#45;&gt;15</title>
<path fill="none" stroke="black" d="M820.07,-558.4C838.43,-555.61 858.4,-552.56 876.42,-549.82"/>
<polygon fill="black" stroke="black" points="876.8,-553.3 886.16,-548.33 875.75,-546.38 876.8,-553.3"/>
</g>
<!-- 16 -->
<!-- name: &quot;To Item&quot;, typeName: &quot;&quot;, id: 16, branchId: 0, recurseId: &#45;1, attributes: 0, notes: &quot;The item descriptor representing the desired state of the slot after this action.&quot; -->
<g id="node17" class="node">
<title>16</title>
<ellipse fill="none" stroke="black" cx="935.26" cy="-487" rx="40.6" ry="18"/>
<text xml:space="preserve" text-anchor="middle" x="935.26" y="-481.95" font-family="Times New Roman,serif" font-size="14.00">To Item</text>
</g>
<!-- 5&#45;&gt;16 -->
<g id="edge16" class="edge">
<title>5&#45;&gt;16</title>
<path fill="none" stroke="black" d="M789.04,-551.53C810.81,-540.49 840.41,-525.86 867.01,-514 875.34,-510.29 884.33,-506.52 892.95,-503.02"/>
<polygon fill="black" stroke="black" points="894.21,-506.29 902.19,-499.32 891.6,-499.79 894.21,-506.29"/>
</g>
<!-- 7 -->
<!-- name: &quot;Source Type&quot;, typeName: &quot;&quot;, id: 7, branchId: 0, recurseId: &#45;1, attributes: 0, notes: &quot;The inventory source type.&quot; -->
<g id="node8" class="node">
<title>7</title>
<ellipse fill="none" stroke="black" cx="1099.04" cy="-730" rx="56.98" ry="18"/>
<text xml:space="preserve" text-anchor="middle" x="1099.04" y="-724.95" font-family="Times New Roman,serif" font-size="14.00">Source Type</text>
</g>
<!-- 6&#45;&gt;7 -->
<g id="edge7" class="edge">
<title>6&#45;&gt;7</title>
<path fill="none" stroke="black" d="M966.15,-659.08C978.1,-663.6 991.77,-669.4 1003.5,-676 1020.93,-685.81 1022.32,-692.75 1039.5,-703 1044.01,-705.69 1048.83,-708.3 1053.7,-710.77"/>
<polygon fill="black" stroke="black" points="1051.79,-713.73 1062.31,-714.96 1054.85,-707.44 1051.79,-713.73"/>
</g>
<!-- 9 -->
<!-- name: &quot;Container ID&quot;, typeName: &quot;&quot;, id: 9, branchId: 0, recurseId: &#45;1, attributes: 0, notes: &quot;Container window ID. Present only for ContainerInventory and NonImplementedFeatureTODO source types.&quot; -->
<g id="node10" class="node">
<title>9</title>
<ellipse fill="none" stroke="black" cx="1099.04" cy="-676" rx="59.54" ry="18"/>
<text xml:space="preserve" text-anchor="middle" x="1099.04" y="-670.95" font-family="Times New Roman,serif" font-size="14.00">Container ID</text>
</g>
<!-- 6&#45;&gt;9 -->
<g id="edge9" class="edge">
<title>6&#45;&gt;9</title>
<path fill="none" stroke="black" d="M970.17,-654.66C988.95,-657.79 1012.9,-661.79 1034.98,-665.48"/>
<polygon fill="black" stroke="black" points="1034.39,-668.93 1044.83,-667.12 1035.54,-662.02 1034.39,-668.93"/>
</g>
<!-- 11 -->
<!-- name: &quot;Bit Flags&quot;, typeName: &quot;&quot;, id: 11, branchId: 0, recurseId: &#45;1, attributes: 0, notes: &quot;Source flags. Present only for WorldInteraction source type.&quot; -->
<g id="node12" class="node">
<title>11</title>
<ellipse fill="none" stroke="black" cx="1099.04" cy="-622" rx="44.7" ry="18"/>
<text xml:space="preserve" text-anchor="middle" x="1099.04" y="-616.95" font-family="Times New Roman,serif" font-size="14.00">Bit Flags</text>
</g>
<!-- 6&#45;&gt;11 -->
<g id="edge11" class="edge">
<title>6&#45;&gt;11</title>
<path fill="none" stroke="black" d="M970.17,-643.34C992.19,-639.67 1021.31,-634.81 1046.2,-630.65"/>
<polygon fill="black" stroke="black" points="1046.51,-634.15 1055.8,-629.05 1045.36,-627.24 1046.51,-634.15"/>
</g>
<!-- 8 -->
<!-- name: &quot;enum InventorySourceType&quot;, typeName: &quot;&quot;, id: 8, branchId: 0, recurseId: &#45;1, attributes: 512, notes: &quot;The inventory source type.&quot; -->
<g id="node9" class="node">
<title>8</title>
<ellipse fill="none" stroke="black" cx="1336.52" cy="-730" rx="114.3" ry="18"/>
<text xml:space="preserve" text-anchor="middle" x="1336.52" y="-724.95" font-family="Times New Roman,serif" font-size="14.00">enum InventorySourceType</text>
</g>
<!-- 7&#45;&gt;8 -->
<g id="edge8" class="edge">
<title>7&#45;&gt;8</title>
<path fill="none" stroke="black" d="M1156.44,-730C1172.86,-730 1191.48,-730 1210.36,-730"/>
<polygon fill="black" stroke="black" points="1210.29,-733.5 1220.29,-730 1210.29,-726.5 1210.29,-733.5"/>
</g>
<!-- 10 -->
<!-- name: &quot;byte&quot;, typeName: &quot;&quot;, id: 10, branchId: 0, recurseId: &#45;1, attributes: 512, notes: &quot;Container window ID. Present only for ContainerInventory and NonImplementedFeatureTODO source types.&quot; -->
<g id="node11" class="node">
<title>10</title>
<ellipse fill="none" stroke="black" cx="1336.52" cy="-676" rx="27" ry="18"/>
<text xml:space="preserve" text-anchor="middle" x="1336.52" y="-670.95" font-family="Times New Roman,serif" font-size="14.00">byte</text>
</g>
<!-- 9&#45;&gt;10 -->
<g id="edge10" class="edge">
<title>9&#45;&gt;10</title>
<path fill="none" stroke="black" d="M1158.85,-676C1202.37,-676 1260.35,-676 1297.81,-676"/>
<polygon fill="black" stroke="black" points="1297.69,-679.5 1307.69,-676 1297.69,-672.5 1297.69,-679.5"/>
</g>
<!-- 12 -->
<!-- name: &quot;enum InventorySourceFlags&quot;, typeName: &quot;&quot;, id: 12, branchId: 0, recurseId: &#45;1, attributes: 512, notes: &quot;Source flags. Present only for WorldInteraction source type.&quot; -->
<g id="node13" class="node">
<title>12</title>
<ellipse fill="none" stroke="black" cx="1336.52" cy="-622" rx="115.84" ry="18"/>
<text xml:space="preserve" text-anchor="middle" x="1336.52" y="-616.95" font-family="Times New Roman,serif" font-size="14.00">enum InventorySourceFlags</text>
</g>
<!-- 11&#45;&gt;12 -->
<g id="edge12" class="edge">
<title>11&#45;&gt;12</title>
<path fill="none" stroke="black" d="M1144.05,-622C1162.81,-622 1185.75,-622 1209.15,-622"/>
<polygon fill="black" stroke="black" points="1209.14,-625.5 1219.14,-622 1209.14,-618.5 1209.14,-625.5"/>
</g>
<!-- 14 -->
<!-- name: &quot;unsigned varint&quot;, typeName: &quot;&quot;, id: 14, branchId: 0, recurseId: &#45;1, attributes: 512, notes: &quot;The slot index within the source container.&quot; -->
<g id="node15" class="node">
<title>14</title>
<ellipse fill="none" stroke="black" cx="1336.52" cy="-568" rx="68.24" ry="18"/>
<text xml:space="preserve" text-anchor="middle" x="1336.52" y="-562.95" font-family="Times New Roman,serif" font-size="14.00">unsigned varint</text>
</g>
<!-- 13&#45;&gt;14 -->
<g id="edge14" class="edge">
<title>13&#45;&gt;14</title>
<path fill="none" stroke="black" d="M962.45,-593.23C1021.68,-589.22 1167.79,-579.34 1258.59,-573.2"/>
<polygon fill="black" stroke="black" points="1258.67,-576.7 1268.41,-572.54 1258.2,-569.72 1258.67,-576.7"/>
</g>
<!-- 18 -->
<!-- name: &quot;Actor Runtime ID&quot;, typeName: &quot;&quot;, id: 18, branchId: 0, recurseId: &#45;1, attributes: 0, notes: &quot;&quot; -->
<g id="node19" class="node">
<title>18</title>
<ellipse fill="none" stroke="black" cx="566.24" cy="-439" rx="78.99" ry="18"/>
<text xml:space="preserve" text-anchor="middle" x="566.24" y="-433.95" font-family="Times New Roman,serif" font-size="14.00">Actor Runtime ID</text>
</g>
<!-- 17&#45;&gt;18 -->
<g id="edge18" class="edge">
<title>17&#45;&gt;18</title>
<path fill="none" stroke="black" d="M451.49,-439C459.13,-439 467.17,-439 475.29,-439"/>
<polygon fill="black" stroke="black" points="475.28,-442.5 485.28,-439 475.28,-435.5 475.28,-442.5"/>
</g>
<!-- 19 -->
<!-- name: &quot;unsigned varint64&quot;, typeName: &quot;&quot;, id: 19, branchId: 0, recurseId: &#45;1, attributes: 512, notes: &quot;&quot; -->
<g id="node20" class="node">
<title>19</title>
<ellipse fill="none" stroke="black" cx="1336.52" cy="-450" rx="77.45" ry="18"/>
<text xml:space="preserve" text-anchor="middle" x="1336.52" y="-444.95" font-family="Times New Roman,serif" font-size="14.00">unsigned varint64</text>
</g>
<!-- 18&#45;&gt;19 -->
<g id="edge19" class="edge">
<title>18&#45;&gt;19</title>
<path fill="none" stroke="black" d="M645.49,-440.12C789.65,-442.18 1096.22,-446.57 1247.43,-448.74"/>
<polygon fill="black" stroke="black" points="1247.37,-452.24 1257.42,-448.88 1247.47,-445.24 1247.37,-452.24"/>
</g>
<!-- 21 -->
<!-- name: &quot;enum ItemUseOnActorActionType&quot;, typeName: &quot;&quot;, id: 21, branchId: 0, recurseId: &#45;1, attributes: 512, notes: &quot;Interact: right&#45;click on actor. Attack: left&#45;click or trident spin attack.&quot; -->
<g id="node22" class="node">
<title>21</title>
<ellipse fill="none" stroke="black" cx="1336.52" cy="-396" rx="141.94" ry="18"/>
<text xml:space="preserve" text-anchor="middle" x="1336.52" y="-390.95" font-family="Times New Roman,serif" font-size="14.00">enum ItemUseOnActorActionType</text>
</g>
<!-- 20&#45;&gt;21 -->
<g id="edge21" class="edge">
<title>20&#45;&gt;21</title>
<path fill="none" stroke="black" d="M812.84,-395.1C897.41,-395.24 1061.17,-395.53 1182.96,-395.74"/>
<polygon fill="black" stroke="black" points="1182.72,-399.24 1192.73,-395.75 1182.74,-392.24 1182.72,-399.24"/>
</g>
<!-- 23 -->
<!-- name: &quot;varint&quot;, typeName: &quot;&quot;, id: 23, branchId: 0, recurseId: &#45;1, attributes: 512, notes: &quot;The inventory slot of the item being used on the actor.&quot; -->
<g id="node24" class="node">
<title>23</title>
<ellipse fill="none" stroke="black" cx="1336.52" cy="-342" rx="32.41" ry="18"/>
<text xml:space="preserve" text-anchor="middle" x="1336.52" y="-336.95" font-family="Times New Roman,serif" font-size="14.00">varint</text>
</g>
<!-- 22&#45;&gt;23 -->
<g id="edge23" class="edge">
<title>22&#45;&gt;23</title>
<path fill="none" stroke="black" d="M593.68,-345.86C706.99,-345.27 1152.08,-342.96 1292.7,-342.22"/>
<polygon fill="black" stroke="black" points="1292.33,-345.73 1302.31,-342.17 1292.29,-338.73 1292.33,-345.73"/>
</g>
<!-- 26 -->
<!-- name: &quot;X&quot;, typeName: &quot;&quot;, id: 26, branchId: 0, recurseId: &#45;1, attributes: 0, notes: &quot;&quot; -->
<g id="node27" class="node">
<title>26</title>
<ellipse fill="none" stroke="black" cx="1099.04" cy="-288" rx="27" ry="18"/>
<text xml:space="preserve" text-anchor="middle" x="1099.04" y="-282.95" font-family="Times New Roman,serif" font-size="14.00">X</text>
</g>
<!-- 25&#45;&gt;26 -->
<g id="edge26" class="edge">
<title>25&#45;&gt;26</title>
<path fill="none" stroke="black" d="M980.04,-252.26C1006.05,-260.14 1038.6,-270 1062.92,-277.36"/>
<polygon fill="black" stroke="black" points="1061.76,-280.67 1072.35,-280.22 1063.79,-273.97 1061.76,-280.67"/>
</g>
<!-- 28 -->
<!-- name: &quot;Y&quot;, typeName: &quot;&quot;, id: 28, branchId: 0, recurseId: &#45;1, attributes: 0, notes: &quot;&quot; -->
<g id="node29" class="node">
<title>28</title>
<ellipse fill="none" stroke="black" cx="1099.04" cy="-234" rx="27" ry="18"/>
<text xml:space="preserve" text-anchor="middle" x="1099.04" y="-228.95" font-family="Times New Roman,serif" font-size="14.00">Y</text>
</g>
<!-- 25&#45;&gt;28 -->
<g id="edge28" class="edge">
<title>25&#45;&gt;28</title>
<path fill="none" stroke="black" d="M999.27,-237.05C1019.94,-236.41 1042.25,-235.72 1060.42,-235.16"/>
<polygon fill="black" stroke="black" points="1060.31,-238.67 1070.2,-234.86 1060.1,-231.67 1060.31,-238.67"/>
</g>
<!-- 30 -->
<!-- name: &quot;Z&quot;, typeName: &quot;&quot;, id: 30, branchId: 0, recurseId: &#45;1, attributes: 0, notes: &quot;&quot; -->
<g id="node31" class="node">
<title>30</title>
<ellipse fill="none" stroke="black" cx="1099.04" cy="-180" rx="27" ry="18"/>
<text xml:space="preserve" text-anchor="middle" x="1099.04" y="-174.95" font-family="Times New Roman,serif" font-size="14.00">Z</text>
</g>
<!-- 25&#45;&gt;30 -->
<g id="edge30" class="edge">
<title>25&#45;&gt;30</title>
<path fill="none" stroke="black" d="M975.42,-224.72C1002.46,-214.85 1038.08,-201.87 1063.95,-192.43"/>
<polygon fill="black" stroke="black" points="1065.12,-195.73 1073.32,-189.02 1062.72,-189.15 1065.12,-195.73"/>
</g>
<!-- 27 -->
<!-- name: &quot;float&quot;, typeName: &quot;&quot;, id: 27, branchId: 0, recurseId: &#45;1, attributes: 512, notes: &quot;&quot; -->
<g id="node28" class="node">
<title>27</title>
<ellipse fill="none" stroke="black" cx="1336.52" cy="-288" rx="27.81" ry="18"/>
<text xml:space="preserve" text-anchor="middle" x="1336.52" y="-282.95" font-family="Times New Roman,serif" font-size="14.00">float</text>
</g>
<!-- 26&#45;&gt;27 -->
<g id="edge27" class="edge">
<title>26&#45;&gt;27</title>
<path fill="none" stroke="black" d="M1126.14,-288C1167.53,-288 1248.48,-288 1296.7,-288"/>
<polygon fill="black" stroke="black" points="1296.7,-291.5 1306.7,-288 1296.7,-284.5 1296.7,-291.5"/>
</g>
<!-- 29 -->
<!-- name: &quot;float&quot;, typeName: &quot;&quot;, id: 29, branchId: 0, recurseId: &#45;1, attributes: 512, notes: &quot;&quot; -->
<g id="node30" class="node">
<title>29</title>
<ellipse fill="none" stroke="black" cx="1336.52" cy="-234" rx="27.81" ry="18"/>
<text xml:space="preserve" text-anchor="middle" x="1336.52" y="-228.95" font-family="Times New Roman,serif" font-size="14.00">float</text>
</g>
<!-- 28&#45;&gt;29 -->
<g id="edge29" class="edge">
<title>28&#45;&gt;29</title>
<path fill="none" stroke="black" d="M1126.14,-234C1167.53,-234 1248.48,-234 1296.7,-234"/>
<polygon fill="black" stroke="black" points="1296.7,-237.5 1306.7,-234 1296.7,-230.5 1296.7,-237.5"/>
</g>
<!-- 31 -->
<!-- name: &quot;float&quot;, typeName: &quot;&quot;, id: 31, branchId: 0, recurseId: &#45;1, attributes: 512, notes: &quot;&quot; -->
<g id="node32" class="node">
<title>31</title>
<ellipse fill="none" stroke="black" cx="1336.52" cy="-180" rx="27.81" ry="18"/>
<text xml:space="preserve" text-anchor="middle" x="1336.52" y="-174.95" font-family="Times New Roman,serif" font-size="14.00">float</text>
</g>
<!-- 30&#45;&gt;31 -->
<g id="edge31" class="edge">
<title>30&#45;&gt;31</title>
<path fill="none" stroke="black" d="M1126.14,-180C1167.53,-180 1248.48,-180 1296.7,-180"/>
<polygon fill="black" stroke="black" points="1296.7,-183.5 1306.7,-180 1296.7,-176.5 1296.7,-183.5"/>
</g>
<!-- 33 -->
<!-- name: &quot;X&quot;, typeName: &quot;&quot;, id: 33, branchId: 0, recurseId: &#45;1, attributes: 0, notes: &quot;&quot; -->
<g id="node34" class="node">
<title>33</title>
<ellipse fill="none" stroke="black" cx="1099.04" cy="-126" rx="27" ry="18"/>
<text xml:space="preserve" text-anchor="middle" x="1099.04" y="-120.95" font-family="Times New Roman,serif" font-size="14.00">X</text>
</g>
<!-- 32&#45;&gt;33 -->
<g id="edge33" class="edge">
<title>32&#45;&gt;33</title>
<path fill="none" stroke="black" d="M985.23,-107.17C1009.78,-111.27 1039.01,-116.15 1061.56,-119.91"/>
<polygon fill="black" stroke="black" points="1060.75,-123.32 1071.19,-121.52 1061.9,-116.42 1060.75,-123.32"/>
</g>
<!-- 35 -->
<!-- name: &quot;Y&quot;, typeName: &quot;&quot;, id: 35, branchId: 0, recurseId: &#45;1, attributes: 0, notes: &quot;&quot; -->
<g id="node36" class="node">
<title>35</title>
<ellipse fill="none" stroke="black" cx="1099.04" cy="-72" rx="27" ry="18"/>
<text xml:space="preserve" text-anchor="middle" x="1099.04" y="-66.95" font-family="Times New Roman,serif" font-size="14.00">Y</text>
</g>
<!-- 32&#45;&gt;35 -->
<g id="edge35" class="edge">
<title>32&#45;&gt;35</title>
<path fill="none" stroke="black" d="M985.23,-90.83C1009.78,-86.73 1039.01,-81.85 1061.56,-78.09"/>
<polygon fill="black" stroke="black" points="1061.9,-81.58 1071.19,-76.48 1060.75,-74.68 1061.9,-81.58"/>
</g>
<!-- 37 -->
<!-- name: &quot;Z&quot;, typeName: &quot;&quot;, id: 37, branchId: 0, recurseId: &#45;1, attributes: 0, notes: &quot;&quot; -->
<g id="node38" class="node">
<title>37</title>
<ellipse fill="none" stroke="black" cx="1099.04" cy="-18" rx="27" ry="18"/>
<text xml:space="preserve" text-anchor="middle" x="1099.04" y="-12.95" font-family="Times New Roman,serif" font-size="14.00">Z</text>
</g>
<!-- 32&#45;&gt;37 -->
<g id="edge37" class="edge">
<title>32&#45;&gt;37</title>
<path fill="none" stroke="black" d="M964.98,-83.48C985.59,-72.47 1014.08,-57.5 1039.5,-45 1047.9,-40.87 1057.06,-36.55 1065.59,-32.61"/>
<polygon fill="black" stroke="black" points="1066.94,-35.85 1074.58,-28.5 1064.03,-29.48 1066.94,-35.85"/>
</g>
<!-- 34 -->
<!-- name: &quot;float&quot;, typeName: &quot;&quot;, id: 34, branchId: 0, recurseId: &#45;1, attributes: 512, notes: &quot;&quot; -->
<g id="node35" class="node">
<title>34</title>
<ellipse fill="none" stroke="black" cx="1336.52" cy="-126" rx="27.81" ry="18"/>
<text xml:space="preserve" text-anchor="middle" x="1336.52" y="-120.95" font-family="Times New Roman,serif" font-size="14.00">float</text>
</g>
<!-- 33&#45;&gt;34 -->
<g id="edge34" class="edge">
<title>33&#45;&gt;34</title>
<path fill="none" stroke="black" d="M1126.14,-126C1167.53,-126 1248.48,-126 1296.7,-126"/>
<polygon fill="black" stroke="black" points="1296.7,-129.5 1306.7,-126 1296.7,-122.5 1296.7,-129.5"/>
</g>
<!-- 36 -->
<!-- name: &quot;float&quot;, typeName: &quot;&quot;, id: 36, branchId: 0, recurseId: &#45;1, attributes: 512, notes: &quot;&quot; -->
<g id="node37" class="node">
<title>36</title>
<ellipse fill="none" stroke="black" cx="1336.52" cy="-72" rx="27.81" ry="18"/>
<text xml:space="preserve" text-anchor="middle" x="1336.52" y="-66.95" font-family="Times New Roman,serif" font-size="14.00">float</text>
</g>
<!-- 35&#45;&gt;36 -->
<g id="edge36" class="edge">
<title>35&#45;&gt;36</title>
<path fill="none" stroke="black" d="M1126.14,-72C1167.53,-72 1248.48,-72 1296.7,-72"/>
<polygon fill="black" stroke="black" points="1296.7,-75.5 1306.7,-72 1296.7,-68.5 1296.7,-75.5"/>
</g>
<!-- 38 -->
<!-- name: &quot;float&quot;, typeName: &quot;&quot;, id: 38, branchId: 0, recurseId: &#45;1, attributes: 512, notes: &quot;&quot; -->
<g id="node39" class="node">
<title>38</title>
<ellipse fill="none" stroke="black" cx="1336.52" cy="-18" rx="27.81" ry="18"/>
<text xml:space="preserve" text-anchor="middle" x="1336.52" y="-12.95" font-family="Times New Roman,serif" font-size="14.00">float</text>
</g>
<!-- 37&#45;&gt;38 -->
<g id="edge38" class="edge">
<title>37&#45;&gt;38</title>
<path fill="none" stroke="black" d="M1126.14,-18C1167.53,-18 1248.48,-18 1296.7,-18"/>
<polygon fill="black" stroke="black" points="1296.7,-21.5 1306.7,-18 1296.7,-14.5 1296.7,-21.5"/>
</g>
</g>
</svg>
