<?xml version="1.0" encoding="UTF-8" standalone="no"?>
<!DOCTYPE svg PUBLIC "-//W3C//DTD SVG 1.1//EN"
 "http://www.w3.org/Graphics/SVG/1.1/DTD/svg11.dtd">
<!-- Generated by graphviz version 11.0.0 (20240428.1522)
 -->
<!-- Title: ItemStackResponseContainerInfo Pages: 1 -->
<svg width="1032pt" height="152pt"
 viewBox="0.00 0.00 1031.90 152.00" xmlns="http://www.w3.org/2000/svg" xmlns:xlink="http://www.w3.org/1999/xlink">
<g id="graph0" class="graph" transform="scale(1 1) rotate(0) translate(4 148)">
<title>ItemStackResponseContainerInfo</title>
<polygon fill="white" stroke="none" points="-4,4 -4,-148 1027.9,-148 1027.9,4 -4,4"/>
<!-- 20 -->
<!-- name: &quot;ItemStackResponseContainerInfo&quot;, typeName: &quot;&quot;, id: 20, branchId: 0, recurseId: &#45;1, attributes: 0, notes: &quot;&quot; -->
<g id="node1" class="node">
<title>20</title>
<ellipse fill="none" stroke="black" cx="136.39" cy="-95" rx="136.39" ry="18"/>
<text text-anchor="middle" x="136.39" y="-89.58" font-family="Times New Roman,serif" font-size="14.00">ItemStackResponseContainerInfo</text>
</g>
<!-- 21 -->
<!-- name: &quot;Full Container Name&quot;, typeName: &quot;FullContainerName&quot;, id: 21, branchId: 0, recurseId: &#45;1, attributes: 256, notes: &quot;&quot; -->
<g id="node2" class="node">
<title>21</title>
<ellipse fill="none" stroke="black" cx="670.04" cy="-124" rx="86.99" ry="18"/>
<text text-anchor="middle" x="670.04" y="-118.58" font-family="Times New Roman,serif" font-size="14.00">Full Container Name</text>
</g>
<!-- 20&#45;&gt;21 -->
<g id="edge1" class="edge">
<title>20&#45;&gt;21</title>
<path fill="none" stroke="black" d="M263.38,-101.87C358.6,-107.07 487.27,-114.08 573.95,-118.81"/>
<polygon fill="black" stroke="black" points="573.68,-122.3 583.85,-119.35 574.06,-115.31 573.68,-122.3"/>
</g>
<!-- 23 -->
<!-- name: &quot;Slots&quot;, typeName: &quot;&quot;, id: 23, branchId: 0, recurseId: &#45;1, attributes: 8, notes: &quot;&quot; -->
<g id="node4" class="node">
<title>23</title>
<ellipse fill="none" stroke="black" cx="338.39" cy="-72" rx="29.61" ry="18"/>
<text text-anchor="middle" x="338.39" y="-66.58" font-family="Times New Roman,serif" font-size="14.00">Slots</text>
</g>
<!-- 20&#45;&gt;23 -->
<g id="edge3" class="edge">
<title>20&#45;&gt;23</title>
<path fill="none" stroke="black" d="M240.91,-83.1C261.16,-80.77 281.21,-78.46 297.75,-76.56"/>
<polygon fill="black" stroke="black" points="298.08,-80.04 307.62,-75.42 297.28,-73.09 298.08,-80.04"/>
</g>
<!-- 22 -->
<!-- name: &quot;FullContainerName&quot;, typeName: &quot;&quot;, id: 22, branchId: 0, recurseId: &#45;1, attributes: 512, notes: &quot;&quot; -->
<g id="node3" class="node">
<title>22</title>
<ellipse fill="none" stroke="black" cx="908.46" cy="-126" rx="82" ry="18"/>
<text text-anchor="middle" x="908.46" y="-120.58" font-family="Times New Roman,serif" font-size="14.00">FullContainerName</text>
</g>
<!-- 21&#45;&gt;22 -->
<g id="edge2" class="edge">
<title>21&#45;&gt;22</title>
<path fill="none" stroke="black" d="M757.39,-124.73C776.05,-124.89 795.85,-125.06 814.74,-125.22"/>
<polygon fill="black" stroke="black" points="814.51,-128.71 824.54,-125.3 814.57,-121.71 814.51,-128.71"/>
</g>
<!-- 24 -->
<!-- name: &quot;List Size&quot;, typeName: &quot;&quot;, id: 24, branchId: 0, recurseId: &#45;1, attributes: 0, notes: &quot;&quot; -->
<g id="node5" class="node">
<title>24</title>
<ellipse fill="none" stroke="black" cx="475.52" cy="-72" rx="42.58" ry="18"/>
<text text-anchor="middle" x="475.52" y="-66.58" font-family="Times New Roman,serif" font-size="14.00">List Size</text>
</g>
<!-- 23&#45;&gt;24 -->
<g id="edge4" class="edge">
<title>23&#45;&gt;24</title>
<path fill="none" stroke="black" d="M368.38,-72C383.78,-72 403.21,-72 421.22,-72"/>
<polygon fill="black" stroke="black" points="420.99,-75.5 430.99,-72 420.99,-68.5 420.99,-75.5"/>
</g>
<!-- 26 -->
<!-- name: &quot;example element&quot;, typeName: &quot;&quot;, id: 26, branchId: 0, recurseId: &#45;1, attributes: 16, notes: &quot;&quot; -->
<g id="node7" class="node">
<title>26</title>
<ellipse fill="none" stroke="black" stroke-dasharray="1,5" cx="475.52" cy="-18" rx="71.52" ry="18"/>
<text text-anchor="middle" x="475.52" y="-12.57" font-family="Times New Roman,serif" font-size="14.00">example element</text>
</g>
<!-- 23&#45;&gt;26 -->
<g id="edge6" class="edge">
<title>23&#45;&gt;26</title>
<path fill="none" stroke="black" d="M363.25,-61.83C375.41,-56.69 390.46,-50.42 404,-45 410.47,-42.41 417.29,-39.73 424.04,-37.11"/>
<polygon fill="black" stroke="black" points="425.05,-40.48 433.12,-33.61 422.53,-33.95 425.05,-40.48"/>
</g>
<!-- 25 -->
<!-- name: &quot;unsigned varint&quot;, typeName: &quot;&quot;, id: 25, branchId: 0, recurseId: &#45;1, attributes: 512, notes: &quot;&quot; -->
<g id="node6" class="node">
<title>25</title>
<ellipse fill="none" stroke="black" cx="908.46" cy="-72" rx="66.53" ry="18"/>
<text text-anchor="middle" x="908.46" y="-66.58" font-family="Times New Roman,serif" font-size="14.00">unsigned varint</text>
</g>
<!-- 24&#45;&gt;25 -->
<g id="edge5" class="edge">
<title>24&#45;&gt;25</title>
<path fill="none" stroke="black" d="M518.23,-72C590.25,-72 738.93,-72 830.25,-72"/>
<polygon fill="black" stroke="black" points="830.13,-75.5 840.13,-72 830.13,-68.5 830.13,-75.5"/>
</g>
<!-- 27 -->
<!-- name: &quot;Slot Info&quot;, typeName: &quot;ItemStackResponseSlotInfo&quot;, id: 27, branchId: 0, recurseId: &#45;1, attributes: 256, notes: &quot;&quot; -->
<g id="node8" class="node">
<title>27</title>
<ellipse fill="none" stroke="black" cx="670.04" cy="-18" rx="43.58" ry="18"/>
<text text-anchor="middle" x="670.04" y="-12.57" font-family="Times New Roman,serif" font-size="14.00">Slot Info</text>
</g>
<!-- 26&#45;&gt;27 -->
<g id="edge7" class="edge">
<title>26&#45;&gt;27</title>
<path fill="none" stroke="black" d="M547.39,-18C569.64,-18 593.84,-18 614.76,-18"/>
<polygon fill="black" stroke="black" points="614.49,-21.5 624.49,-18 614.49,-14.5 614.49,-21.5"/>
</g>
<!-- 46 -->
<!-- name: &quot;ItemStackResponseSlotInfo&quot;, typeName: &quot;&quot;, id: 46, branchId: 0, recurseId: &#45;1, attributes: 512, notes: &quot;&quot; -->
<g id="node9" class="node">
<title>46</title>
<ellipse fill="none" stroke="black" cx="908.46" cy="-18" rx="115.43" ry="18"/>
<text text-anchor="middle" x="908.46" y="-12.57" font-family="Times New Roman,serif" font-size="14.00">ItemStackResponseSlotInfo</text>
</g>
<!-- 27&#45;&gt;46 -->
<g id="edge8" class="edge">
<title>27&#45;&gt;46</title>
<path fill="none" stroke="black" d="M713.85,-18C733.18,-18 757.12,-18 781.51,-18"/>
<polygon fill="black" stroke="black" points="781.22,-21.5 791.22,-18 781.22,-14.5 781.22,-21.5"/>
</g>
</g>
</svg>
