<?xml version="1.0" encoding="UTF-8" standalone="no"?>
<!DOCTYPE svg PUBLIC "-//W3C//DTD SVG 1.1//EN"
 "http://www.w3.org/Graphics/SVG/1.1/DTD/svg11.dtd">
<!-- Generated by graphviz version 12.2.0 (20241103.1931)
 -->
<!-- Title: ItemStackResponseContainerInfo Pages: 1 -->
<svg width="1040pt" height="152pt"
 viewBox="0.00 0.00 1040.16 152.00" xmlns="http://www.w3.org/2000/svg" xmlns:xlink="http://www.w3.org/1999/xlink">
<g id="graph0" class="graph" transform="scale(1 1) rotate(0) translate(4 148)">
<title>ItemStackResponseContainerInfo</title>
<polygon fill="white" stroke="none" points="-4,4 -4,-148 1036.16,-148 1036.16,4 -4,4"/>
<!-- 20 -->
<!-- name: &quot;ItemStackResponseContainerInfo&quot;, typeName: &quot;&quot;, id: 20, branchId: 0, recurseId: &#45;1, attributes: 0, notes: &quot;&quot; -->
<g id="node1" class="node">
<title>20</title>
<ellipse fill="none" stroke="black" cx="135.8" cy="-95" rx="135.8" ry="18"/>
<text text-anchor="middle" x="135.8" y="-89.95" font-family="Times New Roman,serif" font-size="14.00">ItemStackResponseContainerInfo</text>
</g>
<!-- 21 -->
<!-- name: &quot;Full Container Name&quot;, typeName: &quot;FullContainerName&quot;, id: 21, branchId: 0, recurseId: &#45;1, attributes: 256, notes: &quot;&quot; -->
<g id="node2" class="node">
<title>21</title>
<ellipse fill="none" stroke="black" cx="677.81" cy="-124" rx="89.74" ry="18"/>
<text text-anchor="middle" x="677.81" y="-118.95" font-family="Times New Roman,serif" font-size="14.00">Full Container Name</text>
</g>
<!-- 20&#45;&gt;21 -->
<g id="edge1" class="edge">
<title>20&#45;&gt;21</title>
<path fill="none" stroke="black" d="M262.39,-101.74C358.96,-106.93 490.47,-113.99 579.23,-118.76"/>
<polygon fill="black" stroke="black" points="578.96,-122.25 589.14,-119.29 579.34,-115.26 578.96,-122.25"/>
</g>
<!-- 23 -->
<!-- name: &quot;Slots&quot;, typeName: &quot;&quot;, id: 23, branchId: 0, recurseId: &#45;1, attributes: 8, notes: &quot;&quot; -->
<g id="node4" class="node">
<title>23</title>
<ellipse fill="none" stroke="black" cx="336.94" cy="-72" rx="29.34" ry="18"/>
<text text-anchor="middle" x="336.94" y="-66.95" font-family="Times New Roman,serif" font-size="14.00">Slots</text>
</g>
<!-- 20&#45;&gt;23 -->
<g id="edge3" class="edge">
<title>20&#45;&gt;23</title>
<path fill="none" stroke="black" d="M239.87,-83.1C260.03,-80.77 280,-78.46 296.47,-76.56"/>
<polygon fill="black" stroke="black" points="296.76,-80.05 306.29,-75.42 295.95,-73.1 296.76,-80.05"/>
</g>
<!-- 22 -->
<!-- name: &quot;FullContainerName&quot;, typeName: &quot;&quot;, id: 22, branchId: 0, recurseId: &#45;1, attributes: 512, notes: &quot;&quot; -->
<g id="node3" class="node">
<title>22</title>
<ellipse fill="none" stroke="black" cx="917.85" cy="-126" rx="84.62" ry="18"/>
<text text-anchor="middle" x="917.85" y="-120.95" font-family="Times New Roman,serif" font-size="14.00">FullContainerName</text>
</g>
<!-- 21&#45;&gt;22 -->
<g id="edge2" class="edge">
<title>21&#45;&gt;22</title>
<path fill="none" stroke="black" d="M767.79,-124.75C785.42,-124.9 804,-125.05 821.82,-125.2"/>
<polygon fill="black" stroke="black" points="821.56,-128.7 831.59,-125.28 821.62,-121.7 821.56,-128.7"/>
</g>
<!-- 24 -->
<!-- name: &quot;List Size&quot;, typeName: &quot;&quot;, id: 24, branchId: 0, recurseId: &#45;1, attributes: 0, notes: &quot;&quot; -->
<g id="node5" class="node">
<title>24</title>
<ellipse fill="none" stroke="black" cx="477.18" cy="-72" rx="43.67" ry="18"/>
<text text-anchor="middle" x="477.18" y="-66.95" font-family="Times New Roman,serif" font-size="14.00">List Size</text>
</g>
<!-- 23&#45;&gt;24 -->
<g id="edge4" class="edge">
<title>23&#45;&gt;24</title>
<path fill="none" stroke="black" d="M366.59,-72C382.5,-72 402.84,-72 421.66,-72"/>
<polygon fill="black" stroke="black" points="421.61,-75.5 431.61,-72 421.61,-68.5 421.61,-75.5"/>
</g>
<!-- 26 -->
<!-- name: &quot;example element&quot;, typeName: &quot;&quot;, id: 26, branchId: 0, recurseId: &#45;1, attributes: 16, notes: &quot;&quot; -->
<g id="node7" class="node">
<title>26</title>
<ellipse fill="none" stroke="black" stroke-dasharray="1,5" cx="477.18" cy="-18" rx="74.89" ry="18"/>
<text text-anchor="middle" x="477.18" y="-12.95" font-family="Times New Roman,serif" font-size="14.00">example element</text>
</g>
<!-- 23&#45;&gt;26 -->
<g id="edge6" class="edge">
<title>23&#45;&gt;26</title>
<path fill="none" stroke="black" d="M361.67,-61.73C373.77,-56.57 388.75,-50.31 402.29,-45 409.12,-42.32 416.34,-39.57 423.49,-36.91"/>
<polygon fill="black" stroke="black" points="424.26,-40.35 432.43,-33.6 421.84,-33.79 424.26,-40.35"/>
</g>
<!-- 25 -->
<!-- name: &quot;unsigned varint&quot;, typeName: &quot;&quot;, id: 25, branchId: 0, recurseId: &#45;1, attributes: 512, notes: &quot;&quot; -->
<g id="node6" class="node">
<title>25</title>
<ellipse fill="none" stroke="black" cx="917.85" cy="-72" rx="68.24" ry="18"/>
<text text-anchor="middle" x="917.85" y="-66.95" font-family="Times New Roman,serif" font-size="14.00">unsigned varint</text>
</g>
<!-- 24&#45;&gt;25 -->
<g id="edge5" class="edge">
<title>24&#45;&gt;25</title>
<path fill="none" stroke="black" d="M521.04,-72C594.41,-72 745.11,-72 837.93,-72"/>
<polygon fill="black" stroke="black" points="837.72,-75.5 847.72,-72 837.72,-68.5 837.72,-75.5"/>
</g>
<!-- 27 -->
<!-- name: &quot;Slot Info&quot;, typeName: &quot;ItemStackResponseSlotInfo&quot;, id: 27, branchId: 0, recurseId: &#45;1, attributes: 256, notes: &quot;&quot; -->
<g id="node8" class="node">
<title>27</title>
<ellipse fill="none" stroke="black" cx="677.81" cy="-18" rx="43.67" ry="18"/>
<text text-anchor="middle" x="677.81" y="-12.95" font-family="Times New Roman,serif" font-size="14.00">Slot Info</text>
</g>
<!-- 26&#45;&gt;27 -->
<g id="edge7" class="edge">
<title>26&#45;&gt;27</title>
<path fill="none" stroke="black" d="M552.43,-18C575.68,-18 600.91,-18 622.52,-18"/>
<polygon fill="black" stroke="black" points="622.28,-21.5 632.28,-18 622.28,-14.5 622.28,-21.5"/>
</g>
<!-- 46 -->
<!-- name: &quot;ItemStackResponseSlotInfo&quot;, typeName: &quot;&quot;, id: 46, branchId: 0, recurseId: &#45;1, attributes: 512, notes: &quot;&quot; -->
<g id="node9" class="node">
<title>46</title>
<ellipse fill="none" stroke="black" cx="917.85" cy="-18" rx="114.3" ry="18"/>
<text text-anchor="middle" x="917.85" y="-12.95" font-family="Times New Roman,serif" font-size="14.00">ItemStackResponseSlotInfo</text>
</g>
<!-- 27&#45;&gt;46 -->
<g id="edge8" class="edge">
<title>27&#45;&gt;46</title>
<path fill="none" stroke="black" d="M721.92,-18C741.88,-18 766.72,-18 791.92,-18"/>
<polygon fill="black" stroke="black" points="791.6,-21.5 801.6,-18 791.6,-14.5 791.6,-21.5"/>
</g>
</g>
</svg>
