<?xml version="1.0" encoding="UTF-8" standalone="no"?>
<!DOCTYPE svg PUBLIC "-//W3C//DTD SVG 1.1//EN"
 "http://www.w3.org/Graphics/SVG/1.1/DTD/svg11.dtd">
<!-- Generated by graphviz version 2.46.1 (20210213.1702)
 -->
<!-- Title: ItemData Pages: 1 -->
<svg width="404pt" height="152pt"
 viewBox="0.00 0.00 403.67 152.00" xmlns="http://www.w3.org/2000/svg" xmlns:xlink="http://www.w3.org/1999/xlink">
<g id="graph0" class="graph" transform="scale(1 1) rotate(0) translate(4 148)">
<title>ItemData</title>
<polygon fill="white" stroke="transparent" points="-4,4 -4,-148 399.67,-148 399.67,4 -4,4"/>
<!-- 172 -->
<!-- name: &quot;ItemData&quot;, typeName: &quot;&quot;, id: 172, branchId: 0, recurseId: &#45;1, attributes: 0, notes: &quot;&quot; -->
<g id="node1" class="node">
<title>172</title>
<ellipse fill="none" stroke="black" cx="43.55" cy="-72" rx="43.59" ry="18"/>
<text text-anchor="middle" x="43.55" y="-68.3" font-family="Times New Roman,serif" font-size="14.00">ItemData</text>
</g>
<!-- 173 -->
<!-- name: &quot;Item Name&quot;, typeName: &quot;&quot;, id: 173, branchId: 0, recurseId: &#45;1, attributes: 0, notes: &quot;&quot; -->
<g id="node2" class="node">
<title>173</title>
<ellipse fill="none" stroke="black" cx="210.83" cy="-126" rx="50.09" ry="18"/>
<text text-anchor="middle" x="210.83" y="-122.3" font-family="Times New Roman,serif" font-size="14.00">Item Name</text>
</g>
<!-- 172&#45;&gt;173 -->
<g id="edge1" class="edge">
<title>172&#45;&gt;173</title>
<path fill="none" stroke="black" d="M77.34,-83.51C91.4,-88.39 108.02,-94.06 123.09,-99 135.87,-103.18 149.76,-107.58 162.6,-111.57"/>
<polygon fill="black" stroke="black" points="161.6,-114.93 172.19,-114.54 163.67,-108.24 161.6,-114.93"/>
</g>
<!-- 175 -->
<!-- name: &quot;Item Id&quot;, typeName: &quot;&quot;, id: 175, branchId: 0, recurseId: &#45;1, attributes: 0, notes: &quot;Block id&#39;s &lt; 256 (can be negative); Item id&#39;s &gt; 257&quot; -->
<g id="node4" class="node">
<title>175</title>
<ellipse fill="none" stroke="black" cx="210.83" cy="-72" rx="37.09" ry="18"/>
<text text-anchor="middle" x="210.83" y="-68.3" font-family="Times New Roman,serif" font-size="14.00">Item Id</text>
</g>
<!-- 172&#45;&gt;175 -->
<g id="edge3" class="edge">
<title>172&#45;&gt;175</title>
<path fill="none" stroke="black" d="M87.11,-72C110.44,-72 139.39,-72 163.32,-72"/>
<polygon fill="black" stroke="black" points="163.57,-75.5 173.57,-72 163.57,-68.5 163.57,-75.5"/>
</g>
<!-- 177 -->
<!-- name: &quot;Is Component Based&quot;, typeName: &quot;&quot;, id: 177, branchId: 0, recurseId: &#45;1, attributes: 0, notes: &quot;&quot; -->
<g id="node6" class="node">
<title>177</title>
<ellipse fill="none" stroke="black" cx="210.83" cy="-18" rx="87.99" ry="18"/>
<text text-anchor="middle" x="210.83" y="-14.3" font-family="Times New Roman,serif" font-size="14.00">Is Component Based</text>
</g>
<!-- 172&#45;&gt;177 -->
<g id="edge5" class="edge">
<title>172&#45;&gt;177</title>
<path fill="none" stroke="black" d="M77.34,-60.49C91.4,-55.61 108.02,-49.94 123.09,-45 132.21,-42.01 141.9,-38.92 151.37,-35.94"/>
<polygon fill="black" stroke="black" points="152.63,-39.21 161.12,-32.89 150.54,-32.53 152.63,-39.21"/>
</g>
<!-- 174 -->
<!-- name: &quot;string&quot;, typeName: &quot;&quot;, id: 174, branchId: 0, recurseId: &#45;1, attributes: 512, notes: &quot;&quot; -->
<g id="node3" class="node">
<title>174</title>
<ellipse fill="none" stroke="black" cx="365.12" cy="-126" rx="30.59" ry="18"/>
<text text-anchor="middle" x="365.12" y="-122.3" font-family="Times New Roman,serif" font-size="14.00">string</text>
</g>
<!-- 173&#45;&gt;174 -->
<g id="edge2" class="edge">
<title>173&#45;&gt;174</title>
<path fill="none" stroke="black" d="M261.28,-126C281.65,-126 304.94,-126 324.2,-126"/>
<polygon fill="black" stroke="black" points="324.44,-129.5 334.44,-126 324.44,-122.5 324.44,-129.5"/>
</g>
<!-- 176 -->
<!-- name: &quot;short&quot;, typeName: &quot;&quot;, id: 176, branchId: 0, recurseId: &#45;1, attributes: 512, notes: &quot;&quot; -->
<g id="node5" class="node">
<title>176</title>
<ellipse fill="none" stroke="black" cx="365.12" cy="-72" rx="29.5" ry="18"/>
<text text-anchor="middle" x="365.12" y="-68.3" font-family="Times New Roman,serif" font-size="14.00">short</text>
</g>
<!-- 175&#45;&gt;176 -->
<g id="edge4" class="edge">
<title>175&#45;&gt;176</title>
<path fill="none" stroke="black" d="M247.92,-72C271.22,-72 301.5,-72 325.31,-72"/>
<polygon fill="black" stroke="black" points="325.41,-75.5 335.41,-72 325.41,-68.5 325.41,-75.5"/>
</g>
<!-- 178 -->
<!-- name: &quot;bool&quot;, typeName: &quot;&quot;, id: 178, branchId: 0, recurseId: &#45;1, attributes: 512, notes: &quot;&quot; -->
<g id="node7" class="node">
<title>178</title>
<ellipse fill="none" stroke="black" cx="365.12" cy="-18" rx="27.1" ry="18"/>
<text text-anchor="middle" x="365.12" y="-14.3" font-family="Times New Roman,serif" font-size="14.00">bool</text>
</g>
<!-- 177&#45;&gt;178 -->
<g id="edge6" class="edge">
<title>177&#45;&gt;178</title>
<path fill="none" stroke="black" d="M298.66,-18C308.72,-18 318.54,-18 327.37,-18"/>
<polygon fill="black" stroke="black" points="327.62,-21.5 337.62,-18 327.62,-14.5 327.62,-21.5"/>
</g>
</g>
</svg>
