<?xml version="1.0" encoding="UTF-8" standalone="no"?>
<!DOCTYPE svg PUBLIC "-//W3C//DTD SVG 1.1//EN"
 "http://www.w3.org/Graphics/SVG/1.1/DTD/svg11.dtd">
<!-- Generated by graphviz version 10.0.1 (20240210.2158)
 -->
<!-- Title: ItemEnchants Pages: 1 -->
<svg width="965pt" height="530pt"
 viewBox="0.00 0.00 965.03 530.00" xmlns="http://www.w3.org/2000/svg" xmlns:xlink="http://www.w3.org/1999/xlink">
<g id="graph0" class="graph" transform="scale(1 1) rotate(0) translate(4 526)">
<title>ItemEnchants</title>
<polygon fill="white" stroke="none" points="-4,4 -4,-526 961.03,-526 961.03,4 -4,4"/>
<!-- 8 -->
<!-- name: &quot;ItemEnchants&quot;, typeName: &quot;&quot;, id: 8, branchId: 0, recurseId: &#45;1, attributes: 0, notes: &quot;&quot; -->
<g id="node1" class="node">
<title>8</title>
<ellipse fill="none" stroke="black" cx="61.04" cy="-315" rx="61.04" ry="18"/>
<text text-anchor="middle" x="61.04" y="-309.57" font-family="Times New Roman,serif" font-size="14.00">ItemEnchants</text>
</g>
<!-- 9 -->
<!-- name: &quot;Slot&quot;, typeName: &quot;&quot;, id: 9, branchId: 0, recurseId: &#45;1, attributes: 0, notes: &quot;&quot; -->
<g id="node2" class="node">
<title>9</title>
<ellipse fill="none" stroke="black" cx="302.46" cy="-463" rx="27" ry="18"/>
<text text-anchor="middle" x="302.46" y="-457.57" font-family="Times New Roman,serif" font-size="14.00">Slot</text>
</g>
<!-- 8&#45;&gt;9 -->
<g id="edge1" class="edge">
<title>8&#45;&gt;9</title>
<path fill="none" stroke="black" d="M79.68,-332.37C98.14,-349.92 128.5,-377.08 158.09,-396 193.65,-418.74 238.17,-438.32 268.08,-450.34"/>
<polygon fill="black" stroke="black" points="266.4,-453.44 276.99,-453.86 268.98,-446.93 266.4,-453.44"/>
</g>
<!-- 11 -->
<!-- name: &quot;Item Enchants For Given Activation&quot;, typeName: &quot;&quot;, id: 11, branchId: 0, recurseId: &#45;1, attributes: 8, notes: &quot;&quot; -->
<g id="node4" class="node">
<title>11</title>
<ellipse fill="none" stroke="black" cx="302.46" cy="-369" rx="144.38" ry="18"/>
<text text-anchor="middle" x="302.46" y="-363.57" font-family="Times New Roman,serif" font-size="14.00">Item Enchants For Given Activation</text>
</g>
<!-- 8&#45;&gt;11 -->
<g id="edge3" class="edge">
<title>8&#45;&gt;11</title>
<path fill="none" stroke="black" d="M110.49,-325.93C141.7,-332.97 183.06,-342.29 219.31,-350.47"/>
<polygon fill="black" stroke="black" points="218.38,-353.85 228.9,-352.63 219.92,-347.02 218.38,-353.85"/>
</g>
<!-- 19 -->
<!-- name: &quot;Item Enchants For Given Activation&quot;, typeName: &quot;&quot;, id: 19, branchId: 0, recurseId: &#45;1, attributes: 8, notes: &quot;&quot; -->
<g id="node12" class="node">
<title>19</title>
<ellipse fill="none" stroke="black" cx="302.46" cy="-288" rx="144.38" ry="18"/>
<text text-anchor="middle" x="302.46" y="-282.57" font-family="Times New Roman,serif" font-size="14.00">Item Enchants For Given Activation</text>
</g>
<!-- 8&#45;&gt;19 -->
<g id="edge11" class="edge">
<title>8&#45;&gt;19</title>
<path fill="none" stroke="black" d="M118.78,-308.6C137.95,-306.44 160.12,-303.94 182.27,-301.44"/>
<polygon fill="black" stroke="black" points="182.43,-304.95 191.98,-300.35 181.65,-297.99 182.43,-304.95"/>
</g>
<!-- 27 -->
<!-- name: &quot;Item Enchants For Given Activation&quot;, typeName: &quot;&quot;, id: 27, branchId: 0, recurseId: &#45;1, attributes: 8, notes: &quot;&quot; -->
<g id="node20" class="node">
<title>27</title>
<ellipse fill="none" stroke="black" cx="302.46" cy="-126" rx="144.38" ry="18"/>
<text text-anchor="middle" x="302.46" y="-120.58" font-family="Times New Roman,serif" font-size="14.00">Item Enchants For Given Activation</text>
</g>
<!-- 8&#45;&gt;27 -->
<g id="edge19" class="edge">
<title>8&#45;&gt;27</title>
<path fill="none" stroke="black" d="M83.71,-297.89C126.1,-264.43 220.17,-190.18 269.64,-151.12"/>
<polygon fill="black" stroke="black" points="271.75,-153.91 277.43,-144.97 267.42,-148.42 271.75,-153.91"/>
</g>
<!-- 10 -->
<!-- name: &quot;int&quot;, typeName: &quot;&quot;, id: 10, branchId: 0, recurseId: &#45;1, attributes: 512, notes: &quot;&quot; -->
<g id="node3" class="node">
<title>10</title>
<ellipse fill="none" stroke="black" cx="890.5" cy="-504" rx="27" ry="18"/>
<text text-anchor="middle" x="890.5" y="-498.57" font-family="Times New Roman,serif" font-size="14.00">int</text>
</g>
<!-- 9&#45;&gt;10 -->
<g id="edge2" class="edge">
<title>9&#45;&gt;10</title>
<path fill="none" stroke="black" d="M329.78,-464.84C423.59,-471.4 741.87,-493.67 851.79,-501.36"/>
<polygon fill="black" stroke="black" points="851.52,-504.85 861.74,-502.06 852.01,-497.87 851.52,-504.85"/>
</g>
<!-- 12 -->
<!-- name: &quot;Array Size&quot;, typeName: &quot;&quot;, id: 12, branchId: 0, recurseId: &#45;1, attributes: 0, notes: &quot;&quot; -->
<g id="node5" class="node">
<title>12</title>
<ellipse fill="none" stroke="black" cx="554.36" cy="-437" rx="49.57" ry="18"/>
<text text-anchor="middle" x="554.36" y="-431.57" font-family="Times New Roman,serif" font-size="14.00">Array Size</text>
</g>
<!-- 11&#45;&gt;12 -->
<g id="edge4" class="edge">
<title>11&#45;&gt;12</title>
<path fill="none" stroke="black" d="M364.6,-385.63C407.03,-397.18 462.9,-412.38 502.82,-423.25"/>
<polygon fill="black" stroke="black" points="501.86,-426.61 512.43,-425.86 503.7,-419.86 501.86,-426.61"/>
</g>
<!-- 14 -->
<!-- name: &quot;example element&quot;, typeName: &quot;&quot;, id: 14, branchId: 0, recurseId: &#45;1, attributes: 16, notes: &quot;&quot; -->
<g id="node7" class="node">
<title>14</title>
<ellipse fill="none" stroke="black" stroke-dasharray="1,5" cx="554.36" cy="-369" rx="71.52" ry="18"/>
<text text-anchor="middle" x="554.36" y="-363.57" font-family="Times New Roman,serif" font-size="14.00">example element</text>
</g>
<!-- 11&#45;&gt;14 -->
<g id="edge6" class="edge">
<title>11&#45;&gt;14</title>
<path fill="none" stroke="black" d="M447.02,-369C455.21,-369 463.28,-369 471.11,-369"/>
<polygon fill="black" stroke="black" points="470.85,-372.5 480.85,-369 470.85,-365.5 470.85,-372.5"/>
</g>
<!-- 13 -->
<!-- name: &quot;unsigned varint&quot;, typeName: &quot;&quot;, id: 13, branchId: 0, recurseId: &#45;1, attributes: 512, notes: &quot;&quot; -->
<g id="node6" class="node">
<title>13</title>
<ellipse fill="none" stroke="black" cx="890.5" cy="-450" rx="66.53" ry="18"/>
<text text-anchor="middle" x="890.5" y="-444.57" font-family="Times New Roman,serif" font-size="14.00">unsigned varint</text>
</g>
<!-- 12&#45;&gt;13 -->
<g id="edge5" class="edge">
<title>12&#45;&gt;13</title>
<path fill="none" stroke="black" d="M603.95,-438.89C658.76,-441.02 748.62,-444.52 812.9,-447.02"/>
<polygon fill="black" stroke="black" points="812.55,-450.51 822.68,-447.4 812.82,-443.51 812.55,-450.51"/>
</g>
<!-- 15 -->
<!-- name: &quot;Enchant Type&quot;, typeName: &quot;&quot;, id: 15, branchId: 0, recurseId: &#45;1, attributes: 0, notes: &quot;&quot; -->
<g id="node8" class="node">
<title>15</title>
<ellipse fill="none" stroke="black" cx="724.92" cy="-396" rx="62.54" ry="18"/>
<text text-anchor="middle" x="724.92" y="-390.57" font-family="Times New Roman,serif" font-size="14.00">Enchant Type</text>
</g>
<!-- 14&#45;&gt;15 -->
<g id="edge7" class="edge">
<title>14&#45;&gt;15</title>
<path fill="none" stroke="black" d="M615.74,-378.67C629.61,-380.89 644.41,-383.26 658.48,-385.52"/>
<polygon fill="black" stroke="black" points="657.65,-388.93 668.08,-387.05 658.76,-382.02 657.65,-388.93"/>
</g>
<!-- 17 -->
<!-- name: &quot;Enchant Level&quot;, typeName: &quot;&quot;, id: 17, branchId: 0, recurseId: &#45;1, attributes: 0, notes: &quot;&quot; -->
<g id="node10" class="node">
<title>17</title>
<ellipse fill="none" stroke="black" cx="724.92" cy="-342" rx="63.04" ry="18"/>
<text text-anchor="middle" x="724.92" y="-336.57" font-family="Times New Roman,serif" font-size="14.00">Enchant Level</text>
</g>
<!-- 14&#45;&gt;17 -->
<g id="edge9" class="edge">
<title>14&#45;&gt;17</title>
<path fill="none" stroke="black" d="M615.74,-359.33C629.53,-357.12 644.25,-354.76 658.25,-352.52"/>
<polygon fill="black" stroke="black" points="658.48,-356.03 667.8,-350.99 657.37,-349.12 658.48,-356.03"/>
</g>
<!-- 16 -->
<!-- name: &quot;byte&quot;, typeName: &quot;&quot;, id: 16, branchId: 0, recurseId: &#45;1, attributes: 512, notes: &quot;&quot; -->
<g id="node9" class="node">
<title>16</title>
<ellipse fill="none" stroke="black" cx="890.5" cy="-396" rx="27" ry="18"/>
<text text-anchor="middle" x="890.5" y="-390.57" font-family="Times New Roman,serif" font-size="14.00">byte</text>
</g>
<!-- 15&#45;&gt;16 -->
<g id="edge8" class="edge">
<title>15&#45;&gt;16</title>
<path fill="none" stroke="black" d="M787.76,-396C809.24,-396 832.67,-396 851.63,-396"/>
<polygon fill="black" stroke="black" points="851.57,-399.5 861.57,-396 851.57,-392.5 851.57,-399.5"/>
</g>
<!-- 18 -->
<!-- name: &quot;byte&quot;, typeName: &quot;&quot;, id: 18, branchId: 0, recurseId: &#45;1, attributes: 512, notes: &quot;&quot; -->
<g id="node11" class="node">
<title>18</title>
<ellipse fill="none" stroke="black" cx="890.5" cy="-342" rx="27" ry="18"/>
<text text-anchor="middle" x="890.5" y="-336.57" font-family="Times New Roman,serif" font-size="14.00">byte</text>
</g>
<!-- 17&#45;&gt;18 -->
<g id="edge10" class="edge">
<title>17&#45;&gt;18</title>
<path fill="none" stroke="black" d="M788.23,-342C809.66,-342 832.99,-342 851.85,-342"/>
<polygon fill="black" stroke="black" points="851.73,-345.5 861.73,-342 851.73,-338.5 851.73,-345.5"/>
</g>
<!-- 20 -->
<!-- name: &quot;Array Size&quot;, typeName: &quot;&quot;, id: 20, branchId: 0, recurseId: &#45;1, attributes: 0, notes: &quot;&quot; -->
<g id="node13" class="node">
<title>20</title>
<ellipse fill="none" stroke="black" cx="554.36" cy="-288" rx="49.57" ry="18"/>
<text text-anchor="middle" x="554.36" y="-282.57" font-family="Times New Roman,serif" font-size="14.00">Array Size</text>
</g>
<!-- 19&#45;&gt;20 -->
<g id="edge12" class="edge">
<title>19&#45;&gt;20</title>
<path fill="none" stroke="black" d="M447.02,-288C463.08,-288 478.72,-288 492.85,-288"/>
<polygon fill="black" stroke="black" points="492.83,-291.5 502.83,-288 492.83,-284.5 492.83,-291.5"/>
</g>
<!-- 22 -->
<!-- name: &quot;example element&quot;, typeName: &quot;&quot;, id: 22, branchId: 0, recurseId: &#45;1, attributes: 16, notes: &quot;&quot; -->
<g id="node15" class="node">
<title>22</title>
<ellipse fill="none" stroke="black" stroke-dasharray="1,5" cx="554.36" cy="-234" rx="71.52" ry="18"/>
<text text-anchor="middle" x="554.36" y="-228.57" font-family="Times New Roman,serif" font-size="14.00">example element</text>
</g>
<!-- 19&#45;&gt;22 -->
<g id="edge14" class="edge">
<title>19&#45;&gt;22</title>
<path fill="none" stroke="black" d="M376.75,-272.16C411.95,-264.56 453.78,-255.52 487.89,-248.15"/>
<polygon fill="black" stroke="black" points="488.63,-251.57 497.67,-246.03 487.15,-244.73 488.63,-251.57"/>
</g>
<!-- 21 -->
<!-- name: &quot;unsigned varint&quot;, typeName: &quot;&quot;, id: 21, branchId: 0, recurseId: &#45;1, attributes: 512, notes: &quot;&quot; -->
<g id="node14" class="node">
<title>21</title>
<ellipse fill="none" stroke="black" cx="890.5" cy="-288" rx="66.53" ry="18"/>
<text text-anchor="middle" x="890.5" y="-282.57" font-family="Times New Roman,serif" font-size="14.00">unsigned varint</text>
</g>
<!-- 20&#45;&gt;21 -->
<g id="edge13" class="edge">
<title>20&#45;&gt;21</title>
<path fill="none" stroke="black" d="M604.31,-288C659.03,-288 748.36,-288 812.47,-288"/>
<polygon fill="black" stroke="black" points="812.22,-291.5 822.22,-288 812.22,-284.5 812.22,-291.5"/>
</g>
<!-- 23 -->
<!-- name: &quot;Enchant Type&quot;, typeName: &quot;&quot;, id: 23, branchId: 0, recurseId: &#45;1, attributes: 0, notes: &quot;&quot; -->
<g id="node16" class="node">
<title>23</title>
<ellipse fill="none" stroke="black" cx="724.92" cy="-234" rx="62.54" ry="18"/>
<text text-anchor="middle" x="724.92" y="-228.57" font-family="Times New Roman,serif" font-size="14.00">Enchant Type</text>
</g>
<!-- 22&#45;&gt;23 -->
<g id="edge15" class="edge">
<title>22&#45;&gt;23</title>
<path fill="none" stroke="black" d="M626.36,-234C634.43,-234 642.67,-234 650.77,-234"/>
<polygon fill="black" stroke="black" points="650.58,-237.5 660.58,-234 650.58,-230.5 650.58,-237.5"/>
</g>
<!-- 25 -->
<!-- name: &quot;Enchant Level&quot;, typeName: &quot;&quot;, id: 25, branchId: 0, recurseId: &#45;1, attributes: 0, notes: &quot;&quot; -->
<g id="node18" class="node">
<title>25</title>
<ellipse fill="none" stroke="black" cx="724.92" cy="-180" rx="63.04" ry="18"/>
<text text-anchor="middle" x="724.92" y="-174.57" font-family="Times New Roman,serif" font-size="14.00">Enchant Level</text>
</g>
<!-- 22&#45;&gt;25 -->
<g id="edge17" class="edge">
<title>22&#45;&gt;25</title>
<path fill="none" stroke="black" d="M599.65,-219.81C621.45,-212.83 647.88,-204.36 670.76,-197.03"/>
<polygon fill="black" stroke="black" points="671.78,-200.38 680.23,-194 669.64,-193.71 671.78,-200.38"/>
</g>
<!-- 24 -->
<!-- name: &quot;byte&quot;, typeName: &quot;&quot;, id: 24, branchId: 0, recurseId: &#45;1, attributes: 512, notes: &quot;&quot; -->
<g id="node17" class="node">
<title>24</title>
<ellipse fill="none" stroke="black" cx="890.5" cy="-234" rx="27" ry="18"/>
<text text-anchor="middle" x="890.5" y="-228.57" font-family="Times New Roman,serif" font-size="14.00">byte</text>
</g>
<!-- 23&#45;&gt;24 -->
<g id="edge16" class="edge">
<title>23&#45;&gt;24</title>
<path fill="none" stroke="black" d="M787.76,-234C809.24,-234 832.67,-234 851.63,-234"/>
<polygon fill="black" stroke="black" points="851.57,-237.5 861.57,-234 851.57,-230.5 851.57,-237.5"/>
</g>
<!-- 26 -->
<!-- name: &quot;byte&quot;, typeName: &quot;&quot;, id: 26, branchId: 0, recurseId: &#45;1, attributes: 512, notes: &quot;&quot; -->
<g id="node19" class="node">
<title>26</title>
<ellipse fill="none" stroke="black" cx="890.5" cy="-180" rx="27" ry="18"/>
<text text-anchor="middle" x="890.5" y="-174.57" font-family="Times New Roman,serif" font-size="14.00">byte</text>
</g>
<!-- 25&#45;&gt;26 -->
<g id="edge18" class="edge">
<title>25&#45;&gt;26</title>
<path fill="none" stroke="black" d="M788.23,-180C809.66,-180 832.99,-180 851.85,-180"/>
<polygon fill="black" stroke="black" points="851.73,-183.5 861.73,-180 851.73,-176.5 851.73,-183.5"/>
</g>
<!-- 28 -->
<!-- name: &quot;Array Size&quot;, typeName: &quot;&quot;, id: 28, branchId: 0, recurseId: &#45;1, attributes: 0, notes: &quot;&quot; -->
<g id="node21" class="node">
<title>28</title>
<ellipse fill="none" stroke="black" cx="554.36" cy="-126" rx="49.57" ry="18"/>
<text text-anchor="middle" x="554.36" y="-120.58" font-family="Times New Roman,serif" font-size="14.00">Array Size</text>
</g>
<!-- 27&#45;&gt;28 -->
<g id="edge20" class="edge">
<title>27&#45;&gt;28</title>
<path fill="none" stroke="black" d="M447.02,-126C463.08,-126 478.72,-126 492.85,-126"/>
<polygon fill="black" stroke="black" points="492.83,-129.5 502.83,-126 492.83,-122.5 492.83,-129.5"/>
</g>
<!-- 30 -->
<!-- name: &quot;example element&quot;, typeName: &quot;&quot;, id: 30, branchId: 0, recurseId: &#45;1, attributes: 16, notes: &quot;&quot; -->
<g id="node23" class="node">
<title>30</title>
<ellipse fill="none" stroke="black" stroke-dasharray="1,5" cx="554.36" cy="-72" rx="71.52" ry="18"/>
<text text-anchor="middle" x="554.36" y="-66.58" font-family="Times New Roman,serif" font-size="14.00">example element</text>
</g>
<!-- 27&#45;&gt;30 -->
<g id="edge22" class="edge">
<title>27&#45;&gt;30</title>
<path fill="none" stroke="black" d="M376.75,-110.16C411.95,-102.56 453.78,-93.52 487.89,-86.15"/>
<polygon fill="black" stroke="black" points="488.63,-89.57 497.67,-84.03 487.15,-82.73 488.63,-89.57"/>
</g>
<!-- 29 -->
<!-- name: &quot;unsigned varint&quot;, typeName: &quot;&quot;, id: 29, branchId: 0, recurseId: &#45;1, attributes: 512, notes: &quot;&quot; -->
<g id="node22" class="node">
<title>29</title>
<ellipse fill="none" stroke="black" cx="890.5" cy="-126" rx="66.53" ry="18"/>
<text text-anchor="middle" x="890.5" y="-120.58" font-family="Times New Roman,serif" font-size="14.00">unsigned varint</text>
</g>
<!-- 28&#45;&gt;29 -->
<g id="edge21" class="edge">
<title>28&#45;&gt;29</title>
<path fill="none" stroke="black" d="M604.31,-126C659.03,-126 748.36,-126 812.47,-126"/>
<polygon fill="black" stroke="black" points="812.22,-129.5 822.22,-126 812.22,-122.5 812.22,-129.5"/>
</g>
<!-- 31 -->
<!-- name: &quot;Enchant Type&quot;, typeName: &quot;&quot;, id: 31, branchId: 0, recurseId: &#45;1, attributes: 0, notes: &quot;&quot; -->
<g id="node24" class="node">
<title>31</title>
<ellipse fill="none" stroke="black" cx="724.92" cy="-72" rx="62.54" ry="18"/>
<text text-anchor="middle" x="724.92" y="-66.58" font-family="Times New Roman,serif" font-size="14.00">Enchant Type</text>
</g>
<!-- 30&#45;&gt;31 -->
<g id="edge23" class="edge">
<title>30&#45;&gt;31</title>
<path fill="none" stroke="black" d="M626.36,-72C634.43,-72 642.67,-72 650.77,-72"/>
<polygon fill="black" stroke="black" points="650.58,-75.5 660.58,-72 650.58,-68.5 650.58,-75.5"/>
</g>
<!-- 33 -->
<!-- name: &quot;Enchant Level&quot;, typeName: &quot;&quot;, id: 33, branchId: 0, recurseId: &#45;1, attributes: 0, notes: &quot;&quot; -->
<g id="node26" class="node">
<title>33</title>
<ellipse fill="none" stroke="black" cx="724.92" cy="-18" rx="63.04" ry="18"/>
<text text-anchor="middle" x="724.92" y="-12.57" font-family="Times New Roman,serif" font-size="14.00">Enchant Level</text>
</g>
<!-- 30&#45;&gt;33 -->
<g id="edge25" class="edge">
<title>30&#45;&gt;33</title>
<path fill="none" stroke="black" d="M599.65,-57.81C621.45,-50.83 647.88,-42.36 670.76,-35.03"/>
<polygon fill="black" stroke="black" points="671.78,-38.38 680.23,-32 669.64,-31.71 671.78,-38.38"/>
</g>
<!-- 32 -->
<!-- name: &quot;byte&quot;, typeName: &quot;&quot;, id: 32, branchId: 0, recurseId: &#45;1, attributes: 512, notes: &quot;&quot; -->
<g id="node25" class="node">
<title>32</title>
<ellipse fill="none" stroke="black" cx="890.5" cy="-72" rx="27" ry="18"/>
<text text-anchor="middle" x="890.5" y="-66.58" font-family="Times New Roman,serif" font-size="14.00">byte</text>
</g>
<!-- 31&#45;&gt;32 -->
<g id="edge24" class="edge">
<title>31&#45;&gt;32</title>
<path fill="none" stroke="black" d="M787.76,-72C809.24,-72 832.67,-72 851.63,-72"/>
<polygon fill="black" stroke="black" points="851.57,-75.5 861.57,-72 851.57,-68.5 851.57,-75.5"/>
</g>
<!-- 34 -->
<!-- name: &quot;byte&quot;, typeName: &quot;&quot;, id: 34, branchId: 0, recurseId: &#45;1, attributes: 512, notes: &quot;&quot; -->
<g id="node27" class="node">
<title>34</title>
<ellipse fill="none" stroke="black" cx="890.5" cy="-18" rx="27" ry="18"/>
<text text-anchor="middle" x="890.5" y="-12.57" font-family="Times New Roman,serif" font-size="14.00">byte</text>
</g>
<!-- 33&#45;&gt;34 -->
<g id="edge26" class="edge">
<title>33&#45;&gt;34</title>
<path fill="none" stroke="black" d="M788.23,-18C809.66,-18 832.99,-18 851.85,-18"/>
<polygon fill="black" stroke="black" points="851.73,-21.5 861.73,-18 851.73,-14.5 851.73,-21.5"/>
</g>
</g>
</svg>
