<?xml version="1.0" encoding="UTF-8" standalone="no"?>
<!DOCTYPE svg PUBLIC "-//W3C//DTD SVG 1.1//EN"
 "http://www.w3.org/Graphics/SVG/1.1/DTD/svg11.dtd">
<!-- Generated by graphviz version 13.1.2 (20250808.2320)
 -->
<!-- Title: LabTablePacket Pages: 1 -->
<svg width="692pt" height="260pt"
 viewBox="0.00 0.00 692.00 260.00" xmlns="http://www.w3.org/2000/svg" xmlns:xlink="http://www.w3.org/1999/xlink">
<g id="graph0" class="graph" transform="scale(1 1) rotate(0) translate(4 256)">
<title>LabTablePacket</title>
<polygon fill="white" stroke="none" points="-4,4 -4,-256 688.04,-256 688.04,4 -4,4"/>
<!-- 0 -->
<!-- name: &quot;LabTablePacket&quot;, typeName: &quot;&quot;, id: 0, branchId: 0, recurseId: &#45;1, attributes: 0, notes: &quot;For the EDU Chemistry Lab Table block actor.&quot; -->
<g id="node1" class="node">
<title>0</title>
<ellipse fill="none" stroke="black" cx="70.29" cy="-126" rx="70.29" ry="18"/>
<text xml:space="preserve" text-anchor="middle" x="70.29" y="-120.95" font-family="Times New Roman,serif" font-size="14.00">LabTablePacket</text>
</g>
<!-- 1 -->
<!-- name: &quot;Type&quot;, typeName: &quot;&quot;, id: 1, branchId: 0, recurseId: &#45;1, attributes: 0, notes: &quot;&quot; -->
<g id="node2" class="node">
<title>1</title>
<ellipse fill="none" stroke="black" cx="220.25" cy="-207" rx="29.34" ry="18"/>
<text xml:space="preserve" text-anchor="middle" x="220.25" y="-201.95" font-family="Times New Roman,serif" font-size="14.00">Type</text>
</g>
<!-- 0&#45;&gt;1 -->
<g id="edge1" class="edge">
<title>0&#45;&gt;1</title>
<path fill="none" stroke="black" d="M101.59,-142.59C126.7,-156.34 162.29,-175.82 187.73,-189.75"/>
<polygon fill="black" stroke="black" points="185.84,-192.7 196.29,-194.43 189.2,-186.56 185.84,-192.7"/>
</g>
<!-- 3 -->
<!-- name: &quot;Position&quot;, typeName: &quot;&quot;, id: 3, branchId: 0, recurseId: &#45;1, attributes: 0, notes: &quot;&quot; -->
<g id="node4" class="node">
<title>3</title>
<ellipse fill="none" stroke="black" cx="220.25" cy="-126" rx="41.12" ry="18"/>
<text xml:space="preserve" text-anchor="middle" x="220.25" y="-120.95" font-family="Times New Roman,serif" font-size="14.00">Position</text>
</g>
<!-- 0&#45;&gt;3 -->
<g id="edge3" class="edge">
<title>0&#45;&gt;3</title>
<path fill="none" stroke="black" d="M140.94,-126C149.9,-126 158.96,-126 167.56,-126"/>
<polygon fill="black" stroke="black" points="167.46,-129.5 177.46,-126 167.46,-122.5 167.46,-129.5"/>
</g>
<!-- 10 -->
<!-- name: &quot;Reaction&quot;, typeName: &quot;&quot;, id: 10, branchId: 0, recurseId: &#45;1, attributes: 0, notes: &quot;&quot; -->
<g id="node11" class="node">
<title>10</title>
<ellipse fill="none" stroke="black" cx="220.25" cy="-45" rx="43.67" ry="18"/>
<text xml:space="preserve" text-anchor="middle" x="220.25" y="-39.95" font-family="Times New Roman,serif" font-size="14.00">Reaction</text>
</g>
<!-- 0&#45;&gt;10 -->
<g id="edge10" class="edge">
<title>0&#45;&gt;10</title>
<path fill="none" stroke="black" d="M101.59,-109.41C125.22,-96.48 158.11,-78.47 183.11,-64.78"/>
<polygon fill="black" stroke="black" points="184.54,-67.99 191.63,-60.12 181.17,-61.85 184.54,-67.99"/>
</g>
<!-- 2 -->
<!-- name: &quot;enum LabTablePacketPayload::Type&quot;, typeName: &quot;&quot;, id: 2, branchId: 0, recurseId: &#45;1, attributes: 512, notes: &quot;&quot; -->
<g id="node3" class="node">
<title>2</title>
<ellipse fill="none" stroke="black" cx="536.98" cy="-234" rx="147.06" ry="18"/>
<text xml:space="preserve" text-anchor="middle" x="536.98" y="-228.95" font-family="Times New Roman,serif" font-size="14.00">enum LabTablePacketPayload::Type</text>
</g>
<!-- 1&#45;&gt;2 -->
<g id="edge2" class="edge">
<title>1&#45;&gt;2</title>
<path fill="none" stroke="black" d="M249.74,-209.44C284.71,-212.44 346.42,-217.74 403.62,-222.64"/>
<polygon fill="black" stroke="black" points="403.22,-226.12 413.48,-223.49 403.81,-219.15 403.22,-226.12"/>
</g>
<!-- 4 -->
<!-- name: &quot;X&quot;, typeName: &quot;&quot;, id: 4, branchId: 0, recurseId: &#45;1, attributes: 0, notes: &quot;&quot; -->
<g id="node5" class="node">
<title>4</title>
<ellipse fill="none" stroke="black" cx="326.93" cy="-180" rx="27" ry="18"/>
<text xml:space="preserve" text-anchor="middle" x="326.93" y="-174.95" font-family="Times New Roman,serif" font-size="14.00">X</text>
</g>
<!-- 3&#45;&gt;4 -->
<g id="edge4" class="edge">
<title>3&#45;&gt;4</title>
<path fill="none" stroke="black" d="M247.94,-139.77C262.31,-147.18 280.1,-156.36 295.07,-164.08"/>
<polygon fill="black" stroke="black" points="293.06,-166.98 303.55,-168.46 296.27,-160.76 293.06,-166.98"/>
</g>
<!-- 6 -->
<!-- name: &quot;Y&quot;, typeName: &quot;&quot;, id: 6, branchId: 0, recurseId: &#45;1, attributes: 0, notes: &quot;&quot; -->
<g id="node7" class="node">
<title>6</title>
<ellipse fill="none" stroke="black" cx="326.93" cy="-126" rx="27" ry="18"/>
<text xml:space="preserve" text-anchor="middle" x="326.93" y="-120.95" font-family="Times New Roman,serif" font-size="14.00">Y</text>
</g>
<!-- 3&#45;&gt;6 -->
<g id="edge6" class="edge">
<title>3&#45;&gt;6</title>
<path fill="none" stroke="black" d="M261.72,-126C270.42,-126 279.59,-126 288.18,-126"/>
<polygon fill="black" stroke="black" points="287.93,-129.5 297.93,-126 287.93,-122.5 287.93,-129.5"/>
</g>
<!-- 8 -->
<!-- name: &quot;Z&quot;, typeName: &quot;&quot;, id: 8, branchId: 0, recurseId: &#45;1, attributes: 0, notes: &quot;&quot; -->
<g id="node9" class="node">
<title>8</title>
<ellipse fill="none" stroke="black" cx="326.93" cy="-72" rx="27" ry="18"/>
<text xml:space="preserve" text-anchor="middle" x="326.93" y="-66.95" font-family="Times New Roman,serif" font-size="14.00">Z</text>
</g>
<!-- 3&#45;&gt;8 -->
<g id="edge8" class="edge">
<title>3&#45;&gt;8</title>
<path fill="none" stroke="black" d="M247.94,-112.23C262.31,-104.82 280.1,-95.64 295.07,-87.92"/>
<polygon fill="black" stroke="black" points="296.27,-91.24 303.55,-83.54 293.06,-85.02 296.27,-91.24"/>
</g>
<!-- 5 -->
<!-- name: &quot;varint&quot;, typeName: &quot;&quot;, id: 5, branchId: 0, recurseId: &#45;1, attributes: 512, notes: &quot;&quot; -->
<g id="node6" class="node">
<title>5</title>
<ellipse fill="none" stroke="black" cx="536.98" cy="-180" rx="32.41" ry="18"/>
<text xml:space="preserve" text-anchor="middle" x="536.98" y="-174.95" font-family="Times New Roman,serif" font-size="14.00">varint</text>
</g>
<!-- 4&#45;&gt;5 -->
<g id="edge5" class="edge">
<title>4&#45;&gt;5</title>
<path fill="none" stroke="black" d="M354.28,-180C389.18,-180 451.2,-180 492.95,-180"/>
<polygon fill="black" stroke="black" points="492.9,-183.5 502.9,-180 492.9,-176.5 492.9,-183.5"/>
</g>
<!-- 7 -->
<!-- name: &quot;varint&quot;, typeName: &quot;&quot;, id: 7, branchId: 0, recurseId: &#45;1, attributes: 512, notes: &quot;&quot; -->
<g id="node8" class="node">
<title>7</title>
<ellipse fill="none" stroke="black" cx="536.98" cy="-126" rx="32.41" ry="18"/>
<text xml:space="preserve" text-anchor="middle" x="536.98" y="-120.95" font-family="Times New Roman,serif" font-size="14.00">varint</text>
</g>
<!-- 6&#45;&gt;7 -->
<g id="edge7" class="edge">
<title>6&#45;&gt;7</title>
<path fill="none" stroke="black" d="M354.28,-126C389.18,-126 451.2,-126 492.95,-126"/>
<polygon fill="black" stroke="black" points="492.9,-129.5 502.9,-126 492.9,-122.5 492.9,-129.5"/>
</g>
<!-- 9 -->
<!-- name: &quot;varint&quot;, typeName: &quot;&quot;, id: 9, branchId: 0, recurseId: &#45;1, attributes: 512, notes: &quot;&quot; -->
<g id="node10" class="node">
<title>9</title>
<ellipse fill="none" stroke="black" cx="536.98" cy="-72" rx="32.41" ry="18"/>
<text xml:space="preserve" text-anchor="middle" x="536.98" y="-66.95" font-family="Times New Roman,serif" font-size="14.00">varint</text>
</g>
<!-- 8&#45;&gt;9 -->
<g id="edge9" class="edge">
<title>8&#45;&gt;9</title>
<path fill="none" stroke="black" d="M354.28,-72C389.18,-72 451.2,-72 492.95,-72"/>
<polygon fill="black" stroke="black" points="492.9,-75.5 502.9,-72 492.9,-68.5 492.9,-75.5"/>
</g>
<!-- 11 -->
<!-- name: &quot;enum LabTableReactionType&quot;, typeName: &quot;&quot;, id: 11, branchId: 0, recurseId: &#45;1, attributes: 512, notes: &quot;&quot; -->
<g id="node12" class="node">
<title>11</title>
<ellipse fill="none" stroke="black" cx="536.98" cy="-18" rx="120.45" ry="18"/>
<text xml:space="preserve" text-anchor="middle" x="536.98" y="-12.95" font-family="Times New Roman,serif" font-size="14.00">enum LabTableReactionType</text>
</g>
<!-- 10&#45;&gt;11 -->
<g id="edge11" class="edge">
<title>10&#45;&gt;11</title>
<path fill="none" stroke="black" d="M263.37,-41.39C303.41,-37.95 365.48,-32.63 420.29,-27.93"/>
<polygon fill="black" stroke="black" points="420.33,-31.43 429.99,-27.09 419.73,-24.46 420.33,-31.43"/>
</g>
</g>
</svg>
