<?xml version="1.0" encoding="UTF-8" standalone="no"?>
<!DOCTYPE svg PUBLIC "-//W3C//DTD SVG 1.1//EN"
 "http://www.w3.org/Graphics/SVG/1.1/DTD/svg11.dtd">
<!-- Generated by graphviz version 12.2.1 (20241206.2353)
 -->
<!-- Title: LabTablePacket Pages: 1 -->
<svg width="400pt" height="152pt"
 viewBox="0.00 0.00 400.39 152.00" xmlns="http://www.w3.org/2000/svg" xmlns:xlink="http://www.w3.org/1999/xlink">
<g id="graph0" class="graph" transform="scale(1 1) rotate(0) translate(4 148)">
<title>LabTablePacket</title>
<polygon fill="white" stroke="none" points="-4,4 -4,-148 396.39,-148 396.39,4 -4,4"/>
<!-- 0 -->
<!-- name: &quot;LabTablePacket&quot;, typeName: &quot;&quot;, id: 0, branchId: 109, recurseId: &#45;1, attributes: 0, notes: &quot;&quot; -->
<g id="node1" class="node">
<title>0</title>
<ellipse fill="none" stroke="black" cx="70.29" cy="-72" rx="70.29" ry="18"/>
<text text-anchor="middle" x="70.29" y="-66.95" font-family="Times New Roman,serif" font-size="14.00">LabTablePacket</text>
</g>
<!-- 1 -->
<!-- name: &quot;Type&quot;, typeName: &quot;&quot;, id: 1, branchId: 0, recurseId: &#45;1, attributes: 0, notes: &quot;&quot; -->
<g id="node2" class="node">
<title>1</title>
<ellipse fill="none" stroke="black" cx="220.25" cy="-126" rx="29.34" ry="18"/>
<text text-anchor="middle" x="220.25" y="-120.95" font-family="Times New Roman,serif" font-size="14.00">Type</text>
</g>
<!-- 0&#45;&gt;1 -->
<g id="edge1" class="edge">
<title>0&#45;&gt;1</title>
<path fill="none" stroke="black" d="M112.11,-86.9C134.55,-95.09 162.11,-105.15 183.66,-113.01"/>
<polygon fill="black" stroke="black" points="182.31,-116.24 192.9,-116.38 184.71,-109.67 182.31,-116.24"/>
</g>
<!-- 3 -->
<!-- name: &quot;Position&quot;, typeName: &quot;BlockPos&quot;, id: 3, branchId: 0, recurseId: &#45;1, attributes: 256, notes: &quot;&quot; -->
<g id="node4" class="node">
<title>3</title>
<ellipse fill="none" stroke="black" cx="220.25" cy="-72" rx="41.12" ry="18"/>
<text text-anchor="middle" x="220.25" y="-66.95" font-family="Times New Roman,serif" font-size="14.00">Position</text>
</g>
<!-- 0&#45;&gt;3 -->
<g id="edge3" class="edge">
<title>0&#45;&gt;3</title>
<path fill="none" stroke="black" d="M140.94,-72C149.9,-72 158.96,-72 167.56,-72"/>
<polygon fill="black" stroke="black" points="167.46,-75.5 177.46,-72 167.46,-68.5 167.46,-75.5"/>
</g>
<!-- 5 -->
<!-- name: &quot;Reaction&quot;, typeName: &quot;&quot;, id: 5, branchId: 0, recurseId: &#45;1, attributes: 0, notes: &quot;&quot; -->
<g id="node6" class="node">
<title>5</title>
<ellipse fill="none" stroke="black" cx="220.25" cy="-18" rx="43.67" ry="18"/>
<text text-anchor="middle" x="220.25" y="-12.95" font-family="Times New Roman,serif" font-size="14.00">Reaction</text>
</g>
<!-- 0&#45;&gt;5 -->
<g id="edge5" class="edge">
<title>0&#45;&gt;5</title>
<path fill="none" stroke="black" d="M112.11,-57.1C132.03,-49.83 156,-41.09 176.2,-33.71"/>
<polygon fill="black" stroke="black" points="177.38,-37.01 185.57,-30.29 174.98,-30.43 177.38,-37.01"/>
</g>
<!-- 2 -->
<!-- name: &quot;byte&quot;, typeName: &quot;&quot;, id: 2, branchId: 0, recurseId: &#45;1, attributes: 512, notes: &quot;&quot; -->
<g id="node3" class="node">
<title>2</title>
<ellipse fill="none" stroke="black" cx="346.16" cy="-126" rx="27" ry="18"/>
<text text-anchor="middle" x="346.16" y="-120.95" font-family="Times New Roman,serif" font-size="14.00">byte</text>
</g>
<!-- 1&#45;&gt;2 -->
<g id="edge2" class="edge">
<title>1&#45;&gt;2</title>
<path fill="none" stroke="black" d="M249.99,-126C267.08,-126 288.95,-126 307.42,-126"/>
<polygon fill="black" stroke="black" points="307.18,-129.5 317.18,-126 307.18,-122.5 307.18,-129.5"/>
</g>
<!-- 4 -->
<!-- name: &quot;BlockPos&quot;, typeName: &quot;&quot;, id: 4, branchId: 0, recurseId: &#45;1, attributes: 512, notes: &quot;&quot; -->
<g id="node5" class="node">
<title>4</title>
<ellipse fill="none" stroke="black" cx="346.16" cy="-72" rx="46.23" ry="18"/>
<text text-anchor="middle" x="346.16" y="-66.95" font-family="Times New Roman,serif" font-size="14.00">BlockPos</text>
</g>
<!-- 3&#45;&gt;4 -->
<g id="edge4" class="edge">
<title>3&#45;&gt;4</title>
<path fill="none" stroke="black" d="M261.82,-72C270.36,-72 279.51,-72 288.51,-72"/>
<polygon fill="black" stroke="black" points="288.26,-75.5 298.26,-72 288.26,-68.5 288.26,-75.5"/>
</g>
<!-- 6 -->
<!-- name: &quot;byte&quot;, typeName: &quot;&quot;, id: 6, branchId: 0, recurseId: &#45;1, attributes: 512, notes: &quot;&quot; -->
<g id="node7" class="node">
<title>6</title>
<ellipse fill="none" stroke="black" cx="346.16" cy="-18" rx="27" ry="18"/>
<text text-anchor="middle" x="346.16" y="-12.95" font-family="Times New Roman,serif" font-size="14.00">byte</text>
</g>
<!-- 5&#45;&gt;6 -->
<g id="edge6" class="edge">
<title>5&#45;&gt;6</title>
<path fill="none" stroke="black" d="M264.24,-18C278.3,-18 293.79,-18 307.43,-18"/>
<polygon fill="black" stroke="black" points="307.34,-21.5 317.34,-18 307.34,-14.5 307.34,-21.5"/>
</g>
</g>
</svg>
