<?xml version="1.0" encoding="UTF-8" standalone="no"?>
<!DOCTYPE svg PUBLIC "-//W3C//DTD SVG 1.1//EN"
 "http://www.w3.org/Graphics/SVG/1.1/DTD/svg11.dtd">
<!-- Generated by graphviz version 2.46.1 (20210213.1702)
 -->
<!-- Title: LecternUpdatePacket Pages: 1 -->
<svg width="887pt" height="206pt"
 viewBox="0.00 0.00 887.23 206.00" xmlns="http://www.w3.org/2000/svg" xmlns:xlink="http://www.w3.org/1999/xlink">
<g id="graph0" class="graph" transform="scale(1 1) rotate(0) translate(4 202)">
<title>LecternUpdatePacket</title>
<polygon fill="white" stroke="transparent" points="-4,4 -4,-202 883.23,-202 883.23,4 -4,4"/>
<!-- 0 -->
<!-- name: &quot;LecternUpdatePacket&quot;, typeName: &quot;&quot;, id: 0, branchId: 125, recurseId: &#45;1, attributes: 0, notes: &quot;&quot; -->
<g id="node1" class="node">
<title>0</title>
<ellipse fill="none" stroke="black" cx="89.04" cy="-99" rx="89.08" ry="18"/>
<text text-anchor="middle" x="89.04" y="-95.3" font-family="Times New Roman,serif" font-size="14.00">LecternUpdatePacket</text>
</g>
<!-- 1 -->
<!-- name: &quot;New page to show&quot;, typeName: &quot;&quot;, id: 1, branchId: 0, recurseId: &#45;1, attributes: 0, notes: &quot;&quot; -->
<g id="node2" class="node">
<title>1</title>
<ellipse fill="none" stroke="black" cx="435.71" cy="-180" rx="78.79" ry="18"/>
<text text-anchor="middle" x="435.71" y="-176.3" font-family="Times New Roman,serif" font-size="14.00">New page to show</text>
</g>
<!-- 0&#45;&gt;1 -->
<g id="edge1" class="edge">
<title>0&#45;&gt;1</title>
<path fill="none" stroke="black" d="M121.76,-115.86C146.28,-128.13 181.45,-144.1 214.08,-153 257.68,-164.89 307.55,-171.55 348.84,-175.28"/>
<polygon fill="black" stroke="black" points="348.61,-178.77 358.87,-176.14 349.21,-171.8 348.61,-178.77"/>
</g>
<!-- 3 -->
<!-- name: &quot;Total Pages&quot;, typeName: &quot;&quot;, id: 3, branchId: 0, recurseId: &#45;1, attributes: 0, notes: &quot;&quot; -->
<g id="node4" class="node">
<title>3</title>
<ellipse fill="none" stroke="black" cx="435.71" cy="-126" rx="53.89" ry="18"/>
<text text-anchor="middle" x="435.71" y="-122.3" font-family="Times New Roman,serif" font-size="14.00">Total Pages</text>
</g>
<!-- 0&#45;&gt;3 -->
<g id="edge3" class="edge">
<title>0&#45;&gt;3</title>
<path fill="none" stroke="black" d="M172.6,-105.47C234.19,-110.29 317,-116.78 372.93,-121.16"/>
<polygon fill="black" stroke="black" points="372.81,-124.66 383.05,-121.95 373.36,-117.68 372.81,-124.66"/>
</g>
<!-- 5 -->
<!-- name: &quot;Position of Lectern to update&quot;, typeName: &quot;NetworkBlockPosition&quot;, id: 5, branchId: 0, recurseId: &#45;1, attributes: 256, notes: &quot;&quot; -->
<g id="node6" class="node">
<title>5</title>
<ellipse fill="none" stroke="black" cx="435.71" cy="-72" rx="116.98" ry="18"/>
<text text-anchor="middle" x="435.71" y="-68.3" font-family="Times New Roman,serif" font-size="14.00">Position of Lectern to update</text>
</g>
<!-- 0&#45;&gt;5 -->
<g id="edge5" class="edge">
<title>0&#45;&gt;5</title>
<path fill="none" stroke="black" d="M172.6,-92.53C217.04,-89.05 272.52,-84.71 320.99,-80.91"/>
<polygon fill="black" stroke="black" points="321.52,-84.38 331.22,-80.11 320.98,-77.4 321.52,-84.38"/>
</g>
<!-- 7 -->
<!-- name: &quot;Tell the server to drop the book in a lectern when attacked&quot;, typeName: &quot;&quot;, id: 7, branchId: 0, recurseId: &#45;1, attributes: 0, notes: &quot;&quot; -->
<g id="node8" class="node">
<title>7</title>
<ellipse fill="none" stroke="black" cx="435.71" cy="-18" rx="221.76" ry="18"/>
<text text-anchor="middle" x="435.71" y="-14.3" font-family="Times New Roman,serif" font-size="14.00">Tell the server to drop the book in a lectern when attacked</text>
</g>
<!-- 0&#45;&gt;7 -->
<g id="edge7" class="edge">
<title>0&#45;&gt;7</title>
<path fill="none" stroke="black" d="M121.76,-82.14C146.28,-69.87 181.45,-53.9 214.08,-45 232.48,-39.99 251.99,-35.9 271.5,-32.57"/>
<polygon fill="black" stroke="black" points="272.08,-36.02 281.38,-30.95 270.95,-29.12 272.08,-36.02"/>
</g>
<!-- 2 -->
<!-- name: &quot;byte&quot;, typeName: &quot;&quot;, id: 2, branchId: 0, recurseId: &#45;1, attributes: 512, notes: &quot;&quot; -->
<g id="node3" class="node">
<title>2</title>
<ellipse fill="none" stroke="black" cx="786.29" cy="-180" rx="27" ry="18"/>
<text text-anchor="middle" x="786.29" y="-176.3" font-family="Times New Roman,serif" font-size="14.00">byte</text>
</g>
<!-- 1&#45;&gt;2 -->
<g id="edge2" class="edge">
<title>1&#45;&gt;2</title>
<path fill="none" stroke="black" d="M514.51,-180C587.65,-180 693.89,-180 749.03,-180"/>
<polygon fill="black" stroke="black" points="749.03,-183.5 759.03,-180 749.03,-176.5 749.03,-183.5"/>
</g>
<!-- 4 -->
<!-- name: &quot;byte&quot;, typeName: &quot;&quot;, id: 4, branchId: 0, recurseId: &#45;1, attributes: 512, notes: &quot;&quot; -->
<g id="node5" class="node">
<title>4</title>
<ellipse fill="none" stroke="black" cx="786.29" cy="-126" rx="27" ry="18"/>
<text text-anchor="middle" x="786.29" y="-122.3" font-family="Times New Roman,serif" font-size="14.00">byte</text>
</g>
<!-- 3&#45;&gt;4 -->
<g id="edge4" class="edge">
<title>3&#45;&gt;4</title>
<path fill="none" stroke="black" d="M490.03,-126C561.79,-126 687.52,-126 749.15,-126"/>
<polygon fill="black" stroke="black" points="749.18,-129.5 759.18,-126 749.18,-122.5 749.18,-129.5"/>
</g>
<!-- 6 -->
<!-- name: &quot;NetworkBlockPosition&quot;, typeName: &quot;&quot;, id: 6, branchId: 0, recurseId: &#45;1, attributes: 512, notes: &quot;&quot; -->
<g id="node7" class="node">
<title>6</title>
<ellipse fill="none" stroke="black" cx="786.29" cy="-72" rx="92.88" ry="18"/>
<text text-anchor="middle" x="786.29" y="-68.3" font-family="Times New Roman,serif" font-size="14.00">NetworkBlockPosition</text>
</g>
<!-- 5&#45;&gt;6 -->
<g id="edge6" class="edge">
<title>5&#45;&gt;6</title>
<path fill="none" stroke="black" d="M552.78,-72C594.87,-72 642.07,-72 682.89,-72"/>
<polygon fill="black" stroke="black" points="683.12,-75.5 693.12,-72 683.12,-68.5 683.12,-75.5"/>
</g>
<!-- 8 -->
<!-- name: &quot;bool&quot;, typeName: &quot;&quot;, id: 8, branchId: 0, recurseId: &#45;1, attributes: 512, notes: &quot;&quot; -->
<g id="node9" class="node">
<title>8</title>
<ellipse fill="none" stroke="black" cx="786.29" cy="-18" rx="27.1" ry="18"/>
<text text-anchor="middle" x="786.29" y="-14.3" font-family="Times New Roman,serif" font-size="14.00">bool</text>
</g>
<!-- 7&#45;&gt;8 -->
<g id="edge8" class="edge">
<title>7&#45;&gt;8</title>
<path fill="none" stroke="black" d="M657.47,-18C692.62,-18 725.05,-18 748.45,-18"/>
<polygon fill="black" stroke="black" points="748.54,-21.5 758.54,-18 748.54,-14.5 748.54,-21.5"/>
</g>
</g>
</svg>
