<?xml version="1.0" encoding="UTF-8" standalone="no"?>
<!DOCTYPE svg PUBLIC "-//W3C//DTD SVG 1.1//EN"
 "http://www.w3.org/Graphics/SVG/1.1/DTD/svg11.dtd">
<!-- Generated by graphviz version 14.1.5 (20260411.2331)
 -->
<!-- Title: LegacySetSlot Pages: 1 -->
<svg width="771pt" height="152pt"
 viewBox="0.00 0.00 771.00 152.00" xmlns="http://www.w3.org/2000/svg" xmlns:xlink="http://www.w3.org/1999/xlink">
<g id="graph0" class="graph" transform="scale(1 1) rotate(0) translate(4 148)">
<title>LegacySetSlot</title>
<polygon fill="white" stroke="none" points="-4,4 -4,-148 767.46,-148 767.46,4 -4,4"/>
<!-- 0 -->
<!-- name: &quot;LegacySetSlot&quot;, typeName: &quot;&quot;, id: 0, branchId: 0, recurseId: &#45;1, attributes: 0, notes: &quot;&quot; -->
<g id="node1" class="node">
<title>0</title>
<ellipse fill="none" stroke="black" cx="64.66" cy="-99" rx="64.66" ry="18"/>
<text xml:space="preserve" text-anchor="middle" x="64.66" y="-93.95" font-family="Times New Roman,serif" font-size="14.00">LegacySetSlot</text>
</g>
<!-- 1 -->
<!-- name: &quot;Container Enum&quot;, typeName: &quot;&quot;, id: 1, branchId: 0, recurseId: &#45;1, attributes: 0, notes: &quot;The container enum name identifying which container slot set this belongs to.&quot; -->
<g id="node2" class="node">
<title>1</title>
<ellipse fill="none" stroke="black" cx="237.65" cy="-126" rx="72.34" ry="18"/>
<text xml:space="preserve" text-anchor="middle" x="237.65" y="-120.95" font-family="Times New Roman,serif" font-size="14.00">Container Enum</text>
</g>
<!-- 0&#45;&gt;1 -->
<g id="edge1" class="edge">
<title>0&#45;&gt;1</title>
<path fill="none" stroke="black" d="M121.65,-107.84C135.25,-109.99 149.99,-112.32 164.23,-114.57"/>
<polygon fill="black" stroke="black" points="163.6,-118.01 174.02,-116.11 164.69,-111.09 163.6,-118.01"/>
</g>
<!-- 3 -->
<!-- name: &quot;Slots&quot;, typeName: &quot;&quot;, id: 3, branchId: 0, recurseId: &#45;1, attributes: 0, notes: &quot;List of inventory slot indices within the given container.&quot; -->
<g id="node4" class="node">
<title>3</title>
<ellipse fill="none" stroke="black" cx="237.65" cy="-72" rx="29.34" ry="18"/>
<text xml:space="preserve" text-anchor="middle" x="237.65" y="-66.95" font-family="Times New Roman,serif" font-size="14.00">Slots</text>
</g>
<!-- 0&#45;&gt;3 -->
<g id="edge3" class="edge">
<title>0&#45;&gt;3</title>
<path fill="none" stroke="black" d="M121.65,-90.16C146.53,-86.23 175.21,-81.7 197.71,-78.15"/>
<polygon fill="black" stroke="black" points="198.03,-81.64 207.36,-76.62 196.94,-74.73 198.03,-81.64"/>
</g>
<!-- 2 -->
<!-- name: &quot;enum ContainerEnumName&quot;, typeName: &quot;&quot;, id: 2, branchId: 0, recurseId: &#45;1, attributes: 512, notes: &quot;The container enum name identifying which container slot set this belongs to.&quot; -->
<g id="node3" class="node">
<title>2</title>
<ellipse fill="none" stroke="black" cx="647.62" cy="-126" rx="115.84" ry="18"/>
<text xml:space="preserve" text-anchor="middle" x="647.62" y="-120.95" font-family="Times New Roman,serif" font-size="14.00">enum ContainerEnumName</text>
</g>
<!-- 1&#45;&gt;2 -->
<g id="edge2" class="edge">
<title>1&#45;&gt;2</title>
<path fill="none" stroke="black" d="M310.18,-126C368.09,-126 451.08,-126 520.15,-126"/>
<polygon fill="black" stroke="black" points="520.03,-129.5 530.03,-126 520.03,-122.5 520.03,-129.5"/>
</g>
<!-- 4 -->
<!-- name: &quot;List Size&quot;, typeName: &quot;&quot;, id: 4, branchId: 0, recurseId: &#45;1, attributes: 0, notes: &quot;&quot; -->
<g id="node5" class="node">
<title>4</title>
<ellipse fill="none" stroke="black" cx="420.88" cy="-72" rx="43.67" ry="18"/>
<text xml:space="preserve" text-anchor="middle" x="420.88" y="-66.95" font-family="Times New Roman,serif" font-size="14.00">List Size</text>
</g>
<!-- 3&#45;&gt;4 -->
<g id="edge4" class="edge">
<title>3&#45;&gt;4</title>
<path fill="none" stroke="black" d="M267.37,-72C293.59,-72 333.06,-72 365.28,-72"/>
<polygon fill="black" stroke="black" points="365.27,-75.5 375.27,-72 365.27,-68.5 365.27,-75.5"/>
</g>
<!-- 6 -->
<!-- name: &quot;example element&quot;, typeName: &quot;&quot;, id: 6, branchId: 0, recurseId: &#45;1, attributes: 16, notes: &quot;&quot; -->
<g id="node7" class="node">
<title>6</title>
<ellipse fill="none" stroke="black" stroke-dasharray="1,5" cx="420.88" cy="-18" rx="74.89" ry="18"/>
<text xml:space="preserve" text-anchor="middle" x="420.88" y="-12.95" font-family="Times New Roman,serif" font-size="14.00">example element</text>
</g>
<!-- 3&#45;&gt;6 -->
<g id="edge6" class="edge">
<title>3&#45;&gt;6</title>
<path fill="none" stroke="black" d="M264.62,-64.26C289.86,-56.74 329.05,-45.06 361.75,-35.32"/>
<polygon fill="black" stroke="black" points="362.52,-38.74 371.11,-32.53 360.52,-32.03 362.52,-38.74"/>
</g>
<!-- 5 -->
<!-- name: &quot;unsigned varint&quot;, typeName: &quot;&quot;, id: 5, branchId: 0, recurseId: &#45;1, attributes: 0, notes: &quot;&quot; -->
<g id="node6" class="node">
<title>5</title>
<ellipse fill="none" stroke="black" cx="647.62" cy="-72" rx="68.24" ry="18"/>
<text xml:space="preserve" text-anchor="middle" x="647.62" y="-66.95" font-family="Times New Roman,serif" font-size="14.00">unsigned varint</text>
</g>
<!-- 4&#45;&gt;5 -->
<g id="edge5" class="edge">
<title>4&#45;&gt;5</title>
<path fill="none" stroke="black" d="M464.95,-72C493.92,-72 532.97,-72 567.45,-72"/>
<polygon fill="black" stroke="black" points="567.43,-75.5 577.43,-72 567.43,-68.5 567.43,-75.5"/>
</g>
<!-- 7 -->
<!-- name: &quot;unsigned byte&quot;, typeName: &quot;&quot;, id: 7, branchId: 0, recurseId: &#45;1, attributes: 512, notes: &quot;&quot; -->
<g id="node8" class="node">
<title>7</title>
<ellipse fill="none" stroke="black" cx="647.62" cy="-18" rx="62.61" ry="18"/>
<text xml:space="preserve" text-anchor="middle" x="647.62" y="-12.95" font-family="Times New Roman,serif" font-size="14.00">unsigned byte</text>
</g>
<!-- 6&#45;&gt;7 -->
<g id="edge7" class="edge">
<title>6&#45;&gt;7</title>
<path fill="none" stroke="black" d="M496.09,-18C521.04,-18 548.83,-18 573.68,-18"/>
<polygon fill="black" stroke="black" points="573.35,-21.5 583.35,-18 573.35,-14.5 573.35,-21.5"/>
</g>
</g>
</svg>
