<?xml version="1.0" encoding="UTF-8" standalone="no"?>
<!DOCTYPE svg PUBLIC "-//W3C//DTD SVG 1.1//EN"
 "http://www.w3.org/Graphics/SVG/1.1/DTD/svg11.dtd">
<!-- Generated by graphviz version 12.2.0 (20241103.1931)
 -->
<!-- Title: LessonProgressPacket Pages: 1 -->
<svg width="460pt" height="152pt"
 viewBox="0.00 0.00 459.76 152.00" xmlns="http://www.w3.org/2000/svg" xmlns:xlink="http://www.w3.org/1999/xlink">
<g id="graph0" class="graph" transform="scale(1 1) rotate(0) translate(4 148)">
<title>LessonProgressPacket</title>
<polygon fill="white" stroke="none" points="-4,4 -4,-148 455.76,-148 455.76,4 -4,4"/>
<!-- 0 -->
<!-- name: &quot;LessonProgressPacket&quot;, typeName: &quot;&quot;, id: 0, branchId: 183, recurseId: &#45;1, attributes: 0, notes: &quot;&quot; -->
<g id="node1" class="node">
<title>0</title>
<ellipse fill="none" stroke="black" cx="93.32" cy="-72" rx="93.32" ry="18"/>
<text text-anchor="middle" x="93.32" y="-66.95" font-family="Times New Roman,serif" font-size="14.00">LessonProgressPacket</text>
</g>
<!-- 1 -->
<!-- name: &quot;Lesson Action&quot;, typeName: &quot;&quot;, id: 1, branchId: 0, recurseId: &#45;1, attributes: 0, notes: &quot;&quot; -->
<g id="node2" class="node">
<title>1</title>
<ellipse fill="none" stroke="black" cx="286.79" cy="-126" rx="64.15" ry="18"/>
<text text-anchor="middle" x="286.79" y="-120.95" font-family="Times New Roman,serif" font-size="14.00">Lesson Action</text>
</g>
<!-- 0&#45;&gt;1 -->
<g id="edge1" class="edge">
<title>0&#45;&gt;1</title>
<path fill="none" stroke="black" d="M147.65,-87.04C173.21,-94.25 203.83,-102.89 229.73,-110.19"/>
<polygon fill="black" stroke="black" points="228.49,-113.48 239.06,-112.82 230.39,-106.74 228.49,-113.48"/>
</g>
<!-- 3 -->
<!-- name: &quot;Score&quot;, typeName: &quot;&quot;, id: 3, branchId: 0, recurseId: &#45;1, attributes: 0, notes: &quot;&quot; -->
<g id="node4" class="node">
<title>3</title>
<ellipse fill="none" stroke="black" cx="286.79" cy="-72" rx="31.9" ry="18"/>
<text text-anchor="middle" x="286.79" y="-66.95" font-family="Times New Roman,serif" font-size="14.00">Score</text>
</g>
<!-- 0&#45;&gt;3 -->
<g id="edge3" class="edge">
<title>0&#45;&gt;3</title>
<path fill="none" stroke="black" d="M186.97,-72C206.82,-72 226.85,-72 243.64,-72"/>
<polygon fill="black" stroke="black" points="243.19,-75.5 253.19,-72 243.19,-68.5 243.19,-75.5"/>
</g>
<!-- 5 -->
<!-- name: &quot;Activity Id&quot;, typeName: &quot;&quot;, id: 5, branchId: 0, recurseId: &#45;1, attributes: 0, notes: &quot;&quot; -->
<g id="node6" class="node">
<title>5</title>
<ellipse fill="none" stroke="black" cx="286.79" cy="-18" rx="51.35" ry="18"/>
<text text-anchor="middle" x="286.79" y="-12.95" font-family="Times New Roman,serif" font-size="14.00">Activity Id</text>
</g>
<!-- 0&#45;&gt;5 -->
<g id="edge5" class="edge">
<title>0&#45;&gt;5</title>
<path fill="none" stroke="black" d="M147.65,-56.96C174.98,-49.25 208.09,-39.91 235.03,-32.31"/>
<polygon fill="black" stroke="black" points="235.66,-35.77 244.34,-29.69 233.76,-29.04 235.66,-35.77"/>
</g>
<!-- 2 -->
<!-- name: &quot;varint&quot;, typeName: &quot;&quot;, id: 2, branchId: 0, recurseId: &#45;1, attributes: 512, notes: &quot;&quot; -->
<g id="node3" class="node">
<title>2</title>
<ellipse fill="none" stroke="black" cx="419.35" cy="-126" rx="32.41" ry="18"/>
<text text-anchor="middle" x="419.35" y="-120.95" font-family="Times New Roman,serif" font-size="14.00">varint</text>
</g>
<!-- 1&#45;&gt;2 -->
<g id="edge2" class="edge">
<title>1&#45;&gt;2</title>
<path fill="none" stroke="black" d="M351.15,-126C359.35,-126 367.59,-126 375.35,-126"/>
<polygon fill="black" stroke="black" points="375.18,-129.5 385.18,-126 375.18,-122.5 375.18,-129.5"/>
</g>
<!-- 4 -->
<!-- name: &quot;varint&quot;, typeName: &quot;&quot;, id: 4, branchId: 0, recurseId: &#45;1, attributes: 512, notes: &quot;&quot; -->
<g id="node5" class="node">
<title>4</title>
<ellipse fill="none" stroke="black" cx="419.35" cy="-72" rx="32.41" ry="18"/>
<text text-anchor="middle" x="419.35" y="-66.95" font-family="Times New Roman,serif" font-size="14.00">varint</text>
</g>
<!-- 3&#45;&gt;4 -->
<g id="edge4" class="edge">
<title>3&#45;&gt;4</title>
<path fill="none" stroke="black" d="M319.06,-72C335.97,-72 357.11,-72 375.53,-72"/>
<polygon fill="black" stroke="black" points="375.36,-75.5 385.36,-72 375.36,-68.5 375.36,-75.5"/>
</g>
<!-- 6 -->
<!-- name: &quot;string&quot;, typeName: &quot;&quot;, id: 6, branchId: 0, recurseId: &#45;1, attributes: 512, notes: &quot;&quot; -->
<g id="node7" class="node">
<title>6</title>
<ellipse fill="none" stroke="black" cx="419.35" cy="-18" rx="31.9" ry="18"/>
<text text-anchor="middle" x="419.35" y="-12.95" font-family="Times New Roman,serif" font-size="14.00">string</text>
</g>
<!-- 5&#45;&gt;6 -->
<g id="edge6" class="edge">
<title>5&#45;&gt;6</title>
<path fill="none" stroke="black" d="M338.26,-18C350.64,-18 363.77,-18 375.74,-18"/>
<polygon fill="black" stroke="black" points="375.73,-21.5 385.73,-18 375.73,-14.5 375.73,-21.5"/>
</g>
</g>
</svg>
