<?xml version="1.0" encoding="UTF-8" standalone="no"?>
<!DOCTYPE svg PUBLIC "-//W3C//DTD SVG 1.1//EN"
 "http://www.w3.org/Graphics/SVG/1.1/DTD/svg11.dtd">
<!-- Generated by graphviz version 13.1.2 (20250808.2320)
 -->
<!-- Title: LevelEventPacket Pages: 1 -->
<svg width="476pt" height="260pt"
 viewBox="0.00 0.00 476.00 260.00" xmlns="http://www.w3.org/2000/svg" xmlns:xlink="http://www.w3.org/1999/xlink">
<g id="graph0" class="graph" transform="scale(1 1) rotate(0) translate(4 256)">
<title>LevelEventPacket</title>
<polygon fill="white" stroke="none" points="-4,4 -4,-256 472.06,-256 472.06,4 -4,4"/>
<!-- 0 -->
<!-- name: &quot;LevelEventPacket&quot;, typeName: &quot;&quot;, id: 0, branchId: 0, recurseId: &#45;1, attributes: 0, notes: &quot;Splash Potions, weather events, global pause, simlock commands, oh my!&quot; -->
<g id="node1" class="node">
<title>0</title>
<ellipse fill="none" stroke="black" cx="77.97" cy="-126" rx="77.97" ry="18"/>
<text xml:space="preserve" text-anchor="middle" x="77.97" y="-120.95" font-family="Times New Roman,serif" font-size="14.00">LevelEventPacket</text>
</g>
<!-- 1 -->
<!-- name: &quot;Event Id&quot;, typeName: &quot;&quot;, id: 1, branchId: 0, recurseId: &#45;1, attributes: 0, notes: &quot;&quot; -->
<g id="node2" class="node">
<title>1</title>
<ellipse fill="none" stroke="black" cx="234.58" cy="-207" rx="42.65" ry="18"/>
<text xml:space="preserve" text-anchor="middle" x="234.58" y="-201.95" font-family="Times New Roman,serif" font-size="14.00">Event Id</text>
</g>
<!-- 0&#45;&gt;1 -->
<g id="edge1" class="edge">
<title>0&#45;&gt;1</title>
<path fill="none" stroke="black" d="M110.63,-142.59C135.74,-155.74 170.87,-174.15 197.15,-187.91"/>
<polygon fill="black" stroke="black" points="195.28,-190.89 205.76,-192.43 198.53,-184.69 195.28,-190.89"/>
</g>
<!-- 3 -->
<!-- name: &quot;Position&quot;, typeName: &quot;&quot;, id: 3, branchId: 0, recurseId: &#45;1, attributes: 0, notes: &quot;Note about Event ID: Legacy particles use the @enums.html#Particle Type@ enum |ed with ParticleLegacyEvent(0x4000)&quot; -->
<g id="node4" class="node">
<title>3</title>
<ellipse fill="none" stroke="black" cx="234.58" cy="-126" rx="41.12" ry="18"/>
<text xml:space="preserve" text-anchor="middle" x="234.58" y="-120.95" font-family="Times New Roman,serif" font-size="14.00">Position</text>
</g>
<!-- 0&#45;&gt;3 -->
<g id="edge3" class="edge">
<title>0&#45;&gt;3</title>
<path fill="none" stroke="black" d="M156.27,-126C165,-126 173.72,-126 182,-126"/>
<polygon fill="black" stroke="black" points="181.85,-129.5 191.85,-126 181.85,-122.5 181.85,-129.5"/>
</g>
<!-- 10 -->
<!-- name: &quot;Data&quot;, typeName: &quot;&quot;, id: 10, branchId: 0, recurseId: &#45;1, attributes: 0, notes: &quot;&quot; -->
<g id="node11" class="node">
<title>10</title>
<ellipse fill="none" stroke="black" cx="234.58" cy="-45" rx="28.32" ry="18"/>
<text xml:space="preserve" text-anchor="middle" x="234.58" y="-39.95" font-family="Times New Roman,serif" font-size="14.00">Data</text>
</g>
<!-- 0&#45;&gt;10 -->
<g id="edge10" class="edge">
<title>0&#45;&gt;10</title>
<path fill="none" stroke="black" d="M110.63,-109.41C137.3,-95.44 175.27,-75.55 201.94,-61.58"/>
<polygon fill="black" stroke="black" points="203.34,-64.8 210.57,-57.06 200.09,-58.6 203.34,-64.8"/>
</g>
<!-- 2 -->
<!-- name: &quot;varint&quot;, typeName: &quot;&quot;, id: 2, branchId: 0, recurseId: &#45;1, attributes: 512, notes: &quot;&quot; -->
<g id="node3" class="node">
<title>2</title>
<ellipse fill="none" stroke="black" cx="435.65" cy="-234" rx="32.41" ry="18"/>
<text xml:space="preserve" text-anchor="middle" x="435.65" y="-228.95" font-family="Times New Roman,serif" font-size="14.00">varint</text>
</g>
<!-- 1&#45;&gt;2 -->
<g id="edge2" class="edge">
<title>1&#45;&gt;2</title>
<path fill="none" stroke="black" d="M275.39,-212.4C309.33,-217 357.99,-223.6 392.57,-228.29"/>
<polygon fill="black" stroke="black" points="391.83,-231.73 402.21,-229.6 392.78,-224.79 391.83,-231.73"/>
</g>
<!-- 4 -->
<!-- name: &quot;X&quot;, typeName: &quot;&quot;, id: 4, branchId: 0, recurseId: &#45;1, attributes: 0, notes: &quot;&quot; -->
<g id="node5" class="node">
<title>4</title>
<ellipse fill="none" stroke="black" cx="340.23" cy="-180" rx="27" ry="18"/>
<text xml:space="preserve" text-anchor="middle" x="340.23" y="-174.95" font-family="Times New Roman,serif" font-size="14.00">X</text>
</g>
<!-- 3&#45;&gt;4 -->
<g id="edge4" class="edge">
<title>3&#45;&gt;4</title>
<path fill="none" stroke="black" d="M262.01,-139.77C276.1,-147.11 293.52,-156.19 308.25,-163.86"/>
<polygon fill="black" stroke="black" points="306.58,-166.94 317.07,-168.45 309.82,-160.73 306.58,-166.94"/>
</g>
<!-- 6 -->
<!-- name: &quot;Y&quot;, typeName: &quot;&quot;, id: 6, branchId: 0, recurseId: &#45;1, attributes: 0, notes: &quot;&quot; -->
<g id="node7" class="node">
<title>6</title>
<ellipse fill="none" stroke="black" cx="340.23" cy="-126" rx="27" ry="18"/>
<text xml:space="preserve" text-anchor="middle" x="340.23" y="-120.95" font-family="Times New Roman,serif" font-size="14.00">Y</text>
</g>
<!-- 3&#45;&gt;6 -->
<g id="edge6" class="edge">
<title>3&#45;&gt;6</title>
<path fill="none" stroke="black" d="M275.95,-126C284.37,-126 293.22,-126 301.54,-126"/>
<polygon fill="black" stroke="black" points="301.34,-129.5 311.34,-126 301.34,-122.5 301.34,-129.5"/>
</g>
<!-- 8 -->
<!-- name: &quot;Z&quot;, typeName: &quot;&quot;, id: 8, branchId: 0, recurseId: &#45;1, attributes: 0, notes: &quot;&quot; -->
<g id="node9" class="node">
<title>8</title>
<ellipse fill="none" stroke="black" cx="340.23" cy="-72" rx="27" ry="18"/>
<text xml:space="preserve" text-anchor="middle" x="340.23" y="-66.95" font-family="Times New Roman,serif" font-size="14.00">Z</text>
</g>
<!-- 3&#45;&gt;8 -->
<g id="edge8" class="edge">
<title>3&#45;&gt;8</title>
<path fill="none" stroke="black" d="M262.01,-112.23C276.1,-104.89 293.52,-95.81 308.25,-88.14"/>
<polygon fill="black" stroke="black" points="309.82,-91.27 317.07,-83.55 306.58,-85.06 309.82,-91.27"/>
</g>
<!-- 5 -->
<!-- name: &quot;float&quot;, typeName: &quot;&quot;, id: 5, branchId: 0, recurseId: &#45;1, attributes: 512, notes: &quot;&quot; -->
<g id="node6" class="node">
<title>5</title>
<ellipse fill="none" stroke="black" cx="435.65" cy="-180" rx="27.81" ry="18"/>
<text xml:space="preserve" text-anchor="middle" x="435.65" y="-174.95" font-family="Times New Roman,serif" font-size="14.00">float</text>
</g>
<!-- 4&#45;&gt;5 -->
<g id="edge5" class="edge">
<title>4&#45;&gt;5</title>
<path fill="none" stroke="black" d="M367.25,-180C376.16,-180 386.32,-180 396,-180"/>
<polygon fill="black" stroke="black" points="395.95,-183.5 405.95,-180 395.95,-176.5 395.95,-183.5"/>
</g>
<!-- 7 -->
<!-- name: &quot;float&quot;, typeName: &quot;&quot;, id: 7, branchId: 0, recurseId: &#45;1, attributes: 512, notes: &quot;&quot; -->
<g id="node8" class="node">
<title>7</title>
<ellipse fill="none" stroke="black" cx="435.65" cy="-126" rx="27.81" ry="18"/>
<text xml:space="preserve" text-anchor="middle" x="435.65" y="-120.95" font-family="Times New Roman,serif" font-size="14.00">float</text>
</g>
<!-- 6&#45;&gt;7 -->
<g id="edge7" class="edge">
<title>6&#45;&gt;7</title>
<path fill="none" stroke="black" d="M367.25,-126C376.16,-126 386.32,-126 396,-126"/>
<polygon fill="black" stroke="black" points="395.95,-129.5 405.95,-126 395.95,-122.5 395.95,-129.5"/>
</g>
<!-- 9 -->
<!-- name: &quot;float&quot;, typeName: &quot;&quot;, id: 9, branchId: 0, recurseId: &#45;1, attributes: 512, notes: &quot;&quot; -->
<g id="node10" class="node">
<title>9</title>
<ellipse fill="none" stroke="black" cx="435.65" cy="-72" rx="27.81" ry="18"/>
<text xml:space="preserve" text-anchor="middle" x="435.65" y="-66.95" font-family="Times New Roman,serif" font-size="14.00">float</text>
</g>
<!-- 8&#45;&gt;9 -->
<g id="edge9" class="edge">
<title>8&#45;&gt;9</title>
<path fill="none" stroke="black" d="M367.25,-72C376.16,-72 386.32,-72 396,-72"/>
<polygon fill="black" stroke="black" points="395.95,-75.5 405.95,-72 395.95,-68.5 395.95,-75.5"/>
</g>
<!-- 11 -->
<!-- name: &quot;varint&quot;, typeName: &quot;&quot;, id: 11, branchId: 0, recurseId: &#45;1, attributes: 512, notes: &quot;&quot; -->
<g id="node12" class="node">
<title>11</title>
<ellipse fill="none" stroke="black" cx="435.65" cy="-18" rx="32.41" ry="18"/>
<text xml:space="preserve" text-anchor="middle" x="435.65" y="-12.95" font-family="Times New Roman,serif" font-size="14.00">varint</text>
</g>
<!-- 10&#45;&gt;11 -->
<g id="edge11" class="edge">
<title>10&#45;&gt;11</title>
<path fill="none" stroke="black" d="M262.43,-41.36C295.78,-36.84 353.06,-29.07 392.34,-23.74"/>
<polygon fill="black" stroke="black" points="392.72,-27.22 402.16,-22.41 391.78,-20.28 392.72,-27.22"/>
</g>
</g>
</svg>
