<?xml version="1.0" encoding="UTF-8" standalone="no"?>
<!DOCTYPE svg PUBLIC "-//W3C//DTD SVG 1.1//EN"
 "http://www.w3.org/Graphics/SVG/1.1/DTD/svg11.dtd">
<!-- Generated by graphviz version 2.46.1 (20210213.1702)
 -->
<!-- Title: LevelEventPacket Pages: 1 -->
<svg width="378pt" height="152pt"
 viewBox="0.00 0.00 377.67 152.00" xmlns="http://www.w3.org/2000/svg" xmlns:xlink="http://www.w3.org/1999/xlink">
<g id="graph0" class="graph" transform="scale(1 1) rotate(0) translate(4 148)">
<title>LevelEventPacket</title>
<polygon fill="white" stroke="transparent" points="-4,4 -4,-148 373.67,-148 373.67,4 -4,4"/>
<!-- 0 -->
<!-- name: &quot;LevelEventPacket&quot;, typeName: &quot;&quot;, id: 0, branchId: 25, recurseId: &#45;1, attributes: 0, notes: &quot;&quot; -->
<g id="node1" class="node">
<title>0</title>
<ellipse fill="none" stroke="black" cx="75.39" cy="-72" rx="75.29" ry="18"/>
<text text-anchor="middle" x="75.39" y="-68.3" font-family="Times New Roman,serif" font-size="14.00">LevelEventPacket</text>
</g>
<!-- 1 -->
<!-- name: &quot;Event ID&quot;, typeName: &quot;&quot;, id: 1, branchId: 0, recurseId: &#45;1, attributes: 0, notes: &quot;enumeration: LevelEvent&quot; -->
<g id="node2" class="node">
<title>1</title>
<ellipse fill="none" stroke="black" cx="229.68" cy="-126" rx="42.79" ry="18"/>
<text text-anchor="middle" x="229.68" y="-122.3" font-family="Times New Roman,serif" font-size="14.00">Event ID</text>
</g>
<!-- 0&#45;&gt;1 -->
<g id="edge1" class="edge">
<title>0&#45;&gt;1</title>
<path fill="none" stroke="black" d="M118.41,-86.9C139.79,-94.48 165.69,-103.66 187.02,-111.23"/>
<polygon fill="black" stroke="black" points="185.87,-114.53 196.46,-114.57 188.21,-107.93 185.87,-114.53"/>
</g>
<!-- 3 -->
<!-- name: &quot;Position&quot;, typeName: &quot;Vec3&quot;, id: 3, branchId: 0, recurseId: &#45;1, attributes: 256, notes: &quot;Note about Event ID: Legacy particles use the @enums.html#Particle Type@ &#160;enum |ed with ParticleLegacyEvent(0x4000)&quot; -->
<g id="node4" class="node">
<title>3</title>
<ellipse fill="none" stroke="black" cx="229.68" cy="-72" rx="40.09" ry="18"/>
<text text-anchor="middle" x="229.68" y="-68.3" font-family="Times New Roman,serif" font-size="14.00">Position</text>
</g>
<!-- 0&#45;&gt;3 -->
<g id="edge3" class="edge">
<title>0&#45;&gt;3</title>
<path fill="none" stroke="black" d="M151.2,-72C160.61,-72 170.04,-72 178.93,-72"/>
<polygon fill="black" stroke="black" points="179.08,-75.5 189.08,-72 179.08,-68.5 179.08,-75.5"/>
</g>
<!-- 5 -->
<!-- name: &quot;Data&quot;, typeName: &quot;&quot;, id: 5, branchId: 0, recurseId: &#45;1, attributes: 0, notes: &quot;&quot; -->
<g id="node6" class="node">
<title>5</title>
<ellipse fill="none" stroke="black" cx="229.68" cy="-18" rx="27.1" ry="18"/>
<text text-anchor="middle" x="229.68" y="-14.3" font-family="Times New Roman,serif" font-size="14.00">Data</text>
</g>
<!-- 0&#45;&gt;5 -->
<g id="edge5" class="edge">
<title>0&#45;&gt;5</title>
<path fill="none" stroke="black" d="M118.41,-57.1C142.8,-48.45 173.08,-37.72 195.73,-29.68"/>
<polygon fill="black" stroke="black" points="196.99,-32.95 205.24,-26.31 194.65,-26.35 196.99,-32.95"/>
</g>
<!-- 2 -->
<!-- name: &quot;varint&quot;, typeName: &quot;&quot;, id: 2, branchId: 0, recurseId: &#45;1, attributes: 512, notes: &quot;&quot; -->
<g id="node3" class="node">
<title>2</title>
<ellipse fill="none" stroke="black" cx="339.13" cy="-126" rx="30.59" ry="18"/>
<text text-anchor="middle" x="339.13" y="-122.3" font-family="Times New Roman,serif" font-size="14.00">varint</text>
</g>
<!-- 1&#45;&gt;2 -->
<g id="edge2" class="edge">
<title>1&#45;&gt;2</title>
<path fill="none" stroke="black" d="M272.84,-126C281.19,-126 289.93,-126 298.2,-126"/>
<polygon fill="black" stroke="black" points="298.37,-129.5 308.37,-126 298.37,-122.5 298.37,-129.5"/>
</g>
<!-- 4 -->
<!-- name: &quot;Vec3&quot;, typeName: &quot;&quot;, id: 4, branchId: 0, recurseId: &#45;1, attributes: 512, notes: &quot;&quot; -->
<g id="node5" class="node">
<title>4</title>
<ellipse fill="none" stroke="black" cx="339.13" cy="-72" rx="29.8" ry="18"/>
<text text-anchor="middle" x="339.13" y="-68.3" font-family="Times New Roman,serif" font-size="14.00">Vec3</text>
</g>
<!-- 3&#45;&gt;4 -->
<g id="edge4" class="edge">
<title>3&#45;&gt;4</title>
<path fill="none" stroke="black" d="M270.08,-72C279.48,-72 289.51,-72 298.9,-72"/>
<polygon fill="black" stroke="black" points="299.17,-75.5 309.17,-72 299.17,-68.5 299.17,-75.5"/>
</g>
<!-- 6 -->
<!-- name: &quot;varint&quot;, typeName: &quot;&quot;, id: 6, branchId: 0, recurseId: &#45;1, attributes: 512, notes: &quot;&quot; -->
<g id="node7" class="node">
<title>6</title>
<ellipse fill="none" stroke="black" cx="339.13" cy="-18" rx="30.59" ry="18"/>
<text text-anchor="middle" x="339.13" y="-14.3" font-family="Times New Roman,serif" font-size="14.00">varint</text>
</g>
<!-- 5&#45;&gt;6 -->
<g id="edge6" class="edge">
<title>5&#45;&gt;6</title>
<path fill="none" stroke="black" d="M257.24,-18C269.62,-18 284.61,-18 298.31,-18"/>
<polygon fill="black" stroke="black" points="298.47,-21.5 308.47,-18 298.47,-14.5 298.47,-21.5"/>
</g>
</g>
</svg>
