<?xml version="1.0" encoding="UTF-8" standalone="no"?>
<!DOCTYPE svg PUBLIC "-//W3C//DTD SVG 1.1//EN"
 "http://www.w3.org/Graphics/SVG/1.1/DTD/svg11.dtd">
<!-- Generated by graphviz version 12.2.1 (20241206.2353)
 -->
<!-- Title: LevelSoundEventPacket Pages: 1 -->
<svg width="557pt" height="314pt"
 viewBox="0.00 0.00 557.01 314.00" xmlns="http://www.w3.org/2000/svg" xmlns:xlink="http://www.w3.org/1999/xlink">
<g id="graph0" class="graph" transform="scale(1 1) rotate(0) translate(4 310)">
<title>LevelSoundEventPacket</title>
<polygon fill="white" stroke="none" points="-4,4 -4,-310 553.01,-310 553.01,4 -4,4"/>
<!-- 0 -->
<!-- name: &quot;LevelSoundEventPacket&quot;, typeName: &quot;&quot;, id: 0, branchId: 123, recurseId: &#45;1, attributes: 0, notes: &quot;&quot; -->
<g id="node1" class="node">
<title>0</title>
<ellipse fill="none" stroke="black" cx="101.51" cy="-153" rx="101.51" ry="18"/>
<text text-anchor="middle" x="101.51" y="-147.95" font-family="Times New Roman,serif" font-size="14.00">LevelSoundEventPacket</text>
</g>
<!-- 1 -->
<!-- name: &quot;Event ID&quot;, typeName: &quot;&quot;, id: 1, branchId: 0, recurseId: &#45;1, attributes: 0, notes: &quot;&quot; -->
<g id="node2" class="node">
<title>1</title>
<ellipse fill="none" stroke="black" cx="307.77" cy="-288" rx="44.7" ry="18"/>
<text text-anchor="middle" x="307.77" y="-282.95" font-family="Times New Roman,serif" font-size="14.00">Event ID</text>
</g>
<!-- 0&#45;&gt;1 -->
<g id="edge1" class="edge">
<title>0&#45;&gt;1</title>
<path fill="none" stroke="black" d="M121.54,-171.04C146.79,-194.24 193.5,-234.68 239.02,-261 246.18,-265.14 254.09,-268.92 261.91,-272.27"/>
<polygon fill="black" stroke="black" points="260.46,-275.45 271.04,-275.97 263.09,-268.97 260.46,-275.45"/>
</g>
<!-- 3 -->
<!-- name: &quot;Position&quot;, typeName: &quot;Vec3&quot;, id: 3, branchId: 0, recurseId: &#45;1, attributes: 256, notes: &quot;&quot; -->
<g id="node4" class="node">
<title>3</title>
<ellipse fill="none" stroke="black" cx="307.77" cy="-234" rx="41.12" ry="18"/>
<text text-anchor="middle" x="307.77" y="-228.95" font-family="Times New Roman,serif" font-size="14.00">Position</text>
</g>
<!-- 0&#45;&gt;3 -->
<g id="edge3" class="edge">
<title>0&#45;&gt;3</title>
<path fill="none" stroke="black" d="M144.34,-169.59C179.88,-183.68 230.6,-203.79 265.87,-217.78"/>
<polygon fill="black" stroke="black" points="264.29,-220.92 274.88,-221.35 266.87,-214.41 264.29,-220.92"/>
</g>
<!-- 5 -->
<!-- name: &quot;Data&quot;, typeName: &quot;&quot;, id: 5, branchId: 0, recurseId: &#45;1, attributes: 0, notes: &quot;&quot; -->
<g id="node6" class="node">
<title>5</title>
<ellipse fill="none" stroke="black" cx="307.77" cy="-180" rx="28.32" ry="18"/>
<text text-anchor="middle" x="307.77" y="-174.95" font-family="Times New Roman,serif" font-size="14.00">Data</text>
</g>
<!-- 0&#45;&gt;5 -->
<g id="edge5" class="edge">
<title>0&#45;&gt;5</title>
<path fill="none" stroke="black" d="M184.12,-163.79C213.21,-167.63 244.61,-171.78 268.36,-174.92"/>
<polygon fill="black" stroke="black" points="267.82,-178.38 278.2,-176.22 268.74,-171.44 267.82,-178.38"/>
</g>
<!-- 7 -->
<!-- name: &quot;Actor Identifier&quot;, typeName: &quot;&quot;, id: 7, branchId: 0, recurseId: &#45;1, attributes: 0, notes: &quot;&quot; -->
<g id="node8" class="node">
<title>7</title>
<ellipse fill="none" stroke="black" cx="307.77" cy="-126" rx="68.75" ry="18"/>
<text text-anchor="middle" x="307.77" y="-120.95" font-family="Times New Roman,serif" font-size="14.00">Actor Identifier</text>
</g>
<!-- 0&#45;&gt;7 -->
<g id="edge7" class="edge">
<title>0&#45;&gt;7</title>
<path fill="none" stroke="black" d="M184.12,-142.21C200.82,-140 218.29,-137.7 234.63,-135.54"/>
<polygon fill="black" stroke="black" points="234.79,-139.05 244.24,-134.27 233.87,-132.11 234.79,-139.05"/>
</g>
<!-- 9 -->
<!-- name: &quot;Is Baby Mob&quot;, typeName: &quot;&quot;, id: 9, branchId: 0, recurseId: &#45;1, attributes: 0, notes: &quot;&quot; -->
<g id="node10" class="node">
<title>9</title>
<ellipse fill="none" stroke="black" cx="307.77" cy="-72" rx="60.05" ry="18"/>
<text text-anchor="middle" x="307.77" y="-66.95" font-family="Times New Roman,serif" font-size="14.00">Is Baby Mob</text>
</g>
<!-- 0&#45;&gt;9 -->
<g id="edge9" class="edge">
<title>0&#45;&gt;9</title>
<path fill="none" stroke="black" d="M144.34,-136.41C177.97,-123.07 225.21,-104.34 260.07,-90.52"/>
<polygon fill="black" stroke="black" points="261.05,-93.89 269.06,-86.95 258.47,-87.39 261.05,-93.89"/>
</g>
<!-- 11 -->
<!-- name: &quot;Is Global&quot;, typeName: &quot;&quot;, id: 11, branchId: 0, recurseId: &#45;1, attributes: 0, notes: &quot;&quot; -->
<g id="node12" class="node">
<title>11</title>
<ellipse fill="none" stroke="black" cx="307.77" cy="-18" rx="45.21" ry="18"/>
<text text-anchor="middle" x="307.77" y="-12.95" font-family="Times New Roman,serif" font-size="14.00">Is Global</text>
</g>
<!-- 0&#45;&gt;11 -->
<g id="edge11" class="edge">
<title>0&#45;&gt;11</title>
<path fill="none" stroke="black" d="M121.54,-134.96C146.79,-111.76 193.5,-71.32 239.02,-45 246.18,-40.86 254.09,-37.08 261.91,-33.73"/>
<polygon fill="black" stroke="black" points="263.09,-37.03 271.04,-30.03 260.46,-30.55 263.09,-37.03"/>
</g>
<!-- 2 -->
<!-- name: &quot;unsigned varint&quot;, typeName: &quot;&quot;, id: 2, branchId: 0, recurseId: &#45;1, attributes: 512, notes: &quot;&quot; -->
<g id="node3" class="node">
<title>2</title>
<ellipse fill="none" stroke="black" cx="480.76" cy="-288" rx="68.24" ry="18"/>
<text text-anchor="middle" x="480.76" y="-282.95" font-family="Times New Roman,serif" font-size="14.00">unsigned varint</text>
</g>
<!-- 1&#45;&gt;2 -->
<g id="edge2" class="edge">
<title>1&#45;&gt;2</title>
<path fill="none" stroke="black" d="M352.81,-288C367.52,-288 384.39,-288 400.93,-288"/>
<polygon fill="black" stroke="black" points="400.79,-291.5 410.79,-288 400.79,-284.5 400.79,-291.5"/>
</g>
<!-- 4 -->
<!-- name: &quot;Vec3&quot;, typeName: &quot;&quot;, id: 4, branchId: 0, recurseId: &#45;1, attributes: 512, notes: &quot;&quot; -->
<g id="node5" class="node">
<title>4</title>
<ellipse fill="none" stroke="black" cx="480.76" cy="-234" rx="29.34" ry="18"/>
<text text-anchor="middle" x="480.76" y="-228.95" font-family="Times New Roman,serif" font-size="14.00">Vec3</text>
</g>
<!-- 3&#45;&gt;4 -->
<g id="edge4" class="edge">
<title>3&#45;&gt;4</title>
<path fill="none" stroke="black" d="M349.29,-234C376.56,-234 412.37,-234 439.57,-234"/>
<polygon fill="black" stroke="black" points="439.51,-237.5 449.51,-234 439.51,-230.5 439.51,-237.5"/>
</g>
<!-- 6 -->
<!-- name: &quot;varint&quot;, typeName: &quot;&quot;, id: 6, branchId: 0, recurseId: &#45;1, attributes: 512, notes: &quot;&quot; -->
<g id="node7" class="node">
<title>6</title>
<ellipse fill="none" stroke="black" cx="480.76" cy="-180" rx="32.41" ry="18"/>
<text text-anchor="middle" x="480.76" y="-174.95" font-family="Times New Roman,serif" font-size="14.00">varint</text>
</g>
<!-- 5&#45;&gt;6 -->
<g id="edge6" class="edge">
<title>5&#45;&gt;6</title>
<path fill="none" stroke="black" d="M336.24,-180C363.4,-180 405.35,-180 436.89,-180"/>
<polygon fill="black" stroke="black" points="436.48,-183.5 446.48,-180 436.48,-176.5 436.48,-183.5"/>
</g>
<!-- 8 -->
<!-- name: &quot;string&quot;, typeName: &quot;&quot;, id: 8, branchId: 0, recurseId: &#45;1, attributes: 512, notes: &quot;&quot; -->
<g id="node9" class="node">
<title>8</title>
<ellipse fill="none" stroke="black" cx="480.76" cy="-126" rx="31.9" ry="18"/>
<text text-anchor="middle" x="480.76" y="-120.95" font-family="Times New Roman,serif" font-size="14.00">string</text>
</g>
<!-- 7&#45;&gt;8 -->
<g id="edge8" class="edge">
<title>7&#45;&gt;8</title>
<path fill="none" stroke="black" d="M376.84,-126C397.16,-126 418.86,-126 437.06,-126"/>
<polygon fill="black" stroke="black" points="436.96,-129.5 446.96,-126 436.96,-122.5 436.96,-129.5"/>
</g>
<!-- 10 -->
<!-- name: &quot;bool&quot;, typeName: &quot;&quot;, id: 10, branchId: 0, recurseId: &#45;1, attributes: 512, notes: &quot;&quot; -->
<g id="node11" class="node">
<title>10</title>
<ellipse fill="none" stroke="black" cx="480.76" cy="-72" rx="27.3" ry="18"/>
<text text-anchor="middle" x="480.76" y="-66.95" font-family="Times New Roman,serif" font-size="14.00">bool</text>
</g>
<!-- 9&#45;&gt;10 -->
<g id="edge10" class="edge">
<title>9&#45;&gt;10</title>
<path fill="none" stroke="black" d="M368.1,-72C392.51,-72 420.08,-72 441.72,-72"/>
<polygon fill="black" stroke="black" points="441.55,-75.5 451.55,-72 441.55,-68.5 441.55,-75.5"/>
</g>
<!-- 12 -->
<!-- name: &quot;bool&quot;, typeName: &quot;&quot;, id: 12, branchId: 0, recurseId: &#45;1, attributes: 512, notes: &quot;&quot; -->
<g id="node13" class="node">
<title>12</title>
<ellipse fill="none" stroke="black" cx="480.76" cy="-18" rx="27.3" ry="18"/>
<text text-anchor="middle" x="480.76" y="-12.95" font-family="Times New Roman,serif" font-size="14.00">bool</text>
</g>
<!-- 11&#45;&gt;12 -->
<g id="edge12" class="edge">
<title>11&#45;&gt;12</title>
<path fill="none" stroke="black" d="M353.25,-18C380.71,-18 415.57,-18 441.74,-18"/>
<polygon fill="black" stroke="black" points="441.58,-21.5 451.58,-18 441.58,-14.5 441.58,-21.5"/>
</g>
</g>
</svg>
