<?xml version="1.0" encoding="UTF-8" standalone="no"?>
<!DOCTYPE svg PUBLIC "-//W3C//DTD SVG 1.1//EN"
 "http://www.w3.org/Graphics/SVG/1.1/DTD/svg11.dtd">
<!-- Generated by graphviz version 12.2.1 (20241206.2353)
 -->
<!-- Title: LevelEventGenericPacket Pages: 1 -->
<svg width="444pt" height="98pt"
 viewBox="0.00 0.00 444.41 98.00" xmlns="http://www.w3.org/2000/svg" xmlns:xlink="http://www.w3.org/1999/xlink">
<g id="graph0" class="graph" transform="scale(1 1) rotate(0) translate(4 94)">
<title>LevelEventGenericPacket</title>
<polygon fill="white" stroke="none" points="-4,4 -4,-94 440.41,-94 440.41,4 -4,4"/>
<!-- 0 -->
<!-- name: &quot;LevelEventGenericPacket&quot;, typeName: &quot;&quot;, id: 0, branchId: 124, recurseId: &#45;1, attributes: 0, notes: &quot;&quot; -->
<g id="node1" class="node">
<title>0</title>
<ellipse fill="none" stroke="black" cx="107.14" cy="-45" rx="107.14" ry="18"/>
<text text-anchor="middle" x="107.14" y="-39.95" font-family="Times New Roman,serif" font-size="14.00">LevelEventGenericPacket</text>
</g>
<!-- 1 -->
<!-- name: &quot;Event Id&quot;, typeName: &quot;&quot;, id: 1, branchId: 0, recurseId: &#45;1, attributes: 0, notes: &quot;&quot; -->
<g id="node2" class="node">
<title>1</title>
<ellipse fill="none" stroke="black" cx="292.93" cy="-72" rx="42.65" ry="18"/>
<text text-anchor="middle" x="292.93" y="-66.95" font-family="Times New Roman,serif" font-size="14.00">Event Id</text>
</g>
<!-- 0&#45;&gt;1 -->
<g id="edge1" class="edge">
<title>0&#45;&gt;1</title>
<path fill="none" stroke="black" d="M189.29,-56.92C206.93,-59.51 225.11,-62.18 241.17,-64.54"/>
<polygon fill="black" stroke="black" points="240.56,-67.99 250.96,-65.98 241.58,-61.07 240.56,-67.99"/>
</g>
<!-- 3 -->
<!-- name: &quot;Byte&quot;, typeName: &quot;&quot;, id: 3, branchId: 0, recurseId: &#45;1, attributes: 0, notes: &quot;&quot; -->
<g id="node4" class="node">
<title>3</title>
<ellipse fill="none" stroke="black" cx="292.93" cy="-18" rx="28.32" ry="18"/>
<text text-anchor="middle" x="292.93" y="-12.95" font-family="Times New Roman,serif" font-size="14.00">Byte</text>
</g>
<!-- 0&#45;&gt;3 -->
<g id="edge3" class="edge">
<title>0&#45;&gt;3</title>
<path fill="none" stroke="black" d="M189.29,-33.08C211.64,-29.8 234.85,-26.39 253.53,-23.64"/>
<polygon fill="black" stroke="black" points="253.93,-27.12 263.32,-22.2 252.92,-20.19 253.93,-27.12"/>
</g>
<!-- 2 -->
<!-- name: &quot;varint&quot;, typeName: &quot;&quot;, id: 2, branchId: 0, recurseId: &#45;1, attributes: 512, notes: &quot;&quot; -->
<g id="node3" class="node">
<title>2</title>
<ellipse fill="none" stroke="black" cx="403.99" cy="-72" rx="32.41" ry="18"/>
<text text-anchor="middle" x="403.99" y="-66.95" font-family="Times New Roman,serif" font-size="14.00">varint</text>
</g>
<!-- 1&#45;&gt;2 -->
<g id="edge2" class="edge">
<title>1&#45;&gt;2</title>
<path fill="none" stroke="black" d="M335.78,-72C343.69,-72 351.98,-72 359.93,-72"/>
<polygon fill="black" stroke="black" points="359.73,-75.5 369.73,-72 359.73,-68.5 359.73,-75.5"/>
</g>
<!-- 4 -->
<!-- name: &quot;byte&quot;, typeName: &quot;&quot;, id: 4, branchId: 0, recurseId: &#45;1, attributes: 512, notes: &quot;&quot; -->
<g id="node5" class="node">
<title>4</title>
<ellipse fill="none" stroke="black" cx="403.99" cy="-18" rx="27" ry="18"/>
<text text-anchor="middle" x="403.99" y="-12.95" font-family="Times New Roman,serif" font-size="14.00">byte</text>
</g>
<!-- 3&#45;&gt;4 -->
<g id="edge4" class="edge">
<title>3&#45;&gt;4</title>
<path fill="none" stroke="black" d="M321.73,-18C334.95,-18 350.94,-18 365.23,-18"/>
<polygon fill="black" stroke="black" points="365.23,-21.5 375.23,-18 365.23,-14.5 365.23,-21.5"/>
</g>
</g>
</svg>
