<?xml version="1.0" encoding="UTF-8" standalone="no"?>
<!DOCTYPE svg PUBLIC "-//W3C//DTD SVG 1.1//EN"
 "http://www.w3.org/Graphics/SVG/1.1/DTD/svg11.dtd">
<!-- Generated by graphviz version 2.46.1 (20210213.1702)
 -->
<!-- Title: LevelSoundEventPacketV2 Pages: 1 -->
<svg width="493pt" height="314pt"
 viewBox="0.00 0.00 493.36 314.00" xmlns="http://www.w3.org/2000/svg" xmlns:xlink="http://www.w3.org/1999/xlink">
<g id="graph0" class="graph" transform="scale(1 1) rotate(0) translate(4 310)">
<title>LevelSoundEventPacketV2</title>
<polygon fill="white" stroke="transparent" points="-4,4 -4,-310 489.36,-310 489.36,4 -4,4"/>
<!-- 0 -->
<!-- name: &quot;LevelSoundEventPacketV2&quot;, typeName: &quot;&quot;, id: 0, branchId: 120, recurseId: &#45;1, attributes: 0, notes: &quot;&quot; -->
<g id="node1" class="node">
<title>0</title>
<ellipse fill="none" stroke="black" cx="109.84" cy="-153" rx="109.68" ry="18"/>
<text text-anchor="middle" x="109.84" y="-149.3" font-family="Times New Roman,serif" font-size="14.00">LevelSoundEventPacketV2</text>
</g>
<!-- 1 -->
<!-- name: &quot;Event ID&quot;, typeName: &quot;&quot;, id: 1, branchId: 0, recurseId: &#45;1, attributes: 0, notes: &quot;enumeration: Puv::Legacy::LevelSoundEvent&quot; -->
<g id="node2" class="node">
<title>1</title>
<ellipse fill="none" stroke="black" cx="321.97" cy="-288" rx="42.79" ry="18"/>
<text text-anchor="middle" x="321.97" y="-284.3" font-family="Times New Roman,serif" font-size="14.00">Event ID</text>
</g>
<!-- 0&#45;&gt;1 -->
<g id="edge1" class="edge">
<title>0&#45;&gt;1</title>
<path fill="none" stroke="black" d="M131.29,-170.85C158.36,-193.84 208.22,-234.05 255.68,-261 263.12,-265.22 271.35,-269.15 279.38,-272.62"/>
<polygon fill="black" stroke="black" points="278.1,-275.88 288.67,-276.49 280.79,-269.42 278.1,-275.88"/>
</g>
<!-- 3 -->
<!-- name: &quot;Position&quot;, typeName: &quot;Vec3&quot;, id: 3, branchId: 0, recurseId: &#45;1, attributes: 256, notes: &quot;&quot; -->
<g id="node4" class="node">
<title>3</title>
<ellipse fill="none" stroke="black" cx="321.97" cy="-234" rx="40.09" ry="18"/>
<text text-anchor="middle" x="321.97" y="-230.3" font-family="Times New Roman,serif" font-size="14.00">Position</text>
</g>
<!-- 0&#45;&gt;3 -->
<g id="edge3" class="edge">
<title>0&#45;&gt;3</title>
<path fill="none" stroke="black" d="M153.87,-169.59C191.19,-183.97 244.77,-204.63 281.12,-218.64"/>
<polygon fill="black" stroke="black" points="280.3,-222.07 290.89,-222.4 282.82,-215.54 280.3,-222.07"/>
</g>
<!-- 5 -->
<!-- name: &quot;Data&quot;, typeName: &quot;&quot;, id: 5, branchId: 0, recurseId: &#45;1, attributes: 0, notes: &quot;&quot; -->
<g id="node6" class="node">
<title>5</title>
<ellipse fill="none" stroke="black" cx="321.97" cy="-180" rx="27.1" ry="18"/>
<text text-anchor="middle" x="321.97" y="-176.3" font-family="Times New Roman,serif" font-size="14.00">Data</text>
</g>
<!-- 0&#45;&gt;5 -->
<g id="edge5" class="edge">
<title>0&#45;&gt;5</title>
<path fill="none" stroke="black" d="M196.92,-164.06C227.52,-167.99 260.35,-172.21 284.55,-175.32"/>
<polygon fill="black" stroke="black" points="284.32,-178.82 294.69,-176.62 285.22,-171.88 284.32,-178.82"/>
</g>
<!-- 7 -->
<!-- name: &quot;Actor Identifier&quot;, typeName: &quot;&quot;, id: 7, branchId: 0, recurseId: &#45;1, attributes: 0, notes: &quot;&quot; -->
<g id="node8" class="node">
<title>7</title>
<ellipse fill="none" stroke="black" cx="321.97" cy="-126" rx="66.09" ry="18"/>
<text text-anchor="middle" x="321.97" y="-122.3" font-family="Times New Roman,serif" font-size="14.00">Actor Identifier</text>
</g>
<!-- 0&#45;&gt;7 -->
<g id="edge7" class="edge">
<title>0&#45;&gt;7</title>
<path fill="none" stroke="black" d="M196.92,-141.94C215.11,-139.6 234.08,-137.16 251.57,-134.92"/>
<polygon fill="black" stroke="black" points="252.2,-138.37 261.67,-133.62 251.31,-131.42 252.2,-138.37"/>
</g>
<!-- 9 -->
<!-- name: &quot;Baby Mob&quot;, typeName: &quot;&quot;, id: 9, branchId: 0, recurseId: &#45;1, attributes: 0, notes: &quot;&quot; -->
<g id="node10" class="node">
<title>9</title>
<ellipse fill="none" stroke="black" cx="321.97" cy="-72" rx="50.09" ry="18"/>
<text text-anchor="middle" x="321.97" y="-68.3" font-family="Times New Roman,serif" font-size="14.00">Baby Mob</text>
</g>
<!-- 0&#45;&gt;9 -->
<g id="edge9" class="edge">
<title>0&#45;&gt;9</title>
<path fill="none" stroke="black" d="M153.87,-136.41C189.87,-122.54 241.01,-102.82 277.21,-88.87"/>
<polygon fill="black" stroke="black" points="278.93,-91.96 287,-85.1 276.41,-85.43 278.93,-91.96"/>
</g>
<!-- 11 -->
<!-- name: &quot;Global&quot;, typeName: &quot;&quot;, id: 11, branchId: 0, recurseId: &#45;1, attributes: 0, notes: &quot;&quot; -->
<g id="node12" class="node">
<title>11</title>
<ellipse fill="none" stroke="black" cx="321.97" cy="-18" rx="35.19" ry="18"/>
<text text-anchor="middle" x="321.97" y="-14.3" font-family="Times New Roman,serif" font-size="14.00">Global</text>
</g>
<!-- 0&#45;&gt;11 -->
<g id="edge11" class="edge">
<title>0&#45;&gt;11</title>
<path fill="none" stroke="black" d="M131.29,-135.15C158.36,-112.16 208.22,-71.95 255.68,-45 264.31,-40.1 274.01,-35.6 283.23,-31.74"/>
<polygon fill="black" stroke="black" points="284.65,-34.94 292.61,-27.95 282.03,-28.45 284.65,-34.94"/>
</g>
<!-- 2 -->
<!-- name: &quot;byte&quot;, typeName: &quot;&quot;, id: 2, branchId: 0, recurseId: &#45;1, attributes: 512, notes: &quot;&quot; -->
<g id="node3" class="node">
<title>2</title>
<ellipse fill="none" stroke="black" cx="454.82" cy="-288" rx="27" ry="18"/>
<text text-anchor="middle" x="454.82" y="-284.3" font-family="Times New Roman,serif" font-size="14.00">byte</text>
</g>
<!-- 1&#45;&gt;2 -->
<g id="edge2" class="edge">
<title>1&#45;&gt;2</title>
<path fill="none" stroke="black" d="M365.09,-288C382.01,-288 401.31,-288 417.58,-288"/>
<polygon fill="black" stroke="black" points="417.79,-291.5 427.79,-288 417.79,-284.5 417.79,-291.5"/>
</g>
<!-- 4 -->
<!-- name: &quot;Vec3&quot;, typeName: &quot;&quot;, id: 4, branchId: 0, recurseId: &#45;1, attributes: 512, notes: &quot;&quot; -->
<g id="node5" class="node">
<title>4</title>
<ellipse fill="none" stroke="black" cx="454.82" cy="-234" rx="29.8" ry="18"/>
<text text-anchor="middle" x="454.82" y="-230.3" font-family="Times New Roman,serif" font-size="14.00">Vec3</text>
</g>
<!-- 3&#45;&gt;4 -->
<g id="edge4" class="edge">
<title>3&#45;&gt;4</title>
<path fill="none" stroke="black" d="M362.59,-234C379,-234 397.99,-234 414.38,-234"/>
<polygon fill="black" stroke="black" points="414.73,-237.5 424.73,-234 414.73,-230.5 414.73,-237.5"/>
</g>
<!-- 6 -->
<!-- name: &quot;varint&quot;, typeName: &quot;&quot;, id: 6, branchId: 0, recurseId: &#45;1, attributes: 512, notes: &quot;&quot; -->
<g id="node7" class="node">
<title>6</title>
<ellipse fill="none" stroke="black" cx="454.82" cy="-180" rx="30.59" ry="18"/>
<text text-anchor="middle" x="454.82" y="-176.3" font-family="Times New Roman,serif" font-size="14.00">varint</text>
</g>
<!-- 5&#45;&gt;6 -->
<g id="edge6" class="edge">
<title>5&#45;&gt;6</title>
<path fill="none" stroke="black" d="M349.45,-180C367.98,-180 393.05,-180 413.98,-180"/>
<polygon fill="black" stroke="black" points="414.18,-183.5 424.18,-180 414.18,-176.5 414.18,-183.5"/>
</g>
<!-- 8 -->
<!-- name: &quot;string&quot;, typeName: &quot;&quot;, id: 8, branchId: 0, recurseId: &#45;1, attributes: 512, notes: &quot;&quot; -->
<g id="node9" class="node">
<title>8</title>
<ellipse fill="none" stroke="black" cx="454.82" cy="-126" rx="30.59" ry="18"/>
<text text-anchor="middle" x="454.82" y="-122.3" font-family="Times New Roman,serif" font-size="14.00">string</text>
</g>
<!-- 7&#45;&gt;8 -->
<g id="edge8" class="edge">
<title>7&#45;&gt;8</title>
<path fill="none" stroke="black" d="M388.4,-126C397.1,-126 405.81,-126 413.9,-126"/>
<polygon fill="black" stroke="black" points="414.13,-129.5 424.13,-126 414.13,-122.5 414.13,-129.5"/>
</g>
<!-- 10 -->
<!-- name: &quot;bool&quot;, typeName: &quot;&quot;, id: 10, branchId: 0, recurseId: &#45;1, attributes: 512, notes: &quot;&quot; -->
<g id="node11" class="node">
<title>10</title>
<ellipse fill="none" stroke="black" cx="454.82" cy="-72" rx="27.1" ry="18"/>
<text text-anchor="middle" x="454.82" y="-68.3" font-family="Times New Roman,serif" font-size="14.00">bool</text>
</g>
<!-- 9&#45;&gt;10 -->
<g id="edge10" class="edge">
<title>9&#45;&gt;10</title>
<path fill="none" stroke="black" d="M372.07,-72C386.98,-72 403.09,-72 417.04,-72"/>
<polygon fill="black" stroke="black" points="417.23,-75.5 427.23,-72 417.23,-68.5 417.23,-75.5"/>
</g>
<!-- 12 -->
<!-- name: &quot;bool&quot;, typeName: &quot;&quot;, id: 12, branchId: 0, recurseId: &#45;1, attributes: 512, notes: &quot;&quot; -->
<g id="node13" class="node">
<title>12</title>
<ellipse fill="none" stroke="black" cx="454.82" cy="-18" rx="27.1" ry="18"/>
<text text-anchor="middle" x="454.82" y="-14.3" font-family="Times New Roman,serif" font-size="14.00">bool</text>
</g>
<!-- 11&#45;&gt;12 -->
<g id="edge12" class="edge">
<title>11&#45;&gt;12</title>
<path fill="none" stroke="black" d="M357.35,-18C375.67,-18 398.2,-18 416.89,-18"/>
<polygon fill="black" stroke="black" points="417.1,-21.5 427.1,-18 417.1,-14.5 417.1,-21.5"/>
</g>
</g>
</svg>
