<?xml version="1.0" encoding="UTF-8" standalone="no"?>
<!DOCTYPE svg PUBLIC "-//W3C//DTD SVG 1.1//EN"
 "http://www.w3.org/Graphics/SVG/1.1/DTD/svg11.dtd">
<!-- Generated by graphviz version 12.2.0 (20241103.1931)
 -->
<!-- Title: LevelEventPacket Pages: 1 -->
<svg width="390pt" height="152pt"
 viewBox="0.00 0.00 390.16 152.00" xmlns="http://www.w3.org/2000/svg" xmlns:xlink="http://www.w3.org/1999/xlink">
<g id="graph0" class="graph" transform="scale(1 1) rotate(0) translate(4 148)">
<title>LevelEventPacket</title>
<polygon fill="white" stroke="none" points="-4,4 -4,-148 386.16,-148 386.16,4 -4,4"/>
<!-- 0 -->
<!-- name: &quot;LevelEventPacket&quot;, typeName: &quot;&quot;, id: 0, branchId: 25, recurseId: &#45;1, attributes: 0, notes: &quot;&quot; -->
<g id="node1" class="node">
<title>0</title>
<ellipse fill="none" stroke="black" cx="77.97" cy="-72" rx="77.97" ry="18"/>
<text text-anchor="middle" x="77.97" y="-66.95" font-family="Times New Roman,serif" font-size="14.00">LevelEventPacket</text>
</g>
<!-- 1 -->
<!-- name: &quot;Event ID&quot;, typeName: &quot;&quot;, id: 1, branchId: 0, recurseId: &#45;1, attributes: 0, notes: &quot;&quot; -->
<g id="node2" class="node">
<title>1</title>
<ellipse fill="none" stroke="black" cx="236.63" cy="-126" rx="44.7" ry="18"/>
<text text-anchor="middle" x="236.63" y="-120.95" font-family="Times New Roman,serif" font-size="14.00">Event ID</text>
</g>
<!-- 0&#45;&gt;1 -->
<g id="edge1" class="edge">
<title>0&#45;&gt;1</title>
<path fill="none" stroke="black" d="M122.6,-87.04C143.88,-94.38 169.44,-103.19 190.87,-110.57"/>
<polygon fill="black" stroke="black" points="189.63,-113.85 200.22,-113.8 191.91,-107.23 189.63,-113.85"/>
</g>
<!-- 3 -->
<!-- name: &quot;Position&quot;, typeName: &quot;Vec3&quot;, id: 3, branchId: 0, recurseId: &#45;1, attributes: 256, notes: &quot;Note about Event ID: Legacy particles use the @enums.html#Particle Type@ &#160;enum |ed with ParticleLegacyEvent(0x4000)&quot; -->
<g id="node4" class="node">
<title>3</title>
<ellipse fill="none" stroke="black" cx="236.63" cy="-72" rx="41.12" ry="18"/>
<text text-anchor="middle" x="236.63" y="-66.95" font-family="Times New Roman,serif" font-size="14.00">Position</text>
</g>
<!-- 0&#45;&gt;3 -->
<g id="edge3" class="edge">
<title>0&#45;&gt;3</title>
<path fill="none" stroke="black" d="M156.38,-72C165.71,-72 175.05,-72 183.88,-72"/>
<polygon fill="black" stroke="black" points="183.64,-75.5 193.64,-72 183.64,-68.5 183.64,-75.5"/>
</g>
<!-- 5 -->
<!-- name: &quot;Data&quot;, typeName: &quot;&quot;, id: 5, branchId: 0, recurseId: &#45;1, attributes: 0, notes: &quot;&quot; -->
<g id="node6" class="node">
<title>5</title>
<ellipse fill="none" stroke="black" cx="236.63" cy="-18" rx="28.32" ry="18"/>
<text text-anchor="middle" x="236.63" y="-12.95" font-family="Times New Roman,serif" font-size="14.00">Data</text>
</g>
<!-- 0&#45;&gt;5 -->
<g id="edge5" class="edge">
<title>0&#45;&gt;5</title>
<path fill="none" stroke="black" d="M122.6,-56.96C147.19,-48.48 177.49,-38.04 200.53,-30.1"/>
<polygon fill="black" stroke="black" points="201.45,-33.48 209.77,-26.91 199.17,-26.86 201.45,-33.48"/>
</g>
<!-- 2 -->
<!-- name: &quot;varint&quot;, typeName: &quot;&quot;, id: 2, branchId: 0, recurseId: &#45;1, attributes: 512, notes: &quot;&quot; -->
<g id="node3" class="node">
<title>2</title>
<ellipse fill="none" stroke="black" cx="349.74" cy="-126" rx="32.41" ry="18"/>
<text text-anchor="middle" x="349.74" y="-120.95" font-family="Times New Roman,serif" font-size="14.00">varint</text>
</g>
<!-- 1&#45;&gt;2 -->
<g id="edge2" class="edge">
<title>1&#45;&gt;2</title>
<path fill="none" stroke="black" d="M281.54,-126C289.53,-126 297.86,-126 305.81,-126"/>
<polygon fill="black" stroke="black" points="305.62,-129.5 315.62,-126 305.62,-122.5 305.62,-129.5"/>
</g>
<!-- 4 -->
<!-- name: &quot;Vec3&quot;, typeName: &quot;&quot;, id: 4, branchId: 0, recurseId: &#45;1, attributes: 512, notes: &quot;&quot; -->
<g id="node5" class="node">
<title>4</title>
<ellipse fill="none" stroke="black" cx="349.74" cy="-72" rx="29.34" ry="18"/>
<text text-anchor="middle" x="349.74" y="-66.95" font-family="Times New Roman,serif" font-size="14.00">Vec3</text>
</g>
<!-- 3&#45;&gt;4 -->
<g id="edge4" class="edge">
<title>3&#45;&gt;4</title>
<path fill="none" stroke="black" d="M278.06,-72C288.05,-72 298.74,-72 308.71,-72"/>
<polygon fill="black" stroke="black" points="308.49,-75.5 318.49,-72 308.49,-68.5 308.49,-75.5"/>
</g>
<!-- 6 -->
<!-- name: &quot;varint&quot;, typeName: &quot;&quot;, id: 6, branchId: 0, recurseId: &#45;1, attributes: 512, notes: &quot;&quot; -->
<g id="node7" class="node">
<title>6</title>
<ellipse fill="none" stroke="black" cx="349.74" cy="-18" rx="32.41" ry="18"/>
<text text-anchor="middle" x="349.74" y="-12.95" font-family="Times New Roman,serif" font-size="14.00">varint</text>
</g>
<!-- 5&#45;&gt;6 -->
<g id="edge6" class="edge">
<title>5&#45;&gt;6</title>
<path fill="none" stroke="black" d="M265.38,-18C277.51,-18 292.02,-18 305.52,-18"/>
<polygon fill="black" stroke="black" points="305.51,-21.5 315.51,-18 305.51,-14.5 305.51,-21.5"/>
</g>
</g>
</svg>
