<?xml version="1.0" encoding="UTF-8" standalone="no"?>
<!DOCTYPE svg PUBLIC "-//W3C//DTD SVG 1.1//EN"
 "http://www.w3.org/Graphics/SVG/1.1/DTD/svg11.dtd">
<!-- Generated by graphviz version 13.1.2 (20250808.2320)
 -->
<!-- Title: LevelSoundEventPacket Pages: 1 -->
<svg width="754pt" height="476pt"
 viewBox="0.00 0.00 754.00 476.00" xmlns="http://www.w3.org/2000/svg" xmlns:xlink="http://www.w3.org/1999/xlink">
<g id="graph0" class="graph" transform="scale(1 1) rotate(0) translate(4 472)">
<title>LevelSoundEventPacket</title>
<polygon fill="white" stroke="none" points="-4,4 -4,-472 750.05,-472 750.05,4 -4,4"/>
<!-- 0 -->
<!-- name: &quot;LevelSoundEventPacket&quot;, typeName: &quot;&quot;, id: 0, branchId: 0, recurseId: &#45;1, attributes: 0, notes: &quot;Level Sound Event&quot; -->
<g id="node1" class="node">
<title>0</title>
<ellipse fill="none" stroke="black" cx="101.51" cy="-180" rx="101.51" ry="18"/>
<text xml:space="preserve" text-anchor="middle" x="101.51" y="-174.95" font-family="Times New Roman,serif" font-size="14.00">LevelSoundEventPacket</text>
</g>
<!-- 1 -->
<!-- name: &quot;Event ID&quot;, typeName: &quot;&quot;, id: 1, branchId: 0, recurseId: &#45;1, attributes: 0, notes: &quot;&quot; -->
<g id="node2" class="node">
<title>1</title>
<ellipse fill="none" stroke="black" cx="463.87" cy="-450" rx="44.7" ry="18"/>
<text xml:space="preserve" text-anchor="middle" x="463.87" y="-444.95" font-family="Times New Roman,serif" font-size="14.00">Event ID</text>
</g>
<!-- 0&#45;&gt;1 -->
<g id="edge1" class="edge">
<title>0&#45;&gt;1</title>
<path fill="none" stroke="black" d="M114.04,-198.21C135.36,-230.67 183.81,-299.15 239.02,-342 294.68,-385.2 370.4,-417.23 417.95,-434.76"/>
<polygon fill="black" stroke="black" points="416.51,-437.96 427.11,-438.08 418.9,-431.38 416.51,-437.96"/>
</g>
<!-- 3 -->
<!-- name: &quot;Position&quot;, typeName: &quot;&quot;, id: 3, branchId: 0, recurseId: &#45;1, attributes: 0, notes: &quot;&quot; -->
<g id="node4" class="node">
<title>3</title>
<ellipse fill="none" stroke="black" cx="310.84" cy="-315" rx="41.12" ry="18"/>
<text xml:space="preserve" text-anchor="middle" x="310.84" y="-309.95" font-family="Times New Roman,serif" font-size="14.00">Position</text>
</g>
<!-- 0&#45;&gt;3 -->
<g id="edge3" class="edge">
<title>0&#45;&gt;3</title>
<path fill="none" stroke="black" d="M129.61,-197.65C167.64,-222.41 236.72,-267.39 277.42,-293.89"/>
<polygon fill="black" stroke="black" points="275.32,-296.7 285.61,-299.22 279.14,-290.83 275.32,-296.7"/>
</g>
<!-- 10 -->
<!-- name: &quot;Data&quot;, typeName: &quot;&quot;, id: 10, branchId: 0, recurseId: &#45;1, attributes: 0, notes: &quot;&quot; -->
<g id="node11" class="node">
<title>10</title>
<ellipse fill="none" stroke="black" cx="310.84" cy="-234" rx="28.32" ry="18"/>
<text xml:space="preserve" text-anchor="middle" x="310.84" y="-228.95" font-family="Times New Roman,serif" font-size="14.00">Data</text>
</g>
<!-- 0&#45;&gt;10 -->
<g id="edge10" class="edge">
<title>0&#45;&gt;10</title>
<path fill="none" stroke="black" d="M160.26,-195.04C196.44,-204.46 241.96,-216.32 273.23,-224.46"/>
<polygon fill="black" stroke="black" points="272.04,-227.77 282.6,-226.9 273.8,-221 272.04,-227.77"/>
</g>
<!-- 12 -->
<!-- name: &quot;Actor Identifier&quot;, typeName: &quot;&quot;, id: 12, branchId: 0, recurseId: &#45;1, attributes: 0, notes: &quot;&quot; -->
<g id="node13" class="node">
<title>12</title>
<ellipse fill="none" stroke="black" cx="310.84" cy="-180" rx="68.75" ry="18"/>
<text xml:space="preserve" text-anchor="middle" x="310.84" y="-174.95" font-family="Times New Roman,serif" font-size="14.00">Actor Identifier</text>
</g>
<!-- 0&#45;&gt;12 -->
<g id="edge12" class="edge">
<title>0&#45;&gt;12</title>
<path fill="none" stroke="black" d="M203.44,-180C212.46,-180 221.51,-180 230.32,-180"/>
<polygon fill="black" stroke="black" points="230.21,-183.5 240.21,-180 230.21,-176.5 230.21,-183.5"/>
</g>
<!-- 14 -->
<!-- name: &quot;Is Baby&quot;, typeName: &quot;&quot;, id: 14, branchId: 0, recurseId: &#45;1, attributes: 0, notes: &quot;&quot; -->
<g id="node15" class="node">
<title>14</title>
<ellipse fill="none" stroke="black" cx="310.84" cy="-126" rx="39.58" ry="18"/>
<text xml:space="preserve" text-anchor="middle" x="310.84" y="-120.95" font-family="Times New Roman,serif" font-size="14.00">Is Baby</text>
</g>
<!-- 0&#45;&gt;14 -->
<g id="edge14" class="edge">
<title>0&#45;&gt;14</title>
<path fill="none" stroke="black" d="M160.26,-164.96C193.34,-156.34 234.24,-145.69 264.91,-137.7"/>
<polygon fill="black" stroke="black" points="265.45,-141.18 274.24,-135.27 263.69,-134.4 265.45,-141.18"/>
</g>
<!-- 16 -->
<!-- name: &quot;Is Global&quot;, typeName: &quot;&quot;, id: 16, branchId: 0, recurseId: &#45;1, attributes: 0, notes: &quot;&quot; -->
<g id="node17" class="node">
<title>16</title>
<ellipse fill="none" stroke="black" cx="463.87" cy="-74" rx="45.21" ry="18"/>
<text xml:space="preserve" text-anchor="middle" x="463.87" y="-68.95" font-family="Times New Roman,serif" font-size="14.00">Is Global</text>
</g>
<!-- 0&#45;&gt;16 -->
<g id="edge16" class="edge">
<title>0&#45;&gt;16</title>
<path fill="none" stroke="black" d="M125.65,-162.05C151.66,-142.92 195.9,-113.45 239.02,-99 294.22,-80.5 360.93,-75.06 407.09,-73.75"/>
<polygon fill="black" stroke="black" points="406.93,-77.26 416.85,-73.53 406.77,-70.26 406.93,-77.26"/>
</g>
<!-- 18 -->
<!-- name: &quot;Actor Unique Id&quot;, typeName: &quot;&quot;, id: 18, branchId: 0, recurseId: &#45;1, attributes: 0, notes: &quot;&quot; -->
<g id="node19" class="node">
<title>18</title>
<ellipse fill="none" stroke="black" cx="310.84" cy="-24" rx="71.82" ry="18"/>
<text xml:space="preserve" text-anchor="middle" x="310.84" y="-18.95" font-family="Times New Roman,serif" font-size="14.00">Actor Unique Id</text>
</g>
<!-- 0&#45;&gt;18 -->
<g id="edge18" class="edge">
<title>0&#45;&gt;18</title>
<path fill="none" stroke="black" d="M121.45,-161.86C146.98,-137.92 194.38,-95.14 239.02,-64 248.13,-57.64 258.33,-51.42 268.09,-45.84"/>
<polygon fill="black" stroke="black" points="269.69,-48.95 276.71,-41.02 266.27,-42.84 269.69,-48.95"/>
</g>
<!-- 2 -->
<!-- name: &quot;enum LevelSoundEvent&quot;, typeName: &quot;&quot;, id: 2, branchId: 0, recurseId: &#45;1, attributes: 512, notes: &quot;&quot; -->
<g id="node3" class="node">
<title>2</title>
<ellipse fill="none" stroke="black" cx="645.57" cy="-450" rx="100.48" ry="18"/>
<text xml:space="preserve" text-anchor="middle" x="645.57" y="-444.95" font-family="Times New Roman,serif" font-size="14.00">enum LevelSoundEvent</text>
</g>
<!-- 1&#45;&gt;2 -->
<g id="edge2" class="edge">
<title>1&#45;&gt;2</title>
<path fill="none" stroke="black" d="M508.83,-450C516.49,-450 524.76,-450 533.3,-450"/>
<polygon fill="black" stroke="black" points="533.14,-453.5 543.14,-450 533.14,-446.5 533.14,-453.5"/>
</g>
<!-- 4 -->
<!-- name: &quot;X&quot;, typeName: &quot;&quot;, id: 4, branchId: 0, recurseId: &#45;1, attributes: 0, notes: &quot;&quot; -->
<g id="node5" class="node">
<title>4</title>
<ellipse fill="none" stroke="black" cx="463.87" cy="-396" rx="27" ry="18"/>
<text xml:space="preserve" text-anchor="middle" x="463.87" y="-390.95" font-family="Times New Roman,serif" font-size="14.00">X</text>
</g>
<!-- 3&#45;&gt;4 -->
<g id="edge4" class="edge">
<title>3&#45;&gt;4</title>
<path fill="none" stroke="black" d="M337.8,-328.92C363.98,-342.96 404.38,-364.63 432.14,-379.51"/>
<polygon fill="black" stroke="black" points="430.3,-382.5 440.77,-384.14 433.61,-376.33 430.3,-382.5"/>
</g>
<!-- 6 -->
<!-- name: &quot;Y&quot;, typeName: &quot;&quot;, id: 6, branchId: 0, recurseId: &#45;1, attributes: 0, notes: &quot;&quot; -->
<g id="node7" class="node">
<title>6</title>
<ellipse fill="none" stroke="black" cx="463.87" cy="-342" rx="27" ry="18"/>
<text xml:space="preserve" text-anchor="middle" x="463.87" y="-336.95" font-family="Times New Roman,serif" font-size="14.00">Y</text>
</g>
<!-- 3&#45;&gt;6 -->
<g id="edge6" class="edge">
<title>3&#45;&gt;6</title>
<path fill="none" stroke="black" d="M349.56,-321.74C373.03,-325.94 403.07,-331.31 426.31,-335.46"/>
<polygon fill="black" stroke="black" points="425.5,-338.87 435.96,-337.19 426.73,-331.98 425.5,-338.87"/>
</g>
<!-- 8 -->
<!-- name: &quot;Z&quot;, typeName: &quot;&quot;, id: 8, branchId: 0, recurseId: &#45;1, attributes: 0, notes: &quot;&quot; -->
<g id="node9" class="node">
<title>8</title>
<ellipse fill="none" stroke="black" cx="463.87" cy="-288" rx="27" ry="18"/>
<text xml:space="preserve" text-anchor="middle" x="463.87" y="-282.95" font-family="Times New Roman,serif" font-size="14.00">Z</text>
</g>
<!-- 3&#45;&gt;8 -->
<g id="edge8" class="edge">
<title>3&#45;&gt;8</title>
<path fill="none" stroke="black" d="M349.56,-308.26C373.03,-304.06 403.07,-298.69 426.31,-294.54"/>
<polygon fill="black" stroke="black" points="426.73,-298.02 435.96,-292.81 425.5,-291.13 426.73,-298.02"/>
</g>
<!-- 5 -->
<!-- name: &quot;float&quot;, typeName: &quot;&quot;, id: 5, branchId: 0, recurseId: &#45;1, attributes: 512, notes: &quot;&quot; -->
<g id="node6" class="node">
<title>5</title>
<ellipse fill="none" stroke="black" cx="645.57" cy="-396" rx="27.81" ry="18"/>
<text xml:space="preserve" text-anchor="middle" x="645.57" y="-390.95" font-family="Times New Roman,serif" font-size="14.00">float</text>
</g>
<!-- 4&#45;&gt;5 -->
<g id="edge5" class="edge">
<title>4&#45;&gt;5</title>
<path fill="none" stroke="black" d="M491,-396C521.35,-396 571.68,-396 606.4,-396"/>
<polygon fill="black" stroke="black" points="606.01,-399.5 616.01,-396 606.01,-392.5 606.01,-399.5"/>
</g>
<!-- 7 -->
<!-- name: &quot;float&quot;, typeName: &quot;&quot;, id: 7, branchId: 0, recurseId: &#45;1, attributes: 512, notes: &quot;&quot; -->
<g id="node8" class="node">
<title>7</title>
<ellipse fill="none" stroke="black" cx="645.57" cy="-342" rx="27.81" ry="18"/>
<text xml:space="preserve" text-anchor="middle" x="645.57" y="-336.95" font-family="Times New Roman,serif" font-size="14.00">float</text>
</g>
<!-- 6&#45;&gt;7 -->
<g id="edge7" class="edge">
<title>6&#45;&gt;7</title>
<path fill="none" stroke="black" d="M491,-342C521.35,-342 571.68,-342 606.4,-342"/>
<polygon fill="black" stroke="black" points="606.01,-345.5 616.01,-342 606.01,-338.5 606.01,-345.5"/>
</g>
<!-- 9 -->
<!-- name: &quot;float&quot;, typeName: &quot;&quot;, id: 9, branchId: 0, recurseId: &#45;1, attributes: 512, notes: &quot;&quot; -->
<g id="node10" class="node">
<title>9</title>
<ellipse fill="none" stroke="black" cx="645.57" cy="-288" rx="27.81" ry="18"/>
<text xml:space="preserve" text-anchor="middle" x="645.57" y="-282.95" font-family="Times New Roman,serif" font-size="14.00">float</text>
</g>
<!-- 8&#45;&gt;9 -->
<g id="edge9" class="edge">
<title>8&#45;&gt;9</title>
<path fill="none" stroke="black" d="M491,-288C521.35,-288 571.68,-288 606.4,-288"/>
<polygon fill="black" stroke="black" points="606.01,-291.5 616.01,-288 606.01,-284.5 606.01,-291.5"/>
</g>
<!-- 11 -->
<!-- name: &quot;varint&quot;, typeName: &quot;&quot;, id: 11, branchId: 0, recurseId: &#45;1, attributes: 512, notes: &quot;&quot; -->
<g id="node12" class="node">
<title>11</title>
<ellipse fill="none" stroke="black" cx="645.57" cy="-234" rx="32.41" ry="18"/>
<text xml:space="preserve" text-anchor="middle" x="645.57" y="-228.95" font-family="Times New Roman,serif" font-size="14.00">varint</text>
</g>
<!-- 10&#45;&gt;11 -->
<g id="edge11" class="edge">
<title>10&#45;&gt;11</title>
<path fill="none" stroke="black" d="M339.64,-234C397.66,-234 532.03,-234 601.4,-234"/>
<polygon fill="black" stroke="black" points="601.24,-237.5 611.24,-234 601.24,-230.5 601.24,-237.5"/>
</g>
<!-- 13 -->
<!-- name: &quot;string&quot;, typeName: &quot;&quot;, id: 13, branchId: 0, recurseId: &#45;1, attributes: 512, notes: &quot;&quot; -->
<g id="node14" class="node">
<title>13</title>
<ellipse fill="none" stroke="black" cx="645.57" cy="-180" rx="31.9" ry="18"/>
<text xml:space="preserve" text-anchor="middle" x="645.57" y="-174.95" font-family="Times New Roman,serif" font-size="14.00">string</text>
</g>
<!-- 12&#45;&gt;13 -->
<g id="edge13" class="edge">
<title>12&#45;&gt;13</title>
<path fill="none" stroke="black" d="M379.98,-180C446.54,-180 545.79,-180 601.9,-180"/>
<polygon fill="black" stroke="black" points="601.67,-183.5 611.67,-180 601.67,-176.5 601.67,-183.5"/>
</g>
<!-- 15 -->
<!-- name: &quot;bool&quot;, typeName: &quot;&quot;, id: 15, branchId: 0, recurseId: &#45;1, attributes: 512, notes: &quot;&quot; -->
<g id="node16" class="node">
<title>15</title>
<ellipse fill="none" stroke="black" cx="645.57" cy="-126" rx="27.3" ry="18"/>
<text xml:space="preserve" text-anchor="middle" x="645.57" y="-120.95" font-family="Times New Roman,serif" font-size="14.00">bool</text>
</g>
<!-- 14&#45;&gt;15 -->
<g id="edge15" class="edge">
<title>14&#45;&gt;15</title>
<path fill="none" stroke="black" d="M350.66,-126C414.92,-126 542.62,-126 606.43,-126"/>
<polygon fill="black" stroke="black" points="606.42,-129.5 616.42,-126 606.42,-122.5 606.42,-129.5"/>
</g>
<!-- 17 -->
<!-- name: &quot;bool&quot;, typeName: &quot;&quot;, id: 17, branchId: 0, recurseId: &#45;1, attributes: 512, notes: &quot;&quot; -->
<g id="node18" class="node">
<title>17</title>
<ellipse fill="none" stroke="black" cx="645.57" cy="-72" rx="27.3" ry="18"/>
<text xml:space="preserve" text-anchor="middle" x="645.57" y="-66.95" font-family="Times New Roman,serif" font-size="14.00">bool</text>
</g>
<!-- 16&#45;&gt;17 -->
<g id="edge17" class="edge">
<title>16&#45;&gt;17</title>
<path fill="none" stroke="black" d="M509.29,-73.51C539.12,-73.17 578.01,-72.74 606.44,-72.42"/>
<polygon fill="black" stroke="black" points="606.45,-75.92 616.41,-72.31 606.37,-68.93 606.45,-75.92"/>
</g>
<!-- 19 -->
<!-- name: &quot;int64&quot;, typeName: &quot;&quot;, id: 19, branchId: 0, recurseId: &#45;1, attributes: 512, notes: &quot;&quot; -->
<g id="node20" class="node">
<title>19</title>
<ellipse fill="none" stroke="black" cx="645.57" cy="-18" rx="29.86" ry="18"/>
<text xml:space="preserve" text-anchor="middle" x="645.57" y="-12.95" font-family="Times New Roman,serif" font-size="14.00">int64</text>
</g>
<!-- 18&#45;&gt;19 -->
<g id="edge19" class="edge">
<title>18&#45;&gt;19</title>
<path fill="none" stroke="black" d="M382.81,-22.72C450.2,-21.5 549.13,-19.72 604.05,-18.73"/>
<polygon fill="black" stroke="black" points="603.95,-22.23 613.89,-18.55 603.82,-15.23 603.95,-22.23"/>
</g>
</g>
</svg>
