<?xml version="1.0" encoding="UTF-8" standalone="no"?>
<!DOCTYPE svg PUBLIC "-//W3C//DTD SVG 1.1//EN"
 "http://www.w3.org/Graphics/SVG/1.1/DTD/svg11.dtd">
<!-- Generated by graphviz version 12.2.1 (20241206.2353)
 -->
<!-- Title: LevelEventPacket Pages: 1 -->
<svg width="386pt" height="152pt"
 viewBox="0.00 0.00 386.06 152.00" xmlns="http://www.w3.org/2000/svg" xmlns:xlink="http://www.w3.org/1999/xlink">
<g id="graph0" class="graph" transform="scale(1 1) rotate(0) translate(4 148)">
<title>LevelEventPacket</title>
<polygon fill="white" stroke="none" points="-4,4 -4,-148 382.06,-148 382.06,4 -4,4"/>
<!-- 0 -->
<!-- name: &quot;LevelEventPacket&quot;, typeName: &quot;&quot;, id: 0, branchId: 25, recurseId: &#45;1, attributes: 0, notes: &quot;&quot; -->
<g id="node1" class="node">
<title>0</title>
<ellipse fill="none" stroke="black" cx="77.97" cy="-72" rx="77.97" ry="18"/>
<text text-anchor="middle" x="77.97" y="-66.95" font-family="Times New Roman,serif" font-size="14.00">LevelEventPacket</text>
</g>
<!-- 1 -->
<!-- name: &quot;Event Id&quot;, typeName: &quot;&quot;, id: 1, branchId: 0, recurseId: &#45;1, attributes: 0, notes: &quot;&quot; -->
<g id="node2" class="node">
<title>1</title>
<ellipse fill="none" stroke="black" cx="234.58" cy="-126" rx="42.65" ry="18"/>
<text text-anchor="middle" x="234.58" y="-120.95" font-family="Times New Roman,serif" font-size="14.00">Event Id</text>
</g>
<!-- 0&#45;&gt;1 -->
<g id="edge1" class="edge">
<title>0&#45;&gt;1</title>
<path fill="none" stroke="black" d="M122.45,-87.19C143.74,-94.62 169.31,-103.55 190.54,-110.97"/>
<polygon fill="black" stroke="black" points="189.19,-114.2 199.78,-114.2 191.49,-107.59 189.19,-114.2"/>
</g>
<!-- 3 -->
<!-- name: &quot;Position&quot;, typeName: &quot;Vec3&quot;, id: 3, branchId: 0, recurseId: &#45;1, attributes: 256, notes: &quot;Note about Event ID: Legacy particles use the @enums.html#Particle Type@ enum |ed with ParticleLegacyEvent(0x4000)&quot; -->
<g id="node4" class="node">
<title>3</title>
<ellipse fill="none" stroke="black" cx="234.58" cy="-72" rx="41.12" ry="18"/>
<text text-anchor="middle" x="234.58" y="-66.95" font-family="Times New Roman,serif" font-size="14.00">Position</text>
</g>
<!-- 0&#45;&gt;3 -->
<g id="edge3" class="edge">
<title>0&#45;&gt;3</title>
<path fill="none" stroke="black" d="M156.27,-72C165,-72 173.72,-72 182,-72"/>
<polygon fill="black" stroke="black" points="181.85,-75.5 191.85,-72 181.85,-68.5 181.85,-75.5"/>
</g>
<!-- 5 -->
<!-- name: &quot;Data&quot;, typeName: &quot;&quot;, id: 5, branchId: 0, recurseId: &#45;1, attributes: 0, notes: &quot;&quot; -->
<g id="node6" class="node">
<title>5</title>
<ellipse fill="none" stroke="black" cx="234.58" cy="-18" rx="28.32" ry="18"/>
<text text-anchor="middle" x="234.58" y="-12.95" font-family="Times New Roman,serif" font-size="14.00">Data</text>
</g>
<!-- 0&#45;&gt;5 -->
<g id="edge5" class="edge">
<title>0&#45;&gt;5</title>
<path fill="none" stroke="black" d="M122.45,-56.81C146.44,-48.43 175.85,-38.16 198.38,-30.29"/>
<polygon fill="black" stroke="black" points="199.44,-33.63 207.73,-27.03 197.13,-27.02 199.44,-33.63"/>
</g>
<!-- 2 -->
<!-- name: &quot;varint&quot;, typeName: &quot;&quot;, id: 2, branchId: 0, recurseId: &#45;1, attributes: 512, notes: &quot;&quot; -->
<g id="node3" class="node">
<title>2</title>
<ellipse fill="none" stroke="black" cx="345.65" cy="-126" rx="32.41" ry="18"/>
<text text-anchor="middle" x="345.65" y="-120.95" font-family="Times New Roman,serif" font-size="14.00">varint</text>
</g>
<!-- 1&#45;&gt;2 -->
<g id="edge2" class="edge">
<title>1&#45;&gt;2</title>
<path fill="none" stroke="black" d="M277.44,-126C285.35,-126 293.64,-126 301.58,-126"/>
<polygon fill="black" stroke="black" points="301.39,-129.5 311.39,-126 301.39,-122.5 301.39,-129.5"/>
</g>
<!-- 4 -->
<!-- name: &quot;Vec3&quot;, typeName: &quot;&quot;, id: 4, branchId: 0, recurseId: &#45;1, attributes: 512, notes: &quot;&quot; -->
<g id="node5" class="node">
<title>4</title>
<ellipse fill="none" stroke="black" cx="345.65" cy="-72" rx="29.34" ry="18"/>
<text text-anchor="middle" x="345.65" y="-66.95" font-family="Times New Roman,serif" font-size="14.00">Vec3</text>
</g>
<!-- 3&#45;&gt;4 -->
<g id="edge4" class="edge">
<title>3&#45;&gt;4</title>
<path fill="none" stroke="black" d="M276.19,-72C285.48,-72 295.34,-72 304.6,-72"/>
<polygon fill="black" stroke="black" points="304.4,-75.5 314.4,-72 304.4,-68.5 304.4,-75.5"/>
</g>
<!-- 6 -->
<!-- name: &quot;varint&quot;, typeName: &quot;&quot;, id: 6, branchId: 0, recurseId: &#45;1, attributes: 512, notes: &quot;&quot; -->
<g id="node7" class="node">
<title>6</title>
<ellipse fill="none" stroke="black" cx="345.65" cy="-18" rx="32.41" ry="18"/>
<text text-anchor="middle" x="345.65" y="-12.95" font-family="Times New Roman,serif" font-size="14.00">varint</text>
</g>
<!-- 5&#45;&gt;6 -->
<g id="edge6" class="edge">
<title>5&#45;&gt;6</title>
<path fill="none" stroke="black" d="M263.39,-18C274.98,-18 288.72,-18 301.57,-18"/>
<polygon fill="black" stroke="black" points="301.52,-21.5 311.52,-18 301.52,-14.5 301.52,-21.5"/>
</g>
</g>
</svg>
