<?xml version="1.0" encoding="UTF-8" standalone="no"?>
<!DOCTYPE svg PUBLIC "-//W3C//DTD SVG 1.1//EN"
 "http://www.w3.org/Graphics/SVG/1.1/DTD/svg11.dtd">
<!-- Generated by graphviz version 2.46.1 (20210213.1702)
 -->
<!-- Title: LevelChunkPacket Pages: 1 -->
<svg width="1816pt" height="584pt"
 viewBox="0.00 0.00 1816.02 584.00" xmlns="http://www.w3.org/2000/svg" xmlns:xlink="http://www.w3.org/1999/xlink">
<g id="graph0" class="graph" transform="scale(1 1) rotate(0) translate(4 580)">
<title>LevelChunkPacket</title>
<polygon fill="white" stroke="transparent" points="-4,4 -4,-580 1812.02,-580 1812.02,4 -4,4"/>
<!-- 0 -->
<!-- name: &quot;LevelChunkPacket&quot;, typeName: &quot;&quot;, id: 0, branchId: 58, recurseId: &#45;1, attributes: 0, notes: &quot;&quot; -->
<g id="node1" class="node">
<title>0</title>
<ellipse fill="none" stroke="black" cx="78.64" cy="-315" rx="78.79" ry="18"/>
<text text-anchor="middle" x="78.64" y="-311.3" font-family="Times New Roman,serif" font-size="14.00">LevelChunkPacket</text>
</g>
<!-- 1 -->
<!-- name: &quot;Chunk Position&quot;, typeName: &quot;ChunkPos&quot;, id: 1, branchId: 0, recurseId: &#45;1, attributes: 256, notes: &quot;&quot; -->
<g id="node2" class="node">
<title>1</title>
<ellipse fill="none" stroke="black" cx="871.88" cy="-554" rx="66.89" ry="18"/>
<text text-anchor="middle" x="871.88" y="-550.3" font-family="Times New Roman,serif" font-size="14.00">Chunk Position</text>
</g>
<!-- 0&#45;&gt;1 -->
<g id="edge1" class="edge">
<title>0&#45;&gt;1</title>
<path fill="none" stroke="black" d="M94.22,-332.73C114.15,-355.76 152.15,-395.55 193.29,-417 392.99,-521.16 664.04,-546.23 794.5,-552.19"/>
<polygon fill="black" stroke="black" points="794.65,-555.7 804.79,-552.63 794.95,-548.71 794.65,-555.7"/>
</g>
<!-- 8 -->
<!-- name: &quot;Dimension Id&quot;, typeName: &quot;&quot;, id: 8, branchId: 0, recurseId: &#45;1, attributes: 0, notes: &quot;&quot; -->
<g id="node4" class="node">
<title>8</title>
<ellipse fill="none" stroke="black" cx="616.08" cy="-475" rx="59.59" ry="18"/>
<text text-anchor="middle" x="616.08" y="-471.3" font-family="Times New Roman,serif" font-size="14.00">Dimension Id</text>
</g>
<!-- 0&#45;&gt;8 -->
<g id="edge3" class="edge">
<title>0&#45;&gt;8</title>
<path fill="none" stroke="black" d="M120.17,-330.41C141.75,-338.42 168.82,-348.15 193.29,-356 323.72,-397.87 479.33,-439.71 560.17,-460.85"/>
<polygon fill="black" stroke="black" points="559.57,-464.31 570.13,-463.45 561.34,-457.53 559.57,-464.31"/>
</g>
<!-- 10 -->
<!-- name: &quot;Dependency on &#39;Client Needs To Request Subchunks?&#39;&quot;, typeName: &quot;&quot;, id: 10, branchId: 0, recurseId: &#45;1, attributes: 2, notes: &quot;&quot; -->
<g id="node6" class="node">
<title>10</title>
<polygon fill="none" stroke="black" points="514.29,-347 193.29,-347 193.29,-311 520.29,-311 520.29,-341 514.29,-347"/>
<polyline fill="none" stroke="black" points="514.29,-347 514.29,-341 "/>
<polyline fill="none" stroke="black" points="520.29,-341 514.29,-341 "/>
<text text-anchor="middle" x="356.79" y="-325.3" font-family="Times New Roman,serif" font-size="14.00">Dependency on &#39;Client Needs To Request Subchunks?&#39;</text>
</g>
<!-- 0&#45;&gt;10 -->
<g id="edge5" class="edge">
<title>0&#45;&gt;10</title>
<path fill="none" stroke="black" d="M155.83,-318.86C164.51,-319.3 173.59,-319.76 182.91,-320.24"/>
<polygon fill="black" stroke="black" points="182.93,-323.74 193.09,-320.75 183.28,-316.75 182.93,-323.74"/>
</g>
<!-- 24 -->
<!-- name: &quot;Cache Enabled&quot;, typeName: &quot;&quot;, id: 24, branchId: 0, recurseId: &#45;1, attributes: 0, notes: &quot;Lets the server turn off the cache for this chunk even if the Client signaled it supports it.&quot; -->
<g id="node20" class="node">
<title>24</title>
<ellipse fill="none" stroke="black" cx="356.79" cy="-261" rx="65.79" ry="18"/>
<text text-anchor="middle" x="356.79" y="-257.3" font-family="Times New Roman,serif" font-size="14.00">Cache Enabled</text>
</g>
<!-- 0&#45;&gt;24 -->
<g id="edge19" class="edge">
<title>0&#45;&gt;24</title>
<path fill="none" stroke="black" d="M138.88,-303.42C184.21,-294.55 246.58,-282.36 292.81,-273.31"/>
<polygon fill="black" stroke="black" points="293.57,-276.73 302.71,-271.38 292.23,-269.86 293.57,-276.73"/>
</g>
<!-- 26 -->
<!-- name: &quot;Dependency on &#39;Cache Enabled?&#39;&quot;, typeName: &quot;&quot;, id: 26, branchId: 0, recurseId: &#45;1, attributes: 2, notes: &quot;&quot; -->
<g id="node22" class="node">
<title>26</title>
<polygon fill="none" stroke="black" points="452.79,-198 254.79,-198 254.79,-162 458.79,-162 458.79,-192 452.79,-198"/>
<polyline fill="none" stroke="black" points="452.79,-198 452.79,-192 "/>
<polyline fill="none" stroke="black" points="458.79,-192 452.79,-192 "/>
<text text-anchor="middle" x="356.79" y="-176.3" font-family="Times New Roman,serif" font-size="14.00">Dependency on &#39;Cache Enabled?&#39;</text>
</g>
<!-- 0&#45;&gt;26 -->
<g id="edge21" class="edge">
<title>0&#45;&gt;26</title>
<path fill="none" stroke="black" d="M100.2,-297.45C122.08,-279.49 158.29,-251.78 193.29,-234 219.37,-220.75 249.41,-209.71 276.52,-201.13"/>
<polygon fill="black" stroke="black" points="277.84,-204.39 286.36,-198.08 275.77,-197.7 277.84,-204.39"/>
</g>
<!-- 36 -->
<!-- name: &quot;Serialized Chunk Data&quot;, typeName: &quot;&quot;, id: 36, branchId: 0, recurseId: &#45;1, attributes: 0, notes: &quot;See https://gist.github.com/Tomcc/a96af509e275b1af483b25c543cfbf37&quot; -->
<g id="node32" class="node">
<title>36</title>
<ellipse fill="none" stroke="black" cx="356.79" cy="-72" rx="90.98" ry="18"/>
<text text-anchor="middle" x="356.79" y="-68.3" font-family="Times New Roman,serif" font-size="14.00">Serialized Chunk Data</text>
</g>
<!-- 0&#45;&gt;36 -->
<g id="edge31" class="edge">
<title>0&#45;&gt;36</title>
<path fill="none" stroke="black" d="M88.41,-297C104.98,-264.56 143.69,-195.7 193.29,-153 224.92,-125.77 267.31,-105.03 300.86,-91.36"/>
<polygon fill="black" stroke="black" points="302.53,-94.47 310.52,-87.52 299.94,-87.96 302.53,-94.47"/>
</g>
<!-- 7 -->
<!-- name: &quot;ChunkPos&quot;, typeName: &quot;&quot;, id: 7, branchId: 0, recurseId: &#45;1, attributes: 512, notes: &quot;&quot; -->
<g id="node3" class="node">
<title>7</title>
<ellipse fill="none" stroke="black" cx="1742.37" cy="-558" rx="48.99" ry="18"/>
<text text-anchor="middle" x="1742.37" y="-554.3" font-family="Times New Roman,serif" font-size="14.00">ChunkPos</text>
</g>
<!-- 1&#45;&gt;7 -->
<g id="edge2" class="edge">
<title>1&#45;&gt;7</title>
<path fill="none" stroke="black" d="M938.87,-554.3C1103.04,-555.06 1527.78,-557.02 1683.25,-557.73"/>
<polygon fill="black" stroke="black" points="1683.52,-561.23 1693.53,-557.78 1683.55,-554.23 1683.52,-561.23"/>
</g>
<!-- 9 -->
<!-- name: &quot;varint&quot;, typeName: &quot;&quot;, id: 9, branchId: 0, recurseId: &#45;1, attributes: 512, notes: &quot;&quot; -->
<g id="node5" class="node">
<title>9</title>
<ellipse fill="none" stroke="black" cx="1742.37" cy="-504" rx="30.59" ry="18"/>
<text text-anchor="middle" x="1742.37" y="-500.3" font-family="Times New Roman,serif" font-size="14.00">varint</text>
</g>
<!-- 8&#45;&gt;9 -->
<g id="edge4" class="edge">
<title>8&#45;&gt;9</title>
<path fill="none" stroke="black" d="M675.94,-476.52C876.98,-481.7 1533.27,-498.63 1701.69,-502.98"/>
<polygon fill="black" stroke="black" points="1701.76,-506.48 1711.85,-503.24 1701.94,-499.48 1701.76,-506.48"/>
</g>
<!-- 11 -->
<!-- name: &quot;if (0)&quot;, typeName: &quot;&quot;, id: 11, branchId: 0, recurseId: &#45;1, attributes: 4, notes: &quot;&quot; -->
<g id="node7" class="node">
<title>11</title>
<polygon fill="none" stroke="black" points="616.08,-411 575.69,-393 616.08,-375 656.47,-393 616.08,-411"/>
<text text-anchor="middle" x="616.08" y="-389.3" font-family="Times New Roman,serif" font-size="14.00">if (0)</text>
</g>
<!-- 10&#45;&gt;11 -->
<g id="edge6" class="edge">
<title>10&#45;&gt;11</title>
<path fill="none" stroke="black" d="M430.48,-347.08C479.25,-359.21 541.33,-374.66 579.63,-384.18"/>
<polygon fill="black" stroke="black" points="579.22,-387.69 589.77,-386.7 580.91,-380.89 579.22,-387.69"/>
</g>
<!-- 14 -->
<!-- name: &quot;if (1)&quot;, typeName: &quot;&quot;, id: 14, branchId: 1, recurseId: &#45;1, attributes: 4, notes: &quot;&quot; -->
<g id="node10" class="node">
<title>14</title>
<polygon fill="none" stroke="black" points="616.08,-347 575.69,-329 616.08,-311 656.47,-329 616.08,-347"/>
<text text-anchor="middle" x="616.08" y="-325.3" font-family="Times New Roman,serif" font-size="14.00">if (1)</text>
</g>
<!-- 10&#45;&gt;14 -->
<g id="edge9" class="edge">
<title>10&#45;&gt;14</title>
<path fill="none" stroke="black" d="M520.37,-329C536.47,-329 551.81,-329 565.28,-329"/>
<polygon fill="black" stroke="black" points="565.65,-332.5 575.65,-329 565.65,-325.5 565.65,-332.5"/>
</g>
<!-- 12 -->
<!-- name: &quot;Sub&#45;chunks Count&quot;, typeName: &quot;&quot;, id: 12, branchId: 0, recurseId: &#45;1, attributes: 0, notes: &quot;&quot; -->
<g id="node8" class="node">
<title>12</title>
<ellipse fill="none" stroke="black" cx="1147.17" cy="-423" rx="79.09" ry="18"/>
<text text-anchor="middle" x="1147.17" y="-419.3" font-family="Times New Roman,serif" font-size="14.00">Sub&#45;chunks Count</text>
</g>
<!-- 11&#45;&gt;12 -->
<g id="edge7" class="edge">
<title>11&#45;&gt;12</title>
<path fill="none" stroke="black" d="M652.21,-394.99C734.51,-399.66 941.79,-411.41 1060.03,-418.12"/>
<polygon fill="black" stroke="black" points="1059.95,-421.62 1070.14,-418.69 1060.35,-414.63 1059.95,-421.62"/>
</g>
<!-- 13 -->
<!-- name: &quot;unsigned varint&quot;, typeName: &quot;&quot;, id: 13, branchId: 0, recurseId: &#45;1, attributes: 512, notes: &quot;&quot; -->
<g id="node9" class="node">
<title>13</title>
<ellipse fill="none" stroke="black" cx="1742.37" cy="-450" rx="65.79" ry="18"/>
<text text-anchor="middle" x="1742.37" y="-446.3" font-family="Times New Roman,serif" font-size="14.00">unsigned varint</text>
</g>
<!-- 12&#45;&gt;13 -->
<g id="edge8" class="edge">
<title>12&#45;&gt;13</title>
<path fill="none" stroke="black" d="M1225.11,-426.5C1339.72,-431.72 1553.87,-441.47 1666.98,-446.61"/>
<polygon fill="black" stroke="black" points="1667.12,-450.12 1677.27,-447.08 1667.44,-443.13 1667.12,-450.12"/>
</g>
<!-- 15 -->
<!-- name: &quot;Dependency on &#39;Client Request SubChunk Limit &lt; 0?&#39;&quot;, typeName: &quot;&quot;, id: 15, branchId: 0, recurseId: &#45;1, attributes: 2, notes: &quot;&quot; -->
<g id="node11" class="node">
<title>15</title>
<polygon fill="none" stroke="black" points="1025.88,-347 711.88,-347 711.88,-311 1031.88,-311 1031.88,-341 1025.88,-347"/>
<polyline fill="none" stroke="black" points="1025.88,-347 1025.88,-341 "/>
<polyline fill="none" stroke="black" points="1031.88,-341 1025.88,-341 "/>
<text text-anchor="middle" x="871.88" y="-325.3" font-family="Times New Roman,serif" font-size="14.00">Dependency on &#39;Client Request SubChunk Limit &lt; 0?&#39;</text>
</g>
<!-- 14&#45;&gt;15 -->
<g id="edge10" class="edge">
<title>14&#45;&gt;15</title>
<path fill="none" stroke="black" d="M656.74,-329C669.72,-329 685.08,-329 701.5,-329"/>
<polygon fill="black" stroke="black" points="701.86,-332.5 711.86,-329 701.86,-325.5 701.86,-332.5"/>
</g>
<!-- 16 -->
<!-- name: &quot;if (0)&quot;, typeName: &quot;&quot;, id: 16, branchId: 0, recurseId: &#45;1, attributes: 4, notes: &quot;&quot; -->
<g id="node12" class="node">
<title>16</title>
<polygon fill="none" stroke="black" points="1147.17,-360 1106.78,-342 1147.17,-324 1187.55,-342 1147.17,-360"/>
<text text-anchor="middle" x="1147.17" y="-338.3" font-family="Times New Roman,serif" font-size="14.00">if (0)</text>
</g>
<!-- 15&#45;&gt;16 -->
<g id="edge11" class="edge">
<title>15&#45;&gt;16</title>
<path fill="none" stroke="black" d="M1032.25,-336.58C1057.07,-337.76 1080.86,-338.89 1100.22,-339.81"/>
<polygon fill="black" stroke="black" points="1100.05,-343.31 1110.21,-340.29 1100.38,-336.32 1100.05,-343.31"/>
</g>
<!-- 21 -->
<!-- name: &quot;if (1)&quot;, typeName: &quot;&quot;, id: 21, branchId: 1, recurseId: &#45;1, attributes: 4, notes: &quot;&quot; -->
<g id="node17" class="node">
<title>21</title>
<polygon fill="none" stroke="black" points="1147.17,-306 1106.78,-288 1147.17,-270 1187.55,-288 1147.17,-306"/>
<text text-anchor="middle" x="1147.17" y="-284.3" font-family="Times New Roman,serif" font-size="14.00">if (1)</text>
</g>
<!-- 15&#45;&gt;21 -->
<g id="edge16" class="edge">
<title>15&#45;&gt;21</title>
<path fill="none" stroke="black" d="M993.14,-310.96C1033.88,-304.85 1076.59,-298.44 1106.5,-293.95"/>
<polygon fill="black" stroke="black" points="1107.15,-297.39 1116.52,-292.45 1106.11,-290.47 1107.15,-297.39"/>
</g>
<!-- 17 -->
<!-- name: &quot;Partial SubChunk Count When Client Requesting&quot;, typeName: &quot;&quot;, id: 17, branchId: 0, recurseId: &#45;1, attributes: 0, notes: &quot;Currently max unsigned 32&#45;bit int&quot; -->
<g id="node13" class="node">
<title>17</title>
<ellipse fill="none" stroke="black" cx="1451.59" cy="-396" rx="189.27" ry="18"/>
<text text-anchor="middle" x="1451.59" y="-392.3" font-family="Times New Roman,serif" font-size="14.00">Partial SubChunk Count When Client Requesting</text>
</g>
<!-- 16&#45;&gt;17 -->
<g id="edge12" class="edge">
<title>16&#45;&gt;17</title>
<path fill="none" stroke="black" d="M1173,-348.54C1196.06,-354.46 1231.41,-363.12 1262.46,-369 1283.69,-373.02 1306.36,-376.75 1328.36,-380.08"/>
<polygon fill="black" stroke="black" points="1328,-383.56 1338.41,-381.58 1329.03,-376.64 1328,-383.56"/>
</g>
<!-- 19 -->
<!-- name: &quot;Client Request SubChunk Limit&quot;, typeName: &quot;&quot;, id: 19, branchId: 0, recurseId: &#45;1, attributes: 0, notes: &quot;&quot; -->
<g id="node15" class="node">
<title>19</title>
<ellipse fill="none" stroke="black" cx="1451.59" cy="-342" rx="126.18" ry="18"/>
<text text-anchor="middle" x="1451.59" y="-338.3" font-family="Times New Roman,serif" font-size="14.00">Client Request SubChunk Limit</text>
</g>
<!-- 16&#45;&gt;19 -->
<g id="edge14" class="edge">
<title>16&#45;&gt;19</title>
<path fill="none" stroke="black" d="M1187.71,-342C1220.37,-342 1268.75,-342 1315.13,-342"/>
<polygon fill="black" stroke="black" points="1315.3,-345.5 1325.3,-342 1315.3,-338.5 1315.3,-345.5"/>
</g>
<!-- 18 -->
<!-- name: &quot;unsigned varint&quot;, typeName: &quot;&quot;, id: 18, branchId: 0, recurseId: &#45;1, attributes: 512, notes: &quot;&quot; -->
<g id="node14" class="node">
<title>18</title>
<ellipse fill="none" stroke="black" cx="1742.37" cy="-396" rx="65.79" ry="18"/>
<text text-anchor="middle" x="1742.37" y="-392.3" font-family="Times New Roman,serif" font-size="14.00">unsigned varint</text>
</g>
<!-- 17&#45;&gt;18 -->
<g id="edge13" class="edge">
<title>17&#45;&gt;18</title>
<path fill="none" stroke="black" d="M1640.78,-396C1649.61,-396 1658.2,-396 1666.4,-396"/>
<polygon fill="black" stroke="black" points="1666.57,-399.5 1676.57,-396 1666.57,-392.5 1666.57,-399.5"/>
</g>
<!-- 20 -->
<!-- name: &quot;unsigned short&quot;, typeName: &quot;&quot;, id: 20, branchId: 0, recurseId: &#45;1, attributes: 512, notes: &quot;&quot; -->
<g id="node16" class="node">
<title>20</title>
<ellipse fill="none" stroke="black" cx="1742.37" cy="-342" rx="63.89" ry="18"/>
<text text-anchor="middle" x="1742.37" y="-338.3" font-family="Times New Roman,serif" font-size="14.00">unsigned short</text>
</g>
<!-- 19&#45;&gt;20 -->
<g id="edge15" class="edge">
<title>19&#45;&gt;20</title>
<path fill="none" stroke="black" d="M1578,-342C1608.77,-342 1640.71,-342 1668.11,-342"/>
<polygon fill="black" stroke="black" points="1668.37,-345.5 1678.37,-342 1668.37,-338.5 1668.37,-345.5"/>
</g>
<!-- 22 -->
<!-- name: &quot;SubChunk Count When Client Requesting&quot;, typeName: &quot;&quot;, id: 22, branchId: 0, recurseId: &#45;1, attributes: 0, notes: &quot;Currently max unsigned 32&#45;bit int&quot; -->
<g id="node18" class="node">
<title>22</title>
<ellipse fill="none" stroke="black" cx="1451.59" cy="-288" rx="164.37" ry="18"/>
<text text-anchor="middle" x="1451.59" y="-284.3" font-family="Times New Roman,serif" font-size="14.00">SubChunk Count When Client Requesting</text>
</g>
<!-- 21&#45;&gt;22 -->
<g id="edge17" class="edge">
<title>21&#45;&gt;22</title>
<path fill="none" stroke="black" d="M1187.71,-288C1211.36,-288 1243.24,-288 1276.64,-288"/>
<polygon fill="black" stroke="black" points="1277.05,-291.5 1287.05,-288 1277.05,-284.5 1277.05,-291.5"/>
</g>
<!-- 23 -->
<!-- name: &quot;unsigned varint&quot;, typeName: &quot;&quot;, id: 23, branchId: 0, recurseId: &#45;1, attributes: 512, notes: &quot;&quot; -->
<g id="node19" class="node">
<title>23</title>
<ellipse fill="none" stroke="black" cx="1742.37" cy="-288" rx="65.79" ry="18"/>
<text text-anchor="middle" x="1742.37" y="-284.3" font-family="Times New Roman,serif" font-size="14.00">unsigned varint</text>
</g>
<!-- 22&#45;&gt;23 -->
<g id="edge18" class="edge">
<title>22&#45;&gt;23</title>
<path fill="none" stroke="black" d="M1616.39,-288C1633.83,-288 1650.88,-288 1666.51,-288"/>
<polygon fill="black" stroke="black" points="1666.56,-291.5 1676.56,-288 1666.56,-284.5 1666.56,-291.5"/>
</g>
<!-- 25 -->
<!-- name: &quot;bool&quot;, typeName: &quot;&quot;, id: 25, branchId: 0, recurseId: &#45;1, attributes: 512, notes: &quot;&quot; -->
<g id="node21" class="node">
<title>25</title>
<ellipse fill="none" stroke="black" cx="1742.37" cy="-234" rx="27.1" ry="18"/>
<text text-anchor="middle" x="1742.37" y="-230.3" font-family="Times New Roman,serif" font-size="14.00">bool</text>
</g>
<!-- 24&#45;&gt;25 -->
<g id="edge20" class="edge">
<title>24&#45;&gt;25</title>
<path fill="none" stroke="black" d="M419.73,-255.63C516.11,-247.76 707.86,-234 870.88,-234 870.88,-234 870.88,-234 1148.17,-234 1358.93,-234 1611.81,-234 1704.78,-234"/>
<polygon fill="black" stroke="black" points="1705.06,-237.5 1715.06,-234 1705.06,-230.5 1705.06,-237.5"/>
</g>
<!-- 27 -->
<!-- name: &quot;if (0)&quot;, typeName: &quot;&quot;, id: 27, branchId: 0, recurseId: &#45;1, attributes: 4, notes: &quot;&quot; -->
<g id="node23" class="node">
<title>27</title>
<polygon fill="none" stroke="black" points="871.88,-198 831.49,-180 871.88,-162 912.26,-180 871.88,-198"/>
<text text-anchor="middle" x="871.88" y="-176.3" font-family="Times New Roman,serif" font-size="14.00">if (0)</text>
</g>
<!-- 26&#45;&gt;27 -->
<g id="edge22" class="edge">
<title>26&#45;&gt;27</title>
<path fill="none" stroke="black" d="M458.85,-180C568.04,-180 737.56,-180 821.01,-180"/>
<polygon fill="black" stroke="black" points="821.24,-183.5 831.24,-180 821.24,-176.5 821.24,-183.5"/>
</g>
<!-- 29 -->
<!-- name: &quot;if (1)&quot;, typeName: &quot;&quot;, id: 29, branchId: 1, recurseId: &#45;1, attributes: 4, notes: &quot;&quot; -->
<g id="node25" class="node">
<title>29</title>
<polygon fill="none" stroke="black" points="616.08,-148 575.69,-130 616.08,-112 656.47,-130 616.08,-148"/>
<text text-anchor="middle" x="616.08" y="-126.3" font-family="Times New Roman,serif" font-size="14.00">if (1)</text>
</g>
<!-- 26&#45;&gt;29 -->
<g id="edge24" class="edge">
<title>26&#45;&gt;29</title>
<path fill="none" stroke="black" d="M450.68,-161.95C494.45,-153.44 544.22,-143.77 577.42,-137.32"/>
<polygon fill="black" stroke="black" points="578.44,-140.69 587.59,-135.34 577.11,-133.81 578.44,-140.69"/>
</g>
<!-- 28 -->
<!-- name: &quot;[No Data]&quot;, typeName: &quot;&quot;, id: 28, branchId: 0, recurseId: &#45;1, attributes: 512, notes: &quot;&quot; -->
<g id="node24" class="node">
<title>28</title>
<ellipse fill="none" stroke="black" cx="1742.37" cy="-180" rx="46.59" ry="18"/>
<text text-anchor="middle" x="1742.37" y="-176.3" font-family="Times New Roman,serif" font-size="14.00">[No Data]</text>
</g>
<!-- 27&#45;&gt;28 -->
<g id="edge23" class="edge">
<title>27&#45;&gt;28</title>
<path fill="none" stroke="black" d="M912.45,-180C1052.08,-180 1522.03,-180 1685.09,-180"/>
<polygon fill="black" stroke="black" points="1685.38,-183.5 1695.38,-180 1685.38,-176.5 1685.38,-183.5"/>
</g>
<!-- 30 -->
<!-- name: &quot;Cache Blobs&quot;, typeName: &quot;&quot;, id: 30, branchId: 0, recurseId: &#45;1, attributes: 8, notes: &quot;&quot; -->
<g id="node26" class="node">
<title>30</title>
<ellipse fill="none" stroke="black" cx="871.88" cy="-126" rx="57.69" ry="18"/>
<text text-anchor="middle" x="871.88" y="-122.3" font-family="Times New Roman,serif" font-size="14.00">Cache Blobs</text>
</g>
<!-- 29&#45;&gt;30 -->
<g id="edge25" class="edge">
<title>29&#45;&gt;30</title>
<path fill="none" stroke="black" d="M655.35,-129.4C694.57,-128.78 756.35,-127.81 803.73,-127.06"/>
<polygon fill="black" stroke="black" points="803.97,-130.56 813.91,-126.9 803.86,-123.56 803.97,-130.56"/>
</g>
<!-- 31 -->
<!-- name: &quot;Blob Count&quot;, typeName: &quot;&quot;, id: 31, branchId: 0, recurseId: &#45;1, attributes: 0, notes: &quot;How many cache blobs make up this chunk.&quot; -->
<g id="node27" class="node">
<title>31</title>
<ellipse fill="none" stroke="black" cx="1451.59" cy="-126" rx="53.09" ry="18"/>
<text text-anchor="middle" x="1451.59" y="-122.3" font-family="Times New Roman,serif" font-size="14.00">Blob Count</text>
</g>
<!-- 30&#45;&gt;31 -->
<g id="edge26" class="edge">
<title>30&#45;&gt;31</title>
<path fill="none" stroke="black" d="M929.85,-126C1038.61,-126 1275.04,-126 1388.02,-126"/>
<polygon fill="black" stroke="black" points="1388.24,-129.5 1398.24,-126 1388.24,-122.5 1388.24,-129.5"/>
</g>
<!-- 33 -->
<!-- name: &quot;example element&quot;, typeName: &quot;&quot;, id: 33, branchId: 0, recurseId: &#45;1, attributes: 16, notes: &quot;&quot; -->
<g id="node29" class="node">
<title>33</title>
<ellipse fill="none" stroke="black" stroke-dasharray="1,5" cx="1147.17" cy="-76" rx="70.39" ry="18"/>
<text text-anchor="middle" x="1147.17" y="-72.3" font-family="Times New Roman,serif" font-size="14.00">example element</text>
</g>
<!-- 30&#45;&gt;33 -->
<g id="edge28" class="edge">
<title>30&#45;&gt;33</title>
<path fill="none" stroke="black" d="M922.05,-117C965.95,-108.97 1030.64,-97.14 1079.24,-88.24"/>
<polygon fill="black" stroke="black" points="1080.15,-91.64 1089.36,-86.39 1078.89,-84.75 1080.15,-91.64"/>
</g>
<!-- 32 -->
<!-- name: &quot;unsigned varint&quot;, typeName: &quot;&quot;, id: 32, branchId: 0, recurseId: &#45;1, attributes: 512, notes: &quot;&quot; -->
<g id="node28" class="node">
<title>32</title>
<ellipse fill="none" stroke="black" cx="1742.37" cy="-126" rx="65.79" ry="18"/>
<text text-anchor="middle" x="1742.37" y="-122.3" font-family="Times New Roman,serif" font-size="14.00">unsigned varint</text>
</g>
<!-- 31&#45;&gt;32 -->
<g id="edge27" class="edge">
<title>31&#45;&gt;32</title>
<path fill="none" stroke="black" d="M1504.89,-126C1549.98,-126 1615.62,-126 1666.32,-126"/>
<polygon fill="black" stroke="black" points="1666.57,-129.5 1676.57,-126 1666.57,-122.5 1666.57,-129.5"/>
</g>
<!-- 34 -->
<!-- name: &quot;Blob Id&quot;, typeName: &quot;&quot;, id: 34, branchId: 0, recurseId: &#45;1, attributes: 0, notes: &quot;See ClientCacheProtocol.md, included with the documentation for 1.12.0.2&quot; -->
<g id="node30" class="node">
<title>34</title>
<ellipse fill="none" stroke="black" cx="1451.59" cy="-72" rx="38.19" ry="18"/>
<text text-anchor="middle" x="1451.59" y="-68.3" font-family="Times New Roman,serif" font-size="14.00">Blob Id</text>
</g>
<!-- 33&#45;&gt;34 -->
<g id="edge29" class="edge">
<title>33&#45;&gt;34</title>
<path fill="none" stroke="black" d="M1217.55,-75.08C1274.21,-74.33 1352.8,-73.29 1402.67,-72.63"/>
<polygon fill="black" stroke="black" points="1402.91,-76.13 1412.86,-72.5 1402.82,-69.13 1402.91,-76.13"/>
</g>
<!-- 35 -->
<!-- name: &quot;unsigned int64&quot;, typeName: &quot;&quot;, id: 35, branchId: 0, recurseId: &#45;1, attributes: 512, notes: &quot;&quot; -->
<g id="node31" class="node">
<title>35</title>
<ellipse fill="none" stroke="black" cx="1742.37" cy="-72" rx="63.09" ry="18"/>
<text text-anchor="middle" x="1742.37" y="-68.3" font-family="Times New Roman,serif" font-size="14.00">unsigned int64</text>
</g>
<!-- 34&#45;&gt;35 -->
<g id="edge30" class="edge">
<title>34&#45;&gt;35</title>
<path fill="none" stroke="black" d="M1490.05,-72C1535.26,-72 1612.28,-72 1669.17,-72"/>
<polygon fill="black" stroke="black" points="1669.19,-75.5 1679.19,-72 1669.18,-68.5 1669.19,-75.5"/>
</g>
<!-- 37 -->
<!-- name: &quot;string&quot;, typeName: &quot;&quot;, id: 37, branchId: 0, recurseId: &#45;1, attributes: 512, notes: &quot;&quot; -->
<g id="node33" class="node">
<title>37</title>
<ellipse fill="none" stroke="black" cx="1742.37" cy="-18" rx="30.59" ry="18"/>
<text text-anchor="middle" x="1742.37" y="-14.3" font-family="Times New Roman,serif" font-size="14.00">string</text>
</g>
<!-- 36&#45;&gt;37 -->
<g id="edge32" class="edge">
<title>36&#45;&gt;37</title>
<path fill="none" stroke="black" d="M426.01,-60.22C524.1,-44.33 710.77,-18 870.88,-18 870.88,-18 870.88,-18 1148.17,-18 1356.63,-18 1606.29,-18 1701.68,-18"/>
<polygon fill="black" stroke="black" points="1701.74,-21.5 1711.74,-18 1701.74,-14.5 1701.74,-21.5"/>
</g>
</g>
</svg>
