<?xml version="1.0" encoding="UTF-8" standalone="no"?>
<!DOCTYPE svg PUBLIC "-//W3C//DTD SVG 1.1//EN"
 "http://www.w3.org/Graphics/SVG/1.1/DTD/svg11.dtd">
<!-- Generated by graphviz version 10.0.1 (20240210.2158)
 -->
<!-- Title: LevelSoundEventPacket Pages: 1 -->
<svg width="550pt" height="314pt"
 viewBox="0.00 0.00 550.05 314.00" xmlns="http://www.w3.org/2000/svg" xmlns:xlink="http://www.w3.org/1999/xlink">
<g id="graph0" class="graph" transform="scale(1 1) rotate(0) translate(4 310)">
<title>LevelSoundEventPacket</title>
<polygon fill="white" stroke="none" points="-4,4 -4,-310 546.05,-310 546.05,4 -4,4"/>
<!-- 0 -->
<!-- name: &quot;LevelSoundEventPacket&quot;, typeName: &quot;&quot;, id: 0, branchId: 123, recurseId: &#45;1, attributes: 0, notes: &quot;&quot; -->
<g id="node1" class="node">
<title>0</title>
<ellipse fill="none" stroke="black" cx="100.96" cy="-153" rx="100.96" ry="18"/>
<text text-anchor="middle" x="100.96" y="-147.57" font-family="Times New Roman,serif" font-size="14.00">LevelSoundEventPacket</text>
</g>
<!-- 1 -->
<!-- name: &quot;Event ID&quot;, typeName: &quot;&quot;, id: 1, branchId: 0, recurseId: &#45;1, attributes: 0, notes: &quot;&quot; -->
<g id="node2" class="node">
<title>1</title>
<ellipse fill="none" stroke="black" cx="305.46" cy="-288" rx="43.58" ry="18"/>
<text text-anchor="middle" x="305.46" y="-282.57" font-family="Times New Roman,serif" font-size="14.00">Event ID</text>
</g>
<!-- 0&#45;&gt;1 -->
<g id="edge1" class="edge">
<title>0&#45;&gt;1</title>
<path fill="none" stroke="black" d="M120.93,-171C146.1,-194.17 192.63,-234.56 237.93,-261 245.03,-265.15 252.9,-268.95 260.65,-272.31"/>
<polygon fill="black" stroke="black" points="259.11,-275.46 269.69,-276.04 261.78,-268.99 259.11,-275.46"/>
</g>
<!-- 3 -->
<!-- name: &quot;Position&quot;, typeName: &quot;Vec3&quot;, id: 3, branchId: 0, recurseId: &#45;1, attributes: 256, notes: &quot;&quot; -->
<g id="node4" class="node">
<title>3</title>
<ellipse fill="none" stroke="black" cx="305.46" cy="-234" rx="41.08" ry="18"/>
<text text-anchor="middle" x="305.46" y="-228.57" font-family="Times New Roman,serif" font-size="14.00">Position</text>
</g>
<!-- 0&#45;&gt;3 -->
<g id="edge3" class="edge">
<title>0&#45;&gt;3</title>
<path fill="none" stroke="black" d="M143.43,-169.59C178.66,-183.68 228.94,-203.79 263.91,-217.78"/>
<polygon fill="black" stroke="black" points="262.25,-220.89 272.83,-221.35 264.85,-214.39 262.25,-220.89"/>
</g>
<!-- 5 -->
<!-- name: &quot;Data&quot;, typeName: &quot;&quot;, id: 5, branchId: 0, recurseId: &#45;1, attributes: 0, notes: &quot;&quot; -->
<g id="node6" class="node">
<title>5</title>
<ellipse fill="none" stroke="black" cx="305.46" cy="-180" rx="27.61" ry="18"/>
<text text-anchor="middle" x="305.46" y="-174.57" font-family="Times New Roman,serif" font-size="14.00">Data</text>
</g>
<!-- 0&#45;&gt;5 -->
<g id="edge5" class="edge">
<title>0&#45;&gt;5</title>
<path fill="none" stroke="black" d="M183.16,-163.83C212.15,-167.69 243.43,-171.86 266.96,-175"/>
<polygon fill="black" stroke="black" points="266.3,-178.44 276.67,-176.3 267.22,-171.5 266.3,-178.44"/>
</g>
<!-- 7 -->
<!-- name: &quot;Actor Identifier&quot;, typeName: &quot;&quot;, id: 7, branchId: 0, recurseId: &#45;1, attributes: 0, notes: &quot;&quot; -->
<g id="node8" class="node">
<title>7</title>
<ellipse fill="none" stroke="black" cx="305.46" cy="-126" rx="67.53" ry="18"/>
<text text-anchor="middle" x="305.46" y="-120.58" font-family="Times New Roman,serif" font-size="14.00">Actor Identifier</text>
</g>
<!-- 0&#45;&gt;7 -->
<g id="edge7" class="edge">
<title>0&#45;&gt;7</title>
<path fill="none" stroke="black" d="M183.16,-142.17C199.79,-139.96 217.17,-137.64 233.41,-135.47"/>
<polygon fill="black" stroke="black" points="233.49,-138.99 242.94,-134.2 232.57,-132.05 233.49,-138.99"/>
</g>
<!-- 9 -->
<!-- name: &quot;Is Baby Mob&quot;, typeName: &quot;&quot;, id: 9, branchId: 0, recurseId: &#45;1, attributes: 0, notes: &quot;&quot; -->
<g id="node10" class="node">
<title>9</title>
<ellipse fill="none" stroke="black" cx="305.46" cy="-72" rx="60.05" ry="18"/>
<text text-anchor="middle" x="305.46" y="-66.58" font-family="Times New Roman,serif" font-size="14.00">Is Baby Mob</text>
</g>
<!-- 0&#45;&gt;9 -->
<g id="edge9" class="edge">
<title>0&#45;&gt;9</title>
<path fill="none" stroke="black" d="M143.43,-136.41C176.67,-123.12 223.3,-104.46 257.84,-90.65"/>
<polygon fill="black" stroke="black" points="258.75,-94.05 266.73,-87.09 256.15,-87.55 258.75,-94.05"/>
</g>
<!-- 11 -->
<!-- name: &quot;Is Global&quot;, typeName: &quot;&quot;, id: 11, branchId: 0, recurseId: &#45;1, attributes: 0, notes: &quot;&quot; -->
<g id="node12" class="node">
<title>11</title>
<ellipse fill="none" stroke="black" cx="305.46" cy="-18" rx="45.08" ry="18"/>
<text text-anchor="middle" x="305.46" y="-12.57" font-family="Times New Roman,serif" font-size="14.00">Is Global</text>
</g>
<!-- 0&#45;&gt;11 -->
<g id="edge11" class="edge">
<title>0&#45;&gt;11</title>
<path fill="none" stroke="black" d="M120.93,-135C146.1,-111.83 192.63,-71.44 237.93,-45 244.8,-40.98 252.39,-37.29 259.91,-34.01"/>
<polygon fill="black" stroke="black" points="261.11,-37.3 269.01,-30.24 258.43,-30.84 261.11,-37.3"/>
</g>
<!-- 2 -->
<!-- name: &quot;unsigned varint&quot;, typeName: &quot;&quot;, id: 2, branchId: 0, recurseId: &#45;1, attributes: 512, notes: &quot;&quot; -->
<g id="node3" class="node">
<title>2</title>
<ellipse fill="none" stroke="black" cx="475.52" cy="-288" rx="66.53" ry="18"/>
<text text-anchor="middle" x="475.52" y="-282.57" font-family="Times New Roman,serif" font-size="14.00">unsigned varint</text>
</g>
<!-- 1&#45;&gt;2 -->
<g id="edge2" class="edge">
<title>1&#45;&gt;2</title>
<path fill="none" stroke="black" d="M349.3,-288C363.92,-288 380.75,-288 397.23,-288"/>
<polygon fill="black" stroke="black" points="397.04,-291.5 407.04,-288 397.04,-284.5 397.04,-291.5"/>
</g>
<!-- 4 -->
<!-- name: &quot;Vec3&quot;, typeName: &quot;&quot;, id: 4, branchId: 0, recurseId: &#45;1, attributes: 512, notes: &quot;&quot; -->
<g id="node5" class="node">
<title>4</title>
<ellipse fill="none" stroke="black" cx="475.52" cy="-234" rx="30.11" ry="18"/>
<text text-anchor="middle" x="475.52" y="-228.57" font-family="Times New Roman,serif" font-size="14.00">Vec3</text>
</g>
<!-- 3&#45;&gt;4 -->
<g id="edge4" class="edge">
<title>3&#45;&gt;4</title>
<path fill="none" stroke="black" d="M346.71,-234C373.11,-234 407.49,-234 433.95,-234"/>
<polygon fill="black" stroke="black" points="433.61,-237.5 443.61,-234 433.61,-230.5 433.61,-237.5"/>
</g>
<!-- 6 -->
<!-- name: &quot;varint&quot;, typeName: &quot;&quot;, id: 6, branchId: 0, recurseId: &#45;1, attributes: 512, notes: &quot;&quot; -->
<g id="node7" class="node">
<title>6</title>
<ellipse fill="none" stroke="black" cx="475.52" cy="-180" rx="31.1" ry="18"/>
<text text-anchor="middle" x="475.52" y="-174.57" font-family="Times New Roman,serif" font-size="14.00">varint</text>
</g>
<!-- 5&#45;&gt;6 -->
<g id="edge6" class="edge">
<title>5&#45;&gt;6</title>
<path fill="none" stroke="black" d="M333.46,-180C360.28,-180 401.78,-180 432.84,-180"/>
<polygon fill="black" stroke="black" points="432.66,-183.5 442.66,-180 432.66,-176.5 432.66,-183.5"/>
</g>
<!-- 8 -->
<!-- name: &quot;string&quot;, typeName: &quot;&quot;, id: 8, branchId: 0, recurseId: &#45;1, attributes: 512, notes: &quot;&quot; -->
<g id="node9" class="node">
<title>8</title>
<ellipse fill="none" stroke="black" cx="475.52" cy="-126" rx="31.1" ry="18"/>
<text text-anchor="middle" x="475.52" y="-120.58" font-family="Times New Roman,serif" font-size="14.00">string</text>
</g>
<!-- 7&#45;&gt;8 -->
<g id="edge8" class="edge">
<title>7&#45;&gt;8</title>
<path fill="none" stroke="black" d="M373.36,-126C393.39,-126 414.78,-126 432.7,-126"/>
<polygon fill="black" stroke="black" points="432.7,-129.5 442.7,-126 432.7,-122.5 432.7,-129.5"/>
</g>
<!-- 10 -->
<!-- name: &quot;bool&quot;, typeName: &quot;&quot;, id: 10, branchId: 0, recurseId: &#45;1, attributes: 512, notes: &quot;&quot; -->
<g id="node11" class="node">
<title>10</title>
<ellipse fill="none" stroke="black" cx="475.52" cy="-72" rx="27.61" ry="18"/>
<text text-anchor="middle" x="475.52" y="-66.58" font-family="Times New Roman,serif" font-size="14.00">bool</text>
</g>
<!-- 9&#45;&gt;10 -->
<g id="edge10" class="edge">
<title>9&#45;&gt;10</title>
<path fill="none" stroke="black" d="M365.71,-72C389.2,-72 415.53,-72 436.41,-72"/>
<polygon fill="black" stroke="black" points="436.19,-75.5 446.19,-72 436.19,-68.5 436.19,-75.5"/>
</g>
<!-- 12 -->
<!-- name: &quot;bool&quot;, typeName: &quot;&quot;, id: 12, branchId: 0, recurseId: &#45;1, attributes: 512, notes: &quot;&quot; -->
<g id="node13" class="node">
<title>12</title>
<ellipse fill="none" stroke="black" cx="475.52" cy="-18" rx="27.61" ry="18"/>
<text text-anchor="middle" x="475.52" y="-12.57" font-family="Times New Roman,serif" font-size="14.00">bool</text>
</g>
<!-- 11&#45;&gt;12 -->
<g id="edge12" class="edge">
<title>11&#45;&gt;12</title>
<path fill="none" stroke="black" d="M350.61,-18C377.15,-18 410.58,-18 436.03,-18"/>
<polygon fill="black" stroke="black" points="435.95,-21.5 445.95,-18 435.95,-14.5 435.95,-21.5"/>
</g>
</g>
</svg>
