<?xml version="1.0" encoding="UTF-8" standalone="no"?>
<!DOCTYPE svg PUBLIC "-//W3C//DTD SVG 1.1//EN"
 "http://www.w3.org/Graphics/SVG/1.1/DTD/svg11.dtd">
<!-- Generated by graphviz version 14.1.5 (20260411.2331)
 -->
<!-- Title: LocatorBarWaypointPayload Pages: 1 -->
<svg width="1441pt" height="800pt"
 viewBox="0.00 0.00 1441.00 800.00" xmlns="http://www.w3.org/2000/svg" xmlns:xlink="http://www.w3.org/1999/xlink">
<g id="graph0" class="graph" transform="scale(1 1) rotate(0) translate(4 796)">
<title>LocatorBarWaypointPayload</title>
<polygon fill="white" stroke="none" points="-4,4 -4,-796 1436.91,-796 1436.91,4 -4,4"/>
<!-- 0 -->
<!-- name: &quot;LocatorBarWaypointPayload&quot;, typeName: &quot;&quot;, id: 0, branchId: 0, recurseId: &#45;1, attributes: 0, notes: &quot;&quot; -->
<g id="node1" class="node">
<title>0</title>
<ellipse fill="none" stroke="black" cx="118.4" cy="-313" rx="118.4" ry="18"/>
<text xml:space="preserve" text-anchor="middle" x="118.4" y="-307.95" font-family="Times New Roman,serif" font-size="14.00">LocatorBarWaypointPayload</text>
</g>
<!-- 1 -->
<!-- name: &quot;GroupHandle&quot;, typeName: &quot;&quot;, id: 1, branchId: 0, recurseId: &#45;1, attributes: 0, notes: &quot;WaypointGroup::WaypointHandle used to lookup Waypoint in WaypointGroups.&quot; -->
<g id="node2" class="node">
<title>1</title>
<ellipse fill="none" stroke="black" cx="373.28" cy="-455" rx="61.08" ry="18"/>
<text xml:space="preserve" text-anchor="middle" x="373.28" y="-449.95" font-family="Times New Roman,serif" font-size="14.00">GroupHandle</text>
</g>
<!-- 0&#45;&gt;1 -->
<g id="edge1" class="edge">
<title>0&#45;&gt;1</title>
<path fill="none" stroke="black" d="M150.91,-330.7C197.24,-356.71 283.63,-405.22 333.69,-433.33"/>
<polygon fill="black" stroke="black" points="331.74,-436.25 342.18,-438.1 335.17,-430.15 331.74,-436.25"/>
</g>
<!-- 7 -->
<!-- name: &quot;ServerWaypointPayload&quot;, typeName: &quot;&quot;, id: 7, branchId: 0, recurseId: &#45;1, attributes: 0, notes: &quot;Contains the optional data to add or update the client Waypoint.&quot; -->
<g id="node8" class="node">
<title>7</title>
<ellipse fill="none" stroke="black" cx="373.28" cy="-313" rx="100.48" ry="18"/>
<text xml:space="preserve" text-anchor="middle" x="373.28" y="-307.95" font-family="Times New Roman,serif" font-size="14.00">ServerWaypointPayload</text>
</g>
<!-- 0&#45;&gt;7 -->
<g id="edge7" class="edge">
<title>0&#45;&gt;7</title>
<path fill="none" stroke="black" d="M236.96,-313C245.02,-313 253.14,-313 261.17,-313"/>
<polygon fill="black" stroke="black" points="260.94,-316.5 270.94,-313 260.94,-309.5 260.94,-316.5"/>
</g>
<!-- 38 -->
<!-- name: &quot;ActionFlag&quot;, typeName: &quot;&quot;, id: 38, branchId: 0, recurseId: &#45;1, attributes: 0, notes: &quot;Enum which defines if the Waypoint operation was an add, remove or update.&quot; -->
<g id="node39" class="node">
<title>38</title>
<ellipse fill="none" stroke="black" cx="373.28" cy="-147" rx="52.38" ry="18"/>
<text xml:space="preserve" text-anchor="middle" x="373.28" y="-141.95" font-family="Times New Roman,serif" font-size="14.00">ActionFlag</text>
</g>
<!-- 0&#45;&gt;38 -->
<g id="edge38" class="edge">
<title>0&#45;&gt;38</title>
<path fill="none" stroke="black" d="M146.46,-295.24C192.81,-264.81 287.28,-202.8 338.1,-169.43"/>
<polygon fill="black" stroke="black" points="339.96,-172.41 346.39,-163.99 336.11,-166.55 339.96,-172.41"/>
</g>
<!-- 2 -->
<!-- name: &quot;UUID&quot;, typeName: &quot;&quot;, id: 2, branchId: 0, recurseId: &#45;1, attributes: 0, notes: &quot;mce::UUID used to lookup Waypoint in WaypointGroups.&quot; -->
<g id="node3" class="node">
<title>2</title>
<ellipse fill="none" stroke="black" cx="782.73" cy="-720" rx="33.95" ry="18"/>
<text xml:space="preserve" text-anchor="middle" x="782.73" y="-714.95" font-family="Times New Roman,serif" font-size="14.00">UUID</text>
</g>
<!-- 1&#45;&gt;2 -->
<g id="edge2" class="edge">
<title>1&#45;&gt;2</title>
<path fill="none" stroke="black" d="M381.47,-473.24C397.9,-512.45 442.07,-605.02 509.77,-652 579.34,-700.29 679.99,-714.35 737.32,-718.4"/>
<polygon fill="black" stroke="black" points="736.82,-721.88 747.02,-719.01 737.26,-714.89 736.82,-721.88"/>
</g>
<!-- 3 -->
<!-- name: &quot;Most Significant Bits&quot;, typeName: &quot;&quot;, id: 3, branchId: 0, recurseId: &#45;1, attributes: 0, notes: &quot;&quot; -->
<g id="node4" class="node">
<title>3</title>
<ellipse fill="none" stroke="black" cx="1009.47" cy="-774" rx="90.76" ry="18"/>
<text xml:space="preserve" text-anchor="middle" x="1009.47" y="-768.95" font-family="Times New Roman,serif" font-size="14.00">Most Significant Bits</text>
</g>
<!-- 2&#45;&gt;3 -->
<g id="edge3" class="edge">
<title>2&#45;&gt;3</title>
<path fill="none" stroke="black" d="M814.04,-727.28C845.94,-734.95 897.23,-747.27 939.12,-757.34"/>
<polygon fill="black" stroke="black" points="938.09,-760.69 948.63,-759.62 939.73,-753.88 938.09,-760.69"/>
</g>
<!-- 5 -->
<!-- name: &quot;Least Significant Bits&quot;, typeName: &quot;&quot;, id: 5, branchId: 0, recurseId: &#45;1, attributes: 0, notes: &quot;&quot; -->
<g id="node6" class="node">
<title>5</title>
<ellipse fill="none" stroke="black" cx="1009.47" cy="-720" rx="91.27" ry="18"/>
<text xml:space="preserve" text-anchor="middle" x="1009.47" y="-714.95" font-family="Times New Roman,serif" font-size="14.00">Least Significant Bits</text>
</g>
<!-- 2&#45;&gt;5 -->
<g id="edge5" class="edge">
<title>2&#45;&gt;5</title>
<path fill="none" stroke="black" d="M816.89,-720C840.7,-720 874.17,-720 906.48,-720"/>
<polygon fill="black" stroke="black" points="906.33,-723.5 916.33,-720 906.33,-716.5 906.33,-723.5"/>
</g>
<!-- 4 -->
<!-- name: &quot;unsigned int64&quot;, typeName: &quot;&quot;, id: 4, branchId: 0, recurseId: &#45;1, attributes: 512, notes: &quot;&quot; -->
<g id="node5" class="node">
<title>4</title>
<ellipse fill="none" stroke="black" cx="1284.82" cy="-774" rx="65.68" ry="18"/>
<text xml:space="preserve" text-anchor="middle" x="1284.82" y="-768.95" font-family="Times New Roman,serif" font-size="14.00">unsigned int64</text>
</g>
<!-- 3&#45;&gt;4 -->
<g id="edge4" class="edge">
<title>3&#45;&gt;4</title>
<path fill="none" stroke="black" d="M1100.35,-774C1135.01,-774 1174.24,-774 1207.5,-774"/>
<polygon fill="black" stroke="black" points="1207.48,-777.5 1217.48,-774 1207.48,-770.5 1207.48,-777.5"/>
</g>
<!-- 6 -->
<!-- name: &quot;unsigned int64&quot;, typeName: &quot;&quot;, id: 6, branchId: 0, recurseId: &#45;1, attributes: 512, notes: &quot;&quot; -->
<g id="node7" class="node">
<title>6</title>
<ellipse fill="none" stroke="black" cx="1284.82" cy="-720" rx="65.68" ry="18"/>
<text xml:space="preserve" text-anchor="middle" x="1284.82" y="-714.95" font-family="Times New Roman,serif" font-size="14.00">unsigned int64</text>
</g>
<!-- 5&#45;&gt;6 -->
<g id="edge6" class="edge">
<title>5&#45;&gt;6</title>
<path fill="none" stroke="black" d="M1101.11,-720C1135.59,-720 1174.49,-720 1207.51,-720"/>
<polygon fill="black" stroke="black" points="1207.41,-723.5 1217.41,-720 1207.41,-716.5 1207.41,-723.5"/>
</g>
<!-- 8 -->
<!-- name: &quot;UpdateFlag&quot;, typeName: &quot;&quot;, id: 8, branchId: 0, recurseId: &#45;1, attributes: 0, notes: &quot;A bitflag uint used to map to which of the optional values in this payload should be updated.&quot; -->
<g id="node9" class="node">
<title>8</title>
<ellipse fill="none" stroke="black" cx="578.52" cy="-625" rx="53.91" ry="18"/>
<text xml:space="preserve" text-anchor="middle" x="578.52" y="-619.95" font-family="Times New Roman,serif" font-size="14.00">UpdateFlag</text>
</g>
<!-- 7&#45;&gt;8 -->
<g id="edge8" class="edge">
<title>7&#45;&gt;8</title>
<path fill="none" stroke="black" d="M394.45,-330.94C416.96,-352.04 452.95,-389.14 473.77,-428 502.07,-480.85 479.43,-506.29 509.77,-558 519.38,-574.39 534,-589.55 547.21,-601.3"/>
<polygon fill="black" stroke="black" points="544.59,-603.67 554.46,-607.52 549.15,-598.35 544.59,-603.67"/>
</g>
<!-- 10 -->
<!-- name: &quot;IsVisible&quot;, typeName: &quot;&quot;, id: 10, branchId: 0, recurseId: &#45;1, attributes: 0, notes: &quot;Boolean used to tell the client if the Waypoint is visible or not.&quot; -->
<g id="node11" class="node">
<title>10</title>
<ellipse fill="none" stroke="black" cx="578.52" cy="-531" rx="43.67" ry="18"/>
<text xml:space="preserve" text-anchor="middle" x="578.52" y="-525.95" font-family="Times New Roman,serif" font-size="14.00">IsVisible</text>
</g>
<!-- 7&#45;&gt;10 -->
<g id="edge10" class="edge">
<title>7&#45;&gt;10</title>
<path fill="none" stroke="black" d="M390.91,-330.84C427,-369.55 512.56,-461.32 554.09,-505.87"/>
<polygon fill="black" stroke="black" points="551.37,-508.09 560.75,-513.02 556.49,-503.32 551.37,-508.09"/>
</g>
<!-- 12 -->
<!-- name: &quot;WorldPosition&quot;, typeName: &quot;&quot;, id: 12, branchId: 0, recurseId: &#45;1, attributes: 0, notes: &quot;The Vec3 position and DimensionID of the waypoint.&quot; -->
<g id="node13" class="node">
<title>12</title>
<ellipse fill="none" stroke="black" cx="578.52" cy="-396" rx="64.15" ry="18"/>
<text xml:space="preserve" text-anchor="middle" x="578.52" y="-390.95" font-family="Times New Roman,serif" font-size="14.00">WorldPosition</text>
</g>
<!-- 7&#45;&gt;12 -->
<g id="edge12" class="edge">
<title>7&#45;&gt;12</title>
<path fill="none" stroke="black" d="M415.41,-329.8C448.73,-343.4 495.7,-362.58 530.5,-376.8"/>
<polygon fill="black" stroke="black" points="528.91,-379.93 539.49,-380.47 531.55,-373.45 528.91,-379.93"/>
</g>
<!-- 23 -->
<!-- name: &quot;TexturePath&quot;, typeName: &quot;&quot;, id: 23, branchId: 0, recurseId: &#45;1, attributes: 0, notes: &quot;The path used to select which texture the Waypoint displays.&quot; -->
<g id="node24" class="node">
<title>23</title>
<ellipse fill="none" stroke="black" cx="578.52" cy="-338" rx="55.45" ry="18"/>
<text xml:space="preserve" text-anchor="middle" x="578.52" y="-332.95" font-family="Times New Roman,serif" font-size="14.00">TexturePath</text>
</g>
<!-- 7&#45;&gt;23 -->
<g id="edge23" class="edge">
<title>7&#45;&gt;23</title>
<path fill="none" stroke="black" d="M457.24,-323.2C476.42,-325.56 496.52,-328.04 514.67,-330.27"/>
<polygon fill="black" stroke="black" points="514.14,-333.73 524.49,-331.48 514.99,-326.78 514.14,-333.73"/>
</g>
<!-- 25 -->
<!-- name: &quot;IconSize&quot;, typeName: &quot;&quot;, id: 25, branchId: 0, recurseId: &#45;1, attributes: 0, notes: &quot;The size of the icon that is displayed. Default: [1, 1]&quot; -->
<g id="node26" class="node">
<title>25</title>
<ellipse fill="none" stroke="black" cx="782.73" cy="-288" rx="43.16" ry="18"/>
<text xml:space="preserve" text-anchor="middle" x="782.73" y="-282.95" font-family="Times New Roman,serif" font-size="14.00">IconSize</text>
</g>
<!-- 7&#45;&gt;25 -->
<g id="edge25" class="edge">
<title>7&#45;&gt;25</title>
<path fill="none" stroke="black" d="M469.04,-307.19C549.67,-302.24 662.56,-295.31 728.33,-291.28"/>
<polygon fill="black" stroke="black" points="728.37,-294.78 738.14,-290.67 727.94,-287.79 728.37,-294.78"/>
</g>
<!-- 30 -->
<!-- name: &quot;Color&quot;, typeName: &quot;&quot;, id: 30, branchId: 0, recurseId: &#45;1, attributes: 0, notes: &quot;The color that the client with tint the waypoint texture.&quot; -->
<g id="node31" class="node">
<title>30</title>
<ellipse fill="none" stroke="black" cx="578.52" cy="-233" rx="31.9" ry="18"/>
<text xml:space="preserve" text-anchor="middle" x="578.52" y="-227.95" font-family="Times New Roman,serif" font-size="14.00">Color</text>
</g>
<!-- 7&#45;&gt;30 -->
<g id="edge30" class="edge">
<title>7&#45;&gt;30</title>
<path fill="none" stroke="black" d="M416.39,-296.42C453.11,-281.97 505.84,-261.22 540.85,-247.43"/>
<polygon fill="black" stroke="black" points="542.13,-250.69 550.15,-243.77 539.56,-244.18 542.13,-250.69"/>
</g>
<!-- 33 -->
<!-- name: &quot;ClientPositionAuthority&quot;, typeName: &quot;&quot;, id: 33, branchId: 0, recurseId: &#45;1, attributes: 0, notes: &quot;Boolean that if true the client will update the Waypoints position per tick.&quot; -->
<g id="node34" class="node">
<title>33</title>
<ellipse fill="none" stroke="black" cx="782.73" cy="-160" rx="99.46" ry="18"/>
<text xml:space="preserve" text-anchor="middle" x="782.73" y="-154.95" font-family="Times New Roman,serif" font-size="14.00">ClientPositionAuthority</text>
</g>
<!-- 7&#45;&gt;33 -->
<g id="edge33" class="edge">
<title>7&#45;&gt;33</title>
<path fill="none" stroke="black" d="M391.17,-294.87C415.08,-270.44 461.28,-227.54 509.77,-206 561.34,-183.09 623.07,-171.53 674.67,-165.71"/>
<polygon fill="black" stroke="black" points="674.78,-169.22 684.35,-164.69 674.04,-162.26 674.78,-169.22"/>
</g>
<!-- 35 -->
<!-- name: &quot;ActorUniqueID&quot;, typeName: &quot;&quot;, id: 35, branchId: 0, recurseId: &#45;1, attributes: 0, notes: &quot;The entity id that Waypoint will be attached to.&quot; -->
<g id="node36" class="node">
<title>35</title>
<ellipse fill="none" stroke="black" cx="578.52" cy="-95" rx="68.75" ry="18"/>
<text xml:space="preserve" text-anchor="middle" x="578.52" y="-89.95" font-family="Times New Roman,serif" font-size="14.00">ActorUniqueID</text>
</g>
<!-- 7&#45;&gt;35 -->
<g id="edge35" class="edge">
<title>7&#45;&gt;35</title>
<path fill="none" stroke="black" d="M387.72,-294.82C411,-263.84 461.02,-199.47 509.77,-151 520.98,-139.85 534.21,-128.56 545.99,-119.06"/>
<polygon fill="black" stroke="black" points="547.82,-122.08 553.48,-113.12 543.47,-116.6 547.82,-122.08"/>
</g>
<!-- 9 -->
<!-- name: &quot;unsigned int&quot;, typeName: &quot;&quot;, id: 9, branchId: 0, recurseId: &#45;1, attributes: 512, notes: &quot;A bitflag uint used to map to which of the optional values in this payload should be updated.&quot; -->
<g id="node10" class="node">
<title>9</title>
<ellipse fill="none" stroke="black" cx="1284.82" cy="-666" rx="56.47" ry="18"/>
<text xml:space="preserve" text-anchor="middle" x="1284.82" y="-660.95" font-family="Times New Roman,serif" font-size="14.00">unsigned int</text>
</g>
<!-- 8&#45;&gt;9 -->
<g id="edge9" class="edge">
<title>8&#45;&gt;9</title>
<path fill="none" stroke="black" d="M632.17,-628.06C758.44,-635.42 1078.3,-654.04 1217.46,-662.14"/>
<polygon fill="black" stroke="black" points="1217.06,-665.62 1227.25,-662.71 1217.47,-658.63 1217.06,-665.62"/>
</g>
<!-- 11 -->
<!-- name: &quot;bool&quot;, typeName: &quot;&quot;, id: 11, branchId: 0, recurseId: &#45;1, attributes: 512, notes: &quot;Boolean used to tell the client if the Waypoint is visible or not.&quot; -->
<g id="node12" class="node">
<title>11</title>
<ellipse fill="none" stroke="black" cx="1284.82" cy="-612" rx="27.3" ry="18"/>
<text xml:space="preserve" text-anchor="middle" x="1284.82" y="-606.95" font-family="Times New Roman,serif" font-size="14.00">bool</text>
</g>
<!-- 10&#45;&gt;11 -->
<g id="edge11" class="edge">
<title>10&#45;&gt;11</title>
<path fill="none" stroke="black" d="M619,-538.41C682.02,-549.98 809.38,-572.33 918.2,-585 1037.48,-598.89 1179.54,-606.97 1246.01,-610.26"/>
<polygon fill="black" stroke="black" points="1245.47,-613.74 1255.63,-610.73 1245.81,-606.75 1245.47,-613.74"/>
</g>
<!-- 13 -->
<!-- name: &quot;Position&quot;, typeName: &quot;&quot;, id: 13, branchId: 0, recurseId: &#45;1, attributes: 0, notes: &quot;The Vec3 position in the dimension.&quot; -->
<g id="node14" class="node">
<title>13</title>
<ellipse fill="none" stroke="black" cx="782.73" cy="-477" rx="41.12" ry="18"/>
<text xml:space="preserve" text-anchor="middle" x="782.73" y="-471.95" font-family="Times New Roman,serif" font-size="14.00">Position</text>
</g>
<!-- 12&#45;&gt;13 -->
<g id="edge13" class="edge">
<title>12&#45;&gt;13</title>
<path fill="none" stroke="black" d="M616.61,-410.86C651.89,-424.99 704.85,-446.2 741.22,-460.77"/>
<polygon fill="black" stroke="black" points="739.48,-463.85 750.07,-464.32 742.09,-457.35 739.48,-463.85"/>
</g>
<!-- 20 -->
<!-- name: &quot;DimensionType&quot;, typeName: &quot;&quot;, id: 20, branchId: 0, recurseId: &#45;1, attributes: 0, notes: &quot;The runtime id of the dimension.&quot; -->
<g id="node21" class="node">
<title>20</title>
<ellipse fill="none" stroke="black" cx="782.73" cy="-396" rx="70.29" ry="18"/>
<text xml:space="preserve" text-anchor="middle" x="782.73" y="-390.95" font-family="Times New Roman,serif" font-size="14.00">DimensionType</text>
</g>
<!-- 12&#45;&gt;20 -->
<g id="edge20" class="edge">
<title>12&#45;&gt;20</title>
<path fill="none" stroke="black" d="M642.95,-396C661.26,-396 681.49,-396 700.72,-396"/>
<polygon fill="black" stroke="black" points="700.7,-399.5 710.7,-396 700.7,-392.5 700.7,-399.5"/>
</g>
<!-- 14 -->
<!-- name: &quot;X&quot;, typeName: &quot;&quot;, id: 14, branchId: 0, recurseId: &#45;1, attributes: 0, notes: &quot;&quot; -->
<g id="node15" class="node">
<title>14</title>
<ellipse fill="none" stroke="black" cx="1009.47" cy="-558" rx="27" ry="18"/>
<text xml:space="preserve" text-anchor="middle" x="1009.47" y="-552.95" font-family="Times New Roman,serif" font-size="14.00">X</text>
</g>
<!-- 13&#45;&gt;14 -->
<g id="edge14" class="edge">
<title>13&#45;&gt;14</title>
<path fill="none" stroke="black" d="M812.82,-489.58C839.86,-501.05 881.39,-518.13 918.2,-531 936.14,-537.27 956.39,-543.41 973.16,-548.25"/>
<polygon fill="black" stroke="black" points="972.1,-551.59 982.68,-550.96 974.02,-544.86 972.1,-551.59"/>
</g>
<!-- 16 -->
<!-- name: &quot;Y&quot;, typeName: &quot;&quot;, id: 16, branchId: 0, recurseId: &#45;1, attributes: 0, notes: &quot;&quot; -->
<g id="node17" class="node">
<title>16</title>
<ellipse fill="none" stroke="black" cx="1009.47" cy="-504" rx="27" ry="18"/>
<text xml:space="preserve" text-anchor="middle" x="1009.47" y="-498.95" font-family="Times New Roman,serif" font-size="14.00">Y</text>
</g>
<!-- 13&#45;&gt;16 -->
<g id="edge16" class="edge">
<title>13&#45;&gt;16</title>
<path fill="none" stroke="black" d="M822.88,-481.7C864.54,-486.71 929.99,-494.57 971,-499.5"/>
<polygon fill="black" stroke="black" points="970.54,-502.97 980.88,-500.69 971.37,-496.02 970.54,-502.97"/>
</g>
<!-- 18 -->
<!-- name: &quot;Z&quot;, typeName: &quot;&quot;, id: 18, branchId: 0, recurseId: &#45;1, attributes: 0, notes: &quot;&quot; -->
<g id="node19" class="node">
<title>18</title>
<ellipse fill="none" stroke="black" cx="1009.47" cy="-450" rx="27" ry="18"/>
<text xml:space="preserve" text-anchor="middle" x="1009.47" y="-444.95" font-family="Times New Roman,serif" font-size="14.00">Z</text>
</g>
<!-- 13&#45;&gt;18 -->
<g id="edge18" class="edge">
<title>13&#45;&gt;18</title>
<path fill="none" stroke="black" d="M822.88,-472.3C864.54,-467.29 929.99,-459.43 971,-454.5"/>
<polygon fill="black" stroke="black" points="971.37,-457.98 980.88,-453.31 970.54,-451.03 971.37,-457.98"/>
</g>
<!-- 15 -->
<!-- name: &quot;float&quot;, typeName: &quot;&quot;, id: 15, branchId: 0, recurseId: &#45;1, attributes: 512, notes: &quot;&quot; -->
<g id="node16" class="node">
<title>15</title>
<ellipse fill="none" stroke="black" cx="1284.82" cy="-558" rx="27.81" ry="18"/>
<text xml:space="preserve" text-anchor="middle" x="1284.82" y="-552.95" font-family="Times New Roman,serif" font-size="14.00">float</text>
</g>
<!-- 14&#45;&gt;15 -->
<g id="edge15" class="edge">
<title>14&#45;&gt;15</title>
<path fill="none" stroke="black" d="M1036.68,-558C1085.21,-558 1189.24,-558 1245.62,-558"/>
<polygon fill="black" stroke="black" points="1245.37,-561.5 1255.37,-558 1245.37,-554.5 1245.37,-561.5"/>
</g>
<!-- 17 -->
<!-- name: &quot;float&quot;, typeName: &quot;&quot;, id: 17, branchId: 0, recurseId: &#45;1, attributes: 512, notes: &quot;&quot; -->
<g id="node18" class="node">
<title>17</title>
<ellipse fill="none" stroke="black" cx="1284.82" cy="-504" rx="27.81" ry="18"/>
<text xml:space="preserve" text-anchor="middle" x="1284.82" y="-498.95" font-family="Times New Roman,serif" font-size="14.00">float</text>
</g>
<!-- 16&#45;&gt;17 -->
<g id="edge17" class="edge">
<title>16&#45;&gt;17</title>
<path fill="none" stroke="black" d="M1036.68,-504C1085.21,-504 1189.24,-504 1245.62,-504"/>
<polygon fill="black" stroke="black" points="1245.37,-507.5 1255.37,-504 1245.37,-500.5 1245.37,-507.5"/>
</g>
<!-- 19 -->
<!-- name: &quot;float&quot;, typeName: &quot;&quot;, id: 19, branchId: 0, recurseId: &#45;1, attributes: 512, notes: &quot;&quot; -->
<g id="node20" class="node">
<title>19</title>
<ellipse fill="none" stroke="black" cx="1284.82" cy="-450" rx="27.81" ry="18"/>
<text xml:space="preserve" text-anchor="middle" x="1284.82" y="-444.95" font-family="Times New Roman,serif" font-size="14.00">float</text>
</g>
<!-- 18&#45;&gt;19 -->
<g id="edge19" class="edge">
<title>18&#45;&gt;19</title>
<path fill="none" stroke="black" d="M1036.68,-450C1085.21,-450 1189.24,-450 1245.62,-450"/>
<polygon fill="black" stroke="black" points="1245.37,-453.5 1255.37,-450 1245.37,-446.5 1245.37,-453.5"/>
</g>
<!-- 21 -->
<!-- name: &quot;value&quot;, typeName: &quot;&quot;, id: 21, branchId: 0, recurseId: &#45;1, attributes: 0, notes: &quot;&quot; -->
<g id="node22" class="node">
<title>21</title>
<ellipse fill="none" stroke="black" cx="1009.47" cy="-396" rx="30.88" ry="18"/>
<text xml:space="preserve" text-anchor="middle" x="1009.47" y="-390.95" font-family="Times New Roman,serif" font-size="14.00">value</text>
</g>
<!-- 20&#45;&gt;21 -->
<g id="edge21" class="edge">
<title>20&#45;&gt;21</title>
<path fill="none" stroke="black" d="M853.3,-396C890.62,-396 935.33,-396 967.15,-396"/>
<polygon fill="black" stroke="black" points="966.74,-399.5 976.74,-396 966.74,-392.5 966.74,-399.5"/>
</g>
<!-- 22 -->
<!-- name: &quot;varint&quot;, typeName: &quot;&quot;, id: 22, branchId: 0, recurseId: &#45;1, attributes: 512, notes: &quot;&quot; -->
<g id="node23" class="node">
<title>22</title>
<ellipse fill="none" stroke="black" cx="1284.82" cy="-396" rx="32.41" ry="18"/>
<text xml:space="preserve" text-anchor="middle" x="1284.82" y="-390.95" font-family="Times New Roman,serif" font-size="14.00">varint</text>
</g>
<!-- 21&#45;&gt;22 -->
<g id="edge22" class="edge">
<title>21&#45;&gt;22</title>
<path fill="none" stroke="black" d="M1040.77,-396C1089.43,-396 1185.19,-396 1240.88,-396"/>
<polygon fill="black" stroke="black" points="1240.61,-399.5 1250.61,-396 1240.61,-392.5 1240.61,-399.5"/>
</g>
<!-- 24 -->
<!-- name: &quot;string&quot;, typeName: &quot;&quot;, id: 24, branchId: 0, recurseId: &#45;1, attributes: 512, notes: &quot;The path used to select which texture the Waypoint displays.&quot; -->
<g id="node25" class="node">
<title>24</title>
<ellipse fill="none" stroke="black" cx="1284.82" cy="-342" rx="31.9" ry="18"/>
<text xml:space="preserve" text-anchor="middle" x="1284.82" y="-336.95" font-family="Times New Roman,serif" font-size="14.00">string</text>
</g>
<!-- 23&#45;&gt;24 -->
<g id="edge24" class="edge">
<title>23&#45;&gt;24</title>
<path fill="none" stroke="black" d="M634.2,-338.31C769.79,-339.08 1119.34,-341.07 1241.18,-341.76"/>
<polygon fill="black" stroke="black" points="1241.04,-345.26 1251.06,-341.81 1241.08,-338.26 1241.04,-345.26"/>
</g>
<!-- 26 -->
<!-- name: &quot;X&quot;, typeName: &quot;&quot;, id: 26, branchId: 0, recurseId: &#45;1, attributes: 0, notes: &quot;&quot; -->
<g id="node27" class="node">
<title>26</title>
<ellipse fill="none" stroke="black" cx="1009.47" cy="-288" rx="27" ry="18"/>
<text xml:space="preserve" text-anchor="middle" x="1009.47" y="-282.95" font-family="Times New Roman,serif" font-size="14.00">X</text>
</g>
<!-- 25&#45;&gt;26 -->
<g id="edge26" class="edge">
<title>25&#45;&gt;26</title>
<path fill="none" stroke="black" d="M826.27,-288C867.99,-288 930.99,-288 970.91,-288"/>
<polygon fill="black" stroke="black" points="970.75,-291.5 980.75,-288 970.75,-284.5 970.75,-291.5"/>
</g>
<!-- 28 -->
<!-- name: &quot;Y&quot;, typeName: &quot;&quot;, id: 28, branchId: 0, recurseId: &#45;1, attributes: 0, notes: &quot;&quot; -->
<g id="node29" class="node">
<title>28</title>
<ellipse fill="none" stroke="black" cx="1009.47" cy="-234" rx="27" ry="18"/>
<text xml:space="preserve" text-anchor="middle" x="1009.47" y="-228.95" font-family="Times New Roman,serif" font-size="14.00">Y</text>
</g>
<!-- 25&#45;&gt;28 -->
<g id="edge28" class="edge">
<title>25&#45;&gt;28</title>
<path fill="none" stroke="black" d="M820.84,-279.08C862.89,-268.98 930.97,-252.62 972.53,-242.64"/>
<polygon fill="black" stroke="black" points="973.12,-246.09 982.03,-240.35 971.49,-239.29 973.12,-246.09"/>
</g>
<!-- 27 -->
<!-- name: &quot;float&quot;, typeName: &quot;&quot;, id: 27, branchId: 0, recurseId: &#45;1, attributes: 512, notes: &quot;&quot; -->
<g id="node28" class="node">
<title>27</title>
<ellipse fill="none" stroke="black" cx="1284.82" cy="-288" rx="27.81" ry="18"/>
<text xml:space="preserve" text-anchor="middle" x="1284.82" y="-282.95" font-family="Times New Roman,serif" font-size="14.00">float</text>
</g>
<!-- 26&#45;&gt;27 -->
<g id="edge27" class="edge">
<title>26&#45;&gt;27</title>
<path fill="none" stroke="black" d="M1036.68,-288C1085.21,-288 1189.24,-288 1245.62,-288"/>
<polygon fill="black" stroke="black" points="1245.37,-291.5 1255.37,-288 1245.37,-284.5 1245.37,-291.5"/>
</g>
<!-- 29 -->
<!-- name: &quot;float&quot;, typeName: &quot;&quot;, id: 29, branchId: 0, recurseId: &#45;1, attributes: 512, notes: &quot;&quot; -->
<g id="node30" class="node">
<title>29</title>
<ellipse fill="none" stroke="black" cx="1284.82" cy="-234" rx="27.81" ry="18"/>
<text xml:space="preserve" text-anchor="middle" x="1284.82" y="-228.95" font-family="Times New Roman,serif" font-size="14.00">float</text>
</g>
<!-- 28&#45;&gt;29 -->
<g id="edge29" class="edge">
<title>28&#45;&gt;29</title>
<path fill="none" stroke="black" d="M1036.68,-234C1085.21,-234 1189.24,-234 1245.62,-234"/>
<polygon fill="black" stroke="black" points="1245.37,-237.5 1255.37,-234 1245.37,-230.5 1245.37,-237.5"/>
</g>
<!-- 31 -->
<!-- name: &quot;Color&quot;, typeName: &quot;&quot;, id: 31, branchId: 0, recurseId: &#45;1, attributes: 0, notes: &quot;&quot; -->
<g id="node32" class="node">
<title>31</title>
<ellipse fill="none" stroke="black" cx="782.73" cy="-227" rx="31.9" ry="18"/>
<text xml:space="preserve" text-anchor="middle" x="782.73" y="-221.95" font-family="Times New Roman,serif" font-size="14.00">Color</text>
</g>
<!-- 30&#45;&gt;31 -->
<g id="edge31" class="edge">
<title>30&#45;&gt;31</title>
<path fill="none" stroke="black" d="M610.67,-232.08C645.11,-231.05 700.78,-229.4 739.21,-228.26"/>
<polygon fill="black" stroke="black" points="739.14,-231.77 749.03,-227.97 738.93,-224.77 739.14,-231.77"/>
</g>
<!-- 32 -->
<!-- name: &quot;int&quot;, typeName: &quot;&quot;, id: 32, branchId: 0, recurseId: &#45;1, attributes: 512, notes: &quot;&quot; -->
<g id="node33" class="node">
<title>32</title>
<ellipse fill="none" stroke="black" cx="1284.82" cy="-180" rx="27" ry="18"/>
<text xml:space="preserve" text-anchor="middle" x="1284.82" y="-174.95" font-family="Times New Roman,serif" font-size="14.00">int</text>
</g>
<!-- 31&#45;&gt;32 -->
<g id="edge32" class="edge">
<title>31&#45;&gt;32</title>
<path fill="none" stroke="black" d="M813.82,-221.87C841.02,-217.4 882.19,-211 918.2,-207 1037.6,-193.73 1179.69,-185.35 1246.11,-181.86"/>
<polygon fill="black" stroke="black" points="1246.29,-185.36 1256.09,-181.35 1245.93,-178.37 1246.29,-185.36"/>
</g>
<!-- 34 -->
<!-- name: &quot;bool&quot;, typeName: &quot;&quot;, id: 34, branchId: 0, recurseId: &#45;1, attributes: 512, notes: &quot;Boolean that if true the client will update the Waypoints position per tick.&quot; -->
<g id="node35" class="node">
<title>34</title>
<ellipse fill="none" stroke="black" cx="1284.82" cy="-126" rx="27.3" ry="18"/>
<text xml:space="preserve" text-anchor="middle" x="1284.82" y="-120.95" font-family="Times New Roman,serif" font-size="14.00">bool</text>
</g>
<!-- 33&#45;&gt;34 -->
<g id="edge34" class="edge">
<title>33&#45;&gt;34</title>
<path fill="none" stroke="black" d="M876.62,-153.68C987.72,-146.13 1168.42,-133.85 1246.23,-128.56"/>
<polygon fill="black" stroke="black" points="1246.13,-132.07 1255.87,-127.9 1245.65,-125.09 1246.13,-132.07"/>
</g>
<!-- 36 -->
<!-- name: &quot;Actor Unique ID&quot;, typeName: &quot;&quot;, id: 36, branchId: 0, recurseId: &#45;1, attributes: 0, notes: &quot;&quot; -->
<g id="node37" class="node">
<title>36</title>
<ellipse fill="none" stroke="black" cx="782.73" cy="-79" rx="73.87" ry="18"/>
<text xml:space="preserve" text-anchor="middle" x="782.73" y="-73.95" font-family="Times New Roman,serif" font-size="14.00">Actor Unique ID</text>
</g>
<!-- 35&#45;&gt;36 -->
<g id="edge36" class="edge">
<title>35&#45;&gt;36</title>
<path fill="none" stroke="black" d="M644.89,-89.83C662.67,-88.42 682.13,-86.88 700.66,-85.41"/>
<polygon fill="black" stroke="black" points="700.85,-88.91 710.54,-84.63 700.3,-81.93 700.85,-88.91"/>
</g>
<!-- 37 -->
<!-- name: &quot;varint64&quot;, typeName: &quot;&quot;, id: 37, branchId: 0, recurseId: &#45;1, attributes: 512, notes: &quot;&quot; -->
<g id="node38" class="node">
<title>37</title>
<ellipse fill="none" stroke="black" cx="1284.82" cy="-72" rx="41.63" ry="18"/>
<text xml:space="preserve" text-anchor="middle" x="1284.82" y="-66.95" font-family="Times New Roman,serif" font-size="14.00">varint64</text>
</g>
<!-- 36&#45;&gt;37 -->
<g id="edge37" class="edge">
<title>36&#45;&gt;37</title>
<path fill="none" stroke="black" d="M856.99,-77.97C959.16,-76.54 1141.95,-73.99 1231.49,-72.73"/>
<polygon fill="black" stroke="black" points="1231.51,-76.23 1241.46,-72.59 1231.41,-69.23 1231.51,-76.23"/>
</g>
<!-- 39 -->
<!-- name: &quot;enum ServerWaypointGroup::Action&quot;, typeName: &quot;&quot;, id: 39, branchId: 0, recurseId: &#45;1, attributes: 512, notes: &quot;Enum which defines if the Waypoint operation was an add, remove or update.&quot; -->
<g id="node40" class="node">
<title>39</title>
<ellipse fill="none" stroke="black" cx="1284.82" cy="-18" rx="148.08" ry="18"/>
<text xml:space="preserve" text-anchor="middle" x="1284.82" y="-12.95" font-family="Times New Roman,serif" font-size="14.00">enum ServerWaypointGroup::Action</text>
</g>
<!-- 38&#45;&gt;39 -->
<g id="edge39" class="edge">
<title>38&#45;&gt;39</title>
<path fill="none" stroke="black" d="M395.86,-130.36C421.47,-111.61 466.2,-81.95 509.77,-68 725.65,1.14 992.31,0.97 1149.63,-7.25"/>
<polygon fill="black" stroke="black" points="1149.08,-10.73 1159.25,-7.77 1149.46,-3.74 1149.08,-10.73"/>
</g>
</g>
</svg>
