<?xml version="1.0" encoding="UTF-8" standalone="no"?>
<!DOCTYPE svg PUBLIC "-//W3C//DTD SVG 1.1//EN"
 "http://www.w3.org/Graphics/SVG/1.1/DTD/svg11.dtd">
<!-- Generated by graphviz version 13.1.2 (20250808.2320)
 -->
<!-- Title: LoginPacket Pages: 1 -->
<svg width="456pt" height="98pt"
 viewBox="0.00 0.00 456.00 98.00" xmlns="http://www.w3.org/2000/svg" xmlns:xlink="http://www.w3.org/1999/xlink">
<g id="graph0" class="graph" transform="scale(1 1) rotate(0) translate(4 94)">
<title>LoginPacket</title>
<polygon fill="white" stroke="none" points="-4,4 -4,-94 451.67,-94 451.67,4 -4,4"/>
<!-- 0 -->
<!-- name: &quot;LoginPacket&quot;, typeName: &quot;&quot;, id: 0, branchId: 0, recurseId: &#45;1, attributes: 0, notes: &quot;Sent once from client to server at login. About 100k.&quot; -->
<g id="node1" class="node">
<title>0</title>
<ellipse fill="none" stroke="black" cx="57.49" cy="-45" rx="57.49" ry="18"/>
<text xml:space="preserve" text-anchor="middle" x="57.49" y="-39.95" font-family="Times New Roman,serif" font-size="14.00">LoginPacket</text>
</g>
<!-- 1 -->
<!-- name: &quot;Client Network Version&quot;, typeName: &quot;&quot;, id: 1, branchId: 0, recurseId: &#45;1, attributes: 0, notes: &quot;&quot; -->
<g id="node2" class="node">
<title>1</title>
<ellipse fill="none" stroke="black" cx="249.42" cy="-72" rx="98.44" ry="18"/>
<text xml:space="preserve" text-anchor="middle" x="249.42" y="-66.95" font-family="Times New Roman,serif" font-size="14.00">Client Network Version</text>
</g>
<!-- 0&#45;&gt;1 -->
<g id="edge1" class="edge">
<title>0&#45;&gt;1</title>
<path fill="none" stroke="black" d="M110.39,-52.38C125.62,-54.54 142.72,-56.97 159.56,-59.37"/>
<polygon fill="black" stroke="black" points="158.68,-62.78 169.07,-60.72 159.67,-55.85 158.68,-62.78"/>
</g>
<!-- 3 -->
<!-- name: &quot;Connection Request&quot;, typeName: &quot;&quot;, id: 3, branchId: 0, recurseId: &#45;1, attributes: 0, notes: &quot;see @connectionRequest.html#diagram@&quot; -->
<g id="node4" class="node">
<title>3</title>
<ellipse fill="none" stroke="black" cx="249.42" cy="-18" rx="85.64" ry="18"/>
<text xml:space="preserve" text-anchor="middle" x="249.42" y="-12.95" font-family="Times New Roman,serif" font-size="14.00">Connection Request</text>
</g>
<!-- 0&#45;&gt;3 -->
<g id="edge3" class="edge">
<title>0&#45;&gt;3</title>
<path fill="none" stroke="black" d="M110.39,-37.62C127.57,-35.18 147.14,-32.4 166.03,-29.71"/>
<polygon fill="black" stroke="black" points="166.46,-33.19 175.86,-28.31 165.47,-26.26 166.46,-33.19"/>
</g>
<!-- 2 -->
<!-- name: &quot;int&quot;, typeName: &quot;&quot;, id: 2, branchId: 0, recurseId: &#45;1, attributes: 512, notes: &quot;&quot; -->
<g id="node3" class="node">
<title>2</title>
<ellipse fill="none" stroke="black" cx="415.76" cy="-72" rx="27" ry="18"/>
<text xml:space="preserve" text-anchor="middle" x="415.76" y="-66.95" font-family="Times New Roman,serif" font-size="14.00">int</text>
</g>
<!-- 1&#45;&gt;2 -->
<g id="edge2" class="edge">
<title>1&#45;&gt;2</title>
<path fill="none" stroke="black" d="M347.92,-72C358.18,-72 368.12,-72 377.05,-72"/>
<polygon fill="black" stroke="black" points="377.03,-75.5 387.03,-72 377.03,-68.5 377.03,-75.5"/>
</g>
<!-- 4 -->
<!-- name: &quot;string&quot;, typeName: &quot;&quot;, id: 4, branchId: 0, recurseId: &#45;1, attributes: 512, notes: &quot;see @connectionRequest.html#diagram@&quot; -->
<g id="node5" class="node">
<title>4</title>
<ellipse fill="none" stroke="black" cx="415.76" cy="-18" rx="31.9" ry="18"/>
<text xml:space="preserve" text-anchor="middle" x="415.76" y="-12.95" font-family="Times New Roman,serif" font-size="14.00">string</text>
</g>
<!-- 3&#45;&gt;4 -->
<g id="edge4" class="edge">
<title>3&#45;&gt;4</title>
<path fill="none" stroke="black" d="M335.48,-18C348.27,-18 360.97,-18 372.33,-18"/>
<polygon fill="black" stroke="black" points="372.12,-21.5 382.12,-18 372.12,-14.5 372.12,-21.5"/>
</g>
</g>
</svg>
