<?xml version="1.0" encoding="UTF-8" standalone="no"?>
<!DOCTYPE svg PUBLIC "-//W3C//DTD SVG 1.1//EN"
 "http://www.w3.org/Graphics/SVG/1.1/DTD/svg11.dtd">
<!-- Generated by graphviz version 9.0.0 (20230911.1827)
 -->
<!-- Title: MapDecoration Pages: 1 -->
<svg width="536pt" height="314pt"
 viewBox="0.00 0.00 536.08 314.00" xmlns="http://www.w3.org/2000/svg" xmlns:xlink="http://www.w3.org/1999/xlink">
<g id="graph0" class="graph" transform="scale(1 1) rotate(0) translate(4 310)">
<title>MapDecoration</title>
<polygon fill="white" stroke="none" points="-4,4 -4,-310 532.08,-310 532.08,4 -4,4"/>
<!-- 60 -->
<!-- name: &quot;MapDecoration&quot;, typeName: &quot;&quot;, id: 60, branchId: 0, recurseId: &#45;1, attributes: 0, notes: &quot;&quot; -->
<g id="node1" class="node">
<title>60</title>
<ellipse fill="none" stroke="black" cx="68.53" cy="-153" rx="68.53" ry="18"/>
<text text-anchor="middle" x="68.53" y="-147.57" font-family="Times New Roman,serif" font-size="14.00">MapDecoration</text>
</g>
<!-- 61 -->
<!-- name: &quot;Map Decoration Type&quot;, typeName: &quot;&quot;, id: 61, branchId: 0, recurseId: &#45;1, attributes: 0, notes: &quot;enumeration: MapDecoration::Type&quot; -->
<g id="node2" class="node">
<title>61</title>
<ellipse fill="none" stroke="black" cx="266.04" cy="-288" rx="92.98" ry="18"/>
<text text-anchor="middle" x="266.04" y="-282.57" font-family="Times New Roman,serif" font-size="14.00">Map Decoration Type</text>
</g>
<!-- 60&#45;&gt;61 -->
<g id="edge1" class="edge">
<title>60&#45;&gt;61</title>
<path fill="none" stroke="black" d="M82.1,-171.09C99.71,-195.12 133.99,-237.26 173.06,-261 179.03,-264.63 185.52,-267.8 192.2,-270.55"/>
<polygon fill="black" stroke="black" points="190.78,-273.76 201.37,-274.02 193.26,-267.21 190.78,-273.76"/>
</g>
<!-- 63 -->
<!-- name: &quot;Rotation&quot;, typeName: &quot;&quot;, id: 63, branchId: 0, recurseId: &#45;1, attributes: 0, notes: &quot;&quot; -->
<g id="node4" class="node">
<title>63</title>
<ellipse fill="none" stroke="black" cx="266.04" cy="-234" rx="42.58" ry="18"/>
<text text-anchor="middle" x="266.04" y="-228.57" font-family="Times New Roman,serif" font-size="14.00">Rotation</text>
</g>
<!-- 60&#45;&gt;63 -->
<g id="edge3" class="edge">
<title>60&#45;&gt;63</title>
<path fill="none" stroke="black" d="M97.82,-169.68C118.24,-181.23 146.73,-196.39 173.06,-207 187.33,-212.75 203.28,-217.87 217.85,-222.06"/>
<polygon fill="black" stroke="black" points="216.63,-225.36 227.21,-224.68 218.52,-218.61 216.63,-225.36"/>
</g>
<!-- 65 -->
<!-- name: &quot;X&quot;, typeName: &quot;&quot;, id: 65, branchId: 0, recurseId: &#45;1, attributes: 0, notes: &quot;&quot; -->
<g id="node6" class="node">
<title>65</title>
<ellipse fill="none" stroke="black" cx="266.04" cy="-180" rx="27" ry="18"/>
<text text-anchor="middle" x="266.04" y="-174.57" font-family="Times New Roman,serif" font-size="14.00">X</text>
</g>
<!-- 60&#45;&gt;65 -->
<g id="edge5" class="edge">
<title>60&#45;&gt;65</title>
<path fill="none" stroke="black" d="M130.05,-161.36C162.14,-165.79 200.52,-171.09 228.14,-174.9"/>
<polygon fill="black" stroke="black" points="227.38,-178.33 237.77,-176.23 228.34,-171.4 227.38,-178.33"/>
</g>
<!-- 67 -->
<!-- name: &quot;Y&quot;, typeName: &quot;&quot;, id: 67, branchId: 0, recurseId: &#45;1, attributes: 0, notes: &quot;&quot; -->
<g id="node8" class="node">
<title>67</title>
<ellipse fill="none" stroke="black" cx="266.04" cy="-126" rx="27" ry="18"/>
<text text-anchor="middle" x="266.04" y="-120.58" font-family="Times New Roman,serif" font-size="14.00">Y</text>
</g>
<!-- 60&#45;&gt;67 -->
<g id="edge7" class="edge">
<title>60&#45;&gt;67</title>
<path fill="none" stroke="black" d="M130.05,-144.64C162.14,-140.21 200.52,-134.91 228.14,-131.1"/>
<polygon fill="black" stroke="black" points="228.34,-134.6 237.77,-129.77 227.38,-127.67 228.34,-134.6"/>
</g>
<!-- 69 -->
<!-- name: &quot;Label&quot;, typeName: &quot;&quot;, id: 69, branchId: 0, recurseId: &#45;1, attributes: 0, notes: &quot;&quot; -->
<g id="node10" class="node">
<title>69</title>
<ellipse fill="none" stroke="black" cx="266.04" cy="-72" rx="31.1" ry="18"/>
<text text-anchor="middle" x="266.04" y="-66.58" font-family="Times New Roman,serif" font-size="14.00">Label</text>
</g>
<!-- 60&#45;&gt;69 -->
<g id="edge9" class="edge">
<title>60&#45;&gt;69</title>
<path fill="none" stroke="black" d="M97.82,-136.32C118.24,-124.77 146.73,-109.61 173.06,-99 189.99,-92.18 209.3,-86.24 225.84,-81.69"/>
<polygon fill="black" stroke="black" points="226.56,-85.12 235.32,-79.16 224.76,-78.36 226.56,-85.12"/>
</g>
<!-- 71 -->
<!-- name: &quot;Color &#45; ARGB&quot;, typeName: &quot;&quot;, id: 71, branchId: 0, recurseId: &#45;1, attributes: 0, notes: &quot;&quot; -->
<g id="node12" class="node">
<title>71</title>
<ellipse fill="none" stroke="black" cx="266.04" cy="-18" rx="66.03" ry="18"/>
<text text-anchor="middle" x="266.04" y="-12.57" font-family="Times New Roman,serif" font-size="14.00">Color &#45; ARGB</text>
</g>
<!-- 60&#45;&gt;71 -->
<g id="edge11" class="edge">
<title>60&#45;&gt;71</title>
<path fill="none" stroke="black" d="M82.1,-134.91C99.71,-110.88 133.99,-68.74 173.06,-45 181.73,-39.73 191.48,-35.44 201.31,-31.96"/>
<polygon fill="black" stroke="black" points="202.1,-35.39 210.53,-28.97 199.94,-28.73 202.1,-35.39"/>
</g>
<!-- 62 -->
<!-- name: &quot;byte&quot;, typeName: &quot;&quot;, id: 62, branchId: 0, recurseId: &#45;1, attributes: 512, notes: &quot;&quot; -->
<g id="node3" class="node">
<title>62</title>
<ellipse fill="none" stroke="black" cx="461.55" cy="-288" rx="27" ry="18"/>
<text text-anchor="middle" x="461.55" y="-282.57" font-family="Times New Roman,serif" font-size="14.00">byte</text>
</g>
<!-- 61&#45;&gt;62 -->
<g id="edge2" class="edge">
<title>61&#45;&gt;62</title>
<path fill="none" stroke="black" d="M359.26,-288C381.78,-288 404.63,-288 422.91,-288"/>
<polygon fill="black" stroke="black" points="422.7,-291.5 432.7,-288 422.7,-284.5 422.7,-291.5"/>
</g>
<!-- 64 -->
<!-- name: &quot;byte&quot;, typeName: &quot;&quot;, id: 64, branchId: 0, recurseId: &#45;1, attributes: 512, notes: &quot;&quot; -->
<g id="node5" class="node">
<title>64</title>
<ellipse fill="none" stroke="black" cx="461.55" cy="-234" rx="27" ry="18"/>
<text text-anchor="middle" x="461.55" y="-228.57" font-family="Times New Roman,serif" font-size="14.00">byte</text>
</g>
<!-- 63&#45;&gt;64 -->
<g id="edge4" class="edge">
<title>63&#45;&gt;64</title>
<path fill="none" stroke="black" d="M309.03,-234C342.88,-234 390.08,-234 422.77,-234"/>
<polygon fill="black" stroke="black" points="422.59,-237.5 432.59,-234 422.59,-230.5 422.59,-237.5"/>
</g>
<!-- 66 -->
<!-- name: &quot;byte&quot;, typeName: &quot;&quot;, id: 66, branchId: 0, recurseId: &#45;1, attributes: 512, notes: &quot;&quot; -->
<g id="node7" class="node">
<title>66</title>
<ellipse fill="none" stroke="black" cx="461.55" cy="-180" rx="27" ry="18"/>
<text text-anchor="middle" x="461.55" y="-174.57" font-family="Times New Roman,serif" font-size="14.00">byte</text>
</g>
<!-- 65&#45;&gt;66 -->
<g id="edge6" class="edge">
<title>65&#45;&gt;66</title>
<path fill="none" stroke="black" d="M293.13,-180C326.61,-180 384.88,-180 423.08,-180"/>
<polygon fill="black" stroke="black" points="422.73,-183.5 432.73,-180 422.73,-176.5 422.73,-183.5"/>
</g>
<!-- 68 -->
<!-- name: &quot;byte&quot;, typeName: &quot;&quot;, id: 68, branchId: 0, recurseId: &#45;1, attributes: 512, notes: &quot;&quot; -->
<g id="node9" class="node">
<title>68</title>
<ellipse fill="none" stroke="black" cx="461.55" cy="-126" rx="27" ry="18"/>
<text text-anchor="middle" x="461.55" y="-120.58" font-family="Times New Roman,serif" font-size="14.00">byte</text>
</g>
<!-- 67&#45;&gt;68 -->
<g id="edge8" class="edge">
<title>67&#45;&gt;68</title>
<path fill="none" stroke="black" d="M293.13,-126C326.61,-126 384.88,-126 423.08,-126"/>
<polygon fill="black" stroke="black" points="422.73,-129.5 432.73,-126 422.73,-122.5 422.73,-129.5"/>
</g>
<!-- 70 -->
<!-- name: &quot;string&quot;, typeName: &quot;&quot;, id: 70, branchId: 0, recurseId: &#45;1, attributes: 512, notes: &quot;&quot; -->
<g id="node11" class="node">
<title>70</title>
<ellipse fill="none" stroke="black" cx="461.55" cy="-72" rx="31.1" ry="18"/>
<text text-anchor="middle" x="461.55" y="-66.58" font-family="Times New Roman,serif" font-size="14.00">string</text>
</g>
<!-- 69&#45;&gt;70 -->
<g id="edge10" class="edge">
<title>69&#45;&gt;70</title>
<path fill="none" stroke="black" d="M297.27,-72C329.98,-72 382.35,-72 418.93,-72"/>
<polygon fill="black" stroke="black" points="418.69,-75.5 428.69,-72 418.69,-68.5 418.69,-75.5"/>
</g>
<!-- 72 -->
<!-- name: &quot;unsigned varint&quot;, typeName: &quot;&quot;, id: 72, branchId: 0, recurseId: &#45;1, attributes: 512, notes: &quot;&quot; -->
<g id="node13" class="node">
<title>72</title>
<ellipse fill="none" stroke="black" cx="461.55" cy="-18" rx="66.53" ry="18"/>
<text text-anchor="middle" x="461.55" y="-12.57" font-family="Times New Roman,serif" font-size="14.00">unsigned varint</text>
</g>
<!-- 71&#45;&gt;72 -->
<g id="edge12" class="edge">
<title>71&#45;&gt;72</title>
<path fill="none" stroke="black" d="M332.55,-18C348.85,-18 366.48,-18 383.29,-18"/>
<polygon fill="black" stroke="black" points="383.26,-21.5 393.26,-18 383.26,-14.5 383.26,-21.5"/>
</g>
</g>
</svg>
