<?xml version="1.0" encoding="UTF-8" standalone="no"?>
<!DOCTYPE svg PUBLIC "-//W3C//DTD SVG 1.1//EN"
 "http://www.w3.org/Graphics/SVG/1.1/DTD/svg11.dtd">
<!-- Generated by graphviz version 11.0.0 (20240428.1522)
 -->
<!-- Title: MapItemTrackedActor::UniqueId Pages: 1 -->
<svg width="1223pt" height="206pt"
 viewBox="0.00 0.00 1222.56 206.00" xmlns="http://www.w3.org/2000/svg" xmlns:xlink="http://www.w3.org/1999/xlink">
<g id="graph0" class="graph" transform="scale(1 1) rotate(0) translate(4 202)">
<title>MapItemTrackedActor::UniqueId</title>
<polygon fill="white" stroke="none" points="-4,4 -4,-202 1218.56,-202 1218.56,4 -4,4"/>
<!-- 38 -->
<!-- name: &quot;MapItemTrackedActor::UniqueId&quot;, typeName: &quot;&quot;, id: 38, branchId: 0, recurseId: &#45;1, attributes: 0, notes: &quot;&quot; -->
<g id="node1" class="node">
<title>38</title>
<ellipse fill="none" stroke="black" cx="134.9" cy="-126" rx="134.9" ry="18"/>
<text text-anchor="middle" x="134.9" y="-120.58" font-family="Times New Roman,serif" font-size="14.00">MapItemTrackedActor::UniqueId</text>
</g>
<!-- 39 -->
<!-- name: &quot;Type&quot;, typeName: &quot;&quot;, id: 39, branchId: 0, recurseId: &#45;1, attributes: 0, notes: &quot;&quot; -->
<g id="node2" class="node">
<title>39</title>
<ellipse fill="none" stroke="black" cx="438.67" cy="-166" rx="30.11" ry="18"/>
<text text-anchor="middle" x="438.67" y="-160.57" font-family="Times New Roman,serif" font-size="14.00">Type</text>
</g>
<!-- 38&#45;&gt;39 -->
<g id="edge1" class="edge">
<title>38&#45;&gt;39</title>
<path fill="none" stroke="black" d="M232.21,-138.77C288.06,-146.17 355.44,-155.1 397.43,-160.67"/>
<polygon fill="black" stroke="black" points="396.96,-164.13 407.33,-161.98 397.88,-157.2 396.96,-164.13"/>
</g>
<!-- 41 -->
<!-- name: &quot;Dependency on &#39;Entity ID or Block Position&#39;&quot;, typeName: &quot;&quot;, id: 41, branchId: 0, recurseId: &#45;1, attributes: 2, notes: &quot;&quot; -->
<g id="node4" class="node">
<title>41</title>
<polygon fill="none" stroke="black" points="565.54,-117 305.79,-117 305.79,-81 571.54,-81 571.54,-111 565.54,-117"/>
<polyline fill="none" stroke="black" points="565.54,-117 565.54,-111"/>
<polyline fill="none" stroke="black" points="571.54,-111 565.54,-111"/>
<text text-anchor="middle" x="438.67" y="-93.58" font-family="Times New Roman,serif" font-size="14.00">Dependency on &#39;Entity ID or Block Position&#39;</text>
</g>
<!-- 38&#45;&gt;41 -->
<g id="edge3" class="edge">
<title>38&#45;&gt;41</title>
<path fill="none" stroke="black" d="M248.26,-115.95C263.23,-114.61 278.74,-113.22 294.15,-111.84"/>
<polygon fill="black" stroke="black" points="294.18,-115.35 303.83,-110.97 293.56,-108.38 294.18,-115.35"/>
</g>
<!-- 40 -->
<!-- name: &quot;int&quot;, typeName: &quot;&quot;, id: 40, branchId: 0, recurseId: &#45;1, attributes: 512, notes: &quot;&quot; -->
<g id="node3" class="node">
<title>40</title>
<ellipse fill="none" stroke="black" cx="1119.59" cy="-180" rx="27" ry="18"/>
<text text-anchor="middle" x="1119.59" y="-174.57" font-family="Times New Roman,serif" font-size="14.00">int</text>
</g>
<!-- 39&#45;&gt;40 -->
<g id="edge2" class="edge">
<title>39&#45;&gt;40</title>
<path fill="none" stroke="black" d="M468.84,-166.6C577.53,-168.84 958.95,-176.71 1080.83,-179.22"/>
<polygon fill="black" stroke="black" points="1080.55,-182.72 1090.62,-179.42 1080.69,-175.72 1080.55,-182.72"/>
</g>
<!-- 42 -->
<!-- name: &quot;Type Entity&quot;, typeName: &quot;&quot;, id: 42, branchId: 0, recurseId: &#45;1, attributes: 4, notes: &quot;&quot; -->
<g id="node5" class="node">
<title>42</title>
<polygon fill="none" stroke="black" points="715.04,-144 638.59,-126 715.04,-108 791.49,-126 715.04,-144"/>
<text text-anchor="middle" x="715.04" y="-120.58" font-family="Times New Roman,serif" font-size="14.00">Type Entity</text>
</g>
<!-- 41&#45;&gt;42 -->
<g id="edge4" class="edge">
<title>41&#45;&gt;42</title>
<path fill="none" stroke="black" d="M572.03,-112.03C598.52,-114.63 625.26,-117.26 648.27,-119.53"/>
<polygon fill="black" stroke="black" points="647.8,-123 658.1,-120.49 648.49,-116.03 647.8,-123"/>
</g>
<!-- 45 -->
<!-- name: &quot;Type BlockEntity&quot;, typeName: &quot;&quot;, id: 45, branchId: 1, recurseId: &#45;1, attributes: 4, notes: &quot;&quot; -->
<g id="node8" class="node">
<title>45</title>
<polygon fill="none" stroke="black" points="715.04,-90 607.54,-72 715.04,-54 822.54,-72 715.04,-90"/>
<text text-anchor="middle" x="715.04" y="-66.58" font-family="Times New Roman,serif" font-size="14.00">Type BlockEntity</text>
</g>
<!-- 41&#45;&gt;45 -->
<g id="edge7" class="edge">
<title>41&#45;&gt;45</title>
<path fill="none" stroke="black" d="M572.03,-85.97C593.22,-83.89 614.57,-81.79 634.04,-79.87"/>
<polygon fill="black" stroke="black" points="634.16,-83.38 643.77,-78.91 633.48,-76.41 634.16,-83.38"/>
</g>
<!-- 48 -->
<!-- name: &quot;Default&quot;, typeName: &quot;&quot;, id: 48, branchId: 2, recurseId: &#45;1, attributes: 4, notes: &quot;&quot; -->
<g id="node11" class="node">
<title>48</title>
<polygon fill="none" stroke="black" points="923.58,-36 871.12,-18 923.58,0 976.03,-18 923.58,-36"/>
<text text-anchor="middle" x="923.58" y="-12.58" font-family="Times New Roman,serif" font-size="14.00">Default</text>
</g>
<!-- 41&#45;&gt;48 -->
<g id="edge10" class="edge">
<title>41&#45;&gt;48</title>
<path fill="none" stroke="black" d="M487.02,-80.6C520.24,-68.48 565.97,-53.36 607.54,-45 694.3,-27.56 796.73,-21.38 860.68,-19.19"/>
<polygon fill="black" stroke="black" points="860.76,-22.69 870.64,-18.88 860.54,-15.69 860.76,-22.69"/>
</g>
<!-- 43 -->
<!-- name: &quot;Unique ID&quot;, typeName: &quot;ActorUniqueID&quot;, id: 43, branchId: 0, recurseId: &#45;1, attributes: 256, notes: &quot;&quot; -->
<g id="node6" class="node">
<title>43</title>
<ellipse fill="none" stroke="black" cx="923.58" cy="-126" rx="49.07" ry="18"/>
<text text-anchor="middle" x="923.58" y="-120.58" font-family="Times New Roman,serif" font-size="14.00">Unique ID</text>
</g>
<!-- 42&#45;&gt;43 -->
<g id="edge5" class="edge">
<title>42&#45;&gt;43</title>
<path fill="none" stroke="black" d="M793.53,-126C816.43,-126 841.14,-126 862.74,-126"/>
<polygon fill="black" stroke="black" points="862.54,-129.5 872.54,-126 862.54,-122.5 862.54,-129.5"/>
</g>
<!-- 44 -->
<!-- name: &quot;ActorUniqueID&quot;, typeName: &quot;&quot;, id: 44, branchId: 0, recurseId: &#45;1, attributes: 512, notes: &quot;&quot; -->
<g id="node7" class="node">
<title>44</title>
<ellipse fill="none" stroke="black" cx="1119.59" cy="-126" rx="68.03" ry="18"/>
<text text-anchor="middle" x="1119.59" y="-120.58" font-family="Times New Roman,serif" font-size="14.00">ActorUniqueID</text>
</g>
<!-- 43&#45;&gt;44 -->
<g id="edge6" class="edge">
<title>43&#45;&gt;44</title>
<path fill="none" stroke="black" d="M973.03,-126C993.29,-126 1017.36,-126 1040.03,-126"/>
<polygon fill="black" stroke="black" points="1039.86,-129.5 1049.86,-126 1039.86,-122.5 1039.86,-129.5"/>
</g>
<!-- 46 -->
<!-- name: &quot;Block position&quot;, typeName: &quot;NetworkBlockPosition&quot;, id: 46, branchId: 0, recurseId: &#45;1, attributes: 256, notes: &quot;&quot; -->
<g id="node9" class="node">
<title>46</title>
<ellipse fill="none" stroke="black" cx="923.58" cy="-72" rx="65.04" ry="18"/>
<text text-anchor="middle" x="923.58" y="-66.58" font-family="Times New Roman,serif" font-size="14.00">Block position</text>
</g>
<!-- 45&#45;&gt;46 -->
<g id="edge8" class="edge">
<title>45&#45;&gt;46</title>
<path fill="none" stroke="black" d="M825.36,-72C832.63,-72 839.87,-72 846.92,-72"/>
<polygon fill="black" stroke="black" points="846.69,-75.5 856.69,-72 846.69,-68.5 846.69,-75.5"/>
</g>
<!-- 47 -->
<!-- name: &quot;NetworkBlockPosition&quot;, typeName: &quot;&quot;, id: 47, branchId: 0, recurseId: &#45;1, attributes: 512, notes: &quot;&quot; -->
<g id="node10" class="node">
<title>47</title>
<ellipse fill="none" stroke="black" cx="1119.59" cy="-72" rx="94.98" ry="18"/>
<text text-anchor="middle" x="1119.59" y="-66.58" font-family="Times New Roman,serif" font-size="14.00">NetworkBlockPosition</text>
</g>
<!-- 46&#45;&gt;47 -->
<g id="edge9" class="edge">
<title>46&#45;&gt;47</title>
<path fill="none" stroke="black" d="M988.91,-72C996.63,-72 1004.67,-72 1012.78,-72"/>
<polygon fill="black" stroke="black" points="1012.78,-75.5 1022.78,-72 1012.78,-68.5 1012.78,-75.5"/>
</g>
<!-- 49 -->
<!-- name: &quot;[No Data]&quot;, typeName: &quot;&quot;, id: 49, branchId: 0, recurseId: &#45;1, attributes: 512, notes: &quot;&quot; -->
<g id="node12" class="node">
<title>49</title>
<ellipse fill="none" stroke="black" cx="1119.59" cy="-18" rx="47.57" ry="18"/>
<text text-anchor="middle" x="1119.59" y="-12.58" font-family="Times New Roman,serif" font-size="14.00">[No Data]</text>
</g>
<!-- 48&#45;&gt;49 -->
<g id="edge11" class="edge">
<title>48&#45;&gt;49</title>
<path fill="none" stroke="black" d="M977.33,-18C1003.04,-18 1034.02,-18 1060.41,-18"/>
<polygon fill="black" stroke="black" points="1060.28,-21.5 1070.28,-18 1060.28,-14.5 1060.28,-21.5"/>
</g>
</g>
</svg>
