<?xml version="1.0" encoding="UTF-8" standalone="no"?>
<!DOCTYPE svg PUBLIC "-//W3C//DTD SVG 1.1//EN"
 "http://www.w3.org/Graphics/SVG/1.1/DTD/svg11.dtd">
<!-- Generated by graphviz version 9.0.0 (20230911.1827)
 -->
<!-- Title: MapInfoRequestPacket Pages: 1 -->
<svg width="1282pt" height="260pt"
 viewBox="0.00 0.00 1282.38 260.00" xmlns="http://www.w3.org/2000/svg" xmlns:xlink="http://www.w3.org/1999/xlink">
<g id="graph0" class="graph" transform="scale(1 1) rotate(0) translate(4 256)">
<title>MapInfoRequestPacket</title>
<polygon fill="white" stroke="none" points="-4,4 -4,-256 1278.38,-256 1278.38,4 -4,4"/>
<!-- 0 -->
<!-- name: &quot;MapInfoRequestPacket&quot;, typeName: &quot;&quot;, id: 0, branchId: 68, recurseId: &#45;1, attributes: 0, notes: &quot;&quot; -->
<g id="node1" class="node">
<title>0</title>
<ellipse fill="none" stroke="black" cx="98.47" cy="-180" rx="98.47" ry="18"/>
<text text-anchor="middle" x="98.47" y="-174.57" font-family="Times New Roman,serif" font-size="14.00">MapInfoRequestPacket</text>
</g>
<!-- 1 -->
<!-- name: &quot;Map Unique ID&quot;, typeName: &quot;ActorUniqueID&quot;, id: 1, branchId: 0, recurseId: &#45;1, attributes: 256, notes: &quot;&quot; -->
<g id="node2" class="node">
<title>1</title>
<ellipse fill="none" stroke="black" cx="714.13" cy="-230" rx="68.53" ry="18"/>
<text text-anchor="middle" x="714.13" y="-224.57" font-family="Times New Roman,serif" font-size="14.00">Map Unique ID</text>
</g>
<!-- 0&#45;&gt;1 -->
<g id="edge1" class="edge">
<title>0&#45;&gt;1</title>
<path fill="none" stroke="black" d="M183.8,-189.23C200.1,-190.9 217.04,-192.57 232.94,-194 374.96,-206.77 540.89,-218.5 635.83,-224.91"/>
<polygon fill="black" stroke="black" points="635.33,-228.39 645.54,-225.57 635.8,-221.4 635.33,-228.39"/>
</g>
<!-- 3 -->
<!-- name: &quot;Client Pixels List Size&quot;, typeName: &quot;&quot;, id: 3, branchId: 0, recurseId: &#45;1, attributes: 0, notes: &quot;&quot; -->
<g id="node4" class="node">
<title>3</title>
<ellipse fill="none" stroke="black" cx="914.13" cy="-180" rx="90.98" ry="18"/>
<text text-anchor="middle" x="914.13" y="-174.57" font-family="Times New Roman,serif" font-size="14.00">Client Pixels List Size</text>
</g>
<!-- 0&#45;&gt;3 -->
<g id="edge3" class="edge">
<title>0&#45;&gt;3</title>
<path fill="none" stroke="black" d="M197.21,-180C352.46,-180 653.93,-180 811.55,-180"/>
<polygon fill="black" stroke="black" points="811.13,-183.5 821.13,-180 811.13,-176.5 811.13,-183.5"/>
</g>
<!-- 5 -->
<!-- name: &quot;Dependency on &#39;mClientPixels.size() &gt; 0 ?&#39;&quot;, typeName: &quot;&quot;, id: 5, branchId: 0, recurseId: &#45;1, attributes: 2, notes: &quot;&quot; -->
<g id="node6" class="node">
<title>5</title>
<polygon fill="none" stroke="black" points="482.19,-144 232.94,-144 232.94,-108 488.19,-108 488.19,-138 482.19,-144"/>
<polyline fill="none" stroke="black" points="482.19,-144 482.19,-138"/>
<polyline fill="none" stroke="black" points="488.19,-138 482.19,-138"/>
<text text-anchor="middle" x="360.56" y="-120.58" font-family="Times New Roman,serif" font-size="14.00">Dependency on &#39;mClientPixels.size() &gt; 0 ?&#39;</text>
</g>
<!-- 0&#45;&gt;5 -->
<g id="edge5" class="edge">
<title>0&#45;&gt;5</title>
<path fill="none" stroke="black" d="M165.1,-166.37C193.77,-160.42 228.04,-153.31 259.76,-146.72"/>
<polygon fill="black" stroke="black" points="260.3,-150.18 269.38,-144.72 258.87,-143.33 260.3,-150.18"/>
</g>
<!-- 2 -->
<!-- name: &quot;ActorUniqueID&quot;, typeName: &quot;&quot;, id: 2, branchId: 0, recurseId: &#45;1, attributes: 512, notes: &quot;&quot; -->
<g id="node3" class="node">
<title>2</title>
<ellipse fill="none" stroke="black" cx="1206.35" cy="-234" rx="68.03" ry="18"/>
<text text-anchor="middle" x="1206.35" y="-228.57" font-family="Times New Roman,serif" font-size="14.00">ActorUniqueID</text>
</g>
<!-- 1&#45;&gt;2 -->
<g id="edge2" class="edge">
<title>1&#45;&gt;2</title>
<path fill="none" stroke="black" d="M783.03,-230.55C873.09,-231.29 1031.7,-232.58 1126.81,-233.36"/>
<polygon fill="black" stroke="black" points="1126.54,-236.86 1136.57,-233.44 1126.6,-229.86 1126.54,-236.86"/>
</g>
<!-- 4 -->
<!-- name: &quot;unsigned int&quot;, typeName: &quot;&quot;, id: 4, branchId: 0, recurseId: &#45;1, attributes: 512, notes: &quot;&quot; -->
<g id="node5" class="node">
<title>4</title>
<ellipse fill="none" stroke="black" cx="1206.35" cy="-180" rx="55.06" ry="18"/>
<text text-anchor="middle" x="1206.35" y="-174.57" font-family="Times New Roman,serif" font-size="14.00">unsigned int</text>
</g>
<!-- 3&#45;&gt;4 -->
<g id="edge4" class="edge">
<title>3&#45;&gt;4</title>
<path fill="none" stroke="black" d="M1005.37,-180C1048.83,-180 1100,-180 1139.7,-180"/>
<polygon fill="black" stroke="black" points="1139.59,-183.5 1149.59,-180 1139.59,-176.5 1139.59,-183.5"/>
</g>
<!-- 6 -->
<!-- name: &quot;if (0)&quot;, typeName: &quot;&quot;, id: 6, branchId: 0, recurseId: &#45;1, attributes: 4, notes: &quot;&quot; -->
<g id="node7" class="node">
<title>6</title>
<polygon fill="none" stroke="black" points="564.65,-144 524.19,-126 564.65,-108 605.11,-126 564.65,-144"/>
<text text-anchor="middle" x="564.65" y="-120.58" font-family="Times New Roman,serif" font-size="14.00">if (0)</text>
</g>
<!-- 5&#45;&gt;6 -->
<g id="edge6" class="edge">
<title>5&#45;&gt;6</title>
<path fill="none" stroke="black" d="M488.68,-126C496.68,-126 504.45,-126 511.75,-126"/>
<polygon fill="black" stroke="black" points="511.7,-129.5 521.7,-126 511.7,-122.5 511.7,-129.5"/>
</g>
<!-- 8 -->
<!-- name: &quot;if (1)&quot;, typeName: &quot;&quot;, id: 8, branchId: 1, recurseId: &#45;1, attributes: 4, notes: &quot;&quot; -->
<g id="node9" class="node">
<title>8</title>
<polygon fill="none" stroke="black" points="564.65,-90 524.19,-72 564.65,-54 605.11,-72 564.65,-90"/>
<text text-anchor="middle" x="564.65" y="-66.58" font-family="Times New Roman,serif" font-size="14.00">if (1)</text>
</g>
<!-- 5&#45;&gt;8 -->
<g id="edge8" class="edge">
<title>5&#45;&gt;8</title>
<path fill="none" stroke="black" d="M430.54,-107.57C463.16,-98.85 500.75,-88.81 527.64,-81.62"/>
<polygon fill="black" stroke="black" points="528.25,-85.08 537.01,-79.12 526.44,-78.32 528.25,-85.08"/>
</g>
<!-- 7 -->
<!-- name: &quot;[No Data]&quot;, typeName: &quot;&quot;, id: 7, branchId: 0, recurseId: &#45;1, attributes: 512, notes: &quot;&quot; -->
<g id="node8" class="node">
<title>7</title>
<ellipse fill="none" stroke="black" cx="1206.35" cy="-126" rx="47.57" ry="18"/>
<text text-anchor="middle" x="1206.35" y="-120.58" font-family="Times New Roman,serif" font-size="14.00">[No Data]</text>
</g>
<!-- 6&#45;&gt;7 -->
<g id="edge7" class="edge">
<title>6&#45;&gt;7</title>
<path fill="none" stroke="black" d="M606.15,-126C715.88,-126 1019.22,-126 1147.2,-126"/>
<polygon fill="black" stroke="black" points="1147.14,-129.5 1157.14,-126 1147.14,-122.5 1147.14,-129.5"/>
</g>
<!-- 9 -->
<!-- name: &quot;Client Pixels List&quot;, typeName: &quot;&quot;, id: 9, branchId: 0, recurseId: &#45;1, attributes: 8, notes: &quot;These are sent from the client to tell the Server map about terrain pixels it doesn&#39;t know about&quot; -->
<g id="node10" class="node">
<title>9</title>
<ellipse fill="none" stroke="black" cx="714.13" cy="-72" rx="73.02" ry="18"/>
<text text-anchor="middle" x="714.13" y="-66.58" font-family="Times New Roman,serif" font-size="14.00">Client Pixels List</text>
</g>
<!-- 8&#45;&gt;9 -->
<g id="edge9" class="edge">
<title>8&#45;&gt;9</title>
<path fill="none" stroke="black" d="M605.95,-72C613.31,-72 621.23,-72 629.32,-72"/>
<polygon fill="black" stroke="black" points="629.32,-75.5 639.32,-72 629.32,-68.5 629.32,-75.5"/>
</g>
<!-- 10 -->
<!-- name: &quot;example element&quot;, typeName: &quot;&quot;, id: 10, branchId: 0, recurseId: &#45;1, attributes: 16, notes: &quot;&quot; -->
<g id="node11" class="node">
<title>10</title>
<ellipse fill="none" stroke="black" stroke-dasharray="1,5" cx="914.13" cy="-72" rx="71.52" ry="18"/>
<text text-anchor="middle" x="914.13" y="-66.58" font-family="Times New Roman,serif" font-size="14.00">example element</text>
</g>
<!-- 9&#45;&gt;10 -->
<g id="edge10" class="edge">
<title>9&#45;&gt;10</title>
<path fill="none" stroke="black" d="M787.45,-72C801.57,-72 816.48,-72 830.89,-72"/>
<polygon fill="black" stroke="black" points="830.81,-75.5 840.81,-72 830.81,-68.5 830.81,-75.5"/>
</g>
<!-- 11 -->
<!-- name: &quot;pixel&quot;, typeName: &quot;&quot;, id: 11, branchId: 0, recurseId: &#45;1, attributes: 0, notes: &quot;&quot; -->
<g id="node12" class="node">
<title>11</title>
<ellipse fill="none" stroke="black" cx="1071.72" cy="-72" rx="28.11" ry="18"/>
<text text-anchor="middle" x="1071.72" y="-66.58" font-family="Times New Roman,serif" font-size="14.00">pixel</text>
</g>
<!-- 10&#45;&gt;11 -->
<g id="edge11" class="edge">
<title>10&#45;&gt;11</title>
<path fill="none" stroke="black" d="M986.09,-72C1002,-72 1018.29,-72 1032.27,-72"/>
<polygon fill="black" stroke="black" points="1031.9,-75.5 1041.9,-72 1031.9,-68.5 1031.9,-75.5"/>
</g>
<!-- 13 -->
<!-- name: &quot;index&quot;, typeName: &quot;&quot;, id: 13, branchId: 0, recurseId: &#45;1, attributes: 0, notes: &quot;&quot; -->
<g id="node14" class="node">
<title>13</title>
<ellipse fill="none" stroke="black" cx="1071.72" cy="-18" rx="30.61" ry="18"/>
<text text-anchor="middle" x="1071.72" y="-12.57" font-family="Times New Roman,serif" font-size="14.00">index</text>
</g>
<!-- 10&#45;&gt;13 -->
<g id="edge13" class="edge">
<title>10&#45;&gt;13</title>
<path fill="none" stroke="black" d="M957.23,-57.39C981.21,-49.07 1010.96,-38.74 1033.98,-30.75"/>
<polygon fill="black" stroke="black" points="1034.96,-34.11 1043.26,-27.53 1032.67,-27.5 1034.96,-34.11"/>
</g>
<!-- 12 -->
<!-- name: &quot;unsigned int&quot;, typeName: &quot;&quot;, id: 12, branchId: 0, recurseId: &#45;1, attributes: 512, notes: &quot;&quot; -->
<g id="node13" class="node">
<title>12</title>
<ellipse fill="none" stroke="black" cx="1206.35" cy="-72" rx="55.06" ry="18"/>
<text text-anchor="middle" x="1206.35" y="-66.58" font-family="Times New Roman,serif" font-size="14.00">unsigned int</text>
</g>
<!-- 11&#45;&gt;12 -->
<g id="edge12" class="edge">
<title>11&#45;&gt;12</title>
<path fill="none" stroke="black" d="M1100.2,-72C1111.75,-72 1125.74,-72 1139.68,-72"/>
<polygon fill="black" stroke="black" points="1139.3,-75.5 1149.3,-72 1139.3,-68.5 1139.3,-75.5"/>
</g>
<!-- 14 -->
<!-- name: &quot;unsigned short&quot;, typeName: &quot;&quot;, id: 14, branchId: 0, recurseId: &#45;1, attributes: 512, notes: &quot;&quot; -->
<g id="node15" class="node">
<title>14</title>
<ellipse fill="none" stroke="black" cx="1206.35" cy="-18" rx="65.04" ry="18"/>
<text text-anchor="middle" x="1206.35" y="-12.57" font-family="Times New Roman,serif" font-size="14.00">unsigned short</text>
</g>
<!-- 13&#45;&gt;14 -->
<g id="edge14" class="edge">
<title>13&#45;&gt;14</title>
<path fill="none" stroke="black" d="M1102.81,-18C1111,-18 1120.25,-18 1129.75,-18"/>
<polygon fill="black" stroke="black" points="1129.47,-21.5 1139.47,-18 1129.47,-14.5 1129.47,-21.5"/>
</g>
</g>
</svg>
