<?xml version="1.0" encoding="UTF-8" standalone="no"?>
<!DOCTYPE svg PUBLIC "-//W3C//DTD SVG 1.1//EN"
 "http://www.w3.org/Graphics/SVG/1.1/DTD/svg11.dtd">
<!-- Generated by graphviz version 11.0.0 (20240428.1522)
 -->
<!-- Title: MapItemTrackedActor::UniqueId Pages: 1 -->
<svg width="965pt" height="206pt"
 viewBox="0.00 0.00 965.48 206.00" xmlns="http://www.w3.org/2000/svg" xmlns:xlink="http://www.w3.org/1999/xlink">
<g id="graph0" class="graph" transform="scale(1 1) rotate(0) translate(4 202)">
<title>MapItemTrackedActor::UniqueId</title>
<polygon fill="white" stroke="none" points="-4,4 -4,-202 961.48,-202 961.48,4 -4,4"/>
<!-- 42 -->
<!-- name: &quot;MapItemTrackedActor::UniqueId&quot;, typeName: &quot;&quot;, id: 42, branchId: 0, recurseId: &#45;1, attributes: 0, notes: &quot;&quot; -->
<g id="node1" class="node">
<title>42</title>
<ellipse fill="none" stroke="black" cx="134.9" cy="-126" rx="134.9" ry="18"/>
<text text-anchor="middle" x="134.9" y="-120.58" font-family="Times New Roman,serif" font-size="14.00">MapItemTrackedActor::UniqueId</text>
</g>
<!-- 43 -->
<!-- name: &quot;Type&quot;, typeName: &quot;&quot;, id: 43, branchId: 0, recurseId: &#45;1, attributes: 0, notes: &quot;&quot; -->
<g id="node2" class="node">
<title>43</title>
<ellipse fill="none" stroke="black" cx="377.17" cy="-166" rx="30.11" ry="18"/>
<text text-anchor="middle" x="377.17" y="-160.57" font-family="Times New Roman,serif" font-size="14.00">Type</text>
</g>
<!-- 42&#45;&gt;43 -->
<g id="edge1" class="edge">
<title>42&#45;&gt;43</title>
<path fill="none" stroke="black" d="M221.28,-140.22C260.51,-146.75 305.15,-154.18 336.4,-159.38"/>
<polygon fill="black" stroke="black" points="335.74,-162.82 346.18,-161.01 336.89,-155.91 335.74,-162.82"/>
</g>
<!-- 45 -->
<!-- name: &quot;Dependency on &#39;Type&#39;&quot;, typeName: &quot;&quot;, id: 45, branchId: 0, recurseId: &#45;1, attributes: 2, notes: &quot;&quot; -->
<g id="node4" class="node">
<title>45</title>
<polygon fill="none" stroke="black" points="442.54,-117 305.79,-117 305.79,-81 448.54,-81 448.54,-111 442.54,-117"/>
<polyline fill="none" stroke="black" points="442.54,-117 442.54,-111"/>
<polyline fill="none" stroke="black" points="448.54,-111 442.54,-111"/>
<text text-anchor="middle" x="377.17" y="-93.58" font-family="Times New Roman,serif" font-size="14.00">Dependency on &#39;Type&#39;</text>
</g>
<!-- 42&#45;&gt;45 -->
<g id="edge3" class="edge">
<title>42&#45;&gt;45</title>
<path fill="none" stroke="black" d="M239.53,-114.35C257.77,-112.3 276.52,-110.2 294.06,-108.23"/>
<polygon fill="black" stroke="black" points="294.35,-111.72 303.89,-107.12 293.56,-104.76 294.35,-111.72"/>
</g>
<!-- 44 -->
<!-- name: &quot;int&quot;, typeName: &quot;&quot;, id: 44, branchId: 0, recurseId: &#45;1, attributes: 512, notes: &quot;&quot; -->
<g id="node3" class="node">
<title>44</title>
<ellipse fill="none" stroke="black" cx="862.51" cy="-180" rx="27" ry="18"/>
<text text-anchor="middle" x="862.51" y="-174.57" font-family="Times New Roman,serif" font-size="14.00">int</text>
</g>
<!-- 43&#45;&gt;44 -->
<g id="edge2" class="edge">
<title>43&#45;&gt;44</title>
<path fill="none" stroke="black" d="M407.67,-166.85C491.42,-169.28 730.52,-176.21 823.69,-178.9"/>
<polygon fill="black" stroke="black" points="823.47,-182.4 833.57,-179.19 823.67,-175.4 823.47,-182.4"/>
</g>
<!-- 46 -->
<!-- name: &quot;if (0)&quot;, typeName: &quot;&quot;, id: 46, branchId: 0, recurseId: &#45;1, attributes: 4, notes: &quot;&quot; -->
<g id="node5" class="node">
<title>46</title>
<polygon fill="none" stroke="black" points="525,-144 484.54,-126 525,-108 565.46,-126 525,-144"/>
<text text-anchor="middle" x="525" y="-120.58" font-family="Times New Roman,serif" font-size="14.00">if (0)</text>
</g>
<!-- 45&#45;&gt;46 -->
<g id="edge4" class="edge">
<title>45&#45;&gt;46</title>
<path fill="none" stroke="black" d="M448.95,-112.1C461.23,-114.38 473.59,-116.67 484.64,-118.71"/>
<polygon fill="black" stroke="black" points="483.66,-122.09 494.13,-120.47 484.93,-115.21 483.66,-122.09"/>
</g>
<!-- 49 -->
<!-- name: &quot;if (1)&quot;, typeName: &quot;&quot;, id: 49, branchId: 1, recurseId: &#45;1, attributes: 4, notes: &quot;&quot; -->
<g id="node8" class="node">
<title>49</title>
<polygon fill="none" stroke="black" points="525,-90 484.54,-72 525,-54 565.46,-72 525,-90"/>
<text text-anchor="middle" x="525" y="-66.58" font-family="Times New Roman,serif" font-size="14.00">if (1)</text>
</g>
<!-- 45&#45;&gt;49 -->
<g id="edge7" class="edge">
<title>45&#45;&gt;49</title>
<path fill="none" stroke="black" d="M448.95,-85.9C461.23,-83.62 473.59,-81.33 484.64,-79.29"/>
<polygon fill="black" stroke="black" points="484.93,-82.79 494.13,-77.53 483.66,-75.91 484.93,-82.79"/>
</g>
<!-- 52 -->
<!-- name: &quot;if (2)&quot;, typeName: &quot;&quot;, id: 52, branchId: 2, recurseId: &#45;1, attributes: 4, notes: &quot;&quot; -->
<g id="node11" class="node">
<title>52</title>
<polygon fill="none" stroke="black" points="666.49,-36 626.04,-18 666.49,0 706.95,-18 666.49,-36"/>
<text text-anchor="middle" x="666.49" y="-12.58" font-family="Times New Roman,serif" font-size="14.00">if (2)</text>
</g>
<!-- 45&#45;&gt;52 -->
<g id="edge10" class="edge">
<title>45&#45;&gt;52</title>
<path fill="none" stroke="black" d="M407.78,-80.7C428.53,-68.7 457.31,-53.69 484.54,-45 528.5,-30.97 580.84,-24.17 617.9,-20.91"/>
<polygon fill="black" stroke="black" points="618.17,-24.4 627.85,-20.09 617.6,-17.42 618.17,-24.4"/>
</g>
<!-- 47 -->
<!-- name: &quot;Unique ID&quot;, typeName: &quot;ActorUniqueID&quot;, id: 47, branchId: 0, recurseId: &#45;1, attributes: 256, notes: &quot;&quot; -->
<g id="node6" class="node">
<title>47</title>
<ellipse fill="none" stroke="black" cx="666.49" cy="-126" rx="49.07" ry="18"/>
<text text-anchor="middle" x="666.49" y="-120.58" font-family="Times New Roman,serif" font-size="14.00">Unique ID</text>
</g>
<!-- 46&#45;&gt;47 -->
<g id="edge5" class="edge">
<title>46&#45;&gt;47</title>
<path fill="none" stroke="black" d="M566.35,-126C578.61,-126 592.35,-126 605.61,-126"/>
<polygon fill="black" stroke="black" points="605.57,-129.5 615.57,-126 605.57,-122.5 605.57,-129.5"/>
</g>
<!-- 48 -->
<!-- name: &quot;ActorUniqueID&quot;, typeName: &quot;&quot;, id: 48, branchId: 0, recurseId: &#45;1, attributes: 512, notes: &quot;&quot; -->
<g id="node7" class="node">
<title>48</title>
<ellipse fill="none" stroke="black" cx="862.51" cy="-126" rx="68.03" ry="18"/>
<text text-anchor="middle" x="862.51" y="-120.58" font-family="Times New Roman,serif" font-size="14.00">ActorUniqueID</text>
</g>
<!-- 47&#45;&gt;48 -->
<g id="edge6" class="edge">
<title>47&#45;&gt;48</title>
<path fill="none" stroke="black" d="M715.95,-126C736.21,-126 760.28,-126 782.95,-126"/>
<polygon fill="black" stroke="black" points="782.78,-129.5 792.78,-126 782.78,-122.5 782.78,-129.5"/>
</g>
<!-- 50 -->
<!-- name: &quot;Block position&quot;, typeName: &quot;NetworkBlockPosition&quot;, id: 50, branchId: 0, recurseId: &#45;1, attributes: 256, notes: &quot;&quot; -->
<g id="node9" class="node">
<title>50</title>
<ellipse fill="none" stroke="black" cx="666.49" cy="-72" rx="65.04" ry="18"/>
<text text-anchor="middle" x="666.49" y="-66.58" font-family="Times New Roman,serif" font-size="14.00">Block position</text>
</g>
<!-- 49&#45;&gt;50 -->
<g id="edge8" class="edge">
<title>49&#45;&gt;50</title>
<path fill="none" stroke="black" d="M566.35,-72C573.73,-72 581.65,-72 589.68,-72"/>
<polygon fill="black" stroke="black" points="589.55,-75.5 599.55,-72 589.55,-68.5 589.55,-75.5"/>
</g>
<!-- 51 -->
<!-- name: &quot;NetworkBlockPosition&quot;, typeName: &quot;&quot;, id: 51, branchId: 0, recurseId: &#45;1, attributes: 512, notes: &quot;&quot; -->
<g id="node10" class="node">
<title>51</title>
<ellipse fill="none" stroke="black" cx="862.51" cy="-72" rx="94.98" ry="18"/>
<text text-anchor="middle" x="862.51" y="-66.58" font-family="Times New Roman,serif" font-size="14.00">NetworkBlockPosition</text>
</g>
<!-- 50&#45;&gt;51 -->
<g id="edge9" class="edge">
<title>50&#45;&gt;51</title>
<path fill="none" stroke="black" d="M731.83,-72C739.55,-72 747.59,-72 755.7,-72"/>
<polygon fill="black" stroke="black" points="755.7,-75.5 765.7,-72 755.7,-68.5 755.7,-75.5"/>
</g>
<!-- 53 -->
<!-- name: &quot;[No Data]&quot;, typeName: &quot;&quot;, id: 53, branchId: 0, recurseId: &#45;1, attributes: 512, notes: &quot;&quot; -->
<g id="node12" class="node">
<title>53</title>
<ellipse fill="none" stroke="black" cx="862.51" cy="-18" rx="47.57" ry="18"/>
<text text-anchor="middle" x="862.51" y="-12.58" font-family="Times New Roman,serif" font-size="14.00">[No Data]</text>
</g>
<!-- 52&#45;&gt;53 -->
<g id="edge11" class="edge">
<title>52&#45;&gt;53</title>
<path fill="none" stroke="black" d="M708.17,-18C735.75,-18 772.64,-18 803.33,-18"/>
<polygon fill="black" stroke="black" points="803.24,-21.5 813.24,-18 803.24,-14.5 803.24,-21.5"/>
</g>
</g>
</svg>
