<?xml version="1.0" encoding="UTF-8" standalone="no"?>
<!DOCTYPE svg PUBLIC "-//W3C//DTD SVG 1.1//EN"
 "http://www.w3.org/Graphics/SVG/1.1/DTD/svg11.dtd">
<!-- Generated by graphviz version 2.46.1 (20210213.1702)
 -->
<!-- Title: mce::UUID Pages: 1 -->
<svg width="484pt" height="98pt"
 viewBox="0.00 0.00 484.26 98.00" xmlns="http://www.w3.org/2000/svg" xmlns:xlink="http://www.w3.org/1999/xlink">
<g id="graph0" class="graph" transform="scale(1 1) rotate(0) translate(4 94)">
<title>mce::UUID</title>
<polygon fill="white" stroke="transparent" points="-4,4 -4,-94 480.26,-94 480.26,4 -4,4"/>
<!-- 43 -->
<!-- name: &quot;mce::UUID&quot;, typeName: &quot;&quot;, id: 43, branchId: 0, recurseId: &#45;1, attributes: 0, notes: &quot;&quot; -->
<g id="node1" class="node">
<title>43</title>
<ellipse fill="none" stroke="black" cx="52" cy="-45" rx="51.99" ry="18"/>
<text text-anchor="middle" x="52" y="-41.3" font-family="Times New Roman,serif" font-size="14.00">mce::UUID</text>
</g>
<!-- 44 -->
<!-- name: &quot;Most Significant Bits&quot;, typeName: &quot;&quot;, id: 44, branchId: 0, recurseId: &#45;1, attributes: 0, notes: &quot;&quot; -->
<g id="node2" class="node">
<title>44</title>
<ellipse fill="none" stroke="black" cx="227.08" cy="-72" rx="87.18" ry="18"/>
<text text-anchor="middle" x="227.08" y="-68.3" font-family="Times New Roman,serif" font-size="14.00">Most Significant Bits</text>
</g>
<!-- 43&#45;&gt;44 -->
<g id="edge1" class="edge">
<title>43&#45;&gt;44</title>
<path fill="none" stroke="black" d="M99.84,-52.31C114.43,-54.58 130.94,-57.16 147.1,-59.68"/>
<polygon fill="black" stroke="black" points="146.68,-63.16 157.1,-61.24 147.76,-56.24 146.68,-63.16"/>
</g>
<!-- 46 -->
<!-- name: &quot;Least Significant Bits&quot;, typeName: &quot;&quot;, id: 46, branchId: 0, recurseId: &#45;1, attributes: 0, notes: &quot;&quot; -->
<g id="node4" class="node">
<title>46</title>
<ellipse fill="none" stroke="black" cx="227.08" cy="-18" rx="87.18" ry="18"/>
<text text-anchor="middle" x="227.08" y="-14.3" font-family="Times New Roman,serif" font-size="14.00">Least Significant Bits</text>
</g>
<!-- 43&#45;&gt;46 -->
<g id="edge3" class="edge">
<title>43&#45;&gt;46</title>
<path fill="none" stroke="black" d="M99.84,-37.69C114.43,-35.42 130.94,-32.84 147.1,-30.32"/>
<polygon fill="black" stroke="black" points="147.76,-33.76 157.1,-28.76 146.68,-26.84 147.76,-33.76"/>
</g>
<!-- 45 -->
<!-- name: &quot;unsigned int64&quot;, typeName: &quot;&quot;, id: 45, branchId: 0, recurseId: &#45;1, attributes: 512, notes: &quot;&quot; -->
<g id="node3" class="node">
<title>45</title>
<ellipse fill="none" stroke="black" cx="413.22" cy="-72" rx="63.09" ry="18"/>
<text text-anchor="middle" x="413.22" y="-68.3" font-family="Times New Roman,serif" font-size="14.00">unsigned int64</text>
</g>
<!-- 44&#45;&gt;45 -->
<g id="edge2" class="edge">
<title>44&#45;&gt;45</title>
<path fill="none" stroke="black" d="M314.22,-72C322.81,-72 331.46,-72 339.88,-72"/>
<polygon fill="black" stroke="black" points="340.02,-75.5 350.02,-72 340.02,-68.5 340.02,-75.5"/>
</g>
<!-- 47 -->
<!-- name: &quot;unsigned int64&quot;, typeName: &quot;&quot;, id: 47, branchId: 0, recurseId: &#45;1, attributes: 512, notes: &quot;&quot; -->
<g id="node5" class="node">
<title>47</title>
<ellipse fill="none" stroke="black" cx="413.22" cy="-18" rx="63.09" ry="18"/>
<text text-anchor="middle" x="413.22" y="-14.3" font-family="Times New Roman,serif" font-size="14.00">unsigned int64</text>
</g>
<!-- 46&#45;&gt;47 -->
<g id="edge4" class="edge">
<title>46&#45;&gt;47</title>
<path fill="none" stroke="black" d="M314.22,-18C322.81,-18 331.46,-18 339.88,-18"/>
<polygon fill="black" stroke="black" points="340.02,-21.5 350.02,-18 340.02,-14.5 340.02,-21.5"/>
</g>
</g>
</svg>
