<?xml version="1.0" encoding="UTF-8" standalone="no"?>
<!DOCTYPE svg PUBLIC "-//W3C//DTD SVG 1.1//EN"
 "http://www.w3.org/Graphics/SVG/1.1/DTD/svg11.dtd">
<!-- Generated by graphviz version 14.1.1 (20251213.1925)
 -->
<!-- Title: MemoryCategoryCounter Pages: 1 -->
<svg width="744pt" height="98pt"
 viewBox="0.00 0.00 744.00 98.00" xmlns="http://www.w3.org/2000/svg" xmlns:xlink="http://www.w3.org/1999/xlink">
<g id="graph0" class="graph" transform="scale(1 1) rotate(0) translate(4 94)">
<title>MemoryCategoryCounter</title>
<polygon fill="white" stroke="none" points="-4,4 -4,-94 740.33,-94 740.33,4 -4,4"/>
<!-- 0 -->
<!-- name: &quot;MemoryCategoryCounter&quot;, typeName: &quot;&quot;, id: 0, branchId: 0, recurseId: &#45;1, attributes: 0, notes: &quot;&quot; -->
<g id="node1" class="node">
<title>0</title>
<ellipse fill="none" stroke="black" cx="107.14" cy="-45" rx="107.14" ry="18"/>
<text xml:space="preserve" text-anchor="middle" x="107.14" y="-39.95" font-family="Times New Roman,serif" font-size="14.00">MemoryCategoryCounter</text>
</g>
<!-- 1 -->
<!-- name: &quot;Category&quot;, typeName: &quot;&quot;, id: 1, branchId: 0, recurseId: &#45;1, attributes: 0, notes: &quot;&quot; -->
<g id="node2" class="node">
<title>1</title>
<ellipse fill="none" stroke="black" cx="312.89" cy="-72" rx="44.7" ry="18"/>
<text xml:space="preserve" text-anchor="middle" x="312.89" y="-66.95" font-family="Times New Roman,serif" font-size="14.00">Category</text>
</g>
<!-- 0&#45;&gt;1 -->
<g id="edge1" class="edge">
<title>0&#45;&gt;1</title>
<path fill="none" stroke="black" d="M192.48,-56.18C214.92,-59.15 238.52,-62.28 258.76,-64.96"/>
<polygon fill="black" stroke="black" points="258.07,-68.4 268.45,-66.24 258.99,-61.46 258.07,-68.4"/>
</g>
<!-- 3 -->
<!-- name: &quot;Current Bytes&quot;, typeName: &quot;&quot;, id: 3, branchId: 0, recurseId: &#45;1, attributes: 0, notes: &quot;&quot; -->
<g id="node4" class="node">
<title>3</title>
<ellipse fill="none" stroke="black" cx="312.89" cy="-18" rx="62.61" ry="18"/>
<text xml:space="preserve" text-anchor="middle" x="312.89" y="-12.95" font-family="Times New Roman,serif" font-size="14.00">Current Bytes</text>
</g>
<!-- 0&#45;&gt;3 -->
<g id="edge3" class="edge">
<title>0&#45;&gt;3</title>
<path fill="none" stroke="black" d="M192.48,-33.82C209.74,-31.54 227.69,-29.16 244.27,-26.96"/>
<polygon fill="black" stroke="black" points="244.55,-30.45 254,-25.67 243.63,-23.52 244.55,-30.45"/>
</g>
<!-- 2 -->
<!-- name: &quot;enum enum Memory::MemoryCategory&quot;, typeName: &quot;&quot;, id: 2, branchId: 0, recurseId: &#45;1, attributes: 512, notes: &quot;&quot; -->
<g id="node3" class="node">
<title>2</title>
<ellipse fill="none" stroke="black" cx="573.91" cy="-72" rx="162.41" ry="18"/>
<text xml:space="preserve" text-anchor="middle" x="573.91" y="-66.95" font-family="Times New Roman,serif" font-size="14.00">enum enum Memory::MemoryCategory</text>
</g>
<!-- 1&#45;&gt;2 -->
<g id="edge2" class="edge">
<title>1&#45;&gt;2</title>
<path fill="none" stroke="black" d="M357.83,-72C370.26,-72 384.59,-72 399.83,-72"/>
<polygon fill="black" stroke="black" points="399.56,-75.5 409.56,-72 399.56,-68.5 399.56,-75.5"/>
</g>
<!-- 4 -->
<!-- name: &quot;unsigned int64&quot;, typeName: &quot;&quot;, id: 4, branchId: 0, recurseId: &#45;1, attributes: 512, notes: &quot;&quot; -->
<g id="node5" class="node">
<title>4</title>
<ellipse fill="none" stroke="black" cx="573.91" cy="-18" rx="65.68" ry="18"/>
<text xml:space="preserve" text-anchor="middle" x="573.91" y="-12.95" font-family="Times New Roman,serif" font-size="14.00">unsigned int64</text>
</g>
<!-- 3&#45;&gt;4 -->
<g id="edge4" class="edge">
<title>3&#45;&gt;4</title>
<path fill="none" stroke="black" d="M375.93,-18C412.17,-18 458.18,-18 496.62,-18"/>
<polygon fill="black" stroke="black" points="496.25,-21.5 506.25,-18 496.25,-14.5 496.25,-21.5"/>
</g>
</g>
</svg>
