<?xml version="1.0" encoding="UTF-8" standalone="no"?>
<!DOCTYPE svg PUBLIC "-//W3C//DTD SVG 1.1//EN"
 "http://www.w3.org/Graphics/SVG/1.1/DTD/svg11.dtd">
<!-- Generated by graphviz version 2.46.1 (20210213.1702)
 -->
<!-- Title: MobArmorEquipmentPacket Pages: 1 -->
<svg width="703pt" height="260pt"
 viewBox="0.00 0.00 702.64 260.00" xmlns="http://www.w3.org/2000/svg" xmlns:xlink="http://www.w3.org/1999/xlink">
<g id="graph0" class="graph" transform="scale(1 1) rotate(0) translate(4 256)">
<title>MobArmorEquipmentPacket</title>
<polygon fill="white" stroke="transparent" points="-4,4 -4,-256 698.64,-256 698.64,4 -4,4"/>
<!-- 0 -->
<!-- name: &quot;MobArmorEquipmentPacket&quot;, typeName: &quot;&quot;, id: 0, branchId: 32, recurseId: &#45;1, attributes: 0, notes: &quot;&quot; -->
<g id="node1" class="node">
<title>0</title>
<ellipse fill="none" stroke="black" cx="115.69" cy="-126" rx="115.88" ry="18"/>
<text text-anchor="middle" x="115.69" y="-122.3" font-family="Times New Roman,serif" font-size="14.00">MobArmorEquipmentPacket</text>
</g>
<!-- 1 -->
<!-- name: &quot;Target Runtime ID&quot;, typeName: &quot;ActorRuntimeID&quot;, id: 1, branchId: 0, recurseId: &#45;1, attributes: 256, notes: &quot;&quot; -->
<g id="node2" class="node">
<title>1</title>
<ellipse fill="none" stroke="black" cx="346.02" cy="-234" rx="78.79" ry="18"/>
<text text-anchor="middle" x="346.02" y="-230.3" font-family="Times New Roman,serif" font-size="14.00">Target Runtime ID</text>
</g>
<!-- 0&#45;&gt;1 -->
<g id="edge1" class="edge">
<title>0&#45;&gt;1</title>
<path fill="none" stroke="black" d="M145.73,-143.4C175.58,-160.86 223.73,-187.83 267.38,-207 274.55,-210.15 282.2,-213.19 289.82,-216.02"/>
<polygon fill="black" stroke="black" points="288.8,-219.37 299.39,-219.49 291.18,-212.79 288.8,-219.37"/>
</g>
<!-- 3 -->
<!-- name: &quot;Head&quot;, typeName: &quot;NetworkItemStackDescriptor&quot;, id: 3, branchId: 0, recurseId: &#45;1, attributes: 256, notes: &quot;&quot; -->
<g id="node4" class="node">
<title>3</title>
<ellipse fill="none" stroke="black" cx="346.02" cy="-180" rx="29.8" ry="18"/>
<text text-anchor="middle" x="346.02" y="-176.3" font-family="Times New Roman,serif" font-size="14.00">Head</text>
</g>
<!-- 0&#45;&gt;3 -->
<g id="edge3" class="edge">
<title>0&#45;&gt;3</title>
<path fill="none" stroke="black" d="M179.99,-140.97C221.13,-150.7 273.36,-163.05 307.92,-171.22"/>
<polygon fill="black" stroke="black" points="307.51,-174.72 318.04,-173.62 309.12,-167.91 307.51,-174.72"/>
</g>
<!-- 5 -->
<!-- name: &quot;Torso&quot;, typeName: &quot;NetworkItemStackDescriptor&quot;, id: 5, branchId: 0, recurseId: &#45;1, attributes: 256, notes: &quot;&quot; -->
<g id="node6" class="node">
<title>5</title>
<ellipse fill="none" stroke="black" cx="346.02" cy="-126" rx="33.29" ry="18"/>
<text text-anchor="middle" x="346.02" y="-122.3" font-family="Times New Roman,serif" font-size="14.00">Torso</text>
</g>
<!-- 0&#45;&gt;5 -->
<g id="edge5" class="edge">
<title>0&#45;&gt;5</title>
<path fill="none" stroke="black" d="M231.53,-126C256.87,-126 282.17,-126 302.43,-126"/>
<polygon fill="black" stroke="black" points="302.54,-129.5 312.54,-126 302.54,-122.5 302.54,-129.5"/>
</g>
<!-- 7 -->
<!-- name: &quot;Legs&quot;, typeName: &quot;NetworkItemStackDescriptor&quot;, id: 7, branchId: 0, recurseId: &#45;1, attributes: 256, notes: &quot;&quot; -->
<g id="node8" class="node">
<title>7</title>
<ellipse fill="none" stroke="black" cx="346.02" cy="-72" rx="28.7" ry="18"/>
<text text-anchor="middle" x="346.02" y="-68.3" font-family="Times New Roman,serif" font-size="14.00">Legs</text>
</g>
<!-- 0&#45;&gt;7 -->
<g id="edge7" class="edge">
<title>0&#45;&gt;7</title>
<path fill="none" stroke="black" d="M179.99,-111.03C221.49,-101.21 274.27,-88.73 308.82,-80.56"/>
<polygon fill="black" stroke="black" points="309.99,-83.88 318.92,-78.17 308.38,-77.07 309.99,-83.88"/>
</g>
<!-- 9 -->
<!-- name: &quot;Feet&quot;, typeName: &quot;NetworkItemStackDescriptor&quot;, id: 9, branchId: 0, recurseId: &#45;1, attributes: 256, notes: &quot;&quot; -->
<g id="node10" class="node">
<title>9</title>
<ellipse fill="none" stroke="black" cx="346.02" cy="-18" rx="27" ry="18"/>
<text text-anchor="middle" x="346.02" y="-14.3" font-family="Times New Roman,serif" font-size="14.00">Feet</text>
</g>
<!-- 0&#45;&gt;9 -->
<g id="edge9" class="edge">
<title>0&#45;&gt;9</title>
<path fill="none" stroke="black" d="M145.73,-108.6C175.58,-91.14 223.73,-64.17 267.38,-45 281.57,-38.76 297.7,-32.96 311.57,-28.34"/>
<polygon fill="black" stroke="black" points="312.78,-31.63 321.2,-25.2 310.61,-24.97 312.78,-31.63"/>
</g>
<!-- 2 -->
<!-- name: &quot;ActorRuntimeID&quot;, typeName: &quot;&quot;, id: 2, branchId: 0, recurseId: &#45;1, attributes: 512, notes: &quot;&quot; -->
<g id="node3" class="node">
<title>2</title>
<ellipse fill="none" stroke="black" cx="577.66" cy="-234" rx="71.49" ry="18"/>
<text text-anchor="middle" x="577.66" y="-230.3" font-family="Times New Roman,serif" font-size="14.00">ActorRuntimeID</text>
</g>
<!-- 1&#45;&gt;2 -->
<g id="edge2" class="edge">
<title>1&#45;&gt;2</title>
<path fill="none" stroke="black" d="M424.77,-234C447.66,-234 472.76,-234 495.84,-234"/>
<polygon fill="black" stroke="black" points="495.94,-237.5 505.94,-234 495.94,-230.5 495.94,-237.5"/>
</g>
<!-- 4 -->
<!-- name: &quot;NetworkItemStackDescriptor&quot;, typeName: &quot;&quot;, id: 4, branchId: 0, recurseId: &#45;1, attributes: 512, notes: &quot;&quot; -->
<g id="node5" class="node">
<title>4</title>
<ellipse fill="none" stroke="black" cx="577.66" cy="-180" rx="116.98" ry="18"/>
<text text-anchor="middle" x="577.66" y="-176.3" font-family="Times New Roman,serif" font-size="14.00">NetworkItemStackDescriptor</text>
</g>
<!-- 3&#45;&gt;4 -->
<g id="edge4" class="edge">
<title>3&#45;&gt;4</title>
<path fill="none" stroke="black" d="M376.11,-180C395.45,-180 422.35,-180 450.16,-180"/>
<polygon fill="black" stroke="black" points="450.44,-183.5 460.44,-180 450.44,-176.5 450.44,-183.5"/>
</g>
<!-- 6 -->
<!-- name: &quot;NetworkItemStackDescriptor&quot;, typeName: &quot;&quot;, id: 6, branchId: 0, recurseId: &#45;1, attributes: 512, notes: &quot;&quot; -->
<g id="node7" class="node">
<title>6</title>
<ellipse fill="none" stroke="black" cx="577.66" cy="-126" rx="116.98" ry="18"/>
<text text-anchor="middle" x="577.66" y="-122.3" font-family="Times New Roman,serif" font-size="14.00">NetworkItemStackDescriptor</text>
</g>
<!-- 5&#45;&gt;6 -->
<g id="edge6" class="edge">
<title>5&#45;&gt;6</title>
<path fill="none" stroke="black" d="M379.44,-126C398.51,-126 424,-126 450.3,-126"/>
<polygon fill="black" stroke="black" points="450.41,-129.5 460.41,-126 450.41,-122.5 450.41,-129.5"/>
</g>
<!-- 8 -->
<!-- name: &quot;NetworkItemStackDescriptor&quot;, typeName: &quot;&quot;, id: 8, branchId: 0, recurseId: &#45;1, attributes: 512, notes: &quot;&quot; -->
<g id="node9" class="node">
<title>8</title>
<ellipse fill="none" stroke="black" cx="577.66" cy="-72" rx="116.98" ry="18"/>
<text text-anchor="middle" x="577.66" y="-68.3" font-family="Times New Roman,serif" font-size="14.00">NetworkItemStackDescriptor</text>
</g>
<!-- 7&#45;&gt;8 -->
<g id="edge8" class="edge">
<title>7&#45;&gt;8</title>
<path fill="none" stroke="black" d="M374.72,-72C394.2,-72 421.78,-72 450.32,-72"/>
<polygon fill="black" stroke="black" points="450.45,-75.5 460.45,-72 450.45,-68.5 450.45,-75.5"/>
</g>
<!-- 10 -->
<!-- name: &quot;NetworkItemStackDescriptor&quot;, typeName: &quot;&quot;, id: 10, branchId: 0, recurseId: &#45;1, attributes: 512, notes: &quot;&quot; -->
<g id="node11" class="node">
<title>10</title>
<ellipse fill="none" stroke="black" cx="577.66" cy="-18" rx="116.98" ry="18"/>
<text text-anchor="middle" x="577.66" y="-14.3" font-family="Times New Roman,serif" font-size="14.00">NetworkItemStackDescriptor</text>
</g>
<!-- 9&#45;&gt;10 -->
<g id="edge10" class="edge">
<title>9&#45;&gt;10</title>
<path fill="none" stroke="black" d="M373.36,-18C392.86,-18 420.99,-18 450.14,-18"/>
<polygon fill="black" stroke="black" points="450.48,-21.5 460.48,-18 450.48,-14.5 450.48,-21.5"/>
</g>
</g>
</svg>
