<?xml version="1.0" encoding="UTF-8" standalone="no"?>
<!DOCTYPE svg PUBLIC "-//W3C//DTD SVG 1.1//EN"
 "http://www.w3.org/Graphics/SVG/1.1/DTD/svg11.dtd">
<!-- Generated by graphviz version 12.2.1 (20241206.2353)
 -->
<!-- Title: MobArmorEquipmentPacket Pages: 1 -->
<svg width="722pt" height="314pt"
 viewBox="0.00 0.00 721.81 314.00" xmlns="http://www.w3.org/2000/svg" xmlns:xlink="http://www.w3.org/1999/xlink">
<g id="graph0" class="graph" transform="scale(1 1) rotate(0) translate(4 310)">
<title>MobArmorEquipmentPacket</title>
<polygon fill="white" stroke="none" points="-4,4 -4,-310 717.81,-310 717.81,4 -4,4"/>
<!-- 0 -->
<!-- name: &quot;MobArmorEquipmentPacket&quot;, typeName: &quot;&quot;, id: 0, branchId: 32, recurseId: &#45;1, attributes: 0, notes: &quot;&quot; -->
<g id="node1" class="node">
<title>0</title>
<ellipse fill="none" stroke="black" cx="119.42" cy="-153" rx="119.42" ry="18"/>
<text text-anchor="middle" x="119.42" y="-147.95" font-family="Times New Roman,serif" font-size="14.00">MobArmorEquipmentPacket</text>
</g>
<!-- 1 -->
<!-- name: &quot;Target Runtime ID&quot;, typeName: &quot;ActorRuntimeID&quot;, id: 1, branchId: 0, recurseId: &#45;1, attributes: 256, notes: &quot;&quot; -->
<g id="node2" class="node">
<title>1</title>
<ellipse fill="none" stroke="black" cx="356.39" cy="-288" rx="81.55" ry="18"/>
<text text-anchor="middle" x="356.39" y="-282.95" font-family="Times New Roman,serif" font-size="14.00">Target Runtime ID</text>
</g>
<!-- 0&#45;&gt;1 -->
<g id="edge1" class="edge">
<title>0&#45;&gt;1</title>
<path fill="none" stroke="black" d="M141.66,-170.86C170.33,-194.22 223.72,-235.23 274.84,-261 281.07,-264.14 287.74,-267.04 294.48,-269.68"/>
<polygon fill="black" stroke="black" points="293.06,-272.88 303.65,-273.09 295.5,-266.32 293.06,-272.88"/>
</g>
<!-- 3 -->
<!-- name: &quot;Head&quot;, typeName: &quot;NetworkItemStackDescriptor&quot;, id: 3, branchId: 0, recurseId: &#45;1, attributes: 256, notes: &quot;&quot; -->
<g id="node4" class="node">
<title>3</title>
<ellipse fill="none" stroke="black" cx="356.39" cy="-234" rx="30.37" ry="18"/>
<text text-anchor="middle" x="356.39" y="-228.95" font-family="Times New Roman,serif" font-size="14.00">Head</text>
</g>
<!-- 0&#45;&gt;3 -->
<g id="edge3" class="edge">
<title>0&#45;&gt;3</title>
<path fill="none" stroke="black" d="M168.02,-169.82C198.52,-180.56 238.97,-194.72 274.84,-207 289.16,-211.9 304.93,-217.21 318.7,-221.81"/>
<polygon fill="black" stroke="black" points="317.21,-225.01 327.81,-224.85 319.43,-218.37 317.21,-225.01"/>
</g>
<!-- 5 -->
<!-- name: &quot;Torso&quot;, typeName: &quot;NetworkItemStackDescriptor&quot;, id: 5, branchId: 0, recurseId: &#45;1, attributes: 256, notes: &quot;&quot; -->
<g id="node6" class="node">
<title>5</title>
<ellipse fill="none" stroke="black" cx="356.39" cy="-180" rx="31.9" ry="18"/>
<text text-anchor="middle" x="356.39" y="-174.95" font-family="Times New Roman,serif" font-size="14.00">Torso</text>
</g>
<!-- 0&#45;&gt;5 -->
<g id="edge5" class="edge">
<title>0&#45;&gt;5</title>
<path fill="none" stroke="black" d="M215.65,-163.94C249.56,-167.84 286.04,-172.03 313.22,-175.15"/>
<polygon fill="black" stroke="black" points="312.8,-178.63 323.13,-176.29 313.6,-171.67 312.8,-178.63"/>
</g>
<!-- 7 -->
<!-- name: &quot;Legs&quot;, typeName: &quot;NetworkItemStackDescriptor&quot;, id: 7, branchId: 0, recurseId: &#45;1, attributes: 256, notes: &quot;&quot; -->
<g id="node8" class="node">
<title>7</title>
<ellipse fill="none" stroke="black" cx="356.39" cy="-126" rx="28.83" ry="18"/>
<text text-anchor="middle" x="356.39" y="-120.95" font-family="Times New Roman,serif" font-size="14.00">Legs</text>
</g>
<!-- 0&#45;&gt;7 -->
<g id="edge7" class="edge">
<title>0&#45;&gt;7</title>
<path fill="none" stroke="black" d="M215.65,-142.06C250.94,-138 289.01,-133.63 316.48,-130.47"/>
<polygon fill="black" stroke="black" points="316.53,-133.99 326.07,-129.37 315.73,-127.03 316.53,-133.99"/>
</g>
<!-- 9 -->
<!-- name: &quot;Feet&quot;, typeName: &quot;NetworkItemStackDescriptor&quot;, id: 9, branchId: 0, recurseId: &#45;1, attributes: 256, notes: &quot;&quot; -->
<g id="node10" class="node">
<title>9</title>
<ellipse fill="none" stroke="black" cx="356.39" cy="-72" rx="27" ry="18"/>
<text text-anchor="middle" x="356.39" y="-66.95" font-family="Times New Roman,serif" font-size="14.00">Feet</text>
</g>
<!-- 0&#45;&gt;9 -->
<g id="edge9" class="edge">
<title>0&#45;&gt;9</title>
<path fill="none" stroke="black" d="M168.02,-136.18C198.52,-125.44 238.97,-111.28 274.84,-99 289.93,-93.83 306.64,-88.22 320.91,-83.45"/>
<polygon fill="black" stroke="black" points="321.93,-86.8 330.31,-80.31 319.72,-80.16 321.93,-86.8"/>
</g>
<!-- 11 -->
<!-- name: &quot;Body&quot;, typeName: &quot;NetworkItemStackDescriptor&quot;, id: 11, branchId: 0, recurseId: &#45;1, attributes: 256, notes: &quot;&quot; -->
<g id="node12" class="node">
<title>11</title>
<ellipse fill="none" stroke="black" cx="356.39" cy="-18" rx="30.88" ry="18"/>
<text text-anchor="middle" x="356.39" y="-12.95" font-family="Times New Roman,serif" font-size="14.00">Body</text>
</g>
<!-- 0&#45;&gt;11 -->
<g id="edge11" class="edge">
<title>0&#45;&gt;11</title>
<path fill="none" stroke="black" d="M141.66,-135.14C170.33,-111.78 223.72,-70.77 274.84,-45 288.01,-38.36 303.19,-32.79 316.79,-28.46"/>
<polygon fill="black" stroke="black" points="317.76,-31.82 326.31,-25.57 315.73,-25.13 317.76,-31.82"/>
</g>
<!-- 2 -->
<!-- name: &quot;ActorRuntimeID&quot;, typeName: &quot;&quot;, id: 2, branchId: 0, recurseId: &#45;1, attributes: 512, notes: &quot;&quot; -->
<g id="node3" class="node">
<title>2</title>
<ellipse fill="none" stroke="black" cx="593.87" cy="-288" rx="73.87" ry="18"/>
<text text-anchor="middle" x="593.87" y="-282.95" font-family="Times New Roman,serif" font-size="14.00">ActorRuntimeID</text>
</g>
<!-- 1&#45;&gt;2 -->
<g id="edge2" class="edge">
<title>1&#45;&gt;2</title>
<path fill="none" stroke="black" d="M438.43,-288C460.97,-288 485.49,-288 508.23,-288"/>
<polygon fill="black" stroke="black" points="508.07,-291.5 518.07,-288 508.07,-284.5 508.07,-291.5"/>
</g>
<!-- 4 -->
<!-- name: &quot;NetworkItemStackDescriptor&quot;, typeName: &quot;&quot;, id: 4, branchId: 0, recurseId: &#45;1, attributes: 512, notes: &quot;&quot; -->
<g id="node5" class="node">
<title>4</title>
<ellipse fill="none" stroke="black" cx="593.87" cy="-234" rx="119.93" ry="18"/>
<text text-anchor="middle" x="593.87" y="-228.95" font-family="Times New Roman,serif" font-size="14.00">NetworkItemStackDescriptor</text>
</g>
<!-- 3&#45;&gt;4 -->
<g id="edge4" class="edge">
<title>3&#45;&gt;4</title>
<path fill="none" stroke="black" d="M387.22,-234C406.88,-234 434.15,-234 462.41,-234"/>
<polygon fill="black" stroke="black" points="462.19,-237.5 472.19,-234 462.19,-230.5 462.19,-237.5"/>
</g>
<!-- 6 -->
<!-- name: &quot;NetworkItemStackDescriptor&quot;, typeName: &quot;&quot;, id: 6, branchId: 0, recurseId: &#45;1, attributes: 512, notes: &quot;&quot; -->
<g id="node7" class="node">
<title>6</title>
<ellipse fill="none" stroke="black" cx="593.87" cy="-180" rx="119.93" ry="18"/>
<text text-anchor="middle" x="593.87" y="-174.95" font-family="Times New Roman,serif" font-size="14.00">NetworkItemStackDescriptor</text>
</g>
<!-- 5&#45;&gt;6 -->
<g id="edge6" class="edge">
<title>5&#45;&gt;6</title>
<path fill="none" stroke="black" d="M388.66,-180C408.12,-180 434.61,-180 462.06,-180"/>
<polygon fill="black" stroke="black" points="461.93,-183.5 471.93,-180 461.93,-176.5 461.93,-183.5"/>
</g>
<!-- 8 -->
<!-- name: &quot;NetworkItemStackDescriptor&quot;, typeName: &quot;&quot;, id: 8, branchId: 0, recurseId: &#45;1, attributes: 512, notes: &quot;&quot; -->
<g id="node9" class="node">
<title>8</title>
<ellipse fill="none" stroke="black" cx="593.87" cy="-126" rx="119.93" ry="18"/>
<text text-anchor="middle" x="593.87" y="-120.95" font-family="Times New Roman,serif" font-size="14.00">NetworkItemStackDescriptor</text>
</g>
<!-- 7&#45;&gt;8 -->
<g id="edge8" class="edge">
<title>7&#45;&gt;8</title>
<path fill="none" stroke="black" d="M385.33,-126C405.1,-126 433.18,-126 462.33,-126"/>
<polygon fill="black" stroke="black" points="462.02,-129.5 472.02,-126 462.02,-122.5 462.02,-129.5"/>
</g>
<!-- 10 -->
<!-- name: &quot;NetworkItemStackDescriptor&quot;, typeName: &quot;&quot;, id: 10, branchId: 0, recurseId: &#45;1, attributes: 512, notes: &quot;&quot; -->
<g id="node11" class="node">
<title>10</title>
<ellipse fill="none" stroke="black" cx="593.87" cy="-72" rx="119.93" ry="18"/>
<text text-anchor="middle" x="593.87" y="-66.95" font-family="Times New Roman,serif" font-size="14.00">NetworkItemStackDescriptor</text>
</g>
<!-- 9&#45;&gt;10 -->
<g id="edge10" class="edge">
<title>9&#45;&gt;10</title>
<path fill="none" stroke="black" d="M383.49,-72C403.38,-72 432.4,-72 462.54,-72"/>
<polygon fill="black" stroke="black" points="462.16,-75.5 472.16,-72 462.16,-68.5 462.16,-75.5"/>
</g>
<!-- 12 -->
<!-- name: &quot;NetworkItemStackDescriptor&quot;, typeName: &quot;&quot;, id: 12, branchId: 0, recurseId: &#45;1, attributes: 512, notes: &quot;&quot; -->
<g id="node13" class="node">
<title>12</title>
<ellipse fill="none" stroke="black" cx="593.87" cy="-18" rx="119.93" ry="18"/>
<text text-anchor="middle" x="593.87" y="-12.95" font-family="Times New Roman,serif" font-size="14.00">NetworkItemStackDescriptor</text>
</g>
<!-- 11&#45;&gt;12 -->
<g id="edge12" class="edge">
<title>11&#45;&gt;12</title>
<path fill="none" stroke="black" d="M387.69,-18C407.32,-18 434.38,-18 462.41,-18"/>
<polygon fill="black" stroke="black" points="462.1,-21.5 472.1,-18 462.1,-14.5 462.1,-21.5"/>
</g>
</g>
</svg>
