<?xml version="1.0" encoding="UTF-8" standalone="no"?>
<!DOCTYPE svg PUBLIC "-//W3C//DTD SVG 1.1//EN"
 "http://www.w3.org/Graphics/SVG/1.1/DTD/svg11.dtd">
<!-- Generated by graphviz version 11.0.0 (20240428.1522)
 -->
<!-- Title: MobArmorEquipmentPacket Pages: 1 -->
<svg width="715pt" height="314pt"
 viewBox="0.00 0.00 714.72 314.00" xmlns="http://www.w3.org/2000/svg" xmlns:xlink="http://www.w3.org/1999/xlink">
<g id="graph0" class="graph" transform="scale(1 1) rotate(0) translate(4 310)">
<title>MobArmorEquipmentPacket</title>
<polygon fill="white" stroke="none" points="-4,4 -4,-310 710.72,-310 710.72,4 -4,4"/>
<!-- 0 -->
<!-- name: &quot;MobArmorEquipmentPacket&quot;, typeName: &quot;&quot;, id: 0, branchId: 32, recurseId: &#45;1, attributes: 0, notes: &quot;&quot; -->
<g id="node1" class="node">
<title>0</title>
<ellipse fill="none" stroke="black" cx="117.93" cy="-153" rx="117.93" ry="18"/>
<text text-anchor="middle" x="117.93" y="-147.57" font-family="Times New Roman,serif" font-size="14.00">MobArmorEquipmentPacket</text>
</g>
<!-- 1 -->
<!-- name: &quot;Target Runtime ID&quot;, typeName: &quot;ActorRuntimeID&quot;, id: 1, branchId: 0, recurseId: &#45;1, attributes: 256, notes: &quot;&quot; -->
<g id="node2" class="node">
<title>1</title>
<ellipse fill="none" stroke="black" cx="351.86" cy="-288" rx="80.01" ry="18"/>
<text text-anchor="middle" x="351.86" y="-282.57" font-family="Times New Roman,serif" font-size="14.00">Target Runtime ID</text>
</g>
<!-- 0&#45;&gt;1 -->
<g id="edge1" class="edge">
<title>0&#45;&gt;1</title>
<path fill="none" stroke="black" d="M139.96,-170.83C168.34,-194.16 221.2,-235.13 271.86,-261 278.04,-264.16 284.68,-267.08 291.38,-269.74"/>
<polygon fill="black" stroke="black" points="289.91,-272.93 300.5,-273.18 292.37,-266.38 289.91,-272.93"/>
</g>
<!-- 3 -->
<!-- name: &quot;Head&quot;, typeName: &quot;NetworkItemStackDescriptor&quot;, id: 3, branchId: 0, recurseId: &#45;1, attributes: 256, notes: &quot;&quot; -->
<g id="node4" class="node">
<title>3</title>
<ellipse fill="none" stroke="black" cx="351.86" cy="-234" rx="30.11" ry="18"/>
<text text-anchor="middle" x="351.86" y="-228.57" font-family="Times New Roman,serif" font-size="14.00">Head</text>
</g>
<!-- 0&#45;&gt;3 -->
<g id="edge3" class="edge">
<title>0&#45;&gt;3</title>
<path fill="none" stroke="black" d="M166.08,-169.79C196.29,-180.51 236.35,-194.66 271.86,-207 285.76,-211.83 301.07,-217.08 314.48,-221.65"/>
<polygon fill="black" stroke="black" points="313.2,-224.91 323.79,-224.82 315.45,-218.29 313.2,-224.91"/>
</g>
<!-- 5 -->
<!-- name: &quot;Torso&quot;, typeName: &quot;NetworkItemStackDescriptor&quot;, id: 5, branchId: 0, recurseId: &#45;1, attributes: 256, notes: &quot;&quot; -->
<g id="node6" class="node">
<title>5</title>
<ellipse fill="none" stroke="black" cx="351.86" cy="-180" rx="33.6" ry="18"/>
<text text-anchor="middle" x="351.86" y="-174.57" font-family="Times New Roman,serif" font-size="14.00">Torso</text>
</g>
<!-- 0&#45;&gt;5 -->
<g id="edge5" class="edge">
<title>0&#45;&gt;5</title>
<path fill="none" stroke="black" d="M212.93,-163.94C245.64,-167.75 280.76,-171.84 307.38,-174.94"/>
<polygon fill="black" stroke="black" points="306.76,-178.39 317.1,-176.07 307.57,-171.44 306.76,-178.39"/>
</g>
<!-- 7 -->
<!-- name: &quot;Legs&quot;, typeName: &quot;NetworkItemStackDescriptor&quot;, id: 7, branchId: 0, recurseId: &#45;1, attributes: 256, notes: &quot;&quot; -->
<g id="node8" class="node">
<title>7</title>
<ellipse fill="none" stroke="black" cx="351.86" cy="-126" rx="28.61" ry="18"/>
<text text-anchor="middle" x="351.86" y="-120.58" font-family="Times New Roman,serif" font-size="14.00">Legs</text>
</g>
<!-- 0&#45;&gt;7 -->
<g id="edge7" class="edge">
<title>0&#45;&gt;7</title>
<path fill="none" stroke="black" d="M212.93,-142.06C247.61,-138.02 285,-133.67 312.09,-130.51"/>
<polygon fill="black" stroke="black" points="312.37,-134 321.9,-129.37 311.56,-127.05 312.37,-134"/>
</g>
<!-- 9 -->
<!-- name: &quot;Feet&quot;, typeName: &quot;NetworkItemStackDescriptor&quot;, id: 9, branchId: 0, recurseId: &#45;1, attributes: 256, notes: &quot;&quot; -->
<g id="node10" class="node">
<title>9</title>
<ellipse fill="none" stroke="black" cx="351.86" cy="-72" rx="27" ry="18"/>
<text text-anchor="middle" x="351.86" y="-66.58" font-family="Times New Roman,serif" font-size="14.00">Feet</text>
</g>
<!-- 0&#45;&gt;9 -->
<g id="edge9" class="edge">
<title>0&#45;&gt;9</title>
<path fill="none" stroke="black" d="M166.08,-136.21C196.29,-125.49 236.35,-111.34 271.86,-99 286.55,-93.9 302.81,-88.33 316.74,-83.58"/>
<polygon fill="black" stroke="black" points="317.56,-86.99 325.9,-80.46 315.31,-80.37 317.56,-86.99"/>
</g>
<!-- 11 -->
<!-- name: &quot;Body&quot;, typeName: &quot;NetworkItemStackDescriptor&quot;, id: 11, branchId: 0, recurseId: &#45;1, attributes: 256, notes: &quot;&quot; -->
<g id="node12" class="node">
<title>11</title>
<ellipse fill="none" stroke="black" cx="351.86" cy="-18" rx="31.1" ry="18"/>
<text text-anchor="middle" x="351.86" y="-12.57" font-family="Times New Roman,serif" font-size="14.00">Body</text>
</g>
<!-- 0&#45;&gt;11 -->
<g id="edge11" class="edge">
<title>0&#45;&gt;11</title>
<path fill="none" stroke="black" d="M139.96,-135.17C168.34,-111.84 221.2,-70.87 271.86,-45 284.57,-38.51 299.18,-33.02 312.36,-28.72"/>
<polygon fill="black" stroke="black" points="313.07,-32.16 321.57,-25.84 310.99,-25.48 313.07,-32.16"/>
</g>
<!-- 2 -->
<!-- name: &quot;ActorRuntimeID&quot;, typeName: &quot;&quot;, id: 2, branchId: 0, recurseId: &#45;1, attributes: 512, notes: &quot;&quot; -->
<g id="node3" class="node">
<title>2</title>
<ellipse fill="none" stroke="black" cx="587.3" cy="-288" rx="72.52" ry="18"/>
<text text-anchor="middle" x="587.3" y="-282.57" font-family="Times New Roman,serif" font-size="14.00">ActorRuntimeID</text>
</g>
<!-- 1&#45;&gt;2 -->
<g id="edge2" class="edge">
<title>1&#45;&gt;2</title>
<path fill="none" stroke="black" d="M432.22,-288C455.06,-288 480.03,-288 503.1,-288"/>
<polygon fill="black" stroke="black" points="503.09,-291.5 513.09,-288 503.09,-284.5 503.09,-291.5"/>
</g>
<!-- 4 -->
<!-- name: &quot;NetworkItemStackDescriptor&quot;, typeName: &quot;&quot;, id: 4, branchId: 0, recurseId: &#45;1, attributes: 512, notes: &quot;&quot; -->
<g id="node5" class="node">
<title>4</title>
<ellipse fill="none" stroke="black" cx="587.3" cy="-234" rx="119.43" ry="18"/>
<text text-anchor="middle" x="587.3" y="-228.57" font-family="Times New Roman,serif" font-size="14.00">NetworkItemStackDescriptor</text>
</g>
<!-- 3&#45;&gt;4 -->
<g id="edge4" class="edge">
<title>3&#45;&gt;4</title>
<path fill="none" stroke="black" d="M382.43,-234C401.73,-234 428.42,-234 456.13,-234"/>
<polygon fill="black" stroke="black" points="456.11,-237.5 466.11,-234 456.11,-230.5 456.11,-237.5"/>
</g>
<!-- 6 -->
<!-- name: &quot;NetworkItemStackDescriptor&quot;, typeName: &quot;&quot;, id: 6, branchId: 0, recurseId: &#45;1, attributes: 512, notes: &quot;&quot; -->
<g id="node7" class="node">
<title>6</title>
<ellipse fill="none" stroke="black" cx="587.3" cy="-180" rx="119.43" ry="18"/>
<text text-anchor="middle" x="587.3" y="-174.57" font-family="Times New Roman,serif" font-size="14.00">NetworkItemStackDescriptor</text>
</g>
<!-- 5&#45;&gt;6 -->
<g id="edge6" class="edge">
<title>5&#45;&gt;6</title>
<path fill="none" stroke="black" d="M385.81,-180C404.84,-180 430.14,-180 456.34,-180"/>
<polygon fill="black" stroke="black" points="456.09,-183.5 466.09,-180 456.09,-176.5 456.09,-183.5"/>
</g>
<!-- 8 -->
<!-- name: &quot;NetworkItemStackDescriptor&quot;, typeName: &quot;&quot;, id: 8, branchId: 0, recurseId: &#45;1, attributes: 512, notes: &quot;&quot; -->
<g id="node9" class="node">
<title>8</title>
<ellipse fill="none" stroke="black" cx="587.3" cy="-126" rx="119.43" ry="18"/>
<text text-anchor="middle" x="587.3" y="-120.58" font-family="Times New Roman,serif" font-size="14.00">NetworkItemStackDescriptor</text>
</g>
<!-- 7&#45;&gt;8 -->
<g id="edge8" class="edge">
<title>7&#45;&gt;8</title>
<path fill="none" stroke="black" d="M380.56,-126C399.96,-126 427.45,-126 456.03,-126"/>
<polygon fill="black" stroke="black" points="455.95,-129.5 465.95,-126 455.95,-122.5 455.95,-129.5"/>
</g>
<!-- 10 -->
<!-- name: &quot;NetworkItemStackDescriptor&quot;, typeName: &quot;&quot;, id: 10, branchId: 0, recurseId: &#45;1, attributes: 512, notes: &quot;&quot; -->
<g id="node11" class="node">
<title>10</title>
<ellipse fill="none" stroke="black" cx="587.3" cy="-72" rx="119.43" ry="18"/>
<text text-anchor="middle" x="587.3" y="-66.58" font-family="Times New Roman,serif" font-size="14.00">NetworkItemStackDescriptor</text>
</g>
<!-- 9&#45;&gt;10 -->
<g id="edge10" class="edge">
<title>9&#45;&gt;10</title>
<path fill="none" stroke="black" d="M379.19,-72C398.69,-72 426.88,-72 456.21,-72"/>
<polygon fill="black" stroke="black" points="455.98,-75.5 465.98,-72 455.98,-68.5 455.98,-75.5"/>
</g>
<!-- 12 -->
<!-- name: &quot;NetworkItemStackDescriptor&quot;, typeName: &quot;&quot;, id: 12, branchId: 0, recurseId: &#45;1, attributes: 512, notes: &quot;&quot; -->
<g id="node13" class="node">
<title>12</title>
<ellipse fill="none" stroke="black" cx="587.3" cy="-18" rx="119.43" ry="18"/>
<text text-anchor="middle" x="587.3" y="-12.57" font-family="Times New Roman,serif" font-size="14.00">NetworkItemStackDescriptor</text>
</g>
<!-- 11&#45;&gt;12 -->
<g id="edge12" class="edge">
<title>11&#45;&gt;12</title>
<path fill="none" stroke="black" d="M383.38,-18C402.61,-18 428.88,-18 456.15,-18"/>
<polygon fill="black" stroke="black" points="455.95,-21.5 465.95,-18 455.95,-14.5 455.95,-21.5"/>
</g>
</g>
</svg>
