<?xml version="1.0" encoding="UTF-8" standalone="no"?>
<!DOCTYPE svg PUBLIC "-//W3C//DTD SVG 1.1//EN"
 "http://www.w3.org/Graphics/SVG/1.1/DTD/svg11.dtd">
<!-- Generated by graphviz version 12.2.0 (20241103.1931)
 -->
<!-- Title: MobEffectPacket Pages: 1 -->
<svg width="562pt" height="368pt"
 viewBox="0.00 0.00 562.12 368.00" xmlns="http://www.w3.org/2000/svg" xmlns:xlink="http://www.w3.org/1999/xlink">
<g id="graph0" class="graph" transform="scale(1 1) rotate(0) translate(4 364)">
<title>MobEffectPacket</title>
<polygon fill="white" stroke="none" points="-4,4 -4,-364 558.12,-364 558.12,4 -4,4"/>
<!-- 0 -->
<!-- name: &quot;MobEffectPacket&quot;, typeName: &quot;&quot;, id: 0, branchId: 28, recurseId: &#45;1, attributes: 0, notes: &quot;&quot; -->
<g id="node1" class="node">
<title>0</title>
<ellipse fill="none" stroke="black" cx="75.92" cy="-180" rx="75.92" ry="18"/>
<text text-anchor="middle" x="75.92" y="-174.95" font-family="Times New Roman,serif" font-size="14.00">MobEffectPacket</text>
</g>
<!-- 1 -->
<!-- name: &quot;Target Runtime ID&quot;, typeName: &quot;ActorRuntimeID&quot;, id: 1, branchId: 0, recurseId: &#45;1, attributes: 256, notes: &quot;&quot; -->
<g id="node2" class="node">
<title>1</title>
<ellipse fill="none" stroke="black" cx="279.11" cy="-342" rx="81.55" ry="18"/>
<text text-anchor="middle" x="279.11" y="-336.95" font-family="Times New Roman,serif" font-size="14.00">Target Runtime ID</text>
</g>
<!-- 0&#45;&gt;1 -->
<g id="edge1" class="edge">
<title>0&#45;&gt;1</title>
<path fill="none" stroke="black" d="M87,-198.22C103.99,-227.26 141.11,-283.93 187.84,-315 194.06,-319.14 200.94,-322.66 208.04,-325.65"/>
<polygon fill="black" stroke="black" points="206.54,-328.83 217.13,-329.13 209.04,-322.29 206.54,-328.83"/>
</g>
<!-- 3 -->
<!-- name: &quot;Event ID&quot;, typeName: &quot;&quot;, id: 3, branchId: 0, recurseId: &#45;1, attributes: 0, notes: &quot;&quot; -->
<g id="node4" class="node">
<title>3</title>
<ellipse fill="none" stroke="black" cx="279.11" cy="-288" rx="44.7" ry="18"/>
<text text-anchor="middle" x="279.11" y="-282.95" font-family="Times New Roman,serif" font-size="14.00">Event ID</text>
</g>
<!-- 0&#45;&gt;3 -->
<g id="edge3" class="edge">
<title>0&#45;&gt;3</title>
<path fill="none" stroke="black" d="M96.41,-197.46C117.57,-215.61 153.02,-243.72 187.84,-261 200.43,-267.25 214.74,-272.35 228.2,-276.36"/>
<polygon fill="black" stroke="black" points="227.21,-279.72 237.79,-279.07 229.11,-272.98 227.21,-279.72"/>
</g>
<!-- 5 -->
<!-- name: &quot;Effect ID&quot;, typeName: &quot;&quot;, id: 5, branchId: 0, recurseId: &#45;1, attributes: 0, notes: &quot;&quot; -->
<g id="node6" class="node">
<title>5</title>
<ellipse fill="none" stroke="black" cx="279.11" cy="-234" rx="45.72" ry="18"/>
<text text-anchor="middle" x="279.11" y="-228.95" font-family="Times New Roman,serif" font-size="14.00">Effect ID</text>
</g>
<!-- 0&#45;&gt;5 -->
<g id="edge5" class="edge">
<title>0&#45;&gt;5</title>
<path fill="none" stroke="black" d="M127.43,-193.56C158.74,-201.96 198.73,-212.7 229.65,-220.99"/>
<polygon fill="black" stroke="black" points="228.57,-224.33 239.14,-223.54 230.38,-217.57 228.57,-224.33"/>
</g>
<!-- 7 -->
<!-- name: &quot;Effect Amplifier&quot;, typeName: &quot;&quot;, id: 7, branchId: 0, recurseId: &#45;1, attributes: 0, notes: &quot;&quot; -->
<g id="node8" class="node">
<title>7</title>
<ellipse fill="none" stroke="black" cx="279.11" cy="-180" rx="72.34" ry="18"/>
<text text-anchor="middle" x="279.11" y="-174.95" font-family="Times New Roman,serif" font-size="14.00">Effect Amplifier</text>
</g>
<!-- 0&#45;&gt;7 -->
<g id="edge7" class="edge">
<title>0&#45;&gt;7</title>
<path fill="none" stroke="black" d="M152.12,-180C166.12,-180 180.83,-180 195.05,-180"/>
<polygon fill="black" stroke="black" points="194.82,-183.5 204.82,-180 194.82,-176.5 194.82,-183.5"/>
</g>
<!-- 9 -->
<!-- name: &quot;Show Particles&quot;, typeName: &quot;&quot;, id: 9, branchId: 0, recurseId: &#45;1, attributes: 0, notes: &quot;&quot; -->
<g id="node10" class="node">
<title>9</title>
<ellipse fill="none" stroke="black" cx="279.11" cy="-126" rx="66.19" ry="18"/>
<text text-anchor="middle" x="279.11" y="-120.95" font-family="Times New Roman,serif" font-size="14.00">Show Particles</text>
</g>
<!-- 0&#45;&gt;9 -->
<g id="edge9" class="edge">
<title>0&#45;&gt;9</title>
<path fill="none" stroke="black" d="M127.43,-166.44C155.6,-158.88 190.82,-149.43 220.12,-141.56"/>
<polygon fill="black" stroke="black" points="220.82,-145 229.57,-139.03 219.01,-138.24 220.82,-145"/>
</g>
<!-- 11 -->
<!-- name: &quot;Effect Duration Ticks&quot;, typeName: &quot;&quot;, id: 11, branchId: 0, recurseId: &#45;1, attributes: 0, notes: &quot;&quot; -->
<g id="node12" class="node">
<title>11</title>
<ellipse fill="none" stroke="black" cx="279.11" cy="-72" rx="91.27" ry="18"/>
<text text-anchor="middle" x="279.11" y="-66.95" font-family="Times New Roman,serif" font-size="14.00">Effect Duration Ticks</text>
</g>
<!-- 0&#45;&gt;11 -->
<g id="edge11" class="edge">
<title>0&#45;&gt;11</title>
<path fill="none" stroke="black" d="M96.41,-162.54C117.57,-144.39 153.02,-116.28 187.84,-99 194.63,-95.63 201.92,-92.59 209.31,-89.88"/>
<polygon fill="black" stroke="black" points="210.42,-93.2 218.73,-86.63 208.13,-86.59 210.42,-93.2"/>
</g>
<!-- 13 -->
<!-- name: &quot;Tick&quot;, typeName: &quot;PlayerInputTick&quot;, id: 13, branchId: 0, recurseId: &#45;1, attributes: 256, notes: &quot;If this packet is referring to the player or a client predicted vehicle they are in control of, this should be the most recently processed PlayerInputTick from their PlayerAuthInputPacket. Otherwise zero.&quot; -->
<g id="node14" class="node">
<title>13</title>
<ellipse fill="none" stroke="black" cx="279.11" cy="-18" rx="27.81" ry="18"/>
<text text-anchor="middle" x="279.11" y="-12.95" font-family="Times New Roman,serif" font-size="14.00">Tick</text>
</g>
<!-- 0&#45;&gt;13 -->
<g id="edge13" class="edge">
<title>0&#45;&gt;13</title>
<path fill="none" stroke="black" d="M87,-161.78C103.99,-132.74 141.11,-76.07 187.84,-45 203.59,-34.52 223.54,-28 240.67,-24"/>
<polygon fill="black" stroke="black" points="240.91,-27.53 249.97,-22.03 239.46,-20.68 240.91,-27.53"/>
</g>
<!-- 2 -->
<!-- name: &quot;ActorRuntimeID&quot;, typeName: &quot;&quot;, id: 2, branchId: 0, recurseId: &#45;1, attributes: 512, notes: &quot;&quot; -->
<g id="node3" class="node">
<title>2</title>
<ellipse fill="none" stroke="black" cx="480.25" cy="-342" rx="73.87" ry="18"/>
<text text-anchor="middle" x="480.25" y="-336.95" font-family="Times New Roman,serif" font-size="14.00">ActorRuntimeID</text>
</g>
<!-- 1&#45;&gt;2 -->
<g id="edge2" class="edge">
<title>1&#45;&gt;2</title>
<path fill="none" stroke="black" d="M361.11,-342C372.14,-342 383.48,-342 394.57,-342"/>
<polygon fill="black" stroke="black" points="394.5,-345.5 404.5,-342 394.5,-338.5 394.5,-345.5"/>
</g>
<!-- 4 -->
<!-- name: &quot;byte&quot;, typeName: &quot;&quot;, id: 4, branchId: 0, recurseId: &#45;1, attributes: 512, notes: &quot;&quot; -->
<g id="node5" class="node">
<title>4</title>
<ellipse fill="none" stroke="black" cx="480.25" cy="-288" rx="27" ry="18"/>
<text text-anchor="middle" x="480.25" y="-282.95" font-family="Times New Roman,serif" font-size="14.00">byte</text>
</g>
<!-- 3&#45;&gt;4 -->
<g id="edge4" class="edge">
<title>3&#45;&gt;4</title>
<path fill="none" stroke="black" d="M324.31,-288C359.57,-288 408.41,-288 441.78,-288"/>
<polygon fill="black" stroke="black" points="441.37,-291.5 451.37,-288 441.37,-284.5 441.37,-291.5"/>
</g>
<!-- 6 -->
<!-- name: &quot;varint&quot;, typeName: &quot;&quot;, id: 6, branchId: 0, recurseId: &#45;1, attributes: 512, notes: &quot;&quot; -->
<g id="node7" class="node">
<title>6</title>
<ellipse fill="none" stroke="black" cx="480.25" cy="-234" rx="32.41" ry="18"/>
<text text-anchor="middle" x="480.25" y="-228.95" font-family="Times New Roman,serif" font-size="14.00">varint</text>
</g>
<!-- 5&#45;&gt;6 -->
<g id="edge6" class="edge">
<title>5&#45;&gt;6</title>
<path fill="none" stroke="black" d="M325.3,-234C358.51,-234 403.38,-234 436.1,-234"/>
<polygon fill="black" stroke="black" points="436.05,-237.5 446.05,-234 436.05,-230.5 436.05,-237.5"/>
</g>
<!-- 8 -->
<!-- name: &quot;varint&quot;, typeName: &quot;&quot;, id: 8, branchId: 0, recurseId: &#45;1, attributes: 512, notes: &quot;&quot; -->
<g id="node9" class="node">
<title>8</title>
<ellipse fill="none" stroke="black" cx="480.25" cy="-180" rx="32.41" ry="18"/>
<text text-anchor="middle" x="480.25" y="-174.95" font-family="Times New Roman,serif" font-size="14.00">varint</text>
</g>
<!-- 7&#45;&gt;8 -->
<g id="edge8" class="edge">
<title>7&#45;&gt;8</title>
<path fill="none" stroke="black" d="M351.72,-180C379.9,-180 411.32,-180 435.92,-180"/>
<polygon fill="black" stroke="black" points="435.9,-183.5 445.9,-180 435.9,-176.5 435.9,-183.5"/>
</g>
<!-- 10 -->
<!-- name: &quot;bool&quot;, typeName: &quot;&quot;, id: 10, branchId: 0, recurseId: &#45;1, attributes: 512, notes: &quot;&quot; -->
<g id="node11" class="node">
<title>10</title>
<ellipse fill="none" stroke="black" cx="480.25" cy="-126" rx="27.3" ry="18"/>
<text text-anchor="middle" x="480.25" y="-120.95" font-family="Times New Roman,serif" font-size="14.00">bool</text>
</g>
<!-- 9&#45;&gt;10 -->
<g id="edge10" class="edge">
<title>9&#45;&gt;10</title>
<path fill="none" stroke="black" d="M345.59,-126C377.29,-126 414.23,-126 441.23,-126"/>
<polygon fill="black" stroke="black" points="441.01,-129.5 451.01,-126 441.01,-122.5 441.01,-129.5"/>
</g>
<!-- 12 -->
<!-- name: &quot;varint&quot;, typeName: &quot;&quot;, id: 12, branchId: 0, recurseId: &#45;1, attributes: 512, notes: &quot;&quot; -->
<g id="node13" class="node">
<title>12</title>
<ellipse fill="none" stroke="black" cx="480.25" cy="-72" rx="32.41" ry="18"/>
<text text-anchor="middle" x="480.25" y="-66.95" font-family="Times New Roman,serif" font-size="14.00">varint</text>
</g>
<!-- 11&#45;&gt;12 -->
<g id="edge12" class="edge">
<title>11&#45;&gt;12</title>
<path fill="none" stroke="black" d="M370.65,-72C393.45,-72 416.89,-72 436.13,-72"/>
<polygon fill="black" stroke="black" points="436.01,-75.5 446.01,-72 436.01,-68.5 436.01,-75.5"/>
</g>
<!-- 14 -->
<!-- name: &quot;PlayerInputTick&quot;, typeName: &quot;&quot;, id: 14, branchId: 0, recurseId: &#45;1, attributes: 512, notes: &quot;&quot; -->
<g id="node15" class="node">
<title>14</title>
<ellipse fill="none" stroke="black" cx="480.25" cy="-18" rx="70.8" ry="18"/>
<text text-anchor="middle" x="480.25" y="-12.95" font-family="Times New Roman,serif" font-size="14.00">PlayerInputTick</text>
</g>
<!-- 13&#45;&gt;14 -->
<g id="edge14" class="edge">
<title>13&#45;&gt;14</title>
<path fill="none" stroke="black" d="M307.38,-18C330.73,-18 365.58,-18 397.81,-18"/>
<polygon fill="black" stroke="black" points="397.56,-21.5 407.56,-18 397.56,-14.5 397.56,-21.5"/>
</g>
</g>
</svg>
