<?xml version="1.0" encoding="UTF-8" standalone="no"?>
<!DOCTYPE svg PUBLIC "-//W3C//DTD SVG 1.1//EN"
 "http://www.w3.org/Graphics/SVG/1.1/DTD/svg11.dtd">
<!-- Generated by graphviz version 9.0.0 (20230911.1827)
 -->
<!-- Title: ModalFormResponsePacket Pages: 1 -->
<svg width="867pt" height="152pt"
 viewBox="0.00 0.00 867.42 152.00" xmlns="http://www.w3.org/2000/svg" xmlns:xlink="http://www.w3.org/1999/xlink">
<g id="graph0" class="graph" transform="scale(1 1) rotate(0) translate(4 148)">
<title>ModalFormResponsePacket</title>
<polygon fill="white" stroke="none" points="-4,4 -4,-148 863.42,-148 863.42,4 -4,4"/>
<!-- 0 -->
<!-- name: &quot;ModalFormResponsePacket&quot;, typeName: &quot;&quot;, id: 0, branchId: 101, recurseId: &#45;1, attributes: 0, notes: &quot;&quot; -->
<g id="node1" class="node">
<title>0</title>
<ellipse fill="none" stroke="black" cx="116.93" cy="-72" rx="116.93" ry="18"/>
<text text-anchor="middle" x="116.93" y="-66.58" font-family="Times New Roman,serif" font-size="14.00">ModalFormResponsePacket</text>
</g>
<!-- 1 -->
<!-- name: &quot;Form ID&quot;, typeName: &quot;&quot;, id: 1, branchId: 0, recurseId: &#45;1, attributes: 0, notes: &quot;&quot; -->
<g id="node2" class="node">
<title>1</title>
<ellipse fill="none" stroke="black" cx="359.35" cy="-126" rx="43.08" ry="18"/>
<text text-anchor="middle" x="359.35" y="-120.58" font-family="Times New Roman,serif" font-size="14.00">Form ID</text>
</g>
<!-- 0&#45;&gt;1 -->
<g id="edge1" class="edge">
<title>0&#45;&gt;1</title>
<path fill="none" stroke="black" d="M184.9,-87.04C224.52,-95.94 273.8,-107.01 309.7,-115.07"/>
<polygon fill="black" stroke="black" points="308.86,-118.47 319.38,-117.25 310.39,-111.64 308.86,-118.47"/>
</g>
<!-- 3 -->
<!-- name: &quot;JSON Response&quot;, typeName: &quot;std::optional&lt;class Json::Value&gt;&quot;, id: 3, branchId: 0, recurseId: &#45;1, attributes: 256, notes: &quot;&quot; -->
<g id="node4" class="node">
<title>3</title>
<ellipse fill="none" stroke="black" cx="359.35" cy="-72" rx="72.52" ry="18"/>
<text text-anchor="middle" x="359.35" y="-66.58" font-family="Times New Roman,serif" font-size="14.00">JSON Response</text>
</g>
<!-- 0&#45;&gt;3 -->
<g id="edge3" class="edge">
<title>0&#45;&gt;3</title>
<path fill="none" stroke="black" d="M234.27,-72C248.08,-72 261.96,-72 275.18,-72"/>
<polygon fill="black" stroke="black" points="275.09,-75.5 285.09,-72 275.09,-68.5 275.09,-75.5"/>
</g>
<!-- 8 -->
<!-- name: &quot;Form Cancel Reason&quot;, typeName: &quot;std::optional&lt;enum ModalFormCancelReason&gt;&quot;, id: 8, branchId: 0, recurseId: &#45;1, attributes: 256, notes: &quot;&quot; -->
<g id="node6" class="node">
<title>8</title>
<ellipse fill="none" stroke="black" cx="359.35" cy="-18" rx="89.49" ry="18"/>
<text text-anchor="middle" x="359.35" y="-12.57" font-family="Times New Roman,serif" font-size="14.00">Form Cancel Reason</text>
</g>
<!-- 0&#45;&gt;8 -->
<g id="edge5" class="edge">
<title>0&#45;&gt;8</title>
<path fill="none" stroke="black" d="M184.9,-56.96C216.72,-49.81 254.77,-41.26 287.12,-34"/>
<polygon fill="black" stroke="black" points="287.84,-37.43 296.83,-31.82 286.3,-30.6 287.84,-37.43"/>
</g>
<!-- 2 -->
<!-- name: &quot;unsigned varint&quot;, typeName: &quot;&quot;, id: 2, branchId: 0, recurseId: &#45;1, attributes: 512, notes: &quot;&quot; -->
<g id="node3" class="node">
<title>2</title>
<ellipse fill="none" stroke="black" cx="672.13" cy="-126" rx="66.53" ry="18"/>
<text text-anchor="middle" x="672.13" y="-120.58" font-family="Times New Roman,serif" font-size="14.00">unsigned varint</text>
</g>
<!-- 1&#45;&gt;2 -->
<g id="edge2" class="edge">
<title>1&#45;&gt;2</title>
<path fill="none" stroke="black" d="M402.91,-126C451.95,-126 533.51,-126 593.85,-126"/>
<polygon fill="black" stroke="black" points="593.72,-129.5 603.72,-126 593.72,-122.5 593.72,-129.5"/>
</g>
<!-- 7 -->
<!-- name: &quot;std::optional&lt;class Json::Value&gt;&quot;, typeName: &quot;&quot;, id: 7, branchId: 0, recurseId: &#45;1, attributes: 512, notes: &quot;&quot; -->
<g id="node5" class="node">
<title>7</title>
<ellipse fill="none" stroke="black" cx="672.13" cy="-72" rx="129.91" ry="18"/>
<text text-anchor="middle" x="672.13" y="-66.58" font-family="Times New Roman,serif" font-size="14.00">std::optional&lt;class Json::Value&gt;</text>
</g>
<!-- 3&#45;&gt;7 -->
<g id="edge4" class="edge">
<title>3&#45;&gt;7</title>
<path fill="none" stroke="black" d="M432.04,-72C461.35,-72 496.32,-72 530.36,-72"/>
<polygon fill="black" stroke="black" points="530.34,-75.5 540.34,-72 530.34,-68.5 530.34,-75.5"/>
</g>
<!-- 12 -->
<!-- name: &quot;std::optional&lt;enum ModalFormCancelReason&gt;&quot;, typeName: &quot;&quot;, id: 12, branchId: 0, recurseId: &#45;1, attributes: 512, notes: &quot;&quot; -->
<g id="node7" class="node">
<title>12</title>
<ellipse fill="none" stroke="black" cx="672.13" cy="-18" rx="187.29" ry="18"/>
<text text-anchor="middle" x="672.13" y="-12.57" font-family="Times New Roman,serif" font-size="14.00">std::optional&lt;enum ModalFormCancelReason&gt;</text>
</g>
<!-- 8&#45;&gt;12 -->
<g id="edge6" class="edge">
<title>8&#45;&gt;12</title>
<path fill="none" stroke="black" d="M448.99,-18C456.82,-18 464.93,-18 473.22,-18"/>
<polygon fill="black" stroke="black" points="473.1,-21.5 483.1,-18 473.1,-14.5 473.1,-21.5"/>
</g>
</g>
</svg>
