<?xml version="1.0" encoding="UTF-8" standalone="no"?>
<!DOCTYPE svg PUBLIC "-//W3C//DTD SVG 1.1//EN"
 "http://www.w3.org/Graphics/SVG/1.1/DTD/svg11.dtd">
<!-- Generated by graphviz version 2.46.1 (20210213.1702)
 -->
<!-- Title: ModalFormResponsePacket Pages: 1 -->
<svg width="851pt" height="152pt"
 viewBox="0.00 0.00 850.83 152.00" xmlns="http://www.w3.org/2000/svg" xmlns:xlink="http://www.w3.org/1999/xlink">
<g id="graph0" class="graph" transform="scale(1 1) rotate(0) translate(4 148)">
<title>ModalFormResponsePacket</title>
<polygon fill="white" stroke="transparent" points="-4,4 -4,-148 846.83,-148 846.83,4 -4,4"/>
<!-- 0 -->
<!-- name: &quot;ModalFormResponsePacket&quot;, typeName: &quot;&quot;, id: 0, branchId: 101, recurseId: &#45;1, attributes: 0, notes: &quot;&quot; -->
<g id="node1" class="node">
<title>0</title>
<ellipse fill="none" stroke="black" cx="114.39" cy="-72" rx="114.28" ry="18"/>
<text text-anchor="middle" x="114.39" y="-68.3" font-family="Times New Roman,serif" font-size="14.00">ModalFormResponsePacket</text>
</g>
<!-- 1 -->
<!-- name: &quot;Form ID&quot;, typeName: &quot;&quot;, id: 1, branchId: 0, recurseId: &#45;1, attributes: 0, notes: &quot;&quot; -->
<g id="node2" class="node">
<title>1</title>
<ellipse fill="none" stroke="black" cx="352.52" cy="-126" rx="42.49" ry="18"/>
<text text-anchor="middle" x="352.52" y="-122.3" font-family="Times New Roman,serif" font-size="14.00">Form ID</text>
</g>
<!-- 0&#45;&gt;1 -->
<g id="edge1" class="edge">
<title>0&#45;&gt;1</title>
<path fill="none" stroke="black" d="M179.91,-86.76C219.44,-95.79 269.11,-107.15 304.83,-115.32"/>
<polygon fill="black" stroke="black" points="304.45,-118.83 314.98,-117.64 306.01,-112 304.45,-118.83"/>
</g>
<!-- 3 -->
<!-- name: &quot;JSON Response&quot;, typeName: &quot;std::optional&lt;class Json::Value&gt;&quot;, id: 3, branchId: 0, recurseId: &#45;1, attributes: 256, notes: &quot;&quot; -->
<g id="node4" class="node">
<title>3</title>
<ellipse fill="none" stroke="black" cx="352.52" cy="-72" rx="71.49" ry="18"/>
<text text-anchor="middle" x="352.52" y="-68.3" font-family="Times New Roman,serif" font-size="14.00">JSON Response</text>
</g>
<!-- 0&#45;&gt;3 -->
<g id="edge3" class="edge">
<title>0&#45;&gt;3</title>
<path fill="none" stroke="black" d="M228.96,-72C243.08,-72 257.29,-72 270.78,-72"/>
<polygon fill="black" stroke="black" points="270.93,-75.5 280.93,-72 270.93,-68.5 270.93,-75.5"/>
</g>
<!-- 8 -->
<!-- name: &quot;Form Cancel Reason&quot;, typeName: &quot;std::optional&lt;enum ModalFormCancelReason&gt;&quot;, id: 8, branchId: 0, recurseId: &#45;1, attributes: 256, notes: &quot;&quot; -->
<g id="node6" class="node">
<title>8</title>
<ellipse fill="none" stroke="black" cx="352.52" cy="-18" rx="87.99" ry="18"/>
<text text-anchor="middle" x="352.52" y="-14.3" font-family="Times New Roman,serif" font-size="14.00">Form Cancel Reason</text>
</g>
<!-- 0&#45;&gt;8 -->
<g id="edge5" class="edge">
<title>0&#45;&gt;8</title>
<path fill="none" stroke="black" d="M179.91,-57.24C211.97,-49.91 250.7,-41.06 283.24,-33.61"/>
<polygon fill="black" stroke="black" points="284.17,-36.99 293.13,-31.35 282.6,-30.17 284.17,-36.99"/>
</g>
<!-- 2 -->
<!-- name: &quot;unsigned varint&quot;, typeName: &quot;&quot;, id: 2, branchId: 0, recurseId: &#45;1, attributes: 512, notes: &quot;&quot; -->
<g id="node3" class="node">
<title>2</title>
<ellipse fill="none" stroke="black" cx="659.55" cy="-126" rx="65.79" ry="18"/>
<text text-anchor="middle" x="659.55" y="-122.3" font-family="Times New Roman,serif" font-size="14.00">unsigned varint</text>
</g>
<!-- 1&#45;&gt;2 -->
<g id="edge2" class="edge">
<title>1&#45;&gt;2</title>
<path fill="none" stroke="black" d="M394.98,-126C443.33,-126 524.2,-126 583.64,-126"/>
<polygon fill="black" stroke="black" points="583.73,-129.5 593.73,-126 583.73,-122.5 583.73,-129.5"/>
</g>
<!-- 7 -->
<!-- name: &quot;std::optional&lt;class Json::Value&gt;&quot;, typeName: &quot;&quot;, id: 7, branchId: 0, recurseId: &#45;1, attributes: 512, notes: &quot;&quot; -->
<g id="node5" class="node">
<title>7</title>
<ellipse fill="none" stroke="black" cx="659.55" cy="-72" rx="127.28" ry="18"/>
<text text-anchor="middle" x="659.55" y="-68.3" font-family="Times New Roman,serif" font-size="14.00">std::optional&lt;class Json::Value&gt;</text>
</g>
<!-- 3&#45;&gt;7 -->
<g id="edge4" class="edge">
<title>3&#45;&gt;7</title>
<path fill="none" stroke="black" d="M424.27,-72C453.3,-72 487.93,-72 521.56,-72"/>
<polygon fill="black" stroke="black" points="521.95,-75.5 531.95,-72 521.95,-68.5 521.95,-75.5"/>
</g>
<!-- 12 -->
<!-- name: &quot;std::optional&lt;enum ModalFormCancelReason&gt;&quot;, typeName: &quot;&quot;, id: 12, branchId: 0, recurseId: &#45;1, attributes: 512, notes: &quot;&quot; -->
<g id="node7" class="node">
<title>12</title>
<ellipse fill="none" stroke="black" cx="659.55" cy="-18" rx="183.07" ry="18"/>
<text text-anchor="middle" x="659.55" y="-14.3" font-family="Times New Roman,serif" font-size="14.00">std::optional&lt;enum ModalFormCancelReason&gt;</text>
</g>
<!-- 8&#45;&gt;12 -->
<g id="edge6" class="edge">
<title>8&#45;&gt;12</title>
<path fill="none" stroke="black" d="M440.52,-18C448.69,-18 457.16,-18 465.82,-18"/>
<polygon fill="black" stroke="black" points="466.06,-21.5 476.06,-18 466.06,-14.5 466.06,-21.5"/>
</g>
</g>
</svg>
