<?xml version="1.0" encoding="UTF-8" standalone="no"?>
<!DOCTYPE svg PUBLIC "-//W3C//DTD SVG 1.1//EN"
 "http://www.w3.org/Graphics/SVG/1.1/DTD/svg11.dtd">
<!-- Generated by graphviz version 2.46.1 (20210213.1702)
 -->
<!-- Title: MolangVariableMap Pages: 1 -->
<svg width="504pt" height="44pt"
 viewBox="0.00 0.00 503.76 44.00" xmlns="http://www.w3.org/2000/svg" xmlns:xlink="http://www.w3.org/1999/xlink">
<g id="graph0" class="graph" transform="scale(1 1) rotate(0) translate(4 40)">
<title>MolangVariableMap</title>
<polygon fill="white" stroke="transparent" points="-4,4 -4,-40 499.76,-40 499.76,4 -4,4"/>
<!-- 14 -->
<!-- name: &quot;MolangVariableMap&quot;, typeName: &quot;&quot;, id: 14, branchId: 0, recurseId: &#45;1, attributes: 0, notes: &quot;&quot; -->
<g id="node1" class="node">
<title>14</title>
<ellipse fill="none" stroke="black" cx="84.49" cy="-18" rx="84.49" ry="18"/>
<text text-anchor="middle" x="84.49" y="-14.3" font-family="Times New Roman,serif" font-size="14.00">MolangVariableMap</text>
</g>
<!-- 15 -->
<!-- name: &quot;Serialized Variable Map&quot;, typeName: &quot;&quot;, id: 15, branchId: 0, recurseId: &#45;1, attributes: 0, notes: &quot;&quot; -->
<g id="node2" class="node">
<title>15</title>
<ellipse fill="none" stroke="black" cx="301.83" cy="-18" rx="96.68" ry="18"/>
<text text-anchor="middle" x="301.83" y="-14.3" font-family="Times New Roman,serif" font-size="14.00">Serialized Variable Map</text>
</g>
<!-- 14&#45;&gt;15 -->
<g id="edge1" class="edge">
<title>14&#45;&gt;15</title>
<path fill="none" stroke="black" d="M169.05,-18C177.47,-18 186.09,-18 194.69,-18"/>
<polygon fill="black" stroke="black" points="194.78,-21.5 204.78,-18 194.78,-14.5 194.78,-21.5"/>
</g>
<!-- 16 -->
<!-- name: &quot;string&quot;, typeName: &quot;&quot;, id: 16, branchId: 0, recurseId: &#45;1, attributes: 512, notes: &quot;&quot; -->
<g id="node3" class="node">
<title>16</title>
<ellipse fill="none" stroke="black" cx="465.22" cy="-18" rx="30.59" ry="18"/>
<text text-anchor="middle" x="465.22" y="-14.3" font-family="Times New Roman,serif" font-size="14.00">string</text>
</g>
<!-- 15&#45;&gt;16 -->
<g id="edge2" class="edge">
<title>15&#45;&gt;16</title>
<path fill="none" stroke="black" d="M399.04,-18C407.86,-18 416.42,-18 424.28,-18"/>
<polygon fill="black" stroke="black" points="424.52,-21.5 434.52,-18 424.52,-14.5 424.52,-21.5"/>
</g>
</g>
</svg>
