<?xml version="1.0" encoding="UTF-8" standalone="no"?>
<!DOCTYPE svg PUBLIC "-//W3C//DTD SVG 1.1//EN"
 "http://www.w3.org/Graphics/SVG/1.1/DTD/svg11.dtd">
<!-- Generated by graphviz version 14.1.5 (20260411.2331)
 -->
<!-- Title: MoveActorAbsoluteData Pages: 1 -->
<svg width="786pt" height="422pt"
 viewBox="0.00 0.00 786.00 422.00" xmlns="http://www.w3.org/2000/svg" xmlns:xlink="http://www.w3.org/1999/xlink">
<g id="graph0" class="graph" transform="scale(1 1) rotate(0) translate(4 418)">
<title>MoveActorAbsoluteData</title>
<polygon fill="white" stroke="none" points="-4,4 -4,-418 781.79,-418 781.79,4 -4,4"/>
<!-- 0 -->
<!-- name: &quot;MoveActorAbsoluteData&quot;, typeName: &quot;&quot;, id: 0, branchId: 0, recurseId: &#45;1, attributes: 0, notes: &quot;&quot; -->
<g id="node1" class="node">
<title>0</title>
<ellipse fill="none" stroke="black" cx="104.58" cy="-165" rx="104.58" ry="18"/>
<text xml:space="preserve" text-anchor="middle" x="104.58" y="-159.95" font-family="Times New Roman,serif" font-size="14.00">MoveActorAbsoluteData</text>
</g>
<!-- 1 -->
<!-- name: &quot;ActorRuntimeID&quot;, typeName: &quot;&quot;, id: 1, branchId: 0, recurseId: &#45;1, attributes: 0, notes: &quot;The runtime id of the actor being moved&quot; -->
<g id="node2" class="node">
<title>1</title>
<ellipse fill="none" stroke="black" cx="319.03" cy="-375" rx="73.87" ry="18"/>
<text xml:space="preserve" text-anchor="middle" x="319.03" y="-369.95" font-family="Times New Roman,serif" font-size="14.00">ActorRuntimeID</text>
</g>
<!-- 0&#45;&gt;1 -->
<g id="edge1" class="edge">
<title>0&#45;&gt;1</title>
<path fill="none" stroke="black" d="M119.45,-183.26C143.27,-213.99 194.32,-277.18 245.16,-323 256.46,-333.18 269.76,-343.18 281.89,-351.64"/>
<polygon fill="black" stroke="black" points="279.82,-354.47 290.06,-357.22 283.77,-348.69 279.82,-354.47"/>
</g>
<!-- 4 -->
<!-- name: &quot;Header&quot;, typeName: &quot;&quot;, id: 4, branchId: 0, recurseId: &#45;1, attributes: 0, notes: &quot;Header bits describing the status of the actor, see additional documentation in the supplemental documentation folder&quot; -->
<g id="node5" class="node">
<title>4</title>
<ellipse fill="none" stroke="black" cx="319.03" cy="-296" rx="37.53" ry="18"/>
<text xml:space="preserve" text-anchor="middle" x="319.03" y="-290.95" font-family="Times New Roman,serif" font-size="14.00">Header</text>
</g>
<!-- 0&#45;&gt;4 -->
<g id="edge4" class="edge">
<title>0&#45;&gt;4</title>
<path fill="none" stroke="black" d="M134.23,-182.67C173.57,-206.93 244.13,-250.43 285.44,-275.91"/>
<polygon fill="black" stroke="black" points="283.39,-278.75 293.74,-281.02 287.07,-272.8 283.39,-278.75"/>
</g>
<!-- 6 -->
<!-- name: &quot;Position&quot;, typeName: &quot;&quot;, id: 6, branchId: 0, recurseId: &#45;1, attributes: 0, notes: &quot;X/Y/Z coordinates of the position of the actor, each being a 4 byte float&quot; -->
<g id="node7" class="node">
<title>6</title>
<ellipse fill="none" stroke="black" cx="319.03" cy="-192" rx="41.12" ry="18"/>
<text xml:space="preserve" text-anchor="middle" x="319.03" y="-186.95" font-family="Times New Roman,serif" font-size="14.00">Position</text>
</g>
<!-- 0&#45;&gt;6 -->
<g id="edge6" class="edge">
<title>0&#45;&gt;6</title>
<path fill="none" stroke="black" d="M189.85,-175.71C216.21,-179.06 244.46,-182.65 267.71,-185.61"/>
<polygon fill="black" stroke="black" points="267.17,-189.06 277.53,-186.85 268.05,-182.12 267.17,-189.06"/>
</g>
<!-- 13 -->
<!-- name: &quot;Rotation X&quot;, typeName: &quot;&quot;, id: 13, branchId: 0, recurseId: &#45;1, attributes: 0, notes: &quot;The X rotation of the actor stored as an integer&quot; -->
<g id="node14" class="node">
<title>13</title>
<ellipse fill="none" stroke="black" cx="319.03" cy="-138" rx="51.86" ry="18"/>
<text xml:space="preserve" text-anchor="middle" x="319.03" y="-132.95" font-family="Times New Roman,serif" font-size="14.00">Rotation X</text>
</g>
<!-- 0&#45;&gt;13 -->
<g id="edge13" class="edge">
<title>0&#45;&gt;13</title>
<path fill="none" stroke="black" d="M189.85,-154.29C212.83,-151.37 237.24,-148.27 258.53,-145.56"/>
<polygon fill="black" stroke="black" points="258.69,-149.07 268.17,-144.34 257.81,-142.12 258.69,-149.07"/>
</g>
<!-- 15 -->
<!-- name: &quot;Rotation Y&quot;, typeName: &quot;&quot;, id: 15, branchId: 0, recurseId: &#45;1, attributes: 0, notes: &quot;The Y rotation of the actor stored as an integer&quot; -->
<g id="node16" class="node">
<title>15</title>
<ellipse fill="none" stroke="black" cx="507.89" cy="-76" rx="51.35" ry="18"/>
<text xml:space="preserve" text-anchor="middle" x="507.89" y="-70.95" font-family="Times New Roman,serif" font-size="14.00">Rotation Y</text>
</g>
<!-- 0&#45;&gt;15 -->
<g id="edge15" class="edge">
<title>0&#45;&gt;15</title>
<path fill="none" stroke="black" d="M142.7,-147.86C170.38,-135.78 209.42,-120.17 245.16,-111 312.59,-93.71 392.12,-84.61 445.67,-80.08"/>
<polygon fill="black" stroke="black" points="445.83,-83.58 455.51,-79.27 445.26,-76.6 445.83,-83.58"/>
</g>
<!-- 17 -->
<!-- name: &quot;Rotation Y Head&quot;, typeName: &quot;&quot;, id: 17, branchId: 0, recurseId: &#45;1, attributes: 0, notes: &quot;The head rotation of the actor if and only if it&#39;s a Mob type, stored as an integer&quot; -->
<g id="node18" class="node">
<title>17</title>
<ellipse fill="none" stroke="black" cx="319.03" cy="-22" rx="73.36" ry="18"/>
<text xml:space="preserve" text-anchor="middle" x="319.03" y="-16.95" font-family="Times New Roman,serif" font-size="14.00">Rotation Y Head</text>
</g>
<!-- 0&#45;&gt;17 -->
<g id="edge17" class="edge">
<title>0&#45;&gt;17</title>
<path fill="none" stroke="black" d="M127.65,-147.28C154.63,-125.95 202.02,-89.58 245.16,-62 254.92,-55.76 265.72,-49.5 275.95,-43.85"/>
<polygon fill="black" stroke="black" points="277.49,-47 284.6,-39.15 274.14,-40.85 277.49,-47"/>
</g>
<!-- 2 -->
<!-- name: &quot;Actor Runtime ID&quot;, typeName: &quot;&quot;, id: 2, branchId: 0, recurseId: &#45;1, attributes: 0, notes: &quot;&quot; -->
<g id="node3" class="node">
<title>2</title>
<ellipse fill="none" stroke="black" cx="507.89" cy="-392" rx="78.99" ry="18"/>
<text xml:space="preserve" text-anchor="middle" x="507.89" y="-386.95" font-family="Times New Roman,serif" font-size="14.00">Actor Runtime ID</text>
</g>
<!-- 1&#45;&gt;2 -->
<g id="edge2" class="edge">
<title>1&#45;&gt;2</title>
<path fill="none" stroke="black" d="M388.81,-381.26C399.82,-382.26 411.31,-383.3 422.63,-384.33"/>
<polygon fill="black" stroke="black" points="422.08,-387.8 432.35,-385.22 422.71,-380.83 422.08,-387.8"/>
</g>
<!-- 3 -->
<!-- name: &quot;unsigned varint64&quot;, typeName: &quot;&quot;, id: 3, branchId: 0, recurseId: &#45;1, attributes: 512, notes: &quot;&quot; -->
<g id="node4" class="node">
<title>3</title>
<ellipse fill="none" stroke="black" cx="700.33" cy="-396" rx="77.45" ry="18"/>
<text xml:space="preserve" text-anchor="middle" x="700.33" y="-390.95" font-family="Times New Roman,serif" font-size="14.00">unsigned varint64</text>
</g>
<!-- 2&#45;&gt;3 -->
<g id="edge3" class="edge">
<title>2&#45;&gt;3</title>
<path fill="none" stroke="black" d="M586.9,-393.64C594.93,-393.81 603.13,-393.98 611.26,-394.15"/>
<polygon fill="black" stroke="black" points="611.09,-397.65 621.16,-394.36 611.24,-390.65 611.09,-397.65"/>
</g>
<!-- 5 -->
<!-- name: &quot;unsigned byte&quot;, typeName: &quot;&quot;, id: 5, branchId: 0, recurseId: &#45;1, attributes: 512, notes: &quot;Header bits describing the status of the actor, see additional documentation in the supplemental documentation folder&quot; -->
<g id="node6" class="node">
<title>5</title>
<ellipse fill="none" stroke="black" cx="700.33" cy="-342" rx="62.61" ry="18"/>
<text xml:space="preserve" text-anchor="middle" x="700.33" y="-336.95" font-family="Times New Roman,serif" font-size="14.00">unsigned byte</text>
</g>
<!-- 4&#45;&gt;5 -->
<g id="edge5" class="edge">
<title>4&#45;&gt;5</title>
<path fill="none" stroke="black" d="M354.25,-302.64C375.65,-306.62 403.81,-311.56 428.9,-315 496.33,-324.24 573.63,-331.64 628.26,-336.34"/>
<polygon fill="black" stroke="black" points="627.8,-339.81 638.06,-337.17 628.39,-332.84 627.8,-339.81"/>
</g>
<!-- 7 -->
<!-- name: &quot;X&quot;, typeName: &quot;&quot;, id: 7, branchId: 0, recurseId: &#45;1, attributes: 0, notes: &quot;&quot; -->
<g id="node8" class="node">
<title>7</title>
<ellipse fill="none" stroke="black" cx="507.89" cy="-288" rx="27" ry="18"/>
<text xml:space="preserve" text-anchor="middle" x="507.89" y="-282.95" font-family="Times New Roman,serif" font-size="14.00">X</text>
</g>
<!-- 6&#45;&gt;7 -->
<g id="edge7" class="edge">
<title>6&#45;&gt;7</title>
<path fill="none" stroke="black" d="M341.27,-207.56C362.61,-222.68 396.85,-245.55 428.9,-261 442.41,-267.51 457.92,-273.21 471.52,-277.68"/>
<polygon fill="black" stroke="black" points="470.39,-280.99 480.98,-280.67 472.5,-274.32 470.39,-280.99"/>
</g>
<!-- 9 -->
<!-- name: &quot;Y&quot;, typeName: &quot;&quot;, id: 9, branchId: 0, recurseId: &#45;1, attributes: 0, notes: &quot;&quot; -->
<g id="node10" class="node">
<title>9</title>
<ellipse fill="none" stroke="black" cx="507.89" cy="-234" rx="27" ry="18"/>
<text xml:space="preserve" text-anchor="middle" x="507.89" y="-228.95" font-family="Times New Roman,serif" font-size="14.00">Y</text>
</g>
<!-- 6&#45;&gt;9 -->
<g id="edge9" class="edge">
<title>6&#45;&gt;9</title>
<path fill="none" stroke="black" d="M356.06,-200.1C389.07,-207.52 437.7,-218.45 470.75,-225.88"/>
<polygon fill="black" stroke="black" points="469.74,-229.24 480.26,-228.01 471.27,-222.41 469.74,-229.24"/>
</g>
<!-- 11 -->
<!-- name: &quot;Z&quot;, typeName: &quot;&quot;, id: 11, branchId: 0, recurseId: &#45;1, attributes: 0, notes: &quot;&quot; -->
<g id="node12" class="node">
<title>11</title>
<ellipse fill="none" stroke="black" cx="507.89" cy="-180" rx="27" ry="18"/>
<text xml:space="preserve" text-anchor="middle" x="507.89" y="-174.95" font-family="Times New Roman,serif" font-size="14.00">Z</text>
</g>
<!-- 6&#45;&gt;11 -->
<g id="edge11" class="edge">
<title>6&#45;&gt;11</title>
<path fill="none" stroke="black" d="M360.12,-189.43C392.45,-187.35 437.59,-184.45 469.25,-182.42"/>
<polygon fill="black" stroke="black" points="469.41,-185.91 479.16,-181.78 468.96,-178.93 469.41,-185.91"/>
</g>
<!-- 8 -->
<!-- name: &quot;float&quot;, typeName: &quot;&quot;, id: 8, branchId: 0, recurseId: &#45;1, attributes: 512, notes: &quot;&quot; -->
<g id="node9" class="node">
<title>8</title>
<ellipse fill="none" stroke="black" cx="700.33" cy="-288" rx="27.81" ry="18"/>
<text xml:space="preserve" text-anchor="middle" x="700.33" y="-282.95" font-family="Times New Roman,serif" font-size="14.00">float</text>
</g>
<!-- 7&#45;&gt;8 -->
<g id="edge8" class="edge">
<title>7&#45;&gt;8</title>
<path fill="none" stroke="black" d="M535.37,-288C567.92,-288 623.43,-288 660.74,-288"/>
<polygon fill="black" stroke="black" points="660.64,-291.5 670.64,-288 660.64,-284.5 660.64,-291.5"/>
</g>
<!-- 10 -->
<!-- name: &quot;float&quot;, typeName: &quot;&quot;, id: 10, branchId: 0, recurseId: &#45;1, attributes: 512, notes: &quot;&quot; -->
<g id="node11" class="node">
<title>10</title>
<ellipse fill="none" stroke="black" cx="700.33" cy="-234" rx="27.81" ry="18"/>
<text xml:space="preserve" text-anchor="middle" x="700.33" y="-228.95" font-family="Times New Roman,serif" font-size="14.00">float</text>
</g>
<!-- 9&#45;&gt;10 -->
<g id="edge10" class="edge">
<title>9&#45;&gt;10</title>
<path fill="none" stroke="black" d="M535.37,-234C567.92,-234 623.43,-234 660.74,-234"/>
<polygon fill="black" stroke="black" points="660.64,-237.5 670.64,-234 660.64,-230.5 660.64,-237.5"/>
</g>
<!-- 12 -->
<!-- name: &quot;float&quot;, typeName: &quot;&quot;, id: 12, branchId: 0, recurseId: &#45;1, attributes: 512, notes: &quot;&quot; -->
<g id="node13" class="node">
<title>12</title>
<ellipse fill="none" stroke="black" cx="700.33" cy="-180" rx="27.81" ry="18"/>
<text xml:space="preserve" text-anchor="middle" x="700.33" y="-174.95" font-family="Times New Roman,serif" font-size="14.00">float</text>
</g>
<!-- 11&#45;&gt;12 -->
<g id="edge12" class="edge">
<title>11&#45;&gt;12</title>
<path fill="none" stroke="black" d="M535.37,-180C567.92,-180 623.43,-180 660.74,-180"/>
<polygon fill="black" stroke="black" points="660.64,-183.5 670.64,-180 660.64,-176.5 660.64,-183.5"/>
</g>
<!-- 14 -->
<!-- name: &quot;unsigned byte&quot;, typeName: &quot;&quot;, id: 14, branchId: 0, recurseId: &#45;1, attributes: 512, notes: &quot;The X rotation of the actor stored as an integer&quot; -->
<g id="node15" class="node">
<title>14</title>
<ellipse fill="none" stroke="black" cx="700.33" cy="-126" rx="62.61" ry="18"/>
<text xml:space="preserve" text-anchor="middle" x="700.33" y="-120.95" font-family="Times New Roman,serif" font-size="14.00">unsigned byte</text>
</g>
<!-- 13&#45;&gt;14 -->
<g id="edge14" class="edge">
<title>13&#45;&gt;14</title>
<path fill="none" stroke="black" d="M371.18,-136.38C436.96,-134.3 551.62,-130.67 626.49,-128.3"/>
<polygon fill="black" stroke="black" points="626.3,-131.81 636.19,-128 626.08,-124.82 626.3,-131.81"/>
</g>
<!-- 16 -->
<!-- name: &quot;unsigned byte&quot;, typeName: &quot;&quot;, id: 16, branchId: 0, recurseId: &#45;1, attributes: 512, notes: &quot;The Y rotation of the actor stored as an integer&quot; -->
<g id="node17" class="node">
<title>16</title>
<ellipse fill="none" stroke="black" cx="700.33" cy="-72" rx="62.61" ry="18"/>
<text xml:space="preserve" text-anchor="middle" x="700.33" y="-66.95" font-family="Times New Roman,serif" font-size="14.00">unsigned byte</text>
</g>
<!-- 15&#45;&gt;16 -->
<g id="edge16" class="edge">
<title>15&#45;&gt;16</title>
<path fill="none" stroke="black" d="M559.43,-74.94C579.88,-74.51 603.9,-74 626.2,-73.54"/>
<polygon fill="black" stroke="black" points="626.24,-77.04 636.17,-73.33 626.1,-70.04 626.24,-77.04"/>
</g>
<!-- 18 -->
<!-- name: &quot;unsigned byte&quot;, typeName: &quot;&quot;, id: 18, branchId: 0, recurseId: &#45;1, attributes: 512, notes: &quot;The head rotation of the actor if and only if it&#39;s a Mob type, stored as an integer&quot; -->
<g id="node19" class="node">
<title>18</title>
<ellipse fill="none" stroke="black" cx="700.33" cy="-18" rx="62.61" ry="18"/>
<text xml:space="preserve" text-anchor="middle" x="700.33" y="-12.95" font-family="Times New Roman,serif" font-size="14.00">unsigned byte</text>
</g>
<!-- 17&#45;&gt;18 -->
<g id="edge18" class="edge">
<title>17&#45;&gt;18</title>
<path fill="none" stroke="black" d="M392.71,-21.23C459.82,-20.53 558.98,-19.48 626.22,-18.77"/>
<polygon fill="black" stroke="black" points="626.08,-22.27 636.04,-18.67 626.01,-15.27 626.08,-22.27"/>
</g>
</g>
</svg>
