<?xml version="1.0" encoding="UTF-8" standalone="no"?>
<!DOCTYPE svg PUBLIC "-//W3C//DTD SVG 1.1//EN"
 "http://www.w3.org/Graphics/SVG/1.1/DTD/svg11.dtd">
<!-- Generated by graphviz version 12.2.0 (20241103.1931)
 -->
<!-- Title: MoveActorAbsolutePacket Pages: 1 -->
<svg width="618pt" height="44pt"
 viewBox="0.00 0.00 618.42 44.00" xmlns="http://www.w3.org/2000/svg" xmlns:xlink="http://www.w3.org/1999/xlink">
<g id="graph0" class="graph" transform="scale(1 1) rotate(0) translate(4 40)">
<title>MoveActorAbsolutePacket</title>
<polygon fill="white" stroke="none" points="-4,4 -4,-40 614.42,-40 614.42,4 -4,4"/>
<!-- 0 -->
<!-- name: &quot;MoveActorAbsolutePacket&quot;, typeName: &quot;&quot;, id: 0, branchId: 18, recurseId: &#45;1, attributes: 0, notes: &quot;&quot; -->
<g id="node1" class="node">
<title>0</title>
<ellipse fill="none" stroke="black" cx="111.74" cy="-18" rx="111.74" ry="18"/>
<text text-anchor="middle" x="111.74" y="-12.95" font-family="Times New Roman,serif" font-size="14.00">MoveActorAbsolutePacket</text>
</g>
<!-- 1 -->
<!-- name: &quot;Move Data&quot;, typeName: &quot;MoveActorAbsoluteData&quot;, id: 1, branchId: 0, recurseId: &#45;1, attributes: 256, notes: &quot;This is used in legacy client authoritative movement mode to move a client predicted vehicle that the client is in control of. In any other case this is client bound for normal actor motion updates.&quot; -->
<g id="node2" class="node">
<title>1</title>
<ellipse fill="none" stroke="black" cx="312.38" cy="-18" rx="52.89" ry="18"/>
<text text-anchor="middle" x="312.38" y="-12.95" font-family="Times New Roman,serif" font-size="14.00">Move Data</text>
</g>
<!-- 0&#45;&gt;1 -->
<g id="edge1" class="edge">
<title>0&#45;&gt;1</title>
<path fill="none" stroke="black" d="M223.96,-18C232.09,-18 240.1,-18 247.79,-18"/>
<polygon fill="black" stroke="black" points="247.66,-21.5 257.66,-18 247.66,-14.5 247.66,-21.5"/>
</g>
<!-- 15 -->
<!-- name: &quot;MoveActorAbsoluteData&quot;, typeName: &quot;&quot;, id: 15, branchId: 0, recurseId: &#45;1, attributes: 512, notes: &quot;&quot; -->
<g id="node3" class="node">
<title>15</title>
<ellipse fill="none" stroke="black" cx="505.84" cy="-18" rx="104.58" ry="18"/>
<text text-anchor="middle" x="505.84" y="-12.95" font-family="Times New Roman,serif" font-size="14.00">MoveActorAbsoluteData</text>
</g>
<!-- 1&#45;&gt;15 -->
<g id="edge2" class="edge">
<title>1&#45;&gt;15</title>
<path fill="none" stroke="black" d="M365.7,-18C373.31,-18 381.38,-18 389.66,-18"/>
<polygon fill="black" stroke="black" points="389.54,-21.5 399.54,-18 389.54,-14.5 389.54,-21.5"/>
</g>
</g>
</svg>
