<?xml version="1.0" encoding="UTF-8" standalone="no"?>
<!DOCTYPE svg PUBLIC "-//W3C//DTD SVG 1.1//EN"
 "http://www.w3.org/Graphics/SVG/1.1/DTD/svg11.dtd">
<!-- Generated by graphviz version 2.46.1 (20210213.1702)
 -->
<!-- Title: MoveActorDeltaData Pages: 1 -->
<svg width="543pt" height="422pt"
 viewBox="0.00 0.00 542.76 422.00" xmlns="http://www.w3.org/2000/svg" xmlns:xlink="http://www.w3.org/1999/xlink">
<g id="graph0" class="graph" transform="scale(1 1) rotate(0) translate(4 418)">
<title>MoveActorDeltaData</title>
<polygon fill="white" stroke="transparent" points="-4,4 -4,-418 538.76,-418 538.76,4 -4,4"/>
<!-- 2 -->
<!-- name: &quot;MoveActorDeltaData&quot;, typeName: &quot;&quot;, id: 2, branchId: 0, recurseId: &#45;1, attributes: 0, notes: &quot;&quot; -->
<g id="node1" class="node">
<title>2</title>
<ellipse fill="none" stroke="black" cx="87.74" cy="-207" rx="87.99" ry="18"/>
<text text-anchor="middle" x="87.74" y="-203.3" font-family="Times New Roman,serif" font-size="14.00">MoveActorDeltaData</text>
</g>
<!-- 3 -->
<!-- name: &quot;ActorRuntimeID&quot;, typeName: &quot;ActorRuntimeID&quot;, id: 3, branchId: 0, recurseId: &#45;1, attributes: 256, notes: &quot;The runtime id of the actor being moved&quot; -->
<g id="node2" class="node">
<title>3</title>
<ellipse fill="none" stroke="black" cx="283.63" cy="-396" rx="71.49" ry="18"/>
<text text-anchor="middle" x="283.63" y="-392.3" font-family="Times New Roman,serif" font-size="14.00">ActorRuntimeID</text>
</g>
<!-- 2&#45;&gt;3 -->
<g id="edge1" class="edge">
<title>2&#45;&gt;3</title>
<path fill="none" stroke="black" d="M97.89,-224.96C115.54,-257.94 157.39,-328.51 211.48,-369 216.16,-372.5 221.34,-375.6 226.72,-378.32"/>
<polygon fill="black" stroke="black" points="225.34,-381.54 235.89,-382.57 228.28,-375.19 225.34,-381.54"/>
</g>
<!-- 5 -->
<!-- name: &quot;Header&quot;, typeName: &quot;&quot;, id: 5, branchId: 0, recurseId: &#45;1, attributes: 0, notes: &quot;Header containing 9 1&#45;bit booleans describing the rest of the packet. Information provided in supplemental documentation.&quot; -->
<g id="node4" class="node">
<title>5</title>
<ellipse fill="none" stroke="black" cx="283.63" cy="-342" rx="36.29" ry="18"/>
<text text-anchor="middle" x="283.63" y="-338.3" font-family="Times New Roman,serif" font-size="14.00">Header</text>
</g>
<!-- 2&#45;&gt;5 -->
<g id="edge3" class="edge">
<title>2&#45;&gt;5</title>
<path fill="none" stroke="black" d="M105.05,-224.9C127.2,-248.31 168.94,-289.37 211.48,-315 220.92,-320.68 231.75,-325.53 242.07,-329.48"/>
<polygon fill="black" stroke="black" points="241.15,-332.87 251.75,-332.99 243.54,-326.29 241.15,-332.87"/>
</g>
<!-- 7 -->
<!-- name: &quot;New position X&quot;, typeName: &quot;&quot;, id: 7, branchId: 0, recurseId: &#45;1, attributes: 0, notes: &quot;If position X bit is true, then this will contain the actor&#39;s X coordinate&quot; -->
<g id="node6" class="node">
<title>7</title>
<ellipse fill="none" stroke="black" cx="283.63" cy="-288" rx="67.69" ry="18"/>
<text text-anchor="middle" x="283.63" y="-284.3" font-family="Times New Roman,serif" font-size="14.00">New position X</text>
</g>
<!-- 2&#45;&gt;7 -->
<g id="edge5" class="edge">
<title>2&#45;&gt;7</title>
<path fill="none" stroke="black" d="M124.78,-223.44C149.13,-234.41 182.08,-248.96 211.48,-261 218.71,-263.96 226.38,-266.99 233.92,-269.9"/>
<polygon fill="black" stroke="black" points="232.75,-273.2 243.34,-273.51 235.26,-266.66 232.75,-273.2"/>
</g>
<!-- 9 -->
<!-- name: &quot;New position Y&quot;, typeName: &quot;&quot;, id: 9, branchId: 0, recurseId: &#45;1, attributes: 0, notes: &quot;If position Y bit is true, then this will contain the actor&#39;s Y coordinate&quot; -->
<g id="node8" class="node">
<title>9</title>
<ellipse fill="none" stroke="black" cx="283.63" cy="-234" rx="67.69" ry="18"/>
<text text-anchor="middle" x="283.63" y="-230.3" font-family="Times New Roman,serif" font-size="14.00">New position Y</text>
</g>
<!-- 2&#45;&gt;9 -->
<g id="edge7" class="edge">
<title>2&#45;&gt;9</title>
<path fill="none" stroke="black" d="M160.66,-217.02C177.96,-219.42 196.4,-221.99 213.56,-224.38"/>
<polygon fill="black" stroke="black" points="213.11,-227.85 223.5,-225.77 214.08,-220.92 213.11,-227.85"/>
</g>
<!-- 11 -->
<!-- name: &quot;New position Z&quot;, typeName: &quot;&quot;, id: 11, branchId: 0, recurseId: &#45;1, attributes: 0, notes: &quot;If position Z bit is true, then this will contain the actor&#39;s Z coordinate&quot; -->
<g id="node10" class="node">
<title>11</title>
<ellipse fill="none" stroke="black" cx="283.63" cy="-180" rx="66.89" ry="18"/>
<text text-anchor="middle" x="283.63" y="-176.3" font-family="Times New Roman,serif" font-size="14.00">New position Z</text>
</g>
<!-- 2&#45;&gt;11 -->
<g id="edge9" class="edge">
<title>2&#45;&gt;11</title>
<path fill="none" stroke="black" d="M160.66,-196.98C178.05,-194.56 196.59,-191.98 213.83,-189.58"/>
<polygon fill="black" stroke="black" points="214.39,-193.04 223.81,-188.19 213.42,-186.1 214.39,-193.04"/>
</g>
<!-- 13 -->
<!-- name: &quot;Rotation X&quot;, typeName: &quot;&quot;, id: 13, branchId: 0, recurseId: &#45;1, attributes: 0, notes: &quot;If rotation X bit is true, then this will contain the X rotation of the actor&quot; -->
<g id="node12" class="node">
<title>13</title>
<ellipse fill="none" stroke="black" cx="283.63" cy="-126" rx="50.89" ry="18"/>
<text text-anchor="middle" x="283.63" y="-122.3" font-family="Times New Roman,serif" font-size="14.00">Rotation X</text>
</g>
<!-- 2&#45;&gt;13 -->
<g id="edge11" class="edge">
<title>2&#45;&gt;13</title>
<path fill="none" stroke="black" d="M124.78,-190.56C149.13,-179.59 182.08,-165.04 211.48,-153 220.1,-149.47 229.37,-145.84 238.28,-142.43"/>
<polygon fill="black" stroke="black" points="239.64,-145.65 247.75,-138.83 237.16,-139.11 239.64,-145.65"/>
</g>
<!-- 15 -->
<!-- name: &quot;Rotation Y&quot;, typeName: &quot;&quot;, id: 15, branchId: 0, recurseId: &#45;1, attributes: 0, notes: &quot;If rotation Y bit is true, then this will contain the Y rotation of the actor&quot; -->
<g id="node14" class="node">
<title>15</title>
<ellipse fill="none" stroke="black" cx="283.63" cy="-72" rx="50.89" ry="18"/>
<text text-anchor="middle" x="283.63" y="-68.3" font-family="Times New Roman,serif" font-size="14.00">Rotation Y</text>
</g>
<!-- 2&#45;&gt;15 -->
<g id="edge13" class="edge">
<title>2&#45;&gt;15</title>
<path fill="none" stroke="black" d="M105.05,-189.1C127.2,-165.69 168.94,-124.63 211.48,-99 218.8,-94.59 226.97,-90.69 235.08,-87.31"/>
<polygon fill="black" stroke="black" points="236.5,-90.51 244.53,-83.6 233.94,-84 236.5,-90.51"/>
</g>
<!-- 17 -->
<!-- name: &quot;Rotation Y Head&quot;, typeName: &quot;&quot;, id: 17, branchId: 0, recurseId: &#45;1, attributes: 0, notes: &quot;If rotation Y Head bit is true, then this will contain a head rotation of the actor if and only if it&#39;s a Mob type&quot; -->
<g id="node16" class="node">
<title>17</title>
<ellipse fill="none" stroke="black" cx="283.63" cy="-18" rx="72.29" ry="18"/>
<text text-anchor="middle" x="283.63" y="-14.3" font-family="Times New Roman,serif" font-size="14.00">Rotation Y Head</text>
</g>
<!-- 2&#45;&gt;17 -->
<g id="edge15" class="edge">
<title>2&#45;&gt;17</title>
<path fill="none" stroke="black" d="M97.89,-189.04C115.54,-156.06 157.39,-85.49 211.48,-45 215.98,-41.64 220.94,-38.64 226.09,-35.99"/>
<polygon fill="black" stroke="black" points="227.94,-39 235.51,-31.59 224.97,-32.66 227.94,-39"/>
</g>
<!-- 4 -->
<!-- name: &quot;ActorRuntimeID&quot;, typeName: &quot;&quot;, id: 4, branchId: 0, recurseId: &#45;1, attributes: 512, notes: &quot;&quot; -->
<g id="node3" class="node">
<title>4</title>
<ellipse fill="none" stroke="black" cx="463.27" cy="-396" rx="71.49" ry="18"/>
<text text-anchor="middle" x="463.27" y="-392.3" font-family="Times New Roman,serif" font-size="14.00">ActorRuntimeID</text>
</g>
<!-- 3&#45;&gt;4 -->
<g id="edge2" class="edge">
<title>3&#45;&gt;4</title>
<path fill="none" stroke="black" d="M355.35,-396C363.9,-396 372.69,-396 381.37,-396"/>
<polygon fill="black" stroke="black" points="381.5,-399.5 391.5,-396 381.5,-392.5 381.5,-399.5"/>
</g>
<!-- 6 -->
<!-- name: &quot;unsigned short&quot;, typeName: &quot;&quot;, id: 6, branchId: 0, recurseId: &#45;1, attributes: 512, notes: &quot;&quot; -->
<g id="node5" class="node">
<title>6</title>
<ellipse fill="none" stroke="black" cx="463.27" cy="-342" rx="63.89" ry="18"/>
<text text-anchor="middle" x="463.27" y="-338.3" font-family="Times New Roman,serif" font-size="14.00">unsigned short</text>
</g>
<!-- 5&#45;&gt;6 -->
<g id="edge4" class="edge">
<title>5&#45;&gt;6</title>
<path fill="none" stroke="black" d="M320.15,-342C339.99,-342 365.47,-342 389.36,-342"/>
<polygon fill="black" stroke="black" points="389.48,-345.5 399.48,-342 389.48,-338.5 389.48,-345.5"/>
</g>
<!-- 8 -->
<!-- name: &quot;float&quot;, typeName: &quot;&quot;, id: 8, branchId: 0, recurseId: &#45;1, attributes: 512, notes: &quot;&quot; -->
<g id="node7" class="node">
<title>8</title>
<ellipse fill="none" stroke="black" cx="463.27" cy="-288" rx="27" ry="18"/>
<text text-anchor="middle" x="463.27" y="-284.3" font-family="Times New Roman,serif" font-size="14.00">float</text>
</g>
<!-- 7&#45;&gt;8 -->
<g id="edge6" class="edge">
<title>7&#45;&gt;8</title>
<path fill="none" stroke="black" d="M351.28,-288C376.66,-288 404.62,-288 426.13,-288"/>
<polygon fill="black" stroke="black" points="426.13,-291.5 436.13,-288 426.13,-284.5 426.13,-291.5"/>
</g>
<!-- 10 -->
<!-- name: &quot;float&quot;, typeName: &quot;&quot;, id: 10, branchId: 0, recurseId: &#45;1, attributes: 512, notes: &quot;&quot; -->
<g id="node9" class="node">
<title>10</title>
<ellipse fill="none" stroke="black" cx="463.27" cy="-234" rx="27" ry="18"/>
<text text-anchor="middle" x="463.27" y="-230.3" font-family="Times New Roman,serif" font-size="14.00">float</text>
</g>
<!-- 9&#45;&gt;10 -->
<g id="edge8" class="edge">
<title>9&#45;&gt;10</title>
<path fill="none" stroke="black" d="M351.28,-234C376.66,-234 404.62,-234 426.13,-234"/>
<polygon fill="black" stroke="black" points="426.13,-237.5 436.13,-234 426.13,-230.5 426.13,-237.5"/>
</g>
<!-- 12 -->
<!-- name: &quot;float&quot;, typeName: &quot;&quot;, id: 12, branchId: 0, recurseId: &#45;1, attributes: 512, notes: &quot;&quot; -->
<g id="node11" class="node">
<title>12</title>
<ellipse fill="none" stroke="black" cx="463.27" cy="-180" rx="27" ry="18"/>
<text text-anchor="middle" x="463.27" y="-176.3" font-family="Times New Roman,serif" font-size="14.00">float</text>
</g>
<!-- 11&#45;&gt;12 -->
<g id="edge10" class="edge">
<title>11&#45;&gt;12</title>
<path fill="none" stroke="black" d="M350.77,-180C376.2,-180 404.29,-180 425.92,-180"/>
<polygon fill="black" stroke="black" points="425.97,-183.5 435.97,-180 425.97,-176.5 425.97,-183.5"/>
</g>
<!-- 14 -->
<!-- name: &quot;byte&quot;, typeName: &quot;&quot;, id: 14, branchId: 0, recurseId: &#45;1, attributes: 512, notes: &quot;&quot; -->
<g id="node13" class="node">
<title>14</title>
<ellipse fill="none" stroke="black" cx="463.27" cy="-126" rx="27" ry="18"/>
<text text-anchor="middle" x="463.27" y="-122.3" font-family="Times New Roman,serif" font-size="14.00">byte</text>
</g>
<!-- 13&#45;&gt;14 -->
<g id="edge12" class="edge">
<title>13&#45;&gt;14</title>
<path fill="none" stroke="black" d="M334.58,-126C363.62,-126 399.57,-126 425.92,-126"/>
<polygon fill="black" stroke="black" points="426.22,-129.5 436.22,-126 426.22,-122.5 426.22,-129.5"/>
</g>
<!-- 16 -->
<!-- name: &quot;byte&quot;, typeName: &quot;&quot;, id: 16, branchId: 0, recurseId: &#45;1, attributes: 512, notes: &quot;&quot; -->
<g id="node15" class="node">
<title>16</title>
<ellipse fill="none" stroke="black" cx="463.27" cy="-72" rx="27" ry="18"/>
<text text-anchor="middle" x="463.27" y="-68.3" font-family="Times New Roman,serif" font-size="14.00">byte</text>
</g>
<!-- 15&#45;&gt;16 -->
<g id="edge14" class="edge">
<title>15&#45;&gt;16</title>
<path fill="none" stroke="black" d="M334.58,-72C363.62,-72 399.57,-72 425.92,-72"/>
<polygon fill="black" stroke="black" points="426.22,-75.5 436.22,-72 426.22,-68.5 426.22,-75.5"/>
</g>
<!-- 18 -->
<!-- name: &quot;byte&quot;, typeName: &quot;&quot;, id: 18, branchId: 0, recurseId: &#45;1, attributes: 512, notes: &quot;&quot; -->
<g id="node17" class="node">
<title>18</title>
<ellipse fill="none" stroke="black" cx="463.27" cy="-18" rx="27" ry="18"/>
<text text-anchor="middle" x="463.27" y="-14.3" font-family="Times New Roman,serif" font-size="14.00">byte</text>
</g>
<!-- 17&#45;&gt;18 -->
<g id="edge16" class="edge">
<title>17&#45;&gt;18</title>
<path fill="none" stroke="black" d="M355.86,-18C380.02,-18 406,-18 426.23,-18"/>
<polygon fill="black" stroke="black" points="426.25,-21.5 436.25,-18 426.25,-14.5 426.25,-21.5"/>
</g>
</g>
</svg>
