<?xml version="1.0" encoding="UTF-8" standalone="no"?>
<!DOCTYPE svg PUBLIC "-//W3C//DTD SVG 1.1//EN"
 "http://www.w3.org/Graphics/SVG/1.1/DTD/svg11.dtd">
<!-- Generated by graphviz version 12.2.1 (20241206.2353)
 -->
<!-- Title: MoveActorDeltaData Pages: 1 -->
<svg width="558pt" height="422pt"
 viewBox="0.00 0.00 558.03 422.00" xmlns="http://www.w3.org/2000/svg" xmlns:xlink="http://www.w3.org/1999/xlink">
<g id="graph0" class="graph" transform="scale(1 1) rotate(0) translate(4 418)">
<title>MoveActorDeltaData</title>
<polygon fill="white" stroke="none" points="-4,4 -4,-418 554.03,-418 554.03,4 -4,4"/>
<!-- 2 -->
<!-- name: &quot;MoveActorDeltaData&quot;, typeName: &quot;&quot;, id: 2, branchId: 0, recurseId: &#45;1, attributes: 0, notes: &quot;&quot; -->
<g id="node1" class="node">
<title>2</title>
<ellipse fill="none" stroke="black" cx="91.27" cy="-207" rx="91.27" ry="18"/>
<text text-anchor="middle" x="91.27" y="-201.95" font-family="Times New Roman,serif" font-size="14.00">MoveActorDeltaData</text>
</g>
<!-- 3 -->
<!-- name: &quot;ActorRuntimeID&quot;, typeName: &quot;ActorRuntimeID&quot;, id: 3, branchId: 0, recurseId: &#45;1, attributes: 256, notes: &quot;The runtime id of the actor being moved&quot; -->
<g id="node2" class="node">
<title>3</title>
<ellipse fill="none" stroke="black" cx="292.42" cy="-396" rx="73.87" ry="18"/>
<text text-anchor="middle" x="292.42" y="-390.95" font-family="Times New Roman,serif" font-size="14.00">ActorRuntimeID</text>
</g>
<!-- 2&#45;&gt;3 -->
<g id="edge1" class="edge">
<title>2&#45;&gt;3</title>
<path fill="none" stroke="black" d="M101.93,-225.25C120.34,-258.4 163.58,-328.78 218.54,-369 222.88,-372.17 227.62,-375.01 232.55,-377.54"/>
<polygon fill="black" stroke="black" points="230.92,-380.64 241.46,-381.67 233.86,-374.29 230.92,-380.64"/>
</g>
<!-- 5 -->
<!-- name: &quot;Header&quot;, typeName: &quot;&quot;, id: 5, branchId: 0, recurseId: &#45;1, attributes: 0, notes: &quot;Header containing 9 1&#45;bit booleans describing the rest of the packet. Information provided in supplemental documentation.&quot; -->
<g id="node4" class="node">
<title>5</title>
<ellipse fill="none" stroke="black" cx="292.42" cy="-342" rx="37.53" ry="18"/>
<text text-anchor="middle" x="292.42" y="-336.95" font-family="Times New Roman,serif" font-size="14.00">Header</text>
</g>
<!-- 2&#45;&gt;5 -->
<g id="edge3" class="edge">
<title>2&#45;&gt;5</title>
<path fill="none" stroke="black" d="M109.12,-224.91C131.99,-248.35 175.02,-289.43 218.54,-315 227.86,-320.47 238.47,-325.16 248.66,-329.02"/>
<polygon fill="black" stroke="black" points="247.45,-332.31 258.04,-332.38 249.81,-325.71 247.45,-332.31"/>
</g>
<!-- 7 -->
<!-- name: &quot;New position X&quot;, typeName: &quot;&quot;, id: 7, branchId: 0, recurseId: &#45;1, attributes: 0, notes: &quot;If position X bit is true, then this will contain the actor&#39;s X coordinate&quot; -->
<g id="node6" class="node">
<title>7</title>
<ellipse fill="none" stroke="black" cx="292.42" cy="-288" rx="69.78" ry="18"/>
<text text-anchor="middle" x="292.42" y="-282.95" font-family="Times New Roman,serif" font-size="14.00">New position X</text>
</g>
<!-- 2&#45;&gt;7 -->
<g id="edge5" class="edge">
<title>2&#45;&gt;7</title>
<path fill="none" stroke="black" d="M129.92,-223.68C154.92,-234.61 188.54,-249.03 218.54,-261 225.37,-263.72 232.59,-266.51 239.72,-269.21"/>
<polygon fill="black" stroke="black" points="238.42,-272.45 249.01,-272.68 240.87,-265.9 238.42,-272.45"/>
</g>
<!-- 9 -->
<!-- name: &quot;New position Y&quot;, typeName: &quot;&quot;, id: 9, branchId: 0, recurseId: &#45;1, attributes: 0, notes: &quot;If position Y bit is true, then this will contain the actor&#39;s Y coordinate&quot; -->
<g id="node8" class="node">
<title>9</title>
<ellipse fill="none" stroke="black" cx="292.42" cy="-234" rx="69.26" ry="18"/>
<text text-anchor="middle" x="292.42" y="-228.95" font-family="Times New Roman,serif" font-size="14.00">New position Y</text>
</g>
<!-- 2&#45;&gt;9 -->
<g id="edge7" class="edge">
<title>2&#45;&gt;9</title>
<path fill="none" stroke="black" d="M167.56,-217.21C184.38,-219.49 202.19,-221.9 218.9,-224.17"/>
<polygon fill="black" stroke="black" points="218.39,-227.63 228.77,-225.51 219.33,-220.69 218.39,-227.63"/>
</g>
<!-- 11 -->
<!-- name: &quot;New position Z&quot;, typeName: &quot;&quot;, id: 11, branchId: 0, recurseId: &#45;1, attributes: 0, notes: &quot;If position Z bit is true, then this will contain the actor&#39;s Z coordinate&quot; -->
<g id="node10" class="node">
<title>11</title>
<ellipse fill="none" stroke="black" cx="292.42" cy="-180" rx="68.75" ry="18"/>
<text text-anchor="middle" x="292.42" y="-174.95" font-family="Times New Roman,serif" font-size="14.00">New position Z</text>
</g>
<!-- 2&#45;&gt;11 -->
<g id="edge9" class="edge">
<title>2&#45;&gt;11</title>
<path fill="none" stroke="black" d="M167.56,-196.79C184.64,-194.48 202.73,-192.02 219.65,-189.73"/>
<polygon fill="black" stroke="black" points="219.65,-193.26 229.09,-188.45 218.71,-186.33 219.65,-193.26"/>
</g>
<!-- 13 -->
<!-- name: &quot;Rotation X&quot;, typeName: &quot;&quot;, id: 13, branchId: 0, recurseId: &#45;1, attributes: 0, notes: &quot;If rotation X bit is true, then this will contain the X rotation of the actor&quot; -->
<g id="node12" class="node">
<title>13</title>
<ellipse fill="none" stroke="black" cx="292.42" cy="-126" rx="51.86" ry="18"/>
<text text-anchor="middle" x="292.42" y="-120.95" font-family="Times New Roman,serif" font-size="14.00">Rotation X</text>
</g>
<!-- 2&#45;&gt;13 -->
<g id="edge11" class="edge">
<title>2&#45;&gt;13</title>
<path fill="none" stroke="black" d="M129.92,-190.32C154.92,-179.39 188.54,-164.97 218.54,-153 226.92,-149.66 235.88,-146.23 244.56,-142.97"/>
<polygon fill="black" stroke="black" points="245.76,-146.26 253.91,-139.5 243.32,-139.7 245.76,-146.26"/>
</g>
<!-- 15 -->
<!-- name: &quot;Rotation Y&quot;, typeName: &quot;&quot;, id: 15, branchId: 0, recurseId: &#45;1, attributes: 0, notes: &quot;If rotation Y bit is true, then this will contain the Y rotation of the actor&quot; -->
<g id="node14" class="node">
<title>15</title>
<ellipse fill="none" stroke="black" cx="292.42" cy="-72" rx="51.35" ry="18"/>
<text text-anchor="middle" x="292.42" y="-66.95" font-family="Times New Roman,serif" font-size="14.00">Rotation Y</text>
</g>
<!-- 2&#45;&gt;15 -->
<g id="edge13" class="edge">
<title>2&#45;&gt;15</title>
<path fill="none" stroke="black" d="M109.12,-189.09C131.99,-165.65 175.02,-124.57 218.54,-99 225.82,-94.72 233.9,-90.92 241.95,-87.62"/>
<polygon fill="black" stroke="black" points="242.96,-90.99 251.03,-84.12 240.44,-84.46 242.96,-90.99"/>
</g>
<!-- 17 -->
<!-- name: &quot;Rotation Y Head&quot;, typeName: &quot;&quot;, id: 17, branchId: 0, recurseId: &#45;1, attributes: 0, notes: &quot;If rotation Y Head bit is true, then this will contain a head rotation of the actor if and only if it&#39;s a Mob type&quot; -->
<g id="node16" class="node">
<title>17</title>
<ellipse fill="none" stroke="black" cx="292.42" cy="-18" rx="73.36" ry="18"/>
<text text-anchor="middle" x="292.42" y="-12.95" font-family="Times New Roman,serif" font-size="14.00">Rotation Y Head</text>
</g>
<!-- 2&#45;&gt;17 -->
<g id="edge15" class="edge">
<title>2&#45;&gt;17</title>
<path fill="none" stroke="black" d="M101.93,-188.75C120.34,-155.6 163.58,-85.22 218.54,-45 222.88,-41.83 227.62,-38.99 232.55,-36.46"/>
<polygon fill="black" stroke="black" points="233.86,-39.71 241.46,-32.33 230.92,-33.36 233.86,-39.71"/>
</g>
<!-- 4 -->
<!-- name: &quot;ActorRuntimeID&quot;, typeName: &quot;&quot;, id: 4, branchId: 0, recurseId: &#45;1, attributes: 512, notes: &quot;&quot; -->
<g id="node3" class="node">
<title>4</title>
<ellipse fill="none" stroke="black" cx="476.16" cy="-396" rx="73.87" ry="18"/>
<text text-anchor="middle" x="476.16" y="-390.95" font-family="Times New Roman,serif" font-size="14.00">ActorRuntimeID</text>
</g>
<!-- 3&#45;&gt;4 -->
<g id="edge2" class="edge">
<title>3&#45;&gt;4</title>
<path fill="none" stroke="black" d="M366.55,-396C374.46,-396 382.56,-396 390.59,-396"/>
<polygon fill="black" stroke="black" points="390.36,-399.5 400.36,-396 390.36,-392.5 390.36,-399.5"/>
</g>
<!-- 6 -->
<!-- name: &quot;unsigned short&quot;, typeName: &quot;&quot;, id: 6, branchId: 0, recurseId: &#45;1, attributes: 512, notes: &quot;&quot; -->
<g id="node5" class="node">
<title>6</title>
<ellipse fill="none" stroke="black" cx="476.16" cy="-342" rx="65.17" ry="18"/>
<text text-anchor="middle" x="476.16" y="-336.95" font-family="Times New Roman,serif" font-size="14.00">unsigned short</text>
</g>
<!-- 5&#45;&gt;6 -->
<g id="edge4" class="edge">
<title>5&#45;&gt;6</title>
<path fill="none" stroke="black" d="M330.19,-342C350.16,-342 375.61,-342 399.59,-342"/>
<polygon fill="black" stroke="black" points="399.33,-345.5 409.33,-342 399.33,-338.5 399.33,-345.5"/>
</g>
<!-- 8 -->
<!-- name: &quot;float&quot;, typeName: &quot;&quot;, id: 8, branchId: 0, recurseId: &#45;1, attributes: 512, notes: &quot;&quot; -->
<g id="node7" class="node">
<title>8</title>
<ellipse fill="none" stroke="black" cx="476.16" cy="-288" rx="27.81" ry="18"/>
<text text-anchor="middle" x="476.16" y="-282.95" font-family="Times New Roman,serif" font-size="14.00">float</text>
</g>
<!-- 7&#45;&gt;8 -->
<g id="edge6" class="edge">
<title>7&#45;&gt;8</title>
<path fill="none" stroke="black" d="M362.64,-288C387.87,-288 415.45,-288 436.99,-288"/>
<polygon fill="black" stroke="black" points="436.77,-291.5 446.77,-288 436.77,-284.5 436.77,-291.5"/>
</g>
<!-- 10 -->
<!-- name: &quot;float&quot;, typeName: &quot;&quot;, id: 10, branchId: 0, recurseId: &#45;1, attributes: 512, notes: &quot;&quot; -->
<g id="node9" class="node">
<title>10</title>
<ellipse fill="none" stroke="black" cx="476.16" cy="-234" rx="27.81" ry="18"/>
<text text-anchor="middle" x="476.16" y="-228.95" font-family="Times New Roman,serif" font-size="14.00">float</text>
</g>
<!-- 9&#45;&gt;10 -->
<g id="edge8" class="edge">
<title>9&#45;&gt;10</title>
<path fill="none" stroke="black" d="M362.12,-234C387.4,-234 415.11,-234 436.77,-234"/>
<polygon fill="black" stroke="black" points="436.61,-237.5 446.61,-234 436.61,-230.5 436.61,-237.5"/>
</g>
<!-- 12 -->
<!-- name: &quot;float&quot;, typeName: &quot;&quot;, id: 12, branchId: 0, recurseId: &#45;1, attributes: 512, notes: &quot;&quot; -->
<g id="node11" class="node">
<title>12</title>
<ellipse fill="none" stroke="black" cx="476.16" cy="-180" rx="27.81" ry="18"/>
<text text-anchor="middle" x="476.16" y="-174.95" font-family="Times New Roman,serif" font-size="14.00">float</text>
</g>
<!-- 11&#45;&gt;12 -->
<g id="edge10" class="edge">
<title>11&#45;&gt;12</title>
<path fill="none" stroke="black" d="M361.61,-180C386.93,-180 414.77,-180 436.54,-180"/>
<polygon fill="black" stroke="black" points="436.45,-183.5 446.45,-180 436.45,-176.5 436.45,-183.5"/>
</g>
<!-- 14 -->
<!-- name: &quot;byte&quot;, typeName: &quot;&quot;, id: 14, branchId: 0, recurseId: &#45;1, attributes: 512, notes: &quot;&quot; -->
<g id="node13" class="node">
<title>14</title>
<ellipse fill="none" stroke="black" cx="476.16" cy="-126" rx="27" ry="18"/>
<text text-anchor="middle" x="476.16" y="-120.95" font-family="Times New Roman,serif" font-size="14.00">byte</text>
</g>
<!-- 13&#45;&gt;14 -->
<g id="edge12" class="edge">
<title>13&#45;&gt;14</title>
<path fill="none" stroke="black" d="M344.52,-126C374.07,-126 410.59,-126 437.5,-126"/>
<polygon fill="black" stroke="black" points="437.25,-129.5 447.25,-126 437.25,-122.5 437.25,-129.5"/>
</g>
<!-- 16 -->
<!-- name: &quot;byte&quot;, typeName: &quot;&quot;, id: 16, branchId: 0, recurseId: &#45;1, attributes: 512, notes: &quot;&quot; -->
<g id="node15" class="node">
<title>16</title>
<ellipse fill="none" stroke="black" cx="476.16" cy="-72" rx="27" ry="18"/>
<text text-anchor="middle" x="476.16" y="-66.95" font-family="Times New Roman,serif" font-size="14.00">byte</text>
</g>
<!-- 15&#45;&gt;16 -->
<g id="edge14" class="edge">
<title>15&#45;&gt;16</title>
<path fill="none" stroke="black" d="M344.04,-72C373.68,-72 410.49,-72 437.55,-72"/>
<polygon fill="black" stroke="black" points="437.36,-75.5 447.36,-72 437.36,-68.5 437.36,-75.5"/>
</g>
<!-- 18 -->
<!-- name: &quot;byte&quot;, typeName: &quot;&quot;, id: 18, branchId: 0, recurseId: &#45;1, attributes: 512, notes: &quot;&quot; -->
<g id="node17" class="node">
<title>18</title>
<ellipse fill="none" stroke="black" cx="476.16" cy="-18" rx="27" ry="18"/>
<text text-anchor="middle" x="476.16" y="-12.95" font-family="Times New Roman,serif" font-size="14.00">byte</text>
</g>
<!-- 17&#45;&gt;18 -->
<g id="edge16" class="edge">
<title>17&#45;&gt;18</title>
<path fill="none" stroke="black" d="M366.03,-18C390.49,-18 416.8,-18 437.45,-18"/>
<polygon fill="black" stroke="black" points="437.39,-21.5 447.39,-18 437.39,-14.5 437.39,-21.5"/>
</g>
</g>
</svg>
