<?xml version="1.0" encoding="UTF-8" standalone="no"?>
<!DOCTYPE svg PUBLIC "-//W3C//DTD SVG 1.1//EN"
 "http://www.w3.org/Graphics/SVG/1.1/DTD/svg11.dtd">
<!-- Generated by graphviz version 2.46.1 (20210213.1702)
 -->
<!-- Title: MoveActorAbsoluteData Pages: 1 -->
<svg width="571pt" height="314pt"
 viewBox="0.00 0.00 571.36 314.00" xmlns="http://www.w3.org/2000/svg" xmlns:xlink="http://www.w3.org/1999/xlink">
<g id="graph0" class="graph" transform="scale(1 1) rotate(0) translate(4 310)">
<title>MoveActorAbsoluteData</title>
<polygon fill="white" stroke="transparent" points="-4,4 -4,-310 567.36,-310 567.36,4 -4,4"/>
<!-- 2 -->
<!-- name: &quot;MoveActorAbsoluteData&quot;, typeName: &quot;&quot;, id: 2, branchId: 0, recurseId: &#45;1, attributes: 0, notes: &quot;&quot; -->
<g id="node1" class="node">
<title>2</title>
<ellipse fill="none" stroke="black" cx="102.04" cy="-153" rx="102.08" ry="18"/>
<text text-anchor="middle" x="102.04" y="-149.3" font-family="Times New Roman,serif" font-size="14.00">MoveActorAbsoluteData</text>
</g>
<!-- 3 -->
<!-- name: &quot;ActorRuntimeID&quot;, typeName: &quot;ActorRuntimeID&quot;, id: 3, branchId: 0, recurseId: &#45;1, attributes: 256, notes: &quot;The runtime id of the actor being moved&quot; -->
<g id="node2" class="node">
<title>3</title>
<ellipse fill="none" stroke="black" cx="312.23" cy="-288" rx="71.49" ry="18"/>
<text text-anchor="middle" x="312.23" y="-284.3" font-family="Times New Roman,serif" font-size="14.00">ActorRuntimeID</text>
</g>
<!-- 2&#45;&gt;3 -->
<g id="edge1" class="edge">
<title>2&#45;&gt;3</title>
<path fill="none" stroke="black" d="M121.66,-170.75C146.85,-194.01 193.95,-234.89 240.08,-261 245.67,-264.16 251.69,-267.09 257.79,-269.77"/>
<polygon fill="black" stroke="black" points="256.8,-273.15 267.38,-273.77 259.49,-266.69 256.8,-273.15"/>
</g>
<!-- 5 -->
<!-- name: &quot;Header&quot;, typeName: &quot;&quot;, id: 5, branchId: 0, recurseId: &#45;1, attributes: 0, notes: &quot;Header bits describing the status of the actor, see additional documentation in the supplemental documentation folder&quot; -->
<g id="node4" class="node">
<title>5</title>
<ellipse fill="none" stroke="black" cx="312.23" cy="-234" rx="36.29" ry="18"/>
<text text-anchor="middle" x="312.23" y="-230.3" font-family="Times New Roman,serif" font-size="14.00">Header</text>
</g>
<!-- 2&#45;&gt;5 -->
<g id="edge3" class="edge">
<title>2&#45;&gt;5</title>
<path fill="none" stroke="black" d="M144.37,-169.44C171.53,-180.21 207.88,-194.55 240.08,-207 250.84,-211.16 262.53,-215.62 273.27,-219.7"/>
<polygon fill="black" stroke="black" points="272.21,-223.04 282.81,-223.31 274.69,-216.49 272.21,-223.04"/>
</g>
<!-- 7 -->
<!-- name: &quot;Position&quot;, typeName: &quot;Vec3&quot;, id: 7, branchId: 0, recurseId: &#45;1, attributes: 256, notes: &quot;X/Y/Z coordinates of the position of the actor, each being a 4 byte float&quot; -->
<g id="node6" class="node">
<title>7</title>
<ellipse fill="none" stroke="black" cx="312.23" cy="-180" rx="40.09" ry="18"/>
<text text-anchor="middle" x="312.23" y="-176.3" font-family="Times New Roman,serif" font-size="14.00">Position</text>
</g>
<!-- 2&#45;&gt;7 -->
<g id="edge5" class="edge">
<title>2&#45;&gt;7</title>
<path fill="none" stroke="black" d="M184.72,-163.59C211.32,-167.04 239.96,-170.76 263.25,-173.78"/>
<polygon fill="black" stroke="black" points="262.85,-177.26 273.22,-175.07 263.75,-170.31 262.85,-177.26"/>
</g>
<!-- 9 -->
<!-- name: &quot;Rotation X&quot;, typeName: &quot;&quot;, id: 9, branchId: 0, recurseId: &#45;1, attributes: 0, notes: &quot;The X rotation of the actor stored as an integer&quot; -->
<g id="node8" class="node">
<title>9</title>
<ellipse fill="none" stroke="black" cx="312.23" cy="-126" rx="50.89" ry="18"/>
<text text-anchor="middle" x="312.23" y="-122.3" font-family="Times New Roman,serif" font-size="14.00">Rotation X</text>
</g>
<!-- 2&#45;&gt;9 -->
<g id="edge7" class="edge">
<title>2&#45;&gt;9</title>
<path fill="none" stroke="black" d="M184.72,-142.41C208.03,-139.38 232.91,-136.16 254.38,-133.37"/>
<polygon fill="black" stroke="black" points="254.84,-136.84 264.31,-132.08 253.94,-129.9 254.84,-136.84"/>
</g>
<!-- 11 -->
<!-- name: &quot;Rotation Y&quot;, typeName: &quot;&quot;, id: 11, branchId: 0, recurseId: &#45;1, attributes: 0, notes: &quot;The Y rotation of the actor stored as an integer&quot; -->
<g id="node10" class="node">
<title>11</title>
<ellipse fill="none" stroke="black" cx="312.23" cy="-72" rx="50.89" ry="18"/>
<text text-anchor="middle" x="312.23" y="-68.3" font-family="Times New Roman,serif" font-size="14.00">Rotation Y</text>
</g>
<!-- 2&#45;&gt;11 -->
<g id="edge9" class="edge">
<title>2&#45;&gt;11</title>
<path fill="none" stroke="black" d="M144.37,-136.56C171.53,-125.79 207.88,-111.45 240.08,-99 248.86,-95.61 258.26,-92.01 267.26,-88.59"/>
<polygon fill="black" stroke="black" points="268.71,-91.78 276.82,-84.96 266.22,-85.24 268.71,-91.78"/>
</g>
<!-- 13 -->
<!-- name: &quot;Rotation Y Head&quot;, typeName: &quot;&quot;, id: 13, branchId: 0, recurseId: &#45;1, attributes: 0, notes: &quot;The head rotation of the actor if and only if it&#39;s a Mob type, stored as an integer&quot; -->
<g id="node12" class="node">
<title>13</title>
<ellipse fill="none" stroke="black" cx="312.23" cy="-18" rx="72.29" ry="18"/>
<text text-anchor="middle" x="312.23" y="-14.3" font-family="Times New Roman,serif" font-size="14.00">Rotation Y Head</text>
</g>
<!-- 2&#45;&gt;13 -->
<g id="edge11" class="edge">
<title>2&#45;&gt;13</title>
<path fill="none" stroke="black" d="M121.66,-135.25C146.85,-111.99 193.95,-71.11 240.08,-45 245.67,-41.84 251.69,-38.91 257.79,-36.23"/>
<polygon fill="black" stroke="black" points="259.49,-39.31 267.38,-32.23 256.8,-32.85 259.49,-39.31"/>
</g>
<!-- 4 -->
<!-- name: &quot;ActorRuntimeID&quot;, typeName: &quot;&quot;, id: 4, branchId: 0, recurseId: &#45;1, attributes: 512, notes: &quot;&quot; -->
<g id="node3" class="node">
<title>4</title>
<ellipse fill="none" stroke="black" cx="491.86" cy="-288" rx="71.49" ry="18"/>
<text text-anchor="middle" x="491.86" y="-284.3" font-family="Times New Roman,serif" font-size="14.00">ActorRuntimeID</text>
</g>
<!-- 3&#45;&gt;4 -->
<g id="edge2" class="edge">
<title>3&#45;&gt;4</title>
<path fill="none" stroke="black" d="M383.94,-288C392.5,-288 401.28,-288 409.97,-288"/>
<polygon fill="black" stroke="black" points="410.1,-291.5 420.1,-288 410.1,-284.5 410.1,-291.5"/>
</g>
<!-- 6 -->
<!-- name: &quot;byte&quot;, typeName: &quot;&quot;, id: 6, branchId: 0, recurseId: &#45;1, attributes: 512, notes: &quot;&quot; -->
<g id="node5" class="node">
<title>6</title>
<ellipse fill="none" stroke="black" cx="491.86" cy="-234" rx="27" ry="18"/>
<text text-anchor="middle" x="491.86" y="-230.3" font-family="Times New Roman,serif" font-size="14.00">byte</text>
</g>
<!-- 5&#45;&gt;6 -->
<g id="edge4" class="edge">
<title>5&#45;&gt;6</title>
<path fill="none" stroke="black" d="M348.75,-234C379.36,-234 423.38,-234 454.29,-234"/>
<polygon fill="black" stroke="black" points="454.64,-237.5 464.64,-234 454.64,-230.5 454.64,-237.5"/>
</g>
<!-- 8 -->
<!-- name: &quot;Vec3&quot;, typeName: &quot;&quot;, id: 8, branchId: 0, recurseId: &#45;1, attributes: 512, notes: &quot;&quot; -->
<g id="node7" class="node">
<title>8</title>
<ellipse fill="none" stroke="black" cx="491.86" cy="-180" rx="29.8" ry="18"/>
<text text-anchor="middle" x="491.86" y="-176.3" font-family="Times New Roman,serif" font-size="14.00">Vec3</text>
</g>
<!-- 7&#45;&gt;8 -->
<g id="edge6" class="edge">
<title>7&#45;&gt;8</title>
<path fill="none" stroke="black" d="M352.65,-180C382.05,-180 422.05,-180 451.45,-180"/>
<polygon fill="black" stroke="black" points="451.76,-183.5 461.76,-180 451.76,-176.5 451.76,-183.5"/>
</g>
<!-- 10 -->
<!-- name: &quot;byte&quot;, typeName: &quot;&quot;, id: 10, branchId: 0, recurseId: &#45;1, attributes: 512, notes: &quot;&quot; -->
<g id="node9" class="node">
<title>10</title>
<ellipse fill="none" stroke="black" cx="491.86" cy="-126" rx="27" ry="18"/>
<text text-anchor="middle" x="491.86" y="-122.3" font-family="Times New Roman,serif" font-size="14.00">byte</text>
</g>
<!-- 9&#45;&gt;10 -->
<g id="edge8" class="edge">
<title>9&#45;&gt;10</title>
<path fill="none" stroke="black" d="M363.18,-126C392.22,-126 428.17,-126 454.51,-126"/>
<polygon fill="black" stroke="black" points="454.81,-129.5 464.81,-126 454.81,-122.5 454.81,-129.5"/>
</g>
<!-- 12 -->
<!-- name: &quot;byte&quot;, typeName: &quot;&quot;, id: 12, branchId: 0, recurseId: &#45;1, attributes: 512, notes: &quot;&quot; -->
<g id="node11" class="node">
<title>12</title>
<ellipse fill="none" stroke="black" cx="491.86" cy="-72" rx="27" ry="18"/>
<text text-anchor="middle" x="491.86" y="-68.3" font-family="Times New Roman,serif" font-size="14.00">byte</text>
</g>
<!-- 11&#45;&gt;12 -->
<g id="edge10" class="edge">
<title>11&#45;&gt;12</title>
<path fill="none" stroke="black" d="M363.18,-72C392.22,-72 428.17,-72 454.51,-72"/>
<polygon fill="black" stroke="black" points="454.81,-75.5 464.81,-72 454.81,-68.5 454.81,-75.5"/>
</g>
<!-- 14 -->
<!-- name: &quot;byte&quot;, typeName: &quot;&quot;, id: 14, branchId: 0, recurseId: &#45;1, attributes: 512, notes: &quot;&quot; -->
<g id="node13" class="node">
<title>14</title>
<ellipse fill="none" stroke="black" cx="491.86" cy="-18" rx="27" ry="18"/>
<text text-anchor="middle" x="491.86" y="-14.3" font-family="Times New Roman,serif" font-size="14.00">byte</text>
</g>
<!-- 13&#45;&gt;14 -->
<g id="edge12" class="edge">
<title>13&#45;&gt;14</title>
<path fill="none" stroke="black" d="M384.45,-18C408.62,-18 434.59,-18 454.83,-18"/>
<polygon fill="black" stroke="black" points="454.85,-21.5 464.85,-18 454.85,-14.5 454.85,-21.5"/>
</g>
</g>
</svg>
