<?xml version="1.0" encoding="UTF-8" standalone="no"?>
<!DOCTYPE svg PUBLIC "-//W3C//DTD SVG 1.1//EN"
 "http://www.w3.org/Graphics/SVG/1.1/DTD/svg11.dtd">
<!-- Generated by graphviz version 13.1.2 (20250808.2320)
 -->
<!-- Title: MoveActorAbsolutePacket Pages: 1 -->
<svg width="942pt" height="422pt"
 viewBox="0.00 0.00 942.00 422.00" xmlns="http://www.w3.org/2000/svg" xmlns:xlink="http://www.w3.org/1999/xlink">
<g id="graph0" class="graph" transform="scale(1 1) rotate(0) translate(4 418)">
<title>MoveActorAbsolutePacket</title>
<polygon fill="white" stroke="none" points="-4,4 -4,-418 937.89,-418 937.89,4 -4,4"/>
<!-- 0 -->
<!-- name: &quot;MoveActorAbsolutePacket&quot;, typeName: &quot;&quot;, id: 0, branchId: 0, recurseId: &#45;1, attributes: 0, notes: &quot;This is used primarily for motion updates of all actors from server to client.&quot; -->
<g id="node1" class="node">
<title>0</title>
<ellipse fill="none" stroke="black" cx="111.74" cy="-165" rx="111.74" ry="18"/>
<text xml:space="preserve" text-anchor="middle" x="111.74" y="-159.95" font-family="Times New Roman,serif" font-size="14.00">MoveActorAbsolutePacket</text>
</g>
<!-- 1 -->
<!-- name: &quot;Move Data&quot;, typeName: &quot;&quot;, id: 1, branchId: 0, recurseId: &#45;1, attributes: 0, notes: &quot;This is client bound for normal actor motion updates.&quot; -->
<g id="node2" class="node">
<title>1</title>
<ellipse fill="none" stroke="black" cx="312.38" cy="-165" rx="52.89" ry="18"/>
<text xml:space="preserve" text-anchor="middle" x="312.38" y="-159.95" font-family="Times New Roman,serif" font-size="14.00">Move Data</text>
</g>
<!-- 0&#45;&gt;1 -->
<g id="edge1" class="edge">
<title>0&#45;&gt;1</title>
<path fill="none" stroke="black" d="M223.96,-165C232.09,-165 240.1,-165 247.79,-165"/>
<polygon fill="black" stroke="black" points="247.66,-168.5 257.66,-165 247.66,-161.5 247.66,-168.5"/>
</g>
<!-- 2 -->
<!-- name: &quot;ActorRuntimeID&quot;, typeName: &quot;&quot;, id: 2, branchId: 0, recurseId: &#45;1, attributes: 0, notes: &quot;The runtime id of the actor being moved&quot; -->
<g id="node3" class="node">
<title>2</title>
<ellipse fill="none" stroke="black" cx="475.13" cy="-375" rx="73.87" ry="18"/>
<text xml:space="preserve" text-anchor="middle" x="475.13" y="-369.95" font-family="Times New Roman,serif" font-size="14.00">ActorRuntimeID</text>
</g>
<!-- 1&#45;&gt;2 -->
<g id="edge2" class="edge">
<title>1&#45;&gt;2</title>
<path fill="none" stroke="black" d="M320.36,-183.21C332.98,-214.41 361.94,-279 401.26,-323 411.07,-333.97 423.59,-343.94 435.48,-352.15"/>
<polygon fill="black" stroke="black" points="433.28,-354.89 443.55,-357.5 437.15,-349.06 433.28,-354.89"/>
</g>
<!-- 5 -->
<!-- name: &quot;Header&quot;, typeName: &quot;&quot;, id: 5, branchId: 0, recurseId: &#45;1, attributes: 0, notes: &quot;Header bits describing the status of the actor, see additional documentation in the supplemental documentation folder&quot; -->
<g id="node6" class="node">
<title>5</title>
<ellipse fill="none" stroke="black" cx="475.13" cy="-296" rx="37.53" ry="18"/>
<text xml:space="preserve" text-anchor="middle" x="475.13" y="-290.95" font-family="Times New Roman,serif" font-size="14.00">Header</text>
</g>
<!-- 1&#45;&gt;5 -->
<g id="edge5" class="edge">
<title>1&#45;&gt;5</title>
<path fill="none" stroke="black" d="M334.06,-181.86C362.62,-205.13 414.21,-247.17 446.18,-273.22"/>
<polygon fill="black" stroke="black" points="443.89,-275.87 453.86,-279.47 448.31,-270.44 443.89,-275.87"/>
</g>
<!-- 7 -->
<!-- name: &quot;Position&quot;, typeName: &quot;&quot;, id: 7, branchId: 0, recurseId: &#45;1, attributes: 0, notes: &quot;X/Y/Z coordinates of the position of the actor, each being a 4 byte float&quot; -->
<g id="node8" class="node">
<title>7</title>
<ellipse fill="none" stroke="black" cx="475.13" cy="-192" rx="41.12" ry="18"/>
<text xml:space="preserve" text-anchor="middle" x="475.13" y="-186.95" font-family="Times New Roman,serif" font-size="14.00">Position</text>
</g>
<!-- 1&#45;&gt;7 -->
<g id="edge7" class="edge">
<title>1&#45;&gt;7</title>
<path fill="none" stroke="black" d="M360.31,-172.88C380.72,-176.31 404.63,-180.33 425.25,-183.79"/>
<polygon fill="black" stroke="black" points="424.39,-187.19 434.83,-185.4 425.55,-180.29 424.39,-187.19"/>
</g>
<!-- 14 -->
<!-- name: &quot;Rotation X&quot;, typeName: &quot;&quot;, id: 14, branchId: 0, recurseId: &#45;1, attributes: 0, notes: &quot;The X rotation of the actor stored as an integer&quot; -->
<g id="node15" class="node">
<title>14</title>
<ellipse fill="none" stroke="black" cx="475.13" cy="-138" rx="51.86" ry="18"/>
<text xml:space="preserve" text-anchor="middle" x="475.13" y="-132.95" font-family="Times New Roman,serif" font-size="14.00">Rotation X</text>
</g>
<!-- 1&#45;&gt;14 -->
<g id="edge14" class="edge">
<title>1&#45;&gt;14</title>
<path fill="none" stroke="black" d="M360.31,-157.12C377.88,-154.17 398.05,-150.78 416.49,-147.68"/>
<polygon fill="black" stroke="black" points="416.93,-151.16 426.21,-146.05 415.77,-144.25 416.93,-151.16"/>
</g>
<!-- 16 -->
<!-- name: &quot;Rotation Y&quot;, typeName: &quot;&quot;, id: 16, branchId: 0, recurseId: &#45;1, attributes: 0, notes: &quot;The Y rotation of the actor stored as an integer&quot; -->
<g id="node17" class="node">
<title>16</title>
<ellipse fill="none" stroke="black" cx="663.99" cy="-76" rx="51.35" ry="18"/>
<text xml:space="preserve" text-anchor="middle" x="663.99" y="-70.95" font-family="Times New Roman,serif" font-size="14.00">Rotation Y</text>
</g>
<!-- 1&#45;&gt;16 -->
<g id="edge16" class="edge">
<title>1&#45;&gt;16</title>
<path fill="none" stroke="black" d="M334.82,-148.26C351.85,-135.87 376.8,-119.71 401.26,-111 466.85,-87.66 546.72,-79.69 600.85,-77.07"/>
<polygon fill="black" stroke="black" points="600.99,-80.57 610.83,-76.65 600.69,-73.58 600.99,-80.57"/>
</g>
<!-- 18 -->
<!-- name: &quot;Rotation Y Head&quot;, typeName: &quot;&quot;, id: 18, branchId: 0, recurseId: &#45;1, attributes: 0, notes: &quot;The head rotation of the actor if and only if it&#39;s a Mob type, stored as an integer&quot; -->
<g id="node19" class="node">
<title>18</title>
<ellipse fill="none" stroke="black" cx="475.13" cy="-22" rx="73.36" ry="18"/>
<text xml:space="preserve" text-anchor="middle" x="475.13" y="-16.95" font-family="Times New Roman,serif" font-size="14.00">Rotation Y Head</text>
</g>
<!-- 1&#45;&gt;18 -->
<g id="edge18" class="edge">
<title>1&#45;&gt;18</title>
<path fill="none" stroke="black" d="M325.43,-147.25C341.01,-125.25 369.91,-87.52 401.26,-62 409.74,-55.1 419.57,-48.79 429.22,-43.31"/>
<polygon fill="black" stroke="black" points="430.7,-46.49 437.81,-38.64 427.36,-40.34 430.7,-46.49"/>
</g>
<!-- 3 -->
<!-- name: &quot;Actor Runtime ID&quot;, typeName: &quot;&quot;, id: 3, branchId: 0, recurseId: &#45;1, attributes: 0, notes: &quot;&quot; -->
<g id="node4" class="node">
<title>3</title>
<ellipse fill="none" stroke="black" cx="663.99" cy="-392" rx="78.99" ry="18"/>
<text xml:space="preserve" text-anchor="middle" x="663.99" y="-386.95" font-family="Times New Roman,serif" font-size="14.00">Actor Runtime ID</text>
</g>
<!-- 2&#45;&gt;3 -->
<g id="edge3" class="edge">
<title>2&#45;&gt;3</title>
<path fill="none" stroke="black" d="M544.92,-381.26C555.92,-382.26 567.42,-383.3 578.73,-384.33"/>
<polygon fill="black" stroke="black" points="578.18,-387.8 588.46,-385.22 578.81,-380.83 578.18,-387.8"/>
</g>
<!-- 4 -->
<!-- name: &quot;unsigned varint64&quot;, typeName: &quot;&quot;, id: 4, branchId: 0, recurseId: &#45;1, attributes: 512, notes: &quot;&quot; -->
<g id="node5" class="node">
<title>4</title>
<ellipse fill="none" stroke="black" cx="856.44" cy="-396" rx="77.45" ry="18"/>
<text xml:space="preserve" text-anchor="middle" x="856.44" y="-390.95" font-family="Times New Roman,serif" font-size="14.00">unsigned varint64</text>
</g>
<!-- 3&#45;&gt;4 -->
<g id="edge4" class="edge">
<title>3&#45;&gt;4</title>
<path fill="none" stroke="black" d="M743,-393.64C751.03,-393.81 759.23,-393.98 767.36,-394.15"/>
<polygon fill="black" stroke="black" points="767.19,-397.65 777.27,-394.36 767.34,-390.65 767.19,-397.65"/>
</g>
<!-- 6 -->
<!-- name: &quot;unsigned byte&quot;, typeName: &quot;&quot;, id: 6, branchId: 0, recurseId: &#45;1, attributes: 512, notes: &quot;Header bits describing the status of the actor, see additional documentation in the supplemental documentation folder&quot; -->
<g id="node7" class="node">
<title>6</title>
<ellipse fill="none" stroke="black" cx="856.44" cy="-342" rx="62.61" ry="18"/>
<text xml:space="preserve" text-anchor="middle" x="856.44" y="-336.95" font-family="Times New Roman,serif" font-size="14.00">unsigned byte</text>
</g>
<!-- 5&#45;&gt;6 -->
<g id="edge6" class="edge">
<title>5&#45;&gt;6</title>
<path fill="none" stroke="black" d="M510.36,-302.64C531.75,-306.62 559.91,-311.56 585.01,-315 652.43,-324.24 729.73,-331.64 784.37,-336.34"/>
<polygon fill="black" stroke="black" points="783.9,-339.81 794.16,-337.17 784.5,-332.84 783.9,-339.81"/>
</g>
<!-- 8 -->
<!-- name: &quot;X&quot;, typeName: &quot;&quot;, id: 8, branchId: 0, recurseId: &#45;1, attributes: 0, notes: &quot;&quot; -->
<g id="node9" class="node">
<title>8</title>
<ellipse fill="none" stroke="black" cx="663.99" cy="-288" rx="27" ry="18"/>
<text xml:space="preserve" text-anchor="middle" x="663.99" y="-282.95" font-family="Times New Roman,serif" font-size="14.00">X</text>
</g>
<!-- 7&#45;&gt;8 -->
<g id="edge8" class="edge">
<title>7&#45;&gt;8</title>
<path fill="none" stroke="black" d="M497.38,-207.56C518.72,-222.68 552.95,-245.55 585.01,-261 598.52,-267.51 614.02,-273.21 627.63,-277.68"/>
<polygon fill="black" stroke="black" points="626.49,-280.99 637.08,-280.67 628.6,-274.32 626.49,-280.99"/>
</g>
<!-- 10 -->
<!-- name: &quot;Y&quot;, typeName: &quot;&quot;, id: 10, branchId: 0, recurseId: &#45;1, attributes: 0, notes: &quot;&quot; -->
<g id="node11" class="node">
<title>10</title>
<ellipse fill="none" stroke="black" cx="663.99" cy="-234" rx="27" ry="18"/>
<text xml:space="preserve" text-anchor="middle" x="663.99" y="-228.95" font-family="Times New Roman,serif" font-size="14.00">Y</text>
</g>
<!-- 7&#45;&gt;10 -->
<g id="edge10" class="edge">
<title>7&#45;&gt;10</title>
<path fill="none" stroke="black" d="M512.16,-200.1C545.18,-207.52 593.8,-218.45 626.85,-225.88"/>
<polygon fill="black" stroke="black" points="625.84,-229.24 636.37,-228.01 627.38,-222.41 625.84,-229.24"/>
</g>
<!-- 12 -->
<!-- name: &quot;Z&quot;, typeName: &quot;&quot;, id: 12, branchId: 0, recurseId: &#45;1, attributes: 0, notes: &quot;&quot; -->
<g id="node13" class="node">
<title>12</title>
<ellipse fill="none" stroke="black" cx="663.99" cy="-180" rx="27" ry="18"/>
<text xml:space="preserve" text-anchor="middle" x="663.99" y="-174.95" font-family="Times New Roman,serif" font-size="14.00">Z</text>
</g>
<!-- 7&#45;&gt;12 -->
<g id="edge12" class="edge">
<title>7&#45;&gt;12</title>
<path fill="none" stroke="black" d="M516.22,-189.43C548.55,-187.35 593.7,-184.45 625.36,-182.42"/>
<polygon fill="black" stroke="black" points="625.51,-185.91 635.26,-181.78 625.06,-178.93 625.51,-185.91"/>
</g>
<!-- 9 -->
<!-- name: &quot;float&quot;, typeName: &quot;&quot;, id: 9, branchId: 0, recurseId: &#45;1, attributes: 512, notes: &quot;&quot; -->
<g id="node10" class="node">
<title>9</title>
<ellipse fill="none" stroke="black" cx="856.44" cy="-288" rx="27.81" ry="18"/>
<text xml:space="preserve" text-anchor="middle" x="856.44" y="-282.95" font-family="Times New Roman,serif" font-size="14.00">float</text>
</g>
<!-- 8&#45;&gt;9 -->
<g id="edge9" class="edge">
<title>8&#45;&gt;9</title>
<path fill="none" stroke="black" d="M691.47,-288C724.03,-288 779.54,-288 816.84,-288"/>
<polygon fill="black" stroke="black" points="816.75,-291.5 826.75,-288 816.75,-284.5 816.75,-291.5"/>
</g>
<!-- 11 -->
<!-- name: &quot;float&quot;, typeName: &quot;&quot;, id: 11, branchId: 0, recurseId: &#45;1, attributes: 512, notes: &quot;&quot; -->
<g id="node12" class="node">
<title>11</title>
<ellipse fill="none" stroke="black" cx="856.44" cy="-234" rx="27.81" ry="18"/>
<text xml:space="preserve" text-anchor="middle" x="856.44" y="-228.95" font-family="Times New Roman,serif" font-size="14.00">float</text>
</g>
<!-- 10&#45;&gt;11 -->
<g id="edge11" class="edge">
<title>10&#45;&gt;11</title>
<path fill="none" stroke="black" d="M691.47,-234C724.03,-234 779.54,-234 816.84,-234"/>
<polygon fill="black" stroke="black" points="816.75,-237.5 826.75,-234 816.75,-230.5 816.75,-237.5"/>
</g>
<!-- 13 -->
<!-- name: &quot;float&quot;, typeName: &quot;&quot;, id: 13, branchId: 0, recurseId: &#45;1, attributes: 512, notes: &quot;&quot; -->
<g id="node14" class="node">
<title>13</title>
<ellipse fill="none" stroke="black" cx="856.44" cy="-180" rx="27.81" ry="18"/>
<text xml:space="preserve" text-anchor="middle" x="856.44" y="-174.95" font-family="Times New Roman,serif" font-size="14.00">float</text>
</g>
<!-- 12&#45;&gt;13 -->
<g id="edge13" class="edge">
<title>12&#45;&gt;13</title>
<path fill="none" stroke="black" d="M691.47,-180C724.03,-180 779.54,-180 816.84,-180"/>
<polygon fill="black" stroke="black" points="816.75,-183.5 826.75,-180 816.75,-176.5 816.75,-183.5"/>
</g>
<!-- 15 -->
<!-- name: &quot;unsigned byte&quot;, typeName: &quot;&quot;, id: 15, branchId: 0, recurseId: &#45;1, attributes: 512, notes: &quot;The X rotation of the actor stored as an integer&quot; -->
<g id="node16" class="node">
<title>15</title>
<ellipse fill="none" stroke="black" cx="856.44" cy="-126" rx="62.61" ry="18"/>
<text xml:space="preserve" text-anchor="middle" x="856.44" y="-120.95" font-family="Times New Roman,serif" font-size="14.00">unsigned byte</text>
</g>
<!-- 14&#45;&gt;15 -->
<g id="edge15" class="edge">
<title>14&#45;&gt;15</title>
<path fill="none" stroke="black" d="M527.29,-136.38C593.07,-134.3 707.73,-130.67 782.6,-128.3"/>
<polygon fill="black" stroke="black" points="782.41,-131.81 792.29,-128 782.18,-124.82 782.41,-131.81"/>
</g>
<!-- 17 -->
<!-- name: &quot;unsigned byte&quot;, typeName: &quot;&quot;, id: 17, branchId: 0, recurseId: &#45;1, attributes: 512, notes: &quot;The Y rotation of the actor stored as an integer&quot; -->
<g id="node18" class="node">
<title>17</title>
<ellipse fill="none" stroke="black" cx="856.44" cy="-72" rx="62.61" ry="18"/>
<text xml:space="preserve" text-anchor="middle" x="856.44" y="-66.95" font-family="Times New Roman,serif" font-size="14.00">unsigned byte</text>
</g>
<!-- 16&#45;&gt;17 -->
<g id="edge17" class="edge">
<title>16&#45;&gt;17</title>
<path fill="none" stroke="black" d="M715.53,-74.94C735.99,-74.51 760,-74 782.3,-73.54"/>
<polygon fill="black" stroke="black" points="782.35,-77.04 792.27,-73.33 782.2,-70.04 782.35,-77.04"/>
</g>
<!-- 19 -->
<!-- name: &quot;unsigned byte&quot;, typeName: &quot;&quot;, id: 19, branchId: 0, recurseId: &#45;1, attributes: 512, notes: &quot;The head rotation of the actor if and only if it&#39;s a Mob type, stored as an integer&quot; -->
<g id="node20" class="node">
<title>19</title>
<ellipse fill="none" stroke="black" cx="856.44" cy="-18" rx="62.61" ry="18"/>
<text xml:space="preserve" text-anchor="middle" x="856.44" y="-12.95" font-family="Times New Roman,serif" font-size="14.00">unsigned byte</text>
</g>
<!-- 18&#45;&gt;19 -->
<g id="edge19" class="edge">
<title>18&#45;&gt;19</title>
<path fill="none" stroke="black" d="M548.82,-21.23C615.92,-20.53 715.08,-19.48 782.32,-18.77"/>
<polygon fill="black" stroke="black" points="782.18,-22.27 792.15,-18.67 782.11,-15.27 782.18,-22.27"/>
</g>
</g>
</svg>
