<?xml version="1.0" encoding="UTF-8" standalone="no"?>
<!DOCTYPE svg PUBLIC "-//W3C//DTD SVG 1.1//EN"
 "http://www.w3.org/Graphics/SVG/1.1/DTD/svg11.dtd">
<!-- Generated by graphviz version 13.1.2 (20250808.2320)
 -->
<!-- Title: MultiplayerSettingsPacket Pages: 1 -->
<svg width="709pt" height="44pt"
 viewBox="0.00 0.00 709.00 44.00" xmlns="http://www.w3.org/2000/svg" xmlns:xlink="http://www.w3.org/1999/xlink">
<g id="graph0" class="graph" transform="scale(1 1) rotate(0) translate(4 40)">
<title>MultiplayerSettingsPacket</title>
<polygon fill="white" stroke="none" points="-4,4 -4,-40 704.5,-40 704.5,4 -4,4"/>
<!-- 0 -->
<!-- name: &quot;MultiplayerSettingsPacket&quot;, typeName: &quot;&quot;, id: 0, branchId: 0, recurseId: &#45;1, attributes: 0, notes: &quot;Syncs multiplayer settings&quot; -->
<g id="node1" class="node">
<title>0</title>
<ellipse fill="none" stroke="black" cx="109.19" cy="-18" rx="109.19" ry="18"/>
<text xml:space="preserve" text-anchor="middle" x="109.19" y="-12.95" font-family="Times New Roman,serif" font-size="14.00">MultiplayerSettingsPacket</text>
</g>
<!-- 1 -->
<!-- name: &quot;PacketType&quot;, typeName: &quot;&quot;, id: 1, branchId: 0, recurseId: &#45;1, attributes: 0, notes: &quot;&quot; -->
<g id="node2" class="node">
<title>1</title>
<ellipse fill="none" stroke="black" cx="308.28" cy="-18" rx="53.91" ry="18"/>
<text xml:space="preserve" text-anchor="middle" x="308.28" y="-12.95" font-family="Times New Roman,serif" font-size="14.00">PacketType</text>
</g>
<!-- 0&#45;&gt;1 -->
<g id="edge1" class="edge">
<title>0&#45;&gt;1</title>
<path fill="none" stroke="black" d="M218.82,-18C227,-18 235.09,-18 242.85,-18"/>
<polygon fill="black" stroke="black" points="242.84,-21.5 252.84,-18 242.84,-14.5 242.84,-21.5"/>
</g>
<!-- 2 -->
<!-- name: &quot;enum MultiplayerSettingsPacketType&quot;, typeName: &quot;&quot;, id: 2, branchId: 0, recurseId: &#45;1, attributes: 512, notes: &quot;&quot; -->
<g id="node3" class="node">
<title>2</title>
<ellipse fill="none" stroke="black" cx="549.35" cy="-18" rx="151.15" ry="18"/>
<text xml:space="preserve" text-anchor="middle" x="549.35" y="-12.95" font-family="Times New Roman,serif" font-size="14.00">enum MultiplayerSettingsPacketType</text>
</g>
<!-- 1&#45;&gt;2 -->
<g id="edge2" class="edge">
<title>1&#45;&gt;2</title>
<path fill="none" stroke="black" d="M362.64,-18C370.11,-18 378.09,-18 386.38,-18"/>
<polygon fill="black" stroke="black" points="386.35,-21.5 396.35,-18 386.35,-14.5 386.35,-21.5"/>
</g>
</g>
</svg>
