<?xml version="1.0" encoding="UTF-8" standalone="no"?>
<!DOCTYPE svg PUBLIC "-//W3C//DTD SVG 1.1//EN"
 "http://www.w3.org/Graphics/SVG/1.1/DTD/svg11.dtd">
<!-- Generated by graphviz version 11.0.0 (20240428.1522)
 -->
<!-- Title: MultiplayerSettingsPacket Pages: 1 -->
<svg width="415pt" height="44pt"
 viewBox="0.00 0.00 415.33 44.00" xmlns="http://www.w3.org/2000/svg" xmlns:xlink="http://www.w3.org/1999/xlink">
<g id="graph0" class="graph" transform="scale(1 1) rotate(0) translate(4 40)">
<title>MultiplayerSettingsPacket</title>
<polygon fill="white" stroke="none" points="-4,4 -4,-40 411.33,-40 411.33,4 -4,4"/>
<!-- 0 -->
<!-- name: &quot;MultiplayerSettingsPacket&quot;, typeName: &quot;&quot;, id: 0, branchId: 139, recurseId: &#45;1, attributes: 0, notes: &quot;&quot; -->
<g id="node1" class="node">
<title>0</title>
<ellipse fill="none" stroke="black" cx="106.45" cy="-18" rx="106.45" ry="18"/>
<text text-anchor="middle" x="106.45" y="-12.57" font-family="Times New Roman,serif" font-size="14.00">MultiplayerSettingsPacket</text>
</g>
<!-- 1 -->
<!-- name: &quot;Type&quot;, typeName: &quot;&quot;, id: 1, branchId: 0, recurseId: &#45;1, attributes: 0, notes: &quot;&quot; -->
<g id="node2" class="node">
<title>1</title>
<ellipse fill="none" stroke="black" cx="279.01" cy="-18" rx="30.11" ry="18"/>
<text text-anchor="middle" x="279.01" y="-12.57" font-family="Times New Roman,serif" font-size="14.00">Type</text>
</g>
<!-- 0&#45;&gt;1 -->
<g id="edge1" class="edge">
<title>0&#45;&gt;1</title>
<path fill="none" stroke="black" d="M213.04,-18C221.54,-18 229.75,-18 237.31,-18"/>
<polygon fill="black" stroke="black" points="237.09,-21.5 247.09,-18 237.09,-14.5 237.09,-21.5"/>
</g>
<!-- 2 -->
<!-- name: &quot;varint&quot;, typeName: &quot;&quot;, id: 2, branchId: 0, recurseId: &#45;1, attributes: 512, notes: &quot;&quot; -->
<g id="node3" class="node">
<title>2</title>
<ellipse fill="none" stroke="black" cx="376.22" cy="-18" rx="31.1" ry="18"/>
<text text-anchor="middle" x="376.22" y="-12.57" font-family="Times New Roman,serif" font-size="14.00">varint</text>
</g>
<!-- 1&#45;&gt;2 -->
<g id="edge2" class="edge">
<title>1&#45;&gt;2</title>
<path fill="none" stroke="black" d="M309.61,-18C317.1,-18 325.27,-18 333.24,-18"/>
<polygon fill="black" stroke="black" points="333.14,-21.5 343.14,-18 333.14,-14.5 333.14,-21.5"/>
</g>
</g>
</svg>
