<?xml version="1.0" encoding="UTF-8" standalone="no"?>
<!DOCTYPE svg PUBLIC "-//W3C//DTD SVG 1.1//EN"
 "http://www.w3.org/Graphics/SVG/1.1/DTD/svg11.dtd">
<!-- Generated by graphviz version 2.46.1 (20210213.1702)
 -->
<!-- Title: NetworkSettingsPacket Pages: 1 -->
<svg width="603pt" height="260pt"
 viewBox="0.00 0.00 602.55 260.00" xmlns="http://www.w3.org/2000/svg" xmlns:xlink="http://www.w3.org/1999/xlink">
<g id="graph0" class="graph" transform="scale(1 1) rotate(0) translate(4 256)">
<title>NetworkSettingsPacket</title>
<polygon fill="white" stroke="transparent" points="-4,4 -4,-256 598.55,-256 598.55,4 -4,4"/>
<!-- 0 -->
<!-- name: &quot;NetworkSettingsPacket&quot;, typeName: &quot;&quot;, id: 0, branchId: 143, recurseId: &#45;1, attributes: 0, notes: &quot;&quot; -->
<g id="node1" class="node">
<title>0</title>
<ellipse fill="none" stroke="black" cx="94.89" cy="-126" rx="94.78" ry="18"/>
<text text-anchor="middle" x="94.89" y="-122.3" font-family="Times New Roman,serif" font-size="14.00">NetworkSettingsPacket</text>
</g>
<!-- 1 -->
<!-- name: &quot;Compression Threshold&quot;, typeName: &quot;&quot;, id: 1, branchId: 0, recurseId: &#45;1, attributes: 0, notes: &quot;Determines the smallest size of raw network payload to compress.
NOTE: 0 is disable compression, 1 is compress everything 1 byte or larger (so everything)&quot; -->
<g id="node2" class="node">
<title>1</title>
<ellipse fill="none" stroke="black" cx="328.47" cy="-234" rx="98.58" ry="18"/>
<text text-anchor="middle" x="328.47" y="-230.3" font-family="Times New Roman,serif" font-size="14.00">Compression Threshold</text>
</g>
<!-- 0&#45;&gt;1 -->
<g id="edge1" class="edge">
<title>0&#45;&gt;1</title>
<path fill="none" stroke="black" d="M119.12,-143.49C144.24,-161.66 186.03,-189.79 225.78,-207 234.84,-210.92 244.59,-214.39 254.36,-217.42"/>
<polygon fill="black" stroke="black" points="253.51,-220.82 264.1,-220.3 255.5,-214.11 253.51,-220.82"/>
</g>
<!-- 3 -->
<!-- name: &quot;CompressionAlgorithm&quot;, typeName: &quot;&quot;, id: 3, branchId: 0, recurseId: &#45;1, attributes: 0, notes: &quot;enumeration: PacketCompressionAlgorithm&quot; -->
<g id="node4" class="node">
<title>3</title>
<ellipse fill="none" stroke="black" cx="328.47" cy="-180" rx="95.58" ry="18"/>
<text text-anchor="middle" x="328.47" y="-176.3" font-family="Times New Roman,serif" font-size="14.00">CompressionAlgorithm</text>
</g>
<!-- 0&#45;&gt;3 -->
<g id="edge3" class="edge">
<title>0&#45;&gt;3</title>
<path fill="none" stroke="black" d="M155.53,-139.91C186.74,-147.18 225.14,-156.14 257.72,-163.74"/>
<polygon fill="black" stroke="black" points="257.1,-167.18 267.64,-166.05 258.69,-160.37 257.1,-167.18"/>
</g>
<!-- 5 -->
<!-- name: &quot;Client Throttle Enabled&quot;, typeName: &quot;&quot;, id: 5, branchId: 0, recurseId: &#45;1, attributes: 0, notes: &quot;&quot; -->
<g id="node6" class="node">
<title>5</title>
<ellipse fill="none" stroke="black" cx="328.47" cy="-126" rx="94.78" ry="18"/>
<text text-anchor="middle" x="328.47" y="-122.3" font-family="Times New Roman,serif" font-size="14.00">Client Throttle Enabled</text>
</g>
<!-- 0&#45;&gt;5 -->
<g id="edge5" class="edge">
<title>0&#45;&gt;5</title>
<path fill="none" stroke="black" d="M190.09,-126C201.01,-126 212.21,-126 223.26,-126"/>
<polygon fill="black" stroke="black" points="223.36,-129.5 233.36,-126 223.36,-122.5 223.36,-129.5"/>
</g>
<!-- 7 -->
<!-- name: &quot;Client Throttle Threshold&quot;, typeName: &quot;&quot;, id: 7, branchId: 0, recurseId: &#45;1, attributes: 0, notes: &quot;&quot; -->
<g id="node8" class="node">
<title>7</title>
<ellipse fill="none" stroke="black" cx="328.47" cy="-72" rx="102.88" ry="18"/>
<text text-anchor="middle" x="328.47" y="-68.3" font-family="Times New Roman,serif" font-size="14.00">Client Throttle Threshold</text>
</g>
<!-- 0&#45;&gt;7 -->
<g id="edge7" class="edge">
<title>0&#45;&gt;7</title>
<path fill="none" stroke="black" d="M155.53,-112.09C186.26,-104.93 223.95,-96.14 256.2,-88.62"/>
<polygon fill="black" stroke="black" points="257.08,-92.01 266.02,-86.33 255.49,-85.19 257.08,-92.01"/>
</g>
<!-- 9 -->
<!-- name: &quot;Client Throttle Scalar&quot;, typeName: &quot;&quot;, id: 9, branchId: 0, recurseId: &#45;1, attributes: 0, notes: &quot;&quot; -->
<g id="node10" class="node">
<title>9</title>
<ellipse fill="none" stroke="black" cx="328.47" cy="-18" rx="87.99" ry="18"/>
<text text-anchor="middle" x="328.47" y="-14.3" font-family="Times New Roman,serif" font-size="14.00">Client Throttle Scalar</text>
</g>
<!-- 0&#45;&gt;9 -->
<g id="edge9" class="edge">
<title>0&#45;&gt;9</title>
<path fill="none" stroke="black" d="M119.12,-108.51C144.24,-90.34 186.03,-62.21 225.78,-45 235.73,-40.69 246.53,-36.93 257.25,-33.7"/>
<polygon fill="black" stroke="black" points="258.41,-37.01 267.05,-30.87 256.47,-30.28 258.41,-37.01"/>
</g>
<!-- 2 -->
<!-- name: &quot;unsigned short&quot;, typeName: &quot;&quot;, id: 2, branchId: 0, recurseId: &#45;1, attributes: 512, notes: &quot;&quot; -->
<g id="node3" class="node">
<title>2</title>
<ellipse fill="none" stroke="black" cx="530.86" cy="-234" rx="63.89" ry="18"/>
<text text-anchor="middle" x="530.86" y="-230.3" font-family="Times New Roman,serif" font-size="14.00">unsigned short</text>
</g>
<!-- 1&#45;&gt;2 -->
<g id="edge2" class="edge">
<title>1&#45;&gt;2</title>
<path fill="none" stroke="black" d="M427.32,-234C437.24,-234 447.19,-234 456.79,-234"/>
<polygon fill="black" stroke="black" points="457.04,-237.5 467.04,-234 457.04,-230.5 457.04,-237.5"/>
</g>
<!-- 4 -->
<!-- name: &quot;unsigned short&quot;, typeName: &quot;&quot;, id: 4, branchId: 0, recurseId: &#45;1, attributes: 512, notes: &quot;&quot; -->
<g id="node5" class="node">
<title>4</title>
<ellipse fill="none" stroke="black" cx="530.86" cy="-180" rx="63.89" ry="18"/>
<text text-anchor="middle" x="530.86" y="-176.3" font-family="Times New Roman,serif" font-size="14.00">unsigned short</text>
</g>
<!-- 3&#45;&gt;4 -->
<g id="edge4" class="edge">
<title>3&#45;&gt;4</title>
<path fill="none" stroke="black" d="M424.09,-180C435.15,-180 446.3,-180 457,-180"/>
<polygon fill="black" stroke="black" points="457.1,-183.5 467.1,-180 457.1,-176.5 457.1,-183.5"/>
</g>
<!-- 6 -->
<!-- name: &quot;bool&quot;, typeName: &quot;&quot;, id: 6, branchId: 0, recurseId: &#45;1, attributes: 512, notes: &quot;&quot; -->
<g id="node7" class="node">
<title>6</title>
<ellipse fill="none" stroke="black" cx="530.86" cy="-126" rx="27.1" ry="18"/>
<text text-anchor="middle" x="530.86" y="-122.3" font-family="Times New Roman,serif" font-size="14.00">bool</text>
</g>
<!-- 5&#45;&gt;6 -->
<g id="edge6" class="edge">
<title>5&#45;&gt;6</title>
<path fill="none" stroke="black" d="M423.51,-126C448.33,-126 473.66,-126 493.37,-126"/>
<polygon fill="black" stroke="black" points="493.42,-129.5 503.42,-126 493.42,-122.5 493.42,-129.5"/>
</g>
<!-- 8 -->
<!-- name: &quot;byte&quot;, typeName: &quot;&quot;, id: 8, branchId: 0, recurseId: &#45;1, attributes: 512, notes: &quot;&quot; -->
<g id="node9" class="node">
<title>8</title>
<ellipse fill="none" stroke="black" cx="530.86" cy="-72" rx="27" ry="18"/>
<text text-anchor="middle" x="530.86" y="-68.3" font-family="Times New Roman,serif" font-size="14.00">byte</text>
</g>
<!-- 7&#45;&gt;8 -->
<g id="edge8" class="edge">
<title>7&#45;&gt;8</title>
<path fill="none" stroke="black" d="M431.43,-72C453.69,-72 475.83,-72 493.46,-72"/>
<polygon fill="black" stroke="black" points="493.81,-75.5 503.81,-72 493.81,-68.5 493.81,-75.5"/>
</g>
<!-- 10 -->
<!-- name: &quot;float&quot;, typeName: &quot;&quot;, id: 10, branchId: 0, recurseId: &#45;1, attributes: 512, notes: &quot;&quot; -->
<g id="node11" class="node">
<title>10</title>
<ellipse fill="none" stroke="black" cx="530.86" cy="-18" rx="27" ry="18"/>
<text text-anchor="middle" x="530.86" y="-14.3" font-family="Times New Roman,serif" font-size="14.00">float</text>
</g>
<!-- 9&#45;&gt;10 -->
<g id="edge10" class="edge">
<title>9&#45;&gt;10</title>
<path fill="none" stroke="black" d="M416.49,-18C443.54,-18 471.89,-18 493.48,-18"/>
<polygon fill="black" stroke="black" points="493.5,-21.5 503.5,-18 493.5,-14.5 493.5,-21.5"/>
</g>
</g>
</svg>
