<?xml version="1.0" encoding="UTF-8" standalone="no"?>
<!DOCTYPE svg PUBLIC "-//W3C//DTD SVG 1.1//EN"
 "http://www.w3.org/Graphics/SVG/1.1/DTD/svg11.dtd">
<!-- Generated by graphviz version 11.0.0 (20240428.1522)
 -->
<!-- Title: NetworkItemInstanceDescriptor Pages: 1 -->
<svg width="993pt" height="314pt"
 viewBox="0.00 0.00 993.05 314.00" xmlns="http://www.w3.org/2000/svg" xmlns:xlink="http://www.w3.org/1999/xlink">
<g id="graph0" class="graph" transform="scale(1 1) rotate(0) translate(4 310)">
<title>NetworkItemInstanceDescriptor</title>
<polygon fill="white" stroke="none" points="-4,4 -4,-310 989.05,-310 989.05,4 -4,4"/>
<!-- 25 -->
<!-- name: &quot;NetworkItemInstanceDescriptor&quot;, typeName: &quot;&quot;, id: 25, branchId: 0, recurseId: &#45;1, attributes: 0, notes: &quot;&quot; -->
<g id="node1" class="node">
<title>25</title>
<ellipse fill="none" stroke="black" cx="129.41" cy="-99" rx="129.41" ry="18"/>
<text text-anchor="middle" x="129.41" y="-93.58" font-family="Times New Roman,serif" font-size="14.00">NetworkItemInstanceDescriptor</text>
</g>
<!-- 26 -->
<!-- name: &quot;Dependency on &#39;Item is valid?&#39;&quot;, typeName: &quot;&quot;, id: 26, branchId: 0, recurseId: &#45;1, attributes: 2, notes: &quot;&quot; -->
<g id="node2" class="node">
<title>26</title>
<polygon fill="none" stroke="black" points="475.81,-117 294.81,-117 294.81,-81 481.81,-81 481.81,-111 475.81,-117"/>
<polyline fill="none" stroke="black" points="475.81,-117 475.81,-111"/>
<polyline fill="none" stroke="black" points="481.81,-111 475.81,-111"/>
<text text-anchor="middle" x="388.31" y="-93.58" font-family="Times New Roman,serif" font-size="14.00">Dependency on &#39;Item is valid?&#39;</text>
</g>
<!-- 25&#45;&gt;26 -->
<g id="edge1" class="edge">
<title>25&#45;&gt;26</title>
<path fill="none" stroke="black" d="M259.24,-99C267.23,-99 275.22,-99 283.08,-99"/>
<polygon fill="black" stroke="black" points="282.98,-102.5 292.98,-99 282.98,-95.5 282.98,-102.5"/>
</g>
<!-- 27 -->
<!-- name: &quot;If False&quot;, typeName: &quot;&quot;, id: 27, branchId: 0, recurseId: &#45;1, attributes: 4, notes: &quot;&quot; -->
<g id="node3" class="node">
<title>27</title>
<polygon fill="none" stroke="black" points="572.39,-171 517.81,-153 572.39,-135 626.96,-153 572.39,-171"/>
<text text-anchor="middle" x="572.39" y="-147.57" font-family="Times New Roman,serif" font-size="14.00">If False</text>
</g>
<!-- 26&#45;&gt;27 -->
<g id="edge2" class="edge">
<title>26&#45;&gt;27</title>
<path fill="none" stroke="black" d="M451.46,-117.43C478.02,-125.31 508.24,-134.27 531.7,-141.23"/>
<polygon fill="black" stroke="black" points="530.59,-144.55 541.18,-144.04 532.58,-137.84 530.59,-144.55"/>
</g>
<!-- 38 -->
<!-- name: &quot;If True&quot;, typeName: &quot;&quot;, id: 38, branchId: 1, recurseId: &#45;1, attributes: 4, notes: &quot;&quot; -->
<g id="node14" class="node">
<title>38</title>
<polygon fill="none" stroke="black" points="572.39,-90 520.64,-72 572.39,-54 624.14,-72 572.39,-90"/>
<text text-anchor="middle" x="572.39" y="-66.58" font-family="Times New Roman,serif" font-size="14.00">If True</text>
</g>
<!-- 26&#45;&gt;38 -->
<g id="edge13" class="edge">
<title>26&#45;&gt;38</title>
<path fill="none" stroke="black" d="M482.22,-85.22C496.58,-83.09 510.88,-80.97 523.69,-79.07"/>
<polygon fill="black" stroke="black" points="524.12,-82.55 533.5,-77.62 523.09,-75.62 524.12,-82.55"/>
</g>
<!-- 28 -->
<!-- name: &quot;Id&quot;, typeName: &quot;&quot;, id: 28, branchId: 0, recurseId: &#45;1, attributes: 0, notes: &quot;&quot; -->
<g id="node4" class="node">
<title>28</title>
<ellipse fill="none" stroke="black" cx="739.47" cy="-288" rx="27" ry="18"/>
<text text-anchor="middle" x="739.47" y="-282.57" font-family="Times New Roman,serif" font-size="14.00">Id</text>
</g>
<!-- 27&#45;&gt;28 -->
<g id="edge3" class="edge">
<title>27&#45;&gt;28</title>
<path fill="none" stroke="black" d="M582.17,-168.1C596.36,-191.23 626.44,-235.43 662.96,-261 674.81,-269.3 689.48,-275.31 702.73,-279.52"/>
<polygon fill="black" stroke="black" points="701.4,-282.78 711.98,-282.22 703.36,-276.06 701.4,-282.78"/>
</g>
<!-- 30 -->
<!-- name: &quot;Stack size&quot;, typeName: &quot;&quot;, id: 30, branchId: 0, recurseId: &#45;1, attributes: 0, notes: &quot;&quot; -->
<g id="node6" class="node">
<title>30</title>
<ellipse fill="none" stroke="black" cx="739.47" cy="-234" rx="48.07" ry="18"/>
<text text-anchor="middle" x="739.47" y="-228.57" font-family="Times New Roman,serif" font-size="14.00">Stack size</text>
</g>
<!-- 27&#45;&gt;30 -->
<g id="edge5" class="edge">
<title>27&#45;&gt;30</title>
<path fill="none" stroke="black" d="M591.32,-165.28C608.99,-177.02 637.04,-194.7 662.96,-207 671.92,-211.25 681.73,-215.22 691.24,-218.75"/>
<polygon fill="black" stroke="black" points="689.75,-221.93 700.35,-222.01 692.11,-215.34 689.75,-221.93"/>
</g>
<!-- 32 -->
<!-- name: &quot;Aux value&quot;, typeName: &quot;&quot;, id: 32, branchId: 0, recurseId: &#45;1, attributes: 0, notes: &quot;&quot; -->
<g id="node8" class="node">
<title>32</title>
<ellipse fill="none" stroke="black" cx="739.47" cy="-180" rx="47.57" ry="18"/>
<text text-anchor="middle" x="739.47" y="-174.57" font-family="Times New Roman,serif" font-size="14.00">Aux value</text>
</g>
<!-- 27&#45;&gt;32 -->
<g id="edge7" class="edge">
<title>27&#45;&gt;32</title>
<path fill="none" stroke="black" d="M610.02,-158.99C631.75,-162.55 659.71,-167.12 683.99,-171.09"/>
<polygon fill="black" stroke="black" points="683.28,-174.52 693.71,-172.68 684.41,-167.61 683.28,-174.52"/>
</g>
<!-- 34 -->
<!-- name: &quot;Block Runtime Id&quot;, typeName: &quot;&quot;, id: 34, branchId: 0, recurseId: &#45;1, attributes: 0, notes: &quot;&quot; -->
<g id="node10" class="node">
<title>34</title>
<ellipse fill="none" stroke="black" cx="739.47" cy="-126" rx="76.51" ry="18"/>
<text text-anchor="middle" x="739.47" y="-120.58" font-family="Times New Roman,serif" font-size="14.00">Block Runtime Id</text>
</g>
<!-- 27&#45;&gt;34 -->
<g id="edge9" class="edge">
<title>27&#45;&gt;34</title>
<path fill="none" stroke="black" d="M610.02,-147.01C626.07,-144.38 645.5,-141.2 664.35,-138.12"/>
<polygon fill="black" stroke="black" points="664.86,-141.59 674.16,-136.52 663.73,-134.68 664.86,-141.59"/>
</g>
<!-- 36 -->
<!-- name: &quot;User Data Buffer&quot;, typeName: &quot;&quot;, id: 36, branchId: 0, recurseId: &#45;1, attributes: 0, notes: &quot;The @ItemInstanceUserData.html#ItemInstanceUserData@ &#160;binary blob encoded as a String, so it&#39;s unsigned varint length prefixed. Get all your nbt+property bytes, calculate the length, write that length, THEN write the data.&quot; -->
<g id="node12" class="node">
<title>36</title>
<ellipse fill="none" stroke="black" cx="739.47" cy="-72" rx="73.52" ry="18"/>
<text text-anchor="middle" x="739.47" y="-66.58" font-family="Times New Roman,serif" font-size="14.00">User Data Buffer</text>
</g>
<!-- 27&#45;&gt;36 -->
<g id="edge11" class="edge">
<title>27&#45;&gt;36</title>
<path fill="none" stroke="black" d="M591.32,-140.72C608.99,-128.98 637.04,-111.3 662.96,-99 669.31,-95.98 676.1,-93.11 682.91,-90.43"/>
<polygon fill="black" stroke="black" points="684.02,-93.75 692.13,-86.94 681.54,-87.21 684.02,-93.75"/>
</g>
<!-- 29 -->
<!-- name: &quot;varint&quot;, typeName: &quot;&quot;, id: 29, branchId: 0, recurseId: &#45;1, attributes: 512, notes: &quot;&quot; -->
<g id="node5" class="node">
<title>29</title>
<ellipse fill="none" stroke="black" cx="918.52" cy="-288" rx="31.1" ry="18"/>
<text text-anchor="middle" x="918.52" y="-282.57" font-family="Times New Roman,serif" font-size="14.00">varint</text>
</g>
<!-- 28&#45;&gt;29 -->
<g id="edge4" class="edge">
<title>28&#45;&gt;29</title>
<path fill="none" stroke="black" d="M766.59,-288C795.33,-288 841.92,-288 875.75,-288"/>
<polygon fill="black" stroke="black" points="875.61,-291.5 885.61,-288 875.61,-284.5 875.61,-291.5"/>
</g>
<!-- 31 -->
<!-- name: &quot;unsigned short&quot;, typeName: &quot;&quot;, id: 31, branchId: 0, recurseId: &#45;1, attributes: 512, notes: &quot;&quot; -->
<g id="node7" class="node">
<title>31</title>
<ellipse fill="none" stroke="black" cx="918.52" cy="-234" rx="65.04" ry="18"/>
<text text-anchor="middle" x="918.52" y="-228.57" font-family="Times New Roman,serif" font-size="14.00">unsigned short</text>
</g>
<!-- 30&#45;&gt;31 -->
<g id="edge6" class="edge">
<title>30&#45;&gt;31</title>
<path fill="none" stroke="black" d="M787.92,-234C804.54,-234 823.65,-234 842,-234"/>
<polygon fill="black" stroke="black" points="841.78,-237.5 851.78,-234 841.78,-230.5 841.78,-237.5"/>
</g>
<!-- 33 -->
<!-- name: &quot;unsigned varint&quot;, typeName: &quot;&quot;, id: 33, branchId: 0, recurseId: &#45;1, attributes: 512, notes: &quot;&quot; -->
<g id="node9" class="node">
<title>33</title>
<ellipse fill="none" stroke="black" cx="918.52" cy="-180" rx="66.53" ry="18"/>
<text text-anchor="middle" x="918.52" y="-174.57" font-family="Times New Roman,serif" font-size="14.00">unsigned varint</text>
</g>
<!-- 32&#45;&gt;33 -->
<g id="edge8" class="edge">
<title>32&#45;&gt;33</title>
<path fill="none" stroke="black" d="M787.45,-180C803.66,-180 822.28,-180 840.26,-180"/>
<polygon fill="black" stroke="black" points="840.14,-183.5 850.14,-180 840.14,-176.5 840.14,-183.5"/>
</g>
<!-- 35 -->
<!-- name: &quot;varint&quot;, typeName: &quot;&quot;, id: 35, branchId: 0, recurseId: &#45;1, attributes: 512, notes: &quot;&quot; -->
<g id="node11" class="node">
<title>35</title>
<ellipse fill="none" stroke="black" cx="918.52" cy="-126" rx="31.1" ry="18"/>
<text text-anchor="middle" x="918.52" y="-120.58" font-family="Times New Roman,serif" font-size="14.00">varint</text>
</g>
<!-- 34&#45;&gt;35 -->
<g id="edge10" class="edge">
<title>34&#45;&gt;35</title>
<path fill="none" stroke="black" d="M816.32,-126C836.71,-126 858,-126 875.77,-126"/>
<polygon fill="black" stroke="black" points="875.66,-129.5 885.66,-126 875.66,-122.5 875.66,-129.5"/>
</g>
<!-- 37 -->
<!-- name: &quot;string&quot;, typeName: &quot;&quot;, id: 37, branchId: 0, recurseId: &#45;1, attributes: 512, notes: &quot;&quot; -->
<g id="node13" class="node">
<title>37</title>
<ellipse fill="none" stroke="black" cx="918.52" cy="-72" rx="31.1" ry="18"/>
<text text-anchor="middle" x="918.52" y="-66.58" font-family="Times New Roman,serif" font-size="14.00">string</text>
</g>
<!-- 36&#45;&gt;37 -->
<g id="edge12" class="edge">
<title>36&#45;&gt;37</title>
<path fill="none" stroke="black" d="M813.25,-72C834.47,-72 856.95,-72 875.57,-72"/>
<polygon fill="black" stroke="black" points="875.4,-75.5 885.4,-72 875.4,-68.5 875.4,-75.5"/>
</g>
<!-- 39 -->
<!-- name: &quot;Id&quot;, typeName: &quot;&quot;, id: 39, branchId: 0, recurseId: &#45;1, attributes: 0, notes: &quot;Send fixed Id of 0 for invalid item&quot; -->
<g id="node15" class="node">
<title>39</title>
<ellipse fill="none" stroke="black" cx="739.47" cy="-18" rx="27" ry="18"/>
<text text-anchor="middle" x="739.47" y="-12.57" font-family="Times New Roman,serif" font-size="14.00">Id</text>
</g>
<!-- 38&#45;&gt;39 -->
<g id="edge14" class="edge">
<title>38&#45;&gt;39</title>
<path fill="none" stroke="black" d="M600.28,-63.2C628.59,-53.94 673.27,-39.33 704.12,-29.24"/>
<polygon fill="black" stroke="black" points="704.95,-32.65 713.37,-26.21 702.77,-25.99 704.95,-32.65"/>
</g>
<!-- 40 -->
<!-- name: &quot;varint&quot;, typeName: &quot;&quot;, id: 40, branchId: 0, recurseId: &#45;1, attributes: 512, notes: &quot;&quot; -->
<g id="node16" class="node">
<title>40</title>
<ellipse fill="none" stroke="black" cx="918.52" cy="-18" rx="31.1" ry="18"/>
<text text-anchor="middle" x="918.52" y="-12.57" font-family="Times New Roman,serif" font-size="14.00">varint</text>
</g>
<!-- 39&#45;&gt;40 -->
<g id="edge15" class="edge">
<title>39&#45;&gt;40</title>
<path fill="none" stroke="black" d="M766.59,-18C795.33,-18 841.92,-18 875.75,-18"/>
<polygon fill="black" stroke="black" points="875.61,-21.5 885.61,-18 875.61,-14.5 875.61,-21.5"/>
</g>
</g>
</svg>
