<?xml version="1.0" encoding="UTF-8" standalone="no"?>
<!DOCTYPE svg PUBLIC "-//W3C//DTD SVG 1.1//EN"
 "http://www.w3.org/Graphics/SVG/1.1/DTD/svg11.dtd">
<!-- Generated by graphviz version 11.0.0 (20240428.1522)
 -->
<!-- Title: NetworkBlockPosition Pages: 1 -->
<svg width="457pt" height="152pt"
 viewBox="0.00 0.00 457.02 152.00" xmlns="http://www.w3.org/2000/svg" xmlns:xlink="http://www.w3.org/1999/xlink">
<g id="graph0" class="graph" transform="scale(1 1) rotate(0) translate(4 148)">
<title>NetworkBlockPosition</title>
<polygon fill="white" stroke="none" points="-4,4 -4,-148 453.02,-148 453.02,4 -4,4"/>
<!-- 44 -->
<!-- name: &quot;NetworkBlockPosition&quot;, typeName: &quot;&quot;, id: 44, branchId: 0, recurseId: &#45;1, attributes: 0, notes: &quot;&quot; -->
<g id="node1" class="node">
<title>44</title>
<ellipse fill="none" stroke="black" cx="94.98" cy="-72" rx="94.98" ry="18"/>
<text text-anchor="middle" x="94.98" y="-66.58" font-family="Times New Roman,serif" font-size="14.00">NetworkBlockPosition</text>
</g>
<!-- 45 -->
<!-- name: &quot;X&quot;, typeName: &quot;&quot;, id: 45, branchId: 0, recurseId: &#45;1, attributes: 0, notes: &quot;&quot; -->
<g id="node2" class="node">
<title>45</title>
<ellipse fill="none" stroke="black" cx="252.95" cy="-126" rx="27" ry="18"/>
<text text-anchor="middle" x="252.95" y="-120.58" font-family="Times New Roman,serif" font-size="14.00">X</text>
</g>
<!-- 44&#45;&gt;45 -->
<g id="edge1" class="edge">
<title>44&#45;&gt;45</title>
<path fill="none" stroke="black" d="M142.35,-88.06C166.52,-96.42 195.55,-106.47 217.67,-114.13"/>
<polygon fill="black" stroke="black" points="216.51,-117.44 227.11,-117.4 218.8,-110.82 216.51,-117.44"/>
</g>
<!-- 47 -->
<!-- name: &quot;Y&quot;, typeName: &quot;&quot;, id: 47, branchId: 0, recurseId: &#45;1, attributes: 0, notes: &quot;&quot; -->
<g id="node4" class="node">
<title>47</title>
<ellipse fill="none" stroke="black" cx="252.95" cy="-72" rx="27" ry="18"/>
<text text-anchor="middle" x="252.95" y="-66.58" font-family="Times New Roman,serif" font-size="14.00">Y</text>
</g>
<!-- 44&#45;&gt;47 -->
<g id="edge3" class="edge">
<title>44&#45;&gt;47</title>
<path fill="none" stroke="black" d="M190.31,-72C198.63,-72 206.69,-72 214.08,-72"/>
<polygon fill="black" stroke="black" points="213.96,-75.5 223.96,-72 213.96,-68.5 213.96,-75.5"/>
</g>
<!-- 49 -->
<!-- name: &quot;Z&quot;, typeName: &quot;&quot;, id: 49, branchId: 0, recurseId: &#45;1, attributes: 0, notes: &quot;&quot; -->
<g id="node6" class="node">
<title>49</title>
<ellipse fill="none" stroke="black" cx="252.95" cy="-18" rx="27" ry="18"/>
<text text-anchor="middle" x="252.95" y="-12.57" font-family="Times New Roman,serif" font-size="14.00">Z</text>
</g>
<!-- 44&#45;&gt;49 -->
<g id="edge5" class="edge">
<title>44&#45;&gt;49</title>
<path fill="none" stroke="black" d="M142.35,-55.94C166.52,-47.58 195.55,-37.53 217.67,-29.87"/>
<polygon fill="black" stroke="black" points="218.8,-33.18 227.11,-26.6 216.51,-26.56 218.8,-33.18"/>
</g>
<!-- 46 -->
<!-- name: &quot;varint&quot;, typeName: &quot;&quot;, id: 46, branchId: 0, recurseId: &#45;1, attributes: 512, notes: &quot;&quot; -->
<g id="node3" class="node">
<title>46</title>
<ellipse fill="none" stroke="black" cx="382.48" cy="-126" rx="31.1" ry="18"/>
<text text-anchor="middle" x="382.48" y="-120.58" font-family="Times New Roman,serif" font-size="14.00">varint</text>
</g>
<!-- 45&#45;&gt;46 -->
<g id="edge2" class="edge">
<title>45&#45;&gt;46</title>
<path fill="none" stroke="black" d="M280.38,-126C297.49,-126 320.16,-126 339.69,-126"/>
<polygon fill="black" stroke="black" points="339.55,-129.5 349.55,-126 339.55,-122.5 339.55,-129.5"/>
</g>
<!-- 48 -->
<!-- name: &quot;unsigned varint&quot;, typeName: &quot;&quot;, id: 48, branchId: 0, recurseId: &#45;1, attributes: 512, notes: &quot;&quot; -->
<g id="node5" class="node">
<title>48</title>
<ellipse fill="none" stroke="black" cx="382.48" cy="-72" rx="66.53" ry="18"/>
<text text-anchor="middle" x="382.48" y="-66.58" font-family="Times New Roman,serif" font-size="14.00">unsigned varint</text>
</g>
<!-- 47&#45;&gt;48 -->
<g id="edge4" class="edge">
<title>47&#45;&gt;48</title>
<path fill="none" stroke="black" d="M280.38,-72C287.58,-72 295.76,-72 304.29,-72"/>
<polygon fill="black" stroke="black" points="304.11,-75.5 314.11,-72 304.11,-68.5 304.11,-75.5"/>
</g>
<!-- 50 -->
<!-- name: &quot;varint&quot;, typeName: &quot;&quot;, id: 50, branchId: 0, recurseId: &#45;1, attributes: 512, notes: &quot;&quot; -->
<g id="node7" class="node">
<title>50</title>
<ellipse fill="none" stroke="black" cx="382.48" cy="-18" rx="31.1" ry="18"/>
<text text-anchor="middle" x="382.48" y="-12.57" font-family="Times New Roman,serif" font-size="14.00">varint</text>
</g>
<!-- 49&#45;&gt;50 -->
<g id="edge6" class="edge">
<title>49&#45;&gt;50</title>
<path fill="none" stroke="black" d="M280.38,-18C297.49,-18 320.16,-18 339.69,-18"/>
<polygon fill="black" stroke="black" points="339.55,-21.5 349.55,-18 339.55,-14.5 339.55,-21.5"/>
</g>
</g>
</svg>
