<?xml version="1.0" encoding="UTF-8" standalone="no"?>
<!DOCTYPE svg PUBLIC "-//W3C//DTD SVG 1.1//EN"
 "http://www.w3.org/Graphics/SVG/1.1/DTD/svg11.dtd">
<!-- Generated by graphviz version 13.1.2 (20250808.2320)
 -->
<!-- Title: NetworkSettingsPacket Pages: 1 -->
<svg width="778pt" height="260pt"
 viewBox="0.00 0.00 778.00 260.00" xmlns="http://www.w3.org/2000/svg" xmlns:xlink="http://www.w3.org/1999/xlink">
<g id="graph0" class="graph" transform="scale(1 1) rotate(0) translate(4 256)">
<title>NetworkSettingsPacket</title>
<polygon fill="white" stroke="none" points="-4,4 -4,-256 774.11,-256 774.11,4 -4,4"/>
<!-- 0 -->
<!-- name: &quot;NetworkSettingsPacket&quot;, typeName: &quot;&quot;, id: 0, branchId: 0, recurseId: &#45;1, attributes: 0, notes: &quot;Sends tunable options from host to client (compression threshold and algorithm)&quot; -->
<g id="node1" class="node">
<title>0</title>
<ellipse fill="none" stroke="black" cx="97.41" cy="-126" rx="97.41" ry="18"/>
<text xml:space="preserve" text-anchor="middle" x="97.41" y="-120.95" font-family="Times New Roman,serif" font-size="14.00">NetworkSettingsPacket</text>
</g>
<!-- 1 -->
<!-- name: &quot;Compression Threshold&quot;, typeName: &quot;&quot;, id: 1, branchId: 0, recurseId: &#45;1, attributes: 0, notes: &quot;Determines the smallest size of raw network payload to compress.
NOTE: 0 is disable compression, 1 is compress everything 1 byte or larger (so everything)&quot; -->
<g id="node2" class="node">
<title>1</title>
<ellipse fill="none" stroke="black" cx="335.41" cy="-234" rx="99.46" ry="18"/>
<text xml:space="preserve" text-anchor="middle" x="335.41" y="-228.95" font-family="Times New Roman,serif" font-size="14.00">Compression Threshold</text>
</g>
<!-- 0&#45;&gt;1 -->
<g id="edge1" class="edge">
<title>0&#45;&gt;1</title>
<path fill="none" stroke="black" d="M122.61,-143.83C148.3,-162.02 190.65,-189.92 230.83,-207 239.56,-210.71 248.92,-214.01 258.32,-216.93"/>
<polygon fill="black" stroke="black" points="257.3,-220.28 267.88,-219.74 259.28,-213.56 257.3,-220.28"/>
</g>
<!-- 3 -->
<!-- name: &quot;CompressionAlgorithm&quot;, typeName: &quot;&quot;, id: 3, branchId: 0, recurseId: &#45;1, attributes: 0, notes: &quot;&quot; -->
<g id="node4" class="node">
<title>3</title>
<ellipse fill="none" stroke="black" cx="335.41" cy="-180" rx="98.95" ry="18"/>
<text xml:space="preserve" text-anchor="middle" x="335.41" y="-174.95" font-family="Times New Roman,serif" font-size="14.00">CompressionAlgorithm</text>
</g>
<!-- 0&#45;&gt;3 -->
<g id="edge3" class="edge">
<title>0&#45;&gt;3</title>
<path fill="none" stroke="black" d="M160.11,-140.12C191.02,-147.19 228.66,-155.8 261.04,-163.21"/>
<polygon fill="black" stroke="black" points="260.25,-166.62 270.78,-165.44 261.81,-159.8 260.25,-166.62"/>
</g>
<!-- 5 -->
<!-- name: &quot;Client Throttle Enabled&quot;, typeName: &quot;&quot;, id: 5, branchId: 0, recurseId: &#45;1, attributes: 0, notes: &quot;&quot; -->
<g id="node6" class="node">
<title>5</title>
<ellipse fill="none" stroke="black" cx="335.41" cy="-126" rx="97.93" ry="18"/>
<text xml:space="preserve" text-anchor="middle" x="335.41" y="-120.95" font-family="Times New Roman,serif" font-size="14.00">Client Throttle Enabled</text>
</g>
<!-- 0&#45;&gt;5 -->
<g id="edge5" class="edge">
<title>0&#45;&gt;5</title>
<path fill="none" stroke="black" d="M195.08,-126C205.16,-126 215.46,-126 225.66,-126"/>
<polygon fill="black" stroke="black" points="225.61,-129.5 235.61,-126 225.61,-122.5 225.61,-129.5"/>
</g>
<!-- 7 -->
<!-- name: &quot;Client Throttle Threshold&quot;, typeName: &quot;&quot;, id: 7, branchId: 0, recurseId: &#45;1, attributes: 0, notes: &quot;&quot; -->
<g id="node8" class="node">
<title>7</title>
<ellipse fill="none" stroke="black" cx="335.41" cy="-72" rx="104.58" ry="18"/>
<text xml:space="preserve" text-anchor="middle" x="335.41" y="-66.95" font-family="Times New Roman,serif" font-size="14.00">Client Throttle Threshold</text>
</g>
<!-- 0&#45;&gt;7 -->
<g id="edge7" class="edge">
<title>0&#45;&gt;7</title>
<path fill="none" stroke="black" d="M160.11,-111.88C190.65,-104.89 227.77,-96.4 259.88,-89.05"/>
<polygon fill="black" stroke="black" points="260.57,-92.49 269.54,-86.84 259.01,-85.66 260.57,-92.49"/>
</g>
<!-- 9 -->
<!-- name: &quot;Client Throttle Scalar&quot;, typeName: &quot;&quot;, id: 9, branchId: 0, recurseId: &#45;1, attributes: 0, notes: &quot;&quot; -->
<g id="node10" class="node">
<title>9</title>
<ellipse fill="none" stroke="black" cx="335.41" cy="-18" rx="90.76" ry="18"/>
<text xml:space="preserve" text-anchor="middle" x="335.41" y="-12.95" font-family="Times New Roman,serif" font-size="14.00">Client Throttle Scalar</text>
</g>
<!-- 0&#45;&gt;9 -->
<g id="edge9" class="edge">
<title>0&#45;&gt;9</title>
<path fill="none" stroke="black" d="M122.61,-108.17C148.3,-89.98 190.65,-62.08 230.83,-45 240.31,-40.97 250.54,-37.42 260.76,-34.33"/>
<polygon fill="black" stroke="black" points="261.7,-37.7 270.34,-31.57 259.77,-30.97 261.7,-37.7"/>
</g>
<!-- 2 -->
<!-- name: &quot;unsigned short&quot;, typeName: &quot;&quot;, id: 2, branchId: 0, recurseId: &#45;1, attributes: 512, notes: &quot;Determines the smallest size of raw network payload to compress.
NOTE: 0 is disable compression, 1 is compress everything 1 byte or larger (so everything)&quot; -->
<g id="node3" class="node">
<title>2</title>
<ellipse fill="none" stroke="black" cx="623.05" cy="-234" rx="65.17" ry="18"/>
<text xml:space="preserve" text-anchor="middle" x="623.05" y="-228.95" font-family="Times New Roman,serif" font-size="14.00">unsigned short</text>
</g>
<!-- 1&#45;&gt;2 -->
<g id="edge2" class="edge">
<title>1&#45;&gt;2</title>
<path fill="none" stroke="black" d="M435.11,-234C471.47,-234 512.07,-234 546.11,-234"/>
<polygon fill="black" stroke="black" points="545.88,-237.5 555.88,-234 545.88,-230.5 545.88,-237.5"/>
</g>
<!-- 4 -->
<!-- name: &quot;enum PacketCompressionAlgorithm&quot;, typeName: &quot;&quot;, id: 4, branchId: 0, recurseId: &#45;1, attributes: 512, notes: &quot;&quot; -->
<g id="node5" class="node">
<title>4</title>
<ellipse fill="none" stroke="black" cx="623.05" cy="-180" rx="147.06" ry="18"/>
<text xml:space="preserve" text-anchor="middle" x="623.05" y="-174.95" font-family="Times New Roman,serif" font-size="14.00">enum PacketCompressionAlgorithm</text>
</g>
<!-- 3&#45;&gt;4 -->
<g id="edge4" class="edge">
<title>3&#45;&gt;4</title>
<path fill="none" stroke="black" d="M434.71,-180C444.32,-180 454.24,-180 464.25,-180"/>
<polygon fill="black" stroke="black" points="464.07,-183.5 474.07,-180 464.07,-176.5 464.07,-183.5"/>
</g>
<!-- 6 -->
<!-- name: &quot;bool&quot;, typeName: &quot;&quot;, id: 6, branchId: 0, recurseId: &#45;1, attributes: 512, notes: &quot;&quot; -->
<g id="node7" class="node">
<title>6</title>
<ellipse fill="none" stroke="black" cx="623.05" cy="-126" rx="27.3" ry="18"/>
<text xml:space="preserve" text-anchor="middle" x="623.05" y="-120.95" font-family="Times New Roman,serif" font-size="14.00">bool</text>
</g>
<!-- 5&#45;&gt;6 -->
<g id="edge6" class="edge">
<title>5&#45;&gt;6</title>
<path fill="none" stroke="black" d="M433.51,-126C485.25,-126 545.94,-126 584.19,-126"/>
<polygon fill="black" stroke="black" points="583.8,-129.5 593.8,-126 583.8,-122.5 583.8,-129.5"/>
</g>
<!-- 8 -->
<!-- name: &quot;unsigned byte&quot;, typeName: &quot;&quot;, id: 8, branchId: 0, recurseId: &#45;1, attributes: 512, notes: &quot;&quot; -->
<g id="node9" class="node">
<title>8</title>
<ellipse fill="none" stroke="black" cx="623.05" cy="-72" rx="62.61" ry="18"/>
<text xml:space="preserve" text-anchor="middle" x="623.05" y="-66.95" font-family="Times New Roman,serif" font-size="14.00">unsigned byte</text>
</g>
<!-- 7&#45;&gt;8 -->
<g id="edge8" class="edge">
<title>7&#45;&gt;8</title>
<path fill="none" stroke="black" d="M440.34,-72C476.3,-72 515.81,-72 548.79,-72"/>
<polygon fill="black" stroke="black" points="548.65,-75.5 558.65,-72 548.65,-68.5 548.65,-75.5"/>
</g>
<!-- 10 -->
<!-- name: &quot;float&quot;, typeName: &quot;&quot;, id: 10, branchId: 0, recurseId: &#45;1, attributes: 512, notes: &quot;&quot; -->
<g id="node11" class="node">
<title>10</title>
<ellipse fill="none" stroke="black" cx="623.05" cy="-18" rx="27.81" ry="18"/>
<text xml:space="preserve" text-anchor="middle" x="623.05" y="-12.95" font-family="Times New Roman,serif" font-size="14.00">float</text>
</g>
<!-- 9&#45;&gt;10 -->
<g id="edge10" class="edge">
<title>9&#45;&gt;10</title>
<path fill="none" stroke="black" d="M426.39,-18C479.27,-18 543.38,-18 583.46,-18"/>
<polygon fill="black" stroke="black" points="583.32,-21.5 593.32,-18 583.32,-14.5 583.32,-21.5"/>
</g>
</g>
</svg>
