<?xml version="1.0" encoding="UTF-8" standalone="no"?>
<!DOCTYPE svg PUBLIC "-//W3C//DTD SVG 1.1//EN"
 "http://www.w3.org/Graphics/SVG/1.1/DTD/svg11.dtd">
<!-- Generated by graphviz version 2.46.1 (20210213.1702)
 -->
<!-- Title: NetworkItemInstanceDescriptor Pages: 1 -->
<svg width="938pt" height="314pt"
 viewBox="0.00 0.00 938.44 314.00" xmlns="http://www.w3.org/2000/svg" xmlns:xlink="http://www.w3.org/1999/xlink">
<g id="graph0" class="graph" transform="scale(1 1) rotate(0) translate(4 310)">
<title>NetworkItemInstanceDescriptor</title>
<polygon fill="white" stroke="transparent" points="-4,4 -4,-310 934.44,-310 934.44,4 -4,4"/>
<!-- 25 -->
<!-- name: &quot;NetworkItemInstanceDescriptor&quot;, typeName: &quot;&quot;, id: 25, branchId: 0, recurseId: &#45;1, attributes: 0, notes: &quot;&quot; -->
<g id="node1" class="node">
<title>25</title>
<ellipse fill="none" stroke="black" cx="126.74" cy="-180" rx="126.98" ry="18"/>
<text text-anchor="middle" x="126.74" y="-176.3" font-family="Times New Roman,serif" font-size="14.00">NetworkItemInstanceDescriptor</text>
</g>
<!-- 26 -->
<!-- name: &quot;Dependency on &#39;Valid item&#39;&quot;, typeName: &quot;&quot;, id: 26, branchId: 0, recurseId: &#45;1, attributes: 2, notes: &quot;&quot; -->
<g id="node2" class="node">
<title>26</title>
<polygon fill="none" stroke="black" points="453.48,-198 289.48,-198 289.48,-162 459.48,-162 459.48,-192 453.48,-198"/>
<polyline fill="none" stroke="black" points="453.48,-198 453.48,-192 "/>
<polyline fill="none" stroke="black" points="459.48,-192 453.48,-192 "/>
<text text-anchor="middle" x="374.48" y="-176.3" font-family="Times New Roman,serif" font-size="14.00">Dependency on &#39;Valid item&#39;</text>
</g>
<!-- 25&#45;&gt;26 -->
<g id="edge1" class="edge">
<title>25&#45;&gt;26</title>
<path fill="none" stroke="black" d="M253.49,-180C262.13,-180 270.76,-180 279.2,-180"/>
<polygon fill="black" stroke="black" points="279.39,-183.5 289.39,-180 279.39,-176.5 279.39,-183.5"/>
</g>
<!-- 27 -->
<!-- name: &quot;if (0)&quot;, typeName: &quot;&quot;, id: 27, branchId: 0, recurseId: &#45;1, attributes: 4, notes: &quot;&quot; -->
<g id="node3" class="node">
<title>27</title>
<polygon fill="none" stroke="black" points="535.92,-265 495.53,-247 535.92,-229 576.31,-247 535.92,-265"/>
<text text-anchor="middle" x="535.92" y="-243.3" font-family="Times New Roman,serif" font-size="14.00">if (0)</text>
</g>
<!-- 26&#45;&gt;27 -->
<g id="edge2" class="edge">
<title>26&#45;&gt;27</title>
<path fill="none" stroke="black" d="M418.63,-198.13C446.02,-209.64 480.78,-224.25 505.13,-234.48"/>
<polygon fill="black" stroke="black" points="503.98,-237.8 514.56,-238.44 506.69,-231.34 503.98,-237.8"/>
</g>
<!-- 30 -->
<!-- name: &quot;if (1)&quot;, typeName: &quot;&quot;, id: 30, branchId: 1, recurseId: &#45;1, attributes: 4, notes: &quot;&quot; -->
<g id="node6" class="node">
<title>30</title>
<polygon fill="none" stroke="black" points="535.92,-171 495.53,-153 535.92,-135 576.31,-153 535.92,-171"/>
<text text-anchor="middle" x="535.92" y="-149.3" font-family="Times New Roman,serif" font-size="14.00">if (1)</text>
</g>
<!-- 26&#45;&gt;30 -->
<g id="edge5" class="edge">
<title>26&#45;&gt;30</title>
<path fill="none" stroke="black" d="M459.87,-165.71C472.55,-163.56 485.07,-161.44 496.14,-159.57"/>
<polygon fill="black" stroke="black" points="497,-162.97 506.28,-157.85 495.83,-156.07 497,-162.97"/>
</g>
<!-- 28 -->
<!-- name: &quot;Id&quot;, typeName: &quot;&quot;, id: 28, branchId: 0, recurseId: &#45;1, attributes: 0, notes: &quot;Send fixed Id of 0 for invalid item&quot; -->
<g id="node4" class="node">
<title>28</title>
<ellipse fill="none" stroke="black" cx="687.76" cy="-288" rx="27" ry="18"/>
<text text-anchor="middle" x="687.76" y="-284.3" font-family="Times New Roman,serif" font-size="14.00">Id</text>
</g>
<!-- 27&#45;&gt;28 -->
<g id="edge3" class="edge">
<title>27&#45;&gt;28</title>
<path fill="none" stroke="black" d="M561.33,-253.68C586.14,-260.47 624.8,-271.05 652.64,-278.66"/>
<polygon fill="black" stroke="black" points="651.79,-282.06 662.36,-281.32 653.64,-275.31 651.79,-282.06"/>
</g>
<!-- 29 -->
<!-- name: &quot;varint&quot;, typeName: &quot;&quot;, id: 29, branchId: 0, recurseId: &#45;1, attributes: 512, notes: &quot;&quot; -->
<g id="node5" class="node">
<title>29</title>
<ellipse fill="none" stroke="black" cx="864.79" cy="-288" rx="30.59" ry="18"/>
<text text-anchor="middle" x="864.79" y="-284.3" font-family="Times New Roman,serif" font-size="14.00">varint</text>
</g>
<!-- 28&#45;&gt;29 -->
<g id="edge4" class="edge">
<title>28&#45;&gt;29</title>
<path fill="none" stroke="black" d="M714.96,-288C743.79,-288 790.46,-288 823.85,-288"/>
<polygon fill="black" stroke="black" points="824.19,-291.5 834.19,-288 824.19,-284.5 824.19,-291.5"/>
</g>
<!-- 31 -->
<!-- name: &quot;Id&quot;, typeName: &quot;&quot;, id: 31, branchId: 0, recurseId: &#45;1, attributes: 0, notes: &quot;&quot; -->
<g id="node7" class="node">
<title>31</title>
<ellipse fill="none" stroke="black" cx="687.76" cy="-234" rx="27" ry="18"/>
<text text-anchor="middle" x="687.76" y="-230.3" font-family="Times New Roman,serif" font-size="14.00">Id</text>
</g>
<!-- 30&#45;&gt;31 -->
<g id="edge6" class="edge">
<title>30&#45;&gt;31</title>
<path fill="none" stroke="black" d="M550.63,-164.58C565.2,-176.45 589.28,-194.84 612.36,-207 625.15,-213.73 639.99,-219.49 653.04,-223.94"/>
<polygon fill="black" stroke="black" points="652.01,-227.29 662.6,-227.08 654.19,-220.64 652.01,-227.29"/>
</g>
<!-- 33 -->
<!-- name: &quot;Stack size&quot;, typeName: &quot;&quot;, id: 33, branchId: 0, recurseId: &#45;1, attributes: 0, notes: &quot;&quot; -->
<g id="node9" class="node">
<title>33</title>
<ellipse fill="none" stroke="black" cx="687.76" cy="-180" rx="47.39" ry="18"/>
<text text-anchor="middle" x="687.76" y="-176.3" font-family="Times New Roman,serif" font-size="14.00">Stack size</text>
</g>
<!-- 30&#45;&gt;33 -->
<g id="edge8" class="edge">
<title>30&#45;&gt;33</title>
<path fill="none" stroke="black" d="M565.1,-158.08C584.6,-161.59 611.12,-166.37 634.43,-170.57"/>
<polygon fill="black" stroke="black" points="634.07,-174.06 644.53,-172.39 635.31,-167.17 634.07,-174.06"/>
</g>
<!-- 35 -->
<!-- name: &quot;Aux value&quot;, typeName: &quot;&quot;, id: 35, branchId: 0, recurseId: &#45;1, attributes: 0, notes: &quot;&quot; -->
<g id="node11" class="node">
<title>35</title>
<ellipse fill="none" stroke="black" cx="687.76" cy="-126" rx="46.59" ry="18"/>
<text text-anchor="middle" x="687.76" y="-122.3" font-family="Times New Roman,serif" font-size="14.00">Aux value</text>
</g>
<!-- 30&#45;&gt;35 -->
<g id="edge10" class="edge">
<title>30&#45;&gt;35</title>
<path fill="none" stroke="black" d="M565.1,-147.92C584.75,-144.38 611.53,-139.56 634.96,-135.33"/>
<polygon fill="black" stroke="black" points="635.89,-138.72 645.11,-133.5 634.65,-131.83 635.89,-138.72"/>
</g>
<!-- 37 -->
<!-- name: &quot;Block Runtime Id&quot;, typeName: &quot;&quot;, id: 37, branchId: 0, recurseId: &#45;1, attributes: 0, notes: &quot;&quot; -->
<g id="node13" class="node">
<title>37</title>
<ellipse fill="none" stroke="black" cx="687.76" cy="-72" rx="75.29" ry="18"/>
<text text-anchor="middle" x="687.76" y="-68.3" font-family="Times New Roman,serif" font-size="14.00">Block Runtime Id</text>
</g>
<!-- 30&#45;&gt;37 -->
<g id="edge12" class="edge">
<title>30&#45;&gt;37</title>
<path fill="none" stroke="black" d="M550.63,-141.42C565.2,-129.55 589.28,-111.16 612.36,-99 618.41,-95.82 624.91,-92.85 631.47,-90.14"/>
<polygon fill="black" stroke="black" points="633.04,-93.28 641.06,-86.35 630.47,-86.77 633.04,-93.28"/>
</g>
<!-- 39 -->
<!-- name: &quot;User Data Buffer&quot;, typeName: &quot;&quot;, id: 39, branchId: 0, recurseId: &#45;1, attributes: 0, notes: &quot;The @ItemInstanceUserData.html#ItemInstanceUserData@ &#160;binary blob encoded as a String, so it&#39;s unsigned varint length prefixed. Get all your nbt+property bytes, calculate the length, write that length, THEN write the data.&quot; -->
<g id="node15" class="node">
<title>39</title>
<ellipse fill="none" stroke="black" cx="687.76" cy="-18" rx="72.29" ry="18"/>
<text text-anchor="middle" x="687.76" y="-14.3" font-family="Times New Roman,serif" font-size="14.00">User Data Buffer</text>
</g>
<!-- 30&#45;&gt;39 -->
<g id="edge14" class="edge">
<title>30&#45;&gt;39</title>
<path fill="none" stroke="black" d="M543.54,-138.26C554.61,-115.21 578.98,-70.62 612.36,-45 617.11,-41.36 622.4,-38.17 627.9,-35.39"/>
<polygon fill="black" stroke="black" points="629.67,-38.43 637.31,-31.09 626.76,-32.06 629.67,-38.43"/>
</g>
<!-- 32 -->
<!-- name: &quot;varint&quot;, typeName: &quot;&quot;, id: 32, branchId: 0, recurseId: &#45;1, attributes: 512, notes: &quot;&quot; -->
<g id="node8" class="node">
<title>32</title>
<ellipse fill="none" stroke="black" cx="864.79" cy="-234" rx="30.59" ry="18"/>
<text text-anchor="middle" x="864.79" y="-230.3" font-family="Times New Roman,serif" font-size="14.00">varint</text>
</g>
<!-- 31&#45;&gt;32 -->
<g id="edge7" class="edge">
<title>31&#45;&gt;32</title>
<path fill="none" stroke="black" d="M714.96,-234C743.79,-234 790.46,-234 823.85,-234"/>
<polygon fill="black" stroke="black" points="824.19,-237.5 834.19,-234 824.19,-230.5 824.19,-237.5"/>
</g>
<!-- 34 -->
<!-- name: &quot;unsigned short&quot;, typeName: &quot;&quot;, id: 34, branchId: 0, recurseId: &#45;1, attributes: 512, notes: &quot;&quot; -->
<g id="node10" class="node">
<title>34</title>
<ellipse fill="none" stroke="black" cx="864.79" cy="-180" rx="63.89" ry="18"/>
<text text-anchor="middle" x="864.79" y="-176.3" font-family="Times New Roman,serif" font-size="14.00">unsigned short</text>
</g>
<!-- 33&#45;&gt;34 -->
<g id="edge9" class="edge">
<title>33&#45;&gt;34</title>
<path fill="none" stroke="black" d="M735.2,-180C752.29,-180 772.07,-180 790.92,-180"/>
<polygon fill="black" stroke="black" points="790.98,-183.5 800.98,-180 790.98,-176.5 790.98,-183.5"/>
</g>
<!-- 36 -->
<!-- name: &quot;unsigned varint&quot;, typeName: &quot;&quot;, id: 36, branchId: 0, recurseId: &#45;1, attributes: 512, notes: &quot;&quot; -->
<g id="node12" class="node">
<title>36</title>
<ellipse fill="none" stroke="black" cx="864.79" cy="-126" rx="65.79" ry="18"/>
<text text-anchor="middle" x="864.79" y="-122.3" font-family="Times New Roman,serif" font-size="14.00">unsigned varint</text>
</g>
<!-- 35&#45;&gt;36 -->
<g id="edge11" class="edge">
<title>35&#45;&gt;36</title>
<path fill="none" stroke="black" d="M734.75,-126C751.33,-126 770.49,-126 788.9,-126"/>
<polygon fill="black" stroke="black" points="789.03,-129.5 799.03,-126 789.03,-122.5 789.03,-129.5"/>
</g>
<!-- 38 -->
<!-- name: &quot;varint&quot;, typeName: &quot;&quot;, id: 38, branchId: 0, recurseId: &#45;1, attributes: 512, notes: &quot;&quot; -->
<g id="node14" class="node">
<title>38</title>
<ellipse fill="none" stroke="black" cx="864.79" cy="-72" rx="30.59" ry="18"/>
<text text-anchor="middle" x="864.79" y="-68.3" font-family="Times New Roman,serif" font-size="14.00">varint</text>
</g>
<!-- 37&#45;&gt;38 -->
<g id="edge13" class="edge">
<title>37&#45;&gt;38</title>
<path fill="none" stroke="black" d="M763.24,-72C784.09,-72 805.94,-72 823.93,-72"/>
<polygon fill="black" stroke="black" points="824.04,-75.5 834.04,-72 824.04,-68.5 824.04,-75.5"/>
</g>
<!-- 40 -->
<!-- name: &quot;string&quot;, typeName: &quot;&quot;, id: 40, branchId: 0, recurseId: &#45;1, attributes: 512, notes: &quot;&quot; -->
<g id="node16" class="node">
<title>40</title>
<ellipse fill="none" stroke="black" cx="864.79" cy="-18" rx="30.59" ry="18"/>
<text text-anchor="middle" x="864.79" y="-14.3" font-family="Times New Roman,serif" font-size="14.00">string</text>
</g>
<!-- 39&#45;&gt;40 -->
<g id="edge15" class="edge">
<title>39&#45;&gt;40</title>
<path fill="none" stroke="black" d="M759.95,-18C781.83,-18 805.13,-18 824.09,-18"/>
<polygon fill="black" stroke="black" points="824.15,-21.5 834.15,-18 824.15,-14.5 824.15,-21.5"/>
</g>
</g>
</svg>
