<?xml version="1.0" encoding="UTF-8" standalone="no"?>
<!DOCTYPE svg PUBLIC "-//W3C//DTD SVG 1.1//EN"
 "http://www.w3.org/Graphics/SVG/1.1/DTD/svg11.dtd">
<!-- Generated by graphviz version 2.46.1 (20210213.1702)
 -->
<!-- Title: NetworkStackLatencyPacket Pages: 1 -->
<svg width="569pt" height="98pt"
 viewBox="0.00 0.00 568.76 98.00" xmlns="http://www.w3.org/2000/svg" xmlns:xlink="http://www.w3.org/1999/xlink">
<g id="graph0" class="graph" transform="scale(1 1) rotate(0) translate(4 94)">
<title>NetworkStackLatencyPacket</title>
<polygon fill="white" stroke="transparent" points="-4,4 -4,-94 564.76,-94 564.76,4 -4,4"/>
<!-- 0 -->
<!-- name: &quot;NetworkStackLatencyPacket&quot;, typeName: &quot;&quot;, id: 0, branchId: 115, recurseId: &#45;1, attributes: 0, notes: &quot;&quot; -->
<g id="node1" class="node">
<title>0</title>
<ellipse fill="none" stroke="black" cx="115.69" cy="-45" rx="115.88" ry="18"/>
<text text-anchor="middle" x="115.69" y="-41.3" font-family="Times New Roman,serif" font-size="14.00">NetworkStackLatencyPacket</text>
</g>
<!-- 1 -->
<!-- name: &quot;Creation Time&quot;, typeName: &quot;&quot;, id: 1, branchId: 0, recurseId: &#45;1, attributes: 0, notes: &quot;&quot; -->
<g id="node2" class="node">
<title>1</title>
<ellipse fill="none" stroke="black" cx="333.02" cy="-72" rx="62.29" ry="18"/>
<text text-anchor="middle" x="333.02" y="-68.3" font-family="Times New Roman,serif" font-size="14.00">Creation Time</text>
</g>
<!-- 0&#45;&gt;1 -->
<g id="edge1" class="edge">
<title>0&#45;&gt;1</title>
<path fill="none" stroke="black" d="M206.45,-56.25C226.22,-58.73 246.81,-61.32 265.47,-63.65"/>
<polygon fill="black" stroke="black" points="265.26,-67.16 275.62,-64.93 266.13,-60.21 265.26,-67.16"/>
</g>
<!-- 3 -->
<!-- name: &quot;Is From Server&quot;, typeName: &quot;&quot;, id: 3, branchId: 0, recurseId: &#45;1, attributes: 0, notes: &quot;&quot; -->
<g id="node4" class="node">
<title>3</title>
<ellipse fill="none" stroke="black" cx="333.02" cy="-18" rx="65.79" ry="18"/>
<text text-anchor="middle" x="333.02" y="-14.3" font-family="Times New Roman,serif" font-size="14.00">Is From Server</text>
</g>
<!-- 0&#45;&gt;3 -->
<g id="edge3" class="edge">
<title>0&#45;&gt;3</title>
<path fill="none" stroke="black" d="M206.45,-33.75C225.35,-31.38 245.01,-28.91 263,-26.65"/>
<polygon fill="black" stroke="black" points="263.61,-30.11 273.1,-25.39 262.74,-23.16 263.61,-30.11"/>
</g>
<!-- 2 -->
<!-- name: &quot;unsigned int64&quot;, typeName: &quot;&quot;, id: 2, branchId: 0, recurseId: &#45;1, attributes: 512, notes: &quot;&quot; -->
<g id="node3" class="node">
<title>2</title>
<ellipse fill="none" stroke="black" cx="497.71" cy="-72" rx="63.09" ry="18"/>
<text text-anchor="middle" x="497.71" y="-68.3" font-family="Times New Roman,serif" font-size="14.00">unsigned int64</text>
</g>
<!-- 1&#45;&gt;2 -->
<g id="edge2" class="edge">
<title>1&#45;&gt;2</title>
<path fill="none" stroke="black" d="M395.53,-72C405.01,-72 414.88,-72 424.57,-72"/>
<polygon fill="black" stroke="black" points="424.58,-75.5 434.58,-72 424.58,-68.5 424.58,-75.5"/>
</g>
<!-- 4 -->
<!-- name: &quot;bool&quot;, typeName: &quot;&quot;, id: 4, branchId: 0, recurseId: &#45;1, attributes: 512, notes: &quot;&quot; -->
<g id="node5" class="node">
<title>4</title>
<ellipse fill="none" stroke="black" cx="497.71" cy="-18" rx="27.1" ry="18"/>
<text text-anchor="middle" x="497.71" y="-14.3" font-family="Times New Roman,serif" font-size="14.00">bool</text>
</g>
<!-- 3&#45;&gt;4 -->
<g id="edge4" class="edge">
<title>3&#45;&gt;4</title>
<path fill="none" stroke="black" d="M398.79,-18C419.68,-18 442.09,-18 460.19,-18"/>
<polygon fill="black" stroke="black" points="460.31,-21.5 470.31,-18 460.31,-14.5 460.31,-21.5"/>
</g>
</g>
</svg>
