<?xml version="1.0" encoding="UTF-8" standalone="no"?>
<!DOCTYPE svg PUBLIC "-//W3C//DTD SVG 1.1//EN"
 "http://www.w3.org/Graphics/SVG/1.1/DTD/svg11.dtd">
<!-- Generated by graphviz version 14.1.5 (20260411.2331)
 -->
<!-- Title: NoiseDescriptor Pages: 1 -->
<svg width="649pt" height="206pt"
 viewBox="0.00 0.00 649.00 206.00" xmlns="http://www.w3.org/2000/svg" xmlns:xlink="http://www.w3.org/1999/xlink">
<g id="graph0" class="graph" transform="scale(1 1) rotate(0) translate(4 202)">
<title>NoiseDescriptor</title>
<polygon fill="white" stroke="none" points="-4,4 -4,-202 644.62,-202 644.62,4 -4,4"/>
<!-- 0 -->
<!-- name: &quot;NoiseDescriptor&quot;, typeName: &quot;&quot;, id: 0, branchId: 0, recurseId: &#45;1, attributes: 0, notes: &quot;&quot; -->
<g id="node1" class="node">
<title>0</title>
<ellipse fill="none" stroke="black" cx="71.31" cy="-126" rx="71.31" ry="18"/>
<text xml:space="preserve" text-anchor="middle" x="71.31" y="-120.95" font-family="Times New Roman,serif" font-size="14.00">NoiseDescriptor</text>
</g>
<!-- 1 -->
<!-- name: &quot;name&quot;, typeName: &quot;&quot;, id: 1, branchId: 0, recurseId: &#45;1, attributes: 0, notes: &quot;The string used to initialize the noise. Has no impact on the qualitative aspects of the generated values.&quot; -->
<g id="node2" class="node">
<title>1</title>
<ellipse fill="none" stroke="black" cx="230.49" cy="-176" rx="31.39" ry="18"/>
<text xml:space="preserve" text-anchor="middle" x="230.49" y="-170.95" font-family="Times New Roman,serif" font-size="14.00">name</text>
</g>
<!-- 0&#45;&gt;1 -->
<g id="edge1" class="edge">
<title>0&#45;&gt;1</title>
<path fill="none" stroke="black" d="M116.93,-140.19C140.53,-147.7 169.2,-156.82 191.69,-163.98"/>
<polygon fill="black" stroke="black" points="190.48,-167.26 201.07,-166.96 192.6,-160.59 190.48,-167.26"/>
</g>
<!-- 3 -->
<!-- name: &quot;first_octave&quot;, typeName: &quot;&quot;, id: 3, branchId: 0, recurseId: &#45;1, attributes: 0, notes: &quot;Governs the general frequency characteristics of the generated noise. Lower value results in noise with lower frequency content.&quot; -->
<g id="node4" class="node">
<title>3</title>
<ellipse fill="none" stroke="black" cx="393.24" cy="-126" rx="54.42" ry="18"/>
<text xml:space="preserve" text-anchor="middle" x="393.24" y="-120.95" font-family="Times New Roman,serif" font-size="14.00">first_octave</text>
</g>
<!-- 0&#45;&gt;3 -->
<g id="edge3" class="edge">
<title>0&#45;&gt;3</title>
<path fill="none" stroke="black" d="M142.92,-126C197.86,-126 273.52,-126 327.04,-126"/>
<polygon fill="black" stroke="black" points="326.94,-129.5 336.94,-126 326.94,-122.5 326.94,-129.5"/>
</g>
<!-- 5 -->
<!-- name: &quot;amplitudes&quot;, typeName: &quot;&quot;, id: 5, branchId: 0, recurseId: &#45;1, attributes: 0, notes: &quot;Governs the attenuation of the first n octaves in the generated noise.&quot; -->
<g id="node6" class="node">
<title>5</title>
<ellipse fill="none" stroke="black" cx="230.49" cy="-72" rx="51.86" ry="18"/>
<text xml:space="preserve" text-anchor="middle" x="230.49" y="-66.95" font-family="Times New Roman,serif" font-size="14.00">amplitudes</text>
</g>
<!-- 0&#45;&gt;5 -->
<g id="edge5" class="edge">
<title>0&#45;&gt;5</title>
<path fill="none" stroke="black" d="M114.85,-111.39C135.52,-104.29 160.44,-95.72 181.75,-88.4"/>
<polygon fill="black" stroke="black" points="182.78,-91.75 191.1,-85.19 180.51,-85.13 182.78,-91.75"/>
</g>
<!-- 2 -->
<!-- name: &quot;string&quot;, typeName: &quot;&quot;, id: 2, branchId: 0, recurseId: &#45;1, attributes: 512, notes: &quot;The string used to initialize the noise. Has no impact on the qualitative aspects of the generated values.&quot; -->
<g id="node3" class="node">
<title>2</title>
<ellipse fill="none" stroke="black" cx="572.38" cy="-180" rx="31.9" ry="18"/>
<text xml:space="preserve" text-anchor="middle" x="572.38" y="-174.95" font-family="Times New Roman,serif" font-size="14.00">string</text>
</g>
<!-- 1&#45;&gt;2 -->
<g id="edge2" class="edge">
<title>1&#45;&gt;2</title>
<path fill="none" stroke="black" d="M262.25,-176.36C323.27,-177.08 459.7,-178.69 529.1,-179.5"/>
<polygon fill="black" stroke="black" points="528.89,-183 538.93,-179.62 528.97,-176 528.89,-183"/>
</g>
<!-- 4 -->
<!-- name: &quot;int&quot;, typeName: &quot;&quot;, id: 4, branchId: 0, recurseId: &#45;1, attributes: 512, notes: &quot;Governs the general frequency characteristics of the generated noise. Lower value results in noise with lower frequency content.&quot; -->
<g id="node5" class="node">
<title>4</title>
<ellipse fill="none" stroke="black" cx="572.38" cy="-126" rx="27" ry="18"/>
<text xml:space="preserve" text-anchor="middle" x="572.38" y="-120.95" font-family="Times New Roman,serif" font-size="14.00">int</text>
</g>
<!-- 3&#45;&gt;4 -->
<g id="edge4" class="edge">
<title>3&#45;&gt;4</title>
<path fill="none" stroke="black" d="M447.87,-126C475.65,-126 508.89,-126 533.88,-126"/>
<polygon fill="black" stroke="black" points="533.57,-129.5 543.57,-126 533.57,-122.5 533.57,-129.5"/>
</g>
<!-- 6 -->
<!-- name: &quot;List Size&quot;, typeName: &quot;&quot;, id: 6, branchId: 0, recurseId: &#45;1, attributes: 0, notes: &quot;&quot; -->
<g id="node7" class="node">
<title>6</title>
<ellipse fill="none" stroke="black" cx="393.24" cy="-72" rx="43.67" ry="18"/>
<text xml:space="preserve" text-anchor="middle" x="393.24" y="-66.95" font-family="Times New Roman,serif" font-size="14.00">List Size</text>
</g>
<!-- 5&#45;&gt;6 -->
<g id="edge6" class="edge">
<title>5&#45;&gt;6</title>
<path fill="none" stroke="black" d="M282.79,-72C300.36,-72 320.06,-72 337.86,-72"/>
<polygon fill="black" stroke="black" points="337.72,-75.5 347.72,-72 337.72,-68.5 337.72,-75.5"/>
</g>
<!-- 8 -->
<!-- name: &quot;example element&quot;, typeName: &quot;&quot;, id: 8, branchId: 0, recurseId: &#45;1, attributes: 16, notes: &quot;&quot; -->
<g id="node9" class="node">
<title>8</title>
<ellipse fill="none" stroke="black" stroke-dasharray="1,5" cx="393.24" cy="-18" rx="74.89" ry="18"/>
<text xml:space="preserve" text-anchor="middle" x="393.24" y="-12.95" font-family="Times New Roman,serif" font-size="14.00">example element</text>
</g>
<!-- 5&#45;&gt;8 -->
<g id="edge8" class="edge">
<title>5&#45;&gt;8</title>
<path fill="none" stroke="black" d="M268.77,-59.48C289.18,-52.62 314.84,-44 337.48,-36.39"/>
<polygon fill="black" stroke="black" points="338.52,-39.74 346.88,-33.24 336.29,-33.1 338.52,-39.74"/>
</g>
<!-- 7 -->
<!-- name: &quot;unsigned varint&quot;, typeName: &quot;&quot;, id: 7, branchId: 0, recurseId: &#45;1, attributes: 0, notes: &quot;&quot; -->
<g id="node8" class="node">
<title>7</title>
<ellipse fill="none" stroke="black" cx="572.38" cy="-72" rx="68.24" ry="18"/>
<text xml:space="preserve" text-anchor="middle" x="572.38" y="-66.95" font-family="Times New Roman,serif" font-size="14.00">unsigned varint</text>
</g>
<!-- 6&#45;&gt;7 -->
<g id="edge7" class="edge">
<title>6&#45;&gt;7</title>
<path fill="none" stroke="black" d="M437.12,-72C453.74,-72 473.3,-72 492.28,-72"/>
<polygon fill="black" stroke="black" points="492.16,-75.5 502.16,-72 492.16,-68.5 492.16,-75.5"/>
</g>
<!-- 9 -->
<!-- name: &quot;float&quot;, typeName: &quot;&quot;, id: 9, branchId: 0, recurseId: &#45;1, attributes: 512, notes: &quot;&quot; -->
<g id="node10" class="node">
<title>9</title>
<ellipse fill="none" stroke="black" cx="572.38" cy="-18" rx="27.81" ry="18"/>
<text xml:space="preserve" text-anchor="middle" x="572.38" y="-12.95" font-family="Times New Roman,serif" font-size="14.00">float</text>
</g>
<!-- 8&#45;&gt;9 -->
<g id="edge9" class="edge">
<title>8&#45;&gt;9</title>
<path fill="none" stroke="black" d="M468.6,-18C490.76,-18 514.14,-18 532.99,-18"/>
<polygon fill="black" stroke="black" points="532.87,-21.5 542.87,-18 532.87,-14.5 532.87,-21.5"/>
</g>
</g>
</svg>
