<?xml version="1.0" encoding="UTF-8" standalone="no"?>
<!DOCTYPE svg PUBLIC "-//W3C//DTD SVG 1.1//EN"
 "http://www.w3.org/Graphics/SVG/1.1/DTD/svg11.dtd">
<!-- Generated by graphviz version 11.0.0 (20240428.1522)
 -->
<!-- Title: NpcRequestPacket Pages: 1 -->
<svg width="538pt" height="260pt"
 viewBox="0.00 0.00 538.08 260.00" xmlns="http://www.w3.org/2000/svg" xmlns:xlink="http://www.w3.org/1999/xlink">
<g id="graph0" class="graph" transform="scale(1 1) rotate(0) translate(4 256)">
<title>NpcRequestPacket</title>
<polygon fill="white" stroke="none" points="-4,4 -4,-256 534.08,-256 534.08,4 -4,4"/>
<!-- 0 -->
<!-- name: &quot;NpcRequestPacket&quot;, typeName: &quot;&quot;, id: 0, branchId: 98, recurseId: &#45;1, attributes: 0, notes: &quot;&quot; -->
<g id="node1" class="node">
<title>0</title>
<ellipse fill="none" stroke="black" cx="82" cy="-126" rx="82" ry="18"/>
<text text-anchor="middle" x="82" y="-120.58" font-family="Times New Roman,serif" font-size="14.00">NpcRequestPacket</text>
</g>
<!-- 1 -->
<!-- name: &quot;NPC Runtime ID&quot;, typeName: &quot;ActorRuntimeID&quot;, id: 1, branchId: 0, recurseId: &#45;1, attributes: 256, notes: &quot;&quot; -->
<g id="node2" class="node">
<title>1</title>
<ellipse fill="none" stroke="black" cx="274.52" cy="-234" rx="74.52" ry="18"/>
<text text-anchor="middle" x="274.52" y="-228.57" font-family="Times New Roman,serif" font-size="14.00">NPC Runtime ID</text>
</g>
<!-- 0&#45;&gt;1 -->
<g id="edge1" class="edge">
<title>0&#45;&gt;1</title>
<path fill="none" stroke="black" d="M104.8,-143.61C127.52,-161.36 164.7,-188.68 200,-207 205.72,-209.97 211.85,-212.76 218.03,-215.35"/>
<polygon fill="black" stroke="black" points="216.43,-218.48 227.02,-218.93 219.02,-211.98 216.43,-218.48"/>
</g>
<!-- 3 -->
<!-- name: &quot;Request Type&quot;, typeName: &quot;&quot;, id: 3, branchId: 0, recurseId: &#45;1, attributes: 0, notes: &quot;&quot; -->
<g id="node4" class="node">
<title>3</title>
<ellipse fill="none" stroke="black" cx="274.52" cy="-180" rx="63.04" ry="18"/>
<text text-anchor="middle" x="274.52" y="-174.57" font-family="Times New Roman,serif" font-size="14.00">Request Type</text>
</g>
<!-- 0&#45;&gt;3 -->
<g id="edge3" class="edge">
<title>0&#45;&gt;3</title>
<path fill="none" stroke="black" d="M133.56,-140.33C159.41,-147.66 190.94,-156.59 217.52,-164.13"/>
<polygon fill="black" stroke="black" points="216.55,-167.49 227.13,-166.85 218.46,-160.76 216.55,-167.49"/>
</g>
<!-- 5 -->
<!-- name: &quot;Actions&quot;, typeName: &quot;&quot;, id: 5, branchId: 0, recurseId: &#45;1, attributes: 0, notes: &quot;&quot; -->
<g id="node6" class="node">
<title>5</title>
<ellipse fill="none" stroke="black" cx="274.52" cy="-126" rx="39.59" ry="18"/>
<text text-anchor="middle" x="274.52" y="-120.58" font-family="Times New Roman,serif" font-size="14.00">Actions</text>
</g>
<!-- 0&#45;&gt;5 -->
<g id="edge5" class="edge">
<title>0&#45;&gt;5</title>
<path fill="none" stroke="black" d="M164.35,-126C184.35,-126 205.18,-126 223.21,-126"/>
<polygon fill="black" stroke="black" points="223.12,-129.5 233.12,-126 223.12,-122.5 223.12,-129.5"/>
</g>
<!-- 7 -->
<!-- name: &quot;Action Index&quot;, typeName: &quot;&quot;, id: 7, branchId: 0, recurseId: &#45;1, attributes: 0, notes: &quot;&quot; -->
<g id="node8" class="node">
<title>7</title>
<ellipse fill="none" stroke="black" cx="274.52" cy="-72" rx="59.05" ry="18"/>
<text text-anchor="middle" x="274.52" y="-66.58" font-family="Times New Roman,serif" font-size="14.00">Action Index</text>
</g>
<!-- 0&#45;&gt;7 -->
<g id="edge7" class="edge">
<title>0&#45;&gt;7</title>
<path fill="none" stroke="black" d="M133.56,-111.67C160.01,-104.17 192.41,-94.99 219.37,-87.35"/>
<polygon fill="black" stroke="black" points="220.05,-90.79 228.72,-84.7 218.14,-84.06 220.05,-90.79"/>
</g>
<!-- 9 -->
<!-- name: &quot;Scene Name&quot;, typeName: &quot;&quot;, id: 9, branchId: 0, recurseId: &#45;1, attributes: 0, notes: &quot;&quot; -->
<g id="node10" class="node">
<title>9</title>
<ellipse fill="none" stroke="black" cx="274.52" cy="-18" rx="57.05" ry="18"/>
<text text-anchor="middle" x="274.52" y="-12.57" font-family="Times New Roman,serif" font-size="14.00">Scene Name</text>
</g>
<!-- 0&#45;&gt;9 -->
<g id="edge9" class="edge">
<title>0&#45;&gt;9</title>
<path fill="none" stroke="black" d="M104.8,-108.39C127.52,-90.64 164.7,-63.32 200,-45 207.06,-41.34 214.72,-37.94 222.35,-34.88"/>
<polygon fill="black" stroke="black" points="223.55,-38.17 231.64,-31.32 221.05,-31.63 223.55,-38.17"/>
</g>
<!-- 2 -->
<!-- name: &quot;ActorRuntimeID&quot;, typeName: &quot;&quot;, id: 2, branchId: 0, recurseId: &#45;1, attributes: 512, notes: &quot;&quot; -->
<g id="node3" class="node">
<title>2</title>
<ellipse fill="none" stroke="black" cx="457.56" cy="-234" rx="72.52" ry="18"/>
<text text-anchor="middle" x="457.56" y="-228.57" font-family="Times New Roman,serif" font-size="14.00">ActorRuntimeID</text>
</g>
<!-- 1&#45;&gt;2 -->
<g id="edge2" class="edge">
<title>1&#45;&gt;2</title>
<path fill="none" stroke="black" d="M349.42,-234C357.32,-234 365.41,-234 373.41,-234"/>
<polygon fill="black" stroke="black" points="373.14,-237.5 383.14,-234 373.14,-230.5 373.14,-237.5"/>
</g>
<!-- 4 -->
<!-- name: &quot;byte&quot;, typeName: &quot;&quot;, id: 4, branchId: 0, recurseId: &#45;1, attributes: 512, notes: &quot;&quot; -->
<g id="node5" class="node">
<title>4</title>
<ellipse fill="none" stroke="black" cx="457.56" cy="-180" rx="27" ry="18"/>
<text text-anchor="middle" x="457.56" y="-174.57" font-family="Times New Roman,serif" font-size="14.00">byte</text>
</g>
<!-- 3&#45;&gt;4 -->
<g id="edge4" class="edge">
<title>3&#45;&gt;4</title>
<path fill="none" stroke="black" d="M337.82,-180C364.95,-180 395.83,-180 419.3,-180"/>
<polygon fill="black" stroke="black" points="418.99,-183.5 428.99,-180 418.99,-176.5 418.99,-183.5"/>
</g>
<!-- 6 -->
<!-- name: &quot;string&quot;, typeName: &quot;&quot;, id: 6, branchId: 0, recurseId: &#45;1, attributes: 512, notes: &quot;&quot; -->
<g id="node7" class="node">
<title>6</title>
<ellipse fill="none" stroke="black" cx="457.56" cy="-126" rx="31.1" ry="18"/>
<text text-anchor="middle" x="457.56" y="-120.58" font-family="Times New Roman,serif" font-size="14.00">string</text>
</g>
<!-- 5&#45;&gt;6 -->
<g id="edge6" class="edge">
<title>5&#45;&gt;6</title>
<path fill="none" stroke="black" d="M314.36,-126C343.89,-126 384.46,-126 414.71,-126"/>
<polygon fill="black" stroke="black" points="414.65,-129.5 424.65,-126 414.65,-122.5 414.65,-129.5"/>
</g>
<!-- 8 -->
<!-- name: &quot;byte&quot;, typeName: &quot;&quot;, id: 8, branchId: 0, recurseId: &#45;1, attributes: 512, notes: &quot;&quot; -->
<g id="node9" class="node">
<title>8</title>
<ellipse fill="none" stroke="black" cx="457.56" cy="-72" rx="27" ry="18"/>
<text text-anchor="middle" x="457.56" y="-66.58" font-family="Times New Roman,serif" font-size="14.00">byte</text>
</g>
<!-- 7&#45;&gt;8 -->
<g id="edge8" class="edge">
<title>7&#45;&gt;8</title>
<path fill="none" stroke="black" d="M333.8,-72C361.69,-72 394.28,-72 418.87,-72"/>
<polygon fill="black" stroke="black" points="418.73,-75.5 428.73,-72 418.73,-68.5 418.73,-75.5"/>
</g>
<!-- 10 -->
<!-- name: &quot;string&quot;, typeName: &quot;&quot;, id: 10, branchId: 0, recurseId: &#45;1, attributes: 512, notes: &quot;&quot; -->
<g id="node11" class="node">
<title>10</title>
<ellipse fill="none" stroke="black" cx="457.56" cy="-18" rx="31.1" ry="18"/>
<text text-anchor="middle" x="457.56" y="-12.57" font-family="Times New Roman,serif" font-size="14.00">string</text>
</g>
<!-- 9&#45;&gt;10 -->
<g id="edge10" class="edge">
<title>9&#45;&gt;10</title>
<path fill="none" stroke="black" d="M331.81,-18C358.57,-18 390.01,-18 414.63,-18"/>
<polygon fill="black" stroke="black" points="414.61,-21.5 424.61,-18 414.61,-14.5 414.61,-21.5"/>
</g>
</g>
</svg>
