<?xml version="1.0" encoding="UTF-8" standalone="no"?>
<!DOCTYPE svg PUBLIC "-//W3C//DTD SVG 1.1//EN"
 "http://www.w3.org/Graphics/SVG/1.1/DTD/svg11.dtd">
<!-- Generated by graphviz version 10.0.1 (20240210.2158)
 -->
<!-- Title: OnScreenTextureAnimationPacket Pages: 1 -->
<svg width="555pt" height="44pt"
 viewBox="0.00 0.00 555.04 44.00" xmlns="http://www.w3.org/2000/svg" xmlns:xlink="http://www.w3.org/1999/xlink">
<g id="graph0" class="graph" transform="scale(1 1) rotate(0) translate(4 40)">
<title>OnScreenTextureAnimationPacket</title>
<polygon fill="white" stroke="none" points="-4,4 -4,-40 551.04,-40 551.04,4 -4,4"/>
<!-- 0 -->
<!-- name: &quot;OnScreenTextureAnimationPacket&quot;, typeName: &quot;&quot;, id: 0, branchId: 130, recurseId: &#45;1, attributes: 0, notes: &quot;&quot; -->
<g id="node1" class="node">
<title>0</title>
<ellipse fill="none" stroke="black" cx="138.89" cy="-18" rx="138.89" ry="18"/>
<text text-anchor="middle" x="138.89" y="-12.57" font-family="Times New Roman,serif" font-size="14.00">OnScreenTextureAnimationPacket</text>
</g>
<!-- 1 -->
<!-- name: &quot;Effect Id&quot;, typeName: &quot;&quot;, id: 1, branchId: 0, recurseId: &#45;1, attributes: 0, notes: &quot;Id of the effect whose icon should be shown on&#45;screen.&quot; -->
<g id="node2" class="node">
<title>1</title>
<ellipse fill="none" stroke="black" cx="357.35" cy="-18" rx="43.58" ry="18"/>
<text text-anchor="middle" x="357.35" y="-12.57" font-family="Times New Roman,serif" font-size="14.00">Effect Id</text>
</g>
<!-- 0&#45;&gt;1 -->
<g id="edge1" class="edge">
<title>0&#45;&gt;1</title>
<path fill="none" stroke="black" d="M278.2,-18C286.47,-18 294.48,-18 302.02,-18"/>
<polygon fill="black" stroke="black" points="301.94,-21.5 311.94,-18 301.94,-14.5 301.94,-21.5"/>
</g>
<!-- 2 -->
<!-- name: &quot;unsigned int&quot;, typeName: &quot;&quot;, id: 2, branchId: 0, recurseId: &#45;1, attributes: 512, notes: &quot;&quot; -->
<g id="node3" class="node">
<title>2</title>
<ellipse fill="none" stroke="black" cx="491.99" cy="-18" rx="55.06" ry="18"/>
<text text-anchor="middle" x="491.99" y="-12.57" font-family="Times New Roman,serif" font-size="14.00">unsigned int</text>
</g>
<!-- 1&#45;&gt;2 -->
<g id="edge2" class="edge">
<title>1&#45;&gt;2</title>
<path fill="none" stroke="black" d="M401.42,-18C409.03,-18 417.1,-18 425.17,-18"/>
<polygon fill="black" stroke="black" points="425,-21.5 435,-18 425,-14.5 425,-21.5"/>
</g>
</g>
</svg>
