<?xml version="1.0" encoding="UTF-8" standalone="no"?>
<!DOCTYPE svg PUBLIC "-//W3C//DTD SVG 1.1//EN"
 "http://www.w3.org/Graphics/SVG/1.1/DTD/svg11.dtd">
<!-- Generated by graphviz version 12.2.0 (20241103.1931)
 -->
<!-- Title: OnScreenTextureAnimationPacket Pages: 1 -->
<svg width="560pt" height="44pt"
 viewBox="0.00 0.00 560.08 44.00" xmlns="http://www.w3.org/2000/svg" xmlns:xlink="http://www.w3.org/1999/xlink">
<g id="graph0" class="graph" transform="scale(1 1) rotate(0) translate(4 40)">
<title>OnScreenTextureAnimationPacket</title>
<polygon fill="white" stroke="none" points="-4,4 -4,-40 556.08,-40 556.08,4 -4,4"/>
<!-- 0 -->
<!-- name: &quot;OnScreenTextureAnimationPacket&quot;, typeName: &quot;&quot;, id: 0, branchId: 130, recurseId: &#45;1, attributes: 0, notes: &quot;&quot; -->
<g id="node1" class="node">
<title>0</title>
<ellipse fill="none" stroke="black" cx="139.89" cy="-18" rx="139.89" ry="18"/>
<text text-anchor="middle" x="139.89" y="-12.95" font-family="Times New Roman,serif" font-size="14.00">OnScreenTextureAnimationPacket</text>
</g>
<!-- 1 -->
<!-- name: &quot;Effect Id&quot;, typeName: &quot;&quot;, id: 1, branchId: 0, recurseId: &#45;1, attributes: 0, notes: &quot;Id of the effect whose icon should be shown on&#45;screen.&quot; -->
<g id="node2" class="node">
<title>1</title>
<ellipse fill="none" stroke="black" cx="359.46" cy="-18" rx="43.67" ry="18"/>
<text text-anchor="middle" x="359.46" y="-12.95" font-family="Times New Roman,serif" font-size="14.00">Effect Id</text>
</g>
<!-- 0&#45;&gt;1 -->
<g id="edge1" class="edge">
<title>0&#45;&gt;1</title>
<path fill="none" stroke="black" d="M280.22,-18C288.5,-18 296.53,-18 304.08,-18"/>
<polygon fill="black" stroke="black" points="304.02,-21.5 314.02,-18 304.02,-14.5 304.02,-21.5"/>
</g>
<!-- 2 -->
<!-- name: &quot;unsigned int&quot;, typeName: &quot;&quot;, id: 2, branchId: 0, recurseId: &#45;1, attributes: 512, notes: &quot;&quot; -->
<g id="node3" class="node">
<title>2</title>
<ellipse fill="none" stroke="black" cx="495.61" cy="-18" rx="56.47" ry="18"/>
<text text-anchor="middle" x="495.61" y="-12.95" font-family="Times New Roman,serif" font-size="14.00">unsigned int</text>
</g>
<!-- 1&#45;&gt;2 -->
<g id="edge2" class="edge">
<title>1&#45;&gt;2</title>
<path fill="none" stroke="black" d="M403.28,-18C411.08,-18 419.39,-18 427.69,-18"/>
<polygon fill="black" stroke="black" points="427.45,-21.5 437.45,-18 427.45,-14.5 427.45,-21.5"/>
</g>
</g>
</svg>
