<?xml version="1.0" encoding="UTF-8" standalone="no"?>
<!DOCTYPE svg PUBLIC "-//W3C//DTD SVG 1.1//EN"
 "http://www.w3.org/Graphics/SVG/1.1/DTD/svg11.dtd">
<!-- Generated by graphviz version 12.2.0 (20241103.1931)
 -->
<!-- Title: OpenSignPacket Pages: 1 -->
<svg width="533pt" height="98pt"
 viewBox="0.00 0.00 533.46 98.00" xmlns="http://www.w3.org/2000/svg" xmlns:xlink="http://www.w3.org/1999/xlink">
<g id="graph0" class="graph" transform="scale(1 1) rotate(0) translate(4 94)">
<title>OpenSignPacket</title>
<polygon fill="white" stroke="none" points="-4,4 -4,-94 529.46,-94 529.46,4 -4,4"/>
<!-- 0 -->
<!-- name: &quot;OpenSignPacket&quot;, typeName: &quot;&quot;, id: 0, branchId: 303, recurseId: &#45;1, attributes: 0, notes: &quot;&quot; -->
<g id="node1" class="node">
<title>0</title>
<ellipse fill="none" stroke="black" cx="72.34" cy="-45" rx="72.34" ry="18"/>
<text text-anchor="middle" x="72.34" y="-39.95" font-family="Times New Roman,serif" font-size="14.00">OpenSignPacket</text>
</g>
<!-- 1 -->
<!-- name: &quot;Pos&quot;, typeName: &quot;NetworkBlockPosition&quot;, id: 1, branchId: 0, recurseId: &#45;1, attributes: 256, notes: &quot;&quot; -->
<g id="node2" class="node">
<title>1</title>
<ellipse fill="none" stroke="black" cx="239.7" cy="-72" rx="27" ry="18"/>
<text text-anchor="middle" x="239.7" y="-66.95" font-family="Times New Roman,serif" font-size="14.00">Pos</text>
</g>
<!-- 0&#45;&gt;1 -->
<g id="edge1" class="edge">
<title>0&#45;&gt;1</title>
<path fill="none" stroke="black" d="M133.5,-54.82C156.35,-58.55 181.69,-62.69 201.77,-65.97"/>
<polygon fill="black" stroke="black" points="201,-69.39 211.43,-67.55 202.12,-62.48 201,-69.39"/>
</g>
<!-- 3 -->
<!-- name: &quot;Is Front Side&quot;, typeName: &quot;&quot;, id: 3, branchId: 0, recurseId: &#45;1, attributes: 0, notes: &quot;&quot; -->
<g id="node4" class="node">
<title>3</title>
<ellipse fill="none" stroke="black" cx="239.7" cy="-18" rx="59.03" ry="18"/>
<text text-anchor="middle" x="239.7" y="-12.95" font-family="Times New Roman,serif" font-size="14.00">Is Front Side</text>
</g>
<!-- 0&#45;&gt;3 -->
<g id="edge3" class="edge">
<title>0&#45;&gt;3</title>
<path fill="none" stroke="black" d="M133.5,-35.18C147.35,-32.92 162.1,-30.51 176.05,-28.23"/>
<polygon fill="black" stroke="black" points="176.23,-31.75 185.54,-26.68 175.1,-24.84 176.23,-31.75"/>
</g>
<!-- 2 -->
<!-- name: &quot;NetworkBlockPosition&quot;, typeName: &quot;&quot;, id: 2, branchId: 0, recurseId: &#45;1, attributes: 512, notes: &quot;&quot; -->
<g id="node3" class="node">
<title>2</title>
<ellipse fill="none" stroke="black" cx="430.1" cy="-72" rx="95.37" ry="18"/>
<text text-anchor="middle" x="430.1" y="-66.95" font-family="Times New Roman,serif" font-size="14.00">NetworkBlockPosition</text>
</g>
<!-- 1&#45;&gt;2 -->
<g id="edge2" class="edge">
<title>1&#45;&gt;2</title>
<path fill="none" stroke="black" d="M266.9,-72C282.06,-72 302.27,-72 323.26,-72"/>
<polygon fill="black" stroke="black" points="323.12,-75.5 333.12,-72 323.12,-68.5 323.12,-75.5"/>
</g>
<!-- 4 -->
<!-- name: &quot;bool&quot;, typeName: &quot;&quot;, id: 4, branchId: 0, recurseId: &#45;1, attributes: 512, notes: &quot;&quot; -->
<g id="node5" class="node">
<title>4</title>
<ellipse fill="none" stroke="black" cx="430.1" cy="-18" rx="27.3" ry="18"/>
<text text-anchor="middle" x="430.1" y="-12.95" font-family="Times New Roman,serif" font-size="14.00">bool</text>
</g>
<!-- 3&#45;&gt;4 -->
<g id="edge4" class="edge">
<title>3&#45;&gt;4</title>
<path fill="none" stroke="black" d="M299.02,-18C329.01,-18 364.7,-18 391.1,-18"/>
<polygon fill="black" stroke="black" points="391.01,-21.5 401.01,-18 391.01,-14.5 391.01,-21.5"/>
</g>
</g>
</svg>
