<?xml version="1.0" encoding="UTF-8" standalone="no"?>
<!DOCTYPE svg PUBLIC "-//W3C//DTD SVG 1.1//EN"
 "http://www.w3.org/Graphics/SVG/1.1/DTD/svg11.dtd">
<!-- Generated by graphviz version 11.0.0 (20240428.1522)
 -->
<!-- Title: PackedItemUseLegacyInventoryTransaction Pages: 1 -->
<svg width="2202pt" height="908pt"
 viewBox="0.00 0.00 2202.16 908.00" xmlns="http://www.w3.org/2000/svg" xmlns:xlink="http://www.w3.org/1999/xlink">
<g id="graph0" class="graph" transform="scale(1 1) rotate(0) translate(4 904)">
<title>PackedItemUseLegacyInventoryTransaction</title>
<polygon fill="white" stroke="none" points="-4,4 -4,-904 2198.16,-904 2198.16,4 -4,4"/>
<!-- 41 -->
<!-- name: &quot;PackedItemUseLegacyInventoryTransaction&quot;, typeName: &quot;&quot;, id: 41, branchId: 0, recurseId: &#45;1, attributes: 0, notes: &quot;&quot; -->
<g id="node1" class="node">
<title>41</title>
<ellipse fill="none" stroke="black" cx="175.31" cy="-342" rx="175.31" ry="18"/>
<text text-anchor="middle" x="175.31" y="-336.57" font-family="Times New Roman,serif" font-size="14.00">PackedItemUseLegacyInventoryTransaction</text>
</g>
<!-- 42 -->
<!-- name: &quot;ID&quot;, typeName: &quot;TypedClientNetId&lt;struct ItemStackLegacyRequestIdTag,int,0&gt;&quot;, id: 42, branchId: 0, recurseId: &#45;1, attributes: 256, notes: &quot;&quot; -->
<g id="node2" class="node">
<title>42</title>
<ellipse fill="none" stroke="black" cx="894.58" cy="-872" rx="27" ry="18"/>
<text text-anchor="middle" x="894.58" y="-866.58" font-family="Times New Roman,serif" font-size="14.00">ID</text>
</g>
<!-- 41&#45;&gt;42 -->
<g id="edge1" class="edge">
<title>41&#45;&gt;42</title>
<path fill="none" stroke="black" d="M179.85,-360.45C193.4,-425.97 248.42,-649.2 386.63,-757 531.01,-869.61 764.96,-875.96 855.82,-873.75"/>
<polygon fill="black" stroke="black" points="855.77,-877.25 865.66,-873.45 855.56,-870.25 855.77,-877.25"/>
</g>
<!-- 47 -->
<!-- name: &quot;Dependency on &#39;ID is valid?&#39;&quot;, typeName: &quot;&quot;, id: 47, branchId: 0, recurseId: &#45;1, attributes: 2, notes: &quot;&quot; -->
<g id="node4" class="node">
<title>47</title>
<polygon fill="none" stroke="black" points="589.8,-748 419.3,-748 419.3,-712 595.8,-712 595.8,-742 589.8,-748"/>
<polyline fill="none" stroke="black" points="589.8,-748 589.8,-742"/>
<polyline fill="none" stroke="black" points="595.8,-742 589.8,-742"/>
<text text-anchor="middle" x="507.55" y="-724.58" font-family="Times New Roman,serif" font-size="14.00">Dependency on &#39;ID is valid?&#39;</text>
</g>
<!-- 41&#45;&gt;47 -->
<g id="edge3" class="edge">
<title>41&#45;&gt;47</title>
<path fill="none" stroke="black" d="M191.8,-360.19C245.1,-422.82 421.17,-629.68 484.01,-703.52"/>
<polygon fill="black" stroke="black" points="480.97,-705.35 490.12,-710.69 486.3,-700.81 480.97,-705.35"/>
</g>
<!-- 63 -->
<!-- name: &quot;mTransaction&#45;&gt;mTransaction&quot;, typeName: &quot;InventoryTransaction&quot;, id: 63, branchId: 0, recurseId: &#45;1, attributes: 256, notes: &quot;Our ComplexInventoryTransaction contains an InventoryTransaction within it&quot; -->
<g id="node20" class="node">
<title>63</title>
<ellipse fill="none" stroke="black" cx="507.55" cy="-550" rx="120.92" ry="18"/>
<text text-anchor="middle" x="507.55" y="-544.58" font-family="Times New Roman,serif" font-size="14.00">mTransaction&#45;&gt;mTransaction</text>
</g>
<!-- 41&#45;&gt;63 -->
<g id="edge19" class="edge">
<title>41&#45;&gt;63</title>
<path fill="none" stroke="black" d="M194.34,-360.39C228.77,-394.55 307.52,-468.23 386.63,-511 401.02,-518.78 417.24,-525.35 432.98,-530.74"/>
<polygon fill="black" stroke="black" points="431.74,-534.02 442.34,-533.81 433.93,-527.37 431.74,-534.02"/>
</g>
<!-- 65 -->
<!-- name: &quot;Action Type&quot;, typeName: &quot;&quot;, id: 65, branchId: 0, recurseId: &#45;1, attributes: 0, notes: &quot;&quot; -->
<g id="node22" class="node">
<title>65</title>
<ellipse fill="none" stroke="black" cx="894.58" cy="-501" rx="57.55" ry="18"/>
<text text-anchor="middle" x="894.58" y="-495.57" font-family="Times New Roman,serif" font-size="14.00">Action Type</text>
</g>
<!-- 41&#45;&gt;65 -->
<g id="edge21" class="edge">
<title>41&#45;&gt;65</title>
<path fill="none" stroke="black" d="M209.09,-360.05C249.55,-381.49 321.08,-416.65 386.63,-435 539.96,-477.92 727.35,-493.09 825.76,-498.34"/>
<polygon fill="black" stroke="black" points="825.35,-501.82 835.51,-498.84 825.7,-494.83 825.35,-501.82"/>
</g>
<!-- 67 -->
<!-- name: &quot;Trigger Type&quot;, typeName: &quot;&quot;, id: 67, branchId: 0, recurseId: &#45;1, attributes: 0, notes: &quot;PlayerInput if it&#39;s a direct result from a player&#39;s initial button input,		SimulationTick if the player is holding down the input button started from a previous tick.&quot; -->
<g id="node24" class="node">
<title>67</title>
<ellipse fill="none" stroke="black" cx="727.51" cy="-444" rx="59.55" ry="18"/>
<text text-anchor="middle" x="727.51" y="-438.57" font-family="Times New Roman,serif" font-size="14.00">Trigger Type</text>
</g>
<!-- 41&#45;&gt;67 -->
<g id="edge23" class="edge">
<title>41&#45;&gt;67</title>
<path fill="none" stroke="black" d="M224.95,-359.59C267.16,-374.19 330.18,-394.36 386.63,-406 479.31,-425.11 588.33,-435.16 657.42,-440.01"/>
<polygon fill="black" stroke="black" points="656.85,-443.48 667.06,-440.68 657.33,-436.5 656.85,-443.48"/>
</g>
<!-- 69 -->
<!-- name: &quot;Position&quot;, typeName: &quot;NetworkBlockPosition&quot;, id: 69, branchId: 0, recurseId: &#45;1, attributes: 256, notes: &quot;&quot; -->
<g id="node26" class="node">
<title>69</title>
<ellipse fill="none" stroke="black" cx="1593.3" cy="-394" rx="41.08" ry="18"/>
<text text-anchor="middle" x="1593.3" y="-388.57" font-family="Times New Roman,serif" font-size="14.00">Position</text>
</g>
<!-- 41&#45;&gt;69 -->
<g id="edge25" class="edge">
<title>41&#45;&gt;69</title>
<path fill="none" stroke="black" d="M278.99,-356.93C389.31,-371.67 569.93,-392 726.51,-392 726.51,-392 726.51,-392 1221.24,-392 1335.2,-392 1468.85,-392.96 1540.56,-393.55"/>
<polygon fill="black" stroke="black" points="1540.4,-397.04 1550.43,-393.63 1540.46,-390.04 1540.4,-397.04"/>
</g>
<!-- 71 -->
<!-- name: &quot;Face&quot;, typeName: &quot;&quot;, id: 71, branchId: 0, recurseId: &#45;1, attributes: 0, notes: &quot;&quot; -->
<g id="node28" class="node">
<title>71</title>
<ellipse fill="none" stroke="black" cx="1393.3" cy="-342" rx="28.61" ry="18"/>
<text text-anchor="middle" x="1393.3" y="-336.57" font-family="Times New Roman,serif" font-size="14.00">Face</text>
</g>
<!-- 41&#45;&gt;71 -->
<g id="edge27" class="edge">
<title>41&#45;&gt;71</title>
<path fill="none" stroke="black" d="M351.01,-342C459.16,-342 600.9,-342 726.51,-342 726.51,-342 726.51,-342 1071.14,-342 1172.81,-342 1292.58,-342 1353.09,-342"/>
<polygon fill="black" stroke="black" points="1352.86,-345.5 1362.86,-342 1352.86,-338.5 1352.86,-345.5"/>
</g>
<!-- 73 -->
<!-- name: &quot;Slot&quot;, typeName: &quot;&quot;, id: 73, branchId: 0, recurseId: &#45;1, attributes: 0, notes: &quot;&quot; -->
<g id="node30" class="node">
<title>73</title>
<ellipse fill="none" stroke="black" cx="1220.24" cy="-292" rx="27" ry="18"/>
<text text-anchor="middle" x="1220.24" y="-286.57" font-family="Times New Roman,serif" font-size="14.00">Slot</text>
</g>
<!-- 41&#45;&gt;73 -->
<g id="edge29" class="edge">
<title>41&#45;&gt;73</title>
<path fill="none" stroke="black" d="M292.85,-328.26C404.09,-316.35 576.49,-301 726.51,-301 726.51,-301 726.51,-301 895.58,-301 999.14,-301 1121.25,-296.34 1181.6,-293.73"/>
<polygon fill="black" stroke="black" points="1181.47,-297.24 1191.3,-293.3 1181.16,-290.24 1181.47,-297.24"/>
</g>
<!-- 75 -->
<!-- name: &quot;Item&quot;, typeName: &quot;NetworkItemStackDescriptor&quot;, id: 75, branchId: 0, recurseId: &#45;1, attributes: 256, notes: &quot;&quot; -->
<g id="node32" class="node">
<title>75</title>
<ellipse fill="none" stroke="black" cx="1070.14" cy="-244" rx="27.11" ry="18"/>
<text text-anchor="middle" x="1070.14" y="-238.57" font-family="Times New Roman,serif" font-size="14.00">Item</text>
</g>
<!-- 41&#45;&gt;75 -->
<g id="edge31" class="edge">
<title>41&#45;&gt;75</title>
<path fill="none" stroke="black" d="M231.05,-324.58C273.13,-311.95 332.97,-295.62 386.63,-287 629.9,-247.9 927.28,-243.94 1031.17,-243.84"/>
<polygon fill="black" stroke="black" points="1031.07,-247.34 1041.07,-243.84 1031.07,-240.34 1031.07,-247.34"/>
</g>
<!-- 77 -->
<!-- name: &quot;From Position&quot;, typeName: &quot;Vec3&quot;, id: 77, branchId: 0, recurseId: &#45;1, attributes: 256, notes: &quot;Where the player thinks they are when sending this&quot; -->
<g id="node34" class="node">
<title>77</title>
<ellipse fill="none" stroke="black" cx="894.58" cy="-190" rx="64.04" ry="18"/>
<text text-anchor="middle" x="894.58" y="-184.57" font-family="Times New Roman,serif" font-size="14.00">From Position</text>
</g>
<!-- 41&#45;&gt;77 -->
<g id="edge33" class="edge">
<title>41&#45;&gt;77</title>
<path fill="none" stroke="black" d="M206.03,-323.83C245.65,-300.58 318.69,-261.02 386.63,-242 535.99,-200.18 718.52,-191.25 818.75,-189.78"/>
<polygon fill="black" stroke="black" points="818.79,-193.28 828.75,-189.65 818.71,-186.28 818.79,-193.28"/>
</g>
<!-- 79 -->
<!-- name: &quot;Click Position&quot;, typeName: &quot;Vec3&quot;, id: 79, branchId: 0, recurseId: &#45;1, attributes: 256, notes: &quot;&quot; -->
<g id="node36" class="node">
<title>79</title>
<ellipse fill="none" stroke="black" cx="727.51" cy="-154" rx="63.04" ry="18"/>
<text text-anchor="middle" x="727.51" y="-148.57" font-family="Times New Roman,serif" font-size="14.00">Click Position</text>
</g>
<!-- 41&#45;&gt;79 -->
<g id="edge35" class="edge">
<title>41&#45;&gt;79</title>
<path fill="none" stroke="black" d="M194.3,-323.79C228.34,-290.6 306.06,-220.85 386.63,-190 474.03,-156.54 582.75,-150.64 653.34,-151.05"/>
<polygon fill="black" stroke="black" points="653.21,-154.55 663.25,-151.15 653.29,-147.55 653.21,-154.55"/>
</g>
<!-- 81 -->
<!-- name: &quot;Target Block Id&quot;, typeName: &quot;&quot;, id: 81, branchId: 0, recurseId: &#45;1, attributes: 0, notes: &quot;&quot; -->
<g id="node38" class="node">
<title>81</title>
<ellipse fill="none" stroke="black" cx="1593.3" cy="-76" rx="69.53" ry="18"/>
<text text-anchor="middle" x="1593.3" y="-70.58" font-family="Times New Roman,serif" font-size="14.00">Target Block Id</text>
</g>
<!-- 41&#45;&gt;81 -->
<g id="edge37" class="edge">
<title>41&#45;&gt;81</title>
<path fill="none" stroke="black" d="M190.01,-323.62C220.5,-284.17 298.3,-191.36 386.63,-147 523.92,-78.04 572.88,-84 726.51,-84 726.51,-84 726.51,-84 1221.24,-84 1321.75,-84 1437.55,-81.03 1512.68,-78.71"/>
<polygon fill="black" stroke="black" points="1512.52,-82.22 1522.41,-78.4 1512.3,-75.22 1512.52,-82.22"/>
</g>
<!-- 83 -->
<!-- name: &quot;Client Interact Prediction&quot;, typeName: &quot;&quot;, id: 83, branchId: 0, recurseId: &#45;1, attributes: 0, notes: &quot;&quot; -->
<g id="node40" class="node">
<title>83</title>
<ellipse fill="none" stroke="black" cx="507.55" cy="-26" rx="102.96" ry="18"/>
<text text-anchor="middle" x="507.55" y="-20.57" font-family="Times New Roman,serif" font-size="14.00">Client Interact Prediction</text>
</g>
<!-- 41&#45;&gt;83 -->
<g id="edge39" class="edge">
<title>41&#45;&gt;83</title>
<path fill="none" stroke="black" d="M185.71,-323.59C211.33,-275.15 287.18,-142.83 386.63,-70 401.22,-59.31 418.69,-50.97 435.72,-44.56"/>
<polygon fill="black" stroke="black" points="436.57,-47.97 444.81,-41.32 434.22,-41.38 436.57,-47.97"/>
</g>
<!-- 46 -->
<!-- name: &quot;TypedClientNetId&lt;struct ItemStackLegacyRequestIdTag,int,0&gt;&quot;, typeName: &quot;&quot;, id: 46, branchId: 0, recurseId: &#45;1, attributes: 512, notes: &quot;&quot; -->
<g id="node3" class="node">
<title>46</title>
<ellipse fill="none" stroke="black" cx="1946.5" cy="-882" rx="247.67" ry="18"/>
<text text-anchor="middle" x="1946.5" y="-876.58" font-family="Times New Roman,serif" font-size="14.00">TypedClientNetId&lt;struct ItemStackLegacyRequestIdTag,int,0&gt;</text>
</g>
<!-- 42&#45;&gt;46 -->
<g id="edge2" class="edge">
<title>42&#45;&gt;46</title>
<path fill="none" stroke="black" d="M922.01,-873.37C977.2,-876.11 1108.77,-882 1219.24,-882 1219.24,-882 1219.24,-882 1394.3,-882 1489.83,-882 1594.69,-882 1687.06,-882"/>
<polygon fill="black" stroke="black" points="1687.03,-885.5 1697.03,-882 1687.03,-878.5 1687.03,-885.5"/>
</g>
<!-- 48 -->
<!-- name: &quot;If False&quot;, typeName: &quot;&quot;, id: 48, branchId: 0, recurseId: &#45;1, attributes: 4, notes: &quot;&quot; -->
<g id="node5" class="node">
<title>48</title>
<polygon fill="none" stroke="black" points="1070.14,-840 1015.56,-822 1070.14,-804 1124.71,-822 1070.14,-840"/>
<text text-anchor="middle" x="1070.14" y="-816.58" font-family="Times New Roman,serif" font-size="14.00">If False</text>
</g>
<!-- 47&#45;&gt;48 -->
<g id="edge4" class="edge">
<title>47&#45;&gt;48</title>
<path fill="none" stroke="black" d="M595.93,-745.32C618.27,-749.19 642.25,-753.29 664.47,-757 792.98,-778.45 944.67,-802.47 1020.64,-814.41"/>
<polygon fill="black" stroke="black" points="1019.81,-817.82 1030.24,-815.91 1020.9,-810.9 1019.81,-817.82"/>
</g>
<!-- 50 -->
<!-- name: &quot;If True&quot;, typeName: &quot;&quot;, id: 50, branchId: 1, recurseId: &#45;1, attributes: 4, notes: &quot;&quot; -->
<g id="node7" class="node">
<title>50</title>
<polygon fill="none" stroke="black" points="727.51,-748 675.76,-730 727.51,-712 779.26,-730 727.51,-748"/>
<text text-anchor="middle" x="727.51" y="-724.58" font-family="Times New Roman,serif" font-size="14.00">If True</text>
</g>
<!-- 47&#45;&gt;50 -->
<g id="edge6" class="edge">
<title>47&#45;&gt;50</title>
<path fill="none" stroke="black" d="M596.26,-730C618.62,-730 642.22,-730 663.1,-730"/>
<polygon fill="black" stroke="black" points="662.88,-733.5 672.88,-730 662.88,-726.5 662.88,-733.5"/>
</g>
<!-- 49 -->
<!-- name: &quot;[No Data]&quot;, typeName: &quot;&quot;, id: 49, branchId: 0, recurseId: &#45;1, attributes: 512, notes: &quot;&quot; -->
<g id="node6" class="node">
<title>49</title>
<ellipse fill="none" stroke="black" cx="1946.5" cy="-828" rx="47.57" ry="18"/>
<text text-anchor="middle" x="1946.5" y="-822.58" font-family="Times New Roman,serif" font-size="14.00">[No Data]</text>
</g>
<!-- 48&#45;&gt;49 -->
<g id="edge5" class="edge">
<title>48&#45;&gt;49</title>
<path fill="none" stroke="black" d="M1125.17,-822.37C1280.36,-823.44 1726.55,-826.5 1887.08,-827.6"/>
<polygon fill="black" stroke="black" points="1887.05,-831.1 1897.07,-827.67 1887.09,-824.1 1887.05,-831.1"/>
</g>
<!-- 51 -->
<!-- name: &quot;Container Slots&quot;, typeName: &quot;&quot;, id: 51, branchId: 0, recurseId: &#45;1, attributes: 8, notes: &quot;&quot; -->
<g id="node8" class="node">
<title>51</title>
<ellipse fill="none" stroke="black" cx="894.58" cy="-730" rx="68.03" ry="18"/>
<text text-anchor="middle" x="894.58" y="-724.58" font-family="Times New Roman,serif" font-size="14.00">Container Slots</text>
</g>
<!-- 50&#45;&gt;51 -->
<g id="edge7" class="edge">
<title>50&#45;&gt;51</title>
<path fill="none" stroke="black" d="M780.74,-730C791.58,-730 803.23,-730 814.78,-730"/>
<polygon fill="black" stroke="black" points="814.75,-733.5 824.75,-730 814.75,-726.5 814.75,-733.5"/>
</g>
<!-- 52 -->
<!-- name: &quot;List Size&quot;, typeName: &quot;&quot;, id: 52, branchId: 0, recurseId: &#45;1, attributes: 0, notes: &quot;&quot; -->
<g id="node9" class="node">
<title>52</title>
<ellipse fill="none" stroke="black" cx="1220.24" cy="-772" rx="42.58" ry="18"/>
<text text-anchor="middle" x="1220.24" y="-766.58" font-family="Times New Roman,serif" font-size="14.00">List Size</text>
</g>
<!-- 51&#45;&gt;52 -->
<g id="edge8" class="edge">
<title>51&#45;&gt;52</title>
<path fill="none" stroke="black" d="M952.19,-739.87C967.25,-742.35 983.53,-744.9 998.61,-747 1056.22,-755.01 1122.55,-762.26 1167.32,-766.87"/>
<polygon fill="black" stroke="black" points="1166.69,-770.32 1176.99,-767.85 1167.4,-763.36 1166.69,-770.32"/>
</g>
<!-- 54 -->
<!-- name: &quot;example element&quot;, typeName: &quot;&quot;, id: 54, branchId: 0, recurseId: &#45;1, attributes: 16, notes: &quot;&quot; -->
<g id="node11" class="node">
<title>54</title>
<ellipse fill="none" stroke="black" stroke-dasharray="1,5" cx="1070.14" cy="-720" rx="71.52" ry="18"/>
<text text-anchor="middle" x="1070.14" y="-714.58" font-family="Times New Roman,serif" font-size="14.00">example element</text>
</g>
<!-- 51&#45;&gt;54 -->
<g id="edge10" class="edge">
<title>51&#45;&gt;54</title>
<path fill="none" stroke="black" d="M961.2,-726.22C970.11,-725.71 979.33,-725.17 988.47,-724.65"/>
<polygon fill="black" stroke="black" points="988.67,-728.14 998.45,-724.07 988.26,-721.15 988.67,-728.14"/>
</g>
<!-- 53 -->
<!-- name: &quot;unsigned varint&quot;, typeName: &quot;&quot;, id: 53, branchId: 0, recurseId: &#45;1, attributes: 512, notes: &quot;&quot; -->
<g id="node10" class="node">
<title>53</title>
<ellipse fill="none" stroke="black" cx="1946.5" cy="-774" rx="66.53" ry="18"/>
<text text-anchor="middle" x="1946.5" y="-768.58" font-family="Times New Roman,serif" font-size="14.00">unsigned varint</text>
</g>
<!-- 52&#45;&gt;53 -->
<g id="edge9" class="edge">
<title>52&#45;&gt;53</title>
<path fill="none" stroke="black" d="M1263.31,-772.12C1381.27,-772.44 1716.47,-773.37 1868.66,-773.79"/>
<polygon fill="black" stroke="black" points="1868.21,-777.29 1878.22,-773.81 1868.23,-770.29 1868.21,-777.29"/>
</g>
<!-- 55 -->
<!-- name: &quot;Container Enum Name&quot;, typeName: &quot;&quot;, id: 55, branchId: 0, recurseId: &#45;1, attributes: 0, notes: &quot;&quot; -->
<g id="node12" class="node">
<title>55</title>
<ellipse fill="none" stroke="black" cx="1393.3" cy="-720" rx="94.48" ry="18"/>
<text text-anchor="middle" x="1393.3" y="-714.58" font-family="Times New Roman,serif" font-size="14.00">Container Enum Name</text>
</g>
<!-- 54&#45;&gt;55 -->
<g id="edge11" class="edge">
<title>54&#45;&gt;55</title>
<path fill="none" stroke="black" d="M1142.01,-720C1184.6,-720 1239.57,-720 1287.14,-720"/>
<polygon fill="black" stroke="black" points="1286.92,-723.5 1296.92,-720 1286.92,-716.5 1286.92,-723.5"/>
</g>
<!-- 57 -->
<!-- name: &quot;Slots&quot;, typeName: &quot;&quot;, id: 57, branchId: 0, recurseId: &#45;1, attributes: 8, notes: &quot;&quot; -->
<g id="node14" class="node">
<title>57</title>
<ellipse fill="none" stroke="black" cx="1220.24" cy="-666" rx="29.61" ry="18"/>
<text text-anchor="middle" x="1220.24" y="-660.58" font-family="Times New Roman,serif" font-size="14.00">Slots</text>
</g>
<!-- 54&#45;&gt;57 -->
<g id="edge13" class="edge">
<title>54&#45;&gt;57</title>
<path fill="none" stroke="black" d="M1112,-705.1C1134.45,-696.91 1162.05,-686.85 1183.62,-678.99"/>
<polygon fill="black" stroke="black" points="1184.67,-682.33 1192.87,-675.61 1182.28,-675.75 1184.67,-682.33"/>
</g>
<!-- 56 -->
<!-- name: &quot;byte&quot;, typeName: &quot;&quot;, id: 56, branchId: 0, recurseId: &#45;1, attributes: 512, notes: &quot;&quot; -->
<g id="node13" class="node">
<title>56</title>
<ellipse fill="none" stroke="black" cx="1946.5" cy="-720" rx="27" ry="18"/>
<text text-anchor="middle" x="1946.5" y="-714.58" font-family="Times New Roman,serif" font-size="14.00">byte</text>
</g>
<!-- 55&#45;&gt;56 -->
<g id="edge12" class="edge">
<title>55&#45;&gt;56</title>
<path fill="none" stroke="black" d="M1488.11,-720C1611.26,-720 1821.82,-720 1907.52,-720"/>
<polygon fill="black" stroke="black" points="1907.49,-723.5 1917.49,-720 1907.49,-716.5 1907.49,-723.5"/>
</g>
<!-- 58 -->
<!-- name: &quot;List Size&quot;, typeName: &quot;&quot;, id: 58, branchId: 0, recurseId: &#45;1, attributes: 0, notes: &quot;&quot; -->
<g id="node15" class="node">
<title>58</title>
<ellipse fill="none" stroke="black" cx="1593.3" cy="-666" rx="42.58" ry="18"/>
<text text-anchor="middle" x="1593.3" y="-660.58" font-family="Times New Roman,serif" font-size="14.00">List Size</text>
</g>
<!-- 57&#45;&gt;58 -->
<g id="edge14" class="edge">
<title>57&#45;&gt;58</title>
<path fill="none" stroke="black" d="M1250.05,-666C1312.21,-666 1459.71,-666 1539.26,-666"/>
<polygon fill="black" stroke="black" points="1538.98,-669.5 1548.98,-666 1538.98,-662.5 1538.98,-669.5"/>
</g>
<!-- 60 -->
<!-- name: &quot;example element&quot;, typeName: &quot;&quot;, id: 60, branchId: 0, recurseId: &#45;1, attributes: 16, notes: &quot;&quot; -->
<g id="node17" class="node">
<title>60</title>
<ellipse fill="none" stroke="black" stroke-dasharray="1,5" cx="1393.3" cy="-616" rx="71.52" ry="18"/>
<text text-anchor="middle" x="1393.3" y="-610.58" font-family="Times New Roman,serif" font-size="14.00">example element</text>
</g>
<!-- 57&#45;&gt;60 -->
<g id="edge16" class="edge">
<title>57&#45;&gt;60</title>
<path fill="none" stroke="black" d="M1247.59,-658.3C1270.61,-651.57 1304.85,-641.56 1334.24,-632.97"/>
<polygon fill="black" stroke="black" points="1335.16,-636.35 1343.78,-630.18 1333.2,-629.63 1335.16,-636.35"/>
</g>
<!-- 59 -->
<!-- name: &quot;unsigned varint&quot;, typeName: &quot;&quot;, id: 59, branchId: 0, recurseId: &#45;1, attributes: 512, notes: &quot;&quot; -->
<g id="node16" class="node">
<title>59</title>
<ellipse fill="none" stroke="black" cx="1946.5" cy="-666" rx="66.53" ry="18"/>
<text text-anchor="middle" x="1946.5" y="-660.58" font-family="Times New Roman,serif" font-size="14.00">unsigned varint</text>
</g>
<!-- 58&#45;&gt;59 -->
<g id="edge15" class="edge">
<title>58&#45;&gt;59</title>
<path fill="none" stroke="black" d="M1636.31,-666C1693.52,-666 1796.94,-666 1868.32,-666"/>
<polygon fill="black" stroke="black" points="1867.98,-669.5 1877.98,-666 1867.98,-662.5 1867.98,-669.5"/>
</g>
<!-- 61 -->
<!-- name: &quot;Slot&quot;, typeName: &quot;&quot;, id: 61, branchId: 0, recurseId: &#45;1, attributes: 0, notes: &quot;&quot; -->
<g id="node18" class="node">
<title>61</title>
<ellipse fill="none" stroke="black" cx="1593.3" cy="-612" rx="27" ry="18"/>
<text text-anchor="middle" x="1593.3" y="-606.58" font-family="Times New Roman,serif" font-size="14.00">Slot</text>
</g>
<!-- 60&#45;&gt;61 -->
<g id="edge17" class="edge">
<title>60&#45;&gt;61</title>
<path fill="none" stroke="black" d="M1464.94,-614.57C1495.24,-613.96 1529.41,-613.27 1554.72,-612.76"/>
<polygon fill="black" stroke="black" points="1554.59,-616.26 1564.51,-612.56 1554.45,-609.26 1554.59,-616.26"/>
</g>
<!-- 62 -->
<!-- name: &quot;byte&quot;, typeName: &quot;&quot;, id: 62, branchId: 0, recurseId: &#45;1, attributes: 512, notes: &quot;&quot; -->
<g id="node19" class="node">
<title>62</title>
<ellipse fill="none" stroke="black" cx="1946.5" cy="-612" rx="27" ry="18"/>
<text text-anchor="middle" x="1946.5" y="-606.58" font-family="Times New Roman,serif" font-size="14.00">byte</text>
</g>
<!-- 61&#45;&gt;62 -->
<g id="edge18" class="edge">
<title>61&#45;&gt;62</title>
<path fill="none" stroke="black" d="M1620.7,-612C1682.5,-612 1836.75,-612 1908.15,-612"/>
<polygon fill="black" stroke="black" points="1907.76,-615.5 1917.76,-612 1907.76,-608.5 1907.76,-615.5"/>
</g>
<!-- 64 -->
<!-- name: &quot;InventoryTransaction&quot;, typeName: &quot;&quot;, id: 64, branchId: 0, recurseId: &#45;1, attributes: 512, notes: &quot;&quot; -->
<g id="node21" class="node">
<title>64</title>
<ellipse fill="none" stroke="black" cx="1946.5" cy="-558" rx="89.99" ry="18"/>
<text text-anchor="middle" x="1946.5" y="-552.58" font-family="Times New Roman,serif" font-size="14.00">InventoryTransaction</text>
</g>
<!-- 63&#45;&gt;64 -->
<g id="edge20" class="edge">
<title>63&#45;&gt;64</title>
<path fill="none" stroke="black" d="M626.07,-553.71C702.32,-555.8 803.82,-558 893.58,-558 893.58,-558 893.58,-558 1394.3,-558 1551.65,-558 1734.27,-558 1844.78,-558"/>
<polygon fill="black" stroke="black" points="1844.72,-561.5 1854.72,-558 1844.72,-554.5 1844.72,-561.5"/>
</g>
<!-- 66 -->
<!-- name: &quot;unsigned varint&quot;, typeName: &quot;&quot;, id: 66, branchId: 0, recurseId: &#45;1, attributes: 512, notes: &quot;&quot; -->
<g id="node23" class="node">
<title>66</title>
<ellipse fill="none" stroke="black" cx="1946.5" cy="-504" rx="66.53" ry="18"/>
<text text-anchor="middle" x="1946.5" y="-498.57" font-family="Times New Roman,serif" font-size="14.00">unsigned varint</text>
</g>
<!-- 65&#45;&gt;66 -->
<g id="edge22" class="edge">
<title>65&#45;&gt;66</title>
<path fill="none" stroke="black" d="M952.29,-501.84C1016.91,-502.73 1125.68,-504 1219.24,-504 1219.24,-504 1219.24,-504 1394.3,-504 1563.49,-504 1761.9,-504 1868.46,-504"/>
<polygon fill="black" stroke="black" points="1868.23,-507.5 1878.23,-504 1868.23,-500.5 1868.23,-507.5"/>
</g>
<!-- 68 -->
<!-- name: &quot;unsigned varint&quot;, typeName: &quot;&quot;, id: 68, branchId: 0, recurseId: &#45;1, attributes: 512, notes: &quot;&quot; -->
<g id="node25" class="node">
<title>68</title>
<ellipse fill="none" stroke="black" cx="1946.5" cy="-450" rx="66.53" ry="18"/>
<text text-anchor="middle" x="1946.5" y="-444.57" font-family="Times New Roman,serif" font-size="14.00">unsigned varint</text>
</g>
<!-- 67&#45;&gt;68 -->
<g id="edge24" class="edge">
<title>67&#45;&gt;68</title>
<path fill="none" stroke="black" d="M787.28,-445.66C855.16,-447.44 970.22,-450 1069.14,-450 1069.14,-450 1069.14,-450 1394.3,-450 1563.49,-450 1761.9,-450 1868.46,-450"/>
<polygon fill="black" stroke="black" points="1868.23,-453.5 1878.23,-450 1868.23,-446.5 1868.23,-453.5"/>
</g>
<!-- 70 -->
<!-- name: &quot;NetworkBlockPosition&quot;, typeName: &quot;&quot;, id: 70, branchId: 0, recurseId: &#45;1, attributes: 512, notes: &quot;&quot; -->
<g id="node27" class="node">
<title>70</title>
<ellipse fill="none" stroke="black" cx="1946.5" cy="-396" rx="94.98" ry="18"/>
<text text-anchor="middle" x="1946.5" y="-390.57" font-family="Times New Roman,serif" font-size="14.00">NetworkBlockPosition</text>
</g>
<!-- 69&#45;&gt;70 -->
<g id="edge26" class="edge">
<title>69&#45;&gt;70</title>
<path fill="none" stroke="black" d="M1634.59,-394.23C1684.34,-394.51 1770.86,-395.01 1840.01,-395.4"/>
<polygon fill="black" stroke="black" points="1839.86,-398.9 1849.88,-395.46 1839.9,-391.9 1839.86,-398.9"/>
</g>
<!-- 72 -->
<!-- name: &quot;varint&quot;, typeName: &quot;&quot;, id: 72, branchId: 0, recurseId: &#45;1, attributes: 512, notes: &quot;&quot; -->
<g id="node29" class="node">
<title>72</title>
<ellipse fill="none" stroke="black" cx="1946.5" cy="-342" rx="31.1" ry="18"/>
<text text-anchor="middle" x="1946.5" y="-336.57" font-family="Times New Roman,serif" font-size="14.00">varint</text>
</g>
<!-- 71&#45;&gt;72 -->
<g id="edge28" class="edge">
<title>71&#45;&gt;72</title>
<path fill="none" stroke="black" d="M1422.39,-342C1512.79,-342 1796.49,-342 1903.81,-342"/>
<polygon fill="black" stroke="black" points="1903.6,-345.5 1913.6,-342 1903.6,-338.5 1903.6,-345.5"/>
</g>
<!-- 74 -->
<!-- name: &quot;varint&quot;, typeName: &quot;&quot;, id: 74, branchId: 0, recurseId: &#45;1, attributes: 512, notes: &quot;&quot; -->
<g id="node31" class="node">
<title>74</title>
<ellipse fill="none" stroke="black" cx="1946.5" cy="-288" rx="31.1" ry="18"/>
<text text-anchor="middle" x="1946.5" y="-282.57" font-family="Times New Roman,serif" font-size="14.00">varint</text>
</g>
<!-- 73&#45;&gt;74 -->
<g id="edge30" class="edge">
<title>73&#45;&gt;74</title>
<path fill="none" stroke="black" d="M1247.44,-291.86C1355.88,-291.26 1770.07,-288.97 1903.68,-288.23"/>
<polygon fill="black" stroke="black" points="1903.5,-291.73 1913.48,-288.18 1903.46,-284.73 1903.5,-291.73"/>
</g>
<!-- 76 -->
<!-- name: &quot;NetworkItemStackDescriptor&quot;, typeName: &quot;&quot;, id: 76, branchId: 0, recurseId: &#45;1, attributes: 512, notes: &quot;&quot; -->
<g id="node33" class="node">
<title>76</title>
<ellipse fill="none" stroke="black" cx="1946.5" cy="-234" rx="119.43" ry="18"/>
<text text-anchor="middle" x="1946.5" y="-228.57" font-family="Times New Roman,serif" font-size="14.00">NetworkItemStackDescriptor</text>
</g>
<!-- 75&#45;&gt;76 -->
<g id="edge32" class="edge">
<title>75&#45;&gt;76</title>
<path fill="none" stroke="black" d="M1097.3,-243.7C1203.33,-242.49 1605.31,-237.89 1815.56,-235.49"/>
<polygon fill="black" stroke="black" points="1815.49,-238.99 1825.45,-235.37 1815.41,-231.99 1815.49,-238.99"/>
</g>
<!-- 78 -->
<!-- name: &quot;Vec3&quot;, typeName: &quot;&quot;, id: 78, branchId: 0, recurseId: &#45;1, attributes: 512, notes: &quot;&quot; -->
<g id="node35" class="node">
<title>78</title>
<ellipse fill="none" stroke="black" cx="1946.5" cy="-180" rx="30.11" ry="18"/>
<text text-anchor="middle" x="1946.5" y="-174.57" font-family="Times New Roman,serif" font-size="14.00">Vec3</text>
</g>
<!-- 77&#45;&gt;78 -->
<g id="edge34" class="edge">
<title>77&#45;&gt;78</title>
<path fill="none" stroke="black" d="M958.22,-186.92C1023.4,-183.98 1128.45,-180 1219.24,-180 1219.24,-180 1219.24,-180 1394.3,-180 1585.02,-180 1812.86,-180 1904.42,-180"/>
<polygon fill="black" stroke="black" points="1904.41,-183.5 1914.41,-180 1904.41,-176.5 1904.41,-183.5"/>
</g>
<!-- 80 -->
<!-- name: &quot;Vec3&quot;, typeName: &quot;&quot;, id: 80, branchId: 0, recurseId: &#45;1, attributes: 512, notes: &quot;&quot; -->
<g id="node37" class="node">
<title>80</title>
<ellipse fill="none" stroke="black" cx="1946.5" cy="-126" rx="30.11" ry="18"/>
<text text-anchor="middle" x="1946.5" y="-120.58" font-family="Times New Roman,serif" font-size="14.00">Vec3</text>
</g>
<!-- 79&#45;&gt;80 -->
<g id="edge36" class="edge">
<title>79&#45;&gt;80</title>
<path fill="none" stroke="black" d="M785.35,-146.46C852.88,-138.17 969.01,-126 1069.14,-126 1069.14,-126 1069.14,-126 1394.3,-126 1585.02,-126 1812.86,-126 1904.42,-126"/>
<polygon fill="black" stroke="black" points="1904.41,-129.5 1914.41,-126 1904.41,-122.5 1904.41,-129.5"/>
</g>
<!-- 82 -->
<!-- name: &quot;unsigned varint&quot;, typeName: &quot;&quot;, id: 82, branchId: 0, recurseId: &#45;1, attributes: 512, notes: &quot;&quot; -->
<g id="node39" class="node">
<title>82</title>
<ellipse fill="none" stroke="black" cx="1946.5" cy="-72" rx="66.53" ry="18"/>
<text text-anchor="middle" x="1946.5" y="-66.58" font-family="Times New Roman,serif" font-size="14.00">unsigned varint</text>
</g>
<!-- 81&#45;&gt;82 -->
<g id="edge38" class="edge">
<title>81&#45;&gt;82</title>
<path fill="none" stroke="black" d="M1662.85,-75.22C1721.95,-74.55 1807.21,-73.57 1868.62,-72.88"/>
<polygon fill="black" stroke="black" points="1868.32,-76.38 1878.28,-72.77 1868.24,-69.38 1868.32,-76.38"/>
</g>
<!-- 84 -->
<!-- name: &quot;byte&quot;, typeName: &quot;&quot;, id: 84, branchId: 0, recurseId: &#45;1, attributes: 512, notes: &quot;&quot; -->
<g id="node41" class="node">
<title>84</title>
<ellipse fill="none" stroke="black" cx="1946.5" cy="-18" rx="27" ry="18"/>
<text text-anchor="middle" x="1946.5" y="-12.57" font-family="Times New Roman,serif" font-size="14.00">byte</text>
</g>
<!-- 83&#45;&gt;84 -->
<g id="edge40" class="edge">
<title>83&#45;&gt;84</title>
<path fill="none" stroke="black" d="M609.07,-22.77C686.75,-20.55 796.97,-18 893.58,-18 893.58,-18 893.58,-18 1394.3,-18 1587.34,-18 1818.41,-18 1907.71,-18"/>
<polygon fill="black" stroke="black" points="1907.59,-21.5 1917.59,-18 1907.59,-14.5 1907.59,-21.5"/>
</g>
</g>
</svg>
