<?xml version="1.0" encoding="UTF-8" standalone="no"?>
<!DOCTYPE svg PUBLIC "-//W3C//DTD SVG 1.1//EN"
 "http://www.w3.org/Graphics/SVG/1.1/DTD/svg11.dtd">
<!-- Generated by graphviz version 2.46.1 (20210213.1702)
 -->
<!-- Title: PackedItemUseLegacyInventoryTransaction Pages: 1 -->
<svg width="2104pt" height="854pt"
 viewBox="0.00 0.00 2103.55 854.00" xmlns="http://www.w3.org/2000/svg" xmlns:xlink="http://www.w3.org/1999/xlink">
<g id="graph0" class="graph" transform="scale(1 1) rotate(0) translate(4 850)">
<title>PackedItemUseLegacyInventoryTransaction</title>
<polygon fill="white" stroke="transparent" points="-4,4 -4,-850 2099.55,-850 2099.55,4 -4,4"/>
<!-- 32 -->
<!-- name: &quot;PackedItemUseLegacyInventoryTransaction&quot;, typeName: &quot;&quot;, id: 32, branchId: 0, recurseId: &#45;1, attributes: 0, notes: &quot;&quot; -->
<g id="node1" class="node">
<title>32</title>
<ellipse fill="none" stroke="black" cx="171.58" cy="-288" rx="171.67" ry="18"/>
<text text-anchor="middle" x="171.58" y="-284.3" font-family="Times New Roman,serif" font-size="14.00">PackedItemUseLegacyInventoryTransaction</text>
</g>
<!-- 33 -->
<!-- name: &quot;ID&quot;, typeName: &quot;TypedClientNetId&lt;struct ItemStackLegacyRequestIdTag,int,0&gt;&quot;, id: 33, branchId: 0, recurseId: &#45;1, attributes: 256, notes: &quot;&quot; -->
<g id="node2" class="node">
<title>33</title>
<ellipse fill="none" stroke="black" cx="799.6" cy="-813" rx="27" ry="18"/>
<text text-anchor="middle" x="799.6" y="-809.3" font-family="Times New Roman,serif" font-size="14.00">ID</text>
</g>
<!-- 32&#45;&gt;33 -->
<g id="edge1" class="edge">
<title>32&#45;&gt;33</title>
<path fill="none" stroke="black" d="M175.51,-306.28C187.24,-373.26 237.28,-607.25 379.17,-720 495.17,-812.18 683.71,-817.3 762.36,-814.97"/>
<polygon fill="black" stroke="black" points="762.84,-818.45 772.71,-814.6 762.59,-811.46 762.84,-818.45"/>
</g>
<!-- 38 -->
<!-- name: &quot;Dependency on &#39;valid ID&#39;&quot;, typeName: &quot;&quot;, id: 38, branchId: 0, recurseId: &#45;1, attributes: 2, notes: &quot;&quot; -->
<g id="node4" class="node">
<title>38</title>
<polygon fill="none" stroke="black" points="531.17,-711 379.17,-711 379.17,-675 537.17,-675 537.17,-705 531.17,-711"/>
<polyline fill="none" stroke="black" points="531.17,-711 531.17,-705 "/>
<polyline fill="none" stroke="black" points="537.17,-705 531.17,-705 "/>
<text text-anchor="middle" x="458.17" y="-689.3" font-family="Times New Roman,serif" font-size="14.00">Dependency on &#39;valid ID&#39;</text>
</g>
<!-- 32&#45;&gt;38 -->
<g id="edge3" class="edge">
<title>32&#45;&gt;38</title>
<path fill="none" stroke="black" d="M185.37,-306.19C230.78,-370.82 384.54,-589.64 438.37,-666.24"/>
<polygon fill="black" stroke="black" points="435.81,-668.69 444.42,-674.86 441.54,-664.67 435.81,-668.69"/>
</g>
<!-- 54 -->
<!-- name: &quot;Actions&quot;, typeName: &quot;&quot;, id: 54, branchId: 0, recurseId: &#45;1, attributes: 8, notes: &quot;&quot; -->
<g id="node20" class="node">
<title>54</title>
<ellipse fill="none" stroke="black" cx="1127.68" cy="-450" rx="38.99" ry="18"/>
<text text-anchor="middle" x="1127.68" y="-446.3" font-family="Times New Roman,serif" font-size="14.00">Actions</text>
</g>
<!-- 32&#45;&gt;54 -->
<g id="edge19" class="edge">
<title>32&#45;&gt;54</title>
<path fill="none" stroke="black" d="M194.42,-306.04C230.37,-334.6 305.42,-389.49 379.17,-414 487.09,-449.86 520.19,-438 633.91,-438 633.91,-438 633.91,-438 800.6,-438 899.34,-438 1014.78,-443.56 1078.41,-447.11"/>
<polygon fill="black" stroke="black" points="1078.36,-450.62 1088.54,-447.69 1078.76,-443.63 1078.36,-450.62"/>
</g>
<!-- 60 -->
<!-- name: &quot;Action Type&quot;, typeName: &quot;&quot;, id: 60, branchId: 0, recurseId: &#45;1, attributes: 0, notes: &quot;enumeration: ItemUseInventoryTransaction::ActionType&quot; -->
<g id="node26" class="node">
<title>60</title>
<ellipse fill="none" stroke="black" cx="458.17" cy="-387" rx="56.59" ry="18"/>
<text text-anchor="middle" x="458.17" y="-383.3" font-family="Times New Roman,serif" font-size="14.00">Action Type</text>
</g>
<!-- 32&#45;&gt;60 -->
<g id="edge25" class="edge">
<title>32&#45;&gt;60</title>
<path fill="none" stroke="black" d="M222.16,-305.24C274.82,-323.56 357.49,-352.32 409.44,-370.4"/>
<polygon fill="black" stroke="black" points="408.49,-373.77 419.08,-373.75 410.79,-367.16 408.49,-373.77"/>
</g>
<!-- 62 -->
<!-- name: &quot;Position&quot;, typeName: &quot;NetworkBlockPosition&quot;, id: 62, branchId: 0, recurseId: &#45;1, attributes: 256, notes: &quot;&quot; -->
<g id="node28" class="node">
<title>62</title>
<ellipse fill="none" stroke="black" cx="799.6" cy="-338" rx="40.09" ry="18"/>
<text text-anchor="middle" x="799.6" y="-334.3" font-family="Times New Roman,serif" font-size="14.00">Position</text>
</g>
<!-- 32&#45;&gt;62 -->
<g id="edge27" class="edge">
<title>32&#45;&gt;62</title>
<path fill="none" stroke="black" d="M308.81,-298.88C447.83,-309.98 656.08,-326.62 749.81,-334.1"/>
<polygon fill="black" stroke="black" points="749.61,-337.6 759.86,-334.91 750.17,-330.62 749.61,-337.6"/>
</g>
<!-- 64 -->
<!-- name: &quot;Face&quot;, typeName: &quot;&quot;, id: 64, branchId: 0, recurseId: &#45;1, attributes: 0, notes: &quot;&quot; -->
<g id="node30" class="node">
<title>64</title>
<ellipse fill="none" stroke="black" cx="634.91" cy="-288" rx="28.7" ry="18"/>
<text text-anchor="middle" x="634.91" y="-284.3" font-family="Times New Roman,serif" font-size="14.00">Face</text>
</g>
<!-- 32&#45;&gt;64 -->
<g id="edge29" class="edge">
<title>32&#45;&gt;64</title>
<path fill="none" stroke="black" d="M343.38,-288C435.26,-288 540.75,-288 595.86,-288"/>
<polygon fill="black" stroke="black" points="596.19,-291.5 606.19,-288 596.19,-284.5 596.19,-291.5"/>
</g>
<!-- 66 -->
<!-- name: &quot;Slot&quot;, typeName: &quot;&quot;, id: 66, branchId: 0, recurseId: &#45;1, attributes: 0, notes: &quot;&quot; -->
<g id="node32" class="node">
<title>66</title>
<ellipse fill="none" stroke="black" cx="1481.75" cy="-238" rx="27" ry="18"/>
<text text-anchor="middle" x="1481.75" y="-234.3" font-family="Times New Roman,serif" font-size="14.00">Slot</text>
</g>
<!-- 32&#45;&gt;66 -->
<g id="edge31" class="edge">
<title>32&#45;&gt;66</title>
<path fill="none" stroke="black" d="M267.29,-273C360.36,-259.58 506.54,-242 633.91,-242 633.91,-242 633.91,-242 1128.68,-242 1243.96,-242 1380.46,-239.83 1444.36,-238.69"/>
<polygon fill="black" stroke="black" points="1444.76,-242.18 1454.7,-238.5 1444.63,-235.18 1444.76,-242.18"/>
</g>
<!-- 68 -->
<!-- name: &quot;Item&quot;, typeName: &quot;NetworkItemStackDescriptor&quot;, id: 68, branchId: 0, recurseId: &#45;1, attributes: 256, notes: &quot;&quot; -->
<g id="node34" class="node">
<title>68</title>
<ellipse fill="none" stroke="black" cx="972.74" cy="-188" rx="27" ry="18"/>
<text text-anchor="middle" x="972.74" y="-184.3" font-family="Times New Roman,serif" font-size="14.00">Item</text>
</g>
<!-- 32&#45;&gt;68 -->
<g id="edge33" class="edge">
<title>32&#45;&gt;68</title>
<path fill="none" stroke="black" d="M221.14,-270.68C262.56,-256.68 324,-237.76 379.17,-228 587.41,-191.17 842.33,-187.68 935.47,-187.75"/>
<polygon fill="black" stroke="black" points="935.5,-191.25 945.51,-187.77 935.51,-184.25 935.5,-191.25"/>
</g>
<!-- 70 -->
<!-- name: &quot;From Position&quot;, typeName: &quot;Vec3&quot;, id: 70, branchId: 0, recurseId: &#45;1, attributes: 256, notes: &quot;&quot; -->
<g id="node36" class="node">
<title>70</title>
<ellipse fill="none" stroke="black" cx="799.6" cy="-137" rx="63.09" ry="18"/>
<text text-anchor="middle" x="799.6" y="-133.3" font-family="Times New Roman,serif" font-size="14.00">From Position</text>
</g>
<!-- 32&#45;&gt;70 -->
<g id="edge35" class="edge">
<title>32&#45;&gt;70</title>
<path fill="none" stroke="black" d="M200,-270.19C238.37,-246.22 311.04,-204.25 379.17,-184 497.45,-148.83 641.62,-139.6 726.43,-137.39"/>
<polygon fill="black" stroke="black" points="726.56,-140.89 736.47,-137.16 726.39,-133.89 726.56,-140.89"/>
</g>
<!-- 72 -->
<!-- name: &quot;Click Position&quot;, typeName: &quot;Vec3&quot;, id: 72, branchId: 0, recurseId: &#45;1, attributes: 256, notes: &quot;&quot; -->
<g id="node38" class="node">
<title>72</title>
<ellipse fill="none" stroke="black" cx="634.91" cy="-78" rx="61.99" ry="18"/>
<text text-anchor="middle" x="634.91" y="-74.3" font-family="Times New Roman,serif" font-size="14.00">Click Position</text>
</g>
<!-- 32&#45;&gt;72 -->
<g id="edge37" class="edge">
<title>32&#45;&gt;72</title>
<path fill="none" stroke="black" d="M191.01,-269.87C225.11,-237.4 301.66,-169.41 379.17,-134 439.15,-106.6 513.31,-92.25 566.12,-84.98"/>
<polygon fill="black" stroke="black" points="566.61,-88.44 576.06,-83.65 565.68,-81.5 566.61,-88.44"/>
</g>
<!-- 74 -->
<!-- name: &quot;Target Block Id&quot;, typeName: &quot;&quot;, id: 74, branchId: 0, recurseId: &#45;1, attributes: 0, notes: &quot;&quot; -->
<g id="node40" class="node">
<title>74</title>
<ellipse fill="none" stroke="black" cx="458.17" cy="-25" rx="68.49" ry="18"/>
<text text-anchor="middle" x="458.17" y="-21.3" font-family="Times New Roman,serif" font-size="14.00">Target Block Id</text>
</g>
<!-- 32&#45;&gt;74 -->
<g id="edge39" class="edge">
<title>32&#45;&gt;74</title>
<path fill="none" stroke="black" d="M190.36,-269.93C225.57,-234.38 306.98,-153.2 379.17,-89 394.74,-75.15 412.69,-60.35 427.43,-48.48"/>
<polygon fill="black" stroke="black" points="429.65,-51.19 435.26,-42.2 425.27,-45.73 429.65,-51.19"/>
</g>
<!-- 37 -->
<!-- name: &quot;TypedClientNetId&lt;struct ItemStackLegacyRequestIdTag,int,0&gt;&quot;, typeName: &quot;&quot;, id: 37, branchId: 0, recurseId: &#45;1, attributes: 512, notes: &quot;&quot; -->
<g id="node3" class="node">
<title>37</title>
<ellipse fill="none" stroke="black" cx="1853.13" cy="-828" rx="242.36" ry="18"/>
<text text-anchor="middle" x="1853.13" y="-824.3" font-family="Times New Roman,serif" font-size="14.00">TypedClientNetId&lt;struct ItemStackLegacyRequestIdTag,int,0&gt;</text>
</g>
<!-- 33&#45;&gt;37 -->
<g id="edge2" class="edge">
<title>33&#45;&gt;37</title>
<path fill="none" stroke="black" d="M826.79,-815.02C882.12,-819.12 1015.04,-828 1126.68,-828 1126.68,-828 1126.68,-828 1283.62,-828 1387.27,-828 1501.55,-828 1600.3,-828"/>
<polygon fill="black" stroke="black" points="1600.42,-831.5 1610.42,-828 1600.42,-824.5 1600.42,-831.5"/>
</g>
<!-- 39 -->
<!-- name: &quot;if (0)&quot;, typeName: &quot;&quot;, id: 39, branchId: 0, recurseId: &#45;1, attributes: 4, notes: &quot;&quot; -->
<g id="node5" class="node">
<title>39</title>
<polygon fill="none" stroke="black" points="972.74,-786 932.35,-768 972.74,-750 1013.13,-768 972.74,-786"/>
<text text-anchor="middle" x="972.74" y="-764.3" font-family="Times New Roman,serif" font-size="14.00">if (0)</text>
</g>
<!-- 38&#45;&gt;39 -->
<g id="edge4" class="edge">
<title>38&#45;&gt;39</title>
<path fill="none" stroke="black" d="M529.76,-711.03C544.07,-714.31 559.05,-717.49 573.17,-720 701.19,-742.79 854.31,-757.86 927.95,-764.35"/>
<polygon fill="black" stroke="black" points="927.95,-767.87 938.22,-765.25 928.56,-760.89 927.95,-767.87"/>
</g>
<!-- 41 -->
<!-- name: &quot;if (1)&quot;, typeName: &quot;&quot;, id: 41, branchId: 1, recurseId: &#45;1, attributes: 4, notes: &quot;&quot; -->
<g id="node7" class="node">
<title>41</title>
<polygon fill="none" stroke="black" points="634.91,-711 594.53,-693 634.91,-675 675.3,-693 634.91,-711"/>
<text text-anchor="middle" x="634.91" y="-689.3" font-family="Times New Roman,serif" font-size="14.00">if (1)</text>
</g>
<!-- 38&#45;&gt;41 -->
<g id="edge6" class="edge">
<title>38&#45;&gt;41</title>
<path fill="none" stroke="black" d="M537.34,-693C553.14,-693 569.34,-693 583.85,-693"/>
<polygon fill="black" stroke="black" points="584.08,-696.5 594.08,-693 584.08,-689.5 584.08,-696.5"/>
</g>
<!-- 40 -->
<!-- name: &quot;[No Data]&quot;, typeName: &quot;&quot;, id: 40, branchId: 0, recurseId: &#45;1, attributes: 512, notes: &quot;&quot; -->
<g id="node6" class="node">
<title>40</title>
<ellipse fill="none" stroke="black" cx="1853.13" cy="-774" rx="46.59" ry="18"/>
<text text-anchor="middle" x="1853.13" y="-770.3" font-family="Times New Roman,serif" font-size="14.00">[No Data]</text>
</g>
<!-- 39&#45;&gt;40 -->
<g id="edge5" class="edge">
<title>39&#45;&gt;40</title>
<path fill="none" stroke="black" d="M1012.62,-768.27C1152.56,-769.22 1631.04,-772.49 1795.82,-773.62"/>
<polygon fill="black" stroke="black" points="1796.19,-777.12 1806.22,-773.69 1796.24,-770.12 1796.19,-777.12"/>
</g>
<!-- 42 -->
<!-- name: &quot;Container Slots&quot;, typeName: &quot;&quot;, id: 42, branchId: 0, recurseId: &#45;1, attributes: 8, notes: &quot;&quot; -->
<g id="node8" class="node">
<title>42</title>
<ellipse fill="none" stroke="black" cx="799.6" cy="-693" rx="66.89" ry="18"/>
<text text-anchor="middle" x="799.6" y="-689.3" font-family="Times New Roman,serif" font-size="14.00">Container Slots</text>
</g>
<!-- 41&#45;&gt;42 -->
<g id="edge7" class="edge">
<title>41&#45;&gt;42</title>
<path fill="none" stroke="black" d="M675.71,-693C689.89,-693 706.37,-693 722.57,-693"/>
<polygon fill="black" stroke="black" points="722.59,-696.5 732.59,-693 722.59,-689.5 722.59,-696.5"/>
</g>
<!-- 43 -->
<!-- name: &quot;Array Size&quot;, typeName: &quot;&quot;, id: 43, branchId: 0, recurseId: &#45;1, attributes: 0, notes: &quot;&quot; -->
<g id="node9" class="node">
<title>43</title>
<ellipse fill="none" stroke="black" cx="1127.68" cy="-718" rx="48.99" ry="18"/>
<text text-anchor="middle" x="1127.68" y="-714.3" font-family="Times New Roman,serif" font-size="14.00">Array Size</text>
</g>
<!-- 42&#45;&gt;43 -->
<g id="edge8" class="edge">
<title>42&#45;&gt;43</title>
<path fill="none" stroke="black" d="M864.25,-697.88C923.87,-702.45 1012.17,-709.22 1069.57,-713.62"/>
<polygon fill="black" stroke="black" points="1069.33,-717.11 1079.56,-714.39 1069.86,-710.13 1069.33,-717.11"/>
</g>
<!-- 45 -->
<!-- name: &quot;example element&quot;, typeName: &quot;&quot;, id: 45, branchId: 0, recurseId: &#45;1, attributes: 16, notes: &quot;&quot; -->
<g id="node11" class="node">
<title>45</title>
<ellipse fill="none" stroke="black" stroke-dasharray="1,5" cx="972.74" cy="-666" rx="70.39" ry="18"/>
<text text-anchor="middle" x="972.74" y="-662.3" font-family="Times New Roman,serif" font-size="14.00">example element</text>
</g>
<!-- 42&#45;&gt;45 -->
<g id="edge10" class="edge">
<title>42&#45;&gt;45</title>
<path fill="none" stroke="black" d="M858.07,-683.93C872.35,-681.68 887.8,-679.24 902.58,-676.91"/>
<polygon fill="black" stroke="black" points="903.34,-680.33 912.68,-675.32 902.25,-673.42 903.34,-680.33"/>
</g>
<!-- 44 -->
<!-- name: &quot;unsigned varint&quot;, typeName: &quot;&quot;, id: 44, branchId: 0, recurseId: &#45;1, attributes: 512, notes: &quot;&quot; -->
<g id="node10" class="node">
<title>44</title>
<ellipse fill="none" stroke="black" cx="1853.13" cy="-720" rx="65.79" ry="18"/>
<text text-anchor="middle" x="1853.13" y="-716.3" font-family="Times New Roman,serif" font-size="14.00">unsigned varint</text>
</g>
<!-- 43&#45;&gt;44 -->
<g id="edge9" class="edge">
<title>43&#45;&gt;44</title>
<path fill="none" stroke="black" d="M1176.43,-718.13C1299.46,-718.47 1628.07,-719.38 1776.95,-719.79"/>
<polygon fill="black" stroke="black" points="1777.35,-723.29 1787.36,-719.82 1777.37,-716.29 1777.35,-723.29"/>
</g>
<!-- 46 -->
<!-- name: &quot;Container Enum Name&quot;, typeName: &quot;&quot;, id: 46, branchId: 0, recurseId: &#45;1, attributes: 0, notes: &quot;enumeration: ContainerEnumName&quot; -->
<g id="node12" class="node">
<title>46</title>
<ellipse fill="none" stroke="black" cx="1481.75" cy="-666" rx="92.88" ry="18"/>
<text text-anchor="middle" x="1481.75" y="-662.3" font-family="Times New Roman,serif" font-size="14.00">Container Enum Name</text>
</g>
<!-- 45&#45;&gt;46 -->
<g id="edge11" class="edge">
<title>45&#45;&gt;46</title>
<path fill="none" stroke="black" d="M1043.18,-666C1129.83,-666 1278.75,-666 1378.47,-666"/>
<polygon fill="black" stroke="black" points="1378.57,-669.5 1388.57,-666 1378.57,-662.5 1378.57,-669.5"/>
</g>
<!-- 48 -->
<!-- name: &quot;Slots&quot;, typeName: &quot;&quot;, id: 48, branchId: 0, recurseId: &#45;1, attributes: 8, notes: &quot;&quot; -->
<g id="node14" class="node">
<title>48</title>
<ellipse fill="none" stroke="black" cx="1127.68" cy="-612" rx="29.5" ry="18"/>
<text text-anchor="middle" x="1127.68" y="-608.3" font-family="Times New Roman,serif" font-size="14.00">Slots</text>
</g>
<!-- 45&#45;&gt;48 -->
<g id="edge13" class="edge">
<title>45&#45;&gt;48</title>
<path fill="none" stroke="black" d="M1014.73,-651.53C1038.93,-642.98 1069.22,-632.29 1092.19,-624.18"/>
<polygon fill="black" stroke="black" points="1093.6,-627.39 1101.87,-620.76 1091.27,-620.79 1093.6,-627.39"/>
</g>
<!-- 47 -->
<!-- name: &quot;byte&quot;, typeName: &quot;&quot;, id: 47, branchId: 0, recurseId: &#45;1, attributes: 512, notes: &quot;&quot; -->
<g id="node13" class="node">
<title>47</title>
<ellipse fill="none" stroke="black" cx="1853.13" cy="-666" rx="27" ry="18"/>
<text text-anchor="middle" x="1853.13" y="-662.3" font-family="Times New Roman,serif" font-size="14.00">byte</text>
</g>
<!-- 46&#45;&gt;47 -->
<g id="edge12" class="edge">
<title>46&#45;&gt;47</title>
<path fill="none" stroke="black" d="M1575.01,-666C1652.9,-666 1760.34,-666 1815.78,-666"/>
<polygon fill="black" stroke="black" points="1815.82,-669.5 1825.82,-666 1815.82,-662.5 1815.82,-669.5"/>
</g>
<!-- 49 -->
<!-- name: &quot;Array Size&quot;, typeName: &quot;&quot;, id: 49, branchId: 0, recurseId: &#45;1, attributes: 0, notes: &quot;&quot; -->
<g id="node15" class="node">
<title>49</title>
<ellipse fill="none" stroke="black" cx="1282.62" cy="-612" rx="48.99" ry="18"/>
<text text-anchor="middle" x="1282.62" y="-608.3" font-family="Times New Roman,serif" font-size="14.00">Array Size</text>
</g>
<!-- 48&#45;&gt;49 -->
<g id="edge14" class="edge">
<title>48&#45;&gt;49</title>
<path fill="none" stroke="black" d="M1157.09,-612C1175.74,-612 1200.81,-612 1223.57,-612"/>
<polygon fill="black" stroke="black" points="1223.83,-615.5 1233.83,-612 1223.83,-608.5 1223.83,-615.5"/>
</g>
<!-- 51 -->
<!-- name: &quot;example element&quot;, typeName: &quot;&quot;, id: 51, branchId: 0, recurseId: &#45;1, attributes: 16, notes: &quot;&quot; -->
<g id="node17" class="node">
<title>51</title>
<ellipse fill="none" stroke="black" stroke-dasharray="1,5" cx="1282.62" cy="-558" rx="70.39" ry="18"/>
<text text-anchor="middle" x="1282.62" y="-554.3" font-family="Times New Roman,serif" font-size="14.00">example element</text>
</g>
<!-- 48&#45;&gt;51 -->
<g id="edge16" class="edge">
<title>48&#45;&gt;51</title>
<path fill="none" stroke="black" d="M1153.59,-603.2C1174.46,-595.84 1204.91,-585.09 1230.88,-575.92"/>
<polygon fill="black" stroke="black" points="1232.32,-579.12 1240.58,-572.49 1229.99,-572.52 1232.32,-579.12"/>
</g>
<!-- 50 -->
<!-- name: &quot;unsigned varint&quot;, typeName: &quot;&quot;, id: 50, branchId: 0, recurseId: &#45;1, attributes: 512, notes: &quot;&quot; -->
<g id="node16" class="node">
<title>50</title>
<ellipse fill="none" stroke="black" cx="1853.13" cy="-612" rx="65.79" ry="18"/>
<text text-anchor="middle" x="1853.13" y="-608.3" font-family="Times New Roman,serif" font-size="14.00">unsigned varint</text>
</g>
<!-- 49&#45;&gt;50 -->
<g id="edge15" class="edge">
<title>49&#45;&gt;50</title>
<path fill="none" stroke="black" d="M1331.6,-612C1430.7,-612 1658.63,-612 1777.28,-612"/>
<polygon fill="black" stroke="black" points="1777.37,-615.5 1787.37,-612 1777.37,-608.5 1777.37,-615.5"/>
</g>
<!-- 52 -->
<!-- name: &quot;Slot&quot;, typeName: &quot;&quot;, id: 52, branchId: 0, recurseId: &#45;1, attributes: 0, notes: &quot;&quot; -->
<g id="node18" class="node">
<title>52</title>
<ellipse fill="none" stroke="black" cx="1481.75" cy="-558" rx="27" ry="18"/>
<text text-anchor="middle" x="1481.75" y="-554.3" font-family="Times New Roman,serif" font-size="14.00">Slot</text>
</g>
<!-- 51&#45;&gt;52 -->
<g id="edge17" class="edge">
<title>51&#45;&gt;52</title>
<path fill="none" stroke="black" d="M1352.84,-558C1383.66,-558 1418.68,-558 1444.28,-558"/>
<polygon fill="black" stroke="black" points="1444.29,-561.5 1454.29,-558 1444.29,-554.5 1444.29,-561.5"/>
</g>
<!-- 53 -->
<!-- name: &quot;byte&quot;, typeName: &quot;&quot;, id: 53, branchId: 0, recurseId: &#45;1, attributes: 512, notes: &quot;&quot; -->
<g id="node19" class="node">
<title>53</title>
<ellipse fill="none" stroke="black" cx="1853.13" cy="-558" rx="27" ry="18"/>
<text text-anchor="middle" x="1853.13" y="-554.3" font-family="Times New Roman,serif" font-size="14.00">byte</text>
</g>
<!-- 52&#45;&gt;53 -->
<g id="edge18" class="edge">
<title>52&#45;&gt;53</title>
<path fill="none" stroke="black" d="M1509.02,-558C1573.74,-558 1741.01,-558 1815.46,-558"/>
<polygon fill="black" stroke="black" points="1815.74,-561.5 1825.74,-558 1815.74,-554.5 1815.74,-561.5"/>
</g>
<!-- 55 -->
<!-- name: &quot;Array Size&quot;, typeName: &quot;&quot;, id: 55, branchId: 0, recurseId: &#45;1, attributes: 0, notes: &quot;&quot; -->
<g id="node21" class="node">
<title>55</title>
<ellipse fill="none" stroke="black" cx="1282.62" cy="-504" rx="48.99" ry="18"/>
<text text-anchor="middle" x="1282.62" y="-500.3" font-family="Times New Roman,serif" font-size="14.00">Array Size</text>
</g>
<!-- 54&#45;&gt;55 -->
<g id="edge20" class="edge">
<title>54&#45;&gt;55</title>
<path fill="none" stroke="black" d="M1159.26,-460.8C1181.58,-468.68 1212.17,-479.48 1237.18,-488.31"/>
<polygon fill="black" stroke="black" points="1236.22,-491.68 1246.81,-491.71 1238.55,-485.08 1236.22,-491.68"/>
</g>
<!-- 57 -->
<!-- name: &quot;example element&quot;, typeName: &quot;&quot;, id: 57, branchId: 0, recurseId: &#45;1, attributes: 16, notes: &quot;&quot; -->
<g id="node23" class="node">
<title>57</title>
<ellipse fill="none" stroke="black" stroke-dasharray="1,5" cx="1282.62" cy="-450" rx="70.39" ry="18"/>
<text text-anchor="middle" x="1282.62" y="-446.3" font-family="Times New Roman,serif" font-size="14.00">example element</text>
</g>
<!-- 54&#45;&gt;57 -->
<g id="edge22" class="edge">
<title>54&#45;&gt;57</title>
<path fill="none" stroke="black" d="M1166.88,-450C1177.66,-450 1189.81,-450 1202.07,-450"/>
<polygon fill="black" stroke="black" points="1202.36,-453.5 1212.36,-450 1202.36,-446.5 1202.36,-453.5"/>
</g>
<!-- 56 -->
<!-- name: &quot;unsigned varint&quot;, typeName: &quot;&quot;, id: 56, branchId: 0, recurseId: &#45;1, attributes: 512, notes: &quot;&quot; -->
<g id="node22" class="node">
<title>56</title>
<ellipse fill="none" stroke="black" cx="1853.13" cy="-504" rx="65.79" ry="18"/>
<text text-anchor="middle" x="1853.13" y="-500.3" font-family="Times New Roman,serif" font-size="14.00">unsigned varint</text>
</g>
<!-- 55&#45;&gt;56 -->
<g id="edge21" class="edge">
<title>55&#45;&gt;56</title>
<path fill="none" stroke="black" d="M1331.6,-504C1430.7,-504 1658.63,-504 1777.28,-504"/>
<polygon fill="black" stroke="black" points="1777.37,-507.5 1787.37,-504 1777.37,-500.5 1777.37,-507.5"/>
</g>
<!-- 58 -->
<!-- name: &quot;Action&quot;, typeName: &quot;InventoryAction&quot;, id: 58, branchId: 0, recurseId: &#45;1, attributes: 256, notes: &quot;&quot; -->
<g id="node24" class="node">
<title>58</title>
<ellipse fill="none" stroke="black" cx="1481.75" cy="-450" rx="35.19" ry="18"/>
<text text-anchor="middle" x="1481.75" y="-446.3" font-family="Times New Roman,serif" font-size="14.00">Action</text>
</g>
<!-- 57&#45;&gt;58 -->
<g id="edge23" class="edge">
<title>57&#45;&gt;58</title>
<path fill="none" stroke="black" d="M1352.84,-450C1380.61,-450 1411.79,-450 1436.41,-450"/>
<polygon fill="black" stroke="black" points="1436.54,-453.5 1446.54,-450 1436.54,-446.5 1436.54,-453.5"/>
</g>
<!-- 59 -->
<!-- name: &quot;InventoryAction&quot;, typeName: &quot;&quot;, id: 59, branchId: 0, recurseId: &#45;1, attributes: 512, notes: &quot;&quot; -->
<g id="node25" class="node">
<title>59</title>
<ellipse fill="none" stroke="black" cx="1853.13" cy="-450" rx="69.59" ry="18"/>
<text text-anchor="middle" x="1853.13" y="-446.3" font-family="Times New Roman,serif" font-size="14.00">InventoryAction</text>
</g>
<!-- 58&#45;&gt;59 -->
<g id="edge24" class="edge">
<title>58&#45;&gt;59</title>
<path fill="none" stroke="black" d="M1517.17,-450C1575.11,-450 1693.53,-450 1772.89,-450"/>
<polygon fill="black" stroke="black" points="1773.34,-453.5 1783.34,-450 1773.34,-446.5 1773.34,-453.5"/>
</g>
<!-- 61 -->
<!-- name: &quot;unsigned varint&quot;, typeName: &quot;&quot;, id: 61, branchId: 0, recurseId: &#45;1, attributes: 512, notes: &quot;&quot; -->
<g id="node27" class="node">
<title>61</title>
<ellipse fill="none" stroke="black" cx="1853.13" cy="-396" rx="65.79" ry="18"/>
<text text-anchor="middle" x="1853.13" y="-392.3" font-family="Times New Roman,serif" font-size="14.00">unsigned varint</text>
</g>
<!-- 60&#45;&gt;61 -->
<g id="edge26" class="edge">
<title>60&#45;&gt;61</title>
<path fill="none" stroke="black" d="M514.42,-389.36C581.59,-392.03 698.39,-396 798.6,-396 798.6,-396 798.6,-396 1283.62,-396 1460.51,-396 1668.35,-396 1777.12,-396"/>
<polygon fill="black" stroke="black" points="1777.33,-399.5 1787.33,-396 1777.33,-392.5 1777.33,-399.5"/>
</g>
<!-- 63 -->
<!-- name: &quot;NetworkBlockPosition&quot;, typeName: &quot;&quot;, id: 63, branchId: 0, recurseId: &#45;1, attributes: 512, notes: &quot;&quot; -->
<g id="node29" class="node">
<title>63</title>
<ellipse fill="none" stroke="black" cx="1853.13" cy="-342" rx="92.88" ry="18"/>
<text text-anchor="middle" x="1853.13" y="-338.3" font-family="Times New Roman,serif" font-size="14.00">NetworkBlockPosition</text>
</g>
<!-- 62&#45;&gt;63 -->
<g id="edge28" class="edge">
<title>62&#45;&gt;63</title>
<path fill="none" stroke="black" d="M840,-338.8C901.3,-339.96 1023.22,-342 1126.68,-342 1126.68,-342 1126.68,-342 1283.62,-342 1446.73,-342 1636.17,-342 1749.97,-342"/>
<polygon fill="black" stroke="black" points="1750.06,-345.5 1760.06,-342 1750.06,-338.5 1750.06,-345.5"/>
</g>
<!-- 65 -->
<!-- name: &quot;varint&quot;, typeName: &quot;&quot;, id: 65, branchId: 0, recurseId: &#45;1, attributes: 512, notes: &quot;&quot; -->
<g id="node31" class="node">
<title>65</title>
<ellipse fill="none" stroke="black" cx="1853.13" cy="-288" rx="30.59" ry="18"/>
<text text-anchor="middle" x="1853.13" y="-284.3" font-family="Times New Roman,serif" font-size="14.00">varint</text>
</g>
<!-- 64&#45;&gt;65 -->
<g id="edge30" class="edge">
<title>64&#45;&gt;65</title>
<path fill="none" stroke="black" d="M663.78,-288C721.32,-288 857.47,-288 971.74,-288 971.74,-288 971.74,-288 1283.62,-288 1482.25,-288 1719.91,-288 1812.49,-288"/>
<polygon fill="black" stroke="black" points="1812.53,-291.5 1822.53,-288 1812.53,-284.5 1812.53,-291.5"/>
</g>
<!-- 67 -->
<!-- name: &quot;varint&quot;, typeName: &quot;&quot;, id: 67, branchId: 0, recurseId: &#45;1, attributes: 512, notes: &quot;&quot; -->
<g id="node33" class="node">
<title>67</title>
<ellipse fill="none" stroke="black" cx="1853.13" cy="-234" rx="30.59" ry="18"/>
<text text-anchor="middle" x="1853.13" y="-230.3" font-family="Times New Roman,serif" font-size="14.00">varint</text>
</g>
<!-- 66&#45;&gt;67 -->
<g id="edge32" class="edge">
<title>66&#45;&gt;67</title>
<path fill="none" stroke="black" d="M1509.02,-237.72C1572.85,-237.02 1736.43,-235.25 1812.33,-234.43"/>
<polygon fill="black" stroke="black" points="1812.48,-237.93 1822.44,-234.32 1812.4,-230.93 1812.48,-237.93"/>
</g>
<!-- 69 -->
<!-- name: &quot;NetworkItemStackDescriptor&quot;, typeName: &quot;&quot;, id: 69, branchId: 0, recurseId: &#45;1, attributes: 512, notes: &quot;&quot; -->
<g id="node35" class="node">
<title>69</title>
<ellipse fill="none" stroke="black" cx="1853.13" cy="-180" rx="116.98" ry="18"/>
<text text-anchor="middle" x="1853.13" y="-176.3" font-family="Times New Roman,serif" font-size="14.00">NetworkItemStackDescriptor</text>
</g>
<!-- 68&#45;&gt;69 -->
<g id="edge34" class="edge">
<title>68&#45;&gt;69</title>
<path fill="none" stroke="black" d="M1000.03,-187.76C1107.32,-186.78 1516.25,-183.06 1726.16,-181.15"/>
<polygon fill="black" stroke="black" points="1726.34,-184.65 1736.31,-181.05 1726.28,-177.65 1726.34,-184.65"/>
</g>
<!-- 71 -->
<!-- name: &quot;Vec3&quot;, typeName: &quot;&quot;, id: 71, branchId: 0, recurseId: &#45;1, attributes: 512, notes: &quot;&quot; -->
<g id="node37" class="node">
<title>71</title>
<ellipse fill="none" stroke="black" cx="1853.13" cy="-126" rx="29.8" ry="18"/>
<text text-anchor="middle" x="1853.13" y="-122.3" font-family="Times New Roman,serif" font-size="14.00">Vec3</text>
</g>
<!-- 70&#45;&gt;71 -->
<g id="edge36" class="edge">
<title>70&#45;&gt;71</title>
<path fill="none" stroke="black" d="M861.88,-133.7C927.4,-130.46 1034.35,-126 1126.68,-126 1126.68,-126 1126.68,-126 1283.62,-126 1482.52,-126 1720.56,-126 1812.87,-126"/>
<polygon fill="black" stroke="black" points="1813.14,-129.5 1823.14,-126 1813.13,-122.5 1813.14,-129.5"/>
</g>
<!-- 73 -->
<!-- name: &quot;Vec3&quot;, typeName: &quot;&quot;, id: 73, branchId: 0, recurseId: &#45;1, attributes: 512, notes: &quot;&quot; -->
<g id="node39" class="node">
<title>73</title>
<ellipse fill="none" stroke="black" cx="1853.13" cy="-72" rx="29.8" ry="18"/>
<text text-anchor="middle" x="1853.13" y="-68.3" font-family="Times New Roman,serif" font-size="14.00">Vec3</text>
</g>
<!-- 72&#45;&gt;73 -->
<g id="edge38" class="edge">
<title>72&#45;&gt;73</title>
<path fill="none" stroke="black" d="M696.58,-76.26C763.83,-74.49 875.52,-72 971.74,-72 971.74,-72 971.74,-72 1283.62,-72 1482.52,-72 1720.56,-72 1812.87,-72"/>
<polygon fill="black" stroke="black" points="1813.14,-75.5 1823.14,-72 1813.13,-68.5 1813.14,-75.5"/>
</g>
<!-- 75 -->
<!-- name: &quot;unsigned varint&quot;, typeName: &quot;&quot;, id: 75, branchId: 0, recurseId: &#45;1, attributes: 512, notes: &quot;&quot; -->
<g id="node41" class="node">
<title>75</title>
<ellipse fill="none" stroke="black" cx="1853.13" cy="-18" rx="65.79" ry="18"/>
<text text-anchor="middle" x="1853.13" y="-14.3" font-family="Times New Roman,serif" font-size="14.00">unsigned varint</text>
</g>
<!-- 74&#45;&gt;75 -->
<g id="edge40" class="edge">
<title>74&#45;&gt;75</title>
<path fill="none" stroke="black" d="M526.14,-22.8C594.6,-20.75 704,-18 798.6,-18 798.6,-18 798.6,-18 1283.62,-18 1460.51,-18 1668.35,-18 1777.12,-18"/>
<polygon fill="black" stroke="black" points="1777.33,-21.5 1787.33,-18 1777.33,-14.5 1777.33,-21.5"/>
</g>
</g>
</svg>
