<?xml version="1.0" encoding="UTF-8" standalone="no"?>
<!DOCTYPE svg PUBLIC "-//W3C//DTD SVG 1.1//EN"
 "http://www.w3.org/Graphics/SVG/1.1/DTD/svg11.dtd">
<!-- Generated by graphviz version 14.1.5 (20260411.2331)
 -->
<!-- Title: PackInstanceId Pages: 1 -->
<svg width="420pt" height="152pt"
 viewBox="0.00 0.00 420.00 152.00" xmlns="http://www.w3.org/2000/svg" xmlns:xlink="http://www.w3.org/1999/xlink">
<g id="graph0" class="graph" transform="scale(1 1) rotate(0) translate(4 148)">
<title>PackInstanceId</title>
<polygon fill="white" stroke="none" points="-4,4 -4,-148 415.84,-148 415.84,4 -4,4"/>
<!-- 0 -->
<!-- name: &quot;PackInstanceId&quot;, typeName: &quot;&quot;, id: 0, branchId: 0, recurseId: &#45;1, attributes: 0, notes: &quot;&quot; -->
<g id="node1" class="node">
<title>0</title>
<ellipse fill="none" stroke="black" cx="67.22" cy="-72" rx="67.22" ry="18"/>
<text xml:space="preserve" text-anchor="middle" x="67.22" y="-66.95" font-family="Times New Roman,serif" font-size="14.00">PackInstanceId</text>
</g>
<!-- 1 -->
<!-- name: &quot;Pack ID&quot;, typeName: &quot;&quot;, id: 1, branchId: 0, recurseId: &#45;1, attributes: 0, notes: &quot;UUID of the pack&quot; -->
<g id="node2" class="node">
<title>1</title>
<ellipse fill="none" stroke="black" cx="241.24" cy="-126" rx="41.12" ry="18"/>
<text xml:space="preserve" text-anchor="middle" x="241.24" y="-120.95" font-family="Times New Roman,serif" font-size="14.00">Pack ID</text>
</g>
<!-- 0&#45;&gt;1 -->
<g id="edge1" class="edge">
<title>0&#45;&gt;1</title>
<path fill="none" stroke="black" d="M112.07,-85.77C137.82,-93.85 170.27,-104.04 196.08,-112.14"/>
<polygon fill="black" stroke="black" points="195.02,-115.47 205.61,-115.13 197.12,-108.8 195.02,-115.47"/>
</g>
<!-- 3 -->
<!-- name: &quot;Version&quot;, typeName: &quot;&quot;, id: 3, branchId: 0, recurseId: &#45;1, attributes: 0, notes: &quot;SemVer version of the pack&quot; -->
<g id="node4" class="node">
<title>3</title>
<ellipse fill="none" stroke="black" cx="241.24" cy="-72" rx="39.07" ry="18"/>
<text xml:space="preserve" text-anchor="middle" x="241.24" y="-66.95" font-family="Times New Roman,serif" font-size="14.00">Version</text>
</g>
<!-- 0&#45;&gt;3 -->
<g id="edge3" class="edge">
<title>0&#45;&gt;3</title>
<path fill="none" stroke="black" d="M134.72,-72C153.34,-72 173.24,-72 190.68,-72"/>
<polygon fill="black" stroke="black" points="190.24,-75.5 200.24,-72 190.24,-68.5 190.24,-75.5"/>
</g>
<!-- 5 -->
<!-- name: &quot;Sub Pack Name&quot;, typeName: &quot;&quot;, id: 5, branchId: 0, recurseId: &#45;1, attributes: 0, notes: &quot;&quot; -->
<g id="node6" class="node">
<title>5</title>
<ellipse fill="none" stroke="black" cx="241.24" cy="-18" rx="70.8" ry="18"/>
<text xml:space="preserve" text-anchor="middle" x="241.24" y="-12.95" font-family="Times New Roman,serif" font-size="14.00">Sub Pack Name</text>
</g>
<!-- 0&#45;&gt;5 -->
<g id="edge5" class="edge">
<title>0&#45;&gt;5</title>
<path fill="none" stroke="black" d="M112.07,-58.23C134.07,-51.33 160.95,-42.89 184.41,-35.52"/>
<polygon fill="black" stroke="black" points="185.33,-38.91 193.82,-32.57 183.23,-32.23 185.33,-38.91"/>
</g>
<!-- 2 -->
<!-- name: &quot;string&quot;, typeName: &quot;&quot;, id: 2, branchId: 0, recurseId: &#45;1, attributes: 512, notes: &quot;UUID of the pack&quot; -->
<g id="node3" class="node">
<title>2</title>
<ellipse fill="none" stroke="black" cx="379.94" cy="-126" rx="31.9" ry="18"/>
<text xml:space="preserve" text-anchor="middle" x="379.94" y="-120.95" font-family="Times New Roman,serif" font-size="14.00">string</text>
</g>
<!-- 1&#45;&gt;2 -->
<g id="edge2" class="edge">
<title>1&#45;&gt;2</title>
<path fill="none" stroke="black" d="M282.51,-126C299.4,-126 319.07,-126 336.21,-126"/>
<polygon fill="black" stroke="black" points="336.1,-129.5 346.1,-126 336.1,-122.5 336.1,-129.5"/>
</g>
<!-- 4 -->
<!-- name: &quot;string&quot;, typeName: &quot;&quot;, id: 4, branchId: 0, recurseId: &#45;1, attributes: 512, notes: &quot;SemVer version of the pack&quot; -->
<g id="node5" class="node">
<title>4</title>
<ellipse fill="none" stroke="black" cx="379.94" cy="-72" rx="31.9" ry="18"/>
<text xml:space="preserve" text-anchor="middle" x="379.94" y="-66.95" font-family="Times New Roman,serif" font-size="14.00">string</text>
</g>
<!-- 3&#45;&gt;4 -->
<g id="edge4" class="edge">
<title>3&#45;&gt;4</title>
<path fill="none" stroke="black" d="M280.68,-72C297.96,-72 318.41,-72 336.17,-72"/>
<polygon fill="black" stroke="black" points="336.17,-75.5 346.17,-72 336.17,-68.5 336.17,-75.5"/>
</g>
<!-- 6 -->
<!-- name: &quot;string&quot;, typeName: &quot;&quot;, id: 6, branchId: 0, recurseId: &#45;1, attributes: 512, notes: &quot;&quot; -->
<g id="node7" class="node">
<title>6</title>
<ellipse fill="none" stroke="black" cx="379.94" cy="-18" rx="31.9" ry="18"/>
<text xml:space="preserve" text-anchor="middle" x="379.94" y="-12.95" font-family="Times New Roman,serif" font-size="14.00">string</text>
</g>
<!-- 5&#45;&gt;6 -->
<g id="edge6" class="edge">
<title>5&#45;&gt;6</title>
<path fill="none" stroke="black" d="M312.19,-18C320.48,-18 328.73,-18 336.47,-18"/>
<polygon fill="black" stroke="black" points="336.24,-21.5 346.24,-18 336.24,-14.5 336.24,-21.5"/>
</g>
</g>
</svg>
