<?xml version="1.0" encoding="UTF-8" standalone="no"?>
<!DOCTYPE svg PUBLIC "-//W3C//DTD SVG 1.1//EN"
 "http://www.w3.org/Graphics/SVG/1.1/DTD/svg11.dtd">
<!-- Generated by graphviz version 2.46.1 (20210213.1702)
 -->
<!-- Title: PacketViolationWarningPacket Pages: 1 -->
<svg width="544pt" height="206pt"
 viewBox="0.00 0.00 544.06 206.00" xmlns="http://www.w3.org/2000/svg" xmlns:xlink="http://www.w3.org/1999/xlink">
<g id="graph0" class="graph" transform="scale(1 1) rotate(0) translate(4 202)">
<title>PacketViolationWarningPacket</title>
<polygon fill="white" stroke="transparent" points="-4,4 -4,-202 540.06,-202 540.06,4 -4,4"/>
<!-- 0 -->
<!-- name: &quot;PacketViolationWarningPacket&quot;, typeName: &quot;&quot;, id: 0, branchId: 156, recurseId: &#45;1, attributes: 0, notes: &quot;&quot; -->
<g id="node1" class="node">
<title>0</title>
<ellipse fill="none" stroke="black" cx="122.84" cy="-99" rx="122.68" ry="18"/>
<text text-anchor="middle" x="122.84" y="-95.3" font-family="Times New Roman,serif" font-size="14.00">PacketViolationWarningPacket</text>
</g>
<!-- 1 -->
<!-- name: &quot;Violation Type&quot;, typeName: &quot;&quot;, id: 1, branchId: 0, recurseId: &#45;1, attributes: 0, notes: &quot;enumeration: PacketViolationType&quot; -->
<g id="node2" class="node">
<title>1</title>
<ellipse fill="none" stroke="black" cx="360.32" cy="-180" rx="64.99" ry="18"/>
<text text-anchor="middle" x="360.32" y="-176.3" font-family="Times New Roman,serif" font-size="14.00">Violation Type</text>
</g>
<!-- 0&#45;&gt;1 -->
<g id="edge1" class="edge">
<title>0&#45;&gt;1</title>
<path fill="none" stroke="black" d="M172.06,-115.59C211.96,-129.31 268.46,-148.75 308.95,-162.67"/>
<polygon fill="black" stroke="black" points="308.02,-166.06 318.62,-166 310.3,-159.44 308.02,-166.06"/>
</g>
<!-- 3 -->
<!-- name: &quot;Violation Severity&quot;, typeName: &quot;&quot;, id: 3, branchId: 0, recurseId: &#45;1, attributes: 0, notes: &quot;enumeration: PacketViolationSeverity&quot; -->
<g id="node4" class="node">
<title>3</title>
<ellipse fill="none" stroke="black" cx="360.32" cy="-126" rx="75.29" ry="18"/>
<text text-anchor="middle" x="360.32" y="-122.3" font-family="Times New Roman,serif" font-size="14.00">Violation Severity</text>
</g>
<!-- 0&#45;&gt;3 -->
<g id="edge3" class="edge">
<title>0&#45;&gt;3</title>
<path fill="none" stroke="black" d="M220.3,-110.06C240.85,-112.42 262.29,-114.88 282.02,-117.14"/>
<polygon fill="black" stroke="black" points="281.83,-120.64 292.16,-118.3 282.62,-113.68 281.83,-120.64"/>
</g>
<!-- 5 -->
<!-- name: &quot;Violating packet id&quot;, typeName: &quot;&quot;, id: 5, branchId: 0, recurseId: &#45;1, attributes: 0, notes: &quot;enumeration: MinecraftPacketIds&quot; -->
<g id="node6" class="node">
<title>5</title>
<ellipse fill="none" stroke="black" cx="360.32" cy="-72" rx="78.79" ry="18"/>
<text text-anchor="middle" x="360.32" y="-68.3" font-family="Times New Roman,serif" font-size="14.00">Violating packet id</text>
</g>
<!-- 0&#45;&gt;5 -->
<g id="edge5" class="edge">
<title>0&#45;&gt;5</title>
<path fill="none" stroke="black" d="M220.3,-87.94C240,-85.68 260.53,-83.33 279.57,-81.14"/>
<polygon fill="black" stroke="black" points="280.14,-84.6 289.68,-79.99 279.34,-77.65 280.14,-84.6"/>
</g>
<!-- 7 -->
<!-- name: &quot;Violation context&quot;, typeName: &quot;&quot;, id: 7, branchId: 0, recurseId: &#45;1, attributes: 0, notes: &quot;&quot; -->
<g id="node8" class="node">
<title>7</title>
<ellipse fill="none" stroke="black" cx="360.32" cy="-18" rx="72.59" ry="18"/>
<text text-anchor="middle" x="360.32" y="-14.3" font-family="Times New Roman,serif" font-size="14.00">Violation context</text>
</g>
<!-- 0&#45;&gt;7 -->
<g id="edge7" class="edge">
<title>0&#45;&gt;7</title>
<path fill="none" stroke="black" d="M172.06,-82.41C211.47,-68.86 267.06,-49.74 307.43,-35.85"/>
<polygon fill="black" stroke="black" points="308.77,-39.09 317.08,-32.53 306.49,-32.47 308.77,-39.09"/>
</g>
<!-- 2 -->
<!-- name: &quot;varint&quot;, typeName: &quot;&quot;, id: 2, branchId: 0, recurseId: &#45;1, attributes: 512, notes: &quot;&quot; -->
<g id="node3" class="node">
<title>2</title>
<ellipse fill="none" stroke="black" cx="505.51" cy="-180" rx="30.59" ry="18"/>
<text text-anchor="middle" x="505.51" y="-176.3" font-family="Times New Roman,serif" font-size="14.00">varint</text>
</g>
<!-- 1&#45;&gt;2 -->
<g id="edge2" class="edge">
<title>1&#45;&gt;2</title>
<path fill="none" stroke="black" d="M425.38,-180C438.74,-180 452.45,-180 464.64,-180"/>
<polygon fill="black" stroke="black" points="464.9,-183.5 474.9,-180 464.9,-176.5 464.9,-183.5"/>
</g>
<!-- 4 -->
<!-- name: &quot;varint&quot;, typeName: &quot;&quot;, id: 4, branchId: 0, recurseId: &#45;1, attributes: 512, notes: &quot;&quot; -->
<g id="node5" class="node">
<title>4</title>
<ellipse fill="none" stroke="black" cx="505.51" cy="-126" rx="30.59" ry="18"/>
<text text-anchor="middle" x="505.51" y="-122.3" font-family="Times New Roman,serif" font-size="14.00">varint</text>
</g>
<!-- 3&#45;&gt;4 -->
<g id="edge4" class="edge">
<title>3&#45;&gt;4</title>
<path fill="none" stroke="black" d="M435.85,-126C445.82,-126 455.7,-126 464.74,-126"/>
<polygon fill="black" stroke="black" points="464.92,-129.5 474.92,-126 464.92,-122.5 464.92,-129.5"/>
</g>
<!-- 6 -->
<!-- name: &quot;varint&quot;, typeName: &quot;&quot;, id: 6, branchId: 0, recurseId: &#45;1, attributes: 512, notes: &quot;&quot; -->
<g id="node7" class="node">
<title>6</title>
<ellipse fill="none" stroke="black" cx="505.51" cy="-72" rx="30.59" ry="18"/>
<text text-anchor="middle" x="505.51" y="-68.3" font-family="Times New Roman,serif" font-size="14.00">varint</text>
</g>
<!-- 5&#45;&gt;6 -->
<g id="edge6" class="edge">
<title>5&#45;&gt;6</title>
<path fill="none" stroke="black" d="M439.2,-72C448.05,-72 456.77,-72 464.81,-72"/>
<polygon fill="black" stroke="black" points="464.95,-75.5 474.95,-72 464.95,-68.5 464.95,-75.5"/>
</g>
<!-- 8 -->
<!-- name: &quot;string&quot;, typeName: &quot;&quot;, id: 8, branchId: 0, recurseId: &#45;1, attributes: 512, notes: &quot;&quot; -->
<g id="node9" class="node">
<title>8</title>
<ellipse fill="none" stroke="black" cx="505.51" cy="-18" rx="30.59" ry="18"/>
<text text-anchor="middle" x="505.51" y="-14.3" font-family="Times New Roman,serif" font-size="14.00">string</text>
</g>
<!-- 7&#45;&gt;8 -->
<g id="edge8" class="edge">
<title>7&#45;&gt;8</title>
<path fill="none" stroke="black" d="M433.34,-18C444.08,-18 454.8,-18 464.55,-18"/>
<polygon fill="black" stroke="black" points="464.7,-21.5 474.7,-18 464.7,-14.5 464.7,-21.5"/>
</g>
</g>
</svg>
