<?xml version="1.0" encoding="UTF-8" standalone="no"?>
<!DOCTYPE svg PUBLIC "-//W3C//DTD SVG 1.1//EN"
 "http://www.w3.org/Graphics/SVG/1.1/DTD/svg11.dtd">
<!-- Generated by graphviz version 13.1.2 (20250808.2320)
 -->
<!-- Title: PacketViolationWarningPacket Pages: 1 -->
<svg width="740pt" height="206pt"
 viewBox="0.00 0.00 740.00 206.00" xmlns="http://www.w3.org/2000/svg" xmlns:xlink="http://www.w3.org/1999/xlink">
<g id="graph0" class="graph" transform="scale(1 1) rotate(0) translate(4 202)">
<title>PacketViolationWarningPacket</title>
<polygon fill="white" stroke="none" points="-4,4 -4,-202 736.23,-202 736.23,4 -4,4"/>
<!-- 0 -->
<!-- name: &quot;PacketViolationWarningPacket&quot;, typeName: &quot;&quot;, id: 0, branchId: 0, recurseId: &#45;1, attributes: 0, notes: &quot;This is sent when the client detects a malformed packet&quot; -->
<g id="node1" class="node">
<title>0</title>
<ellipse fill="none" stroke="black" cx="126.08" cy="-99" rx="126.08" ry="18"/>
<text xml:space="preserve" text-anchor="middle" x="126.08" y="-93.95" font-family="Times New Roman,serif" font-size="14.00">PacketViolationWarningPacket</text>
</g>
<!-- 1 -->
<!-- name: &quot;Violation Type&quot;, typeName: &quot;&quot;, id: 1, branchId: 0, recurseId: &#45;1, attributes: 0, notes: &quot;&quot; -->
<g id="node2" class="node">
<title>1</title>
<ellipse fill="none" stroke="black" cx="368.16" cy="-180" rx="65.68" ry="18"/>
<text xml:space="preserve" text-anchor="middle" x="368.16" y="-174.95" font-family="Times New Roman,serif" font-size="14.00">Violation Type</text>
</g>
<!-- 0&#45;&gt;1 -->
<g id="edge1" class="edge">
<title>0&#45;&gt;1</title>
<path fill="none" stroke="black" d="M177.11,-115.88C217.4,-129.47 273.85,-148.52 314.75,-162.32"/>
<polygon fill="black" stroke="black" points="313.55,-165.61 324.15,-165.49 315.79,-158.97 313.55,-165.61"/>
</g>
<!-- 3 -->
<!-- name: &quot;Violation Severity&quot;, typeName: &quot;&quot;, id: 3, branchId: 0, recurseId: &#45;1, attributes: 0, notes: &quot;&quot; -->
<g id="node4" class="node">
<title>3</title>
<ellipse fill="none" stroke="black" cx="368.16" cy="-126" rx="78.48" ry="18"/>
<text xml:space="preserve" text-anchor="middle" x="368.16" y="-120.95" font-family="Times New Roman,serif" font-size="14.00">Violation Severity</text>
</g>
<!-- 0&#45;&gt;3 -->
<g id="edge3" class="edge">
<title>0&#45;&gt;3</title>
<path fill="none" stroke="black" d="M226.46,-110.18C246.21,-112.4 266.73,-114.71 285.79,-116.85"/>
<polygon fill="black" stroke="black" points="285.31,-120.32 295.64,-117.96 286.09,-113.36 285.31,-120.32"/>
</g>
<!-- 5 -->
<!-- name: &quot;Violation PacketId&quot;, typeName: &quot;&quot;, id: 5, branchId: 0, recurseId: &#45;1, attributes: 0, notes: &quot;&quot; -->
<g id="node6" class="node">
<title>5</title>
<ellipse fill="none" stroke="black" cx="368.16" cy="-72" rx="80.01" ry="18"/>
<text xml:space="preserve" text-anchor="middle" x="368.16" y="-66.95" font-family="Times New Roman,serif" font-size="14.00">Violation PacketId</text>
</g>
<!-- 0&#45;&gt;5 -->
<g id="edge5" class="edge">
<title>0&#45;&gt;5</title>
<path fill="none" stroke="black" d="M226.46,-87.82C245.69,-85.66 265.65,-83.42 284.28,-81.32"/>
<polygon fill="black" stroke="black" points="284.65,-84.8 294.19,-80.21 283.86,-77.85 284.65,-84.8"/>
</g>
<!-- 7 -->
<!-- name: &quot;Violation Context&quot;, typeName: &quot;&quot;, id: 7, branchId: 0, recurseId: &#45;1, attributes: 0, notes: &quot;&quot; -->
<g id="node8" class="node">
<title>7</title>
<ellipse fill="none" stroke="black" cx="368.16" cy="-18" rx="76.94" ry="18"/>
<text xml:space="preserve" text-anchor="middle" x="368.16" y="-12.95" font-family="Times New Roman,serif" font-size="14.00">Violation Context</text>
</g>
<!-- 0&#45;&gt;7 -->
<g id="edge7" class="edge">
<title>0&#45;&gt;7</title>
<path fill="none" stroke="black" d="M177.11,-82.12C216.52,-68.82 271.39,-50.31 312.04,-36.6"/>
<polygon fill="black" stroke="black" points="313.05,-39.95 321.41,-33.44 310.82,-33.32 313.05,-39.95"/>
</g>
<!-- 2 -->
<!-- name: &quot;enum PacketViolationType&quot;, typeName: &quot;&quot;, id: 2, branchId: 0, recurseId: &#45;1, attributes: 512, notes: &quot;&quot; -->
<g id="node3" class="node">
<title>2</title>
<ellipse fill="none" stroke="black" cx="608.2" cy="-180" rx="111.74" ry="18"/>
<text xml:space="preserve" text-anchor="middle" x="608.2" y="-174.95" font-family="Times New Roman,serif" font-size="14.00">enum PacketViolationType</text>
</g>
<!-- 1&#45;&gt;2 -->
<g id="edge2" class="edge">
<title>1&#45;&gt;2</title>
<path fill="none" stroke="black" d="M434.21,-180C449.91,-180 467.19,-180 484.58,-180"/>
<polygon fill="black" stroke="black" points="484.49,-183.5 494.49,-180 484.49,-176.5 484.49,-183.5"/>
</g>
<!-- 4 -->
<!-- name: &quot;enum PacketViolationSeverity&quot;, typeName: &quot;&quot;, id: 4, branchId: 0, recurseId: &#45;1, attributes: 512, notes: &quot;&quot; -->
<g id="node5" class="node">
<title>4</title>
<ellipse fill="none" stroke="black" cx="608.2" cy="-126" rx="124.03" ry="18"/>
<text xml:space="preserve" text-anchor="middle" x="608.2" y="-120.95" font-family="Times New Roman,serif" font-size="14.00">enum PacketViolationSeverity</text>
</g>
<!-- 3&#45;&gt;4 -->
<g id="edge4" class="edge">
<title>3&#45;&gt;4</title>
<path fill="none" stroke="black" d="M447.11,-126C455.31,-126 463.81,-126 472.42,-126"/>
<polygon fill="black" stroke="black" points="472.27,-129.5 482.27,-126 472.27,-122.5 472.27,-129.5"/>
</g>
<!-- 6 -->
<!-- name: &quot;varint&quot;, typeName: &quot;&quot;, id: 6, branchId: 0, recurseId: &#45;1, attributes: 512, notes: &quot;&quot; -->
<g id="node7" class="node">
<title>6</title>
<ellipse fill="none" stroke="black" cx="608.2" cy="-72" rx="32.41" ry="18"/>
<text xml:space="preserve" text-anchor="middle" x="608.2" y="-66.95" font-family="Times New Roman,serif" font-size="14.00">varint</text>
</g>
<!-- 5&#45;&gt;6 -->
<g id="edge6" class="edge">
<title>5&#45;&gt;6</title>
<path fill="none" stroke="black" d="M448.43,-72C487.09,-72 532.08,-72 564.28,-72"/>
<polygon fill="black" stroke="black" points="564.01,-75.5 574.01,-72 564.01,-68.5 564.01,-75.5"/>
</g>
<!-- 8 -->
<!-- name: &quot;string&quot;, typeName: &quot;&quot;, id: 8, branchId: 0, recurseId: &#45;1, attributes: 512, notes: &quot;&quot; -->
<g id="node9" class="node">
<title>8</title>
<ellipse fill="none" stroke="black" cx="608.2" cy="-18" rx="31.9" ry="18"/>
<text xml:space="preserve" text-anchor="middle" x="608.2" y="-12.95" font-family="Times New Roman,serif" font-size="14.00">string</text>
</g>
<!-- 7&#45;&gt;8 -->
<g id="edge8" class="edge">
<title>7&#45;&gt;8</title>
<path fill="none" stroke="black" d="M445.46,-18C485,-18 531.78,-18 564.84,-18"/>
<polygon fill="black" stroke="black" points="564.41,-21.5 574.41,-18 564.41,-14.5 564.41,-21.5"/>
</g>
</g>
</svg>
