<?xml version="1.0" encoding="UTF-8" standalone="no"?>
<!DOCTYPE svg PUBLIC "-//W3C//DTD SVG 1.1//EN"
 "http://www.w3.org/Graphics/SVG/1.1/DTD/svg11.dtd">
<!-- Generated by graphviz version 12.2.1 (20241206.2353)
 -->
<!-- Title: PacketViolationWarningPacket Pages: 1 -->
<svg width="560pt" height="206pt"
 viewBox="0.00 0.00 560.08 206.00" xmlns="http://www.w3.org/2000/svg" xmlns:xlink="http://www.w3.org/1999/xlink">
<g id="graph0" class="graph" transform="scale(1 1) rotate(0) translate(4 202)">
<title>PacketViolationWarningPacket</title>
<polygon fill="white" stroke="none" points="-4,4 -4,-202 556.08,-202 556.08,4 -4,4"/>
<!-- 0 -->
<!-- name: &quot;PacketViolationWarningPacket&quot;, typeName: &quot;&quot;, id: 0, branchId: 156, recurseId: &#45;1, attributes: 0, notes: &quot;&quot; -->
<g id="node1" class="node">
<title>0</title>
<ellipse fill="none" stroke="black" cx="126.08" cy="-99" rx="126.08" ry="18"/>
<text text-anchor="middle" x="126.08" y="-93.95" font-family="Times New Roman,serif" font-size="14.00">PacketViolationWarningPacket</text>
</g>
<!-- 1 -->
<!-- name: &quot;Violation Type&quot;, typeName: &quot;&quot;, id: 1, branchId: 0, recurseId: &#45;1, attributes: 0, notes: &quot;&quot; -->
<g id="node2" class="node">
<title>1</title>
<ellipse fill="none" stroke="black" cx="369.7" cy="-180" rx="65.68" ry="18"/>
<text text-anchor="middle" x="369.7" y="-174.95" font-family="Times New Roman,serif" font-size="14.00">Violation Type</text>
</g>
<!-- 0&#45;&gt;1 -->
<g id="edge1" class="edge">
<title>0&#45;&gt;1</title>
<path fill="none" stroke="black" d="M177.43,-115.88C217.97,-129.47 274.79,-148.52 315.95,-162.32"/>
<polygon fill="black" stroke="black" points="314.82,-165.63 325.42,-165.49 317.05,-158.99 314.82,-165.63"/>
</g>
<!-- 3 -->
<!-- name: &quot;Violation Severity&quot;, typeName: &quot;&quot;, id: 3, branchId: 0, recurseId: &#45;1, attributes: 0, notes: &quot;&quot; -->
<g id="node4" class="node">
<title>3</title>
<ellipse fill="none" stroke="black" cx="369.7" cy="-126" rx="78.48" ry="18"/>
<text text-anchor="middle" x="369.7" y="-120.95" font-family="Times New Roman,serif" font-size="14.00">Violation Severity</text>
</g>
<!-- 0&#45;&gt;3 -->
<g id="edge3" class="edge">
<title>0&#45;&gt;3</title>
<path fill="none" stroke="black" d="M226.75,-110.14C246.85,-112.38 267.76,-114.72 287.16,-116.89"/>
<polygon fill="black" stroke="black" points="286.55,-120.34 296.88,-117.97 287.33,-113.39 286.55,-120.34"/>
</g>
<!-- 5 -->
<!-- name: &quot;Violating packet id&quot;, typeName: &quot;&quot;, id: 5, branchId: 0, recurseId: &#45;1, attributes: 0, notes: &quot;&quot; -->
<g id="node6" class="node">
<title>5</title>
<ellipse fill="none" stroke="black" cx="369.7" cy="-72" rx="81.55" ry="18"/>
<text text-anchor="middle" x="369.7" y="-66.95" font-family="Times New Roman,serif" font-size="14.00">Violating packet id</text>
</g>
<!-- 0&#45;&gt;5 -->
<g id="edge5" class="edge">
<title>0&#45;&gt;5</title>
<path fill="none" stroke="black" d="M226.75,-87.86C246.11,-85.7 266.22,-83.45 285,-81.35"/>
<polygon fill="black" stroke="black" points="285.14,-84.86 294.69,-80.27 284.37,-77.9 285.14,-84.86"/>
</g>
<!-- 7 -->
<!-- name: &quot;Violation context&quot;, typeName: &quot;&quot;, id: 7, branchId: 0, recurseId: &#45;1, attributes: 0, notes: &quot;&quot; -->
<g id="node8" class="node">
<title>7</title>
<ellipse fill="none" stroke="black" cx="369.7" cy="-18" rx="74.89" ry="18"/>
<text text-anchor="middle" x="369.7" y="-12.95" font-family="Times New Roman,serif" font-size="14.00">Violation context</text>
</g>
<!-- 0&#45;&gt;7 -->
<g id="edge7" class="edge">
<title>0&#45;&gt;7</title>
<path fill="none" stroke="black" d="M177.43,-82.12C217.34,-68.74 273.01,-50.08 314.01,-36.33"/>
<polygon fill="black" stroke="black" points="315.09,-39.66 323.46,-33.17 312.86,-33.03 315.09,-39.66"/>
</g>
<!-- 2 -->
<!-- name: &quot;varint&quot;, typeName: &quot;&quot;, id: 2, branchId: 0, recurseId: &#45;1, attributes: 512, notes: &quot;&quot; -->
<g id="node3" class="node">
<title>2</title>
<ellipse fill="none" stroke="black" cx="519.66" cy="-180" rx="32.41" ry="18"/>
<text text-anchor="middle" x="519.66" y="-174.95" font-family="Times New Roman,serif" font-size="14.00">varint</text>
</g>
<!-- 1&#45;&gt;2 -->
<g id="edge2" class="edge">
<title>1&#45;&gt;2</title>
<path fill="none" stroke="black" d="M435.6,-180C449.13,-180 463.08,-180 475.59,-180"/>
<polygon fill="black" stroke="black" points="475.56,-183.5 485.56,-180 475.56,-176.5 475.56,-183.5"/>
</g>
<!-- 4 -->
<!-- name: &quot;varint&quot;, typeName: &quot;&quot;, id: 4, branchId: 0, recurseId: &#45;1, attributes: 512, notes: &quot;&quot; -->
<g id="node5" class="node">
<title>4</title>
<ellipse fill="none" stroke="black" cx="519.66" cy="-126" rx="32.41" ry="18"/>
<text text-anchor="middle" x="519.66" y="-120.95" font-family="Times New Roman,serif" font-size="14.00">varint</text>
</g>
<!-- 3&#45;&gt;4 -->
<g id="edge4" class="edge">
<title>3&#45;&gt;4</title>
<path fill="none" stroke="black" d="M448.58,-126C457.76,-126 466.86,-126 475.31,-126"/>
<polygon fill="black" stroke="black" points="475.26,-129.5 485.26,-126 475.26,-122.5 475.26,-129.5"/>
</g>
<!-- 6 -->
<!-- name: &quot;varint&quot;, typeName: &quot;&quot;, id: 6, branchId: 0, recurseId: &#45;1, attributes: 512, notes: &quot;&quot; -->
<g id="node7" class="node">
<title>6</title>
<ellipse fill="none" stroke="black" cx="519.66" cy="-72" rx="32.41" ry="18"/>
<text text-anchor="middle" x="519.66" y="-66.95" font-family="Times New Roman,serif" font-size="14.00">varint</text>
</g>
<!-- 5&#45;&gt;6 -->
<g id="edge6" class="edge">
<title>5&#45;&gt;6</title>
<path fill="none" stroke="black" d="M451.61,-72C459.84,-72 467.96,-72 475.55,-72"/>
<polygon fill="black" stroke="black" points="475.47,-75.5 485.47,-72 475.47,-68.5 475.47,-75.5"/>
</g>
<!-- 8 -->
<!-- name: &quot;string&quot;, typeName: &quot;&quot;, id: 8, branchId: 0, recurseId: &#45;1, attributes: 512, notes: &quot;&quot; -->
<g id="node9" class="node">
<title>8</title>
<ellipse fill="none" stroke="black" cx="519.66" cy="-18" rx="31.9" ry="18"/>
<text text-anchor="middle" x="519.66" y="-12.95" font-family="Times New Roman,serif" font-size="14.00">string</text>
</g>
<!-- 7&#45;&gt;8 -->
<g id="edge8" class="edge">
<title>7&#45;&gt;8</title>
<path fill="none" stroke="black" d="M444.68,-18C455.36,-18 466.05,-18 475.84,-18"/>
<polygon fill="black" stroke="black" points="475.77,-21.5 485.77,-18 475.77,-14.5 475.77,-21.5"/>
</g>
</g>
</svg>
