<?xml version="1.0" encoding="UTF-8" standalone="no"?>
<!DOCTYPE svg PUBLIC "-//W3C//DTD SVG 1.1//EN"
 "http://www.w3.org/Graphics/SVG/1.1/DTD/svg11.dtd">
<!-- Generated by graphviz version 10.0.1 (20240210.2158)
 -->
<!-- Title: PassengerJumpPacket Pages: 1 -->
<svg width="434pt" height="44pt"
 viewBox="0.00 0.00 434.29 44.00" xmlns="http://www.w3.org/2000/svg" xmlns:xlink="http://www.w3.org/1999/xlink">
<g id="graph0" class="graph" transform="scale(1 1) rotate(0) translate(4 40)">
<title>PassengerJumpPacket</title>
<polygon fill="white" stroke="none" points="-4,4 -4,-40 430.29,-40 430.29,4 -4,4"/>
<!-- 0 -->
<!-- name: &quot;PassengerJumpPacket&quot;, typeName: &quot;&quot;, id: 0, branchId: 20, recurseId: &#45;1, attributes: 0, notes: &quot;&quot; -->
<g id="node1" class="node">
<title>0</title>
<ellipse fill="none" stroke="black" cx="92.98" cy="-18" rx="92.98" ry="18"/>
<text text-anchor="middle" x="92.98" y="-12.57" font-family="Times New Roman,serif" font-size="14.00">PassengerJumpPacket</text>
</g>
<!-- 1 -->
<!-- name: &quot;Jump Scale&quot;, typeName: &quot;&quot;, id: 1, branchId: 0, recurseId: &#45;1, attributes: 0, notes: &quot;&quot; -->
<g id="node2" class="node">
<title>1</title>
<ellipse fill="none" stroke="black" cx="275.02" cy="-18" rx="53.06" ry="18"/>
<text text-anchor="middle" x="275.02" y="-12.57" font-family="Times New Roman,serif" font-size="14.00">Jump Scale</text>
</g>
<!-- 0&#45;&gt;1 -->
<g id="edge1" class="edge">
<title>0&#45;&gt;1</title>
<path fill="none" stroke="black" d="M186.37,-18C194.4,-18 202.4,-18 210.12,-18"/>
<polygon fill="black" stroke="black" points="210.08,-21.5 220.08,-18 210.08,-14.5 210.08,-21.5"/>
</g>
<!-- 2 -->
<!-- name: &quot;varint&quot;, typeName: &quot;&quot;, id: 2, branchId: 0, recurseId: &#45;1, attributes: 512, notes: &quot;&quot; -->
<g id="node3" class="node">
<title>2</title>
<ellipse fill="none" stroke="black" cx="395.18" cy="-18" rx="31.1" ry="18"/>
<text text-anchor="middle" x="395.18" y="-12.57" font-family="Times New Roman,serif" font-size="14.00">varint</text>
</g>
<!-- 1&#45;&gt;2 -->
<g id="edge2" class="edge">
<title>1&#45;&gt;2</title>
<path fill="none" stroke="black" d="M328.54,-18C336.56,-18 344.74,-18 352.49,-18"/>
<polygon fill="black" stroke="black" points="352.32,-21.5 362.32,-18 352.32,-14.5 352.32,-21.5"/>
</g>
</g>
</svg>
