<?xml version="1.0" encoding="UTF-8" standalone="no"?>
<!DOCTYPE svg PUBLIC "-//W3C//DTD SVG 1.1//EN"
 "http://www.w3.org/Graphics/SVG/1.1/DTD/svg11.dtd">
<!-- Generated by graphviz version 12.2.1 (20241206.2353)
 -->
<!-- Title: PassengerJumpPacket Pages: 1 -->
<svg width="438pt" height="44pt"
 viewBox="0.00 0.00 438.27 44.00" xmlns="http://www.w3.org/2000/svg" xmlns:xlink="http://www.w3.org/1999/xlink">
<g id="graph0" class="graph" transform="scale(1 1) rotate(0) translate(4 40)">
<title>PassengerJumpPacket</title>
<polygon fill="white" stroke="none" points="-4,4 -4,-40 434.27,-40 434.27,4 -4,4"/>
<!-- 0 -->
<!-- name: &quot;PassengerJumpPacket&quot;, typeName: &quot;&quot;, id: 0, branchId: 20, recurseId: &#45;1, attributes: 0, notes: &quot;&quot; -->
<g id="node1" class="node">
<title>0</title>
<ellipse fill="none" stroke="black" cx="92.81" cy="-18" rx="92.81" ry="18"/>
<text text-anchor="middle" x="92.81" y="-12.95" font-family="Times New Roman,serif" font-size="14.00">PassengerJumpPacket</text>
</g>
<!-- 1 -->
<!-- name: &quot;Jump Scale&quot;, typeName: &quot;&quot;, id: 1, branchId: 0, recurseId: &#45;1, attributes: 0, notes: &quot;&quot; -->
<g id="node2" class="node">
<title>1</title>
<ellipse fill="none" stroke="black" cx="275.53" cy="-18" rx="53.91" ry="18"/>
<text text-anchor="middle" x="275.53" y="-12.95" font-family="Times New Roman,serif" font-size="14.00">Jump Scale</text>
</g>
<!-- 0&#45;&gt;1 -->
<g id="edge1" class="edge">
<title>0&#45;&gt;1</title>
<path fill="none" stroke="black" d="M186.02,-18C194.21,-18 202.37,-18 210.25,-18"/>
<polygon fill="black" stroke="black" points="210.03,-21.5 220.03,-18 210.03,-14.5 210.03,-21.5"/>
</g>
<!-- 2 -->
<!-- name: &quot;varint&quot;, typeName: &quot;&quot;, id: 2, branchId: 0, recurseId: &#45;1, attributes: 512, notes: &quot;&quot; -->
<g id="node3" class="node">
<title>2</title>
<ellipse fill="none" stroke="black" cx="397.85" cy="-18" rx="32.41" ry="18"/>
<text text-anchor="middle" x="397.85" y="-12.95" font-family="Times New Roman,serif" font-size="14.00">varint</text>
</g>
<!-- 1&#45;&gt;2 -->
<g id="edge2" class="edge">
<title>1&#45;&gt;2</title>
<path fill="none" stroke="black" d="M329.65,-18C337.68,-18 345.88,-18 353.66,-18"/>
<polygon fill="black" stroke="black" points="353.57,-21.5 363.57,-18 353.57,-14.5 353.57,-21.5"/>
</g>
</g>
</svg>
