<?xml version="1.0" encoding="UTF-8" standalone="no"?>
<!DOCTYPE svg PUBLIC "-//W3C//DTD SVG 1.1//EN"
 "http://www.w3.org/Graphics/SVG/1.1/DTD/svg11.dtd">
<!-- Generated by graphviz version 13.1.2 (20250808.2320)
 -->
<!-- Title: PhotoTransferPacket Pages: 1 -->
<svg width="560pt" height="368pt"
 viewBox="0.00 0.00 560.00 368.00" xmlns="http://www.w3.org/2000/svg" xmlns:xlink="http://www.w3.org/1999/xlink">
<g id="graph0" class="graph" transform="scale(1 1) rotate(0) translate(4 364)">
<title>PhotoTransferPacket</title>
<polygon fill="white" stroke="none" points="-4,4 -4,-364 556.08,-364 556.08,4 -4,4"/>
<!-- 0 -->
<!-- name: &quot;PhotoTransferPacket&quot;, typeName: &quot;&quot;, id: 0, branchId: 0, recurseId: &#45;1, attributes: 0, notes: &quot;There is a camera item in EDU and they can use it to take screenshots and add them to a scrapbook.&quot; -->
<g id="node1" class="node">
<title>0</title>
<ellipse fill="none" stroke="black" cx="88.2" cy="-180" rx="88.2" ry="18"/>
<text xml:space="preserve" text-anchor="middle" x="88.2" y="-174.95" font-family="Times New Roman,serif" font-size="14.00">PhotoTransferPacket</text>
</g>
<!-- 1 -->
<!-- name: &quot;Photo Name&quot;, typeName: &quot;&quot;, id: 1, branchId: 0, recurseId: &#45;1, attributes: 0, notes: &quot;&quot; -->
<g id="node2" class="node">
<title>1</title>
<ellipse fill="none" stroke="black" cx="289.86" cy="-342" rx="57.49" ry="18"/>
<text xml:space="preserve" text-anchor="middle" x="289.86" y="-336.95" font-family="Times New Roman,serif" font-size="14.00">Photo Name</text>
</g>
<!-- 0&#45;&gt;1 -->
<g id="edge1" class="edge">
<title>0&#45;&gt;1</title>
<path fill="none" stroke="black" d="M101.08,-197.91C120.92,-226.51 163.47,-282.57 212.4,-315 219.02,-319.39 226.44,-323.15 233.98,-326.36"/>
<polygon fill="black" stroke="black" points="232.65,-329.59 243.23,-329.97 235.19,-323.07 232.65,-329.59"/>
</g>
<!-- 3 -->
<!-- name: &quot;Photo Data&quot;, typeName: &quot;&quot;, id: 3, branchId: 0, recurseId: &#45;1, attributes: 0, notes: &quot;&quot; -->
<g id="node4" class="node">
<title>3</title>
<ellipse fill="none" stroke="black" cx="289.86" cy="-288" rx="52.38" ry="18"/>
<text xml:space="preserve" text-anchor="middle" x="289.86" y="-282.95" font-family="Times New Roman,serif" font-size="14.00">Photo Data</text>
</g>
<!-- 0&#45;&gt;3 -->
<g id="edge3" class="edge">
<title>0&#45;&gt;3</title>
<path fill="none" stroke="black" d="M112.26,-197.62C136.27,-215.37 175.48,-242.68 212.4,-261 220.74,-265.14 229.87,-268.94 238.83,-272.3"/>
<polygon fill="black" stroke="black" points="237.59,-275.57 248.18,-275.66 239.96,-268.99 237.59,-275.57"/>
</g>
<!-- 5 -->
<!-- name: &quot;Book ID&quot;, typeName: &quot;&quot;, id: 5, branchId: 0, recurseId: &#45;1, attributes: 0, notes: &quot;&quot; -->
<g id="node6" class="node">
<title>5</title>
<ellipse fill="none" stroke="black" cx="289.86" cy="-234" rx="43.16" ry="18"/>
<text xml:space="preserve" text-anchor="middle" x="289.86" y="-228.95" font-family="Times New Roman,serif" font-size="14.00">Book ID</text>
</g>
<!-- 0&#45;&gt;5 -->
<g id="edge5" class="edge">
<title>0&#45;&gt;5</title>
<path fill="none" stroke="black" d="M142.97,-194.54C173.9,-202.91 212.38,-213.32 242.06,-221.34"/>
<polygon fill="black" stroke="black" points="240.94,-224.67 251.5,-223.9 242.76,-217.91 240.94,-224.67"/>
</g>
<!-- 7 -->
<!-- name: &quot;Type&quot;, typeName: &quot;&quot;, id: 7, branchId: 0, recurseId: &#45;1, attributes: 0, notes: &quot;&quot; -->
<g id="node8" class="node">
<title>7</title>
<ellipse fill="none" stroke="black" cx="289.86" cy="-180" rx="29.34" ry="18"/>
<text xml:space="preserve" text-anchor="middle" x="289.86" y="-174.95" font-family="Times New Roman,serif" font-size="14.00">Type</text>
</g>
<!-- 0&#45;&gt;7 -->
<g id="edge7" class="edge">
<title>0&#45;&gt;7</title>
<path fill="none" stroke="black" d="M176.77,-180C201.94,-180 228.16,-180 248.91,-180"/>
<polygon fill="black" stroke="black" points="248.62,-183.5 258.62,-180 248.62,-176.5 248.62,-183.5"/>
</g>
<!-- 9 -->
<!-- name: &quot;Source Type&quot;, typeName: &quot;&quot;, id: 9, branchId: 0, recurseId: &#45;1, attributes: 0, notes: &quot;&quot; -->
<g id="node10" class="node">
<title>9</title>
<ellipse fill="none" stroke="black" cx="289.86" cy="-126" rx="56.98" ry="18"/>
<text xml:space="preserve" text-anchor="middle" x="289.86" y="-120.95" font-family="Times New Roman,serif" font-size="14.00">Source Type</text>
</g>
<!-- 0&#45;&gt;9 -->
<g id="edge9" class="edge">
<title>0&#45;&gt;9</title>
<path fill="none" stroke="black" d="M142.97,-165.46C171.42,-157.76 206.26,-148.34 234.75,-140.63"/>
<polygon fill="black" stroke="black" points="235.54,-144.05 244.28,-138.06 233.71,-137.29 235.54,-144.05"/>
</g>
<!-- 11 -->
<!-- name: &quot;Owner ID&quot;, typeName: &quot;&quot;, id: 11, branchId: 0, recurseId: &#45;1, attributes: 0, notes: &quot;&quot; -->
<g id="node12" class="node">
<title>11</title>
<ellipse fill="none" stroke="black" cx="289.86" cy="-72" rx="48.28" ry="18"/>
<text xml:space="preserve" text-anchor="middle" x="289.86" y="-66.95" font-family="Times New Roman,serif" font-size="14.00">Owner ID</text>
</g>
<!-- 0&#45;&gt;11 -->
<g id="edge11" class="edge">
<title>0&#45;&gt;11</title>
<path fill="none" stroke="black" d="M112.26,-162.38C136.27,-144.63 175.48,-117.32 212.4,-99 221.38,-94.55 231.28,-90.48 240.89,-86.93"/>
<polygon fill="black" stroke="black" points="241.88,-90.3 250.13,-83.66 239.54,-83.7 241.88,-90.3"/>
</g>
<!-- 13 -->
<!-- name: &quot;New Photo Name&quot;, typeName: &quot;&quot;, id: 13, branchId: 0, recurseId: &#45;1, attributes: 0, notes: &quot;&quot; -->
<g id="node14" class="node">
<title>13</title>
<ellipse fill="none" stroke="black" cx="289.86" cy="-18" rx="77.45" ry="18"/>
<text xml:space="preserve" text-anchor="middle" x="289.86" y="-12.95" font-family="Times New Roman,serif" font-size="14.00">New Photo Name</text>
</g>
<!-- 0&#45;&gt;13 -->
<g id="edge13" class="edge">
<title>0&#45;&gt;13</title>
<path fill="none" stroke="black" d="M101.08,-162.09C120.92,-133.49 163.47,-77.43 212.4,-45 217.39,-41.7 222.83,-38.74 228.43,-36.12"/>
<polygon fill="black" stroke="black" points="229.43,-39.5 237.24,-32.34 226.67,-33.07 229.43,-39.5"/>
</g>
<!-- 2 -->
<!-- name: &quot;string&quot;, typeName: &quot;&quot;, id: 2, branchId: 0, recurseId: &#45;1, attributes: 512, notes: &quot;&quot; -->
<g id="node3" class="node">
<title>2</title>
<ellipse fill="none" stroke="black" cx="477.69" cy="-342" rx="31.9" ry="18"/>
<text xml:space="preserve" text-anchor="middle" x="477.69" y="-336.95" font-family="Times New Roman,serif" font-size="14.00">string</text>
</g>
<!-- 1&#45;&gt;2 -->
<g id="edge2" class="edge">
<title>1&#45;&gt;2</title>
<path fill="none" stroke="black" d="M347.62,-342C375.49,-342 408.48,-342 434.14,-342"/>
<polygon fill="black" stroke="black" points="433.86,-345.5 443.86,-342 433.86,-338.5 433.86,-345.5"/>
</g>
<!-- 4 -->
<!-- name: &quot;string&quot;, typeName: &quot;&quot;, id: 4, branchId: 0, recurseId: &#45;1, attributes: 512, notes: &quot;&quot; -->
<g id="node5" class="node">
<title>4</title>
<ellipse fill="none" stroke="black" cx="477.69" cy="-288" rx="31.9" ry="18"/>
<text xml:space="preserve" text-anchor="middle" x="477.69" y="-282.95" font-family="Times New Roman,serif" font-size="14.00">string</text>
</g>
<!-- 3&#45;&gt;4 -->
<g id="edge4" class="edge">
<title>3&#45;&gt;4</title>
<path fill="none" stroke="black" d="M342.62,-288C371.44,-288 406.87,-288 434.07,-288"/>
<polygon fill="black" stroke="black" points="434.04,-291.5 444.04,-288 434.04,-284.5 434.04,-291.5"/>
</g>
<!-- 6 -->
<!-- name: &quot;string&quot;, typeName: &quot;&quot;, id: 6, branchId: 0, recurseId: &#45;1, attributes: 512, notes: &quot;&quot; -->
<g id="node7" class="node">
<title>6</title>
<ellipse fill="none" stroke="black" cx="477.69" cy="-234" rx="31.9" ry="18"/>
<text xml:space="preserve" text-anchor="middle" x="477.69" y="-228.95" font-family="Times New Roman,serif" font-size="14.00">string</text>
</g>
<!-- 5&#45;&gt;6 -->
<g id="edge6" class="edge">
<title>5&#45;&gt;6</title>
<path fill="none" stroke="black" d="M333.49,-234C363.67,-234 403.97,-234 434.13,-234"/>
<polygon fill="black" stroke="black" points="434.05,-237.5 444.05,-234 434.05,-230.5 434.05,-237.5"/>
</g>
<!-- 8 -->
<!-- name: &quot;enum PhotoType&quot;, typeName: &quot;&quot;, id: 8, branchId: 0, recurseId: &#45;1, attributes: 512, notes: &quot;&quot; -->
<g id="node9" class="node">
<title>8</title>
<ellipse fill="none" stroke="black" cx="477.69" cy="-180" rx="74.38" ry="18"/>
<text xml:space="preserve" text-anchor="middle" x="477.69" y="-174.95" font-family="Times New Roman,serif" font-size="14.00">enum PhotoType</text>
</g>
<!-- 7&#45;&gt;8 -->
<g id="edge8" class="edge">
<title>7&#45;&gt;8</title>
<path fill="none" stroke="black" d="M319.49,-180C338.91,-180 365.68,-180 391.63,-180"/>
<polygon fill="black" stroke="black" points="391.56,-183.5 401.56,-180 391.56,-176.5 391.56,-183.5"/>
</g>
<!-- 10 -->
<!-- name: &quot;enum PhotoType&quot;, typeName: &quot;&quot;, id: 10, branchId: 0, recurseId: &#45;1, attributes: 512, notes: &quot;&quot; -->
<g id="node11" class="node">
<title>10</title>
<ellipse fill="none" stroke="black" cx="477.69" cy="-126" rx="74.38" ry="18"/>
<text xml:space="preserve" text-anchor="middle" x="477.69" y="-120.95" font-family="Times New Roman,serif" font-size="14.00">enum PhotoType</text>
</g>
<!-- 9&#45;&gt;10 -->
<g id="edge10" class="edge">
<title>9&#45;&gt;10</title>
<path fill="none" stroke="black" d="M347.12,-126C361.16,-126 376.54,-126 391.64,-126"/>
<polygon fill="black" stroke="black" points="391.59,-129.5 401.59,-126 391.59,-122.5 391.59,-129.5"/>
</g>
<!-- 12 -->
<!-- name: &quot;int64&quot;, typeName: &quot;&quot;, id: 12, branchId: 0, recurseId: &#45;1, attributes: 512, notes: &quot;&quot; -->
<g id="node13" class="node">
<title>12</title>
<ellipse fill="none" stroke="black" cx="477.69" cy="-72" rx="29.86" ry="18"/>
<text xml:space="preserve" text-anchor="middle" x="477.69" y="-66.95" font-family="Times New Roman,serif" font-size="14.00">int64</text>
</g>
<!-- 11&#45;&gt;12 -->
<g id="edge12" class="edge">
<title>11&#45;&gt;12</title>
<path fill="none" stroke="black" d="M338.23,-72C368.48,-72 407.27,-72 436.1,-72"/>
<polygon fill="black" stroke="black" points="435.89,-75.5 445.89,-72 435.89,-68.5 435.89,-75.5"/>
</g>
<!-- 14 -->
<!-- name: &quot;string&quot;, typeName: &quot;&quot;, id: 14, branchId: 0, recurseId: &#45;1, attributes: 512, notes: &quot;&quot; -->
<g id="node15" class="node">
<title>14</title>
<ellipse fill="none" stroke="black" cx="477.69" cy="-18" rx="31.9" ry="18"/>
<text xml:space="preserve" text-anchor="middle" x="477.69" y="-12.95" font-family="Times New Roman,serif" font-size="14.00">string</text>
</g>
<!-- 13&#45;&gt;14 -->
<g id="edge14" class="edge">
<title>13&#45;&gt;14</title>
<path fill="none" stroke="black" d="M367.79,-18C390.55,-18 414.63,-18 434.35,-18"/>
<polygon fill="black" stroke="black" points="434.2,-21.5 444.19,-18 434.19,-14.5 434.2,-21.5"/>
</g>
</g>
</svg>
