<?xml version="1.0" encoding="UTF-8" standalone="no"?>
<!DOCTYPE svg PUBLIC "-//W3C//DTD SVG 1.1//EN"
 "http://www.w3.org/Graphics/SVG/1.1/DTD/svg11.dtd">
<!-- Generated by graphviz version 12.2.0 (20241103.1931)
 -->
<!-- Title: PlayerBlockActions Pages: 1 -->
<svg width="1022pt" height="98pt"
 viewBox="0.00 0.00 1021.73 98.00" xmlns="http://www.w3.org/2000/svg" xmlns:xlink="http://www.w3.org/1999/xlink">
<g id="graph0" class="graph" transform="scale(1 1) rotate(0) translate(4 94)">
<title>PlayerBlockActions</title>
<polygon fill="white" stroke="none" points="-4,4 -4,-94 1017.73,-94 1017.73,4 -4,4"/>
<!-- 127 -->
<!-- name: &quot;PlayerBlockActions&quot;, typeName: &quot;&quot;, id: 127, branchId: 0, recurseId: &#45;1, attributes: 0, notes: &quot;&quot; -->
<g id="node1" class="node">
<title>127</title>
<ellipse fill="none" stroke="black" cx="85.13" cy="-45" rx="85.13" ry="18"/>
<text text-anchor="middle" x="85.13" y="-39.95" font-family="Times New Roman,serif" font-size="14.00">PlayerBlockActions</text>
</g>
<!-- 128 -->
<!-- name: &quot;Size&quot;, typeName: &quot;&quot;, id: 128, branchId: 0, recurseId: &#45;1, attributes: 0, notes: &quot;&quot; -->
<g id="node2" class="node">
<title>128</title>
<ellipse fill="none" stroke="black" cx="496.63" cy="-72" rx="27" ry="18"/>
<text text-anchor="middle" x="496.63" y="-66.95" font-family="Times New Roman,serif" font-size="14.00">Size</text>
</g>
<!-- 127&#45;&gt;128 -->
<g id="edge1" class="edge">
<title>127&#45;&gt;128</title>
<path fill="none" stroke="black" d="M167.03,-50.33C255.25,-56.15 392.58,-65.21 458.23,-69.53"/>
<polygon fill="black" stroke="black" points="457.9,-73.02 468.11,-70.19 458.36,-66.04 457.9,-73.02"/>
</g>
<!-- 130 -->
<!-- name: &quot;Player Block Actions&quot;, typeName: &quot;&quot;, id: 130, branchId: 0, recurseId: &#45;1, attributes: 8, notes: &quot;&quot; -->
<g id="node4" class="node">
<title>130</title>
<ellipse fill="none" stroke="black" cx="296" cy="-22" rx="89.74" ry="18"/>
<text text-anchor="middle" x="296" y="-16.95" font-family="Times New Roman,serif" font-size="14.00">Player Block Actions</text>
</g>
<!-- 127&#45;&gt;130 -->
<g id="edge3" class="edge">
<title>127&#45;&gt;130</title>
<path fill="none" stroke="black" d="M161.54,-36.7C175.78,-35.13 190.81,-33.47 205.44,-31.86"/>
<polygon fill="black" stroke="black" points="205.48,-35.38 215.03,-30.81 204.71,-28.42 205.48,-35.38"/>
</g>
<!-- 129 -->
<!-- name: &quot;varint&quot;, typeName: &quot;&quot;, id: 129, branchId: 0, recurseId: &#45;1, attributes: 512, notes: &quot;&quot; -->
<g id="node3" class="node">
<title>129</title>
<ellipse fill="none" stroke="black" cx="914.78" cy="-72" rx="32.41" ry="18"/>
<text text-anchor="middle" x="914.78" y="-66.95" font-family="Times New Roman,serif" font-size="14.00">varint</text>
</g>
<!-- 128&#45;&gt;129 -->
<g id="edge2" class="edge">
<title>128&#45;&gt;129</title>
<path fill="none" stroke="black" d="M523.98,-72C593.86,-72 784.43,-72 870.53,-72"/>
<polygon fill="black" stroke="black" points="870.45,-75.5 880.45,-72 870.45,-68.5 870.45,-75.5"/>
</g>
<!-- 131 -->
<!-- name: &quot;example element&quot;, typeName: &quot;&quot;, id: 131, branchId: 0, recurseId: &#45;1, attributes: 16, notes: &quot;&quot; -->
<g id="node5" class="node">
<title>131</title>
<ellipse fill="none" stroke="black" stroke-dasharray="1,5" cx="496.63" cy="-18" rx="74.89" ry="18"/>
<text text-anchor="middle" x="496.63" y="-12.95" font-family="Times New Roman,serif" font-size="14.00">example element</text>
</g>
<!-- 130&#45;&gt;131 -->
<g id="edge4" class="edge">
<title>130&#45;&gt;131</title>
<path fill="none" stroke="black" d="M385.57,-20.22C393.72,-20.05 401.98,-19.89 410.11,-19.72"/>
<polygon fill="black" stroke="black" points="410.05,-23.22 419.98,-19.52 409.91,-16.23 410.05,-23.22"/>
</g>
<!-- 132 -->
<!-- name: &quot;Player Block Action&quot;, typeName: &quot;PlayerBlockActionData&quot;, id: 132, branchId: 0, recurseId: &#45;1, attributes: 256, notes: &quot;&quot; -->
<g id="node6" class="node">
<title>132</title>
<ellipse fill="none" stroke="black" cx="693.68" cy="-18" rx="86.15" ry="18"/>
<text text-anchor="middle" x="693.68" y="-12.95" font-family="Times New Roman,serif" font-size="14.00">Player Block Action</text>
</g>
<!-- 131&#45;&gt;132 -->
<g id="edge5" class="edge">
<title>131&#45;&gt;132</title>
<path fill="none" stroke="black" d="M571.93,-18C579.76,-18 587.8,-18 595.83,-18"/>
<polygon fill="black" stroke="black" points="595.65,-21.5 605.65,-18 595.65,-14.5 595.65,-21.5"/>
</g>
<!-- 164 -->
<!-- name: &quot;PlayerBlockActionData&quot;, typeName: &quot;&quot;, id: 164, branchId: 0, recurseId: &#45;1, attributes: 512, notes: &quot;&quot; -->
<g id="node7" class="node">
<title>164</title>
<ellipse fill="none" stroke="black" cx="914.78" cy="-18" rx="98.95" ry="18"/>
<text text-anchor="middle" x="914.78" y="-12.95" font-family="Times New Roman,serif" font-size="14.00">PlayerBlockActionData</text>
</g>
<!-- 132&#45;&gt;164 -->
<g id="edge6" class="edge">
<title>132&#45;&gt;164</title>
<path fill="none" stroke="black" d="M780.33,-18C788.16,-18 796.17,-18 804.17,-18"/>
<polygon fill="black" stroke="black" points="803.95,-21.5 813.95,-18 803.95,-14.5 803.95,-21.5"/>
</g>
</g>
</svg>
