<?xml version="1.0" encoding="UTF-8" standalone="no"?>
<!DOCTYPE svg PUBLIC "-//W3C//DTD SVG 1.1//EN"
 "http://www.w3.org/Graphics/SVG/1.1/DTD/svg11.dtd">
<!-- Generated by graphviz version 2.46.1 (20210213.1702)
 -->
<!-- Title: PlaySoundPacket Pages: 1 -->
<svg width="496pt" height="206pt"
 viewBox="0.00 0.00 495.96 206.00" xmlns="http://www.w3.org/2000/svg" xmlns:xlink="http://www.w3.org/1999/xlink">
<g id="graph0" class="graph" transform="scale(1 1) rotate(0) translate(4 202)">
<title>PlaySoundPacket</title>
<polygon fill="white" stroke="transparent" points="-4,4 -4,-202 491.96,-202 491.96,4 -4,4"/>
<!-- 0 -->
<!-- name: &quot;PlaySoundPacket&quot;, typeName: &quot;&quot;, id: 0, branchId: 86, recurseId: &#45;1, attributes: 0, notes: &quot;&quot; -->
<g id="node1" class="node">
<title>0</title>
<ellipse fill="none" stroke="black" cx="74.74" cy="-99" rx="74.99" ry="18"/>
<text text-anchor="middle" x="74.74" y="-95.3" font-family="Times New Roman,serif" font-size="14.00">PlaySoundPacket</text>
</g>
<!-- 1 -->
<!-- name: &quot;Name&quot;, typeName: &quot;&quot;, id: 1, branchId: 0, recurseId: &#45;1, attributes: 0, notes: &quot;&quot; -->
<g id="node2" class="node">
<title>1</title>
<ellipse fill="none" stroke="black" cx="225.78" cy="-180" rx="31.7" ry="18"/>
<text text-anchor="middle" x="225.78" y="-176.3" font-family="Times New Roman,serif" font-size="14.00">Name</text>
</g>
<!-- 0&#45;&gt;1 -->
<g id="edge1" class="edge">
<title>0&#45;&gt;1</title>
<path fill="none" stroke="black" d="M105.9,-115.39C131.21,-129.14 167.24,-148.72 192.99,-162.72"/>
<polygon fill="black" stroke="black" points="191.51,-165.9 201.97,-167.6 194.85,-159.75 191.51,-165.9"/>
</g>
<!-- 3 -->
<!-- name: &quot;Position&quot;, typeName: &quot;NetworkBlockPosition&quot;, id: 3, branchId: 0, recurseId: &#45;1, attributes: 256, notes: &quot;&quot; -->
<g id="node4" class="node">
<title>3</title>
<ellipse fill="none" stroke="black" cx="225.78" cy="-126" rx="40.09" ry="18"/>
<text text-anchor="middle" x="225.78" y="-122.3" font-family="Times New Roman,serif" font-size="14.00">Position</text>
</g>
<!-- 0&#45;&gt;3 -->
<g id="edge3" class="edge">
<title>0&#45;&gt;3</title>
<path fill="none" stroke="black" d="M135.08,-109.75C149.31,-112.33 164.31,-115.04 177.89,-117.5"/>
<polygon fill="black" stroke="black" points="177.49,-120.99 187.96,-119.33 178.74,-114.1 177.49,-120.99"/>
</g>
<!-- 5 -->
<!-- name: &quot;Volume&quot;, typeName: &quot;&quot;, id: 5, branchId: 0, recurseId: &#45;1, attributes: 0, notes: &quot;&quot; -->
<g id="node6" class="node">
<title>5</title>
<ellipse fill="none" stroke="black" cx="225.78" cy="-72" rx="38.99" ry="18"/>
<text text-anchor="middle" x="225.78" y="-68.3" font-family="Times New Roman,serif" font-size="14.00">Volume</text>
</g>
<!-- 0&#45;&gt;5 -->
<g id="edge5" class="edge">
<title>0&#45;&gt;5</title>
<path fill="none" stroke="black" d="M135.08,-88.25C149.84,-85.58 165.43,-82.75 179.4,-80.22"/>
<polygon fill="black" stroke="black" points="180.04,-83.66 189.25,-78.44 178.79,-76.78 180.04,-83.66"/>
</g>
<!-- 7 -->
<!-- name: &quot;Pitch&quot;, typeName: &quot;&quot;, id: 7, branchId: 0, recurseId: &#45;1, attributes: 0, notes: &quot;&quot; -->
<g id="node8" class="node">
<title>7</title>
<ellipse fill="none" stroke="black" cx="225.78" cy="-18" rx="29.5" ry="18"/>
<text text-anchor="middle" x="225.78" y="-14.3" font-family="Times New Roman,serif" font-size="14.00">Pitch</text>
</g>
<!-- 0&#45;&gt;7 -->
<g id="edge7" class="edge">
<title>0&#45;&gt;7</title>
<path fill="none" stroke="black" d="M105.9,-82.61C131.66,-68.61 168.53,-48.57 194.36,-34.53"/>
<polygon fill="black" stroke="black" points="196.23,-37.5 203.34,-29.65 192.88,-31.35 196.23,-37.5"/>
</g>
<!-- 2 -->
<!-- name: &quot;string&quot;, typeName: &quot;&quot;, id: 2, branchId: 0, recurseId: &#45;1, attributes: 512, notes: &quot;&quot; -->
<g id="node3" class="node">
<title>2</title>
<ellipse fill="none" stroke="black" cx="395.02" cy="-180" rx="30.59" ry="18"/>
<text text-anchor="middle" x="395.02" y="-176.3" font-family="Times New Roman,serif" font-size="14.00">string</text>
</g>
<!-- 1&#45;&gt;2 -->
<g id="edge2" class="edge">
<title>1&#45;&gt;2</title>
<path fill="none" stroke="black" d="M257.85,-180C284.94,-180 324.4,-180 353.88,-180"/>
<polygon fill="black" stroke="black" points="354.25,-183.5 364.25,-180 354.25,-176.5 354.25,-183.5"/>
</g>
<!-- 4 -->
<!-- name: &quot;NetworkBlockPosition&quot;, typeName: &quot;&quot;, id: 4, branchId: 0, recurseId: &#45;1, attributes: 512, notes: &quot;&quot; -->
<g id="node5" class="node">
<title>4</title>
<ellipse fill="none" stroke="black" cx="395.02" cy="-126" rx="92.88" ry="18"/>
<text text-anchor="middle" x="395.02" y="-122.3" font-family="Times New Roman,serif" font-size="14.00">NetworkBlockPosition</text>
</g>
<!-- 3&#45;&gt;4 -->
<g id="edge4" class="edge">
<title>3&#45;&gt;4</title>
<path fill="none" stroke="black" d="M266.42,-126C274.28,-126 282.86,-126 291.74,-126"/>
<polygon fill="black" stroke="black" points="291.87,-129.5 301.87,-126 291.87,-122.5 291.87,-129.5"/>
</g>
<!-- 6 -->
<!-- name: &quot;float&quot;, typeName: &quot;&quot;, id: 6, branchId: 0, recurseId: &#45;1, attributes: 512, notes: &quot;&quot; -->
<g id="node7" class="node">
<title>6</title>
<ellipse fill="none" stroke="black" cx="395.02" cy="-72" rx="27" ry="18"/>
<text text-anchor="middle" x="395.02" y="-68.3" font-family="Times New Roman,serif" font-size="14.00">float</text>
</g>
<!-- 5&#45;&gt;6 -->
<g id="edge6" class="edge">
<title>5&#45;&gt;6</title>
<path fill="none" stroke="black" d="M265.15,-72C292.9,-72 330.18,-72 357.49,-72"/>
<polygon fill="black" stroke="black" points="357.8,-75.5 367.8,-72 357.8,-68.5 357.8,-75.5"/>
</g>
<!-- 8 -->
<!-- name: &quot;float&quot;, typeName: &quot;&quot;, id: 8, branchId: 0, recurseId: &#45;1, attributes: 512, notes: &quot;&quot; -->
<g id="node9" class="node">
<title>8</title>
<ellipse fill="none" stroke="black" cx="395.02" cy="-18" rx="27" ry="18"/>
<text text-anchor="middle" x="395.02" y="-14.3" font-family="Times New Roman,serif" font-size="14.00">float</text>
</g>
<!-- 7&#45;&gt;8 -->
<g id="edge8" class="edge">
<title>7&#45;&gt;8</title>
<path fill="none" stroke="black" d="M255.15,-18C283.41,-18 326.91,-18 357.68,-18"/>
<polygon fill="black" stroke="black" points="357.99,-21.5 367.99,-18 357.99,-14.5 357.99,-21.5"/>
</g>
</g>
</svg>
