<?xml version="1.0" encoding="UTF-8" standalone="no"?>
<!DOCTYPE svg PUBLIC "-//W3C//DTD SVG 1.1//EN"
 "http://www.w3.org/Graphics/SVG/1.1/DTD/svg11.dtd">
<!-- Generated by graphviz version 11.0.0 (20240428.1522)
 -->
<!-- Title: PlayerVideoCapturePacket Pages: 1 -->
<svg width="978pt" height="260pt"
 viewBox="0.00 0.00 977.94 260.00" xmlns="http://www.w3.org/2000/svg" xmlns:xlink="http://www.w3.org/1999/xlink">
<g id="graph0" class="graph" transform="scale(1 1) rotate(0) translate(4 256)">
<title>PlayerVideoCapturePacket</title>
<polygon fill="white" stroke="none" points="-4,4 -4,-256 973.94,-256 973.94,4 -4,4"/>
<!-- 0 -->
<!-- name: &quot;PlayerVideoCapturePacket&quot;, typeName: &quot;&quot;, id: 0, branchId: 324, recurseId: &#45;1, attributes: 0, notes: &quot;&quot; -->
<g id="node1" class="node">
<title>0</title>
<ellipse fill="none" stroke="black" cx="110.44" cy="-72" rx="110.44" ry="18"/>
<text text-anchor="middle" x="110.44" y="-66.58" font-family="Times New Roman,serif" font-size="14.00">PlayerVideoCapturePacket</text>
</g>
<!-- 1 -->
<!-- name: &quot;Dependency on &#39;Action&#39;&quot;, typeName: &quot;&quot;, id: 1, branchId: 0, recurseId: &#45;1, attributes: 2, notes: &quot;&quot; -->
<g id="node2" class="node">
<title>1</title>
<polygon fill="none" stroke="black" points="401.89,-90 256.89,-90 256.89,-54 407.89,-54 407.89,-84 401.89,-90"/>
<polyline fill="none" stroke="black" points="401.89,-90 401.89,-84"/>
<polyline fill="none" stroke="black" points="407.89,-84 401.89,-84"/>
<text text-anchor="middle" x="332.39" y="-66.58" font-family="Times New Roman,serif" font-size="14.00">Dependency on &#39;Action&#39;</text>
</g>
<!-- 0&#45;&gt;1 -->
<g id="edge1" class="edge">
<title>0&#45;&gt;1</title>
<path fill="none" stroke="black" d="M221.09,-72C229.19,-72 237.29,-72 245.22,-72"/>
<polygon fill="black" stroke="black" points="245.17,-75.5 255.17,-72 245.17,-68.5 245.17,-75.5"/>
</g>
<!-- 2 -->
<!-- name: &quot;Start Video Capture&quot;, typeName: &quot;&quot;, id: 2, branchId: 0, recurseId: &#45;1, attributes: 4, notes: &quot;&quot; -->
<g id="node3" class="node">
<title>2</title>
<polygon fill="none" stroke="black" points="564.8,-171 444.59,-153 564.8,-135 685,-153 564.8,-171"/>
<text text-anchor="middle" x="564.8" y="-147.57" font-family="Times New Roman,serif" font-size="14.00">Start Video Capture</text>
</g>
<!-- 1&#45;&gt;2 -->
<g id="edge2" class="edge">
<title>1&#45;&gt;2</title>
<path fill="none" stroke="black" d="M385.96,-90.48C425.25,-104.29 478.5,-123.01 516.46,-136.36"/>
<polygon fill="black" stroke="black" points="515.21,-139.63 525.8,-139.64 517.53,-133.03 515.21,-139.63"/>
</g>
<!-- 9 -->
<!-- name: &quot;Stop Video Capture&quot;, typeName: &quot;&quot;, id: 9, branchId: 1, recurseId: &#45;1, attributes: 4, notes: &quot;&quot; -->
<g id="node10" class="node">
<title>9</title>
<polygon fill="none" stroke="black" points="564.8,-90 443.89,-72 564.8,-54 685.7,-72 564.8,-90"/>
<text text-anchor="middle" x="564.8" y="-66.58" font-family="Times New Roman,serif" font-size="14.00">Stop Video Capture</text>
</g>
<!-- 1&#45;&gt;9 -->
<g id="edge9" class="edge">
<title>1&#45;&gt;9</title>
<path fill="none" stroke="black" d="M408.2,-72C415.09,-72 422.21,-72 429.44,-72"/>
<polygon fill="black" stroke="black" points="429.34,-75.5 439.34,-72 429.34,-68.5 429.34,-75.5"/>
</g>
<!-- 12 -->
<!-- name: &quot;Default&quot;, typeName: &quot;&quot;, id: 12, branchId: 2, recurseId: &#45;1, attributes: 4, notes: &quot;&quot; -->
<g id="node13" class="node">
<title>12</title>
<polygon fill="none" stroke="black" points="564.8,-36 512.34,-18 564.8,0 617.25,-18 564.8,-36"/>
<text text-anchor="middle" x="564.8" y="-12.58" font-family="Times New Roman,serif" font-size="14.00">Default</text>
</g>
<!-- 1&#45;&gt;12 -->
<g id="edge12" class="edge">
<title>1&#45;&gt;12</title>
<path fill="none" stroke="black" d="M408.24,-53.52C420.16,-50.63 432.35,-47.71 443.89,-45 469.3,-39.03 497.81,-32.6 520.65,-27.52"/>
<polygon fill="black" stroke="black" points="521.22,-30.98 530.22,-25.39 519.7,-24.14 521.22,-30.98"/>
</g>
<!-- 3 -->
<!-- name: &quot;Action&quot;, typeName: &quot;&quot;, id: 3, branchId: 0, recurseId: &#45;1, attributes: 0, notes: &quot;&quot; -->
<g id="node4" class="node">
<title>3</title>
<ellipse fill="none" stroke="black" cx="772.77" cy="-234" rx="35.6" ry="18"/>
<text text-anchor="middle" x="772.77" y="-228.57" font-family="Times New Roman,serif" font-size="14.00">Action</text>
</g>
<!-- 2&#45;&gt;3 -->
<g id="edge3" class="edge">
<title>2&#45;&gt;3</title>
<path fill="none" stroke="black" d="M599.35,-166.19C636.13,-180.66 695.03,-203.82 733.56,-218.97"/>
<polygon fill="black" stroke="black" points="731.86,-222.07 742.44,-222.47 734.42,-215.55 731.86,-222.07"/>
</g>
<!-- 5 -->
<!-- name: &quot;FrameRate&quot;, typeName: &quot;&quot;, id: 5, branchId: 0, recurseId: &#45;1, attributes: 0, notes: &quot;&quot; -->
<g id="node6" class="node">
<title>5</title>
<ellipse fill="none" stroke="black" cx="772.77" cy="-180" rx="51.06" ry="18"/>
<text text-anchor="middle" x="772.77" y="-174.57" font-family="Times New Roman,serif" font-size="14.00">FrameRate</text>
</g>
<!-- 2&#45;&gt;5 -->
<g id="edge5" class="edge">
<title>2&#45;&gt;5</title>
<path fill="none" stroke="black" d="M630.97,-161.54C657.23,-164.99 687.31,-168.93 712.91,-172.28"/>
<polygon fill="black" stroke="black" points="712.45,-175.75 722.82,-173.58 713.36,-168.81 712.45,-175.75"/>
</g>
<!-- 7 -->
<!-- name: &quot;FilePrefix&quot;, typeName: &quot;&quot;, id: 7, branchId: 0, recurseId: &#45;1, attributes: 0, notes: &quot;&quot; -->
<g id="node8" class="node">
<title>7</title>
<ellipse fill="none" stroke="black" cx="772.77" cy="-126" rx="46.07" ry="18"/>
<text text-anchor="middle" x="772.77" y="-120.58" font-family="Times New Roman,serif" font-size="14.00">FilePrefix</text>
</g>
<!-- 2&#45;&gt;7 -->
<g id="edge7" class="edge">
<title>2&#45;&gt;7</title>
<path fill="none" stroke="black" d="M630.97,-144.46C658.69,-140.82 690.65,-136.63 717.11,-133.16"/>
<polygon fill="black" stroke="black" points="717.5,-136.64 726.96,-131.87 716.59,-129.7 717.5,-136.64"/>
</g>
<!-- 4 -->
<!-- name: &quot;bool&quot;, typeName: &quot;&quot;, id: 4, branchId: 0, recurseId: &#45;1, attributes: 512, notes: &quot;&quot; -->
<g id="node5" class="node">
<title>4</title>
<ellipse fill="none" stroke="black" cx="914.89" cy="-234" rx="27.61" ry="18"/>
<text text-anchor="middle" x="914.89" y="-228.57" font-family="Times New Roman,serif" font-size="14.00">bool</text>
</g>
<!-- 3&#45;&gt;4 -->
<g id="edge4" class="edge">
<title>3&#45;&gt;4</title>
<path fill="none" stroke="black" d="M808.76,-234C829.05,-234 854.62,-234 875.47,-234"/>
<polygon fill="black" stroke="black" points="875.29,-237.5 885.29,-234 875.29,-230.5 875.29,-237.5"/>
</g>
<!-- 6 -->
<!-- name: &quot;unsigned int&quot;, typeName: &quot;&quot;, id: 6, branchId: 0, recurseId: &#45;1, attributes: 512, notes: &quot;&quot; -->
<g id="node7" class="node">
<title>6</title>
<ellipse fill="none" stroke="black" cx="914.89" cy="-180" rx="55.06" ry="18"/>
<text text-anchor="middle" x="914.89" y="-174.57" font-family="Times New Roman,serif" font-size="14.00">unsigned int</text>
</g>
<!-- 5&#45;&gt;6 -->
<g id="edge6" class="edge">
<title>5&#45;&gt;6</title>
<path fill="none" stroke="black" d="M823.96,-180C831.86,-180 840.12,-180 848.31,-180"/>
<polygon fill="black" stroke="black" points="848.27,-183.5 858.27,-180 848.27,-176.5 848.27,-183.5"/>
</g>
<!-- 8 -->
<!-- name: &quot;string&quot;, typeName: &quot;&quot;, id: 8, branchId: 0, recurseId: &#45;1, attributes: 512, notes: &quot;&quot; -->
<g id="node9" class="node">
<title>8</title>
<ellipse fill="none" stroke="black" cx="914.89" cy="-126" rx="31.1" ry="18"/>
<text text-anchor="middle" x="914.89" y="-120.58" font-family="Times New Roman,serif" font-size="14.00">string</text>
</g>
<!-- 7&#45;&gt;8 -->
<g id="edge8" class="edge">
<title>7&#45;&gt;8</title>
<path fill="none" stroke="black" d="M819.26,-126C836.4,-126 855.79,-126 872.53,-126"/>
<polygon fill="black" stroke="black" points="872.13,-129.5 882.13,-126 872.13,-122.5 872.13,-129.5"/>
</g>
<!-- 10 -->
<!-- name: &quot;Action&quot;, typeName: &quot;&quot;, id: 10, branchId: 0, recurseId: &#45;1, attributes: 0, notes: &quot;&quot; -->
<g id="node11" class="node">
<title>10</title>
<ellipse fill="none" stroke="black" cx="772.77" cy="-72" rx="35.6" ry="18"/>
<text text-anchor="middle" x="772.77" y="-66.58" font-family="Times New Roman,serif" font-size="14.00">Action</text>
</g>
<!-- 9&#45;&gt;10 -->
<g id="edge10" class="edge">
<title>9&#45;&gt;10</title>
<path fill="none" stroke="black" d="M688.88,-72C701.89,-72 714.45,-72 725.7,-72"/>
<polygon fill="black" stroke="black" points="725.39,-75.5 735.39,-72 725.39,-68.5 725.39,-75.5"/>
</g>
<!-- 11 -->
<!-- name: &quot;bool&quot;, typeName: &quot;&quot;, id: 11, branchId: 0, recurseId: &#45;1, attributes: 512, notes: &quot;&quot; -->
<g id="node12" class="node">
<title>11</title>
<ellipse fill="none" stroke="black" cx="914.89" cy="-72" rx="27.61" ry="18"/>
<text text-anchor="middle" x="914.89" y="-66.58" font-family="Times New Roman,serif" font-size="14.00">bool</text>
</g>
<!-- 10&#45;&gt;11 -->
<g id="edge11" class="edge">
<title>10&#45;&gt;11</title>
<path fill="none" stroke="black" d="M808.76,-72C829.05,-72 854.62,-72 875.47,-72"/>
<polygon fill="black" stroke="black" points="875.29,-75.5 885.29,-72 875.29,-68.5 875.29,-75.5"/>
</g>
<!-- 13 -->
<!-- name: &quot;[No Data]&quot;, typeName: &quot;&quot;, id: 13, branchId: 0, recurseId: &#45;1, attributes: 512, notes: &quot;&quot; -->
<g id="node14" class="node">
<title>13</title>
<ellipse fill="none" stroke="black" cx="914.89" cy="-18" rx="47.57" ry="18"/>
<text text-anchor="middle" x="914.89" y="-12.58" font-family="Times New Roman,serif" font-size="14.00">[No Data]</text>
</g>
<!-- 12&#45;&gt;13 -->
<g id="edge13" class="edge">
<title>12&#45;&gt;13</title>
<path fill="none" stroke="black" d="M618.66,-18C682.45,-18 789.33,-18 855.49,-18"/>
<polygon fill="black" stroke="black" points="855.44,-21.5 865.44,-18 855.44,-14.5 855.44,-21.5"/>
</g>
</g>
</svg>
