<?xml version="1.0" encoding="UTF-8" standalone="no"?>
<!DOCTYPE svg PUBLIC "-//W3C//DTD SVG 1.1//EN"
 "http://www.w3.org/Graphics/SVG/1.1/DTD/svg11.dtd">
<!-- Generated by graphviz version 2.46.1 (20210213.1702)
 -->
<!-- Title: PlayerBlockActions Pages: 1 -->
<svg width="1046pt" height="98pt"
 viewBox="0.00 0.00 1046.32 98.00" xmlns="http://www.w3.org/2000/svg" xmlns:xlink="http://www.w3.org/1999/xlink">
<g id="graph0" class="graph" transform="scale(1 1) rotate(0) translate(4 94)">
<title>PlayerBlockActions</title>
<polygon fill="white" stroke="transparent" points="-4,4 -4,-94 1042.32,-94 1042.32,4 -4,4"/>
<!-- 118 -->
<!-- name: &quot;PlayerBlockActions&quot;, typeName: &quot;&quot;, id: 118, branchId: 0, recurseId: &#45;1, attributes: 0, notes: &quot;&quot; -->
<g id="node1" class="node">
<title>118</title>
<ellipse fill="none" stroke="black" cx="83.19" cy="-45" rx="83.39" ry="18"/>
<text text-anchor="middle" x="83.19" y="-41.3" font-family="Times New Roman,serif" font-size="14.00">PlayerBlockActions</text>
</g>
<!-- 119 -->
<!-- name: &quot;Player Block Actions&quot;, typeName: &quot;&quot;, id: 119, branchId: 0, recurseId: &#45;1, attributes: 8, notes: &quot;&quot; -->
<g id="node2" class="node">
<title>119</title>
<ellipse fill="none" stroke="black" cx="290.13" cy="-45" rx="87.99" ry="18"/>
<text text-anchor="middle" x="290.13" y="-41.3" font-family="Times New Roman,serif" font-size="14.00">Player Block Actions</text>
</g>
<!-- 118&#45;&gt;119 -->
<g id="edge1" class="edge">
<title>118&#45;&gt;119</title>
<path fill="none" stroke="black" d="M166.66,-45C174.96,-45 183.45,-45 191.89,-45"/>
<polygon fill="black" stroke="black" points="192.14,-48.5 202.14,-45 192.14,-41.5 192.14,-48.5"/>
</g>
<!-- 120 -->
<!-- name: &quot;Player Block Actions count&quot;, typeName: &quot;&quot;, id: 120, branchId: 0, recurseId: &#45;1, attributes: 0, notes: &quot;&quot; -->
<g id="node3" class="node">
<title>120</title>
<ellipse fill="none" stroke="black" cx="700.75" cy="-72" rx="110.48" ry="18"/>
<text text-anchor="middle" x="700.75" y="-68.3" font-family="Times New Roman,serif" font-size="14.00">Player Block Actions count</text>
</g>
<!-- 119&#45;&gt;120 -->
<g id="edge2" class="edge">
<title>119&#45;&gt;120</title>
<path fill="none" stroke="black" d="M373.82,-50.46C435.37,-54.53 520.08,-60.13 587.71,-64.6"/>
<polygon fill="black" stroke="black" points="587.78,-68.11 597.99,-65.28 588.24,-61.12 587.78,-68.11"/>
</g>
<!-- 122 -->
<!-- name: &quot;example element&quot;, typeName: &quot;&quot;, id: 122, branchId: 0, recurseId: &#45;1, attributes: 16, notes: &quot;&quot; -->
<g id="node5" class="node">
<title>122</title>
<ellipse fill="none" stroke="black" stroke-dasharray="1,5" cx="484.06" cy="-22" rx="70.39" ry="18"/>
<text text-anchor="middle" x="484.06" y="-18.3" font-family="Times New Roman,serif" font-size="14.00">example element</text>
</g>
<!-- 119&#45;&gt;122 -->
<g id="edge4" class="edge">
<title>119&#45;&gt;122</title>
<path fill="none" stroke="black" d="M366.16,-36.01C380.54,-34.29 395.59,-32.48 409.91,-30.77"/>
<polygon fill="black" stroke="black" points="410.68,-34.2 420.19,-29.53 409.85,-27.25 410.68,-34.2"/>
</g>
<!-- 121 -->
<!-- name: &quot;varint&quot;, typeName: &quot;&quot;, id: 121, branchId: 0, recurseId: &#45;1, attributes: 512, notes: &quot;&quot; -->
<g id="node4" class="node">
<title>121</title>
<ellipse fill="none" stroke="black" cx="942.78" cy="-72" rx="30.59" ry="18"/>
<text text-anchor="middle" x="942.78" y="-68.3" font-family="Times New Roman,serif" font-size="14.00">varint</text>
</g>
<!-- 120&#45;&gt;121 -->
<g id="edge3" class="edge">
<title>120&#45;&gt;121</title>
<path fill="none" stroke="black" d="M811.58,-72C843.87,-72 877.16,-72 901.99,-72"/>
<polygon fill="black" stroke="black" points="902.09,-75.5 912.09,-72 902.09,-68.5 902.09,-75.5"/>
</g>
<!-- 123 -->
<!-- name: &quot;Player Block Action&quot;, typeName: &quot;PlayerBlockActionData&quot;, id: 123, branchId: 0, recurseId: &#45;1, attributes: 256, notes: &quot;&quot; -->
<g id="node6" class="node">
<title>123</title>
<ellipse fill="none" stroke="black" cx="700.75" cy="-18" rx="83.69" ry="18"/>
<text text-anchor="middle" x="700.75" y="-14.3" font-family="Times New Roman,serif" font-size="14.00">Player Block Action</text>
</g>
<!-- 122&#45;&gt;123 -->
<g id="edge5" class="edge">
<title>122&#45;&gt;123</title>
<path fill="none" stroke="black" d="M554.17,-20.71C570.87,-20.4 589,-20.06 606.6,-19.74"/>
<polygon fill="black" stroke="black" points="606.96,-23.23 616.89,-19.54 606.83,-16.23 606.96,-23.23"/>
</g>
<!-- 158 -->
<!-- name: &quot;PlayerBlockActionData&quot;, typeName: &quot;&quot;, id: 158, branchId: 0, recurseId: &#45;1, attributes: 512, notes: &quot;&quot; -->
<g id="node7" class="node">
<title>158</title>
<ellipse fill="none" stroke="black" cx="942.78" cy="-18" rx="95.58" ry="18"/>
<text text-anchor="middle" x="942.78" y="-14.3" font-family="Times New Roman,serif" font-size="14.00">PlayerBlockActionData</text>
</g>
<!-- 123&#45;&gt;158 -->
<g id="edge6" class="edge">
<title>123&#45;&gt;158</title>
<path fill="none" stroke="black" d="M784.69,-18C801.45,-18 819.29,-18 836.7,-18"/>
<polygon fill="black" stroke="black" points="836.89,-21.5 846.89,-18 836.89,-14.5 836.89,-21.5"/>
</g>
</g>
</svg>
