<?xml version="1.0" encoding="UTF-8" standalone="no"?>
<!DOCTYPE svg PUBLIC "-//W3C//DTD SVG 1.1//EN"
 "http://www.w3.org/Graphics/SVG/1.1/DTD/svg11.dtd">
<!-- Generated by graphviz version 13.1.2 (20250808.2320)
 -->
<!-- Title: PlayerArmorDamagePacket Pages: 1 -->
<svg width="1236pt" height="152pt"
 viewBox="0.00 0.00 1236.00 152.00" xmlns="http://www.w3.org/2000/svg" xmlns:xlink="http://www.w3.org/1999/xlink">
<g id="graph0" class="graph" transform="scale(1 1) rotate(0) translate(4 148)">
<title>PlayerArmorDamagePacket</title>
<polygon fill="white" stroke="none" points="-4,4 -4,-148 1231.67,-148 1231.67,4 -4,4"/>
<!-- 0 -->
<!-- name: &quot;PlayerArmorDamagePacket&quot;, typeName: &quot;&quot;, id: 0, branchId: 0, recurseId: &#45;1, attributes: 0, notes: &quot;Sent from server whenever the player&#39;s armor takes damage.&quot; -->
<g id="node1" class="node">
<title>0</title>
<ellipse fill="none" stroke="black" cx="115.33" cy="-99" rx="115.33" ry="18"/>
<text xml:space="preserve" text-anchor="middle" x="115.33" y="-93.95" font-family="Times New Roman,serif" font-size="14.00">PlayerArmorDamagePacket</text>
</g>
<!-- 1 -->
<!-- name: &quot;Armor Slot and Damage Pairs&quot;, typeName: &quot;&quot;, id: 1, branchId: 0, recurseId: &#45;1, attributes: 0, notes: &quot;&quot; -->
<g id="node2" class="node">
<title>1</title>
<ellipse fill="none" stroke="black" cx="390.68" cy="-99" rx="124.03" ry="18"/>
<text xml:space="preserve" text-anchor="middle" x="390.68" y="-93.95" font-family="Times New Roman,serif" font-size="14.00">Armor Slot and Damage Pairs</text>
</g>
<!-- 0&#45;&gt;1 -->
<g id="edge1" class="edge">
<title>0&#45;&gt;1</title>
<path fill="none" stroke="black" d="M231.07,-99C239.01,-99 247.06,-99 255.09,-99"/>
<polygon fill="black" stroke="black" points="254.92,-102.5 264.92,-99 254.92,-95.5 254.92,-102.5"/>
</g>
<!-- 2 -->
<!-- name: &quot;List Size&quot;, typeName: &quot;&quot;, id: 2, branchId: 0, recurseId: &#45;1, attributes: 0, notes: &quot;&quot; -->
<g id="node3" class="node">
<title>2</title>
<ellipse fill="none" stroke="black" cx="625.61" cy="-126" rx="43.67" ry="18"/>
<text xml:space="preserve" text-anchor="middle" x="625.61" y="-120.95" font-family="Times New Roman,serif" font-size="14.00">List Size</text>
</g>
<!-- 1&#45;&gt;2 -->
<g id="edge2" class="edge">
<title>1&#45;&gt;2</title>
<path fill="none" stroke="black" d="M489.11,-110.29C517.52,-113.59 547.49,-117.06 571.99,-119.9"/>
<polygon fill="black" stroke="black" points="571.36,-123.35 581.7,-121.03 572.16,-116.4 571.36,-123.35"/>
</g>
<!-- 4 -->
<!-- name: &quot;example element&quot;, typeName: &quot;&quot;, id: 4, branchId: 0, recurseId: &#45;1, attributes: 16, notes: &quot;&quot; -->
<g id="node5" class="node">
<title>4</title>
<ellipse fill="none" stroke="black" stroke-dasharray="1,5" cx="625.61" cy="-72" rx="74.89" ry="18"/>
<text xml:space="preserve" text-anchor="middle" x="625.61" y="-66.95" font-family="Times New Roman,serif" font-size="14.00">example element</text>
</g>
<!-- 1&#45;&gt;4 -->
<g id="edge4" class="edge">
<title>1&#45;&gt;4</title>
<path fill="none" stroke="black" d="M489.11,-87.71C508.11,-85.5 527.8,-83.22 546.09,-81.1"/>
<polygon fill="black" stroke="black" points="546.24,-84.61 555.77,-79.98 545.43,-77.65 546.24,-84.61"/>
</g>
<!-- 3 -->
<!-- name: &quot;unsigned varint&quot;, typeName: &quot;&quot;, id: 3, branchId: 0, recurseId: &#45;1, attributes: 0, notes: &quot;&quot; -->
<g id="node4" class="node">
<title>3</title>
<ellipse fill="none" stroke="black" cx="804.74" cy="-126" rx="68.24" ry="18"/>
<text xml:space="preserve" text-anchor="middle" x="804.74" y="-120.95" font-family="Times New Roman,serif" font-size="14.00">unsigned varint</text>
</g>
<!-- 2&#45;&gt;3 -->
<g id="edge3" class="edge">
<title>2&#45;&gt;3</title>
<path fill="none" stroke="black" d="M669.49,-126C686.1,-126 705.66,-126 724.64,-126"/>
<polygon fill="black" stroke="black" points="724.52,-129.5 734.52,-126 724.52,-122.5 724.52,-129.5"/>
</g>
<!-- 5 -->
<!-- name: &quot;Armor Slot&quot;, typeName: &quot;&quot;, id: 5, branchId: 0, recurseId: &#45;1, attributes: 0, notes: &quot;&quot; -->
<g id="node6" class="node">
<title>5</title>
<ellipse fill="none" stroke="black" cx="804.74" cy="-72" rx="53.4" ry="18"/>
<text xml:space="preserve" text-anchor="middle" x="804.74" y="-66.95" font-family="Times New Roman,serif" font-size="14.00">Armor Slot</text>
</g>
<!-- 4&#45;&gt;5 -->
<g id="edge5" class="edge">
<title>4&#45;&gt;5</title>
<path fill="none" stroke="black" d="M700.96,-72C713.86,-72 727.18,-72 739.77,-72"/>
<polygon fill="black" stroke="black" points="739.59,-75.5 749.59,-72 739.59,-68.5 739.59,-75.5"/>
</g>
<!-- 7 -->
<!-- name: &quot;Damage&quot;, typeName: &quot;&quot;, id: 7, branchId: 0, recurseId: &#45;1, attributes: 0, notes: &quot;&quot; -->
<g id="node8" class="node">
<title>7</title>
<ellipse fill="none" stroke="black" cx="804.74" cy="-18" rx="42.14" ry="18"/>
<text xml:space="preserve" text-anchor="middle" x="804.74" y="-12.95" font-family="Times New Roman,serif" font-size="14.00">Damage</text>
</g>
<!-- 4&#45;&gt;7 -->
<g id="edge7" class="edge">
<title>4&#45;&gt;7</title>
<path fill="none" stroke="black" d="M673.15,-57.81C699.61,-49.75 732.58,-39.69 758.77,-31.71"/>
<polygon fill="black" stroke="black" points="759.55,-35.13 768.1,-28.87 757.51,-28.43 759.55,-35.13"/>
</g>
<!-- 6 -->
<!-- name: &quot;enum SharedTypes::Legacy::ArmorSlot&quot;, typeName: &quot;&quot;, id: 6, branchId: 0, recurseId: &#45;1, attributes: 512, notes: &quot;&quot; -->
<g id="node7" class="node">
<title>6</title>
<ellipse fill="none" stroke="black" cx="1068.33" cy="-72" rx="159.34" ry="18"/>
<text xml:space="preserve" text-anchor="middle" x="1068.33" y="-66.95" font-family="Times New Roman,serif" font-size="14.00">enum SharedTypes::Legacy::ArmorSlot</text>
</g>
<!-- 5&#45;&gt;6 -->
<g id="edge6" class="edge">
<title>5&#45;&gt;6</title>
<path fill="none" stroke="black" d="M858.36,-72C870.25,-72 883.5,-72 897.4,-72"/>
<polygon fill="black" stroke="black" points="897.16,-75.5 907.16,-72 897.16,-68.5 897.16,-75.5"/>
</g>
<!-- 8 -->
<!-- name: &quot;short&quot;, typeName: &quot;&quot;, id: 8, branchId: 0, recurseId: &#45;1, attributes: 512, notes: &quot;&quot; -->
<g id="node9" class="node">
<title>8</title>
<ellipse fill="none" stroke="black" cx="1068.33" cy="-18" rx="29.34" ry="18"/>
<text xml:space="preserve" text-anchor="middle" x="1068.33" y="-12.95" font-family="Times New Roman,serif" font-size="14.00">short</text>
</g>
<!-- 7&#45;&gt;8 -->
<g id="edge8" class="edge">
<title>7&#45;&gt;8</title>
<path fill="none" stroke="black" d="M847.19,-18C896.57,-18 978.48,-18 1027.25,-18"/>
<polygon fill="black" stroke="black" points="1027.08,-21.5 1037.08,-18 1027.08,-14.5 1027.08,-21.5"/>
</g>
</g>
</svg>
