<?xml version="1.0" encoding="UTF-8" standalone="no"?>
<!DOCTYPE svg PUBLIC "-//W3C//DTD SVG 1.1//EN"
 "http://www.w3.org/Graphics/SVG/1.1/DTD/svg11.dtd">
<!-- Generated by graphviz version 9.0.0 (20230911.1827)
 -->
<!-- Title: PlayerActionPacket Pages: 1 -->
<svg width="595pt" height="260pt"
 viewBox="0.00 0.00 594.96 260.00" xmlns="http://www.w3.org/2000/svg" xmlns:xlink="http://www.w3.org/1999/xlink">
<g id="graph0" class="graph" transform="scale(1 1) rotate(0) translate(4 256)">
<title>PlayerActionPacket</title>
<polygon fill="white" stroke="none" points="-4,4 -4,-256 590.96,-256 590.96,4 -4,4"/>
<!-- 0 -->
<!-- name: &quot;PlayerActionPacket&quot;, typeName: &quot;&quot;, id: 0, branchId: 36, recurseId: &#45;1, attributes: 0, notes: &quot;&quot; -->
<g id="node1" class="node">
<title>0</title>
<ellipse fill="none" stroke="black" cx="83.5" cy="-126" rx="83.5" ry="18"/>
<text text-anchor="middle" x="83.5" y="-120.58" font-family="Times New Roman,serif" font-size="14.00">PlayerActionPacket</text>
</g>
<!-- 1 -->
<!-- name: &quot;Player Runtime ID&quot;, typeName: &quot;ActorRuntimeID&quot;, id: 1, branchId: 0, recurseId: &#45;1, attributes: 256, notes: &quot;&quot; -->
<g id="node2" class="node">
<title>1</title>
<ellipse fill="none" stroke="black" cx="282" cy="-234" rx="79.01" ry="18"/>
<text text-anchor="middle" x="282" y="-228.57" font-family="Times New Roman,serif" font-size="14.00">Player Runtime ID</text>
</g>
<!-- 0&#45;&gt;1 -->
<g id="edge1" class="edge">
<title>0&#45;&gt;1</title>
<path fill="none" stroke="black" d="M106.54,-143.73C129.53,-161.57 167.16,-188.96 203,-207 209.13,-210.09 215.7,-212.96 222.33,-215.6"/>
<polygon fill="black" stroke="black" points="220.73,-218.74 231.32,-219.01 223.21,-212.19 220.73,-218.74"/>
</g>
<!-- 3 -->
<!-- name: &quot;Action&quot;, typeName: &quot;&quot;, id: 3, branchId: 0, recurseId: &#45;1, attributes: 0, notes: &quot;enumeration: PlayerActionType&quot; -->
<g id="node4" class="node">
<title>3</title>
<ellipse fill="none" stroke="black" cx="282" cy="-180" rx="35.6" ry="18"/>
<text text-anchor="middle" x="282" y="-174.57" font-family="Times New Roman,serif" font-size="14.00">Action</text>
</g>
<!-- 0&#45;&gt;3 -->
<g id="edge3" class="edge">
<title>0&#45;&gt;3</title>
<path fill="none" stroke="black" d="M136.39,-140.26C168.45,-149.07 209.06,-160.23 239.08,-168.48"/>
<polygon fill="black" stroke="black" points="238,-171.81 248.57,-171.09 239.85,-165.06 238,-171.81"/>
</g>
<!-- 5 -->
<!-- name: &quot;Block Position&quot;, typeName: &quot;NetworkBlockPosition&quot;, id: 5, branchId: 0, recurseId: &#45;1, attributes: 256, notes: &quot;&quot; -->
<g id="node6" class="node">
<title>5</title>
<ellipse fill="none" stroke="black" cx="282" cy="-126" rx="65.53" ry="18"/>
<text text-anchor="middle" x="282" y="-120.58" font-family="Times New Roman,serif" font-size="14.00">Block Position</text>
</g>
<!-- 0&#45;&gt;5 -->
<g id="edge5" class="edge">
<title>0&#45;&gt;5</title>
<path fill="none" stroke="black" d="M167.27,-126C179.79,-126 192.67,-126 205.04,-126"/>
<polygon fill="black" stroke="black" points="204.73,-129.5 214.73,-126 204.73,-122.5 204.73,-129.5"/>
</g>
<!-- 7 -->
<!-- name: &quot;Result Pos&quot;, typeName: &quot;NetworkBlockPosition&quot;, id: 7, branchId: 0, recurseId: &#45;1, attributes: 256, notes: &quot;&quot; -->
<g id="node8" class="node">
<title>7</title>
<ellipse fill="none" stroke="black" cx="282" cy="-72" rx="51.06" ry="18"/>
<text text-anchor="middle" x="282" y="-66.58" font-family="Times New Roman,serif" font-size="14.00">Result Pos</text>
</g>
<!-- 0&#45;&gt;7 -->
<g id="edge7" class="edge">
<title>0&#45;&gt;7</title>
<path fill="none" stroke="black" d="M136.39,-111.74C165.3,-103.8 201.16,-93.94 229.93,-86.03"/>
<polygon fill="black" stroke="black" points="230.81,-89.42 239.53,-83.4 228.96,-82.67 230.81,-89.42"/>
</g>
<!-- 9 -->
<!-- name: &quot;Face&quot;, typeName: &quot;&quot;, id: 9, branchId: 0, recurseId: &#45;1, attributes: 0, notes: &quot;&quot; -->
<g id="node10" class="node">
<title>9</title>
<ellipse fill="none" stroke="black" cx="282" cy="-18" rx="28.61" ry="18"/>
<text text-anchor="middle" x="282" y="-12.57" font-family="Times New Roman,serif" font-size="14.00">Face</text>
</g>
<!-- 0&#45;&gt;9 -->
<g id="edge9" class="edge">
<title>0&#45;&gt;9</title>
<path fill="none" stroke="black" d="M106.54,-108.27C129.53,-90.43 167.16,-63.04 203,-45 216.1,-38.4 231.19,-32.77 244.59,-28.38"/>
<polygon fill="black" stroke="black" points="245.43,-31.78 253.92,-25.44 243.33,-25.1 245.43,-31.78"/>
</g>
<!-- 2 -->
<!-- name: &quot;ActorRuntimeID&quot;, typeName: &quot;&quot;, id: 2, branchId: 0, recurseId: &#45;1, attributes: 512, notes: &quot;&quot; -->
<g id="node3" class="node">
<title>2</title>
<ellipse fill="none" stroke="black" cx="491.99" cy="-234" rx="72.52" ry="18"/>
<text text-anchor="middle" x="491.99" y="-228.57" font-family="Times New Roman,serif" font-size="14.00">ActorRuntimeID</text>
</g>
<!-- 1&#45;&gt;2 -->
<g id="edge2" class="edge">
<title>1&#45;&gt;2</title>
<path fill="none" stroke="black" d="M361.34,-234C376.63,-234 392.71,-234 408.13,-234"/>
<polygon fill="black" stroke="black" points="407.72,-237.5 417.72,-234 407.72,-230.5 407.72,-237.5"/>
</g>
<!-- 4 -->
<!-- name: &quot;varint&quot;, typeName: &quot;&quot;, id: 4, branchId: 0, recurseId: &#45;1, attributes: 512, notes: &quot;&quot; -->
<g id="node5" class="node">
<title>4</title>
<ellipse fill="none" stroke="black" cx="491.99" cy="-180" rx="31.1" ry="18"/>
<text text-anchor="middle" x="491.99" y="-174.57" font-family="Times New Roman,serif" font-size="14.00">varint</text>
</g>
<!-- 3&#45;&gt;4 -->
<g id="edge4" class="edge">
<title>3&#45;&gt;4</title>
<path fill="none" stroke="black" d="M317.82,-180C353.97,-180 410.55,-180 449.12,-180"/>
<polygon fill="black" stroke="black" points="448.96,-183.5 458.96,-180 448.96,-176.5 448.96,-183.5"/>
</g>
<!-- 6 -->
<!-- name: &quot;NetworkBlockPosition&quot;, typeName: &quot;&quot;, id: 6, branchId: 0, recurseId: &#45;1, attributes: 512, notes: &quot;&quot; -->
<g id="node7" class="node">
<title>6</title>
<ellipse fill="none" stroke="black" cx="491.99" cy="-126" rx="94.98" ry="18"/>
<text text-anchor="middle" x="491.99" y="-120.58" font-family="Times New Roman,serif" font-size="14.00">NetworkBlockPosition</text>
</g>
<!-- 5&#45;&gt;6 -->
<g id="edge6" class="edge">
<title>5&#45;&gt;6</title>
<path fill="none" stroke="black" d="M347.96,-126C359.94,-126 372.73,-126 385.56,-126"/>
<polygon fill="black" stroke="black" points="385.3,-129.5 395.3,-126 385.3,-122.5 385.3,-129.5"/>
</g>
<!-- 8 -->
<!-- name: &quot;NetworkBlockPosition&quot;, typeName: &quot;&quot;, id: 8, branchId: 0, recurseId: &#45;1, attributes: 512, notes: &quot;&quot; -->
<g id="node9" class="node">
<title>8</title>
<ellipse fill="none" stroke="black" cx="491.99" cy="-72" rx="94.98" ry="18"/>
<text text-anchor="middle" x="491.99" y="-66.58" font-family="Times New Roman,serif" font-size="14.00">NetworkBlockPosition</text>
</g>
<!-- 7&#45;&gt;8 -->
<g id="edge8" class="edge">
<title>7&#45;&gt;8</title>
<path fill="none" stroke="black" d="M333.35,-72C349.18,-72 367.29,-72 385.47,-72"/>
<polygon fill="black" stroke="black" points="385.26,-75.5 395.26,-72 385.26,-68.5 385.26,-75.5"/>
</g>
<!-- 10 -->
<!-- name: &quot;varint&quot;, typeName: &quot;&quot;, id: 10, branchId: 0, recurseId: &#45;1, attributes: 512, notes: &quot;&quot; -->
<g id="node11" class="node">
<title>10</title>
<ellipse fill="none" stroke="black" cx="491.99" cy="-18" rx="31.1" ry="18"/>
<text text-anchor="middle" x="491.99" y="-12.57" font-family="Times New Roman,serif" font-size="14.00">varint</text>
</g>
<!-- 9&#45;&gt;10 -->
<g id="edge10" class="edge">
<title>9&#45;&gt;10</title>
<path fill="none" stroke="black" d="M311.05,-18C346.65,-18 408.36,-18 449.43,-18"/>
<polygon fill="black" stroke="black" points="449.18,-21.5 459.18,-18 449.18,-14.5 449.18,-21.5"/>
</g>
</g>
</svg>
