<?xml version="1.0" encoding="UTF-8" standalone="no"?>
<!DOCTYPE svg PUBLIC "-//W3C//DTD SVG 1.1//EN"
 "http://www.w3.org/Graphics/SVG/1.1/DTD/svg11.dtd">
<!-- Generated by graphviz version 2.46.1 (20210213.1702)
 -->
<!-- Title: PlayerArmorDamagePacket Pages: 1 -->
<svg width="746pt" height="260pt"
 viewBox="0.00 0.00 745.54 260.00" xmlns="http://www.w3.org/2000/svg" xmlns:xlink="http://www.w3.org/1999/xlink">
<g id="graph0" class="graph" transform="scale(1 1) rotate(0) translate(4 256)">
<title>PlayerArmorDamagePacket</title>
<polygon fill="white" stroke="transparent" points="-4,4 -4,-256 741.54,-256 741.54,4 -4,4"/>
<!-- 0 -->
<!-- name: &quot;PlayerArmorDamagePacket&quot;, typeName: &quot;&quot;, id: 0, branchId: 149, recurseId: &#45;1, attributes: 0, notes: &quot;&quot; -->
<g id="node1" class="node">
<title>0</title>
<ellipse fill="none" stroke="black" cx="110.49" cy="-126" rx="110.48" ry="18"/>
<text text-anchor="middle" x="110.49" y="-122.3" font-family="Times New Roman,serif" font-size="14.00">PlayerArmorDamagePacket</text>
</g>
<!-- 1 -->
<!-- name: &quot;Slots Bitset&quot;, typeName: &quot;&quot;, id: 1, branchId: 0, recurseId: &#45;1, attributes: 0, notes: &quot;&quot; -->
<g id="node2" class="node">
<title>1</title>
<ellipse fill="none" stroke="black" cx="448.71" cy="-234" rx="51.99" ry="18"/>
<text text-anchor="middle" x="448.71" y="-230.3" font-family="Times New Roman,serif" font-size="14.00">Slots Bitset</text>
</g>
<!-- 0&#45;&gt;1 -->
<g id="edge1" class="edge">
<title>0&#45;&gt;1</title>
<path fill="none" stroke="black" d="M136.43,-143.67C164.4,-162.54 211.77,-191.8 256.98,-207 298.85,-221.08 348.29,-227.81 386.34,-231.04"/>
<polygon fill="black" stroke="black" points="386.51,-234.56 396.75,-231.86 387.06,-227.59 386.51,-234.56"/>
</g>
<!-- 3 -->
<!-- name: &quot;Damage For Slot (Only Gets Written If Bit Is Set)&quot;, typeName: &quot;&quot;, id: 3, branchId: 0, recurseId: &#45;1, attributes: 0, notes: &quot;&quot; -->
<g id="node4" class="node">
<title>3</title>
<ellipse fill="none" stroke="black" cx="448.71" cy="-180" rx="191.97" ry="18"/>
<text text-anchor="middle" x="448.71" y="-176.3" font-family="Times New Roman,serif" font-size="14.00">Damage For Slot (Only Gets Written If Bit Is Set)</text>
</g>
<!-- 0&#45;&gt;3 -->
<g id="edge3" class="edge">
<title>0&#45;&gt;3</title>
<path fill="none" stroke="black" d="M182.05,-139.72C205.82,-144.18 232.51,-149 256.98,-153 279.87,-156.74 304.35,-160.44 327.88,-163.84"/>
<polygon fill="black" stroke="black" points="327.51,-167.32 337.91,-165.28 328.5,-160.39 327.51,-167.32"/>
</g>
<!-- 5 -->
<!-- name: &quot;Damage For Slot (Only Gets Written If Bit Is Set)&quot;, typeName: &quot;&quot;, id: 5, branchId: 0, recurseId: &#45;1, attributes: 0, notes: &quot;&quot; -->
<g id="node6" class="node">
<title>5</title>
<ellipse fill="none" stroke="black" cx="448.71" cy="-126" rx="191.97" ry="18"/>
<text text-anchor="middle" x="448.71" y="-122.3" font-family="Times New Roman,serif" font-size="14.00">Damage For Slot (Only Gets Written If Bit Is Set)</text>
</g>
<!-- 0&#45;&gt;5 -->
<g id="edge5" class="edge">
<title>0&#45;&gt;5</title>
<path fill="none" stroke="black" d="M221.12,-126C229.45,-126 238,-126 246.68,-126"/>
<polygon fill="black" stroke="black" points="246.91,-129.5 256.91,-126 246.91,-122.5 246.91,-129.5"/>
</g>
<!-- 7 -->
<!-- name: &quot;Damage For Slot (Only Gets Written If Bit Is Set)&quot;, typeName: &quot;&quot;, id: 7, branchId: 0, recurseId: &#45;1, attributes: 0, notes: &quot;&quot; -->
<g id="node8" class="node">
<title>7</title>
<ellipse fill="none" stroke="black" cx="448.71" cy="-72" rx="191.97" ry="18"/>
<text text-anchor="middle" x="448.71" y="-68.3" font-family="Times New Roman,serif" font-size="14.00">Damage For Slot (Only Gets Written If Bit Is Set)</text>
</g>
<!-- 0&#45;&gt;7 -->
<g id="edge7" class="edge">
<title>0&#45;&gt;7</title>
<path fill="none" stroke="black" d="M182.05,-112.28C205.82,-107.82 232.51,-103 256.98,-99 279.87,-95.26 304.35,-91.56 327.88,-88.16"/>
<polygon fill="black" stroke="black" points="328.5,-91.61 337.91,-86.72 327.51,-84.68 328.5,-91.61"/>
</g>
<!-- 9 -->
<!-- name: &quot;Damage For Slot (Only Gets Written If Bit Is Set)&quot;, typeName: &quot;&quot;, id: 9, branchId: 0, recurseId: &#45;1, attributes: 0, notes: &quot;&quot; -->
<g id="node10" class="node">
<title>9</title>
<ellipse fill="none" stroke="black" cx="448.71" cy="-18" rx="191.97" ry="18"/>
<text text-anchor="middle" x="448.71" y="-14.3" font-family="Times New Roman,serif" font-size="14.00">Damage For Slot (Only Gets Written If Bit Is Set)</text>
</g>
<!-- 0&#45;&gt;9 -->
<g id="edge9" class="edge">
<title>0&#45;&gt;9</title>
<path fill="none" stroke="black" d="M136.43,-108.33C164.4,-89.46 211.77,-60.2 256.98,-45 271.68,-40.06 287.32,-36.02 303.06,-32.72"/>
<polygon fill="black" stroke="black" points="303.75,-36.15 312.87,-30.76 302.38,-29.29 303.75,-36.15"/>
</g>
<!-- 2 -->
<!-- name: &quot;byte&quot;, typeName: &quot;&quot;, id: 2, branchId: 0, recurseId: &#45;1, attributes: 512, notes: &quot;&quot; -->
<g id="node3" class="node">
<title>2</title>
<ellipse fill="none" stroke="black" cx="706.99" cy="-234" rx="27" ry="18"/>
<text text-anchor="middle" x="706.99" y="-230.3" font-family="Times New Roman,serif" font-size="14.00">byte</text>
</g>
<!-- 1&#45;&gt;2 -->
<g id="edge2" class="edge">
<title>1&#45;&gt;2</title>
<path fill="none" stroke="black" d="M500.96,-234C550.89,-234 625.54,-234 669.64,-234"/>
<polygon fill="black" stroke="black" points="669.9,-237.5 679.9,-234 669.9,-230.5 669.9,-237.5"/>
</g>
<!-- 4 -->
<!-- name: &quot;varint&quot;, typeName: &quot;&quot;, id: 4, branchId: 0, recurseId: &#45;1, attributes: 512, notes: &quot;&quot; -->
<g id="node5" class="node">
<title>4</title>
<ellipse fill="none" stroke="black" cx="706.99" cy="-180" rx="30.59" ry="18"/>
<text text-anchor="middle" x="706.99" y="-176.3" font-family="Times New Roman,serif" font-size="14.00">varint</text>
</g>
<!-- 3&#45;&gt;4 -->
<g id="edge4" class="edge">
<title>3&#45;&gt;4</title>
<path fill="none" stroke="black" d="M640.66,-180C649.8,-180 658.38,-180 666.12,-180"/>
<polygon fill="black" stroke="black" points="666.13,-183.5 676.13,-180 666.13,-176.5 666.13,-183.5"/>
</g>
<!-- 6 -->
<!-- name: &quot;varint&quot;, typeName: &quot;&quot;, id: 6, branchId: 0, recurseId: &#45;1, attributes: 512, notes: &quot;&quot; -->
<g id="node7" class="node">
<title>6</title>
<ellipse fill="none" stroke="black" cx="706.99" cy="-126" rx="30.59" ry="18"/>
<text text-anchor="middle" x="706.99" y="-122.3" font-family="Times New Roman,serif" font-size="14.00">varint</text>
</g>
<!-- 5&#45;&gt;6 -->
<g id="edge6" class="edge">
<title>5&#45;&gt;6</title>
<path fill="none" stroke="black" d="M640.66,-126C649.8,-126 658.38,-126 666.12,-126"/>
<polygon fill="black" stroke="black" points="666.13,-129.5 676.13,-126 666.13,-122.5 666.13,-129.5"/>
</g>
<!-- 8 -->
<!-- name: &quot;varint&quot;, typeName: &quot;&quot;, id: 8, branchId: 0, recurseId: &#45;1, attributes: 512, notes: &quot;&quot; -->
<g id="node9" class="node">
<title>8</title>
<ellipse fill="none" stroke="black" cx="706.99" cy="-72" rx="30.59" ry="18"/>
<text text-anchor="middle" x="706.99" y="-68.3" font-family="Times New Roman,serif" font-size="14.00">varint</text>
</g>
<!-- 7&#45;&gt;8 -->
<g id="edge8" class="edge">
<title>7&#45;&gt;8</title>
<path fill="none" stroke="black" d="M640.66,-72C649.8,-72 658.38,-72 666.12,-72"/>
<polygon fill="black" stroke="black" points="666.13,-75.5 676.13,-72 666.13,-68.5 666.13,-75.5"/>
</g>
<!-- 10 -->
<!-- name: &quot;varint&quot;, typeName: &quot;&quot;, id: 10, branchId: 0, recurseId: &#45;1, attributes: 512, notes: &quot;&quot; -->
<g id="node11" class="node">
<title>10</title>
<ellipse fill="none" stroke="black" cx="706.99" cy="-18" rx="30.59" ry="18"/>
<text text-anchor="middle" x="706.99" y="-14.3" font-family="Times New Roman,serif" font-size="14.00">varint</text>
</g>
<!-- 9&#45;&gt;10 -->
<g id="edge10" class="edge">
<title>9&#45;&gt;10</title>
<path fill="none" stroke="black" d="M640.66,-18C649.8,-18 658.38,-18 666.12,-18"/>
<polygon fill="black" stroke="black" points="666.13,-21.5 676.13,-18 666.13,-14.5 666.13,-21.5"/>
</g>
</g>
</svg>
