<?xml version="1.0" encoding="UTF-8" standalone="no"?>
<!DOCTYPE svg PUBLIC "-//W3C//DTD SVG 1.1//EN"
 "http://www.w3.org/Graphics/SVG/1.1/DTD/svg11.dtd">
<!-- Generated by graphviz version 13.1.2 (20250808.2320)
 -->
<!-- Title: PlayerActionPacket Pages: 1 -->
<svg width="808pt" height="476pt"
 viewBox="0.00 0.00 808.00 476.00" xmlns="http://www.w3.org/2000/svg" xmlns:xlink="http://www.w3.org/1999/xlink">
<g id="graph0" class="graph" transform="scale(1 1) rotate(0) translate(4 472)">
<title>PlayerActionPacket</title>
<polygon fill="white" stroke="none" points="-4,4 -4,-472 804.31,-472 804.31,4 -4,4"/>
<!-- 0 -->
<!-- name: &quot;PlayerActionPacket&quot;, typeName: &quot;&quot;, id: 0, branchId: 0, recurseId: &#45;1, attributes: 0, notes: &quot;Sent from the client whenever the player performs an action (dashing, un&#45;dashing, use an item, mine/hit, use a block, etc).&quot; -->
<g id="node1" class="node">
<title>0</title>
<ellipse fill="none" stroke="black" cx="84.11" cy="-288" rx="84.11" ry="18"/>
<text xml:space="preserve" text-anchor="middle" x="84.11" y="-282.95" font-family="Times New Roman,serif" font-size="14.00">PlayerActionPacket</text>
</g>
<!-- 1 -->
<!-- name: &quot;Player Runtime ID&quot;, typeName: &quot;&quot;, id: 1, branchId: 0, recurseId: &#45;1, attributes: 0, notes: &quot;&quot; -->
<g id="node2" class="node">
<title>1</title>
<ellipse fill="none" stroke="black" cx="285.76" cy="-430" rx="81.55" ry="18"/>
<text xml:space="preserve" text-anchor="middle" x="285.76" y="-424.95" font-family="Times New Roman,serif" font-size="14.00">Player Runtime ID</text>
</g>
<!-- 0&#45;&gt;1 -->
<g id="edge1" class="edge">
<title>0&#45;&gt;1</title>
<path fill="none" stroke="black" d="M102.4,-305.89C124.52,-328.09 164.7,-366.15 204.21,-392 213.82,-398.28 224.63,-404.12 235.14,-409.24"/>
<polygon fill="black" stroke="black" points="233.58,-412.37 244.12,-413.46 236.56,-406.04 233.58,-412.37"/>
</g>
<!-- 4 -->
<!-- name: &quot;Action&quot;, typeName: &quot;&quot;, id: 4, branchId: 0, recurseId: &#45;1, attributes: 0, notes: &quot;&quot; -->
<g id="node5" class="node">
<title>4</title>
<ellipse fill="none" stroke="black" cx="285.76" cy="-365" rx="36" ry="18"/>
<text xml:space="preserve" text-anchor="middle" x="285.76" y="-359.95" font-family="Times New Roman,serif" font-size="14.00">Action</text>
</g>
<!-- 0&#45;&gt;4 -->
<g id="edge4" class="edge">
<title>0&#45;&gt;4</title>
<path fill="none" stroke="black" d="M126.48,-303.95C161.62,-317.51 211.69,-336.82 246.06,-350.07"/>
<polygon fill="black" stroke="black" points="244.62,-353.27 255.21,-353.6 247.14,-346.74 244.62,-353.27"/>
</g>
<!-- 6 -->
<!-- name: &quot;Block Position&quot;, typeName: &quot;&quot;, id: 6, branchId: 0, recurseId: &#45;1, attributes: 0, notes: &quot;&quot; -->
<g id="node7" class="node">
<title>6</title>
<ellipse fill="none" stroke="black" cx="285.76" cy="-288" rx="65.68" ry="18"/>
<text xml:space="preserve" text-anchor="middle" x="285.76" y="-282.95" font-family="Times New Roman,serif" font-size="14.00">Block Position</text>
</g>
<!-- 0&#45;&gt;6 -->
<g id="edge6" class="edge">
<title>0&#45;&gt;6</title>
<path fill="none" stroke="black" d="M168.62,-288C181.85,-288 195.46,-288 208.51,-288"/>
<polygon fill="black" stroke="black" points="208.29,-291.5 218.29,-288 208.29,-284.5 208.29,-291.5"/>
</g>
<!-- 13 -->
<!-- name: &quot;Result Pos&quot;, typeName: &quot;&quot;, id: 13, branchId: 0, recurseId: &#45;1, attributes: 0, notes: &quot;&quot; -->
<g id="node14" class="node">
<title>13</title>
<ellipse fill="none" stroke="black" cx="285.76" cy="-153" rx="50.33" ry="18"/>
<text xml:space="preserve" text-anchor="middle" x="285.76" y="-147.95" font-family="Times New Roman,serif" font-size="14.00">Result Pos</text>
</g>
<!-- 0&#45;&gt;13 -->
<g id="edge13" class="edge">
<title>0&#45;&gt;13</title>
<path fill="none" stroke="black" d="M110.8,-270.63C146.72,-246.34 211.99,-202.21 251.56,-175.45"/>
<polygon fill="black" stroke="black" points="253.46,-178.39 259.78,-169.89 249.54,-172.59 253.46,-178.39"/>
</g>
<!-- 20 -->
<!-- name: &quot;Face&quot;, typeName: &quot;&quot;, id: 20, branchId: 0, recurseId: &#45;1, attributes: 0, notes: &quot;&quot; -->
<g id="node21" class="node">
<title>20</title>
<ellipse fill="none" stroke="black" cx="285.76" cy="-45" rx="28.32" ry="18"/>
<text xml:space="preserve" text-anchor="middle" x="285.76" y="-39.95" font-family="Times New Roman,serif" font-size="14.00">Face</text>
</g>
<!-- 0&#45;&gt;20 -->
<g id="edge20" class="edge">
<title>0&#45;&gt;20</title>
<path fill="none" stroke="black" d="M97.15,-269.84C117.77,-239.17 161.75,-175.58 204.21,-126 222.12,-105.09 244.29,-83.05 260.83,-67.24"/>
<polygon fill="black" stroke="black" points="262.97,-70.04 267.82,-60.62 258.15,-64.96 262.97,-70.04"/>
</g>
<!-- 2 -->
<!-- name: &quot;Actor Runtime ID&quot;, typeName: &quot;&quot;, id: 2, branchId: 0, recurseId: &#45;1, attributes: 0, notes: &quot;&quot; -->
<g id="node3" class="node">
<title>2</title>
<ellipse fill="none" stroke="black" cx="482.3" cy="-446" rx="78.99" ry="18"/>
<text xml:space="preserve" text-anchor="middle" x="482.3" y="-440.95" font-family="Times New Roman,serif" font-size="14.00">Actor Runtime ID</text>
</g>
<!-- 1&#45;&gt;2 -->
<g id="edge2" class="edge">
<title>1&#45;&gt;2</title>
<path fill="none" stroke="black" d="M362.81,-436.25C373.73,-437.15 385.02,-438.08 396.09,-438.99"/>
<polygon fill="black" stroke="black" points="395.77,-442.48 406.03,-439.81 396.35,-435.5 395.77,-442.48"/>
</g>
<!-- 3 -->
<!-- name: &quot;unsigned varint64&quot;, typeName: &quot;&quot;, id: 3, branchId: 0, recurseId: &#45;1, attributes: 512, notes: &quot;&quot; -->
<g id="node4" class="node">
<title>3</title>
<ellipse fill="none" stroke="black" cx="698.8" cy="-450" rx="77.45" ry="18"/>
<text xml:space="preserve" text-anchor="middle" x="698.8" y="-444.95" font-family="Times New Roman,serif" font-size="14.00">unsigned varint64</text>
</g>
<!-- 2&#45;&gt;3 -->
<g id="edge3" class="edge">
<title>2&#45;&gt;3</title>
<path fill="none" stroke="black" d="M561.34,-447.46C577.21,-447.75 594,-448.06 610.17,-448.37"/>
<polygon fill="black" stroke="black" points="609.67,-451.86 619.73,-448.54 609.8,-444.86 609.67,-451.86"/>
</g>
<!-- 5 -->
<!-- name: &quot;enum PlayerActionType&quot;, typeName: &quot;&quot;, id: 5, branchId: 0, recurseId: &#45;1, attributes: 512, notes: &quot;&quot; -->
<g id="node6" class="node">
<title>5</title>
<ellipse fill="none" stroke="black" cx="698.8" cy="-396" rx="101.51" ry="18"/>
<text xml:space="preserve" text-anchor="middle" x="698.8" y="-390.95" font-family="Times New Roman,serif" font-size="14.00">enum PlayerActionType</text>
</g>
<!-- 4&#45;&gt;5 -->
<g id="edge5" class="edge">
<title>4&#45;&gt;5</title>
<path fill="none" stroke="black" d="M321.81,-367.64C381.29,-372.13 504.23,-381.4 593.37,-388.12"/>
<polygon fill="black" stroke="black" points="592.88,-391.6 603.11,-388.86 593.4,-384.62 592.88,-391.6"/>
</g>
<!-- 7 -->
<!-- name: &quot;X&quot;, typeName: &quot;&quot;, id: 7, branchId: 0, recurseId: &#45;1, attributes: 0, notes: &quot;&quot; -->
<g id="node8" class="node">
<title>7</title>
<ellipse fill="none" stroke="black" cx="482.3" cy="-342" rx="27" ry="18"/>
<text xml:space="preserve" text-anchor="middle" x="482.3" y="-336.95" font-family="Times New Roman,serif" font-size="14.00">X</text>
</g>
<!-- 6&#45;&gt;7 -->
<g id="edge7" class="edge">
<title>6&#45;&gt;7</title>
<path fill="none" stroke="black" d="M332.86,-300.8C367.49,-310.41 414.2,-323.38 445.91,-332.18"/>
<polygon fill="black" stroke="black" points="444.84,-335.51 455.41,-334.81 446.71,-328.77 444.84,-335.51"/>
</g>
<!-- 9 -->
<!-- name: &quot;Y&quot;, typeName: &quot;&quot;, id: 9, branchId: 0, recurseId: &#45;1, attributes: 0, notes: &quot;&quot; -->
<g id="node10" class="node">
<title>9</title>
<ellipse fill="none" stroke="black" cx="482.3" cy="-288" rx="27" ry="18"/>
<text xml:space="preserve" text-anchor="middle" x="482.3" y="-282.95" font-family="Times New Roman,serif" font-size="14.00">Y</text>
</g>
<!-- 6&#45;&gt;9 -->
<g id="edge9" class="edge">
<title>6&#45;&gt;9</title>
<path fill="none" stroke="black" d="M351.81,-288C382.46,-288 417.93,-288 443.98,-288"/>
<polygon fill="black" stroke="black" points="443.73,-291.5 453.73,-288 443.73,-284.5 443.73,-291.5"/>
</g>
<!-- 11 -->
<!-- name: &quot;Z&quot;, typeName: &quot;&quot;, id: 11, branchId: 0, recurseId: &#45;1, attributes: 0, notes: &quot;&quot; -->
<g id="node12" class="node">
<title>11</title>
<ellipse fill="none" stroke="black" cx="482.3" cy="-234" rx="27" ry="18"/>
<text xml:space="preserve" text-anchor="middle" x="482.3" y="-228.95" font-family="Times New Roman,serif" font-size="14.00">Z</text>
</g>
<!-- 6&#45;&gt;11 -->
<g id="edge11" class="edge">
<title>6&#45;&gt;11</title>
<path fill="none" stroke="black" d="M332.86,-275.2C367.49,-265.59 414.2,-252.62 445.91,-243.82"/>
<polygon fill="black" stroke="black" points="446.71,-247.23 455.41,-241.19 444.84,-240.49 446.71,-247.23"/>
</g>
<!-- 8 -->
<!-- name: &quot;varint&quot;, typeName: &quot;&quot;, id: 8, branchId: 0, recurseId: &#45;1, attributes: 512, notes: &quot;&quot; -->
<g id="node9" class="node">
<title>8</title>
<ellipse fill="none" stroke="black" cx="698.8" cy="-342" rx="32.41" ry="18"/>
<text xml:space="preserve" text-anchor="middle" x="698.8" y="-336.95" font-family="Times New Roman,serif" font-size="14.00">varint</text>
</g>
<!-- 7&#45;&gt;8 -->
<g id="edge8" class="edge">
<title>7&#45;&gt;8</title>
<path fill="none" stroke="black" d="M509.6,-342C545.77,-342 611.32,-342 654.71,-342"/>
<polygon fill="black" stroke="black" points="654.53,-345.5 664.53,-342 654.53,-338.5 654.53,-345.5"/>
</g>
<!-- 10 -->
<!-- name: &quot;unsigned varint&quot;, typeName: &quot;&quot;, id: 10, branchId: 0, recurseId: &#45;1, attributes: 512, notes: &quot;&quot; -->
<g id="node11" class="node">
<title>10</title>
<ellipse fill="none" stroke="black" cx="698.8" cy="-288" rx="68.24" ry="18"/>
<text xml:space="preserve" text-anchor="middle" x="698.8" y="-282.95" font-family="Times New Roman,serif" font-size="14.00">unsigned varint</text>
</g>
<!-- 9&#45;&gt;10 -->
<g id="edge10" class="edge">
<title>9&#45;&gt;10</title>
<path fill="none" stroke="black" d="M509.6,-288C536.79,-288 580.56,-288 619.05,-288"/>
<polygon fill="black" stroke="black" points="618.76,-291.5 628.76,-288 618.76,-284.5 618.76,-291.5"/>
</g>
<!-- 12 -->
<!-- name: &quot;varint&quot;, typeName: &quot;&quot;, id: 12, branchId: 0, recurseId: &#45;1, attributes: 512, notes: &quot;&quot; -->
<g id="node13" class="node">
<title>12</title>
<ellipse fill="none" stroke="black" cx="698.8" cy="-234" rx="32.41" ry="18"/>
<text xml:space="preserve" text-anchor="middle" x="698.8" y="-228.95" font-family="Times New Roman,serif" font-size="14.00">varint</text>
</g>
<!-- 11&#45;&gt;12 -->
<g id="edge12" class="edge">
<title>11&#45;&gt;12</title>
<path fill="none" stroke="black" d="M509.6,-234C545.77,-234 611.32,-234 654.71,-234"/>
<polygon fill="black" stroke="black" points="654.53,-237.5 664.53,-234 654.53,-230.5 654.53,-237.5"/>
</g>
<!-- 14 -->
<!-- name: &quot;X&quot;, typeName: &quot;&quot;, id: 14, branchId: 0, recurseId: &#45;1, attributes: 0, notes: &quot;&quot; -->
<g id="node15" class="node">
<title>14</title>
<ellipse fill="none" stroke="black" cx="482.3" cy="-180" rx="27" ry="18"/>
<text xml:space="preserve" text-anchor="middle" x="482.3" y="-174.95" font-family="Times New Roman,serif" font-size="14.00">X</text>
</g>
<!-- 13&#45;&gt;14 -->
<g id="edge14" class="edge">
<title>13&#45;&gt;14</title>
<path fill="none" stroke="black" d="M333.36,-159.47C367.25,-164.17 412.52,-170.45 444.02,-174.83"/>
<polygon fill="black" stroke="black" points="443.48,-178.28 453.87,-176.19 444.45,-171.35 443.48,-178.28"/>
</g>
<!-- 16 -->
<!-- name: &quot;Y&quot;, typeName: &quot;&quot;, id: 16, branchId: 0, recurseId: &#45;1, attributes: 0, notes: &quot;&quot; -->
<g id="node17" class="node">
<title>16</title>
<ellipse fill="none" stroke="black" cx="482.3" cy="-126" rx="27" ry="18"/>
<text xml:space="preserve" text-anchor="middle" x="482.3" y="-120.95" font-family="Times New Roman,serif" font-size="14.00">Y</text>
</g>
<!-- 13&#45;&gt;16 -->
<g id="edge16" class="edge">
<title>13&#45;&gt;16</title>
<path fill="none" stroke="black" d="M333.36,-146.53C367.25,-141.83 412.52,-135.55 444.02,-131.17"/>
<polygon fill="black" stroke="black" points="444.45,-134.65 453.87,-129.81 443.48,-127.72 444.45,-134.65"/>
</g>
<!-- 18 -->
<!-- name: &quot;Z&quot;, typeName: &quot;&quot;, id: 18, branchId: 0, recurseId: &#45;1, attributes: 0, notes: &quot;&quot; -->
<g id="node19" class="node">
<title>18</title>
<ellipse fill="none" stroke="black" cx="482.3" cy="-72" rx="27" ry="18"/>
<text xml:space="preserve" text-anchor="middle" x="482.3" y="-66.95" font-family="Times New Roman,serif" font-size="14.00">Z</text>
</g>
<!-- 13&#45;&gt;18 -->
<g id="edge18" class="edge">
<title>13&#45;&gt;18</title>
<path fill="none" stroke="black" d="M316.1,-138.41C339.46,-127.04 373.12,-111.18 403.31,-99 417.32,-93.34 433.03,-87.77 446.65,-83.16"/>
<polygon fill="black" stroke="black" points="447.7,-86.5 456.09,-80.02 445.49,-79.86 447.7,-86.5"/>
</g>
<!-- 15 -->
<!-- name: &quot;varint&quot;, typeName: &quot;&quot;, id: 15, branchId: 0, recurseId: &#45;1, attributes: 512, notes: &quot;&quot; -->
<g id="node16" class="node">
<title>15</title>
<ellipse fill="none" stroke="black" cx="698.8" cy="-180" rx="32.41" ry="18"/>
<text xml:space="preserve" text-anchor="middle" x="698.8" y="-174.95" font-family="Times New Roman,serif" font-size="14.00">varint</text>
</g>
<!-- 14&#45;&gt;15 -->
<g id="edge15" class="edge">
<title>14&#45;&gt;15</title>
<path fill="none" stroke="black" d="M509.6,-180C545.77,-180 611.32,-180 654.71,-180"/>
<polygon fill="black" stroke="black" points="654.53,-183.5 664.53,-180 654.53,-176.5 654.53,-183.5"/>
</g>
<!-- 17 -->
<!-- name: &quot;unsigned varint&quot;, typeName: &quot;&quot;, id: 17, branchId: 0, recurseId: &#45;1, attributes: 512, notes: &quot;&quot; -->
<g id="node18" class="node">
<title>17</title>
<ellipse fill="none" stroke="black" cx="698.8" cy="-126" rx="68.24" ry="18"/>
<text xml:space="preserve" text-anchor="middle" x="698.8" y="-120.95" font-family="Times New Roman,serif" font-size="14.00">unsigned varint</text>
</g>
<!-- 16&#45;&gt;17 -->
<g id="edge17" class="edge">
<title>16&#45;&gt;17</title>
<path fill="none" stroke="black" d="M509.6,-126C536.79,-126 580.56,-126 619.05,-126"/>
<polygon fill="black" stroke="black" points="618.76,-129.5 628.76,-126 618.76,-122.5 618.76,-129.5"/>
</g>
<!-- 19 -->
<!-- name: &quot;varint&quot;, typeName: &quot;&quot;, id: 19, branchId: 0, recurseId: &#45;1, attributes: 512, notes: &quot;&quot; -->
<g id="node20" class="node">
<title>19</title>
<ellipse fill="none" stroke="black" cx="698.8" cy="-72" rx="32.41" ry="18"/>
<text xml:space="preserve" text-anchor="middle" x="698.8" y="-66.95" font-family="Times New Roman,serif" font-size="14.00">varint</text>
</g>
<!-- 18&#45;&gt;19 -->
<g id="edge19" class="edge">
<title>18&#45;&gt;19</title>
<path fill="none" stroke="black" d="M509.6,-72C545.77,-72 611.32,-72 654.71,-72"/>
<polygon fill="black" stroke="black" points="654.53,-75.5 664.53,-72 654.53,-68.5 654.53,-75.5"/>
</g>
<!-- 21 -->
<!-- name: &quot;varint&quot;, typeName: &quot;&quot;, id: 21, branchId: 0, recurseId: &#45;1, attributes: 512, notes: &quot;&quot; -->
<g id="node22" class="node">
<title>21</title>
<ellipse fill="none" stroke="black" cx="698.8" cy="-18" rx="32.41" ry="18"/>
<text xml:space="preserve" text-anchor="middle" x="698.8" y="-12.95" font-family="Times New Roman,serif" font-size="14.00">varint</text>
</g>
<!-- 20&#45;&gt;21 -->
<g id="edge21" class="edge">
<title>20&#45;&gt;21</title>
<path fill="none" stroke="black" d="M314.37,-43.19C384.52,-38.58 570.06,-26.39 654.66,-20.83"/>
<polygon fill="black" stroke="black" points="654.88,-24.33 664.63,-20.18 654.42,-17.34 654.88,-24.33"/>
</g>
</g>
</svg>
