<?xml version="1.0" encoding="UTF-8" standalone="no"?>
<!DOCTYPE svg PUBLIC "-//W3C//DTD SVG 1.1//EN"
 "http://www.w3.org/Graphics/SVG/1.1/DTD/svg11.dtd">
<!-- Generated by graphviz version 2.46.1 (20210213.1702)
 -->
<!-- Title: PlayerEnchantOptionsPacket Pages: 1 -->
<svg width="1187pt" height="260pt"
 viewBox="0.00 0.00 1186.71 260.00" xmlns="http://www.w3.org/2000/svg" xmlns:xlink="http://www.w3.org/1999/xlink">
<g id="graph0" class="graph" transform="scale(1 1) rotate(0) translate(4 256)">
<title>PlayerEnchantOptionsPacket</title>
<polygon fill="white" stroke="transparent" points="-4,4 -4,-256 1182.71,-256 1182.71,4 -4,4"/>
<!-- 0 -->
<!-- name: &quot;PlayerEnchantOptionsPacket&quot;, typeName: &quot;&quot;, id: 0, branchId: 146, recurseId: &#45;1, attributes: 0, notes: &quot;&quot; -->
<g id="node1" class="node">
<title>0</title>
<ellipse fill="none" stroke="black" cx="116.34" cy="-153" rx="116.18" ry="18"/>
<text text-anchor="middle" x="116.34" y="-149.3" font-family="Times New Roman,serif" font-size="14.00">PlayerEnchantOptionsPacket</text>
</g>
<!-- 1 -->
<!-- name: &quot;Options&quot;, typeName: &quot;&quot;, id: 1, branchId: 0, recurseId: &#45;1, attributes: 8, notes: &quot;&quot; -->
<g id="node2" class="node">
<title>1</title>
<ellipse fill="none" stroke="black" cx="308.98" cy="-153" rx="40.09" ry="18"/>
<text text-anchor="middle" x="308.98" y="-149.3" font-family="Times New Roman,serif" font-size="14.00">Options</text>
</g>
<!-- 0&#45;&gt;1 -->
<g id="edge1" class="edge">
<title>0&#45;&gt;1</title>
<path fill="none" stroke="black" d="M232.9,-153C241.71,-153 250.28,-153 258.28,-153"/>
<polygon fill="black" stroke="black" points="258.45,-156.5 268.45,-153 258.45,-149.5 258.45,-156.5"/>
</g>
<!-- 2 -->
<!-- name: &quot;Array Size&quot;, typeName: &quot;&quot;, id: 2, branchId: 0, recurseId: &#45;1, attributes: 0, notes: &quot;&quot; -->
<g id="node3" class="node">
<title>2</title>
<ellipse fill="none" stroke="black" cx="455.47" cy="-207" rx="48.99" ry="18"/>
<text text-anchor="middle" x="455.47" y="-203.3" font-family="Times New Roman,serif" font-size="14.00">Array Size</text>
</g>
<!-- 1&#45;&gt;2 -->
<g id="edge2" class="edge">
<title>1&#45;&gt;2</title>
<path fill="none" stroke="black" d="M340.62,-164.45C361.13,-172.12 388.43,-182.32 411.16,-190.81"/>
<polygon fill="black" stroke="black" points="409.99,-194.11 420.58,-194.34 412.44,-187.56 409.99,-194.11"/>
</g>
<!-- 4 -->
<!-- name: &quot;example element&quot;, typeName: &quot;&quot;, id: 4, branchId: 0, recurseId: &#45;1, attributes: 16, notes: &quot;&quot; -->
<g id="node5" class="node">
<title>4</title>
<ellipse fill="none" stroke="black" stroke-dasharray="1,5" cx="455.47" cy="-126" rx="70.39" ry="18"/>
<text text-anchor="middle" x="455.47" y="-122.3" font-family="Times New Roman,serif" font-size="14.00">example element</text>
</g>
<!-- 1&#45;&gt;4 -->
<g id="edge4" class="edge">
<title>1&#45;&gt;4</title>
<path fill="none" stroke="black" d="M346.44,-146.19C359.21,-143.8 373.97,-141.04 388.41,-138.34"/>
<polygon fill="black" stroke="black" points="389.13,-141.77 398.32,-136.49 387.85,-134.89 389.13,-141.77"/>
</g>
<!-- 3 -->
<!-- name: &quot;unsigned varint&quot;, typeName: &quot;&quot;, id: 3, branchId: 0, recurseId: &#45;1, attributes: 512, notes: &quot;&quot; -->
<g id="node4" class="node">
<title>3</title>
<ellipse fill="none" stroke="black" cx="953.83" cy="-234" rx="65.79" ry="18"/>
<text text-anchor="middle" x="953.83" y="-230.3" font-family="Times New Roman,serif" font-size="14.00">unsigned varint</text>
</g>
<!-- 2&#45;&gt;3 -->
<g id="edge3" class="edge">
<title>2&#45;&gt;3</title>
<path fill="none" stroke="black" d="M504.06,-209.59C590.95,-214.32 775.8,-224.37 879.09,-229.99"/>
<polygon fill="black" stroke="black" points="878.96,-233.49 889.14,-230.54 879.34,-226.5 878.96,-233.49"/>
</g>
<!-- 5 -->
<!-- name: &quot;Cost&quot;, typeName: &quot;&quot;, id: 5, branchId: 0, recurseId: &#45;1, attributes: 0, notes: &quot;&quot; -->
<g id="node6" class="node">
<title>5</title>
<ellipse fill="none" stroke="black" cx="627.3" cy="-180" rx="28.7" ry="18"/>
<text text-anchor="middle" x="627.3" y="-176.3" font-family="Times New Roman,serif" font-size="14.00">Cost</text>
</g>
<!-- 4&#45;&gt;5 -->
<g id="edge5" class="edge">
<title>4&#45;&gt;5</title>
<path fill="none" stroke="black" d="M500.2,-139.91C528.61,-148.94 565.14,-160.55 591.56,-168.95"/>
<polygon fill="black" stroke="black" points="590.56,-172.31 601.16,-172 592.69,-165.64 590.56,-172.31"/>
</g>
<!-- 7 -->
<!-- name: &quot;Enchants&quot;, typeName: &quot;ItemEnchants&quot;, id: 7, branchId: 0, recurseId: &#45;1, attributes: 256, notes: &quot;&quot; -->
<g id="node8" class="node">
<title>7</title>
<ellipse fill="none" stroke="black" cx="627.3" cy="-126" rx="44.39" ry="18"/>
<text text-anchor="middle" x="627.3" y="-122.3" font-family="Times New Roman,serif" font-size="14.00">Enchants</text>
</g>
<!-- 4&#45;&gt;7 -->
<g id="edge7" class="edge">
<title>4&#45;&gt;7</title>
<path fill="none" stroke="black" d="M526.04,-126C541.67,-126 558.01,-126 572.87,-126"/>
<polygon fill="black" stroke="black" points="572.88,-129.5 582.88,-126 572.88,-122.5 572.88,-129.5"/>
</g>
<!-- 36 -->
<!-- name: &quot;Enchant Name&quot;, typeName: &quot;&quot;, id: 36, branchId: 0, recurseId: &#45;1, attributes: 0, notes: &quot;&quot; -->
<g id="node10" class="node">
<title>36</title>
<ellipse fill="none" stroke="black" cx="627.3" cy="-72" rx="63.89" ry="18"/>
<text text-anchor="middle" x="627.3" y="-68.3" font-family="Times New Roman,serif" font-size="14.00">Enchant Name</text>
</g>
<!-- 4&#45;&gt;36 -->
<g id="edge9" class="edge">
<title>4&#45;&gt;36</title>
<path fill="none" stroke="black" d="M500.2,-112.09C522.92,-104.87 550.83,-96 574.61,-88.44"/>
<polygon fill="black" stroke="black" points="575.71,-91.76 584.18,-85.39 573.59,-85.09 575.71,-91.76"/>
</g>
<!-- 38 -->
<!-- name: &quot;Enchant Net Id&quot;, typeName: &quot;TypedServerNetId&lt;struct RecipeNetIdTag,unsigned int,0&gt;&quot;, id: 38, branchId: 0, recurseId: &#45;1, attributes: 256, notes: &quot;&quot; -->
<g id="node12" class="node">
<title>38</title>
<ellipse fill="none" stroke="black" cx="627.3" cy="-18" rx="65.79" ry="18"/>
<text text-anchor="middle" x="627.3" y="-14.3" font-family="Times New Roman,serif" font-size="14.00">Enchant Net Id</text>
</g>
<!-- 4&#45;&gt;38 -->
<g id="edge11" class="edge">
<title>4&#45;&gt;38</title>
<path fill="none" stroke="black" d="M475.91,-108.51C496.23,-90.86 529.56,-63.63 561.66,-45 566.78,-42.03 572.29,-39.21 577.86,-36.59"/>
<polygon fill="black" stroke="black" points="579.53,-39.68 587.23,-32.39 576.67,-33.29 579.53,-39.68"/>
</g>
<!-- 6 -->
<!-- name: &quot;unsigned varint&quot;, typeName: &quot;&quot;, id: 6, branchId: 0, recurseId: &#45;1, attributes: 512, notes: &quot;&quot; -->
<g id="node7" class="node">
<title>6</title>
<ellipse fill="none" stroke="black" cx="953.83" cy="-180" rx="65.79" ry="18"/>
<text text-anchor="middle" x="953.83" y="-176.3" font-family="Times New Roman,serif" font-size="14.00">unsigned varint</text>
</g>
<!-- 5&#45;&gt;6 -->
<g id="edge6" class="edge">
<title>5&#45;&gt;6</title>
<path fill="none" stroke="black" d="M655.97,-180C704.62,-180 807.03,-180 877.85,-180"/>
<polygon fill="black" stroke="black" points="878.06,-183.5 888.06,-180 878.06,-176.5 878.06,-183.5"/>
</g>
<!-- 35 -->
<!-- name: &quot;ItemEnchants&quot;, typeName: &quot;&quot;, id: 35, branchId: 0, recurseId: &#45;1, attributes: 512, notes: &quot;&quot; -->
<g id="node9" class="node">
<title>35</title>
<ellipse fill="none" stroke="black" cx="953.83" cy="-126" rx="59.59" ry="18"/>
<text text-anchor="middle" x="953.83" y="-122.3" font-family="Times New Roman,serif" font-size="14.00">ItemEnchants</text>
</g>
<!-- 7&#45;&gt;35 -->
<g id="edge8" class="edge">
<title>7&#45;&gt;35</title>
<path fill="none" stroke="black" d="M671.73,-126C726.08,-126 819.8,-126 883.97,-126"/>
<polygon fill="black" stroke="black" points="884,-129.5 894,-126 884,-122.5 884,-129.5"/>
</g>
<!-- 37 -->
<!-- name: &quot;string&quot;, typeName: &quot;&quot;, id: 37, branchId: 0, recurseId: &#45;1, attributes: 512, notes: &quot;&quot; -->
<g id="node11" class="node">
<title>37</title>
<ellipse fill="none" stroke="black" cx="953.83" cy="-72" rx="30.59" ry="18"/>
<text text-anchor="middle" x="953.83" y="-68.3" font-family="Times New Roman,serif" font-size="14.00">string</text>
</g>
<!-- 36&#45;&gt;37 -->
<g id="edge10" class="edge">
<title>36&#45;&gt;37</title>
<path fill="none" stroke="black" d="M691.26,-72C756.89,-72 857.73,-72 913.08,-72"/>
<polygon fill="black" stroke="black" points="913.19,-75.5 923.19,-72 913.19,-68.5 913.19,-75.5"/>
</g>
<!-- 39 -->
<!-- name: &quot;TypedServerNetId&lt;struct RecipeNetIdTag,unsigned int,0&gt;&quot;, typeName: &quot;&quot;, id: 39, branchId: 0, recurseId: &#45;1, attributes: 512, notes: &quot;&quot; -->
<g id="node13" class="node">
<title>39</title>
<ellipse fill="none" stroke="black" cx="953.83" cy="-18" rx="224.76" ry="18"/>
<text text-anchor="middle" x="953.83" y="-14.3" font-family="Times New Roman,serif" font-size="14.00">TypedServerNetId&lt;struct RecipeNetIdTag,unsigned int,0&gt;</text>
</g>
<!-- 38&#45;&gt;39 -->
<g id="edge12" class="edge">
<title>38&#45;&gt;39</title>
<path fill="none" stroke="black" d="M693.2,-18C701.19,-18 709.69,-18 718.55,-18"/>
<polygon fill="black" stroke="black" points="718.69,-21.5 728.69,-18 718.69,-14.5 718.69,-21.5"/>
</g>
</g>
</svg>
