<?xml version="1.0" encoding="UTF-8" standalone="no"?>
<!DOCTYPE svg PUBLIC "-//W3C//DTD SVG 1.1//EN"
 "http://www.w3.org/Graphics/SVG/1.1/DTD/svg11.dtd">
<!-- Generated by graphviz version 10.0.1 (20240210.2158)
 -->
<!-- Title: PlayerHotbarPacket Pages: 1 -->
<svg width="543pt" height="152pt"
 viewBox="0.00 0.00 543.07 152.00" xmlns="http://www.w3.org/2000/svg" xmlns:xlink="http://www.w3.org/1999/xlink">
<g id="graph0" class="graph" transform="scale(1 1) rotate(0) translate(4 148)">
<title>PlayerHotbarPacket</title>
<polygon fill="white" stroke="none" points="-4,4 -4,-148 539.07,-148 539.07,4 -4,4"/>
<!-- 0 -->
<!-- name: &quot;PlayerHotbarPacket&quot;, typeName: &quot;&quot;, id: 0, branchId: 48, recurseId: &#45;1, attributes: 0, notes: &quot;&quot; -->
<g id="node1" class="node">
<title>0</title>
<ellipse fill="none" stroke="black" cx="84.5" cy="-72" rx="84.5" ry="18"/>
<text text-anchor="middle" x="84.5" y="-66.58" font-family="Times New Roman,serif" font-size="14.00">PlayerHotbarPacket</text>
</g>
<!-- 1 -->
<!-- name: &quot;Selected Slot&quot;, typeName: &quot;&quot;, id: 1, branchId: 0, recurseId: &#45;1, attributes: 0, notes: &quot;&quot; -->
<g id="node2" class="node">
<title>1</title>
<ellipse fill="none" stroke="black" cx="285.5" cy="-126" rx="59.55" ry="18"/>
<text text-anchor="middle" x="285.5" y="-120.58" font-family="Times New Roman,serif" font-size="14.00">Selected Slot</text>
</g>
<!-- 0&#45;&gt;1 -->
<g id="edge1" class="edge">
<title>0&#45;&gt;1</title>
<path fill="none" stroke="black" d="M138.04,-86.26C166.1,-93.87 200.62,-103.24 229.1,-110.97"/>
<polygon fill="black" stroke="black" points="228.06,-114.31 238.63,-113.55 229.9,-107.56 228.06,-114.31"/>
</g>
<!-- 3 -->
<!-- name: &quot;Container ID&quot;, typeName: &quot;&quot;, id: 3, branchId: 0, recurseId: &#45;1, attributes: 0, notes: &quot;&quot; -->
<g id="node4" class="node">
<title>3</title>
<ellipse fill="none" stroke="black" cx="285.5" cy="-72" rx="58.55" ry="18"/>
<text text-anchor="middle" x="285.5" y="-66.58" font-family="Times New Roman,serif" font-size="14.00">Container ID</text>
</g>
<!-- 0&#45;&gt;3 -->
<g id="edge3" class="edge">
<title>0&#45;&gt;3</title>
<path fill="none" stroke="black" d="M169.31,-72C184.72,-72 200.64,-72 215.55,-72"/>
<polygon fill="black" stroke="black" points="215.21,-75.5 225.21,-72 215.21,-68.5 215.21,-75.5"/>
</g>
<!-- 5 -->
<!-- name: &quot;Should select slot?&quot;, typeName: &quot;&quot;, id: 5, branchId: 0, recurseId: &#45;1, attributes: 0, notes: &quot;&quot; -->
<g id="node6" class="node">
<title>5</title>
<ellipse fill="none" stroke="black" cx="285.5" cy="-18" rx="80.5" ry="18"/>
<text text-anchor="middle" x="285.5" y="-12.57" font-family="Times New Roman,serif" font-size="14.00">Should select slot?</text>
</g>
<!-- 0&#45;&gt;5 -->
<g id="edge5" class="edge">
<title>0&#45;&gt;5</title>
<path fill="none" stroke="black" d="M138.04,-57.74C163.85,-50.74 195.13,-42.25 222.14,-34.92"/>
<polygon fill="black" stroke="black" points="222.84,-38.36 231.58,-32.36 221.01,-31.6 222.84,-38.36"/>
</g>
<!-- 2 -->
<!-- name: &quot;unsigned varint&quot;, typeName: &quot;&quot;, id: 2, branchId: 0, recurseId: &#45;1, attributes: 512, notes: &quot;&quot; -->
<g id="node3" class="node">
<title>2</title>
<ellipse fill="none" stroke="black" cx="468.54" cy="-126" rx="66.53" ry="18"/>
<text text-anchor="middle" x="468.54" y="-120.58" font-family="Times New Roman,serif" font-size="14.00">unsigned varint</text>
</g>
<!-- 1&#45;&gt;2 -->
<g id="edge2" class="edge">
<title>1&#45;&gt;2</title>
<path fill="none" stroke="black" d="M345.28,-126C359.59,-126 375.12,-126 390.15,-126"/>
<polygon fill="black" stroke="black" points="390.01,-129.5 400.01,-126 390.01,-122.5 390.01,-129.5"/>
</g>
<!-- 4 -->
<!-- name: &quot;byte&quot;, typeName: &quot;&quot;, id: 4, branchId: 0, recurseId: &#45;1, attributes: 512, notes: &quot;&quot; -->
<g id="node5" class="node">
<title>4</title>
<ellipse fill="none" stroke="black" cx="468.54" cy="-72" rx="27" ry="18"/>
<text text-anchor="middle" x="468.54" y="-66.58" font-family="Times New Roman,serif" font-size="14.00">byte</text>
</g>
<!-- 3&#45;&gt;4 -->
<g id="edge4" class="edge">
<title>3&#45;&gt;4</title>
<path fill="none" stroke="black" d="M344.28,-72C372.2,-72 404.93,-72 429.64,-72"/>
<polygon fill="black" stroke="black" points="429.56,-75.5 439.56,-72 429.56,-68.5 429.56,-75.5"/>
</g>
<!-- 6 -->
<!-- name: &quot;bool&quot;, typeName: &quot;&quot;, id: 6, branchId: 0, recurseId: &#45;1, attributes: 512, notes: &quot;&quot; -->
<g id="node7" class="node">
<title>6</title>
<ellipse fill="none" stroke="black" cx="468.54" cy="-18" rx="27.61" ry="18"/>
<text text-anchor="middle" x="468.54" y="-12.57" font-family="Times New Roman,serif" font-size="14.00">bool</text>
</g>
<!-- 5&#45;&gt;6 -->
<g id="edge6" class="edge">
<title>5&#45;&gt;6</title>
<path fill="none" stroke="black" d="M366.43,-18C388.34,-18 411.09,-18 429.45,-18"/>
<polygon fill="black" stroke="black" points="429.32,-21.5 439.32,-18 429.32,-14.5 429.32,-21.5"/>
</g>
</g>
</svg>
