<?xml version="1.0" encoding="UTF-8" standalone="no"?>
<!DOCTYPE svg PUBLIC "-//W3C//DTD SVG 1.1//EN"
 "http://www.w3.org/Graphics/SVG/1.1/DTD/svg11.dtd">
<!-- Generated by graphviz version 14.1.5 (20260411.2331)
 -->
<!-- Title: PlayerBlockActionData Pages: 1 -->
<svg width="1013pt" height="692pt"
 viewBox="0.00 0.00 1013.00 692.00" xmlns="http://www.w3.org/2000/svg" xmlns:xlink="http://www.w3.org/1999/xlink">
<g id="graph0" class="graph" transform="scale(1 1) rotate(0) translate(4 688)">
<title>PlayerBlockActionData</title>
<polygon fill="white" stroke="none" points="-4,4 -4,-688 1009.13,-688 1009.13,4 -4,4"/>
<!-- 183 -->
<!-- name: &quot;PlayerBlockActionData&quot;, typeName: &quot;&quot;, id: 183, branchId: 0, recurseId: &#45;1, attributes: 0, notes: &quot;&quot; -->
<g id="node1" class="node">
<title>183</title>
<ellipse fill="none" stroke="black" cx="98.95" cy="-342" rx="98.95" ry="18"/>
<text xml:space="preserve" text-anchor="middle" x="98.95" y="-336.95" font-family="Times New Roman,serif" font-size="14.00">PlayerBlockActionData</text>
</g>
<!-- 184 -->
<!-- name: &quot;Player Action Type&quot;, typeName: &quot;&quot;, id: 184, branchId: 0, recurseId: &#45;1, attributes: 0, notes: &quot;&quot; -->
<g id="node2" class="node">
<title>184</title>
<ellipse fill="none" stroke="black" cx="340.52" cy="-517" rx="82.06" ry="18"/>
<text xml:space="preserve" text-anchor="middle" x="340.52" y="-511.95" font-family="Times New Roman,serif" font-size="14.00">Player Action Type</text>
</g>
<!-- 183&#45;&gt;184 -->
<g id="edge1" class="edge">
<title>183&#45;&gt;184</title>
<path fill="none" stroke="black" d="M124.24,-359.74C167.4,-391.27 257.49,-457.08 306.33,-492.76"/>
<polygon fill="black" stroke="black" points="304.16,-495.51 314.3,-498.58 308.29,-489.85 304.16,-495.51"/>
</g>
<!-- 186 -->
<!-- name: &quot;Dependency on &#39;Player Action Type&#39;&quot;, typeName: &quot;&quot;, id: 186, branchId: 0, recurseId: &#45;1, attributes: 2, notes: &quot;&quot; -->
<g id="node4" class="node">
<title>186</title>
<polygon fill="none" stroke="black" points="441.15,-333 233.9,-333 233.9,-297 447.15,-297 447.15,-327 441.15,-333"/>
<polyline fill="none" stroke="black" points="441.15,-333 441.15,-327"/>
<polyline fill="none" stroke="black" points="447.15,-327 441.15,-327"/>
<text xml:space="preserve" text-anchor="middle" x="340.52" y="-309.95" font-family="Times New Roman,serif" font-size="14.00">Dependency on &#39;Player Action Type&#39;</text>
</g>
<!-- 183&#45;&gt;186 -->
<g id="edge3" class="edge">
<title>183&#45;&gt;186</title>
<path fill="none" stroke="black" d="M184.08,-332.52C196.49,-331.12 209.46,-329.66 222.39,-328.2"/>
<polygon fill="black" stroke="black" points="222.68,-331.69 232.22,-327.09 221.89,-324.74 222.68,-331.69"/>
</g>
<!-- 185 -->
<!-- name: &quot;varint&quot;, typeName: &quot;&quot;, id: 185, branchId: 0, recurseId: &#45;1, attributes: 512, notes: &quot;&quot; -->
<g id="node3" class="node">
<title>185</title>
<ellipse fill="none" stroke="black" cx="956.85" cy="-666" rx="32.41" ry="18"/>
<text xml:space="preserve" text-anchor="middle" x="956.85" y="-660.95" font-family="Times New Roman,serif" font-size="14.00">varint</text>
</g>
<!-- 184&#45;&gt;185 -->
<g id="edge2" class="edge">
<title>184&#45;&gt;185</title>
<path fill="none" stroke="black" d="M370.93,-534.06C398.91,-549.58 442.64,-571.99 483.15,-585 636.87,-634.38 828.94,-655.43 913.06,-662.73"/>
<polygon fill="black" stroke="black" points="912.66,-666.21 922.92,-663.57 913.25,-659.24 912.66,-666.21"/>
</g>
<!-- 187 -->
<!-- name: &quot;PredictDestroyBlock&quot;, typeName: &quot;&quot;, id: 187, branchId: 0, recurseId: &#45;1, attributes: 4, notes: &quot;&quot; -->
<g id="node5" class="node">
<title>187</title>
<polygon fill="none" stroke="black" points="618.74,-576 494.01,-558 618.74,-540 743.48,-558 618.74,-576"/>
<text xml:space="preserve" text-anchor="middle" x="618.74" y="-552.95" font-family="Times New Roman,serif" font-size="14.00">PredictDestroyBlock</text>
</g>
<!-- 186&#45;&gt;187 -->
<g id="edge4" class="edge">
<title>186&#45;&gt;187</title>
<path fill="none" stroke="black" d="M354.61,-333.42C377.89,-365.33 429.16,-431.79 483.15,-477 512.76,-501.79 550.8,-523.94 578.87,-538.79"/>
<polygon fill="black" stroke="black" points="576.91,-541.71 587.39,-543.22 580.14,-535.5 576.91,-541.71"/>
</g>
<!-- 192 -->
<!-- name: &quot;StartDestroyBlock&quot;, typeName: &quot;&quot;, id: 192, branchId: 1, recurseId: &#45;1, attributes: 4, notes: &quot;&quot; -->
<g id="node10" class="node">
<title>192</title>
<polygon fill="none" stroke="black" points="618.74,-468 506.31,-450 618.74,-432 731.17,-450 618.74,-468"/>
<text xml:space="preserve" text-anchor="middle" x="618.74" y="-444.95" font-family="Times New Roman,serif" font-size="14.00">StartDestroyBlock</text>
</g>
<!-- 186&#45;&gt;192 -->
<g id="edge9" class="edge">
<title>186&#45;&gt;192</title>
<path fill="none" stroke="black" d="M379.35,-333.49C431.88,-359.16 526.4,-405.35 579.27,-431.19"/>
<polygon fill="black" stroke="black" points="577.69,-434.32 588.21,-435.57 580.77,-428.03 577.69,-434.32"/>
</g>
<!-- 197 -->
<!-- name: &quot;AbortDestroyBlock&quot;, typeName: &quot;&quot;, id: 197, branchId: 2, recurseId: &#45;1, attributes: 4, notes: &quot;&quot; -->
<g id="node15" class="node">
<title>197</title>
<polygon fill="none" stroke="black" points="618.74,-360 500.52,-342 618.74,-324 736.96,-342 618.74,-360"/>
<text xml:space="preserve" text-anchor="middle" x="618.74" y="-336.95" font-family="Times New Roman,serif" font-size="14.00">AbortDestroyBlock</text>
</g>
<!-- 186&#45;&gt;197 -->
<g id="edge14" class="edge">
<title>186&#45;&gt;197</title>
<path fill="none" stroke="black" d="M447.53,-325.36C475.88,-328.13 506.15,-331.09 533.18,-333.73"/>
<polygon fill="black" stroke="black" points="532.75,-337.21 543.04,-334.7 533.43,-330.24 532.75,-337.21"/>
</g>
<!-- 202 -->
<!-- name: &quot;CrackBlock&quot;, typeName: &quot;&quot;, id: 202, branchId: 3, recurseId: &#45;1, attributes: 4, notes: &quot;&quot; -->
<g id="node20" class="node">
<title>202</title>
<polygon fill="none" stroke="black" points="618.74,-306 541.05,-288 618.74,-270 696.43,-288 618.74,-306"/>
<text xml:space="preserve" text-anchor="middle" x="618.74" y="-282.95" font-family="Times New Roman,serif" font-size="14.00">CrackBlock</text>
</g>
<!-- 186&#45;&gt;202 -->
<g id="edge19" class="edge">
<title>186&#45;&gt;202</title>
<path fill="none" stroke="black" d="M447.53,-304.64C482.49,-301.22 520.35,-297.52 551.47,-294.48"/>
<polygon fill="black" stroke="black" points="551.49,-297.99 561.11,-293.54 550.81,-291.03 551.49,-297.99"/>
</g>
<!-- 207 -->
<!-- name: &quot;ContinueDestroyBlock&quot;, typeName: &quot;&quot;, id: 207, branchId: 4, recurseId: &#45;1, attributes: 4, notes: &quot;&quot; -->
<g id="node25" class="node">
<title>207</title>
<polygon fill="none" stroke="black" points="618.74,-198 483.15,-180 618.74,-162 754.34,-180 618.74,-198"/>
<text xml:space="preserve" text-anchor="middle" x="618.74" y="-174.95" font-family="Times New Roman,serif" font-size="14.00">ContinueDestroyBlock</text>
</g>
<!-- 186&#45;&gt;207 -->
<g id="edge24" class="edge">
<title>186&#45;&gt;207</title>
<path fill="none" stroke="black" d="M379.35,-296.51C431.57,-270.99 525.3,-225.18 578.34,-199.26"/>
<polygon fill="black" stroke="black" points="579.57,-202.55 587.02,-195.02 576.5,-196.26 579.57,-202.55"/>
</g>
<!-- 212 -->
<!-- name: &quot;StopDestroyBlock&quot;, typeName: &quot;&quot;, id: 212, branchId: 5, recurseId: &#45;1, attributes: 4, notes: &quot;&quot; -->
<g id="node30" class="node">
<title>212</title>
<polygon fill="none" stroke="black" points="618.74,-131 507.03,-113 618.74,-95 730.45,-113 618.74,-131"/>
<text xml:space="preserve" text-anchor="middle" x="618.74" y="-107.95" font-family="Times New Roman,serif" font-size="14.00">StopDestroyBlock</text>
</g>
<!-- 186&#45;&gt;212 -->
<g id="edge29" class="edge">
<title>186&#45;&gt;212</title>
<path fill="none" stroke="black" d="M352.5,-296.69C373.56,-263.12 422.94,-191.64 483.15,-153 503.42,-139.99 528.1,-131.06 550.76,-125"/>
<polygon fill="black" stroke="black" points="551.39,-128.46 560.23,-122.62 549.68,-121.67 551.39,-128.46"/>
</g>
<!-- 214 -->
<!-- name: &quot;Default&quot;, typeName: &quot;&quot;, id: 214, branchId: 6, recurseId: &#45;1, attributes: 4, notes: &quot;&quot; -->
<g id="node32" class="node">
<title>214</title>
<polygon fill="none" stroke="black" points="618.74,-50 564.22,-32 618.74,-14 673.27,-32 618.74,-50"/>
<text xml:space="preserve" text-anchor="middle" x="618.74" y="-26.95" font-family="Times New Roman,serif" font-size="14.00">Default</text>
</g>
<!-- 186&#45;&gt;214 -->
<g id="edge31" class="edge">
<title>186&#45;&gt;214</title>
<path fill="none" stroke="black" d="M348.25,-296.53C364.71,-253.69 411.06,-146.63 483.15,-86 509.26,-64.04 545.44,-50.2 573.72,-42.03"/>
<polygon fill="black" stroke="black" points="574.33,-45.49 583.06,-39.48 572.49,-38.74 574.33,-45.49"/>
</g>
<!-- 188 -->
<!-- name: &quot;Position&quot;, typeName: &quot;BlockPos&quot;, id: 188, branchId: 0, recurseId: &#45;1, attributes: 256, notes: &quot;&quot; -->
<g id="node6" class="node">
<title>188</title>
<ellipse fill="none" stroke="black" cx="831.45" cy="-612" rx="41.12" ry="18"/>
<text xml:space="preserve" text-anchor="middle" x="831.45" y="-606.95" font-family="Times New Roman,serif" font-size="14.00">Position</text>
</g>
<!-- 187&#45;&gt;188 -->
<g id="edge5" class="edge">
<title>187&#45;&gt;188</title>
<path fill="none" stroke="black" d="M665.46,-569.72C700.63,-578.73 749.02,-591.13 784.29,-600.17"/>
<polygon fill="black" stroke="black" points="783.23,-603.51 793.79,-602.6 784.97,-596.73 783.23,-603.51"/>
</g>
<!-- 190 -->
<!-- name: &quot;Facing&quot;, typeName: &quot;&quot;, id: 190, branchId: 0, recurseId: &#45;1, attributes: 0, notes: &quot;&quot; -->
<g id="node8" class="node">
<title>190</title>
<ellipse fill="none" stroke="black" cx="831.45" cy="-558" rx="36" ry="18"/>
<text xml:space="preserve" text-anchor="middle" x="831.45" y="-552.95" font-family="Times New Roman,serif" font-size="14.00">Facing</text>
</g>
<!-- 187&#45;&gt;190 -->
<g id="edge7" class="edge">
<title>187&#45;&gt;190</title>
<path fill="none" stroke="black" d="M746.87,-558C760.03,-558 772.71,-558 784.06,-558"/>
<polygon fill="black" stroke="black" points="783.84,-561.5 793.84,-558 783.84,-554.5 783.84,-561.5"/>
</g>
<!-- 189 -->
<!-- name: &quot;BlockPos&quot;, typeName: &quot;&quot;, id: 189, branchId: 0, recurseId: &#45;1, attributes: 512, notes: &quot;&quot; -->
<g id="node7" class="node">
<title>189</title>
<ellipse fill="none" stroke="black" cx="956.85" cy="-612" rx="46.23" ry="18"/>
<text xml:space="preserve" text-anchor="middle" x="956.85" y="-606.95" font-family="Times New Roman,serif" font-size="14.00">BlockPos</text>
</g>
<!-- 188&#45;&gt;189 -->
<g id="edge6" class="edge">
<title>188&#45;&gt;189</title>
<path fill="none" stroke="black" d="M872.85,-612C881.16,-612 890.06,-612 898.83,-612"/>
<polygon fill="black" stroke="black" points="898.71,-615.5 908.71,-612 898.71,-608.5 898.71,-615.5"/>
</g>
<!-- 191 -->
<!-- name: &quot;varint&quot;, typeName: &quot;&quot;, id: 191, branchId: 0, recurseId: &#45;1, attributes: 512, notes: &quot;&quot; -->
<g id="node9" class="node">
<title>191</title>
<ellipse fill="none" stroke="black" cx="956.85" cy="-558" rx="32.41" ry="18"/>
<text xml:space="preserve" text-anchor="middle" x="956.85" y="-552.95" font-family="Times New Roman,serif" font-size="14.00">varint</text>
</g>
<!-- 190&#45;&gt;191 -->
<g id="edge8" class="edge">
<title>190&#45;&gt;191</title>
<path fill="none" stroke="black" d="M867.81,-558C881.86,-558 898.15,-558 912.87,-558"/>
<polygon fill="black" stroke="black" points="912.75,-561.5 922.75,-558 912.75,-554.5 912.75,-561.5"/>
</g>
<!-- 193 -->
<!-- name: &quot;Position&quot;, typeName: &quot;BlockPos&quot;, id: 193, branchId: 0, recurseId: &#45;1, attributes: 256, notes: &quot;&quot; -->
<g id="node11" class="node">
<title>193</title>
<ellipse fill="none" stroke="black" cx="831.45" cy="-504" rx="41.12" ry="18"/>
<text xml:space="preserve" text-anchor="middle" x="831.45" y="-498.95" font-family="Times New Roman,serif" font-size="14.00">Position</text>
</g>
<!-- 192&#45;&gt;193 -->
<g id="edge10" class="edge">
<title>192&#45;&gt;193</title>
<path fill="none" stroke="black" d="M663.66,-461.25C698.92,-470.29 748.29,-482.95 784.17,-492.14"/>
<polygon fill="black" stroke="black" points="783.28,-495.53 793.84,-494.62 785.02,-488.74 783.28,-495.53"/>
</g>
<!-- 195 -->
<!-- name: &quot;Facing&quot;, typeName: &quot;&quot;, id: 195, branchId: 0, recurseId: &#45;1, attributes: 0, notes: &quot;&quot; -->
<g id="node13" class="node">
<title>195</title>
<ellipse fill="none" stroke="black" cx="831.45" cy="-450" rx="36" ry="18"/>
<text xml:space="preserve" text-anchor="middle" x="831.45" y="-444.95" font-family="Times New Roman,serif" font-size="14.00">Facing</text>
</g>
<!-- 192&#45;&gt;195 -->
<g id="edge12" class="edge">
<title>192&#45;&gt;195</title>
<path fill="none" stroke="black" d="M734.04,-450C751.6,-450 768.82,-450 783.74,-450"/>
<polygon fill="black" stroke="black" points="783.66,-453.5 793.66,-450 783.66,-446.5 783.66,-453.5"/>
</g>
<!-- 194 -->
<!-- name: &quot;BlockPos&quot;, typeName: &quot;&quot;, id: 194, branchId: 0, recurseId: &#45;1, attributes: 512, notes: &quot;&quot; -->
<g id="node12" class="node">
<title>194</title>
<ellipse fill="none" stroke="black" cx="956.85" cy="-504" rx="46.23" ry="18"/>
<text xml:space="preserve" text-anchor="middle" x="956.85" y="-498.95" font-family="Times New Roman,serif" font-size="14.00">BlockPos</text>
</g>
<!-- 193&#45;&gt;194 -->
<g id="edge11" class="edge">
<title>193&#45;&gt;194</title>
<path fill="none" stroke="black" d="M872.85,-504C881.16,-504 890.06,-504 898.83,-504"/>
<polygon fill="black" stroke="black" points="898.71,-507.5 908.71,-504 898.71,-500.5 898.71,-507.5"/>
</g>
<!-- 196 -->
<!-- name: &quot;varint&quot;, typeName: &quot;&quot;, id: 196, branchId: 0, recurseId: &#45;1, attributes: 512, notes: &quot;&quot; -->
<g id="node14" class="node">
<title>196</title>
<ellipse fill="none" stroke="black" cx="956.85" cy="-450" rx="32.41" ry="18"/>
<text xml:space="preserve" text-anchor="middle" x="956.85" y="-444.95" font-family="Times New Roman,serif" font-size="14.00">varint</text>
</g>
<!-- 195&#45;&gt;196 -->
<g id="edge13" class="edge">
<title>195&#45;&gt;196</title>
<path fill="none" stroke="black" d="M867.81,-450C881.86,-450 898.15,-450 912.87,-450"/>
<polygon fill="black" stroke="black" points="912.75,-453.5 922.75,-450 912.75,-446.5 912.75,-453.5"/>
</g>
<!-- 198 -->
<!-- name: &quot;Position&quot;, typeName: &quot;BlockPos&quot;, id: 198, branchId: 0, recurseId: &#45;1, attributes: 256, notes: &quot;&quot; -->
<g id="node16" class="node">
<title>198</title>
<ellipse fill="none" stroke="black" cx="831.45" cy="-396" rx="41.12" ry="18"/>
<text xml:space="preserve" text-anchor="middle" x="831.45" y="-390.95" font-family="Times New Roman,serif" font-size="14.00">Position</text>
</g>
<!-- 197&#45;&gt;198 -->
<g id="edge15" class="edge">
<title>197&#45;&gt;198</title>
<path fill="none" stroke="black" d="M664.43,-353.45C699.64,-362.48 748.56,-375.01 784.17,-384.14"/>
<polygon fill="black" stroke="black" points="783.21,-387.51 793.77,-386.6 784.95,-380.73 783.21,-387.51"/>
</g>
<!-- 200 -->
<!-- name: &quot;Facing&quot;, typeName: &quot;&quot;, id: 200, branchId: 0, recurseId: &#45;1, attributes: 0, notes: &quot;&quot; -->
<g id="node18" class="node">
<title>200</title>
<ellipse fill="none" stroke="black" cx="831.45" cy="-342" rx="36" ry="18"/>
<text xml:space="preserve" text-anchor="middle" x="831.45" y="-336.95" font-family="Times New Roman,serif" font-size="14.00">Facing</text>
</g>
<!-- 197&#45;&gt;200 -->
<g id="edge17" class="edge">
<title>197&#45;&gt;200</title>
<path fill="none" stroke="black" d="M740.17,-342C755.72,-342 770.81,-342 784.07,-342"/>
<polygon fill="black" stroke="black" points="783.7,-345.5 793.7,-342 783.7,-338.5 783.7,-345.5"/>
</g>
<!-- 199 -->
<!-- name: &quot;BlockPos&quot;, typeName: &quot;&quot;, id: 199, branchId: 0, recurseId: &#45;1, attributes: 512, notes: &quot;&quot; -->
<g id="node17" class="node">
<title>199</title>
<ellipse fill="none" stroke="black" cx="956.85" cy="-396" rx="46.23" ry="18"/>
<text xml:space="preserve" text-anchor="middle" x="956.85" y="-390.95" font-family="Times New Roman,serif" font-size="14.00">BlockPos</text>
</g>
<!-- 198&#45;&gt;199 -->
<g id="edge16" class="edge">
<title>198&#45;&gt;199</title>
<path fill="none" stroke="black" d="M872.85,-396C881.16,-396 890.06,-396 898.83,-396"/>
<polygon fill="black" stroke="black" points="898.71,-399.5 908.71,-396 898.71,-392.5 898.71,-399.5"/>
</g>
<!-- 201 -->
<!-- name: &quot;varint&quot;, typeName: &quot;&quot;, id: 201, branchId: 0, recurseId: &#45;1, attributes: 512, notes: &quot;&quot; -->
<g id="node19" class="node">
<title>201</title>
<ellipse fill="none" stroke="black" cx="956.85" cy="-342" rx="32.41" ry="18"/>
<text xml:space="preserve" text-anchor="middle" x="956.85" y="-336.95" font-family="Times New Roman,serif" font-size="14.00">varint</text>
</g>
<!-- 200&#45;&gt;201 -->
<g id="edge18" class="edge">
<title>200&#45;&gt;201</title>
<path fill="none" stroke="black" d="M867.81,-342C881.86,-342 898.15,-342 912.87,-342"/>
<polygon fill="black" stroke="black" points="912.75,-345.5 922.75,-342 912.75,-338.5 912.75,-345.5"/>
</g>
<!-- 203 -->
<!-- name: &quot;Position&quot;, typeName: &quot;BlockPos&quot;, id: 203, branchId: 0, recurseId: &#45;1, attributes: 256, notes: &quot;&quot; -->
<g id="node21" class="node">
<title>203</title>
<ellipse fill="none" stroke="black" cx="831.45" cy="-288" rx="41.12" ry="18"/>
<text xml:space="preserve" text-anchor="middle" x="831.45" y="-282.95" font-family="Times New Roman,serif" font-size="14.00">Position</text>
</g>
<!-- 202&#45;&gt;203 -->
<g id="edge20" class="edge">
<title>202&#45;&gt;203</title>
<path fill="none" stroke="black" d="M698.5,-288C725.22,-288 754.39,-288 778.48,-288"/>
<polygon fill="black" stroke="black" points="778.36,-291.5 788.36,-288 778.36,-284.5 778.36,-291.5"/>
</g>
<!-- 205 -->
<!-- name: &quot;Facing&quot;, typeName: &quot;&quot;, id: 205, branchId: 0, recurseId: &#45;1, attributes: 0, notes: &quot;&quot; -->
<g id="node23" class="node">
<title>205</title>
<ellipse fill="none" stroke="black" cx="831.45" cy="-234" rx="36" ry="18"/>
<text xml:space="preserve" text-anchor="middle" x="831.45" y="-228.95" font-family="Times New Roman,serif" font-size="14.00">Facing</text>
</g>
<!-- 202&#45;&gt;205 -->
<g id="edge22" class="edge">
<title>202&#45;&gt;205</title>
<path fill="none" stroke="black" d="M656.93,-278.47C693.6,-269.07 749.57,-254.73 787.97,-244.89"/>
<polygon fill="black" stroke="black" points="788.51,-248.36 797.33,-242.49 786.77,-241.58 788.51,-248.36"/>
</g>
<!-- 204 -->
<!-- name: &quot;BlockPos&quot;, typeName: &quot;&quot;, id: 204, branchId: 0, recurseId: &#45;1, attributes: 512, notes: &quot;&quot; -->
<g id="node22" class="node">
<title>204</title>
<ellipse fill="none" stroke="black" cx="956.85" cy="-288" rx="46.23" ry="18"/>
<text xml:space="preserve" text-anchor="middle" x="956.85" y="-282.95" font-family="Times New Roman,serif" font-size="14.00">BlockPos</text>
</g>
<!-- 203&#45;&gt;204 -->
<g id="edge21" class="edge">
<title>203&#45;&gt;204</title>
<path fill="none" stroke="black" d="M872.85,-288C881.16,-288 890.06,-288 898.83,-288"/>
<polygon fill="black" stroke="black" points="898.71,-291.5 908.71,-288 898.71,-284.5 898.71,-291.5"/>
</g>
<!-- 206 -->
<!-- name: &quot;varint&quot;, typeName: &quot;&quot;, id: 206, branchId: 0, recurseId: &#45;1, attributes: 512, notes: &quot;&quot; -->
<g id="node24" class="node">
<title>206</title>
<ellipse fill="none" stroke="black" cx="956.85" cy="-234" rx="32.41" ry="18"/>
<text xml:space="preserve" text-anchor="middle" x="956.85" y="-228.95" font-family="Times New Roman,serif" font-size="14.00">varint</text>
</g>
<!-- 205&#45;&gt;206 -->
<g id="edge23" class="edge">
<title>205&#45;&gt;206</title>
<path fill="none" stroke="black" d="M867.81,-234C881.86,-234 898.15,-234 912.87,-234"/>
<polygon fill="black" stroke="black" points="912.75,-237.5 922.75,-234 912.75,-230.5 912.75,-237.5"/>
</g>
<!-- 208 -->
<!-- name: &quot;Position&quot;, typeName: &quot;BlockPos&quot;, id: 208, branchId: 0, recurseId: &#45;1, attributes: 256, notes: &quot;&quot; -->
<g id="node26" class="node">
<title>208</title>
<ellipse fill="none" stroke="black" cx="831.45" cy="-180" rx="41.12" ry="18"/>
<text xml:space="preserve" text-anchor="middle" x="831.45" y="-174.95" font-family="Times New Roman,serif" font-size="14.00">Position</text>
</g>
<!-- 207&#45;&gt;208 -->
<g id="edge25" class="edge">
<title>207&#45;&gt;208</title>
<path fill="none" stroke="black" d="M757.94,-180C765.11,-180 772.06,-180 778.63,-180"/>
<polygon fill="black" stroke="black" points="778.5,-183.5 788.5,-180 778.5,-176.5 778.5,-183.5"/>
</g>
<!-- 210 -->
<!-- name: &quot;Facing&quot;, typeName: &quot;&quot;, id: 210, branchId: 0, recurseId: &#45;1, attributes: 0, notes: &quot;&quot; -->
<g id="node28" class="node">
<title>210</title>
<ellipse fill="none" stroke="black" cx="831.45" cy="-126" rx="36" ry="18"/>
<text xml:space="preserve" text-anchor="middle" x="831.45" y="-120.95" font-family="Times New Roman,serif" font-size="14.00">Facing</text>
</g>
<!-- 207&#45;&gt;210 -->
<g id="edge27" class="edge">
<title>207&#45;&gt;210</title>
<path fill="none" stroke="black" d="M666.77,-167.95C703.1,-158.64 752.96,-145.86 788.07,-136.86"/>
<polygon fill="black" stroke="black" points="788.63,-140.33 797.45,-134.46 786.89,-133.55 788.63,-140.33"/>
</g>
<!-- 209 -->
<!-- name: &quot;BlockPos&quot;, typeName: &quot;&quot;, id: 209, branchId: 0, recurseId: &#45;1, attributes: 512, notes: &quot;&quot; -->
<g id="node27" class="node">
<title>209</title>
<ellipse fill="none" stroke="black" cx="956.85" cy="-180" rx="46.23" ry="18"/>
<text xml:space="preserve" text-anchor="middle" x="956.85" y="-174.95" font-family="Times New Roman,serif" font-size="14.00">BlockPos</text>
</g>
<!-- 208&#45;&gt;209 -->
<g id="edge26" class="edge">
<title>208&#45;&gt;209</title>
<path fill="none" stroke="black" d="M872.85,-180C881.16,-180 890.06,-180 898.83,-180"/>
<polygon fill="black" stroke="black" points="898.71,-183.5 908.71,-180 898.71,-176.5 898.71,-183.5"/>
</g>
<!-- 211 -->
<!-- name: &quot;varint&quot;, typeName: &quot;&quot;, id: 211, branchId: 0, recurseId: &#45;1, attributes: 512, notes: &quot;&quot; -->
<g id="node29" class="node">
<title>211</title>
<ellipse fill="none" stroke="black" cx="956.85" cy="-126" rx="32.41" ry="18"/>
<text xml:space="preserve" text-anchor="middle" x="956.85" y="-120.95" font-family="Times New Roman,serif" font-size="14.00">varint</text>
</g>
<!-- 210&#45;&gt;211 -->
<g id="edge28" class="edge">
<title>210&#45;&gt;211</title>
<path fill="none" stroke="black" d="M867.81,-126C881.86,-126 898.15,-126 912.87,-126"/>
<polygon fill="black" stroke="black" points="912.75,-129.5 922.75,-126 912.75,-122.5 912.75,-129.5"/>
</g>
<!-- 213 -->
<!-- name: &quot;[No Data]&quot;, typeName: &quot;&quot;, id: 213, branchId: 0, recurseId: &#45;1, attributes: 512, notes: &quot;&quot; -->
<g id="node31" class="node">
<title>213</title>
<ellipse fill="none" stroke="black" cx="956.85" cy="-72" rx="48.28" ry="18"/>
<text xml:space="preserve" text-anchor="middle" x="956.85" y="-66.95" font-family="Times New Roman,serif" font-size="14.00">[No Data]</text>
</g>
<!-- 212&#45;&gt;213 -->
<g id="edge30" class="edge">
<title>212&#45;&gt;213</title>
<path fill="none" stroke="black" d="M684.15,-105.14C746.34,-97.56 839.59,-86.18 899.07,-78.93"/>
<polygon fill="black" stroke="black" points="899.49,-82.4 908.99,-77.72 898.64,-75.45 899.49,-82.4"/>
</g>
<!-- 215 -->
<!-- name: &quot;[No Data]&quot;, typeName: &quot;&quot;, id: 215, branchId: 0, recurseId: &#45;1, attributes: 512, notes: &quot;&quot; -->
<g id="node33" class="node">
<title>215</title>
<ellipse fill="none" stroke="black" cx="956.85" cy="-18" rx="48.28" ry="18"/>
<text xml:space="preserve" text-anchor="middle" x="956.85" y="-12.95" font-family="Times New Roman,serif" font-size="14.00">[No Data]</text>
</g>
<!-- 214&#45;&gt;215 -->
<g id="edge32" class="edge">
<title>214&#45;&gt;215</title>
<path fill="none" stroke="black" d="M668.61,-29.96C729.24,-27.44 832.51,-23.14 897.31,-20.44"/>
<polygon fill="black" stroke="black" points="897.19,-23.95 907.03,-20.03 896.89,-16.95 897.19,-23.95"/>
</g>
</g>
</svg>
