<?xml version="1.0" encoding="UTF-8" standalone="no"?>
<!DOCTYPE svg PUBLIC "-//W3C//DTD SVG 1.1//EN"
 "http://www.w3.org/Graphics/SVG/1.1/DTD/svg11.dtd">
<!-- Generated by graphviz version 13.1.2 (20250808.2320)
 -->
<!-- Title: PlayerFogPacket Pages: 1 -->
<svg width="646pt" height="98pt"
 viewBox="0.00 0.00 646.00 98.00" xmlns="http://www.w3.org/2000/svg" xmlns:xlink="http://www.w3.org/1999/xlink">
<g id="graph0" class="graph" transform="scale(1 1) rotate(0) translate(4 94)">
<title>PlayerFogPacket</title>
<polygon fill="white" stroke="none" points="-4,4 -4,-94 641.55,-94 641.55,4 -4,4"/>
<!-- 0 -->
<!-- name: &quot;PlayerFogPacket&quot;, typeName: &quot;&quot;, id: 0, branchId: 0, recurseId: &#45;1, attributes: 0, notes: &quot;Player Fog Packet&quot; -->
<g id="node1" class="node">
<title>0</title>
<ellipse fill="none" stroke="black" cx="73.36" cy="-45" rx="73.36" ry="18"/>
<text xml:space="preserve" text-anchor="middle" x="73.36" y="-39.95" font-family="Times New Roman,serif" font-size="14.00">PlayerFogPacket</text>
</g>
<!-- 1 -->
<!-- name: &quot;Fog Stack&quot;, typeName: &quot;&quot;, id: 1, branchId: 0, recurseId: &#45;1, attributes: 0, notes: &quot;Stack of fog effects created by /fog command. &#160;Fog effects are strings from /fog command&quot; -->
<g id="node2" class="node">
<title>1</title>
<ellipse fill="none" stroke="black" cx="231" cy="-45" rx="48.28" ry="18"/>
<text xml:space="preserve" text-anchor="middle" x="231" y="-39.95" font-family="Times New Roman,serif" font-size="14.00">Fog Stack</text>
</g>
<!-- 0&#45;&gt;1 -->
<g id="edge1" class="edge">
<title>0&#45;&gt;1</title>
<path fill="none" stroke="black" d="M147.17,-45C155.25,-45 163.4,-45 171.27,-45"/>
<polygon fill="black" stroke="black" points="171.06,-48.5 181.06,-45 171.06,-41.5 171.06,-48.5"/>
</g>
<!-- 2 -->
<!-- name: &quot;List Size&quot;, typeName: &quot;&quot;, id: 2, branchId: 0, recurseId: &#45;1, attributes: 0, notes: &quot;&quot; -->
<g id="node3" class="node">
<title>2</title>
<ellipse fill="none" stroke="black" cx="390.17" cy="-72" rx="43.67" ry="18"/>
<text xml:space="preserve" text-anchor="middle" x="390.17" y="-66.95" font-family="Times New Roman,serif" font-size="14.00">List Size</text>
</g>
<!-- 1&#45;&gt;2 -->
<g id="edge2" class="edge">
<title>1&#45;&gt;2</title>
<path fill="none" stroke="black" d="M275.36,-52.45C294.75,-55.78 317.73,-59.73 337.96,-63.2"/>
<polygon fill="black" stroke="black" points="337.24,-66.63 347.69,-64.87 338.43,-59.73 337.24,-66.63"/>
</g>
<!-- 4 -->
<!-- name: &quot;example element&quot;, typeName: &quot;&quot;, id: 4, branchId: 0, recurseId: &#45;1, attributes: 16, notes: &quot;&quot; -->
<g id="node5" class="node">
<title>4</title>
<ellipse fill="none" stroke="black" stroke-dasharray="1,5" cx="390.17" cy="-18" rx="74.89" ry="18"/>
<text xml:space="preserve" text-anchor="middle" x="390.17" y="-12.95" font-family="Times New Roman,serif" font-size="14.00">example element</text>
</g>
<!-- 1&#45;&gt;4 -->
<g id="edge4" class="edge">
<title>1&#45;&gt;4</title>
<path fill="none" stroke="black" d="M275.36,-37.55C288.27,-35.33 302.77,-32.84 316.99,-30.4"/>
<polygon fill="black" stroke="black" points="317.55,-33.86 326.81,-28.71 316.36,-26.96 317.55,-33.86"/>
</g>
<!-- 3 -->
<!-- name: &quot;unsigned varint&quot;, typeName: &quot;&quot;, id: 3, branchId: 0, recurseId: &#45;1, attributes: 0, notes: &quot;&quot; -->
<g id="node4" class="node">
<title>3</title>
<ellipse fill="none" stroke="black" cx="569.31" cy="-72" rx="68.24" ry="18"/>
<text xml:space="preserve" text-anchor="middle" x="569.31" y="-66.95" font-family="Times New Roman,serif" font-size="14.00">unsigned varint</text>
</g>
<!-- 2&#45;&gt;3 -->
<g id="edge3" class="edge">
<title>2&#45;&gt;3</title>
<path fill="none" stroke="black" d="M434.05,-72C450.67,-72 470.23,-72 489.21,-72"/>
<polygon fill="black" stroke="black" points="489.09,-75.5 499.09,-72 489.09,-68.5 489.09,-75.5"/>
</g>
<!-- 5 -->
<!-- name: &quot;string&quot;, typeName: &quot;&quot;, id: 5, branchId: 0, recurseId: &#45;1, attributes: 512, notes: &quot;&quot; -->
<g id="node6" class="node">
<title>5</title>
<ellipse fill="none" stroke="black" cx="569.31" cy="-18" rx="31.9" ry="18"/>
<text xml:space="preserve" text-anchor="middle" x="569.31" y="-12.95" font-family="Times New Roman,serif" font-size="14.00">string</text>
</g>
<!-- 4&#45;&gt;5 -->
<g id="edge5" class="edge">
<title>4&#45;&gt;5</title>
<path fill="none" stroke="black" d="M465.53,-18C486.03,-18 507.58,-18 525.62,-18"/>
<polygon fill="black" stroke="black" points="525.41,-21.5 535.41,-18 525.41,-14.5 525.41,-21.5"/>
</g>
</g>
</svg>
