<?xml version="1.0" encoding="UTF-8" standalone="no"?>
<!DOCTYPE svg PUBLIC "-//W3C//DTD SVG 1.1//EN"
 "http://www.w3.org/Graphics/SVG/1.1/DTD/svg11.dtd">
<!-- Generated by graphviz version 12.2.1 (20241206.2353)
 -->
<!-- Title: PlayerVideoCapturePacket Pages: 1 -->
<svg width="973pt" height="260pt"
 viewBox="0.00 0.00 972.73 260.00" xmlns="http://www.w3.org/2000/svg" xmlns:xlink="http://www.w3.org/1999/xlink">
<g id="graph0" class="graph" transform="scale(1 1) rotate(0) translate(4 256)">
<title>PlayerVideoCapturePacket</title>
<polygon fill="white" stroke="none" points="-4,4 -4,-256 968.73,-256 968.73,4 -4,4"/>
<!-- 0 -->
<!-- name: &quot;PlayerVideoCapturePacket&quot;, typeName: &quot;&quot;, id: 0, branchId: 324, recurseId: &#45;1, attributes: 0, notes: &quot;&quot; -->
<g id="node1" class="node">
<title>0</title>
<ellipse fill="none" stroke="black" cx="110.21" cy="-72" rx="110.21" ry="18"/>
<text text-anchor="middle" x="110.21" y="-66.95" font-family="Times New Roman,serif" font-size="14.00">PlayerVideoCapturePacket</text>
</g>
<!-- 1 -->
<!-- name: &quot;Dependency on &#39;Action&#39;&quot;, typeName: &quot;&quot;, id: 1, branchId: 0, recurseId: &#45;1, attributes: 2, notes: &quot;&quot; -->
<g id="node2" class="node">
<title>1</title>
<polygon fill="none" stroke="black" points="396.17,-90 256.42,-90 256.42,-54 402.17,-54 402.17,-84 396.17,-90"/>
<polyline fill="none" stroke="black" points="396.17,-90 396.17,-84"/>
<polyline fill="none" stroke="black" points="402.17,-84 396.17,-84"/>
<text text-anchor="middle" x="329.29" y="-66.95" font-family="Times New Roman,serif" font-size="14.00">Dependency on &#39;Action&#39;</text>
</g>
<!-- 0&#45;&gt;1 -->
<g id="edge1" class="edge">
<title>0&#45;&gt;1</title>
<path fill="none" stroke="black" d="M220.71,-72C228.78,-72 236.84,-72 244.72,-72"/>
<polygon fill="black" stroke="black" points="244.59,-75.5 254.59,-72 244.59,-68.5 244.59,-75.5"/>
</g>
<!-- 2 -->
<!-- name: &quot;Start Video Capture&quot;, typeName: &quot;&quot;, id: 2, branchId: 0, recurseId: &#45;1, attributes: 4, notes: &quot;&quot; -->
<g id="node3" class="node">
<title>2</title>
<polygon fill="none" stroke="black" points="557.11,-171 438.17,-153 557.11,-135 676.06,-153 557.11,-171"/>
<text text-anchor="middle" x="557.11" y="-147.95" font-family="Times New Roman,serif" font-size="14.00">Start Video Capture</text>
</g>
<!-- 1&#45;&gt;2 -->
<g id="edge2" class="edge">
<title>1&#45;&gt;2</title>
<path fill="none" stroke="black" d="M381.82,-90.48C420.32,-104.29 472.51,-123.01 509.72,-136.36"/>
<polygon fill="black" stroke="black" points="508.26,-139.55 518.85,-139.63 510.62,-132.96 508.26,-139.55"/>
</g>
<!-- 9 -->
<!-- name: &quot;Stop Video Capture&quot;, typeName: &quot;&quot;, id: 9, branchId: 1, recurseId: &#45;1, attributes: 4, notes: &quot;&quot; -->
<g id="node10" class="node">
<title>9</title>
<polygon fill="none" stroke="black" points="557.11,-90 438.89,-72 557.11,-54 675.34,-72 557.11,-90"/>
<text text-anchor="middle" x="557.11" y="-66.95" font-family="Times New Roman,serif" font-size="14.00">Stop Video Capture</text>
</g>
<!-- 1&#45;&gt;9 -->
<g id="edge9" class="edge">
<title>1&#45;&gt;9</title>
<path fill="none" stroke="black" d="M402.37,-72C409.48,-72 416.84,-72 424.32,-72"/>
<polygon fill="black" stroke="black" points="424.23,-75.5 434.23,-72 424.23,-68.5 424.23,-75.5"/>
</g>
<!-- 12 -->
<!-- name: &quot;Default&quot;, typeName: &quot;&quot;, id: 12, branchId: 2, recurseId: &#45;1, attributes: 4, notes: &quot;&quot; -->
<g id="node13" class="node">
<title>12</title>
<polygon fill="none" stroke="black" points="557.11,-36 502.59,-18 557.11,0 611.64,-18 557.11,-36"/>
<text text-anchor="middle" x="557.11" y="-12.95" font-family="Times New Roman,serif" font-size="14.00">Default</text>
</g>
<!-- 1&#45;&gt;12 -->
<g id="edge12" class="edge">
<title>1&#45;&gt;12</title>
<path fill="none" stroke="black" d="M402.49,-53.72C414.4,-50.76 426.62,-47.77 438.17,-45 462.61,-39.14 489.97,-32.86 512.18,-27.84"/>
<polygon fill="black" stroke="black" points="512.82,-31.28 521.8,-25.66 511.28,-24.45 512.82,-31.28"/>
</g>
<!-- 3 -->
<!-- name: &quot;Action&quot;, typeName: &quot;&quot;, id: 3, branchId: 0, recurseId: &#45;1, attributes: 0, notes: &quot;&quot; -->
<g id="node4" class="node">
<title>3</title>
<ellipse fill="none" stroke="black" cx="763.92" cy="-234" rx="36" ry="18"/>
<text text-anchor="middle" x="763.92" y="-228.95" font-family="Times New Roman,serif" font-size="14.00">Action</text>
</g>
<!-- 2&#45;&gt;3 -->
<g id="edge3" class="edge">
<title>2&#45;&gt;3</title>
<path fill="none" stroke="black" d="M591.48,-166.19C627.95,-180.62 686.29,-203.69 724.61,-218.85"/>
<polygon fill="black" stroke="black" points="722.85,-221.92 733.44,-222.34 725.43,-215.41 722.85,-221.92"/>
</g>
<!-- 5 -->
<!-- name: &quot;FrameRate&quot;, typeName: &quot;&quot;, id: 5, branchId: 0, recurseId: &#45;1, attributes: 0, notes: &quot;&quot; -->
<g id="node6" class="node">
<title>5</title>
<ellipse fill="none" stroke="black" cx="763.92" cy="-180" rx="51.86" ry="18"/>
<text text-anchor="middle" x="763.92" y="-174.95" font-family="Times New Roman,serif" font-size="14.00">FrameRate</text>
</g>
<!-- 2&#45;&gt;5 -->
<g id="edge5" class="edge">
<title>2&#45;&gt;5</title>
<path fill="none" stroke="black" d="M622.92,-161.54C648.73,-164.95 678.25,-168.84 703.5,-172.17"/>
<polygon fill="black" stroke="black" points="702.9,-175.62 713.27,-173.45 703.82,-168.68 702.9,-175.62"/>
</g>
<!-- 7 -->
<!-- name: &quot;FilePrefix&quot;, typeName: &quot;&quot;, id: 7, branchId: 0, recurseId: &#45;1, attributes: 0, notes: &quot;&quot; -->
<g id="node8" class="node">
<title>7</title>
<ellipse fill="none" stroke="black" cx="763.92" cy="-126" rx="47.77" ry="18"/>
<text text-anchor="middle" x="763.92" y="-120.95" font-family="Times New Roman,serif" font-size="14.00">FilePrefix</text>
</g>
<!-- 2&#45;&gt;7 -->
<g id="edge7" class="edge">
<title>2&#45;&gt;7</title>
<path fill="none" stroke="black" d="M622.92,-144.46C649.97,-140.89 681.09,-136.79 707.11,-133.36"/>
<polygon fill="black" stroke="black" points="707.34,-136.86 716.79,-132.08 706.42,-129.92 707.34,-136.86"/>
</g>
<!-- 4 -->
<!-- name: &quot;bool&quot;, typeName: &quot;&quot;, id: 4, branchId: 0, recurseId: &#45;1, attributes: 512, notes: &quot;&quot; -->
<g id="node5" class="node">
<title>4</title>
<ellipse fill="none" stroke="black" cx="908.26" cy="-234" rx="27.3" ry="18"/>
<text text-anchor="middle" x="908.26" y="-228.95" font-family="Times New Roman,serif" font-size="14.00">bool</text>
</g>
<!-- 3&#45;&gt;4 -->
<g id="edge4" class="edge">
<title>3&#45;&gt;4</title>
<path fill="none" stroke="black" d="M800.11,-234C821.08,-234 847.72,-234 869.19,-234"/>
<polygon fill="black" stroke="black" points="869,-237.5 879,-234 869,-230.5 869,-237.5"/>
</g>
<!-- 6 -->
<!-- name: &quot;unsigned int&quot;, typeName: &quot;&quot;, id: 6, branchId: 0, recurseId: &#45;1, attributes: 512, notes: &quot;&quot; -->
<g id="node7" class="node">
<title>6</title>
<ellipse fill="none" stroke="black" cx="908.26" cy="-180" rx="56.47" ry="18"/>
<text text-anchor="middle" x="908.26" y="-174.95" font-family="Times New Roman,serif" font-size="14.00">unsigned int</text>
</g>
<!-- 5&#45;&gt;6 -->
<g id="edge6" class="edge">
<title>5&#45;&gt;6</title>
<path fill="none" stroke="black" d="M815.91,-180C823.71,-180 831.87,-180 839.97,-180"/>
<polygon fill="black" stroke="black" points="839.81,-183.5 849.81,-180 839.81,-176.5 839.81,-183.5"/>
</g>
<!-- 8 -->
<!-- name: &quot;string&quot;, typeName: &quot;&quot;, id: 8, branchId: 0, recurseId: &#45;1, attributes: 512, notes: &quot;&quot; -->
<g id="node9" class="node">
<title>8</title>
<ellipse fill="none" stroke="black" cx="908.26" cy="-126" rx="31.9" ry="18"/>
<text text-anchor="middle" x="908.26" y="-120.95" font-family="Times New Roman,serif" font-size="14.00">string</text>
</g>
<!-- 7&#45;&gt;8 -->
<g id="edge8" class="edge">
<title>7&#45;&gt;8</title>
<path fill="none" stroke="black" d="M811.92,-126C829.03,-126 848.25,-126 864.92,-126"/>
<polygon fill="black" stroke="black" points="864.49,-129.5 874.49,-126 864.49,-122.5 864.49,-129.5"/>
</g>
<!-- 10 -->
<!-- name: &quot;Action&quot;, typeName: &quot;&quot;, id: 10, branchId: 0, recurseId: &#45;1, attributes: 0, notes: &quot;&quot; -->
<g id="node11" class="node">
<title>10</title>
<ellipse fill="none" stroke="black" cx="763.92" cy="-72" rx="36" ry="18"/>
<text text-anchor="middle" x="763.92" y="-66.95" font-family="Times New Roman,serif" font-size="14.00">Action</text>
</g>
<!-- 9&#45;&gt;10 -->
<g id="edge10" class="edge">
<title>9&#45;&gt;10</title>
<path fill="none" stroke="black" d="M678.44,-72C691.75,-72 704.65,-72 716.19,-72"/>
<polygon fill="black" stroke="black" points="716.17,-75.5 726.17,-72 716.17,-68.5 716.17,-75.5"/>
</g>
<!-- 11 -->
<!-- name: &quot;bool&quot;, typeName: &quot;&quot;, id: 11, branchId: 0, recurseId: &#45;1, attributes: 512, notes: &quot;&quot; -->
<g id="node12" class="node">
<title>11</title>
<ellipse fill="none" stroke="black" cx="908.26" cy="-72" rx="27.3" ry="18"/>
<text text-anchor="middle" x="908.26" y="-66.95" font-family="Times New Roman,serif" font-size="14.00">bool</text>
</g>
<!-- 10&#45;&gt;11 -->
<g id="edge11" class="edge">
<title>10&#45;&gt;11</title>
<path fill="none" stroke="black" d="M800.11,-72C821.08,-72 847.72,-72 869.19,-72"/>
<polygon fill="black" stroke="black" points="869,-75.5 879,-72 869,-68.5 869,-75.5"/>
</g>
<!-- 13 -->
<!-- name: &quot;[No Data]&quot;, typeName: &quot;&quot;, id: 13, branchId: 0, recurseId: &#45;1, attributes: 512, notes: &quot;&quot; -->
<g id="node14" class="node">
<title>13</title>
<ellipse fill="none" stroke="black" cx="908.26" cy="-18" rx="48.28" ry="18"/>
<text text-anchor="middle" x="908.26" y="-12.95" font-family="Times New Roman,serif" font-size="14.00">[No Data]</text>
</g>
<!-- 12&#45;&gt;13 -->
<g id="edge13" class="edge">
<title>12&#45;&gt;13</title>
<path fill="none" stroke="black" d="M613.05,-18C677.09,-18 782.52,-18 848.25,-18"/>
<polygon fill="black" stroke="black" points="848.13,-21.5 858.13,-18 848.13,-14.5 848.13,-21.5"/>
</g>
</g>
</svg>
