<?xml version="1.0" encoding="UTF-8" standalone="no"?>
<!DOCTYPE svg PUBLIC "-//W3C//DTD SVG 1.1//EN"
 "http://www.w3.org/Graphics/SVG/1.1/DTD/svg11.dtd">
<!-- Generated by graphviz version 12.2.0 (20241103.1931)
 -->
<!-- Title: PlayerBlockActionData Pages: 1 -->
<svg width="1013pt" height="638pt"
 viewBox="0.00 0.00 1013.13 638.00" xmlns="http://www.w3.org/2000/svg" xmlns:xlink="http://www.w3.org/1999/xlink">
<g id="graph0" class="graph" transform="scale(1 1) rotate(0) translate(4 634)">
<title>PlayerBlockActionData</title>
<polygon fill="white" stroke="none" points="-4,4 -4,-634 1009.13,-634 1009.13,4 -4,4"/>
<!-- 133 -->
<!-- name: &quot;PlayerBlockActionData&quot;, typeName: &quot;&quot;, id: 133, branchId: 0, recurseId: &#45;1, attributes: 0, notes: &quot;&quot; -->
<g id="node1" class="node">
<title>133</title>
<ellipse fill="none" stroke="black" cx="98.95" cy="-342" rx="98.95" ry="18"/>
<text text-anchor="middle" x="98.95" y="-336.95" font-family="Times New Roman,serif" font-size="14.00">PlayerBlockActionData</text>
</g>
<!-- 134 -->
<!-- name: &quot;Player Action Type&quot;, typeName: &quot;&quot;, id: 134, branchId: 0, recurseId: &#45;1, attributes: 0, notes: &quot;&quot; -->
<g id="node2" class="node">
<title>134</title>
<ellipse fill="none" stroke="black" cx="340.52" cy="-504" rx="82.06" ry="18"/>
<text text-anchor="middle" x="340.52" y="-498.95" font-family="Times New Roman,serif" font-size="14.00">Player Action Type</text>
</g>
<!-- 133&#45;&gt;134 -->
<g id="edge1" class="edge">
<title>133&#45;&gt;134</title>
<path fill="none" stroke="black" d="M126.04,-359.65C169.27,-388.88 255.78,-447.37 304.35,-480.22"/>
<polygon fill="black" stroke="black" points="302.33,-483.07 312.57,-485.77 306.25,-477.27 302.33,-483.07"/>
</g>
<!-- 136 -->
<!-- name: &quot;Dependency on &#39;Player Action Type&#39;&quot;, typeName: &quot;&quot;, id: 136, branchId: 0, recurseId: &#45;1, attributes: 2, notes: &quot;&quot; -->
<g id="node4" class="node">
<title>136</title>
<polygon fill="none" stroke="black" points="441.15,-333 233.9,-333 233.9,-297 447.15,-297 447.15,-327 441.15,-333"/>
<polyline fill="none" stroke="black" points="441.15,-333 441.15,-327"/>
<polyline fill="none" stroke="black" points="447.15,-327 441.15,-327"/>
<text text-anchor="middle" x="340.52" y="-309.95" font-family="Times New Roman,serif" font-size="14.00">Dependency on &#39;Player Action Type&#39;</text>
</g>
<!-- 133&#45;&gt;136 -->
<g id="edge3" class="edge">
<title>133&#45;&gt;136</title>
<path fill="none" stroke="black" d="M184.08,-332.52C196.49,-331.12 209.46,-329.66 222.39,-328.2"/>
<polygon fill="black" stroke="black" points="222.68,-331.69 232.22,-327.09 221.89,-324.74 222.68,-331.69"/>
</g>
<!-- 135 -->
<!-- name: &quot;varint&quot;, typeName: &quot;&quot;, id: 135, branchId: 0, recurseId: &#45;1, attributes: 512, notes: &quot;&quot; -->
<g id="node3" class="node">
<title>135</title>
<ellipse fill="none" stroke="black" cx="956.85" cy="-612" rx="32.41" ry="18"/>
<text text-anchor="middle" x="956.85" y="-606.95" font-family="Times New Roman,serif" font-size="14.00">varint</text>
</g>
<!-- 134&#45;&gt;135 -->
<g id="edge2" class="edge">
<title>134&#45;&gt;135</title>
<path fill="none" stroke="black" d="M403.18,-515.95C428.01,-520.72 456.93,-526.2 483.15,-531 619.5,-555.98 653.66,-561.84 790.34,-585 832.45,-592.14 880.65,-599.96 914.13,-605.34"/>
<polygon fill="black" stroke="black" points="913.4,-608.77 923.83,-606.9 914.51,-601.86 913.4,-608.77"/>
</g>
<!-- 137 -->
<!-- name: &quot;PredictDestroyBlock&quot;, typeName: &quot;&quot;, id: 137, branchId: 0, recurseId: &#45;1, attributes: 4, notes: &quot;&quot; -->
<g id="node5" class="node">
<title>137</title>
<polygon fill="none" stroke="black" points="618.74,-522 494.01,-504 618.74,-486 743.48,-504 618.74,-522"/>
<text text-anchor="middle" x="618.74" y="-498.95" font-family="Times New Roman,serif" font-size="14.00">PredictDestroyBlock</text>
</g>
<!-- 136&#45;&gt;137 -->
<g id="edge4" class="edge">
<title>136&#45;&gt;137</title>
<path fill="none" stroke="black" d="M364.01,-333.38C391.48,-355.53 439.66,-393.47 483.15,-423 515.66,-445.08 554.21,-467.96 581.71,-483.75"/>
<polygon fill="black" stroke="black" points="579.93,-486.77 590.35,-488.69 583.4,-480.69 579.93,-486.77"/>
</g>
<!-- 142 -->
<!-- name: &quot;StartDestroyBlock&quot;, typeName: &quot;&quot;, id: 142, branchId: 1, recurseId: &#45;1, attributes: 4, notes: &quot;&quot; -->
<g id="node10" class="node">
<title>142</title>
<polygon fill="none" stroke="black" points="618.74,-414 506.31,-396 618.74,-378 731.17,-396 618.74,-414"/>
<text text-anchor="middle" x="618.74" y="-390.95" font-family="Times New Roman,serif" font-size="14.00">StartDestroyBlock</text>
</g>
<!-- 136&#45;&gt;142 -->
<g id="edge9" class="edge">
<title>136&#45;&gt;142</title>
<path fill="none" stroke="black" d="M404.55,-333.48C453.68,-347.89 521.02,-367.64 566.78,-381.06"/>
<polygon fill="black" stroke="black" points="565.61,-384.36 576.19,-383.81 567.58,-377.64 565.61,-384.36"/>
</g>
<!-- 147 -->
<!-- name: &quot;AbortDestroyBlock&quot;, typeName: &quot;&quot;, id: 147, branchId: 2, recurseId: &#45;1, attributes: 4, notes: &quot;&quot; -->
<g id="node15" class="node">
<title>147</title>
<polygon fill="none" stroke="black" points="618.74,-333 500.52,-315 618.74,-297 736.96,-315 618.74,-333"/>
<text text-anchor="middle" x="618.74" y="-309.95" font-family="Times New Roman,serif" font-size="14.00">AbortDestroyBlock</text>
</g>
<!-- 136&#45;&gt;147 -->
<g id="edge14" class="edge">
<title>136&#45;&gt;147</title>
<path fill="none" stroke="black" d="M447.53,-315C460.12,-315 473.09,-315 485.98,-315"/>
<polygon fill="black" stroke="black" points="485.77,-318.5 495.77,-315 485.77,-311.5 485.77,-318.5"/>
</g>
<!-- 152 -->
<!-- name: &quot;CrackBlock&quot;, typeName: &quot;&quot;, id: 152, branchId: 3, recurseId: &#45;1, attributes: 4, notes: &quot;&quot; -->
<g id="node20" class="node">
<title>152</title>
<polygon fill="none" stroke="black" points="618.74,-252 541.05,-234 618.74,-216 696.43,-234 618.74,-252"/>
<text text-anchor="middle" x="618.74" y="-228.95" font-family="Times New Roman,serif" font-size="14.00">CrackBlock</text>
</g>
<!-- 136&#45;&gt;152 -->
<g id="edge19" class="edge">
<title>136&#45;&gt;152</title>
<path fill="none" stroke="black" d="M404.55,-296.52C455.74,-281.51 526.7,-260.7 572.42,-247.29"/>
<polygon fill="black" stroke="black" points="573.13,-250.73 581.74,-244.56 571.16,-244.01 573.13,-250.73"/>
</g>
<!-- 157 -->
<!-- name: &quot;ContinueDestroyBlock&quot;, typeName: &quot;&quot;, id: 157, branchId: 4, recurseId: &#45;1, attributes: 4, notes: &quot;&quot; -->
<g id="node25" class="node">
<title>157</title>
<polygon fill="none" stroke="black" points="618.74,-144 483.15,-126 618.74,-108 754.34,-126 618.74,-144"/>
<text text-anchor="middle" x="618.74" y="-120.95" font-family="Times New Roman,serif" font-size="14.00">ContinueDestroyBlock</text>
</g>
<!-- 136&#45;&gt;157 -->
<g id="edge24" class="edge">
<title>136&#45;&gt;157</title>
<path fill="none" stroke="black" d="M364.01,-296.62C391.48,-274.47 439.66,-236.53 483.15,-207 515.56,-184.99 553.97,-162.18 581.45,-146.39"/>
<polygon fill="black" stroke="black" points="583.15,-149.45 590.1,-141.45 579.68,-143.37 583.15,-149.45"/>
</g>
<!-- 162 -->
<!-- name: &quot;StopDestroyBlock&quot;, typeName: &quot;&quot;, id: 162, branchId: 5, recurseId: &#45;1, attributes: 4, notes: &quot;&quot; -->
<g id="node30" class="node">
<title>162</title>
<polygon fill="none" stroke="black" points="618.74,-63 507.03,-45 618.74,-27 730.45,-45 618.74,-63"/>
<text text-anchor="middle" x="618.74" y="-39.95" font-family="Times New Roman,serif" font-size="14.00">StopDestroyBlock</text>
</g>
<!-- 136&#45;&gt;162 -->
<g id="edge29" class="edge">
<title>136&#45;&gt;162</title>
<path fill="none" stroke="black" d="M348.93,-296.67C366.35,-255.69 413.75,-155.81 483.15,-99 505.65,-80.58 535.25,-67.79 560.95,-59.3"/>
<polygon fill="black" stroke="black" points="561.77,-62.71 570.26,-56.37 559.67,-56.03 561.77,-62.71"/>
</g>
<!-- 138 -->
<!-- name: &quot;Position&quot;, typeName: &quot;BlockPos&quot;, id: 138, branchId: 0, recurseId: &#45;1, attributes: 256, notes: &quot;&quot; -->
<g id="node6" class="node">
<title>138</title>
<ellipse fill="none" stroke="black" cx="831.45" cy="-558" rx="41.12" ry="18"/>
<text text-anchor="middle" x="831.45" y="-552.95" font-family="Times New Roman,serif" font-size="14.00">Position</text>
</g>
<!-- 137&#45;&gt;138 -->
<g id="edge5" class="edge">
<title>137&#45;&gt;138</title>
<path fill="none" stroke="black" d="M665.46,-515.72C700.63,-524.73 749.02,-537.13 784.29,-546.17"/>
<polygon fill="black" stroke="black" points="783.23,-549.51 793.79,-548.6 784.97,-542.73 783.23,-549.51"/>
</g>
<!-- 140 -->
<!-- name: &quot;Facing&quot;, typeName: &quot;&quot;, id: 140, branchId: 0, recurseId: &#45;1, attributes: 0, notes: &quot;&quot; -->
<g id="node8" class="node">
<title>140</title>
<ellipse fill="none" stroke="black" cx="831.45" cy="-504" rx="36" ry="18"/>
<text text-anchor="middle" x="831.45" y="-498.95" font-family="Times New Roman,serif" font-size="14.00">Facing</text>
</g>
<!-- 137&#45;&gt;140 -->
<g id="edge7" class="edge">
<title>137&#45;&gt;140</title>
<path fill="none" stroke="black" d="M746.87,-504C760.03,-504 772.71,-504 784.06,-504"/>
<polygon fill="black" stroke="black" points="783.84,-507.5 793.84,-504 783.84,-500.5 783.84,-507.5"/>
</g>
<!-- 139 -->
<!-- name: &quot;BlockPos&quot;, typeName: &quot;&quot;, id: 139, branchId: 0, recurseId: &#45;1, attributes: 512, notes: &quot;&quot; -->
<g id="node7" class="node">
<title>139</title>
<ellipse fill="none" stroke="black" cx="956.85" cy="-558" rx="46.23" ry="18"/>
<text text-anchor="middle" x="956.85" y="-552.95" font-family="Times New Roman,serif" font-size="14.00">BlockPos</text>
</g>
<!-- 138&#45;&gt;139 -->
<g id="edge6" class="edge">
<title>138&#45;&gt;139</title>
<path fill="none" stroke="black" d="M872.85,-558C881.16,-558 890.06,-558 898.83,-558"/>
<polygon fill="black" stroke="black" points="898.71,-561.5 908.71,-558 898.71,-554.5 898.71,-561.5"/>
</g>
<!-- 141 -->
<!-- name: &quot;varint&quot;, typeName: &quot;&quot;, id: 141, branchId: 0, recurseId: &#45;1, attributes: 512, notes: &quot;&quot; -->
<g id="node9" class="node">
<title>141</title>
<ellipse fill="none" stroke="black" cx="956.85" cy="-504" rx="32.41" ry="18"/>
<text text-anchor="middle" x="956.85" y="-498.95" font-family="Times New Roman,serif" font-size="14.00">varint</text>
</g>
<!-- 140&#45;&gt;141 -->
<g id="edge8" class="edge">
<title>140&#45;&gt;141</title>
<path fill="none" stroke="black" d="M867.81,-504C881.86,-504 898.15,-504 912.87,-504"/>
<polygon fill="black" stroke="black" points="912.75,-507.5 922.75,-504 912.75,-500.5 912.75,-507.5"/>
</g>
<!-- 143 -->
<!-- name: &quot;Position&quot;, typeName: &quot;BlockPos&quot;, id: 143, branchId: 0, recurseId: &#45;1, attributes: 256, notes: &quot;&quot; -->
<g id="node11" class="node">
<title>143</title>
<ellipse fill="none" stroke="black" cx="831.45" cy="-450" rx="41.12" ry="18"/>
<text text-anchor="middle" x="831.45" y="-444.95" font-family="Times New Roman,serif" font-size="14.00">Position</text>
</g>
<!-- 142&#45;&gt;143 -->
<g id="edge10" class="edge">
<title>142&#45;&gt;143</title>
<path fill="none" stroke="black" d="M663.66,-407.25C698.92,-416.29 748.29,-428.95 784.17,-438.14"/>
<polygon fill="black" stroke="black" points="783.28,-441.53 793.84,-440.62 785.02,-434.74 783.28,-441.53"/>
</g>
<!-- 145 -->
<!-- name: &quot;Facing&quot;, typeName: &quot;&quot;, id: 145, branchId: 0, recurseId: &#45;1, attributes: 0, notes: &quot;&quot; -->
<g id="node13" class="node">
<title>145</title>
<ellipse fill="none" stroke="black" cx="831.45" cy="-396" rx="36" ry="18"/>
<text text-anchor="middle" x="831.45" y="-390.95" font-family="Times New Roman,serif" font-size="14.00">Facing</text>
</g>
<!-- 142&#45;&gt;145 -->
<g id="edge12" class="edge">
<title>142&#45;&gt;145</title>
<path fill="none" stroke="black" d="M734.04,-396C751.6,-396 768.82,-396 783.74,-396"/>
<polygon fill="black" stroke="black" points="783.66,-399.5 793.66,-396 783.66,-392.5 783.66,-399.5"/>
</g>
<!-- 144 -->
<!-- name: &quot;BlockPos&quot;, typeName: &quot;&quot;, id: 144, branchId: 0, recurseId: &#45;1, attributes: 512, notes: &quot;&quot; -->
<g id="node12" class="node">
<title>144</title>
<ellipse fill="none" stroke="black" cx="956.85" cy="-450" rx="46.23" ry="18"/>
<text text-anchor="middle" x="956.85" y="-444.95" font-family="Times New Roman,serif" font-size="14.00">BlockPos</text>
</g>
<!-- 143&#45;&gt;144 -->
<g id="edge11" class="edge">
<title>143&#45;&gt;144</title>
<path fill="none" stroke="black" d="M872.85,-450C881.16,-450 890.06,-450 898.83,-450"/>
<polygon fill="black" stroke="black" points="898.71,-453.5 908.71,-450 898.71,-446.5 898.71,-453.5"/>
</g>
<!-- 146 -->
<!-- name: &quot;varint&quot;, typeName: &quot;&quot;, id: 146, branchId: 0, recurseId: &#45;1, attributes: 512, notes: &quot;&quot; -->
<g id="node14" class="node">
<title>146</title>
<ellipse fill="none" stroke="black" cx="956.85" cy="-396" rx="32.41" ry="18"/>
<text text-anchor="middle" x="956.85" y="-390.95" font-family="Times New Roman,serif" font-size="14.00">varint</text>
</g>
<!-- 145&#45;&gt;146 -->
<g id="edge13" class="edge">
<title>145&#45;&gt;146</title>
<path fill="none" stroke="black" d="M867.81,-396C881.86,-396 898.15,-396 912.87,-396"/>
<polygon fill="black" stroke="black" points="912.75,-399.5 922.75,-396 912.75,-392.5 912.75,-399.5"/>
</g>
<!-- 148 -->
<!-- name: &quot;Position&quot;, typeName: &quot;BlockPos&quot;, id: 148, branchId: 0, recurseId: &#45;1, attributes: 256, notes: &quot;&quot; -->
<g id="node16" class="node">
<title>148</title>
<ellipse fill="none" stroke="black" cx="831.45" cy="-342" rx="41.12" ry="18"/>
<text text-anchor="middle" x="831.45" y="-336.95" font-family="Times New Roman,serif" font-size="14.00">Position</text>
</g>
<!-- 147&#45;&gt;148 -->
<g id="edge15" class="edge">
<title>147&#45;&gt;148</title>
<path fill="none" stroke="black" d="M684.97,-323.36C715.67,-327.29 751.71,-331.91 780.24,-335.57"/>
<polygon fill="black" stroke="black" points="779.71,-339.03 790.07,-336.83 780.6,-332.08 779.71,-339.03"/>
</g>
<!-- 150 -->
<!-- name: &quot;Facing&quot;, typeName: &quot;&quot;, id: 150, branchId: 0, recurseId: &#45;1, attributes: 0, notes: &quot;&quot; -->
<g id="node18" class="node">
<title>150</title>
<ellipse fill="none" stroke="black" cx="831.45" cy="-288" rx="36" ry="18"/>
<text text-anchor="middle" x="831.45" y="-282.95" font-family="Times New Roman,serif" font-size="14.00">Facing</text>
</g>
<!-- 147&#45;&gt;150 -->
<g id="edge17" class="edge">
<title>147&#45;&gt;150</title>
<path fill="none" stroke="black" d="M684.97,-306.64C717.41,-302.49 755.81,-297.56 785.01,-293.82"/>
<polygon fill="black" stroke="black" points="785.14,-297.33 794.62,-292.59 784.26,-290.39 785.14,-297.33"/>
</g>
<!-- 149 -->
<!-- name: &quot;BlockPos&quot;, typeName: &quot;&quot;, id: 149, branchId: 0, recurseId: &#45;1, attributes: 512, notes: &quot;&quot; -->
<g id="node17" class="node">
<title>149</title>
<ellipse fill="none" stroke="black" cx="956.85" cy="-342" rx="46.23" ry="18"/>
<text text-anchor="middle" x="956.85" y="-336.95" font-family="Times New Roman,serif" font-size="14.00">BlockPos</text>
</g>
<!-- 148&#45;&gt;149 -->
<g id="edge16" class="edge">
<title>148&#45;&gt;149</title>
<path fill="none" stroke="black" d="M872.85,-342C881.16,-342 890.06,-342 898.83,-342"/>
<polygon fill="black" stroke="black" points="898.71,-345.5 908.71,-342 898.71,-338.5 898.71,-345.5"/>
</g>
<!-- 151 -->
<!-- name: &quot;varint&quot;, typeName: &quot;&quot;, id: 151, branchId: 0, recurseId: &#45;1, attributes: 512, notes: &quot;&quot; -->
<g id="node19" class="node">
<title>151</title>
<ellipse fill="none" stroke="black" cx="956.85" cy="-288" rx="32.41" ry="18"/>
<text text-anchor="middle" x="956.85" y="-282.95" font-family="Times New Roman,serif" font-size="14.00">varint</text>
</g>
<!-- 150&#45;&gt;151 -->
<g id="edge18" class="edge">
<title>150&#45;&gt;151</title>
<path fill="none" stroke="black" d="M867.81,-288C881.86,-288 898.15,-288 912.87,-288"/>
<polygon fill="black" stroke="black" points="912.75,-291.5 922.75,-288 912.75,-284.5 912.75,-291.5"/>
</g>
<!-- 153 -->
<!-- name: &quot;Position&quot;, typeName: &quot;BlockPos&quot;, id: 153, branchId: 0, recurseId: &#45;1, attributes: 256, notes: &quot;&quot; -->
<g id="node21" class="node">
<title>153</title>
<ellipse fill="none" stroke="black" cx="831.45" cy="-234" rx="41.12" ry="18"/>
<text text-anchor="middle" x="831.45" y="-228.95" font-family="Times New Roman,serif" font-size="14.00">Position</text>
</g>
<!-- 152&#45;&gt;153 -->
<g id="edge20" class="edge">
<title>152&#45;&gt;153</title>
<path fill="none" stroke="black" d="M698.5,-234C725.22,-234 754.39,-234 778.48,-234"/>
<polygon fill="black" stroke="black" points="778.36,-237.5 788.36,-234 778.36,-230.5 778.36,-237.5"/>
</g>
<!-- 155 -->
<!-- name: &quot;Facing&quot;, typeName: &quot;&quot;, id: 155, branchId: 0, recurseId: &#45;1, attributes: 0, notes: &quot;&quot; -->
<g id="node23" class="node">
<title>155</title>
<ellipse fill="none" stroke="black" cx="831.45" cy="-180" rx="36" ry="18"/>
<text text-anchor="middle" x="831.45" y="-174.95" font-family="Times New Roman,serif" font-size="14.00">Facing</text>
</g>
<!-- 152&#45;&gt;155 -->
<g id="edge22" class="edge">
<title>152&#45;&gt;155</title>
<path fill="none" stroke="black" d="M656.93,-224.47C693.6,-215.07 749.57,-200.73 787.97,-190.89"/>
<polygon fill="black" stroke="black" points="788.51,-194.36 797.33,-188.49 786.77,-187.58 788.51,-194.36"/>
</g>
<!-- 154 -->
<!-- name: &quot;BlockPos&quot;, typeName: &quot;&quot;, id: 154, branchId: 0, recurseId: &#45;1, attributes: 512, notes: &quot;&quot; -->
<g id="node22" class="node">
<title>154</title>
<ellipse fill="none" stroke="black" cx="956.85" cy="-234" rx="46.23" ry="18"/>
<text text-anchor="middle" x="956.85" y="-228.95" font-family="Times New Roman,serif" font-size="14.00">BlockPos</text>
</g>
<!-- 153&#45;&gt;154 -->
<g id="edge21" class="edge">
<title>153&#45;&gt;154</title>
<path fill="none" stroke="black" d="M872.85,-234C881.16,-234 890.06,-234 898.83,-234"/>
<polygon fill="black" stroke="black" points="898.71,-237.5 908.71,-234 898.71,-230.5 898.71,-237.5"/>
</g>
<!-- 156 -->
<!-- name: &quot;varint&quot;, typeName: &quot;&quot;, id: 156, branchId: 0, recurseId: &#45;1, attributes: 512, notes: &quot;&quot; -->
<g id="node24" class="node">
<title>156</title>
<ellipse fill="none" stroke="black" cx="956.85" cy="-180" rx="32.41" ry="18"/>
<text text-anchor="middle" x="956.85" y="-174.95" font-family="Times New Roman,serif" font-size="14.00">varint</text>
</g>
<!-- 155&#45;&gt;156 -->
<g id="edge23" class="edge">
<title>155&#45;&gt;156</title>
<path fill="none" stroke="black" d="M867.81,-180C881.86,-180 898.15,-180 912.87,-180"/>
<polygon fill="black" stroke="black" points="912.75,-183.5 922.75,-180 912.75,-176.5 912.75,-183.5"/>
</g>
<!-- 158 -->
<!-- name: &quot;Position&quot;, typeName: &quot;BlockPos&quot;, id: 158, branchId: 0, recurseId: &#45;1, attributes: 256, notes: &quot;&quot; -->
<g id="node26" class="node">
<title>158</title>
<ellipse fill="none" stroke="black" cx="831.45" cy="-126" rx="41.12" ry="18"/>
<text text-anchor="middle" x="831.45" y="-120.95" font-family="Times New Roman,serif" font-size="14.00">Position</text>
</g>
<!-- 157&#45;&gt;158 -->
<g id="edge25" class="edge">
<title>157&#45;&gt;158</title>
<path fill="none" stroke="black" d="M757.94,-126C765.11,-126 772.06,-126 778.63,-126"/>
<polygon fill="black" stroke="black" points="778.5,-129.5 788.5,-126 778.5,-122.5 778.5,-129.5"/>
</g>
<!-- 160 -->
<!-- name: &quot;Facing&quot;, typeName: &quot;&quot;, id: 160, branchId: 0, recurseId: &#45;1, attributes: 0, notes: &quot;&quot; -->
<g id="node28" class="node">
<title>160</title>
<ellipse fill="none" stroke="black" cx="831.45" cy="-72" rx="36" ry="18"/>
<text text-anchor="middle" x="831.45" y="-66.95" font-family="Times New Roman,serif" font-size="14.00">Facing</text>
</g>
<!-- 157&#45;&gt;160 -->
<g id="edge27" class="edge">
<title>157&#45;&gt;160</title>
<path fill="none" stroke="black" d="M666.77,-113.95C703.1,-104.64 752.96,-91.86 788.07,-82.86"/>
<polygon fill="black" stroke="black" points="788.63,-86.33 797.45,-80.46 786.89,-79.55 788.63,-86.33"/>
</g>
<!-- 159 -->
<!-- name: &quot;BlockPos&quot;, typeName: &quot;&quot;, id: 159, branchId: 0, recurseId: &#45;1, attributes: 512, notes: &quot;&quot; -->
<g id="node27" class="node">
<title>159</title>
<ellipse fill="none" stroke="black" cx="956.85" cy="-126" rx="46.23" ry="18"/>
<text text-anchor="middle" x="956.85" y="-120.95" font-family="Times New Roman,serif" font-size="14.00">BlockPos</text>
</g>
<!-- 158&#45;&gt;159 -->
<g id="edge26" class="edge">
<title>158&#45;&gt;159</title>
<path fill="none" stroke="black" d="M872.85,-126C881.16,-126 890.06,-126 898.83,-126"/>
<polygon fill="black" stroke="black" points="898.71,-129.5 908.71,-126 898.71,-122.5 898.71,-129.5"/>
</g>
<!-- 161 -->
<!-- name: &quot;varint&quot;, typeName: &quot;&quot;, id: 161, branchId: 0, recurseId: &#45;1, attributes: 512, notes: &quot;&quot; -->
<g id="node29" class="node">
<title>161</title>
<ellipse fill="none" stroke="black" cx="956.85" cy="-72" rx="32.41" ry="18"/>
<text text-anchor="middle" x="956.85" y="-66.95" font-family="Times New Roman,serif" font-size="14.00">varint</text>
</g>
<!-- 160&#45;&gt;161 -->
<g id="edge28" class="edge">
<title>160&#45;&gt;161</title>
<path fill="none" stroke="black" d="M867.81,-72C881.86,-72 898.15,-72 912.87,-72"/>
<polygon fill="black" stroke="black" points="912.75,-75.5 922.75,-72 912.75,-68.5 912.75,-75.5"/>
</g>
<!-- 163 -->
<!-- name: &quot;[No Data]&quot;, typeName: &quot;&quot;, id: 163, branchId: 0, recurseId: &#45;1, attributes: 512, notes: &quot;&quot; -->
<g id="node31" class="node">
<title>163</title>
<ellipse fill="none" stroke="black" cx="956.85" cy="-18" rx="48.28" ry="18"/>
<text text-anchor="middle" x="956.85" y="-12.95" font-family="Times New Roman,serif" font-size="14.00">[No Data]</text>
</g>
<!-- 162&#45;&gt;163 -->
<g id="edge30" class="edge">
<title>162&#45;&gt;163</title>
<path fill="none" stroke="black" d="M695.59,-38.91C756.99,-33.97 842.19,-27.13 898.14,-22.64"/>
<polygon fill="black" stroke="black" points="898.07,-26.15 907.76,-21.86 897.51,-19.18 898.07,-26.15"/>
</g>
</g>
</svg>
