<?xml version="1.0" encoding="UTF-8" standalone="no"?>
<!DOCTYPE svg PUBLIC "-//W3C//DTD SVG 1.1//EN"
 "http://www.w3.org/Graphics/SVG/1.1/DTD/svg11.dtd">
<!-- Generated by graphviz version 12.2.0 (20241103.1931)
 -->
<!-- Title: PlayStatusPacket Pages: 1 -->
<svg width="420pt" height="44pt"
 viewBox="0.00 0.00 419.84 44.00" xmlns="http://www.w3.org/2000/svg" xmlns:xlink="http://www.w3.org/1999/xlink">
<g id="graph0" class="graph" transform="scale(1 1) rotate(0) translate(4 40)">
<title>PlayStatusPacket</title>
<polygon fill="white" stroke="none" points="-4,4 -4,-40 415.84,-40 415.84,4 -4,4"/>
<!-- 0 -->
<!-- name: &quot;PlayStatusPacket&quot;, typeName: &quot;&quot;, id: 0, branchId: 2, recurseId: &#45;1, attributes: 0, notes: &quot;&quot; -->
<g id="node1" class="node">
<title>0</title>
<ellipse fill="none" stroke="black" cx="74.38" cy="-18" rx="74.38" ry="18"/>
<text text-anchor="middle" x="74.38" y="-12.95" font-family="Times New Roman,serif" font-size="14.00">PlayStatusPacket</text>
</g>
<!-- 1 -->
<!-- name: &quot;Status&quot;, typeName: &quot;&quot;, id: 1, branchId: 0, recurseId: &#45;1, attributes: 0, notes: &quot;&quot; -->
<g id="node2" class="node">
<title>1</title>
<ellipse fill="none" stroke="black" cx="218.2" cy="-18" rx="33.44" ry="18"/>
<text text-anchor="middle" x="218.2" y="-12.95" font-family="Times New Roman,serif" font-size="14.00">Status</text>
</g>
<!-- 0&#45;&gt;1 -->
<g id="edge1" class="edge">
<title>0&#45;&gt;1</title>
<path fill="none" stroke="black" d="M149.2,-18C157.33,-18 165.4,-18 173,-18"/>
<polygon fill="black" stroke="black" points="172.97,-21.5 182.97,-18 172.97,-14.5 172.97,-21.5"/>
</g>
<!-- 2 -->
<!-- name: &quot;big endian int&quot;, typeName: &quot;&quot;, id: 2, branchId: 0, recurseId: &#45;1, attributes: 512, notes: &quot;&quot; -->
<g id="node3" class="node">
<title>2</title>
<ellipse fill="none" stroke="black" cx="349.74" cy="-18" rx="62.1" ry="18"/>
<text text-anchor="middle" x="349.74" y="-12.95" font-family="Times New Roman,serif" font-size="14.00">big endian int</text>
</g>
<!-- 1&#45;&gt;2 -->
<g id="edge2" class="edge">
<title>1&#45;&gt;2</title>
<path fill="none" stroke="black" d="M251.89,-18C259.31,-18 267.48,-18 275.84,-18"/>
<polygon fill="black" stroke="black" points="275.78,-21.5 285.78,-18 275.78,-14.5 275.78,-21.5"/>
</g>
</g>
</svg>
