<?xml version="1.0" encoding="UTF-8" standalone="no"?>
<!DOCTYPE svg PUBLIC "-//W3C//DTD SVG 1.1//EN"
 "http://www.w3.org/Graphics/SVG/1.1/DTD/svg11.dtd">
<!-- Generated by graphviz version 2.46.1 (20210213.1702)
 -->
<!-- Title: PlayerFogPacket Pages: 1 -->
<svg width="764pt" height="98pt"
 viewBox="0.00 0.00 764.25 98.00" xmlns="http://www.w3.org/2000/svg" xmlns:xlink="http://www.w3.org/1999/xlink">
<g id="graph0" class="graph" transform="scale(1 1) rotate(0) translate(4 94)">
<title>PlayerFogPacket</title>
<polygon fill="white" stroke="transparent" points="-4,4 -4,-94 760.25,-94 760.25,4 -4,4"/>
<!-- 0 -->
<!-- name: &quot;PlayerFogPacket&quot;, typeName: &quot;&quot;, id: 0, branchId: 160, recurseId: &#45;1, attributes: 0, notes: &quot;&quot; -->
<g id="node1" class="node">
<title>0</title>
<ellipse fill="none" stroke="black" cx="72.14" cy="-45" rx="72.29" ry="18"/>
<text text-anchor="middle" x="72.14" y="-41.3" font-family="Times New Roman,serif" font-size="14.00">PlayerFogPacket</text>
</g>
<!-- 1 -->
<!-- name: &quot;Fog Stack&quot;, typeName: &quot;&quot;, id: 1, branchId: 0, recurseId: &#45;1, attributes: 8, notes: &quot;Stack of fog effects created by /fog command&quot; -->
<g id="node2" class="node">
<title>1</title>
<ellipse fill="none" stroke="black" cx="228.38" cy="-45" rx="48.19" ry="18"/>
<text text-anchor="middle" x="228.38" y="-41.3" font-family="Times New Roman,serif" font-size="14.00">Fog Stack</text>
</g>
<!-- 0&#45;&gt;1 -->
<g id="edge1" class="edge">
<title>0&#45;&gt;1</title>
<path fill="none" stroke="black" d="M144.39,-45C153.04,-45 161.78,-45 170.18,-45"/>
<polygon fill="black" stroke="black" points="170.23,-48.5 180.23,-45 170.23,-41.5 170.23,-48.5"/>
</g>
<!-- 2 -->
<!-- name: &quot;Array Size&quot;, typeName: &quot;&quot;, id: 2, branchId: 0, recurseId: &#45;1, attributes: 0, notes: &quot;&quot; -->
<g id="node3" class="node">
<title>2</title>
<ellipse fill="none" stroke="black" cx="538.91" cy="-72" rx="48.99" ry="18"/>
<text text-anchor="middle" x="538.91" y="-68.3" font-family="Times New Roman,serif" font-size="14.00">Array Size</text>
</g>
<!-- 1&#45;&gt;2 -->
<g id="edge2" class="edge">
<title>1&#45;&gt;2</title>
<path fill="none" stroke="black" d="M275.57,-49.04C330.44,-53.84 421.97,-61.85 481.12,-67.03"/>
<polygon fill="black" stroke="black" points="481.14,-70.54 491.41,-67.93 481.75,-63.57 481.14,-70.54"/>
</g>
<!-- 4 -->
<!-- name: &quot;example element&quot;, typeName: &quot;&quot;, id: 4, branchId: 0, recurseId: &#45;1, attributes: 16, notes: &quot;&quot; -->
<g id="node5" class="node">
<title>4</title>
<ellipse fill="none" stroke="black" stroke-dasharray="1,5" cx="382.67" cy="-22" rx="70.39" ry="18"/>
<text text-anchor="middle" x="382.67" y="-18.3" font-family="Times New Roman,serif" font-size="14.00">example element</text>
</g>
<!-- 1&#45;&gt;4 -->
<g id="edge4" class="edge">
<title>1&#45;&gt;4</title>
<path fill="none" stroke="black" d="M273.43,-38.35C285.47,-36.53 298.82,-34.51 311.92,-32.53"/>
<polygon fill="black" stroke="black" points="312.49,-35.99 321.86,-31.03 311.45,-29.07 312.49,-35.99"/>
</g>
<!-- 3 -->
<!-- name: &quot;unsigned varint&quot;, typeName: &quot;&quot;, id: 3, branchId: 0, recurseId: &#45;1, attributes: 512, notes: &quot;&quot; -->
<g id="node4" class="node">
<title>3</title>
<ellipse fill="none" stroke="black" cx="690.6" cy="-72" rx="65.79" ry="18"/>
<text text-anchor="middle" x="690.6" y="-68.3" font-family="Times New Roman,serif" font-size="14.00">unsigned varint</text>
</g>
<!-- 2&#45;&gt;3 -->
<g id="edge3" class="edge">
<title>2&#45;&gt;3</title>
<path fill="none" stroke="black" d="M587.69,-72C596.27,-72 605.39,-72 614.52,-72"/>
<polygon fill="black" stroke="black" points="614.81,-75.5 624.81,-72 614.81,-68.5 614.81,-75.5"/>
</g>
<!-- 5 -->
<!-- name: &quot;Fog Effect&quot;, typeName: &quot;&quot;, id: 5, branchId: 0, recurseId: &#45;1, attributes: 0, notes: &quot;Fog effect string from /fog command&quot; -->
<g id="node6" class="node">
<title>5</title>
<ellipse fill="none" stroke="black" cx="538.91" cy="-18" rx="50.09" ry="18"/>
<text text-anchor="middle" x="538.91" y="-14.3" font-family="Times New Roman,serif" font-size="14.00">Fog Effect</text>
</g>
<!-- 4&#45;&gt;5 -->
<g id="edge5" class="edge">
<title>4&#45;&gt;5</title>
<path fill="none" stroke="black" d="M452.67,-20.21C461.34,-19.99 470.15,-19.76 478.65,-19.54"/>
<polygon fill="black" stroke="black" points="478.93,-23.03 488.83,-19.27 478.74,-16.03 478.93,-23.03"/>
</g>
<!-- 6 -->
<!-- name: &quot;string&quot;, typeName: &quot;&quot;, id: 6, branchId: 0, recurseId: &#45;1, attributes: 512, notes: &quot;&quot; -->
<g id="node7" class="node">
<title>6</title>
<ellipse fill="none" stroke="black" cx="690.6" cy="-18" rx="30.59" ry="18"/>
<text text-anchor="middle" x="690.6" y="-14.3" font-family="Times New Roman,serif" font-size="14.00">string</text>
</g>
<!-- 5&#45;&gt;6 -->
<g id="edge6" class="edge">
<title>5&#45;&gt;6</title>
<path fill="none" stroke="black" d="M589.34,-18C608.94,-18 631.17,-18 649.71,-18"/>
<polygon fill="black" stroke="black" points="649.88,-21.5 659.88,-18 649.88,-14.5 649.88,-21.5"/>
</g>
</g>
</svg>
