<?xml version="1.0" encoding="UTF-8" standalone="no"?>
<!DOCTYPE svg PUBLIC "-//W3C//DTD SVG 1.1//EN"
 "http://www.w3.org/Graphics/SVG/1.1/DTD/svg11.dtd">
<!-- Generated by graphviz version 14.1.1 (20251213.1925)
 -->
<!-- Title: PlayerWaxedOrUnwaxedCopper Pages: 1 -->
<svg width="763pt" height="44pt"
 viewBox="0.00 0.00 763.00 44.00" xmlns="http://www.w3.org/2000/svg" xmlns:xlink="http://www.w3.org/1999/xlink">
<g id="graph0" class="graph" transform="scale(1 1) rotate(0) translate(4 40)">
<title>PlayerWaxedOrUnwaxedCopper</title>
<polygon fill="white" stroke="none" points="-4,4 -4,-40 758.75,-40 758.75,4 -4,4"/>
<!-- 0 -->
<!-- name: &quot;PlayerWaxedOrUnwaxedCopper&quot;, typeName: &quot;&quot;, id: 0, branchId: 0, recurseId: &#45;1, attributes: 0, notes: &quot;&quot; -->
<g id="node1" class="node">
<title>0</title>
<ellipse fill="none" stroke="black" cx="132.22" cy="-18" rx="132.22" ry="18"/>
<text xml:space="preserve" text-anchor="middle" x="132.22" y="-12.95" font-family="Times New Roman,serif" font-size="14.00">PlayerWaxedOrUnwaxedCopper</text>
</g>
<!-- 1 -->
<!-- name: &quot;Player Waxed or Unwaxed Copper Block ID&quot;, typeName: &quot;&quot;, id: 1, branchId: 0, recurseId: &#45;1, attributes: 0, notes: &quot;&quot; -->
<g id="node2" class="node">
<title>1</title>
<ellipse fill="none" stroke="black" cx="477.18" cy="-18" rx="176.74" ry="18"/>
<text xml:space="preserve" text-anchor="middle" x="477.18" y="-12.95" font-family="Times New Roman,serif" font-size="14.00">Player Waxed or Unwaxed Copper Block ID</text>
</g>
<!-- 0&#45;&gt;1 -->
<g id="edge1" class="edge">
<title>0&#45;&gt;1</title>
<path fill="none" stroke="black" d="M264.83,-18C272.67,-18 280.62,-18 288.61,-18"/>
<polygon fill="black" stroke="black" points="288.43,-21.5 298.43,-18 288.43,-14.5 288.43,-21.5"/>
</g>
<!-- 2 -->
<!-- name: &quot;varint&quot;, typeName: &quot;&quot;, id: 2, branchId: 0, recurseId: &#45;1, attributes: 512, notes: &quot;&quot; -->
<g id="node3" class="node">
<title>2</title>
<ellipse fill="none" stroke="black" cx="722.34" cy="-18" rx="32.41" ry="18"/>
<text xml:space="preserve" text-anchor="middle" x="722.34" y="-12.95" font-family="Times New Roman,serif" font-size="14.00">varint</text>
</g>
<!-- 1&#45;&gt;2 -->
<g id="edge2" class="edge">
<title>1&#45;&gt;2</title>
<path fill="none" stroke="black" d="M654.25,-18C662.73,-18 670.76,-18 678.12,-18"/>
<polygon fill="black" stroke="black" points="677.96,-21.5 687.96,-18 677.96,-14.5 677.96,-21.5"/>
</g>
</g>
</svg>
