<?xml version="1.0" encoding="UTF-8" standalone="no"?>
<!DOCTYPE svg PUBLIC "-//W3C//DTD SVG 1.1//EN"
 "http://www.w3.org/Graphics/SVG/1.1/DTD/svg11.dtd">
<!-- Generated by graphviz version 12.2.0 (20241103.1931)
 -->
<!-- Title: PlayerHotbarPacket Pages: 1 -->
<svg width="547pt" height="152pt"
 viewBox="0.00 0.00 546.77 152.00" xmlns="http://www.w3.org/2000/svg" xmlns:xlink="http://www.w3.org/1999/xlink">
<g id="graph0" class="graph" transform="scale(1 1) rotate(0) translate(4 148)">
<title>PlayerHotbarPacket</title>
<polygon fill="white" stroke="none" points="-4,4 -4,-148 542.77,-148 542.77,4 -4,4"/>
<!-- 0 -->
<!-- name: &quot;PlayerHotbarPacket&quot;, typeName: &quot;&quot;, id: 0, branchId: 48, recurseId: &#45;1, attributes: 0, notes: &quot;&quot; -->
<g id="node1" class="node">
<title>0</title>
<ellipse fill="none" stroke="black" cx="84.62" cy="-72" rx="84.62" ry="18"/>
<text text-anchor="middle" x="84.62" y="-66.95" font-family="Times New Roman,serif" font-size="14.00">PlayerHotbarPacket</text>
</g>
<!-- 1 -->
<!-- name: &quot;Selected Slot&quot;, typeName: &quot;&quot;, id: 1, branchId: 0, recurseId: &#45;1, attributes: 0, notes: &quot;&quot; -->
<g id="node2" class="node">
<title>1</title>
<ellipse fill="none" stroke="black" cx="285.76" cy="-126" rx="59.54" ry="18"/>
<text text-anchor="middle" x="285.76" y="-120.95" font-family="Times New Roman,serif" font-size="14.00">Selected Slot</text>
</g>
<!-- 0&#45;&gt;1 -->
<g id="edge1" class="edge">
<title>0&#45;&gt;1</title>
<path fill="none" stroke="black" d="M138.2,-86.26C166.28,-93.87 200.83,-103.24 229.32,-110.97"/>
<polygon fill="black" stroke="black" points="228.3,-114.31 238.86,-113.55 230.13,-107.56 228.3,-114.31"/>
</g>
<!-- 3 -->
<!-- name: &quot;Container ID&quot;, typeName: &quot;&quot;, id: 3, branchId: 0, recurseId: &#45;1, attributes: 0, notes: &quot;&quot; -->
<g id="node4" class="node">
<title>3</title>
<ellipse fill="none" stroke="black" cx="285.76" cy="-72" rx="59.54" ry="18"/>
<text text-anchor="middle" x="285.76" y="-66.95" font-family="Times New Roman,serif" font-size="14.00">Container ID</text>
</g>
<!-- 0&#45;&gt;3 -->
<g id="edge3" class="edge">
<title>0&#45;&gt;3</title>
<path fill="none" stroke="black" d="M169.5,-72C184.43,-72 199.84,-72 214.35,-72"/>
<polygon fill="black" stroke="black" points="214.25,-75.5 224.25,-72 214.25,-68.5 214.25,-75.5"/>
</g>
<!-- 5 -->
<!-- name: &quot;Should select slot?&quot;, typeName: &quot;&quot;, id: 5, branchId: 0, recurseId: &#45;1, attributes: 0, notes: &quot;&quot; -->
<g id="node6" class="node">
<title>5</title>
<ellipse fill="none" stroke="black" cx="285.76" cy="-18" rx="80.52" ry="18"/>
<text text-anchor="middle" x="285.76" y="-12.95" font-family="Times New Roman,serif" font-size="14.00">Should select slot?</text>
</g>
<!-- 0&#45;&gt;5 -->
<g id="edge5" class="edge">
<title>0&#45;&gt;5</title>
<path fill="none" stroke="black" d="M138.2,-57.74C164.03,-50.74 195.33,-42.25 222.36,-34.92"/>
<polygon fill="black" stroke="black" points="223.07,-38.36 231.8,-32.36 221.24,-31.6 223.07,-38.36"/>
</g>
<!-- 2 -->
<!-- name: &quot;unsigned varint&quot;, typeName: &quot;&quot;, id: 2, branchId: 0, recurseId: &#45;1, attributes: 512, notes: &quot;&quot; -->
<g id="node3" class="node">
<title>2</title>
<ellipse fill="none" stroke="black" cx="470.53" cy="-126" rx="68.24" ry="18"/>
<text text-anchor="middle" x="470.53" y="-120.95" font-family="Times New Roman,serif" font-size="14.00">unsigned varint</text>
</g>
<!-- 1&#45;&gt;2 -->
<g id="edge2" class="edge">
<title>1&#45;&gt;2</title>
<path fill="none" stroke="black" d="M345.6,-126C359.9,-126 375.43,-126 390.5,-126"/>
<polygon fill="black" stroke="black" points="390.39,-129.5 400.39,-126 390.39,-122.5 390.39,-129.5"/>
</g>
<!-- 4 -->
<!-- name: &quot;byte&quot;, typeName: &quot;&quot;, id: 4, branchId: 0, recurseId: &#45;1, attributes: 512, notes: &quot;&quot; -->
<g id="node5" class="node">
<title>4</title>
<ellipse fill="none" stroke="black" cx="470.53" cy="-72" rx="27" ry="18"/>
<text text-anchor="middle" x="470.53" y="-66.95" font-family="Times New Roman,serif" font-size="14.00">byte</text>
</g>
<!-- 3&#45;&gt;4 -->
<g id="edge4" class="edge">
<title>3&#45;&gt;4</title>
<path fill="none" stroke="black" d="M345.6,-72C373.93,-72 407.08,-72 431.95,-72"/>
<polygon fill="black" stroke="black" points="431.93,-75.5 441.93,-72 431.93,-68.5 431.93,-75.5"/>
</g>
<!-- 6 -->
<!-- name: &quot;bool&quot;, typeName: &quot;&quot;, id: 6, branchId: 0, recurseId: &#45;1, attributes: 512, notes: &quot;&quot; -->
<g id="node7" class="node">
<title>6</title>
<ellipse fill="none" stroke="black" cx="470.53" cy="-18" rx="27.3" ry="18"/>
<text text-anchor="middle" x="470.53" y="-12.95" font-family="Times New Roman,serif" font-size="14.00">bool</text>
</g>
<!-- 5&#45;&gt;6 -->
<g id="edge6" class="edge">
<title>5&#45;&gt;6</title>
<path fill="none" stroke="black" d="M366.66,-18C389.3,-18 412.9,-18 431.77,-18"/>
<polygon fill="black" stroke="black" points="431.64,-21.5 441.64,-18 431.64,-14.5 431.64,-21.5"/>
</g>
</g>
</svg>
