<?xml version="1.0" encoding="UTF-8" standalone="no"?>
<!DOCTYPE svg PUBLIC "-//W3C//DTD SVG 1.1//EN"
 "http://www.w3.org/Graphics/SVG/1.1/DTD/svg11.dtd">
<!-- Generated by graphviz version 11.0.0 (20240428.1522)
 -->
<!-- Title: PlayerUpdateEntityOverridesPacket Pages: 1 -->
<svg width="1109pt" height="314pt"
 viewBox="0.00 0.00 1109.35 314.00" xmlns="http://www.w3.org/2000/svg" xmlns:xlink="http://www.w3.org/1999/xlink">
<g id="graph0" class="graph" transform="scale(1 1) rotate(0) translate(4 310)">
<title>PlayerUpdateEntityOverridesPacket</title>
<polygon fill="white" stroke="none" points="-4,4 -4,-310 1105.35,-310 1105.35,4 -4,4"/>
<!-- 0 -->
<!-- name: &quot;PlayerUpdateEntityOverridesPacket&quot;, typeName: &quot;&quot;, id: 0, branchId: 325, recurseId: &#45;1, attributes: 0, notes: &quot;&quot; -->
<g id="node1" class="node">
<title>0</title>
<ellipse fill="none" stroke="black" cx="143.38" cy="-203" rx="143.38" ry="18"/>
<text text-anchor="middle" x="143.38" y="-197.57" font-family="Times New Roman,serif" font-size="14.00">PlayerUpdateEntityOverridesPacket</text>
</g>
<!-- 1 -->
<!-- name: &quot;Target ID&quot;, typeName: &quot;ActorUniqueID&quot;, id: 1, branchId: 0, recurseId: &#45;1, attributes: 256, notes: &quot;&quot; -->
<g id="node2" class="node">
<title>1</title>
<ellipse fill="none" stroke="black" cx="411.76" cy="-284" rx="46.57" ry="18"/>
<text text-anchor="middle" x="411.76" y="-278.57" font-family="Times New Roman,serif" font-size="14.00">Target ID</text>
</g>
<!-- 0&#45;&gt;1 -->
<g id="edge1" class="edge">
<title>0&#45;&gt;1</title>
<path fill="none" stroke="black" d="M200.22,-219.98C248.56,-234.68 317.71,-255.71 363.39,-269.6"/>
<polygon fill="black" stroke="black" points="362.15,-272.88 372.74,-272.44 364.19,-266.18 362.15,-272.88"/>
</g>
<!-- 3 -->
<!-- name: &quot;Property Index&quot;, typeName: &quot;&quot;, id: 3, branchId: 0, recurseId: &#45;1, attributes: 0, notes: &quot;&quot; -->
<g id="node4" class="node">
<title>3</title>
<ellipse fill="none" stroke="black" cx="862.76" cy="-230" rx="66.53" ry="18"/>
<text text-anchor="middle" x="862.76" y="-224.57" font-family="Times New Roman,serif" font-size="14.00">Property Index</text>
</g>
<!-- 0&#45;&gt;3 -->
<g id="edge3" class="edge">
<title>0&#45;&gt;3</title>
<path fill="none" stroke="black" d="M281.42,-208.16C431.13,-213.79 665.57,-222.62 785.5,-227.13"/>
<polygon fill="black" stroke="black" points="785.1,-230.62 795.23,-227.5 785.37,-223.62 785.1,-230.62"/>
</g>
<!-- 5 -->
<!-- name: &quot;Update Type&quot;, typeName: &quot;&quot;, id: 5, branchId: 0, recurseId: &#45;1, attributes: 0, notes: &quot;&quot; -->
<g id="node6" class="node">
<title>5</title>
<ellipse fill="none" stroke="black" cx="411.76" cy="-180" rx="59.55" ry="18"/>
<text text-anchor="middle" x="411.76" y="-174.57" font-family="Times New Roman,serif" font-size="14.00">Update Type</text>
</g>
<!-- 0&#45;&gt;5 -->
<g id="edge5" class="edge">
<title>0&#45;&gt;5</title>
<path fill="none" stroke="black" d="M262.77,-192.78C290.12,-190.42 318.31,-187.98 342.65,-185.88"/>
<polygon fill="black" stroke="black" points="342.74,-189.39 352.4,-185.04 342.14,-182.41 342.74,-189.39"/>
</g>
<!-- 7 -->
<!-- name: &quot;Dependency on &#39;Value Type&#39;&quot;, typeName: &quot;&quot;, id: 7, branchId: 0, recurseId: &#45;1, attributes: 2, notes: &quot;&quot; -->
<g id="node8" class="node">
<title>7</title>
<polygon fill="none" stroke="black" points="494.76,-144 322.76,-144 322.76,-108 500.76,-108 500.76,-138 494.76,-144"/>
<polyline fill="none" stroke="black" points="494.76,-144 494.76,-138"/>
<polyline fill="none" stroke="black" points="500.76,-138 494.76,-138"/>
<text text-anchor="middle" x="411.76" y="-120.58" font-family="Times New Roman,serif" font-size="14.00">Dependency on &#39;Value Type&#39;</text>
</g>
<!-- 0&#45;&gt;7 -->
<g id="edge7" class="edge">
<title>0&#45;&gt;7</title>
<path fill="none" stroke="black" d="M202.51,-186.2C241.8,-174.84 294.03,-159.74 336.35,-147.51"/>
<polygon fill="black" stroke="black" points="337.07,-150.94 345.71,-144.8 335.13,-144.22 337.07,-150.94"/>
</g>
<!-- 2 -->
<!-- name: &quot;ActorUniqueID&quot;, typeName: &quot;&quot;, id: 2, branchId: 0, recurseId: &#45;1, attributes: 512, notes: &quot;&quot; -->
<g id="node3" class="node">
<title>2</title>
<ellipse fill="none" stroke="black" cx="1033.32" cy="-288" rx="68.03" ry="18"/>
<text text-anchor="middle" x="1033.32" y="-282.57" font-family="Times New Roman,serif" font-size="14.00">ActorUniqueID</text>
</g>
<!-- 1&#45;&gt;2 -->
<g id="edge2" class="edge">
<title>1&#45;&gt;2</title>
<path fill="none" stroke="black" d="M458.82,-284.3C563.9,-284.98 822.32,-286.64 953.37,-287.49"/>
<polygon fill="black" stroke="black" points="953.35,-290.99 963.37,-287.55 953.39,-283.99 953.35,-290.99"/>
</g>
<!-- 4 -->
<!-- name: &quot;unsigned varint&quot;, typeName: &quot;&quot;, id: 4, branchId: 0, recurseId: &#45;1, attributes: 512, notes: &quot;&quot; -->
<g id="node5" class="node">
<title>4</title>
<ellipse fill="none" stroke="black" cx="1033.32" cy="-234" rx="66.53" ry="18"/>
<text text-anchor="middle" x="1033.32" y="-228.57" font-family="Times New Roman,serif" font-size="14.00">unsigned varint</text>
</g>
<!-- 3&#45;&gt;4 -->
<g id="edge4" class="edge">
<title>3&#45;&gt;4</title>
<path fill="none" stroke="black" d="M929.41,-231.56C937.89,-231.76 946.64,-231.97 955.29,-232.17"/>
<polygon fill="black" stroke="black" points="954.97,-235.67 965.05,-232.4 955.14,-228.67 954.97,-235.67"/>
</g>
<!-- 6 -->
<!-- name: &quot;byte&quot;, typeName: &quot;&quot;, id: 6, branchId: 0, recurseId: &#45;1, attributes: 512, notes: &quot;&quot; -->
<g id="node7" class="node">
<title>6</title>
<ellipse fill="none" stroke="black" cx="1033.32" cy="-180" rx="27" ry="18"/>
<text text-anchor="middle" x="1033.32" y="-174.57" font-family="Times New Roman,serif" font-size="14.00">byte</text>
</g>
<!-- 5&#45;&gt;6 -->
<g id="edge6" class="edge">
<title>5&#45;&gt;6</title>
<path fill="none" stroke="black" d="M471.6,-180C597.56,-180 890.27,-180 994.57,-180"/>
<polygon fill="black" stroke="black" points="994.54,-183.5 1004.54,-180 994.54,-176.5 994.54,-183.5"/>
</g>
<!-- 8 -->
<!-- name: &quot;Set Int Override&quot;, typeName: &quot;&quot;, id: 8, branchId: 0, recurseId: &#45;1, attributes: 4, notes: &quot;&quot; -->
<g id="node9" class="node">
<title>8</title>
<polygon fill="none" stroke="black" points="648.49,-144 549.46,-126 648.49,-108 747.52,-126 648.49,-144"/>
<text text-anchor="middle" x="648.49" y="-120.58" font-family="Times New Roman,serif" font-size="14.00">Set Int Override</text>
</g>
<!-- 7&#45;&gt;8 -->
<g id="edge8" class="edge">
<title>7&#45;&gt;8</title>
<path fill="none" stroke="black" d="M501.16,-126C512.37,-126 523.96,-126 535.47,-126"/>
<polygon fill="black" stroke="black" points="535.44,-129.5 545.44,-126 535.44,-122.5 535.44,-129.5"/>
</g>
<!-- 11 -->
<!-- name: &quot;Set Float Override&quot;, typeName: &quot;&quot;, id: 11, branchId: 1, recurseId: &#45;1, attributes: 4, notes: &quot;&quot; -->
<g id="node12" class="node">
<title>11</title>
<polygon fill="none" stroke="black" points="648.49,-90 536.76,-72 648.49,-54 760.22,-72 648.49,-90"/>
<text text-anchor="middle" x="648.49" y="-66.58" font-family="Times New Roman,serif" font-size="14.00">Set Float Override</text>
</g>
<!-- 7&#45;&gt;11 -->
<g id="edge11" class="edge">
<title>7&#45;&gt;11</title>
<path fill="none" stroke="black" d="M492.88,-107.57C524.8,-100.23 560.81,-91.94 590.05,-85.21"/>
<polygon fill="black" stroke="black" points="590.46,-88.71 599.42,-83.06 588.89,-81.89 590.46,-88.71"/>
</g>
<!-- 14 -->
<!-- name: &quot;Default&quot;, typeName: &quot;&quot;, id: 14, branchId: 2, recurseId: &#45;1, attributes: 4, notes: &quot;&quot; -->
<g id="node15" class="node">
<title>14</title>
<polygon fill="none" stroke="black" points="648.49,-36 596.03,-18 648.49,0 700.95,-18 648.49,-36"/>
<text text-anchor="middle" x="648.49" y="-12.58" font-family="Times New Roman,serif" font-size="14.00">Default</text>
</g>
<!-- 7&#45;&gt;14 -->
<g id="edge14" class="edge">
<title>7&#45;&gt;14</title>
<path fill="none" stroke="black" d="M435.62,-107.62C459.52,-89.25 498.77,-61.46 536.76,-45 556.73,-36.34 579.99,-30.14 600.02,-25.88"/>
<polygon fill="black" stroke="black" points="600.49,-29.36 609.6,-23.95 599.1,-22.5 600.49,-29.36"/>
</g>
<!-- 9 -->
<!-- name: &quot;Int Value&quot;, typeName: &quot;&quot;, id: 9, branchId: 0, recurseId: &#45;1, attributes: 0, notes: &quot;&quot; -->
<g id="node10" class="node">
<title>9</title>
<ellipse fill="none" stroke="black" cx="862.76" cy="-126" rx="44.08" ry="18"/>
<text text-anchor="middle" x="862.76" y="-120.58" font-family="Times New Roman,serif" font-size="14.00">Int Value</text>
</g>
<!-- 8&#45;&gt;9 -->
<g id="edge9" class="edge">
<title>8&#45;&gt;9</title>
<path fill="none" stroke="black" d="M750.03,-126C769.72,-126 789.67,-126 807.15,-126"/>
<polygon fill="black" stroke="black" points="806.74,-129.5 816.74,-126 806.74,-122.5 806.74,-129.5"/>
</g>
<!-- 10 -->
<!-- name: &quot;int&quot;, typeName: &quot;&quot;, id: 10, branchId: 0, recurseId: &#45;1, attributes: 512, notes: &quot;&quot; -->
<g id="node11" class="node">
<title>10</title>
<ellipse fill="none" stroke="black" cx="1033.32" cy="-126" rx="27" ry="18"/>
<text text-anchor="middle" x="1033.32" y="-120.58" font-family="Times New Roman,serif" font-size="14.00">int</text>
</g>
<!-- 9&#45;&gt;10 -->
<g id="edge10" class="edge">
<title>9&#45;&gt;10</title>
<path fill="none" stroke="black" d="M907.17,-126C934.23,-126 968.73,-126 994.64,-126"/>
<polygon fill="black" stroke="black" points="994.37,-129.5 1004.37,-126 994.37,-122.5 994.37,-129.5"/>
</g>
<!-- 12 -->
<!-- name: &quot;Float Value&quot;, typeName: &quot;&quot;, id: 12, branchId: 0, recurseId: &#45;1, attributes: 0, notes: &quot;&quot; -->
<g id="node13" class="node">
<title>12</title>
<ellipse fill="none" stroke="black" cx="862.76" cy="-72" rx="53.06" ry="18"/>
<text text-anchor="middle" x="862.76" y="-66.58" font-family="Times New Roman,serif" font-size="14.00">Float Value</text>
</g>
<!-- 11&#45;&gt;12 -->
<g id="edge12" class="edge">
<title>11&#45;&gt;12</title>
<path fill="none" stroke="black" d="M763.08,-72C775.08,-72 786.95,-72 798.07,-72"/>
<polygon fill="black" stroke="black" points="797.86,-75.5 807.86,-72 797.86,-68.5 797.86,-75.5"/>
</g>
<!-- 13 -->
<!-- name: &quot;float&quot;, typeName: &quot;&quot;, id: 13, branchId: 0, recurseId: &#45;1, attributes: 512, notes: &quot;&quot; -->
<g id="node14" class="node">
<title>13</title>
<ellipse fill="none" stroke="black" cx="1033.32" cy="-72" rx="27.11" ry="18"/>
<text text-anchor="middle" x="1033.32" y="-66.58" font-family="Times New Roman,serif" font-size="14.00">float</text>
</g>
<!-- 12&#45;&gt;13 -->
<g id="edge13" class="edge">
<title>12&#45;&gt;13</title>
<path fill="none" stroke="black" d="M916.17,-72C941.51,-72 971.37,-72 994.47,-72"/>
<polygon fill="black" stroke="black" points="994.36,-75.5 1004.36,-72 994.36,-68.5 994.36,-75.5"/>
</g>
<!-- 15 -->
<!-- name: &quot;[No Data]&quot;, typeName: &quot;&quot;, id: 15, branchId: 0, recurseId: &#45;1, attributes: 512, notes: &quot;&quot; -->
<g id="node16" class="node">
<title>15</title>
<ellipse fill="none" stroke="black" cx="1033.32" cy="-18" rx="47.57" ry="18"/>
<text text-anchor="middle" x="1033.32" y="-12.58" font-family="Times New Roman,serif" font-size="14.00">[No Data]</text>
</g>
<!-- 14&#45;&gt;15 -->
<g id="edge15" class="edge">
<title>14&#45;&gt;15</title>
<path fill="none" stroke="black" d="M702.32,-18C773.58,-18 900.07,-18 974.03,-18"/>
<polygon fill="black" stroke="black" points="973.92,-21.5 983.92,-18 973.92,-14.5 973.92,-21.5"/>
</g>
</g>
</svg>
