<?xml version="1.0" encoding="UTF-8" standalone="no"?>
<!DOCTYPE svg PUBLIC "-//W3C//DTD SVG 1.1//EN"
 "http://www.w3.org/Graphics/SVG/1.1/DTD/svg11.dtd">
<!-- Generated by graphviz version 14.1.1 (20251213.1925)
 -->
<!-- Title: PortalUsed Pages: 1 -->
<svg width="433pt" height="98pt"
 viewBox="0.00 0.00 433.00 98.00" xmlns="http://www.w3.org/2000/svg" xmlns:xlink="http://www.w3.org/1999/xlink">
<g id="graph0" class="graph" transform="scale(1 1) rotate(0) translate(4 94)">
<title>PortalUsed</title>
<polygon fill="white" stroke="none" points="-4,4 -4,-94 429.15,-94 429.15,4 -4,4"/>
<!-- 0 -->
<!-- name: &quot;PortalUsed&quot;, typeName: &quot;&quot;, id: 0, branchId: 0, recurseId: &#45;1, attributes: 0, notes: &quot;&quot; -->
<g id="node1" class="node">
<title>0</title>
<ellipse fill="none" stroke="black" cx="51.86" cy="-45" rx="51.86" ry="18"/>
<text xml:space="preserve" text-anchor="middle" x="51.86" y="-39.95" font-family="Times New Roman,serif" font-size="14.00">PortalUsed</text>
</g>
<!-- 1 -->
<!-- name: &quot;Source Dimension ID&quot;, typeName: &quot;&quot;, id: 1, branchId: 0, recurseId: &#45;1, attributes: 0, notes: &quot;Currently supported: (0 &#45;&gt; Overworld, 1 &#45;&gt; Nether, 2 &#45;&gt; The End, 3 &#45;&gt; Undefined)&quot; -->
<g id="node2" class="node">
<title>1</title>
<ellipse fill="none" stroke="black" cx="232.02" cy="-72" rx="92.3" ry="18"/>
<text xml:space="preserve" text-anchor="middle" x="232.02" y="-66.95" font-family="Times New Roman,serif" font-size="14.00">Source Dimension ID</text>
</g>
<!-- 0&#45;&gt;1 -->
<g id="edge1" class="edge">
<title>0&#45;&gt;1</title>
<path fill="none" stroke="black" d="M100.14,-52.16C114.55,-54.35 130.84,-56.82 146.91,-59.25"/>
<polygon fill="black" stroke="black" points="146.08,-62.67 156.49,-60.7 147.12,-55.75 146.08,-62.67"/>
</g>
<!-- 3 -->
<!-- name: &quot;Target Dimension ID&quot;, typeName: &quot;&quot;, id: 3, branchId: 0, recurseId: &#45;1, attributes: 0, notes: &quot;Currently supported: (0 &#45;&gt; Overworld, 1 &#45;&gt; Nether, 2 &#45;&gt; The End, 3 &#45;&gt; Undefined)&quot; -->
<g id="node4" class="node">
<title>3</title>
<ellipse fill="none" stroke="black" cx="232.02" cy="-18" rx="90.25" ry="18"/>
<text xml:space="preserve" text-anchor="middle" x="232.02" y="-12.95" font-family="Times New Roman,serif" font-size="14.00">Target Dimension ID</text>
</g>
<!-- 0&#45;&gt;3 -->
<g id="edge3" class="edge">
<title>0&#45;&gt;3</title>
<path fill="none" stroke="black" d="M100.14,-37.84C114.8,-35.61 131.41,-33.1 147.76,-30.62"/>
<polygon fill="black" stroke="black" points="148.15,-34.1 157.51,-29.14 147.1,-27.18 148.15,-34.1"/>
</g>
<!-- 2 -->
<!-- name: &quot;varint&quot;, typeName: &quot;&quot;, id: 2, branchId: 0, recurseId: &#45;1, attributes: 512, notes: &quot;Currently supported: (0 &#45;&gt; Overworld, 1 &#45;&gt; Nether, 2 &#45;&gt; The End, 3 &#45;&gt; Undefined)&quot; -->
<g id="node3" class="node">
<title>2</title>
<ellipse fill="none" stroke="black" cx="392.73" cy="-72" rx="32.41" ry="18"/>
<text xml:space="preserve" text-anchor="middle" x="392.73" y="-66.95" font-family="Times New Roman,serif" font-size="14.00">varint</text>
</g>
<!-- 1&#45;&gt;2 -->
<g id="edge2" class="edge">
<title>1&#45;&gt;2</title>
<path fill="none" stroke="black" d="M324.43,-72C332.75,-72 340.89,-72 348.47,-72"/>
<polygon fill="black" stroke="black" points="348.35,-75.5 358.35,-72 348.35,-68.5 348.35,-75.5"/>
</g>
<!-- 4 -->
<!-- name: &quot;varint&quot;, typeName: &quot;&quot;, id: 4, branchId: 0, recurseId: &#45;1, attributes: 512, notes: &quot;Currently supported: (0 &#45;&gt; Overworld, 1 &#45;&gt; Nether, 2 &#45;&gt; The End, 3 &#45;&gt; Undefined)&quot; -->
<g id="node5" class="node">
<title>4</title>
<ellipse fill="none" stroke="black" cx="392.73" cy="-18" rx="32.41" ry="18"/>
<text xml:space="preserve" text-anchor="middle" x="392.73" y="-12.95" font-family="Times New Roman,serif" font-size="14.00">varint</text>
</g>
<!-- 3&#45;&gt;4 -->
<g id="edge4" class="edge">
<title>3&#45;&gt;4</title>
<path fill="none" stroke="black" d="M322.58,-18C331.56,-18 340.36,-18 348.51,-18"/>
<polygon fill="black" stroke="black" points="348.42,-21.5 358.42,-18 348.42,-14.5 348.42,-21.5"/>
</g>
</g>
</svg>
