<?xml version="1.0" encoding="UTF-8" standalone="no"?>
<!DOCTYPE svg PUBLIC "-//W3C//DTD SVG 1.1//EN"
 "http://www.w3.org/Graphics/SVG/1.1/DTD/svg11.dtd">
<!-- Generated by graphviz version 2.46.1 (20210213.1702)
 -->
<!-- Title: PositionTrackingId Pages: 1 -->
<svg width="365pt" height="44pt"
 viewBox="0.00 0.00 364.67 44.00" xmlns="http://www.w3.org/2000/svg" xmlns:xlink="http://www.w3.org/1999/xlink">
<g id="graph0" class="graph" transform="scale(1 1) rotate(0) translate(4 40)">
<title>PositionTrackingId</title>
<polygon fill="white" stroke="transparent" points="-4,4 -4,-40 360.67,-40 360.67,4 -4,4"/>
<!-- 4 -->
<!-- name: &quot;PositionTrackingId&quot;, typeName: &quot;&quot;, id: 4, branchId: 0, recurseId: &#45;1, attributes: 0, notes: &quot;&quot; -->
<g id="node1" class="node">
<title>4</title>
<ellipse fill="none" stroke="black" cx="80.59" cy="-18" rx="80.69" ry="18"/>
<text text-anchor="middle" x="80.59" y="-14.3" font-family="Times New Roman,serif" font-size="14.00">PositionTrackingId</text>
</g>
<!-- 5 -->
<!-- name: &quot;Value&quot;, typeName: &quot;&quot;, id: 5, branchId: 0, recurseId: &#45;1, attributes: 0, notes: &quot;&quot; -->
<g id="node2" class="node">
<title>5</title>
<ellipse fill="none" stroke="black" cx="228.38" cy="-18" rx="31.4" ry="18"/>
<text text-anchor="middle" x="228.38" y="-14.3" font-family="Times New Roman,serif" font-size="14.00">Value</text>
</g>
<!-- 4&#45;&gt;5 -->
<g id="edge1" class="edge">
<title>4&#45;&gt;5</title>
<path fill="none" stroke="black" d="M161.31,-18C170.19,-18 178.93,-18 187,-18"/>
<polygon fill="black" stroke="black" points="187.18,-21.5 197.18,-18 187.18,-14.5 187.18,-21.5"/>
</g>
<!-- 6 -->
<!-- name: &quot;varint&quot;, typeName: &quot;&quot;, id: 6, branchId: 0, recurseId: &#45;1, attributes: 512, notes: &quot;&quot; -->
<g id="node3" class="node">
<title>6</title>
<ellipse fill="none" stroke="black" cx="326.13" cy="-18" rx="30.59" ry="18"/>
<text text-anchor="middle" x="326.13" y="-14.3" font-family="Times New Roman,serif" font-size="14.00">varint</text>
</g>
<!-- 5&#45;&gt;6 -->
<g id="edge2" class="edge">
<title>5&#45;&gt;6</title>
<path fill="none" stroke="black" d="M259.68,-18C267.78,-18 276.66,-18 285.19,-18"/>
<polygon fill="black" stroke="black" points="285.36,-21.5 295.36,-18 285.36,-14.5 285.36,-21.5"/>
</g>
</g>
</svg>
