<?xml version="1.0" encoding="UTF-8" standalone="no"?>
<!DOCTYPE svg PUBLIC "-//W3C//DTD SVG 1.1//EN"
 "http://www.w3.org/Graphics/SVG/1.1/DTD/svg11.dtd">
<!-- Generated by graphviz version 11.0.0 (20240428.1522)
 -->
<!-- Title: PotionMixDataEntry Pages: 1 -->
<svg width="565pt" height="314pt"
 viewBox="0.00 0.00 565.02 314.00" xmlns="http://www.w3.org/2000/svg" xmlns:xlink="http://www.w3.org/1999/xlink">
<g id="graph0" class="graph" transform="scale(1 1) rotate(0) translate(4 310)">
<title>PotionMixDataEntry</title>
<polygon fill="white" stroke="none" points="-4,4 -4,-310 561.02,-310 561.02,4 -4,4"/>
<!-- 12 -->
<!-- name: &quot;PotionMixDataEntry&quot;, typeName: &quot;&quot;, id: 12, branchId: 0, recurseId: &#45;1, attributes: 0, notes: &quot;&quot; -->
<g id="node1" class="node">
<title>12</title>
<ellipse fill="none" stroke="black" cx="86.49" cy="-153" rx="86.49" ry="18"/>
<text text-anchor="middle" x="86.49" y="-147.57" font-family="Times New Roman,serif" font-size="14.00">PotionMixDataEntry</text>
</g>
<!-- 13 -->
<!-- name: &quot;From Potion: Input &#45; Potion Id&quot;, typeName: &quot;&quot;, id: 13, branchId: 0, recurseId: &#45;1, attributes: 0, notes: &quot;&quot; -->
<g id="node2" class="node">
<title>13</title>
<ellipse fill="none" stroke="black" cx="333.9" cy="-288" rx="124.92" ry="18"/>
<text text-anchor="middle" x="333.9" y="-282.57" font-family="Times New Roman,serif" font-size="14.00">From Potion: Input &#45; Potion Id</text>
</g>
<!-- 12&#45;&gt;13 -->
<g id="edge1" class="edge">
<title>12&#45;&gt;13</title>
<path fill="none" stroke="black" d="M102.34,-171.04C123.43,-195.39 164.46,-238.35 208.99,-261 217.08,-265.12 225.78,-268.61 234.68,-271.57"/>
<polygon fill="black" stroke="black" points="233.58,-274.89 244.16,-274.48 235.63,-268.2 233.58,-274.89"/>
</g>
<!-- 15 -->
<!-- name: &quot;From Item Aux&quot;, typeName: &quot;&quot;, id: 15, branchId: 0, recurseId: &#45;1, attributes: 0, notes: &quot;&quot; -->
<g id="node4" class="node">
<title>15</title>
<ellipse fill="none" stroke="black" cx="333.9" cy="-234" rx="68.03" ry="18"/>
<text text-anchor="middle" x="333.9" y="-228.57" font-family="Times New Roman,serif" font-size="14.00">From Item Aux</text>
</g>
<!-- 12&#45;&gt;15 -->
<g id="edge3" class="edge">
<title>12&#45;&gt;15</title>
<path fill="none" stroke="black" d="M120.55,-169.9C144.58,-181.63 178.16,-196.91 208.99,-207 226.83,-212.84 246.54,-217.79 264.9,-221.79"/>
<polygon fill="black" stroke="black" points="264.13,-225.2 274.64,-223.84 265.57,-218.36 264.13,-225.2"/>
</g>
<!-- 17 -->
<!-- name: &quot;Reagent Item Id&quot;, typeName: &quot;&quot;, id: 17, branchId: 0, recurseId: &#45;1, attributes: 0, notes: &quot;&quot; -->
<g id="node6" class="node">
<title>17</title>
<ellipse fill="none" stroke="black" cx="333.9" cy="-180" rx="70.03" ry="18"/>
<text text-anchor="middle" x="333.9" y="-174.57" font-family="Times New Roman,serif" font-size="14.00">Reagent Item Id</text>
</g>
<!-- 12&#45;&gt;17 -->
<g id="edge5" class="edge">
<title>12&#45;&gt;17</title>
<path fill="none" stroke="black" d="M163.8,-161.39C193.74,-164.69 228.01,-168.46 257.83,-171.74"/>
<polygon fill="black" stroke="black" points="257.2,-175.19 267.52,-172.81 257.96,-168.23 257.2,-175.19"/>
</g>
<!-- 19 -->
<!-- name: &quot;Reagent Item Aux&quot;, typeName: &quot;&quot;, id: 19, branchId: 0, recurseId: &#45;1, attributes: 0, notes: &quot;&quot; -->
<g id="node8" class="node">
<title>19</title>
<ellipse fill="none" stroke="black" cx="333.9" cy="-126" rx="77.51" ry="18"/>
<text text-anchor="middle" x="333.9" y="-120.58" font-family="Times New Roman,serif" font-size="14.00">Reagent Item Aux</text>
</g>
<!-- 12&#45;&gt;19 -->
<g id="edge7" class="edge">
<title>12&#45;&gt;19</title>
<path fill="none" stroke="black" d="M163.8,-144.61C191.87,-141.52 223.74,-138.01 252.19,-134.88"/>
<polygon fill="black" stroke="black" points="252.26,-138.39 261.82,-133.82 251.49,-131.44 252.26,-138.39"/>
</g>
<!-- 21 -->
<!-- name: &quot;To Potion: Output &#45; Potion Id&quot;, typeName: &quot;&quot;, id: 21, branchId: 0, recurseId: &#45;1, attributes: 0, notes: &quot;&quot; -->
<g id="node10" class="node">
<title>21</title>
<ellipse fill="none" stroke="black" cx="333.9" cy="-72" rx="121.92" ry="18"/>
<text text-anchor="middle" x="333.9" y="-66.58" font-family="Times New Roman,serif" font-size="14.00">To Potion: Output &#45; Potion Id</text>
</g>
<!-- 12&#45;&gt;21 -->
<g id="edge9" class="edge">
<title>12&#45;&gt;21</title>
<path fill="none" stroke="black" d="M120.55,-136.1C144.58,-124.37 178.16,-109.09 208.99,-99 220.44,-95.25 232.66,-91.87 244.8,-88.87"/>
<polygon fill="black" stroke="black" points="245.51,-92.3 254.43,-86.58 243.89,-85.49 245.51,-92.3"/>
</g>
<!-- 23 -->
<!-- name: &quot;To Item Aux&quot;, typeName: &quot;&quot;, id: 23, branchId: 0, recurseId: &#45;1, attributes: 0, notes: &quot;&quot; -->
<g id="node12" class="node">
<title>23</title>
<ellipse fill="none" stroke="black" cx="333.9" cy="-18" rx="58.55" ry="18"/>
<text text-anchor="middle" x="333.9" y="-12.57" font-family="Times New Roman,serif" font-size="14.00">To Item Aux</text>
</g>
<!-- 12&#45;&gt;23 -->
<g id="edge11" class="edge">
<title>12&#45;&gt;23</title>
<path fill="none" stroke="black" d="M102.34,-134.96C123.43,-110.61 164.46,-67.65 208.99,-45 226.78,-35.95 247.53,-29.92 266.89,-25.91"/>
<polygon fill="black" stroke="black" points="267.44,-29.37 276.61,-24.06 266.13,-22.49 267.44,-29.37"/>
</g>
<!-- 14 -->
<!-- name: &quot;varint&quot;, typeName: &quot;&quot;, id: 14, branchId: 0, recurseId: &#45;1, attributes: 512, notes: &quot;&quot; -->
<g id="node3" class="node">
<title>14</title>
<ellipse fill="none" stroke="black" cx="525.92" cy="-288" rx="31.1" ry="18"/>
<text text-anchor="middle" x="525.92" y="-282.57" font-family="Times New Roman,serif" font-size="14.00">varint</text>
</g>
<!-- 13&#45;&gt;14 -->
<g id="edge2" class="edge">
<title>13&#45;&gt;14</title>
<path fill="none" stroke="black" d="M459.26,-288C467.63,-288 475.67,-288 483.07,-288"/>
<polygon fill="black" stroke="black" points="482.99,-291.5 492.99,-288 482.99,-284.5 482.99,-291.5"/>
</g>
<!-- 16 -->
<!-- name: &quot;varint&quot;, typeName: &quot;&quot;, id: 16, branchId: 0, recurseId: &#45;1, attributes: 512, notes: &quot;&quot; -->
<g id="node5" class="node">
<title>16</title>
<ellipse fill="none" stroke="black" cx="525.92" cy="-234" rx="31.1" ry="18"/>
<text text-anchor="middle" x="525.92" y="-228.57" font-family="Times New Roman,serif" font-size="14.00">varint</text>
</g>
<!-- 15&#45;&gt;16 -->
<g id="edge4" class="edge">
<title>15&#45;&gt;16</title>
<path fill="none" stroke="black" d="M402.43,-234C429.35,-234 459.49,-234 483.14,-234"/>
<polygon fill="black" stroke="black" points="483.01,-237.5 493.01,-234 483.01,-230.5 483.01,-237.5"/>
</g>
<!-- 18 -->
<!-- name: &quot;varint&quot;, typeName: &quot;&quot;, id: 18, branchId: 0, recurseId: &#45;1, attributes: 512, notes: &quot;&quot; -->
<g id="node7" class="node">
<title>18</title>
<ellipse fill="none" stroke="black" cx="525.92" cy="-180" rx="31.1" ry="18"/>
<text text-anchor="middle" x="525.92" y="-174.57" font-family="Times New Roman,serif" font-size="14.00">varint</text>
</g>
<!-- 17&#45;&gt;18 -->
<g id="edge6" class="edge">
<title>17&#45;&gt;18</title>
<path fill="none" stroke="black" d="M404.31,-180C430.67,-180 459.87,-180 482.94,-180"/>
<polygon fill="black" stroke="black" points="482.88,-183.5 492.88,-180 482.88,-176.5 482.88,-183.5"/>
</g>
<!-- 20 -->
<!-- name: &quot;varint&quot;, typeName: &quot;&quot;, id: 20, branchId: 0, recurseId: &#45;1, attributes: 512, notes: &quot;&quot; -->
<g id="node9" class="node">
<title>20</title>
<ellipse fill="none" stroke="black" cx="525.92" cy="-126" rx="31.1" ry="18"/>
<text text-anchor="middle" x="525.92" y="-120.58" font-family="Times New Roman,serif" font-size="14.00">varint</text>
</g>
<!-- 19&#45;&gt;20 -->
<g id="edge8" class="edge">
<title>19&#45;&gt;20</title>
<path fill="none" stroke="black" d="M411.64,-126C436.04,-126 462.1,-126 483.07,-126"/>
<polygon fill="black" stroke="black" points="482.95,-129.5 492.95,-126 482.95,-122.5 482.95,-129.5"/>
</g>
<!-- 22 -->
<!-- name: &quot;varint&quot;, typeName: &quot;&quot;, id: 22, branchId: 0, recurseId: &#45;1, attributes: 512, notes: &quot;&quot; -->
<g id="node11" class="node">
<title>22</title>
<ellipse fill="none" stroke="black" cx="525.92" cy="-72" rx="31.1" ry="18"/>
<text text-anchor="middle" x="525.92" y="-66.58" font-family="Times New Roman,serif" font-size="14.00">varint</text>
</g>
<!-- 21&#45;&gt;22 -->
<g id="edge10" class="edge">
<title>21&#45;&gt;22</title>
<path fill="none" stroke="black" d="M456.32,-72C465.7,-72 474.71,-72 482.94,-72"/>
<polygon fill="black" stroke="black" points="482.88,-75.5 492.88,-72 482.88,-68.5 482.88,-75.5"/>
</g>
<!-- 24 -->
<!-- name: &quot;varint&quot;, typeName: &quot;&quot;, id: 24, branchId: 0, recurseId: &#45;1, attributes: 512, notes: &quot;&quot; -->
<g id="node13" class="node">
<title>24</title>
<ellipse fill="none" stroke="black" cx="525.92" cy="-18" rx="31.1" ry="18"/>
<text text-anchor="middle" x="525.92" y="-12.57" font-family="Times New Roman,serif" font-size="14.00">varint</text>
</g>
<!-- 23&#45;&gt;24 -->
<g id="edge12" class="edge">
<title>23&#45;&gt;24</title>
<path fill="none" stroke="black" d="M392.94,-18C422.13,-18 456.83,-18 483.33,-18"/>
<polygon fill="black" stroke="black" points="482.99,-21.5 492.99,-18 482.99,-14.5 482.99,-21.5"/>
</g>
</g>
</svg>
