<?xml version="1.0" encoding="UTF-8" standalone="no"?>
<!DOCTYPE svg PUBLIC "-//W3C//DTD SVG 1.1//EN"
 "http://www.w3.org/Graphics/SVG/1.1/DTD/svg11.dtd">
<!-- Generated by graphviz version 14.1.5 (20260411.2331)
 -->
<!-- Title: presenceConfig Pages: 1 -->
<svg width="428pt" height="98pt"
 viewBox="0.00 0.00 428.00 98.00" xmlns="http://www.w3.org/2000/svg" xmlns:xlink="http://www.w3.org/1999/xlink">
<g id="graph0" class="graph" transform="scale(1 1) rotate(0) translate(4 94)">
<title>presenceConfig</title>
<polygon fill="white" stroke="none" points="-4,4 -4,-94 424.03,-94 424.03,4 -4,4"/>
<!-- 0 -->
<!-- name: &quot;presenceConfig&quot;, typeName: &quot;&quot;, id: 0, branchId: 0, recurseId: &#45;1, attributes: 0, notes: &quot;&quot; -->
<g id="node1" class="node">
<title>0</title>
<ellipse fill="none" stroke="black" cx="68.75" cy="-45" rx="68.75" ry="18"/>
<text xml:space="preserve" text-anchor="middle" x="68.75" y="-39.95" font-family="Times New Roman,serif" font-size="14.00">presenceConfig</text>
</g>
<!-- 1 -->
<!-- name: &quot;experienceName&quot;, typeName: &quot;&quot;, id: 1, branchId: 0, recurseId: &#45;1, attributes: 0, notes: &quot;The name of the experience.&quot; -->
<g id="node2" class="node">
<title>1</title>
<ellipse fill="none" stroke="black" cx="246.86" cy="-72" rx="73.36" ry="18"/>
<text xml:space="preserve" text-anchor="middle" x="246.86" y="-66.95" font-family="Times New Roman,serif" font-size="14.00">experienceName</text>
</g>
<!-- 0&#45;&gt;1 -->
<g id="edge1" class="edge">
<title>0&#45;&gt;1</title>
<path fill="none" stroke="black" d="M128.89,-54.07C142.98,-56.23 158.19,-58.56 172.82,-60.8"/>
<polygon fill="black" stroke="black" points="171.97,-64.21 182.38,-62.27 173.03,-57.29 171.97,-64.21"/>
</g>
<!-- 3 -->
<!-- name: &quot;worldName&quot;, typeName: &quot;&quot;, id: 3, branchId: 0, recurseId: &#45;1, attributes: 0, notes: &quot;The name of the world.&quot; -->
<g id="node4" class="node">
<title>3</title>
<ellipse fill="none" stroke="black" cx="246.86" cy="-18" rx="54.93" ry="18"/>
<text xml:space="preserve" text-anchor="middle" x="246.86" y="-12.95" font-family="Times New Roman,serif" font-size="14.00">worldName</text>
</g>
<!-- 0&#45;&gt;3 -->
<g id="edge3" class="edge">
<title>0&#45;&gt;3</title>
<path fill="none" stroke="black" d="M128.89,-35.93C147.09,-33.14 167.15,-30.07 185.44,-27.26"/>
<polygon fill="black" stroke="black" points="185.72,-30.76 195.07,-25.79 184.66,-23.84 185.72,-30.76"/>
</g>
<!-- 2 -->
<!-- name: &quot;string&quot;, typeName: &quot;&quot;, id: 2, branchId: 0, recurseId: &#45;1, attributes: 512, notes: &quot;The name of the experience.&quot; -->
<g id="node3" class="node">
<title>2</title>
<ellipse fill="none" stroke="black" cx="388.13" cy="-72" rx="31.9" ry="18"/>
<text xml:space="preserve" text-anchor="middle" x="388.13" y="-66.95" font-family="Times New Roman,serif" font-size="14.00">string</text>
</g>
<!-- 1&#45;&gt;2 -->
<g id="edge2" class="edge">
<title>1&#45;&gt;2</title>
<path fill="none" stroke="black" d="M320.35,-72C328.69,-72 336.97,-72 344.72,-72"/>
<polygon fill="black" stroke="black" points="344.5,-75.5 354.5,-72 344.5,-68.5 344.5,-75.5"/>
</g>
<!-- 4 -->
<!-- name: &quot;string&quot;, typeName: &quot;&quot;, id: 4, branchId: 0, recurseId: &#45;1, attributes: 512, notes: &quot;The name of the world.&quot; -->
<g id="node5" class="node">
<title>4</title>
<ellipse fill="none" stroke="black" cx="388.13" cy="-18" rx="31.9" ry="18"/>
<text xml:space="preserve" text-anchor="middle" x="388.13" y="-12.95" font-family="Times New Roman,serif" font-size="14.00">string</text>
</g>
<!-- 3&#45;&gt;4 -->
<g id="edge4" class="edge">
<title>3&#45;&gt;4</title>
<path fill="none" stroke="black" d="M302.11,-18C316.16,-18 331.1,-18 344.47,-18"/>
<polygon fill="black" stroke="black" points="344.24,-21.5 354.24,-18 344.24,-14.5 344.24,-21.5"/>
</g>
</g>
</svg>
