<?xml version="1.0" encoding="UTF-8" standalone="no"?>
<!DOCTYPE svg PUBLIC "-//W3C//DTD SVG 1.1//EN"
 "http://www.w3.org/Graphics/SVG/1.1/DTD/svg11.dtd">
<!-- Generated by graphviz version 14.1.5 (20260411.2331)
 -->
<!-- Title: presenceConfig Pages: 1 -->
<svg width="428pt" height="152pt"
 viewBox="0.00 0.00 428.00 152.00" xmlns="http://www.w3.org/2000/svg" xmlns:xlink="http://www.w3.org/1999/xlink">
<g id="graph0" class="graph" transform="scale(1 1) rotate(0) translate(4 148)">
<title>presenceConfig</title>
<polygon fill="white" stroke="none" points="-4,4 -4,-148 424.03,-148 424.03,4 -4,4"/>
<!-- 0 -->
<!-- name: &quot;presenceConfig&quot;, typeName: &quot;&quot;, id: 0, branchId: 0, recurseId: &#45;1, attributes: 0, notes: &quot;&quot; -->
<g id="node1" class="node">
<title>0</title>
<ellipse fill="none" stroke="black" cx="68.75" cy="-72" rx="68.75" ry="18"/>
<text xml:space="preserve" text-anchor="middle" x="68.75" y="-66.95" font-family="Times New Roman,serif" font-size="14.00">presenceConfig</text>
</g>
<!-- 1 -->
<!-- name: &quot;experienceName&quot;, typeName: &quot;&quot;, id: 1, branchId: 0, recurseId: &#45;1, attributes: 0, notes: &quot;Name of the experience.&quot; -->
<g id="node2" class="node">
<title>1</title>
<ellipse fill="none" stroke="black" cx="246.86" cy="-126" rx="73.36" ry="18"/>
<text xml:space="preserve" text-anchor="middle" x="246.86" y="-120.95" font-family="Times New Roman,serif" font-size="14.00">experienceName</text>
</g>
<!-- 0&#45;&gt;1 -->
<g id="edge1" class="edge">
<title>0&#45;&gt;1</title>
<path fill="none" stroke="black" d="M114.65,-85.77C137.27,-92.7 164.95,-101.19 189.04,-108.58"/>
<polygon fill="black" stroke="black" points="187.79,-111.85 198.38,-111.44 189.84,-105.16 187.79,-111.85"/>
</g>
<!-- 3 -->
<!-- name: &quot;worldName&quot;, typeName: &quot;&quot;, id: 3, branchId: 0, recurseId: &#45;1, attributes: 0, notes: &quot;Name of the world.&quot; -->
<g id="node4" class="node">
<title>3</title>
<ellipse fill="none" stroke="black" cx="246.86" cy="-72" rx="54.93" ry="18"/>
<text xml:space="preserve" text-anchor="middle" x="246.86" y="-66.95" font-family="Times New Roman,serif" font-size="14.00">worldName</text>
</g>
<!-- 0&#45;&gt;3 -->
<g id="edge3" class="edge">
<title>0&#45;&gt;3</title>
<path fill="none" stroke="black" d="M137.84,-72C151.76,-72 166.37,-72 180.2,-72"/>
<polygon fill="black" stroke="black" points="180.08,-75.5 190.08,-72 180.08,-68.5 180.08,-75.5"/>
</g>
<!-- 5 -->
<!-- name: &quot;richPresenceId&quot;, typeName: &quot;&quot;, id: 5, branchId: 0, recurseId: &#45;1, attributes: 0, notes: &quot;Optional rich presence ID to override client&#45;driven rich presence.&quot; -->
<g id="node6" class="node">
<title>5</title>
<ellipse fill="none" stroke="black" cx="246.86" cy="-18" rx="65.68" ry="18"/>
<text xml:space="preserve" text-anchor="middle" x="246.86" y="-12.95" font-family="Times New Roman,serif" font-size="14.00">richPresenceId</text>
</g>
<!-- 0&#45;&gt;5 -->
<g id="edge5" class="edge">
<title>0&#45;&gt;5</title>
<path fill="none" stroke="black" d="M114.65,-58.23C137.89,-51.11 166.46,-42.35 191.01,-34.82"/>
<polygon fill="black" stroke="black" points="191.98,-38.18 200.52,-31.9 189.93,-31.49 191.98,-38.18"/>
</g>
<!-- 2 -->
<!-- name: &quot;string&quot;, typeName: &quot;&quot;, id: 2, branchId: 0, recurseId: &#45;1, attributes: 512, notes: &quot;Name of the experience.&quot; -->
<g id="node3" class="node">
<title>2</title>
<ellipse fill="none" stroke="black" cx="388.13" cy="-126" rx="31.9" ry="18"/>
<text xml:space="preserve" text-anchor="middle" x="388.13" y="-120.95" font-family="Times New Roman,serif" font-size="14.00">string</text>
</g>
<!-- 1&#45;&gt;2 -->
<g id="edge2" class="edge">
<title>1&#45;&gt;2</title>
<path fill="none" stroke="black" d="M320.35,-126C328.69,-126 336.97,-126 344.72,-126"/>
<polygon fill="black" stroke="black" points="344.5,-129.5 354.5,-126 344.5,-122.5 344.5,-129.5"/>
</g>
<!-- 4 -->
<!-- name: &quot;string&quot;, typeName: &quot;&quot;, id: 4, branchId: 0, recurseId: &#45;1, attributes: 512, notes: &quot;Name of the world.&quot; -->
<g id="node5" class="node">
<title>4</title>
<ellipse fill="none" stroke="black" cx="388.13" cy="-72" rx="31.9" ry="18"/>
<text xml:space="preserve" text-anchor="middle" x="388.13" y="-66.95" font-family="Times New Roman,serif" font-size="14.00">string</text>
</g>
<!-- 3&#45;&gt;4 -->
<g id="edge4" class="edge">
<title>3&#45;&gt;4</title>
<path fill="none" stroke="black" d="M302.11,-72C316.16,-72 331.1,-72 344.47,-72"/>
<polygon fill="black" stroke="black" points="344.24,-75.5 354.24,-72 344.24,-68.5 344.24,-75.5"/>
</g>
<!-- 6 -->
<!-- name: &quot;string&quot;, typeName: &quot;&quot;, id: 6, branchId: 0, recurseId: &#45;1, attributes: 512, notes: &quot;Optional rich presence ID to override client&#45;driven rich presence.&quot; -->
<g id="node7" class="node">
<title>6</title>
<ellipse fill="none" stroke="black" cx="388.13" cy="-18" rx="31.9" ry="18"/>
<text xml:space="preserve" text-anchor="middle" x="388.13" y="-12.95" font-family="Times New Roman,serif" font-size="14.00">string</text>
</g>
<!-- 5&#45;&gt;6 -->
<g id="edge6" class="edge">
<title>5&#45;&gt;6</title>
<path fill="none" stroke="black" d="M313.01,-18C323.8,-18 334.73,-18 344.76,-18"/>
<polygon fill="black" stroke="black" points="344.55,-21.5 354.55,-18 344.55,-14.5 344.55,-21.5"/>
</g>
</g>
</svg>
