<?xml version="1.0" encoding="UTF-8" standalone="no"?>
<!DOCTYPE svg PUBLIC "-//W3C//DTD SVG 1.1//EN"
 "http://www.w3.org/Graphics/SVG/1.1/DTD/svg11.dtd">
<!-- Generated by graphviz version 10.0.1 (20240210.2158)
 -->
<!-- Title: PurchaseReceiptPacket Pages: 1 -->
<svg width="941pt" height="98pt"
 viewBox="0.00 0.00 941.08 98.00" xmlns="http://www.w3.org/2000/svg" xmlns:xlink="http://www.w3.org/1999/xlink">
<g id="graph0" class="graph" transform="scale(1 1) rotate(0) translate(4 94)">
<title>PurchaseReceiptPacket</title>
<polygon fill="white" stroke="none" points="-4,4 -4,-94 937.08,-94 937.08,4 -4,4"/>
<!-- 0 -->
<!-- name: &quot;PurchaseReceiptPacket&quot;, typeName: &quot;&quot;, id: 0, branchId: 92, recurseId: &#45;1, attributes: 0, notes: &quot;&quot; -->
<g id="node1" class="node">
<title>0</title>
<ellipse fill="none" stroke="black" cx="97.97" cy="-45" rx="97.97" ry="18"/>
<text text-anchor="middle" x="97.97" y="-39.58" font-family="Times New Roman,serif" font-size="14.00">PurchaseReceiptPacket</text>
</g>
<!-- 1 -->
<!-- name: &quot;Purchase Receipts&quot;, typeName: &quot;&quot;, id: 1, branchId: 0, recurseId: &#45;1, attributes: 8, notes: &quot;&quot; -->
<g id="node2" class="node">
<title>1</title>
<ellipse fill="none" stroke="black" cx="311.45" cy="-45" rx="79.51" ry="18"/>
<text text-anchor="middle" x="311.45" y="-39.58" font-family="Times New Roman,serif" font-size="14.00">Purchase Receipts</text>
</g>
<!-- 0&#45;&gt;1 -->
<g id="edge1" class="edge">
<title>0&#45;&gt;1</title>
<path fill="none" stroke="black" d="M196.35,-45C204.29,-45 212.29,-45 220.18,-45"/>
<polygon fill="black" stroke="black" points="220.11,-48.5 230.11,-45 220.11,-41.5 220.11,-48.5"/>
</g>
<!-- 2 -->
<!-- name: &quot;Array Size&quot;, typeName: &quot;&quot;, id: 2, branchId: 0, recurseId: &#45;1, attributes: 0, notes: &quot;&quot; -->
<g id="node3" class="node">
<title>2</title>
<ellipse fill="none" stroke="black" cx="685.01" cy="-72" rx="49.57" ry="18"/>
<text text-anchor="middle" x="685.01" y="-66.58" font-family="Times New Roman,serif" font-size="14.00">Array Size</text>
</g>
<!-- 1&#45;&gt;2 -->
<g id="edge2" class="edge">
<title>1&#45;&gt;2</title>
<path fill="none" stroke="black" d="M387.64,-50.46C457.65,-55.55 560.61,-63.03 624.91,-67.71"/>
<polygon fill="black" stroke="black" points="624.32,-71.17 634.55,-68.41 624.83,-64.19 624.32,-71.17"/>
</g>
<!-- 4 -->
<!-- name: &quot;example element&quot;, typeName: &quot;&quot;, id: 4, branchId: 0, recurseId: &#45;1, attributes: 16, notes: &quot;&quot; -->
<g id="node5" class="node">
<title>4</title>
<ellipse fill="none" stroke="black" stroke-dasharray="1,5" cx="498.47" cy="-22" rx="71.52" ry="18"/>
<text text-anchor="middle" x="498.47" y="-16.57" font-family="Times New Roman,serif" font-size="14.00">example element</text>
</g>
<!-- 1&#45;&gt;4 -->
<g id="edge4" class="edge">
<title>1&#45;&gt;4</title>
<path fill="none" stroke="black" d="M382.13,-36.34C395.34,-34.7 409.21,-32.97 422.56,-31.31"/>
<polygon fill="black" stroke="black" points="422.65,-34.83 432.14,-30.12 421.78,-27.88 422.65,-34.83"/>
</g>
<!-- 3 -->
<!-- name: &quot;unsigned varint&quot;, typeName: &quot;&quot;, id: 3, branchId: 0, recurseId: &#45;1, attributes: 512, notes: &quot;&quot; -->
<g id="node4" class="node">
<title>3</title>
<ellipse fill="none" stroke="black" cx="866.55" cy="-72" rx="66.53" ry="18"/>
<text text-anchor="middle" x="866.55" y="-66.58" font-family="Times New Roman,serif" font-size="14.00">unsigned varint</text>
</g>
<!-- 2&#45;&gt;3 -->
<g id="edge3" class="edge">
<title>2&#45;&gt;3</title>
<path fill="none" stroke="black" d="M735.07,-72C751.5,-72 770.23,-72 788.29,-72"/>
<polygon fill="black" stroke="black" points="788.2,-75.5 798.2,-72 788.2,-68.5 788.2,-75.5"/>
</g>
<!-- 5 -->
<!-- name: &quot;Proof of Purchase&quot;, typeName: &quot;&quot;, id: 5, branchId: 0, recurseId: &#45;1, attributes: 0, notes: &quot;&quot; -->
<g id="node6" class="node">
<title>5</title>
<ellipse fill="none" stroke="black" cx="685.01" cy="-18" rx="79.01" ry="18"/>
<text text-anchor="middle" x="685.01" y="-12.57" font-family="Times New Roman,serif" font-size="14.00">Proof of Purchase</text>
</g>
<!-- 4&#45;&gt;5 -->
<g id="edge5" class="edge">
<title>4&#45;&gt;5</title>
<path fill="none" stroke="black" d="M570.03,-20.47C578.14,-20.29 586.49,-20.11 594.81,-19.93"/>
<polygon fill="black" stroke="black" points="594.67,-23.44 604.6,-19.72 594.52,-16.44 594.67,-23.44"/>
</g>
<!-- 6 -->
<!-- name: &quot;string&quot;, typeName: &quot;&quot;, id: 6, branchId: 0, recurseId: &#45;1, attributes: 512, notes: &quot;&quot; -->
<g id="node7" class="node">
<title>6</title>
<ellipse fill="none" stroke="black" cx="866.55" cy="-18" rx="31.1" ry="18"/>
<text text-anchor="middle" x="866.55" y="-12.57" font-family="Times New Roman,serif" font-size="14.00">string</text>
</g>
<!-- 5&#45;&gt;6 -->
<g id="edge6" class="edge">
<title>5&#45;&gt;6</title>
<path fill="none" stroke="black" d="M764.49,-18C784.98,-18 806.27,-18 824,-18"/>
<polygon fill="black" stroke="black" points="823.85,-21.5 833.85,-18 823.85,-14.5 823.85,-21.5"/>
</g>
</g>
</svg>
