<?xml version="1.0" encoding="UTF-8" standalone="no"?>
<!DOCTYPE svg PUBLIC "-//W3C//DTD SVG 1.1//EN"
 "http://www.w3.org/Graphics/SVG/1.1/DTD/svg11.dtd">
<!-- Generated by graphviz version 13.1.2 (20250808.2320)
 -->
<!-- Title: PurchaseReceiptPacket Pages: 1 -->
<svg width="748pt" height="98pt"
 viewBox="0.00 0.00 748.00 98.00" xmlns="http://www.w3.org/2000/svg" xmlns:xlink="http://www.w3.org/1999/xlink">
<g id="graph0" class="graph" transform="scale(1 1) rotate(0) translate(4 94)">
<title>PurchaseReceiptPacket</title>
<polygon fill="white" stroke="none" points="-4,4 -4,-94 743.91,-94 743.91,4 -4,4"/>
<!-- 0 -->
<!-- name: &quot;PurchaseReceiptPacket&quot;, typeName: &quot;&quot;, id: 0, branchId: 0, recurseId: &#45;1, attributes: 0, notes: &quot;Sent from client to server&quot; -->
<g id="node1" class="node">
<title>0</title>
<ellipse fill="none" stroke="black" cx="96.9" cy="-45" rx="96.9" ry="18"/>
<text xml:space="preserve" text-anchor="middle" x="96.9" y="-39.95" font-family="Times New Roman,serif" font-size="14.00">PurchaseReceiptPacket</text>
</g>
<!-- 1 -->
<!-- name: &quot;PurchaseReceipts&quot;, typeName: &quot;&quot;, id: 1, branchId: 0, recurseId: &#45;1, attributes: 0, notes: &quot;Purchase Receipts&quot; -->
<g id="node2" class="node">
<title>1</title>
<ellipse fill="none" stroke="black" cx="305.72" cy="-45" rx="75.92" ry="18"/>
<text xml:space="preserve" text-anchor="middle" x="305.72" y="-39.95" font-family="Times New Roman,serif" font-size="14.00">PurchaseReceipts</text>
</g>
<!-- 0&#45;&gt;1 -->
<g id="edge1" class="edge">
<title>0&#45;&gt;1</title>
<path fill="none" stroke="black" d="M194.05,-45C202.06,-45 210.12,-45 218.06,-45"/>
<polygon fill="black" stroke="black" points="218.04,-48.5 228.04,-45 218.04,-41.5 218.04,-48.5"/>
</g>
<!-- 2 -->
<!-- name: &quot;List Size&quot;, typeName: &quot;&quot;, id: 2, branchId: 0, recurseId: &#45;1, attributes: 0, notes: &quot;&quot; -->
<g id="node3" class="node">
<title>2</title>
<ellipse fill="none" stroke="black" cx="492.54" cy="-72" rx="43.67" ry="18"/>
<text xml:space="preserve" text-anchor="middle" x="492.54" y="-66.95" font-family="Times New Roman,serif" font-size="14.00">List Size</text>
</g>
<!-- 1&#45;&gt;2 -->
<g id="edge2" class="edge">
<title>1&#45;&gt;2</title>
<path fill="none" stroke="black" d="M371.36,-54.44C393.67,-57.7 418.36,-61.31 439.52,-64.4"/>
<polygon fill="black" stroke="black" points="438.99,-67.86 449.39,-65.84 440,-60.93 438.99,-67.86"/>
</g>
<!-- 4 -->
<!-- name: &quot;example element&quot;, typeName: &quot;&quot;, id: 4, branchId: 0, recurseId: &#45;1, attributes: 16, notes: &quot;&quot; -->
<g id="node5" class="node">
<title>4</title>
<ellipse fill="none" stroke="black" stroke-dasharray="1,5" cx="492.54" cy="-18" rx="74.89" ry="18"/>
<text xml:space="preserve" text-anchor="middle" x="492.54" y="-12.95" font-family="Times New Roman,serif" font-size="14.00">example element</text>
</g>
<!-- 1&#45;&gt;4 -->
<g id="edge4" class="edge">
<title>1&#45;&gt;4</title>
<path fill="none" stroke="black" d="M371.36,-35.56C385.88,-33.44 401.4,-31.17 416.31,-28.99"/>
<polygon fill="black" stroke="black" points="416.67,-32.47 426.06,-27.57 415.66,-25.55 416.67,-32.47"/>
</g>
<!-- 3 -->
<!-- name: &quot;unsigned varint&quot;, typeName: &quot;&quot;, id: 3, branchId: 0, recurseId: &#45;1, attributes: 0, notes: &quot;&quot; -->
<g id="node4" class="node">
<title>3</title>
<ellipse fill="none" stroke="black" cx="671.67" cy="-72" rx="68.24" ry="18"/>
<text xml:space="preserve" text-anchor="middle" x="671.67" y="-66.95" font-family="Times New Roman,serif" font-size="14.00">unsigned varint</text>
</g>
<!-- 2&#45;&gt;3 -->
<g id="edge3" class="edge">
<title>2&#45;&gt;3</title>
<path fill="none" stroke="black" d="M536.42,-72C553.03,-72 572.59,-72 591.57,-72"/>
<polygon fill="black" stroke="black" points="591.45,-75.5 601.45,-72 591.45,-68.5 591.45,-75.5"/>
</g>
<!-- 5 -->
<!-- name: &quot;string&quot;, typeName: &quot;&quot;, id: 5, branchId: 0, recurseId: &#45;1, attributes: 512, notes: &quot;&quot; -->
<g id="node6" class="node">
<title>5</title>
<ellipse fill="none" stroke="black" cx="671.67" cy="-18" rx="31.9" ry="18"/>
<text xml:space="preserve" text-anchor="middle" x="671.67" y="-12.95" font-family="Times New Roman,serif" font-size="14.00">string</text>
</g>
<!-- 4&#45;&gt;5 -->
<g id="edge5" class="edge">
<title>4&#45;&gt;5</title>
<path fill="none" stroke="black" d="M567.89,-18C588.39,-18 609.94,-18 627.98,-18"/>
<polygon fill="black" stroke="black" points="627.77,-21.5 637.77,-18 627.77,-14.5 627.77,-21.5"/>
</g>
</g>
</svg>
