<?xml version="1.0" encoding="UTF-8" standalone="no"?>
<!DOCTYPE svg PUBLIC "-//W3C//DTD SVG 1.1//EN"
 "http://www.w3.org/Graphics/SVG/1.1/DTD/svg11.dtd">
<!-- Generated by graphviz version 12.2.0 (20241103.1931)
 -->
<!-- Title: PurchaseReceiptPacket Pages: 1 -->
<svg width="944pt" height="98pt"
 viewBox="0.00 0.00 943.94 98.00" xmlns="http://www.w3.org/2000/svg" xmlns:xlink="http://www.w3.org/1999/xlink">
<g id="graph0" class="graph" transform="scale(1 1) rotate(0) translate(4 94)">
<title>PurchaseReceiptPacket</title>
<polygon fill="white" stroke="none" points="-4,4 -4,-94 939.94,-94 939.94,4 -4,4"/>
<!-- 0 -->
<!-- name: &quot;PurchaseReceiptPacket&quot;, typeName: &quot;&quot;, id: 0, branchId: 92, recurseId: &#45;1, attributes: 0, notes: &quot;&quot; -->
<g id="node1" class="node">
<title>0</title>
<ellipse fill="none" stroke="black" cx="96.9" cy="-45" rx="96.9" ry="18"/>
<text text-anchor="middle" x="96.9" y="-39.95" font-family="Times New Roman,serif" font-size="14.00">PurchaseReceiptPacket</text>
</g>
<!-- 1 -->
<!-- name: &quot;Purchase Receipts&quot;, typeName: &quot;&quot;, id: 1, branchId: 0, recurseId: &#45;1, attributes: 8, notes: &quot;&quot; -->
<g id="node2" class="node">
<title>1</title>
<ellipse fill="none" stroke="black" cx="308.28" cy="-45" rx="78.48" ry="18"/>
<text text-anchor="middle" x="308.28" y="-39.95" font-family="Times New Roman,serif" font-size="14.00">Purchase Receipts</text>
</g>
<!-- 0&#45;&gt;1 -->
<g id="edge1" class="edge">
<title>0&#45;&gt;1</title>
<path fill="none" stroke="black" d="M194.01,-45C201.96,-45 209.97,-45 217.86,-45"/>
<polygon fill="black" stroke="black" points="217.81,-48.5 227.81,-45 217.81,-41.5 217.81,-48.5"/>
</g>
<!-- 2 -->
<!-- name: &quot;List Size&quot;, typeName: &quot;&quot;, id: 2, branchId: 0, recurseId: &#45;1, attributes: 0, notes: &quot;&quot; -->
<g id="node3" class="node">
<title>2</title>
<ellipse fill="none" stroke="black" cx="686" cy="-72" rx="43.67" ry="18"/>
<text text-anchor="middle" x="686" y="-66.95" font-family="Times New Roman,serif" font-size="14.00">List Size</text>
</g>
<!-- 1&#45;&gt;2 -->
<g id="edge2" class="edge">
<title>1&#45;&gt;2</title>
<path fill="none" stroke="black" d="M383.51,-50.33C456.54,-55.58 566.28,-63.47 631.26,-68.14"/>
<polygon fill="black" stroke="black" points="630.73,-71.61 640.96,-68.83 631.23,-64.63 630.73,-71.61"/>
</g>
<!-- 4 -->
<!-- name: &quot;example element&quot;, typeName: &quot;&quot;, id: 4, branchId: 0, recurseId: &#45;1, attributes: 16, notes: &quot;&quot; -->
<g id="node5" class="node">
<title>4</title>
<ellipse fill="none" stroke="black" stroke-dasharray="1,5" cx="497.65" cy="-22" rx="74.89" ry="18"/>
<text text-anchor="middle" x="497.65" y="-16.95" font-family="Times New Roman,serif" font-size="14.00">example element</text>
</g>
<!-- 1&#45;&gt;4 -->
<g id="edge4" class="edge">
<title>1&#45;&gt;4</title>
<path fill="none" stroke="black" d="M378.25,-36.53C391.54,-34.9 405.54,-33.18 419.08,-31.52"/>
<polygon fill="black" stroke="black" points="419.32,-35.02 428.82,-30.33 418.47,-28.07 419.32,-35.02"/>
</g>
<!-- 3 -->
<!-- name: &quot;unsigned varint&quot;, typeName: &quot;&quot;, id: 3, branchId: 0, recurseId: &#45;1, attributes: 512, notes: &quot;&quot; -->
<g id="node4" class="node">
<title>3</title>
<ellipse fill="none" stroke="black" cx="867.7" cy="-72" rx="68.24" ry="18"/>
<text text-anchor="middle" x="867.7" y="-66.95" font-family="Times New Roman,serif" font-size="14.00">unsigned varint</text>
</g>
<!-- 2&#45;&gt;3 -->
<g id="edge3" class="edge">
<title>2&#45;&gt;3</title>
<path fill="none" stroke="black" d="M730.04,-72C747.4,-72 767.98,-72 787.84,-72"/>
<polygon fill="black" stroke="black" points="787.58,-75.5 797.58,-72 787.58,-68.5 787.58,-75.5"/>
</g>
<!-- 5 -->
<!-- name: &quot;Proof of Purchase&quot;, typeName: &quot;&quot;, id: 5, branchId: 0, recurseId: &#45;1, attributes: 0, notes: &quot;&quot; -->
<g id="node6" class="node">
<title>5</title>
<ellipse fill="none" stroke="black" cx="686" cy="-18" rx="77.45" ry="18"/>
<text text-anchor="middle" x="686" y="-12.95" font-family="Times New Roman,serif" font-size="14.00">Proof of Purchase</text>
</g>
<!-- 4&#45;&gt;5 -->
<g id="edge5" class="edge">
<title>4&#45;&gt;5</title>
<path fill="none" stroke="black" d="M572.57,-20.41C580.58,-20.24 588.79,-20.07 596.95,-19.89"/>
<polygon fill="black" stroke="black" points="596.99,-23.39 606.91,-19.68 596.84,-16.39 596.99,-23.39"/>
</g>
<!-- 6 -->
<!-- name: &quot;string&quot;, typeName: &quot;&quot;, id: 6, branchId: 0, recurseId: &#45;1, attributes: 512, notes: &quot;&quot; -->
<g id="node7" class="node">
<title>6</title>
<ellipse fill="none" stroke="black" cx="867.7" cy="-18" rx="31.9" ry="18"/>
<text text-anchor="middle" x="867.7" y="-12.95" font-family="Times New Roman,serif" font-size="14.00">string</text>
</g>
<!-- 5&#45;&gt;6 -->
<g id="edge6" class="edge">
<title>5&#45;&gt;6</title>
<path fill="none" stroke="black" d="M763.73,-18C784.39,-18 805.99,-18 824.05,-18"/>
<polygon fill="black" stroke="black" points="823.84,-21.5 833.84,-18 823.84,-14.5 823.84,-21.5"/>
</g>
</g>
</svg>
