<?xml version="1.0" encoding="UTF-8" standalone="no"?>
<!DOCTYPE svg PUBLIC "-//W3C//DTD SVG 1.1//EN"
 "http://www.w3.org/Graphics/SVG/1.1/DTD/svg11.dtd">
<!-- Generated by graphviz version 9.0.0 (20230911.1827)
 -->
<!-- Title: RecipeIngredient Pages: 1 -->
<svg width="404pt" height="98pt"
 viewBox="0.00 0.00 404.35 98.00" xmlns="http://www.w3.org/2000/svg" xmlns:xlink="http://www.w3.org/1999/xlink">
<g id="graph0" class="graph" transform="scale(1 1) rotate(0) translate(4 94)">
<title>RecipeIngredient</title>
<polygon fill="white" stroke="none" points="-4,4 -4,-94 400.35,-94 400.35,4 -4,4"/>
<!-- 14 -->
<!-- name: &quot;RecipeIngredient&quot;, typeName: &quot;&quot;, id: 14, branchId: 0, recurseId: &#45;1, attributes: 0, notes: &quot;&quot; -->
<g id="node1" class="node">
<title>14</title>
<ellipse fill="none" stroke="black" cx="73.52" cy="-45" rx="73.52" ry="18"/>
<text text-anchor="middle" x="73.52" y="-39.58" font-family="Times New Roman,serif" font-size="14.00">RecipeIngredient</text>
</g>
<!-- 15 -->
<!-- name: &quot;InternalType&quot;, typeName: &quot;&quot;, id: 15, branchId: 0, recurseId: &#45;1, attributes: 0, notes: &quot;enumeration: ItemDescriptor::InternalType&quot; -->
<g id="node2" class="node">
<title>15</title>
<ellipse fill="none" stroke="black" cx="240.59" cy="-72" rx="57.55" ry="18"/>
<text text-anchor="middle" x="240.59" y="-66.58" font-family="Times New Roman,serif" font-size="14.00">InternalType</text>
</g>
<!-- 14&#45;&gt;15 -->
<g id="edge1" class="edge">
<title>14&#45;&gt;15</title>
<path fill="none" stroke="black" d="M135.52,-54.98C149.22,-57.22 163.78,-59.6 177.52,-61.85"/>
<polygon fill="black" stroke="black" points="176.92,-65.3 187.35,-63.46 178.05,-58.39 176.92,-65.3"/>
</g>
<!-- 17 -->
<!-- name: &quot;StackSize&quot;, typeName: &quot;&quot;, id: 17, branchId: 0, recurseId: &#45;1, attributes: 0, notes: &quot;&quot; -->
<g id="node4" class="node">
<title>17</title>
<ellipse fill="none" stroke="black" cx="240.59" cy="-18" rx="47.07" ry="18"/>
<text text-anchor="middle" x="240.59" y="-12.57" font-family="Times New Roman,serif" font-size="14.00">StackSize</text>
</g>
<!-- 14&#45;&gt;17 -->
<g id="edge3" class="edge">
<title>14&#45;&gt;17</title>
<path fill="none" stroke="black" d="M135.52,-35.02C151.85,-32.35 169.39,-29.48 185.33,-26.87"/>
<polygon fill="black" stroke="black" points="185.82,-30.34 195.12,-25.27 184.69,-23.43 185.82,-30.34"/>
</g>
<!-- 16 -->
<!-- name: &quot;byte&quot;, typeName: &quot;&quot;, id: 16, branchId: 0, recurseId: &#45;1, attributes: 512, notes: &quot;&quot; -->
<g id="node3" class="node">
<title>16</title>
<ellipse fill="none" stroke="black" cx="365.24" cy="-72" rx="27" ry="18"/>
<text text-anchor="middle" x="365.24" y="-66.58" font-family="Times New Roman,serif" font-size="14.00">byte</text>
</g>
<!-- 15&#45;&gt;16 -->
<g id="edge2" class="edge">
<title>15&#45;&gt;16</title>
<path fill="none" stroke="black" d="M298.61,-72C308.07,-72 317.67,-72 326.5,-72"/>
<polygon fill="black" stroke="black" points="326.46,-75.5 336.46,-72 326.46,-68.5 326.46,-75.5"/>
</g>
<!-- 18 -->
<!-- name: &quot;varint&quot;, typeName: &quot;&quot;, id: 18, branchId: 0, recurseId: &#45;1, attributes: 512, notes: &quot;&quot; -->
<g id="node5" class="node">
<title>18</title>
<ellipse fill="none" stroke="black" cx="365.24" cy="-18" rx="31.1" ry="18"/>
<text text-anchor="middle" x="365.24" y="-12.57" font-family="Times New Roman,serif" font-size="14.00">varint</text>
</g>
<!-- 17&#45;&gt;18 -->
<g id="edge4" class="edge">
<title>17&#45;&gt;18</title>
<path fill="none" stroke="black" d="M287.96,-18C299.34,-18 311.45,-18 322.59,-18"/>
<polygon fill="black" stroke="black" points="322.27,-21.5 332.27,-18 322.27,-14.5 322.27,-21.5"/>
</g>
</g>
</svg>
