<?xml version="1.0" encoding="UTF-8" standalone="no"?>
<!DOCTYPE svg PUBLIC "-//W3C//DTD SVG 1.1//EN"
 "http://www.w3.org/Graphics/SVG/1.1/DTD/svg11.dtd">
<!-- Generated by graphviz version 10.0.1 (20240210.2158)
 -->
<!-- Title: RemoveObjectivePacket Pages: 1 -->
<svg width="486pt" height="44pt"
 viewBox="0.00 0.00 486.18 44.00" xmlns="http://www.w3.org/2000/svg" xmlns:xlink="http://www.w3.org/1999/xlink">
<g id="graph0" class="graph" transform="scale(1 1) rotate(0) translate(4 40)">
<title>RemoveObjectivePacket</title>
<polygon fill="white" stroke="none" points="-4,4 -4,-40 482.18,-40 482.18,4 -4,4"/>
<!-- 0 -->
<!-- name: &quot;RemoveObjectivePacket&quot;, typeName: &quot;&quot;, id: 0, branchId: 106, recurseId: &#45;1, attributes: 0, notes: &quot;&quot; -->
<g id="node1" class="node">
<title>0</title>
<ellipse fill="none" stroke="black" cx="101.96" cy="-18" rx="101.96" ry="18"/>
<text text-anchor="middle" x="101.96" y="-12.57" font-family="Times New Roman,serif" font-size="14.00">RemoveObjectivePacket</text>
</g>
<!-- 1 -->
<!-- name: &quot;Objective Name&quot;, typeName: &quot;&quot;, id: 1, branchId: 0, recurseId: &#45;1, attributes: 0, notes: &quot;&quot; -->
<g id="node2" class="node">
<title>1</title>
<ellipse fill="none" stroke="black" cx="309.95" cy="-18" rx="70.03" ry="18"/>
<text text-anchor="middle" x="309.95" y="-12.57" font-family="Times New Roman,serif" font-size="14.00">Objective Name</text>
</g>
<!-- 0&#45;&gt;1 -->
<g id="edge1" class="edge">
<title>0&#45;&gt;1</title>
<path fill="none" stroke="black" d="M204.14,-18C212.21,-18 220.29,-18 228.19,-18"/>
<polygon fill="black" stroke="black" points="228.09,-21.5 238.09,-18 228.09,-14.5 228.09,-21.5"/>
</g>
<!-- 2 -->
<!-- name: &quot;string&quot;, typeName: &quot;&quot;, id: 2, branchId: 0, recurseId: &#45;1, attributes: 512, notes: &quot;&quot; -->
<g id="node3" class="node">
<title>2</title>
<ellipse fill="none" stroke="black" cx="447.08" cy="-18" rx="31.1" ry="18"/>
<text text-anchor="middle" x="447.08" y="-12.57" font-family="Times New Roman,serif" font-size="14.00">string</text>
</g>
<!-- 1&#45;&gt;2 -->
<g id="edge2" class="edge">
<title>1&#45;&gt;2</title>
<path fill="none" stroke="black" d="M380.1,-18C388.38,-18 396.62,-18 404.34,-18"/>
<polygon fill="black" stroke="black" points="404.07,-21.5 414.07,-18 404.07,-14.5 404.07,-21.5"/>
</g>
</g>
</svg>
