<?xml version="1.0" encoding="UTF-8" standalone="no"?>
<!DOCTYPE svg PUBLIC "-//W3C//DTD SVG 1.1//EN"
 "http://www.w3.org/Graphics/SVG/1.1/DTD/svg11.dtd">
<!-- Generated by graphviz version 14.1.5 (20260411.2331)
 -->
<!-- Title: RemoveTimeMarkerData Pages: 1 -->
<svg width="775pt" height="152pt"
 viewBox="0.00 0.00 775.00 152.00" xmlns="http://www.w3.org/2000/svg" xmlns:xlink="http://www.w3.org/1999/xlink">
<g id="graph0" class="graph" transform="scale(1 1) rotate(0) translate(4 148)">
<title>RemoveTimeMarkerData</title>
<polygon fill="white" stroke="none" points="-4,4 -4,-148 770.53,-148 770.53,4 -4,4"/>
<!-- 0 -->
<!-- name: &quot;RemoveTimeMarkerData&quot;, typeName: &quot;&quot;, id: 0, branchId: 0, recurseId: &#45;1, attributes: 0, notes: &quot;&quot; -->
<g id="node1" class="node">
<title>0</title>
<ellipse fill="none" stroke="black" cx="107.14" cy="-99" rx="107.14" ry="18"/>
<text xml:space="preserve" text-anchor="middle" x="107.14" y="-93.95" font-family="Times New Roman,serif" font-size="14.00">RemoveTimeMarkerData</text>
</g>
<!-- 1 -->
<!-- name: &quot;ClockId&quot;, typeName: &quot;&quot;, id: 1, branchId: 0, recurseId: &#45;1, attributes: 0, notes: &quot;&quot; -->
<g id="node2" class="node">
<title>1</title>
<ellipse fill="none" stroke="black" cx="320.05" cy="-126" rx="40.6" ry="18"/>
<text xml:space="preserve" text-anchor="middle" x="320.05" y="-120.95" font-family="Times New Roman,serif" font-size="14.00">ClockId</text>
</g>
<!-- 0&#45;&gt;1 -->
<g id="edge1" class="edge">
<title>0&#45;&gt;1</title>
<path fill="none" stroke="black" d="M193.62,-109.94C219.29,-113.23 246.6,-116.73 269.16,-119.61"/>
<polygon fill="black" stroke="black" points="268.63,-123.07 278.99,-120.87 269.52,-116.13 268.63,-123.07"/>
</g>
<!-- 3 -->
<!-- name: &quot;TimeMarkerIds&quot;, typeName: &quot;&quot;, id: 3, branchId: 0, recurseId: &#45;1, attributes: 0, notes: &quot;&quot; -->
<g id="node4" class="node">
<title>3</title>
<ellipse fill="none" stroke="black" cx="320.05" cy="-72" rx="69.78" ry="18"/>
<text xml:space="preserve" text-anchor="middle" x="320.05" y="-66.95" font-family="Times New Roman,serif" font-size="14.00">TimeMarkerIds</text>
</g>
<!-- 0&#45;&gt;3 -->
<g id="edge3" class="edge">
<title>0&#45;&gt;3</title>
<path fill="none" stroke="black" d="M193.62,-88.06C210.79,-85.86 228.68,-83.57 245.4,-81.43"/>
<polygon fill="black" stroke="black" points="245.79,-84.91 255.27,-80.17 244.9,-77.96 245.79,-84.91"/>
</g>
<!-- 2 -->
<!-- name: &quot;unsigned varint64&quot;, typeName: &quot;&quot;, id: 2, branchId: 0, recurseId: &#45;1, attributes: 512, notes: &quot;&quot; -->
<g id="node3" class="node">
<title>2</title>
<ellipse fill="none" stroke="black" cx="689.07" cy="-126" rx="77.45" ry="18"/>
<text xml:space="preserve" text-anchor="middle" x="689.07" y="-120.95" font-family="Times New Roman,serif" font-size="14.00">unsigned varint64</text>
</g>
<!-- 1&#45;&gt;2 -->
<g id="edge2" class="edge">
<title>1&#45;&gt;2</title>
<path fill="none" stroke="black" d="M361.03,-126C418.02,-126 524.12,-126 600.02,-126"/>
<polygon fill="black" stroke="black" points="599.94,-129.5 609.94,-126 599.94,-122.5 599.94,-129.5"/>
</g>
<!-- 4 -->
<!-- name: &quot;List Size&quot;, typeName: &quot;&quot;, id: 4, branchId: 0, recurseId: &#45;1, attributes: 0, notes: &quot;&quot; -->
<g id="node5" class="node">
<title>4</title>
<ellipse fill="none" stroke="black" cx="500.72" cy="-72" rx="43.67" ry="18"/>
<text xml:space="preserve" text-anchor="middle" x="500.72" y="-66.95" font-family="Times New Roman,serif" font-size="14.00">List Size</text>
</g>
<!-- 3&#45;&gt;4 -->
<g id="edge4" class="edge">
<title>3&#45;&gt;4</title>
<path fill="none" stroke="black" d="M390.13,-72C408.5,-72 428.07,-72 445.52,-72"/>
<polygon fill="black" stroke="black" points="445.13,-75.5 455.13,-72 445.13,-68.5 445.13,-75.5"/>
</g>
<!-- 6 -->
<!-- name: &quot;example element&quot;, typeName: &quot;&quot;, id: 6, branchId: 0, recurseId: &#45;1, attributes: 16, notes: &quot;&quot; -->
<g id="node7" class="node">
<title>6</title>
<ellipse fill="none" stroke="black" stroke-dasharray="1,5" cx="500.72" cy="-18" rx="74.89" ry="18"/>
<text xml:space="preserve" text-anchor="middle" x="500.72" y="-12.95" font-family="Times New Roman,serif" font-size="14.00">example element</text>
</g>
<!-- 3&#45;&gt;6 -->
<g id="edge6" class="edge">
<title>3&#45;&gt;6</title>
<path fill="none" stroke="black" d="M366.6,-58.23C389.47,-51.32 417.41,-42.88 441.79,-35.51"/>
<polygon fill="black" stroke="black" points="442.69,-38.89 451.25,-32.65 440.67,-32.19 442.69,-38.89"/>
</g>
<!-- 5 -->
<!-- name: &quot;unsigned varint&quot;, typeName: &quot;&quot;, id: 5, branchId: 0, recurseId: &#45;1, attributes: 0, notes: &quot;&quot; -->
<g id="node6" class="node">
<title>5</title>
<ellipse fill="none" stroke="black" cx="689.07" cy="-72" rx="68.24" ry="18"/>
<text xml:space="preserve" text-anchor="middle" x="689.07" y="-66.95" font-family="Times New Roman,serif" font-size="14.00">unsigned varint</text>
</g>
<!-- 4&#45;&gt;5 -->
<g id="edge5" class="edge">
<title>4&#45;&gt;5</title>
<path fill="none" stroke="black" d="M544.48,-72C563.69,-72 587,-72 609.2,-72"/>
<polygon fill="black" stroke="black" points="609.17,-75.5 619.17,-72 609.17,-68.5 609.17,-75.5"/>
</g>
<!-- 7 -->
<!-- name: &quot;unsigned int64&quot;, typeName: &quot;&quot;, id: 7, branchId: 0, recurseId: &#45;1, attributes: 512, notes: &quot;&quot; -->
<g id="node8" class="node">
<title>7</title>
<ellipse fill="none" stroke="black" cx="689.07" cy="-18" rx="65.68" ry="18"/>
<text xml:space="preserve" text-anchor="middle" x="689.07" y="-12.95" font-family="Times New Roman,serif" font-size="14.00">unsigned int64</text>
</g>
<!-- 6&#45;&gt;7 -->
<g id="edge7" class="edge">
<title>6&#45;&gt;7</title>
<path fill="none" stroke="black" d="M575.91,-18C587.75,-18 600.03,-18 611.92,-18"/>
<polygon fill="black" stroke="black" points="611.66,-21.5 621.66,-18 611.66,-14.5 611.66,-21.5"/>
</g>
</g>
</svg>
