<?xml version="1.0" encoding="UTF-8" standalone="no"?>
<!DOCTYPE svg PUBLIC "-//W3C//DTD SVG 1.1//EN"
 "http://www.w3.org/Graphics/SVG/1.1/DTD/svg11.dtd">
<!-- Generated by graphviz version 14.1.5 (20260411.2331)
 -->
<!-- Title: RemoveEnvironmentAttributesData Pages: 1 -->
<svg width="916pt" height="206pt"
 viewBox="0.00 0.00 916.00 206.00" xmlns="http://www.w3.org/2000/svg" xmlns:xlink="http://www.w3.org/1999/xlink">
<g id="graph0" class="graph" transform="scale(1 1) rotate(0) translate(4 202)">
<title>RemoveEnvironmentAttributesData</title>
<polygon fill="white" stroke="none" points="-4,4 -4,-202 911.79,-202 911.79,4 -4,4"/>
<!-- 0 -->
<!-- name: &quot;RemoveEnvironmentAttributesData&quot;, typeName: &quot;&quot;, id: 0, branchId: 0, recurseId: &#45;1, attributes: 0, notes: &quot;&quot; -->
<g id="node1" class="node">
<title>0</title>
<ellipse fill="none" stroke="black" cx="145.01" cy="-126" rx="145.01" ry="18"/>
<text xml:space="preserve" text-anchor="middle" x="145.01" y="-120.95" font-family="Times New Roman,serif" font-size="14.00">RemoveEnvironmentAttributesData</text>
</g>
<!-- 1 -->
<!-- name: &quot;Attribute Layer Name&quot;, typeName: &quot;&quot;, id: 1, branchId: 0, recurseId: &#45;1, attributes: 0, notes: &quot;&quot; -->
<g id="node2" class="node">
<title>1</title>
<ellipse fill="none" stroke="black" cx="437.77" cy="-180" rx="93.32" ry="18"/>
<text xml:space="preserve" text-anchor="middle" x="437.77" y="-174.95" font-family="Times New Roman,serif" font-size="14.00">Attribute Layer Name</text>
</g>
<!-- 0&#45;&gt;1 -->
<g id="edge1" class="edge">
<title>0&#45;&gt;1</title>
<path fill="none" stroke="black" d="M227.78,-141.19C268.62,-148.77 317.8,-157.9 358.19,-165.41"/>
<polygon fill="black" stroke="black" points="357.38,-168.81 367.85,-167.2 358.66,-161.93 357.38,-168.81"/>
</g>
<!-- 3 -->
<!-- name: &quot;Attribute Layer Dimension&quot;, typeName: &quot;&quot;, id: 3, branchId: 0, recurseId: &#45;1, attributes: 0, notes: &quot;&quot; -->
<g id="node4" class="node">
<title>3</title>
<ellipse fill="none" stroke="black" cx="437.77" cy="-126" rx="111.74" ry="18"/>
<text xml:space="preserve" text-anchor="middle" x="437.77" y="-120.95" font-family="Times New Roman,serif" font-size="14.00">Attribute Layer Dimension</text>
</g>
<!-- 0&#45;&gt;3 -->
<g id="edge3" class="edge">
<title>0&#45;&gt;3</title>
<path fill="none" stroke="black" d="M290.11,-126C298.27,-126 306.42,-126 314.49,-126"/>
<polygon fill="black" stroke="black" points="314.29,-129.5 324.29,-126 314.29,-122.5 314.29,-129.5"/>
</g>
<!-- 6 -->
<!-- name: &quot;Attributes&quot;, typeName: &quot;&quot;, id: 6, branchId: 0, recurseId: &#45;1, attributes: 0, notes: &quot;&quot; -->
<g id="node7" class="node">
<title>6</title>
<ellipse fill="none" stroke="black" cx="437.77" cy="-72" rx="47.77" ry="18"/>
<text xml:space="preserve" text-anchor="middle" x="437.77" y="-66.95" font-family="Times New Roman,serif" font-size="14.00">Attributes</text>
</g>
<!-- 0&#45;&gt;6 -->
<g id="edge6" class="edge">
<title>0&#45;&gt;6</title>
<path fill="none" stroke="black" d="M227.78,-110.81C277.58,-101.56 339.79,-90.01 383.33,-81.92"/>
<polygon fill="black" stroke="black" points="383.86,-85.39 393.05,-80.12 382.58,-78.5 383.86,-85.39"/>
</g>
<!-- 2 -->
<!-- name: &quot;string&quot;, typeName: &quot;&quot;, id: 2, branchId: 0, recurseId: &#45;1, attributes: 512, notes: &quot;&quot; -->
<g id="node3" class="node">
<title>2</title>
<ellipse fill="none" stroke="black" cx="839.54" cy="-180" rx="31.9" ry="18"/>
<text xml:space="preserve" text-anchor="middle" x="839.54" y="-174.95" font-family="Times New Roman,serif" font-size="14.00">string</text>
</g>
<!-- 1&#45;&gt;2 -->
<g id="edge2" class="edge">
<title>1&#45;&gt;2</title>
<path fill="none" stroke="black" d="M531.49,-180C614.7,-180 733.09,-180 795.77,-180"/>
<polygon fill="black" stroke="black" points="795.66,-183.5 805.66,-180 795.66,-176.5 795.66,-183.5"/>
</g>
<!-- 4 -->
<!-- name: &quot;value&quot;, typeName: &quot;&quot;, id: 4, branchId: 0, recurseId: &#45;1, attributes: 0, notes: &quot;&quot; -->
<g id="node5" class="node">
<title>4</title>
<ellipse fill="none" stroke="black" cx="660.41" cy="-126" rx="30.88" ry="18"/>
<text xml:space="preserve" text-anchor="middle" x="660.41" y="-120.95" font-family="Times New Roman,serif" font-size="14.00">value</text>
</g>
<!-- 3&#45;&gt;4 -->
<g id="edge4" class="edge">
<title>3&#45;&gt;4</title>
<path fill="none" stroke="black" d="M549.74,-126C574.09,-126 598.39,-126 617.91,-126"/>
<polygon fill="black" stroke="black" points="617.89,-129.5 627.89,-126 617.89,-122.5 617.89,-129.5"/>
</g>
<!-- 5 -->
<!-- name: &quot;varint&quot;, typeName: &quot;&quot;, id: 5, branchId: 0, recurseId: &#45;1, attributes: 512, notes: &quot;&quot; -->
<g id="node6" class="node">
<title>5</title>
<ellipse fill="none" stroke="black" cx="839.54" cy="-126" rx="32.41" ry="18"/>
<text xml:space="preserve" text-anchor="middle" x="839.54" y="-120.95" font-family="Times New Roman,serif" font-size="14.00">varint</text>
</g>
<!-- 4&#45;&gt;5 -->
<g id="edge5" class="edge">
<title>4&#45;&gt;5</title>
<path fill="none" stroke="black" d="M691.46,-126C720.03,-126 763.3,-126 795.53,-126"/>
<polygon fill="black" stroke="black" points="795.34,-129.5 805.34,-126 795.34,-122.5 795.34,-129.5"/>
</g>
<!-- 7 -->
<!-- name: &quot;List Size&quot;, typeName: &quot;&quot;, id: 7, branchId: 0, recurseId: &#45;1, attributes: 0, notes: &quot;&quot; -->
<g id="node8" class="node">
<title>7</title>
<ellipse fill="none" stroke="black" cx="660.41" cy="-72" rx="43.67" ry="18"/>
<text xml:space="preserve" text-anchor="middle" x="660.41" y="-66.95" font-family="Times New Roman,serif" font-size="14.00">List Size</text>
</g>
<!-- 6&#45;&gt;7 -->
<g id="edge7" class="edge">
<title>6&#45;&gt;7</title>
<path fill="none" stroke="black" d="M485.83,-72C520.78,-72 568.51,-72 605.08,-72"/>
<polygon fill="black" stroke="black" points="605.02,-75.5 615.02,-72 605.02,-68.5 605.02,-75.5"/>
</g>
<!-- 9 -->
<!-- name: &quot;example element&quot;, typeName: &quot;&quot;, id: 9, branchId: 0, recurseId: &#45;1, attributes: 16, notes: &quot;&quot; -->
<g id="node10" class="node">
<title>9</title>
<ellipse fill="none" stroke="black" stroke-dasharray="1,5" cx="660.41" cy="-18" rx="74.89" ry="18"/>
<text xml:space="preserve" text-anchor="middle" x="660.41" y="-12.95" font-family="Times New Roman,serif" font-size="14.00">example element</text>
</g>
<!-- 6&#45;&gt;9 -->
<g id="edge9" class="edge">
<title>6&#45;&gt;9</title>
<path fill="none" stroke="black" d="M478.73,-62.22C511.39,-54.23 558.18,-42.78 595.96,-33.53"/>
<polygon fill="black" stroke="black" points="596.51,-37 605.39,-31.22 594.85,-30.2 596.51,-37"/>
</g>
<!-- 8 -->
<!-- name: &quot;unsigned varint&quot;, typeName: &quot;&quot;, id: 8, branchId: 0, recurseId: &#45;1, attributes: 0, notes: &quot;&quot; -->
<g id="node9" class="node">
<title>8</title>
<ellipse fill="none" stroke="black" cx="839.54" cy="-72" rx="68.24" ry="18"/>
<text xml:space="preserve" text-anchor="middle" x="839.54" y="-66.95" font-family="Times New Roman,serif" font-size="14.00">unsigned varint</text>
</g>
<!-- 7&#45;&gt;8 -->
<g id="edge8" class="edge">
<title>7&#45;&gt;8</title>
<path fill="none" stroke="black" d="M704.29,-72C720.9,-72 740.47,-72 759.45,-72"/>
<polygon fill="black" stroke="black" points="759.33,-75.5 769.32,-72 759.32,-68.5 759.33,-75.5"/>
</g>
<!-- 10 -->
<!-- name: &quot;string&quot;, typeName: &quot;&quot;, id: 10, branchId: 0, recurseId: &#45;1, attributes: 512, notes: &quot;&quot; -->
<g id="node11" class="node">
<title>10</title>
<ellipse fill="none" stroke="black" cx="839.54" cy="-18" rx="31.9" ry="18"/>
<text xml:space="preserve" text-anchor="middle" x="839.54" y="-12.95" font-family="Times New Roman,serif" font-size="14.00">string</text>
</g>
<!-- 9&#45;&gt;10 -->
<g id="edge10" class="edge">
<title>9&#45;&gt;10</title>
<path fill="none" stroke="black" d="M735.76,-18C756.26,-18 777.81,-18 795.85,-18"/>
<polygon fill="black" stroke="black" points="795.64,-21.5 805.64,-18 795.64,-14.5 795.64,-21.5"/>
</g>
</g>
</svg>
