<?xml version="1.0" encoding="UTF-8" standalone="no"?>
<!DOCTYPE svg PUBLIC "-//W3C//DTD SVG 1.1//EN"
 "http://www.w3.org/Graphics/SVG/1.1/DTD/svg11.dtd">
<!-- Generated by graphviz version 11.0.0 (20240428.1522)
 -->
<!-- Title: RequestNetworkSettingsPacket Pages: 1 -->
<svg width="641pt" height="44pt"
 viewBox="0.00 0.00 640.87 44.00" xmlns="http://www.w3.org/2000/svg" xmlns:xlink="http://www.w3.org/1999/xlink">
<g id="graph0" class="graph" transform="scale(1 1) rotate(0) translate(4 40)">
<title>RequestNetworkSettingsPacket</title>
<polygon fill="white" stroke="none" points="-4,4 -4,-40 636.87,-40 636.87,4 -4,4"/>
<!-- 0 -->
<!-- name: &quot;RequestNetworkSettingsPacket&quot;, typeName: &quot;&quot;, id: 0, branchId: 193, recurseId: &#45;1, attributes: 0, notes: &quot;&quot; -->
<g id="node1" class="node">
<title>0</title>
<ellipse fill="none" stroke="black" cx="127.41" cy="-18" rx="127.41" ry="18"/>
<text text-anchor="middle" x="127.41" y="-12.57" font-family="Times New Roman,serif" font-size="14.00">RequestNetworkSettingsPacket</text>
</g>
<!-- 1 -->
<!-- name: &quot;ClientNetworkVersion&quot;, typeName: &quot;&quot;, id: 1, branchId: 0, recurseId: &#45;1, attributes: 0, notes: &quot;&quot; -->
<g id="node2" class="node">
<title>1</title>
<ellipse fill="none" stroke="black" cx="383.8" cy="-18" rx="92.98" ry="18"/>
<text text-anchor="middle" x="383.8" y="-12.57" font-family="Times New Roman,serif" font-size="14.00">ClientNetworkVersion</text>
</g>
<!-- 0&#45;&gt;1 -->
<g id="edge1" class="edge">
<title>0&#45;&gt;1</title>
<path fill="none" stroke="black" d="M255.23,-18C263.26,-18 271.29,-18 279.19,-18"/>
<polygon fill="black" stroke="black" points="279.15,-21.5 289.15,-18 279.15,-14.5 279.15,-21.5"/>
</g>
<!-- 2 -->
<!-- name: &quot;big endian int&quot;, typeName: &quot;&quot;, id: 2, branchId: 0, recurseId: &#45;1, attributes: 512, notes: &quot;&quot; -->
<g id="node3" class="node">
<title>2</title>
<ellipse fill="none" stroke="black" cx="572.83" cy="-18" rx="60.05" ry="18"/>
<text text-anchor="middle" x="572.83" y="-12.57" font-family="Times New Roman,serif" font-size="14.00">big endian int</text>
</g>
<!-- 1&#45;&gt;2 -->
<g id="edge2" class="edge">
<title>1&#45;&gt;2</title>
<path fill="none" stroke="black" d="M477.22,-18C485.25,-18 493.3,-18 501.13,-18"/>
<polygon fill="black" stroke="black" points="500.88,-21.5 510.88,-18 500.88,-14.5 500.88,-21.5"/>
</g>
</g>
</svg>
