<?xml version="1.0" encoding="UTF-8" standalone="no"?>
<!DOCTYPE svg PUBLIC "-//W3C//DTD SVG 1.1//EN"
 "http://www.w3.org/Graphics/SVG/1.1/DTD/svg11.dtd">
<!-- Generated by graphviz version 2.46.1 (20210213.1702)
 -->
<!-- Title: RequestPermissionsPacket Pages: 1 -->
<svg width="636pt" height="152pt"
 viewBox="0.00 0.00 636.35 152.00" xmlns="http://www.w3.org/2000/svg" xmlns:xlink="http://www.w3.org/1999/xlink">
<g id="graph0" class="graph" transform="scale(1 1) rotate(0) translate(4 148)">
<title>RequestPermissionsPacket</title>
<polygon fill="white" stroke="transparent" points="-4,4 -4,-148 632.35,-148 632.35,4 -4,4"/>
<!-- 0 -->
<!-- name: &quot;RequestPermissionsPacket&quot;, typeName: &quot;&quot;, id: 0, branchId: 185, recurseId: &#45;1, attributes: 0, notes: &quot;&quot; -->
<g id="node1" class="node">
<title>0</title>
<ellipse fill="none" stroke="black" cx="108.54" cy="-72" rx="108.58" ry="18"/>
<text text-anchor="middle" x="108.54" y="-68.3" font-family="Times New Roman,serif" font-size="14.00">RequestPermissionsPacket</text>
</g>
<!-- 1 -->
<!-- name: &quot;Target Player Id&#39;s Raw ID&quot;, typeName: &quot;&quot;, id: 1, branchId: 0, recurseId: &#45;1, attributes: 0, notes: &quot;mTargetPlayerId is a ActorUniqueID&quot; -->
<g id="node2" class="node">
<title>1</title>
<ellipse fill="none" stroke="black" cx="359.02" cy="-126" rx="105.88" ry="18"/>
<text text-anchor="middle" x="359.02" y="-122.3" font-family="Times New Roman,serif" font-size="14.00">Target Player Id&#39;s Raw ID</text>
</g>
<!-- 0&#45;&gt;1 -->
<g id="edge1" class="edge">
<title>0&#45;&gt;1</title>
<path fill="none" stroke="black" d="M175.15,-86.26C208.26,-93.45 248.58,-102.22 282.92,-109.68"/>
<polygon fill="black" stroke="black" points="282.39,-113.15 292.91,-111.85 283.88,-106.31 282.39,-113.15"/>
</g>
<!-- 3 -->
<!-- name: &quot;Player Permission Level&quot;, typeName: &quot;&quot;, id: 3, branchId: 0, recurseId: &#45;1, attributes: 0, notes: &quot;enumeration: PlayerPermissionLevel&quot; -->
<g id="node4" class="node">
<title>3</title>
<ellipse fill="none" stroke="black" cx="359.02" cy="-72" rx="97.48" ry="18"/>
<text text-anchor="middle" x="359.02" y="-68.3" font-family="Times New Roman,serif" font-size="14.00">Player Permission Level</text>
</g>
<!-- 0&#45;&gt;3 -->
<g id="edge3" class="edge">
<title>0&#45;&gt;3</title>
<path fill="none" stroke="black" d="M217.08,-72C228.33,-72 239.76,-72 251,-72"/>
<polygon fill="black" stroke="black" points="251.26,-75.5 261.26,-72 251.26,-68.5 251.26,-75.5"/>
</g>
<!-- 5 -->
<!-- name: &quot;Custom Permission Flags&quot;, typeName: &quot;&quot;, id: 5, branchId: 0, recurseId: &#45;1, attributes: 0, notes: &quot;&quot; -->
<g id="node6" class="node">
<title>5</title>
<ellipse fill="none" stroke="black" cx="359.02" cy="-18" rx="103.98" ry="18"/>
<text text-anchor="middle" x="359.02" y="-14.3" font-family="Times New Roman,serif" font-size="14.00">Custom Permission Flags</text>
</g>
<!-- 0&#45;&gt;5 -->
<g id="edge5" class="edge">
<title>0&#45;&gt;5</title>
<path fill="none" stroke="black" d="M175.15,-57.74C208.39,-50.52 248.9,-41.72 283.33,-34.23"/>
<polygon fill="black" stroke="black" points="284.31,-37.6 293.34,-32.06 282.82,-30.76 284.31,-37.6"/>
</g>
<!-- 2 -->
<!-- name: &quot;int64&quot;, typeName: &quot;&quot;, id: 2, branchId: 0, recurseId: &#45;1, attributes: 512, notes: &quot;&quot; -->
<g id="node3" class="node">
<title>2</title>
<ellipse fill="none" stroke="black" cx="564.66" cy="-126" rx="28.7" ry="18"/>
<text text-anchor="middle" x="564.66" y="-122.3" font-family="Times New Roman,serif" font-size="14.00">int64</text>
</g>
<!-- 1&#45;&gt;2 -->
<g id="edge2" class="edge">
<title>1&#45;&gt;2</title>
<path fill="none" stroke="black" d="M465.12,-126C486.86,-126 508.41,-126 525.78,-126"/>
<polygon fill="black" stroke="black" points="526.02,-129.5 536.02,-126 526.02,-122.5 526.02,-129.5"/>
</g>
<!-- 4 -->
<!-- name: &quot;byte&quot;, typeName: &quot;&quot;, id: 4, branchId: 0, recurseId: &#45;1, attributes: 512, notes: &quot;&quot; -->
<g id="node5" class="node">
<title>4</title>
<ellipse fill="none" stroke="black" cx="564.66" cy="-72" rx="27" ry="18"/>
<text text-anchor="middle" x="564.66" y="-68.3" font-family="Times New Roman,serif" font-size="14.00">byte</text>
</g>
<!-- 3&#45;&gt;4 -->
<g id="edge4" class="edge">
<title>3&#45;&gt;4</title>
<path fill="none" stroke="black" d="M456.77,-72C482,-72 507.64,-72 527.48,-72"/>
<polygon fill="black" stroke="black" points="527.58,-75.5 537.58,-72 527.58,-68.5 527.58,-75.5"/>
</g>
<!-- 6 -->
<!-- name: &quot;unsigned short&quot;, typeName: &quot;&quot;, id: 6, branchId: 0, recurseId: &#45;1, attributes: 512, notes: &quot;&quot; -->
<g id="node7" class="node">
<title>6</title>
<ellipse fill="none" stroke="black" cx="564.66" cy="-18" rx="63.89" ry="18"/>
<text text-anchor="middle" x="564.66" y="-14.3" font-family="Times New Roman,serif" font-size="14.00">unsigned short</text>
</g>
<!-- 5&#45;&gt;6 -->
<g id="edge6" class="edge">
<title>5&#45;&gt;6</title>
<path fill="none" stroke="black" d="M463.03,-18C472.42,-18 481.8,-18 490.84,-18"/>
<polygon fill="black" stroke="black" points="490.89,-21.5 500.89,-18 490.89,-14.5 490.89,-21.5"/>
</g>
</g>
</svg>
