<?xml version="1.0" encoding="UTF-8" standalone="no"?>
<!DOCTYPE svg PUBLIC "-//W3C//DTD SVG 1.1//EN"
 "http://www.w3.org/Graphics/SVG/1.1/DTD/svg11.dtd">
<!-- Generated by graphviz version 2.46.1 (20210213.1702)
 -->
<!-- Title: RequestNetworkSettingsPacket Pages: 1 -->
<svg width="630pt" height="44pt"
 viewBox="0.00 0.00 629.85 44.00" xmlns="http://www.w3.org/2000/svg" xmlns:xlink="http://www.w3.org/1999/xlink">
<g id="graph0" class="graph" transform="scale(1 1) rotate(0) translate(4 40)">
<title>RequestNetworkSettingsPacket</title>
<polygon fill="white" stroke="transparent" points="-4,4 -4,-40 625.85,-40 625.85,4 -4,4"/>
<!-- 0 -->
<!-- name: &quot;RequestNetworkSettingsPacket&quot;, typeName: &quot;&quot;, id: 0, branchId: 193, recurseId: &#45;1, attributes: 0, notes: &quot;&quot; -->
<g id="node1" class="node">
<title>0</title>
<ellipse fill="none" stroke="black" cx="124.79" cy="-18" rx="124.58" ry="18"/>
<text text-anchor="middle" x="124.79" y="-14.3" font-family="Times New Roman,serif" font-size="14.00">RequestNetworkSettingsPacket</text>
</g>
<!-- 1 -->
<!-- name: &quot;ClientNetworkVersion&quot;, typeName: &quot;&quot;, id: 1, branchId: 0, recurseId: &#45;1, attributes: 0, notes: &quot;&quot; -->
<g id="node2" class="node">
<title>1</title>
<ellipse fill="none" stroke="black" cx="376.57" cy="-18" rx="90.98" ry="18"/>
<text text-anchor="middle" x="376.57" y="-14.3" font-family="Times New Roman,serif" font-size="14.00">ClientNetworkVersion</text>
</g>
<!-- 0&#45;&gt;1 -->
<g id="edge1" class="edge">
<title>0&#45;&gt;1</title>
<path fill="none" stroke="black" d="M249.58,-18C258.13,-18 266.68,-18 275.08,-18"/>
<polygon fill="black" stroke="black" points="275.24,-21.5 285.24,-18 275.24,-14.5 275.24,-21.5"/>
</g>
<!-- 2 -->
<!-- name: &quot;big endian int&quot;, typeName: &quot;&quot;, id: 2, branchId: 0, recurseId: &#45;1, attributes: 512, notes: &quot;&quot; -->
<g id="node3" class="node">
<title>2</title>
<ellipse fill="none" stroke="black" cx="562.71" cy="-18" rx="59.29" ry="18"/>
<text text-anchor="middle" x="562.71" y="-14.3" font-family="Times New Roman,serif" font-size="14.00">big endian int</text>
</g>
<!-- 1&#45;&gt;2 -->
<g id="edge2" class="edge">
<title>1&#45;&gt;2</title>
<path fill="none" stroke="black" d="M467.75,-18C476.37,-18 485,-18 493.36,-18"/>
<polygon fill="black" stroke="black" points="493.4,-21.5 503.4,-18 493.4,-14.5 493.4,-21.5"/>
</g>
</g>
</svg>
