<?xml version="1.0" encoding="UTF-8" standalone="no"?>
<!DOCTYPE svg PUBLIC "-//W3C//DTD SVG 1.1//EN"
 "http://www.w3.org/Graphics/SVG/1.1/DTD/svg11.dtd">
<!-- Generated by graphviz version 12.2.1 (20241206.2353)
 -->
<!-- Title: RequestChunkRadiusPacket Pages: 1 -->
<svg width="538pt" height="98pt"
 viewBox="0.00 0.00 537.56 98.00" xmlns="http://www.w3.org/2000/svg" xmlns:xlink="http://www.w3.org/1999/xlink">
<g id="graph0" class="graph" transform="scale(1 1) rotate(0) translate(4 94)">
<title>RequestChunkRadiusPacket</title>
<polygon fill="white" stroke="none" points="-4,4 -4,-94 533.56,-94 533.56,4 -4,4"/>
<!-- 0 -->
<!-- name: &quot;RequestChunkRadiusPacket&quot;, typeName: &quot;&quot;, id: 0, branchId: 69, recurseId: &#45;1, attributes: 0, notes: &quot;&quot; -->
<g id="node1" class="node">
<title>0</title>
<ellipse fill="none" stroke="black" cx="115.33" cy="-45" rx="115.33" ry="18"/>
<text text-anchor="middle" x="115.33" y="-39.95" font-family="Times New Roman,serif" font-size="14.00">RequestChunkRadiusPacket</text>
</g>
<!-- 1 -->
<!-- name: &quot;Chunk Radius&quot;, typeName: &quot;&quot;, id: 1, branchId: 0, recurseId: &#45;1, attributes: 0, notes: &quot;&quot; -->
<g id="node2" class="node">
<title>1</title>
<ellipse fill="none" stroke="black" cx="347.69" cy="-72" rx="63.63" ry="18"/>
<text text-anchor="middle" x="347.69" y="-66.95" font-family="Times New Roman,serif" font-size="14.00">Chunk Radius</text>
</g>
<!-- 0&#45;&gt;1 -->
<g id="edge1" class="edge">
<title>0&#45;&gt;1</title>
<path fill="none" stroke="black" d="M209.03,-55.87C231.71,-58.52 255.6,-61.32 276.99,-63.83"/>
<polygon fill="black" stroke="black" points="276.42,-67.29 286.76,-64.98 277.24,-60.34 276.42,-67.29"/>
</g>
<!-- 3 -->
<!-- name: &quot;Max ChunkRadius&quot;, typeName: &quot;&quot;, id: 3, branchId: 0, recurseId: &#45;1, attributes: 0, notes: &quot;&quot; -->
<g id="node4" class="node">
<title>3</title>
<ellipse fill="none" stroke="black" cx="347.69" cy="-18" rx="81.04" ry="18"/>
<text text-anchor="middle" x="347.69" y="-12.95" font-family="Times New Roman,serif" font-size="14.00">Max ChunkRadius</text>
</g>
<!-- 0&#45;&gt;3 -->
<g id="edge3" class="edge">
<title>0&#45;&gt;3</title>
<path fill="none" stroke="black" d="M209.03,-34.13C227.17,-32.01 246.08,-29.79 263.86,-27.71"/>
<polygon fill="black" stroke="black" points="264.05,-31.21 273.57,-26.57 263.23,-24.26 264.05,-31.21"/>
</g>
<!-- 2 -->
<!-- name: &quot;varint&quot;, typeName: &quot;&quot;, id: 2, branchId: 0, recurseId: &#45;1, attributes: 512, notes: &quot;&quot; -->
<g id="node3" class="node">
<title>2</title>
<ellipse fill="none" stroke="black" cx="497.14" cy="-72" rx="32.41" ry="18"/>
<text text-anchor="middle" x="497.14" y="-66.95" font-family="Times New Roman,serif" font-size="14.00">varint</text>
</g>
<!-- 1&#45;&gt;2 -->
<g id="edge2" class="edge">
<title>1&#45;&gt;2</title>
<path fill="none" stroke="black" d="M411.65,-72C425.55,-72 439.98,-72 452.89,-72"/>
<polygon fill="black" stroke="black" points="452.75,-75.5 462.75,-72 452.75,-68.5 452.75,-75.5"/>
</g>
<!-- 4 -->
<!-- name: &quot;byte&quot;, typeName: &quot;&quot;, id: 4, branchId: 0, recurseId: &#45;1, attributes: 512, notes: &quot;&quot; -->
<g id="node5" class="node">
<title>4</title>
<ellipse fill="none" stroke="black" cx="497.14" cy="-18" rx="27" ry="18"/>
<text text-anchor="middle" x="497.14" y="-12.95" font-family="Times New Roman,serif" font-size="14.00">byte</text>
</g>
<!-- 3&#45;&gt;4 -->
<g id="edge4" class="edge">
<title>3&#45;&gt;4</title>
<path fill="none" stroke="black" d="M428.89,-18C439.13,-18 449.2,-18 458.3,-18"/>
<polygon fill="black" stroke="black" points="458.14,-21.5 468.14,-18 458.14,-14.5 458.14,-21.5"/>
</g>
</g>
</svg>
