<?xml version="1.0" encoding="UTF-8" standalone="no"?>
<!DOCTYPE svg PUBLIC "-//W3C//DTD SVG 1.1//EN"
 "http://www.w3.org/Graphics/SVG/1.1/DTD/svg11.dtd">
<!-- Generated by graphviz version 10.0.1 (20240210.2158)
 -->
<!-- Title: RequestPermissionsPacket Pages: 1 -->
<svg width="648pt" height="152pt"
 viewBox="0.00 0.00 647.86 152.00" xmlns="http://www.w3.org/2000/svg" xmlns:xlink="http://www.w3.org/1999/xlink">
<g id="graph0" class="graph" transform="scale(1 1) rotate(0) translate(4 148)">
<title>RequestPermissionsPacket</title>
<polygon fill="white" stroke="none" points="-4,4 -4,-148 643.86,-148 643.86,4 -4,4"/>
<!-- 0 -->
<!-- name: &quot;RequestPermissionsPacket&quot;, typeName: &quot;&quot;, id: 0, branchId: 185, recurseId: &#45;1, attributes: 0, notes: &quot;&quot; -->
<g id="node1" class="node">
<title>0</title>
<ellipse fill="none" stroke="black" cx="110.94" cy="-72" rx="110.94" ry="18"/>
<text text-anchor="middle" x="110.94" y="-66.58" font-family="Times New Roman,serif" font-size="14.00">RequestPermissionsPacket</text>
</g>
<!-- 1 -->
<!-- name: &quot;Target Player Id&#39;s Raw ID&quot;, typeName: &quot;&quot;, id: 1, branchId: 0, recurseId: &#45;1, attributes: 0, notes: &quot;mTargetPlayerId is a ActorUniqueID&quot; -->
<g id="node2" class="node">
<title>1</title>
<ellipse fill="none" stroke="black" cx="365.84" cy="-126" rx="107.95" ry="18"/>
<text text-anchor="middle" x="365.84" y="-120.58" font-family="Times New Roman,serif" font-size="14.00">Target Player Id&#39;s Raw ID</text>
</g>
<!-- 0&#45;&gt;1 -->
<g id="edge1" class="edge">
<title>0&#45;&gt;1</title>
<path fill="none" stroke="black" d="M179.71,-86.47C212.72,-93.52 252.58,-102.03 286.84,-109.35"/>
<polygon fill="black" stroke="black" points="285.76,-112.69 296.28,-111.36 287.23,-105.85 285.76,-112.69"/>
</g>
<!-- 3 -->
<!-- name: &quot;Player Permission Level&quot;, typeName: &quot;&quot;, id: 3, branchId: 0, recurseId: &#45;1, attributes: 0, notes: &quot;&quot; -->
<g id="node4" class="node">
<title>3</title>
<ellipse fill="none" stroke="black" cx="365.84" cy="-72" rx="99.47" ry="18"/>
<text text-anchor="middle" x="365.84" y="-66.58" font-family="Times New Roman,serif" font-size="14.00">Player Permission Level</text>
</g>
<!-- 0&#45;&gt;3 -->
<g id="edge3" class="edge">
<title>0&#45;&gt;3</title>
<path fill="none" stroke="black" d="M222.13,-72C233,-72 244.03,-72 254.89,-72"/>
<polygon fill="black" stroke="black" points="254.63,-75.5 264.63,-72 254.63,-68.5 254.63,-75.5"/>
</g>
<!-- 5 -->
<!-- name: &quot;Custom Permission Flags&quot;, typeName: &quot;&quot;, id: 5, branchId: 0, recurseId: &#45;1, attributes: 0, notes: &quot;&quot; -->
<g id="node6" class="node">
<title>5</title>
<ellipse fill="none" stroke="black" cx="365.84" cy="-18" rx="105.95" ry="18"/>
<text text-anchor="middle" x="365.84" y="-12.57" font-family="Times New Roman,serif" font-size="14.00">Custom Permission Flags</text>
</g>
<!-- 0&#45;&gt;5 -->
<g id="edge5" class="edge">
<title>0&#45;&gt;5</title>
<path fill="none" stroke="black" d="M179.71,-57.53C212.85,-50.45 252.9,-41.9 287.25,-34.57"/>
<polygon fill="black" stroke="black" points="287.66,-38.06 296.71,-32.55 286.2,-31.21 287.66,-38.06"/>
</g>
<!-- 2 -->
<!-- name: &quot;int64&quot;, typeName: &quot;&quot;, id: 2, branchId: 0, recurseId: &#45;1, attributes: 512, notes: &quot;&quot; -->
<g id="node3" class="node">
<title>2</title>
<ellipse fill="none" stroke="black" cx="574.82" cy="-126" rx="28.61" ry="18"/>
<text text-anchor="middle" x="574.82" y="-120.58" font-family="Times New Roman,serif" font-size="14.00">int64</text>
</g>
<!-- 1&#45;&gt;2 -->
<g id="edge2" class="edge">
<title>1&#45;&gt;2</title>
<path fill="none" stroke="black" d="M474.27,-126C495.86,-126 517.23,-126 534.6,-126"/>
<polygon fill="black" stroke="black" points="534.42,-129.5 544.42,-126 534.42,-122.5 534.42,-129.5"/>
</g>
<!-- 4 -->
<!-- name: &quot;varint&quot;, typeName: &quot;&quot;, id: 4, branchId: 0, recurseId: &#45;1, attributes: 512, notes: &quot;&quot; -->
<g id="node5" class="node">
<title>4</title>
<ellipse fill="none" stroke="black" cx="574.82" cy="-72" rx="31.1" ry="18"/>
<text text-anchor="middle" x="574.82" y="-66.58" font-family="Times New Roman,serif" font-size="14.00">varint</text>
</g>
<!-- 3&#45;&gt;4 -->
<g id="edge4" class="edge">
<title>3&#45;&gt;4</title>
<path fill="none" stroke="black" d="M465.78,-72C489.19,-72 512.92,-72 532.15,-72"/>
<polygon fill="black" stroke="black" points="531.98,-75.5 541.98,-72 531.98,-68.5 531.98,-75.5"/>
</g>
<!-- 6 -->
<!-- name: &quot;unsigned short&quot;, typeName: &quot;&quot;, id: 6, branchId: 0, recurseId: &#45;1, attributes: 512, notes: &quot;&quot; -->
<g id="node7" class="node">
<title>6</title>
<ellipse fill="none" stroke="black" cx="574.82" cy="-18" rx="65.04" ry="18"/>
<text text-anchor="middle" x="574.82" y="-12.57" font-family="Times New Roman,serif" font-size="14.00">unsigned short</text>
</g>
<!-- 5&#45;&gt;6 -->
<g id="edge6" class="edge">
<title>5&#45;&gt;6</title>
<path fill="none" stroke="black" d="M472.15,-18C480.87,-18 489.57,-18 498.01,-18"/>
<polygon fill="black" stroke="black" points="497.81,-21.5 507.81,-18 497.81,-14.5 497.81,-21.5"/>
</g>
</g>
</svg>
