<?xml version="1.0" encoding="UTF-8" standalone="no"?>
<!DOCTYPE svg PUBLIC "-//W3C//DTD SVG 1.1//EN"
 "http://www.w3.org/Graphics/SVG/1.1/DTD/svg11.dtd">
<!-- Generated by graphviz version 13.1.2 (20250808.2320)
 -->
<!-- Title: RequestNetworkSettingsPacket Pages: 1 -->
<svg width="576pt" height="44pt"
 viewBox="0.00 0.00 576.00 44.00" xmlns="http://www.w3.org/2000/svg" xmlns:xlink="http://www.w3.org/1999/xlink">
<g id="graph0" class="graph" transform="scale(1 1) rotate(0) translate(4 40)">
<title>RequestNetworkSettingsPacket</title>
<polygon fill="white" stroke="none" points="-4,4 -4,-40 571.86,-40 571.86,4 -4,4"/>
<!-- 0 -->
<!-- name: &quot;RequestNetworkSettingsPacket&quot;, typeName: &quot;&quot;, id: 0, branchId: 0, recurseId: &#45;1, attributes: 0, notes: &quot;Requests tunable options from host to client (compression threshold and algorithm).&quot; -->
<g id="node1" class="node">
<title>0</title>
<ellipse fill="none" stroke="black" cx="127.1" cy="-18" rx="127.1" ry="18"/>
<text xml:space="preserve" text-anchor="middle" x="127.1" y="-12.95" font-family="Times New Roman,serif" font-size="14.00">RequestNetworkSettingsPacket</text>
</g>
<!-- 1 -->
<!-- name: &quot;ClientNetworkVersion&quot;, typeName: &quot;&quot;, id: 1, branchId: 0, recurseId: &#45;1, attributes: 0, notes: &quot;&quot; -->
<g id="node2" class="node">
<title>1</title>
<ellipse fill="none" stroke="black" cx="384.03" cy="-18" rx="93.83" ry="18"/>
<text xml:space="preserve" text-anchor="middle" x="384.03" y="-12.95" font-family="Times New Roman,serif" font-size="14.00">ClientNetworkVersion</text>
</g>
<!-- 0&#45;&gt;1 -->
<g id="edge1" class="edge">
<title>0&#45;&gt;1</title>
<path fill="none" stroke="black" d="M254.44,-18C262.44,-18 270.43,-18 278.31,-18"/>
<polygon fill="black" stroke="black" points="278.24,-21.5 288.24,-18 278.24,-14.5 278.24,-21.5"/>
</g>
<!-- 2 -->
<!-- name: &quot;int&quot;, typeName: &quot;&quot;, id: 2, branchId: 0, recurseId: &#45;1, attributes: 512, notes: &quot;&quot; -->
<g id="node3" class="node">
<title>2</title>
<ellipse fill="none" stroke="black" cx="540.86" cy="-18" rx="27" ry="18"/>
<text xml:space="preserve" text-anchor="middle" x="540.86" y="-12.95" font-family="Times New Roman,serif" font-size="14.00">int</text>
</g>
<!-- 1&#45;&gt;2 -->
<g id="edge2" class="edge">
<title>1&#45;&gt;2</title>
<path fill="none" stroke="black" d="M478.22,-18C486.61,-18 494.74,-18 502.2,-18"/>
<polygon fill="black" stroke="black" points="502.15,-21.5 512.15,-18 502.15,-14.5 502.15,-21.5"/>
</g>
</g>
</svg>
