<?xml version="1.0" encoding="UTF-8" standalone="no"?>
<!DOCTYPE svg PUBLIC "-//W3C//DTD SVG 1.1//EN"
 "http://www.w3.org/Graphics/SVG/1.1/DTD/svg11.dtd">
<!-- Generated by graphviz version 9.0.0 (20230911.1827)
 -->
<!-- Title: ResourcePackStackPacket Pages: 1 -->
<svg width="1035pt" height="584pt"
 viewBox="0.00 0.00 1034.89 584.00" xmlns="http://www.w3.org/2000/svg" xmlns:xlink="http://www.w3.org/1999/xlink">
<g id="graph0" class="graph" transform="scale(1 1) rotate(0) translate(4 580)">
<title>ResourcePackStackPacket</title>
<polygon fill="white" stroke="none" points="-4,4 -4,-580 1030.89,-580 1030.89,4 -4,4"/>
<!-- 0 -->
<!-- name: &quot;ResourcePackStackPacket&quot;, typeName: &quot;&quot;, id: 0, branchId: 7, recurseId: &#45;1, attributes: 0, notes: &quot;&quot; -->
<g id="node1" class="node">
<title>0</title>
<ellipse fill="none" stroke="black" cx="110.44" cy="-221" rx="110.44" ry="18"/>
<text text-anchor="middle" x="110.44" y="-215.57" font-family="Times New Roman,serif" font-size="14.00">ResourcePackStackPacket</text>
</g>
<!-- 1 -->
<!-- name: &quot;Texture Pack Required&quot;, typeName: &quot;&quot;, id: 1, branchId: 0, recurseId: &#45;1, attributes: 0, notes: &quot;&quot; -->
<g id="node2" class="node">
<title>1</title>
<ellipse fill="none" stroke="black" cx="558.35" cy="-544" rx="96.47" ry="18"/>
<text text-anchor="middle" x="558.35" y="-538.58" font-family="Times New Roman,serif" font-size="14.00">Texture Pack Required</text>
</g>
<!-- 0&#45;&gt;1 -->
<g id="edge1" class="edge">
<title>0&#45;&gt;1</title>
<path fill="none" stroke="black" d="M120.09,-239.28C139.37,-278.24 189.55,-370.22 256.89,-423 324.98,-476.37 419.75,-509.3 484.54,-527.07"/>
<polygon fill="black" stroke="black" points="483.44,-530.4 494.01,-529.61 485.26,-523.64 483.44,-530.4"/>
</g>
<!-- 3 -->
<!-- name: &quot;Add&#45;On List&quot;, typeName: &quot;&quot;, id: 3, branchId: 0, recurseId: &#45;1, attributes: 8, notes: &quot;&quot; -->
<g id="node4" class="node">
<title>3</title>
<ellipse fill="none" stroke="black" cx="341.39" cy="-396" rx="58.05" ry="18"/>
<text text-anchor="middle" x="341.39" y="-390.57" font-family="Times New Roman,serif" font-size="14.00">Add&#45;On List</text>
</g>
<!-- 0&#45;&gt;3 -->
<g id="edge3" class="edge">
<title>0&#45;&gt;3</title>
<path fill="none" stroke="black" d="M134.66,-238.74C176.13,-270.45 262.97,-336.83 309.46,-372.36"/>
<polygon fill="black" stroke="black" points="307.19,-375.03 317.26,-378.32 311.44,-369.47 307.19,-375.03"/>
</g>
<!-- 13 -->
<!-- name: &quot;Texture Pack List&quot;, typeName: &quot;&quot;, id: 13, branchId: 0, recurseId: &#45;1, attributes: 8, notes: &quot;&quot; -->
<g id="node14" class="node">
<title>13</title>
<ellipse fill="none" stroke="black" cx="341.39" cy="-221" rx="76.51" ry="18"/>
<text text-anchor="middle" x="341.39" y="-215.57" font-family="Times New Roman,serif" font-size="14.00">Texture Pack List</text>
</g>
<!-- 0&#45;&gt;13 -->
<g id="edge13" class="edge">
<title>0&#45;&gt;13</title>
<path fill="none" stroke="black" d="M221.22,-221C232.01,-221 242.85,-221 253.37,-221"/>
<polygon fill="black" stroke="black" points="253.11,-224.5 263.11,-221 253.11,-217.5 253.11,-224.5"/>
</g>
<!-- 23 -->
<!-- name: &quot;Base Game Version&quot;, typeName: &quot;BaseGameVersion&quot;, id: 23, branchId: 0, recurseId: &#45;1, attributes: 256, notes: &quot;For clients to be able to set their stack to the right version.&quot; -->
<g id="node24" class="node">
<title>23</title>
<ellipse fill="none" stroke="black" cx="341.39" cy="-140" rx="84.5" ry="18"/>
<text text-anchor="middle" x="341.39" y="-134.57" font-family="Times New Roman,serif" font-size="14.00">Base Game Version</text>
</g>
<!-- 0&#45;&gt;23 -->
<g id="edge23" class="edge">
<title>0&#45;&gt;23</title>
<path fill="none" stroke="black" d="M158.33,-204.41C195.28,-191.34 246.86,-173.09 285.69,-159.35"/>
<polygon fill="black" stroke="black" points="286.6,-162.74 294.86,-156.11 284.26,-156.14 286.6,-162.74"/>
</g>
<!-- 28 -->
<!-- name: &quot;Experiments&quot;, typeName: &quot;Experiments&quot;, id: 28, branchId: 0, recurseId: &#45;1, attributes: 256, notes: &quot;Refer to the Experiments type for how to serialize&quot; -->
<g id="node26" class="node">
<title>28</title>
<ellipse fill="none" stroke="black" cx="341.39" cy="-32" rx="56.55" ry="18"/>
<text text-anchor="middle" x="341.39" y="-26.57" font-family="Times New Roman,serif" font-size="14.00">Experiments</text>
</g>
<!-- 0&#45;&gt;28 -->
<g id="edge25" class="edge">
<title>0&#45;&gt;28</title>
<path fill="none" stroke="black" d="M132.98,-203.22C174.2,-169.19 264.29,-94.82 311,-56.26"/>
<polygon fill="black" stroke="black" points="313.08,-59.08 318.56,-50.01 308.62,-53.68 313.08,-59.08"/>
</g>
<!-- 2 -->
<!-- name: &quot;bool&quot;, typeName: &quot;&quot;, id: 2, branchId: 0, recurseId: &#45;1, attributes: 512, notes: &quot;&quot; -->
<g id="node3" class="node">
<title>2</title>
<ellipse fill="none" stroke="black" cx="947.38" cy="-558" rx="27.61" ry="18"/>
<text text-anchor="middle" x="947.38" y="-552.58" font-family="Times New Roman,serif" font-size="14.00">bool</text>
</g>
<!-- 1&#45;&gt;2 -->
<g id="edge2" class="edge">
<title>1&#45;&gt;2</title>
<path fill="none" stroke="black" d="M653.54,-547.41C735.39,-550.37 849.76,-554.5 908.41,-556.63"/>
<polygon fill="black" stroke="black" points="908.07,-560.12 918.19,-556.98 908.33,-553.12 908.07,-560.12"/>
</g>
<!-- 4 -->
<!-- name: &quot;Array Size&quot;, typeName: &quot;&quot;, id: 4, branchId: 0, recurseId: &#45;1, attributes: 0, notes: &quot;&quot; -->
<g id="node5" class="node">
<title>4</title>
<ellipse fill="none" stroke="black" cx="558.35" cy="-477" rx="49.57" ry="18"/>
<text text-anchor="middle" x="558.35" y="-471.57" font-family="Times New Roman,serif" font-size="14.00">Array Size</text>
</g>
<!-- 3&#45;&gt;4 -->
<g id="edge4" class="edge">
<title>3&#45;&gt;4</title>
<path fill="none" stroke="black" d="M379.34,-409.92C416.21,-423.82 472.9,-445.18 512.37,-460.05"/>
<polygon fill="black" stroke="black" points="511,-463.27 521.59,-463.53 513.47,-456.72 511,-463.27"/>
</g>
<!-- 6 -->
<!-- name: &quot;example element&quot;, typeName: &quot;&quot;, id: 6, branchId: 0, recurseId: &#45;1, attributes: 16, notes: &quot;&quot; -->
<g id="node7" class="node">
<title>6</title>
<ellipse fill="none" stroke="black" stroke-dasharray="1,5" cx="558.35" cy="-396" rx="71.52" ry="18"/>
<text text-anchor="middle" x="558.35" y="-390.57" font-family="Times New Roman,serif" font-size="14.00">example element</text>
</g>
<!-- 3&#45;&gt;6 -->
<g id="edge6" class="edge">
<title>3&#45;&gt;6</title>
<path fill="none" stroke="black" d="M399.71,-396C422.79,-396 449.85,-396 474.97,-396"/>
<polygon fill="black" stroke="black" points="474.85,-399.5 484.85,-396 474.85,-392.5 474.85,-399.5"/>
</g>
<!-- 5 -->
<!-- name: &quot;unsigned varint&quot;, typeName: &quot;&quot;, id: 5, branchId: 0, recurseId: &#45;1, attributes: 512, notes: &quot;&quot; -->
<g id="node6" class="node">
<title>5</title>
<ellipse fill="none" stroke="black" cx="947.38" cy="-504" rx="66.53" ry="18"/>
<text text-anchor="middle" x="947.38" y="-498.57" font-family="Times New Roman,serif" font-size="14.00">unsigned varint</text>
</g>
<!-- 4&#45;&gt;5 -->
<g id="edge5" class="edge">
<title>4&#45;&gt;5</title>
<path fill="none" stroke="black" d="M607.2,-480.34C673.32,-484.95 793.29,-493.32 871.38,-498.77"/>
<polygon fill="black" stroke="black" points="870.86,-502.24 881.08,-499.44 871.35,-495.26 870.86,-502.24"/>
</g>
<!-- 7 -->
<!-- name: &quot;ID&quot;, typeName: &quot;&quot;, id: 7, branchId: 0, recurseId: &#45;1, attributes: 0, notes: &quot;&quot; -->
<g id="node8" class="node">
<title>7</title>
<ellipse fill="none" stroke="black" cx="761.35" cy="-450" rx="27" ry="18"/>
<text text-anchor="middle" x="761.35" y="-444.57" font-family="Times New Roman,serif" font-size="14.00">ID</text>
</g>
<!-- 6&#45;&gt;7 -->
<g id="edge7" class="edge">
<title>6&#45;&gt;7</title>
<path fill="none" stroke="black" d="M608.52,-409.21C644.6,-418.9 692.74,-431.83 725.05,-440.52"/>
<polygon fill="black" stroke="black" points="723.75,-443.79 734.31,-443 725.56,-437.03 723.75,-443.79"/>
</g>
<!-- 9 -->
<!-- name: &quot;Version&quot;, typeName: &quot;&quot;, id: 9, branchId: 0, recurseId: &#45;1, attributes: 0, notes: &quot;&quot; -->
<g id="node10" class="node">
<title>9</title>
<ellipse fill="none" stroke="black" cx="761.35" cy="-396" rx="39.59" ry="18"/>
<text text-anchor="middle" x="761.35" y="-390.57" font-family="Times New Roman,serif" font-size="14.00">Version</text>
</g>
<!-- 6&#45;&gt;9 -->
<g id="edge9" class="edge">
<title>6&#45;&gt;9</title>
<path fill="none" stroke="black" d="M630.22,-396C656.54,-396 685.84,-396 709.97,-396"/>
<polygon fill="black" stroke="black" points="709.84,-399.5 719.84,-396 709.84,-392.5 709.84,-399.5"/>
</g>
<!-- 11 -->
<!-- name: &quot;Sub Pack Name&quot;, typeName: &quot;&quot;, id: 11, branchId: 0, recurseId: &#45;1, attributes: 0, notes: &quot;&quot; -->
<g id="node12" class="node">
<title>11</title>
<ellipse fill="none" stroke="black" cx="761.35" cy="-342" rx="70.52" ry="18"/>
<text text-anchor="middle" x="761.35" y="-336.57" font-family="Times New Roman,serif" font-size="14.00">Sub Pack Name</text>
</g>
<!-- 6&#45;&gt;11 -->
<g id="edge11" class="edge">
<title>6&#45;&gt;11</title>
<path fill="none" stroke="black" d="M608.52,-382.79C636.35,-375.31 671.35,-365.91 700.73,-358.02"/>
<polygon fill="black" stroke="black" points="701.48,-361.44 710.23,-355.47 699.66,-354.68 701.48,-361.44"/>
</g>
<!-- 8 -->
<!-- name: &quot;string&quot;, typeName: &quot;&quot;, id: 8, branchId: 0, recurseId: &#45;1, attributes: 512, notes: &quot;&quot; -->
<g id="node9" class="node">
<title>8</title>
<ellipse fill="none" stroke="black" cx="947.38" cy="-450" rx="31.1" ry="18"/>
<text text-anchor="middle" x="947.38" y="-444.57" font-family="Times New Roman,serif" font-size="14.00">string</text>
</g>
<!-- 7&#45;&gt;8 -->
<g id="edge8" class="edge">
<title>7&#45;&gt;8</title>
<path fill="none" stroke="black" d="M788.72,-450C818.99,-450 869.04,-450 904.62,-450"/>
<polygon fill="black" stroke="black" points="904.57,-453.5 914.57,-450 904.57,-446.5 904.57,-453.5"/>
</g>
<!-- 10 -->
<!-- name: &quot;string&quot;, typeName: &quot;&quot;, id: 10, branchId: 0, recurseId: &#45;1, attributes: 512, notes: &quot;&quot; -->
<g id="node11" class="node">
<title>10</title>
<ellipse fill="none" stroke="black" cx="947.38" cy="-396" rx="31.1" ry="18"/>
<text text-anchor="middle" x="947.38" y="-390.57" font-family="Times New Roman,serif" font-size="14.00">string</text>
</g>
<!-- 9&#45;&gt;10 -->
<g id="edge10" class="edge">
<title>9&#45;&gt;10</title>
<path fill="none" stroke="black" d="M801.38,-396C831.69,-396 873.64,-396 904.63,-396"/>
<polygon fill="black" stroke="black" points="904.4,-399.5 914.4,-396 904.4,-392.5 904.4,-399.5"/>
</g>
<!-- 12 -->
<!-- name: &quot;string&quot;, typeName: &quot;&quot;, id: 12, branchId: 0, recurseId: &#45;1, attributes: 512, notes: &quot;&quot; -->
<g id="node13" class="node">
<title>12</title>
<ellipse fill="none" stroke="black" cx="947.38" cy="-342" rx="31.1" ry="18"/>
<text text-anchor="middle" x="947.38" y="-336.57" font-family="Times New Roman,serif" font-size="14.00">string</text>
</g>
<!-- 11&#45;&gt;12 -->
<g id="edge12" class="edge">
<title>11&#45;&gt;12</title>
<path fill="none" stroke="black" d="M832.19,-342C856.55,-342 883.13,-342 904.5,-342"/>
<polygon fill="black" stroke="black" points="904.28,-345.5 914.28,-342 904.28,-338.5 904.28,-345.5"/>
</g>
<!-- 14 -->
<!-- name: &quot;Array Size&quot;, typeName: &quot;&quot;, id: 14, branchId: 0, recurseId: &#45;1, attributes: 0, notes: &quot;&quot; -->
<g id="node15" class="node">
<title>14</title>
<ellipse fill="none" stroke="black" cx="558.35" cy="-275" rx="49.57" ry="18"/>
<text text-anchor="middle" x="558.35" y="-269.57" font-family="Times New Roman,serif" font-size="14.00">Array Size</text>
</g>
<!-- 13&#45;&gt;14 -->
<g id="edge14" class="edge">
<title>13&#45;&gt;14</title>
<path fill="none" stroke="black" d="M394.97,-234.21C428.7,-242.68 472.28,-253.63 505.8,-262.05"/>
<polygon fill="black" stroke="black" points="504.74,-265.39 515.29,-264.43 506.44,-258.6 504.74,-265.39"/>
</g>
<!-- 16 -->
<!-- name: &quot;example element&quot;, typeName: &quot;&quot;, id: 16, branchId: 0, recurseId: &#45;1, attributes: 16, notes: &quot;&quot; -->
<g id="node17" class="node">
<title>16</title>
<ellipse fill="none" stroke="black" stroke-dasharray="1,5" cx="558.35" cy="-194" rx="71.52" ry="18"/>
<text text-anchor="middle" x="558.35" y="-188.57" font-family="Times New Roman,serif" font-size="14.00">example element</text>
</g>
<!-- 13&#45;&gt;16 -->
<g id="edge16" class="edge">
<title>13&#45;&gt;16</title>
<path fill="none" stroke="black" d="M409.81,-212.53C432.78,-209.65 458.58,-206.41 482.12,-203.45"/>
<polygon fill="black" stroke="black" points="482.48,-206.93 491.97,-202.21 481.61,-199.99 482.48,-206.93"/>
</g>
<!-- 15 -->
<!-- name: &quot;unsigned varint&quot;, typeName: &quot;&quot;, id: 15, branchId: 0, recurseId: &#45;1, attributes: 512, notes: &quot;&quot; -->
<g id="node16" class="node">
<title>15</title>
<ellipse fill="none" stroke="black" cx="947.38" cy="-288" rx="66.53" ry="18"/>
<text text-anchor="middle" x="947.38" y="-282.57" font-family="Times New Roman,serif" font-size="14.00">unsigned varint</text>
</g>
<!-- 14&#45;&gt;15 -->
<g id="edge15" class="edge">
<title>14&#45;&gt;15</title>
<path fill="none" stroke="black" d="M607.98,-276.63C673.77,-278.84 791.85,-282.81 869.66,-285.42"/>
<polygon fill="black" stroke="black" points="869.22,-288.91 879.33,-285.75 869.45,-281.91 869.22,-288.91"/>
</g>
<!-- 17 -->
<!-- name: &quot;ID&quot;, typeName: &quot;&quot;, id: 17, branchId: 0, recurseId: &#45;1, attributes: 0, notes: &quot;&quot; -->
<g id="node18" class="node">
<title>17</title>
<ellipse fill="none" stroke="black" cx="761.35" cy="-234" rx="27" ry="18"/>
<text text-anchor="middle" x="761.35" y="-228.57" font-family="Times New Roman,serif" font-size="14.00">ID</text>
</g>
<!-- 16&#45;&gt;17 -->
<g id="edge17" class="edge">
<title>16&#45;&gt;17</title>
<path fill="none" stroke="black" d="M615.61,-205.2C650.26,-212.09 693.69,-220.73 723.89,-226.74"/>
<polygon fill="black" stroke="black" points="723.19,-230.17 733.68,-228.69 724.56,-223.31 723.19,-230.17"/>
</g>
<!-- 19 -->
<!-- name: &quot;Version&quot;, typeName: &quot;&quot;, id: 19, branchId: 0, recurseId: &#45;1, attributes: 0, notes: &quot;&quot; -->
<g id="node20" class="node">
<title>19</title>
<ellipse fill="none" stroke="black" cx="761.35" cy="-180" rx="39.59" ry="18"/>
<text text-anchor="middle" x="761.35" y="-174.57" font-family="Times New Roman,serif" font-size="14.00">Version</text>
</g>
<!-- 16&#45;&gt;19 -->
<g id="edge19" class="edge">
<title>16&#45;&gt;19</title>
<path fill="none" stroke="black" d="M627.68,-189.24C654.8,-187.35 685.41,-185.22 710.39,-183.48"/>
<polygon fill="black" stroke="black" points="710.55,-186.98 720.29,-182.79 710.07,-179.99 710.55,-186.98"/>
</g>
<!-- 21 -->
<!-- name: &quot;Sub Pack Name&quot;, typeName: &quot;&quot;, id: 21, branchId: 0, recurseId: &#45;1, attributes: 0, notes: &quot;&quot; -->
<g id="node22" class="node">
<title>21</title>
<ellipse fill="none" stroke="black" cx="761.35" cy="-126" rx="70.52" ry="18"/>
<text text-anchor="middle" x="761.35" y="-120.58" font-family="Times New Roman,serif" font-size="14.00">Sub Pack Name</text>
</g>
<!-- 16&#45;&gt;21 -->
<g id="edge21" class="edge">
<title>16&#45;&gt;21</title>
<path fill="none" stroke="black" d="M602.47,-179.41C633.05,-169.07 674.27,-155.12 706.93,-144.07"/>
<polygon fill="black" stroke="black" points="707.86,-147.45 716.22,-140.93 705.62,-140.82 707.86,-147.45"/>
</g>
<!-- 18 -->
<!-- name: &quot;string&quot;, typeName: &quot;&quot;, id: 18, branchId: 0, recurseId: &#45;1, attributes: 512, notes: &quot;&quot; -->
<g id="node19" class="node">
<title>18</title>
<ellipse fill="none" stroke="black" cx="947.38" cy="-234" rx="31.1" ry="18"/>
<text text-anchor="middle" x="947.38" y="-228.57" font-family="Times New Roman,serif" font-size="14.00">string</text>
</g>
<!-- 17&#45;&gt;18 -->
<g id="edge18" class="edge">
<title>17&#45;&gt;18</title>
<path fill="none" stroke="black" d="M788.72,-234C818.99,-234 869.04,-234 904.62,-234"/>
<polygon fill="black" stroke="black" points="904.57,-237.5 914.57,-234 904.57,-230.5 904.57,-237.5"/>
</g>
<!-- 20 -->
<!-- name: &quot;string&quot;, typeName: &quot;&quot;, id: 20, branchId: 0, recurseId: &#45;1, attributes: 512, notes: &quot;&quot; -->
<g id="node21" class="node">
<title>20</title>
<ellipse fill="none" stroke="black" cx="947.38" cy="-180" rx="31.1" ry="18"/>
<text text-anchor="middle" x="947.38" y="-174.57" font-family="Times New Roman,serif" font-size="14.00">string</text>
</g>
<!-- 19&#45;&gt;20 -->
<g id="edge20" class="edge">
<title>19&#45;&gt;20</title>
<path fill="none" stroke="black" d="M801.38,-180C831.69,-180 873.64,-180 904.63,-180"/>
<polygon fill="black" stroke="black" points="904.4,-183.5 914.4,-180 904.4,-176.5 904.4,-183.5"/>
</g>
<!-- 22 -->
<!-- name: &quot;string&quot;, typeName: &quot;&quot;, id: 22, branchId: 0, recurseId: &#45;1, attributes: 512, notes: &quot;&quot; -->
<g id="node23" class="node">
<title>22</title>
<ellipse fill="none" stroke="black" cx="947.38" cy="-126" rx="31.1" ry="18"/>
<text text-anchor="middle" x="947.38" y="-120.58" font-family="Times New Roman,serif" font-size="14.00">string</text>
</g>
<!-- 21&#45;&gt;22 -->
<g id="edge22" class="edge">
<title>21&#45;&gt;22</title>
<path fill="none" stroke="black" d="M832.19,-126C856.55,-126 883.13,-126 904.5,-126"/>
<polygon fill="black" stroke="black" points="904.28,-129.5 914.28,-126 904.28,-122.5 904.28,-129.5"/>
</g>
<!-- 27 -->
<!-- name: &quot;BaseGameVersion&quot;, typeName: &quot;&quot;, id: 27, branchId: 0, recurseId: &#45;1, attributes: 512, notes: &quot;&quot; -->
<g id="node25" class="node">
<title>27</title>
<ellipse fill="none" stroke="black" cx="947.38" cy="-72" rx="79.51" ry="18"/>
<text text-anchor="middle" x="947.38" y="-66.58" font-family="Times New Roman,serif" font-size="14.00">BaseGameVersion</text>
</g>
<!-- 23&#45;&gt;27 -->
<g id="edge24" class="edge">
<title>23&#45;&gt;27</title>
<path fill="none" stroke="black" d="M415.77,-131.11C486.27,-122.63 595.79,-109.61 690.83,-99 748.21,-92.59 812.89,-85.76 862.82,-80.58"/>
<polygon fill="black" stroke="black" points="863.12,-84.06 872.7,-79.55 862.39,-77.1 863.12,-84.06"/>
</g>
<!-- 44 -->
<!-- name: &quot;Experiments&quot;, typeName: &quot;&quot;, id: 44, branchId: 0, recurseId: &#45;1, attributes: 512, notes: &quot;&quot; -->
<g id="node27" class="node">
<title>44</title>
<ellipse fill="none" stroke="black" cx="947.38" cy="-18" rx="56.55" ry="18"/>
<text text-anchor="middle" x="947.38" y="-12.57" font-family="Times New Roman,serif" font-size="14.00">Experiments</text>
</g>
<!-- 28&#45;&gt;44 -->
<g id="edge26" class="edge">
<title>28&#45;&gt;44</title>
<path fill="none" stroke="black" d="M398.13,-30.71C509.59,-28.12 759.56,-22.33 879.58,-19.55"/>
<polygon fill="black" stroke="black" points="879.35,-23.05 889.26,-19.32 879.19,-16.06 879.35,-23.05"/>
</g>
</g>
</svg>
