<?xml version="1.0" encoding="UTF-8" standalone="no"?>
<!DOCTYPE svg PUBLIC "-//W3C//DTD SVG 1.1//EN"
 "http://www.w3.org/Graphics/SVG/1.1/DTD/svg11.dtd">
<!-- Generated by graphviz version 11.0.0 (20240428.1522)
 -->
<!-- Title: ResourcePackClientResponsePacket Pages: 1 -->
<svg width="1464pt" height="206pt"
 viewBox="0.00 0.00 1463.62 206.00" xmlns="http://www.w3.org/2000/svg" xmlns:xlink="http://www.w3.org/1999/xlink">
<g id="graph0" class="graph" transform="scale(1 1) rotate(0) translate(4 202)">
<title>ResourcePackClientResponsePacket</title>
<polygon fill="white" stroke="none" points="-4,4 -4,-202 1459.62,-202 1459.62,4 -4,4"/>
<!-- 0 -->
<!-- name: &quot;ResourcePackClientResponsePacket&quot;, typeName: &quot;&quot;, id: 0, branchId: 8, recurseId: &#45;1, attributes: 0, notes: &quot;&quot; -->
<g id="node1" class="node">
<title>0</title>
<ellipse fill="none" stroke="black" cx="147.87" cy="-126" rx="147.87" ry="18"/>
<text text-anchor="middle" x="147.87" y="-120.58" font-family="Times New Roman,serif" font-size="14.00">ResourcePackClientResponsePacket</text>
</g>
<!-- 1 -->
<!-- name: &quot;Response&quot;, typeName: &quot;&quot;, id: 1, branchId: 0, recurseId: &#45;1, attributes: 0, notes: &quot;&quot; -->
<g id="node2" class="node">
<title>1</title>
<ellipse fill="none" stroke="black" cx="817.48" cy="-176" rx="47.57" ry="18"/>
<text text-anchor="middle" x="817.48" y="-170.57" font-family="Times New Roman,serif" font-size="14.00">Response</text>
</g>
<!-- 0&#45;&gt;1 -->
<g id="edge1" class="edge">
<title>0&#45;&gt;1</title>
<path fill="none" stroke="black" d="M274.29,-135.64C293.53,-137.11 313.16,-138.6 331.74,-140 486.12,-151.64 668.18,-165.09 758.96,-171.77"/>
<polygon fill="black" stroke="black" points="758.62,-175.26 768.85,-172.5 759.14,-168.27 758.62,-175.26"/>
</g>
<!-- 3 -->
<!-- name: &quot;Downloading Packs Size&quot;, typeName: &quot;&quot;, id: 3, branchId: 0, recurseId: &#45;1, attributes: 0, notes: &quot;&quot; -->
<g id="node4" class="node">
<title>3</title>
<ellipse fill="none" stroke="black" cx="1041.44" cy="-126" rx="102.96" ry="18"/>
<text text-anchor="middle" x="1041.44" y="-120.58" font-family="Times New Roman,serif" font-size="14.00">Downloading Packs Size</text>
</g>
<!-- 0&#45;&gt;3 -->
<g id="edge3" class="edge">
<title>0&#45;&gt;3</title>
<path fill="none" stroke="black" d="M296.09,-126C473.11,-126 766.38,-126 926.86,-126"/>
<polygon fill="black" stroke="black" points="926.67,-129.5 936.67,-126 926.67,-122.5 926.67,-129.5"/>
</g>
<!-- 5 -->
<!-- name: &quot;Dependency on &#39;Downloading Packs&#39;&quot;, typeName: &quot;&quot;, id: 5, branchId: 0, recurseId: &#45;1, attributes: 2, notes: &quot;&quot; -->
<g id="node6" class="node">
<title>5</title>
<polygon fill="none" stroke="black" points="550.99,-90 331.74,-90 331.74,-54 556.99,-54 556.99,-84 550.99,-90"/>
<polyline fill="none" stroke="black" points="550.99,-90 550.99,-84"/>
<polyline fill="none" stroke="black" points="556.99,-84 550.99,-84"/>
<text text-anchor="middle" x="444.36" y="-66.58" font-family="Times New Roman,serif" font-size="14.00">Dependency on &#39;Downloading Packs&#39;</text>
</g>
<!-- 0&#45;&gt;5 -->
<g id="edge5" class="edge">
<title>0&#45;&gt;5</title>
<path fill="none" stroke="black" d="M231.69,-110.81C262.64,-105.14 298.32,-98.6 331.46,-92.52"/>
<polygon fill="black" stroke="black" points="331.9,-96 341.11,-90.75 330.64,-89.11 331.9,-96"/>
</g>
<!-- 2 -->
<!-- name: &quot;byte&quot;, typeName: &quot;&quot;, id: 2, branchId: 0, recurseId: &#45;1, attributes: 512, notes: &quot;&quot; -->
<g id="node3" class="node">
<title>2</title>
<ellipse fill="none" stroke="black" cx="1390.58" cy="-180" rx="27" ry="18"/>
<text text-anchor="middle" x="1390.58" y="-174.57" font-family="Times New Roman,serif" font-size="14.00">byte</text>
</g>
<!-- 1&#45;&gt;2 -->
<g id="edge2" class="edge">
<title>1&#45;&gt;2</title>
<path fill="none" stroke="black" d="M865.22,-176.33C975.68,-177.1 1251.13,-179.03 1351.9,-179.74"/>
<polygon fill="black" stroke="black" points="1351.76,-183.24 1361.78,-179.81 1351.81,-176.24 1351.76,-183.24"/>
</g>
<!-- 4 -->
<!-- name: &quot;unsigned short&quot;, typeName: &quot;&quot;, id: 4, branchId: 0, recurseId: &#45;1, attributes: 512, notes: &quot;&quot; -->
<g id="node5" class="node">
<title>4</title>
<ellipse fill="none" stroke="black" cx="1390.58" cy="-126" rx="65.04" ry="18"/>
<text text-anchor="middle" x="1390.58" y="-120.58" font-family="Times New Roman,serif" font-size="14.00">unsigned short</text>
</g>
<!-- 3&#45;&gt;4 -->
<g id="edge4" class="edge">
<title>3&#45;&gt;4</title>
<path fill="none" stroke="black" d="M1144.72,-126C1198.89,-126 1264.29,-126 1313.87,-126"/>
<polygon fill="black" stroke="black" points="1313.64,-129.5 1323.64,-126 1313.64,-122.5 1313.64,-129.5"/>
</g>
<!-- 6 -->
<!-- name: &quot;If False&quot;, typeName: &quot;&quot;, id: 6, branchId: 0, recurseId: &#45;1, attributes: 4, notes: &quot;&quot; -->
<g id="node7" class="node">
<title>6</title>
<polygon fill="none" stroke="black" points="1234.97,-90 1180.4,-72 1234.97,-54 1289.55,-72 1234.97,-90"/>
<text text-anchor="middle" x="1234.97" y="-66.58" font-family="Times New Roman,serif" font-size="14.00">If False</text>
</g>
<!-- 5&#45;&gt;6 -->
<g id="edge6" class="edge">
<title>5&#45;&gt;6</title>
<path fill="none" stroke="black" d="M557.1,-72C723.9,-72 1032.82,-72 1167.88,-72"/>
<polygon fill="black" stroke="black" points="1167.73,-75.5 1177.73,-72 1167.73,-68.5 1167.73,-75.5"/>
</g>
<!-- 8 -->
<!-- name: &quot;If True&quot;, typeName: &quot;&quot;, id: 8, branchId: 1, recurseId: &#45;1, attributes: 4, notes: &quot;&quot; -->
<g id="node9" class="node">
<title>8</title>
<polygon fill="none" stroke="black" points="644.74,-43 592.99,-25 644.74,-7 696.49,-25 644.74,-43"/>
<text text-anchor="middle" x="644.74" y="-19.57" font-family="Times New Roman,serif" font-size="14.00">If True</text>
</g>
<!-- 5&#45;&gt;8 -->
<g id="edge8" class="edge">
<title>5&#45;&gt;8</title>
<path fill="none" stroke="black" d="M523.2,-53.56C549.94,-47.22 578.86,-40.37 601.66,-34.97"/>
<polygon fill="black" stroke="black" points="602.26,-38.42 611.19,-32.71 600.65,-31.61 602.26,-38.42"/>
</g>
<!-- 7 -->
<!-- name: &quot;[No Data]&quot;, typeName: &quot;&quot;, id: 7, branchId: 0, recurseId: &#45;1, attributes: 512, notes: &quot;&quot; -->
<g id="node8" class="node">
<title>7</title>
<ellipse fill="none" stroke="black" cx="1390.58" cy="-72" rx="47.57" ry="18"/>
<text text-anchor="middle" x="1390.58" y="-66.58" font-family="Times New Roman,serif" font-size="14.00">[No Data]</text>
</g>
<!-- 6&#45;&gt;7 -->
<g id="edge7" class="edge">
<title>6&#45;&gt;7</title>
<path fill="none" stroke="black" d="M1290.99,-72C1304.04,-72 1318.01,-72 1331.2,-72"/>
<polygon fill="black" stroke="black" points="1331.04,-75.5 1341.04,-72 1331.04,-68.5 1331.04,-75.5"/>
</g>
<!-- 9 -->
<!-- name: &quot;Downloading Packs&quot;, typeName: &quot;&quot;, id: 9, branchId: 0, recurseId: &#45;1, attributes: 8, notes: &quot;&quot; -->
<g id="node10" class="node">
<title>9</title>
<ellipse fill="none" stroke="black" cx="817.48" cy="-23" rx="85" ry="18"/>
<text text-anchor="middle" x="817.48" y="-17.57" font-family="Times New Roman,serif" font-size="14.00">Downloading Packs</text>
</g>
<!-- 8&#45;&gt;9 -->
<g id="edge9" class="edge">
<title>8&#45;&gt;9</title>
<path fill="none" stroke="black" d="M696.04,-24.41C703.98,-24.32 712.4,-24.22 720.96,-24.12"/>
<polygon fill="black" stroke="black" points="720.8,-27.62 730.75,-24 720.71,-20.62 720.8,-27.62"/>
</g>
<!-- 10 -->
<!-- name: &quot;example element&quot;, typeName: &quot;&quot;, id: 10, branchId: 0, recurseId: &#45;1, attributes: 16, notes: &quot;&quot; -->
<g id="node11" class="node">
<title>10</title>
<ellipse fill="none" stroke="black" stroke-dasharray="1,5" cx="1041.44" cy="-19" rx="71.52" ry="18"/>
<text text-anchor="middle" x="1041.44" y="-13.57" font-family="Times New Roman,serif" font-size="14.00">example element</text>
</g>
<!-- 9&#45;&gt;10 -->
<g id="edge10" class="edge">
<title>9&#45;&gt;10</title>
<path fill="none" stroke="black" d="M902.4,-21.49C920.71,-21.16 940.07,-20.81 958.31,-20.48"/>
<polygon fill="black" stroke="black" points="958.36,-23.98 968.3,-20.3 958.24,-16.98 958.36,-23.98"/>
</g>
<!-- 11 -->
<!-- name: &quot;Pack Name&quot;, typeName: &quot;&quot;, id: 11, branchId: 0, recurseId: &#45;1, attributes: 0, notes: &quot;&quot; -->
<g id="node12" class="node">
<title>11</title>
<ellipse fill="none" stroke="black" cx="1234.97" cy="-18" rx="53.06" ry="18"/>
<text text-anchor="middle" x="1234.97" y="-12.57" font-family="Times New Roman,serif" font-size="14.00">Pack Name</text>
</g>
<!-- 10&#45;&gt;11 -->
<g id="edge11" class="edge">
<title>10&#45;&gt;11</title>
<path fill="none" stroke="black" d="M1113.21,-18.63C1131.84,-18.53 1151.81,-18.43 1170.05,-18.33"/>
<polygon fill="black" stroke="black" points="1169.95,-21.83 1179.94,-18.28 1169.92,-14.83 1169.95,-21.83"/>
</g>
<!-- 12 -->
<!-- name: &quot;string&quot;, typeName: &quot;&quot;, id: 12, branchId: 0, recurseId: &#45;1, attributes: 512, notes: &quot;&quot; -->
<g id="node13" class="node">
<title>12</title>
<ellipse fill="none" stroke="black" cx="1390.58" cy="-18" rx="31.1" ry="18"/>
<text text-anchor="middle" x="1390.58" y="-12.57" font-family="Times New Roman,serif" font-size="14.00">string</text>
</g>
<!-- 11&#45;&gt;12 -->
<g id="edge12" class="edge">
<title>11&#45;&gt;12</title>
<path fill="none" stroke="black" d="M1288.41,-18C1307.8,-18 1329.5,-18 1347.82,-18"/>
<polygon fill="black" stroke="black" points="1347.8,-21.5 1357.8,-18 1347.8,-14.5 1347.8,-21.5"/>
</g>
</g>
</svg>
