<?xml version="1.0" encoding="UTF-8" standalone="no"?>
<!DOCTYPE svg PUBLIC "-//W3C//DTD SVG 1.1//EN"
 "http://www.w3.org/Graphics/SVG/1.1/DTD/svg11.dtd">
<!-- Generated by graphviz version 12.2.0 (20241103.1931)
 -->
<!-- Title: ResourcePackDataInfoPacket Pages: 1 -->
<svg width="617pt" height="368pt"
 viewBox="0.00 0.00 617.40 368.00" xmlns="http://www.w3.org/2000/svg" xmlns:xlink="http://www.w3.org/1999/xlink">
<g id="graph0" class="graph" transform="scale(1 1) rotate(0) translate(4 364)">
<title>ResourcePackDataInfoPacket</title>
<polygon fill="white" stroke="none" points="-4,4 -4,-364 613.4,-364 613.4,4 -4,4"/>
<!-- 0 -->
<!-- name: &quot;ResourcePackDataInfoPacket&quot;, typeName: &quot;&quot;, id: 0, branchId: 82, recurseId: &#45;1, attributes: 0, notes: &quot;&quot; -->
<g id="node1" class="node">
<title>0</title>
<ellipse fill="none" stroke="black" cx="120.45" cy="-180" rx="120.45" ry="18"/>
<text text-anchor="middle" x="120.45" y="-174.95" font-family="Times New Roman,serif" font-size="14.00">ResourcePackDataInfoPacket</text>
</g>
<!-- 1 -->
<!-- name: &quot;Resource Name&quot;, typeName: &quot;&quot;, id: 1, branchId: 0, recurseId: &#45;1, attributes: 0, notes: &quot;&quot; -->
<g id="node2" class="node">
<title>1</title>
<ellipse fill="none" stroke="black" cx="359.46" cy="-342" rx="70.29" ry="18"/>
<text text-anchor="middle" x="359.46" y="-336.95" font-family="Times New Roman,serif" font-size="14.00">Resource Name</text>
</g>
<!-- 0&#45;&gt;1 -->
<g id="edge1" class="edge">
<title>0&#45;&gt;1</title>
<path fill="none" stroke="black" d="M137.42,-197.85C163.83,-226.36 219.42,-282.29 276.89,-315 283.68,-318.86 291.1,-322.27 298.61,-325.26"/>
<polygon fill="black" stroke="black" points="297.22,-328.47 307.81,-328.67 299.65,-321.91 297.22,-328.47"/>
</g>
<!-- 3 -->
<!-- name: &quot;Chunk Size&quot;, typeName: &quot;&quot;, id: 3, branchId: 0, recurseId: &#45;1, attributes: 0, notes: &quot;&quot; -->
<g id="node4" class="node">
<title>3</title>
<ellipse fill="none" stroke="black" cx="359.46" cy="-288" rx="53.91" ry="18"/>
<text text-anchor="middle" x="359.46" y="-282.95" font-family="Times New Roman,serif" font-size="14.00">Chunk Size</text>
</g>
<!-- 0&#45;&gt;3 -->
<g id="edge3" class="edge">
<title>0&#45;&gt;3</title>
<path fill="none" stroke="black" d="M152,-197.79C182.84,-215.31 232.18,-242.1 276.89,-261 286.58,-265.1 297.12,-268.98 307.3,-272.47"/>
<polygon fill="black" stroke="black" points="306.13,-275.76 316.72,-275.6 308.34,-269.12 306.13,-275.76"/>
</g>
<!-- 5 -->
<!-- name: &quot;Number of Chunks&quot;, typeName: &quot;&quot;, id: 5, branchId: 0, recurseId: &#45;1, attributes: 0, notes: &quot;&quot; -->
<g id="node6" class="node">
<title>5</title>
<ellipse fill="none" stroke="black" cx="359.46" cy="-234" rx="82.57" ry="18"/>
<text text-anchor="middle" x="359.46" y="-228.95" font-family="Times New Roman,serif" font-size="14.00">Number of Chunks</text>
</g>
<!-- 0&#45;&gt;5 -->
<g id="edge5" class="edge">
<title>0&#45;&gt;5</title>
<path fill="none" stroke="black" d="M188.41,-195.26C220.13,-202.48 257.96,-211.1 289.88,-218.37"/>
<polygon fill="black" stroke="black" points="288.9,-221.74 299.43,-220.55 290.46,-214.92 288.9,-221.74"/>
</g>
<!-- 7 -->
<!-- name: &quot;File Size&quot;, typeName: &quot;&quot;, id: 7, branchId: 0, recurseId: &#45;1, attributes: 0, notes: &quot;&quot; -->
<g id="node8" class="node">
<title>7</title>
<ellipse fill="none" stroke="black" cx="359.46" cy="-180" rx="43.67" ry="18"/>
<text text-anchor="middle" x="359.46" y="-174.95" font-family="Times New Roman,serif" font-size="14.00">File Size</text>
</g>
<!-- 0&#45;&gt;7 -->
<g id="edge7" class="edge">
<title>0&#45;&gt;7</title>
<path fill="none" stroke="black" d="M241.34,-180C263.31,-180 285.21,-180 304.03,-180"/>
<polygon fill="black" stroke="black" points="303.81,-183.5 313.81,-180 303.81,-176.5 303.81,-183.5"/>
</g>
<!-- 9 -->
<!-- name: &quot;File Hash&quot;, typeName: &quot;&quot;, id: 9, branchId: 0, recurseId: &#45;1, attributes: 0, notes: &quot;&quot; -->
<g id="node10" class="node">
<title>9</title>
<ellipse fill="none" stroke="black" cx="359.46" cy="-126" rx="46.75" ry="18"/>
<text text-anchor="middle" x="359.46" y="-120.95" font-family="Times New Roman,serif" font-size="14.00">File Hash</text>
</g>
<!-- 0&#45;&gt;9 -->
<g id="edge9" class="edge">
<title>0&#45;&gt;9</title>
<path fill="none" stroke="black" d="M188.41,-164.74C226.34,-156.1 273,-145.47 307.85,-137.53"/>
<polygon fill="black" stroke="black" points="308.27,-141.02 317.25,-135.39 306.72,-134.2 308.27,-141.02"/>
</g>
<!-- 11 -->
<!-- name: &quot;Is Premium Pack&quot;, typeName: &quot;&quot;, id: 11, branchId: 0, recurseId: &#45;1, attributes: 0, notes: &quot;Do you need an entitlement to use this pack?&quot; -->
<g id="node12" class="node">
<title>11</title>
<ellipse fill="none" stroke="black" cx="359.46" cy="-72" rx="75.41" ry="18"/>
<text text-anchor="middle" x="359.46" y="-66.95" font-family="Times New Roman,serif" font-size="14.00">Is Premium Pack</text>
</g>
<!-- 0&#45;&gt;11 -->
<g id="edge11" class="edge">
<title>0&#45;&gt;11</title>
<path fill="none" stroke="black" d="M152,-162.21C182.84,-144.69 232.18,-117.9 276.89,-99 284.45,-95.8 292.52,-92.74 300.54,-89.89"/>
<polygon fill="black" stroke="black" points="301.65,-93.21 309.97,-86.64 299.37,-86.59 301.65,-93.21"/>
</g>
<!-- 13 -->
<!-- name: &quot;Pack Type&quot;, typeName: &quot;&quot;, id: 13, branchId: 0, recurseId: &#45;1, attributes: 0, notes: &quot;&quot; -->
<g id="node14" class="node">
<title>13</title>
<ellipse fill="none" stroke="black" cx="359.46" cy="-18" rx="49.3" ry="18"/>
<text text-anchor="middle" x="359.46" y="-12.95" font-family="Times New Roman,serif" font-size="14.00">Pack Type</text>
</g>
<!-- 0&#45;&gt;13 -->
<g id="edge13" class="edge">
<title>0&#45;&gt;13</title>
<path fill="none" stroke="black" d="M137.42,-162.15C163.83,-133.64 219.42,-77.71 276.89,-45 286.22,-39.69 296.76,-35.23 307.08,-31.56"/>
<polygon fill="black" stroke="black" points="307.89,-34.98 316.27,-28.5 305.67,-28.34 307.89,-34.98"/>
</g>
<!-- 2 -->
<!-- name: &quot;string&quot;, typeName: &quot;&quot;, id: 2, branchId: 0, recurseId: &#45;1, attributes: 512, notes: &quot;&quot; -->
<g id="node3" class="node">
<title>2</title>
<ellipse fill="none" stroke="black" cx="543.72" cy="-342" rx="31.9" ry="18"/>
<text text-anchor="middle" x="543.72" y="-336.95" font-family="Times New Roman,serif" font-size="14.00">string</text>
</g>
<!-- 1&#45;&gt;2 -->
<g id="edge2" class="edge">
<title>1&#45;&gt;2</title>
<path fill="none" stroke="black" d="M430.15,-342C453.78,-342 479.45,-342 500.3,-342"/>
<polygon fill="black" stroke="black" points="500.14,-345.5 510.14,-342 500.14,-338.5 500.14,-345.5"/>
</g>
<!-- 4 -->
<!-- name: &quot;unsigned int&quot;, typeName: &quot;&quot;, id: 4, branchId: 0, recurseId: &#45;1, attributes: 512, notes: &quot;&quot; -->
<g id="node5" class="node">
<title>4</title>
<ellipse fill="none" stroke="black" cx="543.72" cy="-288" rx="56.47" ry="18"/>
<text text-anchor="middle" x="543.72" y="-282.95" font-family="Times New Roman,serif" font-size="14.00">unsigned int</text>
</g>
<!-- 3&#45;&gt;4 -->
<g id="edge4" class="edge">
<title>3&#45;&gt;4</title>
<path fill="none" stroke="black" d="M413.67,-288C432.99,-288 455.09,-288 475.47,-288"/>
<polygon fill="black" stroke="black" points="475.39,-291.5 485.39,-288 475.39,-284.5 475.39,-291.5"/>
</g>
<!-- 6 -->
<!-- name: &quot;unsigned int&quot;, typeName: &quot;&quot;, id: 6, branchId: 0, recurseId: &#45;1, attributes: 512, notes: &quot;&quot; -->
<g id="node7" class="node">
<title>6</title>
<ellipse fill="none" stroke="black" cx="543.72" cy="-234" rx="56.47" ry="18"/>
<text text-anchor="middle" x="543.72" y="-228.95" font-family="Times New Roman,serif" font-size="14.00">unsigned int</text>
</g>
<!-- 5&#45;&gt;6 -->
<g id="edge6" class="edge">
<title>5&#45;&gt;6</title>
<path fill="none" stroke="black" d="M442.53,-234C453.56,-234 464.77,-234 475.5,-234"/>
<polygon fill="black" stroke="black" points="475.42,-237.5 485.42,-234 475.42,-230.5 475.42,-237.5"/>
</g>
<!-- 8 -->
<!-- name: &quot;unsigned int64&quot;, typeName: &quot;&quot;, id: 8, branchId: 0, recurseId: &#45;1, attributes: 512, notes: &quot;&quot; -->
<g id="node9" class="node">
<title>8</title>
<ellipse fill="none" stroke="black" cx="543.72" cy="-180" rx="65.68" ry="18"/>
<text text-anchor="middle" x="543.72" y="-174.95" font-family="Times New Roman,serif" font-size="14.00">unsigned int64</text>
</g>
<!-- 7&#45;&gt;8 -->
<g id="edge8" class="edge">
<title>7&#45;&gt;8</title>
<path fill="none" stroke="black" d="M403.19,-180C422.01,-180 444.71,-180 466.28,-180"/>
<polygon fill="black" stroke="black" points="466.25,-183.5 476.25,-180 466.25,-176.5 466.25,-183.5"/>
</g>
<!-- 10 -->
<!-- name: &quot;string&quot;, typeName: &quot;&quot;, id: 10, branchId: 0, recurseId: &#45;1, attributes: 512, notes: &quot;&quot; -->
<g id="node11" class="node">
<title>10</title>
<ellipse fill="none" stroke="black" cx="543.72" cy="-126" rx="31.9" ry="18"/>
<text text-anchor="middle" x="543.72" y="-120.95" font-family="Times New Roman,serif" font-size="14.00">string</text>
</g>
<!-- 9&#45;&gt;10 -->
<g id="edge10" class="edge">
<title>9&#45;&gt;10</title>
<path fill="none" stroke="black" d="M406.45,-126C435.15,-126 471.83,-126 499.91,-126"/>
<polygon fill="black" stroke="black" points="499.85,-129.5 509.85,-126 499.85,-122.5 499.85,-129.5"/>
</g>
<!-- 12 -->
<!-- name: &quot;bool&quot;, typeName: &quot;&quot;, id: 12, branchId: 0, recurseId: &#45;1, attributes: 512, notes: &quot;&quot; -->
<g id="node13" class="node">
<title>12</title>
<ellipse fill="none" stroke="black" cx="543.72" cy="-72" rx="27.3" ry="18"/>
<text text-anchor="middle" x="543.72" y="-66.95" font-family="Times New Roman,serif" font-size="14.00">bool</text>
</g>
<!-- 11&#45;&gt;12 -->
<g id="edge12" class="edge">
<title>11&#45;&gt;12</title>
<path fill="none" stroke="black" d="M435.12,-72C459,-72 484.45,-72 504.59,-72"/>
<polygon fill="black" stroke="black" points="504.58,-75.5 514.58,-72 504.58,-68.5 504.58,-75.5"/>
</g>
<!-- 14 -->
<!-- name: &quot;byte&quot;, typeName: &quot;&quot;, id: 14, branchId: 0, recurseId: &#45;1, attributes: 512, notes: &quot;&quot; -->
<g id="node15" class="node">
<title>14</title>
<ellipse fill="none" stroke="black" cx="543.72" cy="-18" rx="27" ry="18"/>
<text text-anchor="middle" x="543.72" y="-12.95" font-family="Times New Roman,serif" font-size="14.00">byte</text>
</g>
<!-- 13&#45;&gt;14 -->
<g id="edge14" class="edge">
<title>13&#45;&gt;14</title>
<path fill="none" stroke="black" d="M408.82,-18C439,-18 477.26,-18 505.15,-18"/>
<polygon fill="black" stroke="black" points="504.9,-21.5 514.9,-18 504.9,-14.5 504.9,-21.5"/>
</g>
</g>
</svg>
