<?xml version="1.0" encoding="UTF-8" standalone="no"?>
<!DOCTYPE svg PUBLIC "-//W3C//DTD SVG 1.1//EN"
 "http://www.w3.org/Graphics/SVG/1.1/DTD/svg11.dtd">
<!-- Generated by graphviz version 11.0.0 (20240428.1522)
 -->
<!-- Title: ResourcePacksInfoPacket Pages: 1 -->
<svg width="1090pt" height="746pt"
 viewBox="0.00 0.00 1089.78 746.00" xmlns="http://www.w3.org/2000/svg" xmlns:xlink="http://www.w3.org/1999/xlink">
<g id="graph0" class="graph" transform="scale(1 1) rotate(0) translate(4 742)">
<title>ResourcePacksInfoPacket</title>
<polygon fill="white" stroke="none" points="-4,4 -4,-742 1085.78,-742 1085.78,4 -4,4"/>
<!-- 0 -->
<!-- name: &quot;ResourcePacksInfoPacket&quot;, typeName: &quot;&quot;, id: 0, branchId: 6, recurseId: &#45;1, attributes: 0, notes: &quot;&quot; -->
<g id="node1" class="node">
<title>0</title>
<ellipse fill="none" stroke="black" cx="108.95" cy="-637" rx="108.95" ry="18"/>
<text text-anchor="middle" x="108.95" y="-631.58" font-family="Times New Roman,serif" font-size="14.00">ResourcePacksInfoPacket</text>
</g>
<!-- 1 -->
<!-- name: &quot;Resource Pack Required&quot;, typeName: &quot;&quot;, id: 1, branchId: 0, recurseId: &#45;1, attributes: 0, notes: &quot;&quot; -->
<g id="node2" class="node">
<title>1</title>
<ellipse fill="none" stroke="black" cx="357.35" cy="-713" rx="103.46" ry="18"/>
<text text-anchor="middle" x="357.35" y="-707.58" font-family="Times New Roman,serif" font-size="14.00">Resource Pack Required</text>
</g>
<!-- 0&#45;&gt;1 -->
<g id="edge1" class="edge">
<title>0&#45;&gt;1</title>
<path fill="none" stroke="black" d="M162.2,-653.12C200.77,-665.01 253.4,-681.24 294.13,-693.81"/>
<polygon fill="black" stroke="black" points="292.98,-697.12 303.57,-696.72 295.05,-690.43 292.98,-697.12"/>
</g>
<!-- 3 -->
<!-- name: &quot;Has Add&#45;on Packs&quot;, typeName: &quot;&quot;, id: 3, branchId: 0, recurseId: &#45;1, attributes: 0, notes: &quot;&quot; -->
<g id="node4" class="node">
<title>3</title>
<ellipse fill="none" stroke="black" cx="589.29" cy="-662" rx="81.5" ry="18"/>
<text text-anchor="middle" x="589.29" y="-656.58" font-family="Times New Roman,serif" font-size="14.00">Has Add&#45;on Packs</text>
</g>
<!-- 0&#45;&gt;3 -->
<g id="edge3" class="edge">
<title>0&#45;&gt;3</title>
<path fill="none" stroke="black" d="M213.45,-642.41C298.32,-646.85 417.26,-653.06 498.25,-657.29"/>
<polygon fill="black" stroke="black" points="497.74,-660.77 507.9,-657.8 498.1,-653.78 497.74,-660.77"/>
</g>
<!-- 5 -->
<!-- name: &quot;Has Scripts&quot;, typeName: &quot;&quot;, id: 5, branchId: 0, recurseId: &#45;1, attributes: 0, notes: &quot;&quot; -->
<g id="node6" class="node">
<title>5</title>
<ellipse fill="none" stroke="black" cx="357.35" cy="-614" rx="54.06" ry="18"/>
<text text-anchor="middle" x="357.35" y="-608.58" font-family="Times New Roman,serif" font-size="14.00">Has Scripts</text>
</g>
<!-- 0&#45;&gt;5 -->
<g id="edge5" class="edge">
<title>0&#45;&gt;5</title>
<path fill="none" stroke="black" d="M204.86,-628.14C234.64,-625.36 266.74,-622.36 293.7,-619.85"/>
<polygon fill="black" stroke="black" points="293.78,-623.36 303.41,-618.94 293.13,-616.39 293.78,-623.36"/>
</g>
<!-- 7 -->
<!-- name: &quot;Resource Packs&quot;, typeName: &quot;&quot;, id: 7, branchId: 0, recurseId: &#45;1, attributes: 8, notes: &quot;&quot; -->
<g id="node8" class="node">
<title>7</title>
<ellipse fill="none" stroke="black" cx="357.35" cy="-558" rx="71.02" ry="18"/>
<text text-anchor="middle" x="357.35" y="-552.58" font-family="Times New Roman,serif" font-size="14.00">Resource Packs</text>
</g>
<!-- 0&#45;&gt;7 -->
<g id="edge7" class="edge">
<title>0&#45;&gt;7</title>
<path fill="none" stroke="black" d="M155.75,-620.32C183.92,-610.26 220.84,-597.41 253.89,-587 267.6,-582.68 282.43,-578.32 296.43,-574.32"/>
<polygon fill="black" stroke="black" points="297.32,-577.71 305.99,-571.62 295.42,-570.97 297.32,-577.71"/>
</g>
<!-- 2 -->
<!-- name: &quot;bool&quot;, typeName: &quot;&quot;, id: 2, branchId: 0, recurseId: &#45;1, attributes: 512, notes: &quot;&quot; -->
<g id="node3" class="node">
<title>2</title>
<ellipse fill="none" stroke="black" cx="1016.74" cy="-720" rx="27.61" ry="18"/>
<text text-anchor="middle" x="1016.74" y="-714.58" font-family="Times New Roman,serif" font-size="14.00">bool</text>
</g>
<!-- 1&#45;&gt;2 -->
<g id="edge2" class="edge">
<title>1&#45;&gt;2</title>
<path fill="none" stroke="black" d="M461.07,-714.09C609.76,-715.68 878.04,-718.53 977.39,-719.59"/>
<polygon fill="black" stroke="black" points="977.09,-723.09 987.13,-719.7 977.17,-716.09 977.09,-723.09"/>
</g>
<!-- 4 -->
<!-- name: &quot;bool&quot;, typeName: &quot;&quot;, id: 4, branchId: 0, recurseId: &#45;1, attributes: 512, notes: &quot;&quot; -->
<g id="node5" class="node">
<title>4</title>
<ellipse fill="none" stroke="black" cx="1016.74" cy="-666" rx="27.61" ry="18"/>
<text text-anchor="middle" x="1016.74" y="-660.58" font-family="Times New Roman,serif" font-size="14.00">bool</text>
</g>
<!-- 3&#45;&gt;4 -->
<g id="edge4" class="edge">
<title>3&#45;&gt;4</title>
<path fill="none" stroke="black" d="M671.07,-662.76C762.88,-663.62 908.89,-665 977.61,-665.64"/>
<polygon fill="black" stroke="black" points="977.19,-669.14 987.22,-665.73 977.26,-662.14 977.19,-669.14"/>
</g>
<!-- 6 -->
<!-- name: &quot;bool&quot;, typeName: &quot;&quot;, id: 6, branchId: 0, recurseId: &#45;1, attributes: 512, notes: &quot;&quot; -->
<g id="node7" class="node">
<title>6</title>
<ellipse fill="none" stroke="black" cx="1016.74" cy="-612" rx="27.61" ry="18"/>
<text text-anchor="middle" x="1016.74" y="-606.58" font-family="Times New Roman,serif" font-size="14.00">bool</text>
</g>
<!-- 5&#45;&gt;6 -->
<g id="edge6" class="edge">
<title>5&#45;&gt;6</title>
<path fill="none" stroke="black" d="M411.87,-613.84C540.81,-613.44 866.22,-612.45 977.63,-612.12"/>
<polygon fill="black" stroke="black" points="977.44,-615.62 987.43,-612.09 977.42,-608.62 977.44,-615.62"/>
</g>
<!-- 8 -->
<!-- name: &quot;Resource Pack Count&quot;, typeName: &quot;&quot;, id: 8, branchId: 0, recurseId: &#45;1, attributes: 0, notes: &quot;&quot; -->
<g id="node9" class="node">
<title>8</title>
<ellipse fill="none" stroke="black" cx="589.29" cy="-558" rx="92.48" ry="18"/>
<text text-anchor="middle" x="589.29" y="-552.58" font-family="Times New Roman,serif" font-size="14.00">Resource Pack Count</text>
</g>
<!-- 7&#45;&gt;8 -->
<g id="edge8" class="edge">
<title>7&#45;&gt;8</title>
<path fill="none" stroke="black" d="M428.59,-558C446.39,-558 465.89,-558 484.96,-558"/>
<polygon fill="black" stroke="black" points="484.92,-561.5 494.92,-558 484.92,-554.5 484.92,-561.5"/>
</g>
<!-- 10 -->
<!-- name: &quot;example element&quot;, typeName: &quot;&quot;, id: 10, branchId: 0, recurseId: &#45;1, attributes: 16, notes: &quot;&quot; -->
<g id="node11" class="node">
<title>10</title>
<ellipse fill="none" stroke="black" stroke-dasharray="1,5" cx="589.29" cy="-288" rx="71.52" ry="18"/>
<text text-anchor="middle" x="589.29" y="-282.57" font-family="Times New Roman,serif" font-size="14.00">example element</text>
</g>
<!-- 7&#45;&gt;10 -->
<g id="edge10" class="edge">
<title>7&#45;&gt;10</title>
<path fill="none" stroke="black" d="M373.44,-540.28C412.91,-493.94 519.36,-368.94 565.95,-314.24"/>
<polygon fill="black" stroke="black" points="568.35,-316.82 572.17,-306.93 563.02,-312.28 568.35,-316.82"/>
</g>
<!-- 9 -->
<!-- name: &quot;unsigned short&quot;, typeName: &quot;&quot;, id: 9, branchId: 0, recurseId: &#45;1, attributes: 512, notes: &quot;&quot; -->
<g id="node10" class="node">
<title>9</title>
<ellipse fill="none" stroke="black" cx="1016.74" cy="-558" rx="65.04" ry="18"/>
<text text-anchor="middle" x="1016.74" y="-552.58" font-family="Times New Roman,serif" font-size="14.00">unsigned short</text>
</g>
<!-- 8&#45;&gt;9 -->
<g id="edge9" class="edge">
<title>8&#45;&gt;9</title>
<path fill="none" stroke="black" d="M682.08,-558C759.18,-558 868.02,-558 940.16,-558"/>
<polygon fill="black" stroke="black" points="939.9,-561.5 949.9,-558 939.9,-554.5 939.9,-561.5"/>
</g>
<!-- 11 -->
<!-- name: &quot;ID&quot;, typeName: &quot;&quot;, id: 11, branchId: 0, recurseId: &#45;1, attributes: 0, notes: &quot;&quot; -->
<g id="node12" class="node">
<title>11</title>
<ellipse fill="none" stroke="black" cx="816.74" cy="-504" rx="27" ry="18"/>
<text text-anchor="middle" x="816.74" y="-498.57" font-family="Times New Roman,serif" font-size="14.00">ID</text>
</g>
<!-- 10&#45;&gt;11 -->
<g id="edge11" class="edge">
<title>10&#45;&gt;11</title>
<path fill="none" stroke="black" d="M597.4,-306.24C613.1,-344.1 654.46,-431.5 717.77,-477 735.41,-489.68 758.75,-496.41 778.22,-499.98"/>
<polygon fill="black" stroke="black" points="777.54,-503.41 787.97,-501.54 778.65,-496.5 777.54,-503.41"/>
</g>
<!-- 13 -->
<!-- name: &quot;Version&quot;, typeName: &quot;&quot;, id: 13, branchId: 0, recurseId: &#45;1, attributes: 0, notes: &quot;&quot; -->
<g id="node14" class="node">
<title>13</title>
<ellipse fill="none" stroke="black" cx="816.74" cy="-450" rx="39.59" ry="18"/>
<text text-anchor="middle" x="816.74" y="-444.57" font-family="Times New Roman,serif" font-size="14.00">Version</text>
</g>
<!-- 10&#45;&gt;13 -->
<g id="edge13" class="edge">
<title>10&#45;&gt;13</title>
<path fill="none" stroke="black" d="M602.15,-305.83C622.38,-334.83 666.39,-392.1 717.77,-423 732.76,-432.01 750.83,-438.09 767.35,-442.16"/>
<polygon fill="black" stroke="black" points="766.47,-445.55 777,-444.34 768.01,-438.73 766.47,-445.55"/>
</g>
<!-- 15 -->
<!-- name: &quot;Size&quot;, typeName: &quot;&quot;, id: 15, branchId: 0, recurseId: &#45;1, attributes: 0, notes: &quot;&quot; -->
<g id="node16" class="node">
<title>15</title>
<ellipse fill="none" stroke="black" cx="816.74" cy="-396" rx="27" ry="18"/>
<text text-anchor="middle" x="816.74" y="-390.57" font-family="Times New Roman,serif" font-size="14.00">Size</text>
</g>
<!-- 10&#45;&gt;15 -->
<g id="edge15" class="edge">
<title>10&#45;&gt;15</title>
<path fill="none" stroke="black" d="M613.07,-305.44C637.7,-323.57 678.7,-351.67 717.77,-369 737.4,-377.71 760.52,-384.24 779.36,-388.7"/>
<polygon fill="black" stroke="black" points="778.47,-392.08 789,-390.87 780.02,-385.25 778.47,-392.08"/>
</g>
<!-- 17 -->
<!-- name: &quot;Content Key&quot;, typeName: &quot;&quot;, id: 17, branchId: 0, recurseId: &#45;1, attributes: 0, notes: &quot;&quot; -->
<g id="node18" class="node">
<title>17</title>
<ellipse fill="none" stroke="black" cx="816.74" cy="-342" rx="57.55" ry="18"/>
<text text-anchor="middle" x="816.74" y="-336.57" font-family="Times New Roman,serif" font-size="14.00">Content Key</text>
</g>
<!-- 10&#45;&gt;17 -->
<g id="edge17" class="edge">
<title>10&#45;&gt;17</title>
<path fill="none" stroke="black" d="M642.3,-300.46C677.3,-308.84 723.43,-319.89 759.32,-328.49"/>
<polygon fill="black" stroke="black" points="758.09,-331.79 768.63,-330.72 759.72,-324.98 758.09,-331.79"/>
</g>
<!-- 19 -->
<!-- name: &quot;Sub Pack Name&quot;, typeName: &quot;&quot;, id: 19, branchId: 0, recurseId: &#45;1, attributes: 0, notes: &quot;&quot; -->
<g id="node20" class="node">
<title>19</title>
<ellipse fill="none" stroke="black" cx="816.74" cy="-288" rx="70.52" ry="18"/>
<text text-anchor="middle" x="816.74" y="-282.57" font-family="Times New Roman,serif" font-size="14.00">Sub Pack Name</text>
</g>
<!-- 10&#45;&gt;19 -->
<g id="edge19" class="edge">
<title>10&#45;&gt;19</title>
<path fill="none" stroke="black" d="M661.01,-288C684.42,-288 710.65,-288 734.77,-288"/>
<polygon fill="black" stroke="black" points="734.54,-291.5 744.54,-288 734.54,-284.5 734.54,-291.5"/>
</g>
<!-- 21 -->
<!-- name: &quot;Content Identity&quot;, typeName: &quot;&quot;, id: 21, branchId: 0, recurseId: &#45;1, attributes: 0, notes: &quot;&quot; -->
<g id="node22" class="node">
<title>21</title>
<ellipse fill="none" stroke="black" cx="816.74" cy="-234" rx="70.52" ry="18"/>
<text text-anchor="middle" x="816.74" y="-228.57" font-family="Times New Roman,serif" font-size="14.00">Content Identity</text>
</g>
<!-- 10&#45;&gt;21 -->
<g id="edge21" class="edge">
<title>10&#45;&gt;21</title>
<path fill="none" stroke="black" d="M642.3,-275.54C675.39,-267.62 718.43,-257.31 753.35,-248.94"/>
<polygon fill="black" stroke="black" points="754,-252.39 762.91,-246.65 752.37,-245.58 754,-252.39"/>
</g>
<!-- 23 -->
<!-- name: &quot;Has Scripts&quot;, typeName: &quot;&quot;, id: 23, branchId: 0, recurseId: &#45;1, attributes: 0, notes: &quot;&quot; -->
<g id="node24" class="node">
<title>23</title>
<ellipse fill="none" stroke="black" cx="816.74" cy="-180" rx="54.06" ry="18"/>
<text text-anchor="middle" x="816.74" y="-174.57" font-family="Times New Roman,serif" font-size="14.00">Has Scripts</text>
</g>
<!-- 10&#45;&gt;23 -->
<g id="edge23" class="edge">
<title>10&#45;&gt;23</title>
<path fill="none" stroke="black" d="M613.07,-270.56C637.7,-252.43 678.7,-224.33 717.77,-207 730.88,-201.19 745.54,-196.34 759.44,-192.44"/>
<polygon fill="black" stroke="black" points="760.17,-195.87 768.93,-189.9 758.36,-189.11 760.17,-195.87"/>
</g>
<!-- 25 -->
<!-- name: &quot;Is Addon Pack&quot;, typeName: &quot;&quot;, id: 25, branchId: 0, recurseId: &#45;1, attributes: 0, notes: &quot;Indicates this pack is part of an Add&#45;On. Helps clients determine if the pack must be downloaded to join the server as Add&#45;On packs are required to play without issues.&quot; -->
<g id="node26" class="node">
<title>25</title>
<ellipse fill="none" stroke="black" cx="816.74" cy="-126" rx="67.03" ry="18"/>
<text text-anchor="middle" x="816.74" y="-120.58" font-family="Times New Roman,serif" font-size="14.00">Is Addon Pack</text>
</g>
<!-- 10&#45;&gt;25 -->
<g id="edge25" class="edge">
<title>10&#45;&gt;25</title>
<path fill="none" stroke="black" d="M602.15,-270.17C622.38,-241.17 666.39,-183.9 717.77,-153 727.3,-147.27 738.07,-142.73 748.89,-139.13"/>
<polygon fill="black" stroke="black" points="749.7,-142.54 758.24,-136.28 747.66,-135.85 749.7,-142.54"/>
</g>
<!-- 27 -->
<!-- name: &quot;Is Ray Tracing Capable&quot;, typeName: &quot;&quot;, id: 27, branchId: 0, recurseId: &#45;1, attributes: 0, notes: &quot;&quot; -->
<g id="node28" class="node">
<title>27</title>
<ellipse fill="none" stroke="black" cx="816.74" cy="-72" rx="98.97" ry="18"/>
<text text-anchor="middle" x="816.74" y="-66.58" font-family="Times New Roman,serif" font-size="14.00">Is Ray Tracing Capable</text>
</g>
<!-- 10&#45;&gt;27 -->
<g id="edge27" class="edge">
<title>10&#45;&gt;27</title>
<path fill="none" stroke="black" d="M597.4,-269.76C613.1,-231.9 654.46,-144.5 717.77,-99 723.05,-95.21 728.84,-91.95 734.88,-89.14"/>
<polygon fill="black" stroke="black" points="735.94,-92.49 743.84,-85.43 733.26,-86.03 735.94,-92.49"/>
</g>
<!-- 29 -->
<!-- name: &quot;CDN URL&quot;, typeName: &quot;&quot;, id: 29, branchId: 0, recurseId: &#45;1, attributes: 0, notes: &quot;&quot; -->
<g id="node30" class="node">
<title>29</title>
<ellipse fill="none" stroke="black" cx="816.74" cy="-18" rx="51.06" ry="18"/>
<text text-anchor="middle" x="816.74" y="-12.57" font-family="Times New Roman,serif" font-size="14.00">CDN URL</text>
</g>
<!-- 10&#45;&gt;29 -->
<g id="edge29" class="edge">
<title>10&#45;&gt;29</title>
<path fill="none" stroke="black" d="M594.48,-269.88C605.9,-224.66 641.91,-106.13 717.77,-45 728.88,-36.05 742.75,-30.06 756.53,-26.05"/>
<polygon fill="black" stroke="black" points="757.21,-29.49 766.03,-23.62 755.48,-22.7 757.21,-29.49"/>
</g>
<!-- 12 -->
<!-- name: &quot;string&quot;, typeName: &quot;&quot;, id: 12, branchId: 0, recurseId: &#45;1, attributes: 512, notes: &quot;&quot; -->
<g id="node13" class="node">
<title>12</title>
<ellipse fill="none" stroke="black" cx="1016.74" cy="-504" rx="31.1" ry="18"/>
<text text-anchor="middle" x="1016.74" y="-498.57" font-family="Times New Roman,serif" font-size="14.00">string</text>
</g>
<!-- 11&#45;&gt;12 -->
<g id="edge12" class="edge">
<title>11&#45;&gt;12</title>
<path fill="none" stroke="black" d="M844.03,-504C877.28,-504 934.91,-504 974.15,-504"/>
<polygon fill="black" stroke="black" points="973.93,-507.5 983.93,-504 973.93,-500.5 973.93,-507.5"/>
</g>
<!-- 14 -->
<!-- name: &quot;string&quot;, typeName: &quot;&quot;, id: 14, branchId: 0, recurseId: &#45;1, attributes: 512, notes: &quot;&quot; -->
<g id="node15" class="node">
<title>14</title>
<ellipse fill="none" stroke="black" cx="1016.74" cy="-450" rx="31.1" ry="18"/>
<text text-anchor="middle" x="1016.74" y="-444.57" font-family="Times New Roman,serif" font-size="14.00">string</text>
</g>
<!-- 13&#45;&gt;14 -->
<g id="edge14" class="edge">
<title>13&#45;&gt;14</title>
<path fill="none" stroke="black" d="M856.39,-450C890.26,-450 939.38,-450 974.11,-450"/>
<polygon fill="black" stroke="black" points="973.78,-453.5 983.78,-450 973.78,-446.5 973.78,-453.5"/>
</g>
<!-- 16 -->
<!-- name: &quot;unsigned int64&quot;, typeName: &quot;&quot;, id: 16, branchId: 0, recurseId: &#45;1, attributes: 512, notes: &quot;&quot; -->
<g id="node17" class="node">
<title>16</title>
<ellipse fill="none" stroke="black" cx="1016.74" cy="-396" rx="64.04" ry="18"/>
<text text-anchor="middle" x="1016.74" y="-390.57" font-family="Times New Roman,serif" font-size="14.00">unsigned int64</text>
</g>
<!-- 15&#45;&gt;16 -->
<g id="edge16" class="edge">
<title>15&#45;&gt;16</title>
<path fill="none" stroke="black" d="M844.03,-396C868.8,-396 907.08,-396 941.23,-396"/>
<polygon fill="black" stroke="black" points="941.11,-399.5 951.11,-396 941.11,-392.5 941.11,-399.5"/>
</g>
<!-- 18 -->
<!-- name: &quot;string&quot;, typeName: &quot;&quot;, id: 18, branchId: 0, recurseId: &#45;1, attributes: 512, notes: &quot;&quot; -->
<g id="node19" class="node">
<title>18</title>
<ellipse fill="none" stroke="black" cx="1016.74" cy="-342" rx="31.1" ry="18"/>
<text text-anchor="middle" x="1016.74" y="-336.57" font-family="Times New Roman,serif" font-size="14.00">string</text>
</g>
<!-- 17&#45;&gt;18 -->
<g id="edge18" class="edge">
<title>17&#45;&gt;18</title>
<path fill="none" stroke="black" d="M874.75,-342C906.37,-342 945.03,-342 973.85,-342"/>
<polygon fill="black" stroke="black" points="973.65,-345.5 983.65,-342 973.65,-338.5 973.65,-345.5"/>
</g>
<!-- 20 -->
<!-- name: &quot;string&quot;, typeName: &quot;&quot;, id: 20, branchId: 0, recurseId: &#45;1, attributes: 512, notes: &quot;&quot; -->
<g id="node21" class="node">
<title>20</title>
<ellipse fill="none" stroke="black" cx="1016.74" cy="-288" rx="31.1" ry="18"/>
<text text-anchor="middle" x="1016.74" y="-282.57" font-family="Times New Roman,serif" font-size="14.00">string</text>
</g>
<!-- 19&#45;&gt;20 -->
<g id="edge20" class="edge">
<title>19&#45;&gt;20</title>
<path fill="none" stroke="black" d="M887.55,-288C916.38,-288 948.85,-288 973.89,-288"/>
<polygon fill="black" stroke="black" points="973.68,-291.5 983.68,-288 973.68,-284.5 973.68,-291.5"/>
</g>
<!-- 22 -->
<!-- name: &quot;string&quot;, typeName: &quot;&quot;, id: 22, branchId: 0, recurseId: &#45;1, attributes: 512, notes: &quot;&quot; -->
<g id="node23" class="node">
<title>22</title>
<ellipse fill="none" stroke="black" cx="1016.74" cy="-234" rx="31.1" ry="18"/>
<text text-anchor="middle" x="1016.74" y="-228.57" font-family="Times New Roman,serif" font-size="14.00">string</text>
</g>
<!-- 21&#45;&gt;22 -->
<g id="edge22" class="edge">
<title>21&#45;&gt;22</title>
<path fill="none" stroke="black" d="M887.55,-234C916.38,-234 948.85,-234 973.89,-234"/>
<polygon fill="black" stroke="black" points="973.68,-237.5 983.68,-234 973.68,-230.5 973.68,-237.5"/>
</g>
<!-- 24 -->
<!-- name: &quot;bool&quot;, typeName: &quot;&quot;, id: 24, branchId: 0, recurseId: &#45;1, attributes: 512, notes: &quot;&quot; -->
<g id="node25" class="node">
<title>24</title>
<ellipse fill="none" stroke="black" cx="1016.74" cy="-180" rx="27.61" ry="18"/>
<text text-anchor="middle" x="1016.74" y="-174.57" font-family="Times New Roman,serif" font-size="14.00">bool</text>
</g>
<!-- 23&#45;&gt;24 -->
<g id="edge24" class="edge">
<title>23&#45;&gt;24</title>
<path fill="none" stroke="black" d="M871.06,-180C904.63,-180 947.18,-180 977.43,-180"/>
<polygon fill="black" stroke="black" points="977.26,-183.5 987.26,-180 977.26,-176.5 977.26,-183.5"/>
</g>
<!-- 26 -->
<!-- name: &quot;bool&quot;, typeName: &quot;&quot;, id: 26, branchId: 0, recurseId: &#45;1, attributes: 512, notes: &quot;&quot; -->
<g id="node27" class="node">
<title>26</title>
<ellipse fill="none" stroke="black" cx="1016.74" cy="-126" rx="27.61" ry="18"/>
<text text-anchor="middle" x="1016.74" y="-120.58" font-family="Times New Roman,serif" font-size="14.00">bool</text>
</g>
<!-- 25&#45;&gt;26 -->
<g id="edge26" class="edge">
<title>25&#45;&gt;26</title>
<path fill="none" stroke="black" d="M884.22,-126C915.2,-126 950.97,-126 977.37,-126"/>
<polygon fill="black" stroke="black" points="977.28,-129.5 987.28,-126 977.28,-122.5 977.28,-129.5"/>
</g>
<!-- 28 -->
<!-- name: &quot;bool&quot;, typeName: &quot;&quot;, id: 28, branchId: 0, recurseId: &#45;1, attributes: 512, notes: &quot;&quot; -->
<g id="node29" class="node">
<title>28</title>
<ellipse fill="none" stroke="black" cx="1016.74" cy="-72" rx="27.61" ry="18"/>
<text text-anchor="middle" x="1016.74" y="-66.58" font-family="Times New Roman,serif" font-size="14.00">bool</text>
</g>
<!-- 27&#45;&gt;28 -->
<g id="edge28" class="edge">
<title>27&#45;&gt;28</title>
<path fill="none" stroke="black" d="M916.16,-72C937.93,-72 959.73,-72 977.36,-72"/>
<polygon fill="black" stroke="black" points="977.34,-75.5 987.34,-72 977.34,-68.5 977.34,-75.5"/>
</g>
<!-- 30 -->
<!-- name: &quot;string&quot;, typeName: &quot;&quot;, id: 30, branchId: 0, recurseId: &#45;1, attributes: 512, notes: &quot;&quot; -->
<g id="node31" class="node">
<title>30</title>
<ellipse fill="none" stroke="black" cx="1016.74" cy="-18" rx="31.1" ry="18"/>
<text text-anchor="middle" x="1016.74" y="-12.57" font-family="Times New Roman,serif" font-size="14.00">string</text>
</g>
<!-- 29&#45;&gt;30 -->
<g id="edge30" class="edge">
<title>29&#45;&gt;30</title>
<path fill="none" stroke="black" d="M868.22,-18C901.03,-18 943.3,-18 974.17,-18"/>
<polygon fill="black" stroke="black" points="973.89,-21.5 983.89,-18 973.89,-14.5 973.89,-21.5"/>
</g>
</g>
</svg>
