<?xml version="1.0" encoding="UTF-8" standalone="no"?>
<!DOCTYPE svg PUBLIC "-//W3C//DTD SVG 1.1//EN"
 "http://www.w3.org/Graphics/SVG/1.1/DTD/svg11.dtd">
<!-- Generated by graphviz version 10.0.1 (20240210.2158)
 -->
<!-- Title: ResourcePackDataInfoPacket Pages: 1 -->
<svg width="616pt" height="368pt"
 viewBox="0.00 0.00 615.92 368.00" xmlns="http://www.w3.org/2000/svg" xmlns:xlink="http://www.w3.org/1999/xlink">
<g id="graph0" class="graph" transform="scale(1 1) rotate(0) translate(4 364)">
<title>ResourcePackDataInfoPacket</title>
<polygon fill="white" stroke="none" points="-4,4 -4,-364 611.92,-364 611.92,4 -4,4"/>
<!-- 0 -->
<!-- name: &quot;ResourcePackDataInfoPacket&quot;, typeName: &quot;&quot;, id: 0, branchId: 82, recurseId: &#45;1, attributes: 0, notes: &quot;&quot; -->
<g id="node1" class="node">
<title>0</title>
<ellipse fill="none" stroke="black" cx="121.92" cy="-180" rx="121.92" ry="18"/>
<text text-anchor="middle" x="121.92" y="-174.57" font-family="Times New Roman,serif" font-size="14.00">ResourcePackDataInfoPacket</text>
</g>
<!-- 1 -->
<!-- name: &quot;Resource Name&quot;, typeName: &quot;&quot;, id: 1, branchId: 0, recurseId: &#45;1, attributes: 0, notes: &quot;&quot; -->
<g id="node2" class="node">
<title>1</title>
<ellipse fill="none" stroke="black" cx="361.84" cy="-342" rx="70.03" ry="18"/>
<text text-anchor="middle" x="361.84" y="-336.57" font-family="Times New Roman,serif" font-size="14.00">Resource Name</text>
</g>
<!-- 0&#45;&gt;1 -->
<g id="edge1" class="edge">
<title>0&#45;&gt;1</title>
<path fill="none" stroke="black" d="M139.53,-198.29C166.43,-226.9 222.33,-282.37 279.84,-315 286.59,-318.83 293.96,-322.22 301.43,-325.19"/>
<polygon fill="black" stroke="black" points="299.97,-328.39 310.56,-328.59 302.41,-321.82 299.97,-328.39"/>
</g>
<!-- 3 -->
<!-- name: &quot;Chunk Size&quot;, typeName: &quot;&quot;, id: 3, branchId: 0, recurseId: &#45;1, attributes: 0, notes: &quot;&quot; -->
<g id="node4" class="node">
<title>3</title>
<ellipse fill="none" stroke="black" cx="361.84" cy="-288" rx="53.06" ry="18"/>
<text text-anchor="middle" x="361.84" y="-282.57" font-family="Times New Roman,serif" font-size="14.00">Chunk Size</text>
</g>
<!-- 0&#45;&gt;3 -->
<g id="edge3" class="edge">
<title>0&#45;&gt;3</title>
<path fill="none" stroke="black" d="M153.8,-197.75C184.96,-215.23 234.79,-242 279.84,-261 289.57,-265.1 300.16,-269.01 310.37,-272.52"/>
<polygon fill="black" stroke="black" points="309.22,-275.83 319.81,-275.68 311.44,-269.19 309.22,-275.83"/>
</g>
<!-- 5 -->
<!-- name: &quot;Number of Chunks&quot;, typeName: &quot;&quot;, id: 5, branchId: 0, recurseId: &#45;1, attributes: 0, notes: &quot;&quot; -->
<g id="node6" class="node">
<title>5</title>
<ellipse fill="none" stroke="black" cx="361.84" cy="-234" rx="82" ry="18"/>
<text text-anchor="middle" x="361.84" y="-228.57" font-family="Times New Roman,serif" font-size="14.00">Number of Chunks</text>
</g>
<!-- 0&#45;&gt;5 -->
<g id="edge5" class="edge">
<title>0&#45;&gt;5</title>
<path fill="none" stroke="black" d="M190.15,-195.26C222.11,-202.51 260.25,-211.17 292.37,-218.46"/>
<polygon fill="black" stroke="black" points="291.46,-221.84 301.98,-220.64 293.01,-215.01 291.46,-221.84"/>
</g>
<!-- 7 -->
<!-- name: &quot;File Size&quot;, typeName: &quot;&quot;, id: 7, branchId: 0, recurseId: &#45;1, attributes: 0, notes: &quot;&quot; -->
<g id="node8" class="node">
<title>7</title>
<ellipse fill="none" stroke="black" cx="361.84" cy="-180" rx="42.08" ry="18"/>
<text text-anchor="middle" x="361.84" y="-174.57" font-family="Times New Roman,serif" font-size="14.00">File Size</text>
</g>
<!-- 0&#45;&gt;7 -->
<g id="edge7" class="edge">
<title>0&#45;&gt;7</title>
<path fill="none" stroke="black" d="M244.32,-180C266.71,-180 288.99,-180 307.97,-180"/>
<polygon fill="black" stroke="black" points="307.83,-183.5 317.83,-180 307.83,-176.5 307.83,-183.5"/>
</g>
<!-- 9 -->
<!-- name: &quot;File Hash&quot;, typeName: &quot;&quot;, id: 9, branchId: 0, recurseId: &#45;1, attributes: 0, notes: &quot;&quot; -->
<g id="node10" class="node">
<title>9</title>
<ellipse fill="none" stroke="black" cx="361.84" cy="-126" rx="45.57" ry="18"/>
<text text-anchor="middle" x="361.84" y="-120.58" font-family="Times New Roman,serif" font-size="14.00">File Hash</text>
</g>
<!-- 0&#45;&gt;9 -->
<g id="edge9" class="edge">
<title>0&#45;&gt;9</title>
<path fill="none" stroke="black" d="M190.15,-164.74C228.46,-156.05 275.67,-145.33 310.72,-137.38"/>
<polygon fill="black" stroke="black" points="311.19,-140.86 320.17,-135.23 309.64,-134.03 311.19,-140.86"/>
</g>
<!-- 11 -->
<!-- name: &quot;Is Premium Pack&quot;, typeName: &quot;&quot;, id: 11, branchId: 0, recurseId: &#45;1, attributes: 0, notes: &quot;Do you need an entitlement to use this pack?&quot; -->
<g id="node12" class="node">
<title>11</title>
<ellipse fill="none" stroke="black" cx="361.84" cy="-72" rx="74.02" ry="18"/>
<text text-anchor="middle" x="361.84" y="-66.58" font-family="Times New Roman,serif" font-size="14.00">Is Premium Pack</text>
</g>
<!-- 0&#45;&gt;11 -->
<g id="edge11" class="edge">
<title>0&#45;&gt;11</title>
<path fill="none" stroke="black" d="M153.8,-162.25C184.96,-144.77 234.79,-118 279.84,-99 287.35,-95.83 295.38,-92.78 303.35,-89.94"/>
<polygon fill="black" stroke="black" points="304.39,-93.28 312.69,-86.7 302.1,-86.67 304.39,-93.28"/>
</g>
<!-- 13 -->
<!-- name: &quot;Pack Type&quot;, typeName: &quot;&quot;, id: 13, branchId: 0, recurseId: &#45;1, attributes: 0, notes: &quot;&quot; -->
<g id="node14" class="node">
<title>13</title>
<ellipse fill="none" stroke="black" cx="361.84" cy="-18" rx="51.06" ry="18"/>
<text text-anchor="middle" x="361.84" y="-12.57" font-family="Times New Roman,serif" font-size="14.00">Pack Type</text>
</g>
<!-- 0&#45;&gt;13 -->
<g id="edge13" class="edge">
<title>0&#45;&gt;13</title>
<path fill="none" stroke="black" d="M139.53,-161.71C166.43,-133.1 222.33,-77.63 279.84,-45 288.84,-39.9 298.95,-35.57 308.89,-31.97"/>
<polygon fill="black" stroke="black" points="309.78,-35.37 318.13,-28.84 307.53,-28.74 309.78,-35.37"/>
</g>
<!-- 2 -->
<!-- name: &quot;string&quot;, typeName: &quot;&quot;, id: 2, branchId: 0, recurseId: &#45;1, attributes: 512, notes: &quot;&quot; -->
<g id="node3" class="node">
<title>2</title>
<ellipse fill="none" stroke="black" cx="543.88" cy="-342" rx="31.1" ry="18"/>
<text text-anchor="middle" x="543.88" y="-336.57" font-family="Times New Roman,serif" font-size="14.00">string</text>
</g>
<!-- 1&#45;&gt;2 -->
<g id="edge2" class="edge">
<title>1&#45;&gt;2</title>
<path fill="none" stroke="black" d="M432.19,-342C455.38,-342 480.5,-342 500.94,-342"/>
<polygon fill="black" stroke="black" points="500.87,-345.5 510.87,-342 500.87,-338.5 500.87,-345.5"/>
</g>
<!-- 4 -->
<!-- name: &quot;unsigned int&quot;, typeName: &quot;&quot;, id: 4, branchId: 0, recurseId: &#45;1, attributes: 512, notes: &quot;&quot; -->
<g id="node5" class="node">
<title>4</title>
<ellipse fill="none" stroke="black" cx="543.88" cy="-288" rx="55.06" ry="18"/>
<text text-anchor="middle" x="543.88" y="-282.57" font-family="Times New Roman,serif" font-size="14.00">unsigned int</text>
</g>
<!-- 3&#45;&gt;4 -->
<g id="edge4" class="edge">
<title>3&#45;&gt;4</title>
<path fill="none" stroke="black" d="M415.4,-288C434.67,-288 456.72,-288 477,-288"/>
<polygon fill="black" stroke="black" points="476.87,-291.5 486.87,-288 476.87,-284.5 476.87,-291.5"/>
</g>
<!-- 6 -->
<!-- name: &quot;unsigned int&quot;, typeName: &quot;&quot;, id: 6, branchId: 0, recurseId: &#45;1, attributes: 512, notes: &quot;&quot; -->
<g id="node7" class="node">
<title>6</title>
<ellipse fill="none" stroke="black" cx="543.88" cy="-234" rx="55.06" ry="18"/>
<text text-anchor="middle" x="543.88" y="-228.57" font-family="Times New Roman,serif" font-size="14.00">unsigned int</text>
</g>
<!-- 5&#45;&gt;6 -->
<g id="edge6" class="edge">
<title>5&#45;&gt;6</title>
<path fill="none" stroke="black" d="M444.17,-234C455.19,-234 466.38,-234 477.08,-234"/>
<polygon fill="black" stroke="black" points="476.96,-237.5 486.96,-234 476.96,-230.5 476.96,-237.5"/>
</g>
<!-- 8 -->
<!-- name: &quot;unsigned int64&quot;, typeName: &quot;&quot;, id: 8, branchId: 0, recurseId: &#45;1, attributes: 512, notes: &quot;&quot; -->
<g id="node9" class="node">
<title>8</title>
<ellipse fill="none" stroke="black" cx="543.88" cy="-180" rx="64.04" ry="18"/>
<text text-anchor="middle" x="543.88" y="-174.57" font-family="Times New Roman,serif" font-size="14.00">unsigned int64</text>
</g>
<!-- 7&#45;&gt;8 -->
<g id="edge8" class="edge">
<title>7&#45;&gt;8</title>
<path fill="none" stroke="black" d="M404.15,-180C423.16,-180 446.31,-180 468.21,-180"/>
<polygon fill="black" stroke="black" points="468.01,-183.5 478.01,-180 468.01,-176.5 468.01,-183.5"/>
</g>
<!-- 10 -->
<!-- name: &quot;string&quot;, typeName: &quot;&quot;, id: 10, branchId: 0, recurseId: &#45;1, attributes: 512, notes: &quot;&quot; -->
<g id="node11" class="node">
<title>10</title>
<ellipse fill="none" stroke="black" cx="543.88" cy="-126" rx="31.1" ry="18"/>
<text text-anchor="middle" x="543.88" y="-120.58" font-family="Times New Roman,serif" font-size="14.00">string</text>
</g>
<!-- 9&#45;&gt;10 -->
<g id="edge10" class="edge">
<title>9&#45;&gt;10</title>
<path fill="none" stroke="black" d="M407.81,-126C436.34,-126 472.99,-126 500.92,-126"/>
<polygon fill="black" stroke="black" points="500.79,-129.5 510.79,-126 500.79,-122.5 500.79,-129.5"/>
</g>
<!-- 12 -->
<!-- name: &quot;bool&quot;, typeName: &quot;&quot;, id: 12, branchId: 0, recurseId: &#45;1, attributes: 512, notes: &quot;&quot; -->
<g id="node13" class="node">
<title>12</title>
<ellipse fill="none" stroke="black" cx="543.88" cy="-72" rx="27.61" ry="18"/>
<text text-anchor="middle" x="543.88" y="-66.58" font-family="Times New Roman,serif" font-size="14.00">bool</text>
</g>
<!-- 11&#45;&gt;12 -->
<g id="edge12" class="edge">
<title>11&#45;&gt;12</title>
<path fill="none" stroke="black" d="M436.33,-72C459.79,-72 484.81,-72 504.7,-72"/>
<polygon fill="black" stroke="black" points="504.55,-75.5 514.55,-72 504.55,-68.5 504.55,-75.5"/>
</g>
<!-- 14 -->
<!-- name: &quot;byte&quot;, typeName: &quot;&quot;, id: 14, branchId: 0, recurseId: &#45;1, attributes: 512, notes: &quot;&quot; -->
<g id="node15" class="node">
<title>14</title>
<ellipse fill="none" stroke="black" cx="543.88" cy="-18" rx="27" ry="18"/>
<text text-anchor="middle" x="543.88" y="-12.57" font-family="Times New Roman,serif" font-size="14.00">byte</text>
</g>
<!-- 13&#45;&gt;14 -->
<g id="edge14" class="edge">
<title>13&#45;&gt;14</title>
<path fill="none" stroke="black" d="M413,-18C442.27,-18 478.6,-18 505.38,-18"/>
<polygon fill="black" stroke="black" points="505.08,-21.5 515.08,-18 505.08,-14.5 505.08,-21.5"/>
</g>
</g>
</svg>
