<?xml version="1.0" encoding="UTF-8" standalone="no"?>
<!DOCTYPE svg PUBLIC "-//W3C//DTD SVG 1.1//EN"
 "http://www.w3.org/Graphics/SVG/1.1/DTD/svg11.dtd">
<!-- Generated by graphviz version 12.2.0 (20241103.1931)
 -->
<!-- Title: ScoreboardId Pages: 1 -->
<svg width="338pt" height="44pt"
 viewBox="0.00 0.00 338.38 44.00" xmlns="http://www.w3.org/2000/svg" xmlns:xlink="http://www.w3.org/1999/xlink">
<g id="graph0" class="graph" transform="scale(1 1) rotate(0) translate(4 40)">
<title>ScoreboardId</title>
<polygon fill="white" stroke="none" points="-4,4 -4,-40 334.38,-40 334.38,4 -4,4"/>
<!-- 8 -->
<!-- name: &quot;ScoreboardId&quot;, typeName: &quot;&quot;, id: 8, branchId: 0, recurseId: &#45;1, attributes: 0, notes: &quot;&quot; -->
<g id="node1" class="node">
<title>8</title>
<ellipse fill="none" stroke="black" cx="60.56" cy="-18" rx="60.56" ry="18"/>
<text text-anchor="middle" x="60.56" y="-12.95" font-family="Times New Roman,serif" font-size="14.00">ScoreboardId</text>
</g>
<!-- 9 -->
<!-- name: &quot;Id&quot;, typeName: &quot;&quot;, id: 9, branchId: 0, recurseId: &#45;1, attributes: 0, notes: &quot;&quot; -->
<g id="node2" class="node">
<title>9</title>
<ellipse fill="none" stroke="black" cx="184.13" cy="-18" rx="27" ry="18"/>
<text text-anchor="middle" x="184.13" y="-12.95" font-family="Times New Roman,serif" font-size="14.00">Id</text>
</g>
<!-- 8&#45;&gt;9 -->
<g id="edge1" class="edge">
<title>8&#45;&gt;9</title>
<path fill="none" stroke="black" d="M121.28,-18C129.47,-18 137.7,-18 145.35,-18"/>
<polygon fill="black" stroke="black" points="145.3,-21.5 155.3,-18 145.3,-14.5 145.3,-21.5"/>
</g>
<!-- 10 -->
<!-- name: &quot;varint64&quot;, typeName: &quot;&quot;, id: 10, branchId: 0, recurseId: &#45;1, attributes: 512, notes: &quot;&quot; -->
<g id="node3" class="node">
<title>10</title>
<ellipse fill="none" stroke="black" cx="288.75" cy="-18" rx="41.63" ry="18"/>
<text text-anchor="middle" x="288.75" y="-12.95" font-family="Times New Roman,serif" font-size="14.00">varint64</text>
</g>
<!-- 9&#45;&gt;10 -->
<g id="edge2" class="edge">
<title>9&#45;&gt;10</title>
<path fill="none" stroke="black" d="M211.56,-18C218.91,-18 227.15,-18 235.44,-18"/>
<polygon fill="black" stroke="black" points="235.16,-21.5 245.16,-18 235.16,-14.5 235.16,-21.5"/>
</g>
</g>
</svg>
