<?xml version="1.0" encoding="UTF-8" standalone="no"?>
<!DOCTYPE svg PUBLIC "-//W3C//DTD SVG 1.1//EN"
 "http://www.w3.org/Graphics/SVG/1.1/DTD/svg11.dtd">
<!-- Generated by graphviz version 12.2.1 (20241206.2353)
 -->
<!-- Title: ScriptModuleDebugUtilities::ScriptDebugShapeType Pages: 1 -->
<svg width="705pt" height="44pt"
 viewBox="0.00 0.00 704.84 44.00" xmlns="http://www.w3.org/2000/svg" xmlns:xlink="http://www.w3.org/1999/xlink">
<g id="graph0" class="graph" transform="scale(1 1) rotate(0) translate(4 40)">
<title>ScriptModuleDebugUtilities::ScriptDebugShapeType</title>
<polygon fill="white" stroke="none" points="-4,4 -4,-40 700.84,-40 700.84,4 -4,4"/>
<!-- 12 -->
<!-- name: &quot;ScriptModuleDebugUtilities::ScriptDebugShapeType&quot;, typeName: &quot;&quot;, id: 12, branchId: 0, recurseId: &#45;1, attributes: 0, notes: &quot;&quot; -->
<g id="node1" class="node">
<title>12</title>
<ellipse fill="none" stroke="black" cx="208.99" cy="-18" rx="208.99" ry="18"/>
<text text-anchor="middle" x="208.99" y="-12.95" font-family="Times New Roman,serif" font-size="14.00">ScriptModuleDebugUtilities::ScriptDebugShapeType</text>
</g>
<!-- 13 -->
<!-- name: &quot;DebugShapeType&quot;, typeName: &quot;&quot;, id: 13, branchId: 0, recurseId: &#45;1, attributes: 0, notes: &quot;&quot; -->
<g id="node2" class="node">
<title>13</title>
<ellipse fill="none" stroke="black" cx="530.41" cy="-18" rx="76.43" ry="18"/>
<text text-anchor="middle" x="530.41" y="-12.95" font-family="Times New Roman,serif" font-size="14.00">DebugShapeType</text>
</g>
<!-- 12&#45;&gt;13 -->
<g id="edge1" class="edge">
<title>12&#45;&gt;13</title>
<path fill="none" stroke="black" d="M418.14,-18C426.34,-18 434.35,-18 442.08,-18"/>
<polygon fill="black" stroke="black" points="442.06,-21.5 452.06,-18 442.06,-14.5 442.06,-21.5"/>
</g>
<!-- 14 -->
<!-- name: &quot;byte&quot;, typeName: &quot;&quot;, id: 14, branchId: 0, recurseId: &#45;1, attributes: 512, notes: &quot;&quot; -->
<g id="node3" class="node">
<title>14</title>
<ellipse fill="none" stroke="black" cx="669.84" cy="-18" rx="27" ry="18"/>
<text text-anchor="middle" x="669.84" y="-12.95" font-family="Times New Roman,serif" font-size="14.00">byte</text>
</g>
<!-- 13&#45;&gt;14 -->
<g id="edge2" class="edge">
<title>13&#45;&gt;14</title>
<path fill="none" stroke="black" d="M606.96,-18C615.31,-18 623.52,-18 631.1,-18"/>
<polygon fill="black" stroke="black" points="630.9,-21.5 640.9,-18 630.9,-14.5 630.9,-21.5"/>
</g>
</g>
</svg>
