<?xml version="1.0" encoding="UTF-8" standalone="no"?>
<!DOCTYPE svg PUBLIC "-//W3C//DTD SVG 1.1//EN"
 "http://www.w3.org/Graphics/SVG/1.1/DTD/svg11.dtd">
<!-- Generated by graphviz version 2.46.1 (20210213.1702)
 -->
<!-- Title: ScriptMessagePacket Pages: 1 -->
<svg width="450pt" height="98pt"
 viewBox="0.00 0.00 450.47 98.00" xmlns="http://www.w3.org/2000/svg" xmlns:xlink="http://www.w3.org/1999/xlink">
<g id="graph0" class="graph" transform="scale(1 1) rotate(0) translate(4 94)">
<title>ScriptMessagePacket</title>
<polygon fill="white" stroke="transparent" points="-4,4 -4,-94 446.47,-94 446.47,4 -4,4"/>
<!-- 0 -->
<!-- name: &quot;ScriptMessagePacket&quot;, typeName: &quot;&quot;, id: 0, branchId: 177, recurseId: &#45;1, attributes: 0, notes: &quot;&quot; -->
<g id="node1" class="node">
<title>0</title>
<ellipse fill="none" stroke="black" cx="89.04" cy="-45" rx="89.08" ry="18"/>
<text text-anchor="middle" x="89.04" y="-41.3" font-family="Times New Roman,serif" font-size="14.00">ScriptMessagePacket</text>
</g>
<!-- 1 -->
<!-- name: &quot;Message Id&quot;, typeName: &quot;&quot;, id: 1, branchId: 0, recurseId: &#45;1, attributes: 0, notes: &quot;&quot; -->
<g id="node2" class="node">
<title>1</title>
<ellipse fill="none" stroke="black" cx="279.73" cy="-72" rx="52.79" ry="18"/>
<text text-anchor="middle" x="279.73" y="-68.3" font-family="Times New Roman,serif" font-size="14.00">Message Id</text>
</g>
<!-- 0&#45;&gt;1 -->
<g id="edge1" class="edge">
<title>0&#45;&gt;1</title>
<path fill="none" stroke="black" d="M162.18,-55.32C181.58,-58.1 202.31,-61.07 220.83,-63.71"/>
<polygon fill="black" stroke="black" points="220.47,-67.2 230.86,-65.15 221.46,-60.27 220.47,-67.2"/>
</g>
<!-- 3 -->
<!-- name: &quot;Message Value&quot;, typeName: &quot;&quot;, id: 3, branchId: 0, recurseId: &#45;1, attributes: 0, notes: &quot;&quot; -->
<g id="node4" class="node">
<title>3</title>
<ellipse fill="none" stroke="black" cx="279.73" cy="-18" rx="65.79" ry="18"/>
<text text-anchor="middle" x="279.73" y="-14.3" font-family="Times New Roman,serif" font-size="14.00">Message Value</text>
</g>
<!-- 0&#45;&gt;3 -->
<g id="edge3" class="edge">
<title>0&#45;&gt;3</title>
<path fill="none" stroke="black" d="M162.18,-34.68C178.23,-32.38 195.18,-29.96 211.04,-27.69"/>
<polygon fill="black" stroke="black" points="211.88,-31.1 221.28,-26.22 210.89,-24.17 211.88,-31.1"/>
</g>
<!-- 2 -->
<!-- name: &quot;string&quot;, typeName: &quot;&quot;, id: 2, branchId: 0, recurseId: &#45;1, attributes: 512, notes: &quot;&quot; -->
<g id="node3" class="node">
<title>2</title>
<ellipse fill="none" stroke="black" cx="411.92" cy="-72" rx="30.59" ry="18"/>
<text text-anchor="middle" x="411.92" y="-68.3" font-family="Times New Roman,serif" font-size="14.00">string</text>
</g>
<!-- 1&#45;&gt;2 -->
<g id="edge2" class="edge">
<title>1&#45;&gt;2</title>
<path fill="none" stroke="black" d="M332.56,-72C345.28,-72 358.71,-72 370.79,-72"/>
<polygon fill="black" stroke="black" points="371.01,-75.5 381.01,-72 371.01,-68.5 371.01,-75.5"/>
</g>
<!-- 4 -->
<!-- name: &quot;string&quot;, typeName: &quot;&quot;, id: 4, branchId: 0, recurseId: &#45;1, attributes: 512, notes: &quot;&quot; -->
<g id="node5" class="node">
<title>4</title>
<ellipse fill="none" stroke="black" cx="411.92" cy="-18" rx="30.59" ry="18"/>
<text text-anchor="middle" x="411.92" y="-14.3" font-family="Times New Roman,serif" font-size="14.00">string</text>
</g>
<!-- 3&#45;&gt;4 -->
<g id="edge4" class="edge">
<title>3&#45;&gt;4</title>
<path fill="none" stroke="black" d="M345.44,-18C354.14,-18 362.85,-18 370.94,-18"/>
<polygon fill="black" stroke="black" points="371.18,-21.5 381.18,-18 371.18,-14.5 371.18,-21.5"/>
</g>
</g>
</svg>
