<?xml version="1.0" encoding="UTF-8" standalone="no"?>
<!DOCTYPE svg PUBLIC "-//W3C//DTD SVG 1.1//EN"
 "http://www.w3.org/Graphics/SVG/1.1/DTD/svg11.dtd">
<!-- Generated by graphviz version 14.1.5 (20260411.2331)
 -->
<!-- Title: SerializedPersonaPieceHandle Pages: 1 -->
<svg width="857pt" height="314pt"
 viewBox="0.00 0.00 857.00 314.00" xmlns="http://www.w3.org/2000/svg" xmlns:xlink="http://www.w3.org/1999/xlink">
<g id="graph0" class="graph" transform="scale(1 1) rotate(0) translate(4 310)">
<title>SerializedPersonaPieceHandle</title>
<polygon fill="white" stroke="none" points="-4,4 -4,-310 853.44,-310 853.44,4 -4,4"/>
<!-- 0 -->
<!-- name: &quot;SerializedPersonaPieceHandle&quot;, typeName: &quot;&quot;, id: 0, branchId: 0, recurseId: &#45;1, attributes: 0, notes: &quot;&quot; -->
<g id="node1" class="node">
<title>0</title>
<ellipse fill="none" stroke="black" cx="123.52" cy="-153" rx="123.52" ry="18"/>
<text xml:space="preserve" text-anchor="middle" x="123.52" y="-147.95" font-family="Times New Roman,serif" font-size="14.00">SerializedPersonaPieceHandle</text>
</g>
<!-- 1 -->
<!-- name: &quot;PieceId&quot;, typeName: &quot;&quot;, id: 1, branchId: 0, recurseId: &#45;1, attributes: 0, notes: &quot;&quot; -->
<g id="node2" class="node">
<title>1</title>
<ellipse fill="none" stroke="black" cx="508.91" cy="-284" rx="38.56" ry="18"/>
<text xml:space="preserve" text-anchor="middle" x="508.91" y="-278.95" font-family="Times New Roman,serif" font-size="14.00">PieceId</text>
</g>
<!-- 0&#45;&gt;1 -->
<g id="edge1" class="edge">
<title>0&#45;&gt;1</title>
<path fill="none" stroke="black" d="M148.34,-171.02C178.17,-192.63 231.62,-228.28 283.03,-247 341.3,-268.21 412.5,-277.32 458.97,-281.19"/>
<polygon fill="black" stroke="black" points="458.48,-284.67 468.72,-281.95 459.02,-277.69 458.48,-284.67"/>
</g>
<!-- 3 -->
<!-- name: &quot;PieceType&quot;, typeName: &quot;&quot;, id: 3, branchId: 0, recurseId: &#45;1, attributes: 0, notes: &quot;&quot; -->
<g id="node4" class="node">
<title>3</title>
<ellipse fill="none" stroke="black" cx="332.34" cy="-220" rx="49.3" ry="18"/>
<text xml:space="preserve" text-anchor="middle" x="332.34" y="-214.95" font-family="Times New Roman,serif" font-size="14.00">PieceType</text>
</g>
<!-- 0&#45;&gt;3 -->
<g id="edge3" class="edge">
<title>0&#45;&gt;3</title>
<path fill="none" stroke="black" d="M176.17,-169.73C209.14,-180.41 251.55,-194.15 283.71,-204.57"/>
<polygon fill="black" stroke="black" points="282.59,-207.89 293.18,-207.64 284.74,-201.23 282.59,-207.89"/>
</g>
<!-- 5 -->
<!-- name: &quot;PackId&quot;, typeName: &quot;&quot;, id: 5, branchId: 0, recurseId: &#45;1, attributes: 0, notes: &quot;&quot; -->
<g id="node6" class="node">
<title>5</title>
<ellipse fill="none" stroke="black" cx="332.34" cy="-153" rx="36.51" ry="18"/>
<text xml:space="preserve" text-anchor="middle" x="332.34" y="-147.95" font-family="Times New Roman,serif" font-size="14.00">PackId</text>
</g>
<!-- 0&#45;&gt;5 -->
<g id="edge5" class="edge">
<title>0&#45;&gt;5</title>
<path fill="none" stroke="black" d="M247.51,-153C260.52,-153 273.09,-153 284.38,-153"/>
<polygon fill="black" stroke="black" points="284.12,-156.5 294.12,-153 284.12,-149.5 284.12,-156.5"/>
</g>
<!-- 10 -->
<!-- name: &quot;IsDefaultPiece&quot;, typeName: &quot;&quot;, id: 10, branchId: 0, recurseId: &#45;1, attributes: 0, notes: &quot;&quot; -->
<g id="node11" class="node">
<title>10</title>
<ellipse fill="none" stroke="black" cx="508.91" cy="-72" rx="65.17" ry="18"/>
<text xml:space="preserve" text-anchor="middle" x="508.91" y="-66.95" font-family="Times New Roman,serif" font-size="14.00">IsDefaultPiece</text>
</g>
<!-- 0&#45;&gt;10 -->
<g id="edge10" class="edge">
<title>0&#45;&gt;10</title>
<path fill="none" stroke="black" d="M195.28,-138.05C266.92,-122.92 376.63,-99.74 445.22,-85.25"/>
<polygon fill="black" stroke="black" points="445.74,-88.71 454.8,-83.22 444.29,-81.86 445.74,-88.71"/>
</g>
<!-- 12 -->
<!-- name: &quot;ProductId&quot;, typeName: &quot;&quot;, id: 12, branchId: 0, recurseId: &#45;1, attributes: 0, notes: &quot;&quot; -->
<g id="node13" class="node">
<title>12</title>
<ellipse fill="none" stroke="black" cx="332.34" cy="-49" rx="47.26" ry="18"/>
<text xml:space="preserve" text-anchor="middle" x="332.34" y="-43.95" font-family="Times New Roman,serif" font-size="14.00">ProductId</text>
</g>
<!-- 0&#45;&gt;12 -->
<g id="edge12" class="edge">
<title>0&#45;&gt;12</title>
<path fill="none" stroke="black" d="M159.6,-135.36C196.47,-116.82 254.32,-87.73 292.53,-68.51"/>
<polygon fill="black" stroke="black" points="294.04,-71.67 301.4,-64.05 290.89,-65.42 294.04,-71.67"/>
</g>
<!-- 2 -->
<!-- name: &quot;string&quot;, typeName: &quot;&quot;, id: 2, branchId: 0, recurseId: &#45;1, attributes: 512, notes: &quot;&quot; -->
<g id="node3" class="node">
<title>2</title>
<ellipse fill="none" stroke="black" cx="742.81" cy="-288" rx="31.9" ry="18"/>
<text xml:space="preserve" text-anchor="middle" x="742.81" y="-282.95" font-family="Times New Roman,serif" font-size="14.00">string</text>
</g>
<!-- 1&#45;&gt;2 -->
<g id="edge2" class="edge">
<title>1&#45;&gt;2</title>
<path fill="none" stroke="black" d="M547.69,-284.65C589.31,-285.37 656.07,-286.52 699.44,-287.27"/>
<polygon fill="black" stroke="black" points="699.17,-290.76 709.23,-287.44 699.29,-283.77 699.17,-290.76"/>
</g>
<!-- 4 -->
<!-- name: &quot;enum persona::PieceType&quot;, typeName: &quot;&quot;, id: 4, branchId: 0, recurseId: &#45;1, attributes: 512, notes: &quot;&quot; -->
<g id="node5" class="node">
<title>4</title>
<ellipse fill="none" stroke="black" cx="742.81" cy="-234" rx="106.63" ry="18"/>
<text xml:space="preserve" text-anchor="middle" x="742.81" y="-228.95" font-family="Times New Roman,serif" font-size="14.00">enum persona::PieceType</text>
</g>
<!-- 3&#45;&gt;4 -->
<g id="edge4" class="edge">
<title>3&#45;&gt;4</title>
<path fill="none" stroke="black" d="M381.8,-221.66C441.74,-223.72 545.77,-227.28 626.63,-230.05"/>
<polygon fill="black" stroke="black" points="626.26,-233.54 636.37,-230.39 626.5,-226.55 626.26,-233.54"/>
</g>
<!-- 6 -->
<!-- name: &quot;Most Significant Bits&quot;, typeName: &quot;&quot;, id: 6, branchId: 0, recurseId: &#45;1, attributes: 0, notes: &quot;&quot; -->
<g id="node7" class="node">
<title>6</title>
<ellipse fill="none" stroke="black" cx="508.91" cy="-180" rx="90.76" ry="18"/>
<text xml:space="preserve" text-anchor="middle" x="508.91" y="-174.95" font-family="Times New Roman,serif" font-size="14.00">Most Significant Bits</text>
</g>
<!-- 5&#45;&gt;6 -->
<g id="edge6" class="edge">
<title>5&#45;&gt;6</title>
<path fill="none" stroke="black" d="M367.41,-158.27C383.91,-160.82 404.5,-164.01 424.79,-167.14"/>
<polygon fill="black" stroke="black" points="424.09,-170.58 434.51,-168.65 425.16,-163.66 424.09,-170.58"/>
</g>
<!-- 8 -->
<!-- name: &quot;Least Significant Bits&quot;, typeName: &quot;&quot;, id: 8, branchId: 0, recurseId: &#45;1, attributes: 0, notes: &quot;&quot; -->
<g id="node9" class="node">
<title>8</title>
<ellipse fill="none" stroke="black" cx="508.91" cy="-126" rx="91.27" ry="18"/>
<text xml:space="preserve" text-anchor="middle" x="508.91" y="-120.95" font-family="Times New Roman,serif" font-size="14.00">Least Significant Bits</text>
</g>
<!-- 5&#45;&gt;8 -->
<g id="edge8" class="edge">
<title>5&#45;&gt;8</title>
<path fill="none" stroke="black" d="M367.41,-147.73C383.91,-145.18 404.5,-141.99 424.79,-138.86"/>
<polygon fill="black" stroke="black" points="425.16,-142.34 434.51,-137.35 424.09,-135.42 425.16,-142.34"/>
</g>
<!-- 7 -->
<!-- name: &quot;unsigned int64&quot;, typeName: &quot;&quot;, id: 7, branchId: 0, recurseId: &#45;1, attributes: 512, notes: &quot;&quot; -->
<g id="node8" class="node">
<title>7</title>
<ellipse fill="none" stroke="black" cx="742.81" cy="-180" rx="65.68" ry="18"/>
<text xml:space="preserve" text-anchor="middle" x="742.81" y="-174.95" font-family="Times New Roman,serif" font-size="14.00">unsigned int64</text>
</g>
<!-- 6&#45;&gt;7 -->
<g id="edge7" class="edge">
<title>6&#45;&gt;7</title>
<path fill="none" stroke="black" d="M599.9,-180C621.5,-180 644.35,-180 665.27,-180"/>
<polygon fill="black" stroke="black" points="665.16,-183.5 675.16,-180 665.16,-176.5 665.16,-183.5"/>
</g>
<!-- 9 -->
<!-- name: &quot;unsigned int64&quot;, typeName: &quot;&quot;, id: 9, branchId: 0, recurseId: &#45;1, attributes: 512, notes: &quot;&quot; -->
<g id="node10" class="node">
<title>9</title>
<ellipse fill="none" stroke="black" cx="742.81" cy="-126" rx="65.68" ry="18"/>
<text xml:space="preserve" text-anchor="middle" x="742.81" y="-120.95" font-family="Times New Roman,serif" font-size="14.00">unsigned int64</text>
</g>
<!-- 8&#45;&gt;9 -->
<g id="edge9" class="edge">
<title>8&#45;&gt;9</title>
<path fill="none" stroke="black" d="M600.57,-126C622,-126 644.65,-126 665.39,-126"/>
<polygon fill="black" stroke="black" points="665.18,-129.5 675.18,-126 665.18,-122.5 665.18,-129.5"/>
</g>
<!-- 11 -->
<!-- name: &quot;bool&quot;, typeName: &quot;&quot;, id: 11, branchId: 0, recurseId: &#45;1, attributes: 512, notes: &quot;&quot; -->
<g id="node12" class="node">
<title>11</title>
<ellipse fill="none" stroke="black" cx="742.81" cy="-72" rx="27.3" ry="18"/>
<text xml:space="preserve" text-anchor="middle" x="742.81" y="-66.95" font-family="Times New Roman,serif" font-size="14.00">bool</text>
</g>
<!-- 10&#45;&gt;11 -->
<g id="edge11" class="edge">
<title>10&#45;&gt;11</title>
<path fill="none" stroke="black" d="M574.51,-72C616.17,-72 668.92,-72 703.93,-72"/>
<polygon fill="black" stroke="black" points="703.57,-75.5 713.57,-72 703.57,-68.5 703.57,-75.5"/>
</g>
<!-- 13 -->
<!-- name: &quot;string&quot;, typeName: &quot;&quot;, id: 13, branchId: 0, recurseId: &#45;1, attributes: 512, notes: &quot;&quot; -->
<g id="node14" class="node">
<title>13</title>
<ellipse fill="none" stroke="black" cx="742.81" cy="-18" rx="31.9" ry="18"/>
<text xml:space="preserve" text-anchor="middle" x="742.81" y="-12.95" font-family="Times New Roman,serif" font-size="14.00">string</text>
</g>
<!-- 12&#45;&gt;13 -->
<g id="edge13" class="edge">
<title>12&#45;&gt;13</title>
<path fill="none" stroke="black" d="M379.01,-45.53C458.81,-39.48 622.48,-27.06 699.7,-21.2"/>
<polygon fill="black" stroke="black" points="699.68,-24.71 709.38,-20.46 699.15,-17.73 699.68,-24.71"/>
</g>
</g>
</svg>
