<?xml version="1.0" encoding="UTF-8" standalone="no"?>
<!DOCTYPE svg PUBLIC "-//W3C//DTD SVG 1.1//EN"
 "http://www.w3.org/Graphics/SVG/1.1/DTD/svg11.dtd">
<!-- Generated by graphviz version 14.1.5 (20260411.2331)
 -->
<!-- Title: SerializedNoiseBlockSpecifier Pages: 1 -->
<svg width="631pt" height="260pt"
 viewBox="0.00 0.00 631.00 260.00" xmlns="http://www.w3.org/2000/svg" xmlns:xlink="http://www.w3.org/1999/xlink">
<g id="graph0" class="graph" transform="scale(1 1) rotate(0) translate(4 256)">
<title>SerializedNoiseBlockSpecifier</title>
<polygon fill="white" stroke="none" points="-4,4 -4,-256 627.22,-256 627.22,4 -4,4"/>
<!-- 0 -->
<!-- name: &quot;SerializedNoiseBlockSpecifier&quot;, typeName: &quot;&quot;, id: 0, branchId: 0, recurseId: &#45;1, attributes: 0, notes: &quot;&quot; -->
<g id="node1" class="node">
<title>0</title>
<ellipse fill="none" stroke="black" cx="124.54" cy="-153" rx="124.54" ry="18"/>
<text xml:space="preserve" text-anchor="middle" x="124.54" y="-147.95" font-family="Times New Roman,serif" font-size="14.00">SerializedNoiseBlockSpecifier</text>
</g>
<!-- 1 -->
<!-- name: &quot;noise&quot;, typeName: &quot;&quot;, id: 1, branchId: 0, recurseId: &#45;1, attributes: 0, notes: &quot;&quot; -->
<g id="node2" class="node">
<title>1</title>
<ellipse fill="none" stroke="black" cx="330.29" cy="-234" rx="30.37" ry="18"/>
<text xml:space="preserve" text-anchor="middle" x="330.29" y="-228.95" font-family="Times New Roman,serif" font-size="14.00">noise</text>
</g>
<!-- 0&#45;&gt;1 -->
<g id="edge1" class="edge">
<title>0&#45;&gt;1</title>
<path fill="none" stroke="black" d="M169,-170.28C206.23,-185.08 259.17,-206.13 293.87,-219.92"/>
<polygon fill="black" stroke="black" points="292.46,-223.12 303.05,-223.57 295.05,-216.62 292.46,-223.12"/>
</g>
<!-- 3 -->
<!-- name: &quot;threshold&quot;, typeName: &quot;&quot;, id: 3, branchId: 0, recurseId: &#45;1, attributes: 0, notes: &quot;&quot; -->
<g id="node4" class="node">
<title>3</title>
<ellipse fill="none" stroke="black" cx="330.29" cy="-180" rx="45.21" ry="18"/>
<text xml:space="preserve" text-anchor="middle" x="330.29" y="-174.95" font-family="Times New Roman,serif" font-size="14.00">threshold</text>
</g>
<!-- 0&#45;&gt;3 -->
<g id="edge3" class="edge">
<title>0&#45;&gt;3</title>
<path fill="none" stroke="black" d="M217.88,-165.24C237.66,-167.86 257.92,-170.54 275.65,-172.89"/>
<polygon fill="black" stroke="black" points="275.03,-176.34 285.4,-174.18 275.95,-169.4 275.03,-176.34"/>
</g>
<!-- 5 -->
<!-- name: &quot;range&quot;, typeName: &quot;&quot;, id: 5, branchId: 0, recurseId: &#45;1, attributes: 0, notes: &quot;&quot; -->
<g id="node6" class="node">
<title>5</title>
<ellipse fill="none" stroke="black" cx="330.29" cy="-126" rx="31.39" ry="18"/>
<text xml:space="preserve" text-anchor="middle" x="330.29" y="-120.95" font-family="Times New Roman,serif" font-size="14.00">range</text>
</g>
<!-- 0&#45;&gt;5 -->
<g id="edge5" class="edge">
<title>0&#45;&gt;5</title>
<path fill="none" stroke="black" d="M217.88,-140.76C242.52,-137.5 267.92,-134.13 288.23,-131.44"/>
<polygon fill="black" stroke="black" points="288.6,-134.92 298.05,-130.14 287.68,-127.98 288.6,-134.92"/>
</g>
<!-- 10 -->
<!-- name: &quot;block&quot;, typeName: &quot;&quot;, id: 10, branchId: 0, recurseId: &#45;1, attributes: 0, notes: &quot;&quot; -->
<g id="node11" class="node">
<title>10</title>
<ellipse fill="none" stroke="black" cx="442.89" cy="-18" rx="31.39" ry="18"/>
<text xml:space="preserve" text-anchor="middle" x="442.89" y="-12.95" font-family="Times New Roman,serif" font-size="14.00">block</text>
</g>
<!-- 0&#45;&gt;10 -->
<g id="edge10" class="edge">
<title>0&#45;&gt;10</title>
<path fill="none" stroke="black" d="M166.25,-135.63C228.78,-108.95 347.4,-58.32 406.54,-33.09"/>
<polygon fill="black" stroke="black" points="407.64,-36.42 415.47,-29.28 404.89,-29.98 407.64,-36.42"/>
</g>
<!-- 2 -->
<!-- name: &quot;string&quot;, typeName: &quot;&quot;, id: 2, branchId: 0, recurseId: &#45;1, attributes: 512, notes: &quot;&quot; -->
<g id="node3" class="node">
<title>2</title>
<ellipse fill="none" stroke="black" cx="566.75" cy="-234" rx="31.9" ry="18"/>
<text xml:space="preserve" text-anchor="middle" x="566.75" y="-228.95" font-family="Times New Roman,serif" font-size="14.00">string</text>
</g>
<!-- 1&#45;&gt;2 -->
<g id="edge2" class="edge">
<title>1&#45;&gt;2</title>
<path fill="none" stroke="black" d="M360.98,-234C401.99,-234 476.2,-234 523.13,-234"/>
<polygon fill="black" stroke="black" points="522.92,-237.5 532.92,-234 522.92,-230.5 522.92,-237.5"/>
</g>
<!-- 4 -->
<!-- name: &quot;float&quot;, typeName: &quot;&quot;, id: 4, branchId: 0, recurseId: &#45;1, attributes: 512, notes: &quot;&quot; -->
<g id="node5" class="node">
<title>4</title>
<ellipse fill="none" stroke="black" cx="566.75" cy="-180" rx="27.81" ry="18"/>
<text xml:space="preserve" text-anchor="middle" x="566.75" y="-174.95" font-family="Times New Roman,serif" font-size="14.00">float</text>
</g>
<!-- 3&#45;&gt;4 -->
<g id="edge4" class="edge">
<title>3&#45;&gt;4</title>
<path fill="none" stroke="black" d="M375.94,-180C419.69,-180 485.67,-180 527.2,-180"/>
<polygon fill="black" stroke="black" points="526.96,-183.5 536.96,-180 526.96,-176.5 526.96,-183.5"/>
</g>
<!-- 6 -->
<!-- name: &quot;min&quot;, typeName: &quot;&quot;, id: 6, branchId: 0, recurseId: &#45;1, attributes: 0, notes: &quot;&quot; -->
<g id="node7" class="node">
<title>6</title>
<ellipse fill="none" stroke="black" cx="442.89" cy="-126" rx="27" ry="18"/>
<text xml:space="preserve" text-anchor="middle" x="442.89" y="-120.95" font-family="Times New Roman,serif" font-size="14.00">min</text>
</g>
<!-- 5&#45;&gt;6 -->
<g id="edge6" class="edge">
<title>5&#45;&gt;6</title>
<path fill="none" stroke="black" d="M362.1,-126C375.28,-126 390.79,-126 404.61,-126"/>
<polygon fill="black" stroke="black" points="404.23,-129.5 414.23,-126 404.23,-122.5 404.23,-129.5"/>
</g>
<!-- 8 -->
<!-- name: &quot;max&quot;, typeName: &quot;&quot;, id: 8, branchId: 0, recurseId: &#45;1, attributes: 0, notes: &quot;&quot; -->
<g id="node9" class="node">
<title>8</title>
<ellipse fill="none" stroke="black" cx="442.89" cy="-72" rx="27.3" ry="18"/>
<text xml:space="preserve" text-anchor="middle" x="442.89" y="-66.95" font-family="Times New Roman,serif" font-size="14.00">max</text>
</g>
<!-- 5&#45;&gt;8 -->
<g id="edge8" class="edge">
<title>5&#45;&gt;8</title>
<path fill="none" stroke="black" d="M355.02,-114.42C371.25,-106.49 392.95,-95.9 410.6,-87.28"/>
<polygon fill="black" stroke="black" points="411.64,-90.66 419.09,-83.13 408.57,-84.37 411.64,-90.66"/>
</g>
<!-- 7 -->
<!-- name: &quot;float&quot;, typeName: &quot;&quot;, id: 7, branchId: 0, recurseId: &#45;1, attributes: 512, notes: &quot;&quot; -->
<g id="node8" class="node">
<title>7</title>
<ellipse fill="none" stroke="black" cx="566.75" cy="-126" rx="27.81" ry="18"/>
<text xml:space="preserve" text-anchor="middle" x="566.75" y="-120.95" font-family="Times New Roman,serif" font-size="14.00">float</text>
</g>
<!-- 6&#45;&gt;7 -->
<g id="edge7" class="edge">
<title>6&#45;&gt;7</title>
<path fill="none" stroke="black" d="M470.33,-126C486.95,-126 508.67,-126 527.19,-126"/>
<polygon fill="black" stroke="black" points="527,-129.5 537,-126 527,-122.5 527,-129.5"/>
</g>
<!-- 9 -->
<!-- name: &quot;float&quot;, typeName: &quot;&quot;, id: 9, branchId: 0, recurseId: &#45;1, attributes: 512, notes: &quot;&quot; -->
<g id="node10" class="node">
<title>9</title>
<ellipse fill="none" stroke="black" cx="566.75" cy="-72" rx="27.81" ry="18"/>
<text xml:space="preserve" text-anchor="middle" x="566.75" y="-66.95" font-family="Times New Roman,serif" font-size="14.00">float</text>
</g>
<!-- 8&#45;&gt;9 -->
<g id="edge9" class="edge">
<title>8&#45;&gt;9</title>
<path fill="none" stroke="black" d="M470.63,-72C487.26,-72 508.92,-72 527.37,-72"/>
<polygon fill="black" stroke="black" points="527.14,-75.5 537.14,-72 527.14,-68.5 527.14,-75.5"/>
</g>
<!-- 11 -->
<!-- name: &quot;unsigned int&quot;, typeName: &quot;&quot;, id: 11, branchId: 0, recurseId: &#45;1, attributes: 512, notes: &quot;&quot; -->
<g id="node12" class="node">
<title>11</title>
<ellipse fill="none" stroke="black" cx="566.75" cy="-18" rx="56.47" ry="18"/>
<text xml:space="preserve" text-anchor="middle" x="566.75" y="-12.95" font-family="Times New Roman,serif" font-size="14.00">unsigned int</text>
</g>
<!-- 10&#45;&gt;11 -->
<g id="edge11" class="edge">
<title>10&#45;&gt;11</title>
<path fill="none" stroke="black" d="M474.64,-18C482.01,-18 490.16,-18 498.48,-18"/>
<polygon fill="black" stroke="black" points="498.34,-21.5 508.34,-18 498.34,-14.5 498.34,-21.5"/>
</g>
</g>
</svg>
