<?xml version="1.0" encoding="UTF-8" standalone="no"?>
<!DOCTYPE svg PUBLIC "-//W3C//DTD SVG 1.1//EN"
 "http://www.w3.org/Graphics/SVG/1.1/DTD/svg11.dtd">
<!-- Generated by graphviz version 11.0.0 (20240428.1522)
 -->
<!-- Title: SerializedAbilitiesData::SerializedLayer Pages: 1 -->
<svg width="666pt" height="314pt"
 viewBox="0.00 0.00 665.82 314.00" xmlns="http://www.w3.org/2000/svg" xmlns:xlink="http://www.w3.org/1999/xlink">
<g id="graph0" class="graph" transform="scale(1 1) rotate(0) translate(4 310)">
<title>SerializedAbilitiesData::SerializedLayer</title>
<polygon fill="white" stroke="none" points="-4,4 -4,-310 661.82,-310 661.82,4 -4,4"/>
<!-- 92 -->
<!-- name: &quot;SerializedAbilitiesData::SerializedLayer&quot;, typeName: &quot;&quot;, id: 92, branchId: 0, recurseId: &#45;1, attributes: 0, notes: &quot;&quot; -->
<g id="node1" class="node">
<title>92</title>
<ellipse fill="none" stroke="black" cx="153.36" cy="-153" rx="153.36" ry="18"/>
<text text-anchor="middle" x="153.36" y="-147.57" font-family="Times New Roman,serif" font-size="14.00">SerializedAbilitiesData::SerializedLayer</text>
</g>
<!-- 93 -->
<!-- name: &quot;SerializedLayer&quot;, typeName: &quot;&quot;, id: 93, branchId: 0, recurseId: &#45;1, attributes: 0, notes: &quot;&quot; -->
<g id="node2" class="node">
<title>93</title>
<ellipse fill="none" stroke="black" cx="417.23" cy="-288" rx="67.03" ry="18"/>
<text text-anchor="middle" x="417.23" y="-282.57" font-family="Times New Roman,serif" font-size="14.00">SerializedLayer</text>
</g>
<!-- 92&#45;&gt;93 -->
<g id="edge1" class="edge">
<title>92&#45;&gt;93</title>
<path fill="none" stroke="black" d="M182.28,-171.01C218.37,-193.81 283.61,-233.44 342.72,-261 349.42,-264.13 356.6,-267.14 363.75,-269.96"/>
<polygon fill="black" stroke="black" points="362.13,-273.09 372.72,-273.38 364.62,-266.55 362.13,-273.09"/>
</g>
<!-- 95 -->
<!-- name: &quot;AbilitiesSet&quot;, typeName: &quot;&quot;, id: 95, branchId: 0, recurseId: &#45;1, attributes: 0, notes: &quot;&quot; -->
<g id="node4" class="node">
<title>95</title>
<ellipse fill="none" stroke="black" cx="417.23" cy="-234" rx="52.56" ry="18"/>
<text text-anchor="middle" x="417.23" y="-228.57" font-family="Times New Roman,serif" font-size="14.00">AbilitiesSet</text>
</g>
<!-- 92&#45;&gt;95 -->
<g id="edge3" class="edge">
<title>92&#45;&gt;95</title>
<path fill="none" stroke="black" d="M209.89,-170.18C256.26,-184.52 321.76,-204.78 366.45,-218.6"/>
<polygon fill="black" stroke="black" points="365.3,-221.91 375.89,-221.52 367.37,-215.22 365.3,-221.91"/>
</g>
<!-- 97 -->
<!-- name: &quot;AbilityValues&quot;, typeName: &quot;&quot;, id: 97, branchId: 0, recurseId: &#45;1, attributes: 0, notes: &quot;&quot; -->
<g id="node6" class="node">
<title>97</title>
<ellipse fill="none" stroke="black" cx="417.23" cy="-180" rx="60.05" ry="18"/>
<text text-anchor="middle" x="417.23" y="-174.57" font-family="Times New Roman,serif" font-size="14.00">AbilityValues</text>
</g>
<!-- 92&#45;&gt;97 -->
<g id="edge5" class="edge">
<title>92&#45;&gt;97</title>
<path fill="none" stroke="black" d="M270.36,-164.96C297.05,-167.71 324.58,-170.55 348.43,-173.01"/>
<polygon fill="black" stroke="black" points="348.01,-176.48 358.32,-174.03 348.73,-169.52 348.01,-176.48"/>
</g>
<!-- 99 -->
<!-- name: &quot;FlySpeed&quot;, typeName: &quot;&quot;, id: 99, branchId: 0, recurseId: &#45;1, attributes: 0, notes: &quot;&quot; -->
<g id="node8" class="node">
<title>99</title>
<ellipse fill="none" stroke="black" cx="417.23" cy="-126" rx="46.07" ry="18"/>
<text text-anchor="middle" x="417.23" y="-120.58" font-family="Times New Roman,serif" font-size="14.00">FlySpeed</text>
</g>
<!-- 92&#45;&gt;99 -->
<g id="edge7" class="edge">
<title>92&#45;&gt;99</title>
<path fill="none" stroke="black" d="M270.36,-141.04C301.83,-137.8 334.45,-134.43 360.85,-131.71"/>
<polygon fill="black" stroke="black" points="361.04,-135.21 370.63,-130.7 360.33,-128.25 361.04,-135.21"/>
</g>
<!-- 101 -->
<!-- name: &quot;VerticalFlySpeed&quot;, typeName: &quot;&quot;, id: 101, branchId: 0, recurseId: &#45;1, attributes: 0, notes: &quot;&quot; -->
<g id="node10" class="node">
<title>101</title>
<ellipse fill="none" stroke="black" cx="417.23" cy="-72" rx="74.52" ry="18"/>
<text text-anchor="middle" x="417.23" y="-66.58" font-family="Times New Roman,serif" font-size="14.00">VerticalFlySpeed</text>
</g>
<!-- 92&#45;&gt;101 -->
<g id="edge9" class="edge">
<title>92&#45;&gt;101</title>
<path fill="none" stroke="black" d="M209.89,-135.82C253.77,-122.25 314.78,-103.38 359.07,-89.68"/>
<polygon fill="black" stroke="black" points="359.99,-93.06 368.51,-86.76 357.92,-86.37 359.99,-93.06"/>
</g>
<!-- 103 -->
<!-- name: &quot;WalkSpeed&quot;, typeName: &quot;&quot;, id: 103, branchId: 0, recurseId: &#45;1, attributes: 0, notes: &quot;&quot; -->
<g id="node12" class="node">
<title>103</title>
<ellipse fill="none" stroke="black" cx="417.23" cy="-18" rx="53.56" ry="18"/>
<text text-anchor="middle" x="417.23" y="-12.57" font-family="Times New Roman,serif" font-size="14.00">WalkSpeed</text>
</g>
<!-- 92&#45;&gt;103 -->
<g id="edge11" class="edge">
<title>92&#45;&gt;103</title>
<path fill="none" stroke="black" d="M182.28,-134.99C218.37,-112.19 283.61,-72.56 342.72,-45 350.51,-41.36 358.95,-37.88 367.23,-34.69"/>
<polygon fill="black" stroke="black" points="368.4,-37.98 376.54,-31.2 365.95,-31.43 368.4,-37.98"/>
</g>
<!-- 94 -->
<!-- name: &quot;unsigned short&quot;, typeName: &quot;&quot;, id: 94, branchId: 0, recurseId: &#45;1, attributes: 512, notes: &quot;&quot; -->
<g id="node3" class="node">
<title>94</title>
<ellipse fill="none" stroke="black" cx="592.79" cy="-288" rx="65.04" ry="18"/>
<text text-anchor="middle" x="592.79" y="-282.57" font-family="Times New Roman,serif" font-size="14.00">unsigned short</text>
</g>
<!-- 93&#45;&gt;94 -->
<g id="edge2" class="edge">
<title>93&#45;&gt;94</title>
<path fill="none" stroke="black" d="M484.34,-288C494.68,-288 505.44,-288 515.98,-288"/>
<polygon fill="black" stroke="black" points="515.78,-291.5 525.78,-288 515.78,-284.5 515.78,-291.5"/>
</g>
<!-- 96 -->
<!-- name: &quot;unsigned int&quot;, typeName: &quot;&quot;, id: 96, branchId: 0, recurseId: &#45;1, attributes: 512, notes: &quot;&quot; -->
<g id="node5" class="node">
<title>96</title>
<ellipse fill="none" stroke="black" cx="592.79" cy="-234" rx="55.06" ry="18"/>
<text text-anchor="middle" x="592.79" y="-228.57" font-family="Times New Roman,serif" font-size="14.00">unsigned int</text>
</g>
<!-- 95&#45;&gt;96 -->
<g id="edge4" class="edge">
<title>95&#45;&gt;96</title>
<path fill="none" stroke="black" d="M469.83,-234C487.46,-234 507.41,-234 526,-234"/>
<polygon fill="black" stroke="black" points="525.85,-237.5 535.85,-234 525.85,-230.5 525.85,-237.5"/>
</g>
<!-- 98 -->
<!-- name: &quot;unsigned int&quot;, typeName: &quot;&quot;, id: 98, branchId: 0, recurseId: &#45;1, attributes: 512, notes: &quot;&quot; -->
<g id="node7" class="node">
<title>98</title>
<ellipse fill="none" stroke="black" cx="592.79" cy="-180" rx="55.06" ry="18"/>
<text text-anchor="middle" x="592.79" y="-174.57" font-family="Times New Roman,serif" font-size="14.00">unsigned int</text>
</g>
<!-- 97&#45;&gt;98 -->
<g id="edge6" class="edge">
<title>97&#45;&gt;98</title>
<path fill="none" stroke="black" d="M477.47,-180C493.12,-180 510.1,-180 526.06,-180"/>
<polygon fill="black" stroke="black" points="525.96,-183.5 535.96,-180 525.96,-176.5 525.96,-183.5"/>
</g>
<!-- 100 -->
<!-- name: &quot;float&quot;, typeName: &quot;&quot;, id: 100, branchId: 0, recurseId: &#45;1, attributes: 512, notes: &quot;&quot; -->
<g id="node9" class="node">
<title>100</title>
<ellipse fill="none" stroke="black" cx="592.79" cy="-126" rx="27.11" ry="18"/>
<text text-anchor="middle" x="592.79" y="-120.58" font-family="Times New Roman,serif" font-size="14.00">float</text>
</g>
<!-- 99&#45;&gt;100 -->
<g id="edge8" class="edge">
<title>99&#45;&gt;100</title>
<path fill="none" stroke="black" d="M463.38,-126C491.55,-126 527.39,-126 554.05,-126"/>
<polygon fill="black" stroke="black" points="553.71,-129.5 563.71,-126 553.71,-122.5 553.71,-129.5"/>
</g>
<!-- 102 -->
<!-- name: &quot;float&quot;, typeName: &quot;&quot;, id: 102, branchId: 0, recurseId: &#45;1, attributes: 512, notes: &quot;&quot; -->
<g id="node11" class="node">
<title>102</title>
<ellipse fill="none" stroke="black" cx="592.79" cy="-72" rx="27.11" ry="18"/>
<text text-anchor="middle" x="592.79" y="-66.58" font-family="Times New Roman,serif" font-size="14.00">float</text>
</g>
<!-- 101&#45;&gt;102 -->
<g id="edge10" class="edge">
<title>101&#45;&gt;102</title>
<path fill="none" stroke="black" d="M492.09,-72C513.43,-72 535.84,-72 553.99,-72"/>
<polygon fill="black" stroke="black" points="553.74,-75.5 563.74,-72 553.74,-68.5 553.74,-75.5"/>
</g>
<!-- 104 -->
<!-- name: &quot;float&quot;, typeName: &quot;&quot;, id: 104, branchId: 0, recurseId: &#45;1, attributes: 512, notes: &quot;&quot; -->
<g id="node13" class="node">
<title>104</title>
<ellipse fill="none" stroke="black" cx="592.79" cy="-18" rx="27.11" ry="18"/>
<text text-anchor="middle" x="592.79" y="-12.57" font-family="Times New Roman,serif" font-size="14.00">float</text>
</g>
<!-- 103&#45;&gt;104 -->
<g id="edge12" class="edge">
<title>103&#45;&gt;104</title>
<path fill="none" stroke="black" d="M471.25,-18C497.98,-18 529.77,-18 553.99,-18"/>
<polygon fill="black" stroke="black" points="553.7,-21.5 563.7,-18 553.7,-14.5 553.7,-21.5"/>
</g>
</g>
</svg>
