<?xml version="1.0" encoding="UTF-8" standalone="no"?>
<!DOCTYPE svg PUBLIC "-//W3C//DTD SVG 1.1//EN"
 "http://www.w3.org/Graphics/SVG/1.1/DTD/svg11.dtd">
<!-- Generated by graphviz version 12.2.0 (20241103.1931)
 -->
<!-- Title: SerializedAbilitiesData::SerializedLayer Pages: 1 -->
<svg width="670pt" height="260pt"
 viewBox="0.00 0.00 669.60 260.00" xmlns="http://www.w3.org/2000/svg" xmlns:xlink="http://www.w3.org/1999/xlink">
<g id="graph0" class="graph" transform="scale(1 1) rotate(0) translate(4 256)">
<title>SerializedAbilitiesData::SerializedLayer</title>
<polygon fill="white" stroke="none" points="-4,4 -4,-256 665.6,-256 665.6,4 -4,4"/>
<!-- 89 -->
<!-- name: &quot;SerializedAbilitiesData::SerializedLayer&quot;, typeName: &quot;&quot;, id: 89, branchId: 0, recurseId: &#45;1, attributes: 0, notes: &quot;&quot; -->
<g id="node1" class="node">
<title>89</title>
<ellipse fill="none" stroke="black" cx="160.37" cy="-126" rx="160.37" ry="18"/>
<text text-anchor="middle" x="160.37" y="-120.95" font-family="Times New Roman,serif" font-size="14.00">SerializedAbilitiesData::SerializedLayer</text>
</g>
<!-- 90 -->
<!-- name: &quot;SerializedLayer&quot;, typeName: &quot;&quot;, id: 90, branchId: 0, recurseId: &#45;1, attributes: 0, notes: &quot;&quot; -->
<g id="node2" class="node">
<title>90</title>
<ellipse fill="none" stroke="black" cx="426" cy="-234" rx="69.26" ry="18"/>
<text text-anchor="middle" x="426" y="-228.95" font-family="Times New Roman,serif" font-size="14.00">SerializedLayer</text>
</g>
<!-- 89&#45;&gt;90 -->
<g id="edge1" class="edge">
<title>89&#45;&gt;90</title>
<path fill="none" stroke="black" d="M203.59,-143.74C243.1,-160.29 303.81,-185.57 356.73,-207 362.86,-209.48 369.31,-212.07 375.7,-214.61"/>
<polygon fill="black" stroke="black" points="374.33,-217.84 384.92,-218.27 376.92,-211.33 374.33,-217.84"/>
</g>
<!-- 92 -->
<!-- name: &quot;AbilitiesSet&quot;, typeName: &quot;&quot;, id: 92, branchId: 0, recurseId: &#45;1, attributes: 0, notes: &quot;&quot; -->
<g id="node4" class="node">
<title>92</title>
<ellipse fill="none" stroke="black" cx="426" cy="-180" rx="54.42" ry="18"/>
<text text-anchor="middle" x="426" y="-174.95" font-family="Times New Roman,serif" font-size="14.00">AbilitiesSet</text>
</g>
<!-- 89&#45;&gt;92 -->
<g id="edge3" class="edge">
<title>89&#45;&gt;92</title>
<path fill="none" stroke="black" d="M239.75,-142.06C280.88,-150.48 330.36,-160.62 367.83,-168.29"/>
<polygon fill="black" stroke="black" points="367.07,-171.71 377.57,-170.29 368.48,-164.85 367.07,-171.71"/>
</g>
<!-- 94 -->
<!-- name: &quot;AbilityValues&quot;, typeName: &quot;&quot;, id: 94, branchId: 0, recurseId: &#45;1, attributes: 0, notes: &quot;&quot; -->
<g id="node6" class="node">
<title>94</title>
<ellipse fill="none" stroke="black" cx="426" cy="-126" rx="61.59" ry="18"/>
<text text-anchor="middle" x="426" y="-120.95" font-family="Times New Roman,serif" font-size="14.00">AbilityValues</text>
</g>
<!-- 89&#45;&gt;94 -->
<g id="edge5" class="edge">
<title>89&#45;&gt;94</title>
<path fill="none" stroke="black" d="M321.18,-126C331.98,-126 342.52,-126 352.49,-126"/>
<polygon fill="black" stroke="black" points="352.4,-129.5 362.4,-126 352.4,-122.5 352.4,-129.5"/>
</g>
<!-- 96 -->
<!-- name: &quot;FlySpeed&quot;, typeName: &quot;&quot;, id: 96, branchId: 0, recurseId: &#45;1, attributes: 0, notes: &quot;&quot; -->
<g id="node8" class="node">
<title>96</title>
<ellipse fill="none" stroke="black" cx="426" cy="-72" rx="45.72" ry="18"/>
<text text-anchor="middle" x="426" y="-66.95" font-family="Times New Roman,serif" font-size="14.00">FlySpeed</text>
</g>
<!-- 89&#45;&gt;96 -->
<g id="edge7" class="edge">
<title>89&#45;&gt;96</title>
<path fill="none" stroke="black" d="M239.75,-109.94C283.13,-101.06 335.8,-90.27 373.87,-82.47"/>
<polygon fill="black" stroke="black" points="374.12,-85.99 383.21,-80.56 372.71,-79.14 374.12,-85.99"/>
</g>
<!-- 98 -->
<!-- name: &quot;WalkSpeed&quot;, typeName: &quot;&quot;, id: 98, branchId: 0, recurseId: &#45;1, attributes: 0, notes: &quot;&quot; -->
<g id="node10" class="node">
<title>98</title>
<ellipse fill="none" stroke="black" cx="426" cy="-18" rx="52.89" ry="18"/>
<text text-anchor="middle" x="426" y="-12.95" font-family="Times New Roman,serif" font-size="14.00">WalkSpeed</text>
</g>
<!-- 89&#45;&gt;98 -->
<g id="edge9" class="edge">
<title>89&#45;&gt;98</title>
<path fill="none" stroke="black" d="M203.59,-108.26C243.1,-91.71 303.81,-66.43 356.73,-45 364.12,-42.01 371.97,-38.87 379.62,-35.83"/>
<polygon fill="black" stroke="black" points="380.81,-39.12 388.82,-32.18 378.23,-32.61 380.81,-39.12"/>
</g>
<!-- 91 -->
<!-- name: &quot;unsigned short&quot;, typeName: &quot;&quot;, id: 91, branchId: 0, recurseId: &#45;1, attributes: 512, notes: &quot;&quot; -->
<g id="node3" class="node">
<title>91</title>
<ellipse fill="none" stroke="black" cx="596.43" cy="-234" rx="65.17" ry="18"/>
<text text-anchor="middle" x="596.43" y="-228.95" font-family="Times New Roman,serif" font-size="14.00">unsigned short</text>
</g>
<!-- 90&#45;&gt;91 -->
<g id="edge2" class="edge">
<title>90&#45;&gt;91</title>
<path fill="none" stroke="black" d="M495.51,-234C503.34,-234 511.36,-234 519.28,-234"/>
<polygon fill="black" stroke="black" points="519.28,-237.5 529.28,-234 519.28,-230.5 519.28,-237.5"/>
</g>
<!-- 93 -->
<!-- name: &quot;unsigned int&quot;, typeName: &quot;&quot;, id: 93, branchId: 0, recurseId: &#45;1, attributes: 512, notes: &quot;&quot; -->
<g id="node5" class="node">
<title>93</title>
<ellipse fill="none" stroke="black" cx="596.43" cy="-180" rx="56.47" ry="18"/>
<text text-anchor="middle" x="596.43" y="-174.95" font-family="Times New Roman,serif" font-size="14.00">unsigned int</text>
</g>
<!-- 92&#45;&gt;93 -->
<g id="edge4" class="edge">
<title>92&#45;&gt;93</title>
<path fill="none" stroke="black" d="M480.75,-180C495.86,-180 512.48,-180 528.26,-180"/>
<polygon fill="black" stroke="black" points="528.06,-183.5 538.06,-180 528.06,-176.5 528.06,-183.5"/>
</g>
<!-- 95 -->
<!-- name: &quot;unsigned int&quot;, typeName: &quot;&quot;, id: 95, branchId: 0, recurseId: &#45;1, attributes: 512, notes: &quot;&quot; -->
<g id="node7" class="node">
<title>95</title>
<ellipse fill="none" stroke="black" cx="596.43" cy="-126" rx="56.47" ry="18"/>
<text text-anchor="middle" x="596.43" y="-120.95" font-family="Times New Roman,serif" font-size="14.00">unsigned int</text>
</g>
<!-- 94&#45;&gt;95 -->
<g id="edge6" class="edge">
<title>94&#45;&gt;95</title>
<path fill="none" stroke="black" d="M487.81,-126C500.85,-126 514.71,-126 527.99,-126"/>
<polygon fill="black" stroke="black" points="527.96,-129.5 537.96,-126 527.96,-122.5 527.96,-129.5"/>
</g>
<!-- 97 -->
<!-- name: &quot;float&quot;, typeName: &quot;&quot;, id: 97, branchId: 0, recurseId: &#45;1, attributes: 512, notes: &quot;&quot; -->
<g id="node9" class="node">
<title>97</title>
<ellipse fill="none" stroke="black" cx="596.43" cy="-72" rx="27.81" ry="18"/>
<text text-anchor="middle" x="596.43" y="-66.95" font-family="Times New Roman,serif" font-size="14.00">float</text>
</g>
<!-- 96&#45;&gt;97 -->
<g id="edge8" class="edge">
<title>96&#45;&gt;97</title>
<path fill="none" stroke="black" d="M472.14,-72C498.72,-72 531.98,-72 557.25,-72"/>
<polygon fill="black" stroke="black" points="557.08,-75.5 567.08,-72 557.08,-68.5 557.08,-75.5"/>
</g>
<!-- 99 -->
<!-- name: &quot;float&quot;, typeName: &quot;&quot;, id: 99, branchId: 0, recurseId: &#45;1, attributes: 512, notes: &quot;&quot; -->
<g id="node11" class="node">
<title>99</title>
<ellipse fill="none" stroke="black" cx="596.43" cy="-18" rx="27.81" ry="18"/>
<text text-anchor="middle" x="596.43" y="-12.95" font-family="Times New Roman,serif" font-size="14.00">float</text>
</g>
<!-- 98&#45;&gt;99 -->
<g id="edge10" class="edge">
<title>98&#45;&gt;99</title>
<path fill="none" stroke="black" d="M479.37,-18C504.53,-18 534.15,-18 557.16,-18"/>
<polygon fill="black" stroke="black" points="557.02,-21.5 567.02,-18 557.02,-14.5 557.02,-21.5"/>
</g>
</g>
</svg>
