<?xml version="1.0" encoding="UTF-8" standalone="no"?>
<!DOCTYPE svg PUBLIC "-//W3C//DTD SVG 1.1//EN"
 "http://www.w3.org/Graphics/SVG/1.1/DTD/svg11.dtd">
<!-- Generated by graphviz version 14.1.5 (20260411.2331)
 -->
<!-- Title: SerializedAbilitiesDataSerializedLayer Pages: 1 -->
<svg width="670pt" height="314pt"
 viewBox="0.00 0.00 670.00 314.00" xmlns="http://www.w3.org/2000/svg" xmlns:xlink="http://www.w3.org/1999/xlink">
<g id="graph0" class="graph" transform="scale(1 1) rotate(0) translate(4 310)">
<title>SerializedAbilitiesDataSerializedLayer</title>
<polygon fill="white" stroke="none" points="-4,4 -4,-310 665.6,-310 665.6,4 -4,4"/>
<!-- 0 -->
<!-- name: &quot;SerializedAbilitiesDataSerializedLayer&quot;, typeName: &quot;&quot;, id: 0, branchId: 0, recurseId: &#45;1, attributes: 0, notes: &quot;&quot; -->
<g id="node1" class="node">
<title>0</title>
<ellipse fill="none" stroke="black" cx="155.25" cy="-153" rx="155.25" ry="18"/>
<text xml:space="preserve" text-anchor="middle" x="155.25" y="-147.95" font-family="Times New Roman,serif" font-size="14.00">SerializedAbilitiesDataSerializedLayer</text>
</g>
<!-- 1 -->
<!-- name: &quot;SerializedLayer&quot;, typeName: &quot;&quot;, id: 1, branchId: 0, recurseId: &#45;1, attributes: 0, notes: &quot;&quot; -->
<g id="node2" class="node">
<title>1</title>
<ellipse fill="none" stroke="black" cx="420.88" cy="-288" rx="69.26" ry="18"/>
<text xml:space="preserve" text-anchor="middle" x="420.88" y="-282.95" font-family="Times New Roman,serif" font-size="14.00">SerializedLayer</text>
</g>
<!-- 0&#45;&gt;1 -->
<g id="edge1" class="edge">
<title>0&#45;&gt;1</title>
<path fill="none" stroke="black" d="M184.48,-170.98C220.97,-193.75 286.89,-233.34 346.5,-261 352.88,-263.96 359.69,-266.83 366.49,-269.53"/>
<polygon fill="black" stroke="black" points="365.1,-272.74 375.69,-273.06 367.61,-266.21 365.1,-272.74"/>
</g>
<!-- 3 -->
<!-- name: &quot;AbilitiesSet&quot;, typeName: &quot;&quot;, id: 3, branchId: 0, recurseId: &#45;1, attributes: 0, notes: &quot;&quot; -->
<g id="node4" class="node">
<title>3</title>
<ellipse fill="none" stroke="black" cx="420.88" cy="-234" rx="54.42" ry="18"/>
<text xml:space="preserve" text-anchor="middle" x="420.88" y="-228.95" font-family="Times New Roman,serif" font-size="14.00">AbilitiesSet</text>
</g>
<!-- 0&#45;&gt;3 -->
<g id="edge3" class="edge">
<title>0&#45;&gt;3</title>
<path fill="none" stroke="black" d="M212.16,-170.18C258.56,-184.43 323.99,-204.54 368.95,-218.35"/>
<polygon fill="black" stroke="black" points="367.89,-221.69 378.47,-221.28 369.94,-215 367.89,-221.69"/>
</g>
<!-- 5 -->
<!-- name: &quot;AbilityValues&quot;, typeName: &quot;&quot;, id: 5, branchId: 0, recurseId: &#45;1, attributes: 0, notes: &quot;&quot; -->
<g id="node6" class="node">
<title>5</title>
<ellipse fill="none" stroke="black" cx="420.88" cy="-180" rx="61.59" ry="18"/>
<text xml:space="preserve" text-anchor="middle" x="420.88" y="-174.95" font-family="Times New Roman,serif" font-size="14.00">AbilityValues</text>
</g>
<!-- 0&#45;&gt;5 -->
<g id="edge5" class="edge">
<title>0&#45;&gt;5</title>
<path fill="none" stroke="black" d="M273.42,-165C299.89,-167.71 327.16,-170.5 350.88,-172.93"/>
<polygon fill="black" stroke="black" points="350.42,-176.4 360.72,-173.94 351.13,-169.44 350.42,-176.4"/>
</g>
<!-- 7 -->
<!-- name: &quot;FlySpeed&quot;, typeName: &quot;&quot;, id: 7, branchId: 0, recurseId: &#45;1, attributes: 0, notes: &quot;&quot; -->
<g id="node8" class="node">
<title>7</title>
<ellipse fill="none" stroke="black" cx="420.88" cy="-126" rx="45.72" ry="18"/>
<text xml:space="preserve" text-anchor="middle" x="420.88" y="-120.95" font-family="Times New Roman,serif" font-size="14.00">FlySpeed</text>
</g>
<!-- 0&#45;&gt;7 -->
<g id="edge7" class="edge">
<title>0&#45;&gt;7</title>
<path fill="none" stroke="black" d="M273.42,-141C305.28,-137.74 338.3,-134.35 364.91,-131.63"/>
<polygon fill="black" stroke="black" points="365.17,-135.12 374.76,-130.62 364.46,-128.16 365.17,-135.12"/>
</g>
<!-- 9 -->
<!-- name: &quot;VerticalFlySpeed&quot;, typeName: &quot;&quot;, id: 9, branchId: 0, recurseId: &#45;1, attributes: 0, notes: &quot;&quot; -->
<g id="node10" class="node">
<title>9</title>
<ellipse fill="none" stroke="black" cx="420.88" cy="-72" rx="74.38" ry="18"/>
<text xml:space="preserve" text-anchor="middle" x="420.88" y="-66.95" font-family="Times New Roman,serif" font-size="14.00">VerticalFlySpeed</text>
</g>
<!-- 0&#45;&gt;9 -->
<g id="edge9" class="edge">
<title>0&#45;&gt;9</title>
<path fill="none" stroke="black" d="M212.16,-135.82C256.47,-122.21 318.13,-103.26 362.76,-89.55"/>
<polygon fill="black" stroke="black" points="363.74,-92.91 372.27,-86.63 361.68,-86.22 363.74,-92.91"/>
</g>
<!-- 11 -->
<!-- name: &quot;WalkSpeed&quot;, typeName: &quot;&quot;, id: 11, branchId: 0, recurseId: &#45;1, attributes: 0, notes: &quot;&quot; -->
<g id="node12" class="node">
<title>11</title>
<ellipse fill="none" stroke="black" cx="420.88" cy="-18" rx="52.89" ry="18"/>
<text xml:space="preserve" text-anchor="middle" x="420.88" y="-12.95" font-family="Times New Roman,serif" font-size="14.00">WalkSpeed</text>
</g>
<!-- 0&#45;&gt;11 -->
<g id="edge11" class="edge">
<title>0&#45;&gt;11</title>
<path fill="none" stroke="black" d="M184.48,-135.02C220.97,-112.25 286.89,-72.66 346.5,-45 354.46,-41.3 363.09,-37.75 371.53,-34.51"/>
<polygon fill="black" stroke="black" points="372.5,-37.88 380.65,-31.1 370.05,-31.32 372.5,-37.88"/>
</g>
<!-- 2 -->
<!-- name: &quot;unsigned short&quot;, typeName: &quot;&quot;, id: 2, branchId: 0, recurseId: &#45;1, attributes: 512, notes: &quot;&quot; -->
<g id="node3" class="node">
<title>2</title>
<ellipse fill="none" stroke="black" cx="596.43" cy="-288" rx="65.17" ry="18"/>
<text xml:space="preserve" text-anchor="middle" x="596.43" y="-282.95" font-family="Times New Roman,serif" font-size="14.00">unsigned short</text>
</g>
<!-- 1&#45;&gt;2 -->
<g id="edge2" class="edge">
<title>1&#45;&gt;2</title>
<path fill="none" stroke="black" d="M490.47,-288C500.07,-288 509.99,-288 519.71,-288"/>
<polygon fill="black" stroke="black" points="519.5,-291.5 529.5,-288 519.5,-284.5 519.5,-291.5"/>
</g>
<!-- 4 -->
<!-- name: &quot;unsigned int&quot;, typeName: &quot;&quot;, id: 4, branchId: 0, recurseId: &#45;1, attributes: 512, notes: &quot;&quot; -->
<g id="node5" class="node">
<title>4</title>
<ellipse fill="none" stroke="black" cx="596.43" cy="-234" rx="56.47" ry="18"/>
<text xml:space="preserve" text-anchor="middle" x="596.43" y="-228.95" font-family="Times New Roman,serif" font-size="14.00">unsigned int</text>
</g>
<!-- 3&#45;&gt;4 -->
<g id="edge4" class="edge">
<title>3&#45;&gt;4</title>
<path fill="none" stroke="black" d="M475.37,-234C492.12,-234 510.82,-234 528.38,-234"/>
<polygon fill="black" stroke="black" points="528.21,-237.5 538.21,-234 528.21,-230.5 528.21,-237.5"/>
</g>
<!-- 6 -->
<!-- name: &quot;unsigned int&quot;, typeName: &quot;&quot;, id: 6, branchId: 0, recurseId: &#45;1, attributes: 512, notes: &quot;&quot; -->
<g id="node7" class="node">
<title>6</title>
<ellipse fill="none" stroke="black" cx="596.43" cy="-180" rx="56.47" ry="18"/>
<text xml:space="preserve" text-anchor="middle" x="596.43" y="-174.95" font-family="Times New Roman,serif" font-size="14.00">unsigned int</text>
</g>
<!-- 5&#45;&gt;6 -->
<g id="edge6" class="edge">
<title>5&#45;&gt;6</title>
<path fill="none" stroke="black" d="M482.58,-180C497.38,-180 513.3,-180 528.37,-180"/>
<polygon fill="black" stroke="black" points="528.19,-183.5 538.19,-180 528.19,-176.5 528.19,-183.5"/>
</g>
<!-- 8 -->
<!-- name: &quot;float&quot;, typeName: &quot;&quot;, id: 8, branchId: 0, recurseId: &#45;1, attributes: 512, notes: &quot;&quot; -->
<g id="node9" class="node">
<title>8</title>
<ellipse fill="none" stroke="black" cx="596.43" cy="-126" rx="27.81" ry="18"/>
<text xml:space="preserve" text-anchor="middle" x="596.43" y="-120.95" font-family="Times New Roman,serif" font-size="14.00">float</text>
</g>
<!-- 7&#45;&gt;8 -->
<g id="edge8" class="edge">
<title>7&#45;&gt;8</title>
<path fill="none" stroke="black" d="M467.03,-126C495.02,-126 530.59,-126 557.2,-126"/>
<polygon fill="black" stroke="black" points="556.85,-129.5 566.85,-126 556.85,-122.5 556.85,-129.5"/>
</g>
<!-- 10 -->
<!-- name: &quot;float&quot;, typeName: &quot;&quot;, id: 10, branchId: 0, recurseId: &#45;1, attributes: 512, notes: &quot;&quot; -->
<g id="node11" class="node">
<title>10</title>
<ellipse fill="none" stroke="black" cx="596.43" cy="-72" rx="27.81" ry="18"/>
<text xml:space="preserve" text-anchor="middle" x="596.43" y="-66.95" font-family="Times New Roman,serif" font-size="14.00">float</text>
</g>
<!-- 9&#45;&gt;10 -->
<g id="edge10" class="edge">
<title>9&#45;&gt;10</title>
<path fill="none" stroke="black" d="M495.73,-72C516.82,-72 538.95,-72 556.99,-72"/>
<polygon fill="black" stroke="black" points="556.97,-75.5 566.97,-72 556.97,-68.5 556.97,-75.5"/>
</g>
<!-- 12 -->
<!-- name: &quot;float&quot;, typeName: &quot;&quot;, id: 12, branchId: 0, recurseId: &#45;1, attributes: 512, notes: &quot;&quot; -->
<g id="node13" class="node">
<title>12</title>
<ellipse fill="none" stroke="black" cx="596.43" cy="-18" rx="27.81" ry="18"/>
<text xml:space="preserve" text-anchor="middle" x="596.43" y="-12.95" font-family="Times New Roman,serif" font-size="14.00">float</text>
</g>
<!-- 11&#45;&gt;12 -->
<g id="edge12" class="edge">
<title>11&#45;&gt;12</title>
<path fill="none" stroke="black" d="M473.95,-18C500.72,-18 532.77,-18 557.23,-18"/>
<polygon fill="black" stroke="black" points="557.05,-21.5 567.05,-18 557.05,-14.5 557.05,-21.5"/>
</g>
</g>
</svg>
