<?xml version="1.0" encoding="UTF-8" standalone="no"?>
<!DOCTYPE svg PUBLIC "-//W3C//DTD SVG 1.1//EN"
 "http://www.w3.org/Graphics/SVG/1.1/DTD/svg11.dtd">
<!-- Generated by graphviz version 10.0.1 (20240210.2158)
 -->
<!-- Title: SerializedAbilitiesData Pages: 1 -->
<svg width="1185pt" height="260pt"
 viewBox="0.00 0.00 1184.59 260.00" xmlns="http://www.w3.org/2000/svg" xmlns:xlink="http://www.w3.org/1999/xlink">
<g id="graph0" class="graph" transform="scale(1 1) rotate(0) translate(4 256)">
<title>SerializedAbilitiesData</title>
<polygon fill="white" stroke="none" points="-4,4 -4,-256 1180.59,-256 1180.59,4 -4,4"/>
<!-- 80 -->
<!-- name: &quot;SerializedAbilitiesData&quot;, typeName: &quot;&quot;, id: 80, branchId: 0, recurseId: &#45;1, attributes: 0, notes: &quot;&quot; -->
<g id="node1" class="node">
<title>80</title>
<ellipse fill="none" stroke="black" cx="92.98" cy="-151" rx="92.98" ry="18"/>
<text text-anchor="middle" x="92.98" y="-145.57" font-family="Times New Roman,serif" font-size="14.00">SerializedAbilitiesData</text>
</g>
<!-- 81 -->
<!-- name: &quot;TargetPlayer.rawID&quot;, typeName: &quot;&quot;, id: 81, branchId: 0, recurseId: &#45;1, attributes: 0, notes: &quot;&quot; -->
<g id="node2" class="node">
<title>81</title>
<ellipse fill="none" stroke="black" cx="750.87" cy="-230" rx="83" ry="18"/>
<text text-anchor="middle" x="750.87" y="-224.57" font-family="Times New Roman,serif" font-size="14.00">TargetPlayer.rawID</text>
</g>
<!-- 80&#45;&gt;81 -->
<g id="edge1" class="edge">
<title>80&#45;&gt;81</title>
<path fill="none" stroke="black" d="M152.67,-165.17C174.35,-170.05 199.18,-175.23 221.96,-179 374.03,-204.16 552.95,-218.22 658.59,-224.94"/>
<polygon fill="black" stroke="black" points="658.13,-228.42 668.33,-225.55 658.57,-221.43 658.13,-228.42"/>
</g>
<!-- 83 -->
<!-- name: &quot;mPlayerPermissions&quot;, typeName: &quot;&quot;, id: 83, branchId: 0, recurseId: &#45;1, attributes: 0, notes: &quot;&quot; -->
<g id="node4" class="node">
<title>83</title>
<ellipse fill="none" stroke="black" cx="546.38" cy="-179" rx="85.49" ry="18"/>
<text text-anchor="middle" x="546.38" y="-173.57" font-family="Times New Roman,serif" font-size="14.00">mPlayerPermissions</text>
</g>
<!-- 80&#45;&gt;83 -->
<g id="edge3" class="edge">
<title>80&#45;&gt;83</title>
<path fill="none" stroke="black" d="M182.09,-156.47C259.97,-161.3 373.21,-168.32 452.5,-173.24"/>
<polygon fill="black" stroke="black" points="452.24,-176.73 462.44,-173.86 452.67,-169.74 452.24,-176.73"/>
</g>
<!-- 85 -->
<!-- name: &quot;mCommandPermissions&quot;, typeName: &quot;&quot;, id: 85, branchId: 0, recurseId: &#45;1, attributes: 0, notes: &quot;&quot; -->
<g id="node6" class="node">
<title>85</title>
<ellipse fill="none" stroke="black" cx="323.42" cy="-128" rx="101.46" ry="18"/>
<text text-anchor="middle" x="323.42" y="-122.58" font-family="Times New Roman,serif" font-size="14.00">mCommandPermissions</text>
</g>
<!-- 80&#45;&gt;85 -->
<g id="edge5" class="edge">
<title>80&#45;&gt;85</title>
<path fill="none" stroke="black" d="M176.45,-142.7C191.57,-141.17 207.49,-139.57 223.04,-138.01"/>
<polygon fill="black" stroke="black" points="223.18,-141.51 232.78,-137.03 222.48,-134.54 223.18,-141.51"/>
</g>
<!-- 87 -->
<!-- name: &quot;Layers&quot;, typeName: &quot;&quot;, id: 87, branchId: 0, recurseId: &#45;1, attributes: 8, notes: &quot;&quot; -->
<g id="node8" class="node">
<title>87</title>
<ellipse fill="none" stroke="black" cx="323.42" cy="-72" rx="35.6" ry="18"/>
<text text-anchor="middle" x="323.42" y="-66.58" font-family="Times New Roman,serif" font-size="14.00">Layers</text>
</g>
<!-- 80&#45;&gt;87 -->
<g id="edge7" class="edge">
<title>80&#45;&gt;87</title>
<path fill="none" stroke="black" d="M133.7,-134.4C158.79,-124.18 192.02,-111.14 221.96,-101 240.95,-94.56 262.25,-88.28 280.34,-83.22"/>
<polygon fill="black" stroke="black" points="281.25,-86.6 289.96,-80.56 279.39,-79.85 281.25,-86.6"/>
</g>
<!-- 82 -->
<!-- name: &quot;int64&quot;, typeName: &quot;&quot;, id: 82, branchId: 0, recurseId: &#45;1, attributes: 512, notes: &quot;&quot; -->
<g id="node3" class="node">
<title>82</title>
<ellipse fill="none" stroke="black" cx="1023.23" cy="-234" rx="28.61" ry="18"/>
<text text-anchor="middle" x="1023.23" y="-228.57" font-family="Times New Roman,serif" font-size="14.00">int64</text>
</g>
<!-- 81&#45;&gt;82 -->
<g id="edge2" class="edge">
<title>81&#45;&gt;82</title>
<path fill="none" stroke="black" d="M834.09,-231.22C883.51,-231.95 944.14,-232.84 982.98,-233.42"/>
<polygon fill="black" stroke="black" points="982.73,-236.92 992.78,-233.56 982.83,-229.92 982.73,-236.92"/>
</g>
<!-- 84 -->
<!-- name: &quot;byte&quot;, typeName: &quot;&quot;, id: 84, branchId: 0, recurseId: &#45;1, attributes: 512, notes: &quot;&quot; -->
<g id="node5" class="node">
<title>84</title>
<ellipse fill="none" stroke="black" cx="1023.23" cy="-180" rx="27" ry="18"/>
<text text-anchor="middle" x="1023.23" y="-174.57" font-family="Times New Roman,serif" font-size="14.00">byte</text>
</g>
<!-- 83&#45;&gt;84 -->
<g id="edge4" class="edge">
<title>83&#45;&gt;84</title>
<path fill="none" stroke="black" d="M632.27,-179.18C736.47,-179.4 908.64,-179.76 984.43,-179.92"/>
<polygon fill="black" stroke="black" points="984.22,-183.42 994.23,-179.94 984.24,-176.42 984.22,-183.42"/>
</g>
<!-- 86 -->
<!-- name: &quot;byte&quot;, typeName: &quot;&quot;, id: 86, branchId: 0, recurseId: &#45;1, attributes: 512, notes: &quot;&quot; -->
<g id="node7" class="node">
<title>86</title>
<ellipse fill="none" stroke="black" cx="1023.23" cy="-126" rx="27" ry="18"/>
<text text-anchor="middle" x="1023.23" y="-120.58" font-family="Times New Roman,serif" font-size="14.00">byte</text>
</g>
<!-- 85&#45;&gt;86 -->
<g id="edge6" class="edge">
<title>85&#45;&gt;86</title>
<path fill="none" stroke="black" d="M425.14,-127.71C582.69,-127.26 880.21,-126.41 984.76,-126.11"/>
<polygon fill="black" stroke="black" points="984.46,-129.61 994.45,-126.08 984.44,-122.61 984.46,-129.61"/>
</g>
<!-- 88 -->
<!-- name: &quot;Array Size&quot;, typeName: &quot;&quot;, id: 88, branchId: 0, recurseId: &#45;1, attributes: 0, notes: &quot;&quot; -->
<g id="node9" class="node">
<title>88</title>
<ellipse fill="none" stroke="black" cx="750.87" cy="-72" rx="49.57" ry="18"/>
<text text-anchor="middle" x="750.87" y="-66.58" font-family="Times New Roman,serif" font-size="14.00">Array Size</text>
</g>
<!-- 87&#45;&gt;88 -->
<g id="edge8" class="edge">
<title>87&#45;&gt;88</title>
<path fill="none" stroke="black" d="M359.24,-72C431.68,-72 599.36,-72 689.67,-72"/>
<polygon fill="black" stroke="black" points="689.58,-75.5 699.58,-72 689.58,-68.5 689.58,-75.5"/>
</g>
<!-- 90 -->
<!-- name: &quot;example element&quot;, typeName: &quot;&quot;, id: 90, branchId: 0, recurseId: &#45;1, attributes: 16, notes: &quot;&quot; -->
<g id="node11" class="node">
<title>90</title>
<ellipse fill="none" stroke="black" stroke-dasharray="1,5" cx="546.38" cy="-22" rx="71.52" ry="18"/>
<text text-anchor="middle" x="546.38" y="-16.57" font-family="Times New Roman,serif" font-size="14.00">example element</text>
</g>
<!-- 87&#45;&gt;90 -->
<g id="edge10" class="edge">
<title>87&#45;&gt;90</title>
<path fill="none" stroke="black" d="M356.55,-64.73C389.04,-57.38 440.17,-45.81 481.03,-36.56"/>
<polygon fill="black" stroke="black" points="481.8,-39.98 490.78,-34.35 480.26,-33.15 481.8,-39.98"/>
</g>
<!-- 89 -->
<!-- name: &quot;unsigned varint&quot;, typeName: &quot;&quot;, id: 89, branchId: 0, recurseId: &#45;1, attributes: 512, notes: &quot;&quot; -->
<g id="node10" class="node">
<title>89</title>
<ellipse fill="none" stroke="black" cx="1023.23" cy="-72" rx="66.53" ry="18"/>
<text text-anchor="middle" x="1023.23" y="-66.58" font-family="Times New Roman,serif" font-size="14.00">unsigned varint</text>
</g>
<!-- 88&#45;&gt;89 -->
<g id="edge9" class="edge">
<title>88&#45;&gt;89</title>
<path fill="none" stroke="black" d="M800.83,-72C841.04,-72 898.71,-72 945.11,-72"/>
<polygon fill="black" stroke="black" points="944.83,-75.5 954.83,-72 944.83,-68.5 944.83,-75.5"/>
</g>
<!-- 91 -->
<!-- name: &quot;layers&quot;, typeName: &quot;SerializedAbilitiesData::SerializedLayer&quot;, id: 91, branchId: 0, recurseId: &#45;1, attributes: 256, notes: &quot;&quot; -->
<g id="node12" class="node">
<title>91</title>
<ellipse fill="none" stroke="black" cx="750.87" cy="-18" rx="32.1" ry="18"/>
<text text-anchor="middle" x="750.87" y="-12.57" font-family="Times New Roman,serif" font-size="14.00">layers</text>
</g>
<!-- 90&#45;&gt;91 -->
<g id="edge11" class="edge">
<title>90&#45;&gt;91</title>
<path fill="none" stroke="black" d="M617.92,-20.61C647.61,-20.02 681.2,-19.36 707.05,-18.85"/>
<polygon fill="black" stroke="black" points="706.91,-22.35 716.84,-18.65 706.77,-15.35 706.91,-22.35"/>
</g>
<!-- 103 -->
<!-- name: &quot;SerializedAbilitiesData::SerializedLayer&quot;, typeName: &quot;&quot;, id: 103, branchId: 0, recurseId: &#45;1, attributes: 512, notes: &quot;&quot; -->
<g id="node13" class="node">
<title>103</title>
<ellipse fill="none" stroke="black" cx="1023.23" cy="-18" rx="153.36" ry="18"/>
<text text-anchor="middle" x="1023.23" y="-12.57" font-family="Times New Roman,serif" font-size="14.00">SerializedAbilitiesData::SerializedLayer</text>
</g>
<!-- 91&#45;&gt;103 -->
<g id="edge12" class="edge">
<title>91&#45;&gt;103</title>
<path fill="none" stroke="black" d="M783.42,-18C802.91,-18 829.58,-18 858.06,-18"/>
<polygon fill="black" stroke="black" points="857.96,-21.5 867.96,-18 857.96,-14.5 857.96,-21.5"/>
</g>
</g>
</svg>
