<?xml version="1.0" encoding="UTF-8" standalone="no"?>
<!DOCTYPE svg PUBLIC "-//W3C//DTD SVG 1.1//EN"
 "http://www.w3.org/Graphics/SVG/1.1/DTD/svg11.dtd">
<!-- Generated by graphviz version 2.46.1 (20210213.1702)
 -->
<!-- Title: ServerSettingsResponsePacket Pages: 1 -->
<svg width="592pt" height="98pt"
 viewBox="0.00 0.00 592.15 98.00" xmlns="http://www.w3.org/2000/svg" xmlns:xlink="http://www.w3.org/1999/xlink">
<g id="graph0" class="graph" transform="scale(1 1) rotate(0) translate(4 94)">
<title>ServerSettingsResponsePacket</title>
<polygon fill="white" stroke="transparent" points="-4,4 -4,-94 588.15,-94 588.15,4 -4,4"/>
<!-- 0 -->
<!-- name: &quot;ServerSettingsResponsePacket&quot;, typeName: &quot;&quot;, id: 0, branchId: 103, recurseId: &#45;1, attributes: 0, notes: &quot;&quot; -->
<g id="node1" class="node">
<title>0</title>
<ellipse fill="none" stroke="black" cx="123.49" cy="-45" rx="123.48" ry="18"/>
<text text-anchor="middle" x="123.49" y="-41.3" font-family="Times New Roman,serif" font-size="14.00">ServerSettingsResponsePacket</text>
</g>
<!-- 1 -->
<!-- name: &quot;Form ID&quot;, typeName: &quot;&quot;, id: 1, branchId: 0, recurseId: &#45;1, attributes: 0, notes: &quot;&quot; -->
<g id="node2" class="node">
<title>1</title>
<ellipse fill="none" stroke="black" cx="349.92" cy="-72" rx="42.49" ry="18"/>
<text text-anchor="middle" x="349.92" y="-68.3" font-family="Times New Roman,serif" font-size="14.00">Form ID</text>
</g>
<!-- 0&#45;&gt;1 -->
<g id="edge1" class="edge">
<title>0&#45;&gt;1</title>
<path fill="none" stroke="black" d="M219.34,-56.41C246.75,-59.71 275.58,-63.18 299.06,-66"/>
<polygon fill="black" stroke="black" points="298.77,-69.49 309.11,-67.21 299.6,-62.54 298.77,-69.49"/>
</g>
<!-- 3 -->
<!-- name: &quot;Form UI JSON&quot;, typeName: &quot;&quot;, id: 3, branchId: 0, recurseId: &#45;1, attributes: 0, notes: &quot;&quot; -->
<g id="node4" class="node">
<title>3</title>
<ellipse fill="none" stroke="black" cx="349.92" cy="-18" rx="66.89" ry="18"/>
<text text-anchor="middle" x="349.92" y="-14.3" font-family="Times New Roman,serif" font-size="14.00">Form UI JSON</text>
</g>
<!-- 0&#45;&gt;3 -->
<g id="edge3" class="edge">
<title>0&#45;&gt;3</title>
<path fill="none" stroke="black" d="M219.34,-33.59C239.22,-31.2 259.84,-28.72 278.63,-26.46"/>
<polygon fill="black" stroke="black" points="279.06,-29.93 288.57,-25.26 278.22,-22.98 279.06,-29.93"/>
</g>
<!-- 2 -->
<!-- name: &quot;unsigned varint&quot;, typeName: &quot;&quot;, id: 2, branchId: 0, recurseId: &#45;1, attributes: 512, notes: &quot;&quot; -->
<g id="node3" class="node">
<title>2</title>
<ellipse fill="none" stroke="black" cx="518.51" cy="-72" rx="65.79" ry="18"/>
<text text-anchor="middle" x="518.51" y="-68.3" font-family="Times New Roman,serif" font-size="14.00">unsigned varint</text>
</g>
<!-- 1&#45;&gt;2 -->
<g id="edge2" class="edge">
<title>1&#45;&gt;2</title>
<path fill="none" stroke="black" d="M392.53,-72C407.76,-72 425.49,-72 442.72,-72"/>
<polygon fill="black" stroke="black" points="442.79,-75.5 452.79,-72 442.79,-68.5 442.79,-75.5"/>
</g>
<!-- 4 -->
<!-- name: &quot;string&quot;, typeName: &quot;&quot;, id: 4, branchId: 0, recurseId: &#45;1, attributes: 512, notes: &quot;&quot; -->
<g id="node5" class="node">
<title>4</title>
<ellipse fill="none" stroke="black" cx="518.51" cy="-18" rx="30.59" ry="18"/>
<text text-anchor="middle" x="518.51" y="-14.3" font-family="Times New Roman,serif" font-size="14.00">string</text>
</g>
<!-- 3&#45;&gt;4 -->
<g id="edge4" class="edge">
<title>3&#45;&gt;4</title>
<path fill="none" stroke="black" d="M417.24,-18C437.72,-18 459.63,-18 477.73,-18"/>
<polygon fill="black" stroke="black" points="477.9,-21.5 487.9,-18 477.9,-14.5 477.9,-21.5"/>
</g>
</g>
</svg>
