<?xml version="1.0" encoding="UTF-8" standalone="no"?>
<!DOCTYPE svg PUBLIC "-//W3C//DTD SVG 1.1//EN"
 "http://www.w3.org/Graphics/SVG/1.1/DTD/svg11.dtd">
<!-- Generated by graphviz version 2.46.1 (20210213.1702)
 -->
<!-- Title: ServerPlayerPostMovePositionPacket Pages: 1 -->
<svg width="490pt" height="44pt"
 viewBox="0.00 0.00 490.17 44.00" xmlns="http://www.w3.org/2000/svg" xmlns:xlink="http://www.w3.org/1999/xlink">
<g id="graph0" class="graph" transform="scale(1 1) rotate(0) translate(4 40)">
<title>ServerPlayerPostMovePositionPacket</title>
<polygon fill="white" stroke="transparent" points="-4,4 -4,-40 486.17,-40 486.17,4 -4,4"/>
<!-- 0 -->
<!-- name: &quot;ServerPlayerPostMovePositionPacket&quot;, typeName: &quot;&quot;, id: 0, branchId: 16, recurseId: &#45;1, attributes: 0, notes: &quot;&quot; -->
<g id="node1" class="node">
<title>0</title>
<ellipse fill="none" stroke="black" cx="148.19" cy="-18" rx="148.37" ry="18"/>
<text text-anchor="middle" x="148.19" y="-14.3" font-family="Times New Roman,serif" font-size="14.00">ServerPlayerPostMovePositionPacket</text>
</g>
<!-- 1 -->
<!-- name: &quot;Pos&quot;, typeName: &quot;Vec3&quot;, id: 1, branchId: 0, recurseId: &#45;1, attributes: 256, notes: &quot;&quot; -->
<g id="node2" class="node">
<title>1</title>
<ellipse fill="none" stroke="black" cx="359.37" cy="-18" rx="27" ry="18"/>
<text text-anchor="middle" x="359.37" y="-14.3" font-family="Times New Roman,serif" font-size="14.00">Pos</text>
</g>
<!-- 0&#45;&gt;1 -->
<g id="edge1" class="edge">
<title>0&#45;&gt;1</title>
<path fill="none" stroke="black" d="M296.46,-18C305.7,-18 314.4,-18 322.2,-18"/>
<polygon fill="black" stroke="black" points="322.24,-21.5 332.24,-18 322.24,-14.5 322.24,-21.5"/>
</g>
<!-- 2 -->
<!-- name: &quot;Vec3&quot;, typeName: &quot;&quot;, id: 2, branchId: 0, recurseId: &#45;1, attributes: 512, notes: &quot;&quot; -->
<g id="node3" class="node">
<title>2</title>
<ellipse fill="none" stroke="black" cx="452.27" cy="-18" rx="29.8" ry="18"/>
<text text-anchor="middle" x="452.27" y="-14.3" font-family="Times New Roman,serif" font-size="14.00">Vec3</text>
</g>
<!-- 1&#45;&gt;2 -->
<g id="edge2" class="edge">
<title>1&#45;&gt;2</title>
<path fill="none" stroke="black" d="M386.66,-18C394.57,-18 403.42,-18 411.97,-18"/>
<polygon fill="black" stroke="black" points="412.17,-21.5 422.17,-18 412.17,-14.5 412.17,-21.5"/>
</g>
</g>
</svg>
