<?xml version="1.0" encoding="UTF-8" standalone="no"?>
<!DOCTYPE svg PUBLIC "-//W3C//DTD SVG 1.1//EN"
 "http://www.w3.org/Graphics/SVG/1.1/DTD/svg11.dtd">
<!-- Generated by graphviz version 13.1.2 (20250808.2320)
 -->
<!-- Title: SetActorLinkPacket Pages: 1 -->
<svg width="978pt" height="314pt"
 viewBox="0.00 0.00 978.00 314.00" xmlns="http://www.w3.org/2000/svg" xmlns:xlink="http://www.w3.org/1999/xlink">
<g id="graph0" class="graph" transform="scale(1 1) rotate(0) translate(4 310)">
<title>SetActorLinkPacket</title>
<polygon fill="white" stroke="none" points="-4,4 -4,-310 973.72,-310 973.72,4 -4,4"/>
<!-- 0 -->
<!-- name: &quot;SetActorLinkPacket&quot;, typeName: &quot;&quot;, id: 0, branchId: 0, recurseId: &#45;1, attributes: 0, notes: &quot;Sent by both client and server, only received by LegacyClientHandler.&quot; -->
<g id="node1" class="node">
<title>0</title>
<ellipse fill="none" stroke="black" cx="85.64" cy="-151" rx="85.64" ry="18"/>
<text xml:space="preserve" text-anchor="middle" x="85.64" y="-145.95" font-family="Times New Roman,serif" font-size="14.00">SetActorLinkPacket</text>
</g>
<!-- 1 -->
<!-- name: &quot;Link&quot;, typeName: &quot;&quot;, id: 1, branchId: 0, recurseId: &#45;1, attributes: 0, notes: &quot;&quot; -->
<g id="node2" class="node">
<title>1</title>
<ellipse fill="none" stroke="black" cx="235.61" cy="-151" rx="28.32" ry="18"/>
<text xml:space="preserve" text-anchor="middle" x="235.61" y="-145.95" font-family="Times New Roman,serif" font-size="14.00">Link</text>
</g>
<!-- 0&#45;&gt;1 -->
<g id="edge1" class="edge">
<title>0&#45;&gt;1</title>
<path fill="none" stroke="black" d="M171.43,-151C179.82,-151 188.02,-151 195.58,-151"/>
<polygon fill="black" stroke="black" points="195.38,-154.5 205.38,-151 195.38,-147.5 195.38,-154.5"/>
</g>
<!-- 2 -->
<!-- name: &quot;Target A&quot;, typeName: &quot;&quot;, id: 2, branchId: 0, recurseId: &#45;1, attributes: 0, notes: &quot;&quot; -->
<g id="node3" class="node">
<title>2</title>
<ellipse fill="none" stroke="black" cx="403.48" cy="-284" rx="43.16" ry="18"/>
<text xml:space="preserve" text-anchor="middle" x="403.48" y="-278.95" font-family="Times New Roman,serif" font-size="14.00">Target A</text>
</g>
<!-- 1&#45;&gt;2 -->
<g id="edge2" class="edge">
<title>1&#45;&gt;2</title>
<path fill="none" stroke="black" d="M242.61,-168.53C251.48,-191.78 270.3,-232.49 299.93,-255 314.43,-266.02 332.94,-272.85 350.24,-277.09"/>
<polygon fill="black" stroke="black" points="349.38,-280.48 359.89,-279.19 350.87,-273.64 349.38,-280.48"/>
</g>
<!-- 5 -->
<!-- name: &quot;Target B&quot;, typeName: &quot;&quot;, id: 5, branchId: 0, recurseId: &#45;1, attributes: 0, notes: &quot;&quot; -->
<g id="node6" class="node">
<title>5</title>
<ellipse fill="none" stroke="black" cx="403.48" cy="-228" rx="43.16" ry="18"/>
<text xml:space="preserve" text-anchor="middle" x="403.48" y="-222.95" font-family="Times New Roman,serif" font-size="14.00">Target B</text>
</g>
<!-- 1&#45;&gt;5 -->
<g id="edge5" class="edge">
<title>1&#45;&gt;5</title>
<path fill="none" stroke="black" d="M252,-166.16C264.1,-177.3 281.88,-191.99 299.93,-201 316.01,-209.03 334.74,-214.86 351.75,-219"/>
<polygon fill="black" stroke="black" points="350.64,-222.34 361.17,-221.15 352.2,-215.51 350.64,-222.34"/>
</g>
<!-- 8 -->
<!-- name: &quot;Type&quot;, typeName: &quot;&quot;, id: 8, branchId: 0, recurseId: &#45;1, attributes: 0, notes: &quot;&quot; -->
<g id="node9" class="node">
<title>8</title>
<ellipse fill="none" stroke="black" cx="403.48" cy="-174" rx="29.34" ry="18"/>
<text xml:space="preserve" text-anchor="middle" x="403.48" y="-168.95" font-family="Times New Roman,serif" font-size="14.00">Type</text>
</g>
<!-- 1&#45;&gt;8 -->
<g id="edge8" class="edge">
<title>1&#45;&gt;8</title>
<path fill="none" stroke="black" d="M263.63,-154.75C290.65,-158.49 332.5,-164.3 363.2,-168.55"/>
<polygon fill="black" stroke="black" points="362.48,-171.99 372.86,-169.89 363.44,-165.05 362.48,-171.99"/>
</g>
<!-- 10 -->
<!-- name: &quot;Immediate&quot;, typeName: &quot;&quot;, id: 10, branchId: 0, recurseId: &#45;1, attributes: 0, notes: &quot;&quot; -->
<g id="node11" class="node">
<title>10</title>
<ellipse fill="none" stroke="black" cx="624.07" cy="-128" rx="51.35" ry="18"/>
<text xml:space="preserve" text-anchor="middle" x="624.07" y="-122.95" font-family="Times New Roman,serif" font-size="14.00">Immediate</text>
</g>
<!-- 1&#45;&gt;10 -->
<g id="edge10" class="edge">
<title>1&#45;&gt;10</title>
<path fill="none" stroke="black" d="M264.03,-149.24C275.17,-148.53 288.16,-147.72 299.93,-147 391.08,-141.44 496.71,-135.28 561.71,-131.53"/>
<polygon fill="black" stroke="black" points="561.68,-135.04 571.46,-130.97 561.27,-128.05 561.68,-135.04"/>
</g>
<!-- 12 -->
<!-- name: &quot;Passenger Initiated&quot;, typeName: &quot;&quot;, id: 12, branchId: 0, recurseId: &#45;1, attributes: 0, notes: &quot;Whether the link was changed by the passenger&quot; -->
<g id="node13" class="node">
<title>12</title>
<ellipse fill="none" stroke="black" cx="624.07" cy="-74" rx="81.04" ry="18"/>
<text xml:space="preserve" text-anchor="middle" x="624.07" y="-68.95" font-family="Times New Roman,serif" font-size="14.00">Passenger Initiated</text>
</g>
<!-- 1&#45;&gt;12 -->
<g id="edge12" class="edge">
<title>1&#45;&gt;12</title>
<path fill="none" stroke="black" d="M261.05,-142.45C272.72,-138.59 286.94,-134.18 299.93,-131 381.91,-110.91 477.25,-94.98 543.02,-85.13"/>
<polygon fill="black" stroke="black" points="543.26,-88.63 552.63,-83.7 542.23,-81.71 543.26,-88.63"/>
</g>
<!-- 14 -->
<!-- name: &quot;Vehicle Angular Velocity&quot;, typeName: &quot;&quot;, id: 14, branchId: 0, recurseId: &#45;1, attributes: 0, notes: &quot;&quot; -->
<g id="node15" class="node">
<title>14</title>
<ellipse fill="none" stroke="black" cx="403.48" cy="-25" rx="103.56" ry="18"/>
<text xml:space="preserve" text-anchor="middle" x="403.48" y="-19.95" font-family="Times New Roman,serif" font-size="14.00">Vehicle Angular Velocity</text>
</g>
<!-- 1&#45;&gt;14 -->
<g id="edge14" class="edge">
<title>1&#45;&gt;14</title>
<path fill="none" stroke="black" d="M246.23,-133.84C257.18,-115.64 276.61,-87.07 299.93,-69 312.19,-59.5 326.81,-51.64 341.12,-45.32"/>
<polygon fill="black" stroke="black" points="342.18,-48.67 350.05,-41.57 339.47,-42.21 342.18,-48.67"/>
</g>
<!-- 3 -->
<!-- name: &quot;Actor Unique ID&quot;, typeName: &quot;&quot;, id: 3, branchId: 0, recurseId: &#45;1, attributes: 0, notes: &quot;&quot; -->
<g id="node4" class="node">
<title>3</title>
<ellipse fill="none" stroke="black" cx="624.07" cy="-287" rx="73.87" ry="18"/>
<text xml:space="preserve" text-anchor="middle" x="624.07" y="-281.95" font-family="Times New Roman,serif" font-size="14.00">Actor Unique ID</text>
</g>
<!-- 2&#45;&gt;3 -->
<g id="edge3" class="edge">
<title>2&#45;&gt;3</title>
<path fill="none" stroke="black" d="M446.89,-284.58C472.98,-284.94 507.35,-285.41 538.79,-285.84"/>
<polygon fill="black" stroke="black" points="538.66,-289.34 548.71,-285.98 538.76,-282.34 538.66,-289.34"/>
</g>
<!-- 4 -->
<!-- name: &quot;varint64&quot;, typeName: &quot;&quot;, id: 4, branchId: 0, recurseId: &#45;1, attributes: 512, notes: &quot;&quot; -->
<g id="node5" class="node">
<title>4</title>
<ellipse fill="none" stroke="black" cx="855.41" cy="-288" rx="41.63" ry="18"/>
<text xml:space="preserve" text-anchor="middle" x="855.41" y="-282.95" font-family="Times New Roman,serif" font-size="14.00">varint64</text>
</g>
<!-- 3&#45;&gt;4 -->
<g id="edge4" class="edge">
<title>3&#45;&gt;4</title>
<path fill="none" stroke="black" d="M698.27,-287.32C732.09,-287.47 771.48,-287.64 802.24,-287.77"/>
<polygon fill="black" stroke="black" points="802.05,-291.27 812.06,-287.82 802.08,-284.27 802.05,-291.27"/>
</g>
<!-- 6 -->
<!-- name: &quot;Actor Unique ID&quot;, typeName: &quot;&quot;, id: 6, branchId: 0, recurseId: &#45;1, attributes: 0, notes: &quot;&quot; -->
<g id="node7" class="node">
<title>6</title>
<ellipse fill="none" stroke="black" cx="624.07" cy="-232" rx="73.87" ry="18"/>
<text xml:space="preserve" text-anchor="middle" x="624.07" y="-226.95" font-family="Times New Roman,serif" font-size="14.00">Actor Unique ID</text>
</g>
<!-- 5&#45;&gt;6 -->
<g id="edge6" class="edge">
<title>5&#45;&gt;6</title>
<path fill="none" stroke="black" d="M446.89,-228.78C472.98,-229.25 507.35,-229.88 538.79,-230.46"/>
<polygon fill="black" stroke="black" points="538.65,-233.96 548.71,-230.64 538.77,-226.96 538.65,-233.96"/>
</g>
<!-- 7 -->
<!-- name: &quot;varint64&quot;, typeName: &quot;&quot;, id: 7, branchId: 0, recurseId: &#45;1, attributes: 512, notes: &quot;&quot; -->
<g id="node8" class="node">
<title>7</title>
<ellipse fill="none" stroke="black" cx="855.41" cy="-234" rx="41.63" ry="18"/>
<text xml:space="preserve" text-anchor="middle" x="855.41" y="-228.95" font-family="Times New Roman,serif" font-size="14.00">varint64</text>
</g>
<!-- 6&#45;&gt;7 -->
<g id="edge7" class="edge">
<title>6&#45;&gt;7</title>
<path fill="none" stroke="black" d="M698.27,-232.64C732.09,-232.93 771.48,-233.28 802.24,-233.55"/>
<polygon fill="black" stroke="black" points="802.03,-237.04 812.06,-233.63 802.09,-230.04 802.03,-237.04"/>
</g>
<!-- 9 -->
<!-- name: &quot;enum enum ActorLinkType&quot;, typeName: &quot;&quot;, id: 9, branchId: 0, recurseId: &#45;1, attributes: 512, notes: &quot;&quot; -->
<g id="node10" class="node">
<title>9</title>
<ellipse fill="none" stroke="black" cx="855.41" cy="-180" rx="114.3" ry="18"/>
<text xml:space="preserve" text-anchor="middle" x="855.41" y="-174.95" font-family="Times New Roman,serif" font-size="14.00">enum enum ActorLinkType</text>
</g>
<!-- 8&#45;&gt;9 -->
<g id="edge9" class="edge">
<title>8&#45;&gt;9</title>
<path fill="none" stroke="black" d="M433.31,-174.38C491.92,-175.17 628.02,-176.98 729.74,-178.34"/>
<polygon fill="black" stroke="black" points="729.47,-181.83 739.51,-178.47 729.56,-174.83 729.47,-181.83"/>
</g>
<!-- 11 -->
<!-- name: &quot;bool&quot;, typeName: &quot;&quot;, id: 11, branchId: 0, recurseId: &#45;1, attributes: 512, notes: &quot;&quot; -->
<g id="node12" class="node">
<title>11</title>
<ellipse fill="none" stroke="black" cx="855.41" cy="-126" rx="27.3" ry="18"/>
<text xml:space="preserve" text-anchor="middle" x="855.41" y="-120.95" font-family="Times New Roman,serif" font-size="14.00">bool</text>
</g>
<!-- 10&#45;&gt;11 -->
<g id="edge11" class="edge">
<title>10&#45;&gt;11</title>
<path fill="none" stroke="black" d="M675.69,-127.56C718.15,-127.19 777.88,-126.67 816.37,-126.33"/>
<polygon fill="black" stroke="black" points="816.34,-129.83 826.31,-126.25 816.28,-122.83 816.34,-129.83"/>
</g>
<!-- 13 -->
<!-- name: &quot;bool&quot;, typeName: &quot;&quot;, id: 13, branchId: 0, recurseId: &#45;1, attributes: 512, notes: &quot;Whether the link was changed by the passenger&quot; -->
<g id="node14" class="node">
<title>13</title>
<ellipse fill="none" stroke="black" cx="855.41" cy="-72" rx="27.3" ry="18"/>
<text xml:space="preserve" text-anchor="middle" x="855.41" y="-66.95" font-family="Times New Roman,serif" font-size="14.00">bool</text>
</g>
<!-- 12&#45;&gt;13 -->
<g id="edge13" class="edge">
<title>12&#45;&gt;13</title>
<path fill="none" stroke="black" d="M705.29,-73.3C743.03,-72.97 786.27,-72.59 816.43,-72.33"/>
<polygon fill="black" stroke="black" points="816.23,-75.83 826.2,-72.25 816.17,-68.83 816.23,-75.83"/>
</g>
<!-- 15 -->
<!-- name: &quot;float&quot;, typeName: &quot;&quot;, id: 15, branchId: 0, recurseId: &#45;1, attributes: 512, notes: &quot;&quot; -->
<g id="node16" class="node">
<title>15</title>
<ellipse fill="none" stroke="black" cx="855.41" cy="-18" rx="27.81" ry="18"/>
<text xml:space="preserve" text-anchor="middle" x="855.41" y="-12.95" font-family="Times New Roman,serif" font-size="14.00">float</text>
</g>
<!-- 14&#45;&gt;15 -->
<g id="edge15" class="edge">
<title>14&#45;&gt;15</title>
<path fill="none" stroke="black" d="M507.14,-23.4C605.25,-21.88 747.96,-19.66 815.8,-18.6"/>
<polygon fill="black" stroke="black" points="815.73,-22.1 825.68,-18.45 815.62,-15.1 815.73,-22.1"/>
</g>
</g>
</svg>
