<?xml version="1.0" encoding="UTF-8" standalone="no"?>
<!DOCTYPE svg PUBLIC "-//W3C//DTD SVG 1.1//EN"
 "http://www.w3.org/Graphics/SVG/1.1/DTD/svg11.dtd">
<!-- Generated by graphviz version 12.2.1 (20241206.2353)
 -->
<!-- Title: SetActorMotionPacket Pages: 1 -->
<svg width="583pt" height="152pt"
 viewBox="0.00 0.00 582.60 152.00" xmlns="http://www.w3.org/2000/svg" xmlns:xlink="http://www.w3.org/1999/xlink">
<g id="graph0" class="graph" transform="scale(1 1) rotate(0) translate(4 148)">
<title>SetActorMotionPacket</title>
<polygon fill="white" stroke="none" points="-4,4 -4,-148 578.6,-148 578.6,4 -4,4"/>
<!-- 0 -->
<!-- name: &quot;SetActorMotionPacket&quot;, typeName: &quot;&quot;, id: 0, branchId: 40, recurseId: &#45;1, attributes: 0, notes: &quot;&quot; -->
<g id="node1" class="node">
<title>0</title>
<ellipse fill="none" stroke="black" cx="95.88" cy="-72" rx="95.88" ry="18"/>
<text text-anchor="middle" x="95.88" y="-66.95" font-family="Times New Roman,serif" font-size="14.00">SetActorMotionPacket</text>
</g>
<!-- 1 -->
<!-- name: &quot;Target Runtime ID&quot;, typeName: &quot;ActorRuntimeID&quot;, id: 1, branchId: 0, recurseId: &#45;1, attributes: 256, notes: &quot;&quot; -->
<g id="node2" class="node">
<title>1</title>
<ellipse fill="none" stroke="black" cx="309.31" cy="-126" rx="81.55" ry="18"/>
<text text-anchor="middle" x="309.31" y="-120.95" font-family="Times New Roman,serif" font-size="14.00">Target Runtime ID</text>
</g>
<!-- 0&#45;&gt;1 -->
<g id="edge1" class="edge">
<title>0&#45;&gt;1</title>
<path fill="none" stroke="black" d="M154.37,-86.68C181.9,-93.72 214.98,-102.16 243.41,-109.42"/>
<polygon fill="black" stroke="black" points="242.44,-112.79 252.99,-111.87 244.17,-106.01 242.44,-112.79"/>
</g>
<!-- 3 -->
<!-- name: &quot;Motion&quot;, typeName: &quot;Vec3&quot;, id: 3, branchId: 0, recurseId: &#45;1, attributes: 256, notes: &quot;&quot; -->
<g id="node4" class="node">
<title>3</title>
<ellipse fill="none" stroke="black" cx="309.31" cy="-72" rx="38.56" ry="18"/>
<text text-anchor="middle" x="309.31" y="-66.95" font-family="Times New Roman,serif" font-size="14.00">Motion</text>
</g>
<!-- 0&#45;&gt;3 -->
<g id="edge3" class="edge">
<title>0&#45;&gt;3</title>
<path fill="none" stroke="black" d="M192.08,-72C215.26,-72 239.12,-72 259.15,-72"/>
<polygon fill="black" stroke="black" points="258.94,-75.5 268.94,-72 258.94,-68.5 258.94,-75.5"/>
</g>
<!-- 5 -->
<!-- name: &quot;Tick&quot;, typeName: &quot;PlayerInputTick&quot;, id: 5, branchId: 0, recurseId: &#45;1, attributes: 256, notes: &quot;If this packet is referring to the player or a client predicted vehicle they are in control of, this should be the most recently processed PlayerInputTick from their PlayerAuthInputPacket. Otherwise zero.&quot; -->
<g id="node6" class="node">
<title>5</title>
<ellipse fill="none" stroke="black" cx="309.31" cy="-18" rx="27.81" ry="18"/>
<text text-anchor="middle" x="309.31" y="-12.95" font-family="Times New Roman,serif" font-size="14.00">Tick</text>
</g>
<!-- 0&#45;&gt;5 -->
<g id="edge5" class="edge">
<title>0&#45;&gt;5</title>
<path fill="none" stroke="black" d="M154.37,-57.32C192,-47.71 240,-35.45 272.32,-27.19"/>
<polygon fill="black" stroke="black" points="272.76,-30.69 281.58,-24.83 271.03,-23.91 272.76,-30.69"/>
</g>
<!-- 2 -->
<!-- name: &quot;ActorRuntimeID&quot;, typeName: &quot;&quot;, id: 2, branchId: 0, recurseId: &#45;1, attributes: 512, notes: &quot;&quot; -->
<g id="node3" class="node">
<title>2</title>
<ellipse fill="none" stroke="black" cx="500.72" cy="-126" rx="73.87" ry="18"/>
<text text-anchor="middle" x="500.72" y="-120.95" font-family="Times New Roman,serif" font-size="14.00">ActorRuntimeID</text>
</g>
<!-- 1&#45;&gt;2 -->
<g id="edge2" class="edge">
<title>1&#45;&gt;2</title>
<path fill="none" stroke="black" d="M391.19,-126C399.18,-126 407.31,-126 415.34,-126"/>
<polygon fill="black" stroke="black" points="415.09,-129.5 425.09,-126 415.09,-122.5 415.09,-129.5"/>
</g>
<!-- 4 -->
<!-- name: &quot;Vec3&quot;, typeName: &quot;&quot;, id: 4, branchId: 0, recurseId: &#45;1, attributes: 512, notes: &quot;&quot; -->
<g id="node5" class="node">
<title>4</title>
<ellipse fill="none" stroke="black" cx="500.72" cy="-72" rx="29.34" ry="18"/>
<text text-anchor="middle" x="500.72" y="-66.95" font-family="Times New Roman,serif" font-size="14.00">Vec3</text>
</g>
<!-- 3&#45;&gt;4 -->
<g id="edge4" class="edge">
<title>3&#45;&gt;4</title>
<path fill="none" stroke="black" d="M348.18,-72C380.39,-72 426.52,-72 459.41,-72"/>
<polygon fill="black" stroke="black" points="459.37,-75.5 469.37,-72 459.37,-68.5 459.37,-75.5"/>
</g>
<!-- 6 -->
<!-- name: &quot;PlayerInputTick&quot;, typeName: &quot;&quot;, id: 6, branchId: 0, recurseId: &#45;1, attributes: 512, notes: &quot;&quot; -->
<g id="node7" class="node">
<title>6</title>
<ellipse fill="none" stroke="black" cx="500.72" cy="-18" rx="70.8" ry="18"/>
<text text-anchor="middle" x="500.72" y="-12.95" font-family="Times New Roman,serif" font-size="14.00">PlayerInputTick</text>
</g>
<!-- 5&#45;&gt;6 -->
<g id="edge6" class="edge">
<title>5&#45;&gt;6</title>
<path fill="none" stroke="black" d="M337.44,-18C358.67,-18 389.34,-18 418.31,-18"/>
<polygon fill="black" stroke="black" points="418.22,-21.5 428.22,-18 418.22,-14.5 418.22,-21.5"/>
</g>
</g>
</svg>
