<?xml version="1.0" encoding="UTF-8" standalone="no"?>
<!DOCTYPE svg PUBLIC "-//W3C//DTD SVG 1.1//EN"
 "http://www.w3.org/Graphics/SVG/1.1/DTD/svg11.dtd">
<!-- Generated by graphviz version 2.46.1 (20210213.1702)
 -->
<!-- Title: SetActorDataPacket Pages: 1 -->
<svg width="1883pt" height="206pt"
 viewBox="0.00 0.00 1882.94 206.00" xmlns="http://www.w3.org/2000/svg" xmlns:xlink="http://www.w3.org/1999/xlink">
<g id="graph0" class="graph" transform="scale(1 1) rotate(0) translate(4 202)">
<title>SetActorDataPacket</title>
<polygon fill="white" stroke="transparent" points="-4,4 -4,-202 1878.94,-202 1878.94,4 -4,4"/>
<!-- 0 -->
<!-- name: &quot;SetActorDataPacket&quot;, typeName: &quot;&quot;, id: 0, branchId: 39, recurseId: &#45;1, attributes: 0, notes: &quot;&quot; -->
<g id="node1" class="node">
<title>0</title>
<ellipse fill="none" stroke="black" cx="84.49" cy="-99" rx="84.49" ry="18"/>
<text text-anchor="middle" x="84.49" y="-95.3" font-family="Times New Roman,serif" font-size="14.00">SetActorDataPacket</text>
</g>
<!-- 1 -->
<!-- name: &quot;Target Runtime ID&quot;, typeName: &quot;ActorRuntimeID&quot;, id: 1, branchId: 0, recurseId: &#45;1, attributes: 256, notes: &quot;&quot; -->
<g id="node2" class="node">
<title>1</title>
<ellipse fill="none" stroke="black" cx="286.88" cy="-180" rx="78.79" ry="18"/>
<text text-anchor="middle" x="286.88" y="-176.3" font-family="Times New Roman,serif" font-size="14.00">Target Runtime ID</text>
</g>
<!-- 0&#45;&gt;1 -->
<g id="edge1" class="edge">
<title>0&#45;&gt;1</title>
<path fill="none" stroke="black" d="M119.35,-115.42C143.06,-126.64 175.63,-141.5 204.99,-153 213.1,-156.18 221.76,-159.32 230.28,-162.28"/>
<polygon fill="black" stroke="black" points="229.22,-165.61 239.81,-165.53 231.48,-158.99 229.22,-165.61"/>
</g>
<!-- 3 -->
<!-- name: &quot;Actor Data&quot;, typeName: &quot;std::vector&lt;class std::unique_ptr&lt;class DataItem,struct std::default_delete&lt;class DataItem&gt; &gt;,class std::allocator&lt;class std::unique_ptr&lt;class DataItem,struct std::default_delete&lt;class DataItem&gt; &gt; &gt; &gt;&quot;, id: 3, branchId: 0, recurseId: &#45;1, attributes: 256, notes: &quot;&quot; -->
<g id="node4" class="node">
<title>3</title>
<ellipse fill="none" stroke="black" cx="286.88" cy="-126" rx="50.89" ry="18"/>
<text text-anchor="middle" x="286.88" y="-122.3" font-family="Times New Roman,serif" font-size="14.00">Actor Data</text>
</g>
<!-- 0&#45;&gt;3 -->
<g id="edge3" class="edge">
<title>0&#45;&gt;3</title>
<path fill="none" stroke="black" d="M156.42,-108.56C180.25,-111.77 206.49,-115.3 229.08,-118.35"/>
<polygon fill="black" stroke="black" points="228.8,-121.84 239.18,-119.71 229.74,-114.9 228.8,-121.84"/>
</g>
<!-- 5 -->
<!-- name: &quot;Synched Properties&quot;, typeName: &quot;PropertySyncData&quot;, id: 5, branchId: 0, recurseId: &#45;1, attributes: 256, notes: &quot;&quot; -->
<g id="node6" class="node">
<title>5</title>
<ellipse fill="none" stroke="black" cx="286.88" cy="-72" rx="81.79" ry="18"/>
<text text-anchor="middle" x="286.88" y="-68.3" font-family="Times New Roman,serif" font-size="14.00">Synched Properties</text>
</g>
<!-- 0&#45;&gt;5 -->
<g id="edge5" class="edge">
<title>0&#45;&gt;5</title>
<path fill="none" stroke="black" d="M156.42,-89.44C172.65,-87.26 189.99,-84.92 206.54,-82.69"/>
<polygon fill="black" stroke="black" points="207.28,-86.12 216.73,-81.32 206.35,-79.18 207.28,-86.12"/>
</g>
<!-- 7 -->
<!-- name: &quot;Tick&quot;, typeName: &quot;&quot;, id: 7, branchId: 0, recurseId: &#45;1, attributes: 0, notes: &quot;Which frame we&#39;re correcting; should match the tick in the Player Auth Input packet. (Can be 0 if not doing server auth movement.)&quot; -->
<g id="node8" class="node">
<title>7</title>
<ellipse fill="none" stroke="black" cx="286.88" cy="-18" rx="27.1" ry="18"/>
<text text-anchor="middle" x="286.88" y="-14.3" font-family="Times New Roman,serif" font-size="14.00">Tick</text>
</g>
<!-- 0&#45;&gt;7 -->
<g id="edge7" class="edge">
<title>0&#45;&gt;7</title>
<path fill="none" stroke="black" d="M119.35,-82.58C143.06,-71.36 175.63,-56.5 204.99,-45 220.22,-39.03 237.37,-33.19 251.95,-28.47"/>
<polygon fill="black" stroke="black" points="253.12,-31.77 261.58,-25.4 250.99,-25.1 253.12,-31.77"/>
</g>
<!-- 2 -->
<!-- name: &quot;ActorRuntimeID&quot;, typeName: &quot;&quot;, id: 2, branchId: 0, recurseId: &#45;1, attributes: 512, notes: &quot;&quot; -->
<g id="node3" class="node">
<title>2</title>
<ellipse fill="none" stroke="black" cx="1139.86" cy="-180" rx="71.49" ry="18"/>
<text text-anchor="middle" x="1139.86" y="-176.3" font-family="Times New Roman,serif" font-size="14.00">ActorRuntimeID</text>
</g>
<!-- 1&#45;&gt;2 -->
<g id="edge2" class="edge">
<title>1&#45;&gt;2</title>
<path fill="none" stroke="black" d="M365.65,-180C526.45,-180 894.09,-180 1057.72,-180"/>
<polygon fill="black" stroke="black" points="1058.2,-183.5 1068.2,-180 1058.2,-176.5 1058.2,-183.5"/>
</g>
<!-- 4 -->
<!-- name: &quot;std::vector&lt;class std::unique_ptr&lt;class DataItem,struct std::default_delete&lt;class DataItem&gt; &gt;,class std::allocator&lt;class std::unique_ptr&lt;class DataItem,struct std::default_delete&lt;class DataItem&gt; &gt; &gt; &gt;&quot;, typeName: &quot;&quot;, id: 4, branchId: 0, recurseId: &#45;1, attributes: 512, notes: &quot;&quot; -->
<g id="node5" class="node">
<title>4</title>
<ellipse fill="none" stroke="black" cx="1139.86" cy="-126" rx="735.17" ry="18"/>
<text text-anchor="middle" x="1139.86" y="-122.3" font-family="Times New Roman,serif" font-size="14.00">std::vector&lt;class std::unique_ptr&lt;class DataItem,struct std::default_delete&lt;class DataItem&gt; &gt;,class std::allocator&lt;class std::unique_ptr&lt;class DataItem,struct std::default_delete&lt;class DataItem&gt; &gt; &gt; &gt;</text>
</g>
<!-- 3&#45;&gt;4 -->
<g id="edge4" class="edge">
<title>3&#45;&gt;4</title>
<path fill="none" stroke="black" d="M337.62,-126C353.5,-126 372.7,-126 394.53,-126"/>
<polygon fill="black" stroke="black" points="394.74,-129.5 404.74,-126 394.74,-122.5 394.74,-129.5"/>
</g>
<!-- 6 -->
<!-- name: &quot;PropertySyncData&quot;, typeName: &quot;&quot;, id: 6, branchId: 0, recurseId: &#45;1, attributes: 512, notes: &quot;&quot; -->
<g id="node7" class="node">
<title>6</title>
<ellipse fill="none" stroke="black" cx="1139.86" cy="-72" rx="77.19" ry="18"/>
<text text-anchor="middle" x="1139.86" y="-68.3" font-family="Times New Roman,serif" font-size="14.00">PropertySyncData</text>
</g>
<!-- 5&#45;&gt;6 -->
<g id="edge6" class="edge">
<title>5&#45;&gt;6</title>
<path fill="none" stroke="black" d="M369.09,-72C529.82,-72 887.19,-72 1052.23,-72"/>
<polygon fill="black" stroke="black" points="1052.34,-75.5 1062.34,-72 1052.34,-68.5 1052.34,-75.5"/>
</g>
<!-- 8 -->
<!-- name: &quot;unsigned varint64&quot;, typeName: &quot;&quot;, id: 8, branchId: 0, recurseId: &#45;1, attributes: 512, notes: &quot;&quot; -->
<g id="node9" class="node">
<title>8</title>
<ellipse fill="none" stroke="black" cx="1139.86" cy="-18" rx="74.19" ry="18"/>
<text text-anchor="middle" x="1139.86" y="-14.3" font-family="Times New Roman,serif" font-size="14.00">unsigned varint64</text>
</g>
<!-- 7&#45;&gt;8 -->
<g id="edge8" class="edge">
<title>7&#45;&gt;8</title>
<path fill="none" stroke="black" d="M314.28,-18C426.81,-18 869.12,-18 1055.42,-18"/>
<polygon fill="black" stroke="black" points="1055.44,-21.5 1065.44,-18 1055.44,-14.5 1055.44,-21.5"/>
</g>
</g>
</svg>
