<?xml version="1.0" encoding="UTF-8" standalone="no"?>
<!DOCTYPE svg PUBLIC "-//W3C//DTD SVG 1.1//EN"
 "http://www.w3.org/Graphics/SVG/1.1/DTD/svg11.dtd">
<!-- Generated by graphviz version 9.0.0 (20230911.1827)
 -->
<!-- Title: SetCommandsEnabledPacket Pages: 1 -->
<svg width="548pt" height="44pt"
 viewBox="0.00 0.00 548.06 44.00" xmlns="http://www.w3.org/2000/svg" xmlns:xlink="http://www.w3.org/1999/xlink">
<g id="graph0" class="graph" transform="scale(1 1) rotate(0) translate(4 40)">
<title>SetCommandsEnabledPacket</title>
<polygon fill="white" stroke="none" points="-4,4 -4,-40 544.06,-40 544.06,4 -4,4"/>
<!-- 0 -->
<!-- name: &quot;SetCommandsEnabledPacket&quot;, typeName: &quot;&quot;, id: 0, branchId: 59, recurseId: &#45;1, attributes: 0, notes: &quot;&quot; -->
<g id="node1" class="node">
<title>0</title>
<ellipse fill="none" stroke="black" cx="120.42" cy="-18" rx="120.42" ry="18"/>
<text text-anchor="middle" x="120.42" y="-12.57" font-family="Times New Roman,serif" font-size="14.00">SetCommandsEnabledPacket</text>
</g>
<!-- 1 -->
<!-- name: &quot;Commands Enabled&quot;, typeName: &quot;&quot;, id: 1, branchId: 0, recurseId: &#45;1, attributes: 0, notes: &quot;&quot; -->
<g id="node2" class="node">
<title>1</title>
<ellipse fill="none" stroke="black" cx="362.84" cy="-18" rx="85.99" ry="18"/>
<text text-anchor="middle" x="362.84" y="-12.57" font-family="Times New Roman,serif" font-size="14.00">Commands Enabled</text>
</g>
<!-- 0&#45;&gt;1 -->
<g id="edge1" class="edge">
<title>0&#45;&gt;1</title>
<path fill="none" stroke="black" d="M241.28,-18C249.26,-18 257.25,-18 265.09,-18"/>
<polygon fill="black" stroke="black" points="264.96,-21.5 274.96,-18 264.96,-14.5 264.96,-21.5"/>
</g>
<!-- 2 -->
<!-- name: &quot;bool&quot;, typeName: &quot;&quot;, id: 2, branchId: 0, recurseId: &#45;1, attributes: 512, notes: &quot;&quot; -->
<g id="node3" class="node">
<title>2</title>
<ellipse fill="none" stroke="black" cx="512.45" cy="-18" rx="27.61" ry="18"/>
<text text-anchor="middle" x="512.45" y="-12.57" font-family="Times New Roman,serif" font-size="14.00">bool</text>
</g>
<!-- 1&#45;&gt;2 -->
<g id="edge2" class="edge">
<title>1&#45;&gt;2</title>
<path fill="none" stroke="black" d="M449.28,-18C457.55,-18 465.61,-18 473.05,-18"/>
<polygon fill="black" stroke="black" points="473.02,-21.5 483.02,-18 473.02,-14.5 473.02,-21.5"/>
</g>
</g>
</svg>
