<?xml version="1.0" encoding="UTF-8" standalone="no"?>
<!DOCTYPE svg PUBLIC "-//W3C//DTD SVG 1.1//EN"
 "http://www.w3.org/Graphics/SVG/1.1/DTD/svg11.dtd">
<!-- Generated by graphviz version 13.1.2 (20250808.2320)
 -->
<!-- Title: SetDisplayObjectivePacket Pages: 1 -->
<svg width="564pt" height="260pt"
 viewBox="0.00 0.00 564.00 260.00" xmlns="http://www.w3.org/2000/svg" xmlns:xlink="http://www.w3.org/1999/xlink">
<g id="graph0" class="graph" transform="scale(1 1) rotate(0) translate(4 256)">
<title>SetDisplayObjectivePacket</title>
<polygon fill="white" stroke="none" points="-4,4 -4,-256 560.17,-256 560.17,4 -4,4"/>
<!-- 0 -->
<!-- name: &quot;SetDisplayObjectivePacket&quot;, typeName: &quot;&quot;, id: 0, branchId: 0, recurseId: &#45;1, attributes: 0, notes: &quot;Sent from the server for 3rd party content to display current objectives and status&quot; -->
<g id="node1" class="node">
<title>0</title>
<ellipse fill="none" stroke="black" cx="111.74" cy="-126" rx="111.74" ry="18"/>
<text xml:space="preserve" text-anchor="middle" x="111.74" y="-120.95" font-family="Times New Roman,serif" font-size="14.00">SetDisplayObjectivePacket</text>
</g>
<!-- 1 -->
<!-- name: &quot;DisplaySlotName&quot;, typeName: &quot;&quot;, id: 1, branchId: 0, recurseId: &#45;1, attributes: 0, notes: &quot;&quot; -->
<g id="node2" class="node">
<title>1</title>
<ellipse fill="none" stroke="black" cx="357.42" cy="-234" rx="76.94" ry="18"/>
<text xml:space="preserve" text-anchor="middle" x="357.42" y="-228.95" font-family="Times New Roman,serif" font-size="14.00">DisplaySlotName</text>
</g>
<!-- 0&#45;&gt;1 -->
<g id="edge1" class="edge">
<title>0&#45;&gt;1</title>
<path fill="none" stroke="black" d="M140.45,-143.86C169.26,-161.81 216.12,-189.27 259.49,-207 269.45,-211.07 280.23,-214.75 290.86,-217.98"/>
<polygon fill="black" stroke="black" points="289.8,-221.32 300.38,-220.77 291.77,-214.6 289.8,-221.32"/>
</g>
<!-- 3 -->
<!-- name: &quot;ObjectiveName&quot;, typeName: &quot;&quot;, id: 3, branchId: 0, recurseId: &#45;1, attributes: 0, notes: &quot;&quot; -->
<g id="node4" class="node">
<title>3</title>
<ellipse fill="none" stroke="black" cx="357.42" cy="-180" rx="69.26" ry="18"/>
<text xml:space="preserve" text-anchor="middle" x="357.42" y="-174.95" font-family="Times New Roman,serif" font-size="14.00">ObjectiveName</text>
</g>
<!-- 0&#45;&gt;3 -->
<g id="edge3" class="edge">
<title>0&#45;&gt;3</title>
<path fill="none" stroke="black" d="M179.33,-140.76C214.68,-148.59 257.9,-158.17 292.79,-165.9"/>
<polygon fill="black" stroke="black" points="291.81,-169.27 302.33,-168.01 293.32,-162.43 291.81,-169.27"/>
</g>
<!-- 5 -->
<!-- name: &quot;ObjectiveDisplayName&quot;, typeName: &quot;&quot;, id: 5, branchId: 0, recurseId: &#45;1, attributes: 0, notes: &quot;&quot; -->
<g id="node6" class="node">
<title>5</title>
<ellipse fill="none" stroke="black" cx="357.42" cy="-126" rx="97.93" ry="18"/>
<text xml:space="preserve" text-anchor="middle" x="357.42" y="-120.95" font-family="Times New Roman,serif" font-size="14.00">ObjectiveDisplayName</text>
</g>
<!-- 0&#45;&gt;5 -->
<g id="edge5" class="edge">
<title>0&#45;&gt;5</title>
<path fill="none" stroke="black" d="M223.88,-126C231.9,-126 239.99,-126 247.99,-126"/>
<polygon fill="black" stroke="black" points="247.72,-129.5 257.72,-126 247.72,-122.5 247.72,-129.5"/>
</g>
<!-- 7 -->
<!-- name: &quot;CriteriaName&quot;, typeName: &quot;&quot;, id: 7, branchId: 0, recurseId: &#45;1, attributes: 0, notes: &quot;&quot; -->
<g id="node8" class="node">
<title>7</title>
<ellipse fill="none" stroke="black" cx="357.42" cy="-72" rx="61.59" ry="18"/>
<text xml:space="preserve" text-anchor="middle" x="357.42" y="-66.95" font-family="Times New Roman,serif" font-size="14.00">CriteriaName</text>
</g>
<!-- 0&#45;&gt;7 -->
<g id="edge7" class="edge">
<title>0&#45;&gt;7</title>
<path fill="none" stroke="black" d="M179.33,-111.24C215.82,-103.16 260.7,-93.21 296.15,-85.36"/>
<polygon fill="black" stroke="black" points="296.82,-88.79 305.83,-83.21 295.31,-81.96 296.82,-88.79"/>
</g>
<!-- 9 -->
<!-- name: &quot;SortOrder&quot;, typeName: &quot;&quot;, id: 9, branchId: 0, recurseId: &#45;1, attributes: 0, notes: &quot;&quot; -->
<g id="node10" class="node">
<title>9</title>
<ellipse fill="none" stroke="black" cx="357.42" cy="-18" rx="47.77" ry="18"/>
<text xml:space="preserve" text-anchor="middle" x="357.42" y="-12.95" font-family="Times New Roman,serif" font-size="14.00">SortOrder</text>
</g>
<!-- 0&#45;&gt;9 -->
<g id="edge9" class="edge">
<title>0&#45;&gt;9</title>
<path fill="none" stroke="black" d="M140.45,-108.14C169.26,-90.19 216.12,-62.73 259.49,-45 273.79,-39.15 289.78,-34.12 304.59,-30.05"/>
<polygon fill="black" stroke="black" points="305.4,-33.45 314.17,-27.5 303.6,-26.69 305.4,-33.45"/>
</g>
<!-- 2 -->
<!-- name: &quot;string&quot;, typeName: &quot;&quot;, id: 2, branchId: 0, recurseId: &#45;1, attributes: 512, notes: &quot;&quot; -->
<g id="node3" class="node">
<title>2</title>
<ellipse fill="none" stroke="black" cx="523.76" cy="-234" rx="31.9" ry="18"/>
<text xml:space="preserve" text-anchor="middle" x="523.76" y="-228.95" font-family="Times New Roman,serif" font-size="14.00">string</text>
</g>
<!-- 1&#45;&gt;2 -->
<g id="edge2" class="edge">
<title>1&#45;&gt;2</title>
<path fill="none" stroke="black" d="M434.81,-234C450.53,-234 466.53,-234 480.5,-234"/>
<polygon fill="black" stroke="black" points="480.19,-237.5 490.19,-234 480.19,-230.5 480.19,-237.5"/>
</g>
<!-- 4 -->
<!-- name: &quot;string&quot;, typeName: &quot;&quot;, id: 4, branchId: 0, recurseId: &#45;1, attributes: 512, notes: &quot;&quot; -->
<g id="node5" class="node">
<title>4</title>
<ellipse fill="none" stroke="black" cx="523.76" cy="-180" rx="31.9" ry="18"/>
<text xml:space="preserve" text-anchor="middle" x="523.76" y="-174.95" font-family="Times New Roman,serif" font-size="14.00">string</text>
</g>
<!-- 3&#45;&gt;4 -->
<g id="edge4" class="edge">
<title>3&#45;&gt;4</title>
<path fill="none" stroke="black" d="M427.16,-180C445.14,-180 463.99,-180 480.17,-180"/>
<polygon fill="black" stroke="black" points="479.9,-183.5 489.9,-180 479.9,-176.5 479.9,-183.5"/>
</g>
<!-- 6 -->
<!-- name: &quot;string&quot;, typeName: &quot;&quot;, id: 6, branchId: 0, recurseId: &#45;1, attributes: 512, notes: &quot;&quot; -->
<g id="node7" class="node">
<title>6</title>
<ellipse fill="none" stroke="black" cx="523.76" cy="-126" rx="31.9" ry="18"/>
<text xml:space="preserve" text-anchor="middle" x="523.76" y="-120.95" font-family="Times New Roman,serif" font-size="14.00">string</text>
</g>
<!-- 5&#45;&gt;6 -->
<g id="edge6" class="edge">
<title>5&#45;&gt;6</title>
<path fill="none" stroke="black" d="M455.44,-126C463.92,-126 472.18,-126 479.85,-126"/>
<polygon fill="black" stroke="black" points="479.84,-129.5 489.84,-126 479.84,-122.5 479.84,-129.5"/>
</g>
<!-- 8 -->
<!-- name: &quot;string&quot;, typeName: &quot;&quot;, id: 8, branchId: 0, recurseId: &#45;1, attributes: 512, notes: &quot;&quot; -->
<g id="node9" class="node">
<title>8</title>
<ellipse fill="none" stroke="black" cx="523.76" cy="-72" rx="31.9" ry="18"/>
<text xml:space="preserve" text-anchor="middle" x="523.76" y="-66.95" font-family="Times New Roman,serif" font-size="14.00">string</text>
</g>
<!-- 7&#45;&gt;8 -->
<g id="edge8" class="edge">
<title>7&#45;&gt;8</title>
<path fill="none" stroke="black" d="M419.14,-72C439.49,-72 461.72,-72 480.36,-72"/>
<polygon fill="black" stroke="black" points="480.23,-75.5 490.23,-72 480.23,-68.5 480.23,-75.5"/>
</g>
<!-- 10 -->
<!-- name: &quot;varint&quot;, typeName: &quot;&quot;, id: 10, branchId: 0, recurseId: &#45;1, attributes: 512, notes: &quot;&quot; -->
<g id="node11" class="node">
<title>10</title>
<ellipse fill="none" stroke="black" cx="523.76" cy="-18" rx="32.41" ry="18"/>
<text xml:space="preserve" text-anchor="middle" x="523.76" y="-12.95" font-family="Times New Roman,serif" font-size="14.00">varint</text>
</g>
<!-- 9&#45;&gt;10 -->
<g id="edge10" class="edge">
<title>9&#45;&gt;10</title>
<path fill="none" stroke="black" d="M405.51,-18C428.85,-18 456.84,-18 479.62,-18"/>
<polygon fill="black" stroke="black" points="479.49,-21.5 489.49,-18 479.49,-14.5 479.49,-21.5"/>
</g>
</g>
</svg>
