<?xml version="1.0" encoding="UTF-8" standalone="no"?>
<!DOCTYPE svg PUBLIC "-//W3C//DTD SVG 1.1//EN"
 "http://www.w3.org/Graphics/SVG/1.1/DTD/svg11.dtd">
<!-- Generated by graphviz version 10.0.1 (20240210.2158)
 -->
<!-- Title: SetHudPacket Pages: 1 -->
<svg width="822pt" height="152pt"
 viewBox="0.00 0.00 822.32 152.00" xmlns="http://www.w3.org/2000/svg" xmlns:xlink="http://www.w3.org/1999/xlink">
<g id="graph0" class="graph" transform="scale(1 1) rotate(0) translate(4 148)">
<title>SetHudPacket</title>
<polygon fill="white" stroke="none" points="-4,4 -4,-148 818.32,-148 818.32,4 -4,4"/>
<!-- 0 -->
<!-- name: &quot;SetHudPacket&quot;, typeName: &quot;&quot;, id: 0, branchId: 308, recurseId: &#45;1, attributes: 0, notes: &quot;&quot; -->
<g id="node1" class="node">
<title>0</title>
<ellipse fill="none" stroke="black" cx="63.54" cy="-45" rx="63.54" ry="18"/>
<text text-anchor="middle" x="63.54" y="-39.58" font-family="Times New Roman,serif" font-size="14.00">SetHudPacket</text>
</g>
<!-- 1 -->
<!-- name: &quot;Hud Element List&quot;, typeName: &quot;&quot;, id: 1, branchId: 0, recurseId: &#45;1, attributes: 8, notes: &quot;&quot; -->
<g id="node2" class="node">
<title>1</title>
<ellipse fill="none" stroke="black" cx="238.09" cy="-72" rx="75.02" ry="18"/>
<text text-anchor="middle" x="238.09" y="-66.58" font-family="Times New Roman,serif" font-size="14.00">Hud Element List</text>
</g>
<!-- 0&#45;&gt;1 -->
<g id="edge1" class="edge">
<title>0&#45;&gt;1</title>
<path fill="none" stroke="black" d="M119.61,-53.62C133.52,-55.79 148.68,-58.17 163.35,-60.46"/>
<polygon fill="black" stroke="black" points="162.53,-63.88 172.95,-61.96 163.61,-56.96 162.53,-63.88"/>
</g>
<!-- 7 -->
<!-- name: &quot;isHudVisible&quot;, typeName: &quot;&quot;, id: 7, branchId: 0, recurseId: &#45;1, attributes: 0, notes: &quot;&quot; -->
<g id="node8" class="node">
<title>7</title>
<ellipse fill="none" stroke="black" cx="586.7" cy="-18" rx="58.05" ry="18"/>
<text text-anchor="middle" x="586.7" y="-12.57" font-family="Times New Roman,serif" font-size="14.00">isHudVisible</text>
</g>
<!-- 0&#45;&gt;7 -->
<g id="edge7" class="edge">
<title>0&#45;&gt;7</title>
<path fill="none" stroke="black" d="M126.37,-41.8C224.64,-36.71 415.75,-26.8 517.73,-21.52"/>
<polygon fill="black" stroke="black" points="517.8,-25.02 527.61,-21.01 517.44,-18.03 517.8,-25.02"/>
</g>
<!-- 2 -->
<!-- name: &quot;Array Size&quot;, typeName: &quot;&quot;, id: 2, branchId: 0, recurseId: &#45;1, attributes: 0, notes: &quot;&quot; -->
<g id="node3" class="node">
<title>2</title>
<ellipse fill="none" stroke="black" cx="420.63" cy="-126" rx="49.57" ry="18"/>
<text text-anchor="middle" x="420.63" y="-120.58" font-family="Times New Roman,serif" font-size="14.00">Array Size</text>
</g>
<!-- 1&#45;&gt;2 -->
<g id="edge2" class="edge">
<title>1&#45;&gt;2</title>
<path fill="none" stroke="black" d="M286.53,-86.19C312.49,-93.95 344.6,-103.56 370.78,-111.39"/>
<polygon fill="black" stroke="black" points="369.57,-114.68 380.16,-114.19 371.58,-107.97 369.57,-114.68"/>
</g>
<!-- 4 -->
<!-- name: &quot;example element&quot;, typeName: &quot;&quot;, id: 4, branchId: 0, recurseId: &#45;1, attributes: 16, notes: &quot;&quot; -->
<g id="node5" class="node">
<title>4</title>
<ellipse fill="none" stroke="black" stroke-dasharray="1,5" cx="420.63" cy="-72" rx="71.52" ry="18"/>
<text text-anchor="middle" x="420.63" y="-66.58" font-family="Times New Roman,serif" font-size="14.00">example element</text>
</g>
<!-- 1&#45;&gt;4 -->
<g id="edge4" class="edge">
<title>1&#45;&gt;4</title>
<path fill="none" stroke="black" d="M313.57,-72C321.4,-72 329.39,-72 337.31,-72"/>
<polygon fill="black" stroke="black" points="337.3,-75.5 347.3,-72 337.3,-68.5 337.3,-75.5"/>
</g>
<!-- 3 -->
<!-- name: &quot;unsigned varint&quot;, typeName: &quot;&quot;, id: 3, branchId: 0, recurseId: &#45;1, attributes: 512, notes: &quot;&quot; -->
<g id="node4" class="node">
<title>3</title>
<ellipse fill="none" stroke="black" cx="747.78" cy="-126" rx="66.53" ry="18"/>
<text text-anchor="middle" x="747.78" y="-120.58" font-family="Times New Roman,serif" font-size="14.00">unsigned varint</text>
</g>
<!-- 2&#45;&gt;3 -->
<g id="edge3" class="edge">
<title>2&#45;&gt;3</title>
<path fill="none" stroke="black" d="M470.66,-126C523.44,-126 608.1,-126 669.78,-126"/>
<polygon fill="black" stroke="black" points="669.51,-129.5 679.51,-126 669.51,-122.5 669.51,-129.5"/>
</g>
<!-- 5 -->
<!-- name: &quot;Hud Element&quot;, typeName: &quot;&quot;, id: 5, branchId: 0, recurseId: &#45;1, attributes: 0, notes: &quot;&quot; -->
<g id="node6" class="node">
<title>5</title>
<ellipse fill="none" stroke="black" cx="586.7" cy="-72" rx="58.55" ry="18"/>
<text text-anchor="middle" x="586.7" y="-66.58" font-family="Times New Roman,serif" font-size="14.00">Hud Element</text>
</g>
<!-- 4&#45;&gt;5 -->
<g id="edge5" class="edge">
<title>4&#45;&gt;5</title>
<path fill="none" stroke="black" d="M492.64,-72C500.5,-72 508.49,-72 516.32,-72"/>
<polygon fill="black" stroke="black" points="516.14,-75.5 526.14,-72 516.14,-68.5 516.14,-75.5"/>
</g>
<!-- 6 -->
<!-- name: &quot;varint&quot;, typeName: &quot;&quot;, id: 6, branchId: 0, recurseId: &#45;1, attributes: 512, notes: &quot;&quot; -->
<g id="node7" class="node">
<title>6</title>
<ellipse fill="none" stroke="black" cx="747.78" cy="-72" rx="31.1" ry="18"/>
<text text-anchor="middle" x="747.78" y="-66.58" font-family="Times New Roman,serif" font-size="14.00">varint</text>
</g>
<!-- 5&#45;&gt;6 -->
<g id="edge6" class="edge">
<title>5&#45;&gt;6</title>
<path fill="none" stroke="black" d="M645.59,-72C665.26,-72 686.85,-72 705.02,-72"/>
<polygon fill="black" stroke="black" points="704.89,-75.5 714.89,-72 704.89,-68.5 704.89,-75.5"/>
</g>
<!-- 8 -->
<!-- name: &quot;varint&quot;, typeName: &quot;&quot;, id: 8, branchId: 0, recurseId: &#45;1, attributes: 512, notes: &quot;&quot; -->
<g id="node9" class="node">
<title>8</title>
<ellipse fill="none" stroke="black" cx="747.78" cy="-18" rx="31.1" ry="18"/>
<text text-anchor="middle" x="747.78" y="-12.57" font-family="Times New Roman,serif" font-size="14.00">varint</text>
</g>
<!-- 7&#45;&gt;8 -->
<g id="edge8" class="edge">
<title>7&#45;&gt;8</title>
<path fill="none" stroke="black" d="M645.14,-18C664.85,-18 686.53,-18 704.78,-18"/>
<polygon fill="black" stroke="black" points="704.72,-21.5 714.72,-18 704.72,-14.5 704.72,-21.5"/>
</g>
</g>
</svg>
