<?xml version="1.0" encoding="UTF-8" standalone="no"?>
<!DOCTYPE svg PUBLIC "-//W3C//DTD SVG 1.1//EN"
 "http://www.w3.org/Graphics/SVG/1.1/DTD/svg11.dtd">
<!-- Generated by graphviz version 13.1.2 (20250808.2320)
 -->
<!-- Title: SetHudPacket Pages: 1 -->
<svg width="682pt" height="152pt"
 viewBox="0.00 0.00 682.00 152.00" xmlns="http://www.w3.org/2000/svg" xmlns:xlink="http://www.w3.org/1999/xlink">
<g id="graph0" class="graph" transform="scale(1 1) rotate(0) translate(4 148)">
<title>SetHudPacket</title>
<polygon fill="white" stroke="none" points="-4,4 -4,-148 678.4,-148 678.4,4 -4,4"/>
<!-- 0 -->
<!-- name: &quot;SetHudPacket&quot;, typeName: &quot;&quot;, id: 0, branchId: 0, recurseId: &#45;1, attributes: 0, notes: &quot;This packet is only used via the set hud command. This is for 3rd party content.&quot; -->
<g id="node1" class="node">
<title>0</title>
<ellipse fill="none" stroke="black" cx="63.12" cy="-45" rx="63.12" ry="18"/>
<text xml:space="preserve" text-anchor="middle" x="63.12" y="-39.95" font-family="Times New Roman,serif" font-size="14.00">SetHudPacket</text>
</g>
<!-- 1 -->
<!-- name: &quot;Hud Element&quot;, typeName: &quot;&quot;, id: 1, branchId: 0, recurseId: &#45;1, attributes: 0, notes: &quot;&quot; -->
<g id="node2" class="node">
<title>1</title>
<ellipse fill="none" stroke="black" cx="222.81" cy="-72" rx="60.56" ry="18"/>
<text xml:space="preserve" text-anchor="middle" x="222.81" y="-66.95" font-family="Times New Roman,serif" font-size="14.00">Hud Element</text>
</g>
<!-- 0&#45;&gt;1 -->
<g id="edge1" class="edge">
<title>0&#45;&gt;1</title>
<path fill="none" stroke="black" d="M117.95,-54.22C130.98,-56.45 145.04,-58.85 158.46,-61.15"/>
<polygon fill="black" stroke="black" points="157.62,-64.56 168.07,-62.8 158.8,-57.66 157.62,-64.56"/>
</g>
<!-- 6 -->
<!-- name: &quot;Hud Visible&quot;, typeName: &quot;&quot;, id: 6, branchId: 0, recurseId: &#45;1, attributes: 0, notes: &quot;&quot; -->
<g id="node7" class="node">
<title>6</title>
<ellipse fill="none" stroke="black" cx="222.81" cy="-18" rx="54.93" ry="18"/>
<text xml:space="preserve" text-anchor="middle" x="222.81" y="-12.95" font-family="Times New Roman,serif" font-size="14.00">Hud Visible</text>
</g>
<!-- 0&#45;&gt;6 -->
<g id="edge6" class="edge">
<title>0&#45;&gt;6</title>
<path fill="none" stroke="black" d="M117.95,-35.78C132.31,-33.32 147.91,-30.65 162.54,-28.15"/>
<polygon fill="black" stroke="black" points="162.75,-31.66 172.02,-26.53 161.57,-24.76 162.75,-31.66"/>
</g>
<!-- 2 -->
<!-- name: &quot;List Size&quot;, typeName: &quot;&quot;, id: 2, branchId: 0, recurseId: &#45;1, attributes: 0, notes: &quot;&quot; -->
<g id="node3" class="node">
<title>2</title>
<ellipse fill="none" stroke="black" cx="394.27" cy="-126" rx="43.67" ry="18"/>
<text xml:space="preserve" text-anchor="middle" x="394.27" y="-120.95" font-family="Times New Roman,serif" font-size="14.00">List Size</text>
</g>
<!-- 1&#45;&gt;2 -->
<g id="edge2" class="edge">
<title>1&#45;&gt;2</title>
<path fill="none" stroke="black" d="M265.26,-85.21C290.27,-93.18 322.16,-103.34 347.85,-111.53"/>
<polygon fill="black" stroke="black" points="346.77,-114.86 357.36,-114.56 348.9,-108.19 346.77,-114.86"/>
</g>
<!-- 4 -->
<!-- name: &quot;example element&quot;, typeName: &quot;&quot;, id: 4, branchId: 0, recurseId: &#45;1, attributes: 16, notes: &quot;&quot; -->
<g id="node5" class="node">
<title>4</title>
<ellipse fill="none" stroke="black" stroke-dasharray="1,5" cx="394.27" cy="-72" rx="74.89" ry="18"/>
<text xml:space="preserve" text-anchor="middle" x="394.27" y="-66.95" font-family="Times New Roman,serif" font-size="14.00">example element</text>
</g>
<!-- 1&#45;&gt;4 -->
<g id="edge4" class="edge">
<title>1&#45;&gt;4</title>
<path fill="none" stroke="black" d="M283.55,-72C291.33,-72 299.41,-72 307.5,-72"/>
<polygon fill="black" stroke="black" points="307.4,-75.5 317.4,-72 307.4,-68.5 307.4,-75.5"/>
</g>
<!-- 3 -->
<!-- name: &quot;unsigned varint&quot;, typeName: &quot;&quot;, id: 3, branchId: 0, recurseId: &#45;1, attributes: 0, notes: &quot;&quot; -->
<g id="node4" class="node">
<title>3</title>
<ellipse fill="none" stroke="black" cx="589.78" cy="-126" rx="68.24" ry="18"/>
<text xml:space="preserve" text-anchor="middle" x="589.78" y="-120.95" font-family="Times New Roman,serif" font-size="14.00">unsigned varint</text>
</g>
<!-- 2&#45;&gt;3 -->
<g id="edge3" class="edge">
<title>2&#45;&gt;3</title>
<path fill="none" stroke="black" d="M438.22,-126C459.27,-126 485.3,-126 509.77,-126"/>
<polygon fill="black" stroke="black" points="509.74,-129.5 519.74,-126 509.74,-122.5 509.74,-129.5"/>
</g>
<!-- 5 -->
<!-- name: &quot;enum HudElement&quot;, typeName: &quot;&quot;, id: 5, branchId: 0, recurseId: &#45;1, attributes: 512, notes: &quot;&quot; -->
<g id="node6" class="node">
<title>5</title>
<ellipse fill="none" stroke="black" cx="589.78" cy="-72" rx="81.55" ry="18"/>
<text xml:space="preserve" text-anchor="middle" x="589.78" y="-66.95" font-family="Times New Roman,serif" font-size="14.00">enum HudElement</text>
</g>
<!-- 4&#45;&gt;5 -->
<g id="edge5" class="edge">
<title>4&#45;&gt;5</title>
<path fill="none" stroke="black" d="M469.53,-72C478.38,-72 487.48,-72 496.54,-72"/>
<polygon fill="black" stroke="black" points="496.45,-75.5 506.45,-72 496.45,-68.5 496.45,-75.5"/>
</g>
<!-- 7 -->
<!-- name: &quot;enum HudVisibility&quot;, typeName: &quot;&quot;, id: 7, branchId: 0, recurseId: &#45;1, attributes: 512, notes: &quot;&quot; -->
<g id="node8" class="node">
<title>7</title>
<ellipse fill="none" stroke="black" cx="589.78" cy="-18" rx="84.62" ry="18"/>
<text xml:space="preserve" text-anchor="middle" x="589.78" y="-12.95" font-family="Times New Roman,serif" font-size="14.00">enum HudVisibility</text>
</g>
<!-- 6&#45;&gt;7 -->
<g id="edge7" class="edge">
<title>6&#45;&gt;7</title>
<path fill="none" stroke="black" d="M278.06,-18C334.77,-18 424.9,-18 493.51,-18"/>
<polygon fill="black" stroke="black" points="493.25,-21.5 503.25,-18 493.25,-14.5 493.25,-21.5"/>
</g>
</g>
</svg>
