<?xml version="1.0" encoding="UTF-8" standalone="no"?>
<!DOCTYPE svg PUBLIC "-//W3C//DTD SVG 1.1//EN"
 "http://www.w3.org/Graphics/SVG/1.1/DTD/svg11.dtd">
<!-- Generated by graphviz version 10.0.1 (20240210.2158)
 -->
<!-- Title: SetLastHurtByPacket Pages: 1 -->
<svg width="440pt" height="44pt"
 viewBox="0.00 0.00 440.27 44.00" xmlns="http://www.w3.org/2000/svg" xmlns:xlink="http://www.w3.org/1999/xlink">
<g id="graph0" class="graph" transform="scale(1 1) rotate(0) translate(4 40)">
<title>SetLastHurtByPacket</title>
<polygon fill="white" stroke="none" points="-4,4 -4,-40 436.27,-40 436.27,4 -4,4"/>
<!-- 0 -->
<!-- name: &quot;SetLastHurtByPacket&quot;, typeName: &quot;&quot;, id: 0, branchId: 96, recurseId: &#45;1, attributes: 0, notes: &quot;&quot; -->
<g id="node1" class="node">
<title>0</title>
<ellipse fill="none" stroke="black" cx="90.48" cy="-18" rx="90.48" ry="18"/>
<text text-anchor="middle" x="90.48" y="-12.57" font-family="Times New Roman,serif" font-size="14.00">SetLastHurtByPacket</text>
</g>
<!-- 1 -->
<!-- name: &quot;Last Hurt By&quot;, typeName: &quot;&quot;, id: 1, branchId: 0, recurseId: &#45;1, attributes: 0, notes: &quot;&quot; -->
<g id="node2" class="node">
<title>1</title>
<ellipse fill="none" stroke="black" cx="275.52" cy="-18" rx="58.55" ry="18"/>
<text text-anchor="middle" x="275.52" y="-12.57" font-family="Times New Roman,serif" font-size="14.00">Last Hurt By</text>
</g>
<!-- 0&#45;&gt;1 -->
<g id="edge1" class="edge">
<title>0&#45;&gt;1</title>
<path fill="none" stroke="black" d="M181.39,-18C189.41,-18 197.44,-18 205.25,-18"/>
<polygon fill="black" stroke="black" points="204.98,-21.5 214.98,-18 204.98,-14.5 204.98,-21.5"/>
</g>
<!-- 2 -->
<!-- name: &quot;varint&quot;, typeName: &quot;&quot;, id: 2, branchId: 0, recurseId: &#45;1, attributes: 512, notes: &quot;&quot; -->
<g id="node3" class="node">
<title>2</title>
<ellipse fill="none" stroke="black" cx="401.17" cy="-18" rx="31.1" ry="18"/>
<text text-anchor="middle" x="401.17" y="-12.57" font-family="Times New Roman,serif" font-size="14.00">varint</text>
</g>
<!-- 1&#45;&gt;2 -->
<g id="edge2" class="edge">
<title>1&#45;&gt;2</title>
<path fill="none" stroke="black" d="M334.36,-18C342.46,-18 350.65,-18 358.37,-18"/>
<polygon fill="black" stroke="black" points="358.14,-21.5 368.14,-18 358.14,-14.5 358.14,-21.5"/>
</g>
</g>
</svg>
