<?xml version="1.0" encoding="UTF-8" standalone="no"?>
<!DOCTYPE svg PUBLIC "-//W3C//DTD SVG 1.1//EN"
 "http://www.w3.org/Graphics/SVG/1.1/DTD/svg11.dtd">
<!-- Generated by graphviz version 11.0.0 (20240428.1522)
 -->
<!-- Title: SetMovementAuthorityPacket Pages: 1 -->
<svg width="592pt" height="44pt"
 viewBox="0.00 0.00 591.75 44.00" xmlns="http://www.w3.org/2000/svg" xmlns:xlink="http://www.w3.org/1999/xlink">
<g id="graph0" class="graph" transform="scale(1 1) rotate(0) translate(4 40)">
<title>SetMovementAuthorityPacket</title>
<polygon fill="white" stroke="none" points="-4,4 -4,-40 587.75,-40 587.75,4 -4,4"/>
<!-- 0 -->
<!-- name: &quot;SetMovementAuthorityPacket&quot;, typeName: &quot;&quot;, id: 0, branchId: 319, recurseId: &#45;1, attributes: 0, notes: &quot;&quot; -->
<g id="node1" class="node">
<title>0</title>
<ellipse fill="none" stroke="black" cx="121.92" cy="-18" rx="121.92" ry="18"/>
<text text-anchor="middle" x="121.92" y="-12.57" font-family="Times New Roman,serif" font-size="14.00">SetMovementAuthorityPacket</text>
</g>
<!-- 1 -->
<!-- name: &quot;NewAuthMovementMode&quot;, typeName: &quot;&quot;, id: 1, branchId: 0, recurseId: &#45;1, attributes: 0, notes: &quot;&quot; -->
<g id="node2" class="node">
<title>1</title>
<ellipse fill="none" stroke="black" cx="386.79" cy="-18" rx="106.95" ry="18"/>
<text text-anchor="middle" x="386.79" y="-12.57" font-family="Times New Roman,serif" font-size="14.00">NewAuthMovementMode</text>
</g>
<!-- 0&#45;&gt;1 -->
<g id="edge1" class="edge">
<title>0&#45;&gt;1</title>
<path fill="none" stroke="black" d="M243.97,-18C252.03,-18 260.14,-18 268.18,-18"/>
<polygon fill="black" stroke="black" points="267.98,-21.5 277.98,-18 267.98,-14.5 267.98,-21.5"/>
</g>
<!-- 2 -->
<!-- name: &quot;byte&quot;, typeName: &quot;&quot;, id: 2, branchId: 0, recurseId: &#45;1, attributes: 512, notes: &quot;&quot; -->
<g id="node3" class="node">
<title>2</title>
<ellipse fill="none" stroke="black" cx="556.75" cy="-18" rx="27" ry="18"/>
<text text-anchor="middle" x="556.75" y="-12.57" font-family="Times New Roman,serif" font-size="14.00">byte</text>
</g>
<!-- 1&#45;&gt;2 -->
<g id="edge2" class="edge">
<title>1&#45;&gt;2</title>
<path fill="none" stroke="black" d="M494.16,-18C502.6,-18 510.72,-18 518.13,-18"/>
<polygon fill="black" stroke="black" points="518,-21.5 528,-18 518,-14.5 518,-21.5"/>
</g>
</g>
</svg>
