<?xml version="1.0" encoding="UTF-8" standalone="no"?>
<!DOCTYPE svg PUBLIC "-//W3C//DTD SVG 1.1//EN"
 "http://www.w3.org/Graphics/SVG/1.1/DTD/svg11.dtd">
<!-- Generated by graphviz version 13.1.2 (20250808.2320)
 -->
<!-- Title: SetPlayerInventoryOptionsPacket Pages: 1 -->
<svg width="967pt" height="260pt"
 viewBox="0.00 0.00 967.00 260.00" xmlns="http://www.w3.org/2000/svg" xmlns:xlink="http://www.w3.org/1999/xlink">
<g id="graph0" class="graph" transform="scale(1 1) rotate(0) translate(4 256)">
<title>SetPlayerInventoryOptionsPacket</title>
<polygon fill="white" stroke="none" points="-4,4 -4,-256 962.97,-256 962.97,4 -4,4"/>
<!-- 0 -->
<!-- name: &quot;SetPlayerInventoryOptionsPacket&quot;, typeName: &quot;&quot;, id: 0, branchId: 0, recurseId: &#45;1, attributes: 0, notes: &quot;SetPlayerInventoryOptionsPacket&quot; -->
<g id="node1" class="node">
<title>0</title>
<ellipse fill="none" stroke="black" cx="135.8" cy="-126" rx="135.8" ry="18"/>
<text xml:space="preserve" text-anchor="middle" x="135.8" y="-120.95" font-family="Times New Roman,serif" font-size="14.00">SetPlayerInventoryOptionsPacket</text>
</g>
<!-- 1 -->
<!-- name: &quot;Inventory Options&quot;, typeName: &quot;&quot;, id: 1, branchId: 0, recurseId: &#45;1, attributes: 0, notes: &quot;&quot; -->
<g id="node2" class="node">
<title>1</title>
<ellipse fill="none" stroke="black" cx="386.08" cy="-126" rx="78.48" ry="18"/>
<text xml:space="preserve" text-anchor="middle" x="386.08" y="-120.95" font-family="Times New Roman,serif" font-size="14.00">Inventory Options</text>
</g>
<!-- 0&#45;&gt;1 -->
<g id="edge1" class="edge">
<title>0&#45;&gt;1</title>
<path fill="none" stroke="black" d="M271.84,-126C279.94,-126 287.97,-126 295.81,-126"/>
<polygon fill="black" stroke="black" points="295.62,-129.5 305.62,-126 295.62,-122.5 295.62,-129.5"/>
</g>
<!-- 2 -->
<!-- name: &quot;Left Inventory Tab&quot;, typeName: &quot;&quot;, id: 2, branchId: 0, recurseId: &#45;1, attributes: 0, notes: &quot;&quot; -->
<g id="node3" class="node">
<title>2</title>
<ellipse fill="none" stroke="black" cx="586.2" cy="-234" rx="80.52" ry="18"/>
<text xml:space="preserve" text-anchor="middle" x="586.2" y="-228.95" font-family="Times New Roman,serif" font-size="14.00">Left Inventory Tab</text>
</g>
<!-- 1&#45;&gt;2 -->
<g id="edge2" class="edge">
<title>1&#45;&gt;2</title>
<path fill="none" stroke="black" d="M407.56,-143.64C429.36,-161.67 465.49,-189.44 500.55,-207 507.49,-210.47 514.97,-213.63 522.51,-216.45"/>
<polygon fill="black" stroke="black" points="521.14,-219.67 531.73,-219.71 523.47,-213.07 521.14,-219.67"/>
</g>
<!-- 4 -->
<!-- name: &quot;Right Inventory Tab&quot;, typeName: &quot;&quot;, id: 4, branchId: 0, recurseId: &#45;1, attributes: 0, notes: &quot;&quot; -->
<g id="node5" class="node">
<title>4</title>
<ellipse fill="none" stroke="black" cx="586.2" cy="-180" rx="85.64" ry="18"/>
<text xml:space="preserve" text-anchor="middle" x="586.2" y="-174.95" font-family="Times New Roman,serif" font-size="14.00">Right Inventory Tab</text>
</g>
<!-- 1&#45;&gt;4 -->
<g id="edge4" class="edge">
<title>1&#45;&gt;4</title>
<path fill="none" stroke="black" d="M438.1,-139.91C463.49,-146.83 494.44,-155.26 521.39,-162.61"/>
<polygon fill="black" stroke="black" points="520.25,-165.92 530.81,-165.18 522.09,-159.17 520.25,-165.92"/>
</g>
<!-- 6 -->
<!-- name: &quot;Filtering&quot;, typeName: &quot;&quot;, id: 6, branchId: 0, recurseId: &#45;1, attributes: 0, notes: &quot;&quot; -->
<g id="node7" class="node">
<title>6</title>
<ellipse fill="none" stroke="black" cx="586.2" cy="-126" rx="42.65" ry="18"/>
<text xml:space="preserve" text-anchor="middle" x="586.2" y="-120.95" font-family="Times New Roman,serif" font-size="14.00">Filtering</text>
</g>
<!-- 1&#45;&gt;6 -->
<g id="edge6" class="edge">
<title>1&#45;&gt;6</title>
<path fill="none" stroke="black" d="M464.81,-126C487.21,-126 511.13,-126 531.7,-126"/>
<polygon fill="black" stroke="black" points="531.56,-129.5 541.56,-126 531.56,-122.5 531.56,-129.5"/>
</g>
<!-- 8 -->
<!-- name: &quot;Layout Inv&quot;, typeName: &quot;&quot;, id: 8, branchId: 0, recurseId: &#45;1, attributes: 0, notes: &quot;&quot; -->
<g id="node9" class="node">
<title>8</title>
<ellipse fill="none" stroke="black" cx="586.2" cy="-72" rx="51.86" ry="18"/>
<text xml:space="preserve" text-anchor="middle" x="586.2" y="-66.95" font-family="Times New Roman,serif" font-size="14.00">Layout Inv</text>
</g>
<!-- 1&#45;&gt;8 -->
<g id="edge8" class="edge">
<title>1&#45;&gt;8</title>
<path fill="none" stroke="black" d="M438.1,-112.09C467.48,-104.09 504.3,-94.05 533.75,-86.02"/>
<polygon fill="black" stroke="black" points="534.46,-89.46 543.19,-83.45 532.62,-82.7 534.46,-89.46"/>
</g>
<!-- 10 -->
<!-- name: &quot;Layout Craft&quot;, typeName: &quot;&quot;, id: 10, branchId: 0, recurseId: &#45;1, attributes: 0, notes: &quot;&quot; -->
<g id="node11" class="node">
<title>10</title>
<ellipse fill="none" stroke="black" cx="586.2" cy="-18" rx="58.52" ry="18"/>
<text xml:space="preserve" text-anchor="middle" x="586.2" y="-12.95" font-family="Times New Roman,serif" font-size="14.00">Layout Craft</text>
</g>
<!-- 1&#45;&gt;10 -->
<g id="edge10" class="edge">
<title>1&#45;&gt;10</title>
<path fill="none" stroke="black" d="M407.56,-108.36C429.36,-90.33 465.49,-62.56 500.55,-45 509.67,-40.43 519.72,-36.43 529.61,-32.99"/>
<polygon fill="black" stroke="black" points="530.4,-36.42 538.8,-29.97 528.21,-29.77 530.4,-36.42"/>
</g>
<!-- 3 -->
<!-- name: &quot;enum InventoryLeftTabIndex&quot;, typeName: &quot;&quot;, id: 3, branchId: 0, recurseId: &#45;1, attributes: 512, notes: &quot;&quot; -->
<g id="node4" class="node">
<title>3</title>
<ellipse fill="none" stroke="black" cx="833.4" cy="-234" rx="120.45" ry="18"/>
<text xml:space="preserve" text-anchor="middle" x="833.4" y="-228.95" font-family="Times New Roman,serif" font-size="14.00">enum InventoryLeftTabIndex</text>
</g>
<!-- 2&#45;&gt;3 -->
<g id="edge3" class="edge">
<title>2&#45;&gt;3</title>
<path fill="none" stroke="black" d="M667.15,-234C678.16,-234 689.7,-234 701.34,-234"/>
<polygon fill="black" stroke="black" points="701.01,-237.5 711.01,-234 701.01,-230.5 701.01,-237.5"/>
</g>
<!-- 5 -->
<!-- name: &quot;enum InventoryRightTabIndex&quot;, typeName: &quot;&quot;, id: 5, branchId: 0, recurseId: &#45;1, attributes: 512, notes: &quot;&quot; -->
<g id="node6" class="node">
<title>5</title>
<ellipse fill="none" stroke="black" cx="833.4" cy="-180" rx="125.56" ry="18"/>
<text xml:space="preserve" text-anchor="middle" x="833.4" y="-174.95" font-family="Times New Roman,serif" font-size="14.00">enum InventoryRightTabIndex</text>
</g>
<!-- 4&#45;&gt;5 -->
<g id="edge5" class="edge">
<title>4&#45;&gt;5</title>
<path fill="none" stroke="black" d="M672.27,-180C680.07,-180 688.1,-180 696.21,-180"/>
<polygon fill="black" stroke="black" points="696.2,-183.5 706.2,-180 696.2,-176.5 696.2,-183.5"/>
</g>
<!-- 7 -->
<!-- name: &quot;bool&quot;, typeName: &quot;&quot;, id: 7, branchId: 0, recurseId: &#45;1, attributes: 512, notes: &quot;&quot; -->
<g id="node8" class="node">
<title>7</title>
<ellipse fill="none" stroke="black" cx="833.4" cy="-126" rx="27.3" ry="18"/>
<text xml:space="preserve" text-anchor="middle" x="833.4" y="-120.95" font-family="Times New Roman,serif" font-size="14.00">bool</text>
</g>
<!-- 6&#45;&gt;7 -->
<g id="edge7" class="edge">
<title>6&#45;&gt;7</title>
<path fill="none" stroke="black" d="M629.07,-126C675.53,-126 749.83,-126 794.59,-126"/>
<polygon fill="black" stroke="black" points="794.32,-129.5 804.32,-126 794.32,-122.5 794.32,-129.5"/>
</g>
<!-- 9 -->
<!-- name: &quot;enum InventoryLayout&quot;, typeName: &quot;&quot;, id: 9, branchId: 0, recurseId: &#45;1, attributes: 512, notes: &quot;&quot; -->
<g id="node10" class="node">
<title>9</title>
<ellipse fill="none" stroke="black" cx="833.4" cy="-72" rx="96.39" ry="18"/>
<text xml:space="preserve" text-anchor="middle" x="833.4" y="-66.95" font-family="Times New Roman,serif" font-size="14.00">enum InventoryLayout</text>
</g>
<!-- 8&#45;&gt;9 -->
<g id="edge9" class="edge">
<title>8&#45;&gt;9</title>
<path fill="none" stroke="black" d="M638.3,-72C663.57,-72 695.06,-72 725.27,-72"/>
<polygon fill="black" stroke="black" points="725.26,-75.5 735.26,-72 725.26,-68.5 725.26,-75.5"/>
</g>
<!-- 11 -->
<!-- name: &quot;enum InventoryLayout&quot;, typeName: &quot;&quot;, id: 11, branchId: 0, recurseId: &#45;1, attributes: 512, notes: &quot;&quot; -->
<g id="node12" class="node">
<title>11</title>
<ellipse fill="none" stroke="black" cx="833.4" cy="-18" rx="96.39" ry="18"/>
<text xml:space="preserve" text-anchor="middle" x="833.4" y="-12.95" font-family="Times New Roman,serif" font-size="14.00">enum InventoryLayout</text>
</g>
<!-- 10&#45;&gt;11 -->
<g id="edge11" class="edge">
<title>10&#45;&gt;11</title>
<path fill="none" stroke="black" d="M645,-18C669.01,-18 697.69,-18 725.3,-18"/>
<polygon fill="black" stroke="black" points="725.12,-21.5 735.12,-18 725.12,-14.5 725.12,-21.5"/>
</g>
</g>
</svg>
