<?xml version="1.0" encoding="UTF-8" standalone="no"?>
<!DOCTYPE svg PUBLIC "-//W3C//DTD SVG 1.1//EN"
 "http://www.w3.org/Graphics/SVG/1.1/DTD/svg11.dtd">
<!-- Generated by graphviz version 12.2.1 (20241206.2353)
 -->
<!-- Title: SetPlayerGameTypePacket Pages: 1 -->
<svg width="528pt" height="44pt"
 viewBox="0.00 0.00 528.34 44.00" xmlns="http://www.w3.org/2000/svg" xmlns:xlink="http://www.w3.org/1999/xlink">
<g id="graph0" class="graph" transform="scale(1 1) rotate(0) translate(4 40)">
<title>SetPlayerGameTypePacket</title>
<polygon fill="white" stroke="none" points="-4,4 -4,-40 524.34,-40 524.34,4 -4,4"/>
<!-- 0 -->
<!-- name: &quot;SetPlayerGameTypePacket&quot;, typeName: &quot;&quot;, id: 0, branchId: 62, recurseId: &#45;1, attributes: 0, notes: &quot;&quot; -->
<g id="node1" class="node">
<title>0</title>
<ellipse fill="none" stroke="black" cx="111.74" cy="-18" rx="111.74" ry="18"/>
<text text-anchor="middle" x="111.74" y="-12.95" font-family="Times New Roman,serif" font-size="14.00">SetPlayerGameTypePacket</text>
</g>
<!-- 1 -->
<!-- name: &quot;Player Game Type&quot;, typeName: &quot;&quot;, id: 1, branchId: 0, recurseId: &#45;1, attributes: 0, notes: &quot;&quot; -->
<g id="node2" class="node">
<title>1</title>
<ellipse fill="none" stroke="black" cx="339.5" cy="-18" rx="80.01" ry="18"/>
<text text-anchor="middle" x="339.5" y="-12.95" font-family="Times New Roman,serif" font-size="14.00">Player Game Type</text>
</g>
<!-- 0&#45;&gt;1 -->
<g id="edge1" class="edge">
<title>0&#45;&gt;1</title>
<path fill="none" stroke="black" d="M223.97,-18C231.97,-18 239.98,-18 247.85,-18"/>
<polygon fill="black" stroke="black" points="247.73,-21.5 257.73,-18 247.73,-14.5 247.73,-21.5"/>
</g>
<!-- 2 -->
<!-- name: &quot;varint&quot;, typeName: &quot;&quot;, id: 2, branchId: 0, recurseId: &#45;1, attributes: 512, notes: &quot;&quot; -->
<g id="node3" class="node">
<title>2</title>
<ellipse fill="none" stroke="black" cx="487.93" cy="-18" rx="32.41" ry="18"/>
<text text-anchor="middle" x="487.93" y="-12.95" font-family="Times New Roman,serif" font-size="14.00">varint</text>
</g>
<!-- 1&#45;&gt;2 -->
<g id="edge2" class="edge">
<title>1&#45;&gt;2</title>
<path fill="none" stroke="black" d="M419.72,-18C427.94,-18 436.06,-18 443.67,-18"/>
<polygon fill="black" stroke="black" points="443.61,-21.5 453.61,-18 443.61,-14.5 443.61,-21.5"/>
</g>
</g>
</svg>
