<?xml version="1.0" encoding="UTF-8" standalone="no"?>
<!DOCTYPE svg PUBLIC "-//W3C//DTD SVG 1.1//EN"
 "http://www.w3.org/Graphics/SVG/1.1/DTD/svg11.dtd">
<!-- Generated by graphviz version 10.0.1 (20240210.2158)
 -->
<!-- Title: SetScorePacket Pages: 1 -->
<svg width="1645pt" height="530pt"
 viewBox="0.00 0.00 1645.02 530.00" xmlns="http://www.w3.org/2000/svg" xmlns:xlink="http://www.w3.org/1999/xlink">
<g id="graph0" class="graph" transform="scale(1 1) rotate(0) translate(4 526)">
<title>SetScorePacket</title>
<polygon fill="white" stroke="none" points="-4,4 -4,-526 1641.02,-526 1641.02,4 -4,4"/>
<!-- 0 -->
<!-- name: &quot;SetScorePacket&quot;, typeName: &quot;&quot;, id: 0, branchId: 108, recurseId: &#45;1, attributes: 0, notes: &quot;&quot; -->
<g id="node1" class="node">
<title>0</title>
<ellipse fill="none" stroke="black" cx="69.53" cy="-477" rx="69.53" ry="18"/>
<text text-anchor="middle" x="69.53" y="-471.57" font-family="Times New Roman,serif" font-size="14.00">SetScorePacket</text>
</g>
<!-- 1 -->
<!-- name: &quot;Score Packet Type&quot;, typeName: &quot;&quot;, id: 1, branchId: 0, recurseId: &#45;1, attributes: 0, notes: &quot;&quot; -->
<g id="node2" class="node">
<title>1</title>
<ellipse fill="none" stroke="black" cx="257.06" cy="-504" rx="82" ry="18"/>
<text text-anchor="middle" x="257.06" y="-498.57" font-family="Times New Roman,serif" font-size="14.00">Score Packet Type</text>
</g>
<!-- 0&#45;&gt;1 -->
<g id="edge1" class="edge">
<title>0&#45;&gt;1</title>
<path fill="none" stroke="black" d="M131.02,-485.8C145.57,-487.92 161.33,-490.21 176.6,-492.44"/>
<polygon fill="black" stroke="black" points="175.71,-495.84 186.11,-493.82 176.72,-488.92 175.71,-495.84"/>
</g>
<!-- 3 -->
<!-- name: &quot;Score Packet Info&quot;, typeName: &quot;&quot;, id: 3, branchId: 0, recurseId: &#45;1, attributes: 8, notes: &quot;&quot; -->
<g id="node4" class="node">
<title>3</title>
<ellipse fill="none" stroke="black" cx="257.06" cy="-450" rx="78.01" ry="18"/>
<text text-anchor="middle" x="257.06" y="-444.57" font-family="Times New Roman,serif" font-size="14.00">Score Packet Info</text>
</g>
<!-- 0&#45;&gt;3 -->
<g id="edge3" class="edge">
<title>0&#45;&gt;3</title>
<path fill="none" stroke="black" d="M131.02,-468.2C146.4,-465.96 163.13,-463.52 179.2,-461.18"/>
<polygon fill="black" stroke="black" points="179.31,-464.71 188.7,-459.8 178.3,-457.78 179.31,-464.71"/>
</g>
<!-- 2 -->
<!-- name: &quot;byte&quot;, typeName: &quot;&quot;, id: 2, branchId: 0, recurseId: &#45;1, attributes: 512, notes: &quot;&quot; -->
<g id="node3" class="node">
<title>2</title>
<ellipse fill="none" stroke="black" cx="1568.99" cy="-504" rx="27" ry="18"/>
<text text-anchor="middle" x="1568.99" y="-498.57" font-family="Times New Roman,serif" font-size="14.00">byte</text>
</g>
<!-- 1&#45;&gt;2 -->
<g id="edge2" class="edge">
<title>1&#45;&gt;2</title>
<path fill="none" stroke="black" d="M339.29,-504C419.42,-504 545.39,-504 654.48,-504 654.48,-504 654.48,-504 1233.48,-504 1341.23,-504 1468.51,-504 1530.41,-504"/>
<polygon fill="black" stroke="black" points="1530.02,-507.5 1540.02,-504 1530.02,-500.5 1530.02,-507.5"/>
</g>
<!-- 4 -->
<!-- name: &quot;Array Size&quot;, typeName: &quot;&quot;, id: 4, branchId: 0, recurseId: &#45;1, attributes: 0, notes: &quot;&quot; -->
<g id="node5" class="node">
<title>4</title>
<ellipse fill="none" stroke="black" cx="446.58" cy="-450" rx="49.57" ry="18"/>
<text text-anchor="middle" x="446.58" y="-444.57" font-family="Times New Roman,serif" font-size="14.00">Array Size</text>
</g>
<!-- 3&#45;&gt;4 -->
<g id="edge4" class="edge">
<title>3&#45;&gt;4</title>
<path fill="none" stroke="black" d="M335.41,-450C352.05,-450 369.41,-450 385.29,-450"/>
<polygon fill="black" stroke="black" points="385.05,-453.5 395.05,-450 385.05,-446.5 385.05,-453.5"/>
</g>
<!-- 6 -->
<!-- name: &quot;example element&quot;, typeName: &quot;&quot;, id: 6, branchId: 0, recurseId: &#45;1, attributes: 16, notes: &quot;&quot; -->
<g id="node7" class="node">
<title>6</title>
<ellipse fill="none" stroke="black" stroke-dasharray="1,5" cx="446.58" cy="-342" rx="71.52" ry="18"/>
<text text-anchor="middle" x="446.58" y="-336.57" font-family="Times New Roman,serif" font-size="14.00">example element</text>
</g>
<!-- 3&#45;&gt;6 -->
<g id="edge6" class="edge">
<title>3&#45;&gt;6</title>
<path fill="none" stroke="black" d="M287.36,-433.12C319.56,-414.58 371.42,-384.71 406.93,-364.26"/>
<polygon fill="black" stroke="black" points="408.25,-367.54 415.17,-359.51 404.76,-361.47 408.25,-367.54"/>
</g>
<!-- 5 -->
<!-- name: &quot;unsigned varint&quot;, typeName: &quot;&quot;, id: 5, branchId: 0, recurseId: &#45;1, attributes: 512, notes: &quot;&quot; -->
<g id="node6" class="node">
<title>5</title>
<ellipse fill="none" stroke="black" cx="1568.99" cy="-450" rx="66.53" ry="18"/>
<text text-anchor="middle" x="1568.99" y="-444.57" font-family="Times New Roman,serif" font-size="14.00">unsigned varint</text>
</g>
<!-- 4&#45;&gt;5 -->
<g id="edge5" class="edge">
<title>4&#45;&gt;5</title>
<path fill="none" stroke="black" d="M496.47,-450C569.54,-450 711.58,-450 832.31,-450 832.31,-450 832.31,-450 1233.48,-450 1321.59,-450 1422.76,-450 1490.56,-450"/>
<polygon fill="black" stroke="black" points="1490.47,-453.5 1500.47,-450 1490.47,-446.5 1490.47,-453.5"/>
</g>
<!-- 7 -->
<!-- name: &quot;Id&quot;, typeName: &quot;ScoreboardId&quot;, id: 7, branchId: 0, recurseId: &#45;1, attributes: 256, notes: &quot;&quot; -->
<g id="node8" class="node">
<title>7</title>
<ellipse fill="none" stroke="black" cx="833.31" cy="-392" rx="27" ry="18"/>
<text text-anchor="middle" x="833.31" y="-386.57" font-family="Times New Roman,serif" font-size="14.00">Id</text>
</g>
<!-- 6&#45;&gt;7 -->
<g id="edge7" class="edge">
<title>6&#45;&gt;7</title>
<path fill="none" stroke="black" d="M510.66,-350.31C524.95,-352.19 540.05,-354.17 554.1,-356 640.53,-367.27 742.08,-380.38 795.37,-387.24"/>
<polygon fill="black" stroke="black" points="794.74,-390.69 805.11,-388.5 795.64,-383.75 794.74,-390.69"/>
</g>
<!-- 12 -->
<!-- name: &quot;Objective Name&quot;, typeName: &quot;&quot;, id: 12, branchId: 0, recurseId: &#45;1, attributes: 0, notes: &quot;&quot; -->
<g id="node10" class="node">
<title>12</title>
<ellipse fill="none" stroke="black" cx="1032.9" cy="-342" rx="70.03" ry="18"/>
<text text-anchor="middle" x="1032.9" y="-336.57" font-family="Times New Roman,serif" font-size="14.00">Objective Name</text>
</g>
<!-- 6&#45;&gt;12 -->
<g id="edge9" class="edge">
<title>6&#45;&gt;12</title>
<path fill="none" stroke="black" d="M518.35,-342C627.48,-342 836.22,-342 951.11,-342"/>
<polygon fill="black" stroke="black" points="951.09,-345.5 961.09,-342 951.09,-338.5 951.09,-345.5"/>
</g>
<!-- 14 -->
<!-- name: &quot;Score Value&quot;, typeName: &quot;&quot;, id: 14, branchId: 0, recurseId: &#45;1, attributes: 0, notes: &quot;&quot; -->
<g id="node12" class="node">
<title>14</title>
<ellipse fill="none" stroke="black" cx="655.48" cy="-292" rx="56.05" ry="18"/>
<text text-anchor="middle" x="655.48" y="-286.57" font-family="Times New Roman,serif" font-size="14.00">Score Value</text>
</g>
<!-- 6&#45;&gt;14 -->
<g id="edge11" class="edge">
<title>6&#45;&gt;14</title>
<path fill="none" stroke="black" d="M499.25,-329.51C529.53,-322.2 567.77,-312.95 598.73,-305.47"/>
<polygon fill="black" stroke="black" points="599.4,-308.91 608.3,-303.16 597.76,-302.11 599.4,-308.91"/>
</g>
<!-- 16 -->
<!-- name: &quot;Dependency on &#39;Is Change Type&#39;&quot;, typeName: &quot;&quot;, id: 16, branchId: 0, recurseId: &#45;1, attributes: 2, notes: &quot;&quot; -->
<g id="node14" class="node">
<title>16</title>
<polygon fill="none" stroke="black" points="750.85,-252 554.1,-252 554.1,-216 756.85,-216 756.85,-246 750.85,-252"/>
<polyline fill="none" stroke="black" points="750.85,-252 750.85,-246"/>
<polyline fill="none" stroke="black" points="756.85,-246 750.85,-246"/>
<text text-anchor="middle" x="655.48" y="-228.57" font-family="Times New Roman,serif" font-size="14.00">Dependency on &#39;Is Change Type&#39;</text>
</g>
<!-- 6&#45;&gt;16 -->
<g id="edge13" class="edge">
<title>6&#45;&gt;16</title>
<path fill="none" stroke="black" d="M467.5,-324.51C487.99,-307.3 521.43,-281.3 554.1,-265 560.31,-261.9 566.9,-259.04 573.61,-256.41"/>
<polygon fill="black" stroke="black" points="574.64,-259.76 582.79,-253 572.2,-253.2 574.64,-259.76"/>
</g>
<!-- 11 -->
<!-- name: &quot;ScoreboardId&quot;, typeName: &quot;&quot;, id: 11, branchId: 0, recurseId: &#45;1, attributes: 512, notes: &quot;&quot; -->
<g id="node9" class="node">
<title>11</title>
<ellipse fill="none" stroke="black" cx="1568.99" cy="-396" rx="62.54" ry="18"/>
<text text-anchor="middle" x="1568.99" y="-390.57" font-family="Times New Roman,serif" font-size="14.00">ScoreboardId</text>
</g>
<!-- 7&#45;&gt;11 -->
<g id="edge8" class="edge">
<title>7&#45;&gt;11</title>
<path fill="none" stroke="black" d="M860.42,-392.14C962.32,-392.7 1335.41,-394.73 1494.89,-395.6"/>
<polygon fill="black" stroke="black" points="1494.47,-399.1 1504.49,-395.65 1494.51,-392.1 1494.47,-399.1"/>
</g>
<!-- 13 -->
<!-- name: &quot;string&quot;, typeName: &quot;&quot;, id: 13, branchId: 0, recurseId: &#45;1, attributes: 512, notes: &quot;&quot; -->
<g id="node11" class="node">
<title>13</title>
<ellipse fill="none" stroke="black" cx="1568.99" cy="-342" rx="31.1" ry="18"/>
<text text-anchor="middle" x="1568.99" y="-336.57" font-family="Times New Roman,serif" font-size="14.00">string</text>
</g>
<!-- 12&#45;&gt;13 -->
<g id="edge10" class="edge">
<title>12&#45;&gt;13</title>
<path fill="none" stroke="black" d="M1103.17,-342C1215.66,-342 1434.65,-342 1526.19,-342"/>
<polygon fill="black" stroke="black" points="1525.96,-345.5 1535.96,-342 1525.96,-338.5 1525.96,-345.5"/>
</g>
<!-- 15 -->
<!-- name: &quot;int&quot;, typeName: &quot;&quot;, id: 15, branchId: 0, recurseId: &#45;1, attributes: 512, notes: &quot;&quot; -->
<g id="node13" class="node">
<title>15</title>
<ellipse fill="none" stroke="black" cx="1568.99" cy="-288" rx="27" ry="18"/>
<text text-anchor="middle" x="1568.99" y="-282.57" font-family="Times New Roman,serif" font-size="14.00">int</text>
</g>
<!-- 14&#45;&gt;15 -->
<g id="edge12" class="edge">
<title>14&#45;&gt;15</title>
<path fill="none" stroke="black" d="M711.82,-291.04C785.04,-289.86 918.16,-288 1031.9,-288 1031.9,-288 1031.9,-288 1233.48,-288 1341.23,-288 1468.51,-288 1530.41,-288"/>
<polygon fill="black" stroke="black" points="1530.02,-291.5 1540.02,-288 1530.02,-284.5 1530.02,-291.5"/>
</g>
<!-- 17 -->
<!-- name: &quot;if (0)&quot;, typeName: &quot;&quot;, id: 17, branchId: 0, recurseId: &#45;1, attributes: 4, notes: &quot;&quot; -->
<g id="node15" class="node">
<title>17</title>
<polygon fill="none" stroke="black" points="833.31,-252 792.85,-234 833.31,-216 873.77,-234 833.31,-252"/>
<text text-anchor="middle" x="833.31" y="-228.57" font-family="Times New Roman,serif" font-size="14.00">if (0)</text>
</g>
<!-- 16&#45;&gt;17 -->
<g id="edge14" class="edge">
<title>16&#45;&gt;17</title>
<path fill="none" stroke="black" d="M757.23,-234C765.19,-234 773,-234 780.4,-234"/>
<polygon fill="black" stroke="black" points="780.14,-237.5 790.14,-234 780.14,-230.5 780.14,-237.5"/>
</g>
<!-- 19 -->
<!-- name: &quot;if (1)&quot;, typeName: &quot;&quot;, id: 19, branchId: 1, recurseId: &#45;1, attributes: 4, notes: &quot;&quot; -->
<g id="node17" class="node">
<title>19</title>
<polygon fill="none" stroke="black" points="833.31,-198 792.85,-180 833.31,-162 873.77,-180 833.31,-198"/>
<text text-anchor="middle" x="833.31" y="-174.57" font-family="Times New Roman,serif" font-size="14.00">if (1)</text>
</g>
<!-- 16&#45;&gt;19 -->
<g id="edge16" class="edge">
<title>16&#45;&gt;19</title>
<path fill="none" stroke="black" d="M716.5,-215.57C743.56,-207.26 774.56,-197.74 797.67,-190.64"/>
<polygon fill="black" stroke="black" points="798.68,-193.99 807.21,-187.71 796.62,-187.3 798.68,-193.99"/>
</g>
<!-- 18 -->
<!-- name: &quot;[No Data]&quot;, typeName: &quot;&quot;, id: 18, branchId: 0, recurseId: &#45;1, attributes: 512, notes: &quot;&quot; -->
<g id="node16" class="node">
<title>18</title>
<ellipse fill="none" stroke="black" cx="1568.99" cy="-234" rx="47.57" ry="18"/>
<text text-anchor="middle" x="1568.99" y="-228.57" font-family="Times New Roman,serif" font-size="14.00">[No Data]</text>
</g>
<!-- 17&#45;&gt;18 -->
<g id="edge15" class="edge">
<title>17&#45;&gt;18</title>
<path fill="none" stroke="black" d="M874.8,-234C997.65,-234 1366.44,-234 1509.95,-234"/>
<polygon fill="black" stroke="black" points="1509.6,-237.5 1519.6,-234 1509.6,-230.5 1509.6,-237.5"/>
</g>
<!-- 20 -->
<!-- name: &quot;Identity Definition Type&quot;, typeName: &quot;&quot;, id: 20, branchId: 0, recurseId: &#45;1, attributes: 0, notes: &quot;&quot; -->
<g id="node18" class="node">
<title>20</title>
<ellipse fill="none" stroke="black" cx="1032.9" cy="-180" rx="98.97" ry="18"/>
<text text-anchor="middle" x="1032.9" y="-174.57" font-family="Times New Roman,serif" font-size="14.00">Identity Definition Type</text>
</g>
<!-- 19&#45;&gt;20 -->
<g id="edge17" class="edge">
<title>19&#45;&gt;20</title>
<path fill="none" stroke="black" d="M874.77,-180C888.85,-180 905.39,-180 922.36,-180"/>
<polygon fill="black" stroke="black" points="922.03,-183.5 932.03,-180 922.03,-176.5 922.03,-183.5"/>
</g>
<!-- 22 -->
<!-- name: &quot;Dependency on &#39;Identity Definition Type&#39;&quot;, typeName: &quot;&quot;, id: 22, branchId: 0, recurseId: &#45;1, attributes: 2, notes: &quot;&quot; -->
<g id="node20" class="node">
<title>22</title>
<polygon fill="none" stroke="black" points="1150.02,-117 909.77,-117 909.77,-81 1156.02,-81 1156.02,-111 1150.02,-117"/>
<polyline fill="none" stroke="black" points="1150.02,-117 1150.02,-111"/>
<polyline fill="none" stroke="black" points="1156.02,-111 1150.02,-111"/>
<text text-anchor="middle" x="1032.9" y="-93.58" font-family="Times New Roman,serif" font-size="14.00">Dependency on &#39;Identity Definition Type&#39;</text>
</g>
<!-- 19&#45;&gt;22 -->
<g id="edge19" class="edge">
<title>19&#45;&gt;22</title>
<path fill="none" stroke="black" d="M855.46,-171.33C884.06,-159.61 936.13,-138.26 976.31,-121.79"/>
<polygon fill="black" stroke="black" points="977.45,-125.1 985.37,-118.07 974.79,-118.63 977.45,-125.1"/>
</g>
<!-- 21 -->
<!-- name: &quot;byte&quot;, typeName: &quot;&quot;, id: 21, branchId: 0, recurseId: &#45;1, attributes: 512, notes: &quot;&quot; -->
<g id="node19" class="node">
<title>21</title>
<ellipse fill="none" stroke="black" cx="1568.99" cy="-180" rx="27" ry="18"/>
<text text-anchor="middle" x="1568.99" y="-174.57" font-family="Times New Roman,serif" font-size="14.00">byte</text>
</g>
<!-- 20&#45;&gt;21 -->
<g id="edge18" class="edge">
<title>20&#45;&gt;21</title>
<path fill="none" stroke="black" d="M1132.17,-180C1251.79,-180 1447.97,-180 1530.04,-180"/>
<polygon fill="black" stroke="black" points="1530.01,-183.5 1540.01,-180 1530.01,-176.5 1530.01,-183.5"/>
</g>
<!-- 23 -->
<!-- name: &quot;if (1)&quot;, typeName: &quot;&quot;, id: 23, branchId: 1, recurseId: &#45;1, attributes: 4, notes: &quot;&quot; -->
<g id="node21" class="node">
<title>23</title>
<polygon fill="none" stroke="black" points="1232.48,-144 1192.02,-126 1232.48,-108 1272.94,-126 1232.48,-144"/>
<text text-anchor="middle" x="1232.48" y="-120.58" font-family="Times New Roman,serif" font-size="14.00">if (1)</text>
</g>
<!-- 22&#45;&gt;23 -->
<g id="edge20" class="edge">
<title>22&#45;&gt;23</title>
<path fill="none" stroke="black" d="M1156.5,-115.75C1168.15,-117.35 1179.34,-118.87 1189.35,-120.24"/>
<polygon fill="black" stroke="black" points="1188.64,-123.68 1199.02,-121.56 1189.59,-116.74 1188.64,-123.68"/>
</g>
<!-- 26 -->
<!-- name: &quot;if (2)&quot;, typeName: &quot;&quot;, id: 26, branchId: 2, recurseId: &#45;1, attributes: 4, notes: &quot;&quot; -->
<g id="node24" class="node">
<title>26</title>
<polygon fill="none" stroke="black" points="1232.48,-90 1192.02,-72 1232.48,-54 1272.94,-72 1232.48,-90"/>
<text text-anchor="middle" x="1232.48" y="-66.58" font-family="Times New Roman,serif" font-size="14.00">if (2)</text>
</g>
<!-- 22&#45;&gt;26 -->
<g id="edge23" class="edge">
<title>22&#45;&gt;26</title>
<path fill="none" stroke="black" d="M1156.5,-82.25C1168.15,-80.65 1179.34,-79.13 1189.35,-77.76"/>
<polygon fill="black" stroke="black" points="1189.59,-81.26 1199.02,-76.44 1188.64,-74.32 1189.59,-81.26"/>
</g>
<!-- 29 -->
<!-- name: &quot;if (3)&quot;, typeName: &quot;&quot;, id: 29, branchId: 3, recurseId: &#45;1, attributes: 4, notes: &quot;&quot; -->
<g id="node27" class="node">
<title>29</title>
<polygon fill="none" stroke="black" points="1232.48,-36 1192.02,-18 1232.48,0 1272.94,-18 1232.48,-36"/>
<text text-anchor="middle" x="1232.48" y="-12.58" font-family="Times New Roman,serif" font-size="14.00">if (3)</text>
</g>
<!-- 22&#45;&gt;29 -->
<g id="edge26" class="edge">
<title>22&#45;&gt;29</title>
<path fill="none" stroke="black" d="M1078.73,-80.62C1115.76,-65.44 1167.38,-44.28 1200.12,-30.86"/>
<polygon fill="black" stroke="black" points="1201.12,-34.23 1209.04,-27.2 1198.46,-27.75 1201.12,-34.23"/>
</g>
<!-- 24 -->
<!-- name: &quot;Player Unique Id&quot;, typeName: &quot;&quot;, id: 24, branchId: 0, recurseId: &#45;1, attributes: 0, notes: &quot;&quot; -->
<g id="node22" class="node">
<title>24</title>
<ellipse fill="none" stroke="black" cx="1386.95" cy="-126" rx="73.02" ry="18"/>
<text text-anchor="middle" x="1386.95" y="-120.58" font-family="Times New Roman,serif" font-size="14.00">Player Unique Id</text>
</g>
<!-- 23&#45;&gt;24 -->
<g id="edge21" class="edge">
<title>23&#45;&gt;24</title>
<path fill="none" stroke="black" d="M1273.94,-126C1282.69,-126 1292.25,-126 1301.99,-126"/>
<polygon fill="black" stroke="black" points="1301.94,-129.5 1311.94,-126 1301.94,-122.5 1301.94,-129.5"/>
</g>
<!-- 25 -->
<!-- name: &quot;varint64&quot;, typeName: &quot;&quot;, id: 25, branchId: 0, recurseId: &#45;1, attributes: 512, notes: &quot;&quot; -->
<g id="node23" class="node">
<title>25</title>
<ellipse fill="none" stroke="black" cx="1568.99" cy="-126" rx="40.09" ry="18"/>
<text text-anchor="middle" x="1568.99" y="-120.58" font-family="Times New Roman,serif" font-size="14.00">varint64</text>
</g>
<!-- 24&#45;&gt;25 -->
<g id="edge22" class="edge">
<title>24&#45;&gt;25</title>
<path fill="none" stroke="black" d="M1460.4,-126C1479.39,-126 1499.46,-126 1517.05,-126"/>
<polygon fill="black" stroke="black" points="1517,-129.5 1527,-126 1517,-122.5 1517,-129.5"/>
</g>
<!-- 27 -->
<!-- name: &quot;Actor Id&quot;, typeName: &quot;ActorUniqueID&quot;, id: 27, branchId: 0, recurseId: &#45;1, attributes: 256, notes: &quot;&quot; -->
<g id="node25" class="node">
<title>27</title>
<ellipse fill="none" stroke="black" cx="1386.95" cy="-72" rx="42.58" ry="18"/>
<text text-anchor="middle" x="1386.95" y="-66.58" font-family="Times New Roman,serif" font-size="14.00">Actor Id</text>
</g>
<!-- 26&#45;&gt;27 -->
<g id="edge24" class="edge">
<title>26&#45;&gt;27</title>
<path fill="none" stroke="black" d="M1273.94,-72C1291.92,-72 1313.34,-72 1332.61,-72"/>
<polygon fill="black" stroke="black" points="1332.46,-75.5 1342.46,-72 1332.46,-68.5 1332.46,-75.5"/>
</g>
<!-- 28 -->
<!-- name: &quot;ActorUniqueID&quot;, typeName: &quot;&quot;, id: 28, branchId: 0, recurseId: &#45;1, attributes: 512, notes: &quot;&quot; -->
<g id="node26" class="node">
<title>28</title>
<ellipse fill="none" stroke="black" cx="1568.99" cy="-72" rx="68.03" ry="18"/>
<text text-anchor="middle" x="1568.99" y="-66.58" font-family="Times New Roman,serif" font-size="14.00">ActorUniqueID</text>
</g>
<!-- 27&#45;&gt;28 -->
<g id="edge25" class="edge">
<title>27&#45;&gt;28</title>
<path fill="none" stroke="black" d="M1429.71,-72C1447.5,-72 1468.86,-72 1489.42,-72"/>
<polygon fill="black" stroke="black" points="1489.21,-75.5 1499.21,-72 1489.21,-68.5 1489.21,-75.5"/>
</g>
<!-- 30 -->
<!-- name: &quot;Fake Player Name&quot;, typeName: &quot;&quot;, id: 30, branchId: 0, recurseId: &#45;1, attributes: 0, notes: &quot;&quot; -->
<g id="node28" class="node">
<title>30</title>
<ellipse fill="none" stroke="black" cx="1386.95" cy="-18" rx="78.01" ry="18"/>
<text text-anchor="middle" x="1386.95" y="-12.58" font-family="Times New Roman,serif" font-size="14.00">Fake Player Name</text>
</g>
<!-- 29&#45;&gt;30 -->
<g id="edge27" class="edge">
<title>29&#45;&gt;30</title>
<path fill="none" stroke="black" d="M1273.94,-18C1281.25,-18 1289.14,-18 1297.21,-18"/>
<polygon fill="black" stroke="black" points="1297.21,-21.5 1307.21,-18 1297.21,-14.5 1297.21,-21.5"/>
</g>
<!-- 31 -->
<!-- name: &quot;string&quot;, typeName: &quot;&quot;, id: 31, branchId: 0, recurseId: &#45;1, attributes: 512, notes: &quot;&quot; -->
<g id="node29" class="node">
<title>31</title>
<ellipse fill="none" stroke="black" cx="1568.99" cy="-18" rx="31.1" ry="18"/>
<text text-anchor="middle" x="1568.99" y="-12.58" font-family="Times New Roman,serif" font-size="14.00">string</text>
</g>
<!-- 30&#45;&gt;31 -->
<g id="edge28" class="edge">
<title>30&#45;&gt;31</title>
<path fill="none" stroke="black" d="M1465.35,-18C1486.3,-18 1508.18,-18 1526.33,-18"/>
<polygon fill="black" stroke="black" points="1526.16,-21.5 1536.16,-18 1526.16,-14.5 1526.16,-21.5"/>
</g>
</g>
</svg>
