<?xml version="1.0" encoding="UTF-8" standalone="no"?>
<!DOCTYPE svg PUBLIC "-//W3C//DTD SVG 1.1//EN"
 "http://www.w3.org/Graphics/SVG/1.1/DTD/svg11.dtd">
<!-- Generated by graphviz version 9.0.0 (20230911.1827)
 -->
<!-- Title: SetSpawnPositionPacket Pages: 1 -->
<svg width="659pt" height="206pt"
 viewBox="0.00 0.00 658.83 206.00" xmlns="http://www.w3.org/2000/svg" xmlns:xlink="http://www.w3.org/1999/xlink">
<g id="graph0" class="graph" transform="scale(1 1) rotate(0) translate(4 202)">
<title>SetSpawnPositionPacket</title>
<polygon fill="white" stroke="none" points="-4,4 -4,-202 654.83,-202 654.83,4 -4,4"/>
<!-- 0 -->
<!-- name: &quot;SetSpawnPositionPacket&quot;, typeName: &quot;&quot;, id: 0, branchId: 43, recurseId: &#45;1, attributes: 0, notes: &quot;&quot; -->
<g id="node1" class="node">
<title>0</title>
<ellipse fill="none" stroke="black" cx="103.46" cy="-99" rx="103.46" ry="18"/>
<text text-anchor="middle" x="103.46" y="-93.58" font-family="Times New Roman,serif" font-size="14.00">SetSpawnPositionPacket</text>
</g>
<!-- 1 -->
<!-- name: &quot;Spawn Position Type&quot;, typeName: &quot;&quot;, id: 1, branchId: 0, recurseId: &#45;1, attributes: 0, notes: &quot;enumeration: SpawnPositionType&quot; -->
<g id="node2" class="node">
<title>1</title>
<ellipse fill="none" stroke="black" cx="333.9" cy="-180" rx="90.98" ry="18"/>
<text text-anchor="middle" x="333.9" y="-174.57" font-family="Times New Roman,serif" font-size="14.00">Spawn Position Type</text>
</g>
<!-- 0&#45;&gt;1 -->
<g id="edge1" class="edge">
<title>0&#45;&gt;1</title>
<path fill="none" stroke="black" d="M145.03,-115.82C172.46,-126.94 209.62,-141.53 242.92,-153 251.58,-155.98 260.77,-158.96 269.84,-161.78"/>
<polygon fill="black" stroke="black" points="268.77,-165.11 279.36,-164.7 270.83,-158.42 268.77,-165.11"/>
</g>
<!-- 3 -->
<!-- name: &quot;Block Position&quot;, typeName: &quot;NetworkBlockPosition&quot;, id: 3, branchId: 0, recurseId: &#45;1, attributes: 256, notes: &quot;&quot; -->
<g id="node4" class="node">
<title>3</title>
<ellipse fill="none" stroke="black" cx="333.9" cy="-126" rx="65.53" ry="18"/>
<text text-anchor="middle" x="333.9" y="-120.58" font-family="Times New Roman,serif" font-size="14.00">Block Position</text>
</g>
<!-- 0&#45;&gt;3 -->
<g id="edge3" class="edge">
<title>0&#45;&gt;3</title>
<path fill="none" stroke="black" d="M190.17,-109.13C213.78,-111.92 239.13,-114.92 261.82,-117.6"/>
<polygon fill="black" stroke="black" points="261.22,-121.05 271.56,-118.75 262.04,-114.1 261.22,-121.05"/>
</g>
<!-- 5 -->
<!-- name: &quot;Dimension type&quot;, typeName: &quot;&quot;, id: 5, branchId: 0, recurseId: &#45;1, attributes: 0, notes: &quot;&quot; -->
<g id="node6" class="node">
<title>5</title>
<ellipse fill="none" stroke="black" cx="333.9" cy="-72" rx="68.53" ry="18"/>
<text text-anchor="middle" x="333.9" y="-66.58" font-family="Times New Roman,serif" font-size="14.00">Dimension type</text>
</g>
<!-- 0&#45;&gt;5 -->
<g id="edge5" class="edge">
<title>0&#45;&gt;5</title>
<path fill="none" stroke="black" d="M190.17,-88.87C212.92,-86.18 237.28,-83.3 259.32,-80.7"/>
<polygon fill="black" stroke="black" points="259.59,-84.19 269.11,-79.54 258.77,-77.24 259.59,-84.19"/>
</g>
<!-- 7 -->
<!-- name: &quot;Spawn Block Pos&quot;, typeName: &quot;NetworkBlockPosition&quot;, id: 7, branchId: 0, recurseId: &#45;1, attributes: 256, notes: &quot;&quot; -->
<g id="node8" class="node">
<title>7</title>
<ellipse fill="none" stroke="black" cx="333.9" cy="-18" rx="77.51" ry="18"/>
<text text-anchor="middle" x="333.9" y="-12.57" font-family="Times New Roman,serif" font-size="14.00">Spawn Block Pos</text>
</g>
<!-- 0&#45;&gt;7 -->
<g id="edge7" class="edge">
<title>0&#45;&gt;7</title>
<path fill="none" stroke="black" d="M145.03,-82.18C172.46,-71.06 209.62,-56.47 242.92,-45 252.54,-41.68 262.82,-38.38 272.87,-35.28"/>
<polygon fill="black" stroke="black" points="273.64,-38.7 282.19,-32.44 271.6,-32.01 273.64,-38.7"/>
</g>
<!-- 2 -->
<!-- name: &quot;varint&quot;, typeName: &quot;&quot;, id: 2, branchId: 0, recurseId: &#45;1, attributes: 512, notes: &quot;&quot; -->
<g id="node3" class="node">
<title>2</title>
<ellipse fill="none" stroke="black" cx="555.86" cy="-180" rx="31.1" ry="18"/>
<text text-anchor="middle" x="555.86" y="-174.57" font-family="Times New Roman,serif" font-size="14.00">varint</text>
</g>
<!-- 1&#45;&gt;2 -->
<g id="edge2" class="edge">
<title>1&#45;&gt;2</title>
<path fill="none" stroke="black" d="M425.32,-180C455.8,-180 488.36,-180 513.2,-180"/>
<polygon fill="black" stroke="black" points="512.88,-183.5 522.88,-180 512.88,-176.5 512.88,-183.5"/>
</g>
<!-- 4 -->
<!-- name: &quot;NetworkBlockPosition&quot;, typeName: &quot;&quot;, id: 4, branchId: 0, recurseId: &#45;1, attributes: 512, notes: &quot;&quot; -->
<g id="node5" class="node">
<title>4</title>
<ellipse fill="none" stroke="black" cx="555.86" cy="-126" rx="94.98" ry="18"/>
<text text-anchor="middle" x="555.86" y="-120.58" font-family="Times New Roman,serif" font-size="14.00">NetworkBlockPosition</text>
</g>
<!-- 3&#45;&gt;4 -->
<g id="edge4" class="edge">
<title>3&#45;&gt;4</title>
<path fill="none" stroke="black" d="M399.71,-126C415.4,-126 432.59,-126 449.62,-126"/>
<polygon fill="black" stroke="black" points="449.26,-129.5 459.26,-126 449.26,-122.5 449.26,-129.5"/>
</g>
<!-- 6 -->
<!-- name: &quot;varint&quot;, typeName: &quot;&quot;, id: 6, branchId: 0, recurseId: &#45;1, attributes: 512, notes: &quot;&quot; -->
<g id="node7" class="node">
<title>6</title>
<ellipse fill="none" stroke="black" cx="555.86" cy="-72" rx="31.1" ry="18"/>
<text text-anchor="middle" x="555.86" y="-66.58" font-family="Times New Roman,serif" font-size="14.00">varint</text>
</g>
<!-- 5&#45;&gt;6 -->
<g id="edge6" class="edge">
<title>5&#45;&gt;6</title>
<path fill="none" stroke="black" d="M402.69,-72C438.73,-72 481.9,-72 513.03,-72"/>
<polygon fill="black" stroke="black" points="512.82,-75.5 522.82,-72 512.82,-68.5 512.82,-75.5"/>
</g>
<!-- 8 -->
<!-- name: &quot;NetworkBlockPosition&quot;, typeName: &quot;&quot;, id: 8, branchId: 0, recurseId: &#45;1, attributes: 512, notes: &quot;&quot; -->
<g id="node9" class="node">
<title>8</title>
<ellipse fill="none" stroke="black" cx="555.86" cy="-18" rx="94.98" ry="18"/>
<text text-anchor="middle" x="555.86" y="-12.57" font-family="Times New Roman,serif" font-size="14.00">NetworkBlockPosition</text>
</g>
<!-- 7&#45;&gt;8 -->
<g id="edge8" class="edge">
<title>7&#45;&gt;8</title>
<path fill="none" stroke="black" d="M411.83,-18C423.88,-18 436.51,-18 449.06,-18"/>
<polygon fill="black" stroke="black" points="449.04,-21.5 459.04,-18 449.04,-14.5 449.04,-21.5"/>
</g>
</g>
</svg>
