<?xml version="1.0" encoding="UTF-8" standalone="no"?>
<!DOCTYPE svg PUBLIC "-//W3C//DTD SVG 1.1//EN"
 "http://www.w3.org/Graphics/SVG/1.1/DTD/svg11.dtd">
<!-- Generated by graphviz version 10.0.1 (20240210.2158)
 -->
<!-- Title: SetScoreboardIdentityPacket Pages: 1 -->
<svg width="1403pt" height="260pt"
 viewBox="0.00 0.00 1403.03 260.00" xmlns="http://www.w3.org/2000/svg" xmlns:xlink="http://www.w3.org/1999/xlink">
<g id="graph0" class="graph" transform="scale(1 1) rotate(0) translate(4 256)">
<title>SetScoreboardIdentityPacket</title>
<polygon fill="white" stroke="none" points="-4,4 -4,-256 1399.03,-256 1399.03,4 -4,4"/>
<!-- 0 -->
<!-- name: &quot;SetScoreboardIdentityPacket&quot;, typeName: &quot;&quot;, id: 0, branchId: 112, recurseId: &#45;1, attributes: 0, notes: &quot;&quot; -->
<g id="node1" class="node">
<title>0</title>
<ellipse fill="none" stroke="black" cx="119.43" cy="-203" rx="119.43" ry="18"/>
<text text-anchor="middle" x="119.43" y="-197.57" font-family="Times New Roman,serif" font-size="14.00">SetScoreboardIdentityPacket</text>
</g>
<!-- 1 -->
<!-- name: &quot;Scoreboard Identity Packet Type&quot;, typeName: &quot;&quot;, id: 1, branchId: 0, recurseId: &#45;1, attributes: 0, notes: &quot;&quot; -->
<g id="node2" class="node">
<title>1</title>
<ellipse fill="none" stroke="black" cx="1091.57" cy="-232" rx="134.4" ry="18"/>
<text text-anchor="middle" x="1091.57" y="-226.57" font-family="Times New Roman,serif" font-size="14.00">Scoreboard Identity Packet Type</text>
</g>
<!-- 0&#45;&gt;1 -->
<g id="edge1" class="edge">
<title>0&#45;&gt;1</title>
<path fill="none" stroke="black" d="M216.78,-213.79C292.24,-221.31 399.91,-230 494.48,-230 494.48,-230 494.48,-230 704.63,-230 784.29,-230 873.2,-230.43 945.58,-230.89"/>
<polygon fill="black" stroke="black" points="945.52,-234.39 955.54,-230.96 945.57,-227.39 945.52,-234.39"/>
</g>
<!-- 3 -->
<!-- name: &quot;Identity Info&quot;, typeName: &quot;&quot;, id: 3, branchId: 0, recurseId: &#45;1, attributes: 8, notes: &quot;&quot; -->
<g id="node4" class="node">
<title>3</title>
<ellipse fill="none" stroke="black" cx="331.41" cy="-180" rx="56.55" ry="18"/>
<text text-anchor="middle" x="331.41" y="-174.57" font-family="Times New Roman,serif" font-size="14.00">Identity Info</text>
</g>
<!-- 0&#45;&gt;3 -->
<g id="edge3" class="edge">
<title>0&#45;&gt;3</title>
<path fill="none" stroke="black" d="M217.43,-192.38C233.87,-190.57 250.57,-188.74 265.91,-187.06"/>
<polygon fill="black" stroke="black" points="266.29,-190.54 275.85,-185.98 265.52,-183.59 266.29,-190.54"/>
</g>
<!-- 2 -->
<!-- name: &quot;byte&quot;, typeName: &quot;&quot;, id: 2, branchId: 0, recurseId: &#45;1, attributes: 512, notes: &quot;&quot; -->
<g id="node3" class="node">
<title>2</title>
<ellipse fill="none" stroke="black" cx="1328.5" cy="-234" rx="27" ry="18"/>
<text text-anchor="middle" x="1328.5" y="-228.57" font-family="Times New Roman,serif" font-size="14.00">byte</text>
</g>
<!-- 1&#45;&gt;2 -->
<g id="edge2" class="edge">
<title>1&#45;&gt;2</title>
<path fill="none" stroke="black" d="M1226.16,-233.14C1249.61,-233.34 1272.18,-233.53 1290.05,-233.68"/>
<polygon fill="black" stroke="black" points="1289.8,-237.18 1299.83,-233.76 1289.86,-230.18 1289.8,-237.18"/>
</g>
<!-- 4 -->
<!-- name: &quot;Array Size&quot;, typeName: &quot;&quot;, id: 4, branchId: 0, recurseId: &#45;1, attributes: 0, notes: &quot;&quot; -->
<g id="node5" class="node">
<title>4</title>
<ellipse fill="none" stroke="black" cx="495.48" cy="-180" rx="49.57" ry="18"/>
<text text-anchor="middle" x="495.48" y="-174.57" font-family="Times New Roman,serif" font-size="14.00">Array Size</text>
</g>
<!-- 3&#45;&gt;4 -->
<g id="edge4" class="edge">
<title>3&#45;&gt;4</title>
<path fill="none" stroke="black" d="M388.18,-180C403.07,-180 419.22,-180 434.33,-180"/>
<polygon fill="black" stroke="black" points="434.13,-183.5 444.13,-180 434.13,-176.5 434.13,-183.5"/>
</g>
<!-- 6 -->
<!-- name: &quot;example element&quot;, typeName: &quot;&quot;, id: 6, branchId: 0, recurseId: &#45;1, attributes: 16, notes: &quot;&quot; -->
<g id="node7" class="node">
<title>6</title>
<ellipse fill="none" stroke="black" stroke-dasharray="1,5" cx="495.48" cy="-126" rx="71.52" ry="18"/>
<text text-anchor="middle" x="495.48" y="-120.58" font-family="Times New Roman,serif" font-size="14.00">example element</text>
</g>
<!-- 3&#45;&gt;6 -->
<g id="edge6" class="edge">
<title>3&#45;&gt;6</title>
<path fill="none" stroke="black" d="M371.64,-166.93C392.25,-160.06 417.83,-151.54 440.3,-144.05"/>
<polygon fill="black" stroke="black" points="441.23,-147.43 449.61,-140.95 439.02,-140.79 441.23,-147.43"/>
</g>
<!-- 5 -->
<!-- name: &quot;unsigned varint&quot;, typeName: &quot;&quot;, id: 5, branchId: 0, recurseId: &#45;1, attributes: 512, notes: &quot;&quot; -->
<g id="node6" class="node">
<title>5</title>
<ellipse fill="none" stroke="black" cx="1328.5" cy="-180" rx="66.53" ry="18"/>
<text text-anchor="middle" x="1328.5" y="-174.57" font-family="Times New Roman,serif" font-size="14.00">unsigned varint</text>
</g>
<!-- 4&#45;&gt;5 -->
<g id="edge5" class="edge">
<title>4&#45;&gt;5</title>
<path fill="none" stroke="black" d="M545.36,-180C684.14,-180 1081.39,-180 1250.16,-180"/>
<polygon fill="black" stroke="black" points="1250.15,-183.5 1260.15,-180 1250.15,-176.5 1250.15,-183.5"/>
</g>
<!-- 7 -->
<!-- name: &quot;Scoreboard Id&quot;, typeName: &quot;ScoreboardId&quot;, id: 7, branchId: 0, recurseId: &#45;1, attributes: 256, notes: &quot;&quot; -->
<g id="node8" class="node">
<title>7</title>
<ellipse fill="none" stroke="black" cx="703.63" cy="-126" rx="65.04" ry="18"/>
<text text-anchor="middle" x="703.63" y="-120.58" font-family="Times New Roman,serif" font-size="14.00">Scoreboard Id</text>
</g>
<!-- 6&#45;&gt;7 -->
<g id="edge7" class="edge">
<title>6&#45;&gt;7</title>
<path fill="none" stroke="black" d="M567.43,-126C586.61,-126 607.43,-126 626.87,-126"/>
<polygon fill="black" stroke="black" points="626.61,-129.5 636.61,-126 626.61,-122.5 626.61,-129.5"/>
</g>
<!-- 9 -->
<!-- name: &quot;Dependency on &#39;Is Update Type&#39;&quot;, typeName: &quot;&quot;, id: 9, branchId: 0, recurseId: &#45;1, attributes: 2, notes: &quot;&quot; -->
<g id="node10" class="node">
<title>9</title>
<polygon fill="none" stroke="black" points="798.25,-90 603,-90 603,-54 804.25,-54 804.25,-84 798.25,-90"/>
<polyline fill="none" stroke="black" points="798.25,-90 798.25,-84"/>
<polyline fill="none" stroke="black" points="804.25,-84 798.25,-84"/>
<text text-anchor="middle" x="703.63" y="-66.58" font-family="Times New Roman,serif" font-size="14.00">Dependency on &#39;Is Update Type&#39;</text>
</g>
<!-- 6&#45;&gt;9 -->
<g id="edge9" class="edge">
<title>6&#45;&gt;9</title>
<path fill="none" stroke="black" d="M546.38,-112.93C568.8,-107.06 595.85,-99.97 621.09,-93.36"/>
<polygon fill="black" stroke="black" points="621.9,-96.76 630.69,-90.84 620.13,-89.99 621.9,-96.76"/>
</g>
<!-- 8 -->
<!-- name: &quot;ScoreboardId&quot;, typeName: &quot;&quot;, id: 8, branchId: 0, recurseId: &#45;1, attributes: 512, notes: &quot;&quot; -->
<g id="node9" class="node">
<title>8</title>
<ellipse fill="none" stroke="black" cx="1328.5" cy="-126" rx="62.54" ry="18"/>
<text text-anchor="middle" x="1328.5" y="-120.58" font-family="Times New Roman,serif" font-size="14.00">ScoreboardId</text>
</g>
<!-- 7&#45;&gt;8 -->
<g id="edge8" class="edge">
<title>7&#45;&gt;8</title>
<path fill="none" stroke="black" d="M768.94,-126C885.62,-126 1131.46,-126 1254.34,-126"/>
<polygon fill="black" stroke="black" points="1254.33,-129.5 1264.33,-126 1254.33,-122.5 1254.33,-129.5"/>
</g>
<!-- 10 -->
<!-- name: &quot;if (0)&quot;, typeName: &quot;&quot;, id: 10, branchId: 0, recurseId: &#45;1, attributes: 4, notes: &quot;&quot; -->
<g id="node11" class="node">
<title>10</title>
<polygon fill="none" stroke="black" points="880.71,-90 840.25,-72 880.71,-54 921.17,-72 880.71,-90"/>
<text text-anchor="middle" x="880.71" y="-66.58" font-family="Times New Roman,serif" font-size="14.00">if (0)</text>
</g>
<!-- 9&#45;&gt;10 -->
<g id="edge10" class="edge">
<title>9&#45;&gt;10</title>
<path fill="none" stroke="black" d="M804.7,-72C812.55,-72 820.26,-72 827.57,-72"/>
<polygon fill="black" stroke="black" points="827.56,-75.5 837.56,-72 827.56,-68.5 827.56,-75.5"/>
</g>
<!-- 12 -->
<!-- name: &quot;if (1)&quot;, typeName: &quot;&quot;, id: 12, branchId: 1, recurseId: &#45;1, attributes: 4, notes: &quot;&quot; -->
<g id="node13" class="node">
<title>12</title>
<polygon fill="none" stroke="black" points="880.71,-36 840.25,-18 880.71,0 921.17,-18 880.71,-36"/>
<text text-anchor="middle" x="880.71" y="-12.58" font-family="Times New Roman,serif" font-size="14.00">if (1)</text>
</g>
<!-- 9&#45;&gt;12 -->
<g id="edge12" class="edge">
<title>9&#45;&gt;12</title>
<path fill="none" stroke="black" d="M764.39,-53.57C791.17,-45.31 821.82,-35.86 844.79,-28.77"/>
<polygon fill="black" stroke="black" points="845.74,-32.14 854.27,-25.85 843.68,-25.45 845.74,-32.14"/>
</g>
<!-- 11 -->
<!-- name: &quot;[No Data]&quot;, typeName: &quot;&quot;, id: 11, branchId: 0, recurseId: &#45;1, attributes: 512, notes: &quot;&quot; -->
<g id="node12" class="node">
<title>11</title>
<ellipse fill="none" stroke="black" cx="1328.5" cy="-72" rx="47.57" ry="18"/>
<text text-anchor="middle" x="1328.5" y="-66.58" font-family="Times New Roman,serif" font-size="14.00">[No Data]</text>
</g>
<!-- 10&#45;&gt;11 -->
<g id="edge11" class="edge">
<title>10&#45;&gt;11</title>
<path fill="none" stroke="black" d="M922.06,-72C1001.29,-72 1177.48,-72 1269.3,-72"/>
<polygon fill="black" stroke="black" points="1269.1,-75.5 1279.1,-72 1269.1,-68.5 1269.1,-75.5"/>
</g>
<!-- 13 -->
<!-- name: &quot;Player Unique Id&quot;, typeName: &quot;&quot;, id: 13, branchId: 0, recurseId: &#45;1, attributes: 0, notes: &quot;&quot; -->
<g id="node14" class="node">
<title>13</title>
<ellipse fill="none" stroke="black" cx="1091.57" cy="-18" rx="73.02" ry="18"/>
<text text-anchor="middle" x="1091.57" y="-12.58" font-family="Times New Roman,serif" font-size="14.00">Player Unique Id</text>
</g>
<!-- 12&#45;&gt;13 -->
<g id="edge13" class="edge">
<title>12&#45;&gt;13</title>
<path fill="none" stroke="black" d="M921.98,-18C946.05,-18 977.54,-18 1006.79,-18"/>
<polygon fill="black" stroke="black" points="1006.78,-21.5 1016.78,-18 1006.78,-14.5 1006.78,-21.5"/>
</g>
<!-- 14 -->
<!-- name: &quot;varint64&quot;, typeName: &quot;&quot;, id: 14, branchId: 0, recurseId: &#45;1, attributes: 512, notes: &quot;&quot; -->
<g id="node15" class="node">
<title>14</title>
<ellipse fill="none" stroke="black" cx="1328.5" cy="-18" rx="40.09" ry="18"/>
<text text-anchor="middle" x="1328.5" y="-12.58" font-family="Times New Roman,serif" font-size="14.00">varint64</text>
</g>
<!-- 13&#45;&gt;14 -->
<g id="edge14" class="edge">
<title>13&#45;&gt;14</title>
<path fill="none" stroke="black" d="M1164.97,-18C1201.27,-18 1244.34,-18 1277.02,-18"/>
<polygon fill="black" stroke="black" points="1276.6,-21.5 1286.6,-18 1276.6,-14.5 1276.6,-21.5"/>
</g>
</g>
</svg>
