<?xml version="1.0" encoding="UTF-8" standalone="no"?>
<!DOCTYPE svg PUBLIC "-//W3C//DTD SVG 1.1//EN"
 "http://www.w3.org/Graphics/SVG/1.1/DTD/svg11.dtd">
<!-- Generated by graphviz version 9.0.0 (20230911.1827)
 -->
<!-- Title: SetScorePacket Pages: 1 -->
<svg width="1679pt" height="638pt"
 viewBox="0.00 0.00 1678.95 638.00" xmlns="http://www.w3.org/2000/svg" xmlns:xlink="http://www.w3.org/1999/xlink">
<g id="graph0" class="graph" transform="scale(1 1) rotate(0) translate(4 634)">
<title>SetScorePacket</title>
<polygon fill="white" stroke="none" points="-4,4 -4,-634 1674.95,-634 1674.95,4 -4,4"/>
<!-- 0 -->
<!-- name: &quot;SetScorePacket&quot;, typeName: &quot;&quot;, id: 0, branchId: 108, recurseId: &#45;1, attributes: 0, notes: &quot;&quot; -->
<g id="node1" class="node">
<title>0</title>
<ellipse fill="none" stroke="black" cx="69.53" cy="-581" rx="69.53" ry="18"/>
<text text-anchor="middle" x="69.53" y="-575.58" font-family="Times New Roman,serif" font-size="14.00">SetScorePacket</text>
</g>
<!-- 1 -->
<!-- name: &quot;Score Packet Type&quot;, typeName: &quot;&quot;, id: 1, branchId: 0, recurseId: &#45;1, attributes: 0, notes: &quot;enumeration: ScorePacketType&quot; -->
<g id="node2" class="node">
<title>1</title>
<ellipse fill="none" stroke="black" cx="1024.91" cy="-610" rx="82" ry="18"/>
<text text-anchor="middle" x="1024.91" y="-604.58" font-family="Times New Roman,serif" font-size="14.00">Score Packet Type</text>
</g>
<!-- 0&#45;&gt;1 -->
<g id="edge1" class="edge">
<title>0&#45;&gt;1</title>
<path fill="none" stroke="black" d="M133.43,-588.45C206.45,-596.44 330.56,-608 437.6,-608 437.6,-608 437.6,-608 648.49,-608 744.9,-608 855.22,-608.67 931.2,-609.23"/>
<polygon fill="black" stroke="black" points="931.08,-612.73 941.11,-609.31 931.14,-605.73 931.08,-612.73"/>
</g>
<!-- 3 -->
<!-- name: &quot;Score Packet Info&quot;, typeName: &quot;&quot;, id: 3, branchId: 0, recurseId: &#45;1, attributes: 8, notes: &quot;&quot; -->
<g id="node4" class="node">
<title>3</title>
<ellipse fill="none" stroke="black" cx="253.06" cy="-558" rx="78.01" ry="18"/>
<text text-anchor="middle" x="253.06" y="-552.58" font-family="Times New Roman,serif" font-size="14.00">Score Packet Info</text>
</g>
<!-- 0&#45;&gt;3 -->
<g id="edge3" class="edge">
<title>0&#45;&gt;3</title>
<path fill="none" stroke="black" d="M132.75,-573.12C145.58,-571.49 159.25,-569.76 172.6,-568.07"/>
<polygon fill="black" stroke="black" points="172.72,-571.58 182.21,-566.85 171.84,-564.64 172.72,-571.58"/>
</g>
<!-- 2 -->
<!-- name: &quot;byte&quot;, typeName: &quot;&quot;, id: 2, branchId: 0, recurseId: &#45;1, attributes: 512, notes: &quot;&quot; -->
<g id="node3" class="node">
<title>2</title>
<ellipse fill="none" stroke="black" cx="1602.92" cy="-612" rx="27" ry="18"/>
<text text-anchor="middle" x="1602.92" y="-606.58" font-family="Times New Roman,serif" font-size="14.00">byte</text>
</g>
<!-- 1&#45;&gt;2 -->
<g id="edge2" class="edge">
<title>1&#45;&gt;2</title>
<path fill="none" stroke="black" d="M1107.22,-610.28C1233.63,-610.72 1472.33,-611.55 1564.39,-611.87"/>
<polygon fill="black" stroke="black" points="1564.1,-615.37 1574.12,-611.9 1564.13,-608.37 1564.1,-615.37"/>
</g>
<!-- 4 -->
<!-- name: &quot;Array Size&quot;, typeName: &quot;&quot;, id: 4, branchId: 0, recurseId: &#45;1, attributes: 0, notes: &quot;&quot; -->
<g id="node5" class="node">
<title>4</title>
<ellipse fill="none" stroke="black" cx="438.6" cy="-558" rx="49.57" ry="18"/>
<text text-anchor="middle" x="438.6" y="-552.58" font-family="Times New Roman,serif" font-size="14.00">Array Size</text>
</g>
<!-- 3&#45;&gt;4 -->
<g id="edge4" class="edge">
<title>3&#45;&gt;4</title>
<path fill="none" stroke="black" d="M331.37,-558C346.67,-558 362.53,-558 377.17,-558"/>
<polygon fill="black" stroke="black" points="377.11,-561.5 387.11,-558 377.11,-554.5 377.11,-561.5"/>
</g>
<!-- 6 -->
<!-- name: &quot;example element&quot;, typeName: &quot;&quot;, id: 6, branchId: 0, recurseId: &#45;1, attributes: 16, notes: &quot;&quot; -->
<g id="node7" class="node">
<title>6</title>
<ellipse fill="none" stroke="black" stroke-dasharray="1,5" cx="438.6" cy="-450" rx="71.52" ry="18"/>
<text text-anchor="middle" x="438.6" y="-444.57" font-family="Times New Roman,serif" font-size="14.00">example element</text>
</g>
<!-- 3&#45;&gt;6 -->
<g id="edge6" class="edge">
<title>3&#45;&gt;6</title>
<path fill="none" stroke="black" d="M282.74,-541.12C314.12,-522.66 364.58,-492.96 399.32,-472.52"/>
<polygon fill="black" stroke="black" points="400.97,-475.61 407.82,-467.52 397.42,-469.58 400.97,-475.61"/>
</g>
<!-- 5 -->
<!-- name: &quot;unsigned varint&quot;, typeName: &quot;&quot;, id: 5, branchId: 0, recurseId: &#45;1, attributes: 512, notes: &quot;&quot; -->
<g id="node6" class="node">
<title>5</title>
<ellipse fill="none" stroke="black" cx="1602.92" cy="-558" rx="66.53" ry="18"/>
<text text-anchor="middle" x="1602.92" y="-552.58" font-family="Times New Roman,serif" font-size="14.00">unsigned varint</text>
</g>
<!-- 4&#45;&gt;5 -->
<g id="edge5" class="edge">
<title>4&#45;&gt;5</title>
<path fill="none" stroke="black" d="M488.49,-558C561.56,-558 703.6,-558 824.33,-558 824.33,-558 824.33,-558 1225.5,-558 1328.99,-558 1448.5,-558 1524.59,-558"/>
<polygon fill="black" stroke="black" points="1524.45,-561.5 1534.45,-558 1524.45,-554.5 1524.45,-561.5"/>
</g>
<!-- 7 -->
<!-- name: &quot;Id&quot;, typeName: &quot;ScoreboardId&quot;, id: 7, branchId: 0, recurseId: &#45;1, attributes: 256, notes: &quot;&quot; -->
<g id="node8" class="node">
<title>7</title>
<ellipse fill="none" stroke="black" cx="825.33" cy="-500" rx="27" ry="18"/>
<text text-anchor="middle" x="825.33" y="-494.57" font-family="Times New Roman,serif" font-size="14.00">Id</text>
</g>
<!-- 6&#45;&gt;7 -->
<g id="edge7" class="edge">
<title>6&#45;&gt;7</title>
<path fill="none" stroke="black" d="M502.68,-458.31C516.96,-460.19 532.06,-462.17 546.12,-464 632.55,-475.27 734.1,-488.38 787.39,-495.24"/>
<polygon fill="black" stroke="black" points="786.76,-498.69 797.13,-496.5 787.65,-491.75 786.76,-498.69"/>
</g>
<!-- 12 -->
<!-- name: &quot;Objective Name&quot;, typeName: &quot;&quot;, id: 12, branchId: 0, recurseId: &#45;1, attributes: 0, notes: &quot;&quot; -->
<g id="node10" class="node">
<title>12</title>
<ellipse fill="none" stroke="black" cx="1024.91" cy="-450" rx="70.03" ry="18"/>
<text text-anchor="middle" x="1024.91" y="-444.57" font-family="Times New Roman,serif" font-size="14.00">Objective Name</text>
</g>
<!-- 6&#45;&gt;12 -->
<g id="edge9" class="edge">
<title>6&#45;&gt;12</title>
<path fill="none" stroke="black" d="M510.37,-450C619.5,-450 828.23,-450 943.12,-450"/>
<polygon fill="black" stroke="black" points="943.11,-453.5 953.11,-450 943.11,-446.5 943.11,-453.5"/>
</g>
<!-- 14 -->
<!-- name: &quot;Score Value&quot;, typeName: &quot;&quot;, id: 14, branchId: 0, recurseId: &#45;1, attributes: 0, notes: &quot;&quot; -->
<g id="node12" class="node">
<title>14</title>
<ellipse fill="none" stroke="black" cx="647.49" cy="-400" rx="56.05" ry="18"/>
<text text-anchor="middle" x="647.49" y="-394.57" font-family="Times New Roman,serif" font-size="14.00">Score Value</text>
</g>
<!-- 6&#45;&gt;14 -->
<g id="edge11" class="edge">
<title>6&#45;&gt;14</title>
<path fill="none" stroke="black" d="M491.27,-437.51C521.55,-430.2 559.79,-420.95 590.74,-413.47"/>
<polygon fill="black" stroke="black" points="591.42,-416.91 600.32,-411.16 589.77,-410.11 591.42,-416.91"/>
</g>
<!-- 16 -->
<!-- name: &quot;Dependency on &#39;Is Change Type&#39;&quot;, typeName: &quot;&quot;, id: 16, branchId: 0, recurseId: &#45;1, attributes: 2, notes: &quot;&quot; -->
<g id="node14" class="node">
<title>16</title>
<polygon fill="none" stroke="black" points="742.87,-360 546.12,-360 546.12,-324 748.87,-324 748.87,-354 742.87,-360"/>
<polyline fill="none" stroke="black" points="742.87,-360 742.87,-354"/>
<polyline fill="none" stroke="black" points="748.87,-354 742.87,-354"/>
<text text-anchor="middle" x="647.49" y="-336.57" font-family="Times New Roman,serif" font-size="14.00">Dependency on &#39;Is Change Type&#39;</text>
</g>
<!-- 6&#45;&gt;16 -->
<g id="edge13" class="edge">
<title>6&#45;&gt;16</title>
<path fill="none" stroke="black" d="M459.52,-432.51C480,-415.3 513.45,-389.3 546.12,-373 552.33,-369.9 558.91,-367.04 565.62,-364.41"/>
<polygon fill="black" stroke="black" points="566.65,-367.76 574.81,-361 564.22,-361.2 566.65,-367.76"/>
</g>
<!-- 11 -->
<!-- name: &quot;ScoreboardId&quot;, typeName: &quot;&quot;, id: 11, branchId: 0, recurseId: &#45;1, attributes: 512, notes: &quot;&quot; -->
<g id="node9" class="node">
<title>11</title>
<ellipse fill="none" stroke="black" cx="1602.92" cy="-504" rx="62.54" ry="18"/>
<text text-anchor="middle" x="1602.92" y="-498.57" font-family="Times New Roman,serif" font-size="14.00">ScoreboardId</text>
</g>
<!-- 7&#45;&gt;11 -->
<g id="edge8" class="edge">
<title>7&#45;&gt;11</title>
<path fill="none" stroke="black" d="M852.58,-500.14C959.21,-500.69 1362.21,-502.76 1528.98,-503.62"/>
<polygon fill="black" stroke="black" points="1528.57,-507.12 1538.58,-503.67 1528.6,-500.12 1528.57,-507.12"/>
</g>
<!-- 13 -->
<!-- name: &quot;string&quot;, typeName: &quot;&quot;, id: 13, branchId: 0, recurseId: &#45;1, attributes: 512, notes: &quot;&quot; -->
<g id="node11" class="node">
<title>13</title>
<ellipse fill="none" stroke="black" cx="1602.92" cy="-450" rx="31.1" ry="18"/>
<text text-anchor="middle" x="1602.92" y="-444.57" font-family="Times New Roman,serif" font-size="14.00">string</text>
</g>
<!-- 12&#45;&gt;13 -->
<g id="edge10" class="edge">
<title>12&#45;&gt;13</title>
<path fill="none" stroke="black" d="M1095.39,-450C1216.32,-450 1461.94,-450 1560.06,-450"/>
<polygon fill="black" stroke="black" points="1560.03,-453.5 1570.03,-450 1560.03,-446.5 1560.03,-453.5"/>
</g>
<!-- 15 -->
<!-- name: &quot;int&quot;, typeName: &quot;&quot;, id: 15, branchId: 0, recurseId: &#45;1, attributes: 512, notes: &quot;&quot; -->
<g id="node13" class="node">
<title>15</title>
<ellipse fill="none" stroke="black" cx="1602.92" cy="-396" rx="27" ry="18"/>
<text text-anchor="middle" x="1602.92" y="-390.57" font-family="Times New Roman,serif" font-size="14.00">int</text>
</g>
<!-- 14&#45;&gt;15 -->
<g id="edge12" class="edge">
<title>14&#45;&gt;15</title>
<path fill="none" stroke="black" d="M703.83,-399.04C777.06,-397.86 910.17,-396 1023.91,-396 1023.91,-396 1023.91,-396 1225.5,-396 1349.41,-396 1496.27,-396 1564.11,-396"/>
<polygon fill="black" stroke="black" points="1563.94,-399.5 1573.94,-396 1563.94,-392.5 1563.94,-399.5"/>
</g>
<!-- 17 -->
<!-- name: &quot;if (0)&quot;, typeName: &quot;&quot;, id: 17, branchId: 0, recurseId: &#45;1, attributes: 4, notes: &quot;&quot; -->
<g id="node15" class="node">
<title>17</title>
<polygon fill="none" stroke="black" points="825.33,-360 784.87,-342 825.33,-324 865.79,-342 825.33,-360"/>
<text text-anchor="middle" x="825.33" y="-336.57" font-family="Times New Roman,serif" font-size="14.00">if (0)</text>
</g>
<!-- 16&#45;&gt;17 -->
<g id="edge14" class="edge">
<title>16&#45;&gt;17</title>
<path fill="none" stroke="black" d="M749.25,-342C757.2,-342 765.02,-342 772.42,-342"/>
<polygon fill="black" stroke="black" points="772.16,-345.5 782.16,-342 772.16,-338.5 772.16,-345.5"/>
</g>
<!-- 19 -->
<!-- name: &quot;if (1)&quot;, typeName: &quot;&quot;, id: 19, branchId: 1, recurseId: &#45;1, attributes: 4, notes: &quot;&quot; -->
<g id="node17" class="node">
<title>19</title>
<polygon fill="none" stroke="black" points="825.33,-252 784.87,-234 825.33,-216 865.79,-234 825.33,-252"/>
<text text-anchor="middle" x="825.33" y="-228.57" font-family="Times New Roman,serif" font-size="14.00">if (1)</text>
</g>
<!-- 16&#45;&gt;19 -->
<g id="edge16" class="edge">
<title>16&#45;&gt;19</title>
<path fill="none" stroke="black" d="M678.32,-323.68C711.92,-303.04 766,-269.83 798.06,-250.13"/>
<polygon fill="black" stroke="black" points="799.66,-253.26 806.35,-245.04 796,-247.29 799.66,-253.26"/>
</g>
<!-- 18 -->
<!-- name: &quot;[No Data]&quot;, typeName: &quot;&quot;, id: 18, branchId: 0, recurseId: &#45;1, attributes: 512, notes: &quot;&quot; -->
<g id="node16" class="node">
<title>18</title>
<ellipse fill="none" stroke="black" cx="1602.92" cy="-342" rx="47.57" ry="18"/>
<text text-anchor="middle" x="1602.92" y="-336.57" font-family="Times New Roman,serif" font-size="14.00">[No Data]</text>
</g>
<!-- 17&#45;&gt;18 -->
<g id="edge15" class="edge">
<title>17&#45;&gt;18</title>
<path fill="none" stroke="black" d="M866.93,-342C995.43,-342 1393.52,-342 1543.74,-342"/>
<polygon fill="black" stroke="black" points="1543.45,-345.5 1553.45,-342 1543.45,-338.5 1543.45,-345.5"/>
</g>
<!-- 20 -->
<!-- name: &quot;Dependency on &#39;Identity Definition Type&#39;&quot;, typeName: &quot;&quot;, id: 20, branchId: 0, recurseId: &#45;1, attributes: 2, notes: &quot;&quot; -->
<g id="node18" class="node">
<title>20</title>
<polygon fill="none" stroke="black" points="1142.04,-225 901.79,-225 901.79,-189 1148.04,-189 1148.04,-219 1142.04,-225"/>
<polyline fill="none" stroke="black" points="1142.04,-225 1142.04,-219"/>
<polyline fill="none" stroke="black" points="1148.04,-219 1142.04,-219"/>
<text text-anchor="middle" x="1024.91" y="-201.57" font-family="Times New Roman,serif" font-size="14.00">Dependency on &#39;Identity Definition Type&#39;</text>
</g>
<!-- 19&#45;&gt;20 -->
<g id="edge17" class="edge">
<title>19&#45;&gt;20</title>
<path fill="none" stroke="black" d="M857.2,-229.78C866.84,-228.46 878.15,-226.92 890.26,-225.26"/>
<polygon fill="black" stroke="black" points="890.66,-228.74 900.09,-223.92 889.71,-221.81 890.66,-228.74"/>
</g>
<!-- 21 -->
<!-- name: &quot;if (1)&quot;, typeName: &quot;&quot;, id: 21, branchId: 1, recurseId: &#45;1, attributes: 4, notes: &quot;&quot; -->
<g id="node19" class="node">
<title>21</title>
<polygon fill="none" stroke="black" points="1224.5,-252 1184.04,-234 1224.5,-216 1264.96,-234 1224.5,-252"/>
<text text-anchor="middle" x="1224.5" y="-228.57" font-family="Times New Roman,serif" font-size="14.00">if (1)</text>
</g>
<!-- 20&#45;&gt;21 -->
<g id="edge18" class="edge">
<title>20&#45;&gt;21</title>
<path fill="none" stroke="black" d="M1148.52,-223.75C1160.17,-225.35 1171.35,-226.87 1181.37,-228.24"/>
<polygon fill="black" stroke="black" points="1180.66,-231.68 1191.04,-229.56 1181.6,-224.74 1180.66,-231.68"/>
</g>
<!-- 26 -->
<!-- name: &quot;if (2)&quot;, typeName: &quot;&quot;, id: 26, branchId: 2, recurseId: &#45;1, attributes: 4, notes: &quot;&quot; -->
<g id="node24" class="node">
<title>26</title>
<polygon fill="none" stroke="black" points="1224.5,-198 1184.04,-180 1224.5,-162 1264.96,-180 1224.5,-198"/>
<text text-anchor="middle" x="1224.5" y="-174.57" font-family="Times New Roman,serif" font-size="14.00">if (2)</text>
</g>
<!-- 20&#45;&gt;26 -->
<g id="edge23" class="edge">
<title>20&#45;&gt;26</title>
<path fill="none" stroke="black" d="M1148.52,-190.25C1160.17,-188.65 1171.35,-187.13 1181.37,-185.76"/>
<polygon fill="black" stroke="black" points="1181.6,-189.26 1191.04,-184.44 1180.66,-182.32 1181.6,-189.26"/>
</g>
<!-- 31 -->
<!-- name: &quot;if (3)&quot;, typeName: &quot;&quot;, id: 31, branchId: 3, recurseId: &#45;1, attributes: 4, notes: &quot;&quot; -->
<g id="node29" class="node">
<title>31</title>
<polygon fill="none" stroke="black" points="1224.5,-90 1184.04,-72 1224.5,-54 1264.96,-72 1224.5,-90"/>
<text text-anchor="middle" x="1224.5" y="-66.58" font-family="Times New Roman,serif" font-size="14.00">if (3)</text>
</g>
<!-- 20&#45;&gt;31 -->
<g id="edge28" class="edge">
<title>20&#45;&gt;31</title>
<path fill="none" stroke="black" d="M1052.97,-188.51C1091.39,-162.26 1161.21,-114.55 1198.48,-89.09"/>
<polygon fill="black" stroke="black" points="1200.12,-92.21 1206.4,-83.68 1196.17,-86.43 1200.12,-92.21"/>
</g>
<!-- 22 -->
<!-- name: &quot;Identity Definition Type&quot;, typeName: &quot;&quot;, id: 22, branchId: 0, recurseId: &#45;1, attributes: 0, notes: &quot;enumeration: IdentityDefinition::Type&quot; -->
<g id="node20" class="node">
<title>22</title>
<ellipse fill="none" stroke="black" cx="1399.92" cy="-288" rx="98.97" ry="18"/>
<text text-anchor="middle" x="1399.92" y="-282.57" font-family="Times New Roman,serif" font-size="14.00">Identity Definition Type</text>
</g>
<!-- 21&#45;&gt;22 -->
<g id="edge19" class="edge">
<title>21&#45;&gt;22</title>
<path fill="none" stroke="black" d="M1247.14,-242.23C1262.15,-247.82 1282.65,-255.21 1300.96,-261 1310.59,-264.05 1320.82,-267.08 1330.89,-269.96"/>
<polygon fill="black" stroke="black" points="1329.7,-273.26 1340.27,-272.6 1331.59,-266.52 1329.7,-273.26"/>
</g>
<!-- 24 -->
<!-- name: &quot;Player Unique Id&quot;, typeName: &quot;&quot;, id: 24, branchId: 0, recurseId: &#45;1, attributes: 0, notes: &quot;&quot; -->
<g id="node22" class="node">
<title>24</title>
<ellipse fill="none" stroke="black" cx="1399.92" cy="-234" rx="73.02" ry="18"/>
<text text-anchor="middle" x="1399.92" y="-228.57" font-family="Times New Roman,serif" font-size="14.00">Player Unique Id</text>
</g>
<!-- 21&#45;&gt;24 -->
<g id="edge21" class="edge">
<title>21&#45;&gt;24</title>
<path fill="none" stroke="black" d="M1266.16,-234C1280.94,-234 1298.24,-234 1315.37,-234"/>
<polygon fill="black" stroke="black" points="1315.07,-237.5 1325.07,-234 1315.07,-230.5 1315.07,-237.5"/>
</g>
<!-- 23 -->
<!-- name: &quot;byte&quot;, typeName: &quot;&quot;, id: 23, branchId: 0, recurseId: &#45;1, attributes: 512, notes: &quot;&quot; -->
<g id="node21" class="node">
<title>23</title>
<ellipse fill="none" stroke="black" cx="1602.92" cy="-288" rx="27" ry="18"/>
<text text-anchor="middle" x="1602.92" y="-282.57" font-family="Times New Roman,serif" font-size="14.00">byte</text>
</g>
<!-- 22&#45;&gt;23 -->
<g id="edge20" class="edge">
<title>22&#45;&gt;23</title>
<path fill="none" stroke="black" d="M1499.36,-288C1522.53,-288 1545.85,-288 1564.39,-288"/>
<polygon fill="black" stroke="black" points="1564.31,-291.5 1574.31,-288 1564.31,-284.5 1564.31,-291.5"/>
</g>
<!-- 25 -->
<!-- name: &quot;varint64&quot;, typeName: &quot;&quot;, id: 25, branchId: 0, recurseId: &#45;1, attributes: 512, notes: &quot;&quot; -->
<g id="node23" class="node">
<title>25</title>
<ellipse fill="none" stroke="black" cx="1602.92" cy="-234" rx="40.09" ry="18"/>
<text text-anchor="middle" x="1602.92" y="-228.57" font-family="Times New Roman,serif" font-size="14.00">varint64</text>
</g>
<!-- 24&#45;&gt;25 -->
<g id="edge22" class="edge">
<title>24&#45;&gt;25</title>
<path fill="none" stroke="black" d="M1473.2,-234C1498.91,-234 1527.3,-234 1550.86,-234"/>
<polygon fill="black" stroke="black" points="1550.84,-237.5 1560.84,-234 1550.84,-230.5 1550.84,-237.5"/>
</g>
<!-- 27 -->
<!-- name: &quot;Identity Definition Type&quot;, typeName: &quot;&quot;, id: 27, branchId: 0, recurseId: &#45;1, attributes: 0, notes: &quot;enumeration: IdentityDefinition::Type&quot; -->
<g id="node25" class="node">
<title>27</title>
<ellipse fill="none" stroke="black" cx="1399.92" cy="-180" rx="98.97" ry="18"/>
<text text-anchor="middle" x="1399.92" y="-174.57" font-family="Times New Roman,serif" font-size="14.00">Identity Definition Type</text>
</g>
<!-- 26&#45;&gt;27 -->
<g id="edge24" class="edge">
<title>26&#45;&gt;27</title>
<path fill="none" stroke="black" d="M1266.16,-180C1273.3,-180 1281.03,-180 1289.05,-180"/>
<polygon fill="black" stroke="black" points="1289.03,-183.5 1299.03,-180 1289.03,-176.5 1289.03,-183.5"/>
</g>
<!-- 29 -->
<!-- name: &quot;Actor Id&quot;, typeName: &quot;ActorUniqueID&quot;, id: 29, branchId: 0, recurseId: &#45;1, attributes: 256, notes: &quot;&quot; -->
<g id="node27" class="node">
<title>29</title>
<ellipse fill="none" stroke="black" cx="1399.92" cy="-126" rx="42.58" ry="18"/>
<text text-anchor="middle" x="1399.92" y="-120.58" font-family="Times New Roman,serif" font-size="14.00">Actor Id</text>
</g>
<!-- 26&#45;&gt;29 -->
<g id="edge26" class="edge">
<title>26&#45;&gt;29</title>
<path fill="none" stroke="black" d="M1247.14,-171.77C1262.15,-166.18 1282.65,-158.79 1300.96,-153 1317.49,-147.77 1335.78,-142.58 1352.03,-138.16"/>
<polygon fill="black" stroke="black" points="1352.7,-141.6 1361.44,-135.63 1350.88,-134.84 1352.7,-141.6"/>
</g>
<!-- 28 -->
<!-- name: &quot;byte&quot;, typeName: &quot;&quot;, id: 28, branchId: 0, recurseId: &#45;1, attributes: 512, notes: &quot;&quot; -->
<g id="node26" class="node">
<title>28</title>
<ellipse fill="none" stroke="black" cx="1602.92" cy="-180" rx="27" ry="18"/>
<text text-anchor="middle" x="1602.92" y="-174.57" font-family="Times New Roman,serif" font-size="14.00">byte</text>
</g>
<!-- 27&#45;&gt;28 -->
<g id="edge25" class="edge">
<title>27&#45;&gt;28</title>
<path fill="none" stroke="black" d="M1499.36,-180C1522.53,-180 1545.85,-180 1564.39,-180"/>
<polygon fill="black" stroke="black" points="1564.31,-183.5 1574.31,-180 1564.31,-176.5 1564.31,-183.5"/>
</g>
<!-- 30 -->
<!-- name: &quot;ActorUniqueID&quot;, typeName: &quot;&quot;, id: 30, branchId: 0, recurseId: &#45;1, attributes: 512, notes: &quot;&quot; -->
<g id="node28" class="node">
<title>30</title>
<ellipse fill="none" stroke="black" cx="1602.92" cy="-126" rx="68.03" ry="18"/>
<text text-anchor="middle" x="1602.92" y="-120.58" font-family="Times New Roman,serif" font-size="14.00">ActorUniqueID</text>
</g>
<!-- 29&#45;&gt;30 -->
<g id="edge27" class="edge">
<title>29&#45;&gt;30</title>
<path fill="none" stroke="black" d="M1442.57,-126C1465.92,-126 1495.8,-126 1523.37,-126"/>
<polygon fill="black" stroke="black" points="1523.1,-129.5 1533.1,-126 1523.1,-122.5 1523.1,-129.5"/>
</g>
<!-- 32 -->
<!-- name: &quot;Identity Definition Type&quot;, typeName: &quot;&quot;, id: 32, branchId: 0, recurseId: &#45;1, attributes: 0, notes: &quot;enumeration: IdentityDefinition::Type&quot; -->
<g id="node30" class="node">
<title>32</title>
<ellipse fill="none" stroke="black" cx="1399.92" cy="-72" rx="98.97" ry="18"/>
<text text-anchor="middle" x="1399.92" y="-66.58" font-family="Times New Roman,serif" font-size="14.00">Identity Definition Type</text>
</g>
<!-- 31&#45;&gt;32 -->
<g id="edge29" class="edge">
<title>31&#45;&gt;32</title>
<path fill="none" stroke="black" d="M1266.16,-72C1273.3,-72 1281.03,-72 1289.05,-72"/>
<polygon fill="black" stroke="black" points="1289.03,-75.5 1299.03,-72 1289.03,-68.5 1289.03,-75.5"/>
</g>
<!-- 34 -->
<!-- name: &quot;Fake Player Name&quot;, typeName: &quot;&quot;, id: 34, branchId: 0, recurseId: &#45;1, attributes: 0, notes: &quot;&quot; -->
<g id="node32" class="node">
<title>34</title>
<ellipse fill="none" stroke="black" cx="1399.92" cy="-18" rx="78.01" ry="18"/>
<text text-anchor="middle" x="1399.92" y="-12.57" font-family="Times New Roman,serif" font-size="14.00">Fake Player Name</text>
</g>
<!-- 31&#45;&gt;34 -->
<g id="edge31" class="edge">
<title>31&#45;&gt;34</title>
<path fill="none" stroke="black" d="M1247.14,-63.77C1262.15,-58.18 1282.65,-50.79 1300.96,-45 1312.17,-41.45 1324.19,-37.92 1335.84,-34.64"/>
<polygon fill="black" stroke="black" points="1336.7,-38.03 1345.39,-31.98 1334.82,-31.29 1336.7,-38.03"/>
</g>
<!-- 33 -->
<!-- name: &quot;byte&quot;, typeName: &quot;&quot;, id: 33, branchId: 0, recurseId: &#45;1, attributes: 512, notes: &quot;&quot; -->
<g id="node31" class="node">
<title>33</title>
<ellipse fill="none" stroke="black" cx="1602.92" cy="-72" rx="27" ry="18"/>
<text text-anchor="middle" x="1602.92" y="-66.58" font-family="Times New Roman,serif" font-size="14.00">byte</text>
</g>
<!-- 32&#45;&gt;33 -->
<g id="edge30" class="edge">
<title>32&#45;&gt;33</title>
<path fill="none" stroke="black" d="M1499.36,-72C1522.53,-72 1545.85,-72 1564.39,-72"/>
<polygon fill="black" stroke="black" points="1564.31,-75.5 1574.31,-72 1564.31,-68.5 1564.31,-75.5"/>
</g>
<!-- 35 -->
<!-- name: &quot;string&quot;, typeName: &quot;&quot;, id: 35, branchId: 0, recurseId: &#45;1, attributes: 512, notes: &quot;&quot; -->
<g id="node33" class="node">
<title>35</title>
<ellipse fill="none" stroke="black" cx="1602.92" cy="-18" rx="31.1" ry="18"/>
<text text-anchor="middle" x="1602.92" y="-12.57" font-family="Times New Roman,serif" font-size="14.00">string</text>
</g>
<!-- 34&#45;&gt;35 -->
<g id="edge32" class="edge">
<title>34&#45;&gt;35</title>
<path fill="none" stroke="black" d="M1478.35,-18C1506.16,-18 1536.47,-18 1560.11,-18"/>
<polygon fill="black" stroke="black" points="1559.96,-21.5 1569.96,-18 1559.96,-14.5 1559.96,-21.5"/>
</g>
</g>
</svg>
