<?xml version="1.0" encoding="UTF-8" standalone="no"?>
<!DOCTYPE svg PUBLIC "-//W3C//DTD SVG 1.1//EN"
 "http://www.w3.org/Graphics/SVG/1.1/DTD/svg11.dtd">
<!-- Generated by graphviz version 13.1.2 (20250808.2320)
 -->
<!-- Title: SetSpawnPositionPacket Pages: 1 -->
<svg width="778pt" height="422pt"
 viewBox="0.00 0.00 778.00 422.00" xmlns="http://www.w3.org/2000/svg" xmlns:xlink="http://www.w3.org/1999/xlink">
<g id="graph0" class="graph" transform="scale(1 1) rotate(0) translate(4 418)">
<title>SetSpawnPositionPacket</title>
<polygon fill="white" stroke="none" points="-4,4 -4,-418 773.6,-418 773.6,4 -4,4"/>
<!-- 0 -->
<!-- name: &quot;SetSpawnPositionPacket&quot;, typeName: &quot;&quot;, id: 0, branchId: 0, recurseId: &#45;1, attributes: 0, notes: &quot;When a player logs in or the SetWorldSpawnCommand is used this is sent from the server to the client. Does not change when using a bed, that is a separate packet (RespawnPacket)&quot; -->
<g id="node1" class="node">
<title>0</title>
<ellipse fill="none" stroke="black" cx="102.53" cy="-234" rx="102.53" ry="18"/>
<text xml:space="preserve" text-anchor="middle" x="102.53" y="-228.95" font-family="Times New Roman,serif" font-size="14.00">SetSpawnPositionPacket</text>
</g>
<!-- 1 -->
<!-- name: &quot;Spawn Position Type&quot;, typeName: &quot;&quot;, id: 1, branchId: 0, recurseId: &#45;1, attributes: 0, notes: &quot;&quot; -->
<g id="node2" class="node">
<title>1</title>
<ellipse fill="none" stroke="black" cx="330.29" cy="-355" rx="89.23" ry="18"/>
<text xml:space="preserve" text-anchor="middle" x="330.29" y="-349.95" font-family="Times New Roman,serif" font-size="14.00">Spawn Position Type</text>
</g>
<!-- 0&#45;&gt;1 -->
<g id="edge1" class="edge">
<title>0&#45;&gt;1</title>
<path fill="none" stroke="black" d="M135.88,-251.34C175.72,-272.69 243.5,-309.02 287.32,-332.5"/>
<polygon fill="black" stroke="black" points="285.57,-335.54 296.03,-337.18 288.87,-329.37 285.57,-335.54"/>
</g>
<!-- 3 -->
<!-- name: &quot;Block Position&quot;, typeName: &quot;&quot;, id: 3, branchId: 0, recurseId: &#45;1, attributes: 0, notes: &quot;&quot; -->
<g id="node4" class="node">
<title>3</title>
<ellipse fill="none" stroke="black" cx="330.29" cy="-261" rx="65.68" ry="18"/>
<text xml:space="preserve" text-anchor="middle" x="330.29" y="-255.95" font-family="Times New Roman,serif" font-size="14.00">Block Position</text>
</g>
<!-- 0&#45;&gt;3 -->
<g id="edge3" class="edge">
<title>0&#45;&gt;3</title>
<path fill="none" stroke="black" d="M188.56,-244.17C211.44,-246.91 235.96,-249.84 258.01,-252.47"/>
<polygon fill="black" stroke="black" points="257.45,-255.93 267.79,-253.64 258.28,-248.98 257.45,-255.93"/>
</g>
<!-- 10 -->
<!-- name: &quot;Dimension type&quot;, typeName: &quot;&quot;, id: 10, branchId: 0, recurseId: &#45;1, attributes: 0, notes: &quot;&quot; -->
<g id="node11" class="node">
<title>10</title>
<ellipse fill="none" stroke="black" cx="330.29" cy="-207" rx="70.29" ry="18"/>
<text xml:space="preserve" text-anchor="middle" x="330.29" y="-201.95" font-family="Times New Roman,serif" font-size="14.00">Dimension type</text>
</g>
<!-- 0&#45;&gt;10 -->
<g id="edge10" class="edge">
<title>0&#45;&gt;10</title>
<path fill="none" stroke="black" d="M188.56,-223.83C210.28,-221.23 233.47,-218.46 254.62,-215.93"/>
<polygon fill="black" stroke="black" points="254.8,-219.43 264.31,-214.77 253.97,-212.48 254.8,-219.43"/>
</g>
<!-- 13 -->
<!-- name: &quot;Spawn Block Pos&quot;, typeName: &quot;&quot;, id: 13, branchId: 0, recurseId: &#45;1, attributes: 0, notes: &quot;&quot; -->
<g id="node14" class="node">
<title>13</title>
<ellipse fill="none" stroke="black" cx="330.29" cy="-99" rx="76.43" ry="18"/>
<text xml:space="preserve" text-anchor="middle" x="330.29" y="-93.95" font-family="Times New Roman,serif" font-size="14.00">Spawn Block Pos</text>
</g>
<!-- 0&#45;&gt;13 -->
<g id="edge13" class="edge">
<title>0&#45;&gt;13</title>
<path fill="none" stroke="black" d="M133.05,-216.35C173.6,-192.1 246.6,-148.45 291.23,-121.76"/>
<polygon fill="black" stroke="black" points="292.75,-124.93 299.54,-116.79 289.16,-118.92 292.75,-124.93"/>
</g>
<!-- 2 -->
<!-- name: &quot;enum SpawnPositionType&quot;, typeName: &quot;&quot;, id: 2, branchId: 0, recurseId: &#45;1, attributes: 512, notes: &quot;&quot; -->
<g id="node3" class="node">
<title>2</title>
<ellipse fill="none" stroke="black" cx="661.44" cy="-396" rx="108.16" ry="18"/>
<text xml:space="preserve" text-anchor="middle" x="661.44" y="-390.95" font-family="Times New Roman,serif" font-size="14.00">enum SpawnPositionType</text>
</g>
<!-- 1&#45;&gt;2 -->
<g id="edge2" class="edge">
<title>1&#45;&gt;2</title>
<path fill="none" stroke="black" d="M407.22,-364.46C453.27,-370.2 512.54,-377.58 562.15,-383.76"/>
<polygon fill="black" stroke="black" points="561.7,-387.23 572.06,-384.99 562.56,-380.28 561.7,-387.23"/>
</g>
<!-- 4 -->
<!-- name: &quot;X&quot;, typeName: &quot;&quot;, id: 4, branchId: 0, recurseId: &#45;1, attributes: 0, notes: &quot;&quot; -->
<g id="node5" class="node">
<title>4</title>
<ellipse fill="none" stroke="black" cx="486.39" cy="-342" rx="27" ry="18"/>
<text xml:space="preserve" text-anchor="middle" x="486.39" y="-336.95" font-family="Times New Roman,serif" font-size="14.00">X</text>
</g>
<!-- 3&#45;&gt;4 -->
<g id="edge4" class="edge">
<title>3&#45;&gt;4</title>
<path fill="none" stroke="black" d="M362.1,-277.2C388.93,-291.3 427.63,-311.64 454.49,-325.76"/>
<polygon fill="black" stroke="black" points="452.68,-328.76 463.16,-330.31 455.94,-322.56 452.68,-328.76"/>
</g>
<!-- 6 -->
<!-- name: &quot;Y&quot;, typeName: &quot;&quot;, id: 6, branchId: 0, recurseId: &#45;1, attributes: 0, notes: &quot;&quot; -->
<g id="node7" class="node">
<title>6</title>
<ellipse fill="none" stroke="black" cx="486.39" cy="-288" rx="27" ry="18"/>
<text xml:space="preserve" text-anchor="middle" x="486.39" y="-282.95" font-family="Times New Roman,serif" font-size="14.00">Y</text>
</g>
<!-- 3&#45;&gt;6 -->
<g id="edge6" class="edge">
<title>3&#45;&gt;6</title>
<path fill="none" stroke="black" d="M386.49,-270.67C407.13,-274.29 430.06,-278.3 448.63,-281.56"/>
<polygon fill="black" stroke="black" points="447.92,-284.99 458.37,-283.27 449.12,-278.09 447.92,-284.99"/>
</g>
<!-- 8 -->
<!-- name: &quot;Z&quot;, typeName: &quot;&quot;, id: 8, branchId: 0, recurseId: &#45;1, attributes: 0, notes: &quot;&quot; -->
<g id="node9" class="node">
<title>8</title>
<ellipse fill="none" stroke="black" cx="486.39" cy="-234" rx="27" ry="18"/>
<text xml:space="preserve" text-anchor="middle" x="486.39" y="-228.95" font-family="Times New Roman,serif" font-size="14.00">Z</text>
</g>
<!-- 3&#45;&gt;8 -->
<g id="edge8" class="edge">
<title>3&#45;&gt;8</title>
<path fill="none" stroke="black" d="M386.49,-251.33C407.13,-247.71 430.06,-243.7 448.63,-240.44"/>
<polygon fill="black" stroke="black" points="449.12,-243.91 458.37,-238.73 447.92,-237.01 449.12,-243.91"/>
</g>
<!-- 5 -->
<!-- name: &quot;varint&quot;, typeName: &quot;&quot;, id: 5, branchId: 0, recurseId: &#45;1, attributes: 512, notes: &quot;&quot; -->
<g id="node6" class="node">
<title>5</title>
<ellipse fill="none" stroke="black" cx="661.44" cy="-342" rx="32.41" ry="18"/>
<text xml:space="preserve" text-anchor="middle" x="661.44" y="-336.95" font-family="Times New Roman,serif" font-size="14.00">varint</text>
</g>
<!-- 4&#45;&gt;5 -->
<g id="edge5" class="edge">
<title>4&#45;&gt;5</title>
<path fill="none" stroke="black" d="M513.68,-342C541.13,-342 584.64,-342 617.17,-342"/>
<polygon fill="black" stroke="black" points="617.09,-345.5 627.09,-342 617.09,-338.5 617.09,-345.5"/>
</g>
<!-- 7 -->
<!-- name: &quot;unsigned varint&quot;, typeName: &quot;&quot;, id: 7, branchId: 0, recurseId: &#45;1, attributes: 512, notes: &quot;&quot; -->
<g id="node8" class="node">
<title>7</title>
<ellipse fill="none" stroke="black" cx="661.44" cy="-288" rx="68.24" ry="18"/>
<text xml:space="preserve" text-anchor="middle" x="661.44" y="-282.95" font-family="Times New Roman,serif" font-size="14.00">unsigned varint</text>
</g>
<!-- 6&#45;&gt;7 -->
<g id="edge7" class="edge">
<title>6&#45;&gt;7</title>
<path fill="none" stroke="black" d="M513.68,-288C531.79,-288 556.91,-288 581.25,-288"/>
<polygon fill="black" stroke="black" points="581.21,-291.5 591.21,-288 581.21,-284.5 581.21,-291.5"/>
</g>
<!-- 9 -->
<!-- name: &quot;varint&quot;, typeName: &quot;&quot;, id: 9, branchId: 0, recurseId: &#45;1, attributes: 512, notes: &quot;&quot; -->
<g id="node10" class="node">
<title>9</title>
<ellipse fill="none" stroke="black" cx="661.44" cy="-234" rx="32.41" ry="18"/>
<text xml:space="preserve" text-anchor="middle" x="661.44" y="-228.95" font-family="Times New Roman,serif" font-size="14.00">varint</text>
</g>
<!-- 8&#45;&gt;9 -->
<g id="edge9" class="edge">
<title>8&#45;&gt;9</title>
<path fill="none" stroke="black" d="M513.68,-234C541.13,-234 584.64,-234 617.17,-234"/>
<polygon fill="black" stroke="black" points="617.09,-237.5 627.09,-234 617.09,-230.5 617.09,-237.5"/>
</g>
<!-- 11 -->
<!-- name: &quot;value&quot;, typeName: &quot;&quot;, id: 11, branchId: 0, recurseId: &#45;1, attributes: 0, notes: &quot;&quot; -->
<g id="node12" class="node">
<title>11</title>
<ellipse fill="none" stroke="black" cx="486.39" cy="-180" rx="30.88" ry="18"/>
<text xml:space="preserve" text-anchor="middle" x="486.39" y="-174.95" font-family="Times New Roman,serif" font-size="14.00">value</text>
</g>
<!-- 10&#45;&gt;11 -->
<g id="edge11" class="edge">
<title>10&#45;&gt;11</title>
<path fill="none" stroke="black" d="M389.11,-196.87C407.85,-193.59 428.2,-190.02 445.35,-187.02"/>
<polygon fill="black" stroke="black" points="445.92,-190.47 455.16,-185.3 444.71,-183.58 445.92,-190.47"/>
</g>
<!-- 12 -->
<!-- name: &quot;varint&quot;, typeName: &quot;&quot;, id: 12, branchId: 0, recurseId: &#45;1, attributes: 512, notes: &quot;&quot; -->
<g id="node13" class="node">
<title>12</title>
<ellipse fill="none" stroke="black" cx="661.44" cy="-180" rx="32.41" ry="18"/>
<text xml:space="preserve" text-anchor="middle" x="661.44" y="-174.95" font-family="Times New Roman,serif" font-size="14.00">varint</text>
</g>
<!-- 11&#45;&gt;12 -->
<g id="edge12" class="edge">
<title>11&#45;&gt;12</title>
<path fill="none" stroke="black" d="M517.54,-180C545.1,-180 586.18,-180 617.23,-180"/>
<polygon fill="black" stroke="black" points="617.08,-183.5 627.08,-180 617.08,-176.5 617.08,-183.5"/>
</g>
<!-- 14 -->
<!-- name: &quot;X&quot;, typeName: &quot;&quot;, id: 14, branchId: 0, recurseId: &#45;1, attributes: 0, notes: &quot;&quot; -->
<g id="node15" class="node">
<title>14</title>
<ellipse fill="none" stroke="black" cx="486.39" cy="-126" rx="27" ry="18"/>
<text xml:space="preserve" text-anchor="middle" x="486.39" y="-120.95" font-family="Times New Roman,serif" font-size="14.00">X</text>
</g>
<!-- 13&#45;&gt;14 -->
<g id="edge14" class="edge">
<title>13&#45;&gt;14</title>
<path fill="none" stroke="black" d="M392.64,-109.75C411.73,-113.09 432.17,-116.68 448.99,-119.62"/>
<polygon fill="black" stroke="black" points="448.05,-123.01 458.5,-121.29 449.26,-116.12 448.05,-123.01"/>
</g>
<!-- 16 -->
<!-- name: &quot;Y&quot;, typeName: &quot;&quot;, id: 16, branchId: 0, recurseId: &#45;1, attributes: 0, notes: &quot;&quot; -->
<g id="node17" class="node">
<title>16</title>
<ellipse fill="none" stroke="black" cx="486.39" cy="-72" rx="27" ry="18"/>
<text xml:space="preserve" text-anchor="middle" x="486.39" y="-66.95" font-family="Times New Roman,serif" font-size="14.00">Y</text>
</g>
<!-- 13&#45;&gt;16 -->
<g id="edge16" class="edge">
<title>13&#45;&gt;16</title>
<path fill="none" stroke="black" d="M392.64,-88.25C411.73,-84.91 432.17,-81.32 448.99,-78.38"/>
<polygon fill="black" stroke="black" points="449.26,-81.88 458.5,-76.71 448.05,-74.99 449.26,-81.88"/>
</g>
<!-- 18 -->
<!-- name: &quot;Z&quot;, typeName: &quot;&quot;, id: 18, branchId: 0, recurseId: &#45;1, attributes: 0, notes: &quot;&quot; -->
<g id="node19" class="node">
<title>18</title>
<ellipse fill="none" stroke="black" cx="486.39" cy="-18" rx="27" ry="18"/>
<text xml:space="preserve" text-anchor="middle" x="486.39" y="-12.95" font-family="Times New Roman,serif" font-size="14.00">Z</text>
</g>
<!-- 13&#45;&gt;18 -->
<g id="edge18" class="edge">
<title>13&#45;&gt;18</title>
<path fill="none" stroke="black" d="M362.85,-82.41C389.74,-68.28 428.16,-48.08 454.79,-34.09"/>
<polygon fill="black" stroke="black" points="456.15,-37.33 463.37,-29.58 452.89,-31.13 456.15,-37.33"/>
</g>
<!-- 15 -->
<!-- name: &quot;varint&quot;, typeName: &quot;&quot;, id: 15, branchId: 0, recurseId: &#45;1, attributes: 512, notes: &quot;&quot; -->
<g id="node16" class="node">
<title>15</title>
<ellipse fill="none" stroke="black" cx="661.44" cy="-126" rx="32.41" ry="18"/>
<text xml:space="preserve" text-anchor="middle" x="661.44" y="-120.95" font-family="Times New Roman,serif" font-size="14.00">varint</text>
</g>
<!-- 14&#45;&gt;15 -->
<g id="edge15" class="edge">
<title>14&#45;&gt;15</title>
<path fill="none" stroke="black" d="M513.68,-126C541.13,-126 584.64,-126 617.17,-126"/>
<polygon fill="black" stroke="black" points="617.09,-129.5 627.09,-126 617.09,-122.5 617.09,-129.5"/>
</g>
<!-- 17 -->
<!-- name: &quot;unsigned varint&quot;, typeName: &quot;&quot;, id: 17, branchId: 0, recurseId: &#45;1, attributes: 512, notes: &quot;&quot; -->
<g id="node18" class="node">
<title>17</title>
<ellipse fill="none" stroke="black" cx="661.44" cy="-72" rx="68.24" ry="18"/>
<text xml:space="preserve" text-anchor="middle" x="661.44" y="-66.95" font-family="Times New Roman,serif" font-size="14.00">unsigned varint</text>
</g>
<!-- 16&#45;&gt;17 -->
<g id="edge17" class="edge">
<title>16&#45;&gt;17</title>
<path fill="none" stroke="black" d="M513.68,-72C531.79,-72 556.91,-72 581.25,-72"/>
<polygon fill="black" stroke="black" points="581.21,-75.5 591.21,-72 581.21,-68.5 581.21,-75.5"/>
</g>
<!-- 19 -->
<!-- name: &quot;varint&quot;, typeName: &quot;&quot;, id: 19, branchId: 0, recurseId: &#45;1, attributes: 512, notes: &quot;&quot; -->
<g id="node20" class="node">
<title>19</title>
<ellipse fill="none" stroke="black" cx="661.44" cy="-18" rx="32.41" ry="18"/>
<text xml:space="preserve" text-anchor="middle" x="661.44" y="-12.95" font-family="Times New Roman,serif" font-size="14.00">varint</text>
</g>
<!-- 18&#45;&gt;19 -->
<g id="edge19" class="edge">
<title>18&#45;&gt;19</title>
<path fill="none" stroke="black" d="M513.68,-18C541.13,-18 584.64,-18 617.17,-18"/>
<polygon fill="black" stroke="black" points="617.09,-21.5 627.09,-18 617.09,-14.5 617.09,-21.5"/>
</g>
</g>
</svg>
