<?xml version="1.0" encoding="UTF-8" standalone="no"?>
<!DOCTYPE svg PUBLIC "-//W3C//DTD SVG 1.1//EN"
 "http://www.w3.org/Graphics/SVG/1.1/DTD/svg11.dtd">
<!-- Generated by graphviz version 2.46.1 (20210213.1702)
 -->
<!-- Title: SetTitlePacket Pages: 1 -->
<svg width="423pt" height="368pt"
 viewBox="0.00 0.00 423.17 368.00" xmlns="http://www.w3.org/2000/svg" xmlns:xlink="http://www.w3.org/1999/xlink">
<g id="graph0" class="graph" transform="scale(1 1) rotate(0) translate(4 364)">
<title>SetTitlePacket</title>
<polygon fill="white" stroke="transparent" points="-4,4 -4,-364 419.17,-364 419.17,4 -4,4"/>
<!-- 0 -->
<!-- name: &quot;SetTitlePacket&quot;, typeName: &quot;&quot;, id: 0, branchId: 88, recurseId: &#45;1, attributes: 0, notes: &quot;&quot; -->
<g id="node1" class="node">
<title>0</title>
<ellipse fill="none" stroke="black" cx="63.04" cy="-180" rx="63.09" ry="18"/>
<text text-anchor="middle" x="63.04" y="-176.3" font-family="Times New Roman,serif" font-size="14.00">SetTitlePacket</text>
</g>
<!-- 1 -->
<!-- name: &quot;Title Type&quot;, typeName: &quot;&quot;, id: 1, branchId: 0, recurseId: &#45;1, attributes: 0, notes: &quot;enumeration: SetTitlePacket::TitleType&quot; -->
<g id="node2" class="node">
<title>1</title>
<ellipse fill="none" stroke="black" cx="240.08" cy="-342" rx="48.19" ry="18"/>
<text text-anchor="middle" x="240.08" y="-338.3" font-family="Times New Roman,serif" font-size="14.00">Title Type</text>
</g>
<!-- 0&#45;&gt;1 -->
<g id="edge1" class="edge">
<title>0&#45;&gt;1</title>
<path fill="none" stroke="black" d="M72.57,-198.01C87.04,-226.75 119.11,-283 162.09,-315 170.1,-320.96 179.54,-325.69 189.01,-329.41"/>
<polygon fill="black" stroke="black" points="187.84,-332.71 198.44,-332.8 190.21,-326.12 187.84,-332.71"/>
</g>
<!-- 3 -->
<!-- name: &quot;Title Text&quot;, typeName: &quot;&quot;, id: 3, branchId: 0, recurseId: &#45;1, attributes: 0, notes: &quot;&quot; -->
<g id="node4" class="node">
<title>3</title>
<ellipse fill="none" stroke="black" cx="240.08" cy="-288" rx="46.29" ry="18"/>
<text text-anchor="middle" x="240.08" y="-284.3" font-family="Times New Roman,serif" font-size="14.00">Title Text</text>
</g>
<!-- 0&#45;&gt;3 -->
<g id="edge3" class="edge">
<title>0&#45;&gt;3</title>
<path fill="none" stroke="black" d="M81.05,-197.3C99.57,-215.31 130.75,-243.31 162.09,-261 171.34,-266.22 181.79,-270.7 191.93,-274.43"/>
<polygon fill="black" stroke="black" points="190.91,-277.78 201.51,-277.77 193.21,-271.17 190.91,-277.78"/>
</g>
<!-- 5 -->
<!-- name: &quot;Fade In Time&quot;, typeName: &quot;&quot;, id: 5, branchId: 0, recurseId: &#45;1, attributes: 0, notes: &quot;&quot; -->
<g id="node6" class="node">
<title>5</title>
<ellipse fill="none" stroke="black" cx="240.08" cy="-234" rx="59.59" ry="18"/>
<text text-anchor="middle" x="240.08" y="-230.3" font-family="Times New Roman,serif" font-size="14.00">Fade In Time</text>
</g>
<!-- 0&#45;&gt;5 -->
<g id="edge5" class="edge">
<title>0&#45;&gt;5</title>
<path fill="none" stroke="black" d="M106.42,-193.07C131,-200.66 162.12,-210.26 188.05,-218.26"/>
<polygon fill="black" stroke="black" points="187.12,-221.63 197.7,-221.23 189.18,-214.94 187.12,-221.63"/>
</g>
<!-- 7 -->
<!-- name: &quot;Stay Time&quot;, typeName: &quot;&quot;, id: 7, branchId: 0, recurseId: &#45;1, attributes: 0, notes: &quot;&quot; -->
<g id="node8" class="node">
<title>7</title>
<ellipse fill="none" stroke="black" cx="240.08" cy="-180" rx="48.19" ry="18"/>
<text text-anchor="middle" x="240.08" y="-176.3" font-family="Times New Roman,serif" font-size="14.00">Stay Time</text>
</g>
<!-- 0&#45;&gt;7 -->
<g id="edge7" class="edge">
<title>0&#45;&gt;7</title>
<path fill="none" stroke="black" d="M126.25,-180C144.32,-180 163.97,-180 181.73,-180"/>
<polygon fill="black" stroke="black" points="181.94,-183.5 191.94,-180 181.94,-176.5 181.94,-183.5"/>
</g>
<!-- 9 -->
<!-- name: &quot;Fade Out Time&quot;, typeName: &quot;&quot;, id: 9, branchId: 0, recurseId: &#45;1, attributes: 0, notes: &quot;&quot; -->
<g id="node10" class="node">
<title>9</title>
<ellipse fill="none" stroke="black" cx="240.08" cy="-126" rx="65.79" ry="18"/>
<text text-anchor="middle" x="240.08" y="-122.3" font-family="Times New Roman,serif" font-size="14.00">Fade Out Time</text>
</g>
<!-- 0&#45;&gt;9 -->
<g id="edge9" class="edge">
<title>0&#45;&gt;9</title>
<path fill="none" stroke="black" d="M106.42,-166.93C130.35,-159.54 160.5,-150.24 186,-142.38"/>
<polygon fill="black" stroke="black" points="187.36,-145.62 195.88,-139.33 185.3,-138.93 187.36,-145.62"/>
</g>
<!-- 11 -->
<!-- name: &quot;Xuid&quot;, typeName: &quot;&quot;, id: 11, branchId: 0, recurseId: &#45;1, attributes: 0, notes: &quot;&quot; -->
<g id="node12" class="node">
<title>11</title>
<ellipse fill="none" stroke="black" cx="240.08" cy="-72" rx="28.7" ry="18"/>
<text text-anchor="middle" x="240.08" y="-68.3" font-family="Times New Roman,serif" font-size="14.00">Xuid</text>
</g>
<!-- 0&#45;&gt;11 -->
<g id="edge11" class="edge">
<title>0&#45;&gt;11</title>
<path fill="none" stroke="black" d="M81.05,-162.7C99.57,-144.69 130.75,-116.69 162.09,-99 174.87,-91.79 189.91,-85.99 203.3,-81.64"/>
<polygon fill="black" stroke="black" points="204.62,-84.9 213.14,-78.61 202.55,-78.21 204.62,-84.9"/>
</g>
<!-- 13 -->
<!-- name: &quot;Platform Online Id&quot;, typeName: &quot;&quot;, id: 13, branchId: 0, recurseId: &#45;1, attributes: 0, notes: &quot;&quot; -->
<g id="node14" class="node">
<title>13</title>
<ellipse fill="none" stroke="black" cx="240.08" cy="-18" rx="77.99" ry="18"/>
<text text-anchor="middle" x="240.08" y="-14.3" font-family="Times New Roman,serif" font-size="14.00">Platform Online Id</text>
</g>
<!-- 0&#45;&gt;13 -->
<g id="edge13" class="edge">
<title>0&#45;&gt;13</title>
<path fill="none" stroke="black" d="M72.57,-161.99C87.04,-133.25 119.11,-77 162.09,-45 166.89,-41.42 172.21,-38.29 177.74,-35.56"/>
<polygon fill="black" stroke="black" points="179.5,-38.6 187.19,-31.32 176.64,-32.21 179.5,-38.6"/>
</g>
<!-- 2 -->
<!-- name: &quot;varint&quot;, typeName: &quot;&quot;, id: 2, branchId: 0, recurseId: &#45;1, attributes: 512, notes: &quot;&quot; -->
<g id="node3" class="node">
<title>2</title>
<ellipse fill="none" stroke="black" cx="384.62" cy="-342" rx="30.59" ry="18"/>
<text text-anchor="middle" x="384.62" y="-338.3" font-family="Times New Roman,serif" font-size="14.00">varint</text>
</g>
<!-- 1&#45;&gt;2 -->
<g id="edge2" class="edge">
<title>1&#45;&gt;2</title>
<path fill="none" stroke="black" d="M288.55,-342C306.39,-342 326.47,-342 343.57,-342"/>
<polygon fill="black" stroke="black" points="343.79,-345.5 353.79,-342 343.79,-338.5 343.79,-345.5"/>
</g>
<!-- 4 -->
<!-- name: &quot;string&quot;, typeName: &quot;&quot;, id: 4, branchId: 0, recurseId: &#45;1, attributes: 512, notes: &quot;&quot; -->
<g id="node5" class="node">
<title>4</title>
<ellipse fill="none" stroke="black" cx="384.62" cy="-288" rx="30.59" ry="18"/>
<text text-anchor="middle" x="384.62" y="-284.3" font-family="Times New Roman,serif" font-size="14.00">string</text>
</g>
<!-- 3&#45;&gt;4 -->
<g id="edge4" class="edge">
<title>3&#45;&gt;4</title>
<path fill="none" stroke="black" d="M286.57,-288C304.96,-288 326,-288 343.77,-288"/>
<polygon fill="black" stroke="black" points="343.82,-291.5 353.82,-288 343.82,-284.5 343.82,-291.5"/>
</g>
<!-- 6 -->
<!-- name: &quot;varint&quot;, typeName: &quot;&quot;, id: 6, branchId: 0, recurseId: &#45;1, attributes: 512, notes: &quot;&quot; -->
<g id="node7" class="node">
<title>6</title>
<ellipse fill="none" stroke="black" cx="384.62" cy="-234" rx="30.59" ry="18"/>
<text text-anchor="middle" x="384.62" y="-230.3" font-family="Times New Roman,serif" font-size="14.00">varint</text>
</g>
<!-- 5&#45;&gt;6 -->
<g id="edge6" class="edge">
<title>5&#45;&gt;6</title>
<path fill="none" stroke="black" d="M299.88,-234C314.53,-234 329.89,-234 343.41,-234"/>
<polygon fill="black" stroke="black" points="343.8,-237.5 353.8,-234 343.8,-230.5 343.8,-237.5"/>
</g>
<!-- 8 -->
<!-- name: &quot;varint&quot;, typeName: &quot;&quot;, id: 8, branchId: 0, recurseId: &#45;1, attributes: 512, notes: &quot;&quot; -->
<g id="node9" class="node">
<title>8</title>
<ellipse fill="none" stroke="black" cx="384.62" cy="-180" rx="30.59" ry="18"/>
<text text-anchor="middle" x="384.62" y="-176.3" font-family="Times New Roman,serif" font-size="14.00">varint</text>
</g>
<!-- 7&#45;&gt;8 -->
<g id="edge8" class="edge">
<title>7&#45;&gt;8</title>
<path fill="none" stroke="black" d="M288.55,-180C306.39,-180 326.47,-180 343.57,-180"/>
<polygon fill="black" stroke="black" points="343.79,-183.5 353.79,-180 343.79,-176.5 343.79,-183.5"/>
</g>
<!-- 10 -->
<!-- name: &quot;varint&quot;, typeName: &quot;&quot;, id: 10, branchId: 0, recurseId: &#45;1, attributes: 512, notes: &quot;&quot; -->
<g id="node11" class="node">
<title>10</title>
<ellipse fill="none" stroke="black" cx="384.62" cy="-126" rx="30.59" ry="18"/>
<text text-anchor="middle" x="384.62" y="-122.3" font-family="Times New Roman,serif" font-size="14.00">varint</text>
</g>
<!-- 9&#45;&gt;10 -->
<g id="edge10" class="edge">
<title>9&#45;&gt;10</title>
<path fill="none" stroke="black" d="M306.1,-126C318.91,-126 332,-126 343.69,-126"/>
<polygon fill="black" stroke="black" points="343.98,-129.5 353.98,-126 343.98,-122.5 343.98,-129.5"/>
</g>
<!-- 12 -->
<!-- name: &quot;string&quot;, typeName: &quot;&quot;, id: 12, branchId: 0, recurseId: &#45;1, attributes: 512, notes: &quot;&quot; -->
<g id="node13" class="node">
<title>12</title>
<ellipse fill="none" stroke="black" cx="384.62" cy="-72" rx="30.59" ry="18"/>
<text text-anchor="middle" x="384.62" y="-68.3" font-family="Times New Roman,serif" font-size="14.00">string</text>
</g>
<!-- 11&#45;&gt;12 -->
<g id="edge12" class="edge">
<title>11&#45;&gt;12</title>
<path fill="none" stroke="black" d="M268.9,-72C290.22,-72 319.91,-72 343.75,-72"/>
<polygon fill="black" stroke="black" points="343.91,-75.5 353.91,-72 343.91,-68.5 343.91,-75.5"/>
</g>
<!-- 14 -->
<!-- name: &quot;string&quot;, typeName: &quot;&quot;, id: 14, branchId: 0, recurseId: &#45;1, attributes: 512, notes: &quot;&quot; -->
<g id="node15" class="node">
<title>14</title>
<ellipse fill="none" stroke="black" cx="384.62" cy="-18" rx="30.59" ry="18"/>
<text text-anchor="middle" x="384.62" y="-14.3" font-family="Times New Roman,serif" font-size="14.00">string</text>
</g>
<!-- 13&#45;&gt;14 -->
<g id="edge14" class="edge">
<title>13&#45;&gt;14</title>
<path fill="none" stroke="black" d="M318.19,-18C327.04,-18 335.77,-18 343.82,-18"/>
<polygon fill="black" stroke="black" points="343.98,-21.5 353.98,-18 343.98,-14.5 343.98,-21.5"/>
</g>
</g>
</svg>
