<?xml version="1.0" encoding="UTF-8" standalone="no"?>
<!DOCTYPE svg PUBLIC "-//W3C//DTD SVG 1.1//EN"
 "http://www.w3.org/Graphics/SVG/1.1/DTD/svg11.dtd">
<!-- Generated by graphviz version 13.1.2 (20250808.2320)
 -->
<!-- Title: SetTitlePacket Pages: 1 -->
<svg width="650pt" height="422pt"
 viewBox="0.00 0.00 650.00 422.00" xmlns="http://www.w3.org/2000/svg" xmlns:xlink="http://www.w3.org/1999/xlink">
<g id="graph0" class="graph" transform="scale(1 1) rotate(0) translate(4 418)">
<title>SetTitlePacket</title>
<polygon fill="white" stroke="none" points="-4,4 -4,-418 646.15,-418 646.15,4 -4,4"/>
<!-- 0 -->
<!-- name: &quot;SetTitlePacket&quot;, typeName: &quot;&quot;, id: 0, branchId: 0, recurseId: &#45;1, attributes: 0, notes: &quot;Used by 3rd party content for the purpose of showing ui banners&quot; -->
<g id="node1" class="node">
<title>0</title>
<ellipse fill="none" stroke="black" cx="64.66" cy="-207" rx="64.66" ry="18"/>
<text xml:space="preserve" text-anchor="middle" x="64.66" y="-201.95" font-family="Times New Roman,serif" font-size="14.00">SetTitlePacket</text>
</g>
<!-- 1 -->
<!-- name: &quot;Title Type&quot;, typeName: &quot;&quot;, id: 1, branchId: 0, recurseId: &#45;1, attributes: 0, notes: &quot;&quot; -->
<g id="node2" class="node">
<title>1</title>
<ellipse fill="none" stroke="black" cx="259.66" cy="-396" rx="48.79" ry="18"/>
<text xml:space="preserve" text-anchor="middle" x="259.66" y="-390.95" font-family="Times New Roman,serif" font-size="14.00">Title Type</text>
</g>
<!-- 0&#45;&gt;1 -->
<g id="edge1" class="edge">
<title>0&#45;&gt;1</title>
<path fill="none" stroke="black" d="M71.87,-225.38C84.19,-259.05 114.99,-330.71 165.32,-369 176.12,-377.22 189.35,-382.94 202.42,-386.92"/>
<polygon fill="black" stroke="black" points="201.28,-390.24 211.85,-389.47 203.11,-383.48 201.28,-390.24"/>
</g>
<!-- 3 -->
<!-- name: &quot;Title Text&quot;, typeName: &quot;&quot;, id: 3, branchId: 0, recurseId: &#45;1, attributes: 0, notes: &quot;&quot; -->
<g id="node4" class="node">
<title>3</title>
<ellipse fill="none" stroke="black" cx="259.66" cy="-342" rx="46.75" ry="18"/>
<text xml:space="preserve" text-anchor="middle" x="259.66" y="-336.95" font-family="Times New Roman,serif" font-size="14.00">Title Text</text>
</g>
<!-- 0&#45;&gt;3 -->
<g id="edge3" class="edge">
<title>0&#45;&gt;3</title>
<path fill="none" stroke="black" d="M77.3,-224.72C93.97,-248.72 126.9,-291.26 165.32,-315 177.43,-322.49 191.71,-327.97 205.41,-331.96"/>
<polygon fill="black" stroke="black" points="204.18,-335.26 214.75,-334.46 205.99,-328.5 204.18,-335.26"/>
</g>
<!-- 5 -->
<!-- name: &quot;Fade In Time&quot;, typeName: &quot;&quot;, id: 5, branchId: 0, recurseId: &#45;1, attributes: 0, notes: &quot;&quot; -->
<g id="node6" class="node">
<title>5</title>
<ellipse fill="none" stroke="black" cx="259.66" cy="-288" rx="61.08" ry="18"/>
<text xml:space="preserve" text-anchor="middle" x="259.66" y="-282.95" font-family="Times New Roman,serif" font-size="14.00">Fade In Time</text>
</g>
<!-- 0&#45;&gt;5 -->
<g id="edge5" class="edge">
<title>0&#45;&gt;5</title>
<path fill="none" stroke="black" d="M92.38,-223.53C112.02,-235.16 139.64,-250.47 165.32,-261 176.67,-265.65 189.11,-269.84 201.1,-273.46"/>
<polygon fill="black" stroke="black" points="199.9,-276.75 210.48,-276.19 201.86,-270.03 199.9,-276.75"/>
</g>
<!-- 7 -->
<!-- name: &quot;Stay Time&quot;, typeName: &quot;&quot;, id: 7, branchId: 0, recurseId: &#45;1, attributes: 0, notes: &quot;&quot; -->
<g id="node8" class="node">
<title>7</title>
<ellipse fill="none" stroke="black" cx="259.66" cy="-234" rx="49.3" ry="18"/>
<text xml:space="preserve" text-anchor="middle" x="259.66" y="-228.95" font-family="Times New Roman,serif" font-size="14.00">Stay Time</text>
</g>
<!-- 0&#45;&gt;7 -->
<g id="edge7" class="edge">
<title>0&#45;&gt;7</title>
<path fill="none" stroke="black" d="M123.04,-215.03C148,-218.52 177.16,-222.6 202.03,-226.08"/>
<polygon fill="black" stroke="black" points="201.24,-229.5 211.63,-227.42 202.21,-222.57 201.24,-229.5"/>
</g>
<!-- 9 -->
<!-- name: &quot;Fade Out Time&quot;, typeName: &quot;&quot;, id: 9, branchId: 0, recurseId: &#45;1, attributes: 0, notes: &quot;&quot; -->
<g id="node10" class="node">
<title>9</title>
<ellipse fill="none" stroke="black" cx="259.66" cy="-180" rx="67.22" ry="18"/>
<text xml:space="preserve" text-anchor="middle" x="259.66" y="-174.95" font-family="Times New Roman,serif" font-size="14.00">Fade Out Time</text>
</g>
<!-- 0&#45;&gt;9 -->
<g id="edge9" class="edge">
<title>0&#45;&gt;9</title>
<path fill="none" stroke="black" d="M123.04,-198.97C143.48,-196.11 166.74,-192.86 188.15,-189.86"/>
<polygon fill="black" stroke="black" points="188.57,-193.34 197.99,-188.49 187.6,-186.41 188.57,-193.34"/>
</g>
<!-- 11 -->
<!-- name: &quot;Xuid&quot;, typeName: &quot;&quot;, id: 11, branchId: 0, recurseId: &#45;1, attributes: 0, notes: &quot;&quot; -->
<g id="node12" class="node">
<title>11</title>
<ellipse fill="none" stroke="black" cx="259.66" cy="-126" rx="29.34" ry="18"/>
<text xml:space="preserve" text-anchor="middle" x="259.66" y="-120.95" font-family="Times New Roman,serif" font-size="14.00">Xuid</text>
</g>
<!-- 0&#45;&gt;11 -->
<g id="edge11" class="edge">
<title>0&#45;&gt;11</title>
<path fill="none" stroke="black" d="M92.38,-190.47C112.02,-178.84 139.64,-163.53 165.32,-153 183.11,-145.7 203.58,-139.55 220.8,-134.97"/>
<polygon fill="black" stroke="black" points="221.31,-138.45 230.12,-132.57 219.56,-131.67 221.31,-138.45"/>
</g>
<!-- 13 -->
<!-- name: &quot;Platform Online Id&quot;, typeName: &quot;&quot;, id: 13, branchId: 0, recurseId: &#45;1, attributes: 0, notes: &quot;&quot; -->
<g id="node14" class="node">
<title>13</title>
<ellipse fill="none" stroke="black" cx="259.66" cy="-72" rx="81.55" ry="18"/>
<text xml:space="preserve" text-anchor="middle" x="259.66" y="-66.95" font-family="Times New Roman,serif" font-size="14.00">Platform Online Id</text>
</g>
<!-- 0&#45;&gt;13 -->
<g id="edge13" class="edge">
<title>0&#45;&gt;13</title>
<path fill="none" stroke="black" d="M77.3,-189.28C93.97,-165.28 126.9,-122.74 165.32,-99 172.22,-94.73 179.83,-91.11 187.63,-88.05"/>
<polygon fill="black" stroke="black" points="188.69,-91.39 196.92,-84.73 186.33,-84.8 188.69,-91.39"/>
</g>
<!-- 15 -->
<!-- name: &quot;Filtered Title Message&quot;, typeName: &quot;&quot;, id: 15, branchId: 0, recurseId: &#45;1, attributes: 0, notes: &quot;&quot; -->
<g id="node16" class="node">
<title>15</title>
<ellipse fill="none" stroke="black" cx="259.66" cy="-18" rx="94.34" ry="18"/>
<text xml:space="preserve" text-anchor="middle" x="259.66" y="-12.95" font-family="Times New Roman,serif" font-size="14.00">Filtered Title Message</text>
</g>
<!-- 0&#45;&gt;15 -->
<g id="edge15" class="edge">
<title>0&#45;&gt;15</title>
<path fill="none" stroke="black" d="M71.87,-188.62C84.19,-154.95 114.99,-83.29 165.32,-45 170.18,-41.3 175.54,-38.1 181.16,-35.34"/>
<polygon fill="black" stroke="black" points="182.34,-38.65 190.11,-31.44 179.54,-32.23 182.34,-38.65"/>
</g>
<!-- 2 -->
<!-- name: &quot;enum SetTitlePacket TitleType&quot;, typeName: &quot;&quot;, id: 2, branchId: 0, recurseId: &#45;1, attributes: 512, notes: &quot;&quot; -->
<g id="node3" class="node">
<title>2</title>
<ellipse fill="none" stroke="black" cx="516.08" cy="-396" rx="126.08" ry="18"/>
<text xml:space="preserve" text-anchor="middle" x="516.08" y="-390.95" font-family="Times New Roman,serif" font-size="14.00">enum SetTitlePacket TitleType</text>
</g>
<!-- 1&#45;&gt;2 -->
<g id="edge2" class="edge">
<title>1&#45;&gt;2</title>
<path fill="none" stroke="black" d="M308.81,-396C328.86,-396 353.26,-396 378.15,-396"/>
<polygon fill="black" stroke="black" points="378.09,-399.5 388.09,-396 378.09,-392.5 378.09,-399.5"/>
</g>
<!-- 4 -->
<!-- name: &quot;string&quot;, typeName: &quot;&quot;, id: 4, branchId: 0, recurseId: &#45;1, attributes: 512, notes: &quot;&quot; -->
<g id="node5" class="node">
<title>4</title>
<ellipse fill="none" stroke="black" cx="516.08" cy="-342" rx="31.9" ry="18"/>
<text xml:space="preserve" text-anchor="middle" x="516.08" y="-336.95" font-family="Times New Roman,serif" font-size="14.00">string</text>
</g>
<!-- 3&#45;&gt;4 -->
<g id="edge4" class="edge">
<title>3&#45;&gt;4</title>
<path fill="none" stroke="black" d="M306.73,-342C353.89,-342 426.58,-342 472.45,-342"/>
<polygon fill="black" stroke="black" points="472.27,-345.5 482.27,-342 472.27,-338.5 472.27,-345.5"/>
</g>
<!-- 6 -->
<!-- name: &quot;varint&quot;, typeName: &quot;&quot;, id: 6, branchId: 0, recurseId: &#45;1, attributes: 512, notes: &quot;&quot; -->
<g id="node7" class="node">
<title>6</title>
<ellipse fill="none" stroke="black" cx="516.08" cy="-288" rx="32.41" ry="18"/>
<text xml:space="preserve" text-anchor="middle" x="516.08" y="-282.95" font-family="Times New Roman,serif" font-size="14.00">varint</text>
</g>
<!-- 5&#45;&gt;6 -->
<g id="edge6" class="edge">
<title>5&#45;&gt;6</title>
<path fill="none" stroke="black" d="M320.95,-288C367.46,-288 430.65,-288 472.13,-288"/>
<polygon fill="black" stroke="black" points="471.96,-291.5 481.96,-288 471.96,-284.5 471.96,-291.5"/>
</g>
<!-- 8 -->
<!-- name: &quot;varint&quot;, typeName: &quot;&quot;, id: 8, branchId: 0, recurseId: &#45;1, attributes: 512, notes: &quot;&quot; -->
<g id="node9" class="node">
<title>8</title>
<ellipse fill="none" stroke="black" cx="516.08" cy="-234" rx="32.41" ry="18"/>
<text xml:space="preserve" text-anchor="middle" x="516.08" y="-228.95" font-family="Times New Roman,serif" font-size="14.00">varint</text>
</g>
<!-- 7&#45;&gt;8 -->
<g id="edge8" class="edge">
<title>7&#45;&gt;8</title>
<path fill="none" stroke="black" d="M309.41,-234C356.43,-234 426.92,-234 471.95,-234"/>
<polygon fill="black" stroke="black" points="471.86,-237.5 481.86,-234 471.86,-230.5 471.86,-237.5"/>
</g>
<!-- 10 -->
<!-- name: &quot;varint&quot;, typeName: &quot;&quot;, id: 10, branchId: 0, recurseId: &#45;1, attributes: 512, notes: &quot;&quot; -->
<g id="node11" class="node">
<title>10</title>
<ellipse fill="none" stroke="black" cx="516.08" cy="-180" rx="32.41" ry="18"/>
<text xml:space="preserve" text-anchor="middle" x="516.08" y="-174.95" font-family="Times New Roman,serif" font-size="14.00">varint</text>
</g>
<!-- 9&#45;&gt;10 -->
<g id="edge10" class="edge">
<title>9&#45;&gt;10</title>
<path fill="none" stroke="black" d="M327.17,-180C372.9,-180 432.3,-180 471.96,-180"/>
<polygon fill="black" stroke="black" points="471.83,-183.5 481.83,-180 471.83,-176.5 471.83,-183.5"/>
</g>
<!-- 12 -->
<!-- name: &quot;string&quot;, typeName: &quot;&quot;, id: 12, branchId: 0, recurseId: &#45;1, attributes: 512, notes: &quot;&quot; -->
<g id="node13" class="node">
<title>12</title>
<ellipse fill="none" stroke="black" cx="516.08" cy="-126" rx="31.9" ry="18"/>
<text xml:space="preserve" text-anchor="middle" x="516.08" y="-120.95" font-family="Times New Roman,serif" font-size="14.00">string</text>
</g>
<!-- 11&#45;&gt;12 -->
<g id="edge12" class="edge">
<title>11&#45;&gt;12</title>
<path fill="none" stroke="black" d="M289.35,-126C333.96,-126 420.21,-126 472.22,-126"/>
<polygon fill="black" stroke="black" points="472.2,-129.5 482.2,-126 472.2,-122.5 472.2,-129.5"/>
</g>
<!-- 14 -->
<!-- name: &quot;string&quot;, typeName: &quot;&quot;, id: 14, branchId: 0, recurseId: &#45;1, attributes: 512, notes: &quot;&quot; -->
<g id="node15" class="node">
<title>14</title>
<ellipse fill="none" stroke="black" cx="516.08" cy="-72" rx="31.9" ry="18"/>
<text xml:space="preserve" text-anchor="middle" x="516.08" y="-66.95" font-family="Times New Roman,serif" font-size="14.00">string</text>
</g>
<!-- 13&#45;&gt;14 -->
<g id="edge14" class="edge">
<title>13&#45;&gt;14</title>
<path fill="none" stroke="black" d="M341.51,-72C384.91,-72 436.65,-72 472.29,-72"/>
<polygon fill="black" stroke="black" points="472.2,-75.5 482.2,-72 472.2,-68.5 472.2,-75.5"/>
</g>
<!-- 16 -->
<!-- name: &quot;string&quot;, typeName: &quot;&quot;, id: 16, branchId: 0, recurseId: &#45;1, attributes: 512, notes: &quot;&quot; -->
<g id="node17" class="node">
<title>16</title>
<ellipse fill="none" stroke="black" cx="516.08" cy="-18" rx="31.9" ry="18"/>
<text xml:space="preserve" text-anchor="middle" x="516.08" y="-12.95" font-family="Times New Roman,serif" font-size="14.00">string</text>
</g>
<!-- 15&#45;&gt;16 -->
<g id="edge16" class="edge">
<title>15&#45;&gt;16</title>
<path fill="none" stroke="black" d="M354.31,-18C394.95,-18 440.5,-18 472.71,-18"/>
<polygon fill="black" stroke="black" points="472.43,-21.5 482.43,-18 472.43,-14.5 472.43,-21.5"/>
</g>
</g>
</svg>
