<?xml version="1.0" encoding="UTF-8" standalone="no"?>
<!DOCTYPE svg PUBLIC "-//W3C//DTD SVG 1.1//EN"
 "http://www.w3.org/Graphics/SVG/1.1/DTD/svg11.dtd">
<!-- Generated by graphviz version 12.2.0 (20241103.1931)
 -->
<!-- Title: SetTimePacket Pages: 1 -->
<svg width="341pt" height="44pt"
 viewBox="0.00 0.00 341.02 44.00" xmlns="http://www.w3.org/2000/svg" xmlns:xlink="http://www.w3.org/1999/xlink">
<g id="graph0" class="graph" transform="scale(1 1) rotate(0) translate(4 40)">
<title>SetTimePacket</title>
<polygon fill="white" stroke="none" points="-4,4 -4,-40 337.02,-40 337.02,4 -4,4"/>
<!-- 0 -->
<!-- name: &quot;SetTimePacket&quot;, typeName: &quot;&quot;, id: 0, branchId: 10, recurseId: &#45;1, attributes: 0, notes: &quot;&quot; -->
<g id="node1" class="node">
<title>0</title>
<ellipse fill="none" stroke="black" cx="67.22" cy="-18" rx="67.22" ry="18"/>
<text text-anchor="middle" x="67.22" y="-12.95" font-family="Times New Roman,serif" font-size="14.00">SetTimePacket</text>
</g>
<!-- 1 -->
<!-- name: &quot;Time&quot;, typeName: &quot;&quot;, id: 1, branchId: 0, recurseId: &#45;1, attributes: 0, notes: &quot;&quot; -->
<g id="node2" class="node">
<title>1</title>
<ellipse fill="none" stroke="black" cx="201.31" cy="-18" rx="30.88" ry="18"/>
<text text-anchor="middle" x="201.31" y="-12.95" font-family="Times New Roman,serif" font-size="14.00">Time</text>
</g>
<!-- 0&#45;&gt;1 -->
<g id="edge1" class="edge">
<title>0&#45;&gt;1</title>
<path fill="none" stroke="black" d="M134.65,-18C142.93,-18 151.2,-18 158.94,-18"/>
<polygon fill="black" stroke="black" points="158.7,-21.5 168.7,-18 158.7,-14.5 158.7,-21.5"/>
</g>
<!-- 2 -->
<!-- name: &quot;varint&quot;, typeName: &quot;&quot;, id: 2, branchId: 0, recurseId: &#45;1, attributes: 512, notes: &quot;&quot; -->
<g id="node3" class="node">
<title>2</title>
<ellipse fill="none" stroke="black" cx="300.61" cy="-18" rx="32.41" ry="18"/>
<text text-anchor="middle" x="300.61" y="-12.95" font-family="Times New Roman,serif" font-size="14.00">varint</text>
</g>
<!-- 1&#45;&gt;2 -->
<g id="edge2" class="edge">
<title>1&#45;&gt;2</title>
<path fill="none" stroke="black" d="M232.56,-18C240.22,-18 248.6,-18 256.75,-18"/>
<polygon fill="black" stroke="black" points="256.52,-21.5 266.52,-18 256.52,-14.5 256.52,-21.5"/>
</g>
</g>
</svg>
