<?xml version="1.0" encoding="UTF-8" standalone="no"?>
<!DOCTYPE svg PUBLIC "-//W3C//DTD SVG 1.1//EN"
 "http://www.w3.org/Graphics/SVG/1.1/DTD/svg11.dtd">
<!-- Generated by graphviz version 14.1.1 (20251213.1925)
 -->
<!-- Title: ShapedChemistryRecipe Pages: 1 -->
<svg width="1031pt" height="530pt"
 viewBox="0.00 0.00 1031.00 530.00" xmlns="http://www.w3.org/2000/svg" xmlns:xlink="http://www.w3.org/1999/xlink">
<g id="graph0" class="graph" transform="scale(1 1) rotate(0) translate(4 526)">
<title>ShapedChemistryRecipe</title>
<polygon fill="white" stroke="none" points="-4,4 -4,-526 1026.95,-526 1026.95,4 -4,4"/>
<!-- 6 -->
<!-- name: &quot;ShapedChemistryRecipe&quot;, typeName: &quot;&quot;, id: 6, branchId: 0, recurseId: &#45;1, attributes: 0, notes: &quot;&quot; -->
<g id="node1" class="node">
<title>6</title>
<ellipse fill="none" stroke="black" cx="102.53" cy="-274" rx="102.53" ry="18"/>
<text xml:space="preserve" text-anchor="middle" x="102.53" y="-268.95" font-family="Times New Roman,serif" font-size="14.00">ShapedChemistryRecipe</text>
</g>
<!-- 7 -->
<!-- name: &quot;Recipe Id&quot;, typeName: &quot;&quot;, id: 7, branchId: 0, recurseId: &#45;1, attributes: 0, notes: &quot;&quot; -->
<g id="node2" class="node">
<title>7</title>
<ellipse fill="none" stroke="black" cx="677.81" cy="-501" rx="46.75" ry="18"/>
<text xml:space="preserve" text-anchor="middle" x="677.81" y="-495.95" font-family="Times New Roman,serif" font-size="14.00">Recipe Id</text>
</g>
<!-- 6&#45;&gt;7 -->
<g id="edge1" class="edge">
<title>6&#45;&gt;7</title>
<path fill="none" stroke="black" d="M115.07,-292.01C136.06,-323.17 183.67,-386.77 241.06,-418 364.11,-484.95 532.28,-498.66 619.34,-500.99"/>
<polygon fill="black" stroke="black" points="619.23,-504.49 629.3,-501.21 619.38,-497.49 619.23,-504.49"/>
</g>
<!-- 9 -->
<!-- name: &quot;Width&quot;, typeName: &quot;&quot;, id: 9, branchId: 0, recurseId: &#45;1, attributes: 0, notes: &quot;&quot; -->
<g id="node4" class="node">
<title>9</title>
<ellipse fill="none" stroke="black" cx="677.81" cy="-445" rx="33.95" ry="18"/>
<text xml:space="preserve" text-anchor="middle" x="677.81" y="-439.95" font-family="Times New Roman,serif" font-size="14.00">Width</text>
</g>
<!-- 6&#45;&gt;9 -->
<g id="edge3" class="edge">
<title>6&#45;&gt;9</title>
<path fill="none" stroke="black" d="M120.78,-291.92C145.17,-316.08 192.21,-358.53 241.06,-380 374.55,-438.66 550.85,-446 632.19,-445.92"/>
<polygon fill="black" stroke="black" points="631.99,-449.43 641.97,-445.87 631.95,-442.43 631.99,-449.43"/>
</g>
<!-- 11 -->
<!-- name: &quot;Height&quot;, typeName: &quot;&quot;, id: 11, branchId: 0, recurseId: &#45;1, attributes: 0, notes: &quot;&quot; -->
<g id="node6" class="node">
<title>11</title>
<ellipse fill="none" stroke="black" cx="518.13" cy="-388" rx="36" ry="18"/>
<text xml:space="preserve" text-anchor="middle" x="518.13" y="-382.95" font-family="Times New Roman,serif" font-size="14.00">Height</text>
</g>
<!-- 6&#45;&gt;11 -->
<g id="edge5" class="edge">
<title>6&#45;&gt;11</title>
<path fill="none" stroke="black" d="M128.58,-291.58C155.19,-309.33 199.13,-336.06 241.06,-350 318.86,-375.85 414.62,-384.13 470.47,-386.77"/>
<polygon fill="black" stroke="black" points="470.11,-390.26 480.25,-387.19 470.41,-383.26 470.11,-390.26"/>
</g>
<!-- 13 -->
<!-- name: &quot;Ingredient&quot;, typeName: &quot;RecipeIngredient&quot;, id: 13, branchId: 0, recurseId: &#45;1, attributes: 256, notes: &quot;&quot; -->
<g id="node8" class="node">
<title>13</title>
<ellipse fill="none" stroke="black" cx="677.81" cy="-338" rx="48.79" ry="18"/>
<text xml:space="preserve" text-anchor="middle" x="677.81" y="-332.95" font-family="Times New Roman,serif" font-size="14.00">Ingredient</text>
</g>
<!-- 6&#45;&gt;13 -->
<g id="edge7" class="edge">
<title>6&#45;&gt;13</title>
<path fill="none" stroke="black" d="M168,-288.17C190.97,-292.81 217.09,-297.64 241.06,-301 375.17,-319.8 533.93,-330.36 617.89,-335.04"/>
<polygon fill="black" stroke="black" points="617.54,-338.53 627.72,-335.58 617.93,-331.54 617.54,-338.53"/>
</g>
<!-- 15 -->
<!-- name: &quot;Result Items&quot;, typeName: &quot;&quot;, id: 15, branchId: 0, recurseId: &#45;1, attributes: 8, notes: &quot;&quot; -->
<g id="node10" class="node">
<title>15</title>
<ellipse fill="none" stroke="black" cx="324.15" cy="-274" rx="58" ry="18"/>
<text xml:space="preserve" text-anchor="middle" x="324.15" y="-268.95" font-family="Times New Roman,serif" font-size="14.00">Result Items</text>
</g>
<!-- 6&#45;&gt;15 -->
<g id="edge9" class="edge">
<title>6&#45;&gt;15</title>
<path fill="none" stroke="black" d="M205.3,-274C222.01,-274 238.96,-274 254.6,-274"/>
<polygon fill="black" stroke="black" points="254.23,-277.5 264.23,-274 254.23,-270.5 254.23,-277.5"/>
</g>
<!-- 21 -->
<!-- name: &quot;Id&quot;, typeName: &quot;mce::UUID&quot;, id: 21, branchId: 0, recurseId: &#45;1, attributes: 256, notes: &quot;&quot; -->
<g id="node16" class="node">
<title>21</title>
<ellipse fill="none" stroke="black" cx="324.15" cy="-193" rx="27" ry="18"/>
<text xml:space="preserve" text-anchor="middle" x="324.15" y="-187.95" font-family="Times New Roman,serif" font-size="14.00">Id</text>
</g>
<!-- 6&#45;&gt;21 -->
<g id="edge15" class="edge">
<title>6&#45;&gt;21</title>
<path fill="none" stroke="black" d="M148.24,-257.51C190.13,-242.06 251.81,-219.31 289.62,-205.36"/>
<polygon fill="black" stroke="black" points="290.49,-208.77 298.66,-202.03 288.07,-202.21 290.49,-208.77"/>
</g>
<!-- 23 -->
<!-- name: &quot;Tag&quot;, typeName: &quot;&quot;, id: 23, branchId: 0, recurseId: &#45;1, attributes: 0, notes: &quot;As string&quot; -->
<g id="node18" class="node">
<title>23</title>
<ellipse fill="none" stroke="black" cx="324.15" cy="-139" rx="27" ry="18"/>
<text xml:space="preserve" text-anchor="middle" x="324.15" y="-133.95" font-family="Times New Roman,serif" font-size="14.00">Tag</text>
</g>
<!-- 6&#45;&gt;23 -->
<g id="edge17" class="edge">
<title>6&#45;&gt;23</title>
<path fill="none" stroke="black" d="M122.06,-255.94C147.16,-232.34 194.23,-191.09 241.06,-166 255.5,-158.27 272.55,-152.22 287.36,-147.83"/>
<polygon fill="black" stroke="black" points="288.03,-151.27 296.71,-145.2 286.14,-144.53 288.03,-151.27"/>
</g>
<!-- 25 -->
<!-- name: &quot;Priority&quot;, typeName: &quot;&quot;, id: 25, branchId: 0, recurseId: &#45;1, attributes: 0, notes: &quot;&quot; -->
<g id="node20" class="node">
<title>25</title>
<ellipse fill="none" stroke="black" cx="518.13" cy="-76" rx="39.07" ry="18"/>
<text xml:space="preserve" text-anchor="middle" x="518.13" y="-70.95" font-family="Times New Roman,serif" font-size="14.00">Priority</text>
</g>
<!-- 6&#45;&gt;25 -->
<g id="edge19" class="edge">
<title>6&#45;&gt;25</title>
<path fill="none" stroke="black" d="M112.91,-255.85C131.87,-221.21 178.36,-146.12 241.06,-112 312.76,-72.99 409.99,-69.78 467.87,-72.12"/>
<polygon fill="black" stroke="black" points="467.58,-75.61 477.74,-72.59 467.92,-68.61 467.58,-75.61"/>
</g>
<!-- 27 -->
<!-- name: &quot;Assume Symmetry&quot;, typeName: &quot;&quot;, id: 27, branchId: 0, recurseId: &#45;1, attributes: 0, notes: &quot;&quot; -->
<g id="node22" class="node">
<title>27</title>
<ellipse fill="none" stroke="black" cx="324.15" cy="-22" rx="83.08" ry="18"/>
<text xml:space="preserve" text-anchor="middle" x="324.15" y="-16.95" font-family="Times New Roman,serif" font-size="14.00">Assume Symmetry</text>
</g>
<!-- 6&#45;&gt;27 -->
<g id="edge21" class="edge">
<title>6&#45;&gt;27</title>
<path fill="none" stroke="black" d="M111.23,-255.75C128.84,-215.87 175.68,-119.85 241.06,-62 249.61,-54.44 259.85,-47.96 270.14,-42.57"/>
<polygon fill="black" stroke="black" points="271.6,-45.75 279.03,-38.19 268.52,-39.46 271.6,-45.75"/>
</g>
<!-- 8 -->
<!-- name: &quot;string&quot;, typeName: &quot;&quot;, id: 8, branchId: 0, recurseId: &#45;1, attributes: 512, notes: &quot;&quot; -->
<g id="node3" class="node">
<title>8</title>
<ellipse fill="none" stroke="black" cx="892.78" cy="-504" rx="31.9" ry="18"/>
<text xml:space="preserve" text-anchor="middle" x="892.78" y="-498.95" font-family="Times New Roman,serif" font-size="14.00">string</text>
</g>
<!-- 7&#45;&gt;8 -->
<g id="edge2" class="edge">
<title>7&#45;&gt;8</title>
<path fill="none" stroke="black" d="M725.02,-501.65C762,-502.17 813.44,-502.9 849.38,-503.4"/>
<polygon fill="black" stroke="black" points="848.9,-506.9 858.95,-503.54 849,-499.9 848.9,-506.9"/>
</g>
<!-- 10 -->
<!-- name: &quot;varint&quot;, typeName: &quot;&quot;, id: 10, branchId: 0, recurseId: &#45;1, attributes: 512, notes: &quot;&quot; -->
<g id="node5" class="node">
<title>10</title>
<ellipse fill="none" stroke="black" cx="892.78" cy="-450" rx="32.41" ry="18"/>
<text xml:space="preserve" text-anchor="middle" x="892.78" y="-444.95" font-family="Times New Roman,serif" font-size="14.00">varint</text>
</g>
<!-- 9&#45;&gt;10 -->
<g id="edge4" class="edge">
<title>9&#45;&gt;10</title>
<path fill="none" stroke="black" d="M712.09,-445.78C748.93,-446.65 808.43,-448.04 848.77,-448.99"/>
<polygon fill="black" stroke="black" points="848.53,-452.49 858.61,-449.22 848.69,-445.49 848.53,-452.49"/>
</g>
<!-- 12 -->
<!-- name: &quot;varint&quot;, typeName: &quot;&quot;, id: 12, branchId: 0, recurseId: &#45;1, attributes: 512, notes: &quot;&quot; -->
<g id="node7" class="node">
<title>12</title>
<ellipse fill="none" stroke="black" cx="892.78" cy="-396" rx="32.41" ry="18"/>
<text xml:space="preserve" text-anchor="middle" x="892.78" y="-390.95" font-family="Times New Roman,serif" font-size="14.00">varint</text>
</g>
<!-- 11&#45;&gt;12 -->
<g id="edge6" class="edge">
<title>11&#45;&gt;12</title>
<path fill="none" stroke="black" d="M554.52,-388.76C623.24,-390.24 774.5,-393.48 848.83,-395.08"/>
<polygon fill="black" stroke="black" points="848.49,-398.57 858.56,-395.29 848.64,-391.57 848.49,-398.57"/>
</g>
<!-- 14 -->
<!-- name: &quot;RecipeIngredient&quot;, typeName: &quot;&quot;, id: 14, branchId: 0, recurseId: &#45;1, attributes: 512, notes: &quot;&quot; -->
<g id="node9" class="node">
<title>14</title>
<ellipse fill="none" stroke="black" cx="892.78" cy="-342" rx="74.38" ry="18"/>
<text xml:space="preserve" text-anchor="middle" x="892.78" y="-336.95" font-family="Times New Roman,serif" font-size="14.00">RecipeIngredient</text>
</g>
<!-- 13&#45;&gt;14 -->
<g id="edge8" class="edge">
<title>13&#45;&gt;14</title>
<path fill="none" stroke="black" d="M726.87,-338.9C750.59,-339.35 779.92,-339.9 807.23,-340.41"/>
<polygon fill="black" stroke="black" points="806.8,-343.9 816.87,-340.59 806.94,-336.91 806.8,-343.9"/>
</g>
<!-- 16 -->
<!-- name: &quot;List Size&quot;, typeName: &quot;&quot;, id: 16, branchId: 0, recurseId: &#45;1, attributes: 0, notes: &quot;&quot; -->
<g id="node11" class="node">
<title>16</title>
<ellipse fill="none" stroke="black" cx="518.13" cy="-288" rx="43.67" ry="18"/>
<text xml:space="preserve" text-anchor="middle" x="518.13" y="-282.95" font-family="Times New Roman,serif" font-size="14.00">List Size</text>
</g>
<!-- 15&#45;&gt;16 -->
<g id="edge10" class="edge">
<title>15&#45;&gt;16</title>
<path fill="none" stroke="black" d="M381.19,-278.09C407.11,-279.98 437.75,-282.21 463.37,-284.08"/>
<polygon fill="black" stroke="black" points="463.02,-287.56 473.25,-284.8 463.53,-280.58 463.02,-287.56"/>
</g>
<!-- 18 -->
<!-- name: &quot;example element&quot;, typeName: &quot;&quot;, id: 18, branchId: 0, recurseId: &#45;1, attributes: 16, notes: &quot;&quot; -->
<g id="node13" class="node">
<title>18</title>
<ellipse fill="none" stroke="black" stroke-dasharray="1,5" cx="518.13" cy="-234" rx="74.89" ry="18"/>
<text xml:space="preserve" text-anchor="middle" x="518.13" y="-228.95" font-family="Times New Roman,serif" font-size="14.00">example element</text>
</g>
<!-- 15&#45;&gt;18 -->
<g id="edge12" class="edge">
<title>15&#45;&gt;18</title>
<path fill="none" stroke="black" d="M373.1,-264.01C396.12,-259.21 424.12,-253.38 449.28,-248.14"/>
<polygon fill="black" stroke="black" points="449.68,-251.63 458.76,-246.16 448.25,-244.78 449.68,-251.63"/>
</g>
<!-- 17 -->
<!-- name: &quot;unsigned varint&quot;, typeName: &quot;&quot;, id: 17, branchId: 0, recurseId: &#45;1, attributes: 512, notes: &quot;&quot; -->
<g id="node12" class="node">
<title>17</title>
<ellipse fill="none" stroke="black" cx="892.78" cy="-288" rx="68.24" ry="18"/>
<text xml:space="preserve" text-anchor="middle" x="892.78" y="-282.95" font-family="Times New Roman,serif" font-size="14.00">unsigned varint</text>
</g>
<!-- 16&#45;&gt;17 -->
<g id="edge11" class="edge">
<title>16&#45;&gt;17</title>
<path fill="none" stroke="black" d="M562.24,-288C623.38,-288 736.32,-288 812.74,-288"/>
<polygon fill="black" stroke="black" points="812.69,-291.5 822.69,-288 812.69,-284.5 812.69,-291.5"/>
</g>
<!-- 19 -->
<!-- name: &quot;Entry&quot;, typeName: &quot;NetworkItemInstanceDescriptor&quot;, id: 19, branchId: 0, recurseId: &#45;1, attributes: 256, notes: &quot;&quot; -->
<g id="node14" class="node">
<title>19</title>
<ellipse fill="none" stroke="black" cx="677.81" cy="-234" rx="31.39" ry="18"/>
<text xml:space="preserve" text-anchor="middle" x="677.81" y="-228.95" font-family="Times New Roman,serif" font-size="14.00">Entry</text>
</g>
<!-- 18&#45;&gt;19 -->
<g id="edge13" class="edge">
<title>18&#45;&gt;19</title>
<path fill="none" stroke="black" d="M593.35,-234C607.66,-234 622.18,-234 635,-234"/>
<polygon fill="black" stroke="black" points="634.74,-237.5 644.74,-234 634.74,-230.5 634.74,-237.5"/>
</g>
<!-- 20 -->
<!-- name: &quot;NetworkItemInstanceDescriptor&quot;, typeName: &quot;&quot;, id: 20, branchId: 0, recurseId: &#45;1, attributes: 512, notes: &quot;&quot; -->
<g id="node15" class="node">
<title>20</title>
<ellipse fill="none" stroke="black" cx="892.78" cy="-234" rx="130.17" ry="18"/>
<text xml:space="preserve" text-anchor="middle" x="892.78" y="-228.95" font-family="Times New Roman,serif" font-size="14.00">NetworkItemInstanceDescriptor</text>
</g>
<!-- 19&#45;&gt;20 -->
<g id="edge14" class="edge">
<title>19&#45;&gt;20</title>
<path fill="none" stroke="black" d="M709.33,-234C721.08,-234 735.41,-234 750.82,-234"/>
<polygon fill="black" stroke="black" points="750.7,-237.5 760.7,-234 750.7,-230.5 750.7,-237.5"/>
</g>
<!-- 22 -->
<!-- name: &quot;mce::UUID&quot;, typeName: &quot;&quot;, id: 22, branchId: 0, recurseId: &#45;1, attributes: 512, notes: &quot;&quot; -->
<g id="node17" class="node">
<title>22</title>
<ellipse fill="none" stroke="black" cx="892.78" cy="-180" rx="54.93" ry="18"/>
<text xml:space="preserve" text-anchor="middle" x="892.78" y="-174.95" font-family="Times New Roman,serif" font-size="14.00">mce::UUID</text>
</g>
<!-- 21&#45;&gt;22 -->
<g id="edge16" class="edge">
<title>21&#45;&gt;22</title>
<path fill="none" stroke="black" d="M351.34,-192.4C435.66,-190.46 701.79,-184.36 826.32,-181.5"/>
<polygon fill="black" stroke="black" points="826.13,-185.01 836.05,-181.28 825.97,-178.01 826.13,-185.01"/>
</g>
<!-- 24 -->
<!-- name: &quot;string&quot;, typeName: &quot;&quot;, id: 24, branchId: 0, recurseId: &#45;1, attributes: 512, notes: &quot;&quot; -->
<g id="node19" class="node">
<title>24</title>
<ellipse fill="none" stroke="black" cx="892.78" cy="-126" rx="31.9" ry="18"/>
<text xml:space="preserve" text-anchor="middle" x="892.78" y="-120.95" font-family="Times New Roman,serif" font-size="14.00">string</text>
</g>
<!-- 23&#45;&gt;24 -->
<g id="edge18" class="edge">
<title>23&#45;&gt;24</title>
<path fill="none" stroke="black" d="M351.34,-138.4C441.22,-136.34 737.68,-129.54 849.02,-126.98"/>
<polygon fill="black" stroke="black" points="849,-130.48 858.92,-126.75 848.84,-123.48 849,-130.48"/>
</g>
<!-- 26 -->
<!-- name: &quot;varint&quot;, typeName: &quot;&quot;, id: 26, branchId: 0, recurseId: &#45;1, attributes: 512, notes: &quot;&quot; -->
<g id="node21" class="node">
<title>26</title>
<ellipse fill="none" stroke="black" cx="892.78" cy="-72" rx="32.41" ry="18"/>
<text xml:space="preserve" text-anchor="middle" x="892.78" y="-66.95" font-family="Times New Roman,serif" font-size="14.00">varint</text>
</g>
<!-- 25&#45;&gt;26 -->
<g id="edge20" class="edge">
<title>25&#45;&gt;26</title>
<path fill="none" stroke="black" d="M557.6,-75.59C627.68,-74.83 775.63,-73.25 848.86,-72.46"/>
<polygon fill="black" stroke="black" points="848.47,-75.97 858.43,-72.36 848.4,-68.97 848.47,-75.97"/>
</g>
<!-- 28 -->
<!-- name: &quot;bool&quot;, typeName: &quot;&quot;, id: 28, branchId: 0, recurseId: &#45;1, attributes: 512, notes: &quot;&quot; -->
<g id="node23" class="node">
<title>28</title>
<ellipse fill="none" stroke="black" cx="892.78" cy="-18" rx="27.3" ry="18"/>
<text xml:space="preserve" text-anchor="middle" x="892.78" y="-12.95" font-family="Times New Roman,serif" font-size="14.00">bool</text>
</g>
<!-- 27&#45;&gt;28 -->
<g id="edge22" class="edge">
<title>27&#45;&gt;28</title>
<path fill="none" stroke="black" d="M407.54,-21.42C531.94,-20.54 762.83,-18.91 853.66,-18.27"/>
<polygon fill="black" stroke="black" points="853.54,-21.77 863.51,-18.2 853.49,-14.77 853.54,-21.77"/>
</g>
</g>
</svg>
