<?xml version="1.0" encoding="UTF-8" standalone="no"?>
<!DOCTYPE svg PUBLIC "-//W3C//DTD SVG 1.1//EN"
 "http://www.w3.org/Graphics/SVG/1.1/DTD/svg11.dtd">
<!-- Generated by graphviz version 2.46.1 (20210213.1702)
 -->
<!-- Title: ShapedRecipe Pages: 1 -->
<svg width="948pt" height="476pt"
 viewBox="0.00 0.00 947.53 476.00" xmlns="http://www.w3.org/2000/svg" xmlns:xlink="http://www.w3.org/1999/xlink">
<g id="graph0" class="graph" transform="scale(1 1) rotate(0) translate(4 472)">
<title>ShapedRecipe</title>
<polygon fill="white" stroke="transparent" points="-4,4 -4,-472 943.53,-472 943.53,4 -4,4"/>
<!-- 6 -->
<!-- name: &quot;ShapedRecipe&quot;, typeName: &quot;&quot;, id: 6, branchId: 0, recurseId: &#45;1, attributes: 0, notes: &quot;&quot; -->
<g id="node1" class="node">
<title>6</title>
<ellipse fill="none" stroke="black" cx="63.69" cy="-153" rx="63.89" ry="18"/>
<text text-anchor="middle" x="63.69" y="-149.3" font-family="Times New Roman,serif" font-size="14.00">ShapedRecipe</text>
</g>
<!-- 7 -->
<!-- name: &quot;Recipe Unique Id&quot;, typeName: &quot;&quot;, id: 7, branchId: 0, recurseId: &#45;1, attributes: 0, notes: &quot;&quot; -->
<g id="node2" class="node">
<title>7</title>
<ellipse fill="none" stroke="black" cx="409.32" cy="-423" rx="74.99" ry="18"/>
<text text-anchor="middle" x="409.32" y="-419.3" font-family="Times New Roman,serif" font-size="14.00">Recipe Unique Id</text>
</g>
<!-- 6&#45;&gt;7 -->
<g id="edge1" class="edge">
<title>6&#45;&gt;7</title>
<path fill="none" stroke="black" d="M71.4,-171.01C84.42,-203.77 116.08,-273.55 163.39,-315 216.7,-361.71 293.42,-391.09 346.73,-407.22"/>
<polygon fill="black" stroke="black" points="345.82,-410.6 356.41,-410.08 347.81,-403.89 345.82,-410.6"/>
</g>
<!-- 9 -->
<!-- name: &quot;Ingredient Grid&quot;, typeName: &quot;&quot;, id: 9, branchId: 0, recurseId: &#45;1, attributes: 8, notes: &quot;&quot; -->
<g id="node4" class="node">
<title>9</title>
<ellipse fill="none" stroke="black" cx="230.98" cy="-288" rx="65.79" ry="18"/>
<text text-anchor="middle" x="230.98" y="-284.3" font-family="Times New Roman,serif" font-size="14.00">Ingredient Grid</text>
</g>
<!-- 6&#45;&gt;9 -->
<g id="edge3" class="edge">
<title>6&#45;&gt;9</title>
<path fill="none" stroke="black" d="M85.63,-170.1C114.86,-193.97 168.02,-237.39 201.03,-264.35"/>
<polygon fill="black" stroke="black" points="199,-267.21 208.96,-270.83 203.43,-261.79 199,-267.21"/>
</g>
<!-- 18 -->
<!-- name: &quot;Production List&quot;, typeName: &quot;&quot;, id: 18, branchId: 0, recurseId: &#45;1, attributes: 8, notes: &quot;&quot; -->
<g id="node13" class="node">
<title>18</title>
<ellipse fill="none" stroke="black" cx="230.98" cy="-180" rx="67.69" ry="18"/>
<text text-anchor="middle" x="230.98" y="-176.3" font-family="Times New Roman,serif" font-size="14.00">Production List</text>
</g>
<!-- 6&#45;&gt;18 -->
<g id="edge12" class="edge">
<title>6&#45;&gt;18</title>
<path fill="none" stroke="black" d="M119.27,-161.92C133.26,-164.2 148.45,-166.68 162.98,-169.06"/>
<polygon fill="black" stroke="black" points="162.48,-172.52 172.91,-170.68 163.6,-165.61 162.48,-172.52"/>
</g>
<!-- 24 -->
<!-- name: &quot;Recipe ID&quot;, typeName: &quot;mce::UUID&quot;, id: 24, branchId: 0, recurseId: &#45;1, attributes: 256, notes: &quot;&quot; -->
<g id="node19" class="node">
<title>24</title>
<ellipse fill="none" stroke="black" cx="230.98" cy="-126" rx="48.19" ry="18"/>
<text text-anchor="middle" x="230.98" y="-122.3" font-family="Times New Roman,serif" font-size="14.00">Recipe ID</text>
</g>
<!-- 6&#45;&gt;24 -->
<g id="edge18" class="edge">
<title>6&#45;&gt;24</title>
<path fill="none" stroke="black" d="M119.27,-144.08C137.76,-141.06 158.37,-137.7 176.75,-134.7"/>
<polygon fill="black" stroke="black" points="177.4,-138.14 186.71,-133.07 176.27,-131.23 177.4,-138.14"/>
</g>
<!-- 26 -->
<!-- name: &quot;Recipe Tag&quot;, typeName: &quot;&quot;, id: 26, branchId: 0, recurseId: &#45;1, attributes: 0, notes: &quot;Available ones: CARTOGRAPHY_TABLE, CRAFTING_TABLE, SMITHING_TABLE, STONECUTTER, FURNACE_TAG, BLAST_FURNACE_TAG, SMOKER_TAG, CAMPFIRE_TAG, SOUL_CAMPFIRE_TAG&quot; -->
<g id="node21" class="node">
<title>26</title>
<ellipse fill="none" stroke="black" cx="585.06" cy="-74" rx="52.79" ry="18"/>
<text text-anchor="middle" x="585.06" y="-70.3" font-family="Times New Roman,serif" font-size="14.00">Recipe Tag</text>
</g>
<!-- 6&#45;&gt;26 -->
<g id="edge20" class="edge">
<title>6&#45;&gt;26</title>
<path fill="none" stroke="black" d="M88.13,-136.28C107.35,-123.56 135.8,-106.93 163.39,-99 287.58,-63.29 440.66,-64.95 523.64,-69.42"/>
<polygon fill="black" stroke="black" points="523.47,-72.92 533.65,-69.99 523.87,-65.93 523.47,-72.92"/>
</g>
<!-- 28 -->
<!-- name: &quot;Priority&quot;, typeName: &quot;&quot;, id: 28, branchId: 0, recurseId: &#45;1, attributes: 0, notes: &quot;&quot; -->
<g id="node23" class="node">
<title>28</title>
<ellipse fill="none" stroke="black" cx="230.98" cy="-22" rx="37.89" ry="18"/>
<text text-anchor="middle" x="230.98" y="-18.3" font-family="Times New Roman,serif" font-size="14.00">Priority</text>
</g>
<!-- 6&#45;&gt;28 -->
<g id="edge22" class="edge">
<title>6&#45;&gt;28</title>
<path fill="none" stroke="black" d="M81.57,-135.42C100.51,-116.19 132.61,-85.05 163.39,-62 173.68,-54.29 185.54,-46.78 196.37,-40.39"/>
<polygon fill="black" stroke="black" points="198.27,-43.33 205.17,-35.3 194.76,-37.27 198.27,-43.33"/>
</g>
<!-- 8 -->
<!-- name: &quot;string&quot;, typeName: &quot;&quot;, id: 8, branchId: 0, recurseId: &#45;1, attributes: 512, notes: &quot;&quot; -->
<g id="node3" class="node">
<title>8</title>
<ellipse fill="none" stroke="black" cx="812.79" cy="-450" rx="30.59" ry="18"/>
<text text-anchor="middle" x="812.79" y="-446.3" font-family="Times New Roman,serif" font-size="14.00">string</text>
</g>
<!-- 7&#45;&gt;8 -->
<g id="edge2" class="edge">
<title>7&#45;&gt;8</title>
<path fill="none" stroke="black" d="M481.63,-427.8C566.33,-433.49 704.62,-442.79 772.16,-447.33"/>
<polygon fill="black" stroke="black" points="772.16,-450.84 782.37,-448.02 772.63,-443.86 772.16,-450.84"/>
</g>
<!-- 14 -->
<!-- name: &quot;Array Size&quot;, typeName: &quot;&quot;, id: 14, branchId: 0, recurseId: &#45;1, attributes: 0, notes: &quot;&quot; -->
<g id="node5" class="node">
<title>14</title>
<ellipse fill="none" stroke="black" cx="409.32" cy="-342" rx="48.99" ry="18"/>
<text text-anchor="middle" x="409.32" y="-338.3" font-family="Times New Roman,serif" font-size="14.00">Array Size</text>
</g>
<!-- 9&#45;&gt;14 -->
<g id="edge4" class="edge">
<title>9&#45;&gt;14</title>
<path fill="none" stroke="black" d="M275.57,-301.35C301.62,-309.32 334.71,-319.46 361.33,-327.61"/>
<polygon fill="black" stroke="black" points="360.61,-331.05 371.19,-330.63 362.66,-324.36 360.61,-331.05"/>
</g>
<!-- 15 -->
<!-- name: &quot;example element&quot;, typeName: &quot;&quot;, id: 15, branchId: 0, recurseId: &#45;1, attributes: 16, notes: &quot;&quot; -->
<g id="node10" class="node">
<title>15</title>
<ellipse fill="none" stroke="black" stroke-dasharray="1,5" cx="409.32" cy="-288" rx="70.39" ry="18"/>
<text text-anchor="middle" x="409.32" y="-284.3" font-family="Times New Roman,serif" font-size="14.00">example element</text>
</g>
<!-- 9&#45;&gt;15 -->
<g id="edge9" class="edge">
<title>9&#45;&gt;15</title>
<path fill="none" stroke="black" d="M296.64,-288C307.07,-288 317.97,-288 328.7,-288"/>
<polygon fill="black" stroke="black" points="328.92,-291.5 338.92,-288 328.92,-284.5 328.92,-291.5"/>
</g>
<!-- 10 -->
<!-- name: &quot;Recipe Width&quot;, typeName: &quot;&quot;, id: 10, branchId: 0, recurseId: &#45;1, attributes: 0, notes: &quot;&quot; -->
<g id="node6" class="node">
<title>10</title>
<ellipse fill="none" stroke="black" cx="585.06" cy="-396" rx="61.19" ry="18"/>
<text text-anchor="middle" x="585.06" y="-392.3" font-family="Times New Roman,serif" font-size="14.00">Recipe Width</text>
</g>
<!-- 14&#45;&gt;10 -->
<g id="edge5" class="edge">
<title>14&#45;&gt;10</title>
<path fill="none" stroke="black" d="M447.17,-353.45C472,-361.17 505.12,-371.47 532.56,-379.99"/>
<polygon fill="black" stroke="black" points="531.8,-383.42 542.39,-383.05 533.88,-376.74 531.8,-383.42"/>
</g>
<!-- 12 -->
<!-- name: &quot;Recipe Height&quot;, typeName: &quot;&quot;, id: 12, branchId: 0, recurseId: &#45;1, attributes: 0, notes: &quot;&quot; -->
<g id="node8" class="node">
<title>12</title>
<ellipse fill="none" stroke="black" cx="585.06" cy="-342" rx="61.99" ry="18"/>
<text text-anchor="middle" x="585.06" y="-338.3" font-family="Times New Roman,serif" font-size="14.00">Recipe Height</text>
</g>
<!-- 14&#45;&gt;12 -->
<g id="edge7" class="edge">
<title>14&#45;&gt;12</title>
<path fill="none" stroke="black" d="M458.25,-342C475.2,-342 494.65,-342 513.1,-342"/>
<polygon fill="black" stroke="black" points="513.22,-345.5 523.22,-342 513.22,-338.5 513.22,-345.5"/>
</g>
<!-- 11 -->
<!-- name: &quot;varint&quot;, typeName: &quot;&quot;, id: 11, branchId: 0, recurseId: &#45;1, attributes: 512, notes: &quot;&quot; -->
<g id="node7" class="node">
<title>11</title>
<ellipse fill="none" stroke="black" cx="812.79" cy="-396" rx="30.59" ry="18"/>
<text text-anchor="middle" x="812.79" y="-392.3" font-family="Times New Roman,serif" font-size="14.00">varint</text>
</g>
<!-- 10&#45;&gt;11 -->
<g id="edge6" class="edge">
<title>10&#45;&gt;11</title>
<path fill="none" stroke="black" d="M646.25,-396C686.02,-396 737.04,-396 771.86,-396"/>
<polygon fill="black" stroke="black" points="772.11,-399.5 782.11,-396 772.11,-392.5 772.11,-399.5"/>
</g>
<!-- 13 -->
<!-- name: &quot;varint&quot;, typeName: &quot;&quot;, id: 13, branchId: 0, recurseId: &#45;1, attributes: 512, notes: &quot;&quot; -->
<g id="node9" class="node">
<title>13</title>
<ellipse fill="none" stroke="black" cx="812.79" cy="-342" rx="30.59" ry="18"/>
<text text-anchor="middle" x="812.79" y="-338.3" font-family="Times New Roman,serif" font-size="14.00">varint</text>
</g>
<!-- 12&#45;&gt;13 -->
<g id="edge8" class="edge">
<title>12&#45;&gt;13</title>
<path fill="none" stroke="black" d="M646.85,-342C686.49,-342 737.11,-342 771.76,-342"/>
<polygon fill="black" stroke="black" points="771.97,-345.5 781.97,-342 771.97,-338.5 771.97,-345.5"/>
</g>
<!-- 16 -->
<!-- name: &quot;Ingredient&quot;, typeName: &quot;RecipeIngredient&quot;, id: 16, branchId: 0, recurseId: &#45;1, attributes: 256, notes: &quot;&quot; -->
<g id="node11" class="node">
<title>16</title>
<ellipse fill="none" stroke="black" cx="585.06" cy="-288" rx="46.59" ry="18"/>
<text text-anchor="middle" x="585.06" y="-284.3" font-family="Times New Roman,serif" font-size="14.00">Ingredient</text>
</g>
<!-- 15&#45;&gt;16 -->
<g id="edge10" class="edge">
<title>15&#45;&gt;16</title>
<path fill="none" stroke="black" d="M479.98,-288C495.86,-288 512.54,-288 527.78,-288"/>
<polygon fill="black" stroke="black" points="528.07,-291.5 538.07,-288 528.07,-284.5 528.07,-291.5"/>
</g>
<!-- 17 -->
<!-- name: &quot;RecipeIngredient&quot;, typeName: &quot;&quot;, id: 17, branchId: 0, recurseId: &#45;1, attributes: 512, notes: &quot;&quot; -->
<g id="node12" class="node">
<title>17</title>
<ellipse fill="none" stroke="black" cx="812.79" cy="-288" rx="72.29" ry="18"/>
<text text-anchor="middle" x="812.79" y="-284.3" font-family="Times New Roman,serif" font-size="14.00">RecipeIngredient</text>
</g>
<!-- 16&#45;&gt;17 -->
<g id="edge11" class="edge">
<title>16&#45;&gt;17</title>
<path fill="none" stroke="black" d="M632.01,-288C660.28,-288 697.32,-288 730.43,-288"/>
<polygon fill="black" stroke="black" points="730.56,-291.5 740.56,-288 730.56,-284.5 730.56,-291.5"/>
</g>
<!-- 19 -->
<!-- name: &quot;Array Size&quot;, typeName: &quot;&quot;, id: 19, branchId: 0, recurseId: &#45;1, attributes: 0, notes: &quot;&quot; -->
<g id="node14" class="node">
<title>19</title>
<ellipse fill="none" stroke="black" cx="409.32" cy="-234" rx="48.99" ry="18"/>
<text text-anchor="middle" x="409.32" y="-230.3" font-family="Times New Roman,serif" font-size="14.00">Array Size</text>
</g>
<!-- 18&#45;&gt;19 -->
<g id="edge13" class="edge">
<title>18&#45;&gt;19</title>
<path fill="none" stroke="black" d="M276.03,-193.49C302.08,-201.46 335.05,-211.56 361.56,-219.68"/>
<polygon fill="black" stroke="black" points="360.79,-223.11 371.38,-222.69 362.84,-216.41 360.79,-223.11"/>
</g>
<!-- 21 -->
<!-- name: &quot;example element&quot;, typeName: &quot;&quot;, id: 21, branchId: 0, recurseId: &#45;1, attributes: 16, notes: &quot;&quot; -->
<g id="node16" class="node">
<title>21</title>
<ellipse fill="none" stroke="black" stroke-dasharray="1,5" cx="409.32" cy="-180" rx="70.39" ry="18"/>
<text text-anchor="middle" x="409.32" y="-176.3" font-family="Times New Roman,serif" font-size="14.00">example element</text>
</g>
<!-- 18&#45;&gt;21 -->
<g id="edge15" class="edge">
<title>18&#45;&gt;21</title>
<path fill="none" stroke="black" d="M298.65,-180C308.52,-180 318.78,-180 328.89,-180"/>
<polygon fill="black" stroke="black" points="328.92,-183.5 338.92,-180 328.92,-176.5 328.92,-183.5"/>
</g>
<!-- 20 -->
<!-- name: &quot;unsigned varint&quot;, typeName: &quot;&quot;, id: 20, branchId: 0, recurseId: &#45;1, attributes: 512, notes: &quot;&quot; -->
<g id="node15" class="node">
<title>20</title>
<ellipse fill="none" stroke="black" cx="812.79" cy="-234" rx="65.79" ry="18"/>
<text text-anchor="middle" x="812.79" y="-230.3" font-family="Times New Roman,serif" font-size="14.00">unsigned varint</text>
</g>
<!-- 19&#45;&gt;20 -->
<g id="edge14" class="edge">
<title>19&#45;&gt;20</title>
<path fill="none" stroke="black" d="M458.35,-234C527.41,-234 655.4,-234 736.93,-234"/>
<polygon fill="black" stroke="black" points="737.13,-237.5 747.13,-234 737.13,-230.5 737.13,-237.5"/>
</g>
<!-- 22 -->
<!-- name: &quot;Produced Item&quot;, typeName: &quot;NetworkItemInstanceDescriptor&quot;, id: 22, branchId: 0, recurseId: &#45;1, attributes: 256, notes: &quot;&quot; -->
<g id="node17" class="node">
<title>22</title>
<ellipse fill="none" stroke="black" cx="585.06" cy="-180" rx="64.99" ry="18"/>
<text text-anchor="middle" x="585.06" y="-176.3" font-family="Times New Roman,serif" font-size="14.00">Produced Item</text>
</g>
<!-- 21&#45;&gt;22 -->
<g id="edge16" class="edge">
<title>21&#45;&gt;22</title>
<path fill="none" stroke="black" d="M479.98,-180C489.79,-180 499.91,-180 509.8,-180"/>
<polygon fill="black" stroke="black" points="510,-183.5 520,-180 510,-176.5 510,-183.5"/>
</g>
<!-- 23 -->
<!-- name: &quot;NetworkItemInstanceDescriptor&quot;, typeName: &quot;&quot;, id: 23, branchId: 0, recurseId: &#45;1, attributes: 512, notes: &quot;&quot; -->
<g id="node18" class="node">
<title>23</title>
<ellipse fill="none" stroke="black" cx="812.79" cy="-180" rx="126.98" ry="18"/>
<text text-anchor="middle" x="812.79" y="-176.3" font-family="Times New Roman,serif" font-size="14.00">NetworkItemInstanceDescriptor</text>
</g>
<!-- 22&#45;&gt;23 -->
<g id="edge17" class="edge">
<title>22&#45;&gt;23</title>
<path fill="none" stroke="black" d="M650.14,-180C658.38,-180 667.05,-180 675.91,-180"/>
<polygon fill="black" stroke="black" points="676,-183.5 686,-180 676,-176.5 676,-183.5"/>
</g>
<!-- 25 -->
<!-- name: &quot;mce::UUID&quot;, typeName: &quot;&quot;, id: 25, branchId: 0, recurseId: &#45;1, attributes: 512, notes: &quot;&quot; -->
<g id="node20" class="node">
<title>25</title>
<ellipse fill="none" stroke="black" cx="812.79" cy="-126" rx="51.99" ry="18"/>
<text text-anchor="middle" x="812.79" y="-122.3" font-family="Times New Roman,serif" font-size="14.00">mce::UUID</text>
</g>
<!-- 24&#45;&gt;25 -->
<g id="edge19" class="edge">
<title>24&#45;&gt;25</title>
<path fill="none" stroke="black" d="M279.43,-126C384.05,-126 634.46,-126 750.65,-126"/>
<polygon fill="black" stroke="black" points="750.8,-129.5 760.8,-126 750.8,-122.5 750.8,-129.5"/>
</g>
<!-- 27 -->
<!-- name: &quot;string&quot;, typeName: &quot;&quot;, id: 27, branchId: 0, recurseId: &#45;1, attributes: 512, notes: &quot;&quot; -->
<g id="node22" class="node">
<title>27</title>
<ellipse fill="none" stroke="black" cx="812.79" cy="-72" rx="30.59" ry="18"/>
<text text-anchor="middle" x="812.79" y="-68.3" font-family="Times New Roman,serif" font-size="14.00">string</text>
</g>
<!-- 26&#45;&gt;27 -->
<g id="edge21" class="edge">
<title>26&#45;&gt;27</title>
<path fill="none" stroke="black" d="M637.85,-73.54C678.65,-73.18 734.71,-72.68 772.04,-72.35"/>
<polygon fill="black" stroke="black" points="772.07,-75.85 782.04,-72.26 772.01,-68.85 772.07,-75.85"/>
</g>
<!-- 29 -->
<!-- name: &quot;varint&quot;, typeName: &quot;&quot;, id: 29, branchId: 0, recurseId: &#45;1, attributes: 512, notes: &quot;&quot; -->
<g id="node24" class="node">
<title>29</title>
<ellipse fill="none" stroke="black" cx="812.79" cy="-18" rx="30.59" ry="18"/>
<text text-anchor="middle" x="812.79" y="-14.3" font-family="Times New Roman,serif" font-size="14.00">varint</text>
</g>
<!-- 28&#45;&gt;29 -->
<g id="edge23" class="edge">
<title>28&#45;&gt;29</title>
<path fill="none" stroke="black" d="M268.69,-21.75C372.04,-21.03 664.89,-19.01 771.96,-18.27"/>
<polygon fill="black" stroke="black" points="772.04,-21.77 782.02,-18.21 772,-14.77 772.04,-21.77"/>
</g>
</g>
</svg>
