<?xml version="1.0" encoding="UTF-8" standalone="no"?>
<!DOCTYPE svg PUBLIC "-//W3C//DTD SVG 1.1//EN"
 "http://www.w3.org/Graphics/SVG/1.1/DTD/svg11.dtd">
<!-- Generated by graphviz version 12.2.1 (20241206.2353)
 -->
<!-- Title: ShapelessChemistryRecipe Pages: 1 -->
<svg width="984pt" height="422pt"
 viewBox="0.00 0.00 983.86 422.00" xmlns="http://www.w3.org/2000/svg" xmlns:xlink="http://www.w3.org/1999/xlink">
<g id="graph0" class="graph" transform="scale(1 1) rotate(0) translate(4 418)">
<title>ShapelessChemistryRecipe</title>
<polygon fill="white" stroke="none" points="-4,4 -4,-418 979.86,-418 979.86,4 -4,4"/>
<!-- 6 -->
<!-- name: &quot;ShapelessChemistryRecipe&quot;, typeName: &quot;&quot;, id: 6, branchId: 0, recurseId: &#45;1, attributes: 0, notes: &quot;&quot; -->
<g id="node1" class="node">
<title>6</title>
<ellipse fill="none" stroke="black" cx="111.74" cy="-153" rx="111.74" ry="18"/>
<text text-anchor="middle" x="111.74" y="-147.95" font-family="Times New Roman,serif" font-size="14.00">ShapelessChemistryRecipe</text>
</g>
<!-- 7 -->
<!-- name: &quot;Recipe Id&quot;, typeName: &quot;&quot;, id: 7, branchId: 0, recurseId: &#45;1, attributes: 0, notes: &quot;&quot; -->
<g id="node2" class="node">
<title>7</title>
<ellipse fill="none" stroke="black" cx="632.77" cy="-392" rx="46.75" ry="18"/>
<text text-anchor="middle" x="632.77" y="-386.95" font-family="Times New Roman,serif" font-size="14.00">Recipe Id</text>
</g>
<!-- 6&#45;&gt;7 -->
<g id="edge1" class="edge">
<title>6&#45;&gt;7</title>
<path fill="none" stroke="black" d="M124.94,-171.37C147.71,-204.39 199.85,-274.15 259.49,-315 355.7,-380.9 496.43,-392.51 574.41,-393.38"/>
<polygon fill="black" stroke="black" points="574.38,-396.88 584.39,-393.43 574.41,-389.88 574.38,-396.88"/>
</g>
<!-- 9 -->
<!-- name: &quot;Ingredients&quot;, typeName: &quot;&quot;, id: 9, branchId: 0, recurseId: &#45;1, attributes: 8, notes: &quot;&quot; -->
<g id="node4" class="node">
<title>9</title>
<ellipse fill="none" stroke="black" cx="311.86" cy="-288" rx="52.38" ry="18"/>
<text text-anchor="middle" x="311.86" y="-282.95" font-family="Times New Roman,serif" font-size="14.00">Ingredients</text>
</g>
<!-- 6&#45;&gt;9 -->
<g id="edge3" class="edge">
<title>6&#45;&gt;9</title>
<path fill="none" stroke="black" d="M139.05,-170.93C174.76,-195.26 238.58,-238.75 277.58,-265.32"/>
<polygon fill="black" stroke="black" points="275.44,-268.1 285.68,-270.84 279.39,-262.31 275.44,-268.1"/>
</g>
<!-- 15 -->
<!-- name: &quot;Results&quot;, typeName: &quot;&quot;, id: 15, branchId: 0, recurseId: &#45;1, attributes: 8, notes: &quot;&quot; -->
<g id="node10" class="node">
<title>15</title>
<ellipse fill="none" stroke="black" cx="311.86" cy="-180" rx="38.04" ry="18"/>
<text text-anchor="middle" x="311.86" y="-174.95" font-family="Times New Roman,serif" font-size="14.00">Results</text>
</g>
<!-- 6&#45;&gt;15 -->
<g id="edge9" class="edge">
<title>6&#45;&gt;15</title>
<path fill="none" stroke="black" d="M198.49,-164.69C220.77,-167.72 243.96,-170.88 263.44,-173.54"/>
<polygon fill="black" stroke="black" points="262.88,-176.99 273.26,-174.87 263.82,-170.06 262.88,-176.99"/>
</g>
<!-- 21 -->
<!-- name: &quot;Id&quot;, typeName: &quot;mce::UUID&quot;, id: 21, branchId: 0, recurseId: &#45;1, attributes: 256, notes: &quot;&quot; -->
<g id="node16" class="node">
<title>21</title>
<ellipse fill="none" stroke="black" cx="311.86" cy="-126" rx="27" ry="18"/>
<text text-anchor="middle" x="311.86" y="-120.95" font-family="Times New Roman,serif" font-size="14.00">Id</text>
</g>
<!-- 6&#45;&gt;21 -->
<g id="edge15" class="edge">
<title>6&#45;&gt;21</title>
<path fill="none" stroke="black" d="M198.49,-141.31C224.96,-137.71 252.73,-133.92 274.03,-131.02"/>
<polygon fill="black" stroke="black" points="274.22,-134.53 283.66,-129.71 273.28,-127.59 274.22,-134.53"/>
</g>
<!-- 23 -->
<!-- name: &quot;Tag&quot;, typeName: &quot;&quot;, id: 23, branchId: 0, recurseId: &#45;1, attributes: 0, notes: &quot;As string&quot; -->
<g id="node18" class="node">
<title>23</title>
<ellipse fill="none" stroke="black" cx="632.77" cy="-74" rx="27" ry="18"/>
<text text-anchor="middle" x="632.77" y="-68.95" font-family="Times New Roman,serif" font-size="14.00">Tag</text>
</g>
<!-- 6&#45;&gt;23 -->
<g id="edge17" class="edge">
<title>6&#45;&gt;23</title>
<path fill="none" stroke="black" d="M150.48,-135.71C179.6,-123.21 221.26,-107.14 259.49,-99 379.92,-73.35 526.76,-72.01 594.4,-73.02"/>
<polygon fill="black" stroke="black" points="594.12,-76.51 604.18,-73.19 594.25,-69.51 594.12,-76.51"/>
</g>
<!-- 25 -->
<!-- name: &quot;Priority&quot;, typeName: &quot;&quot;, id: 25, branchId: 0, recurseId: &#45;1, attributes: 0, notes: &quot;&quot; -->
<g id="node20" class="node">
<title>25</title>
<ellipse fill="none" stroke="black" cx="311.86" cy="-22" rx="39.07" ry="18"/>
<text text-anchor="middle" x="311.86" y="-16.95" font-family="Times New Roman,serif" font-size="14.00">Priority</text>
</g>
<!-- 6&#45;&gt;25 -->
<g id="edge19" class="edge">
<title>6&#45;&gt;25</title>
<path fill="none" stroke="black" d="M139.46,-135.33C175.78,-111.32 240.63,-68.44 279.3,-42.87"/>
<polygon fill="black" stroke="black" points="280.86,-46.03 287.27,-37.6 277,-40.19 280.86,-46.03"/>
</g>
<!-- 8 -->
<!-- name: &quot;string&quot;, typeName: &quot;&quot;, id: 8, branchId: 0, recurseId: &#45;1, attributes: 512, notes: &quot;&quot; -->
<g id="node3" class="node">
<title>8</title>
<ellipse fill="none" stroke="black" cx="845.69" cy="-396" rx="31.9" ry="18"/>
<text text-anchor="middle" x="845.69" y="-390.95" font-family="Times New Roman,serif" font-size="14.00">string</text>
</g>
<!-- 7&#45;&gt;8 -->
<g id="edge2" class="edge">
<title>7&#45;&gt;8</title>
<path fill="none" stroke="black" d="M679.8,-392.87C716.17,-393.56 766.55,-394.52 802.02,-395.19"/>
<polygon fill="black" stroke="black" points="801.86,-398.69 811.92,-395.38 801.99,-391.69 801.86,-398.69"/>
</g>
<!-- 10 -->
<!-- name: &quot;List Size&quot;, typeName: &quot;&quot;, id: 10, branchId: 0, recurseId: &#45;1, attributes: 0, notes: &quot;&quot; -->
<g id="node5" class="node">
<title>10</title>
<ellipse fill="none" stroke="black" cx="475.13" cy="-342" rx="43.67" ry="18"/>
<text text-anchor="middle" x="475.13" y="-336.95" font-family="Times New Roman,serif" font-size="14.00">List Size</text>
</g>
<!-- 9&#45;&gt;10 -->
<g id="edge4" class="edge">
<title>9&#45;&gt;10</title>
<path fill="none" stroke="black" d="M350.27,-300.52C374.02,-308.48 404.87,-318.81 429.84,-327.17"/>
<polygon fill="black" stroke="black" points="428.47,-330.4 439.06,-330.26 430.69,-323.76 428.47,-330.4"/>
</g>
<!-- 12 -->
<!-- name: &quot;example element&quot;, typeName: &quot;&quot;, id: 12, branchId: 0, recurseId: &#45;1, attributes: 16, notes: &quot;&quot; -->
<g id="node7" class="node">
<title>12</title>
<ellipse fill="none" stroke="black" stroke-dasharray="1,5" cx="475.13" cy="-288" rx="74.89" ry="18"/>
<text text-anchor="middle" x="475.13" y="-282.95" font-family="Times New Roman,serif" font-size="14.00">example element</text>
</g>
<!-- 9&#45;&gt;12 -->
<g id="edge6" class="edge">
<title>9&#45;&gt;12</title>
<path fill="none" stroke="black" d="M364.33,-288C372.13,-288 380.35,-288 388.63,-288"/>
<polygon fill="black" stroke="black" points="388.42,-291.5 398.42,-288 388.42,-284.5 388.42,-291.5"/>
</g>
<!-- 11 -->
<!-- name: &quot;unsigned varint&quot;, typeName: &quot;&quot;, id: 11, branchId: 0, recurseId: &#45;1, attributes: 512, notes: &quot;&quot; -->
<g id="node6" class="node">
<title>11</title>
<ellipse fill="none" stroke="black" cx="845.69" cy="-342" rx="68.24" ry="18"/>
<text text-anchor="middle" x="845.69" y="-336.95" font-family="Times New Roman,serif" font-size="14.00">unsigned varint</text>
</g>
<!-- 10&#45;&gt;11 -->
<g id="edge5" class="edge">
<title>10&#45;&gt;11</title>
<path fill="none" stroke="black" d="M519.13,-342C579.46,-342 690.26,-342 765.68,-342"/>
<polygon fill="black" stroke="black" points="765.49,-345.5 775.49,-342 765.49,-338.5 765.49,-345.5"/>
</g>
<!-- 13 -->
<!-- name: &quot;Entry&quot;, typeName: &quot;RecipeIngredient&quot;, id: 13, branchId: 0, recurseId: &#45;1, attributes: 256, notes: &quot;&quot; -->
<g id="node8" class="node">
<title>13</title>
<ellipse fill="none" stroke="black" cx="632.77" cy="-288" rx="31.39" ry="18"/>
<text text-anchor="middle" x="632.77" y="-282.95" font-family="Times New Roman,serif" font-size="14.00">Entry</text>
</g>
<!-- 12&#45;&gt;13 -->
<g id="edge7" class="edge">
<title>12&#45;&gt;13</title>
<path fill="none" stroke="black" d="M550.31,-288C563.95,-288 577.75,-288 590.01,-288"/>
<polygon fill="black" stroke="black" points="589.73,-291.5 599.73,-288 589.73,-284.5 589.73,-291.5"/>
</g>
<!-- 14 -->
<!-- name: &quot;RecipeIngredient&quot;, typeName: &quot;&quot;, id: 14, branchId: 0, recurseId: &#45;1, attributes: 512, notes: &quot;&quot; -->
<g id="node9" class="node">
<title>14</title>
<ellipse fill="none" stroke="black" cx="845.69" cy="-288" rx="74.38" ry="18"/>
<text text-anchor="middle" x="845.69" y="-282.95" font-family="Times New Roman,serif" font-size="14.00">RecipeIngredient</text>
</g>
<!-- 13&#45;&gt;14 -->
<g id="edge8" class="edge">
<title>13&#45;&gt;14</title>
<path fill="none" stroke="black" d="M664.44,-288C689.49,-288 726.13,-288 759.85,-288"/>
<polygon fill="black" stroke="black" points="759.63,-291.5 769.63,-288 759.63,-284.5 759.63,-291.5"/>
</g>
<!-- 16 -->
<!-- name: &quot;List Size&quot;, typeName: &quot;&quot;, id: 16, branchId: 0, recurseId: &#45;1, attributes: 0, notes: &quot;&quot; -->
<g id="node11" class="node">
<title>16</title>
<ellipse fill="none" stroke="black" cx="475.13" cy="-234" rx="43.67" ry="18"/>
<text text-anchor="middle" x="475.13" y="-228.95" font-family="Times New Roman,serif" font-size="14.00">List Size</text>
</g>
<!-- 15&#45;&gt;16 -->
<g id="edge10" class="edge">
<title>15&#45;&gt;16</title>
<path fill="none" stroke="black" d="M343.58,-190.28C367.92,-198.43 402.26,-209.93 429.61,-219.09"/>
<polygon fill="black" stroke="black" points="428.44,-222.39 439.04,-222.25 430.67,-215.75 428.44,-222.39"/>
</g>
<!-- 18 -->
<!-- name: &quot;example element&quot;, typeName: &quot;&quot;, id: 18, branchId: 0, recurseId: &#45;1, attributes: 16, notes: &quot;&quot; -->
<g id="node13" class="node">
<title>18</title>
<ellipse fill="none" stroke="black" stroke-dasharray="1,5" cx="475.13" cy="-180" rx="74.89" ry="18"/>
<text text-anchor="middle" x="475.13" y="-174.95" font-family="Times New Roman,serif" font-size="14.00">example element</text>
</g>
<!-- 15&#45;&gt;18 -->
<g id="edge12" class="edge">
<title>15&#45;&gt;18</title>
<path fill="none" stroke="black" d="M350.27,-180C361.83,-180 375.07,-180 388.49,-180"/>
<polygon fill="black" stroke="black" points="388.27,-183.5 398.27,-180 388.27,-176.5 388.27,-183.5"/>
</g>
<!-- 17 -->
<!-- name: &quot;unsigned varint&quot;, typeName: &quot;&quot;, id: 17, branchId: 0, recurseId: &#45;1, attributes: 512, notes: &quot;&quot; -->
<g id="node12" class="node">
<title>17</title>
<ellipse fill="none" stroke="black" cx="845.69" cy="-234" rx="68.24" ry="18"/>
<text text-anchor="middle" x="845.69" y="-228.95" font-family="Times New Roman,serif" font-size="14.00">unsigned varint</text>
</g>
<!-- 16&#45;&gt;17 -->
<g id="edge11" class="edge">
<title>16&#45;&gt;17</title>
<path fill="none" stroke="black" d="M519.13,-234C579.46,-234 690.26,-234 765.68,-234"/>
<polygon fill="black" stroke="black" points="765.49,-237.5 775.49,-234 765.49,-230.5 765.49,-237.5"/>
</g>
<!-- 19 -->
<!-- name: &quot;Entry&quot;, typeName: &quot;NetworkItemInstanceDescriptor&quot;, id: 19, branchId: 0, recurseId: &#45;1, attributes: 256, notes: &quot;&quot; -->
<g id="node14" class="node">
<title>19</title>
<ellipse fill="none" stroke="black" cx="632.77" cy="-180" rx="31.39" ry="18"/>
<text text-anchor="middle" x="632.77" y="-174.95" font-family="Times New Roman,serif" font-size="14.00">Entry</text>
</g>
<!-- 18&#45;&gt;19 -->
<g id="edge13" class="edge">
<title>18&#45;&gt;19</title>
<path fill="none" stroke="black" d="M550.31,-180C563.95,-180 577.75,-180 590.01,-180"/>
<polygon fill="black" stroke="black" points="589.73,-183.5 599.73,-180 589.73,-176.5 589.73,-183.5"/>
</g>
<!-- 20 -->
<!-- name: &quot;NetworkItemInstanceDescriptor&quot;, typeName: &quot;&quot;, id: 20, branchId: 0, recurseId: &#45;1, attributes: 512, notes: &quot;&quot; -->
<g id="node15" class="node">
<title>20</title>
<ellipse fill="none" stroke="black" cx="845.69" cy="-180" rx="130.17" ry="18"/>
<text text-anchor="middle" x="845.69" y="-174.95" font-family="Times New Roman,serif" font-size="14.00">NetworkItemInstanceDescriptor</text>
</g>
<!-- 19&#45;&gt;20 -->
<g id="edge14" class="edge">
<title>19&#45;&gt;20</title>
<path fill="none" stroke="black" d="M664.44,-180C675.73,-180 689.38,-180 704.05,-180"/>
<polygon fill="black" stroke="black" points="703.93,-183.5 713.93,-180 703.93,-176.5 703.93,-183.5"/>
</g>
<!-- 22 -->
<!-- name: &quot;mce::UUID&quot;, typeName: &quot;&quot;, id: 22, branchId: 0, recurseId: &#45;1, attributes: 512, notes: &quot;&quot; -->
<g id="node17" class="node">
<title>22</title>
<ellipse fill="none" stroke="black" cx="845.69" cy="-126" rx="54.93" ry="18"/>
<text text-anchor="middle" x="845.69" y="-120.95" font-family="Times New Roman,serif" font-size="14.00">mce::UUID</text>
</g>
<!-- 21&#45;&gt;22 -->
<g id="edge16" class="edge">
<title>21&#45;&gt;22</title>
<path fill="none" stroke="black" d="M339.24,-126C419.36,-126 661.6,-126 779.21,-126"/>
<polygon fill="black" stroke="black" points="779.02,-129.5 789.02,-126 779.02,-122.5 779.02,-129.5"/>
</g>
<!-- 24 -->
<!-- name: &quot;string&quot;, typeName: &quot;&quot;, id: 24, branchId: 0, recurseId: &#45;1, attributes: 512, notes: &quot;&quot; -->
<g id="node19" class="node">
<title>24</title>
<ellipse fill="none" stroke="black" cx="845.69" cy="-72" rx="31.9" ry="18"/>
<text text-anchor="middle" x="845.69" y="-66.95" font-family="Times New Roman,serif" font-size="14.00">string</text>
</g>
<!-- 23&#45;&gt;24 -->
<g id="edge18" class="edge">
<title>23&#45;&gt;24</title>
<path fill="none" stroke="black" d="M660.06,-73.75C695.69,-73.41 759.74,-72.81 802.24,-72.4"/>
<polygon fill="black" stroke="black" points="802.13,-75.9 812.1,-72.31 802.06,-68.9 802.13,-75.9"/>
</g>
<!-- 26 -->
<!-- name: &quot;varint&quot;, typeName: &quot;&quot;, id: 26, branchId: 0, recurseId: &#45;1, attributes: 512, notes: &quot;&quot; -->
<g id="node21" class="node">
<title>26</title>
<ellipse fill="none" stroke="black" cx="845.69" cy="-18" rx="32.41" ry="18"/>
<text text-anchor="middle" x="845.69" y="-12.95" font-family="Times New Roman,serif" font-size="14.00">varint</text>
</g>
<!-- 25&#45;&gt;26 -->
<g id="edge20" class="edge">
<title>25&#45;&gt;26</title>
<path fill="none" stroke="black" d="M351.11,-21.71C447.56,-20.99 700.22,-19.09 801.64,-18.32"/>
<polygon fill="black" stroke="black" points="801.47,-21.83 811.44,-18.25 801.42,-14.83 801.47,-21.83"/>
</g>
</g>
</svg>
