<?xml version="1.0" encoding="UTF-8" standalone="no"?>
<!DOCTYPE svg PUBLIC "-//W3C//DTD SVG 1.1//EN"
 "http://www.w3.org/Graphics/SVG/1.1/DTD/svg11.dtd">
<!-- Generated by graphviz version 12.2.1 (20241206.2353)
 -->
<!-- Title: SharedTypes::v1_21_50::CameraAimAssistCategoryPriorities Pages: 1 -->
<svg width="1155pt" height="422pt"
 viewBox="0.00 0.00 1154.80 422.00" xmlns="http://www.w3.org/2000/svg" xmlns:xlink="http://www.w3.org/1999/xlink">
<g id="graph0" class="graph" transform="scale(1 1) rotate(0) translate(4 418)">
<title>SharedTypes::v1_21_50::CameraAimAssistCategoryPriorities</title>
<polygon fill="white" stroke="none" points="-4,4 -4,-418 1150.8,-418 1150.8,4 -4,4"/>
<!-- 10 -->
<!-- name: &quot;SharedTypes::v1_21_50::CameraAimAssistCategoryPriorities&quot;, typeName: &quot;&quot;, id: 10, branchId: 0, recurseId: &#45;1, attributes: 0, notes: &quot;&quot; -->
<g id="node1" class="node">
<title>10</title>
<ellipse fill="none" stroke="black" cx="241.74" cy="-153" rx="241.74" ry="18"/>
<text text-anchor="middle" x="241.74" y="-147.95" font-family="Times New Roman,serif" font-size="14.00">SharedTypes::v1_21_50::CameraAimAssistCategoryPriorities</text>
</g>
<!-- 11 -->
<!-- name: &quot;Entities&quot;, typeName: &quot;&quot;, id: 11, branchId: 0, recurseId: &#45;1, attributes: 8, notes: &quot;&quot; -->
<g id="node2" class="node">
<title>11</title>
<ellipse fill="none" stroke="black" cx="583.12" cy="-288" rx="39.07" ry="18"/>
<text text-anchor="middle" x="583.12" y="-282.95" font-family="Times New Roman,serif" font-size="14.00">Entities</text>
</g>
<!-- 10&#45;&gt;11 -->
<g id="edge1" class="edge">
<title>10&#45;&gt;11</title>
<path fill="none" stroke="black" d="M288.16,-171.07C355.09,-197.69 479.12,-247.03 542.54,-272.26"/>
<polygon fill="black" stroke="black" points="540.92,-275.38 551.51,-275.82 543.51,-268.87 540.92,-275.38"/>
</g>
<!-- 19 -->
<!-- name: &quot;Blocks&quot;, typeName: &quot;&quot;, id: 19, branchId: 0, recurseId: &#45;1, attributes: 8, notes: &quot;&quot; -->
<g id="node10" class="node">
<title>19</title>
<ellipse fill="none" stroke="black" cx="583.12" cy="-167" rx="36.51" ry="18"/>
<text text-anchor="middle" x="583.12" y="-161.95" font-family="Times New Roman,serif" font-size="14.00">Blocks</text>
</g>
<!-- 10&#45;&gt;19 -->
<g id="edge9" class="edge">
<title>10&#45;&gt;19</title>
<path fill="none" stroke="black" d="M454.79,-161.75C484.77,-162.98 512.87,-164.14 535,-165.06"/>
<polygon fill="black" stroke="black" points="534.69,-168.55 544.82,-165.46 534.98,-161.55 534.69,-168.55"/>
</g>
<!-- 27 -->
<!-- name: &quot;Entity Default&quot;, typeName: &quot;std::optional&lt;int&gt;&quot;, id: 27, branchId: 0, recurseId: &#45;1, attributes: 256, notes: &quot;&quot; -->
<g id="node18" class="node">
<title>27</title>
<ellipse fill="none" stroke="black" cx="583.12" cy="-99" rx="63.63" ry="18"/>
<text text-anchor="middle" x="583.12" y="-93.95" font-family="Times New Roman,serif" font-size="14.00">Entity Default</text>
</g>
<!-- 10&#45;&gt;27 -->
<g id="edge17" class="edge">
<title>10&#45;&gt;27</title>
<path fill="none" stroke="black" d="M347.34,-136.36C402.33,-127.61 468.08,-117.15 515.99,-109.52"/>
<polygon fill="black" stroke="black" points="516.33,-113.01 525.66,-107.98 515.23,-106.1 516.33,-113.01"/>
</g>
<!-- 34 -->
<!-- name: &quot;Block Default&quot;, typeName: &quot;std::optional&lt;int&gt;&quot;, id: 34, branchId: 0, recurseId: &#45;1, attributes: 256, notes: &quot;&quot; -->
<g id="node20" class="node">
<title>34</title>
<ellipse fill="none" stroke="black" cx="583.12" cy="-45" rx="63.12" ry="18"/>
<text text-anchor="middle" x="583.12" y="-39.95" font-family="Times New Roman,serif" font-size="14.00">Block Default</text>
</g>
<!-- 10&#45;&gt;34 -->
<g id="edge19" class="edge">
<title>10&#45;&gt;34</title>
<path fill="none" stroke="black" d="M299.17,-135.04C363.09,-114.7 466.48,-81.8 529,-61.91"/>
<polygon fill="black" stroke="black" points="529.89,-65.29 538.36,-58.93 527.77,-58.62 529.89,-65.29"/>
</g>
<!-- 12 -->
<!-- name: &quot;Map Size&quot;, typeName: &quot;&quot;, id: 12, branchId: 0, recurseId: &#45;1, attributes: 0, notes: &quot;&quot; -->
<g id="node3" class="node">
<title>12</title>
<ellipse fill="none" stroke="black" cx="757.65" cy="-369" rx="46.75" ry="18"/>
<text text-anchor="middle" x="757.65" y="-363.95" font-family="Times New Roman,serif" font-size="14.00">Map Size</text>
</g>
<!-- 11&#45;&gt;12 -->
<g id="edge2" class="edge">
<title>11&#45;&gt;12</title>
<path fill="none" stroke="black" d="M611.46,-300.83C639.84,-314.16 684.52,-335.13 716.82,-350.3"/>
<polygon fill="black" stroke="black" points="714.93,-353.28 725.47,-354.36 717.9,-346.94 714.93,-353.28"/>
</g>
<!-- 14 -->
<!-- name: &quot;example element&quot;, typeName: &quot;&quot;, id: 14, branchId: 0, recurseId: &#45;1, attributes: 16, notes: &quot;&quot; -->
<g id="node5" class="node">
<title>14</title>
<ellipse fill="none" stroke="black" stroke-dasharray="1,5" cx="757.65" cy="-288" rx="74.89" ry="18"/>
<text text-anchor="middle" x="757.65" y="-282.95" font-family="Times New Roman,serif" font-size="14.00">example element</text>
</g>
<!-- 11&#45;&gt;14 -->
<g id="edge4" class="edge">
<title>11&#45;&gt;14</title>
<path fill="none" stroke="black" d="M622.41,-288C636.91,-288 654.05,-288 671.16,-288"/>
<polygon fill="black" stroke="black" points="670.85,-291.5 680.85,-288 670.85,-284.5 670.85,-291.5"/>
</g>
<!-- 13 -->
<!-- name: &quot;unsigned varint&quot;, typeName: &quot;&quot;, id: 13, branchId: 0, recurseId: &#45;1, attributes: 512, notes: &quot;&quot; -->
<g id="node4" class="node">
<title>13</title>
<ellipse fill="none" stroke="black" cx="1068.84" cy="-396" rx="68.24" ry="18"/>
<text text-anchor="middle" x="1068.84" y="-390.95" font-family="Times New Roman,serif" font-size="14.00">unsigned varint</text>
</g>
<!-- 12&#45;&gt;13 -->
<g id="edge3" class="edge">
<title>12&#45;&gt;13</title>
<path fill="none" stroke="black" d="M803.61,-372.93C853.02,-377.24 933.2,-384.24 992.3,-389.4"/>
<polygon fill="black" stroke="black" points="991.67,-392.86 1001.94,-390.25 992.28,-385.89 991.67,-392.86"/>
</g>
<!-- 15 -->
<!-- name: &quot;Item Id&quot;, typeName: &quot;&quot;, id: 15, branchId: 0, recurseId: &#45;1, attributes: 0, notes: &quot;&quot; -->
<g id="node6" class="node">
<title>15</title>
<ellipse fill="none" stroke="black" cx="911.71" cy="-342" rx="38.56" ry="18"/>
<text text-anchor="middle" x="911.71" y="-336.95" font-family="Times New Roman,serif" font-size="14.00">Item Id</text>
</g>
<!-- 14&#45;&gt;15 -->
<g id="edge5" class="edge">
<title>14&#45;&gt;15</title>
<path fill="none" stroke="black" d="M801.01,-303.04C822.41,-310.64 848.27,-319.83 869.51,-327.37"/>
<polygon fill="black" stroke="black" points="868.13,-330.59 878.72,-330.64 870.47,-324 868.13,-330.59"/>
</g>
<!-- 17 -->
<!-- name: &quot;Priority&quot;, typeName: &quot;&quot;, id: 17, branchId: 0, recurseId: &#45;1, attributes: 0, notes: &quot;&quot; -->
<g id="node8" class="node">
<title>17</title>
<ellipse fill="none" stroke="black" cx="911.71" cy="-288" rx="39.07" ry="18"/>
<text text-anchor="middle" x="911.71" y="-282.95" font-family="Times New Roman,serif" font-size="14.00">Priority</text>
</g>
<!-- 14&#45;&gt;17 -->
<g id="edge7" class="edge">
<title>14&#45;&gt;17</title>
<path fill="none" stroke="black" d="M832.9,-288C842.44,-288 852.02,-288 861.03,-288"/>
<polygon fill="black" stroke="black" points="860.99,-291.5 870.99,-288 860.99,-284.5 860.99,-291.5"/>
</g>
<!-- 16 -->
<!-- name: &quot;string&quot;, typeName: &quot;&quot;, id: 16, branchId: 0, recurseId: &#45;1, attributes: 512, notes: &quot;&quot; -->
<g id="node7" class="node">
<title>16</title>
<ellipse fill="none" stroke="black" cx="1068.84" cy="-342" rx="31.9" ry="18"/>
<text text-anchor="middle" x="1068.84" y="-336.95" font-family="Times New Roman,serif" font-size="14.00">string</text>
</g>
<!-- 15&#45;&gt;16 -->
<g id="edge6" class="edge">
<title>15&#45;&gt;16</title>
<path fill="none" stroke="black" d="M950.66,-342C973.22,-342 1001.89,-342 1025.22,-342"/>
<polygon fill="black" stroke="black" points="1025.03,-345.5 1035.03,-342 1025.03,-338.5 1025.03,-345.5"/>
</g>
<!-- 18 -->
<!-- name: &quot;int&quot;, typeName: &quot;&quot;, id: 18, branchId: 0, recurseId: &#45;1, attributes: 512, notes: &quot;&quot; -->
<g id="node9" class="node">
<title>18</title>
<ellipse fill="none" stroke="black" cx="1068.84" cy="-288" rx="27" ry="18"/>
<text text-anchor="middle" x="1068.84" y="-282.95" font-family="Times New Roman,serif" font-size="14.00">int</text>
</g>
<!-- 17&#45;&gt;18 -->
<g id="edge8" class="edge">
<title>17&#45;&gt;18</title>
<path fill="none" stroke="black" d="M951.06,-288C975.16,-288 1006.11,-288 1030.1,-288"/>
<polygon fill="black" stroke="black" points="1030.08,-291.5 1040.08,-288 1030.08,-284.5 1030.08,-291.5"/>
</g>
<!-- 20 -->
<!-- name: &quot;Map Size&quot;, typeName: &quot;&quot;, id: 20, branchId: 0, recurseId: &#45;1, attributes: 0, notes: &quot;&quot; -->
<g id="node11" class="node">
<title>20</title>
<ellipse fill="none" stroke="black" cx="757.65" cy="-234" rx="46.75" ry="18"/>
<text text-anchor="middle" x="757.65" y="-228.95" font-family="Times New Roman,serif" font-size="14.00">Map Size</text>
</g>
<!-- 19&#45;&gt;20 -->
<g id="edge10" class="edge">
<title>19&#45;&gt;20</title>
<path fill="none" stroke="black" d="M612.61,-178.06C639.92,-188.67 681.53,-204.83 713.02,-217.06"/>
<polygon fill="black" stroke="black" points="711.7,-220.3 722.29,-220.65 714.23,-213.77 711.7,-220.3"/>
</g>
<!-- 22 -->
<!-- name: &quot;example element&quot;, typeName: &quot;&quot;, id: 22, branchId: 0, recurseId: &#45;1, attributes: 16, notes: &quot;&quot; -->
<g id="node13" class="node">
<title>22</title>
<ellipse fill="none" stroke="black" stroke-dasharray="1,5" cx="757.65" cy="-167" rx="74.89" ry="18"/>
<text text-anchor="middle" x="757.65" y="-161.95" font-family="Times New Roman,serif" font-size="14.00">example element</text>
</g>
<!-- 19&#45;&gt;22 -->
<g id="edge12" class="edge">
<title>19&#45;&gt;22</title>
<path fill="none" stroke="black" d="M619.87,-167C634.91,-167 653.11,-167 671.26,-167"/>
<polygon fill="black" stroke="black" points="671.02,-170.5 681.02,-167 671.02,-163.5 671.02,-170.5"/>
</g>
<!-- 21 -->
<!-- name: &quot;unsigned varint&quot;, typeName: &quot;&quot;, id: 21, branchId: 0, recurseId: &#45;1, attributes: 512, notes: &quot;&quot; -->
<g id="node12" class="node">
<title>21</title>
<ellipse fill="none" stroke="black" cx="1068.84" cy="-234" rx="68.24" ry="18"/>
<text text-anchor="middle" x="1068.84" y="-228.95" font-family="Times New Roman,serif" font-size="14.00">unsigned varint</text>
</g>
<!-- 20&#45;&gt;21 -->
<g id="edge11" class="edge">
<title>20&#45;&gt;21</title>
<path fill="none" stroke="black" d="M804.61,-234C853.1,-234 930.44,-234 988.76,-234"/>
<polygon fill="black" stroke="black" points="988.65,-237.5 998.65,-234 988.65,-230.5 988.65,-237.5"/>
</g>
<!-- 23 -->
<!-- name: &quot;Block Id&quot;, typeName: &quot;&quot;, id: 23, branchId: 0, recurseId: &#45;1, attributes: 0, notes: &quot;&quot; -->
<g id="node14" class="node">
<title>23</title>
<ellipse fill="none" stroke="black" cx="911.71" cy="-180" rx="43.16" ry="18"/>
<text text-anchor="middle" x="911.71" y="-174.95" font-family="Times New Roman,serif" font-size="14.00">Block Id</text>
</g>
<!-- 22&#45;&gt;23 -->
<g id="edge13" class="edge">
<title>22&#45;&gt;23</title>
<path fill="none" stroke="black" d="M828.89,-173.01C838.52,-173.83 848.28,-174.66 857.53,-175.45"/>
<polygon fill="black" stroke="black" points="857.18,-178.94 867.44,-176.3 857.77,-171.96 857.18,-178.94"/>
</g>
<!-- 25 -->
<!-- name: &quot;Priority&quot;, typeName: &quot;&quot;, id: 25, branchId: 0, recurseId: &#45;1, attributes: 0, notes: &quot;&quot; -->
<g id="node16" class="node">
<title>25</title>
<ellipse fill="none" stroke="black" cx="911.71" cy="-126" rx="39.07" ry="18"/>
<text text-anchor="middle" x="911.71" y="-120.95" font-family="Times New Roman,serif" font-size="14.00">Priority</text>
</g>
<!-- 22&#45;&gt;25 -->
<g id="edge15" class="edge">
<title>22&#45;&gt;25</title>
<path fill="none" stroke="black" d="M808.86,-153.46C827.4,-148.46 848.26,-142.84 866.26,-137.99"/>
<polygon fill="black" stroke="black" points="867.12,-141.38 875.86,-135.4 865.3,-134.62 867.12,-141.38"/>
</g>
<!-- 24 -->
<!-- name: &quot;string&quot;, typeName: &quot;&quot;, id: 24, branchId: 0, recurseId: &#45;1, attributes: 512, notes: &quot;&quot; -->
<g id="node15" class="node">
<title>24</title>
<ellipse fill="none" stroke="black" cx="1068.84" cy="-180" rx="31.9" ry="18"/>
<text text-anchor="middle" x="1068.84" y="-174.95" font-family="Times New Roman,serif" font-size="14.00">string</text>
</g>
<!-- 23&#45;&gt;24 -->
<g id="edge14" class="edge">
<title>23&#45;&gt;24</title>
<path fill="none" stroke="black" d="M955.1,-180C977,-180 1003.65,-180 1025.53,-180"/>
<polygon fill="black" stroke="black" points="1025.3,-183.5 1035.3,-180 1025.3,-176.5 1025.3,-183.5"/>
</g>
<!-- 26 -->
<!-- name: &quot;int&quot;, typeName: &quot;&quot;, id: 26, branchId: 0, recurseId: &#45;1, attributes: 512, notes: &quot;&quot; -->
<g id="node17" class="node">
<title>26</title>
<ellipse fill="none" stroke="black" cx="1068.84" cy="-126" rx="27" ry="18"/>
<text text-anchor="middle" x="1068.84" y="-120.95" font-family="Times New Roman,serif" font-size="14.00">int</text>
</g>
<!-- 25&#45;&gt;26 -->
<g id="edge16" class="edge">
<title>25&#45;&gt;26</title>
<path fill="none" stroke="black" d="M951.06,-126C975.16,-126 1006.11,-126 1030.1,-126"/>
<polygon fill="black" stroke="black" points="1030.08,-129.5 1040.08,-126 1030.08,-122.5 1030.08,-129.5"/>
</g>
<!-- 33 -->
<!-- name: &quot;std::optional&lt;int&gt;&quot;, typeName: &quot;&quot;, id: 33, branchId: 0, recurseId: &#45;1, attributes: 512, notes: &quot;&quot; -->
<g id="node19" class="node">
<title>33</title>
<ellipse fill="none" stroke="black" cx="1068.84" cy="-72" rx="77.97" ry="18"/>
<text text-anchor="middle" x="1068.84" y="-66.95" font-family="Times New Roman,serif" font-size="14.00">std::optional&lt;int&gt;</text>
</g>
<!-- 27&#45;&gt;33 -->
<g id="edge18" class="edge">
<title>27&#45;&gt;33</title>
<path fill="none" stroke="black" d="M645.88,-95.55C730.93,-90.81 884.52,-82.23 981.08,-76.84"/>
<polygon fill="black" stroke="black" points="981.26,-80.34 991.05,-76.29 980.87,-73.35 981.26,-80.34"/>
</g>
<!-- 35 -->
<!-- name: &quot;std::optional&lt;int&gt;&quot;, typeName: &quot;&quot;, id: 35, branchId: 0, recurseId: &#45;1, attributes: 512, notes: &quot;&quot; -->
<g id="node21" class="node">
<title>35</title>
<ellipse fill="none" stroke="black" cx="1068.84" cy="-18" rx="77.97" ry="18"/>
<text text-anchor="middle" x="1068.84" y="-12.95" font-family="Times New Roman,serif" font-size="14.00">std::optional&lt;int&gt;</text>
</g>
<!-- 34&#45;&gt;35 -->
<g id="edge20" class="edge">
<title>34&#45;&gt;35</title>
<path fill="none" stroke="black" d="M645.39,-41.58C730.48,-36.83 884.89,-28.21 981.6,-22.81"/>
<polygon fill="black" stroke="black" points="981.5,-26.32 991.29,-22.27 981.11,-19.34 981.5,-26.32"/>
</g>
</g>
</svg>
