<?xml version="1.0" encoding="UTF-8" standalone="no"?>
<!DOCTYPE svg PUBLIC "-//W3C//DTD SVG 1.1//EN"
 "http://www.w3.org/Graphics/SVG/1.1/DTD/svg11.dtd">
<!-- Generated by graphviz version 14.1.1 (20251213.1925)
 -->
<!-- Title: SharedTypes::Comprehensive::CameraAimAssistCommandDefinition Pages: 1 -->
<svg width="1119pt" height="233pt"
 viewBox="0.00 0.00 1119.00 233.00" xmlns="http://www.w3.org/2000/svg" xmlns:xlink="http://www.w3.org/1999/xlink">
<g id="graph0" class="graph" transform="scale(1 1) rotate(0) translate(4 229)">
<title>SharedTypes::Comprehensive::CameraAimAssistCommandDefinition</title>
<polygon fill="white" stroke="none" points="-4,4 -4,-229 1115.49,-229 1115.49,4 -4,4"/>
<!-- 0 -->
<!-- name: &quot;SharedTypes::Comprehensive::CameraAimAssistCommandDefinition&quot;, typeName: &quot;&quot;, id: 0, branchId: 0, recurseId: &#45;1, attributes: 0, notes: &quot;&quot; -->
<g id="node1" class="node">
<title>0</title>
<ellipse fill="none" stroke="black" cx="272.96" cy="-126" rx="272.96" ry="18"/>
<text xml:space="preserve" text-anchor="middle" x="272.96" y="-120.95" font-family="Times New Roman,serif" font-size="14.00">SharedTypes::Comprehensive::CameraAimAssistCommandDefinition</text>
</g>
<!-- 1 -->
<!-- name: &quot;Preset Id&quot;, typeName: &quot;&quot;, id: 1, branchId: 0, recurseId: &#45;1, attributes: 0, notes: &quot;&quot; -->
<g id="node2" class="node">
<title>1</title>
<ellipse fill="none" stroke="black" cx="640.96" cy="-207" rx="43.67" ry="18"/>
<text xml:space="preserve" text-anchor="middle" x="640.96" y="-201.95" font-family="Times New Roman,serif" font-size="14.00">Preset Id</text>
</g>
<!-- 0&#45;&gt;1 -->
<g id="edge1" class="edge">
<title>0&#45;&gt;1</title>
<path fill="none" stroke="black" d="M353.38,-143.58C425.67,-159.57 530.11,-182.69 590.92,-196.15"/>
<polygon fill="black" stroke="black" points="590.11,-199.55 600.63,-198.3 591.62,-192.72 590.11,-199.55"/>
</g>
<!-- 2 -->
<!-- name: &quot;Target Mode&quot;, typeName: &quot;&quot;, id: 2, branchId: 0, recurseId: &#45;1, attributes: 0, notes: &quot;&quot; -->
<g id="node3" class="node">
<title>2</title>
<ellipse fill="none" stroke="black" cx="640.96" cy="-153" rx="59.03" ry="18"/>
<text xml:space="preserve" text-anchor="middle" x="640.96" y="-147.95" font-family="Times New Roman,serif" font-size="14.00">Target Mode</text>
</g>
<!-- 0&#45;&gt;2 -->
<g id="edge2" class="edge">
<title>0&#45;&gt;2</title>
<path fill="none" stroke="black" d="M458.3,-139.6C499.02,-142.6 539.66,-145.6 572.14,-148"/>
<polygon fill="black" stroke="black" points="571.53,-151.46 581.76,-148.71 572.05,-144.48 571.53,-151.46"/>
</g>
<!-- 4 -->
<!-- name: &quot;View Angle&quot;, typeName: &quot;&quot;, id: 4, branchId: 0, recurseId: &#45;1, attributes: 0, notes: &quot;&quot; -->
<g id="node5" class="node">
<title>4</title>
<ellipse fill="none" stroke="black" cx="640.96" cy="-99" rx="54.93" ry="18"/>
<text xml:space="preserve" text-anchor="middle" x="640.96" y="-93.95" font-family="Times New Roman,serif" font-size="14.00">View Angle</text>
</g>
<!-- 0&#45;&gt;4 -->
<g id="edge4" class="edge">
<title>0&#45;&gt;4</title>
<path fill="none" stroke="black" d="M458.3,-112.4C500.46,-109.29 542.52,-106.19 575.53,-103.75"/>
<polygon fill="black" stroke="black" points="575.59,-107.26 585.31,-103.03 575.08,-100.28 575.59,-107.26"/>
</g>
<!-- 9 -->
<!-- name: &quot;Distance&quot;, typeName: &quot;&quot;, id: 9, branchId: 0, recurseId: &#45;1, attributes: 0, notes: &quot;&quot; -->
<g id="node10" class="node">
<title>9</title>
<ellipse fill="none" stroke="black" cx="779.15" cy="-18" rx="43.16" ry="18"/>
<text xml:space="preserve" text-anchor="middle" x="779.15" y="-12.95" font-family="Times New Roman,serif" font-size="14.00">Distance</text>
</g>
<!-- 0&#45;&gt;9 -->
<g id="edge9" class="edge">
<title>0&#45;&gt;9</title>
<path fill="none" stroke="black" d="M356.09,-108.41C461.84,-85.76 642.28,-47.1 728.9,-28.55"/>
<polygon fill="black" stroke="black" points="729.46,-32.01 738.51,-26.49 728,-25.16 729.46,-32.01"/>
</g>
<!-- 3 -->
<!-- name: &quot;enum Aim&#45;Assist Target Mode&quot;, typeName: &quot;&quot;, id: 3, branchId: 0, recurseId: &#45;1, attributes: 512, notes: &quot;&quot; -->
<g id="node4" class="node">
<title>3</title>
<ellipse fill="none" stroke="black" cx="984.9" cy="-180" rx="126.59" ry="18"/>
<text xml:space="preserve" text-anchor="middle" x="984.9" y="-174.95" font-family="Times New Roman,serif" font-size="14.00">enum Aim&#45;Assist Target Mode</text>
</g>
<!-- 2&#45;&gt;3 -->
<g id="edge3" class="edge">
<title>2&#45;&gt;3</title>
<path fill="none" stroke="black" d="M698.42,-157.46C742.7,-160.95 805.94,-165.95 861.65,-170.35"/>
<polygon fill="black" stroke="black" points="861.29,-173.83 871.54,-171.13 861.84,-166.85 861.29,-173.83"/>
</g>
<!-- 5 -->
<!-- name: &quot;X&quot;, typeName: &quot;&quot;, id: 5, branchId: 0, recurseId: &#45;1, attributes: 0, notes: &quot;&quot; -->
<g id="node6" class="node">
<title>5</title>
<ellipse fill="none" stroke="black" cx="779.15" cy="-126" rx="27" ry="18"/>
<text xml:space="preserve" text-anchor="middle" x="779.15" y="-120.95" font-family="Times New Roman,serif" font-size="14.00">X</text>
</g>
<!-- 4&#45;&gt;5 -->
<g id="edge5" class="edge">
<title>4&#45;&gt;5</title>
<path fill="none" stroke="black" d="M688.83,-108.29C706.16,-111.73 725.54,-115.57 741.8,-118.79"/>
<polygon fill="black" stroke="black" points="741.05,-122.21 751.54,-120.72 742.41,-115.35 741.05,-122.21"/>
</g>
<!-- 7 -->
<!-- name: &quot;Y&quot;, typeName: &quot;&quot;, id: 7, branchId: 0, recurseId: &#45;1, attributes: 0, notes: &quot;&quot; -->
<g id="node8" class="node">
<title>7</title>
<ellipse fill="none" stroke="black" cx="779.15" cy="-72" rx="27" ry="18"/>
<text xml:space="preserve" text-anchor="middle" x="779.15" y="-66.95" font-family="Times New Roman,serif" font-size="14.00">Y</text>
</g>
<!-- 4&#45;&gt;7 -->
<g id="edge7" class="edge">
<title>4&#45;&gt;7</title>
<path fill="none" stroke="black" d="M688.83,-89.71C706.16,-86.27 725.54,-82.43 741.8,-79.21"/>
<polygon fill="black" stroke="black" points="742.41,-82.65 751.54,-77.28 741.05,-75.79 742.41,-82.65"/>
</g>
<!-- 6 -->
<!-- name: &quot;float&quot;, typeName: &quot;&quot;, id: 6, branchId: 0, recurseId: &#45;1, attributes: 512, notes: &quot;&quot; -->
<g id="node7" class="node">
<title>6</title>
<ellipse fill="none" stroke="black" cx="984.9" cy="-126" rx="27.81" ry="18"/>
<text xml:space="preserve" text-anchor="middle" x="984.9" y="-120.95" font-family="Times New Roman,serif" font-size="14.00">float</text>
</g>
<!-- 5&#45;&gt;6 -->
<g id="edge6" class="edge">
<title>5&#45;&gt;6</title>
<path fill="none" stroke="black" d="M806.37,-126C841.68,-126 904.78,-126 945.46,-126"/>
<polygon fill="black" stroke="black" points="945.29,-129.5 955.29,-126 945.29,-122.5 945.29,-129.5"/>
</g>
<!-- 8 -->
<!-- name: &quot;float&quot;, typeName: &quot;&quot;, id: 8, branchId: 0, recurseId: &#45;1, attributes: 512, notes: &quot;&quot; -->
<g id="node9" class="node">
<title>8</title>
<ellipse fill="none" stroke="black" cx="984.9" cy="-72" rx="27.81" ry="18"/>
<text xml:space="preserve" text-anchor="middle" x="984.9" y="-66.95" font-family="Times New Roman,serif" font-size="14.00">float</text>
</g>
<!-- 7&#45;&gt;8 -->
<g id="edge8" class="edge">
<title>7&#45;&gt;8</title>
<path fill="none" stroke="black" d="M806.37,-72C841.68,-72 904.78,-72 945.46,-72"/>
<polygon fill="black" stroke="black" points="945.29,-75.5 955.29,-72 945.29,-68.5 945.29,-75.5"/>
</g>
<!-- 10 -->
<!-- name: &quot;float&quot;, typeName: &quot;&quot;, id: 10, branchId: 0, recurseId: &#45;1, attributes: 512, notes: &quot;&quot; -->
<g id="node11" class="node">
<title>10</title>
<ellipse fill="none" stroke="black" cx="984.9" cy="-18" rx="27.81" ry="18"/>
<text xml:space="preserve" text-anchor="middle" x="984.9" y="-12.95" font-family="Times New Roman,serif" font-size="14.00">float</text>
</g>
<!-- 9&#45;&gt;10 -->
<g id="edge10" class="edge">
<title>9&#45;&gt;10</title>
<path fill="none" stroke="black" d="M822.37,-18C858.6,-18 910.38,-18 945.47,-18"/>
<polygon fill="black" stroke="black" points="945.17,-21.5 955.17,-18 945.17,-14.5 945.17,-21.5"/>
</g>
</g>
</svg>
