<?xml version="1.0" encoding="UTF-8" standalone="no"?>
<!DOCTYPE svg PUBLIC "-//W3C//DTD SVG 1.1//EN"
 "http://www.w3.org/Graphics/SVG/1.1/DTD/svg11.dtd">
<!-- Generated by graphviz version 13.1.2 (20250808.2320)
 -->
<!-- Title: SharedTypes::Comprehensive::CameraPresetAimAssistDefinition Pages: 1 -->
<svg width="1086pt" height="233pt"
 viewBox="0.00 0.00 1086.00 233.00" xmlns="http://www.w3.org/2000/svg" xmlns:xlink="http://www.w3.org/1999/xlink">
<g id="graph0" class="graph" transform="scale(1 1) rotate(0) translate(4 229)">
<title>SharedTypes::Comprehensive::CameraPresetAimAssistDefinition</title>
<polygon fill="white" stroke="none" points="-4,4 -4,-229 1081.71,-229 1081.71,4 -4,4"/>
<!-- 0 -->
<!-- name: &quot;SharedTypes::Comprehensive::CameraPresetAimAssistDefinition&quot;, typeName: &quot;&quot;, id: 0, branchId: 0, recurseId: &#45;1, attributes: 0, notes: &quot;&quot; -->
<g id="node1" class="node">
<title>0</title>
<ellipse fill="none" stroke="black" cx="256.07" cy="-126" rx="256.07" ry="18"/>
<text xml:space="preserve" text-anchor="middle" x="256.07" y="-120.95" font-family="Times New Roman,serif" font-size="14.00">SharedTypes::Comprehensive::CameraPresetAimAssistDefinition</text>
</g>
<!-- 1 -->
<!-- name: &quot;Preset Id&quot;, typeName: &quot;&quot;, id: 1, branchId: 0, recurseId: &#45;1, attributes: 0, notes: &quot;&quot; -->
<g id="node2" class="node">
<title>1</title>
<ellipse fill="none" stroke="black" cx="607.18" cy="-207" rx="43.67" ry="18"/>
<text xml:space="preserve" text-anchor="middle" x="607.18" y="-201.95" font-family="Times New Roman,serif" font-size="14.00">Preset Id</text>
</g>
<!-- 0&#45;&gt;1 -->
<g id="edge1" class="edge">
<title>0&#45;&gt;1</title>
<path fill="none" stroke="black" d="M332.82,-143.58C401.07,-159.41 499.36,-182.22 557.6,-195.73"/>
<polygon fill="black" stroke="black" points="556.69,-199.11 567.22,-197.96 558.27,-192.29 556.69,-199.11"/>
</g>
<!-- 2 -->
<!-- name: &quot;Target Mode&quot;, typeName: &quot;&quot;, id: 2, branchId: 0, recurseId: &#45;1, attributes: 0, notes: &quot;&quot; -->
<g id="node3" class="node">
<title>2</title>
<ellipse fill="none" stroke="black" cx="607.18" cy="-153" rx="59.03" ry="18"/>
<text xml:space="preserve" text-anchor="middle" x="607.18" y="-147.95" font-family="Times New Roman,serif" font-size="14.00">Target Mode</text>
</g>
<!-- 0&#45;&gt;2 -->
<g id="edge2" class="edge">
<title>0&#45;&gt;2</title>
<path fill="none" stroke="black" d="M431.37,-139.48C469.35,-142.42 507.34,-145.36 538.16,-147.74"/>
<polygon fill="black" stroke="black" points="537.85,-151.23 548.09,-148.51 538.39,-144.25 537.85,-151.23"/>
</g>
<!-- 4 -->
<!-- name: &quot;View Angle&quot;, typeName: &quot;&quot;, id: 4, branchId: 0, recurseId: &#45;1, attributes: 0, notes: &quot;&quot; -->
<g id="node5" class="node">
<title>4</title>
<ellipse fill="none" stroke="black" cx="607.18" cy="-99" rx="54.93" ry="18"/>
<text xml:space="preserve" text-anchor="middle" x="607.18" y="-93.95" font-family="Times New Roman,serif" font-size="14.00">View Angle</text>
</g>
<!-- 0&#45;&gt;4 -->
<g id="edge4" class="edge">
<title>0&#45;&gt;4</title>
<path fill="none" stroke="black" d="M431.37,-112.52C471.03,-109.45 510.71,-106.38 542.22,-103.95"/>
<polygon fill="black" stroke="black" points="542.23,-107.46 551.93,-103.2 541.69,-100.48 542.23,-107.46"/>
</g>
<!-- 9 -->
<!-- name: &quot;Distance&quot;, typeName: &quot;&quot;, id: 9, branchId: 0, recurseId: &#45;1, attributes: 0, notes: &quot;&quot; -->
<g id="node10" class="node">
<title>9</title>
<ellipse fill="none" stroke="black" cx="745.37" cy="-18" rx="43.16" ry="18"/>
<text xml:space="preserve" text-anchor="middle" x="745.37" y="-12.95" font-family="Times New Roman,serif" font-size="14.00">Distance</text>
</g>
<!-- 0&#45;&gt;9 -->
<g id="edge9" class="edge">
<title>0&#45;&gt;9</title>
<path fill="none" stroke="black" d="M336.18,-108.47C437.84,-85.94 611.23,-47.51 695.5,-28.83"/>
<polygon fill="black" stroke="black" points="696.06,-32.29 705.06,-26.71 694.54,-25.46 696.06,-32.29"/>
</g>
<!-- 3 -->
<!-- name: &quot;enum Aim&#45;Assist Target Mode&quot;, typeName: &quot;&quot;, id: 3, branchId: 0, recurseId: &#45;1, attributes: 512, notes: &quot;&quot; -->
<g id="node4" class="node">
<title>3</title>
<ellipse fill="none" stroke="black" cx="951.12" cy="-180" rx="126.59" ry="18"/>
<text xml:space="preserve" text-anchor="middle" x="951.12" y="-174.95" font-family="Times New Roman,serif" font-size="14.00">enum Aim&#45;Assist Target Mode</text>
</g>
<!-- 2&#45;&gt;3 -->
<g id="edge3" class="edge">
<title>2&#45;&gt;3</title>
<path fill="none" stroke="black" d="M664.64,-157.46C708.92,-160.95 772.16,-165.95 827.87,-170.35"/>
<polygon fill="black" stroke="black" points="827.51,-173.83 837.76,-171.13 828.06,-166.85 827.51,-173.83"/>
</g>
<!-- 5 -->
<!-- name: &quot;X&quot;, typeName: &quot;&quot;, id: 5, branchId: 0, recurseId: &#45;1, attributes: 0, notes: &quot;&quot; -->
<g id="node6" class="node">
<title>5</title>
<ellipse fill="none" stroke="black" cx="745.37" cy="-126" rx="27" ry="18"/>
<text xml:space="preserve" text-anchor="middle" x="745.37" y="-120.95" font-family="Times New Roman,serif" font-size="14.00">X</text>
</g>
<!-- 4&#45;&gt;5 -->
<g id="edge5" class="edge">
<title>4&#45;&gt;5</title>
<path fill="none" stroke="black" d="M655.05,-108.29C672.38,-111.73 691.76,-115.57 708.02,-118.79"/>
<polygon fill="black" stroke="black" points="707.27,-122.21 717.76,-120.72 708.63,-115.35 707.27,-122.21"/>
</g>
<!-- 7 -->
<!-- name: &quot;Y&quot;, typeName: &quot;&quot;, id: 7, branchId: 0, recurseId: &#45;1, attributes: 0, notes: &quot;&quot; -->
<g id="node8" class="node">
<title>7</title>
<ellipse fill="none" stroke="black" cx="745.37" cy="-72" rx="27" ry="18"/>
<text xml:space="preserve" text-anchor="middle" x="745.37" y="-66.95" font-family="Times New Roman,serif" font-size="14.00">Y</text>
</g>
<!-- 4&#45;&gt;7 -->
<g id="edge7" class="edge">
<title>4&#45;&gt;7</title>
<path fill="none" stroke="black" d="M655.05,-89.71C672.38,-86.27 691.76,-82.43 708.02,-79.21"/>
<polygon fill="black" stroke="black" points="708.63,-82.65 717.76,-77.28 707.27,-75.79 708.63,-82.65"/>
</g>
<!-- 6 -->
<!-- name: &quot;float&quot;, typeName: &quot;&quot;, id: 6, branchId: 0, recurseId: &#45;1, attributes: 512, notes: &quot;&quot; -->
<g id="node7" class="node">
<title>6</title>
<ellipse fill="none" stroke="black" cx="951.12" cy="-126" rx="27.81" ry="18"/>
<text xml:space="preserve" text-anchor="middle" x="951.12" y="-120.95" font-family="Times New Roman,serif" font-size="14.00">float</text>
</g>
<!-- 5&#45;&gt;6 -->
<g id="edge6" class="edge">
<title>5&#45;&gt;6</title>
<path fill="none" stroke="black" d="M772.59,-126C807.9,-126 871,-126 911.68,-126"/>
<polygon fill="black" stroke="black" points="911.51,-129.5 921.51,-126 911.51,-122.5 911.51,-129.5"/>
</g>
<!-- 8 -->
<!-- name: &quot;float&quot;, typeName: &quot;&quot;, id: 8, branchId: 0, recurseId: &#45;1, attributes: 512, notes: &quot;&quot; -->
<g id="node9" class="node">
<title>8</title>
<ellipse fill="none" stroke="black" cx="951.12" cy="-72" rx="27.81" ry="18"/>
<text xml:space="preserve" text-anchor="middle" x="951.12" y="-66.95" font-family="Times New Roman,serif" font-size="14.00">float</text>
</g>
<!-- 7&#45;&gt;8 -->
<g id="edge8" class="edge">
<title>7&#45;&gt;8</title>
<path fill="none" stroke="black" d="M772.59,-72C807.9,-72 871,-72 911.68,-72"/>
<polygon fill="black" stroke="black" points="911.51,-75.5 921.51,-72 911.51,-68.5 911.51,-75.5"/>
</g>
<!-- 10 -->
<!-- name: &quot;float&quot;, typeName: &quot;&quot;, id: 10, branchId: 0, recurseId: &#45;1, attributes: 512, notes: &quot;&quot; -->
<g id="node11" class="node">
<title>10</title>
<ellipse fill="none" stroke="black" cx="951.12" cy="-18" rx="27.81" ry="18"/>
<text xml:space="preserve" text-anchor="middle" x="951.12" y="-12.95" font-family="Times New Roman,serif" font-size="14.00">float</text>
</g>
<!-- 9&#45;&gt;10 -->
<g id="edge10" class="edge">
<title>9&#45;&gt;10</title>
<path fill="none" stroke="black" d="M788.59,-18C824.82,-18 876.6,-18 911.69,-18"/>
<polygon fill="black" stroke="black" points="911.39,-21.5 921.39,-18 911.39,-14.5 911.39,-21.5"/>
</g>
</g>
</svg>
