<?xml version="1.0" encoding="UTF-8" standalone="no"?>
<!DOCTYPE svg PUBLIC "-//W3C//DTD SVG 1.1//EN"
 "http://www.w3.org/Graphics/SVG/1.1/DTD/svg11.dtd">
<!-- Generated by graphviz version 12.2.1 (20241206.2353)
 -->
<!-- Title: SharedTypes::v1_21_50::CameraAimAssistCategoryDefinition Pages: 1 -->
<svg width="1145pt" height="98pt"
 viewBox="0.00 0.00 1144.56 98.00" xmlns="http://www.w3.org/2000/svg" xmlns:xlink="http://www.w3.org/1999/xlink">
<g id="graph0" class="graph" transform="scale(1 1) rotate(0) translate(4 94)">
<title>SharedTypes::v1_21_50::CameraAimAssistCategoryDefinition</title>
<polygon fill="white" stroke="none" points="-4,4 -4,-94 1140.56,-94 1140.56,4 -4,4"/>
<!-- 6 -->
<!-- name: &quot;SharedTypes::v1_21_50::CameraAimAssistCategoryDefinition&quot;, typeName: &quot;&quot;, id: 6, branchId: 0, recurseId: &#45;1, attributes: 0, notes: &quot;&quot; -->
<g id="node1" class="node">
<title>6</title>
<ellipse fill="none" stroke="black" cx="245.84" cy="-45" rx="245.84" ry="18"/>
<text text-anchor="middle" x="245.84" y="-39.95" font-family="Times New Roman,serif" font-size="14.00">SharedTypes::v1_21_50::CameraAimAssistCategoryDefinition</text>
</g>
<!-- 7 -->
<!-- name: &quot;Name&quot;, typeName: &quot;&quot;, id: 7, branchId: 0, recurseId: &#45;1, attributes: 0, notes: &quot;&quot; -->
<g id="node2" class="node">
<title>7</title>
<ellipse fill="none" stroke="black" cx="572.37" cy="-72" rx="33.44" ry="18"/>
<text text-anchor="middle" x="572.37" y="-66.95" font-family="Times New Roman,serif" font-size="14.00">Name</text>
</g>
<!-- 6&#45;&gt;7 -->
<g id="edge1" class="edge">
<title>6&#45;&gt;7</title>
<path fill="none" stroke="black" d="M411.01,-58.66C454.22,-62.25 497.26,-65.83 527.85,-68.38"/>
<polygon fill="black" stroke="black" points="527.18,-71.84 537.44,-69.18 527.76,-64.86 527.18,-71.84"/>
</g>
<!-- 9 -->
<!-- name: &quot;Priorities&quot;, typeName: &quot;SharedTypes::v1_21_50::CameraAimAssistCategoryPriorities&quot;, id: 9, branchId: 0, recurseId: &#45;1, attributes: 256, notes: &quot;&quot; -->
<g id="node4" class="node">
<title>9</title>
<ellipse fill="none" stroke="black" cx="572.37" cy="-18" rx="44.7" ry="18"/>
<text text-anchor="middle" x="572.37" y="-12.95" font-family="Times New Roman,serif" font-size="14.00">Priorities</text>
</g>
<!-- 6&#45;&gt;9 -->
<g id="edge3" class="edge">
<title>6&#45;&gt;9</title>
<path fill="none" stroke="black" d="M411.01,-31.34C449.32,-28.15 487.48,-24.98 516.96,-22.53"/>
<polygon fill="black" stroke="black" points="517.04,-26.03 526.72,-21.72 516.46,-19.06 517.04,-26.03"/>
</g>
<!-- 8 -->
<!-- name: &quot;string&quot;, typeName: &quot;&quot;, id: 8, branchId: 0, recurseId: &#45;1, attributes: 512, notes: &quot;&quot; -->
<g id="node3" class="node">
<title>8</title>
<ellipse fill="none" stroke="black" cx="894.82" cy="-72" rx="31.9" ry="18"/>
<text text-anchor="middle" x="894.82" y="-66.95" font-family="Times New Roman,serif" font-size="14.00">string</text>
</g>
<!-- 7&#45;&gt;8 -->
<g id="edge2" class="edge">
<title>7&#45;&gt;8</title>
<path fill="none" stroke="black" d="M606.16,-72C664.58,-72 786.59,-72 851.34,-72"/>
<polygon fill="black" stroke="black" points="851.22,-75.5 861.22,-72 851.22,-68.5 851.22,-75.5"/>
</g>
<!-- 39 -->
<!-- name: &quot;SharedTypes::v1_21_50::CameraAimAssistCategoryPriorities&quot;, typeName: &quot;&quot;, id: 39, branchId: 0, recurseId: &#45;1, attributes: 512, notes: &quot;&quot; -->
<g id="node5" class="node">
<title>39</title>
<ellipse fill="none" stroke="black" cx="894.82" cy="-18" rx="241.74" ry="18"/>
<text text-anchor="middle" x="894.82" y="-12.95" font-family="Times New Roman,serif" font-size="14.00">SharedTypes::v1_21_50::CameraAimAssistCategoryPriorities</text>
</g>
<!-- 9&#45;&gt;39 -->
<g id="edge4" class="edge">
<title>9&#45;&gt;39</title>
<path fill="none" stroke="black" d="M617.26,-18C624.67,-18 632.8,-18 641.48,-18"/>
<polygon fill="black" stroke="black" points="641.24,-21.5 651.24,-18 641.24,-14.5 641.24,-21.5"/>
</g>
</g>
</svg>
