<?xml version="1.0" encoding="UTF-8" standalone="no"?>
<!DOCTYPE svg PUBLIC "-//W3C//DTD SVG 1.1//EN"
 "http://www.w3.org/Graphics/SVG/1.1/DTD/svg11.dtd">
<!-- Generated by graphviz version 12.2.1 (20241206.2353)
 -->
<!-- Title: ShowProfilePacket Pages: 1 -->
<svg width="427pt" height="44pt"
 viewBox="0.00 0.00 427.01 44.00" xmlns="http://www.w3.org/2000/svg" xmlns:xlink="http://www.w3.org/1999/xlink">
<g id="graph0" class="graph" transform="scale(1 1) rotate(0) translate(4 40)">
<title>ShowProfilePacket</title>
<polygon fill="white" stroke="none" points="-4,4 -4,-40 423.01,-40 423.01,4 -4,4"/>
<!-- 0 -->
<!-- name: &quot;ShowProfilePacket&quot;, typeName: &quot;&quot;, id: 0, branchId: 104, recurseId: &#45;1, attributes: 0, notes: &quot;&quot; -->
<g id="node1" class="node">
<title>0</title>
<ellipse fill="none" stroke="black" cx="81.55" cy="-18" rx="81.55" ry="18"/>
<text text-anchor="middle" x="81.55" y="-12.95" font-family="Times New Roman,serif" font-size="14.00">ShowProfilePacket</text>
</g>
<!-- 1 -->
<!-- name: &quot;Player XUID&quot;, typeName: &quot;&quot;, id: 1, branchId: 0, recurseId: &#45;1, attributes: 0, notes: &quot;&quot; -->
<g id="node2" class="node">
<title>1</title>
<ellipse fill="none" stroke="black" cx="259.15" cy="-18" rx="60.05" ry="18"/>
<text text-anchor="middle" x="259.15" y="-12.95" font-family="Times New Roman,serif" font-size="14.00">Player XUID</text>
</g>
<!-- 0&#45;&gt;1 -->
<g id="edge1" class="edge">
<title>0&#45;&gt;1</title>
<path fill="none" stroke="black" d="M163.41,-18C171.39,-18 179.45,-18 187.32,-18"/>
<polygon fill="black" stroke="black" points="187.18,-21.5 197.17,-18 187.17,-14.5 187.18,-21.5"/>
</g>
<!-- 2 -->
<!-- name: &quot;string&quot;, typeName: &quot;&quot;, id: 2, branchId: 0, recurseId: &#45;1, attributes: 512, notes: &quot;&quot; -->
<g id="node3" class="node">
<title>2</title>
<ellipse fill="none" stroke="black" cx="387.1" cy="-18" rx="31.9" ry="18"/>
<text text-anchor="middle" x="387.1" y="-12.95" font-family="Times New Roman,serif" font-size="14.00">string</text>
</g>
<!-- 1&#45;&gt;2 -->
<g id="edge2" class="edge">
<title>1&#45;&gt;2</title>
<path fill="none" stroke="black" d="M319.44,-18C327.57,-18 335.79,-18 343.55,-18"/>
<polygon fill="black" stroke="black" points="343.37,-21.5 353.37,-18 343.37,-14.5 343.37,-21.5"/>
</g>
</g>
</svg>
