<?xml version="1.0" encoding="UTF-8" standalone="no"?>
<!DOCTYPE svg PUBLIC "-//W3C//DTD SVG 1.1//EN"
 "http://www.w3.org/Graphics/SVG/1.1/DTD/svg11.dtd">
<!-- Generated by graphviz version 10.0.1 (20240210.2158)
 -->
<!-- Title: ShowCreditsPacket Pages: 1 -->
<svg width="551pt" height="98pt"
 viewBox="0.00 0.00 551.05 98.00" xmlns="http://www.w3.org/2000/svg" xmlns:xlink="http://www.w3.org/1999/xlink">
<g id="graph0" class="graph" transform="scale(1 1) rotate(0) translate(4 94)">
<title>ShowCreditsPacket</title>
<polygon fill="white" stroke="none" points="-4,4 -4,-94 547.05,-94 547.05,4 -4,4"/>
<!-- 0 -->
<!-- name: &quot;ShowCreditsPacket&quot;, typeName: &quot;&quot;, id: 0, branchId: 75, recurseId: &#45;1, attributes: 0, notes: &quot;&quot; -->
<g id="node1" class="node">
<title>0</title>
<ellipse fill="none" stroke="black" cx="84" cy="-45" rx="84" ry="18"/>
<text text-anchor="middle" x="84" y="-39.58" font-family="Times New Roman,serif" font-size="14.00">ShowCreditsPacket</text>
</g>
<!-- 1 -->
<!-- name: &quot;Player Runtime ID&quot;, typeName: &quot;ActorRuntimeID&quot;, id: 1, branchId: 0, recurseId: &#45;1, attributes: 256, notes: &quot;&quot; -->
<g id="node2" class="node">
<title>1</title>
<ellipse fill="none" stroke="black" cx="283" cy="-72" rx="79.01" ry="18"/>
<text text-anchor="middle" x="283" y="-66.58" font-family="Times New Roman,serif" font-size="14.00">Player Runtime ID</text>
</g>
<!-- 0&#45;&gt;1 -->
<g id="edge1" class="edge">
<title>0&#45;&gt;1</title>
<path fill="none" stroke="black" d="M155.84,-54.71C171.2,-56.81 187.53,-59.05 203.17,-61.2"/>
<polygon fill="black" stroke="black" points="202.54,-64.64 212.92,-62.53 203.49,-57.71 202.54,-64.64"/>
</g>
<!-- 3 -->
<!-- name: &quot;Credits State&quot;, typeName: &quot;&quot;, id: 3, branchId: 0, recurseId: &#45;1, attributes: 0, notes: &quot;&quot; -->
<g id="node4" class="node">
<title>3</title>
<ellipse fill="none" stroke="black" cx="283" cy="-18" rx="58.55" ry="18"/>
<text text-anchor="middle" x="283" y="-12.57" font-family="Times New Roman,serif" font-size="14.00">Credits State</text>
</g>
<!-- 0&#45;&gt;3 -->
<g id="edge3" class="edge">
<title>0&#45;&gt;3</title>
<path fill="none" stroke="black" d="M155.84,-35.29C175.95,-32.54 197.72,-29.55 217.43,-26.85"/>
<polygon fill="black" stroke="black" points="217.84,-30.33 227.27,-25.5 216.89,-23.39 217.84,-30.33"/>
</g>
<!-- 2 -->
<!-- name: &quot;ActorRuntimeID&quot;, typeName: &quot;&quot;, id: 2, branchId: 0, recurseId: &#45;1, attributes: 512, notes: &quot;&quot; -->
<g id="node3" class="node">
<title>2</title>
<ellipse fill="none" stroke="black" cx="470.53" cy="-72" rx="72.52" ry="18"/>
<text text-anchor="middle" x="470.53" y="-66.58" font-family="Times New Roman,serif" font-size="14.00">ActorRuntimeID</text>
</g>
<!-- 1&#45;&gt;2 -->
<g id="edge2" class="edge">
<title>1&#45;&gt;2</title>
<path fill="none" stroke="black" d="M362.41,-72C370.26,-72 378.24,-72 386.13,-72"/>
<polygon fill="black" stroke="black" points="386.08,-75.5 396.08,-72 386.08,-68.5 386.08,-75.5"/>
</g>
<!-- 4 -->
<!-- name: &quot;varint&quot;, typeName: &quot;&quot;, id: 4, branchId: 0, recurseId: &#45;1, attributes: 512, notes: &quot;&quot; -->
<g id="node5" class="node">
<title>4</title>
<ellipse fill="none" stroke="black" cx="470.53" cy="-18" rx="31.1" ry="18"/>
<text text-anchor="middle" x="470.53" y="-12.57" font-family="Times New Roman,serif" font-size="14.00">varint</text>
</g>
<!-- 3&#45;&gt;4 -->
<g id="edge4" class="edge">
<title>3&#45;&gt;4</title>
<path fill="none" stroke="black" d="M341.94,-18C369.66,-18 402.23,-18 427.53,-18"/>
<polygon fill="black" stroke="black" points="427.44,-21.5 437.44,-18 427.44,-14.5 427.44,-21.5"/>
</g>
</g>
</svg>
