<?xml version="1.0" encoding="UTF-8" standalone="no"?>
<!DOCTYPE svg PUBLIC "-//W3C//DTD SVG 1.1//EN"
 "http://www.w3.org/Graphics/SVG/1.1/DTD/svg11.dtd">
<!-- Generated by graphviz version 2.46.1 (20210213.1702)
 -->
<!-- Title: ShulkerBoxRecipe Pages: 1 -->
<svg width="988pt" height="422pt"
 viewBox="0.00 0.00 987.83 422.00" xmlns="http://www.w3.org/2000/svg" xmlns:xlink="http://www.w3.org/1999/xlink">
<g id="graph0" class="graph" transform="scale(1 1) rotate(0) translate(4 418)">
<title>ShulkerBoxRecipe</title>
<polygon fill="white" stroke="transparent" points="-4,4 -4,-418 983.83,-418 983.83,4 -4,4"/>
<!-- 6 -->
<!-- name: &quot;ShulkerBoxRecipe&quot;, typeName: &quot;&quot;, id: 6, branchId: 0, recurseId: &#45;1, attributes: 0, notes: &quot;&quot; -->
<g id="node1" class="node">
<title>6</title>
<ellipse fill="none" stroke="black" cx="78.64" cy="-153" rx="78.79" ry="18"/>
<text text-anchor="middle" x="78.64" y="-149.3" font-family="Times New Roman,serif" font-size="14.00">ShulkerBoxRecipe</text>
</g>
<!-- 7 -->
<!-- name: &quot;Recipe Unique Id&quot;, typeName: &quot;&quot;, id: 7, branchId: 0, recurseId: &#45;1, attributes: 0, notes: &quot;&quot; -->
<g id="node2" class="node">
<title>7</title>
<ellipse fill="none" stroke="black" cx="615.6" cy="-392" rx="74.99" ry="18"/>
<text text-anchor="middle" x="615.6" y="-388.3" font-family="Times New Roman,serif" font-size="14.00">Recipe Unique Id</text>
</g>
<!-- 6&#45;&gt;7 -->
<g id="edge1" class="edge">
<title>6&#45;&gt;7</title>
<path fill="none" stroke="black" d="M87.42,-171C102.76,-204.38 140.08,-276.02 193.29,-315 293.45,-388.39 442.21,-398.8 533.55,-397.16"/>
<polygon fill="black" stroke="black" points="533.66,-400.66 543.57,-396.93 533.49,-393.66 533.66,-400.66"/>
</g>
<!-- 9 -->
<!-- name: &quot;Ingredient List&quot;, typeName: &quot;&quot;, id: 9, branchId: 0, recurseId: &#45;1, attributes: 8, notes: &quot;&quot; -->
<g id="node4" class="node">
<title>9</title>
<ellipse fill="none" stroke="black" cx="260.88" cy="-288" rx="63.09" ry="18"/>
<text text-anchor="middle" x="260.88" y="-284.3" font-family="Times New Roman,serif" font-size="14.00">Ingredient List</text>
</g>
<!-- 6&#45;&gt;9 -->
<g id="edge3" class="edge">
<title>6&#45;&gt;9</title>
<path fill="none" stroke="black" d="M102.84,-170.37C135.05,-194.5 193.41,-238.21 229.2,-265.02"/>
<polygon fill="black" stroke="black" points="227.24,-267.93 237.34,-271.12 231.44,-262.32 227.24,-267.93"/>
</g>
<!-- 15 -->
<!-- name: &quot;Production List&quot;, typeName: &quot;&quot;, id: 15, branchId: 0, recurseId: &#45;1, attributes: 8, notes: &quot;&quot; -->
<g id="node10" class="node">
<title>15</title>
<ellipse fill="none" stroke="black" cx="260.88" cy="-180" rx="67.69" ry="18"/>
<text text-anchor="middle" x="260.88" y="-176.3" font-family="Times New Roman,serif" font-size="14.00">Production List</text>
</g>
<!-- 6&#45;&gt;15 -->
<g id="edge9" class="edge">
<title>6&#45;&gt;15</title>
<path fill="none" stroke="black" d="M144.97,-162.79C160.17,-165.06 176.4,-167.49 191.73,-169.79"/>
<polygon fill="black" stroke="black" points="191.24,-173.26 201.65,-171.28 192.28,-166.33 191.24,-173.26"/>
</g>
<!-- 21 -->
<!-- name: &quot;Recipe ID&quot;, typeName: &quot;mce::UUID&quot;, id: 21, branchId: 0, recurseId: &#45;1, attributes: 256, notes: &quot;&quot; -->
<g id="node16" class="node">
<title>21</title>
<ellipse fill="none" stroke="black" cx="260.88" cy="-126" rx="48.19" ry="18"/>
<text text-anchor="middle" x="260.88" y="-122.3" font-family="Times New Roman,serif" font-size="14.00">Recipe ID</text>
</g>
<!-- 6&#45;&gt;21 -->
<g id="edge15" class="edge">
<title>6&#45;&gt;21</title>
<path fill="none" stroke="black" d="M144.97,-143.21C164.95,-140.22 186.7,-136.96 205.84,-134.1"/>
<polygon fill="black" stroke="black" points="206.51,-137.53 215.89,-132.59 205.48,-130.61 206.51,-137.53"/>
</g>
<!-- 23 -->
<!-- name: &quot;Recipe Tag&quot;, typeName: &quot;&quot;, id: 23, branchId: 0, recurseId: &#45;1, attributes: 0, notes: &quot;Available ones: CARTOGRAPHY_TABLE, CRAFTING_TABLE, SMITHING_TABLE, STONECUTTER, FURNACE_TAG, BLAST_FURNACE_TAG, SMOKER_TAG, CAMPFIRE_TAG, SOUL_CAMPFIRE_TAG&quot; -->
<g id="node18" class="node">
<title>23</title>
<ellipse fill="none" stroke="black" cx="615.6" cy="-74" rx="52.79" ry="18"/>
<text text-anchor="middle" x="615.6" y="-70.3" font-family="Times New Roman,serif" font-size="14.00">Recipe Tag</text>
</g>
<!-- 6&#45;&gt;23 -->
<g id="edge17" class="edge">
<title>6&#45;&gt;23</title>
<path fill="none" stroke="black" d="M107.45,-136.05C129.78,-123.38 162.4,-106.93 193.29,-99 318.3,-66.89 470.76,-67.13 553.7,-70.41"/>
<polygon fill="black" stroke="black" points="553.57,-73.9 563.71,-70.83 553.86,-66.91 553.57,-73.9"/>
</g>
<!-- 25 -->
<!-- name: &quot;Priority&quot;, typeName: &quot;&quot;, id: 25, branchId: 0, recurseId: &#45;1, attributes: 0, notes: &quot;&quot; -->
<g id="node20" class="node">
<title>25</title>
<ellipse fill="none" stroke="black" cx="260.88" cy="-22" rx="37.89" ry="18"/>
<text text-anchor="middle" x="260.88" y="-18.3" font-family="Times New Roman,serif" font-size="14.00">Priority</text>
</g>
<!-- 6&#45;&gt;25 -->
<g id="edge19" class="edge">
<title>6&#45;&gt;25</title>
<path fill="none" stroke="black" d="M99.94,-135.36C122.19,-116.37 159.26,-85.68 193.29,-62 203.92,-54.6 215.96,-47.11 226.84,-40.66"/>
<polygon fill="black" stroke="black" points="228.8,-43.57 235.66,-35.5 225.26,-37.53 228.8,-43.57"/>
</g>
<!-- 8 -->
<!-- name: &quot;string&quot;, typeName: &quot;&quot;, id: 8, branchId: 0, recurseId: &#45;1, attributes: 512, notes: &quot;&quot; -->
<g id="node3" class="node">
<title>8</title>
<ellipse fill="none" stroke="black" cx="853.09" cy="-396" rx="30.59" ry="18"/>
<text text-anchor="middle" x="853.09" y="-392.3" font-family="Times New Roman,serif" font-size="14.00">string</text>
</g>
<!-- 7&#45;&gt;8 -->
<g id="edge2" class="edge">
<title>7&#45;&gt;8</title>
<path fill="none" stroke="black" d="M690.47,-393.25C730.75,-393.94 779.04,-394.76 812.28,-395.32"/>
<polygon fill="black" stroke="black" points="812.45,-398.83 822.51,-395.5 812.57,-391.83 812.45,-398.83"/>
</g>
<!-- 10 -->
<!-- name: &quot;Array Size&quot;, typeName: &quot;&quot;, id: 10, branchId: 0, recurseId: &#45;1, attributes: 0, notes: &quot;&quot; -->
<g id="node5" class="node">
<title>10</title>
<ellipse fill="none" stroke="black" cx="434.67" cy="-342" rx="48.99" ry="18"/>
<text text-anchor="middle" x="434.67" y="-338.3" font-family="Times New Roman,serif" font-size="14.00">Array Size</text>
</g>
<!-- 9&#45;&gt;10 -->
<g id="edge4" class="edge">
<title>9&#45;&gt;10</title>
<path fill="none" stroke="black" d="M303.9,-301.21C329.18,-309.16 361.39,-319.28 387.39,-327.45"/>
<polygon fill="black" stroke="black" points="386.44,-330.82 397.03,-330.48 388.54,-324.15 386.44,-330.82"/>
</g>
<!-- 12 -->
<!-- name: &quot;example element&quot;, typeName: &quot;&quot;, id: 12, branchId: 0, recurseId: &#45;1, attributes: 16, notes: &quot;&quot; -->
<g id="node7" class="node">
<title>12</title>
<ellipse fill="none" stroke="black" stroke-dasharray="1,5" cx="434.67" cy="-288" rx="70.39" ry="18"/>
<text text-anchor="middle" x="434.67" y="-284.3" font-family="Times New Roman,serif" font-size="14.00">example element</text>
</g>
<!-- 9&#45;&gt;12 -->
<g id="edge6" class="edge">
<title>9&#45;&gt;12</title>
<path fill="none" stroke="black" d="M324.39,-288C334,-288 344.03,-288 353.96,-288"/>
<polygon fill="black" stroke="black" points="354.24,-291.5 364.24,-288 354.24,-284.5 354.24,-291.5"/>
</g>
<!-- 11 -->
<!-- name: &quot;unsigned varint&quot;, typeName: &quot;&quot;, id: 11, branchId: 0, recurseId: &#45;1, attributes: 512, notes: &quot;&quot; -->
<g id="node6" class="node">
<title>11</title>
<ellipse fill="none" stroke="black" cx="853.09" cy="-342" rx="65.79" ry="18"/>
<text text-anchor="middle" x="853.09" y="-338.3" font-family="Times New Roman,serif" font-size="14.00">unsigned varint</text>
</g>
<!-- 10&#45;&gt;11 -->
<g id="edge5" class="edge">
<title>10&#45;&gt;11</title>
<path fill="none" stroke="black" d="M483.44,-342C555.29,-342 691.82,-342 777.05,-342"/>
<polygon fill="black" stroke="black" points="777.18,-345.5 787.18,-342 777.18,-338.5 777.18,-345.5"/>
</g>
<!-- 13 -->
<!-- name: &quot;Ingredient&quot;, typeName: &quot;RecipeIngredient&quot;, id: 13, branchId: 0, recurseId: &#45;1, attributes: 256, notes: &quot;&quot; -->
<g id="node8" class="node">
<title>13</title>
<ellipse fill="none" stroke="black" cx="615.6" cy="-288" rx="46.59" ry="18"/>
<text text-anchor="middle" x="615.6" y="-284.3" font-family="Times New Roman,serif" font-size="14.00">Ingredient</text>
</g>
<!-- 12&#45;&gt;13 -->
<g id="edge7" class="edge">
<title>12&#45;&gt;13</title>
<path fill="none" stroke="black" d="M505.11,-288C522.76,-288 541.51,-288 558.41,-288"/>
<polygon fill="black" stroke="black" points="558.67,-291.5 568.67,-288 558.67,-284.5 558.67,-291.5"/>
</g>
<!-- 14 -->
<!-- name: &quot;RecipeIngredient&quot;, typeName: &quot;&quot;, id: 14, branchId: 0, recurseId: &#45;1, attributes: 512, notes: &quot;&quot; -->
<g id="node9" class="node">
<title>14</title>
<ellipse fill="none" stroke="black" cx="853.09" cy="-288" rx="72.29" ry="18"/>
<text text-anchor="middle" x="853.09" y="-284.3" font-family="Times New Roman,serif" font-size="14.00">RecipeIngredient</text>
</g>
<!-- 13&#45;&gt;14 -->
<g id="edge8" class="edge">
<title>13&#45;&gt;14</title>
<path fill="none" stroke="black" d="M662.57,-288C693.28,-288 734.52,-288 770.69,-288"/>
<polygon fill="black" stroke="black" points="770.74,-291.5 780.74,-288 770.74,-284.5 770.74,-291.5"/>
</g>
<!-- 16 -->
<!-- name: &quot;Array Size&quot;, typeName: &quot;&quot;, id: 16, branchId: 0, recurseId: &#45;1, attributes: 0, notes: &quot;&quot; -->
<g id="node11" class="node">
<title>16</title>
<ellipse fill="none" stroke="black" cx="434.67" cy="-234" rx="48.99" ry="18"/>
<text text-anchor="middle" x="434.67" y="-230.3" font-family="Times New Roman,serif" font-size="14.00">Array Size</text>
</g>
<!-- 15&#45;&gt;16 -->
<g id="edge10" class="edge">
<title>15&#45;&gt;16</title>
<path fill="none" stroke="black" d="M305.23,-193.63C330.24,-201.49 361.68,-211.37 387.2,-219.39"/>
<polygon fill="black" stroke="black" points="386.43,-222.82 397.02,-222.48 388.53,-216.14 386.43,-222.82"/>
</g>
<!-- 18 -->
<!-- name: &quot;example element&quot;, typeName: &quot;&quot;, id: 18, branchId: 0, recurseId: &#45;1, attributes: 16, notes: &quot;&quot; -->
<g id="node13" class="node">
<title>18</title>
<ellipse fill="none" stroke="black" stroke-dasharray="1,5" cx="434.67" cy="-180" rx="70.39" ry="18"/>
<text text-anchor="middle" x="434.67" y="-176.3" font-family="Times New Roman,serif" font-size="14.00">example element</text>
</g>
<!-- 15&#45;&gt;18 -->
<g id="edge12" class="edge">
<title>15&#45;&gt;18</title>
<path fill="none" stroke="black" d="M328.79,-180C337.09,-180 345.65,-180 354.12,-180"/>
<polygon fill="black" stroke="black" points="354.39,-183.5 364.39,-180 354.39,-176.5 354.39,-183.5"/>
</g>
<!-- 17 -->
<!-- name: &quot;unsigned varint&quot;, typeName: &quot;&quot;, id: 17, branchId: 0, recurseId: &#45;1, attributes: 512, notes: &quot;&quot; -->
<g id="node12" class="node">
<title>17</title>
<ellipse fill="none" stroke="black" cx="853.09" cy="-234" rx="65.79" ry="18"/>
<text text-anchor="middle" x="853.09" y="-230.3" font-family="Times New Roman,serif" font-size="14.00">unsigned varint</text>
</g>
<!-- 16&#45;&gt;17 -->
<g id="edge11" class="edge">
<title>16&#45;&gt;17</title>
<path fill="none" stroke="black" d="M483.44,-234C555.29,-234 691.82,-234 777.05,-234"/>
<polygon fill="black" stroke="black" points="777.18,-237.5 787.18,-234 777.18,-230.5 777.18,-237.5"/>
</g>
<!-- 19 -->
<!-- name: &quot;Produced Item&quot;, typeName: &quot;NetworkItemInstanceDescriptor&quot;, id: 19, branchId: 0, recurseId: &#45;1, attributes: 256, notes: &quot;&quot; -->
<g id="node14" class="node">
<title>19</title>
<ellipse fill="none" stroke="black" cx="615.6" cy="-180" rx="64.99" ry="18"/>
<text text-anchor="middle" x="615.6" y="-176.3" font-family="Times New Roman,serif" font-size="14.00">Produced Item</text>
</g>
<!-- 18&#45;&gt;19 -->
<g id="edge13" class="edge">
<title>18&#45;&gt;19</title>
<path fill="none" stroke="black" d="M505.11,-180C516.65,-180 528.67,-180 540.34,-180"/>
<polygon fill="black" stroke="black" points="540.47,-183.5 550.47,-180 540.47,-176.5 540.47,-183.5"/>
</g>
<!-- 20 -->
<!-- name: &quot;NetworkItemInstanceDescriptor&quot;, typeName: &quot;&quot;, id: 20, branchId: 0, recurseId: &#45;1, attributes: 512, notes: &quot;&quot; -->
<g id="node15" class="node">
<title>20</title>
<ellipse fill="none" stroke="black" cx="853.09" cy="-180" rx="126.98" ry="18"/>
<text text-anchor="middle" x="853.09" y="-176.3" font-family="Times New Roman,serif" font-size="14.00">NetworkItemInstanceDescriptor</text>
</g>
<!-- 19&#45;&gt;20 -->
<g id="edge14" class="edge">
<title>19&#45;&gt;20</title>
<path fill="none" stroke="black" d="M680.64,-180C691.71,-180 703.58,-180 715.72,-180"/>
<polygon fill="black" stroke="black" points="715.97,-183.5 725.97,-180 715.97,-176.5 715.97,-183.5"/>
</g>
<!-- 22 -->
<!-- name: &quot;mce::UUID&quot;, typeName: &quot;&quot;, id: 22, branchId: 0, recurseId: &#45;1, attributes: 512, notes: &quot;&quot; -->
<g id="node17" class="node">
<title>22</title>
<ellipse fill="none" stroke="black" cx="853.09" cy="-126" rx="51.99" ry="18"/>
<text text-anchor="middle" x="853.09" y="-122.3" font-family="Times New Roman,serif" font-size="14.00">mce::UUID</text>
</g>
<!-- 21&#45;&gt;22 -->
<g id="edge16" class="edge">
<title>21&#45;&gt;22</title>
<path fill="none" stroke="black" d="M309.18,-126C415.26,-126 672.1,-126 790.47,-126"/>
<polygon fill="black" stroke="black" points="790.8,-129.5 800.8,-126 790.8,-122.5 790.8,-129.5"/>
</g>
<!-- 24 -->
<!-- name: &quot;string&quot;, typeName: &quot;&quot;, id: 24, branchId: 0, recurseId: &#45;1, attributes: 512, notes: &quot;&quot; -->
<g id="node19" class="node">
<title>24</title>
<ellipse fill="none" stroke="black" cx="853.09" cy="-72" rx="30.59" ry="18"/>
<text text-anchor="middle" x="853.09" y="-68.3" font-family="Times New Roman,serif" font-size="14.00">string</text>
</g>
<!-- 23&#45;&gt;24 -->
<g id="edge18" class="edge">
<title>23&#45;&gt;24</title>
<path fill="none" stroke="black" d="M668.28,-73.56C711.66,-73.19 772.72,-72.67 812.35,-72.34"/>
<polygon fill="black" stroke="black" points="812.46,-75.84 822.43,-72.25 812.4,-68.84 812.46,-75.84"/>
</g>
<!-- 26 -->
<!-- name: &quot;varint&quot;, typeName: &quot;&quot;, id: 26, branchId: 0, recurseId: &#45;1, attributes: 512, notes: &quot;&quot; -->
<g id="node21" class="node">
<title>26</title>
<ellipse fill="none" stroke="black" cx="853.09" cy="-18" rx="30.59" ry="18"/>
<text text-anchor="middle" x="853.09" y="-14.3" font-family="Times New Roman,serif" font-size="14.00">varint</text>
</g>
<!-- 25&#45;&gt;26 -->
<g id="edge20" class="edge">
<title>25&#45;&gt;26</title>
<path fill="none" stroke="black" d="M298.8,-21.75C403.82,-21.04 703.63,-19.01 812.21,-18.27"/>
<polygon fill="black" stroke="black" points="812.43,-21.77 822.41,-18.2 812.38,-14.77 812.43,-21.77"/>
</g>
</g>
</svg>
