<?xml version="1.0" encoding="UTF-8" standalone="no"?>
<!DOCTYPE svg PUBLIC "-//W3C//DTD SVG 1.1//EN"
 "http://www.w3.org/Graphics/SVG/1.1/DTD/svg11.dtd">
<!-- Generated by graphviz version 2.46.1 (20210213.1702)
 -->
<!-- Title: SmithingTrimRecipe Pages: 1 -->
<svg width="561pt" height="260pt"
 viewBox="0.00 0.00 560.96 260.00" xmlns="http://www.w3.org/2000/svg" xmlns:xlink="http://www.w3.org/1999/xlink">
<g id="graph0" class="graph" transform="scale(1 1) rotate(0) translate(4 256)">
<title>SmithingTrimRecipe</title>
<polygon fill="white" stroke="transparent" points="-4,4 -4,-256 556.96,-256 556.96,4 -4,4"/>
<!-- 6 -->
<!-- name: &quot;SmithingTrimRecipe&quot;, typeName: &quot;&quot;, id: 6, branchId: 0, recurseId: &#45;1, attributes: 0, notes: &quot;&quot; -->
<g id="node1" class="node">
<title>6</title>
<ellipse fill="none" stroke="black" cx="85.14" cy="-126" rx="85.29" ry="18"/>
<text text-anchor="middle" x="85.14" y="-122.3" font-family="Times New Roman,serif" font-size="14.00">SmithingTrimRecipe</text>
</g>
<!-- 7 -->
<!-- name: &quot;Recipe Id&quot;, typeName: &quot;&quot;, id: 7, branchId: 0, recurseId: &#45;1, attributes: 0, notes: &quot;&quot; -->
<g id="node2" class="node">
<title>7</title>
<ellipse fill="none" stroke="black" cx="289.48" cy="-234" rx="46.29" ry="18"/>
<text text-anchor="middle" x="289.48" y="-230.3" font-family="Times New Roman,serif" font-size="14.00">Recipe Id</text>
</g>
<!-- 6&#45;&gt;7 -->
<g id="edge1" class="edge">
<title>6&#45;&gt;7</title>
<path fill="none" stroke="black" d="M108.04,-143.49C131.29,-161.4 169.68,-189.08 206.28,-207 217.25,-212.37 229.53,-217.05 241.19,-220.93"/>
<polygon fill="black" stroke="black" points="240.2,-224.29 250.8,-224.01 242.34,-217.63 240.2,-224.29"/>
</g>
<!-- 9 -->
<!-- name: &quot;Template Ingredient&quot;, typeName: &quot;RecipeIngredient&quot;, id: 9, branchId: 0, recurseId: &#45;1, attributes: 256, notes: &quot;&quot; -->
<g id="node4" class="node">
<title>9</title>
<ellipse fill="none" stroke="black" cx="289.48" cy="-180" rx="83.39" ry="18"/>
<text text-anchor="middle" x="289.48" y="-176.3" font-family="Times New Roman,serif" font-size="14.00">Template Ingredient</text>
</g>
<!-- 6&#45;&gt;9 -->
<g id="edge3" class="edge">
<title>6&#45;&gt;9</title>
<path fill="none" stroke="black" d="M138.78,-140.05C165.69,-147.23 198.62,-156.02 226.73,-163.52"/>
<polygon fill="black" stroke="black" points="225.89,-166.92 236.46,-166.12 227.7,-160.16 225.89,-166.92"/>
</g>
<!-- 11 -->
<!-- name: &quot;Base Ingredient&quot;, typeName: &quot;RecipeIngredient&quot;, id: 11, branchId: 0, recurseId: &#45;1, attributes: 256, notes: &quot;&quot; -->
<g id="node6" class="node">
<title>11</title>
<ellipse fill="none" stroke="black" cx="289.48" cy="-126" rx="66.89" ry="18"/>
<text text-anchor="middle" x="289.48" y="-122.3" font-family="Times New Roman,serif" font-size="14.00">Base Ingredient</text>
</g>
<!-- 6&#45;&gt;11 -->
<g id="edge5" class="edge">
<title>6&#45;&gt;11</title>
<path fill="none" stroke="black" d="M170.49,-126C184.31,-126 198.57,-126 212.18,-126"/>
<polygon fill="black" stroke="black" points="212.45,-129.5 222.45,-126 212.45,-122.5 212.45,-129.5"/>
</g>
<!-- 13 -->
<!-- name: &quot;Addition Ingredient&quot;, typeName: &quot;RecipeIngredient&quot;, id: 13, branchId: 0, recurseId: &#45;1, attributes: 256, notes: &quot;&quot; -->
<g id="node8" class="node">
<title>13</title>
<ellipse fill="none" stroke="black" cx="289.48" cy="-72" rx="81.49" ry="18"/>
<text text-anchor="middle" x="289.48" y="-68.3" font-family="Times New Roman,serif" font-size="14.00">Addition Ingredient</text>
</g>
<!-- 6&#45;&gt;13 -->
<g id="edge7" class="edge">
<title>6&#45;&gt;13</title>
<path fill="none" stroke="black" d="M138.78,-111.95C165.8,-104.74 198.88,-95.91 227.06,-88.39"/>
<polygon fill="black" stroke="black" points="228.05,-91.75 236.81,-85.79 226.24,-84.99 228.05,-91.75"/>
</g>
<!-- 15 -->
<!-- name: &quot;Tag&quot;, typeName: &quot;&quot;, id: 15, branchId: 0, recurseId: &#45;1, attributes: 0, notes: &quot;&quot; -->
<g id="node10" class="node">
<title>15</title>
<ellipse fill="none" stroke="black" cx="289.48" cy="-18" rx="27" ry="18"/>
<text text-anchor="middle" x="289.48" y="-14.3" font-family="Times New Roman,serif" font-size="14.00">Tag</text>
</g>
<!-- 6&#45;&gt;15 -->
<g id="edge9" class="edge">
<title>6&#45;&gt;15</title>
<path fill="none" stroke="black" d="M108.04,-108.51C131.29,-90.6 169.68,-62.92 206.28,-45 221.41,-37.59 239.05,-31.5 254.11,-26.98"/>
<polygon fill="black" stroke="black" points="255.42,-30.25 264.05,-24.11 253.47,-23.52 255.42,-30.25"/>
</g>
<!-- 8 -->
<!-- name: &quot;string&quot;, typeName: &quot;&quot;, id: 8, branchId: 0, recurseId: &#45;1, attributes: 512, notes: &quot;&quot; -->
<g id="node3" class="node">
<title>8</title>
<ellipse fill="none" stroke="black" cx="480.81" cy="-234" rx="30.59" ry="18"/>
<text text-anchor="middle" x="480.81" y="-230.3" font-family="Times New Roman,serif" font-size="14.00">string</text>
</g>
<!-- 7&#45;&gt;8 -->
<g id="edge2" class="edge">
<title>7&#45;&gt;8</title>
<path fill="none" stroke="black" d="M335.83,-234C367.54,-234 409.48,-234 439.92,-234"/>
<polygon fill="black" stroke="black" points="440.17,-237.5 450.17,-234 440.17,-230.5 440.17,-237.5"/>
</g>
<!-- 10 -->
<!-- name: &quot;RecipeIngredient&quot;, typeName: &quot;&quot;, id: 10, branchId: 0, recurseId: &#45;1, attributes: 512, notes: &quot;&quot; -->
<g id="node5" class="node">
<title>10</title>
<ellipse fill="none" stroke="black" cx="480.81" cy="-180" rx="72.29" ry="18"/>
<text text-anchor="middle" x="480.81" y="-176.3" font-family="Times New Roman,serif" font-size="14.00">RecipeIngredient</text>
</g>
<!-- 9&#45;&gt;10 -->
<g id="edge4" class="edge">
<title>9&#45;&gt;10</title>
<path fill="none" stroke="black" d="M372.7,-180C381.3,-180 390.05,-180 398.65,-180"/>
<polygon fill="black" stroke="black" points="398.65,-183.5 408.65,-180 398.65,-176.5 398.65,-183.5"/>
</g>
<!-- 12 -->
<!-- name: &quot;RecipeIngredient&quot;, typeName: &quot;&quot;, id: 12, branchId: 0, recurseId: &#45;1, attributes: 512, notes: &quot;&quot; -->
<g id="node7" class="node">
<title>12</title>
<ellipse fill="none" stroke="black" cx="480.81" cy="-126" rx="72.29" ry="18"/>
<text text-anchor="middle" x="480.81" y="-122.3" font-family="Times New Roman,serif" font-size="14.00">RecipeIngredient</text>
</g>
<!-- 11&#45;&gt;12 -->
<g id="edge6" class="edge">
<title>11&#45;&gt;12</title>
<path fill="none" stroke="black" d="M356.43,-126C370,-126 384.44,-126 398.48,-126"/>
<polygon fill="black" stroke="black" points="398.61,-129.5 408.61,-126 398.61,-122.5 398.61,-129.5"/>
</g>
<!-- 14 -->
<!-- name: &quot;RecipeIngredient&quot;, typeName: &quot;&quot;, id: 14, branchId: 0, recurseId: &#45;1, attributes: 512, notes: &quot;&quot; -->
<g id="node9" class="node">
<title>14</title>
<ellipse fill="none" stroke="black" cx="480.81" cy="-72" rx="72.29" ry="18"/>
<text text-anchor="middle" x="480.81" y="-68.3" font-family="Times New Roman,serif" font-size="14.00">RecipeIngredient</text>
</g>
<!-- 13&#45;&gt;14 -->
<g id="edge8" class="edge">
<title>13&#45;&gt;14</title>
<path fill="none" stroke="black" d="M370.77,-72C379.85,-72 389.11,-72 398.21,-72"/>
<polygon fill="black" stroke="black" points="398.39,-75.5 408.39,-72 398.39,-68.5 398.39,-75.5"/>
</g>
<!-- 16 -->
<!-- name: &quot;string&quot;, typeName: &quot;&quot;, id: 16, branchId: 0, recurseId: &#45;1, attributes: 512, notes: &quot;&quot; -->
<g id="node11" class="node">
<title>16</title>
<ellipse fill="none" stroke="black" cx="480.81" cy="-18" rx="30.59" ry="18"/>
<text text-anchor="middle" x="480.81" y="-14.3" font-family="Times New Roman,serif" font-size="14.00">string</text>
</g>
<!-- 15&#45;&gt;16 -->
<g id="edge10" class="edge">
<title>15&#45;&gt;16</title>
<path fill="none" stroke="black" d="M316.8,-18C348.62,-18 402.48,-18 439.53,-18"/>
<polygon fill="black" stroke="black" points="439.97,-21.5 449.97,-18 439.97,-14.5 439.97,-21.5"/>
</g>
</g>
</svg>
