<?xml version="1.0" encoding="UTF-8" standalone="no"?>
<!DOCTYPE svg PUBLIC "-//W3C//DTD SVG 1.1//EN"
 "http://www.w3.org/Graphics/SVG/1.1/DTD/svg11.dtd">
<!-- Generated by graphviz version 13.1.2 (20250808.2320)
 -->
<!-- Title: SpawnParticleEffectPacket Pages: 1 -->
<svg width="764pt" height="314pt"
 viewBox="0.00 0.00 764.00 314.00" xmlns="http://www.w3.org/2000/svg" xmlns:xlink="http://www.w3.org/1999/xlink">
<g id="graph0" class="graph" transform="scale(1 1) rotate(0) translate(4 310)">
<title>SpawnParticleEffectPacket</title>
<polygon fill="white" stroke="none" points="-4,4 -4,-310 760.29,-310 760.29,4 -4,4"/>
<!-- 0 -->
<!-- name: &quot;SpawnParticleEffectPacket&quot;, typeName: &quot;&quot;, id: 0, branchId: 0, recurseId: &#45;1, attributes: 0, notes: &quot;Tell client to spawn a particle effect.&quot; -->
<g id="node1" class="node">
<title>0</title>
<ellipse fill="none" stroke="black" cx="111.23" cy="-135" rx="111.23" ry="18"/>
<text xml:space="preserve" text-anchor="middle" x="111.23" y="-129.95" font-family="Times New Roman,serif" font-size="14.00">SpawnParticleEffectPacket</text>
</g>
<!-- 1 -->
<!-- name: &quot;Dimension Id&quot;, typeName: &quot;&quot;, id: 1, branchId: 0, recurseId: &#45;1, attributes: 0, notes: &quot;&quot; -->
<g id="node2" class="node">
<title>1</title>
<ellipse fill="none" stroke="black" cx="521.2" cy="-288" rx="62.1" ry="18"/>
<text xml:space="preserve" text-anchor="middle" x="521.2" y="-282.95" font-family="Times New Roman,serif" font-size="14.00">Dimension Id</text>
</g>
<!-- 0&#45;&gt;1 -->
<g id="edge1" class="edge">
<title>0&#45;&gt;1</title>
<path fill="none" stroke="black" d="M130.3,-152.83C156.28,-177.35 206.79,-220.96 258.47,-243 319.24,-268.92 393.99,-279.93 448.02,-284.59"/>
<polygon fill="black" stroke="black" points="447.47,-288.05 457.72,-285.37 448.03,-281.08 447.47,-288.05"/>
</g>
<!-- 3 -->
<!-- name: &quot;Actor Id&quot;, typeName: &quot;&quot;, id: 3, branchId: 0, recurseId: &#45;1, attributes: 0, notes: &quot;&quot; -->
<g id="node4" class="node">
<title>3</title>
<ellipse fill="none" stroke="black" cx="334.9" cy="-216" rx="42.14" ry="18"/>
<text xml:space="preserve" text-anchor="middle" x="334.9" y="-210.95" font-family="Times New Roman,serif" font-size="14.00">Actor Id</text>
</g>
<!-- 0&#45;&gt;3 -->
<g id="edge3" class="edge">
<title>0&#45;&gt;3</title>
<path fill="none" stroke="black" d="M158.16,-151.78C197.29,-166.08 253.08,-186.47 291.24,-200.41"/>
<polygon fill="black" stroke="black" points="289.97,-203.68 300.57,-203.82 292.37,-197.1 289.97,-203.68"/>
</g>
<!-- 6 -->
<!-- name: &quot;Position&quot;, typeName: &quot;&quot;, id: 6, branchId: 0, recurseId: &#45;1, attributes: 0, notes: &quot;&quot; -->
<g id="node7" class="node">
<title>6</title>
<ellipse fill="none" stroke="black" cx="334.9" cy="-135" rx="41.12" ry="18"/>
<text xml:space="preserve" text-anchor="middle" x="334.9" y="-129.95" font-family="Times New Roman,serif" font-size="14.00">Position</text>
</g>
<!-- 0&#45;&gt;6 -->
<g id="edge6" class="edge">
<title>0&#45;&gt;6</title>
<path fill="none" stroke="black" d="M222.74,-135C243.47,-135 264.21,-135 282.07,-135"/>
<polygon fill="black" stroke="black" points="281.84,-138.5 291.84,-135 281.84,-131.5 281.84,-138.5"/>
</g>
<!-- 13 -->
<!-- name: &quot;Effect Name&quot;, typeName: &quot;&quot;, id: 13, branchId: 0, recurseId: &#45;1, attributes: 0, notes: &quot;Should be an effect that exists on the client. No&#45;op if the effect doesn&#39;t exist.&quot; -->
<g id="node14" class="node">
<title>13</title>
<ellipse fill="none" stroke="black" cx="334.9" cy="-81" rx="58.52" ry="18"/>
<text xml:space="preserve" text-anchor="middle" x="334.9" y="-75.95" font-family="Times New Roman,serif" font-size="14.00">Effect Name</text>
</g>
<!-- 0&#45;&gt;13 -->
<g id="edge13" class="edge">
<title>0&#45;&gt;13</title>
<path fill="none" stroke="black" d="M174.57,-119.81C206.73,-111.98 245.68,-102.49 277.01,-94.86"/>
<polygon fill="black" stroke="black" points="277.83,-98.26 286.72,-92.49 276.17,-91.46 277.83,-98.26"/>
</g>
<!-- 15 -->
<!-- name: &quot;Molang Variables&quot;, typeName: &quot;&quot;, id: 15, branchId: 0, recurseId: &#45;1, attributes: 0, notes: &quot;&quot; -->
<g id="node16" class="node">
<title>15</title>
<ellipse fill="none" stroke="black" cx="334.9" cy="-27" rx="76.43" ry="18"/>
<text xml:space="preserve" text-anchor="middle" x="334.9" y="-21.95" font-family="Times New Roman,serif" font-size="14.00">Molang Variables</text>
</g>
<!-- 0&#45;&gt;15 -->
<g id="edge15" class="edge">
<title>0&#45;&gt;15</title>
<path fill="none" stroke="black" d="M140.93,-117.28C169.9,-99.83 216.29,-73.08 258.47,-54 264.87,-51.1 271.68,-48.3 278.5,-45.66"/>
<polygon fill="black" stroke="black" points="279.59,-48.99 287.73,-42.2 277.14,-42.43 279.59,-48.99"/>
</g>
<!-- 2 -->
<!-- name: &quot;unsigned byte&quot;, typeName: &quot;&quot;, id: 2, branchId: 0, recurseId: &#45;1, attributes: 512, notes: &quot;&quot; -->
<g id="node3" class="node">
<title>2</title>
<ellipse fill="none" stroke="black" cx="693.68" cy="-288" rx="62.61" ry="18"/>
<text xml:space="preserve" text-anchor="middle" x="693.68" y="-282.95" font-family="Times New Roman,serif" font-size="14.00">unsigned byte</text>
</g>
<!-- 1&#45;&gt;2 -->
<g id="edge2" class="edge">
<title>1&#45;&gt;2</title>
<path fill="none" stroke="black" d="M583.74,-288C595.31,-288 607.51,-288 619.39,-288"/>
<polygon fill="black" stroke="black" points="619.14,-291.5 629.14,-288 619.14,-284.5 619.14,-291.5"/>
</g>
<!-- 4 -->
<!-- name: &quot;Actor Unique ID&quot;, typeName: &quot;&quot;, id: 4, branchId: 0, recurseId: &#45;1, attributes: 0, notes: &quot;&quot; -->
<g id="node5" class="node">
<title>4</title>
<ellipse fill="none" stroke="black" cx="521.2" cy="-234" rx="73.87" ry="18"/>
<text xml:space="preserve" text-anchor="middle" x="521.2" y="-228.95" font-family="Times New Roman,serif" font-size="14.00">Actor Unique ID</text>
</g>
<!-- 3&#45;&gt;4 -->
<g id="edge4" class="edge">
<title>3&#45;&gt;4</title>
<path fill="none" stroke="black" d="M376.34,-219.95C395.29,-221.8 418.54,-224.07 440.79,-226.24"/>
<polygon fill="black" stroke="black" points="440.15,-229.7 450.45,-227.19 440.83,-222.73 440.15,-229.7"/>
</g>
<!-- 5 -->
<!-- name: &quot;varint64&quot;, typeName: &quot;&quot;, id: 5, branchId: 0, recurseId: &#45;1, attributes: 512, notes: &quot;&quot; -->
<g id="node6" class="node">
<title>5</title>
<ellipse fill="none" stroke="black" cx="693.68" cy="-234" rx="41.63" ry="18"/>
<text xml:space="preserve" text-anchor="middle" x="693.68" y="-228.95" font-family="Times New Roman,serif" font-size="14.00">varint64</text>
</g>
<!-- 4&#45;&gt;5 -->
<g id="edge5" class="edge">
<title>4&#45;&gt;5</title>
<path fill="none" stroke="black" d="M595.49,-234C610.73,-234 626.48,-234 640.76,-234"/>
<polygon fill="black" stroke="black" points="640.34,-237.5 650.34,-234 640.34,-230.5 640.34,-237.5"/>
</g>
<!-- 7 -->
<!-- name: &quot;X&quot;, typeName: &quot;&quot;, id: 7, branchId: 0, recurseId: &#45;1, attributes: 0, notes: &quot;&quot; -->
<g id="node8" class="node">
<title>7</title>
<ellipse fill="none" stroke="black" cx="521.2" cy="-180" rx="27" ry="18"/>
<text xml:space="preserve" text-anchor="middle" x="521.2" y="-174.95" font-family="Times New Roman,serif" font-size="14.00">X</text>
</g>
<!-- 6&#45;&gt;7 -->
<g id="edge7" class="edge">
<title>6&#45;&gt;7</title>
<path fill="none" stroke="black" d="M371.43,-143.68C403.99,-151.63 451.95,-163.34 484.55,-171.3"/>
<polygon fill="black" stroke="black" points="483.37,-174.61 493.92,-173.58 485.03,-167.81 483.37,-174.61"/>
</g>
<!-- 9 -->
<!-- name: &quot;Y&quot;, typeName: &quot;&quot;, id: 9, branchId: 0, recurseId: &#45;1, attributes: 0, notes: &quot;&quot; -->
<g id="node10" class="node">
<title>9</title>
<ellipse fill="none" stroke="black" cx="521.2" cy="-126" rx="27" ry="18"/>
<text xml:space="preserve" text-anchor="middle" x="521.2" y="-120.95" font-family="Times New Roman,serif" font-size="14.00">Y</text>
</g>
<!-- 6&#45;&gt;9 -->
<g id="edge9" class="edge">
<title>6&#45;&gt;9</title>
<path fill="none" stroke="black" d="M375.89,-133.05C407.62,-131.5 451.65,-129.35 482.71,-127.83"/>
<polygon fill="black" stroke="black" points="482.59,-131.34 492.41,-127.36 482.25,-124.35 482.59,-131.34"/>
</g>
<!-- 11 -->
<!-- name: &quot;Z&quot;, typeName: &quot;&quot;, id: 11, branchId: 0, recurseId: &#45;1, attributes: 0, notes: &quot;&quot; -->
<g id="node12" class="node">
<title>11</title>
<ellipse fill="none" stroke="black" cx="521.2" cy="-72" rx="27" ry="18"/>
<text xml:space="preserve" text-anchor="middle" x="521.2" y="-66.95" font-family="Times New Roman,serif" font-size="14.00">Z</text>
</g>
<!-- 6&#45;&gt;11 -->
<g id="edge11" class="edge">
<title>6&#45;&gt;11</title>
<path fill="none" stroke="black" d="M368,-124.03C400.98,-112.75 452.15,-95.26 485.91,-83.72"/>
<polygon fill="black" stroke="black" points="486.88,-87.09 495.21,-80.54 484.62,-80.46 486.88,-87.09"/>
</g>
<!-- 8 -->
<!-- name: &quot;float&quot;, typeName: &quot;&quot;, id: 8, branchId: 0, recurseId: &#45;1, attributes: 512, notes: &quot;&quot; -->
<g id="node9" class="node">
<title>8</title>
<ellipse fill="none" stroke="black" cx="693.68" cy="-180" rx="27.81" ry="18"/>
<text xml:space="preserve" text-anchor="middle" x="693.68" y="-174.95" font-family="Times New Roman,serif" font-size="14.00">float</text>
</g>
<!-- 7&#45;&gt;8 -->
<g id="edge8" class="edge">
<title>7&#45;&gt;8</title>
<path fill="none" stroke="black" d="M548.46,-180C576.74,-180 622.02,-180 654.29,-180"/>
<polygon fill="black" stroke="black" points="654.03,-183.5 664.03,-180 654.03,-176.5 654.03,-183.5"/>
</g>
<!-- 10 -->
<!-- name: &quot;float&quot;, typeName: &quot;&quot;, id: 10, branchId: 0, recurseId: &#45;1, attributes: 512, notes: &quot;&quot; -->
<g id="node11" class="node">
<title>10</title>
<ellipse fill="none" stroke="black" cx="693.68" cy="-126" rx="27.81" ry="18"/>
<text xml:space="preserve" text-anchor="middle" x="693.68" y="-120.95" font-family="Times New Roman,serif" font-size="14.00">float</text>
</g>
<!-- 9&#45;&gt;10 -->
<g id="edge10" class="edge">
<title>9&#45;&gt;10</title>
<path fill="none" stroke="black" d="M548.46,-126C576.74,-126 622.02,-126 654.29,-126"/>
<polygon fill="black" stroke="black" points="654.03,-129.5 664.03,-126 654.03,-122.5 654.03,-129.5"/>
</g>
<!-- 12 -->
<!-- name: &quot;float&quot;, typeName: &quot;&quot;, id: 12, branchId: 0, recurseId: &#45;1, attributes: 512, notes: &quot;&quot; -->
<g id="node13" class="node">
<title>12</title>
<ellipse fill="none" stroke="black" cx="693.68" cy="-72" rx="27.81" ry="18"/>
<text xml:space="preserve" text-anchor="middle" x="693.68" y="-66.95" font-family="Times New Roman,serif" font-size="14.00">float</text>
</g>
<!-- 11&#45;&gt;12 -->
<g id="edge12" class="edge">
<title>11&#45;&gt;12</title>
<path fill="none" stroke="black" d="M548.46,-72C576.74,-72 622.02,-72 654.29,-72"/>
<polygon fill="black" stroke="black" points="654.03,-75.5 664.03,-72 654.03,-68.5 654.03,-75.5"/>
</g>
<!-- 14 -->
<!-- name: &quot;string&quot;, typeName: &quot;&quot;, id: 14, branchId: 0, recurseId: &#45;1, attributes: 512, notes: &quot;Should be an effect that exists on the client. No&#45;op if the effect doesn&#39;t exist.&quot; -->
<g id="node15" class="node">
<title>14</title>
<ellipse fill="none" stroke="black" cx="693.68" cy="-18" rx="31.9" ry="18"/>
<text xml:space="preserve" text-anchor="middle" x="693.68" y="-12.95" font-family="Times New Roman,serif" font-size="14.00">string</text>
</g>
<!-- 13&#45;&gt;14 -->
<g id="edge14" class="edge">
<title>13&#45;&gt;14</title>
<path fill="none" stroke="black" d="M373.03,-66.91C394.46,-59.31 422.08,-50.41 447.33,-45 517.39,-29.99 600.6,-23.07 649.9,-20.07"/>
<polygon fill="black" stroke="black" points="650.08,-23.57 659.86,-19.5 649.67,-16.58 650.08,-23.57"/>
</g>
</g>
</svg>
