<?xml version="1.0" encoding="UTF-8" standalone="no"?>
<!DOCTYPE svg PUBLIC "-//W3C//DTD SVG 1.1//EN"
 "http://www.w3.org/Graphics/SVG/1.1/DTD/svg11.dtd">
<!-- Generated by graphviz version 9.0.0 (20230911.1827)
 -->
<!-- Title: SpawnSettings Pages: 1 -->
<svg width="493pt" height="152pt"
 viewBox="0.00 0.00 493.17 152.00" xmlns="http://www.w3.org/2000/svg" xmlns:xlink="http://www.w3.org/1999/xlink">
<g id="graph0" class="graph" transform="scale(1 1) rotate(0) translate(4 148)">
<title>SpawnSettings</title>
<polygon fill="white" stroke="none" points="-4,4 -4,-148 489.17,-148 489.17,4 -4,4"/>
<!-- 27 -->
<!-- name: &quot;SpawnSettings&quot;, typeName: &quot;&quot;, id: 27, branchId: 0, recurseId: &#45;1, attributes: 0, notes: &quot;&quot; -->
<g id="node1" class="node">
<title>27</title>
<ellipse fill="none" stroke="black" cx="65.53" cy="-72" rx="65.53" ry="18"/>
<text text-anchor="middle" x="65.53" y="-66.58" font-family="Times New Roman,serif" font-size="14.00">SpawnSettings</text>
</g>
<!-- 28 -->
<!-- name: &quot;Type&quot;, typeName: &quot;&quot;, id: 28, branchId: 0, recurseId: &#45;1, attributes: 0, notes: &quot;enumeration: SpawnBiomeType&quot; -->
<g id="node2" class="node">
<title>28</title>
<ellipse fill="none" stroke="black" cx="277.01" cy="-126" rx="30.11" ry="18"/>
<text text-anchor="middle" x="277.01" y="-120.58" font-family="Times New Roman,serif" font-size="14.00">Type</text>
</g>
<!-- 27&#45;&gt;28 -->
<g id="edge1" class="edge">
<title>27&#45;&gt;28</title>
<path fill="none" stroke="black" d="M113.29,-84.76C130.21,-89.32 149.48,-94.46 167.07,-99 190.47,-105.04 216.77,-111.57 237.67,-116.69"/>
<polygon fill="black" stroke="black" points="236.65,-120.04 247.2,-119.02 238.31,-113.24 236.65,-120.04"/>
</g>
<!-- 30 -->
<!-- name: &quot;User Defined Biome Name&quot;, typeName: &quot;&quot;, id: 30, branchId: 0, recurseId: &#45;1, attributes: 0, notes: &quot;&quot; -->
<g id="node4" class="node">
<title>30</title>
<ellipse fill="none" stroke="black" cx="277.01" cy="-72" rx="109.95" ry="18"/>
<text text-anchor="middle" x="277.01" y="-66.58" font-family="Times New Roman,serif" font-size="14.00">User Defined Biome Name</text>
</g>
<!-- 27&#45;&gt;30 -->
<g id="edge3" class="edge">
<title>27&#45;&gt;30</title>
<path fill="none" stroke="black" d="M131.38,-72C139.15,-72 147.26,-72 155.5,-72"/>
<polygon fill="black" stroke="black" points="155.29,-75.5 165.29,-72 155.29,-68.5 155.29,-75.5"/>
</g>
<!-- 32 -->
<!-- name: &quot;Dimension&quot;, typeName: &quot;&quot;, id: 32, branchId: 0, recurseId: &#45;1, attributes: 0, notes: &quot;Currently 0 for Overworld, 1 for Nether, 2 for The End, 3 Undefined&quot; -->
<g id="node6" class="node">
<title>32</title>
<ellipse fill="none" stroke="black" cx="277.01" cy="-18" rx="50.07" ry="18"/>
<text text-anchor="middle" x="277.01" y="-12.57" font-family="Times New Roman,serif" font-size="14.00">Dimension</text>
</g>
<!-- 27&#45;&gt;32 -->
<g id="edge5" class="edge">
<title>27&#45;&gt;32</title>
<path fill="none" stroke="black" d="M113.29,-59.24C130.21,-54.68 149.48,-49.54 167.07,-45 185.5,-40.24 205.72,-35.18 223.69,-30.75"/>
<polygon fill="black" stroke="black" points="224.5,-34.16 233.37,-28.37 222.82,-27.36 224.5,-34.16"/>
</g>
<!-- 29 -->
<!-- name: &quot;short&quot;, typeName: &quot;&quot;, id: 29, branchId: 0, recurseId: &#45;1, attributes: 512, notes: &quot;&quot; -->
<g id="node3" class="node">
<title>29</title>
<ellipse fill="none" stroke="black" cx="454.06" cy="-126" rx="29.61" ry="18"/>
<text text-anchor="middle" x="454.06" y="-120.58" font-family="Times New Roman,serif" font-size="14.00">short</text>
</g>
<!-- 28&#45;&gt;29 -->
<g id="edge2" class="edge">
<title>28&#45;&gt;29</title>
<path fill="none" stroke="black" d="M307.31,-126C336.18,-126 380.51,-126 412.7,-126"/>
<polygon fill="black" stroke="black" points="412.45,-129.5 422.45,-126 412.45,-122.5 412.45,-129.5"/>
</g>
<!-- 31 -->
<!-- name: &quot;string&quot;, typeName: &quot;&quot;, id: 31, branchId: 0, recurseId: &#45;1, attributes: 512, notes: &quot;&quot; -->
<g id="node5" class="node">
<title>31</title>
<ellipse fill="none" stroke="black" cx="454.06" cy="-72" rx="31.1" ry="18"/>
<text text-anchor="middle" x="454.06" y="-66.58" font-family="Times New Roman,serif" font-size="14.00">string</text>
</g>
<!-- 30&#45;&gt;31 -->
<g id="edge4" class="edge">
<title>30&#45;&gt;31</title>
<path fill="none" stroke="black" d="M387.38,-72C395.72,-72 403.77,-72 411.21,-72"/>
<polygon fill="black" stroke="black" points="411.21,-75.5 421.21,-72 411.21,-68.5 411.21,-75.5"/>
</g>
<!-- 33 -->
<!-- name: &quot;varint&quot;, typeName: &quot;&quot;, id: 33, branchId: 0, recurseId: &#45;1, attributes: 512, notes: &quot;&quot; -->
<g id="node7" class="node">
<title>33</title>
<ellipse fill="none" stroke="black" cx="454.06" cy="-18" rx="31.1" ry="18"/>
<text text-anchor="middle" x="454.06" y="-12.57" font-family="Times New Roman,serif" font-size="14.00">varint</text>
</g>
<!-- 32&#45;&gt;33 -->
<g id="edge6" class="edge">
<title>32&#45;&gt;33</title>
<path fill="none" stroke="black" d="M327.24,-18C353.69,-18 385.96,-18 411.19,-18"/>
<polygon fill="black" stroke="black" points="411.09,-21.5 421.09,-18 411.09,-14.5 411.09,-21.5"/>
</g>
</g>
</svg>
