<?xml version="1.0" encoding="UTF-8" standalone="no"?>
<!DOCTYPE svg PUBLIC "-//W3C//DTD SVG 1.1//EN"
 "http://www.w3.org/Graphics/SVG/1.1/DTD/svg11.dtd">
<!-- Generated by graphviz version 2.46.1 (20210213.1702)
 -->
<!-- Title: SpawnParticleEffectPacket Pages: 1 -->
<svg width="765pt" height="260pt"
 viewBox="0.00 0.00 765.04 260.00" xmlns="http://www.w3.org/2000/svg" xmlns:xlink="http://www.w3.org/1999/xlink">
<g id="graph0" class="graph" transform="scale(1 1) rotate(0) translate(4 256)">
<title>SpawnParticleEffectPacket</title>
<polygon fill="white" stroke="transparent" points="-4,4 -4,-256 761.04,-256 761.04,4 -4,4"/>
<!-- 0 -->
<!-- name: &quot;SpawnParticleEffectPacket&quot;, typeName: &quot;&quot;, id: 0, branchId: 118, recurseId: &#45;1, attributes: 0, notes: &quot;&quot; -->
<g id="node1" class="node">
<title>0</title>
<ellipse fill="none" stroke="black" cx="108.54" cy="-126" rx="108.58" ry="18"/>
<text text-anchor="middle" x="108.54" y="-122.3" font-family="Times New Roman,serif" font-size="14.00">SpawnParticleEffectPacket</text>
</g>
<!-- 1 -->
<!-- name: &quot;Dimension Id&quot;, typeName: &quot;&quot;, id: 1, branchId: 0, recurseId: &#45;1, attributes: 0, notes: &quot;&quot; -->
<g id="node2" class="node">
<title>1</title>
<ellipse fill="none" stroke="black" cx="327.17" cy="-234" rx="59.59" ry="18"/>
<text text-anchor="middle" x="327.17" y="-230.3" font-family="Times New Roman,serif" font-size="14.00">Dimension Id</text>
</g>
<!-- 0&#45;&gt;1 -->
<g id="edge1" class="edge">
<title>0&#45;&gt;1</title>
<path fill="none" stroke="black" d="M137.43,-143.51C165.85,-160.93 211.54,-187.76 253.08,-207 260.76,-210.56 269.04,-213.99 277.19,-217.14"/>
<polygon fill="black" stroke="black" points="276.04,-220.45 286.63,-220.7 278.51,-213.9 276.04,-220.45"/>
</g>
<!-- 3 -->
<!-- name: &quot;Actor Id&quot;, typeName: &quot;ActorUniqueID&quot;, id: 3, branchId: 0, recurseId: &#45;1, attributes: 256, notes: &quot;&quot; -->
<g id="node4" class="node">
<title>3</title>
<ellipse fill="none" stroke="black" cx="327.17" cy="-180" rx="42.49" ry="18"/>
<text text-anchor="middle" x="327.17" y="-176.3" font-family="Times New Roman,serif" font-size="14.00">Actor Id</text>
</g>
<!-- 0&#45;&gt;3 -->
<g id="edge3" class="edge">
<title>0&#45;&gt;3</title>
<path fill="none" stroke="black" d="M169.6,-140.97C204.62,-149.7 248.11,-160.54 280.36,-168.58"/>
<polygon fill="black" stroke="black" points="279.87,-172.06 290.42,-171.09 281.56,-165.27 279.87,-172.06"/>
</g>
<!-- 5 -->
<!-- name: &quot;Position&quot;, typeName: &quot;Vec3&quot;, id: 5, branchId: 0, recurseId: &#45;1, attributes: 256, notes: &quot;&quot; -->
<g id="node6" class="node">
<title>5</title>
<ellipse fill="none" stroke="black" cx="327.17" cy="-126" rx="40.09" ry="18"/>
<text text-anchor="middle" x="327.17" y="-122.3" font-family="Times New Roman,serif" font-size="14.00">Position</text>
</g>
<!-- 0&#45;&gt;5 -->
<g id="edge5" class="edge">
<title>0&#45;&gt;5</title>
<path fill="none" stroke="black" d="M217.22,-126C237.99,-126 258.8,-126 276.58,-126"/>
<polygon fill="black" stroke="black" points="276.67,-129.5 286.67,-126 276.67,-122.5 276.67,-129.5"/>
</g>
<!-- 7 -->
<!-- name: &quot;Effect Name&quot;, typeName: &quot;&quot;, id: 7, branchId: 0, recurseId: &#45;1, attributes: 0, notes: &quot;Should be an effect that exists on the client. No&#45;op if the effect doesn&#39;t exist.&quot; -->
<g id="node8" class="node">
<title>7</title>
<ellipse fill="none" stroke="black" cx="327.17" cy="-72" rx="55.79" ry="18"/>
<text text-anchor="middle" x="327.17" y="-68.3" font-family="Times New Roman,serif" font-size="14.00">Effect Name</text>
</g>
<!-- 0&#45;&gt;7 -->
<g id="edge7" class="edge">
<title>0&#45;&gt;7</title>
<path fill="none" stroke="black" d="M169.6,-111.03C201.91,-102.97 241.43,-93.12 272.68,-85.33"/>
<polygon fill="black" stroke="black" points="273.66,-88.7 282.52,-82.88 271.97,-81.9 273.66,-88.7"/>
</g>
<!-- 9 -->
<!-- name: &quot;Molang Variables&quot;, typeName: &quot;std::optional&lt;class MolangVariableMap&gt;&quot;, id: 9, branchId: 0, recurseId: &#45;1, attributes: 256, notes: &quot;&quot; -->
<g id="node10" class="node">
<title>9</title>
<ellipse fill="none" stroke="black" cx="327.17" cy="-18" rx="74.19" ry="18"/>
<text text-anchor="middle" x="327.17" y="-14.3" font-family="Times New Roman,serif" font-size="14.00">Molang Variables</text>
</g>
<!-- 0&#45;&gt;9 -->
<g id="edge9" class="edge">
<title>0&#45;&gt;9</title>
<path fill="none" stroke="black" d="M137.43,-108.49C165.85,-91.07 211.54,-64.24 253.08,-45 259.66,-41.95 266.7,-38.99 273.7,-36.23"/>
<polygon fill="black" stroke="black" points="275.11,-39.43 283.19,-32.58 272.6,-32.9 275.11,-39.43"/>
</g>
<!-- 2 -->
<!-- name: &quot;byte&quot;, typeName: &quot;&quot;, id: 2, branchId: 0, recurseId: &#45;1, attributes: 512, notes: &quot;&quot; -->
<g id="node3" class="node">
<title>2</title>
<ellipse fill="none" stroke="black" cx="597.15" cy="-234" rx="27" ry="18"/>
<text text-anchor="middle" x="597.15" y="-230.3" font-family="Times New Roman,serif" font-size="14.00">byte</text>
</g>
<!-- 1&#45;&gt;2 -->
<g id="edge2" class="edge">
<title>1&#45;&gt;2</title>
<path fill="none" stroke="black" d="M386.98,-234C439.76,-234 515.54,-234 559.92,-234"/>
<polygon fill="black" stroke="black" points="559.96,-237.5 569.96,-234 559.96,-230.5 559.96,-237.5"/>
</g>
<!-- 4 -->
<!-- name: &quot;ActorUniqueID&quot;, typeName: &quot;&quot;, id: 4, branchId: 0, recurseId: &#45;1, attributes: 512, notes: &quot;&quot; -->
<g id="node5" class="node">
<title>4</title>
<ellipse fill="none" stroke="black" cx="597.15" cy="-180" rx="66.89" ry="18"/>
<text text-anchor="middle" x="597.15" y="-176.3" font-family="Times New Roman,serif" font-size="14.00">ActorUniqueID</text>
</g>
<!-- 3&#45;&gt;4 -->
<g id="edge4" class="edge">
<title>3&#45;&gt;4</title>
<path fill="none" stroke="black" d="M369.46,-180C409.41,-180 470.94,-180 519.82,-180"/>
<polygon fill="black" stroke="black" points="520.05,-183.5 530.05,-180 520.04,-176.5 520.05,-183.5"/>
</g>
<!-- 6 -->
<!-- name: &quot;Vec3&quot;, typeName: &quot;&quot;, id: 6, branchId: 0, recurseId: &#45;1, attributes: 512, notes: &quot;&quot; -->
<g id="node7" class="node">
<title>6</title>
<ellipse fill="none" stroke="black" cx="597.15" cy="-126" rx="29.8" ry="18"/>
<text text-anchor="middle" x="597.15" y="-122.3" font-family="Times New Roman,serif" font-size="14.00">Vec3</text>
</g>
<!-- 5&#45;&gt;6 -->
<g id="edge6" class="edge">
<title>5&#45;&gt;6</title>
<path fill="none" stroke="black" d="M367.72,-126C418.55,-126 506.29,-126 556.96,-126"/>
<polygon fill="black" stroke="black" points="557.18,-129.5 567.18,-126 557.18,-122.5 557.18,-129.5"/>
</g>
<!-- 8 -->
<!-- name: &quot;string&quot;, typeName: &quot;&quot;, id: 8, branchId: 0, recurseId: &#45;1, attributes: 512, notes: &quot;&quot; -->
<g id="node9" class="node">
<title>8</title>
<ellipse fill="none" stroke="black" cx="597.15" cy="-72" rx="30.59" ry="18"/>
<text text-anchor="middle" x="597.15" y="-68.3" font-family="Times New Roman,serif" font-size="14.00">string</text>
</g>
<!-- 7&#45;&gt;8 -->
<g id="edge8" class="edge">
<title>7&#45;&gt;8</title>
<path fill="none" stroke="black" d="M383.37,-72C434.83,-72 510.33,-72 556.19,-72"/>
<polygon fill="black" stroke="black" points="556.35,-75.5 566.35,-72 556.35,-68.5 556.35,-75.5"/>
</g>
<!-- 18 -->
<!-- name: &quot;std::optional&lt;class MolangVariableMap&gt;&quot;, typeName: &quot;&quot;, id: 18, branchId: 0, recurseId: &#45;1, attributes: 512, notes: &quot;&quot; -->
<g id="node11" class="node">
<title>18</title>
<ellipse fill="none" stroke="black" cx="597.15" cy="-18" rx="159.77" ry="18"/>
<text text-anchor="middle" x="597.15" y="-14.3" font-family="Times New Roman,serif" font-size="14.00">std::optional&lt;class MolangVariableMap&gt;</text>
</g>
<!-- 9&#45;&gt;18 -->
<g id="edge10" class="edge">
<title>9&#45;&gt;18</title>
<path fill="none" stroke="black" d="M401.4,-18C409.62,-18 418.23,-18 427.05,-18"/>
<polygon fill="black" stroke="black" points="427.1,-21.5 437.1,-18 427.1,-14.5 427.1,-21.5"/>
</g>
</g>
</svg>
