<?xml version="1.0" encoding="UTF-8" standalone="no"?>
<!DOCTYPE svg PUBLIC "-//W3C//DTD SVG 1.1//EN"
 "http://www.w3.org/Graphics/SVG/1.1/DTD/svg11.dtd">
<!-- Generated by graphviz version 13.1.2 (20250808.2320)
 -->
<!-- Title: StartGamePacket Pages: 1 -->
<svg width="1283pt" height="1401pt"
 viewBox="0.00 0.00 1283.00 1401.00" xmlns="http://www.w3.org/2000/svg" xmlns:xlink="http://www.w3.org/1999/xlink">
<g id="graph0" class="graph" transform="scale(1 1) rotate(0) translate(4 1397.16)">
<title>StartGamePacket</title>
<polygon fill="white" stroke="none" points="-4,4 -4,-1397.16 1278.75,-1397.16 1278.75,4 -4,4"/>
<!-- 0 -->
<!-- name: &quot;StartGamePacket&quot;, typeName: &quot;&quot;, id: 0, branchId: 11, recurseId: &#45;1, attributes: 0, notes: &quot;&quot; -->
<g id="node1" class="node">
<title>0</title>
<ellipse fill="none" stroke="black" cx="75.41" cy="-750.28" rx="75.41" ry="18"/>
<text xml:space="preserve" text-anchor="middle" x="75.41" y="-745.23" font-family="Times New Roman,serif" font-size="14.00">StartGamePacket</text>
</g>
<!-- 1 -->
<!-- name: &quot;Entity ID&quot;, typeName: &quot;ActorUniqueID&quot;, id: 1, branchId: 0, recurseId: &#45;1, attributes: 256, notes: &quot;&quot; -->
<g id="node2" class="node">
<title>1</title>
<ellipse fill="none" stroke="black" cx="622.53" cy="-1368.28" rx="45.72" ry="18"/>
<text xml:space="preserve" text-anchor="middle" x="622.53" y="-1363.23" font-family="Times New Roman,serif" font-size="14.00">Entity ID</text>
</g>
<!-- 0&#45;&gt;1 -->
<g id="edge1" class="edge">
<title>0&#45;&gt;1</title>
<path fill="none" stroke="black" d="M77.18,-768.64C81.29,-857.33 103.71,-1240.23 186.81,-1317.28 292.78,-1415.53 481.19,-1395.96 571.09,-1379.39"/>
<polygon fill="black" stroke="black" points="571.68,-1382.84 580.85,-1377.53 570.37,-1375.97 571.68,-1382.84"/>
</g>
<!-- 6 -->
<!-- name: &quot;Runtime ID&quot;, typeName: &quot;ActorRuntimeID&quot;, id: 6, branchId: 0, recurseId: &#45;1, attributes: 256, notes: &quot;&quot; -->
<g id="node4" class="node">
<title>6</title>
<ellipse fill="none" stroke="black" cx="622.53" cy="-1309.28" rx="55.45" ry="18"/>
<text xml:space="preserve" text-anchor="middle" x="622.53" y="-1304.23" font-family="Times New Roman,serif" font-size="14.00">Runtime ID</text>
</g>
<!-- 0&#45;&gt;6 -->
<g id="edge3" class="edge">
<title>0&#45;&gt;6</title>
<path fill="none" stroke="black" d="M77.51,-768.76C82.93,-853.03 109.72,-1199.65 186.81,-1268.28 292.56,-1362.43 475.38,-1341.03 566.54,-1322.57"/>
<polygon fill="black" stroke="black" points="567.17,-1326.01 576.24,-1320.53 565.74,-1319.16 567.17,-1326.01"/>
</g>
<!-- 11 -->
<!-- name: &quot;Game Type&quot;, typeName: &quot;&quot;, id: 11, branchId: 0, recurseId: &#45;1, attributes: 0, notes: &quot;&quot; -->
<g id="node6" class="node">
<title>11</title>
<ellipse fill="none" stroke="black" cx="860.53" cy="-1261.28" rx="53.91" ry="18"/>
<text xml:space="preserve" text-anchor="middle" x="860.53" y="-1256.23" font-family="Times New Roman,serif" font-size="14.00">Game Type</text>
</g>
<!-- 0&#45;&gt;11 -->
<g id="edge5" class="edge">
<title>0&#45;&gt;11</title>
<path fill="none" stroke="black" d="M78.03,-768.73C85.3,-846.85 117.6,-1149.22 186.81,-1208.28 232.45,-1247.23 635.74,-1257.78 795.12,-1260.45"/>
<polygon fill="black" stroke="black" points="794.6,-1263.94 804.65,-1260.6 794.71,-1256.94 794.6,-1263.94"/>
</g>
<!-- 13 -->
<!-- name: &quot;Position&quot;, typeName: &quot;Vec3&quot;, id: 13, branchId: 0, recurseId: &#45;1, attributes: 256, notes: &quot;&quot; -->
<g id="node8" class="node">
<title>13</title>
<ellipse fill="none" stroke="black" cx="622.53" cy="-1201.28" rx="41.12" ry="18"/>
<text xml:space="preserve" text-anchor="middle" x="622.53" y="-1196.23" font-family="Times New Roman,serif" font-size="14.00">Position</text>
</g>
<!-- 0&#45;&gt;13 -->
<g id="edge7" class="edge">
<title>0&#45;&gt;13</title>
<path fill="none" stroke="black" d="M78.6,-768.73C87.68,-841.57 124.7,-1107.87 186.81,-1160.28 298.26,-1254.33 487.68,-1230.19 574.96,-1212.38"/>
<polygon fill="black" stroke="black" points="575.54,-1215.83 584.6,-1210.34 574.1,-1208.98 575.54,-1215.83"/>
</g>
<!-- 15 -->
<!-- name: &quot;Rotation&quot;, typeName: &quot;Vec2&quot;, id: 15, branchId: 0, recurseId: &#45;1, attributes: 256, notes: &quot;&quot; -->
<g id="node10" class="node">
<title>15</title>
<ellipse fill="none" stroke="black" cx="860.53" cy="-1153.28" rx="42.65" ry="18"/>
<text xml:space="preserve" text-anchor="middle" x="860.53" y="-1148.23" font-family="Times New Roman,serif" font-size="14.00">Rotation</text>
</g>
<!-- 0&#45;&gt;15 -->
<g id="edge9" class="edge">
<title>0&#45;&gt;15</title>
<path fill="none" stroke="black" d="M75.75,-768.54C74.75,-827.62 80.41,-1014.59 186.81,-1099.28 282,-1175.04 665.41,-1163.43 806.81,-1156.34"/>
<polygon fill="black" stroke="black" points="806.84,-1159.84 816.64,-1155.83 806.48,-1152.85 806.84,-1159.84"/>
</g>
<!-- 22 -->
<!-- name: &quot;Settings&quot;, typeName: &quot;LevelSettings&quot;, id: 22, branchId: 0, recurseId: &#45;1, attributes: 256, notes: &quot;&quot; -->
<g id="node12" class="node">
<title>22</title>
<ellipse fill="none" stroke="black" cx="622.53" cy="-1093.28" rx="40.6" ry="18"/>
<text xml:space="preserve" text-anchor="middle" x="622.53" y="-1088.23" font-family="Times New Roman,serif" font-size="14.00">Settings</text>
</g>
<!-- 0&#45;&gt;22 -->
<g id="edge11" class="edge">
<title>0&#45;&gt;22</title>
<path fill="none" stroke="black" d="M76.81,-768.71C79.09,-822.58 93.78,-980.5 186.81,-1052.28 301.72,-1140.94 487.89,-1119.92 574.47,-1103.69"/>
<polygon fill="black" stroke="black" points="575.13,-1107.13 584.28,-1101.78 573.79,-1100.25 575.13,-1107.13"/>
</g>
<!-- 148 -->
<!-- name: &quot;Level ID&quot;, typeName: &quot;&quot;, id: 148, branchId: 0, recurseId: &#45;1, attributes: 0, notes: &quot;&quot; -->
<g id="node14" class="node">
<title>148</title>
<ellipse fill="none" stroke="black" cx="860.53" cy="-1045.28" rx="44.19" ry="18"/>
<text xml:space="preserve" text-anchor="middle" x="860.53" y="-1040.23" font-family="Times New Roman,serif" font-size="14.00">Level ID</text>
</g>
<!-- 0&#45;&gt;148 -->
<g id="edge13" class="edge">
<title>0&#45;&gt;148</title>
<path fill="none" stroke="black" d="M78.67,-768.56C85.43,-814.62 110.04,-935.56 186.81,-989.28 285.93,-1058.64 662.67,-1052.55 804.81,-1047.6"/>
<polygon fill="black" stroke="black" points="804.85,-1051.1 814.72,-1047.24 804.6,-1044.1 804.85,-1051.1"/>
</g>
<!-- 150 -->
<!-- name: &quot;Level Name&quot;, typeName: &quot;&quot;, id: 150, branchId: 0, recurseId: &#45;1, attributes: 0, notes: &quot;&quot; -->
<g id="node16" class="node">
<title>150</title>
<ellipse fill="none" stroke="black" cx="622.53" cy="-986.28" rx="56.98" ry="18"/>
<text xml:space="preserve" text-anchor="middle" x="622.53" y="-981.23" font-family="Times New Roman,serif" font-size="14.00">Level Name</text>
</g>
<!-- 0&#45;&gt;150 -->
<g id="edge15" class="edge">
<title>0&#45;&gt;150</title>
<path fill="none" stroke="black" d="M80.73,-768.72C91.16,-808.71 121.84,-903.19 186.81,-945.28 302.01,-1019.91 471.72,-1009.48 561.21,-996.98"/>
<polygon fill="black" stroke="black" points="561.61,-1000.46 571,-995.55 560.6,-993.54 561.61,-1000.46"/>
</g>
<!-- 152 -->
<!-- name: &quot;Template Content Identity&quot;, typeName: &quot;&quot;, id: 152, branchId: 0, recurseId: &#45;1, attributes: 0, notes: &quot;&quot; -->
<g id="node18" class="node">
<title>152</title>
<ellipse fill="none" stroke="black" cx="860.53" cy="-937.28" rx="108.67" ry="18"/>
<text xml:space="preserve" text-anchor="middle" x="860.53" y="-932.23" font-family="Times New Roman,serif" font-size="14.00">Template Content Identity</text>
</g>
<!-- 0&#45;&gt;152 -->
<g id="edge17" class="edge">
<title>0&#45;&gt;152</title>
<path fill="none" stroke="black" d="M86.06,-768.5C102.45,-797.33 138.68,-852.71 186.81,-877.28 280.54,-925.14 573.57,-935.38 740.32,-937.23"/>
<polygon fill="black" stroke="black" points="740.07,-940.73 750.1,-937.33 740.14,-933.73 740.07,-940.73"/>
</g>
<!-- 154 -->
<!-- name: &quot;Is Trial?&quot;, typeName: &quot;&quot;, id: 154, branchId: 0, recurseId: &#45;1, attributes: 0, notes: &quot;&quot; -->
<g id="node20" class="node">
<title>154</title>
<ellipse fill="none" stroke="black" cx="622.53" cy="-879.28" rx="41.63" ry="18"/>
<text xml:space="preserve" text-anchor="middle" x="622.53" y="-874.23" font-family="Times New Roman,serif" font-size="14.00">Is Trial?</text>
</g>
<!-- 0&#45;&gt;154 -->
<g id="edge19" class="edge">
<title>0&#45;&gt;154</title>
<path fill="none" stroke="black" d="M91.89,-768.19C111.54,-789.54 147.65,-824.34 186.81,-840.28 316.88,-893.25 486.47,-889.96 570.18,-884.12"/>
<polygon fill="black" stroke="black" points="570.43,-887.61 580.14,-883.37 569.91,-880.63 570.43,-887.61"/>
</g>
<!-- 156 -->
<!-- name: &quot;Movement Settings&quot;, typeName: &quot;SyncedPlayerMovementSettings&quot;, id: 156, branchId: 0, recurseId: &#45;1, attributes: 256, notes: &quot;&quot; -->
<g id="node22" class="node">
<title>156</title>
<ellipse fill="none" stroke="black" cx="860.53" cy="-829.28" rx="84.11" ry="18"/>
<text xml:space="preserve" text-anchor="middle" x="860.53" y="-824.23" font-family="Times New Roman,serif" font-size="14.00">Movement Settings</text>
</g>
<!-- 0&#45;&gt;156 -->
<g id="edge21" class="edge">
<title>0&#45;&gt;156</title>
<path fill="none" stroke="black" d="M124.4,-764.35C143.65,-769.5 166.13,-774.88 186.81,-778.28 391.34,-811.91 634.57,-823.42 765.25,-827.32"/>
<polygon fill="black" stroke="black" points="764.78,-830.8 774.87,-827.6 764.98,-823.81 764.78,-830.8"/>
</g>
<!-- 163 -->
<!-- name: &quot;Level Current Time&quot;, typeName: &quot;&quot;, id: 163, branchId: 0, recurseId: &#45;1, attributes: 0, notes: &quot;&quot; -->
<g id="node24" class="node">
<title>163</title>
<ellipse fill="none" stroke="black" cx="622.53" cy="-778.28" rx="84.62" ry="18"/>
<text xml:space="preserve" text-anchor="middle" x="622.53" y="-773.23" font-family="Times New Roman,serif" font-size="14.00">Level Current Time</text>
</g>
<!-- 0&#45;&gt;163 -->
<g id="edge23" class="edge">
<title>0&#45;&gt;163</title>
<path fill="none" stroke="black" d="M149.64,-754.05C247.56,-759.07 421.19,-767.99 528.33,-773.5"/>
<polygon fill="black" stroke="black" points="528.09,-776.99 538.26,-774.01 528.45,-770 528.09,-776.99"/>
</g>
<!-- 165 -->
<!-- name: &quot;Enchantment Seed&quot;, typeName: &quot;&quot;, id: 165, branchId: 0, recurseId: &#45;1, attributes: 0, notes: &quot;&quot; -->
<g id="node26" class="node">
<title>165</title>
<ellipse fill="none" stroke="black" cx="860.53" cy="-729.28" rx="80.52" ry="18"/>
<text xml:space="preserve" text-anchor="middle" x="860.53" y="-724.23" font-family="Times New Roman,serif" font-size="14.00">Enchantment Seed</text>
</g>
<!-- 0&#45;&gt;165 -->
<g id="edge25" class="edge">
<title>0&#45;&gt;165</title>
<path fill="none" stroke="black" d="M150.79,-748.29C295.03,-744.42 612.29,-735.91 768.7,-731.72"/>
<polygon fill="black" stroke="black" points="768.72,-735.22 778.62,-731.45 768.53,-728.22 768.72,-735.22"/>
</g>
<!-- 167 -->
<!-- name: &quot;Block Properties&quot;, typeName: &quot;&quot;, id: 167, branchId: 0, recurseId: &#45;1, attributes: 8, notes: &quot;&quot; -->
<g id="node28" class="node">
<title>167</title>
<ellipse fill="none" stroke="black" cx="342.57" cy="-671.28" rx="72.85" ry="18"/>
<text xml:space="preserve" text-anchor="middle" x="342.57" y="-666.23" font-family="Times New Roman,serif" font-size="14.00">Block Properties</text>
</g>
<!-- 0&#45;&gt;167 -->
<g id="edge27" class="edge">
<title>0&#45;&gt;167</title>
<path fill="none" stroke="black" d="M123.68,-736.14C143.22,-730.29 166.11,-723.46 186.81,-717.28 218.97,-707.7 254.89,-697.02 284.03,-688.37"/>
<polygon fill="black" stroke="black" points="284.8,-691.79 293.39,-685.59 282.8,-685.08 284.8,-691.79"/>
</g>
<!-- 175 -->
<!-- name: &quot;Multiplayer Correlation Id&quot;, typeName: &quot;&quot;, id: 175, branchId: 0, recurseId: &#45;1, attributes: 0, notes: &quot;A UUID to identify this multiplayer session.&quot; -->
<g id="node36" class="node">
<title>175</title>
<ellipse fill="none" stroke="black" cx="342.57" cy="-617.28" rx="109.7" ry="18"/>
<text xml:space="preserve" text-anchor="middle" x="342.57" y="-612.23" font-family="Times New Roman,serif" font-size="14.00">Multiplayer Correlation Id</text>
</g>
<!-- 0&#45;&gt;175 -->
<g id="edge35" class="edge">
<title>0&#45;&gt;175</title>
<path fill="none" stroke="black" d="M89.47,-732.3C108.14,-708.07 144.86,-665.54 186.81,-644.28 201.05,-637.07 216.86,-631.75 232.78,-627.82"/>
<polygon fill="black" stroke="black" points="233.35,-631.28 242.33,-625.66 231.8,-624.46 233.35,-631.28"/>
</g>
<!-- 177 -->
<!-- name: &quot;Enable Item Stack Net Manager&quot;, typeName: &quot;&quot;, id: 177, branchId: 0, recurseId: &#45;1, attributes: 0, notes: &quot;Whether the new item stack net manager is enabled for server authoritative inventory. This will eventually be required.&quot; -->
<g id="node38" class="node">
<title>177</title>
<ellipse fill="none" stroke="black" cx="342.57" cy="-562.28" rx="131.19" ry="18"/>
<text xml:space="preserve" text-anchor="middle" x="342.57" y="-557.23" font-family="Times New Roman,serif" font-size="14.00">Enable Item Stack Net Manager</text>
</g>
<!-- 0&#45;&gt;177 -->
<g id="edge37" class="edge">
<title>0&#45;&gt;177</title>
<path fill="none" stroke="black" d="M83.34,-732.13C97.3,-698.22 132.22,-625.5 186.81,-590.28 196.55,-584 207.31,-579.03 218.49,-575.12"/>
<polygon fill="black" stroke="black" points="219.41,-578.5 227.87,-572.13 217.28,-571.83 219.41,-578.5"/>
</g>
<!-- 179 -->
<!-- name: &quot;Server version&quot;, typeName: &quot;&quot;, id: 179, branchId: 0, recurseId: &#45;1, attributes: 0, notes: &quot;For telemetry purposes &#45; sending your own string with your own server name and version here would be useful for Mojang&#39;s telemetry.&quot; -->
<g id="node40" class="node">
<title>179</title>
<ellipse fill="none" stroke="black" cx="342.57" cy="-506.28" rx="64.66" ry="18"/>
<text xml:space="preserve" text-anchor="middle" x="342.57" y="-501.23" font-family="Times New Roman,serif" font-size="14.00">Server version</text>
</g>
<!-- 0&#45;&gt;179 -->
<g id="edge39" class="edge">
<title>0&#45;&gt;179</title>
<path fill="none" stroke="black" d="M80.07,-732.07C89.55,-690.01 119.04,-585.83 186.81,-535.28 209.54,-518.33 239.25,-510.36 266.56,-506.87"/>
<polygon fill="black" stroke="black" points="266.61,-510.38 276.18,-505.83 265.86,-503.42 266.61,-510.38"/>
</g>
<!-- 181 -->
<!-- name: &quot;Player Property Data&quot;, typeName: &quot;CompoundTag&quot;, id: 181, branchId: 0, recurseId: &#45;1, attributes: 256, notes: &quot;like SyncActorPropertyPacket, specifically for minecraft:player properties&quot; -->
<g id="node42" class="node">
<title>181</title>
<ellipse fill="none" stroke="black" cx="342.57" cy="-449.28" rx="88.71" ry="18"/>
<text xml:space="preserve" text-anchor="middle" x="342.57" y="-444.23" font-family="Times New Roman,serif" font-size="14.00">Player Property Data</text>
</g>
<!-- 0&#45;&gt;181 -->
<g id="edge41" class="edge">
<title>0&#45;&gt;181</title>
<path fill="none" stroke="black" d="M78.02,-731.99C83.41,-682.68 105.36,-546.2 186.81,-479.28 202.69,-466.24 222.57,-458.26 242.74,-453.51"/>
<polygon fill="black" stroke="black" points="243.39,-456.95 252.47,-451.49 241.97,-450.1 243.39,-456.95"/>
</g>
<!-- 183 -->
<!-- name: &quot;Server Block Type Registry Checksum&quot;, typeName: &quot;&quot;, id: 183, branchId: 0, recurseId: &#45;1, attributes: 0, notes: &quot;Checksum for detecting mismatches in block types between server and client.&quot; -->
<g id="node44" class="node">
<title>183</title>
<ellipse fill="none" stroke="black" cx="342.57" cy="-388.28" rx="155.76" ry="18"/>
<text xml:space="preserve" text-anchor="middle" x="342.57" y="-383.23" font-family="Times New Roman,serif" font-size="14.00">Server Block Type Registry Checksum</text>
</g>
<!-- 0&#45;&gt;183 -->
<g id="edge43" class="edge">
<title>0&#45;&gt;183</title>
<path fill="none" stroke="black" d="M76.67,-732.08C78.5,-676.46 91.99,-507.34 186.81,-422.28 194.79,-415.13 203.93,-409.36 213.68,-404.73"/>
<polygon fill="black" stroke="black" points="214.84,-408.04 222.66,-400.89 212.09,-401.6 214.84,-408.04"/>
</g>
<!-- 185 -->
<!-- name: &quot;World Template ID&quot;, typeName: &quot;mce::UUID&quot;, id: 185, branchId: 0, recurseId: &#45;1, attributes: 256, notes: &quot;&quot; -->
<g id="node46" class="node">
<title>185</title>
<ellipse fill="none" stroke="black" cx="342.57" cy="-321.28" rx="83.08" ry="18"/>
<text xml:space="preserve" text-anchor="middle" x="342.57" y="-316.23" font-family="Times New Roman,serif" font-size="14.00">World Template ID</text>
</g>
<!-- 0&#45;&gt;185 -->
<g id="edge45" class="edge">
<title>0&#45;&gt;185</title>
<path fill="none" stroke="black" d="M75.7,-732.09C74.33,-670.38 78.58,-466.99 186.81,-361.28 204.12,-344.38 227.59,-334.35 251.02,-328.47"/>
<polygon fill="black" stroke="black" points="251.66,-331.92 260.65,-326.31 250.12,-325.08 251.66,-331.92"/>
</g>
<!-- 187 -->
<!-- name: &quot;Server Enabled ClientSide Generation&quot;, typeName: &quot;&quot;, id: 187, branchId: 0, recurseId: &#45;1, attributes: 0, notes: &quot;BiomeComponentFactory needs to know about this toggle before we start parsing BiomeComponents&quot; -->
<g id="node48" class="node">
<title>187</title>
<ellipse fill="none" stroke="black" cx="342.57" cy="-241.28" rx="152.69" ry="18"/>
<text xml:space="preserve" text-anchor="middle" x="342.57" y="-236.23" font-family="Times New Roman,serif" font-size="14.00">Server Enabled ClientSide Generation</text>
</g>
<!-- 0&#45;&gt;187 -->
<g id="edge47" class="edge">
<title>0&#45;&gt;187</title>
<path fill="none" stroke="black" d="M78.51,-731.83C87.61,-654.95 125.9,-361.1 186.81,-294.28 201.08,-278.63 220.18,-267.6 240.07,-259.82"/>
<polygon fill="black" stroke="black" points="241.21,-263.13 249.43,-256.45 238.84,-256.55 241.21,-263.13"/>
</g>
<!-- 189 -->
<!-- name: &quot;BlockNetworkIds Are Hashes&quot;, typeName: &quot;&quot;, id: 189, branchId: 0, recurseId: &#45;1, attributes: 0, notes: &quot;&quot; -->
<g id="node50" class="node">
<title>189</title>
<ellipse fill="none" stroke="black" cx="342.57" cy="-134.28" rx="121.47" ry="18"/>
<text xml:space="preserve" text-anchor="middle" x="342.57" y="-129.23" font-family="Times New Roman,serif" font-size="14.00">BlockNetworkIds Are Hashes</text>
</g>
<!-- 0&#45;&gt;189 -->
<g id="edge49" class="edge">
<title>0&#45;&gt;189</title>
<path fill="none" stroke="black" d="M78.08,-731.8C86.05,-647.41 122.41,-299.29 186.81,-214.28 208.14,-186.14 242.19,-167.03 272.94,-154.57"/>
<polygon fill="black" stroke="black" points="274.17,-157.84 282.23,-150.97 271.64,-151.31 274.17,-157.84"/>
</g>
<!-- 191 -->
<!-- name: &quot;TickDeathSystems Enabled&quot;, typeName: &quot;&quot;, id: 191, branchId: 0, recurseId: &#45;1, attributes: 0, notes: &quot;Whether the new tick death systems are enabled. This will eventually be required.&quot; -->
<g id="node52" class="node">
<title>191</title>
<ellipse fill="none" stroke="black" cx="860.53" cy="-81.28" rx="113.79" ry="18"/>
<text xml:space="preserve" text-anchor="middle" x="860.53" y="-76.23" font-family="Times New Roman,serif" font-size="14.00">TickDeathSystems Enabled</text>
</g>
<!-- 0&#45;&gt;191 -->
<g id="edge51" class="edge">
<title>0&#45;&gt;191</title>
<path fill="none" stroke="black" d="M76.59,-731.94C78,-635.94 89.71,-192.39 186.81,-107.28 268.54,-35.64 586.56,-54.37 754.41,-69.98"/>
<polygon fill="black" stroke="black" points="753.95,-73.45 764.24,-70.9 754.61,-66.48 753.95,-73.45"/>
</g>
<!-- 193 -->
<!-- name: &quot;NetworkPermissions&quot;, typeName: &quot;NetworkPermissions&quot;, id: 193, branchId: 0, recurseId: &#45;1, attributes: 256, notes: &quot;&quot; -->
<g id="node54" class="node">
<title>193</title>
<ellipse fill="none" stroke="black" cx="622.53" cy="-29.28" rx="88.2" ry="18"/>
<text xml:space="preserve" text-anchor="middle" x="622.53" y="-24.23" font-family="Times New Roman,serif" font-size="14.00">NetworkPermissions</text>
</g>
<!-- 0&#45;&gt;193 -->
<g id="edge53" class="edge">
<title>0&#45;&gt;193</title>
<path fill="none" stroke="black" d="M76.52,-732.08C77.54,-633.7 87.62,-166.62 186.81,-73.28 285.16,19.26 456.93,4.37 552.47,-13.28"/>
<polygon fill="black" stroke="black" points="551.76,-16.71 562.24,-15.16 553.08,-9.84 551.76,-16.71"/>
</g>
<!-- 5 -->
<!-- name: &quot;ActorUniqueID&quot;, typeName: &quot;&quot;, id: 5, branchId: 0, recurseId: &#45;1, attributes: 512, notes: &quot;&quot; -->
<g id="node3" class="node">
<title>5</title>
<ellipse fill="none" stroke="black" cx="1142.54" cy="-1373.28" rx="68.75" ry="18"/>
<text xml:space="preserve" text-anchor="middle" x="1142.54" y="-1368.23" font-family="Times New Roman,serif" font-size="14.00">ActorUniqueID</text>
</g>
<!-- 1&#45;&gt;5 -->
<g id="edge2" class="edge">
<title>1&#45;&gt;5</title>
<path fill="none" stroke="black" d="M668.6,-1368.72C756.56,-1369.57 952.12,-1371.46 1062.24,-1372.52"/>
<polygon fill="black" stroke="black" points="1062.05,-1376.02 1072.08,-1372.61 1062.12,-1369.02 1062.05,-1376.02"/>
</g>
<!-- 10 -->
<!-- name: &quot;ActorRuntimeID&quot;, typeName: &quot;&quot;, id: 10, branchId: 0, recurseId: &#45;1, attributes: 512, notes: &quot;&quot; -->
<g id="node5" class="node">
<title>10</title>
<ellipse fill="none" stroke="black" cx="1142.54" cy="-1319.28" rx="73.87" ry="18"/>
<text xml:space="preserve" text-anchor="middle" x="1142.54" y="-1314.23" font-family="Times New Roman,serif" font-size="14.00">ActorRuntimeID</text>
</g>
<!-- 6&#45;&gt;10 -->
<g id="edge4" class="edge">
<title>6&#45;&gt;10</title>
<path fill="none" stroke="black" d="M677.99,-1310.33C768.34,-1312.08 949.87,-1315.58 1056.99,-1317.65"/>
<polygon fill="black" stroke="black" points="1056.82,-1321.15 1066.88,-1317.84 1056.95,-1314.15 1056.82,-1321.15"/>
</g>
<!-- 12 -->
<!-- name: &quot;varint&quot;, typeName: &quot;&quot;, id: 12, branchId: 0, recurseId: &#45;1, attributes: 512, notes: &quot;&quot; -->
<g id="node7" class="node">
<title>12</title>
<ellipse fill="none" stroke="black" cx="1142.54" cy="-1265.28" rx="32.41" ry="18"/>
<text xml:space="preserve" text-anchor="middle" x="1142.54" y="-1260.23" font-family="Times New Roman,serif" font-size="14.00">varint</text>
</g>
<!-- 11&#45;&gt;12 -->
<g id="edge6" class="edge">
<title>11&#45;&gt;12</title>
<path fill="none" stroke="black" d="M914.86,-1262.05C968.18,-1262.81 1049.16,-1263.96 1098.52,-1264.67"/>
<polygon fill="black" stroke="black" points="1098.19,-1268.16 1108.24,-1264.81 1098.29,-1261.17 1098.19,-1268.16"/>
</g>
<!-- 14 -->
<!-- name: &quot;Vec3&quot;, typeName: &quot;&quot;, id: 14, branchId: 0, recurseId: &#45;1, attributes: 512, notes: &quot;&quot; -->
<g id="node9" class="node">
<title>14</title>
<ellipse fill="none" stroke="black" cx="1142.54" cy="-1211.28" rx="29.34" ry="18"/>
<text xml:space="preserve" text-anchor="middle" x="1142.54" y="-1206.23" font-family="Times New Roman,serif" font-size="14.00">Vec3</text>
</g>
<!-- 13&#45;&gt;14 -->
<g id="edge8" class="edge">
<title>13&#45;&gt;14</title>
<path fill="none" stroke="black" d="M663.75,-1202.06C760.5,-1203.93 1005.37,-1208.65 1101.72,-1210.51"/>
<polygon fill="black" stroke="black" points="1101.4,-1214.01 1111.47,-1210.7 1101.53,-1207.01 1101.4,-1214.01"/>
</g>
<!-- 21 -->
<!-- name: &quot;Vec2&quot;, typeName: &quot;&quot;, id: 21, branchId: 0, recurseId: &#45;1, attributes: 512, notes: &quot;&quot; -->
<g id="node11" class="node">
<title>21</title>
<ellipse fill="none" stroke="black" cx="1142.54" cy="-1157.28" rx="29.34" ry="18"/>
<text xml:space="preserve" text-anchor="middle" x="1142.54" y="-1152.23" font-family="Times New Roman,serif" font-size="14.00">Vec2</text>
</g>
<!-- 15&#45;&gt;21 -->
<g id="edge10" class="edge">
<title>15&#45;&gt;21</title>
<path fill="none" stroke="black" d="M903.45,-1153.88C957.06,-1154.65 1049.24,-1155.96 1101.79,-1156.72"/>
<polygon fill="black" stroke="black" points="1101.44,-1160.21 1111.49,-1156.85 1101.54,-1153.21 1101.44,-1160.21"/>
</g>
<!-- 147 -->
<!-- name: &quot;LevelSettings&quot;, typeName: &quot;&quot;, id: 147, branchId: 0, recurseId: &#45;1, attributes: 512, notes: &quot;&quot; -->
<g id="node13" class="node">
<title>147</title>
<ellipse fill="none" stroke="black" cx="1142.54" cy="-1103.28" rx="61.59" ry="18"/>
<text xml:space="preserve" text-anchor="middle" x="1142.54" y="-1098.23" font-family="Times New Roman,serif" font-size="14.00">LevelSettings</text>
</g>
<!-- 22&#45;&gt;147 -->
<g id="edge12" class="edge">
<title>22&#45;&gt;147</title>
<path fill="none" stroke="black" d="M663.32,-1094.05C750.38,-1095.73 958.84,-1099.76 1069.57,-1101.89"/>
<polygon fill="black" stroke="black" points="1069.37,-1105.39 1079.43,-1102.08 1069.5,-1098.39 1069.37,-1105.39"/>
</g>
<!-- 149 -->
<!-- name: &quot;string&quot;, typeName: &quot;&quot;, id: 149, branchId: 0, recurseId: &#45;1, attributes: 512, notes: &quot;&quot; -->
<g id="node15" class="node">
<title>149</title>
<ellipse fill="none" stroke="black" cx="1142.54" cy="-1049.28" rx="31.9" ry="18"/>
<text xml:space="preserve" text-anchor="middle" x="1142.54" y="-1044.23" font-family="Times New Roman,serif" font-size="14.00">string</text>
</g>
<!-- 148&#45;&gt;149 -->
<g id="edge14" class="edge">
<title>148&#45;&gt;149</title>
<path fill="none" stroke="black" d="M904.97,-1045.9C957.81,-1046.66 1046.43,-1047.92 1098.9,-1048.67"/>
<polygon fill="black" stroke="black" points="1098.59,-1052.17 1108.64,-1048.81 1098.69,-1045.17 1098.59,-1052.17"/>
</g>
<!-- 151 -->
<!-- name: &quot;string&quot;, typeName: &quot;&quot;, id: 151, branchId: 0, recurseId: &#45;1, attributes: 512, notes: &quot;&quot; -->
<g id="node17" class="node">
<title>151</title>
<ellipse fill="none" stroke="black" cx="1142.54" cy="-995.28" rx="31.9" ry="18"/>
<text xml:space="preserve" text-anchor="middle" x="1142.54" y="-990.23" font-family="Times New Roman,serif" font-size="14.00">string</text>
</g>
<!-- 150&#45;&gt;151 -->
<g id="edge16" class="edge">
<title>150&#45;&gt;151</title>
<path fill="none" stroke="black" d="M679.46,-987.26C783.72,-989.07 1005.64,-992.92 1098.87,-994.54"/>
<polygon fill="black" stroke="black" points="1098.8,-998.04 1108.86,-994.72 1098.92,-991.04 1098.8,-998.04"/>
</g>
<!-- 153 -->
<!-- name: &quot;string&quot;, typeName: &quot;&quot;, id: 153, branchId: 0, recurseId: &#45;1, attributes: 512, notes: &quot;&quot; -->
<g id="node19" class="node">
<title>153</title>
<ellipse fill="none" stroke="black" cx="1142.54" cy="-941.28" rx="31.9" ry="18"/>
<text xml:space="preserve" text-anchor="middle" x="1142.54" y="-936.23" font-family="Times New Roman,serif" font-size="14.00">string</text>
</g>
<!-- 152&#45;&gt;153 -->
<g id="edge18" class="edge">
<title>152&#45;&gt;153</title>
<path fill="none" stroke="black" d="M968.99,-938.82C1014.44,-939.47 1064.73,-940.19 1099.23,-940.68"/>
<polygon fill="black" stroke="black" points="1098.74,-944.17 1108.79,-940.82 1098.84,-937.17 1098.74,-944.17"/>
</g>
<!-- 155 -->
<!-- name: &quot;bool&quot;, typeName: &quot;&quot;, id: 155, branchId: 0, recurseId: &#45;1, attributes: 512, notes: &quot;&quot; -->
<g id="node21" class="node">
<title>155</title>
<ellipse fill="none" stroke="black" cx="1142.54" cy="-887.28" rx="27.3" ry="18"/>
<text xml:space="preserve" text-anchor="middle" x="1142.54" y="-882.23" font-family="Times New Roman,serif" font-size="14.00">bool</text>
</g>
<!-- 154&#45;&gt;155 -->
<g id="edge20" class="edge">
<title>154&#45;&gt;155</title>
<path fill="none" stroke="black" d="M664.61,-879.92C762.6,-881.43 1008.91,-885.24 1103.62,-886.7"/>
<polygon fill="black" stroke="black" points="1103.35,-890.19 1113.4,-886.85 1103.46,-883.19 1103.35,-890.19"/>
</g>
<!-- 162 -->
<!-- name: &quot;SyncedPlayerMovementSettings&quot;, typeName: &quot;&quot;, id: 162, branchId: 0, recurseId: &#45;1, attributes: 512, notes: &quot;&quot; -->
<g id="node23" class="node">
<title>162</title>
<ellipse fill="none" stroke="black" cx="1142.54" cy="-833.28" rx="132.22" ry="18"/>
<text xml:space="preserve" text-anchor="middle" x="1142.54" y="-828.23" font-family="Times New Roman,serif" font-size="14.00">SyncedPlayerMovementSettings</text>
</g>
<!-- 156&#45;&gt;162 -->
<g id="edge22" class="edge">
<title>156&#45;&gt;162</title>
<path fill="none" stroke="black" d="M944.78,-830.47C962.02,-830.72 980.64,-830.98 999.31,-831.25"/>
<polygon fill="black" stroke="black" points="999.05,-834.75 1009.09,-831.39 999.15,-827.75 999.05,-834.75"/>
</g>
<!-- 164 -->
<!-- name: &quot;unsigned int64&quot;, typeName: &quot;&quot;, id: 164, branchId: 0, recurseId: &#45;1, attributes: 512, notes: &quot;&quot; -->
<g id="node25" class="node">
<title>164</title>
<ellipse fill="none" stroke="black" cx="1142.54" cy="-779.28" rx="65.68" ry="18"/>
<text xml:space="preserve" text-anchor="middle" x="1142.54" y="-774.23" font-family="Times New Roman,serif" font-size="14.00">unsigned int64</text>
</g>
<!-- 163&#45;&gt;164 -->
<g id="edge24" class="edge">
<title>163&#45;&gt;164</title>
<path fill="none" stroke="black" d="M707.63,-778.45C806.6,-778.64 969.55,-778.95 1065.09,-779.14"/>
<polygon fill="black" stroke="black" points="1064.88,-782.64 1074.88,-779.15 1064.89,-775.64 1064.88,-782.64"/>
</g>
<!-- 166 -->
<!-- name: &quot;varint&quot;, typeName: &quot;&quot;, id: 166, branchId: 0, recurseId: &#45;1, attributes: 512, notes: &quot;&quot; -->
<g id="node27" class="node">
<title>166</title>
<ellipse fill="none" stroke="black" cx="1142.54" cy="-725.28" rx="32.41" ry="18"/>
<text xml:space="preserve" text-anchor="middle" x="1142.54" y="-720.23" font-family="Times New Roman,serif" font-size="14.00">varint</text>
</g>
<!-- 165&#45;&gt;166 -->
<g id="edge26" class="edge">
<title>165&#45;&gt;166</title>
<path fill="none" stroke="black" d="M941.39,-728.14C992.41,-727.41 1056.57,-726.5 1098.3,-725.9"/>
<polygon fill="black" stroke="black" points="1098.24,-729.4 1108.19,-725.76 1098.14,-722.4 1098.24,-729.4"/>
</g>
<!-- 168 -->
<!-- name: &quot;List Size&quot;, typeName: &quot;&quot;, id: 168, branchId: 0, recurseId: &#45;1, attributes: 0, notes: &quot;&quot; -->
<g id="node29" class="node">
<title>168</title>
<ellipse fill="none" stroke="black" cx="860.53" cy="-671.28" rx="43.67" ry="18"/>
<text xml:space="preserve" text-anchor="middle" x="860.53" y="-666.23" font-family="Times New Roman,serif" font-size="14.00">List Size</text>
</g>
<!-- 167&#45;&gt;168 -->
<g id="edge28" class="edge">
<title>167&#45;&gt;168</title>
<path fill="none" stroke="black" d="M415.86,-671.28C520.38,-671.28 711.42,-671.28 804.98,-671.28"/>
<polygon fill="black" stroke="black" points="804.92,-674.78 814.92,-671.28 804.92,-667.78 804.92,-674.78"/>
</g>
<!-- 170 -->
<!-- name: &quot;example element&quot;, typeName: &quot;&quot;, id: 170, branchId: 0, recurseId: &#45;1, attributes: 16, notes: &quot;&quot; -->
<g id="node31" class="node">
<title>170</title>
<ellipse fill="none" stroke="black" stroke-dasharray="1,5" cx="622.53" cy="-617.28" rx="74.89" ry="18"/>
<text xml:space="preserve" text-anchor="middle" x="622.53" y="-612.23" font-family="Times New Roman,serif" font-size="14.00">example element</text>
</g>
<!-- 167&#45;&gt;170 -->
<g id="edge30" class="edge">
<title>167&#45;&gt;170</title>
<path fill="none" stroke="black" d="M404.32,-661.31C432.9,-656.45 467.42,-650.36 498.33,-644.28 517.1,-640.59 537.41,-636.27 556.02,-632.19"/>
<polygon fill="black" stroke="black" points="556.57,-635.65 565.58,-630.08 555.06,-628.82 556.57,-635.65"/>
</g>
<!-- 169 -->
<!-- name: &quot;unsigned varint&quot;, typeName: &quot;&quot;, id: 169, branchId: 0, recurseId: &#45;1, attributes: 512, notes: &quot;&quot; -->
<g id="node30" class="node">
<title>169</title>
<ellipse fill="none" stroke="black" cx="1142.54" cy="-671.28" rx="68.24" ry="18"/>
<text xml:space="preserve" text-anchor="middle" x="1142.54" y="-666.23" font-family="Times New Roman,serif" font-size="14.00">unsigned varint</text>
</g>
<!-- 168&#45;&gt;169 -->
<g id="edge29" class="edge">
<title>168&#45;&gt;169</title>
<path fill="none" stroke="black" d="M904.67,-671.28C946.6,-671.28 1011.26,-671.28 1062.44,-671.28"/>
<polygon fill="black" stroke="black" points="1062.29,-674.78 1072.29,-671.28 1062.29,-667.78 1062.29,-674.78"/>
</g>
<!-- 171 -->
<!-- name: &quot;Block Name&quot;, typeName: &quot;&quot;, id: 171, branchId: 0, recurseId: &#45;1, attributes: 0, notes: &quot;&quot; -->
<g id="node32" class="node">
<title>171</title>
<ellipse fill="none" stroke="black" cx="860.53" cy="-617.28" rx="58" ry="18"/>
<text xml:space="preserve" text-anchor="middle" x="860.53" y="-612.23" font-family="Times New Roman,serif" font-size="14.00">Block Name</text>
</g>
<!-- 170&#45;&gt;171 -->
<g id="edge31" class="edge">
<title>170&#45;&gt;171</title>
<path fill="none" stroke="black" d="M697.88,-617.28C727.7,-617.28 761.85,-617.28 791.05,-617.28"/>
<polygon fill="black" stroke="black" points="790.88,-620.78 800.88,-617.28 790.88,-613.78 790.88,-620.78"/>
</g>
<!-- 173 -->
<!-- name: &quot;Block Definition&quot;, typeName: &quot;CompoundTag&quot;, id: 173, branchId: 0, recurseId: &#45;1, attributes: 256, notes: &quot;Map of block states. { key (component name):[label,value] } (Can be left empty.)&quot; -->
<g id="node34" class="node">
<title>173</title>
<ellipse fill="none" stroke="black" cx="860.53" cy="-563.28" rx="73.36" ry="18"/>
<text xml:space="preserve" text-anchor="middle" x="860.53" y="-558.23" font-family="Times New Roman,serif" font-size="14.00">Block Definition</text>
</g>
<!-- 170&#45;&gt;173 -->
<g id="edge33" class="edge">
<title>170&#45;&gt;173</title>
<path fill="none" stroke="black" d="M677.97,-604.83C712.76,-596.87 758.05,-586.5 794.7,-578.12"/>
<polygon fill="black" stroke="black" points="795.33,-581.56 804.3,-575.92 793.77,-574.74 795.33,-581.56"/>
</g>
<!-- 172 -->
<!-- name: &quot;string&quot;, typeName: &quot;&quot;, id: 172, branchId: 0, recurseId: &#45;1, attributes: 512, notes: &quot;&quot; -->
<g id="node33" class="node">
<title>172</title>
<ellipse fill="none" stroke="black" cx="1142.54" cy="-617.28" rx="31.9" ry="18"/>
<text xml:space="preserve" text-anchor="middle" x="1142.54" y="-612.23" font-family="Times New Roman,serif" font-size="14.00">string</text>
</g>
<!-- 171&#45;&gt;172 -->
<g id="edge32" class="edge">
<title>171&#45;&gt;172</title>
<path fill="none" stroke="black" d="M918.87,-617.28C972.38,-617.28 1050.98,-617.28 1099.07,-617.28"/>
<polygon fill="black" stroke="black" points="1098.8,-620.78 1108.8,-617.28 1098.8,-613.78 1098.8,-620.78"/>
</g>
<!-- 174 -->
<!-- name: &quot;CompoundTag&quot;, typeName: &quot;&quot;, id: 174, branchId: 0, recurseId: &#45;1, attributes: 512, notes: &quot;&quot; -->
<g id="node35" class="node">
<title>174</title>
<ellipse fill="none" stroke="black" cx="1142.54" cy="-563.28" rx="66.19" ry="18"/>
<text xml:space="preserve" text-anchor="middle" x="1142.54" y="-558.23" font-family="Times New Roman,serif" font-size="14.00">CompoundTag</text>
</g>
<!-- 173&#45;&gt;174 -->
<g id="edge34" class="edge">
<title>173&#45;&gt;174</title>
<path fill="none" stroke="black" d="M934.37,-563.28C974.42,-563.28 1024.09,-563.28 1064.75,-563.28"/>
<polygon fill="black" stroke="black" points="1064.72,-566.78 1074.72,-563.28 1064.72,-559.78 1064.72,-566.78"/>
</g>
<!-- 176 -->
<!-- name: &quot;string&quot;, typeName: &quot;&quot;, id: 176, branchId: 0, recurseId: &#45;1, attributes: 512, notes: &quot;&quot; -->
<g id="node37" class="node">
<title>176</title>
<ellipse fill="none" stroke="black" cx="1142.54" cy="-509.28" rx="31.9" ry="18"/>
<text xml:space="preserve" text-anchor="middle" x="1142.54" y="-504.23" font-family="Times New Roman,serif" font-size="14.00">string</text>
</g>
<!-- 175&#45;&gt;176 -->
<g id="edge36" class="edge">
<title>175&#45;&gt;176</title>
<path fill="none" stroke="black" d="M419.23,-604.08C444.42,-599.56 472.62,-594.35 498.33,-589.28 609.09,-567.45 634.94,-551.95 746.74,-536.28 874.02,-518.44 1026.12,-512.26 1098.78,-510.22"/>
<polygon fill="black" stroke="black" points="1098.75,-513.72 1108.65,-509.96 1098.56,-506.73 1098.75,-513.72"/>
</g>
<!-- 178 -->
<!-- name: &quot;bool&quot;, typeName: &quot;&quot;, id: 178, branchId: 0, recurseId: &#45;1, attributes: 512, notes: &quot;&quot; -->
<g id="node39" class="node">
<title>178</title>
<ellipse fill="none" stroke="black" cx="1142.54" cy="-455.28" rx="27.3" ry="18"/>
<text xml:space="preserve" text-anchor="middle" x="1142.54" y="-450.23" font-family="Times New Roman,serif" font-size="14.00">bool</text>
</g>
<!-- 177&#45;&gt;178 -->
<g id="edge38" class="edge">
<title>177&#45;&gt;178</title>
<path fill="none" stroke="black" d="M449.45,-551.63C466.43,-547.37 483.33,-541.46 498.33,-533.28 518.76,-522.15 513.28,-505.17 534.33,-495.28 732.12,-402.39 1006.69,-433.49 1104.85,-448.87"/>
<polygon fill="black" stroke="black" points="1104,-452.27 1114.43,-450.41 1105.12,-445.36 1104,-452.27"/>
</g>
<!-- 180 -->
<!-- name: &quot;string&quot;, typeName: &quot;&quot;, id: 180, branchId: 0, recurseId: &#45;1, attributes: 512, notes: &quot;&quot; -->
<g id="node41" class="node">
<title>180</title>
<ellipse fill="none" stroke="black" cx="1142.54" cy="-401.28" rx="31.9" ry="18"/>
<text xml:space="preserve" text-anchor="middle" x="1142.54" y="-396.23" font-family="Times New Roman,serif" font-size="14.00">string</text>
</g>
<!-- 179&#45;&gt;180 -->
<g id="edge40" class="edge">
<title>179&#45;&gt;180</title>
<path fill="none" stroke="black" d="M406.18,-502.42C435.48,-498.59 470.07,-491.05 498.33,-476.28 518.11,-465.95 513.94,-450.35 534.33,-441.28 730.71,-353.93 998.45,-380.15 1100.1,-394.6"/>
<polygon fill="black" stroke="black" points="1099.48,-398.05 1109.88,-396.04 1100.5,-391.12 1099.48,-398.05"/>
</g>
<!-- 182 -->
<!-- name: &quot;CompoundTag&quot;, typeName: &quot;&quot;, id: 182, branchId: 0, recurseId: &#45;1, attributes: 512, notes: &quot;&quot; -->
<g id="node43" class="node">
<title>182</title>
<ellipse fill="none" stroke="black" cx="1142.54" cy="-347.28" rx="66.19" ry="18"/>
<text xml:space="preserve" text-anchor="middle" x="1142.54" y="-342.23" font-family="Times New Roman,serif" font-size="14.00">CompoundTag</text>
</g>
<!-- 181&#45;&gt;182 -->
<g id="edge42" class="edge">
<title>181&#45;&gt;182</title>
<path fill="none" stroke="black" d="M418.59,-439.73C444.66,-434.63 473.55,-426.91 498.33,-415.28 516.68,-406.67 515.39,-394.49 534.33,-387.28 717.58,-317.6 954.22,-327.92 1070.56,-338.88"/>
<polygon fill="black" stroke="black" points="1069.98,-342.34 1080.27,-339.82 1070.65,-335.37 1069.98,-342.34"/>
</g>
<!-- 184 -->
<!-- name: &quot;unsigned int64&quot;, typeName: &quot;&quot;, id: 184, branchId: 0, recurseId: &#45;1, attributes: 512, notes: &quot;&quot; -->
<g id="node45" class="node">
<title>184</title>
<ellipse fill="none" stroke="black" cx="1142.54" cy="-293.28" rx="65.68" ry="18"/>
<text xml:space="preserve" text-anchor="middle" x="1142.54" y="-288.23" font-family="Times New Roman,serif" font-size="14.00">unsigned int64</text>
</g>
<!-- 183&#45;&gt;184 -->
<g id="edge44" class="edge">
<title>183&#45;&gt;184</title>
<path fill="none" stroke="black" d="M415.46,-371.96C441.77,-365.39 471.63,-357.25 498.33,-348.28 514.77,-342.77 517.46,-337.24 534.33,-333.28 721.72,-289.35 949.92,-287.69 1065.94,-290.38"/>
<polygon fill="black" stroke="black" points="1065.55,-293.88 1075.64,-290.63 1065.73,-286.88 1065.55,-293.88"/>
</g>
<!-- 186 -->
<!-- name: &quot;mce::UUID&quot;, typeName: &quot;&quot;, id: 186, branchId: 0, recurseId: &#45;1, attributes: 512, notes: &quot;&quot; -->
<g id="node47" class="node">
<title>186</title>
<ellipse fill="none" stroke="black" cx="1142.54" cy="-239.28" rx="54.93" ry="18"/>
<text xml:space="preserve" text-anchor="middle" x="1142.54" y="-234.23" font-family="Times New Roman,serif" font-size="14.00">mce::UUID</text>
</g>
<!-- 185&#45;&gt;186 -->
<g id="edge46" class="edge">
<title>185&#45;&gt;186</title>
<path fill="none" stroke="black" d="M396.63,-307.34C434.69,-297.9 487.33,-285.97 534.33,-279.28 730.06,-251.45 964.08,-242.94 1075.84,-240.37"/>
<polygon fill="black" stroke="black" points="1075.8,-243.87 1085.72,-240.15 1075.65,-236.87 1075.8,-243.87"/>
</g>
<!-- 188 -->
<!-- name: &quot;bool&quot;, typeName: &quot;&quot;, id: 188, branchId: 0, recurseId: &#45;1, attributes: 512, notes: &quot;&quot; -->
<g id="node49" class="node">
<title>188</title>
<ellipse fill="none" stroke="black" cx="1142.54" cy="-185.28" rx="27.3" ry="18"/>
<text xml:space="preserve" text-anchor="middle" x="1142.54" y="-180.23" font-family="Times New Roman,serif" font-size="14.00">bool</text>
</g>
<!-- 187&#45;&gt;188 -->
<g id="edge48" class="edge">
<title>187&#45;&gt;188</title>
<path fill="none" stroke="black" d="M467.2,-230.59C489.54,-228.75 512.63,-226.91 534.33,-225.28 749.53,-209.17 1007.89,-193.31 1103.53,-187.55"/>
<polygon fill="black" stroke="black" points="1103.61,-191.05 1113.38,-186.96 1103.19,-184.06 1103.61,-191.05"/>
</g>
<!-- 190 -->
<!-- name: &quot;bool&quot;, typeName: &quot;&quot;, id: 190, branchId: 0, recurseId: &#45;1, attributes: 512, notes: &quot;&quot; -->
<g id="node51" class="node">
<title>190</title>
<ellipse fill="none" stroke="black" cx="1142.54" cy="-131.28" rx="27.3" ry="18"/>
<text xml:space="preserve" text-anchor="middle" x="1142.54" y="-126.23" font-family="Times New Roman,serif" font-size="14.00">bool</text>
</g>
<!-- 189&#45;&gt;190 -->
<g id="edge50" class="edge">
<title>189&#45;&gt;190</title>
<path fill="none" stroke="black" d="M464.33,-133.83C648.43,-133.14 989.9,-131.85 1103.6,-131.43"/>
<polygon fill="black" stroke="black" points="1103.3,-134.93 1113.29,-131.39 1103.28,-127.93 1103.3,-134.93"/>
</g>
<!-- 192 -->
<!-- name: &quot;bool&quot;, typeName: &quot;&quot;, id: 192, branchId: 0, recurseId: &#45;1, attributes: 512, notes: &quot;&quot; -->
<g id="node53" class="node">
<title>192</title>
<ellipse fill="none" stroke="black" cx="1142.54" cy="-77.28" rx="27.3" ry="18"/>
<text xml:space="preserve" text-anchor="middle" x="1142.54" y="-72.23" font-family="Times New Roman,serif" font-size="14.00">bool</text>
</g>
<!-- 191&#45;&gt;192 -->
<g id="edge52" class="edge">
<title>191&#45;&gt;192</title>
<path fill="none" stroke="black" d="M974.21,-79.67C1020.09,-79.02 1070.05,-78.3 1103.32,-77.83"/>
<polygon fill="black" stroke="black" points="1103.32,-81.33 1113.27,-77.69 1103.22,-74.33 1103.32,-81.33"/>
</g>
<!-- 197 -->
<!-- name: &quot;NetworkPermissions&quot;, typeName: &quot;&quot;, id: 197, branchId: 0, recurseId: &#45;1, attributes: 512, notes: &quot;&quot; -->
<g id="node55" class="node">
<title>197</title>
<ellipse fill="none" stroke="black" cx="1142.54" cy="-23.28" rx="88.2" ry="18"/>
<text xml:space="preserve" text-anchor="middle" x="1142.54" y="-18.23" font-family="Times New Roman,serif" font-size="14.00">NetworkPermissions</text>
</g>
<!-- 193&#45;&gt;197 -->
<g id="edge54" class="edge">
<title>193&#45;&gt;197</title>
<path fill="none" stroke="black" d="M710.82,-28.27C802.67,-27.21 946.96,-25.54 1042.88,-24.43"/>
<polygon fill="black" stroke="black" points="1042.85,-27.93 1052.81,-24.31 1042.77,-20.93 1042.85,-27.93"/>
</g>
</g>
</svg>
