<?xml version="1.0" encoding="UTF-8" standalone="no"?>
<!DOCTYPE svg PUBLIC "-//W3C//DTD SVG 1.1//EN"
 "http://www.w3.org/Graphics/SVG/1.1/DTD/svg11.dtd">
<!-- Generated by graphviz version 12.2.1 (20241206.2353)
 -->
<!-- Title: std::optional&lt;unsigned char&gt; Pages: 1 -->
<svg width="471pt" height="98pt"
 viewBox="0.00 0.00 471.02 98.00" xmlns="http://www.w3.org/2000/svg" xmlns:xlink="http://www.w3.org/1999/xlink">
<g id="graph0" class="graph" transform="scale(1 1) rotate(0) translate(4 94)">
<title>std::optional&lt;unsigned char&gt;</title>
<polygon fill="white" stroke="none" points="-4,4 -4,-94 467.02,-94 467.02,4 -4,4"/>
<!-- 43 -->
<!-- name: &quot;std::optional&lt;unsigned char&gt;&quot;, typeName: &quot;&quot;, id: 43, branchId: 0, recurseId: &#45;1, attributes: 0, notes: &quot;&quot; -->
<g id="node1" class="node">
<title>43</title>
<ellipse fill="none" stroke="black" cx="119.93" cy="-45" rx="119.93" ry="18"/>
<text text-anchor="middle" x="119.93" y="-39.95" font-family="Times New Roman,serif" font-size="14.00">std::optional&lt;unsigned char&gt;</text>
</g>
<!-- 44 -->
<!-- name: &quot;Has Value&quot;, typeName: &quot;&quot;, id: 44, branchId: 0, recurseId: &#45;1, attributes: 0, notes: &quot;If true, follow with appropriate data type, otherwise nothing&quot; -->
<g id="node2" class="node">
<title>44</title>
<ellipse fill="none" stroke="black" cx="324.15" cy="-72" rx="48.28" ry="18"/>
<text text-anchor="middle" x="324.15" y="-66.95" font-family="Times New Roman,serif" font-size="14.00">Has Value</text>
</g>
<!-- 43&#45;&gt;44 -->
<g id="edge1" class="edge">
<title>43&#45;&gt;44</title>
<path fill="none" stroke="black" d="M211.1,-57.04C230.19,-59.59 249.81,-62.21 267.19,-64.53"/>
<polygon fill="black" stroke="black" points="266.39,-67.95 276.76,-65.81 267.31,-61.01 266.39,-67.95"/>
</g>
<!-- 46 -->
<!-- name: &quot;Value&quot;, typeName: &quot;char&quot;, id: 46, branchId: 0, recurseId: &#45;1, attributes: 256, notes: &quot;&quot; -->
<g id="node4" class="node">
<title>46</title>
<ellipse fill="none" stroke="black" cx="324.15" cy="-18" rx="31.9" ry="18"/>
<text text-anchor="middle" x="324.15" y="-12.95" font-family="Times New Roman,serif" font-size="14.00">Value</text>
</g>
<!-- 43&#45;&gt;46 -->
<g id="edge3" class="edge">
<title>43&#45;&gt;46</title>
<path fill="none" stroke="black" d="M211.1,-32.96C235.58,-29.69 260.92,-26.31 281.29,-23.59"/>
<polygon fill="black" stroke="black" points="281.73,-27.06 291.17,-22.27 280.8,-20.12 281.73,-27.06"/>
</g>
<!-- 45 -->
<!-- name: &quot;bool&quot;, typeName: &quot;&quot;, id: 45, branchId: 0, recurseId: &#45;1, attributes: 512, notes: &quot;&quot; -->
<g id="node3" class="node">
<title>45</title>
<ellipse fill="none" stroke="black" cx="435.72" cy="-72" rx="27.3" ry="18"/>
<text text-anchor="middle" x="435.72" y="-66.95" font-family="Times New Roman,serif" font-size="14.00">bool</text>
</g>
<!-- 44&#45;&gt;45 -->
<g id="edge2" class="edge">
<title>44&#45;&gt;45</title>
<path fill="none" stroke="black" d="M372.89,-72C380.93,-72 389.18,-72 396.93,-72"/>
<polygon fill="black" stroke="black" points="396.69,-75.5 406.69,-72 396.69,-68.5 396.69,-75.5"/>
</g>
<!-- 48 -->
<!-- name: &quot;char&quot;, typeName: &quot;&quot;, id: 48, branchId: 0, recurseId: &#45;1, attributes: 512, notes: &quot;&quot; -->
<g id="node5" class="node">
<title>48</title>
<ellipse fill="none" stroke="black" cx="435.72" cy="-18" rx="27" ry="18"/>
<text text-anchor="middle" x="435.72" y="-12.95" font-family="Times New Roman,serif" font-size="14.00">char</text>
</g>
<!-- 46&#45;&gt;48 -->
<g id="edge4" class="edge">
<title>46&#45;&gt;48</title>
<path fill="none" stroke="black" d="M356.55,-18C369.27,-18 384.05,-18 397.32,-18"/>
<polygon fill="black" stroke="black" points="396.99,-21.5 406.99,-18 396.99,-14.5 396.99,-21.5"/>
</g>
</g>
</svg>
