<?xml version="1.0" encoding="UTF-8" standalone="no"?>
<!DOCTYPE svg PUBLIC "-//W3C//DTD SVG 1.1//EN"
 "http://www.w3.org/Graphics/SVG/1.1/DTD/svg11.dtd">
<!-- Generated by graphviz version 2.46.1 (20210213.1702)
 -->
<!-- Title: std::optional&lt;bool&gt; Pages: 1 -->
<svg width="396pt" height="44pt"
 viewBox="0.00 0.00 395.87 44.00" xmlns="http://www.w3.org/2000/svg" xmlns:xlink="http://www.w3.org/1999/xlink">
<g id="graph0" class="graph" transform="scale(1 1) rotate(0) translate(4 40)">
<title>std::optional&lt;bool&gt;</title>
<polygon fill="white" stroke="transparent" points="-4,4 -4,-40 391.87,-40 391.87,4 -4,4"/>
<!-- 32 -->
<!-- name: &quot;std::optional&lt;bool&gt;&quot;, typeName: &quot;&quot;, id: 32, branchId: 0, recurseId: &#45;1, attributes: 0, notes: &quot;&quot; -->
<g id="node1" class="node">
<title>32</title>
<ellipse fill="none" stroke="black" cx="82.54" cy="-18" rx="82.59" ry="18"/>
<text text-anchor="middle" x="82.54" y="-14.3" font-family="Times New Roman,serif" font-size="14.00">std::optional&lt;bool&gt;</text>
</g>
<!-- 33 -->
<!-- name: &quot;Has Value&quot;, typeName: &quot;&quot;, id: 33, branchId: 0, recurseId: &#45;1, attributes: 0, notes: &quot;If true, follow with appropriate data type, otherwise nothing&quot; -->
<g id="node2" class="node">
<title>33</title>
<ellipse fill="none" stroke="black" cx="249.18" cy="-18" rx="48.19" ry="18"/>
<text text-anchor="middle" x="249.18" y="-14.3" font-family="Times New Roman,serif" font-size="14.00">Has Value</text>
</g>
<!-- 32&#45;&gt;33 -->
<g id="edge1" class="edge">
<title>32&#45;&gt;33</title>
<path fill="none" stroke="black" d="M165.38,-18C173.89,-18 182.41,-18 190.57,-18"/>
<polygon fill="black" stroke="black" points="190.69,-21.5 200.69,-18 190.69,-14.5 190.69,-21.5"/>
</g>
<!-- 34 -->
<!-- name: &quot;bool&quot;, typeName: &quot;&quot;, id: 34, branchId: 0, recurseId: &#45;1, attributes: 512, notes: &quot;&quot; -->
<g id="node3" class="node">
<title>34</title>
<ellipse fill="none" stroke="black" cx="360.57" cy="-18" rx="27.1" ry="18"/>
<text text-anchor="middle" x="360.57" y="-14.3" font-family="Times New Roman,serif" font-size="14.00">bool</text>
</g>
<!-- 33&#45;&gt;34 -->
<g id="edge2" class="edge">
<title>33&#45;&gt;34</title>
<path fill="none" stroke="black" d="M297.53,-18C306.13,-18 314.99,-18 323.22,-18"/>
<polygon fill="black" stroke="black" points="323.24,-21.5 333.24,-18 323.24,-14.5 323.24,-21.5"/>
</g>
</g>
</svg>
