<?xml version="1.0" encoding="UTF-8" standalone="no"?>
<!DOCTYPE svg PUBLIC "-//W3C//DTD SVG 1.1//EN"
 "http://www.w3.org/Graphics/SVG/1.1/DTD/svg11.dtd">
<!-- Generated by graphviz version 12.2.1 (20241206.2353)
 -->
<!-- Title: std::optional&lt;struct CameraInstruction::SetInstruction::EntityOffsetOption&gt; Pages: 1 -->
<svg width="1190pt" height="98pt"
 viewBox="0.00 0.00 1189.60 98.00" xmlns="http://www.w3.org/2000/svg" xmlns:xlink="http://www.w3.org/1999/xlink">
<g id="graph0" class="graph" transform="scale(1 1) rotate(0) translate(4 94)">
<title>std::optional&lt;struct CameraInstruction::SetInstruction::EntityOffsetOption&gt;</title>
<polygon fill="white" stroke="none" points="-4,4 -4,-94 1185.6,-94 1185.6,4 -4,4"/>
<!-- 68 -->
<!-- name: &quot;std::optional&lt;struct CameraInstruction::SetInstruction::EntityOffsetOption&gt;&quot;, typeName: &quot;&quot;, id: 68, branchId: 0, recurseId: &#45;1, attributes: 0, notes: &quot;&quot; -->
<g id="node1" class="node">
<title>68</title>
<ellipse fill="none" stroke="black" cx="293.44" cy="-45" rx="293.44" ry="18"/>
<text text-anchor="middle" x="293.44" y="-39.95" font-family="Times New Roman,serif" font-size="14.00">std::optional&lt;struct CameraInstruction::SetInstruction::EntityOffsetOption&gt;</text>
</g>
<!-- 69 -->
<!-- name: &quot;Has Value&quot;, typeName: &quot;&quot;, id: 69, branchId: 0, recurseId: &#45;1, attributes: 0, notes: &quot;If true, follow with appropriate data type, otherwise nothing&quot; -->
<g id="node2" class="node">
<title>69</title>
<ellipse fill="none" stroke="black" cx="671.15" cy="-72" rx="48.28" ry="18"/>
<text text-anchor="middle" x="671.15" y="-66.95" font-family="Times New Roman,serif" font-size="14.00">Has Value</text>
</g>
<!-- 68&#45;&gt;69 -->
<g id="edge1" class="edge">
<title>68&#45;&gt;69</title>
<path fill="none" stroke="black" d="M487.52,-58.88C533.13,-62.15 578.32,-65.4 612.34,-67.85"/>
<polygon fill="black" stroke="black" points="611.7,-71.31 621.92,-68.53 612.2,-64.33 611.7,-71.31"/>
</g>
<!-- 71 -->
<!-- name: &quot;Value&quot;, typeName: &quot;CameraInstruction::SetInstruction::EntityOffsetOption&quot;, id: 71, branchId: 0, recurseId: &#45;1, attributes: 256, notes: &quot;&quot; -->
<g id="node4" class="node">
<title>71</title>
<ellipse fill="none" stroke="black" cx="671.15" cy="-18" rx="31.9" ry="18"/>
<text text-anchor="middle" x="671.15" y="-12.95" font-family="Times New Roman,serif" font-size="14.00">Value</text>
</g>
<!-- 68&#45;&gt;71 -->
<g id="edge3" class="edge">
<title>68&#45;&gt;71</title>
<path fill="none" stroke="black" d="M487.52,-31.12C540.56,-27.31 593.05,-23.54 628.05,-21.03"/>
<polygon fill="black" stroke="black" points="627.99,-24.54 637.71,-20.33 627.49,-17.56 627.99,-24.54"/>
</g>
<!-- 70 -->
<!-- name: &quot;bool&quot;, typeName: &quot;&quot;, id: 70, branchId: 0, recurseId: &#45;1, attributes: 512, notes: &quot;&quot; -->
<g id="node3" class="node">
<title>70</title>
<ellipse fill="none" stroke="black" cx="968.52" cy="-72" rx="27.3" ry="18"/>
<text text-anchor="middle" x="968.52" y="-66.95" font-family="Times New Roman,serif" font-size="14.00">bool</text>
</g>
<!-- 69&#45;&gt;70 -->
<g id="edge2" class="edge">
<title>69&#45;&gt;70</title>
<path fill="none" stroke="black" d="M719.61,-72C777.98,-72 875.89,-72 929.54,-72"/>
<polygon fill="black" stroke="black" points="929.4,-75.5 939.4,-72 929.4,-68.5 929.4,-75.5"/>
</g>
<!-- 82 -->
<!-- name: &quot;CameraInstruction::SetInstruction::EntityOffsetOption&quot;, typeName: &quot;&quot;, id: 82, branchId: 0, recurseId: &#45;1, attributes: 512, notes: &quot;&quot; -->
<g id="node5" class="node">
<title>82</title>
<ellipse fill="none" stroke="black" cx="968.52" cy="-18" rx="213.08" ry="18"/>
<text text-anchor="middle" x="968.52" y="-12.95" font-family="Times New Roman,serif" font-size="14.00">CameraInstruction::SetInstruction::EntityOffsetOption</text>
</g>
<!-- 71&#45;&gt;82 -->
<g id="edge4" class="edge">
<title>71&#45;&gt;82</title>
<path fill="none" stroke="black" d="M703.48,-18C714.77,-18 728.53,-18 743.78,-18"/>
<polygon fill="black" stroke="black" points="743.62,-21.5 753.62,-18 743.62,-14.5 743.62,-21.5"/>
</g>
</g>
</svg>
