<?xml version="1.0" encoding="UTF-8" standalone="no"?>
<!DOCTYPE svg PUBLIC "-//W3C//DTD SVG 1.1//EN"
 "http://www.w3.org/Graphics/SVG/1.1/DTD/svg11.dtd">
<!-- Generated by graphviz version 12.2.0 (20241103.1931)
 -->
<!-- Title: std::optional&lt;class Json::Value&gt; Pages: 1 -->
<svg width="494pt" height="44pt"
 viewBox="0.00 0.00 493.54 44.00" xmlns="http://www.w3.org/2000/svg" xmlns:xlink="http://www.w3.org/1999/xlink">
<g id="graph0" class="graph" transform="scale(1 1) rotate(0) translate(4 40)">
<title>std::optional&lt;class Json::Value&gt;</title>
<polygon fill="white" stroke="none" points="-4,4 -4,-40 489.54,-40 489.54,4 -4,4"/>
<!-- 4 -->
<!-- name: &quot;std::optional&lt;class Json::Value&gt;&quot;, typeName: &quot;&quot;, id: 4, branchId: 0, recurseId: &#45;1, attributes: 0, notes: &quot;&quot; -->
<g id="node1" class="node">
<title>4</title>
<ellipse fill="none" stroke="black" cx="131.19" cy="-18" rx="131.19" ry="18"/>
<text text-anchor="middle" x="131.19" y="-12.95" font-family="Times New Roman,serif" font-size="14.00">std::optional&lt;class Json::Value&gt;</text>
</g>
<!-- 5 -->
<!-- name: &quot;Has Value&quot;, typeName: &quot;&quot;, id: 5, branchId: 0, recurseId: &#45;1, attributes: 0, notes: &quot;If true, follow with appropriate data type, otherwise nothing&quot; -->
<g id="node2" class="node">
<title>5</title>
<ellipse fill="none" stroke="black" cx="346.67" cy="-18" rx="48.28" ry="18"/>
<text text-anchor="middle" x="346.67" y="-12.95" font-family="Times New Roman,serif" font-size="14.00">Has Value</text>
</g>
<!-- 4&#45;&gt;5 -->
<g id="edge1" class="edge">
<title>4&#45;&gt;5</title>
<path fill="none" stroke="black" d="M262.83,-18C271.1,-18 279.18,-18 286.84,-18"/>
<polygon fill="black" stroke="black" points="286.6,-21.5 296.6,-18 286.6,-14.5 286.6,-21.5"/>
</g>
<!-- 6 -->
<!-- name: &quot;bool&quot;, typeName: &quot;&quot;, id: 6, branchId: 0, recurseId: &#45;1, attributes: 512, notes: &quot;&quot; -->
<g id="node3" class="node">
<title>6</title>
<ellipse fill="none" stroke="black" cx="458.24" cy="-18" rx="27.3" ry="18"/>
<text text-anchor="middle" x="458.24" y="-12.95" font-family="Times New Roman,serif" font-size="14.00">bool</text>
</g>
<!-- 5&#45;&gt;6 -->
<g id="edge2" class="edge">
<title>5&#45;&gt;6</title>
<path fill="none" stroke="black" d="M395.41,-18C403.45,-18 411.7,-18 419.45,-18"/>
<polygon fill="black" stroke="black" points="419.21,-21.5 429.21,-18 419.21,-14.5 419.21,-21.5"/>
</g>
</g>
</svg>
