<?xml version="1.0" encoding="UTF-8" standalone="no"?>
<!DOCTYPE svg PUBLIC "-//W3C//DTD SVG 1.1//EN"
 "http://www.w3.org/Graphics/SVG/1.1/DTD/svg11.dtd">
<!-- Generated by graphviz version 12.2.1 (20241206.2353)
 -->
<!-- Title: std::optional&lt;struct BiomeSurfaceMaterialData&gt; Pages: 1 -->
<svg width="790pt" height="98pt"
 viewBox="0.00 0.00 790.39 98.00" xmlns="http://www.w3.org/2000/svg" xmlns:xlink="http://www.w3.org/1999/xlink">
<g id="graph0" class="graph" transform="scale(1 1) rotate(0) translate(4 94)">
<title>std::optional&lt;struct BiomeSurfaceMaterialData&gt;</title>
<polygon fill="white" stroke="none" points="-4,4 -4,-94 786.39,-94 786.39,4 -4,4"/>
<!-- 212 -->
<!-- name: &quot;std::optional&lt;struct BiomeSurfaceMaterialData&gt;&quot;, typeName: &quot;&quot;, id: 212, branchId: 0, recurseId: &#45;1, attributes: 0, notes: &quot;&quot; -->
<g id="node1" class="node">
<title>212</title>
<ellipse fill="none" stroke="black" cx="193.63" cy="-45" rx="193.63" ry="18"/>
<text text-anchor="middle" x="193.63" y="-39.95" font-family="Times New Roman,serif" font-size="14.00">std::optional&lt;struct BiomeSurfaceMaterialData&gt;</text>
</g>
<!-- 213 -->
<!-- name: &quot;Has Value&quot;, typeName: &quot;&quot;, id: 213, branchId: 0, recurseId: &#45;1, attributes: 0, notes: &quot;If true, follow with appropriate data type, otherwise nothing&quot; -->
<g id="node2" class="node">
<title>213</title>
<ellipse fill="none" stroke="black" cx="471.55" cy="-72" rx="48.28" ry="18"/>
<text text-anchor="middle" x="471.55" y="-66.95" font-family="Times New Roman,serif" font-size="14.00">Has Value</text>
</g>
<!-- 212&#45;&gt;213 -->
<g id="edge1" class="edge">
<title>212&#45;&gt;213</title>
<path fill="none" stroke="black" d="M329.36,-58.18C358.88,-61.07 388.6,-63.98 413.11,-66.38"/>
<polygon fill="black" stroke="black" points="412.54,-69.84 422.83,-67.33 413.22,-62.87 412.54,-69.84"/>
</g>
<!-- 215 -->
<!-- name: &quot;Value&quot;, typeName: &quot;BiomeSurfaceMaterialData&quot;, id: 215, branchId: 0, recurseId: &#45;1, attributes: 256, notes: &quot;&quot; -->
<g id="node4" class="node">
<title>215</title>
<ellipse fill="none" stroke="black" cx="471.55" cy="-18" rx="31.9" ry="18"/>
<text text-anchor="middle" x="471.55" y="-12.95" font-family="Times New Roman,serif" font-size="14.00">Value</text>
</g>
<!-- 212&#45;&gt;215 -->
<g id="edge3" class="edge">
<title>212&#45;&gt;215</title>
<path fill="none" stroke="black" d="M329.36,-31.82C365.35,-28.29 401.63,-24.74 428.4,-22.12"/>
<polygon fill="black" stroke="black" points="428.51,-25.63 438.12,-21.17 427.83,-18.66 428.51,-25.63"/>
</g>
<!-- 214 -->
<!-- name: &quot;bool&quot;, typeName: &quot;&quot;, id: 214, branchId: 0, recurseId: &#45;1, attributes: 512, notes: &quot;&quot; -->
<g id="node3" class="node">
<title>214</title>
<ellipse fill="none" stroke="black" cx="669.11" cy="-72" rx="27.3" ry="18"/>
<text text-anchor="middle" x="669.11" y="-66.95" font-family="Times New Roman,serif" font-size="14.00">bool</text>
</g>
<!-- 213&#45;&gt;214 -->
<g id="edge2" class="edge">
<title>213&#45;&gt;214</title>
<path fill="none" stroke="black" d="M520.14,-72C553.92,-72 598.68,-72 630.09,-72"/>
<polygon fill="black" stroke="black" points="629.91,-75.5 639.91,-72 629.91,-68.5 629.91,-75.5"/>
</g>
<!-- 216 -->
<!-- name: &quot;BiomeSurfaceMaterialData&quot;, typeName: &quot;&quot;, id: 216, branchId: 0, recurseId: &#45;1, attributes: 512, notes: &quot;&quot; -->
<g id="node5" class="node">
<title>216</title>
<ellipse fill="none" stroke="black" cx="669.11" cy="-18" rx="113.28" ry="18"/>
<text text-anchor="middle" x="669.11" y="-12.95" font-family="Times New Roman,serif" font-size="14.00">BiomeSurfaceMaterialData</text>
</g>
<!-- 215&#45;&gt;216 -->
<g id="edge4" class="edge">
<title>215&#45;&gt;216</title>
<path fill="none" stroke="black" d="M503.54,-18C515.12,-18 529.11,-18 543.97,-18"/>
<polygon fill="black" stroke="black" points="543.96,-21.5 553.96,-18 543.96,-14.5 543.96,-21.5"/>
</g>
</g>
</svg>
