<?xml version="1.0" encoding="UTF-8" standalone="no"?>
<!DOCTYPE svg PUBLIC "-//W3C//DTD SVG 1.1//EN"
 "http://www.w3.org/Graphics/SVG/1.1/DTD/svg11.dtd">
<!-- Generated by graphviz version 2.46.1 (20210213.1702)
 -->
<!-- Title: std::optional&lt;enum ModalFormCancelReason&gt; Pages: 1 -->
<svg width="597pt" height="44pt"
 viewBox="0.00 0.00 597.35 44.00" xmlns="http://www.w3.org/2000/svg" xmlns:xlink="http://www.w3.org/1999/xlink">
<g id="graph0" class="graph" transform="scale(1 1) rotate(0) translate(4 40)">
<title>std::optional&lt;enum ModalFormCancelReason&gt;</title>
<polygon fill="white" stroke="transparent" points="-4,4 -4,-40 593.35,-40 593.35,4 -4,4"/>
<!-- 9 -->
<!-- name: &quot;std::optional&lt;enum ModalFormCancelReason&gt;&quot;, typeName: &quot;&quot;, id: 9, branchId: 0, recurseId: &#45;1, attributes: 0, notes: &quot;&quot; -->
<g id="node1" class="node">
<title>9</title>
<ellipse fill="none" stroke="black" cx="183.28" cy="-18" rx="183.07" ry="18"/>
<text text-anchor="middle" x="183.28" y="-14.3" font-family="Times New Roman,serif" font-size="14.00">std::optional&lt;enum ModalFormCancelReason&gt;</text>
</g>
<!-- 10 -->
<!-- name: &quot;Has Value&quot;, typeName: &quot;&quot;, id: 10, branchId: 0, recurseId: &#45;1, attributes: 0, notes: &quot;If true, follow with appropriate data type, otherwise nothing&quot; -->
<g id="node2" class="node">
<title>10</title>
<ellipse fill="none" stroke="black" cx="450.66" cy="-18" rx="48.19" ry="18"/>
<text text-anchor="middle" x="450.66" y="-14.3" font-family="Times New Roman,serif" font-size="14.00">Has Value</text>
</g>
<!-- 9&#45;&gt;10 -->
<g id="edge1" class="edge">
<title>9&#45;&gt;10</title>
<path fill="none" stroke="black" d="M366.79,-18C375.68,-18 384.23,-18 392.23,-18"/>
<polygon fill="black" stroke="black" points="392.42,-21.5 402.42,-18 392.42,-14.5 392.42,-21.5"/>
</g>
<!-- 11 -->
<!-- name: &quot;bool&quot;, typeName: &quot;&quot;, id: 11, branchId: 0, recurseId: &#45;1, attributes: 512, notes: &quot;&quot; -->
<g id="node3" class="node">
<title>11</title>
<ellipse fill="none" stroke="black" cx="562.06" cy="-18" rx="27.1" ry="18"/>
<text text-anchor="middle" x="562.06" y="-14.3" font-family="Times New Roman,serif" font-size="14.00">bool</text>
</g>
<!-- 10&#45;&gt;11 -->
<g id="edge2" class="edge">
<title>10&#45;&gt;11</title>
<path fill="none" stroke="black" d="M499.01,-18C507.62,-18 516.47,-18 524.7,-18"/>
<polygon fill="black" stroke="black" points="524.72,-21.5 534.72,-18 524.72,-14.5 524.72,-21.5"/>
</g>
</g>
</svg>
