<?xml version="1.0" encoding="UTF-8" standalone="no"?>
<!DOCTYPE svg PUBLIC "-//W3C//DTD SVG 1.1//EN"
 "http://www.w3.org/Graphics/SVG/1.1/DTD/svg11.dtd">
<!-- Generated by graphviz version 11.0.0 (20240428.1522)
 -->
<!-- Title: std::optional&lt;enum CameraAimAssist::TargetMode&gt; Pages: 1 -->
<svg width="844pt" height="98pt"
 viewBox="0.00 0.00 844.46 98.00" xmlns="http://www.w3.org/2000/svg" xmlns:xlink="http://www.w3.org/1999/xlink">
<g id="graph0" class="graph" transform="scale(1 1) rotate(0) translate(4 94)">
<title>std::optional&lt;enum CameraAimAssist::TargetMode&gt;</title>
<polygon fill="white" stroke="none" points="-4,4 -4,-94 840.46,-94 840.46,4 -4,4"/>
<!-- 80 -->
<!-- name: &quot;std::optional&lt;enum CameraAimAssist::TargetMode&gt;&quot;, typeName: &quot;&quot;, id: 80, branchId: 0, recurseId: &#45;1, attributes: 0, notes: &quot;&quot; -->
<g id="node1" class="node">
<title>80</title>
<ellipse fill="none" stroke="black" cx="206.25" cy="-45" rx="206.25" ry="18"/>
<text text-anchor="middle" x="206.25" y="-39.58" font-family="Times New Roman,serif" font-size="14.00">std::optional&lt;enum CameraAimAssist::TargetMode&gt;</text>
</g>
<!-- 81 -->
<!-- name: &quot;Has Value&quot;, typeName: &quot;&quot;, id: 81, branchId: 0, recurseId: &#45;1, attributes: 0, notes: &quot;If true, follow with appropriate data type, otherwise nothing&quot; -->
<g id="node2" class="node">
<title>81</title>
<ellipse fill="none" stroke="black" cx="497.07" cy="-72" rx="48.57" ry="18"/>
<text text-anchor="middle" x="497.07" y="-66.58" font-family="Times New Roman,serif" font-size="14.00">Has Value</text>
</g>
<!-- 80&#45;&gt;81 -->
<g id="edge1" class="edge">
<title>80&#45;&gt;81</title>
<path fill="none" stroke="black" d="M349.55,-58.3C380.91,-61.23 412.41,-64.18 438.12,-66.58"/>
<polygon fill="black" stroke="black" points="437.71,-70.06 447.99,-67.51 438.36,-63.09 437.71,-70.06"/>
</g>
<!-- 83 -->
<!-- name: &quot;Value&quot;, typeName: &quot;CameraAimAssist::TargetMode&quot;, id: 83, branchId: 0, recurseId: &#45;1, attributes: 256, notes: &quot;&quot; -->
<g id="node4" class="node">
<title>83</title>
<ellipse fill="none" stroke="black" cx="497.07" cy="-18" rx="31.6" ry="18"/>
<text text-anchor="middle" x="497.07" y="-12.57" font-family="Times New Roman,serif" font-size="14.00">Value</text>
</g>
<!-- 80&#45;&gt;83 -->
<g id="edge3" class="edge">
<title>80&#45;&gt;83</title>
<path fill="none" stroke="black" d="M349.55,-31.7C387.8,-28.12 426.24,-24.53 454.15,-21.92"/>
<polygon fill="black" stroke="black" points="454.3,-25.42 463.93,-21 453.65,-18.45 454.3,-25.42"/>
</g>
<!-- 82 -->
<!-- name: &quot;bool&quot;, typeName: &quot;&quot;, id: 82, branchId: 0, recurseId: &#45;1, attributes: 512, notes: &quot;&quot; -->
<g id="node3" class="node">
<title>82</title>
<ellipse fill="none" stroke="black" cx="709.05" cy="-72" rx="27.61" ry="18"/>
<text text-anchor="middle" x="709.05" y="-66.58" font-family="Times New Roman,serif" font-size="14.00">bool</text>
</g>
<!-- 81&#45;&gt;82 -->
<g id="edge2" class="edge">
<title>81&#45;&gt;82</title>
<path fill="none" stroke="black" d="M545.98,-72C583.61,-72 635.29,-72 670.09,-72"/>
<polygon fill="black" stroke="black" points="669.68,-75.5 679.68,-72 669.68,-68.5 669.68,-75.5"/>
</g>
<!-- 87 -->
<!-- name: &quot;CameraAimAssist::TargetMode&quot;, typeName: &quot;&quot;, id: 87, branchId: 0, recurseId: &#45;1, attributes: 512, notes: &quot;&quot; -->
<g id="node5" class="node">
<title>87</title>
<ellipse fill="none" stroke="black" cx="709.05" cy="-18" rx="127.41" ry="18"/>
<text text-anchor="middle" x="709.05" y="-12.57" font-family="Times New Roman,serif" font-size="14.00">CameraAimAssist::TargetMode</text>
</g>
<!-- 83&#45;&gt;87 -->
<g id="edge4" class="edge">
<title>83&#45;&gt;87</title>
<path fill="none" stroke="black" d="M529.06,-18C540.71,-18 554.85,-18 570.01,-18"/>
<polygon fill="black" stroke="black" points="569.69,-21.5 579.69,-18 569.69,-14.5 569.69,-21.5"/>
</g>
</g>
</svg>
