<?xml version="1.0" encoding="UTF-8" standalone="no"?>
<!DOCTYPE svg PUBLIC "-//W3C//DTD SVG 1.1//EN"
 "http://www.w3.org/Graphics/SVG/1.1/DTD/svg11.dtd">
<!-- Generated by graphviz version 12.2.1 (20241206.2353)
 -->
<!-- Title: std::optional&lt;struct BiomeLegacyWorldGenRulesData&gt; Pages: 1 -->
<svg width="897pt" height="98pt"
 viewBox="0.00 0.00 896.85 98.00" xmlns="http://www.w3.org/2000/svg" xmlns:xlink="http://www.w3.org/1999/xlink">
<g id="graph0" class="graph" transform="scale(1 1) rotate(0) translate(4 94)">
<title>std::optional&lt;struct BiomeLegacyWorldGenRulesData&gt;</title>
<polygon fill="white" stroke="none" points="-4,4 -4,-94 892.85,-94 892.85,4 -4,4"/>
<!-- 356 -->
<!-- name: &quot;std::optional&lt;struct BiomeLegacyWorldGenRulesData&gt;&quot;, typeName: &quot;&quot;, id: 356, branchId: 0, recurseId: &#45;1, attributes: 0, notes: &quot;&quot; -->
<g id="node1" class="node">
<title>356</title>
<ellipse fill="none" stroke="black" cx="220.25" cy="-45" rx="220.25" ry="18"/>
<text text-anchor="middle" x="220.25" y="-39.95" font-family="Times New Roman,serif" font-size="14.00">std::optional&lt;struct BiomeLegacyWorldGenRulesData&gt;</text>
</g>
<!-- 357 -->
<!-- name: &quot;Has Value&quot;, typeName: &quot;&quot;, id: 357, branchId: 0, recurseId: &#45;1, attributes: 0, notes: &quot;If true, follow with appropriate data type, otherwise nothing&quot; -->
<g id="node2" class="node">
<title>357</title>
<ellipse fill="none" stroke="black" cx="524.78" cy="-72" rx="48.28" ry="18"/>
<text text-anchor="middle" x="524.78" y="-66.95" font-family="Times New Roman,serif" font-size="14.00">Has Value</text>
</g>
<!-- 356&#45;&gt;357 -->
<g id="edge1" class="edge">
<title>356&#45;&gt;357</title>
<path fill="none" stroke="black" d="M371.63,-58.42C405.36,-61.43 439.16,-64.45 466.3,-66.87"/>
<polygon fill="black" stroke="black" points="465.73,-70.33 476,-67.74 466.35,-63.36 465.73,-70.33"/>
</g>
<!-- 359 -->
<!-- name: &quot;Value&quot;, typeName: &quot;BiomeLegacyWorldGenRulesData&quot;, id: 359, branchId: 0, recurseId: &#45;1, attributes: 256, notes: &quot;&quot; -->
<g id="node4" class="node">
<title>359</title>
<ellipse fill="none" stroke="black" cx="524.78" cy="-18" rx="31.9" ry="18"/>
<text text-anchor="middle" x="524.78" y="-12.95" font-family="Times New Roman,serif" font-size="14.00">Value</text>
</g>
<!-- 356&#45;&gt;359 -->
<g id="edge3" class="edge">
<title>356&#45;&gt;359</title>
<path fill="none" stroke="black" d="M371.63,-31.58C412.03,-27.97 452.52,-24.36 481.56,-21.77"/>
<polygon fill="black" stroke="black" points="481.73,-25.27 491.37,-20.89 481.1,-18.29 481.73,-25.27"/>
</g>
<!-- 358 -->
<!-- name: &quot;bool&quot;, typeName: &quot;&quot;, id: 358, branchId: 0, recurseId: &#45;1, attributes: 512, notes: &quot;&quot; -->
<g id="node3" class="node">
<title>358</title>
<ellipse fill="none" stroke="black" cx="748.95" cy="-72" rx="27.3" ry="18"/>
<text text-anchor="middle" x="748.95" y="-66.95" font-family="Times New Roman,serif" font-size="14.00">bool</text>
</g>
<!-- 357&#45;&gt;358 -->
<g id="edge2" class="edge">
<title>357&#45;&gt;358</title>
<path fill="none" stroke="black" d="M573.44,-72C614.17,-72 672,-72 709.75,-72"/>
<polygon fill="black" stroke="black" points="709.73,-75.5 719.73,-72 709.73,-68.5 709.73,-75.5"/>
</g>
<!-- 367 -->
<!-- name: &quot;BiomeLegacyWorldGenRulesData&quot;, typeName: &quot;&quot;, id: 367, branchId: 0, recurseId: &#45;1, attributes: 512, notes: &quot;&quot; -->
<g id="node5" class="node">
<title>367</title>
<ellipse fill="none" stroke="black" cx="748.95" cy="-18" rx="139.89" ry="18"/>
<text text-anchor="middle" x="748.95" y="-12.95" font-family="Times New Roman,serif" font-size="14.00">BiomeLegacyWorldGenRulesData</text>
</g>
<!-- 359&#45;&gt;367 -->
<g id="edge4" class="edge">
<title>359&#45;&gt;367</title>
<path fill="none" stroke="black" d="M557.14,-18C568.69,-18 582.67,-18 597.75,-18"/>
<polygon fill="black" stroke="black" points="597.4,-21.5 607.4,-18 597.4,-14.5 597.4,-21.5"/>
</g>
</g>
</svg>
