<?xml version="1.0" encoding="UTF-8" standalone="no"?>
<!DOCTYPE svg PUBLIC "-//W3C//DTD SVG 1.1//EN"
 "http://www.w3.org/Graphics/SVG/1.1/DTD/svg11.dtd">
<!-- Generated by graphviz version 12.2.1 (20241206.2353)
 -->
<!-- Title: std::optional&lt;struct CameraInstruction::TargetInstruction&gt; Pages: 1 -->
<svg width="932pt" height="98pt"
 viewBox="0.00 0.00 931.65 98.00" xmlns="http://www.w3.org/2000/svg" xmlns:xlink="http://www.w3.org/1999/xlink">
<g id="graph0" class="graph" transform="scale(1 1) rotate(0) translate(4 94)">
<title>std::optional&lt;struct CameraInstruction::TargetInstruction&gt;</title>
<polygon fill="white" stroke="none" points="-4,4 -4,-94 927.65,-94 927.65,4 -4,4"/>
<!-- 127 -->
<!-- name: &quot;std::optional&lt;struct CameraInstruction::TargetInstruction&gt;&quot;, typeName: &quot;&quot;, id: 127, branchId: 0, recurseId: &#45;1, attributes: 0, notes: &quot;&quot; -->
<g id="node1" class="node">
<title>127</title>
<ellipse fill="none" stroke="black" cx="228.95" cy="-45" rx="228.95" ry="18"/>
<text text-anchor="middle" x="228.95" y="-39.95" font-family="Times New Roman,serif" font-size="14.00">std::optional&lt;struct CameraInstruction::TargetInstruction&gt;</text>
</g>
<!-- 128 -->
<!-- name: &quot;Has Value&quot;, typeName: &quot;&quot;, id: 128, branchId: 0, recurseId: &#45;1, attributes: 0, notes: &quot;If true, follow with appropriate data type, otherwise nothing&quot; -->
<g id="node2" class="node">
<title>128</title>
<ellipse fill="none" stroke="black" cx="542.18" cy="-72" rx="48.28" ry="18"/>
<text text-anchor="middle" x="542.18" y="-66.95" font-family="Times New Roman,serif" font-size="14.00">Has Value</text>
</g>
<!-- 127&#45;&gt;128 -->
<g id="edge1" class="edge">
<title>127&#45;&gt;128</title>
<path fill="none" stroke="black" d="M385.56,-58.5C420.56,-61.54 455.55,-64.57 483.47,-66.99"/>
<polygon fill="black" stroke="black" points="482.81,-70.45 493.08,-67.83 483.42,-63.48 482.81,-70.45"/>
</g>
<!-- 130 -->
<!-- name: &quot;Value&quot;, typeName: &quot;CameraInstruction::TargetInstruction&quot;, id: 130, branchId: 0, recurseId: &#45;1, attributes: 256, notes: &quot;&quot; -->
<g id="node4" class="node">
<title>130</title>
<ellipse fill="none" stroke="black" cx="542.18" cy="-18" rx="31.9" ry="18"/>
<text text-anchor="middle" x="542.18" y="-12.95" font-family="Times New Roman,serif" font-size="14.00">Value</text>
</g>
<!-- 127&#45;&gt;130 -->
<g id="edge3" class="edge">
<title>127&#45;&gt;130</title>
<path fill="none" stroke="black" d="M385.56,-31.5C427.42,-27.87 469.28,-24.24 499.02,-21.66"/>
<polygon fill="black" stroke="black" points="499.03,-25.17 508.69,-20.82 498.43,-18.2 499.03,-25.17"/>
</g>
<!-- 129 -->
<!-- name: &quot;bool&quot;, typeName: &quot;&quot;, id: 129, branchId: 0, recurseId: &#45;1, attributes: 512, notes: &quot;&quot; -->
<g id="node3" class="node">
<title>129</title>
<ellipse fill="none" stroke="black" cx="775.05" cy="-72" rx="27.3" ry="18"/>
<text text-anchor="middle" x="775.05" y="-66.95" font-family="Times New Roman,serif" font-size="14.00">bool</text>
</g>
<!-- 128&#45;&gt;129 -->
<g id="edge2" class="edge">
<title>128&#45;&gt;129</title>
<path fill="none" stroke="black" d="M590.74,-72C633.77,-72 696.34,-72 736.11,-72"/>
<polygon fill="black" stroke="black" points="735.91,-75.5 745.91,-72 735.91,-68.5 735.91,-75.5"/>
</g>
<!-- 136 -->
<!-- name: &quot;CameraInstruction::TargetInstruction&quot;, typeName: &quot;&quot;, id: 136, branchId: 0, recurseId: &#45;1, attributes: 512, notes: &quot;&quot; -->
<g id="node5" class="node">
<title>136</title>
<ellipse fill="none" stroke="black" cx="775.05" cy="-18" rx="148.59" ry="18"/>
<text text-anchor="middle" x="775.05" y="-12.95" font-family="Times New Roman,serif" font-size="14.00">CameraInstruction::TargetInstruction</text>
</g>
<!-- 130&#45;&gt;136 -->
<g id="edge4" class="edge">
<title>130&#45;&gt;136</title>
<path fill="none" stroke="black" d="M574.32,-18C585.8,-18 599.74,-18 614.86,-18"/>
<polygon fill="black" stroke="black" points="614.54,-21.5 624.54,-18 614.54,-14.5 614.54,-21.5"/>
</g>
</g>
</svg>
