<?xml version="1.0" encoding="UTF-8" standalone="no"?>
<!DOCTYPE svg PUBLIC "-//W3C//DTD SVG 1.1//EN"
 "http://www.w3.org/Graphics/SVG/1.1/DTD/svg11.dtd">
<!-- Generated by graphviz version 12.2.1 (20241206.2353)
 -->
<!-- Title: std::optional&lt;struct CameraInstruction::SetInstruction::FacingOption&gt; Pages: 1 -->
<svg width="1108pt" height="98pt"
 viewBox="0.00 0.00 1107.71 98.00" xmlns="http://www.w3.org/2000/svg" xmlns:xlink="http://www.w3.org/1999/xlink">
<g id="graph0" class="graph" transform="scale(1 1) rotate(0) translate(4 94)">
<title>std::optional&lt;struct CameraInstruction::SetInstruction::FacingOption&gt;</title>
<polygon fill="white" stroke="none" points="-4,4 -4,-94 1103.71,-94 1103.71,4 -4,4"/>
<!-- 46 -->
<!-- name: &quot;std::optional&lt;struct CameraInstruction::SetInstruction::FacingOption&gt;&quot;, typeName: &quot;&quot;, id: 46, branchId: 0, recurseId: &#45;1, attributes: 0, notes: &quot;&quot; -->
<g id="node1" class="node">
<title>46</title>
<ellipse fill="none" stroke="black" cx="272.96" cy="-45" rx="272.96" ry="18"/>
<text text-anchor="middle" x="272.96" y="-39.95" font-family="Times New Roman,serif" font-size="14.00">std::optional&lt;struct CameraInstruction::SetInstruction::FacingOption&gt;</text>
</g>
<!-- 47 -->
<!-- name: &quot;Has Value&quot;, typeName: &quot;&quot;, id: 47, branchId: 0, recurseId: &#45;1, attributes: 0, notes: &quot;If true, follow with appropriate data type, otherwise nothing&quot; -->
<g id="node2" class="node">
<title>47</title>
<ellipse fill="none" stroke="black" cx="630.21" cy="-72" rx="48.28" ry="18"/>
<text text-anchor="middle" x="630.21" y="-66.95" font-family="Times New Roman,serif" font-size="14.00">Has Value</text>
</g>
<!-- 46&#45;&gt;47 -->
<g id="edge1" class="edge">
<title>46&#45;&gt;47</title>
<path fill="none" stroke="black" d="M455.23,-58.78C497.28,-61.97 539.05,-65.15 571.12,-67.59"/>
<polygon fill="black" stroke="black" points="570.74,-71.07 580.98,-68.33 571.27,-64.09 570.74,-71.07"/>
</g>
<!-- 49 -->
<!-- name: &quot;Value&quot;, typeName: &quot;CameraInstruction::SetInstruction::FacingOption&quot;, id: 49, branchId: 0, recurseId: &#45;1, attributes: 256, notes: &quot;&quot; -->
<g id="node4" class="node">
<title>49</title>
<ellipse fill="none" stroke="black" cx="630.21" cy="-18" rx="31.9" ry="18"/>
<text text-anchor="middle" x="630.21" y="-12.95" font-family="Times New Roman,serif" font-size="14.00">Value</text>
</g>
<!-- 46&#45;&gt;49 -->
<g id="edge3" class="edge">
<title>46&#45;&gt;49</title>
<path fill="none" stroke="black" d="M455.23,-31.22C504.65,-27.47 553.7,-23.74 587.06,-21.2"/>
<polygon fill="black" stroke="black" points="586.96,-24.72 596.67,-20.47 586.43,-17.74 586.96,-24.72"/>
</g>
<!-- 48 -->
<!-- name: &quot;bool&quot;, typeName: &quot;&quot;, id: 48, branchId: 0, recurseId: &#45;1, attributes: 512, notes: &quot;&quot; -->
<g id="node3" class="node">
<title>48</title>
<ellipse fill="none" stroke="black" cx="907.1" cy="-72" rx="27.3" ry="18"/>
<text text-anchor="middle" x="907.1" y="-66.95" font-family="Times New Roman,serif" font-size="14.00">bool</text>
</g>
<!-- 47&#45;&gt;48 -->
<g id="edge2" class="edge">
<title>47&#45;&gt;48</title>
<path fill="none" stroke="black" d="M678.78,-72C732.44,-72 818.65,-72 868.05,-72"/>
<polygon fill="black" stroke="black" points="867.96,-75.5 877.96,-72 867.96,-68.5 867.96,-75.5"/>
</g>
<!-- 53 -->
<!-- name: &quot;CameraInstruction::SetInstruction::FacingOption&quot;, typeName: &quot;&quot;, id: 53, branchId: 0, recurseId: &#45;1, attributes: 512, notes: &quot;&quot; -->
<g id="node5" class="node">
<title>53</title>
<ellipse fill="none" stroke="black" cx="907.1" cy="-18" rx="192.61" ry="18"/>
<text text-anchor="middle" x="907.1" y="-12.95" font-family="Times New Roman,serif" font-size="14.00">CameraInstruction::SetInstruction::FacingOption</text>
</g>
<!-- 49&#45;&gt;53 -->
<g id="edge4" class="edge">
<title>49&#45;&gt;53</title>
<path fill="none" stroke="black" d="M662.48,-18C673.8,-18 687.58,-18 702.77,-18"/>
<polygon fill="black" stroke="black" points="702.55,-21.5 712.55,-18 702.55,-14.5 702.55,-21.5"/>
</g>
</g>
</svg>
