<?xml version="1.0" encoding="UTF-8" standalone="no"?>
<!DOCTYPE svg PUBLIC "-//W3C//DTD SVG 1.1//EN"
 "http://www.w3.org/Graphics/SVG/1.1/DTD/svg11.dtd">
<!-- Generated by graphviz version 11.0.0 (20240428.1522)
 -->
<!-- Title: std::optional&lt;struct SharedTypes::v1_21_50::CameraPresetAimAssistDefinition&gt; Pages: 1 -->
<svg width="1260pt" height="98pt"
 viewBox="0.00 0.00 1259.63 98.00" xmlns="http://www.w3.org/2000/svg" xmlns:xlink="http://www.w3.org/1999/xlink">
<g id="graph0" class="graph" transform="scale(1 1) rotate(0) translate(4 94)">
<title>std::optional&lt;struct SharedTypes::v1_21_50::CameraPresetAimAssistDefinition&gt;</title>
<polygon fill="white" stroke="none" points="-4,4 -4,-94 1255.63,-94 1255.63,4 -4,4"/>
<!-- 72 -->
<!-- name: &quot;std::optional&lt;struct SharedTypes::v1_21_50::CameraPresetAimAssistDefinition&gt;&quot;, typeName: &quot;&quot;, id: 72, branchId: 0, recurseId: &#45;1, attributes: 0, notes: &quot;&quot; -->
<g id="node1" class="node">
<title>72</title>
<ellipse fill="none" stroke="black" cx="310.54" cy="-45" rx="310.54" ry="18"/>
<text text-anchor="middle" x="310.54" y="-39.58" font-family="Times New Roman,serif" font-size="14.00">std::optional&lt;struct SharedTypes::v1_21_50::CameraPresetAimAssistDefinition&gt;</text>
</g>
<!-- 73 -->
<!-- name: &quot;Has Value&quot;, typeName: &quot;&quot;, id: 73, branchId: 0, recurseId: &#45;1, attributes: 0, notes: &quot;If true, follow with appropriate data type, otherwise nothing&quot; -->
<g id="node2" class="node">
<title>73</title>
<ellipse fill="none" stroke="black" cx="705.65" cy="-72" rx="48.57" ry="18"/>
<text text-anchor="middle" x="705.65" y="-66.58" font-family="Times New Roman,serif" font-size="14.00">Has Value</text>
</g>
<!-- 72&#45;&gt;73 -->
<g id="edge1" class="edge">
<title>72&#45;&gt;73</title>
<path fill="none" stroke="black" d="M514.72,-58.95C563.12,-62.28 610.98,-65.57 646.55,-68.01"/>
<polygon fill="black" stroke="black" points="645.93,-71.47 656.14,-68.67 646.41,-64.49 645.93,-71.47"/>
</g>
<!-- 75 -->
<!-- name: &quot;Value&quot;, typeName: &quot;SharedTypes::v1_21_50::CameraPresetAimAssistDefinition&quot;, id: 75, branchId: 0, recurseId: &#45;1, attributes: 256, notes: &quot;&quot; -->
<g id="node4" class="node">
<title>75</title>
<ellipse fill="none" stroke="black" cx="705.65" cy="-18" rx="31.6" ry="18"/>
<text text-anchor="middle" x="705.65" y="-12.57" font-family="Times New Roman,serif" font-size="14.00">Value</text>
</g>
<!-- 72&#45;&gt;75 -->
<g id="edge3" class="edge">
<title>72&#45;&gt;75</title>
<path fill="none" stroke="black" d="M514.72,-31.05C570.9,-27.19 626.36,-23.38 662.71,-20.88"/>
<polygon fill="black" stroke="black" points="662.57,-24.4 672.31,-20.22 662.09,-17.41 662.57,-24.4"/>
</g>
<!-- 74 -->
<!-- name: &quot;bool&quot;, typeName: &quot;&quot;, id: 74, branchId: 0, recurseId: &#45;1, attributes: 512, notes: &quot;&quot; -->
<g id="node3" class="node">
<title>74</title>
<ellipse fill="none" stroke="black" cx="1020.92" cy="-72" rx="27.61" ry="18"/>
<text text-anchor="middle" x="1020.92" y="-66.58" font-family="Times New Roman,serif" font-size="14.00">bool</text>
</g>
<!-- 73&#45;&gt;74 -->
<g id="edge2" class="edge">
<title>73&#45;&gt;74</title>
<path fill="none" stroke="black" d="M754.57,-72C816.82,-72 924.27,-72 981.47,-72"/>
<polygon fill="black" stroke="black" points="981.37,-75.5 991.37,-72 981.37,-68.5 981.37,-75.5"/>
</g>
<!-- 93 -->
<!-- name: &quot;SharedTypes::v1_21_50::CameraPresetAimAssistDefinition&quot;, typeName: &quot;&quot;, id: 93, branchId: 0, recurseId: &#45;1, attributes: 512, notes: &quot;&quot; -->
<g id="node5" class="node">
<title>93</title>
<ellipse fill="none" stroke="black" cx="1020.92" cy="-18" rx="230.7" ry="18"/>
<text text-anchor="middle" x="1020.92" y="-12.57" font-family="Times New Roman,serif" font-size="14.00">SharedTypes::v1_21_50::CameraPresetAimAssistDefinition</text>
</g>
<!-- 75&#45;&gt;93 -->
<g id="edge4" class="edge">
<title>75&#45;&gt;93</title>
<path fill="none" stroke="black" d="M737.55,-18C749.02,-18 763.12,-18 778.83,-18"/>
<polygon fill="black" stroke="black" points="778.45,-21.5 788.45,-18 778.45,-14.5 778.45,-21.5"/>
</g>
</g>
</svg>
