<?xml version="1.0" encoding="UTF-8" standalone="no"?>
<!DOCTYPE svg PUBLIC "-//W3C//DTD SVG 1.1//EN"
 "http://www.w3.org/Graphics/SVG/1.1/DTD/svg11.dtd">
<!-- Generated by graphviz version 12.2.1 (20241206.2353)
 -->
<!-- Title: std::optional&lt;bool&gt; Pages: 1 -->
<svg width="400pt" height="44pt"
 viewBox="0.00 0.00 400.39 44.00" xmlns="http://www.w3.org/2000/svg" xmlns:xlink="http://www.w3.org/1999/xlink">
<g id="graph0" class="graph" transform="scale(1 1) rotate(0) translate(4 40)">
<title>std::optional&lt;bool&gt;</title>
<polygon fill="white" stroke="none" points="-4,4 -4,-40 396.39,-40 396.39,4 -4,4"/>
<!-- 29 -->
<!-- name: &quot;std::optional&lt;bool&gt;&quot;, typeName: &quot;&quot;, id: 29, branchId: 0, recurseId: &#45;1, attributes: 0, notes: &quot;&quot; -->
<g id="node1" class="node">
<title>29</title>
<ellipse fill="none" stroke="black" cx="84.62" cy="-18" rx="84.62" ry="18"/>
<text text-anchor="middle" x="84.62" y="-12.95" font-family="Times New Roman,serif" font-size="14.00">std::optional&lt;bool&gt;</text>
</g>
<!-- 30 -->
<!-- name: &quot;Has Value&quot;, typeName: &quot;&quot;, id: 30, branchId: 0, recurseId: &#45;1, attributes: 0, notes: &quot;If true, follow with appropriate data type, otherwise nothing&quot; -->
<g id="node2" class="node">
<title>30</title>
<ellipse fill="none" stroke="black" cx="253.52" cy="-18" rx="48.28" ry="18"/>
<text text-anchor="middle" x="253.52" y="-12.95" font-family="Times New Roman,serif" font-size="14.00">Has Value</text>
</g>
<!-- 29&#45;&gt;30 -->
<g id="edge1" class="edge">
<title>29&#45;&gt;30</title>
<path fill="none" stroke="black" d="M169.56,-18C177.74,-18 185.91,-18 193.77,-18"/>
<polygon fill="black" stroke="black" points="193.49,-21.5 203.49,-18 193.49,-14.5 193.49,-21.5"/>
</g>
<!-- 31 -->
<!-- name: &quot;bool&quot;, typeName: &quot;&quot;, id: 31, branchId: 0, recurseId: &#45;1, attributes: 512, notes: &quot;&quot; -->
<g id="node3" class="node">
<title>31</title>
<ellipse fill="none" stroke="black" cx="365.1" cy="-18" rx="27.3" ry="18"/>
<text text-anchor="middle" x="365.1" y="-12.95" font-family="Times New Roman,serif" font-size="14.00">bool</text>
</g>
<!-- 30&#45;&gt;31 -->
<g id="edge2" class="edge">
<title>30&#45;&gt;31</title>
<path fill="none" stroke="black" d="M302.26,-18C310.3,-18 318.55,-18 326.3,-18"/>
<polygon fill="black" stroke="black" points="326.06,-21.5 336.06,-18 326.06,-14.5 326.06,-21.5"/>
</g>
</g>
</svg>
