<?xml version="1.0" encoding="UTF-8" standalone="no"?>
<!DOCTYPE svg PUBLIC "-//W3C//DTD SVG 1.1//EN"
 "http://www.w3.org/Graphics/SVG/1.1/DTD/svg11.dtd">
<!-- Generated by graphviz version 12.2.1 (20241206.2353)
 -->
<!-- Title: std::optional&lt;unsigned short&gt; Pages: 1 -->
<svg width="480pt" height="98pt"
 viewBox="0.00 0.00 480.23 98.00" xmlns="http://www.w3.org/2000/svg" xmlns:xlink="http://www.w3.org/1999/xlink">
<g id="graph0" class="graph" transform="scale(1 1) rotate(0) translate(4 94)">
<title>std::optional&lt;unsigned short&gt;</title>
<polygon fill="white" stroke="none" points="-4,4 -4,-94 476.23,-94 476.23,4 -4,4"/>
<!-- 13 -->
<!-- name: &quot;std::optional&lt;unsigned short&gt;&quot;, typeName: &quot;&quot;, id: 13, branchId: 0, recurseId: &#45;1, attributes: 0, notes: &quot;&quot; -->
<g id="node1" class="node">
<title>13</title>
<ellipse fill="none" stroke="black" cx="122.49" cy="-45" rx="122.49" ry="18"/>
<text text-anchor="middle" x="122.49" y="-39.95" font-family="Times New Roman,serif" font-size="14.00">std::optional&lt;unsigned short&gt;</text>
</g>
<!-- 14 -->
<!-- name: &quot;Has Value&quot;, typeName: &quot;&quot;, id: 14, branchId: 0, recurseId: &#45;1, attributes: 0, notes: &quot;If true, follow with appropriate data type, otherwise nothing&quot; -->
<g id="node2" class="node">
<title>14</title>
<ellipse fill="none" stroke="black" cx="329.27" cy="-72" rx="48.28" ry="18"/>
<text text-anchor="middle" x="329.27" y="-66.95" font-family="Times New Roman,serif" font-size="14.00">Has Value</text>
</g>
<!-- 13&#45;&gt;14 -->
<g id="edge1" class="edge">
<title>13&#45;&gt;14</title>
<path fill="none" stroke="black" d="M215.4,-57.12C234.67,-59.66 254.45,-62.27 271.95,-64.58"/>
<polygon fill="black" stroke="black" points="271.23,-68.01 281.6,-65.85 272.14,-61.07 271.23,-68.01"/>
</g>
<!-- 16 -->
<!-- name: &quot;Value&quot;, typeName: &quot;short&quot;, id: 16, branchId: 0, recurseId: &#45;1, attributes: 256, notes: &quot;&quot; -->
<g id="node4" class="node">
<title>16</title>
<ellipse fill="none" stroke="black" cx="329.27" cy="-18" rx="31.9" ry="18"/>
<text text-anchor="middle" x="329.27" y="-12.95" font-family="Times New Roman,serif" font-size="14.00">Value</text>
</g>
<!-- 13&#45;&gt;16 -->
<g id="edge3" class="edge">
<title>13&#45;&gt;16</title>
<path fill="none" stroke="black" d="M215.4,-32.88C240.4,-29.59 266.24,-26.18 286.88,-23.46"/>
<polygon fill="black" stroke="black" points="287.12,-26.95 296.58,-22.18 286.21,-20.02 287.12,-26.95"/>
</g>
<!-- 15 -->
<!-- name: &quot;bool&quot;, typeName: &quot;&quot;, id: 15, branchId: 0, recurseId: &#45;1, attributes: 512, notes: &quot;&quot; -->
<g id="node3" class="node">
<title>15</title>
<ellipse fill="none" stroke="black" cx="442.89" cy="-72" rx="27.3" ry="18"/>
<text text-anchor="middle" x="442.89" y="-66.95" font-family="Times New Roman,serif" font-size="14.00">bool</text>
</g>
<!-- 14&#45;&gt;15 -->
<g id="edge2" class="edge">
<title>14&#45;&gt;15</title>
<path fill="none" stroke="black" d="M377.93,-72C386.63,-72 395.6,-72 403.97,-72"/>
<polygon fill="black" stroke="black" points="403.8,-75.5 413.8,-72 403.8,-68.5 403.8,-75.5"/>
</g>
<!-- 17 -->
<!-- name: &quot;short&quot;, typeName: &quot;&quot;, id: 17, branchId: 0, recurseId: &#45;1, attributes: 512, notes: &quot;&quot; -->
<g id="node5" class="node">
<title>17</title>
<ellipse fill="none" stroke="black" cx="442.89" cy="-18" rx="29.34" ry="18"/>
<text text-anchor="middle" x="442.89" y="-12.95" font-family="Times New Roman,serif" font-size="14.00">short</text>
</g>
<!-- 16&#45;&gt;17 -->
<g id="edge4" class="edge">
<title>16&#45;&gt;17</title>
<path fill="none" stroke="black" d="M361.66,-18C374.22,-18 388.85,-18 402.15,-18"/>
<polygon fill="black" stroke="black" points="401.89,-21.5 411.89,-18 401.89,-14.5 401.89,-21.5"/>
</g>
</g>
</svg>
