<?xml version="1.0" encoding="UTF-8" standalone="no"?>
<!DOCTYPE svg PUBLIC "-//W3C//DTD SVG 1.1//EN"
 "http://www.w3.org/Graphics/SVG/1.1/DTD/svg11.dtd">
<!-- Generated by graphviz version 12.2.1 (20241206.2353)
 -->
<!-- Title: std::optional&lt;struct CameraInstruction::FadeInstruction::TimeOption&gt; Pages: 1 -->
<svg width="1112pt" height="98pt"
 viewBox="0.00 0.00 1111.81 98.00" xmlns="http://www.w3.org/2000/svg" xmlns:xlink="http://www.w3.org/1999/xlink">
<g id="graph0" class="graph" transform="scale(1 1) rotate(0) translate(4 94)">
<title>std::optional&lt;struct CameraInstruction::FadeInstruction::TimeOption&gt;</title>
<polygon fill="white" stroke="none" points="-4,4 -4,-94 1107.81,-94 1107.81,4 -4,4"/>
<!-- 102 -->
<!-- name: &quot;std::optional&lt;struct CameraInstruction::FadeInstruction::TimeOption&gt;&quot;, typeName: &quot;&quot;, id: 102, branchId: 0, recurseId: &#45;1, attributes: 0, notes: &quot;&quot; -->
<g id="node1" class="node">
<title>102</title>
<ellipse fill="none" stroke="black" cx="273.99" cy="-45" rx="273.99" ry="18"/>
<text text-anchor="middle" x="273.99" y="-39.95" font-family="Times New Roman,serif" font-size="14.00">std::optional&lt;struct CameraInstruction::FadeInstruction::TimeOption&gt;</text>
</g>
<!-- 103 -->
<!-- name: &quot;Has Value&quot;, typeName: &quot;&quot;, id: 103, branchId: 0, recurseId: &#45;1, attributes: 0, notes: &quot;If true, follow with appropriate data type, otherwise nothing&quot; -->
<g id="node2" class="node">
<title>103</title>
<ellipse fill="none" stroke="black" cx="632.26" cy="-72" rx="48.28" ry="18"/>
<text text-anchor="middle" x="632.26" y="-66.95" font-family="Times New Roman,serif" font-size="14.00">Has Value</text>
</g>
<!-- 102&#45;&gt;103 -->
<g id="edge1" class="edge">
<title>102&#45;&gt;103</title>
<path fill="none" stroke="black" d="M456.78,-58.78C498.94,-61.97 540.84,-65.15 573,-67.59"/>
<polygon fill="black" stroke="black" points="572.65,-71.07 582.89,-68.33 573.18,-64.09 572.65,-71.07"/>
</g>
<!-- 105 -->
<!-- name: &quot;Value&quot;, typeName: &quot;CameraInstruction::FadeInstruction::TimeOption&quot;, id: 105, branchId: 0, recurseId: &#45;1, attributes: 256, notes: &quot;&quot; -->
<g id="node4" class="node">
<title>105</title>
<ellipse fill="none" stroke="black" cx="632.26" cy="-18" rx="31.9" ry="18"/>
<text text-anchor="middle" x="632.26" y="-12.95" font-family="Times New Roman,serif" font-size="14.00">Value</text>
</g>
<!-- 102&#45;&gt;105 -->
<g id="edge3" class="edge">
<title>102&#45;&gt;105</title>
<path fill="none" stroke="black" d="M456.78,-31.22C506.34,-27.47 555.53,-23.74 588.98,-21.2"/>
<polygon fill="black" stroke="black" points="588.92,-24.72 598.62,-20.47 588.39,-17.74 588.92,-24.72"/>
</g>
<!-- 104 -->
<!-- name: &quot;bool&quot;, typeName: &quot;&quot;, id: 104, branchId: 0, recurseId: &#45;1, attributes: 512, notes: &quot;&quot; -->
<g id="node3" class="node">
<title>104</title>
<ellipse fill="none" stroke="black" cx="910.17" cy="-72" rx="27.3" ry="18"/>
<text text-anchor="middle" x="910.17" y="-66.95" font-family="Times New Roman,serif" font-size="14.00">bool</text>
</g>
<!-- 103&#45;&gt;104 -->
<g id="edge2" class="edge">
<title>103&#45;&gt;104</title>
<path fill="none" stroke="black" d="M681,-72C734.86,-72 821.39,-72 870.97,-72"/>
<polygon fill="black" stroke="black" points="870.93,-75.5 880.93,-72 870.93,-68.5 870.93,-75.5"/>
</g>
<!-- 113 -->
<!-- name: &quot;CameraInstruction::FadeInstruction::TimeOption&quot;, typeName: &quot;&quot;, id: 113, branchId: 0, recurseId: &#45;1, attributes: 512, notes: &quot;&quot; -->
<g id="node5" class="node">
<title>113</title>
<ellipse fill="none" stroke="black" cx="910.17" cy="-18" rx="193.63" ry="18"/>
<text text-anchor="middle" x="910.17" y="-12.95" font-family="Times New Roman,serif" font-size="14.00">CameraInstruction::FadeInstruction::TimeOption</text>
</g>
<!-- 105&#45;&gt;113 -->
<g id="edge4" class="edge">
<title>105&#45;&gt;113</title>
<path fill="none" stroke="black" d="M664.64,-18C675.95,-18 689.7,-18 704.85,-18"/>
<polygon fill="black" stroke="black" points="704.61,-21.5 714.61,-18 704.61,-14.5 704.61,-21.5"/>
</g>
</g>
</svg>
