<?xml version="1.0" encoding="UTF-8" standalone="no"?>
<!DOCTYPE svg PUBLIC "-//W3C//DTD SVG 1.1//EN"
 "http://www.w3.org/Graphics/SVG/1.1/DTD/svg11.dtd">
<!-- Generated by graphviz version 13.1.2 (20250808.2320)
 -->
<!-- Title: std::optional&lt;class mce::Color&gt; Pages: 1 -->
<svg width="544pt" height="98pt"
 viewBox="0.00 0.00 544.00 98.00" xmlns="http://www.w3.org/2000/svg" xmlns:xlink="http://www.w3.org/1999/xlink">
<g id="graph0" class="graph" transform="scale(1 1) rotate(0) translate(4 94)">
<title>std::optional&lt;class mce::Color&gt;</title>
<polygon fill="white" stroke="none" points="-4,4 -4,-94 539.7,-94 539.7,4 -4,4"/>
<!-- 39 -->
<!-- name: &quot;std::optional&lt;class mce::Color&gt;&quot;, typeName: &quot;&quot;, id: 39, branchId: 0, recurseId: &#45;1, attributes: 0, notes: &quot;&quot; -->
<g id="node1" class="node">
<title>39</title>
<ellipse fill="none" stroke="black" cx="130.68" cy="-45" rx="130.68" ry="18"/>
<text xml:space="preserve" text-anchor="middle" x="130.68" y="-39.95" font-family="Times New Roman,serif" font-size="14.00">std::optional&lt;class mce::Color&gt;</text>
</g>
<!-- 40 -->
<!-- name: &quot;Has Value&quot;, typeName: &quot;&quot;, id: 40, branchId: 0, recurseId: &#45;1, attributes: 0, notes: &quot;If true, follow with appropriate data type, otherwise nothing&quot; -->
<g id="node2" class="node">
<title>40</title>
<ellipse fill="none" stroke="black" cx="345.64" cy="-72" rx="48.28" ry="18"/>
<text xml:space="preserve" text-anchor="middle" x="345.64" y="-66.95" font-family="Times New Roman,serif" font-size="14.00">Has Value</text>
</g>
<!-- 39&#45;&gt;40 -->
<g id="edge1" class="edge">
<title>39&#45;&gt;40</title>
<path fill="none" stroke="black" d="M228.5,-57.28C248.88,-59.86 269.73,-62.5 288.04,-64.82"/>
<polygon fill="black" stroke="black" points="287.52,-68.29 297.88,-66.07 288.4,-61.34 287.52,-68.29"/>
</g>
<!-- 42 -->
<!-- name: &quot;Value&quot;, typeName: &quot;mce::Color&quot;, id: 42, branchId: 0, recurseId: &#45;1, attributes: 256, notes: &quot;&quot; -->
<g id="node4" class="node">
<title>42</title>
<ellipse fill="none" stroke="black" cx="345.64" cy="-18" rx="31.9" ry="18"/>
<text xml:space="preserve" text-anchor="middle" x="345.64" y="-12.95" font-family="Times New Roman,serif" font-size="14.00">Value</text>
</g>
<!-- 39&#45;&gt;42 -->
<g id="edge3" class="edge">
<title>39&#45;&gt;42</title>
<path fill="none" stroke="black" d="M228.5,-32.72C254.65,-29.41 281.57,-26 302.91,-23.29"/>
<polygon fill="black" stroke="black" points="303.17,-26.79 312.65,-22.06 302.29,-19.84 303.17,-26.79"/>
</g>
<!-- 41 -->
<!-- name: &quot;bool&quot;, typeName: &quot;&quot;, id: 41, branchId: 0, recurseId: &#45;1, attributes: 512, notes: &quot;&quot; -->
<g id="node3" class="node">
<title>41</title>
<ellipse fill="none" stroke="black" cx="482.81" cy="-72" rx="27.3" ry="18"/>
<text xml:space="preserve" text-anchor="middle" x="482.81" y="-66.95" font-family="Times New Roman,serif" font-size="14.00">bool</text>
</g>
<!-- 40&#45;&gt;41 -->
<g id="edge2" class="edge">
<title>40&#45;&gt;41</title>
<path fill="none" stroke="black" d="M394.3,-72C410.65,-72 428.72,-72 444.16,-72"/>
<polygon fill="black" stroke="black" points="443.88,-75.5 453.88,-72 443.88,-68.5 443.88,-75.5"/>
</g>
<!-- 43 -->
<!-- name: &quot;mce::Color&quot;, typeName: &quot;&quot;, id: 43, branchId: 0, recurseId: &#45;1, attributes: 512, notes: &quot;&quot; -->
<g id="node5" class="node">
<title>43</title>
<ellipse fill="none" stroke="black" cx="482.81" cy="-18" rx="52.89" ry="18"/>
<text xml:space="preserve" text-anchor="middle" x="482.81" y="-12.95" font-family="Times New Roman,serif" font-size="14.00">mce::Color</text>
</g>
<!-- 42&#45;&gt;43 -->
<g id="edge4" class="edge">
<title>42&#45;&gt;43</title>
<path fill="none" stroke="black" d="M377.99,-18C390.06,-18 404.3,-18 418.31,-18"/>
<polygon fill="black" stroke="black" points="417.94,-21.5 427.94,-18 417.94,-14.5 417.94,-21.5"/>
</g>
</g>
</svg>
