<?xml version="1.0" encoding="UTF-8" standalone="no"?>
<!DOCTYPE svg PUBLIC "-//W3C//DTD SVG 1.1//EN"
 "http://www.w3.org/Graphics/SVG/1.1/DTD/svg11.dtd">
<!-- Generated by graphviz version 10.0.1 (20240210.2158)
 -->
<!-- Title: std::optional&lt;class Json::Value&gt; Pages: 1 -->
<svg width="492pt" height="44pt"
 viewBox="0.00 0.00 492.17 44.00" xmlns="http://www.w3.org/2000/svg" xmlns:xlink="http://www.w3.org/1999/xlink">
<g id="graph0" class="graph" transform="scale(1 1) rotate(0) translate(4 40)">
<title>std::optional&lt;class Json::Value&gt;</title>
<polygon fill="white" stroke="none" points="-4,4 -4,-40 488.17,-40 488.17,4 -4,4"/>
<!-- 4 -->
<!-- name: &quot;std::optional&lt;class Json::Value&gt;&quot;, typeName: &quot;&quot;, id: 4, branchId: 0, recurseId: &#45;1, attributes: 0, notes: &quot;&quot; -->
<g id="node1" class="node">
<title>4</title>
<ellipse fill="none" stroke="black" cx="129.91" cy="-18" rx="129.91" ry="18"/>
<text text-anchor="middle" x="129.91" y="-12.57" font-family="Times New Roman,serif" font-size="14.00">std::optional&lt;class Json::Value&gt;</text>
</g>
<!-- 5 -->
<!-- name: &quot;Has Value&quot;, typeName: &quot;&quot;, id: 5, branchId: 0, recurseId: &#45;1, attributes: 0, notes: &quot;If true, follow with appropriate data type, otherwise nothing&quot; -->
<g id="node2" class="node">
<title>5</title>
<ellipse fill="none" stroke="black" cx="344.38" cy="-18" rx="48.57" ry="18"/>
<text text-anchor="middle" x="344.38" y="-12.57" font-family="Times New Roman,serif" font-size="14.00">Has Value</text>
</g>
<!-- 4&#45;&gt;5 -->
<g id="edge1" class="edge">
<title>4&#45;&gt;5</title>
<path fill="none" stroke="black" d="M260.01,-18C268.32,-18 276.44,-18 284.14,-18"/>
<polygon fill="black" stroke="black" points="283.97,-21.5 293.97,-18 283.97,-14.5 283.97,-21.5"/>
</g>
<!-- 6 -->
<!-- name: &quot;bool&quot;, typeName: &quot;&quot;, id: 6, branchId: 0, recurseId: &#45;1, attributes: 512, notes: &quot;&quot; -->
<g id="node3" class="node">
<title>6</title>
<ellipse fill="none" stroke="black" cx="456.56" cy="-18" rx="27.61" ry="18"/>
<text text-anchor="middle" x="456.56" y="-12.57" font-family="Times New Roman,serif" font-size="14.00">bool</text>
</g>
<!-- 5&#45;&gt;6 -->
<g id="edge2" class="edge">
<title>5&#45;&gt;6</title>
<path fill="none" stroke="black" d="M393.39,-18C401.4,-18 409.61,-18 417.33,-18"/>
<polygon fill="black" stroke="black" points="417.08,-21.5 427.08,-18 417.08,-14.5 417.08,-21.5"/>
</g>
</g>
</svg>
