<?xml version="1.0" encoding="UTF-8" standalone="no"?>
<!DOCTYPE svg PUBLIC "-//W3C//DTD SVG 1.1//EN"
 "http://www.w3.org/Graphics/SVG/1.1/DTD/svg11.dtd">
<!-- Generated by graphviz version 12.2.0 (20241103.1931)
 -->
<!-- Title: std::optional&lt;enum CameraPreset::AudioListener&gt; Pages: 1 -->
<svg width="635pt" height="44pt"
 viewBox="0.00 0.00 634.80 44.00" xmlns="http://www.w3.org/2000/svg" xmlns:xlink="http://www.w3.org/1999/xlink">
<g id="graph0" class="graph" transform="scale(1 1) rotate(0) translate(4 40)">
<title>std::optional&lt;enum CameraPreset::AudioListener&gt;</title>
<polygon fill="white" stroke="none" points="-4,4 -4,-40 630.8,-40 630.8,4 -4,4"/>
<!-- 54 -->
<!-- name: &quot;std::optional&lt;enum CameraPreset::AudioListener&gt;&quot;, typeName: &quot;&quot;, id: 54, branchId: 0, recurseId: &#45;1, attributes: 0, notes: &quot;&quot; -->
<g id="node1" class="node">
<title>54</title>
<ellipse fill="none" stroke="black" cx="201.82" cy="-18" rx="201.82" ry="18"/>
<text text-anchor="middle" x="201.82" y="-12.95" font-family="Times New Roman,serif" font-size="14.00">std::optional&lt;enum CameraPreset::AudioListener&gt;</text>
</g>
<!-- 55 -->
<!-- name: &quot;Has Value&quot;, typeName: &quot;&quot;, id: 55, branchId: 0, recurseId: &#45;1, attributes: 0, notes: &quot;If true, follow with appropriate data type, otherwise nothing&quot; -->
<g id="node2" class="node">
<title>55</title>
<ellipse fill="none" stroke="black" cx="487.93" cy="-18" rx="48.28" ry="18"/>
<text text-anchor="middle" x="487.93" y="-12.95" font-family="Times New Roman,serif" font-size="14.00">Has Value</text>
</g>
<!-- 54&#45;&gt;55 -->
<g id="edge1" class="edge">
<title>54&#45;&gt;55</title>
<path fill="none" stroke="black" d="M403.99,-18C412.36,-18 420.39,-18 427.95,-18"/>
<polygon fill="black" stroke="black" points="427.89,-21.5 437.89,-18 427.89,-14.5 427.89,-21.5"/>
</g>
<!-- 56 -->
<!-- name: &quot;bool&quot;, typeName: &quot;&quot;, id: 56, branchId: 0, recurseId: &#45;1, attributes: 512, notes: &quot;&quot; -->
<g id="node3" class="node">
<title>56</title>
<ellipse fill="none" stroke="black" cx="599.5" cy="-18" rx="27.3" ry="18"/>
<text text-anchor="middle" x="599.5" y="-12.95" font-family="Times New Roman,serif" font-size="14.00">bool</text>
</g>
<!-- 55&#45;&gt;56 -->
<g id="edge2" class="edge">
<title>55&#45;&gt;56</title>
<path fill="none" stroke="black" d="M536.67,-18C544.71,-18 552.96,-18 560.71,-18"/>
<polygon fill="black" stroke="black" points="560.47,-21.5 570.47,-18 560.47,-14.5 560.47,-21.5"/>
</g>
</g>
</svg>
