<?xml version="1.0" encoding="UTF-8" standalone="no"?>
<!DOCTYPE svg PUBLIC "-//W3C//DTD SVG 1.1//EN"
 "http://www.w3.org/Graphics/SVG/1.1/DTD/svg11.dtd">
<!-- Generated by graphviz version 10.0.1 (20240210.2158)
 -->
<!-- Title: std::optional&lt;enum CameraPreset::AudioListener&gt; Pages: 1 -->
<svg width="627pt" height="44pt"
 viewBox="0.00 0.00 626.90 44.00" xmlns="http://www.w3.org/2000/svg" xmlns:xlink="http://www.w3.org/1999/xlink">
<g id="graph0" class="graph" transform="scale(1 1) rotate(0) translate(4 40)">
<title>std::optional&lt;enum CameraPreset::AudioListener&gt;</title>
<polygon fill="white" stroke="none" points="-4,4 -4,-40 622.9,-40 622.9,4 -4,4"/>
<!-- 27 -->
<!-- name: &quot;std::optional&lt;enum CameraPreset::AudioListener&gt;&quot;, typeName: &quot;&quot;, id: 27, branchId: 0, recurseId: &#45;1, attributes: 0, notes: &quot;&quot; -->
<g id="node1" class="node">
<title>27</title>
<ellipse fill="none" stroke="black" cx="197.27" cy="-18" rx="197.27" ry="18"/>
<text text-anchor="middle" x="197.27" y="-12.57" font-family="Times New Roman,serif" font-size="14.00">std::optional&lt;enum CameraPreset::AudioListener&gt;</text>
</g>
<!-- 28 -->
<!-- name: &quot;Has Value&quot;, typeName: &quot;&quot;, id: 28, branchId: 0, recurseId: &#45;1, attributes: 0, notes: &quot;If true, follow with appropriate data type, otherwise nothing&quot; -->
<g id="node2" class="node">
<title>28</title>
<ellipse fill="none" stroke="black" cx="479.11" cy="-18" rx="48.57" ry="18"/>
<text text-anchor="middle" x="479.11" y="-12.57" font-family="Times New Roman,serif" font-size="14.00">Has Value</text>
</g>
<!-- 27&#45;&gt;28 -->
<g id="edge1" class="edge">
<title>27&#45;&gt;28</title>
<path fill="none" stroke="black" d="M394.91,-18C403.28,-18 411.33,-18 418.9,-18"/>
<polygon fill="black" stroke="black" points="418.86,-21.5 428.86,-18 418.86,-14.5 418.86,-21.5"/>
</g>
<!-- 29 -->
<!-- name: &quot;bool&quot;, typeName: &quot;&quot;, id: 29, branchId: 0, recurseId: &#45;1, attributes: 512, notes: &quot;&quot; -->
<g id="node3" class="node">
<title>29</title>
<ellipse fill="none" stroke="black" cx="591.29" cy="-18" rx="27.61" ry="18"/>
<text text-anchor="middle" x="591.29" y="-12.57" font-family="Times New Roman,serif" font-size="14.00">bool</text>
</g>
<!-- 28&#45;&gt;29 -->
<g id="edge2" class="edge">
<title>28&#45;&gt;29</title>
<path fill="none" stroke="black" d="M528.11,-18C536.12,-18 544.34,-18 552.06,-18"/>
<polygon fill="black" stroke="black" points="551.8,-21.5 561.8,-18 551.8,-14.5 551.8,-21.5"/>
</g>
</g>
</svg>
