<?xml version="1.0" encoding="UTF-8" standalone="no"?>
<!DOCTYPE svg PUBLIC "-//W3C//DTD SVG 1.1//EN"
 "http://www.w3.org/Graphics/SVG/1.1/DTD/svg11.dtd">
<!-- Generated by graphviz version 12.2.1 (20241206.2353)
 -->
<!-- Title: std::optional&lt;struct BiomeTagsData&gt; Pages: 1 -->
<svg width="620pt" height="98pt"
 viewBox="0.00 0.00 620.47 98.00" xmlns="http://www.w3.org/2000/svg" xmlns:xlink="http://www.w3.org/1999/xlink">
<g id="graph0" class="graph" transform="scale(1 1) rotate(0) translate(4 94)">
<title>std::optional&lt;struct BiomeTagsData&gt;</title>
<polygon fill="white" stroke="none" points="-4,4 -4,-94 616.47,-94 616.47,4 -4,4"/>
<!-- 40 -->
<!-- name: &quot;std::optional&lt;struct BiomeTagsData&gt;&quot;, typeName: &quot;&quot;, id: 40, branchId: 0, recurseId: &#45;1, attributes: 0, notes: &quot;&quot; -->
<g id="node1" class="node">
<title>40</title>
<ellipse fill="none" stroke="black" cx="151.15" cy="-45" rx="151.15" ry="18"/>
<text text-anchor="middle" x="151.15" y="-39.95" font-family="Times New Roman,serif" font-size="14.00">std::optional&lt;struct BiomeTagsData&gt;</text>
</g>
<!-- 41 -->
<!-- name: &quot;Has Value&quot;, typeName: &quot;&quot;, id: 41, branchId: 0, recurseId: &#45;1, attributes: 0, notes: &quot;If true, follow with appropriate data type, otherwise nothing&quot; -->
<g id="node2" class="node">
<title>41</title>
<ellipse fill="none" stroke="black" cx="386.59" cy="-72" rx="48.28" ry="18"/>
<text text-anchor="middle" x="386.59" y="-66.95" font-family="Times New Roman,serif" font-size="14.00">Has Value</text>
</g>
<!-- 40&#45;&gt;41 -->
<g id="edge1" class="edge">
<title>40&#45;&gt;41</title>
<path fill="none" stroke="black" d="M261.35,-57.63C284.67,-60.33 308.39,-63.07 328.77,-65.43"/>
<polygon fill="black" stroke="black" points="328.2,-68.89 338.54,-66.56 329.01,-61.93 328.2,-68.89"/>
</g>
<!-- 43 -->
<!-- name: &quot;Value&quot;, typeName: &quot;BiomeTagsData&quot;, id: 43, branchId: 0, recurseId: &#45;1, attributes: 256, notes: &quot;&quot; -->
<g id="node4" class="node">
<title>43</title>
<ellipse fill="none" stroke="black" cx="386.59" cy="-18" rx="31.9" ry="18"/>
<text text-anchor="middle" x="386.59" y="-12.95" font-family="Times New Roman,serif" font-size="14.00">Value</text>
</g>
<!-- 40&#45;&gt;43 -->
<g id="edge3" class="edge">
<title>40&#45;&gt;43</title>
<path fill="none" stroke="black" d="M261.35,-32.37C290.79,-28.96 320.87,-25.49 344.06,-22.8"/>
<polygon fill="black" stroke="black" points="344.15,-26.32 353.68,-21.69 343.34,-19.36 344.15,-26.32"/>
</g>
<!-- 42 -->
<!-- name: &quot;bool&quot;, typeName: &quot;&quot;, id: 42, branchId: 0, recurseId: &#45;1, attributes: 512, notes: &quot;&quot; -->
<g id="node3" class="node">
<title>42</title>
<ellipse fill="none" stroke="black" cx="541.67" cy="-72" rx="27.3" ry="18"/>
<text text-anchor="middle" x="541.67" y="-66.95" font-family="Times New Roman,serif" font-size="14.00">bool</text>
</g>
<!-- 41&#45;&gt;42 -->
<g id="edge2" class="edge">
<title>41&#45;&gt;42</title>
<path fill="none" stroke="black" d="M435.19,-72C456.9,-72 482.27,-72 502.68,-72"/>
<polygon fill="black" stroke="black" points="502.55,-75.5 512.55,-72 502.55,-68.5 502.55,-75.5"/>
</g>
<!-- 51 -->
<!-- name: &quot;BiomeTagsData&quot;, typeName: &quot;&quot;, id: 51, branchId: 0, recurseId: &#45;1, attributes: 512, notes: &quot;&quot; -->
<g id="node5" class="node">
<title>51</title>
<ellipse fill="none" stroke="black" cx="541.67" cy="-18" rx="70.8" ry="18"/>
<text text-anchor="middle" x="541.67" y="-12.95" font-family="Times New Roman,serif" font-size="14.00">BiomeTagsData</text>
</g>
<!-- 43&#45;&gt;51 -->
<g id="edge4" class="edge">
<title>43&#45;&gt;51</title>
<path fill="none" stroke="black" d="M418.94,-18C430.74,-18 444.77,-18 459.05,-18"/>
<polygon fill="black" stroke="black" points="458.99,-21.5 468.99,-18 458.99,-14.5 458.99,-21.5"/>
</g>
</g>
</svg>
