<?xml version="1.0" encoding="UTF-8" standalone="no"?>
<!DOCTYPE svg PUBLIC "-//W3C//DTD SVG 1.1//EN"
 "http://www.w3.org/Graphics/SVG/1.1/DTD/svg11.dtd">
<!-- Generated by graphviz version 14.1.1 (20251213.1925)
 -->
<!-- Title: std::optional&lt;struct BiomeCappedSurfaceData&gt; Pages: 1 -->
<svg width="776pt" height="98pt"
 viewBox="0.00 0.00 776.00 98.00" xmlns="http://www.w3.org/2000/svg" xmlns:xlink="http://www.w3.org/1999/xlink">
<g id="graph0" class="graph" transform="scale(1 1) rotate(0) translate(4 94)">
<title>std::optional&lt;struct BiomeCappedSurfaceData&gt;</title>
<polygon fill="white" stroke="none" points="-4,4 -4,-94 772.06,-94 772.06,4 -4,4"/>
<!-- 227 -->
<!-- name: &quot;std::optional&lt;struct BiomeCappedSurfaceData&gt;&quot;, typeName: &quot;&quot;, id: 227, branchId: 0, recurseId: &#45;1, attributes: 0, notes: &quot;&quot; -->
<g id="node1" class="node">
<title>227</title>
<ellipse fill="none" stroke="black" cx="190.05" cy="-45" rx="190.05" ry="18"/>
<text xml:space="preserve" text-anchor="middle" x="190.05" y="-39.95" font-family="Times New Roman,serif" font-size="14.00">std::optional&lt;struct BiomeCappedSurfaceData&gt;</text>
</g>
<!-- 228 -->
<!-- name: &quot;Has Value&quot;, typeName: &quot;&quot;, id: 228, branchId: 0, recurseId: &#45;1, attributes: 0, notes: &quot;If true, follow with appropriate data type, otherwise nothing&quot; -->
<g id="node2" class="node">
<title>228</title>
<ellipse fill="none" stroke="black" cx="464.38" cy="-72" rx="48.28" ry="18"/>
<text xml:space="preserve" text-anchor="middle" x="464.38" y="-66.95" font-family="Times New Roman,serif" font-size="14.00">Has Value</text>
</g>
<!-- 227&#45;&gt;228 -->
<g id="edge1" class="edge">
<title>227&#45;&gt;228</title>
<path fill="none" stroke="black" d="M323.63,-58.14C352.57,-61.01 381.74,-63.91 405.88,-66.3"/>
<polygon fill="black" stroke="black" points="405.5,-69.78 415.8,-67.28 406.19,-62.81 405.5,-69.78"/>
</g>
<!-- 230 -->
<!-- name: &quot;Value&quot;, typeName: &quot;BiomeCappedSurfaceData&quot;, id: 230, branchId: 0, recurseId: &#45;1, attributes: 256, notes: &quot;&quot; -->
<g id="node4" class="node">
<title>230</title>
<ellipse fill="none" stroke="black" cx="464.38" cy="-18" rx="31.9" ry="18"/>
<text xml:space="preserve" text-anchor="middle" x="464.38" y="-12.95" font-family="Times New Roman,serif" font-size="14.00">Value</text>
</g>
<!-- 227&#45;&gt;230 -->
<g id="edge3" class="edge">
<title>227&#45;&gt;230</title>
<path fill="none" stroke="black" d="M323.63,-31.86C359.1,-28.34 394.89,-24.79 421.37,-22.17"/>
<polygon fill="black" stroke="black" points="421.37,-25.68 430.98,-21.21 420.68,-18.72 421.37,-25.68"/>
</g>
<!-- 229 -->
<!-- name: &quot;bool&quot;, typeName: &quot;&quot;, id: 229, branchId: 0, recurseId: &#45;1, attributes: 512, notes: &quot;&quot; -->
<g id="node3" class="node">
<title>229</title>
<ellipse fill="none" stroke="black" cx="658.36" cy="-72" rx="27.3" ry="18"/>
<text xml:space="preserve" text-anchor="middle" x="658.36" y="-66.95" font-family="Times New Roman,serif" font-size="14.00">bool</text>
</g>
<!-- 228&#45;&gt;229 -->
<g id="edge2" class="edge">
<title>228&#45;&gt;229</title>
<path fill="none" stroke="black" d="M512.84,-72C545.68,-72 588.8,-72 619.37,-72"/>
<polygon fill="black" stroke="black" points="619.31,-75.5 629.31,-72 619.31,-68.5 619.31,-75.5"/>
</g>
<!-- 250 -->
<!-- name: &quot;BiomeCappedSurfaceData&quot;, typeName: &quot;&quot;, id: 250, branchId: 0, recurseId: &#45;1, attributes: 512, notes: &quot;&quot; -->
<g id="node5" class="node">
<title>250</title>
<ellipse fill="none" stroke="black" cx="658.36" cy="-18" rx="109.7" ry="18"/>
<text xml:space="preserve" text-anchor="middle" x="658.36" y="-12.95" font-family="Times New Roman,serif" font-size="14.00">BiomeCappedSurfaceData</text>
</g>
<!-- 230&#45;&gt;250 -->
<g id="edge4" class="edge">
<title>230&#45;&gt;250</title>
<path fill="none" stroke="black" d="M496.66,-18C508.25,-18 522.21,-18 537,-18"/>
<polygon fill="black" stroke="black" points="536.93,-21.5 546.93,-18 536.93,-14.5 536.93,-21.5"/>
</g>
</g>
</svg>
