<?xml version="1.0" encoding="UTF-8" standalone="no"?>
<!DOCTYPE svg PUBLIC "-//W3C//DTD SVG 1.1//EN"
 "http://www.w3.org/Graphics/SVG/1.1/DTD/svg11.dtd">
<!-- Generated by graphviz version 11.0.0 (20240428.1522)
 -->
<!-- Title: std::optional&lt;struct CameraInstruction::SetInstruction::FacingOption&gt; Pages: 1 -->
<svg width="1096pt" height="98pt"
 viewBox="0.00 0.00 1095.96 98.00" xmlns="http://www.w3.org/2000/svg" xmlns:xlink="http://www.w3.org/1999/xlink">
<g id="graph0" class="graph" transform="scale(1 1) rotate(0) translate(4 94)">
<title>std::optional&lt;struct CameraInstruction::SetInstruction::FacingOption&gt;</title>
<polygon fill="white" stroke="none" points="-4,4 -4,-94 1091.96,-94 1091.96,4 -4,4"/>
<!-- 46 -->
<!-- name: &quot;std::optional&lt;struct CameraInstruction::SetInstruction::FacingOption&gt;&quot;, typeName: &quot;&quot;, id: 46, branchId: 0, recurseId: &#45;1, attributes: 0, notes: &quot;&quot; -->
<g id="node1" class="node">
<title>46</title>
<ellipse fill="none" stroke="black" cx="269.62" cy="-45" rx="269.62" ry="18"/>
<text text-anchor="middle" x="269.62" y="-39.58" font-family="Times New Roman,serif" font-size="14.00">std::optional&lt;struct CameraInstruction::SetInstruction::FacingOption&gt;</text>
</g>
<!-- 47 -->
<!-- name: &quot;Has Value&quot;, typeName: &quot;&quot;, id: 47, branchId: 0, recurseId: &#45;1, attributes: 0, notes: &quot;If true, follow with appropriate data type, otherwise nothing&quot; -->
<g id="node2" class="node">
<title>47</title>
<ellipse fill="none" stroke="black" cx="623.82" cy="-72" rx="48.57" ry="18"/>
<text text-anchor="middle" x="623.82" y="-66.58" font-family="Times New Roman,serif" font-size="14.00">Has Value</text>
</g>
<!-- 46&#45;&gt;47 -->
<g id="edge1" class="edge">
<title>46&#45;&gt;47</title>
<path fill="none" stroke="black" d="M450.07,-58.76C491.65,-61.94 532.98,-65.11 564.78,-67.55"/>
<polygon fill="black" stroke="black" points="564.3,-71.02 574.54,-68.3 564.84,-64.04 564.3,-71.02"/>
</g>
<!-- 49 -->
<!-- name: &quot;Value&quot;, typeName: &quot;CameraInstruction::SetInstruction::FacingOption&quot;, id: 49, branchId: 0, recurseId: &#45;1, attributes: 256, notes: &quot;&quot; -->
<g id="node4" class="node">
<title>49</title>
<ellipse fill="none" stroke="black" cx="623.82" cy="-18" rx="31.6" ry="18"/>
<text text-anchor="middle" x="623.82" y="-12.57" font-family="Times New Roman,serif" font-size="14.00">Value</text>
</g>
<!-- 46&#45;&gt;49 -->
<g id="edge3" class="edge">
<title>46&#45;&gt;49</title>
<path fill="none" stroke="black" d="M450.07,-31.24C498.91,-27.5 547.4,-23.78 580.52,-21.24"/>
<polygon fill="black" stroke="black" points="580.78,-24.73 590.48,-20.48 580.25,-17.75 580.78,-24.73"/>
</g>
<!-- 48 -->
<!-- name: &quot;bool&quot;, typeName: &quot;&quot;, id: 48, branchId: 0, recurseId: &#45;1, attributes: 512, notes: &quot;&quot; -->
<g id="node3" class="node">
<title>48</title>
<ellipse fill="none" stroke="black" cx="898.17" cy="-72" rx="27.61" ry="18"/>
<text text-anchor="middle" x="898.17" y="-66.58" font-family="Times New Roman,serif" font-size="14.00">bool</text>
</g>
<!-- 47&#45;&gt;48 -->
<g id="edge2" class="edge">
<title>47&#45;&gt;48</title>
<path fill="none" stroke="black" d="M672.88,-72C725.93,-72 810.23,-72 858.96,-72"/>
<polygon fill="black" stroke="black" points="858.74,-75.5 868.74,-72 858.74,-68.5 858.74,-75.5"/>
</g>
<!-- 53 -->
<!-- name: &quot;CameraInstruction::SetInstruction::FacingOption&quot;, typeName: &quot;&quot;, id: 53, branchId: 0, recurseId: &#45;1, attributes: 512, notes: &quot;&quot; -->
<g id="node5" class="node">
<title>53</title>
<ellipse fill="none" stroke="black" cx="898.17" cy="-18" rx="189.78" ry="18"/>
<text text-anchor="middle" x="898.17" y="-12.57" font-family="Times New Roman,serif" font-size="14.00">CameraInstruction::SetInstruction::FacingOption</text>
</g>
<!-- 49&#45;&gt;53 -->
<g id="edge4" class="edge">
<title>49&#45;&gt;53</title>
<path fill="none" stroke="black" d="M655.79,-18C667.24,-18 681.22,-18 696.62,-18"/>
<polygon fill="black" stroke="black" points="696.56,-21.5 706.56,-18 696.56,-14.5 696.56,-21.5"/>
</g>
</g>
</svg>
