<?xml version="1.0" encoding="UTF-8" standalone="no"?>
<!DOCTYPE svg PUBLIC "-//W3C//DTD SVG 1.1//EN"
 "http://www.w3.org/Graphics/SVG/1.1/DTD/svg11.dtd">
<!-- Generated by graphviz version 11.0.0 (20240428.1522)
 -->
<!-- Title: std::optional&lt;struct BiomeCappedSurfaceData&gt; Pages: 1 -->
<svg width="775pt" height="98pt"
 viewBox="0.00 0.00 774.60 98.00" xmlns="http://www.w3.org/2000/svg" xmlns:xlink="http://www.w3.org/1999/xlink">
<g id="graph0" class="graph" transform="scale(1 1) rotate(0) translate(4 94)">
<title>std::optional&lt;struct BiomeCappedSurfaceData&gt;</title>
<polygon fill="white" stroke="none" points="-4,4 -4,-94 770.6,-94 770.6,4 -4,4"/>
<!-- 241 -->
<!-- name: &quot;std::optional&lt;struct BiomeCappedSurfaceData&gt;&quot;, typeName: &quot;&quot;, id: 241, branchId: 0, recurseId: &#45;1, attributes: 0, notes: &quot;&quot; -->
<g id="node1" class="node">
<title>241</title>
<ellipse fill="none" stroke="black" cx="189.29" cy="-45" rx="189.29" ry="18"/>
<text text-anchor="middle" x="189.29" y="-39.58" font-family="Times New Roman,serif" font-size="14.00">std::optional&lt;struct BiomeCappedSurfaceData&gt;</text>
</g>
<!-- 242 -->
<!-- name: &quot;Has Value&quot;, typeName: &quot;&quot;, id: 242, branchId: 0, recurseId: &#45;1, attributes: 0, notes: &quot;If true, follow with appropriate data type, otherwise nothing&quot; -->
<g id="node2" class="node">
<title>242</title>
<ellipse fill="none" stroke="black" cx="463.14" cy="-72" rx="48.57" ry="18"/>
<text text-anchor="middle" x="463.14" y="-66.58" font-family="Times New Roman,serif" font-size="14.00">Has Value</text>
</g>
<!-- 241&#45;&gt;242 -->
<g id="edge1" class="edge">
<title>241&#45;&gt;242</title>
<path fill="none" stroke="black" d="M322.63,-58.14C351.41,-61 380.4,-63.88 404.44,-66.27"/>
<polygon fill="black" stroke="black" points="404.02,-69.75 414.32,-67.25 404.72,-62.78 404.02,-69.75"/>
</g>
<!-- 244 -->
<!-- name: &quot;Value&quot;, typeName: &quot;BiomeCappedSurfaceData&quot;, id: 244, branchId: 0, recurseId: &#45;1, attributes: 256, notes: &quot;&quot; -->
<g id="node4" class="node">
<title>244</title>
<ellipse fill="none" stroke="black" cx="463.14" cy="-18" rx="31.6" ry="18"/>
<text text-anchor="middle" x="463.14" y="-12.57" font-family="Times New Roman,serif" font-size="14.00">Value</text>
</g>
<!-- 241&#45;&gt;244 -->
<g id="edge3" class="edge">
<title>241&#45;&gt;244</title>
<path fill="none" stroke="black" d="M322.63,-31.86C357.99,-28.34 393.68,-24.8 420.11,-22.17"/>
<polygon fill="black" stroke="black" points="420.45,-25.66 430.06,-21.19 419.76,-18.69 420.45,-25.66"/>
</g>
<!-- 243 -->
<!-- name: &quot;bool&quot;, typeName: &quot;&quot;, id: 243, branchId: 0, recurseId: &#45;1, attributes: 512, notes: &quot;&quot; -->
<g id="node3" class="node">
<title>243</title>
<ellipse fill="none" stroke="black" cx="657.16" cy="-72" rx="27.61" ry="18"/>
<text text-anchor="middle" x="657.16" y="-66.58" font-family="Times New Roman,serif" font-size="14.00">bool</text>
</g>
<!-- 242&#45;&gt;243 -->
<g id="edge2" class="edge">
<title>242&#45;&gt;243</title>
<path fill="none" stroke="black" d="M512.1,-72C544.75,-72 587.4,-72 617.8,-72"/>
<polygon fill="black" stroke="black" points="617.69,-75.5 627.69,-72 617.69,-68.5 617.69,-75.5"/>
</g>
<!-- 264 -->
<!-- name: &quot;BiomeCappedSurfaceData&quot;, typeName: &quot;&quot;, id: 264, branchId: 0, recurseId: &#45;1, attributes: 512, notes: &quot;&quot; -->
<g id="node5" class="node">
<title>264</title>
<ellipse fill="none" stroke="black" cx="657.16" cy="-18" rx="109.45" ry="18"/>
<text text-anchor="middle" x="657.16" y="-12.57" font-family="Times New Roman,serif" font-size="14.00">BiomeCappedSurfaceData</text>
</g>
<!-- 244&#45;&gt;264 -->
<g id="edge4" class="edge">
<title>244&#45;&gt;264</title>
<path fill="none" stroke="black" d="M494.99,-18C506.76,-18 521.01,-18 536.1,-18"/>
<polygon fill="black" stroke="black" points="535.71,-21.5 545.71,-18 535.71,-14.5 535.71,-21.5"/>
</g>
</g>
</svg>
