<?xml version="1.0" encoding="UTF-8" standalone="no"?>
<!DOCTYPE svg PUBLIC "-//W3C//DTD SVG 1.1//EN"
 "http://www.w3.org/Graphics/SVG/1.1/DTD/svg11.dtd">
<!-- Generated by graphviz version 12.2.1 (20241206.2353)
 -->
<!-- Title: std::optional&lt;struct BiomeMountainParamsData&gt; Pages: 1 -->
<svg width="807pt" height="98pt"
 viewBox="0.00 0.00 806.77 98.00" xmlns="http://www.w3.org/2000/svg" xmlns:xlink="http://www.w3.org/1999/xlink">
<g id="graph0" class="graph" transform="scale(1 1) rotate(0) translate(4 94)">
<title>std::optional&lt;struct BiomeMountainParamsData&gt;</title>
<polygon fill="white" stroke="none" points="-4,4 -4,-94 802.77,-94 802.77,4 -4,4"/>
<!-- 145 -->
<!-- name: &quot;std::optional&lt;struct BiomeMountainParamsData&gt;&quot;, typeName: &quot;&quot;, id: 145, branchId: 0, recurseId: &#45;1, attributes: 0, notes: &quot;&quot; -->
<g id="node1" class="node">
<title>145</title>
<ellipse fill="none" stroke="black" cx="197.73" cy="-45" rx="197.73" ry="18"/>
<text text-anchor="middle" x="197.73" y="-39.95" font-family="Times New Roman,serif" font-size="14.00">std::optional&lt;struct BiomeMountainParamsData&gt;</text>
</g>
<!-- 146 -->
<!-- name: &quot;Has Value&quot;, typeName: &quot;&quot;, id: 146, branchId: 0, recurseId: &#45;1, attributes: 0, notes: &quot;If true, follow with appropriate data type, otherwise nothing&quot; -->
<g id="node2" class="node">
<title>146</title>
<ellipse fill="none" stroke="black" cx="479.74" cy="-72" rx="48.28" ry="18"/>
<text text-anchor="middle" x="479.74" y="-66.95" font-family="Times New Roman,serif" font-size="14.00">Has Value</text>
</g>
<!-- 145&#45;&gt;146 -->
<g id="edge1" class="edge">
<title>145&#45;&gt;146</title>
<path fill="none" stroke="black" d="M335.86,-58.22C366.01,-61.13 396.33,-64.05 421.24,-66.46"/>
<polygon fill="black" stroke="black" points="420.84,-69.93 431.13,-67.41 421.52,-62.97 420.84,-69.93"/>
</g>
<!-- 148 -->
<!-- name: &quot;Value&quot;, typeName: &quot;BiomeMountainParamsData&quot;, id: 148, branchId: 0, recurseId: &#45;1, attributes: 256, notes: &quot;&quot; -->
<g id="node4" class="node">
<title>148</title>
<ellipse fill="none" stroke="black" cx="479.74" cy="-18" rx="31.9" ry="18"/>
<text text-anchor="middle" x="479.74" y="-12.95" font-family="Times New Roman,serif" font-size="14.00">Value</text>
</g>
<!-- 145&#45;&gt;148 -->
<g id="edge3" class="edge">
<title>145&#45;&gt;148</title>
<path fill="none" stroke="black" d="M335.86,-31.78C372.56,-28.24 409.51,-24.67 436.65,-22.06"/>
<polygon fill="black" stroke="black" points="436.89,-25.55 446.51,-21.11 436.22,-18.58 436.89,-25.55"/>
</g>
<!-- 147 -->
<!-- name: &quot;bool&quot;, typeName: &quot;&quot;, id: 147, branchId: 0, recurseId: &#45;1, attributes: 512, notes: &quot;&quot; -->
<g id="node3" class="node">
<title>147</title>
<ellipse fill="none" stroke="black" cx="681.39" cy="-72" rx="27.3" ry="18"/>
<text text-anchor="middle" x="681.39" y="-66.95" font-family="Times New Roman,serif" font-size="14.00">bool</text>
</g>
<!-- 146&#45;&gt;147 -->
<g id="edge2" class="edge">
<title>146&#45;&gt;147</title>
<path fill="none" stroke="black" d="M528.31,-72C563.23,-72 610.04,-72 642.47,-72"/>
<polygon fill="black" stroke="black" points="642.2,-75.5 652.2,-72 642.2,-68.5 642.2,-75.5"/>
</g>
<!-- 165 -->
<!-- name: &quot;BiomeMountainParamsData&quot;, typeName: &quot;&quot;, id: 165, branchId: 0, recurseId: &#45;1, attributes: 512, notes: &quot;&quot; -->
<g id="node5" class="node">
<title>165</title>
<ellipse fill="none" stroke="black" cx="681.39" cy="-18" rx="117.37" ry="18"/>
<text text-anchor="middle" x="681.39" y="-12.95" font-family="Times New Roman,serif" font-size="14.00">BiomeMountainParamsData</text>
</g>
<!-- 148&#45;&gt;165 -->
<g id="edge4" class="edge">
<title>148&#45;&gt;165</title>
<path fill="none" stroke="black" d="M511.93,-18C523.47,-18 537.38,-18 552.19,-18"/>
<polygon fill="black" stroke="black" points="552.16,-21.5 562.16,-18 552.16,-14.5 552.16,-21.5"/>
</g>
</g>
</svg>
