<?xml version="1.0" encoding="UTF-8" standalone="no"?>
<!DOCTYPE svg PUBLIC "-//W3C//DTD SVG 1.1//EN"
 "http://www.w3.org/Graphics/SVG/1.1/DTD/svg11.dtd">
<!-- Generated by graphviz version 12.2.1 (20241206.2353)
 -->
<!-- Title: std::optional&lt;struct CameraInstruction::SetInstruction&gt; Pages: 1 -->
<svg width="885pt" height="98pt"
 viewBox="0.00 0.00 884.56 98.00" xmlns="http://www.w3.org/2000/svg" xmlns:xlink="http://www.w3.org/1999/xlink">
<g id="graph0" class="graph" transform="scale(1 1) rotate(0) translate(4 94)">
<title>std::optional&lt;struct CameraInstruction::SetInstruction&gt;</title>
<polygon fill="white" stroke="none" points="-4,4 -4,-94 880.56,-94 880.56,4 -4,4"/>
<!-- 4 -->
<!-- name: &quot;std::optional&lt;struct CameraInstruction::SetInstruction&gt;&quot;, typeName: &quot;&quot;, id: 4, branchId: 0, recurseId: &#45;1, attributes: 0, notes: &quot;&quot; -->
<g id="node1" class="node">
<title>4</title>
<ellipse fill="none" stroke="black" cx="217.18" cy="-45" rx="217.18" ry="18"/>
<text text-anchor="middle" x="217.18" y="-39.95" font-family="Times New Roman,serif" font-size="14.00">std::optional&lt;struct CameraInstruction::SetInstruction&gt;</text>
</g>
<!-- 5 -->
<!-- name: &quot;Has Value&quot;, typeName: &quot;&quot;, id: 5, branchId: 0, recurseId: &#45;1, attributes: 0, notes: &quot;If true, follow with appropriate data type, otherwise nothing&quot; -->
<g id="node2" class="node">
<title>5</title>
<ellipse fill="none" stroke="black" cx="518.64" cy="-72" rx="48.28" ry="18"/>
<text text-anchor="middle" x="518.64" y="-66.95" font-family="Times New Roman,serif" font-size="14.00">Has Value</text>
</g>
<!-- 4&#45;&gt;5 -->
<g id="edge1" class="edge">
<title>4&#45;&gt;5</title>
<path fill="none" stroke="black" d="M366.59,-58.38C399.92,-61.39 433.34,-64.4 460.23,-66.82"/>
<polygon fill="black" stroke="black" points="459.56,-70.28 469.84,-67.69 460.19,-63.31 459.56,-70.28"/>
</g>
<!-- 7 -->
<!-- name: &quot;Value&quot;, typeName: &quot;CameraInstruction::SetInstruction&quot;, id: 7, branchId: 0, recurseId: &#45;1, attributes: 256, notes: &quot;&quot; -->
<g id="node4" class="node">
<title>7</title>
<ellipse fill="none" stroke="black" cx="518.64" cy="-18" rx="31.9" ry="18"/>
<text text-anchor="middle" x="518.64" y="-12.95" font-family="Times New Roman,serif" font-size="14.00">Value</text>
</g>
<!-- 4&#45;&gt;7 -->
<g id="edge3" class="edge">
<title>4&#45;&gt;7</title>
<path fill="none" stroke="black" d="M366.59,-31.62C406.53,-28.02 446.6,-24.4 475.42,-21.81"/>
<polygon fill="black" stroke="black" points="475.51,-25.31 485.16,-20.93 474.88,-18.34 475.51,-25.31"/>
</g>
<!-- 6 -->
<!-- name: &quot;bool&quot;, typeName: &quot;&quot;, id: 6, branchId: 0, recurseId: &#45;1, attributes: 512, notes: &quot;&quot; -->
<g id="node3" class="node">
<title>6</title>
<ellipse fill="none" stroke="black" cx="739.74" cy="-72" rx="27.3" ry="18"/>
<text text-anchor="middle" x="739.74" y="-66.95" font-family="Times New Roman,serif" font-size="14.00">bool</text>
</g>
<!-- 5&#45;&gt;6 -->
<g id="edge2" class="edge">
<title>5&#45;&gt;6</title>
<path fill="none" stroke="black" d="M567.18,-72C607.27,-72 663.88,-72 700.93,-72"/>
<polygon fill="black" stroke="black" points="700.72,-75.5 710.72,-72 700.72,-68.5 700.72,-75.5"/>
</g>
<!-- 86 -->
<!-- name: &quot;CameraInstruction::SetInstruction&quot;, typeName: &quot;&quot;, id: 86, branchId: 0, recurseId: &#45;1, attributes: 512, notes: &quot;&quot; -->
<g id="node5" class="node">
<title>86</title>
<ellipse fill="none" stroke="black" cx="739.74" cy="-18" rx="136.82" ry="18"/>
<text text-anchor="middle" x="739.74" y="-12.95" font-family="Times New Roman,serif" font-size="14.00">CameraInstruction::SetInstruction</text>
</g>
<!-- 7&#45;&gt;86 -->
<g id="edge4" class="edge">
<title>7&#45;&gt;86</title>
<path fill="none" stroke="black" d="M551.03,-18C562.55,-18 576.48,-18 591.48,-18"/>
<polygon fill="black" stroke="black" points="591.06,-21.5 601.06,-18 591.06,-14.5 591.06,-21.5"/>
</g>
</g>
</svg>
