<?xml version="1.0" encoding="UTF-8" standalone="no"?>
<!DOCTYPE svg PUBLIC "-//W3C//DTD SVG 1.1//EN"
 "http://www.w3.org/Graphics/SVG/1.1/DTD/svg11.dtd">
<!-- Generated by graphviz version 12.2.0 (20241103.1931)
 -->
<!-- Title: std::optional&lt;struct SharedTypes::v1_21_50::CameraPresetAimAssistDefinition&gt; Pages: 1 -->
<svg width="861pt" height="44pt"
 viewBox="0.00 0.00 861.02 44.00" xmlns="http://www.w3.org/2000/svg" xmlns:xlink="http://www.w3.org/1999/xlink">
<g id="graph0" class="graph" transform="scale(1 1) rotate(0) translate(4 40)">
<title>std::optional&lt;struct SharedTypes::v1_21_50::CameraPresetAimAssistDefinition&gt;</title>
<polygon fill="white" stroke="none" points="-4,4 -4,-40 857.02,-40 857.02,4 -4,4"/>
<!-- 63 -->
<!-- name: &quot;std::optional&lt;struct SharedTypes::v1_21_50::CameraPresetAimAssistDefinition&gt;&quot;, typeName: &quot;&quot;, id: 63, branchId: 0, recurseId: &#45;1, attributes: 0, notes: &quot;&quot; -->
<g id="node1" class="node">
<title>63</title>
<ellipse fill="none" stroke="black" cx="314.93" cy="-18" rx="314.93" ry="18"/>
<text text-anchor="middle" x="314.93" y="-12.95" font-family="Times New Roman,serif" font-size="14.00">std::optional&lt;struct SharedTypes::v1_21_50::CameraPresetAimAssistDefinition&gt;</text>
</g>
<!-- 64 -->
<!-- name: &quot;Has Value&quot;, typeName: &quot;&quot;, id: 64, branchId: 0, recurseId: &#45;1, attributes: 0, notes: &quot;If true, follow with appropriate data type, otherwise nothing&quot; -->
<g id="node2" class="node">
<title>64</title>
<ellipse fill="none" stroke="black" cx="714.15" cy="-18" rx="48.28" ry="18"/>
<text text-anchor="middle" x="714.15" y="-12.95" font-family="Times New Roman,serif" font-size="14.00">Has Value</text>
</g>
<!-- 63&#45;&gt;64 -->
<g id="edge1" class="edge">
<title>63&#45;&gt;64</title>
<path fill="none" stroke="black" d="M630.36,-18C638.81,-18 646.83,-18 654.31,-18"/>
<polygon fill="black" stroke="black" points="654.1,-21.5 664.1,-18 654.1,-14.5 654.1,-21.5"/>
</g>
<!-- 65 -->
<!-- name: &quot;bool&quot;, typeName: &quot;&quot;, id: 65, branchId: 0, recurseId: &#45;1, attributes: 512, notes: &quot;&quot; -->
<g id="node3" class="node">
<title>65</title>
<ellipse fill="none" stroke="black" cx="825.72" cy="-18" rx="27.3" ry="18"/>
<text text-anchor="middle" x="825.72" y="-12.95" font-family="Times New Roman,serif" font-size="14.00">bool</text>
</g>
<!-- 64&#45;&gt;65 -->
<g id="edge2" class="edge">
<title>64&#45;&gt;65</title>
<path fill="none" stroke="black" d="M762.89,-18C770.93,-18 779.18,-18 786.93,-18"/>
<polygon fill="black" stroke="black" points="786.69,-21.5 796.69,-18 786.69,-14.5 786.69,-21.5"/>
</g>
</g>
</svg>
