<?xml version="1.0" encoding="UTF-8" standalone="no"?>
<!DOCTYPE svg PUBLIC "-//W3C//DTD SVG 1.1//EN"
 "http://www.w3.org/Graphics/SVG/1.1/DTD/svg11.dtd">
<!-- Generated by graphviz version 12.2.1 (20241206.2353)
 -->
<!-- Title: std::optional&lt;struct BiomeDefinitionChunkGenData&gt; Pages: 1 -->
<svg width="862pt" height="98pt"
 viewBox="0.00 0.00 862.04 98.00" xmlns="http://www.w3.org/2000/svg" xmlns:xlink="http://www.w3.org/1999/xlink">
<g id="graph0" class="graph" transform="scale(1 1) rotate(0) translate(4 94)">
<title>std::optional&lt;struct BiomeDefinitionChunkGenData&gt;</title>
<polygon fill="white" stroke="none" points="-4,4 -4,-94 858.04,-94 858.04,4 -4,4"/>
<!-- 54 -->
<!-- name: &quot;std::optional&lt;struct BiomeDefinitionChunkGenData&gt;&quot;, typeName: &quot;&quot;, id: 54, branchId: 0, recurseId: &#45;1, attributes: 0, notes: &quot;&quot; -->
<g id="node1" class="node">
<title>54</title>
<ellipse fill="none" stroke="black" cx="211.55" cy="-45" rx="211.55" ry="18"/>
<text text-anchor="middle" x="211.55" y="-39.95" font-family="Times New Roman,serif" font-size="14.00">std::optional&lt;struct BiomeDefinitionChunkGenData&gt;</text>
</g>
<!-- 55 -->
<!-- name: &quot;Has Value&quot;, typeName: &quot;&quot;, id: 55, branchId: 0, recurseId: &#45;1, attributes: 0, notes: &quot;If true, follow with appropriate data type, otherwise nothing&quot; -->
<g id="node2" class="node">
<title>55</title>
<ellipse fill="none" stroke="black" cx="507.38" cy="-72" rx="48.28" ry="18"/>
<text text-anchor="middle" x="507.38" y="-66.95" font-family="Times New Roman,serif" font-size="14.00">Has Value</text>
</g>
<!-- 54&#45;&gt;55 -->
<g id="edge1" class="edge">
<title>54&#45;&gt;55</title>
<path fill="none" stroke="black" d="M357.74,-58.34C390.11,-61.32 422.59,-64.3 448.89,-66.72"/>
<polygon fill="black" stroke="black" points="448.36,-70.18 458.64,-67.61 449,-63.21 448.36,-70.18"/>
</g>
<!-- 57 -->
<!-- name: &quot;Value&quot;, typeName: &quot;BiomeDefinitionChunkGenData&quot;, id: 57, branchId: 0, recurseId: &#45;1, attributes: 256, notes: &quot;&quot; -->
<g id="node4" class="node">
<title>57</title>
<ellipse fill="none" stroke="black" cx="507.38" cy="-18" rx="31.9" ry="18"/>
<text text-anchor="middle" x="507.38" y="-12.95" font-family="Times New Roman,serif" font-size="14.00">Value</text>
</g>
<!-- 54&#45;&gt;57 -->
<g id="edge3" class="edge">
<title>54&#45;&gt;57</title>
<path fill="none" stroke="black" d="M357.74,-31.66C396.7,-28.08 435.83,-24.48 464.15,-21.88"/>
<polygon fill="black" stroke="black" points="464.45,-25.37 474.09,-20.97 463.81,-18.4 464.45,-25.37"/>
</g>
<!-- 56 -->
<!-- name: &quot;bool&quot;, typeName: &quot;&quot;, id: 56, branchId: 0, recurseId: &#45;1, attributes: 512, notes: &quot;&quot; -->
<g id="node3" class="node">
<title>56</title>
<ellipse fill="none" stroke="black" cx="722.85" cy="-72" rx="27.3" ry="18"/>
<text text-anchor="middle" x="722.85" y="-66.95" font-family="Times New Roman,serif" font-size="14.00">bool</text>
</g>
<!-- 55&#45;&gt;56 -->
<g id="edge2" class="edge">
<title>55&#45;&gt;56</title>
<path fill="none" stroke="black" d="M556.02,-72C594.55,-72 648.08,-72 683.79,-72"/>
<polygon fill="black" stroke="black" points="683.65,-75.5 693.65,-72 683.65,-68.5 683.65,-75.5"/>
</g>
<!-- 369 -->
<!-- name: &quot;BiomeDefinitionChunkGenData&quot;, typeName: &quot;&quot;, id: 369, branchId: 0, recurseId: &#45;1, attributes: 512, notes: &quot;&quot; -->
<g id="node5" class="node">
<title>369</title>
<ellipse fill="none" stroke="black" cx="722.85" cy="-18" rx="131.19" ry="18"/>
<text text-anchor="middle" x="722.85" y="-12.95" font-family="Times New Roman,serif" font-size="14.00">BiomeDefinitionChunkGenData</text>
</g>
<!-- 57&#45;&gt;369 -->
<g id="edge4" class="edge">
<title>57&#45;&gt;369</title>
<path fill="none" stroke="black" d="M539.42,-18C551.05,-18 565.15,-18 580.3,-18"/>
<polygon fill="black" stroke="black" points="579.99,-21.5 589.99,-18 579.99,-14.5 579.99,-21.5"/>
</g>
</g>
</svg>
