<?xml version="1.0" encoding="UTF-8" standalone="no"?>
<!DOCTYPE svg PUBLIC "-//W3C//DTD SVG 1.1//EN"
 "http://www.w3.org/Graphics/SVG/1.1/DTD/svg11.dtd">
<!-- Generated by graphviz version 11.0.0 (20240428.1522)
 -->
<!-- Title: std::bitset&lt;65&gt; Pages: 1 -->
<svg width="374pt" height="314pt"
 viewBox="0.00 0.00 374.18 314.00" xmlns="http://www.w3.org/2000/svg" xmlns:xlink="http://www.w3.org/1999/xlink">
<g id="graph0" class="graph" transform="scale(1 1) rotate(0) translate(4 310)">
<title>std::bitset&lt;65&gt;</title>
<polygon fill="white" stroke="none" points="-4,4 -4,-310 370.18,-310 370.18,4 -4,4"/>
<!-- 10 -->
<!-- name: &quot;std::bitset&lt;65&gt;&quot;, typeName: &quot;&quot;, id: 10, branchId: 0, recurseId: &#45;1, attributes: 0, notes: &quot;&quot; -->
<g id="node1" class="node">
<title>10</title>
<ellipse fill="none" stroke="black" cx="66.03" cy="-153" rx="66.03" ry="18"/>
<text text-anchor="middle" x="66.03" y="-147.57" font-family="Times New Roman,serif" font-size="14.00">std::bitset&lt;65&gt;</text>
</g>
<!-- 11 -->
<!-- name: &quot;Bitset bytes&quot;, typeName: &quot;&quot;, id: 11, branchId: 0, recurseId: &#45;1, attributes: 0, notes: &quot;&quot; -->
<g id="node2" class="node">
<title>11</title>
<ellipse fill="none" stroke="black" cx="222.13" cy="-288" rx="54.06" ry="18"/>
<text text-anchor="middle" x="222.13" y="-282.57" font-family="Times New Roman,serif" font-size="14.00">Bitset bytes</text>
</g>
<!-- 10&#45;&gt;11 -->
<g id="edge1" class="edge">
<title>10&#45;&gt;11</title>
<path fill="none" stroke="black" d="M80.5,-170.88C98.52,-193.91 132.36,-234.15 168.07,-261 171.36,-263.47 174.91,-265.83 178.56,-268.05"/>
<polygon fill="black" stroke="black" points="176.61,-270.97 187.03,-272.84 180.05,-264.87 176.61,-270.97"/>
</g>
<!-- 13 -->
<!-- name: &quot;Bitset bytes&quot;, typeName: &quot;&quot;, id: 13, branchId: 0, recurseId: &#45;1, attributes: 0, notes: &quot;&quot; -->
<g id="node4" class="node">
<title>13</title>
<ellipse fill="none" stroke="black" cx="222.13" cy="-234" rx="54.06" ry="18"/>
<text text-anchor="middle" x="222.13" y="-228.57" font-family="Times New Roman,serif" font-size="14.00">Bitset bytes</text>
</g>
<!-- 10&#45;&gt;13 -->
<g id="edge3" class="edge">
<title>10&#45;&gt;13</title>
<path fill="none" stroke="black" d="M97.01,-169.23C117.07,-180.03 144.09,-194.49 168.07,-207 172.24,-209.18 176.61,-211.44 180.98,-213.68"/>
<polygon fill="black" stroke="black" points="179.2,-216.7 189.7,-218.14 182.39,-210.47 179.2,-216.7"/>
</g>
<!-- 15 -->
<!-- name: &quot;Bitset bytes&quot;, typeName: &quot;&quot;, id: 15, branchId: 0, recurseId: &#45;1, attributes: 0, notes: &quot;&quot; -->
<g id="node6" class="node">
<title>15</title>
<ellipse fill="none" stroke="black" cx="222.13" cy="-180" rx="54.06" ry="18"/>
<text text-anchor="middle" x="222.13" y="-174.57" font-family="Times New Roman,serif" font-size="14.00">Bitset bytes</text>
</g>
<!-- 10&#45;&gt;15 -->
<g id="edge5" class="edge">
<title>10&#45;&gt;15</title>
<path fill="none" stroke="black" d="M122.23,-162.67C135.19,-164.94 149.04,-167.37 162.16,-169.67"/>
<polygon fill="black" stroke="black" points="161.51,-173.11 171.96,-171.39 162.72,-166.21 161.51,-173.11"/>
</g>
<!-- 17 -->
<!-- name: &quot;Bitset bytes&quot;, typeName: &quot;&quot;, id: 17, branchId: 0, recurseId: &#45;1, attributes: 0, notes: &quot;&quot; -->
<g id="node8" class="node">
<title>17</title>
<ellipse fill="none" stroke="black" cx="222.13" cy="-126" rx="54.06" ry="18"/>
<text text-anchor="middle" x="222.13" y="-120.58" font-family="Times New Roman,serif" font-size="14.00">Bitset bytes</text>
</g>
<!-- 10&#45;&gt;17 -->
<g id="edge7" class="edge">
<title>10&#45;&gt;17</title>
<path fill="none" stroke="black" d="M122.23,-143.33C135.19,-141.06 149.04,-138.63 162.16,-136.33"/>
<polygon fill="black" stroke="black" points="162.72,-139.79 171.96,-134.61 161.51,-132.89 162.72,-139.79"/>
</g>
<!-- 19 -->
<!-- name: &quot;Bitset bytes&quot;, typeName: &quot;&quot;, id: 19, branchId: 0, recurseId: &#45;1, attributes: 0, notes: &quot;&quot; -->
<g id="node10" class="node">
<title>19</title>
<ellipse fill="none" stroke="black" cx="222.13" cy="-72" rx="54.06" ry="18"/>
<text text-anchor="middle" x="222.13" y="-66.58" font-family="Times New Roman,serif" font-size="14.00">Bitset bytes</text>
</g>
<!-- 10&#45;&gt;19 -->
<g id="edge9" class="edge">
<title>10&#45;&gt;19</title>
<path fill="none" stroke="black" d="M97.01,-136.77C117.07,-125.97 144.09,-111.51 168.07,-99 172.24,-96.82 176.61,-94.56 180.98,-92.32"/>
<polygon fill="black" stroke="black" points="182.39,-95.53 189.7,-87.86 179.2,-89.3 182.39,-95.53"/>
</g>
<!-- 21 -->
<!-- name: &quot;Bitset bytes&quot;, typeName: &quot;&quot;, id: 21, branchId: 0, recurseId: &#45;1, attributes: 0, notes: &quot;&quot; -->
<g id="node12" class="node">
<title>21</title>
<ellipse fill="none" stroke="black" cx="222.13" cy="-18" rx="54.06" ry="18"/>
<text text-anchor="middle" x="222.13" y="-12.57" font-family="Times New Roman,serif" font-size="14.00">Bitset bytes</text>
</g>
<!-- 10&#45;&gt;21 -->
<g id="edge11" class="edge">
<title>10&#45;&gt;21</title>
<path fill="none" stroke="black" d="M80.5,-135.12C98.52,-112.09 132.36,-71.85 168.07,-45 171.36,-42.53 174.91,-40.17 178.56,-37.95"/>
<polygon fill="black" stroke="black" points="180.05,-41.13 187.03,-33.16 176.61,-35.03 180.05,-41.13"/>
</g>
<!-- 12 -->
<!-- name: &quot;byte&quot;, typeName: &quot;&quot;, id: 12, branchId: 0, recurseId: &#45;1, attributes: 512, notes: &quot;&quot; -->
<g id="node3" class="node">
<title>12</title>
<ellipse fill="none" stroke="black" cx="339.18" cy="-288" rx="27" ry="18"/>
<text text-anchor="middle" x="339.18" y="-282.57" font-family="Times New Roman,serif" font-size="14.00">byte</text>
</g>
<!-- 11&#45;&gt;12 -->
<g id="edge2" class="edge">
<title>11&#45;&gt;12</title>
<path fill="none" stroke="black" d="M276.61,-288C284.62,-288 292.74,-288 300.33,-288"/>
<polygon fill="black" stroke="black" points="300.24,-291.5 310.24,-288 300.24,-284.5 300.24,-291.5"/>
</g>
<!-- 14 -->
<!-- name: &quot;byte&quot;, typeName: &quot;&quot;, id: 14, branchId: 0, recurseId: &#45;1, attributes: 512, notes: &quot;&quot; -->
<g id="node5" class="node">
<title>14</title>
<ellipse fill="none" stroke="black" cx="339.18" cy="-234" rx="27" ry="18"/>
<text text-anchor="middle" x="339.18" y="-228.57" font-family="Times New Roman,serif" font-size="14.00">byte</text>
</g>
<!-- 13&#45;&gt;14 -->
<g id="edge4" class="edge">
<title>13&#45;&gt;14</title>
<path fill="none" stroke="black" d="M276.61,-234C284.62,-234 292.74,-234 300.33,-234"/>
<polygon fill="black" stroke="black" points="300.24,-237.5 310.24,-234 300.24,-230.5 300.24,-237.5"/>
</g>
<!-- 16 -->
<!-- name: &quot;byte&quot;, typeName: &quot;&quot;, id: 16, branchId: 0, recurseId: &#45;1, attributes: 512, notes: &quot;&quot; -->
<g id="node7" class="node">
<title>16</title>
<ellipse fill="none" stroke="black" cx="339.18" cy="-180" rx="27" ry="18"/>
<text text-anchor="middle" x="339.18" y="-174.57" font-family="Times New Roman,serif" font-size="14.00">byte</text>
</g>
<!-- 15&#45;&gt;16 -->
<g id="edge6" class="edge">
<title>15&#45;&gt;16</title>
<path fill="none" stroke="black" d="M276.61,-180C284.62,-180 292.74,-180 300.33,-180"/>
<polygon fill="black" stroke="black" points="300.24,-183.5 310.24,-180 300.24,-176.5 300.24,-183.5"/>
</g>
<!-- 18 -->
<!-- name: &quot;byte&quot;, typeName: &quot;&quot;, id: 18, branchId: 0, recurseId: &#45;1, attributes: 512, notes: &quot;&quot; -->
<g id="node9" class="node">
<title>18</title>
<ellipse fill="none" stroke="black" cx="339.18" cy="-126" rx="27" ry="18"/>
<text text-anchor="middle" x="339.18" y="-120.58" font-family="Times New Roman,serif" font-size="14.00">byte</text>
</g>
<!-- 17&#45;&gt;18 -->
<g id="edge8" class="edge">
<title>17&#45;&gt;18</title>
<path fill="none" stroke="black" d="M276.61,-126C284.62,-126 292.74,-126 300.33,-126"/>
<polygon fill="black" stroke="black" points="300.24,-129.5 310.24,-126 300.24,-122.5 300.24,-129.5"/>
</g>
<!-- 20 -->
<!-- name: &quot;byte&quot;, typeName: &quot;&quot;, id: 20, branchId: 0, recurseId: &#45;1, attributes: 512, notes: &quot;&quot; -->
<g id="node11" class="node">
<title>20</title>
<ellipse fill="none" stroke="black" cx="339.18" cy="-72" rx="27" ry="18"/>
<text text-anchor="middle" x="339.18" y="-66.58" font-family="Times New Roman,serif" font-size="14.00">byte</text>
</g>
<!-- 19&#45;&gt;20 -->
<g id="edge10" class="edge">
<title>19&#45;&gt;20</title>
<path fill="none" stroke="black" d="M276.61,-72C284.62,-72 292.74,-72 300.33,-72"/>
<polygon fill="black" stroke="black" points="300.24,-75.5 310.24,-72 300.24,-68.5 300.24,-75.5"/>
</g>
<!-- 22 -->
<!-- name: &quot;byte&quot;, typeName: &quot;&quot;, id: 22, branchId: 0, recurseId: &#45;1, attributes: 512, notes: &quot;&quot; -->
<g id="node13" class="node">
<title>22</title>
<ellipse fill="none" stroke="black" cx="339.18" cy="-18" rx="27" ry="18"/>
<text text-anchor="middle" x="339.18" y="-12.57" font-family="Times New Roman,serif" font-size="14.00">byte</text>
</g>
<!-- 21&#45;&gt;22 -->
<g id="edge12" class="edge">
<title>21&#45;&gt;22</title>
<path fill="none" stroke="black" d="M276.61,-18C284.62,-18 292.74,-18 300.33,-18"/>
<polygon fill="black" stroke="black" points="300.24,-21.5 310.24,-18 300.24,-14.5 300.24,-21.5"/>
</g>
</g>
</svg>
