<?xml version="1.0" encoding="UTF-8" standalone="no"?>
<!DOCTYPE svg PUBLIC "-//W3C//DTD SVG 1.1//EN"
 "http://www.w3.org/Graphics/SVG/1.1/DTD/svg11.dtd">
<!-- Generated by graphviz version 2.46.1 (20210213.1702)
 -->
<!-- Title: String Pages: 1 -->
<svg width="691pt" height="98pt"
 viewBox="0.00 0.00 691.45 98.00" xmlns="http://www.w3.org/2000/svg" xmlns:xlink="http://www.w3.org/1999/xlink">
<g id="graph0" class="graph" transform="scale(1 1) rotate(0) translate(4 94)">
<title>String</title>
<polygon fill="white" stroke="transparent" points="-4,4 -4,-94 687.45,-94 687.45,4 -4,4"/>
<!-- 0 -->
<!-- name: &quot;String&quot;, typeName: &quot;&quot;, id: 0, branchId: 0, recurseId: &#45;1, attributes: 0, notes: &quot;&quot; -->
<g id="node1" class="node">
<title>0</title>
<ellipse fill="none" stroke="black" cx="32.5" cy="-45" rx="32.49" ry="18"/>
<text text-anchor="middle" x="32.5" y="-41.3" font-family="Times New Roman,serif" font-size="14.00">String</text>
</g>
<!-- 1 -->
<!-- name: &quot;Byte Array&quot;, typeName: &quot;&quot;, id: 1, branchId: 0, recurseId: &#45;1, attributes: 8, notes: &quot;&quot; -->
<g id="node2" class="node">
<title>1</title>
<ellipse fill="none" stroke="black" cx="151.04" cy="-45" rx="50.09" ry="18"/>
<text text-anchor="middle" x="151.04" y="-41.3" font-family="Times New Roman,serif" font-size="14.00">Byte Array</text>
</g>
<!-- 0&#45;&gt;1 -->
<g id="edge1" class="edge">
<title>0&#45;&gt;1</title>
<path fill="none" stroke="black" d="M65.04,-45C73.07,-45 81.97,-45 90.89,-45"/>
<polygon fill="black" stroke="black" points="90.93,-48.5 100.93,-45 90.93,-41.5 90.93,-48.5"/>
</g>
<!-- 2 -->
<!-- name: &quot;Array Size&quot;, typeName: &quot;&quot;, id: 2, branchId: 0, recurseId: &#45;1, attributes: 0, notes: &quot;&quot; -->
<g id="node3" class="node">
<title>2</title>
<ellipse fill="none" stroke="black" cx="464.82" cy="-72" rx="48.99" ry="18"/>
<text text-anchor="middle" x="464.82" y="-68.3" font-family="Times New Roman,serif" font-size="14.00">Array Size</text>
</g>
<!-- 1&#45;&gt;2 -->
<g id="edge2" class="edge">
<title>1&#45;&gt;2</title>
<path fill="none" stroke="black" d="M200.07,-49.16C255.83,-53.99 347.68,-61.94 406.95,-67.08"/>
<polygon fill="black" stroke="black" points="407,-70.59 417.26,-67.97 407.6,-63.62 407,-70.59"/>
</g>
<!-- 4 -->
<!-- name: &quot;example element&quot;, typeName: &quot;&quot;, id: 4, branchId: 0, recurseId: &#45;1, attributes: 16, notes: &quot;&quot; -->
<g id="node5" class="node">
<title>4</title>
<ellipse fill="none" stroke="black" stroke-dasharray="1,5" cx="307.28" cy="-22" rx="70.39" ry="18"/>
<text text-anchor="middle" x="307.28" y="-18.3" font-family="Times New Roman,serif" font-size="14.00">example element</text>
</g>
<!-- 1&#45;&gt;4 -->
<g id="edge4" class="edge">
<title>1&#45;&gt;4</title>
<path fill="none" stroke="black" d="M197.48,-38.22C209.66,-36.41 223.12,-34.4 236.29,-32.44"/>
<polygon fill="black" stroke="black" points="236.91,-35.88 246.29,-30.95 235.88,-28.96 236.91,-35.88"/>
</g>
<!-- 3 -->
<!-- name: &quot;unsigned varint&quot;, typeName: &quot;&quot;, id: 3, branchId: 0, recurseId: &#45;1, attributes: 512, notes: &quot;&quot; -->
<g id="node4" class="node">
<title>3</title>
<ellipse fill="none" stroke="black" cx="617.81" cy="-72" rx="65.79" ry="18"/>
<text text-anchor="middle" x="617.81" y="-68.3" font-family="Times New Roman,serif" font-size="14.00">unsigned varint</text>
</g>
<!-- 2&#45;&gt;3 -->
<g id="edge3" class="edge">
<title>2&#45;&gt;3</title>
<path fill="none" stroke="black" d="M513.59,-72C522.63,-72 532.29,-72 541.93,-72"/>
<polygon fill="black" stroke="black" points="541.95,-75.5 551.95,-72 541.95,-68.5 541.95,-75.5"/>
</g>
<!-- 5 -->
<!-- name: &quot;String Data&quot;, typeName: &quot;&quot;, id: 5, branchId: 0, recurseId: &#45;1, attributes: 0, notes: &quot;&quot; -->
<g id="node6" class="node">
<title>5</title>
<ellipse fill="none" stroke="black" cx="464.82" cy="-18" rx="51.19" ry="18"/>
<text text-anchor="middle" x="464.82" y="-14.3" font-family="Times New Roman,serif" font-size="14.00">String Data</text>
</g>
<!-- 4&#45;&gt;5 -->
<g id="edge5" class="edge">
<title>4&#45;&gt;5</title>
<path fill="none" stroke="black" d="M377.41,-20.22C386.06,-20 394.86,-19.77 403.36,-19.55"/>
<polygon fill="black" stroke="black" points="403.66,-23.05 413.56,-19.29 403.48,-16.05 403.66,-23.05"/>
</g>
<!-- 6 -->
<!-- name: &quot;byte&quot;, typeName: &quot;&quot;, id: 6, branchId: 0, recurseId: &#45;1, attributes: 512, notes: &quot;&quot; -->
<g id="node7" class="node">
<title>6</title>
<ellipse fill="none" stroke="black" cx="617.81" cy="-18" rx="27" ry="18"/>
<text text-anchor="middle" x="617.81" y="-14.3" font-family="Times New Roman,serif" font-size="14.00">byte</text>
</g>
<!-- 5&#45;&gt;6 -->
<g id="edge6" class="edge">
<title>5&#45;&gt;6</title>
<path fill="none" stroke="black" d="M516.52,-18C537.48,-18 561.31,-18 580.48,-18"/>
<polygon fill="black" stroke="black" points="580.61,-21.5 590.61,-18 580.61,-14.5 580.61,-21.5"/>
</g>
</g>
</svg>
