<?xml version="1.0" encoding="UTF-8" standalone="no"?>
<!DOCTYPE svg PUBLIC "-//W3C//DTD SVG 1.1//EN"
 "http://www.w3.org/Graphics/SVG/1.1/DTD/svg11.dtd">
<!-- Generated by graphviz version 14.1.5 (20260411.2331)
 -->
<!-- Title: StringTag Pages: 1 -->
<svg width="292pt" height="44pt"
 viewBox="0.00 0.00 292.00 44.00" xmlns="http://www.w3.org/2000/svg" xmlns:xlink="http://www.w3.org/1999/xlink">
<g id="graph0" class="graph" transform="scale(1 1) rotate(0) translate(4 40)">
<title>StringTag</title>
<polygon fill="white" stroke="none" points="-4,4 -4,-40 288.32,-40 288.32,4 -4,4"/>
<!-- 0 -->
<!-- name: &quot;StringTag&quot;, typeName: &quot;&quot;, id: 0, branchId: 0, recurseId: &#45;1, attributes: 0, notes: &quot;&quot; -->
<g id="node1" class="node">
<title>0</title>
<ellipse fill="none" stroke="black" cx="47.26" cy="-18" rx="47.26" ry="18"/>
<text xml:space="preserve" text-anchor="middle" x="47.26" y="-12.95" font-family="Times New Roman,serif" font-size="14.00">StringTag</text>
</g>
<!-- 1 -->
<!-- name: &quot;data&quot;, typeName: &quot;&quot;, id: 1, branchId: 0, recurseId: &#45;1, attributes: 0, notes: &quot;&quot; -->
<g id="node2" class="node">
<title>1</title>
<ellipse fill="none" stroke="black" cx="157.51" cy="-18" rx="27" ry="18"/>
<text xml:space="preserve" text-anchor="middle" x="157.51" y="-12.95" font-family="Times New Roman,serif" font-size="14.00">data</text>
</g>
<!-- 0&#45;&gt;1 -->
<g id="edge1" class="edge">
<title>0&#45;&gt;1</title>
<path fill="none" stroke="black" d="M94.8,-18C102.86,-18 111.16,-18 118.95,-18"/>
<polygon fill="black" stroke="black" points="118.78,-21.5 128.78,-18 118.78,-14.5 118.78,-21.5"/>
</g>
<!-- 2 -->
<!-- name: &quot;string&quot;, typeName: &quot;&quot;, id: 2, branchId: 0, recurseId: &#45;1, attributes: 512, notes: &quot;&quot; -->
<g id="node3" class="node">
<title>2</title>
<ellipse fill="none" stroke="black" cx="252.42" cy="-18" rx="31.9" ry="18"/>
<text xml:space="preserve" text-anchor="middle" x="252.42" y="-12.95" font-family="Times New Roman,serif" font-size="14.00">string</text>
</g>
<!-- 1&#45;&gt;2 -->
<g id="edge2" class="edge">
<title>1&#45;&gt;2</title>
<path fill="none" stroke="black" d="M184.89,-18C192.33,-18 200.61,-18 208.75,-18"/>
<polygon fill="black" stroke="black" points="208.52,-21.5 218.52,-18 208.52,-14.5 208.52,-21.5"/>
</g>
</g>
</svg>
