<?xml version="1.0" encoding="UTF-8" standalone="no"?>
<!DOCTYPE svg PUBLIC "-//W3C//DTD SVG 1.1//EN"
 "http://www.w3.org/Graphics/SVG/1.1/DTD/svg11.dtd">
<!-- Generated by graphviz version 11.0.0 (20240428.1522)
 -->
<!-- Title: String Pages: 1 -->
<svg width="717pt" height="98pt"
 viewBox="0.00 0.00 716.53 98.00" xmlns="http://www.w3.org/2000/svg" xmlns:xlink="http://www.w3.org/1999/xlink">
<g id="graph0" class="graph" transform="scale(1 1) rotate(0) translate(4 94)">
<title>String</title>
<polygon fill="white" stroke="none" points="-4,4 -4,-94 712.53,-94 712.53,4 -4,4"/>
<!-- 0 -->
<!-- name: &quot;String&quot;, typeName: &quot;&quot;, id: 0, branchId: 0, recurseId: &#45;1, attributes: 0, notes: &quot;&quot; -->
<g id="node1" class="node">
<title>0</title>
<ellipse fill="none" stroke="black" cx="32.6" cy="-45" rx="32.6" ry="18"/>
<text text-anchor="middle" x="32.6" y="-39.58" font-family="Times New Roman,serif" font-size="14.00">String</text>
</g>
<!-- 1 -->
<!-- name: &quot;Byte Array&quot;, typeName: &quot;&quot;, id: 1, branchId: 0, recurseId: &#45;1, attributes: 8, notes: &quot;&quot; -->
<g id="node2" class="node">
<title>1</title>
<ellipse fill="none" stroke="black" cx="152.27" cy="-45" rx="51.06" ry="18"/>
<text text-anchor="middle" x="152.27" y="-39.58" font-family="Times New Roman,serif" font-size="14.00">Byte Array</text>
</g>
<!-- 0&#45;&gt;1 -->
<g id="edge1" class="edge">
<title>0&#45;&gt;1</title>
<path fill="none" stroke="black" d="M65.44,-45C72.93,-45 81.16,-45 89.47,-45"/>
<polygon fill="black" stroke="black" points="89.28,-48.5 99.28,-45 89.28,-41.5 89.28,-48.5"/>
</g>
<!-- 2 -->
<!-- name: &quot;String Length&quot;, typeName: &quot;&quot;, id: 2, branchId: 0, recurseId: &#45;1, attributes: 0, notes: &quot;&quot; -->
<g id="node3" class="node">
<title>2</title>
<ellipse fill="none" stroke="black" cx="478.92" cy="-72" rx="60.54" ry="18"/>
<text text-anchor="middle" x="478.92" y="-66.58" font-family="Times New Roman,serif" font-size="14.00">String Length</text>
</g>
<!-- 1&#45;&gt;2 -->
<g id="edge2" class="edge">
<title>1&#45;&gt;2</title>
<path fill="none" stroke="black" d="M202.22,-49.07C257.17,-53.64 346.73,-61.09 408.8,-66.25"/>
<polygon fill="black" stroke="black" points="408.29,-69.72 418.55,-67.06 408.87,-62.75 408.29,-69.72"/>
</g>
<!-- 4 -->
<!-- name: &quot;example element&quot;, typeName: &quot;&quot;, id: 4, branchId: 0, recurseId: &#45;1, attributes: 16, notes: &quot;&quot; -->
<g id="node5" class="node">
<title>4</title>
<ellipse fill="none" stroke="black" stroke-dasharray="1,5" cx="310.85" cy="-22" rx="71.52" ry="18"/>
<text text-anchor="middle" x="310.85" y="-16.57" font-family="Times New Roman,serif" font-size="14.00">example element</text>
</g>
<!-- 1&#45;&gt;4 -->
<g id="edge4" class="edge">
<title>1&#45;&gt;4</title>
<path fill="none" stroke="black" d="M199.82,-38.16C211.54,-36.44 224.39,-34.55 237.05,-32.69"/>
<polygon fill="black" stroke="black" points="237.22,-36.21 246.6,-31.29 236.2,-29.28 237.22,-36.21"/>
</g>
<!-- 3 -->
<!-- name: &quot;unsigned varint&quot;, typeName: &quot;&quot;, id: 3, branchId: 0, recurseId: &#45;1, attributes: 512, notes: &quot;&quot; -->
<g id="node4" class="node">
<title>3</title>
<ellipse fill="none" stroke="black" cx="642" cy="-72" rx="66.53" ry="18"/>
<text text-anchor="middle" x="642" y="-66.58" font-family="Times New Roman,serif" font-size="14.00">unsigned varint</text>
</g>
<!-- 2&#45;&gt;3 -->
<g id="edge3" class="edge">
<title>2&#45;&gt;3</title>
<path fill="none" stroke="black" d="M539.9,-72C547.68,-72 555.74,-72 563.75,-72"/>
<polygon fill="black" stroke="black" points="563.5,-75.5 573.5,-72 563.5,-68.5 563.5,-75.5"/>
</g>
<!-- 5 -->
<!-- name: &quot;String Data&quot;, typeName: &quot;&quot;, id: 5, branchId: 0, recurseId: &#45;1, attributes: 0, notes: &quot;&quot; -->
<g id="node6" class="node">
<title>5</title>
<ellipse fill="none" stroke="black" cx="478.92" cy="-18" rx="52.06" ry="18"/>
<text text-anchor="middle" x="478.92" y="-12.57" font-family="Times New Roman,serif" font-size="14.00">String Data</text>
</g>
<!-- 4&#45;&gt;5 -->
<g id="edge5" class="edge">
<title>4&#45;&gt;5</title>
<path fill="none" stroke="black" d="M382.28,-20.3C393.19,-20.04 404.39,-19.77 415.11,-19.51"/>
<polygon fill="black" stroke="black" points="415.1,-23.01 425.01,-19.27 414.93,-16.02 415.1,-23.01"/>
</g>
<!-- 6 -->
<!-- name: &quot;byte&quot;, typeName: &quot;&quot;, id: 6, branchId: 0, recurseId: &#45;1, attributes: 512, notes: &quot;&quot; -->
<g id="node7" class="node">
<title>6</title>
<ellipse fill="none" stroke="black" cx="642" cy="-18" rx="27" ry="18"/>
<text text-anchor="middle" x="642" y="-12.57" font-family="Times New Roman,serif" font-size="14.00">byte</text>
</g>
<!-- 5&#45;&gt;6 -->
<g id="edge6" class="edge">
<title>5&#45;&gt;6</title>
<path fill="none" stroke="black" d="M531.33,-18C554.79,-18 582.06,-18 603.54,-18"/>
<polygon fill="black" stroke="black" points="603.3,-21.5 613.3,-18 603.3,-14.5 603.3,-21.5"/>
</g>
</g>
</svg>
