<?xml version="1.0" encoding="UTF-8" standalone="no"?>
<!DOCTYPE svg PUBLIC "-//W3C//DTD SVG 1.1//EN"
 "http://www.w3.org/Graphics/SVG/1.1/DTD/svg11.dtd">
<!-- Generated by graphviz version 2.46.1 (20210213.1702)
 -->
<!-- Title: StructureTemplateDataRequestPacket Pages: 1 -->
<svg width="738pt" height="206pt"
 viewBox="0.00 0.00 737.74 206.00" xmlns="http://www.w3.org/2000/svg" xmlns:xlink="http://www.w3.org/1999/xlink">
<g id="graph0" class="graph" transform="scale(1 1) rotate(0) translate(4 202)">
<title>StructureTemplateDataRequestPacket</title>
<polygon fill="white" stroke="transparent" points="-4,4 -4,-202 733.74,-202 733.74,4 -4,4"/>
<!-- 0 -->
<!-- name: &quot;StructureTemplateDataRequestPacket&quot;, typeName: &quot;&quot;, id: 0, branchId: 132, recurseId: &#45;1, attributes: 0, notes: &quot;&quot; -->
<g id="node1" class="node">
<title>0</title>
<ellipse fill="none" stroke="black" cx="148.19" cy="-99" rx="148.37" ry="18"/>
<text text-anchor="middle" x="148.19" y="-95.3" font-family="Times New Roman,serif" font-size="14.00">StructureTemplateDataRequestPacket</text>
</g>
<!-- 1 -->
<!-- name: &quot;Structure Name&quot;, typeName: &quot;&quot;, id: 1, branchId: 0, recurseId: &#45;1, attributes: 0, notes: &quot;&quot; -->
<g id="node2" class="node">
<title>1</title>
<ellipse fill="none" stroke="black" cx="420.12" cy="-180" rx="67.69" ry="18"/>
<text text-anchor="middle" x="420.12" y="-176.3" font-family="Times New Roman,serif" font-size="14.00">Structure Name</text>
</g>
<!-- 0&#45;&gt;1 -->
<g id="edge1" class="edge">
<title>0&#45;&gt;1</title>
<path fill="none" stroke="black" d="M204.79,-115.69C251.62,-129.74 318.21,-149.72 364.7,-163.67"/>
<polygon fill="black" stroke="black" points="363.72,-167.03 374.3,-166.55 365.73,-160.33 363.72,-167.03"/>
</g>
<!-- 3 -->
<!-- name: &quot;Structure Position&quot;, typeName: &quot;NetworkBlockPosition&quot;, id: 3, branchId: 0, recurseId: &#45;1, attributes: 256, notes: &quot;&quot; -->
<g id="node4" class="node">
<title>3</title>
<ellipse fill="none" stroke="black" cx="420.12" cy="-126" rx="76.09" ry="18"/>
<text text-anchor="middle" x="420.12" y="-122.3" font-family="Times New Roman,serif" font-size="14.00">Structure Position</text>
</g>
<!-- 0&#45;&gt;3 -->
<g id="edge3" class="edge">
<title>0&#45;&gt;3</title>
<path fill="none" stroke="black" d="M263.27,-110.41C288.95,-112.98 315.67,-115.65 339.58,-118.04"/>
<polygon fill="black" stroke="black" points="339.34,-121.54 349.64,-119.05 340.04,-114.57 339.34,-121.54"/>
</g>
<!-- 5 -->
<!-- name: &quot;Structure Settings&quot;, typeName: &quot;StructureSettings&quot;, id: 5, branchId: 0, recurseId: &#45;1, attributes: 256, notes: &quot;&quot; -->
<g id="node6" class="node">
<title>5</title>
<ellipse fill="none" stroke="black" cx="420.12" cy="-72" rx="75.29" ry="18"/>
<text text-anchor="middle" x="420.12" y="-68.3" font-family="Times New Roman,serif" font-size="14.00">Structure Settings</text>
</g>
<!-- 0&#45;&gt;5 -->
<g id="edge5" class="edge">
<title>0&#45;&gt;5</title>
<path fill="none" stroke="black" d="M263.27,-87.59C289.21,-84.99 316.2,-82.29 340.28,-79.89"/>
<polygon fill="black" stroke="black" points="340.81,-83.35 350.42,-78.87 340.12,-76.38 340.81,-83.35"/>
</g>
<!-- 7 -->
<!-- name: &quot;Requested Operation&quot;, typeName: &quot;&quot;, id: 7, branchId: 0, recurseId: &#45;1, attributes: 0, notes: &quot;enumeration: StructureTemplateRequestOperation&quot; -->
<g id="node8" class="node">
<title>7</title>
<ellipse fill="none" stroke="black" cx="420.12" cy="-18" rx="87.99" ry="18"/>
<text text-anchor="middle" x="420.12" y="-14.3" font-family="Times New Roman,serif" font-size="14.00">Requested Operation</text>
</g>
<!-- 0&#45;&gt;7 -->
<g id="edge7" class="edge">
<title>0&#45;&gt;7</title>
<path fill="none" stroke="black" d="M204.79,-82.31C249.94,-68.77 313.46,-49.71 359.62,-35.85"/>
<polygon fill="black" stroke="black" points="360.92,-39.12 369.49,-32.89 358.91,-32.41 360.92,-39.12"/>
</g>
<!-- 2 -->
<!-- name: &quot;string&quot;, typeName: &quot;&quot;, id: 2, branchId: 0, recurseId: &#45;1, attributes: 512, notes: &quot;&quot; -->
<g id="node3" class="node">
<title>2</title>
<ellipse fill="none" stroke="black" cx="636.8" cy="-180" rx="30.59" ry="18"/>
<text text-anchor="middle" x="636.8" y="-176.3" font-family="Times New Roman,serif" font-size="14.00">string</text>
</g>
<!-- 1&#45;&gt;2 -->
<g id="edge2" class="edge">
<title>1&#45;&gt;2</title>
<path fill="none" stroke="black" d="M487.87,-180C523.32,-180 565.7,-180 596,-180"/>
<polygon fill="black" stroke="black" points="596.18,-183.5 606.18,-180 596.18,-176.5 596.18,-183.5"/>
</g>
<!-- 4 -->
<!-- name: &quot;NetworkBlockPosition&quot;, typeName: &quot;&quot;, id: 4, branchId: 0, recurseId: &#45;1, attributes: 512, notes: &quot;&quot; -->
<g id="node5" class="node">
<title>4</title>
<ellipse fill="none" stroke="black" cx="636.8" cy="-126" rx="92.88" ry="18"/>
<text text-anchor="middle" x="636.8" y="-122.3" font-family="Times New Roman,serif" font-size="14.00">NetworkBlockPosition</text>
</g>
<!-- 3&#45;&gt;4 -->
<g id="edge4" class="edge">
<title>3&#45;&gt;4</title>
<path fill="none" stroke="black" d="M496.2,-126C508.32,-126 521.04,-126 533.67,-126"/>
<polygon fill="black" stroke="black" points="533.76,-129.5 543.76,-126 533.76,-122.5 533.76,-129.5"/>
</g>
<!-- 6 -->
<!-- name: &quot;StructureSettings&quot;, typeName: &quot;&quot;, id: 6, branchId: 0, recurseId: &#45;1, attributes: 512, notes: &quot;&quot; -->
<g id="node7" class="node">
<title>6</title>
<ellipse fill="none" stroke="black" cx="636.8" cy="-72" rx="72.59" ry="18"/>
<text text-anchor="middle" x="636.8" y="-68.3" font-family="Times New Roman,serif" font-size="14.00">StructureSettings</text>
</g>
<!-- 5&#45;&gt;6 -->
<g id="edge6" class="edge">
<title>5&#45;&gt;6</title>
<path fill="none" stroke="black" d="M495.6,-72C514.39,-72 534.66,-72 553.79,-72"/>
<polygon fill="black" stroke="black" points="553.98,-75.5 563.98,-72 553.98,-68.5 553.98,-75.5"/>
</g>
<!-- 8 -->
<!-- name: &quot;byte&quot;, typeName: &quot;&quot;, id: 8, branchId: 0, recurseId: &#45;1, attributes: 512, notes: &quot;&quot; -->
<g id="node9" class="node">
<title>8</title>
<ellipse fill="none" stroke="black" cx="636.8" cy="-18" rx="27" ry="18"/>
<text text-anchor="middle" x="636.8" y="-14.3" font-family="Times New Roman,serif" font-size="14.00">byte</text>
</g>
<!-- 7&#45;&gt;8 -->
<g id="edge8" class="edge">
<title>7&#45;&gt;8</title>
<path fill="none" stroke="black" d="M508.13,-18C540.06,-18 574.49,-18 599.53,-18"/>
<polygon fill="black" stroke="black" points="599.66,-21.5 609.66,-18 599.66,-14.5 599.66,-21.5"/>
</g>
</g>
</svg>
