<?xml version="1.0" encoding="UTF-8" standalone="no"?>
<!DOCTYPE svg PUBLIC "-//W3C//DTD SVG 1.1//EN"
 "http://www.w3.org/Graphics/SVG/1.1/DTD/svg11.dtd">
<!-- Generated by graphviz version 2.46.1 (20210213.1702)
 -->
<!-- Title: StructureBlockUpdatePacket Pages: 1 -->
<svg width="627pt" height="206pt"
 viewBox="0.00 0.00 627.25 206.00" xmlns="http://www.w3.org/2000/svg" xmlns:xlink="http://www.w3.org/1999/xlink">
<g id="graph0" class="graph" transform="scale(1 1) rotate(0) translate(4 202)">
<title>StructureBlockUpdatePacket</title>
<polygon fill="white" stroke="transparent" points="-4,4 -4,-202 623.25,-202 623.25,4 -4,4"/>
<!-- 0 -->
<!-- name: &quot;StructureBlockUpdatePacket&quot;, typeName: &quot;&quot;, id: 0, branchId: 90, recurseId: &#45;1, attributes: 0, notes: &quot;&quot; -->
<g id="node1" class="node">
<title>0</title>
<ellipse fill="none" stroke="black" cx="116.34" cy="-99" rx="116.18" ry="18"/>
<text text-anchor="middle" x="116.34" y="-95.3" font-family="Times New Roman,serif" font-size="14.00">StructureBlockUpdatePacket</text>
</g>
<!-- 1 -->
<!-- name: &quot;Block Position&quot;, typeName: &quot;NetworkBlockPosition&quot;, id: 1, branchId: 0, recurseId: &#45;1, attributes: 256, notes: &quot;&quot; -->
<g id="node2" class="node">
<title>1</title>
<ellipse fill="none" stroke="black" cx="333.02" cy="-180" rx="64.19" ry="18"/>
<text text-anchor="middle" x="333.02" y="-176.3" font-family="Times New Roman,serif" font-size="14.00">Block Position</text>
</g>
<!-- 0&#45;&gt;1 -->
<g id="edge1" class="edge">
<title>0&#45;&gt;1</title>
<path fill="none" stroke="black" d="M161.56,-115.69C197.39,-129.2 247.78,-148.21 284.47,-162.06"/>
<polygon fill="black" stroke="black" points="283.37,-165.38 293.96,-165.64 285.84,-158.83 283.37,-165.38"/>
</g>
<!-- 3 -->
<!-- name: &quot;Structure Data&quot;, typeName: &quot;StructureEditorData&quot;, id: 3, branchId: 0, recurseId: &#45;1, attributes: 256, notes: &quot;&quot; -->
<g id="node4" class="node">
<title>3</title>
<ellipse fill="none" stroke="black" cx="333.02" cy="-126" rx="63.09" ry="18"/>
<text text-anchor="middle" x="333.02" y="-122.3" font-family="Times New Roman,serif" font-size="14.00">Structure Data</text>
</g>
<!-- 0&#45;&gt;3 -->
<g id="edge3" class="edge">
<title>0&#45;&gt;3</title>
<path fill="none" stroke="black" d="M207.14,-110.29C226.53,-112.73 246.7,-115.27 265.04,-117.58"/>
<polygon fill="black" stroke="black" points="264.66,-121.06 275.02,-118.83 265.54,-114.11 264.66,-121.06"/>
</g>
<!-- 49 -->
<!-- name: &quot;Trigger?&quot;, typeName: &quot;&quot;, id: 49, branchId: 0, recurseId: &#45;1, attributes: 0, notes: &quot;&quot; -->
<g id="node6" class="node">
<title>49</title>
<ellipse fill="none" stroke="black" cx="333.02" cy="-72" rx="40.89" ry="18"/>
<text text-anchor="middle" x="333.02" y="-68.3" font-family="Times New Roman,serif" font-size="14.00">Trigger?</text>
</g>
<!-- 0&#45;&gt;49 -->
<g id="edge5" class="edge">
<title>0&#45;&gt;49</title>
<path fill="none" stroke="black" d="M207.14,-87.71C233.25,-84.42 260.78,-80.96 283.32,-78.12"/>
<polygon fill="black" stroke="black" points="283.82,-81.59 293.31,-76.87 282.95,-74.64 283.82,-81.59"/>
</g>
<!-- 51 -->
<!-- name: &quot;IsWaterlogged&quot;, typeName: &quot;&quot;, id: 51, branchId: 0, recurseId: &#45;1, attributes: 0, notes: &quot;&quot; -->
<g id="node8" class="node">
<title>51</title>
<ellipse fill="none" stroke="black" cx="333.02" cy="-18" rx="63.89" ry="18"/>
<text text-anchor="middle" x="333.02" y="-14.3" font-family="Times New Roman,serif" font-size="14.00">IsWaterlogged</text>
</g>
<!-- 0&#45;&gt;51 -->
<g id="edge7" class="edge">
<title>0&#45;&gt;51</title>
<path fill="none" stroke="black" d="M161.56,-82.31C197.39,-68.8 247.78,-49.79 284.47,-35.94"/>
<polygon fill="black" stroke="black" points="285.84,-39.17 293.96,-32.36 283.37,-32.62 285.84,-39.17"/>
</g>
<!-- 2 -->
<!-- name: &quot;NetworkBlockPosition&quot;, typeName: &quot;&quot;, id: 2, branchId: 0, recurseId: &#45;1, attributes: 512, notes: &quot;&quot; -->
<g id="node3" class="node">
<title>2</title>
<ellipse fill="none" stroke="black" cx="526.31" cy="-180" rx="92.88" ry="18"/>
<text text-anchor="middle" x="526.31" y="-176.3" font-family="Times New Roman,serif" font-size="14.00">NetworkBlockPosition</text>
</g>
<!-- 1&#45;&gt;2 -->
<g id="edge2" class="edge">
<title>1&#45;&gt;2</title>
<path fill="none" stroke="black" d="M397.45,-180C405.66,-180 414.23,-180 422.87,-180"/>
<polygon fill="black" stroke="black" points="423.03,-183.5 433.03,-180 423.03,-176.5 423.03,-183.5"/>
</g>
<!-- 48 -->
<!-- name: &quot;StructureEditorData&quot;, typeName: &quot;&quot;, id: 48, branchId: 0, recurseId: &#45;1, attributes: 512, notes: &quot;&quot; -->
<g id="node5" class="node">
<title>48</title>
<ellipse fill="none" stroke="black" cx="526.31" cy="-126" rx="83.39" ry="18"/>
<text text-anchor="middle" x="526.31" y="-122.3" font-family="Times New Roman,serif" font-size="14.00">StructureEditorData</text>
</g>
<!-- 3&#45;&gt;48 -->
<g id="edge4" class="edge">
<title>3&#45;&gt;48</title>
<path fill="none" stroke="black" d="M396.13,-126C407.8,-126 420.24,-126 432.62,-126"/>
<polygon fill="black" stroke="black" points="432.98,-129.5 442.98,-126 432.98,-122.5 432.98,-129.5"/>
</g>
<!-- 50 -->
<!-- name: &quot;bool&quot;, typeName: &quot;&quot;, id: 50, branchId: 0, recurseId: &#45;1, attributes: 512, notes: &quot;&quot; -->
<g id="node7" class="node">
<title>50</title>
<ellipse fill="none" stroke="black" cx="526.31" cy="-72" rx="27.1" ry="18"/>
<text text-anchor="middle" x="526.31" y="-68.3" font-family="Times New Roman,serif" font-size="14.00">bool</text>
</g>
<!-- 49&#45;&gt;50 -->
<g id="edge6" class="edge">
<title>49&#45;&gt;50</title>
<path fill="none" stroke="black" d="M374.12,-72C407.93,-72 455.91,-72 488.69,-72"/>
<polygon fill="black" stroke="black" points="488.77,-75.5 498.77,-72 488.77,-68.5 488.77,-75.5"/>
</g>
<!-- 52 -->
<!-- name: &quot;bool&quot;, typeName: &quot;&quot;, id: 52, branchId: 0, recurseId: &#45;1, attributes: 512, notes: &quot;&quot; -->
<g id="node9" class="node">
<title>52</title>
<ellipse fill="none" stroke="black" cx="526.31" cy="-18" rx="27.1" ry="18"/>
<text text-anchor="middle" x="526.31" y="-14.3" font-family="Times New Roman,serif" font-size="14.00">bool</text>
</g>
<!-- 51&#45;&gt;52 -->
<g id="edge8" class="edge">
<title>51&#45;&gt;52</title>
<path fill="none" stroke="black" d="M396.92,-18C427.36,-18 462.82,-18 488.76,-18"/>
<polygon fill="black" stroke="black" points="488.9,-21.5 498.89,-18 488.89,-14.5 488.9,-21.5"/>
</g>
</g>
</svg>
