<?xml version="1.0" encoding="UTF-8" standalone="no"?>
<!DOCTYPE svg PUBLIC "-//W3C//DTD SVG 1.1//EN"
 "http://www.w3.org/Graphics/SVG/1.1/DTD/svg11.dtd">
<!-- Generated by graphviz version 2.46.1 (20210213.1702)
 -->
<!-- Title: StructureTemplateDataResponsePacket Pages: 1 -->
<svg width="1082pt" height="314pt"
 viewBox="0.00 0.00 1082.23 314.00" xmlns="http://www.w3.org/2000/svg" xmlns:xlink="http://www.w3.org/1999/xlink">
<g id="graph0" class="graph" transform="scale(1 1) rotate(0) translate(4 310)">
<title>StructureTemplateDataResponsePacket</title>
<polygon fill="white" stroke="transparent" points="-4,4 -4,-310 1078.23,-310 1078.23,4 -4,4"/>
<!-- 0 -->
<!-- name: &quot;StructureTemplateDataResponsePacket&quot;, typeName: &quot;&quot;, id: 0, branchId: 133, recurseId: &#45;1, attributes: 0, notes: &quot;&quot; -->
<g id="node1" class="node">
<title>0</title>
<ellipse fill="none" stroke="black" cx="154.69" cy="-214" rx="154.87" ry="18"/>
<text text-anchor="middle" x="154.69" y="-210.3" font-family="Times New Roman,serif" font-size="14.00">StructureTemplateDataResponsePacket</text>
</g>
<!-- 1 -->
<!-- name: &quot;Structure Name&quot;, typeName: &quot;&quot;, id: 1, branchId: 0, recurseId: &#45;1, attributes: 0, notes: &quot;&quot; -->
<g id="node2" class="node">
<title>1</title>
<ellipse fill="none" stroke="black" cx="478.87" cy="-268" rx="67.69" ry="18"/>
<text text-anchor="middle" x="478.87" y="-264.3" font-family="Times New Roman,serif" font-size="14.00">Structure Name</text>
</g>
<!-- 0&#45;&gt;1 -->
<g id="edge1" class="edge">
<title>0&#45;&gt;1</title>
<path fill="none" stroke="black" d="M243.73,-228.76C296.6,-237.62 362.81,-248.71 411.31,-256.84"/>
<polygon fill="black" stroke="black" points="410.94,-260.33 421.38,-258.53 412.1,-253.43 410.94,-260.33"/>
</g>
<!-- 3 -->
<!-- name: &quot;Dependency on &#39;Requested structure exists?&#39;&quot;, typeName: &quot;&quot;, id: 3, branchId: 0, recurseId: &#45;1, attributes: 2, notes: &quot;&quot; -->
<g id="node4" class="node">
<title>3</title>
<polygon fill="none" stroke="black" points="606.37,-205 345.37,-205 345.37,-169 612.37,-169 612.37,-199 606.37,-205"/>
<polyline fill="none" stroke="black" points="606.37,-205 606.37,-199 "/>
<polyline fill="none" stroke="black" points="612.37,-199 606.37,-199 "/>
<text text-anchor="middle" x="478.87" y="-183.3" font-family="Times New Roman,serif" font-size="14.00">Dependency on &#39;Requested structure exists?&#39;</text>
</g>
<!-- 0&#45;&gt;3 -->
<g id="edge3" class="edge">
<title>0&#45;&gt;3</title>
<path fill="none" stroke="black" d="M280.71,-203.52C298.55,-202.03 317,-200.48 335.15,-198.96"/>
<polygon fill="black" stroke="black" points="335.51,-202.44 345.19,-198.12 334.93,-195.47 335.51,-202.44"/>
</g>
<!-- 2 -->
<!-- name: &quot;string&quot;, typeName: &quot;&quot;, id: 2, branchId: 0, recurseId: &#45;1, attributes: 512, notes: &quot;&quot; -->
<g id="node3" class="node">
<title>2</title>
<ellipse fill="none" stroke="black" cx="1007.94" cy="-288" rx="30.59" ry="18"/>
<text text-anchor="middle" x="1007.94" y="-284.3" font-family="Times New Roman,serif" font-size="14.00">string</text>
</g>
<!-- 1&#45;&gt;2 -->
<g id="edge2" class="edge">
<title>1&#45;&gt;2</title>
<path fill="none" stroke="black" d="M545.83,-270.5C656.76,-274.71 877.36,-283.08 967.34,-286.5"/>
<polygon fill="black" stroke="black" points="967.27,-290 977.4,-286.88 967.54,-283 967.27,-290"/>
</g>
<!-- 4 -->
<!-- name: &quot;if (0)&quot;, typeName: &quot;&quot;, id: 4, branchId: 0, recurseId: &#45;1, attributes: 4, notes: &quot;&quot; -->
<g id="node5" class="node">
<title>4</title>
<polygon fill="none" stroke="black" points="688.82,-205 648.43,-187 688.82,-169 729.2,-187 688.82,-205"/>
<text text-anchor="middle" x="688.82" y="-183.3" font-family="Times New Roman,serif" font-size="14.00">if (0)</text>
</g>
<!-- 3&#45;&gt;4 -->
<g id="edge4" class="edge">
<title>3&#45;&gt;4</title>
<path fill="none" stroke="black" d="M612.45,-187C621.33,-187 629.91,-187 637.9,-187"/>
<polygon fill="black" stroke="black" points="638.04,-190.5 648.04,-187 638.04,-183.5 638.04,-190.5"/>
</g>
<!-- 9 -->
<!-- name: &quot;if (1)&quot;, typeName: &quot;&quot;, id: 9, branchId: 1, recurseId: &#45;1, attributes: 4, notes: &quot;&quot; -->
<g id="node10" class="node">
<title>9</title>
<polygon fill="none" stroke="black" points="688.82,-138 648.43,-120 688.82,-102 729.2,-120 688.82,-138"/>
<text text-anchor="middle" x="688.82" y="-116.3" font-family="Times New Roman,serif" font-size="14.00">if (1)</text>
</g>
<!-- 3&#45;&gt;9 -->
<g id="edge9" class="edge">
<title>3&#45;&gt;9</title>
<path fill="none" stroke="black" d="M535.87,-168.96C573.97,-156.68 623.08,-140.86 654.99,-130.58"/>
<polygon fill="black" stroke="black" points="656.27,-133.84 664.72,-127.44 654.12,-127.18 656.27,-133.84"/>
</g>
<!-- 5 -->
<!-- name: &quot;Failure&quot;, typeName: &quot;&quot;, id: 5, branchId: 0, recurseId: &#45;1, attributes: 0, notes: &quot;Bool set to false, indicating the requested structure didn&#39;t exist.&quot; -->
<g id="node6" class="node">
<title>5</title>
<ellipse fill="none" stroke="black" cx="835.45" cy="-234" rx="35.19" ry="18"/>
<text text-anchor="middle" x="835.45" y="-230.3" font-family="Times New Roman,serif" font-size="14.00">Failure</text>
</g>
<!-- 4&#45;&gt;5 -->
<g id="edge5" class="edge">
<title>4&#45;&gt;5</title>
<path fill="none" stroke="black" d="M712.73,-194.45C734.98,-201.68 769.18,-212.79 795.67,-221.4"/>
<polygon fill="black" stroke="black" points="794.81,-224.8 805.4,-224.56 796.97,-218.14 794.81,-224.8"/>
</g>
<!-- 7 -->
<!-- name: &quot;Response Type&quot;, typeName: &quot;&quot;, id: 7, branchId: 0, recurseId: &#45;1, attributes: 0, notes: &quot;enumeration: StructureTemplateResponseType&quot; -->
<g id="node8" class="node">
<title>7</title>
<ellipse fill="none" stroke="black" cx="835.45" cy="-180" rx="68.49" ry="18"/>
<text text-anchor="middle" x="835.45" y="-176.3" font-family="Times New Roman,serif" font-size="14.00">Response Type</text>
</g>
<!-- 4&#45;&gt;7 -->
<g id="edge7" class="edge">
<title>4&#45;&gt;7</title>
<path fill="none" stroke="black" d="M725.57,-185.27C735.43,-184.79 746.53,-184.26 757.76,-183.71"/>
<polygon fill="black" stroke="black" points="758.27,-187.19 768.09,-183.21 757.93,-180.2 758.27,-187.19"/>
</g>
<!-- 6 -->
<!-- name: &quot;bool&quot;, typeName: &quot;&quot;, id: 6, branchId: 0, recurseId: &#45;1, attributes: 512, notes: &quot;&quot; -->
<g id="node7" class="node">
<title>6</title>
<ellipse fill="none" stroke="black" cx="1007.94" cy="-234" rx="27.1" ry="18"/>
<text text-anchor="middle" x="1007.94" y="-230.3" font-family="Times New Roman,serif" font-size="14.00">bool</text>
</g>
<!-- 5&#45;&gt;6 -->
<g id="edge6" class="edge">
<title>5&#45;&gt;6</title>
<path fill="none" stroke="black" d="M870.95,-234C899.81,-234 940.86,-234 970.3,-234"/>
<polygon fill="black" stroke="black" points="970.58,-237.5 980.58,-234 970.58,-230.5 970.58,-237.5"/>
</g>
<!-- 8 -->
<!-- name: &quot;byte&quot;, typeName: &quot;&quot;, id: 8, branchId: 0, recurseId: &#45;1, attributes: 512, notes: &quot;&quot; -->
<g id="node9" class="node">
<title>8</title>
<ellipse fill="none" stroke="black" cx="1007.94" cy="-180" rx="27" ry="18"/>
<text text-anchor="middle" x="1007.94" y="-176.3" font-family="Times New Roman,serif" font-size="14.00">byte</text>
</g>
<!-- 7&#45;&gt;8 -->
<g id="edge8" class="edge">
<title>7&#45;&gt;8</title>
<path fill="none" stroke="black" d="M903.83,-180C926.61,-180 951.16,-180 970.6,-180"/>
<polygon fill="black" stroke="black" points="970.82,-183.5 980.82,-180 970.82,-176.5 970.82,-183.5"/>
</g>
<!-- 10 -->
<!-- name: &quot;Success&quot;, typeName: &quot;&quot;, id: 10, branchId: 0, recurseId: &#45;1, attributes: 0, notes: &quot;Bool set to true, indicating success.&quot; -->
<g id="node11" class="node">
<title>10</title>
<ellipse fill="none" stroke="black" cx="835.45" cy="-126" rx="40.89" ry="18"/>
<text text-anchor="middle" x="835.45" y="-122.3" font-family="Times New Roman,serif" font-size="14.00">Success</text>
</g>
<!-- 9&#45;&gt;10 -->
<g id="edge10" class="edge">
<title>9&#45;&gt;10</title>
<path fill="none" stroke="black" d="M725.94,-121.5C743.6,-122.23 765.14,-123.12 784.36,-123.92"/>
<polygon fill="black" stroke="black" points="784.33,-127.42 794.46,-124.34 784.62,-120.43 784.33,-127.42"/>
</g>
<!-- 12 -->
<!-- name: &quot;Structure&#39;s NBT&quot;, typeName: &quot;CompoundTag&quot;, id: 12, branchId: 0, recurseId: &#45;1, attributes: 256, notes: &quot;&quot; -->
<g id="node13" class="node">
<title>12</title>
<ellipse fill="none" stroke="black" cx="835.45" cy="-72" rx="70.39" ry="18"/>
<text text-anchor="middle" x="835.45" y="-68.3" font-family="Times New Roman,serif" font-size="14.00">Structure&#39;s NBT</text>
</g>
<!-- 9&#45;&gt;12 -->
<g id="edge12" class="edge">
<title>9&#45;&gt;12</title>
<path fill="none" stroke="black" d="M712.41,-112.5C730.99,-106.34 758.05,-97.36 781.97,-89.42"/>
<polygon fill="black" stroke="black" points="783.25,-92.68 791.64,-86.21 781.05,-86.03 783.25,-92.68"/>
</g>
<!-- 14 -->
<!-- name: &quot;Response Type&quot;, typeName: &quot;&quot;, id: 14, branchId: 0, recurseId: &#45;1, attributes: 0, notes: &quot;enumeration: StructureTemplateResponseType&quot; -->
<g id="node15" class="node">
<title>14</title>
<ellipse fill="none" stroke="black" cx="835.45" cy="-18" rx="68.49" ry="18"/>
<text text-anchor="middle" x="835.45" y="-14.3" font-family="Times New Roman,serif" font-size="14.00">Response Type</text>
</g>
<!-- 9&#45;&gt;14 -->
<g id="edge14" class="edge">
<title>9&#45;&gt;14</title>
<path fill="none" stroke="black" d="M700.02,-106.96C713.44,-90.56 738.48,-62.44 765.26,-45 770.31,-41.71 775.83,-38.72 781.47,-36.03"/>
<polygon fill="black" stroke="black" points="783.3,-39.05 791.02,-31.79 780.46,-32.65 783.3,-39.05"/>
</g>
<!-- 11 -->
<!-- name: &quot;bool&quot;, typeName: &quot;&quot;, id: 11, branchId: 0, recurseId: &#45;1, attributes: 512, notes: &quot;&quot; -->
<g id="node12" class="node">
<title>11</title>
<ellipse fill="none" stroke="black" cx="1007.94" cy="-126" rx="27.1" ry="18"/>
<text text-anchor="middle" x="1007.94" y="-122.3" font-family="Times New Roman,serif" font-size="14.00">bool</text>
</g>
<!-- 10&#45;&gt;11 -->
<g id="edge11" class="edge">
<title>10&#45;&gt;11</title>
<path fill="none" stroke="black" d="M876.42,-126C904.87,-126 942.8,-126 970.44,-126"/>
<polygon fill="black" stroke="black" points="970.48,-129.5 980.48,-126 970.48,-122.5 970.48,-129.5"/>
</g>
<!-- 13 -->
<!-- name: &quot;CompoundTag&quot;, typeName: &quot;&quot;, id: 13, branchId: 0, recurseId: &#45;1, attributes: 512, notes: &quot;&quot; -->
<g id="node14" class="node">
<title>13</title>
<ellipse fill="none" stroke="black" cx="1007.94" cy="-72" rx="66.09" ry="18"/>
<text text-anchor="middle" x="1007.94" y="-68.3" font-family="Times New Roman,serif" font-size="14.00">CompoundTag</text>
</g>
<!-- 12&#45;&gt;13 -->
<g id="edge13" class="edge">
<title>12&#45;&gt;13</title>
<path fill="none" stroke="black" d="M905.8,-72C914.19,-72 922.79,-72 931.26,-72"/>
<polygon fill="black" stroke="black" points="931.51,-75.5 941.51,-72 931.51,-68.5 931.51,-75.5"/>
</g>
<!-- 15 -->
<!-- name: &quot;byte&quot;, typeName: &quot;&quot;, id: 15, branchId: 0, recurseId: &#45;1, attributes: 512, notes: &quot;&quot; -->
<g id="node16" class="node">
<title>15</title>
<ellipse fill="none" stroke="black" cx="1007.94" cy="-18" rx="27" ry="18"/>
<text text-anchor="middle" x="1007.94" y="-14.3" font-family="Times New Roman,serif" font-size="14.00">byte</text>
</g>
<!-- 14&#45;&gt;15 -->
<g id="edge15" class="edge">
<title>14&#45;&gt;15</title>
<path fill="none" stroke="black" d="M903.83,-18C926.61,-18 951.16,-18 970.6,-18"/>
<polygon fill="black" stroke="black" points="970.82,-21.5 980.82,-18 970.82,-14.5 970.82,-21.5"/>
</g>
</g>
</svg>
