<?xml version="1.0" encoding="UTF-8" standalone="no"?>
<!DOCTYPE svg PUBLIC "-//W3C//DTD SVG 1.1//EN"
 "http://www.w3.org/Graphics/SVG/1.1/DTD/svg11.dtd">
<!-- Generated by graphviz version 9.0.0 (20230911.1827)
 -->
<!-- Title: StructureBlockUpdatePacket Pages: 1 -->
<svg width="638pt" height="206pt"
 viewBox="0.00 0.00 637.88 206.00" xmlns="http://www.w3.org/2000/svg" xmlns:xlink="http://www.w3.org/1999/xlink">
<g id="graph0" class="graph" transform="scale(1 1) rotate(0) translate(4 202)">
<title>StructureBlockUpdatePacket</title>
<polygon fill="white" stroke="none" points="-4,4 -4,-202 633.88,-202 633.88,4 -4,4"/>
<!-- 0 -->
<!-- name: &quot;StructureBlockUpdatePacket&quot;, typeName: &quot;&quot;, id: 0, branchId: 90, recurseId: &#45;1, attributes: 0, notes: &quot;&quot; -->
<g id="node1" class="node">
<title>0</title>
<ellipse fill="none" stroke="black" cx="118.43" cy="-99" rx="118.43" ry="18"/>
<text text-anchor="middle" x="118.43" y="-93.58" font-family="Times New Roman,serif" font-size="14.00">StructureBlockUpdatePacket</text>
</g>
<!-- 1 -->
<!-- name: &quot;Block Position&quot;, typeName: &quot;NetworkBlockPosition&quot;, id: 1, branchId: 0, recurseId: &#45;1, attributes: 256, notes: &quot;&quot; -->
<g id="node2" class="node">
<title>1</title>
<ellipse fill="none" stroke="black" cx="338.39" cy="-180" rx="65.53" ry="18"/>
<text text-anchor="middle" x="338.39" y="-174.57" font-family="Times New Roman,serif" font-size="14.00">Block Position</text>
</g>
<!-- 0&#45;&gt;1 -->
<g id="edge1" class="edge">
<title>0&#45;&gt;1</title>
<path fill="none" stroke="black" d="M165.12,-115.98C201.02,-129.32 250.95,-147.88 287.82,-161.58"/>
<polygon fill="black" stroke="black" points="286.31,-164.75 296.91,-164.96 288.75,-158.19 286.31,-164.75"/>
</g>
<!-- 3 -->
<!-- name: &quot;Structure Data&quot;, typeName: &quot;StructureEditorData&quot;, id: 3, branchId: 0, recurseId: &#45;1, attributes: 256, notes: &quot;&quot; -->
<g id="node4" class="node">
<title>3</title>
<ellipse fill="none" stroke="black" cx="338.39" cy="-126" rx="64.04" ry="18"/>
<text text-anchor="middle" x="338.39" y="-120.58" font-family="Times New Roman,serif" font-size="14.00">Structure Data</text>
</g>
<!-- 0&#45;&gt;3 -->
<g id="edge3" class="edge">
<title>0&#45;&gt;3</title>
<path fill="none" stroke="black" d="M211.55,-110.41C230.41,-112.75 249.97,-115.17 267.88,-117.39"/>
<polygon fill="black" stroke="black" points="267.24,-120.84 277.59,-118.59 268.1,-113.89 267.24,-120.84"/>
</g>
<!-- 49 -->
<!-- name: &quot;Trigger?&quot;, typeName: &quot;&quot;, id: 49, branchId: 0, recurseId: &#45;1, attributes: 0, notes: &quot;&quot; -->
<g id="node6" class="node">
<title>49</title>
<ellipse fill="none" stroke="black" cx="338.39" cy="-72" rx="41.58" ry="18"/>
<text text-anchor="middle" x="338.39" y="-66.58" font-family="Times New Roman,serif" font-size="14.00">Trigger?</text>
</g>
<!-- 0&#45;&gt;49 -->
<g id="edge5" class="edge">
<title>0&#45;&gt;49</title>
<path fill="none" stroke="black" d="M211.55,-87.59C237.27,-84.4 264.28,-81.06 286.65,-78.29"/>
<polygon fill="black" stroke="black" points="286.9,-81.78 296.4,-77.08 286.04,-74.83 286.9,-81.78"/>
</g>
<!-- 51 -->
<!-- name: &quot;IsWaterlogged&quot;, typeName: &quot;&quot;, id: 51, branchId: 0, recurseId: &#45;1, attributes: 0, notes: &quot;&quot; -->
<g id="node8" class="node">
<title>51</title>
<ellipse fill="none" stroke="black" cx="338.39" cy="-18" rx="65.04" ry="18"/>
<text text-anchor="middle" x="338.39" y="-12.57" font-family="Times New Roman,serif" font-size="14.00">IsWaterlogged</text>
</g>
<!-- 0&#45;&gt;51 -->
<g id="edge7" class="edge">
<title>0&#45;&gt;51</title>
<path fill="none" stroke="black" d="M165.12,-82.02C201.02,-68.68 250.95,-50.12 287.82,-36.42"/>
<polygon fill="black" stroke="black" points="288.75,-39.81 296.91,-33.04 286.31,-33.25 288.75,-39.81"/>
</g>
<!-- 2 -->
<!-- name: &quot;NetworkBlockPosition&quot;, typeName: &quot;&quot;, id: 2, branchId: 0, recurseId: &#45;1, attributes: 512, notes: &quot;&quot; -->
<g id="node3" class="node">
<title>2</title>
<ellipse fill="none" stroke="black" cx="534.9" cy="-180" rx="94.98" ry="18"/>
<text text-anchor="middle" x="534.9" y="-174.57" font-family="Times New Roman,serif" font-size="14.00">NetworkBlockPosition</text>
</g>
<!-- 1&#45;&gt;2 -->
<g id="edge2" class="edge">
<title>1&#45;&gt;2</title>
<path fill="none" stroke="black" d="M404.16,-180C411.99,-180 420.13,-180 428.35,-180"/>
<polygon fill="black" stroke="black" points="428.08,-183.5 438.08,-180 428.08,-176.5 428.08,-183.5"/>
</g>
<!-- 48 -->
<!-- name: &quot;StructureEditorData&quot;, typeName: &quot;&quot;, id: 48, branchId: 0, recurseId: &#45;1, attributes: 512, notes: &quot;&quot; -->
<g id="node5" class="node">
<title>48</title>
<ellipse fill="none" stroke="black" cx="534.9" cy="-126" rx="84.5" ry="18"/>
<text text-anchor="middle" x="534.9" y="-120.58" font-family="Times New Roman,serif" font-size="14.00">StructureEditorData</text>
</g>
<!-- 3&#45;&gt;48 -->
<g id="edge4" class="edge">
<title>3&#45;&gt;48</title>
<path fill="none" stroke="black" d="M402.81,-126C414.36,-126 426.63,-126 438.85,-126"/>
<polygon fill="black" stroke="black" points="438.53,-129.5 448.53,-126 438.53,-122.5 438.53,-129.5"/>
</g>
<!-- 50 -->
<!-- name: &quot;bool&quot;, typeName: &quot;&quot;, id: 50, branchId: 0, recurseId: &#45;1, attributes: 512, notes: &quot;&quot; -->
<g id="node7" class="node">
<title>50</title>
<ellipse fill="none" stroke="black" cx="534.9" cy="-72" rx="27.61" ry="18"/>
<text text-anchor="middle" x="534.9" y="-66.58" font-family="Times New Roman,serif" font-size="14.00">bool</text>
</g>
<!-- 49&#45;&gt;50 -->
<g id="edge6" class="edge">
<title>49&#45;&gt;50</title>
<path fill="none" stroke="black" d="M380.17,-72C414.25,-72 462.49,-72 495.8,-72"/>
<polygon fill="black" stroke="black" points="495.4,-75.5 505.4,-72 495.4,-68.5 495.4,-75.5"/>
</g>
<!-- 52 -->
<!-- name: &quot;bool&quot;, typeName: &quot;&quot;, id: 52, branchId: 0, recurseId: &#45;1, attributes: 512, notes: &quot;&quot; -->
<g id="node9" class="node">
<title>52</title>
<ellipse fill="none" stroke="black" cx="534.9" cy="-18" rx="27.61" ry="18"/>
<text text-anchor="middle" x="534.9" y="-12.57" font-family="Times New Roman,serif" font-size="14.00">bool</text>
</g>
<!-- 51&#45;&gt;52 -->
<g id="edge8" class="edge">
<title>51&#45;&gt;52</title>
<path fill="none" stroke="black" d="M403.89,-18C434.29,-18 469.52,-18 495.64,-18"/>
<polygon fill="black" stroke="black" points="495.43,-21.5 505.43,-18 495.43,-14.5 495.43,-21.5"/>
</g>
</g>
</svg>
