<?xml version="1.0" encoding="UTF-8" standalone="no"?>
<!DOCTYPE svg PUBLIC "-//W3C//DTD SVG 1.1//EN"
 "http://www.w3.org/Graphics/SVG/1.1/DTD/svg11.dtd">
<!-- Generated by graphviz version 12.2.0 (20241103.1931)
 -->
<!-- Title: StructureEditorData Pages: 1 -->
<svg width="633pt" height="368pt"
 viewBox="0.00 0.00 632.75 368.00" xmlns="http://www.w3.org/2000/svg" xmlns:xlink="http://www.w3.org/1999/xlink">
<g id="graph0" class="graph" transform="scale(1 1) rotate(0) translate(4 364)">
<title>StructureEditorData</title>
<polygon fill="white" stroke="none" points="-4,4 -4,-364 628.75,-364 628.75,4 -4,4"/>
<!-- 4 -->
<!-- name: &quot;StructureEditorData&quot;, typeName: &quot;&quot;, id: 4, branchId: 0, recurseId: &#45;1, attributes: 0, notes: &quot;&quot; -->
<g id="node1" class="node">
<title>4</title>
<ellipse fill="none" stroke="black" cx="85.13" cy="-180" rx="85.13" ry="18"/>
<text text-anchor="middle" x="85.13" y="-174.95" font-family="Times New Roman,serif" font-size="14.00">StructureEditorData</text>
</g>
<!-- 5 -->
<!-- name: &quot;Structure Name&quot;, typeName: &quot;&quot;, id: 5, branchId: 0, recurseId: &#45;1, attributes: 0, notes: &quot;&quot; -->
<g id="node2" class="node">
<title>5</title>
<ellipse fill="none" stroke="black" cx="323.12" cy="-342" rx="69.78" ry="18"/>
<text text-anchor="middle" x="323.12" y="-336.95" font-family="Times New Roman,serif" font-size="14.00">Structure Name</text>
</g>
<!-- 4&#45;&gt;5 -->
<g id="edge1" class="edge">
<title>4&#45;&gt;5</title>
<path fill="none" stroke="black" d="M96.91,-198.07C115.41,-227.43 156.1,-285.18 206.26,-315 218.92,-322.53 233.52,-327.95 248,-331.87"/>
<polygon fill="black" stroke="black" points="246.99,-335.23 257.54,-334.22 248.67,-328.43 246.99,-335.23"/>
</g>
<!-- 7 -->
<!-- name: &quot;Data Field&quot;, typeName: &quot;&quot;, id: 7, branchId: 0, recurseId: &#45;1, attributes: 0, notes: &quot;Used for structure blocks in data mode.&quot; -->
<g id="node4" class="node">
<title>7</title>
<ellipse fill="none" stroke="black" cx="323.12" cy="-288" rx="49.82" ry="18"/>
<text text-anchor="middle" x="323.12" y="-282.95" font-family="Times New Roman,serif" font-size="14.00">Data Field</text>
</g>
<!-- 4&#45;&gt;7 -->
<g id="edge3" class="edge">
<title>4&#45;&gt;7</title>
<path fill="none" stroke="black" d="M107.29,-197.82C130.25,-216.26 168.68,-244.62 206.26,-261 224.78,-269.07 246.06,-274.92 265.29,-279.06"/>
<polygon fill="black" stroke="black" points="264.36,-282.44 274.85,-281 265.75,-275.58 264.36,-282.44"/>
</g>
<!-- 9 -->
<!-- name: &quot;Should players be included?&quot;, typeName: &quot;&quot;, id: 9, branchId: 0, recurseId: &#45;1, attributes: 0, notes: &quot;&quot; -->
<g id="node6" class="node">
<title>9</title>
<ellipse fill="none" stroke="black" cx="323.12" cy="-234" rx="115.84" ry="18"/>
<text text-anchor="middle" x="323.12" y="-228.95" font-family="Times New Roman,serif" font-size="14.00">Should players be included?</text>
</g>
<!-- 4&#45;&gt;9 -->
<g id="edge5" class="edge">
<title>4&#45;&gt;9</title>
<path fill="none" stroke="black" d="M144.16,-193.28C174.69,-200.27 212.52,-208.92 245.44,-216.45"/>
<polygon fill="black" stroke="black" points="244.39,-219.8 254.92,-218.62 245.95,-212.98 244.39,-219.8"/>
</g>
<!-- 11 -->
<!-- name: &quot;Should show bounding box?&quot;, typeName: &quot;&quot;, id: 11, branchId: 0, recurseId: &#45;1, attributes: 0, notes: &quot;&quot; -->
<g id="node8" class="node">
<title>11</title>
<ellipse fill="none" stroke="black" cx="323.12" cy="-180" rx="116.86" ry="18"/>
<text text-anchor="middle" x="323.12" y="-174.95" font-family="Times New Roman,serif" font-size="14.00">Should show bounding box?</text>
</g>
<!-- 4&#45;&gt;11 -->
<g id="edge7" class="edge">
<title>4&#45;&gt;11</title>
<path fill="none" stroke="black" d="M170.66,-180C178.48,-180 186.52,-180 194.61,-180"/>
<polygon fill="black" stroke="black" points="194.57,-183.5 204.57,-180 194.57,-176.5 194.57,-183.5"/>
</g>
<!-- 13 -->
<!-- name: &quot;Structure Block Type&quot;, typeName: &quot;&quot;, id: 13, branchId: 0, recurseId: &#45;1, attributes: 0, notes: &quot;&quot; -->
<g id="node10" class="node">
<title>13</title>
<ellipse fill="none" stroke="black" cx="323.12" cy="-126" rx="89.74" ry="18"/>
<text text-anchor="middle" x="323.12" y="-120.95" font-family="Times New Roman,serif" font-size="14.00">Structure Block Type</text>
</g>
<!-- 4&#45;&gt;13 -->
<g id="edge9" class="edge">
<title>4&#45;&gt;13</title>
<path fill="none" stroke="black" d="M144.16,-166.72C176.67,-159.28 217.46,-149.95 251.78,-142.1"/>
<polygon fill="black" stroke="black" points="252.23,-145.58 261.2,-139.94 250.67,-138.76 252.23,-145.58"/>
</g>
<!-- 15 -->
<!-- name: &quot;Structure Settings&quot;, typeName: &quot;StructureSettings&quot;, id: 15, branchId: 0, recurseId: &#45;1, attributes: 256, notes: &quot;&quot; -->
<g id="node12" class="node">
<title>15</title>
<ellipse fill="none" stroke="black" cx="323.12" cy="-72" rx="76.94" ry="18"/>
<text text-anchor="middle" x="323.12" y="-66.95" font-family="Times New Roman,serif" font-size="14.00">Structure Settings</text>
</g>
<!-- 4&#45;&gt;15 -->
<g id="edge11" class="edge">
<title>4&#45;&gt;15</title>
<path fill="none" stroke="black" d="M107.29,-162.18C130.25,-143.74 168.68,-115.38 206.26,-99 219.46,-93.25 234.07,-88.62 248.33,-84.94"/>
<polygon fill="black" stroke="black" points="248.79,-88.43 257.68,-82.67 247.13,-81.63 248.79,-88.43"/>
</g>
<!-- 46 -->
<!-- name: &quot;Redstone Save Mode&quot;, typeName: &quot;&quot;, id: 46, branchId: 0, recurseId: &#45;1, attributes: 0, notes: &quot;&quot; -->
<g id="node14" class="node">
<title>46</title>
<ellipse fill="none" stroke="black" cx="323.12" cy="-18" rx="90.25" ry="18"/>
<text text-anchor="middle" x="323.12" y="-12.95" font-family="Times New Roman,serif" font-size="14.00">Redstone Save Mode</text>
</g>
<!-- 4&#45;&gt;46 -->
<g id="edge13" class="edge">
<title>4&#45;&gt;46</title>
<path fill="none" stroke="black" d="M96.91,-161.93C115.41,-132.57 156.1,-74.82 206.26,-45 215.72,-39.38 226.25,-34.93 237.01,-31.41"/>
<polygon fill="black" stroke="black" points="237.77,-34.83 246.35,-28.62 235.77,-28.12 237.77,-34.83"/>
</g>
<!-- 6 -->
<!-- name: &quot;string&quot;, typeName: &quot;&quot;, id: 6, branchId: 0, recurseId: &#45;1, attributes: 512, notes: &quot;&quot; -->
<g id="node3" class="node">
<title>6</title>
<ellipse fill="none" stroke="black" cx="550.37" cy="-342" rx="31.9" ry="18"/>
<text text-anchor="middle" x="550.37" y="-336.95" font-family="Times New Roman,serif" font-size="14.00">string</text>
</g>
<!-- 5&#45;&gt;6 -->
<g id="edge2" class="edge">
<title>5&#45;&gt;6</title>
<path fill="none" stroke="black" d="M393.24,-342C430.32,-342 474.85,-342 506.84,-342"/>
<polygon fill="black" stroke="black" points="506.51,-345.5 516.51,-342 506.51,-338.5 506.51,-345.5"/>
</g>
<!-- 8 -->
<!-- name: &quot;string&quot;, typeName: &quot;&quot;, id: 8, branchId: 0, recurseId: &#45;1, attributes: 512, notes: &quot;&quot; -->
<g id="node5" class="node">
<title>8</title>
<ellipse fill="none" stroke="black" cx="550.37" cy="-288" rx="31.9" ry="18"/>
<text text-anchor="middle" x="550.37" y="-282.95" font-family="Times New Roman,serif" font-size="14.00">string</text>
</g>
<!-- 7&#45;&gt;8 -->
<g id="edge4" class="edge">
<title>7&#45;&gt;8</title>
<path fill="none" stroke="black" d="M373.28,-288C413.16,-288 468.82,-288 506.82,-288"/>
<polygon fill="black" stroke="black" points="506.49,-291.5 516.49,-288 506.49,-284.5 506.49,-291.5"/>
</g>
<!-- 10 -->
<!-- name: &quot;bool&quot;, typeName: &quot;&quot;, id: 10, branchId: 0, recurseId: &#45;1, attributes: 512, notes: &quot;&quot; -->
<g id="node7" class="node">
<title>10</title>
<ellipse fill="none" stroke="black" cx="550.37" cy="-234" rx="27.3" ry="18"/>
<text text-anchor="middle" x="550.37" y="-228.95" font-family="Times New Roman,serif" font-size="14.00">bool</text>
</g>
<!-- 9&#45;&gt;10 -->
<g id="edge6" class="edge">
<title>9&#45;&gt;10</title>
<path fill="none" stroke="black" d="M439.39,-234C465.5,-234 491.43,-234 511.55,-234"/>
<polygon fill="black" stroke="black" points="511.46,-237.5 521.46,-234 511.46,-230.5 511.46,-237.5"/>
</g>
<!-- 12 -->
<!-- name: &quot;bool&quot;, typeName: &quot;&quot;, id: 12, branchId: 0, recurseId: &#45;1, attributes: 512, notes: &quot;&quot; -->
<g id="node9" class="node">
<title>12</title>
<ellipse fill="none" stroke="black" cx="550.37" cy="-180" rx="27.3" ry="18"/>
<text text-anchor="middle" x="550.37" y="-174.95" font-family="Times New Roman,serif" font-size="14.00">bool</text>
</g>
<!-- 11&#45;&gt;12 -->
<g id="edge8" class="edge">
<title>11&#45;&gt;12</title>
<path fill="none" stroke="black" d="M440.38,-180C466.15,-180 491.68,-180 511.54,-180"/>
<polygon fill="black" stroke="black" points="511.31,-183.5 521.31,-180 511.31,-176.5 511.31,-183.5"/>
</g>
<!-- 14 -->
<!-- name: &quot;varint&quot;, typeName: &quot;&quot;, id: 14, branchId: 0, recurseId: &#45;1, attributes: 512, notes: &quot;&quot; -->
<g id="node11" class="node">
<title>14</title>
<ellipse fill="none" stroke="black" cx="550.37" cy="-126" rx="32.41" ry="18"/>
<text text-anchor="middle" x="550.37" y="-120.95" font-family="Times New Roman,serif" font-size="14.00">varint</text>
</g>
<!-- 13&#45;&gt;14 -->
<g id="edge10" class="edge">
<title>13&#45;&gt;14</title>
<path fill="none" stroke="black" d="M413.15,-126C445.14,-126 479.79,-126 506.14,-126"/>
<polygon fill="black" stroke="black" points="506.11,-129.5 516.11,-126 506.11,-122.5 506.11,-129.5"/>
</g>
<!-- 45 -->
<!-- name: &quot;StructureSettings&quot;, typeName: &quot;&quot;, id: 45, branchId: 0, recurseId: &#45;1, attributes: 512, notes: &quot;&quot; -->
<g id="node13" class="node">
<title>45</title>
<ellipse fill="none" stroke="black" cx="550.37" cy="-72" rx="74.38" ry="18"/>
<text text-anchor="middle" x="550.37" y="-66.95" font-family="Times New Roman,serif" font-size="14.00">StructureSettings</text>
</g>
<!-- 15&#45;&gt;45 -->
<g id="edge12" class="edge">
<title>15&#45;&gt;45</title>
<path fill="none" stroke="black" d="M400.38,-72C421.05,-72 443.54,-72 464.64,-72"/>
<polygon fill="black" stroke="black" points="464.35,-75.5 474.35,-72 464.35,-68.5 464.35,-75.5"/>
</g>
<!-- 47 -->
<!-- name: &quot;varint&quot;, typeName: &quot;&quot;, id: 47, branchId: 0, recurseId: &#45;1, attributes: 512, notes: &quot;&quot; -->
<g id="node15" class="node">
<title>47</title>
<ellipse fill="none" stroke="black" cx="550.37" cy="-18" rx="32.41" ry="18"/>
<text text-anchor="middle" x="550.37" y="-12.95" font-family="Times New Roman,serif" font-size="14.00">varint</text>
</g>
<!-- 46&#45;&gt;47 -->
<g id="edge14" class="edge">
<title>46&#45;&gt;47</title>
<path fill="none" stroke="black" d="M413.79,-18C445.6,-18 479.97,-18 506.14,-18"/>
<polygon fill="black" stroke="black" points="506.03,-21.5 516.03,-18 506.03,-14.5 506.03,-21.5"/>
</g>
</g>
</svg>
