<?xml version="1.0" encoding="UTF-8" standalone="no"?>
<!DOCTYPE svg PUBLIC "-//W3C//DTD SVG 1.1//EN"
 "http://www.w3.org/Graphics/SVG/1.1/DTD/svg11.dtd">
<!-- Generated by graphviz version 11.0.0 (20240428.1522)
 -->
<!-- Title: StructureEditorData Pages: 1 -->
<svg width="633pt" height="368pt"
 viewBox="0.00 0.00 632.89 368.00" xmlns="http://www.w3.org/2000/svg" xmlns:xlink="http://www.w3.org/1999/xlink">
<g id="graph0" class="graph" transform="scale(1 1) rotate(0) translate(4 364)">
<title>StructureEditorData</title>
<polygon fill="white" stroke="none" points="-4,4 -4,-364 628.89,-364 628.89,4 -4,4"/>
<!-- 4 -->
<!-- name: &quot;StructureEditorData&quot;, typeName: &quot;&quot;, id: 4, branchId: 0, recurseId: &#45;1, attributes: 0, notes: &quot;&quot; -->
<g id="node1" class="node">
<title>4</title>
<ellipse fill="none" stroke="black" cx="84.5" cy="-180" rx="84.5" ry="18"/>
<text text-anchor="middle" x="84.5" y="-174.57" font-family="Times New Roman,serif" font-size="14.00">StructureEditorData</text>
</g>
<!-- 5 -->
<!-- name: &quot;Structure Name&quot;, typeName: &quot;&quot;, id: 5, branchId: 0, recurseId: &#45;1, attributes: 0, notes: &quot;&quot; -->
<g id="node2" class="node">
<title>5</title>
<ellipse fill="none" stroke="black" cx="322.92" cy="-342" rx="68.53" ry="18"/>
<text text-anchor="middle" x="322.92" y="-336.57" font-family="Times New Roman,serif" font-size="14.00">Structure Name</text>
</g>
<!-- 4&#45;&gt;5 -->
<g id="edge1" class="edge">
<title>4&#45;&gt;5</title>
<path fill="none" stroke="black" d="M96.19,-198.09C114.55,-227.46 154.96,-285.24 204.99,-315 218.18,-322.84 233.45,-328.41 248.52,-332.35"/>
<polygon fill="black" stroke="black" points="247.41,-335.69 257.95,-334.6 249.04,-328.88 247.41,-335.69"/>
</g>
<!-- 7 -->
<!-- name: &quot;Data Field&quot;, typeName: &quot;&quot;, id: 7, branchId: 0, recurseId: &#45;1, attributes: 0, notes: &quot;Used for structure blocks in data mode.&quot; -->
<g id="node4" class="node">
<title>7</title>
<ellipse fill="none" stroke="black" cx="322.92" cy="-288" rx="48.57" ry="18"/>
<text text-anchor="middle" x="322.92" y="-282.57" font-family="Times New Roman,serif" font-size="14.00">Data Field</text>
</g>
<!-- 4&#45;&gt;7 -->
<g id="edge3" class="edge">
<title>4&#45;&gt;7</title>
<path fill="none" stroke="black" d="M106.52,-197.84C129.34,-216.29 167.55,-244.67 204.99,-261 224.16,-269.36 246.27,-275.31 266.07,-279.47"/>
<polygon fill="black" stroke="black" points="265.13,-282.85 275.62,-281.35 266.49,-275.98 265.13,-282.85"/>
</g>
<!-- 9 -->
<!-- name: &quot;Should players be included?&quot;, typeName: &quot;&quot;, id: 9, branchId: 0, recurseId: &#45;1, attributes: 0, notes: &quot;&quot; -->
<g id="node6" class="node">
<title>9</title>
<ellipse fill="none" stroke="black" cx="322.92" cy="-234" rx="115.43" ry="18"/>
<text text-anchor="middle" x="322.92" y="-228.57" font-family="Times New Roman,serif" font-size="14.00">Should players be included?</text>
</g>
<!-- 4&#45;&gt;9 -->
<g id="edge5" class="edge">
<title>4&#45;&gt;9</title>
<path fill="none" stroke="black" d="M143.64,-193.28C174.22,-200.27 212.12,-208.92 245.1,-216.45"/>
<polygon fill="black" stroke="black" points="244.07,-219.81 254.6,-218.62 245.63,-212.98 244.07,-219.81"/>
</g>
<!-- 11 -->
<!-- name: &quot;Should show bounding box?&quot;, typeName: &quot;&quot;, id: 11, branchId: 0, recurseId: &#45;1, attributes: 0, notes: &quot;&quot; -->
<g id="node8" class="node">
<title>11</title>
<ellipse fill="none" stroke="black" cx="322.92" cy="-180" rx="117.93" ry="18"/>
<text text-anchor="middle" x="322.92" y="-174.57" font-family="Times New Roman,serif" font-size="14.00">Should show bounding box?</text>
</g>
<!-- 4&#45;&gt;11 -->
<g id="edge7" class="edge">
<title>4&#45;&gt;11</title>
<path fill="none" stroke="black" d="M169.18,-180C177.13,-180 185.3,-180 193.54,-180"/>
<polygon fill="black" stroke="black" points="193.29,-183.5 203.29,-180 193.29,-176.5 193.29,-183.5"/>
</g>
<!-- 13 -->
<!-- name: &quot;Structure Block Type&quot;, typeName: &quot;&quot;, id: 13, branchId: 0, recurseId: &#45;1, attributes: 0, notes: &quot;&quot; -->
<g id="node10" class="node">
<title>13</title>
<ellipse fill="none" stroke="black" cx="322.92" cy="-126" rx="90.98" ry="18"/>
<text text-anchor="middle" x="322.92" y="-120.58" font-family="Times New Roman,serif" font-size="14.00">Structure Block Type</text>
</g>
<!-- 4&#45;&gt;13 -->
<g id="edge9" class="edge">
<title>4&#45;&gt;13</title>
<path fill="none" stroke="black" d="M143.64,-166.72C176.08,-159.31 216.75,-150.02 251.05,-142.19"/>
<polygon fill="black" stroke="black" points="251.5,-145.67 260.47,-140.04 249.95,-138.85 251.5,-145.67"/>
</g>
<!-- 15 -->
<!-- name: &quot;Structure Settings&quot;, typeName: &quot;StructureSettings&quot;, id: 15, branchId: 0, recurseId: &#45;1, attributes: 256, notes: &quot;&quot; -->
<g id="node12" class="node">
<title>15</title>
<ellipse fill="none" stroke="black" cx="322.92" cy="-72" rx="76.51" ry="18"/>
<text text-anchor="middle" x="322.92" y="-66.58" font-family="Times New Roman,serif" font-size="14.00">Structure Settings</text>
</g>
<!-- 4&#45;&gt;15 -->
<g id="edge11" class="edge">
<title>4&#45;&gt;15</title>
<path fill="none" stroke="black" d="M106.52,-162.16C129.34,-143.71 167.55,-115.33 204.99,-99 218.38,-93.16 233.21,-88.49 247.69,-84.79"/>
<polygon fill="black" stroke="black" points="248.28,-88.25 257.19,-82.51 246.64,-81.45 248.28,-88.25"/>
</g>
<!-- 46 -->
<!-- name: &quot;Redstone Save Mode&quot;, typeName: &quot;&quot;, id: 46, branchId: 0, recurseId: &#45;1, attributes: 0, notes: &quot;&quot; -->
<g id="node14" class="node">
<title>46</title>
<ellipse fill="none" stroke="black" cx="322.92" cy="-18" rx="90.98" ry="18"/>
<text text-anchor="middle" x="322.92" y="-12.57" font-family="Times New Roman,serif" font-size="14.00">Redstone Save Mode</text>
</g>
<!-- 4&#45;&gt;46 -->
<g id="edge13" class="edge">
<title>4&#45;&gt;46</title>
<path fill="none" stroke="black" d="M96.19,-161.91C114.55,-132.54 154.96,-74.76 204.99,-45 214.46,-39.37 225.01,-34.91 235.78,-31.38"/>
<polygon fill="black" stroke="black" points="236.56,-34.8 245.15,-28.59 234.56,-28.09 236.56,-34.8"/>
</g>
<!-- 6 -->
<!-- name: &quot;string&quot;, typeName: &quot;&quot;, id: 6, branchId: 0, recurseId: &#45;1, attributes: 512, notes: &quot;&quot; -->
<g id="node3" class="node">
<title>6</title>
<ellipse fill="none" stroke="black" cx="550.87" cy="-342" rx="31.1" ry="18"/>
<text text-anchor="middle" x="550.87" y="-336.57" font-family="Times New Roman,serif" font-size="14.00">string</text>
</g>
<!-- 5&#45;&gt;6 -->
<g id="edge2" class="edge">
<title>5&#45;&gt;6</title>
<path fill="none" stroke="black" d="M391.71,-342C429.57,-342 475.53,-342 508.13,-342"/>
<polygon fill="black" stroke="black" points="507.98,-345.5 517.98,-342 507.98,-338.5 507.98,-345.5"/>
</g>
<!-- 8 -->
<!-- name: &quot;string&quot;, typeName: &quot;&quot;, id: 8, branchId: 0, recurseId: &#45;1, attributes: 512, notes: &quot;&quot; -->
<g id="node5" class="node">
<title>8</title>
<ellipse fill="none" stroke="black" cx="550.87" cy="-288" rx="31.1" ry="18"/>
<text text-anchor="middle" x="550.87" y="-282.57" font-family="Times New Roman,serif" font-size="14.00">string</text>
</g>
<!-- 7&#45;&gt;8 -->
<g id="edge4" class="edge">
<title>7&#45;&gt;8</title>
<path fill="none" stroke="black" d="M371.84,-288C412.22,-288 469.43,-288 508.01,-288"/>
<polygon fill="black" stroke="black" points="507.83,-291.5 517.83,-288 507.82,-284.5 507.83,-291.5"/>
</g>
<!-- 10 -->
<!-- name: &quot;bool&quot;, typeName: &quot;&quot;, id: 10, branchId: 0, recurseId: &#45;1, attributes: 512, notes: &quot;&quot; -->
<g id="node7" class="node">
<title>10</title>
<ellipse fill="none" stroke="black" cx="550.87" cy="-234" rx="27.61" ry="18"/>
<text text-anchor="middle" x="550.87" y="-228.57" font-family="Times New Roman,serif" font-size="14.00">bool</text>
</g>
<!-- 9&#45;&gt;10 -->
<g id="edge6" class="edge">
<title>9&#45;&gt;10</title>
<path fill="none" stroke="black" d="M438.55,-234C465.03,-234 491.39,-234 511.81,-234"/>
<polygon fill="black" stroke="black" points="511.59,-237.5 521.59,-234 511.59,-230.5 511.59,-237.5"/>
</g>
<!-- 12 -->
<!-- name: &quot;bool&quot;, typeName: &quot;&quot;, id: 12, branchId: 0, recurseId: &#45;1, attributes: 512, notes: &quot;&quot; -->
<g id="node9" class="node">
<title>12</title>
<ellipse fill="none" stroke="black" cx="550.87" cy="-180" rx="27.61" ry="18"/>
<text text-anchor="middle" x="550.87" y="-174.57" font-family="Times New Roman,serif" font-size="14.00">bool</text>
</g>
<!-- 11&#45;&gt;12 -->
<g id="edge8" class="edge">
<title>11&#45;&gt;12</title>
<path fill="none" stroke="black" d="M441.2,-180C466.65,-180 491.81,-180 511.5,-180"/>
<polygon fill="black" stroke="black" points="511.49,-183.5 521.49,-180 511.49,-176.5 511.49,-183.5"/>
</g>
<!-- 14 -->
<!-- name: &quot;varint&quot;, typeName: &quot;&quot;, id: 14, branchId: 0, recurseId: &#45;1, attributes: 512, notes: &quot;&quot; -->
<g id="node11" class="node">
<title>14</title>
<ellipse fill="none" stroke="black" cx="550.87" cy="-126" rx="31.1" ry="18"/>
<text text-anchor="middle" x="550.87" y="-120.58" font-family="Times New Roman,serif" font-size="14.00">varint</text>
</g>
<!-- 13&#45;&gt;14 -->
<g id="edge10" class="edge">
<title>13&#45;&gt;14</title>
<path fill="none" stroke="black" d="M414.2,-126C446.6,-126 481.61,-126 507.94,-126"/>
<polygon fill="black" stroke="black" points="507.88,-129.5 517.88,-126 507.88,-122.5 507.88,-129.5"/>
</g>
<!-- 45 -->
<!-- name: &quot;StructureSettings&quot;, typeName: &quot;&quot;, id: 45, branchId: 0, recurseId: &#45;1, attributes: 512, notes: &quot;&quot; -->
<g id="node13" class="node">
<title>45</title>
<ellipse fill="none" stroke="black" cx="550.87" cy="-72" rx="74.02" ry="18"/>
<text text-anchor="middle" x="550.87" y="-66.58" font-family="Times New Roman,serif" font-size="14.00">StructureSettings</text>
</g>
<!-- 15&#45;&gt;45 -->
<g id="edge12" class="edge">
<title>15&#45;&gt;45</title>
<path fill="none" stroke="black" d="M399.79,-72C420.76,-72 443.66,-72 465.1,-72"/>
<polygon fill="black" stroke="black" points="464.99,-75.5 474.99,-72 464.99,-68.5 464.99,-75.5"/>
</g>
<!-- 47 -->
<!-- name: &quot;varint&quot;, typeName: &quot;&quot;, id: 47, branchId: 0, recurseId: &#45;1, attributes: 512, notes: &quot;&quot; -->
<g id="node15" class="node">
<title>47</title>
<ellipse fill="none" stroke="black" cx="550.87" cy="-18" rx="31.1" ry="18"/>
<text text-anchor="middle" x="550.87" y="-12.57" font-family="Times New Roman,serif" font-size="14.00">varint</text>
</g>
<!-- 46&#45;&gt;47 -->
<g id="edge14" class="edge">
<title>46&#45;&gt;47</title>
<path fill="none" stroke="black" d="M414.2,-18C446.6,-18 481.61,-18 507.94,-18"/>
<polygon fill="black" stroke="black" points="507.88,-21.5 517.88,-18 507.88,-14.5 507.88,-21.5"/>
</g>
</g>
</svg>
