<?xml version="1.0" encoding="UTF-8" standalone="no"?>
<!DOCTYPE svg PUBLIC "-//W3C//DTD SVG 1.1//EN"
 "http://www.w3.org/Graphics/SVG/1.1/DTD/svg11.dtd">
<!-- Generated by graphviz version 2.46.1 (20210213.1702)
 -->
<!-- Title: StructureSettings Pages: 1 -->
<svg width="868pt" height="746pt"
 viewBox="0.00 0.00 867.73 746.00" xmlns="http://www.w3.org/2000/svg" xmlns:xlink="http://www.w3.org/1999/xlink">
<g id="graph0" class="graph" transform="scale(1 1) rotate(0) translate(4 742)">
<title>StructureSettings</title>
<polygon fill="white" stroke="transparent" points="-4,4 -4,-742 863.73,-742 863.73,4 -4,4"/>
<!-- 16 -->
<!-- name: &quot;StructureSettings&quot;, typeName: &quot;&quot;, id: 16, branchId: 0, recurseId: &#45;1, attributes: 0, notes: &quot;&quot; -->
<g id="node1" class="node">
<title>16</title>
<ellipse fill="none" stroke="black" cx="72.79" cy="-369" rx="72.59" ry="18"/>
<text text-anchor="middle" x="72.79" y="-365.3" font-family="Times New Roman,serif" font-size="14.00">StructureSettings</text>
</g>
<!-- 17 -->
<!-- name: &quot;Structure Palette Name&quot;, typeName: &quot;&quot;, id: 17, branchId: 0, recurseId: &#45;1, attributes: 0, notes: &quot;&quot; -->
<g id="node2" class="node">
<title>17</title>
<ellipse fill="none" stroke="black" cx="409.72" cy="-720" rx="93.68" ry="18"/>
<text text-anchor="middle" x="409.72" y="-716.3" font-family="Times New Roman,serif" font-size="14.00">Structure Palette Name</text>
</g>
<!-- 16&#45;&gt;17 -->
<g id="edge1" class="edge">
<title>16&#45;&gt;17</title>
<path fill="none" stroke="black" d="M73.62,-387.39C74.18,-443.51 84.18,-613.59 181.59,-693 220.44,-724.68 276.2,-731.68 322.75,-730.64"/>
<polygon fill="black" stroke="black" points="322.97,-734.13 332.84,-730.28 322.73,-727.14 322.97,-734.13"/>
</g>
<!-- 19 -->
<!-- name: &quot;Should ignore entities?&quot;, typeName: &quot;&quot;, id: 19, branchId: 0, recurseId: &#45;1, attributes: 0, notes: &quot;&quot; -->
<g id="node4" class="node">
<title>19</title>
<ellipse fill="none" stroke="black" cx="409.72" cy="-666" rx="92.88" ry="18"/>
<text text-anchor="middle" x="409.72" y="-662.3" font-family="Times New Roman,serif" font-size="14.00">Should ignore entities?</text>
</g>
<!-- 16&#45;&gt;19 -->
<g id="edge3" class="edge">
<title>16&#45;&gt;19</title>
<path fill="none" stroke="black" d="M74.96,-387.18C79.2,-436.79 98.31,-575.08 181.59,-639 220.54,-668.9 274.85,-676.21 320.6,-675.78"/>
<polygon fill="black" stroke="black" points="320.9,-679.28 330.82,-675.56 320.74,-672.28 320.9,-679.28"/>
</g>
<!-- 21 -->
<!-- name: &quot;Should ignore blocks?&quot;, typeName: &quot;&quot;, id: 21, branchId: 0, recurseId: &#45;1, attributes: 0, notes: &quot;&quot; -->
<g id="node6" class="node">
<title>21</title>
<ellipse fill="none" stroke="black" cx="409.72" cy="-612" rx="92.08" ry="18"/>
<text text-anchor="middle" x="409.72" y="-608.3" font-family="Times New Roman,serif" font-size="14.00">Should ignore blocks?</text>
</g>
<!-- 16&#45;&gt;21 -->
<g id="edge5" class="edge">
<title>16&#45;&gt;21</title>
<path fill="none" stroke="black" d="M76.92,-387.28C85.26,-429.96 112.35,-536.29 181.59,-585 220.69,-612.51 273.25,-620.12 317.96,-620.46"/>
<polygon fill="black" stroke="black" points="317.97,-623.96 327.96,-620.41 317.94,-616.96 317.97,-623.96"/>
</g>
<!-- 23 -->
<!-- name: &quot;Should Allow Non Ticking Player and Ticking Area Chunks&quot;, typeName: &quot;&quot;, id: 23, branchId: 0, recurseId: &#45;1, attributes: 0, notes: &quot;&quot; -->
<g id="node8" class="node">
<title>23</title>
<ellipse fill="none" stroke="black" cx="409.72" cy="-558" rx="228.26" ry="18"/>
<text text-anchor="middle" x="409.72" y="-554.3" font-family="Times New Roman,serif" font-size="14.00">Should Allow Non Ticking Player and Ticking Area Chunks</text>
</g>
<!-- 16&#45;&gt;23 -->
<g id="edge7" class="edge">
<title>16&#45;&gt;23</title>
<path fill="none" stroke="black" d="M79.97,-387.13C92.81,-421.74 125.89,-496.78 181.59,-531 190.15,-536.26 199.24,-540.75 208.67,-544.56"/>
<polygon fill="black" stroke="black" points="207.62,-547.9 218.21,-548.15 210.08,-541.35 207.62,-547.9"/>
</g>
<!-- 25 -->
<!-- name: &quot;Structure Size&quot;, typeName: &quot;NetworkBlockPosition&quot;, id: 25, branchId: 0, recurseId: &#45;1, attributes: 256, notes: &quot;&quot; -->
<g id="node10" class="node">
<title>25</title>
<ellipse fill="none" stroke="black" cx="409.72" cy="-504" rx="61.99" ry="18"/>
<text text-anchor="middle" x="409.72" y="-500.3" font-family="Times New Roman,serif" font-size="14.00">Structure Size</text>
</g>
<!-- 16&#45;&gt;25 -->
<g id="edge9" class="edge">
<title>16&#45;&gt;25</title>
<path fill="none" stroke="black" d="M85.61,-386.81C103.23,-411.73 138.94,-456.27 181.59,-477 230.5,-500.77 292.08,-506.83 338.78,-507.33"/>
<polygon fill="black" stroke="black" points="338.8,-510.83 348.81,-507.36 338.82,-503.83 338.8,-510.83"/>
</g>
<!-- 27 -->
<!-- name: &quot;Structure Offset&quot;, typeName: &quot;NetworkBlockPosition&quot;, id: 27, branchId: 0, recurseId: &#45;1, attributes: 256, notes: &quot;&quot; -->
<g id="node12" class="node">
<title>27</title>
<ellipse fill="none" stroke="black" cx="409.72" cy="-450" rx="69.59" ry="18"/>
<text text-anchor="middle" x="409.72" y="-446.3" font-family="Times New Roman,serif" font-size="14.00">Structure Offset</text>
</g>
<!-- 16&#45;&gt;27 -->
<g id="edge11" class="edge">
<title>16&#45;&gt;27</title>
<path fill="none" stroke="black" d="M100.62,-385.74C121.8,-398.12 152.52,-414.28 181.59,-423 229.75,-437.45 285.85,-444.21 330.24,-447.35"/>
<polygon fill="black" stroke="black" points="330.18,-450.85 340.39,-448.02 330.64,-443.87 330.18,-450.85"/>
</g>
<!-- 29 -->
<!-- name: &quot;Last Edit Player&quot;, typeName: &quot;ActorUniqueID&quot;, id: 29, branchId: 0, recurseId: &#45;1, attributes: 256, notes: &quot;Player who last edited the structure block.&quot; -->
<g id="node14" class="node">
<title>29</title>
<ellipse fill="none" stroke="black" cx="409.72" cy="-396" rx="68.49" ry="18"/>
<text text-anchor="middle" x="409.72" y="-392.3" font-family="Times New Roman,serif" font-size="14.00">Last Edit Player</text>
</g>
<!-- 16&#45;&gt;29 -->
<g id="edge13" class="edge">
<title>16&#45;&gt;29</title>
<path fill="none" stroke="black" d="M142.38,-374.53C198.17,-379.03 276.76,-385.36 334.11,-389.99"/>
<polygon fill="black" stroke="black" points="333.95,-393.48 344.2,-390.8 334.51,-386.51 333.95,-393.48"/>
</g>
<!-- 31 -->
<!-- name: &quot;Rotation&quot;, typeName: &quot;&quot;, id: 31, branchId: 0, recurseId: &#45;1, attributes: 0, notes: &quot;enumeration: Rotation&quot; -->
<g id="node16" class="node">
<title>31</title>
<ellipse fill="none" stroke="black" cx="409.72" cy="-342" rx="42.49" ry="18"/>
<text text-anchor="middle" x="409.72" y="-338.3" font-family="Times New Roman,serif" font-size="14.00">Rotation</text>
</g>
<!-- 16&#45;&gt;31 -->
<g id="edge15" class="edge">
<title>16&#45;&gt;31</title>
<path fill="none" stroke="black" d="M142.38,-363.47C206.34,-358.31 300.28,-350.74 357.81,-346.1"/>
<polygon fill="black" stroke="black" points="358.42,-349.57 368.11,-345.27 357.86,-342.59 358.42,-349.57"/>
</g>
<!-- 33 -->
<!-- name: &quot;Mirror&quot;, typeName: &quot;&quot;, id: 33, branchId: 0, recurseId: &#45;1, attributes: 0, notes: &quot;enumeration: Mirror&quot; -->
<g id="node18" class="node">
<title>33</title>
<ellipse fill="none" stroke="black" cx="409.72" cy="-288" rx="34.39" ry="18"/>
<text text-anchor="middle" x="409.72" y="-284.3" font-family="Times New Roman,serif" font-size="14.00">Mirror</text>
</g>
<!-- 16&#45;&gt;33 -->
<g id="edge17" class="edge">
<title>16&#45;&gt;33</title>
<path fill="none" stroke="black" d="M100.62,-352.26C121.8,-339.88 152.52,-323.72 181.59,-315 243.65,-296.39 318.86,-290.53 365.25,-288.73"/>
<polygon fill="black" stroke="black" points="365.39,-292.23 375.27,-288.39 365.15,-285.24 365.39,-292.23"/>
</g>
<!-- 35 -->
<!-- name: &quot;Animation Mode&quot;, typeName: &quot;&quot;, id: 35, branchId: 0, recurseId: &#45;1, attributes: 0, notes: &quot;enumeration: AnimationMode&quot; -->
<g id="node20" class="node">
<title>35</title>
<ellipse fill="none" stroke="black" cx="409.72" cy="-234" rx="71.49" ry="18"/>
<text text-anchor="middle" x="409.72" y="-230.3" font-family="Times New Roman,serif" font-size="14.00">Animation Mode</text>
</g>
<!-- 16&#45;&gt;35 -->
<g id="edge19" class="edge">
<title>16&#45;&gt;35</title>
<path fill="none" stroke="black" d="M85.61,-351.19C103.23,-326.27 138.94,-281.73 181.59,-261 227.24,-238.81 283.94,-232.05 329.26,-230.84"/>
<polygon fill="black" stroke="black" points="329.4,-234.34 339.34,-230.66 329.28,-227.34 329.4,-234.34"/>
</g>
<!-- 37 -->
<!-- name: &quot;Animation Seconds&quot;, typeName: &quot;&quot;, id: 37, branchId: 0, recurseId: &#45;1, attributes: 0, notes: &quot;&quot; -->
<g id="node22" class="node">
<title>37</title>
<ellipse fill="none" stroke="black" cx="409.72" cy="-180" rx="81.79" ry="18"/>
<text text-anchor="middle" x="409.72" y="-176.3" font-family="Times New Roman,serif" font-size="14.00">Animation Seconds</text>
</g>
<!-- 16&#45;&gt;37 -->
<g id="edge21" class="edge">
<title>16&#45;&gt;37</title>
<path fill="none" stroke="black" d="M79.97,-350.87C92.81,-316.26 125.89,-241.22 181.59,-207 223.5,-181.25 278.04,-174.09 323.16,-173.57"/>
<polygon fill="black" stroke="black" points="323.23,-177.07 333.23,-173.56 323.23,-170.07 323.23,-177.07"/>
</g>
<!-- 39 -->
<!-- name: &quot;Integrity Value&quot;, typeName: &quot;&quot;, id: 39, branchId: 0, recurseId: &#45;1, attributes: 0, notes: &quot;&quot; -->
<g id="node24" class="node">
<title>39</title>
<ellipse fill="none" stroke="black" cx="409.72" cy="-126" rx="63.89" ry="18"/>
<text text-anchor="middle" x="409.72" y="-122.3" font-family="Times New Roman,serif" font-size="14.00">Integrity Value</text>
</g>
<!-- 16&#45;&gt;39 -->
<g id="edge23" class="edge">
<title>16&#45;&gt;39</title>
<path fill="none" stroke="black" d="M76.92,-350.72C85.26,-308.04 112.35,-201.71 181.59,-153 227.83,-120.47 292.88,-115.77 341.53,-118.01"/>
<polygon fill="black" stroke="black" points="341.46,-121.51 351.65,-118.58 341.86,-114.52 341.46,-121.51"/>
</g>
<!-- 41 -->
<!-- name: &quot;Integrity Seed&quot;, typeName: &quot;&quot;, id: 41, branchId: 0, recurseId: &#45;1, attributes: 0, notes: &quot;&quot; -->
<g id="node26" class="node">
<title>41</title>
<ellipse fill="none" stroke="black" cx="409.72" cy="-72" rx="61.19" ry="18"/>
<text text-anchor="middle" x="409.72" y="-68.3" font-family="Times New Roman,serif" font-size="14.00">Integrity Seed</text>
</g>
<!-- 16&#45;&gt;41 -->
<g id="edge25" class="edge">
<title>16&#45;&gt;41</title>
<path fill="none" stroke="black" d="M74.96,-350.82C79.2,-301.21 98.31,-162.92 181.59,-99 227.61,-63.67 295.09,-59.88 344.53,-63.13"/>
<polygon fill="black" stroke="black" points="344.56,-66.64 354.8,-63.92 345.09,-59.66 344.56,-66.64"/>
</g>
<!-- 43 -->
<!-- name: &quot;Rotation Pivot&quot;, typeName: &quot;Vec3&quot;, id: 43, branchId: 0, recurseId: &#45;1, attributes: 256, notes: &quot;Pivot used to rotate a structure around.&quot; -->
<g id="node28" class="node">
<title>43</title>
<ellipse fill="none" stroke="black" cx="409.72" cy="-18" rx="63.89" ry="18"/>
<text text-anchor="middle" x="409.72" y="-14.3" font-family="Times New Roman,serif" font-size="14.00">Rotation Pivot</text>
</g>
<!-- 16&#45;&gt;43 -->
<g id="edge27" class="edge">
<title>16&#45;&gt;43</title>
<path fill="none" stroke="black" d="M73.62,-350.61C74.18,-294.49 84.18,-124.41 181.59,-45 226.51,-8.38 294.03,-4.74 343.78,-8.38"/>
<polygon fill="black" stroke="black" points="343.54,-11.87 353.8,-9.22 344.13,-4.89 343.54,-11.87"/>
</g>
<!-- 18 -->
<!-- name: &quot;string&quot;, typeName: &quot;&quot;, id: 18, branchId: 0, recurseId: &#45;1, attributes: 512, notes: &quot;&quot; -->
<g id="node3" class="node">
<title>18</title>
<ellipse fill="none" stroke="black" cx="766.79" cy="-720" rx="30.59" ry="18"/>
<text text-anchor="middle" x="766.79" y="-716.3" font-family="Times New Roman,serif" font-size="14.00">string</text>
</g>
<!-- 17&#45;&gt;18 -->
<g id="edge2" class="edge">
<title>17&#45;&gt;18</title>
<path fill="none" stroke="black" d="M503.54,-720C575.78,-720 672.46,-720 725.96,-720"/>
<polygon fill="black" stroke="black" points="726.06,-723.5 736.06,-720 726.06,-716.5 726.06,-723.5"/>
</g>
<!-- 20 -->
<!-- name: &quot;bool&quot;, typeName: &quot;&quot;, id: 20, branchId: 0, recurseId: &#45;1, attributes: 512, notes: &quot;&quot; -->
<g id="node5" class="node">
<title>20</title>
<ellipse fill="none" stroke="black" cx="766.79" cy="-666" rx="27.1" ry="18"/>
<text text-anchor="middle" x="766.79" y="-662.3" font-family="Times New Roman,serif" font-size="14.00">bool</text>
</g>
<!-- 19&#45;&gt;20 -->
<g id="edge4" class="edge">
<title>19&#45;&gt;20</title>
<path fill="none" stroke="black" d="M503.08,-666C576.71,-666 675.95,-666 728.89,-666"/>
<polygon fill="black" stroke="black" points="729.15,-669.5 739.15,-666 729.15,-662.5 729.15,-669.5"/>
</g>
<!-- 22 -->
<!-- name: &quot;bool&quot;, typeName: &quot;&quot;, id: 22, branchId: 0, recurseId: &#45;1, attributes: 512, notes: &quot;&quot; -->
<g id="node7" class="node">
<title>22</title>
<ellipse fill="none" stroke="black" cx="766.79" cy="-612" rx="27.1" ry="18"/>
<text text-anchor="middle" x="766.79" y="-608.3" font-family="Times New Roman,serif" font-size="14.00">bool</text>
</g>
<!-- 21&#45;&gt;22 -->
<g id="edge6" class="edge">
<title>21&#45;&gt;22</title>
<path fill="none" stroke="black" d="M502.16,-612C575.97,-612 676,-612 729.11,-612"/>
<polygon fill="black" stroke="black" points="729.39,-615.5 739.39,-612 729.39,-608.5 729.39,-615.5"/>
</g>
<!-- 24 -->
<!-- name: &quot;bool&quot;, typeName: &quot;&quot;, id: 24, branchId: 0, recurseId: &#45;1, attributes: 512, notes: &quot;&quot; -->
<g id="node9" class="node">
<title>24</title>
<ellipse fill="none" stroke="black" cx="766.79" cy="-558" rx="27.1" ry="18"/>
<text text-anchor="middle" x="766.79" y="-554.3" font-family="Times New Roman,serif" font-size="14.00">bool</text>
</g>
<!-- 23&#45;&gt;24 -->
<g id="edge8" class="edge">
<title>23&#45;&gt;24</title>
<path fill="none" stroke="black" d="M637.85,-558C673.15,-558 705.61,-558 729,-558"/>
<polygon fill="black" stroke="black" points="729.09,-561.5 739.09,-558 729.09,-554.5 729.09,-561.5"/>
</g>
<!-- 26 -->
<!-- name: &quot;NetworkBlockPosition&quot;, typeName: &quot;&quot;, id: 26, branchId: 0, recurseId: &#45;1, attributes: 512, notes: &quot;&quot; -->
<g id="node11" class="node">
<title>26</title>
<ellipse fill="none" stroke="black" cx="766.79" cy="-504" rx="92.88" ry="18"/>
<text text-anchor="middle" x="766.79" y="-500.3" font-family="Times New Roman,serif" font-size="14.00">NetworkBlockPosition</text>
</g>
<!-- 25&#45;&gt;26 -->
<g id="edge10" class="edge">
<title>25&#45;&gt;26</title>
<path fill="none" stroke="black" d="M471.76,-504C524.35,-504 601.36,-504 663.37,-504"/>
<polygon fill="black" stroke="black" points="663.58,-507.5 673.58,-504 663.58,-500.5 663.58,-507.5"/>
</g>
<!-- 28 -->
<!-- name: &quot;NetworkBlockPosition&quot;, typeName: &quot;&quot;, id: 28, branchId: 0, recurseId: &#45;1, attributes: 512, notes: &quot;&quot; -->
<g id="node13" class="node">
<title>28</title>
<ellipse fill="none" stroke="black" cx="766.79" cy="-450" rx="92.88" ry="18"/>
<text text-anchor="middle" x="766.79" y="-446.3" font-family="Times New Roman,serif" font-size="14.00">NetworkBlockPosition</text>
</g>
<!-- 27&#45;&gt;28 -->
<g id="edge12" class="edge">
<title>27&#45;&gt;28</title>
<path fill="none" stroke="black" d="M479.6,-450C531.84,-450 604.46,-450 663.48,-450"/>
<polygon fill="black" stroke="black" points="663.58,-453.5 673.58,-450 663.58,-446.5 663.58,-453.5"/>
</g>
<!-- 30 -->
<!-- name: &quot;ActorUniqueID&quot;, typeName: &quot;&quot;, id: 30, branchId: 0, recurseId: &#45;1, attributes: 512, notes: &quot;&quot; -->
<g id="node15" class="node">
<title>30</title>
<ellipse fill="none" stroke="black" cx="766.79" cy="-396" rx="66.89" ry="18"/>
<text text-anchor="middle" x="766.79" y="-392.3" font-family="Times New Roman,serif" font-size="14.00">ActorUniqueID</text>
</g>
<!-- 29&#45;&gt;30 -->
<g id="edge14" class="edge">
<title>29&#45;&gt;30</title>
<path fill="none" stroke="black" d="M478.34,-396C538.57,-396 626.62,-396 689.38,-396"/>
<polygon fill="black" stroke="black" points="689.62,-399.5 699.62,-396 689.62,-392.5 689.62,-399.5"/>
</g>
<!-- 32 -->
<!-- name: &quot;byte&quot;, typeName: &quot;&quot;, id: 32, branchId: 0, recurseId: &#45;1, attributes: 512, notes: &quot;&quot; -->
<g id="node17" class="node">
<title>32</title>
<ellipse fill="none" stroke="black" cx="766.79" cy="-342" rx="27" ry="18"/>
<text text-anchor="middle" x="766.79" y="-338.3" font-family="Times New Roman,serif" font-size="14.00">byte</text>
</g>
<!-- 31&#45;&gt;32 -->
<g id="edge16" class="edge">
<title>31&#45;&gt;32</title>
<path fill="none" stroke="black" d="M452.14,-342C522.15,-342 662.73,-342 729.27,-342"/>
<polygon fill="black" stroke="black" points="729.67,-345.5 739.67,-342 729.67,-338.5 729.67,-345.5"/>
</g>
<!-- 34 -->
<!-- name: &quot;byte&quot;, typeName: &quot;&quot;, id: 34, branchId: 0, recurseId: &#45;1, attributes: 512, notes: &quot;&quot; -->
<g id="node19" class="node">
<title>34</title>
<ellipse fill="none" stroke="black" cx="766.79" cy="-288" rx="27" ry="18"/>
<text text-anchor="middle" x="766.79" y="-284.3" font-family="Times New Roman,serif" font-size="14.00">byte</text>
</g>
<!-- 33&#45;&gt;34 -->
<g id="edge18" class="edge">
<title>33&#45;&gt;34</title>
<path fill="none" stroke="black" d="M444.44,-288C511.32,-288 660.23,-288 729.3,-288"/>
<polygon fill="black" stroke="black" points="729.68,-291.5 739.68,-288 729.68,-284.5 729.68,-291.5"/>
</g>
<!-- 36 -->
<!-- name: &quot;byte&quot;, typeName: &quot;&quot;, id: 36, branchId: 0, recurseId: &#45;1, attributes: 512, notes: &quot;&quot; -->
<g id="node21" class="node">
<title>36</title>
<ellipse fill="none" stroke="black" cx="766.79" cy="-234" rx="27" ry="18"/>
<text text-anchor="middle" x="766.79" y="-230.3" font-family="Times New Roman,serif" font-size="14.00">byte</text>
</g>
<!-- 35&#45;&gt;36 -->
<g id="edge20" class="edge">
<title>35&#45;&gt;36</title>
<path fill="none" stroke="black" d="M481.29,-234C556.12,-234 671.36,-234 729.53,-234"/>
<polygon fill="black" stroke="black" points="729.71,-237.5 739.71,-234 729.71,-230.5 729.71,-237.5"/>
</g>
<!-- 38 -->
<!-- name: &quot;float&quot;, typeName: &quot;&quot;, id: 38, branchId: 0, recurseId: &#45;1, attributes: 512, notes: &quot;&quot; -->
<g id="node23" class="node">
<title>38</title>
<ellipse fill="none" stroke="black" cx="766.79" cy="-180" rx="27" ry="18"/>
<text text-anchor="middle" x="766.79" y="-176.3" font-family="Times New Roman,serif" font-size="14.00">float</text>
</g>
<!-- 37&#45;&gt;38 -->
<g id="edge22" class="edge">
<title>37&#45;&gt;38</title>
<path fill="none" stroke="black" d="M491.73,-180C566.53,-180 674.17,-180 729.67,-180"/>
<polygon fill="black" stroke="black" points="729.72,-183.5 739.72,-180 729.72,-176.5 729.72,-183.5"/>
</g>
<!-- 40 -->
<!-- name: &quot;float&quot;, typeName: &quot;&quot;, id: 40, branchId: 0, recurseId: &#45;1, attributes: 512, notes: &quot;&quot; -->
<g id="node25" class="node">
<title>40</title>
<ellipse fill="none" stroke="black" cx="766.79" cy="-126" rx="27" ry="18"/>
<text text-anchor="middle" x="766.79" y="-122.3" font-family="Times New Roman,serif" font-size="14.00">float</text>
</g>
<!-- 39&#45;&gt;40 -->
<g id="edge24" class="edge">
<title>39&#45;&gt;40</title>
<path fill="none" stroke="black" d="M473.79,-126C548.23,-126 669.49,-126 729.62,-126"/>
<polygon fill="black" stroke="black" points="729.77,-129.5 739.77,-126 729.77,-122.5 729.77,-129.5"/>
</g>
<!-- 42 -->
<!-- name: &quot;unsigned int&quot;, typeName: &quot;&quot;, id: 42, branchId: 0, recurseId: &#45;1, attributes: 512, notes: &quot;&quot; -->
<g id="node27" class="node">
<title>42</title>
<ellipse fill="none" stroke="black" cx="766.79" cy="-72" rx="53.89" ry="18"/>
<text text-anchor="middle" x="766.79" y="-68.3" font-family="Times New Roman,serif" font-size="14.00">unsigned int</text>
</g>
<!-- 41&#45;&gt;42 -->
<g id="edge26" class="edge">
<title>41&#45;&gt;42</title>
<path fill="none" stroke="black" d="M470.95,-72C535.37,-72 637.08,-72 702.61,-72"/>
<polygon fill="black" stroke="black" points="702.81,-75.5 712.81,-72 702.81,-68.5 702.81,-75.5"/>
</g>
<!-- 44 -->
<!-- name: &quot;Vec3&quot;, typeName: &quot;&quot;, id: 44, branchId: 0, recurseId: &#45;1, attributes: 512, notes: &quot;&quot; -->
<g id="node29" class="node">
<title>44</title>
<ellipse fill="none" stroke="black" cx="766.79" cy="-18" rx="29.8" ry="18"/>
<text text-anchor="middle" x="766.79" y="-14.3" font-family="Times New Roman,serif" font-size="14.00">Vec3</text>
</g>
<!-- 43&#45;&gt;44 -->
<g id="edge28" class="edge">
<title>43&#45;&gt;44</title>
<path fill="none" stroke="black" d="M473.79,-18C546.92,-18 665.22,-18 726.38,-18"/>
<polygon fill="black" stroke="black" points="726.75,-21.5 736.75,-18 726.75,-14.5 726.75,-21.5"/>
</g>
</g>
</svg>
