<?xml version="1.0" encoding="UTF-8" standalone="no"?>
<!DOCTYPE svg PUBLIC "-//W3C//DTD SVG 1.1//EN"
 "http://www.w3.org/Graphics/SVG/1.1/DTD/svg11.dtd">
<!-- Generated by graphviz version 2.46.1 (20210213.1702)
 -->
<!-- Title: SubClientConnectionRequest Pages: 1 -->
<svg width="888pt" height="206pt"
 viewBox="0.00 0.00 888.44 206.00" xmlns="http://www.w3.org/2000/svg" xmlns:xlink="http://www.w3.org/1999/xlink">
<g id="graph0" class="graph" transform="scale(1 1) rotate(0) translate(4 202)">
<title>SubClientConnectionRequest</title>
<polygon fill="white" stroke="transparent" points="-4,4 -4,-202 884.44,-202 884.44,4 -4,4"/>
<!-- 0 -->
<!-- name: &quot;SubClientConnectionRequest&quot;, typeName: &quot;&quot;, id: 0, branchId: 0, recurseId: &#45;1, attributes: 0, notes: &quot;&quot; -->
<g id="node1" class="node">
<title>0</title>
<ellipse fill="none" stroke="black" cx="118.29" cy="-99" rx="118.08" ry="18"/>
<text text-anchor="middle" x="118.29" y="-95.3" font-family="Times New Roman,serif" font-size="14.00">SubClientConnectionRequest</text>
</g>
<!-- 1 -->
<!-- name: &quot;Certificate Chain (JSON)&quot;, typeName: &quot;&quot;, id: 1, branchId: 0, recurseId: &#45;1, attributes: 8, notes: &quot;Array of Base64 encoded JSON Web Token certificates to authenticate the player.The last certificate in the chain will have a property &#39;extraData&#39; that contains player identity information including the XBL XUID (if the player was signed into XBL at the time of the connection).&quot; -->
<g id="node2" class="node">
<title>1</title>
<ellipse fill="none" stroke="black" cx="373.97" cy="-126" rx="101.28" ry="18"/>
<text text-anchor="middle" x="373.97" y="-122.3" font-family="Times New Roman,serif" font-size="14.00">Certificate Chain (JSON)</text>
</g>
<!-- 0&#45;&gt;1 -->
<g id="edge1" class="edge">
<title>0&#45;&gt;1</title>
<path fill="none" stroke="black" d="M215.56,-109.25C235.46,-111.36 256.43,-113.6 276.35,-115.72"/>
<polygon fill="black" stroke="black" points="276.03,-119.2 286.35,-116.78 276.77,-112.24 276.03,-119.2"/>
</g>
<!-- 7 -->
<!-- name: &quot;Raw Token&quot;, typeName: &quot;&quot;, id: 7, branchId: 0, recurseId: &#45;1, attributes: 8, notes: &quot;Base64 encoded JSON Web Token that contains other relevant client properties.
				Properties Include:
				&#39;SelfSignedId&#39;
				&#39;ClientRandomId&#39;
				&#39;PlatformUserId&#39;
				&#39;SkinId&#39;
				&#39;SkinData&#39;
				&#39;SkinImageWidth&#39;
				&#39;SkinImageHeight&#39;
				&#39;CapeData&#39;
				&#39;CapeImageWidth&#39;
				&#39;CapeImageHeight&#39;
				&#39;SkinResources&#39;
				&#39;SkinGeometry&#39;
				&#39;SkinGeometryDataEngineVersion&#39;
				&#39;SkinAnimationData&#39;
				&#39;PlayFabId&#39;
				&#39;DeviceId&#39;
				&#39;TrustedSkin&#39;
				&#39;PremiumSkin&#39;
				&#39;PersonaSkin&#39;
				&#39;AnimatedImageData = Array of:&#39;
				&#39;&#45;&#45; Type&#39;
				&#39;&#45;&#45; Image&#39;
				&#39;&#45;&#45; ImageWidth&#39;
				&#39;&#45;&#45; ImageHeight&#39;
				&#39;&#45;&#45; Frames&#39;
				&#39;&#45;&#45; AnimationExpression&#39;
				&#39;ArmSize&#39;
				&#39;SkinColor&#39;
				&#39;PersonaPieces = Array of:&#39;
				&#39;&#45;&#45; PackId&#39;
				&#39;&#45;&#45; PieceId&#39;
				&#39;&#45;&#45; IsDefault&#39;
				&#39;&#45;&#45; PieceType&#39;
				&#39;&#45;&#45; ProuctId&#39;
				&#39;PieceTintColors = Array of:&#39;
				&#39;&#45;&#45; PieceType&#39;
				&#39;&#45;&#45; Colors = Array of color hexstrings&#39;
				&#39;DefaultInputMode&#39; = (see enumeration: InputMode)
				&#39;CurrentInputMode&#39; = (see enumeration: InputMode)
				&#39;ThirdPartyName&#39;
				&#39;ThirdPartyNameOnly&#39;
				&#39;PlatformOnlineId&#39;
				&#39;PlatformOfflineId&#39;
 &#160;&#160;&#160;&#160;&#160;&#160;&#160;&#160;&#160;&#160;&#160;&#160;&#160;&#160;&#160;&#39;DeviceOS&#39; = (see enumeration: BuildPlatform)
				&#39;CapeOnClassicSkin&#39;
				&#39;CapeId&#39;
				&#39;PrimaryUser&#39;
				&#39;CompatibleWithClientSideChunkGen&#39;&quot; -->
<g id="node8" class="node">
<title>7</title>
<ellipse fill="none" stroke="black" cx="373.97" cy="-72" rx="53.09" ry="18"/>
<text text-anchor="middle" x="373.97" y="-68.3" font-family="Times New Roman,serif" font-size="14.00">Raw Token</text>
</g>
<!-- 0&#45;&gt;7 -->
<g id="edge7" class="edge">
<title>0&#45;&gt;7</title>
<path fill="none" stroke="black" d="M215.56,-88.75C248.28,-85.27 283.89,-81.48 312.95,-78.39"/>
<polygon fill="black" stroke="black" points="313.37,-81.86 322.94,-77.32 312.63,-74.9 313.37,-81.86"/>
</g>
<!-- 2 -->
<!-- name: &quot;Array Size&quot;, typeName: &quot;&quot;, id: 2, branchId: 0, recurseId: &#45;1, attributes: 0, notes: &quot;&quot; -->
<g id="node3" class="node">
<title>2</title>
<ellipse fill="none" stroke="black" cx="739.09" cy="-180" rx="48.99" ry="18"/>
<text text-anchor="middle" x="739.09" y="-176.3" font-family="Times New Roman,serif" font-size="14.00">Array Size</text>
</g>
<!-- 1&#45;&gt;2 -->
<g id="edge2" class="edge">
<title>1&#45;&gt;2</title>
<path fill="none" stroke="black" d="M439.31,-139.79C462.01,-144.38 487.76,-149.26 511.36,-153 569.06,-162.13 635.45,-169.7 681.42,-174.47"/>
<polygon fill="black" stroke="black" points="681.18,-177.97 691.49,-175.51 681.9,-171 681.18,-177.97"/>
</g>
<!-- 4 -->
<!-- name: &quot;example element&quot;, typeName: &quot;&quot;, id: 4, branchId: 0, recurseId: &#45;1, attributes: 16, notes: &quot;&quot; -->
<g id="node5" class="node">
<title>4</title>
<ellipse fill="none" stroke="black" stroke-dasharray="1,5" cx="581.55" cy="-126" rx="70.39" ry="18"/>
<text text-anchor="middle" x="581.55" y="-122.3" font-family="Times New Roman,serif" font-size="14.00">example element</text>
</g>
<!-- 1&#45;&gt;4 -->
<g id="edge4" class="edge">
<title>1&#45;&gt;4</title>
<path fill="none" stroke="black" d="M475.65,-126C484.19,-126 492.74,-126 501.08,-126"/>
<polygon fill="black" stroke="black" points="501.13,-129.5 511.13,-126 501.13,-122.5 501.13,-129.5"/>
</g>
<!-- 3 -->
<!-- name: &quot;int&quot;, typeName: &quot;&quot;, id: 3, branchId: 0, recurseId: &#45;1, attributes: 512, notes: &quot;&quot; -->
<g id="node4" class="node">
<title>3</title>
<ellipse fill="none" stroke="black" cx="853.44" cy="-180" rx="27" ry="18"/>
<text text-anchor="middle" x="853.44" y="-176.3" font-family="Times New Roman,serif" font-size="14.00">int</text>
</g>
<!-- 2&#45;&gt;3 -->
<g id="edge3" class="edge">
<title>2&#45;&gt;3</title>
<path fill="none" stroke="black" d="M788.06,-180C797.49,-180 807.24,-180 816.21,-180"/>
<polygon fill="black" stroke="black" points="816.31,-183.5 826.31,-180 816.31,-176.5 816.31,-183.5"/>
</g>
<!-- 5 -->
<!-- name: &quot;String Data&quot;, typeName: &quot;&quot;, id: 5, branchId: 0, recurseId: &#45;1, attributes: 0, notes: &quot;&quot; -->
<g id="node6" class="node">
<title>5</title>
<ellipse fill="none" stroke="black" cx="739.09" cy="-126" rx="51.19" ry="18"/>
<text text-anchor="middle" x="739.09" y="-122.3" font-family="Times New Roman,serif" font-size="14.00">String Data</text>
</g>
<!-- 4&#45;&gt;5 -->
<g id="edge5" class="edge">
<title>4&#45;&gt;5</title>
<path fill="none" stroke="black" d="M652.14,-126C660.65,-126 669.29,-126 677.65,-126"/>
<polygon fill="black" stroke="black" points="677.68,-129.5 687.68,-126 677.68,-122.5 677.68,-129.5"/>
</g>
<!-- 6 -->
<!-- name: &quot;byte&quot;, typeName: &quot;&quot;, id: 6, branchId: 0, recurseId: &#45;1, attributes: 512, notes: &quot;&quot; -->
<g id="node7" class="node">
<title>6</title>
<ellipse fill="none" stroke="black" cx="853.44" cy="-126" rx="27" ry="18"/>
<text text-anchor="middle" x="853.44" y="-122.3" font-family="Times New Roman,serif" font-size="14.00">byte</text>
</g>
<!-- 5&#45;&gt;6 -->
<g id="edge6" class="edge">
<title>5&#45;&gt;6</title>
<path fill="none" stroke="black" d="M790.68,-126C799.26,-126 808.03,-126 816.15,-126"/>
<polygon fill="black" stroke="black" points="816.39,-129.5 826.39,-126 816.39,-122.5 816.39,-129.5"/>
</g>
<!-- 8 -->
<!-- name: &quot;Array Size&quot;, typeName: &quot;&quot;, id: 8, branchId: 0, recurseId: &#45;1, attributes: 0, notes: &quot;&quot; -->
<g id="node9" class="node">
<title>8</title>
<ellipse fill="none" stroke="black" cx="581.55" cy="-72" rx="48.99" ry="18"/>
<text text-anchor="middle" x="581.55" y="-68.3" font-family="Times New Roman,serif" font-size="14.00">Array Size</text>
</g>
<!-- 7&#45;&gt;8 -->
<g id="edge8" class="edge">
<title>7&#45;&gt;8</title>
<path fill="none" stroke="black" d="M427.38,-72C456.33,-72 492.35,-72 522.19,-72"/>
<polygon fill="black" stroke="black" points="522.47,-75.5 532.47,-72 522.47,-68.5 522.47,-75.5"/>
</g>
<!-- 10 -->
<!-- name: &quot;example element&quot;, typeName: &quot;&quot;, id: 10, branchId: 0, recurseId: &#45;1, attributes: 16, notes: &quot;&quot; -->
<g id="node11" class="node">
<title>10</title>
<ellipse fill="none" stroke="black" stroke-dasharray="1,5" cx="581.55" cy="-18" rx="70.39" ry="18"/>
<text text-anchor="middle" x="581.55" y="-14.3" font-family="Times New Roman,serif" font-size="14.00">example element</text>
</g>
<!-- 7&#45;&gt;10 -->
<g id="edge10" class="edge">
<title>7&#45;&gt;10</title>
<path fill="none" stroke="black" d="M416.57,-61.07C446.9,-53.11 488.4,-42.21 522.06,-33.36"/>
<polygon fill="black" stroke="black" points="523,-36.74 531.79,-30.81 521.22,-29.97 523,-36.74"/>
</g>
<!-- 9 -->
<!-- name: &quot;int&quot;, typeName: &quot;&quot;, id: 9, branchId: 0, recurseId: &#45;1, attributes: 512, notes: &quot;&quot; -->
<g id="node10" class="node">
<title>9</title>
<ellipse fill="none" stroke="black" cx="853.44" cy="-72" rx="27" ry="18"/>
<text text-anchor="middle" x="853.44" y="-68.3" font-family="Times New Roman,serif" font-size="14.00">int</text>
</g>
<!-- 8&#45;&gt;9 -->
<g id="edge9" class="edge">
<title>8&#45;&gt;9</title>
<path fill="none" stroke="black" d="M630.49,-72C683.58,-72 767.99,-72 815.97,-72"/>
<polygon fill="black" stroke="black" points="816.2,-75.5 826.2,-72 816.2,-68.5 816.2,-75.5"/>
</g>
<!-- 11 -->
<!-- name: &quot;String Data&quot;, typeName: &quot;&quot;, id: 11, branchId: 0, recurseId: &#45;1, attributes: 0, notes: &quot;&quot; -->
<g id="node12" class="node">
<title>11</title>
<ellipse fill="none" stroke="black" cx="739.09" cy="-18" rx="51.19" ry="18"/>
<text text-anchor="middle" x="739.09" y="-14.3" font-family="Times New Roman,serif" font-size="14.00">String Data</text>
</g>
<!-- 10&#45;&gt;11 -->
<g id="edge11" class="edge">
<title>10&#45;&gt;11</title>
<path fill="none" stroke="black" d="M652.14,-18C660.65,-18 669.29,-18 677.65,-18"/>
<polygon fill="black" stroke="black" points="677.68,-21.5 687.68,-18 677.68,-14.5 677.68,-21.5"/>
</g>
<!-- 12 -->
<!-- name: &quot;byte&quot;, typeName: &quot;&quot;, id: 12, branchId: 0, recurseId: &#45;1, attributes: 512, notes: &quot;&quot; -->
<g id="node13" class="node">
<title>12</title>
<ellipse fill="none" stroke="black" cx="853.44" cy="-18" rx="27" ry="18"/>
<text text-anchor="middle" x="853.44" y="-14.3" font-family="Times New Roman,serif" font-size="14.00">byte</text>
</g>
<!-- 11&#45;&gt;12 -->
<g id="edge12" class="edge">
<title>11&#45;&gt;12</title>
<path fill="none" stroke="black" d="M790.68,-18C799.26,-18 808.03,-18 816.15,-18"/>
<polygon fill="black" stroke="black" points="816.39,-21.5 826.39,-18 816.39,-14.5 816.39,-21.5"/>
</g>
</g>
</svg>
