<?xml version="1.0" encoding="UTF-8" standalone="no"?>
<!DOCTYPE svg PUBLIC "-//W3C//DTD SVG 1.1//EN"
 "http://www.w3.org/Graphics/SVG/1.1/DTD/svg11.dtd">
<!-- Generated by graphviz version 14.1.5 (20260411.2331)
 -->
<!-- Title: SubChunkPosOffset Pages: 1 -->
<svg width="471pt" height="152pt"
 viewBox="0.00 0.00 471.00 152.00" xmlns="http://www.w3.org/2000/svg" xmlns:xlink="http://www.w3.org/1999/xlink">
<g id="graph0" class="graph" transform="scale(1 1) rotate(0) translate(4 148)">
<title>SubChunkPosOffset</title>
<polygon fill="white" stroke="none" points="-4,4 -4,-148 467.45,-148 467.45,4 -4,4"/>
<!-- 0 -->
<!-- name: &quot;SubChunkPosOffset&quot;, typeName: &quot;&quot;, id: 0, branchId: 0, recurseId: &#45;1, attributes: 0, notes: &quot;&quot; -->
<g id="node1" class="node">
<title>0</title>
<ellipse fill="none" stroke="black" cx="86.15" cy="-72" rx="86.15" ry="18"/>
<text xml:space="preserve" text-anchor="middle" x="86.15" y="-66.95" font-family="Times New Roman,serif" font-size="14.00">SubChunkPosOffset</text>
</g>
<!-- 1 -->
<!-- name: &quot;Subchunk Offset X&quot;, typeName: &quot;&quot;, id: 1, branchId: 0, recurseId: &#45;1, attributes: 0, notes: &quot;&quot; -->
<g id="node2" class="node">
<title>1</title>
<ellipse fill="none" stroke="black" cx="290.88" cy="-126" rx="82.57" ry="18"/>
<text xml:space="preserve" text-anchor="middle" x="290.88" y="-120.95" font-family="Times New Roman,serif" font-size="14.00">Subchunk Offset X</text>
</g>
<!-- 0&#45;&gt;1 -->
<g id="edge1" class="edge">
<title>0&#45;&gt;1</title>
<path fill="none" stroke="black" d="M140.95,-86.33C167.14,-93.3 198.8,-101.74 226.19,-109.03"/>
<polygon fill="black" stroke="black" points="225.21,-112.4 235.78,-111.59 227.01,-105.63 225.21,-112.4"/>
</g>
<!-- 3 -->
<!-- name: &quot;Subchunk Offset Y&quot;, typeName: &quot;&quot;, id: 3, branchId: 0, recurseId: &#45;1, attributes: 0, notes: &quot;&quot; -->
<g id="node4" class="node">
<title>3</title>
<ellipse fill="none" stroke="black" cx="290.88" cy="-72" rx="82.06" ry="18"/>
<text xml:space="preserve" text-anchor="middle" x="290.88" y="-66.95" font-family="Times New Roman,serif" font-size="14.00">Subchunk Offset Y</text>
</g>
<!-- 0&#45;&gt;3 -->
<g id="edge3" class="edge">
<title>0&#45;&gt;3</title>
<path fill="none" stroke="black" d="M172.54,-72C180.63,-72 188.86,-72 197.02,-72"/>
<polygon fill="black" stroke="black" points="196.96,-75.5 206.96,-72 196.96,-68.5 196.96,-75.5"/>
</g>
<!-- 5 -->
<!-- name: &quot;Subchunk Offset Z&quot;, typeName: &quot;&quot;, id: 5, branchId: 0, recurseId: &#45;1, attributes: 0, notes: &quot;&quot; -->
<g id="node6" class="node">
<title>5</title>
<ellipse fill="none" stroke="black" cx="290.88" cy="-18" rx="81.55" ry="18"/>
<text xml:space="preserve" text-anchor="middle" x="290.88" y="-12.95" font-family="Times New Roman,serif" font-size="14.00">Subchunk Offset Z</text>
</g>
<!-- 0&#45;&gt;5 -->
<g id="edge5" class="edge">
<title>0&#45;&gt;5</title>
<path fill="none" stroke="black" d="M140.95,-57.67C167.24,-50.67 199.05,-42.19 226.51,-34.88"/>
<polygon fill="black" stroke="black" points="227.36,-38.27 236.13,-32.32 225.56,-31.51 227.36,-38.27"/>
</g>
<!-- 2 -->
<!-- name: &quot;byte&quot;, typeName: &quot;&quot;, id: 2, branchId: 0, recurseId: &#45;1, attributes: 512, notes: &quot;&quot; -->
<g id="node3" class="node">
<title>2</title>
<ellipse fill="none" stroke="black" cx="436.45" cy="-126" rx="27" ry="18"/>
<text xml:space="preserve" text-anchor="middle" x="436.45" y="-120.95" font-family="Times New Roman,serif" font-size="14.00">byte</text>
</g>
<!-- 1&#45;&gt;2 -->
<g id="edge2" class="edge">
<title>1&#45;&gt;2</title>
<path fill="none" stroke="black" d="M373.73,-126C381.98,-126 390.05,-126 397.49,-126"/>
<polygon fill="black" stroke="black" points="397.45,-129.5 407.45,-126 397.45,-122.5 397.45,-129.5"/>
</g>
<!-- 4 -->
<!-- name: &quot;byte&quot;, typeName: &quot;&quot;, id: 4, branchId: 0, recurseId: &#45;1, attributes: 512, notes: &quot;&quot; -->
<g id="node5" class="node">
<title>4</title>
<ellipse fill="none" stroke="black" cx="436.45" cy="-72" rx="27" ry="18"/>
<text xml:space="preserve" text-anchor="middle" x="436.45" y="-66.95" font-family="Times New Roman,serif" font-size="14.00">byte</text>
</g>
<!-- 3&#45;&gt;4 -->
<g id="edge4" class="edge">
<title>3&#45;&gt;4</title>
<path fill="none" stroke="black" d="M373.31,-72C381.79,-72 390.08,-72 397.7,-72"/>
<polygon fill="black" stroke="black" points="397.55,-75.5 407.55,-72 397.55,-68.5 397.55,-75.5"/>
</g>
<!-- 6 -->
<!-- name: &quot;byte&quot;, typeName: &quot;&quot;, id: 6, branchId: 0, recurseId: &#45;1, attributes: 512, notes: &quot;&quot; -->
<g id="node7" class="node">
<title>6</title>
<ellipse fill="none" stroke="black" cx="436.45" cy="-18" rx="27" ry="18"/>
<text xml:space="preserve" text-anchor="middle" x="436.45" y="-12.95" font-family="Times New Roman,serif" font-size="14.00">byte</text>
</g>
<!-- 5&#45;&gt;6 -->
<g id="edge6" class="edge">
<title>5&#45;&gt;6</title>
<path fill="none" stroke="black" d="M372.9,-18C381.6,-18 390.12,-18 397.93,-18"/>
<polygon fill="black" stroke="black" points="397.65,-21.5 407.65,-18 397.65,-14.5 397.65,-21.5"/>
</g>
</g>
</svg>
