<?xml version="1.0" encoding="UTF-8" standalone="no"?>
<!DOCTYPE svg PUBLIC "-//W3C//DTD SVG 1.1//EN"
 "http://www.w3.org/Graphics/SVG/1.1/DTD/svg11.dtd">
<!-- Generated by graphviz version 12.2.1 (20241206.2353)
 -->
<!-- Title: SubClientConnectionRequest Pages: 1 -->
<svg width="913pt" height="206pt"
 viewBox="0.00 0.00 912.64 206.00" xmlns="http://www.w3.org/2000/svg" xmlns:xlink="http://www.w3.org/1999/xlink">
<g id="graph0" class="graph" transform="scale(1 1) rotate(0) translate(4 202)">
<title>SubClientConnectionRequest</title>
<polygon fill="white" stroke="none" points="-4,4 -4,-202 908.64,-202 908.64,4 -4,4"/>
<!-- 0 -->
<!-- name: &quot;SubClientConnectionRequest&quot;, typeName: &quot;&quot;, id: 0, branchId: 0, recurseId: &#45;1, attributes: 0, notes: &quot;&quot; -->
<g id="node1" class="node">
<title>0</title>
<ellipse fill="none" stroke="black" cx="119.93" cy="-99" rx="119.93" ry="18"/>
<text text-anchor="middle" x="119.93" y="-93.95" font-family="Times New Roman,serif" font-size="14.00">SubClientConnectionRequest</text>
</g>
<!-- 1 -->
<!-- name: &quot;Certificate Chain (JSON)&quot;, typeName: &quot;&quot;, id: 1, branchId: 0, recurseId: &#45;1, attributes: 8, notes: &quot;Array of Base64 encoded JSON Web Token certificates to authenticate the player.The last certificate in the chain will have a property &#39;extraData&#39; that contains player identity information including the XBL XUID (if the player was signed into XBL at the time of the connection).&quot; -->
<g id="node2" class="node">
<title>1</title>
<ellipse fill="none" stroke="black" cx="380.96" cy="-126" rx="105.09" ry="18"/>
<text text-anchor="middle" x="380.96" y="-120.95" font-family="Times New Roman,serif" font-size="14.00">Certificate Chain (JSON)</text>
</g>
<!-- 0&#45;&gt;1 -->
<g id="edge1" class="edge">
<title>0&#45;&gt;1</title>
<path fill="none" stroke="black" d="M219.6,-109.28C238.96,-111.3 259.3,-113.42 278.74,-115.45"/>
<polygon fill="black" stroke="black" points="278.26,-118.92 288.57,-116.47 278.98,-111.96 278.26,-118.92"/>
</g>
<!-- 7 -->
<!-- name: &quot;Raw Token&quot;, typeName: &quot;&quot;, id: 7, branchId: 0, recurseId: &#45;1, attributes: 8, notes: &quot;Base64 encoded JSON Web Token that contains other relevant client properties.
				Properties Include:
				&#39;SelfSignedId&#39;
				&#39;ClientRandomId&#39;
				&#39;PlatformUserId&#39;
				&#39;SkinId&#39;
				&#39;SkinData&#39;
				&#39;SkinImageWidth&#39;
				&#39;SkinImageHeight&#39;
				&#39;CapeData&#39;
				&#39;CapeImageWidth&#39;
				&#39;CapeImageHeight&#39;
				&#39;SkinResources&#39;
				&#39;SkinGeometry&#39;
				&#39;SkinGeometryDataEngineVersion&#39;
				&#39;SkinAnimationData&#39;
				&#39;PlayFabId&#39;
				&#39;DeviceId&#39;
				&#39;TrustedSkin&#39;
				&#39;PremiumSkin&#39;
				&#39;PersonaSkin&#39;
				&#39;AnimatedImageData = Array of:&#39;
				&#39;&#45;&#45; Type&#39;
				&#39;&#45;&#45; Image&#39;
				&#39;&#45;&#45; ImageWidth&#39;
				&#39;&#45;&#45; ImageHeight&#39;
				&#39;&#45;&#45; Frames&#39;
				&#39;&#45;&#45; AnimationExpression&#39;
				&#39;ArmSize&#39;
				&#39;SkinColor&#39;
				&#39;PersonaPieces = Array of:&#39;
				&#39;&#45;&#45; PackId&#39;
				&#39;&#45;&#45; PieceId&#39;
				&#39;&#45;&#45; IsDefault&#39;
				&#39;&#45;&#45; PieceType&#39;
				&#39;&#45;&#45; ProuctId&#39;
				&#39;PieceTintColors = Array of:&#39;
				&#39;&#45;&#45; PieceType&#39;
				&#39;&#45;&#45; Colors = Array of color hexstrings&#39;
				&#39;DefaultInputMode&#39; = (see enumeration: InputMode)
				&#39;CurrentInputMode&#39; = (see enumeration: InputMode)
				&#39;ThirdPartyName&#39;
				&#39;ThirdPartyNameOnly&#39;
				&#39;PlatformOnlineId&#39;
				&#39;PlatformOfflineId&#39;
 &#160;&#160;&#160;&#160;&#160;&#160;&#160;&#160;&#160;&#160;&#160;&#160;&#160;&#160;&#160;&#39;DeviceOS&#39; = (see enumeration: BuildPlatform)
				&#39;CapeOnClassicSkin&#39;
				&#39;CapeId&#39;
				&#39;PrimaryUser&#39;
				&#39;CompatibleWithClientSideChunkGen&#39;&quot; -->
<g id="node8" class="node">
<title>7</title>
<ellipse fill="none" stroke="black" cx="380.96" cy="-72" rx="52.89" ry="18"/>
<text text-anchor="middle" x="380.96" y="-66.95" font-family="Times New Roman,serif" font-size="14.00">Raw Token</text>
</g>
<!-- 0&#45;&gt;7 -->
<g id="edge7" class="edge">
<title>0&#45;&gt;7</title>
<path fill="none" stroke="black" d="M219.6,-88.72C252.92,-85.24 289.13,-81.47 318.7,-78.39"/>
<polygon fill="black" stroke="black" points="319.01,-81.87 328.6,-77.35 318.29,-74.91 319.01,-81.87"/>
</g>
<!-- 2 -->
<!-- name: &quot;Array Size&quot;, typeName: &quot;&quot;, id: 2, branchId: 0, recurseId: &#45;1, attributes: 0, notes: &quot;&quot; -->
<g id="node3" class="node">
<title>2</title>
<ellipse fill="none" stroke="black" cx="761.24" cy="-180" rx="50.84" ry="18"/>
<text text-anchor="middle" x="761.24" y="-174.95" font-family="Times New Roman,serif" font-size="14.00">Array Size</text>
</g>
<!-- 1&#45;&gt;2 -->
<g id="edge2" class="edge">
<title>1&#45;&gt;2</title>
<path fill="none" stroke="black" d="M449.11,-140.04C472.17,-144.57 498.18,-149.35 522.05,-153 582.61,-162.25 652.27,-169.79 700.55,-174.53"/>
<polygon fill="black" stroke="black" points="699.94,-177.99 710.23,-175.47 700.61,-171.02 699.94,-177.99"/>
</g>
<!-- 4 -->
<!-- name: &quot;example element&quot;, typeName: &quot;&quot;, id: 4, branchId: 0, recurseId: &#45;1, attributes: 16, notes: &quot;&quot; -->
<g id="node5" class="node">
<title>4</title>
<ellipse fill="none" stroke="black" stroke-dasharray="1,5" cx="596.94" cy="-126" rx="74.89" ry="18"/>
<text text-anchor="middle" x="596.94" y="-120.95" font-family="Times New Roman,serif" font-size="14.00">example element</text>
</g>
<!-- 1&#45;&gt;4 -->
<g id="edge4" class="edge">
<title>1&#45;&gt;4</title>
<path fill="none" stroke="black" d="M486.44,-126C494.43,-126 502.43,-126 510.27,-126"/>
<polygon fill="black" stroke="black" points="510.11,-129.5 520.11,-126 510.11,-122.5 510.11,-129.5"/>
</g>
<!-- 3 -->
<!-- name: &quot;int&quot;, typeName: &quot;&quot;, id: 3, branchId: 0, recurseId: &#45;1, attributes: 512, notes: &quot;&quot; -->
<g id="node4" class="node">
<title>3</title>
<ellipse fill="none" stroke="black" cx="877.64" cy="-180" rx="27" ry="18"/>
<text text-anchor="middle" x="877.64" y="-174.95" font-family="Times New Roman,serif" font-size="14.00">int</text>
</g>
<!-- 2&#45;&gt;3 -->
<g id="edge3" class="edge">
<title>2&#45;&gt;3</title>
<path fill="none" stroke="black" d="M812.41,-180C821.31,-180 830.44,-180 838.91,-180"/>
<polygon fill="black" stroke="black" points="838.86,-183.5 848.86,-180 838.86,-176.5 838.86,-183.5"/>
</g>
<!-- 5 -->
<!-- name: &quot;String Data&quot;, typeName: &quot;&quot;, id: 5, branchId: 0, recurseId: &#45;1, attributes: 0, notes: &quot;&quot; -->
<g id="node6" class="node">
<title>5</title>
<ellipse fill="none" stroke="black" cx="761.24" cy="-126" rx="53.4" ry="18"/>
<text text-anchor="middle" x="761.24" y="-120.95" font-family="Times New Roman,serif" font-size="14.00">String Data</text>
</g>
<!-- 4&#45;&gt;5 -->
<g id="edge5" class="edge">
<title>4&#45;&gt;5</title>
<path fill="none" stroke="black" d="M671.97,-126C680.06,-126 688.24,-126 696.19,-126"/>
<polygon fill="black" stroke="black" points="696.13,-129.5 706.13,-126 696.13,-122.5 696.13,-129.5"/>
</g>
<!-- 6 -->
<!-- name: &quot;byte&quot;, typeName: &quot;&quot;, id: 6, branchId: 0, recurseId: &#45;1, attributes: 512, notes: &quot;&quot; -->
<g id="node7" class="node">
<title>6</title>
<ellipse fill="none" stroke="black" cx="877.64" cy="-126" rx="27" ry="18"/>
<text text-anchor="middle" x="877.64" y="-120.95" font-family="Times New Roman,serif" font-size="14.00">byte</text>
</g>
<!-- 5&#45;&gt;6 -->
<g id="edge6" class="edge">
<title>5&#45;&gt;6</title>
<path fill="none" stroke="black" d="M815.08,-126C823.08,-126 831.18,-126 838.77,-126"/>
<polygon fill="black" stroke="black" points="838.67,-129.5 848.67,-126 838.67,-122.5 838.67,-129.5"/>
</g>
<!-- 8 -->
<!-- name: &quot;Array Size&quot;, typeName: &quot;&quot;, id: 8, branchId: 0, recurseId: &#45;1, attributes: 0, notes: &quot;&quot; -->
<g id="node9" class="node">
<title>8</title>
<ellipse fill="none" stroke="black" cx="596.94" cy="-72" rx="50.84" ry="18"/>
<text text-anchor="middle" x="596.94" y="-66.95" font-family="Times New Roman,serif" font-size="14.00">Array Size</text>
</g>
<!-- 7&#45;&gt;8 -->
<g id="edge8" class="edge">
<title>7&#45;&gt;8</title>
<path fill="none" stroke="black" d="M434.31,-72C464.5,-72 502.63,-72 534.27,-72"/>
<polygon fill="black" stroke="black" points="534.1,-75.5 544.1,-72 534.1,-68.5 534.1,-75.5"/>
</g>
<!-- 10 -->
<!-- name: &quot;example element&quot;, typeName: &quot;&quot;, id: 10, branchId: 0, recurseId: &#45;1, attributes: 16, notes: &quot;&quot; -->
<g id="node11" class="node">
<title>10</title>
<ellipse fill="none" stroke="black" stroke-dasharray="1,5" cx="596.94" cy="-18" rx="74.89" ry="18"/>
<text text-anchor="middle" x="596.94" y="-12.95" font-family="Times New Roman,serif" font-size="14.00">example element</text>
</g>
<!-- 7&#45;&gt;10 -->
<g id="edge10" class="edge">
<title>7&#45;&gt;10</title>
<path fill="none" stroke="black" d="M424.24,-61.33C455.23,-53.51 497.83,-42.76 532.84,-33.92"/>
<polygon fill="black" stroke="black" points="533.61,-37.34 542.45,-31.5 531.9,-30.55 533.61,-37.34"/>
</g>
<!-- 9 -->
<!-- name: &quot;int&quot;, typeName: &quot;&quot;, id: 9, branchId: 0, recurseId: &#45;1, attributes: 512, notes: &quot;&quot; -->
<g id="node10" class="node">
<title>9</title>
<ellipse fill="none" stroke="black" cx="877.64" cy="-72" rx="27" ry="18"/>
<text text-anchor="middle" x="877.64" y="-66.95" font-family="Times New Roman,serif" font-size="14.00">int</text>
</g>
<!-- 8&#45;&gt;9 -->
<g id="edge9" class="edge">
<title>8&#45;&gt;9</title>
<path fill="none" stroke="black" d="M648.09,-72C702.96,-72 789.66,-72 839,-72"/>
<polygon fill="black" stroke="black" points="838.89,-75.5 848.89,-72 838.89,-68.5 838.89,-75.5"/>
</g>
<!-- 11 -->
<!-- name: &quot;String Data&quot;, typeName: &quot;&quot;, id: 11, branchId: 0, recurseId: &#45;1, attributes: 0, notes: &quot;&quot; -->
<g id="node12" class="node">
<title>11</title>
<ellipse fill="none" stroke="black" cx="761.24" cy="-18" rx="53.4" ry="18"/>
<text text-anchor="middle" x="761.24" y="-12.95" font-family="Times New Roman,serif" font-size="14.00">String Data</text>
</g>
<!-- 10&#45;&gt;11 -->
<g id="edge11" class="edge">
<title>10&#45;&gt;11</title>
<path fill="none" stroke="black" d="M671.97,-18C680.06,-18 688.24,-18 696.19,-18"/>
<polygon fill="black" stroke="black" points="696.13,-21.5 706.13,-18 696.13,-14.5 696.13,-21.5"/>
</g>
<!-- 12 -->
<!-- name: &quot;byte&quot;, typeName: &quot;&quot;, id: 12, branchId: 0, recurseId: &#45;1, attributes: 512, notes: &quot;&quot; -->
<g id="node13" class="node">
<title>12</title>
<ellipse fill="none" stroke="black" cx="877.64" cy="-18" rx="27" ry="18"/>
<text text-anchor="middle" x="877.64" y="-12.95" font-family="Times New Roman,serif" font-size="14.00">byte</text>
</g>
<!-- 11&#45;&gt;12 -->
<g id="edge12" class="edge">
<title>11&#45;&gt;12</title>
<path fill="none" stroke="black" d="M815.08,-18C823.08,-18 831.18,-18 838.77,-18"/>
<polygon fill="black" stroke="black" points="838.67,-21.5 848.67,-18 838.67,-14.5 838.67,-21.5"/>
</g>
</g>
</svg>
