<?xml version="1.0" encoding="UTF-8" standalone="no"?>
<!DOCTYPE svg PUBLIC "-//W3C//DTD SVG 1.1//EN"
 "http://www.w3.org/Graphics/SVG/1.1/DTD/svg11.dtd">
<!-- Generated by graphviz version 12.2.1 (20241206.2353)
 -->
<!-- Title: SubChunkPos Pages: 1 -->
<svg width="325pt" height="152pt"
 viewBox="0.00 0.00 325.08 152.00" xmlns="http://www.w3.org/2000/svg" xmlns:xlink="http://www.w3.org/1999/xlink">
<g id="graph0" class="graph" transform="scale(1 1) rotate(0) translate(4 148)">
<title>SubChunkPos</title>
<polygon fill="white" stroke="none" points="-4,4 -4,-148 321.08,-148 321.08,4 -4,4"/>
<!-- 6 -->
<!-- name: &quot;SubChunkPos&quot;, typeName: &quot;&quot;, id: 6, branchId: 0, recurseId: &#45;1, attributes: 0, notes: &quot;&quot; -->
<g id="node1" class="node">
<title>6</title>
<ellipse fill="none" stroke="black" cx="63.12" cy="-72" rx="63.12" ry="18"/>
<text text-anchor="middle" x="63.12" y="-66.95" font-family="Times New Roman,serif" font-size="14.00">SubChunkPos</text>
</g>
<!-- 7 -->
<!-- name: &quot;X&quot;, typeName: &quot;&quot;, id: 7, branchId: 0, recurseId: &#45;1, attributes: 0, notes: &quot;&quot; -->
<g id="node2" class="node">
<title>7</title>
<ellipse fill="none" stroke="black" cx="189.25" cy="-126" rx="27" ry="18"/>
<text text-anchor="middle" x="189.25" y="-120.95" font-family="Times New Roman,serif" font-size="14.00">X</text>
</g>
<!-- 6&#45;&gt;7 -->
<g id="edge1" class="edge">
<title>6&#45;&gt;7</title>
<path fill="none" stroke="black" d="M99.03,-87.19C116.84,-94.94 138.37,-104.3 155.82,-111.89"/>
<polygon fill="black" stroke="black" points="154.13,-114.98 164.7,-115.76 156.93,-108.56 154.13,-114.98"/>
</g>
<!-- 9 -->
<!-- name: &quot;Y&quot;, typeName: &quot;&quot;, id: 9, branchId: 0, recurseId: &#45;1, attributes: 0, notes: &quot;&quot; -->
<g id="node4" class="node">
<title>9</title>
<ellipse fill="none" stroke="black" cx="189.25" cy="-72" rx="27" ry="18"/>
<text text-anchor="middle" x="189.25" y="-66.95" font-family="Times New Roman,serif" font-size="14.00">Y</text>
</g>
<!-- 6&#45;&gt;9 -->
<g id="edge3" class="edge">
<title>6&#45;&gt;9</title>
<path fill="none" stroke="black" d="M126.55,-72C134.71,-72 142.86,-72 150.44,-72"/>
<polygon fill="black" stroke="black" points="150.29,-75.5 160.29,-72 150.29,-68.5 150.29,-75.5"/>
</g>
<!-- 11 -->
<!-- name: &quot;Z&quot;, typeName: &quot;&quot;, id: 11, branchId: 0, recurseId: &#45;1, attributes: 0, notes: &quot;&quot; -->
<g id="node6" class="node">
<title>11</title>
<ellipse fill="none" stroke="black" cx="189.25" cy="-18" rx="27" ry="18"/>
<text text-anchor="middle" x="189.25" y="-12.95" font-family="Times New Roman,serif" font-size="14.00">Z</text>
</g>
<!-- 6&#45;&gt;11 -->
<g id="edge5" class="edge">
<title>6&#45;&gt;11</title>
<path fill="none" stroke="black" d="M99.03,-56.81C116.84,-49.06 138.37,-39.7 155.82,-32.11"/>
<polygon fill="black" stroke="black" points="156.93,-35.44 164.7,-28.24 154.13,-29.02 156.93,-35.44"/>
</g>
<!-- 8 -->
<!-- name: &quot;varint&quot;, typeName: &quot;&quot;, id: 8, branchId: 0, recurseId: &#45;1, attributes: 512, notes: &quot;&quot; -->
<g id="node3" class="node">
<title>8</title>
<ellipse fill="none" stroke="black" cx="284.66" cy="-126" rx="32.41" ry="18"/>
<text text-anchor="middle" x="284.66" y="-120.95" font-family="Times New Roman,serif" font-size="14.00">varint</text>
</g>
<!-- 7&#45;&gt;8 -->
<g id="edge2" class="edge">
<title>7&#45;&gt;8</title>
<path fill="none" stroke="black" d="M216.27,-126C223.75,-126 232.13,-126 240.36,-126"/>
<polygon fill="black" stroke="black" points="240.28,-129.5 250.28,-126 240.28,-122.5 240.28,-129.5"/>
</g>
<!-- 10 -->
<!-- name: &quot;varint&quot;, typeName: &quot;&quot;, id: 10, branchId: 0, recurseId: &#45;1, attributes: 512, notes: &quot;&quot; -->
<g id="node5" class="node">
<title>10</title>
<ellipse fill="none" stroke="black" cx="284.66" cy="-72" rx="32.41" ry="18"/>
<text text-anchor="middle" x="284.66" y="-66.95" font-family="Times New Roman,serif" font-size="14.00">varint</text>
</g>
<!-- 9&#45;&gt;10 -->
<g id="edge4" class="edge">
<title>9&#45;&gt;10</title>
<path fill="none" stroke="black" d="M216.27,-72C223.75,-72 232.13,-72 240.36,-72"/>
<polygon fill="black" stroke="black" points="240.28,-75.5 250.28,-72 240.28,-68.5 240.28,-75.5"/>
</g>
<!-- 12 -->
<!-- name: &quot;varint&quot;, typeName: &quot;&quot;, id: 12, branchId: 0, recurseId: &#45;1, attributes: 512, notes: &quot;&quot; -->
<g id="node7" class="node">
<title>12</title>
<ellipse fill="none" stroke="black" cx="284.66" cy="-18" rx="32.41" ry="18"/>
<text text-anchor="middle" x="284.66" y="-12.95" font-family="Times New Roman,serif" font-size="14.00">varint</text>
</g>
<!-- 11&#45;&gt;12 -->
<g id="edge6" class="edge">
<title>11&#45;&gt;12</title>
<path fill="none" stroke="black" d="M216.27,-18C223.75,-18 232.13,-18 240.36,-18"/>
<polygon fill="black" stroke="black" points="240.28,-21.5 250.28,-18 240.28,-14.5 240.28,-21.5"/>
</g>
</g>
</svg>
