<?xml version="1.0" encoding="UTF-8" standalone="no"?>
<!DOCTYPE svg PUBLIC "-//W3C//DTD SVG 1.1//EN"
 "http://www.w3.org/Graphics/SVG/1.1/DTD/svg11.dtd">
<!-- Generated by graphviz version 10.0.1 (20240210.2158)
 -->
<!-- Title: SubClientLoginPacket Pages: 1 -->
<svg width="585pt" height="44pt"
 viewBox="0.00 0.00 584.98 44.00" xmlns="http://www.w3.org/2000/svg" xmlns:xlink="http://www.w3.org/1999/xlink">
<g id="graph0" class="graph" transform="scale(1 1) rotate(0) translate(4 40)">
<title>SubClientLoginPacket</title>
<polygon fill="white" stroke="none" points="-4,4 -4,-40 580.98,-40 580.98,4 -4,4"/>
<!-- 0 -->
<!-- name: &quot;SubClientLoginPacket&quot;, typeName: &quot;&quot;, id: 0, branchId: 94, recurseId: &#45;1, attributes: 0, notes: &quot;&quot; -->
<g id="node1" class="node">
<title>0</title>
<ellipse fill="none" stroke="black" cx="93.48" cy="-18" rx="93.48" ry="18"/>
<text text-anchor="middle" x="93.48" y="-12.57" font-family="Times New Roman,serif" font-size="14.00">SubClientLoginPacket</text>
</g>
<!-- 1 -->
<!-- name: &quot;Sub Client Connection Request&quot;, typeName: &quot;&quot;, id: 1, branchId: 0, recurseId: &#45;1, attributes: 0, notes: &quot;see @subClientConnectionRequest.html#diagram@&quot; -->
<g id="node2" class="node">
<title>1</title>
<ellipse fill="none" stroke="black" cx="350.87" cy="-18" rx="127.91" ry="18"/>
<text text-anchor="middle" x="350.87" y="-12.57" font-family="Times New Roman,serif" font-size="14.00">Sub Client Connection Request</text>
</g>
<!-- 0&#45;&gt;1 -->
<g id="edge1" class="edge">
<title>0&#45;&gt;1</title>
<path fill="none" stroke="black" d="M187.4,-18C195.25,-18 203.3,-18 211.4,-18"/>
<polygon fill="black" stroke="black" points="211.36,-21.5 221.36,-18 211.36,-14.5 211.36,-21.5"/>
</g>
<!-- 2 -->
<!-- name: &quot;string&quot;, typeName: &quot;&quot;, id: 2, branchId: 0, recurseId: &#45;1, attributes: 512, notes: &quot;&quot; -->
<g id="node3" class="node">
<title>2</title>
<ellipse fill="none" stroke="black" cx="545.88" cy="-18" rx="31.1" ry="18"/>
<text text-anchor="middle" x="545.88" y="-12.57" font-family="Times New Roman,serif" font-size="14.00">string</text>
</g>
<!-- 1&#45;&gt;2 -->
<g id="edge2" class="edge">
<title>1&#45;&gt;2</title>
<path fill="none" stroke="black" d="M479.26,-18C487.66,-18 495.7,-18 503.1,-18"/>
<polygon fill="black" stroke="black" points="503.02,-21.5 513.02,-18 503.02,-14.5 503.02,-21.5"/>
</g>
</g>
</svg>
