<?xml version="1.0" encoding="UTF-8" standalone="no"?>
<!DOCTYPE svg PUBLIC "-//W3C//DTD SVG 1.1//EN"
 "http://www.w3.org/Graphics/SVG/1.1/DTD/svg11.dtd">
<!-- Generated by graphviz version 14.1.5 (20260411.2331)
 -->
<!-- Title: SubChunkPos Pages: 1 -->
<svg width="440pt" height="152pt"
 viewBox="0.00 0.00 440.00 152.00" xmlns="http://www.w3.org/2000/svg" xmlns:xlink="http://www.w3.org/1999/xlink">
<g id="graph0" class="graph" transform="scale(1 1) rotate(0) translate(4 148)">
<title>SubChunkPos</title>
<polygon fill="white" stroke="none" points="-4,4 -4,-148 435.72,-148 435.72,4 -4,4"/>
<!-- 0 -->
<!-- name: &quot;SubChunkPos&quot;, typeName: &quot;&quot;, id: 0, branchId: 0, recurseId: &#45;1, attributes: 0, notes: &quot;&quot; -->
<g id="node1" class="node">
<title>0</title>
<ellipse fill="none" stroke="black" cx="63.12" cy="-72" rx="63.12" ry="18"/>
<text xml:space="preserve" text-anchor="middle" x="63.12" y="-66.95" font-family="Times New Roman,serif" font-size="14.00">SubChunkPos</text>
</g>
<!-- 1 -->
<!-- name: &quot;Subchunk Position X&quot;, typeName: &quot;&quot;, id: 1, branchId: 0, recurseId: &#45;1, attributes: 0, notes: &quot;&quot; -->
<g id="node2" class="node">
<title>1</title>
<ellipse fill="none" stroke="black" cx="251.98" cy="-126" rx="89.74" ry="18"/>
<text xml:space="preserve" text-anchor="middle" x="251.98" y="-120.95" font-family="Times New Roman,serif" font-size="14.00">Subchunk Position X</text>
</g>
<!-- 0&#45;&gt;1 -->
<g id="edge1" class="edge">
<title>0&#45;&gt;1</title>
<path fill="none" stroke="black" d="M108.41,-84.8C132.3,-91.7 162.18,-100.34 188.41,-107.92"/>
<polygon fill="black" stroke="black" points="187.37,-111.26 197.95,-110.67 189.31,-104.54 187.37,-111.26"/>
</g>
<!-- 3 -->
<!-- name: &quot;Subchunk Position Y&quot;, typeName: &quot;&quot;, id: 3, branchId: 0, recurseId: &#45;1, attributes: 0, notes: &quot;&quot; -->
<g id="node4" class="node">
<title>3</title>
<ellipse fill="none" stroke="black" cx="251.98" cy="-72" rx="89.23" ry="18"/>
<text xml:space="preserve" text-anchor="middle" x="251.98" y="-66.95" font-family="Times New Roman,serif" font-size="14.00">Subchunk Position Y</text>
</g>
<!-- 0&#45;&gt;3 -->
<g id="edge3" class="edge">
<title>0&#45;&gt;3</title>
<path fill="none" stroke="black" d="M126.6,-72C134.48,-72 142.69,-72 150.97,-72"/>
<polygon fill="black" stroke="black" points="150.76,-75.5 160.76,-72 150.76,-68.5 150.76,-75.5"/>
</g>
<!-- 5 -->
<!-- name: &quot;Subchunk Position Z&quot;, typeName: &quot;&quot;, id: 5, branchId: 0, recurseId: &#45;1, attributes: 0, notes: &quot;&quot; -->
<g id="node6" class="node">
<title>5</title>
<ellipse fill="none" stroke="black" cx="251.98" cy="-18" rx="88.71" ry="18"/>
<text xml:space="preserve" text-anchor="middle" x="251.98" y="-12.95" font-family="Times New Roman,serif" font-size="14.00">Subchunk Position Z</text>
</g>
<!-- 0&#45;&gt;5 -->
<g id="edge5" class="edge">
<title>0&#45;&gt;5</title>
<path fill="none" stroke="black" d="M108.41,-59.2C132.3,-52.3 162.18,-43.66 188.41,-36.08"/>
<polygon fill="black" stroke="black" points="189.31,-39.46 197.95,-33.33 187.37,-32.74 189.31,-39.46"/>
</g>
<!-- 2 -->
<!-- name: &quot;int&quot;, typeName: &quot;&quot;, id: 2, branchId: 0, recurseId: &#45;1, attributes: 512, notes: &quot;&quot; -->
<g id="node3" class="node">
<title>2</title>
<ellipse fill="none" stroke="black" cx="404.72" cy="-126" rx="27" ry="18"/>
<text xml:space="preserve" text-anchor="middle" x="404.72" y="-120.95" font-family="Times New Roman,serif" font-size="14.00">int</text>
</g>
<!-- 1&#45;&gt;2 -->
<g id="edge2" class="edge">
<title>1&#45;&gt;2</title>
<path fill="none" stroke="black" d="M341.97,-126C350.32,-126 358.44,-126 365.9,-126"/>
<polygon fill="black" stroke="black" points="365.87,-129.5 375.87,-126 365.87,-122.5 365.87,-129.5"/>
</g>
<!-- 4 -->
<!-- name: &quot;int&quot;, typeName: &quot;&quot;, id: 4, branchId: 0, recurseId: &#45;1, attributes: 512, notes: &quot;&quot; -->
<g id="node5" class="node">
<title>4</title>
<ellipse fill="none" stroke="black" cx="404.72" cy="-72" rx="27" ry="18"/>
<text xml:space="preserve" text-anchor="middle" x="404.72" y="-66.95" font-family="Times New Roman,serif" font-size="14.00">int</text>
</g>
<!-- 3&#45;&gt;4 -->
<g id="edge4" class="edge">
<title>3&#45;&gt;4</title>
<path fill="none" stroke="black" d="M341.54,-72C350.12,-72 358.46,-72 366.11,-72"/>
<polygon fill="black" stroke="black" points="365.97,-75.5 375.97,-72 365.97,-68.5 365.97,-75.5"/>
</g>
<!-- 6 -->
<!-- name: &quot;int&quot;, typeName: &quot;&quot;, id: 6, branchId: 0, recurseId: &#45;1, attributes: 512, notes: &quot;&quot; -->
<g id="node7" class="node">
<title>6</title>
<ellipse fill="none" stroke="black" cx="404.72" cy="-18" rx="27" ry="18"/>
<text xml:space="preserve" text-anchor="middle" x="404.72" y="-12.95" font-family="Times New Roman,serif" font-size="14.00">int</text>
</g>
<!-- 5&#45;&gt;6 -->
<g id="edge6" class="edge">
<title>5&#45;&gt;6</title>
<path fill="none" stroke="black" d="M341.1,-18C349.73,-18 358.12,-18 365.82,-18"/>
<polygon fill="black" stroke="black" points="365.76,-21.5 375.76,-18 365.76,-14.5 365.76,-21.5"/>
</g>
</g>
</svg>
