<?xml version="1.0" encoding="UTF-8" standalone="no"?>
<!DOCTYPE svg PUBLIC "-//W3C//DTD SVG 1.1//EN"
 "http://www.w3.org/Graphics/SVG/1.1/DTD/svg11.dtd">
<!-- Generated by graphviz version 14.1.5 (20260411.2331)
 -->
<!-- Title: SyncWorldClockStateData Pages: 1 -->
<svg width="543pt" height="152pt"
 viewBox="0.00 0.00 543.00 152.00" xmlns="http://www.w3.org/2000/svg" xmlns:xlink="http://www.w3.org/1999/xlink">
<g id="graph0" class="graph" transform="scale(1 1) rotate(0) translate(4 148)">
<title>SyncWorldClockStateData</title>
<polygon fill="white" stroke="none" points="-4,4 -4,-148 538.67,-148 538.67,4 -4,4"/>
<!-- 0 -->
<!-- name: &quot;SyncWorldClockStateData&quot;, typeName: &quot;&quot;, id: 0, branchId: 0, recurseId: &#45;1, attributes: 0, notes: &quot;&quot; -->
<g id="node1" class="node">
<title>0</title>
<ellipse fill="none" stroke="black" cx="110.21" cy="-72" rx="110.21" ry="18"/>
<text xml:space="preserve" text-anchor="middle" x="110.21" y="-66.95" font-family="Times New Roman,serif" font-size="14.00">SyncWorldClockStateData</text>
</g>
<!-- 1 -->
<!-- name: &quot;ClockId&quot;, typeName: &quot;&quot;, id: 1, branchId: 0, recurseId: &#45;1, attributes: 0, notes: &quot;&quot; -->
<g id="node2" class="node">
<title>1</title>
<ellipse fill="none" stroke="black" cx="300.09" cy="-126" rx="40.6" ry="18"/>
<text xml:space="preserve" text-anchor="middle" x="300.09" y="-120.95" font-family="Times New Roman,serif" font-size="14.00">ClockId</text>
</g>
<!-- 0&#45;&gt;1 -->
<g id="edge1" class="edge">
<title>0&#45;&gt;1</title>
<path fill="none" stroke="black" d="M166.56,-87.91C194.6,-95.97 228.18,-105.62 254.53,-113.19"/>
<polygon fill="black" stroke="black" points="253.31,-116.48 263.89,-115.88 255.24,-109.75 253.31,-116.48"/>
</g>
<!-- 3 -->
<!-- name: &quot;Time&quot;, typeName: &quot;&quot;, id: 3, branchId: 0, recurseId: &#45;1, attributes: 0, notes: &quot;&quot; -->
<g id="node4" class="node">
<title>3</title>
<ellipse fill="none" stroke="black" cx="300.09" cy="-72" rx="30.88" ry="18"/>
<text xml:space="preserve" text-anchor="middle" x="300.09" y="-66.95" font-family="Times New Roman,serif" font-size="14.00">Time</text>
</g>
<!-- 0&#45;&gt;3 -->
<g id="edge3" class="edge">
<title>0&#45;&gt;3</title>
<path fill="none" stroke="black" d="M220.77,-72C233.78,-72 246.38,-72 257.53,-72"/>
<polygon fill="black" stroke="black" points="257.5,-75.5 267.5,-72 257.5,-68.5 257.5,-75.5"/>
</g>
<!-- 5 -->
<!-- name: &quot;IsPaused&quot;, typeName: &quot;&quot;, id: 5, branchId: 0, recurseId: &#45;1, attributes: 0, notes: &quot;&quot; -->
<g id="node6" class="node">
<title>5</title>
<ellipse fill="none" stroke="black" cx="300.09" cy="-18" rx="43.67" ry="18"/>
<text xml:space="preserve" text-anchor="middle" x="300.09" y="-12.95" font-family="Times New Roman,serif" font-size="14.00">IsPaused</text>
</g>
<!-- 0&#45;&gt;5 -->
<g id="edge5" class="edge">
<title>0&#45;&gt;5</title>
<path fill="none" stroke="black" d="M166.56,-56.09C193.94,-48.22 226.6,-38.84 252.65,-31.35"/>
<polygon fill="black" stroke="black" points="253.27,-34.81 261.92,-28.68 251.34,-28.08 253.27,-34.81"/>
</g>
<!-- 2 -->
<!-- name: &quot;unsigned varint64&quot;, typeName: &quot;&quot;, id: 2, branchId: 0, recurseId: &#45;1, attributes: 512, notes: &quot;&quot; -->
<g id="node3" class="node">
<title>2</title>
<ellipse fill="none" stroke="black" cx="457.22" cy="-126" rx="77.45" ry="18"/>
<text xml:space="preserve" text-anchor="middle" x="457.22" y="-120.95" font-family="Times New Roman,serif" font-size="14.00">unsigned varint64</text>
</g>
<!-- 1&#45;&gt;2 -->
<g id="edge2" class="edge">
<title>1&#45;&gt;2</title>
<path fill="none" stroke="black" d="M341.04,-126C349.4,-126 358.53,-126 367.88,-126"/>
<polygon fill="black" stroke="black" points="367.83,-129.5 377.83,-126 367.83,-122.5 367.83,-129.5"/>
</g>
<!-- 4 -->
<!-- name: &quot;varint&quot;, typeName: &quot;&quot;, id: 4, branchId: 0, recurseId: &#45;1, attributes: 512, notes: &quot;&quot; -->
<g id="node5" class="node">
<title>4</title>
<ellipse fill="none" stroke="black" cx="457.22" cy="-72" rx="32.41" ry="18"/>
<text xml:space="preserve" text-anchor="middle" x="457.22" y="-66.95" font-family="Times New Roman,serif" font-size="14.00">varint</text>
</g>
<!-- 3&#45;&gt;4 -->
<g id="edge4" class="edge">
<title>3&#45;&gt;4</title>
<path fill="none" stroke="black" d="M331.37,-72C354.62,-72 387.02,-72 412.99,-72"/>
<polygon fill="black" stroke="black" points="412.91,-75.5 422.91,-72 412.91,-68.5 412.91,-75.5"/>
</g>
<!-- 6 -->
<!-- name: &quot;bool&quot;, typeName: &quot;&quot;, id: 6, branchId: 0, recurseId: &#45;1, attributes: 512, notes: &quot;&quot; -->
<g id="node7" class="node">
<title>6</title>
<ellipse fill="none" stroke="black" cx="457.22" cy="-18" rx="27.3" ry="18"/>
<text xml:space="preserve" text-anchor="middle" x="457.22" y="-12.95" font-family="Times New Roman,serif" font-size="14.00">bool</text>
</g>
<!-- 5&#45;&gt;6 -->
<g id="edge6" class="edge">
<title>5&#45;&gt;6</title>
<path fill="none" stroke="black" d="M343.89,-18C367.15,-18 395.68,-18 418.16,-18"/>
<polygon fill="black" stroke="black" points="418.12,-21.5 428.12,-18 418.12,-14.5 418.12,-21.5"/>
</g>
</g>
</svg>
