<?xml version="1.0" encoding="UTF-8" standalone="no"?>
<!DOCTYPE svg PUBLIC "-//W3C//DTD SVG 1.1//EN"
 "http://www.w3.org/Graphics/SVG/1.1/DTD/svg11.dtd">
<!-- Generated by graphviz version 11.0.0 (20240428.1522)
 -->
<!-- Title: SyncedPlayerMovementSettings Pages: 1 -->
<svg width="691pt" height="152pt"
 viewBox="0.00 0.00 690.77 152.00" xmlns="http://www.w3.org/2000/svg" xmlns:xlink="http://www.w3.org/1999/xlink">
<g id="graph0" class="graph" transform="scale(1 1) rotate(0) translate(4 148)">
<title>SyncedPlayerMovementSettings</title>
<polygon fill="white" stroke="none" points="-4,4 -4,-148 686.77,-148 686.77,4 -4,4"/>
<!-- 155 -->
<!-- name: &quot;SyncedPlayerMovementSettings&quot;, typeName: &quot;&quot;, id: 155, branchId: 0, recurseId: &#45;1, attributes: 0, notes: &quot;&quot; -->
<g id="node1" class="node">
<title>155</title>
<ellipse fill="none" stroke="black" cx="130.4" cy="-72" rx="130.4" ry="18"/>
<text text-anchor="middle" x="130.4" y="-66.58" font-family="Times New Roman,serif" font-size="14.00">SyncedPlayerMovementSettings</text>
</g>
<!-- 156 -->
<!-- name: &quot;Authority Mode&quot;, typeName: &quot;&quot;, id: 156, branchId: 0, recurseId: &#45;1, attributes: 0, notes: &quot;See explanation of modes in enum table&quot; -->
<g id="node2" class="node">
<title>156</title>
<ellipse fill="none" stroke="black" cx="440.69" cy="-126" rx="70.03" ry="18"/>
<text text-anchor="middle" x="440.69" y="-120.58" font-family="Times New Roman,serif" font-size="14.00">Authority Mode</text>
</g>
<!-- 155&#45;&gt;156 -->
<g id="edge1" class="edge">
<title>155&#45;&gt;156</title>
<path fill="none" stroke="black" d="M212.8,-86.26C261.92,-94.86 323.81,-105.7 370.54,-113.89"/>
<polygon fill="black" stroke="black" points="369.83,-117.32 380.28,-115.59 371.04,-110.42 369.83,-117.32"/>
</g>
<!-- 158 -->
<!-- name: &quot;Rewind History Size&quot;, typeName: &quot;&quot;, id: 158, branchId: 0, recurseId: &#45;1, attributes: 0, notes: &quot;When using server authoritative movement mode, this determines the number of ticks the client keeps in history for use in processing corrections. Should at least account for the largest expected round trip latency. In Bedrock this is 40 ticks.&quot; -->
<g id="node4" class="node">
<title>158</title>
<ellipse fill="none" stroke="black" cx="440.69" cy="-72" rx="86.99" ry="18"/>
<text text-anchor="middle" x="440.69" y="-66.58" font-family="Times New Roman,serif" font-size="14.00">Rewind History Size</text>
</g>
<!-- 155&#45;&gt;158 -->
<g id="edge3" class="edge">
<title>155&#45;&gt;158</title>
<path fill="none" stroke="black" d="M261.25,-72C288.34,-72 316.46,-72 342.14,-72"/>
<polygon fill="black" stroke="black" points="341.86,-75.5 351.86,-72 341.86,-68.5 341.86,-75.5"/>
</g>
<!-- 160 -->
<!-- name: &quot;Server Authoritative Block Breaking&quot;, typeName: &quot;&quot;, id: 160, branchId: 0, recurseId: &#45;1, attributes: 0, notes: &quot;&quot; -->
<g id="node6" class="node">
<title>160</title>
<ellipse fill="none" stroke="black" cx="440.69" cy="-18" rx="143.88" ry="18"/>
<text text-anchor="middle" x="440.69" y="-12.57" font-family="Times New Roman,serif" font-size="14.00">Server Authoritative Block Breaking</text>
</g>
<!-- 155&#45;&gt;160 -->
<g id="edge5" class="edge">
<title>155&#45;&gt;160</title>
<path fill="none" stroke="black" d="M212.8,-57.74C253.01,-50.7 301.77,-42.16 343.78,-34.8"/>
<polygon fill="black" stroke="black" points="344.13,-38.29 353.37,-33.12 342.92,-31.4 344.13,-38.29"/>
</g>
<!-- 157 -->
<!-- name: &quot;varint&quot;, typeName: &quot;&quot;, id: 157, branchId: 0, recurseId: &#45;1, attributes: 512, notes: &quot;&quot; -->
<g id="node3" class="node">
<title>157</title>
<ellipse fill="none" stroke="black" cx="651.67" cy="-126" rx="31.1" ry="18"/>
<text text-anchor="middle" x="651.67" y="-120.58" font-family="Times New Roman,serif" font-size="14.00">varint</text>
</g>
<!-- 156&#45;&gt;157 -->
<g id="edge2" class="edge">
<title>156&#45;&gt;157</title>
<path fill="none" stroke="black" d="M510.98,-126C543.32,-126 580.74,-126 608.71,-126"/>
<polygon fill="black" stroke="black" points="608.56,-129.5 618.56,-126 608.56,-122.5 608.56,-129.5"/>
</g>
<!-- 159 -->
<!-- name: &quot;varint&quot;, typeName: &quot;&quot;, id: 159, branchId: 0, recurseId: &#45;1, attributes: 512, notes: &quot;&quot; -->
<g id="node5" class="node">
<title>159</title>
<ellipse fill="none" stroke="black" cx="651.67" cy="-72" rx="31.1" ry="18"/>
<text text-anchor="middle" x="651.67" y="-66.58" font-family="Times New Roman,serif" font-size="14.00">varint</text>
</g>
<!-- 158&#45;&gt;159 -->
<g id="edge4" class="edge">
<title>158&#45;&gt;159</title>
<path fill="none" stroke="black" d="M527.89,-72C555.75,-72 585.41,-72 608.59,-72"/>
<polygon fill="black" stroke="black" points="608.56,-75.5 618.56,-72 608.56,-68.5 608.56,-75.5"/>
</g>
<!-- 161 -->
<!-- name: &quot;bool&quot;, typeName: &quot;&quot;, id: 161, branchId: 0, recurseId: &#45;1, attributes: 512, notes: &quot;&quot; -->
<g id="node7" class="node">
<title>161</title>
<ellipse fill="none" stroke="black" cx="651.67" cy="-18" rx="27.61" ry="18"/>
<text text-anchor="middle" x="651.67" y="-12.57" font-family="Times New Roman,serif" font-size="14.00">bool</text>
</g>
<!-- 160&#45;&gt;161 -->
<g id="edge6" class="edge">
<title>160&#45;&gt;161</title>
<path fill="none" stroke="black" d="M584.83,-18C594.63,-18 603.9,-18 612.22,-18"/>
<polygon fill="black" stroke="black" points="612.18,-21.5 622.18,-18 612.18,-14.5 612.18,-21.5"/>
</g>
</g>
</svg>
