<?xml version="1.0" encoding="UTF-8" standalone="no"?>
<!DOCTYPE svg PUBLIC "-//W3C//DTD SVG 1.1//EN"
 "http://www.w3.org/Graphics/SVG/1.1/DTD/svg11.dtd">
<!-- Generated by graphviz version 14.1.5 (20260411.2331)
 -->
<!-- Title: SyncStateData Pages: 1 -->
<svg width="824pt" height="206pt"
 viewBox="0.00 0.00 824.00 206.00" xmlns="http://www.w3.org/2000/svg" xmlns:xlink="http://www.w3.org/1999/xlink">
<g id="graph0" class="graph" transform="scale(1 1) rotate(0) translate(4 202)">
<title>SyncStateData</title>
<polygon fill="white" stroke="none" points="-4,4 -4,-202 820.17,-202 820.17,4 -4,4"/>
<!-- 0 -->
<!-- name: &quot;SyncStateData&quot;, typeName: &quot;&quot;, id: 0, branchId: 0, recurseId: &#45;1, attributes: 0, notes: &quot;&quot; -->
<g id="node1" class="node">
<title>0</title>
<ellipse fill="none" stroke="black" cx="65.17" cy="-126" rx="65.17" ry="18"/>
<text xml:space="preserve" text-anchor="middle" x="65.17" y="-120.95" font-family="Times New Roman,serif" font-size="14.00">SyncStateData</text>
</g>
<!-- 1 -->
<!-- name: &quot;ClockData&quot;, typeName: &quot;&quot;, id: 1, branchId: 0, recurseId: &#45;1, attributes: 0, notes: &quot;&quot; -->
<g id="node2" class="node">
<title>1</title>
<ellipse fill="none" stroke="black" cx="216.67" cy="-126" rx="50.33" ry="18"/>
<text xml:space="preserve" text-anchor="middle" x="216.67" y="-120.95" font-family="Times New Roman,serif" font-size="14.00">ClockData</text>
</g>
<!-- 0&#45;&gt;1 -->
<g id="edge1" class="edge">
<title>0&#45;&gt;1</title>
<path fill="none" stroke="black" d="M130.44,-126C138.41,-126 146.55,-126 154.48,-126"/>
<polygon fill="black" stroke="black" points="154.39,-129.5 164.39,-126 154.39,-122.5 154.39,-129.5"/>
</g>
<!-- 2 -->
<!-- name: &quot;List Size&quot;, typeName: &quot;&quot;, id: 2, branchId: 0, recurseId: &#45;1, attributes: 0, notes: &quot;&quot; -->
<g id="node3" class="node">
<title>2</title>
<ellipse fill="none" stroke="black" cx="377.89" cy="-166" rx="43.67" ry="18"/>
<text xml:space="preserve" text-anchor="middle" x="377.89" y="-160.95" font-family="Times New Roman,serif" font-size="14.00">List Size</text>
</g>
<!-- 1&#45;&gt;2 -->
<g id="edge2" class="edge">
<title>1&#45;&gt;2</title>
<path fill="none" stroke="black" d="M258.67,-136.3C280.11,-141.69 306.48,-148.31 328.87,-153.94"/>
<polygon fill="black" stroke="black" points="327.82,-157.28 338.37,-156.32 329.52,-150.49 327.82,-157.28"/>
</g>
<!-- 4 -->
<!-- name: &quot;example element&quot;, typeName: &quot;&quot;, id: 4, branchId: 0, recurseId: &#45;1, attributes: 16, notes: &quot;&quot; -->
<g id="node5" class="node">
<title>4</title>
<ellipse fill="none" stroke="black" stroke-dasharray="1,5" cx="377.89" cy="-99" rx="74.89" ry="18"/>
<text xml:space="preserve" text-anchor="middle" x="377.89" y="-93.95" font-family="Times New Roman,serif" font-size="14.00">example element</text>
</g>
<!-- 1&#45;&gt;4 -->
<g id="edge4" class="edge">
<title>1&#45;&gt;4</title>
<path fill="none" stroke="black" d="M262.87,-118.34C275.85,-116.13 290.35,-113.67 304.54,-111.27"/>
<polygon fill="black" stroke="black" points="305.05,-114.73 314.33,-109.61 303.88,-107.83 305.05,-114.73"/>
</g>
<!-- 3 -->
<!-- name: &quot;unsigned varint&quot;, typeName: &quot;&quot;, id: 3, branchId: 0, recurseId: &#45;1, attributes: 0, notes: &quot;&quot; -->
<g id="node4" class="node">
<title>3</title>
<ellipse fill="none" stroke="black" cx="557.03" cy="-180" rx="68.24" ry="18"/>
<text xml:space="preserve" text-anchor="middle" x="557.03" y="-174.95" font-family="Times New Roman,serif" font-size="14.00">unsigned varint</text>
</g>
<!-- 2&#45;&gt;3 -->
<g id="edge3" class="edge">
<title>2&#45;&gt;3</title>
<path fill="none" stroke="black" d="M421.32,-169.35C438.85,-170.74 459.74,-172.39 479.77,-173.97"/>
<polygon fill="black" stroke="black" points="479.35,-177.45 489.59,-174.75 479.9,-170.47 479.35,-177.45"/>
</g>
<!-- 5 -->
<!-- name: &quot;ClockId&quot;, typeName: &quot;&quot;, id: 5, branchId: 0, recurseId: &#45;1, attributes: 0, notes: &quot;&quot; -->
<g id="node6" class="node">
<title>5</title>
<ellipse fill="none" stroke="black" cx="557.03" cy="-126" rx="40.6" ry="18"/>
<text xml:space="preserve" text-anchor="middle" x="557.03" y="-120.95" font-family="Times New Roman,serif" font-size="14.00">ClockId</text>
</g>
<!-- 4&#45;&gt;5 -->
<g id="edge5" class="edge">
<title>4&#45;&gt;5</title>
<path fill="none" stroke="black" d="M441.84,-108.6C463.22,-111.85 486.78,-115.45 506.92,-118.51"/>
<polygon fill="black" stroke="black" points="506.12,-121.93 516.53,-119.98 507.17,-115.01 506.12,-121.93"/>
</g>
<!-- 7 -->
<!-- name: &quot;Time&quot;, typeName: &quot;&quot;, id: 7, branchId: 0, recurseId: &#45;1, attributes: 0, notes: &quot;&quot; -->
<g id="node8" class="node">
<title>7</title>
<ellipse fill="none" stroke="black" cx="557.03" cy="-72" rx="30.88" ry="18"/>
<text xml:space="preserve" text-anchor="middle" x="557.03" y="-66.95" font-family="Times New Roman,serif" font-size="14.00">Time</text>
</g>
<!-- 4&#45;&gt;7 -->
<g id="edge7" class="edge">
<title>4&#45;&gt;7</title>
<path fill="none" stroke="black" d="M441.84,-89.4C466.45,-85.65 493.96,-81.46 515.8,-78.13"/>
<polygon fill="black" stroke="black" points="516.13,-81.62 525.48,-76.66 515.07,-74.7 516.13,-81.62"/>
</g>
<!-- 9 -->
<!-- name: &quot;IsPaused&quot;, typeName: &quot;&quot;, id: 9, branchId: 0, recurseId: &#45;1, attributes: 0, notes: &quot;&quot; -->
<g id="node10" class="node">
<title>9</title>
<ellipse fill="none" stroke="black" cx="557.03" cy="-18" rx="43.67" ry="18"/>
<text xml:space="preserve" text-anchor="middle" x="557.03" y="-12.95" font-family="Times New Roman,serif" font-size="14.00">IsPaused</text>
</g>
<!-- 4&#45;&gt;9 -->
<g id="edge9" class="edge">
<title>4&#45;&gt;9</title>
<path fill="none" stroke="black" d="M410.81,-82.53C432.58,-71.49 462.18,-56.86 488.79,-45 496.69,-41.47 505.21,-37.89 513.44,-34.54"/>
<polygon fill="black" stroke="black" points="514.63,-37.83 522.61,-30.85 512.02,-31.34 514.63,-37.83"/>
</g>
<!-- 6 -->
<!-- name: &quot;unsigned varint64&quot;, typeName: &quot;&quot;, id: 6, branchId: 0, recurseId: &#45;1, attributes: 512, notes: &quot;&quot; -->
<g id="node7" class="node">
<title>6</title>
<ellipse fill="none" stroke="black" cx="738.72" cy="-126" rx="77.45" ry="18"/>
<text xml:space="preserve" text-anchor="middle" x="738.72" y="-120.95" font-family="Times New Roman,serif" font-size="14.00">unsigned varint64</text>
</g>
<!-- 5&#45;&gt;6 -->
<g id="edge6" class="edge">
<title>5&#45;&gt;6</title>
<path fill="none" stroke="black" d="M597.91,-126C613.32,-126 631.61,-126 649.79,-126"/>
<polygon fill="black" stroke="black" points="649.56,-129.5 659.56,-126 649.56,-122.5 649.56,-129.5"/>
</g>
<!-- 8 -->
<!-- name: &quot;varint&quot;, typeName: &quot;&quot;, id: 8, branchId: 0, recurseId: &#45;1, attributes: 512, notes: &quot;&quot; -->
<g id="node9" class="node">
<title>8</title>
<ellipse fill="none" stroke="black" cx="738.72" cy="-72" rx="32.41" ry="18"/>
<text xml:space="preserve" text-anchor="middle" x="738.72" y="-66.95" font-family="Times New Roman,serif" font-size="14.00">varint</text>
</g>
<!-- 7&#45;&gt;8 -->
<g id="edge8" class="edge">
<title>7&#45;&gt;8</title>
<path fill="none" stroke="black" d="M588.1,-72C617.33,-72 662,-72 694.92,-72"/>
<polygon fill="black" stroke="black" points="694.52,-75.5 704.52,-72 694.52,-68.5 694.52,-75.5"/>
</g>
<!-- 10 -->
<!-- name: &quot;bool&quot;, typeName: &quot;&quot;, id: 10, branchId: 0, recurseId: &#45;1, attributes: 512, notes: &quot;&quot; -->
<g id="node11" class="node">
<title>10</title>
<ellipse fill="none" stroke="black" cx="738.72" cy="-18" rx="27.3" ry="18"/>
<text xml:space="preserve" text-anchor="middle" x="738.72" y="-12.95" font-family="Times New Roman,serif" font-size="14.00">bool</text>
</g>
<!-- 9&#45;&gt;10 -->
<g id="edge10" class="edge">
<title>9&#45;&gt;10</title>
<path fill="none" stroke="black" d="M601.07,-18C631.18,-18 671.03,-18 699.92,-18"/>
<polygon fill="black" stroke="black" points="699.67,-21.5 709.67,-18 699.67,-14.5 699.67,-21.5"/>
</g>
</g>
</svg>
