<?xml version="1.0" encoding="UTF-8" standalone="no"?>
<!DOCTYPE svg PUBLIC "-//W3C//DTD SVG 1.1//EN"
 "http://www.w3.org/Graphics/SVG/1.1/DTD/svg11.dtd">
<!-- Generated by graphviz version 2.46.1 (20210213.1702)
 -->
<!-- Title: TakeItemActorPacket Pages: 1 -->
<svg width="556pt" height="98pt"
 viewBox="0.00 0.00 555.76 98.00" xmlns="http://www.w3.org/2000/svg" xmlns:xlink="http://www.w3.org/1999/xlink">
<g id="graph0" class="graph" transform="scale(1 1) rotate(0) translate(4 94)">
<title>TakeItemActorPacket</title>
<polygon fill="white" stroke="transparent" points="-4,4 -4,-94 551.76,-94 551.76,4 -4,4"/>
<!-- 0 -->
<!-- name: &quot;TakeItemActorPacket&quot;, typeName: &quot;&quot;, id: 0, branchId: 17, recurseId: &#45;1, attributes: 0, notes: &quot;&quot; -->
<g id="node1" class="node">
<title>0</title>
<ellipse fill="none" stroke="black" cx="90.34" cy="-45" rx="90.18" ry="18"/>
<text text-anchor="middle" x="90.34" y="-41.3" font-family="Times New Roman,serif" font-size="14.00">TakeItemActorPacket</text>
</g>
<!-- 1 -->
<!-- name: &quot;Item Runtime ID&quot;, typeName: &quot;ActorRuntimeID&quot;, id: 1, branchId: 0, recurseId: &#45;1, attributes: 256, notes: &quot;&quot; -->
<g id="node2" class="node">
<title>1</title>
<ellipse fill="none" stroke="black" cx="292.73" cy="-72" rx="71.49" ry="18"/>
<text text-anchor="middle" x="292.73" y="-68.3" font-family="Times New Roman,serif" font-size="14.00">Item Runtime ID</text>
</g>
<!-- 0&#45;&gt;1 -->
<g id="edge1" class="edge">
<title>0&#45;&gt;1</title>
<path fill="none" stroke="black" d="M165.67,-55.02C183.18,-57.37 201.81,-59.88 219.23,-62.23"/>
<polygon fill="black" stroke="black" points="218.96,-65.73 229.33,-63.59 219.89,-58.79 218.96,-65.73"/>
</g>
<!-- 3 -->
<!-- name: &quot;Actor Runtime ID&quot;, typeName: &quot;ActorRuntimeID&quot;, id: 3, branchId: 0, recurseId: &#45;1, attributes: 256, notes: &quot;&quot; -->
<g id="node4" class="node">
<title>3</title>
<ellipse fill="none" stroke="black" cx="292.73" cy="-18" rx="76.09" ry="18"/>
<text text-anchor="middle" x="292.73" y="-14.3" font-family="Times New Roman,serif" font-size="14.00">Actor Runtime ID</text>
</g>
<!-- 0&#45;&gt;3 -->
<g id="edge3" class="edge">
<title>0&#45;&gt;3</title>
<path fill="none" stroke="black" d="M165.67,-34.98C182.09,-32.77 199.5,-30.43 215.98,-28.21"/>
<polygon fill="black" stroke="black" points="216.65,-31.65 226.1,-26.84 215.72,-24.71 216.65,-31.65"/>
</g>
<!-- 2 -->
<!-- name: &quot;ActorRuntimeID&quot;, typeName: &quot;&quot;, id: 2, branchId: 0, recurseId: &#45;1, attributes: 512, notes: &quot;&quot; -->
<g id="node3" class="node">
<title>2</title>
<ellipse fill="none" stroke="black" cx="476.26" cy="-72" rx="71.49" ry="18"/>
<text text-anchor="middle" x="476.26" y="-68.3" font-family="Times New Roman,serif" font-size="14.00">ActorRuntimeID</text>
</g>
<!-- 1&#45;&gt;2 -->
<g id="edge2" class="edge">
<title>1&#45;&gt;2</title>
<path fill="none" stroke="black" d="M364.43,-72C374.36,-72 384.63,-72 394.73,-72"/>
<polygon fill="black" stroke="black" points="394.75,-75.5 404.75,-72 394.75,-68.5 394.75,-75.5"/>
</g>
<!-- 4 -->
<!-- name: &quot;ActorRuntimeID&quot;, typeName: &quot;&quot;, id: 4, branchId: 0, recurseId: &#45;1, attributes: 512, notes: &quot;&quot; -->
<g id="node5" class="node">
<title>4</title>
<ellipse fill="none" stroke="black" cx="476.26" cy="-18" rx="71.49" ry="18"/>
<text text-anchor="middle" x="476.26" y="-14.3" font-family="Times New Roman,serif" font-size="14.00">ActorRuntimeID</text>
</g>
<!-- 3&#45;&gt;4 -->
<g id="edge4" class="edge">
<title>3&#45;&gt;4</title>
<path fill="none" stroke="black" d="M368.88,-18C377.27,-18 385.84,-18 394.3,-18"/>
<polygon fill="black" stroke="black" points="394.54,-21.5 404.54,-18 394.54,-14.5 394.54,-21.5"/>
</g>
</g>
</svg>
