<?xml version="1.0" encoding="UTF-8" standalone="no"?>
<!DOCTYPE svg PUBLIC "-//W3C//DTD SVG 1.1//EN"
 "http://www.w3.org/Graphics/SVG/1.1/DTD/svg11.dtd">
<!-- Generated by graphviz version 11.0.0 (20240428.1522)
 -->
<!-- Title: TakeItemActorPacket Pages: 1 -->
<svg width="564pt" height="98pt"
 viewBox="0.00 0.00 564.03 98.00" xmlns="http://www.w3.org/2000/svg" xmlns:xlink="http://www.w3.org/1999/xlink">
<g id="graph0" class="graph" transform="scale(1 1) rotate(0) translate(4 94)">
<title>TakeItemActorPacket</title>
<polygon fill="white" stroke="none" points="-4,4 -4,-94 560.03,-94 560.03,4 -4,4"/>
<!-- 0 -->
<!-- name: &quot;TakeItemActorPacket&quot;, typeName: &quot;&quot;, id: 0, branchId: 17, recurseId: &#45;1, attributes: 0, notes: &quot;&quot; -->
<g id="node1" class="node">
<title>0</title>
<ellipse fill="none" stroke="black" cx="91.98" cy="-45" rx="91.98" ry="18"/>
<text text-anchor="middle" x="91.98" y="-39.58" font-family="Times New Roman,serif" font-size="14.00">TakeItemActorPacket</text>
</g>
<!-- 1 -->
<!-- name: &quot;Item Runtime ID&quot;, typeName: &quot;ActorRuntimeID&quot;, id: 1, branchId: 0, recurseId: &#45;1, attributes: 256, notes: &quot;&quot; -->
<g id="node2" class="node">
<title>1</title>
<ellipse fill="none" stroke="black" cx="297.47" cy="-72" rx="72.52" ry="18"/>
<text text-anchor="middle" x="297.47" y="-66.58" font-family="Times New Roman,serif" font-size="14.00">Item Runtime ID</text>
</g>
<!-- 0&#45;&gt;1 -->
<g id="edge1" class="edge">
<title>0&#45;&gt;1</title>
<path fill="none" stroke="black" d="M169.33,-55.13C186.45,-57.4 204.59,-59.81 221.64,-62.07"/>
<polygon fill="black" stroke="black" points="220.79,-65.49 231.17,-63.33 221.71,-58.55 220.79,-65.49"/>
</g>
<!-- 3 -->
<!-- name: &quot;Actor Runtime ID&quot;, typeName: &quot;ActorRuntimeID&quot;, id: 3, branchId: 0, recurseId: &#45;1, attributes: 256, notes: &quot;&quot; -->
<g id="node4" class="node">
<title>3</title>
<ellipse fill="none" stroke="black" cx="297.47" cy="-18" rx="77.51" ry="18"/>
<text text-anchor="middle" x="297.47" y="-12.57" font-family="Times New Roman,serif" font-size="14.00">Actor Runtime ID</text>
</g>
<!-- 0&#45;&gt;3 -->
<g id="edge3" class="edge">
<title>0&#45;&gt;3</title>
<path fill="none" stroke="black" d="M169.33,-34.87C185.37,-32.74 202.3,-30.49 218.4,-28.36"/>
<polygon fill="black" stroke="black" points="218.44,-31.88 227.89,-27.1 217.52,-24.95 218.44,-31.88"/>
</g>
<!-- 2 -->
<!-- name: &quot;ActorRuntimeID&quot;, typeName: &quot;&quot;, id: 2, branchId: 0, recurseId: &#45;1, attributes: 512, notes: &quot;&quot; -->
<g id="node3" class="node">
<title>2</title>
<ellipse fill="none" stroke="black" cx="483.51" cy="-72" rx="72.52" ry="18"/>
<text text-anchor="middle" x="483.51" y="-66.58" font-family="Times New Roman,serif" font-size="14.00">ActorRuntimeID</text>
</g>
<!-- 1&#45;&gt;2 -->
<g id="edge2" class="edge">
<title>1&#45;&gt;2</title>
<path fill="none" stroke="black" d="M370.42,-72C379.91,-72 389.7,-72 399.36,-72"/>
<polygon fill="black" stroke="black" points="399.1,-75.5 409.1,-72 399.1,-68.5 399.1,-75.5"/>
</g>
<!-- 4 -->
<!-- name: &quot;ActorRuntimeID&quot;, typeName: &quot;&quot;, id: 4, branchId: 0, recurseId: &#45;1, attributes: 512, notes: &quot;&quot; -->
<g id="node5" class="node">
<title>4</title>
<ellipse fill="none" stroke="black" cx="483.51" cy="-18" rx="72.52" ry="18"/>
<text text-anchor="middle" x="483.51" y="-12.57" font-family="Times New Roman,serif" font-size="14.00">ActorRuntimeID</text>
</g>
<!-- 3&#45;&gt;4 -->
<g id="edge4" class="edge">
<title>3&#45;&gt;4</title>
<path fill="none" stroke="black" d="M375.45,-18C383.26,-18 391.22,-18 399.09,-18"/>
<polygon fill="black" stroke="black" points="399.02,-21.5 409.02,-18 399.02,-14.5 399.02,-21.5"/>
</g>
</g>
</svg>
