<?xml version="1.0" encoding="UTF-8" standalone="no"?>
<!DOCTYPE svg PUBLIC "-//W3C//DTD SVG 1.1//EN"
 "http://www.w3.org/Graphics/SVG/1.1/DTD/svg11.dtd">
<!-- Generated by graphviz version 2.46.1 (20210213.1702)
 -->
<!-- Title: TickingAreasLoadStatusPacket Pages: 1 -->
<svg width="553pt" height="44pt"
 viewBox="0.00 0.00 553.16 44.00" xmlns="http://www.w3.org/2000/svg" xmlns:xlink="http://www.w3.org/1999/xlink">
<g id="graph0" class="graph" transform="scale(1 1) rotate(0) translate(4 40)">
<title>TickingAreasLoadStatusPacket</title>
<polygon fill="white" stroke="transparent" points="-4,4 -4,-40 549.16,-40 549.16,4 -4,4"/>
<!-- 0 -->
<!-- name: &quot;TickingAreasLoadStatusPacket&quot;, typeName: &quot;&quot;, id: 0, branchId: 179, recurseId: &#45;1, attributes: 0, notes: &quot;&quot; -->
<g id="node1" class="node">
<title>0</title>
<ellipse fill="none" stroke="black" cx="124.79" cy="-18" rx="124.58" ry="18"/>
<text text-anchor="middle" x="124.79" y="-14.3" font-family="Times New Roman,serif" font-size="14.00">TickingAreasLoadStatusPacket</text>
</g>
<!-- 1 -->
<!-- name: &quot;Waiting For Preload&quot;, typeName: &quot;&quot;, id: 1, branchId: 0, recurseId: &#45;1, attributes: 0, notes: &quot;&quot; -->
<g id="node2" class="node">
<title>1</title>
<ellipse fill="none" stroke="black" cx="370.07" cy="-18" rx="84.49" ry="18"/>
<text text-anchor="middle" x="370.07" y="-14.3" font-family="Times New Roman,serif" font-size="14.00">Waiting For Preload</text>
</g>
<!-- 0&#45;&gt;1 -->
<g id="edge1" class="edge">
<title>0&#45;&gt;1</title>
<path fill="none" stroke="black" d="M249.92,-18C258.5,-18 267.06,-18 275.44,-18"/>
<polygon fill="black" stroke="black" points="275.55,-21.5 285.55,-18 275.55,-14.5 275.55,-21.5"/>
</g>
<!-- 2 -->
<!-- name: &quot;bool&quot;, typeName: &quot;&quot;, id: 2, branchId: 0, recurseId: &#45;1, attributes: 512, notes: &quot;&quot; -->
<g id="node3" class="node">
<title>2</title>
<ellipse fill="none" stroke="black" cx="517.86" cy="-18" rx="27.1" ry="18"/>
<text text-anchor="middle" x="517.86" y="-14.3" font-family="Times New Roman,serif" font-size="14.00">bool</text>
</g>
<!-- 1&#45;&gt;2 -->
<g id="edge2" class="edge">
<title>1&#45;&gt;2</title>
<path fill="none" stroke="black" d="M454.61,-18C463.63,-18 472.44,-18 480.45,-18"/>
<polygon fill="black" stroke="black" points="480.47,-21.5 490.47,-18 480.47,-14.5 480.47,-21.5"/>
</g>
</g>
</svg>
