<?xml version="1.0" encoding="UTF-8" standalone="no"?>
<!DOCTYPE svg PUBLIC "-//W3C//DTD SVG 1.1//EN"
 "http://www.w3.org/Graphics/SVG/1.1/DTD/svg11.dtd">
<!-- Generated by graphviz version 10.0.1 (20240210.2158)
 -->
<!-- Title: TickingAreasLoadStatusPacket Pages: 1 -->
<svg width="562pt" height="44pt"
 viewBox="0.00 0.00 562.03 44.00" xmlns="http://www.w3.org/2000/svg" xmlns:xlink="http://www.w3.org/1999/xlink">
<g id="graph0" class="graph" transform="scale(1 1) rotate(0) translate(4 40)">
<title>TickingAreasLoadStatusPacket</title>
<polygon fill="white" stroke="none" points="-4,4 -4,-40 558.03,-40 558.03,4 -4,4"/>
<!-- 0 -->
<!-- name: &quot;TickingAreasLoadStatusPacket&quot;, typeName: &quot;&quot;, id: 0, branchId: 179, recurseId: &#45;1, attributes: 0, notes: &quot;&quot; -->
<g id="node1" class="node">
<title>0</title>
<ellipse fill="none" stroke="black" cx="127.41" cy="-18" rx="127.41" ry="18"/>
<text text-anchor="middle" x="127.41" y="-12.57" font-family="Times New Roman,serif" font-size="14.00">TickingAreasLoadStatusPacket</text>
</g>
<!-- 1 -->
<!-- name: &quot;Waiting For Preload&quot;, typeName: &quot;&quot;, id: 1, branchId: 0, recurseId: &#45;1, attributes: 0, notes: &quot;&quot; -->
<g id="node2" class="node">
<title>1</title>
<ellipse fill="none" stroke="black" cx="376.81" cy="-18" rx="85.99" ry="18"/>
<text text-anchor="middle" x="376.81" y="-12.57" font-family="Times New Roman,serif" font-size="14.00">Waiting For Preload</text>
</g>
<!-- 0&#45;&gt;1 -->
<g id="edge1" class="edge">
<title>0&#45;&gt;1</title>
<path fill="none" stroke="black" d="M255.01,-18C263.08,-18 271.13,-18 279.03,-18"/>
<polygon fill="black" stroke="black" points="278.96,-21.5 288.96,-18 278.96,-14.5 278.96,-21.5"/>
</g>
<!-- 2 -->
<!-- name: &quot;bool&quot;, typeName: &quot;&quot;, id: 2, branchId: 0, recurseId: &#45;1, attributes: 512, notes: &quot;&quot; -->
<g id="node3" class="node">
<title>2</title>
<ellipse fill="none" stroke="black" cx="526.42" cy="-18" rx="27.61" ry="18"/>
<text text-anchor="middle" x="526.42" y="-12.57" font-family="Times New Roman,serif" font-size="14.00">bool</text>
</g>
<!-- 1&#45;&gt;2 -->
<g id="edge2" class="edge">
<title>1&#45;&gt;2</title>
<path fill="none" stroke="black" d="M463.25,-18C471.52,-18 479.59,-18 487.02,-18"/>
<polygon fill="black" stroke="black" points="486.99,-21.5 496.99,-18 486.99,-14.5 486.99,-21.5"/>
</g>
</g>
</svg>
