<?xml version="1.0" encoding="UTF-8" standalone="no"?>
<!DOCTYPE svg PUBLIC "-//W3C//DTD SVG 1.1//EN"
 "http://www.w3.org/Graphics/SVG/1.1/DTD/svg11.dtd">
<!-- Generated by graphviz version 14.1.5 (20260411.2331)
 -->
<!-- Title: TimeMarkerData Pages: 1 -->
<svg width="457pt" height="206pt"
 viewBox="0.00 0.00 457.00 206.00" xmlns="http://www.w3.org/2000/svg" xmlns:xlink="http://www.w3.org/1999/xlink">
<g id="graph0" class="graph" transform="scale(1 1) rotate(0) translate(4 202)">
<title>TimeMarkerData</title>
<polygon fill="white" stroke="none" points="-4,4 -4,-202 452.69,-202 452.69,4 -4,4"/>
<!-- 0 -->
<!-- name: &quot;TimeMarkerData&quot;, typeName: &quot;&quot;, id: 0, branchId: 0, recurseId: &#45;1, attributes: 0, notes: &quot;&quot; -->
<g id="node1" class="node">
<title>0</title>
<ellipse fill="none" stroke="black" cx="75.92" cy="-99" rx="75.92" ry="18"/>
<text xml:space="preserve" text-anchor="middle" x="75.92" y="-93.95" font-family="Times New Roman,serif" font-size="14.00">TimeMarkerData</text>
</g>
<!-- 1 -->
<!-- name: &quot;Id&quot;, typeName: &quot;&quot;, id: 1, branchId: 0, recurseId: &#45;1, attributes: 0, notes: &quot;&quot; -->
<g id="node2" class="node">
<title>1</title>
<ellipse fill="none" stroke="black" cx="222.81" cy="-180" rx="27" ry="18"/>
<text xml:space="preserve" text-anchor="middle" x="222.81" y="-174.95" font-family="Times New Roman,serif" font-size="14.00">Id</text>
</g>
<!-- 0&#45;&gt;1 -->
<g id="edge1" class="edge">
<title>0&#45;&gt;1</title>
<path fill="none" stroke="black" d="M106.94,-115.78C131.74,-129.65 166.79,-149.24 191.64,-163.13"/>
<polygon fill="black" stroke="black" points="189.85,-166.14 200.28,-167.97 193.26,-160.03 189.85,-166.14"/>
</g>
<!-- 3 -->
<!-- name: &quot;Name&quot;, typeName: &quot;&quot;, id: 3, branchId: 0, recurseId: &#45;1, attributes: 0, notes: &quot;&quot; -->
<g id="node4" class="node">
<title>3</title>
<ellipse fill="none" stroke="black" cx="222.81" cy="-126" rx="33.44" ry="18"/>
<text xml:space="preserve" text-anchor="middle" x="222.81" y="-120.95" font-family="Times New Roman,serif" font-size="14.00">Name</text>
</g>
<!-- 0&#45;&gt;3 -->
<g id="edge3" class="edge">
<title>0&#45;&gt;3</title>
<path fill="none" stroke="black" d="M136.69,-110.14C151.04,-112.81 166.07,-115.61 179.44,-118.11"/>
<polygon fill="black" stroke="black" points="178.75,-121.54 189.22,-119.93 180.03,-114.65 178.75,-121.54"/>
</g>
<!-- 5 -->
<!-- name: &quot;Time&quot;, typeName: &quot;&quot;, id: 5, branchId: 0, recurseId: &#45;1, attributes: 0, notes: &quot;&quot; -->
<g id="node6" class="node">
<title>5</title>
<ellipse fill="none" stroke="black" cx="222.81" cy="-72" rx="30.88" ry="18"/>
<text xml:space="preserve" text-anchor="middle" x="222.81" y="-66.95" font-family="Times New Roman,serif" font-size="14.00">Time</text>
</g>
<!-- 0&#45;&gt;5 -->
<g id="edge5" class="edge">
<title>0&#45;&gt;5</title>
<path fill="none" stroke="black" d="M136.69,-87.86C151.91,-85.03 167.91,-82.04 181.87,-79.44"/>
<polygon fill="black" stroke="black" points="182.38,-82.91 191.57,-77.63 181.1,-76.03 182.38,-82.91"/>
</g>
<!-- 7 -->
<!-- name: &quot;Period&quot;, typeName: &quot;&quot;, id: 7, branchId: 0, recurseId: &#45;1, attributes: 0, notes: &quot;&quot; -->
<g id="node8" class="node">
<title>7</title>
<ellipse fill="none" stroke="black" cx="222.81" cy="-18" rx="34.97" ry="18"/>
<text xml:space="preserve" text-anchor="middle" x="222.81" y="-12.95" font-family="Times New Roman,serif" font-size="14.00">Period</text>
</g>
<!-- 0&#45;&gt;7 -->
<g id="edge7" class="edge">
<title>0&#45;&gt;7</title>
<path fill="none" stroke="black" d="M106.94,-82.22C130.73,-68.92 163.94,-50.35 188.54,-36.6"/>
<polygon fill="black" stroke="black" points="190.16,-39.7 197.18,-31.77 186.74,-33.59 190.16,-39.7"/>
</g>
<!-- 2 -->
<!-- name: &quot;unsigned varint64&quot;, typeName: &quot;&quot;, id: 2, branchId: 0, recurseId: &#45;1, attributes: 512, notes: &quot;&quot; -->
<g id="node3" class="node">
<title>2</title>
<ellipse fill="none" stroke="black" cx="371.24" cy="-180" rx="77.45" ry="18"/>
<text xml:space="preserve" text-anchor="middle" x="371.24" y="-174.95" font-family="Times New Roman,serif" font-size="14.00">unsigned varint64</text>
</g>
<!-- 1&#45;&gt;2 -->
<g id="edge2" class="edge">
<title>1&#45;&gt;2</title>
<path fill="none" stroke="black" d="M249.99,-180C259.34,-180 270.46,-180 282.12,-180"/>
<polygon fill="black" stroke="black" points="281.9,-183.5 291.9,-180 281.9,-176.5 281.9,-183.5"/>
</g>
<!-- 4 -->
<!-- name: &quot;string&quot;, typeName: &quot;&quot;, id: 4, branchId: 0, recurseId: &#45;1, attributes: 512, notes: &quot;&quot; -->
<g id="node5" class="node">
<title>4</title>
<ellipse fill="none" stroke="black" cx="371.24" cy="-126" rx="31.9" ry="18"/>
<text xml:space="preserve" text-anchor="middle" x="371.24" y="-120.95" font-family="Times New Roman,serif" font-size="14.00">string</text>
</g>
<!-- 3&#45;&gt;4 -->
<g id="edge4" class="edge">
<title>3&#45;&gt;4</title>
<path fill="none" stroke="black" d="M256.67,-126C277.64,-126 305.03,-126 327.65,-126"/>
<polygon fill="black" stroke="black" points="327.48,-129.5 337.48,-126 327.48,-122.5 327.48,-129.5"/>
</g>
<!-- 6 -->
<!-- name: &quot;varint&quot;, typeName: &quot;&quot;, id: 6, branchId: 0, recurseId: &#45;1, attributes: 512, notes: &quot;&quot; -->
<g id="node7" class="node">
<title>6</title>
<ellipse fill="none" stroke="black" cx="371.24" cy="-72" rx="32.41" ry="18"/>
<text xml:space="preserve" text-anchor="middle" x="371.24" y="-66.95" font-family="Times New Roman,serif" font-size="14.00">varint</text>
</g>
<!-- 5&#45;&gt;6 -->
<g id="edge6" class="edge">
<title>5&#45;&gt;6</title>
<path fill="none" stroke="black" d="M254.15,-72C275.22,-72 303.6,-72 327.03,-72"/>
<polygon fill="black" stroke="black" points="326.9,-75.5 336.9,-72 326.9,-68.5 326.9,-75.5"/>
</g>
<!-- 8 -->
<!-- name: &quot;int&quot;, typeName: &quot;&quot;, id: 8, branchId: 0, recurseId: &#45;1, attributes: 512, notes: &quot;&quot; -->
<g id="node9" class="node">
<title>8</title>
<ellipse fill="none" stroke="black" cx="371.24" cy="-18" rx="27" ry="18"/>
<text xml:space="preserve" text-anchor="middle" x="371.24" y="-12.95" font-family="Times New Roman,serif" font-size="14.00">int</text>
</g>
<!-- 7&#45;&gt;8 -->
<g id="edge8" class="edge">
<title>7&#45;&gt;8</title>
<path fill="none" stroke="black" d="M258.14,-18C280.46,-18 309.56,-18 332.52,-18"/>
<polygon fill="black" stroke="black" points="332.38,-21.5 342.38,-18 332.38,-14.5 332.38,-21.5"/>
</g>
</g>
</svg>
