<?xml version="1.0" encoding="UTF-8" standalone="no"?>
<!DOCTYPE svg PUBLIC "-//W3C//DTD SVG 1.1//EN"
 "http://www.w3.org/Graphics/SVG/1.1/DTD/svg11.dtd">
<!-- Generated by graphviz version 2.46.1 (20210213.1702)
 -->
<!-- Title: ToastRequestPacket Pages: 1 -->
<svg width="392pt" height="98pt"
 viewBox="0.00 0.00 391.97 98.00" xmlns="http://www.w3.org/2000/svg" xmlns:xlink="http://www.w3.org/1999/xlink">
<g id="graph0" class="graph" transform="scale(1 1) rotate(0) translate(4 94)">
<title>ToastRequestPacket</title>
<polygon fill="white" stroke="transparent" points="-4,4 -4,-94 387.97,-94 387.97,4 -4,4"/>
<!-- 0 -->
<!-- name: &quot;ToastRequestPacket&quot;, typeName: &quot;&quot;, id: 0, branchId: 186, recurseId: &#45;1, attributes: 0, notes: &quot;&quot; -->
<g id="node1" class="node">
<title>0</title>
<ellipse fill="none" stroke="black" cx="85.79" cy="-45" rx="85.59" ry="18"/>
<text text-anchor="middle" x="85.79" y="-41.3" font-family="Times New Roman,serif" font-size="14.00">ToastRequestPacket</text>
</g>
<!-- 1 -->
<!-- name: &quot;Title&quot;, typeName: &quot;&quot;, id: 1, branchId: 0, recurseId: &#45;1, attributes: 0, notes: &quot;&quot; -->
<g id="node2" class="node">
<title>1</title>
<ellipse fill="none" stroke="black" cx="247.23" cy="-72" rx="27" ry="18"/>
<text text-anchor="middle" x="247.23" y="-68.3" font-family="Times New Roman,serif" font-size="14.00">Title</text>
</g>
<!-- 0&#45;&gt;1 -->
<g id="edge1" class="edge">
<title>0&#45;&gt;1</title>
<path fill="none" stroke="black" d="M153.02,-56.22C172.86,-59.58 193.85,-63.13 210.87,-66.01"/>
<polygon fill="black" stroke="black" points="210.47,-69.49 220.92,-67.71 211.64,-62.59 210.47,-69.49"/>
</g>
<!-- 3 -->
<!-- name: &quot;Content&quot;, typeName: &quot;&quot;, id: 3, branchId: 0, recurseId: &#45;1, attributes: 0, notes: &quot;&quot; -->
<g id="node4" class="node">
<title>3</title>
<ellipse fill="none" stroke="black" cx="247.23" cy="-18" rx="39.79" ry="18"/>
<text text-anchor="middle" x="247.23" y="-14.3" font-family="Times New Roman,serif" font-size="14.00">Content</text>
</g>
<!-- 0&#45;&gt;3 -->
<g id="edge3" class="edge">
<title>0&#45;&gt;3</title>
<path fill="none" stroke="black" d="M153.02,-33.78C168.58,-31.15 184.85,-28.39 199.36,-25.94"/>
<polygon fill="black" stroke="black" points="200.3,-29.33 209.57,-24.21 199.13,-22.43 200.3,-29.33"/>
</g>
<!-- 2 -->
<!-- name: &quot;string&quot;, typeName: &quot;&quot;, id: 2, branchId: 0, recurseId: &#45;1, attributes: 512, notes: &quot;&quot; -->
<g id="node3" class="node">
<title>2</title>
<ellipse fill="none" stroke="black" cx="353.43" cy="-72" rx="30.59" ry="18"/>
<text text-anchor="middle" x="353.43" y="-68.3" font-family="Times New Roman,serif" font-size="14.00">string</text>
</g>
<!-- 1&#45;&gt;2 -->
<g id="edge2" class="edge">
<title>1&#45;&gt;2</title>
<path fill="none" stroke="black" d="M274.25,-72C285.86,-72 299.79,-72 312.66,-72"/>
<polygon fill="black" stroke="black" points="312.68,-75.5 322.68,-72 312.68,-68.5 312.68,-75.5"/>
</g>
<!-- 4 -->
<!-- name: &quot;string&quot;, typeName: &quot;&quot;, id: 4, branchId: 0, recurseId: &#45;1, attributes: 512, notes: &quot;&quot; -->
<g id="node5" class="node">
<title>4</title>
<ellipse fill="none" stroke="black" cx="353.43" cy="-18" rx="30.59" ry="18"/>
<text text-anchor="middle" x="353.43" y="-14.3" font-family="Times New Roman,serif" font-size="14.00">string</text>
</g>
<!-- 3&#45;&gt;4 -->
<g id="edge4" class="edge">
<title>3&#45;&gt;4</title>
<path fill="none" stroke="black" d="M287.03,-18C295.33,-18 304.11,-18 312.45,-18"/>
<polygon fill="black" stroke="black" points="312.72,-21.5 322.72,-18 312.72,-14.5 312.72,-21.5"/>
</g>
</g>
</svg>
