<?xml version="1.0" encoding="UTF-8" standalone="no"?>
<!DOCTYPE svg PUBLIC "-//W3C//DTD SVG 1.1//EN"
 "http://www.w3.org/Graphics/SVG/1.1/DTD/svg11.dtd">
<!-- Generated by graphviz version 9.0.0 (20230911.1827)
 -->
<!-- Title: ToastRequestPacket Pages: 1 -->
<svg width="397pt" height="98pt"
 viewBox="0.00 0.00 397.36 98.00" xmlns="http://www.w3.org/2000/svg" xmlns:xlink="http://www.w3.org/1999/xlink">
<g id="graph0" class="graph" transform="scale(1 1) rotate(0) translate(4 94)">
<title>ToastRequestPacket</title>
<polygon fill="white" stroke="none" points="-4,4 -4,-94 393.36,-94 393.36,4 -4,4"/>
<!-- 0 -->
<!-- name: &quot;ToastRequestPacket&quot;, typeName: &quot;&quot;, id: 0, branchId: 186, recurseId: &#45;1, attributes: 0, notes: &quot;&quot; -->
<g id="node1" class="node">
<title>0</title>
<ellipse fill="none" stroke="black" cx="87.49" cy="-45" rx="87.49" ry="18"/>
<text text-anchor="middle" x="87.49" y="-39.58" font-family="Times New Roman,serif" font-size="14.00">ToastRequestPacket</text>
</g>
<!-- 1 -->
<!-- name: &quot;Title&quot;, typeName: &quot;&quot;, id: 1, branchId: 0, recurseId: &#45;1, attributes: 0, notes: &quot;&quot; -->
<g id="node2" class="node">
<title>1</title>
<ellipse fill="none" stroke="black" cx="251.07" cy="-72" rx="27.11" ry="18"/>
<text text-anchor="middle" x="251.07" y="-66.58" font-family="Times New Roman,serif" font-size="14.00">Title</text>
</g>
<!-- 0&#45;&gt;1 -->
<g id="edge1" class="edge">
<title>0&#45;&gt;1</title>
<path fill="none" stroke="black" d="M156.55,-56.37C176.03,-59.63 196.52,-63.05 213.34,-65.86"/>
<polygon fill="black" stroke="black" points="212.41,-69.26 222.85,-67.45 213.56,-62.35 212.41,-69.26"/>
</g>
<!-- 3 -->
<!-- name: &quot;Content&quot;, typeName: &quot;&quot;, id: 3, branchId: 0, recurseId: &#45;1, attributes: 0, notes: &quot;&quot; -->
<g id="node4" class="node">
<title>3</title>
<ellipse fill="none" stroke="black" cx="251.07" cy="-18" rx="40.09" ry="18"/>
<text text-anchor="middle" x="251.07" y="-12.57" font-family="Times New Roman,serif" font-size="14.00">Content</text>
</g>
<!-- 0&#45;&gt;3 -->
<g id="edge3" class="edge">
<title>0&#45;&gt;3</title>
<path fill="none" stroke="black" d="M156.55,-33.63C171.79,-31.08 187.65,-28.43 201.89,-26.05"/>
<polygon fill="black" stroke="black" points="202.14,-29.56 211.43,-24.46 200.99,-22.65 202.14,-29.56"/>
</g>
<!-- 2 -->
<!-- name: &quot;string&quot;, typeName: &quot;&quot;, id: 2, branchId: 0, recurseId: &#45;1, attributes: 512, notes: &quot;&quot; -->
<g id="node3" class="node">
<title>2</title>
<ellipse fill="none" stroke="black" cx="358.26" cy="-72" rx="31.1" ry="18"/>
<text text-anchor="middle" x="358.26" y="-66.58" font-family="Times New Roman,serif" font-size="14.00">string</text>
</g>
<!-- 1&#45;&gt;2 -->
<g id="edge2" class="edge">
<title>1&#45;&gt;2</title>
<path fill="none" stroke="black" d="M278.61,-72C289.89,-72 303.3,-72 315.83,-72"/>
<polygon fill="black" stroke="black" points="315.49,-75.5 325.49,-72 315.49,-68.5 315.49,-75.5"/>
</g>
<!-- 4 -->
<!-- name: &quot;string&quot;, typeName: &quot;&quot;, id: 4, branchId: 0, recurseId: &#45;1, attributes: 512, notes: &quot;&quot; -->
<g id="node5" class="node">
<title>4</title>
<ellipse fill="none" stroke="black" cx="358.26" cy="-18" rx="31.1" ry="18"/>
<text text-anchor="middle" x="358.26" y="-12.57" font-family="Times New Roman,serif" font-size="14.00">string</text>
</g>
<!-- 3&#45;&gt;4 -->
<g id="edge4" class="edge">
<title>3&#45;&gt;4</title>
<path fill="none" stroke="black" d="M291.54,-18C299.37,-18 307.62,-18 315.52,-18"/>
<polygon fill="black" stroke="black" points="315.26,-21.5 325.26,-18 315.26,-14.5 315.26,-21.5"/>
</g>
</g>
</svg>
