<?xml version="1.0" encoding="UTF-8" standalone="no"?>
<!DOCTYPE svg PUBLIC "-//W3C//DTD SVG 1.1//EN"
 "http://www.w3.org/Graphics/SVG/1.1/DTD/svg11.dtd">
<!-- Generated by graphviz version 12.2.1 (20241206.2353)
 -->
<!-- Title: TransferPacket Pages: 1 -->
<svg width="478pt" height="152pt"
 viewBox="0.00 0.00 478.19 152.00" xmlns="http://www.w3.org/2000/svg" xmlns:xlink="http://www.w3.org/1999/xlink">
<g id="graph0" class="graph" transform="scale(1 1) rotate(0) translate(4 148)">
<title>TransferPacket</title>
<polygon fill="white" stroke="none" points="-4,4 -4,-148 474.19,-148 474.19,4 -4,4"/>
<!-- 0 -->
<!-- name: &quot;TransferPacket&quot;, typeName: &quot;&quot;, id: 0, branchId: 85, recurseId: &#45;1, attributes: 0, notes: &quot;&quot; -->
<g id="node1" class="node">
<title>0</title>
<ellipse fill="none" stroke="black" cx="66.71" cy="-72" rx="66.71" ry="18"/>
<text text-anchor="middle" x="66.71" y="-66.95" font-family="Times New Roman,serif" font-size="14.00">TransferPacket</text>
</g>
<!-- 1 -->
<!-- name: &quot;Server Address&quot;, typeName: &quot;&quot;, id: 1, branchId: 0, recurseId: &#45;1, attributes: 0, notes: &quot;&quot; -->
<g id="node2" class="node">
<title>1</title>
<ellipse fill="none" stroke="black" cx="236.63" cy="-126" rx="67.22" ry="18"/>
<text text-anchor="middle" x="236.63" y="-120.95" font-family="Times New Roman,serif" font-size="14.00">Server Address</text>
</g>
<!-- 0&#45;&gt;1 -->
<g id="edge1" class="edge">
<title>0&#45;&gt;1</title>
<path fill="none" stroke="black" d="M110.95,-85.91C132.41,-92.81 158.56,-101.22 181.35,-108.55"/>
<polygon fill="black" stroke="black" points="180.21,-111.85 190.8,-111.58 182.35,-105.19 180.21,-111.85"/>
</g>
<!-- 3 -->
<!-- name: &quot;Server Port&quot;, typeName: &quot;&quot;, id: 3, branchId: 0, recurseId: &#45;1, attributes: 0, notes: &quot;&quot; -->
<g id="node4" class="node">
<title>3</title>
<ellipse fill="none" stroke="black" cx="236.63" cy="-72" rx="52.89" ry="18"/>
<text text-anchor="middle" x="236.63" y="-66.95" font-family="Times New Roman,serif" font-size="14.00">Server Port</text>
</g>
<!-- 0&#45;&gt;3 -->
<g id="edge3" class="edge">
<title>0&#45;&gt;3</title>
<path fill="none" stroke="black" d="M133.59,-72C146.25,-72 159.49,-72 172.08,-72"/>
<polygon fill="black" stroke="black" points="171.91,-75.5 181.91,-72 171.91,-68.5 171.91,-75.5"/>
</g>
<!-- 5 -->
<!-- name: &quot;Reload World&quot;, typeName: &quot;&quot;, id: 5, branchId: 0, recurseId: &#45;1, attributes: 0, notes: &quot;&quot; -->
<g id="node6" class="node">
<title>5</title>
<ellipse fill="none" stroke="black" cx="236.63" cy="-18" rx="62.1" ry="18"/>
<text text-anchor="middle" x="236.63" y="-12.95" font-family="Times New Roman,serif" font-size="14.00">Reload World</text>
</g>
<!-- 0&#45;&gt;5 -->
<g id="edge5" class="edge">
<title>0&#45;&gt;5</title>
<path fill="none" stroke="black" d="M110.95,-58.09C133.01,-51 160.03,-42.31 183.26,-34.84"/>
<polygon fill="black" stroke="black" points="184.09,-38.25 192.54,-31.86 181.95,-31.59 184.09,-38.25"/>
</g>
<!-- 2 -->
<!-- name: &quot;string&quot;, typeName: &quot;&quot;, id: 2, branchId: 0, recurseId: &#45;1, attributes: 512, notes: &quot;&quot; -->
<g id="node3" class="node">
<title>2</title>
<ellipse fill="none" stroke="black" cx="405.02" cy="-126" rx="31.9" ry="18"/>
<text text-anchor="middle" x="405.02" y="-120.95" font-family="Times New Roman,serif" font-size="14.00">string</text>
</g>
<!-- 1&#45;&gt;2 -->
<g id="edge2" class="edge">
<title>1&#45;&gt;2</title>
<path fill="none" stroke="black" d="M303.87,-126C323.25,-126 343.92,-126 361.41,-126"/>
<polygon fill="black" stroke="black" points="361.17,-129.5 371.17,-126 361.17,-122.5 361.17,-129.5"/>
</g>
<!-- 4 -->
<!-- name: &quot;unsigned short&quot;, typeName: &quot;&quot;, id: 4, branchId: 0, recurseId: &#45;1, attributes: 512, notes: &quot;&quot; -->
<g id="node5" class="node">
<title>4</title>
<ellipse fill="none" stroke="black" cx="405.02" cy="-72" rx="65.17" ry="18"/>
<text text-anchor="middle" x="405.02" y="-66.95" font-family="Times New Roman,serif" font-size="14.00">unsigned short</text>
</g>
<!-- 3&#45;&gt;4 -->
<g id="edge4" class="edge">
<title>3&#45;&gt;4</title>
<path fill="none" stroke="black" d="M289.82,-72C301.98,-72 315.18,-72 328.13,-72"/>
<polygon fill="black" stroke="black" points="327.91,-75.5 337.91,-72 327.91,-68.5 327.91,-75.5"/>
</g>
<!-- 6 -->
<!-- name: &quot;bool&quot;, typeName: &quot;&quot;, id: 6, branchId: 0, recurseId: &#45;1, attributes: 512, notes: &quot;&quot; -->
<g id="node7" class="node">
<title>6</title>
<ellipse fill="none" stroke="black" cx="405.02" cy="-18" rx="27.3" ry="18"/>
<text text-anchor="middle" x="405.02" y="-12.95" font-family="Times New Roman,serif" font-size="14.00">bool</text>
</g>
<!-- 5&#45;&gt;6 -->
<g id="edge6" class="edge">
<title>5&#45;&gt;6</title>
<path fill="none" stroke="black" d="M299.11,-18C321.6,-18 346.37,-18 366.19,-18"/>
<polygon fill="black" stroke="black" points="366.01,-21.5 376.01,-18 366.01,-14.5 366.01,-21.5"/>
</g>
</g>
</svg>
