<?xml version="1.0" encoding="UTF-8" standalone="no"?>
<!DOCTYPE svg PUBLIC "-//W3C//DTD SVG 1.1//EN"
 "http://www.w3.org/Graphics/SVG/1.1/DTD/svg11.dtd">
<!-- Generated by graphviz version 2.46.1 (20210213.1702)
 -->
<!-- Title: TransferPacket Pages: 1 -->
<svg width="474pt" height="98pt"
 viewBox="0.00 0.00 473.87 98.00" xmlns="http://www.w3.org/2000/svg" xmlns:xlink="http://www.w3.org/1999/xlink">
<g id="graph0" class="graph" transform="scale(1 1) rotate(0) translate(4 94)">
<title>TransferPacket</title>
<polygon fill="white" stroke="transparent" points="-4,4 -4,-94 469.87,-94 469.87,4 -4,4"/>
<!-- 0 -->
<!-- name: &quot;TransferPacket&quot;, typeName: &quot;&quot;, id: 0, branchId: 85, recurseId: &#45;1, attributes: 0, notes: &quot;&quot; -->
<g id="node1" class="node">
<title>0</title>
<ellipse fill="none" stroke="black" cx="65.64" cy="-45" rx="65.79" ry="18"/>
<text text-anchor="middle" x="65.64" y="-41.3" font-family="Times New Roman,serif" font-size="14.00">TransferPacket</text>
</g>
<!-- 1 -->
<!-- name: &quot;Server Address&quot;, typeName: &quot;&quot;, id: 1, branchId: 0, recurseId: &#45;1, attributes: 0, notes: &quot;&quot; -->
<g id="node2" class="node">
<title>1</title>
<ellipse fill="none" stroke="black" cx="234.88" cy="-72" rx="67.69" ry="18"/>
<text text-anchor="middle" x="234.88" y="-68.3" font-family="Times New Roman,serif" font-size="14.00">Server Address</text>
</g>
<!-- 0&#45;&gt;1 -->
<g id="edge1" class="edge">
<title>0&#45;&gt;1</title>
<path fill="none" stroke="black" d="M122.8,-54.07C136.91,-56.34 152.19,-58.81 166.77,-61.17"/>
<polygon fill="black" stroke="black" points="166.31,-64.64 176.74,-62.77 167.42,-57.72 166.31,-64.64"/>
</g>
<!-- 3 -->
<!-- name: &quot;Server Port&quot;, typeName: &quot;&quot;, id: 3, branchId: 0, recurseId: &#45;1, attributes: 0, notes: &quot;&quot; -->
<g id="node4" class="node">
<title>3</title>
<ellipse fill="none" stroke="black" cx="234.88" cy="-18" rx="51.99" ry="18"/>
<text text-anchor="middle" x="234.88" y="-14.3" font-family="Times New Roman,serif" font-size="14.00">Server Port</text>
</g>
<!-- 0&#45;&gt;3 -->
<g id="edge3" class="edge">
<title>0&#45;&gt;3</title>
<path fill="none" stroke="black" d="M122.8,-35.93C140.33,-33.1 159.67,-29.98 177.23,-27.15"/>
<polygon fill="black" stroke="black" points="178.03,-30.56 187.34,-25.51 176.91,-23.65 178.03,-30.56"/>
</g>
<!-- 2 -->
<!-- name: &quot;string&quot;, typeName: &quot;&quot;, id: 2, branchId: 0, recurseId: &#45;1, attributes: 512, notes: &quot;&quot; -->
<g id="node3" class="node">
<title>2</title>
<ellipse fill="none" stroke="black" cx="402.17" cy="-72" rx="30.59" ry="18"/>
<text text-anchor="middle" x="402.17" y="-68.3" font-family="Times New Roman,serif" font-size="14.00">string</text>
</g>
<!-- 1&#45;&gt;2 -->
<g id="edge2" class="edge">
<title>1&#45;&gt;2</title>
<path fill="none" stroke="black" d="M302.64,-72C322.37,-72 343.36,-72 360.88,-72"/>
<polygon fill="black" stroke="black" points="361.29,-75.5 371.29,-72 361.29,-68.5 361.29,-75.5"/>
</g>
<!-- 4 -->
<!-- name: &quot;unsigned short&quot;, typeName: &quot;&quot;, id: 4, branchId: 0, recurseId: &#45;1, attributes: 512, notes: &quot;&quot; -->
<g id="node5" class="node">
<title>4</title>
<ellipse fill="none" stroke="black" cx="402.17" cy="-18" rx="63.89" ry="18"/>
<text text-anchor="middle" x="402.17" y="-14.3" font-family="Times New Roman,serif" font-size="14.00">unsigned short</text>
</g>
<!-- 3&#45;&gt;4 -->
<g id="edge4" class="edge">
<title>3&#45;&gt;4</title>
<path fill="none" stroke="black" d="M287.27,-18C300.31,-18 314.57,-18 328.45,-18"/>
<polygon fill="black" stroke="black" points="328.47,-21.5 338.47,-18 328.47,-14.5 328.47,-21.5"/>
</g>
</g>
</svg>
