<?xml version="1.0" encoding="UTF-8" standalone="no"?>
<!DOCTYPE svg PUBLIC "-//W3C//DTD SVG 1.1//EN"
 "http://www.w3.org/Graphics/SVG/1.1/DTD/svg11.dtd">
<!-- Generated by graphviz version 11.0.0 (20240428.1522)
 -->
<!-- Title: TransferPacket Pages: 1 -->
<svg width="481pt" height="152pt"
 viewBox="0.00 0.00 481.19 152.00" xmlns="http://www.w3.org/2000/svg" xmlns:xlink="http://www.w3.org/1999/xlink">
<g id="graph0" class="graph" transform="scale(1 1) rotate(0) translate(4 148)">
<title>TransferPacket</title>
<polygon fill="white" stroke="none" points="-4,4 -4,-148 477.19,-148 477.19,4 -4,4"/>
<!-- 0 -->
<!-- name: &quot;TransferPacket&quot;, typeName: &quot;&quot;, id: 0, branchId: 85, recurseId: &#45;1, attributes: 0, notes: &quot;&quot; -->
<g id="node1" class="node">
<title>0</title>
<ellipse fill="none" stroke="black" cx="67.03" cy="-72" rx="67.03" ry="18"/>
<text text-anchor="middle" x="67.03" y="-66.58" font-family="Times New Roman,serif" font-size="14.00">TransferPacket</text>
</g>
<!-- 1 -->
<!-- name: &quot;Server Address&quot;, typeName: &quot;&quot;, id: 1, branchId: 0, recurseId: &#45;1, attributes: 0, notes: &quot;&quot; -->
<g id="node2" class="node">
<title>1</title>
<ellipse fill="none" stroke="black" cx="238.59" cy="-126" rx="68.53" ry="18"/>
<text text-anchor="middle" x="238.59" y="-120.58" font-family="Times New Roman,serif" font-size="14.00">Server Address</text>
</g>
<!-- 0&#45;&gt;1 -->
<g id="edge1" class="edge">
<title>0&#45;&gt;1</title>
<path fill="none" stroke="black" d="M111.26,-85.77C133.11,-92.73 159.86,-101.24 183.11,-108.65"/>
<polygon fill="black" stroke="black" points="181.82,-111.91 192.41,-111.61 183.95,-105.24 181.82,-111.91"/>
</g>
<!-- 3 -->
<!-- name: &quot;Server Port&quot;, typeName: &quot;&quot;, id: 3, branchId: 0, recurseId: &#45;1, attributes: 0, notes: &quot;&quot; -->
<g id="node4" class="node">
<title>3</title>
<ellipse fill="none" stroke="black" cx="238.59" cy="-72" rx="53.06" ry="18"/>
<text text-anchor="middle" x="238.59" y="-66.58" font-family="Times New Roman,serif" font-size="14.00">Server Port</text>
</g>
<!-- 0&#45;&gt;3 -->
<g id="edge3" class="edge">
<title>0&#45;&gt;3</title>
<path fill="none" stroke="black" d="M134.56,-72C147.42,-72 160.86,-72 173.64,-72"/>
<polygon fill="black" stroke="black" points="173.63,-75.5 183.63,-72 173.63,-68.5 173.63,-75.5"/>
</g>
<!-- 5 -->
<!-- name: &quot;Reload World&quot;, typeName: &quot;&quot;, id: 5, branchId: 0, recurseId: &#45;1, attributes: 0, notes: &quot;&quot; -->
<g id="node6" class="node">
<title>5</title>
<ellipse fill="none" stroke="black" cx="238.59" cy="-18" rx="63.54" ry="18"/>
<text text-anchor="middle" x="238.59" y="-12.57" font-family="Times New Roman,serif" font-size="14.00">Reload World</text>
</g>
<!-- 0&#45;&gt;5 -->
<g id="edge5" class="edge">
<title>0&#45;&gt;5</title>
<path fill="none" stroke="black" d="M111.26,-58.23C133.45,-51.17 160.69,-42.49 184.19,-35.01"/>
<polygon fill="black" stroke="black" points="185.12,-38.38 193.59,-32.01 183,-31.71 185.12,-38.38"/>
</g>
<!-- 2 -->
<!-- name: &quot;string&quot;, typeName: &quot;&quot;, id: 2, branchId: 0, recurseId: &#45;1, attributes: 512, notes: &quot;&quot; -->
<g id="node3" class="node">
<title>2</title>
<ellipse fill="none" stroke="black" cx="408.16" cy="-126" rx="31.1" ry="18"/>
<text text-anchor="middle" x="408.16" y="-120.58" font-family="Times New Roman,serif" font-size="14.00">string</text>
</g>
<!-- 1&#45;&gt;2 -->
<g id="edge2" class="edge">
<title>1&#45;&gt;2</title>
<path fill="none" stroke="black" d="M307.26,-126C326.99,-126 347.95,-126 365.56,-126"/>
<polygon fill="black" stroke="black" points="365.35,-129.5 375.35,-126 365.35,-122.5 365.35,-129.5"/>
</g>
<!-- 4 -->
<!-- name: &quot;unsigned short&quot;, typeName: &quot;&quot;, id: 4, branchId: 0, recurseId: &#45;1, attributes: 512, notes: &quot;&quot; -->
<g id="node5" class="node">
<title>4</title>
<ellipse fill="none" stroke="black" cx="408.16" cy="-72" rx="65.04" ry="18"/>
<text text-anchor="middle" x="408.16" y="-66.58" font-family="Times New Roman,serif" font-size="14.00">unsigned short</text>
</g>
<!-- 3&#45;&gt;4 -->
<g id="edge4" class="edge">
<title>3&#45;&gt;4</title>
<path fill="none" stroke="black" d="M292.15,-72C304.55,-72 318.01,-72 331.21,-72"/>
<polygon fill="black" stroke="black" points="331.19,-75.5 341.19,-72 331.19,-68.5 331.19,-75.5"/>
</g>
<!-- 6 -->
<!-- name: &quot;bool&quot;, typeName: &quot;&quot;, id: 6, branchId: 0, recurseId: &#45;1, attributes: 512, notes: &quot;&quot; -->
<g id="node7" class="node">
<title>6</title>
<ellipse fill="none" stroke="black" cx="408.16" cy="-18" rx="27.61" ry="18"/>
<text text-anchor="middle" x="408.16" y="-12.57" font-family="Times New Roman,serif" font-size="14.00">bool</text>
</g>
<!-- 5&#45;&gt;6 -->
<g id="edge6" class="edge">
<title>5&#45;&gt;6</title>
<path fill="none" stroke="black" d="M302.46,-18C324.87,-18 349.41,-18 369.1,-18"/>
<polygon fill="black" stroke="black" points="368.85,-21.5 378.85,-18 368.85,-14.5 368.85,-21.5"/>
</g>
</g>
</svg>
