<?xml version="1.0" encoding="UTF-8" standalone="no"?>
<!DOCTYPE svg PUBLIC "-//W3C//DTD SVG 1.1//EN"
 "http://www.w3.org/Graphics/SVG/1.1/DTD/svg11.dtd">
<!-- Generated by graphviz version 12.2.1 (20241206.2353)
 -->
<!-- Title: TypedServerNetId&lt;struct CreativeItemNetIdTag,unsigned int,0&gt; Pages: 1 -->
<svg width="929pt" height="44pt"
 viewBox="0.00 0.00 928.58 44.00" xmlns="http://www.w3.org/2000/svg" xmlns:xlink="http://www.w3.org/1999/xlink">
<g id="graph0" class="graph" transform="scale(1 1) rotate(0) translate(4 40)">
<title>TypedServerNetId&lt;struct CreativeItemNetIdTag,unsigned int,0&gt;</title>
<polygon fill="white" stroke="none" points="-4,4 -4,-40 924.58,-40 924.58,4 -4,4"/>
<!-- 20 -->
<!-- name: &quot;TypedServerNetId&lt;struct CreativeItemNetIdTag,unsigned int,0&gt;&quot;, typeName: &quot;&quot;, id: 20, branchId: 0, recurseId: &#45;1, attributes: 0, notes: &quot;&quot; -->
<g id="node1" class="node">
<title>20</title>
<ellipse fill="none" stroke="black" cx="251.98" cy="-18" rx="251.98" ry="18"/>
<text text-anchor="middle" x="251.98" y="-12.95" font-family="Times New Roman,serif" font-size="14.00">TypedServerNetId&lt;struct CreativeItemNetIdTag,unsigned int,0&gt;</text>
</g>
<!-- 21 -->
<!-- name: &quot;Raw Id (32 bit unsigned)&quot;, typeName: &quot;&quot;, id: 21, branchId: 0, recurseId: &#45;1, attributes: 0, notes: &quot;&quot; -->
<g id="node2" class="node">
<title>21</title>
<ellipse fill="none" stroke="black" cx="644.03" cy="-18" rx="104.07" ry="18"/>
<text text-anchor="middle" x="644.03" y="-12.95" font-family="Times New Roman,serif" font-size="14.00">Raw Id (32 bit unsigned)</text>
</g>
<!-- 20&#45;&gt;21 -->
<g id="edge1" class="edge">
<title>20&#45;&gt;21</title>
<path fill="none" stroke="black" d="M504.41,-18C512.44,-18 520.33,-18 528.01,-18"/>
<polygon fill="black" stroke="black" points="528,-21.5 538,-18 528,-14.5 528,-21.5"/>
</g>
<!-- 22 -->
<!-- name: &quot;unsigned varint&quot;, typeName: &quot;&quot;, id: 22, branchId: 0, recurseId: &#45;1, attributes: 512, notes: &quot;&quot; -->
<g id="node3" class="node">
<title>22</title>
<ellipse fill="none" stroke="black" cx="852.34" cy="-18" rx="68.24" ry="18"/>
<text text-anchor="middle" x="852.34" y="-12.95" font-family="Times New Roman,serif" font-size="14.00">unsigned varint</text>
</g>
<!-- 21&#45;&gt;22 -->
<g id="edge2" class="edge">
<title>21&#45;&gt;22</title>
<path fill="none" stroke="black" d="M748.48,-18C756.52,-18 764.56,-18 772.4,-18"/>
<polygon fill="black" stroke="black" points="772.2,-21.5 782.2,-18 772.2,-14.5 772.2,-21.5"/>
</g>
</g>
</svg>
