<?xml version="1.0" encoding="UTF-8" standalone="no"?>
<!DOCTYPE svg PUBLIC "-//W3C//DTD SVG 1.1//EN"
 "http://www.w3.org/Graphics/SVG/1.1/DTD/svg11.dtd">
<!-- Generated by graphviz version 11.0.0 (20240428.1522)
 -->
<!-- Title: TypedClientNetId&lt;struct ItemStackLegacyRequestIdTag,int,0&gt; Pages: 1 -->
<svg width="825pt" height="44pt"
 viewBox="0.00 0.00 825.50 44.00" xmlns="http://www.w3.org/2000/svg" xmlns:xlink="http://www.w3.org/1999/xlink">
<g id="graph0" class="graph" transform="scale(1 1) rotate(0) translate(4 40)">
<title>TypedClientNetId&lt;struct ItemStackLegacyRequestIdTag,int,0&gt;</title>
<polygon fill="white" stroke="none" points="-4,4 -4,-40 821.5,-40 821.5,4 -4,4"/>
<!-- 43 -->
<!-- name: &quot;TypedClientNetId&lt;struct ItemStackLegacyRequestIdTag,int,0&gt;&quot;, typeName: &quot;&quot;, id: 43, branchId: 0, recurseId: &#45;1, attributes: 0, notes: &quot;&quot; -->
<g id="node1" class="node">
<title>43</title>
<ellipse fill="none" stroke="black" cx="247.67" cy="-18" rx="247.67" ry="18"/>
<text text-anchor="middle" x="247.67" y="-12.57" font-family="Times New Roman,serif" font-size="14.00">TypedClientNetId&lt;struct ItemStackLegacyRequestIdTag,int,0&gt;</text>
</g>
<!-- 44 -->
<!-- name: &quot;Raw Id (32 bit signed)&quot;, typeName: &quot;&quot;, id: 44, branchId: 0, recurseId: &#45;1, attributes: 0, notes: &quot;&quot; -->
<g id="node2" class="node">
<title>44</title>
<ellipse fill="none" stroke="black" cx="625.31" cy="-18" rx="93.98" ry="18"/>
<text text-anchor="middle" x="625.31" y="-12.57" font-family="Times New Roman,serif" font-size="14.00">Raw Id (32 bit signed)</text>
</g>
<!-- 43&#45;&gt;44 -->
<g id="edge1" class="edge">
<title>43&#45;&gt;44</title>
<path fill="none" stroke="black" d="M495.83,-18C504.05,-18 512.11,-18 519.93,-18"/>
<polygon fill="black" stroke="black" points="519.69,-21.5 529.69,-18 519.69,-14.5 519.69,-21.5"/>
</g>
<!-- 45 -->
<!-- name: &quot;varint&quot;, typeName: &quot;&quot;, id: 45, branchId: 0, recurseId: &#45;1, attributes: 512, notes: &quot;&quot; -->
<g id="node3" class="node">
<title>45</title>
<ellipse fill="none" stroke="black" cx="786.4" cy="-18" rx="31.1" ry="18"/>
<text text-anchor="middle" x="786.4" y="-12.57" font-family="Times New Roman,serif" font-size="14.00">varint</text>
</g>
<!-- 44&#45;&gt;45 -->
<g id="edge2" class="edge">
<title>44&#45;&gt;45</title>
<path fill="none" stroke="black" d="M719.77,-18C728.12,-18 736.25,-18 743.79,-18"/>
<polygon fill="black" stroke="black" points="743.58,-21.5 753.58,-18 743.58,-14.5 743.58,-21.5"/>
</g>
</g>
</svg>
