<?xml version="1.0" encoding="UTF-8" standalone="no"?>
<!DOCTYPE svg PUBLIC "-//W3C//DTD SVG 1.1//EN"
 "http://www.w3.org/Graphics/SVG/1.1/DTD/svg11.dtd">
<!-- Generated by graphviz version 2.46.1 (20210213.1702)
 -->
<!-- Title: TypedServerNetId&lt;struct RecipeNetIdTag,unsigned int,0&gt; Pages: 1 -->
<svg width="863pt" height="44pt"
 viewBox="0.00 0.00 862.53 44.00" xmlns="http://www.w3.org/2000/svg" xmlns:xlink="http://www.w3.org/1999/xlink">
<g id="graph0" class="graph" transform="scale(1 1) rotate(0) translate(4 40)">
<title>TypedServerNetId&lt;struct RecipeNetIdTag,unsigned int,0&gt;</title>
<polygon fill="white" stroke="transparent" points="-4,4 -4,-40 858.53,-40 858.53,4 -4,4"/>
<!-- 55 -->
<!-- name: &quot;TypedServerNetId&lt;struct RecipeNetIdTag,unsigned int,0&gt;&quot;, typeName: &quot;&quot;, id: 55, branchId: 0, recurseId: &#45;1, attributes: 0, notes: &quot;&quot; -->
<g id="node1" class="node">
<title>55</title>
<ellipse fill="none" stroke="black" cx="224.88" cy="-18" rx="224.76" ry="18"/>
<text text-anchor="middle" x="224.88" y="-14.3" font-family="Times New Roman,serif" font-size="14.00">TypedServerNetId&lt;struct RecipeNetIdTag,unsigned int,0&gt;</text>
</g>
<!-- 56 -->
<!-- name: &quot;Raw Id (32 bit unsigned)&quot;, typeName: &quot;&quot;, id: 56, branchId: 0, recurseId: &#45;1, attributes: 0, notes: &quot;&quot; -->
<g id="node2" class="node">
<title>56</title>
<ellipse fill="none" stroke="black" cx="586.5" cy="-18" rx="100.98" ry="18"/>
<text text-anchor="middle" x="586.5" y="-14.3" font-family="Times New Roman,serif" font-size="14.00">Raw Id (32 bit unsigned)</text>
</g>
<!-- 55&#45;&gt;56 -->
<g id="edge1" class="edge">
<title>55&#45;&gt;56</title>
<path fill="none" stroke="black" d="M449.8,-18C458.52,-18 467.09,-18 475.43,-18"/>
<polygon fill="black" stroke="black" points="475.47,-21.5 485.47,-18 475.47,-14.5 475.47,-21.5"/>
</g>
<!-- 57 -->
<!-- name: &quot;unsigned varint&quot;, typeName: &quot;&quot;, id: 57, branchId: 0, recurseId: &#45;1, attributes: 512, notes: &quot;&quot; -->
<g id="node3" class="node">
<title>57</title>
<ellipse fill="none" stroke="black" cx="788.89" cy="-18" rx="65.79" ry="18"/>
<text text-anchor="middle" x="788.89" y="-14.3" font-family="Times New Roman,serif" font-size="14.00">unsigned varint</text>
</g>
<!-- 56&#45;&gt;57 -->
<g id="edge2" class="edge">
<title>56&#45;&gt;57</title>
<path fill="none" stroke="black" d="M687.4,-18C696.04,-18 704.69,-18 713.08,-18"/>
<polygon fill="black" stroke="black" points="713.17,-21.5 723.17,-18 713.17,-14.5 713.17,-21.5"/>
</g>
</g>
</svg>
