<?xml version="1.0" encoding="UTF-8" standalone="no"?>
<!DOCTYPE svg PUBLIC "-//W3C//DTD SVG 1.1//EN"
 "http://www.w3.org/Graphics/SVG/1.1/DTD/svg11.dtd">
<!-- Generated by graphviz version 12.2.1 (20241206.2353)
 -->
<!-- Title: TypedClientNetId&lt;struct ItemStackLegacyRequestIdTag,int,0&gt; Pages: 1 -->
<svg width="829pt" height="44pt"
 viewBox="0.00 0.00 829.29 44.00" xmlns="http://www.w3.org/2000/svg" xmlns:xlink="http://www.w3.org/1999/xlink">
<g id="graph0" class="graph" transform="scale(1 1) rotate(0) translate(4 40)">
<title>TypedClientNetId&lt;struct ItemStackLegacyRequestIdTag,int,0&gt;</title>
<polygon fill="white" stroke="none" points="-4,4 -4,-40 825.29,-40 825.29,4 -4,4"/>
<!-- 43 -->
<!-- name: &quot;TypedClientNetId&lt;struct ItemStackLegacyRequestIdTag,int,0&gt;&quot;, typeName: &quot;&quot;, id: 43, branchId: 0, recurseId: &#45;1, attributes: 0, notes: &quot;&quot; -->
<g id="node1" class="node">
<title>43</title>
<ellipse fill="none" stroke="black" cx="247.37" cy="-18" rx="247.37" ry="18"/>
<text text-anchor="middle" x="247.37" y="-12.95" font-family="Times New Roman,serif" font-size="14.00">TypedClientNetId&lt;struct ItemStackLegacyRequestIdTag,int,0&gt;</text>
</g>
<!-- 44 -->
<!-- name: &quot;Raw Id (32 bit signed)&quot;, typeName: &quot;&quot;, id: 44, branchId: 0, recurseId: &#45;1, attributes: 0, notes: &quot;&quot; -->
<g id="node2" class="node">
<title>44</title>
<ellipse fill="none" stroke="black" cx="625.6" cy="-18" rx="94.86" ry="18"/>
<text text-anchor="middle" x="625.6" y="-12.95" font-family="Times New Roman,serif" font-size="14.00">Raw Id (32 bit signed)</text>
</g>
<!-- 43&#45;&gt;44 -->
<g id="edge1" class="edge">
<title>43&#45;&gt;44</title>
<path fill="none" stroke="black" d="M495.13,-18C503.22,-18 511.15,-18 518.86,-18"/>
<polygon fill="black" stroke="black" points="518.85,-21.5 528.85,-18 518.85,-14.5 518.85,-21.5"/>
</g>
<!-- 45 -->
<!-- name: &quot;varint&quot;, typeName: &quot;&quot;, id: 45, branchId: 0, recurseId: &#45;1, attributes: 512, notes: &quot;&quot; -->
<g id="node3" class="node">
<title>45</title>
<ellipse fill="none" stroke="black" cx="788.87" cy="-18" rx="32.41" ry="18"/>
<text text-anchor="middle" x="788.87" y="-12.95" font-family="Times New Roman,serif" font-size="14.00">varint</text>
</g>
<!-- 44&#45;&gt;45 -->
<g id="edge2" class="edge">
<title>44&#45;&gt;45</title>
<path fill="none" stroke="black" d="M720.88,-18C729.2,-18 737.33,-18 744.88,-18"/>
<polygon fill="black" stroke="black" points="744.72,-21.5 754.72,-18 744.72,-14.5 744.72,-21.5"/>
</g>
</g>
</svg>
