<?xml version="1.0" encoding="UTF-8" standalone="no"?>
<!DOCTYPE svg PUBLIC "-//W3C//DTD SVG 1.1//EN"
 "http://www.w3.org/Graphics/SVG/1.1/DTD/svg11.dtd">
<!-- Generated by graphviz version 11.0.0 (20240428.1522)
 -->
<!-- Title: TypedServerNetId&lt;struct RecipeNetIdTag,unsigned int,0&gt; Pages: 1 -->
<svg width="878pt" height="44pt"
 viewBox="0.00 0.00 878.39 44.00" xmlns="http://www.w3.org/2000/svg" xmlns:xlink="http://www.w3.org/1999/xlink">
<g id="graph0" class="graph" transform="scale(1 1) rotate(0) translate(4 40)">
<title>TypedServerNetId&lt;struct RecipeNetIdTag,unsigned int,0&gt;</title>
<polygon fill="white" stroke="none" points="-4,4 -4,-40 874.39,-40 874.39,4 -4,4"/>
<!-- 70 -->
<!-- name: &quot;TypedServerNetId&lt;struct RecipeNetIdTag,unsigned int,0&gt;&quot;, typeName: &quot;&quot;, id: 70, branchId: 0, recurseId: &#45;1, attributes: 0, notes: &quot;&quot; -->
<g id="node1" class="node">
<title>70</title>
<ellipse fill="none" stroke="black" cx="229.7" cy="-18" rx="229.7" ry="18"/>
<text text-anchor="middle" x="229.7" y="-12.57" font-family="Times New Roman,serif" font-size="14.00">TypedServerNetId&lt;struct RecipeNetIdTag,unsigned int,0&gt;</text>
</g>
<!-- 71 -->
<!-- name: &quot;Raw Id (32 bit unsigned)&quot;, typeName: &quot;&quot;, id: 71, branchId: 0, recurseId: &#45;1, attributes: 0, notes: &quot;&quot; -->
<g id="node2" class="node">
<title>71</title>
<ellipse fill="none" stroke="black" cx="598.37" cy="-18" rx="102.96" ry="18"/>
<text text-anchor="middle" x="598.37" y="-12.57" font-family="Times New Roman,serif" font-size="14.00">Raw Id (32 bit unsigned)</text>
</g>
<!-- 70&#45;&gt;71 -->
<g id="edge1" class="edge">
<title>70&#45;&gt;71</title>
<path fill="none" stroke="black" d="M459.79,-18C467.96,-18 476,-18 483.84,-18"/>
<polygon fill="black" stroke="black" points="483.66,-21.5 493.66,-18 483.66,-14.5 483.66,-21.5"/>
</g>
<!-- 72 -->
<!-- name: &quot;unsigned varint&quot;, typeName: &quot;&quot;, id: 72, branchId: 0, recurseId: &#45;1, attributes: 512, notes: &quot;&quot; -->
<g id="node3" class="node">
<title>72</title>
<ellipse fill="none" stroke="black" cx="803.86" cy="-18" rx="66.53" ry="18"/>
<text text-anchor="middle" x="803.86" y="-12.57" font-family="Times New Roman,serif" font-size="14.00">unsigned varint</text>
</g>
<!-- 71&#45;&gt;72 -->
<g id="edge2" class="edge">
<title>71&#45;&gt;72</title>
<path fill="none" stroke="black" d="M701.71,-18C709.76,-18 717.8,-18 725.63,-18"/>
<polygon fill="black" stroke="black" points="725.43,-21.5 735.43,-18 725.43,-14.5 725.43,-21.5"/>
</g>
</g>
</svg>
