<?xml version="1.0" encoding="UTF-8" standalone="no"?>
<!DOCTYPE svg PUBLIC "-//W3C//DTD SVG 1.1//EN"
 "http://www.w3.org/Graphics/SVG/1.1/DTD/svg11.dtd">
<!-- Generated by graphviz version 11.0.0 (20240428.1522)
 -->
<!-- Title: TypedServerNetId&lt;struct ItemStackNetIdTag,int,0&gt; Pages: 1 -->
<svg width="742pt" height="44pt"
 viewBox="0.00 0.00 741.67 44.00" xmlns="http://www.w3.org/2000/svg" xmlns:xlink="http://www.w3.org/1999/xlink">
<g id="graph0" class="graph" transform="scale(1 1) rotate(0) translate(4 40)">
<title>TypedServerNetId&lt;struct ItemStackNetIdTag,int,0&gt;</title>
<polygon fill="white" stroke="none" points="-4,4 -4,-40 737.67,-40 737.67,4 -4,4"/>
<!-- 36 -->
<!-- name: &quot;TypedServerNetId&lt;struct ItemStackNetIdTag,int,0&gt;&quot;, typeName: &quot;&quot;, id: 36, branchId: 0, recurseId: &#45;1, attributes: 0, notes: &quot;&quot; -->
<g id="node1" class="node">
<title>36</title>
<ellipse fill="none" stroke="black" cx="205.75" cy="-18" rx="205.75" ry="18"/>
<text text-anchor="middle" x="205.75" y="-12.57" font-family="Times New Roman,serif" font-size="14.00">TypedServerNetId&lt;struct ItemStackNetIdTag,int,0&gt;</text>
</g>
<!-- 37 -->
<!-- name: &quot;Raw Id (32 bit signed)&quot;, typeName: &quot;&quot;, id: 37, branchId: 0, recurseId: &#45;1, attributes: 0, notes: &quot;&quot; -->
<g id="node2" class="node">
<title>37</title>
<ellipse fill="none" stroke="black" cx="541.48" cy="-18" rx="93.98" ry="18"/>
<text text-anchor="middle" x="541.48" y="-12.57" font-family="Times New Roman,serif" font-size="14.00">Raw Id (32 bit signed)</text>
</g>
<!-- 36&#45;&gt;37 -->
<g id="edge1" class="edge">
<title>36&#45;&gt;37</title>
<path fill="none" stroke="black" d="M411.93,-18C420.07,-18 428.07,-18 435.87,-18"/>
<polygon fill="black" stroke="black" points="435.61,-21.5 445.61,-18 435.61,-14.5 435.61,-21.5"/>
</g>
<!-- 38 -->
<!-- name: &quot;varint&quot;, typeName: &quot;&quot;, id: 38, branchId: 0, recurseId: &#45;1, attributes: 512, notes: &quot;&quot; -->
<g id="node3" class="node">
<title>38</title>
<ellipse fill="none" stroke="black" cx="702.56" cy="-18" rx="31.1" ry="18"/>
<text text-anchor="middle" x="702.56" y="-12.57" font-family="Times New Roman,serif" font-size="14.00">varint</text>
</g>
<!-- 37&#45;&gt;38 -->
<g id="edge2" class="edge">
<title>37&#45;&gt;38</title>
<path fill="none" stroke="black" d="M635.94,-18C644.29,-18 652.42,-18 659.96,-18"/>
<polygon fill="black" stroke="black" points="659.75,-21.5 669.75,-18 659.75,-14.5 659.75,-21.5"/>
</g>
</g>
</svg>
