<?xml version="1.0" encoding="UTF-8" standalone="no"?>
<!DOCTYPE svg PUBLIC "-//W3C//DTD SVG 1.1//EN"
 "http://www.w3.org/Graphics/SVG/1.1/DTD/svg11.dtd">
<!-- Generated by graphviz version 2.46.1 (20210213.1702)
 -->
<!-- Title: TypedClientNetId&lt;struct ItemStackLegacyRequestIdTag,int,0&gt; Pages: 1 -->
<svg width="811pt" height="44pt"
 viewBox="0.00 0.00 810.54 44.00" xmlns="http://www.w3.org/2000/svg" xmlns:xlink="http://www.w3.org/1999/xlink">
<g id="graph0" class="graph" transform="scale(1 1) rotate(0) translate(4 40)">
<title>TypedClientNetId&lt;struct ItemStackLegacyRequestIdTag,int,0&gt;</title>
<polygon fill="white" stroke="transparent" points="-4,4 -4,-40 806.54,-40 806.54,4 -4,4"/>
<!-- 34 -->
<!-- name: &quot;TypedClientNetId&lt;struct ItemStackLegacyRequestIdTag,int,0&gt;&quot;, typeName: &quot;&quot;, id: 34, branchId: 0, recurseId: &#45;1, attributes: 0, notes: &quot;&quot; -->
<g id="node1" class="node">
<title>34</title>
<ellipse fill="none" stroke="black" cx="242.43" cy="-18" rx="242.36" ry="18"/>
<text text-anchor="middle" x="242.43" y="-14.3" font-family="Times New Roman,serif" font-size="14.00">TypedClientNetId&lt;struct ItemStackLegacyRequestIdTag,int,0&gt;</text>
</g>
<!-- 35 -->
<!-- name: &quot;Raw Id (32 bit signed)&quot;, typeName: &quot;&quot;, id: 35, branchId: 0, recurseId: &#45;1, attributes: 0, notes: &quot;&quot; -->
<g id="node2" class="node">
<title>35</title>
<ellipse fill="none" stroke="black" cx="613.15" cy="-18" rx="92.08" ry="18"/>
<text text-anchor="middle" x="613.15" y="-14.3" font-family="Times New Roman,serif" font-size="14.00">Raw Id (32 bit signed)</text>
</g>
<!-- 34&#45;&gt;35 -->
<g id="edge1" class="edge">
<title>34&#45;&gt;35</title>
<path fill="none" stroke="black" d="M485,-18C493.79,-18 502.4,-18 510.72,-18"/>
<polygon fill="black" stroke="black" points="510.72,-21.5 520.72,-18 510.72,-14.5 510.72,-21.5"/>
</g>
<!-- 36 -->
<!-- name: &quot;varint&quot;, typeName: &quot;&quot;, id: 36, branchId: 0, recurseId: &#45;1, attributes: 512, notes: &quot;&quot; -->
<g id="node3" class="node">
<title>36</title>
<ellipse fill="none" stroke="black" cx="771.99" cy="-18" rx="30.59" ry="18"/>
<text text-anchor="middle" x="771.99" y="-14.3" font-family="Times New Roman,serif" font-size="14.00">varint</text>
</g>
<!-- 35&#45;&gt;36 -->
<g id="edge2" class="edge">
<title>35&#45;&gt;36</title>
<path fill="none" stroke="black" d="M705.84,-18C714.59,-18 723.12,-18 730.97,-18"/>
<polygon fill="black" stroke="black" points="731.21,-21.5 741.21,-18 731.21,-14.5 731.21,-21.5"/>
</g>
</g>
</svg>
