<?xml version="1.0" encoding="UTF-8" standalone="no"?>
<!DOCTYPE svg PUBLIC "-//W3C//DTD SVG 1.1//EN"
 "http://www.w3.org/Graphics/SVG/1.1/DTD/svg11.dtd">
<!-- Generated by graphviz version 2.46.1 (20210213.1702)
 -->
<!-- Title: UnlockedRecipesPacket Pages: 1 -->
<svg width="923pt" height="152pt"
 viewBox="0.00 0.00 922.83 152.00" xmlns="http://www.w3.org/2000/svg" xmlns:xlink="http://www.w3.org/1999/xlink">
<g id="graph0" class="graph" transform="scale(1 1) rotate(0) translate(4 148)">
<title>UnlockedRecipesPacket</title>
<polygon fill="white" stroke="transparent" points="-4,4 -4,-148 918.83,-148 918.83,4 -4,4"/>
<!-- 0 -->
<!-- name: &quot;UnlockedRecipesPacket&quot;, typeName: &quot;&quot;, id: 0, branchId: 199, recurseId: &#45;1, attributes: 0, notes: &quot;&quot; -->
<g id="node1" class="node">
<title>0</title>
<ellipse fill="none" stroke="black" cx="99.44" cy="-95" rx="99.38" ry="18"/>
<text text-anchor="middle" x="99.44" y="-91.3" font-family="Times New Roman,serif" font-size="14.00">UnlockedRecipesPacket</text>
</g>
<!-- 1 -->
<!-- name: &quot;Packet Type&quot;, typeName: &quot;&quot;, id: 1, branchId: 0, recurseId: &#45;1, attributes: 0, notes: &quot;&quot; -->
<g id="node2" class="node">
<title>1</title>
<ellipse fill="none" stroke="black" cx="691" cy="-124" rx="56.59" ry="18"/>
<text text-anchor="middle" x="691" y="-120.3" font-family="Times New Roman,serif" font-size="14.00">Packet Type</text>
</g>
<!-- 0&#45;&gt;1 -->
<g id="edge1" class="edge">
<title>0&#45;&gt;1</title>
<path fill="none" stroke="black" d="M195.49,-99.68C316.05,-105.61 520.77,-115.68 624.94,-120.8"/>
<polygon fill="black" stroke="black" points="624.84,-124.3 635,-121.29 625.19,-117.31 624.84,-124.3"/>
</g>
<!-- 3 -->
<!-- name: &quot;Unlocked Recipes List&quot;, typeName: &quot;&quot;, id: 3, branchId: 0, recurseId: &#45;1, attributes: 8, notes: &quot;&quot; -->
<g id="node4" class="node">
<title>3</title>
<ellipse fill="none" stroke="black" cx="328.47" cy="-72" rx="93.68" ry="18"/>
<text text-anchor="middle" x="328.47" y="-68.3" font-family="Times New Roman,serif" font-size="14.00">Unlocked Recipes List</text>
</g>
<!-- 0&#45;&gt;3 -->
<g id="edge3" class="edge">
<title>0&#45;&gt;3</title>
<path fill="none" stroke="black" d="M186.6,-86.27C202.34,-84.68 218.83,-83.01 234.76,-81.39"/>
<polygon fill="black" stroke="black" points="235.53,-84.83 245.13,-80.34 234.82,-77.87 235.53,-84.83"/>
</g>
<!-- 2 -->
<!-- name: &quot;unsigned int&quot;, typeName: &quot;&quot;, id: 2, branchId: 0, recurseId: &#45;1, attributes: 512, notes: &quot;&quot; -->
<g id="node3" class="node">
<title>2</title>
<ellipse fill="none" stroke="black" cx="849.19" cy="-126" rx="53.89" ry="18"/>
<text text-anchor="middle" x="849.19" y="-122.3" font-family="Times New Roman,serif" font-size="14.00">unsigned int</text>
</g>
<!-- 1&#45;&gt;2 -->
<g id="edge2" class="edge">
<title>1&#45;&gt;2</title>
<path fill="none" stroke="black" d="M747.5,-124.71C759.63,-124.87 772.55,-125.03 784.95,-125.19"/>
<polygon fill="black" stroke="black" points="785.17,-128.69 795.22,-125.32 785.26,-121.69 785.17,-128.69"/>
</g>
<!-- 4 -->
<!-- name: &quot;Array Size&quot;, typeName: &quot;&quot;, id: 4, branchId: 0, recurseId: &#45;1, attributes: 0, notes: &quot;&quot; -->
<g id="node5" class="node">
<title>4</title>
<ellipse fill="none" stroke="black" cx="528.26" cy="-72" rx="48.99" ry="18"/>
<text text-anchor="middle" x="528.26" y="-68.3" font-family="Times New Roman,serif" font-size="14.00">Array Size</text>
</g>
<!-- 3&#45;&gt;4 -->
<g id="edge4" class="edge">
<title>3&#45;&gt;4</title>
<path fill="none" stroke="black" d="M422.29,-72C438.2,-72 454.32,-72 468.99,-72"/>
<polygon fill="black" stroke="black" points="469.4,-75.5 479.4,-72 469.4,-68.5 469.4,-75.5"/>
</g>
<!-- 6 -->
<!-- name: &quot;example element&quot;, typeName: &quot;&quot;, id: 6, branchId: 0, recurseId: &#45;1, attributes: 16, notes: &quot;&quot; -->
<g id="node7" class="node">
<title>6</title>
<ellipse fill="none" stroke="black" stroke-dasharray="1,5" cx="528.26" cy="-18" rx="70.39" ry="18"/>
<text text-anchor="middle" x="528.26" y="-14.3" font-family="Times New Roman,serif" font-size="14.00">example element</text>
</g>
<!-- 3&#45;&gt;6 -->
<g id="edge6" class="edge">
<title>3&#45;&gt;6</title>
<path fill="none" stroke="black" d="M383.26,-57.32C410.05,-50 442.47,-41.15 469.76,-33.7"/>
<polygon fill="black" stroke="black" points="470.83,-37.03 479.56,-31.02 468.99,-30.28 470.83,-37.03"/>
</g>
<!-- 5 -->
<!-- name: &quot;unsigned varint&quot;, typeName: &quot;&quot;, id: 5, branchId: 0, recurseId: &#45;1, attributes: 512, notes: &quot;&quot; -->
<g id="node6" class="node">
<title>5</title>
<ellipse fill="none" stroke="black" cx="849.19" cy="-72" rx="65.79" ry="18"/>
<text text-anchor="middle" x="849.19" y="-68.3" font-family="Times New Roman,serif" font-size="14.00">unsigned varint</text>
</g>
<!-- 4&#45;&gt;5 -->
<g id="edge5" class="edge">
<title>4&#45;&gt;5</title>
<path fill="none" stroke="black" d="M577.01,-72C628.91,-72 712.56,-72 773.24,-72"/>
<polygon fill="black" stroke="black" points="773.53,-75.5 783.53,-72 773.53,-68.5 773.53,-75.5"/>
</g>
<!-- 7 -->
<!-- name: &quot;Recipe&quot;, typeName: &quot;&quot;, id: 7, branchId: 0, recurseId: &#45;1, attributes: 0, notes: &quot;&quot; -->
<g id="node8" class="node">
<title>7</title>
<ellipse fill="none" stroke="black" cx="691" cy="-18" rx="36.29" ry="18"/>
<text text-anchor="middle" x="691" y="-14.3" font-family="Times New Roman,serif" font-size="14.00">Recipe</text>
</g>
<!-- 6&#45;&gt;7 -->
<g id="edge7" class="edge">
<title>6&#45;&gt;7</title>
<path fill="none" stroke="black" d="M598.83,-18C614.11,-18 629.92,-18 644,-18"/>
<polygon fill="black" stroke="black" points="644.39,-21.5 654.39,-18 644.39,-14.5 644.39,-21.5"/>
</g>
<!-- 8 -->
<!-- name: &quot;string&quot;, typeName: &quot;&quot;, id: 8, branchId: 0, recurseId: &#45;1, attributes: 512, notes: &quot;&quot; -->
<g id="node9" class="node">
<title>8</title>
<ellipse fill="none" stroke="black" cx="849.19" cy="-18" rx="30.59" ry="18"/>
<text text-anchor="middle" x="849.19" y="-14.3" font-family="Times New Roman,serif" font-size="14.00">string</text>
</g>
<!-- 7&#45;&gt;8 -->
<g id="edge8" class="edge">
<title>7&#45;&gt;8</title>
<path fill="none" stroke="black" d="M727.44,-18C751.46,-18 783.25,-18 808.18,-18"/>
<polygon fill="black" stroke="black" points="808.4,-21.5 818.4,-18 808.4,-14.5 808.4,-21.5"/>
</g>
</g>
</svg>
