<?xml version="1.0" encoding="UTF-8" standalone="no"?>
<!DOCTYPE svg PUBLIC "-//W3C//DTD SVG 1.1//EN"
 "http://www.w3.org/Graphics/SVG/1.1/DTD/svg11.dtd">
<!-- Generated by graphviz version 12.2.0 (20241103.1931)
 -->
<!-- Title: UnlockedRecipesPacket Pages: 1 -->
<svg width="942pt" height="152pt"
 viewBox="0.00 0.00 941.89 152.00" xmlns="http://www.w3.org/2000/svg" xmlns:xlink="http://www.w3.org/1999/xlink">
<g id="graph0" class="graph" transform="scale(1 1) rotate(0) translate(4 148)">
<title>UnlockedRecipesPacket</title>
<polygon fill="white" stroke="none" points="-4,4 -4,-148 937.89,-148 937.89,4 -4,4"/>
<!-- 0 -->
<!-- name: &quot;UnlockedRecipesPacket&quot;, typeName: &quot;&quot;, id: 0, branchId: 199, recurseId: &#45;1, attributes: 0, notes: &quot;&quot; -->
<g id="node1" class="node">
<title>0</title>
<ellipse fill="none" stroke="black" cx="100.48" cy="-95" rx="100.48" ry="18"/>
<text text-anchor="middle" x="100.48" y="-89.95" font-family="Times New Roman,serif" font-size="14.00">UnlockedRecipesPacket</text>
</g>
<!-- 1 -->
<!-- name: &quot;Packet Type&quot;, typeName: &quot;&quot;, id: 1, branchId: 0, recurseId: &#45;1, attributes: 0, notes: &quot;&quot; -->
<g id="node2" class="node">
<title>1</title>
<ellipse fill="none" stroke="black" cx="705.45" cy="-124" rx="55.96" ry="18"/>
<text text-anchor="middle" x="705.45" y="-118.95" font-family="Times New Roman,serif" font-size="14.00">Packet Type</text>
</g>
<!-- 0&#45;&gt;1 -->
<g id="edge1" class="edge">
<title>0&#45;&gt;1</title>
<path fill="none" stroke="black" d="M198.03,-99.64C321.45,-105.58 531.89,-115.7 638.45,-120.83"/>
<polygon fill="black" stroke="black" points="638.01,-124.31 648.16,-121.29 638.34,-117.32 638.01,-124.31"/>
</g>
<!-- 3 -->
<!-- name: &quot;Unlocked Recipes List&quot;, typeName: &quot;&quot;, id: 3, branchId: 0, recurseId: &#45;1, attributes: 8, notes: &quot;&quot; -->
<g id="node4" class="node">
<title>3</title>
<ellipse fill="none" stroke="black" cx="332.34" cy="-72" rx="95.37" ry="18"/>
<text text-anchor="middle" x="332.34" y="-66.95" font-family="Times New Roman,serif" font-size="14.00">Unlocked Recipes List</text>
</g>
<!-- 0&#45;&gt;3 -->
<g id="edge3" class="edge">
<title>0&#45;&gt;3</title>
<path fill="none" stroke="black" d="M189.04,-86.24C204.35,-84.71 220.35,-83.11 235.87,-81.55"/>
<polygon fill="black" stroke="black" points="235.95,-85.06 245.56,-80.58 235.26,-78.1 235.95,-85.06"/>
</g>
<!-- 2 -->
<!-- name: &quot;unsigned int&quot;, typeName: &quot;&quot;, id: 2, branchId: 0, recurseId: &#45;1, attributes: 512, notes: &quot;&quot; -->
<g id="node3" class="node">
<title>2</title>
<ellipse fill="none" stroke="black" cx="865.65" cy="-126" rx="56.47" ry="18"/>
<text text-anchor="middle" x="865.65" y="-120.95" font-family="Times New Roman,serif" font-size="14.00">unsigned int</text>
</g>
<!-- 1&#45;&gt;2 -->
<g id="edge2" class="edge">
<title>1&#45;&gt;2</title>
<path fill="none" stroke="black" d="M761.78,-124.7C773.33,-124.85 785.62,-125 797.54,-125.15"/>
<polygon fill="black" stroke="black" points="797.26,-128.65 807.3,-125.27 797.35,-121.65 797.26,-128.65"/>
</g>
<!-- 4 -->
<!-- name: &quot;List Size&quot;, typeName: &quot;&quot;, id: 4, branchId: 0, recurseId: &#45;1, attributes: 0, notes: &quot;&quot; -->
<g id="node5" class="node">
<title>4</title>
<ellipse fill="none" stroke="black" cx="538.6" cy="-72" rx="43.67" ry="18"/>
<text text-anchor="middle" x="538.6" y="-66.95" font-family="Times New Roman,serif" font-size="14.00">List Size</text>
</g>
<!-- 3&#45;&gt;4 -->
<g id="edge4" class="edge">
<title>3&#45;&gt;4</title>
<path fill="none" stroke="black" d="M427.99,-72C446.9,-72 466.15,-72 483.14,-72"/>
<polygon fill="black" stroke="black" points="482.99,-75.5 492.99,-72 482.99,-68.5 482.99,-75.5"/>
</g>
<!-- 6 -->
<!-- name: &quot;example element&quot;, typeName: &quot;&quot;, id: 6, branchId: 0, recurseId: &#45;1, attributes: 16, notes: &quot;&quot; -->
<g id="node7" class="node">
<title>6</title>
<ellipse fill="none" stroke="black" stroke-dasharray="1,5" cx="538.6" cy="-18" rx="74.89" ry="18"/>
<text text-anchor="middle" x="538.6" y="-12.95" font-family="Times New Roman,serif" font-size="14.00">example element</text>
</g>
<!-- 3&#45;&gt;6 -->
<g id="edge6" class="edge">
<title>3&#45;&gt;6</title>
<path fill="none" stroke="black" d="M389.42,-57.17C416.2,-50.09 448.33,-41.6 475.81,-34.34"/>
<polygon fill="black" stroke="black" points="476.64,-37.74 485.41,-31.8 474.85,-30.97 476.64,-37.74"/>
</g>
<!-- 5 -->
<!-- name: &quot;unsigned varint&quot;, typeName: &quot;&quot;, id: 5, branchId: 0, recurseId: &#45;1, attributes: 512, notes: &quot;&quot; -->
<g id="node6" class="node">
<title>5</title>
<ellipse fill="none" stroke="black" cx="865.65" cy="-72" rx="68.24" ry="18"/>
<text text-anchor="middle" x="865.65" y="-66.95" font-family="Times New Roman,serif" font-size="14.00">unsigned varint</text>
</g>
<!-- 4&#45;&gt;5 -->
<g id="edge5" class="edge">
<title>4&#45;&gt;5</title>
<path fill="none" stroke="black" d="M582.76,-72C634.41,-72 721.89,-72 785.72,-72"/>
<polygon fill="black" stroke="black" points="785.44,-75.5 795.44,-72 785.44,-68.5 785.44,-75.5"/>
</g>
<!-- 7 -->
<!-- name: &quot;Recipe&quot;, typeName: &quot;&quot;, id: 7, branchId: 0, recurseId: &#45;1, attributes: 0, notes: &quot;&quot; -->
<g id="node8" class="node">
<title>7</title>
<ellipse fill="none" stroke="black" cx="705.45" cy="-18" rx="36.51" ry="18"/>
<text text-anchor="middle" x="705.45" y="-12.95" font-family="Times New Roman,serif" font-size="14.00">Recipe</text>
</g>
<!-- 6&#45;&gt;7 -->
<g id="edge7" class="edge">
<title>6&#45;&gt;7</title>
<path fill="none" stroke="black" d="M613.83,-18C628.63,-18 643.79,-18 657.38,-18"/>
<polygon fill="black" stroke="black" points="657.34,-21.5 667.34,-18 657.34,-14.5 657.34,-21.5"/>
</g>
<!-- 8 -->
<!-- name: &quot;string&quot;, typeName: &quot;&quot;, id: 8, branchId: 0, recurseId: &#45;1, attributes: 512, notes: &quot;&quot; -->
<g id="node9" class="node">
<title>8</title>
<ellipse fill="none" stroke="black" cx="865.65" cy="-18" rx="31.9" ry="18"/>
<text text-anchor="middle" x="865.65" y="-12.95" font-family="Times New Roman,serif" font-size="14.00">string</text>
</g>
<!-- 7&#45;&gt;8 -->
<g id="edge8" class="edge">
<title>7&#45;&gt;8</title>
<path fill="none" stroke="black" d="M742.35,-18C766.04,-18 797.18,-18 822.11,-18"/>
<polygon fill="black" stroke="black" points="821.92,-21.5 831.92,-18 821.92,-14.5 821.92,-21.5"/>
</g>
</g>
</svg>
