<?xml version="1.0" encoding="UTF-8" standalone="no"?>
<!DOCTYPE svg PUBLIC "-//W3C//DTD SVG 1.1//EN"
 "http://www.w3.org/Graphics/SVG/1.1/DTD/svg11.dtd">
<!-- Generated by graphviz version 14.1.5 (20260411.2331)
 -->
<!-- Title: UpdateEnvironmentAttributesData Pages: 1 -->
<svg width="1188pt" height="634pt"
 viewBox="0.00 0.00 1188.00 634.00" xmlns="http://www.w3.org/2000/svg" xmlns:xlink="http://www.w3.org/1999/xlink">
<g id="graph0" class="graph" transform="scale(1 1) rotate(0) translate(4 630)">
<title>UpdateEnvironmentAttributesData</title>
<polygon fill="white" stroke="none" points="-4,4 -4,-630 1183.56,-630 1183.56,4 -4,4"/>
<!-- 0 -->
<!-- name: &quot;UpdateEnvironmentAttributesData&quot;, typeName: &quot;&quot;, id: 0, branchId: 0, recurseId: &#45;1, attributes: 0, notes: &quot;&quot; -->
<g id="node1" class="node">
<title>0</title>
<ellipse fill="none" stroke="black" cx="140.41" cy="-554" rx="140.41" ry="18"/>
<text xml:space="preserve" text-anchor="middle" x="140.41" y="-548.95" font-family="Times New Roman,serif" font-size="14.00">UpdateEnvironmentAttributesData</text>
</g>
<!-- 1 -->
<!-- name: &quot;Attribute Layer Name&quot;, typeName: &quot;&quot;, id: 1, branchId: 0, recurseId: &#45;1, attributes: 0, notes: &quot;&quot; -->
<g id="node2" class="node">
<title>1</title>
<ellipse fill="none" stroke="black" cx="428.56" cy="-608" rx="93.32" ry="18"/>
<text xml:space="preserve" text-anchor="middle" x="428.56" y="-602.95" font-family="Times New Roman,serif" font-size="14.00">Attribute Layer Name</text>
</g>
<!-- 0&#45;&gt;1 -->
<g id="edge1" class="edge">
<title>0&#45;&gt;1</title>
<path fill="none" stroke="black" d="M221.5,-569.11C261.46,-576.66 309.61,-585.74 349.32,-593.24"/>
<polygon fill="black" stroke="black" points="348.59,-596.66 359.06,-595.07 349.88,-589.78 348.59,-596.66"/>
</g>
<!-- 3 -->
<!-- name: &quot;Attribute Layer Dimension&quot;, typeName: &quot;&quot;, id: 3, branchId: 0, recurseId: &#45;1, attributes: 0, notes: &quot;&quot; -->
<g id="node4" class="node">
<title>3</title>
<ellipse fill="none" stroke="black" cx="428.56" cy="-554" rx="111.74" ry="18"/>
<text xml:space="preserve" text-anchor="middle" x="428.56" y="-548.95" font-family="Times New Roman,serif" font-size="14.00">Attribute Layer Dimension</text>
</g>
<!-- 0&#45;&gt;3 -->
<g id="edge3" class="edge">
<title>0&#45;&gt;3</title>
<path fill="none" stroke="black" d="M281.13,-554C289.23,-554 297.34,-554 305.37,-554"/>
<polygon fill="black" stroke="black" points="305.13,-557.5 315.13,-554 305.13,-550.5 305.13,-557.5"/>
</g>
<!-- 6 -->
<!-- name: &quot;Attributes&quot;, typeName: &quot;&quot;, id: 6, branchId: 0, recurseId: &#45;1, attributes: 0, notes: &quot;&quot; -->
<g id="node7" class="node">
<title>6</title>
<ellipse fill="none" stroke="black" cx="428.56" cy="-500" rx="47.77" ry="18"/>
<text xml:space="preserve" text-anchor="middle" x="428.56" y="-494.95" font-family="Times New Roman,serif" font-size="14.00">Attributes</text>
</g>
<!-- 0&#45;&gt;6 -->
<g id="edge6" class="edge">
<title>0&#45;&gt;6</title>
<path fill="none" stroke="black" d="M221.5,-538.89C270.22,-529.69 331.11,-518.2 374.03,-510.1"/>
<polygon fill="black" stroke="black" points="374.42,-513.59 383.59,-508.3 373.12,-506.71 374.42,-513.59"/>
</g>
<!-- 2 -->
<!-- name: &quot;string&quot;, typeName: &quot;&quot;, id: 2, branchId: 0, recurseId: &#45;1, attributes: 512, notes: &quot;&quot; -->
<g id="node3" class="node">
<title>2</title>
<ellipse fill="none" stroke="black" cx="1086.24" cy="-608" rx="31.9" ry="18"/>
<text xml:space="preserve" text-anchor="middle" x="1086.24" y="-602.95" font-family="Times New Roman,serif" font-size="14.00">string</text>
</g>
<!-- 1&#45;&gt;2 -->
<g id="edge2" class="edge">
<title>1&#45;&gt;2</title>
<path fill="none" stroke="black" d="M522.11,-608C666.06,-608 937.92,-608 1042.64,-608"/>
<polygon fill="black" stroke="black" points="1042.47,-611.5 1052.47,-608 1042.47,-604.5 1042.47,-611.5"/>
</g>
<!-- 4 -->
<!-- name: &quot;value&quot;, typeName: &quot;&quot;, id: 4, branchId: 0, recurseId: &#45;1, attributes: 0, notes: &quot;&quot; -->
<g id="node5" class="node">
<title>4</title>
<ellipse fill="none" stroke="black" cx="651.2" cy="-554" rx="30.88" ry="18"/>
<text xml:space="preserve" text-anchor="middle" x="651.2" y="-548.95" font-family="Times New Roman,serif" font-size="14.00">value</text>
</g>
<!-- 3&#45;&gt;4 -->
<g id="edge4" class="edge">
<title>3&#45;&gt;4</title>
<path fill="none" stroke="black" d="M540.52,-554C564.87,-554 589.18,-554 608.7,-554"/>
<polygon fill="black" stroke="black" points="608.68,-557.5 618.68,-554 608.68,-550.5 608.68,-557.5"/>
</g>
<!-- 5 -->
<!-- name: &quot;varint&quot;, typeName: &quot;&quot;, id: 5, branchId: 0, recurseId: &#45;1, attributes: 512, notes: &quot;&quot; -->
<g id="node6" class="node">
<title>5</title>
<ellipse fill="none" stroke="black" cx="1086.24" cy="-554" rx="32.41" ry="18"/>
<text xml:space="preserve" text-anchor="middle" x="1086.24" y="-548.95" font-family="Times New Roman,serif" font-size="14.00">varint</text>
</g>
<!-- 4&#45;&gt;5 -->
<g id="edge5" class="edge">
<title>4&#45;&gt;5</title>
<path fill="none" stroke="black" d="M682.3,-554C757.67,-554 954.68,-554 1042.23,-554"/>
<polygon fill="black" stroke="black" points="1042.08,-557.5 1052.08,-554 1042.08,-550.5 1042.08,-557.5"/>
</g>
<!-- 7 -->
<!-- name: &quot;List Size&quot;, typeName: &quot;&quot;, id: 7, branchId: 0, recurseId: &#45;1, attributes: 0, notes: &quot;&quot; -->
<g id="node8" class="node">
<title>7</title>
<ellipse fill="none" stroke="black" cx="651.2" cy="-500" rx="43.67" ry="18"/>
<text xml:space="preserve" text-anchor="middle" x="651.2" y="-494.95" font-family="Times New Roman,serif" font-size="14.00">List Size</text>
</g>
<!-- 6&#45;&gt;7 -->
<g id="edge7" class="edge">
<title>6&#45;&gt;7</title>
<path fill="none" stroke="black" d="M476.62,-500C511.56,-500 559.3,-500 595.87,-500"/>
<polygon fill="black" stroke="black" points="595.8,-503.5 605.8,-500 595.8,-496.5 595.8,-503.5"/>
</g>
<!-- 9 -->
<!-- name: &quot;example element&quot;, typeName: &quot;&quot;, id: 9, branchId: 0, recurseId: &#45;1, attributes: 16, notes: &quot;&quot; -->
<g id="node10" class="node">
<title>9</title>
<ellipse fill="none" stroke="black" stroke-dasharray="1,5" cx="651.2" cy="-261" rx="74.89" ry="18"/>
<text xml:space="preserve" text-anchor="middle" x="651.2" y="-255.95" font-family="Times New Roman,serif" font-size="14.00">example element</text>
</g>
<!-- 6&#45;&gt;9 -->
<g id="edge9" class="edge">
<title>6&#45;&gt;9</title>
<path fill="none" stroke="black" d="M445.42,-482.81C483.64,-441.41 580.97,-335.98 626.3,-286.89"/>
<polygon fill="black" stroke="black" points="628.64,-289.51 632.85,-279.79 623.5,-284.76 628.64,-289.51"/>
</g>
<!-- 8 -->
<!-- name: &quot;unsigned varint&quot;, typeName: &quot;&quot;, id: 8, branchId: 0, recurseId: &#45;1, attributes: 0, notes: &quot;&quot; -->
<g id="node9" class="node">
<title>8</title>
<ellipse fill="none" stroke="black" cx="859.5" cy="-504" rx="68.24" ry="18"/>
<text xml:space="preserve" text-anchor="middle" x="859.5" y="-498.95" font-family="Times New Roman,serif" font-size="14.00">unsigned varint</text>
</g>
<!-- 7&#45;&gt;8 -->
<g id="edge8" class="edge">
<title>7&#45;&gt;8</title>
<path fill="none" stroke="black" d="M695.19,-500.83C719.69,-501.31 751.15,-501.92 779.91,-502.48"/>
<polygon fill="black" stroke="black" points="779.61,-505.97 789.68,-502.67 779.75,-498.97 779.61,-505.97"/>
</g>
<!-- 10 -->
<!-- name: &quot;AttributeName&quot;, typeName: &quot;&quot;, id: 10, branchId: 0, recurseId: &#45;1, attributes: 0, notes: &quot;&quot; -->
<g id="node11" class="node">
<title>10</title>
<ellipse fill="none" stroke="black" cx="859.5" cy="-450" rx="66.71" ry="18"/>
<text xml:space="preserve" text-anchor="middle" x="859.5" y="-444.95" font-family="Times New Roman,serif" font-size="14.00">AttributeName</text>
</g>
<!-- 9&#45;&gt;10 -->
<g id="edge10" class="edge">
<title>9&#45;&gt;10</title>
<path fill="none" stroke="black" d="M659.44,-279.16C673.8,-312.81 709.13,-384.88 762.09,-423 770.48,-429.04 780.18,-433.73 790.12,-437.37"/>
<polygon fill="black" stroke="black" points="788.93,-440.67 799.52,-440.46 791.11,-434.01 788.93,-440.67"/>
</g>
<!-- 12 -->
<!-- name: &quot;FromAttribute&quot;, typeName: &quot;&quot;, id: 12, branchId: 0, recurseId: &#45;1, attributes: 0, notes: &quot;&quot; -->
<g id="node13" class="node">
<title>12</title>
<ellipse fill="none" stroke="black" cx="859.5" cy="-396" rx="64.66" ry="18"/>
<text xml:space="preserve" text-anchor="middle" x="859.5" y="-390.95" font-family="Times New Roman,serif" font-size="14.00">FromAttribute</text>
</g>
<!-- 9&#45;&gt;12 -->
<g id="edge12" class="edge">
<title>9&#45;&gt;12</title>
<path fill="none" stroke="black" d="M665.75,-279.14C684.68,-303.21 721.35,-345.41 762.09,-369 771.85,-374.65 782.85,-379.17 793.85,-382.77"/>
<polygon fill="black" stroke="black" points="792.75,-386.1 803.34,-385.64 794.78,-379.4 792.75,-386.1"/>
</g>
<!-- 14 -->
<!-- name: &quot;Attribute&quot;, typeName: &quot;&quot;, id: 14, branchId: 0, recurseId: &#45;1, attributes: 0, notes: &quot;&quot; -->
<g id="node15" class="node">
<title>14</title>
<ellipse fill="none" stroke="black" cx="859.5" cy="-342" rx="44.19" ry="18"/>
<text xml:space="preserve" text-anchor="middle" x="859.5" y="-336.95" font-family="Times New Roman,serif" font-size="14.00">Attribute</text>
</g>
<!-- 9&#45;&gt;14 -->
<g id="edge14" class="edge">
<title>9&#45;&gt;14</title>
<path fill="none" stroke="black" d="M682.31,-277.67C704.03,-289.23 734.29,-304.38 762.09,-315 777.25,-320.79 794.17,-325.95 809.56,-330.16"/>
<polygon fill="black" stroke="black" points="808.41,-333.48 818.98,-332.67 810.21,-326.72 808.41,-333.48"/>
</g>
<!-- 16 -->
<!-- name: &quot;ToAttribute&quot;, typeName: &quot;&quot;, id: 16, branchId: 0, recurseId: &#45;1, attributes: 0, notes: &quot;&quot; -->
<g id="node17" class="node">
<title>16</title>
<ellipse fill="none" stroke="black" cx="859.5" cy="-288" rx="53.91" ry="18"/>
<text xml:space="preserve" text-anchor="middle" x="859.5" y="-282.95" font-family="Times New Roman,serif" font-size="14.00">ToAttribute</text>
</g>
<!-- 9&#45;&gt;16 -->
<g id="edge16" class="edge">
<title>9&#45;&gt;16</title>
<path fill="none" stroke="black" d="M717.76,-269.58C743.34,-272.93 772.49,-276.74 797.6,-280.03"/>
<polygon fill="black" stroke="black" points="796.96,-283.48 807.33,-281.3 797.87,-276.53 796.96,-283.48"/>
</g>
<!-- 18 -->
<!-- name: &quot;CurrentTransitionTicks&quot;, typeName: &quot;&quot;, id: 18, branchId: 0, recurseId: &#45;1, attributes: 0, notes: &quot;&quot; -->
<g id="node19" class="node">
<title>18</title>
<ellipse fill="none" stroke="black" cx="859.5" cy="-234" rx="97.41" ry="18"/>
<text xml:space="preserve" text-anchor="middle" x="859.5" y="-228.95" font-family="Times New Roman,serif" font-size="14.00">CurrentTransitionTicks</text>
</g>
<!-- 9&#45;&gt;18 -->
<g id="edge18" class="edge">
<title>9&#45;&gt;18</title>
<path fill="none" stroke="black" d="M717.76,-252.42C733.73,-250.33 751.09,-248.06 767.99,-245.85"/>
<polygon fill="black" stroke="black" points="768.05,-249.37 777.51,-244.6 767.14,-242.43 768.05,-249.37"/>
</g>
<!-- 20 -->
<!-- name: &quot;TotalTransitionTicks&quot;, typeName: &quot;&quot;, id: 20, branchId: 0, recurseId: &#45;1, attributes: 0, notes: &quot;&quot; -->
<g id="node21" class="node">
<title>20</title>
<ellipse fill="none" stroke="black" cx="859.5" cy="-180" rx="88.2" ry="18"/>
<text xml:space="preserve" text-anchor="middle" x="859.5" y="-174.95" font-family="Times New Roman,serif" font-size="14.00">TotalTransitionTicks</text>
</g>
<!-- 9&#45;&gt;20 -->
<g id="edge20" class="edge">
<title>9&#45;&gt;20</title>
<path fill="none" stroke="black" d="M682.31,-244.33C704.03,-232.77 734.29,-217.62 762.09,-207 771.29,-203.48 781.15,-200.2 790.91,-197.22"/>
<polygon fill="black" stroke="black" points="791.81,-200.61 800.41,-194.42 789.82,-193.89 791.81,-200.61"/>
</g>
<!-- 22 -->
<!-- name: &quot;Easing&quot;, typeName: &quot;&quot;, id: 22, branchId: 0, recurseId: &#45;1, attributes: 0, notes: &quot;&quot; -->
<g id="node23" class="node">
<title>22</title>
<ellipse fill="none" stroke="black" cx="859.5" cy="-126" rx="36" ry="18"/>
<text xml:space="preserve" text-anchor="middle" x="859.5" y="-120.95" font-family="Times New Roman,serif" font-size="14.00">Easing</text>
</g>
<!-- 9&#45;&gt;22 -->
<g id="edge22" class="edge">
<title>9&#45;&gt;22</title>
<path fill="none" stroke="black" d="M665.75,-242.86C684.68,-218.79 721.35,-176.59 762.09,-153 777.89,-143.85 796.94,-137.67 813.93,-133.55"/>
<polygon fill="black" stroke="black" points="814.27,-137.06 823.26,-131.47 812.74,-130.23 814.27,-137.06"/>
</g>
<!-- 24 -->
<!-- name: &quot;LocalTransitionTicks&quot;, typeName: &quot;&quot;, id: 24, branchId: 0, recurseId: &#45;1, attributes: 0, notes: &quot;&quot; -->
<g id="node25" class="node">
<title>24</title>
<ellipse fill="none" stroke="black" cx="859.5" cy="-72" rx="90.25" ry="18"/>
<text xml:space="preserve" text-anchor="middle" x="859.5" y="-66.95" font-family="Times New Roman,serif" font-size="14.00">LocalTransitionTicks</text>
</g>
<!-- 9&#45;&gt;24 -->
<g id="edge24" class="edge">
<title>9&#45;&gt;24</title>
<path fill="none" stroke="black" d="M659.44,-242.84C673.8,-209.19 709.13,-137.12 762.09,-99 767.83,-94.87 774.18,-91.37 780.8,-88.4"/>
<polygon fill="black" stroke="black" points="782,-91.7 789.98,-84.73 779.4,-85.2 782,-91.7"/>
</g>
<!-- 26 -->
<!-- name: &quot;NoiseTransition&quot;, typeName: &quot;&quot;, id: 26, branchId: 0, recurseId: &#45;1, attributes: 0, notes: &quot;&quot; -->
<g id="node27" class="node">
<title>26</title>
<ellipse fill="none" stroke="black" cx="859.5" cy="-18" rx="70.29" ry="18"/>
<text xml:space="preserve" text-anchor="middle" x="859.5" y="-12.95" font-family="Times New Roman,serif" font-size="14.00">NoiseTransition</text>
</g>
<!-- 9&#45;&gt;26 -->
<g id="edge26" class="edge">
<title>9&#45;&gt;26</title>
<path fill="none" stroke="black" d="M656.18,-242.8C666.24,-201.19 696.68,-98.61 762.09,-45 769.43,-38.98 778.03,-34.3 787.02,-30.66"/>
<polygon fill="black" stroke="black" points="788.02,-34.02 796.27,-27.36 785.67,-27.43 788.02,-34.02"/>
</g>
<!-- 11 -->
<!-- name: &quot;string&quot;, typeName: &quot;&quot;, id: 11, branchId: 0, recurseId: &#45;1, attributes: 512, notes: &quot;&quot; -->
<g id="node12" class="node">
<title>11</title>
<ellipse fill="none" stroke="black" cx="1086.24" cy="-450" rx="31.9" ry="18"/>
<text xml:space="preserve" text-anchor="middle" x="1086.24" y="-444.95" font-family="Times New Roman,serif" font-size="14.00">string</text>
</g>
<!-- 10&#45;&gt;11 -->
<g id="edge11" class="edge">
<title>10&#45;&gt;11</title>
<path fill="none" stroke="black" d="M926.41,-450C963.9,-450 1009.77,-450 1042.55,-450"/>
<polygon fill="black" stroke="black" points="1042.49,-453.5 1052.49,-450 1042.49,-446.5 1042.49,-453.5"/>
</g>
<!-- 13 -->
<!-- name: &quot;&quot;, typeName: &quot;&quot;, id: 13, branchId: 0, recurseId: &#45;1, attributes: 512, notes: &quot;&quot; -->
<g id="node14" class="node">
<title>13</title>
<ellipse fill="none" stroke="black" cx="1086.24" cy="-396" rx="27" ry="18"/>
</g>
<!-- 12&#45;&gt;13 -->
<g id="edge13" class="edge">
<title>12&#45;&gt;13</title>
<path fill="none" stroke="black" d="M924.6,-396C964.41,-396 1014.19,-396 1047.7,-396"/>
<polygon fill="black" stroke="black" points="1047.32,-399.5 1057.32,-396 1047.32,-392.5 1047.32,-399.5"/>
</g>
<!-- 15 -->
<!-- name: &quot;&quot;, typeName: &quot;&quot;, id: 15, branchId: 0, recurseId: &#45;1, attributes: 512, notes: &quot;&quot; -->
<g id="node16" class="node">
<title>15</title>
<ellipse fill="none" stroke="black" cx="1086.24" cy="-342" rx="27" ry="18"/>
</g>
<!-- 14&#45;&gt;15 -->
<g id="edge15" class="edge">
<title>14&#45;&gt;15</title>
<path fill="none" stroke="black" d="M904.1,-342C945.84,-342 1008.13,-342 1047.71,-342"/>
<polygon fill="black" stroke="black" points="1047.46,-345.5 1057.46,-342 1047.46,-338.5 1047.46,-345.5"/>
</g>
<!-- 17 -->
<!-- name: &quot;&quot;, typeName: &quot;&quot;, id: 17, branchId: 0, recurseId: &#45;1, attributes: 512, notes: &quot;&quot; -->
<g id="node18" class="node">
<title>17</title>
<ellipse fill="none" stroke="black" cx="1086.24" cy="-288" rx="27" ry="18"/>
</g>
<!-- 16&#45;&gt;17 -->
<g id="edge17" class="edge">
<title>16&#45;&gt;17</title>
<path fill="none" stroke="black" d="M913.76,-288C954.99,-288 1011.06,-288 1047.69,-288"/>
<polygon fill="black" stroke="black" points="1047.34,-291.5 1057.34,-288 1047.34,-284.5 1047.34,-291.5"/>
</g>
<!-- 19 -->
<!-- name: &quot;unsigned int&quot;, typeName: &quot;&quot;, id: 19, branchId: 0, recurseId: &#45;1, attributes: 512, notes: &quot;&quot; -->
<g id="node20" class="node">
<title>19</title>
<ellipse fill="none" stroke="black" cx="1086.24" cy="-234" rx="56.47" ry="18"/>
<text xml:space="preserve" text-anchor="middle" x="1086.24" y="-228.95" font-family="Times New Roman,serif" font-size="14.00">unsigned int</text>
</g>
<!-- 18&#45;&gt;19 -->
<g id="edge19" class="edge">
<title>18&#45;&gt;19</title>
<path fill="none" stroke="black" d="M957.12,-234C977.71,-234 999.01,-234 1018.2,-234"/>
<polygon fill="black" stroke="black" points="1018.03,-237.5 1028.03,-234 1018.03,-230.5 1018.03,-237.5"/>
</g>
<!-- 21 -->
<!-- name: &quot;unsigned int&quot;, typeName: &quot;&quot;, id: 21, branchId: 0, recurseId: &#45;1, attributes: 512, notes: &quot;&quot; -->
<g id="node22" class="node">
<title>21</title>
<ellipse fill="none" stroke="black" cx="1086.24" cy="-180" rx="56.47" ry="18"/>
<text xml:space="preserve" text-anchor="middle" x="1086.24" y="-174.95" font-family="Times New Roman,serif" font-size="14.00">unsigned int</text>
</g>
<!-- 20&#45;&gt;21 -->
<g id="edge21" class="edge">
<title>20&#45;&gt;21</title>
<path fill="none" stroke="black" d="M948.04,-180C971.34,-180 996.13,-180 1018.15,-180"/>
<polygon fill="black" stroke="black" points="1017.87,-183.5 1027.87,-180 1017.87,-176.5 1017.87,-183.5"/>
</g>
<!-- 23 -->
<!-- name: &quot;enum easing_function&quot;, typeName: &quot;&quot;, id: 23, branchId: 0, recurseId: &#45;1, attributes: 512, notes: &quot;&quot; -->
<g id="node24" class="node">
<title>23</title>
<ellipse fill="none" stroke="black" cx="1086.24" cy="-126" rx="93.32" ry="18"/>
<text xml:space="preserve" text-anchor="middle" x="1086.24" y="-120.95" font-family="Times New Roman,serif" font-size="14.00">enum easing_function</text>
</g>
<!-- 22&#45;&gt;23 -->
<g id="edge23" class="edge">
<title>22&#45;&gt;23</title>
<path fill="none" stroke="black" d="M895.62,-126C918.82,-126 950.53,-126 981.39,-126"/>
<polygon fill="black" stroke="black" points="981.18,-129.5 991.18,-126 981.18,-122.5 981.18,-129.5"/>
</g>
<!-- 25 -->
<!-- name: &quot;unsigned int&quot;, typeName: &quot;&quot;, id: 25, branchId: 0, recurseId: &#45;1, attributes: 512, notes: &quot;&quot; -->
<g id="node26" class="node">
<title>25</title>
<ellipse fill="none" stroke="black" cx="1086.24" cy="-72" rx="56.47" ry="18"/>
<text xml:space="preserve" text-anchor="middle" x="1086.24" y="-66.95" font-family="Times New Roman,serif" font-size="14.00">unsigned int</text>
</g>
<!-- 24&#45;&gt;25 -->
<g id="edge25" class="edge">
<title>24&#45;&gt;25</title>
<path fill="none" stroke="black" d="M949.97,-72C972.69,-72 996.72,-72 1018.12,-72"/>
<polygon fill="black" stroke="black" points="1017.87,-75.5 1027.87,-72 1017.87,-68.5 1017.87,-75.5"/>
</g>
<!-- 27 -->
<!-- name: &quot;bool&quot;, typeName: &quot;&quot;, id: 27, branchId: 0, recurseId: &#45;1, attributes: 512, notes: &quot;&quot; -->
<g id="node28" class="node">
<title>27</title>
<ellipse fill="none" stroke="black" cx="1086.24" cy="-18" rx="27.3" ry="18"/>
<text xml:space="preserve" text-anchor="middle" x="1086.24" y="-12.95" font-family="Times New Roman,serif" font-size="14.00">bool</text>
</g>
<!-- 26&#45;&gt;27 -->
<g id="edge27" class="edge">
<title>26&#45;&gt;27</title>
<path fill="none" stroke="black" d="M930.07,-18C968.59,-18 1015.01,-18 1046.98,-18"/>
<polygon fill="black" stroke="black" points="1046.96,-21.5 1056.96,-18 1046.96,-14.5 1046.96,-21.5"/>
</g>
</g>
</svg>
