<?xml version="1.0" encoding="UTF-8" standalone="no"?>
<!DOCTYPE svg PUBLIC "-//W3C//DTD SVG 1.1//EN"
 "http://www.w3.org/Graphics/SVG/1.1/DTD/svg11.dtd">
<!-- Generated by graphviz version 12.2.1 (20241206.2353)
 -->
<!-- Title: UpdateClientInputLocksPacket Pages: 1 -->
<svg width="700pt" height="98pt"
 viewBox="0.00 0.00 700.31 98.00" xmlns="http://www.w3.org/2000/svg" xmlns:xlink="http://www.w3.org/1999/xlink">
<g id="graph0" class="graph" transform="scale(1 1) rotate(0) translate(4 94)">
<title>UpdateClientInputLocksPacket</title>
<polygon fill="white" stroke="none" points="-4,4 -4,-94 696.31,-94 696.31,4 -4,4"/>
<!-- 0 -->
<!-- name: &quot;UpdateClientInputLocksPacket&quot;, typeName: &quot;&quot;, id: 0, branchId: 196, recurseId: &#45;1, attributes: 0, notes: &quot;&quot; -->
<g id="node1" class="node">
<title>0</title>
<ellipse fill="none" stroke="black" cx="126.59" cy="-45" rx="126.59" ry="18"/>
<text text-anchor="middle" x="126.59" y="-39.95" font-family="Times New Roman,serif" font-size="14.00">UpdateClientInputLocksPacket</text>
</g>
<!-- 1 -->
<!-- name: &quot;Input Lock ComponentData&quot;, typeName: &quot;&quot;, id: 1, branchId: 0, recurseId: &#45;1, attributes: 0, notes: &quot;&quot; -->
<g id="node2" class="node">
<title>1</title>
<ellipse fill="none" stroke="black" cx="404.5" cy="-72" rx="115.33" ry="18"/>
<text text-anchor="middle" x="404.5" y="-66.95" font-family="Times New Roman,serif" font-size="14.00">Input Lock ComponentData</text>
</g>
<!-- 0&#45;&gt;1 -->
<g id="edge1" class="edge">
<title>0&#45;&gt;1</title>
<path fill="none" stroke="black" d="M232.29,-55.25C252.62,-57.23 273.96,-59.32 294.42,-61.33"/>
<polygon fill="black" stroke="black" points="293.89,-64.79 304.18,-62.28 294.57,-57.82 293.89,-64.79"/>
</g>
<!-- 3 -->
<!-- name: &quot;Server Pos&quot;, typeName: &quot;Vec3&quot;, id: 3, branchId: 0, recurseId: &#45;1, attributes: 256, notes: &quot;&quot; -->
<g id="node4" class="node">
<title>3</title>
<ellipse fill="none" stroke="black" cx="404.5" cy="-18" rx="50.84" ry="18"/>
<text text-anchor="middle" x="404.5" y="-12.95" font-family="Times New Roman,serif" font-size="14.00">Server Pos</text>
</g>
<!-- 0&#45;&gt;3 -->
<g id="edge3" class="edge">
<title>0&#45;&gt;3</title>
<path fill="none" stroke="black" d="M232.29,-34.75C270.07,-31.06 311.38,-27.01 343.96,-23.83"/>
<polygon fill="black" stroke="black" points="343.98,-27.34 353.59,-22.88 343.3,-20.37 343.98,-27.34"/>
</g>
<!-- 2 -->
<!-- name: &quot;unsigned varint&quot;, typeName: &quot;&quot;, id: 2, branchId: 0, recurseId: &#45;1, attributes: 512, notes: &quot;&quot; -->
<g id="node3" class="node">
<title>2</title>
<ellipse fill="none" stroke="black" cx="624.07" cy="-72" rx="68.24" ry="18"/>
<text text-anchor="middle" x="624.07" y="-66.95" font-family="Times New Roman,serif" font-size="14.00">unsigned varint</text>
</g>
<!-- 1&#45;&gt;2 -->
<g id="edge2" class="edge">
<title>1&#45;&gt;2</title>
<path fill="none" stroke="black" d="M520.02,-72C528.14,-72 536.21,-72 544.06,-72"/>
<polygon fill="black" stroke="black" points="543.87,-75.5 553.87,-72 543.87,-68.5 543.87,-75.5"/>
</g>
<!-- 4 -->
<!-- name: &quot;Vec3&quot;, typeName: &quot;&quot;, id: 4, branchId: 0, recurseId: &#45;1, attributes: 512, notes: &quot;&quot; -->
<g id="node5" class="node">
<title>4</title>
<ellipse fill="none" stroke="black" cx="624.07" cy="-18" rx="29.34" ry="18"/>
<text text-anchor="middle" x="624.07" y="-12.95" font-family="Times New Roman,serif" font-size="14.00">Vec3</text>
</g>
<!-- 3&#45;&gt;4 -->
<g id="edge4" class="edge">
<title>3&#45;&gt;4</title>
<path fill="none" stroke="black" d="M455.69,-18C494.36,-18 547.12,-18 582.99,-18"/>
<polygon fill="black" stroke="black" points="582.96,-21.5 592.96,-18 582.96,-14.5 582.96,-21.5"/>
</g>
</g>
</svg>
