<?xml version="1.0" encoding="UTF-8" standalone="no"?>
<!DOCTYPE svg PUBLIC "-//W3C//DTD SVG 1.1//EN"
 "http://www.w3.org/Graphics/SVG/1.1/DTD/svg11.dtd">
<!-- Generated by graphviz version 13.1.2 (20250808.2320)
 -->
<!-- Title: UpdateBlockPacket Pages: 1 -->
<svg width="642pt" height="314pt"
 viewBox="0.00 0.00 642.00 314.00" xmlns="http://www.w3.org/2000/svg" xmlns:xlink="http://www.w3.org/1999/xlink">
<g id="graph0" class="graph" transform="scale(1 1) rotate(0) translate(4 310)">
<title>UpdateBlockPacket</title>
<polygon fill="white" stroke="none" points="-4,4 -4,-310 638.48,-310 638.48,4 -4,4"/>
<!-- 0 -->
<!-- name: &quot;UpdateBlockPacket&quot;, typeName: &quot;&quot;, id: 0, branchId: 0, recurseId: &#45;1, attributes: 0, notes: &quot;Occasional packets sent from server when blocks update or are ticked. (For example, when digging.)&quot; -->
<g id="node1" class="node">
<title>0</title>
<ellipse fill="none" stroke="black" cx="84.11" cy="-99" rx="84.11" ry="18"/>
<text xml:space="preserve" text-anchor="middle" x="84.11" y="-93.95" font-family="Times New Roman,serif" font-size="14.00">UpdateBlockPacket</text>
</g>
<!-- 1 -->
<!-- name: &quot;Block Position&quot;, typeName: &quot;&quot;, id: 1, branchId: 0, recurseId: &#45;1, attributes: 0, notes: &quot;&quot; -->
<g id="node2" class="node">
<title>1</title>
<ellipse fill="none" stroke="black" cx="284.23" cy="-207" rx="65.68" ry="18"/>
<text xml:space="preserve" text-anchor="middle" x="284.23" y="-201.95" font-family="Times New Roman,serif" font-size="14.00">Block Position</text>
</g>
<!-- 0&#45;&gt;1 -->
<g id="edge1" class="edge">
<title>0&#45;&gt;1</title>
<path fill="none" stroke="black" d="M116.06,-115.88C150.38,-134.58 205.84,-164.82 243.38,-185.28"/>
<polygon fill="black" stroke="black" points="241.67,-188.34 252.13,-190.05 245.03,-182.19 241.67,-188.34"/>
</g>
<!-- 8 -->
<!-- name: &quot;Block Runtime ID&quot;, typeName: &quot;&quot;, id: 8, branchId: 0, recurseId: &#45;1, attributes: 0, notes: &quot;&quot; -->
<g id="node9" class="node">
<title>8</title>
<ellipse fill="none" stroke="black" cx="284.23" cy="-126" rx="80.01" ry="18"/>
<text xml:space="preserve" text-anchor="middle" x="284.23" y="-120.95" font-family="Times New Roman,serif" font-size="14.00">Block Runtime ID</text>
</g>
<!-- 0&#45;&gt;8 -->
<g id="edge8" class="edge">
<title>0&#45;&gt;8</title>
<path fill="none" stroke="black" d="M156.07,-108.67C171.44,-110.77 187.79,-112.99 203.47,-115.13"/>
<polygon fill="black" stroke="black" points="202.87,-118.58 213.25,-116.46 203.81,-111.64 202.87,-118.58"/>
</g>
<!-- 10 -->
<!-- name: &quot;Flags&quot;, typeName: &quot;&quot;, id: 10, branchId: 0, recurseId: &#45;1, attributes: 0, notes: &quot;&quot; -->
<g id="node11" class="node">
<title>10</title>
<ellipse fill="none" stroke="black" cx="431.12" cy="-76" rx="30.88" ry="18"/>
<text xml:space="preserve" text-anchor="middle" x="431.12" y="-70.95" font-family="Times New Roman,serif" font-size="14.00">Flags</text>
</g>
<!-- 0&#45;&gt;10 -->
<g id="edge10" class="edge">
<title>0&#45;&gt;10</title>
<path fill="none" stroke="black" d="M164.69,-93.69C234.59,-89.03 333.49,-82.44 388.72,-78.76"/>
<polygon fill="black" stroke="black" points="388.88,-82.26 398.63,-78.1 388.42,-75.27 388.88,-82.26"/>
</g>
<!-- 12 -->
<!-- name: &quot;Layer&quot;, typeName: &quot;&quot;, id: 12, branchId: 0, recurseId: &#45;1, attributes: 0, notes: &quot;&quot; -->
<g id="node13" class="node">
<title>12</title>
<ellipse fill="none" stroke="black" cx="284.23" cy="-22" rx="32.41" ry="18"/>
<text xml:space="preserve" text-anchor="middle" x="284.23" y="-16.95" font-family="Times New Roman,serif" font-size="14.00">Layer</text>
</g>
<!-- 0&#45;&gt;12 -->
<g id="edge12" class="edge">
<title>0&#45;&gt;12</title>
<path fill="none" stroke="black" d="M126.16,-83.05C161.65,-69.25 212.47,-49.5 246.6,-36.23"/>
<polygon fill="black" stroke="black" points="247.59,-39.6 255.65,-32.72 245.06,-33.08 247.59,-39.6"/>
</g>
<!-- 2 -->
<!-- name: &quot;X&quot;, typeName: &quot;&quot;, id: 2, branchId: 0, recurseId: &#45;1, attributes: 0, notes: &quot;&quot; -->
<g id="node3" class="node">
<title>2</title>
<ellipse fill="none" stroke="black" cx="431.12" cy="-288" rx="27" ry="18"/>
<text xml:space="preserve" text-anchor="middle" x="431.12" y="-282.95" font-family="Times New Roman,serif" font-size="14.00">X</text>
</g>
<!-- 1&#45;&gt;2 -->
<g id="edge2" class="edge">
<title>1&#45;&gt;2</title>
<path fill="none" stroke="black" d="M314.55,-223.39C339.4,-237.29 374.91,-257.14 399.99,-271.16"/>
<polygon fill="black" stroke="black" points="397.95,-274.03 408.39,-275.85 401.37,-267.92 397.95,-274.03"/>
</g>
<!-- 4 -->
<!-- name: &quot;Y&quot;, typeName: &quot;&quot;, id: 4, branchId: 0, recurseId: &#45;1, attributes: 0, notes: &quot;&quot; -->
<g id="node5" class="node">
<title>4</title>
<ellipse fill="none" stroke="black" cx="431.12" cy="-234" rx="27" ry="18"/>
<text xml:space="preserve" text-anchor="middle" x="431.12" y="-228.95" font-family="Times New Roman,serif" font-size="14.00">Y</text>
</g>
<!-- 1&#45;&gt;4 -->
<g id="edge4" class="edge">
<title>1&#45;&gt;4</title>
<path fill="none" stroke="black" d="M339.59,-217.13C357.55,-220.48 377.1,-224.12 393.42,-227.16"/>
<polygon fill="black" stroke="black" points="392.7,-230.59 403.18,-228.98 393.99,-223.71 392.7,-230.59"/>
</g>
<!-- 6 -->
<!-- name: &quot;Z&quot;, typeName: &quot;&quot;, id: 6, branchId: 0, recurseId: &#45;1, attributes: 0, notes: &quot;&quot; -->
<g id="node7" class="node">
<title>6</title>
<ellipse fill="none" stroke="black" cx="431.12" cy="-180" rx="27" ry="18"/>
<text xml:space="preserve" text-anchor="middle" x="431.12" y="-174.95" font-family="Times New Roman,serif" font-size="14.00">Z</text>
</g>
<!-- 1&#45;&gt;6 -->
<g id="edge6" class="edge">
<title>1&#45;&gt;6</title>
<path fill="none" stroke="black" d="M339.59,-196.87C357.55,-193.52 377.1,-189.88 393.42,-186.84"/>
<polygon fill="black" stroke="black" points="393.99,-190.29 403.18,-185.02 392.7,-183.41 393.99,-190.29"/>
</g>
<!-- 3 -->
<!-- name: &quot;varint&quot;, typeName: &quot;&quot;, id: 3, branchId: 0, recurseId: &#45;1, attributes: 512, notes: &quot;&quot; -->
<g id="node4" class="node">
<title>3</title>
<ellipse fill="none" stroke="black" cx="566.24" cy="-288" rx="32.41" ry="18"/>
<text xml:space="preserve" text-anchor="middle" x="566.24" y="-282.95" font-family="Times New Roman,serif" font-size="14.00">varint</text>
</g>
<!-- 2&#45;&gt;3 -->
<g id="edge3" class="edge">
<title>2&#45;&gt;3</title>
<path fill="none" stroke="black" d="M458.42,-288C476.58,-288 501.14,-288 522.13,-288"/>
<polygon fill="black" stroke="black" points="521.85,-291.5 531.85,-288 521.84,-284.5 521.85,-291.5"/>
</g>
<!-- 5 -->
<!-- name: &quot;unsigned varint&quot;, typeName: &quot;&quot;, id: 5, branchId: 0, recurseId: &#45;1, attributes: 512, notes: &quot;&quot; -->
<g id="node6" class="node">
<title>5</title>
<ellipse fill="none" stroke="black" cx="566.24" cy="-234" rx="68.24" ry="18"/>
<text xml:space="preserve" text-anchor="middle" x="566.24" y="-228.95" font-family="Times New Roman,serif" font-size="14.00">unsigned varint</text>
</g>
<!-- 4&#45;&gt;5 -->
<g id="edge5" class="edge">
<title>4&#45;&gt;5</title>
<path fill="none" stroke="black" d="M458.42,-234C466.68,-234 476.26,-234 486.23,-234"/>
<polygon fill="black" stroke="black" points="486.08,-237.5 496.08,-234 486.08,-230.5 486.08,-237.5"/>
</g>
<!-- 7 -->
<!-- name: &quot;varint&quot;, typeName: &quot;&quot;, id: 7, branchId: 0, recurseId: &#45;1, attributes: 512, notes: &quot;&quot; -->
<g id="node8" class="node">
<title>7</title>
<ellipse fill="none" stroke="black" cx="566.24" cy="-180" rx="32.41" ry="18"/>
<text xml:space="preserve" text-anchor="middle" x="566.24" y="-174.95" font-family="Times New Roman,serif" font-size="14.00">varint</text>
</g>
<!-- 6&#45;&gt;7 -->
<g id="edge7" class="edge">
<title>6&#45;&gt;7</title>
<path fill="none" stroke="black" d="M458.42,-180C476.58,-180 501.14,-180 522.13,-180"/>
<polygon fill="black" stroke="black" points="521.85,-183.5 531.85,-180 521.84,-176.5 521.85,-183.5"/>
</g>
<!-- 9 -->
<!-- name: &quot;unsigned varint&quot;, typeName: &quot;&quot;, id: 9, branchId: 0, recurseId: &#45;1, attributes: 512, notes: &quot;&quot; -->
<g id="node10" class="node">
<title>9</title>
<ellipse fill="none" stroke="black" cx="566.24" cy="-126" rx="68.24" ry="18"/>
<text xml:space="preserve" text-anchor="middle" x="566.24" y="-120.95" font-family="Times New Roman,serif" font-size="14.00">unsigned varint</text>
</g>
<!-- 8&#45;&gt;9 -->
<g id="edge9" class="edge">
<title>8&#45;&gt;9</title>
<path fill="none" stroke="black" d="M364.72,-126C402.98,-126 448.71,-126 486.83,-126"/>
<polygon fill="black" stroke="black" points="486.37,-129.5 496.37,-126 486.37,-122.5 486.37,-129.5"/>
</g>
<!-- 11 -->
<!-- name: &quot;unsigned varint&quot;, typeName: &quot;&quot;, id: 11, branchId: 0, recurseId: &#45;1, attributes: 512, notes: &quot;&quot; -->
<g id="node12" class="node">
<title>11</title>
<ellipse fill="none" stroke="black" cx="566.24" cy="-72" rx="68.24" ry="18"/>
<text xml:space="preserve" text-anchor="middle" x="566.24" y="-66.95" font-family="Times New Roman,serif" font-size="14.00">unsigned varint</text>
</g>
<!-- 10&#45;&gt;11 -->
<g id="edge11" class="edge">
<title>10&#45;&gt;11</title>
<path fill="none" stroke="black" d="M462.33,-75.09C469.74,-74.87 478.02,-74.62 486.58,-74.36"/>
<polygon fill="black" stroke="black" points="486.54,-77.87 496.43,-74.07 486.33,-70.87 486.54,-77.87"/>
</g>
<!-- 13 -->
<!-- name: &quot;unsigned varint&quot;, typeName: &quot;&quot;, id: 13, branchId: 0, recurseId: &#45;1, attributes: 512, notes: &quot;&quot; -->
<g id="node14" class="node">
<title>13</title>
<ellipse fill="none" stroke="black" cx="566.24" cy="-18" rx="68.24" ry="18"/>
<text xml:space="preserve" text-anchor="middle" x="566.24" y="-12.95" font-family="Times New Roman,serif" font-size="14.00">unsigned varint</text>
</g>
<!-- 12&#45;&gt;13 -->
<g id="edge13" class="edge">
<title>12&#45;&gt;13</title>
<path fill="none" stroke="black" d="M317.08,-21.55C357.98,-20.96 430.37,-19.93 486.44,-19.13"/>
<polygon fill="black" stroke="black" points="486.32,-22.63 496.27,-18.99 486.22,-15.63 486.32,-22.63"/>
</g>
</g>
</svg>
