<?xml version="1.0" encoding="UTF-8" standalone="no"?>
<!DOCTYPE svg PUBLIC "-//W3C//DTD SVG 1.1//EN"
 "http://www.w3.org/Graphics/SVG/1.1/DTD/svg11.dtd">
<!-- Generated by graphviz version 2.46.1 (20210213.1702)
 -->
<!-- Title: UpdateAbilitiesPacket Pages: 1 -->
<svg width="499pt" height="44pt"
 viewBox="0.00 0.00 498.56 44.00" xmlns="http://www.w3.org/2000/svg" xmlns:xlink="http://www.w3.org/1999/xlink">
<g id="graph0" class="graph" transform="scale(1 1) rotate(0) translate(4 40)">
<title>UpdateAbilitiesPacket</title>
<polygon fill="white" stroke="transparent" points="-4,4 -4,-40 494.56,-40 494.56,4 -4,4"/>
<!-- 0 -->
<!-- name: &quot;UpdateAbilitiesPacket&quot;, typeName: &quot;&quot;, id: 0, branchId: 187, recurseId: &#45;1, attributes: 0, notes: &quot;&quot; -->
<g id="node1" class="node">
<title>0</title>
<ellipse fill="none" stroke="black" cx="90.99" cy="-18" rx="90.98" ry="18"/>
<text text-anchor="middle" x="90.99" y="-14.3" font-family="Times New Roman,serif" font-size="14.00">UpdateAbilitiesPacket</text>
</g>
<!-- 1 -->
<!-- name: &quot;Data&quot;, typeName: &quot;SerializedAbilitiesData&quot;, id: 1, branchId: 0, recurseId: &#45;1, attributes: 256, notes: &quot;&quot; -->
<g id="node2" class="node">
<title>1</title>
<ellipse fill="none" stroke="black" cx="245.28" cy="-18" rx="27.1" ry="18"/>
<text text-anchor="middle" x="245.28" y="-14.3" font-family="Times New Roman,serif" font-size="14.00">Data</text>
</g>
<!-- 0&#45;&gt;1 -->
<g id="edge1" class="edge">
<title>0&#45;&gt;1</title>
<path fill="none" stroke="black" d="M182.34,-18C191.23,-18 199.86,-18 207.71,-18"/>
<polygon fill="black" stroke="black" points="207.89,-21.5 217.89,-18 207.89,-14.5 207.89,-21.5"/>
</g>
<!-- 2 -->
<!-- name: &quot;SerializedAbilitiesData&quot;, typeName: &quot;&quot;, id: 2, branchId: 0, recurseId: &#45;1, attributes: 512, notes: &quot;&quot; -->
<g id="node3" class="node">
<title>2</title>
<ellipse fill="none" stroke="black" cx="399.57" cy="-18" rx="90.98" ry="18"/>
<text text-anchor="middle" x="399.57" y="-14.3" font-family="Times New Roman,serif" font-size="14.00">SerializedAbilitiesData</text>
</g>
<!-- 1&#45;&gt;2 -->
<g id="edge2" class="edge">
<title>1&#45;&gt;2</title>
<path fill="none" stroke="black" d="M272.81,-18C280.32,-18 288.97,-18 298.14,-18"/>
<polygon fill="black" stroke="black" points="298.28,-21.5 308.28,-18 298.28,-14.5 298.28,-21.5"/>
</g>
</g>
</svg>
