<?xml version="1.0" encoding="UTF-8" standalone="no"?>
<!DOCTYPE svg PUBLIC "-//W3C//DTD SVG 1.1//EN"
 "http://www.w3.org/Graphics/SVG/1.1/DTD/svg11.dtd">
<!-- Generated by graphviz version 2.46.1 (20210213.1702)
 -->
<!-- Title: UpdateBlockPacket Pages: 1 -->
<svg width="586pt" height="206pt"
 viewBox="0.00 0.00 585.66 206.00" xmlns="http://www.w3.org/2000/svg" xmlns:xlink="http://www.w3.org/1999/xlink">
<g id="graph0" class="graph" transform="scale(1 1) rotate(0) translate(4 202)">
<title>UpdateBlockPacket</title>
<polygon fill="white" stroke="transparent" points="-4,4 -4,-202 581.66,-202 581.66,4 -4,4"/>
<!-- 0 -->
<!-- name: &quot;UpdateBlockPacket&quot;, typeName: &quot;&quot;, id: 0, branchId: 21, recurseId: &#45;1, attributes: 0, notes: &quot;&quot; -->
<g id="node1" class="node">
<title>0</title>
<ellipse fill="none" stroke="black" cx="83.19" cy="-99" rx="83.39" ry="18"/>
<text text-anchor="middle" x="83.19" y="-95.3" font-family="Times New Roman,serif" font-size="14.00">UpdateBlockPacket</text>
</g>
<!-- 1 -->
<!-- name: &quot;Block Position&quot;, typeName: &quot;NetworkBlockPosition&quot;, id: 1, branchId: 0, recurseId: &#45;1, attributes: 256, notes: &quot;&quot; -->
<g id="node2" class="node">
<title>1</title>
<ellipse fill="none" stroke="black" cx="279.08" cy="-180" rx="64.19" ry="18"/>
<text text-anchor="middle" x="279.08" y="-176.3" font-family="Times New Roman,serif" font-size="14.00">Block Position</text>
</g>
<!-- 0&#45;&gt;1 -->
<g id="edge1" class="edge">
<title>0&#45;&gt;1</title>
<path fill="none" stroke="black" d="M117.99,-115.38C141.45,-126.51 173.54,-141.29 202.39,-153 210.56,-156.32 219.31,-159.64 227.85,-162.77"/>
<polygon fill="black" stroke="black" points="226.78,-166.1 237.37,-166.2 229.16,-159.52 226.78,-166.1"/>
</g>
<!-- 3 -->
<!-- name: &quot;Block Runtime ID&quot;, typeName: &quot;&quot;, id: 3, branchId: 0, recurseId: &#45;1, attributes: 0, notes: &quot;&quot; -->
<g id="node4" class="node">
<title>3</title>
<ellipse fill="none" stroke="black" cx="279.08" cy="-126" rx="76.89" ry="18"/>
<text text-anchor="middle" x="279.08" y="-122.3" font-family="Times New Roman,serif" font-size="14.00">Block Runtime ID</text>
</g>
<!-- 0&#45;&gt;3 -->
<g id="edge3" class="edge">
<title>0&#45;&gt;3</title>
<path fill="none" stroke="black" d="M153.64,-108.67C169.57,-110.89 186.58,-113.26 202.74,-115.51"/>
<polygon fill="black" stroke="black" points="202.29,-118.98 212.68,-116.89 203.25,-112.05 202.29,-118.98"/>
</g>
<!-- 5 -->
<!-- name: &quot;Flags&quot;, typeName: &quot;&quot;, id: 5, branchId: 0, recurseId: &#45;1, attributes: 0, notes: &quot;&quot; -->
<g id="node6" class="node">
<title>5</title>
<ellipse fill="none" stroke="black" cx="279.08" cy="-72" rx="30.59" ry="18"/>
<text text-anchor="middle" x="279.08" y="-68.3" font-family="Times New Roman,serif" font-size="14.00">Flags</text>
</g>
<!-- 0&#45;&gt;5 -->
<g id="edge5" class="edge">
<title>0&#45;&gt;5</title>
<path fill="none" stroke="black" d="M153.64,-89.33C182.45,-85.32 214.79,-80.81 239.28,-77.4"/>
<polygon fill="black" stroke="black" points="239.84,-80.86 249.26,-76.01 238.87,-73.93 239.84,-80.86"/>
</g>
<!-- 7 -->
<!-- name: &quot;Layer&quot;, typeName: &quot;&quot;, id: 7, branchId: 0, recurseId: &#45;1, attributes: 0, notes: &quot;&quot; -->
<g id="node8" class="node">
<title>7</title>
<ellipse fill="none" stroke="black" cx="279.08" cy="-18" rx="31.4" ry="18"/>
<text text-anchor="middle" x="279.08" y="-14.3" font-family="Times New Roman,serif" font-size="14.00">Layer</text>
</g>
<!-- 0&#45;&gt;7 -->
<g id="edge7" class="edge">
<title>0&#45;&gt;7</title>
<path fill="none" stroke="black" d="M117.99,-82.62C141.45,-71.49 173.54,-56.71 202.39,-45 215.14,-39.82 229.3,-34.63 241.89,-30.2"/>
<polygon fill="black" stroke="black" points="243.3,-33.41 251.6,-26.82 241,-26.8 243.3,-33.41"/>
</g>
<!-- 2 -->
<!-- name: &quot;NetworkBlockPosition&quot;, typeName: &quot;&quot;, id: 2, branchId: 0, recurseId: &#45;1, attributes: 512, notes: &quot;&quot; -->
<g id="node3" class="node">
<title>2</title>
<ellipse fill="none" stroke="black" cx="484.71" cy="-180" rx="92.88" ry="18"/>
<text text-anchor="middle" x="484.71" y="-176.3" font-family="Times New Roman,serif" font-size="14.00">NetworkBlockPosition</text>
</g>
<!-- 1&#45;&gt;2 -->
<g id="edge2" class="edge">
<title>1&#45;&gt;2</title>
<path fill="none" stroke="black" d="M343.67,-180C355.64,-180 368.44,-180 381.25,-180"/>
<polygon fill="black" stroke="black" points="381.51,-183.5 391.51,-180 381.51,-176.5 381.51,-183.5"/>
</g>
<!-- 4 -->
<!-- name: &quot;unsigned varint&quot;, typeName: &quot;&quot;, id: 4, branchId: 0, recurseId: &#45;1, attributes: 512, notes: &quot;&quot; -->
<g id="node5" class="node">
<title>4</title>
<ellipse fill="none" stroke="black" cx="484.71" cy="-126" rx="65.79" ry="18"/>
<text text-anchor="middle" x="484.71" y="-122.3" font-family="Times New Roman,serif" font-size="14.00">unsigned varint</text>
</g>
<!-- 3&#45;&gt;4 -->
<g id="edge4" class="edge">
<title>3&#45;&gt;4</title>
<path fill="none" stroke="black" d="M355.9,-126C373.2,-126 391.57,-126 408.83,-126"/>
<polygon fill="black" stroke="black" points="408.85,-129.5 418.85,-126 408.85,-122.5 408.85,-129.5"/>
</g>
<!-- 6 -->
<!-- name: &quot;unsigned varint&quot;, typeName: &quot;&quot;, id: 6, branchId: 0, recurseId: &#45;1, attributes: 512, notes: &quot;&quot; -->
<g id="node7" class="node">
<title>6</title>
<ellipse fill="none" stroke="black" cx="484.71" cy="-72" rx="65.79" ry="18"/>
<text text-anchor="middle" x="484.71" y="-68.3" font-family="Times New Roman,serif" font-size="14.00">unsigned varint</text>
</g>
<!-- 5&#45;&gt;6 -->
<g id="edge6" class="edge">
<title>5&#45;&gt;6</title>
<path fill="none" stroke="black" d="M309.69,-72C335.59,-72 374.34,-72 408.7,-72"/>
<polygon fill="black" stroke="black" points="408.73,-75.5 418.73,-72 408.73,-68.5 408.73,-75.5"/>
</g>
<!-- 8 -->
<!-- name: &quot;unsigned varint&quot;, typeName: &quot;&quot;, id: 8, branchId: 0, recurseId: &#45;1, attributes: 512, notes: &quot;&quot; -->
<g id="node9" class="node">
<title>8</title>
<ellipse fill="none" stroke="black" cx="484.71" cy="-18" rx="65.79" ry="18"/>
<text text-anchor="middle" x="484.71" y="-14.3" font-family="Times New Roman,serif" font-size="14.00">unsigned varint</text>
</g>
<!-- 7&#45;&gt;8 -->
<g id="edge8" class="edge">
<title>7&#45;&gt;8</title>
<path fill="none" stroke="black" d="M310.56,-18C336.41,-18 374.57,-18 408.49,-18"/>
<polygon fill="black" stroke="black" points="408.87,-21.5 418.87,-18 408.87,-14.5 408.87,-21.5"/>
</g>
</g>
</svg>
