<?xml version="1.0" encoding="UTF-8" standalone="no"?>
<!DOCTYPE svg PUBLIC "-//W3C//DTD SVG 1.1//EN"
 "http://www.w3.org/Graphics/SVG/1.1/DTD/svg11.dtd">
<!-- Generated by graphviz version 13.1.2 (20250808.2320)
 -->
<!-- Title: UpdateTradePacket Pages: 1 -->
<svg width="791pt" height="530pt"
 viewBox="0.00 0.00 791.00 530.00" xmlns="http://www.w3.org/2000/svg" xmlns:xlink="http://www.w3.org/1999/xlink">
<g id="graph0" class="graph" transform="scale(1 1) rotate(0) translate(4 526)">
<title>UpdateTradePacket</title>
<polygon fill="white" stroke="none" points="-4,4 -4,-526 786.9,-526 786.9,4 -4,4"/>
<!-- 0 -->
<!-- name: &quot;UpdateTradePacket&quot;, typeName: &quot;&quot;, id: 0, branchId: 0, recurseId: &#45;1, attributes: 0, notes: &quot;This is used when the player trades with an npc. This sends all of the updated trade info in one big ol&#39; packet.&quot; -->
<g id="node1" class="node">
<title>0</title>
<ellipse fill="none" stroke="black" cx="83.6" cy="-261" rx="83.6" ry="18"/>
<text xml:space="preserve" text-anchor="middle" x="83.6" y="-255.95" font-family="Times New Roman,serif" font-size="14.00">UpdateTradePacket</text>
</g>
<!-- 1 -->
<!-- name: &quot;Container Id&quot;, typeName: &quot;&quot;, id: 1, branchId: 0, recurseId: &#45;1, attributes: 0, notes: &quot;&quot; -->
<g id="node2" class="node">
<title>1</title>
<ellipse fill="none" stroke="black" cx="526.83" cy="-503" rx="57.49" ry="18"/>
<text xml:space="preserve" text-anchor="middle" x="526.83" y="-497.95" font-family="Times New Roman,serif" font-size="14.00">Container Id</text>
</g>
<!-- 0&#45;&gt;1 -->
<g id="edge1" class="edge">
<title>0&#45;&gt;1</title>
<path fill="none" stroke="black" d="M91.42,-279.41C105.92,-315.84 143.48,-397.04 203.19,-437 279.93,-488.36 388.26,-501.18 457.77,-503.65"/>
<polygon fill="black" stroke="black" points="457.4,-507.14 467.5,-503.93 457.6,-500.15 457.4,-507.14"/>
</g>
<!-- 3 -->
<!-- name: &quot;Type&quot;, typeName: &quot;&quot;, id: 3, branchId: 0, recurseId: &#45;1, attributes: 0, notes: &quot;&quot; -->
<g id="node4" class="node">
<title>3</title>
<ellipse fill="none" stroke="black" cx="526.83" cy="-447" rx="29.34" ry="18"/>
<text xml:space="preserve" text-anchor="middle" x="526.83" y="-441.95" font-family="Times New Roman,serif" font-size="14.00">Type</text>
</g>
<!-- 0&#45;&gt;3 -->
<g id="edge3" class="edge">
<title>0&#45;&gt;3</title>
<path fill="none" stroke="black" d="M94.25,-278.96C111.61,-309.33 151.19,-370.3 203.19,-399 294.91,-449.62 422.54,-452.15 486.29,-449.65"/>
<polygon fill="black" stroke="black" points="486.09,-453.17 495.92,-449.21 485.77,-446.17 486.09,-453.17"/>
</g>
<!-- 5 -->
<!-- name: &quot;Size&quot;, typeName: &quot;&quot;, id: 5, branchId: 0, recurseId: &#45;1, attributes: 0, notes: &quot;&quot; -->
<g id="node6" class="node">
<title>5</title>
<ellipse fill="none" stroke="black" cx="526.83" cy="-392" rx="27" ry="18"/>
<text xml:space="preserve" text-anchor="middle" x="526.83" y="-386.95" font-family="Times New Roman,serif" font-size="14.00">Size</text>
</g>
<!-- 0&#45;&gt;5 -->
<g id="edge5" class="edge">
<title>0&#45;&gt;5</title>
<path fill="none" stroke="black" d="M97.89,-279.1C117.65,-304.39 157.37,-349.36 203.19,-369 299.68,-410.36 427.31,-403.58 489.13,-396.91"/>
<polygon fill="black" stroke="black" points="489.2,-400.42 498.74,-395.81 488.4,-393.47 489.2,-400.42"/>
</g>
<!-- 7 -->
<!-- name: &quot;Trader Tier&quot;, typeName: &quot;&quot;, id: 7, branchId: 0, recurseId: &#45;1, attributes: 0, notes: &quot;&quot; -->
<g id="node8" class="node">
<title>7</title>
<ellipse fill="none" stroke="black" cx="299.58" cy="-342" rx="52.89" ry="18"/>
<text xml:space="preserve" text-anchor="middle" x="299.58" y="-336.95" font-family="Times New Roman,serif" font-size="14.00">Trader Tier</text>
</g>
<!-- 0&#45;&gt;7 -->
<g id="edge7" class="edge">
<title>0&#45;&gt;7</title>
<path fill="none" stroke="black" d="M118.02,-277.87C141.47,-289.29 173.77,-304.21 203.19,-315 216.58,-319.91 231.29,-324.47 245.07,-328.39"/>
<polygon fill="black" stroke="black" points="243.85,-331.69 254.42,-330.99 245.72,-324.94 243.85,-331.69"/>
</g>
<!-- 9 -->
<!-- name: &quot;Entity Unique Id&quot;, typeName: &quot;&quot;, id: 9, branchId: 0, recurseId: &#45;1, attributes: 0, notes: &quot;&quot; -->
<g id="node10" class="node">
<title>9</title>
<ellipse fill="none" stroke="black" cx="299.58" cy="-288" rx="73.36" ry="18"/>
<text xml:space="preserve" text-anchor="middle" x="299.58" y="-282.95" font-family="Times New Roman,serif" font-size="14.00">Entity Unique Id</text>
</g>
<!-- 0&#45;&gt;9 -->
<g id="edge9" class="edge">
<title>0&#45;&gt;9</title>
<path fill="none" stroke="black" d="M156.74,-270.1C177.83,-272.76 200.94,-275.68 222.27,-278.37"/>
<polygon fill="black" stroke="black" points="221.72,-281.83 232.08,-279.61 222.59,-274.88 221.72,-281.83"/>
</g>
<!-- 12 -->
<!-- name: &quot;Last Trading Player&quot;, typeName: &quot;&quot;, id: 12, branchId: 0, recurseId: &#45;1, attributes: 0, notes: &quot;&quot; -->
<g id="node13" class="node">
<title>12</title>
<ellipse fill="none" stroke="black" cx="299.58" cy="-234" rx="84.11" ry="18"/>
<text xml:space="preserve" text-anchor="middle" x="299.58" y="-228.95" font-family="Times New Roman,serif" font-size="14.00">Last Trading Player</text>
</g>
<!-- 0&#45;&gt;12 -->
<g id="edge12" class="edge">
<title>0&#45;&gt;12</title>
<path fill="none" stroke="black" d="M156.74,-251.9C175.51,-249.53 195.88,-246.96 215.17,-244.52"/>
<polygon fill="black" stroke="black" points="215.4,-248.02 224.88,-243.3 214.52,-241.08 215.4,-248.02"/>
</g>
<!-- 15 -->
<!-- name: &quot;Display Name&quot;, typeName: &quot;&quot;, id: 15, branchId: 0, recurseId: &#45;1, attributes: 0, notes: &quot;&quot; -->
<g id="node16" class="node">
<title>15</title>
<ellipse fill="none" stroke="black" cx="299.58" cy="-180" rx="64.66" ry="18"/>
<text xml:space="preserve" text-anchor="middle" x="299.58" y="-174.95" font-family="Times New Roman,serif" font-size="14.00">Display Name</text>
</g>
<!-- 0&#45;&gt;15 -->
<g id="edge15" class="edge">
<title>0&#45;&gt;15</title>
<path fill="none" stroke="black" d="M118.02,-244.13C141.47,-232.71 173.77,-217.79 203.19,-207 214.82,-202.73 227.45,-198.73 239.6,-195.19"/>
<polygon fill="black" stroke="black" points="240.46,-198.58 249.12,-192.47 238.55,-191.85 240.46,-198.58"/>
</g>
<!-- 17 -->
<!-- name: &quot;Use New Trade Screen&quot;, typeName: &quot;&quot;, id: 17, branchId: 0, recurseId: &#45;1, attributes: 0, notes: &quot;&quot; -->
<g id="node18" class="node">
<title>17</title>
<ellipse fill="none" stroke="black" cx="299.58" cy="-126" rx="96.39" ry="18"/>
<text xml:space="preserve" text-anchor="middle" x="299.58" y="-120.95" font-family="Times New Roman,serif" font-size="14.00">Use New Trade Screen</text>
</g>
<!-- 0&#45;&gt;17 -->
<g id="edge17" class="edge">
<title>0&#45;&gt;17</title>
<path fill="none" stroke="black" d="M99.55,-242.93C120.36,-218.93 160.35,-176.81 203.19,-153 209.71,-149.38 216.76,-146.21 223.96,-143.44"/>
<polygon fill="black" stroke="black" points="224.91,-146.82 233.17,-140.17 222.57,-140.22 224.91,-146.82"/>
</g>
<!-- 19 -->
<!-- name: &quot;Using Economy Trade&quot;, typeName: &quot;&quot;, id: 19, branchId: 0, recurseId: &#45;1, attributes: 0, notes: &quot;When set to false, it means the packet comes from the old Trade Component.&quot; -->
<g id="node20" class="node">
<title>19</title>
<ellipse fill="none" stroke="black" cx="526.83" cy="-76" rx="94.86" ry="18"/>
<text xml:space="preserve" text-anchor="middle" x="526.83" y="-70.95" font-family="Times New Roman,serif" font-size="14.00">Using Economy Trade</text>
</g>
<!-- 0&#45;&gt;19 -->
<g id="edge19" class="edge">
<title>0&#45;&gt;19</title>
<path fill="none" stroke="black" d="M91.68,-242.85C106.42,-207.88 144.01,-131.72 203.19,-99 276.05,-58.72 372.72,-57.38 441.19,-63.39"/>
<polygon fill="black" stroke="black" points="440.56,-66.84 450.85,-64.31 441.22,-59.87 440.56,-66.84"/>
</g>
<!-- 21 -->
<!-- name: &quot;Data&quot;, typeName: &quot;&quot;, id: 21, branchId: 0, recurseId: &#45;1, attributes: 0, notes: &quot;&quot; -->
<g id="node22" class="node">
<title>21</title>
<ellipse fill="none" stroke="black" cx="299.58" cy="-22" rx="28.32" ry="18"/>
<text xml:space="preserve" text-anchor="middle" x="299.58" y="-16.95" font-family="Times New Roman,serif" font-size="14.00">Data</text>
</g>
<!-- 0&#45;&gt;21 -->
<g id="edge21" class="edge">
<title>0&#45;&gt;21</title>
<path fill="none" stroke="black" d="M90.95,-242.73C105.2,-204.25 143.22,-114.09 203.19,-62 219.96,-47.43 242.8,-37.6 261.93,-31.33"/>
<polygon fill="black" stroke="black" points="262.7,-34.76 271.24,-28.49 260.65,-28.06 262.7,-34.76"/>
</g>
<!-- 2 -->
<!-- name: &quot;unsigned byte&quot;, typeName: &quot;&quot;, id: 2, branchId: 0, recurseId: &#45;1, attributes: 512, notes: &quot;&quot; -->
<g id="node3" class="node">
<title>2</title>
<ellipse fill="none" stroke="black" cx="720.29" cy="-504" rx="62.61" ry="18"/>
<text xml:space="preserve" text-anchor="middle" x="720.29" y="-498.95" font-family="Times New Roman,serif" font-size="14.00">unsigned byte</text>
</g>
<!-- 1&#45;&gt;2 -->
<g id="edge2" class="edge">
<title>1&#45;&gt;2</title>
<path fill="none" stroke="black" d="M584.75,-503.3C603.92,-503.4 625.58,-503.51 645.83,-503.62"/>
<polygon fill="black" stroke="black" points="645.71,-507.12 655.72,-503.67 645.74,-500.12 645.71,-507.12"/>
</g>
<!-- 4 -->
<!-- name: &quot;unsigned byte&quot;, typeName: &quot;&quot;, id: 4, branchId: 0, recurseId: &#45;1, attributes: 512, notes: &quot;&quot; -->
<g id="node5" class="node">
<title>4</title>
<ellipse fill="none" stroke="black" cx="720.29" cy="-450" rx="62.61" ry="18"/>
<text xml:space="preserve" text-anchor="middle" x="720.29" y="-444.95" font-family="Times New Roman,serif" font-size="14.00">unsigned byte</text>
</g>
<!-- 3&#45;&gt;4 -->
<g id="edge4" class="edge">
<title>3&#45;&gt;4</title>
<path fill="none" stroke="black" d="M556.49,-447.45C580.18,-447.82 614.89,-448.36 646.18,-448.85"/>
<polygon fill="black" stroke="black" points="645.96,-452.35 656.01,-449.01 646.07,-445.35 645.96,-452.35"/>
</g>
<!-- 6 -->
<!-- name: &quot;varint&quot;, typeName: &quot;&quot;, id: 6, branchId: 0, recurseId: &#45;1, attributes: 512, notes: &quot;&quot; -->
<g id="node7" class="node">
<title>6</title>
<ellipse fill="none" stroke="black" cx="720.29" cy="-396" rx="32.41" ry="18"/>
<text xml:space="preserve" text-anchor="middle" x="720.29" y="-390.95" font-family="Times New Roman,serif" font-size="14.00">varint</text>
</g>
<!-- 5&#45;&gt;6 -->
<g id="edge6" class="edge">
<title>5&#45;&gt;6</title>
<path fill="none" stroke="black" d="M554.05,-392.55C585.61,-393.21 639.03,-394.32 676.57,-395.11"/>
<polygon fill="black" stroke="black" points="676.08,-398.6 686.15,-395.31 676.23,-391.6 676.08,-398.6"/>
</g>
<!-- 8 -->
<!-- name: &quot;varint&quot;, typeName: &quot;&quot;, id: 8, branchId: 0, recurseId: &#45;1, attributes: 512, notes: &quot;&quot; -->
<g id="node9" class="node">
<title>8</title>
<ellipse fill="none" stroke="black" cx="720.29" cy="-342" rx="32.41" ry="18"/>
<text xml:space="preserve" text-anchor="middle" x="720.29" y="-336.95" font-family="Times New Roman,serif" font-size="14.00">varint</text>
</g>
<!-- 7&#45;&gt;8 -->
<g id="edge8" class="edge">
<title>7&#45;&gt;8</title>
<path fill="none" stroke="black" d="M352.76,-342C436.38,-342 598.83,-342 676.25,-342"/>
<polygon fill="black" stroke="black" points="675.96,-345.5 685.96,-342 675.96,-338.5 675.96,-345.5"/>
</g>
<!-- 10 -->
<!-- name: &quot;Actor Unique ID&quot;, typeName: &quot;&quot;, id: 10, branchId: 0, recurseId: &#45;1, attributes: 0, notes: &quot;&quot; -->
<g id="node11" class="node">
<title>10</title>
<ellipse fill="none" stroke="black" cx="526.83" cy="-288" rx="73.87" ry="18"/>
<text xml:space="preserve" text-anchor="middle" x="526.83" y="-282.95" font-family="Times New Roman,serif" font-size="14.00">Actor Unique ID</text>
</g>
<!-- 9&#45;&gt;10 -->
<g id="edge10" class="edge">
<title>9&#45;&gt;10</title>
<path fill="none" stroke="black" d="M373.4,-288C394.96,-288 418.76,-288 441.01,-288"/>
<polygon fill="black" stroke="black" points="440.97,-291.5 450.97,-288 440.97,-284.5 440.97,-291.5"/>
</g>
<!-- 11 -->
<!-- name: &quot;varint64&quot;, typeName: &quot;&quot;, id: 11, branchId: 0, recurseId: &#45;1, attributes: 512, notes: &quot;&quot; -->
<g id="node12" class="node">
<title>11</title>
<ellipse fill="none" stroke="black" cx="720.29" cy="-288" rx="41.63" ry="18"/>
<text xml:space="preserve" text-anchor="middle" x="720.29" y="-282.95" font-family="Times New Roman,serif" font-size="14.00">varint64</text>
</g>
<!-- 10&#45;&gt;11 -->
<g id="edge11" class="edge">
<title>10&#45;&gt;11</title>
<path fill="none" stroke="black" d="M601.03,-288C623.02,-288 646.69,-288 667.03,-288"/>
<polygon fill="black" stroke="black" points="666.76,-291.5 676.76,-288 666.76,-284.5 666.76,-291.5"/>
</g>
<!-- 13 -->
<!-- name: &quot;Actor Unique ID&quot;, typeName: &quot;&quot;, id: 13, branchId: 0, recurseId: &#45;1, attributes: 0, notes: &quot;&quot; -->
<g id="node14" class="node">
<title>13</title>
<ellipse fill="none" stroke="black" cx="526.83" cy="-234" rx="73.87" ry="18"/>
<text xml:space="preserve" text-anchor="middle" x="526.83" y="-228.95" font-family="Times New Roman,serif" font-size="14.00">Actor Unique ID</text>
</g>
<!-- 12&#45;&gt;13 -->
<g id="edge13" class="edge">
<title>12&#45;&gt;13</title>
<path fill="none" stroke="black" d="M384.13,-234C402.8,-234 422.6,-234 441.3,-234"/>
<polygon fill="black" stroke="black" points="441.27,-237.5 451.27,-234 441.27,-230.5 441.27,-237.5"/>
</g>
<!-- 14 -->
<!-- name: &quot;varint64&quot;, typeName: &quot;&quot;, id: 14, branchId: 0, recurseId: &#45;1, attributes: 512, notes: &quot;&quot; -->
<g id="node15" class="node">
<title>14</title>
<ellipse fill="none" stroke="black" cx="720.29" cy="-234" rx="41.63" ry="18"/>
<text xml:space="preserve" text-anchor="middle" x="720.29" y="-228.95" font-family="Times New Roman,serif" font-size="14.00">varint64</text>
</g>
<!-- 13&#45;&gt;14 -->
<g id="edge14" class="edge">
<title>13&#45;&gt;14</title>
<path fill="none" stroke="black" d="M601.03,-234C623.02,-234 646.69,-234 667.03,-234"/>
<polygon fill="black" stroke="black" points="666.76,-237.5 676.76,-234 666.76,-230.5 666.76,-237.5"/>
</g>
<!-- 16 -->
<!-- name: &quot;string&quot;, typeName: &quot;&quot;, id: 16, branchId: 0, recurseId: &#45;1, attributes: 512, notes: &quot;&quot; -->
<g id="node17" class="node">
<title>16</title>
<ellipse fill="none" stroke="black" cx="720.29" cy="-180" rx="31.9" ry="18"/>
<text xml:space="preserve" text-anchor="middle" x="720.29" y="-174.95" font-family="Times New Roman,serif" font-size="14.00">string</text>
</g>
<!-- 15&#45;&gt;16 -->
<g id="edge16" class="edge">
<title>15&#45;&gt;16</title>
<path fill="none" stroke="black" d="M364.63,-180C451.18,-180 603.1,-180 676.8,-180"/>
<polygon fill="black" stroke="black" points="676.42,-183.5 686.42,-180 676.42,-176.5 676.42,-183.5"/>
</g>
<!-- 18 -->
<!-- name: &quot;bool&quot;, typeName: &quot;&quot;, id: 18, branchId: 0, recurseId: &#45;1, attributes: 512, notes: &quot;&quot; -->
<g id="node19" class="node">
<title>18</title>
<ellipse fill="none" stroke="black" cx="720.29" cy="-126" rx="27.3" ry="18"/>
<text xml:space="preserve" text-anchor="middle" x="720.29" y="-120.95" font-family="Times New Roman,serif" font-size="14.00">bool</text>
</g>
<!-- 17&#45;&gt;18 -->
<g id="edge18" class="edge">
<title>17&#45;&gt;18</title>
<path fill="none" stroke="black" d="M396.38,-126C486.64,-126 617.28,-126 681.19,-126"/>
<polygon fill="black" stroke="black" points="681.17,-129.5 691.17,-126 681.17,-122.5 681.17,-129.5"/>
</g>
<!-- 20 -->
<!-- name: &quot;bool&quot;, typeName: &quot;&quot;, id: 20, branchId: 0, recurseId: &#45;1, attributes: 512, notes: &quot;When set to false, it means the packet comes from the old Trade Component.&quot; -->
<g id="node21" class="node">
<title>20</title>
<ellipse fill="none" stroke="black" cx="720.29" cy="-72" rx="27.3" ry="18"/>
<text xml:space="preserve" text-anchor="middle" x="720.29" y="-66.95" font-family="Times New Roman,serif" font-size="14.00">bool</text>
</g>
<!-- 19&#45;&gt;20 -->
<g id="edge20" class="edge">
<title>19&#45;&gt;20</title>
<path fill="none" stroke="black" d="M621.6,-74.04C642.84,-73.6 664.22,-73.15 681.54,-72.79"/>
<polygon fill="black" stroke="black" points="681.39,-76.29 691.31,-72.58 681.24,-69.29 681.39,-76.29"/>
</g>
<!-- 22 -->
<!-- name: &quot;&quot;, typeName: &quot;&quot;, id: 22, branchId: 0, recurseId: &#45;1, attributes: 512, notes: &quot;&quot; -->
<g id="node23" class="node">
<title>22</title>
<ellipse fill="none" stroke="black" cx="720.29" cy="-18" rx="27" ry="18"/>
</g>
<!-- 21&#45;&gt;22 -->
<g id="edge22" class="edge">
<title>21&#45;&gt;22</title>
<path fill="none" stroke="black" d="M328.38,-21.73C401.32,-21.04 598.31,-19.16 681.45,-18.36"/>
<polygon fill="black" stroke="black" points="681.38,-21.86 691.35,-18.27 681.31,-14.86 681.38,-21.86"/>
</g>
</g>
</svg>
