<?xml version="1.0" encoding="UTF-8" standalone="no"?>
<!DOCTYPE svg PUBLIC "-//W3C//DTD SVG 1.1//EN"
 "http://www.w3.org/Graphics/SVG/1.1/DTD/svg11.dtd">
<!-- Generated by graphviz version 11.0.0 (20240428.1522)
 -->
<!-- Title: UpdateAttributesPacket Pages: 1 -->
<svg width="1255pt" height="908pt"
 viewBox="0.00 0.00 1255.26 908.00" xmlns="http://www.w3.org/2000/svg" xmlns:xlink="http://www.w3.org/1999/xlink">
<g id="graph0" class="graph" transform="scale(1 1) rotate(0) translate(4 904)">
<title>UpdateAttributesPacket</title>
<polygon fill="white" stroke="none" points="-4,4 -4,-904 1251.26,-904 1251.26,4 -4,4"/>
<!-- 0 -->
<!-- name: &quot;UpdateAttributesPacket&quot;, typeName: &quot;&quot;, id: 0, branchId: 29, recurseId: &#45;1, attributes: 0, notes: &quot;&quot; -->
<g id="node1" class="node">
<title>0</title>
<ellipse fill="none" stroke="black" cx="98.97" cy="-652" rx="98.97" ry="18"/>
<text text-anchor="middle" x="98.97" y="-646.58" font-family="Times New Roman,serif" font-size="14.00">UpdateAttributesPacket</text>
</g>
<!-- 1 -->
<!-- name: &quot;RuntimeID&quot;, typeName: &quot;ActorRuntimeID&quot;, id: 1, branchId: 0, recurseId: &#45;1, attributes: 256, notes: &quot;Target Runtime ID&quot; -->
<g id="node2" class="node">
<title>1</title>
<ellipse fill="none" stroke="black" cx="460.55" cy="-868" rx="51.06" ry="18"/>
<text text-anchor="middle" x="460.55" y="-862.58" font-family="Times New Roman,serif" font-size="14.00">RuntimeID</text>
</g>
<!-- 0&#45;&gt;1 -->
<g id="edge1" class="edge">
<title>0&#45;&gt;1</title>
<path fill="none" stroke="black" d="M129.09,-669.49C194.43,-708.74 352.54,-803.72 423.74,-846.49"/>
<polygon fill="black" stroke="black" points="421.92,-849.48 432.3,-851.63 425.53,-843.48 421.92,-849.48"/>
</g>
<!-- 3 -->
<!-- name: &quot;Attribute List&quot;, typeName: &quot;&quot;, id: 3, branchId: 0, recurseId: &#45;1, attributes: 8, notes: &quot;AttributeData &#45; Helper Struct&quot; -->
<g id="node4" class="node">
<title>3</title>
<ellipse fill="none" stroke="black" cx="293.48" cy="-652" rx="59.55" ry="18"/>
<text text-anchor="middle" x="293.48" y="-646.58" font-family="Times New Roman,serif" font-size="14.00">Attribute List</text>
</g>
<!-- 0&#45;&gt;3 -->
<g id="edge3" class="edge">
<title>0&#45;&gt;3</title>
<path fill="none" stroke="black" d="M198.2,-652C206.3,-652 214.37,-652 222.2,-652"/>
<polygon fill="black" stroke="black" points="221.96,-655.5 231.96,-652 221.96,-648.5 221.96,-655.5"/>
</g>
<!-- 37 -->
<!-- name: &quot;Tick&quot;, typeName: &quot;PlayerInputTick&quot;, id: 37, branchId: 0, recurseId: &#45;1, attributes: 256, notes: &quot;If this packet is referring to the player or a client predicted vehicle they are in control of, this should be the most recently processed PlayerInputTick from their PlayerAuthInputPacket. Otherwise zero.&quot; -->
<g id="node38" class="node">
<title>37</title>
<ellipse fill="none" stroke="black" cx="293.48" cy="-328" rx="27.61" ry="18"/>
<text text-anchor="middle" x="293.48" y="-322.57" font-family="Times New Roman,serif" font-size="14.00">Tick</text>
</g>
<!-- 0&#45;&gt;37 -->
<g id="edge37" class="edge">
<title>0&#45;&gt;37</title>
<path fill="none" stroke="black" d="M110.87,-633.65C143.19,-579.25 238.62,-418.66 276.61,-354.71"/>
<polygon fill="black" stroke="black" points="279.53,-356.65 281.63,-346.27 273.51,-353.08 279.53,-356.65"/>
</g>
<!-- 2 -->
<!-- name: &quot;ActorRuntimeID&quot;, typeName: &quot;&quot;, id: 2, branchId: 0, recurseId: &#45;1, attributes: 512, notes: &quot;&quot; -->
<g id="node3" class="node">
<title>2</title>
<ellipse fill="none" stroke="black" cx="1174.74" cy="-882" rx="72.52" ry="18"/>
<text text-anchor="middle" x="1174.74" y="-876.58" font-family="Times New Roman,serif" font-size="14.00">ActorRuntimeID</text>
</g>
<!-- 1&#45;&gt;2 -->
<g id="edge2" class="edge">
<title>1&#45;&gt;2</title>
<path fill="none" stroke="black" d="M511.91,-868.99C633.1,-871.37 941.93,-877.44 1090.89,-880.37"/>
<polygon fill="black" stroke="black" points="1090.62,-883.87 1100.69,-880.56 1090.76,-876.87 1090.62,-883.87"/>
</g>
<!-- 4 -->
<!-- name: &quot;Array Size&quot;, typeName: &quot;&quot;, id: 4, branchId: 0, recurseId: &#45;1, attributes: 0, notes: &quot;&quot; -->
<g id="node5" class="node">
<title>4</title>
<ellipse fill="none" stroke="black" cx="834.61" cy="-824" rx="49.57" ry="18"/>
<text text-anchor="middle" x="834.61" y="-818.58" font-family="Times New Roman,serif" font-size="14.00">Array Size</text>
</g>
<!-- 3&#45;&gt;4 -->
<g id="edge4" class="edge">
<title>3&#45;&gt;4</title>
<path fill="none" stroke="black" d="M335.45,-665.07C433.36,-696.31 680.62,-775.19 785.44,-808.63"/>
<polygon fill="black" stroke="black" points="784.29,-811.94 794.88,-811.64 786.41,-805.27 784.29,-811.94"/>
</g>
<!-- 6 -->
<!-- name: &quot;example element&quot;, typeName: &quot;&quot;, id: 6, branchId: 0, recurseId: &#45;1, attributes: 16, notes: &quot;&quot; -->
<g id="node7" class="node">
<title>6</title>
<ellipse fill="none" stroke="black" stroke-dasharray="1,5" cx="460.55" cy="-612" rx="71.52" ry="18"/>
<text text-anchor="middle" x="460.55" y="-606.58" font-family="Times New Roman,serif" font-size="14.00">example element</text>
</g>
<!-- 3&#45;&gt;6 -->
<g id="edge6" class="edge">
<title>3&#45;&gt;6</title>
<path fill="none" stroke="black" d="M340.9,-640.75C358.28,-636.54 378.31,-631.69 396.92,-627.18"/>
<polygon fill="black" stroke="black" points="397.61,-630.61 406.5,-624.86 395.96,-623.81 397.61,-630.61"/>
</g>
<!-- 5 -->
<!-- name: &quot;unsigned varint&quot;, typeName: &quot;&quot;, id: 5, branchId: 0, recurseId: &#45;1, attributes: 512, notes: &quot;&quot; -->
<g id="node6" class="node">
<title>5</title>
<ellipse fill="none" stroke="black" cx="1174.74" cy="-828" rx="66.53" ry="18"/>
<text text-anchor="middle" x="1174.74" y="-822.58" font-family="Times New Roman,serif" font-size="14.00">unsigned varint</text>
</g>
<!-- 4&#45;&gt;5 -->
<g id="edge5" class="edge">
<title>4&#45;&gt;5</title>
<path fill="none" stroke="black" d="M884.42,-824.58C939.88,-825.23 1031.16,-826.31 1096.36,-827.08"/>
<polygon fill="black" stroke="black" points="1096.25,-830.58 1106.29,-827.2 1096.33,-823.58 1096.25,-830.58"/>
</g>
<!-- 7 -->
<!-- name: &quot;Min Value&quot;, typeName: &quot;&quot;, id: 7, branchId: 0, recurseId: &#45;1, attributes: 0, notes: &quot;&quot; -->
<g id="node8" class="node">
<title>7</title>
<ellipse fill="none" stroke="black" cx="834.61" cy="-770" rx="48.57" ry="18"/>
<text text-anchor="middle" x="834.61" y="-764.58" font-family="Times New Roman,serif" font-size="14.00">Min Value</text>
</g>
<!-- 6&#45;&gt;7 -->
<g id="edge7" class="edge">
<title>6&#45;&gt;7</title>
<path fill="none" stroke="black" d="M480.12,-629.56C500.31,-647.79 534.25,-675.98 568.07,-693 636.87,-727.62 723.73,-749.09 779,-760.29"/>
<polygon fill="black" stroke="black" points="777.98,-763.66 788.47,-762.17 779.34,-756.79 777.98,-763.66"/>
</g>
<!-- 9 -->
<!-- name: &quot;Max Value&quot;, typeName: &quot;&quot;, id: 9, branchId: 0, recurseId: &#45;1, attributes: 0, notes: &quot;&quot; -->
<g id="node10" class="node">
<title>9</title>
<ellipse fill="none" stroke="black" cx="834.61" cy="-715" rx="50.56" ry="18"/>
<text text-anchor="middle" x="834.61" y="-709.58" font-family="Times New Roman,serif" font-size="14.00">Max Value</text>
</g>
<!-- 6&#45;&gt;9 -->
<g id="edge9" class="edge">
<title>6&#45;&gt;9</title>
<path fill="none" stroke="black" d="M492.48,-628.54C513.34,-639.11 541.76,-652.4 568.07,-661 637.79,-683.79 721.08,-698.85 775.55,-707.14"/>
<polygon fill="black" stroke="black" points="774.82,-710.57 785.22,-708.58 775.85,-703.65 774.82,-710.57"/>
</g>
<!-- 11 -->
<!-- name: &quot;Current Value&quot;, typeName: &quot;&quot;, id: 11, branchId: 0, recurseId: &#45;1, attributes: 0, notes: &quot;&quot; -->
<g id="node12" class="node">
<title>11</title>
<ellipse fill="none" stroke="black" cx="834.61" cy="-659" rx="62.04" ry="18"/>
<text text-anchor="middle" x="834.61" y="-653.58" font-family="Times New Roman,serif" font-size="14.00">Current Value</text>
</g>
<!-- 6&#45;&gt;11 -->
<g id="edge11" class="edge">
<title>6&#45;&gt;11</title>
<path fill="none" stroke="black" d="M508.38,-625.73C526.83,-630.65 548.3,-635.77 568.07,-639 632.79,-649.56 707.31,-654.56 760.9,-656.91"/>
<polygon fill="black" stroke="black" points="760.7,-660.41 770.84,-657.33 760.99,-653.41 760.7,-660.41"/>
</g>
<!-- 13 -->
<!-- name: &quot;Default Min Value&quot;, typeName: &quot;&quot;, id: 13, branchId: 0, recurseId: &#45;1, attributes: 0, notes: &quot;&quot; -->
<g id="node14" class="node">
<title>13</title>
<ellipse fill="none" stroke="black" cx="647.58" cy="-612" rx="77.51" ry="18"/>
<text text-anchor="middle" x="647.58" y="-606.58" font-family="Times New Roman,serif" font-size="14.00">Default Min Value</text>
</g>
<!-- 6&#45;&gt;13 -->
<g id="edge13" class="edge">
<title>6&#45;&gt;13</title>
<path fill="none" stroke="black" d="M532.56,-612C540.99,-612 549.68,-612 558.31,-612"/>
<polygon fill="black" stroke="black" points="558.1,-615.5 568.1,-612 558.1,-608.5 558.1,-615.5"/>
</g>
<!-- 15 -->
<!-- name: &quot;Default Max Value&quot;, typeName: &quot;&quot;, id: 15, branchId: 0, recurseId: &#45;1, attributes: 0, notes: &quot;&quot; -->
<g id="node16" class="node">
<title>15</title>
<ellipse fill="none" stroke="black" cx="647.58" cy="-558" rx="79.51" ry="18"/>
<text text-anchor="middle" x="647.58" y="-552.58" font-family="Times New Roman,serif" font-size="14.00">Default Max Value</text>
</g>
<!-- 6&#45;&gt;15 -->
<g id="edge15" class="edge">
<title>6&#45;&gt;15</title>
<path fill="none" stroke="black" d="M508.24,-598.37C531.93,-591.46 560.98,-582.98 586.33,-575.58"/>
<polygon fill="black" stroke="black" points="587.24,-578.96 595.86,-572.8 585.28,-572.24 587.24,-578.96"/>
</g>
<!-- 17 -->
<!-- name: &quot;Default Value&quot;, typeName: &quot;&quot;, id: 17, branchId: 0, recurseId: &#45;1, attributes: 0, notes: &quot;&quot; -->
<g id="node18" class="node">
<title>17</title>
<ellipse fill="none" stroke="black" cx="647.58" cy="-504" rx="60.54" ry="18"/>
<text text-anchor="middle" x="647.58" y="-498.57" font-family="Times New Roman,serif" font-size="14.00">Default Value</text>
</g>
<!-- 6&#45;&gt;17 -->
<g id="edge17" class="edge">
<title>6&#45;&gt;17</title>
<path fill="none" stroke="black" d="M480.66,-594.43C501.04,-576.46 534.88,-548.74 568.07,-531 575.59,-526.99 583.82,-523.39 592.03,-520.22"/>
<polygon fill="black" stroke="black" points="593.13,-523.55 601.33,-516.84 590.74,-516.97 593.13,-523.55"/>
</g>
<!-- 19 -->
<!-- name: &quot;Attribute Name&quot;, typeName: &quot;&quot;, id: 19, branchId: 0, recurseId: &#45;1, attributes: 0, notes: &quot;&quot; -->
<g id="node20" class="node">
<title>19</title>
<ellipse fill="none" stroke="black" cx="647.58" cy="-450" rx="67.03" ry="18"/>
<text text-anchor="middle" x="647.58" y="-444.57" font-family="Times New Roman,serif" font-size="14.00">Attribute Name</text>
</g>
<!-- 6&#45;&gt;19 -->
<g id="edge19" class="edge">
<title>6&#45;&gt;19</title>
<path fill="none" stroke="black" d="M471.19,-593.98C487.46,-565.23 523.03,-508.96 568.07,-477 573.78,-472.95 580.15,-469.47 586.72,-466.48"/>
<polygon fill="black" stroke="black" points="587.84,-469.8 595.75,-462.76 585.17,-463.33 587.84,-469.8"/>
</g>
<!-- 21 -->
<!-- name: &quot;Attribute Modifier&quot;, typeName: &quot;&quot;, id: 21, branchId: 0, recurseId: &#45;1, attributes: 8, notes: &quot;&quot; -->
<g id="node22" class="node">
<title>21</title>
<ellipse fill="none" stroke="black" cx="647.58" cy="-396" rx="77.51" ry="18"/>
<text text-anchor="middle" x="647.58" y="-390.57" font-family="Times New Roman,serif" font-size="14.00">Attribute Modifier</text>
</g>
<!-- 6&#45;&gt;21 -->
<g id="edge21" class="edge">
<title>6&#45;&gt;21</title>
<path fill="none" stroke="black" d="M466.92,-593.79C478.88,-556.37 511.2,-470.36 568.07,-423 572.28,-419.5 576.97,-416.44 581.91,-413.77"/>
<polygon fill="black" stroke="black" points="583.41,-416.93 590.94,-409.47 580.4,-410.61 583.41,-416.93"/>
</g>
<!-- 8 -->
<!-- name: &quot;float&quot;, typeName: &quot;&quot;, id: 8, branchId: 0, recurseId: &#45;1, attributes: 512, notes: &quot;&quot; -->
<g id="node9" class="node">
<title>8</title>
<ellipse fill="none" stroke="black" cx="1174.74" cy="-774" rx="27.11" ry="18"/>
<text text-anchor="middle" x="1174.74" y="-768.58" font-family="Times New Roman,serif" font-size="14.00">float</text>
</g>
<!-- 7&#45;&gt;8 -->
<g id="edge8" class="edge">
<title>7&#45;&gt;8</title>
<path fill="none" stroke="black" d="M883.34,-770.56C951.23,-771.37 1074.31,-772.82 1136.14,-773.56"/>
<polygon fill="black" stroke="black" points="1135.75,-777.05 1145.79,-773.67 1135.83,-770.05 1135.75,-777.05"/>
</g>
<!-- 10 -->
<!-- name: &quot;float&quot;, typeName: &quot;&quot;, id: 10, branchId: 0, recurseId: &#45;1, attributes: 512, notes: &quot;&quot; -->
<g id="node11" class="node">
<title>10</title>
<ellipse fill="none" stroke="black" cx="1174.74" cy="-720" rx="27.11" ry="18"/>
<text text-anchor="middle" x="1174.74" y="-714.58" font-family="Times New Roman,serif" font-size="14.00">float</text>
</g>
<!-- 9&#45;&gt;10 -->
<g id="edge10" class="edge">
<title>9&#45;&gt;10</title>
<path fill="none" stroke="black" d="M885.5,-715.74C953.7,-716.75 1074.54,-718.53 1135.83,-719.44"/>
<polygon fill="black" stroke="black" points="1135.69,-722.94 1145.74,-719.59 1135.8,-715.94 1135.69,-722.94"/>
</g>
<!-- 12 -->
<!-- name: &quot;float&quot;, typeName: &quot;&quot;, id: 12, branchId: 0, recurseId: &#45;1, attributes: 512, notes: &quot;&quot; -->
<g id="node13" class="node">
<title>12</title>
<ellipse fill="none" stroke="black" cx="1174.74" cy="-666" rx="27.11" ry="18"/>
<text text-anchor="middle" x="1174.74" y="-660.58" font-family="Times New Roman,serif" font-size="14.00">float</text>
</g>
<!-- 11&#45;&gt;12 -->
<g id="edge12" class="edge">
<title>11&#45;&gt;12</title>
<path fill="none" stroke="black" d="M896.84,-660.27C966.64,-661.71 1078.51,-664.03 1136.37,-665.23"/>
<polygon fill="black" stroke="black" points="1135.95,-668.72 1146.02,-665.43 1136.09,-661.72 1135.95,-668.72"/>
</g>
<!-- 14 -->
<!-- name: &quot;float&quot;, typeName: &quot;&quot;, id: 14, branchId: 0, recurseId: &#45;1, attributes: 512, notes: &quot;&quot; -->
<g id="node15" class="node">
<title>14</title>
<ellipse fill="none" stroke="black" cx="1174.74" cy="-612" rx="27.11" ry="18"/>
<text text-anchor="middle" x="1174.74" y="-606.58" font-family="Times New Roman,serif" font-size="14.00">float</text>
</g>
<!-- 13&#45;&gt;14 -->
<g id="edge14" class="edge">
<title>13&#45;&gt;14</title>
<path fill="none" stroke="black" d="M725.51,-612C839.81,-612 1050.2,-612 1135.91,-612"/>
<polygon fill="black" stroke="black" points="1135.87,-615.5 1145.87,-612 1135.87,-608.5 1135.87,-615.5"/>
</g>
<!-- 16 -->
<!-- name: &quot;float&quot;, typeName: &quot;&quot;, id: 16, branchId: 0, recurseId: &#45;1, attributes: 512, notes: &quot;&quot; -->
<g id="node17" class="node">
<title>16</title>
<ellipse fill="none" stroke="black" cx="1174.74" cy="-558" rx="27.11" ry="18"/>
<text text-anchor="middle" x="1174.74" y="-552.58" font-family="Times New Roman,serif" font-size="14.00">float</text>
</g>
<!-- 15&#45;&gt;16 -->
<g id="edge16" class="edge">
<title>15&#45;&gt;16</title>
<path fill="none" stroke="black" d="M727.49,-558C842.23,-558 1050.72,-558 1135.92,-558"/>
<polygon fill="black" stroke="black" points="1135.83,-561.5 1145.83,-558 1135.83,-554.5 1135.83,-561.5"/>
</g>
<!-- 18 -->
<!-- name: &quot;float&quot;, typeName: &quot;&quot;, id: 18, branchId: 0, recurseId: &#45;1, attributes: 512, notes: &quot;&quot; -->
<g id="node19" class="node">
<title>18</title>
<ellipse fill="none" stroke="black" cx="1174.74" cy="-504" rx="27.11" ry="18"/>
<text text-anchor="middle" x="1174.74" y="-498.57" font-family="Times New Roman,serif" font-size="14.00">float</text>
</g>
<!-- 17&#45;&gt;18 -->
<g id="edge18" class="edge">
<title>17&#45;&gt;18</title>
<path fill="none" stroke="black" d="M708.57,-504C817.77,-504 1046.06,-504 1136.08,-504"/>
<polygon fill="black" stroke="black" points="1135.84,-507.5 1145.84,-504 1135.84,-500.5 1135.84,-507.5"/>
</g>
<!-- 20 -->
<!-- name: &quot;string&quot;, typeName: &quot;&quot;, id: 20, branchId: 0, recurseId: &#45;1, attributes: 512, notes: &quot;&quot; -->
<g id="node21" class="node">
<title>20</title>
<ellipse fill="none" stroke="black" cx="1174.74" cy="-450" rx="31.1" ry="18"/>
<text text-anchor="middle" x="1174.74" y="-444.57" font-family="Times New Roman,serif" font-size="14.00">string</text>
</g>
<!-- 19&#45;&gt;20 -->
<g id="edge20" class="edge">
<title>19&#45;&gt;20</title>
<path fill="none" stroke="black" d="M715.09,-450C824.84,-450 1040.77,-450 1131.74,-450"/>
<polygon fill="black" stroke="black" points="1131.71,-453.5 1141.71,-450 1131.71,-446.5 1131.71,-453.5"/>
</g>
<!-- 22 -->
<!-- name: &quot;Array Size&quot;, typeName: &quot;&quot;, id: 22, branchId: 0, recurseId: &#45;1, attributes: 0, notes: &quot;&quot; -->
<g id="node23" class="node">
<title>22</title>
<ellipse fill="none" stroke="black" cx="834.61" cy="-396" rx="49.57" ry="18"/>
<text text-anchor="middle" x="834.61" y="-390.57" font-family="Times New Roman,serif" font-size="14.00">Array Size</text>
</g>
<!-- 21&#45;&gt;22 -->
<g id="edge22" class="edge">
<title>21&#45;&gt;22</title>
<path fill="none" stroke="black" d="M725.44,-396C741.42,-396 758.05,-396 773.33,-396"/>
<polygon fill="black" stroke="black" points="773.21,-399.5 783.21,-396 773.21,-392.5 773.21,-399.5"/>
</g>
<!-- 24 -->
<!-- name: &quot;example element&quot;, typeName: &quot;&quot;, id: 24, branchId: 0, recurseId: &#45;1, attributes: 16, notes: &quot;&quot; -->
<g id="node25" class="node">
<title>24</title>
<ellipse fill="none" stroke="black" stroke-dasharray="1,5" cx="834.61" cy="-234" rx="71.52" ry="18"/>
<text text-anchor="middle" x="834.61" y="-228.57" font-family="Times New Roman,serif" font-size="14.00">example element</text>
</g>
<!-- 21&#45;&gt;24 -->
<g id="edge24" class="edge">
<title>21&#45;&gt;24</title>
<path fill="none" stroke="black" d="M668.73,-378.35C701.68,-349.51 767.19,-292.15 804.96,-259.08"/>
<polygon fill="black" stroke="black" points="807.12,-261.84 812.34,-252.62 802.51,-256.57 807.12,-261.84"/>
</g>
<!-- 23 -->
<!-- name: &quot;unsigned varint&quot;, typeName: &quot;&quot;, id: 23, branchId: 0, recurseId: &#45;1, attributes: 512, notes: &quot;&quot; -->
<g id="node24" class="node">
<title>23</title>
<ellipse fill="none" stroke="black" cx="1174.74" cy="-396" rx="66.53" ry="18"/>
<text text-anchor="middle" x="1174.74" y="-390.57" font-family="Times New Roman,serif" font-size="14.00">unsigned varint</text>
</g>
<!-- 22&#45;&gt;23 -->
<g id="edge23" class="edge">
<title>22&#45;&gt;23</title>
<path fill="none" stroke="black" d="M884.42,-396C939.88,-396 1031.16,-396 1096.36,-396"/>
<polygon fill="black" stroke="black" points="1096.29,-399.5 1106.29,-396 1096.29,-392.5 1096.29,-399.5"/>
</g>
<!-- 25 -->
<!-- name: &quot;ID&quot;, typeName: &quot;&quot;, id: 25, branchId: 0, recurseId: &#45;1, attributes: 0, notes: &quot;&quot; -->
<g id="node26" class="node">
<title>25</title>
<ellipse fill="none" stroke="black" cx="1004.17" cy="-342" rx="27" ry="18"/>
<text text-anchor="middle" x="1004.17" y="-336.57" font-family="Times New Roman,serif" font-size="14.00">ID</text>
</g>
<!-- 24&#45;&gt;25 -->
<g id="edge25" class="edge">
<title>24&#45;&gt;25</title>
<path fill="none" stroke="black" d="M855.81,-251.66C876.51,-269.19 910.12,-296.1 942.13,-315 950.81,-320.12 960.64,-324.88 969.83,-328.93"/>
<polygon fill="black" stroke="black" points="968.26,-332.07 978.83,-332.75 970.99,-325.62 968.26,-332.07"/>
</g>
<!-- 27 -->
<!-- name: &quot;Name&quot;, typeName: &quot;&quot;, id: 27, branchId: 0, recurseId: &#45;1, attributes: 0, notes: &quot;&quot; -->
<g id="node28" class="node">
<title>27</title>
<ellipse fill="none" stroke="black" cx="1004.17" cy="-288" rx="32.1" ry="18"/>
<text text-anchor="middle" x="1004.17" y="-282.57" font-family="Times New Roman,serif" font-size="14.00">Name</text>
</g>
<!-- 24&#45;&gt;27 -->
<g id="edge27" class="edge">
<title>24&#45;&gt;27</title>
<path fill="none" stroke="black" d="M880.07,-248.33C906.59,-256.88 939.91,-267.61 965.19,-275.76"/>
<polygon fill="black" stroke="black" points="963.81,-278.99 974.4,-278.73 965.96,-272.33 963.81,-278.99"/>
</g>
<!-- 29 -->
<!-- name: &quot;Amount&quot;, typeName: &quot;&quot;, id: 29, branchId: 0, recurseId: &#45;1, attributes: 0, notes: &quot;&quot; -->
<g id="node30" class="node">
<title>29</title>
<ellipse fill="none" stroke="black" cx="1004.17" cy="-234" rx="40.58" ry="18"/>
<text text-anchor="middle" x="1004.17" y="-228.57" font-family="Times New Roman,serif" font-size="14.00">Amount</text>
</g>
<!-- 24&#45;&gt;29 -->
<g id="edge29" class="edge">
<title>24&#45;&gt;29</title>
<path fill="none" stroke="black" d="M906.19,-234C921.57,-234 937.57,-234 952.03,-234"/>
<polygon fill="black" stroke="black" points="951.74,-237.5 961.74,-234 951.74,-230.5 951.74,-237.5"/>
</g>
<!-- 31 -->
<!-- name: &quot;Operation&quot;, typeName: &quot;&quot;, id: 31, branchId: 0, recurseId: &#45;1, attributes: 0, notes: &quot;&quot; -->
<g id="node32" class="node">
<title>31</title>
<ellipse fill="none" stroke="black" cx="1004.17" cy="-180" rx="47.57" ry="18"/>
<text text-anchor="middle" x="1004.17" y="-174.57" font-family="Times New Roman,serif" font-size="14.00">Operation</text>
</g>
<!-- 24&#45;&gt;31 -->
<g id="edge31" class="edge">
<title>24&#45;&gt;31</title>
<path fill="none" stroke="black" d="M880.07,-219.67C903.51,-212.12 932.26,-202.85 956.07,-195.18"/>
<polygon fill="black" stroke="black" points="957.09,-198.53 965.54,-192.13 954.94,-191.87 957.09,-198.53"/>
</g>
<!-- 33 -->
<!-- name: &quot;Operand&quot;, typeName: &quot;&quot;, id: 33, branchId: 0, recurseId: &#45;1, attributes: 0, notes: &quot;&quot; -->
<g id="node34" class="node">
<title>33</title>
<ellipse fill="none" stroke="black" cx="1004.17" cy="-126" rx="43.08" ry="18"/>
<text text-anchor="middle" x="1004.17" y="-120.58" font-family="Times New Roman,serif" font-size="14.00">Operand</text>
</g>
<!-- 24&#45;&gt;33 -->
<g id="edge33" class="edge">
<title>24&#45;&gt;33</title>
<path fill="none" stroke="black" d="M855.81,-216.34C876.51,-198.81 910.12,-171.9 942.13,-153 948.22,-149.4 954.88,-145.99 961.48,-142.87"/>
<polygon fill="black" stroke="black" points="962.69,-146.17 970.36,-138.86 959.8,-139.79 962.69,-146.17"/>
</g>
<!-- 35 -->
<!-- name: &quot;isSerializable?&quot;, typeName: &quot;&quot;, id: 35, branchId: 0, recurseId: &#45;1, attributes: 0, notes: &quot;&quot; -->
<g id="node36" class="node">
<title>35</title>
<ellipse fill="none" stroke="black" cx="1004.17" cy="-72" rx="62.04" ry="18"/>
<text text-anchor="middle" x="1004.17" y="-66.58" font-family="Times New Roman,serif" font-size="14.00">isSerializable?</text>
</g>
<!-- 24&#45;&gt;35 -->
<g id="edge35" class="edge">
<title>24&#45;&gt;35</title>
<path fill="none" stroke="black" d="M845.85,-215.96C862.68,-187.68 898.72,-132.66 942.13,-99 945.79,-96.16 949.79,-93.56 953.94,-91.17"/>
<polygon fill="black" stroke="black" points="955.22,-94.46 962.46,-86.72 951.97,-88.25 955.22,-94.46"/>
</g>
<!-- 26 -->
<!-- name: &quot;string&quot;, typeName: &quot;&quot;, id: 26, branchId: 0, recurseId: &#45;1, attributes: 512, notes: &quot;&quot; -->
<g id="node27" class="node">
<title>26</title>
<ellipse fill="none" stroke="black" cx="1174.74" cy="-342" rx="31.1" ry="18"/>
<text text-anchor="middle" x="1174.74" y="-336.57" font-family="Times New Roman,serif" font-size="14.00">string</text>
</g>
<!-- 25&#45;&gt;26 -->
<g id="edge26" class="edge">
<title>25&#45;&gt;26</title>
<path fill="none" stroke="black" d="M1031.51,-342C1058.36,-342 1100.41,-342 1131.84,-342"/>
<polygon fill="black" stroke="black" points="1131.8,-345.5 1141.8,-342 1131.8,-338.5 1131.8,-345.5"/>
</g>
<!-- 28 -->
<!-- name: &quot;string&quot;, typeName: &quot;&quot;, id: 28, branchId: 0, recurseId: &#45;1, attributes: 512, notes: &quot;&quot; -->
<g id="node29" class="node">
<title>28</title>
<ellipse fill="none" stroke="black" cx="1174.74" cy="-288" rx="31.1" ry="18"/>
<text text-anchor="middle" x="1174.74" y="-282.57" font-family="Times New Roman,serif" font-size="14.00">string</text>
</g>
<!-- 27&#45;&gt;28 -->
<g id="edge28" class="edge">
<title>27&#45;&gt;28</title>
<path fill="none" stroke="black" d="M1036.48,-288C1063.38,-288 1102.38,-288 1131.94,-288"/>
<polygon fill="black" stroke="black" points="1131.65,-291.5 1141.65,-288 1131.65,-284.5 1131.65,-291.5"/>
</g>
<!-- 30 -->
<!-- name: &quot;float&quot;, typeName: &quot;&quot;, id: 30, branchId: 0, recurseId: &#45;1, attributes: 512, notes: &quot;&quot; -->
<g id="node31" class="node">
<title>30</title>
<ellipse fill="none" stroke="black" cx="1174.74" cy="-234" rx="27.11" ry="18"/>
<text text-anchor="middle" x="1174.74" y="-228.57" font-family="Times New Roman,serif" font-size="14.00">float</text>
</g>
<!-- 29&#45;&gt;30 -->
<g id="edge30" class="edge">
<title>29&#45;&gt;30</title>
<path fill="none" stroke="black" d="M1045.12,-234C1072.6,-234 1108.86,-234 1135.88,-234"/>
<polygon fill="black" stroke="black" points="1135.69,-237.5 1145.69,-234 1135.69,-230.5 1135.69,-237.5"/>
</g>
<!-- 32 -->
<!-- name: &quot;int&quot;, typeName: &quot;&quot;, id: 32, branchId: 0, recurseId: &#45;1, attributes: 512, notes: &quot;&quot; -->
<g id="node33" class="node">
<title>32</title>
<ellipse fill="none" stroke="black" cx="1174.74" cy="-180" rx="27" ry="18"/>
<text text-anchor="middle" x="1174.74" y="-174.57" font-family="Times New Roman,serif" font-size="14.00">int</text>
</g>
<!-- 31&#45;&gt;32 -->
<g id="edge32" class="edge">
<title>31&#45;&gt;32</title>
<path fill="none" stroke="black" d="M1052.13,-180C1078.58,-180 1111.19,-180 1135.97,-180"/>
<polygon fill="black" stroke="black" points="1135.94,-183.5 1145.94,-180 1135.94,-176.5 1135.94,-183.5"/>
</g>
<!-- 34 -->
<!-- name: &quot;int&quot;, typeName: &quot;&quot;, id: 34, branchId: 0, recurseId: &#45;1, attributes: 512, notes: &quot;&quot; -->
<g id="node35" class="node">
<title>34</title>
<ellipse fill="none" stroke="black" cx="1174.74" cy="-126" rx="27" ry="18"/>
<text text-anchor="middle" x="1174.74" y="-120.58" font-family="Times New Roman,serif" font-size="14.00">int</text>
</g>
<!-- 33&#45;&gt;34 -->
<g id="edge34" class="edge">
<title>33&#45;&gt;34</title>
<path fill="none" stroke="black" d="M1047.71,-126C1074.94,-126 1109.96,-126 1136.16,-126"/>
<polygon fill="black" stroke="black" points="1136.01,-129.5 1146.01,-126 1136.01,-122.5 1136.01,-129.5"/>
</g>
<!-- 36 -->
<!-- name: &quot;bool&quot;, typeName: &quot;&quot;, id: 36, branchId: 0, recurseId: &#45;1, attributes: 512, notes: &quot;&quot; -->
<g id="node37" class="node">
<title>36</title>
<ellipse fill="none" stroke="black" cx="1174.74" cy="-72" rx="27.61" ry="18"/>
<text text-anchor="middle" x="1174.74" y="-66.58" font-family="Times New Roman,serif" font-size="14.00">bool</text>
</g>
<!-- 35&#45;&gt;36 -->
<g id="edge36" class="edge">
<title>35&#45;&gt;36</title>
<path fill="none" stroke="black" d="M1066.51,-72C1089.64,-72 1115.27,-72 1135.67,-72"/>
<polygon fill="black" stroke="black" points="1135.51,-75.5 1145.51,-72 1135.51,-68.5 1135.51,-75.5"/>
</g>
<!-- 38 -->
<!-- name: &quot;PlayerInputTick&quot;, typeName: &quot;&quot;, id: 38, branchId: 0, recurseId: &#45;1, attributes: 512, notes: &quot;&quot; -->
<g id="node39" class="node">
<title>38</title>
<ellipse fill="none" stroke="black" cx="1174.74" cy="-18" rx="70.03" ry="18"/>
<text text-anchor="middle" x="1174.74" y="-12.57" font-family="Times New Roman,serif" font-size="14.00">PlayerInputTick</text>
</g>
<!-- 37&#45;&gt;38 -->
<g id="edge38" class="edge">
<title>37&#45;&gt;38</title>
<path fill="none" stroke="black" d="M303.01,-310.89C336.75,-245.9 467.81,-18 646.58,-18 646.58,-18 646.58,-18 835.61,-18 923.75,-18 1024.81,-18 1093.31,-18"/>
<polygon fill="black" stroke="black" points="1092.93,-21.5 1102.93,-18 1092.93,-14.5 1092.93,-21.5"/>
</g>
</g>
</svg>
