<?xml version="1.0" encoding="UTF-8" standalone="no"?>
<!DOCTYPE svg PUBLIC "-//W3C//DTD SVG 1.1//EN"
 "http://www.w3.org/Graphics/SVG/1.1/DTD/svg11.dtd">
<!-- Generated by graphviz version 11.0.0 (20240428.1522)
 -->
<!-- Title: UpdateTradePacket Pages: 1 -->
<svg width="579pt" height="638pt"
 viewBox="0.00 0.00 579.00 638.00" xmlns="http://www.w3.org/2000/svg" xmlns:xlink="http://www.w3.org/1999/xlink">
<g id="graph0" class="graph" transform="scale(1 1) rotate(0) translate(4 634)">
<title>UpdateTradePacket</title>
<polygon fill="white" stroke="none" points="-4,4 -4,-634 575,-634 575,4 -4,4"/>
<!-- 0 -->
<!-- name: &quot;UpdateTradePacket&quot;, typeName: &quot;&quot;, id: 0, branchId: 80, recurseId: &#45;1, attributes: 0, notes: &quot;&quot; -->
<g id="node1" class="node">
<title>0</title>
<ellipse fill="none" stroke="black" cx="84.5" cy="-315" rx="84.5" ry="18"/>
<text text-anchor="middle" x="84.5" y="-309.57" font-family="Times New Roman,serif" font-size="14.00">UpdateTradePacket</text>
</g>
<!-- 1 -->
<!-- name: &quot;Container Id&quot;, typeName: &quot;&quot;, id: 1, branchId: 0, recurseId: &#45;1, attributes: 0, notes: &quot;&quot; -->
<g id="node2" class="node">
<title>1</title>
<ellipse fill="none" stroke="black" cx="301.96" cy="-612" rx="57.05" ry="18"/>
<text text-anchor="middle" x="301.96" y="-606.58" font-family="Times New Roman,serif" font-size="14.00">Container Id</text>
</g>
<!-- 0&#45;&gt;1 -->
<g id="edge1" class="edge">
<title>0&#45;&gt;1</title>
<path fill="none" stroke="black" d="M88.14,-333.25C96.17,-381.86 124.81,-515.5 204.99,-585 214.21,-592.99 225.61,-598.62 237.31,-602.59"/>
<polygon fill="black" stroke="black" points="236.05,-605.87 246.63,-605.37 238.04,-599.16 236.05,-605.87"/>
</g>
<!-- 3 -->
<!-- name: &quot;Type&quot;, typeName: &quot;&quot;, id: 3, branchId: 0, recurseId: &#45;1, attributes: 0, notes: &quot;&quot; -->
<g id="node4" class="node">
<title>3</title>
<ellipse fill="none" stroke="black" cx="301.96" cy="-558" rx="30.11" ry="18"/>
<text text-anchor="middle" x="301.96" y="-552.58" font-family="Times New Roman,serif" font-size="14.00">Type</text>
</g>
<!-- 0&#45;&gt;3 -->
<g id="edge3" class="edge">
<title>0&#45;&gt;3</title>
<path fill="none" stroke="black" d="M90.32,-333.22C102.31,-374.86 137.47,-477.52 204.99,-531 220.84,-543.55 242.19,-550.27 260.74,-553.86"/>
<polygon fill="black" stroke="black" points="259.91,-557.27 270.35,-555.47 261.07,-550.37 259.91,-557.27"/>
</g>
<!-- 5 -->
<!-- name: &quot;Size&quot;, typeName: &quot;&quot;, id: 5, branchId: 0, recurseId: &#45;1, attributes: 0, notes: &quot;&quot; -->
<g id="node6" class="node">
<title>5</title>
<ellipse fill="none" stroke="black" cx="301.96" cy="-504" rx="27" ry="18"/>
<text text-anchor="middle" x="301.96" y="-498.57" font-family="Times New Roman,serif" font-size="14.00">Size</text>
</g>
<!-- 0&#45;&gt;5 -->
<g id="edge5" class="edge">
<title>0&#45;&gt;5</title>
<path fill="none" stroke="black" d="M93.82,-333.16C110.18,-366.8 149.79,-438.85 204.99,-477 222.33,-488.98 244.88,-495.67 263.76,-499.4"/>
<polygon fill="black" stroke="black" points="263.02,-502.82 273.48,-501.09 264.23,-495.92 263.02,-502.82"/>
</g>
<!-- 7 -->
<!-- name: &quot;Trader Tier&quot;, typeName: &quot;&quot;, id: 7, branchId: 0, recurseId: &#45;1, attributes: 0, notes: &quot;&quot; -->
<g id="node8" class="node">
<title>7</title>
<ellipse fill="none" stroke="black" cx="301.96" cy="-450" rx="53.06" ry="18"/>
<text text-anchor="middle" x="301.96" y="-444.57" font-family="Times New Roman,serif" font-size="14.00">Trader Tier</text>
</g>
<!-- 0&#45;&gt;7 -->
<g id="edge7" class="edge">
<title>0&#45;&gt;7</title>
<path fill="none" stroke="black" d="M100.59,-333.08C121.59,-357.08 161.91,-399.21 204.99,-423 216.95,-429.6 230.65,-434.7 243.89,-438.59"/>
<polygon fill="black" stroke="black" points="242.82,-441.93 253.39,-441.19 244.67,-435.18 242.82,-441.93"/>
</g>
<!-- 9 -->
<!-- name: &quot;Entity Unique Id&quot;, typeName: &quot;ActorUniqueID&quot;, id: 9, branchId: 0, recurseId: &#45;1, attributes: 256, notes: &quot;&quot; -->
<g id="node10" class="node">
<title>9</title>
<ellipse fill="none" stroke="black" cx="301.96" cy="-396" rx="71.52" ry="18"/>
<text text-anchor="middle" x="301.96" y="-390.57" font-family="Times New Roman,serif" font-size="14.00">Entity Unique Id</text>
</g>
<!-- 0&#45;&gt;9 -->
<g id="edge9" class="edge">
<title>0&#45;&gt;9</title>
<path fill="none" stroke="black" d="M119.19,-331.86C142.82,-343.29 175.37,-358.21 204.99,-369 215.96,-373 227.81,-376.76 239.32,-380.14"/>
<polygon fill="black" stroke="black" points="238.17,-383.45 248.75,-382.84 240.1,-376.72 238.17,-383.45"/>
</g>
<!-- 11 -->
<!-- name: &quot;Last Trading Player&quot;, typeName: &quot;ActorUniqueID&quot;, id: 11, branchId: 0, recurseId: &#45;1, attributes: 256, notes: &quot;&quot; -->
<g id="node12" class="node">
<title>11</title>
<ellipse fill="none" stroke="black" cx="301.96" cy="-342" rx="83.5" ry="18"/>
<text text-anchor="middle" x="301.96" y="-336.57" font-family="Times New Roman,serif" font-size="14.00">Last Trading Player</text>
</g>
<!-- 0&#45;&gt;11 -->
<g id="edge11" class="edge">
<title>0&#45;&gt;11</title>
<path fill="none" stroke="black" d="M158.14,-324.1C177.24,-326.5 197.99,-329.1 217.6,-331.55"/>
<polygon fill="black" stroke="black" points="217.14,-335.02 227.5,-332.79 218.01,-328.08 217.14,-335.02"/>
</g>
<!-- 13 -->
<!-- name: &quot;Display Name&quot;, typeName: &quot;&quot;, id: 13, branchId: 0, recurseId: &#45;1, attributes: 0, notes: &quot;&quot; -->
<g id="node14" class="node">
<title>13</title>
<ellipse fill="none" stroke="black" cx="301.96" cy="-288" rx="62.54" ry="18"/>
<text text-anchor="middle" x="301.96" y="-282.57" font-family="Times New Roman,serif" font-size="14.00">Display Name</text>
</g>
<!-- 0&#45;&gt;13 -->
<g id="edge13" class="edge">
<title>0&#45;&gt;13</title>
<path fill="none" stroke="black" d="M158.14,-305.9C182.19,-302.88 208.85,-299.54 232.56,-296.57"/>
<polygon fill="black" stroke="black" points="232.95,-300.05 242.44,-295.33 232.08,-293.1 232.95,-300.05"/>
</g>
<!-- 15 -->
<!-- name: &quot;Use New Trade Screen&quot;, typeName: &quot;&quot;, id: 15, branchId: 0, recurseId: &#45;1, attributes: 0, notes: &quot;&quot; -->
<g id="node16" class="node">
<title>15</title>
<ellipse fill="none" stroke="black" cx="301.96" cy="-234" rx="96.97" ry="18"/>
<text text-anchor="middle" x="301.96" y="-228.57" font-family="Times New Roman,serif" font-size="14.00">Use New Trade Screen</text>
</g>
<!-- 0&#45;&gt;15 -->
<g id="edge15" class="edge">
<title>0&#45;&gt;15</title>
<path fill="none" stroke="black" d="M119.19,-298.14C142.82,-286.71 175.37,-271.79 204.99,-261 213.76,-257.81 223.09,-254.76 232.36,-251.94"/>
<polygon fill="black" stroke="black" points="233.12,-255.37 241.72,-249.17 231.14,-248.65 233.12,-255.37"/>
</g>
<!-- 17 -->
<!-- name: &quot;Using Economy Trade&quot;, typeName: &quot;&quot;, id: 17, branchId: 0, recurseId: &#45;1, attributes: 0, notes: &quot;When set to false, it means the packet comes from the old Trade Component.&quot; -->
<g id="node18" class="node">
<title>17</title>
<ellipse fill="none" stroke="black" cx="301.96" cy="-180" rx="94.98" ry="18"/>
<text text-anchor="middle" x="301.96" y="-174.57" font-family="Times New Roman,serif" font-size="14.00">Using Economy Trade</text>
</g>
<!-- 0&#45;&gt;17 -->
<g id="edge17" class="edge">
<title>0&#45;&gt;17</title>
<path fill="none" stroke="black" d="M100.59,-296.92C121.59,-272.92 161.91,-230.79 204.99,-207 211.74,-203.27 219.04,-200.03 226.5,-197.21"/>
<polygon fill="black" stroke="black" points="227.4,-200.6 235.68,-194 225.09,-193.99 227.4,-200.6"/>
</g>
<!-- 19 -->
<!-- name: &quot;Byte&quot;, typeName: &quot;&quot;, id: 19, branchId: 0, recurseId: &#45;1, attributes: 0, notes: &quot;&quot; -->
<g id="node20" class="node">
<title>19</title>
<ellipse fill="none" stroke="black" cx="301.96" cy="-126" rx="27.61" ry="18"/>
<text text-anchor="middle" x="301.96" y="-120.58" font-family="Times New Roman,serif" font-size="14.00">Byte</text>
</g>
<!-- 0&#45;&gt;19 -->
<g id="edge19" class="edge">
<title>0&#45;&gt;19</title>
<path fill="none" stroke="black" d="M93.82,-296.84C110.18,-263.2 149.79,-191.15 204.99,-153 222.21,-141.1 244.57,-134.42 263.38,-130.68"/>
<polygon fill="black" stroke="black" points="263.82,-134.16 273.06,-128.98 262.6,-127.26 263.82,-134.16"/>
</g>
<!-- 21 -->
<!-- name: &quot;String&quot;, typeName: &quot;&quot;, id: 21, branchId: 0, recurseId: &#45;1, attributes: 0, notes: &quot;&quot; -->
<g id="node22" class="node">
<title>21</title>
<ellipse fill="none" stroke="black" cx="301.96" cy="-72" rx="32.6" ry="18"/>
<text text-anchor="middle" x="301.96" y="-66.58" font-family="Times New Roman,serif" font-size="14.00">String</text>
</g>
<!-- 0&#45;&gt;21 -->
<g id="edge21" class="edge">
<title>0&#45;&gt;21</title>
<path fill="none" stroke="black" d="M90.32,-296.78C102.31,-255.14 137.47,-152.48 204.99,-99 220.2,-86.95 240.49,-80.28 258.5,-76.58"/>
<polygon fill="black" stroke="black" points="258.91,-80.07 268.15,-74.87 257.69,-73.17 258.91,-80.07"/>
</g>
<!-- 23 -->
<!-- name: &quot;Byte&quot;, typeName: &quot;&quot;, id: 23, branchId: 0, recurseId: &#45;1, attributes: 0, notes: &quot;&quot; -->
<g id="node24" class="node">
<title>23</title>
<ellipse fill="none" stroke="black" cx="301.96" cy="-18" rx="27.61" ry="18"/>
<text text-anchor="middle" x="301.96" y="-12.57" font-family="Times New Roman,serif" font-size="14.00">Byte</text>
</g>
<!-- 0&#45;&gt;23 -->
<g id="edge23" class="edge">
<title>0&#45;&gt;23</title>
<path fill="none" stroke="black" d="M88.14,-296.75C96.17,-248.14 124.81,-114.5 204.99,-45 220.99,-31.13 243.61,-24.35 262.87,-21.05"/>
<polygon fill="black" stroke="black" points="263.14,-24.55 272.54,-19.67 262.15,-17.62 263.14,-24.55"/>
</g>
<!-- 2 -->
<!-- name: &quot;byte&quot;, typeName: &quot;&quot;, id: 2, branchId: 0, recurseId: &#45;1, attributes: 512, notes: &quot;&quot; -->
<g id="node3" class="node">
<title>2</title>
<ellipse fill="none" stroke="black" cx="502.97" cy="-612" rx="27" ry="18"/>
<text text-anchor="middle" x="502.97" y="-606.58" font-family="Times New Roman,serif" font-size="14.00">byte</text>
</g>
<!-- 1&#45;&gt;2 -->
<g id="edge2" class="edge">
<title>1&#45;&gt;2</title>
<path fill="none" stroke="black" d="M359.46,-612C392.99,-612 434.59,-612 464.17,-612"/>
<polygon fill="black" stroke="black" points="464.14,-615.5 474.14,-612 464.14,-608.5 464.14,-615.5"/>
</g>
<!-- 4 -->
<!-- name: &quot;byte&quot;, typeName: &quot;&quot;, id: 4, branchId: 0, recurseId: &#45;1, attributes: 512, notes: &quot;&quot; -->
<g id="node5" class="node">
<title>4</title>
<ellipse fill="none" stroke="black" cx="502.97" cy="-558" rx="27" ry="18"/>
<text text-anchor="middle" x="502.97" y="-552.58" font-family="Times New Roman,serif" font-size="14.00">byte</text>
</g>
<!-- 3&#45;&gt;4 -->
<g id="edge4" class="edge">
<title>3&#45;&gt;4</title>
<path fill="none" stroke="black" d="M332.33,-558C367.4,-558 426.14,-558 464.47,-558"/>
<polygon fill="black" stroke="black" points="464.15,-561.5 474.15,-558 464.15,-554.5 464.15,-561.5"/>
</g>
<!-- 6 -->
<!-- name: &quot;varint&quot;, typeName: &quot;&quot;, id: 6, branchId: 0, recurseId: &#45;1, attributes: 512, notes: &quot;&quot; -->
<g id="node7" class="node">
<title>6</title>
<ellipse fill="none" stroke="black" cx="502.97" cy="-504" rx="31.1" ry="18"/>
<text text-anchor="middle" x="502.97" y="-498.57" font-family="Times New Roman,serif" font-size="14.00">varint</text>
</g>
<!-- 5&#45;&gt;6 -->
<g id="edge6" class="edge">
<title>5&#45;&gt;6</title>
<path fill="none" stroke="black" d="M329.39,-504C362.81,-504 420.73,-504 460.17,-504"/>
<polygon fill="black" stroke="black" points="460,-507.5 470,-504 460,-500.5 460,-507.5"/>
</g>
<!-- 8 -->
<!-- name: &quot;varint&quot;, typeName: &quot;&quot;, id: 8, branchId: 0, recurseId: &#45;1, attributes: 512, notes: &quot;&quot; -->
<g id="node9" class="node">
<title>8</title>
<ellipse fill="none" stroke="black" cx="502.97" cy="-450" rx="31.1" ry="18"/>
<text text-anchor="middle" x="502.97" y="-444.57" font-family="Times New Roman,serif" font-size="14.00">varint</text>
</g>
<!-- 7&#45;&gt;8 -->
<g id="edge8" class="edge">
<title>7&#45;&gt;8</title>
<path fill="none" stroke="black" d="M355.51,-450C388.14,-450 429.52,-450 459.96,-450"/>
<polygon fill="black" stroke="black" points="459.95,-453.5 469.95,-450 459.95,-446.5 459.95,-453.5"/>
</g>
<!-- 10 -->
<!-- name: &quot;ActorUniqueID&quot;, typeName: &quot;&quot;, id: 10, branchId: 0, recurseId: &#45;1, attributes: 512, notes: &quot;&quot; -->
<g id="node11" class="node">
<title>10</title>
<ellipse fill="none" stroke="black" cx="502.97" cy="-396" rx="68.03" ry="18"/>
<text text-anchor="middle" x="502.97" y="-390.57" font-family="Times New Roman,serif" font-size="14.00">ActorUniqueID</text>
</g>
<!-- 9&#45;&gt;10 -->
<g id="edge10" class="edge">
<title>9&#45;&gt;10</title>
<path fill="none" stroke="black" d="M373.97,-396C390.02,-396 407.15,-396 423.49,-396"/>
<polygon fill="black" stroke="black" points="423.14,-399.5 433.14,-396 423.14,-392.5 423.14,-399.5"/>
</g>
<!-- 12 -->
<!-- name: &quot;ActorUniqueID&quot;, typeName: &quot;&quot;, id: 12, branchId: 0, recurseId: &#45;1, attributes: 512, notes: &quot;&quot; -->
<g id="node13" class="node">
<title>12</title>
<ellipse fill="none" stroke="black" cx="502.97" cy="-342" rx="68.03" ry="18"/>
<text text-anchor="middle" x="502.97" y="-336.57" font-family="Times New Roman,serif" font-size="14.00">ActorUniqueID</text>
</g>
<!-- 11&#45;&gt;12 -->
<g id="edge12" class="edge">
<title>11&#45;&gt;12</title>
<path fill="none" stroke="black" d="M385.92,-342C398.33,-342 411.09,-342 423.41,-342"/>
<polygon fill="black" stroke="black" points="423.06,-345.5 433.06,-342 423.06,-338.5 423.06,-345.5"/>
</g>
<!-- 14 -->
<!-- name: &quot;string&quot;, typeName: &quot;&quot;, id: 14, branchId: 0, recurseId: &#45;1, attributes: 512, notes: &quot;&quot; -->
<g id="node15" class="node">
<title>14</title>
<ellipse fill="none" stroke="black" cx="502.97" cy="-288" rx="31.1" ry="18"/>
<text text-anchor="middle" x="502.97" y="-282.57" font-family="Times New Roman,serif" font-size="14.00">string</text>
</g>
<!-- 13&#45;&gt;14 -->
<g id="edge14" class="edge">
<title>13&#45;&gt;14</title>
<path fill="none" stroke="black" d="M364.84,-288C395.89,-288 432.67,-288 460.32,-288"/>
<polygon fill="black" stroke="black" points="460.05,-291.5 470.05,-288 460.05,-284.5 460.05,-291.5"/>
</g>
<!-- 16 -->
<!-- name: &quot;bool&quot;, typeName: &quot;&quot;, id: 16, branchId: 0, recurseId: &#45;1, attributes: 512, notes: &quot;&quot; -->
<g id="node17" class="node">
<title>16</title>
<ellipse fill="none" stroke="black" cx="502.97" cy="-234" rx="27.61" ry="18"/>
<text text-anchor="middle" x="502.97" y="-228.57" font-family="Times New Roman,serif" font-size="14.00">bool</text>
</g>
<!-- 15&#45;&gt;16 -->
<g id="edge16" class="edge">
<title>15&#45;&gt;16</title>
<path fill="none" stroke="black" d="M399.26,-234C422.05,-234 445.06,-234 463.51,-234"/>
<polygon fill="black" stroke="black" points="463.41,-237.5 473.41,-234 463.41,-230.5 463.41,-237.5"/>
</g>
<!-- 18 -->
<!-- name: &quot;bool&quot;, typeName: &quot;&quot;, id: 18, branchId: 0, recurseId: &#45;1, attributes: 512, notes: &quot;&quot; -->
<g id="node19" class="node">
<title>18</title>
<ellipse fill="none" stroke="black" cx="502.97" cy="-180" rx="27.61" ry="18"/>
<text text-anchor="middle" x="502.97" y="-174.57" font-family="Times New Roman,serif" font-size="14.00">bool</text>
</g>
<!-- 17&#45;&gt;18 -->
<g id="edge18" class="edge">
<title>17&#45;&gt;18</title>
<path fill="none" stroke="black" d="M397.22,-180C420.74,-180 444.64,-180 463.67,-180"/>
<polygon fill="black" stroke="black" points="463.61,-183.5 473.61,-180 463.61,-176.5 463.61,-183.5"/>
</g>
<!-- 20 -->
<!-- name: &quot;byte&quot;, typeName: &quot;&quot;, id: 20, branchId: 0, recurseId: &#45;1, attributes: 512, notes: &quot;&quot; -->
<g id="node21" class="node">
<title>20</title>
<ellipse fill="none" stroke="black" cx="502.97" cy="-126" rx="27" ry="18"/>
<text text-anchor="middle" x="502.97" y="-120.58" font-family="Times New Roman,serif" font-size="14.00">byte</text>
</g>
<!-- 19&#45;&gt;20 -->
<g id="edge20" class="edge">
<title>19&#45;&gt;20</title>
<path fill="none" stroke="black" d="M329.8,-126C364.42,-126 424.82,-126 464.09,-126"/>
<polygon fill="black" stroke="black" points="464.04,-129.5 474.04,-126 464.04,-122.5 464.04,-129.5"/>
</g>
<!-- 22 -->
<!-- name: &quot;string&quot;, typeName: &quot;&quot;, id: 22, branchId: 0, recurseId: &#45;1, attributes: 512, notes: &quot;&quot; -->
<g id="node23" class="node">
<title>22</title>
<ellipse fill="none" stroke="black" cx="502.97" cy="-72" rx="31.1" ry="18"/>
<text text-anchor="middle" x="502.97" y="-66.58" font-family="Times New Roman,serif" font-size="14.00">string</text>
</g>
<!-- 21&#45;&gt;22 -->
<g id="edge22" class="edge">
<title>21&#45;&gt;22</title>
<path fill="none" stroke="black" d="M334.94,-72C368.84,-72 422.56,-72 459.88,-72"/>
<polygon fill="black" stroke="black" points="459.87,-75.5 469.87,-72 459.87,-68.5 459.87,-75.5"/>
</g>
<!-- 24 -->
<!-- name: &quot;byte&quot;, typeName: &quot;&quot;, id: 24, branchId: 0, recurseId: &#45;1, attributes: 512, notes: &quot;&quot; -->
<g id="node25" class="node">
<title>24</title>
<ellipse fill="none" stroke="black" cx="502.97" cy="-18" rx="27" ry="18"/>
<text text-anchor="middle" x="502.97" y="-12.57" font-family="Times New Roman,serif" font-size="14.00">byte</text>
</g>
<!-- 23&#45;&gt;24 -->
<g id="edge24" class="edge">
<title>23&#45;&gt;24</title>
<path fill="none" stroke="black" d="M329.8,-18C364.42,-18 424.82,-18 464.09,-18"/>
<polygon fill="black" stroke="black" points="464.04,-21.5 474.04,-18 464.04,-14.5 464.04,-21.5"/>
</g>
</g>
</svg>
