<?xml version="1.0" encoding="UTF-8" standalone="no"?>
<!DOCTYPE svg PUBLIC "-//W3C//DTD SVG 1.1//EN"
 "http://www.w3.org/Graphics/SVG/1.1/DTD/svg11.dtd">
<!-- Generated by graphviz version 14.1.5 (20260411.2331)
 -->
<!-- Title: UpdateEnvironmentAttributesData Pages: 1 -->
<svg width="1188pt" height="526pt"
 viewBox="0.00 0.00 1188.00 526.00" xmlns="http://www.w3.org/2000/svg" xmlns:xlink="http://www.w3.org/1999/xlink">
<g id="graph0" class="graph" transform="scale(1 1) rotate(0) translate(4 522)">
<title>UpdateEnvironmentAttributesData</title>
<polygon fill="white" stroke="none" points="-4,4 -4,-522 1183.56,-522 1183.56,4 -4,4"/>
<!-- 0 -->
<!-- name: &quot;UpdateEnvironmentAttributesData&quot;, typeName: &quot;&quot;, id: 0, branchId: 0, recurseId: &#45;1, attributes: 0, notes: &quot;&quot; -->
<g id="node1" class="node">
<title>0</title>
<ellipse fill="none" stroke="black" cx="140.41" cy="-446" rx="140.41" ry="18"/>
<text xml:space="preserve" text-anchor="middle" x="140.41" y="-440.95" font-family="Times New Roman,serif" font-size="14.00">UpdateEnvironmentAttributesData</text>
</g>
<!-- 1 -->
<!-- name: &quot;Attribute Layer Name&quot;, typeName: &quot;&quot;, id: 1, branchId: 0, recurseId: &#45;1, attributes: 0, notes: &quot;&quot; -->
<g id="node2" class="node">
<title>1</title>
<ellipse fill="none" stroke="black" cx="428.56" cy="-500" rx="93.32" ry="18"/>
<text xml:space="preserve" text-anchor="middle" x="428.56" y="-494.95" font-family="Times New Roman,serif" font-size="14.00">Attribute Layer Name</text>
</g>
<!-- 0&#45;&gt;1 -->
<g id="edge1" class="edge">
<title>0&#45;&gt;1</title>
<path fill="none" stroke="black" d="M221.5,-461.11C261.46,-468.66 309.61,-477.74 349.32,-485.24"/>
<polygon fill="black" stroke="black" points="348.59,-488.66 359.06,-487.07 349.88,-481.78 348.59,-488.66"/>
</g>
<!-- 3 -->
<!-- name: &quot;Attribute Layer Dimension&quot;, typeName: &quot;&quot;, id: 3, branchId: 0, recurseId: &#45;1, attributes: 0, notes: &quot;&quot; -->
<g id="node4" class="node">
<title>3</title>
<ellipse fill="none" stroke="black" cx="428.56" cy="-446" rx="111.74" ry="18"/>
<text xml:space="preserve" text-anchor="middle" x="428.56" y="-440.95" font-family="Times New Roman,serif" font-size="14.00">Attribute Layer Dimension</text>
</g>
<!-- 0&#45;&gt;3 -->
<g id="edge3" class="edge">
<title>0&#45;&gt;3</title>
<path fill="none" stroke="black" d="M281.13,-446C289.23,-446 297.34,-446 305.37,-446"/>
<polygon fill="black" stroke="black" points="305.13,-449.5 315.13,-446 305.13,-442.5 305.13,-449.5"/>
</g>
<!-- 6 -->
<!-- name: &quot;Attributes&quot;, typeName: &quot;&quot;, id: 6, branchId: 0, recurseId: &#45;1, attributes: 0, notes: &quot;&quot; -->
<g id="node7" class="node">
<title>6</title>
<ellipse fill="none" stroke="black" cx="428.56" cy="-392" rx="47.77" ry="18"/>
<text xml:space="preserve" text-anchor="middle" x="428.56" y="-386.95" font-family="Times New Roman,serif" font-size="14.00">Attributes</text>
</g>
<!-- 0&#45;&gt;6 -->
<g id="edge6" class="edge">
<title>0&#45;&gt;6</title>
<path fill="none" stroke="black" d="M221.5,-430.89C270.22,-421.69 331.11,-410.2 374.03,-402.1"/>
<polygon fill="black" stroke="black" points="374.42,-405.59 383.59,-400.3 373.12,-398.71 374.42,-405.59"/>
</g>
<!-- 2 -->
<!-- name: &quot;string&quot;, typeName: &quot;&quot;, id: 2, branchId: 0, recurseId: &#45;1, attributes: 512, notes: &quot;&quot; -->
<g id="node3" class="node">
<title>2</title>
<ellipse fill="none" stroke="black" cx="1086.24" cy="-500" rx="31.9" ry="18"/>
<text xml:space="preserve" text-anchor="middle" x="1086.24" y="-494.95" font-family="Times New Roman,serif" font-size="14.00">string</text>
</g>
<!-- 1&#45;&gt;2 -->
<g id="edge2" class="edge">
<title>1&#45;&gt;2</title>
<path fill="none" stroke="black" d="M522.11,-500C666.06,-500 937.92,-500 1042.64,-500"/>
<polygon fill="black" stroke="black" points="1042.47,-503.5 1052.47,-500 1042.47,-496.5 1042.47,-503.5"/>
</g>
<!-- 4 -->
<!-- name: &quot;value&quot;, typeName: &quot;&quot;, id: 4, branchId: 0, recurseId: &#45;1, attributes: 0, notes: &quot;&quot; -->
<g id="node5" class="node">
<title>4</title>
<ellipse fill="none" stroke="black" cx="651.2" cy="-446" rx="30.88" ry="18"/>
<text xml:space="preserve" text-anchor="middle" x="651.2" y="-440.95" font-family="Times New Roman,serif" font-size="14.00">value</text>
</g>
<!-- 3&#45;&gt;4 -->
<g id="edge4" class="edge">
<title>3&#45;&gt;4</title>
<path fill="none" stroke="black" d="M540.52,-446C564.87,-446 589.18,-446 608.7,-446"/>
<polygon fill="black" stroke="black" points="608.68,-449.5 618.68,-446 608.68,-442.5 608.68,-449.5"/>
</g>
<!-- 5 -->
<!-- name: &quot;varint&quot;, typeName: &quot;&quot;, id: 5, branchId: 0, recurseId: &#45;1, attributes: 512, notes: &quot;&quot; -->
<g id="node6" class="node">
<title>5</title>
<ellipse fill="none" stroke="black" cx="1086.24" cy="-446" rx="32.41" ry="18"/>
<text xml:space="preserve" text-anchor="middle" x="1086.24" y="-440.95" font-family="Times New Roman,serif" font-size="14.00">varint</text>
</g>
<!-- 4&#45;&gt;5 -->
<g id="edge5" class="edge">
<title>4&#45;&gt;5</title>
<path fill="none" stroke="black" d="M682.3,-446C757.67,-446 954.68,-446 1042.23,-446"/>
<polygon fill="black" stroke="black" points="1042.08,-449.5 1052.08,-446 1042.08,-442.5 1042.08,-449.5"/>
</g>
<!-- 7 -->
<!-- name: &quot;List Size&quot;, typeName: &quot;&quot;, id: 7, branchId: 0, recurseId: &#45;1, attributes: 0, notes: &quot;&quot; -->
<g id="node8" class="node">
<title>7</title>
<ellipse fill="none" stroke="black" cx="651.2" cy="-392" rx="43.67" ry="18"/>
<text xml:space="preserve" text-anchor="middle" x="651.2" y="-386.95" font-family="Times New Roman,serif" font-size="14.00">List Size</text>
</g>
<!-- 6&#45;&gt;7 -->
<g id="edge7" class="edge">
<title>6&#45;&gt;7</title>
<path fill="none" stroke="black" d="M476.62,-392C511.56,-392 559.3,-392 595.87,-392"/>
<polygon fill="black" stroke="black" points="595.8,-395.5 605.8,-392 595.8,-388.5 595.8,-395.5"/>
</g>
<!-- 9 -->
<!-- name: &quot;example element&quot;, typeName: &quot;&quot;, id: 9, branchId: 0, recurseId: &#45;1, attributes: 16, notes: &quot;&quot; -->
<g id="node10" class="node">
<title>9</title>
<ellipse fill="none" stroke="black" stroke-dasharray="1,5" cx="651.2" cy="-207" rx="74.89" ry="18"/>
<text xml:space="preserve" text-anchor="middle" x="651.2" y="-201.95" font-family="Times New Roman,serif" font-size="14.00">example element</text>
</g>
<!-- 6&#45;&gt;9 -->
<g id="edge9" class="edge">
<title>6&#45;&gt;9</title>
<path fill="none" stroke="black" d="M449.14,-375.58C487.99,-343 575.04,-270.01 620.8,-231.65"/>
<polygon fill="black" stroke="black" points="622.8,-234.53 628.22,-225.43 618.31,-229.17 622.8,-234.53"/>
</g>
<!-- 8 -->
<!-- name: &quot;unsigned varint&quot;, typeName: &quot;&quot;, id: 8, branchId: 0, recurseId: &#45;1, attributes: 0, notes: &quot;&quot; -->
<g id="node9" class="node">
<title>8</title>
<ellipse fill="none" stroke="black" cx="859.5" cy="-396" rx="68.24" ry="18"/>
<text xml:space="preserve" text-anchor="middle" x="859.5" y="-390.95" font-family="Times New Roman,serif" font-size="14.00">unsigned varint</text>
</g>
<!-- 7&#45;&gt;8 -->
<g id="edge8" class="edge">
<title>7&#45;&gt;8</title>
<path fill="none" stroke="black" d="M695.19,-392.83C719.69,-393.31 751.15,-393.92 779.91,-394.48"/>
<polygon fill="black" stroke="black" points="779.61,-397.97 789.68,-394.67 779.75,-390.97 779.61,-397.97"/>
</g>
<!-- 10 -->
<!-- name: &quot;AttributeName&quot;, typeName: &quot;&quot;, id: 10, branchId: 0, recurseId: &#45;1, attributes: 0, notes: &quot;&quot; -->
<g id="node11" class="node">
<title>10</title>
<ellipse fill="none" stroke="black" cx="859.5" cy="-342" rx="66.71" ry="18"/>
<text xml:space="preserve" text-anchor="middle" x="859.5" y="-336.95" font-family="Times New Roman,serif" font-size="14.00">AttributeName</text>
</g>
<!-- 9&#45;&gt;10 -->
<g id="edge10" class="edge">
<title>9&#45;&gt;10</title>
<path fill="none" stroke="black" d="M665.75,-225.14C684.68,-249.21 721.35,-291.41 762.09,-315 771.62,-320.52 782.35,-324.96 793.08,-328.52"/>
<polygon fill="black" stroke="black" points="791.75,-331.77 802.34,-331.35 793.8,-325.08 791.75,-331.77"/>
</g>
<!-- 12 -->
<!-- name: &quot;FromAttribute&quot;, typeName: &quot;&quot;, id: 12, branchId: 0, recurseId: &#45;1, attributes: 0, notes: &quot;&quot; -->
<g id="node13" class="node">
<title>12</title>
<ellipse fill="none" stroke="black" cx="859.5" cy="-288" rx="64.66" ry="18"/>
<text xml:space="preserve" text-anchor="middle" x="859.5" y="-282.95" font-family="Times New Roman,serif" font-size="14.00">FromAttribute</text>
</g>
<!-- 9&#45;&gt;12 -->
<g id="edge12" class="edge">
<title>9&#45;&gt;12</title>
<path fill="none" stroke="black" d="M682.31,-223.67C704.03,-235.23 734.29,-250.38 762.09,-261 773.9,-265.51 786.77,-269.64 799.16,-273.23"/>
<polygon fill="black" stroke="black" points="797.85,-276.5 808.42,-275.84 799.75,-269.76 797.85,-276.5"/>
</g>
<!-- 14 -->
<!-- name: &quot;Attribute&quot;, typeName: &quot;&quot;, id: 14, branchId: 0, recurseId: &#45;1, attributes: 0, notes: &quot;&quot; -->
<g id="node15" class="node">
<title>14</title>
<ellipse fill="none" stroke="black" cx="859.5" cy="-234" rx="44.19" ry="18"/>
<text xml:space="preserve" text-anchor="middle" x="859.5" y="-228.95" font-family="Times New Roman,serif" font-size="14.00">Attribute</text>
</g>
<!-- 9&#45;&gt;14 -->
<g id="edge14" class="edge">
<title>9&#45;&gt;14</title>
<path fill="none" stroke="black" d="M717.76,-215.58C746.15,-219.3 778.94,-223.59 805.73,-227.09"/>
<polygon fill="black" stroke="black" points="804.94,-230.52 815.31,-228.35 805.85,-223.58 804.94,-230.52"/>
</g>
<!-- 16 -->
<!-- name: &quot;ToAttribute&quot;, typeName: &quot;&quot;, id: 16, branchId: 0, recurseId: &#45;1, attributes: 0, notes: &quot;&quot; -->
<g id="node17" class="node">
<title>16</title>
<ellipse fill="none" stroke="black" cx="859.5" cy="-180" rx="53.91" ry="18"/>
<text xml:space="preserve" text-anchor="middle" x="859.5" y="-174.95" font-family="Times New Roman,serif" font-size="14.00">ToAttribute</text>
</g>
<!-- 9&#45;&gt;16 -->
<g id="edge16" class="edge">
<title>9&#45;&gt;16</title>
<path fill="none" stroke="black" d="M717.76,-198.42C743.34,-195.07 772.49,-191.26 797.6,-187.97"/>
<polygon fill="black" stroke="black" points="797.87,-191.47 807.33,-186.7 796.96,-184.52 797.87,-191.47"/>
</g>
<!-- 18 -->
<!-- name: &quot;CurrentTransitionTicks&quot;, typeName: &quot;&quot;, id: 18, branchId: 0, recurseId: &#45;1, attributes: 0, notes: &quot;&quot; -->
<g id="node19" class="node">
<title>18</title>
<ellipse fill="none" stroke="black" cx="859.5" cy="-126" rx="97.41" ry="18"/>
<text xml:space="preserve" text-anchor="middle" x="859.5" y="-120.95" font-family="Times New Roman,serif" font-size="14.00">CurrentTransitionTicks</text>
</g>
<!-- 9&#45;&gt;18 -->
<g id="edge18" class="edge">
<title>9&#45;&gt;18</title>
<path fill="none" stroke="black" d="M682.31,-190.33C704.03,-178.77 734.29,-163.62 762.09,-153 770.63,-149.74 779.74,-146.67 788.81,-143.87"/>
<polygon fill="black" stroke="black" points="789.79,-147.23 798.37,-141.01 787.79,-140.52 789.79,-147.23"/>
</g>
<!-- 20 -->
<!-- name: &quot;TotalTransitionTicks&quot;, typeName: &quot;&quot;, id: 20, branchId: 0, recurseId: &#45;1, attributes: 0, notes: &quot;&quot; -->
<g id="node21" class="node">
<title>20</title>
<ellipse fill="none" stroke="black" cx="859.5" cy="-72" rx="88.2" ry="18"/>
<text xml:space="preserve" text-anchor="middle" x="859.5" y="-66.95" font-family="Times New Roman,serif" font-size="14.00">TotalTransitionTicks</text>
</g>
<!-- 9&#45;&gt;20 -->
<g id="edge20" class="edge">
<title>9&#45;&gt;20</title>
<path fill="none" stroke="black" d="M665.75,-188.86C684.68,-164.79 721.35,-122.59 762.09,-99 769.12,-94.93 776.8,-91.44 784.66,-88.47"/>
<polygon fill="black" stroke="black" points="785.71,-91.8 794.01,-85.21 783.41,-85.19 785.71,-91.8"/>
</g>
<!-- 22 -->
<!-- name: &quot;Easing&quot;, typeName: &quot;&quot;, id: 22, branchId: 0, recurseId: &#45;1, attributes: 0, notes: &quot;&quot; -->
<g id="node23" class="node">
<title>22</title>
<ellipse fill="none" stroke="black" cx="859.5" cy="-18" rx="36" ry="18"/>
<text xml:space="preserve" text-anchor="middle" x="859.5" y="-12.95" font-family="Times New Roman,serif" font-size="14.00">Easing</text>
</g>
<!-- 9&#45;&gt;22 -->
<g id="edge22" class="edge">
<title>9&#45;&gt;22</title>
<path fill="none" stroke="black" d="M659.44,-188.84C673.8,-155.19 709.13,-83.12 762.09,-45 776.9,-34.34 795.79,-27.88 812.91,-23.97"/>
<polygon fill="black" stroke="black" points="813.25,-27.47 822.36,-22.05 811.86,-20.61 813.25,-27.47"/>
</g>
<!-- 11 -->
<!-- name: &quot;string&quot;, typeName: &quot;&quot;, id: 11, branchId: 0, recurseId: &#45;1, attributes: 512, notes: &quot;&quot; -->
<g id="node12" class="node">
<title>11</title>
<ellipse fill="none" stroke="black" cx="1086.24" cy="-342" rx="31.9" ry="18"/>
<text xml:space="preserve" text-anchor="middle" x="1086.24" y="-336.95" font-family="Times New Roman,serif" font-size="14.00">string</text>
</g>
<!-- 10&#45;&gt;11 -->
<g id="edge11" class="edge">
<title>10&#45;&gt;11</title>
<path fill="none" stroke="black" d="M926.41,-342C963.9,-342 1009.77,-342 1042.55,-342"/>
<polygon fill="black" stroke="black" points="1042.49,-345.5 1052.49,-342 1042.49,-338.5 1042.49,-345.5"/>
</g>
<!-- 13 -->
<!-- name: &quot;&quot;, typeName: &quot;&quot;, id: 13, branchId: 0, recurseId: &#45;1, attributes: 512, notes: &quot;&quot; -->
<g id="node14" class="node">
<title>13</title>
<ellipse fill="none" stroke="black" cx="1086.24" cy="-288" rx="27" ry="18"/>
</g>
<!-- 12&#45;&gt;13 -->
<g id="edge13" class="edge">
<title>12&#45;&gt;13</title>
<path fill="none" stroke="black" d="M924.6,-288C964.41,-288 1014.19,-288 1047.7,-288"/>
<polygon fill="black" stroke="black" points="1047.32,-291.5 1057.32,-288 1047.32,-284.5 1047.32,-291.5"/>
</g>
<!-- 15 -->
<!-- name: &quot;&quot;, typeName: &quot;&quot;, id: 15, branchId: 0, recurseId: &#45;1, attributes: 512, notes: &quot;&quot; -->
<g id="node16" class="node">
<title>15</title>
<ellipse fill="none" stroke="black" cx="1086.24" cy="-234" rx="27" ry="18"/>
</g>
<!-- 14&#45;&gt;15 -->
<g id="edge15" class="edge">
<title>14&#45;&gt;15</title>
<path fill="none" stroke="black" d="M904.1,-234C945.84,-234 1008.13,-234 1047.71,-234"/>
<polygon fill="black" stroke="black" points="1047.46,-237.5 1057.46,-234 1047.46,-230.5 1047.46,-237.5"/>
</g>
<!-- 17 -->
<!-- name: &quot;&quot;, typeName: &quot;&quot;, id: 17, branchId: 0, recurseId: &#45;1, attributes: 512, notes: &quot;&quot; -->
<g id="node18" class="node">
<title>17</title>
<ellipse fill="none" stroke="black" cx="1086.24" cy="-180" rx="27" ry="18"/>
</g>
<!-- 16&#45;&gt;17 -->
<g id="edge17" class="edge">
<title>16&#45;&gt;17</title>
<path fill="none" stroke="black" d="M913.76,-180C954.99,-180 1011.06,-180 1047.69,-180"/>
<polygon fill="black" stroke="black" points="1047.34,-183.5 1057.34,-180 1047.34,-176.5 1047.34,-183.5"/>
</g>
<!-- 19 -->
<!-- name: &quot;unsigned int&quot;, typeName: &quot;&quot;, id: 19, branchId: 0, recurseId: &#45;1, attributes: 512, notes: &quot;&quot; -->
<g id="node20" class="node">
<title>19</title>
<ellipse fill="none" stroke="black" cx="1086.24" cy="-126" rx="56.47" ry="18"/>
<text xml:space="preserve" text-anchor="middle" x="1086.24" y="-120.95" font-family="Times New Roman,serif" font-size="14.00">unsigned int</text>
</g>
<!-- 18&#45;&gt;19 -->
<g id="edge19" class="edge">
<title>18&#45;&gt;19</title>
<path fill="none" stroke="black" d="M957.12,-126C977.71,-126 999.01,-126 1018.2,-126"/>
<polygon fill="black" stroke="black" points="1018.03,-129.5 1028.03,-126 1018.03,-122.5 1018.03,-129.5"/>
</g>
<!-- 21 -->
<!-- name: &quot;unsigned int&quot;, typeName: &quot;&quot;, id: 21, branchId: 0, recurseId: &#45;1, attributes: 512, notes: &quot;&quot; -->
<g id="node22" class="node">
<title>21</title>
<ellipse fill="none" stroke="black" cx="1086.24" cy="-72" rx="56.47" ry="18"/>
<text xml:space="preserve" text-anchor="middle" x="1086.24" y="-66.95" font-family="Times New Roman,serif" font-size="14.00">unsigned int</text>
</g>
<!-- 20&#45;&gt;21 -->
<g id="edge21" class="edge">
<title>20&#45;&gt;21</title>
<path fill="none" stroke="black" d="M948.04,-72C971.34,-72 996.13,-72 1018.15,-72"/>
<polygon fill="black" stroke="black" points="1017.87,-75.5 1027.87,-72 1017.87,-68.5 1017.87,-75.5"/>
</g>
<!-- 23 -->
<!-- name: &quot;enum easing_function&quot;, typeName: &quot;&quot;, id: 23, branchId: 0, recurseId: &#45;1, attributes: 512, notes: &quot;&quot; -->
<g id="node24" class="node">
<title>23</title>
<ellipse fill="none" stroke="black" cx="1086.24" cy="-18" rx="93.32" ry="18"/>
<text xml:space="preserve" text-anchor="middle" x="1086.24" y="-12.95" font-family="Times New Roman,serif" font-size="14.00">enum easing_function</text>
</g>
<!-- 22&#45;&gt;23 -->
<g id="edge23" class="edge">
<title>22&#45;&gt;23</title>
<path fill="none" stroke="black" d="M895.62,-18C918.82,-18 950.53,-18 981.39,-18"/>
<polygon fill="black" stroke="black" points="981.18,-21.5 991.18,-18 981.18,-14.5 981.18,-21.5"/>
</g>
</g>
</svg>
