<?xml version="1.0" encoding="UTF-8" standalone="no"?>
<!DOCTYPE svg PUBLIC "-//W3C//DTD SVG 1.1//EN"
 "http://www.w3.org/Graphics/SVG/1.1/DTD/svg11.dtd">
<!-- Generated by graphviz version 9.0.0 (20230911.1827)
 -->
<!-- Title: UpdateBlockPacket Pages: 1 -->
<svg width="595pt" height="206pt"
 viewBox="0.00 0.00 594.96 206.00" xmlns="http://www.w3.org/2000/svg" xmlns:xlink="http://www.w3.org/1999/xlink">
<g id="graph0" class="graph" transform="scale(1 1) rotate(0) translate(4 202)">
<title>UpdateBlockPacket</title>
<polygon fill="white" stroke="none" points="-4,4 -4,-202 590.96,-202 590.96,4 -4,4"/>
<!-- 0 -->
<!-- name: &quot;UpdateBlockPacket&quot;, typeName: &quot;&quot;, id: 0, branchId: 21, recurseId: &#45;1, attributes: 0, notes: &quot;&quot; -->
<g id="node1" class="node">
<title>0</title>
<ellipse fill="none" stroke="black" cx="84.5" cy="-99" rx="84.5" ry="18"/>
<text text-anchor="middle" x="84.5" y="-93.58" font-family="Times New Roman,serif" font-size="14.00">UpdateBlockPacket</text>
</g>
<!-- 1 -->
<!-- name: &quot;Block Position&quot;, typeName: &quot;NetworkBlockPosition&quot;, id: 1, branchId: 0, recurseId: &#45;1, attributes: 256, notes: &quot;&quot; -->
<g id="node2" class="node">
<title>1</title>
<ellipse fill="none" stroke="black" cx="283" cy="-180" rx="65.53" ry="18"/>
<text text-anchor="middle" x="283" y="-174.57" font-family="Times New Roman,serif" font-size="14.00">Block Position</text>
</g>
<!-- 0&#45;&gt;1 -->
<g id="edge1" class="edge">
<title>0&#45;&gt;1</title>
<path fill="none" stroke="black" d="M120.18,-115.64C143.85,-126.76 176.04,-141.41 204.99,-153 212.86,-156.15 221.25,-159.3 229.49,-162.28"/>
<polygon fill="black" stroke="black" points="228.17,-165.52 238.76,-165.58 230.52,-158.93 228.17,-165.52"/>
</g>
<!-- 3 -->
<!-- name: &quot;Block Runtime ID&quot;, typeName: &quot;&quot;, id: 3, branchId: 0, recurseId: &#45;1, attributes: 0, notes: &quot;&quot; -->
<g id="node4" class="node">
<title>3</title>
<ellipse fill="none" stroke="black" cx="283" cy="-126" rx="78.01" ry="18"/>
<text text-anchor="middle" x="283" y="-120.58" font-family="Times New Roman,serif" font-size="14.00">Block Runtime ID</text>
</g>
<!-- 0&#45;&gt;3 -->
<g id="edge3" class="edge">
<title>0&#45;&gt;3</title>
<path fill="none" stroke="black" d="M156.44,-108.75C171.83,-110.86 188.2,-113.11 203.85,-115.26"/>
<polygon fill="black" stroke="black" points="203.21,-118.71 213.6,-116.6 204.17,-111.77 203.21,-118.71"/>
</g>
<!-- 5 -->
<!-- name: &quot;Flags&quot;, typeName: &quot;&quot;, id: 5, branchId: 0, recurseId: &#45;1, attributes: 0, notes: &quot;&quot; -->
<g id="node6" class="node">
<title>5</title>
<ellipse fill="none" stroke="black" cx="283" cy="-72" rx="30.61" ry="18"/>
<text text-anchor="middle" x="283" y="-66.58" font-family="Times New Roman,serif" font-size="14.00">Flags</text>
</g>
<!-- 0&#45;&gt;5 -->
<g id="edge5" class="edge">
<title>0&#45;&gt;5</title>
<path fill="none" stroke="black" d="M156.44,-89.25C184.97,-85.33 216.84,-80.95 241.33,-77.59"/>
<polygon fill="black" stroke="black" points="241.79,-81.06 251.22,-76.23 240.83,-74.12 241.79,-81.06"/>
</g>
<!-- 7 -->
<!-- name: &quot;Layer&quot;, typeName: &quot;&quot;, id: 7, branchId: 0, recurseId: &#45;1, attributes: 0, notes: &quot;&quot; -->
<g id="node8" class="node">
<title>7</title>
<ellipse fill="none" stroke="black" cx="283" cy="-18" rx="31.6" ry="18"/>
<text text-anchor="middle" x="283" y="-12.57" font-family="Times New Roman,serif" font-size="14.00">Layer</text>
</g>
<!-- 0&#45;&gt;7 -->
<g id="edge7" class="edge">
<title>0&#45;&gt;7</title>
<path fill="none" stroke="black" d="M120.18,-82.36C143.85,-71.24 176.04,-56.59 204.99,-45 217.71,-39.91 231.8,-34.81 244.42,-30.44"/>
<polygon fill="black" stroke="black" points="245.3,-33.84 253.63,-27.29 243.03,-27.22 245.3,-33.84"/>
</g>
<!-- 2 -->
<!-- name: &quot;NetworkBlockPosition&quot;, typeName: &quot;&quot;, id: 2, branchId: 0, recurseId: &#45;1, attributes: 512, notes: &quot;&quot; -->
<g id="node3" class="node">
<title>2</title>
<ellipse fill="none" stroke="black" cx="491.99" cy="-180" rx="94.98" ry="18"/>
<text text-anchor="middle" x="491.99" y="-174.57" font-family="Times New Roman,serif" font-size="14.00">NetworkBlockPosition</text>
</g>
<!-- 1&#45;&gt;2 -->
<g id="edge2" class="edge">
<title>1&#45;&gt;2</title>
<path fill="none" stroke="black" d="M348.93,-180C360.55,-180 372.92,-180 385.34,-180"/>
<polygon fill="black" stroke="black" points="385.22,-183.5 395.22,-180 385.22,-176.5 385.22,-183.5"/>
</g>
<!-- 4 -->
<!-- name: &quot;unsigned varint&quot;, typeName: &quot;&quot;, id: 4, branchId: 0, recurseId: &#45;1, attributes: 512, notes: &quot;&quot; -->
<g id="node5" class="node">
<title>4</title>
<ellipse fill="none" stroke="black" cx="491.99" cy="-126" rx="66.53" ry="18"/>
<text text-anchor="middle" x="491.99" y="-120.58" font-family="Times New Roman,serif" font-size="14.00">unsigned varint</text>
</g>
<!-- 3&#45;&gt;4 -->
<g id="edge4" class="edge">
<title>3&#45;&gt;4</title>
<path fill="none" stroke="black" d="M361.37,-126C378.61,-126 396.88,-126 414.1,-126"/>
<polygon fill="black" stroke="black" points="413.73,-129.5 423.73,-126 413.73,-122.5 413.73,-129.5"/>
</g>
<!-- 6 -->
<!-- name: &quot;unsigned varint&quot;, typeName: &quot;&quot;, id: 6, branchId: 0, recurseId: &#45;1, attributes: 512, notes: &quot;&quot; -->
<g id="node7" class="node">
<title>6</title>
<ellipse fill="none" stroke="black" cx="491.99" cy="-72" rx="66.53" ry="18"/>
<text text-anchor="middle" x="491.99" y="-66.58" font-family="Times New Roman,serif" font-size="14.00">unsigned varint</text>
</g>
<!-- 5&#45;&gt;6 -->
<g id="edge6" class="edge">
<title>5&#45;&gt;6</title>
<path fill="none" stroke="black" d="M314.1,-72C340.3,-72 379.44,-72 414.25,-72"/>
<polygon fill="black" stroke="black" points="413.86,-75.5 423.86,-72 413.86,-68.5 413.86,-75.5"/>
</g>
<!-- 8 -->
<!-- name: &quot;unsigned varint&quot;, typeName: &quot;&quot;, id: 8, branchId: 0, recurseId: &#45;1, attributes: 512, notes: &quot;&quot; -->
<g id="node9" class="node">
<title>8</title>
<ellipse fill="none" stroke="black" cx="491.99" cy="-18" rx="66.53" ry="18"/>
<text text-anchor="middle" x="491.99" y="-12.57" font-family="Times New Roman,serif" font-size="14.00">unsigned varint</text>
</g>
<!-- 7&#45;&gt;8 -->
<g id="edge8" class="edge">
<title>7&#45;&gt;8</title>
<path fill="none" stroke="black" d="M314.99,-18C341.03,-18 379.38,-18 413.64,-18"/>
<polygon fill="black" stroke="black" points="413.56,-21.5 423.56,-18 413.56,-14.5 413.56,-21.5"/>
</g>
</g>
</svg>
