<?xml version="1.0" encoding="UTF-8" standalone="no"?>
<!DOCTYPE svg PUBLIC "-//W3C//DTD SVG 1.1//EN"
 "http://www.w3.org/Graphics/SVG/1.1/DTD/svg11.dtd">
<!-- Generated by graphviz version 12.2.1 (20241206.2353)
 -->
<!-- Title: UpdateBlockSyncedPacket Pages: 1 -->
<svg width="670pt" height="314pt"
 viewBox="0.00 0.00 669.60 314.00" xmlns="http://www.w3.org/2000/svg" xmlns:xlink="http://www.w3.org/1999/xlink">
<g id="graph0" class="graph" transform="scale(1 1) rotate(0) translate(4 310)">
<title>UpdateBlockSyncedPacket</title>
<polygon fill="white" stroke="none" points="-4,4 -4,-310 665.6,-310 665.6,4 -4,4"/>
<!-- 0 -->
<!-- name: &quot;UpdateBlockSyncedPacket&quot;, typeName: &quot;&quot;, id: 0, branchId: 110, recurseId: &#45;1, attributes: 0, notes: &quot;&quot; -->
<g id="node1" class="node">
<title>0</title>
<ellipse fill="none" stroke="black" cx="111.23" cy="-153" rx="111.23" ry="18"/>
<text text-anchor="middle" x="111.23" y="-147.95" font-family="Times New Roman,serif" font-size="14.00">UpdateBlockSyncedPacket</text>
</g>
<!-- 1 -->
<!-- name: &quot;Block Position&quot;, typeName: &quot;NetworkBlockPosition&quot;, id: 1, branchId: 0, recurseId: &#45;1, attributes: 256, notes: &quot;&quot; -->
<g id="node2" class="node">
<title>1</title>
<ellipse fill="none" stroke="black" cx="346.67" cy="-288" rx="65.68" ry="18"/>
<text text-anchor="middle" x="346.67" y="-282.95" font-family="Times New Roman,serif" font-size="14.00">Block Position</text>
</g>
<!-- 0&#45;&gt;1 -->
<g id="edge1" class="edge">
<title>0&#45;&gt;1</title>
<path fill="none" stroke="black" d="M132.09,-171.11C158.94,-194.76 209.18,-236.08 258.47,-261 267,-265.32 276.37,-269.1 285.69,-272.36"/>
<polygon fill="black" stroke="black" points="284.53,-275.66 295.12,-275.47 286.72,-269.02 284.53,-275.66"/>
</g>
<!-- 3 -->
<!-- name: &quot;Block Runtime ID&quot;, typeName: &quot;&quot;, id: 3, branchId: 0, recurseId: &#45;1, attributes: 0, notes: &quot;&quot; -->
<g id="node4" class="node">
<title>3</title>
<ellipse fill="none" stroke="black" cx="346.67" cy="-234" rx="80.01" ry="18"/>
<text text-anchor="middle" x="346.67" y="-228.95" font-family="Times New Roman,serif" font-size="14.00">Block Runtime ID</text>
</g>
<!-- 0&#45;&gt;3 -->
<g id="edge3" class="edge">
<title>0&#45;&gt;3</title>
<path fill="none" stroke="black" d="M156.17,-169.92C185.09,-180.89 223.87,-195.26 258.47,-207 267.42,-210.04 276.94,-213.12 286.27,-216.07"/>
<polygon fill="black" stroke="black" points="285.05,-219.36 295.64,-219.01 287.15,-212.68 285.05,-219.36"/>
</g>
<!-- 5 -->
<!-- name: &quot;Flags&quot;, typeName: &quot;&quot;, id: 5, branchId: 0, recurseId: &#45;1, attributes: 0, notes: &quot;&quot; -->
<g id="node6" class="node">
<title>5</title>
<ellipse fill="none" stroke="black" cx="346.67" cy="-180" rx="30.88" ry="18"/>
<text text-anchor="middle" x="346.67" y="-174.95" font-family="Times New Roman,serif" font-size="14.00">Flags</text>
</g>
<!-- 0&#45;&gt;5 -->
<g id="edge5" class="edge">
<title>0&#45;&gt;5</title>
<path fill="none" stroke="black" d="M203.15,-163.52C238.21,-167.57 276.54,-172 304.61,-175.25"/>
<polygon fill="black" stroke="black" points="304.14,-178.72 314.47,-176.39 304.94,-171.77 304.14,-178.72"/>
</g>
<!-- 7 -->
<!-- name: &quot;Layer&quot;, typeName: &quot;&quot;, id: 7, branchId: 0, recurseId: &#45;1, attributes: 0, notes: &quot;&quot; -->
<g id="node8" class="node">
<title>7</title>
<ellipse fill="none" stroke="black" cx="346.67" cy="-126" rx="32.41" ry="18"/>
<text text-anchor="middle" x="346.67" y="-120.95" font-family="Times New Roman,serif" font-size="14.00">Layer</text>
</g>
<!-- 0&#45;&gt;7 -->
<g id="edge7" class="edge">
<title>0&#45;&gt;7</title>
<path fill="none" stroke="black" d="M203.15,-142.48C237.65,-138.49 275.32,-134.14 303.26,-130.91"/>
<polygon fill="black" stroke="black" points="303.57,-134.39 313.1,-129.77 302.76,-127.44 303.57,-134.39"/>
</g>
<!-- 9 -->
<!-- name: &quot;Unique Actor Id&quot;, typeName: &quot;&quot;, id: 9, branchId: 0, recurseId: &#45;1, attributes: 0, notes: &quot;Id for the Moving Block Actor&quot; -->
<g id="node10" class="node">
<title>9</title>
<ellipse fill="none" stroke="black" cx="346.67" cy="-72" rx="71.31" ry="18"/>
<text text-anchor="middle" x="346.67" y="-66.95" font-family="Times New Roman,serif" font-size="14.00">Unique Actor Id</text>
</g>
<!-- 0&#45;&gt;9 -->
<g id="edge9" class="edge">
<title>0&#45;&gt;9</title>
<path fill="none" stroke="black" d="M156.17,-136.08C185.09,-125.11 223.87,-110.74 258.47,-99 268.17,-95.71 278.52,-92.36 288.59,-89.19"/>
<polygon fill="black" stroke="black" points="289.41,-92.6 297.91,-86.28 287.32,-85.92 289.41,-92.6"/>
</g>
<!-- 11 -->
<!-- name: &quot;Actor Sync Message&quot;, typeName: &quot;&quot;, id: 11, branchId: 0, recurseId: &#45;1, attributes: 0, notes: &quot;&quot; -->
<g id="node12" class="node">
<title>11</title>
<ellipse fill="none" stroke="black" cx="346.67" cy="-18" rx="88.2" ry="18"/>
<text text-anchor="middle" x="346.67" y="-12.95" font-family="Times New Roman,serif" font-size="14.00">Actor Sync Message</text>
</g>
<!-- 0&#45;&gt;11 -->
<g id="edge11" class="edge">
<title>0&#45;&gt;11</title>
<path fill="none" stroke="black" d="M132.09,-134.89C158.94,-111.24 209.18,-69.92 258.47,-45 265.12,-41.64 272.27,-38.6 279.51,-35.88"/>
<polygon fill="black" stroke="black" points="280.45,-39.26 288.71,-32.62 278.12,-32.66 280.45,-39.26"/>
</g>
<!-- 2 -->
<!-- name: &quot;NetworkBlockPosition&quot;, typeName: &quot;&quot;, id: 2, branchId: 0, recurseId: &#45;1, attributes: 512, notes: &quot;&quot; -->
<g id="node3" class="node">
<title>2</title>
<ellipse fill="none" stroke="black" cx="566.24" cy="-288" rx="95.37" ry="18"/>
<text text-anchor="middle" x="566.24" y="-282.95" font-family="Times New Roman,serif" font-size="14.00">NetworkBlockPosition</text>
</g>
<!-- 1&#45;&gt;2 -->
<g id="edge2" class="edge">
<title>1&#45;&gt;2</title>
<path fill="none" stroke="black" d="M412.65,-288C427.26,-288 443.14,-288 458.94,-288"/>
<polygon fill="black" stroke="black" points="458.91,-291.5 468.91,-288 458.91,-284.5 458.91,-291.5"/>
</g>
<!-- 4 -->
<!-- name: &quot;unsigned varint&quot;, typeName: &quot;&quot;, id: 4, branchId: 0, recurseId: &#45;1, attributes: 512, notes: &quot;&quot; -->
<g id="node5" class="node">
<title>4</title>
<ellipse fill="none" stroke="black" cx="566.24" cy="-234" rx="68.24" ry="18"/>
<text text-anchor="middle" x="566.24" y="-228.95" font-family="Times New Roman,serif" font-size="14.00">unsigned varint</text>
</g>
<!-- 3&#45;&gt;4 -->
<g id="edge4" class="edge">
<title>3&#45;&gt;4</title>
<path fill="none" stroke="black" d="M427.14,-234C446.43,-234 467.05,-234 486.31,-234"/>
<polygon fill="black" stroke="black" points="486.28,-237.5 496.28,-234 486.28,-230.5 486.28,-237.5"/>
</g>
<!-- 6 -->
<!-- name: &quot;unsigned varint&quot;, typeName: &quot;&quot;, id: 6, branchId: 0, recurseId: &#45;1, attributes: 512, notes: &quot;&quot; -->
<g id="node7" class="node">
<title>6</title>
<ellipse fill="none" stroke="black" cx="566.24" cy="-180" rx="68.24" ry="18"/>
<text text-anchor="middle" x="566.24" y="-174.95" font-family="Times New Roman,serif" font-size="14.00">unsigned varint</text>
</g>
<!-- 5&#45;&gt;6 -->
<g id="edge6" class="edge">
<title>5&#45;&gt;6</title>
<path fill="none" stroke="black" d="M377.92,-180C405.85,-180 448.58,-180 486.18,-180"/>
<polygon fill="black" stroke="black" points="486.15,-183.5 496.15,-180 486.15,-176.5 486.15,-183.5"/>
</g>
<!-- 8 -->
<!-- name: &quot;unsigned varint&quot;, typeName: &quot;&quot;, id: 8, branchId: 0, recurseId: &#45;1, attributes: 512, notes: &quot;&quot; -->
<g id="node9" class="node">
<title>8</title>
<ellipse fill="none" stroke="black" cx="566.24" cy="-126" rx="68.24" ry="18"/>
<text text-anchor="middle" x="566.24" y="-120.95" font-family="Times New Roman,serif" font-size="14.00">unsigned varint</text>
</g>
<!-- 7&#45;&gt;8 -->
<g id="edge8" class="edge">
<title>7&#45;&gt;8</title>
<path fill="none" stroke="black" d="M379.3,-126C407.29,-126 449.3,-126 486.32,-126"/>
<polygon fill="black" stroke="black" points="486.11,-129.5 496.11,-126 486.11,-122.5 486.11,-129.5"/>
</g>
<!-- 10 -->
<!-- name: &quot;unsigned varint64&quot;, typeName: &quot;&quot;, id: 10, branchId: 0, recurseId: &#45;1, attributes: 512, notes: &quot;&quot; -->
<g id="node11" class="node">
<title>10</title>
<ellipse fill="none" stroke="black" cx="566.24" cy="-72" rx="77.45" ry="18"/>
<text text-anchor="middle" x="566.24" y="-66.95" font-family="Times New Roman,serif" font-size="14.00">unsigned varint64</text>
</g>
<!-- 9&#45;&gt;10 -->
<g id="edge10" class="edge">
<title>9&#45;&gt;10</title>
<path fill="none" stroke="black" d="M418.31,-72C437.08,-72 457.59,-72 477.17,-72"/>
<polygon fill="black" stroke="black" points="477.06,-75.5 487.06,-72 477.06,-68.5 477.06,-75.5"/>
</g>
<!-- 12 -->
<!-- name: &quot;unsigned varint64&quot;, typeName: &quot;&quot;, id: 12, branchId: 0, recurseId: &#45;1, attributes: 512, notes: &quot;&quot; -->
<g id="node13" class="node">
<title>12</title>
<ellipse fill="none" stroke="black" cx="566.24" cy="-18" rx="77.45" ry="18"/>
<text text-anchor="middle" x="566.24" y="-12.95" font-family="Times New Roman,serif" font-size="14.00">unsigned varint64</text>
</g>
<!-- 11&#45;&gt;12 -->
<g id="edge12" class="edge">
<title>11&#45;&gt;12</title>
<path fill="none" stroke="black" d="M435.22,-18C448.97,-18 463.18,-18 476.94,-18"/>
<polygon fill="black" stroke="black" points="476.86,-21.5 486.86,-18 476.86,-14.5 476.86,-21.5"/>
</g>
</g>
</svg>
