<?xml version="1.0" encoding="UTF-8" standalone="no"?>
<!DOCTYPE svg PUBLIC "-//W3C//DTD SVG 1.1//EN"
 "http://www.w3.org/Graphics/SVG/1.1/DTD/svg11.dtd">
<!-- Generated by graphviz version 2.46.1 (20210213.1702)
 -->
<!-- Title: UpdateBlockSyncedPacket Pages: 1 -->
<svg width="661pt" height="314pt"
 viewBox="0.00 0.00 661.05 314.00" xmlns="http://www.w3.org/2000/svg" xmlns:xlink="http://www.w3.org/1999/xlink">
<g id="graph0" class="graph" transform="scale(1 1) rotate(0) translate(4 310)">
<title>UpdateBlockSyncedPacket</title>
<polygon fill="white" stroke="transparent" points="-4,4 -4,-310 657.05,-310 657.05,4 -4,4"/>
<!-- 0 -->
<!-- name: &quot;UpdateBlockSyncedPacket&quot;, typeName: &quot;&quot;, id: 0, branchId: 110, recurseId: &#45;1, attributes: 0, notes: &quot;&quot; -->
<g id="node1" class="node">
<title>0</title>
<ellipse fill="none" stroke="black" cx="110.49" cy="-153" rx="110.48" ry="18"/>
<text text-anchor="middle" x="110.49" y="-149.3" font-family="Times New Roman,serif" font-size="14.00">UpdateBlockSyncedPacket</text>
</g>
<!-- 1 -->
<!-- name: &quot;Block Position&quot;, typeName: &quot;NetworkBlockPosition&quot;, id: 1, branchId: 0, recurseId: &#45;1, attributes: 256, notes: &quot;&quot; -->
<g id="node2" class="node">
<title>1</title>
<ellipse fill="none" stroke="black" cx="344.07" cy="-288" rx="64.19" ry="18"/>
<text text-anchor="middle" x="344.07" y="-284.3" font-family="Times New Roman,serif" font-size="14.00">Block Position</text>
</g>
<!-- 0&#45;&gt;1 -->
<g id="edge1" class="edge">
<title>0&#45;&gt;1</title>
<path fill="none" stroke="black" d="M131.24,-171.09C157.95,-194.72 207.93,-236.01 256.98,-261 265.98,-265.59 275.91,-269.58 285.73,-272.98"/>
<polygon fill="black" stroke="black" points="284.89,-276.38 295.48,-276.18 287.07,-269.73 284.89,-276.38"/>
</g>
<!-- 3 -->
<!-- name: &quot;Block Runtime ID&quot;, typeName: &quot;&quot;, id: 3, branchId: 0, recurseId: &#45;1, attributes: 0, notes: &quot;&quot; -->
<g id="node4" class="node">
<title>3</title>
<ellipse fill="none" stroke="black" cx="344.07" cy="-234" rx="76.89" ry="18"/>
<text text-anchor="middle" x="344.07" y="-230.3" font-family="Times New Roman,serif" font-size="14.00">Block Runtime ID</text>
</g>
<!-- 0&#45;&gt;3 -->
<g id="edge3" class="edge">
<title>0&#45;&gt;3</title>
<path fill="none" stroke="black" d="M154.25,-169.53C183.13,-180.53 222.18,-195.1 256.98,-207 266.54,-210.27 276.75,-213.61 286.67,-216.77"/>
<polygon fill="black" stroke="black" points="285.87,-220.19 296.46,-219.86 287.98,-213.51 285.87,-220.19"/>
</g>
<!-- 5 -->
<!-- name: &quot;Flags&quot;, typeName: &quot;&quot;, id: 5, branchId: 0, recurseId: &#45;1, attributes: 0, notes: &quot;&quot; -->
<g id="node6" class="node">
<title>5</title>
<ellipse fill="none" stroke="black" cx="344.07" cy="-180" rx="30.59" ry="18"/>
<text text-anchor="middle" x="344.07" y="-176.3" font-family="Times New Roman,serif" font-size="14.00">Flags</text>
</g>
<!-- 0&#45;&gt;5 -->
<g id="edge5" class="edge">
<title>0&#45;&gt;5</title>
<path fill="none" stroke="black" d="M200.69,-163.4C236.28,-167.55 275.42,-172.11 303.63,-175.4"/>
<polygon fill="black" stroke="black" points="303.55,-178.92 313.88,-176.6 304.36,-171.96 303.55,-178.92"/>
</g>
<!-- 7 -->
<!-- name: &quot;Layer&quot;, typeName: &quot;&quot;, id: 7, branchId: 0, recurseId: &#45;1, attributes: 0, notes: &quot;&quot; -->
<g id="node8" class="node">
<title>7</title>
<ellipse fill="none" stroke="black" cx="344.07" cy="-126" rx="31.4" ry="18"/>
<text text-anchor="middle" x="344.07" y="-122.3" font-family="Times New Roman,serif" font-size="14.00">Layer</text>
</g>
<!-- 0&#45;&gt;7 -->
<g id="edge7" class="edge">
<title>0&#45;&gt;7</title>
<path fill="none" stroke="black" d="M200.69,-142.6C236.06,-138.48 274.92,-133.95 303.1,-130.66"/>
<polygon fill="black" stroke="black" points="303.81,-134.1 313.34,-129.47 303,-127.15 303.81,-134.1"/>
</g>
<!-- 9 -->
<!-- name: &quot;Unique Actor Id&quot;, typeName: &quot;&quot;, id: 9, branchId: 0, recurseId: &#45;1, attributes: 0, notes: &quot;Id for the Moving Block Actor&quot; -->
<g id="node10" class="node">
<title>9</title>
<ellipse fill="none" stroke="black" cx="344.07" cy="-72" rx="70.39" ry="18"/>
<text text-anchor="middle" x="344.07" y="-68.3" font-family="Times New Roman,serif" font-size="14.00">Unique Actor Id</text>
</g>
<!-- 0&#45;&gt;9 -->
<g id="edge9" class="edge">
<title>0&#45;&gt;9</title>
<path fill="none" stroke="black" d="M154.25,-136.47C183.13,-125.47 222.18,-110.9 256.98,-99 266.98,-95.58 277.68,-92.09 288.03,-88.8"/>
<polygon fill="black" stroke="black" points="289.32,-92.06 297.8,-85.72 287.21,-85.39 289.32,-92.06"/>
</g>
<!-- 11 -->
<!-- name: &quot;Actor Sync Message&quot;, typeName: &quot;&quot;, id: 11, branchId: 0, recurseId: &#45;1, attributes: 0, notes: &quot;enumeration: ActorBlockSyncMessage::MessageId&quot; -->
<g id="node12" class="node">
<title>11</title>
<ellipse fill="none" stroke="black" cx="344.07" cy="-18" rx="87.18" ry="18"/>
<text text-anchor="middle" x="344.07" y="-14.3" font-family="Times New Roman,serif" font-size="14.00">Actor Sync Message</text>
</g>
<!-- 0&#45;&gt;11 -->
<g id="edge11" class="edge">
<title>0&#45;&gt;11</title>
<path fill="none" stroke="black" d="M131.24,-134.91C157.95,-111.28 207.93,-69.99 256.98,-45 263.95,-41.45 271.47,-38.26 279.07,-35.42"/>
<polygon fill="black" stroke="black" points="280.44,-38.65 288.7,-32.01 278.1,-32.05 280.44,-38.65"/>
</g>
<!-- 2 -->
<!-- name: &quot;NetworkBlockPosition&quot;, typeName: &quot;&quot;, id: 2, branchId: 0, recurseId: &#45;1, attributes: 512, notes: &quot;&quot; -->
<g id="node3" class="node">
<title>2</title>
<ellipse fill="none" stroke="black" cx="560.11" cy="-288" rx="92.88" ry="18"/>
<text text-anchor="middle" x="560.11" y="-284.3" font-family="Times New Roman,serif" font-size="14.00">NetworkBlockPosition</text>
</g>
<!-- 1&#45;&gt;2 -->
<g id="edge2" class="edge">
<title>1&#45;&gt;2</title>
<path fill="none" stroke="black" d="M408.42,-288C423.63,-288 440.26,-288 456.75,-288"/>
<polygon fill="black" stroke="black" points="456.98,-291.5 466.98,-288 456.98,-284.5 456.98,-291.5"/>
</g>
<!-- 4 -->
<!-- name: &quot;unsigned varint&quot;, typeName: &quot;&quot;, id: 4, branchId: 0, recurseId: &#45;1, attributes: 512, notes: &quot;&quot; -->
<g id="node5" class="node">
<title>4</title>
<ellipse fill="none" stroke="black" cx="560.11" cy="-234" rx="65.79" ry="18"/>
<text text-anchor="middle" x="560.11" y="-230.3" font-family="Times New Roman,serif" font-size="14.00">unsigned varint</text>
</g>
<!-- 3&#45;&gt;4 -->
<g id="edge4" class="edge">
<title>3&#45;&gt;4</title>
<path fill="none" stroke="black" d="M420.83,-234C441.41,-234 463.67,-234 484.2,-234"/>
<polygon fill="black" stroke="black" points="484.44,-237.5 494.44,-234 484.44,-230.5 484.44,-237.5"/>
</g>
<!-- 6 -->
<!-- name: &quot;unsigned varint&quot;, typeName: &quot;&quot;, id: 6, branchId: 0, recurseId: &#45;1, attributes: 512, notes: &quot;&quot; -->
<g id="node7" class="node">
<title>6</title>
<ellipse fill="none" stroke="black" cx="560.11" cy="-180" rx="65.79" ry="18"/>
<text text-anchor="middle" x="560.11" y="-176.3" font-family="Times New Roman,serif" font-size="14.00">unsigned varint</text>
</g>
<!-- 5&#45;&gt;6 -->
<g id="edge6" class="edge">
<title>5&#45;&gt;6</title>
<path fill="none" stroke="black" d="M374.83,-180C402.97,-180 446.37,-180 483.98,-180"/>
<polygon fill="black" stroke="black" points="484.42,-183.5 494.42,-180 484.42,-176.5 484.42,-183.5"/>
</g>
<!-- 8 -->
<!-- name: &quot;unsigned varint&quot;, typeName: &quot;&quot;, id: 8, branchId: 0, recurseId: &#45;1, attributes: 512, notes: &quot;&quot; -->
<g id="node9" class="node">
<title>8</title>
<ellipse fill="none" stroke="black" cx="560.11" cy="-126" rx="65.79" ry="18"/>
<text text-anchor="middle" x="560.11" y="-122.3" font-family="Times New Roman,serif" font-size="14.00">unsigned varint</text>
</g>
<!-- 7&#45;&gt;8 -->
<g id="edge8" class="edge">
<title>7&#45;&gt;8</title>
<path fill="none" stroke="black" d="M375.28,-126C403.41,-126 446.49,-126 483.87,-126"/>
<polygon fill="black" stroke="black" points="484.25,-129.5 494.25,-126 484.25,-122.5 484.25,-129.5"/>
</g>
<!-- 10 -->
<!-- name: &quot;varint64&quot;, typeName: &quot;&quot;, id: 10, branchId: 0, recurseId: &#45;1, attributes: 512, notes: &quot;&quot; -->
<g id="node11" class="node">
<title>10</title>
<ellipse fill="none" stroke="black" cx="560.11" cy="-72" rx="39.79" ry="18"/>
<text text-anchor="middle" x="560.11" y="-68.3" font-family="Times New Roman,serif" font-size="14.00">varint64</text>
</g>
<!-- 9&#45;&gt;10 -->
<g id="edge10" class="edge">
<title>9&#45;&gt;10</title>
<path fill="none" stroke="black" d="M414.27,-72C445.6,-72 481.89,-72 510.3,-72"/>
<polygon fill="black" stroke="black" points="510.39,-75.5 520.39,-72 510.39,-68.5 510.39,-75.5"/>
</g>
<!-- 12 -->
<!-- name: &quot;varint64&quot;, typeName: &quot;&quot;, id: 12, branchId: 0, recurseId: &#45;1, attributes: 512, notes: &quot;&quot; -->
<g id="node13" class="node">
<title>12</title>
<ellipse fill="none" stroke="black" cx="560.11" cy="-18" rx="39.79" ry="18"/>
<text text-anchor="middle" x="560.11" y="-14.3" font-family="Times New Roman,serif" font-size="14.00">varint64</text>
</g>
<!-- 11&#45;&gt;12 -->
<g id="edge12" class="edge">
<title>11&#45;&gt;12</title>
<path fill="none" stroke="black" d="M431.2,-18C458.12,-18 486.87,-18 510.28,-18"/>
<polygon fill="black" stroke="black" points="510.3,-21.5 520.3,-18 510.3,-14.5 510.3,-21.5"/>
</g>
</g>
</svg>
