<?xml version="1.0" encoding="UTF-8" standalone="no"?>
<!DOCTYPE svg PUBLIC "-//W3C//DTD SVG 1.1//EN"
 "http://www.w3.org/Graphics/SVG/1.1/DTD/svg11.dtd">
<!-- Generated by graphviz version 12.2.0 (20241103.1931)
 -->
<!-- Title: UpdateTradePacket Pages: 1 -->
<svg width="577pt" height="530pt"
 viewBox="0.00 0.00 577.48 530.00" xmlns="http://www.w3.org/2000/svg" xmlns:xlink="http://www.w3.org/1999/xlink">
<g id="graph0" class="graph" transform="scale(1 1) rotate(0) translate(4 526)">
<title>UpdateTradePacket</title>
<polygon fill="white" stroke="none" points="-4,4 -4,-526 573.48,-526 573.48,4 -4,4"/>
<!-- 0 -->
<!-- name: &quot;UpdateTradePacket&quot;, typeName: &quot;&quot;, id: 0, branchId: 80, recurseId: &#45;1, attributes: 0, notes: &quot;&quot; -->
<g id="node1" class="node">
<title>0</title>
<ellipse fill="none" stroke="black" cx="83.6" cy="-261" rx="83.6" ry="18"/>
<text text-anchor="middle" x="83.6" y="-255.95" font-family="Times New Roman,serif" font-size="14.00">UpdateTradePacket</text>
</g>
<!-- 1 -->
<!-- name: &quot;Container Id&quot;, typeName: &quot;&quot;, id: 1, branchId: 0, recurseId: &#45;1, attributes: 0, notes: &quot;&quot; -->
<g id="node2" class="node">
<title>1</title>
<ellipse fill="none" stroke="black" cx="299.58" cy="-504" rx="57.49" ry="18"/>
<text text-anchor="middle" x="299.58" y="-498.95" font-family="Times New Roman,serif" font-size="14.00">Container Id</text>
</g>
<!-- 0&#45;&gt;1 -->
<g id="edge1" class="edge">
<title>0&#45;&gt;1</title>
<path fill="none" stroke="black" d="M89.35,-279.21C101.17,-320.83 135.91,-423.45 203.19,-477 212.48,-484.39 223.68,-489.76 235.1,-493.66"/>
<polygon fill="black" stroke="black" points="234.02,-496.99 244.6,-496.53 236.04,-490.29 234.02,-496.99"/>
</g>
<!-- 3 -->
<!-- name: &quot;Type&quot;, typeName: &quot;&quot;, id: 3, branchId: 0, recurseId: &#45;1, attributes: 0, notes: &quot;&quot; -->
<g id="node4" class="node">
<title>3</title>
<ellipse fill="none" stroke="black" cx="299.58" cy="-450" rx="29.34" ry="18"/>
<text text-anchor="middle" x="299.58" y="-444.95" font-family="Times New Roman,serif" font-size="14.00">Type</text>
</g>
<!-- 0&#45;&gt;3 -->
<g id="edge3" class="edge">
<title>0&#45;&gt;3</title>
<path fill="none" stroke="black" d="M92.82,-279.15C109,-312.78 148.24,-384.81 203.19,-423 219.62,-434.42 240.79,-441.03 259.01,-444.85"/>
<polygon fill="black" stroke="black" points="258.23,-448.27 268.7,-446.66 259.51,-441.38 258.23,-448.27"/>
</g>
<!-- 5 -->
<!-- name: &quot;Size&quot;, typeName: &quot;&quot;, id: 5, branchId: 0, recurseId: &#45;1, attributes: 0, notes: &quot;&quot; -->
<g id="node6" class="node">
<title>5</title>
<ellipse fill="none" stroke="black" cx="299.58" cy="-396" rx="27" ry="18"/>
<text text-anchor="middle" x="299.58" y="-390.95" font-family="Times New Roman,serif" font-size="14.00">Size</text>
</g>
<!-- 0&#45;&gt;5 -->
<g id="edge5" class="edge">
<title>0&#45;&gt;5</title>
<path fill="none" stroke="black" d="M99.55,-279.07C120.36,-303.07 160.35,-345.19 203.19,-369 221.29,-379.06 243.46,-385.63 261.86,-389.77"/>
<polygon fill="black" stroke="black" points="261.06,-393.17 271.56,-391.78 262.49,-386.32 261.06,-393.17"/>
</g>
<!-- 7 -->
<!-- name: &quot;Trader Tier&quot;, typeName: &quot;&quot;, id: 7, branchId: 0, recurseId: &#45;1, attributes: 0, notes: &quot;&quot; -->
<g id="node8" class="node">
<title>7</title>
<ellipse fill="none" stroke="black" cx="299.58" cy="-342" rx="52.89" ry="18"/>
<text text-anchor="middle" x="299.58" y="-336.95" font-family="Times New Roman,serif" font-size="14.00">Trader Tier</text>
</g>
<!-- 0&#45;&gt;7 -->
<g id="edge7" class="edge">
<title>0&#45;&gt;7</title>
<path fill="none" stroke="black" d="M118.02,-277.87C141.47,-289.29 173.77,-304.21 203.19,-315 216.58,-319.91 231.29,-324.47 245.07,-328.39"/>
<polygon fill="black" stroke="black" points="243.85,-331.69 254.42,-330.99 245.72,-324.94 243.85,-331.69"/>
</g>
<!-- 9 -->
<!-- name: &quot;Entity Unique ID&quot;, typeName: &quot;ActorUniqueID&quot;, id: 9, branchId: 0, recurseId: &#45;1, attributes: 256, notes: &quot;&quot; -->
<g id="node10" class="node">
<title>9</title>
<ellipse fill="none" stroke="black" cx="299.58" cy="-288" rx="75.41" ry="18"/>
<text text-anchor="middle" x="299.58" y="-282.95" font-family="Times New Roman,serif" font-size="14.00">Entity Unique ID</text>
</g>
<!-- 0&#45;&gt;9 -->
<g id="edge9" class="edge">
<title>0&#45;&gt;9</title>
<path fill="none" stroke="black" d="M156.74,-270.1C177.42,-272.71 200.04,-275.57 221.02,-278.21"/>
<polygon fill="black" stroke="black" points="220.29,-281.65 230.65,-279.43 221.17,-274.7 220.29,-281.65"/>
</g>
<!-- 11 -->
<!-- name: &quot;Last Trading Player ID&quot;, typeName: &quot;ActorUniqueID&quot;, id: 11, branchId: 0, recurseId: &#45;1, attributes: 256, notes: &quot;&quot; -->
<g id="node12" class="node">
<title>11</title>
<ellipse fill="none" stroke="black" cx="299.58" cy="-234" rx="96.39" ry="18"/>
<text text-anchor="middle" x="299.58" y="-228.95" font-family="Times New Roman,serif" font-size="14.00">Last Trading Player ID</text>
</g>
<!-- 0&#45;&gt;11 -->
<g id="edge11" class="edge">
<title>0&#45;&gt;11</title>
<path fill="none" stroke="black" d="M156.74,-251.9C173.07,-249.84 190.6,-247.62 207.59,-245.48"/>
<polygon fill="black" stroke="black" points="207.67,-249 217.15,-244.27 206.79,-242.05 207.67,-249"/>
</g>
<!-- 13 -->
<!-- name: &quot;Display Name&quot;, typeName: &quot;&quot;, id: 13, branchId: 0, recurseId: &#45;1, attributes: 0, notes: &quot;&quot; -->
<g id="node14" class="node">
<title>13</title>
<ellipse fill="none" stroke="black" cx="299.58" cy="-180" rx="64.66" ry="18"/>
<text text-anchor="middle" x="299.58" y="-174.95" font-family="Times New Roman,serif" font-size="14.00">Display Name</text>
</g>
<!-- 0&#45;&gt;13 -->
<g id="edge13" class="edge">
<title>0&#45;&gt;13</title>
<path fill="none" stroke="black" d="M118.02,-244.13C141.47,-232.71 173.77,-217.79 203.19,-207 214.82,-202.73 227.45,-198.73 239.6,-195.19"/>
<polygon fill="black" stroke="black" points="240.46,-198.58 249.12,-192.47 238.55,-191.85 240.46,-198.58"/>
</g>
<!-- 15 -->
<!-- name: &quot;Use New Trade Screen&quot;, typeName: &quot;&quot;, id: 15, branchId: 0, recurseId: &#45;1, attributes: 0, notes: &quot;&quot; -->
<g id="node16" class="node">
<title>15</title>
<ellipse fill="none" stroke="black" cx="299.58" cy="-126" rx="96.39" ry="18"/>
<text text-anchor="middle" x="299.58" y="-120.95" font-family="Times New Roman,serif" font-size="14.00">Use New Trade Screen</text>
</g>
<!-- 0&#45;&gt;15 -->
<g id="edge15" class="edge">
<title>0&#45;&gt;15</title>
<path fill="none" stroke="black" d="M99.55,-242.93C120.36,-218.93 160.35,-176.81 203.19,-153 209.71,-149.38 216.76,-146.21 223.96,-143.44"/>
<polygon fill="black" stroke="black" points="224.91,-146.82 233.17,-140.17 222.57,-140.22 224.91,-146.82"/>
</g>
<!-- 17 -->
<!-- name: &quot;Using Economy Trade&quot;, typeName: &quot;&quot;, id: 17, branchId: 0, recurseId: &#45;1, attributes: 0, notes: &quot;When set to false, it means the packet comes from the old Trade Component.&quot; -->
<g id="node18" class="node">
<title>17</title>
<ellipse fill="none" stroke="black" cx="299.58" cy="-72" rx="94.86" ry="18"/>
<text text-anchor="middle" x="299.58" y="-66.95" font-family="Times New Roman,serif" font-size="14.00">Using Economy Trade</text>
</g>
<!-- 0&#45;&gt;17 -->
<g id="edge17" class="edge">
<title>0&#45;&gt;17</title>
<path fill="none" stroke="black" d="M92.82,-242.85C109,-209.22 148.24,-137.19 203.19,-99 208.62,-95.22 214.57,-91.97 220.77,-89.18"/>
<polygon fill="black" stroke="black" points="222.01,-92.45 229.96,-85.45 219.38,-85.96 222.01,-92.45"/>
</g>
<!-- 19 -->
<!-- name: &quot;Data Tags&quot;, typeName: &quot;CompoundTag&quot;, id: 19, branchId: 0, recurseId: &#45;1, attributes: 256, notes: &quot;&quot; -->
<g id="node20" class="node">
<title>19</title>
<ellipse fill="none" stroke="black" cx="299.58" cy="-18" rx="47.77" ry="18"/>
<text text-anchor="middle" x="299.58" y="-12.95" font-family="Times New Roman,serif" font-size="14.00">Data Tags</text>
</g>
<!-- 0&#45;&gt;19 -->
<g id="edge19" class="edge">
<title>0&#45;&gt;19</title>
<path fill="none" stroke="black" d="M89.35,-242.79C101.17,-201.17 135.91,-98.55 203.19,-45 214.45,-36.03 228.54,-30.05 242.4,-26.05"/>
<polygon fill="black" stroke="black" points="243.12,-29.47 251.95,-23.62 241.39,-22.69 243.12,-29.47"/>
</g>
<!-- 2 -->
<!-- name: &quot;byte&quot;, typeName: &quot;&quot;, id: 2, branchId: 0, recurseId: &#45;1, attributes: 512, notes: &quot;&quot; -->
<g id="node3" class="node">
<title>2</title>
<ellipse fill="none" stroke="black" cx="500.72" cy="-504" rx="27" ry="18"/>
<text text-anchor="middle" x="500.72" y="-498.95" font-family="Times New Roman,serif" font-size="14.00">byte</text>
</g>
<!-- 1&#45;&gt;2 -->
<g id="edge2" class="edge">
<title>1&#45;&gt;2</title>
<path fill="none" stroke="black" d="M357.38,-504C390.93,-504 432.47,-504 462,-504"/>
<polygon fill="black" stroke="black" points="461.95,-507.5 471.95,-504 461.95,-500.5 461.95,-507.5"/>
</g>
<!-- 4 -->
<!-- name: &quot;byte&quot;, typeName: &quot;&quot;, id: 4, branchId: 0, recurseId: &#45;1, attributes: 512, notes: &quot;&quot; -->
<g id="node5" class="node">
<title>4</title>
<ellipse fill="none" stroke="black" cx="500.72" cy="-450" rx="27" ry="18"/>
<text text-anchor="middle" x="500.72" y="-444.95" font-family="Times New Roman,serif" font-size="14.00">byte</text>
</g>
<!-- 3&#45;&gt;4 -->
<g id="edge4" class="edge">
<title>3&#45;&gt;4</title>
<path fill="none" stroke="black" d="M329.11,-450C364.1,-450 423.52,-450 462.18,-450"/>
<polygon fill="black" stroke="black" points="461.95,-453.5 471.95,-450 461.95,-446.5 461.95,-453.5"/>
</g>
<!-- 6 -->
<!-- name: &quot;varint&quot;, typeName: &quot;&quot;, id: 6, branchId: 0, recurseId: &#45;1, attributes: 512, notes: &quot;&quot; -->
<g id="node7" class="node">
<title>6</title>
<ellipse fill="none" stroke="black" cx="500.72" cy="-396" rx="32.41" ry="18"/>
<text text-anchor="middle" x="500.72" y="-390.95" font-family="Times New Roman,serif" font-size="14.00">varint</text>
</g>
<!-- 5&#45;&gt;6 -->
<g id="edge6" class="edge">
<title>5&#45;&gt;6</title>
<path fill="none" stroke="black" d="M327.03,-396C360.08,-396 417.1,-396 456.53,-396"/>
<polygon fill="black" stroke="black" points="456.39,-399.5 466.39,-396 456.39,-392.5 456.39,-399.5"/>
</g>
<!-- 8 -->
<!-- name: &quot;varint&quot;, typeName: &quot;&quot;, id: 8, branchId: 0, recurseId: &#45;1, attributes: 512, notes: &quot;&quot; -->
<g id="node9" class="node">
<title>8</title>
<ellipse fill="none" stroke="black" cx="500.72" cy="-342" rx="32.41" ry="18"/>
<text text-anchor="middle" x="500.72" y="-336.95" font-family="Times New Roman,serif" font-size="14.00">varint</text>
</g>
<!-- 7&#45;&gt;8 -->
<g id="edge8" class="edge">
<title>7&#45;&gt;8</title>
<path fill="none" stroke="black" d="M352.9,-342C385.3,-342 426.37,-342 456.84,-342"/>
<polygon fill="black" stroke="black" points="456.44,-345.5 466.44,-342 456.44,-338.5 456.44,-345.5"/>
</g>
<!-- 10 -->
<!-- name: &quot;ActorUniqueID&quot;, typeName: &quot;&quot;, id: 10, branchId: 0, recurseId: &#45;1, attributes: 512, notes: &quot;&quot; -->
<g id="node11" class="node">
<title>10</title>
<ellipse fill="none" stroke="black" cx="500.72" cy="-288" rx="68.75" ry="18"/>
<text text-anchor="middle" x="500.72" y="-282.95" font-family="Times New Roman,serif" font-size="14.00">ActorUniqueID</text>
</g>
<!-- 9&#45;&gt;10 -->
<g id="edge10" class="edge">
<title>9&#45;&gt;10</title>
<path fill="none" stroke="black" d="M375.3,-288C389.99,-288 405.45,-288 420.28,-288"/>
<polygon fill="black" stroke="black" points="419.97,-291.5 429.97,-288 419.97,-284.5 419.97,-291.5"/>
</g>
<!-- 12 -->
<!-- name: &quot;ActorUniqueID&quot;, typeName: &quot;&quot;, id: 12, branchId: 0, recurseId: &#45;1, attributes: 512, notes: &quot;&quot; -->
<g id="node13" class="node">
<title>12</title>
<ellipse fill="none" stroke="black" cx="500.72" cy="-234" rx="68.75" ry="18"/>
<text text-anchor="middle" x="500.72" y="-228.95" font-family="Times New Roman,serif" font-size="14.00">ActorUniqueID</text>
</g>
<!-- 11&#45;&gt;12 -->
<g id="edge12" class="edge">
<title>11&#45;&gt;12</title>
<path fill="none" stroke="black" d="M396.36,-234C404.33,-234 412.33,-234 420.15,-234"/>
<polygon fill="black" stroke="black" points="419.96,-237.5 429.96,-234 419.96,-230.5 419.96,-237.5"/>
</g>
<!-- 14 -->
<!-- name: &quot;string&quot;, typeName: &quot;&quot;, id: 14, branchId: 0, recurseId: &#45;1, attributes: 512, notes: &quot;&quot; -->
<g id="node15" class="node">
<title>14</title>
<ellipse fill="none" stroke="black" cx="500.72" cy="-180" rx="31.9" ry="18"/>
<text text-anchor="middle" x="500.72" y="-174.95" font-family="Times New Roman,serif" font-size="14.00">string</text>
</g>
<!-- 13&#45;&gt;14 -->
<g id="edge14" class="edge">
<title>13&#45;&gt;14</title>
<path fill="none" stroke="black" d="M364.69,-180C394.9,-180 430.12,-180 457.01,-180"/>
<polygon fill="black" stroke="black" points="456.85,-183.5 466.85,-180 456.85,-176.5 456.85,-183.5"/>
</g>
<!-- 16 -->
<!-- name: &quot;bool&quot;, typeName: &quot;&quot;, id: 16, branchId: 0, recurseId: &#45;1, attributes: 512, notes: &quot;&quot; -->
<g id="node17" class="node">
<title>16</title>
<ellipse fill="none" stroke="black" cx="500.72" cy="-126" rx="27.3" ry="18"/>
<text text-anchor="middle" x="500.72" y="-120.95" font-family="Times New Roman,serif" font-size="14.00">bool</text>
</g>
<!-- 15&#45;&gt;16 -->
<g id="edge16" class="edge">
<title>15&#45;&gt;16</title>
<path fill="none" stroke="black" d="M396.36,-126C419.69,-126 443.29,-126 462.04,-126"/>
<polygon fill="black" stroke="black" points="461.81,-129.5 471.81,-126 461.81,-122.5 461.81,-129.5"/>
</g>
<!-- 18 -->
<!-- name: &quot;bool&quot;, typeName: &quot;&quot;, id: 18, branchId: 0, recurseId: &#45;1, attributes: 512, notes: &quot;&quot; -->
<g id="node19" class="node">
<title>18</title>
<ellipse fill="none" stroke="black" cx="500.72" cy="-72" rx="27.3" ry="18"/>
<text text-anchor="middle" x="500.72" y="-66.95" font-family="Times New Roman,serif" font-size="14.00">bool</text>
</g>
<!-- 17&#45;&gt;18 -->
<g id="edge18" class="edge">
<title>17&#45;&gt;18</title>
<path fill="none" stroke="black" d="M394.9,-72C418.6,-72 442.7,-72 461.8,-72"/>
<polygon fill="black" stroke="black" points="461.78,-75.5 471.78,-72 461.78,-68.5 461.78,-75.5"/>
</g>
<!-- 20 -->
<!-- name: &quot;CompoundTag&quot;, typeName: &quot;&quot;, id: 20, branchId: 0, recurseId: &#45;1, attributes: 512, notes: &quot;&quot; -->
<g id="node21" class="node">
<title>20</title>
<ellipse fill="none" stroke="black" cx="500.72" cy="-18" rx="66.19" ry="18"/>
<text text-anchor="middle" x="500.72" y="-12.95" font-family="Times New Roman,serif" font-size="14.00">CompoundTag</text>
</g>
<!-- 19&#45;&gt;20 -->
<g id="edge20" class="edge">
<title>19&#45;&gt;20</title>
<path fill="none" stroke="black" d="M347.78,-18C370.12,-18 397.38,-18 422.61,-18"/>
<polygon fill="black" stroke="black" points="422.52,-21.5 432.52,-18 422.52,-14.5 422.52,-21.5"/>
</g>
</g>
</svg>
