<?xml version="1.0" encoding="UTF-8" standalone="no"?>
<!DOCTYPE svg PUBLIC "-//W3C//DTD SVG 1.1//EN"
 "http://www.w3.org/Graphics/SVG/1.1/DTD/svg11.dtd">
<!-- Generated by graphviz version 2.46.1 (20210213.1702)
 -->
<!-- Title: UpdateTradePacket Pages: 1 -->
<svg width="567pt" height="530pt"
 viewBox="0.00 0.00 567.46 530.00" xmlns="http://www.w3.org/2000/svg" xmlns:xlink="http://www.w3.org/1999/xlink">
<g id="graph0" class="graph" transform="scale(1 1) rotate(0) translate(4 526)">
<title>UpdateTradePacket</title>
<polygon fill="white" stroke="transparent" points="-4,4 -4,-526 563.46,-526 563.46,4 -4,4"/>
<!-- 0 -->
<!-- name: &quot;UpdateTradePacket&quot;, typeName: &quot;&quot;, id: 0, branchId: 80, recurseId: &#45;1, attributes: 0, notes: &quot;&quot; -->
<g id="node1" class="node">
<title>0</title>
<ellipse fill="none" stroke="black" cx="83.19" cy="-261" rx="83.39" ry="18"/>
<text text-anchor="middle" x="83.19" y="-257.3" font-family="Times New Roman,serif" font-size="14.00">UpdateTradePacket</text>
</g>
<!-- 1 -->
<!-- name: &quot;Container Id&quot;, typeName: &quot;&quot;, id: 1, branchId: 0, recurseId: &#45;1, attributes: 0, notes: &quot;enumeration: ContainerID&quot; -->
<g id="node2" class="node">
<title>1</title>
<ellipse fill="none" stroke="black" cx="295.98" cy="-504" rx="55.79" ry="18"/>
<text text-anchor="middle" x="295.98" y="-500.3" font-family="Times New Roman,serif" font-size="14.00">Container Id</text>
</g>
<!-- 0&#45;&gt;1 -->
<g id="edge1" class="edge">
<title>0&#45;&gt;1</title>
<path fill="none" stroke="black" d="M88.94,-279.17C100.74,-320.72 135.41,-423.18 202.39,-477 211.77,-484.54 223.18,-489.97 234.74,-493.89"/>
<polygon fill="black" stroke="black" points="233.86,-497.28 244.45,-496.84 235.9,-490.58 233.86,-497.28"/>
</g>
<!-- 3 -->
<!-- name: &quot;Container Type&quot;, typeName: &quot;&quot;, id: 3, branchId: 0, recurseId: &#45;1, attributes: 0, notes: &quot;enumeration: ContainerType&quot; -->
<g id="node4" class="node">
<title>3</title>
<ellipse fill="none" stroke="black" cx="295.98" cy="-450" rx="67.69" ry="18"/>
<text text-anchor="middle" x="295.98" y="-446.3" font-family="Times New Roman,serif" font-size="14.00">Container Type</text>
</g>
<!-- 0&#45;&gt;3 -->
<g id="edge3" class="edge">
<title>0&#45;&gt;3</title>
<path fill="none" stroke="black" d="M92.4,-279.11C108.55,-312.67 147.68,-384.59 202.39,-423 210.51,-428.7 219.83,-433.21 229.36,-436.77"/>
<polygon fill="black" stroke="black" points="228.33,-440.12 238.92,-440.03 230.58,-433.49 228.33,-440.12"/>
</g>
<!-- 5 -->
<!-- name: &quot;Size&quot;, typeName: &quot;&quot;, id: 5, branchId: 0, recurseId: &#45;1, attributes: 0, notes: &quot;&quot; -->
<g id="node6" class="node">
<title>5</title>
<ellipse fill="none" stroke="black" cx="295.98" cy="-396" rx="27" ry="18"/>
<text text-anchor="middle" x="295.98" y="-392.3" font-family="Times New Roman,serif" font-size="14.00">Size</text>
</g>
<!-- 0&#45;&gt;5 -->
<g id="edge5" class="edge">
<title>0&#45;&gt;5</title>
<path fill="none" stroke="black" d="M99.11,-279.03C119.87,-302.97 159.74,-345.03 202.39,-369 220.04,-378.92 241.68,-385.5 259.59,-389.67"/>
<polygon fill="black" stroke="black" points="258.87,-393.09 269.39,-391.8 260.36,-386.25 258.87,-393.09"/>
</g>
<!-- 7 -->
<!-- name: &quot;Trade Tier&quot;, typeName: &quot;&quot;, id: 7, branchId: 0, recurseId: &#45;1, attributes: 0, notes: &quot;&quot; -->
<g id="node8" class="node">
<title>7</title>
<ellipse fill="none" stroke="black" cx="295.98" cy="-342" rx="49.29" ry="18"/>
<text text-anchor="middle" x="295.98" y="-338.3" font-family="Times New Roman,serif" font-size="14.00">Trade Tier</text>
</g>
<!-- 0&#45;&gt;7 -->
<g id="edge7" class="edge">
<title>0&#45;&gt;7</title>
<path fill="none" stroke="black" d="M117.02,-277.55C140.44,-288.98 172.89,-304.03 202.39,-315 216.02,-320.07 231.07,-324.81 245,-328.86"/>
<polygon fill="black" stroke="black" points="244.34,-332.31 254.91,-331.68 246.25,-325.58 244.34,-332.31"/>
</g>
<!-- 9 -->
<!-- name: &quot;Target Actor ID&quot;, typeName: &quot;ActorUniqueID&quot;, id: 9, branchId: 0, recurseId: &#45;1, attributes: 256, notes: &quot;&quot; -->
<g id="node10" class="node">
<title>9</title>
<ellipse fill="none" stroke="black" cx="295.98" cy="-288" rx="69.59" ry="18"/>
<text text-anchor="middle" x="295.98" y="-284.3" font-family="Times New Roman,serif" font-size="14.00">Target Actor ID</text>
</g>
<!-- 0&#45;&gt;9 -->
<g id="edge9" class="edge">
<title>0&#45;&gt;9</title>
<path fill="none" stroke="black" d="M155.26,-270.1C177.23,-272.92 201.44,-276.02 223.44,-278.84"/>
<polygon fill="black" stroke="black" points="223.02,-282.31 233.38,-280.11 223.91,-275.37 223.02,-282.31"/>
</g>
<!-- 11 -->
<!-- name: &quot;Last Trading Player ID&quot;, typeName: &quot;ActorUniqueID&quot;, id: 11, branchId: 0, recurseId: &#45;1, attributes: 256, notes: &quot;&quot; -->
<g id="node12" class="node">
<title>11</title>
<ellipse fill="none" stroke="black" cx="295.98" cy="-234" rx="93.68" ry="18"/>
<text text-anchor="middle" x="295.98" y="-230.3" font-family="Times New Roman,serif" font-size="14.00">Last Trading Player ID</text>
</g>
<!-- 0&#45;&gt;11 -->
<g id="edge11" class="edge">
<title>0&#45;&gt;11</title>
<path fill="none" stroke="black" d="M155.26,-251.9C172.05,-249.75 190.13,-247.43 207.55,-245.2"/>
<polygon fill="black" stroke="black" points="208.23,-248.64 217.71,-243.9 207.35,-241.7 208.23,-248.64"/>
</g>
<!-- 13 -->
<!-- name: &quot;Display Name&quot;, typeName: &quot;&quot;, id: 13, branchId: 0, recurseId: &#45;1, attributes: 0, notes: &quot;&quot; -->
<g id="node14" class="node">
<title>13</title>
<ellipse fill="none" stroke="black" cx="295.98" cy="-180" rx="61.99" ry="18"/>
<text text-anchor="middle" x="295.98" y="-176.3" font-family="Times New Roman,serif" font-size="14.00">Display Name</text>
</g>
<!-- 0&#45;&gt;13 -->
<g id="edge13" class="edge">
<title>0&#45;&gt;13</title>
<path fill="none" stroke="black" d="M117.02,-244.45C140.44,-233.02 172.89,-217.97 202.39,-207 214.27,-202.58 227.23,-198.41 239.59,-194.73"/>
<polygon fill="black" stroke="black" points="240.72,-198.05 249.34,-191.89 238.76,-191.33 240.72,-198.05"/>
</g>
<!-- 15 -->
<!-- name: &quot;Use New Trade UI&quot;, typeName: &quot;&quot;, id: 15, branchId: 0, recurseId: &#45;1, attributes: 0, notes: &quot;&quot; -->
<g id="node16" class="node">
<title>15</title>
<ellipse fill="none" stroke="black" cx="295.98" cy="-126" rx="79.09" ry="18"/>
<text text-anchor="middle" x="295.98" y="-122.3" font-family="Times New Roman,serif" font-size="14.00">Use New Trade UI</text>
</g>
<!-- 0&#45;&gt;15 -->
<g id="edge15" class="edge">
<title>0&#45;&gt;15</title>
<path fill="none" stroke="black" d="M99.11,-242.97C119.87,-219.03 159.74,-176.97 202.39,-153 210.32,-148.54 219.05,-144.76 227.9,-141.57"/>
<polygon fill="black" stroke="black" points="229.14,-144.84 237.5,-138.33 226.91,-138.21 229.14,-144.84"/>
</g>
<!-- 17 -->
<!-- name: &quot;Using Economy Trade&quot;, typeName: &quot;&quot;, id: 17, branchId: 0, recurseId: &#45;1, attributes: 0, notes: &quot;When set to false, it means the packet comes from the old Trade Component.&quot; -->
<g id="node18" class="node">
<title>17</title>
<ellipse fill="none" stroke="black" cx="295.98" cy="-72" rx="92.88" ry="18"/>
<text text-anchor="middle" x="295.98" y="-68.3" font-family="Times New Roman,serif" font-size="14.00">Using Economy Trade</text>
</g>
<!-- 0&#45;&gt;17 -->
<g id="edge17" class="edge">
<title>0&#45;&gt;17</title>
<path fill="none" stroke="black" d="M92.4,-242.89C108.55,-209.33 147.68,-137.41 202.39,-99 208,-95.06 214.19,-91.68 220.63,-88.8"/>
<polygon fill="black" stroke="black" points="222.25,-91.92 230.2,-84.92 219.62,-85.43 222.25,-91.92"/>
</g>
<!-- 19 -->
<!-- name: &quot;Data Tags&quot;, typeName: &quot;CompoundTag&quot;, id: 19, branchId: 0, recurseId: &#45;1, attributes: 256, notes: &quot;&quot; -->
<g id="node20" class="node">
<title>19</title>
<ellipse fill="none" stroke="black" cx="295.98" cy="-18" rx="48.19" ry="18"/>
<text text-anchor="middle" x="295.98" y="-14.3" font-family="Times New Roman,serif" font-size="14.00">Data Tags</text>
</g>
<!-- 0&#45;&gt;19 -->
<g id="edge19" class="edge">
<title>0&#45;&gt;19</title>
<path fill="none" stroke="black" d="M88.94,-242.83C100.74,-201.28 135.41,-98.82 202.39,-45 213.31,-36.22 226.98,-30.3 240.45,-26.3"/>
<polygon fill="black" stroke="black" points="241.4,-29.67 250.17,-23.72 239.61,-22.9 241.4,-29.67"/>
</g>
<!-- 2 -->
<!-- name: &quot;byte&quot;, typeName: &quot;&quot;, id: 2, branchId: 0, recurseId: &#45;1, attributes: 512, notes: &quot;&quot; -->
<g id="node3" class="node">
<title>2</title>
<ellipse fill="none" stroke="black" cx="492.51" cy="-504" rx="27" ry="18"/>
<text text-anchor="middle" x="492.51" y="-500.3" font-family="Times New Roman,serif" font-size="14.00">byte</text>
</g>
<!-- 1&#45;&gt;2 -->
<g id="edge2" class="edge">
<title>1&#45;&gt;2</title>
<path fill="none" stroke="black" d="M351.94,-504C385.07,-504 426.32,-504 455.35,-504"/>
<polygon fill="black" stroke="black" points="455.46,-507.5 465.46,-504 455.46,-500.5 455.46,-507.5"/>
</g>
<!-- 4 -->
<!-- name: &quot;byte&quot;, typeName: &quot;&quot;, id: 4, branchId: 0, recurseId: &#45;1, attributes: 512, notes: &quot;&quot; -->
<g id="node5" class="node">
<title>4</title>
<ellipse fill="none" stroke="black" cx="492.51" cy="-450" rx="27" ry="18"/>
<text text-anchor="middle" x="492.51" y="-446.3" font-family="Times New Roman,serif" font-size="14.00">byte</text>
</g>
<!-- 3&#45;&gt;4 -->
<g id="edge4" class="edge">
<title>3&#45;&gt;4</title>
<path fill="none" stroke="black" d="M363.65,-450C394.39,-450 429.67,-450 455.38,-450"/>
<polygon fill="black" stroke="black" points="455.42,-453.5 465.42,-450 455.42,-446.5 455.42,-453.5"/>
</g>
<!-- 6 -->
<!-- name: &quot;varint&quot;, typeName: &quot;&quot;, id: 6, branchId: 0, recurseId: &#45;1, attributes: 512, notes: &quot;&quot; -->
<g id="node7" class="node">
<title>6</title>
<ellipse fill="none" stroke="black" cx="492.51" cy="-396" rx="30.59" ry="18"/>
<text text-anchor="middle" x="492.51" y="-392.3" font-family="Times New Roman,serif" font-size="14.00">varint</text>
</g>
<!-- 5&#45;&gt;6 -->
<g id="edge6" class="edge">
<title>5&#45;&gt;6</title>
<path fill="none" stroke="black" d="M323.21,-396C356.2,-396 413.16,-396 451.57,-396"/>
<polygon fill="black" stroke="black" points="451.88,-399.5 461.88,-396 451.88,-392.5 451.88,-399.5"/>
</g>
<!-- 8 -->
<!-- name: &quot;varint&quot;, typeName: &quot;&quot;, id: 8, branchId: 0, recurseId: &#45;1, attributes: 512, notes: &quot;&quot; -->
<g id="node9" class="node">
<title>8</title>
<ellipse fill="none" stroke="black" cx="492.51" cy="-342" rx="30.59" ry="18"/>
<text text-anchor="middle" x="492.51" y="-338.3" font-family="Times New Roman,serif" font-size="14.00">varint</text>
</g>
<!-- 7&#45;&gt;8 -->
<g id="edge8" class="edge">
<title>7&#45;&gt;8</title>
<path fill="none" stroke="black" d="M345.56,-342C378.28,-342 420.9,-342 451.63,-342"/>
<polygon fill="black" stroke="black" points="451.96,-345.5 461.96,-342 451.96,-338.5 451.96,-345.5"/>
</g>
<!-- 10 -->
<!-- name: &quot;ActorUniqueID&quot;, typeName: &quot;&quot;, id: 10, branchId: 0, recurseId: &#45;1, attributes: 512, notes: &quot;&quot; -->
<g id="node11" class="node">
<title>10</title>
<ellipse fill="none" stroke="black" cx="492.51" cy="-288" rx="66.89" ry="18"/>
<text text-anchor="middle" x="492.51" y="-284.3" font-family="Times New Roman,serif" font-size="14.00">ActorUniqueID</text>
</g>
<!-- 9&#45;&gt;10 -->
<g id="edge10" class="edge">
<title>9&#45;&gt;10</title>
<path fill="none" stroke="black" d="M365.56,-288C381.69,-288 398.97,-288 415.4,-288"/>
<polygon fill="black" stroke="black" points="415.51,-291.5 425.51,-288 415.51,-284.5 415.51,-291.5"/>
</g>
<!-- 12 -->
<!-- name: &quot;ActorUniqueID&quot;, typeName: &quot;&quot;, id: 12, branchId: 0, recurseId: &#45;1, attributes: 512, notes: &quot;&quot; -->
<g id="node13" class="node">
<title>12</title>
<ellipse fill="none" stroke="black" cx="492.51" cy="-234" rx="66.89" ry="18"/>
<text text-anchor="middle" x="492.51" y="-230.3" font-family="Times New Roman,serif" font-size="14.00">ActorUniqueID</text>
</g>
<!-- 11&#45;&gt;12 -->
<g id="edge12" class="edge">
<title>11&#45;&gt;12</title>
<path fill="none" stroke="black" d="M389.69,-234C398.24,-234 406.85,-234 415.24,-234"/>
<polygon fill="black" stroke="black" points="415.34,-237.5 425.34,-234 415.34,-230.5 415.34,-237.5"/>
</g>
<!-- 14 -->
<!-- name: &quot;string&quot;, typeName: &quot;&quot;, id: 14, branchId: 0, recurseId: &#45;1, attributes: 512, notes: &quot;&quot; -->
<g id="node15" class="node">
<title>14</title>
<ellipse fill="none" stroke="black" cx="492.51" cy="-180" rx="30.59" ry="18"/>
<text text-anchor="middle" x="492.51" y="-176.3" font-family="Times New Roman,serif" font-size="14.00">string</text>
</g>
<!-- 13&#45;&gt;14 -->
<g id="edge14" class="edge">
<title>13&#45;&gt;14</title>
<path fill="none" stroke="black" d="M357.73,-180C388.34,-180 424.59,-180 451.63,-180"/>
<polygon fill="black" stroke="black" points="451.88,-183.5 461.88,-180 451.88,-176.5 451.88,-183.5"/>
</g>
<!-- 16 -->
<!-- name: &quot;bool&quot;, typeName: &quot;&quot;, id: 16, branchId: 0, recurseId: &#45;1, attributes: 512, notes: &quot;&quot; -->
<g id="node17" class="node">
<title>16</title>
<ellipse fill="none" stroke="black" cx="492.51" cy="-126" rx="27.1" ry="18"/>
<text text-anchor="middle" x="492.51" y="-122.3" font-family="Times New Roman,serif" font-size="14.00">bool</text>
</g>
<!-- 15&#45;&gt;16 -->
<g id="edge16" class="edge">
<title>15&#45;&gt;16</title>
<path fill="none" stroke="black" d="M375.54,-126C403.03,-126 432.6,-126 454.99,-126"/>
<polygon fill="black" stroke="black" points="455.06,-129.5 465.06,-126 455.06,-122.5 455.06,-129.5"/>
</g>
<!-- 18 -->
<!-- name: &quot;bool&quot;, typeName: &quot;&quot;, id: 18, branchId: 0, recurseId: &#45;1, attributes: 512, notes: &quot;&quot; -->
<g id="node19" class="node">
<title>18</title>
<ellipse fill="none" stroke="black" cx="492.51" cy="-72" rx="27.1" ry="18"/>
<text text-anchor="middle" x="492.51" y="-68.3" font-family="Times New Roman,serif" font-size="14.00">bool</text>
</g>
<!-- 17&#45;&gt;18 -->
<g id="edge18" class="edge">
<title>17&#45;&gt;18</title>
<path fill="none" stroke="black" d="M389.12,-72C412.38,-72 436.03,-72 454.73,-72"/>
<polygon fill="black" stroke="black" points="454.85,-75.5 464.85,-72 454.85,-68.5 454.85,-75.5"/>
</g>
<!-- 20 -->
<!-- name: &quot;CompoundTag&quot;, typeName: &quot;&quot;, id: 20, branchId: 0, recurseId: &#45;1, attributes: 512, notes: &quot;&quot; -->
<g id="node21" class="node">
<title>20</title>
<ellipse fill="none" stroke="black" cx="492.51" cy="-18" rx="66.09" ry="18"/>
<text text-anchor="middle" x="492.51" y="-14.3" font-family="Times New Roman,serif" font-size="14.00">CompoundTag</text>
</g>
<!-- 19&#45;&gt;20 -->
<g id="edge20" class="edge">
<title>19&#45;&gt;20</title>
<path fill="none" stroke="black" d="M344.57,-18C366.02,-18 391.89,-18 415.9,-18"/>
<polygon fill="black" stroke="black" points="416.06,-21.5 426.06,-18 416.06,-14.5 416.06,-21.5"/>
</g>
</g>
</svg>
