<?xml version="1.0" encoding="UTF-8" standalone="no"?>
<!DOCTYPE svg PUBLIC "-//W3C//DTD SVG 1.1//EN"
 "http://www.w3.org/Graphics/SVG/1.1/DTD/svg11.dtd">
<!-- Generated by graphviz version 11.0.0 (20240428.1522)
 -->
<!-- Title: UpdateAttributesPacket Pages: 1 -->
<svg width="1465pt" height="908pt"
 viewBox="0.00 0.00 1464.84 908.00" xmlns="http://www.w3.org/2000/svg" xmlns:xlink="http://www.w3.org/1999/xlink">
<g id="graph0" class="graph" transform="scale(1 1) rotate(0) translate(4 904)">
<title>UpdateAttributesPacket</title>
<polygon fill="white" stroke="none" points="-4,4 -4,-904 1460.84,-904 1460.84,4 -4,4"/>
<!-- 0 -->
<!-- name: &quot;UpdateAttributesPacket&quot;, typeName: &quot;&quot;, id: 0, branchId: 29, recurseId: &#45;1, attributes: 0, notes: &quot;&quot; -->
<g id="node1" class="node">
<title>0</title>
<ellipse fill="none" stroke="black" cx="98.97" cy="-652" rx="98.97" ry="18"/>
<text text-anchor="middle" x="98.97" y="-646.58" font-family="Times New Roman,serif" font-size="14.00">UpdateAttributesPacket</text>
</g>
<!-- 1 -->
<!-- name: &quot;Target Runtime ID&quot;, typeName: &quot;ActorRuntimeID&quot;, id: 1, branchId: 0, recurseId: &#45;1, attributes: 256, notes: &quot;&quot; -->
<g id="node2" class="node">
<title>1</title>
<ellipse fill="none" stroke="black" cx="655.66" cy="-868" rx="80.01" ry="18"/>
<text text-anchor="middle" x="655.66" y="-862.58" font-family="Times New Roman,serif" font-size="14.00">Target Runtime ID</text>
</g>
<!-- 0&#45;&gt;1 -->
<g id="edge1" class="edge">
<title>0&#45;&gt;1</title>
<path fill="none" stroke="black" d="M142.57,-668.59C243.13,-707.75 494.92,-805.8 603.5,-848.08"/>
<polygon fill="black" stroke="black" points="602.17,-851.32 612.76,-851.68 604.71,-844.79 602.17,-851.32"/>
</g>
<!-- 3 -->
<!-- name: &quot;Attribute List&quot;, typeName: &quot;&quot;, id: 3, branchId: 0, recurseId: &#45;1, attributes: 8, notes: &quot;AttributeData &#45; Helper Struct&quot; -->
<g id="node4" class="node">
<title>3</title>
<ellipse fill="none" stroke="black" cx="386.79" cy="-652" rx="59.55" ry="18"/>
<text text-anchor="middle" x="386.79" y="-646.58" font-family="Times New Roman,serif" font-size="14.00">Attribute List</text>
</g>
<!-- 0&#45;&gt;3 -->
<g id="edge3" class="edge">
<title>0&#45;&gt;3</title>
<path fill="none" stroke="black" d="M198.33,-652C236.95,-652 280.38,-652 315.71,-652"/>
<polygon fill="black" stroke="black" points="315.37,-655.5 325.37,-652 315.37,-648.5 315.37,-655.5"/>
</g>
<!-- 37 -->
<!-- name: &quot;Count of ticks since simulation started&quot;, typeName: &quot;&quot;, id: 37, branchId: 0, recurseId: &#45;1, attributes: 0, notes: &quot;&quot; -->
<g id="node38" class="node">
<title>37</title>
<ellipse fill="none" stroke="black" cx="386.79" cy="-328" rx="152.86" ry="18"/>
<text text-anchor="middle" x="386.79" y="-322.57" font-family="Times New Roman,serif" font-size="14.00">Count of ticks since simulation started</text>
</g>
<!-- 0&#45;&gt;37 -->
<g id="edge37" class="edge">
<title>0&#45;&gt;37</title>
<path fill="none" stroke="black" d="M115.74,-634.12C163.36,-580.14 305.83,-418.64 362.33,-354.59"/>
<polygon fill="black" stroke="black" points="364.72,-357.17 368.71,-347.36 359.47,-352.54 364.72,-357.17"/>
</g>
<!-- 2 -->
<!-- name: &quot;ActorRuntimeID&quot;, typeName: &quot;&quot;, id: 2, branchId: 0, recurseId: &#45;1, attributes: 512, notes: &quot;&quot; -->
<g id="node3" class="node">
<title>2</title>
<ellipse fill="none" stroke="black" cx="1381.32" cy="-882" rx="72.52" ry="18"/>
<text text-anchor="middle" x="1381.32" y="-876.58" font-family="Times New Roman,serif" font-size="14.00">ActorRuntimeID</text>
</g>
<!-- 1&#45;&gt;2 -->
<g id="edge2" class="edge">
<title>1&#45;&gt;2</title>
<path fill="none" stroke="black" d="M735.83,-869.53C873.84,-872.2 1157.13,-877.68 1297.59,-880.4"/>
<polygon fill="black" stroke="black" points="1297.11,-883.89 1307.17,-880.58 1297.24,-876.89 1297.11,-883.89"/>
</g>
<!-- 4 -->
<!-- name: &quot;Array Size&quot;, typeName: &quot;&quot;, id: 4, branchId: 0, recurseId: &#45;1, attributes: 0, notes: &quot;&quot; -->
<g id="node5" class="node">
<title>4</title>
<ellipse fill="none" stroke="black" cx="1038.2" cy="-824" rx="49.57" ry="18"/>
<text text-anchor="middle" x="1038.2" y="-818.58" font-family="Times New Roman,serif" font-size="14.00">Array Size</text>
</g>
<!-- 3&#45;&gt;4 -->
<g id="edge4" class="edge">
<title>3&#45;&gt;4</title>
<path fill="none" stroke="black" d="M432.69,-663.89C549.62,-694.86 863.04,-777.87 986.36,-810.53"/>
<polygon fill="black" stroke="black" points="985.31,-813.88 995.88,-813.06 987.11,-807.11 985.31,-813.88"/>
</g>
<!-- 6 -->
<!-- name: &quot;example element&quot;, typeName: &quot;&quot;, id: 6, branchId: 0, recurseId: &#45;1, attributes: 16, notes: &quot;&quot; -->
<g id="node7" class="node">
<title>6</title>
<ellipse fill="none" stroke="black" stroke-dasharray="1,5" cx="655.66" cy="-612" rx="71.52" ry="18"/>
<text text-anchor="middle" x="655.66" y="-606.58" font-family="Times New Roman,serif" font-size="14.00">example element</text>
</g>
<!-- 3&#45;&gt;6 -->
<g id="edge6" class="edge">
<title>3&#45;&gt;6</title>
<path fill="none" stroke="black" d="M440.84,-644.05C481.25,-637.99 537.34,-629.58 581.94,-622.9"/>
<polygon fill="black" stroke="black" points="582.44,-626.36 591.81,-621.42 581.4,-619.44 582.44,-626.36"/>
</g>
<!-- 5 -->
<!-- name: &quot;unsigned varint&quot;, typeName: &quot;&quot;, id: 5, branchId: 0, recurseId: &#45;1, attributes: 512, notes: &quot;&quot; -->
<g id="node6" class="node">
<title>5</title>
<ellipse fill="none" stroke="black" cx="1381.32" cy="-828" rx="66.53" ry="18"/>
<text text-anchor="middle" x="1381.32" y="-822.58" font-family="Times New Roman,serif" font-size="14.00">unsigned varint</text>
</g>
<!-- 4&#45;&gt;5 -->
<g id="edge5" class="edge">
<title>4&#45;&gt;5</title>
<path fill="none" stroke="black" d="M1088.07,-824.57C1144.32,-825.23 1237.42,-826.32 1303.41,-827.1"/>
<polygon fill="black" stroke="black" points="1303.02,-830.59 1313.06,-827.21 1303.11,-823.59 1303.02,-830.59"/>
</g>
<!-- 7 -->
<!-- name: &quot;Min Value&quot;, typeName: &quot;&quot;, id: 7, branchId: 0, recurseId: &#45;1, attributes: 0, notes: &quot;&quot; -->
<g id="node8" class="node">
<title>7</title>
<ellipse fill="none" stroke="black" cx="1038.2" cy="-770" rx="48.57" ry="18"/>
<text text-anchor="middle" x="1038.2" y="-764.58" font-family="Times New Roman,serif" font-size="14.00">Min Value</text>
</g>
<!-- 6&#45;&gt;7 -->
<g id="edge7" class="edge">
<title>6&#45;&gt;7</title>
<path fill="none" stroke="black" d="M677.42,-629.55C699.51,-647.46 736.13,-674.98 771.66,-692 841.25,-725.33 928.01,-747.54 983.03,-759.46"/>
<polygon fill="black" stroke="black" points="982.28,-762.88 992.79,-761.54 983.73,-756.03 982.28,-762.88"/>
</g>
<!-- 9 -->
<!-- name: &quot;Max Value&quot;, typeName: &quot;&quot;, id: 9, branchId: 0, recurseId: &#45;1, attributes: 0, notes: &quot;&quot; -->
<g id="node10" class="node">
<title>9</title>
<ellipse fill="none" stroke="black" cx="1038.2" cy="-715" rx="50.56" ry="18"/>
<text text-anchor="middle" x="1038.2" y="-709.58" font-family="Times New Roman,serif" font-size="14.00">Max Value</text>
</g>
<!-- 6&#45;&gt;9 -->
<g id="edge9" class="edge">
<title>6&#45;&gt;9</title>
<path fill="none" stroke="black" d="M690.5,-628.14C713.08,-638.4 743.66,-651.34 771.66,-660 842,-681.74 925.49,-697.45 979.81,-706.37"/>
<polygon fill="black" stroke="black" points="979.02,-709.79 989.46,-707.93 980.14,-702.88 979.02,-709.79"/>
</g>
<!-- 11 -->
<!-- name: &quot;Current Value&quot;, typeName: &quot;&quot;, id: 11, branchId: 0, recurseId: &#45;1, attributes: 0, notes: &quot;&quot; -->
<g id="node12" class="node">
<title>11</title>
<ellipse fill="none" stroke="black" cx="1038.2" cy="-659" rx="62.04" ry="18"/>
<text text-anchor="middle" x="1038.2" y="-653.58" font-family="Times New Roman,serif" font-size="14.00">Current Value</text>
</g>
<!-- 6&#45;&gt;11 -->
<g id="edge11" class="edge">
<title>6&#45;&gt;11</title>
<path fill="none" stroke="black" d="M705.58,-625.26C725.88,-630.29 749.77,-635.63 771.66,-639 836.58,-649 911.23,-654.06 964.81,-656.59"/>
<polygon fill="black" stroke="black" points="964.59,-660.08 974.74,-657.03 964.91,-653.09 964.59,-660.08"/>
</g>
<!-- 13 -->
<!-- name: &quot;Default Min Value&quot;, typeName: &quot;&quot;, id: 13, branchId: 0, recurseId: &#45;1, attributes: 0, notes: &quot;&quot; -->
<g id="node14" class="node">
<title>13</title>
<ellipse fill="none" stroke="black" cx="851.17" cy="-612" rx="77.51" ry="18"/>
<text text-anchor="middle" x="851.17" y="-606.58" font-family="Times New Roman,serif" font-size="14.00">Default Min Value</text>
</g>
<!-- 6&#45;&gt;13 -->
<g id="edge13" class="edge">
<title>6&#45;&gt;13</title>
<path fill="none" stroke="black" d="M727.62,-612C738.78,-612 750.44,-612 761.94,-612"/>
<polygon fill="black" stroke="black" points="761.84,-615.5 771.84,-612 761.84,-608.5 761.84,-615.5"/>
</g>
<!-- 15 -->
<!-- name: &quot;Default Max Value&quot;, typeName: &quot;&quot;, id: 15, branchId: 0, recurseId: &#45;1, attributes: 0, notes: &quot;&quot; -->
<g id="node16" class="node">
<title>15</title>
<ellipse fill="none" stroke="black" cx="851.17" cy="-558" rx="79.51" ry="18"/>
<text text-anchor="middle" x="851.17" y="-552.58" font-family="Times New Roman,serif" font-size="14.00">Default Max Value</text>
</g>
<!-- 6&#45;&gt;15 -->
<g id="edge15" class="edge">
<title>6&#45;&gt;15</title>
<path fill="none" stroke="black" d="M704.49,-598.65C729.97,-591.54 761.59,-582.72 788.85,-575.11"/>
<polygon fill="black" stroke="black" points="789.7,-578.51 798.39,-572.45 787.82,-571.77 789.7,-578.51"/>
</g>
<!-- 17 -->
<!-- name: &quot;Default Value&quot;, typeName: &quot;&quot;, id: 17, branchId: 0, recurseId: &#45;1, attributes: 0, notes: &quot;&quot; -->
<g id="node18" class="node">
<title>17</title>
<ellipse fill="none" stroke="black" cx="851.17" cy="-504" rx="60.54" ry="18"/>
<text text-anchor="middle" x="851.17" y="-498.57" font-family="Times New Roman,serif" font-size="14.00">Default Value</text>
</g>
<!-- 6&#45;&gt;17 -->
<g id="edge17" class="edge">
<title>6&#45;&gt;17</title>
<path fill="none" stroke="black" d="M677.54,-594.54C699.74,-576.66 736.44,-549 771.66,-531 779.25,-527.12 787.52,-523.6 795.75,-520.47"/>
<polygon fill="black" stroke="black" points="796.85,-523.79 805.06,-517.1 794.47,-517.21 796.85,-523.79"/>
</g>
<!-- 19 -->
<!-- name: &quot;Attribute Name&quot;, typeName: &quot;&quot;, id: 19, branchId: 0, recurseId: &#45;1, attributes: 0, notes: &quot;&quot; -->
<g id="node20" class="node">
<title>19</title>
<ellipse fill="none" stroke="black" cx="851.17" cy="-450" rx="67.03" ry="18"/>
<text text-anchor="middle" x="851.17" y="-444.57" font-family="Times New Roman,serif" font-size="14.00">Attribute Name</text>
</g>
<!-- 6&#45;&gt;19 -->
<g id="edge19" class="edge">
<title>6&#45;&gt;19</title>
<path fill="none" stroke="black" d="M667.43,-594.01C685.5,-565.29 724.6,-509.08 771.66,-477 777.53,-473 784.04,-469.55 790.73,-466.57"/>
<polygon fill="black" stroke="black" points="791.97,-469.84 799.92,-462.84 789.34,-463.36 791.97,-469.84"/>
</g>
<!-- 21 -->
<!-- name: &quot;Attribute Modifier&quot;, typeName: &quot;&quot;, id: 21, branchId: 0, recurseId: &#45;1, attributes: 8, notes: &quot;&quot; -->
<g id="node22" class="node">
<title>21</title>
<ellipse fill="none" stroke="black" cx="851.17" cy="-396" rx="77.51" ry="18"/>
<text text-anchor="middle" x="851.17" y="-390.57" font-family="Times New Roman,serif" font-size="14.00">Attribute Modifier</text>
</g>
<!-- 6&#45;&gt;21 -->
<g id="edge21" class="edge">
<title>6&#45;&gt;21</title>
<path fill="none" stroke="black" d="M662.88,-593.79C676.57,-556.35 712.87,-470.32 771.66,-423 776.04,-419.48 780.91,-416.4 786.01,-413.71"/>
<polygon fill="black" stroke="black" points="787.11,-417.07 794.69,-409.66 784.14,-410.72 787.11,-417.07"/>
</g>
<!-- 8 -->
<!-- name: &quot;float&quot;, typeName: &quot;&quot;, id: 8, branchId: 0, recurseId: &#45;1, attributes: 512, notes: &quot;&quot; -->
<g id="node9" class="node">
<title>8</title>
<ellipse fill="none" stroke="black" cx="1381.32" cy="-774" rx="27.11" ry="18"/>
<text text-anchor="middle" x="1381.32" y="-768.58" font-family="Times New Roman,serif" font-size="14.00">float</text>
</g>
<!-- 7&#45;&gt;8 -->
<g id="edge8" class="edge">
<title>7&#45;&gt;8</title>
<path fill="none" stroke="black" d="M1086.99,-770.56C1155.55,-771.36 1280.41,-772.83 1342.78,-773.56"/>
<polygon fill="black" stroke="black" points="1342.47,-777.06 1352.51,-773.67 1342.55,-770.06 1342.47,-777.06"/>
</g>
<!-- 10 -->
<!-- name: &quot;float&quot;, typeName: &quot;&quot;, id: 10, branchId: 0, recurseId: &#45;1, attributes: 512, notes: &quot;&quot; -->
<g id="node11" class="node">
<title>10</title>
<ellipse fill="none" stroke="black" cx="1381.32" cy="-720" rx="27.11" ry="18"/>
<text text-anchor="middle" x="1381.32" y="-714.58" font-family="Times New Roman,serif" font-size="14.00">float</text>
</g>
<!-- 9&#45;&gt;10 -->
<g id="edge10" class="edge">
<title>9&#45;&gt;10</title>
<path fill="none" stroke="black" d="M1089.17,-715.73C1158.19,-716.74 1281.15,-718.55 1342.84,-719.45"/>
<polygon fill="black" stroke="black" points="1342.41,-722.94 1352.46,-719.59 1342.51,-715.95 1342.41,-722.94"/>
</g>
<!-- 12 -->
<!-- name: &quot;float&quot;, typeName: &quot;&quot;, id: 12, branchId: 0, recurseId: &#45;1, attributes: 512, notes: &quot;&quot; -->
<g id="node13" class="node">
<title>12</title>
<ellipse fill="none" stroke="black" cx="1381.32" cy="-666" rx="27.11" ry="18"/>
<text text-anchor="middle" x="1381.32" y="-660.58" font-family="Times New Roman,serif" font-size="14.00">float</text>
</g>
<!-- 11&#45;&gt;12 -->
<g id="edge12" class="edge">
<title>11&#45;&gt;12</title>
<path fill="none" stroke="black" d="M1100.58,-660.26C1170.93,-661.7 1284.02,-664.02 1342.53,-665.22"/>
<polygon fill="black" stroke="black" points="1342.23,-668.72 1352.3,-665.43 1342.38,-661.72 1342.23,-668.72"/>
</g>
<!-- 14 -->
<!-- name: &quot;float&quot;, typeName: &quot;&quot;, id: 14, branchId: 0, recurseId: &#45;1, attributes: 512, notes: &quot;&quot; -->
<g id="node15" class="node">
<title>14</title>
<ellipse fill="none" stroke="black" cx="1381.32" cy="-612" rx="27.11" ry="18"/>
<text text-anchor="middle" x="1381.32" y="-606.58" font-family="Times New Roman,serif" font-size="14.00">float</text>
</g>
<!-- 13&#45;&gt;14 -->
<g id="edge14" class="edge">
<title>13&#45;&gt;14</title>
<path fill="none" stroke="black" d="M928.97,-612C1043.87,-612 1256.22,-612 1342.45,-612"/>
<polygon fill="black" stroke="black" points="1342.24,-615.5 1352.24,-612 1342.24,-608.5 1342.24,-615.5"/>
</g>
<!-- 16 -->
<!-- name: &quot;float&quot;, typeName: &quot;&quot;, id: 16, branchId: 0, recurseId: &#45;1, attributes: 512, notes: &quot;&quot; -->
<g id="node17" class="node">
<title>16</title>
<ellipse fill="none" stroke="black" cx="1381.32" cy="-558" rx="27.11" ry="18"/>
<text text-anchor="middle" x="1381.32" y="-552.58" font-family="Times New Roman,serif" font-size="14.00">float</text>
</g>
<!-- 15&#45;&gt;16 -->
<g id="edge16" class="edge">
<title>15&#45;&gt;16</title>
<path fill="none" stroke="black" d="M930.95,-558C1046.32,-558 1256.81,-558 1342.5,-558"/>
<polygon fill="black" stroke="black" points="1342.47,-561.5 1352.47,-558 1342.47,-554.5 1342.47,-561.5"/>
</g>
<!-- 18 -->
<!-- name: &quot;float&quot;, typeName: &quot;&quot;, id: 18, branchId: 0, recurseId: &#45;1, attributes: 512, notes: &quot;&quot; -->
<g id="node19" class="node">
<title>18</title>
<ellipse fill="none" stroke="black" cx="1381.32" cy="-504" rx="27.11" ry="18"/>
<text text-anchor="middle" x="1381.32" y="-498.57" font-family="Times New Roman,serif" font-size="14.00">float</text>
</g>
<!-- 17&#45;&gt;18 -->
<g id="edge18" class="edge">
<title>17&#45;&gt;18</title>
<path fill="none" stroke="black" d="M911.99,-504C1021.58,-504 1251.63,-504 1342.36,-504"/>
<polygon fill="black" stroke="black" points="1342.21,-507.5 1352.21,-504 1342.21,-500.5 1342.21,-507.5"/>
</g>
<!-- 20 -->
<!-- name: &quot;string&quot;, typeName: &quot;&quot;, id: 20, branchId: 0, recurseId: &#45;1, attributes: 512, notes: &quot;&quot; -->
<g id="node21" class="node">
<title>20</title>
<ellipse fill="none" stroke="black" cx="1381.32" cy="-450" rx="31.1" ry="18"/>
<text text-anchor="middle" x="1381.32" y="-444.57" font-family="Times New Roman,serif" font-size="14.00">string</text>
</g>
<!-- 19&#45;&gt;20 -->
<g id="edge20" class="edge">
<title>19&#45;&gt;20</title>
<path fill="none" stroke="black" d="M918.53,-450C1028.94,-450 1247.26,-450 1338.6,-450"/>
<polygon fill="black" stroke="black" points="1338.35,-453.5 1348.35,-450 1338.35,-446.5 1338.35,-453.5"/>
</g>
<!-- 22 -->
<!-- name: &quot;Array Size&quot;, typeName: &quot;&quot;, id: 22, branchId: 0, recurseId: &#45;1, attributes: 0, notes: &quot;&quot; -->
<g id="node23" class="node">
<title>22</title>
<ellipse fill="none" stroke="black" cx="1038.2" cy="-396" rx="49.57" ry="18"/>
<text text-anchor="middle" x="1038.2" y="-390.57" font-family="Times New Roman,serif" font-size="14.00">Array Size</text>
</g>
<!-- 21&#45;&gt;22 -->
<g id="edge22" class="edge">
<title>21&#45;&gt;22</title>
<path fill="none" stroke="black" d="M929.03,-396C945.02,-396 961.64,-396 976.92,-396"/>
<polygon fill="black" stroke="black" points="976.8,-399.5 986.8,-396 976.8,-392.5 976.8,-399.5"/>
</g>
<!-- 24 -->
<!-- name: &quot;example element&quot;, typeName: &quot;&quot;, id: 24, branchId: 0, recurseId: &#45;1, attributes: 16, notes: &quot;&quot; -->
<g id="node25" class="node">
<title>24</title>
<ellipse fill="none" stroke="black" stroke-dasharray="1,5" cx="1038.2" cy="-234" rx="71.52" ry="18"/>
<text text-anchor="middle" x="1038.2" y="-228.57" font-family="Times New Roman,serif" font-size="14.00">example element</text>
</g>
<!-- 21&#45;&gt;24 -->
<g id="edge24" class="edge">
<title>21&#45;&gt;24</title>
<path fill="none" stroke="black" d="M872.32,-378.35C905.27,-349.51 970.78,-292.15 1008.55,-259.08"/>
<polygon fill="black" stroke="black" points="1010.71,-261.84 1015.93,-252.62 1006.1,-256.57 1010.71,-261.84"/>
</g>
<!-- 23 -->
<!-- name: &quot;unsigned varint&quot;, typeName: &quot;&quot;, id: 23, branchId: 0, recurseId: &#45;1, attributes: 512, notes: &quot;&quot; -->
<g id="node24" class="node">
<title>23</title>
<ellipse fill="none" stroke="black" cx="1381.32" cy="-396" rx="66.53" ry="18"/>
<text text-anchor="middle" x="1381.32" y="-390.57" font-family="Times New Roman,serif" font-size="14.00">unsigned varint</text>
</g>
<!-- 22&#45;&gt;23 -->
<g id="edge23" class="edge">
<title>22&#45;&gt;23</title>
<path fill="none" stroke="black" d="M1088.07,-396C1144.32,-396 1237.42,-396 1303.41,-396"/>
<polygon fill="black" stroke="black" points="1303.06,-399.5 1313.06,-396 1303.06,-392.5 1303.06,-399.5"/>
</g>
<!-- 25 -->
<!-- name: &quot;ID&quot;, typeName: &quot;&quot;, id: 25, branchId: 0, recurseId: &#45;1, attributes: 0, notes: &quot;&quot; -->
<g id="node26" class="node">
<title>25</title>
<ellipse fill="none" stroke="black" cx="1207.76" cy="-342" rx="27" ry="18"/>
<text text-anchor="middle" x="1207.76" y="-336.57" font-family="Times New Roman,serif" font-size="14.00">ID</text>
</g>
<!-- 24&#45;&gt;25 -->
<g id="edge25" class="edge">
<title>24&#45;&gt;25</title>
<path fill="none" stroke="black" d="M1059.4,-251.66C1080.1,-269.19 1113.71,-296.1 1145.72,-315 1154.4,-320.12 1164.23,-324.88 1173.42,-328.93"/>
<polygon fill="black" stroke="black" points="1171.85,-332.07 1182.42,-332.75 1174.58,-325.62 1171.85,-332.07"/>
</g>
<!-- 27 -->
<!-- name: &quot;Name&quot;, typeName: &quot;&quot;, id: 27, branchId: 0, recurseId: &#45;1, attributes: 0, notes: &quot;&quot; -->
<g id="node28" class="node">
<title>27</title>
<ellipse fill="none" stroke="black" cx="1207.76" cy="-288" rx="32.1" ry="18"/>
<text text-anchor="middle" x="1207.76" y="-282.57" font-family="Times New Roman,serif" font-size="14.00">Name</text>
</g>
<!-- 24&#45;&gt;27 -->
<g id="edge27" class="edge">
<title>24&#45;&gt;27</title>
<path fill="none" stroke="black" d="M1083.66,-248.33C1110.18,-256.88 1143.5,-267.61 1168.78,-275.76"/>
<polygon fill="black" stroke="black" points="1167.4,-278.99 1177.99,-278.73 1169.55,-272.33 1167.4,-278.99"/>
</g>
<!-- 29 -->
<!-- name: &quot;Amount&quot;, typeName: &quot;&quot;, id: 29, branchId: 0, recurseId: &#45;1, attributes: 0, notes: &quot;&quot; -->
<g id="node30" class="node">
<title>29</title>
<ellipse fill="none" stroke="black" cx="1207.76" cy="-234" rx="40.58" ry="18"/>
<text text-anchor="middle" x="1207.76" y="-228.57" font-family="Times New Roman,serif" font-size="14.00">Amount</text>
</g>
<!-- 24&#45;&gt;29 -->
<g id="edge29" class="edge">
<title>24&#45;&gt;29</title>
<path fill="none" stroke="black" d="M1109.78,-234C1125.16,-234 1141.16,-234 1155.62,-234"/>
<polygon fill="black" stroke="black" points="1155.33,-237.5 1165.33,-234 1155.33,-230.5 1155.33,-237.5"/>
</g>
<!-- 31 -->
<!-- name: &quot;Operation&quot;, typeName: &quot;&quot;, id: 31, branchId: 0, recurseId: &#45;1, attributes: 0, notes: &quot;&quot; -->
<g id="node32" class="node">
<title>31</title>
<ellipse fill="none" stroke="black" cx="1207.76" cy="-180" rx="47.57" ry="18"/>
<text text-anchor="middle" x="1207.76" y="-174.57" font-family="Times New Roman,serif" font-size="14.00">Operation</text>
</g>
<!-- 24&#45;&gt;31 -->
<g id="edge31" class="edge">
<title>24&#45;&gt;31</title>
<path fill="none" stroke="black" d="M1083.66,-219.67C1107.1,-212.12 1135.85,-202.85 1159.66,-195.18"/>
<polygon fill="black" stroke="black" points="1160.68,-198.53 1169.13,-192.13 1158.53,-191.87 1160.68,-198.53"/>
</g>
<!-- 33 -->
<!-- name: &quot;Operand&quot;, typeName: &quot;&quot;, id: 33, branchId: 0, recurseId: &#45;1, attributes: 0, notes: &quot;&quot; -->
<g id="node34" class="node">
<title>33</title>
<ellipse fill="none" stroke="black" cx="1207.76" cy="-126" rx="43.08" ry="18"/>
<text text-anchor="middle" x="1207.76" y="-120.58" font-family="Times New Roman,serif" font-size="14.00">Operand</text>
</g>
<!-- 24&#45;&gt;33 -->
<g id="edge33" class="edge">
<title>24&#45;&gt;33</title>
<path fill="none" stroke="black" d="M1059.4,-216.34C1080.1,-198.81 1113.71,-171.9 1145.72,-153 1151.81,-149.4 1158.47,-145.99 1165.07,-142.87"/>
<polygon fill="black" stroke="black" points="1166.28,-146.17 1173.95,-138.86 1163.39,-139.79 1166.28,-146.17"/>
</g>
<!-- 35 -->
<!-- name: &quot;isSerializable?&quot;, typeName: &quot;&quot;, id: 35, branchId: 0, recurseId: &#45;1, attributes: 0, notes: &quot;&quot; -->
<g id="node36" class="node">
<title>35</title>
<ellipse fill="none" stroke="black" cx="1207.76" cy="-72" rx="62.04" ry="18"/>
<text text-anchor="middle" x="1207.76" y="-66.58" font-family="Times New Roman,serif" font-size="14.00">isSerializable?</text>
</g>
<!-- 24&#45;&gt;35 -->
<g id="edge35" class="edge">
<title>24&#45;&gt;35</title>
<path fill="none" stroke="black" d="M1049.44,-215.96C1066.27,-187.68 1102.31,-132.66 1145.72,-99 1149.38,-96.16 1153.38,-93.56 1157.53,-91.17"/>
<polygon fill="black" stroke="black" points="1158.81,-94.46 1166.05,-86.72 1155.56,-88.25 1158.81,-94.46"/>
</g>
<!-- 26 -->
<!-- name: &quot;string&quot;, typeName: &quot;&quot;, id: 26, branchId: 0, recurseId: &#45;1, attributes: 512, notes: &quot;&quot; -->
<g id="node27" class="node">
<title>26</title>
<ellipse fill="none" stroke="black" cx="1381.32" cy="-342" rx="31.1" ry="18"/>
<text text-anchor="middle" x="1381.32" y="-336.57" font-family="Times New Roman,serif" font-size="14.00">string</text>
</g>
<!-- 25&#45;&gt;26 -->
<g id="edge26" class="edge">
<title>25&#45;&gt;26</title>
<path fill="none" stroke="black" d="M1235.19,-342C1262.74,-342 1306.29,-342 1338.5,-342"/>
<polygon fill="black" stroke="black" points="1338.29,-345.5 1348.29,-342 1338.29,-338.5 1338.29,-345.5"/>
</g>
<!-- 28 -->
<!-- name: &quot;string&quot;, typeName: &quot;&quot;, id: 28, branchId: 0, recurseId: &#45;1, attributes: 512, notes: &quot;&quot; -->
<g id="node29" class="node">
<title>28</title>
<ellipse fill="none" stroke="black" cx="1381.32" cy="-288" rx="31.1" ry="18"/>
<text text-anchor="middle" x="1381.32" y="-282.57" font-family="Times New Roman,serif" font-size="14.00">string</text>
</g>
<!-- 27&#45;&gt;28 -->
<g id="edge28" class="edge">
<title>27&#45;&gt;28</title>
<path fill="none" stroke="black" d="M1240.23,-288C1267.81,-288 1308.13,-288 1338.43,-288"/>
<polygon fill="black" stroke="black" points="1338.41,-291.5 1348.41,-288 1338.41,-284.5 1338.41,-291.5"/>
</g>
<!-- 30 -->
<!-- name: &quot;float&quot;, typeName: &quot;&quot;, id: 30, branchId: 0, recurseId: &#45;1, attributes: 512, notes: &quot;&quot; -->
<g id="node31" class="node">
<title>30</title>
<ellipse fill="none" stroke="black" cx="1381.32" cy="-234" rx="27.11" ry="18"/>
<text text-anchor="middle" x="1381.32" y="-228.57" font-family="Times New Roman,serif" font-size="14.00">float</text>
</g>
<!-- 29&#45;&gt;30 -->
<g id="edge30" class="edge">
<title>29&#45;&gt;30</title>
<path fill="none" stroke="black" d="M1248.55,-234C1276.88,-234 1314.69,-234 1342.55,-234"/>
<polygon fill="black" stroke="black" points="1342.31,-237.5 1352.31,-234 1342.31,-230.5 1342.31,-237.5"/>
</g>
<!-- 32 -->
<!-- name: &quot;int&quot;, typeName: &quot;&quot;, id: 32, branchId: 0, recurseId: &#45;1, attributes: 512, notes: &quot;&quot; -->
<g id="node33" class="node">
<title>32</title>
<ellipse fill="none" stroke="black" cx="1381.32" cy="-180" rx="27" ry="18"/>
<text text-anchor="middle" x="1381.32" y="-174.57" font-family="Times New Roman,serif" font-size="14.00">int</text>
</g>
<!-- 31&#45;&gt;32 -->
<g id="edge32" class="edge">
<title>31&#45;&gt;32</title>
<path fill="none" stroke="black" d="M1255.64,-180C1283.05,-180 1317.18,-180 1342.8,-180"/>
<polygon fill="black" stroke="black" points="1342.75,-183.5 1352.75,-180 1342.75,-176.5 1342.75,-183.5"/>
</g>
<!-- 34 -->
<!-- name: &quot;int&quot;, typeName: &quot;&quot;, id: 34, branchId: 0, recurseId: &#45;1, attributes: 512, notes: &quot;&quot; -->
<g id="node35" class="node">
<title>34</title>
<ellipse fill="none" stroke="black" cx="1381.32" cy="-126" rx="27" ry="18"/>
<text text-anchor="middle" x="1381.32" y="-120.58" font-family="Times New Roman,serif" font-size="14.00">int</text>
</g>
<!-- 33&#45;&gt;34 -->
<g id="edge34" class="edge">
<title>33&#45;&gt;34</title>
<path fill="none" stroke="black" d="M1251.17,-126C1279.18,-126 1315.55,-126 1342.56,-126"/>
<polygon fill="black" stroke="black" points="1342.36,-129.5 1352.36,-126 1342.36,-122.5 1342.36,-129.5"/>
</g>
<!-- 36 -->
<!-- name: &quot;bool&quot;, typeName: &quot;&quot;, id: 36, branchId: 0, recurseId: &#45;1, attributes: 512, notes: &quot;&quot; -->
<g id="node37" class="node">
<title>36</title>
<ellipse fill="none" stroke="black" cx="1381.32" cy="-72" rx="27.61" ry="18"/>
<text text-anchor="middle" x="1381.32" y="-66.58" font-family="Times New Roman,serif" font-size="14.00">bool</text>
</g>
<!-- 35&#45;&gt;36 -->
<g id="edge36" class="edge">
<title>35&#45;&gt;36</title>
<path fill="none" stroke="black" d="M1270.22,-72C1294.12,-72 1320.77,-72 1341.86,-72"/>
<polygon fill="black" stroke="black" points="1341.75,-75.5 1351.75,-72 1341.75,-68.5 1341.75,-75.5"/>
</g>
<!-- 38 -->
<!-- name: &quot;unsigned varint64&quot;, typeName: &quot;&quot;, id: 38, branchId: 0, recurseId: &#45;1, attributes: 512, notes: &quot;&quot; -->
<g id="node39" class="node">
<title>38</title>
<ellipse fill="none" stroke="black" cx="1381.32" cy="-18" rx="75.51" ry="18"/>
<text text-anchor="middle" x="1381.32" y="-12.57" font-family="Times New Roman,serif" font-size="14.00">unsigned varint64</text>
</g>
<!-- 37&#45;&gt;38 -->
<g id="edge38" class="edge">
<title>37&#45;&gt;38</title>
<path fill="none" stroke="black" d="M401.06,-309.99C451.47,-243.83 639,-18 850.17,-18 850.17,-18 850.17,-18 1039.2,-18 1126.01,-18 1225.26,-18 1294.23,-18"/>
<polygon fill="black" stroke="black" points="1293.94,-21.5 1303.94,-18 1293.94,-14.5 1293.94,-21.5"/>
</g>
</g>
</svg>
