<?xml version="1.0" encoding="UTF-8" standalone="no"?>
<!DOCTYPE svg PUBLIC "-//W3C//DTD SVG 1.1//EN"
 "http://www.w3.org/Graphics/SVG/1.1/DTD/svg11.dtd">
<!-- Generated by graphviz version 13.1.2 (20250808.2320)
 -->
<!-- Title: UpdateSoftEnumPacket Pages: 1 -->
<svg width="818pt" height="206pt"
 viewBox="0.00 0.00 818.00 206.00" xmlns="http://www.w3.org/2000/svg" xmlns:xlink="http://www.w3.org/1999/xlink">
<g id="graph0" class="graph" transform="scale(1 1) rotate(0) translate(4 202)">
<title>UpdateSoftEnumPacket</title>
<polygon fill="white" stroke="none" points="-4,4 -4,-202 813.52,-202 813.52,4 -4,4"/>
<!-- 0 -->
<!-- name: &quot;UpdateSoftEnumPacket&quot;, typeName: &quot;&quot;, id: 0, branchId: 0, recurseId: &#45;1, attributes: 0, notes: &quot;This is used for the scoreboard and tag systems (overwhelmingly used by 3rd party content)&quot; -->
<g id="node1" class="node">
<title>0</title>
<ellipse fill="none" stroke="black" cx="99.97" cy="-99" rx="99.97" ry="18"/>
<text xml:space="preserve" text-anchor="middle" x="99.97" y="-93.95" font-family="Times New Roman,serif" font-size="14.00">UpdateSoftEnumPacket</text>
</g>
<!-- 1 -->
<!-- name: &quot;Enum Name&quot;, typeName: &quot;&quot;, id: 1, branchId: 0, recurseId: &#45;1, attributes: 0, notes: &quot;&quot; -->
<g id="node2" class="node">
<title>1</title>
<ellipse fill="none" stroke="black" cx="294.46" cy="-166" rx="58.52" ry="18"/>
<text xml:space="preserve" text-anchor="middle" x="294.46" y="-160.95" font-family="Times New Roman,serif" font-size="14.00">Enum Name</text>
</g>
<!-- 0&#45;&gt;1 -->
<g id="edge1" class="edge">
<title>0&#45;&gt;1</title>
<path fill="none" stroke="black" d="M147.57,-115.22C176.7,-125.36 214.2,-138.41 243.88,-148.74"/>
<polygon fill="black" stroke="black" points="242.41,-151.93 253,-151.92 244.71,-145.32 242.41,-151.93"/>
</g>
<!-- 3 -->
<!-- name: &quot;Values&quot;, typeName: &quot;&quot;, id: 3, branchId: 0, recurseId: &#45;1, attributes: 0, notes: &quot;&quot; -->
<g id="node4" class="node">
<title>3</title>
<ellipse fill="none" stroke="black" cx="294.46" cy="-99" rx="35.49" ry="18"/>
<text xml:space="preserve" text-anchor="middle" x="294.46" y="-93.95" font-family="Times New Roman,serif" font-size="14.00">Values</text>
</g>
<!-- 0&#45;&gt;3 -->
<g id="edge3" class="edge">
<title>0&#45;&gt;3</title>
<path fill="none" stroke="black" d="M200.32,-99C216.69,-99 232.95,-99 247.19,-99"/>
<polygon fill="black" stroke="black" points="247.11,-102.5 257.11,-99 247.11,-95.5 247.11,-102.5"/>
</g>
<!-- 8 -->
<!-- name: &quot;Update Type&quot;, typeName: &quot;&quot;, id: 8, branchId: 0, recurseId: &#45;1, attributes: 0, notes: &quot;&quot; -->
<g id="node9" class="node">
<title>8</title>
<ellipse fill="none" stroke="black" cx="463.87" cy="-18" rx="58" ry="18"/>
<text xml:space="preserve" text-anchor="middle" x="463.87" y="-12.95" font-family="Times New Roman,serif" font-size="14.00">Update Type</text>
</g>
<!-- 0&#45;&gt;8 -->
<g id="edge8" class="edge">
<title>0&#45;&gt;8</title>
<path fill="none" stroke="black" d="M164.01,-84.89C231.88,-69.7 338.93,-45.74 404.81,-31"/>
<polygon fill="black" stroke="black" points="405.34,-34.46 414.33,-28.86 403.81,-27.63 405.34,-34.46"/>
</g>
<!-- 2 -->
<!-- name: &quot;string&quot;, typeName: &quot;&quot;, id: 2, branchId: 0, recurseId: &#45;1, attributes: 512, notes: &quot;&quot; -->
<g id="node3" class="node">
<title>2</title>
<ellipse fill="none" stroke="black" cx="692.14" cy="-180" rx="31.9" ry="18"/>
<text xml:space="preserve" text-anchor="middle" x="692.14" y="-174.95" font-family="Times New Roman,serif" font-size="14.00">string</text>
</g>
<!-- 1&#45;&gt;2 -->
<g id="edge2" class="edge">
<title>1&#45;&gt;2</title>
<path fill="none" stroke="black" d="M353,-168.04C433.4,-170.88 577.5,-175.98 648.8,-178.5"/>
<polygon fill="black" stroke="black" points="648.38,-181.99 658.49,-178.84 648.63,-174.99 648.38,-181.99"/>
</g>
<!-- 4 -->
<!-- name: &quot;List Size&quot;, typeName: &quot;&quot;, id: 4, branchId: 0, recurseId: &#45;1, attributes: 0, notes: &quot;&quot; -->
<g id="node5" class="node">
<title>4</title>
<ellipse fill="none" stroke="black" cx="463.87" cy="-126" rx="43.67" ry="18"/>
<text xml:space="preserve" text-anchor="middle" x="463.87" y="-120.95" font-family="Times New Roman,serif" font-size="14.00">List Size</text>
</g>
<!-- 3&#45;&gt;4 -->
<g id="edge4" class="edge">
<title>3&#45;&gt;4</title>
<path fill="none" stroke="black" d="M328.54,-104.33C352.22,-108.15 384.56,-113.37 411.57,-117.73"/>
<polygon fill="black" stroke="black" points="410.86,-121.16 421.29,-119.29 411.97,-114.25 410.86,-121.16"/>
</g>
<!-- 6 -->
<!-- name: &quot;example element&quot;, typeName: &quot;&quot;, id: 6, branchId: 0, recurseId: &#45;1, attributes: 16, notes: &quot;&quot; -->
<g id="node7" class="node">
<title>6</title>
<ellipse fill="none" stroke="black" stroke-dasharray="1,5" cx="463.87" cy="-72" rx="74.89" ry="18"/>
<text xml:space="preserve" text-anchor="middle" x="463.87" y="-66.95" font-family="Times New Roman,serif" font-size="14.00">example element</text>
</g>
<!-- 3&#45;&gt;6 -->
<g id="edge6" class="edge">
<title>3&#45;&gt;6</title>
<path fill="none" stroke="black" d="M328.54,-93.67C345.99,-90.85 368.13,-87.28 389.39,-83.85"/>
<polygon fill="black" stroke="black" points="389.92,-87.31 399.24,-82.26 388.81,-80.4 389.92,-87.31"/>
</g>
<!-- 5 -->
<!-- name: &quot;unsigned varint&quot;, typeName: &quot;&quot;, id: 5, branchId: 0, recurseId: &#45;1, attributes: 0, notes: &quot;&quot; -->
<g id="node6" class="node">
<title>5</title>
<ellipse fill="none" stroke="black" cx="692.14" cy="-126" rx="68.24" ry="18"/>
<text xml:space="preserve" text-anchor="middle" x="692.14" y="-120.95" font-family="Times New Roman,serif" font-size="14.00">unsigned varint</text>
</g>
<!-- 4&#45;&gt;5 -->
<g id="edge5" class="edge">
<title>4&#45;&gt;5</title>
<path fill="none" stroke="black" d="M507.97,-126C537.47,-126 577.45,-126 612.53,-126"/>
<polygon fill="black" stroke="black" points="612.22,-129.5 622.22,-126 612.22,-122.5 612.22,-129.5"/>
</g>
<!-- 7 -->
<!-- name: &quot;string&quot;, typeName: &quot;&quot;, id: 7, branchId: 0, recurseId: &#45;1, attributes: 512, notes: &quot;&quot; -->
<g id="node8" class="node">
<title>7</title>
<ellipse fill="none" stroke="black" cx="692.14" cy="-72" rx="31.9" ry="18"/>
<text xml:space="preserve" text-anchor="middle" x="692.14" y="-66.95" font-family="Times New Roman,serif" font-size="14.00">string</text>
</g>
<!-- 6&#45;&gt;7 -->
<g id="edge7" class="edge">
<title>6&#45;&gt;7</title>
<path fill="none" stroke="black" d="M538.96,-72C575.31,-72 617.78,-72 648.6,-72"/>
<polygon fill="black" stroke="black" points="648.29,-75.5 658.29,-72 648.29,-68.5 648.29,-75.5"/>
</g>
<!-- 9 -->
<!-- name: &quot;enum SoftEnumUpdateType&quot;, typeName: &quot;&quot;, id: 9, branchId: 0, recurseId: &#45;1, attributes: 512, notes: &quot;&quot; -->
<g id="node10" class="node">
<title>9</title>
<ellipse fill="none" stroke="black" cx="692.14" cy="-18" rx="117.37" ry="18"/>
<text xml:space="preserve" text-anchor="middle" x="692.14" y="-12.95" font-family="Times New Roman,serif" font-size="14.00">enum SoftEnumUpdateType</text>
</g>
<!-- 8&#45;&gt;9 -->
<g id="edge9" class="edge">
<title>8&#45;&gt;9</title>
<path fill="none" stroke="black" d="M522.26,-18C534.97,-18 548.93,-18 563.21,-18"/>
<polygon fill="black" stroke="black" points="563.2,-21.5 573.2,-18 563.19,-14.5 563.2,-21.5"/>
</g>
</g>
</svg>
