<?xml version="1.0" encoding="UTF-8" standalone="no"?>
<!DOCTYPE svg PUBLIC "-//W3C//DTD SVG 1.1//EN"
 "http://www.w3.org/Graphics/SVG/1.1/DTD/svg11.dtd">
<!-- Generated by graphviz version 9.0.0 (20230911.1827)
 -->
<!-- Title: UpdateAbilitiesPacket Pages: 1 -->
<svg width="506pt" height="44pt"
 viewBox="0.00 0.00 506.14 44.00" xmlns="http://www.w3.org/2000/svg" xmlns:xlink="http://www.w3.org/1999/xlink">
<g id="graph0" class="graph" transform="scale(1 1) rotate(0) translate(4 40)">
<title>UpdateAbilitiesPacket</title>
<polygon fill="white" stroke="none" points="-4,4 -4,-40 502.14,-40 502.14,4 -4,4"/>
<!-- 0 -->
<!-- name: &quot;UpdateAbilitiesPacket&quot;, typeName: &quot;&quot;, id: 0, branchId: 187, recurseId: &#45;1, attributes: 0, notes: &quot;&quot; -->
<g id="node1" class="node">
<title>0</title>
<ellipse fill="none" stroke="black" cx="92.48" cy="-18" rx="92.48" ry="18"/>
<text text-anchor="middle" x="92.48" y="-12.57" font-family="Times New Roman,serif" font-size="14.00">UpdateAbilitiesPacket</text>
</g>
<!-- 1 -->
<!-- name: &quot;Data&quot;, typeName: &quot;SerializedAbilitiesData&quot;, id: 1, branchId: 0, recurseId: &#45;1, attributes: 256, notes: &quot;&quot; -->
<g id="node2" class="node">
<title>1</title>
<ellipse fill="none" stroke="black" cx="248.57" cy="-18" rx="27.61" ry="18"/>
<text text-anchor="middle" x="248.57" y="-12.57" font-family="Times New Roman,serif" font-size="14.00">Data</text>
</g>
<!-- 0&#45;&gt;1 -->
<g id="edge1" class="edge">
<title>0&#45;&gt;1</title>
<path fill="none" stroke="black" d="M185.34,-18C193.62,-18 201.65,-18 209.05,-18"/>
<polygon fill="black" stroke="black" points="208.95,-21.5 218.95,-18 208.95,-14.5 208.95,-21.5"/>
</g>
<!-- 2 -->
<!-- name: &quot;SerializedAbilitiesData&quot;, typeName: &quot;&quot;, id: 2, branchId: 0, recurseId: &#45;1, attributes: 512, notes: &quot;&quot; -->
<g id="node3" class="node">
<title>2</title>
<ellipse fill="none" stroke="black" cx="405.16" cy="-18" rx="92.98" ry="18"/>
<text text-anchor="middle" x="405.16" y="-12.57" font-family="Times New Roman,serif" font-size="14.00">SerializedAbilitiesData</text>
</g>
<!-- 1&#45;&gt;2 -->
<g id="edge2" class="edge">
<title>1&#45;&gt;2</title>
<path fill="none" stroke="black" d="M276.5,-18C283.68,-18 291.88,-18 300.59,-18"/>
<polygon fill="black" stroke="black" points="300.34,-21.5 310.34,-18 300.34,-14.5 300.34,-21.5"/>
</g>
</g>
</svg>
