<?xml version="1.0" encoding="UTF-8" standalone="no"?>
<!DOCTYPE svg PUBLIC "-//W3C//DTD SVG 1.1//EN"
 "http://www.w3.org/Graphics/SVG/1.1/DTD/svg11.dtd">
<!-- Generated by graphviz version 14.1.5 (20260411.2331)
 -->
<!-- Title: UpdateAttributeLayerSettingsData Pages: 1 -->
<svg width="840pt" height="314pt"
 viewBox="0.00 0.00 840.00 314.00" xmlns="http://www.w3.org/2000/svg" xmlns:xlink="http://www.w3.org/1999/xlink">
<g id="graph0" class="graph" transform="scale(1 1) rotate(0) translate(4 310)">
<title>UpdateAttributeLayerSettingsData</title>
<polygon fill="white" stroke="none" points="-4,4 -4,-310 836.04,-310 836.04,4 -4,4"/>
<!-- 0 -->
<!-- name: &quot;UpdateAttributeLayerSettingsData&quot;, typeName: &quot;&quot;, id: 0, branchId: 0, recurseId: &#45;1, attributes: 0, notes: &quot;&quot; -->
<g id="node1" class="node">
<title>0</title>
<ellipse fill="none" stroke="black" cx="139.38" cy="-234" rx="139.38" ry="18"/>
<text xml:space="preserve" text-anchor="middle" x="139.38" y="-228.95" font-family="Times New Roman,serif" font-size="14.00">UpdateAttributeLayerSettingsData</text>
</g>
<!-- 1 -->
<!-- name: &quot;Attribute Layer Name&quot;, typeName: &quot;&quot;, id: 1, branchId: 0, recurseId: &#45;1, attributes: 0, notes: &quot;&quot; -->
<g id="node2" class="node">
<title>1</title>
<ellipse fill="none" stroke="black" cx="426.51" cy="-288" rx="93.32" ry="18"/>
<text xml:space="preserve" text-anchor="middle" x="426.51" y="-282.95" font-family="Times New Roman,serif" font-size="14.00">Attribute Layer Name</text>
</g>
<!-- 0&#45;&gt;1 -->
<g id="edge1" class="edge">
<title>0&#45;&gt;1</title>
<path fill="none" stroke="black" d="M219.81,-249.04C259.63,-256.59 307.7,-265.69 347.35,-273.2"/>
<polygon fill="black" stroke="black" points="346.6,-276.62 357.08,-275.04 347.91,-269.74 346.6,-276.62"/>
</g>
<!-- 3 -->
<!-- name: &quot;Attribute Layer Dimension&quot;, typeName: &quot;&quot;, id: 3, branchId: 0, recurseId: &#45;1, attributes: 0, notes: &quot;&quot; -->
<g id="node4" class="node">
<title>3</title>
<ellipse fill="none" stroke="black" cx="426.51" cy="-234" rx="111.74" ry="18"/>
<text xml:space="preserve" text-anchor="middle" x="426.51" y="-228.95" font-family="Times New Roman,serif" font-size="14.00">Attribute Layer Dimension</text>
</g>
<!-- 0&#45;&gt;3 -->
<g id="edge3" class="edge">
<title>0&#45;&gt;3</title>
<path fill="none" stroke="black" d="M279.19,-234C287.27,-234 295.38,-234 303.39,-234"/>
<polygon fill="black" stroke="black" points="303.14,-237.5 313.14,-234 303.14,-230.5 303.14,-237.5"/>
</g>
<!-- 6 -->
<!-- name: &quot;Attributes Layer Settings&quot;, typeName: &quot;&quot;, id: 6, branchId: 0, recurseId: &#45;1, attributes: 0, notes: &quot;&quot; -->
<g id="node7" class="node">
<title>6</title>
<ellipse fill="none" stroke="black" cx="426.51" cy="-126" rx="104.07" ry="18"/>
<text xml:space="preserve" text-anchor="middle" x="426.51" y="-120.95" font-family="Times New Roman,serif" font-size="14.00">Attributes Layer Settings</text>
</g>
<!-- 0&#45;&gt;6 -->
<g id="edge6" class="edge">
<title>0&#45;&gt;6</title>
<path fill="none" stroke="black" d="M186.19,-216.65C236.56,-197.57 317.44,-166.94 371.02,-146.64"/>
<polygon fill="black" stroke="black" points="372.16,-149.95 380.27,-143.14 369.68,-143.4 372.16,-149.95"/>
</g>
<!-- 2 -->
<!-- name: &quot;string&quot;, typeName: &quot;&quot;, id: 2, branchId: 0, recurseId: &#45;1, attributes: 512, notes: &quot;&quot; -->
<g id="node3" class="node">
<title>2</title>
<ellipse fill="none" stroke="black" cx="799.62" cy="-288" rx="31.9" ry="18"/>
<text xml:space="preserve" text-anchor="middle" x="799.62" y="-282.95" font-family="Times New Roman,serif" font-size="14.00">string</text>
</g>
<!-- 1&#45;&gt;2 -->
<g id="edge2" class="edge">
<title>1&#45;&gt;2</title>
<path fill="none" stroke="black" d="M520.2,-288C595.76,-288 699.01,-288 756.17,-288"/>
<polygon fill="black" stroke="black" points="756.13,-291.5 766.13,-288 756.13,-284.5 756.13,-291.5"/>
</g>
<!-- 4 -->
<!-- name: &quot;value&quot;, typeName: &quot;&quot;, id: 4, branchId: 0, recurseId: &#45;1, attributes: 0, notes: &quot;&quot; -->
<g id="node5" class="node">
<title>4</title>
<ellipse fill="none" stroke="black" cx="652.73" cy="-234" rx="30.88" ry="18"/>
<text xml:space="preserve" text-anchor="middle" x="652.73" y="-228.95" font-family="Times New Roman,serif" font-size="14.00">value</text>
</g>
<!-- 3&#45;&gt;4 -->
<g id="edge4" class="edge">
<title>3&#45;&gt;4</title>
<path fill="none" stroke="black" d="M538.64,-234C564.23,-234 589.89,-234 610.28,-234"/>
<polygon fill="black" stroke="black" points="610.12,-237.5 620.12,-234 610.12,-230.5 610.12,-237.5"/>
</g>
<!-- 5 -->
<!-- name: &quot;varint&quot;, typeName: &quot;&quot;, id: 5, branchId: 0, recurseId: &#45;1, attributes: 512, notes: &quot;&quot; -->
<g id="node6" class="node">
<title>5</title>
<ellipse fill="none" stroke="black" cx="799.62" cy="-234" rx="32.41" ry="18"/>
<text xml:space="preserve" text-anchor="middle" x="799.62" y="-228.95" font-family="Times New Roman,serif" font-size="14.00">varint</text>
</g>
<!-- 4&#45;&gt;5 -->
<g id="edge5" class="edge">
<title>4&#45;&gt;5</title>
<path fill="none" stroke="black" d="M684.11,-234C704.74,-234 732.34,-234 755.28,-234"/>
<polygon fill="black" stroke="black" points="755.27,-237.5 765.27,-234 755.27,-230.5 755.27,-237.5"/>
</g>
<!-- 7 -->
<!-- name: &quot;Priority&quot;, typeName: &quot;&quot;, id: 7, branchId: 0, recurseId: &#45;1, attributes: 0, notes: &quot;&quot; -->
<g id="node8" class="node">
<title>7</title>
<ellipse fill="none" stroke="black" cx="652.73" cy="-180" rx="39.07" ry="18"/>
<text xml:space="preserve" text-anchor="middle" x="652.73" y="-174.95" font-family="Times New Roman,serif" font-size="14.00">Priority</text>
</g>
<!-- 6&#45;&gt;7 -->
<g id="edge7" class="edge">
<title>6&#45;&gt;7</title>
<path fill="none" stroke="black" d="M488.78,-140.76C525.94,-149.71 572.56,-160.93 606.4,-169.08"/>
<polygon fill="black" stroke="black" points="605.34,-172.43 615.89,-171.37 606.98,-165.62 605.34,-172.43"/>
</g>
<!-- 9 -->
<!-- name: &quot;Weight&quot;, typeName: &quot;&quot;, id: 9, branchId: 0, recurseId: &#45;1, attributes: 0, notes: &quot;&quot; -->
<g id="node10" class="node">
<title>9</title>
<ellipse fill="none" stroke="black" cx="652.73" cy="-126" rx="37.53" ry="18"/>
<text xml:space="preserve" text-anchor="middle" x="652.73" y="-120.95" font-family="Times New Roman,serif" font-size="14.00">Weight</text>
</g>
<!-- 6&#45;&gt;9 -->
<g id="edge9" class="edge">
<title>6&#45;&gt;9</title>
<path fill="none" stroke="black" d="M530.76,-126C556.17,-126 582.19,-126 603.55,-126"/>
<polygon fill="black" stroke="black" points="603.4,-129.5 613.4,-126 603.4,-122.5 603.4,-129.5"/>
</g>
<!-- 11 -->
<!-- name: &quot;Enabled&quot;, typeName: &quot;&quot;, id: 11, branchId: 0, recurseId: &#45;1, attributes: 0, notes: &quot;&quot; -->
<g id="node12" class="node">
<title>11</title>
<ellipse fill="none" stroke="black" cx="652.73" cy="-72" rx="41.12" ry="18"/>
<text xml:space="preserve" text-anchor="middle" x="652.73" y="-66.95" font-family="Times New Roman,serif" font-size="14.00">Enabled</text>
</g>
<!-- 6&#45;&gt;11 -->
<g id="edge11" class="edge">
<title>6&#45;&gt;11</title>
<path fill="none" stroke="black" d="M488.78,-111.24C525.48,-102.41 571.39,-91.35 605.12,-83.23"/>
<polygon fill="black" stroke="black" points="605.69,-86.69 614.59,-80.94 604.05,-79.88 605.69,-86.69"/>
</g>
<!-- 13 -->
<!-- name: &quot;TransitionsPaused&quot;, typeName: &quot;&quot;, id: 13, branchId: 0, recurseId: &#45;1, attributes: 0, notes: &quot;&quot; -->
<g id="node14" class="node">
<title>13</title>
<ellipse fill="none" stroke="black" cx="652.73" cy="-18" rx="78.48" ry="18"/>
<text xml:space="preserve" text-anchor="middle" x="652.73" y="-12.95" font-family="Times New Roman,serif" font-size="14.00">TransitionsPaused</text>
</g>
<!-- 6&#45;&gt;13 -->
<g id="edge13" class="edge">
<title>6&#45;&gt;13</title>
<path fill="none" stroke="black" d="M456,-108.38C485.04,-90.87 531.74,-63.98 574.25,-45 580.74,-42.1 587.64,-39.31 594.55,-36.69"/>
<polygon fill="black" stroke="black" points="595.74,-39.98 603.93,-33.25 593.33,-33.41 595.74,-39.98"/>
</g>
<!-- 8 -->
<!-- name: &quot;int&quot;, typeName: &quot;&quot;, id: 8, branchId: 0, recurseId: &#45;1, attributes: 512, notes: &quot;&quot; -->
<g id="node9" class="node">
<title>8</title>
<ellipse fill="none" stroke="black" cx="799.62" cy="-180" rx="27" ry="18"/>
<text xml:space="preserve" text-anchor="middle" x="799.62" y="-174.95" font-family="Times New Roman,serif" font-size="14.00">int</text>
</g>
<!-- 7&#45;&gt;8 -->
<g id="edge8" class="edge">
<title>7&#45;&gt;8</title>
<path fill="none" stroke="black" d="M692.18,-180C713.44,-180 739.76,-180 760.91,-180"/>
<polygon fill="black" stroke="black" points="760.86,-183.5 770.86,-180 760.86,-176.5 760.86,-183.5"/>
</g>
<!-- 10 -->
<!-- name: &quot;float&quot;, typeName: &quot;&quot;, id: 10, branchId: 0, recurseId: &#45;1, attributes: 512, notes: &quot;&quot; -->
<g id="node11" class="node">
<title>10</title>
<ellipse fill="none" stroke="black" cx="799.62" cy="-126" rx="27.81" ry="18"/>
<text xml:space="preserve" text-anchor="middle" x="799.62" y="-120.95" font-family="Times New Roman,serif" font-size="14.00">float</text>
</g>
<!-- 9&#45;&gt;10 -->
<g id="edge10" class="edge">
<title>9&#45;&gt;10</title>
<path fill="none" stroke="black" d="M690.67,-126C711.89,-126 738.52,-126 760.01,-126"/>
<polygon fill="black" stroke="black" points="759.85,-129.5 769.85,-126 759.85,-122.5 759.85,-129.5"/>
</g>
<!-- 12 -->
<!-- name: &quot;bool&quot;, typeName: &quot;&quot;, id: 12, branchId: 0, recurseId: &#45;1, attributes: 512, notes: &quot;&quot; -->
<g id="node13" class="node">
<title>12</title>
<ellipse fill="none" stroke="black" cx="799.62" cy="-72" rx="27.3" ry="18"/>
<text xml:space="preserve" text-anchor="middle" x="799.62" y="-66.95" font-family="Times New Roman,serif" font-size="14.00">bool</text>
</g>
<!-- 11&#45;&gt;12 -->
<g id="edge12" class="edge">
<title>11&#45;&gt;12</title>
<path fill="none" stroke="black" d="M694.09,-72C714.95,-72 740.26,-72 760.75,-72"/>
<polygon fill="black" stroke="black" points="760.67,-75.5 770.67,-72 760.67,-68.5 760.67,-75.5"/>
</g>
<!-- 14 -->
<!-- name: &quot;bool&quot;, typeName: &quot;&quot;, id: 14, branchId: 0, recurseId: &#45;1, attributes: 512, notes: &quot;&quot; -->
<g id="node15" class="node">
<title>14</title>
<ellipse fill="none" stroke="black" cx="799.62" cy="-18" rx="27.3" ry="18"/>
<text xml:space="preserve" text-anchor="middle" x="799.62" y="-12.95" font-family="Times New Roman,serif" font-size="14.00">bool</text>
</g>
<!-- 13&#45;&gt;14 -->
<g id="edge14" class="edge">
<title>13&#45;&gt;14</title>
<path fill="none" stroke="black" d="M731.69,-18C741.75,-18 751.67,-18 760.66,-18"/>
<polygon fill="black" stroke="black" points="760.37,-21.5 770.37,-18 760.37,-14.5 760.37,-21.5"/>
</g>
</g>
</svg>
