<?xml version="1.0" encoding="UTF-8" standalone="no"?>
<!DOCTYPE svg PUBLIC "-//W3C//DTD SVG 1.1//EN"
 "http://www.w3.org/Graphics/SVG/1.1/DTD/svg11.dtd">
<!-- Generated by graphviz version 11.0.0 (20240428.1522)
 -->
<!-- Title: UserDataShapelessRecipe Pages: 1 -->
<svg width="1118pt" height="476pt"
 viewBox="0.00 0.00 1117.72 476.00" xmlns="http://www.w3.org/2000/svg" xmlns:xlink="http://www.w3.org/1999/xlink">
<g id="graph0" class="graph" transform="scale(1 1) rotate(0) translate(4 472)">
<title>UserDataShapelessRecipe</title>
<polygon fill="white" stroke="none" points="-4,4 -4,-472 1113.72,-472 1113.72,4 -4,4"/>
<!-- 6 -->
<!-- name: &quot;UserDataShapelessRecipe&quot;, typeName: &quot;&quot;, id: 6, branchId: 0, recurseId: &#45;1, attributes: 0, notes: &quot;&quot; -->
<g id="node1" class="node">
<title>6</title>
<ellipse fill="none" stroke="black" cx="107.95" cy="-180" rx="107.95" ry="18"/>
<text text-anchor="middle" x="107.95" y="-174.57" font-family="Times New Roman,serif" font-size="14.00">UserDataShapelessRecipe</text>
</g>
<!-- 7 -->
<!-- name: &quot;Recipe Unique Id&quot;, typeName: &quot;&quot;, id: 7, branchId: 0, recurseId: &#45;1, attributes: 0, notes: &quot;&quot; -->
<g id="node2" class="node">
<title>7</title>
<ellipse fill="none" stroke="black" cx="738.9" cy="-450" rx="76.01" ry="18"/>
<text text-anchor="middle" x="738.9" y="-444.57" font-family="Times New Roman,serif" font-size="14.00">Recipe Unique Id</text>
</g>
<!-- 6&#45;&gt;7 -->
<g id="edge1" class="edge">
<title>6&#45;&gt;7</title>
<path fill="none" stroke="black" d="M116.91,-198.21C134.81,-236.83 182.21,-326.83 251.9,-369 376.75,-444.55 551.04,-455.38 653.42,-454.2"/>
<polygon fill="black" stroke="black" points="653.17,-457.7 663.11,-454.04 653.05,-450.7 653.17,-457.7"/>
</g>
<!-- 9 -->
<!-- name: &quot;Ingredient List&quot;, typeName: &quot;&quot;, id: 9, branchId: 0, recurseId: &#45;1, attributes: 8, notes: &quot;&quot; -->
<g id="node4" class="node">
<title>9</title>
<ellipse fill="none" stroke="black" cx="349.87" cy="-342" rx="64.04" ry="18"/>
<text text-anchor="middle" x="349.87" y="-336.57" font-family="Times New Roman,serif" font-size="14.00">Ingredient List</text>
</g>
<!-- 6&#45;&gt;9 -->
<g id="edge3" class="edge">
<title>6&#45;&gt;9</title>
<path fill="none" stroke="black" d="M135.08,-197.65C178.6,-227.03 265.91,-285.99 314.41,-318.73"/>
<polygon fill="black" stroke="black" points="312.35,-321.57 322.6,-324.26 316.27,-315.76 312.35,-321.57"/>
</g>
<!-- 15 -->
<!-- name: &quot;Production List&quot;, typeName: &quot;&quot;, id: 15, branchId: 0, recurseId: &#45;1, attributes: 8, notes: &quot;&quot; -->
<g id="node10" class="node">
<title>15</title>
<ellipse fill="none" stroke="black" cx="349.87" cy="-234" rx="68.53" ry="18"/>
<text text-anchor="middle" x="349.87" y="-228.57" font-family="Times New Roman,serif" font-size="14.00">Production List</text>
</g>
<!-- 6&#45;&gt;15 -->
<g id="edge9" class="edge">
<title>6&#45;&gt;15</title>
<path fill="none" stroke="black" d="M173.87,-194.61C208.69,-202.45 251.39,-212.06 285.9,-219.83"/>
<polygon fill="black" stroke="black" points="284.8,-223.17 295.32,-221.95 286.33,-216.34 284.8,-223.17"/>
</g>
<!-- 21 -->
<!-- name: &quot;Recipe ID&quot;, typeName: &quot;mce::UUID&quot;, id: 21, branchId: 0, recurseId: &#45;1, attributes: 256, notes: &quot;&quot; -->
<g id="node16" class="node">
<title>21</title>
<ellipse fill="none" stroke="black" cx="349.87" cy="-180" rx="48.57" ry="18"/>
<text text-anchor="middle" x="349.87" y="-174.57" font-family="Times New Roman,serif" font-size="14.00">Recipe ID</text>
</g>
<!-- 6&#45;&gt;21 -->
<g id="edge15" class="edge">
<title>6&#45;&gt;21</title>
<path fill="none" stroke="black" d="M216.28,-180C241.56,-180 267.61,-180 289.85,-180"/>
<polygon fill="black" stroke="black" points="289.59,-183.5 299.59,-180 289.59,-176.5 289.59,-183.5"/>
</g>
<!-- 23 -->
<!-- name: &quot;Recipe Tag&quot;, typeName: &quot;&quot;, id: 23, branchId: 0, recurseId: &#45;1, attributes: 0, notes: &quot;Available ones: CARTOGRAPHY_TABLE, CRAFTING_TABLE, SMITHING_TABLE, STONECUTTER, FURNACE_TAG, BLAST_FURNACE_TAG, SMOKER_TAG, CAMPFIRE_TAG, SOUL_CAMPFIRE_TAG&quot; -->
<g id="node18" class="node">
<title>23</title>
<ellipse fill="none" stroke="black" cx="555.36" cy="-131" rx="53.56" ry="18"/>
<text text-anchor="middle" x="555.36" y="-125.58" font-family="Times New Roman,serif" font-size="14.00">Recipe Tag</text>
</g>
<!-- 6&#45;&gt;23 -->
<g id="edge17" class="edge">
<title>6&#45;&gt;23</title>
<path fill="none" stroke="black" d="M175.96,-165.71C199.84,-161.05 226.98,-156.25 251.9,-153 333.81,-142.32 428.92,-136.47 490.29,-133.54"/>
<polygon fill="black" stroke="black" points="490.38,-137.04 500.21,-133.08 490.06,-130.04 490.38,-137.04"/>
</g>
<!-- 25 -->
<!-- name: &quot;Priority&quot;, typeName: &quot;&quot;, id: 25, branchId: 0, recurseId: &#45;1, attributes: 0, notes: &quot;&quot; -->
<g id="node20" class="node">
<title>25</title>
<ellipse fill="none" stroke="black" cx="738.9" cy="-75" rx="38.09" ry="18"/>
<text text-anchor="middle" x="738.9" y="-69.58" font-family="Times New Roman,serif" font-size="14.00">Priority</text>
</g>
<!-- 6&#45;&gt;25 -->
<g id="edge19" class="edge">
<title>6&#45;&gt;25</title>
<path fill="none" stroke="black" d="M150.49,-163.12C178.65,-152.33 216.98,-138.92 251.9,-131 409.45,-95.26 601.18,-81.72 689.32,-77.11"/>
<polygon fill="black" stroke="black" points="689.23,-80.62 699.04,-76.62 688.87,-73.63 689.23,-80.62"/>
</g>
<!-- 27 -->
<!-- name: &quot;Unlocking Requirement&quot;, typeName: &quot;RecipeUnlockingRequirement&quot;, id: 27, branchId: 0, recurseId: &#45;1, attributes: 256, notes: &quot;&quot; -->
<g id="node22" class="node">
<title>27</title>
<ellipse fill="none" stroke="black" cx="349.87" cy="-21" rx="97.97" ry="18"/>
<text text-anchor="middle" x="349.87" y="-15.57" font-family="Times New Roman,serif" font-size="14.00">Unlocking Requirement</text>
</g>
<!-- 6&#45;&gt;27 -->
<g id="edge21" class="edge">
<title>6&#45;&gt;27</title>
<path fill="none" stroke="black" d="M128.12,-161.94C154.49,-137.72 204.16,-94.38 251.9,-65 265.71,-56.5 281.44,-48.66 296.15,-42.03"/>
<polygon fill="black" stroke="black" points="297.51,-45.25 305.26,-38.02 294.69,-38.84 297.51,-45.25"/>
</g>
<!-- 8 -->
<!-- name: &quot;string&quot;, typeName: &quot;&quot;, id: 8, branchId: 0, recurseId: &#45;1, attributes: 512, notes: &quot;&quot; -->
<g id="node3" class="node">
<title>8</title>
<ellipse fill="none" stroke="black" cx="980.32" cy="-450" rx="31.1" ry="18"/>
<text text-anchor="middle" x="980.32" y="-444.57" font-family="Times New Roman,serif" font-size="14.00">string</text>
</g>
<!-- 7&#45;&gt;8 -->
<g id="edge2" class="edge">
<title>7&#45;&gt;8</title>
<path fill="none" stroke="black" d="M815.32,-450C855.66,-450 903.81,-450 937.46,-450"/>
<polygon fill="black" stroke="black" points="937.21,-453.5 947.21,-450 937.21,-446.5 937.21,-453.5"/>
</g>
<!-- 10 -->
<!-- name: &quot;List Size&quot;, typeName: &quot;&quot;, id: 10, branchId: 0, recurseId: &#45;1, attributes: 0, notes: &quot;&quot; -->
<g id="node5" class="node">
<title>10</title>
<ellipse fill="none" stroke="black" cx="738.9" cy="-396" rx="42.58" ry="18"/>
<text text-anchor="middle" x="738.9" y="-390.57" font-family="Times New Roman,serif" font-size="14.00">List Size</text>
</g>
<!-- 9&#45;&gt;10 -->
<g id="edge4" class="edge">
<title>9&#45;&gt;10</title>
<path fill="none" stroke="black" d="M400.87,-353.32C425.71,-358.64 456.25,-364.74 483.84,-369 553.32,-379.72 634.16,-387.52 685.66,-391.9"/>
<polygon fill="black" stroke="black" points="685.05,-395.36 695.31,-392.71 685.64,-388.39 685.05,-395.36"/>
</g>
<!-- 12 -->
<!-- name: &quot;example element&quot;, typeName: &quot;&quot;, id: 12, branchId: 0, recurseId: &#45;1, attributes: 16, notes: &quot;&quot; -->
<g id="node7" class="node">
<title>12</title>
<ellipse fill="none" stroke="black" stroke-dasharray="1,5" cx="555.36" cy="-342" rx="71.52" ry="18"/>
<text text-anchor="middle" x="555.36" y="-336.57" font-family="Times New Roman,serif" font-size="14.00">example element</text>
</g>
<!-- 9&#45;&gt;12 -->
<g id="edge6" class="edge">
<title>9&#45;&gt;12</title>
<path fill="none" stroke="black" d="M414.14,-342C432.57,-342 452.98,-342 472.39,-342"/>
<polygon fill="black" stroke="black" points="472.17,-345.5 482.17,-342 472.17,-338.5 472.17,-345.5"/>
</g>
<!-- 11 -->
<!-- name: &quot;unsigned varint&quot;, typeName: &quot;&quot;, id: 11, branchId: 0, recurseId: &#45;1, attributes: 512, notes: &quot;&quot; -->
<g id="node6" class="node">
<title>11</title>
<ellipse fill="none" stroke="black" cx="980.32" cy="-396" rx="66.53" ry="18"/>
<text text-anchor="middle" x="980.32" y="-390.57" font-family="Times New Roman,serif" font-size="14.00">unsigned varint</text>
</g>
<!-- 10&#45;&gt;11 -->
<g id="edge5" class="edge">
<title>10&#45;&gt;11</title>
<path fill="none" stroke="black" d="M781.87,-396C815.02,-396 862.18,-396 902.1,-396"/>
<polygon fill="black" stroke="black" points="901.91,-399.5 911.91,-396 901.91,-392.5 901.91,-399.5"/>
</g>
<!-- 13 -->
<!-- name: &quot;Ingredient&quot;, typeName: &quot;RecipeIngredient&quot;, id: 13, branchId: 0, recurseId: &#45;1, attributes: 256, notes: &quot;&quot; -->
<g id="node8" class="node">
<title>13</title>
<ellipse fill="none" stroke="black" cx="738.9" cy="-342" rx="47.57" ry="18"/>
<text text-anchor="middle" x="738.9" y="-336.57" font-family="Times New Roman,serif" font-size="14.00">Ingredient</text>
</g>
<!-- 12&#45;&gt;13 -->
<g id="edge7" class="edge">
<title>12&#45;&gt;13</title>
<path fill="none" stroke="black" d="M627.33,-342C644.7,-342 663.09,-342 679.78,-342"/>
<polygon fill="black" stroke="black" points="679.51,-345.5 689.51,-342 679.51,-338.5 679.51,-345.5"/>
</g>
<!-- 14 -->
<!-- name: &quot;RecipeIngredient&quot;, typeName: &quot;&quot;, id: 14, branchId: 0, recurseId: &#45;1, attributes: 512, notes: &quot;&quot; -->
<g id="node9" class="node">
<title>14</title>
<ellipse fill="none" stroke="black" cx="980.32" cy="-342" rx="73.52" ry="18"/>
<text text-anchor="middle" x="980.32" y="-336.57" font-family="Times New Roman,serif" font-size="14.00">RecipeIngredient</text>
</g>
<!-- 13&#45;&gt;14 -->
<g id="edge8" class="edge">
<title>13&#45;&gt;14</title>
<path fill="none" stroke="black" d="M786.91,-342C817.77,-342 858.99,-342 895.36,-342"/>
<polygon fill="black" stroke="black" points="894.96,-345.5 904.96,-342 894.96,-338.5 894.96,-345.5"/>
</g>
<!-- 16 -->
<!-- name: &quot;List Size&quot;, typeName: &quot;&quot;, id: 16, branchId: 0, recurseId: &#45;1, attributes: 0, notes: &quot;&quot; -->
<g id="node11" class="node">
<title>16</title>
<ellipse fill="none" stroke="black" cx="555.36" cy="-288" rx="42.58" ry="18"/>
<text text-anchor="middle" x="555.36" y="-282.57" font-family="Times New Roman,serif" font-size="14.00">List Size</text>
</g>
<!-- 15&#45;&gt;16 -->
<g id="edge10" class="edge">
<title>15&#45;&gt;16</title>
<path fill="none" stroke="black" d="M399.35,-246.87C432.16,-255.57 475.26,-267.01 507.68,-275.61"/>
<polygon fill="black" stroke="black" points="506.64,-278.96 517.21,-278.14 508.44,-272.19 506.64,-278.96"/>
</g>
<!-- 18 -->
<!-- name: &quot;example element&quot;, typeName: &quot;&quot;, id: 18, branchId: 0, recurseId: &#45;1, attributes: 16, notes: &quot;&quot; -->
<g id="node13" class="node">
<title>18</title>
<ellipse fill="none" stroke="black" stroke-dasharray="1,5" cx="555.36" cy="-234" rx="71.52" ry="18"/>
<text text-anchor="middle" x="555.36" y="-228.57" font-family="Times New Roman,serif" font-size="14.00">example element</text>
</g>
<!-- 15&#45;&gt;18 -->
<g id="edge12" class="edge">
<title>15&#45;&gt;18</title>
<path fill="none" stroke="black" d="M418.63,-234C435.7,-234 454.21,-234 471.92,-234"/>
<polygon fill="black" stroke="black" points="471.9,-237.5 481.9,-234 471.9,-230.5 471.9,-237.5"/>
</g>
<!-- 17 -->
<!-- name: &quot;unsigned varint&quot;, typeName: &quot;&quot;, id: 17, branchId: 0, recurseId: &#45;1, attributes: 512, notes: &quot;&quot; -->
<g id="node12" class="node">
<title>17</title>
<ellipse fill="none" stroke="black" cx="980.32" cy="-288" rx="66.53" ry="18"/>
<text text-anchor="middle" x="980.32" y="-282.57" font-family="Times New Roman,serif" font-size="14.00">unsigned varint</text>
</g>
<!-- 16&#45;&gt;17 -->
<g id="edge11" class="edge">
<title>16&#45;&gt;17</title>
<path fill="none" stroke="black" d="M598.07,-288C668.65,-288 812.66,-288 902.08,-288"/>
<polygon fill="black" stroke="black" points="902,-291.5 912,-288 902,-284.5 902,-291.5"/>
</g>
<!-- 19 -->
<!-- name: &quot;Produced Item&quot;, typeName: &quot;NetworkItemInstanceDescriptor&quot;, id: 19, branchId: 0, recurseId: &#45;1, attributes: 256, notes: &quot;&quot; -->
<g id="node14" class="node">
<title>19</title>
<ellipse fill="none" stroke="black" cx="738.9" cy="-234" rx="66.03" ry="18"/>
<text text-anchor="middle" x="738.9" y="-228.57" font-family="Times New Roman,serif" font-size="14.00">Produced Item</text>
</g>
<!-- 18&#45;&gt;19 -->
<g id="edge13" class="edge">
<title>18&#45;&gt;19</title>
<path fill="none" stroke="black" d="M627.33,-234C638.51,-234 650.12,-234 661.43,-234"/>
<polygon fill="black" stroke="black" points="661.09,-237.5 671.09,-234 661.09,-230.5 661.09,-237.5"/>
</g>
<!-- 20 -->
<!-- name: &quot;NetworkItemInstanceDescriptor&quot;, typeName: &quot;&quot;, id: 20, branchId: 0, recurseId: &#45;1, attributes: 512, notes: &quot;&quot; -->
<g id="node15" class="node">
<title>20</title>
<ellipse fill="none" stroke="black" cx="980.32" cy="-234" rx="129.41" ry="18"/>
<text text-anchor="middle" x="980.32" y="-228.57" font-family="Times New Roman,serif" font-size="14.00">NetworkItemInstanceDescriptor</text>
</g>
<!-- 19&#45;&gt;20 -->
<g id="edge14" class="edge">
<title>19&#45;&gt;20</title>
<path fill="none" stroke="black" d="M805.32,-234C816.02,-234 827.46,-234 839.16,-234"/>
<polygon fill="black" stroke="black" points="838.94,-237.5 848.94,-234 838.94,-230.5 838.94,-237.5"/>
</g>
<!-- 22 -->
<!-- name: &quot;mce::UUID&quot;, typeName: &quot;&quot;, id: 22, branchId: 0, recurseId: &#45;1, attributes: 512, notes: &quot;&quot; -->
<g id="node17" class="node">
<title>22</title>
<ellipse fill="none" stroke="black" cx="980.32" cy="-180" rx="52.56" ry="18"/>
<text text-anchor="middle" x="980.32" y="-174.57" font-family="Times New Roman,serif" font-size="14.00">mce::UUID</text>
</g>
<!-- 21&#45;&gt;22 -->
<g id="edge16" class="edge">
<title>21&#45;&gt;22</title>
<path fill="none" stroke="black" d="M398.88,-180C511.01,-180 790.13,-180 915.99,-180"/>
<polygon fill="black" stroke="black" points="915.81,-183.5 925.81,-180 915.81,-176.5 915.81,-183.5"/>
</g>
<!-- 24 -->
<!-- name: &quot;string&quot;, typeName: &quot;&quot;, id: 24, branchId: 0, recurseId: &#45;1, attributes: 512, notes: &quot;&quot; -->
<g id="node19" class="node">
<title>24</title>
<ellipse fill="none" stroke="black" cx="980.32" cy="-126" rx="31.1" ry="18"/>
<text text-anchor="middle" x="980.32" y="-120.58" font-family="Times New Roman,serif" font-size="14.00">string</text>
</g>
<!-- 23&#45;&gt;24 -->
<g id="edge18" class="edge">
<title>23&#45;&gt;24</title>
<path fill="none" stroke="black" d="M609.07,-130.38C694.17,-129.37 860.09,-127.41 937.58,-126.49"/>
<polygon fill="black" stroke="black" points="937.32,-130 947.27,-126.38 937.23,-123 937.32,-130"/>
</g>
<!-- 26 -->
<!-- name: &quot;varint&quot;, typeName: &quot;&quot;, id: 26, branchId: 0, recurseId: &#45;1, attributes: 512, notes: &quot;&quot; -->
<g id="node21" class="node">
<title>26</title>
<ellipse fill="none" stroke="black" cx="980.32" cy="-72" rx="31.1" ry="18"/>
<text text-anchor="middle" x="980.32" y="-66.58" font-family="Times New Roman,serif" font-size="14.00">varint</text>
</g>
<!-- 25&#45;&gt;26 -->
<g id="edge20" class="edge">
<title>25&#45;&gt;26</title>
<path fill="none" stroke="black" d="M777.31,-74.53C820.77,-73.99 892.28,-73.09 937.53,-72.52"/>
<polygon fill="black" stroke="black" points="937.53,-76.02 947.48,-72.4 937.44,-69.02 937.53,-76.02"/>
</g>
<!-- 28 -->
<!-- name: &quot;RecipeUnlockingRequirement&quot;, typeName: &quot;&quot;, id: 28, branchId: 0, recurseId: &#45;1, attributes: 512, notes: &quot;&quot; -->
<g id="node23" class="node">
<title>28</title>
<ellipse fill="none" stroke="black" cx="980.32" cy="-18" rx="121.42" ry="18"/>
<text text-anchor="middle" x="980.32" y="-12.57" font-family="Times New Roman,serif" font-size="14.00">RecipeUnlockingRequirement</text>
</g>
<!-- 27&#45;&gt;28 -->
<g id="edge22" class="edge">
<title>27&#45;&gt;28</title>
<path fill="none" stroke="black" d="M448.03,-20.54C555.09,-20.03 727.88,-19.2 847.19,-18.63"/>
<polygon fill="black" stroke="black" points="847.07,-22.13 857.05,-18.58 847.04,-15.13 847.07,-22.13"/>
</g>
</g>
</svg>
