<?xml version="1.0" encoding="UTF-8" standalone="no"?>
<!DOCTYPE svg PUBLIC "-//W3C//DTD SVG 1.1//EN"
 "http://www.w3.org/Graphics/SVG/1.1/DTD/svg11.dtd">
<!-- Generated by graphviz version 12.2.0 (20241103.1931)
 -->
<!-- Title: UserDataShapelessRecipe Pages: 1 -->
<svg width="1131pt" height="476pt"
 viewBox="0.00 0.00 1131.26 476.00" xmlns="http://www.w3.org/2000/svg" xmlns:xlink="http://www.w3.org/1999/xlink">
<g id="graph0" class="graph" transform="scale(1 1) rotate(0) translate(4 472)">
<title>UserDataShapelessRecipe</title>
<polygon fill="white" stroke="none" points="-4,4 -4,-472 1127.26,-472 1127.26,4 -4,4"/>
<!-- 6 -->
<!-- name: &quot;UserDataShapelessRecipe&quot;, typeName: &quot;&quot;, id: 6, branchId: 0, recurseId: &#45;1, attributes: 0, notes: &quot;&quot; -->
<g id="node1" class="node">
<title>6</title>
<ellipse fill="none" stroke="black" cx="107.65" cy="-180" rx="107.65" ry="18"/>
<text text-anchor="middle" x="107.65" y="-174.95" font-family="Times New Roman,serif" font-size="14.00">UserDataShapelessRecipe</text>
</g>
<!-- 7 -->
<!-- name: &quot;Recipe Unique Id&quot;, typeName: &quot;&quot;, id: 7, branchId: 0, recurseId: &#45;1, attributes: 0, notes: &quot;&quot; -->
<g id="node2" class="node">
<title>7</title>
<ellipse fill="none" stroke="black" cx="750.49" cy="-450" rx="76.43" ry="18"/>
<text text-anchor="middle" x="750.49" y="-444.95" font-family="Times New Roman,serif" font-size="14.00">Recipe Unique Id</text>
</g>
<!-- 6&#45;&gt;7 -->
<g id="edge1" class="edge">
<title>6&#45;&gt;7</title>
<path fill="none" stroke="black" d="M116.57,-198.23C134.38,-236.89 181.6,-326.96 251.3,-369 380.04,-446.65 559.98,-456.6 664.67,-454.72"/>
<polygon fill="black" stroke="black" points="664.69,-458.22 674.61,-454.49 664.53,-451.22 664.69,-458.22"/>
</g>
<!-- 9 -->
<!-- name: &quot;Ingredient List&quot;, typeName: &quot;&quot;, id: 9, branchId: 0, recurseId: &#45;1, attributes: 8, notes: &quot;&quot; -->
<g id="node4" class="node">
<title>9</title>
<ellipse fill="none" stroke="black" cx="351.79" cy="-342" rx="65.68" ry="18"/>
<text text-anchor="middle" x="351.79" y="-336.95" font-family="Times New Roman,serif" font-size="14.00">Ingredient List</text>
</g>
<!-- 6&#45;&gt;9 -->
<g id="edge3" class="edge">
<title>6&#45;&gt;9</title>
<path fill="none" stroke="black" d="M135.02,-197.65C178.94,-227.03 267.06,-285.99 316.01,-318.73"/>
<polygon fill="black" stroke="black" points="314.02,-321.61 324.28,-324.27 317.91,-315.8 314.02,-321.61"/>
</g>
<!-- 15 -->
<!-- name: &quot;Production List&quot;, typeName: &quot;&quot;, id: 15, branchId: 0, recurseId: &#45;1, attributes: 8, notes: &quot;&quot; -->
<g id="node10" class="node">
<title>15</title>
<ellipse fill="none" stroke="black" cx="351.79" cy="-234" rx="68.24" ry="18"/>
<text text-anchor="middle" x="351.79" y="-228.95" font-family="Times New Roman,serif" font-size="14.00">Production List</text>
</g>
<!-- 6&#45;&gt;15 -->
<g id="edge9" class="edge">
<title>6&#45;&gt;15</title>
<path fill="none" stroke="black" d="M173.86,-194.54C209.12,-202.41 252.48,-212.08 287.45,-219.88"/>
<polygon fill="black" stroke="black" points="286.49,-223.25 297.01,-222.01 288.02,-216.42 286.49,-223.25"/>
</g>
<!-- 21 -->
<!-- name: &quot;Recipe ID&quot;, typeName: &quot;mce::UUID&quot;, id: 21, branchId: 0, recurseId: &#45;1, attributes: 256, notes: &quot;&quot; -->
<g id="node16" class="node">
<title>21</title>
<ellipse fill="none" stroke="black" cx="351.79" cy="-180" rx="48.79" ry="18"/>
<text text-anchor="middle" x="351.79" y="-174.95" font-family="Times New Roman,serif" font-size="14.00">Recipe ID</text>
</g>
<!-- 6&#45;&gt;21 -->
<g id="edge15" class="edge">
<title>6&#45;&gt;21</title>
<path fill="none" stroke="black" d="M215.56,-180C241.57,-180 268.46,-180 291.35,-180"/>
<polygon fill="black" stroke="black" points="291.07,-183.5 301.07,-180 291.07,-176.5 291.07,-183.5"/>
</g>
<!-- 23 -->
<!-- name: &quot;Recipe Tag&quot;, typeName: &quot;&quot;, id: 23, branchId: 0, recurseId: &#45;1, attributes: 0, notes: &quot;Available ones: CARTOGRAPHY_TABLE, CRAFTING_TABLE, SMITHING_TABLE, STONECUTTER, FURNACE_TAG, BLAST_FURNACE_TAG, SMOKER_TAG, CAMPFIRE_TAG, SOUL_CAMPFIRE_TAG&quot; -->
<g id="node18" class="node">
<title>23</title>
<ellipse fill="none" stroke="black" cx="563.17" cy="-131" rx="52.38" ry="18"/>
<text text-anchor="middle" x="563.17" y="-125.95" font-family="Times New Roman,serif" font-size="14.00">Recipe Tag</text>
</g>
<!-- 6&#45;&gt;23 -->
<g id="edge17" class="edge">
<title>6&#45;&gt;23</title>
<path fill="none" stroke="black" d="M175.52,-165.68C199.34,-161.02 226.43,-156.22 251.3,-153 336.79,-141.92 436.29,-136.11 499.23,-133.3"/>
<polygon fill="black" stroke="black" points="499.2,-136.81 509.04,-132.88 498.9,-129.81 499.2,-136.81"/>
</g>
<!-- 25 -->
<!-- name: &quot;Priority&quot;, typeName: &quot;&quot;, id: 25, branchId: 0, recurseId: &#45;1, attributes: 0, notes: &quot;&quot; -->
<g id="node20" class="node">
<title>25</title>
<ellipse fill="none" stroke="black" cx="750.49" cy="-75" rx="39.07" ry="18"/>
<text text-anchor="middle" x="750.49" y="-69.95" font-family="Times New Roman,serif" font-size="14.00">Priority</text>
</g>
<!-- 6&#45;&gt;25 -->
<g id="edge19" class="edge">
<title>6&#45;&gt;25</title>
<path fill="none" stroke="black" d="M151.06,-163.15C179.1,-152.66 216.88,-139.74 251.3,-132 413.02,-95.65 609.77,-81.84 699.98,-77.15"/>
<polygon fill="black" stroke="black" points="699.89,-80.66 709.7,-76.66 699.54,-73.67 699.89,-80.66"/>
</g>
<!-- 27 -->
<!-- name: &quot;Unlocking Requirement&quot;, typeName: &quot;RecipeUnlockingRequirement&quot;, id: 27, branchId: 0, recurseId: &#45;1, attributes: 256, notes: &quot;&quot; -->
<g id="node22" class="node">
<title>27</title>
<ellipse fill="none" stroke="black" cx="351.79" cy="-21" rx="100.48" ry="18"/>
<text text-anchor="middle" x="351.79" y="-15.95" font-family="Times New Roman,serif" font-size="14.00">Unlocking Requirement</text>
</g>
<!-- 6&#45;&gt;27 -->
<g id="edge21" class="edge">
<title>6&#45;&gt;27</title>
<path fill="none" stroke="black" d="M127.73,-161.87C154,-137.57 203.5,-94.14 251.3,-65 265.45,-56.37 281.59,-48.49 296.69,-41.86"/>
<polygon fill="black" stroke="black" points="297.73,-45.22 305.55,-38.06 294.98,-38.78 297.73,-45.22"/>
</g>
<!-- 8 -->
<!-- name: &quot;string&quot;, typeName: &quot;&quot;, id: 8, branchId: 0, recurseId: &#45;1, attributes: 512, notes: &quot;&quot; -->
<g id="node3" class="node">
<title>8</title>
<ellipse fill="none" stroke="black" cx="993.09" cy="-450" rx="31.9" ry="18"/>
<text text-anchor="middle" x="993.09" y="-444.95" font-family="Times New Roman,serif" font-size="14.00">string</text>
</g>
<!-- 7&#45;&gt;8 -->
<g id="edge2" class="edge">
<title>7&#45;&gt;8</title>
<path fill="none" stroke="black" d="M827.29,-450C867.58,-450 915.62,-450 949.41,-450"/>
<polygon fill="black" stroke="black" points="949.22,-453.5 959.22,-450 949.22,-446.5 949.22,-453.5"/>
</g>
<!-- 10 -->
<!-- name: &quot;List Size&quot;, typeName: &quot;&quot;, id: 10, branchId: 0, recurseId: &#45;1, attributes: 0, notes: &quot;&quot; -->
<g id="node5" class="node">
<title>10</title>
<ellipse fill="none" stroke="black" cx="750.49" cy="-396" rx="43.67" ry="18"/>
<text text-anchor="middle" x="750.49" y="-390.95" font-family="Times New Roman,serif" font-size="14.00">List Size</text>
</g>
<!-- 9&#45;&gt;10 -->
<g id="edge4" class="edge">
<title>9&#45;&gt;10</title>
<path fill="none" stroke="black" d="M403.73,-353.33C429.05,-358.66 460.17,-364.76 488.27,-369 559.73,-379.79 642.85,-387.57 695.79,-391.93"/>
<polygon fill="black" stroke="black" points="695.5,-395.42 705.75,-392.74 696.07,-388.44 695.5,-395.42"/>
</g>
<!-- 12 -->
<!-- name: &quot;example element&quot;, typeName: &quot;&quot;, id: 12, branchId: 0, recurseId: &#45;1, attributes: 16, notes: &quot;&quot; -->
<g id="node7" class="node">
<title>12</title>
<ellipse fill="none" stroke="black" stroke-dasharray="1,5" cx="563.17" cy="-342" rx="74.89" ry="18"/>
<text text-anchor="middle" x="563.17" y="-336.95" font-family="Times New Roman,serif" font-size="14.00">example element</text>
</g>
<!-- 9&#45;&gt;12 -->
<g id="edge6" class="edge">
<title>9&#45;&gt;12</title>
<path fill="none" stroke="black" d="M417.89,-342C436.45,-342 456.96,-342 476.56,-342"/>
<polygon fill="black" stroke="black" points="476.45,-345.5 486.45,-342 476.45,-338.5 476.45,-345.5"/>
</g>
<!-- 11 -->
<!-- name: &quot;unsigned varint&quot;, typeName: &quot;&quot;, id: 11, branchId: 0, recurseId: &#45;1, attributes: 512, notes: &quot;&quot; -->
<g id="node6" class="node">
<title>11</title>
<ellipse fill="none" stroke="black" cx="993.09" cy="-396" rx="68.24" ry="18"/>
<text text-anchor="middle" x="993.09" y="-390.95" font-family="Times New Roman,serif" font-size="14.00">unsigned varint</text>
</g>
<!-- 10&#45;&gt;11 -->
<g id="edge5" class="edge">
<title>10&#45;&gt;11</title>
<path fill="none" stroke="black" d="M794.5,-396C827.35,-396 873.53,-396 912.98,-396"/>
<polygon fill="black" stroke="black" points="912.94,-399.5 922.94,-396 912.94,-392.5 912.94,-399.5"/>
</g>
<!-- 13 -->
<!-- name: &quot;Ingredient&quot;, typeName: &quot;RecipeIngredient&quot;, id: 13, branchId: 0, recurseId: &#45;1, attributes: 256, notes: &quot;&quot; -->
<g id="node8" class="node">
<title>13</title>
<ellipse fill="none" stroke="black" cx="750.49" cy="-342" rx="48.79" ry="18"/>
<text text-anchor="middle" x="750.49" y="-336.95" font-family="Times New Roman,serif" font-size="14.00">Ingredient</text>
</g>
<!-- 12&#45;&gt;13 -->
<g id="edge7" class="edge">
<title>12&#45;&gt;13</title>
<path fill="none" stroke="black" d="M638.48,-342C655.66,-342 673.72,-342 690.16,-342"/>
<polygon fill="black" stroke="black" points="689.74,-345.5 699.74,-342 689.74,-338.5 689.74,-345.5"/>
</g>
<!-- 14 -->
<!-- name: &quot;RecipeIngredient&quot;, typeName: &quot;&quot;, id: 14, branchId: 0, recurseId: &#45;1, attributes: 512, notes: &quot;&quot; -->
<g id="node9" class="node">
<title>14</title>
<ellipse fill="none" stroke="black" cx="993.09" cy="-342" rx="74.38" ry="18"/>
<text text-anchor="middle" x="993.09" y="-336.95" font-family="Times New Roman,serif" font-size="14.00">RecipeIngredient</text>
</g>
<!-- 13&#45;&gt;14 -->
<g id="edge8" class="edge">
<title>13&#45;&gt;14</title>
<path fill="none" stroke="black" d="M799.6,-342C830.42,-342 871.27,-342 907.41,-342"/>
<polygon fill="black" stroke="black" points="906.95,-345.5 916.95,-342 906.95,-338.5 906.95,-345.5"/>
</g>
<!-- 16 -->
<!-- name: &quot;List Size&quot;, typeName: &quot;&quot;, id: 16, branchId: 0, recurseId: &#45;1, attributes: 0, notes: &quot;&quot; -->
<g id="node11" class="node">
<title>16</title>
<ellipse fill="none" stroke="black" cx="563.17" cy="-288" rx="43.67" ry="18"/>
<text text-anchor="middle" x="563.17" y="-282.95" font-family="Times New Roman,serif" font-size="14.00">List Size</text>
</g>
<!-- 15&#45;&gt;16 -->
<g id="edge10" class="edge">
<title>15&#45;&gt;16</title>
<path fill="none" stroke="black" d="M401.88,-246.66C435.87,-255.43 480.87,-267.03 514.54,-275.72"/>
<polygon fill="black" stroke="black" points="513.47,-279.06 524.03,-278.16 515.22,-272.28 513.47,-279.06"/>
</g>
<!-- 18 -->
<!-- name: &quot;example element&quot;, typeName: &quot;&quot;, id: 18, branchId: 0, recurseId: &#45;1, attributes: 16, notes: &quot;&quot; -->
<g id="node13" class="node">
<title>18</title>
<ellipse fill="none" stroke="black" stroke-dasharray="1,5" cx="563.17" cy="-234" rx="74.89" ry="18"/>
<text text-anchor="middle" x="563.17" y="-228.95" font-family="Times New Roman,serif" font-size="14.00">example element</text>
</g>
<!-- 15&#45;&gt;18 -->
<g id="edge12" class="edge">
<title>15&#45;&gt;18</title>
<path fill="none" stroke="black" d="M420.48,-234C438.29,-234 457.74,-234 476.36,-234"/>
<polygon fill="black" stroke="black" points="476.31,-237.5 486.31,-234 476.31,-230.5 476.31,-237.5"/>
</g>
<!-- 17 -->
<!-- name: &quot;unsigned varint&quot;, typeName: &quot;&quot;, id: 17, branchId: 0, recurseId: &#45;1, attributes: 512, notes: &quot;&quot; -->
<g id="node12" class="node">
<title>17</title>
<ellipse fill="none" stroke="black" cx="993.09" cy="-288" rx="68.24" ry="18"/>
<text text-anchor="middle" x="993.09" y="-282.95" font-family="Times New Roman,serif" font-size="14.00">unsigned varint</text>
</g>
<!-- 16&#45;&gt;17 -->
<g id="edge11" class="edge">
<title>16&#45;&gt;17</title>
<path fill="none" stroke="black" d="M607.16,-288C678.7,-288 823.23,-288 913.41,-288"/>
<polygon fill="black" stroke="black" points="913.15,-291.5 923.15,-288 913.15,-284.5 913.15,-291.5"/>
</g>
<!-- 19 -->
<!-- name: &quot;Produced Item&quot;, typeName: &quot;NetworkItemInstanceDescriptor&quot;, id: 19, branchId: 0, recurseId: &#45;1, attributes: 256, notes: &quot;&quot; -->
<g id="node14" class="node">
<title>19</title>
<ellipse fill="none" stroke="black" cx="750.49" cy="-234" rx="65.68" ry="18"/>
<text text-anchor="middle" x="750.49" y="-228.95" font-family="Times New Roman,serif" font-size="14.00">Produced Item</text>
</g>
<!-- 18&#45;&gt;19 -->
<g id="edge13" class="edge">
<title>18&#45;&gt;19</title>
<path fill="none" stroke="black" d="M638.48,-234C649.88,-234 661.67,-234 673.12,-234"/>
<polygon fill="black" stroke="black" points="672.91,-237.5 682.91,-234 672.91,-230.5 672.91,-237.5"/>
</g>
<!-- 20 -->
<!-- name: &quot;NetworkItemInstanceDescriptor&quot;, typeName: &quot;&quot;, id: 20, branchId: 0, recurseId: &#45;1, attributes: 512, notes: &quot;&quot; -->
<g id="node15" class="node">
<title>20</title>
<ellipse fill="none" stroke="black" cx="993.09" cy="-234" rx="130.17" ry="18"/>
<text text-anchor="middle" x="993.09" y="-228.95" font-family="Times New Roman,serif" font-size="14.00">NetworkItemInstanceDescriptor</text>
</g>
<!-- 19&#45;&gt;20 -->
<g id="edge14" class="edge">
<title>19&#45;&gt;20</title>
<path fill="none" stroke="black" d="M816.6,-234C827.46,-234 839.09,-234 851,-234"/>
<polygon fill="black" stroke="black" points="850.98,-237.5 860.98,-234 850.98,-230.5 850.98,-237.5"/>
</g>
<!-- 22 -->
<!-- name: &quot;mce::UUID&quot;, typeName: &quot;&quot;, id: 22, branchId: 0, recurseId: &#45;1, attributes: 512, notes: &quot;&quot; -->
<g id="node17" class="node">
<title>22</title>
<ellipse fill="none" stroke="black" cx="993.09" cy="-180" rx="54.93" ry="18"/>
<text text-anchor="middle" x="993.09" y="-174.95" font-family="Times New Roman,serif" font-size="14.00">mce::UUID</text>
</g>
<!-- 21&#45;&gt;22 -->
<g id="edge16" class="edge">
<title>21&#45;&gt;22</title>
<path fill="none" stroke="black" d="M400.84,-180C514.15,-180 798.19,-180 926.89,-180"/>
<polygon fill="black" stroke="black" points="926.59,-183.5 936.59,-180 926.59,-176.5 926.59,-183.5"/>
</g>
<!-- 24 -->
<!-- name: &quot;string&quot;, typeName: &quot;&quot;, id: 24, branchId: 0, recurseId: &#45;1, attributes: 512, notes: &quot;&quot; -->
<g id="node19" class="node">
<title>24</title>
<ellipse fill="none" stroke="black" cx="993.09" cy="-126" rx="31.9" ry="18"/>
<text text-anchor="middle" x="993.09" y="-120.95" font-family="Times New Roman,serif" font-size="14.00">string</text>
</g>
<!-- 23&#45;&gt;24 -->
<g id="edge18" class="edge">
<title>23&#45;&gt;24</title>
<path fill="none" stroke="black" d="M615.78,-130.4C701.2,-129.4 870.38,-127.42 949.47,-126.5"/>
<polygon fill="black" stroke="black" points="949.44,-130 959.4,-126.38 949.36,-123 949.44,-130"/>
</g>
<!-- 26 -->
<!-- name: &quot;varint&quot;, typeName: &quot;&quot;, id: 26, branchId: 0, recurseId: &#45;1, attributes: 512, notes: &quot;&quot; -->
<g id="node21" class="node">
<title>26</title>
<ellipse fill="none" stroke="black" cx="993.09" cy="-72" rx="32.41" ry="18"/>
<text text-anchor="middle" x="993.09" y="-66.95" font-family="Times New Roman,serif" font-size="14.00">varint</text>
</g>
<!-- 25&#45;&gt;26 -->
<g id="edge20" class="edge">
<title>25&#45;&gt;26</title>
<path fill="none" stroke="black" d="M789.88,-74.52C833.24,-73.98 903.63,-73.1 948.88,-72.54"/>
<polygon fill="black" stroke="black" points="948.9,-76.04 958.85,-72.41 948.81,-69.04 948.9,-76.04"/>
</g>
<!-- 28 -->
<!-- name: &quot;RecipeUnlockingRequirement&quot;, typeName: &quot;&quot;, id: 28, branchId: 0, recurseId: &#45;1, attributes: 512, notes: &quot;&quot; -->
<g id="node23" class="node">
<title>28</title>
<ellipse fill="none" stroke="black" cx="993.09" cy="-18" rx="123.52" ry="18"/>
<text text-anchor="middle" x="993.09" y="-12.95" font-family="Times New Roman,serif" font-size="14.00">RecipeUnlockingRequirement</text>
</g>
<!-- 27&#45;&gt;28 -->
<g id="edge22" class="edge">
<title>27&#45;&gt;28</title>
<path fill="none" stroke="black" d="M452.68,-20.53C561.82,-20.02 737.22,-19.2 858.22,-18.63"/>
<polygon fill="black" stroke="black" points="857.9,-22.13 867.88,-18.58 857.86,-15.13 857.9,-22.13"/>
</g>
</g>
</svg>
