<?xml version="1.0" encoding="UTF-8" standalone="no"?>
<!DOCTYPE svg PUBLIC "-//W3C//DTD SVG 1.1//EN"
 "http://www.w3.org/Graphics/SVG/1.1/DTD/svg11.dtd">
<!-- Generated by graphviz version 14.1.5 (20260411.2331)
 -->
<!-- Title: VoxelShapes::SerializableVoxelShape Pages: 1 -->
<svg width="1020pt" height="577pt"
 viewBox="0.00 0.00 1020.00 577.00" xmlns="http://www.w3.org/2000/svg" xmlns:xlink="http://www.w3.org/1999/xlink">
<g id="graph0" class="graph" transform="scale(1 1) rotate(0) translate(4 573)">
<title>VoxelShapes::SerializableVoxelShape</title>
<polygon fill="white" stroke="none" points="-4,4 -4,-573 1015.69,-573 1015.69,4 -4,4"/>
<!-- 0 -->
<!-- name: &quot;VoxelShapes::SerializableVoxelShape&quot;, typeName: &quot;&quot;, id: 0, branchId: 0, recurseId: &#45;1, attributes: 0, notes: &quot;&quot; -->
<g id="node1" class="node">
<title>0</title>
<ellipse fill="none" stroke="black" cx="151.15" cy="-205" rx="151.15" ry="18"/>
<text xml:space="preserve" text-anchor="middle" x="151.15" y="-199.95" font-family="Times New Roman,serif" font-size="14.00">VoxelShapes::SerializableVoxelShape</text>
</g>
<!-- 1 -->
<!-- name: &quot;Cells&quot;, typeName: &quot;&quot;, id: 1, branchId: 0, recurseId: &#45;1, attributes: 0, notes: &quot;Grid of cells representing solid and empty regions&quot; -->
<g id="node2" class="node">
<title>1</title>
<ellipse fill="none" stroke="black" cx="402.97" cy="-443" rx="29.86" ry="18"/>
<text xml:space="preserve" text-anchor="middle" x="402.97" y="-437.95" font-family="Times New Roman,serif" font-size="14.00">Cells</text>
</g>
<!-- 0&#45;&gt;1 -->
<g id="edge1" class="edge">
<title>0&#45;&gt;1</title>
<path fill="none" stroke="black" d="M171.34,-223.28C216.29,-266.1 328.31,-372.83 377.8,-419.98"/>
<polygon fill="black" stroke="black" points="375.26,-422.39 384.92,-426.76 380.09,-417.33 375.26,-422.39"/>
</g>
<!-- 13 -->
<!-- name: &quot;X Coordinates&quot;, typeName: &quot;&quot;, id: 13, branchId: 0, recurseId: &#45;1, attributes: 0, notes: &quot;Cell boundaries along the X axis&quot; -->
<g id="node14" class="node">
<title>13</title>
<ellipse fill="none" stroke="black" cx="402.97" cy="-232" rx="64.66" ry="18"/>
<text xml:space="preserve" text-anchor="middle" x="402.97" y="-226.95" font-family="Times New Roman,serif" font-size="14.00">X Coordinates</text>
</g>
<!-- 0&#45;&gt;13 -->
<g id="edge13" class="edge">
<title>0&#45;&gt;13</title>
<path fill="none" stroke="black" d="M265,-217.2C287.48,-219.63 310.47,-222.11 331.05,-224.34"/>
<polygon fill="black" stroke="black" points="330.4,-227.78 340.71,-225.38 331.15,-220.83 330.4,-227.78"/>
</g>
<!-- 18 -->
<!-- name: &quot;Y Coordinates&quot;, typeName: &quot;&quot;, id: 18, branchId: 0, recurseId: &#45;1, attributes: 0, notes: &quot;Cell boundaries along the Y axis&quot; -->
<g id="node19" class="node">
<title>18</title>
<ellipse fill="none" stroke="black" cx="402.97" cy="-178" rx="64.66" ry="18"/>
<text xml:space="preserve" text-anchor="middle" x="402.97" y="-172.95" font-family="Times New Roman,serif" font-size="14.00">Y Coordinates</text>
</g>
<!-- 0&#45;&gt;18 -->
<g id="edge18" class="edge">
<title>0&#45;&gt;18</title>
<path fill="none" stroke="black" d="M265,-192.8C287.48,-190.37 310.47,-187.89 331.05,-185.66"/>
<polygon fill="black" stroke="black" points="331.15,-189.17 340.71,-184.62 330.4,-182.22 331.15,-189.17"/>
</g>
<!-- 23 -->
<!-- name: &quot;Z Coordinates&quot;, typeName: &quot;&quot;, id: 23, branchId: 0, recurseId: &#45;1, attributes: 0, notes: &quot;Cell boundaries along the Z axis&quot; -->
<g id="node24" class="node">
<title>23</title>
<ellipse fill="none" stroke="black" cx="402.97" cy="-72" rx="63.63" ry="18"/>
<text xml:space="preserve" text-anchor="middle" x="402.97" y="-66.95" font-family="Times New Roman,serif" font-size="14.00">Z Coordinates</text>
</g>
<!-- 0&#45;&gt;23 -->
<g id="edge23" class="edge">
<title>0&#45;&gt;23</title>
<path fill="none" stroke="black" d="M185.84,-187.06C231.6,-162.7 313.26,-119.23 362.04,-93.26"/>
<polygon fill="black" stroke="black" points="363.41,-96.49 370.59,-88.7 360.12,-90.31 363.41,-96.49"/>
</g>
<!-- 2 -->
<!-- name: &quot;X Size&quot;, typeName: &quot;&quot;, id: 2, branchId: 0, recurseId: &#45;1, attributes: 0, notes: &quot;Number of cells along the X axis&quot; -->
<g id="node3" class="node">
<title>2</title>
<ellipse fill="none" stroke="black" cx="764.31" cy="-548" rx="36" ry="18"/>
<text xml:space="preserve" text-anchor="middle" x="764.31" y="-542.95" font-family="Times New Roman,serif" font-size="14.00">X Size</text>
</g>
<!-- 1&#45;&gt;2 -->
<g id="edge2" class="edge">
<title>1&#45;&gt;2</title>
<path fill="none" stroke="black" d="M418.48,-458.53C436.51,-476.72 469.14,-506.12 503.62,-520 574.02,-548.33 663.35,-551.59 716.77,-550.45"/>
<polygon fill="black" stroke="black" points="716.85,-553.94 726.74,-550.16 716.65,-546.95 716.85,-553.94"/>
</g>
<!-- 4 -->
<!-- name: &quot;Y Size&quot;, typeName: &quot;&quot;, id: 4, branchId: 0, recurseId: &#45;1, attributes: 0, notes: &quot;Number of cells along the Y axis&quot; -->
<g id="node5" class="node">
<title>4</title>
<ellipse fill="none" stroke="black" cx="578.52" cy="-493" rx="36" ry="18"/>
<text xml:space="preserve" text-anchor="middle" x="578.52" y="-487.95" font-family="Times New Roman,serif" font-size="14.00">Y Size</text>
</g>
<!-- 1&#45;&gt;4 -->
<g id="edge4" class="edge">
<title>1&#45;&gt;4</title>
<path fill="none" stroke="black" d="M430.33,-450.59C458.32,-458.66 502.96,-471.52 535.75,-480.97"/>
<polygon fill="black" stroke="black" points="534.77,-484.33 545.35,-483.73 536.71,-477.6 534.77,-484.33"/>
</g>
<!-- 6 -->
<!-- name: &quot;Z Size&quot;, typeName: &quot;&quot;, id: 6, branchId: 0, recurseId: &#45;1, attributes: 0, notes: &quot;Number of cells along the Z axis&quot; -->
<g id="node7" class="node">
<title>6</title>
<ellipse fill="none" stroke="black" cx="764.31" cy="-443" rx="34.97" ry="18"/>
<text xml:space="preserve" text-anchor="middle" x="764.31" y="-437.95" font-family="Times New Roman,serif" font-size="14.00">Z Size</text>
</g>
<!-- 1&#45;&gt;6 -->
<g id="edge6" class="edge">
<title>1&#45;&gt;6</title>
<path fill="none" stroke="black" d="M433.07,-443C495.48,-443 642.59,-443 717.6,-443"/>
<polygon fill="black" stroke="black" points="717.48,-446.5 727.48,-443 717.48,-439.5 717.48,-446.5"/>
</g>
<!-- 8 -->
<!-- name: &quot;Storage&quot;, typeName: &quot;&quot;, id: 8, branchId: 0, recurseId: &#45;1, attributes: 0, notes: &quot;Solid/empty state per cell&quot; -->
<g id="node9" class="node">
<title>8</title>
<ellipse fill="none" stroke="black" cx="578.52" cy="-389" rx="39.07" ry="18"/>
<text xml:space="preserve" text-anchor="middle" x="578.52" y="-383.95" font-family="Times New Roman,serif" font-size="14.00">Storage</text>
</g>
<!-- 1&#45;&gt;8 -->
<g id="edge8" class="edge">
<title>1&#45;&gt;8</title>
<path fill="none" stroke="black" d="M429.95,-434.92C457.65,-426.3 501.95,-412.51 534.79,-402.3"/>
<polygon fill="black" stroke="black" points="535.49,-405.74 544,-399.43 533.41,-399.06 535.49,-405.74"/>
</g>
<!-- 3 -->
<!-- name: &quot;unsigned byte&quot;, typeName: &quot;&quot;, id: 3, branchId: 0, recurseId: &#45;1, attributes: 512, notes: &quot;Number of cells along the X axis&quot; -->
<g id="node4" class="node">
<title>3</title>
<ellipse fill="none" stroke="black" cx="943.44" cy="-551" rx="62.61" ry="18"/>
<text xml:space="preserve" text-anchor="middle" x="943.44" y="-545.95" font-family="Times New Roman,serif" font-size="14.00">unsigned byte</text>
</g>
<!-- 2&#45;&gt;3 -->
<g id="edge3" class="edge">
<title>2&#45;&gt;3</title>
<path fill="none" stroke="black" d="M800.73,-548.6C820.34,-548.93 845.46,-549.36 869.1,-549.76"/>
<polygon fill="black" stroke="black" points="868.98,-553.26 879.03,-549.93 869.09,-546.26 868.98,-553.26"/>
</g>
<!-- 5 -->
<!-- name: &quot;unsigned byte&quot;, typeName: &quot;&quot;, id: 5, branchId: 0, recurseId: &#45;1, attributes: 512, notes: &quot;Number of cells along the Y axis&quot; -->
<g id="node6" class="node">
<title>5</title>
<ellipse fill="none" stroke="black" cx="943.44" cy="-497" rx="62.61" ry="18"/>
<text xml:space="preserve" text-anchor="middle" x="943.44" y="-491.95" font-family="Times New Roman,serif" font-size="14.00">unsigned byte</text>
</g>
<!-- 4&#45;&gt;5 -->
<g id="edge5" class="edge">
<title>4&#45;&gt;5</title>
<path fill="none" stroke="black" d="M614.98,-493.39C673.71,-494.04 792.36,-495.35 869.55,-496.2"/>
<polygon fill="black" stroke="black" points="869.08,-499.69 879.11,-496.3 869.15,-492.69 869.08,-499.69"/>
</g>
<!-- 7 -->
<!-- name: &quot;unsigned byte&quot;, typeName: &quot;&quot;, id: 7, branchId: 0, recurseId: &#45;1, attributes: 512, notes: &quot;Number of cells along the Z axis&quot; -->
<g id="node8" class="node">
<title>7</title>
<ellipse fill="none" stroke="black" cx="943.44" cy="-443" rx="62.61" ry="18"/>
<text xml:space="preserve" text-anchor="middle" x="943.44" y="-437.95" font-family="Times New Roman,serif" font-size="14.00">unsigned byte</text>
</g>
<!-- 6&#45;&gt;7 -->
<g id="edge7" class="edge">
<title>6&#45;&gt;7</title>
<path fill="none" stroke="black" d="M799.46,-443C819.25,-443 844.95,-443 869.1,-443"/>
<polygon fill="black" stroke="black" points="868.92,-446.5 878.92,-443 868.92,-439.5 868.92,-446.5"/>
</g>
<!-- 9 -->
<!-- name: &quot;List Size&quot;, typeName: &quot;&quot;, id: 9, branchId: 0, recurseId: &#45;1, attributes: 0, notes: &quot;&quot; -->
<g id="node10" class="node">
<title>9</title>
<ellipse fill="none" stroke="black" cx="764.31" cy="-389" rx="43.67" ry="18"/>
<text xml:space="preserve" text-anchor="middle" x="764.31" y="-383.95" font-family="Times New Roman,serif" font-size="14.00">List Size</text>
</g>
<!-- 8&#45;&gt;9 -->
<g id="edge9" class="edge">
<title>8&#45;&gt;9</title>
<path fill="none" stroke="black" d="M618.05,-389C644.44,-389 679.81,-389 709.05,-389"/>
<polygon fill="black" stroke="black" points="708.82,-392.5 718.82,-389 708.82,-385.5 708.82,-392.5"/>
</g>
<!-- 11 -->
<!-- name: &quot;example element&quot;, typeName: &quot;&quot;, id: 11, branchId: 0, recurseId: &#45;1, attributes: 16, notes: &quot;&quot; -->
<g id="node12" class="node">
<title>11</title>
<ellipse fill="none" stroke="black" stroke-dasharray="1,5" cx="764.31" cy="-335" rx="74.89" ry="18"/>
<text xml:space="preserve" text-anchor="middle" x="764.31" y="-329.95" font-family="Times New Roman,serif" font-size="14.00">example element</text>
</g>
<!-- 8&#45;&gt;11 -->
<g id="edge11" class="edge">
<title>8&#45;&gt;11</title>
<path fill="none" stroke="black" d="M611.95,-379.47C637.56,-371.95 673.96,-361.25 704.65,-352.24"/>
<polygon fill="black" stroke="black" points="705.61,-355.6 714.21,-349.42 703.63,-348.89 705.61,-355.6"/>
</g>
<!-- 10 -->
<!-- name: &quot;unsigned varint&quot;, typeName: &quot;&quot;, id: 10, branchId: 0, recurseId: &#45;1, attributes: 0, notes: &quot;&quot; -->
<g id="node11" class="node">
<title>10</title>
<ellipse fill="none" stroke="black" cx="943.44" cy="-389" rx="68.24" ry="18"/>
<text xml:space="preserve" text-anchor="middle" x="943.44" y="-383.95" font-family="Times New Roman,serif" font-size="14.00">unsigned varint</text>
</g>
<!-- 9&#45;&gt;10 -->
<g id="edge10" class="edge">
<title>9&#45;&gt;10</title>
<path fill="none" stroke="black" d="M808.19,-389C824.8,-389 844.37,-389 863.35,-389"/>
<polygon fill="black" stroke="black" points="863.22,-392.5 873.22,-389 863.22,-385.5 863.22,-392.5"/>
</g>
<!-- 12 -->
<!-- name: &quot;unsigned byte&quot;, typeName: &quot;&quot;, id: 12, branchId: 0, recurseId: &#45;1, attributes: 512, notes: &quot;&quot; -->
<g id="node13" class="node">
<title>12</title>
<ellipse fill="none" stroke="black" cx="943.44" cy="-335" rx="62.61" ry="18"/>
<text xml:space="preserve" text-anchor="middle" x="943.44" y="-329.95" font-family="Times New Roman,serif" font-size="14.00">unsigned byte</text>
</g>
<!-- 11&#45;&gt;12 -->
<g id="edge12" class="edge">
<title>11&#45;&gt;12</title>
<path fill="none" stroke="black" d="M839.66,-335C849.46,-335 859.5,-335 869.28,-335"/>
<polygon fill="black" stroke="black" points="869.09,-338.5 879.09,-335 869.09,-331.5 869.09,-338.5"/>
</g>
<!-- 14 -->
<!-- name: &quot;List Size&quot;, typeName: &quot;&quot;, id: 14, branchId: 0, recurseId: &#45;1, attributes: 0, notes: &quot;&quot; -->
<g id="node15" class="node">
<title>14</title>
<ellipse fill="none" stroke="black" cx="578.52" cy="-278" rx="43.67" ry="18"/>
<text xml:space="preserve" text-anchor="middle" x="578.52" y="-272.95" font-family="Times New Roman,serif" font-size="14.00">List Size</text>
</g>
<!-- 13&#45;&gt;14 -->
<g id="edge14" class="edge">
<title>13&#45;&gt;14</title>
<path fill="none" stroke="black" d="M450.93,-244.45C475.48,-250.96 505.46,-258.9 530.08,-265.43"/>
<polygon fill="black" stroke="black" points="528.95,-268.75 539.51,-267.93 530.74,-261.98 528.95,-268.75"/>
</g>
<!-- 16 -->
<!-- name: &quot;example element&quot;, typeName: &quot;&quot;, id: 16, branchId: 0, recurseId: &#45;1, attributes: 16, notes: &quot;&quot; -->
<g id="node17" class="node">
<title>16</title>
<ellipse fill="none" stroke="black" stroke-dasharray="1,5" cx="764.31" cy="-227" rx="74.89" ry="18"/>
<text xml:space="preserve" text-anchor="middle" x="764.31" y="-221.95" font-family="Times New Roman,serif" font-size="14.00">example element</text>
</g>
<!-- 13&#45;&gt;16 -->
<g id="edge16" class="edge">
<title>13&#45;&gt;16</title>
<path fill="none" stroke="black" d="M467.8,-231.11C526.3,-230.3 613.37,-229.09 677.86,-228.19"/>
<polygon fill="black" stroke="black" points="677.75,-231.69 687.7,-228.05 677.66,-224.69 677.75,-231.69"/>
</g>
<!-- 15 -->
<!-- name: &quot;unsigned varint&quot;, typeName: &quot;&quot;, id: 15, branchId: 0, recurseId: &#45;1, attributes: 0, notes: &quot;&quot; -->
<g id="node16" class="node">
<title>15</title>
<ellipse fill="none" stroke="black" cx="764.31" cy="-281" rx="68.24" ry="18"/>
<text xml:space="preserve" text-anchor="middle" x="764.31" y="-275.95" font-family="Times New Roman,serif" font-size="14.00">unsigned varint</text>
</g>
<!-- 14&#45;&gt;15 -->
<g id="edge15" class="edge">
<title>14&#45;&gt;15</title>
<path fill="none" stroke="black" d="M622.61,-278.7C641.14,-279.01 663.39,-279.37 684.68,-279.72"/>
<polygon fill="black" stroke="black" points="684.46,-283.21 694.52,-279.88 684.58,-276.21 684.46,-283.21"/>
</g>
<!-- 17 -->
<!-- name: &quot;float&quot;, typeName: &quot;&quot;, id: 17, branchId: 0, recurseId: &#45;1, attributes: 512, notes: &quot;&quot; -->
<g id="node18" class="node">
<title>17</title>
<ellipse fill="none" stroke="black" cx="943.44" cy="-227" rx="27.81" ry="18"/>
<text xml:space="preserve" text-anchor="middle" x="943.44" y="-221.95" font-family="Times New Roman,serif" font-size="14.00">float</text>
</g>
<!-- 16&#45;&gt;17 -->
<g id="edge17" class="edge">
<title>16&#45;&gt;17</title>
<path fill="none" stroke="black" d="M839.66,-227C861.82,-227 885.2,-227 904.06,-227"/>
<polygon fill="black" stroke="black" points="903.93,-230.5 913.93,-227 903.93,-223.5 903.93,-230.5"/>
</g>
<!-- 19 -->
<!-- name: &quot;List Size&quot;, typeName: &quot;&quot;, id: 19, branchId: 0, recurseId: &#45;1, attributes: 0, notes: &quot;&quot; -->
<g id="node20" class="node">
<title>19</title>
<ellipse fill="none" stroke="black" cx="578.52" cy="-180" rx="43.67" ry="18"/>
<text xml:space="preserve" text-anchor="middle" x="578.52" y="-174.95" font-family="Times New Roman,serif" font-size="14.00">List Size</text>
</g>
<!-- 18&#45;&gt;19 -->
<g id="edge19" class="edge">
<title>18&#45;&gt;19</title>
<path fill="none" stroke="black" d="M467.61,-178.73C485.77,-178.94 505.4,-179.17 522.97,-179.37"/>
<polygon fill="black" stroke="black" points="522.92,-182.87 532.96,-179.49 523,-175.87 522.92,-182.87"/>
</g>
<!-- 21 -->
<!-- name: &quot;example element&quot;, typeName: &quot;&quot;, id: 21, branchId: 0, recurseId: &#45;1, attributes: 16, notes: &quot;&quot; -->
<g id="node22" class="node">
<title>21</title>
<ellipse fill="none" stroke="black" stroke-dasharray="1,5" cx="578.52" cy="-126" rx="74.89" ry="18"/>
<text xml:space="preserve" text-anchor="middle" x="578.52" y="-120.95" font-family="Times New Roman,serif" font-size="14.00">example element</text>
</g>
<!-- 18&#45;&gt;21 -->
<g id="edge21" class="edge">
<title>18&#45;&gt;21</title>
<path fill="none" stroke="black" d="M448.21,-164.74C469.88,-158.25 496.26,-150.35 519.53,-143.38"/>
<polygon fill="black" stroke="black" points="520.29,-146.8 528.87,-140.58 518.28,-140.1 520.29,-146.8"/>
</g>
<!-- 20 -->
<!-- name: &quot;unsigned varint&quot;, typeName: &quot;&quot;, id: 20, branchId: 0, recurseId: &#45;1, attributes: 0, notes: &quot;&quot; -->
<g id="node21" class="node">
<title>20</title>
<ellipse fill="none" stroke="black" cx="764.31" cy="-173" rx="68.24" ry="18"/>
<text xml:space="preserve" text-anchor="middle" x="764.31" y="-167.95" font-family="Times New Roman,serif" font-size="14.00">unsigned varint</text>
</g>
<!-- 19&#45;&gt;20 -->
<g id="edge20" class="edge">
<title>19&#45;&gt;20</title>
<path fill="none" stroke="black" d="M622.15,-178.38C640.84,-177.66 663.4,-176.81 684.95,-175.98"/>
<polygon fill="black" stroke="black" points="685.06,-179.48 694.92,-175.6 684.8,-172.49 685.06,-179.48"/>
</g>
<!-- 22 -->
<!-- name: &quot;float&quot;, typeName: &quot;&quot;, id: 22, branchId: 0, recurseId: &#45;1, attributes: 512, notes: &quot;&quot; -->
<g id="node23" class="node">
<title>22</title>
<ellipse fill="none" stroke="black" cx="943.44" cy="-126" rx="27.81" ry="18"/>
<text xml:space="preserve" text-anchor="middle" x="943.44" y="-120.95" font-family="Times New Roman,serif" font-size="14.00">float</text>
</g>
<!-- 21&#45;&gt;22 -->
<g id="edge22" class="edge">
<title>21&#45;&gt;22</title>
<path fill="none" stroke="black" d="M653.84,-126C729.7,-126 844.48,-126 903.84,-126"/>
<polygon fill="black" stroke="black" points="903.78,-129.5 913.78,-126 903.78,-122.5 903.78,-129.5"/>
</g>
<!-- 24 -->
<!-- name: &quot;List Size&quot;, typeName: &quot;&quot;, id: 24, branchId: 0, recurseId: &#45;1, attributes: 0, notes: &quot;&quot; -->
<g id="node25" class="node">
<title>24</title>
<ellipse fill="none" stroke="black" cx="578.52" cy="-72" rx="43.67" ry="18"/>
<text xml:space="preserve" text-anchor="middle" x="578.52" y="-66.95" font-family="Times New Roman,serif" font-size="14.00">List Size</text>
</g>
<!-- 23&#45;&gt;24 -->
<g id="edge24" class="edge">
<title>23&#45;&gt;24</title>
<path fill="none" stroke="black" d="M466.62,-72C485.1,-72 505.16,-72 523.08,-72"/>
<polygon fill="black" stroke="black" points="522.99,-75.5 532.99,-72 522.99,-68.5 522.99,-75.5"/>
</g>
<!-- 26 -->
<!-- name: &quot;example element&quot;, typeName: &quot;&quot;, id: 26, branchId: 0, recurseId: &#45;1, attributes: 16, notes: &quot;&quot; -->
<g id="node27" class="node">
<title>26</title>
<ellipse fill="none" stroke="black" stroke-dasharray="1,5" cx="578.52" cy="-18" rx="74.89" ry="18"/>
<text xml:space="preserve" text-anchor="middle" x="578.52" y="-12.95" font-family="Times New Roman,serif" font-size="14.00">example element</text>
</g>
<!-- 23&#45;&gt;26 -->
<g id="edge26" class="edge">
<title>23&#45;&gt;26</title>
<path fill="none" stroke="black" d="M446.87,-58.65C469.15,-51.72 496.67,-43.15 520.7,-35.68"/>
<polygon fill="black" stroke="black" points="521.51,-39.09 530.02,-32.78 519.43,-32.41 521.51,-39.09"/>
</g>
<!-- 25 -->
<!-- name: &quot;unsigned varint&quot;, typeName: &quot;&quot;, id: 25, branchId: 0, recurseId: &#45;1, attributes: 0, notes: &quot;&quot; -->
<g id="node26" class="node">
<title>25</title>
<ellipse fill="none" stroke="black" cx="764.31" cy="-72" rx="68.24" ry="18"/>
<text xml:space="preserve" text-anchor="middle" x="764.31" y="-66.95" font-family="Times New Roman,serif" font-size="14.00">unsigned varint</text>
</g>
<!-- 24&#45;&gt;25 -->
<g id="edge25" class="edge">
<title>24&#45;&gt;25</title>
<path fill="none" stroke="black" d="M622.61,-72C641.05,-72 663.18,-72 684.37,-72"/>
<polygon fill="black" stroke="black" points="684.16,-75.5 694.16,-72 684.16,-68.5 684.16,-75.5"/>
</g>
<!-- 27 -->
<!-- name: &quot;float&quot;, typeName: &quot;&quot;, id: 27, branchId: 0, recurseId: &#45;1, attributes: 512, notes: &quot;&quot; -->
<g id="node28" class="node">
<title>27</title>
<ellipse fill="none" stroke="black" cx="943.44" cy="-18" rx="27.81" ry="18"/>
<text xml:space="preserve" text-anchor="middle" x="943.44" y="-12.95" font-family="Times New Roman,serif" font-size="14.00">float</text>
</g>
<!-- 26&#45;&gt;27 -->
<g id="edge27" class="edge">
<title>26&#45;&gt;27</title>
<path fill="none" stroke="black" d="M653.84,-18C729.7,-18 844.48,-18 903.84,-18"/>
<polygon fill="black" stroke="black" points="903.78,-21.5 913.78,-18 903.78,-14.5 903.78,-21.5"/>
</g>
</g>
</svg>
