<?xml version="1.0" encoding="UTF-8" standalone="no"?>
<!DOCTYPE svg PUBLIC "-//W3C//DTD SVG 1.1//EN"
 "http://www.w3.org/Graphics/SVG/1.1/DTD/svg11.dtd">
<!-- Generated by graphviz version 14.1.5 (20260411.2331)
 -->
<!-- Title: WaypointGroup::WaypointHandle Pages: 1 -->
<svg width="774pt" height="98pt"
 viewBox="0.00 0.00 774.00 98.00" xmlns="http://www.w3.org/2000/svg" xmlns:xlink="http://www.w3.org/1999/xlink">
<g id="graph0" class="graph" transform="scale(1 1) rotate(0) translate(4 94)">
<title>WaypointGroup::WaypointHandle</title>
<polygon fill="white" stroke="none" points="-4,4 -4,-94 769.5,-94 769.5,4 -4,4"/>
<!-- 0 -->
<!-- name: &quot;WaypointGroup::WaypointHandle&quot;, typeName: &quot;&quot;, id: 0, branchId: 0, recurseId: &#45;1, attributes: 0, notes: &quot;&quot; -->
<g id="node1" class="node">
<title>0</title>
<ellipse fill="none" stroke="black" cx="137.85" cy="-45" rx="137.85" ry="18"/>
<text xml:space="preserve" text-anchor="middle" x="137.85" y="-39.95" font-family="Times New Roman,serif" font-size="14.00">WaypointGroup::WaypointHandle</text>
</g>
<!-- 1 -->
<!-- name: &quot;UUID&quot;, typeName: &quot;&quot;, id: 1, branchId: 0, recurseId: &#45;1, attributes: 0, notes: &quot;mce::UUID used to lookup Waypoint in WaypointGroups.&quot; -->
<g id="node2" class="node">
<title>1</title>
<ellipse fill="none" stroke="black" cx="345.64" cy="-45" rx="33.95" ry="18"/>
<text xml:space="preserve" text-anchor="middle" x="345.64" y="-39.95" font-family="Times New Roman,serif" font-size="14.00">UUID</text>
</g>
<!-- 0&#45;&gt;1 -->
<g id="edge1" class="edge">
<title>0&#45;&gt;1</title>
<path fill="none" stroke="black" d="M276.12,-45C284.44,-45 292.42,-45 299.8,-45"/>
<polygon fill="black" stroke="black" points="299.74,-48.5 309.74,-45 299.74,-41.5 299.74,-48.5"/>
</g>
<!-- 2 -->
<!-- name: &quot;Most Significant Bits&quot;, typeName: &quot;&quot;, id: 2, branchId: 0, recurseId: &#45;1, attributes: 0, notes: &quot;&quot; -->
<g id="node3" class="node">
<title>2</title>
<ellipse fill="none" stroke="black" cx="506.87" cy="-72" rx="90.76" ry="18"/>
<text xml:space="preserve" text-anchor="middle" x="506.87" y="-66.95" font-family="Times New Roman,serif" font-size="14.00">Most Significant Bits</text>
</g>
<!-- 1&#45;&gt;2 -->
<g id="edge2" class="edge">
<title>1&#45;&gt;2</title>
<path fill="none" stroke="black" d="M378.48,-50.4C392.18,-52.72 408.87,-55.55 425.6,-58.39"/>
<polygon fill="black" stroke="black" points="424.64,-61.78 435.08,-60 425.81,-54.87 424.64,-61.78"/>
</g>
<!-- 4 -->
<!-- name: &quot;Least Significant Bits&quot;, typeName: &quot;&quot;, id: 4, branchId: 0, recurseId: &#45;1, attributes: 0, notes: &quot;&quot; -->
<g id="node5" class="node">
<title>4</title>
<ellipse fill="none" stroke="black" cx="506.87" cy="-18" rx="91.27" ry="18"/>
<text xml:space="preserve" text-anchor="middle" x="506.87" y="-12.95" font-family="Times New Roman,serif" font-size="14.00">Least Significant Bits</text>
</g>
<!-- 1&#45;&gt;4 -->
<g id="edge4" class="edge">
<title>1&#45;&gt;4</title>
<path fill="none" stroke="black" d="M378.48,-39.6C392.11,-37.29 408.69,-34.48 425.33,-31.66"/>
<polygon fill="black" stroke="black" points="425.48,-35.18 434.75,-30.06 424.3,-28.28 425.48,-35.18"/>
</g>
<!-- 3 -->
<!-- name: &quot;unsigned int64&quot;, typeName: &quot;&quot;, id: 3, branchId: 0, recurseId: &#45;1, attributes: 512, notes: &quot;&quot; -->
<g id="node4" class="node">
<title>3</title>
<ellipse fill="none" stroke="black" cx="699.82" cy="-72" rx="65.68" ry="18"/>
<text xml:space="preserve" text-anchor="middle" x="699.82" y="-66.95" font-family="Times New Roman,serif" font-size="14.00">unsigned int64</text>
</g>
<!-- 2&#45;&gt;3 -->
<g id="edge3" class="edge">
<title>2&#45;&gt;3</title>
<path fill="none" stroke="black" d="M598.03,-72C606.24,-72 614.49,-72 622.56,-72"/>
<polygon fill="black" stroke="black" points="622.3,-75.5 632.3,-72 622.3,-68.5 622.3,-75.5"/>
</g>
<!-- 5 -->
<!-- name: &quot;unsigned int64&quot;, typeName: &quot;&quot;, id: 5, branchId: 0, recurseId: &#45;1, attributes: 512, notes: &quot;&quot; -->
<g id="node6" class="node">
<title>5</title>
<ellipse fill="none" stroke="black" cx="699.82" cy="-18" rx="65.68" ry="18"/>
<text xml:space="preserve" text-anchor="middle" x="699.82" y="-12.95" font-family="Times New Roman,serif" font-size="14.00">unsigned int64</text>
</g>
<!-- 4&#45;&gt;5 -->
<g id="edge5" class="edge">
<title>4&#45;&gt;5</title>
<path fill="none" stroke="black" d="M598.59,-18C606.54,-18 614.54,-18 622.36,-18"/>
<polygon fill="black" stroke="black" points="622.15,-21.5 632.15,-18 622.15,-14.5 622.15,-21.5"/>
</g>
</g>
</svg>
