<?xml version="1.0" encoding="UTF-8" standalone="no"?>
<!DOCTYPE svg PUBLIC "-//W3C//DTD SVG 1.1//EN"
 "http://www.w3.org/Graphics/SVG/1.1/DTD/svg11.dtd">
<!-- Generated by graphviz version 14.1.5 (20260411.2331)
 -->
<!-- Title: WhiskerScopeDataSummary Pages: 1 -->
<svg width="604pt" height="260pt"
 viewBox="0.00 0.00 604.00 260.00" xmlns="http://www.w3.org/2000/svg" xmlns:xlink="http://www.w3.org/1999/xlink">
<g id="graph0" class="graph" transform="scale(1 1) rotate(0) translate(4 256)">
<title>WhiskerScopeDataSummary</title>
<polygon fill="white" stroke="none" points="-4,4 -4,-256 600.09,-256 600.09,4 -4,4"/>
<!-- 0 -->
<!-- name: &quot;WhiskerScopeDataSummary&quot;, typeName: &quot;&quot;, id: 0, branchId: 0, recurseId: &#45;1, attributes: 0, notes: &quot;&quot; -->
<g id="node1" class="node">
<title>0</title>
<ellipse fill="none" stroke="black" cx="119.42" cy="-126" rx="119.42" ry="18"/>
<text xml:space="preserve" text-anchor="middle" x="119.42" y="-120.95" font-family="Times New Roman,serif" font-size="14.00">WhiskerScopeDataSummary</text>
</g>
<!-- 1 -->
<!-- name: &quot;Label&quot;, typeName: &quot;&quot;, id: 1, branchId: 0, recurseId: &#45;1, attributes: 0, notes: &quot;&quot; -->
<g id="node2" class="node">
<title>1</title>
<ellipse fill="none" stroke="black" cx="351.79" cy="-234" rx="31.9" ry="18"/>
<text xml:space="preserve" text-anchor="middle" x="351.79" y="-228.95" font-family="Times New Roman,serif" font-size="14.00">Label</text>
</g>
<!-- 0&#45;&gt;1 -->
<g id="edge1" class="edge">
<title>0&#45;&gt;1</title>
<path fill="none" stroke="black" d="M151.14,-143.77C181.85,-161.14 230.74,-187.71 274.84,-207 286.92,-212.28 300.38,-217.33 312.59,-221.6"/>
<polygon fill="black" stroke="black" points="311.33,-224.87 321.93,-224.8 313.6,-218.25 311.33,-224.87"/>
</g>
<!-- 3 -->
<!-- name: &quot;Indentation&quot;, typeName: &quot;&quot;, id: 3, branchId: 0, recurseId: &#45;1, attributes: 0, notes: &quot;&quot; -->
<g id="node4" class="node">
<title>3</title>
<ellipse fill="none" stroke="black" cx="351.79" cy="-180" rx="52.89" ry="18"/>
<text xml:space="preserve" text-anchor="middle" x="351.79" y="-174.95" font-family="Times New Roman,serif" font-size="14.00">Indentation</text>
</g>
<!-- 0&#45;&gt;3 -->
<g id="edge3" class="edge">
<title>0&#45;&gt;3</title>
<path fill="none" stroke="black" d="M185.82,-141.33C220.83,-149.54 263.45,-159.53 296.6,-167.3"/>
<polygon fill="black" stroke="black" points="295.44,-170.62 305.98,-169.5 297.04,-163.81 295.44,-170.62"/>
</g>
<!-- 5 -->
<!-- name: &quot;TotalHighCostNS&quot;, typeName: &quot;&quot;, id: 5, branchId: 0, recurseId: &#45;1, attributes: 0, notes: &quot;&quot; -->
<g id="node6" class="node">
<title>5</title>
<ellipse fill="none" stroke="black" cx="351.79" cy="-126" rx="76.94" ry="18"/>
<text xml:space="preserve" text-anchor="middle" x="351.79" y="-120.95" font-family="Times New Roman,serif" font-size="14.00">TotalHighCostNS</text>
</g>
<!-- 0&#45;&gt;5 -->
<g id="edge5" class="edge">
<title>0&#45;&gt;5</title>
<path fill="none" stroke="black" d="M239.32,-126C247.37,-126 255.4,-126 263.26,-126"/>
<polygon fill="black" stroke="black" points="263.09,-129.5 273.09,-126 263.09,-122.5 263.09,-129.5"/>
</g>
<!-- 7 -->
<!-- name: &quot;TotalMidCostNS&quot;, typeName: &quot;&quot;, id: 7, branchId: 0, recurseId: &#45;1, attributes: 0, notes: &quot;&quot; -->
<g id="node8" class="node">
<title>7</title>
<ellipse fill="none" stroke="black" cx="351.79" cy="-72" rx="74.38" ry="18"/>
<text xml:space="preserve" text-anchor="middle" x="351.79" y="-66.95" font-family="Times New Roman,serif" font-size="14.00">TotalMidCostNS</text>
</g>
<!-- 0&#45;&gt;7 -->
<g id="edge7" class="edge">
<title>0&#45;&gt;7</title>
<path fill="none" stroke="black" d="M185.82,-110.67C217.35,-103.28 255.05,-94.44 286.44,-87.08"/>
<polygon fill="black" stroke="black" points="286.85,-90.58 295.79,-84.89 285.25,-83.77 286.85,-90.58"/>
</g>
<!-- 9 -->
<!-- name: &quot;TotalLowCostNS&quot;, typeName: &quot;&quot;, id: 9, branchId: 0, recurseId: &#45;1, attributes: 0, notes: &quot;&quot; -->
<g id="node10" class="node">
<title>9</title>
<ellipse fill="none" stroke="black" cx="351.79" cy="-18" rx="75.41" ry="18"/>
<text xml:space="preserve" text-anchor="middle" x="351.79" y="-12.95" font-family="Times New Roman,serif" font-size="14.00">TotalLowCostNS</text>
</g>
<!-- 0&#45;&gt;9 -->
<g id="edge9" class="edge">
<title>0&#45;&gt;9</title>
<path fill="none" stroke="black" d="M151.14,-108.23C181.85,-90.86 230.74,-64.29 274.84,-45 281.56,-42.06 288.71,-39.19 295.84,-36.49"/>
<polygon fill="black" stroke="black" points="296.61,-39.94 304.78,-33.19 294.19,-33.37 296.61,-39.94"/>
</g>
<!-- 2 -->
<!-- name: &quot;string&quot;, typeName: &quot;&quot;, id: 2, branchId: 0, recurseId: &#45;1, attributes: 512, notes: &quot;&quot; -->
<g id="node3" class="node">
<title>2</title>
<ellipse fill="none" stroke="black" cx="530.41" cy="-234" rx="31.9" ry="18"/>
<text xml:space="preserve" text-anchor="middle" x="530.41" y="-228.95" font-family="Times New Roman,serif" font-size="14.00">string</text>
</g>
<!-- 1&#45;&gt;2 -->
<g id="edge2" class="edge">
<title>1&#45;&gt;2</title>
<path fill="none" stroke="black" d="M383.96,-234C412.62,-234 455.36,-234 487.1,-234"/>
<polygon fill="black" stroke="black" points="486.74,-237.5 496.74,-234 486.74,-230.5 486.74,-237.5"/>
</g>
<!-- 4 -->
<!-- name: &quot;string&quot;, typeName: &quot;&quot;, id: 4, branchId: 0, recurseId: &#45;1, attributes: 512, notes: &quot;&quot; -->
<g id="node5" class="node">
<title>4</title>
<ellipse fill="none" stroke="black" cx="530.41" cy="-180" rx="31.9" ry="18"/>
<text xml:space="preserve" text-anchor="middle" x="530.41" y="-174.95" font-family="Times New Roman,serif" font-size="14.00">string</text>
</g>
<!-- 3&#45;&gt;4 -->
<g id="edge4" class="edge">
<title>3&#45;&gt;4</title>
<path fill="none" stroke="black" d="M404.82,-180C431,-180 462.33,-180 487.02,-180"/>
<polygon fill="black" stroke="black" points="486.69,-183.5 496.69,-180 486.69,-176.5 486.69,-183.5"/>
</g>
<!-- 6 -->
<!-- name: &quot;unsigned int64&quot;, typeName: &quot;&quot;, id: 6, branchId: 0, recurseId: &#45;1, attributes: 512, notes: &quot;&quot; -->
<g id="node7" class="node">
<title>6</title>
<ellipse fill="none" stroke="black" cx="530.41" cy="-126" rx="65.68" ry="18"/>
<text xml:space="preserve" text-anchor="middle" x="530.41" y="-120.95" font-family="Times New Roman,serif" font-size="14.00">unsigned int64</text>
</g>
<!-- 5&#45;&gt;6 -->
<g id="edge6" class="edge">
<title>5&#45;&gt;6</title>
<path fill="none" stroke="black" d="M428.97,-126C436.88,-126 444.91,-126 452.82,-126"/>
<polygon fill="black" stroke="black" points="452.77,-129.5 462.77,-126 452.77,-122.5 452.77,-129.5"/>
</g>
<!-- 8 -->
<!-- name: &quot;unsigned int64&quot;, typeName: &quot;&quot;, id: 8, branchId: 0, recurseId: &#45;1, attributes: 512, notes: &quot;&quot; -->
<g id="node9" class="node">
<title>8</title>
<ellipse fill="none" stroke="black" cx="530.41" cy="-72" rx="65.68" ry="18"/>
<text xml:space="preserve" text-anchor="middle" x="530.41" y="-66.95" font-family="Times New Roman,serif" font-size="14.00">unsigned int64</text>
</g>
<!-- 7&#45;&gt;8 -->
<g id="edge8" class="edge">
<title>7&#45;&gt;8</title>
<path fill="none" stroke="black" d="M426.67,-72C435.34,-72 444.21,-72 452.92,-72"/>
<polygon fill="black" stroke="black" points="452.74,-75.5 462.74,-72 452.74,-68.5 452.74,-75.5"/>
</g>
<!-- 10 -->
<!-- name: &quot;unsigned int64&quot;, typeName: &quot;&quot;, id: 10, branchId: 0, recurseId: &#45;1, attributes: 512, notes: &quot;&quot; -->
<g id="node11" class="node">
<title>10</title>
<ellipse fill="none" stroke="black" cx="530.41" cy="-18" rx="65.68" ry="18"/>
<text xml:space="preserve" text-anchor="middle" x="530.41" y="-12.95" font-family="Times New Roman,serif" font-size="14.00">unsigned int64</text>
</g>
<!-- 9&#45;&gt;10 -->
<g id="edge10" class="edge">
<title>9&#45;&gt;10</title>
<path fill="none" stroke="black" d="M427.69,-18C436.09,-18 444.66,-18 453.08,-18"/>
<polygon fill="black" stroke="black" points="452.93,-21.5 462.93,-18 452.93,-14.5 452.93,-21.5"/>
</g>
</g>
</svg>
