<?xml version="1.0" encoding="UTF-8" standalone="no"?>
<!DOCTYPE svg PUBLIC "-//W3C//DTD SVG 1.1//EN"
 "http://www.w3.org/Graphics/SVG/1.1/DTD/svg11.dtd">
<!-- Generated by graphviz version 14.1.5 (20260411.2331)
 -->
<!-- Title: WorldPosition Pages: 1 -->
<svg width="511pt" height="206pt"
 viewBox="0.00 0.00 511.00 206.00" xmlns="http://www.w3.org/2000/svg" xmlns:xlink="http://www.w3.org/1999/xlink">
<g id="graph0" class="graph" transform="scale(1 1) rotate(0) translate(4 202)">
<title>WorldPosition</title>
<polygon fill="white" stroke="none" points="-4,4 -4,-202 507.46,-202 507.46,4 -4,4"/>
<!-- 0 -->
<!-- name: &quot;WorldPosition&quot;, typeName: &quot;&quot;, id: 0, branchId: 0, recurseId: &#45;1, attributes: 0, notes: &quot;&quot; -->
<g id="node1" class="node">
<title>0</title>
<ellipse fill="none" stroke="black" cx="64.15" cy="-72" rx="64.15" ry="18"/>
<text xml:space="preserve" text-anchor="middle" x="64.15" y="-66.95" font-family="Times New Roman,serif" font-size="14.00">WorldPosition</text>
</g>
<!-- 1 -->
<!-- name: &quot;Position&quot;, typeName: &quot;&quot;, id: 1, branchId: 0, recurseId: &#45;1, attributes: 0, notes: &quot;The Vec3 position in the dimension.&quot; -->
<g id="node2" class="node">
<title>1</title>
<ellipse fill="none" stroke="black" cx="234.58" cy="-112" rx="41.12" ry="18"/>
<text xml:space="preserve" text-anchor="middle" x="234.58" y="-106.95" font-family="Times New Roman,serif" font-size="14.00">Position</text>
</g>
<!-- 0&#45;&gt;1 -->
<g id="edge1" class="edge">
<title>0&#45;&gt;1</title>
<path fill="none" stroke="black" d="M113.86,-83.57C136.81,-89.02 164.05,-95.49 186.74,-100.88"/>
<polygon fill="black" stroke="black" points="185.81,-104.25 196.34,-103.16 187.42,-97.44 185.81,-104.25"/>
</g>
<!-- 8 -->
<!-- name: &quot;DimensionType&quot;, typeName: &quot;&quot;, id: 8, branchId: 0, recurseId: &#45;1, attributes: 0, notes: &quot;The runtime id of the dimension.&quot; -->
<g id="node9" class="node">
<title>8</title>
<ellipse fill="none" stroke="black" cx="234.58" cy="-45" rx="70.29" ry="18"/>
<text xml:space="preserve" text-anchor="middle" x="234.58" y="-39.95" font-family="Times New Roman,serif" font-size="14.00">DimensionType</text>
</g>
<!-- 0&#45;&gt;8 -->
<g id="edge8" class="edge">
<title>0&#45;&gt;8</title>
<path fill="none" stroke="black" d="M120.77,-63.08C134.3,-60.91 148.95,-58.57 163.08,-56.3"/>
<polygon fill="black" stroke="black" points="163.44,-59.79 172.76,-54.75 162.34,-52.88 163.44,-59.79"/>
</g>
<!-- 2 -->
<!-- name: &quot;X&quot;, typeName: &quot;&quot;, id: 2, branchId: 0, recurseId: &#45;1, attributes: 0, notes: &quot;&quot; -->
<g id="node3" class="node">
<title>2</title>
<ellipse fill="none" stroke="black" cx="371.75" cy="-180" rx="27" ry="18"/>
<text xml:space="preserve" text-anchor="middle" x="371.75" y="-174.95" font-family="Times New Roman,serif" font-size="14.00">X</text>
</g>
<!-- 1&#45;&gt;2 -->
<g id="edge2" class="edge">
<title>1&#45;&gt;2</title>
<path fill="none" stroke="black" d="M262.61,-125.6C284.79,-136.76 316.22,-152.57 339.48,-164.27"/>
<polygon fill="black" stroke="black" points="337.68,-167.28 348.18,-168.65 340.82,-161.03 337.68,-167.28"/>
</g>
<!-- 4 -->
<!-- name: &quot;Y&quot;, typeName: &quot;&quot;, id: 4, branchId: 0, recurseId: &#45;1, attributes: 0, notes: &quot;&quot; -->
<g id="node5" class="node">
<title>4</title>
<ellipse fill="none" stroke="black" cx="371.75" cy="-126" rx="27" ry="18"/>
<text xml:space="preserve" text-anchor="middle" x="371.75" y="-120.95" font-family="Times New Roman,serif" font-size="14.00">Y</text>
</g>
<!-- 1&#45;&gt;4 -->
<g id="edge4" class="edge">
<title>1&#45;&gt;4</title>
<path fill="none" stroke="black" d="M275.04,-116.09C293.45,-117.99 315.25,-120.25 333.39,-122.13"/>
<polygon fill="black" stroke="black" points="332.89,-125.6 343.2,-123.15 333.62,-118.64 332.89,-125.6"/>
</g>
<!-- 6 -->
<!-- name: &quot;Z&quot;, typeName: &quot;&quot;, id: 6, branchId: 0, recurseId: &#45;1, attributes: 0, notes: &quot;&quot; -->
<g id="node7" class="node">
<title>6</title>
<ellipse fill="none" stroke="black" cx="371.75" cy="-72" rx="27" ry="18"/>
<text xml:space="preserve" text-anchor="middle" x="371.75" y="-66.95" font-family="Times New Roman,serif" font-size="14.00">Z</text>
</g>
<!-- 1&#45;&gt;6 -->
<g id="edge6" class="edge">
<title>1&#45;&gt;6</title>
<path fill="none" stroke="black" d="M269.34,-102.01C289.66,-96 315.48,-88.36 335.98,-82.29"/>
<polygon fill="black" stroke="black" points="336.7,-85.72 345.3,-79.53 334.72,-79.01 336.7,-85.72"/>
</g>
<!-- 3 -->
<!-- name: &quot;float&quot;, typeName: &quot;&quot;, id: 3, branchId: 0, recurseId: &#45;1, attributes: 512, notes: &quot;&quot; -->
<g id="node4" class="node">
<title>3</title>
<ellipse fill="none" stroke="black" cx="471.04" cy="-180" rx="27.81" ry="18"/>
<text xml:space="preserve" text-anchor="middle" x="471.04" y="-174.95" font-family="Times New Roman,serif" font-size="14.00">float</text>
</g>
<!-- 2&#45;&gt;3 -->
<g id="edge3" class="edge">
<title>2&#45;&gt;3</title>
<path fill="none" stroke="black" d="M399.08,-180C409.08,-180 420.69,-180 431.58,-180"/>
<polygon fill="black" stroke="black" points="431.5,-183.5 441.5,-180 431.5,-176.5 431.5,-183.5"/>
</g>
<!-- 5 -->
<!-- name: &quot;float&quot;, typeName: &quot;&quot;, id: 5, branchId: 0, recurseId: &#45;1, attributes: 512, notes: &quot;&quot; -->
<g id="node6" class="node">
<title>5</title>
<ellipse fill="none" stroke="black" cx="471.04" cy="-126" rx="27.81" ry="18"/>
<text xml:space="preserve" text-anchor="middle" x="471.04" y="-120.95" font-family="Times New Roman,serif" font-size="14.00">float</text>
</g>
<!-- 4&#45;&gt;5 -->
<g id="edge5" class="edge">
<title>4&#45;&gt;5</title>
<path fill="none" stroke="black" d="M399.08,-126C409.08,-126 420.69,-126 431.58,-126"/>
<polygon fill="black" stroke="black" points="431.5,-129.5 441.5,-126 431.5,-122.5 431.5,-129.5"/>
</g>
<!-- 7 -->
<!-- name: &quot;float&quot;, typeName: &quot;&quot;, id: 7, branchId: 0, recurseId: &#45;1, attributes: 512, notes: &quot;&quot; -->
<g id="node8" class="node">
<title>7</title>
<ellipse fill="none" stroke="black" cx="471.04" cy="-72" rx="27.81" ry="18"/>
<text xml:space="preserve" text-anchor="middle" x="471.04" y="-66.95" font-family="Times New Roman,serif" font-size="14.00">float</text>
</g>
<!-- 6&#45;&gt;7 -->
<g id="edge7" class="edge">
<title>6&#45;&gt;7</title>
<path fill="none" stroke="black" d="M399.08,-72C409.08,-72 420.69,-72 431.58,-72"/>
<polygon fill="black" stroke="black" points="431.5,-75.5 441.5,-72 431.5,-68.5 431.5,-75.5"/>
</g>
<!-- 9 -->
<!-- name: &quot;value&quot;, typeName: &quot;&quot;, id: 9, branchId: 0, recurseId: &#45;1, attributes: 0, notes: &quot;&quot; -->
<g id="node10" class="node">
<title>9</title>
<ellipse fill="none" stroke="black" cx="371.75" cy="-18" rx="30.88" ry="18"/>
<text xml:space="preserve" text-anchor="middle" x="371.75" y="-12.95" font-family="Times New Roman,serif" font-size="14.00">value</text>
</g>
<!-- 8&#45;&gt;9 -->
<g id="edge9" class="edge">
<title>8&#45;&gt;9</title>
<path fill="none" stroke="black" d="M290.95,-33.94C304.35,-31.26 318.4,-28.46 330.93,-25.95"/>
<polygon fill="black" stroke="black" points="331.32,-29.44 340.44,-24.05 329.95,-22.58 331.32,-29.44"/>
</g>
<!-- 10 -->
<!-- name: &quot;varint&quot;, typeName: &quot;&quot;, id: 10, branchId: 0, recurseId: &#45;1, attributes: 512, notes: &quot;&quot; -->
<g id="node11" class="node">
<title>10</title>
<ellipse fill="none" stroke="black" cx="471.04" cy="-18" rx="32.41" ry="18"/>
<text xml:space="preserve" text-anchor="middle" x="471.04" y="-12.95" font-family="Times New Roman,serif" font-size="14.00">varint</text>
</g>
<!-- 9&#45;&gt;10 -->
<g id="edge10" class="edge">
<title>9&#45;&gt;10</title>
<path fill="none" stroke="black" d="M403,-18C410.66,-18 419.03,-18 427.18,-18"/>
<polygon fill="black" stroke="black" points="426.95,-21.5 436.95,-18 426.95,-14.5 426.95,-21.5"/>
</g>
</g>
</svg>
