<?xml version="1.0" encoding="UTF-8" standalone="no"?>
<!DOCTYPE svg PUBLIC "-//W3C//DTD SVG 1.1//EN" "http://www.w3.org/Graphics/SVG/1.1/DTD/svg11.dtd">
<!-- Generated by Microsoft Visio, SVG Export AfterSim.svg Page-1 -->
<svg xmlns="http://www.w3.org/2000/svg" xmlns:xlink="http://www.w3.org/1999/xlink" xmlns:ev="http://www.w3.org/2001/xml-events"
		xmlns:v="http://schemas.microsoft.com/visio/2003/SVGExtensions/" width="5.55268in" height="5.20612in"
		viewBox="0 0 399.793 374.841" xml:space="preserve" color-interpolation-filters="sRGB" class="st12">
	<v:documentProperties v:langID="1033" v:metric="true" v:viewMarkup="false">
		<v:userDefs>
			<v:ud v:nameU="msvSubprocessMaster" v:prompt="" v:val="VT4(Box)"/>
			<v:ud v:nameU="msvNoAutoConnect" v:val="VT0(1):26"/>
		</v:userDefs>
	</v:documentProperties>

	<style type="text/css">
	<![CDATA[
		.st1 {fill:#5b9bd5;stroke:#ffffff;stroke-linecap:round;stroke-linejoin:round;stroke-width:0.5}
		.st2 {fill:#73ae42;stroke:none;stroke-linecap:round;stroke-linejoin:round;stroke-width:6.375}
		.st3 {fill:#ff0000;stroke:none;stroke-linecap:round;stroke-linejoin:round;stroke-width:6.375}
		.st4 {fill:#ffffff;stroke:#73ae42;stroke-linecap:round;stroke-linejoin:round;stroke-width:0.5}
		.st5 {fill:#73ad43;font-family:Calibri;font-size:1.33333em}
		.st6 {fill:none;stroke:#ff0000;stroke-linecap:round;stroke-linejoin:round;stroke-width:0.5}
		.st7 {fill:#ff0000;font-family:Calibri;font-size:1.33333em}
		.st8 {marker-end:url(#mrkr4-132);stroke:#92d050;stroke-linecap:round;stroke-linejoin:round;stroke-width:0.5}
		.st9 {fill:#92d050;fill-opacity:1;stroke:#92d050;stroke-opacity:1;stroke-width:0.16556291390728}
		.st10 {marker-end:url(#mrkr4-138);stroke:#000000;stroke-linecap:round;stroke-linejoin:round;stroke-width:0.5}
		.st11 {fill:#000000;fill-opacity:1;stroke:#000000;stroke-opacity:1;stroke-width:0.16556291390728}
		.st12 {fill:none;fill-rule:evenodd;font-size:12px;overflow:visible;stroke-linecap:square;stroke-miterlimit:3}
	]]>
	</style>

	<defs id="Markers">
		<g id="lend4">
			<path d="M 2 1 L 0 0 L 2 -1 L 2 1 " style="stroke:none"/>
		</g>
		<marker id="mrkr4-132" class="st9" v:arrowType="4" v:arrowSize="2" v:setback="12.08" refX="-12.08" orient="auto"
				markerUnits="strokeWidth" overflow="visible">
			<use xlink:href="#lend4" transform="scale(-6.04,-6.04) "/>
		</marker>
		<marker id="mrkr4-138" class="st11" v:arrowType="4" v:arrowSize="2" v:setback="12.08" refX="-12.08" orient="auto"
				markerUnits="strokeWidth" overflow="visible">
			<use xlink:href="#lend4" transform="scale(-6.04,-6.04) "/>
		</marker>
	</defs>
	<g v:mID="0" v:index="1" v:groupContext="foregroundPage">
		<v:userDefs>
			<v:ud v:nameU="msvThemeOrder" v:val="VT0(0):26"/>
		</v:userDefs>
		<title>Page-1</title>
		<v:pageProperties v:drawingScale="0.0393701" v:pageScale="0.0393701" v:drawingUnits="24" v:shadowOffsetX="8.50394"
				v:shadowOffsetY="-8.50394"/>
		<v:layer v:name="Mobile Cards and Containers" v:index="0"/>
		<v:layer v:name="Security" v:index="1"/>
		<v:layer v:name="Video Surveilance" v:index="2"/>
		<v:layer v:name="Surveillance" v:index="3"/>
		<v:layer v:name="Flowchart" v:index="4"/>
		<v:layer v:name="Flow Segment" v:index="5"/>
		<v:layer v:name="Connector" v:index="6"/>
		<g id="shape442-1" v:mID="442" v:groupContext="shape" transform="translate(41.3858,-18.25)">
			<title>Square.442</title>
			<v:userDefs>
				<v:ud v:nameU="visVersion" v:val="VT0(15):26"/>
			</v:userDefs>
			<rect x="0" y="261.455" width="113.386" height="113.386" class="st1"/>
		</g>
		<g id="shape443-3" v:mID="443" v:groupContext="shape" transform="translate(154.772,-18.25)">
			<title>Square.443</title>
			<v:userDefs>
				<v:ud v:nameU="visVersion" v:val="VT0(15):26"/>
			</v:userDefs>
			<rect x="0" y="261.455" width="113.386" height="113.386" class="st1"/>
		</g>
		<g id="shape444-5" v:mID="444" v:groupContext="shape" transform="translate(268.157,-18.25)">
			<title>Square.444</title>
			<v:userDefs>
				<v:ud v:nameU="visVersion" v:val="VT0(15):26"/>
			</v:userDefs>
			<rect x="0" y="261.455" width="113.386" height="113.386" class="st1"/>
		</g>
		<g id="group445-7" transform="translate(455.912,87.2996) rotate(90)" v:mID="445" v:groupContext="group">
			<title>Video camera.445</title>
			<g id="shape446-8" v:mID="446" v:groupContext="shape" transform="translate(7.97244,-24.6888)">
				<title>Sheet.446</title>
				<ellipse cx="1.06299" cy="373.744" rx="1.06299" ry="1.09728" class="st2"/>
			</g>
			<g id="shape447-10" v:mID="447" v:groupContext="shape" transform="translate(7.97244,-20.2997)">
				<title>Sheet.447</title>
				<ellipse cx="1.06299" cy="373.744" rx="1.06299" ry="1.09728" class="st2"/>
			</g>
			<g id="shape448-12" v:mID="448" v:groupContext="shape" transform="translate(5.84646,-22.4943)">
				<title>Sheet.448</title>
				<ellipse cx="1.06299" cy="373.744" rx="1.06299" ry="1.09728" class="st2"/>
			</g>
			<g id="shape449-14" v:mID="449" v:groupContext="shape" transform="translate(10.0984,-22.4943)">
				<title>Sheet.449</title>
				<ellipse cx="1.06299" cy="373.744" rx="1.06299" ry="1.09728" class="st2"/>
			</g>
			<g id="shape450-16" v:mID="450" v:groupContext="shape" transform="translate(22.8543,-26.8834)">
				<title>Sheet.450</title>
				<ellipse cx="1.06299" cy="373.744" rx="1.06299" ry="1.09728" class="st2"/>
			</g>
			<g id="shape451-18" v:mID="451" v:groupContext="shape" transform="translate(22.8543,-22.4943)">
				<title>Sheet.451</title>
				<ellipse cx="1.06299" cy="373.744" rx="1.06299" ry="1.09728" class="st2"/>
			</g>
			<g id="shape452-20" v:mID="452" v:groupContext="shape" transform="translate(20.7283,-24.6888)">
				<title>Sheet.452</title>
				<ellipse cx="1.06299" cy="373.744" rx="1.06299" ry="1.09728" class="st2"/>
			</g>
			<g id="shape453-22" v:mID="453" v:groupContext="shape" transform="translate(24.9803,-24.6888)">
				<title>Sheet.453</title>
				<ellipse cx="1.06299" cy="373.744" rx="1.06299" ry="1.09728" class="st2"/>
			</g>
			<g id="shape454-24" v:mID="454" v:groupContext="shape" transform="translate(31.8898,-1.7053E-13)">
				<title>Sheet.454</title>
				<path d="M7.44 356.19 L10.63 356.19 L10.63 374.84 L7.44 374.84 L4.25 371.55 L0 371.55 L0 359.48 L4.25 359.48 L7.44
							 356.19 Z" class="st2"/>
			</g>
			<g id="shape455-26" v:mID="455" v:groupContext="shape">
				<title>Sheet.455</title>
				<path d="M27.85 356.19 C28.91 356.3 29.76 357.23 29.76 358.38 L29.76 372.65 C29.76 373.85 28.81 374.84 27.64 374.84
							 L6.38 374.84 C5.21 374.84 4.25 373.85 4.25 372.65 L4.25 362.77 L3.19 362.77 L2.13 363.87 L0 363.87 L0
							 358.38 L2.13 358.38 L3.19 359.48 L4.25 359.48 L4.25 357.83 C2.34 356.3 1.06 353.94 1.06 351.25 C1.06
							 346.7 4.62 343.02 9.04 343.02 C12.12 343.02 14.78 344.83 16.1 347.46 C16.85 343.68 20.04 340.83 23.92
							 340.83 C28.33 340.83 31.89 344.5 31.89 349.05 C31.89 352.13 30.24 354.76 27.85 356.19 ZM9.04 356.19
							 C11.69 356.19 13.82 353.99 13.82 351.25 C13.82 348.51 11.69 346.31 9.04 346.31 C6.38 346.31 4.25 348.51
							 4.25 351.25 C4.25 353.99 6.38 356.19 9.04 356.19 ZM15.41 356.19 L19.93 356.19 C18.66 355.36 17.54 354.21
							 16.85 352.84 C16.64 354.1 16.1 355.2 15.41 356.19 ZM25.51 371.55 C26.1 371.55 26.57 371.06 26.57 370.45
							 C26.57 369.85 26.1 369.35 25.51 369.35 C24.93 369.35 24.45 369.85 24.45 370.45 C24.45 371.06 24.93 371.55
							 25.51 371.55 ZM23.92 353.99 C26.57 353.99 28.7 351.8 28.7 349.05 C28.7 346.31 26.57 344.12 23.92 344.12
							 C21.26 344.12 19.13 346.31 19.13 349.05 C19.13 351.8 21.26 353.99 23.92 353.99 Z" class="st2"/>
			</g>
		</g>
		<g id="group456-28" transform="translate(682.683,87.2996) rotate(90)" v:mID="456" v:groupContext="group">
			<title>Video camera.456</title>
			<g id="shape457-29" v:mID="457" v:groupContext="shape" transform="translate(7.97244,-24.6888)">
				<title>Sheet.457</title>
				<ellipse cx="1.06299" cy="373.744" rx="1.06299" ry="1.09728" class="st2"/>
			</g>
			<g id="shape458-31" v:mID="458" v:groupContext="shape" transform="translate(7.97244,-20.2997)">
				<title>Sheet.458</title>
				<ellipse cx="1.06299" cy="373.744" rx="1.06299" ry="1.09728" class="st2"/>
			</g>
			<g id="shape459-33" v:mID="459" v:groupContext="shape" transform="translate(5.84646,-22.4943)">
				<title>Sheet.459</title>
				<ellipse cx="1.06299" cy="373.744" rx="1.06299" ry="1.09728" class="st2"/>
			</g>
			<g id="shape460-35" v:mID="460" v:groupContext="shape" transform="translate(10.0984,-22.4943)">
				<title>Sheet.460</title>
				<ellipse cx="1.06299" cy="373.744" rx="1.06299" ry="1.09728" class="st2"/>
			</g>
			<g id="shape461-37" v:mID="461" v:groupContext="shape" transform="translate(22.8543,-26.8834)">
				<title>Sheet.461</title>
				<ellipse cx="1.06299" cy="373.744" rx="1.06299" ry="1.09728" class="st2"/>
			</g>
			<g id="shape462-39" v:mID="462" v:groupContext="shape" transform="translate(22.8543,-22.4943)">
				<title>Sheet.462</title>
				<ellipse cx="1.06299" cy="373.744" rx="1.06299" ry="1.09728" class="st2"/>
			</g>
			<g id="shape463-41" v:mID="463" v:groupContext="shape" transform="translate(20.7283,-24.6888)">
				<title>Sheet.463</title>
				<ellipse cx="1.06299" cy="373.744" rx="1.06299" ry="1.09728" class="st2"/>
			</g>
			<g id="shape464-43" v:mID="464" v:groupContext="shape" transform="translate(24.9803,-24.6888)">
				<title>Sheet.464</title>
				<ellipse cx="1.06299" cy="373.744" rx="1.06299" ry="1.09728" class="st2"/>
			</g>
			<g id="shape465-45" v:mID="465" v:groupContext="shape" transform="translate(31.8898,-1.7053E-13)">
				<title>Sheet.465</title>
				<path d="M7.44 356.19 L10.63 356.19 L10.63 374.84 L7.44 374.84 L4.25 371.55 L0 371.55 L0 359.48 L4.25 359.48 L7.44
							 356.19 Z" class="st2"/>
			</g>
			<g id="shape466-47" v:mID="466" v:groupContext="shape">
				<title>Sheet.466</title>
				<path d="M27.85 356.19 C28.91 356.3 29.76 357.23 29.76 358.38 L29.76 372.65 C29.76 373.85 28.81 374.84 27.64 374.84
							 L6.38 374.84 C5.21 374.84 4.25 373.85 4.25 372.65 L4.25 362.77 L3.19 362.77 L2.13 363.87 L0 363.87 L0
							 358.38 L2.13 358.38 L3.19 359.48 L4.25 359.48 L4.25 357.83 C2.34 356.3 1.06 353.94 1.06 351.25 C1.06
							 346.7 4.62 343.02 9.04 343.02 C12.12 343.02 14.78 344.83 16.1 347.46 C16.85 343.68 20.04 340.83 23.92
							 340.83 C28.33 340.83 31.89 344.5 31.89 349.05 C31.89 352.13 30.24 354.76 27.85 356.19 ZM9.04 356.19
							 C11.69 356.19 13.82 353.99 13.82 351.25 C13.82 348.51 11.69 346.31 9.04 346.31 C6.38 346.31 4.25 348.51
							 4.25 351.25 C4.25 353.99 6.38 356.19 9.04 356.19 ZM15.41 356.19 L19.93 356.19 C18.66 355.36 17.54 354.21
							 16.85 352.84 C16.64 354.1 16.1 355.2 15.41 356.19 ZM25.51 371.55 C26.1 371.55 26.57 371.06 26.57 370.45
							 C26.57 369.85 26.1 369.35 25.51 369.35 C24.93 369.35 24.45 369.85 24.45 370.45 C24.45 371.06 24.93 371.55
							 25.51 371.55 ZM23.92 353.99 C26.57 353.99 28.7 351.8 28.7 349.05 C28.7 346.31 26.57 344.12 23.92 344.12
							 C21.26 344.12 19.13 346.31 19.13 349.05 C19.13 351.8 21.26 353.99 23.92 353.99 Z" class="st2"/>
			</g>
		</g>
		<g id="group467-49" transform="translate(463.707,97.0437) rotate(90)" v:mID="467" v:groupContext="group">
			<title>Video camera.467</title>
			<g id="shape468-50" v:mID="468" v:groupContext="shape" transform="translate(4.31841,-13.3731)">
				<title>Sheet.468</title>
				<ellipse cx="0.575787" cy="374.247" rx="0.575787" ry="0.594361" class="st3"/>
			</g>
			<g id="shape469-52" v:mID="469" v:groupContext="shape" transform="translate(4.31841,-10.9957)">
				<title>Sheet.469</title>
				<ellipse cx="0.575787" cy="374.247" rx="0.575787" ry="0.594361" class="st3"/>
			</g>
			<g id="shape470-54" v:mID="470" v:groupContext="shape" transform="translate(3.16683,-12.1844)">
				<title>Sheet.470</title>
				<ellipse cx="0.575787" cy="374.247" rx="0.575787" ry="0.594361" class="st3"/>
			</g>
			<g id="shape471-56" v:mID="471" v:groupContext="shape" transform="translate(5.46998,-12.1844)">
				<title>Sheet.471</title>
				<ellipse cx="0.575789" cy="374.247" rx="0.575787" ry="0.594361" class="st3"/>
			</g>
			<g id="shape472-58" v:mID="472" v:groupContext="shape" transform="translate(12.3794,-14.5618)">
				<title>Sheet.472</title>
				<ellipse cx="0.575789" cy="374.247" rx="0.575787" ry="0.594361" class="st3"/>
			</g>
			<g id="shape473-60" v:mID="473" v:groupContext="shape" transform="translate(12.3794,-12.1844)">
				<title>Sheet.473</title>
				<ellipse cx="0.575789" cy="374.247" rx="0.575787" ry="0.594361" class="st3"/>
			</g>
			<g id="shape474-62" v:mID="474" v:groupContext="shape" transform="translate(11.2279,-13.3731)">
				<title>Sheet.474</title>
				<ellipse cx="0.575788" cy="374.247" rx="0.575787" ry="0.594361" class="st3"/>
			</g>
			<g id="shape475-64" v:mID="475" v:groupContext="shape" transform="translate(13.531,-13.3731)">
				<title>Sheet.475</title>
				<ellipse cx="0.575786" cy="374.247" rx="0.575787" ry="0.594361" class="st3"/>
			</g>
			<g id="shape476-66" v:mID="476" v:groupContext="shape" transform="translate(17.2736,-5.68434E-14)">
				<title>Sheet.476</title>
				<path d="M4.03 364.74 L5.76 364.74 L5.76 374.84 L4.03 374.84 L2.3 373.06 L0 373.06 L0 366.52 L2.3 366.52 L4.03 364.74
							 Z" class="st3"/>
			</g>
			<g id="shape477-68" v:mID="477" v:groupContext="shape">
				<title>Sheet.477</title>
				<path d="M15.09 364.74 C15.66 364.8 16.12 365.3 16.12 365.93 L16.12 373.65 C16.12 374.31 15.6 374.84 14.97 374.84
							 L3.45 374.84 C2.82 374.84 2.3 374.31 2.3 373.65 L2.3 368.3 L1.73 368.3 L1.15 368.9 L0 368.9 L0 365.93
							 L1.15 365.93 L1.73 366.52 L2.3 366.52 L2.3 365.63 C1.27 364.8 0.58 363.52 0.58 362.06 C0.58 359.6 2.5
							 357.6 4.89 357.6 C6.56 357.6 8 358.59 8.72 360.01 C9.13 357.96 10.85 356.42 12.96 356.42 C15.34 356.42
							 17.27 358.41 17.27 360.87 C17.27 362.54 16.38 363.96 15.09 364.74 ZM4.89 364.74 C6.33 364.74 7.49 363.55
							 7.49 362.06 C7.49 360.58 6.33 359.39 4.89 359.39 C3.45 359.39 2.3 360.58 2.3 362.06 C2.3 363.55 3.45
							 364.74 4.89 364.74 ZM8.35 364.74 L10.8 364.74 C10.11 364.29 9.5 363.67 9.13 362.92 C9.01 363.61 8.72
							 364.2 8.35 364.74 ZM13.82 373.06 C14.14 373.06 14.39 372.79 14.39 372.46 C14.39 372.14 14.14 371.87
							 13.82 371.87 C13.5 371.87 13.24 372.14 13.24 372.46 C13.24 372.79 13.5 373.06 13.82 373.06 ZM12.96 363.55
							 C14.39 363.55 15.55 362.36 15.55 360.87 C15.55 359.39 14.39 358.2 12.96 358.2 C11.52 358.2 10.36 359.39
							 10.36 360.87 C10.36 362.36 11.52 363.55 12.96 363.55 Z" class="st3"/>
			</g>
		</g>
		<g id="group478-70" transform="translate(577.093,97.0437) rotate(90)" v:mID="478" v:groupContext="group">
			<title>Video camera.478</title>
			<g id="shape479-71" v:mID="479" v:groupContext="shape" transform="translate(4.31841,-13.3731)">
				<title>Sheet.479</title>
				<ellipse cx="0.575787" cy="374.247" rx="0.575787" ry="0.594361" class="st3"/>
			</g>
			<g id="shape480-73" v:mID="480" v:groupContext="shape" transform="translate(4.31841,-10.9957)">
				<title>Sheet.480</title>
				<ellipse cx="0.575787" cy="374.247" rx="0.575787" ry="0.594361" class="st3"/>
			</g>
			<g id="shape481-75" v:mID="481" v:groupContext="shape" transform="translate(3.16683,-12.1844)">
				<title>Sheet.481</title>
				<ellipse cx="0.575787" cy="374.247" rx="0.575787" ry="0.594361" class="st3"/>
			</g>
			<g id="shape482-77" v:mID="482" v:groupContext="shape" transform="translate(5.46998,-12.1844)">
				<title>Sheet.482</title>
				<ellipse cx="0.575789" cy="374.247" rx="0.575787" ry="0.594361" class="st3"/>
			</g>
			<g id="shape483-79" v:mID="483" v:groupContext="shape" transform="translate(12.3794,-14.5618)">
				<title>Sheet.483</title>
				<ellipse cx="0.575789" cy="374.247" rx="0.575787" ry="0.594361" class="st3"/>
			</g>
			<g id="shape484-81" v:mID="484" v:groupContext="shape" transform="translate(12.3794,-12.1844)">
				<title>Sheet.484</title>
				<ellipse cx="0.575789" cy="374.247" rx="0.575787" ry="0.594361" class="st3"/>
			</g>
			<g id="shape485-83" v:mID="485" v:groupContext="shape" transform="translate(11.2279,-13.3731)">
				<title>Sheet.485</title>
				<ellipse cx="0.575788" cy="374.247" rx="0.575787" ry="0.594361" class="st3"/>
			</g>
			<g id="shape486-85" v:mID="486" v:groupContext="shape" transform="translate(13.531,-13.3731)">
				<title>Sheet.486</title>
				<ellipse cx="0.575786" cy="374.247" rx="0.575787" ry="0.594361" class="st3"/>
			</g>
			<g id="shape487-87" v:mID="487" v:groupContext="shape" transform="translate(17.2736,-5.68434E-14)">
				<title>Sheet.487</title>
				<path d="M4.03 364.74 L5.76 364.74 L5.76 374.84 L4.03 374.84 L2.3 373.06 L0 373.06 L0 366.52 L2.3 366.52 L4.03 364.74
							 Z" class="st3"/>
			</g>
			<g id="shape488-89" v:mID="488" v:groupContext="shape">
				<title>Sheet.488</title>
				<path d="M15.09 364.74 C15.66 364.8 16.12 365.3 16.12 365.93 L16.12 373.65 C16.12 374.31 15.6 374.84 14.97 374.84
							 L3.45 374.84 C2.82 374.84 2.3 374.31 2.3 373.65 L2.3 368.3 L1.73 368.3 L1.15 368.9 L0 368.9 L0 365.93
							 L1.15 365.93 L1.73 366.52 L2.3 366.52 L2.3 365.63 C1.27 364.8 0.58 363.52 0.58 362.06 C0.58 359.6 2.5
							 357.6 4.89 357.6 C6.56 357.6 8 358.59 8.72 360.01 C9.13 357.96 10.85 356.42 12.96 356.42 C15.34 356.42
							 17.27 358.41 17.27 360.87 C17.27 362.54 16.38 363.96 15.09 364.74 ZM4.89 364.74 C6.33 364.74 7.49 363.55
							 7.49 362.06 C7.49 360.58 6.33 359.39 4.89 359.39 C3.45 359.39 2.3 360.58 2.3 362.06 C2.3 363.55 3.45
							 364.74 4.89 364.74 ZM8.35 364.74 L10.8 364.74 C10.11 364.29 9.5 363.67 9.13 362.92 C9.01 363.61 8.72
							 364.2 8.35 364.74 ZM13.82 373.06 C14.14 373.06 14.39 372.79 14.39 372.46 C14.39 372.14 14.14 371.87
							 13.82 371.87 C13.5 371.87 13.24 372.14 13.24 372.46 C13.24 372.79 13.5 373.06 13.82 373.06 ZM12.96 363.55
							 C14.39 363.55 15.55 362.36 15.55 360.87 C15.55 359.39 14.39 358.2 12.96 358.2 C11.52 358.2 10.36 359.39
							 10.36 360.87 C10.36 362.36 11.52 363.55 12.96 363.55 Z" class="st3"/>
			</g>
		</g>
		<g id="group489-91" transform="translate(690.479,97.0437) rotate(90)" v:mID="489" v:groupContext="group">
			<title>Video camera.489</title>
			<g id="shape490-92" v:mID="490" v:groupContext="shape" transform="translate(4.31841,-13.3731)">
				<title>Sheet.490</title>
				<ellipse cx="0.575787" cy="374.247" rx="0.575787" ry="0.594361" class="st3"/>
			</g>
			<g id="shape491-94" v:mID="491" v:groupContext="shape" transform="translate(4.31841,-10.9957)">
				<title>Sheet.491</title>
				<ellipse cx="0.575787" cy="374.247" rx="0.575787" ry="0.594361" class="st3"/>
			</g>
			<g id="shape492-96" v:mID="492" v:groupContext="shape" transform="translate(3.16683,-12.1844)">
				<title>Sheet.492</title>
				<ellipse cx="0.575787" cy="374.247" rx="0.575787" ry="0.594361" class="st3"/>
			</g>
			<g id="shape493-98" v:mID="493" v:groupContext="shape" transform="translate(5.46998,-12.1844)">
				<title>Sheet.493</title>
				<ellipse cx="0.575789" cy="374.247" rx="0.575787" ry="0.594361" class="st3"/>
			</g>
			<g id="shape494-100" v:mID="494" v:groupContext="shape" transform="translate(12.3794,-14.5618)">
				<title>Sheet.494</title>
				<ellipse cx="0.575789" cy="374.247" rx="0.575787" ry="0.594361" class="st3"/>
			</g>
			<g id="shape495-102" v:mID="495" v:groupContext="shape" transform="translate(12.3794,-12.1844)">
				<title>Sheet.495</title>
				<ellipse cx="0.575789" cy="374.247" rx="0.575787" ry="0.594361" class="st3"/>
			</g>
			<g id="shape496-104" v:mID="496" v:groupContext="shape" transform="translate(11.2279,-13.3731)">
				<title>Sheet.496</title>
				<ellipse cx="0.575788" cy="374.247" rx="0.575787" ry="0.594361" class="st3"/>
			</g>
			<g id="shape497-106" v:mID="497" v:groupContext="shape" transform="translate(13.531,-13.3731)">
				<title>Sheet.497</title>
				<ellipse cx="0.575786" cy="374.247" rx="0.575787" ry="0.594361" class="st3"/>
			</g>
			<g id="shape498-108" v:mID="498" v:groupContext="shape" transform="translate(17.2736,-5.68434E-14)">
				<title>Sheet.498</title>
				<path d="M4.03 364.74 L5.76 364.74 L5.76 374.84 L4.03 374.84 L2.3 373.06 L0 373.06 L0 366.52 L2.3 366.52 L4.03 364.74
							 Z" class="st3"/>
			</g>
			<g id="shape499-110" v:mID="499" v:groupContext="shape">
				<title>Sheet.499</title>
				<path d="M15.09 364.74 C15.66 364.8 16.12 365.3 16.12 365.93 L16.12 373.65 C16.12 374.31 15.6 374.84 14.97 374.84
							 L3.45 374.84 C2.82 374.84 2.3 374.31 2.3 373.65 L2.3 368.3 L1.73 368.3 L1.15 368.9 L0 368.9 L0 365.93
							 L1.15 365.93 L1.73 366.52 L2.3 366.52 L2.3 365.63 C1.27 364.8 0.58 363.52 0.58 362.06 C0.58 359.6 2.5
							 357.6 4.89 357.6 C6.56 357.6 8 358.59 8.72 360.01 C9.13 357.96 10.85 356.42 12.96 356.42 C15.34 356.42
							 17.27 358.41 17.27 360.87 C17.27 362.54 16.38 363.96 15.09 364.74 ZM4.89 364.74 C6.33 364.74 7.49 363.55
							 7.49 362.06 C7.49 360.58 6.33 359.39 4.89 359.39 C3.45 359.39 2.3 360.58 2.3 362.06 C2.3 363.55 3.45
							 364.74 4.89 364.74 ZM8.35 364.74 L10.8 364.74 C10.11 364.29 9.5 363.67 9.13 362.92 C9.01 363.61 8.72
							 364.2 8.35 364.74 ZM13.82 373.06 C14.14 373.06 14.39 372.79 14.39 372.46 C14.39 372.14 14.14 371.87
							 13.82 371.87 C13.5 371.87 13.24 372.14 13.24 372.46 C13.24 372.79 13.5 373.06 13.82 373.06 ZM12.96 363.55
							 C14.39 363.55 15.55 362.36 15.55 360.87 C15.55 359.39 14.39 358.2 12.96 358.2 C11.52 358.2 10.36 359.39
							 10.36 360.87 C10.36 362.36 11.52 363.55 12.96 363.55 Z" class="st3"/>
			</g>
		</g>
		<g id="shape500-112" v:mID="500" v:groupContext="shape" transform="translate(46.0787,-339.241)">
			<title>Sheet.500</title>
			<desc>Sim Tick 1</desc>
			<v:textBlock v:margins="rect(4,4,4,4)" v:tabSpace="42.5197"/>
			<v:textRect cx="52" cy="366.841" width="104" height="16"/>
			<rect x="0" y="358.841" width="104" height="16" class="st4"/>
			<text x="19.67" y="371.64" class="st5" v:langID="1033"><v:paragraph v:horizAlign="1"/><v:tabList/>Sim Tick 1</text>		</g>
		<g id="shape501-115" v:mID="501" v:groupContext="shape" transform="translate(272.85,-339.241)">
			<title>Sheet.501</title>
			<desc>Sim Tick 2</desc>
			<v:textBlock v:margins="rect(4,4,4,4)" v:tabSpace="42.5197"/>
			<v:textRect cx="52" cy="366.841" width="104" height="16"/>
			<rect x="0" y="358.841" width="104" height="16" class="st4"/>
			<text x="19.67" y="371.64" class="st5" v:langID="1033"><v:paragraph v:horizAlign="1"/><v:tabList/>Sim Tick 2</text>		</g>
		<g id="shape502-118" v:mID="502" v:groupContext="shape" transform="translate(46.0787,-320.317)">
			<title>Sheet.502</title>
			<desc>Render Tick 1</desc>
			<v:textBlock v:margins="rect(4,4,4,4)" v:tabSpace="42.5197"/>
			<v:textRect cx="52" cy="366.841" width="104" height="16"/>
			<rect x="0" y="358.841" width="104" height="16" class="st6"/>
			<text x="8.07" y="371.64" class="st7" v:langID="1033"><v:paragraph v:horizAlign="1"/><v:tabList/>Render Tick 1</text>		</g>
		<g id="shape503-121" v:mID="503" v:groupContext="shape" transform="translate(159.465,-320.317)">
			<title>Sheet.503</title>
			<desc>Render Tick 2</desc>
			<v:textBlock v:margins="rect(4,4,4,4)" v:tabSpace="42.5197"/>
			<v:textRect cx="52" cy="366.841" width="104" height="16"/>
			<rect x="0" y="358.841" width="104" height="16" class="st6"/>
			<text x="8.07" y="371.64" class="st7" v:langID="1033"><v:paragraph v:horizAlign="1"/><v:tabList/>Render Tick 2</text>		</g>
		<g id="shape504-124" v:mID="504" v:groupContext="shape" transform="translate(272.85,-320.317)">
			<title>Sheet.504</title>
			<desc>Render Tick 3</desc>
			<v:textBlock v:margins="rect(4,4,4,4)" v:tabSpace="42.5197"/>
			<v:textRect cx="52" cy="366.841" width="104" height="16"/>
			<rect x="0" y="358.841" width="104" height="16" class="st6"/>
			<text x="8.07" y="371.64" class="st7" v:langID="1033"><v:paragraph v:horizAlign="1"/><v:tabList/>Render Tick 3</text>		</g>
		<g id="shape506-127" v:mID="506" v:groupContext="shape" v:layerMember="4" transform="translate(582.337,114.317) rotate(90)">
			<title>Cause 1.506</title>
			<v:userDefs>
				<v:ud v:nameU="visVersion" v:val="VT0(15):26"/>
				<v:ud v:nameU="Scale" v:val="VT0(1):26"/>
				<v:ud v:nameU="AntiScale" v:val="VT0(1):26"/>
			</v:userDefs>
			<path d="M0 374.84 L121.61 374.84" class="st8"/>
		</g>
		<g id="shape508-133" v:mID="508" v:groupContext="shape" v:layerMember="4" transform="translate(98.0787,-296.985)">
			<title>Cause 1.508</title>
			<v:userDefs>
				<v:ud v:nameU="visVersion" v:val="VT0(15):26"/>
				<v:ud v:nameU="Scale" v:val="VT0(1):26"/>
				<v:ud v:nameU="AntiScale" v:val="VT0(1):26"/>
			</v:userDefs>
			<path d="M0 374.84 L220.73 374.84" class="st10"/>
		</g>
		<g id="shape509-139" v:mID="509" v:groupContext="shape" v:layerMember="4" transform="translate(463.707,120.075) rotate(90)">
			<title>Cause 1.509</title>
			<v:userDefs>
				<v:ud v:nameU="visVersion" v:val="VT0(15):26"/>
				<v:ud v:nameU="Scale" v:val="VT0(1):26"/>
				<v:ud v:nameU="AntiScale" v:val="VT0(1):26"/>
			</v:userDefs>
			<path d="M0 374.84 L118.23 374.84" class="st8"/>
		</g>
		<g id="shape510-144" v:mID="510" v:groupContext="shape" v:layerMember="4" transform="translate(688.92,119.189) rotate(90)">
			<title>Cause 1.510</title>
			<v:userDefs>
				<v:ud v:nameU="visVersion" v:val="VT0(15):26"/>
				<v:ud v:nameU="Scale" v:val="VT0(1):26"/>
				<v:ud v:nameU="AntiScale" v:val="VT0(1):26"/>
			</v:userDefs>
			<path d="M0 374.84 L118.23 374.84" class="st8"/>
		</g>
		<g id="group515-149" transform="translate(-66.4282,25.3977) rotate(-75)" v:mID="515" v:groupContext="group">
			<title>Line Outline Counterclockwise curve</title>
			<g id="shape516-150" v:mID="516" v:groupContext="shape">
				<title>Sheet.516</title>
				<path d="M8.24 308.9 C25.96 321.08 28.92 337.71 28.26 349.57 C27.77 357.88 25.63 366.04 22.08 373.54 C21.42 374.75
							 19.94 375.15 18.79 374.59 C17.55 374.02 17.06 372.65 17.63 371.44 C20.93 364.42 22.83 356.92 23.32 349.25
							 C24.14 333.67 17.96 321.33 5.03 312.53 L4.94 322.54 C4.94 323.91 3.87 324.96 2.47 324.96 C1.07 324.96
							 0 323.91 0 322.54 L0.16 306.4 C0.16 305.99 0.25 305.59 0.49 305.27 C0.49 305.19 0.58 305.1 0.58 305.1
							 C0.58 305.02 0.66 304.94 0.66 304.94 C0.74 304.78 0.82 304.78 0.91 304.7 C0.99 304.62 0.99 304.54 1.07
							 304.54 C1.57 304.14 2.06 303.97 2.64 303.97 L19.12 304.14 C20.52 304.14 21.59 305.19 21.59 306.56 C21.59
							 307.93 20.52 308.98 19.12 308.98 L8.24 308.9 Z" class="st2"/>
			</g>
		</g>
	</g>
</svg>
